<?xml version="1.0" encoding="utf-8"?>
<!-- Generator: Adobe Illustrator 18.0.0, SVG Export Plug-In . SVG Version: 6.00 Build 0)  -->
<!DOCTYPE svg PUBLIC "-//W3C//DTD SVG 1.1//EN" "http://www.w3.org/Graphics/SVG/1.1/DTD/svg11.dtd">
<svg version="1.1" id="Layer_1" xmlns="http://www.w3.org/2000/svg" xmlns:xlink="http://www.w3.org/1999/xlink" x="0px" y="0px"
	 viewBox="0 0 837.7 679.2" enable-background="new 0 0 837.7 679.2" xml:space="preserve">
<g>
	<path fill="#E38A81" d="M833.2,583.6l-25.4-15.2c-7.2-4.3-5.4-15.2,2.8-17l18.9-4.2c8.2-1.8,9.9-12.6,2.8-17L795,507.6
		c-6.2-3.8-5.9-12.9,0.6-16.2l22.2-11.2c6.6-3.3,6.8-12.7,0.4-16.4l-29.4-16.5c-6.2-3.5-6.3-12.3-0.3-16l24.3-14.7
		c6-3.7,5.9-12.4-0.2-15.9l-23.4-13.6c-5.6-3.2-6.2-11-1.3-15.1l44.3-36.9c6.7-5.6,2.7-16.4-5.9-16.4h-53h-5H69.3H55h-9.8
		c-8.8,0-12.6,11.1-5.8,16.5l6.9,5.5c5.9,4.7,4.1,14.1-3.2,16.2l-4.7,1.4c-7.2,2.1-9.1,11.5-3.2,16.2c6,4.7,4,14.3-3.3,16.2l-25,6.7
		c-7.9,2.1-9.4,12.7-2.4,16.9l25.4,15.2c7.2,4.3,5.4,15.2-2.8,17l-18.9,4.2c-8.2,1.8-9.9,12.6-2.8,17l37.2,22.6
		c6.2,3.8,5.9,12.9-0.6,16.2l-22.2,11.2c-6.6,3.3-6.8,12.7-0.4,16.4l29.4,16.5c6.2,3.5,6.3,12.3,0.3,16l-24.3,14.7
		c-6,3.7-5.9,12.4,0.2,15.9l23.4,13.6c5.6,3.2,6.2,11,1.3,15.1L5.4,662.8c-6.7,5.6-2.7,16.4,5.9,16.4H55h14.3h699.1h5h19.2
		c8.8,0,12.6-11.1,5.8-16.5l-6.9-5.5c-5.9-4.7-4.1-14.1,3.2-16.2l4.7-1.4c7.2-2.1,9.1-11.5,3.2-16.2c-6-4.7-4-14.3,3.3-16.2l25-6.7
		C838.7,598.4,840.2,587.8,833.2,583.6z"/>
	<path fill="#E27E7D" d="M42.6,449.3c74.5-0.8,149-1.3,223.5-1.5c74.3-0.2,148.5-0.2,222.8,0.2c42,0.2-2.7,0.5,39.2,0.9
		c9.3,0.1,4.3-10.6-2.5-10.7c-74.7-0.7-62.7-1.1-137.4-1.2c-74.8-0.1-149.6,0.1-224.4,0.5c-42.3,0.3-84.6,0.6-126.9,1.1
		c-3.3,0-4.4,3.4-3.2,6C35.3,447.9,39.2,449.4,42.6,449.3L42.6,449.3z"/>
	<path fill="#E27E7D" d="M150.9,399.7c74.5-0.8,149-1.3,223.5-1.5c74.3-0.2,148.5-0.2,222.8,0.2c42,0.2-2.7,0.5,39.2,0.9
		c9.3,0.1,4.3-10.6-2.5-10.7c-74.7-0.7-62.7-1.1-137.4-1.2c-74.8-0.1-149.6,0.1-224.4,0.5c-42.3,0.3-84.6,0.6-126.9,1.1
		c-3.3,0-4.4,3.4-3.2,6C143.5,398.3,147.5,399.7,150.9,399.7L150.9,399.7z"/>
	<path fill="#E27E7D" d="M274.7,493.7c116.5,7.1,233.3,10.1,350,8.9c32.8-0.3,65.6-1,98.4-2c8.8-0.3,6.9-14-1-13.8
		c-116.7,3.6-233.5,3-350.1-1.8c-32.8-1.3-65.5-3-98.3-5C265,479.4,266.9,493.2,274.7,493.7L274.7,493.7z"/>
	<path fill="#836031" d="M505.1,549.1c76.1-2,152.3-2.3,228.4-0.9c21.4,0.4,42.8,0.9,64.2,1.6c8.8,0.3,9.2-12.6,0.1-12.9
		c-76.1-2.3-152.3-3-228.4-1.9c-21.4,0.3-42.8,0.7-64.2,1.3C496.4,536.4,495.9,549.3,505.1,549.1L505.1,549.1z"/>
	<path fill="#E27E7D" d="M158.1,530c102,4.4,204.1,8.8,306.1,13.2c29,1.2,58,2.5,86.9,3.7c3.4,0.1,7.4-1.7,8.1-5.4
		c0.6-3.5-2.7-6.4-6-6.6c-102-4.4-204.1-8.8-306.1-13.2c-29-1.2-58-2.5-86.9-3.7c-3.4-0.1-7.4,1.7-8.1,5.4
		C151.5,527,154.8,529.9,158.1,530L158.1,530z"/>
	<path fill="#836031" d="M81.7,657.5c66-2.3,132.1-2,198.1,1c18.8,0.9,37.7,1.9,56.5,3.2c3.5,0.2,6.9-2.5,6.8-6.1
		c-0.1-3.8-3.9-6.2-7.3-6.5c-65.9-4.5-131.9-6.3-198-5.5c-18.9,0.2-37.7,0.7-56.6,1.3C72,645.2,73,657.8,81.7,657.5L81.7,657.5z"/>
	<path fill="#FFCE79" d="M338,241.4c-15,8.9-169.3-60.3-169.3-60.3S98,231.7,106.3,317.7c7.8,81.9,95.3,81,196.3,71.5
		c8.9-0.8,15.8-8,16.4-16.8l0.8-12.4c0,0,11.9,0.8,12,0.8"/>
	<path fill="#75B191" d="M134.9,216.5c0,0-29.8,31.2-29.3,84.7l132.7,1.7l-0.6,13.9l65.5,1.9c10.1,0.3,17.9,8.7,17.5,18.8l-0.9,22.4
		l13.8,1.1c0,0-11.1-79.1-3.4-125.7L134.9,216.5z"/>
	<path fill="none" stroke="#F0AB4B" stroke-width="3" stroke-linecap="round" stroke-linejoin="round" stroke-miterlimit="10" d="
		M209.9,316.6c0,0,59.3-0.2,95,2.9c9.9,0.9,17.3,9.5,16.5,19.4l-0.3,20.2"/>
	<path fill="none" stroke="#F0AB4B" stroke-width="3" stroke-linecap="round" stroke-linejoin="round" stroke-miterlimit="10" d="
		M237,316.7c2.6-13.3,0.2-27.6,0.2-27.6"/>
	<linearGradient id="SVGID_1_" gradientUnits="userSpaceOnUse" x1="416.2162" y1="286.8708" x2="728.8395" y2="286.8708">
		<stop  offset="0" style="stop-color:#C7C8CA"/>
		<stop  offset="1" style="stop-color:#BCBEC0"/>
	</linearGradient>
	<path fill="url(#SVGID_1_)" d="M642.6,169c0,0,53,32.3,75.2,90.8c22.2,58.5,9.5,87-25.4,106.8c-31.4,17.8-47.4,22.8-60.6,34
		c-3,2.5-6.7,4-10.6,4h-30.4c-9,0-16.5-7.1-16.7-16c-0.3-11.5,1.5-27.9,11.3-45.8h-35.8c0,0,8.4,12.1,12.9,23.6
		c2.2,5.5-0.8,11.7-6.5,13.6l-42.2,14.1c-2.8,0.9-5.9,0.6-8.5-0.9c-9.5-5.5-34.1-19.5-53.8-27.9c-25-10.7-42.8-44.6-32.1-73.1
		c10.7-28.5,71.8-96.7,71.8-96.7L642.6,169z"/>
	<path fill="#F5C15D" d="M450.5,244.2l99.1,98.7h35.8l21.6-19.9L712,246.5c0,0-32.1-66.5-82.1-80.4l-138.7,29.3L450.5,244.2z"/>
	<g>
		<path fill="#797A7D" d="M479.2,301.2c6.4,0.2,12.8,1.5,19,3.3c3.1,0.9,6.1,2.1,9.1,3.3l4.4,2c1.5,0.7,2.9,1.5,4.3,2.2
			c0.7,0.4,1.4,0.8,2.1,1.2l2.1,1.3l2.1,1.3c0.7,0.4,1.4,0.8,2,1.3l3.9,2.9c1.3,0.9,2.5,2.1,3.7,3.1l1.8,1.6l0.9,0.8l0.9,0.9
			l3.4,3.5c1.1,1.1,2.1,2.4,3.1,3.7c1,1.3,2,2.5,3,3.8c-1.2-1.1-2.3-2.2-3.5-3.3c-1.2-1.1-2.2-2.3-3.5-3.3c-2.4-2.1-4.8-4.2-7.3-6.1
			c-5-3.9-10.3-7.3-15.9-10.4c-5.5-3.1-11.3-5.7-17.3-7.9C491.6,304.1,485.5,302.3,479.2,301.2z"/>
	</g>
	<path fill="#F2A959" d="M476.2,212.7c-1,1.2,4,11.1,4.5,12.3c4.1,9.5,9.4,18.7,16,26.7c44.7,54.2,149.9,44.3,194.7-4.6
		c1.4-1.5,13.1-14.5,12-15.9c0,0-35.2-45.7-35.2-45.7l-186.1,20.1C482.1,205.5,476.2,212.6,476.2,212.7z"/>
	<path fill="#9CA1A5" d="M648.4,157.9l47.3,61.7c0,0-123.1,114-210.2-10L648.4,157.9z"/>
	<path fill="#75B191" d="M333.6,361"/>
	<linearGradient id="SVGID_2_" gradientUnits="userSpaceOnUse" x1="333.6398" y1="360.9807" x2="333.6398" y2="360.9807">
		<stop  offset="0" style="stop-color:#C7C8CA"/>
		<stop  offset="1" style="stop-color:#BCBEC0"/>
	</linearGradient>
	<path fill="url(#SVGID_2_)" d="M333.6,361"/>
	<path fill="#75B191" d="M333.6,361c0,0,19.3,0.3,31.3,0c0,0-29.9-38.1-18.2-110.3l-19.2-9.9l-11.9,30.4L333.6,361z"/>
	<path fill="#E38A81" d="M319.4,366.3l0.8-14.7l37.2-15.5c0,0,1.5,25.5,23.8,28.4C381.2,364.5,331.4,372.8,319.4,366.3z"/>
	<path fill="#75B191" d="M128.3,224.9l26-34.7l202.2,4.8c0,0,49.5,73.5,46.6,124.9l-49.9,17.9L128.3,224.9z"/>
	<g>
		<path fill="#F2B964" d="M279.2,46.9c-3.8-1.7,6.6-19.2,7.9-20.7c9.1-9.7,25.8-12.4,36.9-4.4c14.1,10.2,12.5,33.5,4.4,46.9
			C328.4,68.7,279.3,47,279.2,46.9z"/>
		<path fill="#FFCE79" d="M374.3,169.5c-0.7-9-3.4-17.6-6.6-26c-2.5-6.5-5.3-13-7.8-19.4c-6.6-17-12.8-38.7-24-53.2
			c-15.1-19.5-39-29.2-62.4-34.7c-26-6.1-51.5-2-76.7,7.5c-1.1,0.4-12.1,5.5-12.2,5.4c-9.1-11.5-27-13.4-41-9.1
			c-13.9,4.3-24,19.2-21.7,33.6c1,12.9,10.5,24.4,18.7,30.6c0.1,0-0.1,0,0,0c-4.6,10.2-5.6,14.7-7.2,25.7
			c-4.2,28.7,2.5,59,18.9,82.9c14.6,21.4,36.4,37.5,60.7,46.9c26.3,10.2,55.8,12.5,83,5c27.2-7.5,51.8-25,66.3-49.1
			C370.6,201.8,375.7,185.6,374.3,169.5z"/>
		<path fill="#F2B964" d="M144,94.3c6.1,4.6,16.1-4.9,24.5-16.2c8.1-10.9,1.4-26.8-12-28.3C149,49,140.8,51,133.2,59
			c0,0-0.1,0.1-0.1,0.1c-5.5,5.8-6.1,14.7-1.9,21.5C134.7,86.1,139.5,90.9,144,94.3z"/>
		<circle fill="#F0AB4B" cx="253.9" cy="146.9" r="11.9"/>
		<circle fill="#F0AB4B" cx="331.5" cy="135.6" r="11.5"/>
		<circle fill="#FFFFFF" cx="331.7" cy="134.9" r="7.2"/>
		<path fill="#F1B55B" d="M281.2,154.4l-13.2-20.3l0,0c-3.6-4.8-1.2-11.8,4.6-13.2l23.4-5.9c2.9-0.7,6,0.1,8,2.2
			c6.6,6.7,17.6,22.1,19.4,30.6"/>
		<circle fill="#E87D4C" cx="204.2" cy="179.2" r="28.5"/>
		<circle fill="#E87D4C" cx="352.6" cy="155" r="15.9"/>
		<circle fill="#FFFFFF" cx="253.9" cy="146.9" r="7.2"/>
		<circle fill="#48484A" cx="253.9" cy="146.9" r="3.6"/>
		<path fill="#EA8C38" d="M285.2,147.9c8.4-2,20-4,32.9-4.4c4.6-0.1,7.2,5.2,4.3,8.8l-14.2,17.3l-24.1-11.7
			C279.5,155.7,280.3,149,285.2,147.9z"/>
		<path fill="#F1B55B" d="M241.6,125.4c6.2-3,13.3-8.8,11.8-19.3c-0.4-2.8-4.3-3.4-5.9-0.9l-10.1,16.1
			C235.9,123.9,238.7,126.8,241.6,125.4z"/>
		<path fill="#F1B55B" d="M321.8,106.8c-6.9,0.5-15.9-1-19.8-10.8c-1.1-2.6,2.1-5.1,4.6-3.7l16.7,8.9
			C326,102.7,324.9,106.6,321.8,106.8z"/>
		<circle fill="#48484A" cx="331.7" cy="134.6" r="3.6"/>
		<g>
			<path fill="#EA8C38" d="M308.4,166.1c1.4,2.1,2.1,4.2,2.7,6.3c0.5,2.1,0.7,4.2,0.7,6.3c0,2.1-0.2,4.2-0.7,6.3
				c-0.5,2.1-1.3,4.2-2.7,6.3l-0.1,0.1c-0.1,0.1-0.2,0.1-0.3,0.1c-0.1,0-0.1-0.1-0.1-0.1c-0.1-2.1-0.1-4.2-0.1-6.3l-0.1-6.3l0.1-6.3
				c0-2.1,0.1-4.2,0.1-6.3c0-0.1,0.1-0.2,0.2-0.2C308.3,165.9,308.3,165.9,308.4,166.1L308.4,166.1z"/>
		</g>
		<g>
			<path fill="#EA8C38" d="M281,198.2c3.3-2.3,6.7-4,10.3-5.4c3.5-1.5,7.1-2.6,10.7-3.6c3.6-0.9,7.3-1.7,11.1-2.1
				c3.8-0.5,7.6-0.7,11.6-0.3l0.1,0c0.1,0,0.2,0.1,0.2,0.2c0,0.1-0.1,0.1-0.1,0.2c-3.6,1-7.3,2-10.9,3l-10.9,2.9l-11,2.8
				c-3.6,0.9-7.3,1.9-11,2.7c-0.1,0-0.2,0-0.2-0.1C280.9,198.4,280.9,198.3,281,198.2L281,198.2z"/>
		</g>
		<g>
			<path fill="#EA8C38" d="M302.4,210c1.4-1.4,2.5-2.3,3.6-3.2c1.1-0.8,2.2-1.5,3.3-2c1.2-0.5,2.4-1,3.8-1.3
				c0.7-0.2,1.4-0.3,2.3-0.4c0.8-0.1,1.7-0.2,2.7-0.1l0.2,0c0.1,0,0.2,0.1,0.1,0.2c0,0,0,0.1-0.1,0.1l-1.7,1.5
				c-0.6,0.4-1.2,0.9-1.8,1.3c-1.2,0.8-2.5,1.6-3.8,2.3c-1.4,0.6-2.8,1.1-4.2,1.5c-1.4,0.4-2.9,0.6-4.5,0.5c-0.1,0-0.2-0.1-0.1-0.2
				c0,0,0-0.1,0-0.1L302.4,210z"/>
		</g>
	</g>
	<g>
		
			<linearGradient id="SVGID_3_" gradientUnits="userSpaceOnUse" x1="409.057" y1="24.696" x2="439.457" y2="75.996" gradientTransform="matrix(0.9431 0.3324 -0.3324 0.9431 353.4358 779.7017)">
			<stop  offset="0" style="stop-color:#C7C8CA"/>
			<stop  offset="1" style="stop-color:#B1B3B6"/>
		</linearGradient>
		<path fill="url(#SVGID_3_)" d="M700.1,181c1-3.9,1.7-7.9,2.2-11.9c1.8-15.7-0.1-32.5-5.5-47.4c-0.6-1.8-1.4-3.5-2.3-5.4
			c0,0,0,0,0,0c-2-4.2-4.3-8.6-6.1-13c-1.6-2.9-3.4-5.7-5.3-8.5l7.9-19.6c2.8-6.9,3.8-14.4,3.1-21.8L691,23.1
			c1.1-6.1-1.5-12.2-6.6-15.7c-7.1-4.9-16.8-3.2-21.7,3.8c-9.6,13.7-7.2,29-4.3,38.2c1.8,5.5,2.1,11.4,0.9,17
			c-6.2-6.3-10.7-10.2-10.7-10.2c-13.2-7.9-23.5-10.5-23.5-10.5c-12.3-4.6-25.5-6.8-39.3-6c-20.3,1.2-40.6,9-57.2,20.9
			c-19.3,13.8-40.9,26.1-63.8,32.8c-2.4,0.7-4.7,1.7-7,2.9c-9.9-4.3-21.1,3-25.5,12.9c-1.9,4.4-2,8.1-0.9,11.6
			c1.5,4.6,1.9,9.4,1.1,14.1c-1.8,10.3-1,21,2.3,30.9c7.9,23.2,30,44.3,51.1,55.8c14.2,7.7,29.5,13.2,45,17.6
			c14.7,4.2,29.8,7.3,44.9,9.8C686.4,267.1,700.1,181,700.1,181z"/>
		<g>
			<path fill="#797A7D" d="M464,114.9c1.2,1.3,2,2.9,2.4,4.7c0.4,1.8,0.3,3.6-0.1,5.4c-0.4,1.8-1,3.5-2.1,5
				c-0.6,0.7-1.2,1.3-1.9,1.9c-0.7,0.5-1.5,1-2.3,1.4c-0.1,0-0.1,0-0.2-0.1c0,0,0-0.1,0-0.1l0,0c0.3-0.9,0.7-1.6,1.1-2.4
				c0.4-0.8,0.8-1.5,1.2-2.2c0.2-0.4,0.4-0.7,0.6-1c0.2-0.3,0.4-0.7,0.6-1l0.6-1l0.5-1.1c0.5-1.5,0.9-3.1,0.8-4.7
				c0-1.6-0.5-3.2-1.3-4.7l0,0c0-0.1,0-0.1,0-0.2C463.9,114.8,464,114.8,464,114.9z"/>
		</g>
		<path fill="#808285" d="M439,122c0.2-0.7,1-1.4,2.5-1.8c2.5-0.7,8.4,0.1,7.2,4.7c-0.9,3.4-2.7,4.1-4.9,3.1
			C441.8,127.2,438.3,124.2,439,122z"/>
		<circle fill="#9A9FA3" cx="517.8" cy="113.4" r="12.9"/>
		<path fill="#FFFFFF" d="M494,82.4L464.4,2.1c-1.1-3-5.5-2.7-6.1,0.5c-4,19.3-10.5,61.5,0.3,94C458.6,96.6,470.8,95.4,494,82.4z"/>
		<g>
			<path fill="#797A7D" d="M493.5,127.4c-1.1,2.4-2,4.8-2.5,7.2c-0.5,2.4-0.7,4.9-0.4,7.3c0,0.6,0.2,1.2,0.3,1.8
				c0.1,0.6,0.2,1.2,0.4,1.8l0.5,1.8c0.3,0.6,0.5,1.1,0.7,1.7l0.4,0.9l0.5,0.8l0.9,1.7c0.6,1.1,1.4,2.1,2.1,3.3
				c-1-0.8-2.1-1.6-3-2.6l-1.3-1.5c-0.2-0.3-0.4-0.5-0.6-0.8l-0.5-0.9c-0.4-0.6-0.7-1.2-1-1.8l-0.8-1.9c-0.3-0.6-0.4-1.3-0.6-2
				c-0.1-0.7-0.3-1.3-0.3-2c-0.3-2.8,0.1-5.6,1-8.1C490,131.5,491.5,129.2,493.5,127.4z"/>
		</g>
		<path fill="none" d="M688.8,104.4c1.8,4.4,4.1,8.8,6.1,13C693.3,113,691.2,108.7,688.8,104.4z"/>
		<polygon fill="#91929D" points="694.8,117.4 694.8,117.4 694.8,117.4 		"/>
		<path fill="none" stroke="#48484A" stroke-width="3" stroke-linecap="round" stroke-linejoin="round" stroke-miterlimit="10" d="
			M523.5,108.4c0,0-7.3,1.7-14.5,5.5c-2.8,1.5-1.6,4.4,1.5,3.9c5.6-0.8,12.3-1,15.8,1"/>
		<path fill="#797A7D" d="M432.7,135c0,0,27.4,9,57.3,3.8c0,0-7.9,33.3-51.6,35.3C438.4,174,427.8,158.1,432.7,135z"/>
		<path fill="#EF9BB5" d="M438.4,174c0,0-6.1-11-6.4-18.4c0,0,10.7-8.3,44.1,4.5C476.2,160.1,461.9,174.4,438.4,174z"/>
	</g>
</g>
<g>
</g>
<g>
</g>
<g>
</g>
<g>
</g>
<g>
</g>
<g>
</g>
<g>
</g>
<g>
</g>
<g>
</g>
<g>
</g>
<g>
</g>
<g>
</g>
<g>
</g>
<g>
</g>
<g>
</g>
</svg>
