<?xml version="1.0" encoding="utf-8"?>
<!-- Generator: Adobe Illustrator 18.0.0, SVG Export Plug-In . SVG Version: 6.00 Build 0)  -->
<!DOCTYPE svg PUBLIC "-//W3C//DTD SVG 1.1//EN" "http://www.w3.org/Graphics/SVG/1.1/DTD/svg11.dtd">
<svg version="1.1" id="Layer_1" xmlns="http://www.w3.org/2000/svg" xmlns:xlink="http://www.w3.org/1999/xlink" x="0px" y="0px"
	 viewBox="0 0 3946 603.7" enable-background="new 0 0 3946 603.7" xml:space="preserve">
<g>
	<path fill="#F48798" d="M2397,554.2c-6-1.9-10.1-7.7-9.7-14.1c4.2-74.3-58.5-112.7-59.1-113.1l14.3-24c2.4,1.4,43.9,26.9,63.2,76.9
		l22.5-71.9l26.6,8.4l-40.4,128.6c-2.1,6.7-8.9,10.8-15.8,9.6C2398.1,554.6,2397.6,554.4,2397,554.2z"/>
	<path fill="#F48798" d="M2412.2,549.5l-22.1-17.1c2.3-2.9,56.7-72,131.9-71.7l-0.1,27.9c-31.6-0.1-59.4,16.1-77.2,29.7
		C2424.7,533.7,2412.3,549.3,2412.2,549.5z"/>
	
		<ellipse transform="matrix(0.8996 0.4367 -0.4367 0.8996 415.9351 -978.3752)" fill="#F16B98" cx="2335.9" cy="415.4" rx="9.8" ry="14.1"/>
	<path fill="#F16B98" d="M2360.1,430.2c5.5,4.3,10.9,8.6,15.3,14c0.6,0.7,3.6-0.5,4.2,0.2c-4.4-5.4-9.8-9.8-15.3-14
		C2363.4,429.6,2361,430.9,2360.1,430.2L2360.1,430.2z"/>
	<path fill="#F16B98" d="M2351.7,431.5c4.6,7.6,12,12.8,16.8,20.2c0.5,0.7,3.8-0.5,4.2,0.2c-4.8-7.4-12.3-12.6-16.8-20.2
		C2355.5,431,2352.1,432.1,2351.7,431.5L2351.7,431.5z"/>
	<path fill="#F16B98" d="M2381.2,459.6c2.2,3.2,4.5,6.3,6.9,9.4c0.2,0.2,1.8,0.1,2.1,0.1c0.3,0,1.9-0.2,2.1,0.1
		c-2.4-3-4.7-6.2-6.9-9.4c-0.1-0.2-1.8-0.1-2.1-0.1C2383,459.6,2381.3,459.8,2381.2,459.6L2381.2,459.6z"/>
	<path fill="#F16B98" d="M2375.6,465.6c2.4,2.6,4.8,5.1,7.5,7.4c0.3,0.3,1.7,0.1,2.1,0.1c0.4,0,1.8-0.2,2.1,0.1
		c-2.6-2.3-5.1-4.8-7.5-7.4c-0.2-0.2-1.8-0.1-2.1-0.1C2377.4,465.7,2375.8,465.9,2375.6,465.6L2375.6,465.6z"/>
	<path fill="#F16B98" d="M2392.8,483.9c0.9,3,2,5.8,3.3,8.7c0.1,0.2,1.9,0.1,2.1,0.1c0.2,0,2-0.1,2.1,0.1c-1.3-2.8-2.4-5.7-3.3-8.7
		C2396.9,483.6,2393,484.3,2392.8,483.9L2392.8,483.9z"/>
	<path fill="#F16B98" d="M2387.3,488.3c1.6,2.3,3,4.7,4.3,7.2c0.1,0.2,1.9,0.1,2.1,0.1c0.2,0,2-0.1,2.1,0.1
		c-1.2-2.5-2.7-4.9-4.3-7.2c-0.1-0.2-1.8-0.1-2.1-0.1C2389.1,488.3,2387.5,488.5,2387.3,488.3L2387.3,488.3z"/>
	<path fill="#F16B98" d="M2432.1,420.1c-0.5,3.2-1,6.3-1.5,9.5c0-0.1,4.2,0.4,4.2,0.2c0.5-3.2,1-6.3,1.5-9.5
		C2436.2,420.4,2432.1,420,2432.1,420.1L2432.1,420.1z"/>
	<path fill="#F16B98" d="M2441.9,423c-1,3.5-2.2,7-3.7,10.3c0.2-0.4,4,0.7,4.2,0.2c1.5-3.3,2.7-6.8,3.7-10.3
		C2446,423.5,2442,422.7,2441.9,423L2441.9,423z"/>
	<path fill="#F16B98" d="M2427.2,438.6c-1.8,9.1-6.2,17.3-8.1,26.3c0-0.2,4.1,0.4,4.2,0.2c1.9-9,6.3-17.3,8.1-26.3
		C2431.4,438.9,2427.3,438.3,2427.2,438.6L2427.2,438.6z"/>
	<path fill="#F16B98" d="M2434.4,443.6c-2,9.2-4.6,18.2-7.7,27.1c0.1-0.3,4,0.6,4.2,0.2c3.1-8.9,5.6-17.9,7.7-27.1
		C2438.6,444,2434.5,443.3,2434.4,443.6L2434.4,443.6z"/>
	<path fill="#F16B98" d="M2413.3,472.8c-0.6,4.5-1.2,9.1-2,13.6c0-0.1,4.1,0.4,4.2,0.2c0.8-4.5,1.4-9,2-13.6
		C2417.5,473,2413.3,472.6,2413.3,472.8L2413.3,472.8z"/>
	<path fill="#F16B98" d="M2423.5,479.9c-4.4,8-8.2,16.3-11.5,24.9c0.2-0.4,4,0.6,4.2,0.2c3.3-8.6,7.1-16.8,11.5-24.9
		C2427.4,480.6,2423.8,479.4,2423.5,479.9L2423.5,479.9z"/>
	<path fill="#F16B98" d="M2504,469c-5.8,0.8-11.4,2.4-16.8,4.7c-1.1,0.5-0.5,4.5-1.6,5c5.4-2.4,11-3.9,16.8-4.7
		C2503.2,473.9,2503.3,469.1,2504,469L2504,469z"/>
	<path fill="#F16B98" d="M2506.1,480.3c-3.8,0.6-7.6,1.5-11.3,2.6c-0.3,0.1-0.7,2.2-0.8,2.5c-0.1,0.3-0.5,2.4-0.8,2.5
		c3.7-1.1,7.5-1.9,11.3-2.6c0.2,0,0.7-2.2,0.8-2.5C2505.4,482.5,2505.9,480.3,2506.1,480.3L2506.1,480.3z"/>
	<path fill="#F16B98" d="M2474.1,480.2c-9.2,1.5-18.6,3.3-25.2,10.4c-1.1,1.2-0.5,3.8-1.6,5c6.6-7.1,16-8.9,25.2-10.4
		C2473.3,485.1,2473.3,480.4,2474.1,480.2L2474.1,480.2z"/>
	<path fill="#F16B98" d="M2453,500.9c5.3-0.9,10.2-2.9,14.5-6.1c0.4-0.3,0.7-2,0.8-2.5c0.2-0.5,0.3-2.2,0.8-2.5
		c-4.3,3.1-9.2,5.2-14.5,6.1C2453.8,496,2453.8,500.7,2453,500.9L2453,500.9z"/>
	<path fill="#F16B98" d="M2437.4,501.3c-2.8,1.3-5.7,2.6-8.5,4c-0.3,0.2-0.7,2.1-0.8,2.5c-0.2,0.6-0.4,1.2-0.5,1.8
		c0,0.1-0.1,0.7-0.2,0.7c2.8-1.3,5.7-2.6,8.5-4c0.3-0.2,0.7-2.1,0.8-2.5c0.2-0.6,0.4-1.2,0.5-1.8
		C2437.2,502,2437.3,501.4,2437.4,501.3L2437.4,501.3z"/>
	<path fill="#F16B98" d="M2441.5,508c-1.6,3.4-6.2,5.4-9.3,7.2c-0.4,0.2-0.7,2.1-0.8,2.5c-0.1,0.4-0.4,2.3-0.8,2.5
		c3.1-1.8,7.7-3.8,9.3-7.2C2440.7,511.4,2440.8,509.5,2441.5,508L2441.5,508z"/>
	
		<ellipse transform="matrix(0.9541 0.2994 -0.2994 0.9541 235.397 -711.9941)" fill="#F16B98" cx="2441.5" cy="412.3" rx="14" ry="6.7"/>
	
		<ellipse transform="matrix(0.9997 -2.412777e-002 2.412777e-002 0.9997 -10.7155 61.0137)" fill="#F16B98" cx="2523" cy="474.6" rx="9.7" ry="14.2"/>
</g>
<g>
	<path fill="#F48798" d="M2221.4,557.3c-6.3,0.6-12.3-3.2-14.4-9.3c-24.5-70.2-97.2-81.7-97.9-81.8l4.1-27.6
		c2.7,0.4,50.8,8,87.8,46.8l-6.7-75l27.8-2.5l12,134.3c0.6,7-4.1,13.4-11,14.9C2222.6,557.1,2222,557.2,2221.4,557.3z"/>
	<path fill="#F48798" d="M2233.7,547l-26.9-7.4c1-3.6,24.8-88.2,94.4-116.7l10.6,25.8c-29.2,12-48.7,37.6-60,57
		C2239.1,527.6,2233.7,546.8,2233.7,547z"/>
	
		<ellipse transform="matrix(0.9983 5.894449e-002 -5.894449e-002 0.9983 30.3406 -123.6932)" fill="#F16B98" cx="2111.8" cy="452.4" rx="9.8" ry="14.1"/>
	<path fill="#F16B98" d="M2139.8,456.8c6.7,1.8,13.3,3.8,19.5,7.1c0.8,0.5,3.1-1.9,3.9-1.4c-6.1-3.3-12.8-5.3-19.5-7.1
		C2142.6,455,2140.9,457.1,2139.8,456.8L2139.8,456.8z"/>
	<path fill="#F16B98" d="M2132.6,461.2c7.1,5.3,16,7.2,23.3,12.2c0.7,0.5,3.3-1.9,3.9-1.4c-7.3-5-16.2-6.9-23.3-12.2
		C2135.9,459.3,2133.2,461.6,2132.6,461.2L2132.6,461.2z"/>
	<path fill="#F16B98" d="M2170.5,475.8c3.3,2.1,6.6,4.1,10,6c0.2,0.1,1.7-0.6,2-0.7c0.3-0.1,1.7-0.9,2-0.7c-3.4-1.9-6.7-3.9-10-6
		c-0.2-0.1-1.7,0.6-2,0.7C2172.3,475.2,2170.8,476,2170.5,475.8L2170.5,475.8z"/>
	<path fill="#F16B98" d="M2167.7,483.6c3.2,1.5,6.4,2.8,9.7,4c0.4,0.1,1.6-0.6,2-0.7c0.4-0.1,1.6-0.9,2-0.7c-3.3-1.2-6.6-2.5-9.7-4
		c-0.3-0.1-1.7,0.6-2,0.7C2169.4,482.9,2168,483.7,2167.7,483.6L2167.7,483.6z"/>
	<path fill="#F16B98" d="M2190.7,493.9c2,2.4,4.1,4.6,6.4,6.7c0.1,0.1,1.8-0.6,2-0.7c0.2-0.1,1.8-0.9,2-0.7
		c-2.3-2.1-4.4-4.4-6.4-6.7C2194.3,492.1,2190.9,494.2,2190.7,493.9L2190.7,493.9z"/>
	<path fill="#F16B98" d="M2187.2,500c2.4,1.5,4.6,3.2,6.7,5c0.1,0.1,1.8-0.6,2-0.7c0.2-0.1,1.8-0.9,2-0.7c-2.1-1.8-4.4-3.5-6.7-5
		c-0.2-0.1-1.7,0.6-2,0.7C2188.9,499.4,2187.4,500.2,2187.2,500L2187.2,500z"/>
	<path fill="#F16B98" d="M2202.5,420c0.8,3.1,1.5,6.3,2.3,9.4c0-0.1,4-1.3,3.9-1.4c-0.8-3.1-1.5-6.3-2.3-9.4
		C2206.4,418.6,2202.4,419.8,2202.5,420L2202.5,420z"/>
	<path fill="#F16B98" d="M2212.7,418.8c0.4,3.6,0.6,7.3,0.5,10.9c0-0.5,3.9-0.9,3.9-1.4c0.1-3.7-0.1-7.3-0.5-10.9
		C2216.6,417.7,2212.6,418.5,2212.7,418.8L2212.7,418.8z"/>
	<path fill="#F16B98" d="M2205.1,438.8c1.8,9.1,0.9,18.4,2.6,27.4c0-0.2,4-1.2,3.9-1.4c-1.7-9.1-0.8-18.4-2.6-27.4
		C2209,437.6,2205,438.6,2205.1,438.8L2205.1,438.8z"/>
	<path fill="#F16B98" d="M2213.6,440.7c1.6,9.3,2.7,18.6,3.3,28c0-0.4,4-1,3.9-1.4c-0.6-9.4-1.7-18.7-3.3-28
		C2217.6,439.5,2213.6,440.4,2213.6,440.7L2213.6,440.7z"/>
	<path fill="#F16B98" d="M2205.3,475.7c1.2,4.4,2.3,8.8,3.3,13.3c0-0.1,4-1.2,3.9-1.4c-1-4.5-2.1-8.9-3.3-13.3
		C2209.2,474.4,2205.2,475.6,2205.3,475.7L2205.3,475.7z"/>
	<path fill="#F16B98" d="M2217.4,478.5c-1,9.1-1.3,18.2-1.1,27.4c0-0.4,3.9-1,3.9-1.4c-0.2-9.2,0.1-18.3,1.1-27.4
		C2221.3,477.6,2217.5,477.8,2217.4,478.5L2217.4,478.5z"/>
	<path fill="#F16B98" d="M2287.7,437.5c-5.1,3-9.6,6.5-13.7,10.8c-0.8,0.8,1.2,4.4,0.5,5.2c4.1-4.2,8.6-7.8,13.7-10.8
		C2288.8,442.4,2287.1,437.9,2287.7,437.5L2287.7,437.5z"/>
	<path fill="#F16B98" d="M2293.9,447.2c-3.3,2-6.4,4.3-9.4,6.7c-0.2,0.2,0.2,2.3,0.2,2.6c0,0.3,0.5,2.4,0.3,2.6
		c3-2.4,6.2-4.7,9.4-6.7c0.2-0.1-0.2-2.3-0.2-2.6C2294.1,449.5,2293.7,447.3,2293.9,447.2L2293.9,447.2z"/>
	<path fill="#F16B98" d="M2264.3,459.4c-7.9,4.9-15.9,10.2-19.3,19.3c-0.5,1.5,1,3.8,0.5,5.2c3.3-9.1,11.4-14.4,19.3-19.3
		C2265.4,464.2,2263.6,459.8,2264.3,459.4L2264.3,459.4z"/>
	<path fill="#F16B98" d="M2252.8,486.5c4.5-2.8,8.3-6.6,11.1-11.2c0.3-0.4-0.2-2.1-0.2-2.6c0-0.5-0.5-2.2-0.3-2.6
		c-2.8,4.6-6.5,8.3-11.1,11.2C2251.6,481.7,2253.4,486.1,2252.8,486.5L2252.8,486.5z"/>
	<path fill="#F16B98" d="M2238.5,492.9c-2.1,2.3-4.2,4.6-6.3,6.9c-0.3,0.3,0.2,2.2,0.2,2.6c0.1,0.6,0.1,1.2,0.2,1.8
		c0,0.1,0.1,0.7,0.1,0.8c2.1-2.3,4.2-4.6,6.3-6.9c0.3-0.3-0.2-2.2-0.2-2.6c-0.1-0.6-0.1-1.2-0.2-1.8
		C2238.5,493.6,2238.4,493,2238.5,492.9L2238.5,492.9z"/>
	<path fill="#F16B98" d="M2244.8,497.5c-0.2,3.8-3.7,7.4-5.9,10.2c-0.3,0.3,0.2,2.2,0.2,2.6c0,0.4,0.5,2.3,0.3,2.6
		c2.2-2.8,5.7-6.4,5.9-10.2C2245.4,500.9,2244.8,499.2,2244.8,497.5L2244.8,497.5z"/>
	
		<ellipse transform="matrix(0.996 -8.881183e-002 8.881183e-002 0.996 -27.6045 197.7333)" fill="#F16B98" cx="2208.2" cy="409.1" rx="14" ry="6.7"/>
	
		<ellipse transform="matrix(0.9143 -0.4051 0.4051 0.9143 21.4304 972.0151)" fill="#F16B98" cx="2307.4" cy="435.4" rx="9.7" ry="14.2"/>
</g>
<g>
	<path fill="#F48798" d="M1349.4,603.6c-7.6,0.7-14.8-3.9-17.4-11.2c-29.7-84.9-117.5-98.8-118.4-98.9l4.9-33.4
		c3.3,0.5,61.5,9.7,106.2,56.6l-8.1-90.7l33.6-3l14.5,162.3c0.8,8.5-4.9,16.2-13.3,18C1350.8,603.5,1350.1,603.6,1349.4,603.6z"/>
	<path fill="#F48798" d="M1364.2,591.3l-32.6-8.9c1.2-4.3,30-106.6,114.1-141.1l12.8,31.2c-35.3,14.5-58.9,45.5-72.5,69
		C1370.7,567.8,1364.2,591,1364.2,591.3z"/>
	
		<ellipse transform="matrix(0.9983 5.894449e-002 -5.894449e-002 0.9983 30.2268 -70.8975)" fill="#F16B98" cx="1216.9" cy="476.9" rx="11.8" ry="17.1"/>
	<path fill="#F16B98" d="M1250.7,482.1c8.1,2.2,16.1,4.6,23.6,8.6c1,0.5,3.8-2.3,4.8-1.7c-7.4-4-15.5-6.4-23.6-8.6
		C1254.1,480,1252,482.5,1250.7,482.1L1250.7,482.1z"/>
	<path fill="#F16B98" d="M1242,487.5c8.6,6.4,19.4,8.7,28.2,14.8c0.8,0.6,4-2.3,4.8-1.7c-8.8-6.1-19.6-8.4-28.2-14.8
		C1245.9,485.2,1242.7,488,1242,487.5L1242,487.5z"/>
	<path fill="#F16B98" d="M1287.9,505.2c3.9,2.6,7.9,5,12,7.3c0.3,0.2,2-0.7,2.4-0.8c0.3-0.1,2.1-1.1,2.4-0.9
		c-4.1-2.3-8.1-4.7-12-7.3c-0.3-0.2-2.1,0.7-2.4,0.8C1289.9,504.4,1288.1,505.4,1287.9,505.2L1287.9,505.2z"/>
	<path fill="#F16B98" d="M1284.5,514.5c3.8,1.8,7.8,3.4,11.8,4.8c0.4,0.2,2-0.7,2.4-0.8c0.4-0.2,1.9-1,2.4-0.9
		c-4-1.4-7.9-3-11.8-4.8c-0.3-0.2-2,0.7-2.4,0.8C1286.5,513.8,1284.8,514.7,1284.5,514.5L1284.5,514.5z"/>
	<path fill="#F16B98" d="M1312.2,527c2.4,2.9,5,5.6,7.7,8.1c0.2,0.1,2.1-0.8,2.4-0.8c0.2-0.1,2.2-1,2.4-0.9
		c-2.7-2.5-5.3-5.3-7.7-8.1C1316.5,524.8,1312.5,527.4,1312.2,527L1312.2,527z"/>
	<path fill="#F16B98" d="M1308,534.4c2.9,1.8,5.6,3.9,8.1,6.1c0.2,0.2,2.1-0.8,2.4-0.8c0.3-0.1,2.2-1,2.4-0.9
		c-2.6-2.2-5.3-4.3-8.1-6.1c-0.3-0.2-2.1,0.7-2.4,0.8C1310.1,533.7,1308.3,534.6,1308,534.4L1308,534.4z"/>
	<path fill="#F16B98" d="M1326.4,437.6c0.9,3.8,1.8,7.6,2.7,11.3c0-0.2,4.8-1.5,4.8-1.7c-0.9-3.8-1.8-7.6-2.7-11.3
		C1331.2,436,1326.4,437.4,1326.4,437.6L1326.4,437.6z"/>
	<path fill="#F16B98" d="M1338.8,436.2c0.5,4.4,0.7,8.8,0.6,13.2c0-0.6,4.7-1.1,4.8-1.7c0.1-4.4-0.1-8.8-0.6-13.2
		C1343.6,434.9,1338.7,435.8,1338.8,436.2L1338.8,436.2z"/>
	<path fill="#F16B98" d="M1329.6,460.4c2.2,11,1.1,22.2,3.1,33.2c0-0.2,4.8-1.4,4.8-1.7c-2-11-0.9-22.2-3.1-33.2
		C1334.4,458.9,1329.5,460.1,1329.6,460.4L1329.6,460.4z"/>
	<path fill="#F16B98" d="M1339.9,462.7c2,11.2,3.3,22.5,4,33.8c0-0.4,4.8-1.2,4.8-1.7c-0.7-11.4-2-22.6-4-33.8
		C1344.7,461.2,1339.9,462.4,1339.9,462.7L1339.9,462.7z"/>
	<path fill="#F16B98" d="M1329.8,505.1c1.5,5.3,2.8,10.7,4,16.1c0-0.2,4.8-1.5,4.8-1.7c-1.2-5.4-2.6-10.7-4-16.1
		C1334.6,503.4,1329.8,504.9,1329.8,505.1L1329.8,505.1z"/>
	<path fill="#F16B98" d="M1344.6,508.4c-1.2,11-1.6,22-1.3,33.1c0-0.5,4.8-1.2,4.8-1.7c-0.3-11.1,0.2-22.1,1.3-33.1
		C1349.2,507.3,1344.6,507.6,1344.6,508.4L1344.6,508.4z"/>
	<path fill="#F16B98" d="M1429.5,458.9c-6.1,3.6-11.7,7.9-16.6,13c-1,1,1.5,5.3,0.6,6.3c4.9-5.1,10.4-9.5,16.6-13
		C1430.8,464.7,1428.7,459.3,1429.5,458.9L1429.5,458.9z"/>
	<path fill="#F16B98" d="M1436.9,470.5c-4,2.5-7.8,5.2-11.4,8.1c-0.3,0.2,0.2,2.8,0.2,3.2c0,0.4,0.6,2.9,0.3,3.1
		c3.6-2.9,7.4-5.6,11.4-8.1c0.2-0.1-0.2-2.8-0.2-3.2C1437.2,473.4,1436.7,470.7,1436.9,470.5L1436.9,470.5z"/>
	<path fill="#F16B98" d="M1401.2,485.3c-9.5,5.9-19.2,12.3-23.3,23.3c-0.7,1.8,1.2,4.5,0.6,6.3c4-11,13.7-17.4,23.3-23.3
		C1402.6,491.1,1400.4,485.8,1401.2,485.3L1401.2,485.3z"/>
	<path fill="#F16B98" d="M1387.2,518.1c5.5-3.4,10-8,13.4-13.5c0.3-0.5-0.2-2.5-0.2-3.2c-0.1-0.6-0.6-2.6-0.3-3.1
		c-3.4,5.5-7.9,10.1-13.4,13.5C1385.8,512.3,1388,517.6,1387.2,518.1L1387.2,518.1z"/>
	<path fill="#F16B98" d="M1370,525.9c-2.6,2.8-5.1,5.6-7.7,8.4c-0.3,0.3,0.2,2.7,0.2,3.2c0.1,0.7,0.1,1.5,0.2,2.2
		c0,0.1,0.2,0.8,0.1,0.9c2.6-2.8,5.1-5.6,7.7-8.4c0.3-0.3-0.2-2.7-0.2-3.2c-0.1-0.7-0.1-1.5-0.2-2.2
		C1370.1,526.6,1369.9,525.9,1370,525.9L1370,525.9z"/>
	<path fill="#F16B98" d="M1377.7,531.3c-0.2,4.5-4.5,8.9-7.1,12.3c-0.3,0.4,0.2,2.6,0.2,3.2c0,0.5,0.6,2.7,0.3,3.1
		c2.7-3.4,6.9-7.8,7.1-12.3C1378.3,535.5,1377.6,533.4,1377.7,531.3L1377.7,531.3z"/>
	
		<ellipse transform="matrix(0.996 -8.881183e-002 8.881183e-002 0.996 -32.4297 120.1001)" fill="#F16B98" cx="1333.4" cy="424.5" rx="16.9" ry="8.1"/>
	
		<ellipse transform="matrix(0.9143 -0.4051 0.4051 0.9143 -60.2547 627.8156)" fill="#F16B98" cx="1453.2" cy="456.3" rx="11.7" ry="17.1"/>
</g>
<g>
	<path fill="none" stroke="#3A867D" stroke-miterlimit="10" d="M476.2,326.6"/>
	
		<ellipse transform="matrix(0.9548 0.2973 -0.2973 0.9548 127.46 -135.4273)" fill="#EDA939" cx="508.9" cy="351.3" rx="66.4" ry="57.7"/>
	<path fill="#D54F51" d="M595.6,346.5c0.5-7.4-5-13.9-12.5-14.4c-7.4-0.5-13.9,5-14.4,12.5c-1.1,14.3-5.8,24.6-14.4,31.4
		c-2.1,1.7-4.3,3.1-6.6,4.2c7.1-11.6,12.5-27.1,13.2-47.4c0.2-7.4-5.6-13.7-13.1-13.9c-7.4-0.2-13.7,5.6-13.9,13.1
		c-0.5,17.6-5.9,29.8-12.1,38.3l0.8-42.4c0.1-7.4-5.8-13.6-13.2-13.7c-7.4-0.1-13.6,5.8-13.7,13.2l-0.9,49
		c-17.9-18.5-8-40.7-6.5-43.6c3.3-6.6,0.7-14.7-5.9-18.1c-6.7-3.5-14.8-0.8-18.1,5.9c-5.1,10-9.3,26.6-5.6,43.9
		c-2.9-2.7-5-5.3-6.4-7.7c-5.1-8.7-2.7-16.2-2.7-16.2c2.7-6.9-0.8-14.7-7.7-17.4c-6.9-2.7-14.8,0.7-17.4,7.7
		c-0.7,1.9-6.9,19.1,3.9,38.5c9.1,16.4,27,28.8,53.5,37.1c4.5,1.4,9.3,2.6,14.2,3.8c0,0,0.1,0,0.1,0.1c0.8,0.2,1.6,0.4,2.4,0.5
		c2.2,0.5,4.4,1,6.8,1.5c0,0,0.1,0,0.1,0c0.1,0,0.2,0,0.3,0.1c1.6,0.2,38.8,5.9,65.2-15C585.7,385.5,594,368.4,595.6,346.5z"/>
	<path fill="#D54F51" d="M458,586.1c0-1.3,0.8-77.3,22.4-123c17.6-37.2,9.8-58.8,9.7-59l25-10.1c1.3,3.3,12.2,33.1-10.3,80.7
		C485.6,515,485,586.2,484.9,586.5L458,586.1z"/>
</g>
<g>
	<path fill="none" stroke="#3A867D" stroke-miterlimit="10" d="M595.3,398.1"/>
	
		<ellipse transform="matrix(0.8602 0.51 -0.51 0.8602 303.8223 -255.8754)" fill="#EDA939" cx="618.6" cy="426.2" rx="59.2" ry="51.4"/>
	<path fill="#D54F51" d="M694.7,439.9c2-6.3-1.5-13.1-7.8-15.1c-6.3-2-13.1,1.5-15.1,7.8c-3.9,12.2-10,20.1-18.9,24.3
		c-2.1,1-4.4,1.8-6.6,2.3c8.5-8.6,16.5-20.9,21.2-38.4c1.7-6.4-2-13-8.5-14.7c-6.4-1.7-13,2.1-14.7,8.5
		c-4.1,15.1-11.3,24.6-18.3,30.7l9.4-36.6c1.7-6.4-2.2-13-8.6-14.6c-6.4-1.7-13,2.2-14.6,8.6l-10.9,42.3
		c-11.7-19.7,1.5-36.9,3.3-39.1c4.3-5,3.6-12.6-1.4-16.9c-5.1-4.4-12.6-3.7-16.9,1.3c-6.5,7.6-13.5,21.2-13.9,36.9
		c-2-2.9-3.3-5.6-4-8c-2.6-8.6,1-14.6,1-14.6c3.8-5.5,2.4-12.9-3.1-16.7c-5.4-3.7-12.9-2.4-16.7,3.1c-1,1.5-9.9,15.1-4.6,34.2
		c4.5,16.1,17.5,30.5,38.8,43.2c3.6,2.1,7.5,4.2,11.5,6.2c0,0,0.1,0,0.1,0.1c0.6,0.4,1.3,0.7,2,0.9c1.8,0.9,3.6,1.8,5.6,2.7
		c0,0,0.1,0,0.1,0c0.1,0,0.1,0.1,0.2,0.1c1.3,0.5,32.4,13.1,59.7,0.4C678.1,471.6,688.8,458.6,694.7,439.9z"/>
	<path fill="#D54F51" d="M535.2,580.6c0.3-1.1,7.4-28.2,35.6-63.4c22.9-28.6,20.6-49,20.6-49.2l23.8-3.6c0.5,3.1,3.8,31.2-25.5,67.8
		c-25,31.2-31,54.1-31,54.3L535.2,580.6z"/>
</g>
<g>
	<path fill="none" stroke="#3A867D" stroke-miterlimit="10" d="M320.5,376.2"/>
	
		<ellipse transform="matrix(0.9982 -5.932215e-002 5.932215e-002 0.9982 -22.3646 22.0215)" fill="#EDA939" cx="359.7" cy="387.7" rx="66.4" ry="57.7"/>
	<path fill="#D54F51" d="M439.1,352.6c-2.1-7.1-9.6-11.2-16.8-9.1c-7.1,2.1-11.2,9.6-9.1,16.8c4.1,13.7,3.3,25-2.3,34.5
		c-1.4,2.3-3,4.4-4.7,6.3c2.5-13.4,2.2-29.8-4.4-49c-2.4-7-10.1-10.8-17.1-8.4c-7,2.4-10.8,10.1-8.4,17.1c5.7,16.6,5,30,2.2,40.1
		l-14.3-40c-2.5-7-10.2-10.7-17.2-8.2c-7,2.5-10.7,10.2-8.2,17.2l16.5,46.2c-23.2-11-21.8-35.2-21.5-38.5c0.8-7.4-4.5-14-11.9-14.8
		c-7.5-0.9-14.1,4.5-14.9,11.9c-1.3,11.2,0.7,28.2,10.2,43c-3.7-1.5-6.6-3.2-8.7-4.9c-7.8-6.3-8.2-14.2-8.2-14.3
		c0.1-7.4-5.9-13.5-13.4-13.6c-7.4-0.1-13.5,5.9-13.6,13.4c0,2,0.3,20.3,17.3,34.7c14.3,12.1,35.5,17.4,63.2,15.7
		c4.7-0.3,9.6-0.8,14.6-1.5c0,0,0.1,0,0.1,0c0.8,0,1.6-0.2,2.4-0.4c2.3-0.3,4.5-0.6,6.9-1c0,0,0.1,0,0.1,0c0.1,0,0.2,0,0.3,0
		c1.6-0.3,38.4-8.2,55.7-37.1C443.7,392.5,445.4,373.7,439.1,352.6z"/>
	<path fill="#D54F51" d="M379.3,583.6c-0.4-1.2-10.8-30.9-6.8-81.3c3.3-41-11.7-58.5-11.8-58.6l19.8-18.3
		c2.4,2.6,23.1,26.7,18.9,79.1c-3.6,44.6,5.2,69.7,5.3,70L379.3,583.6z"/>
</g>
<g>
	<path fill="#F48798" d="M119.4,579.6c-6.3,0.6-12.3-3.2-14.4-9.3c-24.5-70.2-97.2-81.7-97.9-81.8l4.1-27.6
		c2.7,0.4,50.8,8,87.8,46.8l-6.7-75l27.8-2.5l12,134.3c0.6,7-4.1,13.4-11,14.9C120.6,579.5,120,579.6,119.4,579.6z"/>
	<path fill="#F48798" d="M131.6,569.4l-26.9-7.4c1-3.6,24.8-88.2,94.4-116.7l10.6,25.8c-29.2,12-48.7,37.6-60,57
		C137.1,550,131.7,569.2,131.6,569.4z"/>
	
		<ellipse transform="matrix(0.9983 5.894449e-002 -5.894449e-002 0.9983 28.0035 0.2483)" fill="#F16B98" cx="9.8" cy="474.8" rx="9.8" ry="14.1"/>
	<path fill="#F16B98" d="M37.8,479.1c6.7,1.8,13.3,3.8,19.5,7.1c0.8,0.5,3.1-1.9,3.9-1.4c-6.1-3.3-12.8-5.3-19.5-7.1
		C40.6,477.4,38.9,479.4,37.8,479.1L37.8,479.1z"/>
	<path fill="#F16B98" d="M30.6,483.5c7.1,5.3,16,7.2,23.3,12.2c0.7,0.5,3.3-1.9,3.9-1.4c-7.3-5-16.2-6.9-23.3-12.2
		C33.9,481.6,31.2,484,30.6,483.5L30.6,483.5z"/>
	<path fill="#F16B98" d="M68.5,498.2c3.3,2.1,6.6,4.1,10,6c0.2,0.1,1.7-0.6,2-0.7c0.3-0.1,1.7-0.9,2-0.7c-3.4-1.9-6.7-3.9-10-6
		c-0.2-0.1-1.7,0.6-2,0.7C70.2,497.6,68.7,498.3,68.5,498.2L68.5,498.2z"/>
	<path fill="#F16B98" d="M65.7,505.9c3.2,1.5,6.4,2.8,9.7,4c0.4,0.1,1.6-0.6,2-0.7c0.4-0.1,1.6-0.9,2-0.7c-3.3-1.2-6.6-2.5-9.7-4
		c-0.3-0.1-1.7,0.6-2,0.7C67.4,505.3,66,506.1,65.7,505.9L65.7,505.9z"/>
	<path fill="#F16B98" d="M88.6,516.2c2,2.4,4.1,4.6,6.4,6.7c0.1,0.1,1.8-0.6,2-0.7c0.2-0.1,1.8-0.9,2-0.7c-2.3-2.1-4.4-4.4-6.4-6.7
		C92.3,514.4,88.9,516.6,88.6,516.2L88.6,516.2z"/>
	<path fill="#F16B98" d="M85.2,522.4c2.4,1.5,4.6,3.2,6.7,5c0.1,0.1,1.8-0.6,2-0.7c0.2-0.1,1.8-0.9,2-0.7c-2.1-1.8-4.4-3.5-6.7-5
		c-0.2-0.1-1.7,0.6-2,0.7C86.9,521.7,85.4,522.5,85.2,522.4L85.2,522.4z"/>
	<path fill="#F16B98" d="M100.4,442.3c0.8,3.1,1.5,6.3,2.3,9.4c0-0.1,4-1.3,3.9-1.4c-0.8-3.1-1.5-6.3-2.3-9.4
		C104.4,441,100.4,442.1,100.4,442.3L100.4,442.3z"/>
	<path fill="#F16B98" d="M110.6,441.2c0.4,3.6,0.6,7.3,0.5,10.9c0-0.5,3.9-0.9,3.9-1.4c0.1-3.7-0.1-7.3-0.5-10.9
		C114.6,440,110.6,440.8,110.6,441.2L110.6,441.2z"/>
	<path fill="#F16B98" d="M103,461.2c1.8,9.1,0.9,18.4,2.6,27.4c0-0.2,4-1.2,3.9-1.4c-1.7-9.1-0.8-18.4-2.6-27.4
		C107,459.9,103,460.9,103,461.2L103,461.2z"/>
	<path fill="#F16B98" d="M111.6,463c1.6,9.3,2.7,18.6,3.3,28c0-0.4,4-1,3.9-1.4c-0.6-9.4-1.7-18.7-3.3-28
		C115.6,461.8,111.6,462.8,111.6,463L111.6,463z"/>
	<path fill="#F16B98" d="M103.2,498.1c1.2,4.4,2.3,8.8,3.3,13.3c0-0.1,4-1.2,3.9-1.4c-1-4.5-2.1-8.9-3.3-13.3
		C107.2,496.7,103.2,498,103.2,498.1L103.2,498.1z"/>
	<path fill="#F16B98" d="M115.4,500.8c-1,9.1-1.3,18.2-1.1,27.4c0-0.4,3.9-1,3.9-1.4c-0.2-9.2,0.1-18.3,1.1-27.4
		C119.3,500,115.5,500.2,115.4,500.8L115.4,500.8z"/>
	<path fill="#F16B98" d="M185.7,459.9c-5.1,3-9.6,6.5-13.7,10.8c-0.8,0.8,1.2,4.4,0.5,5.2c4.1-4.2,8.6-7.8,13.7-10.8
		C186.8,464.7,185,460.2,185.7,459.9L185.7,459.9z"/>
	<path fill="#F16B98" d="M191.8,469.5c-3.3,2-6.4,4.3-9.4,6.7c-0.2,0.2,0.2,2.3,0.2,2.6c0,0.3,0.5,2.4,0.3,2.6
		c3-2.4,6.2-4.7,9.4-6.7c0.2-0.1-0.2-2.3-0.2-2.6C192.1,471.9,191.7,469.6,191.8,469.5L191.8,469.5z"/>
	<path fill="#F16B98" d="M162.3,481.7c-7.9,4.9-15.9,10.2-19.3,19.3c-0.5,1.5,1,3.8,0.5,5.2c3.3-9.1,11.4-14.4,19.3-19.3
		C163.4,486.5,161.6,482.1,162.3,481.7L162.3,481.7z"/>
	<path fill="#F16B98" d="M150.7,508.8c4.5-2.8,8.3-6.6,11.1-11.2c0.3-0.4-0.2-2.1-0.2-2.6c0-0.5-0.5-2.2-0.3-2.6
		c-2.8,4.6-6.5,8.3-11.1,11.2C149.6,504.1,151.4,508.4,150.7,508.8L150.7,508.8z"/>
	<path fill="#F16B98" d="M136.4,515.3c-2.1,2.3-4.2,4.6-6.3,6.9c-0.3,0.3,0.2,2.2,0.2,2.6c0.1,0.6,0.1,1.2,0.2,1.8
		c0,0.1,0.1,0.7,0.1,0.8c2.1-2.3,4.2-4.6,6.3-6.9c0.3-0.3-0.2-2.2-0.2-2.6c-0.1-0.6-0.1-1.2-0.2-1.8
		C136.5,515.9,136.4,515.3,136.4,515.3L136.4,515.3z"/>
	<path fill="#F16B98" d="M142.8,519.8c-0.2,3.8-3.7,7.4-5.9,10.2c-0.3,0.3,0.2,2.2,0.2,2.6c0,0.4,0.5,2.3,0.3,2.6
		c2.2-2.8,5.7-6.4,5.9-10.2C143.4,523.3,142.7,521.5,142.8,519.8L142.8,519.8z"/>
	
		<ellipse transform="matrix(0.996 -8.881183e-002 8.881183e-002 0.996 -37.8962 11.1372)" fill="#F16B98" cx="106.2" cy="431.4" rx="14" ry="6.7"/>
	
		<ellipse transform="matrix(0.9143 -0.4051 0.4051 0.9143 -167.8206 122.4166)" fill="#F16B98" cx="205.3" cy="457.7" rx="9.7" ry="14.2"/>
</g>
<g>
	<path fill="none" stroke="#3A867D" stroke-miterlimit="10" d="M3027,342.1"/>
	
		<ellipse transform="matrix(0.8989 0.4381 -0.4381 0.8989 469.3119 -1299.7023)" fill="#EDA939" cx="3051.6" cy="367.3" rx="57.3" ry="49.8"/>
	<path fill="#D54F51" d="M3126.2,374.6c1.4-6.3-2.5-12.5-8.7-13.9c-6.3-1.4-12.5,2.5-13.9,8.7c-2.8,12-8.1,20.2-16.3,24.9
		c-2,1.1-4.1,2-6.2,2.7c7.5-9,14.2-21.5,17.4-38.7c1.2-6.3-3-12.4-9.3-13.6c-6.3-1.2-12.4,3-13.6,9.3c-2.8,14.9-8.9,24.7-15.3,31.1
		l6.2-36.1c1.1-6.3-3.1-12.4-9.5-13.4c-6.3-1.1-12.3,3.2-13.4,9.5l-7.2,41.7c-12.8-18.1-1.5-35.7,0.1-38c3.7-5.2,2.5-12.4-2.7-16.2
		c-5.3-3.8-12.5-2.6-16.2,2.6c-5.7,7.9-11.4,21.5-10.5,36.7c-2.1-2.7-3.6-5.2-4.5-7.4c-3.2-8.1-0.2-14.2-0.1-14.2
		c3.2-5.6,1.3-12.7-4.3-15.9c-5.5-3.2-12.7-1.3-15.9,4.3c-0.9,1.5-8.3,15.4-1.7,33.4c5.6,15.2,19.3,28.1,40.8,38.6
		c3.6,1.8,7.6,3.4,11.6,5.1c0,0,0.1,0,0.1,0.1c0.6,0.3,1.3,0.6,2,0.7c1.9,0.7,3.6,1.5,5.6,2.1c0,0,0.1,0,0.1,0
		c0.1,0,0.1,0.1,0.2,0.1c1.3,0.4,32.4,10.1,57.6-4.3C3112.7,406.5,3122,393.1,3126.2,374.6z"/>
	<path fill="#D54F51" d="M2983.4,522.9c0.2-1.1,4.9-27.8,29.3-64c19.9-29.4,16-48.9,15.9-49.1l22.6-5.4c0.7,2.9,6.1,29.8-19.3,67.5
		c-21.6,32-25.6,54.6-25.7,54.8L2983.4,522.9z"/>
</g>
<path fill="#75B191" d="M3762.8,446.6c-4.2-1.3-8.2-0.6-12.3,0.7c-14.8,4.7-29.6,9.4-44.4,14.1c-11.3,3.6-22.6,7.2-33.9,10.7
	c-0.5-4.9-1-9.9-1.4-14.8c26.1-8.3,52.3-16.7,78.4-25c6.4-2,12.3-4.3,15-11.4c3.1-8.3-0.8-17.7-8.8-21.3c-4.5-2.1-9.1-1.6-13.6-0.1
	c-13.9,4.4-27.8,8.8-41.6,13.3c-10.6,3.4-21.2,6.8-31.8,10.1c-0.2-4.3-0.5-8.5-0.7-12.8c28.7-9,57.5-18.1,86.2-27.1
	c6.4-2,13.4-3.5,17.1-9.7c8-13.3-5-29.1-19.5-24.7c-15.8,4.8-31.4,9.9-47.2,14.8c-12.6,4-25.2,7.9-37.7,11.9
	c-0.1-5.6-0.1-11.2-0.1-16.8c29-9.7,57.9-19.4,86.9-29.1c6.1-2,11.9-3.4,15.5-9.5c5.1-8.6,1.5-19.9-7.6-24c-4.6-2.1-9.2-1.5-13.8,0
	c-15.2,5-30.3,10.2-45.5,15.2c-11.6,3.9-23.2,7.8-34.8,11.7c0.3-9.3,0.8-18.6,1.4-27.9c25.9-6.2,51.9-12.3,77.8-18.5
	c6.2-1.5,12.4-2.7,16.3-8.5c8.4-12.8-3.5-28.5-17.9-25.7c-13.5,2.7-27,6.4-40.4,9.6c-10.9,2.6-21.9,5.2-32.8,7.8
	c0.5-4.5,0.9-9.1,1.5-13.6c24-5.7,48-11.3,72-17c5.7-1.3,11.5-2.5,15.3-7.6c9.1-12.5-2.1-29.3-17-26.6c-12.1,2.2-24.2,5.7-36.2,8.5
	c-9.7,2.3-19.5,4.6-29.2,6.9c1-6,2-12,3-18c22.2-3.3,44.5-6.6,66.7-9.9c5.8-0.9,11.3-1.9,15.2-7c9.4-12.2-1.4-28.6-16-26.9
	c-10.9,1.3-21.9,3.2-32.7,4.8c-8.6,1.3-17.3,2.6-25.9,3.8c0.9-4,1.9-8,2.9-12c17.6-4.1,35.3-8.3,52.9-12.4c4.6-1.1,9-2.2,12.4-5.8
	c8.4-8.8,4.7-23.7-6.9-27.6c-4.6-1.6-8.9-0.5-13.4,0.6c-5.5,1.3-11,2.6-16.5,3.9c-6.1,1.4-12.2,2.9-18.3,4.3
	c1.6-5.2,3.3-10.4,5-15.5c12.6-5.2,25.3-10.5,37.9-15.7c2-0.8,3.9-1.5,5.7-2.6c7.3-4.3,10.4-13.9,6.6-21.7
	c-3.8-7.8-12.8-11.4-21-8.5c-2.4,0.8-4.8,1.9-7.2,2.9c-1.8,0.7-3.5,1.5-5.3,2.2c2.4-5.4,4.9-10.7,7.6-15.9c0.4-0.8,0.9-1.7,1.3-2.5
	c0.1-0.3,0.5-1,0.7-1.4c0.4-0.8,0.8-1.5,1.3-2.3c1.7-3,3.2-5.9,3.5-9.4C3738.3,2.4,3719-6,3708.4,5c-3.7,3.8-5.9,9.3-8.3,14
	c-3.8,7.3-7.3,14.8-10.6,22.4c-0.8-1.4-1.6-2.9-2.4-4.3c-4.6-8-8.6-18.1-19.1-19.1c-8.7-0.8-16.9,5.4-18.2,14.1
	c-0.7,4.4,0.5,8.3,2.6,12c4.1,7.1,8.2,14.2,12.2,21.4c3.1,5.5,6.3,10.9,9.4,16.4c-1.5,4.5-3,9-4.4,13.5c-2.6-3.2-5.2-6.5-7.8-9.7
	c-3.7-4.7-7.5-9.3-11.2-14c-2.2-2.7-4.3-5.8-7-8c-10-8-25.3-1.6-27.1,10.9c-0.8,6,1.9,10.7,5.4,15.2c6.9,8.6,13.8,17.3,20.7,25.9
	c5.2,6.5,10.5,13.1,15.7,19.6c-0.8,3.1-1.5,6.2-2.3,9.3c-13-12.4-26-24.9-39.1-37.3c-3.7-3.5-7.8-5.6-13-5.5
	c-7.1,0.2-13.4,4.9-15.5,11.7c-2.3,7.3,0.8,13.7,6,18.7c9.9,9.4,19.8,18.9,29.7,28.3c7.9,7.6,15.9,15.1,23.8,22.7
	c-1,5.4-2,10.9-2.8,16.3c-18.3-15.9-36.5-31.9-54.9-47.6c-9.8-8.4-25.5-3.9-27.9,9.3c-1.6,8.7,3.7,14.2,9.6,19.3
	c12.8,11.1,25.6,22.2,38.3,33.3c9.8,8.5,19.5,17,29.3,25.4c-0.4,3.8-0.9,7.7-1.3,11.5c-20.8-14.9-41.7-29.7-62.5-44.6
	c-2.6-1.9-5.4-3.5-8.7-4c-9-1.4-17.8,4.8-19.3,13.9c-1.4,9.1,4.2,14.6,10.8,19.2c14.2,10.2,28.5,20.3,42.7,30.5
	c11.2,8,22.4,16,33.6,24c-0.6,9-1.1,18.1-1.4,27.1c-24.8-15.2-49.7-30.5-74.5-45.7c-2-1.2-4-2.6-6.2-3.4c-9.8-3.4-20.6,3-22.2,13.3
	c-1.6,9.8,5.1,15.2,12.3,19.7c16.7,10.2,33.4,20.5,50.1,30.7c13.3,8.1,26.5,16.3,39.8,24.4c0,5.6,0,11.3,0.1,16.9
	c-28.8-11.7-57.6-23.4-86.4-35.1c-1.2-0.5-2.5-1.1-3.7-1.5c-9.8-3.5-20.6,2.1-22.7,12.6c-1.6,8.2,3.1,15.6,10.5,18.8
	c1.5,0.7,3,1.2,4.5,1.8c18.5,7.5,37.1,15.1,55.6,22.6c14.4,5.8,28.8,11.7,43.2,17.5c0.2,5,0.5,10,0.7,14.9
	c-30.9-6.4-61.9-12.8-92.8-19.2c-2.1-0.4-4.2-1-6.3-1.3c-8.3-1.4-16.8,3.7-19,11.9c-0.1,0.2-0.1,0.5-0.2,0.7
	c-0.1,0.4-0.2,0.9-0.3,1.3c-1.4,9.6,5.2,17.2,14.2,19.2c1.6,0.3,3.1,0.6,4.7,1c8.5,1.7,16.9,3.5,25.4,5.2
	c22.4,4.6,44.8,9.3,67.2,13.9c3.3,0.7,6.5,1.3,9.8,2c0.5,5.7,1,11.4,1.6,17.1c-24.8-1.4-49.6-2.9-74.4-4.3c-1-0.1-2-0.2-3-0.2
	c-8.5-0.2-16,4.9-17.7,13.5c-2.3,11.2,6.5,19.6,17.1,20.2c15.1,0.9,30.3,1.7,45.4,2.6c12.1,0.7,24.2,1.4,36.3,2.1
	c1,8.3,2.1,16.6,3.4,24.8c1.4,9.4,9.1,16.8,19.1,15.5c9.6-1.3,15.3-10.1,14.4-19.3c-0.8-8.4-2.2-16.8-3.4-25.2
	c27.4-8.7,54.8-17.3,82.2-26c6.8-2.1,13.1-4.6,15.5-12.3C3776.4,459,3771.5,449.3,3762.8,446.6z"/>
<g>
	<path fill="#ABC19B" d="M3634.5,543.9c-11.2-55.5-11.6-161.1,89.8-289.3c2.8-3.5,8.2-0.1,6.2,3.9c-14.8,29.7-37.4,78.5-55.6,133.3
		c22.1-39.1,55.7-81.4,106.5-124.1c3.4-2.9,8,1.6,5.3,5.1c-19.1,24.3-48.1,63.4-75.3,109c27.7-32.9,66.2-66.8,119.6-98.5
		c3.8-2.3,7.7,2.9,4.4,5.9c-29.2,26.8-78.2,74.8-120.1,130.8c34.7-32,83.3-63.6,151.1-88.5c4.2-1.5,7,4.2,3.2,6.6
		c-28.2,17.6-72.9,47.5-117,84.7c39.2-21.8,90-40.4,155.6-50.2c4.4-0.7,6,5.6,1.9,7.1c-29,10.8-74.1,29-121.1,53.6
		c40.8-13.6,91.3-22.4,153.4-21.6c4.4,0.1,5,6.5,0.7,7.3c-64.7,12.6-207,46.8-289.3,115.1c-1.2,1-2.5,1.1-3.7,0.6
		c-0.4,1.2-0.9,2.5-1.3,3.7c-0.6,1.7-2,2.5-3.4,2.5c0,0.1-0.1,0.1-0.1,0.2c-0.1,5.7-0.1,11.3,0.1,16.9c0.2,4.4-6.1,5.3-7.2,1.1
		c-0.7-2.7-1.5-5.5-2.2-8.5c-1.6-0.7-2.7-2.3-2.1-4.4C3634.1,545.4,3634.3,544.7,3634.5,543.9z"/>
	<path fill="#ABC19B" d="M3638.2,531.3c5-51.3,34.7-161.7,189.4-253.5c3.8-2.3,7.7,2.9,4.4,5.9c-48.5,44.5-152.1,148-186.6,249.2
		C3643.9,537,3637.8,535.7,3638.2,531.3z"/>
	<path fill="#ABC19B" d="M3632.1,543c-3.4-51.5,8.1-165.1,145.9-280.8c3.4-2.9,8,1.6,5.3,5.1c-40.7,51.8-126.2,170.6-143.9,276.1
		C3638.7,547.6,3632.4,547.3,3632.1,543z"/>
	<path fill="#ABC19B" d="M3634.7,553.5c-13.7-49.7-25.4-163.4,86.2-304.5c2.8-3.5,8.2-0.1,6.2,3.9c-29.4,58.9-89.1,192.6-85.2,299.5
		C3642.1,556.8,3635.9,557.7,3634.7,553.5z"/>
	<path fill="#ABC19B" d="M3645,523.5c31-41.2,114-119.8,293.9-117.4c4.4,0.1,5,6.5,0.7,7.3c-64.7,12.6-207,46.8-289.3,115.1
		C3646.9,531.3,3642.4,527,3645,523.5z"/>
	<path fill="#ABC19B" d="M3633.7,530.2c24-45.7,93.2-136.6,271.1-163.3c4.4-0.7,6,5.6,1.9,7.1c-61.8,22.9-196.7,79.7-266.9,160.3
		C3636.9,537.6,3631.7,534.1,3633.7,530.2z"/>
	<path fill="#ABC19B" d="M3630.4,540.6c14.3-49.6,63.6-152.6,232.5-214.7c4.2-1.5,7,4.2,3.2,6.6c-55.9,34.9-176.6,117.8-229,210.9
		C3635.1,547.2,3629.2,544.8,3630.4,540.6z"/>
</g>
<g>
</g>
<g>
</g>
<g>
</g>
<g>
</g>
<g>
</g>
<g>
</g>
<g>
</g>
<g>
</g>
<g>
</g>
<g>
</g>
<g>
</g>
<g>
</g>
<g>
</g>
<g>
</g>
<g>
</g>
</svg>
