<?xml version="1.0" encoding="utf-8"?>
<!-- Generator: Adobe Illustrator 18.0.0, SVG Export Plug-In . SVG Version: 6.00 Build 0)  -->
<!DOCTYPE svg PUBLIC "-//W3C//DTD SVG 1.1//EN" "http://www.w3.org/Graphics/SVG/1.1/DTD/svg11.dtd">
<svg version="1.1" id="Layer_1" xmlns="http://www.w3.org/2000/svg" xmlns:xlink="http://www.w3.org/1999/xlink" x="0px" y="0px"
	 viewBox="0 0 255.6 259" enable-background="new 0 0 255.6 259" xml:space="preserve">
<g>
	<g>
		<path fill="#00684E" stroke="#A5C78E" stroke-width="0.25" stroke-miterlimit="10" d="M94.5,134.8L94.5,134.8
			c9.7,1.5,17.7,8.5,20.5,17.9l2,6.8c1.2,3.8,3.2,7.4,5.9,10.3l9.9,10.4c3.2,3.4,7.8,5.2,12.4,4.9c4.8-0.3,9.5,1.6,12.8,5.2l4,4.4
			c2.5,2.8,4.2,6.2,4.8,9.8l0.5,2.8c0.6,3.5,2,6.9,4.3,9.6c5.9,7.1,15.6,9.1,23.6,5.4l0.5-0.2c6.2-2.9,11.5-7.6,15-13.5v0
			c2.7-4.6,3.8-10.1,2.4-15.3c-1.8-7.1-7.1-12.4-13.8-14.3l-3.1-0.9c-3.6-1-6.8-3-9.3-5.8l-4-4.4c-3.3-3.6-4.5-8.6-3.8-13.4
			c0.7-4.5-0.6-9.2-3.6-12.7l-9.3-10.9c-2.6-3-5.9-5.4-9.6-7l-6.6-2.7c-9.1-3.8-15.2-12.4-15.7-22.2l0,0c-0.4-7.5-3.4-14.7-8.4-20.3
			l-5.5-6c-2.6-2.8-5.6-5.2-8.9-7L71.3,44.1L58.9,55.3L46.5,66.5l17.2,42.2c1.4,3.5,3.5,6.8,6,9.6l5.5,6
			C80.2,130,87.1,133.7,94.5,134.8z"/>
		<path fill="#448577" d="M79.1,79.2l1.1-1c0.8-0.7,1.9-0.6,2.6,0.1l96.4,106.8c0.7,0.8,0.6,1.9-0.1,2.6l-1.1,1
			c-0.8,0.7-1.9,0.6-2.6-0.1L79,81.9C78.3,81.1,78.4,79.9,79.1,79.2z"/>
		<path fill="#448577" d="M153.2,162.1c0.4-0.3,0.9-0.5,1.4-0.5c1.2,0,2.1,1,2.1,2.1l-0.3,15.7c0,1.2-1,2.1-2.1,2.1
			c-1.2,0-2.1-1-2.1-2.1l0.3-15.7C152.5,163,152.8,162.5,153.2,162.1z"/>
		<path fill="#448577" d="M139.1,144.2c0.4-0.3,0.9-0.5,1.4-0.5l21.2,0.3c1.2,0,2.1,1,2.1,2.1c0,1.2-1,2.1-2.1,2.1l-21.2-0.3
			c-1.2,0-2.1-1-2.1-2.1C138.4,145.1,138.6,144.6,139.1,144.2z"/>
		<path fill="#448577" d="M118.5,121.8c0.4-0.4,1.1-0.6,1.7-0.5c1.1,0.2,1.9,1.2,1.8,2.4l-2.8,19.4c-0.2,1.1-1.2,1.9-2.4,1.8
			c-1.1-0.2-1.9-1.2-1.8-2.4l2.8-19.4C117.9,122.6,118.2,122.1,118.5,121.8z"/>
		<path fill="#448577" d="M98.5,99.3c0.4-0.3,0.8-0.5,1.4-0.5l18.1-0.3c1.2,0,2.1,0.9,2.1,2c0,1.2-0.9,2.1-2,2.1l-18.1,0.3
			c-1.2,0-2.1-0.9-2.1-2C97.8,100.2,98.1,99.6,98.5,99.3z"/>
	</g>
	<g>
		<path fill="#00684E" stroke="#A5C78E" stroke-width="0.25" stroke-miterlimit="10" d="M122.1,80L122.1,80
			c9.7-1.4,19.4,2.9,24.9,11.1l4,5.9c2.2,3.3,5.2,6.1,8.7,8.1l12.5,7c4.1,2.3,9,2.7,13.3,1c4.5-1.7,9.6-1.3,13.7,1.2l5.1,3
			c3.2,1.9,5.8,4.7,7.5,8l1.3,2.5c1.6,3.2,4,6,7,7.9c7.7,5,17.6,4.1,24.1-1.8l0.4-0.3c5.1-4.6,8.7-10.6,10.3-17.3l0,0
			c1.2-5.2,0.6-10.8-2.2-15.4c-3.8-6.2-10.5-9.7-17.4-9.6l-3.3,0.1c-3.7,0.1-7.4-0.9-10.6-2.8l-5.1-3c-4.2-2.5-6.9-6.9-7.6-11.7
			c-0.7-4.6-3.3-8.6-7.2-11.1l-12.1-7.7c-3.4-2.1-7.2-3.5-11.2-3.8l-7.1-0.7c-9.8-0.9-18.2-7.4-21.6-16.6l0,0
			c-2.6-7.1-7.6-13-14-16.9l-7-4.2c-3.3-2-6.9-3.3-10.6-4.1L73.2,0.1l-8.6,14.3l-8.6,14.3L85,64.1c2.4,3,5.3,5.5,8.6,7.4l7,4.2
			C107.1,79.5,114.7,81,122.1,80z"/>
		<path fill="#448577" d="M91.1,31.4l0.7-1.2c0.5-0.9,1.7-1.2,2.5-0.6l123.5,73.7c0.9,0.5,1.2,1.7,0.6,2.5l-0.7,1.2
			c-0.5,0.9-1.7,1.2-2.5,0.6L91.7,33.9C90.8,33.4,90.5,32.3,91.1,31.4z"/>
		<path fill="#448577" d="M186.3,88.7c0.3-0.4,0.7-0.8,1.2-0.9c1.1-0.3,2.3,0.3,2.6,1.4l4.4,15c0.3,1.1-0.3,2.3-1.4,2.6
			c-1.1,0.3-2.3-0.3-2.6-1.4l-4.4-15C185.9,89.8,186,89.2,186.3,88.7z"/>
		<path fill="#448577" d="M167.5,75.8c0.3-0.4,0.7-0.8,1.2-0.9L189,69c1.1-0.3,2.3,0.3,2.6,1.4c0.3,1.1-0.3,2.3-1.4,2.6l-20.3,5.9
			c-1.1,0.3-2.3-0.3-2.6-1.4C167.1,76.9,167.2,76.3,167.5,75.8z"/>
		<path fill="#448577" d="M141.2,60.5c0.3-0.5,0.8-0.9,1.5-1c1.1-0.2,2.2,0.6,2.4,1.7l3,19.4c0.2,1.1-0.6,2.2-1.7,2.4
			c-1.1,0.2-2.2-0.6-2.4-1.7l-3-19.4C140.9,61.4,141,60.9,141.2,60.5z"/>
		<path fill="#448577" d="M115.5,44.8c0.2-0.4,0.6-0.7,1.1-0.9l17.2-5.6c1.1-0.4,2.3,0.2,2.6,1.3c0.4,1.1-0.2,2.3-1.3,2.6l-17.2,5.6
			c-1.1,0.4-2.3-0.2-2.6-1.3C115.1,45.9,115.2,45.3,115.5,44.8z"/>
	</g>
	<g>
		<path fill="#00684E" stroke="#A5C78E" stroke-width="0.25" stroke-miterlimit="10" d="M31.4,150.5L31.4,150.5
			c9.1,3.7,15.3,12.3,15.9,22.1l0.4,7.1c0.3,4,1.4,7.9,3.5,11.3l7.3,12.4c2.4,4,6.4,6.8,11,7.6c4.8,0.8,8.9,3.7,11.3,7.9l2.9,5.2
			c1.8,3.3,2.7,7,2.5,10.7l-0.2,2.8c-0.2,3.6,0.4,7.2,2,10.4c4.1,8.2,13.1,12.4,21.8,10.6l0.5-0.1c6.7-1.4,12.9-4.8,17.6-9.7h0
			c3.7-3.9,6-9,5.9-14.4c-0.1-7.3-4.1-13.7-10.2-17.1l-2.9-1.6c-3.3-1.8-5.9-4.5-7.7-7.7l-2.9-5.2c-2.4-4.3-2.5-9.4-0.6-14
			c1.7-4.3,1.5-9.1-0.6-13.2l-6.6-12.7c-1.9-3.6-4.5-6.6-7.8-9l-5.8-4.1c-8-5.7-12-15.5-10.3-25.2l0,0c1.3-7.4,0-15.1-3.6-21.7
			l-3.9-7.1c-1.8-3.3-4.3-6.3-7.1-8.8l-34.3-30L14.8,65L0.1,73.1l7.2,45c0.6,3.8,1.9,7.4,3.7,10.7l3.9,7.1
			C18.7,142.5,24.5,147.7,31.4,150.5z"/>
		<path fill="#448577" d="M29.1,92.9l1.3-0.7c0.9-0.5,2-0.2,2.5,0.7l69.6,125.9c0.5,0.9,0.2,2-0.7,2.5l-1.3,0.7
			c-0.9,0.5-2,0.2-2.5-0.7L28.3,95.4C27.8,94.5,28.2,93.4,29.1,92.9z"/>
		<path fill="#448577" d="M82.5,190.3c0.4-0.2,1-0.3,1.5-0.2c1.1,0.3,1.8,1.4,1.5,2.5l-3.8,15.2c-0.3,1.1-1.4,1.8-2.5,1.5
			c-1.1-0.3-1.8-1.4-1.5-2.5l3.8-15.2C81.6,191.1,82,190.6,82.5,190.3z"/>
		<path fill="#448577" d="M72.7,169.7c0.4-0.2,1-0.3,1.5-0.2l20.5,5.1c1.1,0.3,1.8,1.4,1.5,2.5c-0.3,1.1-1.4,1.8-2.5,1.5l-20.5-5.1
			c-1.1-0.3-1.8-1.4-1.5-2.5C71.8,170.5,72.2,170,72.7,169.7z"/>
		<path fill="#448577" d="M57.8,143.3c0.5-0.3,1.2-0.4,1.8-0.1c1.1,0.4,1.6,1.6,1.2,2.7l-7.2,18.3c-0.4,1.1-1.6,1.6-2.7,1.2
			c-1.1-0.4-1.6-1.6-1.2-2.7l7.2-18.3C57,143.9,57.4,143.5,57.8,143.3z"/>
		<path fill="#448577" d="M43.4,116.8c0.4-0.2,0.9-0.3,1.4-0.2l17.7,3.8c1.1,0.2,1.8,1.3,1.6,2.5c-0.2,1.1-1.3,1.8-2.5,1.6L44,120.6
			c-1.1-0.2-1.8-1.3-1.6-2.5C42.5,117.5,42.9,117,43.4,116.8z"/>
	</g>
</g>
<g>
</g>
<g>
</g>
<g>
</g>
<g>
</g>
<g>
</g>
<g>
</g>
<g>
</g>
<g>
</g>
<g>
</g>
<g>
</g>
<g>
</g>
<g>
</g>
<g>
</g>
<g>
</g>
<g>
</g>
</svg>
