<?xml version="1.0" encoding="utf-8"?>
<!-- Generator: Adobe Illustrator 18.0.0, SVG Export Plug-In . SVG Version: 6.00 Build 0)  -->
<!DOCTYPE svg PUBLIC "-//W3C//DTD SVG 1.1//EN" "http://www.w3.org/Graphics/SVG/1.1/DTD/svg11.dtd">
<svg version="1.1" id="Layer_1" xmlns="http://www.w3.org/2000/svg" xmlns:xlink="http://www.w3.org/1999/xlink" x="0px" y="0px"
	 viewBox="0 0 1018.7 637.5" enable-background="new 0 0 1018.7 637.5" xml:space="preserve">
<g>
	<polygon fill="#FCCEB8" points="0,354.4 1018.7,359.6 966,578.7 532.4,637.5 172.8,547.1 	"/>
	<path fill="#F8A79E" d="M150,421.2c24-1.8,48.1-2,72.1-0.8c2.7,0.1,7.5-3.8,2.7-4.1c-24.6-1.3-49.3-1-73.9,0.8
		C147.4,417.5,145.1,421.6,150,421.2L150,421.2z"/>
	<path fill="#F8A79E" d="M148.9,442.3c15-0.2,30.1,0,45.1,0.5c1.5,0.1,3.8-0.3,5-1.3c0.8-0.8,1.2-1.6-0.4-1.7
		c-15.5-0.6-31.1-0.7-46.6-0.5C149.9,439.4,144.3,442.4,148.9,442.3L148.9,442.3z"/>
	<path fill="#F8A79E" d="M169,467.3c50.1,0.6,100.2,1.2,150.4,1.8c1.3,0,4.1-0.5,4.7-1.9c0.6-1.4-0.5-2-1.9-2
		c-50.1-0.6-100.2-1.2-150.4-1.8c-1.3,0-4.1,0.5-4.7,1.9C166.5,466.7,167.5,467.3,169,467.3L169,467.3z"/>
	<g>
		<path fill="#8F9194" d="M413.2,323.5l-9.5,66.6c0,12.1,7.9,22.9,19.4,26.6l57.6,8.8c11.7,3.7,24.4-0.6,31.4-10.6l42-60
			L413.2,323.5z"/>
		
			<linearGradient id="SVGID_1_" gradientUnits="userSpaceOnUse" x1="534.1492" y1="212.9172" x2="765.1483" y2="212.9172" gradientTransform="matrix(1.0445 -7.181775e-002 6.859801e-002 0.9976 -157.9593 197.2387)">
			<stop  offset="0" style="stop-color:#B6B8BA"/>
			<stop  offset="1" style="stop-color:#A9ABAE"/>
		</linearGradient>
		<path fill="url(#SVGID_1_)" d="M651.8,296.3l-239.8,37c0,0,2.8,23.3,49.6,41.3c9.8,3.8,31.8,7.6,49.2,6l7.5,21.2
			c5.1,12.2,17.8,19.8,31.5,18.9l74.4-6.1c13.9-1,25.5-10.4,28.7-23.3l-2.5-77.8C651.9,308,652.4,302.4,651.8,296.3z"/>
		<polygon fill="#E07E46" points="364.5,224.8 421,209.4 419.1,263 423.5,284.5 385.4,296 		"/>
		<path fill="#E78E49" d="M570.7,162c7.7-2,19.7,2.3,24.3,7.4c24.9,27.5,47.9,72.2,53.7,107.9c2.1,13.2,9,19.4-2.5,24.9
			c-6.4,3.1-17.8,5.1-24.7,6.7c-48.7,11.6-98.1,22.9-147.9,28c-3.4,0.4-61.1,0.6-61.6-3.7c-4.2-34.6-6.5-90.7,9-123.9
			c7.8-16.7,30-9.9,49-12.4C469.9,197,570.6,162,570.7,162z"/>
		<path fill="#E78E49" d="M554.1,249.4c0,0,0.7,19.9-46.5,70.3l-52-55.1l32.8-41.5L554.1,249.4z"/>
		<path fill="#E57B41" d="M460.6,250.7l26.8-31c0.9-1,2-0.9,1.2,0.1l-25,32.4L460.6,250.7z"/>
		<g>
			<circle fill="#8A6252" cx="264.2" cy="309.1" r="146.3"/>
			<path fill="#7C5849" d="M204.5,230.7c-0.5-2.2-1.2-17.9-1.5-25.5c-0.1-2.6,0.5-5.2,1.7-7.4l6.7-12.4l0,0c0.9-2.1,4.1-1.5,4.2,0.8
				l0.4,6.8c0,0.2,0,0.5-0.1,0.7l-2.1,7.5c-0.6,2.2-0.7,4.6-0.3,6.8l4.5,21.9L204.5,230.7z"/>
			<path fill="#7C5849" d="M165.4,208.5c-0.3-1.4-0.7-11.3-0.9-16.1c-0.1-1.6,0.3-3.3,1.1-4.7l4.2-7.8v0c0.6-1.3,2.6-1,2.7,0.5
				l0.2,4.3c0,0.2,0,0.3,0,0.5l-1.3,4.8c-0.4,1.4-0.5,2.9-0.2,4.3l2.8,13.8L165.4,208.5z"/>
			<path fill="#7C5849" d="M279.5,187.2c0.6-1,5.6-7.8,8-11c0.8-1.1,1.8-2.1,2.7-2.9l5.2-4.2v0c0.8-0.7,1.2,0,0.5,1l-2.2,2.9
				c-0.1,0.1-0.2,0.2-0.2,0.3l-2.8,2.8c-0.8,0.8-1.6,1.8-2.3,2.9l-6.4,10L279.5,187.2z"/>
			<path fill="#7C5849" d="M309,208.2c1.5-1.6,14.4-10.8,20.5-15.1c2.1-1.5,4.6-2.4,7.2-2.6l14-1.2l0,0c2.3-0.4,3.5,2.6,1.6,3.9
				l-5.5,4c-0.2,0.1-0.4,0.3-0.6,0.3l-7.5,2.3c-2.2,0.7-4.2,1.9-5.9,3.5L317,219.1L309,208.2z"/>
			<path fill="#7C5849" d="M238.1,262.1c1.2-1.3,11.3-8.5,16.2-11.9c1.7-1.2,3.6-1.9,5.7-2.1l11.1-0.9l0,0c1.8-0.3,2.8,2,1.3,3.1
				l-4.3,3.2c-0.2,0.1-0.3,0.2-0.5,0.3l-5.9,1.8c-1.7,0.5-3.3,1.5-4.6,2.8l-12.5,12.4L238.1,262.1z"/>
			<path fill="#7C5849" d="M161.3,257.4c-0.6,2.7-1.8,5.2-3.7,7.2c-2,2.1,1.7,2.5,3.1,2.4c2.8-0.2,6.7-1,8.7-3.2
				c2.3-2.5,3.9-5.3,4.7-8.6c0.5-2.4-4.1-1.7-5.3-1.5c-1.7,0.3-3.4,0.8-5,1.6C163.1,255.7,161.5,256.4,161.3,257.4L161.3,257.4z"/>
			<path fill="#7C5849" d="M164.2,285.5c2.5,5.1,4.4,10.3,5.8,15.8c1,3.7,14,0.2,13.1-3.5c-1.4-5.5-3.4-10.7-5.8-15.8
				C175.5,278.2,162.8,282.6,164.2,285.5L164.2,285.5z"/>
			<path fill="#7C5849" d="M188.8,280c1.9,1,3.8,2,5.7,3c1.3,0.7,3.6,0.5,5,0.2c1.5-0.4,3.3-1.3,4.2-2.6c0.8-1.1,1.5-2.5,1-3.9
				c-0.5-1.5-1.5-2.2-2.8-2.8c-1.9-1-3.8-2-5.7-3c-1.3-0.7-3.6-0.5-5-0.2c-1.5,0.4-3.3,1.3-4.2,2.6c-0.8,1.1-1.5,2.5-1,3.9
				C186.5,278.6,187.5,279.3,188.8,280L188.8,280z"/>
			<path fill="#7C5849" d="M167,362.1c7.1,11.8,15.8,22.5,25.9,31.9c2.4,2.2,14-2.8,12.4-4.3c-9.8-9.2-18.2-19.6-25.2-31.1
				C178.3,355.6,166.2,360.6,167,362.1L167,362.1z"/>
			<path fill="#7C5849" d="M262.9,305.2c3.1,2.3,6.2,4.6,9.3,6.9c2.2,1.6,6.3,0.5,8.5-0.4c0.9-0.4,5.9-2.7,3.7-4.3
				c-3.1-2.3-6.2-4.6-9.3-6.9c-2.2-1.6-6.3-0.5-8.5,0.4C265.7,301.3,260.8,303.6,262.9,305.2L262.9,305.2z"/>
			<g>
				<g>
					<path fill="none" stroke="#BFA89F" stroke-miterlimit="10" d="M238.6,347.8"/>
				</g>
			</g>
			<g>
				<g>
					<path fill="none" stroke="#BFA89F" stroke-miterlimit="10" d="M263.2,341.4"/>
				</g>
			</g>
			<circle fill="#7C5849" cx="146" cy="286" r="7.4"/>
			<circle fill="#7C5849" cx="135.2" cy="306.6" r="7.4"/>
			<circle fill="#7C5849" cx="154.5" cy="305.5" r="4.7"/>
			<circle fill="#7C5849" cx="231.3" cy="359" r="7.4"/>
			<circle fill="#7C5849" cx="220.5" cy="379.6" r="7.4"/>
			<circle fill="#7C5849" cx="239.8" cy="378.5" r="4.7"/>
		</g>
		
			<linearGradient id="SVGID_2_" gradientUnits="userSpaceOnUse" x1="-6920.4346" y1="2012.2257" x2="-6848.4731" y2="2012.2257" gradientTransform="matrix(0.5437 0.9012 -0.8562 0.5166 5922.9521 5464.2441)">
			<stop  offset="0" style="stop-color:#BEC0C2"/>
			<stop  offset="1" style="stop-color:#B1B3B6"/>
		</linearGradient>
		<path fill="url(#SVGID_2_)" d="M453.6,257l40.7,63.9l-16.2,7.9c-8.6,4.2-18.9,3.1-26.3-3l-3.4-2.8c-2.1-1.7-3.9-3.8-5.3-6.1
			L432,298.4c-2.4-4-3.6-8.5-3.4-13.2l0,0c0.3-8.3,4.7-15.9,11.9-20.2L453.6,257z"/>
		<path fill="#E57B41" d="M579.1,230.4c0.4,1.3,0.6,2.7,0.8,4c0.1,0.7,0.1,1.4,0.2,2c0.1,0.7,0.1,1.4,0.1,2c0.1,2.7-0.1,5.5-0.4,8.2
			c-0.8,5.4-2.3,10.8-4.6,15.9c-2.2,5.1-5.1,9.9-8.3,14.3c-3.3,4.4-7,8.5-11,12.4c-2.1,1.8-4.1,3.7-6.2,5.4
			c-1.1,0.8-2.1,1.7-3.2,2.6c-1.1,0.8-2.2,1.6-3.3,2.4c-0.6,0.4-1.1,0.8-1.7,1.2l-1.7,1.1l-3.4,2.2c-2.3,1.4-4.7,2.7-7.1,4l-3.6,1.8
			c-1.2,0.6-2.4,1.3-3.7,1.8l-3.7,1.6c-1.2,0.5-2.5,1.1-3.7,1.6c-2.5,0.9-5.1,1.9-7.6,2.8l-3.8,1.3l-3.9,1.2l-0.1-0.3
			c9.9-4,19.7-8.5,28.9-13.9c9.3-5.4,18-11.7,25.8-18.9c7.7-7.4,14.6-15.8,19.2-25.4c2.3-4.8,4.1-9.9,5.2-15.1
			c0.5-2.6,0.9-5.3,1-7.9c0.1-2.7,0.1-5.4-0.3-8L579.1,230.4z"/>
		<path fill="#A9ABAE" d="M321.2,137.9c-0.7-3.4-3-10.2-9.4-16.5c-0.5-0.5,0.1-1.2,0.7-1c4.8,2,13.4,7.2,9.9,17.5
			C322.3,138.5,321.4,138.5,321.2,137.9z"/>
		<path fill="#D1504A" d="M416.9,221.5l8.3,12.7c6.1,9.4,18.5,12.3,28.2,6.8l40.9-23.5L416.9,221.5z"/>
		
			<linearGradient id="SVGID_3_" gradientUnits="userSpaceOnUse" x1="-6946.0884" y1="665.2986" x2="-7001.3071" y2="814.6403" gradientTransform="matrix(0.9916 -0.1294 0.1294 0.9916 7267.8418 -1457.186)">
			<stop  offset="0" style="stop-color:#BEC0C2"/>
			<stop  offset="1" style="stop-color:#A9ABAE"/>
		</linearGradient>
		<path fill="url(#SVGID_3_)" d="M562.7,179.2c-37.7,35.8-86.5,52.1-138.2,43.1c-10.7-1.9-21.6-4-31.6-8.1
			c-27.7-11.4-29.2-33.4-29.1-60.1c0.1-17-5.2-29.6-7.5-46.3c-4.8-33.9,12.1-69.1,39-89.4C428-6.5,470.6-1.3,508.4,6.1"/>
		<path fill="#A9ABAE" d="M395.7,111.7c-1.2,6,2.6,11.8,8.5,13c5.9,1.2,11.7-2.6,13-8.6c1.2-6-2.6-11.8-8.5-13
			C402.7,101.9,396.9,105.8,395.7,111.7z"/>
		<path fill="#656668" d="M398.9,114.5c0.3,3.7,3.5,6.5,7.2,6.2c3.7-0.3,6.5-3.5,6.2-7.3c-0.3-3.7-3.5-6.5-7.2-6.2
			S398.6,110.8,398.9,114.5z"/>
		
			<linearGradient id="SVGID_4_" gradientUnits="userSpaceOnUse" x1="-7326.7056" y1="1005.7883" x2="-7326.7056" y2="1049.6292" gradientTransform="matrix(0.9959 9.021030e-002 -9.021030e-002 0.9959 7963.6045 -177.0741)">
			<stop  offset="0" style="stop-color:#BEC0C2"/>
			<stop  offset="1" style="stop-color:#A9ABAE"/>
		</linearGradient>
		<path fill="url(#SVGID_4_)" d="M501.6,5.4l81.8,12.2c28.2,3.7,53.6,18.3,69.4,39.8l0,0c22.5,30.6,22.3,70.1-0.7,99.6l-10.4,13.3
			c-24.6,31.7-69.8,44.8-111.2,32.2l-31.2-7.5"/>
		<path fill="#9B9DA0" d="M523.6,178.2L523.6,178.2c31.2,10.9,66.2,2.2,86.3-21.3l8.4-9.9c20.2-23.7,20.5-57.1-0.2-81.9
			c-11.7-14.1-29.2-23.5-48.3-26.8l-46.6-8.1c-8-1.4-15.2,4-15.3,11.3l-0.3,115.8C507.6,166.5,514,174.9,523.6,178.2z"/>
		<g>
			<path fill="#797A7D" d="M398.2,92.9c1.1-0.8,2.3-1.1,3.4-1.3c1.2-0.2,2.4-0.1,3.6,0.2c1.2,0.3,2.3,0.8,3.3,1.5
				c1,0.7,1.9,1.7,2.3,2.9l0,0c0,0,0,0.1-0.1,0.1c0,0-0.1,0-0.1,0c-0.9-0.6-1.8-1.2-2.8-1.7c-1-0.4-2-0.8-3.1-1
				c-1.1-0.3-2.1-0.4-3.2-0.5c-1.1-0.1-2.2-0.1-3.3-0.1c-0.1,0-0.1,0-0.1-0.1C398.1,93,398.2,92.9,398.2,92.9L398.2,92.9z"/>
		</g>
		<path fill="#797A7D" d="M363.6,146.6c0,0,26.3,1.1,37.6-3.2c1.2-0.5,2.4,0.9,1.7,2.1c-9,15.7-23.5,18.4-39.1,17.3L363.6,146.6z"/>
		<g>
			<path fill="#797A7D" d="M404.6,137.3c-0.9,1.5-1.2,3.3-1.1,4.9c0.1,1.7,0.6,3.3,1.3,4.8c0.7,1.5,1.9,2.7,2.7,4.3
				c0.5,0.7,0.9,1.5,1.3,2.3c0.4,0.8,0.8,1.6,1.1,2.6l-0.2,0.2c-0.9-0.4-1.7-0.9-2.5-1.4c-0.8-0.6-1.4-1.2-2.1-1.9
				c-0.6-0.7-1.1-1.5-1.5-2.4c-0.3-0.9-0.7-1.8-1-2.7c-0.6-1.8-0.8-3.8-0.5-5.7c0.3-1.9,1.1-3.7,2.4-5L404.6,137.3z"/>
		</g>
		
			<linearGradient id="SVGID_5_" gradientUnits="userSpaceOnUse" x1="-4925.4463" y1="3476.8701" x2="-5113.4277" y2="3476.8701" gradientTransform="matrix(0.8748 0.4845 -0.4845 0.8748 6336.6382 -494.0436)">
			<stop  offset="0" style="stop-color:#C4C6C8"/>
			<stop  offset="1" style="stop-color:#B1B3B6"/>
		</linearGradient>
		<path fill="url(#SVGID_5_)" d="M372.8,149.9c-3.9,2.7-8.5,3.8-12.8,5.6c-15.4,6.5-31.3,12.3-47.2,17.6
			c-15.3,5.1-31.2,8.8-47.4,8.4c-3-0.1-6-0.3-9-0.7c-29.9-3.6-57.5-22.2-72.5-48.3c-15-26.1-17.2-59.1-6.3-87.2
			c4.7-12,11.6-23.3,13.8-36.1c0.2-1.2,0.7-2.4,1.5-3.3c2.9-3.2,6.7-0.7,8.6,2.1c1.5,2.4,2.4,5.2,4.7,7c2.9,2.3,6.9,2,10.5,2.6
			c4.3,0.8,9.3,4.7,5.6,9.3c-0.5,0.7-1.3,1.2-2,1.6c-10.7,6.1-16.2,18.2-19,30c-3.3,14.4-3.3,29.9,1.7,43.8s15.3,26.2,28.9,32.1
			c18.2,7.9,39.4,3.7,57.7-4.1c18.2-7.8,39.2-23.3,58-29.8c8.3-2.9,15.3-2.9,23.6,0c9.9,3.4,14.7,16,15.1,26.3
			c0.1,4.4-0.7,9.2-2.8,13.2C380.8,144.8,377,147,372.8,149.9z"/>
		<path fill="#A9ABAE" d="M336.2,129.4c-0.6-3.4-2.6-10.3-8.9-16.8c-0.5-0.5,0.1-1.2,0.8-0.9c4.7,2.2,13.2,7.7,9.3,17.8
			C337.2,130,336.3,130,336.2,129.4z"/>
		<path fill="#A9ABAE" d="M326.7,134.7c-0.6-3.4-2.6-10.3-8.9-16.8c-0.5-0.5,0.1-1.2,0.8-0.9c4.7,2.2,13.2,7.7,9.3,17.8
			C327.7,135.4,326.8,135.4,326.7,134.7z"/>
		<path fill="#A9ABAE" d="M317.2,140.5c-0.6-3.4-2.6-10.3-8.9-16.8c-0.5-0.5,0.1-1.2,0.8-0.9c4.7,2.2,13.2,7.7,9.3,17.8
			C318.2,141.1,317.3,141.1,317.2,140.5z"/>
		<path fill="#FFFFFF" d="M384.5,123.6c-5.3,1.8-20.8,6.3-32.4,2.5c-1.2-0.4-2.1,1.1-1.3,2c4.6,5.1,14.8,13.4,32.5,11.7
			c0.6-0.1,1.1-0.5,1.1-1.1l1.6-13.9C386.3,124,385.4,123.3,384.5,123.6z"/>
		<g>
			<path fill="#58595B" d="M668.2,153c-2.1,13.5-14.3,22.7-27.4,20.4c-13-2.2-21.9-15-19.8-28.5c2.1-13.5,14.3-22.7,27.4-20.4
				S670.3,139.5,668.2,153z"/>
			<g>
				<path fill="#58595B" d="M747.7,460c0,0,45.6,35.2,62.4,41.8c13.6,5.4,25.5,14.1,30.8,28c0.1,0.2,0.1,0.3,0.2,0.5
					c3.3,8.2,14.4,9.1,19.6,1.6l47.6-69.4c6.3-9.2,4.9-21.2-3.3-26.7l-78-57.9L747.7,460z"/>
			</g>
			<g>
				<path fill="#58595B" d="M632.8,447.8c0,0-5.3,25.4-5,43.1c0.2,14.2-3.8,28-16.1,37.1c-0.1,0.1-0.3,0.2-0.4,0.3
					c-7.2,5.6-3.4,16.2,6.7,18.7l92.7,23.4c12.3,3.1,24.1-1.9,26.5-11.1l24.8-98.1L632.8,447.8z"/>
			</g>
			<path fill="#E15B55" d="M746.6,181.2l56.1,21.1c6.1,2.3,8,10,3.7,14.8l-10.8,12.2c-3.3,3.7-8.9,4.2-12.7,1.2l-40.7-32.1
				L746.6,181.2z"/>
			<path fill="#F1625B" d="M735.6,176.1l64.7-6.5c7-0.7,12.6,5.8,10.8,12.7l-4.6,17.1c-1.4,5.2-6.6,8.4-11.8,7.3l-55-11.6
				L735.6,176.1z"/>
			<path fill="#4F4F51" d="M689.8,342.3c-3.3-5.8-6.9-10.3-10.7-13.8l0-0.7c-0.7-0.4-1.5-0.8-2.2-1.2c-4.1-3.3-8.4-5.6-12.9-7.1
				c-2.4-1-4.9-1.9-7.4-2.7c-13.9-5.8-28.5-10.1-43.4-12.2c-18.8-2.7-34-3-50.4-14.2c-5.1-3.5-11.8-7.4-17.8-3.3
				c-9,6.2-13.8,17.1-19.9,25.8c-6.3,9.1-5.9,16.2-2.9,26.6c6,20.6,30.9,41,80.4,61.1c0.9,0.4,1.8,0.7,2.7,1.1
				c0.3,0.1,0.7,0.3,1,0.4c59.4,23.2,77.9-6.6,77.9-6.6C696.1,382.8,698.7,357.9,689.8,342.3z"/>
			<path fill="#58595B" d="M537.1,349.2L537.1,349.2c13.5,3.3,27.2-5,30.5-18.5l4-16.4c3.3-13.5-5-27.2-18.5-30.5h0
				c-13.5-3.3-27.2,5-30.5,18.5l-4,16.4C515.3,332.2,523.7,345.9,537.1,349.2z"/>
			<g>
				<path fill="#FFFFFF" d="M755.4,281.2c-1.5,2.1-3.5,3.7-5.9,4.6c-16.4,6.6-52.7,21.2-61.3,24.7c0-0.1,0-0.1,0-0.1
					c0,0-3.1,1.4-3.4,1.5c-0.3,0.1-3.4,1.4-3.4,1.4c0,0,0.1,0,0.1,0.1c-8.9,4-47.4,21.1-62.3,27.8c-3.9,1.7-22.5,3.4-23.3,7.4
					c-3,15.2,3.1,57.1,21.5,93.9c29.3,58.4,123.8,47.2,171.7,18.7c11-6.5,21.2-14.5,29.6-24c32.8-36.9,20.4-88.6-4.2-129
					c-11.9-19.4-34.6-40.4-49.9-57.4C759.3,244.9,760,274.6,755.4,281.2z"/>
			</g>
			<path fill="#4F4F51" d="M594.8,358.2c0,0,43.4,37.4,120,11.3c74.4-25.4,89.6-75.6,89.6-75.6l-45.8-57l-165.3,96.9L594.8,358.2z"
				/>
			
				<ellipse transform="matrix(0.8363 -0.5483 0.5483 0.8363 30.8087 408.7192)" fill="#58595B" cx="699.8" cy="152.8" rx="27.8" ry="28.9"/>
			<path fill="#FFFFFF" d="M568,306.5c-15.9-29.7-8-67.8,6.3-96.4c19.5-39,48.1-61.5,104.3-61.2c43.2,0.2,72.9,21.9,91.3,55.9
				c11.7,21.6,21.6,49.4,14.3,74.1c-12.4,42.1-62.5,58.9-100.9,65.9c-29.1,5.3-73.4,6.4-96.9-14.6
				C579.1,323.6,572.8,315.5,568,306.5z"/>
			<path fill="#58595B" d="M654.5,226.2c-9.9-9.2-23.5-15.6-35.7-14.5c-22.4,1.9-29.3,28.4-20.4,46c10.7,21,37.4,27.7,57.2,15.4
				c11-6.8,16.4-19.3,10.6-31.4C663.7,236.2,659.5,230.9,654.5,226.2z"/>
			
				<ellipse transform="matrix(-0.9676 0.2525 -0.2525 -0.9676 1256.4136 321.2422)" fill="#FFFFFF" cx="607.6" cy="241.2" rx="7.6" ry="7.8"/>
			<path fill="#58595B" d="M565.2,281.6c11.6,1.5,30.1,2.4,45.9-2.9c3.4-1.1,6,3,3.7,5.8c-9.4,11.4-36.6,20.7-52.4,3.5
				C560,285.5,561.7,281.2,565.2,281.6z"/>
			<path fill="#FFFFFF" d="M571.6,283.9c-2.2-0.4-3.7,2.2-2.2,3.9c1.1,1.3,3,2.4,6.3,2.9c6.5,1,13,1,16.8-2.1
				c1.8-1.5,0.6-4.4-1.7-4.2C586.1,284.8,578.6,285.1,571.6,283.9z"/>
			<path fill="#FFFFFF" d="M572.7,217.5c0,0-17.1,12.2-21.4,34.9l31.4-5.9L572.7,217.5z"/>
			<path fill="#58595B" d="M560.4,247.2l14.3,1.7c5.6,0.7,9.7,5.7,9,11.1l0,0.1c-0.4,3-2.1,5.7-4.7,7.3l-7.7,4.7
				c-4.1,2.5-9.4,1.9-12.8-1.4l-6.6-6.4c-2.2-2.2-3.3-5.2-3-8.2v0C549.7,250.4,554.8,246.5,560.4,247.2z"/>
			<path fill="#4F4F51" d="M786,271.4c0,0-41.6,42.6-77.9,54.3l40.5,10.7l41.2-46L786,271.4z"/>
			
				<ellipse transform="matrix(1 -7.829929e-003 7.829929e-003 1 -1.8703 4.7648)" fill="#58595B" cx="607.6" cy="241.2" rx="5.6" ry="5.8"/>
			<g>
				<path fill="#F1625B" d="M615.6,163.1c0,0-25.1,10.7-36.7,38.5l188.4-1.3c0,0-14.2-27.6-40.5-39.9L615.6,163.1z"/>
			</g>
			<polygon fill="#FFFFFF" points="693.4,174.7 695.6,168.7 699,174.1 705.4,174.4 701.3,179.3 703,185.4 697.1,183.1 691.8,186.6 
				692.2,180.2 687.1,176.3 			"/>
			<polygon fill="#FFFFFF" points="705.3,168.1 705.9,166.5 706.8,167.9 708.5,168 707.4,169.3 707.9,170.9 706.3,170.3 
				704.9,171.2 705,169.5 703.6,168.5 			"/>
			<polygon fill="#FFFFFF" points="712,173.3 712.6,171.7 713.5,173.2 715.2,173.2 714.1,174.5 714.6,176.2 713,175.5 711.6,176.5 
				711.7,174.8 710.4,173.7 			"/>
			<polygon fill="#FFFFFF" points="712.6,182.2 713.2,180.6 714.1,182 715.8,182.1 714.7,183.4 715.2,185 713.6,184.4 712.2,185.3 
				712.3,183.6 711,182.6 			"/>
			<polygon fill="#FFFFFF" points="706.5,187.1 707.1,185.5 708,186.9 709.7,187 708.6,188.3 709.1,189.9 707.5,189.3 706.1,190.2 
				706.2,188.5 704.9,187.5 			"/>
			<g>
				<circle fill="#976C5A" cx="445.9" cy="418.8" r="147.9"/>
				<path fill="#866050" d="M390,336.5c-0.4-2.2-0.2-18.2-0.1-25.8c0-2.6,0.8-5.2,2.2-7.4l7.4-12.2v0c1.1-2.1,4.2-1.3,4.2,1v6.9
					c0,0.2,0,0.5-0.1,0.7l-2.6,7.5c-0.8,2.2-1,4.6-0.6,6.9l3.3,22.3H390z"/>
				<path fill="#866050" d="M426.1,289.9c-0.3-1.4-0.1-11.5,0-16.3c0-1.7,0.5-3.3,1.4-4.7l4.7-7.7l0,0c0.7-1.3,2.7-0.8,2.7,0.6v4.4
					c0,0.2,0,0.3-0.1,0.5l-1.6,4.7c-0.5,1.4-0.6,2.9-0.4,4.4l2.1,14.1H426.1z"/>
				<path fill="#866050" d="M468.1,296.7c0.7-1,6.1-7.5,8.7-10.7c0.9-1.1,1.9-2,2.9-2.7l5.5-3.9h0c0.9-0.7,1.2,0.1,0.4,1l-2.3,2.9
					c-0.1,0.1-0.2,0.2-0.3,0.3l-3,2.7c-0.9,0.8-1.7,1.7-2.4,2.8l-7,9.7L468.1,296.7z"/>
				<path fill="#866050" d="M496.7,319.5c1.6-1.6,15.1-10.1,21.5-14.1c2.2-1.4,4.8-2.2,7.4-2.2l14.2-0.4h0c2.3-0.2,3.4,2.8,1.4,4.1
					l-5.8,3.8c-0.2,0.1-0.4,0.2-0.7,0.3l-7.7,1.9c-2.3,0.6-4.4,1.7-6.1,3.2l-16.9,15L496.7,319.5z"/>
				<path fill="#866050" d="M422.2,370c1.3-1.2,11.9-8,17-11.2c1.7-1.1,3.8-1.7,5.8-1.8l11.2-0.3l0,0c1.8-0.2,2.7,2.2,1.1,3.2
					l-4.6,3c-0.2,0.1-0.3,0.2-0.5,0.2l-6,1.5c-1.8,0.5-3.4,1.3-4.8,2.6l-13.3,11.8L422.2,370z"/>
				<g>
					<g>
						<path fill="#866050" d="M344.3,361.5c-0.8,2.7-2.1,5-4.1,7c-2.4,2.3,2.1,2.7,3.5,2.6c3.2-0.2,7.3-1.2,9.7-3.5
							c2.4-2.4,4.3-5.3,5.2-8.5c0.7-2.6-4.7-1.8-5.9-1.6c-1.9,0.3-3.8,0.9-5.5,1.7C346.4,359.5,344.6,360.4,344.3,361.5L344.3,361.5
							z"/>
					</g>
				</g>
				<g>
					<g>
						<path fill="#866050" d="M345.8,390.1c2.2,5.3,3.9,10.7,5,16.2c0.7,3.4,15.3-0.1,14.5-3.9c-1.1-5.6-2.8-11-5-16.2
							C358.7,382.5,344.5,387.2,345.8,390.1L345.8,390.1z"/>
					</g>
				</g>
				<g>
					<g>
						<path fill="#866050" d="M369.8,385.3c1.9,1.1,3.7,2.2,5.6,3.4c3.3,2,7.4,1.6,10.4-0.8c2.3-1.8,3.9-6,0.7-8
							c-1.9-1.1-3.7-2.2-5.6-3.4c-3.3-2-7.4-1.6-10.4,0.8C368.2,379.2,366.6,383.4,369.8,385.3L369.8,385.3z"/>
					</g>
				</g>
				<g>
					<g>
						<path fill="#866050" d="M344.4,467.5c6.7,12.5,14.8,23.9,24.6,34.2c3.7,3.9,17.5-1.6,13.4-5.8c-9.3-9.6-17.2-20.4-23.5-32.2
							C356.1,458.4,342,463.1,344.4,467.5L344.4,467.5z"/>
					</g>
				</g>
				<g>
					<g>
						<path fill="#866050" d="M444.3,415.3c3,2.5,6,5,9,7.5c0.8,0.7,2.8,0.4,3.7,0.3c1.9-0.2,3.8-0.6,5.6-1.3
							c0.8-0.3,6.3-2.3,4.4-3.9c-3-2.5-6-5-9-7.5c-0.8-0.7-2.8-0.4-3.7-0.3c-1.9,0.2-3.8,0.6-5.6,1.3
							C447.9,411.6,442.4,413.7,444.3,415.3L444.3,415.3z"/>
					</g>
				</g>
				<g>
					<g>
						<path fill="#866050" d="M472.8,406.3c3.1,0,7.6-2.4,8-5.7c0.5-3.8-3.9-4.6-6.6-4.6c-3.1,0-7.6,2.4-8,5.7
							C465.7,405.5,470.1,406.3,472.8,406.3L472.8,406.3z"/>
					</g>
				</g>
				<g>
					<g>
						<path fill="none" stroke="#BFA89F" stroke-miterlimit="10" d="M417.9,456.5"/>
					</g>
				</g>
				<g>
					<g>
						<path fill="none" stroke="#BFA89F" stroke-miterlimit="10" d="M443.1,451.5"/>
					</g>
				</g>
				<circle fill="#866050" cx="327.9" cy="389.1" r="7.5"/>
				<circle fill="#866050" cx="315.9" cy="409.3" r="7.5"/>
				<circle fill="#866050" cx="335.4" cy="409.3" r="4.7"/>
				<circle fill="#866050" cx="410" cy="467.4" r="7.5"/>
				<circle fill="#866050" cx="397.9" cy="487.6" r="7.5"/>
				<circle fill="#866050" cx="417.5" cy="487.6" r="4.7"/>
			</g>
			<path fill="#58595B" d="M619,390.6l8.2,45.7l-20.5,3.7c-10.1,1.8-19.8-4.9-21.6-15l-4.9-27.3c-1.6-8.9,4.4-17.5,13.3-19l6.5-1.2
				C608.9,375.7,617.4,381.7,619,390.6z"/>
			<path fill="#58595B" d="M582.4,391.8c0,0,41.6,0.4,65.7-29c24.2-29.4,56.8-46.9,87.3-31.9c17.2,8.5,22.2,20.3,22.3,38.7
				c0.3,71-101.5,78.5-148.3,78.1c-13-0.1-23.7-10.2-24.6-23.1C583.7,409.4,582.4,391.8,582.4,391.8z"/>
		</g>
	</g>
	<g>
		<ellipse fill="#8A6252" cx="478.8" cy="531.4" rx="59.1" ry="59.2"/>
		<path fill="#7C5849" d="M456.4,498.4c-0.2-0.9-0.1-7.3,0-10.3c0-1,0.3-2.1,0.9-3l3-4.9v0c0.4-0.8,1.7-0.5,1.7,0.4v2.8
			c0,0.1,0,0.2,0,0.3l-1,3c-0.3,0.9-0.4,1.8-0.3,2.8l1.3,8.9H456.4z"/>
		<path fill="#7C5849" d="M470.9,479.8c-0.1-0.6-0.1-4.6,0-6.5c0-0.7,0.2-1.3,0.5-1.9l1.9-3.1l0,0c0.3-0.5,1.1-0.3,1.1,0.3v1.7
			c0,0.1,0,0.1,0,0.2l-0.6,1.9c-0.2,0.6-0.2,1.2-0.2,1.7l0.8,5.7H470.9z"/>
		<path fill="#7C5849" d="M487.6,482.5c0.3-0.4,2.4-3,3.5-4.3c0.4-0.4,0.8-0.8,1.2-1.1l2.2-1.6l0,0c0.4-0.3,0.5,0,0.2,0.4l-0.9,1.1
			c0,0-0.1,0.1-0.1,0.1l-1.2,1.1c-0.4,0.3-0.7,0.7-1,1.1l-2.8,3.9L487.6,482.5z"/>
		<path fill="#7C5849" d="M499.1,491.6c0.6-0.6,6-4,8.6-5.7c0.9-0.6,1.9-0.9,3-0.9l5.7-0.2l0,0c0.9-0.1,1.4,1.1,0.6,1.6l-2.3,1.5
			c-0.1,0.1-0.2,0.1-0.3,0.1l-3.1,0.8c-0.9,0.2-1.7,0.7-2.4,1.3l-6.8,6L499.1,491.6z"/>
		<path fill="#7C5849" d="M469.3,511.9c0.5-0.5,4.8-3.2,6.8-4.5c0.7-0.4,1.5-0.7,2.3-0.7l4.5-0.1l0,0c0.7-0.1,1.1,0.9,0.5,1.3
			l-1.8,1.2c-0.1,0-0.1,0.1-0.2,0.1l-2.4,0.6c-0.7,0.2-1.4,0.5-1.9,1l-5.3,4.7L469.3,511.9z"/>
		<path fill="#7C5849" d="M435.1,509c-0.2,0.8-0.6,1.5-1.1,2.2c0.2-0.2,0.3-0.4,0.5-0.6c-0.2,0.3-0.5,0.6-0.8,0.9
			c-0.5,0.5-0.8,1.2-0.2,1.7c0.7,0.6,2.3,0.5,3.1,0.5c1.6-0.1,3.2-0.5,4.7-1c1.2-0.5,2.4-1,3.3-1.9c1.1-1,1.9-2.3,2.3-3.8
			c0.6-2.2-3.9-1.5-4.9-1.4c-1.6,0.3-3.2,0.7-4.6,1.4c-0.4,0.2-0.8,0.4-1.1,0.6C435.8,508,435.4,508.4,435.1,509L435.1,509z"/>
		<path fill="#7C5849" d="M435.6,520.8c0.9,2.1,1.5,4.3,2,6.5c0.2,0.9,1.6,1.1,2.2,1.2c1.4,0.2,3.1-0.1,4.4-0.4
			c1.4-0.4,2.9-0.9,4.1-1.8c0.6-0.5,1.5-1.2,1.3-2.2c-0.5-2.2-1.1-4.4-2-6.5c-0.9-2.1-5-1.3-6.6-0.8c-1.4,0.4-2.9,0.9-4.1,1.8
			C436.4,519,435.3,519.9,435.6,520.8L435.6,520.8z"/>
		<path fill="#7C5849" d="M446,519.8c0.7,0.4,1.5,0.9,2.2,1.3c0.6,0.4,1.2,0.7,1.9,0.8c0.7,0.2,1.5,0.3,2.3,0.2
			c0.8,0,1.7-0.2,2.4-0.6c0.8-0.2,1.5-0.6,2.1-1.1c1-0.8,2-2,2.1-3.3c0-1.2-0.4-2.5-1.5-3.2c-0.7-0.4-1.5-0.9-2.2-1.3
			c-0.6-0.4-1.2-0.7-1.9-0.8c-0.7-0.2-1.5-0.3-2.3-0.2c-0.8,0-1.7,0.2-2.4,0.6c-0.8,0.2-1.5,0.6-2.1,1.1c-1,0.8-2,2-2.1,3.3
			C444.4,517.8,444.9,519.2,446,519.8L446,519.8z"/>
		<path fill="#7C5849" d="M435.1,551.7c2.7,5,6,9.6,9.9,13.7c2,2.1,12.9-2.3,11.4-4c-3.7-3.9-6.8-8.2-9.3-12.9
			C445.6,545.8,434.3,550.2,435.1,551.7L435.1,551.7z"/>
		<path fill="#7C5849" d="M475.2,531.2c1.2,1,2.4,2,3.6,3c0.8,0.6,2.2,0.7,3.1,0.6c1.5,0,3.3-0.4,4.7-1c0.9-0.4,5.3-2.4,3.4-4
			c-1.2-1-2.4-2-3.6-3c-0.8-0.6-2.2-0.7-3.1-0.6c-1.5,0-3.3,0.4-4.7,1C477.7,527.6,473.4,529.6,475.2,531.2L475.2,531.2z"/>
		<g>
			<g>
				<path fill="none" stroke="#BFA89F" stroke-miterlimit="10" d="M467.6,546.5"/>
			</g>
		</g>
		<g>
			<g>
				<path fill="none" stroke="#BFA89F" stroke-miterlimit="10" d="M477.7,544.5"/>
			</g>
		</g>
		<ellipse fill="#7C5849" cx="431.6" cy="519.5" rx="3" ry="3"/>
		<ellipse fill="#7C5849" cx="426.8" cy="527.6" rx="3" ry="3"/>
		<circle fill="#7C5849" cx="434.6" cy="527.6" r="1.9"/>
		<ellipse fill="#7C5849" cx="464.4" cy="550.9" rx="3" ry="3"/>
		<ellipse fill="#7C5849" cx="459.6" cy="559" rx="3" ry="3"/>
		<circle fill="#7C5849" cx="467.4" cy="559" r="1.9"/>
	</g>
	<g>
		<polygon fill="#464547" stroke="#464547" stroke-width="4" stroke-miterlimit="10" points="565.6,581.8 556.1,581.9 556,580 
			563.6,579.8 563.4,564.8 565.3,564.7 		"/>
		<path fill="#464547" stroke="#464547" stroke-width="4" stroke-miterlimit="10" d="M596.4,581.3l-10.4,0.2l0-1.9l8.5-0.1l0-2.3
			c-3-0.7-5.6-2.8-7.5-6c-1.5-2.6-2.1-5-2.1-5.1l1.9-0.4c0,0.1,2,8.7,8.8,9.8l0.8,0.1L596.4,581.3z"/>
		<path fill="#464547" d="M548.8,540l-14.4-0.4l0.1-4.2c0-0.9-0.6-1.8-1.6-1.9c-1.1-0.1-2,0.7-2,1.7l-0.1,4.6c0,1.1,0.8,2,2,2.1
			l1.6,0v0l14.4,0.4L548.8,540z"/>
		<path fill="#58595B" d="M579.1,573.6L579.1,573.6c-13,2.4-25.6-6.2-28-19.2l-2-10.7c-2.4-13,6.2-25.5,19.1-28h0
			c13-2.4,25.6,6.2,28,19.2l2,10.7C600.7,558.6,592.1,571.2,579.1,573.6z"/>
		<path fill="#464547" d="M592,540.5l-2.7,7.8c-0.6,1.7-1.8,3.1-3.4,3.9l-16.9,8.3l-1.7-3.5c-0.4-0.8-1.4-1.3-2.2-0.9
			c-0.9,0.4-1.3,1.4-0.9,2.3l1.8,3.8c0.5,1,1.7,1.4,2.7,0.9l1.2-0.6l0,0l16.9-8.3c2.1-1,3.8-2.9,4.6-5.1l2.7-7.8L592,540.5z"/>
		<g>
			<path fill="#464547" d="M592.4,551.9C592.4,551.9,592.4,551.8,592.4,551.9L592.4,551.9L592.4,551.9z"/>
			<path fill="#464547" d="M592,552c0,0.1-0.1,0.1,0,0.2C592,552.1,592.1,552.1,592,552c0.1,0,0.1-0.1,0.1,0c0,0,0.1,0,0.1-0.1
				C592.2,551.9,592.1,552,592,552C592,552,592,552,592,552z"/>
			<path fill="#464547" d="M587.8,555L587.8,555C587.8,555,587.8,555,587.8,555z"/>
			<path fill="#464547" d="M585,556.7C585.1,556.7,585.1,556.7,585,556.7C585,556.7,585,556.7,585,556.7z"/>
			<path fill="#464547" d="M584.5,556.9C584.5,556.9,584.6,556.9,584.5,556.9C584.5,556.9,584.5,556.9,584.5,556.9z"/>
			<path fill="#464547" d="M587.8,555L587.8,555C587.7,555.1,587.7,555,587.8,555z"/>
			<path fill="#464547" d="M591.5,552.6C591.6,552.5,591.6,552.5,591.5,552.6L591.5,552.6C591.5,552.6,591.5,552.6,591.5,552.6z"/>
			<path fill="#464547" d="M588.9,554.2L588.9,554.2C588.9,554.1,589,554.1,588.9,554.2L588.9,554.2z"/>
			<path fill="#464547" d="M589.8,553.5C589.8,553.5,589.8,553.6,589.8,553.5C589.8,553.6,589.8,553.6,589.8,553.5
				C589.8,553.5,589.8,553.5,589.8,553.5z"/>
			<path fill="#464547" d="M591.2,552.6L591.2,552.6C591.3,552.5,591.2,552.6,591.2,552.6z"/>
			<path fill="#464547" d="M588.3,554.6C588.3,554.6,588.3,554.6,588.3,554.6C588.3,554.6,588.3,554.6,588.3,554.6z"/>
			<path fill="#464547" d="M559.1,560.4C559.1,560.4,559.1,560.4,559.1,560.4C559.1,560.4,559.1,560.4,559.1,560.4z"/>
			<path fill="#464547" d="M557.9,559.9L557.9,559.9C557.9,559.9,557.9,559.9,557.9,559.9L557.9,559.9z"/>
			<path fill="#464547" d="M583.6,557.3L583.6,557.3C583.6,557.3,583.6,557.3,583.6,557.3z"/>
			<path fill="#464547" d="M574.9,560.2C575,560.2,574.8,560.2,574.9,560.2C574.9,560.2,575.1,560.2,574.9,560.2z"/>
			<path fill="#464547" d="M591.5,552.6L591.5,552.6C591.5,552.6,591.5,552.6,591.5,552.6z"/>
			<path fill="#464547" d="M574.9,560.3L574.9,560.3L574.9,560.3C574.9,560.3,574.9,560.3,574.9,560.3z"/>
			<path fill="#464547" d="M581.5,558.3C581.6,558.3,581.6,558.4,581.5,558.3C581.6,558.3,581.6,558.3,581.5,558.3z"/>
			<path fill="#464547" d="M583.1,557.7L583.1,557.7C583.1,557.7,583.1,557.7,583.1,557.7z"/>
			<path fill="#464547" d="M580.7,558.7C580.7,558.7,580.7,558.7,580.7,558.7C580.7,558.8,580.7,558.8,580.7,558.7
				C580.7,558.8,580.7,558.7,580.7,558.7z"/>
			<path fill="#464547" d="M579.9,559.1C579.9,559.1,579.9,559.1,579.9,559.1C579.9,559.1,579.9,559.1,579.9,559.1L579.9,559.1z"/>
			<path fill="#464547" d="M562,560.7C562,560.6,561.9,560.6,562,560.7C561.9,560.7,561.8,560.7,562,560.7z"/>
			<path fill="#464547" d="M591.5,552.5C591.5,552.5,591.5,552.6,591.5,552.5L591.5,552.5C591.5,552.5,591.5,552.5,591.5,552.5z"/>
			<path fill="#464547" d="M580.8,559.1l-0.1,0C580.7,559.1,580.8,559.1,580.8,559.1z"/>
			<path fill="#464547" d="M568.7,560.9L568.7,560.9C568.7,560.9,568.7,560.9,568.7,560.9z"/>
			<path fill="#464547" d="M580.3,559.3C580.3,559.3,580.2,559.3,580.3,559.3c-0.1,0-0.1,0-0.1,0L580.3,559.3z"/>
			<path fill="#464547" d="M561.9,560.6L561.9,560.6L561.9,560.6z"/>
			<path fill="#464547" d="M560.9,560.6c0.1,0,0.1-0.1,0.1-0.1c0.2,0,0.1,0.1,0.1,0.1c0.1,0,0.2-0.1,0.3,0c0,0,0,0,0,0
				c0.1,0,0.3,0,0.5,0c0,0,0,0,0,0c0,0,0-0.1,0-0.1c0.1,0,0.1,0,0.1,0c0,0,0,0-0.1,0l0.1,0c0.1,0.1-0.1,0-0.1,0.1c0.1,0,0.3,0,0.4,0
				c0,0.1-0.2,0-0.1,0.1l-0.2,0c0.1,0.1-0.1,0,0,0.1c0.2,0,0.2,0,0.4,0c0,0,0,0,0-0.1c0.3,0,0.2,0.2,0.4,0.1c0.1,0,0.1-0.1,0.2-0.1
				l-0.1,0.1c0.2,0,0.1-0.1,0.3,0c0,0-0.2,0-0.1,0c0.1,0.1,0.1,0,0.2,0l0,0.1c0.2,0,0.4,0,0.7,0c0,0-0.1,0,0,0.1
				c0.3,0,0.6,0,0.9,0.1l0.1,0c0,0,0,0,0,0c0.1,0,0,0,0.1,0c0.1,0,0.1,0,0,0c0.2,0,0.6-0.1,0.8,0l0,0c0.2,0,0.2-0.1,0.3,0l0,0
				c0.3,0,0.7,0,1,0.1c0.1-0.1,0.3,0,0.4-0.1c0.2,0,0.1,0.1,0.4,0.1c0.1,0,0.1-0.1,0.2-0.1l0,0l0.1-0.1l0.1,0.1l0.1,0
				c0,0-0.1,0-0.1,0c0.1,0,0.3,0,0.3,0.1l0.3,0c0,0-0.1,0-0.1,0c0.2-0.1,0,0.1,0.2,0c0,0,0,0,0,0c0.1,0,0.3,0,0.4,0l0,0
				c0.2,0,0.5,0,0.8,0c-0.1,0-0.1-0.1,0-0.1l0,0.1c0,0-0.1,0,0-0.1c0.1,0,0.1,0.1,0,0.1l0.1,0c0,0,0,0,0,0c0,0,0.2,0,0.3,0l0,0
				c0.3,0,0.4,0,0.6,0c0,0,0.1,0,0.1-0.1c0.2,0,0.3,0,0.5,0c0.1,0,0,0,0.1-0.1c0,0,0.2,0,0.1,0.1c0.2,0,0.3,0,0.6-0.1
				c0,0-0.1,0-0.1,0c0.1,0,0.1,0,0.1,0l0,0c0.3-0.1,0.8,0.1,1-0.1l0,0l0.3-0.1c0.1,0-0.1,0,0,0.1c0.3-0.1,0.5,0,0.7-0.1
				c0.2,0.1,0.6-0.1,0.9-0.1l0,0c0.1,0,0.1,0,0.1,0c0,0-0.1,0,0,0c0.3-0.1,0.5-0.1,0.8-0.1c0.3,0,0.6-0.1,0.8-0.1
				c0.2,0,0.1-0.2,0.3-0.2l-0.1,0.1c0.4-0.2,0.8-0.2,1.2-0.4c0,0,0,0-0.1,0c0.1,0,0.3-0.1,0.3-0.1c0.1,0,0,0,0.1,0
				c0.1,0,0.2-0.1,0.2-0.1c0,0,0,0,0,0c0,0,0.2-0.1,0.2-0.1c0.2,0,0.3-0.1,0.4-0.1c0.1-0.1,0.3-0.1,0.3-0.1c0,0.1,0.3,0,0.3-0.1
				c0,0,0.1,0,0.1,0c0.1,0,0.2-0.1,0.2-0.1c0.2,0,0.3-0.2,0.5-0.2c0.1-0.1,0.3-0.2,0.4-0.2c0.1-0.1,0.3-0.1,0.4-0.2
				c0,0.1-0.3,0.1-0.2,0.2c0.2-0.1,0.4-0.3,0.6-0.4c0.1,0,0,0,0,0.1c0.2-0.1,0.5-0.2,0.7-0.4c0,0,0,0,0,0c0,0,0.1,0,0.1-0.1l0,0
				c-0.1,0,0.1-0.2,0.1-0.2c0,0.1,0.2-0.1,0.2,0.1c0,0,0.1-0.1,0-0.1c0,0,0.1,0,0,0c0.1-0.1,0.1-0.1,0.2-0.2c0,0,0,0,0,0.1
				c0.1-0.1,0.1-0.1,0.2-0.2c0,0,0,0,0,0c0.2-0.1,0.3-0.3,0.5-0.4c0,0.1,0.1,0,0.1,0l0.1-0.1l-0.1,0c0.1-0.1,0.2-0.1,0.3-0.2
				L585,557l0.2-0.1l-0.1,0c0.1-0.1,0-0.1,0.1-0.1c0,0,0.1-0.1,0.2-0.1l0,0c0,0,0.1-0.1,0.2-0.1c0,0,0,0.1,0,0.1
				c0-0.1,0.2-0.2,0.3-0.2c0,0,0,0.1,0,0.1l0-0.1c0.1,0,0.1,0,0.1,0c0.1-0.1-0.1,0,0.1-0.1c0,0,0,0,0,0c0.2-0.1,0.3-0.2,0.5-0.3
				c0.1,0-0.1,0.1,0,0.1c0.2-0.1,0.4-0.4,0.6-0.5l0,0c0-0.1,0.2-0.1,0.3-0.2c0,0,0,0.1,0,0c0.2-0.1,0.3-0.2,0.5-0.4l0,0
				c0.1,0,0.2-0.1,0.3-0.2c0,0,0.1-0.1,0-0.1c0.4-0.1,0.5-0.4,0.8-0.5c0,0-0.1,0.1,0,0l0.2-0.2c0,0,0,0-0.1,0c0,0,0.1-0.1,0.1-0.1
				c-0.1,0.1,0,0,0.1,0c0,0,0,0,0,0c0.1,0,0-0.1,0.1-0.1l0,0c0,0,0.1-0.1,0.1-0.1c0,0,0,0.1,0,0.1c0.1-0.1,0.1-0.2,0.2-0.2
				c0,0-0.1,0.1-0.1,0.1c0.1,0,0.1,0,0.2-0.1l0,0l0.2-0.1l0,0c0-0.2,0.2-0.2,0.3-0.3c-0.1,0.2,0,0,0,0.1c0,0,0.1,0,0.1,0
				c0-0.1,0.1-0.1,0.2-0.2c0,0,0.1-0.1,0.1,0c0.1-0.1,0,0,0,0c0.1-0.1,0.4-0.2,0.5-0.4c0.1-0.1,0.1-0.2,0.3-0.3c0.1,0,0,0.1,0,0.1
				c0.1,0,0.2-0.1,0.2-0.2c0,0,0,0,0.1,0c0.1-0.1,0-0.1,0.1-0.1c0,0,0,0.1,0,0.1c0.1-0.1,0.1-0.1,0.2-0.2c0,0,0,0.1,0,0.1
				c0.1-0.1,0.2-0.2,0.2-0.2l-0.1,0c0,0,0,0,0,0c-0.1,0.1-0.1,0.1-0.1,0.1l0,0c-0.1,0-0.2,0.2-0.3,0.3l0-0.1l-0.1,0.1
				c0,0-0.1,0,0-0.1c-0.1,0-0.1,0.1-0.1,0.1c0,0,0,0,0,0l-0.1,0.1c0,0,0,0,0-0.1c-0.2,0.1-0.2,0.2-0.3,0.2l0,0
				c-0.2,0.2,0,0.1-0.1,0.2l-0.2,0l0,0.1c0,0-0.1,0-0.1,0c-0.1,0.1,0,0,0,0.1c-0.1,0-0.2,0.2-0.3,0.2c0,0.1,0.1,0,0,0.1
				c-0.1,0-0.1,0.1-0.2,0.1c0-0.1,0.1-0.1,0-0.1c0,0.1-0.2,0.1-0.2,0.2c0,0.1-0.1,0.1-0.3,0.2c0,0-0.3,0.1-0.4,0.2l0,0
				c0,0.1-0.1,0.1-0.2,0.2c0,0,0-0.1,0-0.1l-0.1,0.1c0,0,0,0.1-0.1,0.1l0-0.1c-0.1,0.1-0.2,0.2-0.3,0.3c0,0,0.2,0,0,0.1
				c0,0,0,0,0-0.1c0,0,0,0-0.1,0.1l0-0.1c-0.1,0,0,0-0.1,0.1c0,0-0.1,0-0.1,0c0,0,0.1,0,0.1,0c-0.1,0-0.1,0.1-0.2,0.1c0,0,0,0,0,0.1
				c-0.1,0.1-0.1,0-0.1,0c0,0-0.1,0.1-0.1,0.1c0,0-0.1,0-0.1,0c0,0.1-0.3,0.2-0.2,0.2l0,0l0,0l0,0l0,0c-0.2,0.2-0.4,0.2-0.6,0.4l0,0
				c-0.1,0.1-0.2,0.2-0.3,0.3c0,0-0.1,0-0.1,0c-0.1,0.1-0.1,0.1-0.2,0.1c0.1-0.1,0,0,0.1-0.1c-0.1,0.1-0.2,0.1-0.3,0.2
				c0-0.1-0.1,0-0.2,0.1l0.1,0c-0.1,0-0.1,0.1-0.2,0.1l0-0.1c-0.3,0.1-0.4,0.4-0.6,0.4c0,0.1,0.1-0.1,0.1,0
				c-0.1,0.1-0.3,0.1-0.3,0.1c-0.2,0.1-0.1,0.1-0.3,0.2c0,0,0.1,0,0,0.1c-0.1,0.1-0.2,0-0.1,0c0,0,0,0,0,0c0,0,0.1-0.1,0-0.1l0,0
				c-0.1,0-0.2,0.1-0.2,0.1c-0.1,0.1,0,0,0,0c-0.2,0.1-0.2,0.1-0.4,0.2c0,0,0.1,0,0,0c-0.2,0.1-0.1,0.1-0.2,0.2c-0.1,0,0-0.1-0.1,0
				c-0.1,0,0,0,0-0.1c-0.1,0.1-0.3,0.1-0.3,0.1l0.1-0.1c0,0-0.1,0-0.1,0.1l0.1,0c0,0-0.1,0-0.1,0c0,0,0.1,0,0,0.1
				c-0.1,0-0.2,0.1-0.2,0.1c0.2-0.1,0,0,0.1-0.1c0,0-0.1,0-0.1,0.1c0,0,0,0,0,0c-0.2,0-0.1,0.1-0.2,0.2c0,0-0.1,0-0.1,0
				c0.1,0,0.1,0,0,0.1c-0.1,0-0.1,0.1-0.2,0.1l0.1,0c0,0-0.1,0.1-0.1,0.1c0,0,0.1,0,0,0c-0.1,0.1-0.2,0.1-0.3,0.1c-0.1,0,0,0-0.1,0
				c-0.1,0.1-0.2,0-0.3,0.1c0.1,0,0.1,0,0,0.1l0.2-0.1l-0.1,0.1c0.1,0,0.1-0.1,0.2-0.1c-0.1,0.1-0.1,0,0,0.1c-0.1,0-0.2,0.1-0.3,0.1
				l0-0.1c-0.2,0-0.3,0.2-0.5,0.3l0.1,0c0,0-0.1,0.1-0.2,0.1c0,0-0.1,0-0.1,0c0,0-0.2,0.1-0.2,0.1l-0.1,0c-0.2,0.1-0.2,0.2-0.3,0.2
				c0-0.1,0,0,0.1-0.1c-0.1,0-0.1,0-0.1,0.1c0,0-0.1,0.1-0.2,0.1c0,0,0,0.1-0.1,0.1c0,0,0,0,0,0c0,0-0.1,0.1,0,0.1
				c-0.2,0-0.5,0.2-0.7,0.2c-0.1,0.1-0.3,0.1-0.4,0.2c0,0,0,0,0,0c-0.2,0-0.1,0.1-0.3,0.1c-0.1,0,0.1-0.1,0-0.1
				c-0.1-0.1-0.2,0.1-0.4,0.1l0,0c-0.1,0-0.2,0.1-0.4,0.1c0,0,0,0,0,0c-0.1,0.1-0.3,0.2-0.4,0.2c0-0.1,0.1,0,0-0.1
				c-0.1,0,0,0.1-0.1,0.1c-0.1,0-0.2,0-0.2,0l0.1,0c-0.1,0-0.2,0-0.2,0l0,0c-0.2,0.1-0.2,0.1-0.4,0.2l0,0c-0.1,0.1-0.1,0-0.2,0.1
				l0-0.1c-0.1,0-0.3,0.1-0.4,0.2c0.1-0.1,0.2-0.1,0.3-0.2c-0.1,0-0.3,0.1-0.3,0.1c0,0,0.1,0,0.1,0c-0.1,0.1-0.2,0.1-0.4,0.1
				c0-0.1-0.4,0-0.5,0c-0.3,0.1-0.5,0.1-0.9,0.1c0.1,0.1-0.1,0-0.1,0.1c-0.1,0-0.1,0-0.1,0l-0.2,0c-0.1,0,0.1,0,0.1-0.1
				c-0.2,0-0.1,0-0.2,0c0,0-0.1,0.1-0.1,0.1l0.1,0c-0.2,0.1-0.2-0.1-0.4,0l0.1,0c-0.1,0-0.4,0-0.5,0.1c0,0-0.1,0,0,0
				c-0.3,0-0.6,0.1-0.8,0.1l0,0c-0.1,0-0.1,0.1-0.2,0c0,0,0,0,0,0c0,0-0.1,0.1-0.2,0l0.1,0c-0.3,0-0.4,0.1-0.6,0.1
				c0-0.1-0.2-0.1-0.3-0.1l0,0c-0.3,0-0.5,0.1-0.8,0.1c-0.2-0.1-0.6,0-0.9-0.1c0,0,0,0.1-0.1,0.1c-0.1,0-0.2,0.1-0.2,0l0,0
				c-0.1-0.1-0.2,0-0.3,0l0,0.1c-0.3-0.1-0.8,0-0.9-0.1c-0.1,0-0.2,0-0.2,0l0,0c-0.2,0-0.3,0-0.5,0l0,0c-0.1,0-0.2,0.1-0.3,0.1
				l0-0.1c-0.2,0-0.5-0.1-0.7,0c0,0,0,0,0.1,0c-0.1,0-0.4-0.1-0.4,0c0-0.1-0.2,0-0.4,0l0,0c-0.1,0.1-0.1,0.1-0.3,0.1c0,0,0,0,0,0
				c-0.1,0-0.1,0-0.2,0l0.1,0c-0.1,0-0.1,0-0.2,0c-0.1,0-0.2,0-0.3-0.1c0,0-0.1,0.1-0.2,0c0,0,0,0,0,0c-0.2,0-0.3,0-0.4,0
				c0,0,0,0,0,0c0.2,0,0.3,0,0.3,0c0,0-0.1-0.1,0-0.1c-0.1,0-0.3,0.1-0.4,0.1c0,0,0,0,0,0l0,0c0,0-0.1,0-0.1,0c0,0-0.1,0-0.1,0
				c0,0-0.2,0-0.2,0c0,0-0.1,0,0,0.1c0,0,0,0,0.1,0c0,0,0,0,0,0l0,0c0,0,0.1,0,0.2,0c-0.1,0-0.1,0-0.2,0c0,0-0.1,0.1-0.1,0.1
				c-0.1-0.1-0.3-0.1-0.3-0.1c-0.2,0-0.5,0-0.6,0.1c-0.1,0-0.1,0-0.1,0c0,0,0.1,0,0.1,0c-0.1,0-0.3,0-0.4,0c-0.1,0,0.1,0-0.1-0.1
				l0,0c-0.4-0.1-0.6,0.1-1.1-0.1c0,0,0,0,0,0c-0.5-0.1-1,0-1.5-0.2c-0.1,0-0.2,0-0.2,0l0-0.1l-0.2,0c-0.2,0-0.3-0.2-0.6-0.1l0,0
				c-0.1,0-0.3,0-0.3-0.1c0,0,0,0-0.1,0l0,0l-0.2,0c-0.2-0.1,0-0.1-0.2-0.1c-0.1,0-0.3,0-0.3,0c0,0,0.1,0,0.1,0.1l-0.1,0
				c0,0.1-0.1,0.1,0.1,0.2l0.2,0l0,0l-0.1,0c0.1,0,0.1,0,0.2,0c0,0,0,0,0.1,0.1l0.2,0c0,0-0.1,0,0,0.1c0.1,0-0.1-0.1,0.1-0.1
				c0.1,0,0,0.1,0.1,0.1c0,0,0,0,0,0c0.1,0,0.2,0,0.2,0c0.1,0.1,0.3,0,0.2,0.1c0,0,0.1,0,0.2,0c-0.1,0.1,0.3,0,0.2,0.1
				c0.1-0.1,0.3,0,0.5,0c0,0,0,0,0,0c0.1,0,0.1,0,0.2,0.1c0-0.1,0.2-0.1,0.2-0.1c0.1,0.1-0.1,0.1,0,0.1c0-0.1,0.2,0,0.2-0.1
				c0.1,0,0.1,0,0.1,0.1c0-0.1,0.1,0,0.2,0C561,560.6,560.9,560.6,560.9,560.6C561.1,560.6,560.9,560.6,560.9,560.6z M564.3,560.7
				L564.3,560.7C564.2,560.7,564.2,560.7,564.3,560.7C564.2,560.7,564.2,560.7,564.3,560.7z M564.5,560.7c0,0-0.1,0-0.1,0
				C564.4,560.7,564.4,560.7,564.5,560.7C564.4,560.7,564.5,560.7,564.5,560.7z M564,560.4C564,560.4,564,560.4,564,560.4
				C564,560.4,564,560.4,564,560.4C563.9,560.4,563.9,560.4,564,560.4C564,560.4,564,560.4,564,560.4z"/>
			<path fill="#464547" d="M563.9,560.4C563.9,560.4,563.9,560.4,563.9,560.4C563.9,560.5,563.9,560.5,563.9,560.4
				C563.9,560.5,563.9,560.5,563.9,560.4C563.9,560.4,563.9,560.4,563.9,560.4z"/>
			<path fill="#464547" d="M587.8,555L587.8,555C587.8,555,587.8,555,587.8,555C587.8,555,587.8,555,587.8,555z"/>
			<polygon fill="#464547" points="568.4,560.9 568.4,560.9 568.3,560.9 			"/>
			<path fill="#464547" d="M589.2,554.3C589.2,554.3,589.2,554.3,589.2,554.3C589.2,554.3,589.2,554.3,589.2,554.3z"/>
			<path fill="#464547" d="M589.7,553.9L589.7,553.9C589.8,553.9,589.7,553.9,589.7,553.9z"/>
			<path fill="#464547" d="M590.1,553.6C590.1,553.6,590.1,553.6,590.1,553.6L590.1,553.6L590.1,553.6z"/>
			<path fill="#464547" d="M583.3,557.9C583.3,557.9,583.3,557.9,583.3,557.9C583.2,558,583.3,558,583.3,557.9z"/>
			<path fill="#464547" d="M585.4,556.7C585.4,556.7,585.3,556.7,585.4,556.7C585.4,556.7,585.4,556.7,585.4,556.7z"/>
			<polygon fill="#464547" points="580.9,559.1 580.9,559.1 580.8,559.1 			"/>
			<path fill="#464547" d="M585.2,556.8C585.3,556.8,585.3,556.8,585.2,556.8C585.3,556.8,585.2,556.8,585.2,556.8z"/>
			<polygon fill="#464547" points="591.9,552.3 591.9,552.3 591.9,552.3 			"/>
			<path fill="#464547" d="M591.9,552.3L591.9,552.3C591.9,552.2,591.9,552.3,591.9,552.3z"/>
			<path fill="#464547" d="M592,552.2L592,552.2C592,552.2,592,552.2,592,552.2z"/>
			<path fill="#464547" d="M591.4,552.7L591.4,552.7C591.4,552.7,591.4,552.7,591.4,552.7z"/>
			<path fill="#464547" d="M591.2,552.8c0,0,0.1,0,0.2-0.1l0,0C591.4,552.7,591.2,552.8,591.2,552.8z"/>
			<path fill="#464547" d="M590.4,553.2l0.1-0.1c0,0-0.1,0,0,0C590.3,553.1,590.6,553,590.4,553.2z"/>
			<path fill="#464547" d="M590,553.4C590,553.4,589.9,553.4,590,553.4C589.9,553.5,589.9,553.5,590,553.4z"/>
			<path fill="#464547" d="M586.8,555.6L586.8,555.6C586.7,555.6,586.8,555.6,586.8,555.6z"/>
			<polygon fill="#464547" points="586.3,556.2 586.4,556.2 586.4,556.1 			"/>
			<polygon fill="#464547" points="585.8,556.2 585.8,556.2 585.7,556.2 			"/>
			<path fill="#464547" d="M580,559L580,559C580.1,559,580.1,558.9,580,559z"/>
			<path fill="#464547" d="M577.4,559.8c0,0-0.1,0-0.2,0C577.3,559.8,577.3,559.8,577.4,559.8z"/>
			<polygon fill="#464547" points="569.1,560.5 569.2,560.5 569.1,560.5 			"/>
		</g>
		<g>
			<path fill="#464547" d="M593.2,556.2C593.2,556.1,593.1,556.1,593.2,556.2L593.2,556.2L593.2,556.2z"/>
			<path fill="#464547" d="M593,556.5c0,0.1,0,0.1,0.1,0.1C593,556.5,593.1,556.5,593,556.5c0.1-0.1,0.1-0.1,0.1-0.1
				c0,0,0-0.1,0-0.1C593,556.3,593,556.4,593,556.5C593,556.5,593,556.5,593,556.5z"/>
			<path fill="#464547" d="M589.3,559.6L589.3,559.6C589.3,559.6,589.3,559.6,589.3,559.6z"/>
			<path fill="#464547" d="M586.5,560.8C586.5,560.8,586.5,560.8,586.5,560.8C586.5,560.8,586.5,560.8,586.5,560.8z"/>
			<path fill="#464547" d="M586,561C586,561,586,560.9,586,561C586,560.9,586,560.9,586,561z"/>
			<path fill="#464547" d="M589.3,559.6L589.3,559.6C589.2,559.6,589.2,559.6,589.3,559.6z"/>
			<path fill="#464547" d="M592.8,557.1C592.8,557.1,592.8,557.1,592.8,557.1C592.8,557.1,592.8,557.1,592.8,557.1L592.8,557.1z"/>
			<path fill="#464547" d="M590.4,558.9L590.4,558.9C590.5,558.9,590.5,558.9,590.4,558.9L590.4,558.9z"/>
			<path fill="#464547" d="M591.3,558.3C591.3,558.3,591.3,558.4,591.3,558.3C591.3,558.4,591.3,558.3,591.3,558.3
				C591.3,558.3,591.3,558.3,591.3,558.3z"/>
			<path fill="#464547" d="M592.5,557.2L592.5,557.2C592.5,557.2,592.5,557.2,592.5,557.2z"/>
			<path fill="#464547" d="M589.8,559.3C589.8,559.3,589.8,559.3,589.8,559.3C589.8,559.3,589.8,559.3,589.8,559.3z"/>
			<path fill="#464547" d="M561.6,564.8C561.6,564.8,561.6,564.8,561.6,564.8C561.6,564.8,561.6,564.8,561.6,564.8z"/>
			<path fill="#464547" d="M560.4,564.4L560.4,564.4C560.4,564.4,560.4,564.4,560.4,564.4L560.4,564.4z"/>
			<path fill="#464547" d="M585,561.2L585,561.2C585.1,561.2,585,561.2,585,561.2z"/>
			<path fill="#464547" d="M576.6,563.7C576.7,563.7,576.5,563.8,576.6,563.7C576.6,563.8,576.7,563.7,576.6,563.7z"/>
			<path fill="#464547" d="M592.8,557.2L592.8,557.2C592.7,557.2,592.8,557.2,592.8,557.2z"/>
			<path fill="#464547" d="M576.6,563.8L576.6,563.8L576.6,563.8C576.6,563.8,576.6,563.8,576.6,563.8z"/>
			<path fill="#464547" d="M583,562C583,562,583,562,583,562C583,562,583,562,583,562z"/>
			<path fill="#464547" d="M584.5,561.5L584.5,561.5C584.5,561.5,584.5,561.5,584.5,561.5z"/>
			<path fill="#464547" d="M582.2,562.3C582.2,562.3,582.1,562.3,582.2,562.3C582.1,562.4,582.1,562.4,582.2,562.3
				C582.1,562.3,582.1,562.3,582.2,562.3z"/>
			<path fill="#464547" d="M581.3,562.6C581.3,562.6,581.3,562.6,581.3,562.6C581.4,562.6,581.4,562.6,581.3,562.6L581.3,562.6z"/>
			<path fill="#464547" d="M564.3,565C564.3,564.9,564.3,564.9,564.3,565C564.3,564.9,564.1,565,564.3,565z"/>
			<path fill="#464547" d="M592.8,557.1C592.8,557.1,592.8,557.1,592.8,557.1C592.8,557.1,592.8,557.1,592.8,557.1
				C592.8,557.1,592.8,557.1,592.8,557.1z"/>
			<path fill="#464547" d="M582.2,562.7l-0.1,0C582.1,562.7,582.2,562.7,582.2,562.7z"/>
			<path fill="#464547" d="M570.7,564.9L570.7,564.9C570.7,564.9,570.7,564.9,570.7,564.9z"/>
			<path fill="#464547" d="M581.7,562.9C581.7,562.8,581.7,562.8,581.7,562.9C581.6,562.9,581.6,562.9,581.7,562.9L581.7,562.9z"/>
			<path fill="#464547" d="M564.2,564.9L564.2,564.9L564.2,564.9z"/>
			<path fill="#464547" d="M563.3,565C563.4,565,563.4,564.9,563.3,565c0.3-0.1,0.2,0,0.2,0c0.1,0,0.2-0.1,0.3-0.1c0,0,0,0,0,0
				c0.1,0,0.3,0,0.4,0c0,0,0,0,0,0c0,0,0-0.1,0-0.1c0.1,0,0.1,0,0.1,0c0,0,0,0-0.1,0l0.1,0c0.1,0.1-0.1,0-0.1,0.1
				c0.1,0,0.3-0.1,0.4,0c0,0.1-0.2,0-0.1,0.1l-0.1,0c0.1,0.1-0.1,0,0,0.1c0.2,0,0.2,0,0.4,0c0,0,0,0,0-0.1c0.3,0,0.2,0.2,0.4,0.1
				c0.1,0,0.1-0.1,0.2-0.1l-0.1,0.1c0.2,0,0.1-0.1,0.3,0c0,0-0.1,0-0.1,0c0.1,0.1,0.1,0,0.2,0l0,0.1c0.2,0,0.4,0,0.6,0
				c0,0-0.1,0,0,0.1c0.3,0,0.6,0,0.9,0l0.1,0c0,0,0,0,0,0c0.1,0,0,0,0.1,0c0.1,0,0.1,0,0,0c0.2,0,0.5-0.1,0.7,0l0,0
				c0.2,0,0.2-0.1,0.3-0.1l0,0c0.3,0,0.7-0.1,0.9,0c0-0.1,0.3,0,0.3-0.1c0.2,0,0.1,0.1,0.4,0.1c0.1,0,0.1-0.1,0.2-0.1l0,0l0.1-0.1
				l0.1,0.1l0.1,0c0,0-0.1,0-0.1,0c0.1,0,0.3,0,0.3,0l0.3-0.1c0,0-0.1,0-0.1,0c0.2-0.1,0,0.1,0.2,0c0,0,0,0,0,0c0.1,0,0.2,0,0.4,0
				l0,0c0.2,0,0.5-0.1,0.7-0.1c-0.1,0-0.1-0.1,0-0.1l0,0c0,0-0.1,0,0-0.1c0.1,0,0.1,0.1,0,0.1l0.1,0c0,0,0,0,0,0c0,0,0.2,0,0.3,0
				l0,0c0.3,0,0.4-0.1,0.6-0.1c0,0,0.1,0,0.1-0.1c0.2,0,0.3,0,0.5,0c0.1,0,0,0,0.1-0.1c0,0,0.2,0,0.1,0.1c0.2,0,0.3,0,0.5-0.1
				c0,0-0.1,0-0.1,0c0,0,0.1,0,0.1,0l0,0c0.3-0.1,0.7,0,1-0.1l0,0l0.2-0.1c0.1,0-0.1,0,0,0.1c0.3-0.1,0.4-0.1,0.6-0.2
				c0.2,0.1,0.6-0.1,0.9-0.1l0,0c0.1,0,0.1,0,0.1,0c0,0-0.1,0,0,0c0.5-0.1,1.1-0.2,1.6-0.3c0.2,0,0.1-0.2,0.3-0.2l-0.1,0.1
				c0.4-0.2,0.8-0.2,1.1-0.4c0,0,0,0-0.1,0c0.1,0,0.3-0.1,0.3-0.1c0.1,0,0,0,0.1,0c0.1,0,0.2-0.1,0.2-0.1c0,0,0,0,0,0
				c0,0,0.2-0.1,0.2-0.1c0.1,0,0.3-0.1,0.4-0.1c0.1-0.1,0.2,0,0.2-0.1c0,0.1,0.3,0,0.3-0.1c0,0,0.1,0,0.1,0c0.1,0,0.2-0.1,0.2-0.1
				c0.2,0,0.3-0.2,0.5-0.1c0.3-0.1,0.5-0.3,0.8-0.4c0,0.1-0.3,0.1-0.3,0.2c0.2-0.1,0.4-0.2,0.6-0.3c0.1,0,0,0,0,0.1
				c0.2-0.1,0.5-0.2,0.7-0.3c0,0,0,0,0,0c0,0,0.1,0,0.1-0.1l0,0c-0.1,0,0.1-0.2,0.1-0.2c0,0.1,0.2-0.1,0.2,0.1c0,0,0.1,0,0-0.1
				c0,0,0.1,0,0,0c0.1-0.1,0.1-0.1,0.2-0.1c0,0,0,0,0,0.1c0.1-0.1,0.1-0.1,0.2-0.1c0,0,0,0,0,0c0.2-0.1,0.3-0.2,0.5-0.3
				c0,0.1,0.1,0,0.1,0l0.1-0.1l-0.1,0c0.1,0,0.2-0.1,0.3-0.1l-0.1,0.1l0.2-0.1l-0.1,0c0.1-0.1,0-0.1,0.1-0.1c0,0,0.1,0,0.2,0l0,0
				c0,0,0.1-0.1,0.2-0.1c0,0,0,0.1,0,0.1c0-0.1,0.2-0.1,0.3-0.2c0,0,0,0.1,0,0.1l0-0.1c0.1,0,0.1,0,0.1,0c0.1-0.1-0.1-0.1,0.1-0.1
				c0,0,0,0,0,0c0.2-0.1,0.3-0.2,0.5-0.2c0.1,0-0.1,0.1-0.1,0.1c0.2-0.1,0.4-0.3,0.7-0.4l0,0c0-0.1,0.2,0,0.3-0.1c0,0,0,0.1,0,0
				c0.2-0.1,0.3-0.2,0.5-0.3l0,0c0.1,0,0.2-0.1,0.3-0.1c0,0,0.1-0.1,0-0.1c0.3,0,0.5-0.4,0.8-0.4c0,0-0.1,0.1,0,0
				c0.1,0,0.1-0.1,0.2-0.1c0,0,0,0-0.1,0c0,0,0.1-0.1,0.1-0.1c-0.1,0.1,0,0.1,0.1,0c0,0,0,0,0,0c0.1,0,0-0.1,0.1-0.1l0,0
				c0,0,0.1-0.1,0.1-0.1c0,0,0,0.1,0,0.1c0.1-0.1,0.1-0.2,0.2-0.2c0,0-0.1,0.1-0.1,0.1c0.1,0,0.1,0,0.2-0.1l0,0l0.1-0.1l0,0
				c0-0.2,0.2-0.2,0.3-0.3c-0.1,0.2,0,0,0,0.1c0,0,0.1,0,0.1,0c0-0.1,0.1-0.1,0.2-0.2c0,0,0.1-0.1,0.1,0c0.1-0.1,0,0,0,0
				c0.1-0.1,0.3-0.2,0.4-0.4c0.1-0.2,0.1-0.2,0.2-0.4c0.1,0,0,0.1,0,0.1c0.1-0.1,0.1-0.1,0.2-0.2c0,0,0,0,0.1,0c0-0.1,0-0.1,0.1-0.1
				c0,0,0,0.1,0,0.1c0-0.1,0.1-0.2,0.1-0.3c0,0,0,0.1,0,0.1c0-0.1,0.1-0.3,0.1-0.3l0,0.1c0,0,0,0,0,0c0,0.1-0.1,0.1-0.1,0.1l0-0.1
				c-0.1,0-0.1,0.2-0.2,0.3c0,0,0-0.1,0-0.1c0,0,0,0.1,0,0.1c0,0-0.1,0,0-0.1c-0.1,0.1,0,0.1-0.1,0.1c0,0,0,0,0,0c0,0,0,0.1,0,0.1
				c0,0,0,0,0-0.1c-0.1,0.1-0.1,0.2-0.2,0.2l0,0c-0.1,0.2,0,0,0,0.2c-0.1,0-0.1,0-0.2,0l0,0.1c0,0-0.1,0-0.1,0c0,0.1,0,0,0,0.1
				c-0.1,0-0.2,0.2-0.3,0.2c0,0.1,0.1-0.1,0,0c-0.1,0-0.1,0.1-0.2,0.1c0-0.1,0.1-0.1,0-0.1c0,0.1-0.2,0.1-0.2,0.2
				c0,0-0.1,0.1-0.2,0.2c0,0-0.2,0.1-0.4,0.2l0,0c0,0.1-0.1,0.1-0.2,0.2c0,0,0-0.1,0-0.1l-0.1,0.1c0,0,0,0.1-0.1,0.1l0-0.1
				c-0.1,0.1-0.2,0.2-0.3,0.2c0,0,0.2,0,0,0.1c0,0,0,0,0-0.1c0,0,0,0-0.1,0l0-0.1c-0.1,0,0,0-0.1,0.1c0,0,0,0-0.1,0c0,0,0.1,0,0.1,0
				c-0.1,0-0.1,0.1-0.2,0c0,0,0,0,0,0.1c-0.1,0.1-0.1,0-0.1,0c0,0-0.1,0.1-0.1,0.1c0,0,0,0-0.1,0c0,0-0.3,0.1-0.2,0.2l0,0
				c0,0,0,0,0,0l0,0l0,0c-0.2,0.1-0.4,0.2-0.6,0.3l0,0c-0.1,0.1-0.3,0.1-0.3,0.2c0,0-0.1,0-0.1,0c-0.1,0.1-0.1,0.1-0.2,0.1
				c0.1-0.1,0,0,0.1-0.1c-0.1,0-0.2,0-0.3,0.1c0-0.1-0.1,0-0.2,0l0.1,0c-0.1,0-0.1,0.1-0.2,0.1l0-0.1c-0.3,0-0.4,0.3-0.6,0.3
				c0,0.1,0.1,0,0.1,0c-0.1,0-0.3,0-0.3,0c-0.2,0-0.1,0.1-0.3,0.2c0,0,0.1,0,0,0.1c-0.1,0-0.2,0-0.1-0.1c0,0,0,0,0,0c0,0,0.1,0,0,0
				l0,0c-0.1,0-0.2,0.1-0.2,0c-0.1,0.1,0,0,0,0c-0.2,0-0.2,0.1-0.4,0.1c0,0,0.1,0,0,0c-0.2,0.1-0.1,0.1-0.2,0.1c-0.1,0,0-0.1-0.1,0
				c-0.1,0,0,0,0-0.1c-0.1,0.1-0.3,0.1-0.3,0.1l0.1,0c0,0-0.1,0-0.1,0.1l0.1,0c0,0-0.1,0-0.1,0c0,0,0.1,0,0,0.1
				c-0.1,0-0.2,0.1-0.2,0c0.2,0,0,0,0.1-0.1c0,0-0.1,0-0.1,0c0,0,0,0,0,0c-0.2,0-0.1,0.1-0.2,0.1c0,0-0.1,0-0.1,0c0.1,0,0.1,0,0,0.1
				c-0.1,0-0.1,0.1-0.2,0.1l0.1,0c0,0-0.1,0.1-0.1,0.1c0,0,0.1,0,0,0c-0.1,0.1-0.2,0-0.3,0.1c-0.1,0,0,0-0.1,0
				c-0.1,0.1-0.2,0-0.3,0.1c0.1,0,0.1,0,0,0.1l0.2-0.1l-0.1,0.1c0.1,0,0.1-0.1,0.2-0.1c-0.1,0.1-0.1,0,0,0.1c-0.1,0-0.2,0.1-0.3,0.1
				l0-0.1c-0.2,0-0.3,0.1-0.5,0.2l0.1,0c0,0-0.1,0.1-0.2,0.1c0,0-0.1,0-0.1,0c0,0-0.2,0.1-0.2,0.1l-0.1,0c-0.2,0-0.2,0.2-0.3,0.2
				c0-0.1,0,0,0.1-0.1c-0.1,0-0.1,0-0.1,0.1c0,0-0.1,0.1-0.2,0.1c0,0,0,0.1-0.1,0.1c0,0,0,0,0,0c0,0-0.1,0.1,0,0.1
				c-0.2,0-0.5,0.2-0.7,0.1c-0.1,0-0.3,0.1-0.4,0.1c0,0,0,0,0,0c-0.2,0-0.1,0.1-0.3,0.1c-0.1,0,0.1-0.1,0-0.1
				c-0.1-0.1-0.2,0.1-0.4,0l0,0c-0.1,0-0.2,0.1-0.4,0.1c0,0,0,0,0,0c-0.1,0.1-0.3,0.1-0.4,0.2c0-0.1,0.1,0,0-0.1
				c-0.1,0,0,0.1-0.1,0.1c0,0-0.1,0-0.2,0l0.1,0c-0.1,0-0.2,0-0.2,0.1l0,0c-0.2,0.1-0.2,0.1-0.4,0.2l0,0c-0.1,0.1-0.1,0-0.2,0.1
				l0-0.1c-0.1,0-0.2,0.1-0.4,0.2c0.1-0.1,0.2-0.1,0.3-0.2c-0.1,0-0.2,0.1-0.3,0.1c0,0,0.1,0,0.1,0c-0.1,0.1-0.2,0.1-0.3,0.2
				c0-0.1-0.4,0.1-0.5,0c-0.2,0.1-0.5,0.1-0.8,0.2c0.1,0.1-0.1,0,0,0.1c-0.1,0-0.1,0-0.1,0l-0.2,0c-0.1,0,0.1,0,0.1-0.1
				c-0.2,0-0.1,0-0.2,0c0,0,0,0.1-0.1,0.1l0.1,0c-0.2,0.1-0.2,0-0.4,0l0.1,0c-0.1,0-0.4,0.1-0.5,0.2c0,0-0.1,0,0,0
				c-0.3,0-0.6,0.2-0.8,0.2l0,0c0,0-0.1,0.1-0.1,0c0,0,0,0,0,0c0,0-0.1,0.1-0.2,0.1l0.1,0c-0.3,0-0.4,0.1-0.6,0.2
				c0-0.1-0.2-0.1-0.3-0.1l0,0c-0.3,0-0.5,0.1-0.8,0.2c-0.2-0.1-0.6,0-0.9,0c0,0,0,0.1-0.1,0.1c-0.1,0-0.2,0.1-0.2,0l0,0
				c-0.1-0.1-0.2,0-0.3,0l0,0.1c-0.3-0.1-0.7,0.1-0.9,0c-0.1,0-0.1,0-0.2,0.1l0,0c-0.2,0-0.3,0-0.5,0l0,0c-0.1,0-0.2,0.1-0.3,0.1
				l0-0.1c-0.2,0-0.5,0-0.7,0c0,0,0,0,0,0c-0.1,0-0.4,0-0.4,0.1c0-0.1-0.2,0-0.4,0l0,0c-0.1,0.1-0.1,0.1-0.2,0.1c0,0,0,0,0,0
				c-0.1,0-0.1,0-0.2,0l0.1,0c-0.1,0-0.1,0-0.2,0c-0.1,0-0.2,0-0.2,0c0,0-0.1,0.1-0.1,0c0,0,0,0,0,0c-0.2,0-0.3,0.1-0.4,0
				c0,0,0,0,0,0c0.2,0,0.3,0,0.3,0c0,0-0.1,0,0-0.1c-0.1,0-0.3,0.1-0.4,0.1c0,0,0,0,0,0l0,0c0,0-0.1,0-0.1,0c0,0-0.1,0-0.1,0
				c0,0-0.1,0-0.2,0c0,0-0.1,0,0,0.1c0,0,0,0,0.1,0c0,0,0,0,0,0l0,0c0,0,0.1,0,0.2,0c0,0-0.1,0-0.2,0c0,0-0.1,0.1-0.1,0.1
				c-0.1-0.1-0.3-0.1-0.3-0.1c-0.2,0-0.5,0-0.6,0.1c-0.1,0-0.1,0-0.1,0c0,0,0.1,0,0.1,0c-0.1,0-0.3,0-0.4,0.1
				c-0.1,0,0.1-0.1-0.1-0.1l0,0c-0.4-0.1-0.6,0.1-1,0c0,0,0,0,0,0c-0.5-0.1-1,0-1.4-0.1c-0.1,0-0.1,0-0.2,0l0-0.1l-0.1,0
				c-0.2,0-0.3-0.2-0.6-0.1l0,0c-0.1,0-0.3,0-0.3,0c0,0,0,0-0.1,0l0,0l-0.2,0c-0.2,0,0-0.1-0.2-0.1c-0.1,0-0.3,0-0.2,0.1
				c0,0,0.1,0,0.1,0.1l-0.1,0c0,0.1-0.1,0.1,0.1,0.2l0.1,0l0,0l-0.1,0c0.1,0,0.1,0,0.2,0c0,0,0,0,0.1,0l0.1-0.1c0,0-0.1,0.1,0,0.1
				c0.1,0-0.1-0.1,0.1-0.1c0.1,0,0,0.1,0.1,0c0,0,0,0,0,0c0.1,0,0.2,0,0.2,0c0.1,0.1,0.2,0,0.2,0.1c0,0,0.1,0,0.2,0
				c-0.1,0.1,0.2,0,0.2,0.1c0.1-0.1,0.3,0,0.5,0c0,0,0,0,0,0c0.1,0,0.1,0,0.2,0.1c0-0.1,0.2-0.1,0.2-0.1c0.1,0.1-0.1,0.1,0,0.1
				c0-0.1,0.2,0,0.2-0.1c0.1,0,0.1,0,0.1,0.1c0-0.1,0.1,0,0.2-0.1C563.3,564.9,563.2,564.9,563.3,565C563.4,565,563.3,565,563.3,565
				z M566.5,565L566.5,565C566.4,565,566.4,565,566.5,565C566.4,565,566.4,565,566.5,565z M566.7,565c0,0-0.1,0-0.1,0
				C566.6,564.9,566.6,564.9,566.7,565C566.6,564.9,566.7,564.9,566.7,565z M566.2,564.6C566.2,564.6,566.2,564.6,566.2,564.6
				C566.2,564.6,566.2,564.6,566.2,564.6C566.2,564.6,566.2,564.7,566.2,564.6C566.2,564.6,566.2,564.6,566.2,564.6z"/>
			<path fill="#464547" d="M566.1,564.7C566.1,564.7,566.1,564.7,566.1,564.7C566.1,564.7,566.1,564.7,566.1,564.7L566.1,564.7
				C566.1,564.7,566.1,564.7,566.1,564.7z"/>
			<polygon fill="#464547" points="589.3,559.6 589.3,559.6 589.3,559.6 			"/>
			<polygon fill="#464547" points="570.4,564.9 570.4,564.9 570.4,564.9 			"/>
			<path fill="#464547" d="M590.7,559C590.7,559,590.7,559,590.7,559C590.7,559,590.7,559,590.7,559z"/>
			<path fill="#464547" d="M591.2,558.6L591.2,558.6C591.2,558.6,591.2,558.6,591.2,558.6z"/>
			<path fill="#464547" d="M591.6,558.4C591.6,558.4,591.6,558.4,591.6,558.4L591.6,558.4L591.6,558.4z"/>
			<path fill="#464547" d="M584.7,561.8C584.7,561.8,584.7,561.8,584.7,561.8C584.6,561.8,584.6,561.8,584.7,561.8z"/>
			<path fill="#464547" d="M586.8,560.9C586.8,560.9,586.7,560.9,586.8,560.9C586.8,560.9,586.8,560.9,586.8,560.9z"/>
			<polygon fill="#464547" points="582.3,562.7 582.3,562.7 582.2,562.7 			"/>
			<path fill="#464547" d="M586.6,561C586.7,561,586.7,560.9,586.6,561C586.7,560.9,586.7,560.9,586.6,561z"/>
			<polygon fill="#464547" points="593,556.7 593,556.7 593,556.7 			"/>
			<path fill="#464547" d="M593,556.7L593,556.7C593,556.7,593,556.7,593,556.7z"/>
			<path fill="#464547" d="M593,556.6C593,556.7,593,556.7,593,556.6C593,556.7,593,556.7,593,556.6z"/>
			<path fill="#464547" d="M592.6,557.3L592.6,557.3C592.6,557.3,592.6,557.3,592.6,557.3z"/>
			<path fill="#464547" d="M592.5,557.5c0,0,0.1-0.1,0.1-0.1l0,0C592.7,557.4,592.5,557.4,592.5,557.5z"/>
			<path fill="#464547" d="M591.8,557.9c0,0,0.1-0.1,0.1-0.1c0,0-0.1,0,0,0C591.7,557.9,592,557.8,591.8,557.9z"/>
			<path fill="#464547" d="M591.4,558.2C591.5,558.2,591.4,558.2,591.4,558.2C591.4,558.2,591.4,558.3,591.4,558.2z"/>
			<path fill="#464547" d="M588.3,560.1L588.3,560.1C588.2,560,588.3,560,588.3,560.1z"/>
			<polygon fill="#464547" points="587.7,560.5 587.8,560.5 587.8,560.5 			"/>
			<polygon fill="#464547" points="587.2,560.4 587.3,560.4 587.2,560.5 			"/>
			<path fill="#464547" d="M581.5,562.5L581.5,562.5C581.5,562.5,581.5,562.5,581.5,562.5z"/>
			<path fill="#464547" d="M578.9,563.3c0,0-0.1,0-0.1,0C578.8,563.3,578.9,563.3,578.9,563.3z"/>
			<polygon fill="#464547" points="571.1,564.4 571.1,564.4 571,564.4 			"/>
		</g>
		<g>
			<path fill="#464547" d="M580.8,566.7C580.8,566.7,580.8,566.6,580.8,566.7L580.8,566.7L580.8,566.7z"/>
			<path fill="#464547" d="M580.7,566.6c0,0,0,0.1,0,0.1C580.7,566.7,580.7,566.7,580.7,566.6C580.7,566.6,580.7,566.6,580.7,566.6
				C580.7,566.7,580.7,566.7,580.7,566.6C580.7,566.6,580.7,566.6,580.7,566.6C580.7,566.6,580.7,566.6,580.7,566.6z"/>
			<path fill="#464547" d="M579,567L579,567C579,567,579,567,579,567z"/>
			<path fill="#464547" d="M578,567.2C578,567.2,578,567.2,578,567.2C578,567.2,578,567.2,578,567.2z"/>
			<path fill="#464547" d="M577.8,567.2C577.8,567.2,577.8,567.2,577.8,567.2C577.8,567.2,577.8,567.2,577.8,567.2z"/>
			<path fill="#464547" d="M579,567L579,567C579,567,579,567,579,567z"/>
			<path fill="#464547" d="M580.5,566.8C580.5,566.8,580.5,566.8,580.5,566.8C580.5,566.8,580.5,566.8,580.5,566.8L580.5,566.8z"/>
			<path fill="#464547" d="M579.4,566.8L579.4,566.8C579.5,566.8,579.5,566.8,579.4,566.8L579.4,566.8z"/>
			<path fill="#464547" d="M579.8,566.7C579.8,566.7,579.8,566.8,579.8,566.7C579.8,566.8,579.8,566.8,579.8,566.7
				C579.8,566.8,579.8,566.8,579.8,566.7z"/>
			<path fill="#464547" d="M580.3,566.7L580.3,566.7C580.3,566.7,580.3,566.7,580.3,566.7z"/>
			<path fill="#464547" d="M579.2,566.9C579.2,566.9,579.2,566.9,579.2,566.9C579.2,566.9,579.2,566.9,579.2,566.9z"/>
			<path fill="#464547" d="M569.5,568.3C569.5,568.3,569.5,568.3,569.5,568.3C569.5,568.3,569.5,568.3,569.5,568.3z"/>
			<polygon fill="#464547" points="569.1,568 569.1,568 569.1,568 			"/>
			<path fill="#464547" d="M577.5,567.2L577.5,567.2C577.5,567.2,577.5,567.2,577.5,567.2z"/>
			<path fill="#464547" d="M574.6,567.7C574.6,567.8,574.5,567.8,574.6,567.7C574.6,567.8,574.6,567.8,574.6,567.7z"/>
			<path fill="#464547" d="M580.5,566.8C580.5,566.8,580.5,566.8,580.5,566.8C580.5,566.8,580.5,566.8,580.5,566.8z"/>
			<polygon fill="#464547" points="574.6,567.8 574.6,567.8 574.6,567.8 			"/>
			<path fill="#464547" d="M576.8,567.4C576.8,567.4,576.8,567.4,576.8,567.4C576.8,567.4,576.8,567.4,576.8,567.4z"/>
			<path fill="#464547" d="M577.3,567.4L577.3,567.4C577.3,567.4,577.3,567.4,577.3,567.4z"/>
			<path fill="#464547" d="M576.5,567.5C576.5,567.5,576.5,567.5,576.5,567.5C576.5,567.5,576.5,567.5,576.5,567.5
				C576.5,567.5,576.5,567.5,576.5,567.5z"/>
			<polygon fill="#464547" points="576.2,567.6 576.2,567.6 576.2,567.6 			"/>
			<path fill="#464547" d="M570.4,568.3C570.4,568.3,570.4,568.3,570.4,568.3C570.4,568.3,570.3,568.3,570.4,568.3z"/>
			<path fill="#464547" d="M580.5,566.8C580.5,566.8,580.5,566.8,580.5,566.8L580.5,566.8C580.5,566.8,580.5,566.8,580.5,566.8z"/>
			<path fill="#464547" d="M576.5,567.9L576.5,567.9C576.5,567.9,576.5,567.9,576.5,567.9z"/>
			<path fill="#464547" d="M572.6,568.3L572.6,568.3C572.6,568.3,572.6,568.3,572.6,568.3z"/>
			<path fill="#464547" d="M576.4,567.9C576.3,567.9,576.3,567.9,576.4,567.9C576.3,567.9,576.3,567.9,576.4,567.9L576.4,567.9z"/>
			<path fill="#464547" d="M570.4,568.3L570.4,568.3L570.4,568.3z"/>
			<path fill="#464547" d="M570.1,568.4C570.1,568.4,570.1,568.3,570.1,568.4C570.1,568.2,570.1,568.3,570.1,568.4
				c0.1,0,0.1-0.1,0.2-0.1c0,0,0,0,0,0c0,0,0.1,0,0.2-0.1c0,0,0,0,0,0c0,0,0-0.1,0-0.1c0,0,0,0,0,0c0,0,0,0,0,0l0,0c0,0.1,0,0,0,0.1
				c0,0,0.1-0.1,0.1,0c0,0.1-0.1,0,0,0.1l0,0c0,0.1,0,0,0,0.1c0.1,0,0.1,0,0.1,0c0,0,0,0,0-0.1c0.1-0.1,0.1,0.1,0.1,0.1
				c0,0,0-0.1,0.1-0.1l0,0.1c0.1,0,0-0.1,0.1,0c0,0-0.1,0,0,0c0,0,0,0,0.1,0l0,0.1c0.1,0,0.1,0,0.2-0.1c0,0,0,0,0,0.1
				c0.1,0,0.2,0,0.3,0l0,0c0,0,0,0,0,0c0,0,0,0,0,0c0,0,0,0,0,0c0.1,0,0.2-0.1,0.2,0l0,0c0.1,0,0.1-0.1,0.1-0.1l0,0
				c0.1,0,0.2,0,0.3,0c0-0.1,0.1,0,0.1-0.1c0.1,0,0,0.1,0.1,0.1c0,0,0-0.1,0.1-0.1l0,0l0-0.1l0,0.1l0,0c0,0,0,0,0,0
				c0,0,0.1,0,0.1,0.1l0.1,0c0,0,0,0,0,0c0.1-0.1,0,0.1,0.1,0c0,0,0,0,0,0c0,0,0.1,0,0.1,0l0,0c0.1,0,0.2,0,0.2,0c0,0,0-0.1,0-0.1
				l0,0.1c0,0,0,0,0-0.1c0,0,0,0.1,0,0.1l0,0c0,0,0,0,0,0c0,0,0.1,0,0.1,0l0,0c0.1,0,0.1,0,0.2,0c0,0,0,0,0-0.1c0.1,0,0.1,0,0.2,0
				c0,0,0,0,0-0.1c0,0,0.1,0,0,0.1c0.1,0,0.1,0,0.2-0.1c0,0,0,0,0,0c0,0,0,0,0,0l0,0c0.1-0.1,0.3,0.1,0.3,0l0,0l0.1-0.1
				c0,0,0,0,0,0.1c0.1-0.1,0.1,0,0.2-0.1c0.1,0.1,0.2,0,0.3,0l0,0c0,0,0,0,0,0c0,0,0,0,0,0c0.2-0.1,0.4,0,0.6,0c0.1,0,0-0.2,0.1-0.1
				l0,0.1c0.1-0.1,0.3,0,0.4-0.1c0,0,0,0,0,0c0,0,0.1,0,0.1,0c0,0,0,0,0,0c0,0,0.1-0.1,0.1,0c0,0,0,0,0,0c0,0,0.1,0,0.1-0.1
				c0.1,0,0.1,0,0.1,0c0-0.1,0.1,0,0.1-0.1c0,0.1,0.1,0,0.1,0c0,0,0,0,0,0.1c0,0,0.1,0,0.1-0.1c0.1,0.1,0.1-0.1,0.2,0
				c0.1-0.1,0.2-0.1,0.3-0.1c0,0.1-0.1,0-0.1,0.1c0.1,0,0.1-0.1,0.2-0.1c0,0,0,0,0,0c0.1,0,0.2,0,0.2-0.1c0,0,0,0,0,0c0,0,0,0,0,0
				l0,0c0,0,0-0.1,0-0.1c0,0.1,0.1,0,0.1,0.1c0,0,0,0,0,0c0,0,0,0,0,0c0.1,0,0-0.1,0.1-0.1c0,0,0,0,0,0c0,0,0-0.1,0.1-0.1
				c0,0,0,0,0,0c0.1,0,0.1-0.1,0.2-0.1c0,0.1,0,0,0,0.1l0,0l0,0c0,0,0.1-0.1,0.1,0l0,0l0.1,0l0,0c0,0,0-0.1,0-0.1c0,0,0,0,0.1,0l0,0
				c0,0,0,0,0.1,0c0,0,0,0.1,0,0.1c0-0.1,0.1,0,0.1-0.1c0,0,0,0,0,0.1l0,0c0,0,0,0,0,0c0.1,0,0-0.1,0-0.1c0,0,0,0,0,0
				c0.1,0,0.1-0.1,0.2,0c0,0.1,0,0,0,0.1c0.1,0,0.2-0.1,0.2-0.1l0,0c0-0.1,0.1,0,0.1,0c0,0,0,0,0,0c0.1,0,0.1,0,0.2-0.1l0,0
				c0,0,0.1,0,0.1,0c0,0,0,0,0-0.1c0.1,0.1,0.2-0.1,0.3,0c0,0,0,0,0,0l0.1,0c0,0,0,0,0,0c0,0,0,0,0-0.1c0,0,0,0.1,0,0.1c0,0,0,0,0,0
				c0.1,0.1,0-0.1,0.1,0l0,0c0,0,0,0,0.1,0c0,0,0,0,0,0.1c0,0,0-0.1,0.1-0.1c0,0,0,0,0,0c0,0,0,0,0.1,0l0,0l0.1,0l0,0
				c0-0.1,0.1,0,0.1-0.1c0,0.1,0,0,0,0.1c0,0,0,0,0,0c0,0,0.1,0,0.1,0c0,0,0,0,0,0c0,0,0,0,0,0c0-0.1,0.1,0,0.2-0.1
				c0.1,0,0.1-0.1,0.1-0.1c0,0,0,0.1,0,0.1c0,0,0.1,0,0.1,0c0,0,0,0,0,0c0,0,0-0.1,0,0c0,0,0,0,0,0.1c0,0,0-0.1,0.1-0.1
				c0,0,0,0,0,0.1c0,0,0.1-0.1,0.1-0.1l0,0c0,0,0,0,0,0c0,0,0,0-0.1,0l0,0c0-0.1-0.1,0-0.1,0l0-0.1l0,0.1c0,0,0,0,0-0.1
				c0,0,0,0-0.1,0c0,0,0,0,0,0l0,0c0,0,0,0,0,0c-0.1,0-0.1,0.1-0.1,0l0,0c-0.1,0,0,0,0,0.1l-0.1-0.1l0,0c0,0,0,0,0,0c0,0,0,0,0,0.1
				c0,0-0.1,0.1-0.1,0c0,0,0,0,0,0.1c0-0.1,0,0-0.1,0c0,0,0,0,0-0.1c0,0.1-0.1,0-0.1,0c0,0.1-0.1,0-0.1,0.1c0,0-0.1,0-0.1,0l0,0
				c0,0.1,0,0.1-0.1,0.1c0,0,0,0,0-0.1l0,0c0,0,0,0,0,0l0,0c0,0-0.1,0.1-0.1,0.1c0,0,0.1,0.1,0,0.1c0,0,0-0.1,0-0.1c0,0,0,0,0,0l0,0
				c0,0,0,0,0,0c0,0,0,0,0,0c0,0,0,0,0,0c0,0-0.1,0-0.1,0c0,0,0,0,0,0c0,0,0,0-0.1,0c0,0,0,0,0,0.1c0,0,0,0,0,0c0,0-0.1,0-0.1,0.1
				l0,0l0,0l0,0l0,0c-0.1,0.1-0.2,0-0.2,0.1l0,0c0,0-0.1,0-0.1,0.1c0,0,0,0,0,0c0,0,0,0-0.1,0c0,0,0,0,0,0c0,0-0.1,0-0.1,0
				c0,0,0,0-0.1,0l0,0c0,0,0,0-0.1,0l0-0.1c-0.1,0-0.1,0.1-0.2,0.1c0,0,0.1,0,0,0.1c0,0-0.1-0.1-0.1-0.1c-0.1,0,0,0.1-0.1,0.1
				c0,0,0,0.1,0,0.1c0,0-0.1-0.1,0-0.1c0,0,0,0,0,0c0,0,0,0,0,0l0,0c0,0-0.1,0-0.1,0c0,0,0,0,0,0c-0.1,0-0.1,0-0.1,0c0,0,0,0,0,0
				c-0.1,0,0,0-0.1,0.1c0,0,0-0.1-0.1,0c0,0,0,0,0-0.1c0,0-0.1,0-0.1,0l0,0c0,0,0,0,0,0l0,0c0,0,0,0,0,0c0,0,0,0.1,0,0.1
				c0,0-0.1,0-0.1,0c0.1,0,0,0,0-0.1c0,0,0,0,0,0c0,0,0,0,0,0c-0.1,0,0,0.1-0.1,0.1c0,0,0-0.1,0,0c0,0,0,0,0,0.1c0,0,0,0-0.1,0l0,0
				c0,0,0,0,0,0c0,0,0,0,0,0c0,0.1-0.1,0-0.1,0c0,0,0-0.1,0-0.1c0,0-0.1,0-0.1,0c0,0,0,0,0,0.1l0.1,0l0,0.1c0,0,0,0,0.1,0
				c0,0,0,0,0,0.1c0-0.1-0.1,0-0.1,0l0-0.1c-0.1,0-0.1,0.1-0.2,0.1l0,0c0,0,0,0-0.1,0c0,0,0,0,0-0.1c0,0-0.1,0-0.1,0.1l0,0
				c-0.1,0-0.1,0.1-0.1,0.1c0,0,0-0.1,0-0.1c0,0,0,0,0,0c0,0,0,0.1-0.1,0c0,0,0,0,0,0.1c0,0,0,0,0,0c0,0,0,0,0,0.1
				c-0.1-0.1-0.2,0-0.2,0c0,0-0.1,0-0.1,0c0,0,0,0,0,0c-0.1,0,0,0.1-0.1,0.1c0,0,0,0,0,0c0-0.1-0.1,0-0.1,0l0,0c0,0-0.1,0.1-0.1,0.1
				c0,0,0,0,0,0c0,0.1-0.1,0.1-0.1,0.1c0,0,0,0,0-0.1c0,0,0,0.1,0,0.1c0,0-0.1,0-0.1-0.1l0,0c0-0.1-0.1,0-0.1,0l0,0
				c-0.1,0-0.1,0.1-0.1,0.1l0,0c0,0.1,0,0-0.1,0l0-0.1c0,0-0.1,0.1-0.1,0.1c0-0.1,0.1-0.1,0.1-0.1c0,0-0.1,0-0.1,0c0,0,0,0,0,0
				c0,0.1-0.1,0.1-0.1,0.1c0-0.1-0.1,0-0.2-0.1c-0.1,0.1-0.2,0-0.3,0c0,0.1,0,0,0,0.1c0,0,0,0,0,0l-0.1-0.1c0,0,0,0,0,0
				c-0.1,0,0,0-0.1-0.1c0,0,0,0.1,0,0l0,0c-0.1,0.1-0.1-0.1-0.1,0l0,0c0,0-0.1,0-0.2,0.1c0,0,0,0,0,0c-0.1,0-0.2,0.1-0.3,0.1l0,0
				c0,0,0,0,0,0c0,0,0,0,0,0c0,0,0,0-0.1,0l0,0c-0.1,0-0.1,0.1-0.2,0.1c0-0.1-0.1-0.1-0.1-0.1l0,0c-0.1,0-0.2,0.1-0.3,0.1
				c-0.1-0.1-0.2,0-0.3-0.1c0,0,0,0.1,0,0.1c0,0-0.1,0.1-0.1,0l0,0c0-0.1-0.1,0-0.1,0l0,0.1c-0.1-0.1-0.2,0.1-0.3-0.1c0,0,0,0-0.1,0
				l0,0c-0.1,0-0.1,0-0.2,0l0,0c0,0-0.1,0.1-0.1,0.1l0-0.1c-0.1,0-0.2-0.1-0.2,0c0,0,0,0,0,0c0,0-0.1,0-0.1,0c0-0.1-0.1,0-0.1,0l0,0
				c0,0.1,0,0.1-0.1,0.1c0,0,0,0,0,0c0,0,0,0-0.1,0l0,0c0,0,0,0-0.1,0c0,0-0.1,0-0.1-0.1c0,0,0,0.1-0.1,0c0,0,0,0,0,0
				c-0.1,0-0.1,0.1-0.1,0c0,0,0,0,0,0c0.1,0,0.1,0,0.1,0c0,0,0,0,0-0.1c0,0-0.1,0.1-0.1,0.1c0,0,0,0,0,0l0,0c0,0,0,0,0,0
				c0,0,0,0,0,0c0,0,0,0-0.1,0c0,0,0,0,0,0.1c0,0,0,0,0,0c0,0,0,0,0,0l0,0c0,0,0,0,0.1,0c0,0,0,0-0.1,0c0,0,0,0.1,0,0.1
				c0-0.1-0.1-0.1-0.1-0.1c-0.1,0-0.2,0-0.2,0.1c0,0,0,0,0,0c0,0,0,0,0,0c0,0-0.1,0-0.1,0.1c0,0,0-0.1,0,0l0,0
				c-0.1-0.1-0.2,0.1-0.3,0c0,0,0,0,0,0c-0.2-0.1-0.3,0-0.5-0.1c0,0-0.1,0-0.1,0l0,0l0,0.1c-0.1,0-0.1-0.1-0.2-0.1l0,0
				c0,0-0.1,0-0.1,0c0,0,0,0,0,0l0,0l-0.1,0c-0.1,0,0-0.1-0.1-0.1c0,0-0.1,0.1-0.1,0.1c0,0,0,0,0,0l0,0c0,0.1,0,0.2,0,0.2l0.1,0l0,0
				h0c0,0,0,0,0.1,0c0,0,0,0,0,0l0.1-0.1c0,0,0,0.1,0,0.1c0,0,0-0.1,0-0.1c0,0,0,0.1,0,0c0,0,0,0,0,0c0,0,0.1,0,0.1,0
				c0,0,0.1,0,0.1,0.1c0,0,0-0.1,0.1-0.1c0,0.1,0.1,0,0.1,0.1c0-0.1,0.1,0,0.2-0.1c0,0,0,0,0,0c0,0,0,0,0.1,0c0-0.1,0.1-0.1,0.1-0.1
				c0,0.1,0,0.1,0,0.1c0-0.1,0.1,0,0.1-0.1C570,568.3,570,568.3,570.1,568.4c-0.1-0.1-0.1-0.1,0-0.1
				C570.1,568.3,570,568.3,570.1,568.4C570.1,568.3,570.1,568.4,570.1,568.4z M571.1,568.2L571.1,568.2
				C571.1,568.2,571.1,568.2,571.1,568.2C571.1,568.2,571.1,568.2,571.1,568.2z M571.2,568.2C571.2,568.2,571.2,568.2,571.2,568.2
				C571.2,568.2,571.2,568.2,571.2,568.2C571.2,568.2,571.2,568.2,571.2,568.2z M571,567.9C571,567.9,571.1,567.9,571,567.9
				C571,567.9,571,567.9,571,567.9L571,567.9C571,567.9,571,567.9,571,567.9z"/>
			<polygon fill="#464547" points="571,568 571,568 571,568 571,568 			"/>
			<polygon fill="#464547" points="579,567 579,567 579,567 			"/>
			<polygon fill="#464547" points="572.5,568.3 572.5,568.3 572.5,568.3 			"/>
			<path fill="#464547" d="M579.5,567C579.6,567,579.6,567,579.5,567C579.6,567,579.6,567,579.5,567z"/>
			<path fill="#464547" d="M579.8,567L579.8,567C579.8,567,579.8,567,579.8,567z"/>
			<path fill="#464547" d="M579.9,567C579.9,567,579.9,566.9,579.9,567L579.9,567L579.9,567z"/>
			<path fill="#464547" d="M577.4,567.6C577.4,567.7,577.4,567.7,577.4,567.6C577.4,567.7,577.4,567.7,577.4,567.6z"/>
			<path fill="#464547" d="M578.1,567.4C578.1,567.4,578.1,567.4,578.1,567.4C578.1,567.4,578.1,567.4,578.1,567.4z"/>
			<polygon fill="#464547" points="576.5,567.9 576.5,567.9 576.5,567.9 			"/>
			<path fill="#464547" d="M578.1,567.4C578.1,567.4,578.1,567.4,578.1,567.4C578.1,567.4,578.1,567.4,578.1,567.4z"/>
			<polygon fill="#464547" points="580.6,566.8 580.6,566.8 580.6,566.8 			"/>
			<path fill="#464547" d="M580.6,566.8L580.6,566.8C580.6,566.8,580.6,566.8,580.6,566.8z"/>
			<path fill="#464547" d="M580.6,566.7L580.6,566.7C580.6,566.8,580.6,566.8,580.6,566.7z"/>
			<path fill="#464547" d="M580.4,566.8L580.4,566.8C580.4,566.8,580.4,566.8,580.4,566.8z"/>
			<path fill="#464547" d="M580.3,566.8C580.4,566.8,580.4,566.9,580.3,566.8L580.3,566.8C580.4,566.9,580.3,566.8,580.3,566.8z"/>
			<path fill="#464547" d="M580,566.7L580,566.7C580.1,566.7,580,566.7,580,566.7C580,566.6,580.1,566.7,580,566.7z"/>
			<path fill="#464547" d="M579.8,566.8C579.9,566.7,579.8,566.7,579.8,566.8C579.8,566.7,579.8,566.7,579.8,566.8z"/>
			<path fill="#464547" d="M578.6,567.1L578.6,567.1C578.6,567,578.6,567.1,578.6,567.1z"/>
			<polygon fill="#464547" points="578.5,567.3 578.5,567.4 578.5,567.3 			"/>
			<polygon fill="#464547" points="578.3,567.1 578.3,567.1 578.2,567.1 			"/>
			<path fill="#464547" d="M576.2,567.5L576.2,567.5C576.3,567.6,576.3,567.5,576.2,567.5z"/>
			<path fill="#464547" d="M575.4,567.7C575.4,567.7,575.3,567.7,575.4,567.7C575.3,567.7,575.4,567.7,575.4,567.7z"/>
			<polygon fill="#464547" points="572.7,567.9 572.7,567.9 572.7,567.9 			"/>
		</g>
		<path fill="#464547" d="M566.4,582.6l-12.1,0.2l0,0c0-3.2,2.5-5.8,5.7-5.9l6.3-0.1L566.4,582.6z"/>
		<path fill="#464547" d="M597.1,582.2l-13.7,0.2l0,0c0-3.2,2.5-5.8,5.7-5.9l7.9-0.1L597.1,582.2z"/>
		<path fill="#48484A" d="M587.6,544l-30.4,2c-5.7,0.4-10.6-3.9-10.9-9.6l0,0c-0.7-10.6,7.3-19.7,17.9-20.4l12.5-0.8
			c10.6-0.7,19.7,7.3,20.4,17.9l0,0C597.5,538.8,593.2,543.7,587.6,544z"/>
		<path fill="#58595B" d="M551.2,493.5l0.1-0.9c5.8,0.8,8.6,4.5,9.9,7.6c1.4,3.2,1.4,6.3,1.4,6.4l-0.9,0c0,0,0-3-1.4-6.1
			C558.6,496.5,555.5,494.1,551.2,493.5z"/>
		<circle fill="#58595B" cx="551" cy="493.2" r="1.3"/>
		<path fill="#58595B" d="M579.5,506.4c0,0,0.8-2.8,3-5.3c2.9-3.4,6.8-4.7,11.7-4l0.2-1c-6.5-1-10.5,1.8-12.7,4.3
			c-2.3,2.7-3.1,5.6-3.1,5.7L579.5,506.4z"/>
		<circle fill="#58595B" cx="594.9" cy="496.5" r="1.4"/>
		<path fill="#6B6C6F" d="M585.3,533.8c7.4,0.6,12.6-7.5,9.3-14.4c-4.1-8.5-12.2-14.6-22-15.4s-18.8,3.9-24.2,11.6
			c-4.4,6.2-0.5,15.1,6.8,15.7L585.3,533.8z"/>
		
			<ellipse transform="matrix(0.9966 8.245566e-002 -8.245566e-002 0.9966 44.146 -44.2502)" fill="#FFFFFF" cx="557.8" cy="512.4" rx="5.7" ry="5.8"/>
		
			<ellipse transform="matrix(0.9966 8.245566e-002 -8.245566e-002 0.9966 44.1727 -44.2341)" fill="#282829" cx="557.6" cy="512.7" rx="4" ry="4"/>
		<path fill="#464547" d="M564.2,518c0.4,0,0.7,0.1,1.1,0.1c0.1,0.1,0.3,0.1,0.4,0.2l0.4,0.2c0.5,0.2,1.1,0.4,1.7,0.4
			c0.6,0,1.2,0,1.7-0.1c0.3,0,0.6-0.2,0.8-0.3c0.2,0,0.3,0,0.5,0c0.2,0,0.4,0,0.6,0.1c-0.2,0.3-0.4,0.6-0.7,0.9
			c-0.3,0.1-0.7,0.2-1,0.3c-0.7,0.2-1.4,0.2-2.1,0.1c-0.7-0.1-1.4-0.2-2-0.5l-0.5-0.2c-0.2-0.1-0.3-0.2-0.5-0.2
			C564.5,518.7,564.3,518.4,564.2,518z"/>
		<path fill="#464547" d="M571.6,517c0.1,0.2,0.3,0.4,0.4,0.5c0,0.1,0,0.2,0,0.3c0,0.2,0,0.4,0.1,0.6c0.1,0.2,0.2,0.4,0.4,0.5
			c0.1,0.1,0.2,0.1,0.3,0.2c0,0.2,0.1,0.4,0.1,0.7c-0.2,0.1-0.4,0.2-0.7,0.3c-0.1-0.1-0.3-0.2-0.4-0.3c-0.3-0.2-0.5-0.5-0.7-0.9
			c-0.2-0.3-0.2-0.7-0.2-1.1c0-0.1,0-0.2,0-0.3c0-0.1,0-0.2,0-0.3C571.1,517.1,571.3,517,571.6,517z"/>
		<path fill="#464547" d="M566.1,513.8c-0.1,0.2-0.2,0.3-0.3,0.4c-0.1,0.1-0.1,0.3-0.2,0.4c-0.1,0.1,0,0.3-0.1,0.4
			c-0.1,0-0.1,0.1-0.2,0.1c-0.1,0-0.2,0.1-0.4,0.1l-0.1,0c-0.1-0.1-0.2-0.2-0.2-0.4c0-0.1,0-0.2,0-0.3c0-0.1,0.1-0.2,0.2-0.3
			l0.3-0.2c0.1-0.1,0.2-0.1,0.2-0.2c0.1,0,0.2-0.1,0.3-0.1C565.7,513.8,565.9,513.8,566.1,513.8L566.1,513.8z"/>
		<path fill="#464547" d="M567.7,514.1c0.2,0,0.4,0.1,0.5,0.2c0.2,0.1,0.3,0.2,0.5,0.3c0.1,0.1,0.4,0.2,0.3,0.4c0,0.1,0,0.2-0.1,0.3
			c0,0.1-0.1,0.2-0.3,0.3l-0.1,0c-0.2,0-0.3-0.1-0.4-0.1c-0.1,0-0.2-0.1-0.2-0.1c-0.1,0-0.1-0.1-0.1-0.2c0-0.1,0-0.1,0-0.2
			c0-0.1,0-0.1-0.1-0.2c0-0.1,0-0.1-0.1-0.2C567.8,514.5,567.7,514.4,567.7,514.1L567.7,514.1z"/>
		<path fill="#464547" d="M563.5,512.8c0.3-3.2-2.1-5.9-5.3-6.2c-3.2-0.3-5.9,2.1-6.2,5.3L563.5,512.8z"/>
		
			<ellipse transform="matrix(0.9966 8.245566e-002 -8.245566e-002 0.9966 44.4063 -46.1115)" fill="#FFFFFF" cx="580.5" cy="514.6" rx="6.1" ry="6.1"/>
		
			<ellipse transform="matrix(0.9966 8.245566e-002 -8.245566e-002 0.9966 44.4614 -46.1047)" fill="#282829" cx="580.4" cy="515.2" rx="4" ry="4"/>
		<path fill="#464547" d="M586.5,515.1c0.3-3.4-2.2-6.3-5.6-6.6c-3.3-0.3-6.3,2.2-6.6,5.6L586.5,515.1z"/>
		<g>
			<circle fill="#464547" cx="588.5" cy="520.4" r="0.6"/>
			<circle fill="#464547" cx="589.5" cy="521.9" r="0.6"/>
			<circle fill="#464547" cx="587.7" cy="522.2" r="0.6"/>
		</g>
		<g>
			<circle fill="#464547" cx="550.7" cy="517" r="0.6"/>
			<circle fill="#464547" cx="551.7" cy="518.6" r="0.6"/>
			<circle fill="#464547" cx="550" cy="518.9" r="0.6"/>
		</g>
		<g>
			<path fill="#6B6C6F" d="M563.6,544.1C563.6,544.1,563.6,544.1,563.6,544.1C563.6,544,563.5,544.1,563.6,544.1z"/>
			<polygon fill="#6B6C6F" points="563.4,543.8 563.4,543.8 563.3,543.8 			"/>
			<path fill="#6B6C6F" d="M563.3,543.6c-0.1,0.1,0,0.1,0,0.1l0,0l0.1,0C563.4,543.7,563.3,543.6,563.3,543.6z"/>
			<path fill="#6B6C6F" d="M563.6,543.4C563.5,543.4,563.5,543.3,563.6,543.4C563.6,543.4,563.6,543.4,563.6,543.4
				C563.6,543.4,563.6,543.4,563.6,543.4z"/>
			<path fill="#6B6C6F" d="M563.6,543.4C563.6,543.4,563.6,543.4,563.6,543.4L563.6,543.4z"/>
			<path fill="#6B6C6F" d="M563.5,543.3L563.5,543.3C563.6,543.3,563.6,543.3,563.5,543.3C563.6,543.2,563.6,543.2,563.5,543.3z"/>
			<path fill="#6B6C6F" d="M563.4,543.3L563.4,543.3C563.5,543.3,563.5,543.3,563.4,543.3z"/>
			<path fill="#6B6C6F" d="M563.5,543.3L563.5,543.3C563.4,543.3,563.4,543.3,563.5,543.3C563.4,543.3,563.5,543.3,563.5,543.3z"/>
			<path fill="#6B6C6F" d="M563.5,543.3C563.5,543.4,563.4,543.4,563.5,543.3C563.4,543.4,563.5,543.4,563.5,543.3z"/>
			<path fill="#6B6C6F" d="M563.2,543.6L563.2,543.6L563.2,543.6C563.2,543.6,563.2,543.6,563.2,543.6z"/>
			<path fill="#6B6C6F" d="M563.5,543C563.5,543,563.5,543.1,563.5,543L563.5,543C563.5,543.1,563.5,543,563.5,543z"/>
			<path fill="#6B6C6F" d="M563.4,543.1L563.4,543.1C563.4,543.1,563.4,543.1,563.4,543.1z"/>
			<polygon fill="#6B6C6F" points="563.3,543.3 563.4,543.3 563.3,543.3 			"/>
			<polygon fill="#6B6C6F" points="563.5,542.9 563.6,542.9 563.5,542.9 			"/>
			<path fill="#6B6C6F" d="M563.5,542.8c0,0,0.1,0,0.1,0C563.6,542.7,563.5,542.7,563.5,542.8C563.5,542.7,563.5,542.7,563.5,542.8z
				"/>
			<path fill="#6B6C6F" d="M563.5,542.7C563.5,542.7,563.5,542.7,563.5,542.7C563.5,542.7,563.5,542.7,563.5,542.7z"/>
			<path fill="#6B6C6F" d="M563.4,543C563.4,543,563.5,543,563.4,543L563.4,543C563.4,543,563.4,543,563.4,543z"/>
			<path fill="#6B6C6F" d="M563.4,543L563.4,543C563.4,542.9,563.4,542.9,563.4,543C563.4,542.9,563.4,542.9,563.4,543z"/>
			<path fill="#6B6C6F" d="M563.4,543L563.4,543C563.4,543,563.4,543,563.4,543z"/>
			<path fill="#6B6C6F" d="M563.3,543.2c0,0-0.1-0.1-0.1,0C563.3,543.2,563.3,543.2,563.3,543.2z"/>
			<path fill="#6B6C6F" d="M563.3,543L563.3,543C563.3,543.1,563.4,543.1,563.3,543L563.3,543z"/>
			<polygon fill="#6B6C6F" points="563.3,543 563.3,543 563.3,543 			"/>
			<path fill="#6B6C6F" d="M563.4,542.8C563.4,542.8,563.4,542.7,563.4,542.8C563.3,542.7,563.3,542.8,563.4,542.8
				C563.4,542.8,563.4,542.8,563.4,542.8z"/>
			<path fill="#6B6C6F" d="M563.4,542.9L563.4,542.9C563.4,542.9,563.4,542.9,563.4,542.9z"/>
			<polygon fill="#6B6C6F" points="563.3,542.5 563.3,542.5 563.3,542.5 			"/>
			<path fill="#6B6C6F" d="M563.3,542.8C563.3,542.8,563.3,542.8,563.3,542.8C563.4,542.8,563.3,542.8,563.3,542.8
				C563.3,542.8,563.3,542.8,563.3,542.8z"/>
			<path fill="#6B6C6F" d="M563.4,542.6C563.4,542.6,563.4,542.7,563.4,542.6C563.4,542.7,563.4,542.6,563.4,542.6z"/>
			<path fill="#6B6C6F" d="M563.4,542.9L563.4,542.9C563.4,542.8,563.4,542.8,563.4,542.9z"/>
			<path fill="#6B6C6F" d="M563.4,542.9C563.4,542.8,563.4,542.8,563.4,542.9C563.4,542.8,563.4,542.9,563.4,542.9
				C563.4,542.9,563.4,542.9,563.4,542.9z"/>
			<path fill="#6B6C6F" d="M562.9,542.5C562.9,542.5,563,542.6,562.9,542.5c0.1,0.1,0.3,0,0.4,0c0,0-0.1,0-0.1,0
				c0,0-0.1,0.1-0.1,0.1c0,0,0-0.1,0-0.1C563.1,542.5,563,542.5,562.9,542.5L562.9,542.5C562.9,542.5,562.9,542.5,562.9,542.5z"/>
			<path fill="#6B6C6F" d="M563.3,542.6L563.3,542.6C563.3,542.6,563.4,542.6,563.3,542.6C563.4,542.5,563.3,542.5,563.3,542.6
				L563.3,542.6L563.3,542.6z"/>
			<path fill="#6B6C6F" d="M563.3,542.7c-0.1,0-0.1,0-0.2,0C563.2,542.7,563.2,542.7,563.3,542.7
				C563.2,542.7,563.3,542.8,563.3,542.7C563.3,542.7,563.3,542.7,563.3,542.7C563.4,542.7,563.4,542.7,563.3,542.7L563.3,542.7
				L563.3,542.7L563.3,542.7C563.4,542.7,563.4,542.7,563.3,542.7L563.3,542.7C563.4,542.7,563.3,542.7,563.3,542.7
				C563.3,542.7,563.4,542.7,563.3,542.7L563.3,542.7L563.3,542.7L563.3,542.7C563.3,542.6,563.3,542.6,563.3,542.7z"/>
			<path fill="#6B6C6F" d="M563.1,543.2C563.1,543.2,563.1,543.2,563.1,543.2C563.1,543.2,563.1,543.2,563.1,543.2z"/>
			<path fill="#6B6C6F" d="M563.1,543.1C563.1,543.1,563.1,543.1,563.1,543.1C563.1,543.2,563.1,543.2,563.1,543.1
				C563.1,543.2,563.1,543.2,563.1,543.1L563.1,543.1c0.1,0,0.1-0.1,0.2-0.1C563.2,543.1,563.1,543.1,563.1,543.1z"/>
			<path fill="#6B6C6F" d="M563.2,542.9L563.2,542.9L563.2,542.9L563.2,542.9C563.1,542.9,563.2,542.9,563.2,542.9z"/>
			<polygon fill="#6B6C6F" points="563.4,542.5 563.4,542.5 563.3,542.5 			"/>
			<polygon fill="#6B6C6F" points="563.3,542.4 563.4,542.4 563.4,542.4 			"/>
			<path fill="#6B6C6F" d="M562,537.5L562,537.5C562,537.5,562,537.5,562,537.5z"/>
			<path fill="#6B6C6F" d="M562,537.7L562,537.7C562,537.7,562,537.7,562,537.7z"/>
			<path fill="#6B6C6F" d="M563.1,540.2C563.1,540.2,563.2,540.1,563.1,540.2L563.1,540.2C563.1,540.2,563.1,540.2,563.1,540.2z"/>
			<path fill="#6B6C6F" d="M562.5,538.8C562.5,538.8,562.5,538.8,562.5,538.8C562.5,538.8,562.5,538.8,562.5,538.8
				C562.5,538.8,562.5,538.8,562.5,538.8z"/>
			<path fill="#6B6C6F" d="M562.2,538.8L562.2,538.8C562.2,538.8,562.2,538.8,562.2,538.8z"/>
			<path fill="#6B6C6F" d="M561.9,536.7L561.9,536.7C561.8,536.7,561.8,536.7,561.9,536.7z"/>
			<path fill="#6B6C6F" d="M563.2,541.5C563.2,541.5,563.2,541.4,563.2,541.5C563.2,541.5,563.1,541.5,563.2,541.5z"/>
			<path fill="#6B6C6F" d="M562.7,537.5C562.7,537.4,562.7,537.4,562.7,537.5C562.7,537.5,562.7,537.5,562.7,537.5z"/>
			<path fill="#6B6C6F" d="M563.2,541.4C563.2,541.4,563.2,541.4,563.2,541.4C563.2,541.4,563.2,541.4,563.2,541.4
				C563.2,541.4,563.3,541.4,563.2,541.4z"/>
			<path fill="#6B6C6F" d="M561.7,533.8C561.7,533.8,561.7,533.8,561.7,533.8C561.7,533.8,561.7,533.8,561.7,533.8z"/>
			<path fill="#6B6C6F" d="M562.4,532.8C562.4,532.8,562.4,532.9,562.4,532.8C562.4,532.9,562.4,532.9,562.4,532.8z"/>
			<path fill="#6B6C6F" d="M563.3,542C563.3,542.1,563.3,542,563.3,542L563.3,542z"/>
			<path fill="#6B6C6F" d="M563.1,542.2C563,542.2,563,542.2,563.1,542.2C563,542.2,563,542.2,563.1,542.2z"/>
			<path fill="#6B6C6F" d="M562.8,541.3L562.8,541.3C562.7,541.3,562.7,541.3,562.8,541.3z"/>
			<path fill="#6B6C6F" d="M563.3,542.1C563.3,542.1,563.3,542.1,563.3,542.1C563.3,542,563.3,542.1,563.3,542.1z"/>
			<path fill="#6B6C6F" d="M563.3,542.1C563.3,542.1,563.3,542.1,563.3,542.1C563.3,542.1,563.3,542.1,563.3,542.1z"/>
			<path fill="#6B6C6F" d="M563.3,542C563.3,542,563.3,542,563.3,542C563.3,542,563.3,542,563.3,542C563.3,542,563.3,542,563.3,542z
				"/>
			<path fill="#6B6C6F" d="M562,535.3C562,535.3,562,535.3,562,535.3C562,535.3,562,535.3,562,535.3z"/>
			<polygon fill="#6B6C6F" points="562.3,539.9 562.3,539.9 562.3,539.9 			"/>
			<path fill="#6B6C6F" d="M562.2,539.8C562.3,539.8,562.3,539.9,562.2,539.8l0.3,0L562.2,539.8z"/>
			<path fill="#6B6C6F" d="M561.9,537.2L561.9,537.2c-0.2,0-0.1,0-0.2,0c0.2,0,0,0.2,0.3,0.2l0,0c0,0,0,0,0,0
				c-0.1,0.1,0.2,0,0.1,0.1c0,0,0,0.1-0.1,0l0.1,0.1c0,0,0,0,0,0l0,0.1l0,0c0,0,0.1,0,0.1,0c0,0,0,0-0.1,0l0.1,0c-0.1,0-0.1,0-0.1,0
				c-0.2,0.1,0.1,0-0.1,0.2l0,0c-0.1,0.1-0.1,0.1-0.1,0.2c0,0,0.2-0.1,0.2-0.1c0,0,0,0,0,0.1c-0.1,0-0.1,0,0,0.1l-0.1,0
				c0,0,0.1,0,0.1,0c0,0-0.1,0.1-0.2,0.1c0,0.1,0.1-0.1,0.2,0c0,0.1,0,0.1,0.1,0.2c0,0-0.1,0-0.1,0l0.1,0c0,0,0,0,0,0
				c0,0,0.1,0,0.1,0c0.1,0-0.2,0.1,0,0.2c0,0-0.1,0-0.1,0c0.1,0.1,0.1,0.1,0.2,0.1l-0.1,0.1c0.1-0.1,0.2,0,0.2,0c0,0,0.1,0,0.1-0.1
				l0.1,0.1c0,0-0.1,0-0.1,0c0,0,0,0,0,0c0,0-0.1,0-0.2,0c0,0,0,0,0.1,0c-0.1,0-0.1,0-0.2,0c0,0,0,0,0,0c0,0,0,0,0,0c0,0,0,0,0,0
				l-0.1,0l0,0l-0.1,0.1c0.1,0,0.3,0.1,0.4,0.2c-0.1,0-0.1,0-0.2,0c0.1-0.1-0.1-0.1,0-0.1c0,0-0.1,0-0.1,0l0.1,0.1
				c-0.1,0-0.1,0-0.1,0.1c0.2-0.1,0.1,0.1,0.2,0.1c-0.1,0-0.1,0-0.1,0c-0.1,0.1,0.2,0,0.1,0.1c0,0,0,0,0,0c0.1,0,0,0.1,0,0.1l0,0
				c0,0.1,0,0.3,0.2,0.2c0,0-0.2,0-0.2,0l0.5,0.1c-0.1,0-0.4,0.1-0.5,0.1c0,0,0,0.1,0,0.1c0,0,0.2-0.1,0.2-0.1
				c-0.1,0.1-0.1,0.1-0.2,0.1c0,0,0.2,0,0.2,0c0,0-0.2,0-0.2,0l0.2,0c0,0-0.2,0-0.2,0.1c0,0,0,0.1,0,0.1l0,0c0,0.1,0.3,0,0.3,0.1
				c0,0-0.2,0-0.2,0.1c0.1,0,0.5,0,0.5,0.1l-0.1,0l0.1,0c-0.1,0-0.4,0-0.6-0.1c0,0-0.1,0-0.1,0.1c0,0-0.1,0-0.1,0l0,0.1
				c0.1,0,0.1,0.1,0.2,0l-0.1-0.1c0.1,0,0.3,0,0.3,0.1c0,0-0.2,0-0.2,0c0,0,0.1,0.1,0.1,0.1l-0.1,0c0,0.1,0.2,0,0.1,0.1
				c0,0-0.1,0.1-0.1,0.1c0.1-0.1,0.5-0.2,0.6-0.2c0,0-0.1,0.1-0.2,0.2c-0.1,0.1-0.2,0-0.3,0.1c0,0,0.1,0,0.1,0c0,0-0.1,0-0.1,0.1
				c0.1,0,0,0.1,0.1,0c0,0,0,0.1,0,0.1c0.1,0,0.2,0,0.3,0c0,0-0.1,0-0.1,0c0,0.1,0,0.2,0,0.2c0,0-0.1,0.1-0.1,0.1c0,0,0.1,0,0.1,0
				c-0.1,0.1,0-0.1-0.1,0c0.1,0,0.1,0,0.1,0.1c0.1,0,0-0.1,0-0.1c0.1,0,0.3,0,0.4,0.1c0,0.1-0.1,0.1-0.1,0.1c0,0.1,0.2,0.1,0.2,0.2
				c-0.1,0.1-0.2,0-0.2,0.1c0,0,0-0.1,0-0.1l0,0.1c0,0-0.1,0,0-0.1c-0.1,0.1,0,0.2,0,0.3c0,0,0.1,0,0.1,0l0,0c0.1,0,0.1,0,0.1,0
				c0.1,0,0.1,0.1,0.1,0.1l-0.1,0c0,0,0.1-0.1,0-0.1c0,0-0.1,0.1,0,0.1l0.1-0.1c0.1,0,0.2,0.1,0.1,0.1c0.1,0,0,0,0.1-0.1
				c-0.1,0.1,0-0.1-0.2,0c0.1-0.1,0-0.1,0.2-0.2c0,0-0.1,0,0,0c0,0,0,0,0,0l0,0l0,0c0,0,0,0,0,0c0,0,0,0,0,0c-0.1,0-0.1-0.1-0.1-0.1
				c0,0,0,0,0.1,0l-0.1,0c0.1,0,0.1-0.1,0.2,0l0-0.1c0,0,0-0.1,0-0.1c0,0-0.1,0,0,0l-0.1-0.1l0,0c0-0.1-0.1-0.1,0-0.3c0,0,0,0,0-0.1
				l0.1,0c0,0,0-0.1,0-0.1c0.2-0.1,0-0.2,0-0.3l-0.1,0c0,0,0-0.1-0.1-0.1l-0.1,0c-0.1,0,0-0.1,0-0.2c0,0,0,0,0,0
				c0.2-0.1-0.1-0.2,0-0.3c0,0,0,0,0,0c0,0,0,0,0,0c0,0,0,0,0,0c0,0,0,0,0,0c0,0,0,0,0,0c0,0,0,0,0-0.1l0.1,0c0,0,0,0,0,0
				c0,0,0,0-0.1,0c0,0,0,0-0.1,0c0.1,0,0-0.1,0.1-0.1c-0.1,0-0.1-0.1-0.2-0.1c0,0,0,0,0,0c0,0,0-0.1,0-0.1l0.1,0l-0.1,0
				c0.1,0,0.1-0.1,0.2-0.1c-0.1-0.1-0.1-0.1-0.2-0.1l0.1,0c0,0-0.1,0,0-0.1c0.1-0.1,0-0.3,0.1-0.5c-0.2,0.1,0.1-0.1-0.1-0.1
				c0,0,0.1,0,0.1,0c-0.1-0.1,0.1-0.1-0.1-0.2c0,0,0.1,0,0.1,0c0,0,0,0,0,0c0,0,0,0,0.1,0c0-0.1-0.2-0.1-0.3,0c0.1-0.1,0-0.1,0-0.1
				c0,0,0.1-0.1,0.1,0c0,0,0-0.2-0.1-0.2c0,0,0,0,0,0c0-0.1,0-0.1,0-0.1l0,0c-0.1,0,0,0-0.1-0.1l0,0c0.1-0.1,0,0,0-0.2l-0.1,0
				c-0.2,0,0.1-0.1,0-0.2l0,0c-0.1,0,0.2-0.1,0.2-0.2c0,0,0,0,0,0c0.1-0.1-0.1,0-0.1-0.1c0.1,0,0.1,0,0.1-0.1c0,0-0.2-0.1-0.1-0.2
				c0,0-0.1,0-0.1,0c0,0,0.1-0.2,0-0.2c0,0,0,0,0,0c0,0-0.1-0.1-0.1-0.1c0.3-0.1-0.1-0.2,0.1-0.2l0-0.1l0,0c0-0.1,0-0.1-0.1-0.1
				c0,0,0,0,0.1,0c0-0.1,0-0.1-0.1-0.2l0.1,0c0,0,0.1-0.2,0-0.3c0,0,0,0,0,0c-0.1-0.1,0.2-0.3-0.1-0.3l-0.1-0.1c0,0.1-0.1,0-0.2,0.1
				c0,0,0.1-0.1,0.1-0.1l0,0c0.2,0,0-0.1,0.1-0.1c0-0.2,0.1-0.4,0-0.6l-0.1,0l0-0.1c0,0,0.1,0,0.1,0c0.1,0-0.1-0.1-0.1-0.1
				c0-0.1,0.1,0,0.1,0l0,0l0,0c0,0-0.1,0-0.1-0.1c0,0,0.1,0,0.1,0c0,0,0,0,0,0l0-0.1l-0.1,0c0,0,0-0.1-0.1,0c0.2-0.1,0-0.3,0.1-0.3
				c-0.1,0-0.1-0.1-0.1-0.2c0,0-0.1,0-0.1,0c0.2,0,0.1-0.1,0.2-0.2c-0.1,0,0-0.1-0.2-0.1c0,0,0.1,0,0.1-0.1c-0.1-0.1,0-0.2,0-0.4
				c0,0-0.1,0-0.1,0l0.1-0.1c0,0-0.2,0-0.1-0.1c0,0-0.1,0-0.1,0c0.1-0.3-0.1-0.5,0.1-0.8c-0.1,0-0.1,0-0.1,0c0,0-0.1,0-0.1,0
				l0.1-0.1c-0.1,0,0-0.1-0.1-0.1l0,0c-0.1,0-0.3,0.1-0.4,0.1c0.1,0-0.2,0.2,0,0.2c0,0-0.1,0-0.1,0c0.1,0,0.1,0,0.1,0.1l0,0
				c0,0.1,0,0.2-0.1,0.3l0.1,0c0,0,0,0-0.1,0.1c0.1,0,0-0.1,0.1-0.1c-0.2,0.1,0,0.2-0.2,0.3c0,0,0.1,0,0.1,0l0,0l0.1,0
				c0,0-0.1,0.1-0.1,0.1c0,0,0,0,0,0c-0.1,0,0,0.1,0,0.1l0-0.1c0.1,0.1,0,0.3,0.1,0.4l0,0c0.1,0.1,0,0.1,0,0.2l0,0
				c0,0,0.1,0,0.1,0.1c0,0-0.1,0.1-0.1,0c0.1,0.1,0.1,0,0.2,0.1l-0.1,0c0.1,0,0.1,0,0.1,0.1c-0.1,0-0.1,0-0.2,0
				c-0.1,0.1,0.1,0.2,0,0.2c0.2,0,0.1-0.1,0.1-0.1c0.1,0,0.1,0,0.1,0.1c0,0-0.2,0.1-0.2,0.2c0,0,0,0,0,0c0,0,0.1,0.1,0,0.1
				c0.1,0,0,0.1,0.1,0l0-0.1c0,0,0.2,0.1,0.1,0.2c0,0-0.1,0-0.1,0c0,0,0,0,0,0.1c-0.1,0,0-0.1-0.1-0.1c-0.1,0,0.1,0.1,0,0.1
				c0.2,0,0,0.1,0.1,0.1l-0.1,0c0,0,0.1,0,0,0l-0.1,0c0.1,0-0.1,0.1,0,0.1c0-0.1,0.1,0,0.1-0.1c0.1,0.1-0.2,0.1-0.1,0.2
				c0,0,0-0.1,0.1-0.1c0,0,0,0.1-0.1,0.1c0,0.1,0.1,0,0.1,0c-0.1,0,0,0,0.1,0.1l-0.1,0c0,0.1,0.2,0,0.1,0.1l-0.1,0l0,0l-0.1,0
				c0.1,0,0.1,0.1,0,0.1c0.1,0,0.1,0,0.1,0c0,0-0.1,0-0.1,0.1c0,0-0.1,0,0-0.1c0,0,0,0-0.1,0c-0.1,0,0,0.1,0,0.1c0,0,0,0,0,0
				l0.1,0.1c0,0-0.1,0-0.1,0c0,0,0,0,0.1,0.1c-0.1,0-0.1,0-0.2,0l0.1,0.1c0,0-0.1,0.1-0.1,0c0,0.1,0.1,0.1,0.1,0.2c0,0,0,0,0,0
				c0,0.1-0.1,0.1,0,0.2l-0.1,0.1c0,0.1,0.1-0.1,0.2,0C562,537.1,561.9,537,561.9,537.2C561.9,537.1,562,537.1,561.9,537.2
				C561.9,537.2,561.9,537.2,561.9,537.2z M562.1,537.9C562,537.9,562,537.9,562.1,537.9C562.1,537.8,562.1,537.9,562.1,537.9z
				 M562.3,538.9C562.3,538.9,562.3,538.9,562.3,538.9C562.4,538.9,562.4,538.9,562.3,538.9z M563.2,541.8L563.2,541.8
				C563.2,541.8,563.2,541.8,563.2,541.8z M563.2,541.9C563.2,541.9,563.2,541.9,563.2,541.9C563.2,541.9,563.2,541.9,563.2,541.9
				C563.2,541.9,563.2,541.9,563.2,541.9z M562.5,535L562.5,535C562.5,535,562.5,535,562.5,535z"/>
			<path fill="#6B6C6F" d="M562.2,538.8C562.2,538.8,562.2,538.8,562.2,538.8C562.2,538.8,562.2,538.8,562.2,538.8z"/>
			<polygon fill="#6B6C6F" points="561.9,536.7 561.9,536.7 561.9,536.7 			"/>
			<path fill="#6B6C6F" d="M562.4,541.1C562.4,541.1,562.4,541.1,562.4,541.1C562.4,541.1,562.4,541.1,562.4,541.1z"/>
			<path fill="#6B6C6F" d="M563.4,542.2L563.4,542.2C563.4,542.2,563.3,542.2,563.4,542.2C563.3,542.2,563.4,542.2,563.4,542.2z"/>
			<path fill="#6B6C6F" d="M563,542.7C563,542.7,563,542.7,563,542.7L563,542.7C563,542.7,563,542.7,563,542.7z"/>
			<path fill="#6B6C6F" d="M563.1,542.3C563.1,542.3,563.1,542.4,563.1,542.3C563.1,542.4,563.1,542.4,563.1,542.3
				C563.2,542.4,563.2,542.3,563.1,542.3z"/>
			<path fill="#6B6C6F" d="M563.1,542.4C563.1,542.4,563.1,542.4,563.1,542.4C563.1,542.4,563.1,542.4,563.1,542.4z"/>
			<path fill="#6B6C6F" d="M563.3,542C563.2,542,563.3,542,563.3,542C563.4,542,563.2,541.9,563.3,542z"/>
			<polygon fill="#6B6C6F" points="562.9,542.4 563,542.4 562.9,542.4 			"/>
			<path fill="#6B6C6F" d="M562.9,542.2L562.9,542.2C562.9,542.2,563,542.2,562.9,542.2C563,542.2,563,542.2,562.9,542.2z"/>
			<path fill="#6B6C6F" d="M563,542.2C563,542.2,563,542.2,563,542.2C563,542.2,563,542.2,563,542.2z"/>
			<polygon fill="#6B6C6F" points="562.9,542.3 562.9,542.3 562.9,542.3 			"/>
			<path fill="#6B6C6F" d="M562.9,541.7L562.9,541.7C562.8,541.6,562.8,541.6,562.9,541.7C562.9,541.7,562.9,541.7,562.9,541.7z"/>
			<path fill="#6B6C6F" d="M562.7,541.9C562.7,541.9,562.7,541.8,562.7,541.9L562.7,541.9L562.7,541.9z"/>
			<path fill="#6B6C6F" d="M562.7,541.7C562.6,541.7,562.6,541.7,562.7,541.7C562.6,541.7,562.6,541.8,562.7,541.7z"/>
			<polygon fill="#6B6C6F" points="562.7,540.9 562.7,541 562.8,540.9 			"/>
			<path fill="#6B6C6F" d="M562.2,540.4C562.2,540.4,562.3,540.4,562.2,540.4c0.1,0.1,0.1,0,0.1,0
				C562.3,540.3,562.3,540.3,562.2,540.4z"/>
			<path fill="#6B6C6F" d="M562.3,540.4C562.4,540.4,562.4,540.4,562.3,540.4C562.4,540.4,562.4,540.4,562.3,540.4z"/>
			<polygon fill="#6B6C6F" points="562.5,532.7 562.5,532.7 562.5,532.7 			"/>
			<path fill="#6B6C6F" d="M562.4,532.6l0.1,0L562.4,532.6C562.4,532.6,562.4,532.6,562.4,532.6z"/>
			<path fill="#6B6C6F" d="M561.8,538L561.8,538C561.9,538,561.9,538,561.8,538L561.8,538z"/>
			<polygon fill="#6B6C6F" points="561.9,537.5 561.9,537.5 562,537.5 			"/>
			<path fill="#6B6C6F" d="M561.7,537.1C561.7,537.1,561.7,537.1,561.7,537.1C561.7,537.1,561.8,537,561.7,537.1z"/>
		</g>
	</g>
</g>
<g>
</g>
<g>
</g>
<g>
</g>
<g>
</g>
<g>
</g>
<g>
</g>
<g>
</g>
<g>
</g>
<g>
</g>
<g>
</g>
<g>
</g>
<g>
</g>
<g>
</g>
<g>
</g>
<g>
</g>
</svg>
