<?xml version="1.0" encoding="utf-8"?>
<!-- Generator: Adobe Illustrator 18.0.0, SVG Export Plug-In . SVG Version: 6.00 Build 0)  -->
<!DOCTYPE svg PUBLIC "-//W3C//DTD SVG 1.1//EN" "http://www.w3.org/Graphics/SVG/1.1/DTD/svg11.dtd">
<svg version="1.1" id="Layer_1" xmlns="http://www.w3.org/2000/svg" xmlns:xlink="http://www.w3.org/1999/xlink" x="0px" y="0px"
	 viewBox="0 0 462.3 260.6" enable-background="new 0 0 462.3 260.6" xml:space="preserve">
<g>
	<path fill="#D65B51" d="M369.8,232.7H92.5C41.6,232.7,0,191,0,140.2V92.5C0,41.6,41.6,0,92.5,0h277.3c50.9,0,92.5,41.6,92.5,92.5
		v47.6C462.3,191,420.6,232.7,369.8,232.7z"/>
	<g>
		<path fill="#FFFFFF" d="M68.1,58.9l-1.3-4c3.7-4.1,6.4-8.9,8.2-14.4l3.5,1.7c-0.9,2.8-2.2,5.5-3.7,8v23.9h-3.7V55.5
			C70.2,56.7,69.2,57.8,68.1,58.9z M79.3,55.6l-3.2-2c2.7-4,4.5-8.2,5.6-12.7l3.5,0.8c-0.3,1.1-0.6,2.2-0.9,3.2h15v2.4
			c-0.5,2.2-1.2,4.3-2.1,6.4l-3.6-1c0.7-1.2,1.3-2.6,1.8-4.2H83C81.9,51,80.7,53.4,79.3,55.6z M84.5,56.4c-1.3,4.9-2.9,9.3-4.8,13
			l-3.5-1.3c1.9-3.3,3.5-7.5,5-12.6L84.5,56.4z M82.4,73.8l-0.8-3.5c1.4,0.1,2.8,0.3,4.1,0.3c0.9,0,1.3-0.5,1.3-1.4V50.9h3.6v19.2
			c0,2.5-1.2,3.7-3.7,3.7H82.4z M100.2,68.5L96.9,70c-1.3-5.2-2.8-9.8-4.4-13.8l3.3-1.1C97.5,59.3,99,63.8,100.2,68.5z"/>
		<path fill="#FFFFFF" d="M138.7,42.3V46h-11.6c-0.6,1.3-1.3,2.6-2.1,3.9v1.5c5.7,3.2,10.5,6.7,14.6,10.5L137,65
			c-3.2-3.4-7.2-6.7-12-9.7v18.8h-3.9v-19c-3.3,3.7-7.4,7-12.3,9.9l-2.5-3.3c7.8-4.4,13.2-9.6,16.4-15.8h-15.3v-3.7H138.7z"/>
		<path fill="#FFFFFF" d="M149.3,53.6l-3.3-2.1c2.3-3.4,4-6.9,4.9-10.7l3.7,0.8c-0.4,1.3-0.7,2.5-1.1,3.6h9.5v3.6h-4.8
			c0,2.1-0.1,4-0.3,5.9h5.5v3.6h-6l-0.4,2.2c2.2,2.2,4.4,4.6,6.6,7.3l-2.3,3.5c-2.1-3.1-3.9-5.5-5.3-7.3c-1.5,3.6-4.1,6.8-7.7,9.4
			l-2.4-3c3.7-2.8,6.1-6.1,7.3-10.1l0.4-1.9h-6.9v-3.6h7.5c0.2-1.8,0.3-3.8,0.4-5.9h-2.4C151.2,50.5,150.3,52.1,149.3,53.6z
			 M177.9,72.5h-3.7v-2h-6v2h-3.6V44.2h13.3V72.5z M174.2,67V47.7h-6V67H174.2z"/>
		<path fill="#FFFFFF" d="M194.4,49.5v2.9c-1.1,1.8-2.4,3.6-3.8,5.4h4.2v2.4c-0.5,2.6-1,4.7-1.7,6.4c0.3,0.2,0.5,0.4,0.8,0.7
			c1.2,1.1,2.2,1.8,3.2,2.3c1,0.4,2.5,0.6,4.5,0.7c1.9,0,4.1,0,6.7,0c2.6,0,5.9-0.1,10.1-0.3l-0.9,3.5h-8.8c-2.4,0-4.9-0.1-7.3-0.1
			c-2.4-0.1-4.3-0.4-5.5-0.8c-1.5-0.6-2.8-1.5-4.1-2.8c-0.3-0.3-0.5-0.4-0.8-0.4c-0.7,0-1.8,1.5-3.3,4.7l-2.7-2.5
			c1.7-3.1,3.2-5,4.8-5.6c0.6-1.6,1.1-3.3,1.5-5.1h-5.1v-2.8c1.7-1.9,3.1-3.6,4.1-5.2h-4.7v-3.4H194.4z M194.2,46l-2.4,2.4
			c-1.3-1.6-3.1-3.3-5.5-5.2l2.4-2.3C190.9,42.6,192.7,44.3,194.2,46z M200.7,44.4c-0.5-0.9-1.1-1.7-1.7-2.5l3.5-1.3
			c0.8,1.1,1.5,2.4,2.1,3.9h3.9c0.9-1.2,1.6-2.5,2.3-3.9l3.6,1.3c-0.5,0.9-1.1,1.8-1.7,2.6h5.3v3.3H208c-0.2,0.7-0.4,1.4-0.7,2.1
			h8.1V68h-17.4V49.8h5.3c0.3-0.7,0.5-1.4,0.6-2.1h-8.5v-3.3H200.7z M212,55v-1.9h-10.5V55H212z M212,59.8v-1.9h-10.5v1.9H212z
			 M212,62.7h-10.5v2.1H212V62.7z"/>
		<path fill="#FFFFFF" d="M243.8,42.3c-0.4,0.4-0.8,0.9-1.2,1.3h9.3v2.9c-3.9,6.9-11.1,10.8-21.6,11.7l-1.5-3.4
			c2.9-0.1,5.5-0.5,7.8-1.1c-1-1.2-2-2.2-3-3.2l3.2-1.6c1.2,1.1,2.2,2.3,3.3,3.6c3.2-1.3,5.7-3.2,7.5-5.6h-9.3
			c-2.8,1.6-6,2.8-9.8,3.7l-2.2-3.4c6.3-1.2,11.1-3.3,14.2-6.6L243.8,42.3z M243.7,67.1c3.3-1.5,6-3.5,8.1-6h-9.5
			c-3.1,1.4-6.7,2.6-10.9,3.4l-2.2-3.3c7.8-0.7,13.6-3,17.2-6.9l3.2,1.7c-0.6,0.6-1.2,1.2-1.8,1.7h8.9v2.9
			c-5.2,8.4-14.8,12.8-28.8,13.1l-1.5-3.6c5.3,0,9.9-0.6,13.8-1.7c-1.1-1.4-2.2-2.6-3.3-3.7l3.3-1.6
			C241.4,64.3,242.5,65.6,243.7,67.1z"/>
		<path fill="#FFFFFF" d="M296,52.9v3.6h-9.5v12.2c0,0.9,0.4,1.4,1.2,1.4h4c0.4,0,0.8-0.3,1-0.8c0.3-0.6,0.4-2.3,0.5-5.3l3.4,1.1
			c-0.3,4.1-0.7,6.5-1.4,7.2c-0.6,0.7-1.6,1.1-2.8,1.1h-5.7c-2.6,0-3.8-1.3-3.8-4v-13h-5.3v0.7c-0.2,4.6-1.2,8.2-3,11
			c-1.8,2.5-4.7,4.5-8.7,5.9l-2-3.2c3.9-1.4,6.5-3.1,7.8-5.1c1.4-2.2,2.1-5.1,2.2-8.6v-0.7h-8.9v-3.6H296z M292.8,42.4V46h-25.2
			v-3.6H292.8z"/>
		<path fill="#FFFFFF" d="M326.3,71.9l-0.9-3.5l2.7,0.2c0.8,0,1.2-0.5,1.2-1.3v-2.8h-7.8v9.6h-3.7v-9.6h-7.8v7.1h-3.7V61.2h11.5
			v-2.1h-1.8l-0.8-2.8l1.6,0.1c0.5,0,0.8-0.3,0.8-1v-1l-2.3,0.6c-0.3-1.8-0.7-3.4-1.1-5l2-0.7c0.5,1.4,1,3.1,1.4,4.9v-5.8h-3.6v10.1
			h-2.8V48.5h-3.7v10.5h-3.1V45.6h2.9c-0.6-1.2-1.4-2.3-2.1-3.3L308,41c0.7,1.1,1.4,2.3,2.1,3.6l-1.9,0.9h3v-4.7h3.1v4.7h2.9l-1.8-1
			c0.9-1.2,1.5-2.4,2.1-3.6l2.7,1.3c-0.5,1.1-1.2,2.2-2,3.2h2.6V49c2.2-2.3,3.6-5,4.3-8.2l3.4,0.4c-0.3,1-0.5,1.9-0.9,2.8h7.7v3.2
			H334c-0.8,2.6-1.8,4.8-3.1,6.6c1.6,1.1,3.4,2,5.4,2.9l-1.8,3.1c-2.3-1.1-4.2-2.2-5.9-3.5c-1.7,1.4-3.6,2.5-5.8,3.2l-1.7-2.8
			c1.9-0.6,3.6-1.4,5-2.6c-0.8-0.8-1.5-1.5-2.1-2.3l1.6-2.4c0.8,0.9,1.6,1.8,2.6,2.6c1-1.4,1.8-2.9,2.3-4.6h-4.5
			c-1,1.7-2.2,3.2-3.6,4.6l-1.8-2.4v6.6c0,1.4-0.5,2.3-1.5,2.7h2.3v2.3h11.5v7c0,2.5-1.3,3.8-3.7,3.8H326.3z M311,50.1
			c-0.1,2.3-0.4,4.4-0.9,6.3l-2.4-0.8c0.5-1.7,0.9-3.6,1-5.8L311,50.1z"/>
		<path fill="#FFFFFF" d="M359.6,42v12.4H351c-0.1,1.1-0.1,2.2-0.2,3.2h9.8c0,6.6-0.2,10.7-0.5,12.3c-0.4,2.5-2.5,3.8-6.2,3.8
			c-0.6,0-1.6-0.1-3-0.2l-0.8-3.2c1.3,0.1,2.3,0.1,3.3,0.1c1.8,0,2.9-0.8,3.2-2.2c0.2-0.7,0.3-3.1,0.4-7.1h-6.4
			c-0.3,2.1-0.6,3.8-1,5.1c-0.9,3-2.5,5.5-4.7,7.7l-2.4-3.2c1.8-1.8,3.1-3.9,3.8-6.3c0.6-2.2,1-5.5,1.2-10.2h-3V42H359.6z
			 M355.9,45.5h-7.8v5.3h7.8V45.5z M367.1,43.9v22.1h-3.7V43.9H367.1z M365.4,73.7l-0.8-3.6c1.7,0.1,3.2,0.2,4.7,0.2
			c1,0,1.5-0.6,1.5-1.8V40.9h3.7v28.7c0,2.7-1.3,4.1-3.9,4.1H365.4z"/>
		<path fill="#FFFFFF" d="M98.5,96v3.7h-13v12.4h14.3v3.6H85.5V128h-3.8v-12.3h-14v-3.6h14V99.7H69.1V96H98.5z M78.2,109.2l-3.5,1.7
			c-1.2-3-2.4-5.7-3.7-8.1l3.5-1.7C75.7,103.6,76.9,106.2,78.2,109.2z M96.9,102.6c-1,2.8-2.3,5.5-4,8.1l-3.4-1.7
			c1.7-2.7,3-5.3,3.9-8L96.9,102.6z"/>
		<path fill="#FFFFFF" d="M107.7,105.9c2.5-0.4,6.3-4.2,11.2-11.3l3.9,1.4c-2.8,3.8-5.6,7.1-8.6,9.9c5.8-0.3,11.5-0.7,17.1-1.2
			c-1.1-1.6-2.2-3.1-3.3-4.5l3.4-1.6c2.9,3.6,5.6,7.6,8.2,11.9l-3.7,1.8c-0.8-1.5-1.6-2.9-2.4-4.2c-7.5,0.7-15.8,1.2-25,1.5
			L107.7,105.9z M135.5,128.1h-3.8v-1.4h-17.2v1.4h-3.8v-15.4h24.8V128.1z M131.7,123.2v-6.9h-17.2v6.9H131.7z"/>
		<path fill="#FFFFFF" d="M156.5,120.4h-6.1v2.3h-3.5V97.4h9.6V120.4z M153.1,117v-16.1h-2.7V117H153.1z M161.3,116.6
			c-0.5,3.8-1.1,7.1-1.8,9.9l-3.1-1.1c0.8-2.5,1.5-5.7,2.1-9.5L161.3,116.6z M178.3,111.8c0,8.1-0.5,12.8-1.4,14.1
			c-0.9,1.4-2.7,2.1-5.4,2.1c-1,0-2,0-3-0.1l-0.8-3.3c1.2,0.1,2.2,0.2,3.2,0.2c2,0,3.2-0.6,3.5-1.9c0.1-0.4,0.2-0.9,0.3-1.5l-2.4,1
			c-0.5-2.1-1-4.1-1.7-6l2.5-0.7c0.7,2,1.3,3.7,1.7,5.3c0.1-1.5,0.2-3.4,0.2-5.8h-16.1V95.8h18.9v3.1h-6.9v2.3h6.2v3h-6.2v2.3h6.3v3
			h-6.3v2.3H178.3z M162.3,98.9v2.3h5.1v-2.3H162.3z M162.3,106.5h5.1v-2.3h-5.1V106.5z M162.3,111.8h5.1v-2.3h-5.1V111.8z
			 M165.6,124.9l-3,0.4c-0.1-3.7-0.2-6.6-0.4-8.6l2.7-0.4C165.3,118.4,165.5,121.2,165.6,124.9z M170.2,123.1l-2.8,0.6
			c-0.3-2.7-0.6-5.1-1-7.2l2.7-0.6C169.5,118.1,169.8,120.5,170.2,123.1z"/>
		<path fill="#FFFFFF" d="M208.1,100c1.4,1.3,2.2,3,2.2,5.2c0,1.8-0.5,3.3-1.3,4.4c-0.3,0.4-1.4,1.3-3.1,2.8
			c-0.6,0.5-1.1,1.1-1.4,1.8c-0.4,0.7-0.5,1.5-0.5,2.4v0.5h-4.1v-0.5c0-1.4,0.2-2.6,0.7-3.5c0.5-1,1.3-2,2.5-3
			c1.2-1,1.9-1.7,2.2-2.1c0.6-0.8,1-1.7,1-2.6c0-1.2-0.4-2.1-1-2.8c-0.7-0.7-1.7-1-2.9-1c-1.5,0-2.7,0.5-3.4,1.4
			c-0.6,0.8-0.9,2-0.9,3.6h-4.1c0-2.7,0.8-4.8,2.3-6.3c1.5-1.5,3.6-2.3,6.3-2.3C204.7,98.1,206.6,98.7,208.1,100z M203.8,119.6
			c0.5,0.5,0.8,1.2,0.8,1.9s-0.3,1.5-0.8,2c-0.6,0.5-1.2,0.8-2,0.8s-1.4-0.3-1.9-0.8c-0.6-0.5-0.8-1.2-0.8-1.9s0.3-1.4,0.8-1.9
			c0.5-0.5,1.2-0.8,1.9-0.8S203.2,119.1,203.8,119.6z"/>
		<path fill="#FFFFFF" d="M233.8,103.5v2.9c-1.1,1.8-2.4,3.6-3.8,5.4h4.2v2.4c-0.5,2.6-1,4.8-1.7,6.4c0.3,0.2,0.5,0.4,0.8,0.7
			c1.2,1.1,2.2,1.9,3.2,2.3c1,0.4,2.5,0.6,4.5,0.7c1.9,0,4.2,0,6.7,0c2.6,0,5.9-0.1,10.1-0.3l-0.9,3.5h-8.8c-2.4,0-4.9-0.1-7.3-0.1
			c-2.4-0.1-4.3-0.4-5.5-0.9c-1.5-0.6-2.8-1.5-4.1-2.8c-0.3-0.3-0.5-0.4-0.8-0.4c-0.7,0-1.8,1.5-3.3,4.6l-2.7-2.5
			c1.7-3.1,3.2-4.9,4.7-5.5c0.6-1.6,1.2-3.3,1.5-5.2h-5.1v-2.8c1.7-1.9,3.1-3.6,4.1-5.2h-4.7v-3.4H233.8z M233.7,100l-2.4,2.4
			c-1.3-1.6-3.1-3.3-5.5-5.2l2.5-2.4C230.4,96.6,232.2,98.3,233.7,100z M243.8,98c-0.4-1-0.8-1.9-1.3-2.7l4-0.6
			c0.4,1,0.8,2.1,1.2,3.3h8.9v3.4h-21.3V98H243.8z M254.8,113.3v9.4h-17.5v-9.4H254.8z M254,103.3v3h-15.8v-3H254z M254,108.3v3
			h-15.8v-3H254z M251.1,116.3H241v3.3h10.1V116.3z"/>
		<path fill="#FFFFFF" d="M271.6,128.1H268v-15.7c-0.8,2.6-1.7,5-2.8,7.1l-1.8-3.2c1.9-3.3,3.3-7.1,4.2-11.4h-3.2v-3.5h3.6v-6.7h3.6
			v6.7h3v3.5h-3v1.9c1.2,1.5,2.4,3.1,3.7,4.9l-2,3c-0.6-1.3-1.2-2.4-1.7-3.4V128.1z M283.3,117.3v2.4c-1.2,3.6-3.8,6.4-7.7,8.2
			l-2.2-2.8c2.9-1.2,5-2.8,6.2-4.9H275v-2.9H283.3z M280.1,98c-0.4-1-0.8-1.9-1.3-2.7l3.7-0.6c0.4,0.9,0.8,2.1,1.2,3.3h4.2
			c0.4-1.1,0.8-2.2,1-3.3l3.6,0.5c-0.3,1-0.6,2-1.1,2.8h4.4v2.8h-8.3v1.4h7.1v2.7h-7.1v1.5h9v2.8H275v-2.8h9v-1.5h-7.1v-2.7h7.1
			v-1.4h-8.4V98H280.1z M280.9,124.8l2.7,0.1c0.5,0,0.8-0.4,0.8-1.1v-8h-7v-2.8h10.5v3.1c0.2,0.4,0.5,0.8,0.7,1.2
			c1.9-0.9,3.8-2.2,5.5-4l2.3,2.3c-1.7,1.8-3.7,3.1-5.8,4.1c1.8,1.9,4,3.5,6.7,4.8l-2.4,2.8c-2.9-1.8-5.3-4-7.1-6.4v3.9
			c0,2-1.2,3.1-3.6,3.1h-2.5L280.9,124.8z M291.6,111.3l-1,2.4c-3.1-0.9-6.2-1.5-9.5-2l1.2-2.3C285.5,109.9,288.6,110.5,291.6,111.3
			z"/>
		<path fill="#FFFFFF" d="M304.5,127.7l-0.8-3.6c0.9,0.1,1.8,0.2,2.7,0.2c0.8,0,1.2-0.4,1.2-1.3v-7.3c-1.3,0.5-2.6,1-3.9,1.5l-1-3.8
			c1.7-0.4,3.2-0.9,4.8-1.5v-7.2h-4V101h4v-6.2h3.7v6.2h3.7v3.6h-3.7v5.5c1.2-0.6,2.3-1.3,3.5-1.9v3.9c-1.2,0.6-2.3,1.3-3.5,1.9v10
			c0,2.4-1.2,3.7-3.7,3.7H304.5z M333.6,109.8v3.5c-1,3.1-2.7,5.8-5,8.1c2.2,1.4,4.9,2.6,8.1,3.6l-2,3.2c-3.5-1.4-6.4-2.9-8.8-4.5
			c-2.7,1.9-6,3.5-10,4.6l-2.1-3.2c3.5-1,6.5-2.3,8.9-3.9c-2.5-2.3-4.2-4.9-5-7.7h-1.9v-3.7H333.6z M331.4,95.9v7.4
			c0,0.8,0.5,1.2,1.5,1.2h2.6v3.5h-3.6c-2.8,0-4.2-1.3-4.2-3.7v-4.8h-5.8v1.5c0,3.5-1.7,6.2-5,8.2l-2.5-2.9c2.6-1.2,3.9-2.8,3.9-4.9
			v-5.4H331.4z M325.5,119.1c1.9-1.7,3.3-3.6,4.3-5.7h-8.6C322,115.5,323.5,117.4,325.5,119.1z"/>
		<path fill="#FFFFFF" d="M366,100.4c-0.1,0.5-0.3,0.9-0.4,1.4c2.6,2.3,5.8,3.6,9.5,4.1l-1.5,3.1c-0.9-0.1-1.8-0.4-2.6-0.6v14.7H365
			c3.5,0.6,6.8,1.3,10,2.3l-1.2,3c-3.8-1.3-7.8-2.3-12-3.1l1.1-2.2h-8.1l1.4,1.9c-2.7,1.4-6.5,2.5-11.4,3.3l-1.7-2.9
			c4.3-0.6,7.6-1.4,10.1-2.3H347V108h8.8l-1.4-2.2c4.8-0.8,7.6-2.8,8.4-6.1L366,100.4z M353.6,103v3.2h-10.5V103H353.6z M352.8,96.5
			v3.2h-9v-3.2H352.8z M367.4,112.3v-1.5h-16.7v1.5H367.4z M367.4,116.2v-1.4h-16.7v1.4H367.4z M367.4,118.6h-16.7v1.6h16.7V118.6z
			 M355.4,103.5l-2.1-2.7c2.5-1.7,4.2-3.8,5.1-6.3l3.5,0.4c-0.2,0.6-0.4,1.1-0.6,1.6h12.5v2.6c-0.9,1.9-2,3.5-3.1,4.8l-2.5-2.1
			c0.6-0.6,1.2-1.4,1.7-2.2h-10.4C358.3,101,356.9,102.3,355.4,103.5z M369.9,108c-2.2-0.9-4.1-2.1-5.8-3.7c-1.4,1.7-3.3,3-5.9,3.7
			H369.9z"/>
		<path fill="#FFFFFF" d="M81.3,181.8l-0.9-3.6c1.9,0.1,3.6,0.2,5.3,0.2c0.8,0,1.3-0.5,1.3-1.5v-18.2h-0.4
			c-3.5,7.4-9.4,13.4-17.7,18.2l-2-3.2c7.2-3.9,12.5-8.9,15.8-15H67.7V155H87v-6.2h3.8v6.2h8.6v3.6h-8.6v19.2c0,2.7-1.3,4-3.7,4
			H81.3z"/>
		<path fill="#FFFFFF" d="M107.8,182.2l-2.9-2.6c1.4-2.4,2.1-5.4,2.1-9.1v-9.2h14.3v17.8c0,1.8-1.1,2.8-3.3,2.8h-3.2l-1-3.5
			c1.1,0.1,2.2,0.2,3.1,0.2c0.5,0,0.8-0.3,0.8-0.8v-3.1c-2.1,0.5-4.3,0.9-6.6,1.3l-0.7-2.7C110.1,176.9,109.2,179.8,107.8,182.2z
			 M123.6,158.7l-3,2.1c-0.4-0.7-0.8-1.4-1.2-2.2c-3.7,0.6-8.2,1-13.4,1.3l-1-3.1c0.6-0.2,1.2-0.5,1.7-0.9c2.2-2.6,3.7-5,4.8-7.2
			l3.6,1.1c-1.4,2.8-3.1,5.1-4.9,6.8c2.4-0.1,4.9-0.4,7.6-0.7c-0.6-0.9-1.2-1.9-1.9-2.8l2.9-1.8
			C120.9,154.1,122.5,156.6,123.6,158.7z M115.7,170.4c-1.2-0.3-2.4-0.5-3.7-0.7c-0.5-0.1-0.9-0.2-1.4-0.2v0.7
			c0,0.9-0.1,1.8-0.1,2.6c2.4-0.2,4.9-0.6,7.2-1v-7.2h-7v2.1l2.9,0.4c0.9,0.1,2,0.3,3.3,0.6L115.7,170.4z M127.6,181.5
			c-2.6,0-3.9-1.2-3.9-3.4V166h3.7v3.2l9-0.6v3.5l-9,0.6v4.6c0,0.6,0.4,0.9,1.2,0.9h4.1c0.5,0,0.9-0.2,1.1-0.5
			c0.3-0.4,0.5-1.5,0.6-3.5l3.4,1.1c-0.3,3.1-0.8,4.9-1.4,5.4c-0.6,0.5-1.6,0.8-3,0.8H127.6z M127.5,149.4v3.6l8.8-0.6v3.5l-8.8,0.6
			v3.9c0,0.7,0.4,1.1,1.2,1.1h8.5v3.5h-9.6c-2.5,0-3.8-1.2-3.8-3.6v-11.9H127.5z"/>
		<path fill="#FFFFFF" d="M148,166.2v-3.5c-0.8,0.7-1.5,1.4-2.3,2l-3-2.6c4.5-3.3,7.7-7.6,9.9-13l3.5,1.4c-2.1,5-4.8,9-8,12h22.5
			c-0.1,4.7-0.4,8.4-0.8,11.3c-0.4,2.9-1,4.9-2,6c-0.9,1.1-2.4,1.7-4.4,1.8h-6.7l-1-3.6c2,0.1,4,0.1,5.8,0.1c2,0,3.3-0.8,4-2.2
			c0.6-1.5,1-4.8,1.2-9.9h-8.6c-0.9,3.8-2,6.8-3.5,9c-1.8,2.5-4.5,4.8-8,6.8l-2.3-3c3.1-1.7,5.4-3.5,7-5.5c1.4-1.9,2.4-4.3,3.1-7.3
			H148z M166.3,149.8c1.9,4.9,5.1,8.8,9.8,11.8l-2.5,3.4c-4.3-2.9-7.6-6.8-9.8-11.5h-4.6v-3.7H166.3z"/>
		<path fill="#FFFFFF" d="M196.9,178.7c0,2.1-1.2,3.1-3.7,3.1H190l-0.9-3.3c1.2,0.1,2.2,0.1,3.1,0.1c0.9,0,1.3-0.4,1.3-1.2v-2.3
			c-1.8,0.6-3.8,1.2-5.9,1.8l-0.9-3.1c2.5-0.6,4.8-1.2,6.8-1.9v-5.9h-6.8v1.5c2,0.3,3.9,0.7,5.7,1.3l-1.1,2.7
			c-1.5-0.5-3.1-0.9-4.6-1.3c-0.1,4.9-1.2,8.9-3.1,12l-2.6-2.4c1.5-2.7,2.3-6,2.3-10.2v-6.8h13.7V178.7z M208.1,172.2
			c1.7,2.6,3.7,4.9,6,6.9l-2.6,3c-2.1-1.9-4-4.1-5.5-6.5c-1.9,2.6-4.1,4.8-6.9,6.6l-2.1-3.2c2.9-1.7,5.2-4,6.9-6.7
			c-1.3-2.4-2.3-5.1-3.1-7.9c-0.5,0.9-1,1.7-1.5,2.5l-2.3-2.8c0.5-0.8,0.9-1.7,1.4-2.6h-17.4V158h3.6v-2.7h-3.1V152h3.1v-3.1h3.5
			v3.1h3.9v-3.2h3.5v3.2h3v3.3h-3v2.7h3.5v2.2c1.3-3.2,2.2-7,2.7-11.4l3.6,0.6c-0.2,1.5-0.5,3-0.8,4.5h8.7v3.6h-1.8
			C211.3,163.2,210.1,168.1,208.1,172.2z M192,158v-2.7h-3.9v2.7H192z M206,168.4c1.2-3.2,1.9-6.8,2.1-10.9h-4.4
			c-0.6,2.1-1.3,4-2.1,5.7l1.9-1.1C204.1,164.3,205,166.4,206,168.4z"/>
		<path fill="#FFFFFF" d="M247.1,149.7v15.9c0,5.1,0.1,8.4,0.3,9.9c0.2,1.4,0.4,2.2,0.7,2.2c0.3,0,0.6-1.5,0.9-4.6l3,1.5
			c-0.5,2.9-1,4.8-1.5,5.8c-0.6,0.9-1.3,1.4-2,1.4c-1.8,0-3-1.1-3.8-3.3c-0.9-2.2-1.3-6.4-1.3-12.9v-12.4H224V165
			c-0.1,6.8-1,12.6-2.8,17.3l-3-2.4c1.4-3.9,2.1-8.9,2.2-14.9v-15.3H247.1z M242.3,155.2v3.3h-6.7v2.3h6.1v11.8h-6.2v3.9
			c1-0.2,2-0.4,2.8-0.6c-0.3-0.6-0.6-1.2-0.9-1.8l3-1.2c1.4,2.3,2.6,4.7,3.6,7.2l-3.4,1.5c-0.3-0.9-0.6-1.8-0.9-2.6
			c-3.5,0.9-8.4,1.6-14.6,2.1l-1.1-3.5c2.9-0.1,5.5-0.3,7.8-0.5v-4.5h-6.2v-11.8h6.2v-2.3h-6.7v-3.3H242.3z M232,164.1h-2.8v5.3h2.8
			V164.1z M238.4,164.1h-2.9v5.3h2.9V164.1z"/>
		<path fill="#FFFFFF" d="M268.5,149.9v2.9c-0.4,1.2-0.8,2.3-1.1,3.5c4-1.9,7.1-4.4,9.3-7.3h3.1c1.9,2.8,5.1,5.3,9.6,7.4l-2,3
			c-1.3-0.6-2.4-1.2-3.4-1.9v1.8h-11.7v-1.5c-1,0.6-2,1.2-3,1.7l-1.9-2.9c-0.7,1.9-1.4,3.9-2.1,5.9c1.9,3.3,3,6.2,3.2,8.6
			c0,1.7-0.3,3-1,3.7c-1,0.9-2.8,1.4-5.2,1.5l-1.2-3.6c0.8,0.1,1.5,0.2,2,0.2c0.7-0.1,1.2-0.2,1.4-0.5c0.2-0.2,0.3-0.6,0.3-1.3
			c0-2.4-1.1-5.1-3.2-8c1.4-3.6,2.5-6.8,3.3-9.7h-3.9v28.8h-3.7v-32.2H268.5z M269.1,181.9l-2.6-2.3c2.8-2.1,4.8-5,6.1-8.5l3.1,1.3
			c-0.3,0.8-0.6,1.5-1,2.2c1.2,0.8,2.2,1.6,3,2.4l-2.3,2.3c-0.6-0.7-1.3-1.5-2.2-2.2C272.1,179,270.7,180.6,269.1,181.9z M277.5,161
			v9.8H269V161H277.5z M274.5,163.9H272v4h2.5V163.9z M278.2,152.3c-1.1,1.4-2.3,2.7-3.6,3.8h7.3
			C280.3,154.9,279.1,153.6,278.2,152.3z M278.6,181.9l-2.6-2.3c2.8-2.1,4.8-4.9,6.2-8.4l3.1,1.3c-0.4,0.9-0.8,1.7-1.2,2.5
			c2,1.4,3.7,2.8,5.2,4.2l-2.4,2.4c-1.1-1.3-2.5-2.7-4.2-4.1C281.4,179.3,280.1,180.8,278.6,181.9z M287.8,161v9.8h-8.6V161H287.8z
			 M284.8,163.9h-2.6v4h2.6V163.9z"/>
		<path fill="#FFFFFF" d="M303.1,177.9H300v-2.1h-2v2.9H295v-27.6h8.2V177.9z M300,172.8v-18.6h-2v18.6H300z M313.5,149.9v2.6
			c-0.6,3.2-1.3,6.5-2.1,10c1.3,3.2,1.9,6,2.1,8.3c0,1.8-0.3,3.1-0.8,3.8c-0.8,0.9-2.1,1.4-4,1.5l-0.9-2.9v8.8h-3.1v-32.1H313.5z
			 M309.5,173c0.3-0.1,0.5-0.3,0.6-0.5c0.1-0.3,0.1-0.8,0.1-1.6c0-2.3-0.7-4.9-2-7.8c0.9-3.7,1.5-7.1,2.1-10.1h-2.5v19.8
			C308.5,172.9,309.1,173,309.5,173z M321.5,156.8V173h-7.2v-16.2H321.5z M327.4,150.1v3.5h-1.3v24.7c0,2.4-1.3,3.6-3.7,3.6h-3.7
			l-0.7-3.1c1.2,0.1,2.3,0.2,3.4,0.2c1.1,0,1.7-0.5,1.7-1.4v-24h-8.2v-3.5H327.4z M318.8,159.3H317v11.2h1.8V159.3z"/>
		<path fill="#FFFFFF" d="M350.4,173.6c0.5,0.5,0.8,1.2,0.8,1.9c0,0.8-0.3,1.5-0.8,2c-0.6,0.5-1.2,0.8-2,0.8c-0.8,0-1.4-0.3-1.9-0.8
			c-0.6-0.5-0.8-1.2-0.8-1.9c0-0.8,0.3-1.4,0.8-1.9c0.5-0.5,1.2-0.8,1.9-0.8C349.2,172.9,349.9,173.1,350.4,173.6z M350.8,152.6
			l-0.9,18.3h-3.1l-0.9-18.3H350.8z"/>
	</g>
	<path fill="#FFFFFF" d="M65.8,77.5c109.4-1.3,218.9,0.4,328.2,4.9c0,0,0.1-2.2,0-2.3C284.7,75.7,175.2,74,65.8,75.3
		C65.8,75.3,65.8,77.5,65.8,77.5L65.8,77.5z"/>
	<path fill="#FFFFFF" d="M65.8,128.6c109.2,3.5,218.7,4.5,328.1,2.8c0.1,0,0-2.2,0-2.3c-109.4,1.7-218.9,0.8-328.1-2.8
		C65.9,126.4,65.7,128.6,65.8,128.6L65.8,128.6z"/>
	<path fill="#FFFFFF" d="M65.8,190.9c95.3,3.5,190.9,4.5,286.3,2.8c0.1,0,0-2.2,0-2.3c-95.5,1.7-191,0.8-286.3-2.8
		C65.9,188.7,65.7,190.9,65.8,190.9L65.8,190.9z"/>
	<path fill="#D65B51" d="M257.7,215c0,0,26.3,39.3,67.2,45.6c0,0-18.8-18.9-11.5-55.8L257.7,215z"/>
</g>
<g>
</g>
<g>
</g>
<g>
</g>
<g>
</g>
<g>
</g>
<g>
</g>
<g>
</g>
<g>
</g>
<g>
</g>
<g>
</g>
<g>
</g>
<g>
</g>
<g>
</g>
<g>
</g>
<g>
</g>
</svg>
