<?xml version="1.0" encoding="utf-8"?>
<!-- Generator: Adobe Illustrator 18.0.0, SVG Export Plug-In . SVG Version: 6.00 Build 0)  -->
<!DOCTYPE svg PUBLIC "-//W3C//DTD SVG 1.1//EN" "http://www.w3.org/Graphics/SVG/1.1/DTD/svg11.dtd">
<svg version="1.1" id="Layer_1" xmlns="http://www.w3.org/2000/svg" xmlns:xlink="http://www.w3.org/1999/xlink" x="0px" y="0px"
	 viewBox="0 0 426.7 691" enable-background="new 0 0 426.7 691" xml:space="preserve">
<g>
	<rect x="163.8" y="224.2" fill="#67AE92" stroke="#65A68A" stroke-miterlimit="10" width="104.3" height="466.2"/>
	<g>
		<polygon fill="#89C2BB" points="181.6,441.7 182,441.3 181,441.1 		"/>
		<path fill="#89C2BB" d="M185.3,440.4l-0.3-0.7c-2.9,0-2-0.4-4.2,0.3c0.4,0.4,1.3,1.3,2.5,1.3c-0.1-0.3-1.1-0.7-0.8-1.1
			c0.8,0.3,0.7,0.6,1.7,0.9c1-0.5-0.7-0.5-0.2-1L185.3,440.4z"/>
		<path fill="#89C2BB" d="M182.6,439.3c0.5,0.1,1,0.2,1.4,0.3C183.5,439.5,182.9,439.1,182.6,439.3z"/>
		<path fill="#89C2BB" d="M182.3,438.9c0.2-0.4,1.1,0.1,1.2,0.1l-1.8-0.7L182.3,438.9z"/>
		<path fill="#89C2BB" d="M182.6,437.3c0-0.1-0.1-0.1-0.2-0.2C182.2,437.2,182.4,437.2,182.6,437.3z"/>
		<path fill="#89C2BB" d="M182.5,436.5c-0.7,0.1-0.3,0.3,0,0.6c0,0,0.1,0,0.1,0c0.6-0.2,1.9,0.2,1.5,0.5c0.3,0.4-1,0.2-0.2,0.6
			l1.1-0.3C184.9,437.4,183,436.8,182.5,436.5z"/>
		<path fill="#89C2BB" d="M182.6,437.3c0,0.1,0.1,0.1,0.1,0.2C182.9,437.5,182.8,437.4,182.6,437.3z"/>
		<polygon fill="#89C2BB" points="182.4,438.1 182.6,438.4 183.2,438.4 		"/>
		<path fill="#89C2BB" d="M182.6,435.2c1.8,0.3-0.3,0.9,1.1,1.2c0-0.5,1.4-0.8,2.3-0.6l-0.5-0.6C184.8,434.9,183.4,435,182.6,435.2z
			"/>
		<path fill="#89C2BB" d="M187.2,434.6c-0.1-0.1-0.2-0.1-0.3-0.2C187,434.5,187.1,434.6,187.2,434.6z"/>
		<path fill="#89C2BB" d="M184.5,431.3l1.7,1.6c-0.6-0.2-1.1-0.2-1.3-0.5c-0.3,0.6,0.8,0.8,0.6,1.2c-1.7,0,0-0.9-1.6-0.8
			c0,0.4,0,0.9,1.4,1.3l-1.2,0.4l1.9,0c0.6-0.2-1.4-0.6-0.1-0.6c0.8,0,0.9,0.3,1.1,0.4c-0.3-0.4,1.5-0.8,1.4-1.6
			C188.2,432.1,185.3,431.9,184.5,431.3z"/>
		<polygon fill="#89C2BB" points="186.5,431.5 187.2,431.5 186.3,431.4 		"/>
		<path fill="#89C2BB" d="M184.3,429.8l1.1,0.8c-0.2,0.1-0.6,0.1-0.9,0.1c0.4,0,1.1,0.3,1.5,0.3c1.7-0.1-0.4-0.9-0.7-1.3
			c0.9-0.9,0.9,0.1,2.5-0.1c-0.1,0.3-0.5,0.2-0.6,0.6c1.9-0.4,0.3-1.4-0.1-1.8c-0.2,0.1-0.7,0.1-0.6,0.3l-0.5-0.5
			C184.6,428.5,184.2,428.8,184.3,429.8z"/>
		<path fill="#89C2BB" d="M184.1,431c-0.1-0.3,0-0.4,0.3-0.4C184,430.7,183.6,430.7,184.1,431z"/>
		<path fill="#89C2BB" d="M187,428.2c-0.1,0-0.1,0.1,0,0.2C187.1,428.3,187.1,428.3,187,428.2z"/>
		<path fill="#89C2BB" d="M185,428.3l0.2-0.5l-0.8,0.1C184.5,428.1,184.5,428.3,185,428.3z"/>
		<path fill="#89C2BB" d="M189.4,409.8c-0.7,0-1,0.1-0.9,0.5c-0.9-0.1-0.7-0.6-1.2-0.9c-0.6,0.5-1.1-0.1-1.9-0.1
			c-0.1,0.6,1,0.9,0.7,1.5c-0.3-0.1-0.7-0.1-1,0c0.5,0.8,1.2,2.1,0.4,2.7c-0.4,0.6,0,1.2,0.3,2c-0.7,2.4,0,5-1.1,7.6l1.7,0.6
			c-0.9,0-0.1,0.6-1.2,0.4c0.2-0.1,0.1-0.3,0.1-0.5c-1.6,0.4,0,1.5-0.6,2.1c0.3,0,1.9,0,2.1,0.2c-1.9-0.3-0.1,0.8-2.3,0.8
			c-0.6,0.6,1.7,0.2,1.3,0.9c1.1,0.2,0.6-0.6,1.5-0.6c0.9,0.3-0.5,0.6,0.8,0.7c0.7-1.1-1.5-3.4-2-5.2l1.1,0.3
			c-0.7-1-0.6-2.4,1.3-2.9c-1.1,0.1,0.7-1.3-1.7-1.3c0.6-0.2,0.5-0.2,0.7-0.5l-0.7-0.2c0.1-0.5,1.2-0.3,1.2-0.8
			c-1,0.2-1.3-0.2-2.1-0.4c1.2-0.5,2.2-1.1,3.2-1.5c-0.3,0-0.7,0-1.2,0.2c0.4-0.3-0.6-0.4-0.9-0.5c0-0.4,1.3-0.2,1.9-0.1
			c0.5-0.6-2-1.1-1.1-1.5l-1,0.1c-0.2-0.7,1-1.1,0.7-1.9c1.5-0.2,1.2,0.7,1.8,1.1c0.3-0.1,0.4-0.4,0.9-0.5c-0.7-0.4-1.6-1-2.3-1.4
			C189.2,410.9,189.2,410,189.4,409.8z"/>
		<path fill="#89C2BB" d="M189.9,411.9c0.2,0.1,0.4,0.2,0.5,0.3c-0.1-0.1-0.2-0.2-0.1-0.3C190.2,411.8,190,411.8,189.9,411.9z"/>
		<path fill="#89C2BB" d="M189.4,409.8c0.1,0,0.1,0,0.2,0C189.4,409.7,189.4,409.7,189.4,409.8z"/>
		<path fill="#89C2BB" d="M185.3,413.6C185.4,413.6,185.4,413.5,185.3,413.6c0.1-0.1,0.1-0.2,0.2-0.2L185.3,413.6z"/>
		<path fill="#89C2BB" d="M190,414.6c-0.4,0.1-0.8,0.3-1.2,0.4C189.3,415,189.7,415,190,414.6z"/>
		<path fill="#89C2BB" d="M188.4,418.9c0.2,0.2,0.5,0.1,0.8,0.2C189.3,418.9,189,418.7,188.4,418.9z"/>
		<polygon fill="#89C2BB" points="190.2,411.1 190,410.5 189.7,410.3 		"/>
		<path fill="#89C2BB" d="M185.8,399.4c-1.3,0.4-0.6,1.2-0.9,1.7c0.6,1.1,2.7,0.4,2.8,1.4l-2.5-0.4c0.1,1.1-0.6,2.5,1.6,3.6
			c-0.3,0.1-0.7,0.2-1.1-0.1c0.1,0.7,3.6,0.7,2.7,1.5c-1.5-1-1.5,0.2-3.1-0.2l-0.2-0.2c0.1,0.6,0.9,1.5,0.8,1.8
			c0.7,0.1,1.7-0.2,1.7,0.3c0.1-0.2,0.9,0,1.5,0c-0.7-0.6-0.2-0.9-1-1.3c0.9-0.2,0.3,0.2,1.1,0l-0.8-0.5c0.2-0.3,0.8,0.4,1.1-0.1
			c-0.5-0.1-1-0.5-0.9-0.9l0.3,0.1c-0.3-0.3,0.2-0.7-1.3-0.7l1.4-0.2l-1,0c0.4-0.8,2.8-0.9,1.7-2c-0.3,0.2-0.8,0-1-0.2
			c-0.7,0.4,0.7,0.6,0.8,1c-1,0-2.1-0.8-2.7-0.4c1.2-0.5-0.1-1.1,2.4-1.1c0.2-0.7-0.9-1-0.3-1.6l0.4,0c-1.6-0.2,0.8-0.5-0.8-1.1
			l-0.4,0.3c-0.7-0.1-0.7-0.2-0.8-0.5c0.2,0,0.2,0,0.6,0c-1.1-0.2-1.3-0.9-1.6-1.1c-0.2,0.3,0.7,0.8,1,1.2
			C186.5,399.8,185.5,399.7,185.8,399.4z"/>
		<path fill="#89C2BB" d="M189.4,406.7l-0.5-0.3C189,406.5,189.1,406.6,189.4,406.7z"/>
		<path fill="#89C2BB" d="M188,396.6c0.3-0.4,1,0.2,1.5-0.2c-0.8-0.5-1.7,0.4-2.8-0.1c0.7-0.2-0.5-0.7-0.5-0.9
			c0.7,0.2,2.2,0.2,2.5,0.2c-0.4-0.2,0.4-0.5,0.4-0.8c-1,0.6-0.5-0.6-1.6-0.1c-0.9-0.1-1.5-0.8-0.8-1c0.7,0.1,0.5,0.3,0.5,0.4
			c1.2,0.2,0.7-0.4,1.8-0.4c-1.7-0.8-1.4-2.9-4.2-2.5c-0.6,0.2,0.1,0.4,0.2,0.7c0.6-0.6,1.5,0.1,2,0.2c-0.5,0.3,0.4,0.8-0.6,0.6
			l-1-0.5c-0.6,1.4-0.6,3.5-0.3,5.2l0.1-0.7c0.7,0.1,0.8,0.5,1.1,0.8l1.9-0.2c-0.2,0.2,0.1,0.4-0.5,0.4c0.8,0.3,1.2,0.2,1.9,0.1
			c0.3,0.6-0.4,0.6,0.7,1.1c1.6-0.8-1.2-0.9,0.2-1.8L188,396.6z"/>
		<polygon fill="#89C2BB" points="188.9,398.7 188,398.4 188.4,398.7 		"/>
		<path fill="#89C2BB" d="M184.9,398c0.4,0,0.6,0.2,1,0.2C186.1,397.8,185.6,397.8,184.9,398z"/>
		<path fill="#89C2BB" d="M189.3,393.2l-0.3-0.6l-0.4,0.3C189,392.9,189.2,393.1,189.3,393.2z"/>
		<path fill="#89C2BB" d="M184.7,389c0.1,0.8,1,1.2,0,2c1.2,0.5,2.3,0,3.3,0.2c0.3-0.4-1.7-0.5-2.1-1c1-0.1-0.2-0.7,0.1-1.1
			C185.6,389.1,185.1,389.1,184.7,389z"/>
		<path fill="#89C2BB" d="M188.9,386.6c0-0.3-0.7-0.8-0.2-1c0.6,0.1,0.9,0.3,0.7,0.5c1.5,0-0.2-0.4,0.8-0.7c-0.2,0-0.4,0.1-0.7,0
			c0.4-0.9-1.2-0.6-0.3-1.8c-0.4-0.2-0.4-0.4-1.4-0.4c1.3-0.6,1.2-0.3,2.4-1c-0.6,0-1.9,0.2-3.1,0.1c1.8-1.1-0.2-1.2,1.2-1.9
			c0.1,0.1,0.4,0.2,0.2,0.4c1.7,0-0.3-0.6,0.1-1l1.5,0.1c-0.2-0.4-1.1-1.1,0-1.5l0.7,0.1c-1.1-1-0.5-2.2-1-3l0.9-0.4
			c-1.1-1.2-0.6,1.1-2.7,0.2c2.7,0-0.9-0.6,0.3-1.2c1.1-0.3,0.5,0.7,1.8,0.4c-1.4-0.2-0.4-0.4-0.8-0.7c1.3,0.1,0.2-0.7,1.7-0.4
			l-2.4-1.3c0.7-0.2,0.6-0.5,0.5-0.8c0,0.7-1.9-0.3-2.6,0.4c0.6,1.1,0.9,2.9,0.2,4.3c1.8,0.2-0.1,0.9,1.4,1.2
			c-0.6,0-1.1,0.1-1.6,0.1c0.3,0.9,1-0.2,1.6,0.1c0.2,0.4-0.9,0.6-1.5,0.6c-0.1,0.6,0.5,0.1,1.4,0.5l-2,0.3c0.5,2,1.7,4.6,0.4,6.8
			l1.2-0.1c-0.7,1,2.6,1.9-0.1,2.6l1,0.4c-0.6-0.2-1.9,0.1-2.7-0.3c0.4,0.3-0.1,0.6,0.3,0.9l0.6-0.5c1,0.4,0.4,0.8-0.6,0.8
			c1.2,0.8,2.2-0.3,3.2-0.4c-2.2-1.2,2.3-0.9,1.4-2C190,386,189.5,386.7,188.9,386.6z"/>
		<path fill="#89C2BB" d="M185.4,387.7c0.1,0.1,0.2,0.1,0.3,0.2C185.7,387.8,185.6,387.8,185.4,387.7z"/>
		<path fill="#89C2BB" d="M188.9,371.1c0-0.1,0-0.2-0.1-0.3C188.5,370.7,188.7,370.9,188.9,371.1z"/>
		<path fill="#89C2BB" d="M186,389.1C186,389.1,186,389.1,186,389.1C186,389.1,186,389.1,186,389.1L186,389.1z"/>
		<polygon fill="#89C2BB" points="189,389.8 189.1,389.5 188.5,389.6 		"/>
		<path fill="#89C2BB" d="M190.6,368.2l-0.6,0C190.1,368.2,190.3,368.2,190.6,368.2z"/>
		<path fill="#89C2BB" d="M191.3,360.1l0,0.2C191.3,360.3,191.3,360.2,191.3,360.1z"/>
		<path fill="#89C2BB" d="M190.4,340.7c-0.4-0.5-0.8-1.2-1.8-1.6l0.6,0c-0.3-0.3-1.3-1.2-2.5-0.6l0.6,0.1c1,0.7-1.1,0.5-1.5,1
			c0.3,0.6,2.7,1,2.1,1.6c0.1,0.2-0.6,0.2-1.1,0.1c-0.2,0.6,1.7,0.8,1.9,1.2c-4.9,0.1,1.3,1.7-1.8,2.5c0.4,0.5-0.1,1.2,0.9,1.9
			c-1.2-0.4-0.1,0.6-1.5,0.4c2.8,0.3-1.3,1.9,2.3,2.1c-1,0.9,0.2,0-0.6,1.1c-0.4,0-0.4-0.2-0.5-0.3c-0.8,0.4,1.5,0.7-0.1,1
			c-0.3,0.8,1,0.2,1.9,0.7c-0.4,0.9-0.9,0.6-2.4,1c1.7,0.1,0.9,0.6,1.7,1.1c0.1-0.1,0.4-0.7,1.1-0.3c-0.3,1,1.1,0.8,1.5,1.8
			c-1.9,0.4,0-0.9-1.5-0.2c-0.9-0.6-0.8-1.1-2.1-1.4c-0.1,0.8,0.1,1.8,0.9,2.7c-0.3,0.5-0.9-0.3-1.1,0.1c-0.9,0.8,1.9,1.4,1,2.1
			l-1-0.2c1.3,0.5-0.3,1.5,0.4,2.4c0.5-0.1,0.8-0.1,1.1,0c-2.4-0.1,1.2,1.2-0.5,1.9c1.6,0,2.4,0.8,2.5,1.3c-0.4,0.2-1.1,0.1-1.5,0.1
			c0.9-0.8-1.7-0.8-2.4-1.5c0.8,0.6-0.1,1.4,1,1.9l-1.2-0.2c-0.2,0.7,2.7,0.7,1.5,1.5l-0.9-0.1c0.1,1.5-1.6,3.3,0.3,4.6
			c0.7,0.1,2.5-0.4,3.1-0.4c-0.6-0.8-1.9-1.2-2.5-1.8l1.4,0.1c-1-0.2-1.5-0.9-2.3-0.5c-0.7-0.5,1.2-0.3,0.5-0.9
			c1.5,0.1,1.6,0.4,2.8,0.5l-0.7-0.5c0.6,0.2,0.5-0.3,1.1-0.1c-1.7-0.9,0.7-1.2,0-2.1l-0.3,0.5c-0.8,0-0.7-0.3-0.9-0.5
			c1.2-0.2,1-0.3,1.5-0.8c-0.6-0.4-2.1-0.7-2-1.2c1.5,0.2,0.9-0.8,2.2-0.9c-1.5-0.2-0.5-1-1.4-1.1c-0.3-0.3-0.1-0.7,0.7-0.6
			c0,0,0.2,0.1,0.3,0.2l0.1-0.3c0.2,0,0.3,0,0.3,0.1c0-0.2-1.1-0.3-0.3-0.6c0.4,0,0.4,0.2,0.6,0.3c0.3-0.7-2.3-1.2-0.9-1.8
			c-0.7-0.1-0.8-0.9-2.4-0.8c0.6-0.2,1.9-0.1,1.7-0.6c-1.4-0.4,0.5-0.6-0.3-1.1c1.4,0.6,0.4,0,1.8,0.6c0.6-0.4-1.3-1-1-1.6
			c0.3-0.1,0.7,0,1.1-0.1c-0.5-0.3-1.6-0.6-0.4-0.8l-1,0c0.5-0.4,0.2-1.1,1.3-1.5l-1.8-0.6c2-0.7,0.3-1.8-1.4-2.4
			c0.1-0.3,0.4-0.7,0.8-0.7c0.1,0.1,0.4,0.2,0.7,0.3c0.1-0.4,1.2-0.9-0.4-1.1c-0.5-0.4,1.1-0.3,1.3-0.6c-2.2-0.9,1.7-2.5-1.7-2.8
			c0,0.3-0.7,1-0.6,1.7c-0.4-0.2-1.1-0.1-1.1-0.3c-0.1-0.7,1.1-1,0.6-1.7l2.1,0.1C192.4,342.7,187.3,341.6,190.4,340.7z"/>
		<path fill="#89C2BB" d="M190.2,349.2l1.1-0.5l-0.9,0C190.5,349,190.5,349.1,190.2,349.2z"/>
		<path fill="#89C2BB" d="M190.4,348.8c-0.1-0.1-0.3-0.2-0.4-0.3c0,0.1,0,0.2,0.2,0.3L190.4,348.8z"/>
		<path fill="#89C2BB" d="M190.1,338.8c0.1-0.1,0.3-0.3,0-0.5C189.8,338.4,189.7,338.7,190.1,338.8z"/>
		<polygon fill="#89C2BB" points="189.4,338.2 189.1,338.5 189.3,338.5 		"/>
		<path fill="#89C2BB" d="M187.6,324.1l-1.3-0.8c0.7-0.1-0.1-1,1-0.7c-1.5-0.5,0-1.5-2.3-1.1c0.8,2.3-0.5,5.4,1.4,8l-0.9-0.4
			c1.8,1.4-1.9,1.9,1.5,3l-1.8-0.2c-0.5,0.6,2.6,1.2,0.7,1.8l0.7-0.1c0,0.2-0.3,0.2-0.3,0.4l0.3-0.1c0.7,0.5,0.6,0.7,0.1,1.2
			c-0.6,0-0.2-0.2-0.4-0.4c-0.6,0.2,0.6,0.6,0.6,0.9c-0.5,0.3-0.8,0-1.1-0.1c0.8,1.1-1.1,1.5,1.6,2.3c0.5,0.1,0.9-0.3,1.1,0.1
			c0.8-0.7-0.2-1.3-0.9-1.9l0,0.2c-2.6-0.5,0.6-0.4-0.5-1.2c1.1,0.2,1,0.6,1.6,0.7c2-0.9-1.5-1.3,1-1.9l0.1,0.1
			c0.3-0.1-0.2-0.4-0.5-0.6c-0.3,0.1-0.5,0.3-0.7,0.4c-0.2-0.2-1.4-0.3-1.9-0.4c1.1-0.2-0.6-0.3,0-0.7c1.1-0.1,1,0.3,1.5,0.5
			l-0.7-0.5c-0.1-0.4,1.2-0.4,1.7-0.6c-0.8-0.4-0.6,0.2-1.7-0.1c1.3-0.4,1-2.4-0.1-3.3c0.2,0.3,1.1,0.1,1,0.5
			c0.2-0.1-0.3-0.6-1.1-0.6c-0.7-0.6-0.2-1.4,0.5-2l-0.8,0.2c-1.4-0.5,1-1.3,0.2-2.1l0,0c-0.2-0.3-2.2-0.5-1.8-1
			C186.7,323.9,186.7,324.1,187.6,324.1z"/>
		<path fill="#89C2BB" d="M185.7,321.1l1.1,0.3c0.3-0.3-1.2-0.7-1.9-0.6c0.2,0.2-0.3,0.5,0.4,0.5
			C185.5,321.2,185.9,321.2,185.7,321.1z"/>
		<path fill="#89C2BB" d="M185.5,315.2c-0.3-0.1-0.7-0.1-1-0.1c0.2,1.2,0.6,2.8-0.3,3.3c-0.3,0.4,1.4,0.5,1.8,1l-1.1,0.2
			c0.7,0.3-0.5,1.2,1.4,0.8c0.2,0-0.9-0.2-0.6-0.5l0.7,0l-0.2-0.6l0.8,0.2c1.1-0.8-2.4-0.5-1.7-1.5l1.6,0c0.1-0.6-0.5-0.9,0.5-1.5
			c0,0-0.8,0-0.5,0.1c-0.1,0.1-0.7,0.2-1.2,0.2c-1.3-0.9,1,0.1,1.6-0.5c-1.1-0.8-2.1-2.3-0.8-2.8c-1,0.4-2-0.2-1.9-0.6
			c0.6-0.2,1,0.1,1.5,0.2c0.2-0.2,0.6-0.4,0.3-0.6c-0.9,0.3-2.1,0.1-2.7-0.4C182.7,313.3,185.7,314.1,185.5,315.2z"/>
		<path fill="#89C2BB" d="M184.1,314.9c0.1,0.1,0.2,0.2,0.4,0.2c0-0.1,0-0.3,0-0.4L184.1,314.9z"/>
	</g>
	<g>
		<polygon fill="#89C2BB" points="205.6,494.4 206.1,493.9 205.2,493.5 		"/>
		<path fill="#89C2BB" d="M209.7,492.7c-0.1-0.3-0.1-0.7-0.2-1c-2.9-0.1-2-0.6-4.3,0.4c0.3,0.6,1.1,1.9,2.2,2c0-0.4-1-1.2-0.5-1.6
			c0.8,0.4,0.5,1,1.5,1.5c1.1-0.7-0.6-0.7,0-1.6L209.7,492.7z"/>
		<path fill="#89C2BB" d="M207.1,491c0.5,0.2,0.9,0.4,1.3,0.4C208,491.2,207.5,490.7,207.1,491z"/>
		<path fill="#89C2BB" d="M206.9,490.4c0.2-0.6,1,0.2,1.2,0.2l-1.7-1L206.9,490.4z"/>
		<path fill="#89C2BB" d="M207.5,488c0-0.1-0.1-0.2-0.1-0.3C207,487.8,207.3,487.9,207.5,488z"/>
		<path fill="#89C2BB" d="M207.4,486.8c-0.7,0.1-0.3,0.5-0.1,0.9c0,0,0.1,0,0.1,0c0.6-0.2,1.9,0.3,1.4,0.8c0.2,0.6-1.1,0.3-0.3,1
			l1.2-0.5C209.7,488,207.9,487.2,207.4,486.8z"/>
		<path fill="#89C2BB" d="M207.5,488c0,0.1,0.1,0.2,0,0.3C207.8,488.3,207.6,488.1,207.5,488z"/>
		<polygon fill="#89C2BB" points="207.1,489.2 207.3,489.6 207.9,489.6 		"/>
		<path fill="#89C2BB" d="M207.6,484.9c1.8,0.4-0.4,1.4,1,1.7c0-0.8,1.4-1.2,2.4-0.9l-0.4-1C209.9,484.3,208.5,484.5,207.6,484.9z"
			/>
		<path fill="#89C2BB" d="M212.4,483.7c-0.1-0.1-0.2-0.2-0.3-0.2C212.2,483.6,212.2,483.6,212.4,483.7z"/>
		<path fill="#89C2BB" d="M209.7,478.9l1.7,2.2c-0.6-0.2-1.1-0.2-1.3-0.7c-0.3,0.9,0.8,1.1,0.6,1.8c-1.7,0.1,0-1.3-1.5-1
			c0,0.5,0,1.3,1.4,1.9l-1.2,0.7l1.9-0.1c0.6-0.3-1.4-0.8-0.1-0.9c0.8,0,0.9,0.3,1.1,0.6c-0.3-0.6,1.6-1.4,1.5-2.5
			C213.4,479.7,210.5,479.8,209.7,478.9z"/>
		<polygon fill="#89C2BB" points="211.7,479 212.4,478.9 211.5,478.9 		"/>
		<path fill="#89C2BB" d="M209.4,476.6l1.1,1.1c-0.2,0.1-0.6,0.1-0.9,0.2c0.4,0,1.1,0.3,1.5,0.3c1.7-0.4-0.5-1.3-0.7-1.9
			c0.8-1.5,0.9,0.1,2.5-0.4c-0.1,0.4-0.5,0.4-0.6,1c1.9-0.8,0.3-2.1-0.2-2.7c-0.2,0.2-0.7,0.2-0.6,0.5l-0.5-0.6
			C209.7,474.7,209.3,475.2,209.4,476.6z"/>
		<path fill="#89C2BB" d="M209.3,478.5c-0.1-0.4,0-0.5,0.3-0.6C209.2,478,208.8,478.1,209.3,478.5z"/>
		<path fill="#89C2BB" d="M212.1,473.9c-0.1,0.1-0.1,0.2,0,0.3C212.2,474.1,212.2,474,212.1,473.9z"/>
		<path fill="#89C2BB" d="M210.1,474.4l0.2-0.7l-0.8,0.3C209.6,474,209.7,474.4,210.1,474.4z"/>
		<path fill="#89C2BB" d="M212.1,446c-0.7,0.1-1,0.4-0.9,0.9c-0.9,0-0.8-0.8-1.3-1.1c-0.6,0.8-1.1,0-1.9,0.2
			c-0.1,0.8,1.1,1.2,0.9,2.1c-0.3,0-0.7,0-1,0.1c0.6,1.1,1.5,2.9,0.8,3.9c-0.3,1,0.2,1.8,0.6,2.9c-0.3,3.7,0.7,7.5-0.1,11.5l1.8,0.6
			c-0.9,0.2,0,0.9-1.1,0.8c0.2-0.2,0-0.4,0-0.7c-1.5,0.9,0.1,2.3-0.4,3.3c0.3-0.1,1.9-0.3,2.1,0.1c-2-0.1,0,1.2-2.2,1.5
			c-0.6,1,1.7,0.1,1.4,1.1c1.2,0.1,0.6-1,1.5-1.2c0.9,0.4-0.4,1,0.8,0.9c0.6-1.7-1.8-5-2.5-7.6l1.1,0.3c-0.8-1.3-0.9-3.5,0.9-4.6
			c-1,0.3,0.5-2-1.9-1.7c0.5-0.4,0.4-0.5,0.6-0.9l-0.8-0.1c0-0.7,1.1-0.6,1-1.4c-1,0.5-1.3,0-2.2-0.2c1.1-0.9,2-2,2.9-2.8
			c-0.3,0.1-0.7,0.2-1.1,0.5c0.3-0.6-0.6-0.4-1-0.6c-0.1-0.5,1.2-0.5,1.9-0.5c0.4-1-2.1-1.3-1.3-2l-1,0.3c-0.3-1,0.8-1.8,0.4-2.9
			c1.4-0.6,1.3,0.8,1.9,1.3c0.3-0.2,0.4-0.7,0.8-0.9c-0.7-0.4-1.8-1.2-2.5-1.7C212.1,447.8,212,446.4,212.1,446z"/>
		<path fill="#89C2BB" d="M212.9,449c0.2,0.1,0.4,0.2,0.6,0.3c-0.1-0.1-0.2-0.2-0.1-0.4C213.2,448.9,213.1,449,212.9,449z"/>
		<path fill="#89C2BB" d="M212.1,446c0.1,0,0.1,0,0.2,0C212.2,445.9,212.1,445.9,212.1,446z"/>
		<path fill="#89C2BB" d="M208.7,452.4c0,0,0.1-0.1,0.1-0.1c0-0.1,0-0.1,0-0.2L208.7,452.4z"/>
		<path fill="#89C2BB" d="M213.4,453c-0.4,0.2-0.7,0.5-1.1,0.9C212.8,453.8,213.2,453.7,213.4,453z"/>
		<path fill="#89C2BB" d="M212.5,459.7c0.2,0.2,0.5,0.1,0.8,0.2C213.4,459.5,213,459.4,212.5,459.7z"/>
		<polygon fill="#89C2BB" points="213.2,447.8 212.8,447 212.5,446.7 		"/>
		<path fill="#89C2BB" d="M207.3,431.3c-1.2,0.8-0.4,1.8-0.7,2.7c0.7,1.6,2.7,0.1,2.9,1.7l-2.6-0.2c0.2,1.6-0.3,3.8,2,5
			c-0.3,0.1-0.7,0.4-1.1,0c0.1,1,3.7,0.4,2.9,1.8c-1.6-1.2-1.5,0.5-3.1,0.2l-0.2-0.2c0.2,0.9,1.1,2,1,2.6c0.7,0,1.7-0.5,1.8,0.2
			c0.1-0.3,0.9-0.2,1.5-0.2c-0.8-0.8-0.3-1.2-1.2-1.7c0.8-0.5,0.3,0.3,1.1-0.2l-0.8-0.6c0.2-0.5,0.9,0.5,1-0.3
			c-0.5-0.1-1.1-0.7-1-1.2l0.3,0.2c-0.4-0.4,0.1-1.1-1.4-0.8l1.4-0.6l-1,0.1c0.4-1.2,2.7-1.7,1.4-3.3c-0.3,0.4-0.8,0.1-1-0.1
			c-0.7,0.7,0.8,0.8,0.9,1.4c-1,0.1-2.2-0.9-2.7-0.1c1.1-0.9-0.2-1.6,2.2-2c0.1-1-1.1-1.3-0.5-2.4l0.4,0c-1.6-0.2,0.7-0.8-1-1.6
			l-0.3,0.5c-0.7,0-0.7-0.3-0.8-0.6c0.2,0,0.2,0,0.6-0.1c-1.2-0.1-1.4-1.2-1.7-1.4c-0.2,0.5,0.8,1.1,1.1,1.6
			C208.1,431.7,207.1,431.8,207.3,431.3z"/>
		<path fill="#89C2BB" d="M211.8,441.5l-0.6-0.3C211.3,441.3,211.5,441.4,211.8,441.5z"/>
		<path fill="#89C2BB" d="M209.2,426.8c0.3-0.6,1,0.2,1.5-0.4c-0.8-0.6-1.6,0.8-2.8,0.2c0.7-0.4-0.5-1-0.5-1.3
			c0.7,0.3,2.2,0.1,2.5,0c-0.4-0.2,0.3-0.8,0.4-1.2c-0.9,1-0.6-0.9-1.6,0.1c-0.9-0.1-1.6-1-0.9-1.4c0.7,0,0.5,0.3,0.6,0.6
			c1.2,0.2,0.7-0.7,1.8-0.8c-1.7-1-1.6-4.1-4.4-3.2c-0.5,0.3,0.1,0.6,0.3,1c0.5-1,1.5,0,2,0.1c-0.4,0.4,0.4,1.2-0.6,1l-1-0.7
			c-0.5,2.2-0.3,5.3,0.2,7.8l0-1.1c0.8,0.1,0.8,0.6,1.2,1l1.8-0.6c-0.1,0.3,0.1,0.6-0.5,0.6c0.8,0.4,1.3,0.2,1.9-0.1
			c0.3,0.8-0.4,1,0.8,1.6c1.5-1.4-1.3-1.1,0-2.7L209.2,426.8z"/>
		<polygon fill="#89C2BB" points="210.3,429.7 209.4,429.4 209.8,429.9 		"/>
		<path fill="#89C2BB" d="M206.2,429.3c0.4,0,0.6,0.2,1,0.2C207.5,428.8,206.9,428.9,206.2,429.3z"/>
		<path fill="#89C2BB" d="M210.1,421.5l-0.3-0.8l-0.4,0.5C209.9,421.2,210,421.4,210.1,421.5z"/>
		<path fill="#89C2BB" d="M205.3,415.8c0.2,1.1,1.1,1.6,0.1,2.9c1.2,0.6,2.3-0.3,3.3,0c0.3-0.6-1.8-0.5-2.2-1.2c1-0.3-0.2-1,0-1.6
			C206.2,415.9,205.7,415.9,205.3,415.8z"/>
		<path fill="#89C2BB" d="M209.3,411.9c0-0.5-0.8-1-0.3-1.5c0.7,0.1,0.9,0.4,0.7,0.7c1.5-0.2-0.2-0.6,0.8-1.1
			c-0.2,0-0.4,0.3-0.7,0.1c0.3-1.4-1.2-0.8-0.4-2.6c-0.4-0.3-0.4-0.5-1.4-0.5c1.2-1,1.2-0.5,2.3-1.7c-0.6,0-1.9,0.4-3.1,0.4
			c1.7-1.7-0.2-1.8,1.1-2.9c0.1,0.1,0.4,0.3,0.2,0.6c1.7-0.1-0.3-0.9,0-1.6l1.5,0.1c-0.2-0.6-1.2-1.6-0.1-2.3l0.7,0.2
			c-1.1-1.5-0.6-3.2-1.1-4.4l0.9-0.7c-1.1-1.7-0.5,1.7-2.7,0.4c2.7-0.1-0.9-0.9,0.2-1.9c1.1-0.4,0.5,1,1.8,0.5
			c-1.4-0.2-0.4-0.5-0.8-1.1c1.3,0.1,0.2-1.1,1.7-0.7l-2.4-1.9c0.7-0.3,0.6-0.8,0.5-1.2c0,1-1.9-0.3-2.6,0.8c0.6,1.6,1,4.4,0.3,6.4
			c1.8,0.3,0,1.3,1.4,1.7c-0.6,0-1.1,0.2-1.6,0.2c0.4,1.3,1-0.3,1.6,0c0.2,0.6-0.9,1-1.5,1c-0.1,0.9,0.5,0.1,1.4,0.6l-2,0.6
			c0.5,2.9,1.9,6.8,0.7,10.1l1.2-0.3c-0.7,1.5,2.7,2.5,0.1,3.9l1.1,0.5c-0.6-0.2-1.8,0.3-2.7-0.1c0.4,0.4,0,0.8,0.3,1.3l0.6-0.8
			c1,0.5,0.4,1.1-0.5,1.3c1.3,1.1,2.1-0.7,3.2-0.9c-2.3-1.6,2.2-1.6,1.3-3.1C210.4,410.9,209.9,411.9,209.3,411.9z"/>
		<path fill="#89C2BB" d="M205.9,413.8c0.1,0.1,0.2,0.2,0.3,0.2C206.2,414,206.1,413.9,205.9,413.8z"/>
		<path fill="#89C2BB" d="M208.7,388.8c0-0.1,0-0.3-0.1-0.4C208.4,388.2,208.6,388.4,208.7,388.8z"/>
		<path fill="#89C2BB" d="M206.6,415.9C206.6,415.9,206.6,415.9,206.6,415.9C206.6,415.9,206.6,415.9,206.6,415.9L206.6,415.9z"/>
		<polygon fill="#89C2BB" points="209.6,416.6 209.7,416.2 209.1,416.3 		"/>
		<path fill="#89C2BB" d="M210.4,384.4l-0.6,0C209.9,384.4,210.1,384.4,210.4,384.4z"/>
		<path fill="#89C2BB" d="M211.2,372.4l0,0.3C211.2,372.5,211.2,372.4,211.2,372.4z"/>
		<path fill="#89C2BB" d="M211.4,343.5c-0.3-0.8-0.7-1.9-1.7-2.5l0.6,0.1c-0.3-0.4-1.2-1.9-2.4-1.1l0.5,0.3c0.9,1.1-1.1,0.6-1.6,1.4
			c0.2,1,2.6,1.7,2,2.5c0.1,0.4-0.6,0.3-1.1,0.1c-0.2,0.8,1.6,1.3,1.8,1.9c-4.9-0.1,1.2,2.6-2,3.7c0.3,0.8-0.1,1.8,0.8,2.9
			c-1.2-0.6-0.2,0.9-1.5,0.6c2.8,0.4-1.4,2.8,2.1,3.2c-1.1,1.3,0.2,0.1-0.7,1.6c-0.4,0-0.4-0.3-0.5-0.4c-0.8,0.6,1.5,1-0.2,1.5
			c-0.3,1.2,1,0.3,1.9,1.1c-0.5,1.3-1,0.9-2.5,1.5c1.7,0.2,0.8,0.9,1.7,1.6c0.1-0.2,0.5-1,1.1-0.4c-0.3,1.5,1.1,1.3,1.5,2.7
			c-1.9,0.6,0-1.4-1.5-0.2c-0.8-0.9-0.7-1.6-2.1-2.2c-0.2,1.2,0.1,2.7,0.8,4c-0.3,0.7-0.9-0.4-1.1,0.2c-0.9,1.3,1.8,2.1,1,3.1
			l-1-0.3c1.3,0.7-0.4,2.3,0.3,3.5c0.5-0.1,0.8-0.2,1.1-0.1c-2.4-0.1,1.2,1.7-0.6,2.8c1.6,0,2.4,1.1,2.5,1.9
			c-0.4,0.2-1.1,0.2-1.5,0.1c0.9-1.2-1.7-1.2-2.3-2.2c0.8,0.8-0.1,2.1,1,2.8l-1.2-0.3c-0.2,1.1,2.7,1,1.5,2.1l-0.9-0.1
			c0,2.3-1.6,5,0.3,6.9c0.7,0.2,2.5-0.7,3.1-0.7c-0.6-1.1-1.9-1.8-2.5-2.6l1.4,0.1c-1-0.2-1.5-1.2-2.3-0.7c-0.7-0.7,1.2-0.5,0.5-1.3
			c1.5,0.1,1.6,0.6,2.8,0.6l-0.7-0.7c0.6,0.2,0.5-0.4,1.1-0.2c-1.7-1.3,0.7-1.7,0-3.1l-0.3,0.7c-0.8,0-0.7-0.4-0.9-0.8
			c1.2-0.3,1-0.5,1.5-1.2c-0.6-0.6-2.1-1-2-1.8c1.5,0.2,0.9-1.3,2.2-1.4c-1.5-0.2-0.5-1.5-1.4-1.7c-0.3-0.4-0.1-1,0.7-1
			c0,0.1,0.2,0.2,0.3,0.3l0.1-0.4c0.2,0,0.3,0,0.3,0.1c0.1-0.4-1.1-0.4-0.3-0.9c0.4,0,0.4,0.3,0.5,0.5c0.3-1-2.3-1.8-0.8-2.6
			c-0.7-0.2-0.7-1.3-2.4-1.2c0.6-0.3,1.9-0.1,1.7-1c-1.4-0.5,0.5-0.9-0.3-1.6c1.4,0.9,0.4,0,1.7,0.8c0.6-0.5-1.2-1.5-0.9-2.4
			c0.3-0.1,0.7-0.1,1.1-0.1c-0.5-0.4-1.6-0.9-0.4-1.2l-1,0c0.5-0.6,0.3-1.6,1.4-2.3l-1.8-0.9c2-1,0.3-2.6-1.3-3.6
			c0.1-0.4,0.5-1,0.9-1c0.1,0.1,0.4,0.3,0.7,0.5c0.1-0.6,1.2-1.3-0.3-1.7c-0.4-0.7,1.1-0.4,1.4-0.8c-2.1-1.4,1.8-3.6-1.5-4.2
			c0,0.5-0.8,1.5-0.7,2.5c-0.4-0.3-1.1-0.1-1.1-0.5c-0.1-1,1.2-1.4,0.7-2.5l2.1,0.3C213.2,346.5,208.3,344.6,211.4,343.5z"/>
		<path fill="#89C2BB" d="M210.6,356.2l1.1-0.7l-0.9,0C210.9,355.8,210.9,356,210.6,356.2z"/>
		<path fill="#89C2BB" d="M210.8,355.5c-0.1-0.2-0.2-0.3-0.4-0.4c0,0.2,0,0.3,0.2,0.5L210.8,355.5z"/>
		<path fill="#89C2BB" d="M211.3,340.6c0.1-0.2,0.3-0.4,0.1-0.8C211.1,340,210.9,340.4,211.3,340.6z"/>
		<polygon fill="#89C2BB" points="210.7,339.7 210.3,340.1 210.6,340.1 		"/>
		<path fill="#89C2BB" d="M210.6,318.5l-1.2-1.3c0.7-0.1,0-1.5,1.1-1c-1.5-0.8,0.2-2.2-2.1-1.8c0.4,3.5-1.3,8,0.3,12.1l-0.8-0.7
			c1.6,2.2-2.2,2.6,1.2,4.6l-1.8-0.4c-0.6,0.9,2.4,2,0.5,2.8l0.7,0c0,0.3-0.4,0.3-0.4,0.6l0.3-0.1c0.7,0.7,0.5,1.1,0,1.8
			c-0.6,0-0.2-0.3-0.4-0.6c-0.6,0.3,0.6,0.9,0.5,1.4c-0.5,0.4-0.8-0.1-1.1-0.1c0.7,1.6-1.3,2.2,1.3,3.5c0.5,0.1,0.9-0.3,1.1,0.2
			c0.9-1-0.1-1.9-0.7-2.9l0,0.3c-2.5-0.9,0.6-0.5-0.4-1.8c1,0.4,1,0.9,1.5,1.2c2.1-1.2-1.3-2.1,1.3-2.8l0.1,0.1
			c0.3-0.2-0.2-0.6-0.4-0.9c-0.3,0.1-0.5,0.4-0.8,0.6c-0.2-0.3-1.3-0.6-1.8-0.7c1.2-0.3-0.5-0.5,0.1-1c1.1-0.1,0.9,0.6,1.5,0.8
			l-0.7-0.7c0-0.6,1.2-0.5,1.8-0.8c-0.8-0.6-0.6,0.3-1.7-0.3c1.4-0.6,1.2-3.4,0.3-4.9c0.1,0.5,1.1,0.3,0.9,0.8c0.3-0.2-0.2-1-1-1
			c-0.6-1,0-2.2,0.8-3l-0.8,0.2c-1.3-0.9,1.2-1.8,0.5-3.2l0,0c-0.1-0.4-2.1-1-1.6-1.7C209.7,318.1,209.6,318.5,210.6,318.5z"/>
		<path fill="#89C2BB" d="M209.2,313.8l1.1,0.5c0.3-0.4-1.1-1.2-1.8-1.1c0.2,0.3-0.3,0.7,0.3,0.8C208.9,314,209.3,314,209.2,313.8z"
			/>
		<path fill="#89C2BB" d="M209.9,305c-0.2-0.2-0.7-0.2-1-0.3c-0.1,1.9,0.1,4.2-0.8,4.8c-0.4,0.6,1.3,0.9,1.6,1.7l-1.2,0.2
			c0.7,0.5-0.7,1.7,1.2,1.4c0.2,0-0.8-0.5-0.5-0.8l0.6,0.1l-0.1-0.9l0.8,0.3c1.3-1-2.3-1-1.5-2.4l1.6,0.2c0.2-0.9-0.3-1.5,0.8-2.2
			c0,0-0.8-0.1-0.5,0.1c-0.1,0.1-0.8,0.3-1.2,0.1c-1.1-1.5,0.9,0.3,1.7-0.6c-1-1.3-1.7-3.7-0.3-4.2c-1,0.5-2-0.5-1.8-1.2
			c0.6-0.2,0.9,0.3,1.4,0.5c0.2-0.3,0.6-0.5,0.4-0.8c-0.9,0.3-2.1-0.1-2.6-0.9C207.4,301.8,210.3,303.4,209.9,305z"/>
		<path fill="#89C2BB" d="M208.6,304.4c0,0.2,0.2,0.3,0.3,0.3c0-0.2,0-0.4,0-0.6L208.6,304.4z"/>
	</g>
	<g>
		<polygon fill="#89C2BB" points="225.9,513.8 226.3,513.3 225.3,513 		"/>
		<path fill="#89C2BB" d="M229.8,511.6l-0.3-1c-2.9,0.2-2-0.5-4.3,0.8c0.4,0.6,1.2,1.9,2.4,1.9c-0.1-0.4-1.1-1.1-0.7-1.6
			c0.8,0.4,0.6,1,1.7,1.4c1-0.8-0.6-0.7-0.1-1.7L229.8,511.6z"/>
		<path fill="#89C2BB" d="M227.1,510c0.5,0.2,1,0.3,1.4,0.4C228,510.2,227.4,509.6,227.1,510z"/>
		<path fill="#89C2BB" d="M226.9,509.4c0.2-0.6,1.1,0.1,1.2,0.1l-1.8-1L226.9,509.4z"/>
		<path fill="#89C2BB" d="M227.3,506.8c0-0.1-0.1-0.2-0.1-0.3C226.9,506.5,227.1,506.7,227.3,506.8z"/>
		<path fill="#89C2BB" d="M227.3,505.5c-0.7,0.2-0.3,0.5-0.1,1c0,0,0.1,0,0.1,0c0.6-0.3,1.9,0.2,1.4,0.7c0.2,0.6-1.1,0.4-0.3,1.1
			l1.2-0.6C229.6,506.7,227.7,505.9,227.3,505.5z"/>
		<path fill="#89C2BB" d="M227.3,506.8c0,0.1,0.1,0.2,0,0.3C227.6,507,227.5,506.9,227.3,506.8z"/>
		<polygon fill="#89C2BB" points="227,508.1 227.2,508.4 227.8,508.4 		"/>
		<path fill="#89C2BB" d="M227.4,503.4c1.8,0.4-0.4,1.5,1,1.8c0-0.8,1.4-1.4,2.4-1l-0.4-1C229.7,502.8,228.4,503,227.4,503.4z"/>
		<path fill="#89C2BB" d="M232.2,502.1c-0.1-0.1-0.2-0.2-0.3-0.3C232,502,232.1,502.1,232.2,502.1z"/>
		<path fill="#89C2BB" d="M229.7,497l1.6,2.4c-0.6-0.3-1.1-0.3-1.3-0.8c-0.4,0.9,0.8,1.2,0.5,2c-1.7,0,0-1.4-1.5-1.1
			c0,0.6,0,1.4,1.3,2l-1.3,0.7l1.9-0.1c0.6-0.3-1.3-0.9,0-1c0.8,0,0.9,0.4,1.1,0.6c-0.3-0.6,1.6-1.4,1.5-2.6
			C233.4,498,230.5,498,229.7,497z"/>
		<polygon fill="#89C2BB" points="231.7,497.2 232.5,497.1 231.5,497.1 		"/>
		<path fill="#89C2BB" d="M229.6,494.5l1,1.3c-0.2,0.1-0.6,0.1-0.9,0.2c0.4,0,1.1,0.4,1.5,0.4c1.7-0.3-0.4-1.4-0.6-2.1
			c0.9-1.5,0.9,0.2,2.5-0.3c-0.1,0.4-0.5,0.4-0.7,1c2-0.8,0.4-2.2,0-2.9c-0.2,0.2-0.7,0.1-0.6,0.5l-0.5-0.7
			C230,492.5,229.6,493,229.6,494.5z"/>
		<path fill="#89C2BB" d="M229.4,496.6c-0.1-0.4,0.1-0.6,0.3-0.6C229.2,496,228.9,496.1,229.4,496.6z"/>
		<path fill="#89C2BB" d="M232.5,491.8c-0.1,0.1-0.1,0.2,0,0.3C232.5,492.1,232.6,492,232.5,491.8z"/>
		<path fill="#89C2BB" d="M230.4,492.2l0.3-0.8l-0.8,0.2C229.9,491.8,230,492.2,230.4,492.2z"/>
		<path fill="#89C2BB" d="M236.1,462.1c-0.7,0-1.1,0.3-1,0.9c-0.9-0.2-0.6-0.9-1.1-1.4c-0.7,0.8-1.1-0.1-1.9,0
			c-0.2,0.9,1,1.4,0.6,2.3c-0.3-0.1-0.7-0.1-1,0c0.5,1.2,1.1,3.3,0.2,4.3c-0.4,1.1-0.1,1.9,0.2,3.2c-0.8,3.9-0.4,8.1-1.7,12.3
			l1.7,0.8c-0.9,0.1-0.1,1-1.2,0.8c0.2-0.2,0.1-0.4,0.1-0.7c-1.6,0.7-0.1,2.4-0.8,3.5c0.3-0.1,1.9-0.1,2.1,0.3
			c-1.9-0.3-0.1,1.3-2.4,1.4c-0.7,1,1.7,0.2,1.3,1.3c1.1,0.3,0.7-1,1.6-1.1c0.9,0.5-0.5,1,0.7,1.1c0.8-1.8-1.2-5.4-1.6-8.3l1.1,0.4
			c-0.6-1.5-0.4-3.8,1.5-4.8c-1.1,0.2,0.8-2-1.6-2.1c0.6-0.3,0.5-0.4,0.8-0.9l-0.7-0.2c0.1-0.7,1.2-0.5,1.2-1.3
			c-1.1,0.4-1.3-0.2-2.1-0.5c1.2-0.8,2.3-1.9,3.3-2.6c-0.3,0-0.7,0.1-1.2,0.3c0.4-0.5-0.6-0.5-0.9-0.7c0-0.6,1.3-0.4,2-0.3
			c0.5-1-1.9-1.7-1-2.4l-1.1,0.2c-0.2-1.1,1.1-1.9,0.8-3.1c1.5-0.4,1.1,1.1,1.7,1.6c0.3-0.2,0.4-0.7,0.9-0.8
			c-0.7-0.6-1.6-1.5-2.2-2.2C235.9,464,236,462.5,236.1,462.1z"/>
		<path fill="#89C2BB" d="M236.6,465.5c0.2,0.2,0.4,0.3,0.5,0.4c-0.1-0.1-0.2-0.2-0.1-0.4C236.8,465.4,236.7,465.4,236.6,465.5z"/>
		<path fill="#89C2BB" d="M236.1,462.1c0.1,0,0.1,0,0.2,0C236.2,462,236.2,462.1,236.1,462.1z"/>
		<path fill="#89C2BB" d="M231.9,468.5c0,0,0.1-0.1,0.1-0.1c0-0.1,0-0.1,0.1-0.2L231.9,468.5z"/>
		<path fill="#89C2BB" d="M236.5,469.9c-0.4,0.2-0.8,0.5-1.2,0.8C235.8,470.6,236.1,470.5,236.5,469.9z"/>
		<path fill="#89C2BB" d="M234.6,476.9c0.2,0.2,0.5,0.1,0.8,0.3C235.5,476.8,235.2,476.6,234.6,476.9z"/>
		<polygon fill="#89C2BB" points="236.9,464.2 236.7,463.3 236.5,462.9 		"/>
		<path fill="#89C2BB" d="M233.1,445.7c-1.3,0.7-0.6,1.9-0.9,2.8c0.5,1.8,2.7,0.4,2.7,2.1l-2.5-0.5c0,1.7-0.7,4,1.4,5.6
			c-0.3,0.1-0.7,0.4-1.1-0.1c0,1.1,3.6,0.9,2.6,2.3c-1.5-1.5-1.5,0.3-3.1-0.2l-0.2-0.2c0.1,1,0.8,2.3,0.7,2.9
			c0.6,0.1,1.7-0.4,1.7,0.5c0.2-0.3,0.9-0.1,1.5,0c-0.7-0.9-0.2-1.4-1-2c0.9-0.4,0.2,0.4,1.1-0.1l-0.7-0.8c0.3-0.5,0.8,0.6,1.1-0.2
			c-0.5-0.1-1-0.8-0.8-1.5l0.3,0.2c-0.3-0.5,0.2-1.1-1.3-1l1.5-0.4l-1,0c0.5-1.3,2.8-1.6,1.8-3.4c-0.3,0.4-0.8,0-1-0.3
			c-0.7,0.7,0.7,0.9,0.7,1.6c-1,0-2-1.2-2.7-0.5c1.2-0.8,0-1.7,2.4-1.9c0.2-1.1-0.9-1.6-0.2-2.6l0.4,0.1c-1.6-0.3,0.8-0.8-0.8-1.8
			l-0.4,0.5c-0.7-0.1-0.7-0.4-0.7-0.8c0.2,0.1,0.2,0.1,0.6,0c-1.1-0.2-1.2-1.5-1.6-1.6c-0.2,0.5,0.7,1.2,0.9,1.8
			C233.8,446.2,232.9,446.2,233.1,445.7z"/>
		<path fill="#89C2BB" d="M236.4,457.2l-0.5-0.4C235.9,456.9,236.1,457.1,236.4,457.2z"/>
		<path fill="#89C2BB" d="M235.5,441c0.3-0.7,1,0.3,1.5-0.3c-0.7-0.8-1.7,0.7-2.8-0.1c0.7-0.4-0.4-1.1-0.4-1.4
			c0.7,0.4,2.2,0.3,2.5,0.2c-0.4-0.3,0.4-0.8,0.5-1.3c-1,1-0.5-1-1.6,0c-0.9-0.1-1.5-1.2-0.8-1.6c0.7,0.1,0.5,0.4,0.5,0.7
			c1.2,0.3,0.7-0.7,1.9-0.7c-1.6-1.2-1.3-4.6-4.1-3.8c-0.6,0.3,0.1,0.7,0.2,1.1c0.6-1.1,1.5,0.1,2,0.2c-0.5,0.4,0.4,1.3-0.6,1
			l-1-0.8c-0.7,2.3-0.8,5.6-0.5,8.4l0.1-1.2c0.7,0.2,0.7,0.8,1.1,1.2l1.9-0.4c-0.2,0.3,0.1,0.7-0.6,0.6c0.7,0.5,1.2,0.3,1.9,0.1
			c0.3,0.9-0.5,1,0.7,1.8c1.6-1.4-1.1-1.3,0.3-2.9L235.5,441z"/>
		<polygon fill="#89C2BB" points="236.3,444.3 235.4,443.9 235.8,444.5 		"/>
		<path fill="#89C2BB" d="M232.3,443.4c0.4,0,0.6,0.2,1,0.3C233.6,443,233,443.1,232.3,443.4z"/>
		<path fill="#89C2BB" d="M236.9,435.5l-0.3-0.9l-0.4,0.6C236.6,435.1,236.8,435.3,236.9,435.5z"/>
		<path fill="#89C2BB" d="M232.5,428.9c0.1,1.2,0.9,1.8-0.1,3.1c1.2,0.8,2.3-0.2,3.3,0.2c0.3-0.7-1.7-0.7-2.1-1.5
			c1-0.2-0.2-1.1,0.1-1.7C233.4,429.1,232.9,429.1,232.5,428.9z"/>
		<path fill="#89C2BB" d="M236.8,424.9c0-0.6-0.7-1.2-0.2-1.6c0.6,0.1,0.9,0.5,0.7,0.8c1.5-0.1-0.2-0.6,0.8-1.2
			c-0.2,0-0.4,0.2-0.7,0.1c0.4-1.5-1.2-0.9-0.2-2.8c-0.4-0.3-0.4-0.6-1.3-0.6c1.3-1,1.3-0.5,2.4-1.8c-0.6,0-1.9,0.4-3.1,0.3
			c1.8-1.8-0.1-1.9,1.2-3.1c0.1,0.1,0.4,0.3,0.2,0.6c1.7-0.1-0.3-1,0.1-1.7l1.5,0.1c-0.2-0.6-1.1-1.8,0-2.5l0.7,0.2
			c-1-1.6-0.4-3.5-0.9-4.9l0.9-0.7c-1-1.9-0.6,1.8-2.7,0.4c2.7-0.1-0.8-1,0.3-2c1.1-0.5,0.5,1.1,1.8,0.6c-1.4-0.3-0.4-0.6-0.7-1.2
			c1.3,0.2,0.2-1.2,1.7-0.8l-2.3-2.1c0.8-0.3,0.7-0.9,0.5-1.3c-0.1,1.1-1.9-0.4-2.6,0.8c0.5,1.8,0.9,4.7,0.1,6.9
			c1.8,0.3-0.1,1.4,1.4,1.8c-0.6,0-1.1,0.2-1.6,0.2c0.3,1.4,1-0.3,1.6,0.1c0.2,0.6-0.9,1.1-1.5,1c-0.2,1,0.5,0.1,1.4,0.7l-2,0.6
			c0.4,3.2,1.5,7.4,0.2,10.9l1.2-0.2c-0.8,1.6,2.5,2.9-0.2,4.2l1,0.6c-0.6-0.3-1.9,0.2-2.7-0.3c0.4,0.5-0.1,0.9,0.2,1.4l0.6-0.8
			c1,0.6,0.3,1.2-0.6,1.3c1.2,1.3,2.2-0.6,3.2-0.8c-2.2-1.9,2.3-1.6,1.5-3.3C237.9,423.9,237.4,425,236.8,424.9z"/>
		<path fill="#89C2BB" d="M233.3,426.8c0.1,0.1,0.2,0.2,0.3,0.3C233.5,427,233.4,426.9,233.3,426.8z"/>
		<path fill="#89C2BB" d="M237.2,399.9c0-0.1,0-0.3,0-0.5C236.9,399.3,237.1,399.5,237.2,399.9z"/>
		<path fill="#89C2BB" d="M233.8,429.1C233.8,429.1,233.8,429.1,233.8,429.1C233.8,429.1,233.8,429.1,233.8,429.1L233.8,429.1z"/>
		<polygon fill="#89C2BB" points="236.8,430.1 236.9,429.6 236.3,429.7 		"/>
		<path fill="#89C2BB" d="M239,395.2l-0.6,0C238.5,395.2,238.8,395.2,239,395.2z"/>
		<path fill="#89C2BB" d="M239.8,382.2l0,0.3C239.9,382.4,239.9,382.3,239.8,382.2z"/>
		<path fill="#89C2BB" d="M239,350.9c-0.4-0.9-0.8-2-1.8-2.6l0.6,0.1c-0.3-0.5-1.3-1.9-2.5-1l0.6,0.2c1,1.1-1.1,0.8-1.5,1.6
			c0.3,1,2.7,1.6,2.2,2.5c0.1,0.4-0.6,0.3-1.1,0.2c-0.2,0.9,1.7,1.3,1.9,1.9c-4.9,0.2,1.3,2.8-1.8,4.1c0.4,0.8-0.1,2,0.9,3.1
			c-1.2-0.6-0.1,1-1.5,0.8c2.8,0.3-1.3,3.1,2.3,3.3c-1,1.4,0.2,0.1-0.6,1.7c-0.4,0-0.4-0.3-0.5-0.4c-0.8,0.7,1.5,1-0.1,1.6
			c-0.3,1.3,1,0.2,1.9,1.1c-0.4,1.4-0.9,1-2.4,1.7c1.7,0.2,0.9,1,1.7,1.7c0.1-0.2,0.4-1.1,1.1-0.5c-0.3,1.6,1.1,1.3,1.5,2.9
			c-1.9,0.7,0-1.5-1.5-0.2c-0.9-1-0.7-1.7-2.1-2.3c-0.1,1.3,0.1,2.9,0.9,4.3c-0.3,0.8-0.9-0.4-1.1,0.2c-0.9,1.4,1.9,2.2,1,3.3
			l-1-0.3c1.3,0.7-0.3,2.5,0.3,3.8c0.5-0.2,0.8-0.3,1.1-0.1c-2.4-0.1,1.2,1.8-0.6,3.1c1.6-0.1,2.4,1.2,2.5,2
			c-0.4,0.3-1.1,0.2-1.5,0.2c1-1.3-1.7-1.3-2.3-2.4c0.8,0.9-0.1,2.3,1,3l-1.2-0.3c-0.2,1.2,2.7,1.1,1.5,2.3l-0.9-0.2
			c0,2.5-1.7,5.3,0.2,7.4c0.7,0.2,2.5-0.7,3.1-0.8c-0.6-1.2-1.8-1.9-2.5-2.9l1.4,0.1c-1-0.2-1.5-1.4-2.3-0.8
			c-0.7-0.8,1.3-0.5,0.5-1.4c1.5,0.1,1.6,0.6,2.8,0.7l-0.7-0.8c0.6,0.3,0.5-0.4,1.1-0.2c-1.7-1.4,0.7-1.9,0-3.3l-0.3,0.8
			c-0.8,0-0.7-0.5-0.9-0.8c1.2-0.3,1-0.6,1.5-1.3c-0.6-0.6-2.1-1-2-1.9c1.5,0.2,0.9-1.4,2.2-1.5c-1.5-0.2-0.5-1.7-1.4-1.8
			c-0.3-0.5-0.1-1.1,0.7-1c0,0.1,0.2,0.2,0.3,0.3l0.1-0.4c0.2,0,0.3,0,0.3,0.1c0-0.4-1.1-0.4-0.3-0.9c0.4,0,0.4,0.3,0.5,0.5
			c0.3-1.1-2.3-1.9-0.9-2.8c-0.7-0.2-0.8-1.4-2.4-1.2c0.6-0.3,1.9-0.2,1.7-1.1c-1.4-0.6,0.5-1-0.3-1.7c1.4,0.9,0.4,0,1.8,0.8
			c0.6-0.6-1.2-1.6-1-2.6c0.3-0.1,0.7-0.1,1.1-0.2c-0.5-0.4-1.6-0.9-0.4-1.3l-1,0c0.5-0.7,0.2-1.7,1.3-2.5l-1.8-0.9
			c2-1.2,0.3-2.9-1.4-3.9c0.1-0.4,0.4-1.1,0.8-1.1c0.1,0.1,0.4,0.3,0.7,0.5c0.1-0.7,1.2-1.5-0.4-1.8c-0.5-0.7,1.1-0.5,1.3-1
			c-2.2-1.4,1.7-4-1.7-4.5c0,0.6-0.7,1.6-0.6,2.7c-0.4-0.3-1.1-0.1-1.1-0.5c-0.1-1.1,1.1-1.6,0.5-2.7l2.1,0.1
			C241,354,235.9,352.3,239,350.9z"/>
		<path fill="#89C2BB" d="M238.8,364.6l1.1-0.8l-0.9,0.1C239.1,364.2,239.1,364.4,238.8,364.6z"/>
		<path fill="#89C2BB" d="M239,363.9c-0.1-0.2-0.3-0.3-0.4-0.5c0,0.2,0,0.3,0.2,0.5L239,363.9z"/>
		<path fill="#89C2BB" d="M238.6,347.8c0.1-0.2,0.3-0.5,0-0.8C238.4,347.2,238.3,347.6,238.6,347.8z"/>
		<polygon fill="#89C2BB" points="238,346.9 237.7,347.3 237.9,347.3 		"/>
		<path fill="#89C2BB" d="M236,324.1l-1.3-1.2c0.6-0.2-0.2-1.6,1-1.2c-1.5-0.7-0.1-2.4-2.3-1.7c0.8,3.6-0.4,8.7,1.6,12.9l-0.9-0.7
			c1.8,2.2-1.9,3,1.6,4.8l-1.8-0.2c-0.5,1,2.6,1.9,0.7,3l0.7-0.1c0,0.3-0.3,0.4-0.3,0.7l0.3-0.1c0.7,0.7,0.6,1.2,0.2,1.9
			c-0.6,0.1-0.2-0.3-0.4-0.6c-0.6,0.3,0.6,0.9,0.6,1.5c-0.5,0.4-0.8,0-1.1-0.1c0.8,1.7-1.1,2.5,1.6,3.7c0.5,0.1,0.9-0.4,1.1,0.2
			c0.8-1.1-0.2-2-0.9-3l0,0.3c-2.6-0.8,0.6-0.6-0.5-1.9c1.1,0.3,1,0.9,1.6,1.1c2-1.5-1.5-2.1,1-3.1l0.1,0.1c0.2-0.2-0.2-0.6-0.5-1
			c-0.3,0.1-0.5,0.5-0.7,0.7c-0.2-0.3-1.4-0.5-1.9-0.6c1.1-0.4-0.6-0.5,0-1.1c1.1-0.2,1,0.5,1.5,0.7l-0.7-0.7
			c-0.1-0.7,1.1-0.7,1.7-1c-0.8-0.6-0.6,0.3-1.7-0.1c1.3-0.7,0.9-3.8-0.1-5.3c0.2,0.5,1.1,0.2,1,0.8c0.2-0.2-0.3-1-1.1-1
			c-0.7-1-0.2-2.3,0.5-3.3l-0.8,0.3c-1.4-0.8,1-2,0.2-3.4l0,0c-0.2-0.5-2.2-0.8-1.8-1.6C235,323.7,235,324.2,236,324.1z"/>
		<path fill="#89C2BB" d="M234,319.2l1.1,0.4c0.2-0.5-1.2-1.1-2-1c0.2,0.3-0.2,0.8,0.4,0.8C233.7,319.4,234.1,319.4,234,319.2z"/>
		<path fill="#89C2BB" d="M233.6,309.8c-0.3-0.2-0.7-0.1-1-0.2c0.2,2,0.7,4.4-0.1,5.3c-0.3,0.7,1.4,0.8,1.8,1.6l-1.1,0.4
			c0.7,0.4-0.5,1.9,1.4,1.3c0.2-0.1-0.9-0.4-0.6-0.8l0.7,0l-0.3-0.9l0.8,0.3c1.1-1.3-2.5-0.8-1.7-2.3l1.6,0c0.1-1-0.5-1.5,0.5-2.4
			c0,0-0.8,0-0.5,0.2c-0.1,0.2-0.7,0.4-1.2,0.3c-1.3-1.5,1,0.2,1.6-0.9c-1.2-1.3-2.2-3.7-0.9-4.5c-1,0.6-2-0.2-2-1
			c0.6-0.4,1,0.2,1.5,0.3c0.2-0.3,0.6-0.6,0.3-1c-0.9,0.5-2.1,0.2-2.7-0.6C230.7,306.7,233.7,308,233.6,309.8z"/>
		<path fill="#89C2BB" d="M232.2,309.3c0.1,0.2,0.2,0.3,0.4,0.3c0-0.2,0-0.5-0.1-0.7L232.2,309.3z"/>
	</g>
	<g>
		<polygon fill="#89C2BB" points="252.3,364 252.6,363.8 251.7,363.8 		"/>
		<path fill="#89C2BB" d="M255.9,363.2l-0.4-0.3c-2.9,0.1-2.1-0.1-4.1,0.4c0.4,0.2,1.4,0.5,2.6,0.5c-0.1-0.1-1.2-0.3-0.9-0.4
			c0.8,0.1,0.7,0.2,1.8,0.3c0.9-0.3-0.7-0.2-0.3-0.5L255.9,363.2z"/>
		<path fill="#89C2BB" d="M253,362.9c0.5,0,1,0.1,1.4,0.1C253.9,362.9,253.3,362.8,253,362.9z"/>
		<path fill="#89C2BB" d="M252.7,362.7c0.1-0.2,1.1,0,1.2,0l-1.9-0.2L252.7,362.7z"/>
		<path fill="#89C2BB" d="M252.9,362c0,0-0.1-0.1-0.2-0.1C252.4,361.9,252.7,362,252.9,362z"/>
		<path fill="#89C2BB" d="M252.7,361.6c-0.6,0.1-0.3,0.2,0,0.3c0,0,0.1,0,0.1,0c0.5-0.1,1.9,0,1.5,0.2c0.3,0.2-1,0.1-0.2,0.3
			l1.1-0.2C255.1,361.9,253.2,361.7,252.7,361.6z"/>
		<path fill="#89C2BB" d="M252.9,362C252.9,362,253,362.1,252.9,362C253.2,362,253.1,362,252.9,362z"/>
		<polygon fill="#89C2BB" points="252.7,362.4 253,362.5 253.6,362.4 		"/>
		<path fill="#89C2BB" d="M252.6,361c1.8,0.1-0.2,0.4,1.2,0.5c-0.1-0.2,1.3-0.4,2.3-0.4l-0.6-0.3C254.8,360.8,253.5,360.9,252.6,361
			z"/>
		<path fill="#89C2BB" d="M257.2,360.6c-0.2,0-0.3,0-0.3-0.1C257,360.5,257.1,360.5,257.2,360.6z"/>
		<path fill="#89C2BB" d="M254.1,359.2l1.8,0.6c-0.6-0.1-1.2,0-1.4-0.2c-0.3,0.3,0.9,0.3,0.7,0.5c-1.7,0-0.1-0.4-1.6-0.3
			c0,0.2,0.1,0.4,1.5,0.5l-1.2,0.2l1.9-0.1c0.5-0.1-1.4-0.2-0.2-0.3c0.8,0,0.9,0.1,1.1,0.2c-0.4-0.2,1.5-0.4,1.2-0.7
			C257.9,359.4,255,359.4,254.1,359.2z"/>
		<polygon fill="#89C2BB" points="256.2,359.2 256.9,359.2 255.9,359.2 		"/>
		<path fill="#89C2BB" d="M253.8,358.5l1.1,0.3c-0.2,0-0.5,0-0.9,0.1c0.4,0,1.1,0.1,1.5,0.1c1.7-0.1-0.5-0.4-0.8-0.6
			c0.8-0.4,0.9,0,2.5-0.1c0,0.1-0.5,0.1-0.6,0.3c1.9-0.2,0.2-0.6-0.3-0.8c-0.2,0-0.7,0.1-0.5,0.2l-0.5-0.2
			C253.9,357.9,253.6,358.1,253.8,358.5z"/>
		<path fill="#89C2BB" d="M253.8,359.1c-0.1-0.1,0-0.2,0.2-0.2C253.6,358.9,253.2,359,253.8,359.1z"/>
		<path fill="#89C2BB" d="M256.3,357.7C256.2,357.7,256.2,357.7,256.3,357.7C256.4,357.8,256.4,357.7,256.3,357.7z"/>
		<path fill="#89C2BB" d="M254.3,357.8l0.2-0.2l-0.8,0.1C253.8,357.7,253.9,357.8,254.3,357.8z"/>
		<path fill="#89C2BB" d="M257.2,349.4c-0.7,0-1,0.1-0.9,0.2c-0.9-0.1-0.7-0.3-1.2-0.4c-0.6,0.2-1.1,0-1.9,0
			c-0.1,0.3,1.1,0.4,0.8,0.7c-0.3,0-0.7,0-1,0c0.6,0.4,1.4,0.9,0.6,1.2c-0.3,0.3,0.1,0.5,0.5,0.9c-0.5,1.1,0.4,2.3-0.5,3.5l1.8,0.2
			c-0.9,0,0,0.3-1.2,0.2c0.2-0.1,0-0.1,0-0.2c-1.6,0.2,0.1,0.7-0.5,1c0.3,0,1.9,0,2.1,0.1c-2-0.1,0,0.4-2.2,0.4
			c-0.6,0.3,1.7,0,1.4,0.4c1.2,0.1,0.6-0.3,1.4-0.3c0.9,0.1-0.4,0.3,0.8,0.3c0.6-0.5-1.8-1.5-2.4-2.3l1.1,0.1
			c-0.8-0.4-0.8-1.1,1-1.3c-1,0,0.6-0.6-1.8-0.6c0.5-0.1,0.5-0.1,0.7-0.3L255,353c0-0.2,1.2-0.1,1.1-0.4c-1,0.1-1.3-0.1-2.1-0.2
			c1.1-0.2,2.1-0.5,3.1-0.7c-0.3,0-0.7,0-1.1,0.1c0.4-0.2-0.6-0.2-0.9-0.2c0-0.2,1.3-0.1,1.9-0.1c0.4-0.3-2.1-0.5-1.2-0.7l-1,0
			c-0.2-0.3,0.9-0.5,0.6-0.9c1.4-0.1,1.2,0.3,1.8,0.5c0.3-0.1,0.4-0.2,0.9-0.2c-0.7-0.2-1.7-0.4-2.4-0.6
			C257.1,349.9,257,349.5,257.2,349.4z"/>
		<path fill="#89C2BB" d="M257.9,350.3c0.2,0,0.4,0.1,0.6,0.1c-0.1,0-0.2-0.1-0.1-0.1C258.1,350.3,258,350.3,257.9,350.3z"/>
		<path fill="#89C2BB" d="M257.2,349.4c0.1,0,0.1,0,0.2,0C257.2,349.3,257.2,349.3,257.2,349.4z"/>
		<path fill="#89C2BB" d="M253.4,351.1C253.5,351.1,253.5,351.1,253.4,351.1c0.1-0.1,0.1-0.1,0.1-0.1L253.4,351.1z"/>
		<path fill="#89C2BB" d="M258.2,351.5c-0.4,0.1-0.7,0.1-1.1,0.2C257.5,351.7,257.9,351.7,258.2,351.5z"/>
		<path fill="#89C2BB" d="M256.9,353.5c0.2,0.1,0.5,0,0.8,0.1C257.8,353.5,257.5,353.4,256.9,353.5z"/>
		<polygon fill="#89C2BB" points="258.1,350 257.8,349.7 257.5,349.6 		"/>
		<path fill="#89C2BB" d="M252.9,344.6c-1.2,0.2-0.5,0.5-0.8,0.8c0.6,0.5,2.7,0.2,2.8,0.7l-2.6-0.2c0.1,0.5-0.4,1.1,1.8,1.6
			c-0.3,0-0.7,0.1-1.1-0.1c0.1,0.3,3.6,0.3,2.8,0.7c-1.6-0.5-1.5,0.1-3.1-0.1l-0.2-0.1c0.2,0.3,1,0.7,0.9,0.8c0.7,0,1.7-0.1,1.7,0.2
			c0.1-0.1,0.9,0,1.5,0c-0.7-0.3-0.3-0.4-1.1-0.6c0.9-0.1,0.3,0.1,1.1,0l-0.8-0.2c0.2-0.1,0.9,0.2,1,0c-0.5,0-1-0.3-0.9-0.4l0.3,0.1
			c-0.3-0.1,0.1-0.3-1.3-0.3l1.4-0.1l-1,0c0.4-0.4,2.7-0.4,1.5-0.9c-0.3,0.1-0.8,0-1-0.1c-0.7,0.2,0.7,0.3,0.8,0.5
			c-1,0-2.1-0.4-2.7-0.2c1.2-0.2-0.1-0.5,2.3-0.5c0.2-0.3-1-0.5-0.4-0.7l0.4,0c-1.6-0.1,0.7-0.2-0.9-0.5l-0.4,0.1
			c-0.7,0-0.7-0.1-0.8-0.2c0.2,0,0.2,0,0.6,0c-1.2-0.1-1.3-0.4-1.7-0.5c-0.2,0.1,0.7,0.4,1,0.5C253.7,344.8,252.7,344.8,252.9,344.6
			z"/>
		<path fill="#89C2BB" d="M257,348l-0.6-0.1C256.5,347.9,256.7,347.9,257,348z"/>
		<path fill="#89C2BB" d="M255,343.4c0.3-0.2,1,0.1,1.5-0.1c-0.8-0.2-1.7,0.1-2.8-0.1c0.7-0.1-0.5-0.3-0.5-0.4
			c0.7,0.1,2.2,0.1,2.5,0.1c-0.4-0.1,0.3-0.2,0.4-0.4c-1,0.3-0.6-0.3-1.6-0.1c-0.9-0.1-1.6-0.4-0.9-0.5c0.7,0,0.5,0.1,0.5,0.2
			c1.2,0.1,0.7-0.2,1.8-0.2c-1.7-0.4-1.6-1.3-4.3-1.2c-0.5,0.1,0.1,0.2,0.2,0.3c0.6-0.3,1.5,0.1,2,0.1c-0.5,0.1,0.4,0.4-0.6,0.3
			l-1-0.3c-0.6,0.6-0.4,1.6,0,2.4l0.1-0.3c0.8,0.1,0.8,0.2,1.1,0.4l1.8-0.1c-0.1,0.1,0.1,0.2-0.5,0.2c0.8,0.2,1.2,0.1,1.9,0.1
			c0.3,0.3-0.4,0.3,0.8,0.5c1.5-0.3-1.2-0.4,0.1-0.8L255,343.4z"/>
		<polygon fill="#89C2BB" points="256,344.3 255.1,344.2 255.5,344.4 		"/>
		<path fill="#89C2BB" d="M251.9,344c0.4,0,0.6,0.1,1,0.1C253.2,343.9,252.6,343.9,251.9,344z"/>
		<path fill="#89C2BB" d="M256.1,341.8l-0.3-0.3l-0.4,0.1C255.8,341.7,256,341.8,256.1,341.8z"/>
		<path fill="#89C2BB" d="M251.4,339.8c0.2,0.4,1,0.5,0.1,0.9c1.2,0.2,2.3,0,3.3,0.2c0.3-0.2-1.8-0.3-2.1-0.5c1,0-0.2-0.3,0-0.5
			C252.2,339.9,251.8,339.9,251.4,339.8z"/>
		<path fill="#89C2BB" d="M255.4,338.8c0-0.2-0.8-0.4-0.3-0.5c0.6,0,0.9,0.2,0.7,0.2c1.5,0-0.2-0.2,0.8-0.3c-0.2,0-0.4,0.1-0.7,0
			c0.4-0.4-1.2-0.3-0.3-0.8c-0.4-0.1-0.4-0.2-1.4-0.2c1.3-0.3,1.2-0.1,2.3-0.4c-0.6,0-1.9,0.1-3.1,0c1.7-0.5-0.2-0.6,1.1-0.8
			c0.1,0,0.4,0.1,0.2,0.2c1.7,0-0.3-0.3,0-0.5l1.5,0.1c-0.2-0.2-1.2-0.5-0.1-0.7l0.7,0.1c-1.1-0.5-0.6-1-1.1-1.4l0.9-0.2
			c-1.1-0.6-0.5,0.5-2.7,0c2.7,0.1-0.9-0.3,0.2-0.6c1.1-0.1,0.5,0.3,1.8,0.2c-1.4-0.1-0.4-0.2-0.8-0.4c1.3,0.1,0.2-0.3,1.7-0.2
			l-2.4-0.7c0.7-0.1,0.6-0.2,0.4-0.4c0,0.3-1.9-0.2-2.5,0.1c0.6,0.5,1,1.4,0.3,2c1.8,0.2,0,0.4,1.4,0.6c-0.6,0-1.1,0-1.6,0
			c0.4,0.4,1,0,1.6,0.1c0.2,0.2-0.9,0.3-1.5,0.2c-0.1,0.3,0.5,0.1,1.4,0.2l-2,0.1c0.6,0.9,1.8,2.2,0.7,3.1l1.2,0
			c-0.7,0.4,2.7,0.9,0,1.2l1.1,0.2c-0.6-0.1-1.9,0-2.7-0.2c0.4,0.1-0.1,0.3,0.3,0.4l0.6-0.2c1,0.2,0.4,0.4-0.5,0.4
			c1.2,0.4,2.1-0.1,3.2-0.1c-2.3-0.6,2.2-0.4,1.3-0.9C256.5,338.6,256,338.9,255.4,338.8z"/>
		<path fill="#89C2BB" d="M252,339.3c0.1,0,0.2,0.1,0.3,0.1C252.2,339.3,252.1,339.3,252,339.3z"/>
		<path fill="#89C2BB" d="M254.9,331.7c0,0,0-0.1-0.1-0.1C254.5,331.5,254.7,331.6,254.9,331.7z"/>
		<path fill="#89C2BB" d="M252.7,339.9C252.7,339.9,252.7,339.9,252.7,339.9C252.7,339.9,252.7,339.9,252.7,339.9L252.7,339.9z"/>
		<polygon fill="#89C2BB" points="255.7,340.3 255.7,340.2 255.2,340.2 		"/>
		<path fill="#89C2BB" d="M256.5,330.5l-0.6,0C256,330.4,256.2,330.5,256.5,330.5z"/>
		<path fill="#89C2BB" d="M257,326.8L257,326.8C257.1,326.9,257.1,326.8,257,326.8z"/>
		<path fill="#89C2BB" d="M256.1,317.9c-0.4-0.3-0.8-0.6-1.8-0.8l0.6,0c-0.3-0.1-1.3-0.6-2.5-0.4l0.6,0.1c0.9,0.3-1.1,0.2-1.5,0.4
			c0.3,0.3,2.7,0.6,2.1,0.8c0.1,0.1-0.6,0.1-1.1,0c-0.2,0.2,1.7,0.4,1.9,0.6c-4.9-0.2,1.3,0.8-1.8,1.1c0.4,0.3-0.1,0.6,0.9,0.9
			c-1.2-0.2-0.1,0.3-1.5,0.1c2.8,0.2-1.3,0.8,2.3,1c-1,0.4,0.2,0-0.6,0.5c-0.4,0-0.4-0.1-0.5-0.1c-0.8,0.2,1.5,0.4-0.1,0.4
			c-0.3,0.4,1,0.1,1.9,0.4c-0.4,0.4-0.9,0.2-2.4,0.4c1.7,0.1,0.9,0.3,1.7,0.5c0.1,0,0.4-0.3,1.1-0.1c-0.3,0.4,1.1,0.4,1.5,0.9
			c-1.9,0.1,0-0.4-1.5-0.1c-0.9-0.3-0.8-0.5-2.1-0.7c-0.1,0.4,0.2,0.8,0.9,1.3c-0.3,0.2-0.9-0.2-1.1,0c-0.8,0.4,1.9,0.7,1,1l-1-0.1
			c1.3,0.3-0.3,0.7,0.4,1.1c0.5,0,0.8,0,1.1,0c-2.4-0.1,1.2,0.6-0.5,0.9c1.5,0,2.4,0.4,2.6,0.7c-0.4,0.1-1.1,0-1.5,0
			c0.9-0.3-1.7-0.4-2.4-0.8c0.8,0.3-0.1,0.6,1.1,0.9l-1.2-0.1c-0.2,0.3,2.7,0.4,1.6,0.7l-0.9-0.1c0.1,0.7-1.5,1.5,0.4,2.1
			c0.7,0.1,2.5-0.1,3-0.1c-0.6-0.4-1.9-0.6-2.5-0.9l1.4,0.1c-1-0.1-1.5-0.4-2.3-0.3c-0.7-0.2,1.2-0.1,0.4-0.4
			c1.5,0.1,1.6,0.2,2.8,0.3l-0.7-0.2c0.6,0.1,0.5-0.1,1.1,0c-1.8-0.5,0.7-0.5-0.1-0.9l-0.3,0.2c-0.8,0-0.7-0.2-1-0.3
			c1.1-0.1,1-0.1,1.5-0.3c-0.6-0.2-2.1-0.4-2.1-0.6c1.5,0.1,0.9-0.4,2.2-0.3c-1.5-0.1-0.5-0.5-1.4-0.6c-0.3-0.1-0.1-0.3,0.7-0.3
			c0,0,0.2,0.1,0.3,0.1l0.1-0.1c0.2,0,0.3,0,0.3,0c0-0.1-1.1-0.2-0.3-0.3c0.4,0,0.4,0.1,0.6,0.2c0.3-0.3-2.3-0.6-0.9-0.8
			c-0.7-0.1-0.8-0.4-2.4-0.4c0.6-0.1,1.9,0,1.7-0.2c-1.4-0.2,0.5-0.3-0.4-0.5c1.4,0.3,0.4,0,1.8,0.3c0.6-0.1-1.3-0.5-1-0.8
			c0.3,0,0.7,0,1.1,0c-0.5-0.1-1.6-0.3-0.5-0.4l-1,0c0.5-0.2,0.2-0.5,1.3-0.7l-1.8-0.3c2-0.3,0.2-0.8-1.4-1.2
			c0.1-0.1,0.4-0.3,0.8-0.3c0.1,0,0.4,0.1,0.7,0.2c0.1-0.2,1.2-0.4-0.4-0.5c-0.5-0.2,1.1-0.1,1.3-0.2c-2.2-0.5,1.7-1.1-1.7-1.3
			c0,0.2-0.7,0.4-0.6,0.7c-0.4-0.1-1.1-0.1-1.1-0.2c-0.1-0.3,1.1-0.4,0.6-0.7l2.1,0.1C258.1,318.9,253.1,318.2,256.1,317.9z"/>
		<path fill="#89C2BB" d="M255.9,321.8l1.1-0.2l-0.9,0C256.2,321.7,256.2,321.8,255.9,321.8z"/>
		<path fill="#89C2BB" d="M256.1,321.6c-0.1,0-0.3-0.1-0.4-0.1c0,0,0,0.1,0.2,0.1L256.1,321.6z"/>
		<path fill="#89C2BB" d="M255.8,317c0.1,0,0.3-0.1,0-0.2C255.6,316.9,255.5,317,255.8,317z"/>
		<polygon fill="#89C2BB" points="255.2,316.8 254.8,316.8 255.1,316.9 		"/>
		<path fill="#89C2BB" d="M253.6,310.2l-1.3-0.4c0.7,0-0.1-0.5,1-0.3c-1.5-0.3,0-0.7-2.2-0.6c0.7,1.1-0.7,2.4,1.3,3.7l-0.9-0.2
			c1.7,0.7-2,0.8,1.5,1.4l-1.8-0.2c-0.5,0.3,2.6,0.7,0.6,0.9l0.7,0c0,0.1-0.3,0.1-0.3,0.2l0.3,0c0.7,0.2,0.6,0.4,0.1,0.5
			c-0.6,0-0.2-0.1-0.4-0.2c-0.6,0.1,0.6,0.3,0.6,0.4c-0.5,0.1-0.8,0-1.1-0.1c0.8,0.5-1.1,0.6,1.5,1.1c0.5,0.1,0.9-0.1,1.1,0.1
			c0.8-0.3-0.2-0.6-0.9-0.9l0,0.1c-2.6-0.4,0.6-0.1-0.5-0.6c1,0.1,1,0.3,1.6,0.4c2-0.3-1.5-0.7,1.1-0.8l0.1,0
			c0.3-0.1-0.2-0.2-0.5-0.3c-0.3,0-0.5,0.1-0.8,0.2c-0.2-0.1-1.4-0.2-1.9-0.3c1.2-0.1-0.6-0.2,0-0.3c1.1,0,1,0.2,1.5,0.3l-0.7-0.2
			c-0.1-0.2,1.2-0.1,1.7-0.2c-0.8-0.2-0.6,0.1-1.7-0.1c1.3-0.1,1-1,0-1.5c0.1,0.2,1.1,0.1,1,0.3c0.2-0.1-0.3-0.3-1.1-0.3
			c-0.7-0.3-0.2-0.7,0.6-0.9l-0.8,0c-1.4-0.3,1-0.5,0.3-1l0,0c-0.2-0.1-2.2-0.3-1.7-0.6C252.7,310.1,252.7,310.2,253.6,310.2z"/>
		<path fill="#89C2BB" d="M251.8,308.8l1.1,0.2c0.3-0.1-1.2-0.4-1.9-0.4c0.2,0.1-0.3,0.2,0.4,0.3C251.6,308.8,252,308.8,251.8,308.8
			z"/>
		<path fill="#89C2BB" d="M251.8,306.1c-0.3-0.1-0.7-0.1-1-0.1c0.1,0.6,0.5,1.3-0.4,1.5c-0.3,0.2,1.4,0.3,1.7,0.5L251,308
			c0.7,0.2-0.5,0.5,1.3,0.4c0.2,0-0.9-0.2-0.5-0.2l0.6,0l-0.2-0.3l0.8,0.1c1.2-0.3-2.4-0.4-1.6-0.8l1.6,0.1c0.1-0.3-0.4-0.5,0.6-0.7
			c0,0-0.8,0-0.5,0c-0.1,0-0.7,0.1-1.2,0c-1.3-0.5,1,0.1,1.7-0.2c-1.1-0.4-2-1.2-0.7-1.3c-1,0.1-2-0.2-1.9-0.4
			c0.6-0.1,1,0.1,1.5,0.2c0.2-0.1,0.6-0.1,0.4-0.3c-0.9,0.1-2.1-0.1-2.7-0.3C249,305.1,252,305.6,251.8,306.1z"/>
		<path fill="#89C2BB" d="M250.4,305.9c0.1,0.1,0.2,0.1,0.4,0.1c0-0.1,0-0.1,0-0.2L250.4,305.9z"/>
	</g>
</g>
<g>
	<path fill="#FFD25C" d="M415,86.8c-3.2,4.5-5,9.8-5.2,15.4c-4.4,104.1-90.2,187.2-195.3,187.2C108.1,289.4,21.6,204.5,19,98.8
		c-0.1-3.4-0.9-6.8-2.2-10L2.3,54.9C-8.2,30.3,18.7,6.4,42,19.8l38,21.9c16,9.2,36.3,0.7,41-17.2l0,0c5.9-22.6,35.3-28.4,49.3-9.7
		l24,32c10.7,14.2,31.8,15,43.4,1.5l33.4-38.6c14.9-17.2,43-10.4,48.3,11.7l1.7,7c4,16.6,21.8,25.8,37.6,19.4l29.5-11.9
		c26-10.5,49.5,19.5,33.1,42.2L415,86.8z"/>
	<g>
		<polygon fill="#FFC235" points="152.5,263.6 153,262.9 152,263.4 		"/>
		<path fill="#FFC235" d="M149.9,260c-0.9,0.4-1.8,0.2-3,1.3l1.5-0.5c-0.8,0.9-0.4,1.2,0.2,1.2l-0.4-0.3c0.2,0,0.7-0.6,0.9-0.7
			c0.1,1,1.4-0.2,0.9,1.3l-0.1,0.1l0.9-0.2c0,0.2-0.4,0.6-0.6,0.8c0.8-0.2,1.5-0.5,1.9,0c1.1-2-2.2,0.4-1-1.6l0.1-0.1
			C150.3,261.5,150.8,260,149.9,260z"/>
		<path fill="#FFC235" d="M150.3,263L150.3,263C150.2,263.1,150.2,263,150.3,263z"/>
		<path fill="#FFC235" d="M137.8,241.1l-0.3,0.1C137.6,241.2,137.7,241.2,137.8,241.1z"/>
		<path fill="#FFC235" d="M137.8,250.1L137.8,250.1C137.4,250.3,137.5,250.2,137.8,250.1z"/>
		<path fill="#FFC235" d="M124.6,201.3l0.5-0.2C124.6,201.1,124.5,201.2,124.6,201.3z"/>
		<path fill="#FFC235" d="M123.2,190.7L123.2,190.7L123.2,190.7z"/>
		<path fill="#FFC235" d="M117.1,196.7l-0.4,0.1C116.9,196.8,117.1,196.7,117.1,196.7z"/>
		<path fill="#FFC235" d="M115.6,193.4c0.1-0.1,0.2-0.2,0.2-0.3C115.6,193.2,115.5,193.3,115.6,193.4z"/>
		<path fill="#FFC235" d="M123.4,190.8c-0.1,0-0.2,0-0.2-0.1C123.2,190.7,123.3,190.8,123.4,190.8z"/>
		<path fill="#FFC235" d="M117.2,202l-1.1,0.4C116.5,202.3,116.8,202.1,117.2,202z"/>
		<path fill="#FFC235" d="M114.6,192.7c0.2-0.1,0.3-0.2,0.4-0.2C114.7,192.5,114.5,192.6,114.6,192.7z"/>
		<path fill="#FFC235" d="M149.4,259.6c0.1,0.1,0.2,0.1,0.4,0.1C149.7,259.6,149.6,259.6,149.4,259.6z"/>
		<path fill="#FFC235" d="M120.6,221.6c-0.1,0-0.3,0-0.5,0.1C120.2,221.8,120.4,221.7,120.6,221.6z"/>
		<path fill="#FFC235" d="M118,210.2L118,210.2c-0.1,0-0.2,0-0.2,0.1L118,210.2z"/>
		<path fill="#FFC235" d="M118.9,213.5c-0.1,0-0.2,0-0.3,0C118.8,213.5,118.8,213.5,118.9,213.5z"/>
		<path fill="#FFC235" d="M116.2,208c-0.1,0-0.2,0-0.4,0L116.2,208z"/>
		<path fill="#FFC235" d="M116.9,205.3c-0.4,0.2-0.8,0.2-1.2,0.1c-0.4,0.7,1,0.6,0.2,1.5l0.5-0.4c0.9,0.2,1.3,0.9,0.2,1.5l-0.4,0
			c1,0.2-0.6,1.2,0.2,1.2c0.5-0.3,0.8-0.2,1.2-0.5l1.2,0.8l-1.6,0.4l0.6,0.4c0.6-0.3-0.3,0.8,1.1,0.5c-0.5,0.4-1.2,0.1-1.8,0.2
			c0.5,0.2-0.1,0.4,0.8,0.4l-1.3,0.6l1.2,0.5c-0.1,0-0.2,0.1-0.4,0.1c1.2,0.1-0.5,1,1.6,1c-0.1,0-0.1,0-0.2,0c1.1,0,0.5,0.8,0.3,1
			c0.4,0.3,1.3-0.2,1.9-0.3c-0.1,1.2-0.1,0.8,1.8,1.4c-1.6,1-2.9,0-3.9,1c0.9-0.1,1.6,0.2,2.1,0.7c-0.5,0.7-0.7,1.6-1.7,2.4l1.1-0.3
			l0.8,0.6l-1.7,0c0.4,0,1.2,0.2,1.8,0.3c1.2,0.5-2.3,1.1-0.4,1.2c-0.1,0.1-0.2,0.1-0.3,0.2c0.9-0.1,0.7,0.5,1.2,1l-1.5,0.2l0.2-0.5
			c-1.3,0.6,0.4,0.5,0.4,0.9c0.6,0.2,1.7-0.3,2.2-0.2c0,0.2,0.5,0.2,0.1,0.5c-0.3,0.5-1.7,0.5-2.3,0.6c1.5-0.1,1.4,0,2.1,0.4
			c-0.7,0.2-1,0.3-1.1,0.2c0.2,0.1,0.6,0.1,1.2,0l-0.7,0.5c-0.9,1.1,2.8-0.1,2.7,0.9c-0.8,0,0.4,0.7-0.4,1.2c-0.3-0.2-2,0.8-2.9,0.9
			c-0.3,0.9,1.7-0.3,2.3,0.2l-1.8,0.4c0.9,0.3,1-0.2,1.7,0.2c-0.6,0-0.4,0.4-1.1,0.3c0.1,0.8,0.2,0.5,0.2,1.2l1.7-0.5
			c0.3,0.1-0.5,0.5-0.7,0.6c-0.1-0.1-0.1-0.2-0.3-0.1c-1.4,0.8,1,0.1-0.3,0.9c0.5-0.3,1.2-0.6,1.4-0.4c-1,0.3-0.8,0.7-1.2,0.9
			c0.6-0.4,0.5,0.4,1.6,0.1c-0.7,0.6-0.8,0.2-1.4,0.4c1.4-0.2,0.6,1,1.4,0.9c-0.1,0-0.2,0.1-0.2,0.1c0.9,0,1.3,0.4,2.7,0.6l-1,0.2
			c-0.2,0.8,2.1-0.4,2.3,0.1c-1.4,0.4,0.4,0.8-1.1,1.2c0.9,0,1.4,0.2,2.6-0.1c-0.6,0.6-2.1,0.2-2.3,0.8l0.9,0.1l-0.7,0.4
			c0.5-0.2,0.7,0.1,1.2-0.1c-0.8,0.4-1.4,0.9-2,1.1c0.4,0.2-0.3,0.9,0.6,0.8l-0.4,0.2c1.7-0.4,0.7,0.7,2.4,0.1l-0.8,0.6
			c0.3,0.3,2-0.5,2.4-0.5c0.1,0.1,0.4,0.2,0.3,0.5c-1.3,0-1.1,0.9-1.7,1.2c0.1,0.2,0.5,0.8,1.4,0.5c-0.9,0.2-1.5,0.6-1.8,0.2
			c-1.5,1,0.7,0.5,0.7,1.1l-0.7,0.4c0.8,0.5,2.1-0.1,3.5-0.5c-0.9,0.5-1.1,0.6-2.1,0.9c-0.3,0.7,0.7,1.2,0.9,1.8
			c-0.5,0.5-1,0.6-1.3,0.6c1,0.2,0.5,1.3,2.3,0.8c-0.7,0.2-0.3,0.4-0.5,0.8c0.3-0.2,0.8-0.4,0.7-0.3c0.8,0,1.8,0.3,1.5,1l-0.5,0.1
			c0.3,1,3.1-0.2,2.6,1.4c-0.2,0.4-1.4,0.6-1.1,0.9c0.7-0.2,1.8-1,1.7-0.4l-1,0.6l1.2-0.4c0.7-0.7,0.1-1,1.3-1.2
			c-0.7,1,1.1-0.3,0.3,0.9c-0.2,0-1,0.3-1.5,0.5c-0.5,1.7,1.8,0.7,1.3,2.5c1.1-0.1,1.7,0.4,2.6,0.2c-1,0.7-1.8,1.3-2.7,1.6
			c0.2,0.5,2.5-0.9,1.3,0.4c1.4-0.8,1.6,0.5,3.5-0.8c-0.3,0.3,0.3,0.4-1,0.8c1,0.1-1,1.9-0.8,2.1c0.2,0.1,1-1.1,1.3-0.8
			c0,0.1-0.2,0.3-0.3,0.3l0.5-0.2c-0.3,0.5-1,0.6-1.4,0.9c0,0.7,1.6-0.1,2.1,0.3l-0.4,0.2l0.4,0.6l-0.1,0.1l1-0.1l-0.5,0.4
			c0.2,0,0.5-0.2,0.7-0.2l-0.6,0.4c1-0.6,1.8-0.5,2-0.3l-0.2,0.3l1.6-0.5c-0.3,0.8-1.6,0.8-0.7,1l-1.2,0.9c0.8,0,0.3,0.6,0.9,0.5
			c0.4-0.6,0.2-0.8,0.8-1.1c-0.9,1.5,0.8,0.2,1.5,0c-0.2-0.1-0.2-0.2-1,0.3c-0.1-0.2,0.5-0.6,0.5-0.7l-0.8,0.4l0.7-0.8l-0.9,0.2
			c0.9-0.8-0.2-0.4,0.8-1.2c-0.6,0.1-0.1-0.6-1.2-0.1c0.4-0.7,0.9-0.3,0.8-0.6c-1.7-0.4-2.5-1.7-3.1-3.1l0.5-0.2
			c-0.5,0.2-1,0.3-1.3,0.5c0.6-0.8,0.9-2.3-0.7-1.5c0-0.1,0.3-0.2,0.4-0.2c-0.5-0.3,0-1.7-0.6-2.2c-1.7,0.8,0.4-1.5-1.9-0.3l0.5-0.2
			c-0.4,0.6-1.7,0.7-2.2,1c1.3-1.1,1-0.7,2.2-1.8l-0.3,0.6l1.1-0.8c-3.5,1.2,0.4-2.3-2-1.3c0.1,0,0.3-0.2,0.4-0.2
			c0.5-0.7-1.2,0-1.7,0c0.6-0.4,1-0.5,1.6-0.6c0.1-0.8-2-0.8-1.5-2c-0.9,0.3-1,0.7-1.8,0.8c0.1-0.3,0.7-0.8,1.2-0.8
			c1.2-1.4-2-1.3-1.1-2.9c-1.1,0-1.4,0.5-2.4,0.1c0.7-0.1,1.9-1.2,2.2-0.8l0.7-0.3c-0.2-0.7-0.5-1.7-2.5-1.2
			c1.3-0.7,0.2-0.3,0.8-0.9c-0.2,0-0.2,0.1-0.3,0.2c-1.3,0.3-0.1-0.4-0.4-0.5l0.3-0.1l-1.1-0.1c0.1-0.2,0.3-0.4,0.7-0.6l-0.9,0.5
			c-0.1-0.3,1.1-0.7,0.7-0.9l-0.7,0.4c0.3-0.4-0.8-0.3,0.2-0.8c0.2-0.1,0.1,0,0.2,0c1.3-1-0.9-0.7-0.4-1.4l-1.5,0.8
			c-0.7-0.2,0.2-0.4,0.8-0.6c-0.1-0.3,0.3-0.5,0.4-1c-0.5,0-0.6,0.2-1.1,0.3l0.2-0.5l1-0.1c-2.5,0.4-0.3-1.5-2.6-1
			c0.4-0.4,1-0.2,1.2-0.4c0.7-1.1-2.1-0.9-1.2-2c0.8-1.4-0.7-2-0.3-3.3l-0.4,0.2l0.1-0.9c-1,0.1-0.8-0.5-2-0.5
			c0.4-0.1,0.9-0.3,1.1-0.3c-0.2-0.3-0.8-0.5-0.3-0.8l0.4,0c0-0.8-0.2-1.8-1.2-1.9c-0.2-0.2,0.6-0.4,1.1-0.7
			c-0.1-0.4-0.6-0.6-1.4-0.7c0.2-0.1,0.3-0.3,0.7-0.5l-1.1,0.2c0.1-0.2,0.9-0.3,1.1-0.5c-1.5-0.3-0.5-1.4-0.7-1.8l-0.5,0.2
			c-0.5-0.1,0.2-0.6,0.8-0.6c0.4-1.1-2.1-0.9-2.1-2.2c1.9-0.7-0.9-1,1.3-1.7c-0.7-0.4,0.1-0.9-1.3-1c0.2-0.1,0.3-0.1,0.4-0.1
			c0.8-0.4,0-0.9-0.7-1.3l0.7-0.2c-1.5,0.1-1.3-0.9-2.8-0.7c0.3-0.1,0.6,0,0.9,0c1.3-0.6-0.8-0.3-0.5-0.8c0.4-0.1,0.7-0.3,1-0.2
			c1.3-1.5-1.7-2.7-1-4.5c0-0.4-1.5,0.5-1.5-0.1c0.7-0.3,1.5,0,1.8-0.4c-1-0.1-0.8-0.2-0.8-0.6c0.5,0,0.8-0.2,1.2,0
			c0.6-0.3-1.3-0.6-0.2-1.3c-0.4,0.1-0.7,0.1-1,0.1c-1.4-0.3,1-1.6,0.3-1.5c0,0-0.2-0.2-0.4,0c0-0.2,0.1-0.6,0.9-0.7
			c-0.4,0-1,0-1.1-0.2l0.9-0.1c-0.2-0.1-0.7-0.1-0.9-0.2l-0.5,0.3c0.7-0.4-1.1-0.6,0.5-0.8l0.1,0.1l0.6-0.6
			c-0.7-0.1-1.4-0.1-1.2-0.5c1.6-0.4,0.2-0.9,0.3-1.3l0.6-0.1c-0.9-0.2-0.6-1-0.9-0.8c-0.1-0.3,0.3-0.8,0.8-0.7
			c-0.4-0.2-0.4-0.7-1.4-0.7l1.3-0.7c-2.1,0.1,0.6-1.1-1.6-0.8c0.3-0.3,0.8-0.4,1.1-0.6c-1.1-0.2-1-0.6-0.9-1.1l0.2,0
			c0.1-0.4-1.1-0.7-1.3-1.3l1.7-0.4c-0.3-0.3-1.6-0.1-1.3-0.5c0.2-0.1,0.3-0.1,0.4,0c-0.4-0.2,0-0.7,0.4-0.9
			c-1.3-0.2-0.9-0.6-2.3-0.8c1.4-0.6,0.7,0.4,2.1-0.1c0.7-0.7-0.2-1.2-1.1-1.8c0.3-0.1,0.6-0.1,0.9-0.1c0,0-4.3-0.7-5.8-0.2
			c-1.1,0-1.8-0.1-2.6,0.7c0.7,0.1,1.6,0.5,0.4,0.8l1.2-0.2c0.7,0.7-2.4,0.5-2.2,1.4l0.4-0.3c0.1,0.2,0.9,0.2,0.5,0.4
			c-0.3,0.1-0.5,0-0.8,0l1.7,0.5c-0.7,0.1-1,0.2-1.6,0.1c0.2,0.7,2.1-0.5,1.8,0.4c-0.5,0.2-0.7,0.1-1.1,0c-0.9,0.6,0,0.7,0.7,1
			c-1,0.2-1-0.1-1.6,0.3c0.5-0.2,1.4-0.4,1.6-0.1c-1.1,0-0.5,0.3-0.7,0.6c0.4-0.1,0.8-0.2,1-0.1c0.2,0.1-0.2,0.3-0.1,0.4l1-0.5
			c1.1,0.3-0.4,0.8-0.8,1.2c-0.2,0-0.3,0-0.4-0.1c-0.4,0.4-1.1,0.9-0.2,1.2l-0.1,0c1.2,0.7,1.7-0.6,2.8,0.3c-0.2,0.4-3.4,0.4-2.1,1
			c0.8-0.5,2.2,0.1,2.7,0.5l-2.1-0.1c0,0.2,0.6,0.4,0.4,0.5l0.4-0.1c1.7-0.3-0.1,0.6,0.9,0.7c-2.4,0-2-0.1-4.3,0.3
			c1.3,0.1,2.5,0.2,2.4,0.8l-1.9-0.1c-0.3,0.8,2.5,1.2,4.1,1.5c-1.4,0.1-1.8,0.4-3,0.4l0.4,0.6l-1.5,0.1c1.5,0,0.6,0.5,2.5,0.1
			c-0.3,0-0.5,0-0.5-0.1c0.6-0.1,1.8-0.2,1.8,0.2c-0.4,0.3-0.8,0-1.3,0.2c0.8,0.1-0.4,0.3,0.2,0.5l0.8-0.4c1.1,0,0.1,0.4,0.7,0.5
			c-0.5-0.2-1.2,0-1.8,0.2l0.1,0c0.1,0.2,0.9,0.2,0.3,0.5l-1.6,0.1l1.2,0c-0.2,0.1-0.7,0.3-1,0.2c-0.8,1,3.3-0.6,2.1,0.7
			c-0.6,0.1-1,0.1-0.7-0.3c-0.9,0.1-1.5,0.3-1.8,0.7c-0.1,0-0.1,0-0.2,0C115.8,204.4,115.8,205.2,116.9,205.3z"/>
		<path fill="#FFC235" d="M115.7,203.9c0-0.3-0.1-0.5-0.3-0.6C115.1,203.4,114.7,204.1,115.7,203.9z"/>
		<path fill="#FFC235" d="M130.8,245.3c-0.1,0-0.1,0-0.2,0L130.8,245.3z"/>
		<path fill="#FFC235" d="M132.4,247.1c0.1-0.1,0.2-0.2,0.2-0.3C132.3,247,132.1,247.2,132.4,247.1z"/>
		<path fill="#FFC235" d="M121.9,224.8C121.9,224.8,121.9,224.8,121.9,224.8C121.9,224.8,121.9,224.8,121.9,224.8z"/>
		<path fill="#FFC235" d="M126.1,237.8c0.5,0,1-0.1,1.3-0.2C127.3,237.5,126.9,237.5,126.1,237.8z"/>
		<path fill="#FFC235" d="M125,233.3c-0.1,0-0.2,0-0.3,0C124.8,233.3,124.9,233.3,125,233.3z"/>
		<path fill="#FFC235" d="M121,224.4c0.5,0,0.6,0.3,0.9,0.5C121.6,224.7,122,224.2,121,224.4z"/>
		<polygon fill="#FFC235" points="135.3,248.8 134.5,249 135.1,248.9 		"/>
		<path fill="#FFC235" d="M133.7,247.1c0.1-0.2-0.5-0.3-0.8,0C133.3,247.1,133.5,247.1,133.7,247.1z"/>
		<polygon fill="#FFC235" points="130.5,239.3 129.7,239.6 130.4,239.5 		"/>
	</g>
	<g>
		<polygon fill="#FFC235" points="190.1,269.7 190.9,269.6 189.9,269.2 		"/>
		<path fill="#FFC235" d="M191.1,265.7c-0.9-0.4-1.4-1.1-3-1.1l1.4,0.7c-1.2,0.1-1.2,0.5-0.8,0.9l-0.1-0.4c0.2,0.1,0.9,0.1,1.1,0.2
			c-0.7,0.6,1.1,0.8-0.3,1.4l-0.1,0l0.8,0.5c-0.2,0.1-0.8,0.1-1,0c0.6,0.4,1.3,0.8,1.2,1.3c2.3-0.4-1.7-1.3,0.5-1.7l0.1,0
			C190.2,266.9,191.6,266.3,191.1,265.7z"/>
		<path fill="#FFC235" d="M189.1,267.8C189.1,267.8,189.1,267.8,189.1,267.8C189,267.7,189,267.8,189.1,267.8z"/>
		<path fill="#FFC235" d="M192.9,244.9l-0.4,0C192.7,244.9,192.8,245,192.9,244.9z"/>
		<path fill="#FFC235" d="M188.2,251.8C188.3,251.8,188.3,251.8,188.2,251.8C187.8,251.7,187.9,251.8,188.2,251.8z"/>
		<path fill="#FFC235" d="M193.4,206.8l0.5-0.1C193.4,206.7,193.3,206.8,193.4,206.8z"/>
		<path fill="#FFC235" d="M194,197.4C194,197.4,194,197.4,194,197.4C194,197.4,194,197.4,194,197.4z"/>
		<path fill="#FFC235" d="M186.9,201.5l-0.5,0C186.7,201.6,186.9,201.6,186.9,201.5z"/>
		<path fill="#FFC235" d="M186.1,198.5c0.1-0.1,0.2-0.2,0.2-0.2C186,198.3,186,198.4,186.1,198.5z"/>
		<path fill="#FFC235" d="M194.2,197.5c-0.1,0-0.1-0.1-0.2-0.1C194,197.5,194.1,197.5,194.2,197.5z"/>
		<path fill="#FFC235" d="M186,206.1l-1.2,0.1C185.2,206.2,185.6,206.1,186,206.1z"/>
		<path fill="#FFC235" d="M185.2,197.7c0.2,0,0.4-0.1,0.4-0.1C185.3,197.6,185.2,197.6,185.2,197.7z"/>
		<path fill="#FFC235" d="M191,265.1c0,0.1,0,0.2,0.2,0.3C191.2,265.3,191.2,265.2,191,265.1z"/>
		<path fill="#FFC235" d="M184.5,223.2c-0.1,0-0.3,0-0.5-0.1C184.1,223.2,184.3,223.2,184.5,223.2z"/>
		<path fill="#FFC235" d="M184.9,213.2L184.9,213.2c-0.1,0-0.2,0-0.2,0L184.9,213.2z"/>
		<path fill="#FFC235" d="M185,216.1c-0.1,0-0.2,0-0.3,0C184.9,216.1,184.9,216.1,185,216.1z"/>
		<path fill="#FFC235" d="M183.7,210.9c-0.1,0-0.2-0.1-0.4-0.1L183.7,210.9z"/>
		<path fill="#FFC235" d="M185,208.8c-0.4,0.1-0.8,0-1.2-0.1c-0.6,0.5,0.9,0.7-0.2,1.3l0.6-0.2c0.9,0.4,1,1-0.1,1.3l-0.4-0.1
			c0.9,0.4-0.8,0.8,0,1c0.5-0.1,0.8,0,1.3-0.2l1,0.9l-1.6,0l0.5,0.5c0.6-0.1-0.5,0.6,1,0.6c-0.6,0.2-1.2-0.1-1.8-0.2
			c0.5,0.3-0.2,0.3,0.7,0.5l-1.4,0.2l1,0.7c-0.1,0-0.2,0-0.4,0c1.2,0.3-0.7,0.8,1.3,1.2c-0.1,0-0.1,0-0.2,0c1.1,0.2,0.3,0.7,0,0.9
			c0.3,0.3,1.3,0.2,1.9,0.2c-0.4,1-0.3,0.7,1.4,1.5c-1.8,0.5-2.8-0.7-4.1-0.1c0.9,0.1,1.5,0.6,1.8,1.1c-0.6,0.4-1.1,1.2-2.3,1.6
			l1.1,0l0.6,0.7l-1.7-0.4c0.4,0.1,1.1,0.5,1.7,0.7c1,0.7-2.5,0.3-0.8,0.9c-0.1,0-0.2,0-0.4,0c0.9,0.2,0.5,0.6,0.9,1.1l-1.5-0.2
			l0.3-0.3c-1.4,0.1,0.2,0.5,0.1,0.9c0.5,0.3,1.7,0.2,2.1,0.4c-0.1,0.1,0.4,0.3-0.1,0.4c-0.5,0.3-1.7,0-2.4-0.1
			c1.5,0.3,1.3,0.4,1.9,0.9c-0.7,0-1,0-1.2-0.1c0.2,0.1,0.5,0.2,1.1,0.3l-0.9,0.2c-1.2,0.6,2.7,0.7,2.2,1.5
			c-0.8-0.2,0.2,0.7-0.8,0.9c-0.2-0.3-2.2,0.1-3-0.1c-0.6,0.6,1.7,0.3,2.1,0.8l-1.8-0.2c0.8,0.5,1,0.1,1.5,0.6
			c-0.5-0.1-0.5,0.2-1.1-0.1c-0.2,0.6,0,0.5-0.3,1l1.8,0.1c0.2,0.2-0.6,0.2-0.9,0.3c0-0.1,0-0.2-0.2-0.2c-1.5,0.2,0.9,0.4-0.6,0.6
			c0.6,0,1.3-0.1,1.4,0.1c-1.1-0.1-1,0.3-1.5,0.3c0.7-0.1,0.3,0.5,1.5,0.6c-0.8,0.2-0.9-0.1-1.4-0.1c1.4,0.3,0.2,0.9,1,1.2
			c-0.1,0-0.2,0-0.3,0c0.8,0.3,1,0.8,2.2,1.4l-1-0.2c-0.5,0.6,2.1,0.4,2.1,0.9c-1.4-0.1,0.1,0.8-1.5,0.5c0.8,0.3,1.2,0.6,2.4,0.8
			c-0.8,0.2-2-0.6-2.4-0.2l0.8,0.4l-0.8,0.1c0.6,0,0.6,0.4,1.1,0.4c-0.9,0-1.6,0.2-2.3,0.1c0.3,0.3-0.6,0.6,0.2,0.8l-0.5,0
			c1.7,0.3,0.3,0.8,2.1,0.9l-1,0.1c0.2,0.4,2,0.4,2.4,0.5c0.1,0.2,0.3,0.3,0.1,0.5c-1.2-0.5-1.4,0.2-2.1,0.3c0,0.2,0.1,0.8,1,1
			c-0.9-0.3-1.7-0.1-1.7-0.6c-1.8,0.2,0.4,0.7,0.1,1.1l-0.8,0c0.5,0.7,1.9,0.8,3.4,1.1c-1,0.1-1.3,0-2.3-0.2c-0.6,0.4,0,1.2-0.1,1.7
			c-0.7,0.1-1.1,0-1.5-0.2c0.8,0.5-0.2,1.2,1.6,1.6c-0.7-0.1-0.5,0.2-0.8,0.4c0.4,0,0.8,0.1,0.8,0.1c0.7,0.3,1.4,1.1,0.7,1.4
			l-0.5-0.1c-0.3,0.9,2.8,1.3,1.4,2.2c-0.4,0.2-1.5-0.2-1.4,0.1c0.7,0.2,2,0.2,1.6,0.6l-1.2-0.1l1.2,0.3c1-0.1,0.6-0.6,1.7-0.3
			c-1.1,0.4,1.1,0.4-0.2,0.8c-0.1-0.1-1-0.3-1.5-0.4c-1.4,1,1.1,1.4-0.4,2.4c0.9,0.5,1.1,1.2,1.9,1.6c-1.2-0.1-2.2-0.1-3.1-0.3
			c-0.2,0.4,2.5,0.7,0.8,1c1.6,0.2,1,1.2,3.3,1.4c-0.5,0,0,0.5-1.3,0c0.7,0.6-2,0.7-2,1c0.1,0.2,1.4-0.1,1.5,0.2
			c-0.1,0-0.3,0-0.4,0.1l0.5,0.1c-0.5,0.1-1.1-0.2-1.7-0.2c-0.5,0.5,1.3,0.8,1.4,1.4l-0.4-0.1l-0.1,0.6l-0.1,0l0.8,0.5l-0.6,0
			c0.2,0.1,0.5,0.1,0.6,0.3l-0.7-0.1c1.1,0.2,1.7,0.8,1.7,1l-0.3,0l1.4,0.7c-0.8,0.3-1.7-0.5-1.2,0.2l-1.5-0.2
			c0.6,0.5-0.2,0.6,0.3,0.9c0.8-0.1,0.7-0.4,1.3-0.2c-1.7,0.3,0.4,0.6,1.1,1c0-0.2,0-0.3-0.9-0.5c0-0.2,0.8-0.1,0.9-0.2l-0.8-0.3
			l1-0.1l-0.8-0.5c1.2,0.1,0.2-0.4,1.4-0.2c-0.5-0.3,0.4-0.5-0.8-0.8c0.7-0.2,0.9,0.4,1,0.1c-0.9-1.4-0.7-2.7-0.3-4.1l0.5,0.1
			c-0.5-0.1-1-0.3-1.4-0.4c1-0.2,2.2-1.1,0.4-1.5c0.1,0,0.4,0,0.5,0.1c-0.2-0.5,1.1-1.3,0.9-1.9c-1.9-0.3,1.2-1-1.4-1.3l0.5,0.1
			c-0.7,0.2-1.8-0.4-2.4-0.5c1.7-0.1,1.3,0,2.8-0.2l-0.6,0.2l1.4,0c-3.5-0.9,1.7-1.5-0.9-2.1c0.1,0,0.4,0,0.5,0.1
			c0.8-0.3-1-0.6-1.4-0.9c0.7,0,1.1,0.2,1.6,0.3c0.6-0.6-1.3-1.7-0.2-2.3c-0.9-0.3-1.2,0.1-1.9-0.2c0.3-0.2,1-0.3,1.5-0.1
			c1.7-0.5-1.1-1.9,0.5-2.8c-1-0.5-1.5-0.2-2.1-0.9c0.7,0.2,2.3-0.1,2.3,0.3l0.7,0.1c0.2-0.7,0.4-1.6-1.6-2.1c1.5,0,0.3-0.1,1.1-0.4
			c-0.2-0.1-0.2,0-0.3,0c-1.3-0.3,0.1-0.4-0.1-0.6l0.3,0.1l-0.9-0.5c0.2-0.1,0.5-0.2,0.9-0.2l-1,0c0-0.3,1.3-0.1,1.1-0.4l-0.8,0.1
			c0.5-0.2-0.6-0.6,0.6-0.6c0.2,0,0.1,0,0.2,0.1c1.6-0.3-0.5-0.9,0.3-1.3l-1.7,0.1c-0.5-0.4,0.4-0.2,0.9-0.2c0-0.3,0.6-0.3,0.7-0.7
			c-0.4-0.2-0.6-0.1-1.1-0.2l0.4-0.4l0.9,0.3c-2.5-0.6,0.3-1.4-1.9-1.8c0.5-0.2,1,0.2,1.3,0.1c1.1-0.6-1.6-1.5-0.3-2.1
			c1.2-0.9,0.1-2,0.9-2.9l-0.5,0l0.4-0.7c-1-0.2-0.5-0.7-1.7-1c0.4,0,0.9,0,1.2,0.1c-0.1-0.3-0.6-0.7,0-0.8l0.4,0.1
			c0.3-0.7,0.3-1.6-0.5-2c-0.1-0.2,0.7-0.2,1.3-0.3c0.1-0.4-0.4-0.7-1.1-1c0.2-0.1,0.4-0.2,0.8-0.2l-1.1-0.2c0.2-0.2,0.9,0,1.2-0.1
			c-1.3-0.6-0.1-1.3-0.2-1.8l-0.6,0c-0.4-0.2,0.4-0.5,0.9-0.3c0.7-0.8-1.7-1.3-1.4-2.4c2-0.1-0.6-1,1.7-1.2c-0.6-0.5,0.3-0.8-1-1.2
			c0.2,0,0.3,0,0.4,0c0.8-0.2,0.2-0.8-0.3-1.3l0.7,0c-1.5-0.2-1-1-2.5-1.3c0.3,0,0.6,0.1,0.9,0.2c1.4-0.2-0.7-0.5-0.3-0.8
			c0.4,0,0.8-0.1,1,0c1.6-1-1-2.7,0.1-4.1c0.1-0.4-1.6,0.1-1.4-0.4c0.8-0.1,1.5,0.3,1.8,0c-0.9-0.3-0.7-0.3-0.6-0.7
			c0.5,0.1,0.8,0,1.2,0.3c0.6-0.2-1.2-0.8,0.1-1.1c-0.5,0-0.7-0.1-1-0.1c-1.3-0.6,1.3-1.2,0.6-1.3c0,0-0.2-0.2-0.4,0
			c0-0.2,0.3-0.5,1-0.4c-0.4-0.1-1-0.2-1.1-0.4l0.9,0.1c-0.2-0.1-0.7-0.2-0.8-0.3l-0.5,0.1c0.7-0.2-1-0.7,0.6-0.6l0,0.1l0.7-0.4
			c-0.7-0.2-1.3-0.4-1.1-0.6c1.7-0.1,0.4-0.7,0.6-1.1l0.6,0c-0.8-0.3-0.4-1-0.7-0.9c0-0.3,0.4-0.6,0.9-0.5c-0.3-0.2-0.3-0.7-1.3-0.8
			l1.4-0.4c-2.1-0.3,0.8-0.9-1.4-1c0.4-0.2,0.8-0.2,1.2-0.3c-1.1-0.4-0.9-0.7-0.7-1.1l0.2,0c0.2-0.4-0.9-0.8-1-1.3l1.7-0.1
			c-0.2-0.3-1.5-0.4-1.2-0.6c0.3-0.1,0.3,0,0.4,0.1c-0.3-0.3,0.1-0.6,0.5-0.8c-1.2-0.4-0.8-0.7-2.1-1.1c1.5-0.3,0.7,0.5,2.1,0.2
			c0.8-0.5,0-1.1-0.7-1.7c0.3,0,0.6,0,0.9,0.1c0,0-4.1-1.3-5.7-1.1c-1.1-0.2-1.8-0.4-2.7,0.1c0.7,0.2,1.4,0.7,0.2,0.7l1.2,0.1
			c0.5,0.7-2.4,0-2.4,0.8l0.4-0.2c0.1,0.2,0.8,0.3,0.4,0.5c-0.3,0-0.5-0.1-0.8-0.1l1.6,0.7c-0.7,0-1,0-1.6-0.2
			c0,0.6,2.2-0.1,1.7,0.7c-0.5,0.1-0.7-0.1-1.1-0.2c-1,0.3-0.1,0.6,0.5,1c-1.1,0-0.9-0.3-1.6,0c0.6,0,1.5-0.1,1.6,0.2
			c-1.1-0.1-0.6,0.2-0.8,0.4c0.4,0,0.9,0,1,0.1c0.2,0.1-0.3,0.2-0.2,0.4l1-0.2c1,0.4-0.6,0.6-1,0.9c-0.2,0-0.3-0.1-0.4-0.1
			c-0.4,0.3-1.3,0.6-0.4,1l-0.1,0c1,0.8,1.8-0.2,2.7,0.7c-0.2,0.3-3.4-0.2-2.2,0.5c0.9-0.3,2.2,0.5,2.6,0.9l-2-0.4
			c0,0.1,0.5,0.4,0.3,0.5l0.5,0c1.7,0-0.3,0.5,0.8,0.8c-2.4-0.4-1.9-0.4-4.3-0.5c1.3,0.3,2.5,0.6,2.2,1.1l-1.8-0.4
			c-0.4,0.6,2.2,1.4,3.7,2c-1.3-0.2-1.8,0-3-0.2l0.3,0.6l-1.5-0.2c1.5,0.3,0.5,0.5,2.4,0.5c-0.3-0.1-0.5-0.1-0.4-0.2
			c0.6,0,1.8,0.2,1.7,0.5c-0.5,0.2-0.8-0.1-1.3-0.1c0.8,0.2-0.5,0.2,0.1,0.4l0.8-0.2c1.1,0.2,0,0.4,0.6,0.6
			c-0.5-0.3-1.1-0.2-1.8-0.1l0.1,0c0.1,0.2,0.9,0.4,0.2,0.5l-1.6-0.2l1.1,0.3c-0.2,0.1-0.8,0.1-1,0c-1,0.7,3.4,0.1,1.9,0.9
			c-0.6,0-1-0.1-0.6-0.4c-0.9-0.1-1.5,0-1.9,0.2c-0.1,0-0.1,0-0.2,0C184,207.9,183.9,208.5,185,208.8z"/>
		<path fill="#FFC235" d="M184.1,207.4c0-0.3,0-0.5-0.2-0.6C183.6,206.9,183.1,207.4,184.1,207.4z"/>
		<path fill="#FFC235" d="M184.8,245.1c0,0-0.1-0.1-0.2-0.1C184.7,245,184.8,245,184.8,245.1z"/>
		<path fill="#FFC235" d="M185.2,247.1c0.2,0,0.3-0.1,0.4-0.1C185.3,247,185,247,185.2,247.1z"/>
		<path fill="#FFC235" d="M184.8,226.1C184.8,226.1,184.8,226.1,184.8,226.1C184.8,226.1,184.8,226.1,184.8,226.1z"/>
		<path fill="#FFC235" d="M184,237.6c0.5,0.2,0.9,0.3,1.3,0.3C185.2,237.8,184.9,237.7,184,237.6z"/>
		<path fill="#FFC235" d="M184.8,233.8c-0.1,0-0.1-0.1-0.2-0.1C184.6,233.8,184.7,233.8,184.8,233.8z"/>
		<path fill="#FFC235" d="M184,225.5c0.5,0.2,0.5,0.4,0.8,0.6C184.5,226,185,225.6,184,225.5z"/>
		<polygon fill="#FFC235" points="186.9,249.6 186.1,249.4 186.7,249.6 		"/>
		<path fill="#FFC235" d="M186.4,247.7c0.2-0.1-0.3-0.4-0.7-0.3C186.1,247.5,186.2,247.6,186.4,247.7z"/>
		<polygon fill="#FFC235" points="187.3,240.5 186.5,240.4 187.1,240.6 		"/>
	</g>
	<g>
		<polygon fill="#FFC235" points="242.9,254.2 243.6,254.4 242.8,253.8 		"/>
		<path fill="#FFC235" d="M244.5,251.2c-0.8-0.5-1.1-1.2-2.7-1.6l1.3,0.9c-1.2-0.2-1.2,0.1-0.9,0.5l0-0.4c0.1,0.1,0.9,0.3,1.1,0.4
			c-0.7,0.4,0.9,0.9-0.6,1.1l-0.1-0.1l0.7,0.6c-0.2,0.1-0.8-0.1-1-0.2c0.5,0.5,1.1,0.9,0.9,1.4c2.3,0.2-1.4-1.5,0.8-1.2l0.1,0.1
			C243.4,252,245,251.8,244.5,251.2z"/>
		<path fill="#FFC235" d="M242.2,252.5L242.2,252.5C242.1,252.4,242.2,252.4,242.2,252.5z"/>
		<path fill="#FFC235" d="M249.3,234.5l-0.3-0.1C249,234.5,249.2,234.5,249.3,234.5z"/>
		<path fill="#FFC235" d="M243.9,239.5L243.9,239.5C243.4,239.3,243.5,239.4,243.9,239.5z"/>
		<path fill="#FFC235" d="M250.7,202.8l0.5-0.1C250.7,202.7,250.6,202.7,250.7,202.8z"/>
		<path fill="#FFC235" d="M250.7,194.9L250.7,194.9L250.7,194.9z"/>
		<path fill="#FFC235" d="M244,198.8l-0.5,0C243.8,198.9,243.9,198.9,244,198.8z"/>
		<path fill="#FFC235" d="M242.9,196.5c0.1-0.1,0.2-0.1,0.2-0.2C242.9,196.3,242.8,196.4,242.9,196.5z"/>
		<path fill="#FFC235" d="M250.9,195c-0.1,0-0.1,0-0.2-0.1C250.8,194.9,250.8,194.9,250.9,195z"/>
		<path fill="#FFC235" d="M243.3,202.5l-1.2,0.1C242.5,202.6,242.9,202.6,243.3,202.5z"/>
		<path fill="#FFC235" d="M241.9,195.9c0.2,0,0.3-0.1,0.4-0.2C242.1,195.8,241.9,195.9,241.9,195.9z"/>
		<path fill="#FFC235" d="M244.6,250.7c0,0.1,0,0.2,0.1,0.3C244.8,250.9,244.7,250.8,244.6,250.7z"/>
		<path fill="#FFC235" d="M242.1,216.2c-0.1,0-0.3,0-0.5-0.1C241.7,216.2,241.9,216.2,242.1,216.2z"/>
		<path fill="#FFC235" d="M242.5,208.2L242.5,208.2c-0.1,0-0.2,0-0.2,0L242.5,208.2z"/>
		<path fill="#FFC235" d="M242.6,210.5c-0.1,0-0.2,0-0.3,0C242.5,210.5,242.6,210.5,242.6,210.5z"/>
		<path fill="#FFC235" d="M241.2,206.4c-0.1,0-0.2-0.1-0.4-0.1L241.2,206.4z"/>
		<path fill="#FFC235" d="M242.4,204.7c-0.4,0.1-0.8,0-1.2-0.1c-0.6,0.4,0.9,0.5-0.1,1l0.6-0.2c0.9,0.3,1.1,0.8-0.1,1.1l-0.4-0.1
			c1,0.3-0.8,0.7,0,0.8c0.5-0.1,0.8,0,1.3-0.2l1,0.7l-1.6,0.1l0.5,0.4c0.6-0.1-0.5,0.5,1,0.5c-0.6,0.2-1.2-0.1-1.8-0.2
			c0.5,0.2-0.2,0.2,0.7,0.4l-1.4,0.2l1,0.5c-0.1,0-0.2,0-0.4,0c1.2,0.3-0.7,0.6,1.3,0.9c-0.1,0-0.1,0-0.2,0c1.1,0.2,0.3,0.6,0.1,0.7
			c0.3,0.3,1.3,0.1,1.9,0.2c-0.4,0.8-0.3,0.5,1.4,1.3c-1.8,0.3-2.8-0.6-4.1-0.1c0.9,0.1,1.5,0.5,1.8,0.9c-0.6,0.3-1.1,0.9-2.3,1.2
			l1.1,0l0.6,0.5l-1.7-0.4c0.4,0.1,1.1,0.4,1.7,0.6c1,0.6-2.5,0.2-0.8,0.7c-0.1,0-0.3,0-0.4,0c0.9,0.2,0.5,0.5,0.8,0.9l-1.5-0.2
			l0.3-0.2c-1.4,0.1,0.2,0.4,0.1,0.7c0.5,0.3,1.7,0.2,2.1,0.4c-0.1,0.1,0.4,0.3-0.1,0.3c-0.5,0.2-1.7-0.1-2.4-0.2
			c1.5,0.3,1.3,0.3,1.9,0.8c-0.7,0-1-0.1-1.2-0.1c0.2,0.1,0.5,0.2,1.1,0.3l-0.9,0.1c-1.3,0.4,2.7,0.7,2.2,1.3
			c-0.8-0.2,0.1,0.5-0.8,0.7c-0.2-0.2-2.2-0.1-3-0.3c-0.6,0.4,1.7,0.3,2,0.7l-1.8-0.3c0.8,0.4,1,0.2,1.5,0.6
			c-0.5-0.1-0.5,0.1-1.1-0.1c-0.2,0.5,0,0.4-0.3,0.8l1.8,0.2c0.2,0.2-0.6,0.2-0.9,0.2c0-0.1,0-0.2-0.2-0.2c-1.5,0,0.8,0.4-0.6,0.4
			c0.6,0,1.3,0,1.4,0.2c-1.1-0.2-1,0.2-1.5,0.2c0.8,0,0.3,0.4,1.5,0.6c-0.8,0.1-0.8-0.1-1.4-0.2c1.4,0.3,0.1,0.8,0.9,1
			c-0.1,0-0.2,0-0.3,0c0.8,0.3,1,0.7,2.2,1.3l-1-0.3c-0.5,0.4,2.1,0.5,2,0.9c-1.4-0.2,0.1,0.6-1.5,0.3c0.8,0.3,1.1,0.6,2.4,0.9
			c-0.8,0.1-1.9-0.6-2.4-0.4l0.7,0.4l-0.8,0c0.6,0.1,0.6,0.4,1.1,0.4c-0.9-0.1-1.6,0-2.3-0.1c0.3,0.2-0.7,0.4,0.1,0.7l-0.5,0
			c1.7,0.4,0.3,0.7,2.1,1l-1,0c0.1,0.3,2,0.5,2.4,0.7c0.1,0.1,0.2,0.3,0.1,0.4c-1.1-0.6-1.4,0-2.1,0c-0.1,0.2,0,0.6,0.9,0.9
			c-0.9-0.3-1.6-0.3-1.7-0.7c-1.8-0.1,0.3,0.6,0,0.9l-0.8-0.1c0.5,0.6,1.9,0.8,3.2,1.3c-1-0.1-1.3-0.2-2.3-0.5
			c-0.6,0.3-0.1,0.9-0.2,1.3c-0.7,0-1.1-0.1-1.4-0.3c0.7,0.5-0.3,0.9,1.4,1.5c-0.7-0.2-0.5,0.1-0.9,0.2c0.4,0.1,0.8,0.2,0.8,0.2
			c0.7,0.4,1.3,1.1,0.6,1.3l-0.5-0.2c-0.4,0.6,2.6,1.5,1.2,2c-0.4,0.1-1.4-0.4-1.4-0.1c0.6,0.3,2,0.5,1.5,0.7l-1.2-0.2l1.1,0.5
			c1,0.1,0.7-0.4,1.7,0.1c-1.1,0.1,1,0.5-0.3,0.6c-0.1-0.1-1-0.4-1.4-0.5c-1.5,0.5,0.9,1.4-0.7,1.9c0.8,0.6,0.9,1.2,1.7,1.6
			c-1.2-0.3-2.2-0.5-3-0.8c-0.2,0.3,2.4,1,0.6,0.9c1.5,0.5,0.8,1.2,3,1.7c-0.5-0.1-0.1,0.4-1.3-0.3c0.6,0.6-2.1,0.2-2.1,0.4
			c0,0.1,1.4,0.2,1.4,0.5c-0.1,0-0.3,0-0.4,0l0.5,0.2c-0.5,0-1.1-0.4-1.6-0.5c-0.6,0.3,1.1,0.9,1.2,1.4l-0.4-0.2l-0.2,0.4l-0.1-0.1
			l0.7,0.6l-0.6-0.1c0.1,0.1,0.5,0.2,0.5,0.4l-0.7-0.2c1.1,0.4,1.5,1,1.5,1.2l-0.3,0l1.3,0.9c-0.8,0.1-1.6-0.8-1.2-0.1l-1.4-0.5
			c0.5,0.5-0.3,0.4,0.1,0.8c0.8,0.1,0.7-0.1,1.3,0.1c-1.7-0.1,0.3,0.6,0.9,1.1c0-0.2,0-0.3-0.8-0.6c0.1-0.2,0.8,0.1,0.9,0.1
			l-0.8-0.4l1,0.2l-0.7-0.6c1.1,0.3,0.2-0.3,1.4,0.1c-0.4-0.4,0.4-0.3-0.7-0.9c0.7,0,0.8,0.5,0.9,0.3c-0.7-1.3-0.2-2.4,0.4-3.4
			l0.5,0.2c-0.5-0.2-0.9-0.5-1.3-0.6c1,0,2.3-0.5,0.6-1.1c0.1,0,0.3,0.1,0.5,0.1c-0.1-0.4,1.2-0.8,1.2-1.4c-1.8-0.6,1.3-0.6-1.2-1.3
			l0.5,0.2c-0.7,0-1.7-0.6-2.3-0.8c1.7,0.2,1.3,0.2,2.8,0.3l-0.6,0.1l1.4,0.2c-3.3-1.3,1.8-1-0.6-1.9c0.1,0,0.3,0.1,0.5,0.1
			c0.8-0.1-0.9-0.7-1.3-0.9c0.7,0.1,1.1,0.3,1.6,0.5c0.6-0.4-1.1-1.6,0.1-1.9c-0.9-0.3-1.2-0.1-1.9-0.5c0.3-0.1,1-0.1,1.5,0.2
			c1.8-0.2-0.8-1.7,0.8-2.2c-1-0.5-1.4-0.4-2-1.1c0.6,0.2,2.2,0.2,2.3,0.6l0.7,0.2c0.2-0.6,0.6-1.3-1.4-1.9c1.5,0.2,0.3-0.1,1.1-0.2
			c-0.2-0.1-0.2,0-0.3,0c-1.2-0.4,0.1-0.3-0.1-0.5l0.3,0.1l-0.9-0.5c0.2,0,0.5-0.1,1-0.1l-1-0.1c0-0.2,1.3,0.1,1.1-0.3l-0.8,0
			c0.5-0.1-0.5-0.5,0.6-0.4c0.2,0,0.1,0,0.2,0.1c1.6-0.1-0.4-0.8,0.3-1l-1.7-0.1c-0.5-0.4,0.4-0.2,1-0.1c0-0.2,0.6-0.2,0.8-0.5
			c-0.4-0.2-0.6-0.2-1.1-0.3l0.4-0.3l0.9,0.3c-2.4-0.8,0.4-1.1-1.8-1.7c0.5-0.1,1,0.3,1.3,0.2c1.1-0.4-1.5-1.4-0.2-1.7
			c1.3-0.6,0.2-1.6,1.1-2.4l-0.5,0l0.4-0.6c-1-0.2-0.5-0.6-1.7-1c0.4,0,0.9,0,1.2,0.1c-0.1-0.3-0.6-0.6,0-0.7l0.4,0.1
			c0.3-0.5,0.4-1.3-0.4-1.7c-0.1-0.2,0.7-0.1,1.3-0.2c0.1-0.3-0.4-0.6-1.1-0.9c0.2-0.1,0.4-0.1,0.8-0.2l-1.1-0.2
			c0.2-0.1,0.9,0,1.2-0.1c-1.3-0.6-0.1-1.1-0.1-1.5l-0.6,0c-0.4-0.2,0.4-0.4,0.9-0.2c0.7-0.7-1.7-1.1-1.4-2.1c2-0.1-0.6-0.9,1.7-0.9
			c-0.6-0.4,0.4-0.7-1-1c0.2,0,0.3,0,0.4,0c0.8-0.1,0.2-0.7-0.3-1.1l0.7,0c-1.5-0.2-1-0.9-2.5-1c0.3,0,0.6,0.1,0.9,0.1
			c1.4-0.2-0.7-0.4-0.3-0.6c0.4,0,0.8,0,1,0c1.6-0.9-1.1-2.2,0-3.4c0.1-0.3-1.6,0.1-1.5-0.3c0.7-0.1,1.5,0.2,1.8-0.1
			c-0.9-0.2-0.7-0.3-0.7-0.5c0.5,0,0.8,0,1.2,0.2c0.6-0.2-1.2-0.6,0-1c-0.5,0-0.7,0-1-0.1c-1.3-0.4,1.3-1,0.6-1.1c0,0-0.2-0.2-0.4,0
			c0-0.2,0.2-0.4,1-0.4c-0.4-0.1-1-0.1-1.1-0.3l0.9,0c-0.2-0.1-0.7-0.1-0.8-0.2l-0.5,0.1c0.7-0.2-1-0.5,0.6-0.6l0,0.1l0.7-0.4
			c-0.7-0.1-1.3-0.2-1.1-0.5c1.7-0.1,0.3-0.6,0.5-0.9l0.6,0c-0.8-0.2-0.5-0.8-0.8-0.7c0-0.2,0.4-0.6,0.9-0.5
			c-0.3-0.2-0.3-0.6-1.3-0.6l1.4-0.4c-2.1-0.1,0.7-0.8-1.5-0.7c0.3-0.2,0.8-0.2,1.2-0.4c-1.1-0.2-0.9-0.5-0.8-0.8l0.2,0
			c0.2-0.3-1-0.6-1.1-1l1.7-0.2c-0.3-0.2-1.6-0.2-1.2-0.4c0.3-0.1,0.3,0,0.4,0c-0.4-0.2,0.1-0.5,0.5-0.7c-1.2-0.2-0.8-0.5-2.2-0.7
			c1.5-0.4,0.7,0.3,2.1,0c0.8-0.5-0.1-0.9-0.9-1.3c0.3-0.1,0.6,0,0.9,0c0,0-4.1-0.6-5.7-0.3c-1.1,0-1.8-0.1-2.7,0.4
			c0.7,0.1,1.5,0.4,0.3,0.6l1.2-0.1c0.6,0.5-2.4,0.3-2.3,0.9l0.4-0.2c0.1,0.1,0.8,0.2,0.5,0.3c-0.3,0.1-0.5,0-0.8,0l1.6,0.4
			c-0.7,0.1-1,0.1-1.6,0c0.1,0.5,2.1-0.3,1.7,0.4c-0.5,0.1-0.7,0-1.1,0c-1,0.4,0,0.5,0.6,0.7c-1,0.1-0.9-0.1-1.6,0.2
			c0.5-0.1,1.5-0.2,1.6,0c-1.1,0-0.6,0.2-0.8,0.4c0.4-0.1,0.9-0.1,1,0c0.2,0.1-0.2,0.2-0.2,0.3l1-0.3c1,0.2-0.5,0.5-0.9,0.8
			c-0.2,0-0.3,0-0.4-0.1c-0.4,0.3-1.2,0.6-0.3,0.8l-0.1,0c1.1,0.5,1.7-0.3,2.8,0.3c-0.2,0.2-3.4,0.1-2.2,0.5
			c0.9-0.3,2.2,0.2,2.6,0.5l-2.1-0.2c0,0.1,0.6,0.3,0.4,0.4l0.5,0c1.7-0.1-0.2,0.4,0.8,0.6c-2.4-0.2-1.9-0.2-4.3-0.1
			c1.3,0.1,2.5,0.3,2.3,0.7l-1.8-0.2c-0.4,0.5,2.3,1,3.8,1.4c-1.3-0.1-1.8,0.1-3,0l0.3,0.5l-1.5-0.1c1.5,0.1,0.5,0.4,2.4,0.3
			c-0.3,0-0.5,0-0.4-0.1c0.6,0,1.8,0,1.7,0.3c-0.5,0.2-0.8-0.1-1.3,0c0.8,0.1-0.5,0.2,0.1,0.3l0.8-0.2c1.1,0.1,0.1,0.3,0.6,0.4
			c-0.5-0.2-1.1-0.1-1.8,0l0.1,0c0.1,0.1,0.9,0.3,0.2,0.4l-1.6-0.1l1.2,0.1c-0.2,0.1-0.7,0.1-1,0c-0.9,0.6,3.4-0.1,2,0.7
			c-0.6,0-1-0.1-0.6-0.3c-1,0-1.5,0.1-1.8,0.3c-0.1,0-0.1,0-0.2,0C241.4,204,241.4,204.5,242.4,204.7z"/>
		<path fill="#FFC235" d="M241.5,203.6c0-0.2,0-0.4-0.2-0.4C240.9,203.2,240.5,203.7,241.5,203.6z"/>
		<path fill="#FFC235" d="M241.2,233.6c0,0-0.1-0.1-0.1-0.1L241.2,233.6z"/>
		<path fill="#FFC235" d="M241.4,235.2c0.2,0,0.3,0,0.4,0C241.5,235.2,241.2,235.1,241.4,235.2z"/>
		<path fill="#FFC235" d="M242.3,218.5L242.3,218.5L242.3,218.5z"/>
		<path fill="#FFC235" d="M241,227.6c0.5,0.2,0.9,0.3,1.3,0.4C242.2,227.8,241.9,227.7,241,227.6z"/>
		<path fill="#FFC235" d="M242,224.6c-0.1,0-0.1-0.1-0.2-0.1C241.9,224.6,241.9,224.6,242,224.6z"/>
		<path fill="#FFC235" d="M241.6,218c0.5,0.2,0.5,0.4,0.7,0.5C242,218.4,242.6,218.1,241.6,218z"/>
		<polygon fill="#FFC235" points="242.8,237.5 242,237.2 242.6,237.5 		"/>
		<path fill="#FFC235" d="M242.5,235.9c0.2,0-0.2-0.4-0.7-0.4C242.2,235.7,242.4,235.8,242.5,235.9z"/>
		<polygon fill="#FFC235" points="244.1,230.2 243.3,230 243.9,230.2 		"/>
	</g>
	<g>
		<polygon fill="#FFC235" points="280.6,256.6 281,257.3 281.1,256.2 		"/>
		<path fill="#FFC235" d="M285.8,255.6c0.1-1,0.7-1.8,0-3.3c0,0.6-0.1,1.1-0.2,1.7c-0.6-1.1-1-0.8-1.3-0.3l0.5-0.3
			c-0.1,0.2,0.3,0.9,0.3,1.1c-1-0.3-0.6,1.4-1.8,0.4l0-0.1l-0.3,1c-0.2-0.1-0.4-0.7-0.4-0.9c-0.3,0.8-0.4,1.6-1.2,1.8
			c1.3,1.9,0.9-2.2,2.2-0.3l0,0.1C284,255.4,285.3,256.4,285.8,255.6z"/>
		<path fill="#FFC235" d="M282.5,254.8L282.5,254.8C282.5,254.7,282.5,254.7,282.5,254.8z"/>
		<path fill="#FFC235" d="M309,241.5l-0.2-0.3C308.8,241.4,308.9,241.5,309,241.5z"/>
		<path fill="#FFC235" d="M299.3,244.1L299.3,244.1C299.1,243.7,299.1,243.8,299.3,244.1z"/>
		<path fill="#FFC235" d="M328,196.3l0.5-0.2C328.1,196.1,328,196.2,328,196.3z"/>
		<path fill="#FFC235" d="M327.9,183.9L327.9,183.9L327.9,183.9z"/>
		<path fill="#FFC235" d="M321.4,189.9l-0.5,0C321.2,190,321.4,190,321.4,189.9z"/>
		<path fill="#FFC235" d="M320.2,186.4c0.1-0.1,0.2-0.2,0.2-0.3C320.2,186.2,320.1,186.3,320.2,186.4z"/>
		<path fill="#FFC235" d="M328.1,184c-0.1,0-0.2-0.1-0.2-0.1C327.9,183.9,328,184,328.1,184z"/>
		<path fill="#FFC235" d="M320.7,195.3l-1.2,0.1C319.9,195.4,320.3,195.4,320.7,195.3z"/>
		<path fill="#FFC235" d="M319.2,185.7c0.2-0.1,0.3-0.2,0.4-0.2C319.4,185.5,319.2,185.6,319.2,185.7z"/>
		<path fill="#FFC235" d="M286.5,255.2c-0.1,0.1-0.2,0.1-0.3,0.3C286.3,255.5,286.4,255.4,286.5,255.2z"/>
		<path fill="#FFC235" d="M315.8,214.5c-0.1-0.1-0.2-0.1-0.4-0.2C315.5,214.4,315.6,214.5,315.8,214.5z"/>
		<path fill="#FFC235" d="M319,203.4L319,203.4c-0.1,0-0.1,0-0.2,0L319,203.4z"/>
		<path fill="#FFC235" d="M318.5,206.8c-0.1,0-0.2-0.1-0.2-0.1C318.4,206.8,318.4,206.8,318.5,206.8z"/>
		<path fill="#FFC235" d="M318.1,200.7c-0.1-0.1-0.2-0.1-0.4-0.2L318.1,200.7z"/>
		<path fill="#FFC235" d="M319.6,198.5c-0.4,0.1-0.8-0.1-1.2-0.2c-0.6,0.5,0.9,0.9-0.2,1.4l0.6-0.2c0.8,0.5,0.9,1.3-0.3,1.5
			l-0.4-0.2c0.9,0.5-0.9,0.9-0.1,1.1c0.5-0.1,0.8,0.1,1.3-0.1c0.3,0.4,0.6,0.8,0.8,1.1l-1.6-0.2l0.4,0.6c0.7,0-0.6,0.6,0.9,0.9
			c-0.6,0.2-1.2-0.3-1.8-0.5c0.4,0.4-0.3,0.3,0.6,0.7l-1.4,0c0.3,0.3,0.6,0.6,0.8,0.9c-0.1-0.1-0.2,0-0.3-0.1c1.1,0.6-0.9,0.7,1,1.6
			c-0.1,0-0.1,0-0.2-0.1c1,0.5,0.1,0.9-0.2,1.1c0.2,0.4,1.3,0.5,1.8,0.6c-0.7,1.1-0.5,0.7,0.9,2.1c-1.8,0.1-2.6-1.4-3.9-1
			c0.8,0.3,1.3,1,1.5,1.7c-0.7,0.3-1.5,1-2.7,1.1l1.1,0.3c0.1,0.3,0.3,0.6,0.4,0.9l-1.4-0.9c0.3,0.2,0.9,0.8,1.3,1.2
			c0.7,1.1-2.5-0.4-1.1,0.7c-0.1,0-0.2-0.1-0.4-0.1c0.8,0.5,0.3,0.9,0.4,1.5l-1.3-0.7l0.4-0.2c-1.4-0.3,0,0.7-0.2,1
			c0.3,0.5,1.5,0.8,1.8,1.2c-0.1,0.1,0.2,0.5-0.2,0.4c-0.5,0.1-1.6-0.6-2.1-1c1.3,0.9,1.1,0.9,1.4,1.7c-0.7-0.3-0.9-0.4-1-0.6
			c0.1,0.2,0.4,0.4,0.9,0.8l-0.9-0.1c-1.4,0.1,2.2,1.8,1.3,2.5c-0.6-0.6-0.2,0.8-1.1,0.6c-0.1-0.4-2-0.8-2.7-1.4
			c-0.8,0.4,1.4,1,1.5,1.7l-1.5-1.1c0.5,0.8,0.8,0.6,1.1,1.3c-0.4-0.4-0.5,0-0.9-0.6c-0.5,0.6-0.3,0.5-0.8,0.9l1.5,0.9
			c0.1,0.3-0.6,0-1-0.1c0-0.1,0.1-0.2-0.1-0.3c-1.4-0.5,0.5,0.8-0.8,0.3c0.5,0.2,1.2,0.5,1.2,0.8c-0.9-0.6-1.1-0.2-1.5-0.4
			c0.7,0.2,0,0.7,1,1.3c-0.9-0.2-0.7-0.5-1.2-0.8c1,0.9-0.4,1,0.2,1.6c-0.1-0.1-0.2-0.1-0.2-0.1c0.5,0.7,0.4,1.3,1,2.5l-0.7-0.8
			c-0.7,0.3,1.5,1.5,1.2,2c-1.1-0.9-0.4,0.8-1.6-0.3c0.5,0.7,0.6,1.3,1.4,2.2c-0.8-0.2-1.2-1.7-1.8-1.5l0.3,0.8l-0.7-0.4
			c0.5,0.4,0.2,0.7,0.6,1c-0.8-0.5-1.4-0.7-2-1.2c0.1,0.4-0.9,0.2-0.4,0.9l-0.4-0.3c1.2,1.3-0.3,0.9,1,2.2l-0.9-0.5
			c-0.2,0.5,1.3,1.6,1.5,2c-0.1,0.2-0.1,0.5-0.3,0.6c-0.5-1.2-1.3-0.7-1.8-1c-0.2,0.2-0.5,0.8,0,1.5c-0.5-0.8-1.2-1.2-0.9-1.6
			c-1.5-1-0.2,0.8-0.8,1.1l-0.6-0.6c-0.1,1,0.9,1.9,1.7,3.2c-0.8-0.6-0.9-0.9-1.5-1.7c-0.8,0-0.9,1.1-1.4,1.4
			c-0.6-0.4-0.8-0.8-0.9-1.1c0.1,1-1.1,0.8-0.2,2.4c-0.4-0.6-0.5-0.2-0.9-0.3c0.3,0.3,0.5,0.7,0.5,0.6c0.2,0.8,0,1.9-0.8,1.7
			l-0.2-0.5c-1,0.4,0.7,3.1-1.1,2.9c-0.4-0.2-0.8-1.3-1.1-1c0.3,0.6,1.2,1.7,0.5,1.7l-0.7-0.9l0.4,1.2c0.8,0.7,1,0,1.4,1.1
			c-1.1-0.6,0.3,1.1-1,0.5c0-0.2-0.4-1-0.6-1.4c-1.8-0.3-0.7,2-2.6,1.5c0,1.1-0.5,1.8-0.4,2.7c-0.6-1-1.2-1.9-1.5-2.8
			c-0.5,0.2,0.7,2.5-0.5,1.3c0.7,1.5-0.7,1.7,0.4,3.7c-0.3-0.4-0.5,0.3-0.7-1.1c-0.3,1-1.9-1.2-2.1-1c-0.1,0.2,0.9,1.1,0.6,1.4
			c-0.1-0.1-0.2-0.2-0.3-0.3l0.1,0.5c-0.4-0.4-0.4-1.1-0.7-1.6c-0.8-0.1-0.2,1.6-0.8,2.1l-0.1-0.4l-0.7,0.3l0-0.1l-0.2,1l-0.3-0.5
			c0,0.2,0.1,0.5,0,0.7l-0.3-0.7c0.3,1.1,0,2-0.3,2.1l-0.2-0.3l-0.1,1.7c-0.7-0.5-0.2-1.8-0.8-0.9l-0.4-1.4
			c-0.3,0.8-0.7,0.1-0.9,0.7c0.5,0.6,0.7,0.4,0.8,1.1c-1.1-1.3-0.5,0.7-0.7,1.5c0.2-0.1,0.4-0.2,0.2-1c0.2-0.1,0.4,0.7,0.6,0.7
			l0-0.9l0.5,0.9l0.2-1c0.5,1.1,0.6-0.1,0.9,1.1c0.2-0.6,0.8,0,0.6-1.2c0.6,0.5,0,1,0.3,0.9c1.1-1.6,2.8-2.3,4.5-2.9l0.1,0.5
			c-0.1-0.5-0.1-1-0.2-1.4c0.7,0.7,2.4,1.1,1.8-0.7c0.1,0.1,0.2,0.3,0.2,0.5c0.4-0.5,2,0,2.6-0.7c-0.8-1.8,1.7,0.2,0.5-2.1l0.2,0.5
			c-0.6-0.4-0.7-1.7-1-2.3c1.2,1.2,0.8,1,1.9,2.1l-0.6-0.3l0.9,1.1c-1.2-3.5,2.6,0,1.6-2.4c0.1,0.1,0.2,0.3,0.2,0.4
			c0.8,0.3,0-1.2,0-1.8c0.5,0.5,0.6,1,0.7,1.5c1-0.1,0.8-2.4,2.2-2.1c-0.4-0.9-0.9-0.9-1.1-1.6c0.4,0,1,0.5,1.1,1
			c1.7,0.8,1.1-2.5,3-2.2c-0.3-1.2-0.9-1.2-0.7-2.3c0.3,0.6,1.8,1.4,1.4,1.9l0.5,0.6c0.8-0.6,1.9-1.3,0.7-3.1c1.1,1,0.3,0.1,1.2,0.4
			c0-0.2-0.2-0.1-0.3-0.2c-0.7-1.1,0.4-0.4,0.4-0.7l0.1,0.2l-0.3-1.1c0.2,0,0.6,0.1,0.9,0.4l-0.8-0.7c0.2-0.3,1.1,0.7,1.2,0.2
			l-0.7-0.4c0.6,0.1,0-1,0.9-0.3c0.2,0.1,0.1,0.1,0,0.2c1.5,0.7,0.3-1.2,1.3-1.2l-1.4-0.9c-0.1-0.7,0.5,0,0.9,0.3
			c0.2-0.3,0.7,0,1.1-0.3c-0.2-0.5-0.4-0.5-0.8-0.8l0.6-0.1l0.6,0.8c-1.5-2.1,1.3-1.4-0.2-3.1c0.6,0,0.7,0.8,1,0.8
			c1.4-0.1-0.2-2.5,1.2-2.4c1.7-0.4,1.4-2.2,2.8-2.9l-0.4-0.2l0.8-0.7c-0.8-0.7-0.1-1.1-0.9-2c0.3,0.2,0.8,0.4,1,0.6
			c0.1-0.4-0.2-1,0.5-1l0.3,0.3c0.6-0.7,1.2-1.8,0.6-2.6c0-0.3,0.8,0,1.3,0.2c0.2-0.5,0-1-0.5-1.6c0.2,0,0.4-0.1,0.9,0l-1-0.6
			c0.2-0.1,0.9,0.3,1.2,0.3c-0.9-1.2,0.5-1.7,0.6-2.2l-0.5-0.1c-0.3-0.4,0.6-0.5,1-0.1c1-0.8-1.1-2.1-0.4-3.5c2,0.4-0.2-1.5,2.1-1
			c-0.4-0.8,0.6-0.9-0.6-1.7c0.2,0,0.3,0,0.3,0.1c0.9,0,0.5-1,0.1-1.8l0.7,0.1c-1.4-0.6-0.7-1.5-2.1-2.1c0.3,0,0.6,0.2,0.8,0.4
			c1.4,0-0.5-0.7-0.1-1c0.3,0.1,0.8,0.1,1,0.2c0.9-0.5,0.8-1.5,0.6-2.4c-0.2-1-0.4-2,0.2-2.8c0.1-0.5-1.6,0-1.4-0.7
			c0.8-0.1,1.5,0.5,1.8,0.1c-0.9-0.4-0.7-0.5-0.5-0.9c0.5,0.1,0.8,0.1,1.1,0.4c0.7-0.2-1.1-1.1,0.2-1.5c-0.5,0-0.7-0.1-1-0.2
			c-1.2-0.8,1.4-1.5,0.7-1.6c0,0-0.2-0.3-0.4-0.1c0.1-0.3,0.3-0.6,1-0.5c-0.4-0.2-1-0.3-1.1-0.5l0.9,0.2c-0.2-0.1-0.7-0.3-0.8-0.4
			l-0.5,0.2c0.7-0.3-1-0.9,0.7-0.8l0,0.1l0.8-0.5c-0.7-0.2-1.3-0.5-1.1-0.8c1.7-0.1,0.4-0.9,0.5-1.4l0.6,0c-0.8-0.4-0.5-1.3-0.8-1.1
			c0-0.4,0.4-0.9,0.9-0.7c-0.3-0.3-0.4-0.9-1.4-1l1.4-0.7c-2.1-0.2,0.7-1.2-1.5-1.1c0.3-0.4,0.8-0.3,1.2-0.6c-1.1-0.4-1-0.8-0.9-1.3
			l0.2,0c0.1-0.5-1-0.9-1.2-1.6l1.7-0.4c-0.3-0.3-1.6-0.2-1.3-0.6c0.2-0.1,0.3-0.1,0.5,0c-0.4-0.3,0-0.8,0.4-1.1
			c-1.3-0.3-0.9-0.8-2.3-1c1.4-0.6,0.7,0.5,2.1-0.1c0.7-0.8-0.3-1.4-1.2-2.1c0.3-0.1,0.6-0.1,0.9-0.1c0,0-1.1-0.2-2.3-0.3
			c-1.3-0.1-2.7-0.1-3.5,0.2c-1.1,0.1-1.8,0-2.6,0.8c0.7,0,1.6,0.4,0.4,0.8l1.2-0.2c0.7,0.7-2.4,0.6-2.1,1.5l0.3-0.3
			c0.1,0.2,0.9,0.2,0.5,0.4c-0.3,0.1-0.5,0-0.8,0c0.6,0.2,1.2,0.3,1.7,0.5c-0.7,0.1-1,0.2-1.6,0.1c0.2,0.7,2.1-0.5,1.8,0.5
			c-0.5,0.2-0.7,0.1-1.1,0c-0.9,0.6,0,0.7,0.7,1c-1,0.2-1-0.1-1.6,0.3c0.5-0.1,1.4-0.3,1.6-0.1c-1.1,0-0.5,0.3-0.8,0.6
			c0.4-0.1,0.9-0.1,1-0.1c0.2,0.1-0.2,0.3-0.1,0.4l1-0.5c1,0.3-0.5,0.8-0.9,1.2c-0.2,0-0.3-0.1-0.4-0.1c-0.4,0.4-1.2,0.9-0.2,1.2
			l-0.1,0c1.1,0.8,1.7-0.4,2.8,0.5c-0.2,0.4-3.4,0.1-2.2,0.8c0.9-0.4,2.2,0.3,2.6,0.8l-2.1-0.3c0,0.2,0.6,0.5,0.4,0.6l0.5,0
			c1.7-0.1-0.2,0.6,0.9,0.9c-2.4-0.3-1.9-0.3-4.3-0.3c1.3,0.2,2.5,0.5,2.3,1.1l-1.8-0.4c-0.4,0.7,2.3,1.5,3.8,2.2
			c-1.3-0.2-1.8,0.1-3-0.2l0.3,0.7l-1.5-0.2c1.5,0.3,0.5,0.6,2.4,0.6c-0.3-0.1-0.5-0.1-0.4-0.2c0.6,0,1.8,0.2,1.7,0.5
			c-0.5,0.2-0.8-0.2-1.3-0.1c0.8,0.3-0.5,0.2,0.1,0.5l0.8-0.2c1.1,0.2,0,0.4,0.6,0.7c-0.5-0.3-1.1-0.2-1.8-0.1l0.1,0
			c0.1,0.2,0.8,0.5,0.2,0.5l-1.6-0.2l1.1,0.3c-0.2,0.1-0.8,0.1-1,0c-1,0.8,3.4,0.1,1.9,1.1c-0.6-0.1-1-0.2-0.6-0.5
			c-0.9-0.1-1.5-0.1-1.9,0.2c-0.1,0-0.1,0-0.2,0C318.7,197.3,318.6,198,319.6,198.5z"/>
		<path fill="#FFC235" d="M318.8,196.8c0-0.3,0-0.5-0.2-0.7C318.3,196.2,317.8,196.7,318.8,196.8z"/>
		<path fill="#FFC235" d="M302.9,236.1c0-0.1,0-0.1,0-0.2L302.9,236.1z"/>
		<path fill="#FFC235" d="M301.5,238.1c0.1,0.1,0.2,0.1,0.3,0.2C301.6,238,301.5,237.9,301.5,238.1z"/>
		<path fill="#FFC235" d="M314.9,217.8C314.9,217.8,314.9,217.8,314.9,217.8C314.9,217.8,314.9,217.8,314.9,217.8z"/>
		<path fill="#FFC235" d="M307.8,229c0.3,0.5,0.6,0.8,0.9,1C308.7,229.9,308.4,229.6,307.8,229z"/>
		<path fill="#FFC235" d="M310.9,225.7c0-0.1-0.1-0.1-0.2-0.2C310.8,225.6,310.8,225.6,310.9,225.7z"/>
		<path fill="#FFC235" d="M314.4,216.9c0.4,0.4,0.3,0.6,0.4,1C314.7,217.5,315.3,217.4,314.4,216.9z"/>
		<polygon fill="#FFC235" points="300.4,241.3 300.1,240.6 300.3,241.2 		"/>
		<path fill="#FFC235" d="M301.8,239.4c0.2,0.1,0.2-0.6-0.2-0.8C301.8,239,301.8,239.2,301.8,239.4z"/>
		<polygon fill="#FFC235" points="308.4,233.7 307.8,233 308.2,233.6 		"/>
	</g>
</g>
<g>
</g>
<g>
</g>
<g>
</g>
<g>
</g>
<g>
</g>
<g>
</g>
<g>
</g>
<g>
</g>
<g>
</g>
<g>
</g>
<g>
</g>
<g>
</g>
<g>
</g>
<g>
</g>
<g>
</g>
</svg>
