<?xml version="1.0" encoding="utf-8"?>
<!-- Generator: Adobe Illustrator 18.0.0, SVG Export Plug-In . SVG Version: 6.00 Build 0)  -->
<!DOCTYPE svg PUBLIC "-//W3C//DTD SVG 1.1//EN" "http://www.w3.org/Graphics/SVG/1.1/DTD/svg11.dtd">
<svg version="1.1" id="Layer_1" xmlns="http://www.w3.org/2000/svg" xmlns:xlink="http://www.w3.org/1999/xlink" x="0px" y="0px"
	 viewBox="0 0 6564.9 973" enable-background="new 0 0 6564.9 973" xml:space="preserve">
<polygon fill="#F7C195" points="1094.4,187.5 901.2,199 598.9,47.8 204.1,95.5 0,350.1 16.4,393.3 204.1,159.2 598.9,111.5 
	901.2,262.6 1094.4,251.1 1214.8,378.4 1214.8,314.8 "/>
<polygon fill="#D1504A" points="662.2,832.8 169.3,795.7 16.4,393.3 0,413.8 169.3,859.3 662.2,896.5 1061.5,751.3 1214.8,519.9 
	1214.8,456.2 1061.5,687.6 "/>
<polygon fill="#EBE5C9" points="901.2,262.6 598.9,111.5 204.1,159.2 16.4,393.3 169.3,795.7 662.2,832.8 1061.5,687.6 
	1214.8,456.2 1214.8,378.4 1094.4,251.1 "/>
<polygon fill="#F7C195" points="3587.9,52.5 4043.8,73.8 4494.7,430.7 4503.4,439.9 4514,398.4 4494.7,378.2 4043.8,21.3 3587.9,0 
	3322.1,113.8 3206.5,468.6 3209.3,512.7 3322.1,166.3 "/>
<polygon fill="#D1504A" points="4404.4,829.5 3869,902.2 3425.2,790.6 3211.8,552.7 3209.3,512.7 3206.5,521.2 3211.8,605.2 
	3425.2,843.1 3869,954.7 4404.4,882.1 4514,451 4503.4,439.9 "/>
<polygon fill="#EBE5C9" points="3425.2,790.6 3869,902.2 4404.4,829.5 4503.4,439.9 4494.7,430.7 4043.8,73.8 3587.9,52.5 
	3322.1,166.3 3209.3,512.7 3211.8,552.7 "/>
<polygon fill="#F7C195" points="5151.9,57.8 5607.4,79.1 6545.7,436 6554.4,445.1 6564.9,403.7 6545.7,383.5 5607.4,26.6 
	5151.9,5.3 4886.3,119 4770.8,473.5 4773.6,517.5 4886.3,171.5 "/>
<polygon fill="#D1504A" points="6440.4,792 5432.8,906.7 4989.3,795.2 4776.1,557.5 4773.6,517.5 4770.8,526 4776.1,610 
	4989.3,847.7 5432.8,959.2 6440.4,844.5 6564.9,456.2 6554.4,445.1 "/>
<polygon fill="#EBE5C9" points="4989.3,795.2 5432.8,906.7 6440.4,792 6554.4,445.1 6545.7,436 5607.4,79.1 5151.9,57.8 
	4886.3,171.5 4773.6,517.5 4776.1,557.5 "/>
<g>
	<polygon fill="#D1504A" points="2497.2,882.4 2118.6,920.4 1707.3,687.1 1677.6,491.2 1670.7,498.7 1707.3,739.7 2118.6,973 
		2497.2,934.9 2888.6,664.6 2877.9,619.4 	"/>
	<g>
		<polygon fill="#F7C195" points="2394.2,147.8 2805.4,314.5 2877.9,619.4 2888.6,612 2805.4,262 2394.2,95.2 1997.3,87.4 
			1670.7,446.1 1677.6,491.2 1997.3,140 		"/>
		<polygon fill="#EBE5C9" points="2118.6,920.4 2497.2,882.4 2877.9,619.4 2805.4,314.5 2394.2,147.8 1997.3,140 1677.6,491.2 
			1707.3,687.1 		"/>
	</g>
</g>
<g>
</g>
<g>
</g>
<g>
</g>
<g>
</g>
<g>
</g>
<g>
</g>
<g>
</g>
<g>
</g>
<g>
</g>
<g>
</g>
<g>
</g>
<g>
</g>
<g>
</g>
<g>
</g>
<g>
</g>
</svg>
