<?xml version="1.0" encoding="utf-8"?>
<!-- Generator: Adobe Illustrator 18.0.0, SVG Export Plug-In . SVG Version: 6.00 Build 0)  -->
<!DOCTYPE svg PUBLIC "-//W3C//DTD SVG 1.1//EN" "http://www.w3.org/Graphics/SVG/1.1/DTD/svg11.dtd">
<svg version="1.1" id="Layer_1" xmlns="http://www.w3.org/2000/svg" xmlns:xlink="http://www.w3.org/1999/xlink" x="0px" y="0px"
	 viewBox="0 0 3468.2 1269.3" enable-background="new 0 0 3468.2 1269.3" xml:space="preserve">
<defs>
	<pattern width="280" height="280" patternUnits="userSpaceOnUse" id="pat" viewBox="0 0 280 280" overflow="visible">
		<g>
			<rect width="280" height="280" style="fill:#8bbabb"/><path d="M137,52.71c9.58,0,9.6-14.89,0-14.89s-9.6,14.89,0,14.89Z" style="fill:#7ca6a7"/><path d="M50.25,97.1c9.58,0,9.6-14.89,0-14.89s-9.6,14.89,0,14.89Z" style="fill:#7ca6a7"/><path d="M223.72,101.38c9.58,0,9.6-14.89,0-14.89s-9.6,14.89,0,14.89Z" style="fill:#7ca6a7"/><path d="M137,153.13c9.58,0,9.6-14.89,0-14.89s-9.6,14.89,0,14.89Z" style="fill:#7ca6a7"/><path d="M137.15,247.36c9.58,0,9.6-14.89,0-14.89s-9.6,14.89,0,14.89Z" style="fill:#7ca6a7"/><path d="M50.25,197.51c9.58,0,9.6-14.89,0-14.89s-9.6,14.89,0,14.89Z" style="fill:#7ca6a7"/><path d="M223.72,201.79c9.58,0,9.6-14.89,0-14.89s-9.6,14.89,0,14.89Z" style="fill:#7ca6a7"/>
		</g>
	</pattern>
</defs>
<rect x="0" y="0" fill="#CCEAEA" width="3468.2" height="1269.3"/>
<path fill="url(#pat)" d="M380.4,1268.7h59.5h359.2h106.9h359.2h59.5h319.7h146.4h319.7h59.5h466l-167-151
	c-64.7-58.5-159.4-69.1-235.4-26.5v0c-59.2,33.2-131,34.6-191.5,3.8l-16.3-8.3c-78.2-39.9-173.1-25-235.4,36.9
	c-42.8,42.5-111.3,44.1-156.1,3.7l-10.6-9.6c-64.7-58.5-159.4-69.1-235.4-26.5l0,0c-59.2,33.2-131,34.6-191.5,3.8l-16.3-8.3
	c-78.2-39.9-173.1-25-235.4,36.9c-53.3,53-138.8,55-194.6,4.6l-11.6-10.5c-64.7-58.5-159.4-69.1-235.4-26.5l0,0
	c-59.2,33.2-131,34.6-191.5,3.8l-16.3-8.3c-78.2-39.9-173.1-25-235.4,36.9c-17.1,17-38.2,27.4-60.3,31.3v113.9h60.7H380.4z"/>
<g>
</g>
<g>
</g>
<g>
</g>
<g>
</g>
<g>
</g>
<g>
</g>
<g>
</g>
<g>
</g>
<g>
</g>
<g>
</g>
<g>
</g>
<g>
</g>
<g>
</g>
<g>
</g>
<g>
</g>
</svg>
