<?xml version="1.0" encoding="utf-8"?>
<!-- Generator: Adobe Illustrator 18.0.0, SVG Export Plug-In . SVG Version: 6.00 Build 0)  -->
<!DOCTYPE svg PUBLIC "-//W3C//DTD SVG 1.1//EN" "http://www.w3.org/Graphics/SVG/1.1/DTD/svg11.dtd">
<svg version="1.1" id="Layer_1" xmlns="http://www.w3.org/2000/svg" xmlns:xlink="http://www.w3.org/1999/xlink" x="0px" y="0px"
	 viewBox="0 0 230.3 163.4" enable-background="new 0 0 230.3 163.4" xml:space="preserve">
<g>
	<path fill="#FFFFFF" d="M175.5,130.6H54.8C24.5,130.6,0,106.1,0,75.8l0-21C0,24.5,24.5,0,54.8,0l120.7,0
		c30.3,0,54.8,24.5,54.8,54.8v21C230.3,106.1,205.7,130.6,175.5,130.6z"/>
	<g>
		<path fill="#616264" d="M59.6,68.8h-5.7V71h-3.4V45h9.1V68.8z M56.3,65.6V48.2h-2.4v17.4H56.3z M65.1,67.7
			c-0.5,2.4-1.2,4.5-2.1,6.4L59.8,73c0.9-1.6,1.7-3.6,2.3-6.1L65.1,67.7z M79.5,43.5v12.7h-7.3v1.9h7.2v2.9h-7.2v2h8.4v3H60.5v-3
			h8.3v-2h-7.3v-2.9h7.3v-1.9h-7.3V43.5H79.5z M69.1,46.5h-4.5v6.8h4.5V46.5z M68.4,52l-2,0.5c-0.3-1.6-0.6-3.1-1.1-4.5l2-0.6
			C67.7,48.7,68.1,50.2,68.4,52z M70.3,73.5l-3,0.8c-0.3-2.4-0.7-4.4-1.2-6.2l2.9-0.6C69.5,69.3,69.9,71.3,70.3,73.5z M75.6,73.3
			l-3,0.8c-0.4-2.4-1-4.5-1.6-6.3l2.9-0.6C74.5,69.1,75.1,71.2,75.6,73.3z M76.4,46.5h-4.5v6.8h4.5V46.5z M75.7,47.9
			c-0.3,1.7-0.8,3.3-1.3,4.7l-2-0.7c0.4-1.2,0.9-2.7,1.2-4.4L75.7,47.9z M81.2,72.8l-2.9,1.3c-0.7-2.4-1.4-4.5-2.3-6.4l2.8-0.9
			C79.7,68.7,80.5,70.7,81.2,72.8z"/>
		<path fill="#616264" d="M95.5,68.8h-5.7V71h-3.4V45h9.1V68.8z M92.2,65.6V48.2h-2.4v17.4H92.2z M101,67.7
			c-0.5,2.4-1.2,4.5-2.1,6.4L95.7,73c0.9-1.6,1.7-3.6,2.3-6.1L101,67.7z M115.4,43.5v12.7h-7.3v1.9h7.2v2.9h-7.2v2h8.4v3H96.4v-3
			h8.3v-2h-7.3v-2.9h7.3v-1.9h-7.3V43.5H115.4z M105,46.5h-4.5v6.8h4.5V46.5z M104.3,52l-2,0.5c-0.3-1.6-0.6-3.1-1.1-4.5l2-0.6
			C103.7,48.7,104,50.2,104.3,52z M106.2,73.5l-3,0.8c-0.3-2.4-0.7-4.4-1.2-6.2l2.9-0.6C105.4,69.3,105.8,71.3,106.2,73.5z
			 M111.6,73.3l-3,0.8c-0.4-2.4-1-4.5-1.6-6.3l2.9-0.6C110.4,69.1,111,71.2,111.6,73.3z M112.3,46.5h-4.5v6.8h4.5V46.5z M111.6,47.9
			c-0.3,1.7-0.8,3.3-1.3,4.7l-2-0.7c0.4-1.2,0.9-2.7,1.2-4.4L111.6,47.9z M117.1,72.8l-2.9,1.3c-0.7-2.4-1.4-4.5-2.3-6.4l2.8-0.9
			C115.7,68.7,116.4,70.7,117.1,72.8z"/>
		<path fill="#616264" d="M127.5,56.4c0.5,0.5,0.7,1.1,0.7,1.9c0,0.8-0.2,1.4-0.7,1.9c-0.5,0.5-1.1,0.8-1.8,0.8
			c-0.8,0-1.4-0.3-1.9-0.8c-0.5-0.5-0.7-1.1-0.7-1.9c0-0.8,0.2-1.4,0.7-1.9c0.5-0.5,1.1-0.8,1.9-0.8C126.4,55.6,127,55.9,127.5,56.4
			z M138.9,56.4c0.5,0.5,0.7,1.1,0.7,1.9c0,0.8-0.2,1.4-0.7,1.9c-0.5,0.5-1.1,0.8-1.8,0.8c-0.8,0-1.4-0.3-1.9-0.8
			c-0.5-0.5-0.7-1.1-0.7-1.9c0-0.8,0.2-1.4,0.7-1.9c0.5-0.5,1.1-0.8,1.9-0.8C137.9,55.6,138.5,55.9,138.9,56.4z M150.4,56.4
			c0.5,0.5,0.7,1.1,0.7,1.9c0,0.8-0.2,1.4-0.7,1.9c-0.5,0.5-1.1,0.8-1.8,0.8c-0.8,0-1.4-0.3-1.9-0.8c-0.5-0.5-0.7-1.1-0.7-1.9
			c0-0.8,0.2-1.4,0.7-1.9c0.5-0.5,1.1-0.8,1.9-0.8C149.3,55.6,149.9,55.9,150.4,56.4z"/>
		<path fill="#616264" d="M163.4,56.4c0.5,0.5,0.7,1.1,0.7,1.9c0,0.8-0.2,1.4-0.7,1.9c-0.5,0.5-1.1,0.8-1.8,0.8
			c-0.8,0-1.4-0.3-1.9-0.8c-0.5-0.5-0.7-1.1-0.7-1.9c0-0.8,0.2-1.4,0.7-1.9c0.5-0.5,1.1-0.8,1.9-0.8C162.3,55.6,163,55.9,163.4,56.4
			z M174.9,56.4c0.5,0.5,0.7,1.1,0.7,1.9c0,0.8-0.2,1.4-0.7,1.9c-0.5,0.5-1.1,0.8-1.8,0.8c-0.8,0-1.4-0.3-1.9-0.8
			c-0.5-0.5-0.7-1.1-0.7-1.9c0-0.8,0.2-1.4,0.7-1.9c0.5-0.5,1.1-0.8,1.9-0.8C173.8,55.6,174.4,55.9,174.9,56.4z M186.3,56.4
			c0.5,0.5,0.7,1.1,0.7,1.9c0,0.8-0.2,1.4-0.7,1.9c-0.5,0.5-1.1,0.8-1.8,0.8c-0.8,0-1.4-0.3-1.9-0.8c-0.5-0.5-0.7-1.1-0.7-1.9
			c0-0.8,0.2-1.4,0.7-1.9c0.5-0.5,1.1-0.8,1.9-0.8C185.2,55.6,185.8,55.9,186.3,56.4z"/>
	</g>
	<path fill="#FFFFFF" d="M75.5,123.2c0,0,1.9,30.9-11.8,40.2c0,0,34.8-6.5,42.1-40.2H75.5z"/>
</g>
<g>
</g>
<g>
</g>
<g>
</g>
<g>
</g>
<g>
</g>
<g>
</g>
<g>
</g>
<g>
</g>
<g>
</g>
<g>
</g>
<g>
</g>
<g>
</g>
<g>
</g>
<g>
</g>
<g>
</g>
</svg>
