<?xml version="1.0" encoding="utf-8"?>
<!-- Generator: Adobe Illustrator 18.0.0, SVG Export Plug-In . SVG Version: 6.00 Build 0)  -->
<!DOCTYPE svg PUBLIC "-//W3C//DTD SVG 1.1//EN" "http://www.w3.org/Graphics/SVG/1.1/DTD/svg11.dtd">
<svg version="1.1" id="Layer_1" xmlns="http://www.w3.org/2000/svg" xmlns:xlink="http://www.w3.org/1999/xlink" x="0px" y="0px"
	 viewBox="0 0 681.6 912.9" enable-background="new 0 0 681.6 912.9" xml:space="preserve">
<g>
	<rect x="301.8" y="555.9" fill="#669585" width="79.8" height="356.9"/>
	<g>
		<polygon fill="#AADBCD" points="324.2,728.5 324.5,728.2 323.7,728.1 		"/>
		<path fill="#AADBCD" d="M327,727l-0.3-0.6c-2.3,0.3-1.6-0.2-3.2,0.7c0.3,0.3,1.1,1,2,1c-0.1-0.2-0.9-0.6-0.7-0.9
			c0.6,0.2,0.6,0.5,1.4,0.7c0.7-0.5-0.5-0.4-0.2-0.9L327,727z"/>
		<path fill="#AADBCD" d="M324.8,726.3c0.4,0.1,0.8,0.1,1.1,0.1C325.5,726.4,325,726.1,324.8,726.3z"/>
		<path fill="#AADBCD" d="M324.6,725.9c0.1-0.4,0.8,0,1,0l-1.4-0.4L324.6,725.9z"/>
		<path fill="#AADBCD" d="M324.7,724.5c0-0.1-0.1-0.1-0.1-0.2C324.3,724.3,324.5,724.4,324.7,724.5z"/>
		<path fill="#AADBCD" d="M324.5,723.7c-0.5,0.1-0.2,0.3,0,0.6c0,0,0,0,0.1,0c0.4-0.2,1.5,0,1.2,0.4c0.2,0.4-0.8,0.3-0.1,0.6
			l0.8-0.4C326.4,724.3,324.9,723.9,324.5,723.7z"/>
		<path fill="#AADBCD" d="M324.7,724.5c0,0.1,0.1,0.1,0.1,0.2C324.9,724.6,324.8,724.5,324.7,724.5z"/>
		<polygon fill="#AADBCD" points="324.6,725.2 324.8,725.4 325.2,725.4 		"/>
		<path fill="#AADBCD" d="M324.5,722.5c1.4,0.1-0.2,0.9,0.9,1c0-0.5,1-0.8,1.8-0.7l-0.4-0.5C326.2,722,325.2,722.2,324.5,722.5z"/>
		<path fill="#AADBCD" d="M328.1,721.5c-0.1,0-0.2-0.1-0.2-0.1C327.9,721.5,328,721.5,328.1,721.5z"/>
		<path fill="#AADBCD" d="M325.7,718.8l1.4,1.3c-0.5-0.1-0.9-0.1-1.1-0.4c-0.2,0.5,0.7,0.6,0.5,1.1c-1.3,0.1-0.1-0.8-1.3-0.6
			c0,0.3,0.1,0.8,1.2,1.1l-0.9,0.5l1.4-0.1c0.4-0.2-1.1-0.4-0.1-0.5c0.6,0,0.7,0.2,0.9,0.3c-0.3-0.3,1.1-0.9,1-1.5
			C328.7,719.2,326.4,719.3,325.7,718.8z"/>
		<polygon fill="#AADBCD" points="327.3,718.8 327.9,718.7 327.1,718.7 		"/>
		<path fill="#AADBCD" d="M325.5,717.4l0.9,0.7c-0.1,0.1-0.4,0.1-0.7,0.1c0.3,0,0.9,0.2,1.2,0.2c1.3-0.3-0.4-0.8-0.6-1.2
			c0.6-0.9,0.7,0.1,1.9-0.3c0,0.3-0.4,0.3-0.4,0.6c1.5-0.5,0.1-1.3-0.2-1.6c-0.1,0.1-0.5,0.1-0.4,0.3l-0.4-0.4
			C325.6,716.2,325.3,716.5,325.5,717.4z"/>
		<path fill="#AADBCD" d="M325.4,718.5c-0.1-0.2,0-0.3,0.2-0.3C325.3,718.2,325,718.3,325.4,718.5z"/>
		<path fill="#AADBCD" d="M327.4,715.7c-0.1,0-0.1,0.1,0,0.2C327.5,715.8,327.5,715.8,327.4,715.7z"/>
		<path fill="#AADBCD" d="M325.9,716l0.1-0.5l-0.6,0.2C325.5,715.8,325.6,716,325.9,716z"/>
		<path fill="#AADBCD" d="M328.3,698.6c-0.5,0-0.8,0.2-0.7,0.5c-0.7-0.1-0.6-0.5-1-0.7c-0.5,0.5-0.8,0-1.5,0.1
			c-0.1,0.5,0.8,0.8,0.6,1.3c-0.2,0-0.5,0-0.8,0c0.4,0.7,1.1,1.8,0.4,2.5c-0.3,0.6,0,1.1,0.3,1.8c-0.4,2.3,0.3,4.6-0.5,7.1l1.4,0.4
			c-0.7,0.1,0,0.6-0.9,0.5c0.2-0.1,0-0.3,0-0.4c-1.2,0.5,0.1,1.4-0.4,2c0.2-0.1,1.4-0.1,1.7,0.1c-1.5-0.1,0,0.7-1.7,0.9
			c-0.4,0.6,1.3,0.1,1.1,0.7c0.9,0.1,0.5-0.6,1.1-0.7c0.7,0.2-0.3,0.6,0.6,0.6c0.5-1-1.4-3-1.8-4.6l0.8,0.2
			c-0.6-0.8-0.6-2.2,0.8-2.8c-0.8,0.1,0.5-1.2-1.4-1.1c0.4-0.2,0.4-0.3,0.5-0.6l-0.6-0.1c0-0.4,0.9-0.3,0.9-0.8
			c-0.8,0.3-1-0.1-1.7-0.2c0.9-0.5,1.7-1.2,2.4-1.6c-0.3,0-0.5,0.1-0.9,0.2c0.3-0.3-0.5-0.3-0.7-0.4c0-0.3,1-0.3,1.5-0.2
			c0.3-0.6-1.6-0.9-1-1.3l-0.8,0.1c-0.2-0.6,0.7-1.1,0.5-1.8c1.1-0.3,0.9,0.6,1.4,0.9c0.2-0.1,0.3-0.4,0.7-0.5
			c-0.6-0.3-1.3-0.8-1.9-1.2C328.2,699.7,328.2,698.9,328.3,698.6z"/>
		<path fill="#AADBCD" d="M328.8,700.5c0.2,0.1,0.3,0.2,0.4,0.2c-0.1-0.1-0.1-0.1-0.1-0.2C329,700.5,328.9,700.5,328.8,700.5z"/>
		<path fill="#AADBCD" d="M328.3,698.6c0,0,0.1,0,0.1,0C328.3,698.6,328.3,698.6,328.3,698.6z"/>
		<path fill="#AADBCD" d="M325.3,702.4C325.4,702.4,325.4,702.4,325.3,702.4c0.1-0.1,0.1-0.2,0.1-0.2L325.3,702.4z"/>
		<path fill="#AADBCD" d="M329,703c-0.3,0.1-0.6,0.3-0.9,0.5C328.5,703.5,328.8,703.4,329,703z"/>
		<path fill="#AADBCD" d="M328,707.1c0.1,0.1,0.4,0.1,0.6,0.2C328.7,707,328.4,706.9,328,707.1z"/>
		<polygon fill="#AADBCD" points="329,699.8 328.8,699.3 328.6,699.1 		"/>
		<path fill="#AADBCD" d="M325,689.4c-1,0.4-0.4,1.1-0.6,1.7c0.5,1,2.1,0.2,2.2,1.1l-2-0.2c0.1,1-0.3,2.3,1.4,3.2
			c-0.2,0.1-0.5,0.2-0.8,0c0.1,0.6,2.8,0.4,2.2,1.2c-1.2-0.8-1.2,0.2-2.4,0l-0.1-0.1c0.1,0.5,0.8,1.3,0.7,1.6c0.5,0,1.3-0.3,1.4,0.2
			c0.1-0.2,0.7-0.1,1.2-0.1c-0.6-0.5-0.2-0.8-0.9-1.1c0.7-0.3,0.2,0.2,0.9-0.1l-0.6-0.4c0.2-0.3,0.7,0.3,0.8-0.1
			c-0.4-0.1-0.8-0.4-0.7-0.8l0.2,0.1c-0.3-0.3,0.1-0.7-1-0.6l1.1-0.3l-0.8,0c0.3-0.7,2.1-1,1.2-2c-0.2,0.2-0.6,0-0.8-0.1
			c-0.5,0.4,0.6,0.5,0.7,0.9c-0.8,0-1.6-0.6-2.1-0.2c0.9-0.5-0.1-1,1.8-1.1c0.1-0.6-0.8-0.9-0.3-1.5l0.3,0c-1.2-0.1,0.6-0.5-0.7-1
			l-0.3,0.3c-0.5,0-0.5-0.2-0.6-0.4c0.2,0,0.2,0,0.4,0c-0.9-0.1-1-0.8-1.3-0.9c-0.2,0.3,0.6,0.7,0.8,1
			C325.6,689.6,324.8,689.7,325,689.4z"/>
		<path fill="#AADBCD" d="M328.2,695.8l-0.4-0.2C327.8,695.7,327.9,695.7,328.2,695.8z"/>
		<path fill="#AADBCD" d="M326.6,686.6c0.2-0.4,0.8,0.1,1.2-0.2c-0.6-0.4-1.3,0.4-2.2,0c0.5-0.2-0.4-0.6-0.4-0.8
			c0.5,0.2,1.7,0.1,2,0c-0.3-0.2,0.3-0.5,0.3-0.7c-0.8,0.6-0.4-0.5-1.3,0c-0.7-0.1-1.2-0.7-0.7-0.9c0.5,0,0.4,0.2,0.4,0.4
			c1,0.2,0.5-0.4,1.4-0.5c-1.3-0.6-1.2-2.6-3.4-2.1c-0.4,0.2,0.1,0.4,0.2,0.6c0.4-0.6,1.1,0,1.5,0.1c-0.4,0.3,0.3,0.7-0.4,0.6
			l-0.8-0.4c-0.4,1.4-0.3,3.2,0,4.8l0.1-0.7c0.6,0.1,0.6,0.4,0.9,0.7l1.4-0.3c-0.1,0.2,0.1,0.4-0.4,0.4c0.6,0.3,1,0.2,1.5,0
			c0.2,0.5-0.3,0.6,0.6,1c1.2-0.8-1-0.7,0.1-1.7L326.6,686.6z"/>
		<polygon fill="#AADBCD" points="327.4,688.5 326.7,688.3 327,688.6 		"/>
		<path fill="#AADBCD" d="M324.3,688.1c0.3,0,0.5,0.1,0.8,0.1C325.2,687.8,324.8,687.8,324.3,688.1z"/>
		<path fill="#AADBCD" d="M327.5,683.4l-0.2-0.5l-0.3,0.3C327.3,683.2,327.4,683.3,327.5,683.4z"/>
		<path fill="#AADBCD" d="M323.8,679.8c0.1,0.7,0.8,1,0,1.8c0.9,0.4,1.8-0.1,2.6,0c0.2-0.4-1.4-0.4-1.7-0.8c0.8-0.1-0.2-0.6,0-1
			C324.5,679.9,324.1,679.9,323.8,679.8z"/>
		<path fill="#AADBCD" d="M327,677.4c0-0.3-0.6-0.7-0.2-0.9c0.5,0,0.7,0.2,0.6,0.4c1.1-0.1-0.2-0.4,0.6-0.7c-0.1,0-0.3,0.1-0.6,0
			c0.3-0.9-0.9-0.5-0.3-1.6c-0.3-0.2-0.3-0.3-1.1-0.3c1-0.6,1-0.3,1.8-1c-0.4,0-1.5,0.2-2.4,0.2c1.4-1.1-0.2-1.1,0.9-1.8
			c0.1,0.1,0.3,0.2,0.2,0.4c1.3-0.1-0.2-0.6,0-1l1.1,0.1c-0.2-0.4-0.9-1-0.1-1.4l0.6,0.1c-0.9-0.9-0.4-2-0.8-2.8l0.7-0.4
			c-0.8-1.1-0.4,1.1-2.1,0.2c2.1-0.1-0.7-0.6,0.2-1.2c0.8-0.3,0.4,0.6,1.4,0.3c-1.1-0.2-0.3-0.3-0.6-0.7c1,0.1,0.2-0.7,1.3-0.4
			l-1.9-1.2c0.6-0.2,0.5-0.5,0.4-0.7c0,0.6-1.5-0.2-2,0.5c0.5,1,0.8,2.7,0.2,3.9c1.4,0.2,0,0.8,1.1,1c-0.4,0-0.8,0.1-1.3,0.1
			c0.3,0.8,0.8-0.2,1.3,0c0.2,0.4-0.7,0.6-1.2,0.6c-0.1,0.6,0.4,0.1,1.1,0.4l-1.5,0.3c0.4,1.8,1.4,4.2,0.5,6.3l1-0.1
			c-0.6,0.9,2.1,1.6,0,2.4l0.8,0.3c-0.5-0.2-1.4,0.1-2.1-0.1c0.3,0.3,0,0.5,0.2,0.8l0.5-0.5c0.8,0.3,0.3,0.7-0.4,0.8
			c1,0.7,1.7-0.4,2.5-0.5c-1.8-1,1.8-0.9,1-1.9C327.8,676.8,327.5,677.4,327,677.4z"/>
		<path fill="#AADBCD" d="M324.3,678.6c0.1,0.1,0.2,0.1,0.3,0.1C324.5,678.7,324.4,678.6,324.3,678.6z"/>
		<path fill="#AADBCD" d="M326.6,663.1c0-0.1,0-0.2,0-0.3C326.3,662.7,326.5,662.9,326.6,663.1z"/>
		<path fill="#AADBCD" d="M324.8,679.8C324.8,679.8,324.8,679.8,324.8,679.8C324.8,679.8,324.8,679.8,324.8,679.8L324.8,679.8z"/>
		<polygon fill="#AADBCD" points="327.2,680.3 327.2,680.1 326.8,680.1 		"/>
		<path fill="#AADBCD" d="M327.9,660.4l-0.5,0C327.5,660.4,327.7,660.4,327.9,660.4z"/>
		<path fill="#AADBCD" d="M328.3,652.9l0,0.2C328.4,653.1,328.4,653,328.3,652.9z"/>
		<path fill="#AADBCD" d="M327.7,635.1c-0.3-0.5-0.6-1.1-1.4-1.5l0.5,0c-0.2-0.3-1-1.1-1.9-0.6l0.4,0.1c0.7,0.6-0.8,0.4-1.2,0.9
			c0.2,0.6,2.1,0.9,1.7,1.5c0.1,0.2-0.5,0.2-0.8,0.1c-0.2,0.5,1.3,0.7,1.5,1.1c-3.8,0.1,1,1.6-1.4,2.3c0.3,0.5,0,1.1,0.7,1.8
			c-0.9-0.3-0.1,0.6-1.2,0.4c2.2,0.2-1,1.7,1.8,1.9c-0.8,0.8,0.2,0-0.5,1c-0.3,0-0.3-0.2-0.4-0.2c-0.6,0.4,1.2,0.6-0.1,0.9
			c-0.2,0.8,0.7,0.1,1.5,0.6c-0.3,0.8-0.7,0.6-1.9,1c1.3,0.1,0.7,0.6,1.4,1c0.1-0.1,0.3-0.6,0.8-0.3c-0.2,0.9,0.9,0.8,1.2,1.6
			c-1.5,0.4,0-0.9-1.2-0.1c-0.7-0.6-0.6-1-1.7-1.3c-0.1,0.7,0.1,1.6,0.7,2.5c-0.2,0.4-0.7-0.2-0.8,0.1c-0.7,0.8,1.5,1.3,0.8,1.9
			l-0.8-0.1c1,0.4-0.3,1.4,0.3,2.2c0.4-0.1,0.6-0.1,0.9,0c-1.9,0,1,1.1-0.4,1.8c1.2,0,1.9,0.7,2,1.1c-0.3,0.2-0.8,0.1-1.1,0.1
			c0.7-0.7-1.3-0.7-1.8-1.3c0.6,0.5-0.1,1.3,0.8,1.7L325,657c-0.2,0.7,2.1,0.6,1.2,1.3l-0.7-0.1c0.1,1.4-1.2,3.1,0.3,4.2
			c0.6,0.1,1.9-0.4,2.4-0.5c-0.5-0.7-1.5-1.1-2-1.6l1.1,0c-0.7-0.1-1.2-0.8-1.8-0.4c-0.6-0.4,1-0.3,0.4-0.8c1.1,0.1,1.3,0.4,2.2,0.4
			l-0.6-0.4c0.4,0.1,0.4-0.2,0.8-0.1c-1.4-0.8,0.6-1.1,0-1.9l-0.2,0.4c-0.6,0-0.6-0.3-0.7-0.5c0.9-0.2,0.8-0.3,1.2-0.7
			c-0.5-0.4-1.6-0.6-1.6-1.1c1.2,0.1,0.7-0.8,1.7-0.9c-1.2-0.1-0.4-0.9-1.1-1c-0.2-0.3-0.1-0.6,0.5-0.6c0,0,0.2,0.1,0.2,0.2l0.1-0.3
			c0.1,0,0.2,0,0.3,0.1c0-0.2-0.8-0.2-0.2-0.5c0.3,0,0.3,0.2,0.4,0.3c0.2-0.6-1.8-1.1-0.7-1.6c-0.6-0.1-0.6-0.8-1.9-0.7
			c0.4-0.2,1.5-0.1,1.3-0.6c-1.1-0.3,0.4-0.6-0.3-1c1.1,0.5,0.3,0,1.4,0.5c0.5-0.3-1-0.9-0.8-1.5c0.3-0.1,0.6,0,0.8-0.1
			c-0.4-0.2-1.2-0.5-0.3-0.7l-0.8,0c0.4-0.4,0.2-1,1-1.4l-1.4-0.6c1.5-0.7,0.2-1.6-1.1-2.2c0.1-0.3,0.3-0.6,0.7-0.6
			c0.1,0.1,0.3,0.2,0.5,0.3c0.1-0.4,0.9-0.8-0.3-1.1c-0.4-0.4,0.8-0.3,1-0.6c-1.7-0.8,1.3-2.3-1.3-2.6c0,0.3-0.5,0.9-0.4,1.5
			c-0.3-0.2-0.8,0-0.9-0.3c-0.1-0.6,0.9-0.9,0.4-1.5l1.6,0.1C329.2,636.9,325.3,635.9,327.7,635.1z"/>
		<path fill="#AADBCD" d="M327.5,642.9l0.8-0.4l-0.7,0C327.7,642.7,327.7,642.8,327.5,642.9z"/>
		<path fill="#AADBCD" d="M327.6,642.5c-0.1-0.1-0.2-0.2-0.3-0.3c0,0.1,0,0.2,0.2,0.3L327.6,642.5z"/>
		<path fill="#AADBCD" d="M327.4,633.3c0.1-0.1,0.2-0.3,0-0.5C327.3,632.9,327.2,633.2,327.4,633.3z"/>
		<polygon fill="#AADBCD" points="327,632.8 326.7,633 326.9,633 		"/>
		<path fill="#AADBCD" d="M325.8,619.7l-1-0.7c0.5-0.1-0.1-0.9,0.8-0.7c-1.2-0.4,0-1.4-1.7-1c0.5,2.1-0.5,5,1,7.4l-0.7-0.4
			c1.3,1.3-1.5,1.7,1.2,2.8l-1.4-0.2c-0.4,0.6,2,1.1,0.5,1.7l0.6,0c0,0.2-0.3,0.2-0.3,0.4l0.3-0.1c0.6,0.4,0.5,0.7,0.1,1.1
			c-0.4,0-0.2-0.2-0.3-0.3c-0.5,0.2,0.5,0.5,0.5,0.8c-0.4,0.2-0.6,0-0.8-0.1c0.6,1-0.9,1.4,1.2,2.1c0.4,0.1,0.7-0.2,0.9,0.1
			c0.7-0.6-0.1-1.2-0.7-1.8l0,0.2c-2-0.5,0.5-0.3-0.4-1.1c0.8,0.2,0.8,0.5,1.2,0.7c1.6-0.8-1.1-1.2,0.8-1.8l0.1,0.1
			c0.2-0.1-0.2-0.4-0.4-0.6c-0.3,0.1-0.4,0.2-0.6,0.4c-0.2-0.2-1.1-0.3-1.4-0.4c0.9-0.2-0.4-0.3,0-0.6c0.8-0.1,0.7,0.3,1.2,0.4
			l-0.6-0.4c0-0.4,0.9-0.4,1.4-0.5c-0.6-0.3-0.5,0.2-1.3-0.1c1-0.4,0.8-2.2,0-3c0.1,0.3,0.9,0.1,0.7,0.5c0.2-0.1-0.2-0.6-0.9-0.6
			c-0.5-0.6-0.1-1.3,0.5-1.9l-0.6,0.1c-1.1-0.5,0.8-1.1,0.2-2l0,0c-0.1-0.3-1.7-0.5-1.3-1C325.1,619.5,325,619.7,325.8,619.7z"/>
		<path fill="#AADBCD" d="M324.4,616.9l0.9,0.3c0.2-0.3-0.9-0.7-1.5-0.6c0.2,0.2-0.2,0.4,0.3,0.5C324.2,617,324.5,617,324.4,616.9z"
			/>
		<path fill="#AADBCD" d="M324.4,611.4c-0.2-0.1-0.5-0.1-0.8-0.1c0.1,1.1,0.4,2.6-0.3,3c-0.3,0.4,1.1,0.5,1.4,1l-0.9,0.2
			c0.6,0.3-0.4,1.1,1,0.8c0.1,0-0.7-0.2-0.4-0.5l0.5,0l-0.2-0.5l0.6,0.2c0.9-0.7-1.9-0.5-1.3-1.4l1.3,0c0.1-0.6-0.3-0.9,0.4-1.4
			c0,0-0.6,0-0.4,0.1c-0.1,0.1-0.6,0.2-1,0.1c-1-0.9,0.8,0.1,1.3-0.5c-0.9-0.8-1.6-2.2-0.5-2.6c-0.8,0.3-1.6-0.2-1.5-0.6
			c0.5-0.2,0.8,0.1,1.1,0.2c0.1-0.2,0.5-0.3,0.3-0.5c-0.7,0.2-1.7,0.1-2.1-0.4C322.2,609.6,324.5,610.5,324.4,611.4z"/>
		<path fill="#AADBCD" d="M323.3,611.1c0,0.1,0.2,0.2,0.3,0.2c0-0.1,0-0.3,0-0.4L323.3,611.1z"/>
	</g>
	<g>
		<polygon fill="#AADBCD" points="340.6,780.3 340.8,779.8 340,779.9 		"/>
		<path fill="#AADBCD" d="M343,777.7l-0.5-0.7c-2.1,0.8-1.6,0.1-3,1.6c0.4,0.3,1.4,1.1,2.2,0.8c-0.1-0.3-1.1-0.5-0.9-1
			c0.7,0.1,0.7,0.5,1.6,0.6c0.5-0.8-0.6-0.3-0.5-1.1L343,777.7z"/>
		<path fill="#AADBCD" d="M340.6,777.3c0.4,0,0.8,0,1.1-0.1C341.3,777.2,340.8,776.9,340.6,777.3z"/>
		<path fill="#AADBCD" d="M340.3,776.9c0-0.5,0.8-0.1,0.9-0.2l-1.5-0.3L340.3,776.9z"/>
		<path fill="#AADBCD" d="M340.1,774.9c0-0.1-0.1-0.1-0.2-0.2C339.7,774.8,339.9,774.9,340.1,774.9z"/>
		<path fill="#AADBCD" d="M339.7,774c-0.5,0.3-0.1,0.5,0.2,0.7c0,0,0,0,0.1,0c0.4-0.3,1.4-0.3,1.2,0.2c0.3,0.4-0.7,0.5,0,0.8
			l0.7-0.7C341.7,774.4,340.2,774.2,339.7,774z"/>
		<path fill="#AADBCD" d="M340.1,774.9c0.1,0.1,0.1,0.2,0.1,0.2C340.3,775,340.2,775,340.1,774.9z"/>
		<polygon fill="#AADBCD" points="340.1,775.9 340.4,776.1 340.8,776 		"/>
		<path fill="#AADBCD" d="M339.4,772.4c1.4-0.1,0,1.2,1.1,1.1c-0.2-0.6,0.8-1.3,1.6-1.3l-0.5-0.6C341,771.5,340,771.9,339.4,772.4z"
			/>
		<path fill="#AADBCD" d="M342.7,770.5c-0.1,0-0.2-0.1-0.3-0.1C342.5,770.5,342.6,770.5,342.7,770.5z"/>
		<path fill="#AADBCD" d="M339.9,767.3l1.6,1.5c-0.5-0.1-0.9,0-1.1-0.3c-0.1,0.7,0.8,0.7,0.7,1.3c-1.3,0.3-0.2-1-1.3-0.5
			c0.1,0.4,0.2,1,1.4,1.2l-0.8,0.8l1.4-0.4c0.4-0.3-1.2-0.4-0.2-0.7c0.6-0.2,0.8,0.1,0.9,0.3c-0.4-0.4,1-1.3,0.7-2.1
			C342.9,767.4,340.7,767.8,339.9,767.3z"/>
		<polygon fill="#AADBCD" points="341.5,767.1 342,766.9 341.3,767.1 		"/>
		<path fill="#AADBCD" d="M339.4,765.5l1,0.8c-0.1,0.1-0.4,0.2-0.7,0.3c0.3-0.1,0.9,0.1,1.2,0c1.3-0.5-0.5-1-0.8-1.4
			c0.5-1.3,0.7,0,1.9-0.6c0,0.3-0.3,0.4-0.4,0.9c1.4-0.9,0-1.7-0.4-2.1c-0.1,0.1-0.5,0.2-0.4,0.5l-0.5-0.5
			C339.4,763.9,339.1,764.4,339.4,765.5z"/>
		<path fill="#AADBCD" d="M339.6,767c-0.1-0.3-0.1-0.4,0.1-0.5C339.4,766.6,339.1,766.8,339.6,767z"/>
		<path fill="#AADBCD" d="M341.2,763c-0.1,0.1,0,0.1,0.1,0.3C341.3,763.2,341.3,763.1,341.2,763z"/>
		<path fill="#AADBCD" d="M339.7,763.6l0.1-0.6l-0.6,0.3C339.2,763.4,339.3,763.7,339.7,763.6z"/>
		<path fill="#AADBCD" d="M341.3,740.7c-0.5,0-0.8,0.2-0.7,0.7c-0.7-0.1-0.5-0.7-0.9-1c-0.5,0.6-0.8,0-1.5,0.1
			c-0.1,0.7,0.8,1,0.6,1.8c-0.2,0-0.5,0-0.8,0c0.4,0.9,1,2.4,0.4,3.3c-0.3,0.8,0.1,1.5,0.4,2.4c-0.2,1.5-0.1,3,0,4.6
			c0.1,1.6,0.1,3.1-0.1,4.8l1.4,0.4c-0.7,0.2,0,0.8-0.9,0.7c0.2-0.2,0-0.3,0-0.6c-1.2,0.8,0.2,1.8-0.2,2.7c0.2-0.1,1.4-0.3,1.7-0.1
			c-1.5,0,0.1,1-1.6,1.3c-0.4,0.9,1.3-0.1,1.2,0.8c0.9,0,0.4-0.9,1-1.1c0.7,0.2-0.2,0.8,0.7,0.7c0.3-1.4-1.7-3.8-2.3-5.9l0.9,0.2
			c-0.7-1-0.7-2.8,0.6-3.7c-0.8,0.2,0.4-1.6-1.4-1.4c0.4-0.3,0.3-0.4,0.5-0.7l-0.6-0.1c0-0.6,0.9-0.5,0.9-1.1c-0.8,0.4-1,0-1.7-0.2
			c0.9-0.7,1.7-1.6,2.4-2.2c-0.3,0-0.5,0.1-0.9,0.3c0.3-0.4-0.5-0.4-0.7-0.5c0-0.4,1-0.4,1.5-0.3c0.3-0.8-1.6-1.2-0.9-1.7l-0.8,0.2
			c-0.2-0.8,0.7-1.5,0.5-2.4c1.1-0.4,0.9,0.8,1.4,1.1c0.2-0.2,0.3-0.5,0.7-0.7c-0.6-0.4-1.3-1-1.8-1.5
			C341.2,742.2,341.2,741,341.3,740.7z"/>
		<path fill="#AADBCD" d="M341.8,743.2c0.2,0.1,0.3,0.2,0.4,0.3c-0.1-0.1-0.1-0.2-0.1-0.3C342,743.2,341.9,743.2,341.8,743.2z"/>
		<path fill="#AADBCD" d="M341.3,740.7c0,0,0.1,0,0.1,0C341.3,740.6,341.3,740.7,341.3,740.7z"/>
		<path fill="#AADBCD" d="M338.3,745.7c0,0,0-0.1,0.1-0.1c0-0.1,0-0.1,0-0.1L338.3,745.7z"/>
		<path fill="#AADBCD" d="M341.9,746.5c-0.3,0.2-0.6,0.4-0.9,0.7C341.4,747.1,341.7,747,341.9,746.5z"/>
		<path fill="#AADBCD" d="M341,751.8c0.1,0.2,0.4,0.1,0.7,0.2C341.7,751.6,341.4,751.5,341,751.8z"/>
		<polygon fill="#AADBCD" points="342,742.3 341.8,741.6 341.6,741.3 		"/>
		<path fill="#AADBCD" d="M338.6,728.4c-1,0.5-0.5,1.4-0.8,2.2c0.4,1.4,2.1,0.3,2.1,1.6l-2-0.4c0,1.3-0.5,3.1,1.2,4.3
			c-0.2,0.1-0.6,0.3-0.8-0.1c0,0.9,2.8,0.6,2.1,1.7c-1.2-1.1-1.2,0.3-2.4-0.1l-0.1-0.2c0.1,0.7,0.7,1.7,0.6,2.2
			c0.5,0,1.3-0.3,1.3,0.3c0.1-0.3,0.7-0.1,1.2-0.1c-0.5-0.7-0.2-1-0.8-1.5c0.7-0.3,0.2,0.3,0.9-0.1l-0.6-0.6
			c0.2-0.4,0.7,0.4,0.8-0.2c-0.4-0.1-0.8-0.6-0.7-1.1l0.2,0.1c-0.2-0.4,0.1-0.9-1-0.8l1.1-0.4l-0.8,0c0.4-1,2.2-1.2,1.3-2.6
			c-0.2,0.3-0.6,0-0.8-0.2c-0.6,0.5,0.5,0.7,0.6,1.2c-0.8,0-1.6-0.9-2.1-0.3c0.9-0.6,0-1.3,1.9-1.4c0.2-0.8-0.7-1.2-0.2-2l0.3,0
			c-1.2-0.3,0.6-0.6-0.6-1.3l-0.3,0.4c-0.5-0.1-0.5-0.3-0.6-0.6c0.2,0,0.2,0,0.4,0c-0.9-0.2-1-1.1-1.2-1.3c-0.2,0.4,0.5,0.9,0.7,1.4
			C339.2,728.8,338.5,728.8,338.6,728.4z"/>
		<path fill="#AADBCD" d="M341.3,737l-0.4-0.3C341,736.8,341.1,736.9,341.3,737z"/>
		<path fill="#AADBCD" d="M340.5,724.8c0.3-0.5,0.8,0.2,1.2-0.2c-0.6-0.6-1.3,0.5-2.2-0.1c0.6-0.3-0.3-0.9-0.3-1.1
			c0.5,0.3,1.7,0.3,2,0.2c-0.3-0.2,0.3-0.6,0.4-1c-0.8,0.8-0.4-0.8-1.3-0.1c-0.7-0.1-1.1-1-0.6-1.2c0.5,0.1,0.4,0.3,0.4,0.5
			c0.9,0.3,0.6-0.5,1.5-0.5c-1.3-0.9-0.9-3.5-3.1-3c-0.4,0.2,0.1,0.5,0.1,0.8c0.5-0.8,1.1,0.1,1.5,0.2c-0.4,0.3,0.2,1-0.5,0.8
			l-0.7-0.7c-0.6,1.8-0.7,4.3-0.6,6.4l0.1-0.9c0.6,0.2,0.6,0.6,0.8,0.9l1.5-0.3c-0.1,0.2,0.1,0.5-0.4,0.4c0.6,0.4,1,0.3,1.5,0.1
			c0.2,0.7-0.4,0.7,0.5,1.3c1.3-1-0.9-1,0.3-2.2L340.5,724.8z"/>
		<polygon fill="#AADBCD" points="341.1,727.4 340.4,727 340.7,727.5 		"/>
		<path fill="#AADBCD" d="M338,726.6c0.3,0,0.4,0.2,0.8,0.2C339,726.3,338.6,726.4,338,726.6z"/>
		<path fill="#AADBCD" d="M341.7,720.7l-0.2-0.7l-0.3,0.4C341.5,720.4,341.7,720.6,341.7,720.7z"/>
		<path fill="#AADBCD" d="M338.5,715.6c0,1,0.7,1.4-0.2,2.4c0.9,0.6,1.8,0,2.6,0.3c0.3-0.5-1.3-0.6-1.6-1.2c0.8-0.1-0.1-0.8,0.2-1.3
			C339.2,715.8,338.8,715.7,338.5,715.6z"/>
		<path fill="#AADBCD" d="M342,712.7c0.1-0.4-0.5-0.9-0.1-1.2c0.5,0.1,0.7,0.4,0.5,0.6c1.2,0-0.1-0.5,0.7-0.9c-0.1,0-0.3,0.2-0.6,0
			c0.4-1.1-0.9-0.8,0-2.2c-0.3-0.3-0.3-0.5-1-0.5c1.1-0.7,1-0.3,2-1.2c-0.4,0-1.5,0.2-2.4,0.1c1.5-1.3,0-1.5,1.1-2.3
			c0,0.1,0.3,0.3,0.1,0.5c1.3,0-0.1-0.8,0.2-1.3l1.1,0.2c-0.1-0.5-0.8-1.4,0.1-1.9l0.5,0.2c-0.7-1.3-0.1-2.7-0.4-3.7l0.8-0.5
			c-0.7-1.5-0.6,1.3-2.1,0.1c2.1,0.1-0.6-0.8,0.3-1.5c0.9-0.3,0.3,0.9,1.3,0.6c-1-0.3-0.3-0.5-0.5-0.9c1,0.2,0.3-0.9,1.4-0.5
			l-1.7-1.7c0.6-0.2,0.6-0.6,0.5-1c-0.1,0.8-1.5-0.4-2,0.4c0.3,1.4,0.4,3.6-0.4,5.2c1.4,0.4-0.2,1.1,0.9,1.5c-0.4,0-0.8,0.1-1.3,0
			c0.2,1.1,0.8-0.2,1.3,0.2c0.1,0.5-0.8,0.8-1.2,0.7c-0.2,0.8,0.4,0.1,1.1,0.6l-1.6,0.3c0.2,2.4,0.8,5.7-0.4,8.3l1-0.1
			c-0.7,1.2,1.9,2.3-0.3,3.2l0.8,0.5c-0.4-0.3-1.5,0-2.1-0.4c0.3,0.4-0.1,0.7,0.1,1.1l0.5-0.6c0.8,0.5,0.2,0.9-0.5,1
			c0.9,1,1.7-0.4,2.5-0.5c-1.6-1.5,1.9-1.1,1.3-2.4C342.9,712,342.5,712.8,342,712.7z"/>
		<path fill="#AADBCD" d="M339.2,714c0.1,0.1,0.1,0.2,0.2,0.2C339.4,714.2,339.3,714.1,339.2,714z"/>
		<path fill="#AADBCD" d="M343.7,693.8c0-0.1,0-0.2,0-0.4C343.5,693.3,343.6,693.5,343.7,693.8z"/>
		<path fill="#AADBCD" d="M339.6,715.7C339.6,715.7,339.6,715.7,339.6,715.7C339.6,715.7,339.6,715.7,339.6,715.7L339.6,715.7z"/>
		<polygon fill="#AADBCD" points="341.8,716.6 341.9,716.3 341.4,716.3 		"/>
		<path fill="#AADBCD" d="M345.4,690.3l-0.5-0.1C345,690.3,345.2,690.3,345.4,690.3z"/>
		<path fill="#AADBCD" d="M346.8,680.5l0,0.2C346.9,680.7,346.9,680.6,346.8,680.5z"/>
		<path fill="#AADBCD" d="M347.6,656.7c-0.3-0.7-0.6-1.5-1.4-2l0.5,0.1c-0.2-0.4-1-1.5-1.9-0.8l0.4,0.2c0.7,0.8-0.8,0.6-1.2,1.2
			c0.2,0.8,2.1,1.3,1.6,1.9c0,0.3-0.5,0.2-0.8,0.1c-0.2,0.7,1.3,1,1.4,1.5c-3.8,0,1,2.2-1.5,3c0.3,0.7-0.1,1.5,0.6,2.3
			c-0.9-0.5-0.1,0.8-1.2,0.5c2.2,0.4-1.1,2.3,1.6,2.6c-0.9,1,0.2,0.1-0.6,1.3c-0.3,0-0.3-0.2-0.3-0.3c-0.6,0.5,1.1,0.9-0.2,1.2
			c-0.3,1,0.7,0.2,1.4,0.9c-0.4,1-0.8,0.7-2,1.2c1.3,0.2,0.6,0.8,1.3,1.4c0.1-0.1,0.4-0.8,0.9-0.3c-0.3,1.2,0.8,1.1,1,2.3
			c-1.5,0.4,0.1-1.2-1.2-0.3c-0.6-0.8-0.5-1.3-1.5-1.8c-0.2,1-0.1,2.2,0.5,3.3c-0.3,0.6-0.7-0.4-0.8,0.1c-0.8,1,1.3,1.8,0.6,2.6
			l-0.7-0.3c0.9,0.6-0.4,1.8,0,2.9c0.4-0.1,0.7-0.1,0.9,0c-1.9-0.2,0.8,1.5-0.6,2.3c1.2,0.1,1.8,1.1,1.8,1.7c-0.4,0.2-0.8,0.1-1.2,0
			c0.8-0.9-1.2-1.1-1.7-1.9c0.5,0.7-0.2,1.7,0.6,2.4l-0.9-0.3c-0.2,0.9,2,1,1,1.9l-0.7-0.2c-0.1,1.9-1.6,3.9-0.3,5.6
			c0.6,0.2,2-0.4,2.4-0.4c-0.4-1-1.3-1.6-1.7-2.3l1.1,0.1c-0.7-0.2-1.1-1.1-1.7-0.7c-0.5-0.6,1-0.3,0.5-1c1.1,0.2,1.2,0.6,2.1,0.7
			l-0.5-0.6c0.4,0.2,0.4-0.3,0.8-0.1c-1.2-1.2,0.7-1.4,0.2-2.5l-0.3,0.6c-0.6-0.1-0.5-0.4-0.7-0.7c0.9-0.2,0.8-0.4,1.3-0.9
			c-0.4-0.5-1.5-0.9-1.5-1.6c1.2,0.3,0.8-1,1.8-1c-1.2-0.3-0.3-1.3-1-1.5c-0.2-0.4,0-0.8,0.6-0.8c0,0.1,0.1,0.2,0.2,0.3l0.1-0.3
			c0.1,0,0.2,0,0.3,0.1c0.1-0.3-0.8-0.4-0.2-0.7c0.3,0,0.3,0.3,0.4,0.4c0.3-0.8-1.7-1.6-0.5-2.2c-0.5-0.2-0.5-1.1-1.8-1.1
			c0.5-0.2,1.5,0,1.4-0.7c-1-0.5,0.5-0.7-0.2-1.3c1.1,0.8,0.3,0,1.3,0.7c0.5-0.4-0.9-1.3-0.6-2.1c0.3-0.1,0.6,0,0.8-0.1
			c-0.3-0.3-1.2-0.8-0.3-1l-0.8,0c0.4-0.5,0.3-1.3,1.1-1.8l-1.4-0.8c1.6-0.8,0.3-2.2-0.9-3c0.1-0.3,0.4-0.8,0.7-0.8
			c0.1,0.1,0.3,0.2,0.5,0.4c0.1-0.5,1-1.1-0.2-1.4c-0.3-0.5,0.9-0.3,1.1-0.7c-1.6-1.1,1.5-3-1.1-3.5c0,0.4-0.6,1.2-0.5,2
			c-0.3-0.2-0.8-0.1-0.9-0.4c-0.1-0.8,0.9-1.2,0.5-2l1.6,0.2C349.1,659.1,345.2,657.7,347.6,656.7z"/>
		<path fill="#AADBCD" d="M347,667.1l0.9-0.5l-0.7,0C347.3,666.8,347.3,667,347,667.1z"/>
		<path fill="#AADBCD" d="M347.2,666.6c-0.1-0.1-0.2-0.3-0.3-0.4c0,0.1,0,0.3,0.1,0.4L347.2,666.6z"/>
		<path fill="#AADBCD" d="M347.4,654.3c0.1-0.1,0.2-0.4,0-0.6C347.2,653.8,347.2,654.2,347.4,654.3z"/>
		<polygon fill="#AADBCD" points="346.9,653.6 346.7,653.9 346.8,653.9 		"/>
		<path fill="#AADBCD" d="M345,636.4l-1.1-0.9c0.5-0.2-0.2-1.2,0.7-0.9c-1.2-0.4-0.2-1.8-1.9-1.1c0.9,2.7,0.1,6.5,1.8,9.6l-0.7-0.5
			c1.4,1.6-1.4,2.3,1.3,3.6l-1.4-0.2c-0.4,0.8,2,1.4,0.6,2.2l0.6-0.1c0,0.2-0.3,0.3-0.3,0.5l0.3-0.1c0.6,0.6,0.5,0.9,0.1,1.4
			c-0.4,0-0.2-0.3-0.3-0.4c-0.5,0.3,0.5,0.7,0.5,1.1c-0.4,0.3-0.6,0-0.8-0.1c0.6,1.3-0.9,1.8,1.2,2.8c0.4,0.1,0.7-0.3,0.9,0.2
			c0.7-0.8-0.1-1.5-0.7-2.3l0,0.2c-2-0.6,0.5-0.5-0.4-1.5c0.8,0.3,0.8,0.7,1.3,0.9c1.5-1.1-1.2-1.6,0.8-2.4l0.1,0.1
			c0.2-0.2-0.2-0.5-0.4-0.7c-0.3,0.1-0.4,0.3-0.6,0.5c-0.2-0.3-1.1-0.4-1.5-0.5c0.9-0.3-0.4-0.4,0-0.8c0.8-0.2,0.8,0.4,1.2,0.5
			l-0.6-0.6c-0.1-0.5,0.9-0.5,1.3-0.8c-0.6-0.4-0.4,0.3-1.3-0.1c1-0.6,0.6-2.9-0.2-4c0.1,0.4,0.9,0.1,0.8,0.6
			c0.2-0.2-0.3-0.8-0.9-0.7c-0.6-0.7-0.3-1.7,0.3-2.5l-0.6,0.2c-1.1-0.5,0.7-1.6,0-2.6l0,0c-0.2-0.3-1.7-0.5-1.5-1.1
			C344.3,636.1,344.3,636.5,345,636.4z"/>
		<path fill="#AADBCD" d="M343.2,632.8l0.9,0.3c0.2-0.4-1-0.8-1.6-0.6c0.2,0.2-0.1,0.6,0.4,0.6C343.1,633,343.4,633,343.2,632.8z"/>
		<path fill="#AADBCD" d="M342.2,625.8c-0.2-0.1-0.5,0-0.8,0c0.4,1.4,0.9,3.2,0.3,3.9c-0.2,0.5,1.1,0.5,1.5,1l-0.9,0.4
			c0.6,0.3-0.2,1.4,1.2,0.9c0.1-0.1-0.7-0.2-0.5-0.5l0.5,0l-0.3-0.7l0.7,0.1c0.8-1-2-0.4-1.5-1.6l1.3-0.2c0-0.8-0.5-1.1,0.2-1.9
			c0,0-0.6,0.1-0.4,0.2c0,0.1-0.5,0.4-0.9,0.3c-1.1-1,0.8,0.1,1.2-0.8c-1-0.8-2-2.5-1.1-3.2c-0.7,0.6-1.6,0.1-1.6-0.5
			c0.4-0.3,0.8,0,1.2,0.1c0.1-0.3,0.4-0.5,0.1-0.8c-0.6,0.5-1.6,0.4-2.1-0.1C339.6,623.9,342.1,624.5,342.2,625.8z"/>
		<path fill="#AADBCD" d="M341.1,625.6c0.1,0.1,0.2,0.2,0.3,0.2c0-0.2-0.1-0.3-0.1-0.5L341.1,625.6z"/>
	</g>
	<g>
		<polygon fill="#AADBCD" points="362.6,730.9 362.9,730.7 362.1,730.5 		"/>
		<path fill="#AADBCD" d="M365.5,729.9l-0.3-0.6c-2.3,0-1.6-0.3-3.3,0.3c0.3,0.3,1,1.1,1.9,1.1c-0.1-0.2-0.9-0.6-0.6-0.9
			c0.6,0.2,0.5,0.5,1.3,0.8c0.8-0.4-0.5-0.4-0.1-0.9L365.5,729.9z"/>
		<path fill="#AADBCD" d="M363.4,728.9c0.4,0.1,0.8,0.2,1.1,0.2C364.1,729.1,363.6,728.8,363.4,728.9z"/>
		<path fill="#AADBCD" d="M363.2,728.6c0.1-0.3,0.8,0.1,0.9,0.1l-1.4-0.5L363.2,728.6z"/>
		<path fill="#AADBCD" d="M363.5,727.2c0-0.1-0.1-0.1-0.1-0.2C363.1,727.1,363.3,727.2,363.5,727.2z"/>
		<path fill="#AADBCD" d="M363.3,726.5c-0.5,0.1-0.2,0.3,0,0.5c0,0,0,0,0.1,0c0.4-0.2,1.5,0.1,1.2,0.4c0.2,0.4-0.8,0.2-0.2,0.6
			l0.9-0.3C365.2,727.2,363.7,726.8,363.3,726.5z"/>
		<path fill="#AADBCD" d="M363.5,727.2c0,0.1,0.1,0.1,0.1,0.2C363.7,727.4,363.6,727.3,363.5,727.2z"/>
		<polygon fill="#AADBCD" points="363.3,727.9 363.5,728.1 363.9,728.1 		"/>
		<path fill="#AADBCD" d="M363.4,725.4c1.4,0.2-0.2,0.8,0.9,1c0-0.5,1-0.7,1.8-0.6l-0.4-0.5C365.1,725.1,364,725.2,363.4,725.4z"/>
		<path fill="#AADBCD" d="M367,724.7c-0.1,0-0.2-0.1-0.2-0.1C366.8,724.6,366.9,724.6,367,724.7z"/>
		<path fill="#AADBCD" d="M364.7,722l1.4,1.2c-0.5-0.1-0.9-0.1-1-0.4c-0.2,0.5,0.7,0.6,0.5,1c-1.3,0.1-0.1-0.8-1.2-0.6
			c0,0.3,0.1,0.8,1.2,1.1l-0.9,0.4l1.5-0.1c0.4-0.2-1.1-0.5-0.1-0.5c0.6,0,0.7,0.2,0.9,0.3c-0.3-0.3,1.2-0.8,1-1.5
			C367.6,722.4,365.4,722.4,364.7,722z"/>
		<polygon fill="#AADBCD" points="366.3,722 366.8,721.9 366.1,722 		"/>
		<path fill="#AADBCD" d="M364.4,720.6l0.9,0.6c-0.1,0.1-0.4,0.1-0.7,0.1c0.3,0,0.9,0.2,1.2,0.2c1.3-0.2-0.4-0.8-0.6-1.1
			c0.6-0.9,0.7,0.1,1.9-0.3c0,0.2-0.4,0.3-0.5,0.6c1.5-0.5,0.1-1.2-0.2-1.6c-0.1,0.1-0.5,0.1-0.4,0.3l-0.4-0.4
			C364.6,719.5,364.3,719.8,364.4,720.6z"/>
		<path fill="#AADBCD" d="M364.4,721.7c-0.1-0.2,0-0.3,0.2-0.3C364.2,721.5,364,721.5,364.4,721.7z"/>
		<path fill="#AADBCD" d="M366.4,719c-0.1,0,0,0.1,0,0.2C366.5,719.2,366.5,719.1,366.4,719z"/>
		<path fill="#AADBCD" d="M364.9,719.4l0.1-0.4l-0.6,0.2C364.5,719.2,364.5,719.4,364.9,719.4z"/>
		<path fill="#AADBCD" d="M366.1,702.9c-0.5,0.1-0.8,0.3-0.6,0.6c-0.7,0-0.6-0.4-1-0.6c-0.4,0.5-0.8,0.1-1.5,0.2
			c0,0.5,0.9,0.6,0.8,1.2c-0.2,0-0.5,0-0.7,0.1c0.5,0.6,1.2,1.6,0.7,2.2c-0.2,0.6,0.1,1,0.5,1.6c-0.2,2.1,0.6,4.3,0,6.6l1.4,0.3
			c-0.7,0.1,0,0.5-0.9,0.5c0.2-0.1,0-0.2,0-0.4c-1.2,0.5,0.1,1.3-0.3,1.9c0.2-0.1,1.4-0.2,1.7,0c-1.5,0,0,0.7-1.7,0.9
			c-0.4,0.6,1.3,0,1.1,0.6c0.9,0.1,0.4-0.6,1.1-0.7c0.7,0.2-0.3,0.6,0.6,0.5c0.2-0.5-0.1-1.2-0.6-2c-0.5-0.8-1.1-1.6-1.4-2.3
			l0.9,0.1c-0.6-0.8-0.7-2,0.6-2.7c-0.8,0.2,0.4-1.2-1.5-0.9c0.4-0.2,0.3-0.3,0.5-0.6l-0.6,0c0-0.4,0.9-0.4,0.8-0.8
			c-0.8,0.3-1,0-1.7-0.1c0.8-0.6,1.6-1.2,2.2-1.7c-0.2,0.1-0.5,0.1-0.9,0.3c0.3-0.3-0.5-0.2-0.8-0.3c-0.1-0.3,1-0.3,1.5-0.4
			c0.3-0.6-1.7-0.7-1.1-1.1l-0.8,0.2c-0.2-0.6,0.6-1.1,0.3-1.7c1.1-0.4,1,0.4,1.5,0.7c0.2-0.1,0.3-0.4,0.6-0.5
			c-0.6-0.2-1.4-0.6-2-0.9C366.2,704,366,703.2,366.1,702.9z"/>
		<path fill="#AADBCD" d="M366.8,704.6c0.2,0.1,0.3,0.1,0.5,0.1c-0.1-0.1-0.2-0.1-0.1-0.2C367,704.6,366.9,704.6,366.8,704.6z"/>
		<path fill="#AADBCD" d="M366.1,702.9c0,0,0.1,0,0.1,0C366.1,702.9,366.1,702.9,366.1,702.9z"/>
		<path fill="#AADBCD" d="M363.5,706.8C363.6,706.7,363.6,706.7,363.5,706.8c0.1-0.1,0.1-0.2,0.1-0.2L363.5,706.8z"/>
		<path fill="#AADBCD" d="M367.2,707c-0.3,0.1-0.6,0.3-0.8,0.5C366.8,707.4,367.1,707.4,367.2,707z"/>
		<path fill="#AADBCD" d="M366.6,710.9c0.1,0.1,0.4,0,0.7,0.1C367.3,710.7,367,710.7,366.6,710.9z"/>
		<polygon fill="#AADBCD" points="366.9,703.9 366.7,703.5 366.4,703.3 		"/>
		<path fill="#AADBCD" d="M361.9,694.7c-0.9,0.5-0.3,1.1-0.4,1.6c0.6,0.9,2.1-0.1,2.3,0.8l-2,0c0.2,0.9-0.1,2.2,1.7,2.8
			c-0.2,0.1-0.5,0.3-0.8,0.1c0.1,0.6,2.9,0.1,2.3,0.9c-1.3-0.6-1.1,0.3-2.4,0.3l-0.2-0.1c0.2,0.5,0.9,1.1,0.8,1.4
			c0.5,0,1.3-0.4,1.4,0.1c0.1-0.2,0.7-0.2,1.2-0.2c-0.6-0.4-0.3-0.7-1-0.9c0.6-0.3,0.2,0.2,0.9-0.2L365,701c0.1-0.3,0.7,0.2,0.8-0.2
			c-0.4,0-0.8-0.3-0.8-0.7l0.2,0.1c-0.3-0.2,0-0.6-1.1-0.4l1.1-0.4l-0.7,0.1c0.2-0.7,2-1.2,1-2c-0.2,0.2-0.6,0.1-0.8,0
			c-0.5,0.4,0.6,0.4,0.7,0.8c-0.7,0.1-1.7-0.4-2.1,0.1c0.8-0.6-0.2-0.9,1.7-1.3c0.1-0.6-0.9-0.7-0.5-1.3l0.3,0
			c-1.2,0,0.5-0.5-0.8-0.8l-0.2,0.3c-0.5,0-0.5-0.1-0.7-0.3c0.2,0,0.2,0,0.4-0.1c-0.9,0-1.1-0.6-1.4-0.7c-0.1,0.3,0.6,0.6,0.9,0.9
			C362.5,694.9,361.8,695,361.9,694.7z"/>
		<path fill="#AADBCD" d="M365.7,700.3l-0.5-0.1C365.3,700.2,365.5,700.3,365.7,700.3z"/>
		<path fill="#AADBCD" d="M363.2,692c0.2-0.4,0.8,0,1.1-0.3c-0.7-0.3-1.2,0.5-2.2,0.3c0.5-0.3-0.4-0.6-0.5-0.7
			c0.5,0.1,1.7-0.1,2-0.2c-0.3-0.1,0.2-0.5,0.2-0.7c-0.7,0.6-0.5-0.5-1.3,0.1c-0.7,0-1.3-0.5-0.7-0.8c0.5,0,0.4,0.2,0.5,0.3
			c1,0,0.5-0.4,1.4-0.6c-1.4-0.5-1.4-2.3-3.6-1.6c-0.4,0.2,0.1,0.4,0.2,0.6c0.4-0.6,1.1-0.1,1.5-0.1c-0.3,0.3,0.4,0.7-0.4,0.6
			l-0.8-0.3c-0.3,1.3,0,3,0.4,4.5l0-0.6c0.6,0,0.7,0.3,1,0.5l1.4-0.4c-0.1,0.2,0.1,0.3-0.4,0.4c0.6,0.2,1,0,1.5-0.1
			c0.3,0.4-0.3,0.6,0.7,0.8c1.1-0.9-1-0.6-0.1-1.5L363.2,692z"/>
		<polygon fill="#AADBCD" points="364.2,693.6 363.4,693.5 363.8,693.8 		"/>
		<path fill="#AADBCD" d="M361,693.6c0.3,0,0.5,0.1,0.8,0C362,693.3,361.5,693.4,361,693.6z"/>
		<path fill="#AADBCD" d="M363.7,689l-0.3-0.4l-0.3,0.3C363.5,688.8,363.7,688.9,363.7,689z"/>
		<path fill="#AADBCD" d="M359.8,685.9c0.2,0.7,0.9,0.9,0.2,1.7c1,0.3,1.7-0.3,2.6-0.2c0.2-0.4-1.4-0.2-1.7-0.6
			c0.8-0.2-0.2-0.5,0-0.9C360.5,686,360.1,686,359.8,685.9z"/>
		<path fill="#AADBCD" d="M362.7,683.5c0-0.3-0.6-0.6-0.3-0.8c0.5,0,0.7,0.2,0.6,0.4c1.1-0.2-0.2-0.3,0.6-0.7
			c-0.1,0-0.3,0.2-0.6,0.1c0.2-0.8-1-0.4-0.3-1.5c-0.3-0.1-0.3-0.3-1.1-0.2c0.9-0.6,0.9-0.3,1.8-1c-0.4,0-1.5,0.3-2.4,0.3
			c1.3-1-0.2-1,0.8-1.7c0.1,0.1,0.3,0.2,0.2,0.3c1.3-0.1-0.2-0.5,0-0.9l1.1,0c-0.2-0.3-0.9-0.9-0.1-1.3l0.6,0.1
			c-0.9-0.8-0.4-1.8-0.8-2.5l0.7-0.4c-0.8-1-0.4,1-2.1,0.2c2.1,0-0.7-0.5,0.2-1.1c0.8-0.2,0.4,0.6,1.4,0.3c-1.1-0.2-0.3-0.3-0.6-0.6
			c1,0.1,0.2-0.6,1.3-0.4l-1.8-1.1c0.6-0.1,0.5-0.4,0.4-0.7c0,0.6-1.5-0.3-2,0.4c0.4,1,0.7,2.5,0.1,3.7c1.4,0.2,0,0.8,1.1,1
			c-0.4,0-0.8,0.1-1.3,0.1c0.3,0.8,0.8-0.2,1.3,0c0.2,0.3-0.7,0.6-1.2,0.6c-0.1,0.5,0.4,0.1,1.1,0.3l-1.5,0.4
			c0.5,1.7,1.5,3.9,0.8,5.8l1-0.2c-0.5,0.9,2.2,1.3,0.2,2.2l0.8,0.2c-0.5-0.1-1.4,0.2-2.1,0c0.3,0.2,0,0.5,0.3,0.7l0.4-0.5
			c0.8,0.3,0.3,0.6-0.4,0.8c1,0.6,1.6-0.5,2.4-0.7c-1.8-0.8,1.7-1,0.9-1.8C363.6,682.9,363.3,683.5,362.7,683.5z"/>
		<path fill="#AADBCD" d="M360.2,684.8c0.1,0.1,0.2,0.1,0.3,0.1C360.4,684.9,360.3,684.8,360.2,684.8z"/>
		<path fill="#AADBCD" d="M362.1,670.4c0-0.1,0-0.1,0-0.3C361.8,670,362,670.1,362.1,670.4z"/>
		<path fill="#AADBCD" d="M360.8,685.9C360.8,685.9,360.8,685.9,360.8,685.9C360.8,685.9,360.8,685.9,360.8,685.9L360.8,685.9z"/>
		<polygon fill="#AADBCD" points="363.2,686.2 363.2,686 362.8,686 		"/>
		<path fill="#AADBCD" d="M363.5,667.9l-0.5,0C363.2,667.9,363.3,667.9,363.5,667.9z"/>
		<path fill="#AADBCD" d="M364.6,661.2l0,0.1C364.6,661.3,364.6,661.2,364.6,661.2z"/>
		<path fill="#AADBCD" d="M365.9,644.6c-0.2-0.5-0.5-1.1-1.2-1.6l0.5,0.1c-0.2-0.3-0.9-1.1-1.9-0.8l0.4,0.2c0.7,0.7-0.9,0.3-1.3,0.7
			c0.2,0.6,2,1.1,1.5,1.5c0,0.2-0.5,0.1-0.8,0c-0.2,0.5,1.2,0.8,1.4,1.2c-3.8-0.4,0.8,1.6-1.7,2c0.2,0.5-0.2,1,0.5,1.7
			c-0.9-0.4-0.2,0.5-1.2,0.2c2.2,0.5-1.2,1.5,1.5,2c-0.9,0.7,0.2,0.1-0.6,0.8c-0.3,0-0.3-0.2-0.3-0.3c-0.6,0.3,1.1,0.7-0.2,0.8
			c-0.3,0.7,0.7,0.2,1.4,0.8c-0.4,0.7-0.8,0.4-2,0.7c1.3,0.3,0.6,0.6,1.2,1.1c0.1-0.1,0.4-0.5,0.9-0.1c-0.3,0.8,0.8,0.8,1,1.7
			c-1.5,0.2,0.1-0.8-1.2-0.3c-0.6-0.6-0.5-1-1.5-1.4c-0.2,0.7-0.1,1.5,0.4,2.4c-0.3,0.4-0.7-0.3-0.8,0c-0.7,0.7,1.3,1.3,0.6,1.8
			l-0.7-0.2c1,0.5-0.4,1.3,0.1,2c0.4,0,0.7-0.1,0.9,0.1c-1.9-0.2,0.9,1.1-0.6,1.6c1.2,0.1,1.8,0.8,1.9,1.2c-0.3,0.1-0.8,0-1.2,0
			c0.8-0.6-1.2-0.8-1.7-1.4c0.6,0.5-0.2,1.2,0.7,1.7l-0.9-0.3c-0.2,0.6,2.1,0.8,1.1,1.3l-0.7-0.1c0,1.3-1.4,2.8,0.1,4
			c0.6,0.1,1.9-0.3,2.4-0.3c-0.4-0.7-1.4-1.1-1.9-1.6l1.1,0.1c-0.7-0.2-1.1-0.8-1.7-0.5c-0.5-0.4,1-0.2,0.4-0.7
			c1.1,0.1,1.2,0.4,2.2,0.5l-0.5-0.4c0.4,0.2,0.4-0.2,0.8,0c-1.3-0.8,0.6-0.9,0.1-1.7l-0.2,0.4c-0.6-0.1-0.5-0.3-0.7-0.5
			c0.9-0.1,0.8-0.2,1.2-0.6c-0.5-0.4-1.6-0.7-1.5-1.1c1.2,0.2,0.7-0.7,1.8-0.6c-1.2-0.2-0.3-0.9-1-1.1c-0.2-0.3,0-0.6,0.6-0.5
			c0,0,0.1,0.1,0.2,0.2l0.1-0.2c0.1,0,0.2,0,0.3,0.1c0.1-0.2-0.8-0.3-0.2-0.5c0.3,0,0.3,0.2,0.4,0.3c0.3-0.5-1.7-1.2-0.5-1.5
			c-0.5-0.2-0.5-0.8-1.8-0.9c0.5-0.1,1.5,0.1,1.4-0.4c-1-0.4,0.5-0.5-0.2-0.9c1,0.6,0.3,0,1.3,0.6c0.5-0.3-0.9-0.9-0.6-1.5
			c0.3,0,0.6,0,0.8,0c-0.3-0.3-1.2-0.6-0.3-0.7l-0.8-0.1c0.4-0.3,0.3-0.9,1.2-1.2l-1.4-0.7c1.6-0.4,0.4-1.5-0.8-2.2
			c0.1-0.2,0.4-0.5,0.7-0.5c0.1,0.1,0.3,0.2,0.5,0.3c0.1-0.3,1-0.6-0.2-1c-0.3-0.4,0.9-0.1,1.1-0.4c-1.6-1,1.6-2-1-2.5
			c-0.1,0.3-0.6,0.8-0.6,1.4c-0.3-0.2-0.8-0.2-0.8-0.4c0-0.6,1-0.7,0.6-1.4l1.6,0.3C367.2,646.5,363.4,645.1,365.9,644.6z"/>
		<path fill="#AADBCD" d="M364.8,651.9l0.9-0.3l-0.7-0.1C365.1,651.7,365,651.8,364.8,651.9z"/>
		<path fill="#AADBCD" d="M365,651.5c-0.1-0.1-0.2-0.2-0.3-0.3c0,0.1,0,0.2,0.1,0.3L365,651.5z"/>
		<path fill="#AADBCD" d="M365.8,643c0.1-0.1,0.2-0.2,0.1-0.4C365.7,642.6,365.6,642.8,365.8,643z"/>
		<polygon fill="#AADBCD" points="365.4,642.4 365.1,642.6 365.3,642.6 		"/>
		<path fill="#AADBCD" d="M364.9,630.3l-1-0.7c0.5-0.1-0.1-0.8,0.8-0.6c-1.2-0.4,0-1.2-1.8-0.9c0.3,0.9,0.2,2.1,0.1,3.2
			c0,1.2,0,2.4,0.7,3.5l-0.7-0.4c1.3,1.3-1.6,1.4,1,2.6l-1.4-0.3c-0.4,0.5,1.9,1.2,0.4,1.6l0.6,0c0,0.1-0.3,0.2-0.3,0.3l0.3,0
			c0.5,0.4,0.4,0.7,0,1c-0.4,0-0.2-0.2-0.3-0.3c-0.5,0.1,0.4,0.5,0.4,0.8c-0.4,0.2-0.6-0.1-0.8-0.1c0.5,1-1,1.2,1,2.1
			c0.4,0.1,0.7-0.1,0.9,0.2c0.7-0.5,0-1.1-0.5-1.7l0,0.1c-2-0.7,0.5-0.3-0.3-1.1c0.8,0.3,0.7,0.6,1.2,0.7c1.6-0.6-1-1.3,1-1.6
			l0.1,0.1c0.2-0.1-0.1-0.3-0.3-0.5c-0.3,0-0.4,0.2-0.6,0.3c-0.2-0.2-1-0.4-1.4-0.5c0.9-0.1-0.4-0.3,0.1-0.6c0.8,0,0.7,0.3,1.2,0.5
			l-0.5-0.4c0-0.4,0.9-0.3,1.4-0.4c-0.6-0.4-0.5,0.1-1.3-0.2c1.1-0.3,0.9-2,0.2-2.8c0.1,0.3,0.9,0.2,0.7,0.5
			c0.2-0.1-0.2-0.6-0.8-0.6c-0.5-0.6-0.1-1.2,0.5-1.7l-0.6,0.1c-1.1-0.5,0.8-1,0.2-1.8l0,0c-0.1-0.2-1.7-0.5-1.3-0.9
			C364.2,630.1,364.2,630.3,364.9,630.3z"/>
		<path fill="#AADBCD" d="M363.5,627.7l0.9,0.2c0.2-0.3-0.9-0.6-1.5-0.5c0.2,0.2-0.2,0.4,0.3,0.4
			C363.3,627.8,363.6,627.8,363.5,627.7z"/>
		<path fill="#AADBCD" d="M363.2,622.9c-0.2-0.1-0.5,0-0.8,0c0.2,1,0.6,2.2-0.1,2.7c-0.2,0.3,1.1,0.4,1.4,0.8l-0.9,0.2
			c0.6,0.2-0.4,1,1.1,0.7c0.1,0-0.7-0.2-0.4-0.4l0.5,0l-0.2-0.5l0.6,0.1c0.9-0.7-1.9-0.4-1.4-1.2l1.3,0c0.1-0.5-0.4-0.8,0.4-1.3
			c0,0-0.6,0-0.4,0.1c-0.1,0.1-0.6,0.2-0.9,0.2c-1-0.7,0.8,0.1,1.3-0.5c-0.9-0.6-1.8-1.8-0.8-2.3c-0.7,0.4-1.6,0-1.5-0.4
			c0.4-0.2,0.8,0,1.1,0.1c0.1-0.2,0.4-0.4,0.2-0.5c-0.7,0.3-1.6,0.3-2.1-0.1C360.8,621.5,363.2,621.9,363.2,622.9z"/>
		<path fill="#AADBCD" d="M362.1,622.7c0.1,0.1,0.2,0.1,0.3,0.1c0-0.1,0-0.2-0.1-0.3L362.1,622.7z"/>
	</g>
	<g>
		<polygon fill="#AADBCD" points="320,807.1 320.3,807 319.5,806.8 		"/>
		<path fill="#AADBCD" d="M322.9,807.1l-0.3-0.3c-2.2-0.3-1.6-0.4-3.2-0.3c0.3,0.2,1,0.6,1.9,0.8c-0.1-0.1-0.9-0.4-0.6-0.5
			c0.6,0.2,0.5,0.3,1.3,0.5c0.7-0.1-0.5-0.2-0.2-0.4L322.9,807.1z"/>
		<path fill="#AADBCD" d="M320.7,806.3c0.4,0.1,0.8,0.2,1.1,0.3C321.4,806.5,321,806.3,320.7,806.3z"/>
		<path fill="#AADBCD" d="M320.5,806.2c0.1-0.1,0.8,0.2,0.9,0.2l-1.4-0.4L320.5,806.2z"/>
		<path fill="#AADBCD" d="M320.7,805.6c0,0-0.1-0.1-0.1-0.1C320.4,805.5,320.6,805.5,320.7,805.6z"/>
		<path fill="#AADBCD" d="M320.6,805.3c-0.5,0-0.2,0.1,0,0.2c0,0,0,0,0.1,0c0.4,0,1.4,0.3,1.1,0.4c0.2,0.2-0.8,0-0.2,0.2l0.9,0
			C322.4,805.8,321,805.4,320.6,805.3z"/>
		<path fill="#AADBCD" d="M320.7,805.6C320.8,805.6,320.8,805.7,320.7,805.6C320.9,805.7,320.8,805.6,320.7,805.6z"/>
		<polygon fill="#AADBCD" points="320.5,805.9 320.7,806 321.2,806 		"/>
		<path fill="#AADBCD" d="M320.6,804.8c1.4,0.3-0.2,0.3,0.8,0.6c0-0.2,1-0.2,1.8,0l-0.4-0.3C322.4,804.9,321.3,804.8,320.6,804.8z"
			/>
		<path fill="#AADBCD" d="M324.2,805c-0.1,0-0.2-0.1-0.2-0.1C324,805,324.1,805,324.2,805z"/>
		<path fill="#AADBCD" d="M322,803.5l1.3,0.7c-0.4-0.1-0.9-0.2-1-0.3c-0.2,0.2,0.7,0.4,0.5,0.5c-1.3-0.2,0-0.3-1.2-0.4
			c0,0.1,0,0.3,1.1,0.6l-0.9,0l1.4,0.2c0.4,0-1.1-0.4-0.1-0.2c0.6,0.1,0.7,0.2,0.8,0.3c-0.3-0.2,1.2-0.2,1-0.5
			C324.9,804.1,322.7,803.8,322,803.5z"/>
		<polygon fill="#AADBCD" points="323.6,803.8 324.1,803.8 323.4,803.7 		"/>
		<path fill="#AADBCD" d="M321.8,802.9l0.8,0.4c-0.1,0-0.4,0-0.7-0.1c0.3,0,0.9,0.2,1.1,0.2c1.3,0.1-0.4-0.4-0.6-0.6
			c0.6-0.3,0.7,0.1,1.9,0.2c-0.1,0.1-0.4,0-0.5,0.2c1.5,0,0.2-0.5-0.1-0.7c-0.1,0-0.5,0-0.4,0.1l-0.4-0.2
			C322,802.4,321.7,802.5,321.8,802.9z"/>
		<path fill="#AADBCD" d="M321.8,803.3c-0.1-0.1,0-0.1,0.2-0.1C321.6,803.2,321.3,803.2,321.8,803.3z"/>
		<path fill="#AADBCD" d="M323.9,802.5C323.8,802.5,323.8,802.6,323.9,802.5C324,802.6,324,802.6,323.9,802.5z"/>
		<path fill="#AADBCD" d="M322.3,802.4l0.2-0.2l-0.6,0C321.9,802.3,322,802.4,322.3,802.4z"/>
		<path fill="#AADBCD" d="M325.3,795.7c-0.5,0-0.8,0-0.7,0.1c-0.7-0.1-0.5-0.3-0.9-0.4c-0.5,0.1-0.8-0.1-1.5-0.1
			c-0.1,0.2,0.8,0.4,0.6,0.6c-0.2,0-0.5-0.1-0.8-0.1c0.4,0.3,1,0.9,0.4,1c-0.3,0.2,0,0.4,0.3,0.8c-0.5,0.9,0.1,1.9-0.7,2.8l1.3,0.3
			c-0.7-0.1,0,0.2-0.9,0.1c0.2,0,0-0.1,0-0.2c-1.2,0,0,0.6-0.5,0.7c0.2,0,1.4,0.2,1.6,0.3c-1.5-0.3,0,0.3-1.8,0.1
			c-0.5,0.2,1.3,0.2,1,0.4c0.9,0.2,0.5-0.2,1.2-0.1c0.7,0.2-0.3,0.2,0.6,0.3c0.5-0.4-1.2-1.4-1.6-2.2l0.8,0.2c-0.6-0.4-0.5-1,0.9-1
			c-0.8-0.1,0.5-0.4-1.3-0.6c0.4,0,0.4-0.1,0.5-0.2l-0.6-0.1c0-0.2,0.9,0,0.9-0.2c-0.8,0-1-0.2-1.6-0.3c0.9-0.1,1.7-0.3,2.4-0.4
			c-0.3,0-0.5,0-0.9,0c0.3-0.1-0.5-0.2-0.7-0.2c0-0.1,1,0,1.5,0.1c0.3-0.2-1.6-0.6-0.9-0.6l-0.8,0c-0.2-0.3,0.7-0.4,0.5-0.7
			c1.1,0,0.9,0.3,1.4,0.5c0.2,0,0.3-0.1,0.7-0.1c-0.5-0.2-1.3-0.5-1.8-0.7C325.2,796.1,325.2,795.8,325.3,795.7z"/>
		<path fill="#AADBCD" d="M325.8,796.5c0.2,0.1,0.3,0.1,0.4,0.1c-0.1,0-0.1-0.1-0.1-0.1C326,796.5,325.9,796.5,325.8,796.5z"/>
		<path fill="#AADBCD" d="M325.3,795.7c0,0,0.1,0,0.1,0C325.4,795.6,325.3,795.7,325.3,795.7z"/>
		<path fill="#AADBCD" d="M322.3,796.9C322.3,796.9,322.3,796.9,322.3,796.9c0.1,0,0.1-0.1,0.1-0.1L322.3,796.9z"/>
		<path fill="#AADBCD" d="M325.9,797.6c-0.3,0-0.6,0.1-0.9,0.1C325.4,797.7,325.7,797.7,325.9,797.6z"/>
		<path fill="#AADBCD" d="M324.8,799.1c0.1,0.1,0.4,0.1,0.6,0.1C325.5,799.1,325.2,799.1,324.8,799.1z"/>
		<polygon fill="#AADBCD" points="326,796.2 325.8,796 325.6,795.9 		"/>
		<path fill="#AADBCD" d="M322.3,791.6c-1,0.1-0.4,0.4-0.6,0.6c0.5,0.5,2.1,0.3,2.2,0.7l-2-0.3c0.1,0.4-0.4,0.9,1.3,1.4
			c-0.2,0-0.6,0-0.8-0.1c0.1,0.3,2.8,0.4,2.1,0.7c-1.2-0.5-1.2,0-2.4-0.2l-0.1-0.1c0.1,0.2,0.7,0.6,0.6,0.7c0.5,0.1,1.3,0,1.3,0.2
			c0.1-0.1,0.7,0,1.2,0.1c-0.5-0.3-0.2-0.3-0.8-0.5c0.7,0,0.2,0.1,0.9,0.1l-0.6-0.2c0.2-0.1,0.7,0.2,0.8,0c-0.4-0.1-0.8-0.3-0.7-0.4
			l0.2,0.1c-0.2-0.1,0.1-0.3-1-0.3l1.1,0l-0.8-0.1c0.3-0.3,2.1-0.2,1.2-0.7c-0.2,0.1-0.6-0.1-0.8-0.1c-0.5,0.1,0.6,0.3,0.6,0.4
			c-0.8-0.1-1.6-0.4-2.1-0.3c0.9-0.1-0.1-0.4,1.8-0.3c0.1-0.2-0.8-0.4-0.3-0.6l0.3,0c-1.2-0.2,0.6-0.2-0.7-0.5l-0.3,0.1
			c-0.5-0.1-0.5-0.1-0.6-0.2c0.2,0,0.2,0,0.4,0c-0.9-0.1-1-0.4-1.3-0.5c-0.2,0.1,0.6,0.3,0.8,0.5
			C322.9,791.8,322.1,791.7,322.3,791.6z"/>
		<path fill="#AADBCD" d="M325.3,794.5l-0.4-0.1C324.9,794.4,325.1,794.5,325.3,794.5z"/>
		<path fill="#AADBCD" d="M323.9,790.6c0.2-0.1,0.8,0.1,1.2,0c-0.6-0.2-1.3,0.1-2.2-0.2c0.5-0.1-0.4-0.3-0.4-0.4
			c0.5,0.1,1.7,0.2,2,0.2c-0.3-0.1,0.3-0.2,0.3-0.3c-0.8,0.2-0.4-0.3-1.3-0.1c-0.7-0.1-1.2-0.4-0.6-0.4c0.5,0,0.4,0.1,0.4,0.2
			c1,0.1,0.5-0.1,1.4-0.1c-1.3-0.3-1.2-1.1-3.4-1c-0.4,0.1,0.1,0.2,0.2,0.3c0.4-0.2,1.1,0.1,1.5,0.1c-0.4,0.1,0.3,0.3-0.4,0.2
			l-0.8-0.2c-0.4,0.5-0.4,1.3-0.1,1.9l0.1-0.3c0.6,0.1,0.6,0.2,0.9,0.3l1.4,0c-0.1,0.1,0.1,0.2-0.4,0.1c0.6,0.1,1,0.1,1.5,0.1
			c0.2,0.2-0.3,0.2,0.6,0.5c1.2-0.2-0.9-0.4,0.1-0.7L323.9,790.6z"/>
		<polygon fill="#AADBCD" points="324.6,791.4 323.9,791.3 324.3,791.5 		"/>
		<path fill="#AADBCD" d="M321.5,791c0.3,0,0.4,0.1,0.8,0.1C322.5,791,322.1,791,321.5,791z"/>
		<path fill="#AADBCD" d="M324.8,789.4l-0.2-0.2l-0.3,0.1C324.6,789.3,324.7,789.4,324.8,789.4z"/>
		<path fill="#AADBCD" d="M321.2,787.7c0.1,0.3,0.8,0.5,0,0.7c0.9,0.2,1.8,0,2.6,0.2c0.2-0.1-1.4-0.2-1.7-0.4c0.8,0-0.2-0.3,0-0.4
			C321.8,787.8,321.5,787.8,321.2,787.7z"/>
		<path fill="#AADBCD" d="M324.3,786.9c0-0.1-0.6-0.3-0.2-0.4c0.5,0,0.7,0.1,0.5,0.2c1.1,0-0.2-0.2,0.6-0.3c-0.1,0-0.3,0-0.6,0
			c0.3-0.3-0.9-0.2-0.3-0.7c-0.3-0.1-0.3-0.1-1.1-0.2c1-0.2,1-0.1,1.8-0.4c-0.4,0-1.5,0-2.4,0c1.4-0.4-0.2-0.5,0.8-0.7
			c0.1,0,0.3,0.1,0.2,0.2c1.3,0-0.2-0.2,0-0.4l1.1,0.1c-0.2-0.2-0.9-0.4-0.1-0.6l0.6,0.1c-0.9-0.4-0.4-0.8-0.9-1.1l0.7-0.2
			c-0.9-0.5-0.4,0.4-2.1,0.1c2.1,0-0.7-0.2,0.2-0.5c0.8-0.1,0.4,0.3,1.4,0.2c-1.1-0.1-0.3-0.1-0.6-0.3c1,0.1,0.1-0.3,1.3-0.2
			l-1.9-0.5c0.6-0.1,0.5-0.2,0.3-0.3c0,0.2-1.5-0.1-2,0.2c0.5,0.4,0.8,1.1,0.3,1.6c1.4,0.1,0,0.3,1.1,0.4c-0.4,0-0.8,0-1.3,0
			c0.3,0.3,0.8-0.1,1.3,0c0.2,0.1-0.7,0.2-1.2,0.2c-0.1,0.2,0.4,0,1.1,0.2l-1.5,0.1c0.4,0.7,1.4,1.7,0.5,2.5l1,0
			c-0.6,0.3,2.1,0.7,0,1l0.8,0.2c-0.5-0.1-1.4,0-2.1-0.2c0.3,0.1-0.1,0.2,0.2,0.3l0.5-0.2c0.8,0.2,0.3,0.3-0.4,0.3
			c1,0.3,1.7-0.1,2.5-0.1c-1.7-0.5,1.8-0.3,1-0.7C325.2,786.7,324.8,787,324.3,786.9z"/>
		<path fill="#AADBCD" d="M321.7,787.3c0.1,0,0.2,0.1,0.3,0.1C321.8,787.3,321.8,787.3,321.7,787.3z"/>
		<path fill="#AADBCD" d="M323.9,781.1c0,0,0-0.1-0.1-0.1C323.6,781,323.7,781,323.9,781.1z"/>
		<path fill="#AADBCD" d="M322.2,787.8L322.2,787.8C322.2,787.8,322.2,787.8,322.2,787.8L322.2,787.8z"/>
		<polygon fill="#AADBCD" points="324.5,788.1 324.5,788 324.1,788 		"/>
		<path fill="#AADBCD" d="M325.1,780l-0.5,0C324.7,780,324.9,780,325.1,780z"/>
		<path fill="#AADBCD" d="M325.4,777L325.4,777C325.4,777,325.4,777,325.4,777z"/>
		<path fill="#AADBCD" d="M324,769.8c-0.3-0.2-0.6-0.4-1.5-0.5l0.5,0c-0.3-0.1-1.1-0.4-2-0.1l0.4,0c0.8,0.2-0.8,0.2-1.1,0.4
			c0.3,0.2,2.2,0.2,1.7,0.5c0.1,0.1-0.4,0.1-0.8,0.1c-0.1,0.2,1.3,0.2,1.5,0.3c-3.8,0.3,1.1,0.6-1.3,1c0.3,0.2,0,0.4,0.8,0.7
			c-1-0.1-0.1,0.2-1.1,0.2c2.2,0-1,0.7,1.8,0.7c-0.8,0.4,0.2,0-0.5,0.4c-0.3,0-0.3-0.1-0.4-0.1c-0.6,0.2,1.2,0.2-0.1,0.4
			c-0.2,0.3,0.8,0,1.5,0.2c-0.3,0.3-0.7,0.3-1.8,0.5c1.3,0,0.7,0.2,1.4,0.3c0.1,0,0.3-0.3,0.8-0.1c-0.2,0.4,0.9,0.3,1.2,0.6
			c-1.5,0.2,0-0.4-1.2,0c-0.7-0.2-0.6-0.4-1.7-0.5c-0.1,0.3,0.2,0.7,0.8,1c-0.2,0.2-0.7-0.1-0.8,0.1c-0.6,0.3,1.5,0.5,0.9,0.7
			l-0.8,0c1,0.1-0.2,0.6,0.4,0.9c0.4,0,0.6-0.1,0.9,0c-1.9,0,1,0.4-0.4,0.7c1.2,0,1.9,0.3,2,0.4c-0.3,0.1-0.8,0.1-1.1,0.1
			c0.7-0.3-1.3-0.3-1.9-0.5c0.6,0.2,0,0.5,0.9,0.7l-0.9-0.1c-0.1,0.3,2.1,0.2,1.2,0.5l-0.7,0c0.1,0.6-1.1,1.2,0.4,1.7
			c0.6,0,1.9-0.2,2.4-0.2c-0.5-0.3-1.5-0.4-2-0.7l1.1,0c-0.7-0.1-1.2-0.3-1.8-0.2c-0.6-0.2,1-0.1,0.3-0.3c1.1,0,1.3,0.1,2.2,0.1
			l-0.6-0.2c0.4,0.1,0.4-0.1,0.8,0c-1.4-0.3,0.5-0.4-0.1-0.8l-0.2,0.2c-0.6,0-0.6-0.1-0.8-0.2c0.9-0.1,0.8-0.1,1.2-0.3
			c-0.5-0.1-1.6-0.2-1.6-0.4c1.2,0,0.7-0.3,1.7-0.4c-1.2,0-0.4-0.4-1.1-0.4c-0.2-0.1-0.1-0.2,0.5-0.3c0,0,0.2,0,0.2,0.1l0-0.1
			c0.1,0,0.2,0,0.3,0c0-0.1-0.8-0.1-0.3-0.2c0.3,0,0.3,0.1,0.4,0.1c0.2-0.3-1.8-0.4-0.7-0.6c-0.6,0-0.6-0.3-1.9-0.2
			c0.4-0.1,1.5-0.1,1.3-0.3c-1.1-0.1,0.4-0.2-0.3-0.4c1.1,0.2,0.3,0,1.4,0.2c0.4-0.2-1-0.3-0.8-0.6c0.3,0,0.6-0.1,0.8-0.1
			c-0.4-0.1-1.3-0.2-0.4-0.3l-0.8,0c0.4-0.2,0.1-0.4,1-0.6l-1.5-0.2c1.5-0.3,0.1-0.7-1.2-0.8c0.1-0.1,0.3-0.3,0.6-0.3
			c0.1,0,0.3,0.1,0.5,0.1c0-0.2,0.9-0.4-0.3-0.4c-0.4-0.1,0.8-0.2,1-0.3c-1.7-0.2,1.2-1-1.4-1c0,0.1-0.5,0.4-0.4,0.6
			c-0.3,0-0.8,0-0.9-0.1c-0.1-0.2,0.8-0.4,0.4-0.6l1.7-0.1C325.6,770.4,321.7,770.3,324,769.8z"/>
		<path fill="#AADBCD" d="M324.2,773l0.8-0.2l-0.7,0.1C324.4,772.9,324.4,772.9,324.2,773z"/>
		<path fill="#AADBCD" d="M324.3,772.8c-0.1,0-0.2-0.1-0.3-0.1c0,0,0,0.1,0.2,0.1L324.3,772.8z"/>
		<path fill="#AADBCD" d="M323.7,769.1c0.1,0,0.2-0.1,0-0.2C323.5,769,323.5,769.1,323.7,769.1z"/>
		<polygon fill="#AADBCD" points="323.2,768.9 322.9,769 323.1,769 		"/>
		<path fill="#AADBCD" d="M321.3,763.9l-1-0.2c0.5-0.1-0.1-0.4,0.7-0.4c-1.2,0-0.1-0.5-1.8-0.2c0.7,0.8-0.2,2,1.4,2.8l-0.7-0.1
			c1.4,0.4-1.4,0.8,1.3,1l-1.4,0.1c-0.4,0.3,2,0.3,0.6,0.6l0.6-0.1c0,0.1-0.2,0.1-0.2,0.2l0.3,0c0.6,0.1,0.5,0.2,0.1,0.4
			c-0.4,0-0.2-0.1-0.3-0.1c-0.4,0.1,0.5,0.2,0.5,0.3c-0.4,0.1-0.6,0-0.8,0c0.7,0.3-0.8,0.6,1.3,0.7c0.4,0,0.7-0.2,0.9,0
			c0.6-0.3-0.2-0.5-0.8-0.6l0,0.1c-2,0,0.4-0.2-0.5-0.4c0.8,0,0.8,0.1,1.3,0.2c1.5-0.5-1.2-0.4,0.7-0.8l0.1,0
			c0.2-0.1-0.2-0.1-0.4-0.2c-0.3,0-0.4,0.1-0.6,0.2c-0.2-0.1-1.1,0-1.5,0c0.9-0.2-0.4-0.1,0-0.3c0.8-0.1,0.8,0.1,1.2,0.1l-0.6-0.1
			c-0.1-0.1,0.9-0.2,1.3-0.3c-0.6-0.1-0.4,0.1-1.3,0.1c1-0.3,0.7-0.9-0.2-1.2c0.1,0.1,0.9,0,0.8,0.1c0.2-0.1-0.3-0.2-0.9-0.1
			c-0.6-0.2-0.2-0.5,0.3-0.8l-0.6,0.1c-1.1-0.1,0.7-0.5,0.1-0.8l0,0c-0.1-0.1-1.7,0-1.4-0.2C320.6,763.9,320.5,764,321.3,763.9z"/>
		<path fill="#AADBCD" d="M319.7,762.9l0.9,0c0.2-0.1-1-0.1-1.5-0.1c0.2,0.1-0.2,0.2,0.3,0.2C319.5,763,319.8,763,319.7,762.9z"/>
		<path fill="#AADBCD" d="M319.3,760.8c-0.2,0-0.5,0-0.8,0.1c0.2,0.4,0.6,0.9-0.1,1.2c-0.2,0.2,1.1,0,1.4,0.2l-0.9,0.2
			c0.6,0-0.3,0.5,1.1,0.2c0.1,0-0.7,0-0.5-0.1l0.5,0l-0.2-0.2l0.6,0c0.9-0.4-1.9,0-1.4-0.4l1.3-0.2c0-0.2-0.4-0.3,0.3-0.6
			c0,0-0.6,0.1-0.4,0.1c-0.1,0-0.6,0.2-0.9,0.2c-1-0.2,0.8,0,1.2-0.4c-0.9-0.2-1.7-0.6-0.7-0.9c-0.7,0.2-1.6,0.2-1.5,0
			c0.4-0.1,0.8-0.1,1.1-0.1c0.1-0.1,0.4-0.2,0.2-0.3c-0.7,0.2-1.6,0.3-2.1,0.2C317.1,760.4,319.4,760.4,319.3,760.8z"/>
		<path fill="#AADBCD" d="M318.2,760.8c0,0,0.2,0,0.3,0c0-0.1,0-0.1,0-0.2L318.2,760.8z"/>
	</g>
</g>
<path fill="#FFC235" d="M356.1,564.6c0,0-338.6-48.8-355.9-407.5C-4.7,57,109.1-4.3,189.7,55.3C321,152.3,463.7,322.2,356.1,564.6z"
	/>
<path fill="#FFC235" d="M401.8,581.4c0,0,323.8-110.4,274.7-466.1C662.8,16,539.7-23.2,471.5,50.2
	C360.3,169.8,251.3,363,401.8,581.4z"/>
<path fill="#FFC235" d="M331.1,595.3c0,0-263-218.8-90-533.5C289.4-26,418.4-18.7,455.8,74.2C517,225.7,549.7,445.1,331.1,595.3z"/>
<g>
	<polygon fill="#FFC235" points="217.2,232 217.9,231.4 216.5,231.3 	"/>
	<path fill="#FFC235" d="M213.9,224.6c-1.2-0.1-2.5-1-4.1,0l2.1,0.2c-1.1,0.9-0.6,1.6,0.2,2l-0.5-0.7c0.3,0.1,1-0.5,1.3-0.4
		c0,1.5,1.9,0.8,1.2,2.6l-0.2,0l1.3,0.4c0,0.4-0.7,0.6-0.9,0.7c1.1,0.3,2.1,0.5,2.6,1.5c1.8-2.1-3-1.2-1.2-3.2l0.2,0
		C214.3,227.2,215.1,225.2,213.9,224.6z"/>
	<path fill="#FFC235" d="M214.2,229.4L214.2,229.4C214,229.4,214.1,229.4,214.2,229.4z"/>
	<path fill="#FFC235" d="M192.8,188.3l-0.4,0.2C192.6,188.4,192.8,188.4,192.8,188.3z"/>
	<path fill="#FFC235" d="M196.2,202.9C196.2,202.9,196.2,202.9,196.2,202.9C195.7,203.1,195.8,203,196.2,202.9z"/>
	<path fill="#FFC235" d="M146.8,126.7l0.3-0.6C146.7,126.5,146.7,126.7,146.8,126.7z"/>
	<path fill="#FFC235" d="M135.1,111.8L135.1,111.8C135.1,111.8,135.1,111.8,135.1,111.8z"/>
	<path fill="#FFC235" d="M134.5,123.5l-0.4,0.4C134.4,123.7,134.5,123.6,134.5,123.5z"/>
	<path fill="#FFC235" d="M129.8,119.5c0-0.2,0-0.4-0.1-0.5C129.5,119.3,129.6,119.5,129.8,119.5z"/>
	<path fill="#FFC235" d="M135.4,111.8c-0.1,0-0.2,0-0.3,0C135.2,111.8,135.3,111.8,135.4,111.8z"/>
	<path fill="#FFC235" d="M139.5,131.2l-0.9,1C139,132,139.2,131.6,139.5,131.2z"/>
	<path fill="#FFC235" d="M128,119.1c0.1-0.2,0.2-0.4,0.2-0.6C128,118.7,127.9,118.9,128,119.1z"/>
	<path fill="#FFC235" d="M213.2,223.6c0.1,0.1,0.2,0.3,0.5,0.4C213.6,223.8,213.5,223.6,213.2,223.6z"/>
	<path fill="#FFC235" d="M159.5,159c-0.1,0-0.3,0.1-0.5,0.2C159.2,159.2,159.4,159.1,159.5,159z"/>
	<path fill="#FFC235" d="M147.5,142.9L147.5,142.9c-0.1,0-0.2,0.1-0.2,0.2L147.5,142.9z"/>
	<path fill="#FFC235" d="M151.3,147.4c-0.1,0-0.2,0.1-0.3,0.1C151.2,147.5,151.2,147.4,151.3,147.4z"/>
	<path fill="#FFC235" d="M143.7,140.3c-0.1,0-0.3,0.1-0.5,0.1L143.7,140.3z"/>
	<path fill="#FBAE36" d="M142.2,136.1c-0.3,0.5-0.7,0.6-1.2,0.7c0.1,1.2,1.7,0.4,1.4,2l0.2-0.8c1.2-0.1,2.2,0.8,1.6,2.1l-0.5,0.1
		c1.3-0.1,0.3,1.9,1.3,1.6c0.3-0.6,0.7-0.6,0.9-1.3l1.9,0.7l-1.4,1.2l1,0.3c0.4-0.6,0.3,1.3,1.7,0.3c-0.2,0.8-1.2,0.7-1.9,1
		c0.7,0.1,0.1,0.6,1.3,0.3l-1,1.4l1.7,0.3c-0.2,0-0.2,0.2-0.4,0.2c1.5-0.4,0.3,1.7,2.6,0.9c-0.1,0-0.1,0.1-0.2,0.1
		c1.3-0.4,1.2,0.9,1.2,1.4c0.7,0.4,1.4-0.7,2-1.1c0.9,1.8,0.6,1.3,3.1,1.4c-1,2-3.3,1-3.7,2.9c0.9-0.5,2-0.2,2.9,0.3
		c0,1.1,0.5,2.7-0.1,4.2l1-0.9l1.4,0.6l-2,0.6c0.5-0.1,1.5-0.1,2.3-0.1c1.7,0.4-1.9,2.3,0.4,1.9c-0.1,0.1-0.2,0.2-0.3,0.3
		c1-0.3,1.2,0.6,2.1,1.2l-1.6,0.7l-0.1-0.7c-1.1,1.3,0.9,0.7,1.2,1.3c0.9,0.2,1.8-0.9,2.4-0.9c0.1,0.2,0.7,0.2,0.4,0.7
		c-0.1,0.8-1.6,1.2-2.3,1.5c1.7-0.6,1.6-0.4,2.9,0.1c-0.6,0.5-1,0.7-1.2,0.7c0.3,0.1,0.7,0,1.4-0.3l-0.6,0.9
		c-0.4,1.9,3.3-0.8,3.7,0.7c-1,0.2,0.9,0.9,0.3,2c-0.5-0.3-1.9,1.7-2.9,2c0.2,1.3,1.9-0.8,2.8-0.2l-1.9,0.9c1.3,0.2,1.1-0.5,2.2-0.1
		c-0.6,0.1-0.2,0.7-1.1,0.6c0.6,1.1,0.5,0.8,1,1.8l1.7-1.1c0.4,0.2-0.2,0.8-0.5,1.1c-0.1-0.1-0.2-0.3-0.4-0.2
		c-1.2,1.4,1.2,0,0.2,1.3c0.5-0.5,1.1-1.1,1.5-0.8c-1.1,0.6-0.5,1.2-0.9,1.6c0.5-0.7,0.9,0.6,2-0.2c-0.5,1-0.9,0.4-1.5,0.8
		c1.5-0.6,1.3,1.4,2.2,1.2c-0.1,0.1-0.2,0.1-0.2,0.2c1.1-0.1,1.8,0.5,3.6,0.6l-1.2,0.4c0.2,1.2,2.4-0.8,2.9-0.1
		c-1.5,0.8,1,1.2-0.8,1.9c1.1-0.1,1.8,0.2,3.2-0.4c-0.5,1-2.4,0.5-2.4,1.3l1.2,0.2l-0.7,0.6c0.6-0.4,1,0.2,1.4-0.1
		c-0.8,0.7-1.3,1.4-1.9,1.8c0.6,0.2,0.1,1.4,1.1,1.2l-0.4,0.3c1.9-0.7,1.2,1,3.1,0.1l-0.7,0.9c0.6,0.5,2.3-0.8,2.9-0.8
		c0.2,0.2,0.6,0.4,0.7,0.8c-1.7-0.1-1,1.3-1.5,1.9c0.2,0.3,1,1.2,2,0.9c-1.1,0.2-1.7,0.9-2.2,0.3c-1.4,1.5,1.1,0.8,1.4,1.8l-0.8,0.5
		c1.3,0.8,2.6-0.1,4.3-0.5c-0.9,0.8-1.2,0.8-2.4,1.2c-0.1,1.1,1.4,1.9,1.8,2.8c-0.5,0.7-1,0.8-1.5,0.7c1.3,0.4,1.1,2.1,3.2,1.5
		c-0.8,0.2-0.2,0.7-0.3,1.2c0.4-0.2,0.9-0.5,0.8-0.4c1.1,0.1,2.5,0.8,2.3,1.9l-0.7,0.1c0.7,1.6,4.1,0.4,3.8,2.8
		c-0.2,0.5-1.6,0.6-1.2,1.2c0.8-0.1,2.1-1.1,2.2-0.1l-1.2,0.7l1.5-0.2c0.8-0.9-0.1-1.5,1.3-1.6c-0.6,1.4,1.4-0.1,0.7,1.5
		c-0.2-0.1-1.3,0.2-1.8,0.4c-0.3,2.6,2.6,1.7,2.3,4.3c1.5,0.3,2.3,1.3,3.6,1.4c-1.2,0.7-2.2,1.3-3.3,1.5c0.3,0.8,3.1-0.4,1.8,1.1
		c1.8-0.6,2.3,1.4,4.6,0.2c-0.4,0.3,0.5,0.8-1.2,0.8c1.4,0.6-1.1,2.5-0.8,3c0.2,0.2,1.2-1.2,1.6-0.6c0,0.1-0.3,0.3-0.3,0.4l0.7-0.1
		c-0.4,0.5-1.3,0.4-1.8,0.7c0,1.1,2.1,0.6,2.9,1.5l-0.5,0.1l0.5,1.1l-0.2,0l1.3,0.3l-0.6,0.3c0.3,0.1,0.7-0.1,0.9,0.1l-0.8,0.3
		c1.3-0.4,2.4,0.2,2.7,0.7l-0.3,0.3l2.1,0.2c-0.4,1.1-2.1,0.3-0.9,1.1l-1.6,0.6c1.1,0.5,0.4,1.1,1.2,1.4c0.6-0.7,0.2-1,1.1-1.1
		c-1.3,1.7,1.1,0.8,2.1,1c-0.2-0.3-0.3-0.5-1.3-0.2c-0.2-0.4,0.7-0.6,0.6-0.8l-1.1,0l0.9-0.7l-1.3-0.3c1.2-0.6-0.3-0.8,1.1-1.3
		c-0.8-0.3-0.2-1.1-1.7-0.9c0.5-0.8,1.2,0.1,1.1-0.4c-2.3-1.7-3.6-4.2-4.7-6.8l0.7-0.1c-0.7,0.1-1.3,0-1.8,0.1
		c0.7-1,0.9-3.3-1.2-2.7c0-0.1,0.4-0.2,0.5-0.2c-0.7-0.7-0.4-2.8-1.3-3.9c-2.1,0.7,0.1-2.4-2.7-1.2l0.7-0.1
		c-0.4,0.8-2.1,0.6-2.8,0.8c1.4-1.3,1.2-0.8,2.5-2.1l-0.3,0.8l1.3-0.9c-4.3,0.8-0.1-3.6-3.2-2.9c0.2,0,0.4-0.2,0.5-0.2
		c0.4-1.1-1.6-0.4-2.3-0.5c0.6-0.5,1.2-0.4,1.9-0.5c-0.1-1.4-3.1-1.9-2.8-3.7c-1.2,0.2-1.1,0.9-2,1c0-0.5,0.6-1.2,1.3-1.1
		c1-2.1-3.2-2.5-2.7-5c-1.5-0.1-1.6,0.6-3.1-0.1c0.8-0.1,2-1.7,2.5-1.1l0.7-0.4c-0.7-1.3-1.5-3-3.9-2.4c1.4-1,0.1-0.4,0.6-1.4
		c-0.3-0.1-0.2,0.2-0.3,0.3c-1.5,0.4-0.4-0.7-0.8-0.9l0.3-0.1l-1.5-0.3c0.1-0.3,0.2-0.7,0.6-1l-1,0.7c-0.3-0.5,1.1-1.1,0.5-1.5
		l-0.7,0.6c0.2-0.7-1.2-0.5-0.2-1.4c0.2-0.2,0.2,0,0.3,0.1c1.1-1.6-1.5-1.1-1.3-2.3l-1.5,1.3c-1-0.3,0-0.6,0.6-1
		c-0.3-0.4,0.1-0.9-0.1-1.6c-0.6,0-0.7,0.3-1.2,0.5l0-0.9l1.1-0.2c-3,0.7-1.4-2.5-3.9-1.7c0.2-0.7,1.2-0.4,1.3-0.8
		c0.3-1.8-3.3-1.4-2.7-3.1c0.1-2.3-2.2-3.2-2.7-5.4l-0.4,0.3l-0.5-1.4c-1.2,0.4-1.3-0.7-2.8-0.4c0.4-0.2,0.8-0.7,1.1-0.7
		c-0.5-0.4-1.4-0.6-1-1.3l0.5-0.1c-0.5-1.3-1.6-2.8-2.8-2.8c-0.4-0.3,0.4-0.9,0.8-1.3c-0.4-0.7-1.2-0.8-2.2-0.8
		c0.1-0.3,0.1-0.5,0.4-1l-1.2,0.5c-0.1-0.4,0.8-0.7,0.9-1.1c-2-0.1-1.7-2-2.3-2.7l-0.4,0.5c-0.6,0-0.3-1.1,0.5-1.1
		c-0.4-1.8-3.1-0.8-4.2-2.9c1.7-1.7-1.8-1.2,0.1-3.1c-1.1-0.4-0.7-1.5-2.3-1.1c0.2-0.2,0.2-0.3,0.4-0.2c0.5-0.9-0.8-1.5-1.9-1.9
		l0.6-0.5c-1.6,0.8-2.2-0.9-3.8-0.1c0.2-0.3,0.7-0.3,1-0.4c1-1.4-1.2-0.2-1.3-1c0.4-0.2,0.6-0.7,0.9-0.7c0.1-2.8-4.3-3.5-5.1-6.4
		c-0.4-0.7-1.2,1.3-1.8,0.4c0.5-0.8,1.7-0.7,1.6-1.4c-1.1,0.3-1.1,0-1.4-0.5c0.5-0.3,0.7-0.6,1.3-0.5c0.3-0.7-2-0.4-1.4-1.8
		c-0.4,0.4-0.7,0.4-1,0.5c-1.8,0.1-0.4-2.9-1.1-2.4c0,0-0.4-0.1-0.4,0.2c-0.2-0.3-0.4-0.9,0.3-1.4c-0.5,0.1-1.2,0.4-1.4,0.2l0.9-0.5
		c-0.3,0-0.9,0.2-1.1,0.2l-0.3,0.6c0.3-0.9-1.7-0.3-0.3-1.5l0.1,0.1l0.1-1.2c-0.8,0.2-1.6,0.4-1.8-0.2c1.4-1.4-0.6-1.4-0.9-2.1
		l0.5-0.4c-1.1,0.2-1.7-1.2-1.8-0.8c-0.4-0.4-0.5-1.3,0.2-1.5c-0.6-0.1-1.2-0.8-2.2-0.3l0.7-1.7c-2.2,1.1-0.5-1.9-2.5-0.3
		c0-0.6,0.5-0.9,0.6-1.5c-1.4,0.3-1.7-0.4-2-1.1l0.2-0.2c-0.3-0.7-1.8-0.5-2.6-1.2l1.4-1.4c-0.6-0.2-1.8,0.6-1.8,0
		c0.2-0.3,0.3-0.3,0.5-0.2c-0.6-0.1-0.7-1-0.6-1.6c-1.6,0.3-1.6-0.5-3.1,0c0.9-1.6,1.2,0.2,2.1-1.3c0-1.4-1.5-1.7-2.9-2
		c0.2-0.3,0.5-0.4,0.9-0.6c0,0-5.1,1.2-6.2,2.8c-1.2,0.6-2,0.8-2.1,2.3c0.8-0.2,2.1-0.1,1.1,0.9l1.1-0.8c1.4,0.6-2,1.9-0.9,3.1
		l0.1-0.6c0.3,0.2,1.1-0.2,1,0.4c-0.2,0.3-0.5,0.3-0.8,0.4l2.3-0.2c-0.6,0.6-0.9,0.8-1.5,1c0.9,0.9,1.7-1.8,2.3-0.3
		c-0.3,0.6-0.7,0.5-1.2,0.6c-0.4,1.3,0.7,1,1.7,1c-0.9,0.8-1.1,0.3-1.3,1.3c0.4-0.5,1.2-1.2,1.6-1c-1.1,0.6-0.3,0.7-0.2,1.2
		c0.3-0.3,0.7-0.7,1-0.7c0.3,0,0,0.5,0.3,0.7l0.6-1.2c1.4-0.1,0.3,1.3,0.3,2.1c-0.2,0.1-0.4,0.1-0.5,0.1c0,0.8-0.3,1.9,1,1.8l-0.2,0
		c1.9,0.4,1.3-1.6,3.2-1c0.2,0.6-3.2,2.3-1.3,2.4c0.4-1.1,2.5-1,3.3-0.7l-2.3,0.9c0.2,0.2,1,0.2,0.9,0.5l0.4-0.4
		c1.5-1.3,0.4,0.9,1.7,0.6c-2.5,1.2-2.1,0.9-4.3,2.5c1.5-0.5,2.9-0.9,3.3,0l-2.1,0.7c0.4,1.3,3.8,0.5,5.8,0.2
		c-1.4,0.8-1.5,1.4-2.8,1.9l1,0.7l-1.5,0.8c1.7-0.7,1.1,0.5,2.8-1c-0.3,0.1-0.5,0.3-0.6,0c0.5-0.4,1.8-1.1,2.1-0.6
		c-0.2,0.7-0.8,0.4-1.3,0.8c1-0.3-0.2,0.7,0.6,0.6l0.5-0.9c1.2-0.6,0.5,0.5,1.3,0.4c-0.7,0-1.2,0.6-1.7,1.2l0.1-0.1
		c0.3,0.2,1.2-0.1,0.8,0.6l-1.6,0.9l1.3-0.5c-0.1,0.3-0.5,0.8-0.9,0.8c0,1.8,3-2.5,2.9,0c-0.6,0.4-1,0.5-1-0.1
		c-0.9,0.6-1.3,1.1-1.3,1.8c-0.1,0.1-0.1,0.1-0.2,0.1C140.1,135.4,140.8,136.4,142.2,136.1z"/>
	<path fill="#FFC235" d="M139.6,134.6c-0.3-0.4-0.6-0.7-0.9-0.7C138.5,134.2,138.7,135.3,139.6,134.6z"/>
	<path fill="#FFC235" d="M185.4,194c-0.1,0-0.2,0-0.3-0.1C185.3,194,185.4,194,185.4,194z"/>
	<path fill="#FFC235" d="M188.1,197.1c0.1-0.1,0.2-0.3,0.2-0.4C188.1,196.9,187.9,197.1,188.1,197.1z"/>
	<path fill="#FFC235" d="M163.3,163.4L163.3,163.4L163.3,163.4z"/>
	<path fill="#FFC235" d="M176.2,182.4c0.7,0,1.1-0.2,1.5-0.5C177.5,181.9,177.1,181.9,176.2,182.4z"/>
	<path fill="#FFC235" d="M172.4,175.7c-0.1,0-0.2,0-0.3,0C172.2,175.7,172.3,175.7,172.4,175.7z"/>
	<path fill="#FFC235" d="M161.9,163c0.7-0.1,0.9,0.3,1.4,0.4C162.9,163.3,163,162.5,161.9,163z"/>
	<polygon fill="#FFC235" points="192.5,200.1 191.5,200.3 192.3,200.3 	"/>
	<path fill="#FFC235" d="M189.9,197.3c0.1-0.3-0.8-0.5-1.1-0.1C189.3,197.1,189.6,197.2,189.9,197.3z"/>
	<polygon fill="#FFC235" points="182.5,184.8 181.6,185.2 182.5,185 	"/>
</g>
<g>
	<polygon fill="#FFC235" points="344,221.6 344.9,221.8 344.1,220.6 	"/>
	<path fill="#FFC235" d="M347.6,213.8c-0.7-1-0.9-2.6-2.8-3.1c0.4,0.6,0.9,1.2,1.3,1.7c-1.4-0.2-1.6,0.7-1.4,1.6l0.2-0.9
		c0.1,0.3,1,0.4,1.1,0.7c-1.1,1.1,0.7,2-1.2,2.8l-0.1-0.1l0.5,1.2c-0.3,0.2-0.9-0.1-1.1-0.3c0.4,1.1,0.9,2,0.4,3.1
		c2.7,0-1-3.2,1.8-3.3l0.1,0.1C346,216,347.9,215.2,347.6,213.8z"/>
	<path fill="#FFC235" d="M344.2,217.4L344.2,217.4C344.1,217.3,344.1,217.4,344.2,217.4z"/>
	<path fill="#FFC235" d="M354.2,169.8l-0.4,0C354,169.9,354.1,169.9,354.2,169.8z"/>
	<path fill="#FFC235" d="M348.8,184.5L348.8,184.5C348.2,184.3,348.4,184.3,348.8,184.5z"/>
	<path fill="#FFC235" d="M349.5,91.2l0.6-0.3C349.6,91,349.5,91.1,349.5,91.2z"/>
	<path fill="#FFC235" d="M351.6,72.4L351.6,72.4L351.6,72.4z"/>
	<path fill="#FFC235" d="M342.6,80.2l-0.5,0C342.4,80.3,342.5,80.2,342.6,80.2z"/>
	<path fill="#FFC235" d="M342.3,73.7c0.2-0.2,0.3-0.3,0.3-0.5C342.3,73.3,342.2,73.5,342.3,73.7z"/>
	<path fill="#FFC235" d="M351.8,72.6c-0.1-0.1-0.1-0.1-0.2-0.2C351.6,72.5,351.7,72.6,351.8,72.6z"/>
	<path fill="#FFC235" d="M341.1,89.8l-1.4,0.2C340.2,90,340.6,89.9,341.1,89.8z"/>
	<path fill="#FFC235" d="M341.4,72c0.3-0.1,0.4-0.2,0.5-0.3C341.7,71.7,341.4,71.8,341.4,72z"/>
	<path fill="#FFC235" d="M347.9,212.5c0,0.2-0.1,0.4,0,0.7C348.1,213,348,212.7,347.9,212.5z"/>
	<path fill="#FFC235" d="M341.1,125.8c-0.1,0-0.3-0.1-0.5-0.1C340.7,125.8,340.9,125.8,341.1,125.8z"/>
	<path fill="#FFC235" d="M340.1,104.7L340.1,104.7c-0.1,0-0.2,0-0.3,0L340.1,104.7z"/>
	<path fill="#FFC235" d="M340.5,110.9c-0.1,0-0.2,0-0.3-0.1C340.4,110.9,340.5,110.9,340.5,110.9z"/>
	<path fill="#FFC235" d="M338.5,100.1c-0.1-0.1-0.3-0.1-0.5-0.2L338.5,100.1z"/>
	<path fill="#FBAE36" d="M339.9,95.6c-0.5,0.2-0.9,0-1.4-0.2c-0.7,1.1,1,1.5-0.1,2.7l0.7-0.6c1,0.8,1.2,2.1-0.1,2.8l-0.4-0.2
		c1.1,0.7-0.9,1.9,0,2.2c0.6-0.3,0.9,0,1.5-0.5c0.4,0.6,0.8,1.2,1.2,1.8l-1.8,0.2l0.6,0.9c0.7-0.3-0.5,1.3,1.2,1.3
		c-0.6,0.6-1.4-0.2-2.1-0.3c0.5,0.5-0.2,0.6,0.8,1.1l-1.6,0.6l1.2,1.4c-0.2-0.1-0.3,0-0.4,0c1.4,0.6-0.7,1.7,1.7,2.4
		c-0.1,0-0.2,0-0.3,0c1.3,0.4,0.4,1.5,0.2,1.9c0.4,0.7,1.6,0.2,2.2,0.2c-0.3,2.1-0.2,1.4,1.8,3c-1.9,1.2-3.3-1-4.6,0.4
		c1,0.1,1.8,1,2.3,2c-0.6,1-1,2.6-2.4,3.6l1.3-0.2l0.8,1.3l-2-0.6c0.5,0.2,1.4,0.8,2,1.2c1.3,1.3-2.8,1-0.7,1.9
		c-0.1,0.1-0.3,0.1-0.4,0.1c1,0.3,0.7,1.2,1.2,2.2l-1.7-0.2l0.3-0.7c-1.6,0.5,0.4,1.1,0.3,1.8c0.6,0.6,2,0.2,2.5,0.5
		c-0.1,0.3,0.5,0.6,0,0.8c-0.5,0.6-2,0.2-2.7,0.1c1.8,0.4,1.6,0.6,2.4,1.7c-0.8,0.1-1.2,0.1-1.4-0.1c0.2,0.2,0.6,0.4,1.4,0.5
		l-0.9,0.5c-1.3,1.4,3.2,1,2.8,2.7c-0.9-0.3,0.3,1.3-0.7,1.9c-0.3-0.5-2.4,0.5-3.5,0.2c-0.5,1.3,2,0.3,2.5,1.3l-2.1-0.2
		c1,0.9,1.1,0.1,1.9,1.1c-0.6-0.2-0.5,0.5-1.3,0c-0.1,1.3,0.1,1-0.1,2.1l2-0.1c0.3,0.4-0.6,0.6-1,0.7c-0.1-0.2,0-0.4-0.3-0.4
		c-1.7,0.6,1,0.7-0.5,1.3c0.6-0.2,1.5-0.4,1.7,0.1c-1.3-0.1-1.1,0.8-1.6,0.9c0.8-0.4,0.5,1,1.8,0.9c-0.9,0.6-1-0.1-1.7-0.1
		c1.6,0.3,0.4,1.9,1.3,2.2c-0.1,0-0.2,0-0.3,0.1c1,0.5,1.3,1.5,2.8,2.5l-1.2-0.3c-0.4,1.2,2.5,0.5,2.6,1.5c-1.7-0.1,0.2,1.6-1.6,1.3
		c1,0.5,1.4,1.1,2.9,1.4c-0.9,0.6-2.3-0.9-2.8-0.1l0.9,0.8l-0.9,0.2c0.7,0,0.8,0.7,1.3,0.6c-1.1,0.2-1.8,0.6-2.6,0.6
		c0.4,0.5-0.6,1.3,0.3,1.7l-0.5,0.1c2,0.4,0.5,1.6,2.6,1.7l-1.1,0.4c0.2,0.8,2.3,0.5,2.8,0.9c0.1,0.3,0.3,0.7,0.2,1
		c-1.4-1-1.6,0.6-2.3,0.8c0,0.4,0.2,1.6,1.2,1.9c-1.1-0.5-1.9-0.1-2-1c-2,0.5,0.5,1.3,0.3,2.3l-0.9,0c0.7,1.4,2.3,1.4,3.9,2
		c-1.2,0.2-1.5,0.1-2.7-0.3c-0.7,0.9,0.1,2.4,0,3.5c-0.8,0.3-1.3,0.1-1.7-0.2c0.9,1.1-0.2,2.4,1.9,3.1c-0.8-0.3-0.5,0.4-0.9,0.8
		c0.4,0,1,0.1,0.9,0.1c0.8,0.7,1.6,2.2,0.8,2.9l-0.6-0.3c-0.4,1.8,3.1,2.7,1.6,4.6c-0.5,0.3-1.7-0.4-1.7,0.3
		c0.7,0.4,2.3,0.3,1.8,1.2l-1.3-0.1l1.3,0.7c1.1-0.3,0.8-1.3,2-0.5c-1.3,0.8,1.2,0.8-0.3,1.7c-0.1-0.2-1.1-0.6-1.7-0.8
		c-1.7,2,1.1,3-0.8,5c1,1.2,1.1,2.5,2,3.4c-1.3-0.2-2.5-0.3-3.5-0.9c-0.3,0.9,2.7,1.6,0.6,2c1.8,0.7,0.9,2.6,3.4,3.2
		c-0.5,0-0.2,1-1.5-0.2c0.6,1.4-2.5,1.3-2.6,1.8c0,0.3,1.7-0.1,1.6,0.6c-0.1,0.1-0.4,0-0.5,0.1l0.6,0.4c-0.6,0.2-1.2-0.5-1.9-0.7
		c-0.7,0.9,1.2,1.9,1.2,3.1l-0.4-0.3l-0.3,1.2l-0.1-0.1l0.7,1.2l-0.7-0.2c0.1,0.3,0.5,0.4,0.6,0.7l-0.8-0.3c1.2,0.6,1.6,1.9,1.5,2.5
		l-0.4,0l1.3,1.7c-1,0.5-1.7-1.4-1.4,0.2l-1.6-0.8c0.4,1.1-0.5,1.1-0.1,1.9c0.9-0.1,0.9-0.6,1.6-0.1c-2.1,0.3,0.2,1.4,0.7,2.3
		c0.1-0.4,0.2-0.7-0.7-1.2c0.1-0.4,0.9,0.1,1-0.1l-0.8-0.8l1.2,0.1l-0.6-1.2c1.3,0.4,0.4-0.9,1.7-0.1c-0.4-0.8,0.7-1-0.5-1.9
		c0.9-0.3,0.8,1,1,0.5c-0.2-1.5-0.2-3,0.1-4.4c0.3-1.4,0.6-2.9,1.1-4.3l0.6,0.4c-0.6-0.4-1-0.8-1.4-1.1c1.2-0.3,2.8-2.1,0.9-3
		c0.1-0.1,0.4,0.1,0.5,0.2c-0.1-1,1.6-2.6,1.5-4c-2.1-0.8,1.5-2-1.3-2.8l0.6,0.3c-0.9,0.4-2-0.8-2.7-1.1c1.9-0.2,1.5,0.1,3.3-0.2
		l-0.7,0.5l1.6,0c-3.9-2.1,2.1-3.2-0.8-4.5c0.1,0.1,0.4,0.1,0.6,0.2c0.9-0.7-1-1.3-1.6-1.9c0.8,0,1.3,0.4,1.9,0.7
		c0.7-1.3-1.4-3.5-0.1-4.9c-1.1-0.5-1.4,0.2-2.2-0.4c0.3-0.4,1.2-0.7,1.7-0.2c2-1.2-1.2-4.1,0.6-5.9c-1.2-1-1.7-0.4-2.5-1.8
		c0.8,0.3,2.6-0.4,2.7,0.5l0.8,0.1c0.1-1.5,0.4-3.5-2-4.3c1.7-0.1,0.3-0.3,1.2-0.9c-0.2-0.2-0.3,0-0.4,0.1c-1.5-0.5,0-0.8-0.2-1.2
		l0.3,0.1l-1.1-1c0.2-0.2,0.5-0.5,1.1-0.5l-1.2,0.1c0-0.6,1.5-0.3,1.2-1l-0.9,0.2c0.5-0.5-0.8-1.1,0.6-1.3c0.3,0,0.2,0.1,0.2,0.2
		c1.8-0.8-0.7-1.8,0.1-2.7l-1.9,0.3c-0.7-0.8,0.4-0.5,1.1-0.5c0-0.6,0.6-0.7,0.7-1.5c-0.5-0.3-0.7-0.2-1.3-0.2l0.4-0.8l1.1,0.4
		c-2.9-1,0.1-3-2.5-3.6c0.5-0.5,1.2,0.3,1.5,0c1.2-1.5-2.1-3-0.7-4.3c1.2-2-0.3-4.1,0.5-6.2l-0.5,0.1l0.3-1.5
		c-1.2-0.3-0.7-1.4-2.2-1.9c0.4,0,1-0.2,1.4,0c-0.2-0.6-0.8-1.3-0.2-1.7l0.5,0.2c0.2-1.4,0.1-3.4-1-4c-0.2-0.5,0.8-0.5,1.4-0.7
		c0-0.8-0.6-1.3-1.5-1.9c0.2-0.2,0.4-0.4,0.9-0.6l-1.3-0.2c0.2-0.4,1-0.2,1.4-0.5c-1.6-1.1-0.4-2.7-0.5-3.6l-0.6,0.2
		c-0.5-0.3,0.3-1.1,1-0.7c0.6-1.8-2.2-2.4-2-4.8c2.3-0.5-0.8-2.1,1.7-2.6c-0.7-0.9,0.3-1.6-1.3-2.2c0.3,0,0.4-0.1,0.4,0
		c0.9-0.4,0.1-1.7-0.6-2.7l0.8-0.1c-1.7-0.3-1.3-2-3-2.3c0.4-0.1,0.7,0.2,1,0.3c1.6-0.6-0.8-0.9-0.5-1.6c0.4,0,0.9-0.2,1.2-0.1
		c0.9-1.1,0.5-2.5,0.1-3.9c-0.4-1.4-0.9-2.9-0.3-4.4c0.1-0.8-1.8,0.3-1.7-0.7c0.9-0.3,1.7,0.5,2.1-0.2c-1.1-0.5-0.8-0.6-0.8-1.3
		c0.6,0.1,0.9,0,1.3,0.5c0.7-0.4-1.4-1.6,0.1-2.3c-0.5,0-0.8-0.1-1.1-0.2c-1.5-1.1,1.5-2.5,0.7-2.6c0,0-0.2-0.4-0.4-0.1
		c0-0.4,0.3-1,1.1-0.8c-0.4-0.2-1.2-0.4-1.2-0.7l1,0.2c-0.2-0.2-0.8-0.4-0.9-0.6l-0.6,0.3c0.8-0.4-1.1-1.4,0.8-1.3l0,0.2l0.9-0.8
		c-0.7-0.4-1.5-0.7-1.2-1.3c1.9-0.1,0.5-1.4,0.7-2.1l0.7,0.1c-0.9-0.6-0.4-2-0.8-1.8c0-0.5,0.5-1.3,1.1-0.9
		c-0.4-0.5-0.2-1.4-1.4-1.7l1.7-0.7c-2.4-0.8,1-1.7-1.5-2c0.4-0.5,1-0.3,1.5-0.6c-1.2-0.8-0.9-1.5-0.6-2.2l0.3,0
		c0.3-0.7-0.9-1.7-0.9-2.7l2,0.1c-0.2-0.6-1.7-0.9-1.2-1.3c0.3-0.1,0.4,0.1,0.5,0.2c-0.3-0.5,0.3-1.1,0.8-1.4
		c-1.3-1-0.7-1.5-2.1-2.4c1.8-0.3,0.6,1,2.3,0.8c1.1-0.9,0.4-2.1-0.2-3.4c0.4,0,0.7,0.2,1.1,0.3c0,0-1-0.8-2.3-1.7
		c-1.3-0.8-2.8-1.7-3.7-1.7c-1.2-0.6-1.9-1.1-3.1-0.3c0.7,0.5,1.4,1.7-0.1,1.6l1.3,0.3c0.3,1.5-2.7-0.4-3.1,1.3l0.5-0.3
		c0,0.3,0.8,0.8,0.3,1c-0.4,0-0.5-0.2-0.8-0.4c0.5,0.6,1,1.2,1.5,1.7c-0.8-0.1-1.2-0.2-1.7-0.6c-0.2,1.3,2.5,0.2,1.7,1.7
		c-0.6,0.2-0.8-0.2-1.2-0.5c-1.3,0.6-0.3,1.2,0.3,2.1c-1.2-0.2-1-0.7-1.8-0.1c0.6,0,1.7,0.1,1.7,0.6c-1.2-0.4-0.7,0.3-1.1,0.7
		c0.4,0,1,0.1,1.2,0.3c0.1,0.3-0.4,0.4-0.3,0.7l1.3-0.4c1,1-0.8,1.2-1.4,1.7c-0.2-0.1-0.4-0.2-0.4-0.3c-0.6,0.6-1.6,1.2-0.7,2.1
		l-0.1-0.1c1,1.7,2.1-0.2,3,1.7c-0.3,0.6-3.9-0.7-2.6,0.8c1.1-0.5,2.4,1.1,2.8,1.9l-2.3-1c-0.1,0.3,0.5,0.9,0.3,1.1l0.5,0
		c2,0.1-0.4,1,0.8,1.6c-2.6-0.9-2.1-0.9-4.8-1.3c1.4,0.7,2.7,1.4,2.4,2.4l-2-1c-0.6,1.3,2.4,3.1,4.1,4.3c-1.5-0.4-2.1,0-3.4-0.5
		l0.2,1.3l-1.7-0.5c1.7,0.6,0.5,1.1,2.7,1.2c-0.3-0.2-0.6-0.1-0.5-0.4c0.7,0.1,2.1,0.3,1.9,1c-0.6,0.4-0.9-0.3-1.5-0.2
		c0.9,0.5-0.6,0.4,0.1,0.9l1-0.4c1.3,0.4,0,0.7,0.7,1.2c-0.5-0.5-1.3-0.4-2.1-0.2l0.2,0c0.1,0.3,1,0.8,0.2,1l-1.8-0.3l1.3,0.5
		c-0.2,0.2-0.9,0.3-1.2,0c-1.1,1.5,3.9,0.1,2.2,1.9c-0.7,0-1.1-0.3-0.7-0.8c-1.1-0.1-1.7,0-2.1,0.5c-0.1,0-0.1,0-0.2,0
		C338.8,93.6,338.7,94.9,339.9,95.6z"/>
	<path fill="#FFC235" d="M338.9,92.6c0-0.5,0-1-0.2-1.2C338.3,91.5,337.7,92.6,338.9,92.6z"/>
	<path fill="#FFC235" d="M344.9,170.7c-0.1-0.1-0.1-0.1-0.2-0.2C344.8,170.5,344.9,170.6,344.9,170.7z"/>
	<path fill="#FFC235" d="M345.5,174.8c0.2,0,0.3-0.1,0.4-0.2C345.5,174.6,345.3,174.6,345.5,174.8z"/>
	<path fill="#FFC235" d="M342,131.8L342,131.8L342,131.8z"/>
	<path fill="#FFC235" d="M343.3,155.6c0.6,0.3,1.1,0.4,1.6,0.4C344.7,155.8,344.2,155.6,343.3,155.6z"/>
	<path fill="#FFC235" d="M343.5,147.6c-0.1,0-0.2-0.1-0.3-0.1C343.3,147.5,343.4,147.6,343.5,147.6z"/>
	<path fill="#FFC235" d="M341,130.6c0.6,0.3,0.6,0.8,1,1.2C341.6,131.5,342.1,130.8,341,130.6z"/>
	<polygon fill="#FFC235" points="347.4,179.9 346.5,179.5 347.1,179.9 	"/>
	<path fill="#FFC235" d="M346.8,176c0.2-0.2-0.3-0.9-0.8-0.7C346.5,175.6,346.7,175.8,346.8,176z"/>
	<polygon fill="#FFC235" points="347.4,161 346.4,160.9 347.2,161.2 	"/>
</g>
<g>
	<polygon fill="#FFC235" points="465.7,232.8 466.6,233 466,231.8 	"/>
	<path fill="#FFC235" d="M470.8,225.4c-0.5-1.2-0.3-2.8-1.9-3.8c0.2,0.7,0.5,1.4,0.8,2.1c-1.3-0.5-1.7,0.4-1.7,1.3l0.4-0.9
		c0,0.3,0.9,0.6,1,0.9c-1.3,0.9,0.2,2.2-1.8,2.6l-0.1-0.1l0.3,1.4c-0.3,0.2-0.9-0.2-1-0.4c0.2,1.2,0.6,2.2-0.1,3.3
		c2.8,0.3-0.4-3.4,2.3-3.1l0.1,0.1C468.6,227.3,470.8,226.8,470.8,225.4z"/>
	<path fill="#FFC235" d="M466.6,228.5l0-0.1C466.5,228.4,466.5,228.4,466.6,228.5z"/>
	<path fill="#FFC235" d="M497.1,187l-0.3-0.3C496.9,186.8,497,187,497.1,187z"/>
	<path fill="#FFC235" d="M483.9,197L483.9,197C483.6,196.6,483.7,196.7,483.9,197z"/>
	<path fill="#FFC235" d="M546,115.7l0.7,0C546.2,115.5,546,115.5,546,115.7z"/>
	<path fill="#FFC235" d="M557.1,97.1L557.1,97.1C557.1,97.1,557.1,97.1,557.1,97.1z"/>
	<path fill="#FFC235" d="M545.4,101.8l-0.5-0.2C545.2,101.8,545.3,101.8,545.4,101.8z"/>
	<path fill="#FFC235" d="M547.8,95.4c0.2-0.1,0.4-0.2,0.5-0.4C548,95,547.8,95.1,547.8,95.4z"/>
	<path fill="#FFC235" d="M557.2,97.4c-0.1-0.1-0.1-0.2-0.1-0.3C557.1,97.2,557.2,97.3,557.2,97.4z"/>
	<path fill="#FFC235" d="M539.4,110.2l-1.3-0.5C538.5,109.9,539,110,539.4,110.2z"/>
	<path fill="#FFC235" d="M547.6,93.4c0.3,0,0.5,0,0.6-0.1C548,93.2,547.7,93.2,547.6,93.4z"/>
	<path fill="#FFC235" d="M471.3,224.1c-0.1,0.2-0.2,0.4-0.1,0.7C471.4,224.7,471.4,224.4,471.3,224.1z"/>
	<path fill="#FFC235" d="M517.1,141.5c-0.1-0.1-0.2-0.3-0.4-0.4C516.7,141.3,516.9,141.4,517.1,141.5z"/>
	<path fill="#FFC235" d="M530,123.1L530,123.1c-0.1-0.1-0.1-0.1-0.2-0.1L530,123.1z"/>
	<path fill="#FFC235" d="M526.6,128.6c-0.1-0.1-0.1-0.2-0.2-0.2C526.4,128.5,526.5,128.6,526.6,128.6z"/>
	<path fill="#FFC235" d="M531.5,118.1c-0.1-0.1-0.1-0.3-0.3-0.4L531.5,118.1z"/>
	<path fill="#FBAE36" d="M535.3,114.9c-0.5-0.1-0.8-0.5-1.1-0.9c-1.2,0.6,0,1.9-1.6,2.3l0.9-0.1c0.4,1.2-0.2,2.6-1.7,2.5l-0.3-0.4
		c0.5,1.2-1.8,1.1-1.2,1.9c0.7,0.1,0.8,0.5,1.5,0.4c0,0.7-0.1,1.5-0.1,2.2l-1.6-0.9L530,123c0.8,0.2-1.2,0.8,0.2,1.8
		c-0.9,0.1-1-1-1.5-1.5c0.1,0.8-0.6,0.4,0,1.4l-1.6-0.4l0.1,1.9c-0.1-0.1-0.2-0.1-0.3-0.3c0.8,1.3-1.6,1-0.2,3
		c0-0.1-0.1-0.1-0.2-0.2c0.8,1.1-0.6,1.6-1.1,1.8c-0.2,0.8,1.1,1.1,1.6,1.5c-1.6,1.6-1.1,1.1-0.6,3.7c-2.3-0.2-1.9-2.9-3.9-2.6
		c0.7,0.7,0.8,2,0.5,3.1c-1.2,0.4-2.6,1.5-4.3,1.6l1.1,0.7l-0.2,1.6l-1.1-1.8c0.2,0.4,0.5,1.5,0.8,2.3c0.1,1.9-2.8-1-1.9,1.1
		c-0.1,0-0.3-0.1-0.4-0.2c0.6,0.9-0.3,1.5-0.6,2.6l-1.2-1.3l0.7-0.4c-1.6-0.6-0.5,1.1-1,1.7c0,0.9,1.4,1.4,1.6,2.1
		c-0.2,0.2,0,0.8-0.6,0.7c-0.8,0.2-1.7-1.1-2.1-1.7c1.1,1.5,0.8,1.5,0.6,2.9c-0.7-0.4-0.9-0.7-1-0.9c0,0.3,0.2,0.7,0.7,1.3l-1-0.2
		c-2,0.3,1.7,3,0.3,4.1c-0.5-0.9-0.7,1.3-1.9,1.1c0.1-0.6-2.2-1.2-2.8-2.1c-1.3,0.8,1.3,1.6,1,2.8l-1.4-1.6c0.1,1.4,0.8,0.9,0.7,2.2
		c-0.3-0.6-0.7,0.1-0.9-0.9c-1,1-0.6,0.8-1.6,1.7l1.6,1.3c-0.1,0.5-0.9,0.1-1.3,0c0.1-0.2,0.3-0.3,0.1-0.5c-1.7-0.6,0.3,1.2-1.3,0.7
		c0.6,0.3,1.4,0.7,1.2,1.2c-0.9-0.9-1.4,0-1.8-0.3c0.9,0.2-0.3,1.1,0.7,2c-1.1-0.1-0.7-0.7-1.2-1.2c1,1.3-1.1,1.8-0.6,2.7
		c-0.1-0.1-0.2-0.1-0.3-0.1c0.4,1.1,0,2.1,0.4,3.9l-0.7-1c-1.2,0.7,1.5,2.1,0.9,2.9c-1.2-1.2-0.9,1.5-2.1,0c0.4,1.1,0.3,1.9,1.3,3
		c-1.1-0.1-1.2-2.3-2-1.9l0.2,1.2l-0.8-0.4c0.5,0.4,0.1,1.1,0.6,1.4c-1-0.5-1.8-0.7-2.4-1.2c-0.1,0.7-1.4,0.7-0.9,1.6l-0.5-0.3
		c1.3,1.6-0.7,1.6,0.8,3.1l-1.1-0.4c-0.3,0.8,1.5,1.9,1.6,2.5c-0.1,0.3-0.2,0.8-0.6,1c-0.4-1.7-1.6-0.5-2.4-0.7
		c-0.3,0.3-0.9,1.5-0.3,2.4c-0.6-1.1-1.4-1.3-1-2.1c-1.9-0.8-0.5,1.5-1.3,2.2l-0.8-0.6c-0.4,1.6,0.9,2.6,1.9,4.1
		c-1.1-0.5-1.2-0.8-1.9-1.9c-1.2,0.4-1.5,2.2-2.2,3.1c-0.9-0.2-1.1-0.6-1.2-1.2c0,1.5-1.7,2.1-0.4,3.9c-0.5-0.7-0.7,0.1-1.3,0.2
		c0.4,0.2,0.8,0.6,0.7,0.6c0.3,1.1,0,2.9-1.1,3.1l-0.3-0.6c-1.4,1.4,1,4.1-1.4,5.1c-0.6,0.1-1.2-1.3-1.6-0.6
		c0.4,0.7,1.8,1.5,0.9,2.1l-1.1-0.8l0.8,1.3c1.1,0.3,1.4-0.8,2,0.5c-1.5,0,0.6,1.3-1.2,1.4c0-0.3-0.7-1.1-1-1.6
		c-2.6,1-0.7,3.4-3.4,4.4c0.3,1.5-0.4,2.9,0,4.1c-1.1-0.8-2.1-1.4-2.7-2.5c-0.7,0.7,1.7,2.8-0.4,2.3c1.3,1.4-0.5,2.9,1.6,4.5
		c-0.5-0.2-0.6,0.9-1.3-0.8c0,1.6-2.9,0.3-3.2,0.8c-0.1,0.3,1.6,0.5,1.2,1.2c-0.1,0-0.4-0.1-0.5-0.1l0.4,0.6c-0.7,0-0.9-1-1.5-1.3
		c-1,0.7,0.3,2.3-0.2,3.5l-0.3-0.4l-0.7,1.1l-0.1-0.1l0.2,1.4l-0.6-0.4c0,0.3,0.4,0.6,0.3,0.9l-0.7-0.5c0.9,0.9,0.9,2.4,0.6,2.9
		l-0.4-0.1l0.7,2.1c-1.2,0.2-1.2-1.8-1.4-0.2l-1.3-1.2c0,1.3-0.8,1-0.7,1.9c0.9,0.1,1.1-0.4,1.5,0.3c-2.1-0.2-0.3,1.4,0,2.5
		c0.2-0.4,0.3-0.6-0.4-1.3c0.2-0.4,0.9,0.3,1.1,0.1l-0.5-1l1.1,0.4l-0.3-1.4c1.1,0.7,0.6-0.8,1.7,0.3c-0.1-0.9,0.9-0.8,0.1-2.1
		c1,0,0.5,1.2,0.8,0.8c0.5-3.1,2.2-5.7,4.3-8l0.4,0.6c-0.4-0.6-0.6-1.2-0.8-1.6c1.2,0.1,3.5-0.8,2.1-2.5c0.1,0,0.3,0.3,0.4,0.4
		c0.3-1,2.5-1.8,3.1-3.1c-1.5-1.7,2.3-1.1,0.2-3.2l0.3,0.6c-1,0-1.3-1.7-1.8-2.3c1.8,0.7,1.2,0.8,3,1.3l-0.9,0.1l1.4,0.8
		c-2.4-3.8,3.5-1.9,1.6-4.5c0.1,0.1,0.3,0.3,0.4,0.4c1.2-0.1-0.2-1.7-0.3-2.5c0.7,0.4,0.9,1,1.2,1.6c1.3-0.8,0.8-3.9,2.7-4.4
		c-0.6-1-1.3-0.6-1.6-1.5c0.5-0.2,1.4,0,1.5,0.8c2.4,0.1,1.4-4.3,4-4.9c-0.4-1.5-1.2-1.3-0.9-3.1c0.4,0.7,2.3,1.2,1.9,2l0.6,0.6
		c1.1-1.2,2.5-2.8,1.1-4.8c1.4,1,0.4,0,1.5,0c0-0.3-0.2-0.1-0.4-0.1c-0.9-1.3,0.6-0.7,0.6-1.2l0.2,0.3l-0.2-1.6
		c0.3,0,0.7-0.1,1.2,0.2l-1-0.7c0.4-0.5,1.4,0.7,1.6-0.2l-0.8-0.4c0.7-0.1,0.2-1.4,1.3-0.8c0.2,0.1,0.1,0.1,0,0.3
		c1.9,0.4,0.7-2,1.9-2.2l-1.7-0.9c0-1.1,0.7-0.2,1.2,0.2c0.3-0.5,0.9-0.2,1.6-0.8c-0.2-0.6-0.5-0.6-0.8-1l0.9-0.4l0.5,1.1
		c-1.6-2.7,2.1-2.4,0.5-4.6c0.7-0.1,0.7,1,1.1,1c1.9-0.5,0.5-3.8,2.4-4c2.3-0.8,2.6-3.5,4.7-4.8l-0.4-0.3l1.3-1.1
		c-0.7-1,0.4-1.6-0.3-3c0.3,0.3,0.9,0.5,1.1,0.9c0.3-0.7,0.2-1.6,1.1-1.5l0.2,0.5c1.2-1.1,2.4-2.8,2.1-4c0.2-0.5,1,0.1,1.6,0.3
		c0.6-0.7,0.5-1.5,0.2-2.6c0.3,0,0.6-0.1,1.1,0l-0.8-1c0.4-0.2,0.9,0.5,1.3,0.5c-0.4-2,1.6-2.5,2.1-3.4l-0.6-0.3
		c-0.2-0.6,1-0.7,1.3,0c1.7-1.1,0-3.5,1.8-5.4c2.1,1,0.8-2.3,3.1-1.2c0.1-1.3,1.3-1.3,0.5-2.8c0.2,0.1,0.4,0.1,0.3,0.3
		c1,0.2,1.3-1.4,1.4-2.7l0.7,0.4c-1.2-1.3,0.3-2.6-0.9-3.9c0.4,0.1,0.5,0.6,0.6,0.9c1.7,0.4-0.1-1.3,0.6-1.7c0.3,0.3,0.8,0.4,1,0.7
		c1.4-0.5,2-2,2.6-3.5c0.6-1.5,1.1-3.2,2.5-4.2c0.5-0.7-1.7-0.7-0.9-1.6c0.9,0.2,1.2,1.4,1.9,1c-0.6-1-0.3-1.1,0.2-1.6
		c0.4,0.4,0.8,0.5,0.8,1.2c0.8,0-0.2-2.2,1.5-2.2c-0.5-0.2-0.6-0.5-0.8-0.8c-0.6-1.8,2.8-1.6,2.1-2.1c0,0,0-0.5-0.3-0.3
		c0.3-0.4,0.8-0.8,1.5-0.3c-0.3-0.4-0.8-1-0.7-1.3l0.7,0.7c-0.1-0.3-0.5-0.8-0.5-1l-0.7,0c1,0-0.2-1.9,1.4-0.9l-0.1,0.2l1.2-0.4
		c-0.5-0.7-0.9-1.4-0.4-1.9c1.8,0.8,1.2-1.2,1.8-1.8l0.6,0.4c-0.5-1,0.7-2.2,0.3-2.1c0.3-0.5,1.2-1,1.5-0.5
		c-0.1-0.6,0.5-1.6-0.4-2.4l1.9-0.1c-1.8-1.7,1.8-1.4-0.5-2.7c0.6-0.3,1.1,0.1,1.6,0c-0.7-1.3-0.1-1.9,0.4-2.5l0.2,0.1
		c0.6-0.6-0.1-2.1,0.4-3.2l1.8,0.7c0-0.7-1.2-1.5-0.6-1.8c0.3,0,0.4,0.2,0.4,0.4c-0.1-0.7,0.7-1.1,1.3-1.3c-0.9-1.4-0.1-1.8-1.1-3.2
		c1.8,0.2,0.2,1.3,1.9,1.5c1.4-0.7,1.1-2.3,0.9-3.9c0.4,0.1,0.6,0.3,0.9,0.6c0,0-0.7-1.1-1.7-2.3c-1-1.2-2.2-2.4-3.2-2.5
		c-1-0.9-1.5-1.5-3-1c0.5,0.7,0.9,2-0.5,1.6l1.2,0.6c-0.1,1.6-2.6-1.1-3.3,0.5l0.6-0.1c-0.1,0.3,0.6,1,0,1.1
		c-0.4-0.1-0.4-0.4-0.7-0.6l1,2.2c-0.7-0.3-1.1-0.5-1.5-1.1c-0.6,1.3,2.3,0.9,1.1,2.1c-0.7,0-0.7-0.5-1-0.9
		c-1.4,0.2-0.7,1.1-0.4,2.2c-1.1-0.5-0.7-1-1.7-0.7c0.6,0.2,1.6,0.6,1.5,1.1c-1-0.8-0.8,0.1-1.2,0.4c0.4,0.1,0.9,0.4,1,0.7
		c0.1,0.3-0.5,0.3-0.6,0.6l1.3,0c0.6,1.3-1.2,0.9-2,1.2c-0.2-0.2-0.3-0.3-0.3-0.5c-0.8,0.4-2,0.5-1.5,1.8l-0.1-0.1
		c0.3,2,2,0.5,2.1,2.7c-0.5,0.4-3.3-2.2-2.8-0.2c1.2-0.1,1.7,2,1.7,3l-1.6-1.9c-0.2,0.3,0.1,1.1-0.2,1.2l0.5,0.2
		c1.8,0.9-0.8,0.8,0,1.9c-2-2-1.5-1.8-3.8-3.2c1,1.2,1.9,2.5,1.1,3.3l-1.4-1.8c-1.1,1,0.7,4,1.6,5.9c-1.2-1.1-1.9-0.9-2.8-2
		l-0.4,1.3l-1.3-1.2c1.2,1.4-0.1,1.3,1.8,2.4c-0.2-0.3-0.4-0.4-0.2-0.6c0.6,0.4,1.6,1.3,1.2,1.9c-0.7,0.1-0.6-0.7-1.2-0.9
		c0.5,0.9-0.7,0.1-0.4,0.9l1,0.1c0.9,1-0.4,0.7,0,1.4c-0.2-0.8-0.9-1-1.7-1.2l0.2,0.1c-0.1,0.3,0.4,1.2-0.3,1l-1.4-1.2l0.9,1.1
		c-0.3,0-0.9-0.2-1-0.6c-1.7,0.8,3.3,2,0.8,2.9c-0.6-0.4-0.8-0.8-0.2-1.1c-0.9-0.7-1.5-0.9-2.1-0.6c-0.1,0-0.1-0.1-0.2-0.1
		C535.5,112.5,534.6,113.7,535.3,114.9z"/>
	<path fill="#FFC235" d="M536.1,111.7c0.3-0.5,0.5-0.9,0.5-1.2C536.2,110.4,535.1,111.1,536.1,111.7z"/>
	<path fill="#FFC235" d="M489,182.2c0-0.1,0-0.2,0-0.3C489,182.1,489,182.2,489,182.2z"/>
	<path fill="#FFC235" d="M486.8,186.3c0.2,0.1,0.3,0.1,0.5,0C487,186.2,486.8,186.1,486.8,186.3z"/>
	<path fill="#FFC235" d="M513.6,147.1L513.6,147.1L513.6,147.1z"/>
	<path fill="#FFC235" d="M497.9,167.9c0.2,0.7,0.5,1.1,0.9,1.4C498.8,169,498.6,168.6,497.9,167.9z"/>
	<path fill="#FFC235" d="M503.6,161.2c0-0.1-0.1-0.2-0.1-0.3C503.5,161.1,503.6,161.2,503.6,161.2z"/>
	<path fill="#FFC235" d="M513.7,145.5c0.3,0.7-0.1,1.1-0.1,1.6C513.5,146.6,514.4,146.4,513.7,145.5z"/>
	<polygon fill="#FFC235" points="485.3,192.1 484.8,191.2 485.1,191.9 	"/>
	<path fill="#FFC235" d="M487.2,188.2c0.3,0,0.2-1-0.3-1.1C487.2,187.6,487.2,187.9,487.2,188.2z"/>
	<polygon fill="#FFC235" points="497.4,175.2 496.7,174.5 497.1,175.3 	"/>
</g>
<g>
</g>
<g>
</g>
<g>
</g>
<g>
</g>
<g>
</g>
<g>
</g>
<g>
</g>
<g>
</g>
<g>
</g>
<g>
</g>
<g>
</g>
<g>
</g>
<g>
</g>
<g>
</g>
<g>
</g>
</svg>
