<?xml version="1.0" encoding="utf-8"?>
<!-- Generator: Adobe Illustrator 18.0.0, SVG Export Plug-In . SVG Version: 6.00 Build 0)  -->
<!DOCTYPE svg PUBLIC "-//W3C//DTD SVG 1.1//EN" "http://www.w3.org/Graphics/SVG/1.1/DTD/svg11.dtd">
<svg version="1.1" id="Layer_1" xmlns="http://www.w3.org/2000/svg" xmlns:xlink="http://www.w3.org/1999/xlink" x="0px" y="0px"
	 viewBox="0 0 561.5 271.8" enable-background="new 0 0 561.5 271.8" xml:space="preserve">
<g>
	<path fill="#FFFFFF" d="M491.2,234.3H70.3C31.6,234.3,0,202.7,0,164l0-93.7C0,31.6,31.6,0,70.3,0l420.9,0
		c38.7,0,70.3,31.6,70.3,70.3V164C561.5,202.7,529.9,234.3,491.2,234.3z"/>
	<g>
		<path fill="#757679" d="M81.2,70.6h-3.9v-1.4H54.1v1.4h-3.9V37.7h31V70.6z M77.4,65.6V41.3H54.1v24.3H77.4z M64,47.3
			c0.1-1.5,0.2-3,0.3-4.7h3.7c0,1.6-0.1,3.2-0.2,4.7h8.1V51h-8.6c-0.1,0.6-0.3,1.2-0.4,1.8c3.7,2.9,6.8,5.8,9.3,8.6l-2.8,2.9
			c-1.9-2.6-4.4-5.3-7.6-8.2c-1.5,3.2-4.3,6-8.3,8.2L55,61.3c3.9-2.2,6.5-5,7.7-8.1c0.2-0.7,0.4-1.4,0.6-2.2h-7.7v-3.6H64z"/>
		<path fill="#757679" d="M121.5,55.4c-0.1,7.3-0.6,11.7-1.5,13.1c-1,1.4-2.6,2.2-5,2.2c-1,0-2.3-0.1-3.7-0.2l-1-3.6
			c1.5,0.1,2.8,0.2,3.8,0.3c1.5,0,2.4-0.5,2.8-1.4c0.4-0.9,0.6-3.1,0.7-6.9H95.5c-1.7,1.7-3.6,3.2-5.6,4.5L88,59.9
			c5.3-3.6,9.3-8.4,11.9-14.6h-9.3V42H96c-0.7-1.1-1.6-2.2-2.5-3.4l3-1.9c1.3,1.6,2.3,3,3.1,4.1L97.8,42h3.2c0.5-1.8,1-3.6,1.3-5.5
			l3.8,0.5c-0.4,1.8-0.8,3.4-1.2,5h11.3l-1.3,6.6h4.4l-1.2,6.9H121.5z M98.2,61.6c-1,3.1-2.3,5.7-4,8l-3.4-2.1
			c1.8-2.1,3.1-4.3,3.9-6.6L98.2,61.6z M98.5,55.4h15.9l0.7-3.5h-14.3C100.1,53.1,99.3,54.3,98.5,55.4z M104.2,68l-3.7,0.4
			c-0.2-2.9-0.6-5.1-1.1-6.6l3.3-0.4C103.5,63,104,65.2,104.2,68z M103.9,45.4c-0.4,1.1-0.9,2.1-1.3,3.1h8.6l0.8-3.1H103.9z
			 M110.3,66.3l-3.5,1.3c-0.5-2.1-1.2-4.1-1.9-6l3-0.9C108.9,62.7,109.7,64.5,110.3,66.3z M115.9,65l-3.5,0.9
			c-0.5-1.8-1.2-3.6-2-5.2l3.1-1C114.3,61.2,115.2,63,115.9,65z"/>
		<path fill="#757679" d="M136.8,45.3v3c-1.1,1.9-2.4,3.7-3.9,5.5h4.3v2.5c-0.5,2.7-1,4.9-1.7,6.6c0.3,0.2,0.6,0.4,0.9,0.7
			c1.2,1.1,2.3,1.9,3.3,2.4c1.1,0.4,2.6,0.7,4.6,0.7c2,0,4.3,0,6.9,0c2.7,0,6.1-0.1,10.4-0.3l-0.9,3.6h-9.1c-2.5,0-5-0.1-7.5-0.1
			c-2.5-0.1-4.4-0.4-5.7-0.9c-1.6-0.6-2.9-1.6-4.2-2.9c-0.3-0.3-0.6-0.4-0.9-0.4c-0.7,0-1.9,1.6-3.4,4.8l-2.8-2.6
			c1.7-3.2,3.3-5.1,4.9-5.7c0.7-1.6,1.2-3.4,1.6-5.3h-5.2v-2.9c1.7-1.9,3.1-3.7,4.3-5.4h-4.9v-3.5H136.8z M136.7,41.8l-2.5,2.5
			c-1.3-1.6-3.2-3.4-5.7-5.3l2.6-2.4C133.3,38.3,135.2,40,136.7,41.8z M147.1,39.7c-0.4-1-0.9-1.9-1.3-2.7l4.1-0.7
			c0.4,1,0.8,2.1,1.2,3.4h9.2v3.5h-21.9v-3.5H147.1z M158.4,55.4v9.7h-18v-9.7H158.4z M157.5,45.2v3h-16.3v-3H157.5z M157.5,50.3v3
			h-16.3v-3H157.5z M154.7,58.5h-10.4V62h10.4V58.5z"/>
		<path fill="#757679" d="M174.5,70.7h-3.7V54.6c-0.8,2.7-1.8,5.1-2.9,7.3l-1.8-3.3c1.9-3.4,3.4-7.3,4.3-11.7H167v-3.6h3.7v-6.9h3.7
			v6.9h3.1v3.6h-3.1v2c1.3,1.5,2.5,3.2,3.8,5l-2.1,3.1c-0.6-1.3-1.2-2.5-1.7-3.5V70.7z M186.6,59.6V62c-1.3,3.7-3.9,6.6-8,8.5
			l-2.2-2.9c3-1.2,5.1-2.9,6.4-5H178v-3H186.6z M183.3,39.7c-0.4-1-0.9-1.9-1.3-2.8l3.8-0.6c0.4,1,0.8,2.1,1.2,3.4h4.3
			c0.4-1.1,0.8-2.3,1.1-3.4l3.7,0.5c-0.3,1-0.7,2-1.1,2.9h4.5v2.9H191v1.5h7.3v2.7H191v1.6h9.2v2.9H178v-2.9h9.3v-1.6H180v-2.7h7.3
			v-1.5h-8.7v-2.9H183.3z M184.1,67.3l2.7,0.1c0.6,0,0.9-0.4,0.9-1.1v-8.2h-7.2v-2.9h10.8v3.2c0.2,0.4,0.5,0.9,0.7,1.2
			c2-0.9,3.9-2.3,5.6-4.1l2.4,2.4c-1.8,1.8-3.8,3.2-6,4.3c1.9,1.9,4.1,3.6,6.9,5l-2.4,2.9c-3-1.9-5.4-4.1-7.3-6.6v4
			c0,2.1-1.3,3.1-3.7,3.1H185L184.1,67.3z M195.1,53.4l-1,2.5c-3.1-0.9-6.4-1.6-9.8-2l1.2-2.3C188.8,52,192,52.6,195.1,53.4z"/>
		<path fill="#757679" d="M223.4,37.6v12.7h-8.8c-0.1,1.1-0.1,2.3-0.2,3.3h10c0,6.8-0.2,11-0.6,12.6c-0.4,2.6-2.6,3.9-6.3,3.9
			c-0.6,0-1.6-0.1-3.1-0.2l-0.9-3.3c1.3,0.1,2.4,0.1,3.4,0.1c1.9,0,3-0.8,3.3-2.3c0.2-0.7,0.3-3.1,0.4-7.3h-6.6
			c-0.3,2.1-0.6,3.9-1,5.3c-1,3-2.6,5.7-4.9,8l-2.5-3.3c1.9-1.8,3.1-4,3.9-6.4c0.7-2.2,1.1-5.7,1.3-10.5h-3.1V37.6H223.4z
			 M219.6,41.2h-8.1v5.5h8.1V41.2z M231.1,39.7v22.8h-3.8V39.7H231.1z M229.4,70.3l-0.9-3.7c1.7,0.1,3.3,0.2,4.9,0.2
			c1,0,1.5-0.6,1.5-1.8V36.5h3.9v29.6c0,2.8-1.4,4.3-4,4.3H229.4z"/>
		<path fill="#757679" d="M263.6,44.8c2.1,9.7,7.4,17.2,15.9,22.3l-2.6,3.4c-6.9-4.7-11.8-10.9-14.7-18.7
			c-2.4,7.6-7.5,13.8-15.2,18.8l-2.4-3.5c9.9-5.9,15-14.2,15.3-24.9c0-2.5,0-4.4,0-5.8h3.9C263.9,39.7,263.8,42.5,263.6,44.8z"/>
		<path fill="#757679" d="M303.7,37.6v3.6h-9.2c-1.5,3-2.8,5.3-4,7c2.7-0.3,5.3-0.6,8-1.1c-0.7-1-1.4-2.1-2.1-3.2l3-1.9
			c2.4,3.2,4.3,6,5.6,8.4l-3.2,2.2c-0.4-0.9-0.9-1.8-1.4-2.7c-4.6,0.8-9.7,1.5-15.1,2l-0.9-3.4c0.7-0.1,1.1-0.2,1.5-0.4
			c1-0.9,2.6-3.2,4.5-7H285v-3.6H303.7z M303.9,67.2c-5.8,1.2-12,2.2-18.6,3l-0.9-3.7c2.9-0.3,5.7-0.6,8.4-1v-5.8h-6.7V56h6.7v-3.7
			h3.9V56h6.1v3.7h-6.1v5.1c2.4-0.4,4.8-1,7.2-1.5V67.2z M309.9,39.8v22.6h-3.7V39.8H309.9z M307.8,70.3l-0.9-3.7
			c1.8,0.1,3.4,0.2,5,0.2c0.9,0,1.3-0.5,1.3-1.4V36.5h3.9v29.9c0,2.6-1.3,3.9-3.9,3.9H307.8z"/>
		<path fill="#757679" d="M349.3,36.5v6.6h7.3c0,12.5-0.2,20.2-0.5,23.1c-0.4,2.7-2,4.1-5,4.1c-0.7,0-1.9-0.1-3.6-0.2l-0.9-3.4
			c1.5,0.1,2.8,0.1,3.9,0.1c1.2,0,1.9-0.8,2.1-2.4c0.2-1.7,0.3-7.7,0.4-17.9h-3.7v1.2c-0.1,10.3-2.3,17.9-6.7,22.7l-2.1-1.8
			c-4.9,0.6-10.5,1.1-16.7,1.4l-0.5-3.4c2.7-0.1,5.1-0.3,7.5-0.4V64h-6.3v-3.1h6.3v-1.8h-6.4v-12h6.4v-1.6h-7.1v-3.2h7.1v-1.6
			c-1.9,0.1-3.9,0.1-6,0.1l-1-3c6.2,0,11.4-0.5,15.7-1.5l1.7,2.9c-2,0.5-4.3,0.9-6.8,1.1v1.9h7v3.2h-7v1.6h6.4v12h-6.4v1.8h6.3V64
			h-6.3v2c2.2-0.2,4.3-0.4,6.3-0.7V67c3.2-4.3,4.9-10.6,4.9-19.1v-1.2h-3.2v-3.5h3.2v-6.6H349.3z M331.1,51.9v-2H328v2H331.1z
			 M331.1,54.4H328v1.9h3.1V54.4z M334.3,51.9h3.2v-2h-3.2V51.9z M337.5,54.4h-3.2v1.9h3.2V54.4z"/>
		<path fill="#757679" d="M365.9,52.5l-3.4-1c1-3.9,1.6-8,1.7-12.3l3.4,0.3c-0.1,1.4-0.1,2.8-0.3,4.2h1.6v-7.3h3.8v7.3h2.5v3.7h-2.5
			v7.4c0.8-0.4,1.6-0.7,2.4-1.1v3.6c-0.8,0.4-1.6,0.7-2.4,1.1v12.2H369V60c-1.7,0.6-3.4,1.2-5.1,1.7l-0.9-3.7c2-0.4,4-1,6-1.6v-8.9
			h-2C366.6,49.2,366.3,50.9,365.9,52.5z M383,37.2c-0.4,1.7-0.7,3.2-1.1,4.7h14c0,12.9-0.2,20.8-0.6,23.8c-0.4,3.2-2.6,4.8-6.3,4.8
			c-0.5,0-1.5-0.1-2.8-0.2l-0.9-3.4c1.2,0.1,2.2,0.2,3.1,0.2c2,0,3.1-1,3.4-3.1c0.2-1.7,0.3-7.9,0.4-18.3h-1.3
			c-0.8,5.9-1.9,10.7-3.3,14.1c-1.7,3.9-4.3,7.5-7.6,10.6l-2.4-3.1c3-2.7,5.3-5.8,6.8-9.2c1.3-3.1,2.3-7.3,3-12.5h-1.9
			c-1.6,7.9-4.3,13.6-8.4,17.3l-2.5-2.9c3.6-3,6-7.8,7.4-14.4h-1.6c-0.9,2.2-2,4-3.2,5.5l-2.8-2.4c2.3-2.9,3.9-7.1,4.9-12.5
			L383,37.2z"/>
		<path fill="#757679" d="M434.7,70.7H431v-1.3h-23.7v1.3h-3.7V37.5h31.1V70.7z M414.2,65.9l-0.9-2.3c0.6-0.2,0.9-0.6,0.9-1.1v-1
			c-1.3,0.7-2.8,1.3-4.4,1.9l-1.7-2.9c3.3-0.8,5.8-1.7,7.4-2.7h-4.7v-6.6h16.9v6.2c0,0,0.1-0.1,0.1-0.1l2.3,1.8
			c-1,0.7-2.1,1.3-3.1,1.8c1.1,0.6,2.1,1.1,3.2,1.8l-1.8,2.7c-2.9-2.1-5.9-3.7-9-4.9l1.6-2.3c1.1,0.4,2.2,0.8,3.2,1.3
			c1.1-0.6,2.1-1.2,3-1.8h-7.9c-0.6,0.6-1.2,1.2-1.9,1.8v3.2c1.3-0.3,2.5-0.6,3.7-1l0.6,2.6c-2.1,0.6-4.2,1-6.3,1.4H431V41h-23.7
			v24.9H414.2z M417.4,43.2v-1.4h3.5v1.4h7.1V46h-7.1v1.4h9v2.8h-21.3v-2.8h8.9V46h-7.1v-2.7H417.4z M424.4,53.8h-10.6v1.6h10.6
			V53.8z"/>
		<path fill="#757679" d="M455.8,70.4l-0.9-3.7c1.9,0.1,3.7,0.2,5.4,0.2c0.9,0,1.3-0.6,1.3-1.6V46.5h-0.4
			c-3.6,7.6-9.7,13.8-18.2,18.7l-2-3.3c7.4-4,12.9-9.1,16.3-15.4h-15.5v-3.7h19.9v-6.3h3.9v6.3h8.9v3.7h-8.9v19.7
			c0,2.7-1.3,4.1-3.9,4.1H455.8z"/>
		<path fill="#757679" d="M482.4,47.9l-2.1-3.3c6-2.4,11.3-5.1,16.1-8.2h2.3c4.8,3.1,10.2,5.9,16.1,8.2l-2.1,3.2
			c-0.7-0.3-1.3-0.6-1.8-0.9v9.8h-26.8V47C483.7,47.3,483,47.6,482.4,47.9z M505.1,44v1.3h-14.9v-1.2c-1.6,0.9-3.3,1.7-5.1,2.5h25.2
			C508.4,45.7,506.7,44.9,505.1,44z M509.7,70.7H506v-1.1h-16.6v1.1h-3.7V58.1h24V70.7z M495.9,49.5h-8.1V54h8.1V49.5z M506,62.4
			v-1.5h-16.6v1.5H506z M506,66.6V65h-16.6v1.6H506z M494,53.1l-2.5,0.7c-0.5-1.2-1.1-2.3-1.8-3.4l2.6-0.8
			C492.9,50.6,493.4,51.8,494,53.1z M497.7,39.7c-1.4,1-3,1.9-4.6,2.9h9.3C500.6,41.5,499.1,40.6,497.7,39.7z M507.5,49.5h-8.1V54
			h8.1V49.5z M505.6,50.3c-0.5,1.3-1.1,2.5-1.7,3.5l-2.5-0.9c0.6-0.9,1.1-2,1.6-3.3L505.6,50.3z"/>
		<path fill="#757679" d="M58.8,112.7h-3.9v-8.4c-1.4,2.4-3.1,4.7-5,6.7l-1.4-3.7c2.6-2.2,4.7-4.8,6.3-7.7h-5.5v-3.6h5.7v-3.7h3.9
			v3.7h4.4v3.6h-4.4v1.1c1.8,1.1,3.6,2.4,5.5,3.9l-2.2,3.3c-1.3-1.5-2.4-2.8-3.3-3.7V112.7z M55.8,115.3c-0.9,3.6-2.1,6.7-3.7,9.3
			l-3.3-2.1c1.5-2.5,2.6-5.2,3.2-8L55.8,115.3z M61.5,125.4c-2.8,0-4.2-1.4-4.2-4.3v-7h3.9v6.2c0,0.9,0.5,1.3,1.4,1.3h7.7
			c0.5,0,0.9-0.2,1.2-0.6c0.3-0.4,0.5-1.6,0.6-3.5l3.7,1.3c-0.3,3.2-0.8,5.1-1.6,5.7c-0.7,0.6-1.8,0.9-3.2,0.9H61.5z M70,117.8
			l-3.1,2.1c-1-1.5-2.2-3.1-3.8-4.9l3-1.9C67.8,115,69.1,116.6,70,117.8z M80.4,93.1v19.4H65V93.1H80.4z M76.6,98.6v-2.1h-7.9v2.1
			H76.6z M76.6,103.8v-2.1h-7.9v2.1H76.6z M76.6,106.9h-7.9v2.2h7.9V106.9z M83.2,121.4l-3.3,2.3c-1.3-2.5-3.1-5.3-5.4-8.4l3.1-2
			C80,116.4,81.9,119.1,83.2,121.4z"/>
		<path fill="#757679" d="M102.4,98.4l0.7-1.6c-3.4,0.1-7.1,0.3-11.1,0.3l-1-3.1c10.4,0,19.2-0.7,26.4-2.1l1.8,3
			c-3.6,0.7-7.7,1.3-12.4,1.7c-0.2,0.6-0.4,1.2-0.7,1.8h13.2v3.3h-14.7c-0.3,0.5-0.6,1.1-0.9,1.6h17.7v3.4h-20
			c-0.4,0.6-0.9,1.1-1.3,1.6h17.9v18.1h-3.7v-1.4H98.7v1.4H95v-12.9c-1.6,1.4-3.3,2.7-5.1,3.9l-2.1-3.3c3.5-2.4,6.4-4.8,8.9-7.4
			h-7.9v-3.4h10.7c0.4-0.5,0.7-1.1,1.1-1.6h-9.8v-3.3H102.4z M114.4,111.3H98.7v1.6h15.7V111.3z M98.7,117.3h15.7v-1.5H98.7V117.3z
			 M98.7,121.8h15.7v-1.7H98.7V121.8z"/>
		<path fill="#757679" d="M144.7,112.7c-2,0.7-4,1.3-6.1,1.8v7.5c0,2.4-1.3,3.7-3.9,3.7h-4.2l-0.9-3.7c1.3,0.1,2.5,0.2,3.7,0.2
			c0.9,0,1.3-0.4,1.3-1.3v-5.6c-2.1,0.4-4.3,0.9-6.6,1.2l-0.6-3.9c2.5-0.4,4.9-0.8,7.2-1.3v-6.4h-7.2v-3.7h7.2V98
			c-1.8,0.4-3.6,0.7-5.5,0.9l-0.8-3.7c5.1-0.6,9.7-1.6,13.7-3.3l1.3,3.6c-1.5,0.6-3.1,1-4.8,1.5v4.3h7.6c-0.2-2.9-0.3-6-0.3-9.4h3.9
			c0,3.6,0.1,6.7,0.4,9.4h11.1v3.7h-10.8c0.2,2.4,0.6,4.4,1,5.9c0.1,0.6,0.3,1.1,0.4,1.6c1.5-1.9,2.9-4,4-6.3l3.3,1.8
			c-1.6,3.3-3.6,6.3-5.9,8.7c0.4,0.9,0.8,1.7,1.2,2.3c1,1.6,1.9,2.4,2.4,2.4c0.4,0,0.8-1.9,1.3-5.6l3.4,1.8c-1,5.3-2.3,8-4.1,8
			c-1.6,0-3.3-1.1-5.1-3.3c-0.7-0.9-1.3-1.8-1.9-2.9c-2.5,2.1-5.3,3.7-8.4,4.9l-2.1-3.3c3.4-1.3,6.4-3,9-5.3
			c-0.4-1.2-0.8-2.4-1.1-3.7c-0.6-2-1-4.3-1.3-7h-7.9v5.5c2.1-0.6,4.2-1.1,6.1-1.8V112.7z M160.5,97.2l-2.8,2.8
			c-1.5-1.6-3.7-3.3-6.5-5.2l2.6-2.5C156.4,94,158.6,95.6,160.5,97.2z"/>
		<path fill="#757679" d="M175.9,121.9h-3.2v-2.2h-2v3h-3.2V94.3h8.4V121.9z M172.7,116.6V97.4h-2v19.2H172.7z M186.5,93.1v2.6
			c-0.6,3.3-1.3,6.7-2.1,10.3c1.3,3.3,2,6.1,2.1,8.6c0,1.9-0.3,3.1-0.8,3.9c-0.8,1-2.1,1.5-4.1,1.5l-1-3v9.1h-3.2v-33H186.5z
			 M182.4,116.8c0.3-0.1,0.5-0.3,0.7-0.6c0.1-0.3,0.1-0.9,0.1-1.6c0-2.4-0.7-5.1-2.1-8c0.9-3.9,1.6-7.3,2.1-10.4h-2.6v20.4
			C181.4,116.8,182,116.8,182.4,116.8z M194.8,100.2v16.7h-7.4v-16.7H194.8z M200.8,93.3v3.6h-1.3v25.4c0,2.4-1.3,3.7-3.9,3.7h-3.9
			l-0.7-3.2c1.2,0.1,2.4,0.2,3.5,0.2c1.1,0,1.7-0.5,1.7-1.4V96.8h-8.4v-3.6H200.8z M192,102.8h-1.9v11.5h1.9V102.8z"/>
		<path fill="#757679" d="M226,108c0,3.6-1.7,6.4-5.1,8.2l-1.3-2.1c2.2-1.4,3.4-3.1,3.6-5.1c-0.2,0-0.4,0.1-0.7,0.1
			c-0.8,0-1.5-0.3-2-0.8c-0.6-0.5-0.8-1.2-0.8-2c0-0.9,0.3-1.5,0.8-2c0.6-0.5,1.2-0.8,2-0.8C224.8,103.5,226,105,226,108z"/>
		<path fill="#757679" d="M249.9,106l-3.7-2.3c2.7-3.5,4.6-7.1,5.7-11l3.9,0.8c-0.4,1.3-0.8,2.6-1.2,3.7h6v-5.1h3.9v5.1h11.8v3.7
			h-11.8v5.8h14.3v3.7H269v9.3c0,1.4,0.5,2.1,1.5,2.1h3.1c0.3,0,0.7-0.2,1-0.6c0.3-0.4,0.5-2.3,0.6-5.5l3.7,1.2
			c-0.4,4.3-0.9,6.8-1.5,7.5c-0.7,0.7-1.7,1.1-2.9,1.2h-5.2c-2.9,0-4.4-1.7-4.4-5.2v-10h-5.8c-0.4,4.1-1.3,7.2-2.7,9.2
			c-1.7,2.5-4.6,4.7-8.7,6.6l-2.7-3.5c3.6-1.4,6.2-3.1,7.8-5.1c1.2-1.6,2-4,2.4-7.2h-9.7v-3.7h14.8v-5.8h-7.6
			C252,102.7,251,104.4,249.9,106z"/>
		<path fill="#757679" d="M301.9,93.2v12.7h-8.8c-0.1,1.1-0.1,2.3-0.2,3.3h10c0,6.8-0.2,11-0.6,12.6c-0.4,2.6-2.6,3.9-6.3,3.9
			c-0.6,0-1.6-0.1-3.1-0.2l-0.9-3.3c1.3,0.1,2.4,0.1,3.4,0.1c1.9,0,3-0.8,3.3-2.3c0.2-0.7,0.3-3.1,0.4-7.3h-6.6
			c-0.3,2.1-0.6,3.9-1,5.3c-1,3-2.6,5.7-4.9,8l-2.5-3.3c1.9-1.8,3.1-4,3.9-6.4c0.7-2.2,1.1-5.7,1.3-10.5h-3.1V93.2H301.9z
			 M298.1,96.8H290v5.5h8.1V96.8z M309.6,95.2V118h-3.8V95.2H309.6z M307.9,125.9l-0.9-3.7c1.7,0.1,3.3,0.2,4.9,0.2
			c1,0,1.5-0.6,1.5-1.8V92.1h3.9v29.6c0,2.8-1.4,4.3-4,4.3H307.9z"/>
		<path fill="#757679" d="M327.2,101.3l-3.4-2.1c2.1-2.3,3.6-4.8,4.5-7.4l3.7,0.8c-0.2,0.6-0.4,1.1-0.6,1.7h9.1v3.4h-5.3
			c0.6,0.9,1.1,1.7,1.5,2.4l-3.5,1.4c-0.6-1.3-1.3-2.6-2.1-3.8h-1.4C329,99,328.2,100.2,327.2,101.3z M356.6,109h-3.8v-4h-24.4v4
			h-3.8v-7.3h14.2c-0.3-0.7-0.6-1.3-0.9-1.8l3.3-0.6l-0.7-0.5c1.7-2.2,2.9-4.6,3.7-7.1l3.7,0.8c-0.2,0.6-0.4,1.1-0.6,1.6h10.2v3.4
			h-5.9c0.5,0.7,1,1.5,1.3,2.1l-3.4,1.3c-0.6-1.2-1.3-2.3-2-3.4h-1.7c-0.6,1.2-1.3,2.3-2.1,3.3l-1.7-1.1c0.2,0.6,0.5,1.2,0.7,1.9
			h13.9V109z M351.5,114.4h-17.9v1.7h19.6v10.1h-3.8V125h-15.8v1.2h-3.9v-19.7h21.7V114.4z M347.7,111.4v-1.9h-14.1v1.9H347.7z
			 M349.4,121.6v-2.4h-15.8v2.4H349.4z"/>
		<path fill="#757679" d="M366.2,126.4l-3-2.7c2.7-3.1,4.1-7.1,4.1-12v-7.9c-0.7,0.5-1.4,0.9-2,1.4l-2.4-3c4.3-2.4,8-6,11.1-10.5
			l3.9,0.9c-0.4,0.7-0.9,1.3-1.4,2h13.2v2.8c-1.2,1.3-2.3,2.4-3.5,3.4h8v22c0,2.2-1.3,3.3-3.7,3.3h-5l-1-3.6
			c1.7,0.1,3.3,0.2,4.8,0.2c0.7,0,1-0.4,1-1.3V118h-20C369.6,121.2,368.2,124,366.2,126.4z M371.2,111.4c0,1.1-0.1,2.1-0.2,3.1h7.7
			v-3.4h-7.5V111.4z M380.8,100.8c1.2-0.9,2.4-1.8,3.7-2.9h-10.6c-0.9,1-1.9,2-2.8,2.9H380.8z M371.2,104.3v3.5h7.5v-3.5H371.2z
			 M390.4,104.3h-7.9v3.5h7.9V104.3z M390.4,111.1h-7.9v3.4h7.9V111.1z"/>
		<path fill="#757679" d="M427.8,97.5h-23.4v-3.7h28.7v3.7c-3.4,3-7.2,6-11.5,8.7v15.7c0,2.7-1.4,4.1-4,4.1c-2.3,0-4.2-0.1-5.9-0.3
			l-1-3.7c1.8,0.2,3.8,0.4,5.9,0.4c0.8,0,1.2-0.4,1.2-1.2v-16.9C421.2,102.2,424.6,100,427.8,97.5z"/>
		<path fill="#757679" d="M460.5,117.6c0.5,0.5,0.8,1.2,0.8,2c0,0.8-0.3,1.5-0.8,2c-0.6,0.5-1.3,0.8-2.1,0.8s-1.5-0.3-2-0.8
			c-0.6-0.5-0.9-1.2-0.9-2c0-0.8,0.3-1.5,0.9-2c0.5-0.5,1.2-0.8,2-0.8S459.9,117,460.5,117.6z M460.9,95.9l-0.9,18.9h-3.1l-0.9-18.9
			H460.9z"/>
		<path fill="#757679" d="M498.1,112.7c-2,0.7-4,1.3-6.1,1.8v7.5c0,2.4-1.3,3.7-3.9,3.7h-4.2l-0.9-3.7c1.3,0.1,2.5,0.2,3.7,0.2
			c0.9,0,1.3-0.4,1.3-1.3v-5.6c-2.1,0.4-4.3,0.9-6.6,1.2l-0.6-3.9c2.5-0.4,4.9-0.8,7.2-1.3v-6.4h-7.2v-3.7h7.2V98
			c-1.8,0.4-3.6,0.7-5.5,0.9l-0.8-3.7c5.1-0.6,9.7-1.6,13.7-3.3l1.3,3.6c-1.5,0.6-3.1,1-4.8,1.5v4.3h7.6c-0.2-2.9-0.3-6-0.3-9.4h3.9
			c0,3.6,0.1,6.7,0.4,9.4h11.1v3.7h-10.8c0.2,2.4,0.6,4.4,1,5.9c0.1,0.6,0.3,1.1,0.4,1.6c1.5-1.9,2.9-4,4-6.3l3.3,1.8
			c-1.6,3.3-3.6,6.3-5.9,8.7c0.4,0.9,0.8,1.7,1.2,2.3c1,1.6,1.9,2.4,2.4,2.4c0.4,0,0.8-1.9,1.3-5.6l3.4,1.8c-1,5.3-2.3,8-4.1,8
			c-1.6,0-3.3-1.1-5.1-3.3c-0.7-0.9-1.3-1.8-1.9-2.9c-2.5,2.1-5.3,3.7-8.4,4.9l-2.1-3.3c3.4-1.3,6.4-3,9-5.3
			c-0.4-1.2-0.8-2.4-1.1-3.7c-0.6-2-1-4.3-1.3-7h-7.9v5.5c2.1-0.6,4.2-1.1,6.1-1.8V112.7z M513.8,97.2l-2.8,2.8
			c-1.5-1.6-3.7-3.3-6.5-5.2l2.6-2.5C509.8,94,512,95.6,513.8,97.2z"/>
		<path fill="#757679" d="M49.6,166.6l-1.3-4.3c3-4.3,5.2-9.3,6.7-15.1l3.5,1.6c-0.6,2.2-1.3,4.3-2.1,6.3v26.4h-3.7v-19.3
			C51.7,163.8,50.7,165.2,49.6,166.6z M69.4,164H63v17.7h-3.7v-33h10.2V164z M65.8,151.9H63v2.8h2.8V151.9z M63,160.7h2.8v-2.9H63
			V160.7z M71.3,164v-15.3h10.4v29.3c0,2.3-1.1,3.5-3.3,3.5c-1.5,0-2.9,0-4.3-0.1l-1-3.5c1.4,0.1,2.8,0.1,4,0.1c0.6,0,1-0.4,1-1.2
			V164H71.3z M78.2,152H75v2.7h3.1V152z M75,160.7h3.1v-3H75V160.7z"/>
		<path fill="#757679" d="M102.7,154.9H89.5v-3.7h13.2v-3.5h3.9v3.5h13.2v3.7h-13.2v9.7c3.7,5,8.8,9,15.2,11.9l-2.1,3.6
			c-5-2.5-9.4-5.8-13.1-10v11.6h-3.9v-11.6c-3.4,4-7.7,7.4-13,10.1l-2-3.5c6.4-3.1,11.4-7.1,15-11.9V154.9z M91.2,168.4l-2.4-2.9
			c3-2.4,4.9-5.7,6-9.9l3.6,0.6c-0.4,1.8-1,3.4-1.7,4.9c1.6,0.8,3.1,1.8,4.5,2.9l-2.1,3.2c-1.4-1.2-2.7-2.2-4.1-3
			C93.9,165.8,92.6,167.2,91.2,168.4z M110.8,167.3l-2.4-3c2.4-2.1,4-5,4.9-8.6l3.6,0.6c-0.4,1.6-0.9,3.1-1.4,4.6
			c1.9,1,3.6,2.1,5.2,3.5l-2.1,3.3c-1.6-1.5-3.1-2.7-4.7-3.7C112.8,165.2,111.9,166.4,110.8,167.3z"/>
		<path fill="#757679" d="M139.6,148.7v3.6h-1.3v29.4h-3.4v-6.6c-2.5,1-5.1,2-7.8,2.7l-0.9-3.6c0.7-0.1,1.4-0.3,2.1-0.5v-21.6h-1.6
			v-3.6H139.6z M134.9,156.6v-4.4h-3.1v4.4H134.9z M134.9,164.3v-4.2h-3.1v4.2H134.9z M134.9,171.4v-3.6h-3.1v4.9
			C132.9,172.3,133.9,171.8,134.9,171.4z M149,154.3v12.3c-0.1,4.2-0.8,7.5-2.1,10c-1.3,2.3-3.3,4.1-6.1,5.4L139,179
			c2.6-1.3,4.4-2.8,5.3-4.7c0.5-1.2,0.9-2.6,1.2-4.1c-1.6,0.9-3.3,1.8-5.1,2.7l-1-3.3c0.7-0.4,1-1.2,1-2.4v-16.3
			c3-1,5.4-2.2,7.2-3.5l2,2.9c-1.4,1.1-3.4,2.1-5.8,3v14.3c0.7-0.4,1.4-0.7,2.1-1.1v-12.2H149z M154.8,175.7L154,173v8.6h-3.3v-32h9
			v21.8c0,2.9-1,4.3-3.1,4.3H154.8z M155.4,172.4c0.7,0,1-0.6,1-1.7V153H154v19.3L155.4,172.4z"/>
		<path fill="#757679" d="M178.5,148.7v3.6h-1.3v29.4h-3.4v-6.6c-2.5,1-5.1,2-7.8,2.7l-0.9-3.6c0.7-0.1,1.4-0.3,2.1-0.5v-21.6h-1.6
			v-3.6H178.5z M173.8,156.6v-4.4h-3.1v4.4H173.8z M173.8,164.3v-4.2h-3.1v4.2H173.8z M173.8,171.4v-3.6h-3.1v4.9
			C171.8,172.3,172.8,171.8,173.8,171.4z M187.9,154.3v12.3c-0.1,4.2-0.8,7.5-2.1,10c-1.3,2.3-3.3,4.1-6.1,5.4l-1.9-2.9
			c2.6-1.3,4.4-2.8,5.3-4.7c0.5-1.2,0.9-2.6,1.2-4.1c-1.6,0.9-3.3,1.8-5.1,2.7l-1-3.3c0.7-0.4,1-1.2,1-2.4v-16.3
			c3-1,5.4-2.2,7.2-3.5l2,2.9c-1.4,1.1-3.4,2.1-5.8,3v14.3c0.7-0.4,1.4-0.7,2.1-1.1v-12.2H187.9z M193.7,175.7l-0.7-2.7v8.6h-3.3
			v-32h9v21.8c0,2.9-1,4.3-3.1,4.3H193.7z M194.3,172.4c0.7,0,1-0.6,1-1.7V153h-2.4v19.3L194.3,172.4z"/>
		<path fill="#757679" d="M219.8,150.4c0.1-1.1,0.3-2.2,0.4-3.3l3.9,0.6l-0.3,2.7H238v3.6h-14.8c-0.2,1-0.4,1.9-0.6,2.9h13.7v20.4
			c0,2.8-1.3,4.2-3.9,4.2h-3.4l-1-3.7l3.2,0.1c0.9,0,1.3-0.5,1.3-1.5v-15.9h-22.1v21.2h-3.8v-24.9h12c0.2-1,0.4-1.9,0.6-2.9h-14.4
			v-3.6H219.8z M219.8,165.3h3.1c0.7-1.4,1.4-2.8,1.9-4.4l3.5,1.3c-0.5,1.1-1.1,2.2-1.7,3.1h3.4v3.4h-6.8v2.8h7.8v3.4h-7.8v6.4h-3.8
			v-6.4h-7.7v-3.4h7.7v-2.8h-6.7v-3.4h3.3c-0.5-1.1-1.1-2.1-1.7-3l3.4-1.3C218.5,162.2,219.2,163.6,219.8,165.3z"/>
		<path fill="#757679" d="M253.9,153v-5.5h3.9v18.2c-0.1,7.3-2.1,12.7-6.1,16.1l-3-2.6c2-1.7,3.4-3.9,4.3-6.7
			c-2.9,0.7-5.8,1.3-8.9,1.8l-1-3.9c3.6-0.3,7.2-0.9,10.7-1.7c0.1-1,0.2-2,0.2-3.1V165h-9v-3.7h9v-4.6h-9.9V153H253.9z M266.5,147.5
			v5.5h9.8v3.7h-9.8v4.6h9v3.7h-9v4.8h10.4v3.7h-10.4v8.4h-3.9v-34.3H266.5z"/>
		<path fill="#757679" d="M305.9,179.6l-1-3.6l2.8,0.2c0.8,0,1.3-0.5,1.3-1.4v-2.9h-8v9.9h-3.9v-9.9h-8v7.3h-3.8v-10.7h11.8v-2.1
			h-1.8l-0.8-2.9l1.7,0.1c0.5,0,0.8-0.3,0.8-1v-1l-2.3,0.6c-0.3-1.8-0.7-3.5-1.1-5.1l2.1-0.7c0.6,1.5,1,3.2,1.4,5v-5.9h-3.7v10.4
			h-2.9v-10.4h-3.9v10.9h-3.1v-13.9h3c-0.7-1.3-1.4-2.4-2.1-3.4l2.7-1.3c0.7,1.1,1.5,2.3,2.2,3.7l-1.9,1h3v-4.9h3.2v4.9h3l-1.9-1
			c0.9-1.3,1.6-2.5,2.1-3.7l2.8,1.4c-0.6,1.1-1.2,2.2-2,3.3h2.6v3.6c2.2-2.4,3.7-5.1,4.4-8.4l3.5,0.4c-0.3,1-0.6,2-0.9,2.9h8v3.3
			h-1.4c-0.8,2.7-1.9,4.9-3.2,6.7c1.6,1.1,3.5,2.1,5.6,3l-1.8,3.1c-2.3-1.1-4.4-2.3-6.1-3.6c-1.7,1.5-3.7,2.6-5.9,3.3l-1.8-2.9
			c2-0.6,3.7-1.5,5.1-2.6c-0.8-0.8-1.5-1.6-2.1-2.4l1.6-2.5c0.8,1,1.7,1.9,2.7,2.7c1-1.4,1.8-3,2.4-4.8h-4.6c-1,1.7-2.2,3.3-3.7,4.8
			l-1.9-2.4v6.8c0,1.4-0.5,2.4-1.5,2.8h2.4v2.4h11.8v7.2c0,2.6-1.3,3.9-3.8,3.9H305.9z M290.1,157.1c-0.1,2.4-0.4,4.6-0.9,6.4
			l-2.4-0.8c0.6-1.7,0.9-3.7,1.1-5.9L290.1,157.1z"/>
	</g>
	<linearGradient id="SVGID_1_" gradientUnits="userSpaceOnUse" x1="49.2591" y1="75.3848" x2="516.179" y2="75.3848">
		<stop  offset="0" style="stop-color:#B3B5B8"/>
		<stop  offset="1" style="stop-color:#A9ABAE"/>
	</linearGradient>
	<path fill="url(#SVGID_1_)" d="M49.3,74.2c155.7-1.3,311.4,0.4,466.8,5.1c-0.1,0,0.1-2.3,0-2.3C360.7,72.3,205,70.6,49.3,71.9
		C49.2,71.9,49.3,74.2,49.3,74.2L49.3,74.2z"/>
	<linearGradient id="SVGID_2_" gradientUnits="userSpaceOnUse" x1="52.3072" y1="127.452" x2="505.2164" y2="127.452">
		<stop  offset="0" style="stop-color:#B3B5B8"/>
		<stop  offset="1" style="stop-color:#A9ABAE"/>
	</linearGradient>
	<path fill="url(#SVGID_2_)" d="M52.4,126.8c150.7,3.6,301.8,4.6,452.8,2.8c0.1,0,0-2.3,0-2.3c-151,1.8-302.1,0.8-452.8-2.8
		C52.5,124.4,52.2,126.8,52.4,126.8L52.4,126.8z"/>
	<linearGradient id="SVGID_3_" gradientUnits="userSpaceOnUse" x1="49.2591" y1="190.6426" x2="332.0452" y2="190.6426">
		<stop  offset="0" style="stop-color:#B3B5B8"/>
		<stop  offset="1" style="stop-color:#A9ABAE"/>
	</linearGradient>
	<path fill="url(#SVGID_3_)" d="M49.3,189.5c94.3-1.3,188.6,0.4,282.7,5.1c0,0,0.1-2.3,0-2.3c-94.1-4.7-188.4-6.3-282.7-5.1
		C49.2,187.2,49.3,189.5,49.3,189.5L49.3,189.5z"/>
	<path fill="#FFFFFF" d="M296.2,224.9c0,0-27.1,40.4-69.1,47c0,0,19.3-19.4,11.8-57.4L296.2,224.9z"/>
</g>
<g>
</g>
<g>
</g>
<g>
</g>
<g>
</g>
<g>
</g>
<g>
</g>
<g>
</g>
<g>
</g>
<g>
</g>
<g>
</g>
<g>
</g>
<g>
</g>
<g>
</g>
<g>
</g>
<g>
</g>
</svg>
