<?xml version="1.0" encoding="utf-8"?>
<!-- Generator: Adobe Illustrator 18.0.0, SVG Export Plug-In . SVG Version: 6.00 Build 0)  -->
<!DOCTYPE svg PUBLIC "-//W3C//DTD SVG 1.1//EN" "http://www.w3.org/Graphics/SVG/1.1/DTD/svg11.dtd">
<svg version="1.1" id="Layer_1" xmlns="http://www.w3.org/2000/svg" xmlns:xlink="http://www.w3.org/1999/xlink" x="0px" y="0px"
	 viewBox="0 0 137.1 312.8" enable-background="new 0 0 137.1 312.8" xml:space="preserve">
<g>
	<g>
		<path fill="#568986" d="M28.3,312.8C207.1,193.9,111.6,0,111.6,0S-67.7,120.7,28.3,312.8z"/>
	</g>
	<path fill="#568986" d="M88.5,67.8c-2.6,6.7-5,13.5-7.4,20.3c-0.1,0-0.1,0.1-0.1,0.1c0,0,0,0,0,0.1c-1.3,3.8-2.6,7.5-3.9,11.3
		c-11.3-4.1-22.5,0.4-32.6,6.7c1.9-1.2,4-2,6.1-3c0.2,0,0.4-0.1,0.8-0.1c1-0.2,2-0.5,3-0.7c2.2-0.4,4.5-0.5,6.8-0.4
		c4.4,0.3,8.4,1.7,12.2,3.9c0.4,0.2,1.1,0,1.9-0.5c-3.1,9.4-6,18.9-8.7,28.4c-0.1,0-0.1,0-0.1,0c0,0,0.1,0.1,0.1,0.1
		c-1.1,3.7-2.1,7.4-3.1,11.1c-12.2-2.7-27.3,4.7-33,15.5c1.1-2.2,7.1-2,8.3-4.3c1.2-2.4,3.1-4.1,4.5-6.3c0.7-0.5,1.2-0.9,1.4-1.1
		c0.7-0.2,1.3-0.3,2-0.4c4.8-0.7,9.3,0.4,13.5,2.6c0.4,0.2,1,0,1.7-0.4c-2.4,8.9-4.5,17.9-6.6,26.8c-0.1,0-0.3,0-0.3,0
		c0.1,0.1,0.2,0.2,0.3,0.3c-0.5,2.2-1,4.4-1.5,6.6c-0.4,0.3-0.8,0.5-1.1,0.9c-10.9,14.1-20.8,28.8-29.7,44.2c1.3-2.2,7-2,8.3-4.3
		c6.3-11,13.2-21.6,20.5-31.9c-4.6,21.9-8.2,43.9-11,66.1c0.2-1.7,8.1-2.5,8.3-4.3c2.9-23.6,6.9-47,11.8-70.2
		c7.1,11.7,9.6,28.2,13.3,40.2c-0.1-0.5,8.5-3.7,8.3-4.3c-4.5-14.9-7.3-36.4-19.1-47.5c2.5-10.7,5.1-21.4,8-32
		c8.5,13.6,15.3,28.4,20,43.6c-0.1-0.5,8.5-3.7,8.3-4.3c-5.6-18.1-14.2-35.7-25-51.2c3.2-11,6.6-22,10.2-32.9c4.2,9,8.4,18,12.6,27
		c0,0,8.4-4.1,8.3-4.3c-5.5-11.8-11.1-23.7-16.6-35.5c2.4-6.8,4.9-13.7,7.5-20.4C96,65.7,89.4,65.6,88.5,67.8z M52.5,102.2
		c0.1-0.1,0.2-0.1,0.3-0.2C52.7,102.1,52.6,102.2,52.5,102.2z"/>
</g>
<g>
</g>
<g>
</g>
<g>
</g>
<g>
</g>
<g>
</g>
<g>
</g>
<g>
</g>
<g>
</g>
<g>
</g>
<g>
</g>
<g>
</g>
<g>
</g>
<g>
</g>
<g>
</g>
<g>
</g>
</svg>
