<?xml version="1.0" encoding="utf-8"?>
<!-- Generator: Adobe Illustrator 18.0.0, SVG Export Plug-In . SVG Version: 6.00 Build 0)  -->
<!DOCTYPE svg PUBLIC "-//W3C//DTD SVG 1.1//EN" "http://www.w3.org/Graphics/SVG/1.1/DTD/svg11.dtd">
<svg version="1.1" id="Layer_1" xmlns="http://www.w3.org/2000/svg" xmlns:xlink="http://www.w3.org/1999/xlink" x="0px" y="0px"
	 viewBox="0 142.6 612 506.9" enable-background="new 0 142.6 612 506.9" xml:space="preserve">
<title>cyn-bg</title>
<path fill="#f19aa0" d="M552.9,299.4c-8-10.6-20.6-16.7-33.8-16.7c-1.5,0-2.9,0.1-4.4,0.2l-65.1,6.6c-0.4-35.1-28.4-63.5-62.8-63.5
	c-15.5,0.1-30.5,5.9-41.9,16.5c-14.6-2.3-29.3-3.4-44.1-3.3c-9.7,0-19.6,0.4-30.5,1.2c-6.4,0.5-12.9,1.1-19.4,1.9
	c-8.6-10.3-20.4-17.6-33.4-20.8c-4.7-1.1-9.5-1.7-14.3-1.7c-29.7,0.1-55.2,21-61.2,50.1c-2.5,11.4-1.9,23.3,1.7,34.4
	c-5.8,10-10.4,20.6-13.7,31.7l-0.6,1.9c-2.3,6.9-4.2,13.7-6.1,20.5l-3.2,10.6h0.2c-0.6,2-1.1,4-1.7,5.9c-2.4,8.2-5.6,16.7-8.9,25.7
	c-6.7,18.1-13.6,36.7-16.1,57.2c-3.4,32,7,63.9,28.6,87.8c14.6,16,33.9,27.5,57.5,34.4c4,1.2,8.2,2.2,12.4,3.1l47.9,11.9
	c34.7,8.7,71,8.8,105.7,0.5l46.1-11c6.1-1.1,12.1-2.6,18-4.3l19.2-4.6V573c17.7-7.8,33.3-19.8,45.4-35
	c20.1-25.9,26.6-56.6,19.7-93.8c12.8-0.3,24.7-6.3,32.6-16.3l18.5-23.6c8.4-10.9,11.2-25.1,7.3-38.3l8-29.6
	C563.8,323.6,561.1,309.9,552.9,299.4z"/>
</svg>
