<svg xmlns="http://www.w3.org/2000/svg" viewBox="0 0 230 230"><title>aud-bg</title><path d="M115,183.91a63.54,63.54,0,0,1-15.65-2,30.24,30.24,0,0,0-7.44-1q-.82,0-1.64,0c-.81,0-1.63.07-2.44.07-1,0-2,0-3.06-.11a41.63,41.63,0,0,1-30.31-16.58A53.25,53.25,0,0,1,11.23,89.13a13.06,13.06,0,0,1,2-19.94,13.05,13.05,0,0,1,13-11.93h.53l51.91,3.15.33,0a31.63,31.63,0,0,1,9.33,2.71,63.35,63.35,0,0,1,53.44,0A31.62,31.62,0,0,1,151,60.47l.33,0,51.91-3.15h.53a13.05,13.05,0,0,1,13,11.93,13.06,13.06,0,0,1,2,19.94,53.24,53.24,0,0,1-40.84,75,41.82,41.82,0,0,1-33.64,17c-1.19,0-2.39-.05-3.58-.15-.73-.06-1.47-.09-2.21-.09a30.16,30.16,0,0,0-7.56,1A63.47,63.47,0,0,1,115,183.91Z" style="fill:#f6bcb1"/></svg>