<?xml version="1.0" encoding="utf-8"?>
<!-- Generator: Adobe Illustrator 18.0.0, SVG Export Plug-In . SVG Version: 6.00 Build 0)  -->
<!DOCTYPE svg PUBLIC "-//W3C//DTD SVG 1.1//EN" "http://www.w3.org/Graphics/SVG/1.1/DTD/svg11.dtd">
<svg version="1.1" id="Layer_1" xmlns="http://www.w3.org/2000/svg" xmlns:xlink="http://www.w3.org/1999/xlink" x="0px" y="0px"
	 viewBox="0 0 492.3 394" enable-background="new 0 0 492.3 394" xml:space="preserve">
<g>
	<path fill="#F15B5A" d="M399.8,356.1H92.5C41.6,356.1,0,314.4,0,263.6V92.5C0,41.6,41.6,0,92.5,0h307.3c50.9,0,92.5,41.6,92.5,92.5
		v171.1C492.3,314.4,450.7,356.1,399.8,356.1z"/>
	<g>
		<path fill="#FFFFFF" d="M102.8,77h-3.9v-1.4H75.4V77h-3.9V43.7h31.3V77z M98.9,71.9V47.4H75.4v24.6H98.9z M85.3,53.5
			c0.2-1.5,0.2-3.1,0.3-4.7h3.7c0,1.6-0.1,3.2-0.2,4.7h8.2v3.7h-8.7c-0.1,0.6-0.3,1.2-0.4,1.8c3.7,2.9,6.9,5.8,9.4,8.7l-2.8,2.9
			c-1.9-2.6-4.5-5.4-7.7-8.3c-1.5,3.3-4.3,6-8.4,8.3l-2.4-2.9c4-2.2,6.6-5,7.8-8.2c0.2-0.7,0.4-1.5,0.6-2.2H77v-3.7H85.3z"/>
		<path fill="#FFFFFF" d="M144.8,61.7c-0.1,7.4-0.6,11.8-1.5,13.2c-1,1.5-2.7,2.2-5,2.2c-1,0-2.3-0.1-3.7-0.2l-1-3.7
			c1.5,0.1,2.8,0.2,3.8,0.3c1.5,0,2.4-0.5,2.8-1.4c0.4-0.9,0.6-3.2,0.7-6.9h-22.3c-1.7,1.7-3.6,3.2-5.7,4.5l-1.9-3.5
			c5.4-3.6,9.4-8.5,12-14.7h-9.4V48h5.5c-0.7-1.1-1.6-2.2-2.5-3.5l3.1-1.9c1.3,1.6,2.4,3,3.1,4.2l-1.8,1.2h3.3
			c0.5-1.8,1-3.6,1.3-5.6l3.9,0.5c-0.4,1.8-0.8,3.5-1.2,5.1h11.4l-1.3,6.6h4.5l-1.2,7H144.8z M121.3,67.9c-1,3.1-2.3,5.8-4.1,8.1
			l-3.4-2.2c1.8-2.1,3.1-4.3,3.9-6.7L121.3,67.9z M121.6,61.7h16.1l0.7-3.6h-14.5C123.2,59.3,122.4,60.5,121.6,61.7z M127.4,74.4
			l-3.7,0.4c-0.2-2.9-0.6-5.1-1.2-6.7l3.3-0.4C126.6,69.3,127.1,71.5,127.4,74.4z M127,51.5c-0.4,1.1-0.9,2.2-1.3,3.2h8.6l0.8-3.2
			H127z M133.5,72.6l-3.5,1.3c-0.5-2.1-1.2-4.1-1.9-6.1l3-0.9C132,69,132.9,70.9,133.5,72.6z M139.2,71.3l-3.6,0.9
			c-0.5-1.8-1.2-3.6-2-5.3l3.1-1C137.6,67.5,138.4,69.3,139.2,71.3z"/>
		<path fill="#FFFFFF" d="M161.6,51.4v3c-1.1,1.9-2.5,3.7-4,5.6h4.3v2.5c-0.5,2.7-1,4.9-1.7,6.7c0.3,0.2,0.6,0.4,0.9,0.7
			c1.2,1.1,2.3,1.9,3.3,2.4c1.1,0.4,2.6,0.7,4.6,0.7c2,0,4.3,0,7,0c2.7,0,6.2-0.1,10.5-0.3l-0.9,3.7h-9.2c-2.5,0-5.1-0.1-7.6-0.1
			c-2.5-0.1-4.5-0.4-5.7-0.9c-1.6-0.6-3-1.6-4.2-2.9c-0.3-0.3-0.6-0.4-0.9-0.4c-0.7,0-1.9,1.6-3.5,4.8l-2.8-2.6
			c1.7-3.2,3.3-5.1,4.9-5.7c0.7-1.6,1.2-3.4,1.6-5.4H153v-2.9c1.7-1.9,3.2-3.7,4.3-5.4h-4.9v-3.5H161.6z M161.5,47.9l-2.5,2.5
			c-1.3-1.6-3.3-3.4-5.7-5.4l2.6-2.5C158.1,44.3,159.9,46.1,161.5,47.9z M172,45.8c-0.4-1-0.9-1.9-1.3-2.8l4.2-0.7
			c0.4,1,0.8,2.2,1.2,3.4h9.3v3.5h-22.1v-3.5H172z M183.5,61.7v9.8h-18.2v-9.8H183.5z M182.6,51.3v3.1h-16.4v-3.1H182.6z
			 M182.6,56.4v3.1h-16.4v-3.1H182.6z M179.6,64.8h-10.5v3.4h10.5V64.8z"/>
		<path fill="#FFFFFF" d="M201,77.1h-3.7V60.8c-0.8,2.7-1.8,5.2-2.9,7.4l-1.8-3.4c1.9-3.4,3.4-7.4,4.3-11.8h-3.4v-3.6h3.8v-7h3.7v7
			h3.1V53H201v2c1.3,1.5,2.5,3.2,3.8,5.1l-2.1,3.1c-0.6-1.3-1.2-2.5-1.7-3.6V77.1z M213.2,65.8v2.5c-1.3,3.7-4,6.6-8,8.6l-2.2-3
			c3-1.2,5.2-2.9,6.4-5.1h-4.9v-3H213.2z M209.9,45.7c-0.4-1-0.9-1.9-1.3-2.8l3.8-0.6c0.4,1,0.8,2.1,1.2,3.4h4.4
			c0.4-1.1,0.8-2.3,1.1-3.5l3.8,0.5c-0.3,1-0.7,2.1-1.1,3h4.6v2.9h-8.6v1.5h7.4v2.8h-7.4v1.6h9.3v3h-22.5v-3h9.4v-1.6h-7.3v-2.8h7.3
			v-1.5h-8.8v-2.9H209.9z M210.7,73.7l2.8,0.1c0.6,0,0.9-0.4,0.9-1.1v-8.3h-7.3v-2.9H218v3.2c0.2,0.4,0.5,0.9,0.7,1.2
			c2-0.9,3.9-2.3,5.7-4.1l2.4,2.4c-1.8,1.8-3.8,3.3-6.1,4.3c1.9,1.9,4.2,3.6,7,5l-2.5,2.9c-3-1.9-5.5-4.2-7.3-6.7v4
			c0,2.1-1.3,3.2-3.8,3.2h-2.6L210.7,73.7z M221.8,59.6l-1,2.5c-3.2-0.9-6.5-1.6-9.9-2.1l1.2-2.4C215.5,58.1,218.7,58.8,221.8,59.6z
			"/>
		<path fill="#FFFFFF" d="M243.4,51.4v3c-1.1,1.9-2.4,3.7-3.9,5.6h4.2v2.5c-0.4,2.7-1,4.9-1.6,6.6c0.3,0.2,0.6,0.5,0.9,0.7
			c1.2,1.1,2.3,1.9,3.3,2.3c1.1,0.4,2.6,0.6,4.6,0.7c2,0,4.3,0,7,0c2.7,0,6.2-0.1,10.5-0.3l-0.9,3.7h-9.2c-2.5,0-5.1-0.1-7.6-0.1
			c-2.5-0.1-4.5-0.4-5.7-0.9c-1.6-0.6-3-1.6-4.2-2.8c-0.3-0.3-0.6-0.4-0.9-0.4c-0.7,0-1.9,1.6-3.5,4.8l-2.8-2.6
			c1.6-3.1,3.3-5.1,4.8-5.7c0.6-1.7,1.1-3.5,1.5-5.4H235v-2.9c1.6-1.9,3-3.7,4.2-5.4h-4.8v-3.5H243.4z M243.2,47.9l-2.5,2.5
			c-1.3-1.6-3.3-3.5-5.7-5.4l2.5-2.4C239.8,44.3,241.6,46.1,243.2,47.9z M258,51.8h9.3v3.3c-1,1.1-2,2.1-3.1,3.1v1.2h3.9v3.4h-3.9v5
			c0,2.2-1.1,3.3-3.3,3.3h-2.6l-0.9-3.4c0.7,0.1,1.4,0.1,2.2,0.1c0.7,0,1-0.4,1-1.2v-3.7h-4.4v-3.4h4.4v-1.6c1-1.1,1.9-2,2.6-2.8
			h-5.4v-3c-0.5,0.7-1,1.3-1.6,1.9l-2.2-2.8c0.2-0.3,0.5-0.6,0.7-0.9H250V52c0,0.7,0,1.3,0,2h5.2c0,7.9-0.2,12.8-0.5,14.7
			c-0.3,1.5-1.8,2.3-4.5,2.3c-0.3,0-0.7-0.1-1.4-0.1l-0.9-3.3c0.7,0.1,1.2,0.2,1.7,0.2c1,0,1.6-0.3,1.8-0.7c0.2-0.9,0.3-4.2,0.4-9.8
			h-2c-0.5,5.9-1.9,10.3-4.1,13.4l-2.7-2.4c2.3-3.4,3.5-8.8,3.5-16.3v-1.6h-2.4v-3.6h4.3c-0.4-1.2-0.9-2.4-1.3-3.5l3.7-1
			c0.6,1.6,1.1,3.1,1.5,4.5h3v2.8c1.2-2.1,2.1-4.5,2.6-7.3l3.6,0.6c-0.2,1.1-0.5,2.2-0.8,3.2h7.3v3.6h-8.7
			C258.9,50.5,258.4,51.2,258,51.8z"/>
		<path fill="#FFFFFF" d="M290.6,49.4c-0.4,0.6-0.8,1.2-1.2,1.8h13.2v3.1c-1.3,1.8-3.1,3.5-5.6,5c3.7,1.2,7.7,1.9,12.2,2.2l-0.9,3.5
			c-5.9-0.3-11.1-1.5-15.6-3.6c-4.3,1.8-9.8,3.2-16.5,4.3l-1.5-3.5c5.5-0.8,10.1-1.8,13.9-3c-1.4-0.9-2.7-1.9-3.9-2.9
			c-1.4,1.2-2.8,2.2-4.3,3.1l-2.5-3c3.3-1.9,6.3-4.5,8.8-7.9L290.6,49.4z M307.9,52.6h-4v-4.3h-23.4v4.3h-4v-7.8h13.3
			c-0.4-0.7-0.7-1.4-1.2-2l4.3-0.7c0.4,0.8,0.7,1.7,1,2.7h13.9V52.6z M303.6,77.2h-3.8v-1.3h-14.6v1.3h-3.8V64.8h22.2V77.2z
			 M299.8,72.3v-4h-14.6v4H299.8z M297.9,54.5h-10.2c1.6,1.2,3.3,2.2,5.2,3.1C294.9,56.6,296.6,55.6,297.9,54.5z"/>
		<path fill="#FFFFFF" d="M318.1,66l-2.5-3.3c4.2-3.5,7.6-7.4,10.1-11.9h-8.7v-3.8h10.6c0.7-1.6,1.3-3.3,1.8-5.1l4,0.5
			c-0.4,1.6-1,3.1-1.5,4.6H350v3.8h-19.8c-1.4,2.8-3.1,5.5-5.1,8v18.3h-3.9v-14C320.2,64.1,319.2,65.1,318.1,66z M335.8,59.4V53h4
			v6.4h8.6v3.8h-8.6V72H350v3.8h-23.5V72h9.4v-8.8h-8v-3.8H335.8z"/>
		<path fill="#FFFFFF" d="M383,42.5v6.7h7.4c0,12.7-0.2,20.4-0.5,23.4c-0.4,2.7-2.1,4.1-5.1,4.1c-0.7,0-1.9-0.1-3.6-0.2l-0.9-3.4
			c1.5,0.1,2.8,0.1,3.9,0.1c1.2,0,1.9-0.8,2.1-2.4c0.2-1.7,0.3-7.7,0.4-18.1H383V54c-0.1,10.4-2.4,18.1-6.7,22.9l-2.1-1.8
			c-4.9,0.6-10.6,1.1-16.9,1.5l-0.5-3.4c2.7-0.1,5.2-0.3,7.6-0.4v-2.4h-6.3v-3.1h6.3v-1.8h-6.5V53.3h6.5v-1.6h-7.2v-3.2h7.2v-1.6
			c-1.9,0.1-4,0.1-6.1,0.1l-1-3c6.3,0,11.6-0.5,15.9-1.5l1.7,2.9c-2,0.5-4.3,0.9-6.9,1.2v1.9h7v3.2h-7v1.6h6.5v12.1h-6.5v1.8h6.4
			v3.1h-6.4v2.1c2.2-0.2,4.4-0.4,6.3-0.7v1.6c3.3-4.3,4.9-10.7,5-19.4v-1.2h-3.3v-3.6h3.3v-6.7H383z M364.6,58.1v-2h-3.2v2H364.6z
			 M364.6,60.6h-3.2v1.9h3.2V60.6z M367.8,58.1h3.2v-2h-3.2V58.1z M371.1,60.6h-3.2v1.9h3.2V60.6z"/>
		<path fill="#FFFFFF" d="M401.1,58.7l-3.4-1c1-3.9,1.6-8.1,1.7-12.4l3.5,0.3c-0.1,1.4-0.1,2.8-0.3,4.3h1.6v-7.4h3.8v7.4h2.5v3.7
			H408v7.5c0.8-0.4,1.6-0.7,2.4-1.1v3.7c-0.8,0.4-1.6,0.7-2.4,1.1V77h-3.8V66.2c-1.7,0.6-3.4,1.2-5.2,1.7l-0.9-3.8
			c2.1-0.4,4.1-1,6.1-1.6v-8.9h-2.1C401.9,55.3,401.5,57,401.1,58.7z M418.4,43.3c-0.4,1.7-0.7,3.3-1.2,4.8h14.2c0,13-0.2,21-0.6,24
			c-0.4,3.2-2.6,4.8-6.4,4.8c-0.5,0-1.5-0.1-2.8-0.2l-0.9-3.5c1.2,0.1,2.2,0.2,3.1,0.2c2,0,3.1-1,3.4-3.1c0.2-1.8,0.3-7.9,0.4-18.5
			h-1.3c-0.8,6-1.9,10.8-3.3,14.3c-1.7,4-4.3,7.6-7.7,10.7l-2.4-3.1c3.1-2.8,5.4-5.8,6.9-9.3c1.3-3.2,2.3-7.4,3-12.6h-1.9
			c-1.6,7.9-4.4,13.8-8.5,17.4l-2.5-2.9c3.6-3.1,6.1-7.9,7.5-14.5h-1.6c-0.9,2.2-2,4.1-3.3,5.6l-2.8-2.4c2.3-2.9,4-7.2,4.9-12.6
			L418.4,43.3z"/>
		<path fill="#FFFFFF" d="M102.9,133.2h-3.7v-1.3h-24v1.3h-3.7V99.7h31.4V133.2z M82.2,128.4l-0.9-2.3c0.6-0.2,0.9-0.6,0.9-1.1v-1
			c-1.3,0.7-2.8,1.3-4.5,1.9l-1.8-2.9c3.4-0.8,5.8-1.7,7.5-2.7h-4.8v-6.6h17.1v6.3c0,0,0.1-0.1,0.1-0.1l2.3,1.8
			c-1,0.7-2.1,1.3-3.1,1.8c1.1,0.6,2.2,1.2,3.2,1.8l-1.8,2.8c-3-2.1-6-3.7-9.1-4.9l1.6-2.3c1.1,0.4,2.2,0.8,3.3,1.3
			c1.1-0.6,2.2-1.2,3.1-1.8h-7.9c-0.6,0.6-1.2,1.2-1.9,1.8v3.2c1.3-0.3,2.5-0.6,3.8-1l0.6,2.7c-2.1,0.6-4.3,1-6.4,1.5h15.9v-25.2
			h-24v25.2H82.2z M85.4,105.5V104h3.5v1.5h7.2v2.8h-7.2v1.4H98v2.8H76.4v-2.8h8.9v-1.4h-7.2v-2.8H85.4z M92.5,116.2H81.8v1.6h10.7
			V116.2z"/>
		<path fill="#FFFFFF" d="M125.5,105.1l0.7-1.6c-3.5,0.1-7.2,0.3-11.2,0.3l-1-3.2c10.5,0,19.4-0.7,26.7-2.1l1.8,3.1
			c-3.6,0.7-7.7,1.3-12.5,1.7c-0.2,0.6-0.4,1.2-0.7,1.8h13.3v3.3h-14.9c-0.3,0.5-0.6,1.1-0.9,1.6h17.9v3.4h-20.3
			c-0.4,0.6-0.9,1.1-1.3,1.6h18v18.3h-3.7v-1.4h-15.9v1.4H118v-13c-1.6,1.4-3.4,2.7-5.2,4l-2.1-3.4c3.5-2.4,6.5-4.9,9-7.5h-8V110
			h10.8c0.4-0.5,0.7-1.1,1.1-1.6h-9.9v-3.3H125.5z M137.7,118.1h-15.9v1.6h15.9V118.1z M121.7,124.1h15.9v-1.5h-15.9V124.1z
			 M121.7,128.7h15.9v-1.7h-15.9V128.7z"/>
		<path fill="#FFFFFF" d="M171.6,99.8v3.7h-9.3c-1.5,3-2.8,5.4-4,7c2.7-0.3,5.4-0.6,8.1-1.1c-0.7-1-1.4-2.1-2.1-3.2l3-1.9
			c2.5,3.3,4.3,6.1,5.7,8.5l-3.3,2.2c-0.4-0.9-0.9-1.8-1.5-2.7c-4.7,0.8-9.8,1.5-15.2,2.1l-0.9-3.5c0.7-0.1,1.2-0.2,1.5-0.4
			c1-0.9,2.6-3.2,4.5-7.1h-5.4v-3.7H171.6z M171.7,129.7c-5.8,1.2-12.1,2.2-18.8,3.1l-0.9-3.7c2.9-0.3,5.7-0.6,8.5-1v-5.8h-6.8v-3.7
			h6.8v-3.8h3.9v3.8h6.2v3.7h-6.2v5.2c2.5-0.4,4.9-1,7.3-1.5V129.7z M177.8,102.1v22.9h-3.8v-22.9H177.8z M175.7,132.9l-0.9-3.8
			c1.8,0.1,3.5,0.2,5.1,0.2c0.9,0,1.3-0.5,1.3-1.4V98.7h4v30.2c0,2.6-1.3,3.9-3.9,3.9H175.7z"/>
		<path fill="#FFFFFF" d="M210.6,119.5c-2,0.7-4,1.3-6.2,1.8v7.6c0,2.5-1.3,3.7-3.9,3.7h-4.2l-0.9-3.7c1.3,0.1,2.5,0.2,3.7,0.2
			c0.9,0,1.3-0.4,1.3-1.3v-5.7c-2.2,0.4-4.4,0.9-6.7,1.2l-0.6-3.9c2.5-0.4,5-0.8,7.3-1.3v-6.4h-7.3v-3.7h7.3v-3.5
			c-1.8,0.4-3.6,0.7-5.6,0.9l-0.8-3.7c5.2-0.6,9.8-1.6,13.9-3.3l1.3,3.7c-1.5,0.6-3.1,1-4.8,1.5v4.4h7.7c-0.2-2.9-0.3-6.1-0.3-9.5
			h3.9c0,3.6,0.2,6.7,0.4,9.5h11.2v3.7h-10.9c0.2,2.4,0.6,4.4,1,6c0.2,0.6,0.3,1.1,0.4,1.6c1.5-1.9,2.9-4,4-6.4l3.4,1.8
			c-1.6,3.4-3.6,6.3-5.9,8.8c0.4,0.9,0.8,1.7,1.2,2.3c1,1.6,1.9,2.5,2.4,2.5c0.4,0,0.8-1.9,1.3-5.7l3.5,1.8c-1,5.4-2.4,8-4.2,8
			c-1.6,0-3.4-1.1-5.1-3.3c-0.7-0.9-1.3-1.8-1.9-3c-2.5,2.1-5.4,3.7-8.5,4.9l-2.2-3.3c3.4-1.3,6.5-3.1,9.1-5.4
			c-0.4-1.2-0.8-2.4-1.1-3.7c-0.6-2-1-4.4-1.3-7.1h-8v5.5c2.2-0.6,4.3-1.2,6.2-1.8V119.5z M226.5,103.9l-2.8,2.8
			c-1.5-1.6-3.7-3.4-6.6-5.2l2.6-2.5C222.4,100.6,224.7,102.2,226.5,103.9z"/>
		<path fill="#FFFFFF" d="M254.4,114.8c0,3.7-1.7,6.4-5.1,8.3L248,121c2.2-1.4,3.4-3.1,3.7-5.2c-0.2,0-0.4,0.1-0.7,0.1
			c-0.8,0-1.5-0.3-2.1-0.8c-0.6-0.5-0.8-1.2-0.8-2c0-0.9,0.3-1.5,0.8-2.1c0.6-0.5,1.2-0.8,2.1-0.8
			C253.2,110.2,254.4,111.8,254.4,114.8z"/>
		<path fill="#FFFFFF" d="M289.6,132.9l-0.9-3.8c1.9,0.1,3.8,0.2,5.5,0.2c0.9,0,1.3-0.6,1.3-1.6v-18.9h-0.4
			c-3.7,7.7-9.8,14-18.4,18.9l-2.1-3.3c7.5-4,13-9.2,16.4-15.6h-15.7V105h20.1v-6.4h3.9v6.4h9v3.8h-9v20c0,2.8-1.3,4.2-3.9,4.2
			H289.6z"/>
		<path fill="#FFFFFF" d="M317.8,110.2l-2.1-3.3c6-2.4,11.5-5.2,16.3-8.3h2.3c4.9,3.1,10.3,5.9,16.3,8.3l-2.1,3.3
			c-0.7-0.3-1.3-0.6-1.8-0.9v9.9h-27.1v-9.8C319,109.6,318.4,109.9,317.8,110.2z M340.7,106.3v1.3h-15.1v-1.2
			c-1.6,0.9-3.4,1.7-5.1,2.5H346C344.1,108,342.4,107.1,340.7,106.3z M345.3,133.3h-3.7v-1.1h-16.8v1.2h-3.7v-12.8h24.2V133.3z
			 M331.4,111.8h-8.2v4.5h8.2V111.8z M341.6,124.9v-1.5h-16.8v1.5H341.6z M341.6,129.1v-1.6h-16.8v1.6H341.6z M329.5,115.5l-2.5,0.7
			c-0.5-1.2-1.1-2.3-1.8-3.4l2.6-0.8C328.4,112.9,328.9,114.1,329.5,115.5z M333.2,101.9c-1.5,1-3,1.9-4.7,2.9h9.4
			C336.2,103.8,334.6,102.8,333.2,101.9z M343.2,111.8H335v4.5h8.2V111.8z M341.2,112.6c-0.5,1.3-1.1,2.5-1.8,3.5l-2.5-0.9
			c0.6-0.9,1.2-2,1.6-3.3L341.2,112.6z"/>
		<path fill="#FFFFFF" d="M385.4,115v12.6h-5.7v1.3c0,0.5,0.2,0.8,0.7,0.8h5.8c0.5,0,0.9-0.2,1.2-0.5c0.2-0.3,0.4-1.3,0.5-3.1l3.2,1
			c-0.3,2.7-0.7,4.4-1.4,4.9c-0.6,0.4-1.6,0.7-2.8,0.7h-7.4c-2.2,0-3.3-1-3.3-3v-2h-3.3c-2,3.1-6.5,5-13.6,5.8l-1.8-2.8
			c5.4-0.5,9.2-1.5,11.3-3.1h-5.9V115H385.4z M363.6,107.3h5.1v2.3h-4.9l0.1,1.5h7.1l-1.2-2c1-0.3,1.9-0.7,2.8-1.2
			c-0.7-0.4-1.5-0.9-2.2-1.3l1.6-1.5c0.9,0.5,1.7,1,2.5,1.5c0.6-0.5,1.2-1.1,1.8-1.7l1.9,1.2c-0.6,0.7-1.2,1.3-1.8,1.8
			c0.8,0.5,1.6,1.1,2.3,1.6l-1.6,1.6h7.4l0.1-1.5h-5v-2.3h5.2l0.1-1.3h-5.1v-2.3h5.3l0.1-1.4h-5.6v-2.7h8.8l-0.7,11.5h2.5v6.2h-3.4
			v-3.6h-25.4v3.6h-3.4v-6.2h2.6l-0.8-10.8c2.5-0.2,5.2-0.7,8-1.6l1.1,2.7c-1.2,0.4-3.1,0.8-5.8,1.3l0.1,1.1h5.4v2.3h-5.2
			L363.6,107.3z M381.8,118.5v-1.3h-15.4v1.3H381.8z M381.8,121.8v-1.3h-15.4v1.3H381.8z M381.8,123.8h-15.4v1.4h15.4V123.8z
			 M374.7,100.6c0.7-0.5,1.3-1,1.9-1.6l2.1,1.3c-0.6,0.6-1.2,1.2-1.7,1.6c0.7,0.5,1.5,1,2.1,1.5l-1.7,1.7c-0.7-0.6-1.6-1.2-2.5-1.7
			c-1,0.6-2.4,1.3-4,2l-1.3-2.2c1-0.3,2-0.7,2.9-1.2c-0.8-0.4-1.6-0.9-2.4-1.2l1.7-1.7C372.9,99.6,373.8,100.1,374.7,100.6z
			 M371.2,111.1h5.9c-0.7-0.6-1.5-1.2-2.4-1.9C373.7,109.8,372.6,110.4,371.2,111.1z"/>
		<path fill="#FFFFFF" d="M409.3,100c-2,4-5.5,7.7-10.4,11l-1.2-3.8c3.7-2.5,6.5-5.5,8.3-8.8L409.3,100z M399,121.4l-1.2-3.7
			c3.7-2.8,6.4-6,8.2-9.7l3.4,1.6c-0.8,1.8-1.9,3.5-3.1,5.1v18.6h-3.8v-14.7C401.4,119.6,400.3,120.5,399,121.4z M431.6,114.3v3.4
			h-4.2v2.1h5v3.4h-5v6.2c0,2.4-1.3,3.6-3.8,3.6h-4.1l-0.8-3.7c1.3,0.1,2.4,0.3,3.6,0.3c0.9,0,1.3-0.4,1.3-1.2v-5.3h-15.2v-3.4h15.2
			v-2.1h-13.9v-3.4H431.6z M429.6,99.7v12.7h-18.4V99.7H429.6z M419,128.9l-3,2c-1.1-1.6-2.6-3.4-4.5-5.4l2.8-2
			C416.4,125.5,418,127.3,419,128.9z M425.9,104.6v-1.8h-11v1.8H425.9z M425.9,107.4h-11v1.8h11V107.4z"/>
		<path fill="#FFFFFF" d="M87.5,175.7c-2,0.7-4,1.3-6.2,1.8v7.6c0,2.5-1.3,3.7-3.9,3.7h-4.2l-0.9-3.7c1.3,0.1,2.5,0.2,3.7,0.2
			c0.9,0,1.3-0.4,1.3-1.3v-5.7c-2.2,0.4-4.4,0.9-6.7,1.2l-0.6-3.9c2.5-0.4,5-0.8,7.3-1.3V168h-7.3v-3.7h7.3v-3.5
			c-1.8,0.4-3.6,0.7-5.6,0.9L71,158c5.2-0.6,9.8-1.6,13.9-3.3l1.3,3.7c-1.5,0.6-3.1,1-4.8,1.5v4.4H89c-0.2-2.9-0.3-6.1-0.3-9.5h3.9
			c0,3.6,0.2,6.7,0.4,9.5h11.2v3.7H93.3c0.2,2.4,0.6,4.4,1,6c0.2,0.6,0.3,1.1,0.4,1.6c1.5-1.9,2.9-4,4-6.4l3.4,1.8
			c-1.6,3.4-3.6,6.3-5.9,8.8c0.4,0.9,0.8,1.7,1.2,2.3c1,1.6,1.9,2.5,2.4,2.5c0.4,0,0.8-1.9,1.3-5.7l3.5,1.8c-1,5.4-2.4,8-4.2,8
			c-1.6,0-3.4-1.1-5.1-3.3c-0.7-0.9-1.3-1.8-1.9-3c-2.5,2.1-5.4,3.7-8.5,4.9l-2.2-3.3c3.4-1.3,6.5-3.1,9.1-5.4
			c-0.4-1.2-0.8-2.4-1.1-3.7c-0.6-2-1-4.4-1.3-7.1h-8v5.5c2.2-0.6,4.3-1.2,6.2-1.8V175.7z M103.5,160.1l-2.8,2.8
			c-1.5-1.6-3.7-3.4-6.6-5.2l2.6-2.5C99.4,156.8,101.6,158.4,103.5,160.1z"/>
		<path fill="#FFFFFF" d="M124.7,170.6h-9.1v3.5h9.9v14.7h-3.7v-2h-6.2v2H112v-30.4h3.6c0.4-1.2,0.7-2.4,0.9-3.7l3.9,0.5
			c-0.2,1.1-0.5,2.2-0.9,3.1h5.1V170.6z M121,167.3v-5.7h-5.4v5.7H121z M121.8,183.6v-6.1h-6.2v6.1H121.8z M137.8,154.8v6.3h6.6
			v19.1c0,2.6-1.2,4-3.5,4H139l-1-3.5l1.6,0.1c0.6,0,0.9-0.5,0.9-1.5v-14.7h-2.8v25H134v-25H131v20.1h-3.7v-23.7h6.7v-6.3H137.8z"/>
		<path fill="#FFFFFF" d="M161.4,185h-3.2v-2.2h-2.1v3h-3.2v-28.7h8.5V185z M158.2,179.7v-19.4h-2.1v19.4H158.2z M172.2,155.9v2.7
			c-0.6,3.3-1.3,6.8-2.2,10.4c1.3,3.3,2,6.2,2.2,8.6c0,1.9-0.3,3.2-0.8,4c-0.8,1-2.2,1.5-4.1,1.5l-1-3v9.2h-3.2v-33.4H172.2z
			 M168,179.9c0.3-0.1,0.5-0.3,0.7-0.6c0.1-0.3,0.1-0.9,0.1-1.6c0-2.4-0.7-5.1-2.1-8.1c0.9-3.9,1.6-7.4,2.1-10.5h-2.6v20.6
			C167,179.8,167.6,179.9,168,179.9z M180.5,163.1V180H173v-16.9H180.5z M186.6,156.1v3.6h-1.3v25.7c0,2.5-1.3,3.7-3.9,3.7h-3.9
			l-0.7-3.3c1.2,0.1,2.4,0.2,3.5,0.2s1.7-0.5,1.7-1.5v-24.9h-8.5v-3.6H186.6z M177.7,165.7h-1.9v11.6h1.9V165.7z"/>
		<path fill="#FFFFFF" d="M213.4,171c0,3.7-1.7,6.4-5.1,8.3l-1.3-2.1c2.2-1.4,3.4-3.1,3.7-5.2c-0.2,0-0.4,0.1-0.7,0.1
			c-0.8,0-1.5-0.3-2.1-0.8c-0.6-0.5-0.8-1.2-0.8-2c0-0.9,0.3-1.5,0.8-2.1c0.6-0.5,1.2-0.8,2.1-0.8
			C212.2,166.4,213.4,167.9,213.4,171z"/>
		<path fill="#FFFFFF" d="M238.9,168.9l-3.8-2.4c2.7-3.5,4.6-7.2,5.7-11.1l3.9,0.8c-0.4,1.3-0.8,2.6-1.2,3.8h6v-5.2h3.9v5.2h11.9
			v3.8h-11.9v5.9h14.5v3.8h-9.8v9.4c0,1.4,0.5,2.2,1.5,2.2h3.1c0.3,0,0.7-0.2,1-0.6c0.3-0.4,0.5-2.3,0.6-5.6l3.7,1.2
			c-0.4,4.3-0.9,6.9-1.5,7.6c-0.7,0.7-1.7,1.1-2.9,1.2h-5.2c-3,0-4.4-1.8-4.4-5.2v-10.1h-5.8c-0.4,4.2-1.3,7.3-2.7,9.3
			c-1.7,2.5-4.7,4.8-8.8,6.7l-2.8-3.5c3.7-1.5,6.3-3.2,7.9-5.2c1.2-1.6,2-4,2.4-7.3h-9.8v-3.8h14.9v-5.9h-7.7
			C241,165.6,239.9,167.3,238.9,168.9z"/>
		<path fill="#FFFFFF" d="M292.8,156v12.9h-8.9c-0.1,1.2-0.1,2.3-0.2,3.3h10.1c0,6.9-0.2,11.1-0.6,12.8c-0.4,2.6-2.6,4-6.4,4
			c-0.6,0-1.6-0.1-3.1-0.2l-0.9-3.3c1.3,0.1,2.4,0.1,3.4,0.1c1.9,0,3-0.8,3.4-2.3c0.2-0.7,0.3-3.2,0.4-7.4h-6.7
			c-0.3,2.2-0.6,4-1,5.4c-1,3.1-2.6,5.7-4.9,8l-2.5-3.3c1.9-1.8,3.2-4,4-6.5c0.7-2.2,1.1-5.8,1.3-10.6H277V156H292.8z M288.9,159.6
			h-8.2v5.5h8.2V159.6z M300.5,158v23h-3.8v-23H300.5z M298.9,189l-0.9-3.7c1.7,0.1,3.4,0.2,4.9,0.2c1,0,1.5-0.6,1.5-1.8v-28.9h3.9
			v29.9c0,2.8-1.4,4.3-4.1,4.3H298.9z"/>
		<path fill="#FFFFFF" d="M319.7,164.2l-3.4-2.2c2.2-2.3,3.7-4.8,4.5-7.4l3.8,0.8c-0.2,0.6-0.4,1.1-0.6,1.7h9.2v3.4h-5.3
			c0.6,0.9,1.1,1.7,1.5,2.5l-3.6,1.4c-0.6-1.3-1.3-2.6-2.1-3.9h-1.4C321.5,161.8,320.7,163,319.7,164.2z M349.4,172h-3.8v-4h-24.7v4
			H317v-7.3h14.3c-0.3-0.7-0.6-1.3-0.9-1.8l3.3-0.6l-0.7-0.5c1.7-2.2,3-4.6,3.7-7.2l3.7,0.8c-0.2,0.6-0.4,1.1-0.6,1.6h10.3v3.4h-5.9
			c0.5,0.7,1,1.5,1.3,2.2l-3.4,1.3c-0.6-1.2-1.3-2.4-2.1-3.5h-1.7c-0.6,1.2-1.3,2.3-2.1,3.4l-1.7-1.1c0.2,0.6,0.5,1.2,0.7,1.9h14.1
			V172z M344.2,177.5h-18v1.8H346v10.2h-3.9v-1.3h-15.9v1.2h-3.9v-20h22V177.5z M340.4,174.4v-1.9h-14.3v1.9H340.4z M342.1,184.7
			v-2.4h-15.9v2.4H342.1z"/>
		<path fill="#FFFFFF" d="M360.4,189.6l-3-2.7c2.7-3.1,4.1-7.2,4.2-12.1v-8c-0.7,0.5-1.4,0.9-2.1,1.4l-2.5-3c4.3-2.5,8-6,11.2-10.6
			l3.9,0.9c-0.4,0.7-0.9,1.3-1.4,2h13.3v2.8c-1.2,1.3-2.4,2.4-3.5,3.4h8v22.2c0,2.2-1.3,3.3-3.8,3.3h-5l-1-3.6
			c1.8,0.1,3.4,0.2,4.9,0.2c0.7,0,1-0.4,1-1.3V181h-20.2C363.8,184.3,362.4,187.2,360.4,189.6z M365.4,174.4c0,1.1-0.1,2.2-0.2,3.2
			h7.8v-3.5h-7.6V174.4z M375.2,163.6c1.2-0.9,2.4-1.8,3.7-2.9h-10.7c-0.9,1-1.9,2-2.8,2.9H375.2z M365.4,167.2v3.6h7.6v-3.6H365.4z
			 M384.8,167.2h-8v3.6h8V167.2z M384.8,174.1h-8v3.5h8V174.1z"/>
		<path fill="#FFFFFF" d="M423.9,160.3h-23.6v-3.8h29v3.8c-3.4,3.1-7.3,6-11.6,8.8v15.8c0,2.8-1.4,4.2-4.1,4.2c-2.3,0-4.3-0.1-6-0.3
			l-1-3.8c1.8,0.2,3.8,0.4,6,0.4c0.8,0,1.2-0.4,1.2-1.2v-17.1C417.4,165.1,420.7,162.9,423.9,160.3z"/>
		<path fill="#FFFFFF" d="M70.8,229.8l-1.3-4.2c3.9-4.2,6.7-9.2,8.6-14.9l3.6,1.7c-1,2.9-2.2,5.7-3.8,8.3v24.9H74v-19.3
			C73,227.4,71.9,228.6,70.8,229.8z M82.5,226.3l-3.4-2.1c2.8-4.2,4.7-8.6,5.8-13.3l3.7,0.8c-0.3,1.1-0.6,2.2-1,3.3h15.6v2.5
			c-0.6,2.2-1.3,4.5-2.1,6.7l-3.7-1.1c0.7-1.3,1.3-2.7,1.9-4.4h-13C85.2,221.5,83.9,224,82.5,226.3z M87.8,227.2
			c-1.3,5.1-3,9.6-5,13.5l-3.7-1.3c1.9-3.4,3.7-7.8,5.2-13.1L87.8,227.2z M85.7,245.3l-0.9-3.7c1.5,0.1,3,0.3,4.3,0.3
			c0.9,0,1.3-0.5,1.3-1.4v-19.1h3.8v20c0,2.6-1.3,3.9-3.8,3.9H85.7z M104.2,239.8l-3.4,1.5c-1.3-5.4-2.9-10.2-4.6-14.3l3.4-1.2
			C101.4,230.1,102.9,234.8,104.2,239.8z"/>
		<path fill="#FFFFFF" d="M114.4,224.2L111,222c2.4-3.5,4.1-7.2,5.1-11.2l3.9,0.9c-0.4,1.3-0.7,2.6-1.2,3.8h9.9v3.7h-5
			c0,2.2-0.2,4.2-0.3,6.1h5.7v3.7h-6.2l-0.4,2.2c2.2,2.2,4.5,4.8,6.9,7.6l-2.4,3.6c-2.2-3.3-4-5.8-5.5-7.6c-1.6,3.8-4.2,7-8,9.7
			l-2.5-3.1c3.9-2.9,6.4-6.4,7.6-10.5l0.4-2h-7.2v-3.7h7.8c0.2-1.9,0.3-3.9,0.4-6.1h-2.5C116.4,221,115.5,222.7,114.4,224.2z
			 M144.2,243.9h-3.8v-2.1h-6.2v2.1h-3.8v-29.4h13.8V243.9z M140.4,238.2v-20.1h-6.2v20.1H140.4z"/>
		<path fill="#FFFFFF" d="M161.6,219.9v3c-1.1,1.9-2.5,3.7-4,5.6h4.3v2.5c-0.5,2.7-1,4.9-1.7,6.6c0.3,0.2,0.6,0.4,0.9,0.7
			c1.2,1.1,2.3,1.9,3.4,2.4c1,0.4,2.6,0.6,4.6,0.7c2,0,4.3,0,6.9,0c2.7,0,6.2-0.1,10.5-0.3l-0.9,3.7h-9.1c-2.5,0-5.1-0.1-7.6-0.1
			c-2.5-0.1-4.5-0.4-5.7-0.9c-1.6-0.6-3-1.6-4.2-2.9c-0.3-0.3-0.6-0.4-0.9-0.4c-0.7,0-1.9,1.6-3.5,4.9l-2.8-2.6
			c1.7-3.3,3.4-5.2,4.9-5.8c0.6-1.6,1.2-3.4,1.5-5.3H153v-2.9c1.7-1.9,3.2-3.7,4.3-5.4h-4.9v-3.5H161.6z M161.3,216.4l-2.5,2.5
			c-1.3-1.6-3.2-3.5-5.7-5.4l2.5-2.4C157.9,212.8,159.8,214.6,161.3,216.4z M168.1,214.7c-0.5-0.9-1.1-1.8-1.8-2.6l3.6-1.4
			c0.8,1.1,1.5,2.5,2.2,4h4c0.9-1.3,1.7-2.6,2.4-4l3.7,1.3c-0.6,1-1.2,1.9-1.8,2.7h5.5v3.5h-10.3c-0.2,0.7-0.4,1.5-0.7,2.1h8.5v18.9
			h-18.1v-18.9h5.5c0.3-0.7,0.5-1.4,0.7-2.1h-8.8v-3.5H168.1z M179.8,225.7v-2h-10.9v2H179.8z M179.8,230.7v-1.9h-10.9v1.9H179.8z
			 M179.8,233.7h-10.9v2.2h10.9V233.7z"/>
		<path fill="#F5C15D" d="M208.6,213.9c0.1-1.1,0.3-2.2,0.4-3.3l4,0.6l-0.3,2.8H227v3.7h-15c-0.2,1-0.4,1.9-0.6,2.9h13.9V241
			c0,2.8-1.3,4.3-3.9,4.3h-3.5l-1-3.8l3.2,0.1c0.9,0,1.3-0.5,1.3-1.5v-16H199v21.5h-3.9v-25.1h12.2c0.2-1,0.4-1.9,0.6-2.9h-14.6
			v-3.7H208.6z M208.6,228.8h3.2c0.7-1.4,1.4-2.8,1.9-4.4l3.5,1.3c-0.5,1.2-1.1,2.2-1.7,3.1h3.4v3.4h-6.9v2.8h7.9v3.4h-7.9v6.4h-3.8
			v-6.4h-7.8v-3.4h7.8v-2.8h-6.8v-3.4h3.4c-0.5-1.1-1.1-2.1-1.7-3l3.5-1.3C207.3,225.8,208,227.2,208.6,228.8z"/>
		<path fill="#F5C15D" d="M244.8,216.4v-5.5h3.9v18.4c-0.1,7.4-2.1,12.8-6.2,16.3l-3-2.7c2-1.7,3.5-3.9,4.3-6.7
			c-2.9,0.7-5.9,1.3-9,1.8l-1-3.9c3.7-0.3,7.3-0.9,10.8-1.7c0.1-1,0.2-2.1,0.2-3.1v-0.7h-9.1v-3.7h9.1v-4.7h-10v-3.7H244.8z
			 M257.5,210.9v5.5h9.9v3.7h-9.9v4.7h9.1v3.7h-9.1v4.8h10.5v3.7h-10.5v8.5h-4v-34.7H257.5z"/>
		<path fill="#F5C15D" d="M299.1,243.3l-1-3.6l2.8,0.2c0.8,0,1.3-0.5,1.3-1.4v-3h-8.1v10h-3.9v-10h-8.1v7.3h-3.9v-10.8h11.9v-2.2
			h-1.8l-0.8-2.9l1.7,0.1c0.5,0,0.8-0.3,0.8-1v-1l-2.4,0.6c-0.3-1.8-0.7-3.6-1.2-5.2l2.1-0.7c0.6,1.5,1,3.2,1.4,5.1v-6h-3.7v10.5
			h-2.9v-10.5h-3.9v11h-3.2v-14h3c-0.7-1.3-1.4-2.4-2.2-3.4l2.8-1.3c0.7,1.1,1.5,2.4,2.2,3.8l-1.9,1h3.1V211h3.2v4.9h3l-1.9-1
			c0.9-1.3,1.6-2.5,2.1-3.7l2.8,1.4c-0.6,1.1-1.2,2.2-2.1,3.3h2.7v3.6c2.2-2.4,3.7-5.2,4.5-8.5l3.5,0.4c-0.3,1-0.6,2-0.9,2.9h8v3.3
			H307c-0.8,2.7-1.9,4.9-3.3,6.8c1.6,1.1,3.6,2.1,5.7,3l-1.8,3.2c-2.4-1.1-4.4-2.3-6.1-3.7c-1.7,1.5-3.7,2.6-6,3.4l-1.8-3
			c2-0.6,3.7-1.5,5.2-2.7c-0.8-0.8-1.5-1.6-2.1-2.4l1.6-2.5c0.8,1,1.7,1.9,2.7,2.7c1-1.4,1.8-3,2.4-4.8h-4.6c-1,1.8-2.2,3.4-3.7,4.8
			l-1.9-2.5v6.9c0,1.5-0.5,2.4-1.5,2.8h2.4v2.4h11.9v7.3c0,2.6-1.3,3.9-3.9,3.9H299.1z M283.1,220.6c-0.2,2.4-0.4,4.6-0.9,6.5
			l-2.5-0.8c0.6-1.7,0.9-3.7,1.1-6L283.1,220.6z"/>
		<path fill="#F5C15D" d="M324.7,235c-1.4,3.6-3,6.9-4.8,10l-3.8-1.7c2-3.2,3.8-6.4,5.3-9.7L324.7,235z M325.2,229.5l-2.7,2.7
			c-1.5-1.3-3.5-2.7-6.1-4.2l2.7-2.5C321.5,226.8,323.5,228.1,325.2,229.5z M324.6,213.1v-2.2h3.7v2.2h4v3.3h-4v2.2h-3.7v-2.2H317
			v-3.3H324.6z M326.5,221.9l-2.7,2.7c-1.4-1.3-3.4-2.7-6-4.2l2.7-2.5C322.9,219.2,324.9,220.5,326.5,221.9z M350.8,231.8l-2.2,3.2
			c-0.8-0.2-1.6-0.4-2.3-0.6v11.2h-3.6v-1.3h-10.3v1.3h-3.6v-10.9c-0.7,0.2-1.3,0.4-1.9,0.6l-2.2-3c3.9-1,7.3-2.1,10-3.5
			c-1.2-0.9-2.2-1.9-3.1-2.9c-1.3,1.1-2.7,2.1-4.2,3.1l-2.2-2.9c4.1-2.2,6.9-5.1,8.3-8.3l3.6,0.7c-0.3,0.6-0.5,1.2-0.8,1.8h10.3v2.7
			c-1.2,2.2-3,4.2-5.3,5.9C343.8,230,347.1,231,350.8,231.8z M337.7,231c-1.8,1-3.7,1.9-5.8,2.7h11.8
			C341.5,232.9,339.5,232,337.7,231z M342.6,240.9V237h-10.3v3.9H342.6z M337.8,227c1.7-1.1,3.1-2.3,4.2-3.6h-8.1l-0.2,0.1
			C334.9,224.9,336.2,226,337.8,227z M341.8,210.9v2.2h7.7v3.3h-7.7v2.2h-3.7v-2.2H334v-3.3h4.1v-2.2H341.8z"/>
		<path fill="#F5C15D" d="M368,212.4c-1.9,4-5.3,7.7-10,11l-1.2-3.8c3.5-2.5,6.1-5.5,7.8-8.9L368,212.4z M368.8,221.9
			c-0.9,1.9-2,3.6-3.4,5.3v18.1h-3.7V231c-1.1,0.9-2.2,1.8-3.4,2.7l-1.2-3.7c3.7-2.8,6.5-6,8.3-9.7L368.8,221.9z M390.9,227.8
			l-2.9,2c-0.5-0.8-1-1.7-1.5-2.6c-2.8,0.4-6.1,0.8-9.9,1.1l1.2,0.5c-0.3,0.6-0.5,1.1-0.7,1.6h10.4v3.1c-0.8,2.4-2.3,4.4-4.5,6.2
			c2.7,1.1,5.7,2,9.1,2.7l-2.2,3.3c-3.9-0.9-7.4-2.1-10.3-3.6c-2.8,1.5-6.4,2.7-10.7,3.7l-1.8-3.2c3.4-0.7,6.3-1.5,8.8-2.6
			c-1.2-0.8-2.3-1.6-3.3-2.5c-0.9,1-1.9,1.8-2.8,2.6l-2.8-2.4c1.2-0.9,2.2-1.8,3.1-2.8c-0.7-0.8-1.3-1.6-1.8-2.4l3-1.7
			c0.3,0.4,0.6,0.9,1,1.3c0.7-1.1,1.4-2.3,1.9-3.5l-4.5,0.3l-1-3c2.6-0.9,5.5-2.7,8.7-5.4c-2,0.2-4.4,0.4-7.1,0.6l-0.5-3.1
			c1.1-0.1,2.1-0.6,2.9-1.5c0.9-1.1,2.2-3,3.9-5.7l3.5,1.3c-1.4,2-2.9,3.9-4.5,5.6c1.9-0.2,3.7-0.4,5.5-0.6c1-1,1.9-2,2.9-3l3.4,1.7
			c-4.1,4.3-7.8,7.6-11.1,9.8c3.1-0.4,6-0.7,8.5-1.2c-0.6-0.9-1.3-1.7-1.9-2.6l2.8-1.8C387.7,222.9,389.6,225.5,390.9,227.8z
			 M383.4,233.7h-8.2l-0.6,1c1.3,1.2,2.9,2.3,4.7,3.3C381.1,236.7,382.4,235.3,383.4,233.7z"/>
		<path fill="#F5C15D" d="M427,234.9h4.9v3.6h-8.5c3,1.1,5.7,2.3,8.2,3.7l-2.2,3.4c-3.6-2.2-7.3-3.9-11.1-5.2l1.3-1.9H410l1.8,1.6
			c-2.9,2.1-6.4,3.9-10.7,5.5l-2.4-3.1c3.4-1.2,6.3-2.5,8.8-4h-9.1v-3.6h4.9V212H427V234.9z M423.1,218.1v-2.4h-15.8v2.4H423.1z
			 M423.1,223.7v-2.6h-15.8v2.6H423.1z M423.1,229.3v-2.5h-15.8v2.5H423.1z M423.1,234.9v-2.5h-15.8v2.5H423.1z"/>
		<path fill="#F5C15D" d="M70.7,291.6l-1.2-4c4.3-4,7.2-7.8,8.8-11.6h-7.9v-3.6h4.4c-0.5-1.6-1.1-3.1-1.7-4.5l3.8-1
			c0.7,2,1.3,3.9,1.7,5.5H82v3.2c-0.9,2.6-2.2,5.2-4,7.8v0.2l0.9,0.7c0.9-0.8,1.8-2,2.6-3.5l2.2,2.2c-0.8,1.3-1.7,2.3-2.6,3.1
			c0.8,0.7,1.6,1.5,2.3,2.3l-2.1,3.3c-1.1-1.6-2.2-3-3.3-4.2v14.2h-3.8v-13.6C73.2,289.3,72,290.4,70.7,291.6z M91.8,271.1v-4h3.7v4
			h3.9c-0.6-0.9-1.3-1.8-2-2.7l2.7-1.6c1.1,1.3,1.9,2.5,2.5,3.4l-1.3,0.9h3.2v3.6h-8.9v2.6h7.7v20.3c0,2.5-1.2,3.9-3.6,3.9h-2.4
			l-1-3.5l2.2,0.1c0.7,0,1.1-0.4,1.1-1.3v-3h-4.1v7.7h-3.7v-7.7h-3.9v7.8h-3.6v-24.3h7.5v-2.6h-8.7v-3.6H91.8z M87.9,280.8v3.1h3.9
			v-3.1H87.9z M87.9,290.5h3.9v-3.2h-3.9V290.5z M99.6,280.8h-4.1v3.1h4.1V280.8z M99.6,287.3h-4.1v3.2h4.1V287.3z"/>
		<path fill="#F5C15D" d="M116.7,282l-2.7,2.7c-1.2-1.7-2.9-3.5-5.1-5.5l2.7-2.7C113.6,278.4,115.3,280.2,116.7,282z M116.8,288.1
			c-1.2,4.8-2.5,9.3-4,13.5l-3.6-1.6c1.6-4.3,3-8.7,4.2-13.2L116.8,288.1z M117.8,273.2l-2.7,2.7c-1.2-1.7-3-3.6-5.3-5.6l2.7-2.7
			C114.6,269.5,116.4,271.4,117.8,273.2z M120.9,285.4h5.6c0,6.3-0.2,10.5-0.5,12.6c-0.3,2.1-1.9,3.3-4.6,3.5c-0.8,0-1.6,0-2.5-0.1
			l-0.9-3.3c0.8,0.1,1.6,0.1,2.5,0.1c1.3,0,2.1-0.6,2.2-1.8c0.2-1.2,0.3-3.8,0.3-7.7h-5.6l1-12.1h4.5v-5.1h-5.1v-3.4h8.6v11.9h-5
			L120.9,285.4z M142.2,271.6h-9.4v2.1h8.3v3.3h-8.3v2.1h8.3v3.3h-8.3v2.1h10.4v3.5h-10.9v9.5c1.3-0.4,2.5-0.9,3.8-1.5l0.6,3.2
			c-2.3,1-5,1.9-8,2.6l-1.4-3c1-0.4,1.6-1.1,1.6-1.9v-9H127v-3.5h2.1v-16.3h13.1V271.6z M138.1,291.1c1-0.7,2-1.7,3-2.9l2.3,2.3
			c-1.2,1.4-2.5,2.5-4,3.3c1.3,2.2,3,3.8,5,4.8l-2.1,3c-3.8-2.1-6.5-6.1-8-11.9l2.8-1.6C137.3,289.2,137.7,290.2,138.1,291.1z"/>
		<path fill="#F5C15D" d="M156,301.6h-3.6v-16.2c-0.7,2.2-1.6,4.3-2.6,6.2l-1.6-4c1.8-2.9,3.1-6.2,4-9.8H149v-3.6h3.3v-7h3.6v7h2.5
			v3.6H156v1.7c1.2,1.3,2.3,2.8,3.5,4.3l-1.9,2.9c-0.6-1.1-1.1-2-1.5-2.8V301.6z M174.1,298.2c-1.9,1.4-4.2,2.5-6.6,3.4l-1.5-3.4
			c2.3-0.8,4.4-1.9,6.2-3.2c-0.8-1.7-1.5-3.6-2-5.8v-0.1h-4.9c0,0.4,0,0.9,0,1.3c1.9,0.9,3.6,1.9,5.1,3.1l-1.9,3
			c-1.2-1-2.4-1.9-3.5-2.6c-0.6,3-2.4,5.5-5.3,7.6l-2.4-3.1c2.5-1.6,4-3.7,4.4-6.4c0.1-0.9,0.2-1.8,0.3-2.9h-3.5v-3.4h11.2
			c-0.4-3-0.6-6.3-0.6-9.9v-3.6c-1.3,2.3-2.5,4.3-3.6,5.8l1.9-0.6c0.6,1.8,1,3.9,1.5,6.3l-2.4,0.6c-0.1-0.5-0.2-1-0.3-1.5
			c-1.9,0.3-3.9,0.6-6.2,0.9l-0.6-2.6c0.9-0.3,2.2-1.9,4-4.7c-1.2,0.1-2.5,0.3-3.8,0.4l-0.5-2.5c0.7-0.3,1.9-2.7,3.6-7.2l3,1
			c-1.3,2.7-2.3,4.6-3.1,5.8c0.9-0.1,1.7-0.2,2.5-0.3c0.5-1,1.1-2,1.7-3.1l2.3,0.8v-4.4h3.6v8.8c0,3.7,0.2,7,0.6,9.9h3.1
			c-0.4-0.6-0.7-1.1-1.2-1.6l3-1.1c0.5,0.8,1,1.7,1.5,2.7h3.4v3.4h-4.6l2.4,1.8c-1.2,1.9-2.5,3.7-4.1,5.2c0.8,1,1.5,1.5,2.2,1.5
			c0.6,0,1-1.5,1.5-4.3l3,2c-0.9,4-2.4,6-4.2,6C177.4,301.4,175.7,300.3,174.1,298.2z M163.2,280.9l2.4-0.4c-0.1-0.7-0.3-1.4-0.5-2
			C164.3,279.5,163.7,280.3,163.2,280.9z M183.2,283.1l-2.5,0.6c-0.2-0.6-0.3-1.1-0.4-1.5c-1.9,0.3-4.2,0.6-6.6,0.9l-0.6-2.6
			c0.9-0.3,2.2-1.8,3.9-4.5c-1.2,0.1-2.5,0.3-3.9,0.4l-0.5-2.4c0.7-0.3,1.9-2.6,3.7-6.9l2.9,1c-1.3,2.5-2.3,4.3-3.1,5.5
			c0.9-0.1,1.8-0.2,2.5-0.3c0.5-0.9,1.1-1.9,1.6-2.9l2.7,0.9c-1.3,2.3-2.5,4.2-3.6,5.7l1.8-0.6C181.9,278.5,182.6,280.7,183.2,283.1
			z M173.7,289.2c0.3,1.4,0.7,2.6,1.1,3.7c1.2-1.2,2.2-2.4,3-3.7H173.7z M177.1,280.3c0.9-0.1,1.7-0.3,2.5-0.4
			c-0.2-0.7-0.4-1.4-0.7-2C178.2,278.9,177.6,279.7,177.1,280.3z"/>
		<path fill="#F5C15D" d="M189.7,278.7l-2.1-3.3c6-2.4,11.5-5.2,16.3-8.3h2.3c4.9,3.1,10.3,5.9,16.3,8.3l-2.1,3.3
			c-0.7-0.3-1.3-0.6-1.8-0.9v9.9h-27.1v-9.8C190.9,278.1,190.3,278.4,189.7,278.7z M212.6,274.8v1.3h-15.1v-1.2
			c-1.6,0.9-3.4,1.7-5.1,2.5h25.5C216,276.5,214.3,275.6,212.6,274.8z M217.2,301.8h-3.7v-1.1h-16.8v1.2H193V289h24.2V301.8z
			 M203.3,280.3h-8.2v4.5h8.2V280.3z M213.5,293.3v-1.5h-16.8v1.5H213.5z M213.5,297.6V296h-16.8v1.6H213.5z M201.3,283.9l-2.5,0.7
			c-0.5-1.2-1.1-2.3-1.8-3.4l2.6-0.8C200.3,281.4,200.8,282.6,201.3,283.9z M205.1,270.4c-1.5,1-3,1.9-4.7,2.9h9.4
			C208.1,272.3,206.5,271.3,205.1,270.4z M215.1,280.3h-8.2v4.5h8.2V280.3z M213.1,281.1c-0.5,1.3-1.1,2.5-1.8,3.5l-2.5-0.9
			c0.6-0.9,1.2-2,1.6-3.3L213.1,281.1z"/>
		<path fill="#FFFFFF" d="M238.3,293.8h-6.4v2.4h-3.7v-26.3h10V293.8z M234.7,290.2v-16.7h-2.8v16.7H234.7z M243.2,289.8
			c-0.5,3.9-1.2,7.4-1.9,10.3l-3.2-1.2c0.8-2.6,1.5-5.9,2.2-9.9L243.2,289.8z M260.9,284.8c0,8.4-0.5,13.3-1.5,14.7
			c-1,1.4-2.8,2.1-5.6,2.1c-1,0-2.1,0-3.1-0.1l-0.9-3.5c1.2,0.1,2.3,0.2,3.3,0.2c2.1,0,3.3-0.7,3.6-2c0.1-0.4,0.2-1,0.3-1.6l-2.5,1
			c-0.5-2.2-1.1-4.3-1.8-6.3l2.6-0.7c0.7,2.1,1.3,3.9,1.7,5.5c0.2-1.5,0.2-3.6,0.2-6.1h-16.7v-19.9h19.7v3.3h-7.1v2.4h6.4v3.1h-6.4
			v2.4h6.6v3.1h-6.6v2.4H260.9z M244.2,271.4v2.4h5.3v-2.4H244.2z M244.2,279.3h5.3v-2.4h-5.3V279.3z M244.2,284.8h5.3v-2.4h-5.3
			V284.8z M247.7,298.4l-3.1,0.4c-0.1-3.9-0.2-6.9-0.4-9l2.8-0.4C247.4,291.6,247.6,294.6,247.7,298.4z M252.5,296.5l-3,0.7
			c-0.3-2.8-0.6-5.3-1-7.5l2.8-0.6C251.7,291.4,252.1,293.8,252.5,296.5z"/>
		<path fill="#FFFFFF" d="M290.3,272.5c1.5,1.3,2.2,3.1,2.2,5.4c0,1.9-0.5,3.4-1.4,4.6c-0.3,0.4-1.4,1.4-3.2,3
			c-0.7,0.5-1.2,1.2-1.5,1.8c-0.4,0.7-0.6,1.6-0.6,2.5v0.5h-4.3v-0.5c0-1.4,0.2-2.7,0.7-3.7c0.5-1,1.3-2.1,2.6-3.1
			c1.2-1.1,1.9-1.8,2.2-2.1c0.7-0.8,1-1.7,1-2.7c0-1.2-0.4-2.2-1-2.9c-0.7-0.7-1.7-1-3-1c-1.6,0-2.8,0.5-3.5,1.5
			c-0.6,0.9-0.9,2.1-0.9,3.7h-4.3c0-2.8,0.8-4.9,2.4-6.5c1.6-1.6,3.8-2.4,6.6-2.4C286.8,270.5,288.8,271.2,290.3,272.5z
			 M285.8,292.9c0.5,0.5,0.8,1.2,0.8,2s-0.3,1.5-0.8,2.1c-0.6,0.5-1.3,0.8-2.1,0.8s-1.5-0.3-2-0.8c-0.6-0.5-0.9-1.2-0.9-2
			s0.3-1.5,0.9-2c0.5-0.5,1.2-0.8,2-0.8S285.2,292.4,285.8,292.9z"/>
	</g>
	<path fill="#FFFFFF" d="M68.4,80.6C192.2,79.3,316,81,439.5,85.8c-0.1,0,0.1-2.3,0-2.3C316,78.7,192.2,77,68.4,78.3
		C68.4,78.3,68.4,80.6,68.4,80.6L68.4,80.6z"/>
	<path fill="#FFFFFF" d="M68.5,133.7c123.5,3.7,247.3,4.6,371.1,2.9c0.1,0,0-2.3,0-2.3c-123.7,1.8-247.5,0.8-371.1-2.9
		C68.5,131.4,68.3,133.7,68.5,133.7L68.5,133.7z"/>
	<path fill="#FFFFFF" d="M68.5,198.6c119.3,3.7,238.9,4.6,358.4,2.9c0.1,0,0-2.3,0-2.3c-119.5,1.8-239.1,0.8-358.4-2.9
		C68.5,196.2,68.3,198.6,68.5,198.6L68.5,198.6z"/>
	<path fill="#FFFFFF" d="M68.5,251c123.5,3.7,247.3,4.6,371.1,2.9c0.1,0,0-2.3,0-2.3c-123.7,1.8-247.5,0.8-371.1-2.9
		C68.5,248.7,68.3,251,68.5,251L68.5,251z"/>
	<path fill="#FFFFFF" d="M68.5,309.8c77.3,3.7,154.9,4.6,232.4,2.9c0.1,0,0-2.3,0-2.3c-77.5,1.8-155,0.8-232.4-2.9
		C68.5,307.4,68.4,309.8,68.5,309.8L68.5,309.8z"/>
	<path fill="#F15B5A" d="M126.3,346.6c0,0-27.4,40.9-69.9,47.5c0,0,19.6-19.6,11.9-58L126.3,346.6z"/>
</g>
<g>
</g>
<g>
</g>
<g>
</g>
<g>
</g>
<g>
</g>
<g>
</g>
<g>
</g>
<g>
</g>
<g>
</g>
<g>
</g>
<g>
</g>
<g>
</g>
<g>
</g>
<g>
</g>
<g>
</g>
</svg>
