<?xml version="1.0" encoding="utf-8"?>
<!-- Generator: Adobe Illustrator 18.0.0, SVG Export Plug-In . SVG Version: 6.00 Build 0)  -->
<!DOCTYPE svg PUBLIC "-//W3C//DTD SVG 1.1//EN" "http://www.w3.org/Graphics/SVG/1.1/DTD/svg11.dtd">
<svg version="1.1" id="Layer_1" xmlns="http://www.w3.org/2000/svg" xmlns:xlink="http://www.w3.org/1999/xlink" x="0px" y="0px"
	 viewBox="0 0 130.4 91.2" enable-background="new 0 0 130.4 91.2" xml:space="preserve">
<g>
	<path fill="#D65B51" d="M113.8,91.2H17.7C7.9,91.2,0,83.3,0,73.5V17.7C0,7.9,7.9,0,17.7,0h96.2c9.8,0,17.7,7.9,16.5,16v55.9
		C131.5,83.3,123.6,91.2,113.8,91.2z"/>
	<g>
		<g>
			<path fill="#FFFFFF" d="M38.4,25.4v3.1c-0.8,3.4-1.8,7-2.9,10.8c1.7,3.7,2.6,6.9,2.8,9.6c0,1.9-0.4,3.3-1,4.2
				c-1,1-2.7,1.6-5.2,1.6l-1.3-4.2c0.9,0.2,1.6,0.2,2.2,0.2c0.5-0.1,0.8-0.2,1-0.5c0.2-0.2,0.2-0.7,0.2-1.4c0-2.7-1-5.7-2.8-9
				c1.2-4,2.2-7.6,2.9-10.8h-3.8v32h-3.9V25.4H38.4z M54.4,60.9l-1-3.7l2.9,0.1c0.7,0,1.1-0.4,1.1-1V45H42.9v16.1h-3.8V41.5h22v15.6
				c0,2.5-1.2,3.8-3.6,3.8H54.4z M61.4,25.4v3.8H39.6v-3.8H61.4z M59.6,30.7v9.1H41.2v-9.1H59.6z M50.4,50.6
				c0.7-1.8,1.3-3.6,1.8-5.5l3.4,1.3c-0.5,1.5-1,3-1.6,4.2h2.3v3.3H52v6.7h-3.8v-6.7h-4.4v-3.3H50.4z M49.1,49.8L46,50.6
				c-0.4-1.4-0.9-2.8-1.6-4l3.1-1.1C48.1,46.7,48.6,48.2,49.1,49.8z M55.6,34H45.1v2.7h10.6V34z"/>
			<path fill="#FFFFFF" d="M82.9,37.8c0.4-2.4,0.7-5,0.9-7.9H69.8v-4h31.9v4H88c-0.2,2.9-0.5,5.6-0.9,7.9H103v4H89
				c2.8,7,7.9,12.3,15.4,16.1l-2.6,3.4c-7.6-4.2-12.9-10-15.9-17.6c-0.6,2-1.3,3.7-2.1,5.2C81,53.8,76.4,57.9,70,61.4L67.4,58
				c5.8-3,10-6.6,12.4-10.6c0.9-1.5,1.6-3.3,2.2-5.5H68.8v-4H82.9z"/>
		</g>
	</g>
</g>
<g>
</g>
<g>
</g>
<g>
</g>
<g>
</g>
<g>
</g>
<g>
</g>
<g>
</g>
<g>
</g>
<g>
</g>
<g>
</g>
<g>
</g>
<g>
</g>
<g>
</g>
<g>
</g>
<g>
</g>
</svg>
