<?xml version="1.0" encoding="utf-8"?>
<!-- Generator: Adobe Illustrator 18.0.0, SVG Export Plug-In . SVG Version: 6.00 Build 0)  -->
<!DOCTYPE svg PUBLIC "-//W3C//DTD SVG 1.1//EN" "http://www.w3.org/Graphics/SVG/1.1/DTD/svg11.dtd">
<svg version="1.1" id="Layer_1" xmlns="http://www.w3.org/2000/svg" xmlns:xlink="http://www.w3.org/1999/xlink" x="0px" y="0px"
	 viewBox="0 63 612 226" enable-background="new 0 63 612 226" xml:space="preserve">
<g id="_x2E_svg">
	<g>
		<path fill="#414042" d="M100.5,154.6c-2.2,4.7-8.2,9.4-12.3,12.3l-0.8-0.5c0.7-1,1.3-2,1.9-3c2.2-3.8,3.3-9.1,4-13.4l9.1,0.2
			C101.8,151.7,101.1,153.1,100.5,154.6z M135.5,125.8h7.6v3.8h-11.3c-2.8,2.2-5.7,4.2-8.8,6.1h1.4v1.4h6.7l2.4-3.2l9.4,2l-2.6,3
			v26.6h-9v-4h-6.9v3.8h-9v-26.1c-1.1,0.4-2.3,0.7-3.4,1.1v9.1h-6.9c3.1,1.9,9,5.2,9,9.1c0,2-1.3,3.6-3.4,3.6c-2.7,0-4.6-1.2-5-3.7
			l-1-4.6c-0.4-1.7-1.3-3.4-2.1-4.8l0.6-0.5l0.5,0.4v-1.1h-5.4v1.5h-8.4v-39.7h8.4v1.3h5.1l2.4-2.8l9.1,2l-2.7,2.9v25.9
			c4.3-2.7,8.3-5.7,11.8-9.2h-11v-3.8h7.2v-6.5h-5.6v-3.9h5.6v-7.6h9v7.6h4.3c0.8-1.4,1.3-2.8,2-4.3l9.2,2.2
			C142,117.8,139.1,122.1,135.5,125.8z M103.6,114.7h-5.4v6.8h5.4V114.7z M103.6,125.3h-5.4v6.9h5.4V125.3z M103.6,136.2h-5.4v7.8
			h5.4V136.2z M131.4,141h-6.9v6h6.9V141z M131.4,150.7h-6.9v6.9h6.9V150.7z M129,119.3l-0.1,5.4c1.2-1.8,2-3.4,3-5.4H129z"/>
		<path fill="#414042" d="M172.8,159.9v-51.2h9.6v12.6h19.4v4.3h-19.4v34.3h24.1v4.3H151v-4.3L172.8,159.9L172.8,159.9z"/>
		<path fill="#414042" d="M213.5,158.9c1.4,0.2,2.9,0.4,4.3,0.4c0.8,0,2.7-0.1,3.4-0.6c0.5-0.4,0.8-0.9,1-1.5
			c0.4-1.5,0.4-6.1,0.4-7.9c0-3.9-0.1-7.6-0.2-11.5c-2.5,2.1-5,4-7.6,5.8l-0.7-0.6c3.5-4.4,5.5-8.3,8-13.4c-0.2-2-0.5-3.8-1.1-5.7
			c-1.7,1.5-3.4,3-5.2,4.4l-0.7-0.6c1.6-2.5,3.2-5.2,4.5-7.8c-1.8-3.3-3.9-6.4-6.3-9.2l0.8-0.4c3.2,1.8,4.9,3.2,7.6,5.7
			c0.8-2.1,1.6-4.1,2.2-6.3l7.8,1.3c-2.2,3.6-3.9,6.2-6.5,9.5c1,2.1,1.9,4.2,2.5,6.5c1.4,6,1.5,14.1,1.5,20.2c0,2,0,4-0.1,6
			c-0.1,2.9-0.3,5.6-1.2,8.4c-0.6,1.6-1.6,2.6-3.2,3c-1.2,0.4-2.5,0.6-3.8,0.6c-0.4,0-1.1,0-1.3-0.2c-0.6-0.4-0.1-2.1-2.1-3.5
			c-0.9-0.6-3.1-1.2-4.1-1.5L213.5,158.9z M234.7,116.1c0.7-2.4,1-4.8,1.1-7.3h6.6c-1.1,3.9-2.2,5-5.3,7.7v0.9h1.9l2-2.4l6.4,2
			l-2,2.1v14.3h-6.2v-1.1h-2.2v6.2h2.9l2-2.3l6,1.7v-18.7h5.8v2h2.5V114h-9.5v-3.7h25.5v3.7h-10.2v7.3h2l1.8-2l6.2,1.8l-1.8,2v29.6
			c0,0.8,0,2-0.4,2.7c-0.9,1.5-3.6,1.9-5.2,1.9c-2.3,0-0.8-2.7-1.8-3.3l-0.7-0.4v12.7h-5.9V125H254v30.4h-5.9v-17.2l-2.3,2.2v20
			h-5.3v-2h-3.3v2.7h-5.9v-44.9H234.7z M239.3,128.6v-7.4h-2.2v7.4H239.3z M240.5,154.6v-12.5h-3.3v12.5H240.5z M263.2,152
			c1.1,0,1.3-0.4,1.3-1.5V125h-2.3v26.9C262.5,152,262.8,152,263.2,152z"/>
		<path fill="#414042" d="M304.4,132v-7.1h2c2.7-2.9,5.5-5.7,7.9-8.8h-29.7v-4.6h33.1l3.2-3.2l11,2.6c-1.1,0.8-2.2,1.5-3.2,2.2
			c-0.6,0.4-1.5,1.6-2.1,2.1c-1.5,1.4-2.9,2.7-4.6,3.9c-3,2.1-6.3,3.9-9.7,5.7h2v7.1h20.5v4.4h-20.5v20.7c0,1.1,0.1,2.2-0.1,3.3
			c0,0.8-0.5,1.8-0.8,2.4c-0.8,1.5-3.3,2-4.8,2.4c-2,0.4-4.2,0.8-6.3,0.8c-0.4,0-2,0-2.3-0.4c-0.2-0.3-0.2-0.6-0.2-0.9
			c0-3.9-4.3-4.3-7.2-4.8v-1.1c3.2,0.2,6.4,0.4,9.5,0.4c1.9,0,2.3-0.4,2.3-2.2v-20.5h-24.5v-4.4L304.4,132L304.4,132z"/>
		<path fill="#414042" d="M364.2,108.7c-2.2,4.6-5.3,8.1-9.5,10.9l5.3,0.1l2.2-2.4l10,1.6l-2.9,2.5v43h-9v-3.9h-6.7v3.9h-8.8v-46.1
			h6.9c0.9-3.2,1.5-6.2,1.8-9.5L364.2,108.7z M360.2,137.2v-13.5h-6.7v13.5H360.2z M360.2,141.2h-6.7v15.1h6.7V141.2z M381.6,119.1
			h5l2.4-2.6l9.9,2l-2.6,2.4c0,10-0.1,19.9-0.2,29.9c0,2.7,0,5.4-0.1,8.1c-0.1,1.1-0.2,2.5-0.7,3.4c-1.6,3.1-8.6,3.6-11.6,3.6
			c-3,0-0.8-2.5-3.5-4.5c-1.8-1.2-4.8-1.5-6.8-1.8v-0.8c2,0,4.1,0.1,6.2,0.1c1.4,0,5.5,0.4,6.7-0.8c0.4-0.4,0.4-1.2,0.4-1.8
			c0-1,0.1-2,0.1-2.9c0.2-4.2,0.1-8.6,0.1-12.8c0-5.7,0.1-11.4,0.1-17h-8.6c-2.3,2.5-4.9,4.6-7.6,6.5l-0.6-0.4
			c3.6-6.4,5-13.5,5.5-20.8l10-0.1C384.5,112.4,383.3,115.7,381.6,119.1z M371.5,130.9c2.9,1.6,9.6,4.2,11.4,6.9
			c0.8,1.1,1.8,2.9,1.8,4.3c0,2.4-2.4,4.6-4.6,4.6c-3.7,0-4.3-2.6-4.8-5.5c-0.4-2-1-4-1.8-6c-0.8-1.5-2-2.6-2.7-4L371.5,130.9z"/>
		<path fill="#414042" d="M443.4,148.5V147h9.5v1.5h10.4v4.1h-10.4v7.7c0,4-3.2,5-6.5,5.3c-1.5,0.2-3.2,0.4-4.7,0.4
			c-4.8,0-2.3-2-5.2-4c-1.1-0.7-3.7-1.1-4.9-1.3l0.2-0.9c3.4,0.1,6.9,0.4,10.2,0.4c0.9,0,1.4-0.4,1.4-1.3v-6.2h-36.2v-4.2
			L443.4,148.5z M423.6,115.7c-2.6-2.3-1.1-4.1-4.4-6.5l0.3-0.5c3.4,0.3,7.6-0.4,10.5,1.5c1.1,0.6,1.8,1.3,1.8,2.6
			c0,1.1-0.5,2.1-1.1,2.9h7.5c1.1-2.4,1.9-4.8,2.6-7.2h11.3c-2.2,3.2-4.6,4.9-7.6,7.2h17.6v4h-19.3v2.5h4.2l2.5-2.2l8.9,1.8
			l-2.6,2.5v22.4h-8.6v-1.1h-24.5v1.1h-8.6v-26h8.6v1.3h4.3v-2.5h-19.6v-3.9L423.6,115.7z M417.7,152.9c2.4,0.6,5.3,0.8,7.6,1.6
			c2.1,0.8,4.3,2.3,4.3,4.8c0,2-2.5,3.4-4.1,3.4c-4.1,0-3.3-3.4-5-6.2c-0.8-1.2-2.1-2.2-3.3-3L417.7,152.9z M447.2,141.9v-6.7
			c-1.2,0.1-2.5,0.1-3.7,0.1c-3.4,0-7.1-0.4-7.1-4.6v-4.6h-3c-0.1,1-0.3,1.8-0.4,2.8c-0.2,1.4-1.1,2.7-2,3.7
			c-1.7,1.8-5.9,2.8-8.3,3.3v5.9L447.2,141.9L447.2,141.9z M422.8,126.1v8.5c1.9-1.3,3.6-3.4,4-5.8l0.4-2.7
			C427.1,126.1,422.8,126.1,422.8,126.1z M425.8,136.5h19l0.1,3.5h-19.1L425.8,136.5L425.8,136.5z M433.5,119.6v2.5h2.9v-2.5H433.5z
			 M447.2,126.1h-4.4v3.6c0,1.3,0.4,1.8,1.8,1.8c0.8,0,1.8-0.1,2.6-0.3V126.1z"/>
		<path fill="#414042" d="M504.6,136v3.3h-2.2v5.3c3.7-6.3,4.3-8.7,5.2-16h7.9c-0.4,1.4-0.8,2.7-1.2,4.1h11.8v3.7h-13.4
			c-1.1,1.8-2.1,3.3-3.4,5c1.1,2.3,2.4,4.2,3.9,6.2c1.1-3.2,1.7-6.3,2-9.7l8.7-0.1c-1.2,5.6-2.8,9.3-6,14.1c3.6,2.6,6,3.3,10.3,4.2
			l-0.1,0.7c-1.9,0.6-2.5,1-3,2.9c-0.1,0.4-0.3,0.9-0.3,1.3c0,1.3,0.8,2.5,1.3,3.6l-0.6,0.4c-5-2.1-8.1-4.6-12-8.4
			c-1.7,1.4-3.4,2.5-5.3,3.7c-1,0.5-1.9,1.2-2.9,1.7l-3.1,1.4v2.1h-6.1v-8.7c-4.3,2-8.7,3.9-13.1,5.5l-1.6-6.2
			c1.3-0.1,2.6-0.4,4-0.6v-16.5h-2.7c-0.1,5.6-0.7,12.1-3.8,16.9c-0.9,1.3-1.8,2.6-2.8,3.9c-0.7,1-1.5,2-2.5,2.7l-2.6,2.2l-0.6-0.3
			c1.4-3.3,3-6.9,3.8-10.5c0.8-4,1.3-8.4,1.3-12.6v-17.9h7.1v0.4h42.8v3.8l-42.7,0.1l-0.1,8.1h10.4v-2.7h-7.8v-3.3h20v3.6h-5.6v2.5
			L504.6,136L504.6,136z M482.7,108.2v1.8h7.7l2.7-2.4l7.5,2l-2.8,2.5v10.4h-7.1v-1.3h-8v1.1h-7.1v-14.2H482.7z M490.7,117.7v-4h-8
			v4H490.7z M496.2,142.1v-2.9h-4.8v2.9H496.2z M496.2,148.3v-2.7h-4.8v2.6L496.2,148.3L496.2,148.3z M496.2,153.4v-1.8h-4.8v3
			C493.1,154.3,494.7,153.8,496.2,153.4z M508.6,109.9h6.5l2.7-2.4l7.2,2l-2.7,2.2v10.7h-7.1v-1.3h-6.7v1.4h-7.1v-14.2h7.1V109.9z
			 M505.7,150.8l0.4,0.4c-1.2,1.2-2.2,1.8-3.7,2.7v8c3.2-2.7,5.5-5.7,7.9-9.1c-1.8-3.2-2.5-5.5-3.4-9.1c-1.5,1.2-3,2.4-4.6,3.4v4.6
			L505.7,150.8z M515.3,117.5v-4h-6.7v4H515.3z"/>
		<path fill="#414042" d="M95.5,195.4v1.8H99l1.9-2.5l8.1,1.8l-2.5,2.3l-0.1,44.6h-7.4v-4.1h-3.8v4.1h-7.2v-48H95.5z M95.5,201.1v9
			h3.8v-9H95.5z M99.2,222.7v-8.7h-3.8v8.7H99.2z M99.2,235.4v-8.5h-3.8v8.5H99.2z M120.9,233.3c-3.5,8.1-7.7,10.9-15.4,14.4
			l-0.6-0.4c3.2-2.8,6.2-7.5,6.7-11.7l0.3-2.3H120.9z M110.5,202c1.9,0.4,6.3,0.5,7.1,2.9l0.5,0.9c0.8-1.6,1.7-3.1,2.2-4.8h-10.7
			v-4.2H121c0.3-1.4,0.4-2.7,0.4-4.2h10c-0.2,1.5-0.5,2.8-0.8,4.2H144v4.2h-13.9c1.2,1.6,2.5,3.3,3.9,4.8c1.5-1.5,2-2.2,3-4.1l7,1.9
			c-2.6,2-4.3,2.9-7.6,3.8c3.3,1.8,5.7,2.6,9.5,3.2l-0.1,0.8c-1.6,0.3-2.3,0.5-2.9,2.1c-0.1,0.4-0.2,0.8-0.2,1.1
			c0,1.1,0.8,2.1,1.2,3l-0.6,0.4c-1.1-0.4-2.2-0.8-3.2-1.3v13.9h-8.8v-1.5h-10.8v1.5h-8.8v-14.5c-2.5,1-2,1.1-4.5,1.8l-0.1-0.8
			c3-1.7,4.1-3.4,6.4-5.9l2.3-2.5c-0.5,0.1-1.1,0.2-1.6,0.2c-2.1,0-2.7-1.8-3.1-3.4c-0.4-1.1-0.6-2.2-1.3-3.1L110.5,202z
			 M114.1,244.1c1.5,0.2,3.2,0.4,4.7,0.4c1.3,0,2.6-0.2,2.6-1.8v-11.8h8.2V245c0,2.6-1.1,3.7-3.6,4.3c-1.8,0.4-3.6,0.5-5.5,0.5
			c-1.4,0-1.4-0.9-1.8-2.1c-0.5-1.8-3.3-2.5-4.8-2.8L114.1,244.1z M131.4,218.1v-3.3h-10.9v3.3H131.4z M131.4,225.4v-3.5h-10.9v3.5
			H131.4z M128.2,204.1c-2,2.8-3.6,4.8-6.3,6.9h10.2C129.7,208.4,129.2,207.5,128.2,204.1z M131.6,234c2.3,0.9,6.2,2.2,8.6,4.3
			c1.8,1.5,3.2,3.3,3.2,5.4c0,2.3-2.3,4-4.6,4c-2.9,0-4-2.2-4.3-4.7c-0.2-1.4-0.4-2.8-0.8-4.1c-0.5-1.7-1.6-3.2-2.7-4.4L131.6,234z"
			/>
		<path fill="#414042" d="M160.4,239.5c-1.1,3.9-4.5,7.4-8.5,10.1l-0.9-0.4c0.6-1.5,1.1-2.9,1.5-4.5c1.4-4.4,1.8-10.5,1.8-15.1
			v-20.1h7.2v1.5h2.5c2.2-3.9,2.8-5.2,4.3-9.4h-4.9c-3.4,3.5-7.7,6-11.8,8.3l-0.6-0.4c1.1-1.3,2.2-2.6,3.2-4
			c2.5-3.5,3.7-8.5,4.6-12.7h9.7c-0.6,1.8-1.3,3.3-2.2,5h3.1l2.4-2.4l8.8,2.4l-3,2.2c-2.8,5.5-4.8,7.2-9.5,10.9h4l2.2-2l7.7,1.6
			l-2.5,2.3v19.3c2.4-4.8,2.7-8,3.3-13.2h8.1c-0.4,1.3-0.8,2.5-1.4,3.8h2v-5h8.6v5h7.2v3.9H200v7.1h7.9v4.3H200v11.8h-8.6v-11.8
			h-10.8v-4.3h10.8v-7.1h-4c-2.5,3.1-4.6,4.5-8,6.5v12.1c0,3.4-3.4,4.1-6.2,4.3c-1.3,0.1-2.7,0.3-4,0.3c-0.2,0-0.7,0-0.9-0.1
			c-0.6-0.4,0.1-2.1-1.8-3.4c-1.1-0.7-3.9-1.1-5-1.3v-0.9c2.8,0.2,5.7,0.3,8.6,0.3c1.6,0,2.1-0.1,2.1-1.8v-5.3h-11.1
			C160.8,238.2,160.6,238.5,160.4,239.5z M164.1,233.3v-7h-2.5l-0.1,6.9L164.1,233.3L164.1,233.3z M164.1,222.3v-7.4h-2.5v7.4H164.1
			z M172.2,222.3v-7.4h-2.6v7.4H172.2z M172.2,233.3v-7h-2.6v6.9L172.2,233.3L172.2,233.3z M180.9,199.6v-4.2h16.5l2.2-2.7l8.8,2.1
			l-2.5,2.5c0,4.2-0.1,8.4-0.2,12.7c-0.1,4.8-0.9,5.3-5.5,6.2c-1.1,0.3-2.5,0.5-3.7,0.5c-2.1,0-1.1-2.8-2.7-4
			c-0.7-0.5-2.2-0.8-3.1-0.8V211c1.6,0.1,3.2,0.2,4.8,0.2c2.7,0,2.2-1.1,2.2-3.2c0-1.9,0.2-3.9,0.2-5.7v-2.7h-5
			c-0.3,2.2-0.4,4.5-1,6.7c-1.4,5.7-6.2,8.1-11,10.7l-0.5-0.6c2.6-3,3.8-5.6,4.3-9.6c0.3-2.4,0.4-4.8,0.6-7.1H180.9z"/>
		<path fill="#414042" d="M239.1,198.8c-1.9-1.4-1.7-4-3.6-5l-1.5-0.8l0.1-0.7c1.5-0.1,5.3-0.9,6.7-0.9c2.7,0,6.9,0.8,6.9,4.8
			c0,1.1-0.8,1.9-1.5,2.6h25v4.3h-56.3v-4.3L239.1,198.8L239.1,198.8z M226.9,220.9v1.8h31.3l2.5-2.8l10.9,1.9l-3.2,2.8v19.5
			c0,1.1-0.4,1.9-0.8,2.7c-1.4,2.2-7.5,2.9-10,2.9c-4,0-0.8-2.5-4.2-4.1c-1.3-0.6-4.3-1.1-5.7-1.3l0.2-0.9c2.7,0.1,5.4,0.4,8.1,0.4
			c2,0,2.7-0.1,2.7-2.3v-14.6h-31.7v22.8h-9.3v-28.6L226.9,220.9L226.9,220.9z M233.2,206h18.2l2.6-2.4l10.4,1.8l-2.9,2.4v11.7H252
			v-1.2h-18.9l0.1,1.5h-9v-15.3h9V206z M239.5,230h5.7l2.2-2.2l9.1,1.7l-2.8,2.2v10.9h-8v-1.3h-6.1l-0.1,1.5h-7.8v-14.3h7.8V230z
			 M252.2,214.2v-4.1h-19v4.1H252.2z M245.7,237.5v-3.8h-6.2v3.8H245.7z"/>
		<path fill="#414042" d="M285.4,232.1c1.3,2.8,4.1,6.2,4.1,9.3c0,1.4-0.8,2.8-1.2,4.1c-0.6,1.9-1.7,3.3-4.4,3
			c-6.4-0.6-4.4-5.5-2-9.3c1.4-2.2,2.2-4.6,2.7-7.1L285.4,232.1L285.4,232.1z M293,197.4c0.6-1.5,1.1-3.2,1.3-4.8h12.5
			c-3.5,3.3-5.6,4.8-10.2,6.4h21.9l2.9-2.6l9.5,2.1l-2.5,2.5V230h-9.6v-2.9h-23.1v2.9h-9.3v-32.5H293z M301.9,232.3v9.3
			c0,2.2,2.7,1.9,4.5,1.9c2.4,0,5.1,0,7.3-1.1s4.5-5,5.7-7.1l1.1,0.3c-0.5,1.3-1,2.7-1,4.1c0,3,3.7,2.7,3.7,3.9
			c0,0.3-0.2,0.5-0.4,0.7c-1.9,2.6-5.5,4-8.6,4.8c-2.9,0.7-6,0.5-9,0.5c-3.5,0-9.3-0.1-11.6-3.3c-0.8-1.1-0.9-2.5-0.9-3.7v-10.2
			L301.9,232.3L301.9,232.3z M318.9,206.8v-3.8h-23.1v3.8H318.9z M318.9,214.8v-4.1h-23.1v4.1H318.9z M318.9,222.8V219h-23.1v3.8
			H318.9z M301.9,228.2c3,0.7,6,1.2,8.8,2.5c1.9,0.8,4.3,2.6,4.6,4.3c0.5,2.9-1.1,4.9-4.1,4.9c-3.8,0-4.1-2.6-5.5-5.5
			c-1-2.2-2.4-4.2-4.1-5.8L301.9,228.2z M322.7,232.1c4.4,2.2,9.2,2.7,11.4,7.6c1.4,3.2,1.8,9.1-3.3,9.1c-3.9,0-4.3-2.1-4.6-5.2
			c-0.4-4.5-1.2-7.6-4.1-11.2L322.7,232.1z"/>
		<path fill="#414042" d="M364.2,192.8c-2.2,4.6-5.3,8.1-9.5,10.9l5.3,0.1l2.2-2.4l10,1.6l-2.9,2.5v43h-9v-3.9h-6.7v3.9h-8.8v-46.1
			h6.9c0.9-3.2,1.5-6.2,1.8-9.5L364.2,192.8z M360.2,221.3v-13.5h-6.7v13.5H360.2z M360.2,225.3h-6.7v15.1h6.7V225.3z M381.6,203.2
			h5l2.4-2.6l9.9,2l-2.6,2.4c0,10-0.1,19.9-0.2,29.9c0,2.7,0,5.4-0.1,8.1c-0.1,1.1-0.2,2.5-0.7,3.4c-1.6,3.1-8.6,3.6-11.6,3.6
			c-3,0-0.8-2.5-3.5-4.5c-1.8-1.2-4.8-1.5-6.8-1.8v-0.8c2,0,4.1,0.1,6.2,0.1c1.4,0,5.5,0.4,6.7-0.8c0.4-0.4,0.4-1.2,0.4-1.8
			c0-1,0.1-2,0.1-2.9c0.2-4.2,0.1-8.6,0.1-12.8c0-5.7,0.1-11.4,0.1-17h-8.6c-2.3,2.5-4.9,4.6-7.6,6.5l-0.6-0.4
			c3.6-6.4,5-13.5,5.5-20.8l10-0.1C384.5,196.5,383.3,199.8,381.6,203.2z M371.5,215c2.9,1.6,9.6,4.2,11.4,6.9
			c0.8,1.1,1.8,2.9,1.8,4.3c0,2.4-2.4,4.6-4.6,4.6c-3.7,0-4.3-2.6-4.8-5.5c-0.4-2-1-4-1.8-6c-0.8-1.5-2-2.6-2.7-4L371.5,215z"/>
		<path fill="#414042" d="M416.2,212.4v-3.7h-10v-4.1h10l0.1-6.2c-3.2-0.4-6.6-0.6-9.7-1.5v-0.6c6.2-0.7,11.9-2,17.7-4.2l11,4.6
			c-3.4,1.1-6.9,1.6-10.4,1.8v6.1h9.1v4.1h-9.1v3.3c1.5,0.4,4.5,0.4,6.9,1.7c1.8,1,3.2,2.1,3.2,3.6c0,2.2-0.7,4-3.5,4.1
			c-2.7,0.1-3.1-1.8-3.9-3.8c-0.6-1.4-1.5-2.7-2.6-3.8v35.8h-8.7v-20.3c-3.2,4.2-5.5,6.8-9.5,10.3l-0.5-0.4c4-8.7,5-17.4,6-26.8
			H416.2z M445.1,203.8v18.7c4.4-6.8,7.6-14.6,8.9-22.6h9.1c-2,7.9-3.9,13.7-8.3,20.7c4.1,2.2,9.4,5,9.4,10.3c0,2.2-1.3,3.3-4,3.5
			c-1.8,0.1-3.9-1.6-4.1-3.3c-0.4-2.5,0.1-4.1-0.6-6.6c-0.3-1.1-0.7-2-1.1-3.1c-2.7,4.1-5.7,7.6-9.2,10.9v7.9c0,2.2,1.3,2.4,3.2,2.4
			c1.4,0,2.8-0.1,4.2-0.6c1.8-0.5,4-5.1,4.8-6.7l1,0.3c-0.2,1.2-0.4,2.5-0.4,3.6c0,3.1,3.9,2.2,3.9,3.6c0,0.5-0.6,1.1-0.9,1.5
			c-3.5,4.1-8,4.8-13.1,4.8c-2.2,0-8.7-0.1-9.9-2.5c-1.2-2.5-1.1-4-1.1-6.8c-3.3,2.5-6.7,4.8-10.3,6.9l-0.5-0.4
			c3.9-3.9,7.6-7.9,10.8-12.3v-30.1L445.1,203.8L445.1,203.8z M431.5,222.2c2,2,3.8,5.5,3.8,8.4c0,3.2-1.8,5-4.8,5c-1.5,0-4-1.3-4-3
			c0-1.6,1.3-3,2-4.2c1.1-1.9,2-3.9,2.2-6.2H431.5z M436.9,192.3c3.2,0.4,11.4,1.1,13.8,2.9c1.1,0.8,2.5,2.7,2.5,4.1
			c0,2-2.7,4-4.5,4c-3.4,0-4.6-2.7-6.2-5.3c-1.5-2.2-3.6-3.7-5.8-5.3L436.9,192.3z"/>
		<path fill="#414042" d="M484.3,221.7v-12.5h8.6v8.1c2.9-1.8,5.5-3.8,8-6.1c-0.6,0.4-1.8,0.7-2.6,0.7c-1.8,0-3.2-2.3-3.9-3.7
			c-1.1-2-2-2.3-4-3.2l0.2-0.5h1.1c1.8,0,7.1,0,8.6,1.1c1,0.7,2.4,1.8,2.4,3.2c0,0.4-0.1,0.6-0.3,0.9l1.7-1.8l8.8,1.7
			c-2.9,2.7-5.6,5.5-9,7.6c-2.5,1.5-4.8,2.9-7.4,4.2c0.4,0.4,0.6,0.4,1.2,0.4c8.1,0,10.2-0.1,14.9-7l0.8,0.4
			c-0.4,1.1-0.9,2.2-0.9,3.3c0,3.2,3.5,2.3,3.5,3.2c0,0.4-0.7,1.3-1,1.6c-0.8,0.9-1.5,1.8-2.5,2.5c-3.5,2.1-9.9,1.9-13.9,1.9
			c-2.3,0-7.6-0.1-9.5-0.9l-2.5-1.1c-3.4,0.8-6.9,1.4-10.4,1.7c-1.5,0.1-3,0.3-4.6,0.4l-0.3-0.6
			C475.9,225.3,480.2,223.8,484.3,221.7z M491.5,192.2c1.4-0.6,3.6-1.4,5.2-1.4c1.8,0,7.4,1.2,7.7,3.9c0.1,0.4,0.1,0.8,0.1,1.2
			c0,2-0.4,2.4-2,3.3h12.8l3-2.8l10.6,2.1c-1.1,0.8-2.2,1.7-3.2,2.5c-0.4,0.3-0.8,1.1-1.1,1.5c-0.9,1.1-1.9,2.2-3,3.2
			c-2,1.8-4.8,3.3-7.4,4.3l-0.6-0.3c0.5-2.1,0.8-4.2,1.1-6.3h-33.4c0.1,0.4,0.1,1,0.1,1.5c0,0.4,0,0.7,0,1.1
			c-0.3,2.5-3.3,4.2-5.5,4.2c-1.7,0-4-1.3-4-3.2c0-3.2,3.3-6.2,3.4-8.3l0.3-3.3l0.8-0.1c1.4,1.2,2.5,2.3,3.6,3.8h16.4
			c-3.1-1.6-0.9-3.9-4.8-6.5L491.5,192.2z M481.2,210.2c0.3,1.9,1.1,3.4,1.1,5.4c0,1.1-0.7,2.5-1.1,3.4c-0.9,2.2-2.5,4-4.9,4
			c-1.7,0-4.1-0.8-4.1-2.9c0-2.2,2.6-3.9,4-5c1.1-0.9,2.9-2.4,3.6-3.6l0.7-1.3H481.2z M477.5,245.2v-14.4h8.9v12.1h8.6v-14.4h9.2
			v14.4h9v-12.1h8.8v19.1h-8.8v-2.5h-26.6l-2.7,2.4l-9.2-2.1L477.5,245.2z M515.3,211.5c4.2,1.2,8.7,2.6,11.2,6.4
			c0.4,0.6,0.7,1.4,0.7,2.2c0,2.5-1.9,4.1-4.3,4.1c-1.5,0-2.9-0.5-3.8-1.8c-1.1-1.3-0.6-4.8-1.5-6.9c-0.6-1.3-1.8-2.6-2.7-3.6
			L515.3,211.5z"/>
	</g>
</g>
</svg>
