<?xml version="1.0" encoding="utf-8"?>
<!-- Generator: Adobe Illustrator 18.0.0, SVG Export Plug-In . SVG Version: 6.00 Build 0)  -->
<!DOCTYPE svg PUBLIC "-//W3C//DTD SVG 1.1//EN" "http://www.w3.org/Graphics/SVG/1.1/DTD/svg11.dtd">
<svg version="1.1" id="Layer_1" xmlns="http://www.w3.org/2000/svg" xmlns:xlink="http://www.w3.org/1999/xlink" x="0px" y="0px"
	 viewBox="0 0 4888.8 853.9" enable-background="new 0 0 4888.8 853.9" xml:space="preserve">
<path fill="#87BAB4" d="M814.2,696.4c-27.7-38.9-78.2-41.7-108.9-6l0,0c-30.7,35.7-81.2,32.9-108.9-6l-2.3-3.2
	c-26.6-37.4-77-32.6-98,9.3L476,730.4c-14.5,28.9-49.3,32.1-67.6,6.4l-57-80.2c-27.2-38.3-80.7-15.9-80.7,33.7v0
	c0,49.6-53.5,72-80.6,33.7l-30.5-43c-26.6-37.4-77-32.6-98,9.3L0,813.2h209.2h44.3h181h28.2h181H688h209.2L814.2,696.4z"/>
<g>
	<path fill="#669585" d="M667.8,557.4c-24.4-25.6-19.5-56.2-8.4-86.5c11.8-32.4,7.9-75.6-18-100.6c-20-19.3-27.1-51-14-76.4l3.4-6.7
		c4.3-8.4,6.8-17.8,6.4-27.3c-1-24.4-18.2-44.2-41.1-49.4l-1.3-0.3c-17.8-4-36.4-2.5-53.3,4.4c-13.2,5.3-24.2,15.3-29.8,28.4
		c-7.6,17.8-4.9,37.7,6.1,52.4l5.2,7c5.9,7.9,9.5,17.3,10.3,27.2c0.9,11.1,2.5,22.9-1.5,33.6c-7.1,19.1-22.5,30-24.5,51.9
		c-1.9,20.9,1.4,46.9,12,65.4l9.4,16.3c13.1,22.6,12,50.7-2.6,72.2c-11.2,16.5-16.5,36.4-14.8,56.4l1.8,21.5
		c0.8,10.1,3.4,20,7.6,29.2l50.2,110l44.2-3.6l44.2-3.6l31.6-116.7c2.6-9.8,3.6-19.9,2.7-30l-1.8-21.5
		C690,590.7,681.6,571.9,667.8,557.4z"/>
	<path fill="#86A699" d="M613.8,699.2l-9.9,0.8c-1,0.1-1.9-0.7-2-1.7l-31.7-386.7c-0.1-1,0.7-1.9,1.7-2l9.9-0.8c1-0.1,1.9,0.7,2,1.7
		l31.7,386.7C615.5,698.2,614.8,699.1,613.8,699.2z"/>
	<path fill="#86A699" d="M587.8,405.3c-1.3,0.1-2.7-0.3-3.9-1.2c-2.4-1.9-2.8-5.4-0.9-7.8l25.8-32.6c1.9-2.4,5.4-2.8,7.8-0.9
		c2.4,1.9,2.8,5.4,0.9,7.8l-25.8,32.6C590.7,404.5,589.3,405.2,587.8,405.3z"/>
	<path fill="#86A699" d="M588.9,465.8c-1.3,0.1-2.7-0.3-3.9-1.2l-44.1-34.8c-2.4-1.9-2.8-5.4-0.9-7.8c1.9-2.4,5.4-2.8,7.8-0.9
		l44.1,34.8c2.4,1.9,2.8,5.4,0.9,7.8C591.8,465,590.4,465.7,588.9,465.8z"/>
	<path fill="#77B67A" d="M596.2,546.2c-1.6,0.1-3.2-0.4-4.4-1.7c-2.1-2.2-2.1-5.7,0.1-7.8l37.3-36.4c2.2-2.1,5.7-2.1,7.8,0.1
		c2.1,2.2,2.1,5.7-0.1,7.8l-37.3,36.4C598.6,545.5,597.4,546.1,596.2,546.2z"/>
	<path fill="#86A699" d="M602,626c-1.3,0.1-2.6-0.2-3.7-1.1l-38.6-28.3c-2.5-1.8-3-5.3-1.2-7.7c1.8-2.5,5.3-3,7.7-1.2l38.6,28.3
		c2.5,1.8,3,5.3,1.2,7.7C605.1,625.1,603.6,625.9,602,626z"/>
</g>
<g>
	<path fill="#669585" d="M729.5,625.7c-12.2-29.8,7.9-44.4,21.7-66.9c11.9-19.5,15.8-43,11.4-65.3c-4.1-20.3-9.2-39.7,8.6-55.4
		l4.1-3.6c5.1-4.5,9.2-10.2,11.4-16.7c5.7-16.7-0.7-34.5-14.7-43.9l-0.8-0.5c-10.9-7.3-23.8-11.2-36.9-11
		c-10.3,0.1-20.3,4-27.5,11.3c-9.8,10-13.1,24-9.6,36.8c0,0,1.7,6,1.7,6c6,21.6-5.4,36.4-20.8,50c-17.9,15.8-29,36.4-28.4,60.9
		c0.2,10.1,2.5,20,2.5,30c0.1,15.7-8,30.1-20.9,38.9c-11.9,8.2-20.6,20.2-24.7,34l-4.4,14.9c-2.1,7-2.9,14.3-2.5,21.6l5,87l30.6,9.1
		l30.6,9.1l51.7-70.2c4.3-5.9,7.6-12.5,9.7-19.5l4.4-14.9C735.7,653.8,734.9,639,729.5,625.7z"/>
	<path fill="#86A699" d="M655.6,706.7l-5.9-1.8c-1-0.3-1.5-1.3-1.2-2.3l79.4-267.2c0.3-1,1.3-1.5,2.3-1.2l5.9,1.8
		c1,0.3,1.5,1.3,1.2,2.3l-79.4,267.2C657.6,706.4,656.6,707,655.6,706.7z"/>
	<path fill="#86A699" d="M715.4,502.6c-0.9-0.3-1.8-0.9-2.3-1.8c-1.1-1.9-0.5-4.4,1.4-5.5l25.8-15.2c1.9-1.1,4.4-0.5,5.5,1.4
		c1.1,1.9,0.5,4.4-1.4,5.5l-25.8,15.2C717.6,502.8,716.4,502.9,715.4,502.6z"/>
	<path fill="#86A699" d="M700.4,543.5c-0.9-0.3-1.8-0.9-2.3-1.8l-20.6-34.9c-1.1-1.9-0.5-4.4,1.4-5.5c1.9-1.1,4.4-0.5,5.5,1.4
		l20.6,34.9c1.1,1.9,0.5,4.4-1.4,5.5C702.5,543.7,701.4,543.8,700.4,543.5z"/>
	<path fill="#77B67A" d="M684.3,599.4c-1.1-0.3-2.1-1.1-2.5-2.3c-0.9-2,0.1-4.4,2.1-5.2l34.5-14.7c2-0.9,4.4,0.1,5.2,2.1
		c0.9,2-0.1,4.4-2.1,5.2L687,599.3C686.1,599.6,685.1,599.7,684.3,599.4z"/>
	<path fill="#86A699" d="M667.4,654.6c-0.9-0.3-1.7-0.8-2.2-1.7l-18.6-29.1c-1.2-1.9-0.6-4.3,1.2-5.5c1.9-1.2,4.3-0.6,5.5,1.2
		l18.6,29.1c1.2,1.9,0.6,4.3-1.2,5.5C669.6,654.8,668.4,654.9,667.4,654.6z"/>
</g>
<g>
	<path fill="#AFD0A1" d="M403.9,660.4c-9.1-8.1-12.7-20.7-9.4-32.4l2.4-8.5c3.4-11.8,0.5-29.9-7-39.7c-3.3-4.3-8.4-7.2-11.6-11.5
		c-3.2-4.3-4-10.2-4.9-15.4c-0.8-4.5-0.2-9.2,1.6-13.5l1.3-3.2c1.7-4.1,2.5-8.5,1.9-12.9c-1.4-11.3-10.2-19.9-21-21.4l-0.6-0.1
		c-8.4-1.2-17,0.3-24.6,4.1c-5.9,3-10.7,8.1-12.8,14.3c-2.9,8.6-0.8,17.7,4.9,24.1l2.7,3c3,3.5,5.1,7.7,5.8,12.2
		c0.9,5.7,2.2,12-0.1,17.6c-2.5,6.1-6.9,10.5-8.1,17.3c-1.8,10.6,1.2,26.9,7.4,35.8l5,7.2c6.9,10,7.5,23.1,1.6,33.7
		c-4.6,8.1-6.3,17.6-4.7,26.8l1.7,10c0.8,4.7,2.3,9.2,4.7,13.3l27.6,49.2l20.4-3.4l20.4-3.4l10.2-55.5c0.9-4.6,0.9-9.4,0.1-14.1
		l-1.7-10C415.5,675.1,410.9,666.6,403.9,660.4z"/>
	<path fill="#7DC1A1" d="M383.3,728.6l-2.6,0.4c-1,0.2-2-0.5-2.1-1.5l-29.3-176.6c-0.2-1,0.5-2,1.5-2.1l2.6-0.4c1-0.2,2,0.5,2.1,1.5
		l29.3,176.6C385,727.5,384.3,728.5,383.3,728.6z"/>
	<path fill="#7DC1A1" d="M360.9,592.8c-0.6,0.1-1.3,0-1.9-0.4c-1.2-0.8-1.5-2.4-0.7-3.6l10.7-16.2c0.8-1.2,2.4-1.5,3.6-0.7
		c1.2,0.8,1.5,2.4,0.7,3.6l-10.7,16.2C362.2,592.3,361.6,592.7,360.9,592.8z"/>
	<path fill="#7DC1A1" d="M363.7,620.9c-0.6,0.1-1.3,0-1.9-0.4L340,606.1c-1.2-0.8-1.5-2.4-0.7-3.6c0.8-1.2,2.4-1.5,3.6-0.7
		l21.8,14.5c1.2,0.8,1.5,2.4,0.7,3.6C365.1,620.4,364.4,620.8,363.7,620.9z"/>
	<path fill="#7DC1A1" d="M370.2,658c-0.7,0.1-1.5-0.1-2.1-0.6c-1.1-0.9-1.2-2.6-0.3-3.6l15.9-18.3c0.9-1.1,2.6-1.2,3.6-0.3
		c1.1,0.9,1.2,2.6,0.3,3.6l-15.9,18.3C371.3,657.6,370.8,657.9,370.2,658z"/>
	<path fill="#7DC1A1" d="M376,694.9c-0.6,0.1-1.2,0-1.8-0.3l-19.1-11.7c-1.2-0.7-1.6-2.3-0.9-3.6c0.7-1.2,2.3-1.6,3.6-0.9l19.1,11.7
		c1.2,0.7,1.6,2.3,0.9,3.6C377.4,694.3,376.7,694.8,376,694.9z"/>
</g>
<g>
	<path fill="#AFD0A1" d="M479.3,668.3c-6.4-10.8-6-24.3,1-34.8c7.5-11.2,13.2-25,12-38.9c-1.3-15.3-11.4-25.4-9-41.5
		c0.7-4.7,2.7-9.1,5.8-12.7l2.3-2.8c3-3.5,5.1-7.6,6-12.1c2.2-11.5-3.7-22.7-13.9-27.6l-0.6-0.3c-7.9-3.8-16.8-5.1-25.4-3.8
		c-6.8,1.1-13,4.5-17.1,10c-5.5,7.5-6.4,17.1-2.9,25.2l1.7,3.8c1.9,4.4,2.5,9.2,1.8,13.9c-0.7,4.7-1.2,10.1-3.7,14.2
		c-2.8,4.8-7.9,8.2-11.5,12.4c-5.8,6.9-8.7,16-9.2,25c-1.2,21.3,14,42.1-5.1,59.8c-7.1,6.5-11.7,15.3-13.1,24.8l-1.5,10.3
		c-0.7,4.8-0.6,9.7,0.4,14.5l11.5,57l21.1,3.1l21.1,3.1l27.5-51.2c2.3-4.3,3.9-9,4.6-13.8l1.5-10.3
		C486.1,686.3,484.2,676.6,479.3,668.3z"/>
	<path fill="#7DC1A1" d="M437.5,728.7l-2.9-0.4c-1-0.2-1.7-1.1-1.6-2.1l27.1-182.8c0.2-1,1.1-1.7,2.1-1.6l2.9,0.4
		c1,0.2,1.7,1.1,1.6,2.1l-27.1,182.8C439.5,728.2,438.5,728.9,437.5,728.7z"/>
	<path fill="#7DC1A1" d="M458.4,588.3c-0.6-0.1-1.3-0.4-1.7-1c-0.9-1.2-0.7-2.8,0.4-3.7l15.6-12.5c1.2-0.9,2.8-0.7,3.7,0.4
		c0.9,1.2,0.7,2.8-0.4,3.7l-15.6,12.5C459.9,588.2,459.1,588.4,458.4,588.3z"/>
	<path fill="#7DC1A1" d="M452.3,616.8c-0.6-0.1-1.3-0.4-1.7-1l-16.9-21.1c-0.9-1.2-0.7-2.8,0.4-3.7c1.2-0.9,2.8-0.7,3.7,0.4
		l16.9,21.1c0.9,1.2,0.7,2.8-0.4,3.7C453.8,616.7,453,616.9,452.3,616.8z"/>
	<path fill="#7DC1A1" d="M447,655.2c-0.8-0.1-1.5-0.6-1.9-1.3c-0.8-1.3-0.4-2.9,0.9-3.7l21.4-13c1.3-0.8,2.9-0.4,3.7,0.9
		c0.8,1.3,0.4,2.9-0.9,3.7l-21.4,13C448.2,655.2,447.6,655.3,447,655.2z"/>
	<path fill="#7DC1A1" d="M441,693.3c-0.6-0.1-1.2-0.4-1.6-0.9l-15-17.5c-1-1.1-0.8-2.8,0.3-3.8c1.1-1,2.8-0.8,3.8,0.3l15,17.5
		c1,1.1,0.8,2.8-0.3,3.8C442.5,693.2,441.7,693.4,441,693.3z"/>
</g>
<g>
	<g>
		<path fill="#669585" d="M1460.3,390.1c-137.1,67.6-87.5,213.2-87.5,213.2S1510.5,534.5,1460.3,390.1z"/>
	</g>
	<path fill="#1CA6A3" d="M1395.1,556.8c2.4-4.5,4.8-9.1,7.1-13.6c0,0,0.1,0,0.1,0c0,0,0,0,0-0.1c1.3-2.5,2.5-5.1,3.8-7.6
		c7.6,4,15.9,1.7,23.7-1.8c-1.5,0.7-3,1.1-4.6,1.6c-0.1,0-0.3,0-0.6,0c-0.7,0-1.4,0.2-2.1,0.2c-1.6,0.1-3.2-0.1-4.8-0.4
		c-3.1-0.6-5.8-1.9-8.2-3.8c-0.3-0.2-0.8-0.1-1.4,0.2c3-6.4,5.9-12.8,8.8-19.2c0,0,0.1,0,0.1,0c0,0,0-0.1,0-0.1
		c1.1-2.5,2.2-5,3.2-7.5c8.3,3,19.7-0.8,24.7-7.9c-1,1.5-5.2,0.7-6.3,2.2c-1.1,1.6-2.5,2.6-3.7,4c-0.6,0.3-0.9,0.5-1.1,0.7
		c-0.5,0.1-1,0.1-1.4,0.1c-3.4,0-6.5-1.1-9.3-3.1c-0.3-0.2-0.7-0.1-1.2,0.1c2.5-6.1,4.8-12.2,7.1-18.3c0.1,0,0.2,0,0.2,0.1
		c-0.1-0.1-0.1-0.1-0.2-0.2c0.6-1.5,1.1-3,1.6-4.5c0.3-0.1,0.6-0.3,0.8-0.5c9-8.9,17.3-18.4,25-28.5c-1.1,1.5-5.1,0.7-6.3,2.2
		c-5.5,7.2-11.3,14-17.4,20.6c5.2-15,9.8-30.3,13.8-45.7c-0.3,1.2-5.9,1-6.3,2.2c-4.2,16.4-9.2,32.5-14.8,48.4
		c-3.9-8.9-4.2-20.8-5.7-29.6c0.1,0.3-6.3,1.8-6.3,2.2c1.8,10.9,1.8,26.4,9.1,35.3c-2.7,7.3-5.6,14.6-8.6,21.9
		c-4.8-10.4-8.2-21.4-10.1-32.6c0.1,0.3-6.3,1.8-6.3,2.2c2.3,13.3,6.7,26.5,13,38.5c-3.3,7.5-6.7,14.9-10.2,22.3
		c-2.1-6.7-4.3-13.5-6.4-20.2c0,0-6.3,2.1-6.3,2.2c2.8,8.9,5.6,17.7,8.5,26.6c-2.3,4.6-4.7,9.2-7.2,13.7
		C1389.6,557.6,1394.3,558.3,1395.1,556.8z M1423.7,535.8c-0.1,0-0.2,0.1-0.3,0.1C1423.5,535.9,1423.6,535.8,1423.7,535.8z"/>
</g>
<g>
	<g>
		<path fill="#669585" d="M1587.5,434.9c-152.5-10.3-182.6,140.6-182.6,140.6S1558.5,585,1587.5,434.9z"/>
	</g>
	<path fill="#77B67A" d="M1447.4,546.4c4.4-2.7,8.7-5.4,13-8.2c0.1,0,0.1,0,0.1,0c0,0,0,0,0-0.1c2.4-1.6,4.8-3.1,7.1-4.7
		c4.6,7.2,12.9,9.5,21.4,10.3c-1.6-0.2-3.2-0.6-4.8-0.9c-0.1-0.1-0.3-0.1-0.5-0.3c-0.6-0.3-1.3-0.6-2-0.9c-1.4-0.7-2.8-1.7-4-2.7
		c-2.3-2.1-4-4.6-5.2-7.5c-0.1-0.3-0.6-0.5-1.3-0.5c5.8-4,11.5-8.1,17.2-12.2c0,0,0.1,0,0.1,0c0,0,0-0.1,0-0.1
		c2.2-1.6,4.4-3.3,6.6-4.9c5.7,6.8,17.5,9.2,25.3,5.5c-1.6,0.8-4.9-2-6.6-1.2c-1.7,0.8-3.5,1-5.3,1.6c-0.6,0-1.1,0-1.3,0
		c-0.4-0.2-0.9-0.4-1.3-0.6c-3-1.7-5.1-4.3-6.5-7.3c-0.1-0.3-0.6-0.4-1.1-0.5c5.2-4,10.3-8.1,15.4-12.3c0.1,0,0.2,0.1,0.2,0.2
		c0-0.1,0-0.2,0-0.3c1.2-1,2.5-2,3.7-3.1c0.3,0,0.7,0,1,0c12.3-3.2,24.2-7.2,36-12.1c-1.7,0.7-4.8-1.9-6.6-1.2
		c-8.3,3.5-16.8,6.5-25.4,9.1c12-10.4,23.7-21.2,34.9-32.6c-0.8,0.9-5.6-2.1-6.6-1.2c-11.9,12-24.2,23.5-37.1,34.5
		c1.1-9.7,6.8-20.1,9.9-28.5c-0.1,0.3-6.4-1.6-6.6-1.2c-3.9,10.4-11.6,23.8-9.8,35.1c-6,5-12.2,9.9-18.4,14.6
		c1.1-11.3,3.6-22.7,7.6-33.3c-0.1,0.3-6.4-1.6-6.6-1.2c-4.7,12.7-7.5,26.3-8.1,39.8c-6.6,4.9-13.3,9.6-20,14.2
		c1.5-6.9,3-13.8,4.6-20.7c0,0-6.5-1.3-6.6-1.2c-2,9.1-4,18.2-6,27.2c-4.3,2.8-8.7,5.6-13.1,8.3
		C1442.3,544.4,1446,547.3,1447.4,546.4z M1482.7,542.6c-0.1,0-0.2,0-0.3,0C1482.5,542.6,1482.6,542.6,1482.7,542.6z"/>
</g>
<g>
	<g>
		<path fill="#AFD0A1" d="M1313.4,393.2c-71.1,135.3,54.7,223.9,54.7,223.9S1438.9,480.4,1313.4,393.2z"/>
	</g>
	<path fill="#7CB397" d="M1359.4,566.8c-0.7-5.1-1.5-10.2-2.3-15.2c0,0,0-0.1,0-0.1c0,0,0,0,0,0c-0.5-2.8-0.9-5.6-1.4-8.4
		c8.4-1.3,13.9-8,18.1-15.3c-0.8,1.4-1.8,2.7-2.8,4c-0.1,0.1-0.2,0.2-0.4,0.3c-0.6,0.5-1,1-1.6,1.4c-1.3,1-2.7,1.9-4.1,2.5
		c-2.8,1.3-5.8,1.8-8.9,1.7c-0.3,0-0.7,0.4-1,1c-1.3-6.9-2.7-13.8-4.2-20.7c0,0,0.1,0,0.1,0c0,0-0.1,0-0.1,0c-0.6-2.7-1.2-5.3-1.8-8
		c8.5-2.5,15.5-12.3,15.3-21c0,1.8-3.8,3.7-3.7,5.5c0,1.9-0.5,3.6-0.7,5.5c-0.3,0.6-0.4,1-0.5,1.2c-0.4,0.3-0.7,0.6-1.1,0.9
		c-2.8,2-6,2.9-9.3,3c-0.3,0-0.6,0.3-0.9,0.8c-1.6-6.4-3.3-12.7-5-19c0.1-0.1,0.2-0.1,0.2-0.1c-0.1,0-0.2-0.1-0.3-0.1
		c-0.4-1.5-0.9-3.1-1.3-4.6c0.2-0.3,0.3-0.6,0.4-0.9c2-12.5,3.2-25.1,3.5-37.8c0,1.8-3.7,3.6-3.7,5.5c-0.2,9-0.9,18-1.9,26.9
		c-4.6-15.2-9.8-30.3-15.7-45.1c0.4,1.1-4.2,4.3-3.7,5.5c6.2,15.7,11.7,31.7,16.6,47.9c-8.4-4.9-15.6-14.3-22.1-20.6
		c0.2,0.2-4.1,5.2-3.7,5.5c7.9,7.7,17,20.2,28.2,23.2c2.1,7.5,4.1,15.1,5.9,22.7c-9.9-5.6-19.3-12.5-27.4-20.4
		c0.2,0.2-4.1,5.2-3.7,5.5c9.7,9.4,21,17.5,33.1,23.5c1.8,8,3.4,16,4.9,24.1c-5.7-4.2-11.4-8.4-17.1-12.6c0,0-3.9,5.4-3.7,5.5
		c7.5,5.5,15,11,22.5,16.5c0.8,5.1,1.6,10.2,2.3,15.3C1355.4,570.7,1359.6,568.5,1359.4,566.8z M1370.1,533c0,0.1-0.1,0.2-0.1,0.2
		C1370,533.2,1370,533.1,1370.1,533z"/>
</g>
<g>
	<g>
		<path fill="#AFD0A1" d="M1484,406.4C1340,457.6,1372.4,608,1372.4,608S1517.1,555.7,1484,406.4z"/>
	</g>
	<path fill="#7CB397" d="M1400.1,565.2c2.9-4.2,5.8-8.5,8.6-12.7c0,0,0.1,0,0.1,0c0,0,0,0,0-0.1c1.6-2.4,3.1-4.8,4.6-7.2
		c7.1,4.8,15.6,3.6,23.7,1c-1.5,0.5-3.1,0.7-4.7,1c-0.1,0-0.3,0-0.6,0c-0.7,0-1.4,0-2.2,0c-1.6-0.1-3.2-0.4-4.8-0.9
		c-3-1-5.5-2.6-7.7-4.8c-0.2-0.2-0.8-0.2-1.4,0c3.8-6,7.4-12,10.9-18.1c0,0,0.1,0,0.1,0c0,0,0-0.1,0-0.1c1.4-2.4,2.7-4.7,4.1-7.1
		c7.9,4,19.7,1.5,25.4-5c-1.2,1.3-5.3,0.1-6.5,1.5c-1.3,1.4-2.8,2.3-4.2,3.6c-0.6,0.2-1,0.4-1.1,0.5c-0.5,0-1,0-1.4-0.1
		c-3.4-0.4-6.4-1.9-8.9-4.1c-0.2-0.2-0.7-0.2-1.2,0c3.2-5.7,6.2-11.5,9.2-17.4c0.1,0,0.2,0,0.2,0.1c0-0.1-0.1-0.2-0.1-0.2
		c0.7-1.4,1.4-2.8,2.2-4.3c0.3-0.1,0.6-0.2,0.9-0.4c10-7.8,19.4-16.3,28.2-25.4c-1.3,1.3-5.2,0.1-6.5,1.5
		c-6.3,6.5-12.8,12.6-19.7,18.5c6.9-14.3,13.3-28.9,19-43.8c-0.4,1.1-6,0.3-6.5,1.5c-6.1,15.8-12.9,31.2-20.3,46.4
		c-2.9-9.3-1.8-21.1-2.3-30.1c0,0.3-6.5,1.1-6.5,1.5c0.6,11.1-1.2,26.4,5,36.1c-3.5,7-7.2,13.9-11.1,20.7
		c-3.5-10.8-5.7-22.3-6.3-33.6c0,0.3-6.5,1.1-6.5,1.5c0.7,13.5,3.6,27.1,8.4,39.7c-4.1,7.1-8.3,14.1-12.7,21
		c-1.4-7-2.7-13.9-4.1-20.9c0,0-6.5,1.4-6.5,1.5c1.8,9.1,3.6,18.3,5.3,27.4c-2.8,4.3-5.7,8.6-8.7,12.8
		C1394.5,565.4,1399.1,566.6,1400.1,565.2z M1430.9,547.6c-0.1,0-0.2,0-0.3,0.1C1430.7,547.7,1430.8,547.7,1430.9,547.6z"/>
</g>
<g>
	<path fill="#669585" d="M1562.3,842.7l100.9-182.9c7.5-7.4,40.7-8.2,52-1.3l37.6,22.9c11.5,7,45.2,6,52.2-1.5l44.4-47.7
		c8.1-8.7,49.1-8.2,54.7,0.7l27.2,42.8c5.9,9.2,49.1,9.3,55.2,0.1l45.4-68.2c6.2-9.2,49.7-9.1,55.3,0.2l37.6,62.3
		c5.7,9.4,50.1,9.3,55.4-0.1l55.8-98.9c5.4-9.6,50.5-9.5,55.5,0.1l70.4,135.5c0.2,0.4,0.3,0.9,0.3,1.3v137.2
		c0,4.7-12.6,8.6-28.1,8.6l-745.1,0C1570.2,853.8,1556.7,848.2,1562.3,842.7z"/>
	<path fill="#7BAA98" d="M1674.3,842.7l100.9-182.9c7.5-7.4,40.7-8.2,52-1.3l37.6,22.9c11.5,7,45.2,6,52.2-1.5l44.4-47.7
		c8.1-8.7,49.1-8.2,54.7,0.7l27.2,42.8c5.9,9.2,49.1,9.3,55.2,0.1l45.4-68.2c6.2-9.2,49.7-9.1,55.3,0.2l37.6,62.3
		c5.7,9.4,50.1,9.3,55.4-0.1l55.8-98.9c5.4-9.6,50.5-9.5,55.5,0.1l70.4,135.5c0.2,0.4,0.3,0.9,0.3,1.3v137.2
		c0,4.7-12.6,8.6-28.1,8.6l-745.1,0C1682.3,853.8,1668.7,848.2,1674.3,842.7z"/>
	<path fill="#AFD0A1" d="M1815.7,842.7l100.9-182.9c7.5-7.4,40.7-8.2,52-1.3l37.6,22.9c11.5,7,45.2,6,52.2-1.5l44.4-47.7
		c8.1-8.7,49.1-8.2,54.7,0.7l27.2,42.8c5.9,9.2,49.1,9.3,55.2,0.1l45.4-68.2c6.2-9.2,49.7-9.1,55.3,0.2l37.6,62.3
		c5.7,9.4,50.1,9.3,55.4-0.1l55.8-98.9c5.4-9.6,50.5-9.5,55.5,0.1l70.4,135.5c0.2,0.4,0.3,0.9,0.3,1.3v137.2
		c0,4.7-12.6,8.6-28.1,8.6l-745.1,0C1823.6,853.8,1810.1,848.2,1815.7,842.7z"/>
</g>
<path fill="#7BAA98" d="M4765.9,507.4c-4.2-2.8-8.8-3.3-13.8-3.3c-17.9,0.3-35.8,0.6-53.6,0.9c-13.6,0.2-27.3,0.5-40.9,0.7
	c1.1-5.6,2.2-11.2,3.3-16.8c31.6-0.6,63.1-1.2,94.7-1.7c7.7-0.1,15-0.7,20.3-7.6c6.2-8.1,4.9-19.8-2.7-26.4c-4.3-3.8-9.5-4.7-15-4.6
	c-16.8,0.3-33.5,0.6-50.3,0.9c-12.8,0.2-25.6,0.5-38.4,0.7c1.1-4.8,2.3-9.6,3.5-14.3c34.7-0.5,69.3-1,104-1.5
	c7.8-0.1,15.9,0.6,22.1-5.1c13.2-12,4-33.7-13.4-33.7c-19,0.1-37.9,0.6-56.9,0.8c-15.2,0.2-30.3,0.4-45.5,0.7
	c1.8-6.2,3.6-12.4,5.4-18.5c35.1-1.2,70.3-2.3,105.4-3.5c7.3-0.2,14.3,0.1,20.2-5.4c8.4-7.8,8.2-21.4-0.5-29
	c-4.4-3.8-9.6-4.7-15.2-4.5c-18.4,0.5-36.8,1.2-55.2,1.8c-14.1,0.5-28.2,0.9-42.2,1.4c3.4-10.2,7-20.3,10.7-30.4
	c30.6,1.7,61.2,3.5,91.9,5.2c7.3,0.4,14.6,1.1,20.7-4.1c13.5-11.4,5.6-32.6-11.3-34.2c-15.8-1.5-31.8-1.8-47.7-2.7
	c-12.9-0.7-25.9-1.5-38.8-2.2c2-4.8,4-9.7,6.1-14.5c28.3,1.7,56.7,3.3,85,5c6.7,0.4,13.5,1.1,19.4-3.4c14.2-10.8,7.3-33-10-34.9
	c-14.1-1.5-28.5-1.7-42.7-2.5c-11.5-0.7-23-1.4-34.5-2c3-6.3,6.1-12.6,9.3-18.9c25.6,3.7,51.2,7.4,76.8,11.1c6.7,1,13.1,1.6,19-2.7
	c14.4-10.4,7.9-32-8.8-35c-12.5-2.2-25.2-3.6-37.7-5.4c-10-1.4-19.9-2.9-29.9-4.3c2.3-4.1,4.7-8.2,7.1-12.2
	c20.8,1.2,41.6,2.5,62.5,3.7c5.4,0.3,10.6,0.6,15.5-2.3c12.2-7,12.9-24.6,1.5-32.7c-4.6-3.3-9.6-3.4-14.9-3.7
	c-6.5-0.4-13-0.8-19.5-1.2c-7.2-0.4-14.4-0.8-21.5-1.3c3.5-5.2,7-10.4,10.6-15.5c15.7-1.6,31.3-3.3,47-4.9c2.4-0.3,4.8-0.4,7.2-1
	c9.5-2.4,16.1-11.9,14.5-21.7c-1.6-9.9-10.4-16.8-20.3-16.3c-3,0.1-5.9,0.5-8.9,0.9c-2.2,0.2-4.4,0.5-6.6,0.7
	c4.4-5.1,8.9-10.2,13.6-15.1c0.8-0.8,1.5-1.6,2.3-2.4c0.2-0.2,0.9-0.9,1.3-1.3c0.7-0.7,1.4-1.4,2.2-2.1c2.9-2.8,5.5-5.4,7-9.3
	c6.2-16.6-12.3-32.2-27.6-23.6c-5.3,3-9.6,8.3-13.8,12.6c-6.6,6.8-12.9,13.9-19,21.2c-0.4-1.8-0.9-3.7-1.3-5.5
	c-2.4-10.3-3.5-22.7-14.8-27.3c-9.4-3.8-20.5,0.4-24.8,9.6c-2.2,4.6-2.2,9.3-1.1,14.1c2.2,9.2,4.3,18.4,6.5,27.6
	c1.7,7.1,3.3,14.1,5,21.2c-3.1,4.4-6.2,8.9-9.3,13.4c-1.8-4.4-3.6-8.9-5.4-13.3c-2.6-6.4-5.2-12.7-7.7-19.1
	c-1.5-3.7-2.8-7.8-5.1-11.2c-8.4-12.1-27.4-10.1-33.5,3.1c-2.9,6.3-1.4,12.5,1,18.5c4.8,11.8,9.6,23.6,14.3,35.4
	c3.6,8.9,7.2,17.9,10.9,26.8c-1.9,3.2-3.7,6.4-5.6,9.6c-10.2-18-20.5-36-30.8-54c-2.9-5.1-6.8-8.8-12.5-10.3
	c-7.9-2.1-16.4,1.1-21,7.8c-5,7.3-3.6,15.4,0.5,22.5c7.8,13.7,15.6,27.3,23.4,41c6.3,11,12.5,21.9,18.8,32.9
	c-2.9,5.7-5.7,11.3-8.5,17.1c-14.9-23.6-29.7-47.2-44.9-70.6c-8.1-12.4-26.8-12.7-33.9,1c-4.7,9.1-0.6,16.9,4.3,24.5
	c10.4,16.4,20.9,32.9,31.3,49.3c8,12.6,16,25.1,24,37.7c-1.8,4.1-3.5,8.2-5.2,12.3c-18.1-23.2-36.2-46.5-54.3-69.7
	c-2.3-2.9-4.8-5.6-8.2-7.2c-9.5-4.5-21.3-0.6-25.8,9c-4.5,9.5-0.1,17.4,5.6,24.8c12.4,15.9,24.7,31.8,37.1,47.6
	c9.7,12.5,19.5,25,29.2,37.5c-3.6,9.8-7.1,19.6-10.5,29.4c-22.4-25-44.8-50-67.2-75c-1.8-2-3.6-4.2-5.7-5.8
	c-9.7-7-23.7-3.4-28.9,7.4c-4.9,10.3,0.6,18.5,7.1,25.7c15,16.8,30.1,33.6,45.1,50.4c11.9,13.3,23.9,26.7,35.8,40
	c-1.9,6.2-3.7,12.4-5.5,18.7c-27.9-22.4-55.8-44.7-83.8-67.1c-1.2-1-2.4-2-3.6-2.9c-9.7-7.1-23.5-4.4-29.1,6.4
	c-4.4,8.5-1.7,18.2,5.4,24.2c1.4,1.2,2.9,2.3,4.4,3.5c18,14.4,36,28.8,53.9,43.2c14,11.2,27.9,22.4,41.9,33.5
	c-1.4,5.6-2.8,11.1-4.1,16.7c-32-17.3-64-34.5-96.1-51.8c-2.2-1.2-4.3-2.4-6.6-3.5c-8.7-4.3-19.8-1.5-24.9,6.9
	c-0.2,0.2-0.3,0.5-0.4,0.7c-0.3,0.4-0.5,0.9-0.8,1.4c-4.7,10.1,0,20.7,9.3,25.8c1.6,0.9,3.2,1.7,4.9,2.6c8.7,4.7,17.5,9.4,26.2,14.1
	c23.2,12.5,46.3,25,69.5,37.4c3.4,1.8,6.7,3.6,10.1,5.4c-1.3,6.4-2.6,12.9-3.9,19.3c-26.9-9.7-53.7-19.5-80.6-29.2
	c-1.1-0.4-2.2-0.8-3.2-1.2c-9.3-3-19.2,0.2-23.9,9c-6.2,11.6,0.7,23.8,12.2,27.9c16.4,5.9,32.8,11.9,49.2,17.8
	c13.1,4.8,26.3,9.5,39.4,14.3c-1.6,9.5-3.1,19-4.5,28.5c-1.5,10.9,4.5,21.5,15.9,23.4c11.1,1.8,20.2-6.1,22.3-16.6
	c1.8-9.6,3.1-19.3,4.6-28.9c33.1-0.5,66.1-1.1,99.2-1.7c8.2-0.1,16-0.8,21.2-8.5C4776.9,525.5,4774.7,513.3,4765.9,507.4z"/>
<g>
</g>
<g>
</g>
<g>
</g>
<g>
</g>
<g>
</g>
<g>
</g>
<g>
</g>
<g>
</g>
<g>
</g>
<g>
</g>
<g>
</g>
<g>
</g>
<g>
</g>
<g>
</g>
<g>
</g>
</svg>
