<?xml version="1.0" encoding="utf-8"?>
<!-- Generator: Adobe Illustrator 18.0.0, SVG Export Plug-In . SVG Version: 6.00 Build 0)  -->
<!DOCTYPE svg PUBLIC "-//W3C//DTD SVG 1.1//EN" "http://www.w3.org/Graphics/SVG/1.1/DTD/svg11.dtd">
<svg version="1.1" id="Layer_1" xmlns="http://www.w3.org/2000/svg" xmlns:xlink="http://www.w3.org/1999/xlink" x="0px" y="0px"
	 viewBox="0 0 4297.9 393.5" enable-background="new 0 0 4297.9 393.5" xml:space="preserve">
<g>
	<g>
		<path fill="#87BAB4" d="M2990.1,210.9L2990.1,210.9c-8,0-15,3.9-19.5,9.8v-19c0-13.4-10.9-24.3-24.3-24.3h0
			c-5.9,0-11.4,2.2-15.7,5.7v-18.6c0-13.4-10.9-24.3-24.3-24.3l0,0c-13.4,0-24.3,10.9-24.3,24.3v14.1c-2.4-0.8-5-1.3-7.7-1.3
			c-13.4,0-24.3,10.9-24.3,24.3v9.9c-1.9-0.5-3.8-0.7-5.8-0.7c-13.4,0-24.3,10.9-24.3,24.3v0.4v50.7v24.3h86.5l0,0h40h0h43.8h0h24.3
			v-24.3v-50.7v-0.4C3014.4,221.9,3003.5,210.9,2990.1,210.9z"/>
	</g>
	<g>
		<path fill="#61958C" d="M2957.2,199.8c0.1,0.5-2.4,8.9-3.9,17.4c-0.4,2.1-0.7,4.3-1,6.3c-0.1,0.8-0.2,1.6-0.3,2.4l0,0.2
			c0,0,0,0,0,0l-0.9,0l-1.1,0l-0.1,0l-0.1,0c4.6,0,1.3,0,2.3,0l0,0l0,0l0,0l0-0.1l0,0c-0.1,0.1-0.1,0.1-0.1,0.1
			c-2.6,0.8-5.6,1.4-8.6,1.4c0.1-0.3,0.2-0.6,0.4-0.9c0.1-0.1,0.2-0.3,0.3-0.4c0.1-0.1,0.2-0.1,0.3-0.3c0.2-0.3,0.4-0.6,0.7-1.1
			l0.8-2c1.1-2.7,2.2-5.3,3.4-7.9C2951.6,209.5,2954.3,204.6,2957.2,199.8z"/>
		<path fill="#61958C" d="M2945.4,200.9c0.1,0.4-1.9,7.7-3.1,15c-0.3,1.8-0.6,3.7-0.8,5.4c-0.2,1.7-0.5,3.5-0.5,4.2
			c0,0.4,0,0.6,0,0.9c0,0.3,0,0.5,0,0.7c0.1,0.4,0.1,0.6,0.1,0.6c-2.4,0-4.8-0.3-7.2-0.9c0.1-0.5,0.3-0.9,0.4-1.4l0.6-1.5l1.3-3.4
			c0.9-2.3,1.8-4.6,2.8-6.8C2940.9,209.4,2943.1,205.1,2945.4,200.9z"/>
		<path fill="#61958C" d="M2934.3,202c0.1,0.3-1.5,6.6-2.5,12.9c-0.5,3.1-1,6.3-1.2,8.6c-0.1,1.1-0.2,2-0.2,2.7c0,0.6,0,1,0,1
			c-1.9-0.5-3.8-1.3-5.6-2.2c0.3-1.1,0.6-2.2,1-3.1l1.1-2.9c0.7-1.9,1.5-3.9,2.3-5.8C2930.8,209.3,2932.5,205.6,2934.3,202z"/>
		<path fill="#61958C" d="M2924.9,202.5c0,0.3-1.1,5.6-2,10.8c-0.9,5.3-1.5,10.5-1.5,10.7c-1.4-0.8-2.9-1.7-4.3-2.4
			C2919.4,215,2922,208.6,2924.9,202.5z"/>
		<path fill="#61958C" d="M2916.6,202.8c0,0.2-0.9,4.7-1.6,9.1c-0.7,4.4-1.3,8.8-1.3,8.8l-3.4-1.9
			C2912.2,213.4,2914.3,208,2916.6,202.8z"/>
		<path fill="#61958C" d="M2910.1,202.9c0,0.2-0.7,3.9-1.3,7.5c-0.6,3.6-1.1,7.3-1.1,7.3l-2.7-1.6
			C2906.6,211.6,2908.3,207.2,2910.1,202.9z"/>
	</g>
	<g>
		<path fill="#61958C" d="M2881.2,215.5c0.2,0.2,0.8,4.4,2.2,8.3c0.2,0.5,0.4,1,0.6,1.5c0.3,0.8,0.6,1.5,1,2.3
			c0.4,1,0.9,2.2,1.4,3.6c0.2,0.6,0.5,1.5,0.7,2.2c0.2,0.7,0.4,1.3,0.5,1.9c0.6,2.4,0.8,4.5,0.9,6c0,0.7,0.1,1.3,0.1,1.7
			c0,0.4,0,0.6,0,0.6c-3-1.2-6-2.2-9-2.8c0.2-1.8,0.1-3.5-0.1-5.4c-0.3-2-0.6-3.6-0.7-5c-0.2-1.4-0.2-2.3-0.2-3.1
			c0.1-0.8,0.1-1.7,0.2-2.5C2879.2,221.3,2880,218.2,2881.2,215.5z"/>
		<path fill="#61958C" d="M2870.6,219.6c0.2,0.2,1,4.5,2.6,8.5c0.4,1.1,0.7,1.9,1.3,3.2c0.5,1.3,1.2,2.8,1.7,4.4
			c0.5,1.6,0.8,2.8,0.9,3.7c0.2,0.9,0.2,1.4,0.2,1.4c-2.4-0.5-4.9-0.8-7.3-0.9c0.1-1.1,0-2.2-0.1-3.3l-0.3-3
			c-0.1-0.9-0.1-1.8-0.1-2.5c0-0.8,0-1.6,0-2.4C2869.6,225.5,2870,222.5,2870.6,219.6z"/>
		<path fill="#61958C" d="M2860.9,224.2c0.2,0.2,1.1,4.3,2.7,8.2c0.7,1.9,1.7,3.9,2.3,5.5c0.3,0.8,0.5,1.6,0.7,2
			c0.1,0.5,0.2,0.8,0.2,0.8c-1.9,0-3.9,0.1-5.8,0.3c0.2-2.4-0.3-5.5-0.4-8.4C2860.5,229.8,2860.6,227,2860.9,224.2z"/>
		<path fill="#61958C" d="M2852.6,228.2c0.2,0.2,1.2,3.9,2.6,7.5c0.3,0.9,0.7,1.8,1.1,2.6c0.3,0.7,0.6,1.4,0.8,2
			c0.4,1.1,0.6,1.6,0.6,1.6c-1.5,0.3-3,0.6-4.5,0.9c0.1-0.8,0-1.9-0.1-3.1c-0.1-1.3-0.3-2.6-0.4-3.9
			C2852.5,233.3,2852.5,230.7,2852.6,228.2z"/>
		<path fill="#61958C" d="M2845.3,231.9c0.1,0.1,1.1,3.5,2.4,6.7c0.6,1.6,1.4,3.3,1.7,4.1c0.4,0.9,0.5,1.2,0.5,1.2l-3.5,0.9
			c0.1-1.3-0.5-4-0.7-6.2C2845.4,236.4,2845.3,234.2,2845.3,231.9z"/>
		<path fill="#61958C" d="M2839.6,234.8c0.1,0.1,1,3,2.1,5.8c0.5,1.4,1.1,2.8,1.5,3.7c0.3,0.8,0.5,1.3,0.5,1.3
			c-0.9,0.2-1.9,0.4-2.9,0.6c0-0.2,0-0.4-0.1-0.6c0-0.2,0-0.4-0.1-0.6l-0.2-1.5c-0.1-1-0.3-1.9-0.4-2.9
			C2839.8,238.7,2839.6,236.8,2839.6,234.8z"/>
	</g>
	<g>
		<path fill="#61958C" d="M2881.7,257.4c0.3,0.3,1.9,6.8,3,13.3c1.1,6.5,1.6,13,1.6,13c-3-0.4-6-0.7-9-1
			C2879.4,274.5,2880.8,266.1,2881.7,257.4z"/>
		<path fill="#61958C" d="M2871.7,263c0.2,0.2,1.4,5.1,2.1,10c0.8,4.9,1.3,9.8,1.3,9.8c-2.4-0.2-4.8-0.5-7.2-0.6
			C2869.5,276,2870.8,269.6,2871.7,263z"/>
		<path fill="#61958C" d="M2862,267.7c0.2,0.1,1,3.9,1.6,7.6c0.6,3.7,1,7.4,1,7.4l-5.7-0.4C2860.1,277.5,2861.2,272.7,2862,267.7z"
			/>
		<path fill="#61958C" d="M2853.5,271.1c0.1,0.1,0.7,2.9,1.2,5.8c0.5,2.8,0.8,5.6,0.8,5.6l-4.6-0.2
			C2851.8,278.6,2852.7,274.9,2853.5,271.1z"/>
		<path fill="#61958C" d="M2845.8,273.9c0.1,0.1,0.5,2.2,0.9,4.4c0.3,2.1,0.6,4.3,0.6,4.3l-3.7-0.1
			C2844.4,279.6,2845.2,276.8,2845.8,273.9z"/>
		<path fill="#61958C" d="M2839.8,275.8c0.1,0.1,0.4,1.7,0.7,3.4c0.3,1.6,0.5,3.3,0.5,3.3l-2.9-0.1
			C2838.6,280.2,2839.2,278,2839.8,275.8z"/>
	</g>
	<g>
		<path fill="#61958C" d="M2942.7,262.5c0.3,0.2,1.4,5.4,2,10.5c0.7,5.1,0.9,10.3,0.9,10.3c-3-0.3-5.9-0.6-8.9-0.8
			C2939.1,276.1,2941.1,269.5,2942.7,262.5z"/>
		<path fill="#61958C" d="M2932.3,267.2c0.2,0.2,1,4,1.4,7.8c0.5,3.8,0.7,7.6,0.7,7.6c-2.4-0.2-4.7-0.3-7.1-0.5
			C2929.3,277.3,2930.9,272.4,2932.3,267.2z"/>
		<path fill="#61958C" d="M2922.4,271c0.2,0.1,0.7,3,1,5.8c0.3,2.8,0.5,5.7,0.5,5.7l-5.7-0.3C2919.8,278.6,2921.2,274.9,2922.4,271z
			"/>
		<path fill="#61958C" d="M2913.7,273.8c0.1,0.1,0.5,2.2,0.7,4.3c0.3,2.1,0.4,4.2,0.4,4.2l-4.5-0.1
			C2911.6,279.5,2912.7,276.7,2913.7,273.8z"/>
		<path fill="#61958C" d="M2905.9,276.1c0.1,0.1,0.4,1.7,0.5,3.2c0.2,1.6,0.3,3.2,0.3,3.2l-3.6,0
			C2904.1,280.4,2905.1,278.3,2905.9,276.1z"/>
		<path fill="#61958C" d="M2899.8,277.7c0.1,0,0.3,1.3,0.4,2.5c0.1,1.2,0.2,2.4,0.2,2.4l-2.9,0
			C2898.3,281,2899.1,279.4,2899.8,277.7z"/>
	</g>
	<g>
		<path fill="#61958C" d="M2997.2,239.9c0.1,0.1,0.6,2,1.1,4.7c0.4,2.7,0.8,6.2,0.8,9.8c0,3.5-0.3,7-0.7,9.6
			c-0.4,2.6-0.8,4.3-0.8,4.3c-2.7-1.3-5.5-2.5-8.3-3.6C2993.4,257.6,2996.3,249.2,2997.2,239.9z"/>
		<path fill="#61958C" d="M2987,245.2c0.2,0.2,1.1,5,1,9.7c0,2.4-0.2,4.7-0.4,6.5c-0.2,1.8-0.4,2.9-0.4,2.9
			c-2.2-0.9-4.5-1.6-6.8-2.4C2983.4,257.1,2985.7,251.4,2987,245.2z"/>
		<path fill="#61958C" d="M2977,249c0.2,0.1,0.6,3.3,0.5,6.4c0,1.6-0.1,3.1-0.3,4.3c-0.1,1.1-0.3,1.9-0.3,1.9
			c-1.8-0.6-3.6-1.1-5.5-1.5C2973.7,256.8,2975.6,253.1,2977,249z"/>
		<path fill="#61958C" d="M2968.2,251.3c0.1,0.1,0.3,2.1,0.3,4.2c0,2-0.3,4-0.3,4c-1.5-0.4-2.9-0.7-4.4-1
			C2965.4,256.4,2966.9,254,2968.2,251.3z"/>
		<path fill="#61958C" d="M2960.2,252.9c0.1,0.1,0.2,1.4,0.1,2.7c0,1.3-0.2,2.5-0.2,2.5c-1.2-0.2-2.4-0.4-3.6-0.6
			C2957.9,256.2,2959.1,254.6,2960.2,252.9z"/>
		<path fill="#61958C" d="M2953.9,253.9c0.1,0,0.1,0.9,0.1,1.7c0,0.8-0.1,1.6-0.1,1.6l-2.9-0.4C2952.1,256,2953,255,2953.9,253.9z"
			/>
	</g>
</g>
<g>
	<g>
		<path fill="#87BAB4" d="M3300.1,166.3L3300.1,166.3c-10.3,0-19.4,5-25.2,12.7v-24.6c0-17.3-14.2-31.5-31.5-31.5h0
			c-7.7,0-14.8,2.8-20.2,7.4v-24c0-17.3-14.2-31.5-31.5-31.5h0c-17.3,0-31.5,14.2-31.5,31.5v18.2c-3.1-1.1-6.5-1.7-10-1.7
			c-17.3,0-31.5,14.2-31.5,31.5v12.8c-2.4-0.6-4.9-0.9-7.5-0.9c-17.3,0-31.5,14.2-31.5,31.5v0.5v65.6v31.5h111.9h0h51.7h0h56.6h0
			h31.5v-31.5v-65.6v-0.5C3331.5,180.4,3317.4,166.3,3300.1,166.3z"/>
	</g>
	<g>
		<path fill="#C5E6E1" d="M3257.5,151.9c0.1,0.6-3.1,11.5-5,22.5c-0.5,2.8-0.9,5.5-1.2,8.1c-0.1,1.1-0.3,2.1-0.4,3.1l0,0.2
			c0,0,0,0,0,0l-1.2,0l-1.5,0l-0.2,0l-0.1,0c5.9,0.1,1.6,0,2.9,0l0,0l0,0l0,0l0-0.1l0,0c-0.1,0.1-0.1,0.2-0.1,0.2
			c-3.4,1.1-7.2,1.7-11.1,1.9c0.1-0.4,0.3-0.8,0.5-1.2c0.1-0.2,0.2-0.4,0.3-0.6c0.1-0.2,0.2-0.2,0.4-0.4c0.3-0.3,0.5-0.8,0.9-1.5
			l1-2.6c1.4-3.5,2.9-6.9,4.4-10.3C3250.3,164.5,3253.8,158,3257.5,151.9z"/>
		<path fill="#C5E6E1" d="M3242.3,153.3c0.1,0.5-2.4,9.9-4,19.4c-0.4,2.4-0.8,4.7-1.1,7c-0.3,2.2-0.6,4.6-0.7,5.4
			c0,0.5-0.1,0.7-0.1,1.2c0,0.4,0,0.7,0.1,1c0.1,0.5,0.2,0.8,0.2,0.8c-3.1,0-6.3-0.4-9.3-1.1c0.2-0.7,0.3-1.2,0.6-1.8l0.7-1.9
			l1.7-4.4c1.1-3,2.4-5.9,3.6-8.8C3236.5,164.3,3239.3,158.7,3242.3,153.3z"/>
		<path fill="#C5E6E1" d="M3228,154.7c0.1,0.4-1.9,8.5-3.2,16.6c-0.7,4-1.2,8.1-1.6,11.1c-0.2,1.5-0.2,2.6-0.3,3.4
			c0,0.8,0,1.3,0,1.3c-2.5-0.7-4.9-1.7-7.3-2.8c0.4-1.4,0.8-2.8,1.3-4l1.4-3.8c0.9-2.5,1.9-5,3-7.4
			C3223.4,164.2,3225.6,159.4,3228,154.7z"/>
		<path fill="#C5E6E1" d="M3215.9,155.3c0.1,0.4-1.5,7.2-2.6,14c-1.2,6.8-1.9,13.5-1.9,13.9c-1.9-1-3.7-2.2-5.6-3.1
			C3208.7,171.5,3212.1,163.2,3215.9,155.3z"/>
		<path fill="#C5E6E1" d="M3205.1,155.8c0,0.3-1.2,6-2.1,11.7c-1,5.7-1.7,11.4-1.7,11.4l-4.4-2.4
			C3199.3,169.4,3202.1,162.5,3205.1,155.8z"/>
		<path fill="#C5E6E1" d="M3196.7,155.9c0,0.3-0.9,5-1.7,9.7c-0.8,4.7-1.4,9.4-1.4,9.4l-3.5-2
			C3192.1,167.2,3194.3,161.5,3196.7,155.9z"/>
	</g>
	<g>
		<path fill="#C5E6E1" d="M3159.3,172.1c0.3,0.2,1,5.6,2.9,10.7c0.2,0.6,0.5,1.3,0.7,1.9c0.4,1,0.8,2,1.2,2.9
			c0.5,1.3,1.2,2.8,1.8,4.6c0.3,0.8,0.7,1.9,0.9,2.8c0.2,0.8,0.5,1.7,0.7,2.5c0.8,3.2,1.1,5.9,1.2,7.7c0.1,0.9,0.1,1.7,0.1,2.2
			c0,0.5,0,0.8,0,0.8c-3.8-1.6-7.7-2.8-11.6-3.7c0.2-2.3,0.2-4.6-0.1-6.9c-0.3-2.6-0.7-4.7-1-6.4c-0.3-1.8-0.3-3-0.2-4
			c0.1-1.1,0.2-2.1,0.3-3.2C3156.8,179.7,3157.8,175.7,3159.3,172.1z"/>
		<path fill="#C5E6E1" d="M3145.7,177.5c0.3,0.2,1.3,5.8,3.3,11c0.5,1.4,0.9,2.4,1.7,4.1c0.7,1.7,1.5,3.6,2.2,5.6
			c0.7,2.1,1,3.6,1.2,4.8c0.2,1.1,0.3,1.8,0.3,1.8c-3.1-0.6-6.3-1-9.4-1.1c0.1-1.4,0-2.9-0.2-4.3l-0.4-3.9c-0.1-1.2-0.2-2.3-0.2-3.3
			c0-1,0-2,0-3.1C3144.3,185.1,3144.8,181.2,3145.7,177.5z"/>
		<path fill="#C5E6E1" d="M3133.1,183.4c0.2,0.2,1.5,5.6,3.5,10.6c1,2.5,2.1,5,2.9,7.2c0.4,1.1,0.7,2,0.9,2.6c0.2,0.6,0.2,1,0.2,1
			c-2.5,0-5,0.1-7.4,0.4c0.3-3.2-0.4-7.1-0.5-10.8C3132.5,190.6,3132.7,187,3133.1,183.4z"/>
		<path fill="#C5E6E1" d="M3122.3,188.5c0.2,0.2,1.5,5.1,3.3,9.8c0.4,1.2,0.9,2.3,1.4,3.4c0.4,0.9,0.8,1.8,1.1,2.6
			c0.6,1.4,0.8,2.1,0.8,2.1c-1.9,0.3-3.9,0.7-5.8,1.2c0.1-1.1,0-2.4-0.1-4c-0.2-1.6-0.4-3.4-0.5-5
			C3122.2,195.1,3122.2,191.8,3122.3,188.5z"/>
		<path fill="#C5E6E1" d="M3112.9,193.4c0.2,0.2,1.4,4.5,3.1,8.7c0.8,2.1,1.8,4.3,2.2,5.3c0.5,1.1,0.6,1.6,0.6,1.6l-4.6,1.1
			c0.1-1.7-0.6-5.2-0.8-8C3113.1,199.2,3112.9,196.3,3112.9,193.4z"/>
		<path fill="#C5E6E1" d="M3105.5,197.2c0.2,0.2,1.3,3.9,2.7,7.5c0.7,1.8,1.5,3.7,2,4.8c0.4,1,0.7,1.6,0.7,1.6
			c-1.2,0.3-2.5,0.5-3.7,0.8c0-0.2,0-0.5-0.1-0.8c0-0.3-0.1-0.5-0.1-0.8l-0.3-1.9c-0.2-1.3-0.4-2.5-0.5-3.8
			C3105.8,202.1,3105.6,199.6,3105.5,197.2z"/>
	</g>
	<g>
		<path fill="#C5E6E1" d="M3160,226.3c0.4,0.3,2.5,8.7,3.8,17.1c1.4,8.4,2.1,16.8,2.1,16.8c-3.9-0.5-7.7-0.9-11.6-1.3
			C3157,248.4,3158.9,237.5,3160,226.3z"/>
		<path fill="#C5E6E1" d="M3147,233.6c0.3,0.3,1.8,6.6,2.8,13c1,6.3,1.6,12.7,1.6,12.7c-3.1-0.3-6.2-0.6-9.3-0.8
			C3144.2,250.3,3145.9,242.1,3147,233.6z"/>
		<path fill="#C5E6E1" d="M3134.5,239.6c0.2,0.2,1.3,5,2,9.8c0.8,4.8,1.3,9.6,1.3,9.6l-7.4-0.5
			C3132,252.3,3133.4,246.1,3134.5,239.6z"/>
		<path fill="#C5E6E1" d="M3123.5,244c0.2,0.1,0.9,3.8,1.5,7.4c0.6,3.6,1,7.3,1,7.3l-5.9-0.3C3121.4,253.7,3122.5,248.9,3123.5,244z
			"/>
		<path fill="#C5E6E1" d="M3113.6,247.6c0.1,0.1,0.7,2.9,1.1,5.7c0.4,2.8,0.8,5.5,0.8,5.5l-4.7-0.2
			C3111.8,255,3112.8,251.3,3113.6,247.6z"/>
		<path fill="#C5E6E1" d="M3105.8,250.1c0.1,0.1,0.5,2.2,0.9,4.4c0.3,2.1,0.6,4.2,0.6,4.2l-3.8-0.1
			C3104.3,255.8,3105.1,253,3105.8,250.1z"/>
	</g>
	<g>
		<path fill="#C5E6E1" d="M3238.8,232.9c0.4,0.3,1.8,6.9,2.6,13.6c0.9,6.7,1.2,13.3,1.2,13.3c-3.8-0.4-7.7-0.8-11.5-1.1
			C3234.2,250.5,3236.8,241.9,3238.8,232.9z"/>
		<path fill="#C5E6E1" d="M3225.4,238.9c0.3,0.2,1.2,5.2,1.8,10.1c0.6,4.9,0.9,9.9,0.9,9.9c-3.1-0.2-6.1-0.5-9.2-0.6
			C3221.5,252.1,3223.6,245.6,3225.4,238.9z"/>
		<path fill="#C5E6E1" d="M3212.6,243.9c0.2,0.1,0.9,3.8,1.3,7.5c0.4,3.7,0.7,7.3,0.7,7.3l-7.3-0.4
			C3209.2,253.8,3211,248.9,3212.6,243.9z"/>
		<path fill="#C5E6E1" d="M3201.4,247.5c0.2,0.1,0.6,2.9,0.9,5.6c0.3,2.7,0.5,5.5,0.5,5.5l-5.9-0.2
			C3198.6,254.9,3200,251.3,3201.4,247.5z"/>
		<path fill="#C5E6E1" d="M3191.3,250.5c0.1,0.1,0.5,2.1,0.7,4.2c0.2,2,0.4,4.1,0.4,4.1l-4.7-0.1
			C3189,256,3190.2,253.3,3191.3,250.5z"/>
		<path fill="#89B79C" d="M3183.4,252.6c0.1,0.1,0.3,1.6,0.5,3.2c0.2,1.5,0.3,3.1,0.3,3.1l-3.7,0
			C3181.5,256.8,3182.4,254.7,3183.4,252.6z"/>
	</g>
	<g>
		<path fill="#C5E6E1" d="M3309.3,203.7c0.2,0.2,0.8,2.6,1.4,6c0.6,3.5,1,8.1,1,12.6c0,4.6-0.4,9.1-0.9,12.4c-0.5,3.4-1,5.6-1,5.6
			c-3.6-1.7-7.1-3.2-10.7-4.6C3304.4,226.6,3308.1,215.7,3309.3,203.7z"/>
		<path fill="#C5E6E1" d="M3296.1,210.5c0.3,0.3,1.4,6.4,1.3,12.6c0,3.1-0.3,6.1-0.5,8.4c-0.3,2.3-0.6,3.7-0.6,3.7
			c-2.9-1.1-5.8-2.1-8.7-3.1C3291.4,225.9,3294.4,218.6,3296.1,210.5z"/>
		<path fill="#C5E6E1" d="M3283.1,215.4c0.2,0.2,0.7,4.3,0.6,8.3c0,2-0.2,4-0.4,5.5c-0.2,1.5-0.3,2.5-0.3,2.5
			c-2.4-0.7-4.7-1.4-7.1-2C3278.9,225.5,3281.4,220.7,3283.1,215.4z"/>
		<path fill="#C5E6E1" d="M3271.7,218.4c0.2,0.1,0.4,2.8,0.4,5.4c0,2.6-0.4,5.2-0.4,5.2c-1.9-0.5-3.8-0.9-5.7-1.3
			C3268.1,225,3270.1,221.9,3271.7,218.4z"/>
		<path fill="#C5E6E1" d="M3261.4,220.5c0.1,0.1,0.3,1.8,0.2,3.4c0,1.7-0.3,3.3-0.3,3.3c-1.5-0.3-3.1-0.5-4.6-0.8
			C3258.5,224.7,3260,222.7,3261.4,220.5z"/>
		<path fill="#C5E6E1" d="M3253.4,221.7c0.1,0,0.2,1.1,0.1,2.2c0,1.1-0.2,2.1-0.2,2.1l-3.7-0.5
			C3250.9,224.4,3252.2,223.2,3253.4,221.7z"/>
	</g>
</g>
<path fill="#55C0A2" d="M4257.8,212.8c-13.4-22.8-37.8-24.4-52.6-3.5l0,0c-14.8,20.9-39.2,19.3-52.6-3.5l-1.1-1.9
	c-12.8-21.9-37.2-19.1-47.4,5.4l-9.7,23.4c-7,16.9-23.8,18.8-32.6,3.7l-27.5-46.9c-13.1-22.4-39-9.3-39,19.7v0
	c0,29-25.8,42.1-39,19.7l-14.8-25.1c-12.8-21.9-37.2-19.1-47.4,5.4l-29.8,71.9h101.1h21.4h87.4h13.6h87.4h21.4h101.1L4257.8,212.8z"
	/>
<g>
	<path fill="#BEDD9C" d="M378.3,336.6c8.9-66.5,1.2-191.4-128.7-335.1c-3.5-3.9-9.7,0.6-7,5.1c19.9,34,50.3,89.9,76.1,153.3
		c-29.1-44.5-72.2-92-135.6-138.4c-4.2-3.1-9.4,2.5-5.9,6.4c24.5,27.3,61.8,71.3,97.5,123c-35.4-36.7-83.5-73.8-149-107.1
		c-4.7-2.4-8.8,4-4.7,7.3c36.6,29.4,98.2,82.3,152.2,145.3c-43.6-35.2-103.4-68.7-185.6-92.9c-5-1.5-8,5.5-3.3,8
		c34.7,18.6,89.9,50.4,144.9,91c-48.1-22.7-109.6-40.8-187.9-47.3c-5.2-0.4-6.7,7-1.6,8.5c35.1,10.5,89.9,28.5,147.4,54
		c-49.3-12.9-109.7-19.4-183-13.6c-5.2,0.4-5.5,8-0.2,8.7c77.4,9.9,248.4,39.3,351,113.6c1.5,1.1,3.1,1.1,4.4,0.4
		c0.6,1.4,1.2,2.9,1.8,4.3c0.8,2,2.5,2.8,4.2,2.7c0,0.1,0.1,0.1,0.1,0.2c0.6,6.7,1,13.4,1.2,20c0.1,5.2,7.6,5.8,8.6,0.7
		c0.7-3.2,1.3-6.6,1.9-10.2c1.8-0.9,3-2.9,2.1-5.4C378.9,338.4,378.6,337.5,378.3,336.6z"/>
	<g>
		<g>
			<path fill="#91AC8E" d="M108.3,214.7c66.7,9,131.8,28.3,192.2,57.9c0.7,0.3,2.2-1.1,2.9-0.8c-60.5-29.6-125.6-48.9-192.2-57.9
				C110.2,213.8,109.2,214.8,108.3,214.7L108.3,214.7z"/>
		</g>
	</g>
	<g>
		<g>
			<path fill="#91AC8E" d="M138,185.4c55.8,21,113,42.9,158.4,82.8c0.4,0.4,2.5-1.1,2.9-0.8c-45.4-39.9-102.6-61.7-158.4-82.8
				C140.1,184.3,138.8,185.7,138,185.4L138,185.4z"/>
		</g>
	</g>
	<g>
		<g>
			<path fill="#91AC8E" d="M179.2,154c29.9,16,56.8,36.8,82.9,58.2c12.9,10.5,25.7,21.5,36.7,34c10.2,11.6,19.1,24.3,31.5,33.6
				c0.5,0.4,2.4-1.1,2.9-0.8c-12.4-9.3-21.5-22-31.5-33.6c-10.9-12.6-23.9-23.4-36.7-34c-26.1-21.5-53-42.2-82.9-58.2
				C181.4,152.9,179.8,154.4,179.2,154L179.2,154z"/>
		</g>
	</g>
	<g>
		<g>
			<path fill="#91AC8E" d="M222.7,125c28.2,18.1,51.2,42.3,73.3,67.3c19.9,22.5,43.4,44.4,51.7,74.2c0,0,2.9-0.8,2.9-0.8
				c-8.2-29.3-31.1-51.1-50.7-73.1c-22.6-25.3-45.6-50-74.3-68.4C225,123.8,223.2,125.3,222.7,125L222.7,125z"/>
		</g>
	</g>
	<g>
		<g>
			<path fill="#91AC8E" d="M245.3,93.8c22.5,26,45.1,52.1,66,79.4c18.9,24.9,37.8,50.6,47.2,80.8c0,0.1,2.9-0.8,2.9-0.8
				c-9.4-30.2-28.3-55.9-47.2-80.8c-20.9-27.4-43.4-53.4-66-79.4C247.9,92.7,245.6,94.1,245.3,93.8L245.3,93.8z"/>
		</g>
	</g>
	<g>
		<g>
			<path fill="#91AC8E" d="M311.7,109.4c12.7,24.3,26.7,47.9,38.5,72.6c11.6,24.4,15.5,51.1,19.6,77.5c0-0.1,2.9-0.7,2.9-0.8
				C368.7,233,365,206.9,354,183c-11.7-25.5-26.4-49.5-39.4-74.3C314.5,108.5,311.8,109.6,311.7,109.4L311.7,109.4z"/>
		</g>
	</g>
</g>
<g>
	<path fill="#BEDD9C" d="M2750.1,371.9c8.9-66.5,1.2-191.4-128.7-335.1c-3.5-3.9-9.7,0.6-7,5.1c19.9,34,50.3,89.9,76.1,153.3
		c-29.1-44.5-72.2-92-135.6-138.4c-4.2-3.1-9.4,2.5-5.9,6.4c24.5,27.3,61.8,71.3,97.5,123c-35.4-36.7-83.5-73.8-149-107.1
		c-4.7-2.4-8.8,4-4.7,7.3c36.6,29.4,98.2,82.3,152.2,145.3c-43.6-35.2-103.4-68.7-185.6-92.9c-5-1.5-8,5.5-3.3,8
		c34.7,18.6,89.9,50.4,144.9,91c-48.1-22.7-109.6-40.8-187.9-47.3c-5.2-0.4-6.7,7-1.6,8.5c35.1,10.5,89.9,28.5,147.4,54
		c-49.3-12.9-109.7-19.4-183-13.6c-5.2,0.4-5.5,8-0.2,8.7c77.4,9.9,248.4,39.3,351,113.6c1.5,1.1,3.1,1.1,4.4,0.4
		c0.6,1.4,1.2,2.9,1.8,4.3c0.8,2,2.5,2.8,4.2,2.7c0,0.1,0.1,0.1,0.1,0.2c0.6,6.7,1,13.4,1.2,20c0.1,5.2,7.6,5.8,8.6,0.7
		c0.7-3.2,1.3-6.6,1.9-10.2c1.8-0.9,3-2.9,2.1-5.4C2750.7,373.6,2750.4,372.7,2750.1,371.9z"/>
	<g>
		<g>
			<path fill="#91AC8E" d="M2480.1,249.9c66.7,9,131.8,28.3,192.2,57.9c0.7,0.3,2.2-1.1,2.9-0.8c-60.5-29.6-125.6-48.9-192.2-57.9
				C2482.1,249,2481,250.1,2480.1,249.9L2480.1,249.9z"/>
		</g>
	</g>
	<g>
		<g>
			<path fill="#91AC8E" d="M2509.9,220.6c55.8,21,113,42.9,158.4,82.8c0.4,0.4,2.5-1.1,2.9-0.8c-45.4-39.9-102.6-61.7-158.4-82.8
				C2512,219.6,2510.6,220.9,2509.9,220.6L2509.9,220.6z"/>
		</g>
	</g>
	<g>
		<g>
			<path fill="#91AC8E" d="M2551,189.3c29.9,16,56.8,36.8,82.9,58.2c12.9,10.5,25.7,21.5,36.7,34c10.2,11.6,19.1,24.3,31.5,33.6
				c0.5,0.4,2.4-1.1,2.9-0.8c-12.4-9.3-21.5-22-31.5-33.6c-10.9-12.6-23.9-23.4-36.7-34c-26.1-21.5-53-42.2-82.9-58.2
				C2553.3,188.2,2551.7,189.6,2551,189.3L2551,189.3z"/>
		</g>
	</g>
	<g>
		<g>
			<path fill="#91AC8E" d="M2594.5,160.2c28.2,18.1,51.2,42.3,73.3,67.3c19.9,22.5,43.4,44.4,51.7,74.2c0,0,2.9-0.8,2.9-0.8
				c-8.2-29.3-31.1-51.1-50.7-73.1c-22.6-25.3-45.6-50-74.3-68.4C2596.9,159.1,2595.1,160.6,2594.5,160.2L2594.5,160.2z"/>
		</g>
	</g>
	<g>
		<g>
			<path fill="#91AC8E" d="M2617.1,129.1c22.5,26,45.1,52.1,66,79.4c18.9,24.9,37.8,50.6,47.2,80.8c0,0.1,2.9-0.8,2.9-0.8
				c-9.4-30.2-28.3-55.9-47.2-80.8c-20.9-27.4-43.4-53.4-66-79.4C2619.7,127.9,2617.4,129.4,2617.1,129.1L2617.1,129.1z"/>
		</g>
	</g>
	<g>
		<g>
			<path fill="#91AC8E" d="M2683.6,144.7c12.7,24.3,26.7,47.9,38.5,72.6c11.6,24.4,15.5,51.1,19.6,77.5c0-0.1,2.9-0.7,2.9-0.8
				c-4.1-25.8-7.8-51.8-18.8-75.8c-11.7-25.5-26.4-49.5-39.4-74.3C2686.4,143.7,2683.7,144.9,2683.6,144.7L2683.6,144.7z"/>
		</g>
	</g>
</g>
<g>
</g>
<g>
</g>
<g>
</g>
<g>
</g>
<g>
</g>
<g>
</g>
<g>
</g>
<g>
</g>
<g>
</g>
<g>
</g>
<g>
</g>
<g>
</g>
<g>
</g>
<g>
</g>
<g>
</g>
</svg>
