<?xml version="1.0" encoding="utf-8"?>
<!-- Generator: Adobe Illustrator 18.0.0, SVG Export Plug-In . SVG Version: 6.00 Build 0)  -->
<!DOCTYPE svg PUBLIC "-//W3C//DTD SVG 1.1//EN" "http://www.w3.org/Graphics/SVG/1.1/DTD/svg11.dtd">
<svg version="1.1" id="Layer_1" xmlns="http://www.w3.org/2000/svg" xmlns:xlink="http://www.w3.org/1999/xlink" x="0px" y="0px"
	 viewBox="0 0 793.7 672.5" enable-background="new 0 0 793.7 672.5" xml:space="preserve">
<g>
	<path fill="#E38A81" d="M789.4,582l-24.1-14.4c-6.8-4.1-5.1-14.4,2.6-16.1l17.9-4c7.7-1.7,9.4-12,2.7-16.1l-35.3-21.4
		c-5.9-3.6-5.6-12.3,0.6-15.4l21.1-10.6c6.3-3.2,6.5-12.1,0.3-15.5l-27.8-15.6c-5.9-3.3-6-11.7-0.3-15.2l23-14
		c5.7-3.5,5.6-11.8-0.1-15.1l-22.1-12.9c-5.3-3.1-5.9-10.4-1.2-14.3l41.9-35c6.3-5.3,2.6-15.5-5.6-15.5h-50.2H728H65.7H52.1h-9.3
		c-8.3,0-12,10.5-5.5,15.7l6.6,5.2c5.6,4.4,3.8,13.3-3,15.3l-4.4,1.3c-6.9,2-8.6,10.9-3,15.3c5.7,4.5,3.8,13.5-3.2,15.4l-23.7,6.3
		c-7.5,2-8.9,12-2.3,16l24.1,14.4c6.8,4.1,5.1,14.4-2.6,16.1l-17.9,4c-7.7,1.7-9.4,12-2.7,16.1l35.3,21.4c5.9,3.6,5.6,12.3-0.6,15.4
		l-21.1,10.6c-6.3,3.2-6.5,12.1-0.3,15.5l27.8,15.6c5.9,3.3,6,11.7,0.3,15.2l-23,14c-5.7,3.5-5.6,11.8,0.1,15.1l22.1,12.8
		c5.3,3.1,5.9,10.4,1.2,14.3L5.1,657c-6.3,5.3-2.6,15.5,5.6,15.5h41.4h13.6H728h4.7h18.2c8.3,0,12-10.5,5.5-15.7l-6.6-5.2
		c-5.6-4.4-3.8-13.3,3-15.3l4.4-1.3c6.9-2,8.6-10.9,3-15.3c-5.7-4.5-3.8-13.5,3.2-15.4l23.7-6.3C794.6,596,796,586,789.4,582z"/>
	<path fill="#E27E7D" d="M40.3,454.8c70.6-0.8,141.1-1.2,211.7-1.5c70.4-0.2,140.7-0.1,211.1,0.2c39.8,0.2-2.6,0.5,37.2,0.8
		c8.8,0.1,4.1-10.1-2.4-10.1c-70.8-0.7-59.4-1-130.2-1.1c-70.9-0.1-141.7,0.1-212.6,0.5c-40.1,0.3-80.1,0.6-120.2,1
		c-3.1,0-4.2,3.2-3,5.7C33.4,453.4,37.1,454.8,40.3,454.8L40.3,454.8z"/>
	<path fill="#E27E7D" d="M163.6,497.9c110.4,6.8,221,9.6,331.6,8.4c31.1-0.3,62.2-1,93.2-1.9c8.3-0.3,6.5-13.3-1-13
		c-110.5,3.4-221.2,2.8-331.7-1.7c-31.1-1.3-62.1-2.9-93.1-4.8C154.3,484.3,156.1,497.4,163.6,497.9L163.6,497.9z"/>
	<path fill="#836031" d="M478.6,549.2c72.1-1.9,144.3-2.2,216.4-0.9c20.3,0.4,40.5,0.9,60.8,1.5c8.4,0.3,8.8-12,0.1-12.2
		c-72.1-2.2-144.3-2.8-216.4-1.8c-20.3,0.3-40.5,0.7-60.8,1.2C470.3,537.2,469.9,549.5,478.6,549.2L478.6,549.2z"/>
	<path fill="#836031" d="M158,574.4c96.7,4.2,193.4,8.3,290,12.5c27.5,1.2,54.9,2.4,82.4,3.5c3.3,0.1,7-1.6,7.6-5.1
		c0.6-3.3-2.5-6.1-5.7-6.2c-96.7-4.2-193.4-8.3-290-12.5c-27.5-1.2-54.9-2.4-82.4-3.5c-3.3-0.1-7,1.6-7.6,5.1
		C151.8,571.5,154.9,574.3,158,574.4L158,574.4z"/>
	<path fill="#836031" d="M77.4,651.9c62.5-2.2,125.1-1.9,187.6,1c17.9,0.8,35.7,1.8,53.5,3c3.3,0.2,6.5-2.4,6.4-5.8
		c-0.1-3.6-3.7-5.9-7-6.1c-62.4-4.2-125-6-187.6-5.3c-17.9,0.2-35.7,0.6-53.6,1.3C68.2,640.4,69.2,652.2,77.4,651.9L77.4,651.9z"/>
	<path fill="#EDA939" d="M176.1,48.5c0,0,15.9-40.6,54.9-18.1c4.8,2.8,10.7,3.2,15.6,0.7c10.4-5.3,29.6-10.9,44.8,8.4
		c3.3,4.2,8.3,6.6,13.5,6.5c22-0.7,26.3,10,32.7,29.9c0,0,22.3,4.4,22.4,4.4c36.9,7.2,46.9,49.4,27.1,78.7
		c-3.3,4.9-1.6,11.6,3.6,14.2c8.9,4.5,19.9,13.1,17.1,28c-4.5,24.3-27.7,21.1-27.7,21.1L170.5,62.1L176.1,48.5z"/>
	<path fill="#FFCE79" d="M176.9,200.6c0,0-67,47.9-59.2,129.4c7.4,77.6,90.3,76.8,186,67.7c8.4-0.8,15-7.5,15.5-15.9l0.8-11.8
		c0,0,11.2,0.8,11.4,0.8c5.5,0.4,9.5,5.3,14.1,7.9c16.5,9.2,39,8,54.5-2.8c21.2-14.8,16.3-41.4,6.4-61.7c-6-12.2-13.8-23.5-22-34.4
		c-1.8-2.5-3.7-4.9-5.7-7.3c-4.7-5.6-5.4-13.4-1.9-19.9c2.9-6,4-12.6,4-19.2c-0.1-6.9-0.6-13.2-6.8-17.3c-5.9-3.9-12.4-2.6-16.7,3
		c-10.8,14.3-13,24.6-27.3,33C315.7,260.4,176.9,200.6,176.9,200.6z"/>
	<path fill="#75B191" d="M144.9,234.1c0,0-28.3,29.5-27.8,80.2l125.7,1.7l-0.6,13.1l62.1,1.8c9.5,0.3,17,8.3,16.6,17.8l-0.9,21.3
		l13.1,1c0,0-10.5-74.9-3.2-119.1L144.9,234.1z"/>
	<path fill="#EDA939" d="M141.2,71.9c0,0-47.4,4.5-52.4,44.6c-2.9,22.9,8.6,36.6,19,44.1c6.6,4.8,7.9,13.9,2.8,20.2
		c-5.3,6.5-10.8,15.1-12.7,24.3c-2.7,12.6-2.6,26.1,3.4,37.7c5.5,10.6,14.7,18.2,25.8,22.3c10.1,3.7,27.6,1.1,30,14.8
		c2.2,12.5,10.3,32,38.9,33.2c0,0,17.6,1.2,28.3-13.1c2.1-2.8,6.3-2.6,7.9,0.5c3.3,6.2,9.6,13.9,21.5,16.4c18.2,4,27.8-9,31.9-17.2
		c1.4-2.7,4.9-3.4,7.2-1.4c6.9,6,20.6,7.6,30.6-2.3c12.4-12.4,10.5-57,10.5-57L141.2,71.9z"/>
	<path fill="#F2B964" d="M285.5,58.6c-3.7-1.6,6.3-18.5,7.6-19.9c8.8-9.3,24.9-12,35.5-4.3c13.6,9.8,12,32.2,4.3,45.1
		C332.9,79.6,285.6,58.7,285.5,58.6z"/>
	<path fill="none" stroke="#F0AB4B" stroke-width="3" stroke-linecap="round" stroke-linejoin="round" stroke-miterlimit="10" d="
		M321.3,369.2l0.3-19.1c0.7-9.4-6.3-17.6-15.7-18.4c-33.8-2.9-90-2.7-90-2.7"/>
	<path fill="none" stroke="#F0AB4B" stroke-width="3" stroke-linecap="round" stroke-linejoin="round" stroke-miterlimit="10" d="
		M241.6,329.1c2.5-12.6,0.2-26.2,0.2-26.2"/>
	<path fill="#FFCE79" d="M377.1,176.7c-0.7-8.6-3.2-16.9-6.3-25.1c-2.4-6.3-5.1-12.5-7.5-18.7c-6.4-16.4-12.4-37.3-23.1-51.2
		c-14.5-18.8-37.6-28.1-60-33.4c-25-5.9-49.6-1.9-73.8,7.2c-1,0.4-11.7,5.3-11.8,5.2c-8.7-11.1-26-12.9-39.5-8.7
		c-13.4,4.2-23.1,18.5-20.9,32.3c1,12.4,10.2,23.4,18,29.4c0.1,0-0.1,0,0,0c-4.4,9.8-5.4,14.2-7,24.8c-4,27.6,2.4,56.8,18.2,79.9
		c14.1,20.6,35.1,36.1,58.4,45.1c25.3,9.8,53.7,12,79.9,4.9c26.2-7.2,49.8-24.1,63.8-47.3C373.5,207.7,378.4,192.1,377.1,176.7z"/>
	<path fill="#F2B964" d="M155.3,104.3c5.9,4.5,15.5-4.7,23.5-15.6c7.8-10.5,1.4-25.8-11.5-27.2c-7.2-0.8-15.1,1.1-22.4,8.8
		c0,0-0.1,0.1-0.1,0.1c-5.3,5.6-5.8,14.1-1.8,20.7C146.4,96.3,151,100.9,155.3,104.3z"/>
	<circle fill="#F0AB4B" cx="261.1" cy="154.9" r="11.5"/>
	<circle fill="#F0AB4B" cx="335.9" cy="144" r="11.1"/>
	<circle fill="#48484A" cx="336.1" cy="143.3" r="7"/>
	<path fill="#F1B55B" d="M287.5,162.1l-12.7-19.5l0,0c-3.5-4.6-1.2-11.3,4.5-12.8l22.5-5.7c2.8-0.7,5.7,0.1,7.7,2.2
		c6.4,6.5,16.9,21.3,18.7,29.4"/>
	<circle fill="#E87D4C" cx="213.3" cy="186" r="27.5"/>
	<circle fill="#E87D4C" cx="356.2" cy="162.7" r="15.3"/>
	<circle fill="#48484A" cx="261.1" cy="154.9" r="7"/>
	<path fill="#EA8C38" d="M291.3,155.8c8.1-1.9,19.3-3.9,31.7-4.2c4.4-0.1,6.9,5,4.1,8.4l-13.7,16.7l-23.2-11.3
		C285.9,163.3,286.5,156.9,291.3,155.8z"/>
	<path fill="#E87D4C" d="M286.9,198c0,0,9.3,15.8,26.4,13.3c18.4-2.7,19.8-22.9,19.8-22.9l-21.6,1.8L286.9,198z"/>
	<path fill="none" stroke="#EA8C38" stroke-width="3" stroke-linecap="round" stroke-linejoin="round" stroke-miterlimit="10" d="
		M312.6,189c0,0,21.8,4.6,26.9-6.1"/>
	<path fill="none" stroke="#EA8C38" stroke-width="3" stroke-linecap="round" stroke-linejoin="round" stroke-miterlimit="10" d="
		M310.7,159.6c0,0,3.3,8.4,2.7,17.1l-0.8,12.3c0,0-3.9,4.5-21.5,8.3s-29-5.9-29-5.9"/>
	
		<path fill="#FFCE79" stroke="#F0AB4B" stroke-width="3" stroke-linecap="round" stroke-linejoin="round" stroke-miterlimit="10" d="
		M361.8,216.2l-26.9,32c-3,3.6-4.8,8-5.3,12.7c-1.4,14-3.6,24.5-2.1,42.3"/>
	<linearGradient id="SVGID_1_" gradientUnits="userSpaceOnUse" x1="389.511" y1="300.8212" x2="685.7069" y2="300.8212">
		<stop  offset="0" style="stop-color:#C0C2C4"/>
		<stop  offset="1" style="stop-color:#ADAFB2"/>
	</linearGradient>
	<path fill="url(#SVGID_1_)" d="M604,189.2c0,0,50.2,30.6,71.3,86s9,82.4-24,101.2c-29.7,16.9-44.9,21.6-57.5,32.3
		c-2.8,2.4-6.3,3.8-10,3.8H555c-8.5,0-15.6-6.7-15.9-15.2c-0.3-10.8,1.5-26.5,10.7-43.4h-33.9c0,0,7.9,11.5,12.2,22.3
		c2,5.2-0.8,11.1-6.1,12.9l-40,13.3c-2.7,0.9-5.6,0.6-8.1-0.8c-9-5.3-32.3-18.5-51-26.5c-23.7-10.1-40.6-42.2-30.4-69.3
		c10.1-27,68-91.6,68-91.6L604,189.2z"/>
	<path fill="#F5C15D" d="M422,260.4l93.9,93.5h33.9l20.5-18.9l99.4-72.5c0,0-33.1-63-77.8-76.2l-131.4,27.8L422,260.4z"/>
	<ellipse fill="#F2A959" cx="535.6" cy="235" rx="75.7" ry="53"/>
	<ellipse fill="#91929D" cx="532.7" cy="226.6" rx="66.9" ry="46.9"/>
	<g>
		<path fill="#ABADB0" d="M416.8,6.8c0,0-1.1-5.3,10.8-6.5c11.9-1.3,28.4,1,36.8,13.6c8.4,12.6,12.3,18.7,12.3,18.7l-35.8,23.3
			c0,0-7.3-26-14-34.2S416.4,12.4,416.8,6.8z"/>
		<linearGradient id="SVGID_2_" gradientUnits="userSpaceOnUse" x1="506.1744" y1="58.4399" x2="566.7251" y2="195.5694">
			<stop  offset="0" style="stop-color:#C7C8CA"/>
			<stop  offset="1" style="stop-color:#B1B3B6"/>
		</linearGradient>
		<path fill="url(#SVGID_2_)" d="M636.4,10.5c-0.3-5.2-4.5-9.5-9.7-9.9c-40.7-3.7-56.6,31.2-56.6,31.2l0,0
			c-4.3-2.2-8.8-4.2-13.6-5.8C522,14.3,477.7,14.9,449.9,41.6c-4.8,4.6-9,10-12.5,16.3c-20.3,36.5-11.1,69.4-12.8,109.4
			c-1.1,26.8-7.8,50.6,13.1,72c16.1,16.5,40.3,25.1,63,26.1c109,4.5,125.8-78.7,125.8-95.5c0-22.5-1-45.3-5.8-67.4
			C618,90.3,613.8,79,608,68.8c-5.4-9.5-1.7-21.8,8-26.8c0.1,0,0.2-0.1,0.3-0.1C634.2,32.6,636.9,19.2,636.4,10.5z"/>
		<g>
			<path fill="#797A7D" d="M454.1,196.9c-0.6,1.5-1,3.1-1.2,4.7c-0.2,1.6-0.2,3.1,0.2,4.6c0.3,1.5,1.2,2.6,1.9,3.8
				c0.3,0.6,0.8,1.2,1.3,1.8c0.5,0.6,1,1.2,1.5,2l0,0c0,0.1,0,0.1,0,0.2c0,0-0.1,0-0.1,0c-1.7-0.3-3.4-1.1-4.7-2.5l-0.5-0.5
				c-0.2-0.2-0.2-0.4-0.4-0.6c-0.2-0.4-0.4-0.8-0.6-1.3l-0.3-1.3c-0.1-0.4-0.1-0.9-0.2-1.3c-0.2-1.8,0.1-3.5,0.6-5.2
				c0.5-1.6,1.2-3.2,2.2-4.5c0-0.1,0.1-0.1,0.2,0C454.1,196.8,454.1,196.9,454.1,196.9L454.1,196.9z"/>
		</g>
		<g>
			<path fill="#797A7D" d="M517.6,194.4c1.6,1,2.8,2.4,3.7,4.1c0.9,1.7,1.2,3.6,1.2,5.6c0,1.9-0.3,3.9-1.2,5.6
				c-0.5,0.8-1,1.6-1.6,2.3c-0.6,0.7-1.3,1.4-2.1,1.9c-0.1,0-0.1,0-0.2,0c0,0,0-0.1,0-0.1l0,0c0.2-1,0.5-1.8,0.8-2.6
				c0.2-0.9,0.5-1.7,0.8-2.5c0.1-0.4,0.2-0.8,0.4-1.2c0.2-0.4,0.3-0.8,0.4-1.2l0.4-1.2l0.2-1.2c0.2-1.6,0.2-3.3-0.4-4.9
				c-0.5-1.6-1.4-3.2-2.7-4.4l0,0c0,0-0.1-0.1,0-0.2C517.5,194.4,517.5,194.4,517.6,194.4z"/>
		</g>
		<path fill="#808285" d="M474.9,205.6c0-0.7-0.7-1.4-2.4-2.2c-2.9-1.3-10.9-2.3-11.3,1.9c-0.3,3.1,1.6,4.2,5,4.1
			C469,209.2,474.9,207.7,474.9,205.6z"/>
		<path fill="#808285" d="M494.2,204.7c0-0.7,0.8-1.4,2.7-2.1c3.3-1.3,12.1-2.3,12.6,1.8c0.4,3-1.8,4.1-5.5,3.9
			C500.8,208.2,494.2,206.7,494.2,204.7z"/>
		<path fill="#FFFFFF" d="M479.4,105.4l28.5,65c2.8,6.3-0.5,13.7-7,15.8c-12.6,4-31.6,7.6-38.2-4.6c-8.8-16.1-3.2-49.2,6.2-75.8
			C470.5,100.9,477.3,100.7,479.4,105.4z"/>
		<circle fill="#9A9FA3" cx="537" cy="160.5" r="11.7"/>
		<circle fill="#9A9FA3" cx="447.4" cy="160.8" r="10.4"/>
		<circle fill="#6B6C6F" cx="447.4" cy="160.8" r="6.6"/>
		
			<path fill="none" stroke="#797A7D" stroke-width="2.5" stroke-linecap="round" stroke-linejoin="round" stroke-miterlimit="10" d="
			M454.8,227.5c0,0,12.1,9.2,25.2,5.6c4.9-1.3,10.1-1.5,15.1-0.5c10.9,2,29.8,3.6,44.5-5.1"/>
		
			<path fill="none" stroke="#797A7D" stroke-width="2.5" stroke-linecap="round" stroke-linejoin="round" stroke-miterlimit="10" d="
			M484,213.9c0,0-2,8.3,2.2,18.2"/>
		<circle fill="#6B6C6F" cx="537" cy="160.5" r="7.4"/>
	</g>
	<g>
		<path fill="#797A7D" d="M449.2,314.4c6.1,0.1,12.2,1.3,18,3.1c2.9,0.9,5.8,2,8.7,3.1l4.2,1.9c1.4,0.7,2.7,1.4,4.1,2.1
			c0.7,0.4,1.4,0.7,2,1.1l2,1.2l2,1.2c0.7,0.4,1.3,0.8,1.9,1.3l3.7,2.7c1.3,0.9,2.4,2,3.5,2.9l1.7,1.5l0.9,0.8l0.8,0.8l3.2,3.3
			c1.1,1.1,2,2.3,3,3.5c1,1.2,1.9,2.4,2.8,3.6c-1.1-1-2.2-2.1-3.3-3.1c-1.1-1-2.1-2.1-3.3-3.1c-2.3-2-4.5-4-7-5.7
			c-4.7-3.7-9.8-6.9-15-9.8c-5.2-3-10.7-5.4-16.3-7.5C460.9,317.2,455.2,315.5,449.2,314.4z"/>
	</g>
	<path fill="#E27E7D" d="M44.6,426.7c76.6,1.7,153.1,2.9,229.7,3.5c76.6,0.6,153.2,0.7,229.7,0.3c43.1-0.3,86.1-0.7,129.2-1.3
		c3.1,0,5.5-2.6,4.7-5.7c-0.9-3.3-4.9-5-8-5c-76.6,1.1-153.2,1.6-229.7,1.6c-76.6,0-153.2-0.6-229.7-1.7
		c-43.1-0.6-86.1-1.4-129.2-2.4c-3.1-0.1-5.5,2.7-4.7,5.7C37.5,425.1,41.5,426.6,44.6,426.7L44.6,426.7z"/>
</g>
<g>
</g>
<g>
</g>
<g>
</g>
<g>
</g>
<g>
</g>
<g>
</g>
<g>
</g>
<g>
</g>
<g>
</g>
<g>
</g>
<g>
</g>
<g>
</g>
<g>
</g>
<g>
</g>
<g>
</g>
</svg>
