<?xml version="1.0" encoding="utf-8"?>
<!-- Generator: Adobe Illustrator 18.0.0, SVG Export Plug-In . SVG Version: 6.00 Build 0)  -->
<!DOCTYPE svg PUBLIC "-//W3C//DTD SVG 1.1//EN" "http://www.w3.org/Graphics/SVG/1.1/DTD/svg11.dtd">
<svg version="1.1" id="Layer_1" xmlns="http://www.w3.org/2000/svg" xmlns:xlink="http://www.w3.org/1999/xlink" x="0px" y="0px"
	 viewBox="0 0 175.9 276.2" enable-background="new 0 0 175.9 276.2" xml:space="preserve">
<g>
	<g>
		<path fill="#568986" d="M171.3,0C-33.9,63.1,2.5,276.2,2.5,276.2S208.7,211.5,171.3,0z"/>
	</g>
	<path fill="#568986" d="M43.9,217.8c4.4-5.7,8.7-11.5,12.9-17.3c0.1,0,0.1,0,0.1-0.1c0,0,0-0.1,0-0.1c2.3-3.2,4.7-6.5,7-9.8
		c9.6,7.2,21.7,6,33.2,2.8c-2.2,0.6-4.5,0.8-6.7,1.2c-0.2,0-0.4-0.1-0.8-0.1c-1-0.1-2-0.1-3-0.2c-2.3-0.3-4.5-0.8-6.6-1.6
		c-4.1-1.5-7.6-4-10.6-7.2c-0.3-0.3-1.1-0.3-2,0c5.6-8.1,11.1-16.4,16.4-24.7c0.1,0,0.1,0,0.1,0c0,0,0-0.1,0-0.1
		c2.1-3.2,4.1-6.5,6.1-9.8c10.9,6,27.6,3.2,36-5.5c-1.7,1.8-7.4-0.1-9.2,1.7c-1.9,2-4.1,3.1-6.1,4.8c-0.9,0.3-1.4,0.5-1.6,0.7
		c-0.7,0-1.3-0.1-2-0.2c-4.8-0.7-8.8-3-12.2-6.4c-0.3-0.3-0.9-0.3-1.7-0.1c4.8-7.9,9.4-15.8,14-23.9c0.1,0,0.3,0,0.3,0.1
		c-0.1-0.1-0.1-0.2-0.2-0.3c1.1-2,2.2-3.9,3.3-5.9c0.5-0.1,0.9-0.3,1.3-0.6c14.5-10.4,28.2-21.7,41.1-34c-1.9,1.8-7.3-0.1-9.2,1.7
		c-9.2,8.7-18.8,17-28.7,24.7c10.6-19.7,20.4-39.8,29.3-60.3c-0.7,1.6-8.5,0.1-9.2,1.7c-9.5,21.8-20,43.1-31.3,63.9
		c-3.5-13.3-1.2-29.8-1.3-42.4c0,0.5-9.2,1.1-9.2,1.7c0.1,15.6-3.3,37,4.8,51c-5.4,9.6-11,19.1-16.8,28.4
		c-4.3-15.4-6.6-31.6-6.8-47.5c0,0.5-9.2,1.1-9.2,1.7c0.2,19,3.4,38.2,9.4,56.2c-6.2,9.7-12.6,19.2-19.2,28.7
		c-1.5-9.8-3-19.7-4.4-29.5c0,0-9.2,1.5-9.2,1.7c1.9,12.9,3.9,25.8,5.8,38.8c-4.3,5.9-8.6,11.7-13,17.5
		C36.1,217.7,42.4,219.6,43.9,217.8z M88.2,195c-0.1,0-0.3,0-0.4,0.1C87.9,195,88.1,195,88.2,195z"/>
</g>
<g>
</g>
<g>
</g>
<g>
</g>
<g>
</g>
<g>
</g>
<g>
</g>
<g>
</g>
<g>
</g>
<g>
</g>
<g>
</g>
<g>
</g>
<g>
</g>
<g>
</g>
<g>
</g>
<g>
</g>
</svg>
