<?xml version="1.0" encoding="utf-8"?>
<!-- Generator: Adobe Illustrator 21.0.2, SVG Export Plug-In . SVG Version: 6.00 Build 0)  -->
<!DOCTYPE svg PUBLIC "-//W3C//DTD SVG 1.1//EN" "http://www.w3.org/Graphics/SVG/1.1/DTD/svg11.dtd">
<svg version="1.1" id="Layer_1" xmlns="http://www.w3.org/2000/svg" xmlns:xlink="http://www.w3.org/1999/xlink" x="0px" y="0px"
	 viewBox="0 0 230 230" style="enable-background:new 0 0 230 230;" xml:space="preserve">
<style type="text/css">
	.st0{fill:url(#SVGID_1_);}
	.st1{fill:#ACACAC;}
	.st2{fill:url(#SVGID_2_);}
	.st3{fill:url(#SVGID_3_);}
	.st4{fill:#E8E8E8;}
	.st5{fill:#626262;}
	.st6{fill:#FFFFFF;}
	.st7{fill:#BFBFBF;}
</style>
<linearGradient id="SVGID_1_" gradientUnits="userSpaceOnUse" x1="-4311.1187" y1="-86.7212" x2="-4222.0786" y2="-86.7212" gradientTransform="matrix(-0.99 -0.13 -0.13 0.99 -4183.1904 -358.36)">
	<stop  offset="0" style="stop-color:#CACACA"/>
	<stop  offset="1" style="stop-color:#C0C0C0"/>
</linearGradient>
<path class="st0" d="M19.8,77l2-0.5c1.6-0.4,2.6-2.1,2.2-3.7c-0.1-0.3-0.2-0.6-0.4-0.9c-0.9-1.4-0.5-3.3,1-4.2
	c0.5-0.3,1.1-0.5,1.7-0.5l51.4,3.1C87.3,71.5,95,79,96.4,88.6c12.6,20.3,6.3,47-14,59.5c-20.3,12.6-47,6.3-59.5-14
	c-9-14.6-8.6-33.1,1.1-47.3l-5.4-4.7c-1.3-1.1-1.5-3-0.4-4.3C18.5,77.5,19.1,77.2,19.8,77z"/>
<ellipse transform="matrix(2.722453e-02 -0.9996 0.9996 2.722453e-02 -52.5258 168.8945)" class="st1" cx="60.5" cy="111.4" rx="30.8" ry="30.8"/>
<linearGradient id="SVGID_2_" gradientUnits="userSpaceOnUse" x1="-1437.0979" y1="294.1627" x2="-1347.9729" y2="294.1627" gradientTransform="matrix(0.9918 -0.1278 0.1278 0.9918 1515.1967 -358.4255)">
	<stop  offset="0" style="stop-color:#CACACA"/>
	<stop  offset="1" style="stop-color:#C0C0C0"/>
</linearGradient>
<path class="st2" d="M210.2,77l-2-0.5c-1.6-0.4-2.6-2.1-2.2-3.7c0.1-0.3,0.2-0.6,0.4-0.9c0.9-1.4,0.5-3.3-1-4.2
	c-0.5-0.3-1.1-0.5-1.7-0.5l-51.4,3.1c-9.6,1.2-17.3,8.7-18.7,18.3c-12.6,20.3-6.3,47,14,59.5c20.3,12.6,47,6.3,59.5-14
	c9-14.6,8.6-33.1-1.1-47.3l5.4-4.7c1.3-1.1,1.5-3,0.4-4.3C211.5,77.5,210.9,77.2,210.2,77z"/>
<ellipse transform="matrix(0.9996 -2.722457e-02 2.722457e-02 0.9996 -2.9726 4.6558)" class="st1" cx="169.5" cy="111.5" rx="30.8" ry="30.8"/>
<linearGradient id="SVGID_3_" gradientUnits="userSpaceOnUse" x1="56.0376" y1="90.5468" x2="176.1" y2="90.5468" gradientTransform="matrix(1 0 0 1 0 30)">
	<stop  offset="0" style="stop-color:#D7D7D7"/>
	<stop  offset="1" style="stop-color:#D0D0D0"/>
</linearGradient>
<path class="st3" d="M172,123.8c-2.2-4.1-3.8-8.5-4.6-13.1c-5.5-28.9-33.4-48-62.3-42.5C79.9,73,61.7,95,61.7,120.6
	c0,0.2,0,0.4,0,0.6c-10,14.4-6.4,34.2,8,44.2c5.8,4,12.9,6,20,5.6c4.1-0.2,8.2,0.2,12.1,1.2c8.7,2.2,17.9,2.2,26.6-0.1
	c4.3-1.1,8.7-1.6,13.2-1.2c0.9,0.1,1.8,0.1,2.7,0.1c17.6,0,31.8-14.3,31.8-31.8C176.1,133.9,174.7,128.5,172,123.8z"/>
<path class="st4" d="M118.6,134.3c5.6,0,10.1,4.6,10,10.2c0,1.1-0.2,2.1-0.5,3.1c-1.7,5-4.7,9.6-10.4,10.3
	c-7.2,0.8-11.3-3.9-13.8-9.7c-2.1-5.2,0.4-11.1,5.6-13.2c1.2-0.5,2.6-0.8,3.9-0.7L118.6,134.3z"/>
<path class="st5" d="M130.4,113.8c-1-4.2-3.8-7.8-7.8-9.6c-5-2.1-10.8-1.7-15.4,1.2c-5.6,3.6-7.1,9.8-6.8,15.6
	c0.4,6.9,4.6,24.6,16.5,22.7c7.3-1.1,11.6-6,13.1-12.2C131.2,126.6,131.9,119.7,130.4,113.8z"/>
<path class="st6" d="M111.7,109.3c0.3-0.1-0.7,0.3-0.9,0.5c-0.9,0.6-1.7,1.3-2.4,2.2c-2.7,3.3-2.9,7.7-2.3,11.8
	c0.3,1.5-2,2.1-2.3,0.6c-1.1-6.5,0.4-14.7,7.2-17.4C112.5,106.4,113.1,108.7,111.7,109.3z"/>
<ellipse transform="matrix(0.8164 -0.5774 0.5774 0.8164 -51.287 73.4476)" class="st7" cx="89.9" cy="117.4" rx="6" ry="6"/>
<ellipse transform="matrix(0.8164 -0.5774 0.5774 0.8164 -51.287 73.4476)" class="st5" cx="89.9" cy="117.4" rx="3.6" ry="3.6"/>
<ellipse transform="matrix(0.8164 -0.5774 0.5774 0.8164 -41.8552 103.126)" class="st7" cx="141.3" cy="117.4" rx="6" ry="6"/>
<ellipse transform="matrix(0.8164 -0.5774 0.5774 0.8164 -41.8552 103.126)" class="st5" cx="141.3" cy="117.4" rx="3.6" ry="3.6"/>
</svg>
