<?xml version="1.0" encoding="utf-8"?>
<!-- Generator: Adobe Illustrator 18.0.0, SVG Export Plug-In . SVG Version: 6.00 Build 0)  -->
<!DOCTYPE svg PUBLIC "-//W3C//DTD SVG 1.1//EN" "http://www.w3.org/Graphics/SVG/1.1/DTD/svg11.dtd">
<svg version="1.1" id="Layer_1" xmlns="http://www.w3.org/2000/svg" xmlns:xlink="http://www.w3.org/1999/xlink" x="0px" y="0px"
	 viewBox="0 0 1535.9 155.6" enable-background="new 0 0 1535.9 155.6" xml:space="preserve">
<path fill="#AAD7DB" d="M1421.2,19.8L1421.2,19.8c-64.7-24-141.5-26.3-209-6.5l-78.4,23.1C1066.2,56.4,989.2,54,924.4,30l-27.3-10.1
	c-64.7-24-141.5-26.3-209-6.5l-43.9,12.9c-67.5,19.9-144.4,17.5-209-6.5h0c-64.7-24-141.5-26.3-209-6.5L21.7,73.6L0,127.7h1448.1
	h66.1l21.7-88.1C1496.4,39.7,1456.9,33.1,1421.2,19.8z"/>
<g>
	<path fill="#D1EEFC" d="M719.7,107.4c0.5,0,0.2-0.8,0.3-1C719.2,106.7,719.7,107.6,719.7,107.4z"/>
	<polygon fill="#D1EEFC" points="711.4,110.3 711.5,110 710.4,111 	"/>
	<path fill="#D1EEFC" d="M703.4,111.4c0.9,1.3,2.8-0.6,4.3-0.3l0.3,0.3l0.5-1.2C706.8,110.6,704.7,111.6,703.4,111.4z"/>
	<path fill="#D1EEFC" d="M698.8,109c0.3,0.5-0.9,0.6,1,0c-0.1,0-0.1-0.1-0.2-0.1C699.4,108.9,699.2,108.9,698.8,109z"/>
	<path fill="#D1EEFC" d="M699.6,108.9C700.4,108.7,699,108.5,699.6,108.9L699.6,108.9z"/>
	<path fill="#D1EEFC" d="M695.7,109.7l1-0.7c-0.3-0.3-1.3-0.2-0.9-0.5C694.7,109,695,109.3,695.7,109.7z"/>
	<path fill="#D1EEFC" d="M694.9,110.9l0.5-0.3C695.3,110.5,695.1,110.5,694.9,110.9z"/>
	<path fill="#D1EEFC" d="M696.5,110l-1.1,0.6c0.2,0.2,0.3,0.7,0.5-0.2C695.9,110.8,696.1,110.4,696.5,110z"/>
	<path fill="#D1EEFC" d="M697.3,110.1c0.7,0.2,1.5,0.3,0.5,0.9C699.8,110.6,699.3,109.6,697.3,110.1z"/>
	<path fill="#D1EEFC" d="M703.2,112.9l0.9,0.3l0.6-0.6C704.5,112.9,703.1,112.5,703.2,112.9z"/>
	<path fill="#D1EEFC" d="M688.7,110.1c0,0.3,0.5,0.7,0.6,1.1l0.8-0.5C689.7,110.6,688.9,110.5,688.7,110.1z"/>
	<path fill="#D1EEFC" d="M689.4,111.2l-1.1,0.7C689.4,111.8,689.5,111.5,689.4,111.2z"/>
	<polygon fill="#D1EEFC" points="694.9,112.5 696.7,111.2 694.5,112.6 	"/>
	<polygon fill="#D1EEFC" points="684.1,110.8 684.7,110 683.6,111.3 	"/>
	<path fill="#D1EEFC" d="M681,111.5c0.4-0.7-0.9-0.8-0.4-1.3c-0.8,0.2-1.5,0.9-2,1.4C679.2,111.2,680,111.2,681,111.5z"/>
	<path fill="#D1EEFC" d="M677.6,112.4c0.3-0.2,0.6-0.5,1-0.8C678.3,111.8,677.9,112,677.6,112.4z"/>
	<path fill="#D1EEFC" d="M686.2,112.1c-0.1-0.2-0.4-0.6-1.1-0.7l0.6,0.8C685.8,112.2,686,112.1,686.2,112.1z"/>
	<path fill="#D1EEFC" d="M685.7,112.2L685.7,112.2c-0.5,0-0.9,0.1-1.1,0.1C684.8,112.3,685.1,112.3,685.7,112.2z"/>
	<path fill="#D1EEFC" d="M686.3,112.1c0,0-0.1,0-0.1,0C686.2,112.2,686.2,112.2,686.3,112.1z"/>
	<path fill="#D1EEFC" d="M691.6,112.3c-0.6,0.6-2,1.3-0.5,1.8C691.5,113.4,690.6,113.1,691.6,112.3z"/>
	<path fill="#D1EEFC" d="M687,113l1.3,0c-0.1-0.2-0.3-0.5,0-0.8L687,113z"/>
	<polygon fill="#D1EEFC" points="686.5,113.4 687,113 686.6,113.1 	"/>
	<path fill="#D1EEFC" d="M680,112.8c-0.5,0.5-1.1,0.6-1.8,0.8c0.8,0,1.5,0,2.3-0.1C680.5,113.2,680.8,112.7,680,112.8z"/>
	<path fill="#D1EEFC" d="M682.8,112.6c0,0-0.1,0-0.1,0.1C682.7,112.7,682.8,112.7,682.8,112.6z"/>
	<path fill="#D1EEFC" d="M671.4,114.8l0.1,0.1c0-0.1,0-0.1,0-0.1L671.4,114.8z"/>
	<path fill="#D1EEFC" d="M680.6,113.6c0.6,0.1,0.9-0.2,1.2-0.5c-0.4,0.2-0.8,0.3-1.3,0.4C680.5,113.6,680.5,113.7,680.6,113.6z"/>
	<path fill="#D1EEFC" d="M675.8,113.2c0.3,0.1,0.7,0.2,1,0.3C676.5,113.2,675.9,112.9,675.8,113.2z"/>
	<path fill="#D1EEFC" d="M682.4,112.5C682.5,112.4,682.5,112.4,682.4,112.5C682.3,112.3,682.3,112.3,682.4,112.5z"/>
	<path fill="#D1EEFC" d="M682.4,112.5c-0.3,0.2-0.5,0.4-0.6,0.6c0.3-0.1,0.6-0.3,0.9-0.4C682.6,112.6,682.5,112.5,682.4,112.5z"/>
	<path fill="#D1EEFC" d="M670.4,120.6c-0.1-0.8,1.3-1.8,2.7-1.2c1.1-0.8-0.1-3.2-1.5-4.5c0,0.3,0.1,0.7-1.1,1.4
		c0.5,0.3,3,0.5,2.1,1.4c-1.6,0.7-1.4,0-2.3-0.3c0.9,0.8-1.9,1.8-1.2,3.2l1.4-0.8C670.4,120,669.9,120.5,670.4,120.6z"/>
	<path fill="#D1EEFC" d="M674,114.6l0.5-0.2c-0.6,0-1.1-0.3-2-0.7c-0.8,0.5-0.9,0.9-0.9,1.1l2.6-0.4L674,114.6z"/>
	<path fill="#D1EEFC" d="M676.9,114c-0.3,0.9-1.5,1.5-0.5,2.3c1.5-0.3,0.9-0.9,1.8-1.4C675.7,115.5,678.8,114.2,676.9,114
		c0.5-0.1,0.9-0.3,1.3-0.4c-0.5,0-0.9-0.1-1.4-0.2c0,0,0,0,0.1,0l0,0l0,0c0.1,0.1,0.2,0.1,0,0.1c0,0,0,0,0,0
		C676.9,113.7,676.9,113.9,676.9,114c-0.8,0-0.2-0.2,0.1-0.3c0,0,0-0.1,0-0.1c0,0,0,0,0,0l-2.4,0.9
		C675.1,114.4,675.7,114.3,676.9,114z"/>
	<path fill="#D1EEFC" d="M690.1,116.1c-0.1-0.1-0.1-0.1-0.1-0.2C689.8,116.1,689.8,116.2,690.1,116.1z"/>
	<path fill="#D1EEFC" d="M689,115.8c0.2-0.1,0.3-0.5,0.9-0.5c0.5,0.2,0.1,0.4,0.1,0.7c0.3-0.3,1.1-0.8,0-1l-0.2,0.1
		c-1-0.1-2.5-1-2.3-1.1C687.8,114.6,688.2,115.1,689,115.8z"/>
	<path fill="#D1EEFC" d="M682.9,115.1l-2,0.8l1.2,0.6l-0.1-0.4C683.1,115.9,682.8,115.4,682.9,115.1z"/>
	<polygon fill="#D1EEFC" points="671.1,114.4 671.2,113.5 670.3,115 	"/>
	<polygon fill="#D1EEFC" points="668.4,115.1 668.4,114.3 667.8,114.9 	"/>
	<path fill="#D1EEFC" d="M518.4,150.2l-0.7,0.1C518.1,150.3,518.3,150.2,518.4,150.2z"/>
	<path fill="#D1EEFC" d="M522.9,150.7l0.1-0.4C522.9,150.5,522.8,150.7,522.9,150.7z"/>
	<path fill="#D1EEFC" d="M603.2,130.5c-1.1-0.5-2.3-1.3-2-0.5l0.5,0.8C602.2,130.4,602.7,130.4,603.2,130.5z"/>
	<path fill="#D1EEFC" d="M559.8,145.1c0.1,0.1,0.2,0.2,0.3,0.2c0.2-0.3,0.3-0.6,0.5-0.9C560.3,144.7,560.1,144.9,559.8,145.1z"/>
	<path fill="#D1EEFC" d="M559.6,148.8l-1.3-0.4C558.7,148.5,559.1,148.7,559.6,148.8z"/>
	<path fill="#D1EEFC" d="M493.8,146.7l-0.9,0.7C494,147.6,493.6,147.1,493.8,146.7z"/>
	<path fill="#D1EEFC" d="M641.1,121.1c-0.8-0.2-1.5-0.2-2-0.1C640.1,121.3,641,121.9,641.1,121.1z"/>
	<path fill="#D1EEFC" d="M521.2,141.2c-0.4,0.1-0.6,0.3-0.6,0.5C521,141.6,521.3,141.4,521.2,141.2z"/>
	<path fill="#D1EEFC" d="M636.9,121.6c0.2,0.1,0.3,0.1,0.4,0.1c0.5-0.3,1.1-0.5,1.7-0.6C638.3,120.8,637.5,120.8,636.9,121.6z"/>
	<path fill="#D1EEFC" d="M408.8,128.8c-0.1,0-0.1-0.1-0.2-0.1C408.6,128.8,408.7,128.8,408.8,128.8z"/>
	<path fill="#D1EEFC" d="M382.5,122.9c0.2-0.1,0.7-0.2,1.1-0.3C383.3,122.5,383,122.6,382.5,122.9z"/>
	<path fill="#D1EEFC" d="M657.6,116.8C658.1,116.7,657.6,116.7,657.6,116.8L657.6,116.8z"/>
	<path fill="#D1EEFC" d="M661,119.6c-0.1,0.1-0.2,0.3-0.1,0.5C660.9,119.9,660.9,119.7,661,119.6z"/>
	<path fill="#D1EEFC" d="M632.5,128.2C632.5,128.2,632.5,128.2,632.5,128.2C632.7,128.3,632.7,128.3,632.5,128.2z"/>
	<path fill="#D1EEFC" d="M658.5,117c-0.2-0.1-0.5-0.1-0.8-0.1C657.9,117,658.1,117,658.5,117z"/>
	<path fill="#D1EEFC" d="M658.3,116.7c0.2,0,0.4,0,0.5,0C658.9,116.5,658.8,116.4,658.3,116.7z"/>
	<path fill="#D1EEFC" d="M656.8,117c0.3-0.1,0.6-0.1,0.9-0.1c-0.1,0-0.2-0.1-0.2-0.1C657.4,116.9,657.2,116.9,656.8,117z"/>
	<path fill="#D1EEFC" d="M454.8,133.6c0,0-0.1-0.1-0.1-0.1C454,133.7,454.3,133.7,454.8,133.6z"/>
	<path fill="#D1EEFC" d="M590.8,142.9C590.9,142.9,590.9,142.9,590.8,142.9C590.9,142.9,590.8,142.9,590.8,142.9L590.8,142.9z"/>
	<path fill="#D1EEFC" d="M589,144c0.6-1.3,1.1-1.2,1.8-1.2l-1.3-2.3L589,144z"/>
	<path fill="#D1EEFC" d="M507.6,148.8l1.3,1c-2,1-3.2,0.3-2,1.6c0.3-1.3,1.8-1.1,3.2-1c1.4,0.2,2.9,0.3,3.2-1l0.9,0.7
		c-0.3-0.1-0.3,0.1-0.6,0c1.7,1.6,1.7-1.7,4.1-1c0.8,0.3,1.4,0.8,0.8,1l2-0.4c0.5,0.1,0.4,0.6-0.2,0.5c1,0.1,2,0.1,2.9,0.1l0,0.1
		c0.5-0.4,1.5-1,1.9-1.2c0.7,0.5-0.4,0.3-0.2,0.6l1.7-0.5c0.6,0.8-0.8,1.3-1.9,1.1c1.3,2.8,1.4-0.5,4.6,1.2l-1.6,0.3
		c0.9,1.6,2.1,1.1,3.9,2.2c-0.4-0.5-3.4-2.6-1.6-3.2c0.5,0.2,1.1,0.4,2.1-0.1c0,1,0.9,0.7,2.1,0.7l-0.1,1.3c1.3-0.3,1.2-1,1.9-1.6
		c1.4,0.1,1.7,1.2,2,2c2.3,0.2-1.6-1.6,1.1-1.9c1.9,0.4,3.2-0.1,5.4-1c1.3,0.4-0.2,0.8,0.3,1.1l1.1-1.1c0.3,0,0.2,0.3,0.2,0.5
		c0.9-0.5,0-1.3,1.5-1.7c0.2-0.7,1-0.2,2,0.2c1,0.4,2.2,0.8,3-0.1c0.5,0.3-0.1,0.8,0,1.3c2.5-1.3,2.1-0.9,4.1-2.6l1.9,0.6
		c-1.4-0.8,0.1-2.1,1.4-3.2c-0.5-0.4-1-0.8-1.2-0.9l2.2-1c0.3,0.2,0.1,0.6-0.2,1.2c0.1-0.1,0.3-0.2,0.4-0.4c0.9,0.3,0.6,1.1,0.1,1.9
		c-0.3-0.2-0.6-0.4-0.9-0.7c-0.5,0.8-0.9,1.8-0.7,2.5c0.1-0.2,0.4-0.3,0.7-0.4c-0.1,0.2-0.2,0.4-0.1,0.5c0.1,0.1,0.3-0.2,0.6-0.6
		l0.7,1.3l0-0.6l3.2,0.4c2-1.7,3.5-4.2,6.8-5.4c-0.6,1.2,0.1,1.7,0.3,2.9c-1.2-1.1-2.6,1-4.4,1.1c1,0,0.8,0.6,0.6,0.8l3-1.8
		c0.1,1,0.8,0.6,1.7,0.9c-1-1.8,2.1-1.8,3.3-2.6c0.2,0.6,0,1.4-1.6,1.5c2,1.1,1.8-2.8,3.7-1.8c-0.4,0.1-0.6,0-0.7,0.4
		c0.8-0.8,3-0.8,2.6-0.1l-0.4,0.1c2.6-0.3,7.7-1.7,7.6-3.5c0.1,0.2,0.1,2.1,0.1,2.4c1.1-2.2,2.1-4.4,3.1-6.6c0,1.5,2.3,4.5,0.4,5.8
		c0.6,0.1,1.4,0.1,2.6-0.7c-0.5-0.1-1.5-1.8-1-2.1c1.9,1.2,1.3,0.6,3.5,1.5c-0.7-0.2-0.6-2.5,0.4-2.7c-0.1,0.4,0.6,2.2,0.3,2.5
		l1.8-2.8c-0.5,0.5,0.4,1.9,1.1,2.4c-0.4-0.4,2.1-0.5,2.7-0.9l-1.1-0.2c2.8-0.4,1.9-3.8,4.5-4.3c-0.2,0.5-0.1,3,1.4,2.9
		c0.3-1.3,1.3-6.1,3.4-7.6l0.6,0.5l1.6-1.2c-0.7,2-2.9,6.3-4.2,8.2c1.1,0.2,0.5,0.7,2,0.2c0.7,0.5-0.6,1.1-1,1.3l3.6-0.5
		c-0.5-1.3,2.3-2,1.9-3.1l-3.4,2.4c-0.5-1.3,1.2-4.3,3.7-4.7c0.8,0.4,0.1,2.4,0.3,2.9c0.2-0.5,2.1-1.5,2.4-1.2l-0.9,1
		c1.5,0.1,1.8-2.3,3.8-1.5c0.6-0.1,2.1,1.2,2,0.4c-1.3-1.2-2.7-5.8-2.4-7.1c0.2,0,3.4,0.6,4.2,1.2c1.2,0.9-0.7,3.1,0.4,3.9
		c-0.1-0.4,0.3-0.9,0.5-1.1c0.7,0.2,0,1.2,1.3,0.7c-0.1-1.4,2.7-0.6,0.3-1.3c1.2-0.7,1.4-0.1,2.9-0.5c-0.7-0.7,0.6-3.2,1.8-3.9
		c0,0.4,0.4,0.7,0.6,0.9c2.7-0.5,4.2-0.3,6.7-0.8c0.3,0.3,1.6,0.4,1.2,1.1c0.3-0.3,0.5-0.8,1.3-1.1c1.7,0.8-1.6,0.6-0.2,1.7
		c-0.1-0.8,1.7-1.5,2.7-2.2c-0.6-1.1-2.5,0.3-3.5,1.1c-0.4-1.6,1.1-3.8,3.5-5.1c2-0.9,1.1,0.9,1.4,0.6c3.9-0.6,2.7-3.6,6.1-3.1
		c1.5,0.8,0.5,2.1,0.9,2.8c-1.6,0.8-2.7-0.1-3.8,0.2l1.5,0.2c-0.5,0.5-1.5,1-2.2,0.8c1.3,0.7,6.5-1.2,9.7-1c0.5-0.5,1.3-1,0.8-1.4
		l-0.9,0.3c-1-0.7,1.5-1.5,0.3-1.7c1.1-0.9,2.4-2.1,4.3-2l0.6,1.1c-0.1-0.3-1.3-0.5-1.7,0c0.6-0.7,3.1,1.1,3.6-0.7l-1.4-0.6
		c1.2-0.9,2.5-2.5,4.1-2.4c-1-1.1-0.3,0.2-1.7-1c1.3,1.5-4.1,0.7-2.1,2.2c-1.5-1.4-2.1-0.3-3.9-1.4c0.1,0.4,0.7,0.6-0.7,0.7
		c0,0.1-0.1,0.3-0.2,0.4c0,0-0.1,0-0.1,0c0,0,0.1,0,0.1,0c0,0.1,0,0.1,0,0c0.4,0.1,0.7,0.3,0.8,0.5c-0.5,1-2.6,1.5-3.2,2.1
		c-0.8,0,0.2-0.5-0.3-0.9l-0.9,0.9c-0.3-0.9-2.4-1-0.7-1.9l-1.7,0.3c-1.1-0.3-2.5-0.2-3.2,0.4c-0.8,0-1.8,1.4-1.2,0.6l-2.5,1.1
		l-0.1-0.2c-2.6,0.5-5,2.6-8.3,1.8c-0.8,0.4-1.6,0.9-3.2,1l-0.5-0.7c-1,0.5-3.5,0.1-3.8,1c-1.7-1.7-5.5,0.9-7.5,1l0.2,1
		c-1.4,0.3-2.6,0.9-4.1,1.7l0.3,0.8c-1.2,1.1-3.8,0.3-6.1,1c0.1-0.4,0.7-0.4,1.1-0.3c-3.2-1.2-5.3,2.9-8.1,2.1
		c-0.5,0.5-1,0.5-1.5,0.4c0.1,0,0.1,0,0.1-0.1c-0.1,0-0.2,0-0.3,0.1c-0.3-0.1-0.6-0.2-1-0.2c0.3,0.1,0.6,0.3,0.8,0.3
		c-0.5,0.1-1.1,0.4-1.8,0.8l-0.5-0.9c-0.1,0-0.1,0-0.2,0.1c-0.8-0.2-0.4,0.6,0.1,1.2c-0.3,0.2-0.6,0.5-0.8,0.8
		c-0.9-1.4-1.7,1-2.9-0.4c-0.3,0.9-3.3,1.5-3.3,3.2c-0.1-0.2-0.3-0.3,0.1-0.4c-0.8,0-1.6,0-2.2,0.6l-0.6-1.1l-1.3,2
		c-1.2-0.5-1.7-0.8-0.9-2c-2.1,2-1.9,1-3.6,2.9L586,137c-0.7,0.2-1.7,1.5-2.3,1c-1-0.5-3.1-0.1-5.5,0.4c-2.4,0.5-5.2,1-7.5,0.7
		c1.3,2.1-2.2-0.7-2,1.1c-0.3-0.5-1-0.7-0.4-1.3c-2.1,0.9-3.4-0.3-4.7,1.4c-0.3-0.5,0.3-0.9,0.1-1.2c-0.2,0.1-0.6,0.6-0.9,0.3
		c-0.3-0.3,0.3-0.5,0.6-0.8c-2.2,0.4-2.2,2.2-2.1,3.8c-1.3-0.6-1.8-0.4-2.5,0.7c-0.5-0.5-1.2-0.9,0.2-1.3c-0.8,0-4.9-0.1-4.9,1.1
		c-0.3-0.3-1.1,0-1.3,0.2c-1.8,0.1-2,0-3.7,0.3c0.2,0.1,0.3,0.1,0.5,0.2c-0.6,1.6-1.4,0.4-2.8,0.7l0-0.2c-3.3-0.9-1.4,0.7-4.6-0.5
		l0.2,1c-0.2,2.1-2.9-1.1-4.7-0.3c0.2,0.2,0.5,0.4,0.7,0.5c-1,0.7-2.8-2.8-3.8-3.1c-0.2-0.2,0.4-0.3,0.7-0.4
		c-2.6-1.3-0.4,1.3-2.3,1.5c-0.3-0.7,0.5-1.7-0.8-1.9c-0.6-0.6-3.9,2-5.7,0.6c0.4,0.6,0.7,1.1-0.2,1.4c-1.4,0-3.6-2.3-5-0.8
		c-0.2-0.2-0.2-0.3-0.2-0.4c-1.1,0.3-3.6,0.3-4.3,1.1c-0.3-1.7-2-1.6-3.6-1.4c-1.6,0.2-3.1,0.4-2.8-1.1c-1.1-0.1-2.2-0.3-3.3-0.4
		l0.1-0.3c-2.1-0.6-2.9,0-3.8,0.5c-0.4-0.3,0-0.5,0-0.7c-2.9-1.3-3.3-1.2-6.2-0.3l-0.1-1c-0.8,0.4-4.1-2.5-7.3-2.1
		c0.1-0.1,0.2-0.3,0.4-0.4c-3.7,0.3-7.4-4.7-9.5-1.5l-2.5,0.3c2.8,1-0.8,1.4,0.2,2.3c-1.2-0.1-2.7-1.8-1.2-1.6l0.2,0.2
		c1-1.7-3.4-1.6-3-2.8c-5.7-1.4-11-3.9-16.3-5.3l0.3,1.6l-1.9-0.5c-0.4-0.5-0.4-1.3,0.9-0.9c-0.5-1-2.4,0.1-2.5,0.4
		c-2.5-1.2,1.4-1.4,0.6-1.6L454,126l0.2,0.2c-1,0.4-1.3,1-2.9,0.5c-1-0.5-0.3-1-0.7-1.2c0-0.1-0.1-0.2-0.6-0.2l-2.4-0.7l0.7,1.3
		c-1.2,0.3-2.2-0.6-1.4,1c-1.2-2.4-8.7-2.6-9.6-3.4c-1.7,0.6-3.1,0.2-4.9-0.1c0.4,0.3,0.5,1.6-1.1,1.2c1-2.5-2.7-1.6-3.7-3.7
		c1,1.4-4.6-0.3-3,1.7c-1.3-0.4,0-1-0.9-1.8c-3.3,0.7-7-1.4-11.1-1.2c-0.1,0.3,0.6,0.9-0.3,1.4l-2.1-1.8c-0.8,0.1-0.8,2-2.2,0.8
		c0.2,0.3,0.5,0.7,0,0.9c-1.9-0.4-3.9-0.6-5.9-0.4c-2,0.1-4,0.4-6,0.6c-1,0.1-2,0.3-3,0.4c-1,0.1-2,0.2-3,0.3
		c-2,0.2-4.1,0.1-6.2-0.2c1.2,0.4,0.5,0.6-0.3,0.9c0.6,0,0.2,0.8,0.4,1.3l-3.6-0.5c-0.2,1.4-3.4,1.1-3.4,2.4l0.9-0.5
		c-0.9,1.8,2.8,2.6,3.1,4.5c0.5-1.1,1.6-0.6,2.8-0.4c1.2,0.3,2.4,0.4,3.4-1c0.6,0.3-0.3,0.7,0,1.1c0.4-0.9,1.1-1.2,2.6-1.1l-0.1,0.2
		c3.8-0.8,5.5-0.3,9.9-0.1l-0.4-0.9c0.9,0,1.2,0.3,1.6,0.5c0.5-0.7-0.2-0.7-0.8-0.7c-0.7,0-1.3,0-0.9-0.8c0.7,0.9,2.3,0.8,3.9,0.8
		c1.6-0.1,3.1,0,3.6,1.1c1.4,0-0.4-1.1,1-1.1l0.4,0.6l0.4-0.8c0.9,0.1,1.4,0.9,1.4,1.4c-0.2-0.1-0.6,0.1-0.9,0.2
		c1.2,0.7,3.4-0.1,3.8,0.1l-1.4-0.4c3.9-0.5,8.6,0.8,12.6,0l-0.2-0.5c3-0.4,2.3,0.8,5.5,0.9L429,129c0.7-0.3,1.6-0.4,2.5-0.2
		c-0.9,0.4,1.3,1.2,0.2,1.6c3.3-0.3,1.7-0.4,4-1.7l0.3,0.8c0.8-0.5,1-0.9,2.6-0.7c-1.4,0.4,0.8,1.3-0.8,1.8c3,2.3,5.3-0.6,6.3,2.1
		c2-1.7-2.6-1.8-1.7-2c-0.6-0.8,1.6-1.2,2.6-0.8c1.1,0.3,1.2,2.9,3.9,3.5c-0.3-0.1-0.3,0.1-0.6,0c0.9,0.7,2.1-0.2,3.1,0.9
		c1-1,1.6,0.5,2.1-1l-2.5-0.2c1.5-0.1,3.2-1.5,5.3-0.1c-0.3,0.3-1,0.5-1.6,0.6c0.6,0.6,1.4,0,1.9,0.7c-0.6,1.5-3.1-0.4-4.8,0.4
		c0.6,0.8,3.1-0.4,1.9,1.1c1.6-1.8,2.5,0.9,4.8-0.2l-0.4,0.9c0.3-0.1,1-0.4,1.5-0.2l-1.3,0.9c1.7-0.6,2.6,1.6,4.1,1.4
		c-2.9-0.7-0.4-1.3-1.4-2.3c3.9-0.3,1.5,2.9,5.6,3.6c-0.6,0-1.9-1.1-0.9-1.3c0.7,0.4,1.6,1,2,1.6c2.7,0.5-0.2-1.1,1.1-1.3
		c0.6,1.4,1.4-0.1,2.7-0.2l-0.2,0.9c2.9,1.4,1.3-1.7,3.9-0.3l-1.5,1l1.5,0l-0.6,1c1.8-0.4,2.2,0,3.7,0.6c-0.2-0.8,0.6-1.6,2-1.3
		c0.8,0.8-0.7,0.8,1.2,1.1c-0.6,0.5-1.3,1.1-1.9,0c-0.2,0.3-0.6,0.5-0.7,0.8c0.8,0.9,2.5,0.8,3.2,1c-0.3-0.1-0.6-0.2-0.7-0.4
		l3.1-0.6c0.4,0.5-0.1,0.7-0.5,0.8c0.6,0,1.1-0.3,2-0.2c-0.4,0.7-0.5,1.5-1.8,1.6l2.9-0.2c0.1,0.4,1.2,1.2,0.7,1.4
		c1.4,0.8,4-0.6,5.9,0.4c0.1-0.1,0.4-0.2,0.8-0.2c1.8,0.6,3.3,1.9,5.8,1.3l1,1.6c1.8,0-1.4-2.1,1.7-2c2.2,0,0.5,1.3,1.2,1.9
		c1.2-0.5,3.2-1.6,4.9-0.1C508.6,149.1,508.2,148.8,507.6,148.8z M529.8,150.8c-0.4,0.2-1.3,0.8-1.6,0.2
		C528.7,149.9,529.1,150.4,529.8,150.8z M563.2,146.5c-0.3,0.4-0.8,0.3-1.4,0C562.2,146.4,562.7,146.3,563.2,146.5z M651.5,118.9
		C651.5,118.9,651.5,118.9,651.5,118.9C650.5,118.8,650.8,118.9,651.5,118.9z M653.5,118.9c0.2-0.2,0.1-0.3,0-0.4
		c-0.1,0.3-0.5,0.4-1,0.4C652.7,119.1,653,119.2,653.5,118.9z M450.3,125.9l0.3,0.3C449.7,126.3,450,126.1,450.3,125.9z"/>
	<path fill="#D1EEFC" d="M559.7,148.4c-0.1-0.1-0.2-0.3-0.3-0.5C559.3,148,559.3,148.2,559.7,148.4z"/>
	<path fill="#D1EEFC" d="M494,146.5C494,146.5,493.9,146.5,494,146.5c-0.1,0-0.1,0.1-0.2,0.1L494,146.5z"/>
	<path fill="#D1EEFC" d="M625.9,133.7c-0.4,0-0.7-0.2-0.9-0.3C625.1,133.7,625.3,133.8,625.9,133.7z"/>
	<path fill="#D1EEFC" d="M663.4,115.2l-1.2,0.5c0.6-0.2,0.8,0,1.2,0.1C663.3,115.6,663,115.3,663.4,115.2z"/>
	<path fill="#D1EEFC" d="M675.2,119.1c0.2-0.1,0.4-0.1,0.5-0.2l-0.1-0.4C674.8,118.6,674.4,119,675.2,119.1z"/>
	<path fill="#D1EEFC" d="M665.1,118.1c0.3,0.8,1,0.4,1.8,0c-0.1,0-0.1,0-0.2,0C666.8,117,666,117.6,665.1,118.1z"/>
	<path fill="#D1EEFC" d="M667.1,118.1c0.3-0.1,0.5-0.2,0.8-0.2C667.9,117.5,667.6,117.9,667.1,118.1z"/>
	<path fill="#D1EEFC" d="M655.8,117.9c0.5,0.1,0-1.1,0.3-0.8C656.4,116,653.7,118.9,655.8,117.9z"/>
	<polygon fill="#D1EEFC" points="666.3,120.6 665.8,119.7 665.5,120.6 	"/>
	<path fill="#D1EEFC" d="M659.4,121.2l1.4,0c-0.1-0.2,0.1-0.3,0.3-0.4C660.3,121,659.3,121,659.4,121.2z"/>
	<path fill="#D1EEFC" d="M661.1,120.8c0.4-0.1,0.9-0.2,1.1-0.4C662,120.5,661.5,120.6,661.1,120.8z"/>
	<polygon fill="#D1EEFC" points="664.5,121.3 664.1,121.2 663.1,121.3 	"/>
	<path fill="#D1EEFC" d="M644.7,124.2l-1.4,0.6c-0.1,0.4,0.4,0.5,0.9,0.2C644.4,124.7,645,124.5,644.7,124.2z"/>
	<path fill="#D1EEFC" d="M649.8,125.9c-0.4-0.1-0.5-0.3-0.8-0.6l0.2,1.2L649.8,125.9z"/>
	<path fill="#D1EEFC" d="M645.5,127.1c-0.1,0.4-1.9,1.4-0.1,1C645.5,127.7,646.9,127.1,645.5,127.1z"/>
	<polygon fill="#D1EEFC" points="622.8,131 623.2,130.9 622.6,128.9 	"/>
	<path fill="#D1EEFC" d="M604.4,140.9c1.9,0,0.1-1.3,1.8-1.2c0.3-0.6-1.4-0.1-1.1-0.7C604.3,139.8,603.6,139.7,604.4,140.9z"/>
	<path fill="#D1EEFC" d="M605.2,139.1c0.1-0.1,0.3-0.3,0.5-0.4C605.4,138.8,605.2,139,605.2,139.1z"/>
	<polygon fill="#D1EEFC" points="377.9,123 376.6,122.9 377.6,123.4 	"/>
	<path fill="#D1EEFC" d="M376.1,125.1l-0.7-1.1l-0.3,1.3C375.4,125.2,375.8,124.9,376.1,125.1z"/>
	<path fill="#D1EEFC" d="M533,153.5l0.1-0.3c-0.2-0.3-0.5-0.4-1-0.4L533,153.5z"/>
	<polygon fill="#D1EEFC" points="516.7,151.2 517,151.3 516.7,150.1 	"/>
	<path fill="#D1EEFC" d="M503,150.5c0.5,0.2,1.2,0,1.8,0.2C503.6,150.7,503.2,149,503,150.5z"/>
</g>
<g>
	<path fill="#D1EEFC" d="M1166.9,101c0.5,0,0.3-0.8,0.3-1C1166.4,100.3,1167,101.2,1166.9,101z"/>
	<polygon fill="#D1EEFC" points="1158.3,104 1158.4,103.6 1157.3,104.6 	"/>
	<path fill="#D1EEFC" d="M1150.2,105.3c1,1.3,2.9-0.8,4.4-0.5l0.3,0.3l0.5-1.2C1153.6,104.3,1151.5,105.5,1150.2,105.3z"/>
	<path fill="#D1EEFC" d="M1145.3,103.1c0.4,0.5-0.8,0.7,1,0c-0.1,0-0.1-0.1-0.2-0.1C1145.9,103.1,1145.7,103.1,1145.3,103.1z"/>
	<path fill="#D1EEFC" d="M1146.1,103C1146.9,102.8,1145.4,102.7,1146.1,103L1146.1,103z"/>
	<path fill="#D1EEFC" d="M1142.2,104.1l1-0.7c-0.3-0.3-1.3-0.1-1-0.4C1141.1,103.5,1141.4,103.8,1142.2,104.1z"/>
	<path fill="#D1EEFC" d="M1141.4,105.4l0.5-0.3C1141.8,105,1141.6,105,1141.4,105.4z"/>
	<path fill="#D1EEFC" d="M1143,104.4c-0.4,0.2-0.8,0.5-1.1,0.7c0.2,0.2,0.3,0.6,0.5-0.3C1142.4,105.2,1142.6,104.8,1143,104.4z"/>
	<path fill="#D1EEFC" d="M1143.8,104.4c0.7,0.2,1.6,0.2,0.5,0.9C1146.4,104.7,1145.9,103.8,1143.8,104.4z"/>
	<path fill="#D1EEFC" d="M1150.1,106.8l0.9,0.3l0.6-0.6C1151.3,106.8,1149.9,106.4,1150.1,106.8z"/>
	<path fill="#D1EEFC" d="M1135,105.1c0,0.3,0.6,0.7,0.7,1l0.7-0.5C1136,105.5,1135.2,105.5,1135,105.1z"/>
	<path fill="#D1EEFC" d="M1135.8,106.1l-1.1,0.8C1135.8,106.7,1135.9,106.4,1135.8,106.1z"/>
	<path fill="#D1EEFC" d="M1141.5,107c0.6-0.5,1.2-1,1.8-1.5c-0.7,0.5-1.5,1.1-2.2,1.6L1141.5,107z"/>
	<polygon fill="#D1EEFC" points="1130.3,106.3 1130.8,105.4 1129.9,106.8 	"/>
	<path fill="#D1EEFC" d="M1127.2,107.3c0.4-0.7-1-0.8-0.5-1.2c-0.8,0.3-1.4,1-1.9,1.6C1125.4,107.2,1126.2,107.1,1127.2,107.3z"/>
	<path fill="#D1EEFC" d="M1123.9,108.6c0.3-0.2,0.6-0.6,0.9-0.9C1124.5,107.9,1124.2,108.2,1123.9,108.6z"/>
	<path fill="#D1EEFC" d="M1132.6,107.4c-0.1-0.2-0.4-0.6-1.2-0.6l0.7,0.7C1132.2,107.4,1132.4,107.4,1132.6,107.4z"/>
	<path fill="#D1EEFC" d="M1132.1,107.5L1132.1,107.5c-0.6,0.1-0.9,0.2-1.1,0.2C1131.2,107.7,1131.5,107.6,1132.1,107.5z"/>
	<path fill="#D1EEFC" d="M1132.7,107.3c0,0-0.1,0-0.1,0C1132.6,107.4,1132.7,107.5,1132.7,107.3z"/>
	<path fill="#D1EEFC" d="M1138.1,107c-0.6,0.6-2,1.5-0.4,1.9C1138.1,108.2,1137.2,108,1138.1,107z"/>
	<path fill="#D1EEFC" d="M1133.5,108.2l1.3-0.1c-0.1-0.2-0.4-0.5-0.1-0.8L1133.5,108.2z"/>
	<polygon fill="#D1EEFC" points="1133,108.6 1133.5,108.2 1133,108.3 	"/>
	<path fill="#D1EEFC" d="M1126.3,108.7c-0.5,0.5-1.1,0.7-1.7,1c0.8,0,1.6-0.2,2.3-0.4C1126.9,109,1127.1,108.5,1126.3,108.7z"/>
	<path fill="#D1EEFC" d="M1129.1,108.2c0,0-0.1,0.1-0.1,0.1C1129.1,108.3,1129.2,108.3,1129.1,108.2z"/>
	<path fill="#D1EEFC" d="M1117.9,111.7l0.2,0.1c0-0.1,0-0.1,0-0.1L1117.9,111.7z"/>
	<path fill="#D1EEFC" d="M1127.1,109.4c0.6,0,0.9-0.3,1.1-0.6c-0.4,0.2-0.8,0.4-1.3,0.5C1126.9,109.4,1126.9,109.5,1127.1,109.4z"/>
	<path fill="#D1EEFC" d="M1122.1,109.5c0.3,0.1,0.7,0.1,1.1,0.2C1122.9,109.5,1122.2,109.3,1122.1,109.5z"/>
	<path fill="#D1EEFC" d="M1128.8,108.1C1128.8,108.1,1128.8,108,1128.8,108.1C1128.6,107.9,1128.7,108,1128.8,108.1z"/>
	<path fill="#D1EEFC" d="M1128.8,108.1c-0.3,0.2-0.4,0.5-0.6,0.7c0.3-0.2,0.6-0.3,0.8-0.5C1128.9,108.2,1128.9,108.2,1128.8,108.1z"
		/>
	<path fill="#D1EEFC" d="M1117.5,117.6c-0.1-0.8,1.1-1.9,2.6-1.5c1-0.9-0.5-3.2-2-4.3c0.1,0.3,0.2,0.6-1,1.5
		c0.6,0.3,3.1,0.1,2.2,1.1c-1.5,0.9-1.4,0.2-2.4,0c1,0.7-1.7,2-0.9,3.3l1.3-0.9C1117.4,117,1117,117.5,1117.5,117.6z"/>
	<path fill="#D1EEFC" d="M1120.4,111.2l0.5-0.3c-0.6,0-1.2-0.1-2.1-0.5c-0.8,0.6-0.9,1-0.8,1.2l2.6-0.7L1120.4,111.2z"/>
	<path fill="#D1EEFC" d="M1123.3,110.2c-0.2,0.9-1.3,1.7-0.3,2.3c1.5-0.5,0.9-1,1.7-1.6C1122.3,111.9,1125.2,110.2,1123.3,110.2
		c0.5-0.2,0.9-0.4,1.3-0.5c-0.5,0-0.9,0-1.4,0c0,0,0,0,0.1,0l0,0l0,0c0.1,0.1,0.2,0.1,0.1,0.1c0,0,0,0,0,0
		C1123.3,110,1123.3,110.1,1123.3,110.2c-0.8,0-0.2-0.2,0-0.4c0,0,0-0.1,0-0.1c0,0,0,0,0,0l-2.3,1.2
		C1121.5,110.9,1122.1,110.7,1123.3,110.2z"/>
	<path fill="#D1EEFC" d="M1136.9,111c-0.1-0.1-0.1-0.1-0.1-0.2C1136.6,111,1136.6,111,1136.9,111z"/>
	<path fill="#D1EEFC" d="M1135.7,110.8c0.2-0.2,0.2-0.5,0.8-0.6c0.6,0.1,0.1,0.4,0.2,0.7c0.3-0.3,1.1-0.9-0.1-1l-0.1,0.2
		c-1.1,0-2.6-0.7-2.5-0.9C1134.5,109.7,1134.9,110.2,1135.7,110.8z"/>
	<path fill="#D1EEFC" d="M1129.5,110.7l-1.9,1l1.2,0.4l-0.2-0.4C1129.8,111.5,1129.4,111,1129.5,110.7z"/>
	<polygon fill="#D1EEFC" points="1117.5,111.4 1117.5,110.4 1116.7,112 	"/>
	<polygon fill="#D1EEFC" points="1114.9,112.3 1114.7,111.5 1114.2,112.2 	"/>
	<path fill="#D1EEFC" d="M964.3,150.6l-0.7,0.1C964,150.7,964.2,150.7,964.3,150.6z"/>
	<path fill="#D1EEFC" d="M968.9,151.6l0.2-0.4C968.8,151.4,968.7,151.6,968.9,151.6z"/>
	<path fill="#D1EEFC" d="M1050.7,134.1c-1.1-0.5-2.4-1.3-2-0.4l0.5,0.8C1049.7,134,1050.2,134,1050.7,134.1z"/>
	<path fill="#D1EEFC" d="M1006.7,148.6c0.1,0.1,0.2,0.2,0.3,0.2c0.2-0.3,0.4-0.6,0.5-0.9C1007.3,148.1,1007,148.3,1006.7,148.6z"/>
	<path fill="#D1EEFC" d="M1006.4,152.2l-1.3-0.5C1005.4,151.9,1005.8,152.1,1006.4,152.2z"/>
	<path fill="#D1EEFC" d="M939.7,144.5l-1,0.6C939.9,145.5,939.5,144.9,939.7,144.5z"/>
	<path fill="#D1EEFC" d="M1088,121.7c-0.9-0.1-1.5,0-2,0.2C1087,122,1088,122.5,1088,121.7z"/>
	<path fill="#D1EEFC" d="M968,142c-0.4,0.1-0.6,0.2-0.6,0.4C967.8,142.3,968,142.2,968,142z"/>
	<path fill="#D1EEFC" d="M1083.8,122.6c0.2,0,0.3,0,0.5,0.1c0.5-0.3,1-0.6,1.7-0.8C1085.2,121.8,1084.4,121.8,1083.8,122.6z"/>
	<path fill="#D1EEFC" d="M855.9,117.9c-0.1,0-0.1-0.1-0.2-0.1C855.7,117.9,855.8,117.9,855.9,117.9z"/>
	<path fill="#D1EEFC" d="M829.5,110.8c0.3-0.1,0.7-0.2,1.1-0.3C830.4,110.5,830.1,110.6,829.5,110.8z"/>
	<path fill="#D1EEFC" d="M1104.1,115.4C1104.6,115.2,1104.1,115.3,1104.1,115.4L1104.1,115.4z"/>
	<path fill="#D1EEFC" d="M1107.9,117.8c-0.1,0.1-0.1,0.3-0.1,0.5C1107.8,118,1107.8,117.9,1107.9,117.8z"/>
	<path fill="#D1EEFC" d="M1080.1,129.7C1080.1,129.7,1080.1,129.7,1080.1,129.7C1080.3,129.8,1080.3,129.8,1080.1,129.7z"/>
	<path fill="#D1EEFC" d="M1105,115.5c-0.2,0-0.5,0-0.8,0C1104.4,115.5,1104.6,115.6,1105,115.5z"/>
	<path fill="#D1EEFC" d="M1104.8,115.2c0.2,0,0.4-0.1,0.5-0.1C1105.3,114.9,1105.3,114.9,1104.8,115.2z"/>
	<path fill="#D1EEFC" d="M1103.3,115.7c0.3-0.1,0.6-0.2,0.9-0.2c-0.1,0-0.2,0-0.2-0.1C1103.9,115.5,1103.7,115.6,1103.3,115.7z"/>
	<path fill="#D1EEFC" d="M901.9,126.8c0,0-0.1-0.1-0.1-0.1C901.1,126.8,901.4,126.8,901.9,126.8z"/>
	<path fill="#D1EEFC" d="M1038.4,146.8C1038.4,146.8,1038.4,146.8,1038.4,146.8C1038.4,146.8,1038.4,146.8,1038.4,146.8
		L1038.4,146.8z"/>
	<path fill="#D1EEFC" d="M1036.5,148c0.6-1.3,1.2-1.3,1.9-1.2l-1.3-2.3L1036.5,148z"/>
	<path fill="#D1EEFC" d="M953.5,148.2l1.2,1.2c-2.1,0.7-3.3-0.1-2.2,1.4c0.5-1.3,1.9-0.9,3.4-0.6c1.5,0.3,2.9,0.6,3.3-0.7l0.8,0.8
		c-0.3-0.1-0.4,0-0.6-0.1c1.6,1.7,1.9-1.6,4.2-0.6c0.8,0.4,1.3,0.9,0.7,1.1c0.7-0.1,1.4-0.2,2-0.3c0.5,0.2,0.3,0.6-0.2,0.4l3,0.3
		l0,0.1c0.5-0.3,1.5-0.8,2.1-1c0.7,0.5-0.4,0.2-0.3,0.6l1.7-0.4c0.6,0.8-0.9,1.3-2,1c1.1,2.9,1.5-0.5,4.5,1.6l-1.6,0.1
		c0.4,0.8,0.9,1.2,1.6,1.4c0.6,0.2,1.4,0.4,2.2,1c-0.4-0.5-3.3-2.8-1.4-3.3c0.5,0.3,1.1,0.4,2.2,0c-0.1,1,0.9,0.8,2.1,0.9l-0.2,1.3
		c1.3-0.2,1.3-0.9,2.1-1.4c1.4,0.2,1.6,1.2,1.9,2.1c2.3,0.3-1.5-1.7,1.2-1.8c0.9,0.3,1.7,0.3,2.6,0.2c0.9-0.1,1.8-0.5,2.9-0.8
		c1.3,0.5-0.2,0.8,0.2,1.2l1.2-1c0.3,0,0.2,0.3,0.1,0.5c1-0.4,0.1-1.3,1.6-1.6c0.4-1.4,3.2,2,5.1,0.3c0.5,0.3-0.2,0.8,0,1.3
		c2.6-1.1,2.2-0.9,4.3-2.4l1.9,0.7c-1.4-0.9,0.2-2.1,1.6-3.2c-0.5-0.4-0.9-0.8-1.2-1c0.8-0.3,1.5-0.6,2.3-0.9
		c0.3,0.2,0.1,0.6-0.2,1.2c0.1-0.1,0.3-0.2,0.4-0.4c0.9,0.4,0.5,1.2,0,1.9c-0.3-0.2-0.6-0.5-0.9-0.7c-0.5,0.8-1,1.7-0.8,2.5
		c0.1-0.2,0.4-0.3,0.8-0.4c-0.1,0.2-0.2,0.4-0.1,0.5c0.1,0.1,0.3-0.2,0.7-0.5l0.7,1.4l0.1-0.6l3.2,0.6c2.1-1.7,3.7-4.1,7.1-5.1
		c-0.7,1.2,0.1,1.7,0.2,2.9c-1.2-1.2-2.6,0.9-4.5,0.9c1,0,0.8,0.6,0.6,0.9l3.1-1.6c0.1,1,0.8,0.7,1.7,0.9c-1-1.9,2.2-1.7,3.4-2.6
		c0.2,0.6,0,1.4-1.6,1.5c2,1.2,1.9-2.7,3.8-1.8c-0.4,0.1-0.6,0-0.7,0.4c0.8-0.8,3.1-0.8,2.7-0.1l-0.4,0.1c1.3-0.2,3.3-0.5,4.9-1.2
		c1.6-0.6,2.9-1.4,2.9-2.3c0.1,0.2,0.1,2.1,0.1,2.4c1.1-2.2,2.1-4.4,3.2-6.7c0,1.5,2.4,4.5,0.4,5.8c0.7,0,1.5,0.1,2.6-0.7
		c-0.5-0.1-1.6-1.8-1-2.1c2,1.2,1.3,0.6,3.6,1.4c-0.7-0.1-0.6-2.5,0.4-2.7c-0.1,0.4,0.7,2.2,0.4,2.5l1.8-2.8
		c-0.5,0.6,0.4,1.9,1.1,2.3c-0.4-0.4,2.1-0.5,2.7-1l-1.2-0.2c2.8-0.5,1.8-3.8,4.5-4.5c-0.2,0.5,0,3,1.5,2.8c0.3-1.3,1.1-6.2,3.2-7.7
		l0.7,0.5l1.6-1.3c-0.6,2-2.6,6.5-4,8.4c1.2,0.2,0.5,0.7,2,0.1c0.7,0.4-0.5,1.2-1,1.3l3.7-0.7c-0.6-1.2,2.3-2.2,1.8-3.2
		c-1.1,0.9-2.3,1.7-3.4,2.6c-0.6-1.2,1.1-4.3,3.6-4.9c0.8,0.3,0.3,2.4,0.5,2.8c0.2-0.5,2.1-1.6,2.4-1.4l-0.8,1
		c1.5,0,1.7-2.4,3.8-1.8c0.6-0.1,2.3,1.1,2.1,0.3c-1.4-1.1-3.1-5.6-2.9-6.9c0.2,0,3.5,0.4,4.3,0.9c1.3,0.8-0.5,3.2,0.7,3.9
		c-0.1-0.4,0.3-1,0.5-1.2c0.7,0.1,0.1,1.2,1.4,0.6c-0.2-1.4,2.7-0.8,0.2-1.3c1.1-0.8,1.4-0.2,2.9-0.8c-0.8-0.7,0.4-3.3,1.5-4.1
		c0,0.4,0.5,0.7,0.7,0.8c2.6-0.8,4.2-0.7,6.7-1.5c0.3,0.2,1.6,0.2,1.3,0.9c0.3-0.3,0.4-0.9,1.2-1.2c1.8,0.6-1.6,0.8,0,1.7
		c-0.2-0.8,1.6-1.7,2.5-2.5c-0.7-1-2.5,0.6-3.4,1.5c-0.6-1.6,0.7-3.9,3-5.5c1.9-1.1,1.2,0.7,1.5,0.4c3.9-1,2.3-3.9,5.8-3.8
		c1.6,0.6,0.8,2,1.3,2.6c-1.5,1-2.7,0.2-3.8,0.7l1.5,0c-0.4,0.5-1.4,1.2-2.1,1.1c1.4,0.6,6.4-2,9.7-2.2c0.4-0.5,1.2-1.2,0.6-1.4
		l-0.9,0.5c-1.1-0.5,1.4-1.7,0.1-1.7c1-1,2.1-2.4,4.1-2.5l0.7,1.1c-0.1-0.3-1.4-0.3-1.8,0.2c0.6-0.8,3.2,0.7,3.5-1.1l-1.5-0.4
		c1.1-1,2.2-2.8,3.9-2.9c-1.1-0.9-0.3,0.2-1.9-0.7c1.5,1.4-4,1.2-1.9,2.5c-1.7-1.2-2.2,0-4.1-0.9c0.2,0.4,0.8,0.6-0.6,0.8
		c0,0.1-0.1,0.3-0.2,0.4c0,0-0.1,0-0.1,0c0,0,0.1,0,0.1,0c0,0.1,0,0.1,0,0c0.4,0.1,0.7,0.2,0.9,0.4c-0.4,1.1-2.4,1.8-3,2.5
		c-0.8,0.1,0.2-0.5-0.4-0.8l-0.8,1c-0.4-0.8-2.5-0.7-0.9-1.8l-1.7,0.5c-1.1-0.1-2.5,0.1-3.2,0.8c-0.8,0.1-1.6,1.6-1.2,0.7l-2.4,1.4
		l-0.1-0.2c-2.6,0.8-4.7,3.2-8.1,2.7c-0.8,0.5-1.6,1.1-3.1,1.3l-0.5-0.6c-1,0.6-3.5,0.4-3.7,1.3c-1.9-1.6-5.4,1.4-7.4,1.7l0.3,1
		c-1.3,0.4-2.5,1.1-4,2l0.4,0.8c-1.2,1.2-3.8,0.6-6,1.4c0-0.4,0.6-0.5,1.1-0.4c-3.3-1-5.2,3.2-8,2.6c-0.5,0.5-1,0.5-1.5,0.4
		c0.1,0,0.1,0,0.1-0.1c-0.1,0-0.2,0-0.3,0.1c-0.3-0.1-0.6-0.2-1-0.2c0.3,0.1,0.6,0.2,0.8,0.2c-0.5,0.2-1.1,0.5-1.8,0.9l-0.6-0.8
		c-0.1,0-0.1,0-0.2,0.1c-0.8-0.1-0.4,0.6,0.2,1.2c-0.3,0.3-0.6,0.5-0.8,0.8c-1-1.3-1.7,1-2.9-0.3c-0.2,0.9-3.3,1.6-3.3,3.3
		c-0.1-0.2-0.3-0.3,0.1-0.4c-0.8,0-1.7,0-2.2,0.7l-0.6-1.1l-1.3,2c-1.2-0.5-1.8-0.8-1-1.9c-2.1,2.1-1.9,1-3.7,2.9l-0.1-0.8
		c-0.8,0.2-1.7,1.5-2.3,1c-2-1-8.5,1.6-13.1,0.9c1.2,2.2-2.2-0.7-2.1,1.1c-0.3-0.5-1-0.7-0.4-1.3c-2.2,0.8-3.5-0.3-4.8,1.3
		c-0.3-0.5,0.4-0.9,0.1-1.2c-0.2,0.1-0.7,0.6-0.9,0.3c-0.3-0.3,0.3-0.5,0.6-0.8c-2.3,0.3-2.3,2.1-2.3,3.7c-1.3-0.6-1.8-0.4-2.6,0.7
		c-0.5-0.5-1.2-1,0.2-1.3c-0.8,0-5-0.4-5,0.9c-0.3-0.3-1.1,0-1.3,0.1c-1.8,0-2-0.1-3.8,0l0.5,0.2c-0.7,1.5-1.5,0.4-2.9,0.6l0-0.2
		c-3.3-1.2-1.4,0.5-4.7-0.8l0.1,1c-0.4,2.1-2.8-1.4-4.8-0.7l0.6,0.6c-1.1,0.6-2.7-3-3.6-3.4c-0.2-0.2,0.4-0.2,0.7-0.3
		c-2.5-1.5-0.5,1.2-2.5,1.3c-0.3-0.7,0.7-1.7-0.7-1.9c-0.3-0.3-1.3,0.2-2.5,0.4c-1.2,0.3-2.5,0.4-3.3-0.3c0.3,0.6,0.6,1.2-0.4,1.4
		c-1.5,0-3.4-2.6-5-1.3c-0.1-0.2-0.2-0.3-0.2-0.4c-1.2,0.2-3.6-0.1-4.5,0.6c-0.1-1.7-1.9-1.7-3.5-1.7c-1.6,0-3.2,0.1-2.7-1.4
		l-3.3-0.8l0.2-0.3c-2-0.8-3-0.4-3.9,0.1c-0.4-0.3,0-0.5,0.1-0.7c-2.8-1.5-3.2-1.6-6.2-1l0.1-1c-0.9,0.3-3.8-3-7.1-3
		c0.1-0.1,0.2-0.3,0.5-0.3c-3.7-0.1-6.9-5.6-9.4-2.7l-2.5,0c2.7,1.4-1,1.3,0,2.3c-1.2-0.2-2.5-2.1-1-1.8l0.1,0.3
		c1.2-1.6-3.3-2-2.7-3.2c-5.6-2.1-10.6-5.2-15.9-7.3l0.1,1.6l-1.8-0.8c-0.4-0.5-0.3-1.3,1-0.8c-0.4-1-2.5-0.2-2.6,0.1
		c-2.4-1.5,1.6-1.2,0.8-1.6l-1.1-0.3l0.2,0.2c-1.1,0.3-1.4,0.8-2.9,0.2c-0.9-0.6-0.2-1-0.6-1.2c0-0.1-0.1-0.2-0.6-0.3
		c-0.8-0.3-1.6-0.6-2.3-0.9l0.6,1.4c-1.2,0.2-2.2-0.8-1.5,0.8c-0.9-2.5-8.6-3.5-9.5-4.3c-1.7,0.4-3.2,0-5-0.6
		c0.4,0.3,0.3,1.7-1.2,1.1c1.2-2.5-2.6-1.9-3.5-4c0.9,1.5-4.6-0.7-3.2,1.5c-1.3-0.5,0.1-1-0.8-1.8c-3.4,0.4-7-2-11.1-2
		c-0.1,0.3,0.5,0.9-0.4,1.4l-2-2c-0.8,0.1-0.9,2-2.3,0.6c0.2,0.3,0.5,0.8-0.1,0.9c-1-0.3-2-0.5-3-0.6c-1-0.1-2-0.2-3-0.2
		c-1,0-2,0-3.1,0.1c-1,0.1-2,0.2-3.1,0.3l-1.5,0.1l-1.5,0.2c-1,0.1-2.1,0.1-3.1,0.2c-1,0-2.1,0.1-3.1,0c-1.1,0-2.1-0.3-3.2-0.4
		c1.2,0.4,0.5,0.7-0.3,0.9c0.6,0,0.2,0.9,0.4,1.3l-3.6-0.6c-0.3,1.4-3.5,1.1-3.5,2.4l1-0.5c-0.9,1.8,2.8,2.7,3,4.6
		c0.5-1.1,1.7-0.6,2.8-0.3c1.2,0.3,2.4,0.4,3.5-0.9c0.6,0.3-0.4,0.7,0,1.1c0.5-0.9,1.2-1.2,2.6-1l-0.1,0.2c3.8-0.7,5.6,0,10,0.4
		l-0.3-0.9c0.9,0.1,1.1,0.4,1.6,0.6c0.5-0.7-0.1-0.7-0.8-0.8c-0.7,0-1.4,0-0.9-0.9c0.7,0.9,2.3,0.9,3.9,1c1.6,0,3.2,0.2,3.5,1.3
		c1.4,0.1-0.4-1.1,1.1-1l0.3,0.6l0.4-0.7c0.9,0.2,1.4,1,1.4,1.5c-0.2-0.1-0.7,0.1-0.9,0.1c1.2,0.8,3.5,0.1,3.9,0.4l-1.3-0.5
		c4-0.2,8.7,1.4,12.7,0.9l-0.2-0.5c3.1-0.2,2.2,1,5.5,1.3l-0.1,0.1c0.7-0.3,1.6-0.3,2.5,0c-0.9,0.3,1.3,1.4,0.1,1.7
		c3.3-0.1,1.7-0.3,4.2-1.3l0.3,0.8c0.9-0.4,1-0.8,2.7-0.5c-1.5,0.2,0.7,1.4-1,1.8c2.8,2.5,5.4-0.1,6.2,2.7c2.1-1.5-2.5-2-1.5-2.1
		c-0.5-0.9,1.7-1.1,2.7-0.5c1,0.4,1,3.1,3.6,3.9c-0.3-0.1-0.3,0-0.6-0.1c0.8,0.8,2.1,0,3.1,1.2c1.1-0.9,1.5,0.6,2.3-0.8
		c-0.8-0.2-1.7-0.4-2.5-0.5c1.5,0.1,3.4-1.2,5.4,0.5c-0.3,0.2-1.1,0.4-1.6,0.4c0.5,0.7,1.4,0.2,1.9,0.9c-0.7,1.4-3-0.8-4.9-0.1
		c0.5,0.9,3.1-0.1,1.8,1.3c1.8-1.7,2.5,1.2,4.8,0.3l-0.5,0.8c0.3,0,1.1-0.2,1.6,0l-1.4,0.8c1.8-0.4,2.4,1.9,4,1.9
		c-2.9-1.1-0.2-1.3-1.2-2.4c4,0.2,1.1,3.1,5.3,4.2c-0.6-0.1-1.8-1.3-0.8-1.4c0.7,0.5,1.5,1.2,1.8,1.9c2.7,0.8,0-1.1,1.3-1.2
		c0.5,1.4,1.5,0.1,2.8,0.2l-0.3,0.9c2.8,1.8,1.5-1.6,4,0.2l-1.6,0.8l1.5,0.2l-0.7,0.9c1.8-0.2,2.2,0.2,3.6,1.1
		c-0.1-0.8,0.8-1.6,2.2-1.1c0.7,0.9-0.8,0.7,1.1,1.3c-0.6,0.4-1.4,0.9-1.9-0.2c-0.2,0.3-0.6,0.4-0.8,0.7c0.7,1,2.4,1.1,3.1,1.4
		c-0.3-0.1-0.6-0.3-0.7-0.5l3.2-0.2c0.3,0.5-0.1,0.6-0.6,0.8c0.6,0.1,1.1-0.1,2,0.1c-0.5,0.7-0.7,1.4-2,1.3l3,0.2
		c0.1,0.4,1,1.4,0.6,1.5c1.3,1,4.1-0.1,5.9,1.2c0.2-0.1,0.4-0.2,0.9-0.1c1.8,0.8,3.1,2.3,5.7,2l0.8,1.7c1.8,0.2-1.2-2.2,1.9-1.8
		c2.2,0.2,0.4,1.4,1,2c1.3-0.4,3.4-1.2,5,0.4C954.5,148.6,954.1,148.2,953.5,148.2z M975.9,152.3c-0.5,0.2-1.4,0.6-1.7,0
		C974.8,151.3,975.2,151.9,975.9,152.3z M1010.1,150c-0.3,0.4-0.8,0.2-1.4-0.1C1009.1,149.9,1009.6,149.9,1010.1,150z M1098.2,118.3
		C1098.2,118.3,1098.2,118.3,1098.2,118.3C1097.2,118.3,1097.5,118.3,1098.2,118.3z M1100.2,118c0.1-0.2,0.1-0.3,0-0.4
		c-0.1,0.3-0.5,0.4-1,0.5C1099.4,118.3,1099.7,118.4,1100.2,118z M898.1,118.5l0.3,0.4C897.5,118.9,897.8,118.7,898.1,118.5z"/>
	<path fill="#D1EEFC" d="M1006.4,151.8c-0.1-0.2-0.2-0.3-0.2-0.5C1006,151.4,1006.1,151.6,1006.4,151.8z"/>
	<path fill="#D1EEFC" d="M939.9,144.4C939.9,144.4,939.9,144.4,939.9,144.4c-0.1,0-0.2,0.1-0.2,0.1L939.9,144.4z"/>
	<path fill="#D1EEFC" d="M1073.9,135.9c-0.4,0-0.7-0.1-0.9-0.2C1073,135.9,1073.3,136,1073.9,135.9z"/>
	<path fill="#D1EEFC" d="M1109.8,113.1l-1.1,0.6c0.6-0.2,0.8-0.1,1.2-0.1C1109.7,113.5,1109.4,113.2,1109.8,113.1z"/>
	<path fill="#D1EEFC" d="M1122.1,115.5c0.1-0.2,0.4-0.1,0.5-0.3l-0.2-0.4C1121.7,115,1121.3,115.5,1122.1,115.5z"/>
	<path fill="#D1EEFC" d="M1111.9,115.8c0.3,0.7,1,0.2,1.8-0.2c-0.1,0-0.1,0-0.2,0C1113.5,114.5,1112.7,115.1,1111.9,115.8z"/>
	<path fill="#D1EEFC" d="M1113.9,115.5c0.3-0.1,0.5-0.2,0.8-0.3C1114.6,114.8,1114.3,115.2,1113.9,115.5z"/>
	<path fill="#D1EEFC" d="M1102.5,116.7c0.5,0.1-0.1-1.1,0.3-0.8C1102.8,114.7,1100.4,117.9,1102.5,116.7z"/>
	<polygon fill="#D1EEFC" points="1113.4,118.1 1112.8,117.2 1112.5,118.2 	"/>
	<path fill="#D1EEFC" d="M1106.5,119.6l1.4-0.2c-0.1-0.2,0.1-0.3,0.3-0.4C1107.3,119.2,1106.3,119.3,1106.5,119.6z"/>
	<path fill="#D1EEFC" d="M1108.2,119c0.4-0.1,0.8-0.3,1-0.5C1109,118.5,1108.5,118.7,1108.2,119z"/>
	<polygon fill="#D1EEFC" points="1111.6,119 1111.2,118.9 1110.2,119.2 	"/>
	<path fill="#D1EEFC" d="M1092,124.4l-1.4,0.8c0,0.4,0.4,0.4,0.9,0.1C1091.8,124.9,1092.3,124.6,1092,124.4z"/>
	<path fill="#D1EEFC" d="M1097.3,125.4c-0.5-0.1-0.6-0.3-0.9-0.5l0.4,1.2L1097.3,125.4z"/>
	<path fill="#D1EEFC" d="M1093.1,127.2c0,0.4-1.8,1.7,0,1C1093.2,127.8,1094.6,127,1093.1,127.2z"/>
	<polygon fill="#D1EEFC" points="1070.5,133.4 1070.9,133.3 1070.2,131.4 	"/>
	<path fill="#D1EEFC" d="M1052.3,144.4c1.9-0.1,0.1-1.3,1.8-1.2c0.3-0.6-1.5-0.1-1.2-0.6C1052.1,143.4,1051.4,143.3,1052.3,144.4z"
		/>
	<path fill="#D1EEFC" d="M1053,142.6c0.1-0.1,0.3-0.3,0.5-0.5C1053.2,142.3,1053,142.5,1053,142.6z"/>
	<polygon fill="#D1EEFC" points="824.8,110.8 823.5,110.8 824.5,111.2 	"/>
	<path fill="#D1EEFC" d="M822.9,112.9l-0.7-1.2l-0.4,1.3C822.2,113,822.7,112.7,822.9,112.9z"/>
	<path fill="#D1EEFC" d="M979,155.2l0.1-0.3c-0.2-0.4-0.4-0.4-1-0.5L979,155.2z"/>
	<polygon fill="#D1EEFC" points="962.6,151.5 962.8,151.6 962.6,150.4 	"/>
	<path fill="#D1EEFC" d="M948.7,149.4c0.5,0.2,1.2,0.2,1.8,0.4C949.2,149.6,949,147.9,948.7,149.4z"/>
</g>
<g>
</g>
<g>
</g>
<g>
</g>
<g>
</g>
<g>
</g>
<g>
</g>
<g>
</g>
<g>
</g>
<g>
</g>
<g>
</g>
<g>
</g>
<g>
</g>
<g>
</g>
<g>
</g>
<g>
</g>
</svg>
