<svg xmlns="http://www.w3.org/2000/svg" xmlns:xlink="http://www.w3.org/1999/xlink" viewBox="0 0 12374.2 362.4"><defs><style>.a{fill:none;}.b{fill:#fcceb8;}.c{fill:#f9b5ac;}.d{fill:url(#a);}</style><pattern id="a" width="326" height="326" patternTransform="matrix(1, 0, 0, -1, 5581, 846.5)" patternUnits="userSpaceOnUse" viewBox="0 0 326 326"><rect class="a" width="326" height="326"/><polygon class="a" points="0 0 326 0 326 326 0 326 0 0"/><polygon class="b" points="326 0 0 0 0 326 326 326 326 0"/><path class="c" d="M49.5,276.9c-.1-13.4,5.1-24.4,13.3-34.6,7-8.6,11.7-15.7,11.1-27.2-.5-9.1,13.6-9,14.1,0,.7,11.5-2.8,21.4-9.7,30.4-7.6,9.9-14.8,18.1-14.7,31.4.1,9-14,9.1-14.1,0Z"/><path class="c" d="M131.2,237.1c7.7,0,7.7,11.9,0,11.9s-7.7-11.9,0-11.9Z"/><path class="c" d="M52.2,182.6c7.7,0,7.7,11.9,0,11.9s-7.7-11.9,0-11.9Z"/><path class="c" d="M83.8,184.2c7.7,0,7.7,11.9,0,11.9s-7.7-11.9,0-11.9Z"/><path class="c" d="M124.8,162.8c7.7,0,7.7,11.9,0,11.9s-7.6-11.9,0-11.9Z"/><path class="c" d="M119.6,189.8c7,3.6,14.1,7,21.4,9.9,3.5,1.4,6,4.7,4.9,8.7-.9,3.4-5.1,6.4-8.7,4.9-8.4-3.4-16.7-7.1-24.8-11.3s-.9-16.3,7.2-12.2Z"/><path class="c" d="M106.3,293a52.48,52.48,0,0,0,12.9-11.5c2.4-3,7.5-2.5,10,0,2.9,2.9,2.4,7,0,10a64.26,64.26,0,0,1-15.7,13.7c-7.8,4.8-14.9-7.4-7.2-12.2Z"/><path class="c" d="M198.2,293.8c-3-2.8-5.9-5.7-8.9-8.5a7.09,7.09,0,0,1,0-10,7.28,7.28,0,0,1,10,0c3,2.8,5.9,5.7,8.9,8.5a7.09,7.09,0,0,1,0,10,7.28,7.28,0,0,1-10,0Z"/><path class="c" d="M186.4,202.3c3.7,8.5,13.4,10.6,20.8,14.8,8.7,4.9,13.7,12.4,18.1,21.3,4,8.1-8.2,15.3-12.2,7.1-2.2-4.6-4.5-9.6-8.4-13.1-3.3-2.9-7.4-4.6-11.3-6.4-7.8-3.7-15.6-8.3-19.2-16.5s8.6-15.5,12.2-7.2Z"/><path class="c" d="M165.4,245.8c1.6-3.4,3.2-6.8,4.7-10.3s6.7-4.5,9.7-2.5c3.5,2.2,4.2,6.1,2.5,9.7-1.6,3.4-3.2,6.8-4.7,10.3s-6.7,4.5-9.7,2.5c-3.5-2.3-4.2-6.1-2.5-9.7Z"/><path class="c" d="M155.4,169.8a173.78,173.78,0,0,1-3-27.9c-.2-9.1,13.9-9.1,14.1,0A150.38,150.38,0,0,0,169,166c1.7,8.9-11.9,12.7-13.6,3.8Z"/><path class="c" d="M67,160.3c-5.8-7.4-11.7-14.9-14.3-24-1.8-6.2-.6-19.6-8.7-21.5-8.8-2.1-5.1-15.7,3.8-13.6,9.4,2.2,14.5,10.7,16.4,19.6,1.1,5.3,1.3,10.7,3.6,15.8s5.8,9.5,9.2,13.8c5.5,7-4.4,17.1-10,9.9Z"/><path class="c" d="M87.8,115.9c9.6-6.1,14.1-17.7,23.9-23.9,7.7-4.9,14.8,7.3,7.1,12.2-9.6,6.1-14.1,17.7-23.9,23.9-7.6,4.8-14.7-7.4-7.1-12.2Z"/><path class="c" d="M70.6,77.5A53.7,53.7,0,0,0,57.4,63.4c-3.1-2.2-4.6-6.1-2.5-9.7,1.8-3,6.5-4.8,9.7-2.5A72.26,72.26,0,0,1,82.9,70.3c4.8,7.8-7.4,14.8-12.3,7.2Z"/><path class="c" d="M44.7,23a37.55,37.55,0,0,0,12.5-8.7c6.3-6.6,16.2,3.4,10,10A47.5,47.5,0,0,1,51.8,35.2c-3.5,1.5-7.6,1-9.7-2.5-1.7-3-.9-8.2,2.6-9.7Z"/><path class="c" d="M113.2,32l24.6,5.7c8.8,2,5.1,15.7-3.8,13.6l-24.6-5.7c-8.8-2.1-5-15.7,3.8-13.6Z"/><path class="c" d="M16.5,236.9a39,39,0,0,0-8.3-10.7c-2.8-2.6-2.6-7.4,0-10a7.19,7.19,0,0,1,10,0,52.79,52.79,0,0,1,10.5,13.5,7.34,7.34,0,0,1-2.5,9.7c-3.3,1.9-7.9.9-9.7-2.5Z"/><path class="c" d="M17.8,164.3c-1.1-4.2-2.2-8.4-3.2-12.6a7.23,7.23,0,0,1,4.9-8.7,7.19,7.19,0,0,1,8.7,4.9c1.1,4.2,2.2,8.4,3.2,12.6a7.23,7.23,0,0,1-4.9,8.7,7.15,7.15,0,0,1-8.7-4.9Z"/><path class="c" d="M24.5,296.3c7.7,0,7.7,11.9,0,11.9s-7.7-11.9,0-11.9Z"/><path class="c" d="M301.8,301.9c7.7,0,7.7,11.9,0,11.9s-7.7-11.9,0-11.9Z"/><path class="c" d="M257.9,271.7c5.3,2.2,9.4,3.1,14-.4,3.9-2.9,7-6.6,11-9.5a26.52,26.52,0,0,1,29.1-.9c7.8,4.7.7,16.9-7.1,12.2-9.8-5.9-16,2.5-23,8.2-8.4,6.9-17.5,8.2-27.7,4-8.3-3.4-4.7-17,3.7-13.6Z"/><path class="c" d="M257.9,232.4a50.58,50.58,0,0,0,7.8-16.6c2.4-8.8,16-5,13.6,3.8a63.32,63.32,0,0,1-9.2,19.9c-2.2,3.1-6.2,4.6-9.7,2.5-3.1-1.7-4.7-6.4-2.5-9.6Z"/><path class="c" d="M238.6,186.5c7.7,0,7.7,11.9,0,11.9s-7.7-11.9,0-11.9Z"/><path class="c" d="M211,145.5c7.7,0,7.7,11.9,0,11.9s-7.7-11.9,0-11.9Z"/><path class="c" d="M281.3,143.1c7.7,0,7.7,11.9,0,11.9s-7.7-11.9,0-11.9Z"/><path class="c" d="M303,204.1a54.94,54.94,0,0,1-19.4-14.7,7.28,7.28,0,0,1,0-10c2.5-2.5,7.5-2.9,10,0a46.43,46.43,0,0,0,16.6,12.5c3.5,1.6,4.3,6.6,2.5,9.7-2.2,3.6-6.2,4.1-9.7,2.5Z"/><path class="c" d="M238.7,150.6c-.3-6.8-.6-13.7-.9-20.5-.4-9.1,13.7-9.1,14.1,0,.3,6.8.6,13.7.9,20.5.4,9.1-13.7,9.1-14.1,0Z"/><path class="c" d="M207.9,99.7a442.21,442.21,0,0,0,42.4-25.2c7.5-5.1,14.6,7.1,7.1,12.2A384.84,384.84,0,0,1,215,111.9c-8.1,4.1-15.2-8-7.1-12.2Z"/><path class="c" d="M296.2,82q-19.65-18.3-37.5-38.3c-6-6.7,3.9-16.8,10-10C280.5,47,293.1,59.8,306.2,72c6.6,6.2-3.4,16.2-10,10Z"/><path class="c" d="M163.5,97.8c-.4-13.7,5.8-25.4,10.9-37.6,4.2-10.2,7.9-23.6-1.6-32-6.8-6.1,3.2-16,10-10,10.1,9.1,11.7,23.4,8.5,36-3.8,14.8-14.2,27.9-13.7,43.6.3,9-13.8,9-14.1,0Z"/><path class="c" d="M27.7,39.6c7.7,0,7.7,11.9,0,11.9s-7.7-11.9,0-11.9Z"/><path class="c" d="M38.7,69.6c7.7,0,7.7,11.9,0,11.9s-7.6-11.9,0-11.9Z"/><path class="c" d="M212.4,30.9c7.7,0,7.7,11.9,0,11.9s-7.7-11.9,0-11.9Z"/><path class="c" d="M301.3,13.1c7.7,0,7.7,11.9,0,11.9s-7.7-11.9,0-11.9Z"/><path class="c" d="M288.8,93.1c7.7,0,7.7,11.9,0,11.9s-7.6-11.9,0-11.9Z"/><path class="c" d="M164.4,295.7c7.7,0,7.7,11.9,0,11.9s-7.7-11.9,0-11.9Z"/><path class="c" d="M72,299.3c7.7,0,7.7,11.9,0,11.9s-7.7-11.9,0-11.9Z"/><path class="c" d="M237.3,301c7.7,0,7.7,11.9,0,11.9s-7.7-11.9,0-11.9Z"/><path class="c" d="M144.6,94.9c7.7,0,7.7,11.9,0,11.9s-7.7-11.9,0-11.9Z"/></pattern></defs><title>ground</title><rect class="d" width="12374.2" height="362.4"/></svg>