<?xml version="1.0" encoding="utf-8"?>
<!-- Generator: Adobe Illustrator 21.0.2, SVG Export Plug-In . SVG Version: 6.00 Build 0)  -->
<!DOCTYPE svg PUBLIC "-//W3C//DTD SVG 1.1//EN" "http://www.w3.org/Graphics/SVG/1.1/DTD/svg11.dtd">
<svg version="1.1" id="Layer_1" xmlns="http://www.w3.org/2000/svg" xmlns:xlink="http://www.w3.org/1999/xlink" x="0px" y="0px"
	 viewBox="0 0 230 230" style="enable-background:new 0 0 230 230;" xml:space="preserve">
<style type="text/css">
	.st0{fill:#858585;}
	.st1{fill:#6F6F6F;}
	.st2{fill:#F0F0F0;}
	.st3{fill:#FFFFFF;}
	.st4{fill:none;stroke:#6F6F6F;stroke-width:3;stroke-miterlimit:10;}
</style>
<title>cyn</title>
<path class="st0" d="M155.3,89.8l39.6,12.3c3.4,1.1,5.3,4.7,4.2,8c-0.2,0.7-0.6,1.4-1.1,2.1l-6.9,8.9c-2.1,2.7-5.9,3.3-8.8,1.3
	L153,101.9L155.3,89.8z"/>
<path class="st0" d="M154,86.3l41.2-4.2c3.5-0.4,6.7,2.2,7.1,5.7c0.1,0.8,0,1.6-0.2,2.3l-2.9,10.9c-0.9,3.3-4.2,5.3-7.5,4.6
	l-35.1-7.3L154,86.3z"/>
<path class="st1" d="M90.7,76.2c-1.5,7.6-8.9,12.5-16.5,11c-0.1,0-0.2,0-0.3-0.1c-7.6-2-12.3-9.7-10.5-17.4
	c1.5-7.6,8.9-12.5,16.5-11c0.1,0,0.2,0,0.3,0.1C87.8,60.8,92.5,68.5,90.7,76.2z"/>
<ellipse class="st1" cx="146.1" cy="75.3" rx="14" ry="14.5"/>
<path class="st2" d="M176.6,133.1c-2.3-10.8-7.5-21.7-10.4-31.5c-3.1-10.5-7.4-21.3-17.1-27.4c-13.4-8.6-30.8-9.2-46.1-8
	c-3.1,0.2-6.2,0.6-9.2,1C82.6,68.7,71.4,73.1,64.7,83c-5.5,8.2-7.4,17.6-10.1,26.9c-2.9,9.8-7.8,19.4-9.1,29.6
	c-0.9,9.2,2.1,18.4,8.3,25.3c4.7,4.9,10.7,8.5,17.2,10.2c1.4,0.4,2.7,0.7,4.1,1l18.2,4.5c11.5,2.9,23.6,2.9,35.2,0.2l17.6-4.2
	c2.1-0.4,4.2-0.9,6.2-1.5h0.1c7.4-2.3,14.3-6.2,19.1-12.4C178.5,153.4,178.8,143.3,176.6,133.1z"/>
<path class="st1" d="M105.9,110.8h10c4,0.1,7.2,3.4,7.2,7.4v0.1c0,2.2-1,4.3-2.7,5.8l-4.9,4.1c-2.6,2.2-6.3,2.2-8.9,0.1l-5.1-4.2
	c-1.7-1.4-2.7-3.6-2.7-5.8l0,0C98.7,114.2,101.9,110.9,105.9,110.8z"/>
<path class="st1" d="M62.8,113.5c1-1.7,2-3.3,3.3-4.8c4.5-5.6,11.3-11.8,19.1-9.6c4.8,1.5,8.5,5.2,10.1,9.9c0.5,1.5,0.9,3,1.1,4.5
	c1.1,9.2-3.3,18.2-11.8,22c-7.3,3.3-21.9,2.6-24.5-7C58.7,123.4,60.2,118.1,62.8,113.5z"/>
<ellipse class="st3" cx="86.5" cy="116.4" rx="3.8" ry="3.9"/>
<path class="st1" d="M81.8,113.3c0.7-1.3,1.8-2.3,3.2-2.9c0.9-0.4,2-0.5,3-0.3c1.1,0.3,2,1,2.7,1.9c0.4,0.6,0.7,1.2,0.9,1.8
	c0.1,0.4,0.2,0.8,0.2,1.2c0,0.2,0,0.4,0,0.7c0,0.2-0.1,0.5-0.1,0.7l-0.3,0.4c-0.7-0.4-1.4-0.8-2.2-1.1c-0.8-0.3-1.6-0.5-2.4-0.7
	c-0.8-0.2-1.6-0.4-2.5-0.6l-2.5-0.6L81.8,113.3z"/>
<ellipse class="st1" cx="86.7" cy="115.9" rx="2.7" ry="2.8"/>
<path class="st1" d="M160.4,113.6c-4.3-7.6-12.4-16.7-22.1-14.9c-6.8,1.2-10.6,8.6-11.3,14.9c-1.1,9.2,3.3,18.2,11.8,22
	c5.7,2.6,13.4,2.6,19-0.4C165.9,130.8,164.2,120.3,160.4,113.6z"/>
<ellipse class="st3" cx="136.8" cy="116.4" rx="3.8" ry="3.9"/>
<path class="st1" d="M141.9,113.5c-0.8-0.8-1.8-1.4-2.9-1.6c-0.9-0.2-1.9-0.2-2.8,0.1c-1,0.3-1.8,0.8-2.6,1.4
	c-0.4,0.4-0.7,0.8-1,1.3c-0.1,0.3-0.3,0.6-0.4,0.9c-0.1,0.3-0.1,0.7-0.1,1l0.2,0.2l0.5-0.4l0.6-0.3c0.4-0.2,0.8-0.4,1.1-0.5
	c0.8-0.3,1.6-0.5,2.4-0.7c0.8-0.2,1.6-0.4,2.5-0.6l2.5-0.5L141.9,113.5z"/>
<ellipse class="st1" cx="136.8" cy="116.2" rx="2.7" ry="2.8"/>
<line class="st4" x1="110.9" y1="126.1" x2="110.9" y2="137.4"/>
<path class="st1" d="M102.5,137.6c2.1-0.5,3.9-0.9,5.7-1.4l5.1-1.4c1.7-0.5,3.4-1,5.2-1.5c0.9-0.2,1.8-0.5,2.8-0.7
	c1-0.3,2-0.4,3.1-0.5l0.2,0.2c-0.8,0.6-1.6,1.1-2.4,1.7s-1.7,1-2.6,1.4c-1.8,0.9-3.6,1.6-5.5,2.2c-1.9,0.5-3.9,0.8-5.8,0.9
	c-2,0.1-4-0.1-5.9-0.7L102.5,137.6z"/>
<path class="st0" d="M73.5,74.3c0,0-9.8,4.6-14.7,21h105.3c0,0-4-15.4-13.1-19.8L73.5,74.3z"/>
<polygon class="st3" points="76.4,81.9 78,78.2 80,81.8 84,82.2 81.2,85.2 82.1,89.2 78.4,87.4 74.8,89.4 75.4,85.4 72.3,82.7 "/>
<polygon class="st3" points="84.2,78.2 84.7,77.2 85.2,78.2 86.3,78.3 85.5,79.1 85.8,80.1 84.8,79.7 83.8,80.2 84,79.1 83.2,78.4 
	"/>
<polygon class="st3" points="88.3,81.8 88.7,80.8 89.3,81.8 90.3,81.9 89.6,82.7 89.8,83.7 88.8,83.3 87.9,83.8 88,82.7 87.2,82 "/>
<polygon class="st3" points="88.3,87.5 88.7,86.5 89.3,87.4 90.3,87.5 89.6,88.3 89.8,89.4 88.8,88.9 87.9,89.5 88,88.4 87.2,87.7 
	"/>
<polygon class="st3" points="84.2,90.3 84.7,89.3 85.2,90.3 86.3,90.4 85.5,91.2 85.8,92.3 84.8,91.8 83.8,92.3 84,91.3 83.2,90.5 
	"/>
</svg>
