<?xml version="1.0" encoding="utf-8"?>
<!-- Generator: Adobe Illustrator 18.0.0, SVG Export Plug-In . SVG Version: 6.00 Build 0)  -->
<!DOCTYPE svg PUBLIC "-//W3C//DTD SVG 1.1//EN" "http://www.w3.org/Graphics/SVG/1.1/DTD/svg11.dtd">
<svg version="1.1" id="Layer_1" xmlns="http://www.w3.org/2000/svg" xmlns:xlink="http://www.w3.org/1999/xlink" x="0px" y="0px"
	 viewBox="0 0 1500 361.7" enable-background="new 0 0 1500 361.7" xml:space="preserve">
<g>
	<path fill="#AAD7DB" d="M84.8,0C56.3-0.2,27.6,2.4,0,7.7V9C27.5,3.2,56.2,0.3,84.8,0z"/>
	<path fill="#AAD7DB" d="M1335.7,19.8L1335.7,19.8c-73.3-24-160.4-26.3-236.9-6.5L1010,36.5C933.3,56.4,846,54,772.6,30l-31-10.1
		c-73.3-24-160.4-26.3-236.9-6.5l-49.8,12.9C378.4,46.2,291.3,43.8,218,19.8h0C176.5,6.3,130.7-0.4,84.8,0C56.2,0.3,27.5,3.2,0,9
		v64.6v26.9v261.2h1428.2V100.5h71.8L1335.7,19.8z"/>
</g>
<g>
</g>
<g>
</g>
<g>
</g>
<g>
</g>
<g>
</g>
<g>
</g>
<g>
</g>
<g>
</g>
<g>
</g>
<g>
</g>
<g>
</g>
<g>
</g>
<g>
</g>
<g>
</g>
<g>
</g>
</svg>
