<?xml version="1.0" encoding="utf-8"?>
<!-- Generator: Adobe Illustrator 18.0.0, SVG Export Plug-In . SVG Version: 6.00 Build 0)  -->
<!DOCTYPE svg PUBLIC "-//W3C//DTD SVG 1.1//EN" "http://www.w3.org/Graphics/SVG/1.1/DTD/svg11.dtd">
<svg version="1.1" id="Layer_1" xmlns="http://www.w3.org/2000/svg" xmlns:xlink="http://www.w3.org/1999/xlink" x="0px" y="0px"
	 viewBox="0 0 288 184.9" enable-background="new 0 0 288 184.9" xml:space="preserve">
<g>
	<path fill="#FFD25C" d="M221.1,158.4H66.9c-37,0-66.9-30-66.9-66.9l0-24.5C0,30,30,0,66.9,0l154.1,0c37,0,66.9,30,66.9,66.9v24.5
		C288,128.4,258.1,158.4,221.1,158.4z"/>
	<g>
		<path fill="#414042" d="M55.1,62.8h-2.8v-1.9h-1.8v2.6h-2.8V38.7h7.4V62.8z M52.3,58.2V41.4h-1.8v16.8H52.3z M64.4,37.6v2.3
			c-0.5,2.9-1.2,5.9-1.9,9c1.1,2.9,1.7,5.4,1.9,7.5c0,1.6-0.3,2.8-0.7,3.4c-0.7,0.8-1.9,1.3-3.6,1.3l-0.8-2.6v7.9h-2.8V37.6H64.4z
			 M60.8,58.4c0.3-0.1,0.5-0.2,0.6-0.5c0.1-0.3,0.1-0.7,0.1-1.4c0-2.1-0.6-4.4-1.8-7c0.8-3.4,1.4-6.4,1.8-9.1h-2.2v17.8
			C60,58.3,60.5,58.4,60.8,58.4z M71.6,43.8v14.6h-6.5V43.8H71.6z M76.9,37.8v3.1h-1.2v22.3c0,2.1-1.1,3.2-3.4,3.2H69l-0.6-2.8
			c1,0.1,2.1,0.2,3,0.2c1,0,1.5-0.4,1.5-1.3V40.9h-7.4v-3.1H76.9z M69.2,46.1h-1.7v10.1h1.7V46.1z"/>
		<path fill="#414042" d="M97.6,59c0.5,0.5,0.7,1,0.7,1.7s-0.3,1.3-0.7,1.8c-0.5,0.5-1.1,0.7-1.8,0.7s-1.3-0.3-1.7-0.7
			c-0.5-0.5-0.7-1-0.7-1.7s0.2-1.3,0.7-1.7c0.5-0.5,1-0.7,1.7-0.7S97.2,58.5,97.6,59z M98,40.1l-0.8,16.5h-2.8l-0.8-16.5H98z"/>
		<path fill="#414042" d="M119.3,42.7l-2.5,1.1c-0.6-1.9-1.3-3.6-2-5l2.6-0.9C118.1,39.4,118.7,41,119.3,42.7z M122.7,36.8v7.6h1.6
			v-7.6h3v7.6h3.7v3.2h-2.2l-1,3.1h2.9v2.9h-5.6v2.6h5v2.9h-5v3c2.2-0.2,4.1-0.4,5.8-0.6v3c-2.9,0.5-7.9,0.9-15,1.3l-0.5-3.2
			c2.3-0.1,4.4-0.2,6.4-0.3v-3.2h-5v-2.9h5v-2.6H116v-2.9h2.9l-0.8-3.1h-2.8v-3.2h4.3v-7.6H122.7z M124.8,50.7l1-3.1h-4.6l0.8,3.1
			H124.8z M132.1,38.5c-0.5,2-1.1,3.7-1.9,5.3l-2.6-1c0.7-1.3,1.3-3,1.7-5.1L132.1,38.5z M137.4,56.8l-2.9,1.3
			c-0.9-3-1.9-5.7-3.1-8.1l2.9-0.9C135.5,51.5,136.5,54.1,137.4,56.8z M138.8,42.9v-6.3h3.3v6.3h2.6v3.2h-2.6V63
			c0,2.3-1.1,3.4-3.4,3.4h-4.1l-0.7-3.2c1.3,0.1,2.5,0.2,3.7,0.2c0.8,0,1.2-0.5,1.2-1.3v-16h-6.9v-3.2H138.8z"/>
		<path fill="#414042" d="M171.4,41.4H151v-3.3h25.1v3.3c-3,2.7-6.3,5.2-10,7.6v13.7c0,2.4-1.2,3.6-3.5,3.6c-2,0-3.7-0.1-5.2-0.2
			l-0.9-3.3c1.6,0.2,3.3,0.3,5.2,0.3c0.7,0,1-0.4,1-1.1V47.3C165.7,45.6,168.6,43.6,171.4,41.4z"/>
		<path fill="#414042" d="M191.7,63.4h-3v-1.8h-1.8v2.6h-3V38.9h7.9V63.4z M188.7,58.7V41.9h-1.8v16.8H188.7z M192.6,66.1l-0.7-2.9
			c0.6,0.1,1.2,0.2,1.7,0.2c0.8,0,1.2-0.4,1.2-1.1v-7c-0.6,0.2-1.3,0.5-2,0.6l-0.8-3.1c0.9-0.2,1.9-0.5,2.8-0.7v-6.6h-2.4v-3.1h2.4
			v-5.4h3.1v5.4h2v3.1h-2v5.5c0.7-0.3,1.5-0.7,2.2-1.1V53c-0.7,0.4-1.5,0.7-2.2,1v9c0,2-1.1,3-3.2,3H192.6z M205.7,62.1
			c1.2-4.3,2.2-9.6,3-15.9l3,0.8c-0.8,5.6-1.8,10.7-3,15.1h4.1v3.2h-13.6v-3.2H205.7z M205.1,41.5c-0.6-1.1-1.4-2.2-2.4-3.4l2.5-1.6
			c1.2,1.5,2.2,2.9,2.8,4l-1.4,1h5.7v3.1h-11.8v-3.1H205.1z M205.4,59.7l-2.8,0.4c-0.5-4.9-1.1-9.2-1.7-13l2.9-0.4
			C204.4,50.5,205,54.8,205.4,59.7z"/>
		<path fill="#414042" d="M233.7,59c0.5,0.5,0.7,1,0.7,1.7s-0.3,1.3-0.7,1.8c-0.5,0.5-1.1,0.7-1.8,0.7s-1.3-0.3-1.7-0.7
			c-0.5-0.5-0.7-1-0.7-1.7s0.2-1.3,0.7-1.7c0.5-0.5,1-0.7,1.7-0.7S233.2,58.5,233.7,59z M234.1,40.1l-0.8,16.5h-2.8l-0.8-16.5H234.1
			z"/>
		<path fill="#414042" d="M47.7,97.5l-1.1-3.6c3.3-3.7,5.8-8,7.4-12.9l3.1,1.5c-0.8,2.5-1.9,4.9-3.3,7.2v21.5h-3.4V94.4
			C49.6,95.4,48.7,96.5,47.7,97.5z M57.8,94.5l-2.9-1.8c2.4-3.6,4.1-7.4,5.1-11.5l3.2,0.7c-0.3,1-0.6,1.9-0.8,2.9h13.5V87
			c-0.5,1.9-1.1,3.9-1.8,5.8l-3.2-0.9c0.6-1.1,1.2-2.4,1.6-3.8H61.1C60.1,90.4,59,92.5,57.8,94.5z M62.4,95.3
			c-1.1,4.4-2.6,8.3-4.3,11.7l-3.2-1.1c1.7-3,3.2-6.8,4.5-11.4L62.4,95.3z M60.5,110.9l-0.7-3.2c1.3,0.1,2.6,0.2,3.7,0.2
			c0.8,0,1.2-0.4,1.2-1.2V90.2H68v17.3c0,2.2-1.1,3.4-3.3,3.4H60.5z M76.6,106.1l-3,1.3c-1.2-4.7-2.5-8.8-4-12.4l3-1
			C74.2,97.8,75.5,101.9,76.6,106.1z"/>
		<path fill="#414042" d="M84.3,87.7c-0.1,3.2-0.4,6.3-1,9.2l-2.7-0.8c0.6-2.7,1-5.6,1.1-8.6L84.3,87.7z M92.9,93.9l-2.7,0.7
			c-0.5-2.3-1.1-4.5-1.9-6.6V111H85V81.2h3.3v6.2l2.3-0.7C91.5,88.8,92.3,91.2,92.9,93.9z M97.9,85.8v-4.6h3.3v4.6h6.9v9.7h2.1v3.3
			h-9.9c-1.4,5.6-4.3,9.6-8.9,12.2l-2.1-2.8c3.8-2,6.4-5.1,7.6-9.4h-5.7v-3.3h6.4c0.2-1.3,0.3-2.7,0.3-4.1v-2.5h-5.4v-3.1H97.9z
			 M101.2,90.6c0,1.7-0.1,3.3-0.3,4.8h4v-6.5h-3.6V90.6z M101,101.9l2.2-2.1c2.1,2,4.7,5,7.8,9l-2.4,2.4
			C106.4,108,103.8,104.8,101,101.9z"/>
		<path fill="#414042" d="M128.8,93.6h-9.2v17.5h-3.2V82.2h12.4V93.6z M125.6,85h-6v1.6h6V85z M119.6,90.8h6v-1.6h-6V90.8z
			 M131.3,97v-2.4h3.2V97h4.3v3h-4.3v7.1c0,2.3-1.2,3.5-3.5,3.5h-3.7l-0.7-3c1.2,0.1,2.3,0.2,3.4,0.2c0.9,0,1.4-0.5,1.4-1.5v-4.8
			c-2.5,3.1-5.6,5.7-9.4,7.6l-1.7-2.8c3.8-1.6,6.9-3.7,9.3-6.3h-8v-3H131.3z M130.8,93.6V82.2h12.5v24.9c0,2.4-1.2,3.6-3.5,3.6
			c-1,0-1.9-0.1-2.9-0.1l-0.9-3.1c0.9,0.1,1.8,0.1,2.6,0.1c0.9,0,1.4-0.5,1.4-1.6V93.6H130.8z M140.1,85h-6v1.6h6V85z M134,90.8h6
			v-1.6h-6V90.8z"/>
		<path fill="#414042" d="M164.1,81.2v9.6h12v3.3h-12v12.7h14.4v3.3h-29.1v-3.3h11.2V81.2H164.1z"/>
		<path fill="#414042" d="M194,108.9h-3.2v-2.1h-3.7v2.9h-3.2V82.6H194V108.9z M190.8,89.6v-3.9h-3.7v3.9H190.8z M190.8,96.6v-4
			h-3.7v4H190.8z M190.8,103.6v-4h-3.7v4H190.8z M199.5,106.4c1.5-0.5,3-1,4.5-1.6l0.8,2.9c-2.3,1-5.2,1.9-8.7,2.8l-0.7-2.7
			c0.6-0.2,0.9-0.6,0.9-1.1V82.1h14.4v14.7h-11.1V106.4z M207.3,85.2h-7.8v2.9h7.8V85.2z M199.5,93.8h7.8V91h-7.8V93.8z M212.5,99.8
			c-1.3,1.6-2.8,2.9-4.4,3.8c1.4,1.8,3,3.3,4.9,4.4l-2,2.9c-3.8-2.5-6.6-6.3-8.3-11.5l2.5-1.4c0.4,1.2,0.9,2.2,1.5,3.2
			c1.3-0.8,2.6-2,3.8-3.5L212.5,99.8z"/>
		<path fill="#414042" d="M227.6,107.5h-6.4v2.2h-3.2V82.4h9.5V107.5z M224.5,85.4h-3.3v4.5h3.3V85.4z M221.3,97.1h3.3v-4.4h-3.3
			V97.1z M221.3,104.5h3.3V100h-3.3V104.5z M230.5,111.1l-2.4-2.1c1.7-2.3,2.7-5.3,2.7-8.9v-4.8h13.6v13c0,1.8-1,2.7-3.1,2.7H238
			l-0.8-2.9c1.1,0.1,2.2,0.1,3.2,0.1c0.6,0,0.9-0.4,0.9-1.1v-1H233C232.4,108,231.6,109.7,230.5,111.1z M239.1,81.2V83h6.8v2.7h-6.8
			V87h5.7v2.7h-5.7v1.5h7.5V94h-18.1v-2.8h7.3v-1.5h-5.6V87h5.6v-1.3h-6.6V83h6.6v-1.8H239.1z M233.6,103.5h7.7v-1.6h-7.5
			L233.6,103.5z M241.3,97.9h-7.4v1.5h7.4V97.9z"/>
	</g>
	<path fill="#FCB457" d="M47.1,70.7c73.5-0.9,147,0.3,220.3,3.4c0,0,0.1-1.5,0-1.5c-73.3-3.1-146.8-4.2-220.3-3.4
		C47.1,69.2,47.1,70.7,47.1,70.7L47.1,70.7z"/>
	<path fill="#FCB457" d="M47,114.4c67,3.2,134.1,4,201.2,2.5c0,0,0-2,0-2c-67.1,1.5-134.2,0.7-201.1-2.5
		C47,112.4,46.9,114.4,47,114.4L47,114.4z"/>
	<path fill="#FFD25C" d="M108.6,146.9c0,0,1.8,29.3-11.1,38c0,0,33-6.2,39.9-38H108.6z"/>
</g>
<g>
</g>
<g>
</g>
<g>
</g>
<g>
</g>
<g>
</g>
<g>
</g>
<g>
</g>
<g>
</g>
<g>
</g>
<g>
</g>
<g>
</g>
<g>
</g>
<g>
</g>
<g>
</g>
<g>
</g>
</svg>
