<?xml version="1.0" encoding="utf-8"?>
<!-- Generator: Adobe Illustrator 18.0.0, SVG Export Plug-In . SVG Version: 6.00 Build 0)  -->
<!DOCTYPE svg PUBLIC "-//W3C//DTD SVG 1.1//EN" "http://www.w3.org/Graphics/SVG/1.1/DTD/svg11.dtd">
<svg version="1.1" id="Layer_1" xmlns="http://www.w3.org/2000/svg" xmlns:xlink="http://www.w3.org/1999/xlink" x="0px" y="0px"
	 viewBox="0 0 617 218.9" enable-background="new 0 0 617 218.9" xml:space="preserve">
<g>
	<path fill="#FFFFFF" d="M546.8,181.4H70.3C31.6,181.4,0,149.8,0,111.1l0-40.8C0,31.6,31.6,0,70.3,0l476.5,0
		C585.4,0,617,31.6,617,70.3v40.8C617,149.8,585.4,181.4,546.8,181.4z"/>
	<g>
		<path fill="#757679" d="M74,63.8c-2,0.7-4.1,1.3-6.3,1.8v7.6c0,2.5-1.3,3.8-4,3.8h-4.3l-0.9-3.7c1.3,0.2,2.6,0.2,3.8,0.2
			c0.9,0,1.3-0.5,1.3-1.3v-5.7c-2.2,0.5-4.4,0.9-6.7,1.2l-0.6-4c2.6-0.4,5-0.8,7.3-1.3V56h-7.3v-3.8h7.3v-3.5
			c-1.8,0.4-3.7,0.7-5.6,0.9L57.3,46c5.2-0.6,9.9-1.7,13.9-3.3l1.4,3.7c-1.5,0.6-3.2,1.1-4.9,1.5v4.4h7.7c-0.2-2.9-0.3-6.1-0.3-9.6
			h4c0,3.6,0.2,6.8,0.4,9.6h11.3V56h-11c0.2,2.4,0.6,4.4,1,6c0.2,0.6,0.3,1.1,0.5,1.7c1.5-1.9,2.9-4.1,4-6.4l3.4,1.8
			c-1.7,3.4-3.7,6.4-6,8.9c0.4,0.9,0.8,1.7,1.2,2.3c1.1,1.7,1.9,2.5,2.4,2.5c0.4,0,0.8-1.9,1.3-5.7l3.5,1.8c-1,5.4-2.4,8.1-4.2,8.1
			c-1.7,0-3.4-1.1-5.2-3.4c-0.7-0.9-1.3-1.8-1.9-3c-2.6,2.1-5.4,3.8-8.6,5l-2.2-3.4c3.5-1.3,6.5-3.1,9.1-5.4
			c-0.4-1.2-0.8-2.4-1.1-3.7c-0.6-2-1-4.4-1.3-7.1h-8.1v5.6c2.2-0.6,4.3-1.2,6.3-1.8V63.8z M90,48l-2.8,2.8
			c-1.5-1.7-3.7-3.4-6.6-5.3l2.6-2.5C85.9,44.7,88.1,46.4,90,48z"/>
		<path fill="#757679" d="M100.2,56l-3.5-2.2c2.4-3.5,4.1-7.3,5.1-11.2l3.9,0.9c-0.4,1.3-0.8,2.6-1.2,3.8h10V51h-5
			c0,2.2-0.2,4.2-0.3,6.1h5.7v3.7h-6.3l-0.5,2.3c2.3,2.3,4.6,4.8,6.9,7.6l-2.4,3.7c-2.2-3.3-4.1-5.8-5.6-7.6
			c-1.6,3.8-4.3,7.1-8.1,9.8l-2.6-3.2c3.9-2.9,6.4-6.4,7.6-10.5l0.5-2h-7.2v-3.7h7.8c0.2-1.9,0.3-4,0.4-6.1H103
			C102.2,52.8,101.2,54.5,100.2,56z M130.1,75.9h-3.8v-2.1H120v2.1h-3.8V46.3h13.9V75.9z M126.3,70.1V49.9H120v20.2H126.3z"/>
		<path fill="#757679" d="M146.7,51.8v3.1c-1.1,1.9-2.5,3.7-4,5.6h4.4V63c-0.5,2.7-1.1,4.9-1.7,6.7c0.3,0.2,0.6,0.4,0.9,0.7
			c1.2,1.1,2.3,1.9,3.4,2.4c1.1,0.4,2.6,0.6,4.7,0.7c2,0,4.3,0,7,0c2.7,0,6.2-0.1,10.6-0.3l-0.9,3.7h-9.2c-2.6,0-5.1-0.1-7.6-0.2
			c-2.6-0.1-4.5-0.4-5.8-0.9c-1.6-0.6-3-1.6-4.3-2.9c-0.3-0.3-0.6-0.4-0.9-0.4c-0.7,0-1.9,1.6-3.5,4.9l-2.8-2.6
			c1.7-3.3,3.4-5.2,5-5.8c0.6-1.7,1.2-3.5,1.5-5.3h-5.3v-2.9c1.7-2,3.2-3.8,4.3-5.5h-4.9v-3.5H146.7z M146.5,48.2l-2.5,2.5
			c-1.4-1.7-3.2-3.5-5.7-5.5l2.6-2.4C143,44.6,144.9,46.4,146.5,48.2z M153.3,46.5c-0.5-0.9-1.1-1.8-1.8-2.6l3.6-1.4
			c0.8,1.1,1.5,2.5,2.2,4h4c0.9-1.3,1.7-2.6,2.4-4l3.7,1.3c-0.6,1-1.2,1.9-1.8,2.7h5.6V50h-10.4c-0.2,0.8-0.5,1.5-0.7,2.1h8.5v19
			h-18.2v-19h5.5c0.3-0.7,0.5-1.4,0.7-2.1h-8.9v-3.5H153.3z M165.1,57.6v-2h-11v2H165.1z M165.1,62.6v-2h-11v2H165.1z M165.1,65.6
			h-11v2.2h11V65.6z"/>
		<path fill="#757679" d="M193.2,45.7c0.2-1.1,0.3-2.3,0.4-3.4l4,0.6l-0.3,2.8h14.4v3.7h-15.1c-0.2,1-0.4,2-0.6,2.9h13.9V73
			c0,2.9-1.3,4.3-4,4.3h-3.5l-1-3.8l3.2,0.1c0.9,0,1.4-0.5,1.4-1.5V55.9h-22.5v21.6h-3.9V52.2h12.2c0.2-1,0.4-2,0.6-2.9h-14.7v-3.7
			H193.2z M193.2,60.7h3.2c0.8-1.4,1.4-2.9,2-4.4l3.5,1.3c-0.5,1.2-1.1,2.2-1.7,3.2h3.4v3.4h-6.9V67h7.9v3.4h-7.9v6.5h-3.8v-6.5
			h-7.9V67h7.9v-2.9H186v-3.4h3.4c-0.5-1.1-1.1-2.1-1.7-3.1l3.5-1.3C191.9,57.6,192.6,59.1,193.2,60.7z"/>
		<path fill="#757679" d="M228.7,48.2v-5.6h3.9v18.5c-0.1,7.5-2.1,12.9-6.2,16.4l-3.1-2.7c2-1.7,3.5-4,4.4-6.8
			c-2.9,0.7-5.9,1.3-9.1,1.8l-1-3.9c3.7-0.3,7.3-0.9,10.8-1.7c0.1-1,0.2-2.1,0.2-3.1v-0.8h-9.2v-3.8h9.2V52h-10v-3.7H228.7z
			 M241.5,42.7v5.6h10V52h-10v4.7h9.2v3.8h-9.2v4.9h10.6V69h-10.6v8.5h-4V42.7H241.5z"/>
		<path fill="#757679" d="M282.5,75.3l-1-3.6l2.9,0.2c0.8,0,1.3-0.5,1.3-1.4v-3h-8.1v10.1h-3.9V67.5h-8.1v7.4h-3.9V64h12v-2.2h-1.8
			l-0.8-2.9l1.7,0.2c0.5,0,0.8-0.3,0.8-1v-1l-2.4,0.6c-0.3-1.8-0.7-3.6-1.2-5.2l2.1-0.7c0.6,1.5,1.1,3.2,1.4,5.1v-6h-3.7v10.6h-2.9
			V50.8h-3.9v11h-3.2V47.7h3.1c-0.7-1.3-1.4-2.4-2.2-3.4l2.8-1.4c0.8,1.1,1.5,2.4,2.2,3.8l-2,1h3.1v-4.9h3.2v4.9h3l-1.9-1
			c0.9-1.3,1.6-2.5,2.1-3.7l2.9,1.4c-0.6,1.1-1.2,2.3-2.1,3.4h2.7v3.6c2.3-2.4,3.8-5.2,4.5-8.6l3.5,0.5c-0.3,1-0.6,2-0.9,2.9h8.1
			v3.4h-1.4c-0.8,2.7-1.9,5-3.3,6.9c1.7,1.1,3.6,2.1,5.7,3l-1.8,3.2c-2.4-1.1-4.4-2.3-6.2-3.7c-1.7,1.5-3.8,2.6-6,3.4l-1.8-3
			c2-0.6,3.8-1.5,5.2-2.7c-0.8-0.8-1.5-1.6-2.1-2.4l1.7-2.5c0.8,1,1.7,1.9,2.7,2.7c1.1-1.4,1.8-3.1,2.4-4.9h-4.7
			c-1,1.8-2.3,3.4-3.7,4.9l-1.9-2.5v6.9c0,1.5-0.5,2.4-1.5,2.8h2.4V64h12v7.3c0,2.6-1.3,4-3.9,4H282.5z M266.4,52.4
			c-0.2,2.4-0.5,4.6-0.9,6.6l-2.5-0.8c0.6-1.7,0.9-3.8,1.1-6L266.4,52.4z"/>
		<path fill="#757679" d="M309.1,44c-1.8,4.1-5,7.9-9.5,11.3l-1.2-3.8c3.3-2.6,5.8-5.6,7.3-9.1L309.1,44z M310.3,53.7
			c-0.8,1.8-1.9,3.5-3.2,5.2v18.7h-3.8V62.9c-1.1,0.9-2.2,1.8-3.4,2.7l-1.2-3.7c3.7-2.8,6.4-6,8.2-9.7L310.3,53.7z M315.1,72.1
			c2.1-0.6,4.2-1.4,6.3-2.3l0.9,3.5c-3.1,1.2-6.9,2.4-11.6,3.6l-0.8-3.4c0.9-0.3,1.4-0.8,1.4-1.4V43.8h18.9v17.1h-15.1V72.1z
			 M326.4,47.5h-11.3v3.2h11.3V47.5z M315.1,57.3h11.3v-3.2h-11.3V57.3z M332.8,64.1c-1.7,2-3.7,3.6-5.8,4.7c1.8,2.1,4,3.8,6.5,5.1
			l-2.2,3.2c-5.3-2.9-9.1-7.5-11.5-13.6l2.9-1.7c0.6,1.6,1.4,3,2.2,4.3c1.8-1.1,3.6-2.6,5.3-4.6L332.8,64.1z"/>
		<path fill="#757679" d="M347.6,77.4h-3.8V61.2c-1,2.8-2.2,5.5-3.6,7.9l-1.7-4.3c2.4-3.3,4.1-7.1,5.2-11.4h-4.4v-3.7h4.5v-6.9h3.8
			v6.9h3.4v3.7h-3.4V56c1.4,1.4,2.8,2.9,4.2,4.5l-2.1,3.1l-2.1-3.4V77.4z M360,45c0.2-0.9,0.3-1.8,0.3-2.7l4,0.5L364,45h7.7v3.4
			h-8.3c-0.2,0.6-0.3,1.2-0.5,1.8h7.5v3.2H362c-0.2,0.6-0.5,1.2-0.7,1.8h11.6v3.5h-4c1.2,2,3,3.7,5.3,5.3l-2.4,3.1
			c-1.2-0.9-2.2-1.9-3.1-2.9v2.4H364V69h7.4v3.5H364v4.9h-3.7v-4.9h-7.6V69h7.6v-2.4h-4.9v-2c-1.1,1.1-2.2,2.1-3.4,2.9l-2.2-3.4
			c2.1-1.4,3.9-3.2,5.4-5.3h-4.3v-3.5h6.3c0.3-0.6,0.5-1.2,0.8-1.8h-4.7v-3.2h5.7l0.5-1.8h-7V45H360z M356.7,63.2h3.6V60h3.7v3.2
			h3.8c-1.1-1.4-2.1-2.9-2.8-4.4h-5.4C358.7,60.4,357.7,61.8,356.7,63.2z"/>
		<path fill="#757679" d="M400,59c0,3.7-1.7,6.5-5.2,8.3l-1.3-2.1c2.3-1.4,3.5-3.1,3.7-5.2c-0.2,0-0.5,0.1-0.7,0.1
			c-0.8,0-1.5-0.3-2.1-0.8c-0.6-0.5-0.8-1.2-0.8-2c0-0.9,0.3-1.5,0.8-2.1c0.6-0.5,1.2-0.8,2.1-0.8C398.8,54.4,400,55.9,400,59z"/>
		<path fill="#757679" d="M437.5,63.8c-2,0.7-4.1,1.3-6.3,1.8v7.6c0,2.5-1.3,3.8-4,3.8h-4.3l-0.9-3.7c1.3,0.2,2.6,0.2,3.8,0.2
			c0.9,0,1.3-0.5,1.3-1.3v-5.7c-2.2,0.5-4.4,0.9-6.7,1.2l-0.6-4c2.6-0.4,5-0.8,7.3-1.3V56h-7.3v-3.8h7.3v-3.5
			c-1.8,0.4-3.7,0.7-5.6,0.9l-0.8-3.7c5.2-0.6,9.9-1.7,13.9-3.3l1.4,3.7c-1.5,0.6-3.2,1.1-4.9,1.5v4.4h7.7c-0.2-2.9-0.3-6.1-0.3-9.6
			h4c0,3.6,0.2,6.8,0.4,9.6h11.3V56h-11c0.2,2.4,0.6,4.4,1,6c0.2,0.6,0.3,1.1,0.5,1.7c1.5-1.9,2.9-4.1,4-6.4l3.4,1.8
			c-1.7,3.4-3.7,6.4-6,8.9c0.4,0.9,0.8,1.7,1.2,2.3c1.1,1.7,1.9,2.5,2.4,2.5c0.4,0,0.8-1.9,1.3-5.7l3.5,1.8c-1,5.4-2.4,8.1-4.2,8.1
			c-1.7,0-3.4-1.1-5.2-3.4c-0.7-0.9-1.3-1.8-1.9-3c-2.6,2.1-5.4,3.8-8.6,5l-2.2-3.4c3.5-1.3,6.5-3.1,9.1-5.4
			c-0.4-1.2-0.8-2.4-1.1-3.7c-0.6-2-1-4.4-1.3-7.1h-8.1v5.6c2.2-0.6,4.3-1.2,6.3-1.8V63.8z M453.6,48l-2.8,2.8
			c-1.5-1.7-3.7-3.4-6.6-5.3l2.6-2.5C449.4,44.7,451.7,46.4,453.6,48z"/>
		<path fill="#757679" d="M473.5,65.7c-2.6,4.7-5.6,8.7-9.1,12.2l-3.5-2.6c3.5-3.1,6.6-6.9,9.2-11.3L473.5,65.7z M489.9,44.5v18.1
			h-24.9V44.5H489.9z M486.1,48.2H469v10.6h17.1V48.2z M494.3,75.4l-3.4,2.4c-2.2-3.6-5.2-7.5-9-11.9l3.2-2
			C489,68.3,492.1,72.1,494.3,75.4z"/>
		<path fill="#757679" d="M501.1,63.1v-3.5h33.6v3.5h-14.4v3.2h10.4v3.5h-10.4v3.6c1.7,0.2,3.7,0.2,5.8,0.2c3.4,0,6.2-0.1,8.5-0.2
			l-1.1,3.7c-2.6,0-5,0-7.1-0.1c-6.3,0-10.5-0.5-12.8-1.4c-1.8-0.8-3.4-2.2-4.8-4.3c-1.4,2.5-3.2,4.6-5.4,6.3l-2.6-3.3
			c3.4-2.6,5.6-6.1,6.9-10.5l3.7,0.6c-0.3,1.3-0.8,2.6-1.2,3.7c1.4,2.2,3.1,3.6,4.9,4.2c0.4,0.1,0.8,0.2,1.2,0.3v-9.7H501.1z
			 M529.8,43.8v13.7h-23.6V43.8H529.8z M525.9,49.1v-2h-15.8v2H525.9z M525.9,52.2h-15.8v2h15.8V52.2z"/>
		<path fill="#757679" d="M551.2,63.8h-4v-8.6c-1.4,2.4-3.1,4.7-5.1,6.9l-1.4-3.7c2.6-2.3,4.8-4.9,6.4-7.8h-5.6v-3.6h5.8v-3.8h4v3.8
			h4.4v3.6h-4.4v1.1c1.8,1.2,3.7,2.5,5.6,4l-2.2,3.3c-1.3-1.5-2.4-2.8-3.4-3.8V63.8z M548.1,66.4c-0.9,3.6-2.1,6.8-3.7,9.5l-3.4-2.1
			c1.5-2.6,2.6-5.3,3.2-8.2L548.1,66.4z M554,76.7c-2.9,0-4.3-1.5-4.3-4.3v-7.2h4v6.3c0,0.9,0.5,1.4,1.5,1.4h7.9
			c0.5,0,0.9-0.2,1.2-0.6c0.3-0.4,0.5-1.6,0.6-3.6l3.7,1.3c-0.3,3.2-0.8,5.2-1.6,5.8c-0.7,0.6-1.8,0.9-3.3,0.9H554z M562.6,69
			l-3.1,2.2c-1-1.5-2.3-3.2-3.8-5l3.1-1.9C560.4,66.1,561.7,67.7,562.6,69z M573.2,43.8v19.7h-15.6V43.8H573.2z M569.4,49.5v-2.2h-8
			v2.2H569.4z M569.4,54.7v-2.1h-8v2.1H569.4z M569.4,57.9h-8v2.2h8V57.9z M576,72.6l-3.4,2.3c-1.4-2.6-3.2-5.4-5.5-8.6l3.2-2
			C572.8,67.5,574.7,70.2,576,72.6z"/>
		<path fill="#757679" d="M72.2,115.6H61.9V134H58v-33.7h14.2V115.6z M68.3,103.8h-6.4v2.6h6.4V103.8z M61.9,112.2h6.4v-2.5h-6.4
			V112.2z M81.1,117.6v12.1H65.9v-12.1H81.1z M77.3,121.1h-7.6v5.2h7.6V121.1z M74.6,115.6v-15.3h14.5V130c0,2.6-1.3,3.8-3.9,3.8
			c-1.2,0-2.4-0.1-3.6-0.2l-1-3.8c1.1,0.2,2.2,0.2,3.2,0.2c0.9,0,1.4-0.5,1.4-1.4v-13.1H74.6z M85.2,103.9h-6.7v2.5h6.7V103.9z
			 M78.6,112.1h6.7v-2.5h-6.7V112.1z"/>
		<path fill="#757679" d="M116.4,115.5c0,3.7-1.7,6.5-5.2,8.3l-1.3-2.1c2.3-1.4,3.5-3.1,3.7-5.2c-0.2,0-0.5,0.1-0.7,0.1
			c-0.8,0-1.5-0.3-2.1-0.8c-0.6-0.5-0.8-1.2-0.8-2c0-0.9,0.3-1.5,0.8-2.1c0.6-0.5,1.2-0.8,2.1-0.8
			C115.2,110.9,116.4,112.4,116.4,115.5z"/>
		<path fill="#757679" d="M169.4,118.5c-0.1,7.4-0.6,11.9-1.5,13.3c-1,1.5-2.7,2.2-5,2.2c-1.1,0-2.3-0.1-3.7-0.2l-1-3.7
			c1.5,0.1,2.8,0.2,3.8,0.3c1.5,0,2.4-0.5,2.8-1.4c0.4-0.9,0.6-3.2,0.7-7H143c-1.7,1.7-3.7,3.2-5.7,4.6l-2-3.5
			c5.4-3.6,9.5-8.6,12.1-14.8h-9.5v-3.5h5.5c-0.7-1.1-1.6-2.3-2.6-3.5l3.1-2c1.4,1.6,2.4,3,3.1,4.2l-1.8,1.2h3.3
			c0.5-1.8,1-3.7,1.4-5.6l3.9,0.5c-0.4,1.8-0.8,3.5-1.2,5.1h11.5l-1.4,6.7h4.5l-1.2,7H169.4z M145.8,124.8c-1,3.1-2.3,5.8-4.1,8.1
			l-3.4-2.2c1.8-2.1,3.2-4.4,4-6.7L145.8,124.8z M146,118.5h16.2l0.8-3.6h-14.6C147.7,116.2,146.9,117.4,146,118.5z M151.9,131.4
			l-3.7,0.5c-0.2-2.9-0.6-5.2-1.2-6.7l3.3-0.4C151.1,126.3,151.6,128.5,151.9,131.4z M151.5,108.3c-0.4,1.1-0.9,2.2-1.3,3.2h8.7
			l0.8-3.2H151.5z M158,129.5l-3.5,1.3c-0.5-2.1-1.2-4.1-2-6.1l3-0.9C156.6,125.9,157.4,127.8,158,129.5z M163.7,128.3l-3.6,0.9
			c-0.5-1.8-1.2-3.6-2-5.3l3.1-1C162.2,124.4,163,126.2,163.7,128.3z"/>
		<path fill="#757679" d="M175.7,118.2l-1.3-4.1c3.8-4.3,6.6-9.3,8.5-15.1l3.7,1.7c-0.9,2.6-2,5.1-3.3,7.5v25.9h-3.9V114
			C178.3,115.5,177,116.8,175.7,118.2z M199.2,99.2v11.9h10.2v3.9h-10.2v19h-4.1v-19h-9.4v-3.9h9.4V99.2H199.2z"/>
		<path fill="#757679" d="M234.7,101.4h13.4v3.3h-27.5v10.4c-0.1,7.7-1.3,13.9-3.5,18.5l-3-2.6c1.7-3.8,2.6-9.1,2.7-15.9v-13.7h14
			c-0.4-0.7-0.8-1.4-1.1-1.9l3.8-0.6C233.9,99.6,234.3,100.4,234.7,101.4z M225,111.4c-0.1,3.2-0.9,5.6-2.4,7.2l-1.8-1.6
			c1.2-1.2,1.9-3.1,2-5.6H225z M248.1,131.8L245,134c-0.5-0.9-1.1-1.8-1.7-2.8c-5.3,0.9-12.2,1.6-20.7,2.1l-1-3.2
			c1.2-0.1,2.2-0.3,3.2-0.6c2.1-0.9,4.4-2.2,6.9-4c-2.6,0.1-5.3,0.2-8.1,0.3l-0.7-3.1c0.8-0.1,1.6-0.3,2.4-0.7
			c1.4-0.6,3.2-2.1,5.5-4.6l3.6,0.9c-1.5,1.7-3.2,3.2-4.9,4.4c2.1-0.1,4.1-0.2,6.3-0.3c1.2-1,2.4-2.1,3.7-3.2l3.5,1.7
			c-4.6,3.9-8.7,6.8-12.1,8.9c4-0.4,7.5-0.8,10.5-1.4c-0.6-0.9-1.3-1.7-2-2.6l3-1.9C244.8,127,246.8,129.6,248.1,131.8z M226,107.4
			v-2h3.4v2h4.1v2.9H229v7.6h-2.7v-7.6h-4.6v-2.9H226z M232.7,111.4v2.9c0,0.4,0.2,0.6,0.5,0.6h1.4v2.1h-2.2c-1.3,0-1.9-0.8-1.9-2.5
			v-3.1H232.7z M239.4,107.4v-2h3.4v2h4.7v2.9h-5v7.6h-2.7v-7.6h-5v-2.9H239.4z M238.3,111.4c0,3-0.6,5.3-1.6,6.9l-1.8-1.6
			c0.8-1.1,1.1-2.9,1.2-5.2H238.3z M246.2,111.5v3.5c0,0.4,0.3,0.6,0.9,0.6h1.5v2.1h-2.4c-1.6,0-2.3-0.9-2.3-2.5v-3.8H246.2z"/>
		<path fill="#757679" d="M254.9,118.2l-1.3-4.2c3.9-4.3,6.7-9.3,8.6-15l3.7,1.7c-1,2.9-2.3,5.7-3.8,8.4v25h-3.9v-19.4
			C257.1,115.8,256.1,117,254.9,118.2z M266.6,114.7l-3.4-2.1c2.8-4.2,4.7-8.6,5.9-13.3l3.7,0.8c-0.3,1.1-0.6,2.3-1,3.4h15.7v2.6
			c-0.6,2.3-1.3,4.5-2.1,6.7l-3.8-1.1c0.8-1.3,1.4-2.8,1.9-4.4h-13C269.3,109.9,268.1,112.4,266.6,114.7z M272.1,115.6
			c-1.3,5.2-3,9.7-5,13.6l-3.7-1.3c2-3.5,3.7-7.9,5.2-13.2L272.1,115.6z M269.9,133.8l-0.9-3.7c1.5,0.2,3,0.3,4.3,0.3
			c0.9,0,1.4-0.5,1.4-1.4v-19.2h3.8v20.1c0,2.6-1.3,3.9-3.8,3.9H269.9z M288.5,128.2l-3.5,1.5c-1.4-5.4-2.9-10.2-4.6-14.4l3.5-1.2
			C285.7,118.5,287.2,123.3,288.5,128.2z"/>
		<path fill="#757679" d="M327.2,100.8v3.8h-12.1c-0.6,1.4-1.4,2.8-2.1,4.1v1.6c5.9,3.4,11,7,15.3,11l-2.8,3.3
			c-3.4-3.6-7.6-7-12.5-10.1v19.7h-4.1v-19.9c-3.4,3.8-7.7,7.3-12.8,10.4l-2.6-3.4c8.1-4.6,13.9-10.1,17.2-16.6h-16v-3.8H327.2z"/>
		<path fill="#757679" d="M335.2,122.9l-2.5-3.3c4.2-3.5,7.6-7.5,10.1-11.9h-8.8v-3.8h10.7c0.7-1.7,1.3-3.4,1.8-5.1l4.1,0.5
			c-0.5,1.6-1,3.1-1.5,4.6h18.2v3.8h-20c-1.4,2.9-3.1,5.5-5.1,8v18.4h-3.9v-14.1C337.4,121,336.3,122,335.2,122.9z M353.1,116.3
			v-6.5h4v6.5h8.6v3.8h-8.6v8.8h10.2v3.8h-23.7v-3.8h9.5v-8.8H345v-3.8H353.1z"/>
		<path fill="#757679" d="M398.9,99.3v6.7h7.4c0,12.7-0.2,20.6-0.5,23.5c-0.4,2.7-2.1,4.1-5.1,4.1c-0.7,0-1.9-0.1-3.6-0.2l-0.9-3.4
			c1.5,0.1,2.8,0.2,4,0.2c1.2,0,1.9-0.8,2.1-2.4c0.2-1.7,0.3-7.8,0.4-18.2h-3.7v1.2c-0.1,10.5-2.4,18.2-6.8,23.1l-2.1-1.8
			c-5,0.6-10.7,1.1-17,1.5l-0.5-3.5c2.7-0.2,5.2-0.3,7.6-0.5v-2.4h-6.4v-3.2h6.4v-1.8h-6.5v-12.2h6.5v-1.6h-7.3v-3.2h7.3v-1.7
			c-2,0.1-4,0.2-6.1,0.2l-1.1-3.1c6.3,0,11.6-0.5,16-1.5l1.7,2.9c-2,0.5-4.3,0.9-6.9,1.2v2h7.1v3.2h-7.1v1.6h6.6v12.2h-6.6v1.8h6.4
			v3.2h-6.4v2.1c2.3-0.2,4.4-0.5,6.4-0.7v1.7c3.3-4.3,4.9-10.8,5-19.5v-1.2h-3.3V106h3.3v-6.7H398.9z M380.4,114.9v-2h-3.2v2H380.4z
			 M380.4,117.5h-3.2v2h3.2V117.5z M383.6,114.9h3.2v-2h-3.2V114.9z M386.9,117.5h-3.2v2h3.2V117.5z"/>
		<path fill="#757679" d="M415.4,115.6l-3.5-1c1-4,1.6-8.1,1.7-12.5l3.5,0.3c-0.1,1.4-0.2,2.9-0.3,4.3h1.6v-7.4h3.8v7.4h2.6v3.8
			h-2.6v7.5c0.8-0.4,1.6-0.8,2.4-1.1v3.7c-0.8,0.4-1.6,0.7-2.4,1.1V134h-3.8v-10.9c-1.7,0.6-3.4,1.2-5.2,1.7l-0.9-3.8
			c2.1-0.4,4.1-1,6.1-1.7v-9h-2.1C416.1,112.2,415.8,113.9,415.4,115.6z M432.8,100.1c-0.4,1.7-0.8,3.3-1.2,4.8h14.2
			c0,13.1-0.2,21.2-0.6,24.2c-0.5,3.2-2.6,4.9-6.4,4.9c-0.5,0-1.5-0.1-2.9-0.2l-0.9-3.5c1.2,0.1,2.2,0.2,3.1,0.2
			c2,0,3.2-1.1,3.5-3.1c0.2-1.8,0.3-8,0.4-18.6h-1.4c-0.8,6-1.9,10.8-3.3,14.4c-1.7,4-4.3,7.6-7.7,10.8l-2.4-3.1
			c3.1-2.8,5.4-5.9,6.9-9.3c1.3-3.2,2.3-7.4,3.1-12.7h-1.9c-1.6,8-4.4,13.9-8.5,17.6l-2.5-2.9c3.6-3.1,6.1-7.9,7.5-14.6h-1.6
			c-0.9,2.2-2,4.1-3.3,5.6l-2.9-2.4c2.3-2.9,4-7.2,5-12.7L432.8,100.1z"/>
		<path fill="#757679" d="M485,134.1h-3.8v-1.3h-24.1v1.3h-3.8v-33.7H485V134.1z M464.2,129.2l-0.9-2.3c0.6-0.2,0.9-0.6,0.9-1.1v-1
			c-1.4,0.7-2.9,1.3-4.5,1.9l-1.8-2.9c3.4-0.8,5.9-1.7,7.5-2.7h-4.8v-6.7h17.2v6.3c0,0,0.1-0.1,0.1-0.1l2.3,1.8
			c-1.1,0.7-2.1,1.3-3.2,1.8c1.1,0.6,2.2,1.2,3.2,1.8l-1.8,2.8c-3-2.1-6-3.8-9.2-5l1.6-2.3c1.1,0.4,2.2,0.8,3.3,1.3
			c1.1-0.6,2.2-1.2,3.1-1.8h-8c-0.6,0.6-1.2,1.2-2,1.8v3.2c1.3-0.3,2.5-0.6,3.8-1l0.6,2.7c-2.1,0.6-4.3,1.1-6.4,1.5h16v-25.3h-24.1
			v25.3H464.2z M467.4,106.1v-1.5h3.5v1.5h7.3v2.8h-7.3v1.4h9.1v2.9h-21.7v-2.9h9v-1.4h-7.3v-2.8H467.4z M474.5,116.9h-10.7v1.6
			h10.7V116.9z"/>
		<path fill="#757679" d="M515.3,104.7c1.5,1.3,2.3,3.1,2.3,5.4c0,1.9-0.5,3.4-1.4,4.6c-0.3,0.4-1.4,1.4-3.2,3
			c-0.7,0.5-1.2,1.2-1.5,1.8c-0.4,0.8-0.6,1.6-0.6,2.5v0.5h-4.3v-0.5c0-1.4,0.2-2.7,0.8-3.7c0.5-1,1.4-2.1,2.6-3.2
			c1.2-1.1,2-1.8,2.3-2.1c0.7-0.8,1-1.7,1-2.7c0-1.2-0.4-2.2-1.1-2.9c-0.7-0.7-1.7-1.1-3-1.1c-1.6,0-2.8,0.5-3.5,1.5
			c-0.6,0.9-0.9,2.1-0.9,3.7h-4.3c0-2.8,0.8-5,2.4-6.6c1.6-1.6,3.8-2.4,6.6-2.4C511.8,102.7,513.8,103.3,515.3,104.7z M510.8,125.2
			c0.5,0.5,0.8,1.2,0.8,2c0,0.8-0.3,1.5-0.8,2.1c-0.6,0.5-1.3,0.8-2.1,0.8c-0.8,0-1.5-0.3-2-0.8c-0.6-0.5-0.9-1.2-0.9-2
			c0-0.8,0.3-1.5,0.9-2c0.5-0.5,1.2-0.8,2-0.8C509.5,124.4,510.2,124.7,510.8,125.2z"/>
	</g>
	<linearGradient id="SVGID_1_" gradientUnits="userSpaceOnUse" x1="56.7823" y1="82.3255" x2="577.1376" y2="82.3255">
		<stop  offset="0" style="stop-color:#B3B5B8"/>
		<stop  offset="1" style="stop-color:#A9ABAE"/>
	</linearGradient>
	<path fill="url(#SVGID_1_)" d="M56.8,81.1c173.5-1.3,347.1,0.4,520.3,5.1c-0.1,0,0.2-2.4,0-2.4c-173.2-4.7-346.8-6.5-520.3-5.1
		C56.7,78.8,56.8,81.1,56.8,81.1L56.8,81.1z"/>
	<linearGradient id="SVGID_2_" gradientUnits="userSpaceOnUse" x1="60.0419" y1="135.2833" x2="523.423" y2="135.2833">
		<stop  offset="0" style="stop-color:#B3B5B8"/>
		<stop  offset="1" style="stop-color:#A9ABAE"/>
	</linearGradient>
	<path fill="url(#SVGID_2_)" d="M60.1,134.6c154.2,3.7,308.8,4.7,463.3,2.9c0.1,0,0-2.4,0-2.4c-154.5,1.8-309.1,0.8-463.3-2.9
		C60.2,132.2,59.9,134.6,60.1,134.6L60.1,134.6z"/>
	<path fill="#FFFFFF" d="M309.8,171.1c0,0,27.5,41.1,70.3,47.8c0,0-19.7-19.7-12-58.4L309.8,171.1z"/>
</g>
<g>
</g>
<g>
</g>
<g>
</g>
<g>
</g>
<g>
</g>
<g>
</g>
<g>
</g>
<g>
</g>
<g>
</g>
<g>
</g>
<g>
</g>
<g>
</g>
<g>
</g>
<g>
</g>
<g>
</g>
</svg>
