<?xml version="1.0" encoding="utf-8"?>
<!-- Generator: Adobe Illustrator 18.0.0, SVG Export Plug-In . SVG Version: 6.00 Build 0)  -->
<!DOCTYPE svg PUBLIC "-//W3C//DTD SVG 1.1//EN" "http://www.w3.org/Graphics/SVG/1.1/DTD/svg11.dtd">
<svg version="1.1" id="Layer_1" xmlns="http://www.w3.org/2000/svg" xmlns:xlink="http://www.w3.org/1999/xlink" x="0px" y="0px"
	 viewBox="0 0 971.1 603.3" enable-background="new 0 0 971.1 603.3" xml:space="preserve">
<g>
	<path fill="#F58258" d="M497.3,257.4c0,0-39-67.4-43.3-76.8l-236.7,35.3c0,0-15.6,7.9-29.1,43.8c-6.7,9.7-14.9,23.9-24.2,44.7
		c-8.4,18.8-4.2,60.5,11,74.3c5.4,4.9,12.4,9,21.4,11c0,0,24.9,1.9,59.1,3.2l24.5,1.3h-0.2c60.1,1.6,135.3-7.7,162.7-21.4l-4.6-71.3
		L497.3,257.4z"/>
	<path fill="#F58258" d="M427.6,278.7c0,0,18.3,52.9,14.8,94.1l-13.1-36.3L427.6,278.7z"/>
	<path fill="#D65B51" d="M388.9,231.4l-18.2,36.2c-3.1,7-12.1,9-17.8,3.9l-15.6-13.9l-14,20.8c-3.3,4.9-9.9,6.4-15,3.4l-41.3-24
		L388.9,231.4z"/>
	<g>
		<circle fill="#D65B51" cx="349" cy="309.2" r="29.1"/>
		<polygon fill="#EBE5C9" points="339.8,299.9 341.4,287.4 364.8,307.1 345.9,331.4 350.2,313.4 		"/>
	</g>
	<path fill="#A3A5A8" d="M447.1,185.5l49.3,71l15.5-13.5c8.3-7.2,11.6-18.6,8.4-29l-1.4-4.8c-0.9-3-2.3-5.7-4.1-8.2l-14.6-20
		c-3.1-4.3-7.4-7.5-12.4-9.4v0c-8.8-3.4-18.8-2-26.5,3.6L447.1,185.5z"/>
	<path fill="#ABADB0" d="M329.6,41.1l78.5-7.1c26.8-2.4,53.4,6.9,72.9,25.5l0,0c27.7,26.4,36.4,67.1,22,102.5l-6.5,16
		c-15.5,38.1-54,61.6-94.9,57.8l-21-1.9"/>
	<path fill="#939598" d="M392.9,212.8L392.9,212.8c31.3,2.9,60.8-15.1,72.7-44.3l5-12.3c11.9-29.4,3.1-63.4-22.4-83.3
		c-14.5-11.3-32.9-16.3-51.2-14.6l-44.5,4c-7.6,0.7-12.8,8.1-10.8,15.4l31.1,117.8C375.2,205.1,383.2,212,392.9,212.8z"/>
	
		<linearGradient id="SVGID_1_" gradientUnits="userSpaceOnUse" x1="-1415.6851" y1="390.6994" x2="-1475.9749" y2="553.7557" gradientTransform="matrix(-0.9829 0.184 0.184 0.9829 -1164.5989 8.677)">
		<stop  offset="0" style="stop-color:#BCBEC0"/>
		<stop  offset="1" style="stop-color:#A3A5A8"/>
	</linearGradient>
	<path fill="url(#SVGID_1_)" d="M225.9,245.7c51.1,24.4,107.1,24.8,157.5-2c24.3-12.9,44.7-34,44.2-63c-0.1-8.3-2-16.2-4.6-24.1
		c-6.9-21-4.2-42.8-10.1-63.8c-4.3-15.5-13.7-29-25.5-39.7c-23.2-20.9-53.5-27.5-87.5-28.8c-25-1-62,9.2-80.6,27.4"/>
	<path fill="#A1A3A6" d="M393.4,123.6c3.7,5.4,2.4,12.7-3,16.3c-5.3,3.7-12.7,2.3-16.4-3c-3.7-5.4-2.4-12.7,3-16.3
		C382.4,116.9,389.7,118.2,393.4,123.6z"/>
	<path fill="#67686B" d="M389.1,125.8c2,3.4,1,7.8-2.4,9.8c-3.4,2-7.8,0.9-9.8-2.4s-1-7.8,2.4-9.8
		C382.7,121.3,387.1,122.4,389.1,125.8z"/>
	<path fill="#A1A3A6" d="M310.3,138c3.8,5.5,2.4,12.9-3,16.6c-5.4,3.7-12.9,2.3-16.7-3.1c-3.8-5.5-2.4-12.9,3-16.6
		S306.5,132.6,310.3,138z"/>
	<path fill="#67686B" d="M308.2,140.8c2.1,3.5,1,8-2.4,10c-3.5,2.1-8,1-10.1-2.5s-1-8,2.4-10C301.6,136.2,306.1,137.3,308.2,140.8z"
		/>
	
		<linearGradient id="SVGID_2_" gradientUnits="userSpaceOnUse" x1="-1293.6775" y1="356.3965" x2="-1293.6775" y2="402.5692" gradientTransform="matrix(-0.9907 0.1358 0.1358 0.9907 -1159.9868 40.6645)">
		<stop  offset="0" style="stop-color:#BEC0C2"/>
		<stop  offset="1" style="stop-color:#B1B3B6"/>
	</linearGradient>
	<path fill="url(#SVGID_2_)" d="M231.3,49.2l-76.7,15.6c-26.5,4.9-49.6,21-63.3,44.1l0,0c-19.5,32.9-17,74.4,6.4,104.7l10.6,13.7
		c25.1,32.5,68.6,44.8,107,30.1l19.7-7.5"/>
	<path fill="#A1A3A6" d="M220.5,231.6L220.5,231.6c-28.9,12.5-62.5,4.6-82.8-19.5l-8.5-10.1c-20.5-24.2-22.7-59.3-4.6-86.1
		c10.3-15.2,26.2-25.7,44.1-29.8l43.6-10c7.4-1.7,14.6,3.7,15.1,11.3l7.1,121.6C235,218.7,229.4,227.7,220.5,231.6z"/>
	<path fill="#797A7D" d="M294.2,200.5c1.5-2.2,2.7-4.2,3.5-6.1c0.8-2,1.3-3.9,1.5-5.8c0-0.5,0.1-1,0.1-1.5c0-0.5,0-1,0-1.5
		c-0.1-1-0.2-2.1-0.4-3.1c-0.4-2.1-1-4.4-1.4-6.9l0-0.1c0-0.1,0-0.1,0.1-0.2c0.1,0,0.1,0,0.2,0.1l1.1,1.5l1,1.5
		c0.6,1.1,1.2,2.1,1.6,3.3c0.5,1.1,0.8,2.3,1,3.4c0.2,1.2,0.3,2.4,0.2,3.6c-0.2,2.4-1.1,4.7-2.5,6.8c-1.4,2.1-3.4,3.9-5.7,5.2
		c-0.1,0-0.2,0-0.2,0C294.1,200.7,294.1,200.6,294.2,200.5L294.2,200.5z"/>
	<g>
		<path fill="#797A7D" d="M308.6,120.1c-2.2,1.2-4.2,2.1-6.1,3.1c-1.9,1-3.7,1.9-5.4,2.9c-1.7,1.1-3.2,2.2-4.6,3.5
			c-1.4,1.4-2.7,3-4.2,5l0,0.1c0,0.1-0.1,0.1-0.2,0c0,0-0.1-0.1-0.1-0.1c0.4-2.3,1.2-4.5,2.5-6.4c1.3-1.9,3.1-3.5,5-4.7
			c2-1.2,4.1-2.1,6.3-2.7c2.2-0.6,4.5-1,6.8-1.1c0.1,0,0.1,0.1,0.1,0.1C308.8,120,308.7,120.1,308.6,120.1L308.6,120.1z"/>
	</g>
	<g>
		<path fill="#797A7D" d="M393.4,117.4c-2.3-0.9-4.3-1.8-6.3-2.7c-2-0.9-3.8-1.6-5.7-2.3c-1.9-0.6-3.7-1.1-5.7-1.3
			c-2-0.2-4.1-0.2-6.5,0l-0.1,0c-0.1,0-0.1-0.1-0.2-0.1c0-0.1,0-0.1,0.1-0.1c2-1.2,4.2-2,6.5-2.1c2.3-0.2,4.6,0.1,6.8,0.8
			c2.2,0.8,4.2,1.8,6.1,3.1c1.9,1.3,3.6,2.8,5.1,4.5c0.1,0.1,0,0.1,0,0.2C393.5,117.4,393.5,117.4,393.4,117.4L393.4,117.4z"/>
	</g>
	<g>
		<path fill="#CE5C45" d="M238,254.2c-1,1.8-1.9,3.5-2.9,5.1c-0.1,0.2-0.3,0.3-0.5,0.4c-0.2,0.1-0.4,0.3-0.5,0.4l-1,0.8
			c-0.7,0.5-1.4,1.1-2,1.7c-2.7,2.3-5.3,4.7-7.8,7.3c-2.5,2.6-4.9,5.2-7.1,7.9c-1.2,1.3-2.2,2.8-3.3,4.2c-1.7,0.9-3.3,2-5.2,2.8
			c0.3-2,0.7-4,1.2-5.9c1.1-1.4,2.2-2.9,3.5-4.3c2.3-2.9,4.8-5.6,7.4-8.2c2.6-2.6,5.3-5.2,8.1-7.6c1.4-1.2,2.9-2.4,4.3-3.5
			c1-0.3,1.9-0.5,2.9-0.7C236,254.4,237,254.2,238,254.2z"/>
	</g>
	
		<linearGradient id="SVGID_3_" gradientUnits="userSpaceOnUse" x1="982.484" y1="-3137.7837" x2="1064.5906" y2="-3137.7837" gradientTransform="matrix(0.6522 0.8261 0.7849 -0.6197 2078.6238 -2518.4517)">
		<stop  offset="0" style="stop-color:#BEC0C2"/>
		<stop  offset="1" style="stop-color:#B1B3B6"/>
	</linearGradient>
	<path fill="url(#SVGID_3_)" d="M239.6,251l51.9,69.1l15-14.1c8-7.5,10.9-19,7.3-29.3l-1.6-4.7c-1-2.9-2.5-5.6-4.4-8.1l-15.4-19.5
		c-3.3-4.1-7.7-7.3-12.7-9h0c-8.9-3-18.9-1.3-26.3,4.6L239.6,251z"/>
	<path fill="#797A7D" d="M301.3,189c0,0,16.1-12.7,33.9-2.3l4.5,4.7h-38.4V189z"/>
	<path fill="#FFFFFF" d="M376.3,146.3c5,0.4,19.6,0.9,28.9-4.9c0.9-0.6,2.1,0.5,1.6,1.5c-2.9,5.5-10,15-25.9,17.4
		c-0.5,0.1-1-0.2-1.2-0.7l-4.5-11.8C374.9,147.1,375.5,146.3,376.3,146.3z"/>
	
		<linearGradient id="SVGID_4_" gradientUnits="userSpaceOnUse" x1="-970.0014" y1="569.8487" x2="-1190.783" y2="569.8487" gradientTransform="matrix(1.635437e-002 -0.9999 0.9999 1.635437e-002 -162.2324 -824.3297)">
		<stop  offset="0" style="stop-color:#C7C8CA"/>
		<stop  offset="1" style="stop-color:#B1B3B6"/>
	</linearGradient>
	<path fill="url(#SVGID_4_)" d="M363.8,130.5c4.4,2.3,8.2,5.5,11.5,9.3c2.7,3.1,7.3,5.2,10.3,8c28.2,26.5,60,48.8,74.6,86.4
		c12.8,33,8.7,71.9-10.1,101.8s-51.7,50.5-86.8,54.7c-15.1,1.8-30.6,0.8-45,5.7c-1.4,0.5-2.8,0.6-4.3,0.3c-4.9-1.2-4.5-6.6-2.5-10.1
		c1.6-2.9,4.1-5.4,4.7-8.7c0.8-4.2-1.8-8.2-3.1-12.3c-1.6-4.9-0.2-12.3,6.6-10.9c1,0.2,1.9,0.6,2.8,1.2c12.2,7.7,27.8,6.8,41.6,3.1
		c16.8-4.5,32.8-13.1,44.5-26s18.7-30.4,17.4-47.7c-1.9-23.2-18-42.9-36.1-57.5c-18.1-14.6-38.9-25.8-55.9-41.7
		c-7.6-7.1-14.6-15.5-16.3-25.8c-1.9-12.1,4.7-24.8,15.2-30.8c4.5-2.6,9.9-4.4,15.2-4.4C354.1,124.9,358.5,127.7,363.8,130.5z"/>
	<path fill="#A9ABAE" d="M352.1,161.6c3.1-4.7,10.3-13.8,23.2-20c1-0.5,0.6-1.9-0.5-1.8c-8,0.5-23.4,3.8-24.5,21.2
		C350.2,161.9,351.5,162.4,352.1,161.6z"/>
	<path fill="#A9ABAE" d="M364.6,172.9c3-4.7,10.2-13.7,23-19.8c1-0.5,0.6-1.9-0.5-1.8c-8,0.5-23.3,3.8-24.3,21
		C362.8,173.3,364.1,173.8,364.6,172.9z"/>
	<path fill="#A9ABAE" d="M376.8,184.8c3-4.7,10.2-13.7,23-19.8c1-0.5,0.6-1.9-0.5-1.8c-8,0.5-23.3,3.8-24.3,21
		C375,185.2,376.3,185.6,376.8,184.8z"/>
	<path fill="#FFFFFF" d="M313.1,160.2c5.1,0.4,19.8,0.8,29.1-5.1c1-0.6,2.1,0.5,1.6,1.5c-2.9,5.6-10,15.1-26,17.7
		c-0.5,0.1-1-0.2-1.2-0.7l-4.6-11.8C311.7,161,312.3,160.2,313.1,160.2z"/>
	<path fill="#E38A81" d="M966.8,534.7l-24.2-10.9c-6.8-3.1-5.2-10.9,2.6-12.2l18-3c7.8-1.3,9.5-9.1,2.7-12.2l-35.5-16.2
		c-5.9-2.7-5.6-9.3,0.6-11.6l21.2-8c6.3-2.4,6.5-9.1,0.3-11.8l-28-11.8c-5.9-2.5-6-8.9-0.3-11.5l23.1-10.6c5.7-2.6,5.7-8.9-0.2-11.5
		l-22.3-9.7c-5.3-2.3-5.9-7.9-1.2-10.9l42.2-26.5c6.3-4,2.6-11.8-5.7-11.8h-50.5h-4.7h-839H52.4H43c-8.4,0-12.1,8-5.5,11.9l6.6,3.9
		c5.6,3.4,3.9,10.1-3,11.6l-4.5,1c-6.9,1.5-8.7,8.3-3,11.6c5.7,3.4,3.8,10.3-3.2,11.7l-23.9,4.8c-7.5,1.5-9,9.1-2.3,12.1L28.5,424
		c6.8,3.1,5.2,10.9-2.6,12.2l-18,3c-7.8,1.3-9.5,9.1-2.7,12.2l35.5,16.2c5.9,2.7,5.6,9.3-0.6,11.6l-21.2,8
		c-6.3,2.4-6.5,9.1-0.3,11.8l28,11.8c5.9,2.5,6,8.9,0.3,11.5L23.7,533c-5.7,2.6-5.7,8.9,0.2,11.5l22.3,9.7c5.3,2.3,5.9,7.9,1.2,10.9
		L5.1,591.6c-6.3,4-2.6,11.8,5.7,11.8h41.6h13.7h839h4.7h18.3c8.4,0,12.1-8,5.5-11.9l-6.6-3.9c-5.6-3.4-3.9-10.1,3-11.6l4.5-1
		c6.9-1.5,8.7-8.3,3-11.6c-5.7-3.4-3.8-10.3,3.2-11.7l23.9-4.8C972.1,545.3,973.5,537.7,966.8,534.7z"/>
	<path fill="#D97F7A" d="M40.6,438.3c71-0.6,142-0.9,213-1.1c70.8-0.2,141.6-0.1,212.3,0.1c40,0.1-2.6,0.4,37.4,0.6
		c8.9,0.1,4.1-7.6-2.4-7.7c-71.2-0.5-59.8-0.8-131-0.9c-71.3-0.1-142.6,0.1-213.9,0.4c-40.3,0.2-80.6,0.5-120.9,0.8
		c-3.2,0-4.2,2.4-3,4.3C33.6,437.3,37.4,438.3,40.6,438.3L40.6,438.3z"/>
	<path fill="#D97F7A" d="M317.3,477.1c111,5.1,222.3,7.3,333.5,6.4c31.3-0.2,235.3-0.7,266.6-1.5c8.4-0.2,6.6-10.1-1-9.9
		c-111.2,2.6-395.3,2.1-506.4-1.3c-31.2-1-62.5-2.2-93.7-3.6C308,466.8,309.8,476.8,317.3,477.1L317.3,477.1z"/>
	<path fill="#D97F7A" d="M481.4,509.9c72.5-1.4,317.9-1.7,390.5-0.7c20.4,0.3,40.8,0.7,61.2,1.1c8.4,0.2,8.8-9.1,0.1-9.3
		c-72.5-1.7-317.9-2.2-390.5-1.4c-20.4,0.2-40.8,0.5-61.2,0.9C473.1,500.8,472.6,510.1,481.4,509.9L481.4,509.9z"/>
	<path fill="#D97F7A" d="M159,529c97.3,3.2,194.5,6.3,291.8,9.5c27.6,0.9,55.2,1.8,82.8,2.7c3.3,0.1,7.1-1.2,7.7-3.9
		c0.6-2.5-2.5-4.6-5.7-4.7c-97.3-3.2-194.5-6.3-291.8-9.5c-27.6-0.9-55.2-1.8-82.8-2.7c-3.3-0.1-7.1,1.2-7.7,3.9
		C152.7,526.8,155.8,528.8,159,529L159,529z"/>
	<path fill="#D97F7A" d="M295.3,397c72.9-1.6,145.9-2.2,218.8-2c36.6,0.1,73.2,0.5,109.8,1.1c35.8,0.6,71.7,1.6,107.6,1.8
		c40.5,0.2,81.1-0.8,121.3-4.8c2.2-0.2,8.9-1.4,9.4-3.5c0.5-2.3-5-1.6-6.5-1.4c-70.9,7-142.7,4-214,2.8c-72.3-1.2-144.5-1.5-216.8-1
		c-40.9,0.3-81.8,0.9-122.7,1.8c-3.2,0.1-8.7,0.9-10.7,3C289.2,396.8,293.3,397,295.3,397L295.3,397z"/>
	<path fill="#B1B3B6" d="M597.6,232.1c-0.1,0.1-0.3,0.2-0.4,0.3c-2.3,1.3-22.5,13.1-35.1,24.8c-6,5.5-14.9,6.1-21.7,1.6
		c-0.3-0.2-0.5-0.4-0.8-0.6l-21.6-19.5c-10.1-9.1-25.7-8.7-35.3,1l-17.6,17.8c-8.3,8.3-9.8,21.3-3.6,31.3
		c15.1,24.4,50.5,64.5,120.7,64.5h121.3c0,0-12.4,24.8-10.8,43.7c1.5,17.4,21.7,15.7,24.7,15.3c0.3,0,0.5,0,0.8,0h18.5
		c0.7,0,1.4-0.1,2-0.3c1.9-0.6,6.2-2.2,12.5-6.3c8.6-5.6,81.4-26.6,89-69s-26.6-121.3-82.2-149C703.8,160.6,602.8,228.6,597.6,232.1
		z"/>
	<path fill="#F5C15D" d="M567.9,252.2l67.3,101h68.3l20.6-19l100.8-73.5c0,0-28.6-64.4-76.3-78.5l-135,30.4L567.9,252.2z"/>
	<g>
		<path fill="#797A7D" d="M527.9,259.1c-1,2.9-2.6,5.7-4.5,8.1c-0.9,1.3-2,2.4-3,3.6c-0.5,0.6-1.1,1.1-1.7,1.6
			c-0.6,0.5-1.2,1-1.8,1.5c-0.6,0.5-1.2,1-1.9,1.4c-0.6,0.4-1.2,0.9-1.9,1.3c-1.3,0.8-2.7,1.6-4.1,2.2c-2.8,1.4-5.8,2.3-8.8,2.8
			c2.7-1.5,5.4-2.9,7.9-4.5c2.5-1.6,5-3.3,7.3-5.2c2.3-1.8,4.5-3.9,6.6-6C524,263.8,526,261.6,527.9,259.1z"/>
	</g>
	<path fill="#2F8F6D" d="M603.9,253.6c0,0,8.6,23.6,47.3,35c38,11.2,111.3,9.9,154.6-60.5l-10.2-13L603.9,253.6z"/>
	<path fill="#9CA1A5" d="M763.6,176.9l32.1,38.3c0,0-76.6,107.6-191.8,29.5L763.6,176.9z"/>
	
		<linearGradient id="SVGID_5_" gradientUnits="userSpaceOnUse" x1="913.3428" y1="-217.8531" x2="970.2905" y2="-138.6819" gradientTransform="matrix(0.9918 -0.1276 0.1276 0.9918 -183.618 530.792)">
		<stop  offset="0" style="stop-color:#C0C2C4"/>
		<stop  offset="1" style="stop-color:#B1B3B6"/>
	</linearGradient>
	<path fill="url(#SVGID_5_)" d="M780.1,141.2c-0.8-3.7-1.9-7.4-3.2-11c-5.2-14.1-14-27.6-25-37.9c-1.3-1.2-2.7-2.4-4.2-3.6l0,0
		c-3.5-2.7-7.3-5.5-10.7-8.5c-2.6-1.7-5.3-3.4-8.1-4.9l-1.7-20c-0.6-7.1-2.9-13.9-6.7-19.8l-15.7-24.6c-1.7-5.6-6.5-9.8-12.3-10.6
		c-8.1-1.1-15.7,4.5-16.9,12.6c-2.3,15.8,6.3,27.8,12.8,34.4c3.9,3.9,6.7,8.8,8.1,14.1c-8-2.7-13.5-4.1-13.5-4.1
		c-14.6-1-24.5,1.2-24.5,1.2c-12.4,1.3-24.6,5.1-36,11.7c-16.8,9.8-30.7,25.1-39.7,42.3c-10.5,20.1-23.6,39.7-40.2,55.3
		c-1.7,1.6-3.3,3.5-4.7,5.5c-10.3,0.6-16.7,11.6-16.2,21.9c0.2,4.5,1.8,7.8,4.2,10.2c3.2,3.3,5.7,7.1,7,11.5
		c2.8,9.5,8.1,18.3,15.2,25.3c16.7,16.4,44.5,24.9,67.5,25.6c15.4,0.5,30.8-1.4,45.8-4.3c14.3-2.8,28.5-6.5,42.4-10.9
		C805.4,220.3,780.1,141.2,780.1,141.2z"/>
	<g>
		<path fill="#797A7D" d="M550.5,186.4c1.6,0.6,2.9,1.6,4,3c1.1,1.3,1.8,3,2.2,4.7c0.5,1.7,0.7,3.5,0.3,5.2
			c-0.2,0.8-0.5,1.7-0.8,2.4c-0.4,0.8-0.8,1.5-1.4,2.2c0,0.1-0.1,0.1-0.2,0c0,0,0-0.1,0-0.1l0,0c-0.1-0.9-0.1-1.7-0.1-2.5
			c0-0.8,0-1.6,0-2.3c0-0.4,0-0.8,0-1.1c0-0.4,0.1-0.8,0.1-1.1l0.1-1.1l-0.1-1.1c-0.2-1.5-0.6-3-1.3-4.3c-0.7-1.3-1.8-2.6-3.1-3.4
			l0,0c-0.1,0-0.1-0.1,0-0.2C550.4,186.4,550.4,186.4,550.5,186.4z"/>
	</g>
	<circle fill="#9A9FA3" cx="595.7" cy="162.1" r="12.3"/>
	<circle fill="#6B6C6F" cx="595.7" cy="162.1" r="7.8"/>
	<path fill="#FFFFFF" d="M563.5,144.1l-72-61.9c-2.3-2.2-6.5-0.1-5.8,2.9c4,18.3,28.4,65.2,52.5,89C538.1,174,546,164.8,563.5,144.1
		z"/>
	<path fill="none" d="M737.2,81.1c3.4,3,7.3,5.7,10.7,8.5C744.8,86.5,741.1,83.7,737.2,81.1z"/>
	<polygon fill="#91929D" points="748,89.5 748,89.5 748,89.5 	"/>
	<path fill="#797A7D" d="M534,221.4c0,0,29.8-8.6,45.5-20.3c1.3-1,3.1,0.2,2.6,1.8c-2.5,9.1-10.8,28.6-36.2,37.2
		C546,240.1,535.9,231.6,534,221.4z"/>
	<rect x="662.2" y="287.5" fill="#2F8F6D" width="24.6" height="65.7"/>
	<path fill="#808285" d="M532.2,203.2c-0.1-0.7,0.3-1.6,1.4-2.6c1.8-1.7,7.2-3.5,8.1,0.9c0.7,3.2-0.5,4.6-2.8,4.8
		C536.8,206.4,532.5,205.4,532.2,203.2z"/>
</g>
<g>
</g>
<g>
</g>
<g>
</g>
<g>
</g>
<g>
</g>
<g>
</g>
<g>
</g>
<g>
</g>
<g>
</g>
<g>
</g>
<g>
</g>
<g>
</g>
<g>
</g>
<g>
</g>
<g>
</g>
</svg>
