<?xml version="1.0" encoding="utf-8"?>
<!-- Generator: Adobe Illustrator 18.0.0, SVG Export Plug-In . SVG Version: 6.00 Build 0)  -->
<!DOCTYPE svg PUBLIC "-//W3C//DTD SVG 1.1//EN" "http://www.w3.org/Graphics/SVG/1.1/DTD/svg11.dtd">
<svg version="1.1" id="Layer_1" xmlns="http://www.w3.org/2000/svg" xmlns:xlink="http://www.w3.org/1999/xlink" x="0px" y="0px"
	 viewBox="0 0 1354.1 641.6" enable-background="new 0 0 1354.1 641.6" xml:space="preserve">
<g>
	<polygon fill="#FCCEB8" points="0,405.6 1354.1,402.5 1306.1,548.7 489.9,641.6 130.6,551.3 	"/>
	<path fill="#F8A79E" d="M110.3,439.7c24-1.8,48-2,72-0.8c2.7,0.1,7.5-3.8,2.7-4.1c-24.6-1.3-49.2-1-73.8,0.8
		C107.8,436,105.5,440.1,110.3,439.7L110.3,439.7z"/>
	<path fill="#F8A79E" d="M109.3,460.8c15-0.2,30.1,0,45.1,0.5c1.5,0.1,3.8-0.3,5-1.3c0.8-0.8,1.2-1.6-0.4-1.7
		c-15.5-0.6-31.1-0.7-46.6-0.5C110.3,457.8,104.7,460.8,109.3,460.8L109.3,460.8z"/>
	<path fill="#F8A79E" d="M129.3,485.8c50.1,0.6,100.2,1.2,150.2,1.8c1.3,0,4.1-0.5,4.7-1.9c0.6-1.4-0.5-2-1.9-2
		c-50.1-0.6-100.2-1.2-150.2-1.8c-1.3,0-4.1,0.5-4.7,1.9C126.9,485.2,127.9,485.8,129.3,485.8L129.3,485.8z"/>
	<g>
		<g>
			<path fill="#F8CFA5" d="M1013.5,439.9c23.9-1.8,47.9-2,71.8-0.7c3.3,0.2,9.2-4.7,3.4-5c-24.7-1.3-49.4-1-74,0.9
				C1010.4,435.4,1007.5,440.4,1013.5,439.9L1013.5,439.9z"/>
		</g>
	</g>
	<g>
		<g>
			<path fill="#F8CFA5" d="M1012.3,460.9c15-0.2,29.9,0,44.9,0.5c2.1,0.1,4.4-0.5,6.1-1.6c1.4-0.9,1.2-2-0.5-2
				c-15.6-0.6-31.2-0.7-46.8-0.5C1013.6,457.3,1006.5,461,1012.3,460.9L1012.3,460.9z"/>
		</g>
	</g>
	<g>
		<g>
			<path fill="#F8CFA5" d="M1032.3,486c50.1,0.6,100.2,1.2,150.2,1.8c1.9,0,4.6-0.7,5.7-2.4c1.2-1.7-1-2.5-2.3-2.5
				c-50.1-0.6-100.2-1.2-150.2-1.8c-1.9,0-4.6,0.7-5.7,2.4C1028.8,485.2,1031,486,1032.3,486L1032.3,486z"/>
		</g>
	</g>
	<g>
		<g>
			<path fill="#A3A5A8" d="M1026.2,339.6c6.4,1.1,13,1.1,19.5,1.5c0.7,0,3.4-1.2,1.8-1.3c-6.5-0.3-13.1-0.4-19.5-1.5
				C1027.3,338.2,1024.7,339.4,1026.2,339.6L1026.2,339.6z"/>
		</g>
	</g>
	<g>
		<g>
			<path fill="#A3A5A8" d="M1026.6,358.2c1.3,4.5,2.7,9,4,13.5c0.3,0.9,3.1,0.1,2.9-0.8c-1.3-4.5-2.7-9-4-13.5
				C1029.2,356.5,1026.4,357.3,1026.6,358.2L1026.6,358.2z"/>
		</g>
	</g>
	<g>
		<path fill="#8F9194" d="M383.3,323.5l-9.5,66.6c0,12.1,7.9,22.9,19.4,26.6l57.6,8.8c11.7,3.7,24.4-0.6,31.4-10.6l42-60
			L383.3,323.5z"/>
		
			<linearGradient id="SVGID_1_" gradientUnits="userSpaceOnUse" x1="428.262" y1="324.0636" x2="659.261" y2="324.0636" gradientTransform="matrix(1.0445 -7.181775e-002 6.859801e-002 0.9976 -84.9008 78.7496)">
			<stop  offset="0" style="stop-color:#B6B8BA"/>
			<stop  offset="1" style="stop-color:#A9ABAE"/>
		</linearGradient>
		<path fill="url(#SVGID_1_)" d="M621.9,296.3l-239.8,37c0,0,2.8,23.3,49.6,41.3c9.8,3.8,31.8,7.6,49.2,6l7.5,21.2
			c5.1,12.2,17.8,19.8,31.5,18.9l74.4-6.1c13.9-1,25.5-10.4,28.7-23.3l-2.5-77.8C622,308,622.5,302.4,621.9,296.3z"/>
		<polygon fill="#E07E46" points="334.5,224.8 391,209.4 389.2,263 393.5,284.5 355.5,296 		"/>
		<path fill="#E78E49" d="M540.8,162c7.7-2,19.7,2.3,24.3,7.4c24.9,27.5,47.9,72.2,53.7,107.9c2.1,13.2,9,19.4-2.5,24.9
			c-6.4,3.1-17.8,5.1-24.7,6.7c-48.7,11.6-98.1,22.9-147.9,28c-3.4,0.4-61.1,0.6-61.6-3.7c-4.2-34.6-6.5-90.7,9-123.9
			c7.8-16.7,30-9.9,49-12.4C440,197,540.7,162,540.8,162z"/>
		<path fill="#E78E49" d="M524.2,249.4c0,0,0.7,19.9-46.5,70.3l-52-55.1l32.8-41.5L524.2,249.4z"/>
		<path fill="#E57B41" d="M430.7,250.7l26.8-31c0.9-1,2-0.9,1.2,0.1l-25,32.4L430.7,250.7z"/>
		<g>
			<circle fill="#8A6252" cx="234.2" cy="309.1" r="146.3"/>
			<path fill="#7C5849" d="M174.6,230.7c-0.5-2.2-1.2-17.9-1.5-25.5c-0.1-2.6,0.5-5.2,1.7-7.4l6.7-12.4h0c0.9-2.1,4.1-1.5,4.2,0.8
				l0.4,6.8c0,0.2,0,0.5-0.1,0.7l-2.1,7.5c-0.6,2.2-0.7,4.6-0.3,6.8l4.5,21.9L174.6,230.7z"/>
			<path fill="#7C5849" d="M135.4,208.5c-0.3-1.4-0.7-11.3-0.9-16.1c-0.1-1.6,0.3-3.3,1.1-4.7l4.2-7.8l0,0c0.6-1.3,2.6-1,2.7,0.5
				l0.2,4.3c0,0.2,0,0.3,0,0.5l-1.3,4.8c-0.4,1.4-0.5,2.9-0.2,4.3L144,208L135.4,208.5z"/>
			<path fill="#7C5849" d="M249.6,187.2c0.6-1,5.6-7.8,8-11c0.8-1.1,1.8-2.1,2.7-2.9l5.2-4.2l0,0c0.8-0.7,1.2,0,0.5,1l-2.2,2.9
				c-0.1,0.1-0.2,0.2-0.2,0.3l-2.8,2.8c-0.8,0.8-1.6,1.8-2.3,2.9l-6.4,10L249.6,187.2z"/>
			<path fill="#7C5849" d="M279.1,208.2c1.5-1.6,14.4-10.8,20.5-15.1c2.1-1.5,4.6-2.4,7.2-2.6l14-1.2l0,0c2.3-0.4,3.5,2.6,1.6,3.9
				l-5.5,4c-0.2,0.1-0.4,0.3-0.6,0.3l-7.5,2.3c-2.2,0.7-4.2,1.9-5.9,3.5l-15.9,15.7L279.1,208.2z"/>
			<path fill="#7C5849" d="M208.2,262.1c1.2-1.3,11.3-8.5,16.2-11.9c1.7-1.2,3.6-1.9,5.7-2.1l11.1-0.9h0c1.8-0.3,2.8,2,1.3,3.1
				l-4.3,3.2c-0.2,0.1-0.3,0.2-0.5,0.3l-5.9,1.8c-1.7,0.5-3.3,1.5-4.6,2.8l-12.5,12.4L208.2,262.1z"/>
			<path fill="#7C5849" d="M131.4,257.4c-0.6,2.7-1.8,5.2-3.7,7.2c-2,2.1,1.7,2.5,3.1,2.4c2.8-0.2,6.7-1,8.7-3.2
				c2.3-2.5,3.9-5.3,4.7-8.6c0.5-2.4-4.1-1.7-5.3-1.5c-1.7,0.3-3.4,0.8-5,1.6C133.2,255.7,131.6,256.4,131.4,257.4L131.4,257.4z"/>
			<path fill="#7C5849" d="M134.3,285.5c2.5,5.1,4.4,10.3,5.8,15.8c1,3.7,14,0.2,13.1-3.5c-1.4-5.5-3.4-10.7-5.8-15.8
				C145.6,278.2,132.9,282.6,134.3,285.5L134.3,285.5z"/>
			<path fill="#7C5849" d="M158.9,280c1.9,1,3.8,2,5.7,3c1.3,0.7,3.6,0.5,5,0.2c1.5-0.4,3.3-1.3,4.2-2.6c0.8-1.1,1.5-2.5,1-3.9
				c-0.5-1.5-1.5-2.2-2.8-2.8c-1.9-1-3.8-2-5.7-3c-1.3-0.7-3.6-0.5-5-0.2c-1.5,0.4-3.3,1.3-4.2,2.6c-0.8,1.1-1.5,2.5-1,3.9
				C156.5,278.6,157.5,279.3,158.9,280L158.9,280z"/>
			<path fill="#7C5849" d="M137.1,362.1c7.1,11.8,15.8,22.5,25.9,31.9c2.4,2.2,14-2.8,12.4-4.3c-9.8-9.2-18.2-19.6-25.2-31.1
				C148.4,355.6,136.2,360.6,137.1,362.1L137.1,362.1z"/>
			<path fill="#7C5849" d="M233,305.2c3.1,2.3,6.2,4.6,9.3,6.9c2.2,1.6,6.3,0.5,8.5-0.4c0.9-0.4,5.9-2.7,3.7-4.3
				c-3.1-2.3-6.2-4.6-9.3-6.9c-2.2-1.6-6.3-0.5-8.5,0.4C235.8,301.3,230.9,303.6,233,305.2L233,305.2z"/>
			<g>
				<g>
					<path fill="none" stroke="#BFA89F" stroke-miterlimit="10" d="M208.7,347.8"/>
				</g>
			</g>
			<g>
				<g>
					<path fill="none" stroke="#BFA89F" stroke-miterlimit="10" d="M233.3,341.4"/>
				</g>
			</g>
			<circle fill="#7C5849" cx="116.1" cy="286" r="7.4"/>
			<circle fill="#7C5849" cx="105.3" cy="306.6" r="7.4"/>
			<circle fill="#7C5849" cx="124.6" cy="305.5" r="4.7"/>
			<circle fill="#7C5849" cx="201.4" cy="359" r="7.4"/>
			<circle fill="#7C5849" cx="190.6" cy="379.6" r="7.4"/>
			<circle fill="#7C5849" cx="209.9" cy="378.5" r="4.7"/>
		</g>
		
			<linearGradient id="SVGID_2_" gradientUnits="userSpaceOnUse" x1="-7779.0752" y1="627.2651" x2="-7707.1138" y2="627.2651" gradientTransform="matrix(0.5437 0.9012 -0.8562 0.5166 5174.0244 6953.499)">
			<stop  offset="0" style="stop-color:#BEC0C2"/>
			<stop  offset="1" style="stop-color:#B1B3B6"/>
		</linearGradient>
		<path fill="url(#SVGID_2_)" d="M423.7,257l40.7,63.9l-16.2,7.9c-8.6,4.2-18.9,3.1-26.3-3l-3.4-2.8c-2.1-1.7-3.9-3.8-5.3-6.1
			L402,298.4c-2.4-4-3.6-8.5-3.4-13.2l0,0c0.3-8.3,4.7-15.9,11.9-20.2L423.7,257z"/>
		<path fill="#E57B41" d="M549.2,230.4c0.4,1.3,0.6,2.7,0.8,4c0.1,0.7,0.1,1.4,0.2,2c0.1,0.7,0.1,1.4,0.1,2c0.1,2.7-0.1,5.5-0.4,8.2
			c-0.8,5.4-2.3,10.8-4.6,15.9c-2.2,5.1-5.1,9.9-8.3,14.3c-3.3,4.4-7,8.5-11,12.4c-2.1,1.8-4.1,3.7-6.2,5.4
			c-1.1,0.8-2.1,1.7-3.2,2.6c-1.1,0.8-2.2,1.6-3.3,2.4c-0.6,0.4-1.1,0.8-1.7,1.2l-1.7,1.1l-3.4,2.2c-2.3,1.4-4.7,2.7-7.1,4l-3.6,1.8
			c-1.2,0.6-2.4,1.3-3.7,1.8l-3.7,1.6c-1.2,0.5-2.5,1.1-3.7,1.6c-2.5,0.9-5.1,1.9-7.6,2.8l-3.8,1.3l-3.9,1.2l-0.1-0.3
			c9.9-4,19.7-8.5,28.9-13.9c9.3-5.4,18-11.7,25.8-18.9c7.7-7.4,14.6-15.8,19.2-25.4c2.3-4.8,4.1-9.9,5.2-15.1
			c0.5-2.6,0.9-5.3,1-7.9c0.1-2.7,0.1-5.4-0.3-8L549.2,230.4z"/>
		<path fill="#A9ABAE" d="M291.3,137.9c-0.7-3.4-3-10.2-9.4-16.5c-0.5-0.5,0.1-1.2,0.7-1c4.8,2,13.4,7.2,9.9,17.5
			C292.4,138.5,291.5,138.5,291.3,137.9z"/>
		<path fill="#D1504A" d="M386.9,221.5l8.3,12.7c6.1,9.4,18.5,12.3,28.2,6.8l40.9-23.5L386.9,221.5z"/>
		
			<linearGradient id="SVGID_3_" gradientUnits="userSpaceOnUse" x1="-6989.0264" y1="874.9957" x2="-7044.2451" y2="1024.3373" gradientTransform="matrix(0.9916 -0.1294 0.1294 0.9916 7253.3682 -1670.6764)">
			<stop  offset="0" style="stop-color:#BEC0C2"/>
			<stop  offset="1" style="stop-color:#A9ABAE"/>
		</linearGradient>
		<path fill="url(#SVGID_3_)" d="M532.8,179.2c-37.7,35.8-86.5,52.1-138.2,43.1c-10.7-1.9-21.6-4-31.6-8.1
			c-27.7-11.4-29.2-33.4-29.1-60.1c0.1-17-5.2-29.6-7.5-46.3c-4.8-33.9,12.1-69.1,39-89.4C398.1-6.5,440.7-1.3,478.5,6.1"/>
		<path fill="#A9ABAE" d="M365.8,111.7c-1.2,6,2.6,11.8,8.5,13s11.7-2.6,13-8.6c1.2-6-2.6-11.8-8.5-13
			C372.8,101.9,367,105.8,365.8,111.7z"/>
		<path fill="#656668" d="M369,114.5c0.3,3.7,3.5,6.5,7.2,6.2c3.7-0.3,6.5-3.5,6.2-7.3c-0.3-3.7-3.5-6.5-7.2-6.2
			S368.7,110.8,369,114.5z"/>
		
			<linearGradient id="SVGID_4_" gradientUnits="userSpaceOnUse" x1="-7363.6416" y1="859.6577" x2="-7363.6416" y2="903.4985" gradientTransform="matrix(0.9959 9.021030e-002 -9.021030e-002 0.9959 7957.2944 -28.2073)">
			<stop  offset="0" style="stop-color:#BEC0C2"/>
			<stop  offset="1" style="stop-color:#A9ABAE"/>
		</linearGradient>
		<path fill="url(#SVGID_4_)" d="M471.7,5.4l81.8,12.2c28.2,3.7,53.6,18.3,69.4,39.8l0,0c22.5,30.6,22.3,70.1-0.7,99.6l-10.4,13.3
			c-24.6,31.7-69.8,44.8-111.2,32.2l-31.2-7.5"/>
		<path fill="#9B9DA0" d="M493.7,178.2L493.7,178.2c31.2,10.9,66.2,2.2,86.3-21.3l8.4-9.9c20.2-23.7,20.5-57.1-0.2-81.9
			C576.5,51,559,41.6,539.9,38.3l-46.6-8.1c-8-1.4-15.2,4-15.3,11.3l-0.3,115.8C477.7,166.5,484.1,174.9,493.7,178.2z"/>
		<g>
			<path fill="#797A7D" d="M368.3,92.9c1.1-0.8,2.3-1.1,3.4-1.3c1.2-0.2,2.4-0.1,3.6,0.2c1.2,0.3,2.3,0.8,3.3,1.5
				c1,0.7,1.9,1.7,2.3,2.9l0,0c0,0,0,0.1-0.1,0.1c0,0-0.1,0-0.1,0c-0.9-0.6-1.8-1.2-2.8-1.7c-1-0.4-2-0.8-3.1-1
				c-1.1-0.3-2.1-0.4-3.2-0.5c-1.1-0.1-2.2-0.1-3.3-0.1c-0.1,0-0.1,0-0.1-0.1C368.2,93,368.2,92.9,368.3,92.9L368.3,92.9z"/>
		</g>
		<path fill="#797A7D" d="M333.7,146.6c0,0,26.3,1.1,37.6-3.2c1.2-0.5,2.4,0.9,1.7,2.1c-9,15.7-23.5,18.4-39.1,17.3L333.7,146.6z"/>
		<g>
			<path fill="#797A7D" d="M374.7,137.3c-0.9,1.5-1.2,3.3-1.1,4.9c0.1,1.7,0.6,3.3,1.3,4.8c0.7,1.5,1.9,2.7,2.7,4.3
				c0.5,0.7,0.9,1.5,1.3,2.3c0.4,0.8,0.8,1.6,1.1,2.6l-0.2,0.2c-0.9-0.4-1.7-0.9-2.5-1.4c-0.8-0.6-1.4-1.2-2.1-1.9
				c-0.6-0.7-1.1-1.5-1.5-2.4c-0.3-0.9-0.7-1.8-1-2.7c-0.6-1.8-0.8-3.8-0.5-5.7c0.3-1.9,1.1-3.7,2.4-5L374.7,137.3z"/>
		</g>
		
			<linearGradient id="SVGID_5_" gradientUnits="userSpaceOnUse" x1="-5160.4678" y1="2692.4827" x2="-5348.4492" y2="2692.4827" gradientTransform="matrix(0.8748 0.4845 -0.4845 0.8748 6132.2671 305.9961)">
			<stop  offset="0" style="stop-color:#C4C6C8"/>
			<stop  offset="1" style="stop-color:#B1B3B6"/>
		</linearGradient>
		<path fill="url(#SVGID_5_)" d="M342.9,149.9c-3.9,2.7-8.5,3.8-12.8,5.6c-15.4,6.5-31.3,12.3-47.2,17.6
			c-15.3,5.1-31.2,8.8-47.4,8.4c-3-0.1-6-0.3-9-0.7c-29.9-3.6-57.5-22.2-72.5-48.3c-15-26.1-17.2-59.1-6.3-87.2
			c4.7-12,11.6-23.3,13.8-36.1c0.2-1.2,0.7-2.4,1.5-3.3c2.9-3.2,6.7-0.7,8.6,2.1c1.5,2.4,2.4,5.2,4.7,7c2.9,2.3,6.9,2,10.5,2.6
			c4.3,0.8,9.3,4.7,5.6,9.3c-0.5,0.7-1.3,1.2-2,1.6c-10.7,6.1-16.2,18.2-19,30c-3.3,14.4-3.3,29.9,1.7,43.8
			c5,13.9,15.3,26.2,28.9,32.1c18.2,7.9,39.4,3.7,57.7-4.1s39.2-23.3,58-29.8c8.3-2.9,15.3-2.9,23.6,0c9.9,3.4,14.7,16,15.1,26.3
			c0.1,4.4-0.7,9.2-2.8,13.2C350.9,144.8,347,147,342.9,149.9z"/>
		<path fill="#A9ABAE" d="M306.3,129.4c-0.6-3.4-2.6-10.3-8.9-16.8c-0.5-0.5,0.1-1.2,0.8-0.9c4.7,2.2,13.2,7.7,9.3,17.8
			C307.3,130,306.4,130,306.3,129.4z"/>
		<path fill="#A9ABAE" d="M296.8,134.7c-0.6-3.4-2.6-10.3-8.9-16.8c-0.5-0.5,0.1-1.2,0.8-0.9c4.7,2.2,13.2,7.7,9.3,17.8
			C297.8,135.4,296.9,135.4,296.8,134.7z"/>
		<path fill="#A9ABAE" d="M287.3,140.5c-0.6-3.4-2.6-10.3-8.9-16.8c-0.5-0.5,0.1-1.2,0.8-0.9c4.7,2.2,13.2,7.7,9.3,17.8
			C288.3,141.1,287.4,141.1,287.3,140.5z"/>
		<path fill="#FFFFFF" d="M354.6,123.6c-5.3,1.8-20.8,6.3-32.4,2.5c-1.2-0.4-2.1,1.1-1.3,2c4.6,5.1,14.8,13.4,32.5,11.7
			c0.6-0.1,1.1-0.5,1.1-1.1l1.6-13.9C356.3,124,355.5,123.3,354.6,123.6z"/>
		<g>
			<path fill="#58595B" d="M638.3,153c-2.1,13.5-14.3,22.7-27.4,20.4c-13-2.2-21.9-15-19.8-28.5c2.1-13.5,14.3-22.7,27.4-20.4
				S640.4,139.5,638.3,153z"/>
			<g>
				<path fill="#58595B" d="M712.8,447.1c0,0,45.6,35.2,62.4,41.8c13.6,5.4,25.5,14.1,30.8,28c0.1,0.2,0.1,0.3,0.2,0.5
					c3.3,8.2,14.4,9.1,19.6,1.6l47.6-69.4c6.3-9.2,4.9-21.2-3.3-26.7l-78-57.9L712.8,447.1z"/>
			</g>
			<g>
				<path fill="#58595B" d="M598.3,444.5c0,0-5.3,25.4-5,43.1c0.2,14.2-3.8,28-16.1,37.1c-0.1,0.1-0.3,0.2-0.4,0.3
					c-7.2,5.6-3.4,16.2,6.7,18.7l92.7,23.4c12.3,3.1,24.1-1.9,26.5-11.1l24.8-98.1L598.3,444.5z"/>
			</g>
			<path fill="#E15B55" d="M716.7,181.2l56.1,21.1c6.1,2.3,8,10,3.7,14.8l-10.8,12.2c-3.3,3.7-8.9,4.2-12.7,1.2l-40.7-32.1
				L716.7,181.2z"/>
			<path fill="#F1625B" d="M705.6,176.1l64.7-6.5c7-0.7,12.6,5.8,10.8,12.7l-4.6,17.1c-1.4,5.2-6.6,8.4-11.8,7.3l-55-11.6
				L705.6,176.1z"/>
			<path fill="#4F4F51" d="M659.8,342.3c-3.3-5.8-6.9-10.3-10.7-13.8l0-0.7c-0.7-0.4-1.5-0.8-2.2-1.2c-4.1-3.3-8.4-5.6-12.9-7.1
				c-2.4-1-4.9-1.9-7.4-2.7c-13.9-5.8-28.5-10.1-43.4-12.2c-18.8-2.7-34-3-50.4-14.2c-5.1-3.5-11.8-7.4-17.8-3.3
				c-9,6.2-13.8,17.1-19.9,25.8c-6.3,9.1-5.9,16.2-2.9,26.6c6,20.6,30.9,41,80.4,61.1c0.9,0.4,1.8,0.7,2.7,1.1
				c0.3,0.1,0.7,0.3,1,0.4c59.4,23.2,77.9-6.6,77.9-6.6C666.2,382.8,668.8,357.9,659.8,342.3z"/>
			<path fill="#58595B" d="M507.2,349.2L507.2,349.2c13.5,3.3,27.2-5,30.5-18.5l4-16.4c3.3-13.5-5-27.2-18.5-30.5l0,0
				c-13.5-3.3-27.2,5-30.5,18.5l-4,16.4C485.4,332.2,493.7,345.9,507.2,349.2z"/>
			<g>
				<path fill="#FFFFFF" d="M725.5,281.2c-1.5,2.1-3.5,3.7-5.9,4.6c-16.4,6.6-52.7,21.2-61.3,24.7c0-0.1,0-0.1,0-0.1
					c0,0-3.1,1.4-3.4,1.5c-0.3,0.1-3.4,1.4-3.4,1.4c0,0,0.1,0,0.1,0.1c-8.9,4-47.4,21.1-62.3,27.8c-3.9,1.7-22.5,3.4-23.3,7.4
					c-3,15.2,3.1,57.1,21.5,93.9c29.3,58.4,123.8,47.2,171.7,18.7c11-6.5,21.2-14.5,29.6-24c32.8-36.9,20.4-88.6-4.2-129
					c-11.9-19.4-34.6-40.4-49.9-57.4C729.4,244.9,730.1,274.6,725.5,281.2z"/>
			</g>
			<path fill="#4F4F51" d="M564.9,358.2c0,0,43.4,37.4,120,11.3c74.4-25.4,89.6-75.6,89.6-75.6l-45.8-57l-165.3,96.9L564.9,358.2z"
				/>
			
				<ellipse transform="matrix(0.8363 -0.5483 0.5483 0.8363 25.9107 392.3168)" fill="#58595B" cx="669.8" cy="152.8" rx="27.8" ry="28.9"/>
			<path fill="#FFFFFF" d="M538.1,306.5c-15.9-29.7-8-67.8,6.3-96.4c19.5-39,48.1-61.5,104.3-61.2c43.2,0.2,72.9,21.9,91.3,55.9
				c11.7,21.6,21.6,49.4,14.3,74.1c-12.4,42.1-62.5,58.9-100.9,65.9c-29.1,5.3-73.4,6.4-96.9-14.6
				C549.2,323.6,542.9,315.5,538.1,306.5z"/>
			<path fill="#58595B" d="M624.6,226.2c-9.9-9.2-23.5-15.6-35.7-14.5c-22.4,1.9-29.3,28.4-20.4,46c10.7,21,37.4,27.7,57.2,15.4
				c11-6.8,16.4-19.3,10.6-31.4C633.7,236.2,629.6,230.9,624.6,226.2z"/>
			
				<ellipse transform="matrix(-0.9676 0.2525 -0.2525 -0.9676 1197.5563 328.7953)" fill="#FFFFFF" cx="577.7" cy="241.2" rx="7.6" ry="7.8"/>
			<path fill="#58595B" d="M535.3,281.6c11.6,1.5,30.1,2.4,45.9-2.9c3.4-1.1,6,3,3.7,5.8c-9.4,11.4-36.6,20.7-52.4,3.5
				C530.1,285.5,531.8,281.2,535.3,281.6z"/>
			<path fill="#FFFFFF" d="M541.7,283.9c-2.2-0.4-3.7,2.2-2.2,3.9c1.1,1.3,3,2.4,6.3,2.9c6.5,1,13,1,16.8-2.1
				c1.8-1.5,0.6-4.4-1.7-4.2C556.2,284.8,548.7,285.1,541.7,283.9z"/>
			<path fill="#FFFFFF" d="M542.8,217.5c0,0-17.1,12.2-21.4,34.9l31.4-5.9L542.8,217.5z"/>
			<path fill="#58595B" d="M530.5,247.2l14.3,1.7c5.6,0.7,9.7,5.7,9,11.1l0,0.1c-0.4,3-2.1,5.7-4.7,7.3l-7.7,4.7
				c-4.1,2.5-9.4,1.9-12.8-1.4l-6.6-6.4c-2.2-2.2-3.3-5.2-3-8.2v0C519.8,250.4,524.9,246.5,530.5,247.2z"/>
			<path fill="#4F4F51" d="M756.1,271.4c0,0-57.6,53.1-85.3,57.1l47.9,7.9l41.2-46L756.1,271.4z"/>
			
				<ellipse transform="matrix(1 -7.829929e-003 7.829929e-003 1 -1.8712 4.5306)" fill="#58595B" cx="577.7" cy="241.2" rx="5.6" ry="5.8"/>
			<g>
				<path fill="#F1625B" d="M585.7,163.1c0,0-25.1,10.7-36.7,38.5l188.4-1.3c0,0-14.2-27.6-40.5-39.9L585.7,163.1z"/>
			</g>
			<polygon fill="#FFFFFF" points="663.4,174.7 665.7,168.7 669.1,174.1 675.5,174.4 671.4,179.3 673.1,185.4 667.2,183.1 
				661.8,186.6 662.3,180.2 657.2,176.3 			"/>
			<polygon fill="#FFFFFF" points="675.4,168.1 676,166.5 676.9,167.9 678.6,168 677.5,169.3 678,170.9 676.4,170.3 675,171.2 
				675.1,169.5 673.7,168.5 			"/>
			<polygon fill="#FFFFFF" points="682.1,173.3 682.7,171.7 683.6,173.2 685.3,173.2 684.2,174.5 684.7,176.2 683.1,175.5 
				681.7,176.5 681.8,174.8 680.5,173.7 			"/>
			<polygon fill="#FFFFFF" points="682.7,182.2 683.3,180.6 684.2,182 685.9,182.1 684.8,183.4 685.3,185 683.7,184.4 682.3,185.3 
				682.4,183.6 681,182.6 			"/>
			<polygon fill="#FFFFFF" points="676.6,187.1 677.2,185.5 678.1,186.9 679.8,187 678.7,188.3 679.2,189.9 677.6,189.3 
				676.2,190.2 676.3,188.5 675,187.5 			"/>
			<g>
				<circle fill="#976C5A" cx="416" cy="418.8" r="147.9"/>
				<path fill="#866050" d="M360.1,336.5c-0.4-2.2-0.2-18.2-0.1-25.8c0-2.6,0.8-5.2,2.2-7.4l7.4-12.2v0c1.1-2.1,4.2-1.3,4.2,1v6.9
					c0,0.2,0,0.5-0.1,0.7l-2.6,7.5c-0.8,2.2-1,4.6-0.6,6.9l3.3,22.3H360.1z"/>
				<path fill="#866050" d="M396.2,289.9c-0.3-1.4-0.1-11.5,0-16.3c0-1.7,0.5-3.3,1.4-4.7l4.7-7.7l0,0c0.7-1.3,2.7-0.8,2.7,0.6v4.4
					c0,0.2,0,0.3-0.1,0.5l-1.6,4.7c-0.5,1.4-0.6,2.9-0.4,4.4l2.1,14.1H396.2z"/>
				<path fill="#866050" d="M438.2,296.7c0.7-1,6.1-7.5,8.7-10.7c0.9-1.1,1.9-2,2.9-2.7l5.5-3.9l0,0c0.9-0.7,1.2,0.1,0.4,1l-2.3,2.9
					c-0.1,0.1-0.2,0.2-0.3,0.3l-3,2.7c-0.9,0.8-1.7,1.7-2.4,2.8l-7,9.7L438.2,296.7z"/>
				<path fill="#866050" d="M466.8,319.5c1.6-1.6,15.1-10.1,21.5-14.1c2.2-1.4,4.8-2.2,7.4-2.2l14.2-0.4l0,0
					c2.3-0.2,3.4,2.8,1.4,4.1l-5.8,3.8c-0.2,0.1-0.4,0.2-0.7,0.3l-7.7,1.9c-2.3,0.6-4.4,1.7-6.1,3.2l-16.9,15L466.8,319.5z"/>
				<path fill="#866050" d="M392.3,370c1.3-1.2,11.9-8,17-11.2c1.7-1.1,3.8-1.7,5.8-1.8l11.2-0.3l0,0c1.8-0.2,2.7,2.2,1.1,3.2
					l-4.6,3c-0.2,0.1-0.3,0.2-0.5,0.2l-6,1.5c-1.8,0.5-3.4,1.3-4.8,2.6l-13.3,11.8L392.3,370z"/>
				<g>
					<g>
						<path fill="#866050" d="M314.6,359.3c-0.4,1.3-0.9,2.6-1.5,3.8c-0.4,0.6-0.3,0.6,0.1,0c-0.2,0.3-0.4,0.6-0.6,0.8
							c-0.5,0.7-1.1,1.3-1.7,1.9c-2.5,2.5-1,6.2,1.9,7.3c3.7,1.4,7.6-0.1,10.2-2.7c2.5-2.5,4.5-5.7,5.5-9.1c0.4-1.5,0.7-2.8-0.3-4.1
							c-1-1.3-2.6-2-4.2-2.2c-1.9-0.3-4,0.1-5.7,1C317,356.5,315,357.8,314.6,359.3L314.6,359.3z"/>
					</g>
				</g>
				<g>
					<g>
						<path fill="#866050" d="M315.8,390.1c2.2,5.3,3.9,10.7,5,16.2c1.2,5.7,15.7,2,14.5-3.9c-1.1-5.6-2.8-11-5-16.2
							C328,380.6,313.7,385,315.8,390.1L315.8,390.1z"/>
					</g>
				</g>
				<g>
					<g>
						<path fill="#866050" d="M338.6,383.4c1.9,1.1,3.7,2.2,5.6,3.4c1.1,0.6,2.5,0.6,3.7,0.5c1.9-0.2,3.8-0.6,5.6-1.3
							c0.6-0.2,6.6-2.8,4.3-4.2c-1.9-1.1-3.7-2.2-5.6-3.4c-1.1-0.6-2.5-0.6-3.7-0.5c-1.9,0.2-3.8,0.6-5.6,1.3
							C342.4,379.5,336.3,382,338.6,383.4L338.6,383.4z"/>
					</g>
				</g>
				<g>
					<g>
						<path fill="#866050" d="M314.4,467.5c6.6,12.4,14.8,23.9,24.6,34c3.3,3.5,17.1-1.8,13.5-5.5c-9.3-9.7-17.2-20.5-23.6-32.4
							C326.4,458.9,312.4,463.8,314.4,467.5L314.4,467.5z"/>
					</g>
				</g>
				<g>
					<g>
						<path fill="#866050" d="M415.6,416.8c3,2.5,6,5,9,7.5c4.6,3.8,17.5-2.8,11.3-8c-3-2.5-6-5-9-7.5
							C422.3,405,409.4,411.7,415.6,416.8L415.6,416.8z"/>
					</g>
				</g>
				<g>
					<g>
						<path fill="#866050" d="M440.6,404.7c3.2,0,7.5-1.2,9.6-3.7c2.2-2.7-1.9-3.4-3.7-3.4c-3.2,0-7.5,1.2-9.6,3.7
							C434.7,404,438.8,404.7,440.6,404.7L440.6,404.7z"/>
					</g>
				</g>
				<g>
					<g>
						<path fill="none" stroke="#BFA89F" stroke-miterlimit="10" d="M388,456.5"/>
					</g>
				</g>
				<g>
					<g>
						<path fill="none" stroke="#BFA89F" stroke-miterlimit="10" d="M413.2,451.5"/>
					</g>
				</g>
				<circle fill="#866050" cx="298" cy="389.1" r="7.5"/>
				<circle fill="#866050" cx="285.9" cy="409.3" r="7.5"/>
				<circle fill="#866050" cx="305.5" cy="409.3" r="4.7"/>
				<circle fill="#866050" cx="380.1" cy="467.4" r="7.5"/>
				<circle fill="#866050" cx="368" cy="487.6" r="7.5"/>
				<circle fill="#866050" cx="387.6" cy="487.6" r="4.7"/>
			</g>
			<path fill="#58595B" d="M593.4,388.1l6.7,45.9l-20.6,3c-10.2,1.5-19.6-5.6-21.1-15.7l-4-27.5c-1.3-9,4.9-17.3,13.9-18.6l6.6-1
				C583.7,372.9,592.1,379.2,593.4,388.1z"/>
			<path fill="#58595B" d="M556.8,388.2c0,0,41.5,1.8,66.6-26.8c25.1-28.6,58.3-45,88.3-29c16.9,9,21.5,21,21,39.4
				c-2.1,71-104,75.2-150.7,73.2c-13-0.5-23.3-11-23.9-23.9C557.5,405.8,556.8,388.2,556.8,388.2z"/>
		</g>
	</g>
	<g>
		<path fill="#A3A5A8" d="M1065.4,373.8L1065.4,373.8c-5.9,21.7-24.9,37.3-47.3,38.8l-45.6,3.2l-2.8-48.7l19.2-2.8
			c10.9-1.6,21.1-6.4,29-14.1c2.7-2.7,6-5.4,9.7-7.8C1048.7,329,1074.8,350.5,1065.4,373.8z"/>
		<path fill="#DEDFE0" d="M980.2,415.2l-11.5,2.1c-5.6,1-11-2.8-11.7-8.5l-4.9-38.1c-0.5-3.6,2.1-6.9,5.8-7.3l10.2-1.1
			c3.6-0.4,6.8,2.2,7.1,5.8L980.2,415.2z"/>
		<path fill="#A8ADB2" d="M1125.6,476.8l32.9,2c4.1,0.2,7.3,3.5,7.6,7.5l0.5,8.4c0.1,2.2,1.2,4.2,2.8,5.6l0,0
			c4.1,3.5,10.4,2.1,12.6-2.9l17.3-38.9c1.6-3.5,0.5-7.6-2.6-9.8l-51.5-37.3L1125.6,476.8z"/>
		<linearGradient id="SVGID_6_" gradientUnits="userSpaceOnUse" x1="1027.3925" y1="403.9231" x2="1170.9551" y2="403.9231">
			<stop  offset="0" style="stop-color:#C4C6C8"/>
			<stop  offset="1" style="stop-color:#BEC0C2"/>
		</linearGradient>
		<path fill="url(#SVGID_6_)" d="M1117.4,326.3c0,0,59.3,14.9,53.2,91.4c-4.3,53.3-67.7,79.7-112.2,53.9
			c-36.6-21.2-31.6-83.9-29.3-119.8L1117.4,326.3z"/>
		<g>
			<circle fill="#976C5A" cx="933" cy="425" r="93"/>
			<path fill="#866050" d="M895.1,375.2c-0.3-1.4-0.8-11.4-0.9-16.2c-0.1-1.6,0.3-3.3,1.1-4.7l4.3-7.9l0,0c0.6-1.3,2.6-1,2.7,0.5
				l0.2,4.3c0,0.2,0,0.3-0.1,0.5l-1.3,4.8c-0.4,1.4-0.5,2.9-0.2,4.4l2.8,13.9L895.1,375.2z"/>
			<path fill="#866050" d="M870.2,361.1c-0.2-0.9-0.5-7.2-0.6-10.2c0-1,0.2-2.1,0.7-3l2.7-5v0c0.4-0.8,1.6-0.6,1.7,0.3l0.1,2.7
				c0,0.1,0,0.2,0,0.3l-0.9,3c-0.3,0.9-0.3,1.8-0.1,2.8l1.8,8.8L870.2,361.1z"/>
			<path fill="#866050" d="M942.8,347.6c0.4-0.6,3.6-4.9,5.1-7c0.5-0.7,1.1-1.3,1.7-1.8l3.3-2.6l0,0c0.5-0.5,0.8,0,0.3,0.6l-1.4,1.9
				c0,0.1-0.1,0.1-0.2,0.2l-1.8,1.8c-0.5,0.5-1,1.2-1.4,1.8l-4,6.3L942.8,347.6z"/>
			<path fill="#866050" d="M961.5,360.9c1-1,9.1-6.9,13-9.6c1.3-1,2.9-1.5,4.6-1.7l8.9-0.7l0,0c1.4-0.2,2.2,1.6,1,2.5l-3.5,2.6
				c-0.1,0.1-0.3,0.2-0.4,0.2l-4.7,1.5c-1.4,0.4-2.7,1.2-3.7,2.2l-10.1,10L961.5,360.9z"/>
			<path fill="#866050" d="M916.5,395.2c0.8-0.8,7.2-5.4,10.3-7.6c1.1-0.7,2.3-1.2,3.6-1.3l7-0.6l0,0c1.1-0.2,1.8,1.3,0.8,2l-2.8,2
				c-0.1,0.1-0.2,0.1-0.3,0.2l-3.7,1.2c-1.1,0.3-2.1,1-2.9,1.8l-8,7.9L916.5,395.2z"/>
			<g>
				<g>
					<path fill="#866050" d="M864.5,392.7c-0.3,1.5-0.9,2.8-1.8,4.1c0.2-0.3,0.4-0.5,0.6-0.8c-0.3,0.3-0.5,0.7-0.8,1
						c-2.2,2.4,1.9,2.7,3.5,2.6c1.9-0.1,3.8-0.6,5.6-1.3c1.4-0.5,3-1.2,4-2.3c1.5-1.7,2.7-3.6,3.2-5.8c0.6-2.6-4.6-1.9-5.9-1.6
						c-1.9,0.3-3.8,0.9-5.5,1.7C866.7,390.7,864.8,391.6,864.5,392.7L864.5,392.7z"/>
				</g>
			</g>
			<g>
				<g>
					<path fill="#866050" d="M866.4,410.9c1.6,3.2,2.8,6.6,3.7,10c0.7,2.6,6.4,1.4,8,0.9c1.6-0.4,7.2-2.2,6.5-4.8
						c-0.9-3.5-2.1-6.8-3.7-10C878.8,402.8,864.8,407.6,866.4,410.9L866.4,410.9z"/>
				</g>
			</g>
			<g>
				<g>
					<path fill="#866050" d="M883.3,408.7c1.2,0.6,2.4,1.3,3.6,1.9c1.6,0.8,3.9,0.6,5.5,0.2c1.8-0.5,3.5-1.5,4.7-2.9
						c1-1.2,1.5-2.8,1.1-4.3c-0.4-1.7-1.7-2.4-3.1-3.2c-1.2-0.6-2.4-1.3-3.6-1.9c-1.6-0.8-3.9-0.6-5.5-0.2c-1.8,0.5-3.5,1.5-4.7,2.9
						c-1,1.2-1.5,2.8-1.1,4.3C880.6,407.3,881.9,408,883.3,408.7L883.3,408.7z"/>
				</g>
			</g>
			<g>
				<g>
					<path fill="#866050" d="M868.1,459.5c4.6,7.6,10.2,14.4,16.6,20.5c2.6,2.5,15.5-3.1,13.7-4.8c-6.2-5.8-11.4-12.3-15.8-19.6
						C880.6,452.3,867.2,458,868.1,459.5L868.1,459.5z"/>
				</g>
			</g>
			<g>
				<g>
					<path fill="#866050" d="M929.3,423.7c2,1.5,3.9,2.9,5.9,4.4c1,0.8,2.5,0.8,3.8,0.8c1.9-0.1,3.9-0.5,5.7-1.2
						c1-0.4,6.5-3,4.1-4.8c-2-1.5-3.9-2.9-5.9-4.4c-1-0.8-2.5-0.8-3.8-0.8c-1.9,0.1-3.9,0.5-5.7,1.2
						C932.5,419.3,926.9,421.9,929.3,423.7L929.3,423.7z"/>
				</g>
			</g>
			<g>
				<g>
					<path fill="#866050" d="M946.7,416.2c3.1,0,7.5-1.3,9.7-3.6c2.4-2.5-2-2.9-3.6-2.9c-3.1,0-7.5,1.3-9.7,3.6
						C940.8,415.8,945.2,416.2,946.7,416.2L946.7,416.2z"/>
				</g>
			</g>
			<g>
				<g>
					<path fill="none" stroke="#BFA89F" stroke-miterlimit="10" d="M916.7,449.6"/>
				</g>
			</g>
			<g>
				<g>
					<path fill="none" stroke="#BFA89F" stroke-miterlimit="10" d="M932.4,445.6"/>
				</g>
			</g>
			<circle fill="#866050" cx="857.9" cy="410.4" r="4.7"/>
			<circle fill="#866050" cx="851" cy="423.5" r="4.7"/>
			<circle fill="#866050" cx="863.3" cy="422.8" r="3"/>
			<circle fill="#866050" cx="912.1" cy="456.8" r="4.7"/>
			<circle fill="#866050" cx="905.2" cy="469.9" r="4.7"/>
			<circle fill="#866050" cx="917.5" cy="469.2" r="3"/>
		</g>
		<linearGradient id="SVGID_7_" gradientUnits="userSpaceOnUse" x1="1033.2926" y1="473.055" x2="1129.8468" y2="473.055">
			<stop  offset="0" style="stop-color:#C4C6C8"/>
			<stop  offset="1" style="stop-color:#BEC0C2"/>
		</linearGradient>
		<path fill="url(#SVGID_7_)" d="M1036.6,446l17.2,34.1c2.3,4.2,0.3,9.1-4.7,11.4l-10.2,4.8c-2.7,1.2-4.6,3.3-5.3,5.7v0
			c-1.8,5.9,4,11.5,11.6,11.2l59.8-2.3c5.4-0.2,9.8-3.4,10.7-7.6l14.1-70.5L1036.6,446z"/>
		<path fill="#A8ADB2" d="M1120.1,395.8L1120.1,395.8c-6,21.7-25.4,37.3-48.2,38.8l-46.5,3.2l-2.9-48.7l19.5-2.8
			c11.1-1.6,21.5-6.4,29.5-14.1c2.8-2.7,6.1-5.4,9.9-7.8C1103,350.9,1129.6,372.5,1120.1,395.8z"/>
		<path fill="#A8ADB2" d="M1033.3,437.2l-11.7,2.1c-5.7,1-11.2-2.8-11.9-8.5l-5-38.1c-0.5-3.6,2.2-6.9,5.9-7.3l10.4-1.1
			c3.6-0.4,6.9,2.2,7.3,5.8L1033.3,437.2z"/>
		<path fill="#ACB2B6" d="M1070.7,294.8c-0.8,28.3-24.3,50.6-52.6,49.9s-50.6-24.3-49.9-52.6c0.3-10.3,3.6-19.8,9-27.6l-6.4-5.5
			c-2.2-1.9-1.4-5.5,1.4-6.2l2.4-0.6c2.4-0.6,3.4-3.3,2.2-5.4c-1.5-2.4,0.3-5.6,3.2-5.5l40.9,1.1
			C1049.1,243,1071.5,266.5,1070.7,294.8z"/>
		<circle fill="#8F9498" cx="1018.7" cy="293.2" r="36.5"/>
		<g>
			
				<linearGradient id="SVGID_8_" gradientUnits="userSpaceOnUse" x1="1046.0758" y1="245.9645" x2="1046.0758" y2="278.9004" gradientTransform="matrix(0.9991 4.174911e-002 -4.174911e-002 0.9991 55.4781 7.0463)">
				<stop  offset="0" style="stop-color:#C4C6C8"/>
				<stop  offset="1" style="stop-color:#BEC0C2"/>
			</linearGradient>
			<path fill="url(#SVGID_8_)" d="M1187.3,291.4c-0.4-11.4-4.2-21.9-10.3-30.6l7.1-6.2c2.4-2.1,1.5-6.1-1.7-6.9l-2.7-0.7
				c-2.7-0.7-3.8-3.7-2.4-6c1.6-2.7-0.4-6.2-3.6-6.1c-14.5,0.5-29.4,2.1-44,3.1c-7.2,0.5-14.4,0.9-21.5,1.8
				c-7.2,0.9-14.6,1.7-21.7-0.6c-7.8-2.5-16.8-3.4-27.4-2.9c-13.9,0.6-33.5,5.5-43.8,15.3c-7.9,7.5-13.7,17.3-16.2,27.9
				c-2.5,11-2.5,22.5-4.5,33.6c-1.6,9-4,16.7-1.2,25.8c5.1,16.5,21.4,28.1,37.5,31.5c26.2,5.6,67.5,2.2,86.5-21.2
				c4.8,1.1,9.9,1.6,15.1,1.4C1164,349.3,1188.5,322.8,1187.3,291.4z"/>
		</g>
		<path fill="#A8ADB2" d="M1118.7,331.8c4.6,1.5,9.6,2.2,14.8,1.9c21.4-1.2,38.4-19.1,38.4-40.5c0-23.1-19.2-41.5-42.1-40.6
			c-8.8,0.3-16.9,3.5-23.4,8.5c-4,3.1-6,8.2-5.1,13.2l8.2,46.8C1110.3,326.2,1113.8,330.2,1118.7,331.8z"/>
		<circle fill="#9A9FA3" cx="1051.9" cy="308.4" r="8.3"/>
		<circle fill="#9A9FA3" cx="1004.9" cy="304.5" r="8.3"/>
		<circle fill="#5F6062" cx="1004.9" cy="304.1" r="5.3"/>
		<path fill="#DEDFE0" d="M1020.8,326.2c-8.6,0.3-14.3,8.9-11.3,17c2.2,6.1,6.2,11.8,13.4,12.4c9,0.8,14-5.3,16.8-12.7
			c3.2-8.4-3.4-17.3-12.4-17L1020.8,326.2z"/>
		<path fill="#636466" d="M1004.8,303.7c1.8-4.7,5.1-8.7,10.4-10.5c6-2,13.3-0.6,18.2,3.3c6.2,4.9,7.3,12.5,6.2,19.4
			c-1.3,8.1-8.4,28.7-22.4,25c-8.5-2.2-13-8.5-14.1-16.1C1002.2,318.8,1002.2,310.4,1004.8,303.7z"/>
		<path fill="#FFFFFF" d="M1025.1,298.9c-0.3-0.2,0.8,0.5,1.1,0.7c1.1,0.8,2,1.9,2.7,3c2.9,4.4,2.7,10,1.3,14.9
			c-0.5,1.8,2.2,2.9,2.7,1.1c2.2-7.9,1.4-18.2-6.8-22.4C1024.5,295.3,1023.4,298.1,1025.1,298.9L1025.1,298.9z"/>
		<g>
			<path fill="#6B6C6F" d="M1019.5,340.1c1.8,0,3.3,0.1,4.6,0.2c1.4,0.1,2.6,0.1,3.8,0.1c1.2,0,2.4,0,3.8-0.1c0.7,0,1.4-0.1,2.1-0.1
				c0.8,0,1.5-0.2,2.5-0.1l0.2,0.2c-0.6,0.4-1.3,0.9-1.9,1.3c-0.7,0.3-1.4,0.7-2.1,0.9c-1.4,0.6-3,0.8-4.6,0.8
				c-3.1-0.1-6.2-1.1-8.6-3.1L1019.5,340.1z"/>
		</g>
		<circle fill="#5F6062" cx="1051.4" cy="308.4" r="4.9"/>
	</g>
	<g>
		<ellipse fill="#8A6252" cx="963.9" cy="491.1" rx="59.1" ry="59.2"/>
		<path fill="#7C5849" d="M941.6,458.2c-0.2-0.9-0.1-7.3,0-10.3c0-1,0.3-2.1,0.9-3l3-4.9l0,0c0.4-0.8,1.7-0.5,1.7,0.4v2.8
			c0,0.1,0,0.2,0,0.3l-1,3c-0.3,0.9-0.4,1.8-0.3,2.8l1.3,8.9H941.6z"/>
		<path fill="#7C5849" d="M956,439.6c-0.1-0.6-0.1-4.6,0-6.5c0-0.7,0.2-1.3,0.5-1.9l1.9-3.1l0,0c0.3-0.5,1.1-0.3,1.1,0.3v1.7
			c0,0.1,0,0.1,0,0.2l-0.6,1.9c-0.2,0.6-0.2,1.2-0.2,1.7l0.8,5.7H956z"/>
		<path fill="#7C5849" d="M972.8,442.3c0.3-0.4,2.4-3,3.5-4.3c0.4-0.4,0.8-0.8,1.2-1.1l2.2-1.6l0,0c0.4-0.3,0.5,0,0.2,0.4l-0.9,1.1
			c0,0-0.1,0.1-0.1,0.1l-1.2,1.1c-0.4,0.3-0.7,0.7-1,1.1l-2.8,3.9L972.8,442.3z"/>
		<path fill="#7C5849" d="M984.2,451.4c0.6-0.6,6-4,8.6-5.7c0.9-0.6,1.9-0.9,2.9-0.9l5.7-0.2l0,0c0.9-0.1,1.4,1.1,0.6,1.6l-2.3,1.5
			c-0.1,0.1-0.2,0.1-0.3,0.1l-3.1,0.8c-0.9,0.2-1.7,0.7-2.4,1.3l-6.7,6L984.2,451.4z"/>
		<path fill="#7C5849" d="M954.4,471.6c0.5-0.5,4.8-3.2,6.8-4.5c0.7-0.4,1.5-0.7,2.3-0.7l4.5-0.1l0,0c0.7-0.1,1.1,0.9,0.5,1.3
			l-1.8,1.2c-0.1,0-0.1,0.1-0.2,0.1l-2.4,0.6c-0.7,0.2-1.4,0.5-1.9,1l-5.3,4.7L954.4,471.6z"/>
		<path fill="#7C5849" d="M920.3,468.7c-0.2,0.8-0.6,1.5-1,2.2c0.2-0.2,0.3-0.4,0.5-0.6c-0.2,0.3-0.5,0.6-0.8,0.9
			c-0.5,0.5-0.8,1.2-0.2,1.7c0.7,0.6,2.3,0.5,3.1,0.5c1.6-0.1,3.2-0.5,4.7-1c1.2-0.5,2.4-1,3.3-1.9c1.1-1,1.9-2.3,2.3-3.7
			c0.6-2.1-3.9-1.5-4.9-1.4c-1.6,0.3-3.2,0.7-4.6,1.4c-0.4,0.2-0.8,0.4-1.1,0.6C921,467.7,920.6,468.2,920.3,468.7L920.3,468.7z"/>
		<path fill="#7C5849" d="M920.8,480.5c0.9,2.1,1.5,4.3,2,6.5c0.2,0.9,1.6,1.1,2.2,1.2c1.4,0.2,3.1-0.1,4.4-0.4
			c1.4-0.4,2.9-0.9,4.1-1.8c0.6-0.5,1.5-1.2,1.3-2.2c-0.5-2.2-1.1-4.4-2-6.5c-0.9-2.1-5-1.2-6.6-0.8c-1.4,0.4-2.9,0.9-4.1,1.8
			C921.6,478.8,920.5,479.6,920.8,480.5L920.8,480.5z"/>
		<path fill="#7C5849" d="M931.2,479.6c0.7,0.4,1.5,0.9,2.2,1.3c0.6,0.4,1.2,0.7,1.9,0.8c0.7,0.2,1.5,0.3,2.3,0.2
			c0.8,0,1.7-0.2,2.4-0.6c0.8-0.2,1.5-0.6,2.1-1.1c1-0.8,2-2,2.1-3.3c0-1.2-0.4-2.5-1.5-3.2c-0.7-0.4-1.5-0.9-2.2-1.3
			c-0.6-0.4-1.2-0.7-1.9-0.8c-0.7-0.2-1.5-0.3-2.3-0.2c-0.8,0-1.7,0.2-2.4,0.6c-0.8,0.2-1.5,0.6-2.1,1.1c-1,0.8-2,2-2.1,3.3
			C929.6,477.6,930.1,478.9,931.2,479.6L931.2,479.6z"/>
		<path fill="#7C5849" d="M920.3,511.5c2.7,5,6,9.6,9.9,13.7c2,2.1,12.9-2.3,11.3-4c-3.7-3.9-6.8-8.2-9.3-12.9
			C930.8,505.5,919.4,509.9,920.3,511.5L920.3,511.5z"/>
		<path fill="#7C5849" d="M960.4,490.9c1.2,1,2.4,2,3.6,3c0.8,0.6,2.2,0.7,3.1,0.6c1.5,0,3.3-0.4,4.7-1c0.9-0.4,5.3-2.4,3.4-4
			c-1.2-1-2.4-2-3.6-3c-0.8-0.6-2.2-0.7-3.1-0.6c-1.5,0-3.3,0.4-4.7,1C962.9,487.3,958.5,489.3,960.4,490.9L960.4,490.9z"/>
		<g>
			<g>
				<path fill="none" stroke="#BFA89F" stroke-miterlimit="10" d="M952.7,506.2"/>
			</g>
		</g>
		<g>
			<g>
				<path fill="none" stroke="#BFA89F" stroke-miterlimit="10" d="M962.8,504.2"/>
			</g>
		</g>
		<ellipse fill="#7C5849" cx="916.8" cy="479.2" rx="3" ry="3"/>
		<ellipse fill="#7C5849" cx="912" cy="487.3" rx="3" ry="3"/>
		<circle fill="#7C5849" cx="919.8" cy="487.3" r="1.9"/>
		<ellipse fill="#7C5849" cx="949.6" cy="510.6" rx="3" ry="3"/>
		<ellipse fill="#7C5849" cx="944.8" cy="518.7" rx="3" ry="3"/>
		<circle fill="#7C5849" cx="952.6" cy="518.7" r="1.9"/>
	</g>
	<g>
		<polygon fill="#464547" stroke="#464547" stroke-width="4" stroke-miterlimit="10" points="1050.6,541.4 1041.1,541.6 
			1041.1,539.6 1048.6,539.5 1048.4,524.5 1050.4,524.4 		"/>
		<path fill="#464547" stroke="#464547" stroke-width="4" stroke-miterlimit="10" d="M1081.4,541l-10.4,0.2l0-1.9l8.5-0.1l0-2.3
			c-3-0.7-5.6-2.8-7.4-6c-1.5-2.6-2.1-5-2.1-5.1l1.9-0.4c0,0.1,2,8.7,8.7,9.8l0.8,0.1L1081.4,541z"/>
		<path fill="#464547" d="M1033.8,499.7l-14.3-0.4l0.1-4.2c0-0.9-0.6-1.8-1.6-1.9c-1.1-0.1-2,0.7-2,1.7l-0.1,4.6c0,1.1,0.8,2,2,2.1
			l1.6,0v0l14.3,0.4L1033.8,499.7z"/>
		<path fill="#58595B" d="M1064.2,533.3L1064.2,533.3c-13,2.4-25.5-6.2-28-19.1l-2-10.7c-2.4-12.9,6.2-25.5,19.1-27.9h0
			c13-2.4,25.5,6.2,28,19.1l2,10.7C1085.7,518.3,1077.1,530.9,1064.2,533.3z"/>
		<path fill="#464547" d="M1048.5,502.9l-5.6,6.1c-1.2,1.3-2.9,2.1-4.7,2.2l-18.7,0.9l-0.2-3.9c0-0.9-0.8-1.7-1.7-1.7
			c-1,0-1.7,0.8-1.7,1.8l0.2,4.2c0.1,1.1,1,2,2.1,1.9l1.4-0.1l0,0l18.7-0.9c2.4-0.1,4.6-1.2,6.2-2.9l5.6-6.1L1048.5,502.9z"/>
		<g>
			<path fill="#464547" d="M1077.4,511.6C1077.4,511.6,1077.4,511.5,1077.4,511.6L1077.4,511.6L1077.4,511.6z"/>
			<path fill="#464547" d="M1077.1,511.7c0,0.1-0.1,0.1,0,0.2C1077.1,511.8,1077.1,511.8,1077.1,511.7c0.1,0,0.1-0.1,0.1,0
				c0,0,0.1,0,0.1-0.1C1077.2,511.6,1077.1,511.7,1077.1,511.7C1077.1,511.8,1077.1,511.7,1077.1,511.7z"/>
			<path fill="#464547" d="M1072.8,514.7L1072.8,514.7C1072.8,514.7,1072.8,514.7,1072.8,514.7z"/>
			<path fill="#464547" d="M1070.1,516.4C1070.1,516.4,1070.1,516.4,1070.1,516.4C1070.1,516.4,1070.1,516.4,1070.1,516.4z"/>
			<path fill="#464547" d="M1069.6,516.6C1069.6,516.6,1069.6,516.6,1069.6,516.6C1069.6,516.6,1069.6,516.6,1069.6,516.6z"/>
			<path fill="#464547" d="M1072.8,514.7L1072.8,514.7C1072.7,514.8,1072.8,514.7,1072.8,514.7z"/>
			<path fill="#464547" d="M1076.6,512.3C1076.6,512.2,1076.6,512.2,1076.6,512.3L1076.6,512.3
				C1076.6,512.3,1076.6,512.3,1076.6,512.3z"/>
			<path fill="#464547" d="M1074,513.9L1074,513.9C1074,513.9,1074,513.8,1074,513.9L1074,513.9z"/>
			<path fill="#464547" d="M1074.8,513.2C1074.8,513.2,1074.8,513.3,1074.8,513.2C1074.8,513.3,1074.9,513.3,1074.8,513.2
				C1074.9,513.2,1074.9,513.2,1074.8,513.2z"/>
			<path fill="#464547" d="M1076.3,512.3L1076.3,512.3C1076.3,512.2,1076.3,512.3,1076.3,512.3z"/>
			<path fill="#464547" d="M1073.3,514.3C1073.3,514.3,1073.3,514.3,1073.3,514.3C1073.3,514.3,1073.3,514.3,1073.3,514.3z"/>
			<path fill="#464547" d="M1044.2,520.1C1044.2,520.1,1044.2,520.1,1044.2,520.1C1044.2,520.1,1044.2,520.1,1044.2,520.1z"/>
			<path fill="#464547" d="M1043,519.6L1043,519.6C1043,519.6,1043,519.6,1043,519.6L1043,519.6z"/>
			<path fill="#464547" d="M1068.7,517L1068.7,517C1068.7,517,1068.7,517,1068.7,517z"/>
			<path fill="#464547" d="M1060,519.9C1060.1,519.9,1059.8,519.9,1060,519.9C1060,519.9,1060.1,519.9,1060,519.9z"/>
			<path fill="#464547" d="M1076.6,512.3L1076.6,512.3C1076.5,512.3,1076.5,512.3,1076.6,512.3z"/>
			<path fill="#464547" d="M1060,519.9L1060,519.9L1060,519.9C1060,520,1060,520,1060,519.9z"/>
			<path fill="#464547" d="M1066.6,518C1066.6,518,1066.6,518,1066.6,518C1066.6,518,1066.6,518,1066.6,518z"/>
			<path fill="#464547" d="M1068.2,517.4L1068.2,517.4C1068.2,517.4,1068.2,517.4,1068.2,517.4z"/>
			<path fill="#464547" d="M1065.8,518.4C1065.8,518.4,1065.8,518.4,1065.8,518.4C1065.7,518.5,1065.7,518.5,1065.8,518.4
				C1065.8,518.4,1065.8,518.4,1065.8,518.4z"/>
			<path fill="#464547" d="M1064.9,518.8C1064.9,518.8,1064.9,518.8,1064.9,518.8C1064.9,518.8,1065,518.8,1064.9,518.8
				L1064.9,518.8z"/>
			<path fill="#464547" d="M1047,520.4C1047,520.3,1047,520.3,1047,520.4C1047,520.3,1046.9,520.4,1047,520.4z"/>
			<path fill="#464547" d="M1076.6,512.2C1076.6,512.3,1076.6,512.3,1076.6,512.2L1076.6,512.2
				C1076.6,512.2,1076.6,512.2,1076.6,512.2z"/>
			<path fill="#464547" d="M1065.9,518.8l-0.1,0C1065.8,518.8,1065.8,518.8,1065.9,518.8z"/>
			<path fill="#464547" d="M1053.7,520.6L1053.7,520.6C1053.7,520.6,1053.7,520.6,1053.7,520.6z"/>
			<path fill="#464547" d="M1065.3,519C1065.3,519,1065.3,519,1065.3,519c-0.1,0-0.1,0-0.1,0L1065.3,519z"/>
			<path fill="#464547" d="M1047,520.3L1047,520.3L1047,520.3z"/>
			<path fill="#464547" d="M1046,520.3c0.1,0,0.1-0.1,0.1-0.1c0.2,0,0.1,0.1,0.1,0.1c0.1,0,0.2-0.1,0.3,0c0,0,0,0,0,0
				c0.1,0,0.3,0,0.5,0c0,0,0,0,0,0c0,0,0-0.1,0-0.1c0.1,0,0.1,0,0.1,0c0,0,0,0-0.1,0l0.1,0c0.1,0.1-0.1,0-0.1,0.1c0.1,0,0.3,0,0.4,0
				c0,0.1-0.2,0-0.1,0.1l-0.2,0c0.1,0.1-0.1,0,0,0.1c0.2,0,0.2,0,0.4,0c0,0,0,0,0-0.1c0.3,0,0.2,0.2,0.4,0.1c0.1,0,0.1-0.1,0.2-0.1
				l-0.1,0.1c0.2,0,0.1-0.1,0.3,0c0,0-0.2,0-0.1,0c0.1,0.1,0.1,0,0.2,0l0,0.1c0.2,0,0.4,0,0.7,0c0,0-0.1,0,0,0.1
				c0.3,0,0.6,0,0.9,0.1l0.1,0c0,0,0,0,0,0c0.1,0,0,0,0.1,0c0.1,0,0.1,0,0,0c0.2,0,0.6-0.1,0.8,0l0,0c0.2,0,0.2-0.1,0.3,0l0,0
				c0.3,0,0.7,0,1,0.1c0.1-0.1,0.3,0,0.4-0.1c0.2,0,0.1,0.1,0.4,0.1c0.1,0,0.1-0.1,0.2-0.1l0,0l0.1-0.1l0.1,0.1l0.1,0
				c0,0-0.1,0-0.1,0c0.1,0,0.3,0,0.3,0.1l0.3,0c0,0-0.1,0-0.1,0c0.2-0.1,0,0.1,0.2,0c0,0,0,0,0,0c0.1,0,0.3,0,0.4,0l0,0
				c0.2,0,0.5,0,0.8,0c-0.1,0-0.1-0.1,0-0.1l0,0.1c0,0-0.1,0,0-0.1c0.1,0,0.1,0.1,0,0.1l0.1,0c0,0,0,0,0,0c0,0,0.2,0,0.3,0l0,0
				c0.3,0,0.4,0,0.6,0c0,0,0.1,0,0.1-0.1c0.2,0,0.3,0,0.5,0c0.1,0,0,0,0.1-0.1c0,0,0.2,0,0.1,0.1c0.2,0,0.3,0,0.6-0.1
				c0,0-0.1,0-0.1,0c0.1,0,0.1,0,0.1,0l0,0c0.3-0.1,0.8,0.1,1-0.1l0,0l0.3-0.1c0.1,0-0.1,0,0,0.1c0.3-0.1,0.5,0,0.7-0.1
				c0.2,0.1,0.6-0.1,0.9-0.1l0,0c0.1,0,0.1,0,0.1,0c0,0-0.1,0,0,0c0.3-0.1,0.5-0.1,0.8-0.1c0.3,0,0.6-0.1,0.8-0.1
				c0.2,0,0.1-0.2,0.3-0.2l-0.1,0.1c0.4-0.2,0.8-0.2,1.2-0.4c0,0,0,0-0.1,0c0.1,0,0.3-0.1,0.3-0.1c0.1,0,0,0,0.1,0
				c0.1,0,0.2-0.1,0.2-0.1c0,0,0,0,0,0c0,0,0.2-0.1,0.2-0.1c0.2,0,0.3-0.1,0.4-0.1c0.1-0.1,0.3-0.1,0.3-0.1c0,0.1,0.3,0,0.3-0.1
				c0,0,0.1,0,0.1,0c0.1,0,0.2-0.1,0.2-0.1c0.2,0,0.3-0.2,0.5-0.2c0.1-0.1,0.3-0.2,0.4-0.2c0.1-0.1,0.3-0.1,0.4-0.2
				c0,0.1-0.3,0.1-0.2,0.2c0.2-0.1,0.4-0.3,0.6-0.4c0.1,0,0,0,0,0.1c0.2-0.1,0.5-0.2,0.7-0.4c0,0,0,0,0,0c0,0,0.1,0,0.1-0.1l0,0
				c-0.1,0,0.1-0.2,0.1-0.2c0,0.1,0.2-0.1,0.2,0.1c0,0,0.1-0.1,0-0.1c0,0,0.1,0,0,0c0.1-0.1,0.1-0.1,0.2-0.2c0,0,0,0,0,0.1
				c0.1-0.1,0.1-0.1,0.2-0.2c0,0,0,0,0,0c0.2-0.1,0.3-0.3,0.5-0.4c0,0.1,0.1,0,0.1,0l0.1-0.1l-0.1,0c0.1-0.1,0.2-0.1,0.3-0.2
				l-0.1,0.1l0.2-0.1l-0.1,0c0.1-0.1,0-0.1,0.1-0.1c0,0,0.1-0.1,0.2-0.1l0,0c0,0,0.1-0.1,0.2-0.1c0,0,0,0.1,0,0.1
				c0-0.1,0.2-0.2,0.3-0.2c0,0,0,0.1,0,0.1l0-0.1c0.1,0,0.1,0,0.1,0c0.1-0.1-0.1,0,0.1-0.1c0,0,0,0,0,0c0.2-0.1,0.3-0.2,0.5-0.3
				c0.1,0-0.1,0.1,0,0.1c0.2-0.1,0.4-0.4,0.6-0.5l0,0c0-0.1,0.2-0.1,0.3-0.2c0,0,0,0.1,0,0c0.2-0.1,0.3-0.2,0.5-0.4l0,0
				c0.1,0,0.2-0.1,0.3-0.2c0,0,0.1-0.1,0-0.1c0.4-0.1,0.5-0.4,0.8-0.5c0,0-0.1,0.1,0,0l0.2-0.2c0,0,0,0-0.1,0c0,0,0.1-0.1,0.1-0.1
				c-0.1,0.1,0,0,0.1,0c0,0,0,0,0,0c0.1,0,0-0.1,0.1-0.1l0,0c0,0,0.1-0.1,0.1-0.1c0,0,0,0.1,0,0.1c0.1-0.1,0.1-0.2,0.2-0.2
				c0,0-0.1,0.1-0.1,0.1c0.1,0,0.1,0,0.2-0.1l0,0l0.2-0.1l0,0c0-0.2,0.2-0.2,0.3-0.3c-0.1,0.2,0,0,0,0.1c0,0,0.1,0,0.1,0
				c0-0.1,0.1-0.1,0.2-0.2c0,0,0.1-0.1,0.1,0c0.1-0.1,0,0,0,0c0.1-0.1,0.4-0.2,0.5-0.4c0.1-0.1,0.1-0.2,0.3-0.3c0.1,0,0,0.1,0,0.1
				c0.1,0,0.2-0.1,0.2-0.2c0,0,0,0,0.1,0c0.1-0.1,0-0.1,0.1-0.1c0,0,0,0.1,0,0.1c0.1-0.1,0.1-0.1,0.2-0.2c0,0,0,0.1,0,0.1
				c0.1-0.1,0.2-0.2,0.2-0.2l-0.1,0c0,0,0,0,0,0c-0.1,0.1-0.1,0.1-0.1,0.1l0,0c-0.1,0-0.2,0.2-0.3,0.3l0-0.1l-0.1,0.1
				c0,0-0.1,0,0-0.1c-0.1,0-0.1,0.1-0.1,0.1c0,0,0,0,0,0l-0.1,0.1c0,0,0,0,0-0.1c-0.2,0.1-0.2,0.2-0.3,0.2l0,0
				c-0.2,0.2,0,0.1-0.1,0.2l-0.2,0l0,0.1c0,0-0.1,0-0.1,0c-0.1,0.1,0,0,0,0.1c-0.1,0-0.2,0.2-0.3,0.2c0,0.1,0.1,0,0,0.1
				c-0.1,0-0.1,0.1-0.2,0.1c0-0.1,0.1-0.1,0-0.1c0,0.1-0.2,0.1-0.2,0.2c0,0.1-0.1,0.1-0.3,0.2c0,0-0.3,0.1-0.4,0.2l0,0
				c0,0.1-0.1,0.1-0.2,0.2c0,0,0-0.1,0-0.1l-0.1,0.1c0,0,0,0.1-0.1,0.1l0-0.1c-0.1,0.1-0.2,0.2-0.3,0.3c0,0,0.2,0,0,0.1
				c0,0,0,0,0-0.1c0,0,0,0-0.1,0.1l0-0.1c-0.1,0,0,0-0.1,0.1c0,0-0.1,0-0.1,0c0,0,0.1,0,0.1,0c-0.1,0-0.1,0.1-0.2,0.1c0,0,0,0,0,0.1
				c-0.1,0.1-0.1,0-0.1,0c0,0-0.1,0.1-0.1,0.1c0,0-0.1,0-0.1,0c0,0.1-0.3,0.2-0.2,0.2l0,0l0,0l0,0l0,0c-0.2,0.2-0.4,0.2-0.6,0.4l0,0
				c-0.1,0.1-0.2,0.2-0.3,0.3c0,0-0.1,0-0.1,0c-0.1,0.1-0.1,0.1-0.2,0.1c0.1-0.1,0,0,0.1-0.1c-0.1,0.1-0.2,0.1-0.3,0.2
				c0-0.1-0.1,0-0.2,0.1l0.1,0c-0.1,0-0.1,0.1-0.2,0.1l0-0.1c-0.3,0.1-0.4,0.4-0.6,0.4c0,0.1,0.1-0.1,0.1,0
				c-0.1,0.1-0.3,0.1-0.3,0.1c-0.2,0.1-0.1,0.1-0.3,0.2c0,0,0.1,0,0,0.1c-0.1,0.1-0.2,0-0.1,0c0,0,0,0,0,0c0,0,0.1-0.1,0-0.1l0,0
				c-0.1,0-0.2,0.1-0.2,0.1c-0.1,0.1,0,0,0,0c-0.2,0.1-0.2,0.1-0.4,0.2c0,0,0.1,0,0,0c-0.2,0.1-0.1,0.1-0.2,0.2c-0.1,0,0-0.1-0.1,0
				c-0.1,0,0,0,0-0.1c-0.1,0.1-0.3,0.1-0.3,0.1l0.1-0.1c0,0-0.1,0-0.1,0.1l0.1,0c0,0-0.1,0-0.1,0c0,0,0.1,0,0,0.1
				c-0.1,0-0.2,0.1-0.2,0.1c0.2-0.1,0,0,0.1-0.1c0,0-0.1,0-0.1,0.1c0,0,0,0,0,0c-0.2,0-0.1,0.1-0.2,0.2c0,0-0.1,0-0.1,0
				c0.1,0,0.1,0,0,0.1c-0.1,0-0.1,0.1-0.2,0.1l0.1,0c0,0-0.1,0.1-0.1,0.1c0,0,0.1,0,0,0c-0.1,0.1-0.2,0.1-0.3,0.1c-0.1,0,0,0-0.1,0
				c-0.1,0.1-0.2,0-0.3,0.1c0.1,0,0.1,0,0,0.1l0.2-0.1l-0.1,0.1c0.1,0,0.1-0.1,0.2-0.1c-0.1,0.1-0.1,0,0,0.1c-0.1,0-0.2,0.1-0.3,0.1
				l0-0.1c-0.2,0-0.3,0.2-0.5,0.3l0.1,0c0,0-0.1,0.1-0.2,0.1c0,0-0.1,0-0.1,0c0,0-0.2,0.1-0.2,0.1l-0.1,0c-0.2,0.1-0.2,0.2-0.3,0.2
				c0-0.1,0,0,0.1-0.1c-0.1,0-0.1,0-0.1,0.1c0,0-0.1,0.1-0.2,0.1c0,0,0,0.1-0.1,0.1c0,0,0,0,0,0c0,0-0.1,0.1,0,0.1
				c-0.2,0-0.5,0.2-0.7,0.2c-0.1,0.1-0.3,0.1-0.4,0.2c0,0,0,0,0,0c-0.2,0-0.1,0.1-0.3,0.1c-0.1,0,0.1-0.1,0-0.1
				c-0.1-0.1-0.2,0.1-0.4,0.1l0,0c-0.1,0-0.2,0.1-0.4,0.1c0,0,0,0,0,0c-0.1,0.1-0.3,0.2-0.4,0.2c0-0.1,0.1,0,0-0.1
				c-0.1,0,0,0.1-0.1,0.1c-0.1,0-0.2,0-0.2,0l0.1,0c-0.1,0-0.2,0-0.2,0l0,0c-0.2,0.1-0.2,0.1-0.4,0.2l0,0c-0.1,0.1-0.1,0-0.2,0.1
				l0-0.1c-0.1,0-0.3,0.1-0.4,0.2c0.1-0.1,0.2-0.1,0.3-0.2c-0.1,0-0.3,0.1-0.3,0.1c0,0,0.1,0,0.1,0c-0.1,0.1-0.2,0.1-0.4,0.1
				c0-0.1-0.4,0-0.5,0c-0.3,0.1-0.5,0.1-0.9,0.1c0.1,0.1-0.1,0-0.1,0.1c-0.1,0-0.1,0-0.1,0l-0.2,0c-0.1,0,0.1,0,0.1-0.1
				c-0.2,0-0.1,0-0.2,0c0,0-0.1,0.1-0.1,0.1l0.1,0c-0.2,0.1-0.2-0.1-0.4,0l0.1,0c-0.1,0-0.4,0-0.5,0.1c0,0-0.1,0,0,0
				c-0.3,0-0.6,0.1-0.8,0.1l0,0c-0.1,0-0.1,0.1-0.2,0c0,0,0,0,0,0c0,0-0.1,0.1-0.2,0l0.1,0c-0.3,0-0.4,0.1-0.6,0.1
				c0-0.1-0.2-0.1-0.3-0.1l0,0c-0.3,0-0.5,0.1-0.8,0.1c-0.2-0.1-0.6,0-0.9-0.1c0,0,0,0.1-0.1,0.1c-0.1,0-0.2,0.1-0.2,0l0,0
				c-0.1-0.1-0.2,0-0.3,0l0,0.1c-0.3-0.1-0.8,0-0.9-0.1c-0.1,0-0.2,0-0.2,0l0,0c-0.2,0-0.3,0-0.5,0l0,0c-0.1,0-0.2,0.1-0.3,0.1
				l0-0.1c-0.2,0-0.5-0.1-0.7,0c0,0,0,0,0,0c-0.1,0-0.4-0.1-0.4,0c0-0.1-0.2,0-0.4,0l0,0c-0.1,0.1-0.1,0.1-0.3,0.1c0,0,0,0,0,0
				c-0.1,0-0.1,0-0.2,0l0.1,0c-0.1,0-0.1,0-0.2,0c-0.1,0-0.2,0-0.3-0.1c0,0-0.1,0.1-0.2,0c0,0,0,0,0,0c-0.2,0-0.3,0-0.4,0
				c0,0,0,0,0,0c0.2,0,0.3,0,0.3,0c0,0-0.1-0.1,0-0.1c-0.1,0-0.3,0.1-0.4,0.1c0,0,0,0,0,0l0,0c0,0-0.1,0-0.1,0c0,0-0.1,0-0.1,0
				c0,0-0.2,0-0.2,0c0,0-0.1,0,0,0.1c0,0,0,0,0.1,0c0,0,0,0,0,0l0,0c0,0,0.1,0,0.2,0c-0.1,0-0.1,0-0.2,0c0,0-0.1,0.1-0.1,0.1
				c-0.1-0.1-0.3-0.1-0.3-0.1c-0.2,0-0.5,0-0.6,0.1c-0.1,0-0.1,0-0.1,0c0,0,0.1,0,0.1,0c-0.1,0-0.3,0-0.4,0c-0.1,0,0.1,0-0.1-0.1
				l0,0c-0.4-0.1-0.6,0.1-1.1-0.1c0,0,0,0,0,0c-0.5-0.1-1,0-1.5-0.2c-0.1,0-0.2,0-0.2,0l0-0.1l-0.2,0c-0.2,0-0.3-0.2-0.6-0.1l0,0
				c-0.1,0-0.3,0-0.3-0.1c0,0,0,0-0.1,0l0,0l-0.2,0c-0.2-0.1,0-0.1-0.2-0.1c-0.1,0-0.3,0-0.3,0c0,0,0.1,0,0.1,0.1l-0.1,0
				c0,0.1-0.1,0.1,0.1,0.2l0.2,0l0,0l-0.1,0c0.1,0,0.1,0,0.2,0c0,0,0,0,0.1,0.1l0.2,0c0,0-0.1,0,0,0.1c0.1,0-0.1-0.1,0.1-0.1
				c0.1,0,0,0.1,0.1,0.1c0,0,0,0,0,0c0.1,0,0.2,0,0.2,0c0.1,0.1,0.3,0,0.2,0.1c0,0,0.1,0,0.2,0c-0.1,0.1,0.3,0,0.2,0.1
				c0.1-0.1,0.3,0,0.5,0c0,0,0,0,0,0c0.1,0,0.1,0,0.2,0.1c0-0.1,0.2-0.1,0.2-0.1c0.1,0.1-0.1,0.1,0,0.1c0-0.1,0.2,0,0.2-0.1
				c0.1,0,0.1,0,0.1,0.1c0-0.1,0.1,0,0.2,0C1046,520.3,1045.9,520.3,1046,520.3C1046.1,520.3,1046,520.3,1046,520.3z M1049.3,520.4
				L1049.3,520.4C1049.3,520.4,1049.3,520.4,1049.3,520.4C1049.3,520.4,1049.3,520.4,1049.3,520.4z M1049.6,520.4c0,0-0.1,0-0.1,0
				C1049.5,520.4,1049.5,520.4,1049.6,520.4C1049.5,520.4,1049.6,520.4,1049.6,520.4z M1049,520.1
				C1049.1,520.1,1049.1,520.1,1049,520.1C1049.1,520.1,1049,520.1,1049,520.1C1049,520.1,1049,520.1,1049,520.1
				C1049,520.1,1049,520.1,1049,520.1z"/>
			<path fill="#464547" d="M1048.9,520.1C1048.9,520.1,1048.9,520.1,1048.9,520.1C1048.9,520.1,1048.9,520.2,1048.9,520.1
				C1049,520.2,1049,520.1,1048.9,520.1C1049,520.1,1049,520.1,1048.9,520.1z"/>
			<path fill="#464547" d="M1072.9,514.7L1072.9,514.7C1072.9,514.7,1072.9,514.7,1072.9,514.7L1072.9,514.7z"/>
			<polygon fill="#464547" points="1053.4,520.6 1053.4,520.6 1053.4,520.6 			"/>
			<path fill="#464547" d="M1074.2,514C1074.2,514,1074.2,514,1074.2,514C1074.2,514,1074.2,514,1074.2,514z"/>
			<path fill="#464547" d="M1074.7,513.6L1074.7,513.6C1074.8,513.6,1074.8,513.6,1074.7,513.6z"/>
			<path fill="#464547" d="M1075.2,513.3C1075.2,513.3,1075.2,513.3,1075.2,513.3L1075.2,513.3L1075.2,513.3z"/>
			<path fill="#464547" d="M1068.3,517.6C1068.3,517.6,1068.3,517.6,1068.3,517.6C1068.3,517.7,1068.3,517.7,1068.3,517.6z"/>
			<path fill="#464547" d="M1070.4,516.4C1070.4,516.4,1070.4,516.4,1070.4,516.4C1070.4,516.4,1070.4,516.4,1070.4,516.4z"/>
			<polygon fill="#464547" points="1065.9,518.8 1065.9,518.8 1065.9,518.8 			"/>
			<path fill="#464547" d="M1070.3,516.5C1070.3,516.5,1070.3,516.5,1070.3,516.5C1070.3,516.5,1070.3,516.5,1070.3,516.5z"/>
			<polygon fill="#464547" points="1076.9,512 1077,512 1077,512 			"/>
			<path fill="#464547" d="M1077,512L1077,512C1077,512,1077,512,1077,512z"/>
			<path fill="#464547" d="M1077,511.9L1077,511.9C1077,511.9,1077,511.9,1077,511.9z"/>
			<path fill="#464547" d="M1076.4,512.4L1076.4,512.4C1076.4,512.4,1076.4,512.4,1076.4,512.4z"/>
			<path fill="#464547" d="M1076.2,512.5c0,0,0.1,0,0.2-0.1l0,0C1076.4,512.4,1076.3,512.5,1076.2,512.5z"/>
			<path fill="#464547" d="M1075.4,512.9l0.1-0.1c0,0-0.1,0,0,0C1075.4,512.8,1075.6,512.7,1075.4,512.9z"/>
			<path fill="#464547" d="M1075,513.2C1075.1,513.1,1075,513.1,1075,513.2C1074.9,513.2,1074.9,513.2,1075,513.2z"/>
			<path fill="#464547" d="M1071.8,515.3L1071.8,515.3C1071.8,515.3,1071.8,515.3,1071.8,515.3z"/>
			<polygon fill="#464547" points="1071.3,515.9 1071.4,515.9 1071.4,515.8 			"/>
			<polygon fill="#464547" points="1070.8,515.9 1070.8,515.8 1070.7,515.9 			"/>
			<path fill="#464547" d="M1065.1,518.7L1065.1,518.7C1065.1,518.7,1065.1,518.6,1065.1,518.7z"/>
			<path fill="#464547" d="M1062.4,519.5c0,0-0.1,0-0.2,0C1062.3,519.5,1062.4,519.5,1062.4,519.5z"/>
			<polygon fill="#464547" points="1054.2,520.2 1054.2,520.2 1054.1,520.2 			"/>
		</g>
		<g>
			<path fill="#464547" d="M1078.2,515.9C1078.2,515.8,1078.2,515.8,1078.2,515.9L1078.2,515.9L1078.2,515.9z"/>
			<path fill="#464547" d="M1078,516.2c0,0.1,0,0.1,0.1,0.1C1078.1,516.2,1078.1,516.2,1078,516.2c0.1-0.1,0.1-0.1,0.1-0.1
				c0,0,0-0.1,0-0.1C1078.1,516,1078.1,516.1,1078,516.2C1078,516.2,1078,516.2,1078,516.2z"/>
			<path fill="#464547" d="M1074.3,519.3L1074.3,519.3C1074.3,519.3,1074.3,519.3,1074.3,519.3z"/>
			<path fill="#464547" d="M1071.5,520.5C1071.5,520.5,1071.5,520.5,1071.5,520.5C1071.5,520.5,1071.5,520.5,1071.5,520.5z"/>
			<path fill="#464547" d="M1071,520.6C1071,520.6,1071,520.6,1071,520.6C1071,520.6,1071,520.6,1071,520.6z"/>
			<path fill="#464547" d="M1074.3,519.3L1074.3,519.3C1074.2,519.3,1074.3,519.3,1074.3,519.3z"/>
			<path fill="#464547" d="M1077.8,516.8C1077.8,516.8,1077.8,516.8,1077.8,516.8C1077.8,516.8,1077.8,516.8,1077.8,516.8
				L1077.8,516.8z"/>
			<path fill="#464547" d="M1075.5,518.6L1075.5,518.6C1075.5,518.6,1075.5,518.6,1075.5,518.6L1075.5,518.6z"/>
			<path fill="#464547" d="M1076.3,518C1076.3,518,1076.3,518.1,1076.3,518C1076.3,518.1,1076.3,518,1076.3,518
				C1076.3,518,1076.3,518,1076.3,518z"/>
			<path fill="#464547" d="M1077.5,516.9L1077.5,516.9C1077.5,516.9,1077.5,516.9,1077.5,516.9z"/>
			<path fill="#464547" d="M1074.8,519C1074.8,519,1074.8,519,1074.8,519C1074.8,519,1074.8,519,1074.8,519z"/>
			<path fill="#464547" d="M1046.6,524.5C1046.6,524.5,1046.6,524.5,1046.6,524.5C1046.6,524.5,1046.6,524.5,1046.6,524.5z"/>
			<path fill="#464547" d="M1045.5,524.1L1045.5,524.1C1045.5,524.1,1045.5,524.1,1045.5,524.1L1045.5,524.1z"/>
			<path fill="#464547" d="M1070.1,520.9L1070.1,520.9C1070.1,520.9,1070.1,520.9,1070.1,520.9z"/>
			<path fill="#464547" d="M1061.7,523.4C1061.8,523.4,1061.5,523.5,1061.7,523.4C1061.6,523.5,1061.8,523.4,1061.7,523.4z"/>
			<path fill="#464547" d="M1077.8,516.9L1077.8,516.9C1077.8,516.9,1077.8,516.9,1077.8,516.9z"/>
			<path fill="#464547" d="M1061.7,523.5L1061.7,523.5L1061.7,523.5C1061.7,523.5,1061.7,523.5,1061.7,523.5z"/>
			<path fill="#464547" d="M1068,521.7C1068,521.7,1068,521.7,1068,521.7C1068,521.7,1068,521.7,1068,521.7z"/>
			<path fill="#464547" d="M1069.6,521.2L1069.6,521.2C1069.6,521.2,1069.6,521.2,1069.6,521.2z"/>
			<path fill="#464547" d="M1067.2,522C1067.2,522,1067.2,522,1067.2,522C1067.2,522,1067.2,522,1067.2,522
				C1067.2,522,1067.2,522,1067.2,522z"/>
			<path fill="#464547" d="M1066.4,522.3C1066.4,522.3,1066.4,522.3,1066.4,522.3C1066.4,522.3,1066.4,522.3,1066.4,522.3
				L1066.4,522.3z"/>
			<path fill="#464547" d="M1049.3,524.7C1049.3,524.6,1049.3,524.6,1049.3,524.7C1049.3,524.6,1049.2,524.6,1049.3,524.7z"/>
			<path fill="#464547" d="M1077.8,516.8C1077.8,516.8,1077.8,516.8,1077.8,516.8C1077.8,516.8,1077.8,516.8,1077.8,516.8
				C1077.8,516.8,1077.8,516.8,1077.8,516.8z"/>
			<path fill="#464547" d="M1067.3,522.4l-0.1,0C1067.2,522.4,1067.2,522.4,1067.3,522.4z"/>
			<path fill="#464547" d="M1055.8,524.6L1055.8,524.6C1055.7,524.6,1055.8,524.6,1055.8,524.6z"/>
			<path fill="#464547" d="M1066.8,522.5C1066.7,522.5,1066.7,522.5,1066.8,522.5C1066.7,522.5,1066.7,522.6,1066.8,522.5
				L1066.8,522.5z"/>
			<path fill="#464547" d="M1049.3,524.6L1049.3,524.6L1049.3,524.6z"/>
			<path fill="#464547" d="M1048.4,524.7C1048.5,524.7,1048.4,524.6,1048.4,524.7c0.3-0.1,0.2,0,0.2,0c0.1,0,0.2-0.1,0.3-0.1
				c0,0,0,0,0,0c0.1,0,0.3,0,0.4,0c0,0,0,0,0,0c0,0,0-0.1,0-0.1c0.1,0,0.1,0,0.1,0c0,0,0,0-0.1,0l0.1,0c0.1,0.1-0.1,0-0.1,0.1
				c0.1,0,0.3-0.1,0.4,0c0,0.1-0.2,0-0.1,0.1l-0.1,0c0.1,0.1-0.1,0,0,0.1c0.2,0,0.2,0,0.4,0c0,0,0,0,0-0.1c0.3,0,0.2,0.2,0.4,0.1
				c0.1,0,0.1-0.1,0.2-0.1l-0.1,0.1c0.2,0,0.1-0.1,0.3,0c0,0-0.1,0-0.1,0c0.1,0.1,0.1,0,0.2,0l0,0.1c0.2,0,0.4,0,0.6,0
				c0,0-0.1,0,0,0.1c0.3,0,0.6,0,0.9,0l0.1,0c0,0,0,0,0,0c0.1,0,0,0,0.1,0c0.1,0,0.1,0,0,0c0.2,0,0.5-0.1,0.7,0l0,0
				c0.2,0,0.2-0.1,0.3-0.1l0,0c0.3,0,0.7-0.1,0.9,0c0-0.1,0.3,0,0.3-0.1c0.2,0,0.1,0.1,0.4,0.1c0.1,0,0.1-0.1,0.2-0.1l0,0l0.1-0.1
				l0.1,0.1l0.1,0c0,0-0.1,0-0.1,0c0.1,0,0.3,0,0.3,0l0.3-0.1c0,0-0.1,0-0.1,0c0.2-0.1,0,0.1,0.2,0c0,0,0,0,0,0c0.1,0,0.2,0,0.4,0
				l0,0c0.2,0,0.5-0.1,0.7-0.1c-0.1,0-0.1-0.1,0-0.1l0,0c0,0-0.1,0,0-0.1c0.1,0,0.1,0.1,0,0.1l0.1,0c0,0,0,0,0,0c0,0,0.2,0,0.3,0
				l0,0c0.3,0,0.4-0.1,0.6-0.1c0,0,0.1,0,0.1-0.1c0.2,0,0.3,0,0.5,0c0.1,0,0,0,0.1-0.1c0,0,0.2,0,0.1,0.1c0.2,0,0.3,0,0.5-0.1
				c0,0-0.1,0-0.1,0c0,0,0.1,0,0.1,0l0,0c0.3-0.1,0.7,0,1-0.1l0,0l0.2-0.1c0.1,0-0.1,0,0,0.1c0.3-0.1,0.4-0.1,0.6-0.2
				c0.2,0.1,0.6-0.1,0.9-0.1l0,0c0.1,0,0.1,0,0.1,0c0,0-0.1,0,0,0c0.5-0.1,1.1-0.2,1.6-0.3c0.2,0,0.1-0.2,0.3-0.2l-0.1,0.1
				c0.4-0.2,0.8-0.2,1.1-0.4c0,0,0,0-0.1,0c0.1,0,0.3-0.1,0.3-0.1c0.1,0,0,0,0.1,0c0.1,0,0.2-0.1,0.2-0.1c0,0,0,0,0,0
				c0,0,0.2-0.1,0.2-0.1c0.1,0,0.3-0.1,0.4-0.1c0.1-0.1,0.2,0,0.2-0.1c0,0.1,0.3,0,0.3-0.1c0,0,0.1,0,0.1,0c0.1,0,0.2-0.1,0.2-0.1
				c0.2,0,0.3-0.2,0.5-0.1c0.3-0.1,0.5-0.3,0.8-0.4c0,0.1-0.3,0.1-0.3,0.2c0.2-0.1,0.4-0.2,0.6-0.3c0.1,0,0,0,0,0.1
				c0.2-0.1,0.5-0.2,0.7-0.3c0,0,0,0,0,0c0,0,0.1,0,0.1-0.1l0,0c-0.1,0,0.1-0.2,0.1-0.2c0,0.1,0.2-0.1,0.2,0.1c0,0,0.1,0,0-0.1
				c0,0,0.1,0,0,0c0.1-0.1,0.1-0.1,0.2-0.1c0,0,0,0,0,0.1c0.1-0.1,0.1-0.1,0.2-0.1c0,0,0,0,0,0c0.2-0.1,0.3-0.2,0.5-0.3
				c0,0.1,0.1,0,0.1,0l0.1-0.1l-0.1,0c0.1,0,0.2-0.1,0.3-0.1l-0.1,0.1l0.2-0.1l-0.1,0c0.1-0.1,0-0.1,0.1-0.1c0,0,0.1,0,0.2,0l0,0
				c0,0,0.1-0.1,0.2-0.1c0,0,0,0.1,0,0.1c0-0.1,0.2-0.1,0.3-0.2c0,0,0,0.1,0,0.1l0-0.1c0.1,0,0.1,0,0.1,0c0.1-0.1-0.1-0.1,0.1-0.1
				c0,0,0,0,0,0c0.2-0.1,0.3-0.2,0.5-0.2c0.1,0-0.1,0.1-0.1,0.1c0.2-0.1,0.4-0.3,0.7-0.4l0,0c0-0.1,0.2,0,0.3-0.1c0,0,0,0.1,0,0
				c0.2-0.1,0.3-0.2,0.5-0.3l0,0c0.1,0,0.2-0.1,0.3-0.1c0,0,0.1-0.1,0-0.1c0.3,0,0.5-0.4,0.8-0.4c0,0-0.1,0.1,0,0
				c0.1,0,0.1-0.1,0.2-0.1c0,0,0,0-0.1,0c0,0,0.1-0.1,0.1-0.1c-0.1,0.1,0,0.1,0.1,0c0,0,0,0,0,0c0.1,0,0-0.1,0.1-0.1l0,0
				c0,0,0.1-0.1,0.1-0.1c0,0,0,0.1,0,0.1c0.1-0.1,0.1-0.2,0.2-0.2c0,0-0.1,0.1-0.1,0.1c0.1,0,0.1,0,0.2-0.1l0,0l0.1-0.1l0,0
				c0-0.2,0.2-0.2,0.3-0.3c-0.1,0.2,0,0,0,0.1c0,0,0.1,0,0.1,0c0-0.1,0.1-0.1,0.2-0.2c0,0,0.1-0.1,0.1,0c0.1-0.1,0,0,0,0
				c0.1-0.1,0.3-0.2,0.4-0.4c0.1-0.2,0.1-0.2,0.2-0.4c0.1,0,0,0.1,0,0.1c0.1-0.1,0.1-0.1,0.2-0.2c0,0,0,0,0.1,0c0-0.1,0-0.1,0.1-0.1
				c0,0,0,0.1,0,0.1c0-0.1,0.1-0.2,0.1-0.3c0,0,0,0.1,0,0.1c0-0.1,0.1-0.3,0.1-0.3l0,0.1c0,0,0,0,0,0c0,0.1-0.1,0.1-0.1,0.1l0-0.1
				c-0.1,0-0.1,0.2-0.2,0.3c0,0,0-0.1,0-0.1c0,0,0,0.1,0,0.1c0,0-0.1,0,0-0.1c-0.1,0.1,0,0.1-0.1,0.1c0,0,0,0,0,0c0,0,0,0.1,0,0.1
				c0,0,0,0,0-0.1c-0.1,0.1-0.1,0.2-0.2,0.2l0,0c-0.1,0.2,0,0,0,0.2c-0.1,0-0.1,0-0.2,0l0,0.1c0,0-0.1,0-0.1,0c0,0.1,0,0,0,0.1
				c-0.1,0-0.2,0.2-0.3,0.2c0,0.1,0.1-0.1,0,0c-0.1,0-0.1,0.1-0.2,0.1c0-0.1,0.1-0.1,0-0.1c0,0.1-0.2,0.1-0.2,0.2
				c0,0-0.1,0.1-0.2,0.2c0,0-0.2,0.1-0.4,0.2l0,0c0,0.1-0.1,0.1-0.2,0.2c0,0,0-0.1,0-0.1l-0.1,0.1c0,0,0,0.1-0.1,0.1l0-0.1
				c-0.1,0.1-0.2,0.2-0.3,0.2c0,0,0.2,0,0,0.1c0,0,0,0,0-0.1c0,0,0,0-0.1,0l0-0.1c-0.1,0,0,0-0.1,0.1c0,0,0,0-0.1,0c0,0,0.1,0,0.1,0
				c-0.1,0-0.1,0.1-0.2,0c0,0,0,0,0,0.1c-0.1,0.1-0.1,0-0.1,0c0,0-0.1,0.1-0.1,0.1c0,0,0,0-0.1,0c0,0-0.3,0.1-0.2,0.2l0,0
				c0,0,0,0,0,0l0,0l0,0c-0.2,0.1-0.4,0.2-0.6,0.3l0,0c-0.1,0.1-0.3,0.1-0.3,0.2c0,0-0.1,0-0.1,0c-0.1,0.1-0.1,0.1-0.2,0.1
				c0.1-0.1,0,0,0.1-0.1c-0.1,0-0.2,0-0.3,0.1c0-0.1-0.1,0-0.2,0l0.1,0c-0.1,0-0.1,0.1-0.2,0.1l0-0.1c-0.3,0-0.4,0.3-0.6,0.3
				c0,0.1,0.1,0,0.1,0c-0.1,0-0.3,0-0.3,0c-0.2,0-0.1,0.1-0.3,0.2c0,0,0.1,0,0,0.1c-0.1,0-0.2,0-0.1-0.1c0,0,0,0,0,0c0,0,0.1,0,0,0
				l0,0c-0.1,0-0.2,0.1-0.2,0c-0.1,0.1,0,0,0,0c-0.2,0-0.2,0.1-0.4,0.1c0,0,0.1,0,0,0c-0.2,0.1-0.1,0.1-0.2,0.1c-0.1,0,0-0.1-0.1,0
				c-0.1,0,0,0,0-0.1c-0.1,0.1-0.3,0.1-0.3,0.1l0.1,0c0,0-0.1,0-0.1,0.1l0.1,0c0,0-0.1,0-0.1,0c0,0,0.1,0,0,0.1
				c-0.1,0-0.2,0.1-0.2,0c0.2,0,0,0,0.1-0.1c0,0-0.1,0-0.1,0c0,0,0,0,0,0c-0.2,0-0.1,0.1-0.2,0.1c0,0-0.1,0-0.1,0c0.1,0,0.1,0,0,0.1
				c-0.1,0-0.1,0.1-0.2,0.1l0.1,0c0,0-0.1,0.1-0.1,0.1c0,0,0.1,0,0,0c-0.1,0.1-0.2,0-0.3,0.1c-0.1,0,0,0-0.1,0
				c-0.1,0.1-0.2,0-0.3,0.1c0.1,0,0.1,0,0,0.1l0.2-0.1l-0.1,0.1c0.1,0,0.1-0.1,0.2-0.1c-0.1,0.1-0.1,0,0,0.1c-0.1,0-0.2,0.1-0.3,0.1
				l0-0.1c-0.2,0-0.3,0.1-0.5,0.2l0.1,0c0,0-0.1,0.1-0.2,0.1c0,0-0.1,0-0.1,0c0,0-0.2,0.1-0.2,0.1l-0.1,0c-0.2,0-0.2,0.2-0.3,0.2
				c0-0.1,0,0,0.1-0.1c-0.1,0-0.1,0-0.1,0.1c0,0-0.1,0.1-0.2,0.1c0,0,0,0.1-0.1,0.1c0,0,0,0,0,0c0,0-0.1,0.1,0,0.1
				c-0.2,0-0.5,0.2-0.7,0.1c-0.1,0-0.3,0.1-0.4,0.1c0,0,0,0,0,0c-0.2,0-0.1,0.1-0.3,0.1c-0.1,0,0.1-0.1,0-0.1
				c-0.1-0.1-0.2,0.1-0.4,0l0,0c-0.1,0-0.2,0.1-0.4,0.1c0,0,0,0,0,0c-0.1,0.1-0.3,0.1-0.4,0.2c0-0.1,0.1,0,0-0.1
				c-0.1,0,0,0.1-0.1,0.1c0,0-0.1,0-0.2,0l0.1,0c-0.1,0-0.2,0-0.2,0.1l0,0c-0.2,0.1-0.2,0.1-0.4,0.2l0,0c-0.1,0.1-0.1,0-0.2,0.1
				l0-0.1c-0.1,0-0.2,0.1-0.4,0.2c0.1-0.1,0.2-0.1,0.3-0.2c-0.1,0-0.2,0.1-0.3,0.1c0,0,0.1,0,0.1,0c-0.1,0.1-0.2,0.1-0.3,0.2
				c0-0.1-0.4,0.1-0.5,0c-0.2,0.1-0.5,0.1-0.8,0.2c0.1,0.1-0.1,0,0,0.1c-0.1,0-0.1,0-0.1,0l-0.2,0c-0.1,0,0.1,0,0.1-0.1
				c-0.2,0-0.1,0-0.2,0c0,0,0,0.1-0.1,0.1l0.1,0c-0.2,0.1-0.2,0-0.4,0l0.1,0c-0.1,0-0.4,0.1-0.5,0.2c0,0-0.1,0,0,0
				c-0.3,0-0.6,0.2-0.8,0.2l0,0c0,0-0.1,0.1-0.1,0c0,0,0,0,0,0c0,0-0.1,0.1-0.2,0.1l0.1,0c-0.3,0-0.4,0.1-0.6,0.2
				c0-0.1-0.2-0.1-0.3-0.1l0,0c-0.3,0-0.5,0.1-0.8,0.2c-0.2-0.1-0.6,0-0.9,0c0,0,0,0.1-0.1,0.1c-0.1,0-0.2,0.1-0.2,0l0,0
				c-0.1-0.1-0.2,0-0.3,0l0,0.1c-0.3-0.1-0.7,0.1-0.9,0c-0.1,0-0.1,0-0.2,0.1l0,0c-0.2,0-0.3,0-0.5,0l0,0c-0.1,0-0.2,0.1-0.3,0.1
				l0-0.1c-0.2,0-0.5,0-0.7,0c0,0,0,0,0,0c-0.1,0-0.4,0-0.4,0.1c0-0.1-0.2,0-0.4,0l0,0c-0.1,0.1-0.1,0.1-0.2,0.1c0,0,0,0,0,0
				c-0.1,0-0.1,0-0.2,0l0.1,0c-0.1,0-0.1,0-0.2,0c-0.1,0-0.2,0-0.2,0c0,0-0.1,0.1-0.1,0c0,0,0,0,0,0c-0.2,0-0.3,0.1-0.4,0
				c0,0,0,0,0,0c0.2,0,0.3,0,0.3,0c0,0-0.1,0,0-0.1c-0.1,0-0.3,0.1-0.4,0.1c0,0,0,0,0,0l0,0c0,0-0.1,0-0.1,0c0,0-0.1,0-0.1,0
				c0,0-0.1,0-0.2,0c0,0-0.1,0,0,0.1c0,0,0,0,0.1,0c0,0,0,0,0,0l0,0c0,0,0.1,0,0.2,0c0,0-0.1,0-0.2,0c0,0-0.1,0.1-0.1,0.1
				c-0.1-0.1-0.3-0.1-0.3-0.1c-0.2,0-0.5,0-0.6,0.1c-0.1,0-0.1,0-0.1,0c0,0,0.1,0,0.1,0c-0.1,0-0.3,0-0.4,0.1
				c-0.1,0,0.1-0.1-0.1-0.1l0,0c-0.4-0.1-0.6,0.1-1,0c0,0,0,0,0,0c-0.5-0.1-1,0-1.4-0.1c-0.1,0-0.1,0-0.2,0l0-0.1l-0.1,0
				c-0.2,0-0.3-0.2-0.6-0.1l0,0c-0.1,0-0.3,0-0.3,0c0,0,0,0-0.1,0l0,0l-0.2,0c-0.2,0,0-0.1-0.2-0.1c-0.1,0-0.3,0-0.2,0.1
				c0,0,0.1,0,0.1,0.1l-0.1,0c0,0.1-0.1,0.1,0.1,0.2l0.1,0l0,0l-0.1,0c0.1,0,0.1,0,0.2,0c0,0,0,0,0.1,0l0.1-0.1c0,0-0.1,0.1,0,0.1
				c0.1,0-0.1-0.1,0.1-0.1c0.1,0,0,0.1,0.1,0c0,0,0,0,0,0c0.1,0,0.2,0,0.2,0c0.1,0.1,0.2,0,0.2,0.1c0,0,0.1,0,0.2,0
				c-0.1,0.1,0.2,0,0.2,0.1c0.1-0.1,0.3,0,0.5,0c0,0,0,0,0,0c0.1,0,0.1,0,0.2,0.1c0-0.1,0.2-0.1,0.2-0.1c0.1,0.1-0.1,0.1,0,0.1
				c0-0.1,0.2,0,0.2-0.1c0.1,0,0.1,0,0.1,0.1c0-0.1,0.1,0,0.2-0.1C1048.4,524.6,1048.3,524.6,1048.4,524.7
				C1048.5,524.6,1048.4,524.7,1048.4,524.7z M1051.5,524.6L1051.5,524.6C1051.5,524.6,1051.5,524.6,1051.5,524.6
				C1051.5,524.6,1051.5,524.6,1051.5,524.6z M1051.8,524.6c0,0-0.1,0-0.1,0C1051.7,524.6,1051.7,524.6,1051.8,524.6
				C1051.7,524.6,1051.8,524.6,1051.8,524.6z M1051.2,524.3C1051.3,524.3,1051.3,524.3,1051.2,524.3
				C1051.3,524.3,1051.3,524.3,1051.2,524.3C1051.2,524.3,1051.2,524.3,1051.2,524.3C1051.2,524.3,1051.2,524.3,1051.2,524.3z"/>
			<path fill="#464547" d="M1051.2,524.4C1051.2,524.4,1051.2,524.4,1051.2,524.4C1051.2,524.4,1051.2,524.4,1051.2,524.4
				L1051.2,524.4C1051.2,524.4,1051.2,524.4,1051.2,524.4z"/>
			<polygon fill="#464547" points="1074.4,519.3 1074.4,519.3 1074.4,519.3 			"/>
			<polygon fill="#464547" points="1055.5,524.6 1055.5,524.6 1055.4,524.6 			"/>
			<path fill="#464547" d="M1075.7,518.7C1075.7,518.7,1075.7,518.7,1075.7,518.7C1075.7,518.7,1075.7,518.7,1075.7,518.7z"/>
			<path fill="#464547" d="M1076.2,518.3L1076.2,518.3C1076.3,518.3,1076.3,518.3,1076.2,518.3z"/>
			<path fill="#464547" d="M1076.6,518.1C1076.6,518.1,1076.6,518.1,1076.6,518.1L1076.6,518.1L1076.6,518.1z"/>
			<path fill="#464547" d="M1069.7,521.5C1069.7,521.5,1069.7,521.5,1069.7,521.5C1069.7,521.5,1069.7,521.5,1069.7,521.5z"/>
			<path fill="#464547" d="M1071.8,520.6C1071.8,520.6,1071.8,520.6,1071.8,520.6C1071.8,520.6,1071.8,520.6,1071.8,520.6z"/>
			<polygon fill="#464547" points="1067.3,522.4 1067.3,522.4 1067.3,522.4 			"/>
			<path fill="#464547" d="M1071.7,520.7C1071.7,520.7,1071.7,520.6,1071.7,520.7C1071.7,520.6,1071.7,520.6,1071.7,520.7z"/>
			<polygon fill="#464547" points="1078,516.4 1078.1,516.4 1078,516.4 			"/>
			<path fill="#464547" d="M1078,516.4L1078,516.4C1078,516.4,1078,516.4,1078,516.4z"/>
			<path fill="#464547" d="M1078.1,516.3C1078.1,516.4,1078.1,516.4,1078.1,516.3C1078.1,516.4,1078.1,516.4,1078.1,516.3z"/>
			<path fill="#464547" d="M1077.7,517L1077.7,517C1077.7,517,1077.7,517,1077.7,517z"/>
			<path fill="#464547" d="M1077.6,517.2c0,0,0.1-0.1,0.1-0.1l0,0C1077.7,517.1,1077.6,517.1,1077.6,517.2z"/>
			<path fill="#464547" d="M1076.8,517.6c0,0,0.1-0.1,0.1-0.1c0,0-0.1,0,0,0C1076.8,517.6,1077,517.5,1076.8,517.6z"/>
			<path fill="#464547" d="M1076.5,517.9C1076.5,517.9,1076.4,517.9,1076.5,517.9C1076.4,517.9,1076.4,518,1076.5,517.9z"/>
			<path fill="#464547" d="M1073.3,519.7L1073.3,519.7C1073.3,519.7,1073.3,519.7,1073.3,519.7z"/>
			<polygon fill="#464547" points="1072.8,520.2 1072.8,520.2 1072.8,520.2 			"/>
			<polygon fill="#464547" points="1072.3,520.1 1072.3,520.1 1072.2,520.2 			"/>
			<path fill="#464547" d="M1066.5,522.2L1066.5,522.2C1066.6,522.2,1066.6,522.2,1066.5,522.2z"/>
			<path fill="#464547" d="M1064,523c0,0-0.1,0-0.1,0C1063.9,523,1063.9,523,1064,523z"/>
			<polygon fill="#464547" points="1056.1,524.1 1056.2,524.1 1056.1,524.1 			"/>
		</g>
		<g>
			<path fill="#464547" d="M1065.8,526.4C1065.8,526.4,1065.8,526.3,1065.8,526.4L1065.8,526.4L1065.8,526.4z"/>
			<path fill="#464547" d="M1065.7,526.3c0,0,0,0.1,0,0.1C1065.7,526.4,1065.7,526.4,1065.7,526.3
				C1065.7,526.3,1065.8,526.3,1065.7,526.3C1065.8,526.3,1065.8,526.4,1065.7,526.3C1065.8,526.3,1065.7,526.3,1065.7,526.3
				C1065.7,526.3,1065.7,526.3,1065.7,526.3z"/>
			<path fill="#464547" d="M1064.1,526.7L1064.1,526.7C1064.1,526.7,1064.1,526.7,1064.1,526.7z"/>
			<path fill="#464547" d="M1063.1,526.9C1063.1,526.9,1063.1,526.9,1063.1,526.9C1063.1,526.9,1063.1,526.9,1063.1,526.9z"/>
			<path fill="#464547" d="M1062.9,526.9L1062.9,526.9C1062.9,526.9,1062.9,526.9,1062.9,526.9z"/>
			<path fill="#464547" d="M1064.1,526.7L1064.1,526.7C1064,526.7,1064.1,526.7,1064.1,526.7z"/>
			<path fill="#464547" d="M1065.5,526.5C1065.5,526.5,1065.5,526.5,1065.5,526.5C1065.5,526.5,1065.5,526.5,1065.5,526.5
				L1065.5,526.5z"/>
			<path fill="#464547" d="M1064.5,526.5L1064.5,526.5C1064.5,526.5,1064.5,526.5,1064.5,526.5L1064.5,526.5z"/>
			<path fill="#464547" d="M1064.8,526.4C1064.8,526.4,1064.8,526.5,1064.8,526.4C1064.8,526.5,1064.8,526.5,1064.8,526.4
				C1064.8,526.5,1064.8,526.4,1064.8,526.4z"/>
			<path fill="#464547" d="M1065.4,526.3L1065.4,526.3C1065.4,526.3,1065.4,526.3,1065.4,526.3z"/>
			<path fill="#464547" d="M1064.3,526.6C1064.3,526.6,1064.2,526.6,1064.3,526.6C1064.2,526.6,1064.2,526.6,1064.3,526.6z"/>
			<path fill="#464547" d="M1054.5,528C1054.5,528,1054.5,528,1054.5,528C1054.5,528,1054.5,528,1054.5,528z"/>
			<polygon fill="#464547" points="1054.1,527.7 1054.1,527.7 1054.1,527.7 			"/>
			<path fill="#464547" d="M1062.5,526.9L1062.5,526.9C1062.5,526.9,1062.5,526.9,1062.5,526.9z"/>
			<path fill="#464547" d="M1059.6,527.4C1059.7,527.5,1059.6,527.5,1059.6,527.4C1059.6,527.5,1059.7,527.4,1059.6,527.4z"/>
			<path fill="#464547" d="M1065.5,526.5C1065.5,526.5,1065.5,526.5,1065.5,526.5C1065.5,526.5,1065.5,526.5,1065.5,526.5z"/>
			<polygon fill="#464547" points="1059.6,527.5 1059.6,527.5 1059.6,527.5 			"/>
			<path fill="#464547" d="M1061.8,527.1C1061.8,527.1,1061.8,527.1,1061.8,527.1C1061.8,527.1,1061.8,527.1,1061.8,527.1z"/>
			<path fill="#464547" d="M1062.4,527L1062.4,527C1062.4,527,1062.4,527,1062.4,527z"/>
			<path fill="#464547" d="M1061.5,527.2C1061.5,527.2,1061.5,527.2,1061.5,527.2C1061.5,527.2,1061.5,527.2,1061.5,527.2
				C1061.5,527.2,1061.5,527.2,1061.5,527.2z"/>
			<polygon fill="#464547" points="1061.2,527.3 1061.3,527.3 1061.3,527.3 			"/>
			<path fill="#464547" d="M1055.4,528C1055.4,528,1055.4,528,1055.4,528C1055.4,528,1055.4,528,1055.4,528z"/>
			<path fill="#464547" d="M1065.5,526.5C1065.5,526.5,1065.5,526.5,1065.5,526.5L1065.5,526.5
				C1065.5,526.5,1065.5,526.5,1065.5,526.5z"/>
			<path fill="#464547" d="M1061.6,527.6L1061.6,527.6C1061.6,527.6,1061.6,527.6,1061.6,527.6z"/>
			<path fill="#464547" d="M1057.6,528L1057.6,528C1057.6,528,1057.6,528,1057.6,528z"/>
			<path fill="#464547" d="M1061.4,527.6C1061.4,527.6,1061.4,527.6,1061.4,527.6C1061.4,527.6,1061.4,527.6,1061.4,527.6
				L1061.4,527.6z"/>
			<path fill="#464547" d="M1055.4,527.9L1055.4,527.9L1055.4,527.9z"/>
			<path fill="#464547" d="M1055.1,528C1055.2,528,1055.1,528,1055.1,528C1055.2,527.9,1055.2,528,1055.1,528c0.1,0,0.1-0.1,0.2-0.1
				c0,0,0,0,0,0c0,0,0.1,0,0.2-0.1c0,0,0,0,0,0c0,0,0-0.1,0-0.1c0,0,0,0,0,0c0,0,0,0,0,0l0,0c0,0.1,0,0,0,0.1c0,0,0.1-0.1,0.1,0
				c0,0.1-0.1,0,0,0.1l0,0c0,0.1,0,0,0,0.1c0.1,0,0.1,0,0.1,0c0,0,0,0,0-0.1c0.1-0.1,0.1,0.1,0.1,0.1c0,0,0-0.1,0.1-0.1l0,0.1
				c0.1,0,0-0.1,0.1,0c0,0-0.1,0,0,0c0,0,0,0,0.1,0l0,0.1c0.1,0,0.1,0,0.2-0.1c0,0,0,0,0,0.1c0.1,0,0.2,0,0.3,0l0,0c0,0,0,0,0,0
				c0,0,0,0,0,0c0,0,0,0,0,0c0.1,0,0.2-0.1,0.2,0l0,0c0.1,0,0.1-0.1,0.1-0.1l0,0c0.1,0,0.2,0,0.3,0c0-0.1,0.1,0,0.1-0.1
				c0.1,0,0,0.1,0.1,0.1c0,0,0-0.1,0.1-0.1l0,0l0-0.1l0,0.1l0,0c0,0,0,0,0,0c0,0,0.1,0,0.1,0.1l0.1,0c0,0,0,0,0,0
				c0.1-0.1,0,0.1,0.1,0c0,0,0,0,0,0c0,0,0.1,0,0.1,0l0,0c0.1,0,0.2,0,0.2,0c0,0,0-0.1,0-0.1l0,0.1c0,0,0,0,0-0.1c0,0,0,0.1,0,0.1
				l0,0c0,0,0,0,0,0c0,0,0.1,0,0.1,0l0,0c0.1,0,0.1,0,0.2,0c0,0,0,0,0-0.1c0.1,0,0.1,0,0.2,0c0,0,0,0,0-0.1c0,0,0.1,0,0,0.1
				c0.1,0,0.1,0,0.2-0.1c0,0,0,0,0,0c0,0,0,0,0,0l0,0c0.1-0.1,0.3,0.1,0.3,0l0,0l0.1-0.1c0,0,0,0,0,0.1c0.1-0.1,0.1,0,0.2-0.1
				c0.1,0.1,0.2,0,0.3,0l0,0c0,0,0,0,0,0c0,0,0,0,0,0c0.2-0.1,0.4,0,0.5,0c0.1,0,0-0.2,0.1-0.1l0,0.1c0.1-0.1,0.3,0,0.4-0.1
				c0,0,0,0,0,0c0,0,0.1,0,0.1,0c0,0,0,0,0,0c0,0,0.1-0.1,0.1,0c0,0,0,0,0,0c0,0,0.1,0,0.1-0.1c0.1,0,0.1,0,0.1,0
				c0-0.1,0.1,0,0.1-0.1c0,0.1,0.1,0,0.1,0c0,0,0,0,0,0.1c0,0,0.1,0,0.1-0.1c0.1,0.1,0.1-0.1,0.2,0c0.1-0.1,0.2-0.1,0.3-0.1
				c0,0.1-0.1,0-0.1,0.1c0.1,0,0.1-0.1,0.2-0.1c0,0,0,0,0,0c0.1,0,0.2,0,0.2-0.1c0,0,0,0,0,0c0,0,0,0,0,0l0,0c0,0,0-0.1,0-0.1
				c0,0.1,0.1,0,0.1,0.1c0,0,0,0,0,0c0,0,0,0,0,0c0.1,0,0-0.1,0.1-0.1c0,0,0,0,0,0c0,0,0-0.1,0.1-0.1c0,0,0,0,0,0
				c0.1,0,0.1-0.1,0.2-0.1c0,0.1,0,0,0,0.1l0,0l0,0c0,0,0.1-0.1,0.1,0l0,0l0.1,0l0,0c0,0,0-0.1,0-0.1c0,0,0,0,0.1,0v0c0,0,0,0,0.1,0
				c0,0,0,0.1,0,0.1c0-0.1,0.1,0,0.1-0.1c0,0,0,0,0,0.1l0,0c0,0,0,0,0,0c0.1,0,0-0.1,0-0.1c0,0,0,0,0,0c0.1,0,0.1-0.1,0.2,0
				c0,0.1,0,0,0,0.1c0.1,0,0.2-0.1,0.2-0.1l0,0c0-0.1,0.1,0,0.1,0c0,0,0,0,0,0c0.1,0,0.1,0,0.2-0.1l0,0c0,0,0.1,0,0.1,0
				c0,0,0,0,0-0.1c0.1,0.1,0.2-0.1,0.3,0c0,0,0,0,0,0l0.1,0c0,0,0,0,0,0c0,0,0,0,0-0.1c0,0,0,0.1,0,0.1c0,0,0,0,0,0
				c0.1,0.1,0-0.1,0.1,0l0,0c0,0,0,0,0.1,0c0,0,0,0,0,0.1c0,0,0-0.1,0.1-0.1c0,0,0,0,0,0c0,0,0,0,0.1,0l0,0l0.1,0l0,0
				c0-0.1,0.1,0,0.1-0.1c0,0.1,0,0,0,0.1c0,0,0,0,0,0c0,0,0.1,0,0.1,0c0,0,0,0,0,0c0,0,0,0,0,0c0-0.1,0.1,0,0.2-0.1
				c0.1,0,0-0.1,0.1-0.1c0,0,0,0.1,0,0.1c0,0,0.1,0,0.1,0c0,0,0,0,0,0c0,0,0-0.1,0,0c0,0,0,0,0,0.1c0,0,0-0.1,0.1-0.1c0,0,0,0,0,0.1
				c0,0,0.1-0.1,0.1-0.1l0,0c0,0,0,0,0,0c0,0,0,0-0.1,0l0,0c0-0.1-0.1,0-0.1,0l0-0.1l0,0.1c0,0,0,0,0-0.1c0,0,0,0-0.1,0c0,0,0,0,0,0
				l0,0c0,0,0,0,0,0c-0.1,0-0.1,0.1-0.1,0l0,0c-0.1,0,0,0,0,0.1l-0.1-0.1l0,0c0,0,0,0,0,0c0,0,0,0,0,0.1c0,0-0.1,0.1-0.1,0
				c0,0,0,0,0,0.1c0-0.1,0,0-0.1,0c0,0,0,0,0-0.1c0,0.1-0.1,0-0.1,0c0,0.1-0.1,0-0.1,0.1c0,0-0.1,0-0.1,0l0,0c0,0.1,0,0.1-0.1,0.1
				c0,0,0,0,0-0.1l0,0c0,0,0,0,0,0l0,0c0,0-0.1,0.1-0.1,0.1c0,0,0.1,0.1,0,0.1c0,0,0-0.1,0-0.1c0,0,0,0,0,0l0,0c0,0,0,0,0,0
				c0,0,0,0,0,0c0,0,0,0,0,0c0,0-0.1,0-0.1,0c0,0,0,0,0,0c0,0,0,0-0.1,0c0,0,0,0,0,0.1c0,0,0,0,0,0c0,0-0.1,0-0.1,0.1l0,0l0,0l0,0
				l0,0c-0.1,0.1-0.2,0-0.2,0.1l0,0c0,0-0.1,0-0.1,0.1c0,0,0,0,0,0c0,0,0,0-0.1,0c0,0,0,0,0,0c0,0-0.1,0-0.1,0c0,0,0,0-0.1,0l0,0
				c0,0,0,0-0.1,0l0-0.1c-0.1,0-0.1,0.1-0.2,0.1c0,0,0.1,0,0,0.1c0,0-0.1-0.1-0.1-0.1c-0.1,0,0,0.1-0.1,0.1c0,0,0,0.1,0,0.1
				c0,0-0.1-0.1,0-0.1c0,0,0,0,0,0c0,0,0,0,0,0l0,0c0,0-0.1,0-0.1,0c0,0,0,0,0,0c-0.1,0-0.1,0-0.1,0c0,0,0,0,0,0c-0.1,0,0,0-0.1,0.1
				c0,0,0-0.1-0.1,0c0,0,0,0,0-0.1c0,0-0.1,0-0.1,0l0,0c0,0,0,0,0,0l0,0c0,0,0,0,0,0c0,0,0,0.1,0,0.1c0,0-0.1,0-0.1,0
				c0.1,0,0,0,0-0.1c0,0,0,0,0,0c0,0,0,0,0,0c-0.1,0,0,0.1-0.1,0.1c0,0,0-0.1,0,0c0,0,0,0,0,0.1c0,0,0,0-0.1,0l0,0c0,0,0,0,0,0
				c0,0,0,0,0,0c0,0.1-0.1,0-0.1,0c0,0,0-0.1,0-0.1c0,0-0.1,0-0.1,0c0,0,0,0,0,0.1l0.1,0l0,0.1c0,0,0,0,0.1,0c0,0,0,0,0,0.1
				c0-0.1-0.1,0-0.1,0l0-0.1c-0.1,0-0.1,0.1-0.2,0.1l0,0c0,0,0,0-0.1,0c0,0,0,0,0-0.1c0,0-0.1,0-0.1,0.1l0,0c-0.1,0-0.1,0.1-0.1,0.1
				c0,0,0-0.1,0-0.1c0,0,0,0,0,0c0,0,0,0.1-0.1,0c0,0,0,0,0,0.1c0,0,0,0,0,0c0,0,0,0,0,0.1c-0.1-0.1-0.2,0-0.2,0c0,0-0.1,0-0.1,0
				c0,0,0,0,0,0c-0.1,0,0,0.1-0.1,0.1c0,0,0,0,0,0c0-0.1-0.1,0-0.1,0l0,0c0,0-0.1,0.1-0.1,0.1c0,0,0,0,0,0c0,0.1-0.1,0.1-0.1,0.1
				c0,0,0,0,0-0.1c0,0,0,0.1,0,0.1c0,0-0.1,0-0.1-0.1l0,0c0-0.1-0.1,0-0.1,0l0,0c-0.1,0-0.1,0.1-0.1,0.1l0,0c0,0.1,0,0-0.1,0l0-0.1
				c0,0-0.1,0.1-0.1,0.1c0-0.1,0.1-0.1,0.1-0.1c0,0-0.1,0-0.1,0c0,0,0,0,0,0c0,0.1-0.1,0.1-0.1,0.1c0-0.1-0.1,0-0.2-0.1
				c-0.1,0.1-0.2,0-0.3,0c0,0.1,0,0,0,0.1c0,0,0,0,0,0l-0.1-0.1c0,0,0,0,0,0c-0.1,0,0,0-0.1-0.1c0,0,0,0.1,0,0l0,0
				c-0.1,0.1-0.1-0.1-0.1,0l0,0c0,0-0.1,0-0.2,0.1c0,0,0,0,0,0c-0.1,0-0.2,0.1-0.3,0.1l0,0c0,0,0,0,0,0c0,0,0,0,0,0c0,0,0,0-0.1,0
				l0,0c-0.1,0-0.1,0.1-0.2,0.1c0-0.1-0.1-0.1-0.1-0.1l0,0c-0.1,0-0.2,0.1-0.3,0.1c-0.1-0.1-0.2,0-0.3-0.1c0,0,0,0.1,0,0.1
				c0,0-0.1,0.1-0.1,0l0,0c0-0.1-0.1,0-0.1,0l0,0.1c-0.1-0.1-0.2,0.1-0.3-0.1c0,0,0,0-0.1,0l0,0c-0.1,0-0.1,0-0.2,0l0,0
				c0,0-0.1,0.1-0.1,0.1l0-0.1c-0.1,0-0.2-0.1-0.2,0c0,0,0,0,0,0c0,0-0.1,0-0.1,0c0-0.1-0.1,0-0.1,0l0,0c0,0.1,0,0.1-0.1,0.1
				c0,0,0,0,0,0c0,0,0,0-0.1,0l0,0c0,0,0,0-0.1,0c0,0-0.1,0-0.1-0.1c0,0,0,0.1-0.1,0c0,0,0,0,0,0c-0.1,0-0.1,0.1-0.1,0c0,0,0,0,0,0
				c0.1,0,0.1,0,0.1,0c0,0,0,0,0-0.1c0,0-0.1,0.1-0.1,0.1c0,0,0,0,0,0l0,0c0,0,0,0,0,0c0,0,0,0,0,0c0,0,0,0-0.1,0c0,0,0,0,0,0.1
				c0,0,0,0,0,0c0,0,0,0,0,0l0,0c0,0,0,0,0.1,0c0,0,0,0-0.1,0c0,0,0,0.1,0,0.1c0-0.1-0.1-0.1-0.1-0.1c-0.1,0-0.2,0-0.2,0.1
				c0,0,0,0,0,0c0,0,0,0,0,0c0,0-0.1,0-0.1,0.1c0,0,0-0.1,0,0l0,0c-0.1-0.1-0.2,0.1-0.3,0c0,0,0,0,0,0c-0.2-0.1-0.3,0-0.5-0.1
				c0,0-0.1,0-0.1,0l0,0l0,0.1c-0.1,0-0.1-0.1-0.2-0.1l0,0c0,0-0.1,0-0.1,0c0,0,0,0,0,0l0,0l-0.1,0c-0.1,0,0-0.1-0.1-0.1
				c0,0-0.1,0.1-0.1,0.1c0,0,0,0,0,0l0,0c0,0.1,0,0.2,0,0.2l0.1,0l0,0h0c0,0,0,0,0.1,0c0,0,0,0,0,0l0.1-0.1c0,0,0,0.1,0,0.1
				c0,0,0-0.1,0-0.1c0,0,0,0.1,0,0c0,0,0,0,0,0c0,0,0.1,0,0.1,0c0,0,0.1,0,0.1,0.1c0,0,0-0.1,0.1-0.1c0,0.1,0.1,0,0.1,0.1
				c0-0.1,0.1,0,0.2-0.1c0,0,0,0,0,0c0,0,0,0,0.1,0c0-0.1,0.1-0.1,0.1-0.1c0,0.1,0,0.1,0,0.1c0-0.1,0.1,0,0.1-0.1
				C1055,528,1055,527.9,1055.1,528c-0.1-0.1-0.1-0.1,0-0.1C1055.1,528,1055.1,528,1055.1,528C1055.2,528,1055.1,528,1055.1,528z
				 M1056.2,527.9L1056.2,527.9C1056.2,527.9,1056.2,527.9,1056.2,527.9C1056.2,527.9,1056.2,527.9,1056.2,527.9z M1056.3,527.9
				C1056.3,527.9,1056.3,527.9,1056.3,527.9C1056.2,527.9,1056.2,527.9,1056.3,527.9C1056.2,527.9,1056.3,527.9,1056.3,527.9z
				 M1056.1,527.6C1056.1,527.6,1056.1,527.6,1056.1,527.6C1056.1,527.6,1056.1,527.6,1056.1,527.6L1056.1,527.6
				C1056.1,527.6,1056.1,527.6,1056.1,527.6z"/>
			<polygon fill="#464547" points="1056.1,527.7 1056.1,527.7 1056.1,527.7 1056.1,527.7 			"/>
			<polygon fill="#464547" points="1064.1,526.7 1064.1,526.7 1064.1,526.7 			"/>
			<polygon fill="#464547" points="1057.5,528 1057.5,528 1057.5,528 			"/>
			<path fill="#464547" d="M1064.6,526.7C1064.6,526.7,1064.6,526.7,1064.6,526.7C1064.6,526.7,1064.6,526.7,1064.6,526.7z"/>
			<path fill="#464547" d="M1064.8,526.7L1064.8,526.7C1064.8,526.7,1064.8,526.7,1064.8,526.7z"/>
			<path fill="#464547" d="M1065,526.7C1065,526.6,1065,526.6,1065,526.7L1065,526.7L1065,526.7z"/>
			<path fill="#464547" d="M1062.4,527.3C1062.4,527.3,1062.4,527.3,1062.4,527.3C1062.4,527.4,1062.4,527.3,1062.4,527.3z"/>
			<path fill="#464547" d="M1063.2,527.1C1063.2,527.1,1063.2,527.1,1063.2,527.1C1063.2,527.1,1063.2,527.1,1063.2,527.1z"/>
			<polygon fill="#464547" points="1061.6,527.6 1061.6,527.6 1061.6,527.6 			"/>
			<path fill="#464547" d="M1063.1,527.1C1063.1,527.1,1063.2,527.1,1063.1,527.1C1063.2,527.1,1063.1,527.1,1063.1,527.1z"/>
			<polygon fill="#464547" points="1065.7,526.5 1065.7,526.5 1065.7,526.5 			"/>
			<path fill="#464547" d="M1065.7,526.5L1065.7,526.5C1065.7,526.4,1065.7,526.4,1065.7,526.5z"/>
			<path fill="#464547" d="M1065.7,526.4L1065.7,526.4C1065.7,526.4,1065.7,526.4,1065.7,526.4z"/>
			<path fill="#464547" d="M1065.4,526.5L1065.4,526.5C1065.4,526.5,1065.4,526.5,1065.4,526.5z"/>
			<path fill="#464547" d="M1065.4,526.5C1065.4,526.5,1065.4,526.6,1065.4,526.5L1065.4,526.5
				C1065.4,526.5,1065.4,526.5,1065.4,526.5z"/>
			<path fill="#464547" d="M1065.1,526.4L1065.1,526.4C1065.1,526.4,1065.1,526.4,1065.1,526.4
				C1065,526.3,1065.1,526.4,1065.1,526.4z"/>
			<path fill="#464547" d="M1064.9,526.4C1064.9,526.4,1064.9,526.4,1064.9,526.4C1064.9,526.4,1064.9,526.4,1064.9,526.4z"/>
			<path fill="#464547" d="M1063.7,526.8L1063.7,526.8C1063.7,526.7,1063.7,526.7,1063.7,526.8z"/>
			<polygon fill="#464547" points="1063.5,527 1063.5,527.1 1063.5,527 			"/>
			<polygon fill="#464547" points="1063.3,526.8 1063.3,526.8 1063.3,526.8 			"/>
			<path fill="#464547" d="M1061.3,527.2L1061.3,527.2C1061.3,527.2,1061.3,527.2,1061.3,527.2z"/>
			<path fill="#464547" d="M1060.4,527.4C1060.4,527.4,1060.4,527.4,1060.4,527.4C1060.4,527.4,1060.4,527.4,1060.4,527.4z"/>
			<polygon fill="#464547" points="1057.7,527.6 1057.8,527.5 1057.7,527.6 			"/>
		</g>
		<path fill="#464547" d="M1051.4,542.3l-12.1,0.2l0,0c0-3.2,2.5-5.8,5.7-5.9l6.3-0.1L1051.4,542.3z"/>
		<path fill="#464547" d="M1082.1,541.8l-13.7,0.2l0,0c0-3.2,2.5-5.8,5.7-5.9l7.9-0.1L1082.1,541.8z"/>
		<path fill="#48484A" d="M1072.6,503.7l-30.4,2c-5.7,0.4-10.6-3.9-10.9-9.6l0,0c-0.7-10.6,7.3-19.7,17.9-20.4l12.5-0.8
			c10.6-0.7,19.7,7.3,20.4,17.9v0C1082.6,498.5,1078.3,503.4,1072.6,503.7z"/>
		<path fill="#58595B" d="M1036.3,453.3l0.1-0.9c5.8,0.8,8.6,4.5,9.9,7.5c1.4,3.2,1.4,6.3,1.4,6.4l-0.9,0c0,0,0-3-1.4-6.1
			C1043.7,456.2,1040.6,453.9,1036.3,453.3z"/>
		<circle fill="#58595B" cx="1036" cy="453" r="1.3"/>
		<path fill="#58595B" d="M1064.5,466.2c0,0,0.8-2.8,3-5.3c2.9-3.3,6.8-4.7,11.7-4l0.2-1c-6.5-1-10.5,1.8-12.7,4.3
			c-2.3,2.7-3.1,5.6-3.1,5.7L1064.5,466.2z"/>
		<circle fill="#58595B" cx="1079.9" cy="456.3" r="1.4"/>
		<path fill="#6B6C6F" d="M1070.3,493.5c7.3,0.6,12.6-7.5,9.3-14.3c-4.1-8.5-12.2-14.6-22-15.4c-9.8-0.8-18.7,3.9-24.2,11.6
			c-4.4,6.2-0.5,15.1,6.8,15.7L1070.3,493.5z"/>
		
			<ellipse transform="matrix(0.9966 8.245566e-002 -8.245566e-002 0.9966 42.4779 -84.3839)" fill="#FFFFFF" cx="1042.9" cy="472.1" rx="5.7" ry="5.8"/>
		
			<ellipse transform="matrix(0.9966 8.245566e-002 -8.245566e-002 0.9966 42.5046 -84.3678)" fill="#282829" cx="1042.7" cy="472.4" rx="4" ry="4"/>
		<path fill="#464547" d="M1049.3,477.7c0.4,0,0.7,0.1,1.1,0.1c0.1,0.1,0.3,0.1,0.4,0.2l0.4,0.2c0.5,0.2,1.1,0.4,1.7,0.4
			c0.6,0,1.2,0,1.7-0.1c0.3,0,0.6-0.2,0.8-0.3c0.2,0,0.3,0,0.5,0c0.2,0,0.4,0,0.6,0.1c-0.2,0.3-0.4,0.6-0.7,0.9
			c-0.3,0.1-0.7,0.2-1,0.3c-0.7,0.2-1.4,0.2-2.1,0.1c-0.7-0.1-1.4-0.2-2-0.5l-0.5-0.2c-0.2-0.1-0.3-0.2-0.5-0.2
			C1049.6,478.5,1049.4,478.1,1049.3,477.7z"/>
		<path fill="#464547" d="M1056.6,476.7c0.1,0.2,0.3,0.4,0.4,0.5c0,0.1,0,0.2,0,0.3c0,0.2,0,0.4,0.1,0.6c0.1,0.2,0.2,0.4,0.4,0.5
			c0.1,0.1,0.2,0.1,0.3,0.2c0,0.2,0.1,0.4,0.1,0.7c-0.2,0.1-0.4,0.2-0.7,0.3c-0.1-0.1-0.3-0.2-0.4-0.3c-0.3-0.2-0.5-0.5-0.7-0.9
			c-0.2-0.3-0.2-0.7-0.2-1.1c0-0.1,0-0.2,0-0.3c0-0.1,0-0.2,0-0.3C1056.2,476.9,1056.4,476.8,1056.6,476.7z"/>
		<path fill="#464547" d="M1051.2,473.6c-0.1,0.2-0.2,0.3-0.3,0.4c-0.1,0.1-0.1,0.3-0.2,0.4c-0.1,0.1,0,0.3-0.1,0.4
			c-0.1,0-0.1,0.1-0.2,0.1c-0.1,0-0.2,0.1-0.4,0.1l-0.1,0c-0.1-0.1-0.2-0.2-0.2-0.4c0-0.1,0-0.2,0-0.3c0-0.1,0.1-0.2,0.2-0.3
			l0.3-0.2c0.1-0.1,0.2-0.1,0.2-0.2c0.1,0,0.2-0.1,0.3-0.1C1050.8,473.6,1050.9,473.5,1051.2,473.6L1051.2,473.6z"/>
		<path fill="#464547" d="M1052.7,473.9c0.2,0,0.4,0.1,0.5,0.2c0.2,0.1,0.3,0.2,0.5,0.3c0.1,0.1,0.4,0.2,0.3,0.4
			c0,0.1,0,0.2-0.1,0.3c0,0.1-0.1,0.2-0.3,0.3l-0.1,0c-0.2,0-0.3-0.1-0.4-0.1c-0.1,0-0.2-0.1-0.2-0.1c-0.1,0-0.1-0.1-0.1-0.2
			c0-0.1,0-0.1,0-0.2c0-0.1,0-0.1-0.1-0.2c0-0.1,0-0.1-0.1-0.2C1052.8,474.2,1052.8,474.1,1052.7,473.9L1052.7,473.9z"/>
		<path fill="#464547" d="M1048.6,472.6c0.3-3.2-2.1-5.9-5.2-6.2s-5.9,2.1-6.2,5.3L1048.6,472.6z"/>
		
			<ellipse transform="matrix(0.9966 8.245566e-002 -8.245566e-002 0.9966 42.738 -86.2436)" fill="#FFFFFF" cx="1065.5" cy="474.3" rx="6.1" ry="6.1"/>
		
			<ellipse transform="matrix(0.9966 8.245566e-002 -8.245566e-002 0.9966 42.7931 -86.2368)" fill="#282829" cx="1065.5" cy="475" rx="4" ry="4"/>
		<path fill="#464547" d="M1071.6,474.8c0.3-3.4-2.2-6.3-5.6-6.6s-6.3,2.2-6.6,5.6L1071.6,474.8z"/>
		<g>
			<circle fill="#464547" cx="1073.5" cy="480.1" r="0.6"/>
			<circle fill="#464547" cx="1074.5" cy="481.7" r="0.6"/>
			<circle fill="#464547" cx="1072.7" cy="482" r="0.6"/>
		</g>
		<g>
			<circle fill="#464547" cx="1035.8" cy="476.8" r="0.6"/>
			<circle fill="#464547" cx="1036.8" cy="478.3" r="0.6"/>
			<circle fill="#464547" cx="1035" cy="478.6" r="0.6"/>
		</g>
		<g>
			<path fill="#6B6C6F" d="M1048.6,503.8C1048.6,503.8,1048.7,503.8,1048.6,503.8C1048.7,503.7,1048.6,503.8,1048.6,503.8z"/>
			<polygon fill="#6B6C6F" points="1048.4,503.5 1048.5,503.5 1048.4,503.5 			"/>
			<path fill="#6B6C6F" d="M1048.4,503.3c-0.1,0.1,0,0.1,0,0.1l0,0l0.1,0C1048.4,503.4,1048.4,503.3,1048.4,503.3z"/>
			<path fill="#6B6C6F" d="M1048.6,503.1C1048.6,503.1,1048.6,503.1,1048.6,503.1C1048.6,503.1,1048.6,503.1,1048.6,503.1
				C1048.6,503.1,1048.6,503.1,1048.6,503.1z"/>
			<path fill="#6B6C6F" d="M1048.6,503.1C1048.6,503.1,1048.7,503.1,1048.6,503.1L1048.6,503.1z"/>
			<path fill="#6B6C6F" d="M1048.6,503L1048.6,503C1048.6,503,1048.6,503,1048.6,503C1048.6,502.9,1048.6,503,1048.6,503z"/>
			<path fill="#6B6C6F" d="M1048.5,503L1048.5,503C1048.5,503,1048.5,503,1048.5,503z"/>
			<path fill="#6B6C6F" d="M1048.5,503L1048.5,503C1048.5,503,1048.5,503,1048.5,503C1048.5,503,1048.5,503,1048.5,503z"/>
			<path fill="#6B6C6F" d="M1048.5,503C1048.5,503.1,1048.5,503.1,1048.5,503C1048.5,503.1,1048.6,503.1,1048.5,503z"/>
			<path fill="#6B6C6F" d="M1048.3,503.3L1048.3,503.3L1048.3,503.3C1048.3,503.4,1048.3,503.3,1048.3,503.3z"/>
			<path fill="#6B6C6F" d="M1048.6,502.7C1048.6,502.8,1048.5,502.8,1048.6,502.7L1048.6,502.7
				C1048.6,502.8,1048.6,502.8,1048.6,502.7z"/>
			<path fill="#6B6C6F" d="M1048.5,502.8L1048.5,502.8C1048.5,502.8,1048.5,502.8,1048.5,502.8z"/>
			<polygon fill="#6B6C6F" points="1048.4,503 1048.5,503 1048.4,503 			"/>
			<polygon fill="#6B6C6F" points="1048.6,502.6 1048.6,502.6 1048.6,502.6 			"/>
			<path fill="#6B6C6F" d="M1048.6,502.5c0,0,0.1,0,0.1,0C1048.7,502.4,1048.6,502.4,1048.6,502.5
				C1048.6,502.4,1048.6,502.5,1048.6,502.5z"/>
			<path fill="#6B6C6F" d="M1048.5,502.4C1048.5,502.4,1048.5,502.4,1048.5,502.4C1048.6,502.4,1048.5,502.4,1048.5,502.4z"/>
			<path fill="#6B6C6F" d="M1048.5,502.7C1048.5,502.7,1048.5,502.7,1048.5,502.7L1048.5,502.7
				C1048.5,502.7,1048.5,502.7,1048.5,502.7z"/>
			<path fill="#6B6C6F" d="M1048.5,502.7L1048.5,502.7C1048.5,502.7,1048.5,502.6,1048.5,502.7
				C1048.5,502.6,1048.5,502.7,1048.5,502.7z"/>
			<path fill="#6B6C6F" d="M1048.5,502.7L1048.5,502.7C1048.5,502.7,1048.5,502.7,1048.5,502.7z"/>
			<path fill="#6B6C6F" d="M1048.4,502.9c0,0-0.1-0.1-0.1,0C1048.3,502.9,1048.3,502.9,1048.4,502.9z"/>
			<path fill="#6B6C6F" d="M1048.4,502.7L1048.4,502.7C1048.4,502.8,1048.4,502.8,1048.4,502.7L1048.4,502.7z"/>
			<polygon fill="#6B6C6F" points="1048.4,502.7 1048.4,502.7 1048.4,502.7 			"/>
			<path fill="#6B6C6F" d="M1048.5,502.5C1048.4,502.5,1048.4,502.5,1048.5,502.5C1048.4,502.5,1048.4,502.5,1048.5,502.5
				C1048.4,502.5,1048.5,502.5,1048.5,502.5z"/>
			<path fill="#6B6C6F" d="M1048.5,502.6L1048.5,502.6C1048.4,502.6,1048.4,502.6,1048.5,502.6z"/>
			<polygon fill="#6B6C6F" points="1048.4,502.2 1048.4,502.2 1048.4,502.2 			"/>
			<path fill="#6B6C6F" d="M1048.4,502.5C1048.4,502.5,1048.4,502.5,1048.4,502.5C1048.4,502.5,1048.4,502.5,1048.4,502.5
				C1048.4,502.5,1048.4,502.5,1048.4,502.5z"/>
			<path fill="#6B6C6F" d="M1048.5,502.3C1048.5,502.4,1048.4,502.4,1048.5,502.3C1048.5,502.4,1048.5,502.3,1048.5,502.3z"/>
			<path fill="#6B6C6F" d="M1048.5,502.6L1048.5,502.6C1048.5,502.6,1048.5,502.6,1048.5,502.6z"/>
			<path fill="#6B6C6F" d="M1048.5,502.6C1048.5,502.6,1048.4,502.6,1048.5,502.6C1048.4,502.6,1048.4,502.6,1048.5,502.6
				C1048.5,502.6,1048.5,502.6,1048.5,502.6z"/>
			<path fill="#6B6C6F" d="M1047.9,502.3C1048,502.2,1048.1,502.3,1047.9,502.3c0.1,0.1,0.3,0,0.4,0c0,0-0.1,0-0.1,0
				c0,0-0.1,0.1-0.1,0.1c0,0,0-0.1,0-0.1C1048.1,502.2,1048.1,502.2,1047.9,502.3L1047.9,502.3C1048,502.3,1048,502.2,1047.9,502.3z
				"/>
			<path fill="#6B6C6F" d="M1048.4,502.3L1048.4,502.3C1048.4,502.3,1048.4,502.3,1048.4,502.3
				C1048.4,502.2,1048.4,502.2,1048.4,502.3L1048.4,502.3L1048.4,502.3z"/>
			<path fill="#6B6C6F" d="M1048.4,502.4c-0.1,0-0.1,0-0.2,0C1048.2,502.5,1048.3,502.4,1048.4,502.4
				C1048.3,502.4,1048.4,502.5,1048.4,502.4C1048.4,502.4,1048.4,502.4,1048.4,502.4C1048.4,502.4,1048.4,502.4,1048.4,502.4
				L1048.4,502.4L1048.4,502.4L1048.4,502.4C1048.4,502.4,1048.4,502.4,1048.4,502.4L1048.4,502.4
				C1048.4,502.4,1048.4,502.4,1048.4,502.4C1048.4,502.4,1048.4,502.4,1048.4,502.4L1048.4,502.4L1048.4,502.4L1048.4,502.4
				C1048.4,502.3,1048.4,502.4,1048.4,502.4z"/>
			<path fill="#6B6C6F" d="M1048.1,502.9C1048.1,502.9,1048.1,502.9,1048.1,502.9C1048.1,502.9,1048.1,502.9,1048.1,502.9z"/>
			<path fill="#6B6C6F" d="M1048.2,502.8C1048.2,502.9,1048.2,502.9,1048.2,502.8C1048.2,502.9,1048.2,502.9,1048.2,502.8
				C1048.2,502.9,1048.2,502.9,1048.2,502.8L1048.2,502.8c0.1,0,0.1-0.1,0.2-0.1C1048.3,502.8,1048.2,502.8,1048.2,502.8z"/>
			<path fill="#6B6C6F" d="M1048.3,502.6L1048.3,502.6L1048.3,502.6L1048.3,502.6C1048.2,502.6,1048.2,502.6,1048.3,502.6z"/>
			<polygon fill="#6B6C6F" points="1048.4,502.2 1048.5,502.2 1048.4,502.2 			"/>
			<polygon fill="#6B6C6F" points="1048.4,502.1 1048.5,502.1 1048.4,502.1 			"/>
			<path fill="#6B6C6F" d="M1047.1,497.2L1047.1,497.2C1047,497.2,1047,497.2,1047.1,497.2z"/>
			<path fill="#6B6C6F" d="M1047.1,497.4L1047.1,497.4C1047.1,497.4,1047.1,497.4,1047.1,497.4z"/>
			<path fill="#6B6C6F" d="M1048.1,499.9C1048.2,499.9,1048.3,499.8,1048.1,499.9L1048.1,499.9
				C1048.1,499.9,1048.1,499.9,1048.1,499.9z"/>
			<path fill="#6B6C6F" d="M1047.5,498.5C1047.5,498.5,1047.5,498.5,1047.5,498.5C1047.5,498.5,1047.6,498.5,1047.5,498.5
				C1047.6,498.5,1047.6,498.5,1047.5,498.5z"/>
			<path fill="#6B6C6F" d="M1047.3,498.6L1047.3,498.6C1047.3,498.5,1047.3,498.5,1047.3,498.6z"/>
			<path fill="#6B6C6F" d="M1046.9,496.4L1046.9,496.4C1046.8,496.5,1046.9,496.4,1046.9,496.4z"/>
			<path fill="#6B6C6F" d="M1048.3,501.2C1048.3,501.2,1048.3,501.2,1048.3,501.2C1048.2,501.2,1048.2,501.2,1048.3,501.2z"/>
			<path fill="#6B6C6F" d="M1047.8,497.2C1047.8,497.2,1047.8,497.2,1047.8,497.2C1047.8,497.2,1047.8,497.2,1047.8,497.2z"/>
			<path fill="#6B6C6F" d="M1048.3,501.1C1048.3,501.1,1048.3,501.1,1048.3,501.1C1048.3,501.1,1048.3,501.1,1048.3,501.1
				C1048.3,501.1,1048.3,501.1,1048.3,501.1z"/>
			<path fill="#6B6C6F" d="M1046.8,493.5C1046.8,493.5,1046.8,493.5,1046.8,493.5C1046.8,493.5,1046.8,493.5,1046.8,493.5z"/>
			<path fill="#6B6C6F" d="M1047.5,492.6C1047.5,492.6,1047.5,492.6,1047.5,492.6C1047.5,492.6,1047.5,492.6,1047.5,492.6z"/>
			<path fill="#6B6C6F" d="M1048.4,501.7C1048.4,501.8,1048.4,501.7,1048.4,501.7L1048.4,501.7z"/>
			<path fill="#6B6C6F" d="M1048.1,501.9C1048.1,501.9,1048.1,501.9,1048.1,501.9C1048.1,501.9,1048.1,501.9,1048.1,501.9z"/>
			<path fill="#6B6C6F" d="M1047.8,501L1047.8,501C1047.8,501,1047.8,501,1047.8,501z"/>
			<path fill="#6B6C6F" d="M1048.4,501.8C1048.4,501.8,1048.4,501.8,1048.4,501.8C1048.4,501.8,1048.4,501.8,1048.4,501.8z"/>
			<path fill="#6B6C6F" d="M1048.4,501.8C1048.4,501.8,1048.4,501.8,1048.4,501.8C1048.4,501.8,1048.4,501.8,1048.4,501.8z"/>
			<path fill="#6B6C6F" d="M1048.4,501.7C1048.4,501.7,1048.4,501.7,1048.4,501.7C1048.4,501.7,1048.4,501.7,1048.4,501.7
				C1048.4,501.7,1048.4,501.7,1048.4,501.7z"/>
			<path fill="#6B6C6F" d="M1047.1,495C1047.1,495,1047.1,495,1047.1,495C1047,495,1047,495,1047.1,495z"/>
			<polygon fill="#6B6C6F" points="1047.3,499.6 1047.3,499.6 1047.3,499.6 			"/>
			<path fill="#6B6C6F" d="M1047.3,499.5C1047.4,499.6,1047.4,499.6,1047.3,499.5l0.3,0L1047.3,499.5z"/>
			<path fill="#6B6C6F" d="M1047,496.9L1047,496.9c-0.2,0-0.1,0-0.2,0c0.2,0,0,0.2,0.3,0.2l0,0c0,0,0,0,0,0c-0.1,0.1,0.2,0,0.1,0.1
				c0,0,0,0.1-0.1,0l0.1,0.1c0,0,0,0,0,0l0,0.1l0,0c0,0,0.1,0,0.1,0c0,0,0,0-0.1,0l0.1,0c-0.1,0-0.1,0-0.1,0c-0.2,0.1,0.1,0-0.1,0.2
				l0,0c-0.1,0.1-0.1,0.1-0.1,0.2c0,0,0.2-0.1,0.2-0.1c0,0,0,0,0,0.1c-0.1,0-0.1,0,0,0.1l-0.1,0c0,0,0.1,0,0.1,0
				c0,0-0.1,0.1-0.2,0.1c0,0.1,0.1-0.1,0.2,0c0,0.1,0,0.1,0.1,0.2c0,0-0.1,0-0.1,0l0.1,0c0,0,0,0,0,0c0,0,0.1,0,0.1,0
				c0.1,0-0.2,0.1,0,0.2c0,0-0.1,0-0.1,0c0.1,0.1,0.1,0.1,0.2,0.1l-0.1,0.1c0.1-0.1,0.2,0,0.2,0c0,0,0.1,0,0.1-0.1l0.1,0.1
				c0,0-0.1,0-0.1,0c0,0,0,0,0,0c0,0-0.1,0-0.2,0c0,0,0,0,0.1,0c-0.1,0-0.1,0-0.2,0c0,0,0,0,0,0c0,0,0,0,0,0c0,0,0,0,0,0l-0.1,0l0,0
				l-0.1,0.1c0.1,0,0.3,0.1,0.4,0.2c-0.1,0-0.1,0-0.2,0c0.1-0.1-0.1-0.1,0-0.1c0,0-0.1,0-0.1,0l0.1,0.1c-0.1,0-0.1,0-0.1,0.1
				c0.2-0.1,0.1,0.1,0.2,0.1c-0.1,0-0.1,0-0.1,0c-0.1,0.1,0.2,0,0.1,0.1c0,0,0,0,0,0c0.1,0,0,0.1,0,0.1l0,0c0,0.1,0,0.3,0.2,0.2
				c0,0-0.2,0-0.2,0l0.5,0.1c-0.1,0-0.4,0.1-0.5,0.1c0,0,0,0.1,0,0.1c0,0,0.2-0.1,0.2-0.1c-0.1,0.1-0.1,0.1-0.2,0.1c0,0,0.2,0,0.2,0
				c0,0-0.2,0-0.2,0l0.2,0c0,0-0.2,0-0.2,0.1c0,0,0,0.1,0,0.1l0,0c0,0.1,0.3,0,0.3,0.1c0,0-0.2,0-0.2,0.1c0.1,0,0.5,0,0.5,0.1
				l-0.1,0l0.1,0c-0.1,0-0.4,0-0.6-0.1c0,0-0.1,0-0.1,0.1c0,0-0.1,0-0.1,0l0,0.1c0.1,0,0.1,0.1,0.2,0l-0.1-0.1c0.1,0,0.3,0,0.3,0.1
				c0,0-0.2,0-0.2,0c0,0,0.1,0.1,0.1,0.1l-0.1,0c0,0.1,0.2,0,0.1,0.1c0,0-0.1,0.1-0.1,0.1c0.1-0.1,0.5-0.2,0.6-0.2
				c0,0-0.1,0.1-0.2,0.2c-0.1,0.1-0.2,0-0.3,0.1c0,0,0.1,0,0.1,0c0,0-0.1,0-0.1,0.1c0.1,0,0,0.1,0.1,0c0,0,0,0.1,0,0.1
				c0.1,0,0.2,0,0.3,0c0,0-0.1,0-0.1,0c0,0.1,0,0.2,0,0.2c0,0-0.1,0.1-0.1,0.1c0,0,0.1,0,0.1,0c-0.1,0.1,0-0.1-0.1,0
				c0.1,0,0.1,0,0.1,0.1c0.1,0,0-0.1,0-0.1c0.1,0,0.3,0,0.4,0.1c0,0.1-0.1,0.1-0.1,0.1c0,0.1,0.2,0.1,0.2,0.2
				c-0.1,0.1-0.2,0-0.2,0.1c0,0,0-0.1,0-0.1l0,0.1c0,0-0.1,0,0-0.1c-0.1,0.1,0,0.2,0,0.3c0,0,0.1,0,0.1,0l0,0c0.1,0,0.1,0,0.1,0
				c0.1,0,0.1,0.1,0.1,0.1l-0.1,0c0,0,0.1-0.1,0-0.1c0,0-0.1,0.1,0,0.1l0.1-0.1c0.1,0,0.2,0.1,0.1,0.1c0.1,0,0,0,0.1-0.1
				c-0.1,0.1,0-0.1-0.2,0c0.1-0.1,0-0.1,0.2-0.2c0,0-0.1,0,0,0c0,0,0,0,0,0l0,0l0,0c0,0,0,0,0,0c0,0,0,0,0,0c-0.1,0-0.1-0.1-0.1-0.1
				c0,0,0,0,0.1,0l-0.1,0c0.1,0,0.1-0.1,0.2,0l0-0.1c0,0,0-0.1,0-0.1c0,0-0.1,0,0,0l-0.1-0.1l0,0c0-0.1-0.1-0.1,0-0.3c0,0,0,0,0-0.1
				l0.1,0c0,0,0-0.1,0-0.1c0.2-0.1,0-0.2,0-0.3l-0.1,0c0,0,0-0.1-0.1-0.1l-0.1,0c-0.1,0,0-0.1,0-0.2c0,0,0,0,0,0
				c0.2-0.1-0.1-0.2,0-0.3c0,0,0,0,0,0c0,0,0,0,0,0c0,0,0,0,0,0c0,0,0,0,0,0c0,0,0,0,0,0c0,0,0,0,0-0.1l0.1,0c0,0,0,0,0,0
				c0,0,0,0-0.1,0c0,0,0,0-0.1,0c0.1,0,0-0.1,0.1-0.1c-0.1,0-0.1-0.1-0.2-0.1c0,0,0,0,0,0c0,0,0-0.1,0-0.1l0.1,0l-0.1,0
				c0.1,0,0.1-0.1,0.2-0.1c-0.1-0.1-0.1-0.1-0.2-0.1l0.1,0c0,0-0.1,0,0-0.1c0.1-0.1,0-0.3,0.1-0.5c-0.2,0.1,0.1-0.1-0.1-0.1
				c0,0,0.1,0,0.1,0c-0.1-0.1,0.1-0.1-0.1-0.2c0,0,0.1,0,0.1,0c0,0,0,0,0,0c0,0,0,0,0.1,0c0-0.1-0.2-0.1-0.3,0c0.1-0.1,0-0.1,0-0.1
				c0,0,0.1-0.1,0.1,0c0,0,0-0.2-0.1-0.2c0,0,0,0,0,0c0-0.1,0-0.1,0-0.1l0,0c-0.1,0,0,0-0.1-0.1l0,0c0.1-0.1,0,0,0-0.2l-0.1,0
				c-0.2,0,0.1-0.1,0-0.2l0,0c-0.1,0,0.2-0.1,0.2-0.2c0,0,0,0,0,0c0.1-0.1-0.1,0-0.1-0.1c0.1,0,0.1,0,0.1-0.1c0,0-0.2-0.1-0.1-0.2
				c0,0-0.1,0-0.1,0c0,0,0.1-0.2,0-0.2c0,0,0,0,0,0c0,0-0.1-0.1-0.1-0.1c0.3-0.1-0.1-0.2,0.1-0.2l0-0.1l0,0c0-0.1,0-0.1-0.1-0.1
				c0,0,0,0,0.1,0c0-0.1,0-0.1-0.1-0.2l0.1,0c0,0,0.1-0.2,0-0.3c0,0,0,0,0,0c-0.1-0.1,0.2-0.3-0.1-0.3l-0.1-0.1c0,0.1-0.1,0-0.2,0.1
				c0,0,0.1-0.1,0.1-0.1l0,0c0.2,0,0-0.1,0.1-0.1c0-0.2,0.1-0.4,0-0.6l-0.1,0l0-0.1c0,0,0.1,0,0.1,0c0.1,0-0.1-0.1-0.1-0.1
				c0-0.1,0.1,0,0.1,0l0,0l0,0c0,0-0.1,0-0.1-0.1c0,0,0.1,0,0.1,0c0,0,0,0,0,0l0-0.1l-0.1,0c0,0,0-0.1-0.1,0c0.2-0.1,0-0.3,0.1-0.3
				c-0.1,0-0.1-0.1-0.1-0.2c0,0-0.1,0-0.1,0c0.2,0,0.1-0.1,0.2-0.2c-0.1,0,0-0.1-0.2-0.1c0,0,0.1,0,0.1,0c-0.1-0.1,0-0.2,0-0.4
				c0,0-0.1,0-0.1,0l0.1-0.1c0,0-0.2,0-0.1-0.1c0,0-0.1,0-0.1,0c0.1-0.3-0.1-0.5,0.1-0.8c-0.1,0-0.1,0-0.1,0c0,0-0.1,0-0.1,0
				l0.1-0.1c-0.1,0,0-0.1-0.1-0.1l0,0c-0.1,0-0.3,0.1-0.4,0.1c0.1,0-0.2,0.2,0,0.2c0,0-0.1,0-0.1,0c0.1,0,0.1,0,0.1,0.1l0,0
				c0,0.1,0,0.2-0.1,0.3l0.1,0c0,0,0,0-0.1,0.1c0.1,0,0-0.1,0.1-0.1c-0.2,0.1,0,0.2-0.2,0.3c0,0,0.1,0,0.1,0l0,0l0.1,0
				c0,0-0.1,0.1-0.1,0.1c0,0,0,0,0,0c-0.1,0,0,0.1,0,0.1l0-0.1c0.1,0.1,0,0.3,0.1,0.4l0,0c0.1,0.1,0,0.1,0,0.2l0,0
				c0,0,0.1,0,0.1,0.1c0,0-0.1,0.1-0.1,0c0.1,0.1,0.1,0,0.2,0.1l-0.1,0c0.1,0,0.1,0,0.1,0.1c-0.1,0-0.1,0-0.2,0
				c-0.1,0.1,0.1,0.2,0,0.2c0.2,0,0.1-0.1,0.1-0.1c0.1,0,0.1,0,0.1,0.1c0,0-0.2,0.1-0.2,0.2c0,0,0,0,0,0c0,0,0.1,0.1,0,0.1
				c0.1,0,0,0.1,0.1,0l0-0.1c0,0,0.2,0.1,0.1,0.2c0,0-0.1,0-0.1,0c0,0,0,0,0,0.1c-0.1,0,0-0.1-0.1-0.1c-0.1,0,0.1,0.1,0,0.1
				c0.2,0,0,0.1,0.1,0.1l-0.1,0c0,0,0.1,0,0,0l-0.1,0c0.1,0-0.1,0.1,0,0.1c0-0.1,0.1,0,0.1-0.1c0.1,0.1-0.2,0.1-0.1,0.2
				c0,0,0-0.1,0.1-0.1c0,0,0,0.1-0.1,0.1c0,0.1,0.1,0,0.1,0c-0.1,0,0,0,0.1,0.1l-0.1,0c0,0.1,0.2,0,0.1,0.1l-0.1,0l0,0l-0.1,0
				c0.1,0,0.1,0.1,0,0.1c0.1,0,0.1,0,0.1,0c0,0-0.1,0-0.1,0.1c0,0-0.1,0,0-0.1c0,0,0,0-0.1,0c-0.1,0,0,0.1,0,0.1c0,0,0,0,0,0
				l0.1,0.1c0,0-0.1,0-0.1,0c0,0,0,0,0.1,0.1c-0.1,0-0.1,0-0.2,0l0.1,0.1c0,0-0.1,0.1-0.1,0c0,0.1,0.1,0.1,0.1,0.2c0,0,0,0,0,0
				c0,0.1-0.1,0.1,0,0.2l-0.1,0.1c0,0.1,0.1-0.1,0.2,0C1047.1,496.8,1047,496.8,1047,496.9C1047,496.8,1047.1,496.9,1047,496.9
				C1047,496.9,1047,496.9,1047,496.9z M1047.1,497.6C1047.1,497.6,1047,497.6,1047.1,497.6C1047.2,497.5,1047.1,497.6,1047.1,497.6
				z M1047.4,498.7C1047.4,498.7,1047.4,498.6,1047.4,498.7C1047.4,498.6,1047.4,498.6,1047.4,498.7z M1048.3,501.6L1048.3,501.6
				C1048.3,501.5,1048.3,501.5,1048.3,501.6z M1048.3,501.6C1048.3,501.6,1048.3,501.6,1048.3,501.6
				C1048.3,501.6,1048.3,501.6,1048.3,501.6C1048.3,501.6,1048.2,501.6,1048.3,501.6z M1047.6,494.8L1047.6,494.8
				C1047.5,494.8,1047.6,494.8,1047.6,494.8z"/>
			<path fill="#6B6C6F" d="M1047.3,498.6C1047.3,498.5,1047.3,498.5,1047.3,498.6C1047.3,498.5,1047.3,498.5,1047.3,498.6z"/>
			<polygon fill="#6B6C6F" points="1046.9,496.4 1046.9,496.4 1046.9,496.4 			"/>
			<path fill="#6B6C6F" d="M1047.5,500.8C1047.5,500.8,1047.5,500.8,1047.5,500.8C1047.5,500.8,1047.5,500.8,1047.5,500.8z"/>
			<path fill="#6B6C6F" d="M1048.4,501.9L1048.4,501.9C1048.4,501.9,1048.4,501.9,1048.4,501.9
				C1048.4,501.9,1048.4,501.9,1048.4,501.9z"/>
			<path fill="#6B6C6F" d="M1048,502.4C1048,502.4,1048,502.4,1048,502.4L1048,502.4C1048.1,502.4,1048,502.4,1048,502.4z"/>
			<path fill="#6B6C6F" d="M1048.2,502C1048.1,502.1,1048.2,502.1,1048.2,502C1048.2,502.1,1048.2,502.1,1048.2,502
				C1048.3,502.1,1048.2,502.1,1048.2,502z"/>
			<path fill="#6B6C6F" d="M1048.2,502.1C1048.2,502.1,1048.2,502.1,1048.2,502.1C1048.2,502.1,1048.2,502.1,1048.2,502.1z"/>
			<path fill="#6B6C6F" d="M1048.3,501.7C1048.3,501.7,1048.4,501.7,1048.3,501.7C1048.5,501.7,1048.3,501.6,1048.3,501.7z"/>
			<polygon fill="#6B6C6F" points="1048,502.1 1048.1,502.1 1048,502.1 			"/>
			<path fill="#6B6C6F" d="M1048,501.9L1048,501.9C1048,501.9,1048,501.9,1048,501.9C1048,501.9,1048,501.9,1048,501.9z"/>
			<path fill="#6B6C6F" d="M1048,501.9C1048,501.9,1048,502,1048,501.9C1048,502,1048,501.9,1048,501.9z"/>
			<polygon fill="#6B6C6F" points="1047.9,502.1 1048,502 1048,502 			"/>
			<path fill="#6B6C6F" d="M1048,501.4L1048,501.4C1047.9,501.3,1047.9,501.4,1048,501.4C1047.9,501.4,1047.9,501.4,1048,501.4z"/>
			<path fill="#6B6C6F" d="M1047.8,501.6C1047.8,501.6,1047.8,501.6,1047.8,501.6L1047.8,501.6L1047.8,501.6z"/>
			<path fill="#6B6C6F" d="M1047.7,501.4C1047.7,501.4,1047.6,501.4,1047.7,501.4C1047.7,501.4,1047.7,501.5,1047.7,501.4z"/>
			<polygon fill="#6B6C6F" points="1047.7,500.7 1047.8,500.7 1047.9,500.6 			"/>
			<path fill="#6B6C6F" d="M1047.3,500.1C1047.2,500.1,1047.4,500.1,1047.3,500.1c0.1,0.1,0.1,0,0.1,0
				C1047.4,500.1,1047.4,500,1047.3,500.1z"/>
			<path fill="#6B6C6F" d="M1047.4,500.1C1047.4,500.1,1047.4,500.1,1047.4,500.1C1047.4,500.1,1047.4,500.1,1047.4,500.1z"/>
			<polygon fill="#6B6C6F" points="1047.6,492.4 1047.6,492.4 1047.5,492.4 			"/>
			<path fill="#6B6C6F" d="M1047.4,492.3l0.1,0L1047.4,492.3C1047.4,492.3,1047.5,492.3,1047.4,492.3z"/>
			<path fill="#6B6C6F" d="M1046.9,497.7L1046.9,497.7C1047,497.7,1047,497.7,1046.9,497.7L1046.9,497.7z"/>
			<polygon fill="#6B6C6F" points="1046.9,497.2 1046.9,497.2 1047,497.2 			"/>
			<path fill="#6B6C6F" d="M1046.8,496.8C1046.8,496.8,1046.8,496.8,1046.8,496.8C1046.8,496.8,1046.9,496.8,1046.8,496.8z"/>
		</g>
	</g>
</g>
<g>
</g>
<g>
</g>
<g>
</g>
<g>
</g>
<g>
</g>
<g>
</g>
<g>
</g>
<g>
</g>
<g>
</g>
<g>
</g>
<g>
</g>
<g>
</g>
<g>
</g>
<g>
</g>
<g>
</g>
</svg>
