<?xml version="1.0" encoding="utf-8"?>
<!-- Generator: Adobe Illustrator 18.0.0, SVG Export Plug-In . SVG Version: 6.00 Build 0)  -->
<!DOCTYPE svg PUBLIC "-//W3C//DTD SVG 1.1//EN" "http://www.w3.org/Graphics/SVG/1.1/DTD/svg11.dtd">
<svg version="1.1" id="Layer_1" xmlns="http://www.w3.org/2000/svg" xmlns:xlink="http://www.w3.org/1999/xlink" x="0px" y="0px"
	 viewBox="0 0 1079 670.4" enable-background="new 0 0 1079 670.4" xml:space="preserve">
<g>
	<path fill="#F58258" d="M552.6,286c0,0-43.4-74.9-48.1-85.3l-263,39.3c0,0-17.3,8.8-32.3,48.7c-7.4,10.7-16.6,26.5-26.9,49.7
		c-9.3,20.9-4.7,67.2,12.2,82.5c6,5.5,13.8,10,23.7,12.2c0,0,27.6,2.1,65.7,3.6l27.2,1.5h-0.3c66.8,1.8,150.4-8.6,180.7-23.8
		l-5.1-79.2L552.6,286z"/>
	<path fill="#F58258" d="M475.1,309.7c0,0,20.3,58.8,16.4,104.6l-14.6-40.4L475.1,309.7z"/>
	<path fill="#D65B51" d="M432.1,257.1l-20.3,40.3c-3.4,7.8-13.5,10-19.8,4.3l-17.4-15.4l-15.6,23.1c-3.7,5.5-11,7.2-16.7,3.8
		l-45.9-26.7L432.1,257.1z"/>
	<g>
		<circle fill="#D65B51" cx="387.8" cy="343.6" r="32.3"/>
		<polygon fill="#EBE5C9" points="377.6,333.2 379.3,319.3 405.4,341.2 384.3,368.2 389.1,348.3 		"/>
	</g>
	<path fill="#A3A5A8" d="M496.8,206.2l54.8,78.9l17.2-15.1c9.2-8,12.9-20.6,9.4-32.2l-1.6-5.3c-1-3.3-2.5-6.4-4.5-9.1l-16.3-22.3
		c-3.5-4.7-8.2-8.4-13.7-10.5v0c-9.8-3.7-20.9-2.2-29.4,4L496.8,206.2z"/>
	<path fill="#ABADB0" d="M366.2,45.7l87.2-7.9c29.8-2.7,59.3,7.6,81,28.3l0,0c30.7,29.4,40.4,74.5,24.4,113.9l-7.2,17.8
		c-17.2,42.3-60,68.4-105.5,64.3l-23.3-2.1"/>
	<path fill="#939598" d="M436.6,236.5L436.6,236.5c34.8,3.2,67.6-16.8,80.7-49.2l5.5-13.6c13.2-32.6,3.5-70.5-24.9-92.5
		C481.8,68.7,461.4,63.1,441,65l-49.5,4.5c-8.5,0.8-14.2,9-12,17.2l34.6,130.9C416.9,227.9,425.8,235.5,436.6,236.5z"/>
	
		<linearGradient id="SVGID_1_" gradientUnits="userSpaceOnUse" x1="-1126.1715" y1="381.6048" x2="-1193.1602" y2="562.7785" gradientTransform="matrix(-0.9829 0.184 0.184 0.9829 -845.1546 -20.9659)">
		<stop  offset="0" style="stop-color:#BCBEC0"/>
		<stop  offset="1" style="stop-color:#A3A5A8"/>
	</linearGradient>
	<path fill="url(#SVGID_1_)" d="M251,273c56.8,27.1,119,27.5,175-2.2c27-14.3,49.6-37.8,49.1-70c-0.1-9.2-2.2-18.1-5.1-26.7
		c-7.7-23.3-4.7-47.5-11.2-70.9C454,86,443.6,70.9,430.4,59c-25.7-23.2-59.4-30.6-97.2-32c-27.8-1.1-68.9,10.3-89.5,30.4"/>
	<path fill="#A1A3A6" d="M437.1,137.3c4.1,5.9,2.6,14.1-3.3,18.1c-5.9,4.1-14.1,2.6-18.2-3.4c-4.1-5.9-2.6-14.1,3.3-18.1
		S433,131.4,437.1,137.3z"/>
	<path fill="#67686B" d="M432.4,139.8c2.3,3.8,1.1,8.6-2.7,10.9c-3.7,2.3-8.6,1-10.9-2.7c-2.3-3.8-1.1-8.6,2.7-10.9
		C425.2,134.8,430.1,136,432.4,139.8z"/>
	<path fill="#A1A3A6" d="M344.8,153.3c4.2,6.1,2.7,14.3-3.3,18.5c-6,4.2-14.3,2.6-18.5-3.4c-4.2-6.1-2.7-14.3,3.3-18.5
		C332.3,145.7,340.6,147.3,344.8,153.3z"/>
	<path fill="#67686B" d="M342.5,156.4c2.3,3.9,1.1,8.8-2.7,11.2c-3.8,2.3-8.8,1.1-11.2-2.8s-1.1-8.8,2.7-11.2
		C335.1,151.3,340.1,152.6,342.5,156.4z"/>
	
		<linearGradient id="SVGID_2_" gradientUnits="userSpaceOnUse" x1="-987.7878" y1="361.0417" x2="-987.7878" y2="412.3448" gradientTransform="matrix(-0.9907 0.1358 0.1358 0.9907 -838.6618 18.7403)">
		<stop  offset="0" style="stop-color:#BEC0C2"/>
		<stop  offset="1" style="stop-color:#B1B3B6"/>
	</linearGradient>
	<path fill="url(#SVGID_2_)" d="M257,54.7L171.8,72c-29.4,5.4-55.1,23.3-70.4,49l0,0c-21.7,36.6-18.9,82.6,7.1,116.3l11.7,15.2
		c27.9,36.1,76.2,49.7,118.9,33.5l21.9-8.3"/>
	<path fill="#A1A3A6" d="M245,257.3L245,257.3c-32.1,13.8-69.5,5.1-92-21.6l-9.5-11.2c-22.7-26.9-25.2-65.9-5.1-95.7
		c11.4-16.9,29.2-28.5,49-33.1l48.4-11.1c8.3-1.9,16.3,4.1,16.8,12.6l7.8,135.2C261.1,243,254.9,253,245,257.3z"/>
	<path fill="#797A7D" d="M326.9,222.8c1.7-2.4,2.9-4.6,3.9-6.8c0.9-2.2,1.5-4.3,1.6-6.5c0-0.5,0.1-1.1,0.1-1.6c0-0.6,0-1.1,0-1.7
		c-0.1-1.1-0.2-2.3-0.4-3.5c-0.4-2.4-1.1-4.8-1.6-7.6l0-0.1c0-0.1,0.1-0.2,0.2-0.2c0.1,0,0.1,0,0.2,0.1l1.2,1.7l1.1,1.7
		c0.7,1.2,1.3,2.4,1.8,3.6c0.5,1.2,0.9,2.5,1.1,3.8c0.2,1.3,0.3,2.6,0.2,4c-0.2,2.6-1.2,5.2-2.8,7.5c-1.6,2.3-3.7,4.3-6.3,5.8
		c-0.1,0-0.2,0-0.3,0C326.8,223,326.8,222.9,326.9,222.8L326.9,222.8z"/>
	<g>
		<path fill="#797A7D" d="M342.9,133.5c-2.4,1.2-4.7,2.2-6.8,3.2c-2.2,1-4.2,2.1-6.1,3.3c-1.9,1.2-3.6,2.5-5.2,4
			c-1.6,1.6-2.9,3.5-4.4,5.7l0,0.1c0,0.1-0.1,0.1-0.2,0c0,0-0.1-0.1-0.1-0.1c0.4-2.5,1.3-5,2.8-7.1c1.4-2.1,3.4-3.9,5.5-5.2
			c2.2-1.3,4.6-2.3,7-3c2.4-0.7,5-1.1,7.5-1.2c0.1,0,0.1,0.1,0.1,0.1C343,133.4,343,133.4,342.9,133.5L342.9,133.5z"/>
	</g>
	<g>
		<path fill="#797A7D" d="M437.1,130.4c-2.5-1.1-4.7-2.2-6.8-3.2c-2.2-1-4.3-1.9-6.4-2.6c-2.1-0.7-4.2-1.2-6.4-1.4
			c-2.2-0.2-4.5-0.1-7.3,0.2l-0.1,0c-0.1,0-0.1,0-0.2-0.1c0-0.1,0-0.1,0.1-0.1c2.2-1.3,4.7-2.2,7.2-2.3c2.6-0.2,5.1,0.2,7.6,0.9
			c2.4,0.8,4.7,2,6.8,3.5c2.1,1.4,4,3.1,5.7,5c0.1,0.1,0,0.1,0,0.2C437.3,130.4,437.2,130.4,437.1,130.4L437.1,130.4z"/>
	</g>
	<g>
		<path fill="#CE5C45" d="M264.5,282.5c-1.2,1.9-2.3,3.7-3.4,5.5c-0.1,0.2-0.4,0.3-0.6,0.4c-0.2,0.1-0.4,0.3-0.6,0.4l-1.1,0.9
			c-0.8,0.6-1.5,1.2-2.3,1.9c-3,2.6-5.9,5.3-8.7,8.1c-2.7,2.9-5.4,5.8-7.9,8.8c-1.3,1.5-2.5,3.1-3.7,4.6c-1.8,1.1-3.6,2.3-5.6,3.3
			c0.4-2.2,1-4.3,1.6-6.4c1.3-1.6,2.5-3.2,3.8-4.8c2.6-3.2,5.4-6.2,8.2-9.1c2.9-2.9,5.9-5.7,9-8.4c1.6-1.3,3.2-2.6,4.8-3.9
			c1-0.3,2.1-0.7,3.2-0.9C262.2,282.8,263.3,282.5,264.5,282.5z"/>
	</g>
	
		<linearGradient id="SVGID_3_" gradientUnits="userSpaceOnUse" x1="1076.1951" y1="-3238.4883" x2="1167.4246" y2="-3238.4883" gradientTransform="matrix(0.6522 0.8261 0.7849 -0.6197 2125.0627 -2631.8745)">
		<stop  offset="0" style="stop-color:#BEC0C2"/>
		<stop  offset="1" style="stop-color:#B1B3B6"/>
	</linearGradient>
	<path fill="url(#SVGID_3_)" d="M266.2,278.9l57.7,76.8l16.7-15.7c8.9-8.4,12.1-21.1,8.1-32.6l-1.8-5.2c-1.1-3.2-2.8-6.3-4.9-9
		L325,271.6c-3.6-4.6-8.5-8.1-14.1-10l0,0c-9.9-3.4-21-1.5-29.2,5.1L266.2,278.9z"/>
	<path fill="#797A7D" d="M334.8,210c0,0,17.9-14.1,37.7-2.5l5,5.2h-42.7V210z"/>
	<path fill="#FFFFFF" d="M418.1,162.6c5.6,0.4,21.8,1,32.1-5.5c1.1-0.7,2.3,0.5,1.7,1.6c-3.2,6.1-11.2,16.6-28.7,19.4
		c-0.6,0.1-1.1-0.2-1.4-0.8l-5-13.1C416.5,163.4,417.2,162.5,418.1,162.6z"/>
	
		<linearGradient id="SVGID_4_" gradientUnits="userSpaceOnUse" x1="-814.13" y1="463.9177" x2="-1059.4427" y2="463.9177" gradientTransform="matrix(1.635437e-002 -0.9999 0.9999 1.635437e-002 -15.3452 -649.5398)">
		<stop  offset="0" style="stop-color:#C7C8CA"/>
		<stop  offset="1" style="stop-color:#B1B3B6"/>
	</linearGradient>
	<path fill="url(#SVGID_4_)" d="M404.2,144.9c4.9,2.5,9.1,6.2,12.7,10.3c3,3.5,8.1,5.8,11.4,8.9c31.3,29.4,66.7,54.2,82.9,96
		c14.2,36.7,9.7,79.9-11.2,113.2s-57.5,56.1-96.5,60.8c-16.7,2-34,0.9-50,6.3c-1.5,0.5-3.2,0.7-4.7,0.3c-5.5-1.3-5-7.3-2.8-11.2
		c1.8-3.2,4.5-6,5.2-9.6c0.9-4.7-2-9.1-3.5-13.7c-1.8-5.5-0.3-13.6,7.3-12.1c1.1,0.2,2.1,0.7,3.1,1.3c13.6,8.6,30.9,7.5,46.2,3.4
		c18.7-5,36.4-14.5,49.4-28.9c13-14.3,20.8-33.7,19.3-53c-2.1-25.8-20-47.7-40.1-63.9s-43.2-28.7-62.2-46.3
		c-8.4-7.8-16.3-17.3-18.1-28.6c-2.2-13.5,5.3-27.5,16.9-34.2c5-2.9,11-4.8,16.9-4.9C393.4,138.8,398.3,141.9,404.2,144.9z"/>
	<path fill="#A9ABAE" d="M391.2,179.5c3.4-5.2,11.4-15.4,25.8-22.2c1.1-0.5,0.7-2.1-0.5-2c-8.9,0.6-26,4.2-27.2,23.5
		C389.2,179.9,390.6,180.4,391.2,179.5z"/>
	<path fill="#A9ABAE" d="M405.1,192.2c3.4-5.2,11.3-15.3,25.6-22c1.1-0.5,0.7-2.1-0.5-2c-8.9,0.6-25.8,4.2-27,23.4
		C403.1,192.6,404.5,193.1,405.1,192.2z"/>
	<path fill="#A9ABAE" d="M418.7,205.3c3.4-5.2,11.3-15.3,25.6-22c1.1-0.5,0.7-2.1-0.5-2c-8.9,0.6-25.8,4.2-27,23.4
		C416.7,205.7,418.1,206.2,418.7,205.3z"/>
	<path fill="#FFFFFF" d="M347.9,178.1c5.6,0.4,22,0.9,32.3-5.7c1.1-0.7,2.3,0.5,1.8,1.6c-3.2,6.2-11.2,16.8-28.9,19.7
		c-0.6,0.1-1.2-0.2-1.4-0.8l-5.1-13.1C346.3,178.9,347,178,347.9,178.1z"/>
	<g>
		<path fill="#A18061" d="M1074.3,594.1l-26.9-12.2c-7.6-3.4-5.7-12.1,2.9-13.6l20-3.4c8.6-1.4,10.5-10.1,3-13.5l-39.4-18
			c-6.6-3-6.2-10.3,0.7-12.9l23.5-8.9c7-2.7,7.2-10.2,0.4-13.1l-31.1-13.1c-6.6-2.8-6.7-9.8-0.3-12.8l25.7-11.8
			c6.4-2.9,6.3-9.9-0.2-12.7l-24.8-10.8c-5.9-2.6-6.6-8.8-1.4-12.1l46.9-29.5c7.1-4.4,2.9-13.1-6.3-13.1h-56.1h-5.3H73.4H58.2H47.8
			c-9.3,0-13.4,8.8-6.1,13.2l7.3,4.4c6.3,3.7,4.3,11.2-3.4,12.9l-5,1.1c-7.7,1.7-9.6,9.2-3.3,12.9c6.4,3.8,4.3,11.4-3.5,13
			l-26.5,5.3c-8.4,1.7-10,10.1-2.5,13.5l26.9,12.2c7.6,3.4,5.7,12.1-2.9,13.6l-20,3.4c-8.6,1.4-10.5,10.1-3,13.5l39.4,18
			c6.6,3,6.2,10.3-0.7,12.9L21,541.5c-7,2.7-7.2,10.2-0.4,13.1l31.1,13.1c6.6,2.8,6.7,9.8,0.3,12.8l-25.7,11.8
			c-6.4,2.9-6.3,9.9,0.2,12.7l24.8,10.8c5.9,2.6,6.6,8.8,1.4,12.1L5.7,657.3c-7.1,4.4-2.9,13.1,6.3,13.1h46.2h15.2h932.2h5.3h20.3
			c9.3,0,13.4-8.8,6.1-13.2l-7.3-4.4c-6.3-3.7-4.3-11.2,3.4-12.9l5-1.1c7.7-1.7,9.6-9.2,3.3-12.9c-6.4-3.8-4.3-11.4,3.5-13l26.5-5.3
			C1080.1,605.9,1081.7,597.5,1074.3,594.1z"/>
		<path fill="#8F7256" d="M45.1,487c78.9-0.6,157.8-1,236.6-1.2c78.6-0.2,157.3-0.1,235.9,0.2c44.5,0.2-2.9,0.4,41.5,0.7
			c9.9,0.1,4.6-8.5-2.7-8.5c-79.1-0.5-66.4-0.9-145.5-1c-79.2-0.1-158.4,0.1-237.6,0.4c-44.8,0.2-89.6,0.5-134.4,0.9
			c-3.5,0-4.7,2.7-3.3,4.8C37.3,485.9,41.5,487,45.1,487L45.1,487z"/>
		<path fill="#8F7256" d="M352.6,530.1c123.4,5.7,247,8.1,370.6,7.1c34.7-0.3,261.4-0.8,296.2-1.6c9.3-0.2,7.3-11.2-1.1-11
			c-123.5,2.8-439.2,2.4-562.7-1.5c-34.7-1.1-69.4-2.4-104.1-4C342.2,518.7,344.2,529.7,352.6,530.1L352.6,530.1z"/>
		<path fill="#8F7256" d="M534.9,566.5c80.6-1.6,353.2-1.9,433.9-0.8c22.7,0.3,45.3,0.7,68,1.3c9.3,0.2,9.8-10.1,0.1-10.3
			c-80.6-1.9-353.2-2.4-433.9-1.5c-22.7,0.2-45.3,0.6-68,1C525.7,556.4,525.2,566.7,534.9,566.5L534.9,566.5z"/>
		<path fill="#8F7256" d="M176.6,587.7c108.1,3.5,216.1,7,324.2,10.5c30.7,1,61.4,2,92.1,3c3.6,0.1,7.9-1.4,8.5-4.3
			c0.6-2.8-2.8-5.1-6.4-5.2c-108.1-3.5-216.1-7-324.2-10.5c-30.7-1-61.4-2-92.1-3c-3.6-0.1-7.9,1.4-8.5,4.3
			C169.6,585.3,173.1,587.6,176.6,587.7L176.6,587.7z"/>
		<path fill="#8F7256" d="M86.6,653c69.9-1.8,139.9-1.6,209.7,0.8c20,0.7,39.9,1.5,59.8,2.6c3.7,0.2,7.3-2,7.2-4.9
			c-0.1-3.1-4.1-5-7.8-5.2c-69.8-3.6-139.7-5.1-209.6-4.4c-20,0.2-40,0.5-59.9,1.1C76.2,643.3,77.3,653.3,86.6,653L86.6,653z"/>
		<path fill="#8F7256" d="M328.1,441.1c81-1.7,162.1-2.5,243.1-2.2c40.7,0.1,81.4,0.5,122,1.2c39.8,0.6,79.7,1.7,119.5,1.9
			c45,0.2,90.1-0.9,134.8-5.3c2.4-0.2,9.9-1.5,10.4-3.8c0.5-2.5-5.6-1.8-7.3-1.6c-78.8,7.8-158.6,4.4-237.8,3.1
			c-80.3-1.3-160.6-1.7-240.9-1.1c-45.5,0.3-90.9,1-136.4,2c-3.6,0.1-9.6,1-11.9,3.3C321.4,440.9,325.9,441.2,328.1,441.1
			L328.1,441.1z"/>
		<g>
			<g>
				<g>
					
						<rect x="72.3" y="350.8" transform="matrix(-0.9149 0.4038 -0.4038 -0.9149 474.6885 757.6173)" fill="none" width="170.4" height="156.1"/>
					<path fill-rule="evenodd" clip-rule="evenodd" fill="#8F7256" d="M91.7,386.5c-0.9,1.6-2.2,1.2-4.8,3
						C87.5,387.9,89.8,385.7,91.7,386.5z"/>
					<path fill-rule="evenodd" clip-rule="evenodd" fill="#8F7256" d="M188.1,354.4c1.4-1.1,1.6,0.9,2.8,0.5
						C191.4,356.8,188.1,356.2,188.1,354.4z"/>
					<path fill-rule="evenodd" clip-rule="evenodd" fill="#8F7256" d="M160.7,375.2c1.2,5.9-2.8,1.2-1.3,4.9
						c-1.3-0.7-2.9-0.9-3.8-2.7C157.5,375.4,158,376.2,160.7,375.2z"/>
					<path fill-rule="evenodd" clip-rule="evenodd" fill="#8F7256" d="M79.7,430.1c-2,1.8-4.4,2.4-5.4,1.5c0.3,2.5-4,3.3-6.6,4.7
						c-1.1-2.5,3.2-2.8,2-5.2c4.9-1.7,7.2-0.7,8.7-3.9C82.6,426.3,77.6,430.4,79.7,430.1z"/>
					<path fill-rule="evenodd" clip-rule="evenodd" fill="#8F7256" d="M221.5,370.9C218.4,373.1,218.7,368.1,221.5,370.9
						L221.5,370.9z"/>
					<path fill-rule="evenodd" clip-rule="evenodd" fill="#8F7256" d="M222.6,369.6c0.5-0.2,1-0.4,1.5-0.6c1,1.4-0.4,1.8-1.5,2.4
						C222.4,370.7,223,370.3,222.6,369.6z"/>
					<path fill-rule="evenodd" clip-rule="evenodd" fill="#8F7256" d="M180.6,398.6c3-1,0.5,2.5,2.7,2.3
						C182.2,403.5,180.9,401,180.6,398.6z"/>
					<path fill-rule="evenodd" clip-rule="evenodd" fill="#8F7256" d="M186,397c0.5,1.8-1.2,2.5-2.6,2
						C182.9,397.3,184.6,396.5,186,397z"/>
					<path fill-rule="evenodd" clip-rule="evenodd" fill="#8F7256" d="M185.3,405.2c-0.9,0.3-1.2-1.1-1.7-1.9c0.7-0.3,1.5-0.6,2.2-1
						C186.9,403.8,184.8,404,185.3,405.2z"/>
					<path fill-rule="evenodd" clip-rule="evenodd" fill="#8F7256" d="M192.3,399.5c0.3,0.9,0.7,1.2,1.4,1.1
						c-0.7,1.7-2.2,1.3-3.6,1.6C189.7,400.9,190.6,400,192.3,399.5z"/>
					<path fill-rule="evenodd" clip-rule="evenodd" fill="#8F7256" d="M189.5,444.3c-0.9-1.3,2.8-2.5,2.5-0.2
						c-0.5,0.2-1,0.4-1.5,0.6C190.4,444,189.9,444.1,189.5,444.3z"/>
					<path fill-rule="evenodd" clip-rule="evenodd" fill="#8F7256" d="M151.4,464.5c0.7-0.3,1.5-0.6,2.2-1c0.2,1.1-0.8,1.7-0.5,2.8
						C152.2,466.7,151.9,465.3,151.4,464.5z"/>
					<path fill-rule="evenodd" clip-rule="evenodd" fill="#8F7256" d="M218,436c-0.2-1.1,1.6-1.4,2.6-2c0.8,2,1.9,0.9,1.3,2.9
						C219.8,438.6,219.8,434.9,218,436z"/>
					<path fill-rule="evenodd" clip-rule="evenodd" fill="#8F7256" d="M222.1,433.3c1.4-0.9,2.3-0.9,2.8,0.5c-0.7,0.3-1.5,0.6-2.2,1
						C222.5,434.3,222.3,433.8,222.1,433.3z"/>
					<path fill-rule="evenodd" clip-rule="evenodd" fill="#8F7256" d="M147.4,467.2c1.6-1.1,2.2,0.6,4-0.9
						C150.8,467.9,148.4,470.4,147.4,467.2z"/>
					<path fill-rule="evenodd" clip-rule="evenodd" fill="#8F7256" d="M155.1,469c0.8,0.2,1.7,0.3,1.5-0.6c3.9,0.6-1.4,2.6,0.2,4.3
						C154.3,473,156.1,470.1,155.1,469z"/>
					<path fill-rule="evenodd" clip-rule="evenodd" fill="#8F7256" d="M160.5,469.2c0.9,0.3,2,0.1,3.2-0.6
						C164.5,469.9,160.2,471.8,160.5,469.2z"/>
					<path fill-rule="evenodd" clip-rule="evenodd" fill="#8F7256" d="M232.2,452.4c0.5,1.9-2.8,1.3-2.8-0.5
						C230.4,451.7,231.1,452.7,232.2,452.4z"/>
					<path fill-rule="evenodd" clip-rule="evenodd" fill="#8F7256" d="M230,453.3c0.7,1.1-0.1,1.6,0.2,2.5
						C229,456.8,227.7,453,230,453.3z"/>
					<path fill-rule="evenodd" clip-rule="evenodd" fill="#8F7256" d="M124,501c1,0.5,2.8-1,3.1,1.2C125.6,503,124.6,502.6,124,501z
						"/>
					<path fill-rule="evenodd" clip-rule="evenodd" fill="#8F7256" d="M208.9,476.6c-0.4-1.8,3.5-1.9,4.8-3
						C214.1,475.3,210.3,475.5,208.9,476.6z"/>
					<path fill-rule="evenodd" clip-rule="evenodd" fill="#8F7256" d="M76.6,389.7c1.1-0.3,1.4,1.5,2,2.6c2-1.5,2.7,0.3,4.7-1.2
						c-1.2-2.3,4.2-1.9,3.8-5.2c5.3,0.3,12.4-1.9,13.5,1c1.3-6.4,7-1.4,9.2-6.7c2.7,3.8-6,3.9-5.6,5.1c1-0.1,1.9,0.3,2.4,1.5
						c-2-0.3-5,3-3.1-1.2c-6.2,4.4-12.6,5.1-20.8,10.1c-5.7,3.5-15.7,7.9-11,14.4c6.3-5,9.6-2.1,11.8-8.7c0.3,1.1-0.7,1.8-0.5,2.8
						c3.6,0.2,8.9-1.3,8-3.5c1.6,2,4.9-0.2,7.1,0.3c-3.8,2.1-4,2-5.9,4.4c-2.2-2.4-3.2,1.2-6.1,0.1c2.1,1.3,0.3,2.9,2.3,3.3
						c0.4-4.2,6.3,0,7.9-1.8c-0.8-1.4,1.1-4.7,3-3.1c-1.1,0.6-2.6,1-1.5,2.4c1.4-1.7,4.3,0.1,3.6-1.6c-1,0.4-1.8-1.6-1-2.2
						c1,1.5,2.4,2,4.2,1.6c1.4-1.8-2-2.4-0.6-3.2c1.4,0.7,3.9,3.9,3.6,0.2c-0.6,0.1-1.4,0.6-1.8-0.1c2-3.1,2.2-0.8,3.6,0.2
						c-0.8-5.2,4.8-1,6.3-5.4c-0.6,2,0.5,0.9,1.3,2.9c-2.9-1.4-1.1,4-4,2.7c0.9,3.7,2.2-1.6,2.8,0.5c-1.8,1.7-2.3,2.9-1.6,4.2
						c-1.9,0.2-9.8,3-5.2,4c-2.2,1-6.5,4.6-6.1,1.8c-4.7,3.9-9.8,3.2-10,7c-1.8,0.5-4,0.9-3.1-1.2c-4.8,1-4.1,4-7,5.7
						c1.3,2.3,4.1,2.5,2.3,5.1c0.3-3.4-2.7-2.1-4.8-3.1c3.1,2.2-1,2.1,0.5,5c2.2,0,1.2-4.3,3.3-2.3c-0.5,0.2-1,0.4-1.5,0.6
						c0.5,2.5,1.9,2.3,2.7,4c-0.9,0.4-1.4-0.5-2.5,0.2c1.6,4,3.3-1.5,5.7,1c0.3,1.5-1.5,2.2,0.2,4.3c4-0.6,4.4,0.6,7.2-1.4
						c0.5,1.3,1.2,2.2,2,2.6c-1.4,1.2-3.2-1-1.9,1.7c1.1,1.3,3.6-1,4.6,0.6c-2.2,2-1.6,5-4.9,6.5c0.4,1.4,1.5,1.2,2,2.6
						c-2.9-1.1-0.2,1.4-1.5,2.4c-2.5,1.4-3,2.7-5.8,2.6c0.6,3.2-2.1,2.7-4.5,3.7c0.7,4,4.8-0.9,6.4,0.7c-2.6,0.6-3.2,2-4.8,3
						c0.4-1.4,0-2.1-1.7-1.9c0.3,1.5-2.6,1.8-0.9,3.9c2.4-0.1,4.2-0.8,5.8-2.6c1.4,0.5,2.1,2.3,1.6,3.6c3.2-1.3,4.1-2.9,5.8-2.6
						c0.4,2.5-4.4,5.1-0.3,7.1c-2.5,1.6-5.6,3.1-5.3,5.8c7.6-1.2,6.2-4.7,13-4c-1.7,1.1-7.4,4-3.9,6.9c-2.2,1-4.5,1.9-3.4,4.1
						c3.1-1.6,5.2-3.4,8-3.5c-1.3,0.7-2.2,1.6-2.3,2.7c1.8,0.7,3.3-1.8,3.7-3.4c1.1,3.2,11.1-2.2,11.7-5.1c0.3,0.7,0.6,1.5,1,2.2
						c2.7-4,5.2-0.5,4.1-4.4c12.6-2.4,26.1-12.6,37.7-13.2c-2,1.9-4.4,4.2-6.6,2.9c0.2,0.5,0.4,1,0.6,1.5c-0.4,0.2-0.8,0.5-0.4,1
						c1.4-0.5,2.6-0.6,3.6,0.2c-0.2,1-2.6,4.1,0.2,4.3c0.5-1.7,4.4-0.8,4.5-3.7c1.5,2,1.1,1.2,1.6,3.6c2.4-1.1-0.3-4.2,3.1-4.8
						c1.4,2.4,2.8,0.2,1.3,2.9c8.4-1.1,20.7-11.6,30.1-10.7c-0.4-1.1-1.4-2.6-0.6-3.2c0.7-0.3,1.5-0.6,2.2-1
						c3.1,5.9,7.9-4.1,13.8-4.3c2.3-4-1.4-8.2,2.3-10.6c-0.6,0.1-1.1-0.2-1.4-1.1c-3.6,3.9-9.8,4.3-12.9,2.2
						c0.4,1.1,1.4,2.6,0.6,3.2c-2.4-2.9-6.3,8.1-7.1-0.3c-0.7-0.7-3.9,0.7-1.5,0.6c0.5-0.2,0.9-0.3,1,0.4c-0.7,4.4-2.9,0.7-1.3,4.9
						c-1.4,0-2.1-1.8-3.9-0.9c0.3,0.9,1,2,0.2,2.5c-0.6,0.1-1.4,0.6-1.8-0.1c0.5-1.4,2.6-3.6-0.6-3.2c1.2,3.7-2.3-2.1-4.7,1.2
						c0.3,2.3,1.9,1.4,2.3,3.3c-0.7,0.3-0.6,1-1.1,1.4c-2.1-2.4-5.7,2.5-7.9,1.8c0.5,1.4,0.6,2.6-0.2,3.6c-0.4-1.4-1.5-1.2-2-2.6
						c-1.9,1.4-7.6,3.4-4.9,4.8c-1,0.4-1.4,1-1.9,1.7c0.6-2-1.2-1.2-0.6-3.2c-2.7,0.2-1.3,1.9-2.3,2.7c-1.5-1.8,0.2-2.3-0.9-4
						c-8.3,1.3-17,5.7-24.6,7.4c15.6-6.9,31.3-15,47.7-21.9c2.9-4.9,9.7-4.4,13.8-6.1c0.6-0.3,6.1-6.8,7.6-2.5
						c2.6-0.4-0.1-2.8,1.9-3.5c2.8,2.4,4.9-3,7.9-1.8c-0.9,0.5-1.6,1-0.8,2.1c1.6-1.6,4.3-2.1,6.9-2.2c-0.1-3.4-2.6-0.7-3.5-1.9
						c5.1-2.9,2.8,3.7,7.4,1.1c-0.1-2.8-2.6,0.5-2.7-2.3c1.8-0.5,3.2-0.1,5.4-1.5c-1-1.6-1.1-2.8-0.9-4c-2.3,0.3-1.4,1.9-3.3,2.3
						c-0.3-0.7-1-0.6-1.4-1.1c1.3-0.3,1.5-1.8,0.1-1.8c0.2,3.2-1.1-2.1-2.1-0.8c0.9,1-3.4,2.9-3.6,1.6c2.3,0.3,1-3.4-0.2-2.5
						c0.8,1-1.6,3.6-2.6,2c1.4-1.3,2.7-1.4,3.4-4.1c-2.8,5.4-10.9,1.5-10,7c-5.3-3.9-18.5,5.8-22.9,1.4c-1.9,2.2-4.9,1-6.1,1.8
						c-0.6-1.2-0.8-2.3-0.6-3.2c-1.9-0.8-1.8,2-3.6-0.2c3.4-0.9-1.2-1.2,0.8-2.1c3.6,1.8,6.5-2.6,9.3-0.6c-2.6,0.4-2.5,1.9-3,3.1
						c-0.7-3-4.5,0.4-2.6,2c4.5,0.6,6.2-6.4,9.5-4.2c1.1-2.7-1.9-0.4-2.7-2.3c1.7,0.3,5.7-2.7,4.5-3.7c0.4,1,1.6,0.1,2.1,0.8
						c-0.3,1.1-2.6,1.4-1.2,3.1c1.3,2.7,2.9-1.2,3.6,0.2c0.2,0.4,0.5,0.8,1,0.4c-2.8-2.3-2.2-4.9-5.1-5.6c2.5-1.8,8.5-2.6,7.7-4.3
						c5.7,0.2,12.8-3,19.5-5.1c-2-4.6,4-6.1,3.3-10.2c1.2,3.1,1.1-0.5,2.2-1c0.4,2.1,1.5,2.5,3.2,1.2c-2.9-4-13.2,1.2-10.8,3
						c-3.7-0.5-3.6,1.2-7.4-1.1c-2.2,1-1.6,3-3.4,4.1c-1.3-1,1.1-3.4-1.3-2.9c1.7,4.5-2.1-2.4-1.5,0.6c-0.1,1.7,3.3,1.5,1.3,2.9
						c-3.4,1.2-1.4-2-3.8-2.7c-1.1,1,1.6,3.4,0.2,4.3c-1.8-2.8-5.7-1.3-1.8-0.1c-6.3,0.2-7.3,4.3-12.8,6.5c-0.9-3.4-1.2,1.2-2.1-0.8
						c-0.2-0.5-0.4-1-0.6-1.5c1.6,0.7,3.2-0.8,3.3-2.3c-1,0.4-1.2-1-2.1-0.8c2.6,4.1-3.7,1.3-3.1,4.8c0.9-0.3,1.8-0.5,2.1,0.8
						c-1.7,1.1-4.6,1.6-6.1,1.8c1.3-2.3,2.5-1.9,3.7-3.4c-1.9-3.5-3.3-0.4-5.2-2c-1.6,6-5.4,2.2-8.8,5.6c-0.4-0.9,0.5-1.4-0.2-2.5
						c-2.8,0.1,0.5,2.6-2.3,2.7c-0.4-2.6-1.9-2.5-3.1-3c4.6-0.2,5-5.3,8.7-2.1c-1.3-1.2,0.4-4.1,1.5-2.4c0.2,1-3,3.5-0.2,3.6
						c2.6-1.8,5.9-5.8,4.4-9.8c4,1,5.5-1,9.6,0.1c-1.8-1.3-3-2.2-2.3-5.1c1.3,2.5,2.6-2.7,3.2-0.6c-0.9,0.7-0.9,1.7-2.6,2
						c0.8,1.3,4,4,4.2,1.6c-3.2-0.9,0.9-3.6,2.6-2c-0.1,0.5-3.1,2.6-0.8,2.1c0-3,4.7-2.4,5.2-4c-0.6,0.1-1.1-0.2-1.4-1.1
						c-3.7,4.9-12.3-3.6-4.1-3.4c-0.9,0.5-1.6,1-0.8,2.1c1.8-1.6,1.9-1.6,4.4-1.9c-1.5-3.9,8.2-3.3,3.1-4.8c1.9-1.7,4.5,2.6,5-0.5
						c-2.6-1.2,4-0.2,2.3-2.7c-0.8,0.4-2,0.5-1-0.4c2.4-0.3,1.3,0.7,2,2.6c2.7-1.9,2.5-1.2,5.8-2.6c-0.1-2.8-2.6,0.5-2.7-2.3
						c2.1,0.5,5.9-2.2,5.9-4.3c-2.6,0.8-6.3,2.1-8.4,4.6c0.8-0.1,1.5,1.7,1,2.2c-2.9-3.5-5.4,1.5-8.5-1.5c2.3-0.3,1.4-1.9,3.3-2.3
						c1.1,0.3,1.4,2.6,3.1,1.2c-1.3-2.7,0.8-3,3.7-3.4c1.4-4-0.7-5.9-3-10.8c-1.9,3.1-4.4,6.4-7.8,6c1-3,2.3-3.2,5.9-4.3
						c-5.3-2.3-6.8,6-9.7,1.7c-0.1,2.5,3.6,2.8,1.9,4.4c0-3.1-2.7,0.7-3.1-1.2c0.9-0.4,0-2.4-1-2.2c0.6,1.7-2.3-0.1-3.6,1.6
						c-0.1,1.7,3.3,1.5,1.3,2.9c-0.8-0.2-3-4.3-3.1-1.2c0.8,0.2,3.8,2.4,2.3,3.3c-0.5-1.9-2-1-2.3-3.3c-3.1,2.8-0.4,0.1-2.8-0.5
						c-0.2,2.1-3.8,3.2-0.2,3.6c-4.1,1-3.5-1.6-7.5,0.7c0.3,0.9,1,2,0.2,2.5c-3.5-1.1-5.8,3.5-7.8,0c-0.4,1.1-0.8,2.1-1.2,3.1
						c-0.2-1-3.2-1.6-2.5,0.2c2.6,2.1,3.9-2.5,6.1-0.1c-4.8,2.5-9.5,1-9.2-1.2c-0.8,2.9-3.4,5-5.2,4c0.4,1.1,1.4,2.6,0.6,3.2
						c-3.1-0.1-2.7,4.1-4,2.7c1-0.4,0.1-1.6,0.8-2.1c0.7-0.3,1.5-0.6,2.2-1c-3.4-5.2-10.5-2.4-13.6,0.8c-0.4-0.5-0.7-1.4-1.4-1.1
						c0.8,2,1.9,0.9,1.3,2.9c2.4-2.7,2,0.7,4.4-1.9c-0.6,2.1,1.8,2.5,0.9,4c-0.5-0.8-1-0.1-1.5,0.6c0.1-2.6,0.2-1.1-1.8-0.1
						c-0.3-0.9,0.6-2.2-1-2.2c0.4,1.8-3.6,2.3-4.4,1.9c-0.3,2.3-1,4.4-3.5,5.9c-0.4-1-0.9-1.9-1.3-2.9c0.5,0,3.6,0.6,2.9-1.3
						c-1.1-1.2-4,2-5,0.5c-0.2-0.9,0.6-0.8,1.5-0.6c-3-4.4-2.8,2.6-5.7,0.8c-0.2-1.3,2-1.6,0.2-3.6c-2.6,0.4-2.5,1.9-3,3.1
						c-2.5-3.8,3.2-4.6,4.5-5.5c0.4,1.2-1.6,1.4-0.5,2.8c1.9-8.3,14.8-5.5,21-13.6c-2.4-3.3-9.8-1.6-10.1-5.1
						c2.6-0.2,4.1-1.3,5.7-0.8c-1,0.2-1.6,3.2,0.2,2.5c1.4-3.5,4.1,2.8,6.3,2.4c-0.6,0.5-3.1,3.1-0.5,2.8c-0.3-2.4,2.6-1.4,2.3-2.7
						c-0.8,0.1-3.4-2.4-2-2.6c3.6,0.1,10.5-3.3,10-8.8c-1.7,2.7-1.9,2.1-5.1,2.3c0.4,1,1,1.4,1.7,1.9c-3.1,4-6.3-0.9-7.9,1.8
						c1.8-0.6,0.1,2.3-0.5,2.8c-0.2-4.1-1.2-3.3-2.7-2.3c0-1,0-2,0.5-2.8c0.8,0.2,2.4-1.5,3.3-2.3c-0.9,0.3-1.8,0.5-2.1-0.8
						c0.7-0.3,0.6-1,1.1-1.4c0.7,0.7,1.5,1.3,2.4,1.5c1.6-2.2,1.6-3.9-1.6-3.6c5.1-1.7,11.8,0.9,13.4-5.1c0.7,1.9,2.1,1.8,3.5,1.9
						c-1.6-2.9,3.6-1.2,4.7-1.2c0.1-2.6,5-5.6,5.9-4.3c3.4-1.5,1.9-4.9,2.8-7.3c2,3.1,2.9-3.4,7.3-3.2c-0.9-1.8-1.7-3.5-1.2-4.7
						c-1.8,1-9.9,4.4-10.3,0.2c-0.9,0.3-1.8,0.5-2.1-0.8c-10.5,4.7-14.6,7.7-24,10.6c-0.8,0.9,1.1,2.9-0.2,3.6
						c-16.8,2.9-41,15.5-56.8,25.1c-0.2,2.2,3.9,1,2,2.6c-4.2-0.5-3.5,3.6-6.3,5.4c-1.3-1,1.1-3.4-1.3-2.9c-0.3,2.8-3.1,2.3-6.2,3.6
						c0.2,2.9-2.9,5.6-6,6.1c1.3-1.1,2.5-2.9-0.2-2.5C80.1,388.6,75.5,388,76.6,389.7z M121.1,390c1-2.3,2.7-0.8,4.8-3
						C125.7,390.4,123.9,389.9,121.1,390z M186.1,448.4c-0.2-0.5-0.4-1-0.6-1.5c0.8,0.1,1.5,0.2,2.5-0.2
						C188.2,448.4,187.5,448.7,186.1,448.4z M105.5,382.1c-0.3-1.1,2.1-1.2,1.5-2.4C109.7,379.5,107.2,382.1,105.5,382.1z
						 M119.1,373.5c1.5,0,0.7,1.3,1,2.2c-0.8-0.1-1.5-0.2-2.5,0.2C117.2,374.8,119.6,374.7,119.1,373.5z M116.8,384.1
						c0.5-1.3,5.2-0.1,6.7,1.4c-1.6,0.8-4.7-2.1-5,0.5c-1.2,0.1-0.2-0.7-0.6-1.5C117.7,383.8,117.3,383.9,116.8,384.1z M129.4,381.1
						c1.2-0.8,3.1,3.5,0.6,3.2C129.3,383.1,130.2,382.4,129.4,381.1z M136,378.2c0.5-0.2,1-0.4,1.5-0.6c1,1.4-0.4,1.8-1.5,2.4
						C135.8,379.4,136.3,379,136,378.2z M116.2,388.7C117.8,385,120.8,389.1,116.2,388.7L116.2,388.7z M145,375.1
						c1.9,2-2.1,1.6-0.2,3.6C143.2,379.1,143.2,375.3,145,375.1z M107.7,395.1c1,0.5,2.8-1,3.1,1.2c-1.5,0.3-4,2.9-4.3,0.2
						C107.8,396.9,108.4,396.4,107.7,395.1z M117.6,395.9c1.1,1.2,4.1-2.4,4.6,0.6c0.7-1.3,2.6-2.2,2.7-3.8c0.9,0.1,1.5,1.3,2.8,0.5
						C126,395.6,120.7,399.9,117.6,395.9z M153.1,385.5c-1.1,0.4-2.1,0.8-1.9,1.7c-1.4,0.5-0.6-3-0.9-4c1.8,0.1,3.7-1.7,5.7,1
						c-1-0.5-2.8,1-3.1-1.2C152,383.5,152.8,384.6,153.1,385.5z M118.2,399.1c1.1,1.4-0.9,1.7-0.5,2.8
						C115.8,402.5,116.4,399.2,118.2,399.1z M192,377c2.1-1.7,2.1,2,3.9,0.9C196.3,379.2,192.2,379.1,192,377z M190.8,378.4
						c1.7,1.9-3,4-5.9,4.3c1-1.5,3.9-3.9,5.5-3.3C191.1,379.3,191,378.8,190.8,378.4z M199.5,376.3c0.2,0.5,0.4,1,0.6,1.5
						C196.9,380.1,197.1,374.5,199.5,376.3z M144,404.3C140.8,403,148.3,400.7,144,404.3L144,404.3z M194.6,381.1
						c-0.8-1.2,3.5-3.1,3.2-0.6C197,380.2,195.9,380.4,194.6,381.1z M90,429.9c-0.8-1.2,3.5-3.1,3.2-0.6
						C92.3,429,91.2,429.2,90,429.9z M104.3,428.8c0.2-2.7,2,2.3-0.8,2.1c-0.5-1.3-1.6-1.1-2-2.6c1-0.1,1.9,0.3,2.4,1.5
						C104.6,429.7,104.5,429.2,104.3,428.8z M115.5,426.4c-3.6-0.6-5.9,3.3-9,1.4c1.7,0.4,4.1-2.7,6.9-2.2c-0.8-0.5-2,0-2.4-1.5
						c2.8-1.5,4.6,3.2,4.7-1.2C118.9,422.6,114,429.2,115.5,426.4z M96.1,435.9c-0.5-3.3,3.2-1.6,5.5-3.3c-0.5,1,1,2.8-1.2,3.1
						c0.5-1.2-0.5-2-0.3-0.7C98.2,433.8,98,434.3,96.1,435.9z M149.9,415.6c-1-1.4,0.4-1.8,1.5-2.4c-0.2,2.1,0.7,1.3,0.9,4
						c-1,0.2-1.4-1.1-0.6-1.5C151.3,415,150.5,415.5,149.9,415.6z M158.6,411.8c0.6-2.4,0.6,1.2,1,2.2c-0.5,0.2-1,0.4-1.5,0.6
						c-0.6-0.4-1.3-0.8-1.7-1.9C157.2,413,158.9,413,158.6,411.8z M145.5,417.6c2.3-0.2,0.8,3.5-0.8,2.1
						C144.5,418.8,145.9,418.5,145.5,417.6z M164.7,409.9c0.2,0.5,0.4,1,0.6,1.5C162.2,413.7,162.3,408.1,164.7,409.9z M143.7,425.3
						c-0.2-0.5-0.4-1-0.6-1.5c1.8-1.1,1.8,2.6,3.9,0.9C147.5,426.6,144.2,425.9,143.7,425.3z M159.1,416.8c1.3-0.7,1.9,0.2,3.2-0.6
						C163.1,417.4,158.8,419.3,159.1,416.8z M175.9,421.5c-0.3,2.2-1.3,1.9-3.3,2.3C172.1,421.3,174.1,422,175.9,421.5z M165.7,426
						c1-1.3,3.4,1.1,2.9-1.3c2.6,0.1-0.1,3.1-1.9,3.5C166.4,427.5,166.1,426.7,165.7,426z M177.9,425.9c-0.1-0.7-0.6-0.6-1-0.4
						c0.1-0.8,0.2-1.5-0.2-2.5C177.2,425.4,180.2,423.4,177.9,425.9z M92,462c1.2-0.1,2.3,0.3,3.6,0.2C95.9,464.2,92.1,464.2,92,462
						z M130,451.4c-0.2,4.2-2.9,0.5-2.7,3.8c-3.9-0.4-6.4,1.5-9.5,4.2c-0.2-0.9,1.2-1.1,0.8-2.1c-1.6-0.8-1.9,4.1-5.9,4.4
						c-0.3-1.7-1.7-0.9-2.8-0.5c3-4.4,12.3-8.4,22.7-11.7c-0.4,1.3,0,1.8,1.4,1.1C133.5,451.3,130.4,453.5,130,451.4z M101.6,463.9
						c-0.3-2.4,2.5-0.6,3.6-1.6c0.3,1.5-2.6,1.8-0.9,3.9C102.5,467.6,103.3,462.5,101.6,463.9z M108.9,474.6
						C105.2,478.9,100.7,477.1,108.9,474.6L108.9,474.6z M109,478.9c-1.9-1.4,0.8-3,3.3-2.3C113.2,479.1,108.3,476,109,478.9z
						 M161.9,460.8c0,1.2-1,2-2.3,2.7C158,461.6,160.7,461.5,161.9,460.8z M197.6,452.8c-0.1-0.7-0.6-0.6-1-0.4
						c0.3-2.2,1.3-1.9,3.3-2.3c1.2,1.9-2.4,1.9-1.9,3.5C197,453.8,197.2,453,197.6,452.8z M208.9,447c-4,3.7-7.6,6.5-3.2,0.6
						C206.6,447.8,207.7,447.6,208.9,447z"/>
					<path fill-rule="evenodd" clip-rule="evenodd" fill="#8F7256" d="M93.2,407.6c0.4,3.7-2.9,2.4-4.9,4.8
						c-0.3-2.2-2.1-0.8-2.7-2.3c0.6,2.8-3.8,3.7-4.2,6.2c-2.5-1.9-5.1-2.8-8.2,1c-1.7-2.5,2.6-2.6,2.4-4.5c4.2,1.6,9.1-1.5,10.9-4.8
						C88.2,412.4,90.4,406,93.2,407.6z"/>
					<path fill-rule="evenodd" clip-rule="evenodd" fill="#8F7256" d="M164.9,362.9c1.2-0.8,4.5,0.4,4.4-1.9c1.4,0.1,2.4,1.1,3.1,3
						c-0.7,0.1-1-0.4-1.8-0.1c-0.7,0.3-0.2,1.1-0.1,1.8c-1,0.3-2.7-2.4-1.5,0.6c-1.4-0.1-2.1-1.9-3.1-3c-2.2,0.4,2,3.2-0.2,3.6
						c-0.5,0.2-1,0.4-1.5,0.6C163.3,365.5,165.7,364.8,164.9,362.9z"/>
					<path fill-rule="evenodd" clip-rule="evenodd" fill="#8F7256" d="M178.9,359.3c0.2,1.7-3.2,2-2.7,3.8c-0.8,0.8-1.1-4.3-2.1-0.8
						C171.6,360.7,176.7,360.2,178.9,359.3z"/>
					<path fill-rule="evenodd" clip-rule="evenodd" fill="#8F7256" d="M137.1,384.7c-0.1-2.2,0.8,4.7,4.6,0.6c0.4,0.6,0,0.8-0.4,1
						c0.2,0.5,0.4,1,0.6,1.5c-2.6-1-2.9,1.9-5.8,2.6c-0.4-1-0.9-1.9-1.3-2.9c2.8-1.4,0.3,1.2,2.4,1.5
						C139.4,388.4,134.9,385.3,137.1,384.7z"/>
					<path fill-rule="evenodd" clip-rule="evenodd" fill="#8F7256" d="M110.3,400.9c-0.4-0.6,0-0.8,0.4-1c0.5-0.2,1-0.4,1.5-0.6
						c-0.7,2.4-0.5,5.4-3.8,5.2C107.9,403.1,113.4,401.2,110.3,400.9z"/>
					<path fill-rule="evenodd" clip-rule="evenodd" fill="#8F7256" d="M184.6,470.8c-0.6,0.1-1.4,0.6-1.8-0.1
						c0.8-0.7,1.1-1.6,0.5-2.8c-2,1.5-3,0.4-4.7,1.2c0.1,3.4,3.3-1.1,3.9,0.9c0,1,0,2-0.5,2.8c-1.1-3-1-1.5-2.8-0.5
						c-0.5-1.1-4.7-2.6-5,0.5c0.8,2.4,1.3-2.8,2.5-0.2c-0.4,1.5-2.3,2.3-2.7,3.8c0.9,2.8,2.7,1.6,5.5,4.5c-1.9-0.8-2.6,1-1.2,3.1
						c4.9-1.6,6.6-3.1,10.1-2.7c-2.3-4.5,4.3-1.9,3.8-5.2c0.3,0.7,0.6,1.5,1,2.2c2.5-0.6,3.6-1.8,3.7-3.4c0.5,1.3,1.4,1.6,2.4,1.5
						c1.1-1.8-1.7-1.4-0.2-2.5c4.3,2.8,11.2-3.5,14.5-4.7c1.2,1.7,4.5,0.2,8.2-1c-1.5-5.9-4.5-1.8-1.8-6.1c-1.6,0.9-2.8,1-3.6-0.2
						c1-0.2,4.4-2.1,1.9-1.7c-3.7,0.9-6.8-1.9-6.2-4.2c1.1,3,4.1,0.9,5.2,3.8c1.4-1.7,4.3,0.1,3.6-1.6c-2,0.7,0.2-5,1.2-3.1
						c0.6,1.5-1.6,1.8-0.2,3.6c1.2-0.6,2.3-0.8,3.2-0.6c-2.7-1.3-0.5-4.7,0.9-3.9c0.4,0.7-2.5,2.9,0.2,2.5c-1.1-2.6,3.1,0.5,1.9-1.7
						c-3.2-0.2,0-2.7,0.2-3.6c-2.6-0.9-3.1,2.5-5,0.5c1.9,3.4-5.5-0.2-5.1,2.3c0.9-0.2,1.5,0.3,2.1,0.8c-3-0.9-1.7,2.9-1.9,3.5
						c-1.8-0.8-0.4-2.8-3.1-3c0.1,0.6-0.2,1.1-1.1,1.4c-0.3-0.7-0.6-1.5-1-2.2c1.3-1,5.3-0.5,2.9-1.3c-6.2-0.4-7.6,5.6-10,7
						c-0.4-1,1-1.2,0.8-2.1c-1.3,0.6-1.8,0.1-1.4-1.1c-1.4,1.7-4.3-0.1-3.6,1.6c1.3,0.3,3-0.5,3.9,0.9c-3.4,1.2-8.1,2.3-7.7,4.3
						c-2.1,1.4-2.8-1.1-4.6-0.6c0.7,2.9-2.3,0.7-3,3.1c-0.3-0.9,0.6-2.2-1-2.2c0.6,1.4-3.9,0.2-0.8,2.1c-2.7,0.2-1.3,1.9-2.3,2.7
						c-1.2-1.9-0.9-6.5-2.3-3.3C186,466.2,184.2,470.4,184.6,470.8z M200.5,467.2c-0.8,0.6-0.1,1.8,0.6,1.5
						c-0.1,2.6-3.3,0.4-3.5-1.9c5.2-1,2.8-1.8,4.5-3.7c2,2,0.6,3.9,3.1,3c-0.1,0.8-0.2,1.5,0.2,2.5c-0.8-0.2-1.7-0.3-1.5,0.6
						C203.1,468.5,202.7,467.5,200.5,467.2z M211.6,458.9c-0.5,2.8-2.1,5.2-4.6,7.3c-0.6-0.5-1.2-1-2.1-0.8c-0.9-2,2.8,0.9,0.8-2.1
						C210,462.3,209.5,461.5,211.6,458.9z M184.2,471.8c0.9-0.2,1.1,1.2,2.1,0.8c-0.4,2-2,0.3-3.3,2.3
						C180.2,475,185.8,473.3,184.2,471.8z M189.3,469.6c0.9-0.2,0.7,0.6,0.3,0.7c0.6,1,2.3-0.7,2.8,0.5c2-0.1-2.6,1-4,2.7
						C186.7,471.4,190.4,471.4,189.3,469.6z M180.1,476.2c0.7-0.1,0.6-0.6,0.4-1c3.7,0.4-1.9,2-1.2,3.1c-1.4,0.5-1.6-2.2-3.1-1.2
						c0-1.5,1.3-0.7,2.2-1c0.4-0.6,0.8-1.3,1.9-1.7C180.3,475.1,179.8,475.5,180.1,476.2z M203.5,472c1.8-1.5,2.3,0.2,4-0.9
						C208.1,472.3,203.3,474.7,203.5,472z"/>
					<path fill-rule="evenodd" clip-rule="evenodd" fill="#8F7256" d="M216.5,452.3c0.4-1.2,2-1.5,4.4-1.9
						C220.1,451.8,218.5,452.3,216.5,452.3z"/>
					<path fill-rule="evenodd" clip-rule="evenodd" fill="#8F7256" d="M236.7,446.9c-0.4,0.9-1.3,1.5-2.6,2c3.2-0.2,4,2.8,2.3,5.1
						c-0.7,2.5-1.1-2.5,0.5-2.8c-0.4-0.5-1.1-0.4-1.4-1.1c-2.8,0.1,0.5,2.6-2.3,2.7c-0.3-1.4-1.2-1.1-2.1-0.8
						c1.5-1.6,2.6-3.4,3.8-5.2c2.8,0.1,5.4,0.5,8.6-0.3c0.2,1-1.1,1.4-1.5,0.6c-1,0.8,0.4,2.6-2.3,2.7c0.1-2.6,0.2-1.1-1.8-0.1
						C238.6,447.8,237.6,448.9,236.7,446.9z"/>
					<path fill-rule="evenodd" clip-rule="evenodd" fill="#8F7256" d="M168.1,480.7c-0.2-0.9,1.2-1.1,0.8-2.1
						c2.9,1.9,0.4-0.7,3.6-1.6c0.6,1.1,0.9,2.9,2,2.6C174.2,481.4,170.1,479.7,168.1,480.7z"/>
					<path fill-rule="evenodd" clip-rule="evenodd" fill="#8F7256" d="M134.2,496.5c0.7-0.3,1,0.6,1.4,1.1c1.7-1.7,6.5-4.8,11.1-8.4
						c0.8,1.9-2.8,2.1-0.6,4.6c1.7-2,0.8-4.9,5.3-5.8c1.3,4.7,6.4,1.8,11.6,2.7c-0.7-2.2,0.6-1.1,4-2.7c-0.6,2,0.5,0.9,1.3,2.9
						c-2.2,0.9-6.9,6.1-9.1,3.1c-2,1.4,1.4,1.2,1.3,2.9c-0.9-0.4-2.2,0.4-2.8-0.5c0.7,3.7-5.1,2.2-4.1,4.4c-1-1-2.7-0.2-3.9-0.9
						c-1.1,2.3-8.1,4.3-11.4,7.6c-0.2-0.9,1.2-1.1,0.8-2.1c-1-2.1-3.1,4.7-4,0.9c-0.4,4.5-12.1,4.5-11,6.6c-2.1,0.7-2.9-2-4.5-2.4
						c2.1-2.4,2.6-4.8,7.4-5c-1.1-1.3-2.6-1.7-3.8-2.7c-1.3,0.4-1.3,2.1-2.2,1c-0.7,0.5,0.1,1.7-0.8,2.1c-0.8,2-0.6-4.7,3.1-4.8
						c1.2,2.2,3.2,2.1,4.8,3.1c0.8-1.1,0-2.8-0.2-4.3c1.9-1.8,2.3,0.4,3.6,0.2C130.3,497.1,132.2,499.4,134.2,496.5z"/>
					<path fill-rule="evenodd" clip-rule="evenodd" fill="#8F7256" d="M118.5,504.3c1.9-2.9-4,6.8-0.5,2.8c0.6,1.3-3.4,3-5.8,2.6
						C113.4,507.5,116.6,506.2,118.5,504.3z"/>
					<path fill-rule="evenodd" clip-rule="evenodd" fill="#8F7256" d="M207.1,478.3c-3.1,4-5.9,2.8-10.5,3.8
						c-0.4,1.5,0.4,3.4-0.6,4.6c-2.5-0.8-5.7,0.6-7.2,1.4c0.9-0.2,1.5,0.3,2.1,0.8c-2.5,0.5-2.3,1.9-4,2.7c0.9-2.4-0.2-2.2-0.2-4.3
						c-4.5,3.9-12.3,6-16,7.1c0.4,3,3.1,0.3,4.2,1.6c-1.3,0.8,0.9,1-0.1,1.8c-4.8,0.6-17.3,4.7-19.7,10.5c3.3-1.8,6.3-2.8,8.7-2.1
						c0.1-1.7-3.3-1.5-1.3-2.9c2.8-0.5,5.2,0.2,7.8,0c-0.3-0.9-0.5-1.8,0.8-2.1c-1.3,3.3,3,0.1,5-0.5c-0.9-3.7-2.2,1.6-2.8-0.5
						c0.8-2.8,4.4-1.1,5.5-3.3c-0.9,3.6,1.6,1.7,1.9,4.4c-0.5-2.3,1.6,0.6,2.5-0.2c-0.2-0.5-0.4-1-0.6-1.5c0.4-0.2,0.8-0.5,0.4-1.1
						c-1.3,0.7-2,0-2.4-1.5c1.1-0.2,1.8,0.4,3.2-0.6c0.6,2.7,2.6,1.7,3.8,2.7c-2.1-5,6.1-0.3,3.1-4.8c2.7,1.9,2.9,0.6,5.4-1.5
						c1,1.6-1.7,1.7-1.2,3.1c2.9-0.9,1.2-3.6,5.2-4c-1.3,2.5,6,1.3,6.1-0.1c-0.8,0.1-1.5-1.7-1-2.2c1.4-0.3,4,4,4.6,0.6
						c-2,1.3-2-1.5-1.7-1.9c1.4,1,5.2,2.1,3.6-1.6c-0.9,0.3-2,1-2.5,0.2c1.9-1.1,0.5-3.4,1.3-4.9c2.3-0.8,2.8,3.1,5.7,1
						c-0.4-1.5-1.6-1-2.4-1.5c1-0.4,1.4-1,1.9-1.7c0.5,1.3,1.2,2.2,2,2.6c1.9-1.8,2-0.6,3.3-2.3c-2.4-1.9,0-3-0.8-5.7
						c-4,1.2-2.6,4.5-5.4,1.5c1.3,2.1-0.9,2.9-1.6,4.2c-0.4-0.9,0.5-1.4-0.2-2.5c-2.1,1.6-3.1,2.6-1.8-0.1c-3.1,0.1-3.3,4.3-4.8,3
						C207,479.8,207,479,207.1,478.3z M197.2,483.5c2.5-0.5,1.6-0.1,3.6-1.6C201.4,483.9,198.5,487,197.2,483.5z M176,494.6
						c2.1-1.6,5.9-1.6,1.8,0.1c-0.7,0.3-0.2,1.1-0.1,1.8C176.8,496.7,176.5,495.4,176,494.6z M201.6,487.6c0.1-1,1.3,1.8,3.6,0.2
						c0.1,2.6-3.2,0.2-3.3,2.3c-1.3,0.1-0.4-0.7,0.4-1C201.5,488.6,200.8,488.2,201.6,487.6z"/>
					<path fill-rule="evenodd" clip-rule="evenodd" fill="#8F7256" d="M149.6,509.7c-1.1,1.6-3,4.1-4.7,1.2c4.2-3.1,5-0.3,8.7-3.9
						c0.4,1,0.9,1.9,1.3,2.9c-3.4-1.5-5,4.7-6.1,1.8C150.2,511.5,149.9,510.6,149.6,509.7z"/>
					<path fill-rule="evenodd" clip-rule="evenodd" fill="#8F7256" d="M143.1,475.2c4,1.5,4.8-2.5,10.6-5.5
						c2.1,4.6-1.2,10.4-4.6,13.3c-1.6,1.4-5.2-0.9-4.4,1.9c0.5,1.7-12.7,3.7-17.2,8.4c-0.7-3.1-1.7-4.8-1-8.2c4.8,0,7.6-4,11.6-3.4
						C138.8,479.2,143.6,478.2,143.1,475.2z"/>
				</g>
			</g>
		</g>
		<g>
			<g>
				<g>
					
						<rect x="817.1" y="391.3" transform="matrix(-0.9995 -3.282712e-002 3.282711e-002 -0.9995 1788.7195 968.1869)" fill="none" width="170.4" height="156.1"/>
					<path fill-rule="evenodd" clip-rule="evenodd" fill="#8F7256" d="M861.5,402.7c-1.5,1.1-2.4,0.1-5.6,0.6
						C857,402.1,860.1,401.2,861.5,402.7z"/>
					<path fill-rule="evenodd" clip-rule="evenodd" fill="#8F7256" d="M962.2,415.6c1.8-0.4,1.1,1.6,2.3,1.7
						C964.1,419.2,961.4,417.2,962.2,415.6z"/>
					<path fill-rule="evenodd" clip-rule="evenodd" fill="#8F7256" d="M928.5,422.4c-1.5,5.9-3-0.1-3.3,3.9c-0.9-1.2-2.2-2-2.3-4.1
						C925.5,421.2,925.6,422.2,928.5,422.4z"/>
					<path fill-rule="evenodd" clip-rule="evenodd" fill="#8F7256" d="M831.7,436.8c-2.6,0.7-5,0.2-5.5-1c-0.8,2.4-5,1.2-8,1.3
						c0-2.7,4.1-1.1,4.1-3.8c5.2,0.6,6.8,2.5,9.5,0.3C835.9,434.6,829.7,436.2,831.7,436.8z"/>
					<path fill-rule="evenodd" clip-rule="evenodd" fill="#8F7256" d="M985.1,445C981.4,445.6,983.8,441.2,985.1,445L985.1,445z"/>
					<path fill-rule="evenodd" clip-rule="evenodd" fill="#8F7256" d="M986.7,444.2c0.5,0,1.1,0,1.6,0.1c0.3,1.7-1.2,1.5-2.4,1.5
						C986.1,445.2,986.7,445,986.7,444.2z"/>
					<path fill-rule="evenodd" clip-rule="evenodd" fill="#8F7256" d="M936.3,452.2c3.1,0.4-0.7,2.4,1.5,3.2
						C935.6,457.3,935.5,454.5,936.3,452.2z"/>
					<path fill-rule="evenodd" clip-rule="evenodd" fill="#8F7256" d="M941.8,453.1c-0.3,1.8-2.2,1.8-3.2,0.7
						C938.9,452,940.8,452.1,941.8,453.1z"/>
					<path fill-rule="evenodd" clip-rule="evenodd" fill="#8F7256" d="M937.6,460.2c-0.9-0.2-0.6-1.5-0.7-2.4c0.8,0,1.6,0.1,2.4,0.1
						C939.7,459.6,937.7,458.9,937.6,460.2z"/>
					<path fill-rule="evenodd" clip-rule="evenodd" fill="#8F7256" d="M946.5,458.1c-0.2,0.9,0.1,1.4,0.7,1.6
						c-1.3,1.2-2.5,0.2-4-0.1C943.5,458.2,944.7,457.8,946.5,458.1z"/>
					<path fill-rule="evenodd" clip-rule="evenodd" fill="#8F7256" d="M924.5,497.2c-0.3-1.6,3.7-1,2.4,0.9c-0.5,0-1.1,0-1.6-0.1
						C925.4,497.3,924.9,497.2,924.5,497.2z"/>
					<path fill-rule="evenodd" clip-rule="evenodd" fill="#8F7256" d="M881.4,498.9c0.8,0,1.6,0.1,2.4,0.1c-0.3,1-1.4,1.2-1.7,2.3
						C881.2,501.2,881.5,499.9,881.4,498.9z"/>
					<path fill-rule="evenodd" clip-rule="evenodd" fill="#8F7256" d="M953.8,502.1c0.3-1.1,2-0.6,3.2-0.7c-0.1,2.2,1.3,1.6-0.1,3.2
						C954.3,505.2,955.9,501.9,953.8,502.1z"/>
					<path fill-rule="evenodd" clip-rule="evenodd" fill="#8F7256" d="M958.6,501.5c1.6-0.2,2.5,0.2,2.3,1.7c-0.8,0-1.6-0.1-2.4-0.1
						C958.5,502.5,958.6,502,958.6,501.5z"/>
					<path fill-rule="evenodd" clip-rule="evenodd" fill="#8F7256" d="M876.6,499.6c1.9-0.3,1.7,1.5,4,0.9
						C879.3,501.7,876.1,502.9,876.6,499.6z"/>
					<path fill-rule="evenodd" clip-rule="evenodd" fill="#8F7256" d="M882.8,504.6c0.7,0.5,1.4,1,1.6,0.1c3.2,2.2-2.4,1.7-1.7,3.9
						C880.4,507.8,883.2,506,882.8,504.6z"/>
					<path fill-rule="evenodd" clip-rule="evenodd" fill="#8F7256" d="M887.5,507.1c0.7,0.6,1.8,0.9,3.2,0.9
						C890.9,509.4,886.2,509.3,887.5,507.1z"/>
					<path fill-rule="evenodd" clip-rule="evenodd" fill="#8F7256" d="M959.5,523c-0.4,2-3.1-0.1-2.3-1.7
						C958.2,521.6,958.3,522.8,959.5,523z"/>
					<path fill-rule="evenodd" clip-rule="evenodd" fill="#8F7256" d="M957.1,522.9c0.2,1.3-0.8,1.3-0.9,2.4
						C954.6,525.6,955.2,521.6,957.1,522.9z"/>
					<path fill-rule="evenodd" clip-rule="evenodd" fill="#8F7256" d="M840.9,519.9c0.7,0.9,2.9,0.3,2.3,2.5
						C841.5,522.5,840.7,521.6,840.9,519.9z"/>
					<path fill-rule="evenodd" clip-rule="evenodd" fill="#8F7256" d="M928,534.7c0.4-1.8,3.9-0.2,5.6-0.6
						C933.2,535.9,929.7,534.3,928,534.7z"/>
					<path fill-rule="evenodd" clip-rule="evenodd" fill="#8F7256" d="M846.4,399c1.2,0.2,0.7,1.9,0.7,3.2c2.5-0.5,2.3,1.5,4.7,1
						c-0.1-2.5,4.6,0.1,5.7-3c4.7,2.5,12,3.7,11.7,6.8c3.9-5.2,7,1.8,11.2-2c0.8,4.6-7.1,0.9-7.2,2.2c1,0.4,1.6,1.1,1.5,2.4
						c-1.7-1.2-5.8,0.6-2.3-2.5c-7.5,1.3-13.6-0.9-23.1,0c-6.7,0.6-17.6,0.3-16.2,8.2c7.8-1.8,9.5,2.3,14.4-2.7
						c-0.2,1.1-1.4,1.3-1.7,2.3c3.2,1.7,8.6,2.7,8.8,0.3c0.6,2.5,4.5,1.9,6.3,3.4c-4.4,0.2-4.5,0.1-7.2,1.4
						c-0.9-3.1-3.4-0.3-5.5-2.6c1.3,2.1-1,2.8,0.7,4c2.2-3.6,5.7,2.7,7.9,1.9c-0.1-1.6,3-3.8,4-1.5c-1.3,0-2.8-0.2-2.4,1.5
						c2-1,3.8,1.9,4,0.1c-1,0-0.9-2.2,0.1-2.4c0.3,1.8,1.3,2.9,3.1,3.3c2-1-0.8-3,0.9-3.2c1,1.2,1.8,5.2,3.1,1.7
						c-0.6-0.2-1.6-0.1-1.6-0.8c3.2-1.9,2.3,0.3,3.1,1.7c1.6-5.1,4.8,1.1,8-2.1c-1.4,1.5,0,1-0.1,3.2c-2-2.5-2.8,3.1-4.8,0.6
						c-0.8,3.7,2.6-0.4,2.3,1.7c-2.4,0.7-3.4,1.6-3.3,3.1c-1.8-0.6-10.1-1.6-6.4,1.4c-2.4-0.1-7.8,1.3-6.3-1c-5.9,1.5-10.2-1.3-12,2
						c-1.8-0.3-4-0.9-2.3-2.5c-4.7-1.2-5.5,1.9-8.8,2.1c0.2,2.6,2.6,4.1-0.2,5.6c1.8-2.9-1.5-3-3-4.9c1.9,3.3-1.8,1.4-1.7,4.7
						c2,0.9,2.9-3.3,4-0.7c-0.5,0-1.1,0-1.6-0.1c-0.7,2.4,0.7,2.9,0.6,4.8c-1-0.1-1.1-1.1-2.4-0.9c-0.3,4.2,3.6,0.1,4.7,3.3
						c-0.4,1.5-2.3,1.4-1.7,3.9c3.8,1.2,3.7,2.4,7.1,1.8c-0.1,1.4,0.1,2.5,0.7,3.2c-1.8,0.5-2.5-2.3-2.4,0.7
						c0.5,1.6,3.7,0.6,3.9,2.5c-2.8,0.8-3.6,3.8-7.3,3.7c-0.2,1.5,0.8,1.8,0.7,3.2c-2.1-2.2-0.8,1.1-2.4,1.5
						c-2.9,0.2-3.9,1.1-6.4-0.2c-0.8,3.1-3.1,1.6-5.6,1.4c-1.2,3.9,4.7,1.3,5.5,3.4c-2.6-0.5-3.7,0.4-5.6,0.6
						c0.9-1.1,0.9-1.9-0.7-2.4c-0.4,1.5-3.1,0.5-2.5,3.1c2.2,1,4.1,1.1,6.4,0.2c1,1.1,0.9,3-0.1,4c3.5,0.2,5-0.8,6.4,0.2
						c-0.7,2.4-6.2,2.7-3.4,6.3c-3,0.4-6.4,0.3-7.3,2.9c7.4,2.3,7.6-1.5,13.5,2c-2,0.3-8.4,0.4-6.5,4.6c-2.4-0.1-4.8-0.2-4.9,2.2
						c3.5-0.1,6.2-0.8,8.8,0.3c-1.5,0.1-2.7,0.4-3.2,1.5c1.3,1.4,3.7-0.2,4.8-1.4c-0.4,3.4,11,2.8,12.7,0.4c0,0.8-0.1,1.6-0.1,2.4
						c4.1-2.5,4.9,1.8,5.6-2.2c12.4,3.3,28.9-0.1,39.7,4.5c-2.6,0.8-5.8,1.9-7.2-0.2c0,0.5,0,1.1-0.1,1.6c-0.5,0-0.9,0.1-0.8,0.8
						c1.5,0.2,2.6,0.6,3.1,1.7c-0.6,0.8-4.2,2.6-1.7,3.9c1.2-1.3,4.3,1.2,5.6-1.4c0.5,2.5,0.5,1.5-0.1,4c2.6,0.1,1.5-3.9,4.9-3
						c0.2,2.7,2.4,1.4-0.1,3.2c8,2.6,23.7-1.5,31.7,3.4c0.2-1.2-0.2-2.9,0.9-3.2c0.8,0,1.6,0.1,2.4,0.1c0.2,6.7,8.9-0.3,14.3,2.1
						c3.8-2.6,2.3-8,6.7-8.5c-0.6-0.2-0.9-0.7-0.7-1.6c-5,1.9-10.6-0.4-12.6-3.6c-0.2,1.2,0.2,2.9-0.9,3.2c-0.9-3.6-9.1,4.6-6.3-3.4
						c-0.3-0.9-3.8-1-1.6-0.1c0.5,0.1,0.9,0.1,0.8,0.8c-2.5,3.7-2.9-0.6-3.3,3.9c-1.2-0.6-1.1-2.6-3.1-2.5c-0.2,0.9,0.1,2.3-0.9,2.4
						c-0.6-0.2-1.6-0.1-1.6-0.8c1-1.1,4-2.1,0.9-3.2c-0.5,3.9-1.1-2.9-4.7-1c-0.7,2.2,1.1,2.1,0.7,4c-0.8,0-1,0.6-1.6,0.7
						c-0.8-3.1-6.2-0.2-7.9-1.9c-0.2,1.5-0.6,2.6-1.7,3.1c0.2-1.5-0.8-1.8-0.7-3.2c-2.3,0.5-8.3-0.2-6.4,2.2
						c-1.1-0.1-1.8,0.3-2.4,0.7c1.4-1.6-0.5-1.6,0.9-3.2c-2.5-1-2,1.2-3.2,1.5c-0.6-2.3,1.2-2,0.9-4c-8.1-2.4-17.8-2.2-25.4-4
						c17.1,0.6,34.8,0,52.5,0.9c4.7-3.2,10.6,0.2,15.1,0.5c0.7,0,8.4-3.5,7.9,1.1c2.5,0.8,1.2-2.6,3.3-2.3c1.5,3.4,5.7-0.6,7.9,1.9
						c-1,0.1-1.9,0.2-1.6,1.5c2.1-0.7,4.8,0,7.1,1c1.4-3.1-2-1.7-2.3-3.3c5.8-0.4,0.9,4.6,6.2,4.2c1.1-2.5-2.6-0.7-1.5-3.2
						c1.9,0.3,2.9,1.4,5.5,1c-0.2-1.9,0.2-3.1,0.9-4c-2.2-0.7-2.1,1.1-4,0.7c0-0.8-0.6-1-0.7-1.6c1.3,0.3,2.2-1,0.8-1.6
						c-1.2,2.9,0-2.3-1.5-1.6c0.3,1.3-4.4,1.2-4-0.1c1.9,1.3,2.4-2.6,0.9-2.4c0.3,1.3-3.1,2.6-3.2,0.7c1.8-0.6,3.1-0.1,4.9-2.2
						c-4.8,3.6-10.4-3.4-12,2c-3.1-5.8-19.2-2.8-21.2-8.7c-2.6,1.1-4.9-1.2-6.3-1c0-1.4,0.3-2.5,0.9-3.2c-1.4-1.5-2.5,1-3.1-1.7
						c3.5,0.7-0.6-1.6,1.6-1.5c2.5,3.2,7,0.4,8.6,3.5c-2.5-0.8-3,0.6-4,1.5c0.7-3-4.2-1.6-3.2,0.7c3.8,2.5,8.4-3,10.3,0.3
						c2.2-2-1.5-1.2-1.5-3.2c1.4,1.1,6.3,0.1,5.6-1.4c0,1.1,1.4,0.8,1.5,1.6c-0.8,0.8-2.9,0.2-2.5,2.3c0,3,3.1,0.2,3.1,1.7
						c0,0.5,0.1,0.9,0.8,0.8c-1.5-3.3,0.1-5.4-2.2-7.2c3-0.6,8.8,1.4,8.8-0.5c5.1,2.7,12.9,2.8,19.8,3.8c0.2-5,6.2-3.8,7.4-7.7
						c-0.2,3.4,1.2,0,2.4,0.1c-0.5,2.1,0.2,2.9,2.3,2.5c-0.9-4.8-12.4-4.7-11.1-2c-3.1-2-3.8-0.5-6.2-4.2c-2.4-0.1-2.8,2-4.9,2.2
						c-0.7-1.5,2.5-2.6,0.1-3.2c-0.4,4.8-0.9-3.1-1.6-0.1c-0.8,1.5,2.3,2.7-0.1,3.2c-3.6-0.4-0.4-2.4-2.3-4.1
						c-1.4,0.4-0.1,3.8-1.7,3.9c-0.4-3.3-4.6-3.7-1.6-0.8c-5.8-2.5-8.5,0.7-14.3,0.3c0.7-3.5-1.6,0.6-1.5-1.6c0-0.5,0-1.1,0.1-1.6
						c1.1,1.3,3.2,0.7,4-0.7c-1.1,0-0.7-1.4-1.5-1.6c0.6,4.8-3.9-0.5-4.9,3c1,0.1,1.9,0.3,1.5,1.6c-2,0.2-4.8-0.5-6.3-1
						c2.2-1.5,3.1-0.7,4.8-1.4c-0.2-4-2.8-1.8-3.8-4.1c-4.1,4.7-5.8-0.4-10.4,1.3c0.1-1,1.1-1.1,0.9-2.4c-2.5-1.1-0.7,2.6-3.2,1.5
						c0.8-2.5-0.6-3-1.5-4c4.3,1.9,6.8-2.6,8.7,1.9c-0.6-1.7,2.2-3.5,2.4-1.5c-0.3,0.9-4.3,1.9-1.7,3.1c3.1-0.5,7.8-2.7,8.2-6.9
						c3.2,2.6,5.4,1.5,8.6,4.3c-1-2-1.8-3.3,0.2-5.6c0.1,2.8,3.6-1.3,3.2,0.9c-1.1,0.2-1.6,1.1-3.2,0.7c0.1,1.5,1.9,5.3,3.1,3.3
						c-2.5-2.2,2.3-2.8,3.2-0.7c-0.3,0.4-3.9,1.1-1.6,1.5c1.3-2.7,5.3-0.1,6.4-1.4c-0.6-0.2-0.9-0.7-0.7-1.6
						c-5.5,2.8-9.5-8.6-2.2-4.9c-1,0.1-1.9,0.2-1.6,1.5c2.4-0.6,2.5-0.6,4.8,0.2c0.4-4.2,8.9,0.6,4.9-3c2.5-0.7,3,4.3,4.7,1.7
						c-1.8-2.3,3.7,1.6,3.2-1.5c-0.8,0-2-0.4-0.8-0.8c2.3,0.8,0.9,1.2,0.7,3.2c3.3-0.6,2.7,0,6.4,0.2c1.1-2.5-2.6-0.7-1.5-3.2
						c1.7,1.4,6.3,0.6,7.2-1.4c-2.7-0.4-6.6-0.9-9.6,0.5c0.7,0.3,0.7,2.2-0.1,2.4c-1.1-4.4-5.5-1-7-5c2.2,0.7,2.1-1.1,4-0.7
						c0.8,0.8,0.2,2.9,2.3,2.5c0-3,2-2.3,4.8-1.4c3-3,1.9-5.6,2-11.1c-3,2-6.8,3.9-9.6,2.1c2.2-2.3,3.5-1.9,7.2-1.4
						c-3.8-4.4-8.7,2.5-9.5-2.7c-1.2,2.3,2,4.1-0.2,4.8c1.3-2.8-2.7-0.6-2.3-2.5c1,0,1.1-2.2,0.1-2.4c-0.2,1.8-2-1.1-4-0.1
						c-0.8,1.5,2.3,2.7-0.1,3.2c-0.6-0.6-0.9-5.2-2.3-2.5c0.7,0.5,2.4,3.8,0.7,4c0.4-1.9-1.4-1.8-0.7-4c-4,1.2-0.4-0.1-2.3-1.7
						c-1.1,1.7-4.8,1.2-1.7,3.1c-4.1-0.9-2.5-2.9-7.1-2.6c-0.2,0.9,0.1,2.3-0.9,2.4c-2.7-2.5-6.8,0.6-7.1-3.4
						c-0.8,0.8-1.6,1.6-2.5,2.3c0.3-1-2.2-2.8-2.4-0.9c1.4,3,4.6-0.6,5.5,2.6c-5.5,0.2-9-3.3-7.8-5c-2,2.2-5.2,3.1-6.4,1.4
						c-0.2,1.2,0.2,2.9-0.9,3.2c-2.8-1.5-4.2,2.5-4.8,0.6c1.1,0,0.8-1.4,1.6-1.5c0.8,0,1.6,0.1,2.4,0.1c-0.8-6.2-8.4-6.8-12.6-5.2
						c-0.2-0.6,0-1.6-0.7-1.6c-0.1,2.2,1.3,1.6-0.1,3.2c3.3-1.4,1.4,1.5,4.8,0.2c-1.5,1.6,0.5,3-0.9,4c-0.1-1-0.9-0.5-1.6-0.1
						c1.2-2.3,0.6-0.9-1.6-0.8c0.1-0.9,1.5-1.8,0.1-2.4c-0.4,1.8-4.2,0.5-4.8-0.2c-1.3,1.9-2.8,3.5-5.7,3.8c0-1.1,0.1-2.1,0.1-3.2
						c0.5,0.2,3,2.1,3.2,0.1c-0.5-1.6-4.4,0.1-4.7-1.7c0.2-1,0.9-0.5,1.6,0.1c-0.7-5.3-3.7,1.1-5.5-1.8c0.4-1.2,2.5-0.6,1.7-3.1
						c-2.5-0.8-3,0.6-4,1.5c-0.6-4.5,4.9-2.8,6.5-3c-0.1,1.3-2.1,0.6-1.7,2.3c5.3-6.6,15.7,1.5,24.8-3.2c-0.7-4-8.2-5.7-6.9-9
						c2.4,1,4.3,0.6,5.5,1.8c-1-0.3-2.8,2.2-0.9,2.4c2.8-2.5,2.5,4.3,4.6,4.9c-0.7,0.2-4.1,1.5-1.7,2.3c0.8-2.3,2.9-0.1,3.2-1.5
						c-0.7-0.2-2-3.6-0.7-3.2c3.2,1.6,10.9,1.6,12.9-3.6c-2.7,1.7-2.6,1.1-5.6-0.2c-0.1,1.1,0.3,1.8,0.7,2.4
						c-4.5,2.2-5.3-3.6-7.9-1.9c1.9,0.3-1,2.1-1.7,2.3c1.5-3.8,0.4-3.5-1.5-3.2c0.4-0.9,0.9-1.8,1.7-2.3c0.6,0.5,2.8-0.3,4-0.7
						c-1-0.1-1.9-0.3-1.5-1.6c0.8,0,1-0.6,1.6-0.7c0.4,1,0.8,1.8,1.5,2.4c2.4-1.3,3.1-2.9,0.1-4c5.3,0.7,10.3,5.9,14.3,1.3
						c-0.2,2,1.1,2.5,2.3,3.3c-0.2-3.3,3.7,0.5,4.7,1c1.2-2.3,6.9-2.9,7.2-1.4c3.7,0.1,3.8-3.6,5.8-5.4c0.5,3.7,4.1-1.8,8,0.3
						c0-2,0-3.8,1-4.7c-2.1,0.1-10.8-0.3-9.4-4.3c-1-0.1-1.9-0.3-1.5-1.6c-11.5-0.3-16.6,0.6-26.3-0.9c-1.1,0.5-0.2,3.1-1.7,3.1
						c-16.4-4.7-43.7-3.9-62.1-2c-1.1,2,3.1,2.6,0.7,3.2c-3.6-2.2-4.7,1.7-8,2.1c-0.7-1.5,2.5-2.6,0.1-3.2c-1.5,2.4-3.8,0.8-7.2,0.6
						c-1.1,2.7-5.1,3.8-8.1,2.9c1.6-0.4,3.5-1.6,0.9-2.4C850.1,399.6,846.2,397.1,846.4,399z M886.4,418.7c1.9-1.6,2.8,0.4,5.6-0.6
						C890.4,421,888.9,419.8,886.4,418.7z M919.6,499.4c0-0.5,0-1.1,0.1-1.6c0.6,0.4,1.3,0.9,2.4,0.9
						C921.5,500.3,920.7,500.3,919.6,499.4z M875.7,404.8c0.2-1.1,2.4-0.2,2.4-1.5C880.7,404.2,877.3,405.5,875.7,404.8z
						 M891.7,402.9c1.4,0.6,0.1,1.5-0.1,2.4c-0.6-0.4-1.3-0.9-2.4-0.9C889.5,403.3,891.7,404.2,891.7,402.9z M885.1,411.4
						c1.1-0.9,4.7,2.2,5.4,4.2c-1.8,0.1-3.4-3.9-4.7-1.7c-1.1-0.4,0.1-0.7,0.1-1.6C886,411.6,885.6,411.5,885.1,411.4z M897.7,414.2
						c1.4-0.2,1.3,4.5-0.9,3.2C896.8,416,897.8,415.8,897.7,414.2z M904.9,414.5c0.5,0,1.1,0,1.6,0.1c0.3,1.7-1.2,1.5-2.4,1.5
						C904.2,415.4,904.9,415.3,904.9,414.5z M882.5,415.3C885.6,412.7,886.5,417.6,882.5,415.3L882.5,415.3z M914.4,415.6
						c0.9,2.6-2.6,0.5-1.7,3.1C911,418.4,912.7,414.9,914.4,415.6z M872.1,417.4c0.7,0.9,2.9,0.3,2.3,2.5c-1.5-0.4-4.8,0.9-3.9-1.7
						C871.5,419.1,872.1,418.9,872.1,417.4z M880.7,422.4c0.5,1.6,4.8-0.3,3.9,2.5c1.2-0.9,3.3-0.9,4.1-2.3c0.8,0.5,0.8,1.9,2.3,1.7
						C888.3,425.8,881.8,427.4,880.7,422.4z M917.2,428.4c-1.1-0.1-2.2-0.2-2.4,0.7c-1.5-0.1,0.7-2.9,0.9-4c1.6,0.9,4,0.1,4.7,3.3
						c-0.7-0.9-2.9-0.3-2.3-2.5C917.1,426.2,917.3,427.5,917.2,428.4z M879.8,425.6c0.4,1.8-1.6,1.1-1.7,2.3
						C876.2,427.6,878.2,424.9,879.8,425.6z M955.9,437.7c2.6-0.6,1,2.7,3.1,2.5C958.8,441.5,955.2,439.7,955.9,437.7z M954.3,438.4
						c0.7,2.4-4.5,2.3-7.2,1.4c1.5-0.9,5.2-1.8,6.4-0.6C954.1,439.3,954.2,438.9,954.3,438.4z M963,440.3c0,0.5,0,1.1-0.1,1.6
						C959,442.5,961.6,437.6,963,440.3z M900.8,441.4C898.5,438.8,906.2,440.1,900.8,441.4L900.8,441.4z M956.5,442.5
						c-0.2-1.4,4.5-1.3,3.2,0.9C959,442.7,957.9,442.4,956.5,442.5z M841.1,441.1c-0.2-1.4,4.5-1.3,3.2,0.9
						C843.6,441.3,842.5,441,841.1,441.1z M854.5,446.3c1.3-2.3,0.8,2.9-1.6,1.5c0.1-1.4-0.9-1.7-0.7-3.2c1,0.4,1.6,1.1,1.5,2.4
						C854.3,447.2,854.4,446.8,854.5,446.3z M865.5,449c-3-2.1-6.8,0.4-8.7-2.7c1.4,1,4.8-0.6,7.1,1c-0.5-0.8-1.8-0.9-1.5-2.4
						c3.2-0.1,2.8,4.9,4.7,1C870.2,447.1,863,450.9,865.5,449z M844,449.1c1-3.2,3.5-0.1,6.4-0.6c-0.9,0.7-0.3,2.9-2.5,2.3
						c1-0.9,0.4-2,0-0.8C846.8,448.2,846.3,448.5,844,449.1z M901.2,454.2c-0.3-1.7,1.2-1.5,2.4-1.5c-1.1,1.8,0.1,1.5-0.9,4
						c-1-0.2-0.8-1.6,0.1-1.6C902.8,454.3,901.8,454.4,901.2,454.2z M910.7,454.5c1.6-2,0,1.3-0.1,2.4c-0.5,0-1.1,0-1.6-0.1
						c-0.4-0.7-0.8-1.3-0.7-2.4C909,455,910.5,455.7,910.7,454.5z M896.4,454c2.1,0.8-0.8,3.5-1.6,1.5
						C895,454.7,896.4,455.1,896.4,454z M917.1,455.5c0,0.5,0,1.1-0.1,1.6C913.1,457.8,915.7,452.8,917.1,455.5z M891.4,460.2
						c0-0.5,0-1.1,0.1-1.6c2.1-0.2,0.5,3.1,3.1,2.5C894.3,463,891.6,461,891.4,460.2z M909,459.2c1.4-0.1,1.6,1,3.2,0.9
						C912.3,461.5,907.6,461.4,909,459.2z M922.1,470.8c-1.3,1.8-2,1.1-4,0.7C918.8,469,920.3,470.5,922.1,470.8z M911,470.4
						c1.5-0.7,2.6,2.5,3.2,0.1c2.3,1.2-1.4,2.8-3.3,2.3C911,472,911,471.2,911,470.4z M922,475.6c0.2-0.7-0.3-0.8-0.8-0.8
						c0.4-0.6,0.9-1.3,0.9-2.4C921.6,474.9,925.1,474.3,922,475.6z M829,470.9c1.2,0.5,2,1.2,3.1,1.7
						C831.5,474.5,828,472.9,829,470.9z M867.8,477.8c-2,3.7-2.8-0.8-4.1,2.3c-3.4-2.1-6.4-1.5-10.3-0.3c0.2-0.9,1.6-0.5,1.6-1.5
						c-1.1-1.4-3.4,2.9-7.2,1.4c0.4-1.7-1.1-1.6-2.3-1.7c4.6-2.7,14.8-2.2,25.5-0.8c-0.9,1-0.7,1.6,0.7,1.6
						C871,479.2,867.2,479.8,867.8,477.8z M836.7,476.8c0.8-2.3,2.5,0.6,4,0.1c-0.4,1.5-3.1,0.5-2.5,3.1
						C836,480.5,838.9,476.3,836.7,476.8z M838.7,489.6C833.6,491.8,830.2,488.3,838.7,489.6L838.7,489.6z M837,493.5
						c-1.1-2.1,2-2.3,4-0.7C840.6,495.5,837.6,490.6,837,493.5z M892.5,500.1c-0.6,1.1-1.7,1.4-3.2,1.5
						C888.6,499.2,891.1,500.2,892.5,500.1z M928.1,508.4c0.2-0.7-0.3-0.8-0.8-0.8c1.3-1.8,2-1.1,4-0.7c0.3,2.2-3,0.6-3.3,2.3
						C927.2,509,927.6,508.4,928.1,508.4z M940.8,508.1c-5.2,1.6-9.7,2.6-3.2-0.9C938.4,507.8,939.4,508.1,940.8,508.1z"/>
					<path fill-rule="evenodd" clip-rule="evenodd" fill="#8F7256" d="M853.6,422.4c-1.3,3.5-3.6,0.9-6.4,2.2
						c0.7-2.2-1.5-1.7-1.5-3.2c-0.7,2.8-5.1,1.7-6.5,3.8c-1.4-2.8-3.4-4.8-7.9-2.6c-0.5-3,3.4-1.3,4.1-3.1c3,3.3,8.8,2.6,11.9,0.4
						C847,424.5,851.7,419.7,853.6,422.4z"/>
					<path fill-rule="evenodd" clip-rule="evenodd" fill="#8F7256" d="M937.6,413.2c1.4-0.2,3.9,2.4,4.8,0.2c1.2,0.7,1.6,2.1,1.5,4
						c-0.6-0.2-0.8-0.8-1.6-0.8c-0.8,0-0.6,1-0.8,1.6c-1.1-0.2-1.4-3.4-1.6-0.1c-1.2-0.7-1.1-2.6-1.5-4c-2.1-0.6,0.4,3.8-1.7,3.1
						c-0.5,0-1.1,0-1.6-0.1C935,414.8,937.5,415.3,937.6,413.2z"/>
					<path fill-rule="evenodd" clip-rule="evenodd" fill="#8F7256" d="M951.8,416c-0.6,1.6-3.7,0.4-4.1,2.3
						c-1.1,0.4,0.8-4.4-1.5-1.6C944.6,414.1,949.4,415.9,951.8,416z"/>
					<path fill-rule="evenodd" clip-rule="evenodd" fill="#8F7256" d="M903.1,420.8c0.9-2-1.4,4.6,3.9,2.5c0.1,0.7-0.3,0.7-0.8,0.8
						c0,0.5,0,1.1-0.1,1.6c-1.9-2-3.5,0.5-6.4-0.2c0-1.1,0.1-2.1,0.1-3.2c3.2,0-0.3,1.2,1.5,2.4
						C903.6,425.1,900.9,420.4,903.1,420.8z"/>
					<path fill-rule="evenodd" clip-rule="evenodd" fill="#8F7256" d="M871.9,423.8c-0.1-0.7,0.3-0.7,0.8-0.8c0.5,0,1.1,0,1.6,0.1
						c-1.7,1.8-2.8,4.7-5.7,3C868.8,424.8,874.6,425.4,871.9,423.8z"/>
					<path fill-rule="evenodd" clip-rule="evenodd" fill="#8F7256" d="M908.6,518.9c-0.6-0.2-1.6-0.1-1.6-0.8c1-0.3,1.7-1,1.7-2.3
						c-2.5,0.5-2.9-0.9-4.7-1c-1.4,3.1,3.4,0.4,3.1,2.5c-0.4,0.9-0.9,1.8-1.7,2.3c0.3-3.2-0.2-1.8-2.3-1.7c0-1.2-3.1-4.4-4.7-1.7
						c-0.3,2.5,2.4-1.9,2.4,0.9c-1,1.1-3,1.1-4.1,2.3c-0.4,2.9,1.7,2.6,3,6.5c-1.3-1.5-2.8-0.2-2.5,2.3c5.1,0.7,7.3,0.1,10.3,1.9
						c-0.2-5,4.7,0.1,5.7-3c0,0.8-0.1,1.6-0.1,2.4c2.6,0.5,4-0.1,4.8-1.4c-0.1,1.4,0.5,2.1,1.5,2.4c1.8-1.1-0.9-2,0.9-2.4
						c2.6,4.4,11.6,1.7,15.1,2.1c0.3,2,4,2.1,7.9,2.6c1.2-6-3.2-3.6,1-6.3c-1.8,0.2-3-0.3-3.1-1.7c1,0.3,4.9,0,2.4-0.7
						c-3.7-0.8-5.3-4.6-3.8-6.5c-0.3,3.1,3.3,2.5,3,5.7c2-1,3.8,1.9,4,0.1c-2.1-0.3,2.3-4.5,2.5-2.3c-0.1,1.6-2.2,0.9-1.7,3.1
						c1.4,0,2.5,0.3,3.2,0.9c-1.9-2.3,1.6-4.4,2.5-3.1c0.1,0.8-3.5,1.5-0.9,2.4c0.2-2.8,2.6,1.8,2.4-0.7c-2.8-1.5,1.2-2.5,1.7-3.1
						c-2-1.9-3.9,0.9-4.7-1.7c0.3,3.9-4.9-2.6-5.6-0.2c0.9,0.2,1.2,0.9,1.5,1.6c-2.3-2.1-2.8,1.9-3.3,2.3c-1.2-1.5,0.8-2.7-1.5-4
						c-0.2,0.6-0.7,0.9-1.6,0.7c0-0.8,0.1-1.6,0.1-2.4c1.6-0.3,5,1.9,3.2,0.1c-5.4-3.1-9.3,1.8-12,2c0-1.1,1.4-0.7,1.6-1.5
						c-1.5,0-1.7-0.7-0.7-1.6c-2,1-3.8-1.9-4-0.1c1,0.8,2.9,0.8,3.1,2.5c-3.6-0.4-8.3-1.5-8.8,0.5c-2.5,0.3-2-2.2-3.9-2.5
						c-0.7,2.9-2.4-0.4-4,1.5c0.1-0.9,1.5-1.8,0.1-2.4c-0.1,1.5-3.7-1.5-1.6,1.5c-2.5-1-2,1.2-3.2,1.5c-0.3-2.2,2-6.3-0.7-4
						C911.8,515.5,908.4,518.4,908.6,518.9z M924.4,522.6c-1,0.2-0.9,1.6-0.1,1.6c-1.2,2.3-3.2-1.1-2.3-3.3c5.1,1.3,3.2-0.4,5.6-1.4
						c0.9,2.6-1.1,3.8,1.5,4c-0.4,0.6-0.9,1.3-0.9,2.4c-0.7-0.5-1.4-1-1.6-0.1C926.2,525,926.4,523.8,924.4,522.6z M938.1,519.9
						c-1.7,2.3-4.1,3.8-7.3,4.5c-0.3-0.7-0.7-1.4-1.5-1.6c0.1-2.2,2.1,2,1.6-1.5C935.1,522.3,935.1,521.4,938.1,519.9z M907.8,519.7
						c0.9,0.2,0.5,1.6,1.5,1.6c-1.2,1.7-1.9-0.6-4,0.7C902.8,520.8,908.6,521.8,907.8,519.7z M913.4,519.9c0.9,0.2,0.4,0.8,0,0.8
						c0.1,1.2,2.4,0.4,2.3,1.7c1.9,0.8-2.8-0.2-4.8,0.6C910.3,520.4,913.5,522,913.4,519.9z M902.1,521.9c0.7,0.2,0.8-0.3,0.8-0.8
						c3.2,1.9-2.6,1-2.5,2.3c-1.5-0.1-0.5-2.6-2.3-2.5c0.6-1.4,1.5-0.1,2.4,0.1c0.7-0.4,1.3-0.8,2.4-0.7
						C902.8,521,902.2,521.1,902.1,521.9z M925,528.2c2.3-0.6,2,1.2,4,0.9C929.1,530.5,923.7,530.6,925,528.2z"/>
					<path fill-rule="evenodd" clip-rule="evenodd" fill="#8F7256" d="M945.3,516.2c0.9-0.9,2.4-0.5,4.8,0.2
						C948.8,517.3,947.1,516.9,945.3,516.2z"/>
					<path fill-rule="evenodd" clip-rule="evenodd" fill="#8F7256" d="M965.9,520c-0.7,0.6-1.8,0.8-3.2,0.7c2.9,1.2,2.4,4.2-0.2,5.6
						c-1.7,2,0.1-2.8,1.7-2.3c-0.1-0.6-0.8-0.8-0.7-1.6c-2.5-1.1-0.7,2.6-3.2,1.5c0.3-1.3-0.6-1.5-1.5-1.6c2.1-0.8,3.8-2,5.7-3
						c2.5,1.3,4.7,2.8,7.9,3.4c-0.2,1-1.6,0.7-1.6-0.1c-1.3,0.3-0.8,2.5-3.2,1.5c1.2-2.3,0.6-0.9-1.6-0.8
						C967.2,521.7,965.8,522.2,965.9,520z"/>
					<path fill-rule="evenodd" clip-rule="evenodd" fill="#8F7256" d="M889.4,520.7c0.2-0.9,1.6-0.5,1.6-1.5c1.8,2.9,0.6-0.5,4,0.1
						c0,1.3-0.5,3,0.7,3.2C894.6,524,891.7,520.7,889.4,520.7z"/>
					<path fill-rule="evenodd" clip-rule="evenodd" fill="#8F7256" d="M852,520.3c0.8,0,0.6,1,0.7,1.6c2.3-0.8,7.9-1.5,13.6-2.7
						c-0.1,2.1-3.4,0.7-2.5,3.9c2.4-1,2.9-4.1,7.3-2.9c-0.9,4.8,5,4.3,9.3,7.5c0.3-2.2,1.1-0.8,4.8-0.6c-1.4,1.5,0,1-0.1,3.2
						c-2.3-0.2-8.9,2.5-9.5-1.1c-2.4,0.4,0.7,1.7-0.1,3.2c-0.6-0.7-2.2-0.5-2.3-1.7c-0.9,3.6-5.6-0.3-5.6,2.2
						c-0.5-1.4-2.4-1.4-3.1-2.5c-1.9,1.6-9.2,0.4-13.6,1.9c0.2-0.9,1.6-0.5,1.6-1.5c0-2.3-4.8,2.9-4-0.9c-2.3,3.8-12.8-1.1-12.8,1.2
						c-2.2-0.3-1.7-3-3.1-4.1c2.9-1.3,4.4-3.2,8.8-1.3c-0.4-1.7-1.6-2.6-2.3-4.1c-1.4-0.2-2.1,1.3-2.4-0.1c-0.9,0.2-0.6,1.6-1.6,1.5
						c-1.6,1.5,1.5-4.5,4.9-3c0.1,2.5,1.9,3.3,3,4.9c1.2-0.6,1.2-2.5,1.7-3.9c2.5-0.8,1.9,1.3,3.1,1.7
						C848.3,519.1,849,522,852,520.3z"/>
					<path fill-rule="evenodd" clip-rule="evenodd" fill="#8F7256" d="M834.5,520.5c2.9-1.8-6.5,4.4-1.7,2.3c0,1.4-4.4,1.2-6.4-0.2
						C828.5,521.2,832,521.4,834.5,520.5z"/>
					<path fill-rule="evenodd" clip-rule="evenodd" fill="#8F7256" d="M925.6,535.4c-4.5,2.3-6.5,0-11.1-1.2c-1,1.2-1.1,3.2-2.5,3.9
						c-1.9-1.8-5.4-1.9-7.1-1.8c0.9,0.2,1.2,0.9,1.5,1.6c-2.4-0.7-2.9,0.7-4.8,0.6c1.8-1.8,0.8-2.1,1.7-3.9
						c-5.7,1.6-13.7,0-17.5-0.6c-0.9,2.9,2.6,1.6,3.1,3.3c-1.5,0.1,0.4,1.3-0.8,1.6c-4.6-1.5-17.6-3.2-22.3,0.9
						c3.8-0.2,6.9,0.2,8.7,1.9c0.8-1.5-2.3-2.7,0.1-3.2c2.8,0.7,4.6,2.4,7.1,3.4c0.1-1,0.3-1.9,1.6-1.5c-2.6,2.4,2.6,1.4,4.7,1.7
						c0.8-3.7-2.6,0.5-2.3-1.7c2-2.2,4.5,0.9,6.4-0.6c-2.4,2.9,0.7,2.2-0.2,4.8c0.5-2.3,1.2,1.3,2.4,0.9c0-0.5,0-1.1,0.1-1.6
						c0.5,0,0.9-0.1,0.8-0.8c-1.4,0.1-1.8-0.9-1.5-2.4c1.1,0.3,1.5,1.2,3.2,0.9c-0.6,2.7,1.5,2.7,2.3,4.1c0.3-5.4,5.6,2.4,4.9-3
						c1.7,2.9,2.4,1.9,5.5,1c0.2,1.8-2.3,0.8-2.5,2.3c3,0.5,2.6-2.7,6.4-1.4c-2.3,1.7,4.8,3.8,5.5,2.6c-0.7-0.3-0.7-2.2,0.1-2.4
						c1.4,0.3,1.9,5.4,3.9,2.5c-2.3,0.3-1.1-2.2-0.7-2.4c0.8,1.6,3.8,4.2,4,0.1c-0.9-0.2-2.3,0.1-2.4-0.9c2.2-0.1,1.9-2.9,3.3-3.9
						c2.5,0.3,1.2,4,4.7,3.3c0.3-1.6-1-1.6-1.5-2.4c1.1,0.1,1.8-0.3,2.4-0.7c-0.1,1.4,0.1,2.5,0.7,3.2c2.5-0.8,2.1,0.3,4-0.7
						c-1.3-2.7,1.3-2.7,1.8-5.5c-4.1-0.6-4.3,2.9-5.5-1c0.3,2.5-2.1,2.2-3.3,3.1c0.1-1,1.1-1.1,0.9-2.4c-2.6,0.5-3.9,1-1.6-0.8
						c-2.8-1.3-4.9,2.4-5.6,0.6C924.9,536.8,925.2,536.1,925.6,535.4z M914.4,535.9c2.4,0.6,1.5,0.6,4,0.1
						C918,538.1,914.1,539.6,914.4,535.9z M890.5,536.7c2.6-0.5,6,1.2,1.6,0.8c-0.8,0-0.6,1-0.8,1.6
						C890.3,538.9,890.6,537.6,890.5,536.7z M916.6,541.5c0.5-0.9,0.4,2.1,3.1,1.7c-1.1,2.4-3-1.3-4,0.7c-1.2-0.5,0-0.8,0.8-0.8
						C916.1,542.4,915.7,541.6,916.6,541.5z"/>
					<path fill-rule="evenodd" clip-rule="evenodd" fill="#8F7256" d="M860.2,538.9c-1.7,1-4.5,2.4-4.7-1c5.1-1,4.7,1.9,9.5,0.3
						c0,1.1-0.1,2.1-0.1,3.2c-2.4-2.9-6.6,2.1-6.3-1C859.9,540.7,860.1,539.8,860.2,538.9z"/>
					<path fill-rule="evenodd" clip-rule="evenodd" fill="#8F7256" d="M869.3,504.9c3,3.1,5.4-0.2,12-0.4c-0.1,5.1-5.6,8.8-9.9,10
						c-2,0.6-4.3-3-4.8-0.2c-0.3,1.7-13.1-2.1-19.1,0.2c0.8-3.1,0.5-5.1,2.6-7.9c4.3,2,8.5-0.3,11.9,2
						C863.7,506.7,868.5,507.9,869.3,504.9z"/>
				</g>
			</g>
		</g>
		<g>
			<g>
				<g>
					
						<rect x="457.2" y="465.7" transform="matrix(-0.9995 -3.282712e-002 3.282711e-002 -0.9995 1024.7006 1065.3091)" fill="none" width="127.8" height="117.1"/>
					<path fill-rule="evenodd" clip-rule="evenodd" fill="#8F7256" d="M490.5,474.2c-1.1,0.8-1.8,0.1-4.2,0.5
						C487.1,473.8,489.4,473.1,490.5,474.2z"/>
					<path fill-rule="evenodd" clip-rule="evenodd" fill="#8F7256" d="M566,483.9c1.3-0.3,0.8,1.2,1.8,1.3
						C567.5,486.6,565.4,485.1,566,483.9z"/>
					<path fill-rule="evenodd" clip-rule="evenodd" fill="#8F7256" d="M540.7,489c-1.1,4.4-2.3-0.1-2.5,2.9c-0.7-0.9-1.7-1.5-1.7-3
						C538.5,488.1,538.6,488.8,540.7,489z"/>
					<path fill-rule="evenodd" clip-rule="evenodd" fill="#8F7256" d="M468.1,499.8c-1.9,0.5-3.8,0.2-4.2-0.7c-0.6,1.8-3.7,0.9-6,1
						c0-2,3.1-0.8,3.1-2.9c3.9,0.4,5.1,1.9,7.2,0.2C471.3,498.2,466.6,499.3,468.1,499.8z"/>
					<path fill-rule="evenodd" clip-rule="evenodd" fill="#8F7256" d="M583.2,505.9C580.4,506.4,582.2,503.1,583.2,505.9
						L583.2,505.9z"/>
					<path fill-rule="evenodd" clip-rule="evenodd" fill="#8F7256" d="M584.4,505.4c0.4,0,0.8,0,1.2,0c0.2,1.3-0.9,1.1-1.8,1.1
						C583.9,506.1,584.4,506,584.4,505.4z"/>
					<path fill-rule="evenodd" clip-rule="evenodd" fill="#8F7256" d="M546.6,511.3c2.4,0.3-0.5,1.8,1.1,2.4
						C546.1,515.2,546,513,546.6,511.3z"/>
					<path fill-rule="evenodd" clip-rule="evenodd" fill="#8F7256" d="M550.7,512c-0.2,1.4-1.6,1.3-2.4,0.5
						C548.6,511.2,550,511.2,550.7,512z"/>
					<path fill-rule="evenodd" clip-rule="evenodd" fill="#8F7256" d="M547.6,517.3c-0.7-0.1-0.5-1.1-0.5-1.8c0.6,0,1.2,0,1.8,0.1
						C549.1,516.9,547.7,516.4,547.6,517.3z"/>
					<path fill-rule="evenodd" clip-rule="evenodd" fill="#8F7256" d="M554.2,515.7c-0.1,0.7,0.1,1.1,0.6,1.2c-1,0.9-1.9,0.2-3-0.1
						C552,515.8,552.9,515.5,554.2,515.7z"/>
					<path fill-rule="evenodd" clip-rule="evenodd" fill="#8F7256" d="M537.7,545.1c-0.2-1.2,2.7-0.8,1.8,0.7c-0.4,0-0.8,0-1.2,0
						C538.4,545.2,538.1,545.1,537.7,545.1z"/>
					<path fill-rule="evenodd" clip-rule="evenodd" fill="#8F7256" d="M505.4,546.4c0.6,0,1.2,0,1.8,0.1c-0.2,0.8-1.1,0.9-1.3,1.8
						C505.3,548.1,505.5,547.1,505.4,546.4z"/>
					<path fill-rule="evenodd" clip-rule="evenodd" fill="#8F7256" d="M559.7,548.8c0.2-0.8,1.5-0.4,2.4-0.5c-0.1,1.6,1,1.2-0.1,2.4
						C560.1,551.1,561.3,548.6,559.7,548.8z"/>
					<path fill-rule="evenodd" clip-rule="evenodd" fill="#8F7256" d="M563.3,548.3c1.2-0.2,1.9,0.2,1.8,1.3c-0.6,0-1.2,0-1.8-0.1
						C563.3,549.1,563.3,548.7,563.3,548.3z"/>
					<path fill-rule="evenodd" clip-rule="evenodd" fill="#8F7256" d="M501.8,546.9c1.4-0.2,1.3,1.1,3,0.7
						C503.9,548.5,501.4,549.3,501.8,546.9z"/>
					<path fill-rule="evenodd" clip-rule="evenodd" fill="#8F7256" d="M506.5,550.6c0.5,0.4,1,0.8,1.2,0c2.4,1.7-1.8,1.3-1.3,2.9
						C504.6,553,506.8,551.7,506.5,550.6z"/>
					<path fill-rule="evenodd" clip-rule="evenodd" fill="#8F7256" d="M510,552.5c0.5,0.5,1.3,0.7,2.4,0.7
						C512.5,554.2,509,554.1,510,552.5z"/>
					<path fill-rule="evenodd" clip-rule="evenodd" fill="#8F7256" d="M564,564.4c-0.3,1.5-2.3,0-1.8-1.3
						C563,563.4,563.1,564.3,564,564.4z"/>
					<path fill-rule="evenodd" clip-rule="evenodd" fill="#8F7256" d="M562.2,564.4c0.1,1-0.6,1-0.7,1.8
						C560.3,566.3,560.7,563.4,562.2,564.4z"/>
					<path fill-rule="evenodd" clip-rule="evenodd" fill="#8F7256" d="M475,562.1c0.5,0.7,2.2,0.3,1.7,1.8
						C475.5,564,474.9,563.4,475,562.1z"/>
					<path fill-rule="evenodd" clip-rule="evenodd" fill="#8F7256" d="M540.4,573.2c0.3-1.3,2.9-0.1,4.2-0.5
						C544.3,574.1,541.6,572.9,540.4,573.2z"/>
					<path fill-rule="evenodd" clip-rule="evenodd" fill="#8F7256" d="M479.2,471.5c0.9,0.1,0.5,1.5,0.5,2.4
						c1.8-0.4,1.7,1.1,3.6,0.7c-0.1-1.9,3.5,0.1,4.3-2.2c3.5,1.9,9,2.8,8.8,5.1c2.9-3.9,5.2,1.3,8.4-1.5c0.6,3.4-5.3,0.7-5.4,1.6
						c0.7,0.3,1.2,0.8,1.1,1.8c-1.3-0.9-4.4,0.4-1.7-1.8c-5.6,1-10.2-0.7-17.3,0c-5,0.5-13.2,0.2-12.2,6.2c5.9-1.3,7.2,1.7,10.8-2
						c-0.2,0.8-1,1-1.3,1.8c2.4,1.3,6.4,2,6.6,0.2c0.5,1.9,3.4,1.5,4.7,2.5c-3.3,0.2-3.3,0-5.4,1c-0.7-2.3-2.5-0.2-4.1-1.9
						c1,1.6-0.8,2.1,0.5,3c1.6-2.7,4.3,2,5.9,1.4c-0.1-1.2,2.3-2.8,3-1.1c-0.9,0-2.1-0.1-1.8,1.1c1.5-0.7,2.9,1.4,3,0.1
						c-0.8,0-0.7-1.7,0.1-1.8c0.2,1.3,1,2.2,2.3,2.5c1.5-0.7-0.6-2.2,0.7-2.4c0.7,0.9,1.3,3.9,2.3,1.3c-0.5-0.1-1.2-0.1-1.2-0.6
						c2.4-1.5,1.7,0.2,2.3,1.3c1.2-3.8,3.6,0.9,6-1.6c-1,1.2,0,0.8-0.1,2.4c-1.5-1.9-2.1,2.4-3.6,0.5c-0.6,2.8,2-0.3,1.8,1.3
						c-1.8,0.5-2.5,1.2-2.5,2.3c-1.3-0.5-7.6-1.2-4.8,1c-1.8,0-5.9,1-4.8-0.8c-4.4,1.1-7.7-1-9,1.5c-1.4-0.2-3-0.7-1.7-1.8
						c-3.5-0.9-4.1,1.4-6.6,1.6c0.1,2,2,3-0.1,4.2c1.3-2.2-1.2-2.3-2.3-3.7c1.4,2.5-1.3,1.1-1.3,3.5c1.5,0.7,2.2-2.5,3-0.5
						c-0.4,0-0.8,0-1.2,0c-0.5,1.8,0.5,2.2,0.5,3.6c-0.8-0.1-0.8-0.8-1.8-0.7c-0.2,3.2,2.7,0.1,3.5,2.5c-0.3,1.1-1.7,1-1.3,2.9
						c2.9,0.9,2.8,1.8,5.3,1.4c-0.1,1,0.1,1.9,0.5,2.4c-1.3,0.3-1.8-1.8-1.8,0.5c0.3,1.2,2.8,0.5,2.9,1.9c-2.1,0.6-2.7,2.8-5.5,2.8
						c-0.2,1.1,0.6,1.3,0.5,2.4c-1.6-1.7-0.6,0.9-1.8,1.1c-2.2,0.1-2.9,0.8-4.8-0.2c-0.6,2.3-2.3,1.2-4.2,1.1
						c-0.9,2.9,3.5,1,4.1,2.5c-1.9-0.4-2.8,0.3-4.2,0.5c0.7-0.8,0.7-1.4-0.5-1.8c-0.3,1.1-2.3,0.4-1.9,2.3c1.6,0.7,3.1,0.8,4.8,0.2
						c0.7,0.8,0.7,2.2-0.1,3c2.6,0.1,3.7-0.6,4.8,0.2c-0.6,1.8-4.6,2-2.5,4.7c-2.2,0.3-4.8,0.3-5.4,2.2c5.5,1.7,5.7-1.2,10.1,1.5
						c-1.5,0.2-6.3,0.3-4.9,3.4c-1.8,0-3.6-0.2-3.6,1.7c2.6-0.1,4.6-0.6,6.6,0.2c-1.1,0-2,0.3-2.4,1.1c1,1.1,2.8-0.1,3.6-1.1
						c-0.3,2.5,8.2,2.1,9.5,0.3c0,0.6,0,1.2-0.1,1.8c3.1-1.8,3.7,1.4,4.2-1.7c9.3,2.5,21.7,0,29.8,3.4c-1.9,0.6-4.4,1.4-5.4-0.2
						c0,0.4,0,0.8,0,1.2c-0.4,0-0.7,0.1-0.6,0.6c1.1,0.1,2,0.5,2.3,1.3c-0.4,0.6-3.1,1.9-1.3,2.9c0.9-1,3.2,0.9,4.2-1.1
						c0.4,1.9,0.4,1.2-0.1,3c2,0,1.1-2.9,3.7-2.3c0.2,2,1.8,1-0.1,2.4c6,1.9,17.8-1.1,23.8,2.6c0.1-0.9-0.1-2.2,0.7-2.4
						c0.6,0,1.2,0,1.8,0.1c0.2,5,6.7-0.2,10.7,1.5c2.9-1.9,1.7-6,5-6.4c-0.5-0.1-0.7-0.5-0.6-1.2c-3.7,1.5-8-0.3-9.5-2.7
						c-0.1,0.9,0.1,2.2-0.7,2.4c-0.7-2.7-6.9,3.4-4.7-2.5c-0.2-0.7-2.9-0.8-1.2,0c0.4,0,0.7,0.1,0.6,0.6c-1.9,2.8-2.2-0.4-2.5,2.9
						c-0.9-0.5-0.8-1.9-2.3-1.9c-0.1,0.7,0,1.7-0.7,1.8c-0.5-0.1-1.2-0.1-1.2-0.6c0.8-0.8,3-1.6,0.7-2.4c-0.4,2.9-0.8-2.2-3.6-0.7
						c-0.5,1.7,0.8,1.6,0.5,3c-0.6,0-0.7,0.5-1.2,0.6c-0.6-2.3-4.7-0.1-5.9-1.4c-0.1,1.1-0.5,2-1.3,2.3c0.2-1.1-0.6-1.3-0.5-2.4
						c-1.7,0.4-6.2-0.2-4.8,1.6c-0.8-0.1-1.3,0.2-1.8,0.5c1.1-1.2-0.4-1.2,0.7-2.4c-1.9-0.7-1.5,0.9-2.4,1.1c-0.4-1.7,0.9-1.5,0.7-3
						c-6-1.8-13.4-1.7-19-3c12.8,0.5,26.1,0,39.4,0.7c3.5-2.4,8,0.2,11.3,0.4c0.5,0,6.3-2.6,5.9,0.8c1.9,0.6,0.9-1.9,2.4-1.7
						c1.1,2.6,4.3-0.4,5.9,1.4c-0.7,0-1.4,0.1-1.2,1.2c1.6-0.5,3.6,0,5.4,0.8c1-2.3-1.5-1.3-1.7-2.4c4.4-0.3,0.7,3.4,4.7,3.1
						c0.8-1.9-1.9-0.5-1.1-2.4c1.4,0.2,2.2,1,4.2,0.7c-0.1-1.4,0.2-2.3,0.7-3c-1.7-0.5-1.6,0.8-3,0.5c0-0.6-0.5-0.7-0.6-1.2
						c1,0.2,1.6-0.8,0.6-1.2c-0.9,2.2,0-1.8-1.2-1.2c0.2,1-3.3,0.9-3-0.1c1.4,1,1.8-2,0.7-1.8c0.2,1-2.3,1.9-2.4,0.5
						c1.4-0.5,2.3-0.1,3.6-1.7c-3.6,2.7-7.8-2.5-9,1.5c-2.3-4.4-14.4-2.1-15.9-6.5c-2,0.9-3.7-0.9-4.8-0.8c0-1,0.2-1.9,0.7-2.4
						c-1-1.2-1.9,0.8-2.3-1.3c2.6,0.5-0.4-1.2,1.2-1.2c1.8,2.4,5.2,0.3,6.5,2.6c-1.9-0.6-2.3,0.4-3,1.1c0.5-2.3-3.1-1.2-2.4,0.5
						c2.8,1.8,6.3-2.3,7.8,0.3c1.6-1.5-1.1-0.9-1.1-2.4c1,0.8,4.7,0.1,4.2-1.1c0,0.8,1,0.6,1.2,1.2c-0.6,0.6-2.2,0.1-1.8,1.7
						c0,2.2,2.3,0.1,2.3,1.3c0,0.4,0.1,0.7,0.6,0.6c-1.2-2.5,0.1-4.1-1.6-5.4c2.3-0.4,6.6,1,6.6-0.4c3.8,2,9.7,2.1,14.8,2.9
						c0.2-3.8,4.7-2.8,5.6-5.8c-0.2,2.5,0.9,0,1.8,0.1c-0.4,1.5,0.2,2.2,1.7,1.8c-0.7-3.6-9.3-3.5-8.3-1.5c-2.3-1.5-2.8-0.4-4.7-3.1
						c-1.8,0-2.1,1.5-3.6,1.7c-0.5-1.1,1.9-1.9,0.1-2.4c-0.3,3.6-0.6-2.3-1.2,0c-0.6,1.1,1.7,2.1-0.1,2.4c-2.7-0.3-0.3-1.8-1.7-3
						c-1,0.3,0,2.8-1.3,2.9c-0.3-2.4-3.4-2.7-1.2-0.6c-4.3-1.9-6.3,0.5-10.8,0.2c0.5-2.6-1.2,0.4-1.2-1.2c0-0.4,0-0.8,0-1.2
						c0.9,1,2.4,0.5,3-0.5c-0.8,0-0.5-1.1-1.2-1.2c0.4,3.6-2.9-0.3-3.7,2.3c0.7,0.1,1.4,0.2,1.2,1.2c-1.5,0.2-3.6-0.4-4.8-0.8
						c1.6-1.2,2.3-0.5,3.6-1.1c-0.2-3-2.1-1.3-2.9-3.1c-3.1,3.5-4.4-0.3-7.8,0.9c0.1-0.8,0.8-0.8,0.7-1.8c-1.9-0.8-0.5,1.9-2.4,1.1
						c0.6-1.9-0.4-2.3-1.1-3c3.2,1.4,5.1-2,6.5,1.4c-0.5-1.2,1.6-2.6,1.8-1.1c-0.2,0.7-3.2,1.4-1.3,2.3c2.3-0.4,5.9-2,6.1-5.2
						c2.4,2,4.1,1.1,6.5,3.2c-0.8-1.5-1.3-2.5,0.1-4.2c0.1,2.1,2.7-1,2.4,0.7c-0.8,0.2-1.2,0.8-2.4,0.5c0.1,1.1,1.4,4,2.3,2.5
						c-1.9-1.6,1.8-2.1,2.4-0.5c-0.2,0.3-2.9,0.8-1.2,1.2c1-2,4-0.1,4.8-1c-0.5-0.1-0.7-0.5-0.6-1.2c-4.1,2.1-7.1-6.4-1.7-3.6
						c-0.7,0-1.4,0.1-1.2,1.2c1.8-0.5,1.9-0.5,3.6,0.1c0.3-3.2,6.6,0.4,3.7-2.3c1.9-0.5,2.2,3.3,3.5,1.3c-1.4-1.7,2.8,1.2,2.4-1.1
						c-0.6,0-1.5-0.3-0.6-0.6c1.7,0.6,0.6,0.9,0.5,2.4c2.4-0.4,2.1,0,4.8,0.2c0.8-1.9-1.9-0.5-1.1-2.4c1.3,1.1,4.7,0.4,5.4-1
						c-2-0.3-5-0.6-7.2,0.4c0.6,0.2,0.5,1.6-0.1,1.8c-0.8-3.3-4.1-0.7-5.3-3.8c1.7,0.5,1.6-0.8,3-0.5c0.6,0.6,0.1,2.2,1.7,1.8
						c0-2.2,1.5-1.8,3.6-1.1c2.3-2.2,1.4-4.2,1.5-8.3c-2.3,1.5-5.1,2.9-7.2,1.6c1.7-1.7,2.6-1.4,5.4-1c-2.8-3.3-6.6,1.9-7.1-2
						c-0.9,1.7,1.5,3.1-0.1,3.6c1-2.1-2-0.4-1.7-1.8c0.8,0,0.8-1.6,0.1-1.8c-0.1,1.3-1.5-0.8-3-0.1c-0.6,1.1,1.7,2.1-0.1,2.4
						c-0.5-0.4-0.6-3.9-1.7-1.8c0.5,0.4,1.8,2.9,0.5,3c0.3-1.4-1-1.3-0.5-3c-3,0.9-0.3-0.1-1.8-1.3c-0.8,1.3-3.6,0.9-1.3,2.3
						c-3.1-0.7-1.9-2.2-5.3-2c-0.1,0.7,0,1.7-0.7,1.8c-2-1.9-5.1,0.5-5.3-2.6c-0.6,0.6-1.2,1.2-1.8,1.7c0.2-0.7-1.7-2.1-1.8-0.7
						c1.1,2.2,3.5-0.4,4.1,1.9c-4.1,0.1-6.7-2.4-5.8-3.8c-1.5,1.7-3.9,2.3-4.8,1c-0.1,0.9,0.1,2.2-0.7,2.4c-2.1-1.1-3.1,1.9-3.6,0.5
						c0.8,0,0.6-1,1.2-1.2c0.6,0,1.2,0,1.8,0.1c-0.6-4.6-6.3-5.1-9.4-3.9c-0.1-0.5,0-1.2-0.6-1.2c-0.1,1.6,1,1.2-0.1,2.4
						c2.5-1,1.1,1.1,3.6,0.1c-1.1,1.2,0.4,2.3-0.7,3c-0.1-0.7-0.7-0.4-1.2,0c0.9-1.7,0.5-0.7-1.2-0.6c0.1-0.7,1.1-1.3,0.1-1.8
						c-0.3,1.3-3.2,0.4-3.6-0.1c-1,1.5-2.1,2.7-4.3,2.8c0-0.8,0.1-1.6,0.1-2.4c0.4,0.2,2.2,1.6,2.4,0.1c-0.4-1.2-3.3,0-3.5-1.3
						c0.1-0.7,0.7-0.3,1.2,0c-0.6-4-2.8,0.9-4.1-1.3c0.3-0.9,1.9-0.4,1.3-2.3c-1.9-0.6-2.3,0.4-3,1.1c-0.5-3.4,3.7-2.1,4.9-2.2
						c-0.1,0.9-1.5,0.4-1.3,1.8c4-5,11.8,1.1,18.6-2.4c-0.5-3-6.1-4.3-5.2-6.7c1.8,0.7,3.2,0.5,4.1,1.3c-0.7-0.2-2.1,1.7-0.7,1.8
						c2.1-1.9,1.9,3.2,3.5,3.7c-0.5,0.2-3.1,1.1-1.3,1.8c0.6-1.7,2.2-0.1,2.4-1.1c-0.5-0.2-1.5-2.7-0.5-2.4c2.4,1.2,8.2,1.2,9.6-2.7
						c-2,1.3-2,0.8-4.2-0.1c-0.1,0.8,0.2,1.3,0.5,1.8c-3.4,1.7-4-2.7-5.9-1.4c1.4,0.2-0.7,1.6-1.3,1.8c1.2-2.8,0.3-2.6-1.1-2.4
						c0.3-0.7,0.7-1.3,1.3-1.8c0.5,0.4,2.1-0.2,3-0.5c-0.7-0.1-1.4-0.2-1.2-1.2c0.6,0,0.7-0.5,1.2-0.6c0.3,0.7,0.6,1.4,1.1,1.8
						c1.8-1,2.3-2.1,0.1-3c4,0.5,7.7,4.4,10.7,0.9c-0.2,1.5,0.9,1.9,1.7,2.4c-0.1-2.4,2.8,0.4,3.6,0.7c0.9-1.7,5.2-2.2,5.4-1
						c2.8,0.1,2.9-2.7,4.3-4c0.3,2.8,3-1.3,6,0.2c0-1.5,0-2.9,0.7-3.6c-1.6,0.1-8.1-0.3-7.1-3.2c-0.7-0.1-1.4-0.2-1.2-1.2
						c-8.6-0.2-12.4,0.5-19.7-0.6c-0.8,0.3-0.2,2.3-1.3,2.3c-12.3-3.5-32.8-2.9-46.5-1.5c-0.8,1.5,2.3,1.9,0.5,2.4
						c-2.7-1.7-3.6,1.3-6,1.6c-0.5-1.1,1.9-1.9,0.1-2.4c-1.1,1.8-2.8,0.6-5.4,0.4c-0.9,2-3.8,2.9-6,2.2c1.2-0.3,2.6-1.2,0.7-1.8
						C481.9,471.9,479,470,479.2,471.5z M509.2,486.2c1.4-1.2,2.1,0.3,4.2-0.5C512.2,487.9,511,487,509.2,486.2z M534.1,546.7
						c0-0.4,0-0.8,0-1.2c0.5,0.3,0.9,0.7,1.8,0.7C535.5,547.4,534.9,547.4,534.1,546.7z M501.2,475.8c0.2-0.9,1.8-0.1,1.8-1.1
						C504.9,475.4,502.4,476.3,501.2,475.8z M513.2,474.4c1,0.5,0.1,1.1-0.1,1.8c-0.5-0.3-0.9-0.7-1.8-0.7
						C511.5,474.6,513.1,475.3,513.2,474.4z M508.2,480.8c0.8-0.7,3.5,1.7,4.1,3.1c-1.4,0.1-2.5-3-3.5-1.3c-0.9-0.3,0.1-0.5,0-1.2
						C508.9,480.9,508.5,480.8,508.2,480.8z M517.7,482.9c1.1-0.2,1,3.4-0.7,2.4C516.9,484.2,517.8,484,517.7,482.9z M523,483
						c0.4,0,0.8,0,1.2,0c0.2,1.3-0.9,1.1-1.8,1.1C522.5,483.7,523,483.6,523,483z M506.3,483.7C508.6,481.7,509.3,485.4,506.3,483.7
						L506.3,483.7z M530.2,483.9c0.7,2-1.9,0.4-1.3,2.3C527.6,486,528.9,483.4,530.2,483.9z M498.5,485.2c0.5,0.7,2.2,0.3,1.7,1.8
						c-1.1-0.3-3.6,0.7-2.9-1.3C498,486.5,498.5,486.3,498.5,485.2z M504.9,489c0.4,1.2,3.6-0.3,2.9,1.9c0.9-0.7,2.5-0.7,3-1.7
						c0.6,0.4,0.6,1.4,1.8,1.3C510.6,491.5,505.7,492.7,504.9,489z M532.2,493.5c-0.8-0.1-1.7-0.2-1.8,0.5c-1.1-0.1,0.5-2.2,0.7-3
						c1.2,0.6,3,0.1,3.5,2.5c-0.5-0.7-2.2-0.3-1.7-1.8C532.2,491.8,532.4,492.8,532.2,493.5z M504.2,491.4c0.3,1.3-1.2,0.8-1.3,1.8
						C501.5,492.8,503,490.8,504.2,491.4z M561.3,500.4c1.9-0.5,0.8,2,2.3,1.9C563.5,503.3,560.8,501.9,561.3,500.4z M560.1,501
						c0.5,1.8-3.4,1.7-5.4,1c1.2-0.7,3.9-1.4,4.8-0.4C560,501.7,560,501.4,560.1,501z M566.6,502.4c0,0.4,0,0.8,0,1.2
						C563.6,504.1,565.6,500.4,566.6,502.4z M520,503.3C518.2,501.3,524,502.2,520,503.3L520,503.3z M561.8,504
						c-0.2-1.1,3.4-1,2.4,0.7C563.6,504.2,562.8,504,561.8,504z M475.2,503c-0.2-1.1,3.4-1,2.4,0.7C477,503.2,476.2,503,475.2,503z
						 M485.2,506.9c1-1.8,0.6,2.2-1.2,1.2c0.1-1.1-0.7-1.3-0.5-2.4c0.7,0.3,1.2,0.8,1.1,1.8C485.1,507.6,485.2,507.3,485.2,506.9z
						 M493.5,509c-2.2-1.6-5.1,0.3-6.5-2c1,0.8,3.6-0.5,5.4,0.8c-0.4-0.6-1.4-0.7-1.1-1.8c2.4-0.1,2.1,3.7,3.6,0.7
						C497,507.5,491.6,510.4,493.5,509z M477.4,509c0.8-2.4,2.6-0.1,4.8-0.4c-0.7,0.5-0.3,2.2-1.8,1.7c0.7-0.7,0.3-1.5,0-0.6
						C479.5,508.3,479.1,508.6,477.4,509z M520.3,512.8c-0.2-1.3,0.9-1.1,1.8-1.1c-0.8,1.4,0,1.1-0.7,3c-0.7-0.2-0.6-1.2,0-1.2
						C521.4,512.9,520.7,513,520.3,512.8z M527.4,513.1c1.2-1.5,0,1-0.1,1.8c-0.4,0-0.8,0-1.2,0c-0.3-0.5-0.6-1-0.5-1.8
						C526.1,513.4,527.2,514,527.4,513.1z M516.7,512.7c1.6,0.6-0.6,2.6-1.2,1.2C515.6,513.2,516.6,513.5,516.7,512.7z M532.2,513.8
						c0,0.4,0,0.8,0,1.2C529.2,515.5,531.1,511.8,532.2,513.8z M512.9,517.4c0-0.4,0-0.8,0-1.2c1.6-0.1,0.4,2.3,2.3,1.9
						C515.1,519.4,513.1,517.9,512.9,517.4z M526.1,516.6c1.1,0,1.2,0.8,2.4,0.7C528.6,518.3,525.1,518.2,526.1,516.6z M536,525.3
						c-0.9,1.4-1.5,0.9-3,0.5C533.4,523.9,534.6,525.1,536,525.3z M527.6,525c1.1-0.5,1.9,1.9,2.4,0.1c1.7,0.9-1.1,2.1-2.4,1.7
						C527.6,526.2,527.6,525.6,527.6,525z M535.9,528.9c0.1-0.5-0.2-0.6-0.6-0.6c0.3-0.5,0.7-0.9,0.7-1.8
						C535.6,528.3,538.2,527.9,535.9,528.9z M466.1,525.4c0.9,0.3,1.5,0.9,2.3,1.3C468,528.1,465.4,526.9,466.1,525.4z M495.2,530.5
						c-1.5,2.8-2.1-0.6-3,1.7c-2.5-1.6-4.8-1.1-7.8-0.3c0.2-0.6,1.2-0.4,1.2-1.2c-0.8-1-2.6,2.1-5.4,1c0.3-1.3-0.8-1.2-1.8-1.3
						c3.4-2,11.1-1.7,19.1-0.6c-0.7,0.7-0.6,1.2,0.6,1.2C497.6,531.6,494.8,532.1,495.2,530.5z M471.9,529.8c0.6-1.7,1.9,0.4,3,0.1
						c-0.3,1.1-2.3,0.4-1.9,2.3C471.4,532.6,473.5,529.4,471.9,529.8z M473.4,539.4C469.5,541.1,467,538.4,473.4,539.4L473.4,539.4z
						 M472.1,542.3c-0.9-1.6,1.5-1.7,3-0.5C474.8,543.8,472.5,540.1,472.1,542.3z M513.7,547.3c-0.4,0.8-1.3,1.1-2.4,1.1
						C510.8,546.6,512.7,547.4,513.7,547.3z M540.4,553.5c0.1-0.5-0.2-0.6-0.6-0.6c0.9-1.4,1.5-0.9,3-0.5c0.2,1.7-2.2,0.5-2.4,1.7
						C539.7,554,540.1,553.5,540.4,553.5z M550,553.2c-3.9,1.2-7.3,1.9-2.4-0.7C548.1,553,549,553.2,550,553.2z"/>
					<path fill-rule="evenodd" clip-rule="evenodd" fill="#8F7256" d="M484.6,489c-0.9,2.6-2.7,0.7-4.8,1.6c0.5-1.6-1.1-1.2-1.1-2.4
						c-0.5,2.1-3.8,1.3-4.9,2.8c-1.1-2.1-2.5-3.6-5.9-2c-0.3-2.2,2.6-0.9,3.1-2.3c2.3,2.5,6.6,2,9,0.3
						C479.6,490.6,483.2,487,484.6,489z"/>
					<path fill-rule="evenodd" clip-rule="evenodd" fill="#8F7256" d="M547.5,482.1c1.1-0.1,2.9,1.8,3.6,0.1c0.9,0.5,1.2,1.5,1.1,3
						c-0.5-0.1-0.6-0.6-1.2-0.6c-0.6,0-0.5,0.7-0.6,1.2c-0.8-0.1-1-2.5-1.2,0c-0.9-0.5-0.8-1.9-1.1-3c-1.6-0.5,0.3,2.8-1.3,2.3
						c-0.4,0-0.8,0-1.2,0C545.6,483.3,547.5,483.7,547.5,482.1z"/>
					<path fill-rule="evenodd" clip-rule="evenodd" fill="#8F7256" d="M558.2,484.2c-0.4,1.2-2.8,0.3-3,1.7
						c-0.8,0.3,0.6-3.3-1.2-1.2C552.8,482.8,556.4,484.1,558.2,484.2z"/>
					<path fill-rule="evenodd" clip-rule="evenodd" fill="#8F7256" d="M521.7,487.8c0.6-1.5-1,3.4,2.9,1.9c0.1,0.5-0.3,0.6-0.6,0.6
						c0,0.4,0,0.8,0,1.2c-1.4-1.5-2.6,0.4-4.8-0.2c0-0.8,0.1-1.6,0.1-2.4c2.4,0-0.2,0.9,1.1,1.8C522,491,520,487.5,521.7,487.8z"/>
					<path fill-rule="evenodd" clip-rule="evenodd" fill="#8F7256" d="M498.3,490c-0.1-0.5,0.3-0.6,0.6-0.6c0.4,0,0.8,0,1.2,0
						c-1.3,1.4-2.1,3.5-4.3,2.2C496,490.8,500.3,491.2,498.3,490z"/>
					<path fill-rule="evenodd" clip-rule="evenodd" fill="#8F7256" d="M525.8,561.4c-0.5-0.1-1.2-0.1-1.2-0.6
						c0.8-0.2,1.2-0.7,1.3-1.8c-1.8,0.4-2.2-0.7-3.6-0.7c-1,2.3,2.6,0.3,2.3,1.9c-0.3,0.7-0.7,1.3-1.3,1.8c0.2-2.4-0.2-1.4-1.8-1.3
						c0-0.9-2.4-3.3-3.5-1.3c-0.2,1.9,1.8-1.5,1.8,0.7c-0.7,0.9-2.3,0.9-3,1.7c-0.3,2.2,1.3,2,2.2,4.9c-1-1.1-2.1-0.1-1.8,1.7
						c3.8,0.5,5.5,0.1,7.7,1.4c-0.1-3.8,3.5,0.1,4.3-2.2c0,0.6,0,1.2-0.1,1.8c1.9,0.4,3-0.1,3.6-1.1c-0.1,1,0.4,1.5,1.1,1.8
						c1.3-0.8-0.7-1.5,0.7-1.8c2,3.3,8.7,1.3,11.3,1.6c0.2,1.5,3,1.6,5.9,2c0.9-4.5-2.4-2.7,0.8-4.8c-1.4,0.1-2.2-0.2-2.3-1.3
						c0.7,0.2,3.7,0,1.8-0.5c-2.8-0.6-4-3.5-2.8-4.9c-0.2,2.3,2.5,1.9,2.2,4.3c1.5-0.7,2.9,1.4,3,0.1c-1.6-0.2,1.8-3.3,1.8-1.7
						c0,1.2-1.7,0.7-1.3,2.3c1,0,1.9,0.2,2.4,0.7c-1.4-1.7,1.2-3.3,1.9-2.3c0.1,0.6-2.6,1.1-0.7,1.8c0.1-2.1,1.9,1.3,1.8-0.5
						c-2.1-1.1,0.9-1.8,1.3-2.3c-1.5-1.5-2.9,0.7-3.5-1.3c0.2,2.9-3.6-1.9-4.2-0.1c0.7,0.1,0.9,0.7,1.2,1.2
						c-1.8-1.6-2.1,1.4-2.4,1.7c-0.9-1.1,0.6-2-1.1-3c-0.1,0.5-0.5,0.7-1.2,0.6c0-0.6,0-1.2,0.1-1.8c1.2-0.3,3.8,1.4,2.4,0.1
						c-4-2.3-7,1.3-9,1.5c0-0.8,1.1-0.5,1.2-1.2c-1.1,0-1.2-0.5-0.6-1.2c-1.5,0.7-2.9-1.4-3-0.1c0.8,0.6,2.2,0.6,2.3,1.9
						c-2.7-0.3-6.2-1.1-6.6,0.4c-1.9,0.2-1.5-1.7-2.9-1.9c-0.5,2.2-1.8-0.3-3,1.1c0.1-0.7,1.1-1.3,0.1-1.8c-0.1,1.2-2.7-1.1-1.2,1.2
						c-1.9-0.7-1.5,0.9-2.4,1.1c-0.2-1.6,1.5-4.7-0.5-3C528.2,558.8,525.6,561,525.8,561.4z M537.7,564.2c-0.8,0.1-0.6,1.2,0,1.2
						c-0.9,1.7-2.4-0.8-1.7-2.4c3.8,1,2.4-0.3,4.2-1.1c0.7,2-0.8,2.8,1.1,3c-0.3,0.5-0.7,0.9-0.7,1.8c-0.5-0.4-1-0.8-1.2,0
						C539,565.9,539.1,565,537.7,564.2z M547.9,562.1c-1.3,1.7-3.1,2.9-5.5,3.4c-0.2-0.5-0.5-1.1-1.2-1.2c0.1-1.7,1.6,1.5,1.2-1.2
						C545.7,563.9,545.7,563.2,547.9,562.1z M525.2,562c0.6,0.2,0.4,1.2,1.2,1.2c-0.9,1.3-1.4-0.5-3,0.5
						C521.5,562.8,525.8,563.5,525.2,562z M529.4,562.1c0.7,0.1,0.3,0.6,0,0.6c0.1,0.9,1.8,0.3,1.8,1.3c1.4,0.6-2.1-0.2-3.6,0.5
						C527.1,562.5,529.5,563.7,529.4,562.1z M521,563.6c0.5,0.1,0.6-0.2,0.6-0.6c2.4,1.4-1.9,0.7-1.8,1.7c-1.1-0.1-0.3-2-1.7-1.8
						c0.5-1,1.1-0.1,1.8,0.1c0.5-0.3,1-0.6,1.8-0.5C521.5,562.9,521,563,521,563.6z M538.1,568.4c1.7-0.4,1.5,0.9,3,0.7
						C541.2,570,537.2,570.1,538.1,568.4z"/>
					<path fill-rule="evenodd" clip-rule="evenodd" fill="#8F7256" d="M553.4,559.3c0.7-0.7,1.8-0.4,3.6,0.1
						C556,560.1,554.7,559.9,553.4,559.3z"/>
					<path fill-rule="evenodd" clip-rule="evenodd" fill="#8F7256" d="M568.8,562.2c-0.5,0.4-1.4,0.6-2.4,0.5
						c2.2,0.9,1.8,3.2-0.1,4.2c-1.3,1.5,0-2.1,1.3-1.8c-0.1-0.5-0.6-0.6-0.6-1.2c-1.9-0.8-0.5,1.9-2.4,1.1c0.3-1-0.4-1.1-1.2-1.2
						c1.6-0.6,2.9-1.5,4.3-2.2c1.8,1,3.5,2.1,5.9,2.6c-0.2,0.7-1.2,0.6-1.2,0c-0.9,0.2-0.6,1.9-2.4,1.1c0.9-1.7,0.5-0.7-1.2-0.6
						C569.8,563.4,568.7,563.8,568.8,562.2z"/>
					<path fill-rule="evenodd" clip-rule="evenodd" fill="#8F7256" d="M511.4,562.7c0.2-0.6,1.2-0.4,1.2-1.2c1.3,2.2,0.5-0.3,3,0.1
						c0,0.9-0.4,2.3,0.5,2.4C515.3,565.2,513.1,562.7,511.4,562.7z"/>
					<path fill-rule="evenodd" clip-rule="evenodd" fill="#8F7256" d="M483.4,562.4c0.6,0,0.4,0.7,0.6,1.2c1.7-0.6,5.9-1.1,10.2-2.1
						c-0.1,1.5-2.6,0.5-1.9,2.9c1.8-0.8,2.2-3,5.4-2.2c-0.6,3.6,3.7,3.3,7,5.6c0.2-1.7,0.8-0.6,3.6-0.5c-1,1.2,0,0.8-0.1,2.4
						c-1.8-0.1-6.7,1.9-7.1-0.8c-1.8,0.3,0.5,1.3-0.1,2.4c-0.5-0.5-1.6-0.4-1.8-1.3c-0.7,2.7-4.2-0.2-4.2,1.7c-0.3-1-1.8-1-2.3-1.9
						c-1.5,1.2-6.9,0.3-10.2,1.5c0.2-0.6,1.2-0.4,1.2-1.2c0-1.8-3.6,2.2-3-0.7c-1.7,2.9-9.6-0.9-9.6,0.9c-1.6-0.2-1.3-2.3-2.3-3.1
						c2.2-0.9,3.3-2.4,6.6-1c-0.3-1.3-1.2-2-1.7-3c-1-0.2-1.6,1-1.8-0.1c-0.7,0.1-0.4,1.2-1.2,1.2c-1.2,1.1,1.1-3.4,3.7-2.3
						c0.1,1.9,1.5,2.5,2.3,3.7c0.9-0.5,0.9-1.9,1.3-2.9c1.9-0.6,1.4,1,2.3,1.3C480.6,561.5,481.1,563.7,483.4,562.4z"/>
					<path fill-rule="evenodd" clip-rule="evenodd" fill="#8F7256" d="M470.2,562.6c2.2-1.4-4.9,3.3-1.3,1.8c0,1.1-3.3,0.9-4.8-0.2
						C465.7,563.1,468.3,563.2,470.2,562.6z"/>
					<path fill-rule="evenodd" clip-rule="evenodd" fill="#8F7256" d="M538.6,573.8c-3.4,1.7-4.9,0-8.3-0.9
						c-0.7,0.9-0.8,2.4-1.9,2.9c-1.4-1.3-4-1.4-5.3-1.4c0.7,0.1,0.9,0.7,1.2,1.2c-1.8-0.5-2.2,0.5-3.6,0.5c1.4-1.3,0.6-1.6,1.3-2.9
						c-4.3,1.2-10.3,0-13.1-0.4c-0.7,2.2,2,1.2,2.3,2.5c-1.1,0.1,0.3,1-0.6,1.2c-3.5-1.2-13.2-2.4-16.7,0.6c2.8-0.2,5.2,0.2,6.5,1.4
						c0.6-1.1-1.7-2.1,0.1-2.4c2.1,0.5,3.4,1.8,5.3,2.6c0.1-0.7,0.2-1.4,1.2-1.2c-1.9,1.8,2,1.1,3.5,1.3c0.6-2.8-2,0.3-1.8-1.3
						c1.5-1.7,3.4,0.7,4.8-0.4c-1.8,2.2,0.5,1.6-0.1,3.6c0.4-1.7,0.9,0.9,1.8,0.7c0-0.4,0-0.8,0-1.2c0.4,0,0.7-0.1,0.6-0.6
						c-1.1,0-1.4-0.6-1.1-1.8c0.8,0.2,1.1,0.9,2.4,0.7c-0.5,2,1.2,2,1.7,3c0.2-4.1,4.2,1.8,3.7-2.3c1.3,2.1,1.8,1.4,4.2,0.7
						c0.1,1.4-1.7,0.6-1.8,1.7c2.3,0.4,2-2,4.8-1c-1.7,1.3,3.6,2.8,4.1,1.9c-0.6-0.2-0.5-1.6,0.1-1.8c1,0.3,1.4,4,2.9,1.9
						c-1.8,0.2-0.8-1.6-0.5-1.8c0.6,1.2,2.8,3.1,3,0.1c-0.7-0.1-1.7,0-1.8-0.7c1.7-0.1,1.4-2.2,2.5-2.9c1.8,0.2,0.9,3,3.5,2.5
						c0.2-1.2-0.8-1.2-1.1-1.8c0.8,0.1,1.3-0.2,1.8-0.5c-0.1,1,0.1,1.9,0.5,2.4c1.9-0.6,1.6,0.2,3-0.5c-1-2.1,1-2,1.3-4.1
						c-3.1-0.5-3.2,2.2-4.2-0.7c0.2,1.9-1.6,1.6-2.5,2.3c0.1-0.8,0.8-0.8,0.7-1.8c-1.9,0.4-3,0.8-1.2-0.6c-2.1-0.9-3.6,1.8-4.2,0.5
						C538,574.8,538.3,574.3,538.6,573.8z M530.2,574.1c1.8,0.5,1.1,0.5,3,0.1C532.9,575.8,529.9,576.9,530.2,574.1z M512.2,574.7
						c1.9-0.4,4.5,0.9,1.2,0.6c-0.6,0-0.5,0.7-0.6,1.2C512.1,576.4,512.3,575.4,512.2,574.7z M531.8,578.3c0.4-0.7,0.3,1.6,2.3,1.3
						c-0.8,1.8-2.2-0.9-3,0.5c-0.9-0.3,0-0.6,0.6-0.6C531.5,579,531.1,578.4,531.8,578.3z"/>
					<path fill-rule="evenodd" clip-rule="evenodd" fill="#8F7256" d="M489.5,576.3c-1.3,0.8-3.4,1.8-3.6-0.7
						c3.8-0.7,3.5,1.4,7.2,0.2c0,0.8-0.1,1.6-0.1,2.4c-1.8-2.2-4.9,1.6-4.8-0.8C489.3,577.7,489.4,577.1,489.5,576.3z"/>
					<path fill-rule="evenodd" clip-rule="evenodd" fill="#8F7256" d="M496.3,550.9c2.2,2.3,4.1-0.1,9-0.3c-0.1,3.8-4.2,6.6-7.4,7.5
						c-1.5,0.4-3.2-2.3-3.6-0.1c-0.2,1.3-9.8-1.6-14.3,0.1c0.6-2.3,0.4-3.8,2-5.9c3.2,1.5,6.4-0.2,8.9,1.5
						C492.1,552.2,495.7,553.1,496.3,550.9z"/>
				</g>
			</g>
		</g>
	</g>
	<path fill="#B1B3B6" d="M664,257.9c-0.2,0.1-0.3,0.2-0.5,0.3c-2.6,1.5-24.9,14.6-39,27.5c-6.6,6.1-16.6,6.8-24.1,1.8
		c-0.3-0.2-0.6-0.4-0.9-0.7l-24-21.7c-11.2-10.2-28.5-9.7-39.2,1.1l-19.6,19.8c-9.2,9.3-10.9,23.7-4,34.8
		c16.7,27.1,56.1,71.7,134.2,71.7h134.8c0,0-13.8,27.6-12,48.5c1.6,19.4,24.1,17.4,27.4,17c0.3,0,0.6-0.1,0.9-0.1h20.5
		c0.8,0,1.5-0.1,2.3-0.3c2.1-0.7,6.9-2.5,13.9-7c9.6-6.2,90.5-29.6,98.9-76.7s-29.5-134.8-91.3-165.5C782,178.4,669.8,254,664,257.9
		z"/>
	<path fill="#F5C15D" d="M631,280.2l74.8,112.3h75.9l22.9-21.1l112-81.6c0,0-31.8-71.6-84.7-87.2l-150,33.7L631,280.2z"/>
	<g>
		<path fill="#797A7D" d="M586.5,287.9c-1.1,3.2-3,6.2-5.1,9c-1,1.4-2.2,2.7-3.4,3.9c-0.6,0.6-1.2,1.2-1.9,1.8
			c-0.6,0.6-1.3,1.1-2,1.7c-0.7,0.6-1.4,1.1-2.1,1.6c-0.7,0.5-1.4,1-2.1,1.5c-1.5,0.9-2.9,1.8-4.5,2.5c-3.1,1.6-6.4,2.6-9.8,3.2
			c0.8-0.4,1.5-0.8,2.3-1.2c0.7-0.4,1.5-0.7,2.2-1.2c1.5-0.8,2.9-1.6,4.3-2.5c2.8-1.7,5.5-3.7,8.1-5.8c2.6-2.1,5-4.4,7.3-6.8
			C582.3,293.2,584.5,290.7,586.5,287.9z"/>
	</g>
	<path fill="#2F8F6D" d="M671,281.8c0,0,9.6,26.2,52.6,38.9c42.2,12.5,123.7,11,171.8-67.2l-11.3-14.4L671,281.8z"/>
	<path fill="#9CA1A5" d="M848.4,196.6l35.7,42.5c0,0-85.1,119.6-213.1,32.8L848.4,196.6z"/>
	
		<linearGradient id="SVGID_5_" gradientUnits="userSpaceOnUse" x1="990.0159" y1="-206.7785" x2="1053.291" y2="-118.8105" gradientTransform="matrix(0.9918 -0.1276 0.1276 0.9918 -183.9168 551.6101)">
		<stop  offset="0" style="stop-color:#C0C2C4"/>
		<stop  offset="1" style="stop-color:#B1B3B6"/>
	</linearGradient>
	<path fill="url(#SVGID_5_)" d="M866.8,156.9c-0.9-4.1-2.1-8.2-3.6-12.3c-5.8-15.7-15.6-30.7-27.8-42.2c-1.4-1.4-3-2.7-4.7-4l0,0
		c-3.9-3-8.1-6.1-11.9-9.4c-2.9-1.9-5.9-3.8-9-5.5l-1.9-22.3c-0.7-7.8-3.2-15.4-7.5-22L783,11.9c-1.9-6.3-7.2-10.9-13.7-11.8
		c-9-1.2-17.4,5-18.7,14c-2.5,17.5,7,30.8,14.2,38.2c4.3,4.4,7.4,9.8,9,15.7c-8.9-3-15-4.5-15-4.5c-16.2-1.2-27.3,1.3-27.3,1.3
		c-13.8,1.5-27.4,5.7-40,13c-18.6,10.9-34.1,27.9-44.1,47c-11.7,22.3-26.2,44.1-44.6,61.4c-1.9,1.8-3.7,3.9-5.2,6.1
		c-11.4,0.7-18.5,12.9-17.9,24.4c0.3,5,2,8.6,4.7,11.4c3.6,3.6,6.3,7.9,7.7,12.8c3.2,10.6,9,20.3,16.9,28.1
		c18.6,18.2,49.4,27.6,75,28.4c17.1,0.5,34.2-1.5,50.9-4.7c15.9-3.1,31.7-7.3,47.1-12.2C894.9,244.8,866.8,156.9,866.8,156.9z"/>
	<g>
		<path fill="#797A7D" d="M611.6,207.1c1.7,0.6,3.2,1.9,4.4,3.3c1.2,1.5,2,3.3,2.4,5.2c0.5,1.9,0.7,3.8,0.4,5.7
			c-0.2,0.9-0.5,1.8-0.9,2.7c-0.4,0.9-0.9,1.7-1.5,2.4c0,0.1-0.1,0.1-0.2,0c0,0,0-0.1-0.1-0.1l0,0c-0.1-1-0.1-1.9,0-2.8
			c0-0.9,0-1.8,0.1-2.6c0-0.4,0-0.8,0-1.3c0-0.4,0.1-0.8,0.1-1.3l0.1-1.3l-0.1-1.3c-0.2-1.7-0.7-3.3-1.5-4.8c-0.8-1.5-2-2.8-3.5-3.8
			l0,0c-0.1,0-0.1-0.1,0-0.2C611.5,207.1,611.6,207.1,611.6,207.1z"/>
	</g>
	<circle fill="#9A9FA3" cx="661.8" cy="180.1" r="13.6"/>
	<circle fill="#6B6C6F" cx="661.8" cy="180.1" r="8.7"/>
	<path fill="#FFFFFF" d="M626.1,160.2l-80-68.8c-2.6-2.4-7.2-0.1-6.5,3.2c4.5,20.4,31.6,72.4,58.3,98.8
		C597.9,193.4,606.7,183.2,626.1,160.2z"/>
	<path fill="none" d="M819.2,90.1c3.8,3.3,8.1,6.4,11.9,9.4C827.6,96.1,823.5,93,819.2,90.1z"/>
	<polygon fill="#91929D" points="831.1,99.5 831.1,99.5 831.1,99.5 	"/>
	<path fill="#797A7D" d="M593.4,246c0,0,33.1-9.6,50.6-22.6c1.4-1.1,3.4,0.3,2.9,2c-2.8,10.1-12,31.8-40.2,41.3
		C606.7,266.7,595.4,257.4,593.4,246z"/>
	<rect x="735.8" y="319.5" fill="#2F8F6D" width="27.4" height="73"/>
	<path fill="#808285" d="M591.4,225.8c-0.1-0.8,0.3-1.8,1.5-2.9c2-1.8,8-3.9,9.1,1c0.8,3.6-0.6,5.1-3.2,5.3
		C596.5,229.4,591.7,228.2,591.4,225.8z"/>
</g>
<g>
</g>
<g>
</g>
<g>
</g>
<g>
</g>
<g>
</g>
<g>
</g>
<g>
</g>
<g>
</g>
<g>
</g>
<g>
</g>
<g>
</g>
<g>
</g>
<g>
</g>
<g>
</g>
<g>
</g>
</svg>
