<?xml version="1.0" encoding="utf-8"?>
<!-- Generator: Adobe Illustrator 18.0.0, SVG Export Plug-In . SVG Version: 6.00 Build 0)  -->
<!DOCTYPE svg PUBLIC "-//W3C//DTD SVG 1.1//EN" "http://www.w3.org/Graphics/SVG/1.1/DTD/svg11.dtd">
<svg version="1.1" id="Layer_1" xmlns="http://www.w3.org/2000/svg" xmlns:xlink="http://www.w3.org/1999/xlink" x="0px" y="0px"
	 viewBox="0 0 646.3 537.7" enable-background="new 0 0 646.3 537.7" xml:space="preserve">
<g>
	<path fill="#FFD25C" d="M193.8,23.4l408.9,273.8c58.6,39.2,57.9,123.4-1.1,162C491.1,531.7,313.9,598.6,153,443
		C37.6,331.5,2.8,217.8,0.1,125.3C-3,22.1,106.6-35,193.8,23.4z"/>
	<g>
		<polygon fill="#FFC235" points="540.7,485.7 541,484.7 538.8,485 		"/>
		<path fill="#FFC235" d="M525.9,476.5c-1.9,0.3-4.9-0.3-5.9,1.6l3.4-0.5c-0.4,1.6,1.3,2.3,3,2.6c-0.6-0.2-1.1-0.5-1.7-0.7
			c0.5,0,0.7-1,1.3-1c2.1,2,3.8,0.4,5.3,3.1l-0.2,0.1l2.3,0c0.4,0.5-0.2,1.1-0.5,1.2c2,0.2,3.7,0.1,5.8,1.4
			c-0.1-1.7-1.6-1.9-3.1-2.1c-1.5-0.2-3-0.3-3.1-2.1l0.2-0.1C530.1,479.9,528.5,476.9,525.9,476.5z"/>
		<path fill="#FFC235" d="M532.9,482.9c-0.1,0-0.1,0-0.2,0C532.7,483,532.8,483,532.9,482.9z"/>
		<path fill="#FFC235" d="M441.7,444.1l-0.2,0.4C441.6,444.4,441.8,444.3,441.7,444.1z"/>
		<path fill="#FFC235" d="M468.5,459l-0.1-0.1C468,459.4,468.1,459.3,468.5,459z"/>
		<path fill="#FFC235" d="M301.4,367.5l0-0.9C301.1,367.2,301.1,367.4,301.4,367.5z"/>
		<path fill="#FFC235" d="M273.1,339.9L273.1,339.9C273.1,339.9,273.1,339.9,273.1,339.9z"/>
		<path fill="#FFC235" d="M279.2,359.2l-0.4,0.5C279.1,359.5,279.2,359.3,279.2,359.2z"/>
		<path fill="#FFC235" d="M269.1,350.8c-0.1-0.4-0.3-0.7-0.5-1C268.5,350.2,268.7,350.6,269.1,350.8z"/>
		<path fill="#FFC235" d="M273.6,340.1c-0.2,0-0.3-0.1-0.5-0.1C273.3,340,273.4,340.1,273.6,340.1z"/>
		<path fill="#FFC235" d="M293,373.2l-0.7,1.5C292.7,374.3,292.8,373.7,293,373.2z"/>
		<path fill="#FFC235" d="M265.9,349.3c0.1-0.3,0-0.6-0.1-0.9C265.7,348.7,265.7,349.1,265.9,349.3z"/>
		<path fill="#FFC235" d="M523.4,475.5c0.4,0.1,0.8,0.3,1.3,0.4C524.3,475.5,523.9,475.5,523.4,475.5z"/>
		<path fill="#FFC235" d="M352.4,417.5c-0.2,0.1-0.3,0.2-0.5,0.4C352.2,417.9,352.3,417.7,352.4,417.5z"/>
		<path fill="#FFC235" d="M316.2,393.3l-0.1,0c0,0.1,0,0.2,0,0.3L316.2,393.3z"/>
		<path fill="#FFC235" d="M326.6,400.5c-0.1,0-0.2,0.1-0.3,0.2C326.5,400.6,326.6,400.5,326.6,400.5z"/>
		<path fill="#FFC235" d="M307.5,388.7c-0.2,0-0.4,0-0.7,0.1L307.5,388.7z"/>
		<path fill="#FFC235" d="M301.4,381.8c0,0.7-0.7,0.8-1.4,0.9c1.3,2,3.1,1,4.1,3.6l-0.4-1.3c1.9,0.1,4.3,1.6,4.5,3.6l-0.7,0.1
			c2-0.1,2.3,3.1,3.5,2.7c0-0.9,0.7-0.8,0.4-1.9l3.8,1.3l-1.1,1.8c0.7,0.2,1.3,0.4,2,0.6c0.1-0.9,1.7,2.1,3,0.5
			c0.4,1.3-1.4,1-2.2,1.4c1.3,0.2,0.8,0.9,2.4,0.6l-0.2,2.1l3.1,0.6c-0.2,0.1-0.2,0.3-0.4,0.3c2-0.5,2.2,2.7,5.1,1.5
			c-0.1,0-0.2,0.1-0.3,0.2c1.6-0.7,2.9,1.4,3.4,2.2c1.4,0.5,1.5-1.1,2-1.7c3.3,2.8,2.2,1.9,6.4,2.1c0.5,3.1-4.2,1.7-2.9,4.5
			c0.9-0.7,3.1-0.4,5.1,0.3c1.2,1.7,3.7,4,4.4,6.3l0.7-1.4c0.9,0.3,1.9,0.5,2.8,0.7l-2.5,1.1c0.7-0.2,2.4-0.3,3.6-0.5
			c3.2,0.3-0.3,3.6,2.8,2.8c0,0.2,0,0.4-0.1,0.5c1.2-0.6,2.6,0.7,4.7,1.4l-1.7,1.3l-1-1.1c-0.3,2,2.2,0.9,3.3,1.7
			c1.6,0.1,1.8-1.6,2.7-1.7c0.4,0.3,1.4,0.2,1.5,0.9c0.8,1.1-1,2-1.8,2.5c2-1.2,2.2-0.8,4.7-0.3c-0.4,0.9-0.7,1.1-1.1,1.2
			c0.6,0,1.2-0.1,1.8-0.7l0.2,1.4c1.6,2.7,4.2-1.8,6.8,0.2c-1.3,0.5,2.6,1.1,3,2.6c-1.2-0.2-0.8,2.7-2,3.5c2,1.8,2-1.5,4.1-1
			l-1.9,1.7c2.3,0,1.1-0.9,3.3-0.6c-0.8,0.4,0.5,1-0.9,1.1c2.4,1.4,1.8,0.9,3.9,2.2l1.2-2c0.8,0.1,0.7,1.2,0.7,1.6
			c-0.3-0.1-0.8-0.4-0.9-0.1c0,2.2,1.9-0.4,2.1,1.8c0.1-0.8,0.3-1.8,1.2-1.5c-0.9,1.1,0.8,1.8,0.6,2.4c-0.1-1.1,2.1,0.5,2.9-0.8
			c0.6,1.5-0.8,0.9-1.2,1.5c1.6-1.2,3.8,1.4,5.1,0.8c0,0.1,0,0.2-0.1,0.3c1.6-0.5,3.6,0,6.4-0.4l-1.3,0.9c2,1.5,2.5-2,4.4-1.1
			c-1.2,1.6,3.2,1.1,1.5,2.7c1.6-0.5,2.9-0.5,4.3-1.7c0.7,1.4-3,1.6-1.8,2.7l2-0.3l-0.1,1.1c0.4-0.7,1.8-0.2,1.9-0.8
			c-0.2,1.2,0.1,2.3-0.3,3.1c1.2,0.1,2.1,1.7,3.4,1l-0.1,0.6c1.8-1.7,3.3,0.7,4.6-1.3l0.2,1.4c1.6,0.4,2.2-2,3.1-2.3
			c0.7,0.1,1.5,0.2,2.1,0.6c-2.6,0.7,0.4,2.1,0.5,3c0.8,0.3,3.2,1,4.3,0.1c-1.4,0.8-1.1,1.9-2.9,1.4c0.1,2.5,2.8,0.4,4.7,1.4l-0.4,1
			c3,0.3,3.7-1.4,5.6-2.8c-0.1,1.4-0.5,1.6-1.7,2.6c1.6,1.4,4.8,1.5,6.9,2.3c0.4,1.1-0.3,1.5-1.1,1.6c2.5-0.3,4.8,1.8,6.9,0
			c-0.8,0.7,0.7,0.9,1.3,1.5c0.2-0.5,0.5-1,0.6-0.9c1.6-0.5,4.8-0.4,6.1,0.9l-0.8,0.5c3.5,1.5,6.3-1.8,9.7,1.1
			c0.5,0.7-1.3,1.6,0.1,2c1-0.6,1.3-2.4,3-1.3l-0.6,1.4l1.7-1.1c-0.2-1.4-2.4-1.6-0.5-2.5c1.2,1.9,1.9-0.9,3.3,1.3
			c-0.5,0-1.5,0.9-2,1.4c3.6,3.1,6.3,0.5,9.8,3.7c2.5-0.4,5.3,0.2,7.1-0.3c-0.6,1.4-1.1,2.7-2.5,3.5c1.7,0.8,3.7-2.2,4.2,0.4
			c1.6-1.7,5.4,0.5,6.9-2.1c-0.1,0.6,1.9,0.7-0.5,1.6c2.8,0,2.2,3.6,3.3,4c0.6,0.1,0-2,1.4-1.5c0.1,0.2,0.1,0.5,0.2,0.7l0.8-0.4
			c0.3,0.8-1.2,1.1-1.5,1.8c1.7,1.3,3.9-0.4,6.3,0.4l-0.6,0.3l2.3,1l-0.2,0.1l2.3-0.2l-0.4,0.7c0.5,0,0.8-0.4,1.5-0.3l-0.6,0.8
			c1.2-1.1,3.8-0.9,4.8-0.4l0,0.5l3.4-0.6c0.9,1.5-2.7,1.3,0.3,1.8l-1.5,1.5c2.2,0.1,2.1,1.2,3.7,1.2c-0.2-1.2-1.1-1.5-0.1-1.9
			c0.5,2.7,2.6,0.6,4.5,0.5c-0.8-0.3-1.2-0.6-2.2,0.2c-0.8-0.4,0.2-1.1-0.3-1.4l-1.6,0.5l0.3-1.3c-0.8,0-1.6,0.1-2.4,0.1
			c0.8-1.4-1.7-0.9-0.2-2.1c-1.6,0-1.9-1.3-3.8-0.4c-0.5-1.2,1.9-0.4,1-1c-5.9-1.2-11.3-3.6-16.8-6.2l0.8-0.4
			c-0.8,0.4-1.7,0.7-2.3,1c-0.5-1.5-3.7-4.3-5.8-2.6c-0.1-0.2,0.3-0.4,0.5-0.5c-2-0.4-4.8-3.1-7.6-3.8c-2,1.9-3.5-2.8-5.7,0l0.8-0.5
			c0.6,1.2-2.1,1.8-2.7,2.4c0-2.3,0.5-1.6,0.3-3.8l0.8,1.1l0.4-1.8c-4.9,3.2-5.7-4.1-8.9-1.6c0.2-0.1,0.2-0.4,0.4-0.5
			c-1.1-1.4-2.8,0.4-4.1,0.7c0.2-0.9,1.1-1.2,1.9-1.7c-2.3-1.5-7.2-0.5-9.5-2.7c-1.4,0.8-0.2,1.7-1.5,2.2c-0.7-0.6-1-1.7,0.2-2
			c-1.6-2.9-8.3-1.1-11.2-4.2c-2.3,0.7-1.3,1.6-4.5,1.5c1-0.6,0.3-3,2-2.5l0.5-0.8c-2.8-1.1-6.5-2.7-9-0.7c0.6-1.9-0.4-0.5-1.1-1.9
			c-0.5,0.1-0.1,0.3,0.1,0.5c-1.6,1.2-1.6-0.6-2.4-0.6l0.4-0.2l-2.5,0.4c-0.3-0.4-0.6-0.9-0.5-1.5l-0.5,1.3c-1.1-0.4,0.1-1.8-1.4-2
			l-0.1,1.1c-0.6-0.9-2.5-0.1-2.2-1.5c0.1-0.3,0.2-0.1,0.5,0c-0.6-2.4-3.7-0.6-5.1-2.2l-0.4,2.2c-1.9,0.1-0.8-0.8-0.5-1.5
			c-1.1-0.4-1-1.2-2.4-2c-0.9,0.2-0.7,0.6-1.1,1.1l-1.2-1.1l1.4-0.8c-3.5,2.1-5.4-2.5-8.1-0.4c-0.6-0.9,1.3-0.9,0.9-1.5
			c-2-2.4-6.7-0.6-8.2-3c-2.9-2.9-7.5-3.5-10.9-6.2l-0.2,0.6l-2.5-1.7c-1.4,0.9-2.9-0.7-4.8,0.2c0.3-0.4,0.4-1.1,0.8-1.3
			c-1.2-0.4-2.8-0.5-3.1-1.5l0.6-0.3c-2.4-1.6-5.9-3.4-7.7-3.2c-0.9-0.3-0.4-1.3-0.2-2c-1.4-0.8-2.7-0.8-4.3-0.7
			c-0.2-0.4-0.4-0.8-0.5-1.5l-1.3,1c-0.5-0.5,0.5-1.1,0.2-1.7c-3.2,0.3-4.9-2.6-6.5-3.4l-0.2,0.8c-0.9,0.1-1.7-1.5-0.5-1.7
			c-2.6-2.5-5.8-0.7-9.7-3.6c0.9-2.6-4.1-1.7-3.1-4.5c-2.2-0.4-2.6-2.2-4.7-1.5c0.1-0.3,0.1-0.5,0.4-0.3c0-1.4-2.7-2.2-4.9-2.7
			l0.4-0.8c-1.7,1.2-4.4-1.2-6.1-0.1c0.1-0.5,0.8-0.4,1.2-0.5c0.2-2.1-2-0.4-2.9-1.5c0.4-0.3,0.4-1,0.8-1.1
			c-1.2-2.2-3.7-3.5-6.4-4.9c-2.6-1.4-5.5-2.9-7.4-5.3c-1.3-1.1-0.8,2-2.5,0.5c0.1-1.1,2.1-0.9,1.3-2.1c-1.6,0.3-1.7-0.1-2.7-1
			c0.6-0.3,0.7-0.8,1.7-0.6c-0.1-1.1-3.5-0.9-3.6-3.1c-0.3,0.5-0.8,0.6-1.2,0.7c-2.9-0.1-2.9-4.6-3.6-4c0,0-0.8-0.3-0.4,0.3
			c-0.6-0.5-1.3-1.5-0.5-2.1c-0.7,0.1-1.5,0.5-2.1,0.1l1-0.6c-0.4-0.1-1.2,0.2-1.6,0l0,0.9c-0.1-1.3-3-0.9-1.5-2.4l0.3,0.2l-0.7-1.9
			c-1.1,0.2-2.3,0.4-2.9-0.6c1.2-1.9-2-2.3-2.9-3.5l0.6-0.5c-1.6,0-3.5-2.4-3.4-1.8c-0.8-0.8-1.6-2.2-0.7-2.3
			c-1-0.3-2.4-1.7-3.7-1.1c0-0.9,0-1.7,0-2.6c-2.8,1.2-1.9-3.3-4.1-1.3c-0.4-1.1,0.2-1.3,0.1-2.2c-2.1,0-3-1.2-3.9-2.5l0.2-0.2
			c-0.9-1.2-3.2-1.5-4.8-2.9l1.4-1.8c-1-0.6-2.5,0.4-2.8-0.7c0.1-0.4,0.3-0.3,0.6-0.2c-1-0.4-1.6-1.8-1.7-2.8
			c-2.3-0.1-2.7-1.4-5-1.3c0.7-2.2,1.9,0.8,2.6-1.2c-0.7-2.4-3.1-3.4-5.5-4.6c0.2-0.4,0.6-0.5,1.1-0.7c0,0-1.9-0.1-3.9,0.1
			c-2,0.2-4.2,0.6-4.7,1.6c-1.6,0.5-2.7,0.5-2.2,2.9c1.2,0,3.3,0.8,2.3,2.2l1.3-0.9c2.5,1.7-2.3,2.2,0.1,4.9l-0.1-0.9
			c0.5,0.4,1.6,0.2,1.7,1.1c-0.2,0.4-0.7,0.2-1.1,0.2l3.5,0.8c-0.6,0.7-1,0.9-2,0.9c1.8,1.9,1.8-2.2,3.5,0.5
			c-0.1,0.9-0.9,0.5-1.6,0.5c0,2,1.7,1.9,3.4,2.5c-1,0.9-1.6,0.1-1.4,1.6c0.4-0.7,1.2-1.6,1.9-1c-1.4,0.6,0,1,0.4,2
			c0.2-0.5,0.8-0.9,1.2-0.7c0.5,0.2,0.4,0.9,0.9,1.3l0.2-1.8c2.1,0.3,1.3,2.4,1.7,3.7c-0.3,0.1-0.5,0.1-0.8-0.1
			c0.5,1.4,0.7,3.1,2.8,3.4l-0.2,0c3.3,1.3,1-2.3,4.6-0.6c0.7,1-3.7,2.7-0.5,3.6c-0.1-1.8,3.4-0.7,4.9,0l-3.1,0.7
			c0.4,0.5,1.8,0.7,1.8,1.2l0.4-0.5c1.5-1.7,1.3,1.6,3.1,1.4c-3.3,1.2-2.9,0.8-5.3,2.8c2-0.4,4.1-0.7,5.4,1l-2.9,0.6
			c1.7,2.3,6.5,1.9,9.5,2c-1.7,0.9-1.4,2-3.2,2.4c0.7,0.5,1.5,1,2.2,1.5l-1.9,0.9c2.2-0.7,2.2,1,3.8-1c-0.5,0.1-0.6,0.3-1-0.1
			c0.6-0.5,2-1.4,3-0.4c0.3,1.1-1.1,0.4-1.4,1.1c1.4-0.2,0.3,1.1,1.5,1.1l0.1-1.4c1.5-0.7,1.2,0.9,2.4,1c-1.2-0.2-1.6,0.6-1.9,1.6
			l0.1-0.2c0.6,0.4,1.9,0.2,1.7,1.1l-1.8,1.2l1.8-0.5c0.1,0.4-0.2,1.1-0.9,1c1.5,2.9,2.9-3.3,4.6,0.6c-0.6,0.5-1.3,0.7-1.8-0.4
			c-1,0.8-1.3,1.6-0.7,2.6c0,0.1-0.1,0.1-0.1,0.2C297.4,380.2,299.4,381.9,301.4,381.8z"/>
		<path fill="#FFC235" d="M295.8,378.8c-0.8-0.7-1.5-1.3-2.1-1.4C293.6,377.8,295,379.8,295.8,378.8z"/>
		<path fill="#FFC235" d="M439.6,454.6c-0.2,0-0.3,0-0.5,0.1C439.3,454.7,439.5,454.7,439.6,454.6z"/>
		<path fill="#FFC235" d="M448.2,456.8c0-0.2-0.1-0.4-0.3-0.6C447.7,456.6,447.8,456.9,448.2,456.8z"/>
		<path fill="#FFC235" d="M363.7,423.3L363.7,423.3L363.7,423.3z"/>
		<path fill="#FFC235" d="M408.9,445c1-0.3,1.4-0.7,1.7-1.2C410.1,443.8,409.5,444.1,408.9,445z"/>
		<path fill="#FFC235" d="M393.6,437.8c-0.1,0-0.3,0.1-0.4,0.2C393.4,437.9,393.5,437.9,393.6,437.8z"/>
		<path fill="#FFC235" d="M360.9,422.9c1-0.2,1.9,0.3,2.8,0.4C362.9,423.3,362,422,360.9,422.9z"/>
		<polygon fill="#FFC235" points="459,457.9 457.9,458.6 459,458.2 		"/>
		<path fill="#FFC235" d="M451,456c-0.3-0.4-1.8-0.2-1.6,0.5C450,456.1,450.5,456.1,451,456z"/>
		<polygon fill="#FFC235" points="421.7,445.2 421,446.1 422,445.5 		"/>
	</g>
	<g>
		<polygon fill="#FFC235" points="446.6,490.2 446.6,489.2 445.5,490.4 		"/>
		<path fill="#FFC235" d="M437,488c-1,1-2.8,1.5-3.1,3.6l1.8-1.7c0,1.6,1.1,1.7,2,1.2l-1.1,0c0.3-0.2,0.3-1.2,0.6-1.4
			c1.5,1,2.2-1.2,3.4,0.8l-0.1,0.2l1.3-0.9c0.3,0.3,0.1,1-0.1,1.3c1.1-0.7,2-1.5,3.4-1.3c-0.7-3-3.3,1.9-4.1-1.1l0.1-0.2
			C439.8,489.4,438.5,487.3,437,488z"/>
		<path fill="#FFC235" d="M441.9,491l-0.1,0.1C441.8,491.2,441.8,491.1,441.9,491z"/>
		<path fill="#FFC235" d="M387.4,476.6l-0.2,0.4C387.4,476.9,387.5,476.7,387.4,476.6z"/>
		<path fill="#FFC235" d="M402.8,486.3L402.8,486.3C402.4,486.8,402.5,486.7,402.8,486.3z"/>
		<path fill="#FFC235" d="M300.8,444l0-0.8C300.6,443.8,300.6,444,300.8,444z"/>
		<path fill="#FFC235" d="M281.1,432.4L281.1,432.4C281.1,432.4,281.1,432.4,281.1,432.4z"/>
		<path fill="#FFC235" d="M285.4,445.5l-0.3,0.5C285.4,445.7,285.5,445.6,285.4,445.5z"/>
		<path fill="#FFC235" d="M278.3,442.7c-0.1-0.2-0.2-0.4-0.4-0.6C277.8,442.5,278,442.7,278.3,442.7z"/>
		<path fill="#FFC235" d="M281.5,432.3c-0.1,0.1-0.2,0.1-0.3,0.1C281.2,432.4,281.4,432.4,281.5,432.3z"/>
		<path fill="#FFC235" d="M294.9,451.9l-0.5,1.5C294.6,452.9,294.7,452.4,294.9,451.9z"/>
		<path fill="#FFC235" d="M276,442.9c0.1-0.3,0-0.5,0-0.7C275.8,442.5,275.8,442.7,276,442.9z"/>
		<path fill="#FFC235" d="M435.5,487.9c0.2,0,0.5,0,0.8-0.1C436,487.6,435.8,487.7,435.5,487.9z"/>
		<path fill="#FFC235" d="M333.1,471.1c-0.1,0.1-0.2,0.3-0.4,0.5C333,471.5,333,471.3,333.1,471.1z"/>
		<path fill="#FFC235" d="M310.2,460.8L310.2,460.8c-0.1,0.1-0.1,0.2-0.1,0.3L310.2,460.8z"/>
		<path fill="#FFC235" d="M316.9,463.7c-0.1,0.1-0.2,0.2-0.2,0.3C316.8,463.8,316.9,463.8,316.9,463.7z"/>
		<path fill="#FFC235" d="M304.4,459.9c-0.1,0.1-0.3,0.2-0.5,0.4L304.4,459.9z"/>
		<path fill="#FFC235" d="M300.4,456.1c0,0.6-0.5,0.9-1,1.3c0.8,1.3,2.1-0.3,2.7,1.5l-0.2-1c1.3-0.6,2.9-0.1,2.9,1.6l-0.5,0.3
			c1.3-0.7,1.5,1.9,2.3,1.1c0-0.8,0.5-0.9,0.3-1.8c0.8-0.1,1.7-0.1,2.5-0.2l-0.8,1.9l1.3-0.1c0.1-0.9,1.1,1.2,2-0.5
			c0.2,1-0.9,1.3-1.5,2c0.8-0.3,0.5,0.6,1.6-0.3l-0.2,1.9l2.1-0.5c-0.2,0.1-0.1,0.3-0.3,0.4c1.4-1.1,1.4,1.6,3.4-0.4
			c-0.1,0.1-0.1,0.2-0.2,0.3c1.1-1.1,1.8,0.4,2.1,0.9c0.9,0,1.1-1.5,1.4-2.1c2.1,1.4,1.4,1,4.2-0.2c0.2,2.6-2.9,2.8-2.1,4.9
			c0.7-0.9,2-1.3,3.4-1.2c0.7,1.2,2.2,2.5,2.6,4.3l0.5-1.4c0.6,0,1.2-0.1,1.8-0.2l-1.7,1.7c0.4-0.4,1.6-1,2.4-1.4
			c2.1-0.6-0.4,3.4,1.7,1.7c0,0.2,0,0.3-0.1,0.5c0.8-0.9,1.7-0.1,3-0.1l-1.2,1.6l-0.6-0.7c-0.3,1.9,1.4,0.2,2.1,0.6
			c1-0.3,1.2-1.9,1.9-2.3c0.2,0.2,0.9-0.2,0.9,0.4c0.4,0.8-0.8,2.1-1.3,2.8c1.3-1.6,1.4-1.3,3-1.5c-0.3,0.9-0.5,1.2-0.8,1.3
			c0.4-0.1,0.8-0.4,1.2-1.1l0,1.2c0.9,2,2.8-2.8,4.4-1.6c-0.9,0.8,1.6,0.3,1.7,1.7c-0.7,0.1-0.7,2.7-1.5,3.7
			c1.2,1.2,1.4-1.9,2.7-1.9l-1.3,2.1c1.5-0.6,0.7-1.1,2.1-1.4c-0.6,0.5,0.3,0.8-0.7,1.3c1.4,0.8,1.1,0.4,2.3,1.2l0.9-2.1
			c0.5-0.1,0.3,0.9,0.3,1.4c-0.2,0-0.5-0.2-0.5,0.1c-0.2,2.1,1.2-0.8,1.2,1.1c0.1-0.7,0.3-1.8,0.9-1.7c-0.7,1.3,0.4,1.5,0.2,2.1
			c0-1,1.3,0,1.9-1.5c0.3,1.2-0.6,1-0.9,1.7c1.1-1.5,2.3,0.5,3.1-0.3c0,0.1,0,0.2-0.1,0.3c1-0.8,2.2-0.7,4.1-1.8l-0.9,1.1
			c1.2,1,1.7-2.4,2.8-2c-0.8,1.7,1.9,0.4,0.7,2.3c1-0.8,1.9-1.1,2.8-2.5c0.3,1.2-2,2.1-1.3,2.9l1.3-0.7l-0.1,1
			c0.3-0.7,1.1-0.5,1.3-1.1c-0.2,1.2-0.1,2.1-0.4,3c0.7-0.2,1.2,1.2,2,0.3l-0.1,0.6c1.3-2,2,0.1,3-2.1l0,1.3c1,0.1,1.5-2.3,2.1-2.7
			c0.4,0,0.9-0.1,1.2,0.2c-1.6,1.1,0.1,1.9,0.1,2.8c0.5,0.2,1.9,0.3,2.6-0.7c-0.9,1-0.8,2-1.9,1.9c-0.1,2.4,1.7-0.1,2.8,0.5l-0.3,1
			c1.8-0.2,2.4-2,3.6-3.6c-0.2,1.3-0.4,1.6-1.2,2.8c0.9,1.1,2.8,0.7,4,1.1c0.1,1-0.3,1.5-0.8,1.8c1.5-0.6,2.8,0.9,4.2-1.1
			c-0.6,0.8,0.4,0.7,0.7,1.3c0.1-0.5,0.4-1.1,0.4-1c1-0.7,3-1.2,3.7-0.2l-0.5,0.6c2,0.9,3.9-2.8,5.8-0.6c0.3,0.6-0.9,1.8,0,1.9
			c0.6-0.8,0.9-2.5,1.8-1.8l-0.4,1.5l1.1-1.4c-0.1-1.3-1.4-1.1-0.2-2.3c0.6,1.6,1.2-1.2,1.9,0.7c-0.3,0.1-0.9,1.2-1.2,1.7
			c2.1,2.3,3.8-0.8,5.8,1.7c1.5-0.9,3.1-0.8,4.2-1.8c-0.4,1.5-0.6,2.8-1.5,3.9c1,0.4,2.2-2.9,2.5-0.6c0.9-2,3.2-0.8,4-3.6
			c-0.1,0.6,1.1,0.2-0.3,1.6c1.6-0.7,1.4,2.9,2.1,3c0.4,0-0.1-1.9,0.8-1.8c0.1,0.1,0.1,0.4,0.1,0.6l0.4-0.6c0.2,0.7-0.6,1.4-0.8,2.1
			c1.1,0.8,2.3-1.3,3.7-1.3l-0.3,0.5l1.4,0.3l-0.1,0.2l1.3-0.9l-0.2,0.7c0.3-0.2,0.4-0.6,0.8-0.7l-0.3,0.9c0.6-1.4,2.1-2,2.8-1.9
			l0.1,0.4l1.9-1.7c0.7,1.1-1.4,2.1,0.4,1.6l-0.7,1.8c1.3-0.6,1.3,0.5,2.2-0.1c-0.2-1-0.8-1-0.3-1.8c0.6,2.3,1.6-0.3,2.6-1.1
			c-0.5,0-0.8-0.1-1.2,1c-0.5-0.1,0-1-0.3-1.2l-0.8,1l0-1.3l-1.3,0.9c0.3-1.5-1-0.4-0.3-1.9c-0.9,0.5-1.2-0.6-2.2,0.8
			c-0.4-1,1-1,0.5-1.2c-3.4,0.8-6.7,0.1-9.9-1.1l0.4-0.6c-0.4,0.6-1,1.1-1.3,1.6c-0.3-1.3-2.2-3.3-3.4-1.1c-0.1-0.1,0.2-0.5,0.3-0.6
			c-1.2,0.1-2.8-1.9-4.5-2c-1.2,2.3-2-2-3.3,1.2l0.5-0.6c0.3,1-1.3,2.1-1.6,2.9c0-2.2,0.3-1.6,0.2-3.7l0.5,0.9l0.2-1.8
			c-3,4.1-3.2-2.8-5.2,0.2c0.1-0.2,0.2-0.4,0.3-0.6c-0.6-1.2-1.7,0.9-2.4,1.4c0.1-0.9,0.7-1.3,1.2-2c-1.3-1-4.3,0.8-5.5-1
			c-0.9,1-0.2,1.6-1,2.4c-0.4-0.4-0.5-1.5,0.2-1.9c-0.8-2.5-4.9,0.3-6.5-2.2c-1.4,1-0.9,1.8-2.8,2.2c0.6-0.7,0.4-2.9,1.4-2.8
			l0.4-0.9c-1.6-0.6-3.7-1.5-5.4,0.8c0.5-1.9-0.2-0.4-0.5-1.6c-0.3,0.1-0.1,0.3,0,0.4c-1.1,1.5-0.9-0.3-1.4-0.2l0.3-0.3l-1.5,0.9
			c-0.1-0.3-0.3-0.7-0.2-1.3l-0.4,1.3c-0.6-0.2,0.2-1.7-0.7-1.6l-0.1,1c-0.3-0.8-1.5,0.4-1.2-1.1c0.1-0.3,0.1-0.1,0.3-0.1
			c-0.2-2.2-2.2,0-2.9-1.2l-0.4,2.2c-1.2,0.4-0.4-0.6-0.2-1.3c-0.6-0.2-0.6-0.9-1.3-1.4c-0.6,0.4-0.5,0.7-0.8,1.3l-0.7-0.8l0.9-1
			c-2.3,2.7-3.2-1.3-5,1.2c-0.3-0.8,0.9-1.1,0.7-1.6c-1.1-1.9-4.1,0.9-4.9-1.1c-1.6-2.2-4.5-1.5-6.5-3.3l-0.2,0.6l-1.5-1
			c-0.9,1.1-1.8,0.1-3.1,1.3c0.2-0.4,0.3-1.2,0.6-1.4c-0.8-0.1-1.8,0.3-1.9-0.6l0.4-0.4c-1.4-0.9-3.5-1.7-4.8-1
			c-0.6-0.1-0.2-1.1,0-1.8c-0.9-0.4-1.7-0.1-2.8,0.5c-0.1-0.3-0.2-0.6-0.2-1.2l-0.9,1.2c-0.3-0.3,0.4-1.1,0.2-1.6
			c-2,1.1-3.1-1-4.1-1.3l-0.1,0.7c-0.6,0.4-1-0.9-0.2-1.4c-1.6-1.5-3.8,1-6.2-0.5c0.7-2.6-2.6-0.3-1.8-3.1c-1.4,0.2-1.6-1.2-3.1,0.1
			c0.1-0.3,0.1-0.4,0.3-0.4c0-1.2-1.7-1-3.1-0.8l0.3-0.8c-1.2,1.6-2.8,0.2-4,1.8c0.1-0.4,0.6-0.6,0.9-0.9c0.2-1.9-1.4,0.3-1.9-0.4
			c0.3-0.4,0.3-1,0.6-1.2c-0.7-1.5-2.4-1.8-4.1-2.2c-0.9-0.2-1.8-0.3-2.6-0.6c-0.8-0.3-1.6-0.7-2.2-1.4c-0.8-0.5-0.6,2-1.7,1.3
			c0.1-1,1.5-1.5,0.9-2.2c-1.1,0.8-1.1,0.5-1.8,0.1c0.4-0.5,0.5-0.9,1.2-1.1c0-0.9-2.4,0.5-2.4-1.3c-0.2,0.5-0.5,0.8-0.9,1
			c-2,0.9-1.9-2.8-2.4-2c0,0-0.5,0-0.3,0.4c-0.4-0.2-0.9-0.8-0.3-1.6c-0.5,0.3-1.1,1-1.4,0.9l0.7-0.9c-0.3,0.1-0.9,0.6-1.1,0.6
			l0,0.8c0-1.1-2.1,0.4-1-1.5l0.2,0l-0.4-1.3c-0.8,0.6-1.6,1.1-2,0.5c0.9-2.1-1.3-1.2-2-1.9l0.4-0.7c-1.1,0.6-2.4-0.6-2.3-0.1
			c-0.6-0.3-1.1-1.2-0.5-1.6c-0.7,0.1-1.7-0.5-2.6,0.5l0-2.1c-2,2.1-1.4-1.9-2.9,0.5c-0.3-0.7,0.2-1.2,0.1-1.8
			c-1.5,0.8-2.1,0.2-2.7-0.5l0.1-0.3c-0.6-0.6-2.3,0.1-3.4-0.4l1-2c-0.7-0.1-1.8,1.3-2,0.6c0.1-0.4,0.2-0.4,0.4-0.4
			c-0.7,0.1-1.1-0.8-1.2-1.5c-1.7,0.9-1.9,0-3.6,1c0.5-2,1.4-0.2,1.9-2c-0.5-1.6-2.3-1.3-4-1.3c0.1-0.4,0.5-0.6,0.8-1
			c0,0-1.4,0.7-2.8,1.7c-1.5,1-3,2.2-3.4,3.3c-1.1,1-2,1.5-1.6,3.2c0.8-0.5,2.4-0.8,1.7,0.7l0.9-1.3c1.8,0.3-1.6,2.7,0.1,3.8
			l-0.1-0.7c0.4,0.1,1.2-0.5,1.3,0.1c-0.1,0.4-0.5,0.5-0.8,0.7l2.6-0.9c-0.4,0.8-0.7,1.2-1.4,1.6c1.4,0.8,1.3-2.5,2.6-1
			c-0.1,0.8-0.6,0.7-1.1,1c0,1.6,1.2,0.9,2.4,0.6c-0.7,1.2-1.2,0.7-1,1.9c0.3-0.7,0.8-1.8,1.4-1.6c-1,1,0,0.9,0.3,1.4
			c0.2-0.5,0.5-1,0.9-1.1c0.3,0,0.3,0.5,0.6,0.7l0.1-1.5c1.5-0.6,0.9,1.3,1.2,2.2c-0.2,0.2-0.4,0.3-0.6,0.3c0.4,0.9,0.5,2.2,2,1.7
			l-0.2,0.1c2.3-0.3,0.7-2.3,3.2-2.3c0.5,0.6-2.6,3.7-0.4,3.1c-0.1-1.4,2.4-1.9,3.4-1.9l-2.2,1.8c0.3,0.2,1.3-0.1,1.3,0.2l0.3-0.5
			c1.1-2,0.9,0.9,2.2,0c-2.3,2.3-2,1.7-3.8,4.3c1.4-1.1,2.9-2.1,3.8-1.2l-2.1,1.6c1.1,1.2,4.6-0.9,6.7-2.1c-1.2,1.4-1,2.2-2.3,3.2
			l1.5,0.4l-1.3,1.5c1.5-1.4,1.5,0.1,2.6-2.2c-0.3,0.2-0.4,0.5-0.7,0.3c0.4-0.7,1.4-1.9,2.1-1.5c0.2,0.8-0.8,0.7-1,1.4
			c1-0.7,0.2,0.8,1,0.4l0.1-1.2c1-1.1,0.8,0.4,1.6,0c-0.9,0.3-1.1,1.1-1.3,2l0.1-0.2c0.4,0.1,1.3-0.6,1.1,0.3l-1.3,1.7l1.2-1.1
			c0.1,0.3-0.2,1-0.7,1.2c0.9,1.9,2.1-3.9,3.2-1.2c-0.4,0.7-0.9,1-1.2,0.3c-0.7,1-0.9,1.8-0.6,2.5c0,0.1-0.1,0.1-0.1,0.2
			C297.7,456.1,299.1,456.9,300.4,456.1z"/>
		<path fill="#FFC235" d="M296.7,455.6c-0.6-0.3-1-0.6-1.4-0.4C295.2,455.6,296.1,456.7,296.7,455.6z"/>
		<path fill="#FFC235" d="M385.5,487c-0.1,0-0.2,0.1-0.3,0.1C385.3,487.1,385.4,487.1,385.5,487z"/>
		<path fill="#FFC235" d="M390.6,487.7c0-0.2-0.1-0.4-0.1-0.5C390.3,487.5,390.3,487.9,390.6,487.7z"/>
		<path fill="#FFC235" d="M340.1,473.4L340.1,473.4L340.1,473.4z"/>
		<path fill="#FFC235" d="M367.3,483.2c0.6-0.5,1-1,1.1-1.5C368.1,481.8,367.7,482.2,367.3,483.2z"/>
		<path fill="#FFC235" d="M358.2,479.5c-0.1,0.1-0.2,0.1-0.3,0.2C358.1,479.7,358.2,479.6,358.2,479.5z"/>
		<path fill="#FFC235" d="M338.3,473.7c0.7-0.5,1.2-0.2,1.8-0.4C339.6,473.5,339.1,472.6,338.3,473.7z"/>
		<polygon fill="#FFC235" points="397.1,486.9 396.4,487.8 397.1,487.2 		"/>
		<path fill="#FFC235" d="M392.4,486.5c-0.1-0.3-1.1,0.1-1,0.7C391.7,486.8,392,486.6,392.4,486.5z"/>
		<polygon fill="#FFC235" points="375.2,481 374.6,482 375.3,481.3 		"/>
	</g>
	<g>
		<polygon fill="#FFC235" points="508.9,405.8 509.2,404.7 506.1,403.9 		"/>
		<path fill="#FFC235" d="M487.2,386.6c-2.8-0.8-7.1-3.4-8.5-1.8l4.9,1.5c-0.6,1.7,1.9,3.5,4.4,4.9l-2.5-1.9c0.8,0.3,1-0.8,1.8-0.4
			c3.1,3.6,5.5,2.7,7.7,6.8l-0.3,0l3.4,1.4c0.7,0.9-0.2,1.2-0.6,1.2c2.9,1.3,5.3,2.1,8.5,4.8c-0.6-4.3-8.6-4.1-9.1-8.3l0.3,0
			C493.3,393,490.9,388.6,487.2,386.6z"/>
		<path fill="#FFC235" d="M497.5,398.2c-0.1,0-0.2-0.1-0.3-0.1C497.2,398.2,497.3,398.2,497.5,398.2z"/>
		<path fill="#FFC235" d="M370.3,290l-0.4,0.3C370.2,290.2,370.5,290.3,370.3,290z"/>
		<path fill="#FFC235" d="M406.3,326.4c-0.1-0.1-0.1-0.1-0.2-0.2C405.5,326.5,405.7,326.5,406.3,326.4z"/>
		<path fill="#FFC235" d="M151,119.8l-0.4-1.1C150.4,119.3,150.6,119.6,151,119.8z"/>
		<path fill="#FFC235" d="M96.7,77.9l-0.1,0C96.6,77.8,96.7,77.8,96.7,77.9z"/>
		<path fill="#FFC235" d="M115.9,103.9l-0.3,0.6C115.9,104.2,116,104.1,115.9,103.9z"/>
		<path fill="#FFC235" d="M97.5,91.5c-0.4-0.5-0.8-0.9-1.3-1.3C96.3,90.6,96.9,91.2,97.5,91.5z"/>
		<path fill="#FFC235" d="M97.4,78.1c-0.2,0-0.5-0.1-0.7-0.2C96.9,78,97.2,78.1,97.4,78.1z"/>
		<path fill="#FFC235" d="M141.7,124.9l-0.3,1.7C141.7,126.3,141.7,125.6,141.7,124.9z"/>
		<path fill="#FFC235" d="M92.3,89.1c-0.1-0.4-0.3-0.8-0.6-1.1C91.7,88.4,91.9,88.8,92.3,89.1z"/>
		<path fill="#FFC235" d="M483.7,383.8c0.5,0.4,1.1,0.8,1.9,1.2C485,384.5,484.3,384.1,483.7,383.8z"/>
		<path fill="#FFC235" d="M239.6,202.2c-0.2,0-0.5,0.1-0.7,0.2C239.4,202.6,239.6,202.4,239.6,202.2z"/>
		<path fill="#FFC235" d="M182,157.3l-0.2-0.1c0,0.1,0,0.2,0.1,0.4L182,157.3z"/>
		<path fill="#FFC235" d="M199,170.1c-0.1,0-0.3,0-0.4,0.1C198.9,170.2,199,170.1,199,170.1z"/>
		<path fill="#FFC235" d="M168.1,148.7c-0.3-0.1-0.6-0.1-0.9,0L168.1,148.7z"/>
		<path fill="#FFC235" d="M156.9,138.1c0.2,0.9-0.7,0.8-1.6,0.8c2.6,2.9,4.8,2.2,7.2,5.7l-1-1.7c2.8,0.7,6.7,3.4,7.6,6l-0.9,0
			c2.7,0.5,4.4,4.7,5.9,4.5c-0.4-1.1,0.7-0.8-0.1-2.3l5.8,2.8l-1,1.9l3,1.5c-0.1-1.2,3.1,3.2,4.4,1.7c1,1.7-1.6,0.8-2.7,1
			c1.9,0.7,1.4,1.5,3.6,1.6l0.3,2.5l4.7,1.9c-0.3,0-0.1,0.3-0.4,0.3c2.7,0.1,3.9,4.1,7.8,3.8c-0.2,0-0.2,0.1-0.3,0.2
			c2.1-0.2,4.5,2.9,5.4,4c2.2,1.2,1.9-0.7,2.5-1.3c5.4,4.8,3.7,3.3,9.8,5.3c1.4,4-5.8,0.3-3.1,4.3c1.2-0.5,4.3,0.8,7.4,2.6
			c2.1,2.6,6.1,6.5,7.6,9.7l0.7-1.4l4.2,2.2l-3.5,0.1c0.9,0.1,3.4,0.7,5.1,1.1c4.6,1.9,0.1,4.2,4.5,4.8c0,0.2,0,0.4,0,0.6
			c1.7-0.2,3.9,2.1,7.1,4l-2.2,0.7l-1.6-1.8c-0.2,2.2,3.3,2.2,5,3.7c2.3,1,2.4-1,3.8-0.6c0.6,0.6,2,1,2.2,1.8
			c1.3,1.8-1.3,1.9-2.3,2.1c2.7-0.4,3,0.2,6.8,2.1c-0.4,0.9-0.9,1-1.5,0.8c0.8,0.3,1.7,0.5,2.6,0.1l0.4,1.7c2.6,4.1,5.9,0.1,9.9,3.9
			c-1.8-0.1,3.9,2.8,4.5,4.8c-1.7-0.9-1.1,2.8-2.8,2.9c3,3.3,2.9-0.7,6,1.2l-2.7,1c3.4,1.3,1.5-0.5,4.8,1.1
			c-1.2-0.1,0.8,1.5-1.3,0.8c3.5,3,2.7,2.1,5.7,4.8l1.8-1.6c1.2,0.6,1,1.7,1,2.3c-0.5-0.3-1.1-0.9-1.2-0.6c0,2.5,2.8,0.7,3,3.3
			c0.1-0.8,0.4-2,1.8-1c-1.3,0.8,1.2,2.6,0.9,3.1c-0.2-1.4,3.1,1.9,4.3,0.8c0.8,2-1.2,0.5-1.8,1c2.4-0.4,5.5,4,7.3,4.1
			c-0.1,0.1-0.1,0.3-0.1,0.3c2.3,0.4,5.2,2.3,9.4,3.6l-2,0.2c2.9,3,3.8-0.6,6.4,1.5c-1.8,1,4.5,3.4,2,4.1c2.3,0.4,4.3,1.4,6.4,1
			c0.8,2-4.6-0.3-2.8,1.8l2.9,1l-0.3,1.1c0.6-0.5,2.6,1,2.9,0.5c-0.4,1.2-0.1,2.6-0.8,3.3c1.7,0.9,2.9,3.4,4.8,3.5l-0.3,0.5
			c2.9-0.7,4.7,3.1,6.9,1.8l0.1,1.7c2.3,1.6,3.5-0.6,4.9-0.3c0.9,0.6,2.2,1.3,3,2.2c-3.8-1.1,0.3,2.6,0.3,3.7
			c1.1,0.9,4.5,3.4,6.2,3.2c-2.1-0.1-1.9,1.3-4.4-0.6c-0.2,2.8,4,2.5,6.6,4.9l-0.7,0.8c4.3,2.5,5.7,1.2,8.5,1.1
			c-0.4,1.4-1,1.4-3,1.5c2.1,2.7,6.7,5.2,9.5,7.7c0.3,1.5-0.7,1.4-1.9,0.9c3.7,1.6,6.6,5.5,10,5.2c-1.4,0.1,0.8,1.4,1.6,2.7
			c0.3-0.4,0.9-0.7,1-0.5c2.5,0.7,7.1,3.3,8.7,5.7l-1.2-0.1c4.7,4.3,9.5,2.9,13.8,8.6c0.6,1.2-2.3,0.7-0.2,2.2
			c1.5,0.1,2.4-1.5,4.6,0.9l-1.2,1l2.7,0.2c0-1.7-3.1-3.6-0.2-3.1c1.3,2.9,2.9,0.5,4.5,4c-0.7-0.4-2.3-0.1-3.2,0
			c4.5,6,9,5.3,13.6,11.5c3.7,1.4,7.6,4.2,10.3,5c-1.2,1.1-2.1,2.1-4.2,2c2.3,2.1,5.8,0.4,6,3.5c2.6-0.7,7.7,4.5,10.3,2.7
			c-0.3,0.5,2.6,2.2-1,1.3c4,2,2.7,5.6,4.3,6.8c0.9,0.6,0.2-2.2,2.3-0.7c0.2,0.3,0,0.6,0.2,0.9l1.2,0.1c0.3,1.2-1.8,0.4-2.4,1
			c2.4,2.7,5.7,2.4,9.1,4.9l-0.9-0.1l3.3,2.8l-0.3,0l3.4,1.4l-0.6,0.5c0.8,0.3,1.2,0.1,2.1,0.7l-0.9,0.5c1.8-0.4,5.5,1.5,7.1,2.8
			l0,0.6l4.9,1.5c1.3,2.4-4-0.3,0.4,2.3L472,379c3.2,1.6,3,2.8,5.3,3.8c-0.2-1.4-1.6-2.4-0.1-2.3c0.7,3.4,3.8,2.4,6.5,3.4
			c-1.1-0.8-1.8-1.4-3.2-1.1c-1.1-0.9,0.3-1.1-0.3-1.7l-2.3-0.4l0.4-1.4l-3.4-1.4c1.2-1-2.3-2.2-0.2-2.6c-2.3-1-2.7-2.7-5.4-2.9
			c-0.7-1.7,2.8,0.8,1.5-0.5c-8.3-5.1-15.9-11.6-23.4-18.4l1.2,0.1c-1.2-0.1-2.6-0.5-3.5-0.5c-0.5-2-4.6-7.4-7.9-7.1
			c-0.2-0.3,0.5-0.2,0.8-0.2c-2.8-1.9-6.4-7-10.3-9.8c-3.2,0.6-4.6-5.7-8.2-4.2l1.2,0.1c0.7,1.7-3.3,0.3-4.4,0.5
			c0.4-2.5,1-1.3,1.1-3.9l1,1.8l0.9-1.6c-7.7-0.3-7.4-8.7-12.6-8.5c0.3,0,0.4-0.3,0.7-0.2c-1.3-2.4-4.2-1.7-6-2.4
			c0.4-0.8,1.8-0.4,3-0.4c-3-3.3-10.4-6.1-13.2-10.2c-2.1-0.1-0.6,1.7-2.5,1.2c-1-1.2-1.2-2.6,0.7-1.9c-1.8-4.4-11.8-7.6-15.5-13.2
			c-3.5-1.1-2.3,0.7-6.9-1.9c1.5,0.1,1-3,3.4-1.2l0.9-0.5c-3.9-3.4-9.1-7.9-13-7.6c1.2-1.6-0.5-0.9-1.3-2.9c-0.8-0.3-0.1,0.3,0,0.6
			c-2.6,0.1-2.2-1.8-3.4-2.5l0.6,0l-3.7-1.4c-0.3-0.6-0.8-1.5-0.5-2l-0.9,1.1c-1.6-1.2,0.4-2-1.8-3.2l-0.3,1.1
			c-0.8-1.5-3.7-1.9-3-3.3c0.1-0.3,0.3,0,0.8,0.3c-0.6-3.1-5.5-3.4-7.2-6.1l-0.8,2.2c-2.8-1.3-1.1-1.5-0.5-2
			c-1.6-1.2-1.4-2.1-3.3-3.9c-1.4-0.4-1.1,0.2-1.8,0.5l-1.7-2.1l2.1,0.1c-5.3-0.1-7.9-6.7-11.9-6.1c-0.8-1.5,2-0.2,1.5-1
			c-2.9-4.1-9.9-5.1-12.1-8.9c-4.2-5.3-11.2-8.8-16.2-14.2l-0.3,0.5l-3.8-3.6c-2,0.2-4.4-2.5-7.1-2.7c0.4-0.3,0.5-1.1,1.2-1.1
			c-1.9-1.2-4.2-2.2-4.7-3.6l0.9,0.1c-3.6-3.3-9-7.6-11.8-8.3c-1.4-0.9-0.7-1.7-0.6-2.6c-2.2-1.8-4.1-2.5-6.5-3.2
			c-0.3-0.6-0.7-1.2-0.9-2l-1.8,0.5c-0.8-0.9,0.6-1.1,0.1-2c-4.6-1.4-7.7-5.8-10.2-7.6l-0.1,0.8c-1.4-0.4-2.7-2.7-1-2.3
			c-4.3-4.5-8.7-3.8-15-9.2c0.8-2.8-6.4-4-5.5-7.1c-3.3-1.6-4.3-3.9-7.3-4c0.1-0.3,0-0.6,0.4-0.3c-0.4-1.7-4.6-3.9-7.9-5.5l0.4-0.8
			c-2.2,0.7-6.7-3.4-9-2.7c0-0.6,1.1-0.2,1.7-0.2c-0.3-2.6-3.1-1.3-4.7-3.1c0.4-0.3,0.2-1.1,0.9-1.1c-4.9-6.4-16.2-10.7-23.5-18
			c-2.2-1.8-0.5,2.2-3.3-0.2c-0.2-1.4,2.7-0.4,1.1-2.2c-2.1-0.1-2.5-0.7-4.2-2.2c0.7-0.2,0.7-0.8,2.3-0.2c-0.5-1.4-5.4-2.2-6.5-5.1
			c-0.3,0.5-0.9,0.5-1.5,0.5c-4.2-1-6-6.8-6.9-6.2c0,0-1.2-0.6-0.4,0.3c-1.1-0.9-2.6-2.4-1.7-2.9c-0.9,0-2,0.2-2.9-0.4l1.2-0.5
			c-0.7-0.2-1.7-0.1-2.3-0.4l0.4,1.1c-0.7-1.7-4.7-1.9-3.3-3.5l0.5,0.3l-1.8-2.6c-1.5-0.1-3.1-0.1-4.5-1.6c0.8-2.2-3.9-3.5-5.8-5.3
			l0.6-0.5c-2.3-0.4-6.2-3.9-5.7-3.1c-1.6-1.2-3.4-3.2-2.2-3.2c-1.6-0.6-4.3-2.7-5.8-2.2l-1.4-3.4c-3.3,1-4.6-4.7-6.5-2.5
			c-1.2-1.5-0.4-1.7-1.1-2.9c-2.9-0.4-4.8-2.2-6.8-3.9l0.1-0.3c-1.9-1.8-5.3-2.5-8.3-4.6l0.8-2.2c-1.7-0.9-3.2,0.2-4.4-1.3
			c-0.1-0.5,0.3-0.4,0.7-0.2c-1.7-0.7-3.3-2.6-4-3.9c-3.2-0.4-4.5-2.1-7.6-2.3c-0.5-2.8,3.1,1.2,2.8-1.3c-2.5-3.2-6.4-4.8-10.5-6.6
			c0-0.6,0.6-0.5,1-0.8c0,0-10.4-1.1-10.4,1.6c-1.8,0.5-3.3,0.4-1.1,3.6c1.5,0.1,4.9,1.3,4.4,3l1.1-1.1c4.4,2.4-1.6,2.8,3.1,6.3
			l-0.7-1.2c1,0.6,2.3,0.4,3,1.5c0,0.6-0.7,0.2-1.4,0.2l5.3,1.3c-0.4,0.8-0.8,1.1-2.1,1c3.7,2.7,1-2.8,5.1,1
			c0.4,1.1-0.9,0.5-1.8,0.5c1.2,2.6,3.4,2.7,6,3.6c-0.8,1.1-2.1-0.1-0.9,1.9c0.1-0.8,0.6-1.9,2.1-1c-1.5,0.6,0.6,1.4,1.6,2.6
			c0-0.6,0.5-1,1.2-0.8c0.8,0.3,1,1.2,1.9,1.8l-0.7-2.3c3.1,0.7,3.1,3.2,4.4,5c-0.3,0.1-0.7,0-1.1-0.2c1.4,1.8,2.6,4.1,5.6,4.9
			l-0.3,0c5.1,2.2,0.1-2.8,5.9,0c1.5,1.5-3.6,2.9,1.2,4.5c-1-2.3,4.2-0.4,6.7,0.8l-3.9,0.4c0.9,0.7,2.8,1.2,3.1,1.8l0.3-0.6
			c1.3-1.9,2.6,2.4,5,2.5c-3.9,1-3.6,0.4-5.9,2.6c2.6-0.2,5.3-0.1,7.9,2.3l-3.8,0.1c3.4,3.2,9.9,3.8,14.2,4.6
			c-1.9,0.8-1.1,2.2-3.4,2.4l3.8,2.4l-2.2,0.8c2.7-0.4,3.4,1.8,4.8-0.4c-0.6,0-0.7,0.2-1.4-0.3c0.6-0.5,2.2-1.3,4,0.2
			c0.8,1.4-1.4,0.2-1.5,1.1c1.8,0.1,0.9,1.5,2.5,1.8l-0.4-1.7c1.8-0.5,2.1,1.5,3.7,1.8c-1.9-0.6-1.9,0.4-1.9,1.5l0-0.2
			c0.9,0.6,2.8,0.7,2.8,1.8l-2.1,1l2.3-0.2c0.3,0.6,0.2,1.4-0.9,1.1c3.3,4.1,2.7-3.6,6.8,2c-0.6,0.5-1.5,0.5-2.6-1
			c-1,0.8-1.1,1.6,0,3.1c0,0.1-0.1,0.1-0.1,0.2C150.7,134.9,154.2,137.8,156.9,138.1z"/>
		<path fill="#FFC235" d="M148,132.8c-1.5-1.1-2.7-2.1-3.5-2.3C144.5,131,147.2,133.8,148,132.8z"/>
		<path fill="#FFC235" d="M365.4,299.7c-0.2-0.1-0.4-0.2-0.7-0.3C365,299.6,365.2,299.7,365.4,299.7z"/>
		<path fill="#FFC235" d="M377.3,308.5c0-0.3-0.1-0.5-0.3-0.8C376.8,308,376.7,308.3,377.3,308.5z"/>
		<path fill="#FFC235" d="M256.8,214.9C256.8,214.9,256.8,214.9,256.8,214.9C256.8,214.9,256.8,214.9,256.8,214.9z"/>
		<path fill="#FFC235" d="M322.4,267.2c1.4,0.3,2.2,0.2,2.6-0.2C324.2,266.6,323.4,266.6,322.4,267.2z"/>
		<path fill="#FFC235" d="M300.7,249c-0.2,0-0.4-0.1-0.6-0.1C300.5,249.1,300.6,249.1,300.7,249z"/>
		<path fill="#FFC235" d="M252.6,213c1.4,0.2,2.8,1.4,4.1,1.9C255.6,214.5,254.2,212.5,252.6,213z"/>
		<polygon fill="#FFC235" points="392.8,318 391,317.9 392.7,318.3 		"/>
		<path fill="#FFC235" d="M381.6,309.9c-0.3-0.6-2.6-1.6-2.4-0.7C380.1,309.2,380.9,309.6,381.6,309.9z"/>
		<polygon fill="#FFC235" points="341,276.2 339.8,276.7 341.3,276.8 		"/>
	</g>
	<g>
		<polygon fill="#FFC235" points="186,291.8 186.5,290.9 185,291.4 		"/>
		<path fill="#FFC235" d="M178.9,285c-1.4,0.4-3.2-0.1-4.6,1.6l2.5-0.5c-0.9,1.4,0.1,2,1.1,2.1l-0.9-0.6c0.4,0,0.9-0.9,1.2-0.9
			c0.8,1.6,2.5,0.1,2.6,2.4l-0.2,0.1l1.6-0.1c0.1,0.4-0.5,0.9-0.7,1.1c1.4,0,2.6-0.3,3.6,0.7c1-3-3.9-0.1-3-3.1l0.2-0.1
			C180.6,287.7,180.5,285.2,178.9,285z"/>
		<path fill="#FFC235" d="M181.5,290.1l-0.1,0C181.3,290.2,181.4,290.2,181.5,290.1z"/>
		<path fill="#FFC235" d="M140,251.3l-0.4,0.3C139.8,251.5,140,251.4,140,251.3z"/>
		<path fill="#FFC235" d="M149.3,266.9C149.3,266.9,149.3,266.9,149.3,266.9C148.8,267.2,148.9,267.2,149.3,266.9z"/>
		<path fill="#FFC235" d="M71.6,187l0.3-0.7C71.5,186.8,71.5,187,71.6,187z"/>
		<path fill="#FFC235" d="M56.4,169.6L56.4,169.6C56.4,169.6,56.4,169.6,56.4,169.6z"/>
		<path fill="#FFC235" d="M56.5,183.4l-0.4,0.4C56.3,183.7,56.4,183.5,56.5,183.4z"/>
		<path fill="#FFC235" d="M50.5,178.6c0-0.3-0.1-0.5-0.2-0.7C50.1,178.3,50.2,178.5,50.5,178.6z"/>
		<path fill="#FFC235" d="M56.7,169.6c-0.1,0-0.2,0-0.3,0C56.5,169.6,56.6,169.6,56.7,169.6z"/>
		<path fill="#FFC235" d="M63.4,192.5l-1,1.3C62.8,193.4,63.1,193,63.4,192.5z"/>
		<path fill="#FFC235" d="M48.3,178.1c0.2-0.3,0.2-0.5,0.2-0.7C48.2,177.7,48.1,177.9,48.3,178.1z"/>
		<path fill="#FFC235" d="M177.6,284.2c0.2,0.1,0.4,0.2,0.7,0.3C178.2,284.2,177.9,284.1,177.6,284.2z"/>
		<path fill="#FFC235" d="M92.3,223.9c-0.2,0.1-0.3,0.2-0.5,0.3C92,224.3,92.1,224.1,92.3,223.9z"/>
		<path fill="#FFC235" d="M74.7,206.1L74.7,206.1c-0.1,0-0.2,0.1-0.2,0.2L74.7,206.1z"/>
		<path fill="#FFC235" d="M80,211.1c-0.1,0-0.2,0.1-0.3,0.2C79.9,211.2,80,211.2,80,211.1z"/>
		<path fill="#FFC235" d="M69.7,203.2c-0.2,0-0.3,0.1-0.6,0.2L69.7,203.2z"/>
		<path fill="#FFC235" d="M67.2,198.3c-0.3,0.5-0.8,0.7-1.4,0.9c0.4,1.5,2.1,0.5,2,2.4l0.1-1c1.5-0.1,2.8,0.9,2.2,2.5l-0.6,0.2
			c1.5-0.2,0.7,2.3,1.7,1.8c0.3-0.7,0.8-0.7,0.9-1.5l2.4,0.7l-1.4,1.6l1.3,0.3c0.4-0.8,0.6,1.5,2.1,0.2c-0.1,1-1.4,0.9-2.1,1.3
			c0.9,0,0.3,0.7,1.6,0.3l-0.9,1.7l2.1,0.3c-0.2,0.1-0.2,0.2-0.4,0.3c1.7-0.5,0.7,2,3.3,0.8c-0.1,0-0.2,0.1-0.3,0.2
			c1.4-0.6,1.6,1,1.7,1.6c0.9,0.4,1.5-1,2.1-1.5c1.4,2.1,0.9,1.4,4,1.4c-0.8,2.5-3.8,1.6-3.8,3.8c1-0.6,2.4-0.5,3.6,0.1
			c0.2,1.3,1.1,3.1,0.8,5l1-1.1l1.7,0.5l-2.2,0.9c0.6-0.2,1.8-0.3,2.7-0.5c2.1,0.2-1.7,3,0.9,2.2c-0.1,0.2-0.2,0.3-0.3,0.4
			c1.1-0.5,1.6,0.5,2.8,1.1l-1.7,1.1l-0.3-0.9c-1,1.6,1.2,0.7,1.7,1.3c1.1,0.1,1.9-1.3,2.6-1.4c0.2,0.3,0.9,0.2,0.7,0.7
			c0.1,0.9-1.6,1.7-2.3,2.1c1.9-1,1.8-0.6,3.4-0.2c-0.6,0.7-1,0.9-1.3,0.9c0.4,0,0.9-0.1,1.6-0.6l-0.4,1.1c0,2.2,3.7-1.5,4.7,0.2
			c-1.1,0.4,1.4,0.9,0.9,2.2c-0.7-0.2-1.8,2.2-2.9,2.8c0.6,1.5,2.1-1.2,3.3-0.7l-2.1,1.4c1.6,0.1,1.1-0.7,2.5-0.4
			c-0.7,0.3-0.1,0.8-1.1,0.9c1,1.2,0.8,0.8,1.7,2l1.7-1.6c0.5,0.1-0.1,1-0.3,1.4c-0.2-0.1-0.3-0.4-0.5-0.1c-1,1.8,1.5-0.2,0.6,1.5
			c0.4-0.6,1-1.5,1.5-1.2c-1.1,0.9-0.3,1.5-0.7,2c0.4-1,1.2,0.5,2.4-0.6c-0.3,1.2-0.9,0.7-1.5,1.2c1.7-0.9,1.9,1.4,3,1
			c-0.1,0.1-0.1,0.2-0.2,0.3c1.3-0.3,2.3,0.3,4.5,0l-1.3,0.7c0.6,1.4,2.6-1.5,3.4-0.7c-1.5,1.2,1.5,1.2-0.3,2.4
			c1.3-0.3,2.2-0.2,3.6-1.1c-0.2,1.2-2.7,1.1-2.4,2.1l1.4-0.1l-0.6,0.9c0.6-0.5,1.3,0,1.6-0.5c-0.7,1-1,1.9-1.7,2.6
			c0.7,0.1,0.6,1.6,1.7,1.1l-0.4,0.5c2-1.3,1.7,0.9,3.6-0.6l-0.6,1.2c0.9,0.5,2.4-1.4,3.1-1.6c0.3,0.2,0.9,0.3,1,0.7
			c-2,0.3-0.8,1.8-1.2,2.6c0.3,0.3,1.6,1.1,2.7,0.5c-1.3,0.5-1.7,1.5-2.5,0.9c-1.1,2.1,1.6,0.7,2.3,1.7l-0.7,0.8
			c1.8,0.6,3.1-0.8,4.9-1.7c-0.8,1.1-1.1,1.3-2.4,2c0.3,1.3,2.3,1.8,3.1,2.8c-0.3,1-0.9,1.2-1.5,1.2c1.7,0.1,2.1,2.1,4.3,0.8
			c-0.9,0.5,0,0.8,0.1,1.5c0.3-0.4,0.8-0.8,0.8-0.7c1.3-0.2,3.2,0.3,3.4,1.5l-0.7,0.3c1.4,1.7,4.8-0.7,5.5,2.1
			c0,0.7-1.6,1.2-0.9,1.7c0.9-0.4,2-1.8,2.5-0.8l-1.1,1.1l1.6-0.7c0.5-1.2-0.7-1.7,0.9-2.2c-0.2,1.7,1.6-0.5,1.4,1.5
			c-0.3-0.1-1.4,0.6-1.9,1c0.7,3,3.7,1.1,4.4,4.2c1.8-0.1,3.2,0.7,4.6,0.4c-1.1,1.1-2,2.2-3.2,2.8c0.7,0.8,3.4-1.5,2.5,0.7
			c1.8-1.3,3.2,0.8,5.4-1.3c-0.4,0.5,0.9,0.7-1.1,1.3c1.8,0.2-0.2,3.2,0.4,3.6c0.4,0.2,0.9-1.7,1.6-1.2c0,0.2-0.2,0.4-0.2,0.6
			l0.7-0.3c-0.2,0.7-1.2,0.9-1.8,1.5c0.6,1.2,2.7-0.1,3.9,0.7l-0.5,0.2l1.1,1L167,281l1.6-0.1l-0.5,0.6c0.4,0,0.7-0.3,1.1-0.2
			l-0.7,0.7c1.2-0.9,2.8-0.7,3.4-0.3l-0.2,0.4l2.5-0.5c0,1.3-2.3,1.1-0.5,1.6l-1.6,1.2c1.4,0.1,0.9,1.1,2,1.1c0.3-1-0.2-1.2,0.7-1.6
			c-0.7,2.3,1.5,0.5,2.8,0.3c-0.4-0.2-0.6-0.5-1.6,0.2c-0.4-0.3,0.5-0.9,0.3-1.2l-1.2,0.4l0.7-1.2l-1.6,0.1c1-1.2-0.7-0.8,0.7-1.8
			c-1.1,0-0.7-1.1-2.3-0.4c0.2-1.1,1.4-0.3,1.1-0.8c-3.4-1-5.9-3.3-8.3-5.9l0.7-0.3c-0.7,0.3-1.4,0.5-2,0.7c0.3-1.3-0.4-3.9-2.5-2.6
			c0-0.2,0.4-0.3,0.5-0.4c-1.1-0.5-1.6-3-3-3.9c-2.1,1.4-0.9-2.7-3.6-0.5l0.7-0.3c-0.2,1.1-2.1,1.3-2.9,1.8c1.1-2,1.1-1.3,2-3.2l0,1
			l1.1-1.5c-4.6,2.2-1.6-4-4.8-2.3c0.2-0.1,0.4-0.3,0.5-0.4c0-1.3-2,0-2.9,0.1c0.5-0.7,1.3-0.9,2-1.2c-0.7-1.5-4.2-1.3-4.5-3.4
			c-1.3,0.5-0.9,1.4-2,1.7c-0.2-0.6,0.2-1.6,1.1-1.6c0.4-2.6-4.6-1.9-4.9-4.9c-1.8,0.3-1.6,1.2-3.6,0.7c0.9-0.4,1.7-2.5,2.6-1.9
			l0.7-0.6c-1.2-1.3-2.7-3.1-5.3-1.7c1.3-1.5,0-0.5,0.2-1.7c-0.4,0-0.2,0.2-0.2,0.4c-1.6,0.8-0.7-0.7-1.2-0.8l0.4-0.2l-1.8,0.1
			c0-0.3,0-0.8,0.4-1.3l-0.9,1c-0.5-0.4,1-1.5,0.1-1.8l-0.6,0.9c0-0.8-1.6-0.3-0.6-1.5c0.2-0.2,0.2-0.1,0.4,0
			c0.8-2.1-2.1-0.9-2.2-2.3l-1.3,1.8c-1.2-0.2-0.1-0.7,0.4-1.3c-0.5-0.4-0.1-1.1-0.6-1.8c-0.7,0.1-0.7,0.5-1.3,0.8l-0.3-1l1.3-0.5
			c-3.3,1.4-2.4-2.6-5.1-1c0-0.8,1.3-0.7,1.3-1.1c-0.2-2.2-4.2-0.9-4.1-3.1c-0.5-2.7-3.5-3.3-4.6-5.7l-0.4,0.5l-0.9-1.6
			c-1.3,0.6-1.7-0.6-3.4,0c0.4-0.3,0.8-0.9,1.2-1.1c-0.7-0.4-1.7-0.5-1.5-1.4l0.5-0.2c-1-1.4-2.6-3-4.1-2.8c-0.5-0.3,0.3-1,0.7-1.7
			c-0.6-0.7-1.5-0.7-2.8-0.6c0-0.3,0.1-0.7,0.3-1.2l-1.3,0.8c-0.1-0.4,0.8-0.9,0.8-1.4c-2.3,0.2-2.5-2.1-3.3-2.8l-0.4,0.6
			c-0.7,0.1-0.6-1.2,0.3-1.4c-0.9-2.1-3.9-0.5-5.6-2.8c1.7-2.1-2.4-1.2-0.5-3.6c-1.4-0.3-1.1-1.7-2.9-1.1c0.2-0.2,0.2-0.4,0.4-0.3
			c0.5-1.1-1.3-1.6-2.7-1.9l0.6-0.7c-1.7,1-2.8-0.8-4.5,0.2c0.2-0.4,0.8-0.4,1.1-0.5c0.9-1.7-1.4-0.2-1.7-1c0.4-0.3,0.6-0.8,1-1
			c-0.3-3.3-5.7-3.6-7-7.1c-0.6-0.7-1.3,1.6-2.1,0.6c0.5-0.9,1.9-0.9,1.7-1.8c-1.3,0.4-1.3,0.1-1.7-0.6c0.6-0.3,0.8-0.7,1.5-0.6
			c0.3-0.9-2.5-0.3-1.9-2.1c-0.4,0.4-0.8,0.6-1.2,0.7c-2.2,0.2-0.8-3.3-1.6-2.8c0,0-0.5-0.2-0.4,0.3c-0.3-0.4-0.6-1.1,0.2-1.6
			c-0.6,0.2-1.3,0.6-1.7,0.3l1-0.6c-0.3,0-1,0.3-1.3,0.2l-0.3,0.7c0.3-1-2.1-0.3-0.5-1.7l0.2,0.1l0-1.4c-0.9,0.3-1.9,0.6-2.1-0.1
			c1.5-1.7-0.8-1.6-1.3-2.4l0.6-0.5c-1.3,0.2-2.1-1.4-2.2-0.9c-0.5-0.5-0.7-1.5,0.1-1.7c-0.7-0.1-1.5-1-2.6-0.3l0.7-2
			c-2.6,1.3-0.7-2.3-3-0.4c-0.1-0.8,0.5-1.1,0.6-1.7c-1.7,0.3-2.1-0.5-2.5-1.3l0.2-0.2c-0.4-0.8-2.2-0.6-3.2-1.4l1.5-1.7
			c-0.7-0.3-2.1,0.7-2.2,0c0.2-0.3,0.3-0.3,0.6-0.3c-0.7-0.2-0.8-1.1-0.7-1.8c-1.9,0.3-1.9-0.6-3.8-0.1c1-1.8,1.4,0.2,2.4-1.4
			c-0.1-1.7-1.8-2-3.5-2.4c0.2-0.4,0.6-0.5,1-0.7c0,0-6.1,1.2-7.4,3c-1.4,0.7-2.3,0.9-2.5,2.6c1-0.2,2.6,0,1.4,1.2l1.3-0.9
			c1.7,0.8-2.4,2.2-1,3.7l0.1-0.7c0.3,0.2,1.3-0.2,1.2,0.5c-0.2,0.4-0.6,0.3-1,0.4l2.7-0.1c-0.7,0.6-1.1,0.9-1.8,1.1
			c1.1,1.1,2-2.1,2.8-0.3c-0.3,0.7-0.8,0.5-1.4,0.7c-0.4,1.5,0.9,1.2,2.1,1.3c-1.1,0.9-1.3,0.4-1.5,1.5c0.5-0.6,1.3-1.4,1.8-1.1
			c-1.3,0.7-0.3,0.8-0.2,1.5c0.3-0.4,0.8-0.8,1.2-0.8c0.3,0.1,0.1,0.6,0.4,0.8l0.6-1.4c1.7-0.1,0.5,1.6,0.5,2.5
			c-0.2,0.1-0.5,0.1-0.6,0.1c0.1,0.9-0.2,2.3,1.3,2.2l-0.2,0.1c2.3,0.5,1.4-1.9,3.8-1.2c0.3,0.7-3.7,2.7-1.4,2.9
			c0.4-1.4,2.9-1.1,3.9-0.8l-2.7,1.1c0.2,0.3,1.2,0.3,1.2,0.6l0.4-0.4c1.7-1.6,0.6,1.1,2.1,0.7c-2.9,1.4-2.5,1-5,2.9
			c1.7-0.6,3.4-1.1,4,0l-2.5,0.9c0.7,1.5,4.6,0.6,7,0.2c-1.6,0.9-1.7,1.7-3.2,2.3l1.3,0.9l-1.8,1c1.9-0.9,1.4,0.5,3.2-1.3
			c-0.4,0.1-0.6,0.3-0.7,0.1c0.6-0.5,2-1.4,2.5-0.7c-0.1,0.8-1,0.4-1.4,1c1.1-0.3-0.1,0.8,0.8,0.7l0.5-1.1c1.4-0.7,0.6,0.6,1.6,0.5
			c-0.9,0-1.4,0.7-1.9,1.5l0.1-0.2c0.3,0.2,1.5-0.1,1,0.7l-1.8,1.1l1.5-0.6c0,0.3-0.5,0.9-1,0.9c0.2,2.1,3.3-3,3.4-0.1
			c-0.6,0.5-1.2,0.7-1.3-0.1c-1,0.8-1.5,1.4-1.4,2.1c-0.1,0.1-0.1,0.1-0.2,0.2C64.6,197.5,65.6,198.7,67.2,198.3z"/>
		<path fill="#FFC235" d="M63.8,196.6c-0.4-0.5-0.8-0.9-1.2-0.9C62.4,196.1,62.9,197.5,63.8,196.6z"/>
		<path fill="#FFC235" d="M133.5,259.8c-0.1,0-0.2,0-0.3,0C133.3,259.8,133.4,259.8,133.5,259.8z"/>
		<path fill="#FFC235" d="M137.7,262.6c0.1-0.2,0.1-0.4,0.1-0.5C137.6,262.4,137.4,262.7,137.7,262.6z"/>
		<path fill="#FFC235" d="M97.9,228.6L97.9,228.6L97.9,228.6z"/>
		<path fill="#FFC235" d="M118.7,248.6c0.8-0.2,1.3-0.5,1.7-0.9C120,247.6,119.5,247.8,118.7,248.6z"/>
		<path fill="#FFC235" d="M112,241.5c-0.1,0-0.2,0.1-0.4,0.1C111.9,241.6,112,241.5,112,241.5z"/>
		<path fill="#FFC235" d="M96.1,228.3c0.8-0.2,1.2,0.3,1.8,0.3C97.3,228.6,97.2,227.6,96.1,228.3z"/>
		<polygon fill="#FFC235" points="144,264.9 142.9,265.3 143.8,265.1 		"/>
		<path fill="#FFC235" d="M139.9,262.4c0-0.3-1.1-0.4-1.3,0.2C139.2,262.3,139.5,262.3,139.9,262.4z"/>
		<polygon fill="#FFC235" points="126.9,249.9 125.9,250.6 126.8,250.2 		"/>
	</g>
	<g>
		<polygon fill="#FFC235" points="256.5,463.9 257.3,464.5 256.4,463.5 		"/>
		<path fill="#FFC235" d="M258.7,462.8c-0.8-0.8-1.2-1.5-2.9-2.8l1.4,1.4c-1.4-0.9-1.4-0.7-1.1-0.2l0.1-0.2c0.1,0.2,1,0.8,1.2,0.9
			c-0.9-0.2,0.9,1.2-0.8,0.4l-0.1-0.1l0.7,0.8c-0.2-0.1-0.9-0.6-1.1-0.8c0.6,0.7,1.2,1.4,0.9,1.6c2.6,1.6-1.5-1.9,1.1-0.3l0.1,0.1
			C257.4,462.7,259.1,463.6,258.7,462.8z"/>
		<path fill="#FFC235" d="M255.9,462.3L255.9,462.3C255.8,462.2,255.9,462.2,255.9,462.3z"/>
		<path fill="#FFC235" d="M266.8,454.7l-0.4-0.3C266.5,454.6,266.7,454.7,266.8,454.7z"/>
		<path fill="#FFC235" d="M259.6,454.5C259.6,454.5,259.7,454.5,259.6,454.5C259.1,454.1,259.3,454.2,259.6,454.5z"/>
		<path fill="#FFC235" d="M277.2,437l0.6,0.3C277.3,436.9,277.1,436.9,277.2,437z"/>
		<path fill="#FFC235" d="M280.2,432.8L280.2,432.8L280.2,432.8z"/>
		<path fill="#FFC235" d="M270.8,430.4l-0.5-0.3C270.6,430.3,270.8,430.4,270.8,430.4z"/>
		<path fill="#FFC235" d="M270.5,428.5c0.2,0,0.3,0,0.3,0C270.5,428.4,270.4,428.4,270.5,428.5z"/>
		<path fill="#FFC235" d="M280.4,432.9c-0.1-0.1-0.2-0.1-0.2-0.2C280.2,432.8,280.3,432.9,280.4,432.9z"/>
		<path fill="#FFC235" d="M268.7,432l-1.4-0.7C267.7,431.5,268.2,431.8,268.7,432z"/>
		<path fill="#FFC235" d="M269.6,427.6c0.3,0.1,0.4,0.2,0.5,0.2C269.9,427.6,269.6,427.5,269.6,427.6z"/>
		<path fill="#FFC235" d="M258.8,462.5c0,0,0,0.1,0.1,0.3C259,462.8,258.9,462.7,258.8,462.5z"/>
		<path fill="#FFC235" d="M262.9,438.9c-0.1-0.1-0.3-0.2-0.5-0.3C262.5,438.7,262.6,438.8,262.9,438.9z"/>
		<path fill="#FFC235" d="M265.8,434.6L265.8,434.6c-0.1-0.1-0.2-0.1-0.3-0.1L265.8,434.6z"/>
		<path fill="#FFC235" d="M265.2,436c-0.1-0.1-0.2-0.1-0.3-0.2C265.1,435.9,265.2,436,265.2,436z"/>
		<path fill="#FFC235" d="M264.9,432.8c-0.1-0.1-0.2-0.2-0.4-0.3L264.9,432.8z"/>
		<path fill="#FFC235" d="M266.9,432.6c-0.5-0.2-1-0.5-1.4-0.8c-0.8-0.1,0.9,0.9-0.5,0.5l0.7,0.3c0.9,0.7,1,1.1-0.4,0.5l-0.4-0.3
			c1,0.8-1.2-0.1-0.3,0.4c0.6,0.3,0.9,0.5,1.6,0.8l0.9,1l-1.9-1l0.5,0.5c0.8,0.4-0.7-0.1,1,0.9c-0.7-0.3-1.4-0.8-2.1-1.3
			c0.5,0.4-0.3,0,0.7,0.7l-1.7-0.8l1,1c-0.1-0.1-0.3-0.1-0.4-0.2c1.3,0.9-1-0.1,1.3,1.4c-0.1-0.1-0.2-0.1-0.3-0.2
			c1.2,0.8,0.2,0.5-0.2,0.5c0.2,0.3,1.5,1,2.2,1.4c-0.7,0.2-0.5,0.1,1.2,1.6c-2.2-1-3.1-2.2-4.7-2.7c1,0.6,1.6,1.3,1.9,1.7
			c-0.8-0.2-1.6-0.2-3.1-0.8l1.3,0.8l0.6,0.7l-1.8-1.3c0.4,0.3,1.2,0.9,1.8,1.4c1,1-3-1.5-1.1-0.1c-0.1-0.1-0.3-0.2-0.4-0.2
			c1,0.7,0.5,0.6,0.7,1.1l-1.6-1.1l0.4,0.1c-1.7-0.9,0.1,0.4-0.1,0.5c0.5,0.5,1.9,1.2,2.4,1.6c-0.1,0,0.3,0.4-0.2,0.1
			c-0.6-0.2-2-1.2-2.7-1.6c1.7,1.1,1.4,1,2,1.7c-0.8-0.5-1.2-0.7-1.3-0.8c0.2,0.2,0.5,0.4,1.2,0.9l-1-0.5c-1.6-0.6,2.9,2.2,2.2,2.2
			c-0.8-0.6,0,0.4-1.1-0.1c-0.2-0.3-2.5-1.4-3.5-2.1c-0.8-0.1,1.9,1.3,2.2,1.8l-2-1.4c0.8,0.8,1.1,0.7,1.6,1.3
			c-0.6-0.4-0.6-0.2-1.2-0.8c-0.4,0.2-0.2,0.2-0.5,0.3l2,1.3c0.2,0.2-0.7-0.3-1.1-0.5c0-0.1,0.1-0.1-0.2-0.2c-1.8-1,0.9,0.8-0.8-0.1
			c0.7,0.4,1.6,0.9,1.6,1.1c-1.2-0.8-1.2-0.5-1.8-0.9c0.9,0.5,0.3,0.5,1.6,1.3c-1-0.5-0.9-0.6-1.6-1.1c1.5,1.1,0,0.5,0.8,1.2
			c-0.1-0.1-0.2-0.1-0.3-0.2c0.9,0.7,1,1.1,2.2,2.2l-1.1-0.8c-0.7-0.1,2.3,1.7,2.2,1.9c-1.6-1.1-0.1,0.4-1.8-0.8
			c0.9,0.7,1.2,1.1,2.5,2.1c-1-0.5-2.1-1.6-2.7-1.8l0.7,0.7l-0.9-0.5c0.7,0.4,0.6,0.6,1.1,0.9c-1.1-0.6-1.9-1-2.7-1.6
			c0.2,0.3-0.9-0.2,0,0.5l-0.5-0.3c1.9,1.4,0.2,0.6,2.2,1.9l-1.1-0.6c0.1,0.3,2.2,1.6,2.6,2c0,0.1,0.2,0.3,0,0.3
			c-1.2-1.1-1.6-0.9-2.4-1.3c-0.1,0.1-0.1,0.4,0.9,1.1c-1-0.8-1.8-1.2-1.8-1.5c-2-1.2,0.3,0.6-0.1,0.6l-0.9-0.6
			c0.4,0.7,2,1.7,3.5,2.9c-1.2-0.7-1.4-0.9-2.5-1.8c-0.8-0.2-0.3,0.6-0.5,0.7c-0.8-0.5-1.3-0.8-1.6-1.1c0.7,0.8-0.5,0.4,1.4,1.8
			c-0.8-0.6-0.6-0.3-1-0.4c0.4,0.3,0.9,0.6,0.9,0.6c0.7,0.7,1.2,1.5,0.4,1.2l-0.5-0.4c-0.6,0.2,2.7,2.6,1,2c-0.5-0.2-1.6-1.2-1.6-1
			c0.7,0.6,2.2,1.6,1.7,1.5l-1.3-0.9l1.2,1c1.1,0.7,0.9,0.2,2,1.2c-1.3-0.6,1.1,1-0.5,0.2c-0.1-0.1-1-0.9-1.5-1.3
			c-1.8-0.6,0.8,1.5-1.1,0.8c0.9,0.9,0.9,1.3,1.7,2.1c-1.3-0.9-2.4-1.7-3.4-2.5c-0.3,0.1,2.5,2.2,0.6,1c1.7,1.3,0.7,1.3,3.2,3.1
			c-0.5-0.3-0.2,0.2-1.4-1c0.6,0.8-2.4-1.2-2.5-1c0,0.1,1.6,1,1.6,1.2c-0.1-0.1-0.4-0.2-0.5-0.3l0.5,0.5c-0.6-0.3-1.2-0.9-1.8-1.4
			c-0.7-0.2,1.2,1.3,1.1,1.7l-0.4-0.3l-0.3,0.2l-0.1-0.1l0.7,0.8l-0.6-0.5c0.1,0.2,0.5,0.5,0.6,0.6l-0.8-0.6
			c1.2,0.9,1.6,1.6,1.6,1.8l-0.4-0.2l1.4,1.4c-1-0.5-1.7-1.5-1.3-0.8l-1.5-1.2c0.5,0.7-0.4,0.1,0,0.6c0.9,0.5,0.8,0.3,1.5,0.9
			c-1.9-1.1,0.3,0.6,0.9,1.3c0-0.1,0.1-0.1-0.8-0.9c0.1-0.1,0.9,0.6,1,0.6l-0.8-0.8l1.1,0.7l-0.7-0.8c1.3,0.9,0.3-0.1,1.6,1
			c-0.4-0.5,0.5,0-0.6-1c0.8,0.5,0.8,0.8,1,0.8c-0.6-1.3,0-1.8,0.9-2.1l0.5,0.5c-0.5-0.5-1-0.9-1.4-1.2c1.1,0.6,2.7,1.1,0.9-0.3
			c0.1,0.1,0.4,0.3,0.5,0.4c-0.1-0.4,1.5,0.2,1.6-0.2c-2-1.5,1.6,0.4-1.1-1.6l0.5,0.5c-0.8-0.4-1.8-1.5-2.5-2c1.9,1.2,1.4,1,3.2,2
			l-0.7-0.3l1.5,1c-3.6-3,2.3,0.5-0.4-1.6c0.1,0.1,0.4,0.3,0.5,0.4c1,0.4-0.9-1-1.3-1.4c0.8,0.5,1.2,0.9,1.7,1.3
			c0.8,0.1-1-1.7,0.5-1.2c-1-0.8-1.4-0.9-2.1-1.5c0.3,0.1,1.2,0.6,1.7,1c2.1,1-0.6-1.7,1.4-0.9c-1-1-1.6-1.2-2.1-2
			c0.7,0.6,2.6,1.6,2.5,1.8l0.8,0.5c0.4-0.2,1-0.5-1.2-2.1c1.7,1.1,0.4,0.2,1.4,0.6c-0.2-0.2-0.3-0.2-0.4-0.2c-1.4-1,0.2-0.1,0-0.4
			l0.3,0.2l-0.9-0.9c0.2,0.1,0.6,0.3,1.1,0.6l-1.2-0.8c0.1-0.1,1.5,0.9,1.3,0.6l-0.9-0.5c0.6,0.3-0.5-0.7,0.8,0.1
			c0.3,0.2,0.1,0.1,0.2,0.2c1.9,1-0.3-0.8,0.6-0.4l-1.9-1.2c-0.5-0.6,0.5,0.1,1.1,0.6c0.1-0.1,0.7,0.2,1,0.2
			c-0.4-0.4-0.7-0.5-1.2-0.9l0.6,0.1l1,0.8c-2.6-2,0.7-0.4-1.7-2.2c0.6,0.2,1.1,0.8,1.5,1c1.4,0.5-1.4-1.8,0.2-1.2
			c1.6,0.4,0.6-0.9,1.8-0.7l-0.5-0.3l0.6-0.1c-1.1-0.8-0.4-0.7-1.7-1.7c0.4,0.3,1.1,0.6,1.3,0.8c-0.1-0.2-0.5-0.7,0.2-0.4l0.4,0.3
			c0.5-0.1,0.8-0.5-0.1-1.3c-0.1-0.2,0.9,0.4,1.5,0.7c0.2-0.1-0.3-0.6-1-1.2c0.2,0.1,0.5,0.2,1,0.4l-1.2-0.8c0.2,0,1.1,0.6,1.4,0.7
			c-1.3-1.2,0.2-0.7,0.2-1l-0.7-0.3c-0.4-0.4,0.5,0,1.1,0.5c1,0.1-1.6-1.8-1-2.1c2.4,1.3-0.4-0.9,2.3,0.6c-0.5-0.6,0.6-0.1-0.8-1.2
			c0.3,0.1,0.4,0.2,0.4,0.3c1,0.5,0.5-0.3-0.1-0.9l0.8,0.4c-1.7-1.1-0.9-1.2-2.6-2.2c0.4,0.2,0.7,0.5,1,0.7c1.7,0.8-0.7-0.6-0.2-0.6
			c0.4,0.3,0.9,0.5,1.2,0.7c2.2,0.5-0.5-2,1.1-1.9c0.2-0.1-1.9-0.9-1.6-1.1c0.9,0.4,1.7,1.1,2.2,1.2c-1-0.7-0.8-0.6-0.6-0.7
			c0.6,0.3,1,0.5,1.3,0.9c0.8,0.3-1.2-1.1,0.4-0.5c-0.5-0.3-0.8-0.5-1.1-0.7c-1.4-1.1,1.9,0.3,1-0.2c0,0-0.2-0.2-0.4-0.2
			c0.1-0.1,0.4-0.1,1.3,0.4c-0.4-0.3-1.1-0.7-1.2-0.9l1,0.6c-0.2-0.2-0.8-0.6-0.9-0.7l-0.6-0.3c0.9,0.3-1-1,0.9,0.1l0,0.1l1,0.3
			c-0.7-0.5-1.5-1-1.1-1c2,1,0.6-0.1,0.9-0.2l0.7,0.4c-0.9-0.7-0.3-0.8-0.6-0.9c0.1-0.1,0.6,0,1.2,0.3c-0.3-0.3-0.2-0.5-1.3-1.2
			l1.8,0.7c-2.4-1.4,1.1,0.1-1.5-1.4c0.5,0.1,1,0.4,1.5,0.6c-1.2-0.8-0.9-0.9-0.6-1l0.3,0.1c0.3-0.1-0.9-1-0.9-1.3l2,1
			c-0.2-0.3-1.8-1.1-1.3-1c0.3,0.1,0.4,0.2,0.5,0.3c-0.3-0.3,0.3-0.2,0.8,0c-1.4-0.9-0.7-0.8-2.2-1.8c1.8,0.8,0.7,0.6,2.4,1.4
			c1.1,0.2,0.2-0.5-0.5-1.3c0.4,0.2,0.7,0.4,1.1,0.6c0,0-4.5-3-6.5-3.9c-1.3-0.7-2-1.2-3.3-1.6c0.7,0.5,1.6,1.2,0.1,0.5l1.4,0.7
			c0.5,0.6-2.9-1.4-3.1-1.1l0.5,0.2c0,0.1,0.9,0.6,0.4,0.5c-0.4-0.2-0.6-0.3-0.9-0.5l1.7,1.3c-0.8-0.4-1.2-0.6-1.8-1
			c-0.1,0.3,2.6,1.3,1.8,1.3c-0.6-0.3-0.8-0.5-1.3-0.8c-1.3-0.5-0.2,0.2,0.4,0.8c-1.2-0.6-1-0.7-1.9-1c0.7,0.3,1.8,0.9,1.8,1
			c-1.2-0.7-0.7-0.3-1.1-0.3c0.4,0.2,1,0.5,1.2,0.7c0.2,0.2-0.4-0.1-0.3,0l1.3,0.5c1.1,0.8-0.8-0.1-1.4-0.2
			c-0.2-0.1-0.4-0.2-0.4-0.3c-0.6-0.1-1.7-0.5-0.7,0.2l-0.1-0.1c1,1,2.1,1,3.1,2c-0.3,0-4-2.2-2.7-1.1c1.1,0.4,2.5,1.5,2.8,2
			l-2.3-1.5c-0.1,0.1,0.5,0.5,0.3,0.4l0.5,0.3c2,1.1-0.4,0.1,0.8,0.9c-2.7-1.6-2.2-1.4-4.9-2.9c1.4,0.9,2.8,1.8,2.4,1.9l-2-1.3
			c-0.6,0,2.3,2.1,4,3.3c-1.5-0.9-2.2-1.1-3.5-2l0.2,0.5l-1.7-1c1.7,1.1,0.4,0.5,2.7,1.8c-0.3-0.2-0.6-0.3-0.5-0.4
			c0.7,0.4,2.1,1.2,1.9,1.3c-0.6-0.2-0.9-0.5-1.5-0.9c0.9,0.6-0.6-0.2,0,0.2l1,0.4c1.3,0.8,0,0.2,0.6,0.6c-0.5-0.4-1.3-0.8-2.1-1.2
			l0.2,0.1c0,0.1,0.9,0.7,0.1,0.3l-1.8-1.1l1.3,0.8c-0.2-0.1-0.9-0.4-1.2-0.7c-1.3-0.3,4,2.1,2,1.6c-0.7-0.4-1.1-0.7-0.7-0.6
			c-1.1-0.6-1.8-1-2.2-1.1c-0.1,0-0.1-0.1-0.2-0.1C266,431.6,265.8,431.8,266.9,432.6z"/>
		<path fill="#FFC235" d="M266.2,431.4c0.1-0.1,0.1-0.2-0.1-0.4C265.7,430.9,265,430.8,266.2,431.4z"/>
		<path fill="#FFC235" d="M257.7,449c0,0-0.1-0.1-0.1-0.2C257.6,448.9,257.6,448.9,257.7,449z"/>
		<path fill="#FFC235" d="M257.6,450.2c0.2,0.1,0.3,0.2,0.4,0.2C257.6,450.2,257.4,450,257.6,450.2z"/>
		<path fill="#FFC235" d="M262.5,440.4C262.5,440.4,262.5,440.4,262.5,440.4C262.5,440.4,262.5,440.4,262.5,440.4z"/>
		<path fill="#FFC235" d="M258.7,445.1c0.5,0.4,1,0.8,1.4,1.1C260,446,259.7,445.7,258.7,445.1z"/>
		<path fill="#FFC235" d="M260.6,443.9c-0.1-0.1-0.2-0.1-0.2-0.2C260.4,443.8,260.5,443.8,260.6,443.9z"/>
		<path fill="#FFC235" d="M261.8,439.6c0.5,0.4,0.4,0.5,0.7,0.8C262.2,440.2,262.9,440.4,261.8,439.6z"/>
		<polygon fill="#FFC235" points="258.7,452.5 257.9,451.8 258.5,452.4 		"/>
		<path fill="#FFC235" d="M258.7,451.3c0.2,0.1-0.2-0.4-0.7-0.7C258.4,451,258.6,451.1,258.7,451.3z"/>
		<polygon fill="#FFC235" points="261.7,448.7 260.8,448.1 261.5,448.6 		"/>
	</g>
	<g>
		<polygon fill="#FFC235" points="293.6,472.4 294.5,472.8 293.4,472.1 		"/>
		<path fill="#FFC235" d="M295.4,471.6c-0.9-0.7-1.4-1.3-3.3-2.3l1.6,1.2c-1.5-0.8-1.5-0.6-1.1-0.2l0-0.2c0.2,0.1,1.1,0.6,1.3,0.8
			c-0.9-0.2,1.1,1-0.6,0.3L293,471l0.8,0.7c-0.2-0.1-0.9-0.5-1.2-0.6c0.7,0.6,1.4,1.1,1.2,1.2c2.7,1.3-1.8-1.5,0.9-0.3l0.1,0.1
			C294.1,471.4,296,472.1,295.4,471.6z"/>
		<path fill="#FFC235" d="M292.7,471.1L292.7,471.1C292.6,471,292.6,471,292.7,471.1z"/>
		<path fill="#FFC235" d="M301.2,465.8l-0.4-0.3C301,465.6,301.1,465.7,301.2,465.8z"/>
		<path fill="#FFC235" d="M294.6,464.8C294.6,464.8,294.7,464.8,294.6,464.8C294.1,464.4,294.3,464.5,294.6,464.8z"/>
		<path fill="#FFC235" d="M310,454.2l0.5,0.4C310.1,454.2,310,454.1,310,454.2z"/>
		<path fill="#FFC235" d="M313,452L313,452L313,452z"/>
		<path fill="#FFC235" d="M305.2,446.7l-0.4-0.4C305,446.5,305.2,446.7,305.2,446.7z"/>
		<path fill="#FFC235" d="M305.3,445c0.1,0.1,0.2,0.1,0.3,0.1C305.3,444.9,305.2,444.9,305.3,445z"/>
		<path fill="#FFC235" d="M313.2,452.2c-0.1-0.1-0.1-0.1-0.2-0.2C313.1,452.1,313.1,452.1,313.2,452.2z"/>
		<path fill="#FFC235" d="M303,447.3l-1.2-1C302.2,446.6,302.6,447,303,447.3z"/>
		<path fill="#FFC235" d="M304.6,443.9c0.2,0.2,0.4,0.3,0.4,0.4C304.9,444,304.7,443.9,304.6,443.9z"/>
		<path fill="#FFC235" d="M295.4,471.3c0,0,0,0.1,0.1,0.2C295.6,471.5,295.6,471.4,295.4,471.3z"/>
		<path fill="#FFC235" d="M297,451.8c-0.1-0.1-0.3-0.2-0.5-0.4C296.6,451.5,296.8,451.6,297,451.8z"/>
		<path fill="#FFC235" d="M300.1,448.7L300.1,448.7c-0.1-0.1-0.1-0.1-0.2-0.2L300.1,448.7z"/>
		<path fill="#FFC235" d="M299.4,449.8c-0.1-0.1-0.2-0.1-0.2-0.2C299.3,449.7,299.3,449.8,299.4,449.8z"/>
		<path fill="#FFC235" d="M299.5,446.9c-0.1-0.1-0.2-0.2-0.4-0.4L299.5,446.9z"/>
		<path fill="#FFC235" d="M301.3,447.4c-0.4-0.3-0.8-0.7-1.2-1.1c-0.7-0.3,0.7,1-0.5,0.3l0.6,0.4c0.7,0.9,0.7,1.2-0.5,0.3l-0.4-0.4
			c0.8,0.9-1.1-0.4-0.3,0.3c0.6,0.4,0.8,0.7,1.3,1.1l0.7,1.1l-1.6-1.4l0.4,0.6c0.7,0.5-0.7-0.3,0.8,1.1c-0.7-0.4-1.2-1.1-1.8-1.7
			c0.4,0.5-0.3-0.1,0.5,0.8l-1.5-1.1l0.8,1.1c-0.1-0.1-0.2-0.2-0.4-0.3c1.1,1.1-0.9-0.4,1,1.5c-0.1-0.1-0.1-0.1-0.2-0.2
			c1,1,0.1,0.5-0.2,0.4c0.2,0.3,1.3,1.2,1.9,1.7c-0.6,0-0.5,0,1,1.7c-1.9-1.3-2.7-2.6-4.1-3.5c0.8,0.8,1.4,1.5,1.6,1.9
			c-0.7-0.4-1.4-0.5-2.8-1.4l1.2,1l0.5,0.7l-1.6-1.5c0.4,0.4,1,1.1,1.6,1.6c0.9,1.1-2.7-2-1-0.3c-0.1-0.1-0.3-0.2-0.4-0.3
			c0.9,0.8,0.4,0.7,0.6,1.1l-1.5-1.3l0.4,0.2c-1.5-1.1,0.1,0.4-0.1,0.4c0.4,0.5,1.7,1.5,2.1,1.9c-0.1,0,0.3,0.4-0.2,0.1
			c-0.5-0.3-1.8-1.4-2.4-2c1.5,1.3,1.3,1.2,1.8,1.9c-0.8-0.6-1.1-0.8-1.2-1c0.2,0.2,0.5,0.5,1.1,1l-0.9-0.6c-1.5-0.8,2.7,2.5,2,2.3
			c-0.8-0.7,0,0.4-1-0.3c-0.2-0.3-2.3-1.7-3.2-2.5c-0.7-0.2,1.8,1.5,2,1.9l-1.9-1.6c0.7,0.8,1,0.8,1.5,1.5c-0.5-0.5-0.6-0.3-1.1-0.9
			c-0.4,0.1-0.1,0.1-0.5,0.2l1.9,1.4c0.2,0.2-0.7-0.4-1-0.6c0-0.1,0.1,0-0.2-0.2c-1.7-1.2,0.8,0.8-0.7-0.2c0.6,0.4,1.5,1,1.5,1.2
			c-1.1-0.9-1.2-0.7-1.6-1c0.8,0.5,0.2,0.4,1.5,1.4c-0.9-0.6-0.9-0.7-1.5-1.2c1.4,1.2,0,0.5,0.8,1.2c-0.1-0.1-0.2-0.1-0.3-0.2
			c0.8,0.8,0.9,1.1,2.1,2.2l-1-0.9c-0.6-0.2,2.2,1.8,2.1,1.9c-1.5-1.2-0.1,0.3-1.7-1c0.8,0.7,1.1,1.1,2.5,2.2
			c-0.9-0.5-2-1.7-2.5-1.9l0.7,0.7l-0.9-0.6c0.6,0.5,0.6,0.6,1.1,1c-1-0.7-1.8-1.2-2.5-1.7c0.2,0.3-0.8-0.3,0,0.4l-0.5-0.3
			c1.8,1.4,0.2,0.5,2.1,2l-1.1-0.7c0.1,0.3,2.1,1.6,2.5,2c0,0.1,0.2,0.3,0,0.3c-1.1-1-1.6-1-2.3-1.4c-0.1,0-0.1,0.4,0.9,1.1
			c-1-0.8-1.8-1.3-1.8-1.5c-2-1.3,0.3,0.5-0.1,0.5l-0.9-0.6c0.4,0.6,2,1.7,3.5,2.9c-1.1-0.7-1.4-0.9-2.5-1.8
			c-0.8-0.3-0.2,0.5-0.5,0.5c-0.8-0.5-1.3-0.8-1.6-1.1c0.7,0.8-0.5,0.3,1.4,1.7c-0.8-0.6-0.6-0.3-1-0.5c0.4,0.3,0.9,0.6,0.9,0.6
			c0.7,0.6,1.3,1.4,0.5,1l-0.6-0.4c-0.5,0.1,2.8,2.4,1.1,1.8c-0.5-0.2-1.6-1.1-1.6-1c0.7,0.5,2.3,1.5,1.7,1.4l-1.3-0.9l1.3,0.9
			c1.1,0.6,0.9,0.2,2,1.1c-1.3-0.6,1.2,0.9-0.4,0.1c-0.1-0.1-1.1-0.8-1.6-1.2c-1.8-0.6,1,1.3-0.9,0.6c0.9,0.8,1,1.2,1.9,1.9
			c-1.3-0.8-2.5-1.5-3.5-2.3c-0.3,0.1,2.7,2,0.7,0.9c1.8,1.2,0.9,1.1,3.5,2.7c-0.5-0.3-0.1,0.1-1.5-0.9c0.7,0.7-2.4-1.1-2.5-1
			c0,0.1,1.7,0.9,1.7,1.1c-0.1-0.1-0.4-0.2-0.5-0.3l0.6,0.4c-0.6-0.3-1.3-0.8-1.9-1.2c-0.7-0.2,1.3,1.2,1.4,1.5l-0.4-0.3l-0.2,0.1
			l-0.1-0.1l0.8,0.7l-0.7-0.4c0.2,0.1,0.6,0.4,0.6,0.5l-0.8-0.5c1.3,0.8,1.8,1.4,1.8,1.5l-0.4-0.2l1.6,1.2c-1-0.4-1.9-1.3-1.4-0.7
			l-1.7-1c0.6,0.5-0.4,0.1,0.2,0.5c0.9,0.4,0.8,0.3,1.6,0.8c-2-1,0.4,0.5,1.1,1.1c0-0.1,0-0.1-0.9-0.7c0.1,0,0.9,0.5,1,0.5l-0.9-0.6
			l1.2,0.6l-0.8-0.7c1.4,0.8,0.3,0,1.7,0.8c-0.5-0.4,0.5,0.1-0.8-0.8c0.9,0.4,0.9,0.7,1.1,0.7c-0.8-1.1-0.4-1.4,0.4-1.6l0.6,0.4
			c-0.6-0.4-1-0.7-1.5-1.1c1.1,0.6,2.7,1.1,0.7-0.2c0.1,0.1,0.4,0.3,0.6,0.4c-0.1-0.3,1.4,0.3,1.4,0c-2.1-1.4,1.5,0.5-1.3-1.4
			l0.6,0.4c-0.9-0.4-1.9-1.3-2.6-1.8c1.9,1.1,1.4,0.9,3.2,1.9l-0.7-0.3l1.6,0.9c-3.8-2.8,2.1,0.7-0.6-1.3c0.1,0.1,0.4,0.3,0.5,0.4
			c0.9,0.4-1-0.9-1.4-1.3c0.8,0.5,1.2,0.9,1.8,1.3c0.7,0.2-1.1-1.5,0.2-0.9c-1-0.7-1.4-0.9-2.1-1.5c0.3,0.1,1.2,0.6,1.7,1
			c2,1.1-0.8-1.4,1.1-0.5c-1-0.9-1.6-1.1-2.2-1.9c0.7,0.5,2.5,1.6,2.5,1.8l0.8,0.6c0.3-0.1,0.8-0.2-1.4-1.9c1.7,1.1,0.3,0.2,1.3,0.7
			c-0.2-0.2-0.3-0.2-0.4-0.2c-1.4-1.1,0.1-0.1,0-0.3l0.3,0.2l-0.9-0.9c0.2,0.1,0.6,0.3,1.1,0.6l-1.1-0.8c0.1-0.1,1.5,1,1.3,0.7
			l-0.9-0.6c0.6,0.3-0.5-0.6,0.7,0.2c0.2,0.2,0.1,0.1,0.2,0.2c1.8,1.1-0.4-0.7,0.5-0.2l-1.9-1.3c-0.5-0.5,0.4,0.2,1.1,0.7
			c0.1-0.1,0.7,0.3,0.9,0.3c-0.4-0.4-0.7-0.5-1.2-0.9l0.5,0.2l0.9,0.8c-2.5-2.1,0.6-0.2-1.7-2.1c0.6,0.3,1.1,0.9,1.4,1
			c1.3,0.7-1.4-1.7,0.1-0.9c1.5,0.7,0.5-0.6,1.6-0.2l-0.5-0.4l0.6,0.1c-1-0.9-0.4-0.6-1.6-1.7c0.4,0.3,1,0.7,1.2,1
			c-0.1-0.2-0.5-0.7,0.2-0.3l0.4,0.3c0.5,0,0.7-0.2-0.1-1c-0.1-0.2,0.8,0.5,1.4,1c0.1-0.1-0.3-0.5-1-1.2c0.2,0.1,0.4,0.3,0.9,0.6
			l-1.1-1c0.2,0.1,1,0.7,1.3,0.9c-1.2-1.3,0.2-0.5,0.2-0.7l-0.6-0.4c-0.4-0.4,0.5,0.1,1,0.7c0.9,0.3-1.5-1.8-0.9-1.9
			c2.1,1.7-0.3-0.8,2,1.1c-0.5-0.6,0.5,0.1-0.7-1.2c0.2,0.2,0.3,0.3,0.4,0.3c0.9,0.7,0.4-0.1,0-0.7l0.7,0.6
			c-1.4-1.3-0.8-1.2-2.2-2.5c0.3,0.3,0.6,0.6,0.9,0.8c1.5,1.1-0.6-0.7-0.2-0.5c0.4,0.3,0.8,0.7,1.1,0.9c1.9,1.1-0.4-1.7,1.1-1.2
			c0.2-0.1-1.6-1.3-1.3-1.4c0.8,0.6,1.4,1.4,1.8,1.6c-0.8-0.9-0.6-0.7-0.5-0.8c0.5,0.5,0.8,0.7,1.1,1.1c0.7,0.5-0.9-1.3,0.4-0.3
			c-0.4-0.4-0.7-0.7-0.9-0.9c-1.1-1.3,1.6,0.8,0.9,0.2c0,0-0.1-0.2-0.3-0.3c0.1,0,0.4,0.1,1.1,0.8c-0.4-0.4-0.9-1-1-1.1l0.8,0.8
			c-0.2-0.2-0.6-0.7-0.7-0.8l-0.5-0.4c0.7,0.6-0.8-1.1,0.8,0.4l0,0.1l0.8,0.6c-0.6-0.6-1.2-1.3-0.9-1.2c1.7,1.5,0.5,0.1,0.8,0.2
			l0.6,0.5c-0.7-0.8-0.2-0.7-0.5-0.9c0.1-0.1,0.6,0.2,1,0.7c-0.3-0.4-0.1-0.5-1-1.4l1.5,1.2c-1.9-2,1,0.5-1.1-1.6
			c0.4,0.3,0.8,0.7,1.3,1c-0.9-1.1-0.7-1-0.4-1l0.2,0.2c0.3,0.1-0.7-1.1-0.6-1.3l1.6,1.6c-0.2-0.3-1.4-1.5-1-1.3
			c0.3,0.2,0.3,0.3,0.4,0.4c-0.2-0.4,0.3-0.1,0.7,0.3c-1-1.3-0.5-0.9-1.7-2.2c1.5,1.3,0.5,0.7,1.9,2c0.9,0.6,0.3-0.3-0.2-1.2
			c0.3,0.3,0.5,0.6,0.9,0.9c0,0-3.4-4.2-4.9-5.7c-1-1.1-1.5-1.8-2.5-2.5c0.5,0.7,1.1,1.6,0,0.4l1.1,1.1c0.3,0.7-2.2-2.3-2.5-2
			l0.4,0.3c0,0.1,0.7,0.9,0.3,0.5c-0.3-0.3-0.4-0.5-0.7-0.8l1.3,1.7c-0.6-0.6-1-1-1.4-1.5c-0.1,0.2,2,2,1.4,1.8
			c-0.5-0.4-0.7-0.7-1-1.1c-1-0.8-0.3,0.1,0.2,0.8c-1-1-0.8-0.9-1.5-1.5c0.5,0.5,1.4,1.4,1.4,1.5c-1-1-0.6-0.5-0.9-0.7
			c0.4,0.3,0.8,0.8,1,1c0.1,0.2-0.3-0.2-0.3-0.1l1.1,0.9c0.8,1-0.7-0.3-1.2-0.7c-0.2-0.2-0.3-0.3-0.3-0.4c-0.5-0.3-1.4-1-0.7,0
			l-0.1-0.1c0.8,1.2,1.7,1.6,2.4,2.7c-0.3-0.1-3.2-3.2-2.2-1.9c0.9,0.7,1.9,2.1,2.2,2.6l-1.8-2c-0.1,0,0.4,0.6,0.2,0.5l0.4,0.4
			c1.7,1.6-0.4-0.1,0.5,1c-2.2-2.3-1.7-1.9-3.9-4.1c1.1,1.3,2.2,2.4,1.8,2.4l-1.6-1.8c-0.6-0.2,1.7,2.5,3.1,4.1
			c-1.2-1.3-1.8-1.6-2.8-2.8l0.1,0.4l-1.4-1.4c1.4,1.5,0.3,0.6,2.2,2.4c-0.2-0.3-0.5-0.5-0.4-0.4c0.6,0.5,1.7,1.7,1.5,1.7
			c-0.5-0.4-0.7-0.7-1.2-1.2c0.7,0.8-0.5-0.4,0,0.2l0.9,0.7c1,1.1-0.1,0.1,0.4,0.7c-0.4-0.5-1-1.1-1.7-1.7l0.1,0.1
			c0,0.1,0.7,0.9,0.1,0.3l-1.5-1.5l1,1.1c-0.2-0.1-0.8-0.6-1-0.9c-1.1-0.6,3.3,3,1.6,2c-0.6-0.5-0.9-0.9-0.5-0.7
			c-0.9-0.9-1.5-1.4-1.9-1.6c-0.1-0.1-0.1-0.1-0.2-0.2C300.7,446.2,300.4,446.3,301.3,447.4z"/>
		<path fill="#FFC235" d="M300.8,446.1c0.1-0.1,0.2-0.1,0-0.4C300.5,445.4,299.9,445.2,300.8,446.1z"/>
		<path fill="#FFC235" d="M292.2,459.9c0,0-0.1-0.1-0.2-0.1C292.1,459.8,292.1,459.8,292.2,459.9z"/>
		<path fill="#FFC235" d="M292.2,460.9c0.2,0.1,0.3,0.2,0.4,0.2C292.3,460.9,292,460.8,292.2,460.9z"/>
		<path fill="#FFC235" d="M296.5,453.1C296.5,453.1,296.6,453.1,296.5,453.1C296.6,453.1,296.5,453.1,296.5,453.1z"/>
		<path fill="#FFC235" d="M293,456.6c0.5,0.5,0.9,0.8,1.4,1.1C294.3,457.6,293.9,457.3,293,456.6z"/>
		<path fill="#FFC235" d="M294.7,455.8c-0.1-0.1-0.1-0.1-0.2-0.2C294.5,455.6,294.6,455.7,294.7,455.8z"/>
		<path fill="#FFC235" d="M295.9,452.2c0.5,0.5,0.4,0.5,0.6,0.8C296.3,452.8,296.9,453.1,295.9,452.2z"/>
		<polygon fill="#FFC235" points="293.5,463 292.7,462.4 293.3,462.9 		"/>
		<path fill="#FFC235" d="M293.4,462c0.2,0.1-0.2-0.4-0.7-0.6C293.1,461.7,293.2,461.9,293.4,462z"/>
		<polygon fill="#FFC235" points="296,460.1 295.1,459.4 295.7,460 		"/>
	</g>
	<g>
		<polygon fill="#FFC235" points="324.8,498.4 325.7,498.8 324.7,498 		"/>
		<path fill="#FFC235" d="M327,496.7c-0.9-0.7-1.3-1.4-3.3-2.5l1.5,1.3c-1.5-0.7-1.5-0.4-1.2,0l0-0.3c0.2,0.2,1.1,0.6,1.3,0.8
			c-0.9,0,1,1.1-0.8,0.6l-0.1-0.1l0.8,0.8c-0.3,0-0.9-0.4-1.2-0.6c0.6,0.6,1.4,1.2,1.1,1.5c2.8,1.1-1.7-1.8,1.1-0.6l0.1,0.1
			C325.6,496.8,327.5,497.4,327,496.7z"/>
		<path fill="#FFC235" d="M324.1,496.7C324.1,496.6,324.1,496.6,324.1,496.7C324,496.6,324,496.6,324.1,496.7z"/>
		<path fill="#FFC235" d="M335,485.9l-0.4-0.2C334.7,485.8,334.9,485.9,335,485.9z"/>
		<path fill="#FFC235" d="M327.5,487C327.5,487,327.5,487,327.5,487C327,486.7,327.1,486.8,327.5,487z"/>
		<path fill="#FFC235" d="M346.1,464.4l0.7,0.2C346.1,464.3,346,464.3,346.1,464.4z"/>
		<path fill="#FFC235" d="M349.4,459.4C349.4,459.4,349.4,459.4,349.4,459.4C349.4,459.4,349.4,459.4,349.4,459.4z"/>
		<path fill="#FFC235" d="M339.9,457.5l-0.5-0.3C339.6,457.4,339.8,457.5,339.9,457.5z"/>
		<path fill="#FFC235" d="M339.7,455.2c0.2,0,0.3,0,0.3,0C339.7,455.1,339.6,455.1,339.7,455.2z"/>
		<path fill="#FFC235" d="M349.6,459.6c-0.1-0.1-0.1-0.1-0.2-0.2C349.5,459.4,349.5,459.5,349.6,459.6z"/>
		<path fill="#FFC235" d="M337.5,459.5l-1.4-0.7C336.5,459.1,337,459.3,337.5,459.5z"/>
		<path fill="#FFC235" d="M338.8,454.2c0.3,0.1,0.4,0.2,0.5,0.2C339.1,454.3,338.9,454.2,338.8,454.2z"/>
		<path fill="#FFC235" d="M327.1,496.3c0,0.1,0,0.1,0.1,0.3C327.3,496.5,327.3,496.4,327.1,496.3z"/>
		<path fill="#FFC235" d="M330.9,468.4c-0.1-0.1-0.3-0.2-0.5-0.3C330.5,468.2,330.7,468.3,330.9,468.4z"/>
		<path fill="#FFC235" d="M334.2,462.9L334.2,462.9c-0.1-0.1-0.2-0.1-0.3-0.1L334.2,462.9z"/>
		<path fill="#FFC235" d="M333.6,464.7c-0.1-0.1-0.2-0.1-0.3-0.2C333.4,464.6,333.5,464.6,333.6,464.7z"/>
		<path fill="#FFC235" d="M333.5,460.9c-0.1-0.1-0.2-0.2-0.4-0.3L333.5,460.9z"/>
		<path fill="#FFC235" d="M335.6,460.5c-0.5-0.2-1-0.5-1.4-0.8c-0.8-0.1,0.9,1-0.5,0.6l0.8,0.2c0.9,0.7,0.9,1.2-0.5,0.7l-0.4-0.3
			c1,0.8-1.2,0-0.3,0.6c0.7,0.2,1,0.5,1.6,0.7l0.9,1.1l-1.9-1l0.5,0.6c0.8,0.3-0.8,0,1,1c-0.8-0.2-1.4-0.8-2.1-1.2
			c0.5,0.4-0.3,0,0.7,0.7l-1.7-0.7l1,1c-0.1-0.1-0.3-0.1-0.4-0.2c1.3,0.9-1.1,0,1.2,1.5c-0.1-0.1-0.2-0.1-0.3-0.2
			c1.2,0.8,0.1,0.6-0.2,0.6c0.2,0.4,1.5,0.9,2.2,1.3c-0.7,0.3-0.5,0.2,1.2,1.7c-2.2-0.8-3.2-2.1-4.8-2.5c1,0.6,1.6,1.2,1.9,1.7
			c-0.9-0.1-1.6,0-3.2-0.5l1.4,0.7l0.6,0.8l-1.9-1.2c0.4,0.3,1.2,0.9,1.8,1.4c1,1-3.1-1.3-1.2,0c-0.2-0.1-0.3-0.1-0.4-0.2
			c1,0.6,0.5,0.7,0.7,1.2l-1.7-1l0.5,0c-1.7-0.8,0.1,0.5-0.1,0.6c0.5,0.5,2,1.1,2.4,1.5c-0.1,0,0.3,0.4-0.2,0.2
			c-0.6-0.1-2.1-1.1-2.8-1.5c1.7,1.1,1.5,1,2,1.7c-0.9-0.4-1.2-0.6-1.4-0.8c0.2,0.2,0.5,0.4,1.3,0.9l-1.1-0.4c-1.6-0.4,3,2,2.3,2.2
			c-0.9-0.6,0,0.5-1.2,0c-0.2-0.3-2.6-1.3-3.6-1.9c-0.8,0,2,1.2,2.2,1.7l-2.1-1.2c0.8,0.8,1.1,0.7,1.7,1.3c-0.6-0.4-0.6-0.2-1.3-0.7
			c-0.4,0.2-0.2,0.2-0.6,0.4l2.1,1.1c0.2,0.2-0.8-0.2-1.2-0.4c0-0.1,0.1-0.1-0.2-0.2c-1.9-0.8,0.9,0.7-0.8,0
			c0.7,0.3,1.6,0.8,1.7,0.9c-1.3-0.7-1.3-0.4-1.8-0.7c0.9,0.4,0.3,0.5,1.6,1.2c-1-0.4-1-0.6-1.7-0.9c1.6,1-0.1,0.6,0.8,1.2
			c-0.1-0.1-0.2-0.1-0.3-0.1c0.9,0.7,1,1.1,2.3,2.1l-1.1-0.7c-0.7,0,2.4,1.5,2.3,1.8c-1.7-0.9-0.1,0.5-1.9-0.6
			c0.9,0.7,1.2,1.1,2.7,1.9c-1-0.4-2.2-1.5-2.8-1.6l0.8,0.7l-0.9-0.4c0.7,0.4,0.6,0.6,1.2,0.9c-1.1-0.5-2-0.9-2.8-1.3
			c0.3,0.3-0.9,0,0,0.6l-0.5-0.3c2,1.2,0.2,0.6,2.3,1.8l-1.2-0.5c0.1,0.3,2.3,1.4,2.7,1.8c0,0.1,0.2,0.4,0,0.4
			c-1.2-1-1.7-0.7-2.5-1.1c-0.1,0.1-0.1,0.5,0.9,1.1c-1-0.7-1.9-1.1-1.9-1.4c-2.2-1,0.3,0.6-0.1,0.7l-1-0.5c0.4,0.7,2.1,1.6,3.7,2.6
			c-1.2-0.6-1.5-0.8-2.7-1.5c-0.9-0.1-0.3,0.7-0.6,0.9c-0.9-0.4-1.4-0.7-1.7-1c0.8,0.8-0.6,0.6,1.5,1.8c-0.8-0.5-0.6-0.2-1.1-0.3
			c0.4,0.2,1,0.5,0.9,0.5c0.8,0.6,1.3,1.4,0.5,1.3l-0.6-0.4c-0.6,0.3,2.9,2.4,1.1,2.1c-0.5-0.1-1.7-1-1.7-0.8
			c0.7,0.5,2.4,1.3,1.8,1.3l-1.4-0.7l1.3,0.9c1.2,0.5,0.9,0,2.1,0.9c-1.4-0.5,1.2,0.9-0.5,0.3c-0.1-0.1-1.1-0.8-1.7-1.1
			c-2-0.3,0.9,1.5-1.1,1.2c0.9,0.9,1,1.3,1.9,2.1c-1.4-0.7-2.6-1.4-3.6-2.1c-0.3,0.1,2.8,1.9,0.6,1c1.8,1.1,0.8,1.3,3.5,2.8
			c-0.5-0.3-0.2,0.3-1.5-0.8c0.7,0.8-2.6-0.8-2.6-0.6c0,0.1,1.7,0.8,1.7,1c-0.1,0-0.4-0.2-0.5-0.2l0.6,0.4c-0.7-0.2-1.3-0.8-2-1.1
			c-0.7,0,1.3,1.3,1.3,1.7l-0.4-0.3l-0.3,0.3l-0.1-0.1l0.8,0.8l-0.7-0.4c0.2,0.2,0.6,0.4,0.6,0.5l-0.8-0.5c1.3,0.8,1.8,1.5,1.7,1.6
			L326,494l1.5,1.3c-1-0.3-1.9-1.3-1.5-0.6l-1.7-1c0.5,0.6-0.4,0.2,0.1,0.7c0.9,0.4,0.9,0.2,1.6,0.7c-2.1-0.8,0.3,0.6,1,1.2
			c0-0.1,0.1-0.2-0.9-0.8c0.1-0.1,0.9,0.4,1.1,0.4l-0.9-0.7l1.2,0.6l-0.8-0.8c1.4,0.7,0.3-0.2,1.7,0.7c-0.5-0.5,0.6-0.1-0.7-1
			c0.9,0.3,0.9,0.7,1.1,0.7c-0.7-1.3-0.1-2,0.8-2.5l0.6,0.4c-0.6-0.4-1-0.8-1.5-1.1c1.2,0.5,2.9,0.7,0.9-0.6c0.1,0,0.4,0.2,0.6,0.3
			c-0.1-0.4,1.6-0.1,1.6-0.6c-2.1-1.3,1.7,0.2-1.3-1.5l0.6,0.4c-0.9-0.3-2-1.3-2.7-1.7c2,0.9,1.5,0.8,3.4,1.6l-0.8-0.2l1.6,0.8
			c-3.9-2.6,2.4,0.1-0.5-1.7c0.1,0.1,0.4,0.2,0.6,0.3c1,0.3-1-0.9-1.4-1.4c0.8,0.4,1.3,0.8,1.9,1.2c0.8,0-1.1-1.7,0.4-1.4
			c-1-0.7-1.5-0.7-2.2-1.3c0.4,0,1.3,0.4,1.8,0.9c2.2,0.7-0.7-1.8,1.4-1.3c-1.1-0.9-1.7-1-2.3-1.8c0.7,0.5,2.7,1.3,2.7,1.6l0.8,0.5
			c0.4-0.3,1-0.7-1.3-2.2c1.8,0.9,0.4,0.1,1.4,0.5c-0.2-0.2-0.3-0.1-0.4-0.2c-1.4-0.9,0.2-0.2,0-0.4l0.3,0.2l-0.9-0.9
			c0.3,0.1,0.6,0.2,1.2,0.5l-1.2-0.6c0.1-0.2,1.6,0.8,1.4,0.4l-0.9-0.4c0.6,0.2-0.5-0.7,0.8,0c0.3,0.1,0.1,0.1,0.2,0.2
			c2,0.8-0.3-0.8,0.7-0.6l-2-1c-0.5-0.6,0.5,0.1,1.2,0.5c0.1-0.2,0.7,0.1,1.1,0.1c-0.5-0.4-0.7-0.4-1.3-0.8l0.6,0l1,0.7
			c-2.7-1.8,0.8-0.6-1.8-2.2c0.6,0.2,1.1,0.7,1.5,0.8c1.5,0.3-1.5-1.8,0.2-1.4c1.7,0.2,0.6-1.1,1.9-1.1l-0.5-0.3l0.7-0.2
			c-1.1-0.7-0.4-0.7-1.8-1.6c0.4,0.2,1.1,0.5,1.4,0.7c-0.1-0.3-0.6-0.8,0.2-0.5l0.4,0.3c0.5-0.2,0.9-0.7-0.1-1.4
			c-0.1-0.2,0.9,0.3,1.6,0.6c0.2-0.2-0.3-0.6-1.1-1.2c0.3,0.1,0.5,0.1,1,0.3l-1.3-0.8c0.2,0,1.1,0.5,1.5,0.7
			c-1.4-1.2,0.2-0.8,0.3-1.1l-0.7-0.3c-0.5-0.4,0.6-0.1,1.2,0.4c1-0.1-1.7-1.8-1-2.2c2.4,1.2-0.4-0.9,2.3,0.4
			c-0.5-0.6,0.6-0.2-0.8-1.2c0.3,0.1,0.4,0.2,0.4,0.2c1.1,0.4,0.5-0.3,0-1l0.8,0.4c-1.7-1-0.9-1.2-2.6-2.2c0.4,0.2,0.7,0.4,1,0.6
			c1.7,0.7-0.7-0.7-0.2-0.6c0.4,0.2,0.9,0.4,1.2,0.6c2.2,0.4-0.5-2.2,1.2-2.3c0.2-0.2-1.9-0.9-1.6-1.1c0.9,0.4,1.7,1.1,2.2,1.1
			c-1-0.7-0.8-0.6-0.6-0.8c0.6,0.3,1,0.5,1.3,0.8c0.8,0.3-1.1-1.2,0.4-0.6c-0.5-0.3-0.8-0.5-1.1-0.7c-1.4-1.1,1.9,0.1,1.1-0.4
			c0,0-0.2-0.2-0.4-0.2c0.1-0.1,0.4-0.1,1.3,0.4c-0.4-0.3-1.2-0.7-1.2-0.9l1,0.6c-0.2-0.2-0.8-0.6-0.9-0.7l-0.7-0.2
			c0.9,0.3-1-1,0.9,0l0,0.1l1,0.2c-0.7-0.5-1.5-1-1.1-1c2,1,0.7-0.2,1-0.3l0.7,0.4c-0.9-0.7-0.2-0.8-0.6-0.9
			c0.1-0.2,0.7-0.1,1.3,0.3c-0.3-0.3-0.2-0.6-1.3-1.3l1.8,0.6c-2.4-1.4,1.2,0-1.5-1.4c0.5,0.1,1.1,0.4,1.6,0.6c-1.2-0.9-0.9-1-0.5-1
			l0.3,0.1c0.3-0.1-0.9-1-0.9-1.4l2,1c-0.2-0.3-1.7-1.1-1.2-1.1c0.3,0.1,0.4,0.2,0.5,0.3c-0.3-0.3,0.3-0.3,0.8-0.1
			c-1.3-1-0.7-0.9-2.2-1.9c1.9,0.8,0.7,0.7,2.4,1.4c1.1,0.2,0.3-0.6-0.4-1.4c0.4,0.2,0.7,0.4,1.1,0.6c0,0-4.5-3.2-6.4-4.1
			c-1.3-0.8-2-1.3-3.3-1.6c0.7,0.5,1.5,1.3,0,0.5l1.4,0.7c0.4,0.7-2.9-1.5-3.1-1l0.5,0.1c0,0.1,0.9,0.7,0.4,0.5
			c-0.4-0.2-0.6-0.3-0.9-0.5l1.7,1.4c-0.8-0.4-1.2-0.6-1.8-1c-0.1,0.4,2.6,1.3,1.8,1.4c-0.7-0.2-0.8-0.5-1.3-0.8
			c-1.3-0.4-0.3,0.3,0.4,0.9c-1.2-0.6-1-0.7-1.9-1c0.7,0.3,1.8,0.9,1.8,1c-1.2-0.7-0.7-0.3-1.1-0.3c0.4,0.2,1,0.5,1.2,0.7
			c0.2,0.2-0.4,0-0.3,0.1l1.3,0.5c1.1,0.8-0.8,0-1.4-0.1c-0.2-0.1-0.4-0.2-0.4-0.3c-0.6-0.1-1.7-0.4-0.7,0.3l-0.1-0.1
			c1,1.1,2.2,1,3,2c-0.3,0-4-2.2-2.8-1.1c1.2,0.4,2.4,1.6,2.8,2l-2.3-1.5c-0.1,0.1,0.5,0.6,0.3,0.5l0.5,0.3c2.1,1.1-0.4,0.1,0.7,0.9
			c-2.7-1.6-2.2-1.4-4.9-2.9c1.4,0.9,2.8,1.8,2.3,2l-2-1.3c-0.7,0.1,2.3,2.2,3.9,3.4c-1.5-0.9-2.2-1.1-3.5-1.9l0.1,0.5l-1.7-1
			c1.7,1.1,0.4,0.6,2.7,1.8c-0.3-0.2-0.6-0.3-0.5-0.4c0.7,0.4,2.1,1.2,1.9,1.3c-0.6-0.2-0.9-0.5-1.5-0.8c0.9,0.6-0.6-0.2,0,0.3
			l1.1,0.4c1.3,0.8-0.1,0.2,0.5,0.7c-0.5-0.4-1.3-0.8-2.1-1.2l0.2,0.1c0,0.1,0.9,0.7,0.1,0.4l-1.8-1l1.3,0.8
			c-0.3-0.1-0.9-0.4-1.2-0.6c-1.3-0.2,4,2.1,2,1.7c-0.7-0.4-1.1-0.7-0.6-0.6c-1.1-0.6-1.8-0.9-2.3-1c-0.1,0-0.1-0.1-0.2-0.1
			C334.7,459.4,334.4,459.7,335.6,460.5z"/>
		<path fill="#FFC235" d="M334.9,459.1c0.1-0.1,0.2-0.3-0.1-0.4C334.4,458.5,333.7,458.5,334.9,459.1z"/>
		<path fill="#FFC235" d="M325.3,481.1c0,0-0.1-0.1-0.2-0.1C325.2,481,325.2,481,325.3,481.1z"/>
		<path fill="#FFC235" d="M325.2,482.5c0.2,0.1,0.3,0.1,0.4,0.2C325.3,482.5,325,482.3,325.2,482.5z"/>
		<path fill="#FFC235" d="M330.5,470.2C330.5,470.2,330.5,470.2,330.5,470.2C330.5,470.2,330.5,470.2,330.5,470.2z"/>
		<path fill="#FFC235" d="M326.4,476.4c0.5,0.4,1,0.7,1.5,1C327.8,477.2,327.4,476.9,326.4,476.4z"/>
		<path fill="#FFC235" d="M328.4,474.6c-0.1-0.1-0.2-0.1-0.3-0.2C328.2,474.5,328.3,474.6,328.4,474.6z"/>
		<path fill="#FFC235" d="M329.7,469.4c0.6,0.4,0.4,0.5,0.7,0.8C330.2,470,330.9,470.1,329.7,469.4z"/>
		<polygon fill="#FFC235" points="326.5,485 325.6,484.4 326.2,484.8 		"/>
		<path fill="#FFC235" d="M326.5,483.6c0.3,0.1-0.2-0.4-0.8-0.6C326.1,483.2,326.3,483.4,326.5,483.6z"/>
		<polygon fill="#FFC235" points="329.6,480 328.6,479.4 329.3,479.9 		"/>
	</g>
	<g>
		<polygon fill="#FFC235" points="313.3,476.5 314.2,477.1 313.2,476.2 		"/>
		<path fill="#FFC235" d="M315,476.1c-0.9-0.7-1.4-1.3-3.2-2.6l1.5,1.3c-1.4-0.9-1.4-0.7-1-0.3l0-0.2c0.2,0.2,1,0.7,1.2,0.9
			c-0.8-0.3,1,1-0.6,0.2l-0.1-0.1l0.8,0.7c-0.2-0.1-0.9-0.5-1.1-0.7c0.6,0.6,1.3,1.2,1.2,1.3c2.6,1.5-1.7-1.6,0.9-0.1l0.1,0.1
			C313.9,475.8,315.6,476.7,315,476.1z"/>
		<path fill="#FFC235" d="M312.5,475.2L312.5,475.2C312.4,475.1,312.4,475.2,312.5,475.2z"/>
		<path fill="#FFC235" d="M320.6,471.8l-0.4-0.3C320.3,471.6,320.4,471.7,320.6,471.8z"/>
		<path fill="#FFC235" d="M314.3,470C314.3,470,314.4,470,314.3,470C313.9,469.6,314,469.7,314.3,470z"/>
		<path fill="#FFC235" d="M328.3,462.3l0.5,0.4C328.4,462.3,328.3,462.2,328.3,462.3z"/>
		<path fill="#FFC235" d="M330.9,460.6L330.9,460.6L330.9,460.6z"/>
		<path fill="#FFC235" d="M323.4,455l-0.4-0.4C323.2,454.8,323.3,454.9,323.4,455z"/>
		<path fill="#FFC235" d="M323.3,453.4c0.1,0.1,0.2,0.2,0.3,0.1C323.3,453.3,323.3,453.3,323.3,453.4z"/>
		<path fill="#FFC235" d="M331.1,460.8c-0.1-0.1-0.1-0.1-0.2-0.2C330.9,460.6,331,460.7,331.1,460.8z"/>
		<path fill="#FFC235" d="M321.4,455.3l-1.2-1.1C320.7,454.6,321.1,455,321.4,455.3z"/>
		<path fill="#FFC235" d="M322.7,452.3c0.2,0.2,0.3,0.3,0.4,0.4C322.9,452.5,322.7,452.3,322.7,452.3z"/>
		<path fill="#FFC235" d="M315.1,475.8c0,0,0,0.1,0.1,0.2C315.3,476.1,315.2,476,315.1,475.8z"/>
		<path fill="#FFC235" d="M316.1,458.7c-0.1-0.1-0.3-0.3-0.4-0.4C315.8,458.4,315.9,458.5,316.1,458.7z"/>
		<path fill="#FFC235" d="M318.8,456.3L318.8,456.3c-0.1-0.1-0.1-0.1-0.2-0.2L318.8,456.3z"/>
		<path fill="#FFC235" d="M318.3,457.2c-0.1-0.1-0.2-0.2-0.2-0.2C318.1,457,318.2,457.1,318.3,457.2z"/>
		<path fill="#FFC235" d="M318.2,454.6c-0.1-0.1-0.2-0.2-0.4-0.4L318.2,454.6z"/>
		<path fill="#FFC235" d="M319.9,455.2c-0.4-0.4-0.8-0.8-1.1-1.1c-0.7-0.4,0.7,1-0.4,0.2l0.6,0.5c0.7,0.9,0.7,1.2-0.4,0.3l-0.3-0.4
			c0.8,0.9-1-0.5-0.3,0.3c0.5,0.4,0.8,0.7,1.3,1.1l0.7,1.1l-1.6-1.4l0.4,0.6c0.6,0.6-0.6-0.3,0.8,1.1c-0.6-0.5-1.1-1.1-1.7-1.7
			c0.4,0.5-0.3-0.1,0.5,0.8l-1.4-1.2l0.8,1.1c-0.1-0.1-0.2-0.2-0.3-0.3c1.1,1.1-0.9-0.4,1,1.5c-0.1-0.1-0.1-0.1-0.2-0.2
			c1,1,0.1,0.5-0.2,0.3c0.2,0.3,1.3,1.2,1.9,1.8c-0.6-0.1-0.4-0.1,1,1.6c-1.8-1.4-2.6-2.7-4-3.6c0.8,0.8,1.4,1.5,1.6,1.9
			c-0.7-0.4-1.3-0.6-2.6-1.6l1.1,1l0.5,0.7l-1.6-1.6c0.4,0.4,1,1.1,1.5,1.7c0.8,1.1-2.6-2.1-1-0.4c-0.1-0.1-0.3-0.2-0.4-0.3
			c0.8,0.8,0.4,0.7,0.6,1.1l-1.4-1.3l0.4,0.2c-1.5-1.2,0.1,0.4,0,0.4c0.4,0.5,1.7,1.5,2.1,2c-0.1,0,0.3,0.4-0.1,0.1
			c-0.5-0.3-1.7-1.5-2.3-2.1c1.5,1.4,1.2,1.2,1.7,1.9c-0.7-0.6-1-0.9-1.2-1c0.2,0.2,0.4,0.5,1.1,1.1l-0.9-0.7
			c-1.4-0.9,2.6,2.5,2,2.3c-0.8-0.7,0,0.3-1-0.4c-0.2-0.3-2.2-1.8-3.1-2.6c-0.7-0.3,1.7,1.6,1.9,2l-1.8-1.6c0.7,0.8,1,0.9,1.4,1.5
			c-0.5-0.5-0.5-0.4-1.1-0.9c-0.3,0-0.1,0.1-0.5,0.1l1.8,1.5c0.2,0.2-0.7-0.4-1-0.7c0-0.1,0.1,0-0.2-0.2c-1.6-1.2,0.8,0.8-0.7-0.3
			c0.6,0.5,1.4,1.1,1.4,1.3c-1.1-0.9-1.1-0.8-1.6-1.1c0.8,0.6,0.2,0.4,1.4,1.4c-0.9-0.6-0.9-0.7-1.5-1.3c1.4,1.2,0,0.4,0.7,1.1
			c-0.1-0.1-0.2-0.2-0.3-0.2c0.8,0.8,0.9,1.1,2,2.3l-1-0.9c-0.6-0.2,2.1,1.9,2,2c-1.5-1.2,0,0.3-1.7-1.1c0.8,0.8,1.1,1.2,2.4,2.2
			c-0.9-0.6-1.9-1.8-2.4-2l0.7,0.7l-0.8-0.6c0.6,0.5,0.6,0.6,1.1,1c-1-0.8-1.7-1.3-2.4-1.9c0.2,0.3-0.8-0.3,0,0.4l-0.5-0.4
			c1.8,1.5,0.2,0.5,2,2l-1-0.8c0.1,0.2,2,1.7,2.4,2.1c0,0.1,0.2,0.3,0,0.2c-1.1-1.1-1.5-1.1-2.2-1.6c-0.1,0,0,0.3,0.8,1.1
			c-0.9-0.8-1.7-1.4-1.7-1.6c-1.9-1.4,0.3,0.5-0.1,0.4l-0.9-0.7c0.4,0.6,1.9,1.8,3.3,3c-1.1-0.8-1.3-1-2.4-1.9
			c-0.7-0.4-0.2,0.4-0.4,0.4c-0.8-0.5-1.2-0.9-1.5-1.2c0.7,0.8-0.4,0.2,1.4,1.7c-0.7-0.6-0.5-0.3-0.9-0.5c0.4,0.3,0.9,0.7,0.8,0.7
			c0.7,0.7,1.3,1.4,0.5,1l-0.5-0.5c-0.5,0,2.7,2.6,1.1,1.8c-0.4-0.3-1.5-1.2-1.6-1.1c0.7,0.6,2.1,1.6,1.7,1.5l-1.3-0.9l1.2,1
			c1.1,0.7,0.8,0.3,1.9,1.3c-1.3-0.8,1.1,1-0.4,0.1c-0.1-0.1-1-0.9-1.5-1.3c-1.7-0.8,0.9,1.3-0.9,0.4c0.9,0.9,1,1.2,1.8,1.9
			c-1.3-0.9-2.4-1.7-3.3-2.5c-0.3,0,2.6,2.1,0.6,0.9c1.7,1.3,0.9,1.1,3.3,2.9c-0.5-0.3-0.1,0.1-1.4-1c0.7,0.7-2.3-1.3-2.3-1.2
			c0,0.1,1.6,1.1,1.6,1.2c-0.1-0.1-0.4-0.2-0.5-0.3l0.5,0.4c-0.6-0.4-1.2-0.9-1.8-1.4c-0.6-0.2,1.3,1.2,1.3,1.5l-0.4-0.3l-0.2,0.1
			l-0.1-0.1l0.8,0.7l-0.6-0.4c0.2,0.2,0.6,0.4,0.6,0.5l-0.8-0.6c1.2,0.9,1.7,1.5,1.7,1.6l-0.4-0.2l1.5,1.3c-0.9-0.5-1.8-1.4-1.3-0.8
			l-1.6-1.2c0.5,0.6-0.3,0,0.1,0.5c0.9,0.5,0.8,0.4,1.5,0.9c-1.9-1.2,0.4,0.5,1,1.1c0-0.1,0-0.1-0.9-0.8c0.1,0,0.9,0.6,1,0.6
			l-0.9-0.7l1.1,0.7l-0.8-0.7c1.3,0.9,0.2,0,1.6,1c-0.5-0.5,0.5,0.1-0.8-0.9c0.8,0.5,0.9,0.7,1.1,0.8c-0.8-1.1-0.3-1.3,0.4-1.3
			l0.6,0.4c-0.5-0.4-1-0.8-1.4-1.2c1.1,0.7,2.6,1.4,0.7-0.1c0.1,0.1,0.4,0.3,0.5,0.4c-0.1-0.3,1.4,0.5,1.3,0.2
			c-2-1.5,1.5,0.7-1.2-1.4l0.5,0.4c-0.8-0.5-1.8-1.5-2.5-2c1.8,1.3,1.4,1,3.1,2.1l-0.7-0.4l1.5,1.1c-3.6-3,2,0.9-0.6-1.3
			c0.1,0.1,0.4,0.3,0.5,0.4c0.9,0.5-0.9-0.9-1.4-1.4c0.7,0.5,1.2,0.9,1.7,1.4c0.7,0.3-1.1-1.5,0.2-0.8c-0.9-0.8-1.3-1-2-1.6
			c0.3,0.2,1.1,0.7,1.6,1.2c1.9,1.2-0.8-1.4,1-0.3c-1-0.9-1.5-1.2-2.1-2c0.7,0.6,2.4,1.8,2.4,2l0.7,0.6c0.3-0.1,0.8-0.1-1.3-1.8
			c1.6,1.2,0.3,0.2,1.2,0.8c-0.2-0.2-0.2-0.2-0.4-0.3c-1.3-1.1,0.1-0.1,0-0.3l0.3,0.2l-0.9-0.9c0.2,0.1,0.5,0.3,1,0.7l-1.1-0.9
			c0-0.1,1.4,1.1,1.2,0.8l-0.8-0.6c0.6,0.3-0.5-0.6,0.7,0.3c0.2,0.2,0.1,0.1,0.1,0.2c1.7,1.2-0.4-0.6,0.5-0.1l-1.8-1.4
			c-0.5-0.5,0.4,0.2,1,0.7c0-0.1,0.6,0.4,0.9,0.4c-0.4-0.4-0.6-0.5-1.1-1l0.5,0.3l0.9,0.8c-2.4-2.2,0.6-0.1-1.7-2.1
			c0.5,0.4,1,0.9,1.3,1.1c1.3,0.8-1.3-1.7,0.1-0.8c1.4,0.8,0.4-0.4,1.5,0l-0.5-0.4l0.5,0.1c-1-0.9-0.4-0.6-1.5-1.7
			c0.4,0.3,0.9,0.8,1.2,1c-0.1-0.2-0.5-0.7,0.1-0.2l0.4,0.4c0.4,0.1,0.7-0.1-0.1-1c-0.1-0.1,0.8,0.6,1.3,1c0.1,0-0.3-0.5-0.9-1.2
			c0.2,0.1,0.4,0.3,0.9,0.6l-1.1-1c0.2,0.1,0.9,0.8,1.2,1c-1.2-1.3,0.1-0.4,0.2-0.6l-0.6-0.5c-0.4-0.4,0.5,0.2,1,0.7
			c0.8,0.4-1.5-1.8-0.9-1.8c2,1.8-0.4-0.8,1.9,1.2c-0.5-0.6,0.5,0.1-0.7-1.1c0.2,0.2,0.3,0.3,0.4,0.3c0.9,0.7,0.4,0-0.1-0.6l0.7,0.6
			c-1.4-1.4-0.8-1.2-2.2-2.5c0.3,0.3,0.6,0.6,0.8,0.8c1.4,1.2-0.6-0.7-0.2-0.5c0.3,0.3,0.8,0.7,1,0.9c1.8,1.2-0.5-1.6,0.9-0.9
			c0.1,0-1.5-1.4-1.3-1.4c0.8,0.7,1.4,1.4,1.8,1.7c-0.8-0.9-0.6-0.7-0.5-0.7c0.5,0.5,0.8,0.8,1.1,1.1c0.6,0.5-0.9-1.3,0.3-0.2
			c-0.4-0.4-0.7-0.7-0.9-0.9c-1.1-1.3,1.5,0.9,0.8,0.2c0,0-0.2-0.2-0.3-0.3c0.1,0,0.3,0.1,1,0.8c-0.4-0.4-0.9-1-1-1.1l0.8,0.8
			c-0.2-0.2-0.6-0.7-0.7-0.8l-0.5-0.4c0.7,0.6-0.8-1.1,0.7,0.4l0,0.1l0.8,0.6c-0.6-0.7-1.2-1.3-0.9-1.2c1.6,1.6,0.5,0.2,0.8,0.3
			l0.6,0.6c-0.7-0.8-0.2-0.6-0.5-0.9c0.1-0.1,0.5,0.2,1,0.8c-0.3-0.4-0.1-0.4-1-1.4l1.4,1.2c-1.9-2,0.9,0.5-1.2-1.6
			c0.4,0.3,0.8,0.8,1.2,1.1c-0.9-1.1-0.7-1-0.4-0.9l0.2,0.2c0.3,0.1-0.7-1.1-0.7-1.3l1.6,1.6c-0.2-0.3-1.3-1.5-1-1.3
			c0.3,0.2,0.3,0.3,0.4,0.4c-0.3-0.4,0.2,0,0.7,0.3c-1-1.2-0.5-0.9-1.7-2.2c1.4,1.4,0.5,0.7,1.8,2c0.9,0.6,0.2-0.3-0.3-1.1
			c0.3,0.3,0.5,0.6,0.9,0.9c0,0-3.4-4.2-4.9-5.7c-1-1.1-1.5-1.8-2.5-2.6c0.6,0.7,1.2,1.6,0,0.4l1.1,1.1c0.3,0.7-2.2-2.3-2.4-2.1
			l0.4,0.3c0,0.1,0.7,0.9,0.3,0.5c-0.3-0.3-0.4-0.5-0.7-0.8l1.3,1.7c-0.6-0.6-1-1-1.4-1.5c-0.1,0.2,2,2,1.4,1.8
			c-0.5-0.5-0.6-0.7-1-1.1c-1-0.9-0.2,0.1,0.3,0.8c-1-1-0.8-0.9-1.5-1.5c0.5,0.5,1.4,1.4,1.4,1.5c-0.9-1-0.6-0.5-0.9-0.7
			c0.3,0.3,0.8,0.8,0.9,1c0.1,0.2-0.3-0.2-0.3-0.1l1,0.9c0.8,1-0.6-0.4-1.1-0.7c-0.2-0.2-0.3-0.3-0.3-0.4c-0.5-0.3-1.3-1.1-0.6-0.1
			l-0.1-0.1c0.8,1.2,1.7,1.6,2.4,2.7c-0.3-0.1-3.2-3.3-2.2-2c0.9,0.8,1.9,2.2,2.2,2.6l-1.8-2c-0.1,0,0.4,0.6,0.2,0.4l0.4,0.4
			c1.6,1.6-0.4-0.1,0.6,0.9c-2.1-2.3-1.7-1.9-3.9-4.1c1.1,1.3,2.2,2.5,1.8,2.3l-1.6-1.8c-0.5-0.2,1.8,2.5,3.1,4
			c-1.2-1.3-1.7-1.7-2.8-2.8l0.1,0.4l-1.3-1.4c1.4,1.5,0.3,0.6,2.2,2.4c-0.2-0.3-0.4-0.5-0.4-0.4c0.6,0.6,1.7,1.7,1.5,1.7
			c-0.5-0.4-0.7-0.7-1.2-1.2c0.7,0.8-0.5-0.4,0,0.2l0.8,0.7c1,1.1,0,0.1,0.4,0.7c-0.4-0.5-1-1.1-1.7-1.7l0.1,0.1
			c0,0.1,0.7,0.9,0.1,0.3l-1.5-1.5l1,1.1c-0.2-0.2-0.7-0.7-1-1c-1.1-0.7,3.2,3.1,1.6,2c-0.6-0.6-0.9-0.9-0.5-0.7
			c-0.9-0.9-1.4-1.4-1.8-1.6c-0.1-0.1-0.1-0.1-0.2-0.2C319.2,454,319,454.1,319.9,455.2z"/>
		<path fill="#FFC235" d="M319.3,453.9c0.1-0.1,0.1-0.1,0-0.3C319,453.3,318.4,453,319.3,453.9z"/>
		<path fill="#FFC235" d="M311.9,465.3c0,0-0.1-0.1-0.1-0.2C311.9,465.2,311.9,465.2,311.9,465.3z"/>
		<path fill="#FFC235" d="M312,466.2c0.2,0.1,0.3,0.2,0.4,0.3C312.1,466.2,311.8,466.1,312,466.2z"/>
		<path fill="#FFC235" d="M315.8,459.8C315.8,459.8,315.8,459.8,315.8,459.8C315.8,459.8,315.8,459.8,315.8,459.8z"/>
		<path fill="#FFC235" d="M312.6,462.5c0.5,0.5,0.9,0.8,1.3,1.2C313.8,463.5,313.5,463.2,312.6,462.5z"/>
		<path fill="#FFC235" d="M314.2,462c-0.1-0.1-0.1-0.1-0.2-0.2C314,461.8,314.1,461.9,314.2,462z"/>
		<path fill="#FFC235" d="M315.2,458.9c0.5,0.5,0.4,0.5,0.6,0.8C315.5,459.5,316.1,459.8,315.2,458.9z"/>
		<polygon fill="#FFC235" points="313.3,468.3 312.5,467.6 313,468.1 		"/>
		<path fill="#FFC235" d="M313.1,467.4c0.2,0.1-0.2-0.4-0.7-0.7C312.8,467,313,467.2,313.1,467.4z"/>
		<polygon fill="#FFC235" points="315.5,466 314.6,465.3 315.3,465.9 		"/>
	</g>
	<g>
		<polygon fill="#FFC235" points="282.3,463 283.1,463.7 282.2,462.7 		"/>
		<path fill="#FFC235" d="M284,462.8c-0.8-0.8-1.2-1.4-2.9-2.8l1.4,1.4c-1.3-1-1.3-0.9-1-0.4l0-0.2c0.1,0.2,1,0.8,1.1,1
			c-0.8-0.4,0.9,1.1-0.6,0.1l-0.1-0.1l0.7,0.8c-0.2-0.1-0.8-0.6-1-0.8c0.6,0.6,1.2,1.3,1,1.4c2.4,1.8-1.5-1.8,0.9,0l0.1,0.1
			C282.8,462.4,284.5,463.5,284,462.8z"/>
		<path fill="#FFC235" d="M281.6,461.7L281.6,461.7C281.5,461.6,281.5,461.6,281.6,461.7z"/>
		<path fill="#FFC235" d="M289.5,459.1l-0.4-0.3C289.3,458.9,289.4,459,289.5,459.1z"/>
		<path fill="#FFC235" d="M283.5,457C283.5,457,283.5,457,283.5,457C283,456.6,283.1,456.7,283.5,457z"/>
		<path fill="#FFC235" d="M296.8,449.4l0.6,0.3C296.9,449.4,296.8,449.3,296.8,449.4z"/>
		<path fill="#FFC235" d="M299.5,445.5L299.5,445.5L299.5,445.5z"/>
		<path fill="#FFC235" d="M290.3,443.5l-0.5-0.3C290,443.3,290.2,443.4,290.3,443.5z"/>
		<path fill="#FFC235" d="M289.4,442.5c0.2,0,0.3,0.1,0.3,0.1C289.4,442.5,289.3,442.4,289.4,442.5z"/>
		<path fill="#FFC235" d="M299.7,445.7c-0.1,0-0.2-0.1-0.2-0.1C299.6,445.6,299.6,445.6,299.7,445.7z"/>
		<path fill="#FFC235" d="M288.8,443.7l-1.3-0.9C287.9,443.1,288.4,443.4,288.8,443.7z"/>
		<path fill="#FFC235" d="M288.2,442c0.3,0.1,0.4,0.1,0.5,0.2C288.5,442.1,288.3,442,288.2,442z"/>
		<path fill="#FFC235" d="M284,462.6c0,0,0,0.1,0.1,0.2C284.2,462.9,284.2,462.8,284,462.6z"/>
		<path fill="#FFC235" d="M284.5,446.5c-0.1-0.1-0.3-0.2-0.5-0.4C284.2,446.3,284.4,446.4,284.5,446.5z"/>
		<path fill="#FFC235" d="M286.7,444.4L286.7,444.4c-0.1-0.1-0.2-0.1-0.2-0.2L286.7,444.4z"/>
		<path fill="#FFC235" d="M286.4,445.2c-0.1-0.1-0.2-0.1-0.3-0.2C286.2,445.1,286.3,445.2,286.4,445.2z"/>
		<path fill="#FFC235" d="M285.8,442.9c-0.1-0.1-0.2-0.2-0.4-0.4L285.8,442.9z"/>
		<path fill="#FFC235" d="M287.4,443.5c-0.5-0.3-0.9-0.7-1.3-1c-0.7-0.4,0.9,0.9-0.3,0.1l0.6,0.4c0.9,0.8,0.9,1.1-0.3,0.2l-0.4-0.3
			c0.9,0.8-1-0.5-0.2,0.2c0.6,0.4,0.8,0.7,1.4,1l0.9,1l-1.7-1.3l0.5,0.5c0.7,0.5-0.6-0.3,0.9,1c-0.6-0.4-1.2-1-1.9-1.6
			c0.4,0.4-0.3-0.1,0.6,0.7l-1.5-1.1l0.9,1c-0.1-0.1-0.2-0.2-0.4-0.3c1.2,1.1-0.9-0.4,1.2,1.4c-0.1-0.1-0.1-0.1-0.2-0.2
			c1.1,1,0.2,0.4-0.1,0.3c0.2,0.3,1.4,1.2,2,1.7c-0.6-0.1-0.4-0.1,1.1,1.5c-1.9-1.4-2.8-2.5-4.2-3.4c0.9,0.7,1.5,1.4,1.7,1.8
			c-0.7-0.4-1.3-0.6-2.7-1.5l1.2,1l0.5,0.7l-1.6-1.5c0.4,0.4,1.1,1,1.6,1.6c0.9,1-2.7-2-1-0.4c-0.1-0.1-0.3-0.2-0.4-0.3
			c0.9,0.8,0.5,0.6,0.7,1l-1.5-1.3l0.4,0.2c-1.5-1.2,0.1,0.3,0,0.3c0.5,0.5,1.7,1.5,2.1,1.9c-0.1,0,0.3,0.4-0.1,0
			c-0.5-0.3-1.8-1.4-2.4-2c1.5,1.3,1.3,1.2,1.8,1.8c-0.7-0.6-1.1-0.9-1.2-1c0.2,0.2,0.5,0.5,1.1,1l-0.9-0.7
			c-1.4-0.9,2.7,2.4,2.1,2.2c-0.8-0.7,0.1,0.3-1-0.4c-0.2-0.3-2.2-1.8-3.1-2.6c-0.7-0.3,1.7,1.5,2,1.9l-1.9-1.6
			c0.7,0.8,1,0.9,1.5,1.4c-0.5-0.5-0.5-0.4-1.1-0.9c-0.3,0-0.1,0.1-0.4,0l1.8,1.5c0.2,0.2-0.7-0.4-1-0.7c0,0,0.1,0-0.2-0.2
			c-1.6-1.2,0.8,0.8-0.7-0.3c0.6,0.5,1.4,1.1,1.5,1.2c-1.1-0.9-1.1-0.8-1.6-1.1c0.8,0.6,0.3,0.4,1.5,1.4c-0.9-0.6-0.9-0.7-1.5-1.2
			c1.4,1.2,0,0.4,0.8,1.1c-0.1-0.1-0.2-0.2-0.3-0.2c0.8,0.8,0.9,1.1,2.1,2.2l-1-0.9c-0.6-0.2,2.1,1.9,2,2c-1.5-1.2,0,0.3-1.6-1.1
			c0.8,0.8,1.1,1.1,2.4,2.2c-0.9-0.6-1.9-1.8-2.4-2l0.7,0.7l-0.8-0.6c0.6,0.5,0.6,0.6,1.1,1c-1-0.8-1.7-1.3-2.4-1.9
			c0.2,0.3-0.8-0.4,0.1,0.4l-0.5-0.4c1.7,1.5,0.2,0.5,2,2l-1-0.8c0.1,0.2,2,1.8,2.4,2.2c0,0.1,0.2,0.3,0,0.2
			c-1.1-1.1-1.5-1.1-2.2-1.6c-0.1,0,0,0.3,0.9,1.1c-0.9-0.8-1.7-1.4-1.7-1.6c-1.9-1.4,0.3,0.5-0.1,0.4l-0.8-0.7
			c0.4,0.6,1.9,1.8,3.3,3.1c-1.1-0.8-1.3-1.1-2.3-2c-0.7-0.4-0.2,0.3-0.4,0.4c-0.8-0.6-1.2-0.9-1.5-1.2c0.7,0.8-0.4,0.1,1.4,1.7
			c-0.7-0.6-0.5-0.3-0.9-0.6c0.4,0.3,0.9,0.7,0.8,0.7c0.7,0.7,1.2,1.4,0.5,1l-0.5-0.5c-0.5,0,2.6,2.6,1.1,1.8
			c-0.4-0.3-1.5-1.3-1.5-1.2c0.6,0.6,2.1,1.7,1.6,1.5l-1.2-1l1.2,1.1c1,0.8,0.8,0.4,1.8,1.4c-1.2-0.8,1.1,1-0.4,0
			c-0.1-0.1-1-0.9-1.5-1.3c-1.6-0.9,0.9,1.3-0.8,0.3c0.9,0.9,0.9,1.2,1.7,2c-1.2-1-2.3-1.9-3.2-2.7c-0.2,0,2.5,2.3,0.6,0.9
			c1.6,1.4,0.8,1.1,3.1,3.1c-0.5-0.4-0.1,0.1-1.3-1.1c0.6,0.8-2.2-1.5-2.2-1.4c0,0.1,1.5,1.2,1.5,1.3c-0.1-0.1-0.3-0.3-0.5-0.3
			l0.5,0.5c-0.6-0.4-1.1-1-1.7-1.5c-0.6-0.3,1.2,1.3,1.2,1.5l-0.4-0.4l-0.2,0.1l-0.1-0.1l0.7,0.8l-0.6-0.5c0.1,0.2,0.5,0.5,0.6,0.6
			l-0.7-0.6c1.1,1,1.6,1.6,1.6,1.7l-0.3-0.3l1.4,1.4c-0.9-0.6-1.7-1.5-1.3-0.9l-1.5-1.3c0.5,0.6-0.3,0,0.1,0.4
			c0.8,0.6,0.7,0.5,1.4,1c-1.8-1.3,0.3,0.5,1,1.2c0-0.1,0-0.1-0.8-0.8c0.1,0,0.8,0.6,0.9,0.7l-0.8-0.8l1.1,0.8l-0.7-0.8
			c1.2,1,0.2,0,1.5,1.1c-0.4-0.5,0.5,0.2-0.7-0.9c0.8,0.5,0.8,0.8,1,0.9c-0.7-1.1-0.3-1.3,0.4-1.3l0.5,0.5c-0.5-0.5-0.9-0.9-1.3-1.2
			c1,0.7,2.4,1.5,0.7,0c0.1,0.1,0.4,0.3,0.5,0.4c-0.1-0.3,1.3,0.6,1.3,0.3c-1.9-1.6,1.4,0.8-1.2-1.4l0.5,0.5
			c-0.8-0.5-1.8-1.6-2.4-2.1c1.7,1.4,1.3,1.1,2.9,2.3l-0.6-0.4l1.4,1.1c-3.5-3.2,2,1-0.6-1.3c0.1,0.1,0.4,0.3,0.5,0.4
			c0.9,0.6-0.9-0.9-1.3-1.4c0.7,0.6,1.1,1,1.6,1.4c0.7,0.3-1-1.5,0.2-0.7c-0.9-0.8-1.3-1-2-1.7c0.3,0.2,1.1,0.8,1.5,1.2
			c1.9,1.3-0.8-1.4,1-0.3c-1-1-1.5-1.3-2-2c0.6,0.6,2.4,1.8,2.3,2l0.7,0.6c0.3,0,0.7,0-1.3-1.9c1.6,1.3,0.3,0.2,1.2,0.8
			c-0.2-0.2-0.2-0.2-0.3-0.3c-1.3-1.1,0.1,0,0-0.3l0.3,0.2l-0.9-0.9c0.2,0.1,0.5,0.4,1,0.7l-1.1-0.9c0-0.1,1.4,1.1,1.2,0.8l-0.8-0.6
			c0.5,0.4-0.5-0.6,0.7,0.3c0.2,0.2,0.1,0.1,0.1,0.2c1.7,1.3-0.4-0.6,0.5-0.1l-1.8-1.4c-0.5-0.5,0.4,0.2,1,0.7
			c0-0.1,0.6,0.4,0.9,0.4c-0.4-0.4-0.6-0.5-1.1-1l0.5,0.3l0.9,0.8c-2.4-2.2,0.6-0.1-1.7-2.1c0.5,0.4,1,0.9,1.3,1.1
			c1.3,0.8-1.4-1.7,0-0.8c1.4,0.8,0.4-0.4,1.5,0l-0.5-0.4l0.5,0.1c-1-0.9-0.4-0.6-1.6-1.7c0.4,0.3,1,0.8,1.2,1
			c-0.1-0.2-0.5-0.7,0.1-0.2l0.4,0.4c0.4,0.1,0.6-0.1-0.2-0.9c-0.1-0.1,0.8,0.5,1.4,1c0.1,0-0.3-0.5-1-1.2c0.2,0.1,0.4,0.3,0.9,0.6
			l-1.1-1c0.2,0.1,0.9,0.8,1.3,1c-1.2-1.3,0.1-0.4,0.1-0.6l-0.6-0.5c-0.4-0.4,0.5,0.2,1,0.7c0.9,0.4-1.5-1.8-1-1.8
			c2.1,1.7-0.4-0.7,2,1.1c-0.5-0.6,0.5,0.1-0.8-1.1c0.2,0.2,0.3,0.3,0.4,0.3c0.9,0.7,0.4,0-0.1-0.6l0.7,0.6
			c-1.5-1.3-0.9-1.1-2.4-2.4c0.3,0.3,0.6,0.5,0.9,0.8c1.5,1.1-0.6-0.7-0.2-0.5c0.4,0.3,0.8,0.6,1.1,0.9c1.9,1.1-0.6-1.6,0.9-1
			c0.1-0.1-1.7-1.2-1.4-1.3c0.8,0.6,1.5,1.3,1.9,1.5c-0.9-0.8-0.7-0.7-0.5-0.7c0.5,0.4,0.9,0.7,1.2,1c0.7,0.4-1.1-1.2,0.3-0.3
			c-0.5-0.4-0.8-0.6-1-0.8c-1.3-1.2,1.7,0.6,0.9,0.1c0,0-0.2-0.2-0.4-0.3c0.1,0,0.4,0,1.2,0.6c-0.4-0.3-1.1-0.9-1.1-1l0.9,0.7
			c-0.2-0.2-0.7-0.6-0.8-0.7l-0.6-0.3c0.8,0.5-0.9-1,0.8,0.3l0,0.1l0.9,0.4c-0.7-0.6-1.4-1.1-1.1-1c1.9,1.2,0.6,0,0.9,0l0.7,0.4
			c-0.9-0.7-0.3-0.7-0.6-0.9c0.1-0.1,0.6,0,1.2,0.4c-0.3-0.3-0.2-0.5-1.3-1.2l1.8,0.7c-2.4-1.4,1.1,0-1.5-1.3
			c0.5,0.1,1.1,0.4,1.6,0.5c-1.2-0.8-0.9-0.8-0.6-0.9l0.3,0.1c0.3-0.1-1-0.9-1.1-1.2l2.2,0.7c-0.2-0.3-1.9-0.8-1.4-0.8
			c0.3,0.1,0.4,0.1,0.6,0.2c-0.4-0.3,0.2-0.3,0.8-0.2c-1.5-0.6-0.9-0.6-2.6-1.2c2,0.3,0.8,0.4,2.7,0.7c1.1-0.1,0.1-0.7-0.8-1.1
			c0.4,0,0.8,0.1,1.2,0.2c0,0-1.3-0.4-2.9-0.8c-1.6-0.4-3.5-0.7-4.6-0.8c-1.5-0.3-2.3-0.4-3.6-0.5c0.9,0.1,1.9,0.4,0.3,0.2l1.6,0.3
			c0.7,0.3-3.2-0.6-3.2-0.5l0.5,0.1c0.1,0,1.1,0.3,0.6,0.2c-0.4-0.1-0.6-0.2-1-0.2c0.7,0.2,1.4,0.4,2.1,0.6c-0.9-0.2-1.4-0.3-2-0.5
			c0,0.1,2.8,0.7,2.2,0.6c-0.7-0.2-0.9-0.3-1.4-0.4c-1.3-0.3-0.1,0,0.7,0.3c-1.3-0.4-1.2-0.4-2.1-0.6c0.7,0.2,1.9,0.6,2,0.6
			c-1.4-0.4-0.7-0.2-1.1-0.3c0.5,0.2,1.1,0.4,1.3,0.5c0.2,0.1-0.3-0.1-0.3,0l1.3,0.4c1.2,0.5-0.7-0.1-1.3-0.3
			c-0.2-0.1-0.4-0.2-0.5-0.2c-0.6-0.2-1.6-0.6-0.5-0.1l-0.2-0.1c1.2,0.7,2.2,0.9,3.3,1.6c-0.3-0.1-4.2-1.9-2.7-1.1
			c1.1,0.5,2.6,1.3,3,1.7c-0.8-0.4-1.6-0.9-2.4-1.3c0,0,0.6,0.4,0.4,0.3l0.5,0.3c2.1,1.1-0.3-0.1,0.9,0.7c-2.7-1.6-2.2-1.3-5-2.8
			c1.5,0.8,2.9,1.6,2.5,1.6l-2.1-1.2c-0.5-0.2,2.5,1.7,4.2,2.9c-1.5-1-2.1-1.3-3.4-2.1l0.3,0.3l-1.6-1.1c1.7,1.1,0.5,0.4,2.7,1.8
			c-0.3-0.2-0.5-0.4-0.5-0.3c0.7,0.4,2,1.3,1.9,1.3c-0.6-0.3-0.8-0.6-1.4-1c0.9,0.6-0.6-0.3,0,0.1l1,0.6c1.2,0.9,0,0.1,0.6,0.6
			c-0.5-0.4-1.2-0.9-2-1.4l0.2,0.1c0.1,0.1,0.9,0.7,0.2,0.2l-1.7-1.2l1.2,0.9c-0.2-0.1-0.8-0.5-1.1-0.8c-1.1-0.6,3.7,2.6,2,1.6
			c-0.6-0.5-1.1-0.8-0.6-0.6c-1-0.7-1.6-1.2-2-1.4c-0.1-0.1-0.1-0.1-0.2-0.1C286.5,442.6,286.4,442.6,287.4,443.5z"/>
		<path fill="#FFC235" d="M286.6,442.5c0,0,0.1-0.1-0.2-0.2C286.1,442.1,285.6,441.8,286.6,442.5z"/>
		<path fill="#FFC235" d="M281.1,452.4c0,0-0.1-0.1-0.1-0.2C281,452.3,281.1,452.3,281.1,452.4z"/>
		<path fill="#FFC235" d="M281.2,453.3c0.2,0.1,0.3,0.2,0.4,0.3C281.2,453.3,281,453.1,281.2,453.3z"/>
		<path fill="#FFC235" d="M284.3,447.5C284.3,447.5,284.3,447.5,284.3,447.5C284.3,447.5,284.3,447.5,284.3,447.5z"/>
		<path fill="#FFC235" d="M281.6,449.9c0.5,0.5,0.9,0.8,1.3,1.2C282.8,450.9,282.5,450.6,281.6,449.9z"/>
		<path fill="#FFC235" d="M283,449.5c-0.1-0.1-0.1-0.1-0.2-0.2C282.9,449.4,282.9,449.4,283,449.5z"/>
		<path fill="#FFC235" d="M283.7,446.7c0.5,0.5,0.4,0.5,0.7,0.8C284.1,447.3,284.7,447.6,283.7,446.7z"/>
		<polygon fill="#FFC235" points="282.5,455.3 281.7,454.6 282.2,455.1 		"/>
		<path fill="#FFC235" d="M282.3,454.4c0.2,0.1-0.2-0.4-0.7-0.7C282,454.1,282.1,454.2,282.3,454.4z"/>
		<polygon fill="#FFC235" points="284.5,453.3 283.6,452.6 284.3,453.2 		"/>
	</g>
</g>
<g>
</g>
<g>
</g>
<g>
</g>
<g>
</g>
<g>
</g>
<g>
</g>
<g>
</g>
<g>
</g>
<g>
</g>
<g>
</g>
<g>
</g>
<g>
</g>
<g>
</g>
<g>
</g>
<g>
</g>
</svg>
