<?xml version="1.0" encoding="utf-8"?>
<!-- Generator: Adobe Illustrator 21.0.2, SVG Export Plug-In . SVG Version: 6.00 Build 0)  -->
<!DOCTYPE svg PUBLIC "-//W3C//DTD SVG 1.1//EN" "http://www.w3.org/Graphics/SVG/1.1/DTD/svg11.dtd">
<svg version="1.1" id="Layer_1" xmlns="http://www.w3.org/2000/svg" xmlns:xlink="http://www.w3.org/1999/xlink" x="0px" y="0px"
	 viewBox="0 0 230 230" style="enable-background:new 0 0 230 230;" xml:space="preserve">
<style type="text/css">
	.st0{fill:#C8C8C8;}
	.st1{fill:#DCDCDC;}
	.st2{fill:#FFFFFF;}
	.st3{fill:#ACACAC;}
	.st4{fill:#6F6F6F;}
	.st5{fill:#7F7F7F;}
	.st6{fill:#898989;}
</style>
<title>zar</title>
<path class="st0" d="M61.4,61.4c0,0-0.8-2.1,4.1-3.5s12-1.6,16.4,3.1s6.4,7,6.4,7L74.9,80.3c0,0-4.9-10.4-8.3-13.3
	S61.6,63.8,61.4,61.4z"/>
<path class="st0" d="M167.5,62.6c0,0,1-2-3.7-3.8s-11.8-2.7-16.6,1.6s-7.1,6.3-7.1,6.3l12.2,13.5c0,0,5.8-9.9,9.5-12.5
	S167,64.9,167.5,62.6z"/>
<path class="st1" d="M153.4,74.5c0.1-0.3-5.3-5.6-5.3-5.6c-11.6-8.9-23-11.9-33.2-11.8c-10.2-0.5-21.7,2.1-33.6,10.6
	c0,0-5.6,5.1-5.5,5.4c0.2,0.9-5.4,7.9-6,9.2c-2.4,4.9-3.9,10.2-4.5,15.7c-1.1,10.5,0.3,21,1.5,31.4c1.1,9,0.9,18.5,3.1,27.3
	c6.2,25.4,36.9,30.9,59,25.7c12.5-3,23.3-9.4,27.3-22.3c4.8-15.5,4.1-33.4,6.5-49.4C164.6,97.9,161.3,84.8,153.4,74.5z"/>
<path class="st2" d="M98.2,133l9.3-43.2c0.3-1.5,1.8-2.4,3.2-2.1c1,0.2,1.8,1,2.1,2l10.5,43.4c0.6,2.5-0.9,5.1-3.4,5.8
	c-6.1,1.7-12.5,1.6-18.5-0.4C99.1,137.8,97.7,135.4,98.2,133z"/>
<ellipse transform="matrix(8.767731e-02 -0.9961 0.9961 8.767731e-02 -44.5293 203.8181)" class="st3" cx="89" cy="126.2" rx="5.2" ry="5.2"/>
<ellipse transform="matrix(8.767731e-02 -0.9961 0.9961 8.767731e-02 -44.5293 203.8181)" class="st4" cx="89" cy="126.2" rx="3.3" ry="3.3"/>
<ellipse transform="matrix(8.767731e-02 -0.9961 0.9961 8.767731e-02 -3.8121 248.2801)" class="st3" cx="133.6" cy="126.2" rx="5.2" ry="5.2"/>
<ellipse transform="matrix(8.767731e-02 -0.9961 0.9961 8.767731e-02 -3.8121 248.2801)" class="st4" cx="133.6" cy="126.2" rx="3.3" ry="3.3"/>
<path class="st5" d="M95.4,140.7c-0.4,0.7-0.8,1.5-1,2.4c-0.2,0.8-0.3,1.6-0.3,2.4c0.1,0.8,0.4,1.5,0.8,2.2c0.2,0.4,0.3,0.7,0.6,1.1
	c0.2,0.4,0.5,0.7,0.7,1.1l0,0c0,0,0,0.1,0,0.1c0,0,0,0,0,0l0,0c-0.9-0.3-1.7-0.9-2.2-1.6l-0.2-0.3c-0.1-0.1-0.1-0.2-0.2-0.3
	c-0.1-0.2-0.2-0.5-0.2-0.7l-0.1-0.7c0-0.2,0-0.5,0-0.7c0-0.9,0.3-1.8,0.7-2.7C94.2,142.1,94.7,141.3,95.4,140.7
	C95.3,140.6,95.4,140.6,95.4,140.7C95.4,140.7,95.4,140.7,95.4,140.7L95.4,140.7z"/>
<path class="st5" d="M127.9,140.1c0.8,0.5,1.5,1.2,2,2.1c0.5,0.9,0.7,1.9,0.8,2.9c0.1,1-0.1,2.1-0.5,3c-0.2,0.4-0.5,0.9-0.8,1.3
	c-0.3,0.4-0.6,0.8-1,1.1c0,0-0.1,0-0.1,0c0,0,0,0,0,0l0,0c0.1-0.5,0.2-1,0.4-1.4c0.1-0.5,0.3-0.9,0.4-1.3c0.1-0.2,0.1-0.4,0.2-0.6
	c0.1-0.2,0.1-0.4,0.2-0.6l0.2-0.6l0.1-0.7c0.1-0.9,0-1.8-0.3-2.6c-0.3-0.9-0.8-1.6-1.5-2.3l0,0C127.9,140.2,127.8,140.2,127.9,140.1
	C127.9,140.1,127.9,140.1,127.9,140.1L127.9,140.1L127.9,140.1z"/>
<path class="st6" d="M106.2,146.5c0.1-0.4-0.2-0.8-1-1.4c-1.4-1-5.4-2.3-6.1-0.1c-0.5,1.6,0.4,2.4,2.2,2.6
	C102.7,147.8,106,147.6,106.2,146.5z"/>
<path class="st6" d="M115.8,146.2c0-0.4,0.4-0.8,1.4-1.2c1.7-0.8,6.3-1.5,6.7,0.7c0.3,1.6-0.9,2.2-2.8,2.2
	C119.4,147.8,115.9,147.2,115.8,146.2z"/>
<path class="st5" d="M111.9,160.3c-0.3-0.8-0.5-1.6-0.6-2.5c-0.1-0.8-0.2-1.6-0.2-2.5c0-0.8,0.1-1.6,0.2-2.5
	c0.1-0.8,0.3-1.7,0.6-2.5h0.1c0,1.6,0,3.3,0,4.9s0,3.3,0,4.9L111.9,160.3z"/>
<path class="st5" d="M105.9,160.4c2.3-0.5,4.6-0.9,6.9-1c1.2-0.1,2.3-0.1,3.5-0.1s2.3,0.1,3.4,0.1s2.2,0,3.2,0c1,0,2.1-0.1,3.1-0.3
	c2.1-0.3,4-1,5.9-2l0.1,0.1c-1.6,1.4-3.5,2.4-5.6,2.9c-2.3,0.5-4.6,0.7-6.9,0.6c-1.2,0-2.3-0.1-3.5-0.2s-2.3-0.1-3.4-0.1
	c-2.3,0-4.6,0-6.9,0.1L105.9,160.4z"/>
<path class="st5" d="M119.8,160.4c-2.3-0.5-4.6-0.9-6.9-1c-1.2-0.1-2.3-0.1-3.5-0.1s-2.3,0.1-3.4,0.1s-2.2,0-3.2,0
	c-1,0-2.1-0.1-3.1-0.3c-2.1-0.3-4-1-5.9-2l-0.1,0.1c1.6,1.4,3.5,2.4,5.6,2.9c2.3,0.5,4.6,0.7,6.9,0.6c1.2,0,2.3-0.1,3.5-0.2
	s2.3-0.1,3.4-0.1c2.3,0,4.6,0,6.9,0.1L119.8,160.4z"/>
</svg>
