<?xml version="1.0" encoding="utf-8"?>
<!-- Generator: Adobe Illustrator 21.0.2, SVG Export Plug-In . SVG Version: 6.00 Build 0)  -->
<svg version="1.1" id="Layer_1" xmlns="http://www.w3.org/2000/svg" xmlns:xlink="http://www.w3.org/1999/xlink" x="0px" y="0px"
	 viewBox="0 0 32 32" style="enable-background:new 0 0 32 32;" xml:space="preserve">
<style type="text/css">
	.st0{fill:#FFFFFF;}
	.st1{fill:#3B5998;}
</style>
<rect x="11.5" y="2" class="st0" width="16" height="30"/>
<title>fb</title>
<path class="st1" d="M30,0H2C0.9,0,0,0.9,0,2v28c0,1.1,0.9,2,2,2h15V20h-4v-5h4v-3c0-4.1,2.3-7,6-7h4v5h-2c-1.4-0.2-2.8,0.8-3,2.2
	c0,0.3,0,0.5,0,0.8v2h5l-1,5h-4v12h8c1.1,0,2-0.9,2-2V2C32,0.9,31.1,0,30,0z"/>
</svg>
