<?xml version="1.0" encoding="utf-8"?>
<!-- Generator: Adobe Illustrator 18.0.0, SVG Export Plug-In . SVG Version: 6.00 Build 0)  -->
<!DOCTYPE svg PUBLIC "-//W3C//DTD SVG 1.1//EN" "http://www.w3.org/Graphics/SVG/1.1/DTD/svg11.dtd">
<svg version="1.1" id="Layer_1" xmlns="http://www.w3.org/2000/svg" xmlns:xlink="http://www.w3.org/1999/xlink" x="0px" y="0px"
	 viewBox="0 0 436.8 282.7" enable-background="new 0 0 436.8 282.7" xml:space="preserve">
<g>
	<path fill="#FFFFFF" d="M336,255.6H100.9C45.4,255.6,0,210.2,0,154.8l0-53.9C0,45.4,45.4,0,100.9,0L336,0
		c55.5,0,100.9,45.4,100.9,100.9v53.9C436.8,210.2,391.4,255.6,336,255.6z"/>
	<g>
		<path fill="#EA8C38" d="M102.3,44v4h-5v26.1c0,3-1.4,4.5-4.2,4.5h-6.8l-1-4c2.2,0.2,4.3,0.2,6.3,0.2c1,0,1.5-0.6,1.5-1.7V48H66.3
			v-4H102.3z M87.1,68.5H74.6v3.2h-4V52.8h16.5V68.5z M83.1,64.8v-8.2h-8.6v8.2H83.1z"/>
		<path fill="#EA8C38" d="M111.1,63.5v-3.8h35.7v3.8h-15.3v3.4h11v3.7h-11v3.8c1.8,0.2,3.9,0.2,6.2,0.2c3.6,0,6.6-0.1,9-0.2
			l-1.2,3.9c-2.8,0-5.3,0-7.6-0.1c-6.6,0-11.2-0.6-13.6-1.5c-1.9-0.8-3.6-2.4-5.1-4.6c-1.5,2.7-3.4,4.9-5.7,6.7l-2.7-3.5
			c3.6-2.8,6-6.5,7.3-11.1l4,0.7c-0.4,1.4-0.8,2.7-1.3,4c1.5,2.4,3.3,3.8,5.2,4.5c0.4,0.1,0.8,0.2,1.3,0.4V63.5H111.1z M141.6,43
			v14.6h-25V43H141.6z M137.5,48.7v-2.1h-16.8v2.1H137.5z M137.5,52h-16.8v2.2h16.8V52z"/>
		<path fill="#EA8C38" d="M191.5,62.4c-0.1,7.9-0.6,12.6-1.6,14.1c-1,1.6-2.8,2.4-5.4,2.4c-1.1,0-2.4-0.1-4-0.2l-1.1-3.9
			c1.6,0.1,3,0.2,4.1,0.3c1.6,0,2.6-0.6,3-1.5c0.4-0.9,0.6-3.4,0.7-7.4h-23.9c-1.8,1.8-3.9,3.4-6,4.8l-2.1-3.7
			c5.8-3.8,10-9.1,12.8-15.7h-10v-3.7h5.9c-0.8-1.2-1.7-2.4-2.7-3.7l3.3-2.1c1.4,1.7,2.5,3.2,3.3,4.5l-1.9,1.3h3.5
			c0.6-1.9,1-3.9,1.4-6l4.1,0.5c-0.4,1.9-0.8,3.7-1.3,5.4h12.2l-1.4,7.1h4.8l-1.3,7.5H191.5z M166.4,69.1c-1,3.3-2.5,6.2-4.4,8.6
			l-3.6-2.3c2-2.2,3.4-4.6,4.2-7.2L166.4,69.1z M166.7,62.4h17.2l0.8-3.8h-15.5C168.4,60,167.6,61.2,166.7,62.4z M172.9,76l-4,0.5
			c-0.2-3.1-0.6-5.5-1.2-7.2l3.5-0.4C172,70.6,172.6,73,172.9,76z M172.5,51.6c-0.4,1.2-0.9,2.3-1.4,3.4h9.2l0.9-3.4H172.5z
			 M179.4,74.1l-3.8,1.4c-0.6-2.2-1.3-4.4-2.1-6.5l3.2-0.9C177.9,70.3,178.8,72.3,179.4,74.1z M185.5,72.8l-3.8,1
			c-0.6-2-1.3-3.8-2.2-5.6l3.3-1.1C183.8,68.6,184.7,70.6,185.5,72.8z"/>
		<path fill="#EA8C38" d="M200.9,62l-1.4-4.4c4-4.6,7-9.9,9-16.1l3.9,1.8c-0.9,2.8-2.1,5.4-3.5,8V79h-4.2V57.6
			C203.6,59.2,202.3,60.6,200.9,62z M225.9,41.9v12.6h10.9v4.2h-10.9v20.2h-4.3V58.7h-10v-4.2h10V41.9H225.9z"/>
		<path fill="#EA8C38" d="M266.3,44.2h14.2v3.5h-29.2v11.1c-0.1,8.2-1.4,14.8-3.7,19.7l-3.2-2.8c1.8-4,2.8-9.7,2.9-16.9V44.2h14.9
			c-0.4-0.8-0.8-1.4-1.2-2l4.1-0.6C265.5,42.3,265.9,43.2,266.3,44.2z M256,54.9c-0.1,3.4-0.9,5.9-2.5,7.6l-2-1.7
			c1.3-1.3,2-3.3,2.1-5.9H256z M280.6,76.6l-3.3,2.3c-0.6-1-1.2-2-1.8-2.9c-5.7,1-13,1.7-22,2.3l-1.1-3.4c1.2-0.1,2.4-0.4,3.4-0.7
			c2.2-1,4.7-2.4,7.3-4.2c-2.7,0.1-5.6,0.2-8.6,0.3l-0.8-3.2c0.9-0.1,1.7-0.4,2.5-0.7c1.5-0.6,3.4-2.2,5.8-4.9l3.8,0.9
			c-1.6,1.8-3.4,3.4-5.2,4.6c2.2-0.1,4.4-0.2,6.6-0.3c1.3-1.1,2.6-2.2,4-3.4L275,65c-4.9,4.1-9.2,7.2-12.9,9.4
			c4.2-0.4,8-0.9,11.2-1.4c-0.7-0.9-1.4-1.8-2.1-2.7l3.2-2C277,71.4,279.1,74.2,280.6,76.6z M257,50.6v-2.1h3.6v2.1h4.3v3.1h-4.7
			v8.1h-2.9v-8.1h-4.9v-3.1H257z M264.2,54.9v3c0,0.4,0.2,0.6,0.5,0.6h1.4v2.3h-2.4c-1.4,0-2-0.9-2-2.6v-3.3H264.2z M271.3,50.6
			v-2.1h3.6v2.1h5v3.1h-5.3v8.1h-2.9v-8.1h-5.3v-3.1H271.3z M270.2,54.9c0,3.2-0.6,5.6-1.7,7.3l-2-1.7c0.8-1.2,1.2-3.1,1.2-5.6
			H270.2z M278.5,54.9v3.8c0,0.4,0.3,0.7,1,0.7h1.6v2.2h-2.5c-1.7,0-2.5-0.9-2.5-2.7v-4H278.5z"/>
		<path fill="#EA8C38" d="M325.8,43.1v3.8h-11.4v2.6h9v10.8h-16.3l-1.4,2.5h20.6v3.8H318c-0.8,2-2,3.7-3.7,5.2
			c3.8,1.1,7.6,2.4,11.5,3.9l-2.6,3.4c-4.2-1.8-8.4-3.4-12.6-4.7c-3.8,1.9-9.9,3.4-18.4,4.6l-1.6-3.8c6.1-0.6,10.8-1.5,14.4-2.6
			c-3-0.9-6-1.6-8.9-2.3c0.9-1.3,1.7-2.5,2.5-3.8h-9v-3.8h11.4c0.5-0.9,1-1.7,1.5-2.5h-10V49.5h9v-2.6h-11.4v-3.8H325.8z M301.5,53
			h-5v3.8h5V53z M313.6,66.7h-10.3c-0.5,0.8-1,1.4-1.4,2.1c2.6,0.5,5.2,1.2,7.9,1.9C311.6,69.5,312.8,68.2,313.6,66.7z M310.4,46.9
			h-5v2.6h5V46.9z M310.4,53h-5v3.8h5V53z M319.4,53h-5v3.8h5V53z"/>
		<path fill="#EA8C38" d="M353.1,64.3c-2.1,0.7-4.3,1.4-6.6,2v8.1c0,2.6-1.4,4-4.2,4h-4.5l-0.9-4c1.4,0.2,2.7,0.2,4,0.2
			c0.9,0,1.4-0.5,1.4-1.4v-6c-2.3,0.5-4.7,0.9-7.2,1.3l-0.6-4.2c2.7-0.4,5.3-0.9,7.8-1.4v-6.9h-7.8v-4h7.8v-3.7
			c-1.9,0.4-3.9,0.7-6,1l-0.9-4c5.5-0.6,10.5-1.8,14.8-3.5l1.4,3.9c-1.6,0.6-3.4,1.1-5.2,1.6v4.7h8.2c-0.2-3.1-0.3-6.5-0.3-10.2h4.2
			c0,3.8,0.2,7.2,0.4,10.2h12v4h-11.6c0.2,2.6,0.6,4.7,1,6.4c0.2,0.6,0.3,1.2,0.5,1.8c1.6-2,3.1-4.3,4.3-6.8l3.6,1.9
			c-1.8,3.6-3.9,6.8-6.3,9.4c0.4,1,0.8,1.8,1.3,2.4c1.1,1.8,2,2.6,2.6,2.6c0.4,0,0.9-2,1.4-6l3.7,2c-1,5.7-2.5,8.6-4.5,8.6
			c-1.8,0-3.6-1.2-5.5-3.6c-0.7-0.9-1.4-2-2-3.2c-2.7,2.2-5.8,4-9.1,5.3l-2.3-3.6c3.7-1.4,6.9-3.3,9.7-5.8c-0.4-1.3-0.8-2.6-1.2-4
			c-0.6-2.2-1-4.7-1.4-7.6h-8.6V62c2.3-0.6,4.6-1.2,6.6-2V64.3z M370.1,47.6l-3,3c-1.6-1.8-4-3.6-7-5.6l2.8-2.7
			C365.7,44,368.1,45.8,370.1,47.6z"/>
		<path fill="#EA8C38" d="M101.1,136.7l-3.6,2.5c-0.6-1.1-1.2-2.2-1.9-3.2c-9.2,0.8-17.9,1.4-26.2,1.9l-0.7-3.4
			c3.2-1.7,6.5-5.8,9.9-12.2H66.3v-4.1h15.8v-6.2H68.8v-4h13.4V102h4.2v5.9h13.3v4H86.4v6.2h15.8v4.1H83.4c-2.5,5.1-5,9-7.5,11.7
			c8.1-0.6,14-1,17.6-1.4c-1.5-2.3-3.2-4.6-5.1-7.1l3.4-2.2C95.8,128.4,98.9,132.9,101.1,136.7z"/>
		<path fill="#EA8C38" d="M142.3,114.9V133h-7c3.8,0.7,7.6,1.6,11.1,2.8l-1.4,3.4c-4.1-1.6-8.3-2.8-12.7-3.6l1.3-2.5h-9.4l1.6,2.2
			c-2.9,1.7-7,3-12.4,4.1l-1.9-3.3c4.6-0.8,8.3-1.8,11-3h-6.8v-18.1H142.3z M144.4,103.1v10.2h-31v-10.2H144.4z M122.5,106.5h-5.1
			v3.6h5.1V106.5z M138.2,120v-1.9h-18.5v1.9H138.2z M138.2,124.8v-1.9h-18.5v1.9H138.2z M138.2,127.7h-18.5v2h18.5V127.7z
			 M131.6,106.5h-5.3v3.6h5.3V106.5z M140.4,106.5h-5v3.6h5V106.5z"/>
		<path fill="#EA8C38" d="M177.2,119.2c0,3.9-1.8,6.9-5.5,8.8l-1.4-2.3c2.4-1.5,3.7-3.3,3.9-5.6c-0.2,0-0.5,0.1-0.8,0.1
			c-0.9,0-1.6-0.3-2.2-0.8c-0.6-0.6-0.9-1.3-0.9-2.1c0-0.9,0.3-1.6,0.9-2.2s1.3-0.8,2.2-0.8C175.9,114.3,177.2,116,177.2,119.2z"/>
		<path fill="#EA8C38" d="M201,122l-1.4-4.5c4.1-4.5,7.2-9.8,9.2-16l3.9,1.8c-1,3.1-2.4,6.1-4.1,8.9v26.6h-4.2v-20.6
			C203.3,119.5,202.2,120.8,201,122z M213.5,118.3l-3.6-2.2c3-4.4,5-9.2,6.2-14.2l3.9,0.8c-0.3,1.2-0.7,2.4-1,3.6h16.7v2.7
			c-0.6,2.4-1.4,4.8-2.3,7.1l-4-1.2c0.8-1.4,1.4-2.9,2-4.7h-13.8C216.3,113.2,215,115.9,213.5,118.3z M219.2,119.3
			c-1.4,5.5-3.2,10.3-5.4,14.4l-3.9-1.4c2.1-3.7,3.9-8.4,5.5-14L219.2,119.3z M216.9,138.6l-0.9-3.9c1.6,0.2,3.2,0.3,4.6,0.3
			c1,0,1.4-0.5,1.4-1.5v-20.4h4v21.4c0,2.8-1.4,4.2-4.1,4.2H216.9z M236.7,132.7l-3.7,1.6c-1.4-5.8-3.1-10.9-4.9-15.3l3.7-1.2
			C233.7,122.4,235.3,127.4,236.7,132.7z"/>
		<path fill="#EA8C38" d="M279.9,116h-4v-4.6h-25.4v4.6h-4v-8.2h6.8c-0.8-1.6-1.7-3-2.7-4.2l3.3-1.6c1,1.4,2,3.1,3,4.8l-2.1,1h6.4
			v-6h4.1v6h6.3l-2.2-1.2c1.3-1.6,2.3-3.2,3.1-4.7l3.4,1.6c-0.8,1.4-1.7,2.8-2.8,4.2h6.9V116z M277.4,139h-4v-1.5h-20.2v1.5h-4.1
			v-15.5h28.3V139z M273.5,113.3v8.6h-20.6v-8.6H273.5z M261.3,129v-2.2h-8.1v2.2H261.3z M261.3,134.2v-2.3h-8.1v2.3H261.3z
			 M269.7,116.4h-13v2.5h13V116.4z M265.3,129h8v-2.2h-8V129z M273.3,134.2v-2.3h-8v2.3H273.3z"/>
		<path fill="#EA8C38" d="M308.4,124.3c-2.1,0.7-4.3,1.4-6.6,2v8.1c0,2.6-1.4,4-4.2,4H293l-0.9-4c1.4,0.2,2.7,0.2,4,0.2
			c0.9,0,1.4-0.5,1.4-1.4v-6c-2.3,0.5-4.7,0.9-7.2,1.3l-0.6-4.2c2.7-0.4,5.3-0.9,7.8-1.4v-6.9h-7.8v-4h7.8v-3.7
			c-1.9,0.4-3.9,0.7-6,1l-0.9-4c5.5-0.6,10.5-1.8,14.8-3.5l1.4,3.9c-1.6,0.6-3.4,1.1-5.2,1.6v4.7h8.2c-0.2-3.1-0.3-6.5-0.3-10.2h4.2
			c0,3.8,0.2,7.2,0.4,10.2h12v4h-11.6c0.2,2.6,0.6,4.7,1,6.4c0.2,0.6,0.3,1.2,0.5,1.8c1.6-2,3.1-4.3,4.3-6.8l3.6,1.9
			c-1.8,3.6-3.9,6.8-6.3,9.4c0.4,1,0.8,1.8,1.3,2.4c1.1,1.8,2,2.6,2.6,2.6c0.4,0,0.9-2,1.4-6l3.7,2c-1,5.7-2.5,8.6-4.5,8.6
			c-1.8,0-3.6-1.2-5.5-3.6c-0.7-0.9-1.4-2-2-3.2c-2.7,2.2-5.8,4-9.1,5.3l-2.3-3.6c3.7-1.4,6.9-3.3,9.7-5.8c-0.4-1.3-0.8-2.6-1.2-4
			c-0.6-2.2-1-4.7-1.4-7.6h-8.6v5.9c2.3-0.6,4.6-1.2,6.6-2V124.3z M325.4,107.6l-3,3c-1.6-1.8-4-3.6-7-5.6l2.8-2.7
			C321,104,323.4,105.8,325.4,107.6z"/>
		<path fill="#EA8C38" d="M334.8,123.5v-3.8h35.7v3.8h-15.3v3.4h11v3.7h-11v3.8c1.8,0.2,3.9,0.2,6.2,0.2c3.6,0,6.6-0.1,9-0.2
			l-1.2,3.9c-2.8,0-5.3,0-7.6-0.1c-6.6,0-11.2-0.6-13.6-1.5c-1.9-0.8-3.6-2.4-5.1-4.6c-1.5,2.7-3.4,4.9-5.7,6.7l-2.7-3.5
			c3.6-2.8,6-6.5,7.3-11.1l4,0.7c-0.4,1.4-0.8,2.7-1.3,4c1.5,2.4,3.3,3.8,5.2,4.5c0.4,0.1,0.8,0.2,1.3,0.4v-10.3H334.8z M365.3,103
			v14.6h-25V103H365.3z M361.1,108.7v-2.1h-16.8v2.1H361.1z M361.1,112h-16.8v2.2h16.8V112z"/>
		<path fill="#EA8C38" d="M70.4,180.3h29v3H96v9.9h5.3v3.3H96v2.4H92v-2.4H67.4v-3.3h5.1v-9.9H70V181c-0.4,0.7-0.9,1.3-1.4,1.9
			l-2.7-2.4c1.4-1.5,2.2-3.4,2.2-5.7v-3.5h15.9v6.8H71.2C71,178.8,70.7,179.6,70.4,180.3z M74.2,163.6v-1.6h4v1.6H85v2.8h-6.8v1.3
			h5.4v2.7H68.5v-2.7h5.7v-1.3h-7.5v-2.8H74.2z M71.7,173.7v1c0,0.2,0,0.5,0,0.8h3.1v-1.8H71.7z M92,183.3H76.6v1.7H92V183.3z
			 M92,187.4H76.6v1.6H92V187.4z M92,191.5H76.6v1.7H92V191.5z M80.6,175.5v-1.8h-2.8v1.8H80.6z M98.3,162.8v3.4
			c0,0.5,0.2,0.7,0.8,0.7h3v2.8h-3.9c-2.1,0-3.2-0.9-3.2-2.7v-1.2h-4.1c0,1-0.3,2-0.8,2.8c-0.4,0.6-1.1,1.2-2,1.8h12.2v2.6
			c-0.7,1.2-1.8,2.4-3.3,3.4c1.6,0.4,3.4,0.7,5.4,1l-1.8,3c-2.9-0.5-5.4-1.2-7.4-2.2c-2,0.8-4.4,1.4-7.2,1.9l-1.6-2.9
			c2-0.3,3.8-0.6,5.4-1c-1.2-0.9-2.2-1.9-2.9-3h-1v-2.7h0.9l-1.8-1.6c1.1-0.9,1.9-1.7,2.2-2.4c0.3-0.8,0.5-2,0.5-3.6H98.3z
			 M93.2,175c1.4-0.6,2.5-1.2,3.4-1.9h-6.3C91,173.8,92,174.4,93.2,175z"/>
		<path fill="#EA8C38" d="M109.3,198.5l-0.9-4c1,0.2,2,0.2,3,0.2c0.9,0,1.3-0.5,1.3-1.4v-8.1c-1.4,0.5-2.8,1-4.2,1.4l-1-4.2
			c1.8-0.4,3.5-0.9,5.2-1.5v-7.9h-4.4v-4h4.4v-7.2h4.2v7.2h2.9v4h-2.9v6.2c1-0.5,2-1,3-1.5v4.2c-1,0.5-2,1-3,1.4v10.9
			c0,2.7-1.4,4.1-4.1,4.1H109.3z M121.7,186.5v-3.9h21.4v3.9h-8.6v7.3h10v4h-24.5v-4h10.3v-7.3H121.7z M131.8,170.5
			c-1,5.8-4,9.6-8.9,11.4l-2.1-3.3c4.1-1.4,6.6-4.4,7.4-9L131.8,170.5z M125,169.6v4.6h-3.9v-8.3h9.3c-0.5-1.4-1.1-2.6-1.8-3.8
			l4.3-0.7c0.6,1.4,1.2,2.8,1.7,4.5h9.2v8.3h-3.9v-4.6h-2.7v6.4c0,0.6,0.4,0.9,1.2,0.9h5.5v3.6h-7.4c-2,0-3-1-3-2.9v-8H125z"/>
		<path fill="#EA8C38" d="M164.9,196.4h-4v-2H155v3.2h-4v-29.2h3.8c0.7-2.1,1.2-4.3,1.6-6.6l4.2,0.6c-0.4,2.2-1,4.2-1.8,6h6.1V196.4
			z M160.9,179.3v-7H155v7H160.9z M160.9,190.6V183H155v7.6H160.9z M184.9,194.3c-0.4,2.8-2.3,4.2-5.8,4.2c-0.8,0-2.2-0.1-4.3-0.2
			l-1-3.8c1.8,0.1,3.3,0.2,4.6,0.2c1.4,0,2.3-0.8,2.5-2.4c0.2-1.9,0.4-8.5,0.4-19.8h-9.7c-1.1,2.4-2.4,4.6-3.8,6.5l-2.5-3.3
			c2.6-3.8,4.4-8.4,5.4-13.9l4.1,0.5c-0.4,2.2-0.9,4.2-1.5,6.1h12.2C185.5,182.4,185.3,191,184.9,194.3z M178.1,186.6l-3.4,2.3
			c-1.5-2.6-3.5-5.6-6-8.8l3.4-2.1C174.8,181.3,176.7,184.2,178.1,186.6z"/>
		<path fill="#EA8C38" d="M203.7,190.4h-6.8v2.5H193v-28.1h10.7V190.4z M199.8,186.6v-17.9h-3v17.9H199.8z M209,186.2
			c-0.6,4.2-1.2,7.9-2,11l-3.4-1.2c0.9-2.8,1.6-6.3,2.3-10.6L209,186.2z M227.8,180.8c0,9-0.5,14.2-1.6,15.7c-1,1.5-3,2.3-6,2.3
			c-1.1,0-2.2,0-3.4-0.1l-0.9-3.7c1.3,0.1,2.4,0.2,3.6,0.2c2.2,0,3.5-0.7,3.9-2.2c0.1-0.5,0.2-1,0.3-1.7l-2.7,1.1
			c-0.5-2.3-1.2-4.6-1.9-6.7l2.8-0.8c0.8,2.2,1.4,4.2,1.8,5.9c0.2-1.6,0.2-3.8,0.2-6.5h-17.9V163h21v3.5h-7.6v2.5h6.9v3.4h-6.9v2.6
			h7v3.4h-7v2.5H227.8z M210.1,166.5v2.5h5.6v-2.5H210.1z M210.1,174.9h5.6v-2.6h-5.6V174.9z M210.1,180.8h5.6v-2.5h-5.6V180.8z
			 M213.8,195.3l-3.3,0.4c-0.1-4.2-0.2-7.4-0.4-9.6l3-0.4C213.4,188.1,213.7,191.3,213.8,195.3z M218.9,193.3l-3.2,0.7
			c-0.3-3-0.7-5.7-1.1-8l3-0.6C218.1,187.8,218.5,190.5,218.9,193.3z"/>
		<path fill="#EA8C38" d="M259.3,167.7c1.6,1.4,2.4,3.3,2.4,5.8c0,2-0.5,3.6-1.5,4.9c-0.4,0.4-1.5,1.5-3.4,3.2
			c-0.7,0.6-1.2,1.2-1.6,2c-0.4,0.8-0.6,1.7-0.6,2.6v0.6H250v-0.6c0-1.5,0.2-2.8,0.8-3.9c0.5-1.1,1.4-2.2,2.8-3.4
			c1.3-1.2,2.1-1.9,2.4-2.3c0.7-0.9,1.1-1.8,1.1-2.8c0-1.3-0.4-2.4-1.1-3.1c-0.8-0.8-1.8-1.1-3.2-1.1c-1.7,0-3,0.5-3.8,1.6
			c-0.7,0.9-1,2.2-1,4h-4.6c0-3,0.8-5.3,2.6-7c1.7-1.7,4-2.5,7-2.5C255.6,165.6,257.7,166.3,259.3,167.7z M254.5,189.5
			c0.6,0.6,0.9,1.3,0.9,2.2s-0.3,1.6-0.9,2.2c-0.6,0.6-1.4,0.8-2.2,0.8c-0.9,0-1.6-0.3-2.2-0.9c-0.6-0.6-0.9-1.3-0.9-2.2
			s0.3-1.6,0.9-2.2c0.6-0.6,1.3-0.8,2.2-0.8C253.1,188.7,253.9,189,254.5,189.5z"/>
	</g>
	<path fill="#FFFFFF" d="M154.4,232c0,0-29.2,43.7-74.6,50.7c0,0,20.9-21,12.7-62L154.4,232z"/>
	<path fill="#EA8C38" d="M65.9,88.3c102.3-1.4,204.6,0.4,306.7,5.5c0,0,0.1-2.5,0-2.5c-102.1-5-204.4-6.9-306.7-5.5
		C65.9,85.8,65.9,88.3,65.9,88.3L65.9,88.3z"/>
	<path fill="#EA8C38" d="M66,143.8c102.1,3.9,204.4,5,306.7,3.1c0.1,0,0-2.5,0-2.5c-102.2,1.9-204.6,0.9-306.7-3.1
		C66,141.3,65.8,143.8,66,143.8L66,143.8z"/>
	<path fill="#EA8C38" d="M65.9,207.3c69.3,3.9,138.8,5,208.2,3.1c0.1,0,0-2.5,0-2.5c-69.4,1.9-138.9,0.9-208.2-3.1
		C66,204.8,65.9,207.3,65.9,207.3L65.9,207.3z"/>
</g>
<g>
</g>
<g>
</g>
<g>
</g>
<g>
</g>
<g>
</g>
<g>
</g>
<g>
</g>
<g>
</g>
<g>
</g>
<g>
</g>
<g>
</g>
<g>
</g>
<g>
</g>
<g>
</g>
<g>
</g>
</svg>
