<svg xmlns="http://www.w3.org/2000/svg" viewBox="0 0 92.35 92.35"><title>cyn</title><g id="圖層_5" data-name="圖層 5"><path d="M65.44,32.57l18.33,5.7a3,3,0,0,1,1.46,4.68L82,47.06a3,3,0,0,1-4.05.61L64.35,38.16Z" style="fill:#ea5c50"/><path d="M64.8,31,83.9,29a3,3,0,0,1,3.18,3.73l-1.34,5a3,3,0,0,1-3.49,2.15L66,36.51Z" style="fill:#ea5c50"/><path d="M35.49,26.28a6.48,6.48,0,0,1-7.77,5,6.73,6.73,0,0,1-4.87-8.06,6.48,6.48,0,0,1,7.77-5A6.73,6.73,0,0,1,35.49,26.28Z" style="fill:#595857"/><ellipse cx="61.16" cy="25.85" rx="6.48" ry="6.72" style="fill:#595857"/><path d="M75.3,52.62c-1.08-5-3.47-10-4.83-14.58C69,33.17,67,28.18,62.54,25.33c-6.23-4-14.26-4.27-21.34-3.73q-2.15.16-4.28.46c-5.16.72-10.38,2.75-13.47,7.34C20.9,33.2,20,37.57,18.75,41.85c-1.33,4.51-3.62,9-4.2,13.71a15.35,15.35,0,0,0,3.84,11.73,17.17,17.17,0,0,0,8,4.72c.63.18,1.27.34,1.91.48l8.42,2.1A34.27,34.27,0,0,0,53,74.67l8.15-2A25.53,25.53,0,0,0,64,72h0a17.37,17.37,0,0,0,8.86-5.75C76.18,62,76.32,57.34,75.3,52.62Z" style="fill:#f7f8f8"/><path d="M42.52,42.29h4.62a3.38,3.38,0,0,1,3.31,3.44v0a3.49,3.49,0,0,1-1.23,2.67L47,50.33a3.22,3.22,0,0,1-4.13,0l-2.36-1.93a3.49,3.49,0,0,1-1.26-2.7h0A3.38,3.38,0,0,1,42.52,42.29Z" style="fill:#6f6f6f"/><path d="M22.55,43.55A16.47,16.47,0,0,1,24,41.33c2.07-2.61,5.24-5.47,8.86-4.45a7.34,7.34,0,0,1,4.72,4.6,9.36,9.36,0,0,1,.5,2.1,9.77,9.77,0,0,1-5.45,10.21C29.26,55.32,22.52,55,21.33,50.54A9.44,9.44,0,0,1,22.55,43.55Z" style="fill:#6f6f6f"/><ellipse cx="33.54" cy="44.87" rx="1.76" ry="1.83" style="fill:#fff"/><path d="M31.4,43.31a7.71,7.71,0,0,1,1.82-3.1,1.75,1.75,0,0,1,1.65-.56,2.2,2.2,0,0,1,1.33,1.41,4.61,4.61,0,0,1,.31,1.53,4.72,4.72,0,0,1-.07,1,4.42,4.42,0,0,1-.14.57,5.15,5.15,0,0,1-.27.6l-.34.37a6.76,6.76,0,0,0-1-.37c-.36-.1-.72-.22-1.09-.3l-1.11-.31c-.37-.1-.75-.23-1.12-.37Z" style="fill:#6f6f6f"/><ellipse cx="33.62" cy="44.68" rx="1.26" ry="1.3" style="fill:#6f6f6f"/><path d="M67.77,43.58c-2-3.51-5.76-7.72-10.26-6.91-3.14.57-4.89,4-5.24,6.9a9.77,9.77,0,0,0,5.45,10.21,10.53,10.53,0,0,0,8.79-.17C70.35,51.58,69.54,46.7,67.77,43.58Z" style="fill:#6f6f6f"/><ellipse cx="56.85" cy="44.87" rx="1.76" ry="1.83" style="fill:#fff"/><path d="M59.22,43.54a2.72,2.72,0,0,0-1.34-.76,2.65,2.65,0,0,0-1.29,0,2.75,2.75,0,0,0-1.18.67,2.62,2.62,0,0,0-.48.62,2.25,2.25,0,0,0-.17.4,1.61,1.61,0,0,0-.07.47l.09.11.24-.16.26-.14a5.46,5.46,0,0,1,.53-.24,9,9,0,0,1,1.12-.34c.38-.11.76-.2,1.15-.28l1.16-.23Z" style="fill:#6f6f6f"/><ellipse cx="56.85" cy="44.79" rx="1.26" ry="1.3" style="fill:#6f6f6f"/><line x1="44.83" y1="49.4" x2="44.83" y2="54.62" style="fill:none;stroke:#6f6f6f;stroke-miterlimit:10;stroke-width:3px"/><path d="M41,54.68l2.61-.85c.79-.24,1.54-.48,2.32-.69s1.55-.42,2.39-.61c.42-.09.86-.18,1.32-.25a9,9,0,0,1,1.49-.15l.1.14c-.37.26-.74.53-1.12.78s-.78.47-1.19.67a15,15,0,0,1-2.54,1,12.36,12.36,0,0,1-2.71.42,7.67,7.67,0,0,1-2.72-.34Z" style="fill:#6f6f6f"/><path d="M27.54,25.37S23,27.52,20.72,35.1h48.8S67.65,28,63.43,25.94Z" style="fill:#ea5c50"/><polygon points="28.86 28.91 29.63 27.18 30.53 28.85 32.41 29.05 31.11 30.42 31.5 32.27 29.79 31.45 28.15 32.4 28.4 30.52 27 29.26 28.86 28.91" style="fill:#fff"/><polygon points="32.5 27.19 32.71 26.73 32.95 27.18 33.45 27.23 33.1 27.59 33.2 28.08 32.75 27.87 32.31 28.12 32.38 27.62 32.01 27.28 32.5 27.19" style="fill:#fff"/><polygon points="34.38 28.86 34.59 28.41 34.83 28.85 35.33 28.9 34.98 29.27 35.09 29.76 34.63 29.54 34.2 29.79 34.26 29.29 33.89 28.96 34.38 28.86" style="fill:#fff"/><polygon points="34.38 31.49 34.59 31.03 34.83 31.47 35.33 31.52 34.98 31.89 35.09 32.38 34.63 32.16 34.2 32.41 34.26 31.91 33.89 31.58 34.38 31.49" style="fill:#fff"/><polygon points="32.5 32.81 32.71 32.35 32.95 32.8 33.45 32.85 33.1 33.21 33.2 33.71 32.75 33.49 32.31 33.74 32.38 33.24 32.01 32.91 32.5 32.81" style="fill:#fff"/></g></svg>