<?xml version="1.0" encoding="utf-8"?>
<!-- Generator: Adobe Illustrator 18.0.0, SVG Export Plug-In . SVG Version: 6.00 Build 0)  -->
<!DOCTYPE svg PUBLIC "-//W3C//DTD SVG 1.1//EN" "http://www.w3.org/Graphics/SVG/1.1/DTD/svg11.dtd">
<svg version="1.1" id="Layer_1" xmlns="http://www.w3.org/2000/svg" xmlns:xlink="http://www.w3.org/1999/xlink" x="0px" y="0px"
	 viewBox="0 0 149.3 113.6" enable-background="new 0 0 149.3 113.6" xml:space="preserve">
<g>
	<path fill="#F2A6A7" d="M55.4,98.4c0,0-38.3-62-8.9-87.1s71.3-6.2,76.2,33.5S55.4,98.4,55.4,98.4z"/>
	<circle fill="#FFE27F" cx="77.6" cy="27.7" r="5.2"/>
	<circle fill="#FFE27F" cx="90.5" cy="31.6" r="5.2"/>
	<line fill="none" stroke="#FFE27F" stroke-width="8" stroke-miterlimit="10" x1="77.6" y1="27.7" x2="62.2" y2="67.9"/>
	<line fill="none" stroke="#FFE27F" stroke-width="8" stroke-miterlimit="10" x1="90.8" y1="33.1" x2="77.2" y2="69.1"/>
	<path fill="#EE8697" d="M57.4,101.9c1.1,0.3,7-18.9,7.4-20.1c3.9-13.1,6.6-27.4,4.5-41c-1.9-12-8.4-22.9-19.1-29
		C37.2,4.5,19.8,5,9.6,16.7C-3.8,32.3-2.4,57,9,73.3C20,89,39.5,97.2,57.4,101.9z"/>
	<path fill="#EE8697" d="M57.4,101.9c-1-0.5,7.1-18.8,7.6-20c5.6-12.5,12.9-25,23.5-34c9.3-7.8,21.4-11.8,33.4-9.4
		c14.6,3,27.4,14.8,27.4,30.3c0,20.6-17.3,38.3-36.6,43.2C94.1,116.7,74.1,110.1,57.4,101.9z"/>
</g>
<g>
</g>
<g>
</g>
<g>
</g>
<g>
</g>
<g>
</g>
<g>
</g>
<g>
</g>
<g>
</g>
<g>
</g>
<g>
</g>
<g>
</g>
<g>
</g>
<g>
</g>
<g>
</g>
<g>
</g>
</svg>
