<?xml version="1.0" encoding="utf-8"?>
<!-- Generator: Adobe Illustrator 18.0.0, SVG Export Plug-In . SVG Version: 6.00 Build 0)  -->
<!DOCTYPE svg PUBLIC "-//W3C//DTD SVG 1.1//EN" "http://www.w3.org/Graphics/SVG/1.1/DTD/svg11.dtd">
<svg version="1.1" id="Layer_1" xmlns="http://www.w3.org/2000/svg" xmlns:xlink="http://www.w3.org/1999/xlink" x="0px" y="0px"
	 viewBox="0 0 541.4 485.1" enable-background="new 0 0 541.4 485.1" xml:space="preserve">
<g>
	<polygon fill="#58595B" points="320.4,177.2 448.5,195.8 448.5,288.5 328.7,309.7 	"/>
	<rect x="404.2" y="127.8" fill="#BCBEC0" width="40.3" height="357.3"/>
	<path fill="#58595B" d="M444.5,292.9L444.5,292.9c-19,0-34.5-15.5-34.5-34.5v-37.2c0-19,15.5-34.5,34.5-34.5h0
		c19,0,34.5,15.5,34.5,34.5v37.2C479,277.3,463.5,292.9,444.5,292.9z"/>
	<path fill="#F1625B" d="M308.9,76.7L385,99.7c8.3,2.5,11.5,12.5,6.2,19.3L378,136.2c-4,5.2-11.4,6.4-16.8,2.6l-56.6-39L308.9,76.7z
		"/>
	<path fill="#F1625B" d="M300.3,67.9l76.8-20.6c8.3-2.2,16.3,4.6,15.5,13.2L390.4,82c-0.7,6.5-6.3,11.4-12.9,11.1l-68.7-3.2
		L300.3,67.9z"/>
	<path fill="#FFFFFF" d="M91.9,166.2c0,0-23.3,15.9-46.3,41.5l91.3,91.2l-26.5-131.2L91.9,166.2z"/>
	<path fill="#58595B" d="M45.6,207.7c-20.6,22.8-41,53.2-44.8,86.9c-8,71.5,49.3,89.7,49.3,89.7s66,20.4,86.9-85.4l-8.5-42.1
		L45.6,207.7z"/>
	<path fill="#58595B" d="M43.6,277.5l-0.3,49.8l22.1,0.1c9.9,0.1,18-8,18.1-17.9l0.2-31.9c0-8.9-7.2-16.2-16.1-16.3l-7.7,0
		C51,261.3,43.7,268.5,43.6,277.5z"/>
	<g>
		<path fill="#58595B" d="M60.1,337.1c0,0,1.1,38.4,5.9,63.8c3.9,20.4,3.3,41.6-6.8,59.1c-0.1,0.2-0.2,0.4-0.3,0.6
			c-5.8,10.6,0.7,24.5,11.6,24.5h99.8c13.2,0,24-11.4,24-25.5v-44.2L60.1,337.1z"/>
	</g>
	<g>
		<path fill="#58595B" d="M353.6,337.1c0,0-1.1,38.4-5.9,63.8c-3.9,20.4-3.3,41.6,6.8,59.1c0.1,0.2,0.2,0.4,0.3,0.6
			c5.8,10.6-0.7,24.5-11.6,24.5h-99.8c-13.2,0-24-11.4-24-25.5v-44.2L353.6,337.1z"/>
	</g>
	<g>
		<path fill="#FFFFFF" d="M328.3,182.3l-21.7,14c-20.1-0.4-81.1-1.5-94.7-1.8c0-0.1,0.1-0.2,0.1-0.2c0,0-4.6,0.1-5,0.1
			c-0.4,0-5-0.1-5-0.1c0,0,0.1,0.1,0.1,0.2c-16.4,0.3-101.2,1.9-101.2,1.9s-45.7,58-41.9,132C63.2,408.5,138.5,439.8,207,437
			c47,1.9,97.3-12.2,125.5-47.2l0,0C396.6,316.8,328.3,182.3,328.3,182.3z"/>
	</g>
	<g>
		<path fill="#EDEDEE" d="M244.6,255.6c2.1-1.4,3.3-3.1,3.3-5.1c0.2-10-28.5-12.5-35.3-13.4c-19.9-2.7-39.9-3.7-59.8-5.9
			c-9.4-1.1-40.6-13.1-47.9-4.8c-12.9,14.5,63.7,35,73.9,35.7C197.2,263.3,228.5,266.6,244.6,255.6z"/>
	</g>
	<circle fill="#58595B" cx="131.2" cy="32.7" r="32.7"/>
	<circle fill="#58595B" cx="288.8" cy="38.3" r="32.7"/>
	<path fill="#FFFFFF" d="M302.3,33.9c-9-4.5-18.6-7.5-28.5-8.8c-5.7-0.8-39.8-2.8-56,0.9c-5.7,1.3-11.5,1.3-17.2,0
		c-16.2-3.7-50.3-1.7-56-0.9c-9.9,1.4-19.5,4.4-28.5,8.8C78.2,52.7,52.9,97,57.2,140.9c4.6,47.5,43.7,78.4,81.4,98.2
		c0.4,0.2,1.4,0.6,2.8,1.2c43.6,17.9,92.1,17.9,135.8,0c1.4-0.6,2.4-1,2.8-1.2c37.6-19.8,76.8-50.7,81.4-98.2
		C365.4,97,340.2,52.7,302.3,33.9z"/>
	<circle fill="#58595B" cx="133.5" cy="143.4" r="23.7"/>
	<path fill="#EDEDEE" d="M202.1,34.8c0,8.7-0.1,17.4-0.4,26c-0.2,4.7,12.6,0.9,12.7-3.2c0.3-8.7,0.4-17.4,0.4-26
		C214.8,26.8,202.1,30.7,202.1,34.8L202.1,34.8z"/>
	<path fill="#F1625B" d="M108.3,38.3h201.9c0,0,29.9,17.6,40.6,45.8L66.6,86.4C66.6,86.4,75.2,58.2,108.3,38.3z"/>
	<circle fill="#FFFFFF" cx="136.9" cy="135.3" r="11.5"/>
	<circle fill="#58595B" cx="136.9" cy="135.3" r="8.1"/>
	<circle fill="#58595B" cx="276.3" cy="143.4" r="23.7"/>
	<circle fill="#FFFFFF" cx="276.3" cy="135.3" r="11.5"/>
	<circle fill="#58595B" cx="276.3" cy="135.3" r="8.1"/>
	<path fill="#EDEDEE" d="M211.3,106.8h-11.8c-17.9,0-33.4,12.7-36.8,30.3l-4.8,25c-4.5,23.1,13.2,44.5,36.8,44.5h21.5
		c23.5,0,41.2-21.4,36.8-44.5l-4.8-25C244.7,119.5,229.3,106.8,211.3,106.8z"/>
	<path fill="#5F6062" d="M192,149.3h26.8c8.4,0,12.8,10.4,7.1,16.8l-8.2,9.2c-6.7,7.6-17.8,7.6-24.5,0l-8.2-9.2
		C179.2,159.7,183.6,149.3,192,149.3z"/>
	<path fill="#CFD1D2" d="M478.5,164.3H370.2c-34.7,0-62.9-28.2-62.9-62.9V64.1c0-34.7,28.2-62.9,62.9-62.9h108.3
		c34.7,0,62.9,28.2,62.9,62.9v37.3C541.4,136.2,513.2,164.3,478.5,164.3z"/>
	<g>
		<path fill="#FFFFFF" d="M356.4,86.5c0.2,1.7,0.7,3,1.4,3.9c1.3,1.6,3.5,2.3,6.7,2.3c1.9,0,3.4-0.2,4.6-0.6
			c2.2-0.8,3.4-2.2,3.4-4.4c0-1.2-0.6-2.2-1.6-2.9c-1.1-0.7-2.8-1.3-5.2-1.8l-4.1-0.9c-4-0.9-6.8-1.8-8.3-2.9
			c-2.5-1.7-3.8-4.5-3.8-8.2c0-3.4,1.2-6.2,3.7-8.4c2.5-2.2,6.1-3.3,10.9-3.3c4,0,7.4,1.1,10.3,3.2c2.8,2.1,4.3,5.2,4.5,9.2h-7.6
			c-0.1-2.3-1.2-3.9-3-4.8c-1.3-0.6-2.8-0.9-4.7-0.9c-2.1,0-3.7,0.4-5,1.2c-1.2,0.8-1.9,2-1.9,3.4c0,1.3,0.6,2.4,1.8,3
			c0.8,0.4,2.5,1,5,1.6l6.6,1.6c2.9,0.7,5.1,1.6,6.5,2.7c2.2,1.8,3.4,4.3,3.4,7.7c0,3.4-1.3,6.3-4,8.6c-2.7,2.3-6.4,3.4-11.3,3.4
			c-5,0-8.9-1.1-11.7-3.4c-2.8-2.2-4.3-5.3-4.3-9.2H356.4z"/>
		<path fill="#FFFFFF" d="M401.6,60.5h8.9l13.3,37.7h-8.5l-2.5-7.7h-13.9l-2.6,7.7h-8.2L401.6,60.5z M401.1,83.9h9.6L406,69.1
			L401.1,83.9z"/>
		<path fill="#FFFFFF" d="M433.9,60.5h7.9v30.9h18.8v6.8h-26.7V60.5z"/>
		<path fill="#FFFFFF" d="M498.9,67.2H479v8h18.3v6.5H479v9.7h20.9v6.8h-28.6V60.5h27.6V67.2z"/>
	</g>
	<path fill="#5F6062" d="M192,190.8c12.5-7.2,25.7-2.7,31.6,0.1c0.8,0.4,0.6,1.7-0.4,1.7l-30.8-0.1
		C191.5,192.4,191.2,191.3,192,190.8z"/>
	<g>
		<polygon fill="#FFFFFF" points="278.6,56.8 281.8,49.7 285.5,56.6 293.3,57.4 287.9,63.1 289.5,70.7 282.4,67.4 275.6,71.3 
			276.7,63.5 270.9,58.2 		"/>
		<polygon fill="#FFFFFF" points="293.7,49.7 294.5,47.8 295.5,49.7 297.6,49.9 296.2,51.4 296.6,53.4 294.7,52.5 292.9,53.6 
			293.2,51.5 291.6,50.1 		"/>
		<polygon fill="#FFFFFF" points="301.5,56.7 302.3,54.8 303.3,56.6 305.4,56.8 304,58.3 304.4,60.4 302.5,59.5 300.7,60.5 
			301,58.4 299.4,57 		"/>
		<polygon fill="#FFFFFF" points="301.5,67.5 302.3,65.6 303.3,67.5 305.4,67.7 303.9,69.2 304.4,71.2 302.5,70.3 300.7,71.4 
			301,69.3 299.4,67.9 		"/>
		<polygon fill="#FFFFFF" points="293.6,73 294.5,71.1 295.5,72.9 297.6,73.2 296.1,74.7 296.6,76.7 294.7,75.8 292.9,76.9 
			293.1,74.8 291.6,73.4 		"/>
	</g>
</g>
<g>
</g>
<g>
</g>
<g>
</g>
<g>
</g>
<g>
</g>
<g>
</g>
<g>
</g>
<g>
</g>
<g>
</g>
<g>
</g>
<g>
</g>
<g>
</g>
<g>
</g>
<g>
</g>
<g>
</g>
</svg>
