<svg xmlns="http://www.w3.org/2000/svg" viewBox="0 0 200 200"><title>stock</title><path d="M88.58,46a4.41,4.41,0,0,0,4.15,4.63l15.48,0A4.41,4.41,0,0,0,112.34,46h0a4.41,4.41,0,0,0-4.15-4.63l-15.48,0A4.41,4.41,0,0,0,88.58,46Z" style="fill:#b8b9ba"/><path d="M32.87,155.13c0,4.34,3.15,7.85,7,7.85l121.82-.13c3.88,0,7-3.52,7-7.86l-.1-99.19c0-4.34-3.15-7.85-7-7.85l-121.82.13c-3.88,0-7,3.52-7,7.86Z" style="fill:#b8b9ba"/><path d="M38.06,151.33c0,4,2.91,7.25,6.49,7.25l112.52-.12c3.58,0,6.48-3.25,6.48-7.26l-.1-91.61c0-4-2.91-7.25-6.49-7.25l-112.52.12c-3.58,0-6.48,3.25-6.48,7.26Z" style="fill:#eeebec"/><rect x="135.39" y="92.43" width="12.43" height="52.65" transform="translate(-0.12 0.15) rotate(-0.06)" style="fill:#c8c7c7"/><rect x="119.16" y="103.24" width="12.43" height="41.86" transform="translate(-0.13 0.13) rotate(-0.06)" style="fill:#c8c7c7"/><rect x="102.92" y="118.79" width="12.43" height="26.33" transform="translate(-0.14 0.11) rotate(-0.06)" style="fill:#c8c7c7"/><rect x="86.68" y="125.03" width="12.43" height="20.1" transform="translate(-0.14 0.1) rotate(-0.06)" style="fill:#c8c7c7"/><rect x="70.45" y="132.84" width="12.43" height="12.3" transform="translate(-0.14 0.08) rotate(-0.06)" style="fill:#c8c7c7"/><rect x="54.21" y="139.01" width="12.43" height="6.15" transform="translate(-0.15 0.06) rotate(-0.06)" style="fill:#c8c7c7"/><rect x="48.53" y="149.62" width="108.06" height="2.9" transform="translate(-0.16 0.11) rotate(-0.06)" style="fill:#c4c6c8"/><path d="M48,127.62a2.34,2.34,0,0,1-2.21-1.94,2.57,2.57,0,0,1,1.67-3.07c49.67-13.51,84.52-34,95.63-56.3a8.14,8.14,0,0,1,.59-1.06,2.11,2.11,0,0,1,3.19-.42,2.75,2.75,0,0,1,.43,3.49c-.06.1-.13.26-.24.47-6.89,13.81-28.85,39.81-98.52,58.76A2,2,0,0,1,48,127.62Z" style="fill:#a4a4a5"/><rect x="154.24" y="58.78" width="2.59" height="92.23" transform="translate(-0.11 0.16) rotate(-0.06)" style="fill:#c4c6c8"/><path d="M149,78.63a1.66,1.66,0,0,1-1.57-1.45l-1.78-10.13-9.9,3a1.59,1.59,0,0,1-2-1.27,1.82,1.82,0,0,1,1.13-2.19l11.56-3.45a1.46,1.46,0,0,1,1.26.21,1.81,1.81,0,0,1,.72,1.18l2.11,12a1.79,1.79,0,0,1-1.26,2.1A1.47,1.47,0,0,1,149,78.63Z" style="fill:#a4a4a5"/></svg>