<?xml version="1.0" encoding="utf-8"?>
<!-- Generator: Adobe Illustrator 18.0.0, SVG Export Plug-In . SVG Version: 6.00 Build 0)  -->
<!DOCTYPE svg PUBLIC "-//W3C//DTD SVG 1.1//EN" "http://www.w3.org/Graphics/SVG/1.1/DTD/svg11.dtd">
<svg version="1.1" id="Layer_1" xmlns="http://www.w3.org/2000/svg" xmlns:xlink="http://www.w3.org/1999/xlink" x="0px" y="0px"
	 viewBox="0 0 862.1 719.6" enable-background="new 0 0 862.1 719.6" xml:space="preserve">
<g>
	<g>
		<path fill="#74592E" d="M857.5,621.2l-26.1-15.7c-7.4-4.4-5.6-15.6,2.8-17.5l19.5-4.3c8.4-1.9,10.2-13,2.9-17.5L818.2,543
			c-6.4-3.9-6-13.3,0.7-16.7l22.9-11.5c6.8-3.4,7-13.1,0.4-16.8l-30.2-17c-6.4-3.6-6.5-12.7-0.3-16.5l25-15.2
			c6.2-3.8,6.1-12.8-0.2-16.4l-24.1-14c-5.7-3.3-6.4-11.3-1.3-15.6l45.6-38c6.9-5.7,2.8-16.9-6.1-16.9h-54.6h-5.1H71.3H56.6H46.4
			c-9,0-13,11.4-5.9,17l7.1,5.7c6.1,4.8,4.2,14.5-3.3,16.6l-4.8,1.4c-7.5,2.2-9.3,11.9-3.2,16.7c6.2,4.9,4.2,14.7-3.4,16.7
			l-25.8,6.9c-8.1,2.2-9.7,13.1-2.5,17.4l26.1,15.7c7.4,4.4,5.6,15.6-2.8,17.5l-19.5,4.3c-8.4,1.9-10.2,13-2.9,17.5l38.3,23.3
			c6.4,3.9,6,13.3-0.7,16.7l-22.9,11.5c-6.8,3.4-7,13.1-0.4,16.8l30.2,17c6.4,3.6,6.5,12.7,0.3,16.5l-25,15.2
			c-6.2,3.8-6.1,12.8,0.2,16.4l24.1,14c5.7,3.3,6.4,11.3,1.3,15.6l-45.6,38c-6.9,5.7-2.8,16.9,6.1,16.9h44.9h14.8h719.5h5.1h19.8
			c9,0,13-11.4,5.9-17l-7.1-5.7c-6.1-4.8-4.2-14.5,3.3-16.6l4.8-1.4c7.5-2.2,9.3-11.9,3.2-16.7c-6.2-4.9-4.2-14.7,3.4-16.7l25.8-6.9
			C863.2,636.5,864.7,625.6,857.5,621.2z"/>
		<path fill="#836031" d="M43.8,483c76.7-0.8,153.3-1.4,230-1.6c76.4-0.2,152.9-0.2,229.3,0.2c43.2,0.2-2.8,0.5,40.4,0.9
			c9.6,0.1,4.5-10.9-2.6-11c-76.9-0.7-64.6-1.1-141.5-1.2c-77-0.1-154,0.1-231,0.6c-43.5,0.3-87.1,0.6-130.6,1.1
			c-3.4,0-4.5,3.5-3.2,6.2C36.3,481.6,40.3,483.1,43.8,483L43.8,483z"/>
		<path fill="#836031" d="M342.6,538.7c119.9,7.3,240.1,10.4,360.2,9.2c33.8-0.4,67.5-1.1,101.3-2.1c9-0.3,7.1-14.4-1.1-14.2
			c-120.1,3.7-240.3,3.1-360.3-1.9c-33.7-1.4-67.5-3.1-101.2-5.2C332.6,524,334.5,538.2,342.6,538.7L342.6,538.7z"/>
		<path fill="#836031" d="M519.9,585.7c78.3-2.1,156.7-2.4,235.1-1c22,0.4,44,0.9,66,1.6c9.1,0.3,9.5-13,0.1-13.3
			c-78.3-2.4-156.7-3.1-235.1-2c-22,0.3-44,0.8-66.1,1.3C510.9,572.6,510.4,585.9,519.9,585.7L519.9,585.7z"/>
		<path fill="#836031" d="M171.7,613c105,4.5,210,9,315.1,13.6c29.8,1.3,59.6,2.6,89.5,3.9c3.5,0.2,7.6-1.8,8.3-5.6
			c0.6-3.6-2.7-6.6-6.2-6.8c-105-4.5-210-9-315.1-13.6c-29.8-1.3-59.6-2.6-89.5-3.9c-3.5-0.2-7.6,1.8-8.3,5.6
			C164.8,609.9,168.2,612.8,171.7,613L171.7,613z"/>
		<path fill="#836031" d="M84.1,697.2c67.9-2.4,135.9-2,203.8,1c19.4,0.9,38.8,2,58.2,3.3c3.6,0.2,7.1-2.6,7-6.3
			c-0.1-3.9-4-6.4-7.6-6.6c-67.8-4.6-135.8-6.5-203.8-5.7c-19.4,0.2-38.8,0.7-58.2,1.4C74.1,684.7,75.1,697.6,84.1,697.2L84.1,697.2
			z"/>
		<g>
			
				<rect x="527" y="388.1" transform="matrix(-0.3935 0.9193 -0.9193 -0.3935 1235.5 107.32)" fill="none" width="110.6" height="146.3"/>
			<path fill-rule="evenodd" clip-rule="evenodd" fill="#836031" d="M615.2,469.9c3.4-0.8,7.1-0.6,10.7-0.6
				C622.9,471,619.1,470.5,615.2,469.9z"/>
			<path fill-rule="evenodd" clip-rule="evenodd" fill="#836031" d="M623.2,464.5c4.1-1,10.3-1.7,14.5,0.4c-0.9,1.2,0.2,1.6-0.7,2.8
				C632.7,467.5,625.7,468.4,623.2,464.5z"/>
			<path fill-rule="evenodd" clip-rule="evenodd" fill="#836031" d="M600.2,427.9c-1-2-2.3,1.1-3.9,0.4c3.3,0.2,10,0.9,12.1-2.7
				c0.3,0.4,0.6,0.9,0.9,0.4c0.8,0.2,0.7,0.7,0.5,1.3c2.3,0.8,1.6-1.2,3.2-1.3c-0.6,2.4,3.9,0,2.4,0.5c-0.6-1.4,2.5-1.6,3.2-0.2
				c2.7,0.5,5.7-2.7,7.7-0.9c-6.3,3.5-17.5,1.5-20.8,4.7c-1.4,0.6-4.3-2.4-5.8,0.1c-1.1-1.2-5.6-1.6-5.4,0.3c0.8-0.7,2.1-0.3,3-0.8
				c0.3,2.6-2.1,0.7-3.8,1.5c1.1-2.7-6.3-0.9-8.6-0.6c-0.5-1.6,3-1,4.2-1.3c-0.9-1.2-3.6,0.6-5.6-0.3c0,0.5,0,1,0.5,1.3
				c-2.1,2-4.5-2.1-6.7-0.2c-0.2,0.7,2.5,0.7,3,0.3c-1,1-10.4,2.3-10.1,0.4c-1.4-0.2-0.8,0.4-1.2,1.6c-4.7-0.1-8.8,1.1-13.5,1
				c0.1,1.2,2.6,0.2,2.3,2c0.7,0.1,0.1-0.6,0.6-1.3c1.7,0.3,1.5,1.6,2.7,1.1c0.2-1.1-0.9,0.2-1.1-1c1-1.5,2.3,0.3,2.7,1.1
				c14.2-0.7,29.2-2,44.2-3.1c-6.3,1.9-16.4,2.4-24.4,3.2c-0.5,0.7,0,1,0.5,1.3c-0.5,0.9-1.8-0.3-2.3,0.6c-0.6-0.7,0.3-0.8,0.6-1.3
				c-1.6-0.6-1.8,2.2-3.1,2.3c-1.5-0.8-4.1-0.5-3.7,0c-0.5,0.8-3.1-1.4-1.4-1.6c-1.7-0.6-2.8-0.1-2.7,1.5c-7-0.4-13.5,0.3-20.4,0.1
				c-0.2,0.4,0.4,0.6,0.7,0.8c-12.2-0.7-23.6,1.2-36.5-2.6c1.9-0.3,1.9-0.7,0.3-2c5.7,1.1,14.6-0.9,20.8,1.6
				c4.7-1.4,10.3-0.4,15.5-0.7c-1.4-2.7-6.8-0.8-9.5-0.9c-1.9-0.2,0-2-1.6-2.3c2.1-1.8,5.2-3.3,9.6-1.6c1-2.1,5.7-0.6,9.8-1
				c2.4-0.2,2.9-0.4,4.9-0.5c3.4-0.2,10.1-2.6,13.5-1c6.4-2.2,14.7,0.3,21.2-1.9C599.7,426.8,600.9,426,600.2,427.9z"/>
			<path fill-rule="evenodd" clip-rule="evenodd" fill="#836031" d="M581,420.2c0.6-1-2.1-0.6-0.8-1.9c8.2,0.9,14.3-3.4,22-3.7
				c2.3,1.3,0.6,4.1,1,6.2c-2.3,2.2-6.5-0.3-8.5,2.7c-1.2-0.5-0.6-1.1-1.8-0.8c-13.8,4.3-29.2,4.6-44.2,5.6c1.2-2.2,3.9-0.6,5.5-1.8
				c-4.1,0.2-6.9,0.1-9,1.4c-0.2,1.5,1.1-0.7,2,0.3c-0.9,1-2.6,0.3-3.6,1.1c-1.3-1.4,1.3-0.2,1.2-1.6c-0.8-1.2-3.7-0.1-5.2-0.1
				c-0.2,2.2,1.2,0,2.7,1.1c-4.1-0.8-8.9-0.7-12.2-3.1c0.2-1,1-0.6,1.7-0.3c0.3-3-0.3-3.5,0.2-6.7c10.5-0.5,19.6-4.6,31-2.9
				c0.5-1.6-2.2,0.4-0.9-1.5c6.2,2.2,11.7-0.7,18-0.6c-2-1.4-6.4-0.7-8.6,0.5c-0.4-0.3,0.1-1-0.5-1.3c-1.1,1.9-2.2-0.9-3.3,1.7
				c-1.3-1,0-1.2,0.8-1.8c-1.3-0.5-3.2,0-3.7-1.1c1.9-0.8,2-0.4,4.1,0.2c3.2-1.4,7-1.5,10.7-1.7c1.5-2.6,5.3-3.6,6.9-2.8
				c2.8-2.4,14.1-2.7,10.7,5.6c-11.5,3.9-23.8,5.7-36.9,5.6c0.3-1.1,1.5,0.1,1.9-0.8c-7.2,3.1-17.2,5.3-27.1,4.6
				c0,1.1,2.1-0.1,3.3,0.9c-0.4,0.8-1.6-0.3-1.9,0.8c3.8,0.2,9.8-0.6,10.5-0.2C556.8,422.2,570.8,422.4,581,420.2z"/>
			<path fill-rule="evenodd" clip-rule="evenodd" fill="#836031" d="M543.4,448.1c-1.7,0.6-2.2-2.2-3.5-1.5c-6.6,1-17-1.5-26.3-0.8
				c0.1,1.1,0.1,2.1,0.2,3.2c6.3,3.7,13.2-0.9,19.1,1.9c4.5-0.1,14.8,1,22.8,0.4c-0.5-0.3-1-0.6-0.5-1.3c1.7,0.9,2.3,0,2.5,1.6
				c2.4-2.2,7.2-1.3,9.7-0.6c-0.3-0.2-0.9-0.4-0.7-0.8c1.5-0.4,1.8,1.3,2.8,0.7c-0.8-0.3-0.8-0.9-0.3-1.7c4.7,2.3,6.7-0.1,11.2,0.6
				c-0.2,0.5-0.9,0.4-0.4,0.9c3.5-0.2,9.6-1.1,10.3-3.4c1.6,0.6,2.3,0,2.5,1.6c0.4-0.4,0.9-0.9,1.5-0.9c6.8-0.6,14.6-1,20.4-1.2
				c0-1,3.4-1.2,4.4-2.8c-9.3-1.1-20,1-29.3,2.6c-0.7-1.1,1-0.8,0.1-1.5c-0.7,0.7-1.5-0.3-1,1.1c-9.2-0.9-19.8,3.1-27.3,0.3
				c0.6,0,1.2,0,1.7-0.3c-2.5-0.6-3.6-1.2-6.1-0.5c0.8,1.6,2.5,0.3,4.2,1.3c-0.1,0.7,0.3,1.1-0.3,2c-0.2-2.7-6.3-1.5-3.9-0.6
				c-0.9,1.4-3.2-0.6-4.8-1c-1.2,1.2,1.3,0.9,0.1,2.1C549,445.9,545,447.4,543.4,448.1z M584.8,449.1c-0.9,2.5-3.2-0.7-3.6,1.1
				C580.2,447.9,584.2,447.2,584.8,449.1z"/>
			<path fill-rule="evenodd" clip-rule="evenodd" fill="#836031" d="M531.1,442.8c0.8,0.4,1.2-0.1,2,0.3c0.3-1.4-1.1,0-1.8-0.8
				c3.5-3.1,9-0.3,13.6-2.5c0.9,0.4,0,1.4,1.4,1.6c0.7,0.1,0.1-0.6,0.6-1.3c4.1,0.9,8.8,0.6,13,1.4c-0.1-0.5-0.2-0.9,0.1-1.5
				c2.8,1.7,3.8-0.9,6.8,1.3c0.3-0.5,0.2-0.8-0.1-1.1c7.3,2.7,17.8-1.7,27.1,0.1c0.9-0.3,1.4-1.4,2.3-1.6c5,2.4,8.1,0.3,11.7,1.9
				c0.5-0.8,0.5-1.4-0.3-1.7c3.3-0.8,5.3,0.1,8.4-0.1c-1.9,1.7-5,0.4-7.3,1.1c0.2,0.5,2,0.7,1,2.5c-0.4-0.2-0.1-0.7-0.1-1.1
				c-1.2-0.7-1.8,0.4-3-0.3c-0.1,0.5,0.8,0.7,0.5,1.3c0.6-0.1,1-0.5,1.5-0.9c-2.5,2.4-13.1,1.7-19.1,1.8c-1.4,0.4-2.7,1.1-4.7,0.1
				c1-0.8,2.7,0.1,3.9-0.4c-0.6-1.1-3.2,0.6-5.2-1.2c0.2,0.6,0.5,1.3,0.8,1.9c-1,0.2-1.8,1-3.2,0.2c0.3-1.1,1.5,0.1,1.9-0.8
				c-1.4-0.6-1.9,0.8-3.5-0.4c1.3,3.1-11.8,2.3-12.5-0.1c-1-0.6-0.6,2.1-1.9,0.8c0.2-0.3,0.6-0.3,0.8-0.7c-0.8-0.4-1.2,0.1-2-0.3
				c0.5,2.6,4.6,1.1,5.3,2.3c-4.6,1.9-11.9-2.8-15.9,0.5c-1.2-1.7-8-1.1-8.4,0.1c-5.7-1.1-12.1,1.1-15.9-3.1
				C529.1,440.1,531.7,442,531.1,442.8z"/>
			<path fill-rule="evenodd" clip-rule="evenodd" fill="#836031" d="M538.3,460c1.1,0.3-0.1,1.5,0.8,1.9c1.5-0.4,3.3-0.4,5.2,0.1
				c-6.5,2.7-13.8,0.8-22.5,1.3c-0.9,2,2.2,2.7-0.4,3.5c3.4,1.4,7.1-1.2,9.5,0.9c-1.7-0.4-3,0.4-4.7,0.1c-1.1,1.1-0.8,1.5-0.7,2.8
				c-2,0.3-4.4-0.5-6.2-0.1c-1.7,4.9,5.5,3.9,8.5,4.7c1.3-0.1-0.2-1.7,1.2-1.6c3.7,0.9,9.8,0.1,14.2-0.2c-0.3-0.2-0.9-0.4-0.7-0.8
				c3.4,1.8,10.4,1.7,13.2,0.9c-0.2,0.1-0.9-0.6-0.7-0.8c15.4,1.3,29.7-0.2,44.1-1.5c1.2,0.9,1.6-0.2,2.8,0.7
				c2.8-2,7.6,0.7,10.2-1.9c-9.1-0.2-17.3,1.9-26.9,0.5c-3.2,0.7-9.8,2-11.9-0.4c1.9,0.3,5.9,1.7,5.6-0.8c-1.7-1.1-4.2,2-4.4-0.8
				c1.5,1,7.4-1.3,6.1,1.6c1.5-2.9,3.5,0.9,5.6-0.8c-0.9-1-2.4,0.5-2.2-0.9c1.8,1.2,2.2-1.2,3.6-1.1c0.1,1.5,3,0.6,2.1-0.1
				c-0.3,0.5-0.8,0.5-1.3,0.5c3.1-1.1,6.1,0.5,9.2-0.8c-0.3-0.2-0.9-0.4-0.7-0.8c1.3-0.2,1.2,1.8,1.8,0.8c-0.6-0.1-1-1.9,0.1-1.5
				c-0.7,1.2,4.8,1.1,4-0.9c2.6-0.1,3.9,2,5.6,0.3c-0.9-1.1-2,1.6-2-0.3c3.5-0.1,8.8-0.8,13.6-2.5c-2.8-1.2-5,1.8-7.1-0.4
				c-8.8,2.5-16,1.7-25.5,2.2c0.5,0.3,1.3,0.5,1.1,1c-3,0.3-16.3-0.5-13.3,1.6c-8-1.9-13.8,0.5-20.7-0.5c0.3-0.6,0.5-1.2,0.8-1.8
				c4.7,2.1,10.9,0.6,15.7-0.1c-3.1-0.7-4.2-0.6-6.5-0.7c0.3-0.6,0.5-1.2,0.8-1.8c3,0.3,5.7,1.1,9.7-0.6c-2.3,0.4,7.9,2.8,5.6,0.3
				c4.8,1.5,10-2.5,16.7-1.2c0.5-0.8-0.1-1.2,0.3-2c2.1,1,3.1-0.8,4.9-0.5c-1-1.9-5.9-1.1-8.2-0.4c1.3,0.8,2.3-0.3,2,1.4
				c-2,0.7-1.7-2.1-3.1-1.3c-1.7,0.3-6.2,1.3-10,1.5c-13.8,0.7-30.7-0.2-43.9,1.1c0.6,0.4,1.7,0.5,1.6,1.2
				C539.5,461.2,539.3,459,538.3,460z M571.6,469c0.1,1.5,0.9,1.3,1.3,3.2c-4.5-2-12,1-16.7-1.4c-4.2,1.7-11.8-0.2-18,0.6
				c5.2-1.1,12.8-2.6,16.7-1.2c0.7-0.6,1.9,0,2.3-1.6C557.6,471.2,568.1,472.5,571.6,469z"/>
			<path fill-rule="evenodd" clip-rule="evenodd" fill="#836031" d="M627.6,454.3c-0.5-0.4-0.7-1-0.3-1.7c-1.2-0.9-1.4,0.8-2.6-0.1
				c-0.3,1.4,1.1,0,1.8,0.8c-3.7-0.4-5.6,0.6-8.4,0.1c-0.2,0.2,0.4,0.9,0.7,0.8c-3.5,0.5-11.2,0.7-16,2c4.1,0,8-0.8,12.2-0.5
				c-4.3,0.4-9.3,2.6-13.6-0.1c-5,0.6-12.8,0.2-18.6,2c1.1-0.2,0.5-1.6-0.3-0.6c-0.6-0.5,0.2-0.4,0.4-0.9c-1.2-0.9-4.1,0-5.2-1.2
				c1.4-0.8,4.7-1.7,5.8-0.1c0.8-0.2,1.4-0.8,2.1-1.2c16.9-0.1,33.2-1.8,49-4.6c1.6,0.6,2.4,0.3,2.9,1.8
				C633.2,452.8,631.7,451.5,627.6,454.3z"/>
			<path fill-rule="evenodd" clip-rule="evenodd" fill="#836031" d="M561.4,457.4c1.3,0.2,2-1,3.4-0.6c-3.2,3.9-9.7-0.6-13.4,2.1
				c-4.6-1.7-8.1-0.2-10.9-1.5c0.7-1.5,2.5-0.4,3.8-0.4c-0.1-1.4-2.2-0.2-3.3-0.9c1.6-1.2,4.1,0,6-0.6c-1.6-1.6-5.7,0.4-7.9-2.3
				c5.6-0.5,13,3.2,17.9,0.9c0.4,0.1,0.3,0.4,0.3,0.6C554.2,456.4,562.2,454.9,561.4,457.4z"/>
			<path fill-rule="evenodd" clip-rule="evenodd" fill="#836031" d="M572,486.4c-0.5-0.3-0.1-0.5,0.2-0.4c-4.1-2-12.8,1.1-17.9-0.9
				c-0.8-0.2-1.3,0.3-1.6,1.4c-4.5-0.8-8.6-0.8-12.2,0.5c-0.6-0.5-0.8-1.1-1.4-1.6c0.2-0.2,1.8-1.2,0.8-1.8
				c14.2-2.5,30.1,0.9,43.7-0.7c-1.1-1.8-5.1,0.8-6.3-1.1c-0.4,0.8,0.1,1.2-0.3,2c-2-1.5-4.3-2.9-5.7-1.4c-5-2.9-7.7-1.5-12-2.5
				c2.2-1.3,4.9-1.1,7.7-0.9c-2.8-1.4,1.4-1,3.2-1.3c-1.4-1.8,2.7-1.3,4.5-0.7c-3.6,0.5-0.2-0.1-1.8,1.8c1.5,0.8,2.2-0.6,3.7,0
				c-0.2-0.5,0.3-1.3-0.3-1.7c-0.8-0.2-0.1,1.8-1.9,0.8c0.4-0.3,0.9-0.6,0.4-0.9c0.7-1,2.1-0.3,3.2-0.2c-0.2,0.3-0.6,0.3-0.8,0.7
				c0.8-0.2,1.8,0.3,2.6,0.1c0.1-0.7-0.6-0.1-1.3-0.6c0.4-0.7,1.2-0.7,2.1-0.1c-0.2,2-1.7,0.5-2.3,1.6c3.3-0.2,7,0.5,10.1-0.4
				c-1.9-0.8-3.1-1.9-6.9-0.9c-1-1.9,2.4-0.7,3.4-0.6c0.4-0.5-0.6-2.1-1.1-1c1.6-0.7,6.8,0.1,10.8,0.4c0.2-0.5-0.6-0.7-1.1-1
				c3.6-0.1,7-0.7,11.2,0.6c-0.2,0.8-0.7,0.6-1,1.1c1.3,0.5,4.8-2.1,3.5-2.1c1.9,0.9,4.5-0.3,6-0.6c2.2-0.4,4.8,0.3,6.7,0.2
				c5.1-0.2,9.4-2,15.4-1.8c-0.1-1-3.3-2.3-3.7-1.1c-0.5-2.1-2.5-1.6-4.9-2.1c1.8-1.1,4.1-0.8,6.4-0.4c-0.2,0.3-0.6,0.3-0.8,0.7
				c2.3,0.9,3.5-1.1,6.1,0.5c-0.4,0.7,0.1,0.9-0.1,1.5c6.4,0.8,11.2-2.5,17.3-2.5c1.7,5.9-8.1,7.2-11.5,6.1c-0.2,1.9-3.6,0.6-5,2
				c0.6,1.9-1.8,2.9,0.4,3.8c-3.4,0.9-7.1,1.1-10.7,1.7c0.9-0.6,1.9-0.7,2.7-1.5c-4.1-3.7-10.1,0.6-15.8-2.1c-1.5-0.2,0.7,1.1-0.3,2
				c-6.1-0.3-13.4-0.4-18,0.6c-0.5,0.1-2-1-1.9,0.8c-1.4-1.8-2.5,0.4-3.3-2c-0.6,1.3-1.1-0.3-3-0.3c0.9,2.5-0.9,1.5-2.5,2.1
				c1.9,0.9,3,2,4.8,1c0.6,0.6-0.2,1.1-0.8,0.7c-0.4,0.8,0.1,1.2-0.3,2c-0.8-0.2-0.7-0.8-0.3-0.6c0-1.6-1.7-0.2-2.7-1.1
				c0,0.5,0,1,0.5,1.3c-3.2,0.6-8.4-2-11.8,0.7C574.1,485.6,572.7,485.1,572,486.4z"/>
			<path fill-rule="evenodd" clip-rule="evenodd" fill="#836031" d="M608.3,481.1c3.4,3.4,10-1.3,13.8,0.7c-1.2,1-3,0.4-4.5,0.7
				c0,0.6,0.2,1.1,0.9,1.5c-1.5,0.4-3,1-4.9,0.5c0.8-1.5,2.7,0.1,3.6-1.1c-0.7-1.4-5.6-0.7-5.1,0.9c-2.5-1.3-5.3,1.9-8.8,1
				c0.5-0.8,1.6-0.4,2.1-1.2c-3.8,0-7.4,0.4-11.2,0.4c-0.2,1.5,1.5,0.3,2.2,0.9c-0.3,1.6-5.8,0-3.2,0.2c0.3-1.4-1.1,0-1.8-0.8
				c5-3.2,10.5-3,16.5-1.8C607.8,482.5,607.9,481.8,608.3,481.1z"/>
			<path fill-rule="evenodd" clip-rule="evenodd" fill="#836031" d="M590.4,487.5c-10.4,0.8-24.4-0.3-33.8,0.7
				c-4.7,0.5-11.9-0.7-17.2-0.1c-0.3,1.1,0,2-0.9,3.3c2.8,1.3,4.6,1.7,5.6,0.3c3.3,1.1,5.9,0.7,8.6,0.6c-0.2-0.6-1.6-0.8-0.8-1.9
				c13.1,0.3,25-0.4,37-0.9c-0.3,0.5-1.1,0.6,0.1,1.1c7.3-2.9,13.7-2.5,21.5-0.2c1.2-0.4,1-1.2,1.6-1.4c-0.2,0.7,0.8,0.9,0.9,1.5
				c1.2-0.4,1-1.2,1.6-1.4c0.8,1.3,2.8,0.4,2.7,2.2c-5.8,2.5-12.8,2.1-18.7,4.6c-0.9-0.4-1.8-0.8-2.7-1.1c-1.3,0.2,0.1,1.3-1,1.1
				c-1-0.7-1.3-1.2-2.4-0.5c-0.5,0.7-6.4,0.5-8,0.3c-10.4,2.7-26.7-1.5-38.2,1.4c-0.8,5.7,7.6,2.4,11,3.7c-0.3-0.2-0.9-0.4-0.7-0.8
				c5.1,0.5,7.6-0.5,13,1.4c-1.2,1.9,0.6,2.7,0.3,4.3c13.8,3,25.6-1,39.4-0.4c1.2-1.2-1.3-0.9-0.1-2.1c0.3,1.7,3,2.4,4.4,1.9
				c-1.2,2.3,2.2,0.8,1.9,2.9c1.1-0.3,2.4-0.2,3.7,0c0.4-1.1-0.2-1.7,0.9-2.2c-1-0.8-2.5,1.5-2.6-0.1c3.4-0.7,4.1-4.9,1.5-7.2
				c-4.3,0.9-11.1,0.3-14.9-0.6c4.4-0.3,8.5-1.3,12.6-2.5c-0.8-0.3-0.8-0.9-0.3-1.7c2,0.7,5-0.8,6.1,0.5c-1.9,0-3.8,0.3-5.6,0.8
				c7.7-0.2,15.7,0.3,22.2-3c-1.1-1.4-5-0.9-4.7,1.1c-1.9-0.6-3.6,0.9-4.2-1.3c-1.5,3-4.8,1.5-7.2,2.1c0.2-1.9-1.9-1.4-0.8-3
				c-1.9-1.4-4.5,2.1-4.8-1c7-0.9,14.3-1.9,20.9,0.1c-1.8-0.9,1.9-1.4,3.2-0.2c0.8-4.3,9.7-0.6,10.2-5.6c-3.4,3.4-9.8-0.6-13.4,2.1
				c0.9,1,2.4-1.2,2.4,0.5c-6.9-0.6-16.6-0.9-22.8-0.4c-0.3,0.6-0.2,1.1-0.1,1.5c-4.5-1.4-12.3-1.9-15.3,0.3
				C601.1,486.2,593.1,487.3,590.4,487.5z M571.1,500.7c3.6-0.8,11.4,0.6,11.9,0.4c0.6-1.1,0.5,0.9,1.8,0.8
				C580.8,502.4,574.8,502.5,571.1,500.7z"/>
			<path fill-rule="evenodd" clip-rule="evenodd" fill="#836031" d="M570.7,516.2c-0.9,0.9,3.3-2.7,0.8-1.8c3-1.1,11,0.6,17,0.5
				c2.9,0,6.4,0.2,9.7,0.5c-7.8-1.6,0.9-1.2,4.9-1.6c-4-1.7-9.7,0.3-14.7-1.1c3.1-1.4,7-1.7,11.1-1.5c6.7,0.3,14.5,0.4,20.4,2.5
				c-2.6,2.3-6.8,0.7-10,1.5c-0.3,1.4,1.1,0,1.8,0.8c-2.6,0.6-5.1-1.8-6.6,0.8c-1.6-0.7-3.7-0.5-6.9-0.9c1.4,1.8-4.9,2.4-6,0.6
				c-0.5,1.3-3.5,1.6-5.7,1.2c0.4,1.6,2.6-0.2,3.9,0.6C583.9,518.3,577.1,518,570.7,516.2z"/>
			<path fill-rule="evenodd" clip-rule="evenodd" fill="#836031" d="M613.2,425.7c1.9-1.3,9.8-3,12.6-2.5c-0.5,1.4-2.2,0.1-3,0.8
				c2.1,1.4-2.8,1.4-4.4,1.8c-0.4-0.2-0.1-0.7-0.1-1.1C616.7,425.4,614.7,424.9,613.2,425.7z"/>
			<path fill-rule="evenodd" clip-rule="evenodd" fill="#836031" d="M621.8,483.7c0.5,2.1,2-1.1,2.7-1.5c0.6,0.3,1.2,0.5,1.8,0.8
				c-1.3,1.7-3.3,1.5-5,2c-0.5-1.2,0-1-1.6-1.2c0.8-0.4,3.3-1.4,3.4-0.6C622.9,484,622.3,483.9,621.8,483.7z"/>
		</g>
		<g>
			
				<rect x="71.9" y="356.3" transform="matrix(-0.3935 0.9193 -0.9193 -0.3935 572.0362 481.4418)" fill="none" width="110.6" height="146.3"/>
			<path fill-rule="evenodd" clip-rule="evenodd" fill="#836031" d="M160,438.1c3.4-0.8,7.1-0.6,10.7-0.6
				C167.8,439.2,163.9,438.7,160,438.1z"/>
			<path fill-rule="evenodd" clip-rule="evenodd" fill="#836031" d="M168.1,432.7c4.1-1,10.3-1.7,14.5,0.4c-0.9,1.2,0.2,1.6-0.7,2.8
				C177.5,435.7,170.6,436.6,168.1,432.7z"/>
			<path fill-rule="evenodd" clip-rule="evenodd" fill="#836031" d="M145,396.1c-1-2-2.3,1.1-3.9,0.4c3.3,0.2,10,0.9,12.1-2.7
				c0.3,0.4,0.6,0.9,0.9,0.4c0.8,0.2,0.7,0.7,0.5,1.3c2.3,0.8,1.6-1.2,3.2-1.3c-0.6,2.4,3.9,0,2.4,0.5c-0.6-1.4,2.5-1.6,3.2-0.2
				c2.7,0.5,5.7-2.7,7.7-0.9c-6.3,3.5-17.5,1.5-20.8,4.7c-1.4,0.6-4.3-2.4-5.8,0.1c-1.1-1.2-5.6-1.6-5.4,0.3c0.8-0.7,2.1-0.3,3-0.8
				c0.3,2.6-2.1,0.7-3.8,1.5c1.1-2.7-6.3-0.9-8.6-0.6c-0.5-1.6,3-1,4.2-1.3c-0.9-1.2-3.6,0.6-5.6-0.3c0,0.5,0,1,0.5,1.3
				c-2.1,2-4.5-2.1-6.7-0.2c-0.2,0.7,2.5,0.7,3,0.3c-1,1-10.4,2.3-10.1,0.4c-1.4-0.2-0.8,0.4-1.2,1.6c-4.7-0.1-8.8,1.1-13.5,1
				c0.1,1.2,2.6,0.2,2.3,2c0.7,0.1,0.1-0.6,0.6-1.3c1.7,0.3,1.5,1.6,2.7,1.1c0.2-1.1-0.9,0.2-1.1-1c1-1.5,2.3,0.3,2.7,1.1
				c14.2-0.7,29.2-2,44.2-3.1c-6.3,1.9-16.4,2.4-24.4,3.2c-0.5,0.7,0,1,0.5,1.3c-0.5,0.9-1.8-0.3-2.3,0.6c-0.6-0.7,0.3-0.8,0.6-1.3
				c-1.6-0.6-1.8,2.2-3.1,2.3c-1.5-0.8-4.1-0.5-3.7,0c-0.5,0.8-3.1-1.4-1.4-1.6c-1.7-0.6-2.8-0.1-2.7,1.5c-7-0.4-13.5,0.3-20.4,0.1
				c-0.2,0.4,0.4,0.6,0.7,0.8c-12.2-0.7-23.6,1.2-36.5-2.6c1.9-0.3,1.9-0.7,0.3-2c5.7,1.1,14.6-0.9,20.8,1.6
				c4.7-1.4,10.3-0.4,15.5-0.7c-1.4-2.7-6.8-0.8-9.5-0.9c-1.9-0.2,0-2-1.6-2.3c2.1-1.8,5.2-3.3,9.6-1.6c1-2.1,5.7-0.6,9.8-1
				c2.4-0.2,2.9-0.4,4.9-0.5c3.4-0.2,10.1-2.6,13.5-1c6.4-2.2,14.7,0.3,21.2-1.9C144.6,395,145.8,394.2,145,396.1z"/>
			<path fill-rule="evenodd" clip-rule="evenodd" fill="#836031" d="M125.8,388.4c0.6-1-2.1-0.6-0.8-1.9c8.2,0.9,14.3-3.4,22-3.7
				c2.3,1.3,0.6,4.1,1,6.2c-2.3,2.2-6.5-0.3-8.5,2.7c-1.2-0.5-0.6-1.1-1.8-0.8c-13.8,4.3-29.2,4.6-44.2,5.6c1.2-2.2,3.9-0.6,5.5-1.8
				c-4.1,0.2-6.9,0.1-9,1.4c-0.2,1.5,1.1-0.7,2,0.3c-0.9,1-2.6,0.3-3.6,1.1c-1.3-1.4,1.3-0.2,1.2-1.6c-0.8-1.2-3.7-0.1-5.2-0.1
				c-0.2,2.2,1.2,0,2.7,1.1c-4.1-0.8-8.9-0.7-12.2-3.1c0.2-1,1-0.6,1.7-0.3c0.3-3-0.3-3.5,0.2-6.7c10.5-0.5,19.6-4.6,31-2.9
				c0.5-1.6-2.2,0.4-0.9-1.5c6.2,2.2,11.7-0.7,18-0.6c-2-1.4-6.4-0.7-8.6,0.5c-0.4-0.3,0.1-1-0.5-1.3c-1.1,1.9-2.2-0.9-3.3,1.7
				c-1.3-1,0-1.2,0.8-1.8c-1.3-0.5-3.2,0-3.7-1.1c1.9-0.8,2-0.4,4.1,0.2c3.2-1.4,7-1.5,10.7-1.7c1.5-2.6,5.3-3.6,6.9-2.8
				c2.8-2.4,14.1-2.7,10.7,5.6c-11.5,3.9-23.8,5.7-36.9,5.6c0.3-1.1,1.5,0.1,1.9-0.8c-7.2,3.1-17.2,5.3-27.1,4.6
				c0,1.1,2.1-0.1,3.3,0.9c-0.4,0.8-1.6-0.3-1.9,0.8c3.8,0.2,9.8-0.6,10.5-0.2C101.6,390.4,115.6,390.6,125.8,388.4z"/>
			<path fill-rule="evenodd" clip-rule="evenodd" fill="#836031" d="M88.3,416.3c-1.7,0.6-2.2-2.2-3.5-1.5c-6.6,1-17-1.5-26.3-0.8
				c0.1,1.1,0.1,2.1,0.2,3.2c6.3,3.7,13.2-0.9,19.1,1.9c4.5-0.1,14.8,1,22.8,0.4c-0.5-0.3-1-0.6-0.5-1.3c1.7,0.9,2.3,0,2.5,1.6
				c2.4-2.2,7.2-1.3,9.7-0.6c-0.3-0.2-0.9-0.4-0.7-0.8c1.5-0.4,1.8,1.3,2.8,0.7c-0.8-0.3-0.8-0.9-0.3-1.7c4.7,2.3,6.7-0.1,11.2,0.6
				c-0.2,0.5-0.9,0.4-0.4,0.9c3.5-0.2,9.6-1.1,10.3-3.4c1.6,0.6,2.3,0,2.5,1.6c0.4-0.4,0.9-0.9,1.5-0.9c6.8-0.6,14.6-1,20.4-1.2
				c0-1,3.4-1.2,4.4-2.8c-9.3-1.1-20,1-29.3,2.6c-0.7-1.1,1-0.8,0.1-1.5c-0.7,0.7-1.5-0.3-1,1.1c-9.2-0.9-19.8,3.1-27.3,0.3
				c0.6,0,1.2,0,1.7-0.3c-2.5-0.6-3.6-1.2-6.1-0.5c0.8,1.6,2.5,0.3,4.2,1.3c-0.1,0.7,0.3,1.1-0.3,2c-0.2-2.7-6.3-1.5-3.9-0.6
				c-0.9,1.4-3.2-0.6-4.8-1c-1.2,1.2,1.3,0.9,0.1,2.1C93.9,414.1,89.8,415.6,88.3,416.3z M129.7,417.3c-0.9,2.5-3.2-0.7-3.6,1.1
				C125,416.1,129.1,415.4,129.7,417.3z"/>
			<path fill-rule="evenodd" clip-rule="evenodd" fill="#836031" d="M75.9,411c0.8,0.4,1.2-0.1,2,0.3c0.3-1.4-1.1,0-1.8-0.8
				c3.5-3.1,9-0.3,13.6-2.5c0.9,0.4,0,1.4,1.4,1.6c0.7,0.1,0.1-0.6,0.6-1.3c4.1,0.9,8.8,0.6,13,1.4c-0.1-0.5-0.2-0.9,0.1-1.5
				c2.8,1.7,3.8-0.9,6.8,1.3c0.3-0.5,0.2-0.8-0.1-1.1c7.3,2.7,17.8-1.7,27.1,0.1c0.9-0.3,1.4-1.4,2.3-1.6c5,2.4,8.1,0.3,11.7,1.9
				c0.5-0.8,0.5-1.4-0.3-1.7c3.3-0.8,5.3,0.1,8.4-0.1c-1.9,1.7-5,0.4-7.3,1.1c0.2,0.5,2,0.7,1,2.5c-0.4-0.2-0.1-0.7-0.1-1.1
				c-1.2-0.7-1.8,0.4-3-0.3c-0.1,0.5,0.8,0.7,0.5,1.3c0.6-0.1,1-0.5,1.5-0.9c-2.5,2.4-13.1,1.7-19.1,1.8c-1.4,0.4-2.7,1.1-4.7,0.1
				c1-0.8,2.7,0.1,3.9-0.4c-0.6-1.1-3.2,0.6-5.2-1.2c0.2,0.6,0.5,1.3,0.8,1.9c-1,0.2-1.8,1-3.2,0.2c0.3-1.1,1.5,0.1,1.9-0.8
				c-1.4-0.6-1.9,0.8-3.5-0.4c1.3,3.1-11.8,2.3-12.5-0.1c-1-0.6-0.6,2.1-1.9,0.8c0.2-0.3,0.6-0.3,0.8-0.7c-0.8-0.4-1.2,0.1-2-0.3
				c0.5,2.6,4.6,1.1,5.3,2.3c-4.6,1.9-11.9-2.8-15.9,0.5c-1.2-1.7-8-1.1-8.4,0.1c-5.7-1.1-12.1,1.1-15.9-3.1
				C74,408.3,76.6,410.2,75.9,411z"/>
			<path fill-rule="evenodd" clip-rule="evenodd" fill="#836031" d="M83.2,428.2c1.1,0.3-0.1,1.5,0.8,1.9c1.5-0.4,3.3-0.4,5.2,0.1
				c-6.5,2.7-13.8,0.8-22.5,1.3c-0.9,2,2.2,2.7-0.4,3.5c3.4,1.4,7.1-1.2,9.5,0.9c-1.7-0.4-3,0.4-4.7,0.1c-1.1,1.1-0.8,1.5-0.7,2.8
				c-2,0.3-4.4-0.5-6.2-0.1c-1.7,4.9,5.5,3.9,8.5,4.7c1.3-0.1-0.2-1.7,1.2-1.6c3.7,0.9,9.8,0.1,14.2-0.2c-0.3-0.2-0.9-0.4-0.7-0.8
				c3.4,1.8,10.4,1.7,13.2,0.9c-0.2,0.1-0.9-0.6-0.7-0.8c15.4,1.3,29.7-0.2,44.1-1.5c1.2,0.9,1.6-0.2,2.8,0.7
				c2.8-2,7.6,0.7,10.2-1.9c-9.1-0.2-17.3,1.9-26.9,0.5c-3.2,0.7-9.8,2-11.9-0.4c1.9,0.3,5.9,1.7,5.6-0.8c-1.7-1.1-4.2,2-4.4-0.8
				c1.5,1,7.4-1.3,6.1,1.6c1.5-2.9,3.5,0.9,5.6-0.8c-0.9-1-2.4,0.5-2.2-0.9c1.8,1.2,2.2-1.2,3.6-1.1c0.1,1.5,3,0.6,2.1-0.1
				c-0.3,0.5-0.8,0.5-1.3,0.5c3.1-1.1,6.1,0.5,9.2-0.8c-0.3-0.2-0.9-0.4-0.7-0.8c1.3-0.2,1.2,1.8,1.8,0.8c-0.6-0.1-1-1.9,0.1-1.5
				c-0.7,1.2,4.8,1.1,4-0.9c2.6-0.1,3.9,2,5.6,0.3c-0.9-1.1-2,1.6-2-0.3c3.5-0.1,8.8-0.8,13.6-2.5c-2.8-1.2-5,1.8-7.1-0.4
				c-8.8,2.5-16,1.7-25.5,2.2c0.5,0.3,1.3,0.5,1.1,1c-3,0.3-16.3-0.5-13.3,1.6c-8-1.9-13.8,0.5-20.7-0.5c0.3-0.6,0.5-1.2,0.8-1.8
				c4.7,2.1,10.9,0.6,15.7-0.1c-3.1-0.7-4.2-0.6-6.5-0.7c0.3-0.6,0.5-1.2,0.8-1.8c3,0.3,5.7,1.1,9.7-0.6c-2.3,0.4,7.9,2.8,5.6,0.3
				c4.8,1.5,10-2.5,16.7-1.2c0.5-0.8-0.1-1.2,0.3-2c2.1,1,3.1-0.8,4.9-0.5c-1-1.9-5.9-1.1-8.2-0.4c1.3,0.8,2.3-0.3,2,1.4
				c-2,0.7-1.7-2.1-3.1-1.3c-1.7,0.3-6.2,1.3-10,1.5c-13.8,0.7-30.7-0.2-43.9,1.1c0.6,0.4,1.7,0.5,1.6,1.2
				C84.3,429.4,84.1,427.2,83.2,428.2z M116.5,437.2c0.1,1.5,0.9,1.3,1.3,3.2c-4.5-2-12,1-16.7-1.4c-4.2,1.7-11.8-0.2-18,0.6
				c5.2-1.1,12.8-2.6,16.7-1.2c0.7-0.6,1.9,0,2.3-1.6C102.4,439.3,113,440.7,116.5,437.2z"/>
			<path fill-rule="evenodd" clip-rule="evenodd" fill="#836031" d="M172.4,422.5c-0.5-0.4-0.7-1-0.3-1.7c-1.2-0.9-1.4,0.8-2.6-0.1
				c-0.3,1.4,1.1,0,1.8,0.8c-3.7-0.4-5.6,0.6-8.4,0.1c-0.2,0.2,0.4,0.9,0.7,0.8c-3.5,0.5-11.2,0.7-16,2c4.1,0,8-0.8,12.2-0.5
				c-4.3,0.4-9.3,2.6-13.6-0.1c-5,0.6-12.8,0.2-18.6,2c1.1-0.2,0.5-1.6-0.3-0.6c-0.6-0.5,0.2-0.4,0.4-0.9c-1.2-0.9-4.1,0-5.2-1.2
				c1.4-0.8,4.7-1.7,5.8-0.1c0.8-0.2,1.4-0.8,2.1-1.2c16.9-0.1,33.2-1.8,49-4.6c1.6,0.6,2.4,0.3,2.9,1.8
				C178,421,176.6,419.7,172.4,422.5z"/>
			<path fill-rule="evenodd" clip-rule="evenodd" fill="#836031" d="M106.3,425.6c1.3,0.2,2-1,3.4-0.6c-3.2,3.9-9.7-0.6-13.4,2.1
				c-4.6-1.7-8.1-0.2-10.9-1.5c0.7-1.5,2.5-0.4,3.8-0.4c-0.1-1.4-2.2-0.2-3.3-0.9c1.6-1.2,4.1,0,6-0.6c-1.6-1.6-5.7,0.4-7.9-2.3
				c5.6-0.5,13,3.2,17.9,0.9c0.4,0.1,0.3,0.4,0.3,0.6C99,424.6,107.1,423.1,106.3,425.6z"/>
			<path fill-rule="evenodd" clip-rule="evenodd" fill="#836031" d="M116.8,454.6c-0.5-0.3-0.1-0.5,0.2-0.4
				c-4.1-2-12.8,1.1-17.9-0.9c-0.8-0.2-1.3,0.3-1.6,1.4c-4.5-0.8-8.6-0.8-12.2,0.5c-0.6-0.5-0.8-1.1-1.4-1.6
				c0.2-0.2,1.8-1.2,0.8-1.8c14.2-2.5,30.1,0.9,43.7-0.7c-1.1-1.8-5.1,0.8-6.3-1.1c-0.4,0.8,0.1,1.2-0.3,2c-2-1.5-4.3-2.9-5.7-1.4
				c-5-2.9-7.7-1.5-12-2.5c2.2-1.3,4.9-1.1,7.7-0.9c-2.8-1.4,1.4-1,3.2-1.3c-1.4-1.8,2.7-1.3,4.5-0.7c-3.6,0.5-0.2-0.1-1.8,1.8
				c1.5,0.8,2.2-0.6,3.7,0c-0.2-0.5,0.3-1.3-0.3-1.7c-0.8-0.2-0.1,1.8-1.9,0.8c0.4-0.3,0.9-0.6,0.4-0.9c0.7-1,2.1-0.3,3.2-0.2
				c-0.2,0.3-0.6,0.3-0.8,0.7c0.8-0.2,1.8,0.3,2.6,0.1c0.1-0.7-0.6-0.1-1.3-0.6c0.4-0.7,1.2-0.7,2.1-0.1c-0.2,2-1.7,0.5-2.3,1.6
				c3.3-0.2,7,0.5,10.1-0.4c-1.9-0.8-3.1-1.9-6.9-0.9c-1-1.9,2.4-0.7,3.4-0.6c0.4-0.5-0.6-2.1-1.1-1c1.6-0.7,6.8,0.1,10.8,0.4
				c0.2-0.5-0.6-0.7-1.1-1c3.6-0.1,7-0.7,11.2,0.6c-0.2,0.8-0.7,0.6-1,1.1c1.3,0.5,4.8-2.1,3.5-2.1c1.9,0.9,4.5-0.3,6-0.6
				c2.2-0.4,4.8,0.3,6.7,0.2c5.1-0.2,9.4-2,15.4-1.8c-0.1-1-3.3-2.3-3.7-1.1c-0.5-2.1-2.5-1.6-4.9-2.1c1.8-1.1,4.1-0.8,6.4-0.4
				c-0.2,0.3-0.6,0.3-0.8,0.7c2.3,0.9,3.5-1.1,6.1,0.5c-0.4,0.7,0.1,0.9-0.1,1.5c6.4,0.8,11.2-2.5,17.3-2.5
				c1.7,5.9-8.1,7.2-11.5,6.1c-0.2,1.9-3.6,0.6-5,2c0.6,1.9-1.8,2.9,0.4,3.8c-3.4,0.9-7.1,1.1-10.7,1.7c0.9-0.6,1.9-0.7,2.7-1.5
				c-4.1-3.7-10.1,0.6-15.8-2.1c-1.5-0.2,0.7,1.1-0.3,2c-6.1-0.3-13.4-0.4-18,0.6c-0.5,0.1-2-1-1.9,0.8c-1.4-1.8-2.5,0.4-3.3-2
				c-0.6,1.3-1.1-0.3-3-0.3c0.9,2.5-0.9,1.5-2.5,2.1c1.9,0.9,3,2,4.8,1c0.6,0.6-0.2,1.1-0.8,0.7c-0.4,0.8,0.1,1.2-0.3,2
				c-0.8-0.2-0.7-0.8-0.3-0.6c0-1.6-1.7-0.2-2.7-1.1c0,0.5,0,1,0.5,1.3c-3.2,0.6-8.4-2-11.8,0.7
				C118.9,453.8,117.5,453.3,116.8,454.6z"/>
			<path fill-rule="evenodd" clip-rule="evenodd" fill="#836031" d="M153.1,449.3c3.4,3.4,10-1.3,13.8,0.7c-1.2,1-3,0.4-4.5,0.7
				c0,0.6,0.2,1.1,0.9,1.5c-1.5,0.4-3,1-4.9,0.5c0.8-1.5,2.7,0.1,3.6-1.1c-0.7-1.4-5.6-0.7-5.1,0.9c-2.5-1.3-5.3,1.9-8.8,1
				c0.5-0.8,1.6-0.4,2.1-1.2c-3.8,0-7.4,0.4-11.2,0.4c-0.2,1.5,1.5,0.3,2.2,0.9c-0.3,1.6-5.8,0-3.2,0.2c0.3-1.4-1.1,0-1.8-0.8
				c5-3.2,10.5-3,16.5-1.8C152.6,450.7,152.8,450,153.1,449.3z"/>
			<path fill-rule="evenodd" clip-rule="evenodd" fill="#836031" d="M135.2,455.7c-10.4,0.8-24.4-0.3-33.8,0.7
				c-4.7,0.5-11.9-0.7-17.2-0.1c-0.3,1.1,0,2-0.9,3.3c2.8,1.3,4.6,1.7,5.6,0.3c3.3,1.1,5.9,0.7,8.6,0.6c-0.2-0.6-1.6-0.8-0.8-1.9
				c13.1,0.3,25-0.4,37-0.9c-0.3,0.5-1.1,0.6,0.1,1.1c7.3-2.9,13.7-2.5,21.5-0.2c1.2-0.4,1-1.2,1.6-1.4c-0.2,0.7,0.8,0.9,0.9,1.5
				c1.2-0.4,1-1.2,1.6-1.4c0.8,1.3,2.8,0.4,2.7,2.2c-5.8,2.5-12.8,2.1-18.7,4.6c-0.9-0.4-1.8-0.8-2.7-1.1c-1.3,0.2,0.1,1.3-1,1.1
				c-1-0.7-1.3-1.2-2.4-0.5c-0.5,0.7-6.4,0.5-8,0.3c-10.4,2.7-26.7-1.5-38.2,1.4c-0.8,5.7,7.6,2.4,11,3.7c-0.3-0.2-0.9-0.4-0.7-0.8
				c5.1,0.5,7.6-0.5,13,1.4c-1.2,1.9,0.6,2.7,0.3,4.3c13.8,3,25.6-1,39.4-0.4c1.2-1.2-1.3-0.9-0.1-2.1c0.3,1.7,3,2.4,4.4,1.9
				c-1.2,2.3,2.2,0.8,1.9,2.9c1.1-0.3,2.4-0.2,3.7,0c0.4-1.1-0.2-1.7,0.9-2.2c-1-0.8-2.5,1.5-2.6-0.1c3.4-0.7,4.1-4.9,1.5-7.2
				c-4.3,0.9-11.1,0.3-14.9-0.6c4.4-0.3,8.5-1.3,12.6-2.5c-0.8-0.3-0.8-0.9-0.3-1.7c2,0.7,5-0.8,6.1,0.5c-1.9,0-3.8,0.3-5.6,0.8
				c7.7-0.2,15.7,0.3,22.2-3c-1.1-1.4-5-0.9-4.7,1.1c-1.9-0.6-3.6,0.9-4.2-1.3c-1.5,3-4.8,1.5-7.2,2.1c0.2-1.9-1.9-1.4-0.8-3
				c-1.9-1.4-4.5,2.1-4.8-1c7-0.9,14.3-1.9,20.9,0.1c-1.8-0.9,1.9-1.4,3.2-0.2c0.8-4.3,9.7-0.6,10.2-5.6c-3.4,3.4-9.8-0.6-13.4,2.1
				c0.9,1,2.4-1.2,2.4,0.5c-6.9-0.6-16.6-0.9-22.8-0.4c-0.3,0.6-0.2,1.1-0.1,1.5c-4.5-1.4-12.3-1.9-15.3,0.3
				C145.9,454.4,138,455.5,135.2,455.7z M116,468.9c3.6-0.8,11.4,0.6,11.9,0.4c0.6-1.1,0.5,0.9,1.8,0.8
				C125.7,470.6,119.7,470.7,116,468.9z"/>
			<path fill-rule="evenodd" clip-rule="evenodd" fill="#836031" d="M115.6,484.4c-0.9,0.9,3.3-2.7,0.8-1.8c3-1.1,11,0.6,17,0.5
				c2.9,0,6.4,0.2,9.7,0.5c-7.8-1.6,0.9-1.2,4.9-1.6c-4-1.7-9.7,0.3-14.7-1.1c3.1-1.4,7-1.7,11.1-1.5c6.7,0.3,14.5,0.4,20.4,2.5
				c-2.6,2.3-6.8,0.7-10,1.5c-0.3,1.4,1.1,0,1.8,0.8c-2.6,0.6-5.1-1.8-6.6,0.8c-1.6-0.7-3.7-0.5-6.9-0.9c1.4,1.8-4.9,2.4-6,0.6
				c-0.5,1.3-3.5,1.6-5.7,1.2c0.4,1.6,2.6-0.2,3.9,0.6C128.8,486.5,121.9,486.2,115.6,484.4z"/>
			<path fill-rule="evenodd" clip-rule="evenodd" fill="#836031" d="M158,393.8c1.9-1.3,9.8-3,12.6-2.5c-0.5,1.4-2.2,0.1-3,0.8
				c2.1,1.4-2.8,1.4-4.4,1.8c-0.4-0.2-0.1-0.7-0.1-1.1C161.6,393.6,159.5,393.1,158,393.8z"/>
			<path fill-rule="evenodd" clip-rule="evenodd" fill="#836031" d="M166.6,451.9c0.5,2.1,2-1.1,2.7-1.5c0.6,0.3,1.2,0.5,1.8,0.8
				c-1.3,1.7-3.3,1.5-5,2c-0.5-1.2,0-1-1.6-1.2c0.8-0.4,3.3-1.4,3.4-0.6C167.7,452.2,167.2,452.1,166.6,451.9z"/>
		</g>
		<g>
			
				<rect x="183.6" y="391.3" transform="matrix(-0.3935 0.9193 -0.9193 -0.3935 759.8997 427.557)" fill="none" width="110.6" height="146.3"/>
			<path fill-rule="evenodd" clip-rule="evenodd" fill="#836031" d="M271.7,473.1c3.4-0.8,7.1-0.6,10.7-0.6
				C279.5,474.2,275.6,473.7,271.7,473.1z"/>
			<path fill-rule="evenodd" clip-rule="evenodd" fill="#836031" d="M279.8,467.7c4.1-1,10.3-1.7,14.5,0.4c-0.9,1.2,0.2,1.6-0.7,2.8
				C289.2,470.7,282.3,471.6,279.8,467.7z"/>
			<path fill-rule="evenodd" clip-rule="evenodd" fill="#836031" d="M256.7,431.2c-1-2-2.3,1.1-3.9,0.4c3.3,0.2,10,0.9,12.1-2.7
				c0.3,0.4,0.6,0.9,0.9,0.4c0.8,0.2,0.7,0.7,0.5,1.3c2.3,0.8,1.6-1.2,3.2-1.3c-0.6,2.4,3.9,0,2.4,0.5c-0.6-1.4,2.5-1.6,3.2-0.2
				c2.7,0.5,5.7-2.7,7.7-0.9c-6.3,3.5-17.5,1.5-20.8,4.7c-1.4,0.6-4.3-2.4-5.8,0.1c-1.1-1.2-5.6-1.6-5.4,0.3c0.8-0.7,2.1-0.3,3-0.8
				c0.3,2.6-2.1,0.7-3.8,1.5c1.1-2.7-6.3-0.9-8.6-0.6c-0.5-1.6,3-1,4.2-1.3c-0.9-1.2-3.6,0.6-5.6-0.3c0,0.5,0,1,0.5,1.3
				c-2.1,2-4.5-2.1-6.7-0.2c-0.2,0.7,2.5,0.7,3,0.3c-1,1-10.4,2.3-10.1,0.4c-1.4-0.2-0.8,0.4-1.2,1.6c-4.7-0.1-8.8,1.1-13.5,1
				c0.1,1.2,2.6,0.2,2.3,2c0.7,0.1,0.1-0.6,0.6-1.3c1.7,0.3,1.5,1.6,2.7,1.1c0.2-1.1-0.9,0.2-1.1-1c1-1.5,2.3,0.3,2.7,1.1
				c14.2-0.7,29.2-2,44.2-3.1c-6.3,1.9-16.4,2.4-24.4,3.2c-0.5,0.7,0,1,0.5,1.3c-0.5,0.9-1.8-0.3-2.3,0.6c-0.6-0.7,0.3-0.8,0.6-1.3
				c-1.6-0.6-1.8,2.2-3.1,2.3c-1.5-0.8-4.1-0.5-3.7,0c-0.5,0.8-3.1-1.4-1.4-1.6c-1.7-0.6-2.8-0.1-2.7,1.5c-7-0.4-13.5,0.3-20.4,0.1
				c-0.2,0.4,0.4,0.6,0.7,0.8c-12.2-0.7-23.6,1.2-36.5-2.6c1.9-0.3,1.9-0.7,0.3-2c5.7,1.1,14.6-0.9,20.8,1.6
				c4.7-1.4,10.3-0.4,15.5-0.7c-1.4-2.7-6.8-0.8-9.5-0.9c-1.9-0.2,0-2-1.6-2.3c2.1-1.8,5.2-3.3,9.6-1.6c1-2.1,5.7-0.6,9.8-1
				c2.4-0.2,2.9-0.4,4.9-0.5c3.4-0.2,10.1-2.6,13.5-1c6.4-2.2,14.7,0.3,21.2-1.9C256.3,430,257.5,429.2,256.7,431.2z"/>
			<path fill-rule="evenodd" clip-rule="evenodd" fill="#836031" d="M237.5,423.5c0.6-1-2.1-0.6-0.8-1.9c8.2,0.9,14.3-3.4,22-3.7
				c2.3,1.3,0.6,4.1,1,6.2c-2.3,2.2-6.5-0.3-8.5,2.7c-1.2-0.5-0.6-1.1-1.8-0.8c-13.8,4.3-29.2,4.6-44.2,5.6c1.2-2.2,3.9-0.6,5.5-1.8
				c-4.1,0.2-6.9,0.1-9,1.4c-0.2,1.5,1.1-0.7,2,0.3c-0.9,1-2.6,0.3-3.6,1.1c-1.3-1.4,1.3-0.2,1.2-1.6c-0.8-1.2-3.7-0.1-5.2-0.1
				c-0.2,2.2,1.2,0,2.7,1.1c-4.1-0.8-8.9-0.7-12.2-3.1c0.2-1,1-0.6,1.7-0.3c0.3-3-0.3-3.5,0.2-6.7c10.5-0.5,19.6-4.6,31-2.9
				c0.5-1.6-2.2,0.4-0.9-1.5c6.2,2.2,11.7-0.7,18-0.6c-2-1.4-6.4-0.7-8.6,0.5c-0.4-0.3,0.1-1-0.5-1.3c-1.1,1.9-2.2-0.9-3.3,1.7
				c-1.3-1,0-1.2,0.8-1.8c-1.3-0.5-3.2,0-3.7-1.1c1.9-0.8,2-0.4,4.1,0.2c3.2-1.4,7-1.5,10.7-1.7c1.5-2.6,5.3-3.6,6.9-2.8
				c2.8-2.4,14.1-2.7,10.7,5.6c-11.5,3.9-23.8,5.7-36.9,5.6c0.3-1.1,1.5,0.1,1.9-0.8c-7.2,3.1-17.2,5.3-27.1,4.6
				c0,1.1,2.1-0.1,3.3,0.9c-0.4,0.8-1.6-0.3-1.9,0.8c3.8,0.2,9.8-0.6,10.5-0.2C213.3,425.5,227.4,425.7,237.5,423.5z"/>
			<path fill-rule="evenodd" clip-rule="evenodd" fill="#836031" d="M200,451.3c-1.7,0.6-2.2-2.2-3.5-1.5c-6.6,1-17-1.5-26.3-0.8
				c0.1,1.1,0.1,2.1,0.2,3.2c6.3,3.7,13.2-0.9,19.1,1.9c4.5-0.1,14.8,1,22.8,0.4c-0.5-0.3-1-0.6-0.5-1.3c1.7,0.9,2.3,0,2.5,1.6
				c2.4-2.2,7.2-1.3,9.7-0.6c-0.3-0.2-0.9-0.4-0.7-0.8c1.5-0.4,1.8,1.3,2.8,0.7c-0.8-0.3-0.8-0.9-0.3-1.7c4.7,2.3,6.7-0.1,11.2,0.6
				c-0.2,0.5-0.9,0.4-0.4,0.9c3.5-0.2,9.6-1.1,10.3-3.4c1.6,0.6,2.3,0,2.5,1.6c0.4-0.4,0.9-0.9,1.5-0.9c6.8-0.6,14.6-1,20.4-1.2
				c0-1,3.4-1.2,4.4-2.8c-9.3-1.1-20,1-29.3,2.6c-0.7-1.1,1-0.8,0.1-1.5c-0.7,0.7-1.5-0.3-1,1.1c-9.2-0.9-19.8,3.1-27.3,0.3
				c0.6,0,1.2,0,1.7-0.3c-2.5-0.6-3.6-1.2-6.1-0.5c0.8,1.6,2.5,0.3,4.2,1.3c-0.1,0.7,0.3,1.1-0.3,2c-0.2-2.7-6.3-1.5-3.9-0.6
				c-0.9,1.4-3.2-0.6-4.8-1c-1.2,1.2,1.3,0.9,0.1,2.1C205.6,449.1,201.5,450.7,200,451.3z M241.4,452.3c-0.9,2.5-3.2-0.7-3.6,1.1
				C236.8,451.2,240.8,450.4,241.4,452.3z"/>
			<path fill-rule="evenodd" clip-rule="evenodd" fill="#836031" d="M187.6,446c0.8,0.4,1.2-0.1,2,0.3c0.3-1.4-1.1,0-1.8-0.8
				c3.5-3.1,9-0.3,13.6-2.5c0.9,0.4,0,1.4,1.4,1.6c0.7,0.1,0.1-0.6,0.6-1.3c4.1,0.9,8.8,0.6,13,1.4c-0.1-0.5-0.2-0.9,0.1-1.5
				c2.8,1.7,3.8-0.9,6.8,1.3c0.3-0.5,0.2-0.8-0.1-1.1c7.3,2.7,17.8-1.7,27.1,0.1c0.9-0.3,1.4-1.4,2.3-1.6c5,2.4,8.1,0.3,11.7,1.9
				c0.5-0.8,0.5-1.4-0.3-1.7c3.3-0.8,5.3,0.1,8.4-0.1c-1.9,1.7-5,0.4-7.3,1.1c0.2,0.5,2,0.7,1,2.5c-0.4-0.2-0.1-0.7-0.1-1.1
				c-1.2-0.7-1.8,0.4-3-0.3c-0.1,0.5,0.8,0.7,0.5,1.3c0.6-0.1,1-0.5,1.5-0.9c-2.5,2.4-13.1,1.7-19.1,1.8c-1.4,0.4-2.7,1.1-4.7,0.1
				c1-0.8,2.7,0.1,3.9-0.4c-0.6-1.1-3.2,0.6-5.2-1.2c0.2,0.6,0.5,1.3,0.8,1.9c-1,0.2-1.8,1-3.2,0.2c0.3-1.1,1.5,0.1,1.9-0.8
				c-1.4-0.6-1.9,0.8-3.5-0.4c1.3,3.1-11.8,2.3-12.5-0.1c-1-0.6-0.6,2.1-1.9,0.8c0.2-0.3,0.6-0.3,0.8-0.7c-0.8-0.4-1.2,0.1-2-0.3
				c0.5,2.6,4.6,1.1,5.3,2.3c-4.6,1.9-11.9-2.8-15.9,0.5c-1.2-1.7-8-1.1-8.4,0.1c-5.7-1.1-12.1,1.1-15.9-3.1
				C185.7,443.3,188.3,445.2,187.6,446z"/>
			<path fill-rule="evenodd" clip-rule="evenodd" fill="#836031" d="M194.9,463.2c1.1,0.3-0.1,1.5,0.8,1.9c1.5-0.4,3.3-0.4,5.2,0.1
				c-6.5,2.7-13.8,0.8-22.5,1.3c-0.9,2,2.2,2.7-0.4,3.5c3.4,1.4,7.1-1.2,9.5,0.9c-1.7-0.4-3,0.4-4.7,0.1c-1.1,1.1-0.8,1.5-0.7,2.8
				c-2,0.3-4.4-0.5-6.2-0.1c-1.7,4.9,5.5,3.9,8.5,4.7c1.3-0.1-0.2-1.7,1.2-1.6c3.7,0.9,9.8,0.1,14.2-0.2c-0.3-0.2-0.9-0.4-0.7-0.8
				c3.4,1.8,10.4,1.7,13.2,0.9c-0.2,0.1-0.9-0.6-0.7-0.8c15.4,1.3,29.7-0.2,44.1-1.5c1.2,0.9,1.6-0.2,2.8,0.7
				c2.8-2,7.6,0.7,10.2-1.9c-9.1-0.2-17.3,1.9-26.9,0.5c-3.2,0.7-9.8,2-11.9-0.4c1.9,0.3,5.9,1.7,5.6-0.8c-1.7-1.1-4.2,2-4.4-0.8
				c1.5,1,7.4-1.3,6.1,1.6c1.5-2.9,3.5,0.9,5.6-0.8c-0.9-1-2.4,0.5-2.2-0.9c1.8,1.2,2.2-1.2,3.6-1.1c0.1,1.5,3,0.6,2.1-0.1
				c-0.3,0.5-0.8,0.5-1.3,0.5c3.1-1.1,6.1,0.5,9.2-0.8c-0.3-0.2-0.9-0.4-0.7-0.8c1.3-0.2,1.2,1.8,1.8,0.8c-0.6-0.1-1-1.9,0.1-1.5
				c-0.7,1.2,4.8,1.1,4-0.9c2.6-0.1,3.9,2,5.6,0.3c-0.9-1.1-2,1.6-2-0.3c3.5-0.1,8.8-0.8,13.6-2.5c-2.8-1.2-5,1.8-7.1-0.4
				c-8.8,2.5-16,1.7-25.5,2.2c0.5,0.3,1.3,0.5,1.1,1c-3,0.3-16.3-0.5-13.3,1.6c-8-1.9-13.8,0.5-20.7-0.5c0.3-0.6,0.5-1.2,0.8-1.8
				c4.7,2.1,10.9,0.6,15.7-0.1c-3.1-0.7-4.2-0.6-6.5-0.7c0.3-0.6,0.5-1.2,0.8-1.8c3,0.3,5.7,1.1,9.7-0.6c-2.3,0.4,7.9,2.8,5.6,0.3
				c4.8,1.5,10-2.5,16.7-1.2c0.5-0.8-0.1-1.2,0.3-2c2.1,1,3.1-0.8,4.9-0.5c-1-1.9-5.9-1.1-8.2-0.4c1.3,0.8,2.3-0.3,2,1.4
				c-2,0.7-1.7-2.1-3.1-1.3c-1.7,0.3-6.2,1.3-10,1.5c-13.8,0.7-30.7-0.2-43.9,1.1c0.6,0.4,1.7,0.5,1.6,1.2
				C196,464.5,195.8,462.2,194.9,463.2z M228.2,472.3c0.1,1.5,0.9,1.3,1.3,3.2c-4.5-2-12,1-16.7-1.4c-4.2,1.7-11.8-0.2-18,0.6
				c5.2-1.1,12.8-2.6,16.7-1.2c0.7-0.6,1.9,0,2.3-1.6C214.1,474.4,224.7,475.7,228.2,472.3z"/>
			<path fill-rule="evenodd" clip-rule="evenodd" fill="#836031" d="M284.1,457.5c-0.5-0.4-0.7-1-0.3-1.7c-1.2-0.9-1.4,0.8-2.6-0.1
				c-0.3,1.4,1.1,0,1.8,0.8c-3.7-0.4-5.6,0.6-8.4,0.1c-0.2,0.2,0.4,0.9,0.7,0.8c-3.5,0.5-11.2,0.7-16,2c4.1,0,8-0.8,12.2-0.5
				c-4.3,0.4-9.3,2.6-13.6-0.1c-5,0.6-12.8,0.2-18.6,2c1.1-0.2,0.5-1.6-0.3-0.6c-0.6-0.5,0.2-0.4,0.4-0.9c-1.2-0.9-4.1,0-5.2-1.2
				c1.4-0.8,4.7-1.7,5.8-0.1c0.8-0.2,1.4-0.8,2.1-1.2c16.9-0.1,33.2-1.8,49-4.6c1.6,0.6,2.4,0.3,2.9,1.8
				C289.7,456,288.3,454.7,284.1,457.5z"/>
			<path fill-rule="evenodd" clip-rule="evenodd" fill="#836031" d="M218,460.6c1.3,0.2,2-1,3.4-0.6c-3.2,3.9-9.7-0.6-13.4,2.1
				c-4.6-1.7-8.1-0.2-10.9-1.5c0.7-1.5,2.5-0.4,3.8-0.4c-0.1-1.4-2.2-0.2-3.3-0.9c1.6-1.2,4.1,0,6-0.6c-1.6-1.6-5.7,0.4-7.9-2.3
				c5.6-0.5,13,3.2,17.9,0.9c0.4,0.1,0.3,0.4,0.3,0.6C210.7,459.6,218.8,458.2,218,460.6z"/>
			<path fill-rule="evenodd" clip-rule="evenodd" fill="#836031" d="M228.6,489.7c-0.5-0.3-0.1-0.5,0.2-0.4
				c-4.1-2-12.8,1.1-17.9-0.9c-0.8-0.2-1.3,0.3-1.6,1.4c-4.5-0.8-8.6-0.8-12.2,0.5c-0.6-0.5-0.8-1.1-1.4-1.6
				c0.2-0.2,1.8-1.2,0.8-1.8c14.2-2.5,30.1,0.9,43.7-0.7c-1.1-1.8-5.1,0.8-6.3-1.1c-0.4,0.8,0.1,1.2-0.3,2c-2-1.5-4.3-2.9-5.7-1.4
				c-5-2.9-7.7-1.5-12-2.5c2.2-1.3,4.9-1.1,7.7-0.9c-2.8-1.4,1.4-1,3.2-1.3c-1.4-1.8,2.7-1.3,4.5-0.7c-3.6,0.5-0.2-0.1-1.8,1.8
				c1.5,0.8,2.2-0.6,3.7,0c-0.2-0.5,0.3-1.3-0.3-1.7c-0.8-0.2-0.1,1.8-1.9,0.8c0.4-0.3,0.9-0.6,0.4-0.9c0.7-1,2.1-0.3,3.2-0.2
				c-0.2,0.3-0.6,0.3-0.8,0.7c0.8-0.2,1.8,0.3,2.6,0.1c0.1-0.7-0.6-0.1-1.3-0.6c0.4-0.7,1.2-0.7,2.1-0.1c-0.2,2-1.7,0.5-2.3,1.6
				c3.3-0.2,7,0.5,10.1-0.4c-1.9-0.8-3.1-1.9-6.9-0.9c-1-1.9,2.4-0.7,3.4-0.6c0.4-0.5-0.6-2.1-1.1-1c1.6-0.7,6.8,0.1,10.8,0.4
				c0.2-0.5-0.6-0.7-1.1-1c3.6-0.1,7-0.7,11.2,0.6c-0.2,0.8-0.7,0.6-1,1.1c1.3,0.5,4.8-2.1,3.5-2.1c1.9,0.9,4.5-0.3,6-0.6
				c2.2-0.4,4.8,0.3,6.7,0.2c5.1-0.2,9.4-2,15.4-1.8c-0.1-1-3.3-2.3-3.7-1.1c-0.5-2.1-2.5-1.6-4.9-2.1c1.8-1.1,4.1-0.8,6.4-0.4
				c-0.2,0.3-0.6,0.3-0.8,0.7c2.3,0.9,3.5-1.1,6.1,0.5c-0.4,0.7,0.1,0.9-0.1,1.5c6.4,0.8,11.2-2.5,17.3-2.5
				c1.7,5.9-8.1,7.2-11.5,6.1c-0.2,1.9-3.6,0.6-5,2c0.6,1.9-1.8,2.9,0.4,3.8c-3.4,0.9-7.1,1.1-10.7,1.7c0.9-0.6,1.9-0.7,2.7-1.5
				c-4.1-3.7-10.1,0.6-15.8-2.1c-1.5-0.2,0.7,1.1-0.3,2c-6.1-0.3-13.4-0.4-18,0.6c-0.5,0.1-2-1-1.9,0.8c-1.4-1.8-2.5,0.4-3.3-2
				c-0.6,1.3-1.1-0.3-3-0.3c0.9,2.5-0.9,1.5-2.5,2.1c1.9,0.9,3,2,4.8,1c0.6,0.6-0.2,1.1-0.8,0.7c-0.4,0.8,0.1,1.2-0.3,2
				c-0.8-0.2-0.7-0.8-0.3-0.6c0-1.6-1.7-0.2-2.7-1.1c0,0.5,0,1,0.5,1.3c-3.2,0.6-8.4-2-11.8,0.7
				C230.6,488.8,229.2,488.3,228.6,489.7z"/>
			<path fill-rule="evenodd" clip-rule="evenodd" fill="#836031" d="M264.8,484.3c3.4,3.4,10-1.3,13.8,0.7c-1.2,1-3,0.4-4.5,0.7
				c0,0.6,0.2,1.1,0.9,1.5c-1.5,0.4-3,1-4.9,0.5c0.8-1.5,2.7,0.1,3.6-1.1c-0.7-1.4-5.6-0.7-5.1,0.9c-2.5-1.3-5.3,1.9-8.8,1
				c0.5-0.8,1.6-0.4,2.1-1.2c-3.8,0-7.4,0.4-11.2,0.4c-0.2,1.5,1.5,0.3,2.2,0.9c-0.3,1.6-5.8,0-3.2,0.2c0.3-1.4-1.1,0-1.8-0.8
				c5-3.2,10.5-3,16.5-1.8C264.3,485.7,264.5,485,264.8,484.3z"/>
			<path fill-rule="evenodd" clip-rule="evenodd" fill="#836031" d="M246.9,490.7c-10.4,0.8-24.4-0.3-33.8,0.7
				c-4.7,0.5-11.9-0.7-17.2-0.1c-0.3,1.1,0,2-0.9,3.3c2.8,1.3,4.6,1.7,5.6,0.3c3.3,1.1,5.9,0.7,8.6,0.6c-0.2-0.6-1.6-0.8-0.8-1.9
				c13.1,0.3,25-0.4,37-0.9c-0.3,0.5-1.1,0.6,0.1,1.1c7.3-2.9,13.7-2.5,21.5-0.2c1.2-0.4,1-1.2,1.6-1.4c-0.2,0.7,0.8,0.9,0.9,1.5
				c1.2-0.4,1-1.2,1.6-1.4c0.8,1.3,2.8,0.4,2.7,2.2c-5.8,2.5-12.8,2.1-18.7,4.6c-0.9-0.4-1.8-0.8-2.7-1.1c-1.3,0.2,0.1,1.3-1,1.1
				c-1-0.7-1.3-1.2-2.4-0.5c-0.5,0.7-6.4,0.5-8,0.3c-10.4,2.7-26.7-1.5-38.2,1.4c-0.8,5.7,7.6,2.4,11,3.7c-0.3-0.2-0.9-0.4-0.7-0.8
				c5.1,0.5,7.6-0.5,13,1.4c-1.2,1.9,0.6,2.7,0.3,4.3c13.8,3,25.6-1,39.4-0.4c1.2-1.2-1.3-0.9-0.1-2.1c0.3,1.7,3,2.4,4.4,1.9
				c-1.2,2.3,2.2,0.8,1.9,2.9c1.1-0.3,2.4-0.2,3.7,0c0.4-1.1-0.2-1.7,0.9-2.2c-1-0.8-2.5,1.5-2.6-0.1c3.4-0.7,4.1-4.9,1.5-7.2
				c-4.3,0.9-11.1,0.3-14.9-0.6c4.4-0.3,8.5-1.3,12.6-2.5c-0.8-0.3-0.8-0.9-0.3-1.7c2,0.7,5-0.8,6.1,0.5c-1.9,0-3.8,0.3-5.6,0.8
				c7.7-0.2,15.7,0.3,22.2-3c-1.1-1.4-5-0.9-4.7,1.1c-1.9-0.6-3.6,0.9-4.2-1.3c-1.5,3-4.8,1.5-7.2,2.1c0.2-1.9-1.9-1.4-0.8-3
				c-1.9-1.4-4.5,2.1-4.8-1c7-0.9,14.3-1.9,20.9,0.1c-1.8-0.9,1.9-1.4,3.2-0.2c0.8-4.3,9.7-0.6,10.2-5.6c-3.4,3.4-9.8-0.6-13.4,2.1
				c0.9,1,2.4-1.2,2.4,0.5c-6.9-0.6-16.6-0.9-22.8-0.4c-0.3,0.6-0.2,1.1-0.1,1.5c-4.5-1.4-12.3-1.9-15.3,0.3
				C257.6,489.4,249.7,490.5,246.9,490.7z M227.7,503.9c3.6-0.8,11.4,0.6,11.9,0.4c0.6-1.1,0.5,0.9,1.8,0.8
				C237.4,505.7,231.4,505.8,227.7,503.9z"/>
			<path fill-rule="evenodd" clip-rule="evenodd" fill="#836031" d="M227.3,519.5c-0.9,0.9,3.3-2.7,0.8-1.8c3-1.1,11,0.6,17,0.5
				c2.9,0,6.4,0.2,9.7,0.5c-7.8-1.6,0.9-1.2,4.9-1.6c-4-1.7-9.7,0.3-14.7-1.1c3.1-1.4,7-1.7,11.1-1.5c6.7,0.3,14.5,0.4,20.4,2.5
				c-2.6,2.3-6.8,0.7-10,1.5c-0.3,1.4,1.1,0,1.8,0.8c-2.6,0.6-5.1-1.8-6.6,0.8c-1.6-0.7-3.7-0.5-6.9-0.9c1.4,1.8-4.9,2.4-6,0.6
				c-0.5,1.3-3.5,1.6-5.7,1.2c0.4,1.6,2.6-0.2,3.9,0.6C240.5,521.6,233.7,521.2,227.3,519.5z"/>
			<path fill-rule="evenodd" clip-rule="evenodd" fill="#836031" d="M269.7,428.9c1.9-1.3,9.8-3,12.6-2.5c-0.5,1.4-2.2,0.1-3,0.8
				c2.1,1.4-2.8,1.4-4.4,1.8c-0.4-0.2-0.1-0.7-0.1-1.1C273.3,428.6,271.3,428.1,269.7,428.9z"/>
			<path fill-rule="evenodd" clip-rule="evenodd" fill="#836031" d="M278.3,486.9c0.5,2.1,2-1.1,2.7-1.5c0.6,0.3,1.2,0.5,1.8,0.8
				c-1.3,1.7-3.3,1.5-5,2c-0.5-1.2,0-1-1.6-1.2c0.8-0.4,3.3-1.4,3.4-0.6C279.4,487.3,278.9,487.1,278.3,486.9z"/>
		</g>
		<g>
			
				<rect x="110.6" y="507.7" transform="matrix(-0.3935 0.9193 -0.9193 -0.3935 765.1804 656.8633)" fill="none" width="110.6" height="146.3"/>
			<path fill-rule="evenodd" clip-rule="evenodd" fill="#836031" d="M198.7,589.5c3.4-0.8,7.1-0.6,10.7-0.6
				C206.5,590.6,202.6,590.1,198.7,589.5z"/>
			<path fill-rule="evenodd" clip-rule="evenodd" fill="#836031" d="M206.8,584.1c4.1-1,10.3-1.7,14.5,0.4c-0.9,1.2,0.2,1.6-0.7,2.8
				C216.2,587.1,209.3,588,206.8,584.1z"/>
			<path fill-rule="evenodd" clip-rule="evenodd" fill="#836031" d="M183.7,547.6c-1-2-2.3,1.1-3.9,0.4c3.3,0.2,10,0.9,12.1-2.7
				c0.3,0.4,0.6,0.9,0.9,0.4c0.8,0.2,0.7,0.7,0.5,1.3c2.3,0.8,1.6-1.2,3.2-1.3c-0.6,2.4,3.9,0,2.4,0.5c-0.6-1.4,2.5-1.6,3.2-0.2
				c2.7,0.5,5.7-2.7,7.7-0.9c-6.3,3.5-17.5,1.5-20.8,4.7c-1.4,0.6-4.3-2.4-5.8,0.1c-1.1-1.2-5.6-1.6-5.4,0.3c0.8-0.7,2.1-0.3,3-0.8
				c0.3,2.6-2.1,0.7-3.8,1.5c1.1-2.7-6.3-0.9-8.6-0.6c-0.5-1.6,3-1,4.2-1.3c-0.9-1.2-3.6,0.6-5.6-0.3c0,0.5,0,1,0.5,1.3
				c-2.1,2-4.5-2.1-6.7-0.2c-0.2,0.7,2.5,0.7,3,0.3c-1,1-10.4,2.3-10.1,0.4c-1.4-0.2-0.8,0.4-1.2,1.6c-4.7-0.1-8.8,1.1-13.5,1
				c0.1,1.2,2.6,0.2,2.3,2c0.7,0.1,0.1-0.6,0.6-1.3c1.7,0.3,1.5,1.6,2.7,1.1c0.2-1.1-0.9,0.2-1.1-1c1-1.5,2.3,0.3,2.7,1.1
				c14.2-0.7,29.2-2,44.2-3.1c-6.3,1.9-16.4,2.4-24.4,3.2c-0.5,0.7,0,1,0.5,1.3c-0.5,0.9-1.8-0.3-2.3,0.6c-0.6-0.7,0.3-0.8,0.6-1.3
				c-1.6-0.6-1.8,2.2-3.1,2.3c-1.5-0.8-4.1-0.5-3.7,0c-0.5,0.8-3.1-1.4-1.4-1.6c-1.7-0.6-2.8-0.1-2.7,1.5c-7-0.4-13.5,0.3-20.4,0.1
				c-0.2,0.4,0.4,0.6,0.7,0.8c-12.2-0.7-23.6,1.2-36.5-2.6c1.9-0.3,1.9-0.7,0.3-2c5.7,1.1,14.6-0.9,20.8,1.6
				c4.7-1.4,10.3-0.4,15.5-0.7c-1.4-2.7-6.8-0.8-9.5-0.9c-1.9-0.2,0-2-1.6-2.3c2.1-1.8,5.2-3.3,9.6-1.6c1-2.1,5.7-0.6,9.8-1
				c2.4-0.2,2.9-0.4,4.9-0.5c3.4-0.2,10.1-2.6,13.5-1c6.4-2.2,14.7,0.3,21.2-1.9C183.3,546.4,184.5,545.6,183.7,547.6z"/>
			<path fill-rule="evenodd" clip-rule="evenodd" fill="#836031" d="M164.5,539.9c0.6-1-2.1-0.6-0.8-1.9c8.2,0.9,14.3-3.4,22-3.7
				c2.3,1.3,0.6,4.1,1,6.2c-2.3,2.2-6.5-0.3-8.5,2.7c-1.2-0.5-0.6-1.1-1.8-0.8c-13.8,4.3-29.2,4.6-44.2,5.6c1.2-2.2,3.9-0.6,5.5-1.8
				c-4.1,0.2-6.9,0.1-9,1.4c-0.2,1.5,1.1-0.7,2,0.3c-0.9,1-2.6,0.3-3.6,1.1c-1.3-1.4,1.3-0.2,1.2-1.6c-0.8-1.2-3.7-0.1-5.2-0.1
				c-0.2,2.2,1.2,0,2.7,1.1c-4.1-0.8-8.9-0.7-12.2-3.1c0.2-1,1-0.6,1.7-0.3c0.3-3-0.3-3.5,0.2-6.7c10.5-0.5,19.6-4.6,31-2.9
				c0.5-1.6-2.2,0.4-0.9-1.5c6.2,2.2,11.7-0.7,18-0.6c-2-1.4-6.4-0.7-8.6,0.5c-0.4-0.3,0.1-1-0.5-1.3c-1.1,1.9-2.2-0.9-3.3,1.7
				c-1.3-1,0-1.2,0.8-1.8c-1.3-0.5-3.2,0-3.7-1.1c1.9-0.8,2-0.4,4.1,0.2c3.2-1.4,7-1.5,10.7-1.7c1.5-2.6,5.3-3.6,6.9-2.8
				c2.8-2.4,14.1-2.7,10.7,5.6c-11.5,3.9-23.8,5.7-36.9,5.6c0.3-1.1,1.5,0.1,1.9-0.8c-7.2,3.1-17.2,5.3-27.1,4.6
				c0,1.1,2.1-0.1,3.3,0.9c-0.4,0.8-1.6-0.3-1.9,0.8c3.8,0.2,9.8-0.6,10.5-0.2C140.3,541.9,154.3,542.1,164.5,539.9z"/>
			<path fill-rule="evenodd" clip-rule="evenodd" fill="#836031" d="M127,567.7c-1.7,0.6-2.2-2.2-3.5-1.5c-6.6,1-17-1.5-26.3-0.8
				c0.1,1.1,0.1,2.1,0.2,3.2c6.3,3.7,13.2-0.9,19.1,1.9c4.5-0.1,14.8,1,22.8,0.4c-0.5-0.3-1-0.6-0.5-1.3c1.7,0.9,2.3,0,2.5,1.6
				c2.4-2.2,7.2-1.3,9.7-0.6c-0.3-0.2-0.9-0.4-0.7-0.8c1.5-0.4,1.8,1.3,2.8,0.7c-0.8-0.3-0.8-0.9-0.3-1.7c4.7,2.3,6.7-0.1,11.2,0.6
				c-0.2,0.5-0.9,0.4-0.4,0.9c3.5-0.2,9.6-1.1,10.3-3.4c1.6,0.6,2.3,0,2.5,1.6c0.4-0.4,0.9-0.9,1.5-0.9c6.8-0.6,14.6-1,20.4-1.2
				c0-1,3.4-1.2,4.4-2.8c-9.3-1.1-20,1-29.3,2.6c-0.7-1.1,1-0.8,0.1-1.5c-0.7,0.7-1.5-0.3-1,1.1c-9.2-0.9-19.8,3.1-27.3,0.3
				c0.6,0,1.2,0,1.7-0.3c-2.5-0.6-3.6-1.2-6.1-0.5c0.8,1.6,2.5,0.3,4.2,1.3c-0.1,0.7,0.3,1.1-0.3,2c-0.2-2.7-6.3-1.5-3.9-0.6
				c-0.9,1.4-3.2-0.6-4.8-1c-1.2,1.2,1.3,0.9,0.1,2.1C132.6,565.5,128.5,567.1,127,567.7z M168.4,568.7c-0.9,2.5-3.2-0.7-3.6,1.1
				C163.7,567.6,167.8,566.8,168.4,568.7z"/>
			<path fill-rule="evenodd" clip-rule="evenodd" fill="#836031" d="M114.6,562.4c0.8,0.4,1.2-0.1,2,0.3c0.3-1.4-1.1,0-1.8-0.8
				c3.5-3.1,9-0.3,13.6-2.5c0.9,0.4,0,1.4,1.4,1.6c0.7,0.1,0.1-0.6,0.6-1.3c4.1,0.9,8.8,0.6,13,1.4c-0.1-0.5-0.2-0.9,0.1-1.5
				c2.8,1.7,3.8-0.9,6.8,1.3c0.3-0.5,0.2-0.8-0.1-1.1c7.3,2.7,17.8-1.7,27.1,0.1c0.9-0.3,1.4-1.4,2.3-1.6c5,2.4,8.1,0.3,11.7,1.9
				c0.5-0.8,0.5-1.4-0.3-1.7c3.3-0.8,5.3,0.1,8.4-0.1c-1.9,1.7-5,0.4-7.3,1.1c0.2,0.5,2,0.7,1,2.5c-0.4-0.2-0.1-0.7-0.1-1.1
				c-1.2-0.7-1.8,0.4-3-0.3c-0.1,0.5,0.8,0.7,0.5,1.3c0.6-0.1,1-0.5,1.5-0.9c-2.5,2.4-13.1,1.7-19.1,1.8c-1.4,0.4-2.7,1.1-4.7,0.1
				c1-0.8,2.7,0.1,3.9-0.4c-0.6-1.1-3.2,0.6-5.2-1.2c0.2,0.6,0.5,1.3,0.8,1.9c-1,0.2-1.8,1-3.2,0.2c0.3-1.1,1.5,0.1,1.9-0.8
				c-1.4-0.6-1.9,0.8-3.5-0.4c1.3,3.1-11.8,2.3-12.5-0.1c-1-0.6-0.6,2.1-1.9,0.8c0.2-0.3,0.6-0.3,0.8-0.7c-0.8-0.4-1.2,0.1-2-0.3
				c0.5,2.6,4.6,1.1,5.3,2.3c-4.6,1.9-11.9-2.8-15.9,0.5c-1.2-1.7-8-1.1-8.4,0.1c-5.7-1.1-12.1,1.1-15.9-3.1
				C112.7,559.7,115.3,561.6,114.6,562.4z"/>
			<path fill-rule="evenodd" clip-rule="evenodd" fill="#836031" d="M121.9,579.6c1.1,0.3-0.1,1.5,0.8,1.9c1.5-0.4,3.3-0.4,5.2,0.1
				c-6.5,2.7-13.8,0.8-22.5,1.3c-0.9,2,2.2,2.7-0.4,3.5c3.4,1.4,7.1-1.2,9.5,0.9c-1.7-0.4-3,0.4-4.7,0.1c-1.1,1.1-0.8,1.5-0.7,2.8
				c-2,0.3-4.4-0.5-6.2-0.1c-1.7,4.9,5.5,3.9,8.5,4.7c1.3-0.1-0.2-1.7,1.2-1.6c3.7,0.9,9.8,0.1,14.2-0.2c-0.3-0.2-0.9-0.4-0.7-0.8
				c3.4,1.8,10.4,1.7,13.2,0.9c-0.2,0.1-0.9-0.6-0.7-0.8c15.4,1.3,29.7-0.2,44.1-1.5c1.2,0.9,1.6-0.2,2.8,0.7
				c2.8-2,7.6,0.7,10.2-1.9c-9.1-0.2-17.3,1.9-26.9,0.5c-3.2,0.7-9.8,2-11.9-0.4c1.9,0.3,5.9,1.7,5.6-0.8c-1.7-1.1-4.2,2-4.4-0.8
				c1.5,1,7.4-1.3,6.1,1.6c1.5-2.9,3.5,0.9,5.6-0.8c-0.9-1-2.4,0.5-2.2-0.9c1.8,1.2,2.2-1.2,3.6-1.1c0.1,1.5,3,0.6,2.1-0.1
				c-0.3,0.5-0.8,0.5-1.3,0.5c3.1-1.1,6.1,0.5,9.2-0.8c-0.3-0.2-0.9-0.4-0.7-0.8c1.3-0.2,1.2,1.8,1.8,0.8c-0.6-0.1-1-1.9,0.1-1.5
				c-0.7,1.2,4.8,1.1,4-0.9c2.6-0.1,3.9,2,5.6,0.3c-0.9-1.1-2,1.6-2-0.3c3.5-0.1,8.8-0.8,13.6-2.5c-2.8-1.2-5,1.8-7.1-0.4
				c-8.8,2.5-16,1.7-25.5,2.2c0.5,0.3,1.3,0.5,1.1,1c-3,0.3-16.3-0.5-13.3,1.6c-8-1.9-13.8,0.5-20.7-0.5c0.3-0.6,0.5-1.2,0.8-1.8
				c4.7,2.1,10.9,0.6,15.7-0.1c-3.1-0.7-4.2-0.6-6.5-0.7c0.3-0.6,0.5-1.2,0.8-1.8c3,0.3,5.7,1.1,9.7-0.6c-2.3,0.4,7.9,2.8,5.6,0.3
				c4.8,1.5,10-2.5,16.7-1.2c0.5-0.8-0.1-1.2,0.3-2c2.1,1,3.1-0.8,4.9-0.5c-1-1.9-5.9-1.1-8.2-0.4c1.3,0.8,2.3-0.3,2,1.4
				c-2,0.7-1.7-2.1-3.1-1.3c-1.7,0.3-6.2,1.3-10,1.5c-13.8,0.7-30.7-0.2-43.9,1.1c0.6,0.4,1.7,0.5,1.6,1.2
				C123,580.9,122.8,578.6,121.9,579.6z M155.2,588.7c0.1,1.5,0.9,1.3,1.3,3.2c-4.5-2-12,1-16.7-1.4c-4.2,1.7-11.8-0.2-18,0.6
				c5.2-1.1,12.8-2.6,16.7-1.2c0.7-0.6,1.9,0,2.3-1.6C141.1,590.8,151.7,592.1,155.2,588.7z"/>
			<path fill-rule="evenodd" clip-rule="evenodd" fill="#836031" d="M211.1,573.9c-0.5-0.4-0.7-1-0.3-1.7c-1.2-0.9-1.4,0.8-2.6-0.1
				c-0.3,1.4,1.1,0,1.8,0.8c-3.7-0.4-5.6,0.6-8.4,0.1c-0.2,0.2,0.4,0.9,0.7,0.8c-3.5,0.5-11.2,0.7-16,2c4.1,0,8-0.8,12.2-0.5
				c-4.3,0.4-9.3,2.6-13.6-0.1c-5,0.6-12.8,0.2-18.6,2c1.1-0.2,0.5-1.6-0.3-0.6c-0.6-0.5,0.2-0.4,0.4-0.9c-1.2-0.9-4.1,0-5.2-1.2
				c1.4-0.8,4.7-1.7,5.8-0.1c0.8-0.2,1.4-0.8,2.1-1.2c16.9-0.1,33.2-1.8,49-4.6c1.6,0.6,2.4,0.3,2.9,1.8
				C216.7,572.4,215.3,571.1,211.1,573.9z"/>
			<path fill-rule="evenodd" clip-rule="evenodd" fill="#836031" d="M145,577c1.3,0.2,2-1,3.4-0.6c-3.2,3.9-9.7-0.6-13.4,2.1
				c-4.6-1.7-8.1-0.2-10.9-1.5c0.7-1.5,2.5-0.4,3.8-0.4c-0.1-1.4-2.2-0.2-3.3-0.9c1.6-1.2,4.1,0,6-0.6c-1.6-1.6-5.7,0.4-7.9-2.3
				c5.6-0.5,13,3.2,17.9,0.9c0.4,0.1,0.3,0.4,0.3,0.6C137.7,576,145.8,574.6,145,577z"/>
			<path fill-rule="evenodd" clip-rule="evenodd" fill="#836031" d="M155.5,606.1c-0.5-0.3-0.1-0.5,0.2-0.4
				c-4.1-2-12.8,1.1-17.9-0.9c-0.8-0.2-1.3,0.3-1.6,1.4c-4.5-0.8-8.6-0.8-12.2,0.5c-0.6-0.5-0.8-1.1-1.4-1.6
				c0.2-0.2,1.8-1.2,0.8-1.8c14.2-2.5,30.1,0.9,43.7-0.7c-1.1-1.8-5.1,0.8-6.3-1.1c-0.4,0.8,0.1,1.2-0.3,2c-2-1.5-4.3-2.9-5.7-1.4
				c-5-2.9-7.7-1.5-12-2.5c2.2-1.3,4.9-1.1,7.7-0.9c-2.8-1.4,1.4-1,3.2-1.3c-1.4-1.8,2.7-1.3,4.5-0.7c-3.6,0.5-0.2-0.1-1.8,1.8
				c1.5,0.8,2.2-0.6,3.7,0c-0.2-0.5,0.3-1.3-0.3-1.7c-0.8-0.2-0.1,1.8-1.9,0.8c0.4-0.3,0.9-0.6,0.4-0.9c0.7-1,2.1-0.3,3.2-0.2
				c-0.2,0.3-0.6,0.3-0.8,0.7c0.8-0.2,1.8,0.3,2.6,0.1c0.1-0.7-0.6-0.1-1.3-0.6c0.4-0.7,1.2-0.7,2.1-0.1c-0.2,2-1.7,0.5-2.3,1.6
				c3.3-0.2,7,0.5,10.1-0.4c-1.9-0.8-3.1-1.9-6.9-0.9c-1-1.9,2.4-0.7,3.4-0.6c0.4-0.5-0.6-2.1-1.1-1c1.6-0.7,6.8,0.1,10.8,0.4
				c0.2-0.5-0.6-0.7-1.1-1c3.6-0.1,7-0.7,11.2,0.6c-0.2,0.8-0.7,0.6-1,1.1c1.3,0.5,4.8-2.1,3.5-2.1c1.9,0.9,4.5-0.3,6-0.6
				c2.2-0.4,4.8,0.3,6.7,0.2c5.1-0.2,9.4-2,15.4-1.8c-0.1-1-3.3-2.3-3.7-1.1c-0.5-2.1-2.5-1.6-4.9-2.1c1.8-1.1,4.1-0.8,6.4-0.4
				c-0.2,0.3-0.6,0.3-0.8,0.7c2.3,0.9,3.5-1.1,6.1,0.5c-0.4,0.7,0.1,0.9-0.1,1.5c6.4,0.8,11.2-2.5,17.3-2.5
				c1.7,5.9-8.1,7.2-11.5,6.1c-0.2,1.9-3.6,0.6-5,2c0.6,1.9-1.8,2.9,0.4,3.8c-3.4,0.9-7.1,1.1-10.7,1.7c0.9-0.6,1.9-0.7,2.7-1.5
				c-4.1-3.7-10.1,0.6-15.8-2.1c-1.5-0.2,0.7,1.1-0.3,2c-6.1-0.3-13.4-0.4-18,0.6c-0.5,0.1-2-1-1.9,0.8c-1.4-1.8-2.5,0.4-3.3-2
				c-0.6,1.3-1.1-0.3-3-0.3c0.9,2.5-0.9,1.5-2.5,2.1c1.9,0.9,3,2,4.8,1c0.6,0.6-0.2,1.1-0.8,0.7c-0.4,0.8,0.1,1.2-0.3,2
				c-0.8-0.2-0.7-0.8-0.3-0.6c0-1.6-1.7-0.2-2.7-1.1c0,0.5,0,1,0.5,1.3c-3.2,0.6-8.4-2-11.8,0.7
				C157.6,605.2,156.2,604.7,155.5,606.1z"/>
			<path fill-rule="evenodd" clip-rule="evenodd" fill="#836031" d="M191.8,600.7c3.4,3.4,10-1.3,13.8,0.7c-1.2,1-3,0.4-4.5,0.7
				c0,0.6,0.2,1.1,0.9,1.5c-1.5,0.4-3,1-4.9,0.5c0.8-1.5,2.7,0.1,3.6-1.1c-0.7-1.4-5.6-0.7-5.1,0.9c-2.5-1.3-5.3,1.9-8.8,1
				c0.5-0.8,1.6-0.4,2.1-1.2c-3.8,0-7.4,0.4-11.2,0.4c-0.2,1.5,1.5,0.3,2.2,0.9c-0.3,1.6-5.8,0-3.2,0.2c0.3-1.4-1.1,0-1.8-0.8
				c5-3.2,10.5-3,16.5-1.8C191.3,602.1,191.5,601.4,191.8,600.7z"/>
			<path fill-rule="evenodd" clip-rule="evenodd" fill="#836031" d="M173.9,607.1c-10.4,0.8-24.4-0.3-33.8,0.7
				c-4.7,0.5-11.9-0.7-17.2-0.1c-0.3,1.1,0,2-0.9,3.3c2.8,1.3,4.6,1.7,5.6,0.3c3.3,1.1,5.9,0.7,8.6,0.6c-0.2-0.6-1.6-0.8-0.8-1.9
				c13.1,0.3,25-0.4,37-0.9c-0.3,0.5-1.1,0.6,0.1,1.1c7.3-2.9,13.7-2.5,21.5-0.2c1.2-0.4,1-1.2,1.6-1.4c-0.2,0.7,0.8,0.9,0.9,1.5
				c1.2-0.4,1-1.2,1.6-1.4c0.8,1.3,2.8,0.4,2.7,2.2c-5.8,2.5-12.8,2.1-18.7,4.6c-0.9-0.4-1.8-0.8-2.7-1.1c-1.3,0.2,0.1,1.3-1,1.1
				c-1-0.7-1.3-1.2-2.4-0.5c-0.5,0.7-6.4,0.5-8,0.3c-10.4,2.7-26.7-1.5-38.2,1.4c-0.8,5.7,7.6,2.4,11,3.7c-0.3-0.2-0.9-0.4-0.7-0.8
				c5.1,0.5,7.6-0.5,13,1.4c-1.2,1.9,0.6,2.7,0.3,4.3c13.8,3,25.6-1,39.4-0.4c1.2-1.2-1.3-0.9-0.1-2.1c0.3,1.7,3,2.4,4.4,1.9
				c-1.2,2.3,2.2,0.8,1.9,2.9c1.1-0.3,2.4-0.2,3.7,0c0.4-1.1-0.2-1.7,0.9-2.2c-1-0.8-2.5,1.5-2.6-0.1c3.4-0.7,4.1-4.9,1.5-7.2
				c-4.3,0.9-11.1,0.3-14.9-0.6c4.4-0.3,8.5-1.3,12.6-2.5c-0.8-0.3-0.8-0.9-0.3-1.7c2,0.7,5-0.8,6.1,0.5c-1.9,0-3.8,0.3-5.6,0.8
				c7.7-0.2,15.7,0.3,22.2-3c-1.1-1.4-5-0.9-4.7,1.1c-1.9-0.6-3.6,0.9-4.2-1.3c-1.5,3-4.8,1.5-7.2,2.1c0.2-1.9-1.9-1.4-0.8-3
				c-1.9-1.4-4.5,2.1-4.8-1c7-0.9,14.3-1.9,20.9,0.1c-1.8-0.9,1.9-1.4,3.2-0.2c0.8-4.3,9.7-0.6,10.2-5.6c-3.4,3.4-9.8-0.6-13.4,2.1
				c0.9,1,2.4-1.2,2.4,0.5c-6.9-0.6-16.6-0.9-22.8-0.4c-0.3,0.6-0.2,1.1-0.1,1.5c-4.5-1.4-12.3-1.9-15.3,0.3
				C184.6,605.8,176.7,606.9,173.9,607.1z M154.7,620.3c3.6-0.8,11.4,0.6,11.9,0.4c0.6-1.1,0.5,0.9,1.8,0.8
				C164.4,622.1,158.4,622.2,154.7,620.3z"/>
			<path fill-rule="evenodd" clip-rule="evenodd" fill="#836031" d="M154.3,635.9c-0.9,0.9,3.3-2.7,0.8-1.8c3-1.1,11,0.6,17,0.5
				c2.9,0,6.4,0.2,9.7,0.5c-7.8-1.6,0.9-1.2,4.9-1.6c-4-1.7-9.7,0.3-14.7-1.1c3.1-1.4,7-1.7,11.1-1.5c6.7,0.3,14.5,0.4,20.4,2.5
				c-2.6,2.3-6.8,0.7-10,1.5c-0.3,1.4,1.1,0,1.8,0.8c-2.6,0.6-5.1-1.8-6.6,0.8c-1.6-0.7-3.7-0.5-6.9-0.9c1.4,1.8-4.9,2.4-6,0.6
				c-0.5,1.3-3.5,1.6-5.7,1.2c0.4,1.6,2.6-0.2,3.9,0.6C167.5,638,160.6,637.6,154.3,635.9z"/>
			<path fill-rule="evenodd" clip-rule="evenodd" fill="#836031" d="M196.7,545.3c1.9-1.3,9.8-3,12.6-2.5c-0.5,1.4-2.2,0.1-3,0.8
				c2.1,1.4-2.8,1.4-4.4,1.8c-0.4-0.2-0.1-0.7-0.1-1.1C200.3,545,198.3,544.5,196.7,545.3z"/>
			<path fill-rule="evenodd" clip-rule="evenodd" fill="#836031" d="M205.3,603.3c0.5,2.1,2-1.1,2.7-1.5c0.6,0.3,1.2,0.5,1.8,0.8
				c-1.3,1.7-3.3,1.5-5,2c-0.5-1.2,0-1-1.6-1.2c0.8-0.4,3.3-1.4,3.4-0.6C206.4,603.6,205.9,603.5,205.3,603.3z"/>
		</g>
		<g>
			
				<rect x="663.5" y="354.8" transform="matrix(0.3653 -0.9309 0.9309 0.3653 57.8726 940.7897)" fill="none" width="110.6" height="146.3"/>
			<path fill-rule="evenodd" clip-rule="evenodd" fill="#836031" d="M685.8,420.3c-3.3,0.9-7.1,0.8-10.7,1
				C678,419.5,681.9,419.8,685.8,420.3z"/>
			<path fill-rule="evenodd" clip-rule="evenodd" fill="#836031" d="M677.9,426c-4.1,1.2-10.2,2-14.5,0c0.9-1.2-0.3-1.6,0.6-2.9
				C668.4,423.3,675.2,422.1,677.9,426z"/>
			<path fill-rule="evenodd" clip-rule="evenodd" fill="#836031" d="M702,461.8c1,1.9,2.2-1.1,3.8-0.6c-3.3-0.1-10-0.6-12,3
				c-0.3-0.4-0.6-0.9-0.9-0.4c-0.8-0.1-0.7-0.7-0.5-1.2c-2.3-0.7-1.6,1.2-3.1,1.4c0.5-2.4-3.9,0.1-2.4-0.4c0.7,1.3-2.4,1.7-3.2,0.3
				c-2.7-0.5-5.6,2.9-7.7,1.1c6.2-3.7,17.5-2.1,20.7-5.3c1.4-0.6,4.4,2.3,5.8-0.3c1.1,1.2,5.6,1.4,5.4-0.5c-0.8,0.7-2.1,0.4-2.9,0.9
				c-0.4-2.6,2.1-0.7,3.7-1.6c-1,2.8,6.4,0.7,8.7,0.3c0.6,1.6-3,1.1-4.2,1.5c0.9,1.2,3.6-0.8,5.6,0.1c0-0.5-0.1-1-0.5-1.2
				c2-2,4.5,2,6.7,0c0.1-0.7-2.5-0.7-3-0.2c0.9-1,10.3-2.7,10.1-0.7c1.5,0.1,0.8-0.5,1.1-1.6c4.7,0,8.8-1.4,13.5-1.4
				c-0.1-1.1-2.6-0.1-2.3-1.9c-0.7-0.1,0,0.6-0.5,1.3c-1.7-0.2-1.6-1.6-2.7-1.1c-0.1,1.1,0.9-0.3,1.2,1c-0.9,1.5-2.3-0.2-2.7-1.1
				c-14.2,1.1-29.1,2.9-44.1,4.4c6.3-2.1,16.3-2.9,24.3-3.9c0.5-0.7,0-1-0.5-1.2c0.5-0.9,1.8,0.2,2.3-0.6c0.7,0.6-0.3,0.8-0.5,1.3
				c1.6,0.6,1.7-2.2,3-2.4c1.5,0.8,4.1,0.4,3.7-0.1c0.5-0.8,3.1,1.3,1.4,1.6c1.7,0.6,2.8,0,2.7-1.5c7,0.2,13.5-0.7,20.4-0.8
				c0.2-0.4-0.4-0.6-0.7-0.8c12.2,0.3,23.5-1.9,36.6,1.5c-1.9,0.4-1.8,0.8-0.3,2c-5.7-1-14.6,1.4-20.8-0.9
				c-4.6,1.6-10.3,0.7-15.4,1.2c1.5,2.7,6.8,0.6,9.6,0.7c1.9,0.2,0,2,1.7,2.2c-2.1,1.9-5.1,3.5-9.5,1.9c-0.9,2.1-5.7,0.8-9.8,1.3
				c-2.4,0.3-2.9,0.5-4.9,0.7c-3.3,0.3-10,2.9-13.5,1.4c-6.4,2.4-14.7,0.2-21.1,2.5C702.5,462.9,701.3,463.8,702,461.8z"/>
			<path fill-rule="evenodd" clip-rule="evenodd" fill="#836031" d="M721.4,468.9c-0.6,1,2.1,0.6,0.8,1.9
				c-8.2-0.6-14.2,3.8-21.8,4.3c-2.3-1.2-0.7-4.1-1.2-6.2c2.2-2.3,6.5,0.1,8.4-2.9c1.2,0.4,0.6,1.1,1.8,0.7c13.7-4.7,29-5.5,44-7
				c-1.1,2.3-3.9,0.7-5.4,2c4.1-0.3,6.9-0.3,8.9-1.7c0.1-1.5-1.1,0.8-2-0.3c0.9-1,2.5-0.4,3.6-1.2c1.4,1.3-1.3,0.3-1.2,1.6
				c0.8,1.2,3.7,0,5.2,0c0.1-2.2-1.2,0.1-2.7-1.1c4.1,0.7,8.9,0.5,12.3,2.8c-0.2,1-1,0.6-1.7,0.4c-0.2,3,0.4,3.5,0,6.7
				c-10.5,0.9-19.5,5.2-30.9,3.9c-0.4,1.6,2.2-0.5,1,1.4c-6.3-2-11.7,1-18,1.2c2.1,1.4,6.4,0.5,8.6-0.8c0.4,0.3,0,1,0.5,1.2
				c1.1-1.9,2.2,0.8,3.3-1.8c1.3,1,0,1.2-0.7,1.8c1.4,0.4,3.2-0.1,3.8,1c-1.8,0.8-2,0.5-4.1-0.1c-3.2,1.5-6.9,1.7-10.6,2
				c-1.4,2.6-5.2,3.8-6.9,3c-2.7,2.5-14,3.2-10.8-5.3c11.4-4.2,23.7-6.4,36.7-6.8c-0.3,1.1-1.5,0-1.9,0.8c7.1-3.3,17-5.8,26.9-5.4
				c0-1.1-2.1,0.1-3.3-0.8c0.4-0.8,1.6,0.3,1.9-0.8c-3.8,0-9.8,0.9-10.5,0.5C745.6,466.2,731.6,466.4,721.4,468.9z"/>
			<path fill-rule="evenodd" clip-rule="evenodd" fill="#836031" d="M758.1,439.9c1.7-0.6,2.2,2.1,3.6,1.4c6.6-1.2,17.1,0.9,26.3,0
				c-0.1-1.1-0.2-2.1-0.3-3.2c-6.4-3.5-13.2,1.3-19.1-1.3c-4.5,0.3-14.9-0.5-22.8,0.3c0.5,0.3,1,0.6,0.5,1.2
				c-1.7-0.9-2.3,0.1-2.5-1.5c-2.4,2.2-7.2,1.5-9.6,0.9c0.3,0.2,0.9,0.4,0.7,0.8c-1.5,0.4-1.9-1.3-2.9-0.6c0.8,0.3,0.9,0.9,0.4,1.7
				c-4.8-2.2-6.7,0.3-11.2-0.3c0.2-0.5,0.9-0.4,0.4-0.9c-3.4,0.3-9.6,1.4-10.2,3.7c-1.6-0.6-2.3,0.1-2.5-1.5c-0.4,0.4-0.9,0.9-1.4,1
				c-6.8,0.8-14.5,1.5-20.3,1.8c0.1,1-3.4,1.3-4.3,3c9.3,0.8,19.9-1.6,29.3-3.5c0.7,1-1,0.9-0.1,1.5c0.7-0.7,1.5,0.2,1-1.2
				c9.2,0.6,19.6-3.7,27.3-1.2c-0.6,0-1.2,0.1-1.7,0.4c2.5,0.6,3.7,1.1,6.1,0.3c-0.8-1.6-2.5-0.2-4.2-1.1c0.1-0.7-0.3-1.1,0.3-2
				c0.3,2.7,6.3,1.3,3.9,0.5c0.8-1.5,3.2,0.5,4.8,0.9c1.1-1.2-1.3-0.9-0.2-2.1C752.6,442.3,756.6,440.6,758.1,439.9z M716.7,440.2
				c0.8-2.5,3.2,0.6,3.6-1.2C721.4,441.2,717.4,442,716.7,440.2z"/>
			<path fill-rule="evenodd" clip-rule="evenodd" fill="#836031" d="M770.6,444.8c-0.8-0.4-1.2,0.2-2-0.3c-0.2,1.5,1.1-0.1,1.8,0.7
				c-3.5,3.2-9,0.6-13.5,2.9c-0.9-0.4-0.1-1.4-1.4-1.6c-0.7-0.1,0,0.6-0.5,1.3c-4.1-0.8-8.8-0.4-13-1c0.1,0.5,0.2,0.9-0.1,1.5
				c-2.8-1.6-3.7,1-6.8-1.1c-0.3,0.5-0.2,0.8,0.1,1.1c-7.4-2.5-17.7,2.3-27.1,0.7c-0.9,0.3-1.3,1.4-2.2,1.7
				c-5.1-2.3-8.1-0.1-11.8-1.5c-0.5,0.8-0.5,1.4,0.4,1.7c-3.3,0.9-5.3,0.1-8.4,0.3c1.8-1.7,5-0.5,7.2-1.3c-0.3-0.5-2-0.6-1.1-2.5
				c0.4,0.2,0.1,0.7,0.1,1.1c1.3,0.6,1.8-0.5,3,0.2c0.1-0.5-0.8-0.7-0.5-1.2c-0.5,0.2-1,0.5-1.4,1c2.4-2.5,13-2.1,19-2.4
				c1.4-0.4,2.7-1.1,4.7-0.2c-1,0.9-2.7,0-3.8,0.6c0.6,1.1,3.2-0.7,5.3,1c-0.3-0.6-0.5-1.3-0.8-1.9c1-0.3,1.8-1.1,3.2-0.3
				c-0.3,1.1-1.5,0-1.9,0.8c1.4,0.6,1.8-0.9,3.5,0.3c-1.4-3.1,11.8-2.7,12.5-0.3c1,0.6,0.6-2.1,1.9-0.8c-0.2,0.3-0.6,0.3-0.8,0.7
				c0.8,0.4,1.2-0.2,2,0.3c-0.5-2.6-4.6-0.9-5.4-2.1c4.6-2,11.9,2.4,15.9-1c1.2,1.6,8,0.8,8.4-0.3c5.7,0.9,12.1-1.5,16,2.7
				C772.7,447.5,770,445.7,770.6,444.8z"/>
			<path fill-rule="evenodd" clip-rule="evenodd" fill="#836031" d="M762.9,427.8c-1.1-0.3,0-1.5-0.8-1.9c-1.5,0.5-3.2,0.5-5.2,0
				c6.4-2.9,13.8-1.2,22.5-2c0.8-2-2.2-2.7,0.3-3.5c-3.4-1.3-7,1.4-9.6-0.7c1.7,0.3,3-0.5,4.7-0.2c1.1-1.1,0.7-1.5,0.6-2.9
				c2-0.3,4.4,0.4,6.2-0.1c1.6-4.9-5.6-3.7-8.6-4.4c-1.3,0.2,0.3,1.7-1.1,1.6c-3.7-0.8-9.8,0.2-14.2,0.6c0.3,0.2,0.9,0.4,0.7,0.8
				c-3.4-1.7-10.4-1.4-13.2-0.5c0.2-0.1,1,0.6,0.7,0.8c-15.4-0.8-29.7,1.1-44,2.9c-1.2-0.9-1.6,0.3-2.9-0.6
				c-2.8,2.1-7.6-0.5-10.2,2.2c9.1,0,17.3-2.4,26.9-1.3c3.2-0.8,9.8-2.3,11.9,0c-2-0.2-5.9-1.5-5.5,0.9c1.8,1.1,4.1-2.2,4.4,0.7
				c-1.5-1-7.3,1.5-6.2-1.4c-1.4,2.9-3.5-0.8-5.5,0.9c0.9,1,2.4-0.6,2.2,0.9c-1.8-1.1-2.1,1.3-3.6,1.2c-0.2-1.5-3.1-0.5-2.1,0.2
				c0.3-0.5,0.8-0.5,1.2-0.5c-3.1,1.2-6.1-0.3-9.2,1c0.3,0.2,0.9,0.4,0.7,0.8c-1.3,0.2-1.2-1.8-1.8-0.7c0.6,0.1,1,1.9-0.1,1.5
				c0.7-1.2-4.8-1-4,1c-2.6,0.1-3.9-1.9-5.6-0.1c0.9,1,1.9-1.7,2,0.3c-3.5,0.2-8.8,1.1-13.5,2.9c2.8,1.1,5-2,7.1,0.2
				c8.7-2.7,15.9-2.2,25.4-2.9c-0.5-0.3-1.3-0.4-1.2-1c3-0.4,16.3,0,13.2-2.1c8.1,1.6,13.8-0.9,20.7-0.1c-0.2,0.6-0.5,1.2-0.7,1.8
				c-4.7-2-11-0.2-15.7,0.5c3.1,0.6,4.2,0.5,6.5,0.5c-0.2,0.6-0.5,1.2-0.7,1.8c-3-0.2-5.7-0.9-9.6,0.9c2.3-0.5-7.9-2.5-5.6-0.1
				c-4.9-1.3-9.9,2.8-16.7,1.7c-0.4,0.8,0.1,1.2-0.3,2c-2.1-0.9-3.1,0.9-4.9,0.7c1.1,1.9,6,0.9,8.2,0.1c-1.3-0.8-2.2,0.3-2.1-1.3
				c2-0.7,1.8,2,3.1,1.2c1.7-0.3,6.1-1.5,10-1.8c13.8-1.1,30.7-0.7,43.8-2.4c-0.6-0.3-1.7-0.5-1.6-1.1
				C761.7,426.6,762,428.9,762.9,427.8z M729.3,419.8c-0.2-1.5-0.9-1.3-1.4-3.1c4.5,1.8,12-1.3,16.7,0.9c4.1-1.8,11.8-0.1,18-1.2
				c-5.2,1.2-12.7,3-16.7,1.7c-0.7,0.6-1.9,0.1-2.2,1.7C743.3,417.3,732.7,416.3,729.3,419.8z"/>
			<path fill-rule="evenodd" clip-rule="evenodd" fill="#836031" d="M673.8,436.3c0.5,0.4,0.7,0.9,0.4,1.7c1.2,0.9,1.3-0.9,2.6,0
				c0.2-1.5-1.1,0.1-1.8-0.7c3.7,0.3,5.6-0.8,8.4-0.3c0.2-0.2-0.5-0.8-0.7-0.8c3.5-0.6,11.2-1.1,16-2.5c-4.1,0.2-7.9,1.1-12.2,0.9
				c4.3-0.5,9.2-2.9,13.6-0.4c4.9-0.8,12.8-0.6,18.5-2.5c-1.1,0.2-0.5,1.6,0.3,0.6c0.6,0.5-0.2,0.4-0.4,0.9c1.2,0.8,4.1-0.1,5.3,1
				c-1.4,0.9-4.6,1.8-5.8,0.3c-0.8,0.2-1.4,0.8-2,1.3c-16.9,0.6-33.2,2.8-48.9,6.1c-1.6-0.5-2.4-0.2-3-1.7
				C668.3,437.9,669.8,439.2,673.8,436.3z"/>
			<path fill-rule="evenodd" clip-rule="evenodd" fill="#836031" d="M739.8,431.2c-1.3-0.1-2,1.1-3.4,0.7c3.1-4,9.8,0.3,13.4-2.5
				c4.7,1.6,8.1,0,10.9,1.2c-0.7,1.6-2.5,0.5-3.8,0.6c0.2,1.4,2.2,0.1,3.3,0.8c-1.6,1.2-4.1,0.1-6,0.8c1.6,1.5,5.7-0.5,8,2.1
				c-5.6,0.7-13.1-2.8-17.9-0.3c-0.4-0.1-0.4-0.3-0.3-0.6C747.2,431.9,739.1,433.6,739.8,431.2z"/>
			<path fill-rule="evenodd" clip-rule="evenodd" fill="#836031" d="M728.4,402.4c0.5,0.3,0.1,0.5-0.2,0.4
				c4.2,1.9,12.8-1.5,17.9,0.3c0.8,0.2,1.3-0.4,1.6-1.4c4.5,0.6,8.6,0.6,12.2-0.9c0.6,0.5,0.9,1.1,1.4,1.6c-0.2,0.2-1.8,1.3-0.7,1.8
				c-14.2,3-30.1,0.1-43.6,2c1.1,1.8,5.1-1,6.3,0.9c0.4-0.8-0.2-1.2,0.3-2c2.1,1.4,4.3,2.8,5.7,1.2c5.1,2.7,7.7,1.2,12.1,2.2
				c-2.1,1.3-4.9,1.2-7.7,1.1c2.8,1.3-1.3,1.1-3.1,1.4c1.4,1.7-2.6,1.4-4.5,0.8c3.6-0.6,0.2,0.1,1.8-1.9c-1.6-0.7-2.2,0.7-3.7,0.1
				c0.2,0.5-0.2,1.3,0.4,1.7c0.8,0.2,0-1.8,1.9-0.8c-0.4,0.3-0.9,0.6-0.4,0.9c-0.7,1-2.1,0.3-3.2,0.3c0.2-0.3,0.6-0.3,0.8-0.7
				c-0.8,0.2-1.8-0.2-2.6,0c-0.1,0.7,0.6,0,1.3,0.5c-0.4,0.7-1.2,0.7-2.1,0.2c0.1-2,1.7-0.6,2.2-1.7c-3.3,0.3-7-0.3-10.1,0.7
				c1.9,0.8,3.2,1.8,7,0.7c1,1.9-2.3,0.8-3.4,0.7c-0.3,0.5,0.7,2.1,1.2,1c-1.6,0.8-6.8,0.1-10.8-0.1c-0.1,0.6,0.7,0.7,1.2,1
				c-3.6,0.2-7,1-11.2-0.3c0.2-0.8,0.7-0.6,1-1.2c-1.3-0.4-4.7,2.2-3.5,2.3c-1.9-0.8-4.5,0.4-6,0.8c-2.2,0.5-4.8-0.2-6.7,0
				c-5.1,0.4-9.4,2.3-15.3,2.2c0.1,1,3.4,2.2,3.8,1c0.6,2.1,2.6,1.5,4.9,1.9c-1.7,1.2-4,0.9-6.4,0.6c0.2-0.3,0.6-0.3,0.8-0.7
				c-2.3-0.8-3.4,1.2-6.1-0.3c0.4-0.7-0.1-0.9,0.1-1.5c-6.4-0.6-11.1,2.8-17.2,3.1c-1.8-5.9,7.8-7.5,11.3-6.4c0.1-1.9,3.6-0.7,5-2.2
				c-0.6-1.9,1.7-2.9-0.6-3.8c3.4-1,7.1-1.3,10.6-2c-0.9,0.6-1.9,0.8-2.7,1.5c4.2,3.6,10.1-0.9,15.9,1.6c1.5,0.1-0.8-1.1,0.3-2
				c6.1,0.1,13.4,0,18-1.2c0.5-0.1,2,0.9,1.9-0.8c1.4,1.8,2.5-0.5,3.4,1.9c0.6-1.3,1.1,0.2,3,0.2c-1-2.5,0.8-1.5,2.4-2.2
				c-1.9-0.8-3.1-1.9-4.8-0.9c-0.6-0.6,0.1-1.1,0.8-0.7c0.4-0.8-0.2-1.2,0.3-2c0.8,0.2,0.8,0.8,0.3,0.6c0,1.6,1.7,0.1,2.7,1.1
				c0-0.5-0.1-1-0.5-1.2c3.2-0.7,8.5,1.8,11.8-1.1C726.3,403.4,727.8,403.8,728.4,402.4z"/>
			<path fill-rule="evenodd" clip-rule="evenodd" fill="#836031" d="M692.3,408.9c-3.5-3.3-9.9,1.6-13.8-0.3c1.1-1.1,3-0.5,4.5-0.8
				c0-0.6-0.2-1.1-1-1.4c1.5-0.5,3-1.1,4.9-0.7c-0.7,1.5-2.7,0-3.6,1.2c0.7,1.3,5.6,0.5,5.1-1.1c2.5,1.2,5.2-2.1,8.7-1.2
				c-0.5,0.9-1.6,0.4-2,1.3c3.8-0.1,7.4-0.6,11.2-0.8c0.1-1.5-1.5-0.3-2.2-0.9c0.3-1.6,5.8-0.1,3.2-0.3c-0.2,1.5,1.1-0.1,1.8,0.7
				c-4.9,3.3-10.4,3.3-16.4,2.3C692.8,407.5,692.6,408.2,692.3,408.9z"/>
			<path fill-rule="evenodd" clip-rule="evenodd" fill="#836031" d="M710,401.9c10.4-1.1,24.4-0.5,33.7-1.7
				c4.7-0.6,11.9,0.4,17.2-0.5c0.3-1.1,0-2,0.8-3.3c-2.8-1.2-4.6-1.5-5.6-0.1c-3.3-1-5.9-0.5-8.7-0.3c0.2,0.6,1.6,0.8,0.8,1.9
				c-13.1,0.1-24.9,1.2-36.9,2c0.3-0.5,1.1-0.6-0.1-1.1c-7.2,3.1-13.7,2.9-21.5,0.9c-1.2,0.4-0.9,1.2-1.6,1.4c0.1-0.7-0.8-0.9-1-1.4
				c-1.2,0.4-0.9,1.2-1.6,1.4c-0.8-1.3-2.8-0.3-2.8-2.1c5.8-2.7,12.8-2.5,18.5-5.1c0.9,0.4,1.8,0.7,2.7,1.1c1.2-0.3-0.1-1.3,1-1.2
				c1.1,0.7,1.3,1.2,2.4,0.4c0.5-0.7,6.4-0.6,7.9-0.5c10.3-3,26.7,0.6,38.2-2.6c0.6-5.8-7.7-2.2-11.1-3.3c0.3,0.2,0.9,0.4,0.7,0.8
				c-5.2-0.3-7.5,0.7-13-1c1.1-2-0.7-2.7-0.4-4.3c-13.9-2.6-25.6,1.8-39.3,1.6c-1.1,1.2,1.3,0.9,0.2,2.1c-0.4-1.7-3.1-2.3-4.5-1.8
				c1.1-2.4-2.2-0.7-2-2.8c-1.1,0.3-2.4,0.3-3.7,0.1c-0.4,1.1,0.3,1.7-0.9,2.2c1,0.7,2.5-1.5,2.6,0c-3.4,0.8-3.9,5-1.3,7.2
				c4.3-1,11.1-0.6,14.9,0.2c-4.4,0.5-8.5,1.5-12.5,2.8c0.8,0.3,0.9,0.9,0.4,1.7c-2-0.6-5,1-6.1-0.3c1.9-0.1,3.8-0.4,5.5-0.9
				c-7.7,0.5-15.7,0.2-22.1,3.7c1.1,1.4,5,0.8,4.6-1.3c1.9,0.6,3.6-1,4.2,1.1c1.4-3.1,4.7-1.6,7.1-2.4c-0.1,1.9,1.9,1.3,0.9,2.9
				c2,1.4,4.4-2.2,4.8,0.9c-7,1.1-14.2,2.3-20.9,0.6c1.9,0.8-1.8,1.4-3.2,0.3c-0.7,4.3-9.7,0.9-10,5.9c3.3-3.6,9.8,0.3,13.4-2.5
				c-1-0.9-2.3,1.3-2.4-0.4c6.9,0.4,16.7,0.4,22.8-0.3c0.3-0.6,0.2-1.1,0.1-1.5c4.5,1.3,12.4,1.5,15.3-0.7
				C699.4,403.6,707.3,402.2,710,401.9z M728.9,388.1c-3.6,0.9-11.4-0.2-11.9,0c-0.6,1.1-0.5-0.9-1.8-0.7
				C719.1,386.7,725.1,386.4,728.9,388.1z"/>
			<path fill-rule="evenodd" clip-rule="evenodd" fill="#836031" d="M728.8,372.6c0.9-0.9-3.2,2.8-0.7,1.8c-2.9,1.2-11-0.2-17,0
				c-2.9,0.1-6.4,0-9.7-0.2c7.9,1.4-0.8,1.2-4.8,1.7c4,1.5,9.6-0.6,14.7,0.6c-3,1.5-6.9,1.9-11.1,1.9c-6.7-0.1-14.5,0-20.5-1.8
				c2.6-2.4,6.8-0.9,10-1.8c0.2-1.5-1.1,0.1-1.8-0.7c2.6-0.6,5.2,1.7,6.6-1c1.6,0.7,3.7,0.4,7,0.7c-1.5-1.7,4.8-2.5,6-0.8
				c0.5-1.3,3.4-1.7,5.7-1.4c-0.5-1.6-2.6,0.3-3.9-0.5C715.5,370.9,722.4,371,728.8,372.6z"/>
			<path fill-rule="evenodd" clip-rule="evenodd" fill="#836031" d="M689.1,464.5c-1.8,1.3-9.7,3.3-12.5,2.8
				c0.5-1.4,2.2-0.2,2.9-0.9c-2.2-1.4,2.7-1.5,4.4-1.9c0.4,0.2,0.1,0.7,0.1,1.1C685.5,464.8,687.6,465.3,689.1,464.5z"/>
			<path fill-rule="evenodd" clip-rule="evenodd" fill="#836031" d="M678.7,406.7c-0.6-2.1-2,1.1-2.7,1.5c-0.6-0.2-1.2-0.5-1.8-0.7
				c1.2-1.7,3.2-1.6,5-2.2c0.5,1.2,0,1,1.6,1.2c-0.8,0.4-3.2,1.5-3.4,0.7C677.6,406.4,678.2,406.5,678.7,406.7z"/>
		</g>
	</g>
	<path fill="#FFCE79" d="M173,207c0,0-72.8,52-64.3,140.5c8.1,84.3,98,83.4,202,73.6c9.1-0.9,16.3-8.2,16.9-17.3l0.9-12.8
		c0,0,12.2,0.8,12.3,0.8c6,0.4,28.6-0.9,34.1,0.3c12.9,2.9,7.7,3.5,29.4,4.2c20.7,0.6,45-18.2,47-38c1.8-18.1-6.6-35.7-16.1-50.5
		c-7.9-12.3-26.4-27.9-18.4-44.1c3.2-6.5,4.4-13.7,4.3-20.9c-0.1-7.5-0.7-14.4-7.4-18.8c-13.4-8.9-27.1,2.7-35.3,13
		c-9.4,11.8-18.1,24.2-31.3,32.1C331.7,278.2,173,207,173,207z"/>
	<path fill="#75B191" d="M138.1,243.4c0,0-30.7,32.1-30.1,87.1l136.5,1.8l-0.6,14.3l67.5,1.9c10.3,0.3,18.5,9,18,19.3l-0.9,23.1
		l14.2,1.1c0,0-11.4-81.4-3.5-129.3L138.1,243.4z"/>
	<path fill="none" stroke="#F0AB4B" stroke-width="3" stroke-linecap="round" stroke-linejoin="round" stroke-miterlimit="10" d="
		M215.3,346.4c0,0,61-0.2,97.8,3c10.2,0.9,17.8,9.8,17,20l-0.3,20.8"/>
	<path fill="none" stroke="#F0AB4B" stroke-width="3" stroke-linecap="round" stroke-linejoin="round" stroke-miterlimit="10" d="
		M243.2,346.6c2.7-13.7,0.2-28.5,0.2-28.5"/>
	<linearGradient id="SVGID_1_" gradientUnits="userSpaceOnUse" x1="470.6769" y1="315.826" x2="792.4282" y2="315.826">
		<stop  offset="0" style="stop-color:#C0C2C4"/>
		<stop  offset="1" style="stop-color:#BCBEC0"/>
	</linearGradient>
	<path fill="url(#SVGID_1_)" d="M703.6,194.5c0,0,54.6,33.3,77.4,93.5c22.8,60.2,9.8,89.6-26.1,110c-32.3,18.4-48.7,23.5-62.4,35
		c-3.1,2.6-6.9,4.1-10.9,4.1h-31.3c-9.2,0-16.9-7.3-17.2-16.5c-0.4-11.8,1.6-28.8,11.7-47.1H608c0,0,8.6,12.5,13.2,24.3
		c2.2,5.7-0.9,12-6.7,14l-43.4,14.5c-2.9,1-6.1,0.7-8.8-0.9c-9.8-5.7-35.1-20.1-55.4-28.8c-25.7-11-44.1-45.9-33-75.3
		c11-29.4,73.9-99.5,73.9-99.5L703.6,194.5z"/>
	<path fill="#F5C15D" d="M506,271.9l102,101.6h36.9l22.3-20.5l108-78.7c0,0-33-68.5-84.5-82.7l-142.8,30.2L506,271.9z"/>
	<g>
		<path fill="#797A7D" d="M535.5,330.5c6.6,0.2,13.2,1.5,19.5,3.4c3.2,0.9,6.3,2.1,9.4,3.4l4.5,2.1c1.5,0.7,3,1.5,4.4,2.3
			c0.7,0.4,1.5,0.8,2.2,1.2l2.1,1.3l2.1,1.3c0.7,0.4,1.4,0.9,2.1,1.4l4,3c1.4,0.9,2.6,2.1,3.8,3.2l1.9,1.6l0.9,0.8l0.9,0.9l3.5,3.6
			c1.2,1.2,2.2,2.5,3.2,3.8c1,1.3,2.1,2.6,3.1,3.9c-1.2-1.1-2.4-2.3-3.6-3.4c-1.2-1.1-2.3-2.3-3.6-3.4c-2.5-2.1-4.9-4.3-7.6-6.3
			c-5.1-4-10.6-7.6-16.3-10.7c-5.7-3.2-11.7-5.8-17.8-8.1C548.3,333.6,542,331.7,535.5,330.5z"/>
	</g>
	<path fill="#836031" d="M48.5,452.5c83.2,1.9,166.3,3.1,249.5,3.8c83.2,0.7,166.4,0.8,249.6,0.3c46.8-0.3,93.6-0.7,140.4-1.4
		c3.3,0,6-2.9,5.1-6.2c-0.9-3.6-5.3-5.5-8.7-5.4c-83.2,1.1-166.4,1.7-249.6,1.7c-83.2,0-166.4-0.6-249.6-1.8
		c-46.8-0.7-93.6-1.5-140.4-2.6c-3.4-0.1-6,2.9-5.1,6.2C40.7,450.8,45.1,452.4,48.5,452.5L48.5,452.5z"/>
	<path fill="#F2A959" d="M537.2,265.9c0,0,9.3,25.5,51.1,37.8c41,12.1,117.9,11.9,164.6-64.1l-22.9-28.2L537.2,265.9z"/>
	<path fill="#9CA1A5" d="M709.6,183.1l32.4,43.1c0,0-80.4,114.4-204.8,30L709.6,183.1z"/>
	<g>
		
			<linearGradient id="SVGID_2_" gradientUnits="userSpaceOnUse" x1="604.7697" y1="41.5328" x2="666.2667" y2="127.0285" gradientTransform="matrix(1 4.662756e-003 -4.662756e-003 1 20.5496 168.474)">
			<stop  offset="0" style="stop-color:#C0C2C4"/>
			<stop  offset="1" style="stop-color:#B1B3B6"/>
		</linearGradient>
		<path fill="url(#SVGID_2_)" d="M725,164.1c-0.3-4.1-1-8.2-1.9-12.3c-3.6-15.8-11.1-31.6-21.3-44.2c-1.2-1.5-2.6-3-4-4.5l0,0
			c-3.3-3.4-7.1-6.9-10.3-10.6c-2.5-2.2-5.2-4.4-8-6.4l1.1-21.7c0.4-7.6-1.1-15.3-4.4-22.2l-13.3-28.6c-1-6.3-5.6-11.4-11.7-13.1
			c-8.5-2.3-17.4,2.6-19.8,11.1c-4.7,16.6,2.8,30.6,8.8,38.6c3.6,4.8,5.9,10.4,6.6,16.3c-8.2-4-13.9-6.3-13.9-6.3
			C617.4,57,606.4,58,606.4,58c-13.5-0.3-27.1,2-40.2,7.4c-19.4,8.1-36.5,22.5-48.5,39.6c-14.1,20-30.9,39.2-50.9,53.4
			c-2.1,1.5-4,3.3-5.8,5.2c-11.1-0.8-19.5,10-20.4,21.2c-0.4,4.9,0.8,8.6,3.1,11.6c3,3.9,5,8.5,5.8,13.3
			c1.7,10.6,6.1,20.8,12.7,29.2c15.6,19.9,44.1,33,68.6,37c16.4,2.7,33.1,2.9,49.7,2c15.8-0.9,31.4-2.9,47-5.6
			C740.7,252.4,725,164.1,725,164.1z"/>
		<g>
			<path fill="#797A7D" d="M473.1,179.5c1.6,0.8,2.9,2.2,3.9,3.8c1,1.6,1.5,3.4,1.7,5.3c0.2,1.9,0.2,3.8-0.4,5.5
				c-0.3,0.9-0.7,1.7-1.2,2.5c-0.5,0.8-1.1,1.5-1.7,2.2c-0.1,0.1-0.1,0.1-0.2,0c0,0,0-0.1,0-0.1l0,0c0-1,0.1-1.8,0.3-2.7
				c0.1-0.9,0.3-1.7,0.4-2.5c0.1-0.4,0.1-0.8,0.2-1.2c0.1-0.4,0.2-0.8,0.3-1.2l0.3-1.2l0.1-1.2c0-1.6-0.2-3.3-0.8-4.8
				c-0.6-1.5-1.6-3-2.9-4.1l0,0c-0.1,0-0.1-0.1,0-0.2C473,179.5,473.1,179.5,473.1,179.5z"/>
		</g>
		<path fill="#808285" d="M451.2,194.9c0-0.8,0.5-1.7,1.8-2.6c2.2-1.5,8.2-2.8,8.6,2.1c0.3,3.6-1.2,4.9-3.7,4.7
			C455.7,199,451.2,197.3,451.2,194.9z"/>
		<circle fill="#9A9FA3" cx="525" cy="160" r="13.3"/>
		<circle fill="#6B6C6F" cx="525" cy="160" r="8.4"/>
		<path fill="#FFFFFF" d="M491.3,137.8l-55.8-68.1c-2.1-2.5-6.2-0.8-5.8,2.5c2.6,20.1,10.6,63.4,32,91.3
			C461.6,163.6,473.2,158.3,491.3,137.8z"/>
		<path fill="#797A7D" d="M495.9,217.7c0,0-17.3,24.7-30.6,25c0,0-10.4-10.3-12.8-22.3c0,0,12.3-4.2,19.7-1.9S494,218,495.9,217.7z"
			/>
		<path fill="#EF9BB5" d="M465.3,242.7c0,0-6-5.7-8.1-10.7c0,0,7.8-5.2,28.8-2.5C486,229.6,475.2,242.3,465.3,242.7z"/>
		
			<path fill="none" stroke="#797A7D" stroke-width="2.5" stroke-linecap="round" stroke-linejoin="round" stroke-miterlimit="10" d="
			M453.2,220.2c0,0,8.1-2.5,19-1.7s17.7,1.2,26.5-1.6"/>
		<g>
			<path fill="#797A7D" d="M506.9,201.2c-1.7,2.1-3.2,4.3-4.4,6.6c-1.1,2.3-1.9,4.7-2.3,7.2c-0.1,0.6-0.1,1.2-0.2,1.9
				c0,0.6-0.1,1.3,0,1.9l0.1,1.9c0.1,0.6,0.2,1.3,0.3,1.9l0.1,1l0.3,0.9l0.5,1.9c0.4,1.3,0.9,2.5,1.2,3.8c-0.8-1.1-1.7-2.2-2.4-3.4
				l-0.9-1.9c-0.2-0.3-0.3-0.6-0.4-0.9l-0.3-1c-0.2-0.7-0.4-1.3-0.6-2l-0.3-2.1c-0.1-0.7-0.1-1.4-0.1-2.1c0-0.7,0-1.4,0.2-2.1
				c0.4-2.8,1.5-5.5,3.1-7.8C502.4,204.5,504.5,202.5,506.9,201.2z"/>
		</g>
		<path fill="none" d="M688.1,93.5c3.2,3.7,7,7.2,10.3,10.6C695.4,100.4,691.9,96.8,688.1,93.5z"/>
		<polygon fill="#91929D" points="698.4,104.1 698.4,104.1 698.4,104.1 		"/>
	</g>
	<path fill="#75B191" d="M342.7,392.1"/>
	<linearGradient id="SVGID_3_" gradientUnits="userSpaceOnUse" x1="342.6765" y1="392.0998" x2="342.6765" y2="392.0998">
		<stop  offset="0" style="stop-color:#C7C8CA"/>
		<stop  offset="1" style="stop-color:#BCBEC0"/>
	</linearGradient>
	<path fill="url(#SVGID_3_)" d="M342.7,392.1"/>
	<path fill="#75B191" d="M342.7,392.1c0,0,19.9,0.3,32.2,0c0,0-30.8-39.2-18.8-113.5l-19.8-10.2l-12.2,31.3L342.7,392.1z"/>
	<path fill="#EDA939" d="M332.4,271c0,0,64.9,31.3,58.4-41.6L374,219.3L332.4,271z"/>
	<g>
		<path fill="#EDA939" d="M181.3,53.2c0,0,16.2-41.3,55.8-18.4c4.9,2.8,10.8,3.3,15.9,0.7c10.6-5.4,30.1-11.1,45.5,8.5
			c3.3,4.2,8.4,6.8,13.8,6.6c22.4-0.7,26.7,10.2,33.3,30.4c0,0,22.7,4.4,22.8,4.5c37.5,7.4,47.7,50.2,27.6,80.1
			c-3.3,5-1.7,11.8,3.6,14.4c9.1,4.5,20.2,13.4,17.4,28.5c-4.6,24.7-28.2,21.4-28.2,21.4L175.7,66.9L181.3,53.2z"/>
		<path fill="#EDA939" d="M145.9,77c0,0-48.2,4.6-53.3,45.3c-2.9,23.3,8.8,37.2,19.3,44.8c6.7,4.8,8.1,14.1,2.9,20.5
			c-5.4,6.6-11,15.3-12.9,24.7c-2.7,12.8-2.7,26.5,3.5,38.4c5.6,10.8,15,18.5,26.2,22.7c10.3,3.8,28.1,1.1,30.5,15.1
			c2.2,12.8,10.4,32.5,39.5,33.8c0,0,17.9,1.3,28.8-13.3c2.1-2.8,6.4-2.6,8.1,0.5c3.3,6.3,9.8,14.1,21.9,16.7
			c18.5,4,28.2-9.1,32.5-17.5c1.4-2.8,5-3.5,7.4-1.4c7,6.1,21.3,14.1,39.5,0c25.7-19.9,2.2-60.4,2.2-60.4L145.9,77z"/>
		<path fill="#F2B964" d="M292.6,63.4c-3.8-1.7,6.4-18.8,7.7-20.2c8.9-9.5,25.3-12.2,36.1-4.3c13.8,10,12.2,32.7,4.3,45.9
			C340.8,84.7,292.7,63.5,292.6,63.4z"/>
		<path fill="#FFCE79" d="M385.8,183.5c-0.7-8.8-3.3-17.2-6.4-25.5c-2.4-6.4-5.2-12.7-7.6-19c-6.5-16.6-12.6-37.9-23.5-52
			c-14.8-19.1-38.2-28.6-61-34c-25.4-6-50.4-1.9-75.1,7.3c-1.1,0.4-11.9,5.4-12,5.3c-8.9-11.3-26.4-13.1-40.1-8.9
			c-13.6,4.2-23.5,18.8-21.3,32.9c1,12.6,10.3,23.8,18.3,29.9c0.1,0-0.1,0,0,0c-4.5,9.9-5.5,14.4-7.1,25.2
			c-4.1,28.1,2.5,57.7,18.5,81.2c14.3,21,35.7,36.7,59.4,45.9c25.7,9.9,54.6,12.2,81.2,4.9c26.6-7.3,50.7-24.5,64.9-48.1
			C382.1,215,387,199.2,385.8,183.5z"/>
		<path fill="#F2B964" d="M160.3,109.9c6,4.6,15.7-4.8,23.9-15.8c7.9-10.6,1.4-26.2-11.7-27.7c-7.3-0.8-15.3,1.1-22.7,8.9
			c0,0-0.1,0.1-0.1,0.1c-5.4,5.7-5.9,14.4-1.8,21C151.2,101.8,155.8,106.5,160.3,109.9z"/>
		<circle fill="#F0AB4B" cx="267.8" cy="161.4" r="11.7"/>
		<circle fill="#F0AB4B" cx="343.8" cy="150.3" r="11.2"/>
		<circle fill="#48484A" cx="344" cy="149.6" r="7.1"/>
		<path fill="#F1B55B" d="M294.6,168.7l-12.9-19.8l0,0c-3.6-4.7-1.2-11.5,4.6-13l22.9-5.8c2.8-0.7,5.8,0.1,7.9,2.2
			c6.5,6.6,17.2,21.6,19,29.9"/>
		<circle fill="#E87D4C" cx="219.2" cy="192.9" r="27.9"/>
		<circle fill="#E87D4C" cx="364.5" cy="169.2" r="15.5"/>
		<circle fill="#48484A" cx="267.8" cy="161.4" r="7.1"/>
		<path fill="#EA8C38" d="M298.5,162.3c8.2-1.9,19.6-3.9,32.2-4.3c4.5-0.1,7.1,5.1,4.2,8.6l-13.9,17l-23.6-11.5
			C293,169.9,293.7,163.4,298.5,162.3z"/>
		<path fill="#F1B55B" d="M264.9,120.2c-6.5,1.7-14.4,5.9-15,16.3c-0.2,2.7,3.5,4.1,5.5,2l12.7-13.5
			C270.1,122.8,267.9,119.4,264.9,120.2z"/>
		<path fill="#F1B55B" d="M318.3,106.8c6.7,0.1,15.4,2.3,18.4,12.3c0.8,2.6-2.5,4.8-4.8,3.2l-15.5-10.1
			C313.9,110.5,315.2,106.7,318.3,106.8z"/>
		<path fill="none" stroke="#EA8C38" stroke-width="3" stroke-linecap="round" stroke-linejoin="round" stroke-miterlimit="10" d="
			M319.3,173c0,0,3.8,19.7,0,29c0,0-12.4-1.6-22.8,4.9"/>
		<path fill="none" stroke="#EA8C38" stroke-width="3" stroke-linecap="round" stroke-linejoin="round" stroke-miterlimit="10" d="
			M308,217.6c0,0,6.4-1,9.5-3.3"/>
	</g>
	<path fill="#74592E" d="M328,397.6l0.8-15.1l34-14.2c0,0,5.8,24.5,28.8,27.4C391.6,395.7,340.4,404.3,328,397.6z"/>
</g>
<g>
</g>
<g>
</g>
<g>
</g>
<g>
</g>
<g>
</g>
<g>
</g>
<g>
</g>
<g>
</g>
<g>
</g>
<g>
</g>
<g>
</g>
<g>
</g>
<g>
</g>
<g>
</g>
<g>
</g>
</svg>
