<?xml version="1.0" encoding="utf-8"?>
<!-- Generator: Adobe Illustrator 18.0.0, SVG Export Plug-In . SVG Version: 6.00 Build 0)  -->
<!DOCTYPE svg PUBLIC "-//W3C//DTD SVG 1.1//EN" "http://www.w3.org/Graphics/SVG/1.1/DTD/svg11.dtd">
<svg version="1.1" id="Layer_1" xmlns="http://www.w3.org/2000/svg" xmlns:xlink="http://www.w3.org/1999/xlink" x="0px" y="0px"
	 viewBox="0 0 948.2 538.3" enable-background="new 0 0 948.2 538.3" xml:space="preserve">
<g>
	<path fill="#ACB2B6" d="M456.5,210.6c0,0,63.3,53.4,53.4,163.6L299.6,386l-6-145.4L456.5,210.6z"/>
	<polygon fill="#FCCEB8" points="0,349.4 948.2,294.5 639.8,507.5 333.2,538.3 	"/>
	<path fill="#F8A79E" d="M150.4,379.3c23.4-1.7,46.9-2,70.4-0.7c2.7,0.1,7.5-3.8,2.7-4.1c-24.1-1.3-48.1-1-72.2,0.8
		C147.9,375.6,145.5,379.6,150.4,379.3L150.4,379.3z"/>
	<path fill="#F8A79E" d="M149.4,399.9c14.7-0.2,29.4,0,44.1,0.5c1.5,0.1,3.8-0.3,5-1.3c0.8-0.8,1.2-1.6-0.4-1.7
		c-15.2-0.6-30.4-0.7-45.6-0.5C150.4,396.9,144.7,399.9,149.4,399.9L149.4,399.9z"/>
	<path fill="#F8A79E" d="M169,424.3c49,0.6,97.9,1.1,146.9,1.7c1.3,0,4.1-0.5,4.7-1.9c0.6-1.4-0.5-2-1.9-2
		c-49-0.6-97.9-1.1-146.9-1.7c-1.3,0-4.1,0.5-4.7,1.9C166.5,423.7,167.5,424.3,169,424.3L169,424.3z"/>
	<path fill="#F8A79E" d="M351.6,407.4c15.4,0.6,30.8,0.2,46.2-1.1c1.2-0.1,4.2-0.4,4.7-1.8c0.5-1.3-0.4-1.7-1.8-1.6
		c-15.4,1.3-30.8,1.6-46.2,1.1C352.2,403.9,346.9,407.2,351.6,407.4L351.6,407.4z"/>
	<path fill="#F8A79E" d="M360.2,451.5c45.3,1.5,90.7,0,135.8-4.4c3.4-0.3,5.9-4.2,1-3.7c-44.5,4.4-89.3,5.8-134,4.2
		C360.4,447.6,355.5,451.3,360.2,451.5L360.2,451.5z"/>
	<path fill="#ACB2B6" d="M453.5,200.7c0,0,39.8,7.8,66.4-13.5l22.8,24.7l-58.8,36.5l-30.4-20.1V200.7z"/>
	<g>
		<circle fill="#976C5A" cx="550.5" cy="302.8" r="104.4"/>
		<path fill="#866050" d="M511.1,244.7c-0.3-1.6-0.1-12.8-0.1-18.2c0-1.8,0.6-3.6,1.5-5.2l5.2-8.6v0c0.8-1.5,3-0.9,3,0.7v4.9
			c0,0.2,0,0.3-0.1,0.5l-1.8,5.3c-0.5,1.6-0.7,3.2-0.4,4.9l2.3,15.8H511.1z"/>
		<path fill="#866050" d="M536.6,211.9c-0.2-1-0.1-8.1,0-11.5c0-1.2,0.4-2.3,1-3.3l3.3-5.4v0c0.5-0.9,1.9-0.6,1.9,0.5v3.1
			c0,0.1,0,0.2-0.1,0.3l-1.1,3.3c-0.3,1-0.4,2-0.3,3.1l1.5,10H536.6z"/>
		<path fill="#866050" d="M566.2,216.6c0.5-0.7,4.3-5.3,6.2-7.5c0.6-0.8,1.3-1.4,2-1.9l3.9-2.8l0,0c0.6-0.5,0.9,0.1,0.3,0.7l-1.6,2
			c-0.1,0.1-0.1,0.1-0.2,0.2l-2.1,1.9c-0.6,0.6-1.2,1.2-1.7,1.9l-4.9,6.9L566.2,216.6z"/>
		<path fill="#866050" d="M586.4,232.7c1.1-1.1,10.7-7.1,15.2-10c1.6-1,3.4-1.5,5.2-1.6l10.1-0.3l0,0c1.6-0.2,2.4,2,1,2.9l-4.1,2.7
			c-0.1,0.1-0.3,0.2-0.5,0.2l-5.4,1.4c-1.6,0.4-3.1,1.2-4.3,2.3l-11.9,10.6L586.4,232.7z"/>
		<path fill="#866050" d="M533.8,268.4c0.9-0.9,8.4-5.6,12-7.9c1.2-0.8,2.7-1.2,4.1-1.2l7.9-0.2l0,0c1.3-0.1,1.9,1.6,0.8,2.3
			l-3.2,2.1c-0.1,0.1-0.2,0.1-0.4,0.2l-4.3,1.1c-1.3,0.3-2.4,0.9-3.4,1.8l-9.4,8.3L533.8,268.4z"/>
		<g>
			<g>
				<path fill="#866050" d="M476.7,262.7c-0.3,0.9-0.6,1.8-1.1,2.7c-0.1,0.1-0.8,1.3-0.4,0.7c-0.4,0.5-0.8,0.9-1.2,1.3
					c-0.6,0.6-1.1,1.5-0.2,2.1c1,0.7,2.6,0.6,3.7,0.6c3.2-0.2,7.3-1.2,9.7-3.5c1.8-1.7,3.2-3.9,3.9-6.3c0.7-2.6-4.7-1.8-5.9-1.6
					c-1.9,0.3-3.8,0.9-5.5,1.7C478.8,260.8,477.1,261.6,476.7,262.7L476.7,262.7z"/>
			</g>
		</g>
		<g>
			<g>
				<path fill="#866050" d="M477.7,283.1c1.6,3.7,2.7,7.5,3.5,11.5c0.8,4,15.4,0.5,14.5-3.9c-0.8-3.9-2-7.8-3.5-11.5
					C490.4,275,476.3,279.6,477.7,283.1L477.7,283.1z"/>
			</g>
		</g>
		<g>
			<g>
				<path fill="#866050" d="M495.2,280.4c1.3,0.8,2.6,1.6,3.9,2.4c1.6,0.9,3.1,1.4,5,1.3c1.9-0.1,3.9-0.8,5.4-2c1.3-1,2.3-2.4,2.5-4
					c0.1-1.4-0.5-3.1-1.8-3.9c-1.3-0.8-2.6-1.6-3.9-2.4c-1.6-0.9-3.1-1.4-5-1.3c-1.9,0.1-3.9,0.8-5.4,2c-1.3,1-2.3,2.4-2.5,4
					C493.3,278,494,279.7,495.2,280.4L495.2,280.4z"/>
			</g>
		</g>
		<g>
			<g>
				<path fill="#866050" d="M476.8,337.8c4.7,8.8,10.5,16.7,17.4,23.9c2.4,2.5,15.6-2.8,13.7-4.8c-6.6-6.9-12.1-14.6-16.6-23
					C489.5,330.6,475.8,335.9,476.8,337.8L476.8,337.8z"/>
			</g>
		</g>
		<g>
			<g>
				<path fill="#866050" d="M547.5,301.2c2.1,1.8,4.2,3.5,6.3,5.3c1,0.8,2.6,0.8,3.8,0.8c1.9-0.1,3.9-0.5,5.7-1.2
					c1.1-0.4,6.4-2.9,4.1-4.8c-2.1-1.8-4.2-3.5-6.3-5.3c-1-0.8-2.6-0.8-3.8-0.8c-1.9,0.1-3.9,0.5-5.7,1.2
					C550.5,296.8,545.2,299.3,547.5,301.2L547.5,301.2z"/>
			</g>
		</g>
		<g>
			<g>
				<path fill="#866050" d="M567,293.6c3.1,0,7.5-1.3,9.7-3.6c2.4-2.5-2-2.9-3.6-2.9c-3.1,0-7.5,1.3-9.7,3.6
					C561.1,293.2,565.5,293.6,567,293.6L567,293.6z"/>
			</g>
		</g>
		<g>
			<g>
				<path fill="none" stroke="#BFA89F" stroke-miterlimit="10" d="M530.8,329.4"/>
			</g>
		</g>
		<g>
			<g>
				<path fill="none" stroke="#BFA89F" stroke-miterlimit="10" d="M548.6,325.8"/>
			</g>
		</g>
		<circle fill="#866050" cx="467.3" cy="281.8" r="5.3"/>
		<circle fill="#866050" cx="458.8" cy="296.1" r="5.3"/>
		<circle fill="#866050" cx="472.6" cy="296.1" r="3.3"/>
		<circle fill="#866050" cx="525.2" cy="337.1" r="5.3"/>
		<circle fill="#866050" cx="516.7" cy="351.4" r="5.3"/>
		<circle fill="#866050" cx="530.5" cy="351.4" r="3.3"/>
	</g>
	<g>
		<polygon fill="#464547" stroke="#464547" stroke-width="4" stroke-miterlimit="10" points="706.4,359 689.7,359.2 689.6,355.8 
			702.9,355.6 702.5,329 706,329 		"/>
		<path fill="#464547" stroke="#464547" stroke-width="4" stroke-miterlimit="10" d="M760.8,358.2l-18.4,0.3l-0.1-3.4l15-0.2l-0.1-4
			c-5.3-1.3-9.8-4.9-13.2-10.6c-2.7-4.6-3.6-8.8-3.7-9l3.3-0.7c0,0.2,3.6,15.4,15.5,17.3l1.4,0.2L760.8,358.2z"/>
		<path fill="#464547" d="M676.7,285.5l-25.4-0.6l0.2-7.4c0-1.7-1.1-3.2-2.8-3.4c-1.9-0.2-3.5,1.2-3.6,3.1l-0.2,8.2
			c0,2,1.5,3.6,3.5,3.6l2.8,0.1l0,0l25.4,0.6L676.7,285.5z"/>
		<path fill="#58595B" d="M730.4,344.7L730.4,344.7c-22.9,4.3-45.1-10.9-49.4-33.8l-3.5-18.6c-4.3-22.9,10.9-45.1,33.8-49.4l0,0
			c22.9-4.3,45.1,10.9,49.4,33.8l3.5,18.6C768.5,318.2,753.2,340.4,730.4,344.7z"/>
		<path fill="#464547" d="M753.1,286.3l-4.8,13.8c-1,3-3.2,5.5-6.1,6.8l-29.8,14.6l-3-6.1c-0.7-1.4-2.4-2.2-3.9-1.6
			c-1.6,0.7-2.3,2.5-1.5,4l3.3,6.7c0.9,1.8,3,2.5,4.7,1.6l2.2-1.1l0,0l29.8-14.6c3.8-1.8,6.7-5.1,8-9.1l4.8-13.8L753.1,286.3z"/>
		<g>
			<path fill="#464547" d="M753.8,306.3c0,0,0-0.1-0.1,0l0,0.1L753.8,306.3z"/>
			<path fill="#464547" d="M753.2,306.6c-0.1,0.1-0.1,0.2,0,0.3c0-0.1,0.1-0.1,0.1-0.3c0.1-0.1,0.1-0.1,0.2,0c0,0,0.1-0.1,0.1-0.2
				C753.4,306.4,753.3,306.5,753.2,306.6C753.2,306.6,753.2,306.6,753.2,306.6z"/>
			<path fill="#464547" d="M745.7,311.8L745.7,311.8C745.7,311.8,745.7,311.8,745.7,311.8z"/>
			<path fill="#464547" d="M740.8,314.8C740.8,314.8,740.9,314.8,740.8,314.8C740.8,314.8,740.8,314.8,740.8,314.8z"/>
			<path fill="#464547" d="M739.9,315.2C739.9,315.2,740,315.2,739.9,315.2C739.9,315.2,739.9,315.2,739.9,315.2z"/>
			<path fill="#464547" d="M745.7,311.8l-0.1,0.1C745.5,311.9,745.6,311.9,745.7,311.8z"/>
			<path fill="#464547" d="M752.3,307.5C752.3,307.5,752.3,307.5,752.3,307.5L752.3,307.5C752.3,307.5,752.3,307.5,752.3,307.5z"/>
			<path fill="#464547" d="M747.7,310.4L747.7,310.4C747.7,310.3,747.7,310.3,747.7,310.4L747.7,310.4z"/>
			<path fill="#464547" d="M749.2,309.2c0,0,0,0.1,0,0.1C749.2,309.3,749.2,309.3,749.2,309.2C749.3,309.2,749.3,309.2,749.2,309.2z
				"/>
			<path fill="#464547" d="M751.8,307.5L751.8,307.5C751.8,307.5,751.8,307.5,751.8,307.5z"/>
			<path fill="#464547" d="M746.5,311.1C746.5,311.1,746.5,311.1,746.5,311.1C746.5,311.1,746.5,311.1,746.5,311.1z"/>
			<path fill="#464547" d="M695.1,321.3C695.1,321.3,695.1,321.3,695.1,321.3C695.1,321.3,695.1,321.3,695.1,321.3z"/>
			<path fill="#464547" d="M692.9,320.5L692.9,320.5C693,320.5,693,320.5,692.9,320.5L692.9,320.5z"/>
			<path fill="#464547" d="M738.3,315.9C738.3,315.9,738.3,315.9,738.3,315.9C738.4,315.9,738.3,315.9,738.3,315.9z"/>
			<path fill="#464547" d="M723,320.9c0.2,0-0.3,0.1,0,0.2C722.9,321,723.2,320.9,723,320.9z"/>
			<path fill="#464547" d="M752.2,307.5L752.2,307.5C752.2,307.6,752.2,307.5,752.2,307.5z"/>
			<path fill="#464547" d="M723,321.1L723,321.1L723,321.1C723,321.1,723,321.1,723,321.1z"/>
			<path fill="#464547" d="M734.6,317.7C734.7,317.7,734.7,317.7,734.6,317.7C734.7,317.7,734.7,317.7,734.6,317.7z"/>
			<path fill="#464547" d="M737.5,316.5L737.5,316.5C737.4,316.6,737.4,316.6,737.5,316.5z"/>
			<path fill="#464547" d="M733.2,318.4c0,0-0.1,0-0.1,0C733.1,318.4,733.1,318.4,733.2,318.4C733.2,318.4,733.2,318.4,733.2,318.4z
				"/>
			<path fill="#464547" d="M731.7,319C731.7,319,731.7,319,731.7,319C731.7,319,731.8,319,731.7,319L731.7,319z"/>
			<path fill="#464547" d="M700.1,321.8C700,321.8,700,321.7,700.1,321.8C700,321.8,699.8,321.8,700.1,321.8z"/>
			<path fill="#464547" d="M752.3,307.5C752.3,307.5,752.3,307.5,752.3,307.5L752.3,307.5C752.3,307.5,752.3,307.5,752.3,307.5z"/>
			<path fill="#464547" d="M733.4,319l-0.3,0.1C733.2,319.1,733.3,319.1,733.4,319z"/>
			<path fill="#464547" d="M711.9,322.1L711.9,322.1C711.9,322.2,711.9,322.2,711.9,322.1z"/>
			<path fill="#464547" d="M732.4,319.4c-0.1,0-0.1,0-0.2,0c0,0,0,0,0,0L732.4,319.4z"/>
			<path fill="#464547" d="M700,321.7L700,321.7L700,321.7z"/>
			<path fill="#464547" d="M698.3,321.8c0.2,0,0.1-0.1,0.2-0.1c0.3,0,0.1,0.1,0.2,0.2c0.2,0,0.3-0.1,0.5-0.1c0,0,0,0,0,0
				c0.2-0.1,0.6,0,0.8,0c0,0,0,0,0,0c0-0.1,0-0.1,0-0.1c0.1,0,0.2-0.1,0.2,0c-0.1,0-0.1,0-0.1,0l0.1,0c0.1,0.1-0.2,0-0.2,0.1
				c0.2,0,0.5-0.1,0.7,0c0,0.1-0.4,0-0.2,0.1l-0.3-0.1c0.2,0.2-0.2,0,0,0.2c0.4,0.1,0.4,0,0.8,0c0.1,0,0-0.1,0.1-0.1
				c0.5-0.1,0.4,0.3,0.8,0.2c0.1-0.1,0.1-0.2,0.4-0.1l-0.1,0.1c0.3,0,0.2-0.1,0.6-0.1c-0.1,0-0.3,0-0.2,0c0.2,0.1,0.2-0.1,0.3,0
				l0,0.1c0.4,0,0.8-0.1,1.2-0.1c0,0-0.1,0.1,0,0.1c0.5,0,1.1,0,1.6,0.1l0.2-0.1c0,0,0.1,0,0,0.1c0.2,0,0-0.1,0.1-0.1
				c0.1,0,0.1,0.1,0.1,0.1c0.3-0.1,1-0.1,1.3,0l-0.1,0c0.3,0,0.3-0.2,0.6-0.1l-0.1,0c0.6,0,1.3,0,1.7,0.1c0.1-0.1,0.6,0.1,0.6-0.1
				c0.3,0.1,0.2,0.1,0.7,0.2c0.1,0,0.2-0.1,0.4-0.1l0,0.1l0.2-0.1l0.1,0.1l0.2,0c-0.1,0-0.1,0-0.1-0.1c0.2,0,0.6,0.1,0.6,0.1
				l0.6-0.1c0,0-0.1,0-0.2,0.1c0.3-0.1,0.1,0.1,0.3,0c0,0,0-0.1,0-0.1c0.1,0.1,0.4,0.1,0.7,0l0,0.1c0.4,0,0.9,0,1.3,0
				c-0.2,0-0.1-0.1,0-0.1l0.1,0.1c0.1-0.1-0.1,0,0-0.1c0.2,0,0.1,0.1,0,0.1l0.2,0c0,0,0,0,0,0.1c0.1-0.1,0.4,0.1,0.5,0l0,0
				c0.5,0,0.7-0.1,1.1-0.1c0-0.1,0.2-0.1,0.3-0.1c0.3,0,0.6,0.1,0.9,0c0.2-0.1,0.1-0.1,0.2-0.1c0,0.1,0.4,0,0.2,0.1
				c0.4,0,0.5,0,1-0.1c-0.1,0-0.1,0-0.1-0.1c0.1,0,0.2,0,0.2,0.1l0,0c0.6-0.2,1.3,0.1,1.8-0.1l0,0l0.5-0.1c0.2,0-0.1,0.1,0,0.1
				c0.5-0.2,0.8-0.1,1.2-0.2c0.4,0.2,1.1-0.2,1.6-0.1l0,0c0.1-0.1,0.1,0,0.2,0c0,0-0.1,0-0.1-0.1c0.5-0.1,1-0.2,1.5-0.2
				c0.5-0.1,1-0.1,1.5-0.2c0.4-0.1,0.1-0.3,0.6-0.3l-0.1,0.1c0.7-0.3,1.4-0.4,2.1-0.7c0,0,0,0.1-0.1,0.1c0.2,0,0.5-0.2,0.5-0.2
				c0.1,0,0,0,0.1,0c0.2,0,0.3-0.2,0.4-0.2c0,0,0,0-0.1,0c0.1-0.1,0.4-0.1,0.3-0.2c0.3,0,0.5-0.2,0.7-0.2c0.1-0.1,0.4-0.1,0.4-0.3
				c0,0.1,0.5-0.1,0.6-0.2c0,0.1,0.2,0,0.1,0.1c0.2-0.1,0.3-0.2,0.3-0.2c0.4,0,0.6-0.4,0.9-0.3c0.3-0.1,0.5-0.3,0.7-0.4
				c0.2-0.1,0.5-0.3,0.7-0.4c0,0.1-0.5,0.2-0.4,0.4c0.4-0.3,0.6-0.5,1.1-0.6c0.1,0,0,0.1-0.1,0.1c0.4-0.2,0.9-0.4,1.2-0.7
				c0,0,0,0-0.1,0.1c0.1,0,0.2-0.1,0.2-0.1l-0.1,0.1c-0.2,0,0.2-0.3,0.2-0.4c-0.1,0.2,0.4-0.2,0.3,0.1c0,0,0.1-0.1,0.1-0.1
				c0.1,0,0.1,0,0.1,0.1c0.3-0.2,0.1-0.2,0.4-0.3c0,0,0,0.1,0,0.1c0.1-0.1,0.2-0.2,0.4-0.3c0,0,0,0,0,0.1c0.4-0.2,0.5-0.5,1-0.6
				c-0.1,0.2,0.2,0,0.2,0l0.2-0.1l-0.1,0c0.2-0.1,0.3-0.3,0.5-0.3l-0.1,0.1l0.3-0.2l-0.2,0.1c0.2-0.2-0.1-0.1,0.2-0.2
				c0,0,0.2-0.1,0.3-0.1l0,0c0.1-0.1,0.1-0.2,0.3-0.2c0.1,0,0,0.1,0.1,0.1c0-0.1,0.4-0.3,0.5-0.4c0,0,0,0.1,0,0.1l0-0.1
				c0.1,0,0.1,0,0.1,0c0.3-0.1-0.1-0.1,0.2-0.2c0,0,0,0,0,0.1c0.3-0.2,0.5-0.4,0.8-0.5c0.1,0-0.2,0.2-0.1,0.2
				c0.4-0.3,0.7-0.6,1.1-0.8l-0.1,0c0-0.2,0.3-0.1,0.5-0.3c0,0,0,0.1,0,0.1c0.3-0.1,0.5-0.4,0.9-0.7l0,0.1c0.2-0.1,0.4-0.2,0.6-0.3
				c0-0.1,0.1-0.1,0-0.1c0.6-0.2,0.9-0.7,1.4-0.9c-0.1,0-0.1,0.1-0.1,0.1l0.3-0.3c-0.1,0-0.1,0-0.2,0c0-0.1,0.1-0.2,0.2-0.2
				c-0.1,0.2,0.1,0.1,0.2,0.1c0,0,0,0,0-0.1c0.3,0,0-0.1,0.3-0.3l0,0c0.1-0.1,0.2-0.2,0.3-0.3c0.1,0-0.1,0.1-0.1,0.2
				c0.1-0.1,0.2-0.3,0.4-0.4c-0.1,0.1-0.1,0.1-0.2,0.2c0.2,0,0.2-0.1,0.3-0.1l0,0l0.3-0.1l-0.1,0c0.1-0.3,0.4-0.3,0.5-0.6
				c-0.2,0.3,0,0.1,0,0.2c0.1,0,0.2-0.1,0.2,0c0.1-0.1,0.2-0.1,0.3-0.3c0,0,0.1-0.1,0.1,0c0.1-0.1-0.1,0-0.1,0
				c0.2-0.2,0.6-0.3,0.9-0.7c0.3-0.3,0.3-0.4,0.5-0.6c0.1,0,0,0.1,0,0.1c0.2-0.1,0.3-0.2,0.4-0.3c0,0,0,0,0.1,0
				c0.1-0.1,0-0.1,0.2-0.2c0,0,0,0.1,0,0.2c0.1-0.1,0.2-0.3,0.3-0.4c0.1,0,0,0.1-0.1,0.2c0.1-0.1,0.4-0.3,0.4-0.4l-0.1,0.1
				c0.1,0,0.1,0,0,0.1c-0.1,0.1-0.2,0.1-0.2,0.1l0.1-0.1c-0.2-0.1-0.4,0.3-0.6,0.5l0-0.2l-0.1,0.2c-0.1,0-0.1,0,0-0.1
				c-0.2,0.1-0.1,0.1-0.3,0.2c0,0,0,0,0,0l-0.1,0.1c0,0-0.1,0,0-0.1c-0.3,0.1-0.3,0.4-0.5,0.4l0,0c-0.3,0.3,0,0.1-0.2,0.4l-0.3,0
				l0,0.1c0,0-0.1,0.1-0.1,0c-0.1,0.1,0,0,0,0.1c-0.2,0.1-0.4,0.4-0.6,0.3c0,0.1,0.2-0.1,0,0.1c-0.1-0.1-0.2,0.2-0.4,0.2
				c0-0.1,0.2-0.2,0-0.1c0,0.2-0.3,0.2-0.4,0.3c0.1,0.1-0.3,0.2-0.5,0.4c0,0-0.4,0.2-0.7,0.4l0,0c0,0.1-0.2,0.2-0.3,0.4
				c0-0.1,0-0.1,0-0.2l-0.1,0.1c0,0.1,0,0.1-0.1,0.2l0-0.1c-0.2,0.1-0.3,0.3-0.6,0.5c0,0.1,0.3,0,0.1,0.3c0,0-0.1-0.1,0-0.1
				c0,0-0.1,0.1-0.1,0.1l0.1-0.1c-0.1,0.1,0,0.1-0.1,0.1c0,0-0.1,0-0.1,0c0,0,0.1,0,0.1-0.1c-0.1,0.1-0.3,0.1-0.3,0.1
				c0,0,0,0.1,0,0.1c-0.2,0.1-0.1,0-0.2,0c0,0.1-0.2,0.1-0.1,0.2c-0.1,0-0.1,0-0.1,0c-0.1,0.1-0.5,0.3-0.3,0.3l0,0l0,0l0,0l0,0
				c-0.3,0.3-0.7,0.4-1,0.7l0,0c-0.2,0.2-0.4,0.3-0.5,0.4c-0.1,0-0.2,0-0.2,0c-0.1,0.1-0.1,0.2-0.4,0.3c0.1-0.1-0.1,0,0.1-0.1
				c-0.2,0.1-0.3,0.1-0.5,0.3c0-0.1-0.2,0-0.3,0.1l0.2,0c-0.1,0.1-0.2,0.1-0.3,0.2l0-0.1c-0.5,0.1-0.6,0.6-1,0.6
				c-0.1,0.1,0.2-0.1,0.2,0c-0.2,0.1-0.5,0.1-0.5,0.1c-0.3,0.1-0.2,0.3-0.5,0.4c0.1,0,0.1,0.1-0.1,0.2c-0.2,0.1-0.3,0-0.2-0.1
				c0,0,0.1,0,0.1,0c0.1,0,0.1-0.1,0-0.1l0,0c-0.1,0-0.4,0.2-0.3,0.1c-0.1,0.1,0,0.1,0.1,0c-0.3,0.1-0.4,0.2-0.7,0.3
				c0.1,0,0.1,0,0.1,0c-0.4,0.2-0.1,0.1-0.4,0.3c-0.2,0,0-0.1-0.2,0c-0.2,0.1-0.1-0.1,0-0.1c-0.2,0.2-0.5,0.2-0.6,0.3l0.1-0.1
				c-0.1,0.1-0.1,0.1-0.2,0.1l0.1,0c-0.1,0-0.1,0.1-0.2,0c-0.1,0.1,0.1,0.1,0,0.2c-0.1,0-0.3,0.2-0.4,0.1c0.3-0.1-0.1-0.1,0.2-0.2
				c0,0-0.1,0.1-0.2,0.1c0,0,0,0,0,0c-0.3,0.1-0.1,0.2-0.4,0.3c0-0.1-0.1-0.1-0.2,0c0.1-0.1,0.1,0,0,0.1c-0.2,0.1-0.2,0.1-0.3,0.2
				l0.1,0c0,0.1-0.1,0.1-0.2,0.2c0,0,0.1-0.1,0.1-0.1c-0.1,0.2-0.4,0.1-0.6,0.2c-0.1,0-0.1-0.1-0.1-0.1c-0.2,0.2-0.3,0.1-0.5,0.2
				c0.1,0,0.1,0,0,0.1l0.4-0.2l-0.2,0.2c0.1-0.1,0.2-0.2,0.3-0.2c-0.1,0.1-0.1,0.1,0,0.1c-0.2,0-0.3,0.2-0.5,0.2l-0.1-0.2
				c-0.3,0.1-0.5,0.3-0.9,0.5l0.1,0c0,0.1-0.2,0.1-0.4,0.2c0-0.1-0.1,0-0.2-0.1c0,0-0.3,0.1-0.3,0.2l-0.2,0
				c-0.3,0.1-0.3,0.3-0.6,0.4c0.1-0.1-0.1-0.1,0.1-0.2c-0.1,0-0.2,0.1-0.2,0.1c-0.1,0-0.3,0.2-0.4,0.2c0,0,0,0.1-0.1,0.1
				c0,0,0,0,0,0c0,0-0.2,0.1,0,0.1c-0.4,0-0.9,0.4-1.2,0.3c-0.2,0.1-0.5,0.2-0.7,0.3c0,0,0,0,0,0c-0.3,0-0.1,0.2-0.5,0.3
				c-0.2,0,0.2-0.1,0-0.1c-0.1-0.2-0.4,0.2-0.6,0.1l0.1,0c-0.2,0-0.4,0.2-0.7,0.2c0,0,0,0,0,0c-0.2,0.1-0.5,0.3-0.8,0.4
				c0.1-0.1,0.1-0.1,0-0.1c-0.1,0,0.1,0.1-0.2,0.2c-0.1,0-0.3,0-0.3-0.1l0.2-0.1c-0.1-0.1-0.3,0.1-0.4,0.1l0,0
				c-0.3,0.1-0.3,0.2-0.7,0.3l0,0c-0.2,0.2-0.2,0-0.4,0.1l-0.1-0.1c-0.1,0.1-0.5,0.2-0.7,0.3c0.1-0.1,0.4-0.2,0.6-0.3
				c-0.1,0-0.5,0.1-0.5,0.2c0.1,0,0.1-0.1,0.2-0.1c-0.1,0.1-0.4,0.2-0.6,0.3c0-0.2-0.7,0.1-0.9-0.1c-0.5,0.2-1,0.1-1.5,0.2
				c0.2,0.1-0.2,0-0.1,0.2c-0.1,0-0.2,0-0.2,0l-0.4-0.1c-0.1,0,0.1-0.1,0.1-0.1c-0.3,0-0.1-0.1-0.3-0.1c0,0.1-0.1,0.1-0.3,0.1
				l0.2,0.1c-0.4,0.1-0.4-0.1-0.8,0l0.1-0.1c-0.2,0.1-0.8,0.1-1,0.2c0,0-0.1-0.1,0-0.1c-0.5,0-1.1,0.2-1.5,0.2l0,0
				c-0.1,0-0.2,0.1-0.3,0.1c0,0,0,0,0,0c0,0-0.2,0.1-0.4,0.1l0.1-0.1c-0.5,0-0.7,0.2-1.1,0.2c0-0.1-0.4-0.1-0.6-0.2l0,0
				c-0.6,0-1,0.1-1.5,0.2c-0.3-0.1-1.1,0-1.6-0.1c0.1,0,0,0.1-0.1,0.1c-0.1,0-0.3,0.1-0.3,0l0,0c-0.1-0.1-0.3-0.1-0.5-0.1l0,0.2
				c-0.5-0.2-1.4,0.1-1.6-0.1c-0.1,0-0.3,0-0.4,0.1l0-0.1c-0.3,0-0.5,0-0.9,0l0.1-0.1c-0.2,0-0.3,0.2-0.5,0.2l-0.1-0.1
				c-0.4,0-0.8-0.1-1.3,0c0,0,0-0.1,0.1-0.1c-0.2,0-0.8-0.1-0.7,0.1c0-0.1-0.4,0-0.7,0l0-0.1c-0.2,0.1-0.2,0.1-0.5,0.1
				c-0.1,0-0.1-0.1,0,0c-0.2,0-0.2,0.1-0.4,0l0.1,0c-0.2,0-0.2,0-0.3,0.1c-0.1,0-0.4,0-0.4-0.1c0,0-0.2,0.1-0.3,0.1c0,0,0,0,0.1-0.1
				c-0.4-0.1-0.5,0.1-0.8,0c0,0,0,0,0,0c0.3,0,0.5,0,0.5,0c0-0.1-0.2-0.1,0-0.2c-0.2,0.1-0.5,0.2-0.7,0.1c0,0,0,0,0,0l0,0
				c-0.1,0-0.1,0-0.1,0c-0.1,0-0.1,0-0.2,0c0-0.1-0.3,0-0.4-0.1c0,0.1-0.1,0.1,0,0.1c0,0,0,0,0.1,0c0,0,0,0,0,0l0,0
				c0.1,0,0.2,0,0.3,0c-0.1,0-0.2,0.1-0.3,0c-0.1,0-0.1,0.1-0.2,0.1c-0.2-0.1-0.5-0.2-0.5-0.3c-0.4,0-0.8,0-1.1,0.1
				c-0.1,0-0.1,0-0.1-0.1c0.1,0,0.1,0,0.2,0c-0.2,0-0.6,0-0.7,0.1c-0.3-0.1,0.1-0.1-0.2-0.1l0,0c-0.7-0.2-1.1,0.2-1.9-0.1
				c0.1,0,0.1,0,0.1,0c-0.9-0.2-1.8-0.1-2.6-0.3c-0.2-0.1-0.3,0-0.4,0l0-0.1l-0.3,0.1c-0.4,0-0.6-0.3-1.1-0.2l0,0.1
				c-0.2,0-0.5-0.1-0.5-0.1c0,0-0.1,0.1-0.1,0l0,0l-0.4,0c-0.3-0.1,0.1-0.2-0.4-0.3c-0.2,0-0.5,0-0.4,0.1c0.1,0,0.2,0.1,0.2,0.1
				l-0.2,0c-0.1,0.1-0.2,0.2,0.2,0.4l0.3,0l0.1,0.1l-0.2,0c0.1,0.1,0.2,0,0.3,0c0,0,0,0.1,0.1,0.1l0.3-0.1c0,0.1-0.1,0.1,0,0.1
				c0.1,0-0.1-0.1,0.1-0.1c0.1,0.1,0.1,0.1,0.2,0.1c0,0,0,0.1-0.1,0.1c0.1,0,0.4,0,0.4,0c0.1,0.1,0.4,0,0.4,0.2c0,0,0.2-0.1,0.4-0.1
				c-0.2,0.1,0.5,0.1,0.4,0.2c0.2-0.1,0.6,0,0.9,0c0,0-0.1,0-0.1,0c0.2,0,0.2,0.1,0.3,0.1c0-0.1,0.3-0.1,0.4-0.2
				c0.2,0.1-0.1,0.1-0.1,0.2c0-0.1,0.4,0,0.3-0.1c0.1,0.1,0.1,0,0.2,0.1c0-0.1,0.1,0,0.3-0.1c0.2,0.1,0,0.1,0.3,0.1
				C698.5,321.7,698.3,321.8,698.3,321.8z M704.1,321.9L704.1,321.9c-0.1,0-0.1,0-0.1,0C704,321.9,704.1,321.9,704.1,321.9z
				 M704.6,321.9c-0.1,0-0.1,0-0.2,0c0,0,0-0.1,0.1-0.1C704.4,321.9,704.5,321.9,704.6,321.9z M703.6,321.3c0.1,0,0.1,0,0.1,0
				C703.7,321.3,703.6,321.3,703.6,321.3C703.6,321.3,703.6,321.4,703.6,321.3C703.6,321.3,703.6,321.3,703.6,321.3z"/>
			<path fill="#464547" d="M703.5,321.4C703.4,321.4,703.4,321.4,703.5,321.4C703.4,321.4,703.5,321.4,703.5,321.4
				C703.5,321.4,703.5,321.4,703.5,321.4C703.5,321.4,703.5,321.4,703.5,321.4z"/>
			<path fill="#464547" d="M745.7,311.8L745.7,311.8C745.7,311.8,745.7,311.8,745.7,311.8C745.7,311.8,745.7,311.8,745.7,311.8z"/>
			<polygon fill="#464547" points="711.4,322.2 711.4,322.2 711.3,322.2 			"/>
			<path fill="#464547" d="M748.1,310.5C748.1,310.5,748.1,310.5,748.1,310.5C748.1,310.5,748.1,310.5,748.1,310.5z"/>
			<path fill="#464547" d="M749.1,309.8l0.2-0.1C749.1,309.8,749.1,309.8,749.1,309.8z"/>
			<path fill="#464547" d="M749.8,309.3C749.8,309.3,749.8,309.3,749.8,309.3L749.8,309.3L749.8,309.3z"/>
			<path fill="#464547" d="M737.7,317C737.7,317,737.7,317,737.7,317C737.6,317.1,737.7,317,737.7,317z"/>
			<path fill="#464547" d="M741.4,314.8c0,0-0.1,0.1-0.1,0.1C741.4,314.9,741.4,314.9,741.4,314.8z"/>
			<polygon fill="#464547" points="733.4,319 733.4,319 733.4,319 			"/>
			<path fill="#464547" d="M741.1,315c0.1,0,0.1-0.1,0.2-0.1C741.2,314.9,741.2,315,741.1,315z"/>
			<polygon fill="#464547" points="752.9,307 753,307 753,307 			"/>
			<path fill="#464547" d="M753,307L753,307C753,307,753,307,753,307z"/>
			<path fill="#464547" d="M753.1,306.9L753.1,306.9C753,306.9,753.1,306.9,753.1,306.9z"/>
			<path fill="#464547" d="M752,307.7L752,307.7C752,307.7,752,307.7,752,307.7z"/>
			<path fill="#464547" d="M751.7,307.9c0.1,0,0.2-0.1,0.3-0.2l0,0C752,307.8,751.7,307.9,751.7,307.9z"/>
			<path fill="#464547" d="M750.3,308.6l0.3-0.2c-0.1,0-0.1,0,0-0.1C750.1,308.5,750.6,308.3,750.3,308.6z"/>
			<path fill="#464547" d="M749.5,309.1C749.6,309,749.5,309.1,749.5,309.1C749.4,309.1,749.4,309.1,749.5,309.1z"/>
			<path fill="#464547" d="M743.9,312.9L743.9,312.9C743.8,312.9,743.9,312.9,743.9,312.9z"/>
			<polygon fill="#464547" points="743,313.9 743.2,313.9 743.2,313.8 			"/>
			<polygon fill="#464547" points="742.1,313.9 742.1,313.8 742,314 			"/>
			<path fill="#464547" d="M731.9,318.8L731.9,318.8C732.1,318.8,732.1,318.7,731.9,318.8z"/>
			<path fill="#464547" d="M727.3,320.3c-0.1,0-0.2,0-0.3,0C727.1,320.3,727.2,320.3,727.3,320.3z"/>
			<polygon fill="#464547" points="712.7,321.5 712.8,321.4 712.6,321.5 			"/>
		</g>
		<g>
			<path fill="#464547" d="M755.2,313.9C755.2,313.8,755.1,313.8,755.2,313.9l0,0.1L755.2,313.9z"/>
			<path fill="#464547" d="M754.8,314.4c0,0.1,0,0.3,0.1,0.2C754.9,314.5,755,314.5,754.8,314.4c0.1-0.1,0.2-0.2,0.2-0.2
				c0,0,0.1-0.1,0-0.2C754.9,314.1,754.9,314.2,754.8,314.4C754.9,314.4,754.9,314.4,754.8,314.4z"/>
			<path fill="#464547" d="M748.3,319.9L748.3,319.9C748.3,319.9,748.3,319.9,748.3,319.9z"/>
			<path fill="#464547" d="M743.3,322.1C743.4,322,743.4,322,743.3,322.1C743.3,322,743.3,322.1,743.3,322.1z"/>
			<path fill="#464547" d="M742.4,322.3C742.4,322.3,742.5,322.3,742.4,322.3C742.5,322.3,742.4,322.3,742.4,322.3z"/>
			<path fill="#464547" d="M748.3,319.9l-0.1,0C748.2,320,748.2,319.9,748.3,319.9z"/>
			<path fill="#464547" d="M754.5,315.6C754.5,315.6,754.5,315.5,754.5,315.6C754.5,315.5,754.5,315.5,754.5,315.6L754.5,315.6z"/>
			<path fill="#464547" d="M750.3,318.7L750.3,318.7C750.4,318.6,750.4,318.6,750.3,318.7L750.3,318.7z"/>
			<path fill="#464547" d="M751.8,317.6c0,0,0,0.1,0,0.1C751.8,317.7,751.9,317.7,751.8,317.6C751.9,317.7,751.9,317.7,751.8,317.6z
				"/>
			<path fill="#464547" d="M754,315.7L754,315.7C754,315.7,754,315.7,754,315.7z"/>
			<path fill="#464547" d="M749.2,319.3C749.2,319.3,749.2,319.3,749.2,319.3C749.2,319.3,749.2,319.3,749.2,319.3z"/>
			<path fill="#464547" d="M699.4,329C699.4,329,699.4,329,699.4,329C699.4,329,699.4,329,699.4,329z"/>
			<path fill="#464547" d="M697.3,328.4L697.3,328.4C697.3,328.4,697.3,328.4,697.3,328.4L697.3,328.4z"/>
			<path fill="#464547" d="M740.8,322.8C740.8,322.8,740.8,322.8,740.8,322.8C740.9,322.8,740.8,322.8,740.8,322.8z"/>
			<path fill="#464547" d="M725.9,327.1c0.2,0-0.3,0.1,0,0.2C725.9,327.3,726.1,327.1,725.9,327.1z"/>
			<path fill="#464547" d="M754.4,315.6L754.4,315.6C754.4,315.7,754.4,315.6,754.4,315.6z"/>
			<path fill="#464547" d="M725.9,327.3L725.9,327.3L725.9,327.3C725.9,327.3,725.9,327.3,725.9,327.3z"/>
			<path fill="#464547" d="M737.2,324.2C737.2,324.2,737.2,324.2,737.2,324.2C737.2,324.2,737.2,324.2,737.2,324.2z"/>
			<path fill="#464547" d="M739.9,323.3L739.9,323.3C739.9,323.3,739.9,323.3,739.9,323.3z"/>
			<path fill="#464547" d="M735.8,324.7c0,0-0.1,0-0.1,0C735.7,324.8,735.7,324.8,735.8,324.7C735.7,324.8,735.7,324.8,735.8,324.7z
				"/>
			<path fill="#464547" d="M734.3,325.2C734.3,325.2,734.3,325.2,734.3,325.2C734.3,325.2,734.3,325.2,734.3,325.2L734.3,325.2z"/>
			<path fill="#464547" d="M704.2,329.4C704.1,329.3,704.1,329.3,704.2,329.4C704.1,329.3,703.9,329.4,704.2,329.4z"/>
			<path fill="#464547" d="M754.4,315.6C754.5,315.6,754.5,315.6,754.4,315.6C754.4,315.6,754.5,315.6,754.4,315.6
				C754.5,315.6,754.5,315.6,754.4,315.6z"/>
			<path fill="#464547" d="M735.9,325.4l-0.2,0.1C735.7,325.4,735.8,325.4,735.9,325.4z"/>
			<path fill="#464547" d="M715.5,329.2L715.5,329.2C715.5,329.2,715.5,329.2,715.5,329.2z"/>
			<path fill="#464547" d="M734.9,325.7c-0.1,0-0.1,0-0.2,0c0,0,0,0,0,0L734.9,325.7z"/>
			<path fill="#464547" d="M704.1,329.3L704.1,329.3L704.1,329.3z"/>
			<path fill="#464547" d="M702.4,329.4c0.2,0,0.1-0.1,0.2-0.2c0.3,0,0.1,0.1,0.2,0.1c0.2,0,0.3-0.1,0.5-0.1c0,0,0,0,0,0
				c0.2-0.1,0.6,0,0.8-0.1c0,0,0,0,0,0c0-0.1,0-0.1,0-0.1c0.1,0,0.2-0.1,0.2,0c-0.1,0-0.1,0-0.1,0l0.1,0c0.1,0.1-0.2,0-0.2,0.1
				c0.2,0,0.5-0.1,0.6-0.1c0,0.1-0.4,0-0.2,0.1l-0.3,0c0.2,0.2-0.2,0,0,0.2c0.3,0,0.4,0,0.7,0c0.1-0.1,0-0.1,0.1-0.1
				c0.5-0.1,0.4,0.3,0.7,0.1c0.1-0.1,0.1-0.2,0.4-0.1l-0.1,0.1c0.3,0,0.2-0.2,0.5-0.1c-0.1,0-0.3,0-0.2,0c0.2,0.1,0.2-0.1,0.3-0.1
				l0,0.1c0.4,0,0.7-0.1,1.1-0.1c0,0-0.1,0.1,0,0.1c0.5,0,1.1,0,1.5,0.1l0.2-0.1c0,0,0.1,0,0,0.1c0.2,0,0-0.1,0.1-0.1
				c0.1,0,0.1,0,0.1,0.1c0.3-0.1,0.9-0.2,1.3-0.1l-0.1,0c0.3,0,0.3-0.2,0.5-0.1l0,0c0.6,0,1.2-0.1,1.7,0c0.1-0.1,0.6,0,0.6-0.1
				c0.3,0.1,0.2,0.1,0.7,0.1c0.1,0,0.2-0.1,0.3-0.1l0,0.1l0.2-0.1l0.1,0.1l0.1,0c-0.1,0-0.1,0-0.1-0.1c0.2-0.1,0.6,0,0.6,0.1
				l0.5-0.1c0,0-0.1,0.1-0.2,0.1c0.3-0.1,0.1,0.1,0.3,0c0,0,0-0.1,0-0.1c0.1,0,0.4,0,0.6,0l0,0.1c0.4,0,0.8-0.1,1.3-0.2
				c-0.2,0-0.1-0.1,0-0.1l0.1,0.1c0.1-0.1-0.1,0,0-0.1c0.2,0,0.1,0.1,0,0.1l0.2-0.1c0,0,0,0,0,0.1c0.1-0.1,0.4,0.1,0.5-0.1l0,0
				c0.4,0,0.6-0.1,1-0.2c0-0.1,0.1-0.1,0.2-0.2c0.3,0,0.6,0,0.9,0c0.2-0.1,0.1-0.1,0.1-0.1c0,0.1,0.3,0,0.2,0.1
				c0.4-0.1,0.5-0.1,1-0.2c-0.1,0-0.1,0-0.1-0.1c0.1,0,0.2,0,0.2,0l0,0c0.5-0.2,1.3,0,1.7-0.2l0,0l0.4-0.2c0.2,0-0.1,0.1,0,0.1
				c0.5-0.2,0.8-0.1,1.1-0.3c0.3,0.2,1.1-0.2,1.5-0.2l0,0c0.1-0.1,0.1,0,0.2,0c0,0-0.1,0-0.1-0.1c0.9-0.2,1.9-0.4,2.8-0.5
				c0.3-0.1,0.1-0.3,0.6-0.3l-0.1,0.1c0.6-0.3,1.4-0.4,2-0.6c0,0,0,0.1-0.1,0.1c0.2,0,0.5-0.1,0.5-0.2c0.1,0,0,0,0.1,0.1
				c0.2,0,0.3-0.2,0.4-0.1c0,0,0,0-0.1,0c0.1-0.1,0.4-0.1,0.3-0.2c0.3,0,0.5-0.2,0.7-0.2c0.1-0.1,0.4-0.1,0.4-0.2
				c0,0.1,0.5,0,0.6-0.1c0,0.1,0.1,0,0.1,0.1c0.2-0.1,0.3-0.1,0.3-0.2c0.4,0,0.6-0.3,0.9-0.2c0.5-0.2,1-0.4,1.4-0.6
				c0,0.1-0.5,0.2-0.4,0.3c0.4-0.2,0.6-0.4,1.1-0.5c0.1,0,0,0.1-0.1,0.1c0.4-0.2,0.9-0.3,1.2-0.5c0,0,0,0-0.1,0.1
				c0.1,0,0.2,0,0.2-0.1l-0.1,0c-0.2,0,0.2-0.3,0.2-0.3c-0.1,0.2,0.4-0.1,0.3,0.2c0,0,0.1-0.1,0.1-0.1c0.1,0,0.1,0,0.1,0.1
				c0.3-0.1,0.1-0.2,0.4-0.2c0,0,0,0.1-0.1,0.1c0.1-0.1,0.2-0.2,0.4-0.3c0,0,0,0,0,0.1c0.4-0.1,0.6-0.4,1-0.5
				c-0.1,0.2,0.1,0,0.2,0.1l0.2-0.1l-0.1,0c0.2-0.1,0.3-0.2,0.5-0.2l-0.1,0.1l0.3-0.2l-0.2,0c0.2-0.1-0.1-0.1,0.2-0.2
				c0,0,0.2-0.1,0.3-0.1l0,0c0.1-0.1,0.2-0.1,0.3-0.2c0,0,0,0.1,0,0.1c0.1-0.1,0.4-0.2,0.5-0.3c0,0,0,0.1,0,0.1l0-0.1
				c0.1,0,0.1,0,0.1,0c0.3-0.1-0.1-0.1,0.2-0.2c0,0,0,0-0.1,0.1c0.3-0.1,0.6-0.3,0.9-0.4c0.1,0.1-0.2,0.1-0.1,0.2
				c0.4-0.2,0.8-0.5,1.2-0.6l-0.1,0c0-0.2,0.3-0.1,0.5-0.2c0,0,0,0.1,0,0.1c0.3-0.1,0.5-0.3,0.9-0.5l0,0.1c0.2,0,0.4-0.2,0.6-0.3
				c0-0.1,0.1-0.1,0-0.1c0.6-0.1,0.9-0.6,1.4-0.7c-0.1,0-0.1,0.1-0.1,0.1c0.1-0.1,0.2-0.2,0.4-0.3c-0.1,0-0.1,0-0.2,0
				c0-0.1,0.1-0.2,0.2-0.2c-0.1,0.1,0.1,0.1,0.1,0.1c0,0,0,0,0-0.1c0.3,0,0-0.1,0.3-0.2l0,0c0.1-0.1,0.1-0.2,0.3-0.2
				c0.1,0-0.1,0.1-0.1,0.2c0.1-0.1,0.2-0.3,0.4-0.3c0,0.1-0.1,0.1-0.2,0.2c0.2,0,0.2-0.1,0.3-0.1l0,0l0.3-0.1l-0.1,0
				c0.1-0.3,0.3-0.3,0.5-0.6c-0.1,0.3,0,0.1,0,0.2c0.1,0,0.2-0.1,0.2,0c0.1-0.1,0.2-0.1,0.3-0.3c0,0,0.1-0.1,0.1,0
				c0.1-0.1-0.1,0-0.1,0c0.1-0.3,0.6-0.4,0.7-0.8c0.2-0.3,0.2-0.4,0.3-0.7c0.1-0.1,0,0.1,0,0.1c0.1-0.1,0.2-0.2,0.3-0.4
				c0,0,0,0,0.1,0c0.1-0.1,0-0.1,0.1-0.3c0,0,0,0.1,0,0.2c0.1-0.2,0.1-0.3,0.2-0.5c0.1,0,0,0.1,0,0.2c0.1-0.2,0.2-0.5,0.1-0.5
				l-0.1,0.1c0-0.1,0.1,0,0.1,0c0,0.2-0.1,0.2-0.2,0.2l0-0.1c-0.2,0-0.2,0.4-0.3,0.6c0,0,0-0.1,0-0.1c0,0.1,0,0.2-0.1,0.3
				c-0.1,0-0.1,0-0.1-0.1c-0.1,0.1,0,0.1-0.2,0.2c0,0,0,0,0,0c0,0.1,0,0.1-0.1,0.1c0,0-0.1,0,0-0.1c-0.2,0.2-0.2,0.4-0.4,0.4l0,0
				c-0.2,0.3,0,0.1-0.1,0.4c-0.1,0-0.2,0-0.3,0l0,0.1c0,0-0.1,0.1-0.1,0c-0.1,0.2,0,0,0,0.1c-0.2,0.1-0.4,0.4-0.5,0.3
				c0,0.1,0.2-0.1,0,0.1c-0.1-0.1-0.2,0.2-0.4,0.2c0-0.1,0.2-0.2,0-0.1c0,0.2-0.3,0.2-0.4,0.3c0.1,0.1-0.2,0.2-0.4,0.4
				c0,0-0.4,0.2-0.6,0.3l0,0c0,0.1-0.2,0.2-0.3,0.3c0-0.1,0-0.1,0.1-0.2l-0.1,0.1c0,0,0,0.1-0.1,0.2l0-0.1c-0.2,0.1-0.3,0.3-0.6,0.4
				c0,0.1,0.3,0.1,0.1,0.3c0,0-0.1-0.1,0-0.1c0,0-0.1,0.1-0.1,0.1l0.1-0.1c-0.1,0,0,0.1-0.1,0.1c0-0.1-0.1,0-0.1,0
				c0,0,0.1,0,0.1-0.1c-0.1,0.1-0.2,0.1-0.3,0.1c0,0,0,0.1,0,0.1c-0.2,0.1-0.1,0-0.2,0c0,0.1-0.2,0.1-0.1,0.2c-0.1,0-0.1,0-0.1,0
				c-0.1,0.1-0.5,0.3-0.3,0.3l0,0c0,0,0,0,0,0l0,0l0,0c-0.3,0.2-0.7,0.3-1.1,0.5l0,0c-0.2,0.1-0.4,0.2-0.6,0.4c-0.1,0-0.2,0-0.2,0
				c-0.1,0.1-0.2,0.1-0.4,0.2c0.1-0.1-0.1,0,0.1-0.1c-0.2,0.1-0.3,0-0.5,0.2c0-0.1-0.2,0-0.3,0l0.2,0c-0.1,0.1-0.2,0.1-0.3,0.1
				l0-0.1c-0.5,0.1-0.7,0.5-1.1,0.5c-0.1,0.1,0.2-0.1,0.2,0.1c-0.2,0.1-0.5,0-0.5,0c-0.3,0.1-0.2,0.2-0.5,0.3c0,0,0.1,0.1-0.1,0.2
				c-0.2,0.1-0.3,0-0.2-0.1c0,0,0.1,0,0.1,0c0.1,0,0.1-0.1,0-0.1l0,0c-0.1,0-0.4,0.1-0.3,0c-0.1,0.1,0,0.1,0.1,0
				c-0.3,0.1-0.4,0.2-0.7,0.2c0,0,0.1,0,0.1,0c-0.4,0.1-0.1,0.1-0.4,0.2c-0.2,0,0-0.1-0.2,0c-0.2,0-0.1-0.1,0-0.1
				c-0.2,0.2-0.5,0.1-0.6,0.2l0.1-0.1c-0.1,0-0.1,0.1-0.2,0.1l0.1,0c-0.1,0-0.1,0-0.1,0c-0.1,0.1,0.1,0.1,0,0.2
				c-0.1,0-0.3,0.1-0.4,0.1c0.3-0.1-0.1-0.1,0.2-0.2c0,0-0.1,0.1-0.2,0.1c0,0,0,0,0,0c-0.3,0-0.1,0.1-0.4,0.3c0-0.1-0.1-0.1-0.2,0
				c0.1,0,0.1,0.1,0,0.1c-0.2,0-0.2,0.1-0.3,0.1l0.1,0c0,0.1-0.1,0.1-0.3,0.2c0,0,0.1-0.1,0.1-0.1c-0.1,0.1-0.4,0-0.6,0.2
				c-0.1,0,0-0.1-0.1-0.1c-0.2,0.1-0.3,0-0.5,0.2c0.1,0,0.1,0-0.1,0.1l0.4-0.2l-0.2,0.2c0.1,0,0.2-0.1,0.3-0.2
				c-0.1,0.1-0.1,0.1,0,0.1c-0.2,0-0.3,0.2-0.5,0.2l0-0.2c-0.3,0-0.5,0.3-0.9,0.3l0.1,0c0,0.1-0.2,0.1-0.4,0.2
				c0-0.1-0.1-0.1-0.2-0.1c0,0-0.3,0.1-0.3,0.2l-0.2,0c-0.3,0.1-0.3,0.3-0.6,0.4c0.1-0.1-0.1-0.1,0.1-0.2c-0.1,0-0.2,0.1-0.2,0.1
				c-0.1,0-0.3,0.2-0.4,0.1c0,0,0,0.1-0.1,0.1c0,0,0,0,0,0c0,0-0.2,0.1,0,0.1c-0.4-0.1-0.9,0.3-1.2,0.2c-0.2,0.1-0.5,0.2-0.7,0.2
				c0,0,0,0,0,0c-0.3,0-0.1,0.2-0.5,0.2c-0.2,0,0.2-0.1,0-0.1c-0.1-0.2-0.4,0.1-0.6,0.1l0,0c-0.2,0-0.4,0.2-0.7,0.2c0,0,0,0,0,0
				c-0.2,0.1-0.5,0.3-0.7,0.4c0.1-0.1,0.1-0.1,0-0.1c-0.1,0,0.1,0.1-0.2,0.2c-0.1,0-0.3,0-0.3-0.1l0.2-0.1c-0.1-0.1-0.3,0.1-0.4,0.1
				l0,0c-0.3,0.1-0.3,0.2-0.7,0.3l0,0c-0.2,0.2-0.2,0-0.4,0.1l-0.1-0.1c-0.1,0.1-0.4,0.2-0.7,0.3c0.1-0.1,0.4-0.2,0.5-0.3
				c-0.1,0-0.4,0.1-0.5,0.2c0,0,0.1-0.1,0.2-0.1c-0.1,0.1-0.3,0.2-0.6,0.3c0-0.2-0.7,0.1-0.9,0c-0.4,0.2-0.9,0.1-1.4,0.3
				c0.2,0.1-0.2,0-0.1,0.2c-0.1,0-0.2,0-0.2,0l-0.4,0c-0.1,0,0.1-0.1,0.1-0.1c-0.3,0-0.1,0-0.3-0.1c0,0.1-0.1,0.1-0.2,0.1l0.2,0
				c-0.4,0.2-0.4-0.1-0.7,0.1l0.1-0.1c-0.2,0.1-0.7,0.1-0.9,0.3c0,0-0.1-0.1,0-0.1c-0.5,0.1-1,0.3-1.4,0.3l0,0
				c-0.1,0-0.1,0.1-0.3,0.1c0,0,0,0,0,0c0,0-0.2,0.1-0.3,0.1l0.1-0.1c-0.5,0-0.7,0.2-1.1,0.3c0-0.1-0.4-0.1-0.6-0.1l0,0
				c-0.5,0.1-0.9,0.2-1.4,0.3c-0.3-0.1-1.1,0.1-1.6,0c0.1,0,0,0.1-0.1,0.1c-0.1,0-0.3,0.1-0.3,0l0,0c-0.1-0.1-0.3-0.1-0.5,0l0,0.2
				c-0.5-0.2-1.3,0.2-1.6,0c-0.1,0-0.3,0.1-0.4,0.1l0-0.1c-0.3,0-0.5,0-0.9,0l0.1-0.1c-0.2,0-0.3,0.2-0.5,0.3l-0.1-0.1
				c-0.4,0-0.8-0.1-1.2,0.1c0,0,0-0.1,0.1-0.1c-0.2,0-0.7,0-0.7,0.1c0-0.1-0.4,0-0.6,0l0-0.1c-0.2,0.1-0.2,0.1-0.4,0.2
				c-0.1,0-0.1-0.1,0,0c-0.2,0-0.2,0.1-0.4,0l0.1-0.1c-0.2,0-0.2,0-0.3,0.1c-0.1,0-0.4,0-0.4-0.1c0,0-0.1,0.1-0.3,0.1
				c0,0,0,0,0.1-0.1c-0.3-0.1-0.5,0.1-0.8,0c0,0,0,0,0,0c0.3,0,0.5,0,0.5,0c0-0.1-0.2-0.1,0-0.2c-0.2,0.1-0.5,0.2-0.7,0.1
				c0,0,0,0,0,0l0,0c0,0-0.1,0-0.1,0c-0.1,0-0.1,0-0.2,0c0-0.1-0.3,0-0.4,0c0,0.1-0.1,0.1,0,0.1c0,0,0,0,0.1,0c0,0,0,0,0,0l0,0
				c0.1,0,0.2,0,0.3,0c-0.1,0-0.2,0.1-0.3,0c-0.1,0.1-0.1,0.1-0.2,0.1c-0.2-0.1-0.4-0.2-0.5-0.2c-0.3,0-0.8,0-1,0.2
				c-0.1,0-0.1,0-0.1-0.1c0.1,0,0.1,0,0.2,0c-0.2,0-0.6,0-0.6,0.1c-0.2-0.1,0.1-0.1-0.2-0.1l0,0c-0.6-0.2-1.1,0.2-1.8,0
				c0,0,0.1,0,0.1,0c-0.8-0.1-1.7,0-2.5-0.3c-0.2,0-0.3,0-0.4,0.1l0-0.1l-0.3,0.1c-0.4,0-0.6-0.3-1-0.2l0,0.1c-0.2,0-0.5,0-0.5-0.1
				c0,0-0.1,0.1-0.1,0l0,0l-0.4,0c-0.3-0.1,0.1-0.2-0.4-0.2c-0.2,0-0.5,0.1-0.4,0.1c0.1,0,0.2,0,0.2,0.1l-0.2,0
				c0,0.1-0.2,0.3,0.2,0.4l0.3-0.1l0.1,0.1l-0.2,0c0.1,0.1,0.2,0,0.3,0c0,0,0,0.1,0.1,0.1l0.3-0.1c0,0.1-0.1,0.1,0,0.1
				c0.1,0-0.1-0.1,0.1-0.1c0.1,0.1,0.1,0.1,0.2,0.1c0,0,0,0.1-0.1,0.1c0.1,0,0.3,0,0.4,0c0.1,0.1,0.4,0,0.4,0.2c0,0,0.2-0.1,0.3-0.1
				c-0.2,0.1,0.4,0.1,0.4,0.2c0.2-0.1,0.6,0,0.9-0.1c0,0,0,0-0.1,0c0.2,0,0.2,0.1,0.3,0.1c0-0.1,0.3-0.1,0.4-0.2
				c0.2,0.1-0.1,0.1-0.1,0.2c0-0.1,0.3-0.1,0.3-0.1c0.1,0.1,0.1,0,0.2,0.1c0-0.1,0.1,0,0.3-0.1c0.2,0.1,0,0.1,0.3,0.1
				C702.7,329.4,702.4,329.4,702.4,329.4z M708,329.4L708,329.4c0,0-0.1,0-0.1,0C707.9,329.4,708,329.4,708,329.4z M708.5,329.4
				c-0.1,0-0.1,0-0.2,0c0,0,0-0.1,0-0.1C708.3,329.3,708.4,329.3,708.5,329.4z M707.5,328.8c0.1,0,0.1,0,0.1,0
				C707.6,328.8,707.5,328.8,707.5,328.8C707.5,328.8,707.5,328.8,707.5,328.8C707.5,328.8,707.5,328.8,707.5,328.8z"/>
			<path fill="#464547" d="M707.4,328.9C707.4,328.9,707.4,328.9,707.4,328.9C707.4,328.9,707.4,328.9,707.4,328.9L707.4,328.9
				C707.4,328.9,707.4,328.9,707.4,328.9z"/>
			<path fill="#464547" d="M748.4,319.9L748.4,319.9C748.4,319.9,748.4,319.9,748.4,319.9C748.4,319.9,748.4,319.9,748.4,319.9z"/>
			<polygon fill="#464547" points="715,329.3 715,329.3 714.9,329.3 			"/>
			<path fill="#464547" d="M750.7,318.9C750.8,318.9,750.8,318.9,750.7,318.9C750.8,318.9,750.8,318.9,750.7,318.9z"/>
			<path fill="#464547" d="M751.7,318.2l0.1-0.1C751.8,318.2,751.7,318.2,751.7,318.2z"/>
			<path fill="#464547" d="M752.4,317.8C752.4,317.7,752.4,317.7,752.4,317.8L752.4,317.8L752.4,317.8z"/>
			<path fill="#464547" d="M740.2,323.8C740.2,323.8,740.2,323.8,740.2,323.8C740.1,323.9,740.1,323.8,740.2,323.8z"/>
			<path fill="#464547" d="M743.9,322.2c0,0-0.1,0.1-0.1,0.1C743.9,322.2,743.9,322.2,743.9,322.2z"/>
			<polygon fill="#464547" points="735.9,325.4 735.9,325.4 735.9,325.4 			"/>
			<path fill="#464547" d="M743.6,322.3c0.1,0,0.1,0,0.2-0.1C743.7,322.3,743.7,322.3,743.6,322.3z"/>
			<path fill="#464547" d="M754.9,314.9L754.9,314.9C754.9,314.9,754.9,314.9,754.9,314.9L754.9,314.9z"/>
			<path fill="#464547" d="M754.9,314.8L754.9,314.8C754.9,314.8,754.9,314.8,754.9,314.8z"/>
			<path fill="#464547" d="M754.9,314.7C754.9,314.7,754.9,314.8,754.9,314.7C754.9,314.8,754.9,314.7,754.9,314.7z"/>
			<path fill="#464547" d="M754.2,315.9L754.2,315.9C754.2,315.9,754.2,315.9,754.2,315.9z"/>
			<path fill="#464547" d="M754,316.2c0.1-0.1,0.2-0.1,0.2-0.2l0,0C754.3,316,754,316.1,754,316.2z"/>
			<path fill="#464547" d="M752.8,317c0.1-0.1,0.2-0.1,0.2-0.2c-0.1,0-0.1,0,0-0.1C752.6,316.9,753.1,316.7,752.8,317z"/>
			<path fill="#464547" d="M752.1,317.5C752.2,317.4,752,317.5,752.1,317.5C752,317.5,752,317.6,752.1,317.5z"/>
			<path fill="#464547" d="M746.5,320.7L746.5,320.7C746.4,320.7,746.5,320.7,746.5,320.7z"/>
			<polygon fill="#464547" points="745.6,321.6 745.7,321.6 745.7,321.5 			"/>
			<polygon fill="#464547" points="744.7,321.4 744.7,321.3 744.5,321.4 			"/>
			<path fill="#464547" d="M734.5,325.1L734.5,325.1C734.6,325.1,734.6,325,734.5,325.1z"/>
			<path fill="#464547" d="M730,326.4c-0.1,0-0.2,0-0.3,0C729.9,326.4,730,326.4,730,326.4z"/>
			<polygon fill="#464547" points="716.2,328.5 716.3,328.4 716.1,328.5 			"/>
		</g>
		<g>
			<path fill="#464547" d="M733.3,332.4C733.3,332.4,733.3,332.3,733.3,332.4L733.3,332.4L733.3,332.4z"/>
			<path fill="#464547" d="M733.1,332.3c0,0.1,0,0.1,0,0.2C733.1,332.4,733.1,332.4,733.1,332.3c0.1,0,0.1,0.1,0.1,0.1
				c0,0,0.1,0,0-0.1C733.2,332.3,733.1,332.3,733.1,332.3C733.1,332.3,733.1,332.3,733.1,332.3z"/>
			<path fill="#464547" d="M730.2,333L730.2,333C730.2,333,730.2,333,730.2,333z"/>
			<path fill="#464547" d="M728.4,333.4C728.4,333.4,728.4,333.4,728.4,333.4C728.4,333.4,728.4,333.4,728.4,333.4z"/>
			<path fill="#464547" d="M728.1,333.3C728.1,333.3,728.1,333.3,728.1,333.3C728.1,333.3,728.1,333.3,728.1,333.3z"/>
			<path fill="#464547" d="M730.2,333L730.2,333C730.1,333,730.2,333,730.2,333z"/>
			<path fill="#464547" d="M732.7,332.6C732.8,332.6,732.8,332.6,732.7,332.6C732.8,332.6,732.7,332.6,732.7,332.6L732.7,332.6z"/>
			<path fill="#464547" d="M730.9,332.7L730.9,332.7C731,332.7,731,332.7,730.9,332.7L730.9,332.7z"/>
			<path fill="#464547" d="M731.5,332.5c0,0,0,0.1,0,0.1C731.5,332.6,731.5,332.6,731.5,332.5C731.6,332.5,731.5,332.5,731.5,332.5z
				"/>
			<path fill="#464547" d="M732.5,332.4L732.5,332.4C732.5,332.3,732.5,332.4,732.5,332.4z"/>
			<path fill="#464547" d="M730.5,332.8C730.5,332.8,730.5,332.8,730.5,332.8C730.5,332.8,730.5,332.8,730.5,332.8z"/>
			<path fill="#464547" d="M713.3,335.2C713.3,335.2,713.3,335.2,713.3,335.2C713.3,335.2,713.3,335.2,713.3,335.2z"/>
			<polygon fill="#464547" points="712.6,334.8 712.6,334.8 712.6,334.7 			"/>
			<path fill="#464547" d="M727.5,333.4C727.5,333.4,727.5,333.4,727.5,333.4C727.5,333.3,727.5,333.3,727.5,333.4z"/>
			<path fill="#464547" d="M722.3,334.3c0.1,0.1-0.1,0.1,0,0.2C722.3,334.4,722.4,334.3,722.3,334.3z"/>
			<path fill="#464547" d="M732.7,332.6C732.7,332.6,732.7,332.6,732.7,332.6C732.7,332.6,732.7,332.6,732.7,332.6z"/>
			<polygon fill="#464547" points="722.3,334.4 722.3,334.4 722.3,334.4 			"/>
			<path fill="#464547" d="M726.2,333.7C726.2,333.7,726.2,333.7,726.2,333.7C726.2,333.7,726.2,333.7,726.2,333.7z"/>
			<path fill="#464547" d="M727.2,333.6L727.2,333.6C727.2,333.6,727.2,333.6,727.2,333.6z"/>
			<path fill="#464547" d="M725.7,333.9C725.7,333.9,725.7,333.9,725.7,333.9C725.7,333.9,725.7,333.9,725.7,333.9
				C725.7,333.9,725.7,333.9,725.7,333.9z"/>
			<path fill="#464547" d="M725.2,334C725.2,334,725.2,334,725.2,334L725.2,334L725.2,334z"/>
			<path fill="#464547" d="M714.9,335.3C714.9,335.2,714.9,335.2,714.9,335.3C714.9,335.2,714.9,335.3,714.9,335.3z"/>
			<path fill="#464547" d="M732.7,332.6C732.7,332.6,732.7,332.6,732.7,332.6L732.7,332.6C732.7,332.6,732.7,332.6,732.7,332.6z"/>
			<path fill="#464547" d="M725.8,334.5L725.8,334.5C725.7,334.5,725.8,334.5,725.8,334.5z"/>
			<path fill="#464547" d="M718.8,335.2L718.8,335.2C718.8,335.2,718.8,335.2,718.8,335.2z"/>
			<path fill="#464547" d="M725.5,334.5C725.5,334.5,725.4,334.5,725.5,334.5C725.4,334.5,725.4,334.5,725.5,334.5L725.5,334.5z"/>
			<path fill="#464547" d="M714.9,335.2L714.9,335.2L714.9,335.2z"/>
			<path fill="#464547" d="M714.4,335.4c0.1,0,0-0.1,0.1-0.2c0.1,0,0,0.1,0.1,0.1c0.1,0,0.1-0.1,0.2-0.1c0,0,0,0,0,0
				c0.1-0.1,0.2,0,0.3-0.1c0,0,0,0,0,0c0-0.1,0-0.1,0-0.1c0,0,0.1-0.1,0.1,0c0,0,0,0,0,0l0,0c0,0.1-0.1,0-0.1,0.1
				c0.1,0,0.2-0.1,0.2-0.1c0,0.1-0.1,0-0.1,0.1l-0.1,0c0.1,0.2-0.1,0,0,0.2c0.1,0,0.1,0,0.2,0c0-0.1,0-0.1,0-0.1
				c0.2-0.1,0.1,0.2,0.2,0.1c0-0.1,0-0.2,0.1-0.1l0,0.1c0.1,0,0.1-0.2,0.2-0.1c0,0-0.1,0-0.1,0c0.1,0.1,0.1-0.1,0.1-0.1l0,0.1
				c0.1,0,0.3-0.1,0.4-0.1c0,0,0,0.1,0,0.1c0.2,0,0.4,0,0.5,0.1l0.1-0.1c0,0,0,0,0,0.1c0.1,0,0-0.1,0-0.1c0,0,0,0,0,0.1
				c0.1-0.1,0.3-0.2,0.4-0.1l0,0c0.1,0,0.1-0.2,0.2-0.1l0,0c0.2,0,0.4,0,0.6,0.1c0-0.1,0.2,0,0.2-0.1c0.1,0.1,0.1,0.1,0.2,0.2
				c0,0,0.1-0.1,0.1-0.1l0,0.1l0.1-0.1l0,0.1l0,0c0,0,0,0,0-0.1c0.1,0,0.2,0.1,0.2,0.1l0.2-0.1c0,0,0,0-0.1,0.1c0.1-0.1,0,0.1,0.1,0
				c0,0,0-0.1,0-0.1c0,0.1,0.1,0,0.2,0l0,0.1c0.1,0,0.3,0,0.4-0.1c-0.1,0-0.1-0.1,0-0.1l0,0.1c0-0.1,0,0,0-0.1c0.1,0,0,0.1,0,0.1
				l0.1,0c0,0,0,0,0,0.1c0-0.1,0.1,0.1,0.2,0l0,0c0.2,0,0.2,0,0.3-0.1c0-0.1,0-0.1,0.1-0.1c0.1,0,0.2,0.1,0.3,0.1c0.1,0,0-0.1,0-0.1
				c0,0.1,0.1,0.1,0.1,0.1c0.1,0,0.2,0,0.3-0.1c0,0,0,0,0-0.1c0,0,0.1,0,0.1,0.1l0,0c0.2-0.1,0.4,0.2,0.6,0l0,0l0.1-0.1
				c0.1,0,0,0.1,0,0.1c0.2-0.1,0.3,0,0.4-0.1c0.1,0.2,0.4-0.1,0.5,0.1l0,0c0-0.1,0,0,0.1,0c0,0,0,0,0-0.1c0.3-0.1,0.6,0,1,0
				c0.1,0,0-0.3,0.2-0.2l0,0.1c0.2-0.1,0.5-0.1,0.7-0.2c0,0,0,0.1,0,0.1c0.1,0.1,0.2,0,0.2-0.1c0,0,0,0,0,0.1c0.1,0,0.1-0.1,0.1,0
				c0,0,0,0,0,0c0,0,0.1,0,0.1-0.1c0.1,0,0.2-0.1,0.2,0c0-0.1,0.2,0,0.1-0.1c0,0.1,0.2,0.1,0.2,0c0,0,0.1,0,0,0.1
				c0.1,0,0.1,0,0.1-0.1c0.1,0.1,0.2-0.2,0.3,0c0.2-0.1,0.3-0.2,0.5-0.2c0,0.1-0.2,0-0.1,0.2c0.1-0.1,0.2-0.2,0.4-0.2
				c0,0,0,0.1,0,0.1c0.1-0.1,0.3-0.1,0.4-0.1c0,0,0,0,0,0c0,0,0.1,0,0.1-0.1l0,0c-0.1-0.1,0.1-0.2,0.1-0.2c0,0.2,0.1,0,0.1,0.2
				c0,0,0,0,0-0.1c0,0,0,0,0,0.1c0.1-0.1,0-0.1,0.1-0.1c0,0,0,0,0,0.1c0-0.1,0.1-0.1,0.1-0.1c0,0,0,0,0,0c0.1,0,0.2-0.2,0.3-0.2
				c0,0.1,0.1,0,0.1,0.1l0.1,0l0,0c0.1,0,0.1-0.1,0.2-0.1l0,0.1l0.1,0l-0.1,0c0.1-0.1,0-0.1,0.1-0.1c0,0,0.1,0,0.1,0l0,0
				c0,0,0-0.1,0.1-0.1c0,0,0,0.1,0,0.1c0-0.1,0.1-0.1,0.2-0.2c0,0,0,0.1,0,0.1l0-0.1c0,0,0,0,0,0.1c0.1,0-0.1-0.1,0.1-0.1
				c0,0,0,0,0,0c0.1,0,0.2-0.1,0.3-0.1c0.1,0.1-0.1,0,0,0.1c0.1-0.1,0.3-0.2,0.4-0.2l0,0c0-0.2,0.1,0,0.2,0c0,0,0,0.1,0,0.1
				c0.1,0,0.2-0.1,0.3-0.2l0,0c0.1,0,0.2,0,0.2,0c0,0,0,0,0-0.1c0.2,0.2,0.3-0.2,0.5-0.1c0,0,0,0,0,0l0.1-0.1c0-0.1,0,0-0.1-0.1
				c0,0,0-0.1,0.1-0.1c-0.1,0.1,0,0.1,0.1,0.1c0,0,0,0,0-0.1c0.1,0.1,0-0.1,0.1-0.1l0,0c0,0,0.1-0.1,0.1-0.1c0,0.1,0,0,0,0.1
				c0.1,0,0.1-0.2,0.1-0.1c0,0-0.1,0-0.1,0.1c0.1,0.1,0.1,0,0.1,0l0,0l0.1,0l0,0c0-0.2,0.1-0.1,0.2-0.2c-0.1,0.1,0,0.1,0,0.2
				c0,0,0.1,0,0.1,0.1c0-0.1,0.1,0,0.1-0.1c0,0,0,0,0.1,0.1c0.1,0,0,0,0-0.1c0.1-0.1,0.2,0,0.3-0.1c0.1-0.1,0.1-0.2,0.2-0.3
				c0,0,0,0.1,0,0.1c0.1,0,0.1,0,0.2,0c0,0,0,0,0,0.1c0,0,0-0.1,0.1-0.1c0,0,0,0.1,0,0.1c0,0,0.1-0.1,0.1-0.1c0,0,0,0.1,0,0.1
				c0.1,0,0.1-0.1,0.1-0.2l0,0c0,0,0,0.1,0,0.1c0,0.1-0.1,0-0.1,0l0,0c-0.1-0.1-0.1,0.1-0.2,0.1l0-0.1l0,0.1c0,0-0.1-0.1,0-0.1
				c-0.1,0,0,0.1-0.1,0c0,0,0,0,0,0l0,0.1c0,0,0-0.1,0-0.1c-0.1,0-0.1,0.1-0.2,0.1l0,0c-0.1,0.1,0,0.1-0.1,0.2l-0.1-0.2l0,0.1
				c0,0,0,0,0,0c0,0.1,0,0,0,0.1c-0.1-0.1-0.2,0.1-0.2,0c0,0.1,0.1,0,0,0.1c-0.1-0.1-0.1,0-0.2,0c0-0.1,0.1-0.1,0-0.1
				c0,0.1-0.1,0-0.2,0c0,0.1-0.1,0.1-0.2,0.1c0,0-0.2,0-0.3,0l0,0c0,0.1-0.1,0.1-0.1,0.1c0-0.1,0-0.1,0-0.1l-0.1,0c0,0,0,0.1,0,0.1
				l0-0.1c-0.1,0-0.1,0.1-0.2,0.1c0,0.1,0.1,0.2,0,0.3c0,0,0-0.1,0-0.1c0,0,0,0,0,0l0-0.1c-0.1,0,0,0.1,0,0.1c0-0.1,0,0,0-0.1
				c0,0,0,0,0,0c0,0-0.1,0-0.1-0.1c0,0,0,0.1,0,0.1c-0.1,0,0-0.1-0.1-0.1c0,0-0.1,0,0,0.1c0,0,0,0,0-0.1c0,0-0.2,0.1-0.1,0.1l0,0
				l0,0l0,0l0,0c-0.1,0.1-0.3,0-0.4,0.1l0,0c-0.1,0.1-0.2,0.1-0.2,0.1c0,0-0.1,0-0.1-0.1c-0.1,0,0,0.1-0.1,0c0-0.1,0,0,0,0
				c-0.1,0-0.1,0-0.2,0c0-0.1-0.1-0.1-0.1,0l0.1,0c0,0-0.1,0-0.1,0l0-0.1c-0.2-0.1-0.2,0.3-0.4,0.1c0,0.1,0.1,0,0.1,0.1
				c-0.1,0-0.2-0.1-0.2-0.1c-0.1,0-0.1,0.2-0.2,0.1c0,0,0.1,0.1,0,0.2c-0.1,0-0.1-0.1-0.1-0.2c0,0,0,0,0,0c0,0,0,0,0-0.1l0,0
				c0,0-0.1,0-0.1-0.1c0,0,0,0.1,0,0.1c-0.1,0-0.1,0-0.2,0c0,0,0,0.1,0,0.1c-0.1,0,0,0.1-0.1,0.1c-0.1,0,0-0.1-0.1-0.1
				c-0.1,0,0-0.1,0-0.1c-0.1,0.1-0.2,0-0.2,0l0,0c0,0,0,0-0.1,0l0,0.1c0,0-0.1,0-0.1,0c0,0,0,0.1,0,0.2c0,0-0.1,0.1-0.1,0
				c0.1,0,0-0.1,0.1-0.1c0,0,0,0-0.1,0c0,0,0,0,0,0c-0.1-0.1,0,0.1-0.1,0.1c0-0.1,0-0.1-0.1-0.1c0,0,0,0.1,0,0.1c-0.1,0-0.1,0-0.1,0
				l0,0c0,0.1,0,0.1-0.1,0.1c0,0,0,0,0,0c0,0.1-0.1-0.1-0.2,0c0,0,0-0.1-0.1-0.1c-0.1,0.1-0.1-0.1-0.2,0c0,0.1,0,0,0,0.1l0.1-0.1
				l-0.1,0.1c0,0,0.1-0.1,0.1-0.1c0,0.1,0,0,0,0.1c-0.1-0.1-0.1,0.1-0.2,0l0-0.2c-0.1-0.1-0.2,0.1-0.3,0.1l0,0c0,0.1-0.1,0-0.1,0.1
				c0-0.1,0-0.1-0.1-0.1c0,0-0.1,0-0.1,0.1l-0.1-0.1c-0.1,0-0.1,0.2-0.2,0.2c0-0.1,0-0.1,0-0.2c0,0-0.1,0-0.1,0c0,0-0.1,0.1-0.1,0
				c0,0,0,0.1,0,0.1c0,0,0,0,0,0c0,0-0.1,0,0,0.1c-0.1-0.2-0.3,0.1-0.4-0.1c-0.1,0-0.2,0.1-0.2,0.1c0,0,0,0,0,0
				c-0.1,0,0,0.2-0.2,0.1c-0.1-0.1,0.1-0.1,0-0.1c0-0.2-0.1,0-0.2,0l0,0c-0.1-0.1-0.1,0.1-0.2,0.1c0,0,0,0,0,0
				c0,0.1-0.2,0.2-0.2,0.2c0-0.1,0,0,0-0.1c0,0,0,0.1,0,0.1c0,0-0.1-0.1-0.1-0.1l0.1,0c-0.1-0.1-0.1,0-0.1,0l0,0
				c-0.1,0-0.1,0.1-0.2,0.2l0,0c-0.1,0.1-0.1-0.1-0.1,0l0-0.1c0,0-0.1,0.1-0.2,0.2c0-0.1,0.1-0.1,0.2-0.2c0,0-0.1,0-0.2,0.1
				c0,0,0,0,0.1,0c0,0.1-0.1,0.1-0.2,0.2c0-0.2-0.2,0-0.3-0.2c-0.1,0.1-0.3,0-0.5,0c0.1,0.2-0.1,0,0,0.2c0,0-0.1,0-0.1,0l-0.1-0.1
				c0,0,0,0,0-0.1c-0.1,0,0-0.1-0.1-0.1c0,0.1,0,0.1-0.1,0.1l0.1,0.1c-0.1,0.1-0.1-0.1-0.2,0l0-0.1c-0.1,0-0.2,0-0.3,0.2
				c0,0,0-0.1,0-0.1c-0.2,0-0.3,0.2-0.5,0.1l0,0c0,0,0,0.1-0.1,0c0,0,0,0,0,0c0,0-0.1,0.1-0.1,0.1l0-0.1c-0.2,0-0.2,0.1-0.4,0.2
				c0-0.1-0.1-0.2-0.2-0.2l0,0c-0.2,0-0.3,0.1-0.5,0.2c-0.1-0.1-0.4,0-0.5-0.1c0,0,0,0.1,0,0.1c0,0-0.1,0.1-0.1,0l0,0
				c0-0.1-0.1-0.1-0.2-0.1l0,0.2c-0.2-0.2-0.4,0.1-0.5-0.1c0,0-0.1,0-0.1,0.1l0-0.1c-0.1,0-0.2,0-0.3,0l0-0.1
				c-0.1,0-0.1,0.2-0.2,0.2l0-0.1c-0.1,0-0.3-0.1-0.4,0c0,0,0-0.1,0-0.1c-0.1,0-0.2-0.1-0.2,0.1c0-0.1-0.1,0-0.2,0l0-0.1
				c-0.1,0.1-0.1,0.1-0.1,0.2c0,0,0-0.1,0,0c-0.1,0-0.1,0.1-0.1,0l0-0.1c-0.1,0-0.1,0-0.1,0.1c0,0-0.1,0-0.1-0.1c0,0,0,0.1-0.1,0.1
				c0,0,0,0,0-0.1c-0.1-0.1-0.2,0.1-0.3,0c0,0,0,0,0,0c0.1,0,0.2,0,0.2,0c0-0.1-0.1-0.1,0-0.2c-0.1,0.1-0.2,0.2-0.2,0.1c0,0,0,0,0,0
				l0,0c0,0,0,0,0,0c0,0,0,0-0.1,0c0-0.1-0.1,0-0.1,0c0,0.1,0,0.1,0,0.1c0,0,0,0,0,0c0,0,0,0,0,0l0,0c0,0,0.1,0,0.1,0
				c0,0-0.1,0.1-0.1,0c0,0.1,0,0.1-0.1,0.1c-0.1-0.1-0.1-0.2-0.2-0.2c-0.1,0-0.3,0-0.3,0.2c0,0,0,0,0-0.1c0,0,0,0,0.1,0
				c-0.1,0-0.2,0-0.2,0.1c-0.1,0,0-0.1-0.1-0.1l0,0c-0.2-0.2-0.4,0.3-0.6,0c0,0,0,0,0,0c-0.3-0.1-0.6,0.1-0.9-0.1
				c-0.1,0-0.1,0-0.1,0.1l0-0.1l-0.1,0.1c-0.1,0.1-0.2-0.2-0.3-0.1l0,0.1c-0.1,0-0.2,0-0.2,0c0,0,0,0.1,0,0l0,0l-0.1,0.1
				c-0.1,0,0-0.2-0.1-0.2c-0.1,0-0.2,0.1-0.1,0.2c0,0,0.1,0,0.1,0.1l-0.1,0c0,0.1-0.1,0.3,0.1,0.4l0.1-0.1l0,0.1l-0.1,0
				c0,0.1,0.1,0,0.1,0c0,0,0,0.1,0,0.1l0.1-0.1c0,0.1,0,0.1,0,0.1c0-0.1,0-0.1,0-0.2c0,0.1,0,0.1,0.1,0.1c0,0,0,0.1,0,0.1
				c0,0,0.1,0,0.1-0.1c0,0.1,0.1,0,0.1,0.1c0,0,0.1-0.1,0.1-0.1c-0.1,0.1,0.1,0,0.1,0.2c0.1-0.1,0.2,0,0.3-0.1c0,0,0,0,0,0
				c0.1,0,0.1,0.1,0.1,0.1c0-0.1,0.1-0.1,0.1-0.2c0.1,0.1,0,0.1,0,0.2c0-0.1,0.1-0.1,0.1-0.2c0,0.1,0,0,0.1,0.1c0-0.1,0,0,0.1-0.1
				C714.4,335.2,714.3,335.3,714.4,335.4C714.4,335.3,714.4,335.4,714.4,335.4z M716.3,335.1L716.3,335.1
				C716.2,335.1,716.2,335.1,716.3,335.1C716.2,335.1,716.2,335.1,716.3,335.1z M716.4,335.1C716.4,335.1,716.4,335.1,716.4,335.1
				C716.3,335.1,716.3,335.1,716.4,335.1C716.4,335.1,716.4,335.1,716.4,335.1z M716.1,334.6C716.1,334.6,716.1,334.6,716.1,334.6
				C716.1,334.6,716.1,334.6,716.1,334.6L716.1,334.6C716.1,334.6,716.1,334.6,716.1,334.6z"/>
			<path fill="#464547" d="M716,334.7C716,334.7,716,334.7,716,334.7C716,334.7,716,334.7,716,334.7L716,334.7L716,334.7z"/>
			<polygon fill="#464547" points="730.2,333 730.2,333 730.2,333 			"/>
			<polygon fill="#464547" points="718.6,335.2 718.6,335.2 718.6,335.2 			"/>
			<path fill="#464547" d="M731.1,333C731.1,333,731.1,333,731.1,333C731.1,333,731.1,333,731.1,333z"/>
			<path fill="#464547" d="M731.5,332.9L731.5,332.9C731.5,332.9,731.5,332.9,731.5,332.9z"/>
			<path fill="#464547" d="M731.8,332.9C731.8,332.9,731.8,332.9,731.8,332.9L731.8,332.9L731.8,332.9z"/>
			<path fill="#464547" d="M727.3,334.1C727.3,334.1,727.3,334.1,727.3,334.1C727.3,334.1,727.3,334.1,727.3,334.1z"/>
			<path fill="#464547" d="M728.6,333.6C728.6,333.6,728.6,333.7,728.6,333.6C728.6,333.7,728.6,333.7,728.6,333.6z"/>
			<polygon fill="#464547" points="725.8,334.5 725.8,334.5 725.8,334.5 			"/>
			<path fill="#464547" d="M728.5,333.7C728.5,333.7,728.6,333.7,728.5,333.7C728.6,333.7,728.5,333.7,728.5,333.7z"/>
			<path fill="#464547" d="M733,332.6L733,332.6C733,332.6,733,332.5,733,332.6L733,332.6z"/>
			<path fill="#464547" d="M733,332.5L733,332.5C733,332.5,733,332.5,733,332.5z"/>
			<path fill="#464547" d="M733,332.5L733,332.5C733,332.5,733,332.5,733,332.5z"/>
			<path fill="#464547" d="M732.6,332.6L732.6,332.6C732.6,332.7,732.6,332.6,732.6,332.6z"/>
			<path fill="#464547" d="M732.5,332.7c0,0,0.1,0,0.1,0l0,0C732.6,332.7,732.5,332.6,732.5,332.7z"/>
			<path fill="#464547" d="M731.9,332.5L731.9,332.5C732,332.4,732,332.4,731.9,332.5C731.9,332.3,732.1,332.5,731.9,332.5z"/>
			<path fill="#464547" d="M731.6,332.5C731.7,332.5,731.6,332.5,731.6,332.5C731.6,332.5,731.6,332.5,731.6,332.5z"/>
			<path fill="#464547" d="M729.5,333.1L729.5,333.1C729.5,333,729.5,333.1,729.5,333.1z"/>
			<polygon fill="#464547" points="729.2,333.6 729.3,333.6 729.3,333.5 			"/>
			<polygon fill="#464547" points="728.9,333.1 728.9,333.1 728.8,333.1 			"/>
			<path fill="#464547" d="M725.3,333.9L725.3,333.9C725.3,333.9,725.3,333.8,725.3,333.9z"/>
			<path fill="#464547" d="M723.7,334.2C723.7,334.2,723.7,334.1,723.7,334.2C723.7,334.2,723.7,334.2,723.7,334.2z"/>
			<polygon fill="#464547" points="719,334.5 719,334.5 719,334.5 			"/>
		</g>
		<path fill="#464547" d="M707.9,360.5l-21.3,0.3v0c-0.1-5.7,4.4-10.3,10.1-10.4l11.1-0.2L707.9,360.5z"/>
		<path fill="#464547" d="M762,359.7l-24.2,0.4l0,0c-0.1-5.7,4.4-10.3,10.1-10.4l13.9-0.2L762,359.7z"/>
		<path fill="#48484A" d="M745.3,292.5l-53.7,3.5c-10,0.6-18.6-6.9-19.3-16.9v0c-1.2-18.7,12.9-34.8,31.6-36l22.3-1.4
			c18.7-1.2,34.8,12.9,36,31.6v0C762.9,283.2,755.3,291.8,745.3,292.5z"/>
		<path fill="#58595B" d="M681.1,203.5l0.2-1.6c10.3,1.4,15.2,8,17.6,13.3c2.5,5.7,2.5,11,2.5,11.3l-1.6,0c0-0.1-0.1-5.3-2.4-10.7
			C694.2,208.7,688.7,204.5,681.1,203.5z"/>
		<circle fill="#58595B" cx="680.7" cy="203" r="2.2"/>
		<path fill="#58595B" d="M731,226.3c0,0,1.3-5,5.2-9.4c5.1-5.9,12.1-8.2,20.7-7l0.3-1.8c-11.6-1.7-18.5,3.2-22.4,7.6
			c-4.1,4.8-5.5,9.9-5.6,10.1L731,226.3z"/>
		<circle fill="#58595B" cx="758.2" cy="208.8" r="2.5"/>
		<path fill="#6B6C6F" d="M741.3,274.5c13,1.1,22.3-13.2,16.4-25.3c-7.3-15-21.6-25.7-38.9-27.1c-17.2-1.4-33.1,6.8-42.8,20.4
			c-7.8,11-0.9,26.6,12,27.6L741.3,274.5z"/>
		<circle fill="#FFFFFF" cx="692.7" cy="236.7" r="10.1"/>
		<circle fill="#282829" cx="692.4" cy="237.3" r="7.1"/>
		<path fill="#464547" d="M704,246.7c0.7,0,1.3,0.1,1.9,0.1c0.2,0.1,0.5,0.3,0.7,0.4l0.7,0.3c1,0.4,2,0.6,3,0.7c1,0.1,2.1,0,3.1-0.2
			c0.5-0.1,1-0.3,1.5-0.4c0.3,0.1,0.6,0.1,0.9,0.1c0.3,0,0.6,0.1,1,0.1c-0.3,0.6-0.7,1.1-1.2,1.6c-0.6,0.2-1.2,0.4-1.8,0.5
			c-1.2,0.3-2.4,0.4-3.7,0.2c-1.2-0.1-2.4-0.4-3.6-0.9l-0.8-0.4c-0.3-0.1-0.5-0.3-0.8-0.4C704.6,247.9,704.2,247.3,704,246.7z"/>
		<path fill="#464547" d="M717,244.8c0.3,0.4,0.5,0.7,0.7,1c-0.1,0.2-0.1,0.4-0.1,0.6c0,0.4,0.1,0.8,0.2,1.1
			c0.2,0.3,0.4,0.6,0.7,0.9c0.1,0.1,0.3,0.2,0.5,0.4c0,0.4,0.1,0.7,0.2,1.2c-0.4,0.2-0.8,0.3-1.2,0.4c-0.3-0.2-0.5-0.3-0.8-0.5
			c-0.5-0.4-0.9-0.9-1.2-1.5c-0.3-0.6-0.4-1.3-0.4-2c0-0.2,0-0.3,0-0.5c0-0.2,0-0.3,0.1-0.5C716.2,245.1,716.6,244.9,717,244.8z"/>
		<path fill="#464547" d="M707.4,239.3c-0.2,0.3-0.3,0.5-0.5,0.8c-0.1,0.3-0.2,0.5-0.3,0.8c-0.1,0.3,0,0.6-0.2,0.7
			c-0.1,0.1-0.2,0.1-0.4,0.2c-0.2,0.1-0.4,0.1-0.7,0.2l-0.2-0.1c-0.2-0.2-0.3-0.4-0.4-0.6c-0.1-0.2-0.1-0.4,0-0.6
			c0-0.2,0.1-0.3,0.3-0.5l0.5-0.3c0.1-0.1,0.3-0.2,0.4-0.3c0.2-0.1,0.3-0.2,0.5-0.2c0.3-0.1,0.6-0.2,1-0.2L707.4,239.3z"/>
		<path fill="#464547" d="M710.2,239.8c0.3,0,0.6,0.1,0.9,0.3c0.3,0.1,0.6,0.3,0.8,0.6c0.2,0.2,0.6,0.4,0.6,0.8c0,0.2,0,0.4-0.1,0.5
			c-0.1,0.2-0.2,0.4-0.4,0.6l-0.2,0c-0.3-0.1-0.5-0.1-0.7-0.2c-0.2-0.1-0.3-0.1-0.4-0.2c-0.1-0.1-0.1-0.2-0.1-0.3c0-0.1,0-0.3,0-0.4
			c0-0.1-0.1-0.2-0.1-0.3c0-0.1-0.1-0.2-0.1-0.4c-0.1-0.3-0.2-0.5-0.3-0.8L710.2,239.8z"/>
		<path fill="#464547" d="M702.8,237.5c0.5-5.6-3.7-10.5-9.3-10.9c-5.6-0.5-10.5,3.7-10.9,9.3L702.8,237.5z"/>
		<circle fill="#FFFFFF" cx="732.8" cy="240.6" r="10.7"/>
		<circle fill="#282829" cx="732.7" cy="241.8" r="7.1"/>
		<path fill="#464547" d="M743.5,241.5c0.5-5.9-3.9-11.1-9.8-11.6c-5.9-0.5-11.1,3.9-11.6,9.8L743.5,241.5z"/>
		<g>
			<circle fill="#464547" cx="746.9" cy="250.8" r="1.1"/>
			<circle fill="#464547" cx="748.6" cy="253.5" r="1.1"/>
			<circle fill="#464547" cx="745.5" cy="254.1" r="1.1"/>
		</g>
		<g>
			<circle fill="#464547" cx="680.2" cy="244.9" r="1.1"/>
			<circle fill="#464547" cx="682" cy="247.7" r="1.1"/>
			<circle fill="#464547" cx="678.9" cy="248.2" r="1.1"/>
		</g>
		<g>
			<path fill="#6B6C6F" d="M702.9,292.6c0,0,0.1,0,0.1,0C703,292.5,702.9,292.6,702.9,292.6z"/>
			<polygon fill="#6B6C6F" points="702.6,292.1 702.6,292.1 702.5,292.1 			"/>
			<path fill="#6B6C6F" d="M702.5,291.7c-0.2,0.1,0.1,0.2,0,0.3l0,0l0.2,0C702.6,291.9,702.4,291.8,702.5,291.7z"/>
			<path fill="#6B6C6F" d="M702.9,291.3C702.8,291.4,702.8,291.3,702.9,291.3C702.9,291.4,702.9,291.4,702.9,291.3
				C702.9,291.4,702.9,291.3,702.9,291.3z"/>
			<path fill="#6B6C6F" d="M702.9,291.4C702.9,291.4,702.9,291.3,702.9,291.4L702.9,291.4z"/>
			<path fill="#6B6C6F" d="M702.8,291.2L702.8,291.2c0.1,0,0.1,0,0.2,0C702.9,291.1,702.9,291.1,702.8,291.2z"/>
			<path fill="#6B6C6F" d="M702.7,291.1L702.7,291.1C702.7,291.2,702.7,291.1,702.7,291.1z"/>
			<path fill="#6B6C6F" d="M702.8,291.2L702.8,291.2C702.7,291.2,702.6,291.2,702.8,291.2C702.7,291.2,702.7,291.2,702.8,291.2z"/>
			<path fill="#6B6C6F" d="M702.7,291.3c0,0-0.1,0.1-0.1,0.1C702.6,291.4,702.8,291.4,702.7,291.3z"/>
			<path fill="#6B6C6F" d="M702.3,291.7L702.3,291.7L702.3,291.7C702.3,291.8,702.3,291.7,702.3,291.7z"/>
			<path fill="#6B6C6F" d="M702.9,290.7c0,0-0.1,0.1-0.2,0.1l0.1,0C702.8,290.8,702.8,290.8,702.9,290.7z"/>
			<path fill="#6B6C6F" d="M702.7,290.8L702.7,290.8C702.6,290.8,702.6,290.8,702.7,290.8z"/>
			<polygon fill="#6B6C6F" points="702.4,291.2 702.6,291.3 702.4,291.2 			"/>
			<polygon fill="#6B6C6F" points="702.8,290.5 702.9,290.5 702.8,290.5 			"/>
			<path fill="#6B6C6F" d="M702.8,290.3c0.1,0,0.1-0.1,0.2-0.1c0,0-0.1-0.1-0.2-0.1C702.8,290.2,702.8,290.2,702.8,290.3z"/>
			<path fill="#6B6C6F" d="M702.7,290.1c0,0,0.1,0,0.1,0C702.8,290.1,702.7,290.1,702.7,290.1z"/>
			<path fill="#6B6C6F" d="M702.6,290.6c0,0,0.1,0,0.1-0.1L702.6,290.6C702.6,290.6,702.6,290.6,702.6,290.6z"/>
			<path fill="#6B6C6F" d="M702.6,290.6L702.6,290.6C702.6,290.6,702.6,290.6,702.6,290.6C702.6,290.6,702.6,290.6,702.6,290.6z"/>
			<path fill="#6B6C6F" d="M702.6,290.6L702.6,290.6C702.6,290.6,702.6,290.6,702.6,290.6z"/>
			<path fill="#6B6C6F" d="M702.5,291c-0.1,0-0.2-0.1-0.2,0C702.3,291,702.4,290.9,702.5,291z"/>
			<path fill="#6B6C6F" d="M702.5,290.7L702.5,290.7C702.5,290.8,702.5,290.8,702.5,290.7L702.5,290.7z"/>
			<polygon fill="#6B6C6F" points="702.4,290.7 702.5,290.7 702.5,290.7 			"/>
			<path fill="#6B6C6F" d="M702.6,290.3C702.5,290.3,702.5,290.2,702.6,290.3C702.5,290.2,702.5,290.3,702.6,290.3
				C702.5,290.3,702.6,290.3,702.6,290.3z"/>
			<path fill="#6B6C6F" d="M702.6,290.4L702.6,290.4C702.6,290.4,702.6,290.4,702.6,290.4z"/>
			<path fill="#6B6C6F" d="M702.5,289.8C702.5,289.8,702.5,289.8,702.5,289.8L702.5,289.8L702.5,289.8z"/>
			<path fill="#6B6C6F" d="M702.5,290.3C702.5,290.4,702.5,290.4,702.5,290.3C702.5,290.4,702.5,290.3,702.5,290.3
				C702.5,290.3,702.5,290.3,702.5,290.3z"/>
			<path fill="#6B6C6F" d="M702.6,290C702.6,290,702.6,290.1,702.6,290C702.6,290.1,702.7,290,702.6,290z"/>
			<path fill="#6B6C6F" d="M702.6,290.4L702.6,290.4C702.6,290.4,702.6,290.4,702.6,290.4z"/>
			<path fill="#6B6C6F" d="M702.6,290.4C702.6,290.4,702.6,290.4,702.6,290.4C702.5,290.4,702.6,290.4,702.6,290.4
				C702.6,290.4,702.6,290.4,702.6,290.4z"/>
			<path fill="#6B6C6F" d="M701.7,289.9c0.1,0,0.2,0,0.1,0.1c0.1,0,0.5-0.1,0.6-0.2c0,0-0.1,0-0.2,0c-0.1,0-0.1,0.2-0.2,0.2
				c-0.1-0.1,0-0.1,0.1-0.2C702,289.9,701.9,289.7,701.7,289.9l0.1,0C701.8,289.9,701.7,289.8,701.7,289.9z"/>
			<path fill="#6B6C6F" d="M702.5,289.9L702.5,289.9c0,0,0.1,0,0.2-0.1c-0.1,0-0.1,0-0.1,0L702.5,289.9L702.5,289.9z"/>
			<path fill="#6B6C6F" d="M702.5,290.1c-0.1,0-0.2-0.1-0.3,0c0,0.1,0.1,0,0.2,0.1C702.3,290.1,702.4,290.2,702.5,290.1
				C702.5,290.1,702.5,290.2,702.5,290.1C702.5,290.2,702.5,290.1,702.5,290.1L702.5,290.1L702.5,290.1L702.5,290.1
				C702.5,290.1,702.5,290.1,702.5,290.1C702.5,290.1,702.5,290.1,702.5,290.1C702.5,290.1,702.5,290.1,702.5,290.1
				C702.5,290.1,702.5,290.1,702.5,290.1L702.5,290.1L702.5,290.1l0-0.1C702.5,290,702.5,290,702.5,290.1z"/>
			<path fill="#6B6C6F" d="M702,291C702,291,702,291,702,291C702,291,702,291,702,291z"/>
			<path fill="#6B6C6F" d="M702.1,290.9C702.1,290.9,702.1,290.9,702.1,290.9C702.1,291,702.1,291,702.1,290.9c0,0.1,0.1,0.1,0.1,0
				L702.1,290.9c0.1,0,0.3-0.2,0.3-0.2C702.2,290.8,702.2,290.9,702.1,290.9z"/>
			<path fill="#6B6C6F" d="M702.2,290.5l-0.1-0.1l-0.1,0.1l0.1,0C702.1,290.6,702.2,290.5,702.2,290.5z"/>
			<polygon fill="#6B6C6F" points="702.5,289.8 702.7,289.7 702.5,289.7 			"/>
			<polygon fill="#6B6C6F" points="702.5,289.6 702.6,289.6 702.5,289.6 			"/>
			<path fill="#6B6C6F" d="M700.1,281L700.1,281C700.1,281,700.1,281,700.1,281z"/>
			<path fill="#6B6C6F" d="M700.1,281.3L700.1,281.3C700.2,281.3,700.1,281.3,700.1,281.3z"/>
			<path fill="#6B6C6F" d="M702,285.8c0.1-0.1,0.3-0.2,0.1-0.1L702,285.8C702,285.7,702,285.8,702,285.8z"/>
			<path fill="#6B6C6F" d="M701,283.3C701,283.3,701,283.3,701,283.3C701,283.3,701,283.3,701,283.3C701,283.3,701,283.3,701,283.3z
				"/>
			<path fill="#6B6C6F" d="M700.5,283.4L700.5,283.4C700.5,283.3,700.5,283.3,700.5,283.4z"/>
			<path fill="#6B6C6F" d="M699.9,279.6l-0.1,0C699.7,279.6,699.8,279.6,699.9,279.6z"/>
			<path fill="#6B6C6F" d="M702.2,288c0-0.1,0.1-0.1,0.1-0.1C702.2,288,702.1,288,702.2,288z"/>
			<path fill="#6B6C6F" d="M701.4,280.9C701.4,280.9,701.4,280.9,701.4,280.9C701.4,280.9,701.4,280.9,701.4,280.9z"/>
			<path fill="#6B6C6F" d="M702.3,287.8C702.3,287.8,702.3,287.8,702.3,287.8c0,0.1,0,0.1,0,0.1
				C702.3,287.8,702.4,287.8,702.3,287.8z"/>
			<path fill="#6B6C6F" d="M699.7,274.4C699.7,274.4,699.7,274.4,699.7,274.4C699.7,274.4,699.7,274.4,699.7,274.4z"/>
			<path fill="#6B6C6F" d="M700.8,272.8C700.9,272.8,700.9,272.8,700.8,272.8C700.9,272.8,700.9,272.8,700.8,272.8z"/>
			<path fill="#6B6C6F" d="M702.5,289C702.5,289,702.5,289,702.5,289L702.5,289z"/>
			<path fill="#6B6C6F" d="M702,289.3C702,289.3,702,289.3,702,289.3C702,289.3,702,289.3,702,289.3z"/>
			<path fill="#6B6C6F" d="M701.5,287.6L701.5,287.6C701.4,287.6,701.5,287.6,701.5,287.6z"/>
			<path fill="#6B6C6F" d="M702.4,289C702.4,289,702.4,289,702.4,289C702.4,289,702.4,289,702.4,289z"/>
			<path fill="#6B6C6F" d="M702.5,289C702.5,289,702.5,289,702.5,289C702.5,289,702.5,289,702.5,289z"/>
			<path fill="#6B6C6F" d="M702.4,288.9C702.4,288.9,702.4,289,702.4,288.9C702.4,289,702.5,289,702.4,288.9
				C702.5,289,702.4,288.9,702.4,288.9z"/>
			<path fill="#6B6C6F" d="M700.1,277.1C700.1,277.1,700.1,277.1,700.1,277.1C700.1,277.1,700.1,277.1,700.1,277.1z"/>
			<polygon fill="#6B6C6F" points="700.6,285.2 700.6,285.2 700.6,285.2 			"/>
			<path fill="#6B6C6F" d="M700.5,285.1c0.2,0,0.1,0.1,0.1,0.1l0.3-0.1L700.5,285.1z"/>
			<path fill="#6B6C6F" d="M700,280.4l-0.1,0.1c-0.2-0.1-0.1-0.2-0.3-0.1c0.4-0.1,0.1,0.3,0.5,0.3l-0.1,0.1c0,0,0,0,0,0
				c-0.2,0.1,0.3,0,0.2,0.2c0,0.1-0.1,0.1-0.1,0.1l0.1,0.1c0,0-0.1,0-0.1,0l0,0.2l0,0c0.1,0,0.2,0.1,0.2,0.1c-0.1,0.1,0,0-0.1,0
				l0.1,0.1c-0.1,0.1-0.2,0-0.2-0.1c-0.4,0.2,0.1,0.1-0.1,0.3l-0.1-0.1c-0.2,0.1-0.1,0.1-0.3,0.3c0.1,0,0.3-0.3,0.4-0.2
				c0,0,0,0.1,0,0.1c-0.1,0-0.1,0.1-0.1,0.1l-0.2,0c0.1,0.1,0.2,0,0.2,0.1c0,0.1-0.1,0.1-0.3,0.2c0,0.1,0.2-0.1,0.3,0
				c-0.1,0.1,0,0.2,0.1,0.3c-0.1,0.1-0.1,0-0.2,0l0.2,0c0,0,0,0-0.1,0c0.1,0,0.2,0,0.2,0c0.2,0-0.3,0.2,0,0.3c0,0-0.1,0-0.2,0
				c0.2,0.1,0.1,0.1,0.3,0.2l-0.1,0.1c0.1-0.1,0.3,0,0.4,0c0.1,0,0.1-0.1,0.1-0.1l0.1,0.1c0,0-0.1,0-0.2,0c0,0,0,0,0,0
				c-0.1,0.1-0.2,0.1-0.3,0c0,0,0.1,0,0.1-0.1c-0.1,0-0.2,0-0.3,0c0,0,0,0,0.1,0c0,0-0.1,0-0.1,0c0,0,0,0,0.1,0l-0.2,0.1l0.1,0
				l-0.1,0.2c0.2,0.1,0.5,0.1,0.6,0.3c-0.2,0-0.2,0-0.4,0.1c0.2-0.1-0.1-0.1-0.1-0.3c0,0.1-0.1,0.1-0.1,0.1l0.2,0.2
				c-0.1,0-0.1,0.1-0.2,0.1c0.3-0.1,0.2,0.1,0.3,0.2c-0.1,0-0.2,0-0.2-0.1c-0.2,0.1,0.3,0.1,0.2,0.2c0,0,0,0,0,0c0.1,0,0,0.2,0,0.2
				l0,0c0,0.2,0,0.5,0.3,0.4c0,0-0.3,0-0.3,0l0.8,0.1c-0.2,0-0.7,0.2-0.8,0.1c0,0-0.1,0.1,0,0.2c0,0,0.3-0.1,0.3-0.1
				c-0.2,0.1-0.1,0.1-0.3,0.2c0,0,0.4-0.1,0.4,0c0,0-0.3,0.1-0.4,0.1l0.3,0.1c-0.1,0-0.3,0.1-0.4,0.1c0.1,0,0,0.1,0,0.2l0.1-0.1
				c0,0.2,0.5,0.1,0.5,0.2c-0.1,0-0.4,0-0.4,0.1c0.2,0,0.8,0,0.9,0.1l-0.1,0l0.1,0.1c-0.3,0-0.8-0.1-1-0.1c-0.1,0.1-0.1,0-0.1,0.1
				c-0.1,0.1-0.1,0-0.1,0l0,0.2c0.2-0.1,0.2,0.1,0.4,0.1l-0.2-0.2c0.2-0.1,0.6,0,0.5,0.2c-0.1,0.1-0.3,0-0.4,0.1
				c0.1,0,0.1,0.1,0.1,0.1l-0.1,0c-0.1,0.1,0.3,0.1,0.1,0.2c0,0-0.2,0.2-0.1,0.1c0.2-0.1,0.9-0.3,1-0.3c0,0-0.2,0.2-0.3,0.3
				c-0.2,0.1-0.4,0-0.6,0.1c0.1,0,0.1,0,0.1,0c0,0-0.2,0-0.1,0.1c0.2,0,0,0.2,0.2,0c0.1,0.1,0,0.1,0,0.2c0.1-0.1,0.4,0,0.5,0
				c0,0-0.1,0-0.1,0.1c0,0.2-0.1,0.3-0.1,0.4c0,0-0.1,0.1-0.2,0.1c0,0,0.1,0,0.1,0.1c-0.2,0.1,0-0.1-0.2,0c0.1,0,0.2,0.1,0.2,0.1
				c0.2-0.1,0-0.2-0.1-0.2c0.2-0.1,0.5,0,0.6,0.1c0.1,0.1-0.1,0.1-0.1,0.1c0,0.2,0.4,0.1,0.3,0.3c-0.1,0.1-0.3,0.1-0.4,0.1
				c-0.1-0.1,0.1-0.2,0.1-0.2l-0.1,0.1c-0.1,0-0.1-0.1-0.1-0.1c-0.1,0.1,0,0.4-0.1,0.6c0.1,0,0.1,0.1,0.2,0l0,0
				c0.1-0.1,0.2,0.1,0.2,0c0.1,0.1,0.2,0.1,0.2,0.2l-0.2,0.1c0.1,0,0.1-0.1,0-0.1c0.1,0-0.2,0.2,0,0.2l0.1-0.1
				c0.1,0.1,0.3,0.1,0.3,0.2c0.2-0.1,0,0,0.2-0.1c-0.2,0.1,0-0.2-0.3-0.1c0.2-0.1,0.1-0.1,0.3-0.3c-0.1,0-0.1,0.1-0.1,0
				c0,0,0,0-0.1,0l0,0l0,0c0,0,0,0,0,0c0,0-0.1,0-0.1,0.1c-0.1,0-0.1-0.1-0.2-0.2c0-0.1,0.1,0,0.1,0l-0.1,0c0.1,0,0.2-0.2,0.3-0.1
				l0-0.1c0.1-0.1,0.1-0.2,0-0.2c0-0.1-0.2-0.1-0.1-0.1l-0.1-0.1l0,0c0-0.2-0.2-0.3,0-0.5c0,0-0.1-0.1-0.1-0.2l0.1,0
				c0-0.1,0.1-0.2,0-0.2c0.3-0.1,0-0.3,0.1-0.5l-0.1,0c0-0.1-0.1-0.1-0.1-0.2l-0.1,0c-0.1-0.1,0.1-0.2,0-0.4c0,0,0,0,0,0.1
				c0.3-0.2-0.2-0.3-0.1-0.5c-0.1,0,0-0.1,0-0.1c0,0,0,0,0,0c0,0,0,0,0,0c0,0,0,0,0.1-0.1c0,0-0.1,0-0.1,0.1c0,0,0-0.1-0.1-0.1
				l0.1,0c0,0,0,0,0,0c0-0.1-0.1,0-0.2,0c0,0-0.1,0-0.1,0c0.2-0.1-0.1-0.1,0.1-0.2c-0.1,0-0.1-0.2-0.4-0.2c0,0,0,0,0,0
				c0-0.1,0-0.1,0-0.1l0.2-0.1l-0.2-0.1c0.1-0.1,0.2-0.1,0.3-0.1c-0.2-0.1-0.1-0.1-0.3-0.2l0.1,0c0,0-0.2-0.1-0.1-0.1
				c0.2-0.1,0-0.5,0.1-0.8c-0.3,0.1,0.1-0.1-0.1-0.1c0.1,0,0.1-0.1,0.2,0c-0.1-0.1,0.1-0.2-0.1-0.3c0.1,0,0.1,0,0.2,0
				c0,0-0.1,0,0-0.1c0,0,0.1,0,0.1,0c0-0.1-0.3-0.1-0.5-0.1c0.1-0.1,0.1-0.1-0.1-0.1c0.1,0,0.1-0.1,0.2,0c0,0,0.1-0.3-0.1-0.3
				c0,0,0-0.1,0-0.1c0-0.1,0-0.1,0-0.2l0,0c-0.2,0-0.1-0.1-0.1-0.2l0,0c0.1-0.2-0.1-0.1,0.1-0.3l-0.1,0c-0.3,0,0.2-0.2,0-0.3
				l-0.1,0.1c-0.1,0,0.4-0.2,0.4-0.3c0,0,0,0,0.1,0c0.2-0.2-0.2,0-0.2-0.1c0.1,0,0.2,0,0.3-0.1c0.1-0.1-0.3-0.2-0.2-0.3
				c-0.1,0-0.1,0.1-0.2,0c0-0.1,0.3-0.3,0-0.3c0,0,0,0,0.1,0c-0.1-0.1-0.1-0.2-0.2-0.2c0.5-0.1-0.3-0.4,0.2-0.4l0-0.2l0,0
				c0-0.1-0.1-0.2-0.2-0.2c0,0,0.1,0,0.1,0c0.1-0.2,0.1-0.2-0.2-0.3l0.1,0c-0.1,0,0.2-0.3,0-0.5c0,0,0,0,0.1,0
				c-0.2-0.2,0.4-0.5-0.2-0.5l-0.1-0.1c0,0.2-0.2,0-0.3,0.1c0-0.1,0.1-0.2,0.2-0.1l0,0c0.3,0,0.1-0.2,0.3-0.3c0-0.3,0.1-0.7,0.1-1
				l-0.2,0.1l0-0.1c0,0,0.2-0.1,0.2,0c0.1-0.1-0.1-0.1-0.2-0.1c0.1-0.2,0.2,0,0.2,0l0-0.1l0,0c-0.1,0-0.2,0-0.2-0.1
				c0-0.1,0.1,0,0.1-0.1c0,0,0,0,0,0l0-0.1l-0.2,0.1c-0.1-0.1,0-0.1-0.2,0c0.3-0.1,0.1-0.5,0.2-0.6c-0.1-0.1-0.1-0.2-0.1-0.3
				c0,0-0.2,0.1-0.2,0c0.4,0,0.2-0.2,0.4-0.3c-0.2,0.1-0.1-0.3-0.3-0.1c0-0.1,0.1,0,0.2-0.1c-0.2-0.2,0.1-0.4,0-0.6
				c-0.1,0-0.1,0-0.2,0l0.2-0.1c0,0-0.3,0-0.1-0.1c0,0-0.1,0-0.1,0c0.2-0.5-0.2-0.9,0.2-1.4c-0.1,0.1-0.1,0-0.1,0c0,0-0.1,0-0.2,0
				l0.2-0.2c-0.2,0,0-0.2-0.2-0.2l0,0.1c-0.2-0.1-0.5,0.1-0.7,0.2c0.2,0.1-0.4,0.3,0,0.4c-0.1,0-0.1,0-0.2,0c0.1,0,0.1,0.1,0.1,0.2
				l0,0c0,0.2-0.1,0.3-0.1,0.6l0.1,0c0,0.1-0.1,0.1-0.1,0.1c0.2,0,0-0.2,0.2-0.1c-0.3,0.1,0,0.4-0.3,0.5c0,0.1,0.2,0,0.2,0l-0.1,0
				l0.1,0c0,0.1-0.1,0.1-0.2,0.1c0,0,0,0,0-0.1c-0.1,0.1,0,0.2,0,0.2l0-0.1c0.1,0.2,0,0.5,0.2,0.7l0.1,0c0.1,0.2-0.1,0.1,0,0.3l0,0
				c0.1,0,0.1,0.1,0.1,0.1c-0.1,0-0.1,0.1-0.2,0.1c0.1,0.2,0.1,0.1,0.3,0.2l-0.1,0c0.1,0,0.1,0,0.2,0.1c-0.1-0.1-0.2,0.1-0.3,0
				c-0.2,0.2,0.3,0.3-0.1,0.4c0.3,0.1,0.2-0.2,0.2-0.1c0.1-0.1,0.2,0.1,0.2,0.1c0,0.1-0.4,0.2-0.4,0.3c0,0,0,0,0,0
				c-0.1,0.1,0.1,0.1,0,0.2c0.2,0,0,0.1,0.2,0.1l-0.1-0.1c0.1,0.1,0.3,0.1,0.2,0.3c0,0-0.1,0-0.1-0.1c-0.1,0,0,0.1,0,0.1
				c-0.2,0-0.1-0.2-0.2-0.2c-0.1,0.1,0.2,0.2-0.1,0.1c0.3,0,0,0.2,0.2,0.2l-0.1,0c0,0,0.1,0,0.1,0.1l-0.2,0c0.2,0.1-0.1,0.2,0,0.3
				c0-0.2,0.2-0.1,0.3-0.2c0.2,0.2-0.3,0.2-0.3,0.4c0,0,0.1-0.1,0.1-0.1c0,0.1-0.1,0.1-0.1,0.2c0,0.2,0.1,0,0.2,0
				c-0.2,0.1,0.1,0.1,0.1,0.1l-0.1,0c-0.1,0.2,0.3,0,0.2,0.2l-0.2,0l0.1,0.1l-0.2,0c0.1,0.1,0.1,0.1,0.1,0.2c0.1,0,0.3,0,0.3,0.1
				c-0.1,0.1-0.1,0-0.1,0.1c-0.1,0-0.2,0-0.1-0.1c0,0-0.1,0-0.1,0c-0.1,0.1,0,0.2,0,0.2c0,0,0,0,0-0.1l0.2,0.1c0,0-0.1,0-0.1,0
				c0,0,0.1,0,0.1,0.1c-0.1,0-0.2,0-0.3,0l0.1,0.1c0,0-0.1,0.1-0.2,0.1c-0.1,0.1,0.2,0.2,0.2,0.3c0,0,0,0,0.1,0c0,0.1-0.1,0.2,0,0.3
				l-0.2,0.1c0.1,0.1,0.2-0.1,0.3,0c0.1,0.1-0.2,0.1-0.2,0.1C700,280.3,700.2,280.4,700,280.4C700,280.5,700,280.4,700,280.4z
				 M700.2,281.7C700.2,281.6,700.1,281.6,700.2,281.7C700.3,281.6,700.3,281.6,700.2,281.7z M700.7,283.5
				C700.7,283.5,700.7,283.5,700.7,283.5C700.8,283.5,700.8,283.5,700.7,283.5z M702.3,288.6C702.3,288.6,702.3,288.6,702.3,288.6
				C702.3,288.6,702.3,288.6,702.3,288.6z M702.3,288.8C702.3,288.8,702.3,288.8,702.3,288.8C702.3,288.8,702.3,288.7,702.3,288.8
				C702.2,288.7,702.2,288.7,702.3,288.8z M701,276.7L701,276.7C701,276.6,701,276.7,701,276.7z"/>
			<path fill="#6B6C6F" d="M700.5,283.3C700.5,283.3,700.6,283.3,700.5,283.3C700.6,283.3,700.5,283.3,700.5,283.3z"/>
			<polygon fill="#6B6C6F" points="699.9,279.6 699.9,279.6 699.9,279.6 			"/>
			<path fill="#6B6C6F" d="M700.9,287.3C700.9,287.3,700.9,287.3,700.9,287.3C700.9,287.2,700.9,287.3,700.9,287.3z"/>
			<path fill="#6B6C6F" d="M702.6,289.3L702.6,289.3C702.5,289.3,702.5,289.3,702.6,289.3C702.5,289.3,702.6,289.3,702.6,289.3z"/>
			<path fill="#6B6C6F" d="M701.8,290.1C701.8,290.1,701.8,290.2,701.8,290.1L701.8,290.1C701.9,290.1,701.8,290.1,701.8,290.1z"/>
			<path fill="#6B6C6F" d="M702.1,289.5c-0.1,0-0.1,0.1,0,0.1c0,0,0,0,0,0C702.2,289.6,702.2,289.5,702.1,289.5z"/>
			<path fill="#6B6C6F" d="M702.1,289.6C702.1,289.6,702.1,289.6,702.1,289.6C702.2,289.6,702.1,289.6,702.1,289.6z"/>
			<path fill="#6B6C6F" d="M702.3,288.9c0,0,0.1,0,0.1,0C702.6,288.9,702.3,288.8,702.3,288.9z"/>
			<polygon fill="#6B6C6F" points="701.8,289.6 701.9,289.6 701.8,289.6 			"/>
			<path fill="#6B6C6F" d="M701.8,289.2L701.8,289.2C701.8,289.3,701.8,289.3,701.8,289.2C701.8,289.2,701.8,289.2,701.8,289.2z"/>
			<path fill="#6B6C6F" d="M701.8,289.3C701.8,289.3,701.8,289.3,701.8,289.3C701.9,289.3,701.8,289.3,701.8,289.3z"/>
			<polygon fill="#6B6C6F" points="701.7,289.5 701.7,289.5 701.7,289.4 			"/>
			<path fill="#6B6C6F" d="M701.7,288.3L701.7,288.3c-0.1-0.1-0.1,0-0.1,0C701.6,288.3,701.7,288.3,701.7,288.3z"/>
			<path fill="#6B6C6F" d="M701.4,288.7c0,0,0.1,0,0.1-0.1L701.4,288.7L701.4,288.7z"/>
			<path fill="#6B6C6F" d="M701.3,288.4c0,0-0.2-0.1-0.1,0C701.2,288.4,701.3,288.5,701.3,288.4z"/>
			<polygon fill="#6B6C6F" points="701.3,287.1 701.3,287.1 701.6,287 			"/>
			<path fill="#6B6C6F" d="M700.5,286c-0.1,0.1,0.2,0,0.1,0.1c0.1,0,0.1-0.1,0.1-0.1C700.7,286,700.7,286,700.5,286z"/>
			<path fill="#6B6C6F" d="M700.7,286C700.8,286.1,700.8,286.1,700.7,286C700.8,286.1,700.8,286,700.7,286z"/>
			<polygon fill="#6B6C6F" points="701,272.5 701.1,272.4 701,272.5 			"/>
			<path fill="#6B6C6F" d="M700.8,272.4l0.2,0L700.8,272.4C700.8,272.4,700.8,272.4,700.8,272.4z"/>
			<path fill="#6B6C6F" d="M699.9,281.9L699.9,281.9C700,281.9,700,281.9,699.9,281.9L699.9,281.9z"/>
			<polygon fill="#6B6C6F" points="699.9,281 699.9,281 700.1,280.9 			"/>
			<path fill="#6B6C6F" d="M699.6,280.2C699.6,280.2,699.7,280.3,699.6,280.2C699.6,280.2,699.9,280.2,699.6,280.2z"/>
		</g>
	</g>
	<g>
		<ellipse fill="#8A6252" cx="640.9" cy="364.4" rx="66.8" ry="67"/>
		<path fill="#7C5849" d="M615.7,327.1c-0.2-1-0.1-8.2,0-11.7c0-1.2,0.4-2.3,1-3.4l3.4-5.5l0,0c0.5-0.9,1.9-0.6,1.9,0.5v3.1
			c0,0.1,0,0.2-0.1,0.3l-1.2,3.4c-0.3,1-0.4,2.1-0.3,3.1l1.5,10.1H615.7z"/>
		<path fill="#7C5849" d="M632,306.1c-0.1-0.6-0.1-5.2,0-7.4c0-0.7,0.2-1.5,0.6-2.1l2.1-3.5l0,0c0.3-0.6,1.2-0.4,1.2,0.3v2
			c0,0.1,0,0.1,0,0.2l-0.7,2.1c-0.2,0.6-0.3,1.3-0.2,2l0.9,6.4H632z"/>
		<path fill="#7C5849" d="M651,309.1c0.3-0.4,2.8-3.4,3.9-4.8c0.4-0.5,0.9-0.9,1.3-1.2l2.5-1.8l0,0c0.4-0.3,0.5,0,0.2,0.5l-1.1,1.3
			c0,0-0.1,0.1-0.1,0.1l-1.4,1.2c-0.4,0.4-0.8,0.8-1.1,1.2l-3.1,4.4L651,309.1z"/>
		<path fill="#7C5849" d="M663.9,319.4c0.7-0.7,6.8-4.6,9.7-6.4c1-0.6,2.2-1,3.3-1l6.4-0.2l0,0c1-0.1,1.5,1.3,0.7,1.8l-2.6,1.7
			c-0.1,0.1-0.2,0.1-0.3,0.1l-3.5,0.9c-1,0.3-2,0.8-2.8,1.5l-7.6,6.8L663.9,319.4z"/>
		<path fill="#7C5849" d="M630.2,342.3c0.6-0.6,5.4-3.6,7.7-5.1c0.8-0.5,1.7-0.8,2.6-0.8l5.1-0.1l0,0c0.8-0.1,1.2,1,0.5,1.5
			l-2.1,1.3c-0.1,0-0.2,0.1-0.2,0.1l-2.7,0.7c-0.8,0.2-1.6,0.6-2.2,1.2l-6,5.3L630.2,342.3z"/>
		<path fill="#7C5849" d="M591.6,339c-0.3,0.9-0.6,1.7-1.2,2.5c0.2-0.2,0.4-0.5,0.5-0.7c-0.3,0.4-0.6,0.7-0.9,1
			c-0.6,0.6-0.9,1.3-0.2,1.9c0.8,0.7,2.6,0.6,3.5,0.5c1.8-0.1,3.6-0.5,5.3-1.2c1.3-0.5,2.7-1.1,3.8-2.1c1.2-1.2,2.2-2.6,2.6-4.2
			c0.7-2.4-4.4-1.7-5.5-1.5c-1.8,0.3-3.6,0.8-5.2,1.6c-0.4,0.2-0.9,0.5-1.3,0.7C592.4,337.9,591.9,338.4,591.6,339L591.6,339z"/>
		<path fill="#7C5849" d="M592.2,352.4c1,2.4,1.7,4.8,2.3,7.4c0.2,1,1.8,1.3,2.5,1.4c1.6,0.2,3.5-0.1,5-0.5c1.6-0.5,3.3-1,4.6-2.1
			c0.7-0.6,1.7-1.4,1.5-2.4c-0.5-2.5-1.3-5-2.3-7.4c-1-2.4-5.7-1.4-7.5-0.9c-1.6,0.5-3.3,1-4.6,2.1
			C593,350.4,591.8,351.4,592.2,352.4L592.2,352.4z"/>
		<path fill="#7C5849" d="M603.9,351.3c0.8,0.5,1.7,1,2.5,1.5c0.6,0.5,1.3,0.8,2.1,0.9c0.8,0.3,1.7,0.4,2.5,0.3c1,0,1.9-0.2,2.7-0.6
			c0.9-0.3,1.7-0.7,2.4-1.3c1.1-0.9,2.3-2.2,2.3-3.8c0-1.4-0.5-2.9-1.7-3.6c-0.8-0.5-1.7-1-2.5-1.5c-0.6-0.5-1.3-0.8-2.1-0.9
			c-0.8-0.3-1.7-0.4-2.5-0.3c-1,0-1.9,0.2-2.7,0.6c-0.9,0.3-1.7,0.7-2.4,1.3c-1.1,0.9-2.3,2.2-2.3,3.8
			C602.1,349.1,602.6,350.6,603.9,351.3L603.9,351.3z"/>
		<path fill="#7C5849" d="M591.5,387.4c3,5.7,6.8,10.8,11.2,15.5c2.2,2.3,14.6-2.7,12.8-4.5c-4.2-4.4-7.6-9.3-10.5-14.6
			C603.5,380.7,590.6,385.7,591.5,387.4L591.5,387.4z"/>
		<path fill="#7C5849" d="M637,364.2c1.4,1.1,2.7,2.3,4.1,3.4c0.9,0.7,2.5,0.8,3.5,0.7c1.7-0.1,3.7-0.5,5.3-1.1
			c1.1-0.4,6-2.7,3.9-4.5c-1.4-1.1-2.7-2.3-4.1-3.4c-0.9-0.7-2.5-0.8-3.5-0.7c-1.7,0.1-3.7,0.5-5.3,1.1
			C639.8,360.1,634.8,362.4,637,364.2L637,364.2z"/>
		<g>
			<g>
				<path fill="none" stroke="#BFA89F" stroke-miterlimit="10" d="M628.3,381.5"/>
			</g>
		</g>
		<g>
			<g>
				<path fill="none" stroke="#BFA89F" stroke-miterlimit="10" d="M639.7,379.2"/>
			</g>
		</g>
		<ellipse fill="#7C5849" cx="587.6" cy="350.9" rx="3.4" ry="3.4"/>
		<ellipse fill="#7C5849" cx="582.2" cy="360.1" rx="3.4" ry="3.4"/>
		<circle fill="#7C5849" cx="591" cy="360.1" r="2.1"/>
		<ellipse fill="#7C5849" cx="624.7" cy="386.4" rx="3.4" ry="3.4"/>
		<ellipse fill="#7C5849" cx="619.3" cy="395.6" rx="3.4" ry="3.4"/>
		<circle fill="#7C5849" cx="628.1" cy="395.6" r="2.1"/>
	</g>
	<path fill="#AAAFB4" d="M530.4,176.9c3.2-2.1,6.6-3.7,9.4-4.8c19.4-7,43.1,1.5,57.6,14.9c12.8,11.7,8.9,22.6-8,24.1
		c-12.1,1.1-23.7-3.3-35.6-3.5c-9-0.2-25.6,7.1-33.2,0.4C508.2,197.2,518.9,184.2,530.4,176.9z"/>
	<g>
		
			<linearGradient id="SVGID_1_" gradientUnits="userSpaceOnUse" x1="1725.0337" y1="131.756" x2="1918.4885" y2="131.756" gradientTransform="matrix(-0.9998 1.950509e-002 1.950509e-002 0.9998 2026.1987 -32.1425)">
			<stop  offset="0" style="stop-color:#BCBEC0"/>
			<stop  offset="1" style="stop-color:#B1B3B6"/>
		</linearGradient>
		<path fill="url(#SVGID_1_)" d="M113.6,73.6l4.2-1.8c4.1-1.8,5.3-7,2.4-10.4c-3.4-4-1-10.2,4.3-10.9l111.5-9.7
			c21.5-0.4,40,13.6,46,33.4c11.4,13.5,19.2,30.4,21.5,49.3c6.2,51.5-30.5,98.3-82,104.6s-98.3-30.5-104.6-82
			c-2.3-18.7,1.2-36.8,8.9-52.5l-13.1-8.3C108.1,82.4,108.6,75.7,113.6,73.6z"/>
		<circle fill="#9A9FA3" cx="208.6" cy="134.6" r="66.9"/>
		<path fill="#AAAFB4" d="M357.1,111.2c7,48.9,52.2,82.8,101.1,75.8s82.8-52.2,75.8-101.1c-2.5-17.7-10.1-33.5-21.1-46l10-10.8
			c3.4-3.7,1.3-9.8-3.8-10.5L515,18c-4.2-0.6-6.6-5.1-4.8-9c2.2-4.5-1.6-9.7-6.6-9L433,10.1C384.1,17.1,350.2,62.4,357.1,111.2z"/>
		<circle fill="#959A9E" cx="447" cy="98" r="63.6"/>
		<g>
			
				<linearGradient id="SVGID_2_" gradientUnits="userSpaceOnUse" x1="1648.303" y1="69.8032" x2="1648.303" y2="124.4587" gradientTransform="matrix(-0.999 4.531100e-002 4.531100e-002 0.999 1996.1177 -13.8973)">
				<stop  offset="0" style="stop-color:#CBCCCE"/>
				<stop  offset="1" style="stop-color:#C2C4C6"/>
			</linearGradient>
			<path fill="url(#SVGID_2_)" d="M248.5,212c30.8,58.4,120.7,54.1,171.7,34.5c26.9-10.3,51.7-34.8,56-64.5
				c2.4-16.4-3.9-29.1-9.1-44c-6.5-18.6-9.6-38.3-17-56.6c-7.1-17.7-19.8-32.9-35.5-43.6c-20.4-14-55.6-17-79.6-14.3
				c-53,5.9-79.9,28-97,80.3C226.1,140,230.8,178.5,248.5,212z"/>
		</g>
		<circle fill="#B0B6BA" cx="331.9" cy="138.7" r="14.4"/>
		<circle fill="#636466" cx="332.5" cy="138.7" r="8.4"/>
		<circle fill="#B0B6BA" cx="432.1" cy="123.6" r="14.4"/>
		<circle fill="#636466" cx="432.1" cy="123.6" r="7.8"/>
		<path fill="#D8D9DA" d="M393.6,167.6c14.9-1.1,26.5,12.7,22.9,27.2c-2.7,11.1-8.5,21.6-20.8,24c-15.5,3.1-25.2-6.4-31.6-18.7
			c-7.2-13.9,2.5-30.6,18.1-31.8L393.6,167.6z"/>
		<g>
			<path fill="#9A9FA3" d="M331.2,104.2c0.6,1.1,0.8,2.4,0.9,3.6c-0.5,1-1,2-1.6,2.9c-1.3,1.8-2.9,3.4-4.7,4.7
				c-0.9,0.6-1.9,1.2-2.9,1.6c-0.5,0.2-1,0.5-1.5,0.6l-1.6,0.5c-0.5,0.2-1,0.3-1.6,0.4c-0.5,0.1-1,0.2-1.6,0.3
				c-1.1-0.5-2.2-1-3.2-1.7c1-0.9,1.9-1.5,2.7-2.2c0.4-0.1,0.9-0.1,1.3-0.2c0.4-0.1,0.9-0.1,1.3-0.3l1.3-0.4
				c0.4-0.1,0.8-0.3,1.2-0.5c0.8-0.3,1.5-0.8,2.3-1.2c1.4-1,2.7-2.2,3.6-3.6c0.5-0.7,0.9-1.5,1.3-2.3
				C329.3,105.7,330.1,105,331.2,104.2z"/>
		</g>
		<g>
			<path fill="#9A9FA3" d="M435.6,103c-1.1-0.7-2-1.2-3-1.6c-0.4-0.7-0.9-1.4-1.5-2.1c-1.1-1.3-2.5-2.4-4.1-3.1
				c-0.8-0.3-1.6-0.7-2.4-0.9c-0.4-0.1-0.8-0.3-1.3-0.3l-1.3-0.2c-0.4-0.1-0.9-0.1-1.3-0.1c-0.4,0-0.9,0-1.3-0.1
				c-0.9-0.6-1.9-1.1-2.9-1.9c0.9-0.8,1.9-1.5,3-2.1c0.5,0,1.1,0.1,1.6,0.1c0.5,0,1.1,0.1,1.6,0.2l1.6,0.3c0.5,0.1,1.1,0.3,1.6,0.4
				c1.1,0.3,2.1,0.8,3.1,1.2c2,1,3.8,2.4,5.2,4c0.8,0.8,1.4,1.7,2,2.7C436.2,100.5,436.1,101.7,435.6,103z"/>
		</g>
		<path fill="#6B6C6F" d="M373.4,189.7c0,0,5.9-10.2,20.5-9.1c5,0.4,8.3,2.2,10.4,4.5c3,3.2,2,10.6-1.3,11.5
			C392.3,199,369.7,203.2,373.4,189.7z"/>
		<path fill="#FFFFFF" d="M383,191.1c3.5,0.8,8.6,1.1,14.4-1c2.9-1,3.1-5.1,0.3-6.3c-1.8-0.8-4.3-1.4-7.7-1.1
			c-3.7,0.2-6.3,1.2-8.1,2.3C379.3,186.5,380.1,190.5,383,191.1z"/>
		<path fill="#636466" d="M415.5,121.3c-3.1-8.6-8.9-16-18.5-19.5c-10.9-3.9-24.2-1.5-33.2,5.3c-11.5,8.7-13.7,22.5-11.9,35
			c2,14.8,14.1,52.4,39.7,46.3c15.5-3.7,24-15,26.3-28.8C419.6,148.9,420,133.6,415.5,121.3z"/>
		<path fill="#FFFFFF" d="M374.4,114.6c0.5-0.3-1.3,0.9-1.9,1.3c-1.9,1.4-3.5,3.2-4.8,5.1c-5.3,7.6-5,17.3-2.8,25.9
			c0.8,3.2-4,5-4.8,1.8c-3.5-13.8-1.8-31.8,12.6-38.9C375.5,108.3,377.3,113.2,374.4,114.6L374.4,114.6z"/>
		<path fill="#B4BABE" d="M248.5,212c0,0-91.4,93.5-30.6,148.5c52.2,47.1,149.2-11.2,149.8-69.2c0.2-21-1.7-41.9-20-52.2
			c-16.4-9.3-36-15.8-45.3-1.7l-7.4,13.8C295.1,251.1,266.2,239.9,248.5,212z"/>
		<g>
			<path fill="#878C90" d="M295.2,251.2c-0.1,2.2,0.1,4.2,0.8,6c0.6,1.8,1.4,3.5,2.4,5c2.1,3,4.8,5.7,7.9,8.2
				c0.7,0.6,1.6,1.2,2.4,1.8c0.8,0.6,1.5,1.2,2.4,1.8c0.8,0.6,1.7,1.1,2.5,1.7l1.2,0.9l1.3,0.8c0.9,0.6,1.8,1.1,2.6,1.7
				c0.9,0.6,1.7,1.2,2.6,1.8c1.8,1.2,3.6,2.4,5.3,3.9l-0.1,0.4l-6-2.3c-1-0.4-2-0.8-2.9-1.3l-2.9-1.4l-1.5-0.7l-1.4-0.8l-2.8-1.6
				c-1-0.5-1.8-1.2-2.7-1.8c-0.9-0.6-1.8-1.2-2.6-1.9c-3.3-2.7-6.3-6-8.2-9.9c-1.9-3.9-2.5-8.6-0.7-12.6L295.2,251.2z"/>
		</g>
	</g>
	<g>
		<path fill="#878C90" d="M336.6,349.6c5.5-4.8,10.1-10.2,14.2-15.8c2-2.9,3.9-5.7,5.5-8.8c1.7-3,3.2-6.1,4.4-9.3
			c1.3-3.2,2.4-6.4,3.3-9.8c0.3-0.8,0.5-1.7,0.7-2.5c0.2-0.8,0.4-1.7,0.6-2.5c0.2-0.9,0.3-1.7,0.5-2.6c0.2-0.9,0.3-1.7,0.5-2.6
			c1.2-6.9,1.7-14,2.2-21.4l0.4-0.1c1,7.2,1.2,14.5,0.5,21.7c-0.6,7.2-2.3,14.4-4.9,21.2c-2.7,6.8-6.5,13.1-11.1,18.7
			c-4.7,5.6-10.1,10.5-16.4,14.2L336.6,349.6z"/>
	</g>
	<g>
		<path fill="#878C90" d="M248,213c3.5,3.5,6.9,6.8,10.3,10c3.4,3.2,6.8,6.3,10.3,9.2c3.5,2.9,7.1,5.8,10.9,8.5
			c1.9,1.4,3.8,2.7,5.7,4.1c0.9,0.8,2,1.4,2.9,2.1c1,0.7,2,1.4,3,2.2l-0.1,0.4l-3.4-1.3c-1.1-0.4-2.3-0.8-3.3-1.4l-3.2-1.6
			c-1.1-0.5-2.1-1.2-3.2-1.7c-2.1-1.1-4.1-2.5-6.1-3.8c-1-0.7-1.9-1.4-2.9-2.1l-1.4-1.1l-1.4-1.2c-3.7-3.1-7.1-6.5-10.2-10.2
			c-1.6-1.8-3-3.7-4.4-5.7c-1.4-2-2.7-4-3.8-6.2L248,213z"/>
	</g>
	<g>
		<path fill="#878C90" d="M248,271.5c3.1-2.9,6.5-5.2,10-7.3c1.8-1.1,3.6-2,5.5-2.9c1.9-0.9,3.8-1.7,5.7-2.4c1.9-0.7,3.9-1.4,5.8-2
			c2-0.5,4-1.1,6-1.5c4-0.9,8.1-1.4,12.3-1.4l0.1,0.3c-7.9,2-15.6,4.5-23.1,7.4c-7.6,2.9-15,6.3-22.1,10.1L248,271.5z"/>
	</g>
	<g>
		<path fill="#878C90" d="M303.6,233.9c1.7-2.6,4.4-4.6,7.4-5.9c1.5-0.6,3.1-1.1,4.7-1.5c1.6-0.3,3.2-0.5,4.8-0.6
			c1.6-0.1,3.3,0,4.9,0.2c1.6,0.2,3.2,0.5,4.7,0.8c3.1,0.8,6.2,1.9,9,3.3c2.8,1.5,5.5,3.1,8,5c2.5,1.9,4.8,3.8,7,5.9
			c2.3,2.1,4.4,4.4,6.2,7.2c0.8,1.4,1.5,2.9,1.9,4.5c0.4,1.6,0.5,3.3,0.1,4.8l-0.4,0c-0.1-3-1.5-5.7-3.3-8c-1.8-2.3-4.1-4.2-6.4-6.1
			c-4.7-3.7-9.5-7.2-14.8-9.8c-5.3-2.7-11.1-4.4-17-4.7c-2.9-0.1-5.9,0.1-8.8,0.9c-2.8,0.8-5.5,2.2-7.7,4.1L303.6,233.9z"/>
	</g>
</g>
<g>
</g>
<g>
</g>
<g>
</g>
<g>
</g>
<g>
</g>
<g>
</g>
<g>
</g>
<g>
</g>
<g>
</g>
<g>
</g>
<g>
</g>
<g>
</g>
<g>
</g>
<g>
</g>
<g>
</g>
</svg>
