<?xml version="1.0" encoding="utf-8"?>
<!-- Generator: Adobe Illustrator 18.0.0, SVG Export Plug-In . SVG Version: 6.00 Build 0)  -->
<!DOCTYPE svg PUBLIC "-//W3C//DTD SVG 1.1//EN" "http://www.w3.org/Graphics/SVG/1.1/DTD/svg11.dtd">
<svg version="1.1" id="Layer_1" xmlns="http://www.w3.org/2000/svg" xmlns:xlink="http://www.w3.org/1999/xlink" x="0px" y="0px"
	 viewBox="0 0 2516.5 1229" enable-background="new 0 0 2516.5 1229" xml:space="preserve">
<rect x="127.6" y="136.8" fill="#F8A79E" width="175.2" height="1089.2"/>
<path fill="#F69696" d="M227.8,160.4c-7.4,69.7-8.9,139.9-8.2,210c0.7,70.6,3.5,141.1,4.8,211.7c1.2,70,0.9,140.2-4.8,210.1
	c-5.5,68-18.7,134.8-27.7,202.3c-8.7,65.1-12.8,132.4,3.7,196.7c2.1,8.1,4.5,16.1,7.2,24.1c-0.2-0.6,4.2-5.2,4.7-5.8
	c0.6-0.7,4.9-5,4.6-5.9c-21.4-62.9-21.2-130-14-195.4c7.4-67.7,21.6-134.4,28.4-202.1c7-69.7,8.3-139.9,7.5-209.9
	c-0.8-70.3-3.7-140.5-4.8-210.7c-1.2-70.1-0.6-140.3,5.4-210.2c0.8-8.9,1.6-17.7,2.5-26.6c-0.2,1.4-3.8,4.6-4.7,5.8
	C231.3,155.8,228,158.7,227.8,160.4L227.8,160.4z"/>
<path fill="#F69696" d="M271.3,160.4c-7.4,69.7-8.9,139.9-8.2,210c0.7,70.6,3.5,141.1,4.8,211.7c1.2,70,0.9,140.2-4.8,210.1
	c-5.5,68-18.7,134.8-27.7,202.3c-8.7,65.1-12.8,132.4,3.7,196.7c2.1,8.1,4.5,16.1,7.2,24.1c-0.2-0.6,4.2-5.2,4.7-5.8
	c0.6-0.7,4.9-5,4.6-5.9c-21.4-62.9-21.2-130-14-195.4c7.4-67.7,21.6-134.4,28.4-202.1c7-69.7,8.3-139.9,7.5-209.9
	c-0.8-70.3-3.7-140.5-4.8-210.7c-1.2-70.1-0.6-140.3,5.4-210.2c0.8-8.9,1.6-17.7,2.5-26.6c-0.2,1.4-3.8,4.6-4.7,5.8
	C274.8,155.8,271.4,158.7,271.3,160.4L271.3,160.4z"/>
<path fill="#F69696" d="M192.7,160.4c-7.4,69.7-8.9,139.9-8.2,210c0.7,70.6,3.5,141.1,4.8,211.7c1.2,70,0.9,140.2-4.8,210.1
	c-5.5,68-18.7,134.8-27.7,202.3c-8.7,65.1-12.8,132.4,3.7,196.7c2.1,8.1,4.5,16.1,7.2,24.1c-0.2-0.6,4.2-5.2,4.7-5.8
	c0.6-0.7,4.9-5,4.6-5.9c-21.4-62.9-21.2-130-14-195.4c7.4-67.7,21.6-134.4,28.4-202.1c7-69.7,8.3-139.9,7.5-209.9
	c-0.8-70.3-3.7-140.5-4.8-210.7c-1.2-70.1-0.6-140.3,5.4-210.2c0.8-8.9,1.6-17.7,2.5-26.6c-0.2,1.4-3.8,4.6-4.7,5.8
	C196.2,155.8,192.8,158.7,192.7,160.4L192.7,160.4z"/>
<path fill="#F69696" d="M149.4,345.5c0.9,23.9-3.8,47.3-6.2,71c-2.3,22.5-2.4,45.1-1.8,67.7c1.3,45.1,6,90.2,2.9,135.4
	c-1.7,25.2-6,50.1-14.4,73.9c1.6-4.6,5.5-8.5,7.2-13.2c30.5-86.4,5.6-178.9,12.5-267.9c2.1-26.7,8.1-53.1,7-80
	c0.1,1.5-2.9,5.2-3.6,6.6C152.1,340.4,149.4,343.7,149.4,345.5L149.4,345.5z"/>
<path fill="#F69696" d="M168.9,451.9c9.9,91,4.7,183.8-15,273.2c-4.6,21-9.1,43.7-24.2,60c-0.7,0.7,0.7,6.4,0.8,7.5
	c0.1,1,1.7,6.7,1,7.4c13.6-14.6,18.4-34.4,22.8-53.4c5.2-22.8,9.5-45.9,12.8-69c6.6-46.3,9.4-93.2,8.3-140
	c-0.6-25.1-2.3-50.2-5-75.1c-0.4-3.5-0.8-7-1.3-10.5C168.7,449.7,168.5,449,168.9,451.9L168.9,451.9z"/>
<path fill="#74592E" d="M279.7,929c-10-44.2-2.5-91.3,20.7-130.2c-2.5,4.2-8,6.5-10.5,10.7c-23.2,38.9-30.6,86-20.7,130.2
	c-0.1-0.6,4.7-4.7,5.3-5.3C275.2,933.7,279.9,929.9,279.7,929L279.7,929z"/>
<rect x="1188.7" y="122.8" fill="#F8A79E" width="175.2" height="1089.2"/>
<path fill="#F69696" d="M1288.8,146.5c-7.4,69.7-8.9,139.9-8.2,210c0.7,70.6,3.5,141.1,4.8,211.7c1.2,70,0.9,140.2-4.8,210.1
	c-5.5,68-18.7,134.8-27.7,202.3c-8.7,65.1-12.8,132.4,3.7,196.7c2.1,8.1,4.5,16.1,7.2,24.1c-0.2-0.6,4.2-5.2,4.7-5.8
	c0.6-0.7,4.9-5,4.6-5.9c-21.4-62.9-21.2-130-14-195.4c7.4-67.7,21.6-134.4,28.4-202.1c7-69.7,8.3-139.9,7.5-209.9
	c-0.8-70.3-3.7-140.5-4.8-210.7c-1.2-70.1-0.6-140.3,5.4-210.2c0.8-8.9,1.6-17.7,2.5-26.6c-0.2,1.4-3.8,4.6-4.7,5.8
	C1292.4,141.9,1289,144.7,1288.8,146.5L1288.8,146.5z"/>
<path fill="#F69696" d="M1332.3,146.5c-7.4,69.7-8.9,139.9-8.2,210c0.7,70.6,3.5,141.1,4.8,211.7c1.2,70,0.9,140.2-4.8,210.1
	c-5.5,68-18.7,134.8-27.7,202.3c-8.7,65.1-12.8,132.4,3.7,196.7c2.1,8.1,4.5,16.1,7.2,24.1c-0.2-0.6,4.2-5.2,4.7-5.8
	c0.6-0.7,4.9-5,4.6-5.9c-21.4-62.9-21.2-130-14-195.4c7.4-67.7,21.6-134.4,28.4-202.1c7-69.7,8.3-139.9,7.5-209.9
	c-0.8-70.3-3.7-140.5-4.8-210.7c-1.2-70.1-0.6-140.3,5.4-210.2c0.8-8.9,1.6-17.7,2.5-26.6c-0.2,1.4-3.8,4.6-4.7,5.8
	C1335.9,141.9,1332.5,144.7,1332.3,146.5L1332.3,146.5z"/>
<path fill="#F69696" d="M1253.7,146.5c-7.4,69.7-8.9,139.9-8.2,210c0.7,70.6,3.5,141.1,4.8,211.7c1.2,70,0.9,140.2-4.8,210.1
	c-5.5,68-18.7,134.8-27.7,202.3c-8.7,65.1-12.8,132.4,3.7,196.7c2.1,8.1,4.5,16.1,7.2,24.1c-0.2-0.6,4.2-5.2,4.7-5.8
	c0.6-0.7,4.9-5,4.6-5.9c-21.4-62.9-21.2-130-14-195.4c7.4-67.7,21.6-134.4,28.4-202.1c7-69.7,8.3-139.9,7.5-209.9
	c-0.8-70.3-3.7-140.5-4.8-210.7c-1.2-70.1-0.6-140.3,5.4-210.2c0.8-8.9,1.6-17.7,2.5-26.6c-0.2,1.4-3.8,4.6-4.7,5.8
	C1257.3,141.9,1253.9,144.7,1253.7,146.5L1253.7,146.5z"/>
<path fill="#F69696" d="M1210.5,331.5c0.9,23.9-3.8,47.3-6.2,71c-2.3,22.5-2.4,45.1-1.8,67.7c1.3,45.1,6,90.2,2.9,135.4
	c-1.7,25.2-6,50.1-14.4,73.9c1.6-4.6,5.5-8.5,7.2-13.2c30.5-86.4,5.6-178.9,12.5-267.9c2.1-26.7,8.1-53.1,7-80
	c0.1,1.5-2.9,5.2-3.6,6.6C1213.2,326.5,1210.4,329.7,1210.5,331.5L1210.5,331.5z"/>
<path fill="#F69696" d="M1229.9,353.1c9.9,91,4.7,183.8-15,273.2c-4.6,21-9.1,43.7-24.2,60c-0.7,0.7,0.7,6.4,0.8,7.5
	c0.1,1,1.7,6.7,1,7.4c13.6-14.6,18.4-34.4,22.8-53.4c5.2-22.8,9.5-45.9,12.8-69c6.6-46.3,9.4-93.2,8.3-140
	c-0.6-25.1-2.3-50.2-5-75.1c-0.4-3.5-0.8-7-1.3-10.5C1229.7,351,1229.6,350.3,1229.9,353.1L1229.9,353.1z"/>
<path fill="#74592E" d="M1340.8,928.7c-10-44.2-2.5-91.3,20.7-130.2c-2.5,4.2-8,6.5-10.5,10.7c-23.2,38.9-30.6,86-20.7,130.2
	c-0.1-0.6,4.7-4.7,5.3-5.3C1336.2,933.4,1341,929.6,1340.8,928.7L1340.8,928.7z"/>
<rect x="2239.1" y="139.9" fill="#F8A79E" width="175.2" height="1089.2"/>
<path fill="#F69696" d="M2314.1,163.5c7.4,69.7,8.9,139.9,8.2,210c-0.7,70.6-3.5,141.1-4.8,211.7c-1.2,70-0.9,140.2,4.8,210.1
	c5.5,68,18.7,134.8,27.7,202.3c8.7,65.1,12.8,132.4-3.7,196.7c-2.1,8.1-4.5,16.1-7.2,24.1c0.2-0.6-4.2-5.2-4.7-5.8
	c-0.6-0.7-4.9-5-4.6-5.9c21.4-62.9,21.2-130,14-195.4c-7.4-67.7-21.6-134.4-28.4-202.1c-7-69.7-8.3-139.9-7.5-209.9
	c0.8-70.3,3.7-140.5,4.8-210.7c1.2-70.1,0.6-140.3-5.4-210.2c-0.8-8.9-1.6-17.7-2.5-26.6c0.2,1.4,3.8,4.6,4.7,5.8
	C2310.5,158.9,2313.9,161.7,2314.1,163.5L2314.1,163.5z"/>
<path fill="#F69696" d="M2270.6,163.5c7.4,69.7,8.9,139.9,8.2,210c-0.7,70.6-3.5,141.1-4.8,211.7c-1.2,70-0.9,140.2,4.8,210.1
	c5.5,68,18.7,134.8,27.7,202.3c8.7,65.1,12.8,132.4-3.7,196.7c-2.1,8.1-4.5,16.1-7.2,24.1c0.2-0.6-4.2-5.2-4.7-5.8
	c-0.6-0.7-4.9-5-4.6-5.9c21.4-62.9,21.2-130,14-195.4c-7.4-67.7-21.6-134.4-28.4-202.1c-7-69.7-8.3-139.9-7.5-209.9
	c0.8-70.3,3.7-140.5,4.8-210.7c1.2-70.1,0.6-140.3-5.4-210.2c-0.8-8.9-1.6-17.7-2.5-26.6c0.2,1.4,3.8,4.6,4.7,5.8
	C2267,158.9,2270.4,161.7,2270.6,163.5L2270.6,163.5z"/>
<path fill="#F69696" d="M2349.2,163.5c7.4,69.7,8.9,139.9,8.2,210c-0.7,70.6-3.5,141.1-4.8,211.7c-1.2,70-0.9,140.2,4.8,210.1
	c5.5,68,18.7,134.8,27.7,202.3c8.7,65.1,12.8,132.4-3.7,196.7c-2.1,8.1-4.5,16.1-7.2,24.1c0.2-0.6-4.2-5.2-4.7-5.8
	c-0.6-0.7-4.9-5-4.6-5.9c21.4-62.9,21.2-130,14-195.4c-7.4-67.7-21.6-134.4-28.4-202.1c-7-69.7-8.3-139.9-7.5-209.9
	c0.8-70.3,3.7-140.5,4.8-210.7c1.2-70.1,0.6-140.3-5.4-210.2c-0.8-8.9-1.6-17.7-2.5-26.6c0.2,1.4,3.8,4.6,4.7,5.8
	C2345.6,158.9,2349,161.7,2349.2,163.5L2349.2,163.5z"/>
<path fill="#F69696" d="M2392.4,310.7c-0.9,23.9,3.8,47.3,6.2,71c2.3,22.5,2.4,45.1,1.8,67.7c-1.3,45.1-6,90.2-2.9,135.4
	c1.7,25.2,6,50.1,14.4,73.9c-1.6-4.6-5.5-8.5-7.2-13.2c-30.5-86.4-5.6-178.9-12.5-267.9c-2.1-26.7-8.1-53.1-7-80
	c-0.1,1.5,2.9,5.2,3.6,6.6C2389.8,305.6,2392.5,308.8,2392.4,310.7L2392.4,310.7z"/>
<path fill="#F69696" d="M2373,353.4c-9.9,91-4.7,183.8,15,273.2c4.6,21,9.1,43.7,24.2,60c0.7,0.7-0.7,6.4-0.8,7.5
	c-0.1,1-1.7,6.7-1,7.4c-13.6-14.6-18.4-34.4-22.8-53.4c-5.2-22.8-9.5-45.9-12.8-69c-6.6-46.3-9.4-93.2-8.3-140
	c0.6-25.1,2.3-50.2,5-75.1c0.4-3.5,0.8-7,1.3-10.5C2373.2,351.3,2373.3,350.6,2373,353.4L2373,353.4z"/>
<path fill="#74592E" d="M2262.2,929c10-44.2,2.5-91.3-20.7-130.2c2.5,4.2,8,6.5,10.5,10.7c23.2,38.9,30.6,86,20.7,130.2
	c0.1-0.6-4.7-4.7-5.3-5.3C2266.7,933.7,2262,929.9,2262.2,929L2262.2,929z"/>
<path fill="#669585" d="M212.4,195.2c1.7-1.8,2.3-3.9,2.6-6.2c1.3-8.5,2.5-17,3.8-25.4c1-6.5,1.9-12.9,2.9-19.4
	c2.6,1,5.1,1.9,7.7,2.9c-2.2,15-4.4,29.9-6.7,44.9c-0.5,3.7-0.9,7.1,2,10.2c3.3,3.6,9,3.9,12.7,0.8c2.1-1.7,3-4.1,3.4-6.7
	c1.2-8,2.4-15.9,3.5-23.9c0.9-6.1,1.8-12.1,2.7-18.2c2.2,0.9,4.3,1.8,6.5,2.8c-2.5,16.4-5,32.9-7.5,49.3c-0.6,3.7-1.5,7.5,0.7,10.8
	c4.6,7.2,15.6,4.6,17-3.7c1.5-9,2.7-18,4.1-27c1.1-7.2,2.2-14.4,3.3-21.6c2.8,1.3,5.6,2.7,8.3,4c-2.2,16.7-4.4,33.4-6.7,50.1
	c-0.5,3.5-1.2,6.7,0.9,10c3,4.6,9.5,5.6,13.7,2c2.1-1.8,3-4.2,3.3-6.9c1.2-8.7,2.3-17.5,3.5-26.3c0.9-6.7,1.8-13.4,2.7-20.1
	c4.5,2.4,9,4.9,13.5,7.5c-3.2,14.3-6.5,28.7-9.7,43c-0.8,3.4-1.7,6.8,0.3,10.1c4.3,7.3,15,5.2,17.1-2.6c2-7.4,3.4-14.9,5-22.3
	c1.4-6.1,2.7-12.1,4.1-18.2c2.1,1.3,4.3,2.7,6.4,4c-3,13.3-6.1,26.5-9.1,39.8c-0.7,3.2-1.6,6.3,0.1,9.4c4,7.6,15,6.1,17.3-2
	c1.8-6.6,3-13.4,4.6-20c1.2-5.4,2.5-10.8,3.7-16.2c2.7,1.9,5.5,3.9,8.2,5.9c-3.8,11.8-7.5,23.6-11.3,35.5c-1,3.1-1.8,6.1-0.2,9.2
	c3.8,7.6,14.5,6.3,17.2-1.4c2-5.7,3.7-11.6,5.5-17.4c1.5-4.6,2.9-9.2,4.4-13.8c1.8,1.4,3.5,2.9,5.2,4.3c-2.2,9.8-4.5,19.5-6.7,29.3
	c-0.6,2.5-1.1,5-0.2,7.5c2.3,6.3,10.6,8.1,15.3,3.3c1.9-1.9,2.4-4.3,3-6.8c0.7-3,1.4-6.1,2.1-9.1c0.8-3.4,1.5-6.7,2.3-10.1
	c2.2,2.1,4.3,4.1,6.5,6.3c-0.5,7.5-0.9,15.1-1.4,22.6c-0.1,1.2-0.2,2.3-0.1,3.5c0.4,4.7,4.4,8.5,9.1,8.5c4.8,0,8.7-3.6,9.3-8.3
	c0.2-1.4,0.2-2.8,0.3-4.3c0.1-1.1,0.1-2.1,0.2-3.2c2.1,2.5,4.1,5,6.1,7.6c0.3,0.4,0.6,0.8,0.9,1.3c0.1,0.1,0.4,0.5,0.5,0.7
	c0.3,0.4,0.6,0.8,0.8,1.2c1.1,1.6,2.1,3,3.8,4c7.3,4.2,16.2-3.3,13.3-11.2c-1-2.7-3.2-5.2-4.9-7.5c-2.7-3.7-5.6-7.2-8.5-10.7
	c0.9-0.1,1.8-0.1,2.7-0.2c5.1-0.3,11,0.1,14.1-4.8c2.5-4.1,1.4-9.7-2.6-12.5c-2-1.4-4.2-1.8-6.6-1.6c-4.5,0.3-9,0.6-13.6,0.9
	c-3.5,0.2-6.9,0.4-10.4,0.7c-1.9-1.8-3.7-3.6-5.6-5.4c2.2-0.5,4.5-1,6.7-1.5c3.2-0.7,6.4-1.4,9.6-2.1c1.9-0.4,3.9-0.7,5.7-1.5
	c6.4-3,7-12.1,1.2-16.1c-2.8-1.9-5.8-1.7-8.8-1c-6,1.3-11.9,2.7-17.9,4c-4.5,1-9,2-13.5,3c-1.4-1.1-2.7-2.3-4.1-3.4
	c9.3-3.4,18.6-6.8,28-10.3c2.6-1,4.7-2.5,5.9-5.1c1.6-3.6,0.8-7.8-2.1-10.5c-3.1-2.9-7-2.9-10.7-1.6c-7.1,2.6-14.2,5.2-21.2,7.8
	c-5.7,2.1-11.3,4.2-17,6.3c-2.4-1.8-4.9-3.6-7.4-5.4c12.3-5.2,24.7-10.3,36.9-15.7c6.5-2.8,8.1-11.7,2.2-16.1
	c-3.9-2.9-8-1.6-11.9,0.1c-8.6,3.6-17.2,7.3-25.8,10.9c-6.6,2.8-13.1,5.6-19.7,8.4c-1.8-1.2-3.6-2.3-5.4-3.4
	c12.4-6.7,24.8-13.4,37.3-20.2c1.6-0.9,3-1.8,4.1-3.3c2.9-4.1,2-10-2.2-12.9c-4.1-2.9-8.2-1.4-12.1,0.7c-8.5,4.6-17,9.2-25.5,13.8
	c-6.7,3.6-13.4,7.2-20,10.8c-4.3-2.5-8.7-4.9-13.1-7.3c13.6-8.6,27.2-17.2,40.8-25.8c1.1-0.7,2.3-1.4,3.2-2.2
	c4.1-4.1,3.5-10.9-1.2-14.2c-4.5-3.1-8.8-1.2-12.7,1.3c-9.1,5.8-18.3,11.6-27.4,17.4c-7.3,4.6-14.5,9.2-21.8,13.8
	c-2.8-1.4-5.6-2.7-8.4-4.1c12.8-11.4,25.6-22.9,38.4-34.3c0.5-0.5,1.1-1,1.6-1.5c4.1-4,4-10.7-0.7-14.3c-3.7-2.8-8.5-2.2-11.9,0.6
	c-0.7,0.6-1.3,1.2-2,1.8c-8.2,7.4-16.5,14.7-24.7,22.1c-6.4,5.7-12.8,11.4-19.2,17.2c-2.5-1.1-5-2.2-7.6-3.3
	c10.7-13.8,21.4-27.6,32.1-41.3c0.7-0.9,1.5-1.9,2.2-2.8c2.7-3.8,2.3-9.2-1.3-12.3c-0.1-0.1-0.2-0.2-0.3-0.3
	c-0.2-0.2-0.4-0.3-0.6-0.5c-4.4-3-9.8-1.6-13,2.4c-0.5,0.7-1.1,1.4-1.6,2.1c-2.9,3.8-5.8,7.5-8.8,11.3c-7.7,10-15.5,19.9-23.2,29.9
	c-1.1,1.4-2.2,2.9-3.4,4.3c-2.9-1.1-5.9-2.3-8.8-3.4c6.7-11.9,13.4-23.9,20.2-35.8c0.3-0.5,0.6-1,0.8-1.4c2.1-4.1,1.4-9.1-2.4-12
	c-5-3.8-11.3-1.5-14.2,3.6c-4.1,7.3-8.2,14.6-12.3,21.9c-3.3,5.8-6.6,11.7-9.9,17.5c-4.4-1.5-8.7-3-13.1-4.4
	c-5-1.6-10.5,0.4-12.3,5.7c-1.7,5.1,1.3,10,6.1,11.8c4.4,1.6,8.9,3,13.3,4.4c-2.4,15.7-4.7,31.4-7.1,47c-0.6,3.9-0.9,7.6,2.4,10.7
	C203,198.9,209,198.9,212.4,195.2z"/>
<path fill="#669585" d="M1234.5,254.7c-1.7-2.3-2-4.9-2-7.7c-0.1-10-0.2-20.1-0.2-30.1c-0.1-7.7-0.1-15.3-0.2-23
	c-3.1,0.7-6.2,1.4-9.4,2.1c0.1,17.7,0.2,35.4,0.3,53.1c0,4.3-0.2,8.4-4,11.5c-4.4,3.6-11,3-14.9-1.2c-2.2-2.4-2.8-5.2-2.8-8.3
	c-0.1-9.4-0.1-18.8-0.2-28.2c0-7.2-0.1-14.4-0.1-21.6c-2.7,0.7-5.3,1.4-8,2.1c0.2,19.5,0.4,38.9,0.6,58.4c0,4.4,0.5,8.9-2.5,12.5
	c-6.5,7.6-18.9,2.7-19.1-7c-0.2-10.6-0.2-21.3-0.3-31.9c-0.1-8.5-0.2-17-0.3-25.6c-3.4,1.1-6.9,2.2-10.3,3.3
	c-0.2,19.7-0.3,39.5-0.5,59.2c0,4.1,0.3,8-2.7,11.4c-4.3,4.8-11.9,4.9-16.3,0.1c-2.2-2.4-2.8-5.3-2.7-8.5c0-10.3,0.2-20.7,0.3-31
	c0.1-7.9,0.1-15.8,0.2-23.7c-5.7,2.1-11.3,4.2-16.9,6.4c1.4,17.2,2.8,34.3,4.2,51.5c0.3,4.1,0.8,8.2-2,11.7
	c-6.2,7.7-18.2,3.6-19.3-5.9c-1.1-8.9-1.5-17.8-2.2-26.7c-0.6-7.2-1.2-14.5-1.8-21.7c-2.7,1.2-5.4,2.4-8,3.6
	c1.3,15.9,2.7,31.8,4,47.6c0.3,3.8,0.8,7.6-1.6,10.9c-5.8,8.1-18.4,4.6-19.7-5.1c-1.1-7.9-1.3-16-2-23.9c-0.5-6.4-1.1-12.9-1.6-19.3
	c-3.5,1.8-7,3.6-10.5,5.5c2.4,14.3,4.9,28.6,7.3,42.9c0.6,3.7,1.1,7.3-1.3,10.7c-5.6,8.2-17.8,4.9-19.7-4.5
	c-1.4-7-2.4-14.1-3.6-21.1c-0.9-5.6-1.9-11.1-2.8-16.7c-2.3,1.4-4.5,2.7-6.8,4.1c1,11.7,2,23.3,2.9,35c0.3,3,0.5,5.9-1.1,8.8
	c-3.7,6.9-13.6,7.6-18.3,1.3c-1.9-2.5-2.1-5.4-2.3-8.3c-0.3-3.6-0.6-7.3-0.9-10.9c-0.3-4-0.7-8-1-12.1c-2.9,2-5.7,4.1-8.5,6.2
	c-0.7,8.8-1.4,17.6-2.1,26.4c-0.1,1.4-0.2,2.7-0.5,4.1c-1.2,5.4-6.5,9.2-12,8.4c-5.6-0.8-9.5-5.6-9.4-11.2c0-1.7,0.2-3.3,0.4-5
	c0.1-1.2,0.2-2.5,0.3-3.7c-2.8,2.5-5.6,5.1-8.3,7.8c-0.4,0.4-0.9,0.9-1.3,1.3c-0.1,0.1-0.5,0.5-0.7,0.7c-0.4,0.4-0.8,0.8-1.2,1.2
	c-1.5,1.6-3,3.2-5.1,4c-9.2,3.7-18.2-6.5-13.6-15.2c1.6-3,4.5-5.5,6.9-7.9c3.7-3.8,7.6-7.4,11.6-11c-1-0.2-2.1-0.4-3.1-0.6
	c-5.8-1.2-12.8-1.7-15.5-7.9c-2.3-5.2,0-11.5,5-14c2.6-1.3,5.2-1.4,7.9-0.8c5.2,1.1,10.4,2.2,15.6,3.2c4,0.8,8,1.7,12,2.5
	c2.4-1.8,4.9-3.6,7.4-5.4c-2.5-0.9-5-1.9-7.5-2.8c-3.6-1.4-7.2-2.7-10.8-4.1c-2.1-0.8-4.4-1.5-6.3-2.7c-6.9-4.6-6.1-15.2,1.3-18.8
	c3.5-1.7,7-1,10.4,0.3c6.7,2.5,13.4,5,20.1,7.6c5.1,1.9,10.1,3.8,15.2,5.7c1.8-1.1,3.5-2.2,5.3-3.3c-10.2-5.5-20.5-11-30.7-16.5
	c-2.9-1.6-5-3.7-5.9-6.9c-1.3-4.4,0.4-9.2,4.1-11.9c4-2.9,8.6-2.2,12.7,0c7.8,4.2,15.5,8.4,23.3,12.6c6.2,3.4,12.5,6.7,18.7,10.1
	c3.1-1.7,6.3-3.4,9.5-5c-13.4-8-26.9-16-40.2-24.2c-7.1-4.4-7.5-14.9,0.1-19c5-2.8,9.5-0.5,13.8,2c9.4,5.6,18.7,11.3,28.1,16.9
	c7.2,4.3,14.3,8.6,21.5,12.9c2.3-1,4.5-2.1,6.8-3.1c-13.3-9.8-26.6-19.7-39.9-29.5c-1.7-1.2-3.2-2.6-4.2-4.5
	c-2.7-5.3-0.6-11.9,4.7-14.6c5.3-2.7,9.8-0.3,14,2.8c9.1,6.7,18.2,13.4,27.2,20.2c7.1,5.3,14.3,10.6,21.4,15.9
	c5.4-2.2,10.9-4.3,16.4-6.3c-14.3-12.2-28.7-24.4-43-36.6c-1.1-1-2.4-1.9-3.3-3.1c-4-5.4-2.3-13.2,3.7-16.3
	c5.7-2.9,10.4,0.1,14.5,3.6c9.6,8.2,19.3,16.4,28.9,24.6c7.6,6.5,15.3,13,22.9,19.6c3.5-1.1,6.9-2.2,10.4-3.3
	c-12.9-15.4-25.9-30.7-38.8-46.1c-0.6-0.7-1.1-1.3-1.7-2c-4.1-5.3-2.8-13.1,3.2-16.4c4.7-2.6,10.2-1.2,13.7,2.7
	c0.7,0.8,1.4,1.6,2,2.4c8.3,9.9,16.7,19.8,25,29.7c6.5,7.7,12.9,15.4,19.4,23c3.1-0.9,6.2-1.7,9.3-2.5
	c-10.1-17.7-20.2-35.5-30.4-53.2c-0.7-1.2-1.4-2.4-2.1-3.6c-2.5-4.8-1.1-11.1,3.5-14.1c0.1-0.1,0.3-0.2,0.4-0.2
	c0.2-0.2,0.5-0.3,0.8-0.5c5.6-2.8,11.6-0.3,14.6,4.9c0.5,0.9,1,1.8,1.5,2.7c2.8,4.8,5.5,9.7,8.3,14.5c7.3,12.8,14.7,25.7,22,38.5
	c1.1,1.9,2.1,3.7,3.2,5.6c3.6-0.8,7.2-1.7,10.8-2.4c-5.8-14.9-11.7-29.9-17.5-44.8c-0.2-0.6-0.5-1.2-0.7-1.8
	c-1.8-5.2-0.2-10.8,4.7-13.6c6.4-3.6,13.4,0.1,15.8,6.5c3.6,9.1,7.1,18.2,10.7,27.4c2.9,7.3,5.7,14.6,8.6,21.9
	c5.3-1,10.6-2,15.9-2.9c6.1-1,12.1,2.2,13.3,8.6c1.1,6.2-3.1,11.4-9,12.7c-5.3,1.2-10.8,2-16.2,3c0.2,18.6,0.3,37.1,0.5,55.7
	c0,4.6-0.2,9-4.5,12C1244.8,260.6,1237.9,259.6,1234.5,254.7z"/>
<g>
	<path fill="#7BAA98" d="M252.5,64.4c-3.4,4.4-4.4,10.1-2.7,15.4l4.8,15l-15.7-1.1c-5.5-0.4-10.9,2-14.3,6.4l0,0
		c-17.4,22.2-13.4,54.5,8.7,71.8l35.7,27.9c12.8,10,28.9,12.9,43.6,9.4l0,0l49.4-5.5c15.3-1.7,26.2-15.7,24.2-30.9l-6.5-49.2l0,0
		c-0.1-15.1-6.8-30.1-19.5-40l-35.7-27.9C302.2,38.3,269.8,42.2,252.5,64.4z"/>
	<path fill="#AFD0A1" d="M324.2,88c-14.7,6.5-28.5,14.3-41.6,23.6c-5.3-4-10.5-8-15.7-12c-3.9-3-8.8,6.4-5.7,8.9
		c2.6,2,5.2,4,7.7,5.9c-0.6,0.9-1.1,1.8-1.3,2.3c-4.1,10-7.3,20.2-9.6,30.7c-0.4,2,0.2,3.5,2.2,3c2.1-0.5,3.3-4.8,3.7-6.5
		c2-8.7,4.7-17.2,8.1-25.5c0.1-0.3,0.3-0.8,0.5-1.4c6.5,5,13,9.9,19.6,14.7c0,0.1-0.1,0.3-0.1,0.4c-2.9,14-5.3,28.1-7.2,42.3
		c-0.3,2.3,1,4,3.2,3.5c2.4-0.5,3.7-4.3,3.9-6.4c1.6-11.9,3.6-23.8,6-35.6c6,4.3,12,8.6,18.1,12.9c-0.3,0.5-0.5,1.1-0.6,1.7
		c-2.2,10.9-3.7,21.9-4.5,33.1c-0.2,2.1,1,4.2,3.3,3.5c2.4-0.7,3.8-4.2,4-6.3c0.7-9.4,2-18.6,3.7-27.8c5.6,3.9,11.2,7.7,16.8,11.5
		c3.4,2.3,8-7.4,4.2-9.9c-8.3-5.6-16.6-11.2-24.8-17c9.3-4.4,18.5-8.8,27.8-13.2c4.5-2.1,4-12-2-9.2c-11.4,5.4-22.9,10.9-34.3,16.3
		c-6.7-4.8-13.4-9.7-20-14.6c10.8-7.3,22.2-13.7,34.2-18.9C328.2,96.2,329.6,85.7,324.2,88z"/>
</g>
<g>
	<path fill="#AFD0A1" d="M214.6,6.6c-5.1,2-8.9,6.5-10.1,11.9L201,34l-13-8.9c-4.6-3.1-10.4-3.8-15.5-1.7l0,0
		c-26.2,10.4-39.1,40.3-28.7,66.4l16.7,42.1c6,15.1,18.4,25.7,32.9,30l0,0l45.4,20.1c14.1,6.3,30.6-0.3,36.5-14.5l19.2-45.8l0,0
		c7.5-13.1,9.3-29.4,3.3-44.4L281,35.3C270.6,9.2,240.7-3.7,214.6,6.6z"/>
	<path fill="#7BAA98" d="M264.6,63.2c-15.9-1.8-31.8-2.1-47.8-0.6c-2.5-6.1-5-12.2-7.5-18.3c-1.8-4.6-10.9,1.1-9.4,4.9
		c1.2,3,2.5,6,3.7,9c-0.9,0.4-1.8,1-2.2,1.3c-8.6,6.6-16.5,13.8-23.8,21.7c-1.4,1.5-1.6,3.1,0.4,3.7c2.1,0.7,5.3-2.5,6.4-3.7
		c6.1-6.5,12.7-12.5,19.8-17.9c0.3-0.2,0.7-0.5,1.1-0.9c3.1,7.6,6.3,15.1,9.5,22.6c-0.1,0.1-0.2,0.2-0.3,0.3
		c-9.6,10.6-18.8,21.6-27.6,32.9c-1.4,1.8-1.1,3.9,1,4.6c2.4,0.8,5.4-1.9,6.6-3.5c7.4-9.5,15.1-18.7,23.1-27.7
		c3,6.8,6,13.5,9.1,20.2c-0.5,0.3-0.9,0.7-1.4,1.2c-7.4,8.3-14.2,17.1-20.6,26.3c-1.2,1.8-1.2,4.1,1.1,4.7c2.4,0.6,5.4-1.7,6.6-3.5
		c5.3-7.7,11.1-15.1,17.2-22.2c2.9,6.1,5.8,12.3,8.8,18.4c1.8,3.7,10.7-2.4,8.7-6.5c-4.4-9-8.6-18.1-12.8-27.2
		c10.2,0.9,20.4,1.8,30.7,2.6c5,0.4,9.5-8.3,2.9-8.9c-12.6-1.1-25.3-2.2-37.9-3.2c-3.4-7.5-6.7-15.1-9.9-22.7
		c13-0.8,26-0.6,39.1,0.9C263.9,72.4,270.4,63.9,264.6,63.2z"/>
</g>
<g>
	<path fill="#7BAA98" d="M173.8,68.1c-2.5-4.9-7.3-8.3-12.8-8.9l-15.7-1.9l7.6-13.8c2.7-4.9,2.7-10.7,0.2-15.6l0,0
		c-12.9-25-43.9-35-68.9-22.1L43.9,26.3C29.4,33.7,20.1,47.1,17.1,62l0,0L1.4,109c-4.9,14.6,3.2,30.4,17.9,34.9l47.4,14.7l0,0
		c13.8,6.2,30.1,6.4,44.5-1l40.3-20.7C176.7,124.1,186.6,93.1,173.8,68.1z"/>
	<path fill="#AFD0A1" d="M122.3,123.4c0.3-16-1-31.9-4-47.7c5.8-3.1,11.6-6.2,17.5-9.2c4.4-2.2-2.1-10.7-5.7-8.9
		c-2.9,1.5-5.8,3-8.6,4.5c-0.5-0.9-1.2-1.7-1.5-2.1C112.5,52.2,104.6,45,96,38.5c-1.6-1.2-3.2-1.3-3.7,0.7c-0.4,2.1,3,5,4.3,6
		c7.1,5.4,13.7,11.5,19.7,18c0.2,0.3,0.6,0.6,1,1c-7.2,3.8-14.4,7.7-21.6,11.7c-0.1-0.1-0.2-0.2-0.3-0.3C84,67.1,72.2,59,60.1,51.3
		c-1.9-1.2-4-0.8-4.5,1.5C55,55.2,58,58,59.7,59.1c10.2,6.4,20.1,13.3,29.8,20.4c-6.5,3.6-12.9,7.3-19.3,11
		c-0.4-0.4-0.8-0.9-1.3-1.2c-9-6.5-18.4-12.5-28.1-18c-1.9-1-4.2-0.8-4.6,1.6c-0.4,2.5,2.2,5.2,4.1,6.3c8.2,4.6,16.1,9.6,23.7,15
		c-5.8,3.5-11.7,6.9-17.5,10.5c-3.5,2.1,3.4,10.4,7.3,8c8.5-5.2,17.2-10.3,25.8-15.4c0.1,10.3,0.2,20.5,0.3,30.8
		c0.1,5,9.2,8.7,9.2,2c-0.1-12.7-0.3-25.3-0.4-38c7.2-4.1,14.4-8.1,21.6-12c2.1,12.9,3.1,25.9,2.9,39
		C113.1,123.6,122.2,129.2,122.3,123.4z"/>
</g>
<g>
	<path fill="#669585" d="M218,136.9c-6.6-2.5-14-1.5-19.8,2.6l-16.4,11.7l-4.7-19.6c-1.7-6.9-6.6-12.5-13.2-15l0,0
		c-33.6-12.6-71.5,4.6-84.1,38.2l-20.3,54.2c-7.3,19.4-4.6,40.1,5.3,56.6l0,0l25.6,58c7.9,18,29.1,25.9,46.9,17.6l57.4-26.8l0,0
		c18.4-5.9,34-19.8,41.3-39.1l20.3-54.2C268.8,187.4,251.7,149.6,218,136.9z"/>
	<path fill="#AFD0A1" d="M216.8,233.4c-13.5-15.4-28.3-29.3-44.7-41.6c2.8-7.9,5.7-15.8,8.6-23.7c2.2-5.9-11.2-8.3-13-3.5
		c-1.5,3.9-2.8,7.8-4.3,11.7c-1.3-0.4-2.6-0.6-3.2-0.7c-13.7-1.2-27.4-1.1-41.1,0.1c-2.6,0.2-4.2,1.6-2.9,3.8c1.4,2.4,7.1,2.2,9.3,2
		c11.4-1,22.8-0.9,34.1,0.1c0.4,0,1.1,0.1,1.9,0.1c-3.6,9.8-7,19.7-10.4,29.6c-0.2,0-0.4,0-0.6,0c-18.2,1.8-36.3,4.3-54.3,7.4
		c-2.9,0.5-4.4,2.7-3,5.3c1.6,2.8,6.7,2.8,9.2,2.4c15.1-2.6,30.4-4.7,45.6-6.3c-3,9-5.9,18-8.7,27c-0.7-0.1-1.5-0.2-2.3-0.1
		c-14.1,1.6-28.1,3.9-42,7.2c-2.7,0.6-4.7,2.8-3,5.4c1.7,2.7,6.5,3,9.2,2.4c11.7-2.7,23.4-4.7,35.3-6.2c-2.6,8.3-5.1,16.6-7.5,24.9
		c-1.5,5,12.1,6.9,13.7,1.3c3.6-12.3,7.3-24.5,11.2-36.7c8.9,9.6,17.8,19.2,26.7,28.8c4.3,4.7,16.2,0.3,10.4-6
		c-11-11.9-22-23.7-33-35.6c3.3-10,6.6-20,10.1-29.9c13,10.4,25.1,21.8,36.2,34.3C208.3,241.4,221.6,238.9,216.8,233.4z"/>
</g>
<g>
	<path fill="#7BAA98" d="M1338.1,71.7c-3.4,4.4-4.4,10.1-2.7,15.4l4.8,15l-15.7-1.1c-5.5-0.4-10.9,2-14.3,6.4l0,0
		c-17.4,22.2-13.4,54.5,8.7,71.8l35.7,27.9c12.8,10,28.9,12.9,43.6,9.4l0,0l49.4-5.5c15.3-1.7,26.2-15.7,24.2-30.9l-6.5-49.2l0,0
		c-0.1-15.1-6.8-30.1-19.5-40L1409.9,63C1387.8,45.7,1355.5,49.6,1338.1,71.7z"/>
	<path fill="#AFD0A1" d="M1409.9,95.4c-14.7,6.5-28.5,14.3-41.6,23.6c-5.3-4-10.5-8-15.7-12c-3.9-3-8.8,6.4-5.7,8.9
		c2.6,2,5.2,4,7.7,5.9c-0.6,0.9-1.1,1.8-1.3,2.3c-4.1,10-7.3,20.2-9.6,30.7c-0.4,2,0.2,3.5,2.2,3c2.1-0.5,3.3-4.8,3.7-6.5
		c2-8.7,4.7-17.2,8.1-25.5c0.1-0.3,0.3-0.8,0.5-1.4c6.5,5,13,9.9,19.6,14.7c0,0.1-0.1,0.3-0.1,0.4c-2.9,14-5.3,28.1-7.2,42.3
		c-0.3,2.3,1,4,3.2,3.5c2.4-0.5,3.7-4.3,3.9-6.4c1.6-11.9,3.6-23.8,6-35.6c6,4.3,12,8.6,18.1,12.9c-0.3,0.5-0.5,1.1-0.6,1.7
		c-2.2,10.9-3.7,21.9-4.5,33.1c-0.2,2.1,1,4.2,3.3,3.5c2.4-0.7,3.8-4.2,4-6.3c0.7-9.4,2-18.6,3.7-27.8c5.6,3.9,11.2,7.7,16.8,11.5
		c3.4,2.3,8-7.4,4.2-9.9c-8.3-5.6-16.6-11.2-24.8-17c9.3-4.4,18.5-8.8,27.8-13.2c4.5-2.1,4-12-2-9.2c-11.4,5.4-22.9,10.9-34.3,16.3
		c-6.7-4.8-13.4-9.7-20-14.6c10.8-7.3,22.2-13.7,34.2-18.9C1413.9,103.6,1415.2,93.1,1409.9,95.4z"/>
</g>
<g>
	<path fill="#AFD0A1" d="M1300.2,14c-5.1,2-8.9,6.5-10.1,11.9l-3.4,15.4l-13-8.9c-4.6-3.1-10.4-3.8-15.5-1.7l0,0
		c-26.2,10.4-39.1,40.3-28.7,66.4l16.7,42.1c6,15.1,18.4,25.7,32.9,30l0,0l45.4,20.1c14.1,6.3,30.6-0.3,36.5-14.5l19.2-45.8l0,0
		c7.5-13.1,9.3-29.4,3.3-44.4l-16.7-42.1C1356.3,16.5,1326.3,3.6,1300.2,14z"/>
	<path fill="#7BAA98" d="M1350.2,70.6c-15.9-1.8-31.8-2.1-47.8-0.6c-2.5-6.1-5-12.2-7.5-18.3c-1.8-4.6-10.9,1.1-9.4,4.9
		c1.2,3,2.5,6,3.7,9c-0.9,0.4-1.8,1-2.2,1.3c-8.6,6.6-16.5,13.8-23.8,21.7c-1.4,1.5-1.6,3.1,0.4,3.7c2.1,0.7,5.3-2.5,6.4-3.7
		c6.1-6.5,12.7-12.5,19.8-17.9c0.3-0.2,0.7-0.5,1.1-0.9c3.1,7.6,6.3,15.1,9.5,22.6c-0.1,0.1-0.2,0.2-0.3,0.3
		c-9.6,10.6-18.8,21.6-27.6,32.9c-1.4,1.8-1.1,3.9,1,4.6c2.4,0.8,5.4-1.9,6.6-3.5c7.4-9.5,15.1-18.7,23.1-27.7
		c3,6.8,6,13.5,9.1,20.2c-0.5,0.3-0.9,0.7-1.4,1.2c-7.4,8.3-14.2,17.1-20.6,26.3c-1.2,1.8-1.2,4.1,1.1,4.7c2.4,0.6,5.4-1.7,6.6-3.5
		c5.3-7.7,11.1-15.1,17.2-22.2c2.9,6.1,5.8,12.3,8.8,18.4c1.8,3.7,10.7-2.4,8.7-6.5c-4.4-9-8.6-18.1-12.8-27.2
		c10.2,0.9,20.4,1.8,30.7,2.6c5,0.4,9.5-8.3,2.9-8.9c-12.6-1.1-25.3-2.2-37.9-3.2c-3.4-7.5-6.7-15.1-9.9-22.7
		c13-0.8,26-0.6,39.1,0.9C1349.6,79.7,1356,71.3,1350.2,70.6z"/>
</g>
<g>
	<path fill="#7BAA98" d="M1259.4,75.5c-2.5-4.9-7.3-8.3-12.8-8.9l-15.7-1.9l7.6-13.8c2.7-4.9,2.7-10.7,0.2-15.6l0,0
		c-12.9-25-43.9-35-68.9-22.1l-40.3,20.7c-14.4,7.4-23.8,20.8-26.7,35.6l0,0l-15.7,47.1c-4.9,14.6,3.2,30.4,17.9,34.9l47.4,14.7l0,0
		c13.8,6.2,30.1,6.4,44.5-1l40.3-20.7C1262.3,131.5,1272.3,100.5,1259.4,75.5z"/>
	<path fill="#AFD0A1" d="M1207.9,130.7c0.3-16-1-31.9-4-47.7c5.8-3.1,11.6-6.2,17.5-9.2c4.4-2.2-2.1-10.7-5.7-8.9
		c-2.9,1.5-5.8,3-8.6,4.5c-0.5-0.9-1.2-1.7-1.5-2.1c-7.4-7.9-15.3-15.1-23.9-21.6c-1.6-1.2-3.2-1.3-3.7,0.7c-0.4,2.1,3,5,4.3,6
		c7.1,5.4,13.7,11.5,19.7,18c0.2,0.3,0.6,0.6,1,1c-7.2,3.8-14.4,7.7-21.6,11.7c-0.1-0.1-0.2-0.2-0.3-0.3
		c-11.5-8.5-23.3-16.6-35.4-24.3c-1.9-1.2-4-0.8-4.5,1.5c-0.6,2.4,2.4,5.1,4.1,6.2c10.2,6.4,20.1,13.3,29.8,20.4
		c-6.5,3.6-12.9,7.3-19.3,11c-0.4-0.4-0.8-0.9-1.3-1.2c-9-6.5-18.4-12.5-28.1-18c-1.9-1-4.2-0.8-4.6,1.6c-0.4,2.5,2.2,5.2,4.1,6.3
		c8.2,4.6,16.1,9.6,23.7,15c-5.8,3.5-11.7,6.9-17.5,10.5c-3.5,2.1,3.4,10.4,7.3,8c8.5-5.2,17.2-10.3,25.8-15.4
		c0.1,10.3,0.2,20.5,0.3,30.8c0.1,5,9.2,8.7,9.2,2c-0.1-12.7-0.3-25.3-0.4-38c7.2-4.1,14.4-8.1,21.6-12c2.1,12.9,3.1,25.9,2.9,39
		C1198.7,130.9,1207.8,136.5,1207.9,130.7z"/>
</g>
<g>
	<path fill="#669585" d="M1303.6,144.3c-6.6-2.5-14-1.5-19.8,2.6l-16.4,11.7l-4.7-19.6c-1.7-6.9-6.6-12.5-13.2-15l0,0
		c-33.6-12.6-71.5,4.6-84.1,38.2l-20.3,54.2c-7.3,19.4-4.6,40.1,5.3,56.6l0,0l25.6,58c7.9,18,29.1,25.9,46.9,17.6l57.4-26.8l0,0
		c18.4-5.9,34-19.8,41.3-39.1l20.3-54.2C1354.5,194.8,1337.3,156.9,1303.6,144.3z"/>
	<path fill="#AFD0A1" d="M1302.4,240.7c-13.5-15.4-28.3-29.3-44.7-41.6c2.8-7.9,5.7-15.8,8.6-23.7c2.2-5.9-11.2-8.3-13-3.5
		c-1.5,3.9-2.8,7.8-4.3,11.7c-1.3-0.4-2.6-0.6-3.2-0.7c-13.7-1.2-27.4-1.1-41.1,0.1c-2.6,0.2-4.2,1.6-2.9,3.8c1.4,2.4,7.1,2.2,9.3,2
		c11.4-1,22.8-0.9,34.1,0.1c0.4,0,1.1,0.1,1.9,0.1c-3.6,9.8-7,19.7-10.4,29.6c-0.2,0-0.4,0-0.6,0c-18.2,1.8-36.3,4.3-54.3,7.4
		c-2.9,0.5-4.4,2.7-3,5.3c1.6,2.8,6.7,2.8,9.2,2.4c15.1-2.6,30.4-4.7,45.6-6.3c-3,9-5.9,18-8.7,27c-0.7-0.1-1.5-0.2-2.3-0.1
		c-14.1,1.6-28.1,3.9-42,7.2c-2.7,0.6-4.7,2.8-3,5.4c1.7,2.7,6.5,3,9.2,2.4c11.7-2.7,23.4-4.7,35.3-6.2c-2.6,8.3-5.1,16.6-7.5,24.9
		c-1.5,5,12.1,6.9,13.7,1.3c3.6-12.3,7.3-24.5,11.2-36.7c8.9,9.6,17.8,19.2,26.7,28.8c4.3,4.7,16.2,0.3,10.4-6
		c-11-11.9-22-23.7-33-35.6c3.3-10,6.6-20,10.1-29.9c13,10.4,25.1,21.8,36.2,34.3C1293.9,248.8,1307.3,246.3,1302.4,240.7z"/>
</g>
<g>
	<path fill="#7BAA98" d="M2382.7,88.5c-3.4,4.4-4.4,10.1-2.7,15.4l4.8,15l-15.7-1.1c-5.5-0.4-10.9,2-14.3,6.4l0,0
		c-17.4,22.2-13.4,54.5,8.7,71.8l35.7,27.9c12.8,10,28.9,12.9,43.6,9.4l0,0l49.4-5.5c15.3-1.7,26.2-15.7,24.2-30.9l-6.5-49.2l0,0
		c-0.1-15.1-6.8-30.1-19.5-40l-35.7-27.9C2432.3,62.4,2400,66.3,2382.7,88.5z"/>
	<path fill="#AFD0A1" d="M2454.4,112.1c-14.7,6.5-28.5,14.3-41.6,23.6c-5.3-4-10.5-8-15.7-12c-3.9-3-8.8,6.4-5.7,8.9
		c2.6,2,5.2,4,7.7,5.9c-0.6,0.9-1.1,1.8-1.3,2.3c-4.1,10-7.3,20.2-9.6,30.7c-0.4,2,0.2,3.5,2.2,3c2.1-0.5,3.3-4.8,3.7-6.5
		c2-8.7,4.7-17.2,8.1-25.5c0.1-0.3,0.3-0.8,0.5-1.4c6.5,5,13,9.9,19.6,14.7c0,0.1-0.1,0.3-0.1,0.4c-2.9,14-5.3,28.1-7.2,42.3
		c-0.3,2.3,1,4,3.2,3.5c2.4-0.5,3.7-4.3,3.9-6.4c1.6-11.9,3.6-23.8,6-35.6c6,4.3,12,8.6,18.1,12.9c-0.3,0.5-0.5,1.1-0.6,1.7
		c-2.2,10.9-3.7,21.9-4.5,33.1c-0.2,2.1,1,4.2,3.3,3.5c2.4-0.7,3.8-4.2,4-6.3c0.7-9.4,2-18.6,3.7-27.8c5.6,3.9,11.2,7.7,16.8,11.5
		c3.4,2.3,8-7.4,4.2-9.9c-8.3-5.6-16.6-11.2-24.8-17c9.3-4.4,18.5-8.8,27.8-13.2c4.5-2.1,4-12-2-9.2c-11.4,5.4-22.9,10.9-34.3,16.3
		c-6.7-4.8-13.4-9.7-20-14.6c10.8-7.3,22.2-13.7,34.2-18.9C2458.4,120.3,2459.7,109.8,2454.4,112.1z"/>
</g>
<g>
	<path fill="#AFD0A1" d="M2344.7,30.8c-5.1,2-8.9,6.5-10.1,11.9l-3.4,15.4l-13-8.9c-4.6-3.1-10.4-3.8-15.5-1.7l0,0
		c-26.2,10.4-39.1,40.3-28.7,66.4l16.7,42.1c6,15.1,18.4,25.7,32.9,30l0,0l45.4,20.1c14.1,6.3,30.6-0.3,36.5-14.5l19.2-45.8l0,0
		c7.5-13.1,9.3-29.4,3.3-44.4l-16.7-42.1C2400.8,33.3,2370.9,20.4,2344.7,30.8z"/>
	<path fill="#7BAA98" d="M2394.8,87.4c-15.9-1.8-31.8-2.1-47.8-0.6c-2.5-6.1-5-12.2-7.5-18.3c-1.8-4.6-10.9,1.1-9.4,4.9
		c1.2,3,2.5,6,3.7,9c-0.9,0.4-1.8,1-2.2,1.3c-8.6,6.6-16.5,13.8-23.8,21.7c-1.4,1.5-1.6,3.1,0.4,3.7c2.1,0.7,5.3-2.5,6.4-3.7
		c6.1-6.5,12.7-12.5,19.8-17.9c0.3-0.2,0.7-0.5,1.1-0.9c3.1,7.6,6.3,15.1,9.5,22.6c-0.1,0.1-0.2,0.2-0.3,0.3
		c-9.6,10.6-18.8,21.6-27.6,32.9c-1.4,1.8-1.1,3.9,1,4.6c2.4,0.8,5.4-1.9,6.6-3.5c7.4-9.5,15.1-18.7,23.1-27.7
		c3,6.8,6,13.5,9.1,20.2c-0.5,0.3-0.9,0.7-1.4,1.2c-7.4,8.3-14.2,17.1-20.6,26.3c-1.2,1.8-1.2,4.1,1.1,4.7c2.4,0.6,5.4-1.7,6.6-3.5
		c5.3-7.7,11.1-15.1,17.2-22.2c2.9,6.1,5.8,12.3,8.8,18.4c1.8,3.7,10.7-2.4,8.7-6.5c-4.4-9-8.6-18.1-12.8-27.2
		c10.2,0.9,20.4,1.8,30.7,2.6c5,0.4,9.5-8.3,2.9-8.9c-12.6-1.1-25.3-2.2-37.9-3.2c-3.4-7.5-6.7-15.1-9.9-22.7
		c13-0.8,26-0.6,39.1,0.9C2394.1,96.5,2400.6,88,2394.8,87.4z"/>
</g>
<g>
	<path fill="#7BAA98" d="M2304,92.2c-2.5-4.9-7.3-8.3-12.8-8.9l-15.7-1.9l7.6-13.8c2.7-4.9,2.7-10.7,0.2-15.6l0,0
		c-12.9-25-43.9-35-68.9-22.1L2174,50.4c-14.4,7.4-23.8,20.8-26.7,35.6l0,0l-15.7,47.1c-4.9,14.6,3.2,30.4,17.9,34.9l47.4,14.7l0,0
		c13.8,6.2,30.1,6.4,44.5-1l40.3-20.7C2306.8,148.2,2316.8,117.2,2304,92.2z"/>
	<path fill="#AFD0A1" d="M2252.4,147.5c0.3-16-1-31.9-4-47.7c5.8-3.1,11.6-6.2,17.5-9.2c4.4-2.2-2.1-10.7-5.7-8.9
		c-2.9,1.5-5.8,3-8.6,4.5c-0.5-0.9-1.2-1.7-1.5-2.1c-7.4-7.9-15.3-15.1-23.9-21.6c-1.6-1.2-3.2-1.3-3.7,0.7c-0.4,2.1,3,5,4.3,6
		c7.1,5.4,13.7,11.5,19.7,18c0.2,0.3,0.6,0.6,1,1c-7.2,3.8-14.4,7.7-21.6,11.7c-0.1-0.1-0.2-0.2-0.3-0.3
		c-11.5-8.5-23.3-16.6-35.4-24.3c-1.9-1.2-4-0.8-4.5,1.5c-0.6,2.4,2.4,5.1,4.1,6.2c10.2,6.4,20.1,13.3,29.8,20.4
		c-6.5,3.6-12.9,7.3-19.3,11c-0.4-0.4-0.8-0.9-1.3-1.2c-9-6.5-18.4-12.5-28.1-18c-1.9-1-4.2-0.8-4.6,1.6c-0.4,2.5,2.2,5.2,4.1,6.3
		c8.2,4.6,16.1,9.6,23.7,15c-5.8,3.5-11.7,6.9-17.5,10.5c-3.5,2.1,3.4,10.4,7.3,8c8.5-5.2,17.2-10.3,25.8-15.4
		c0.1,10.3,0.2,20.5,0.3,30.8c0.1,5,9.2,8.7,9.2,2c-0.1-12.7-0.3-25.3-0.4-38c7.2-4.1,14.4-8.1,21.6-12c2.1,12.9,3.1,25.9,2.9,39
		C2243.3,147.7,2252.3,153.3,2252.4,147.5z"/>
</g>
<g>
	<path fill="#669585" d="M2348.2,161c-6.6-2.5-14-1.5-19.8,2.6l-16.4,11.7l-4.7-19.6c-1.7-6.9-6.6-12.5-13.2-15l0,0
		c-33.6-12.6-71.5,4.6-84.1,38.2l-20.3,54.2c-7.3,19.4-4.6,40.1,5.3,56.6l0,0l25.6,58c7.9,18,29.1,25.9,46.9,17.6l57.4-26.8l0,0
		c18.4-5.9,34-19.8,41.3-39.1l20.3-54.2C2399,211.5,2381.8,173.7,2348.2,161z"/>
	<path fill="#AFD0A1" d="M2346.9,257.5c-13.5-15.4-28.3-29.3-44.7-41.6c2.8-7.9,5.7-15.8,8.6-23.7c2.2-5.9-11.2-8.3-13-3.5
		c-1.5,3.9-2.8,7.8-4.3,11.7c-1.3-0.4-2.6-0.6-3.2-0.7c-13.7-1.2-27.4-1.1-41.1,0.1c-2.6,0.2-4.2,1.6-2.9,3.8c1.4,2.4,7.1,2.2,9.3,2
		c11.4-1,22.8-0.9,34.1,0.1c0.4,0,1.1,0.1,1.9,0.1c-3.6,9.8-7,19.7-10.4,29.6c-0.2,0-0.4,0-0.6,0c-18.2,1.8-36.3,4.3-54.3,7.4
		c-2.9,0.5-4.4,2.7-3,5.3c1.6,2.8,6.7,2.8,9.2,2.4c15.1-2.6,30.4-4.7,45.6-6.3c-3,9-5.9,18-8.7,27c-0.7-0.1-1.5-0.2-2.3-0.1
		c-14.1,1.6-28.1,3.9-42,7.2c-2.7,0.6-4.7,2.8-3,5.4c1.7,2.7,6.5,3,9.2,2.4c11.7-2.7,23.4-4.7,35.3-6.2c-2.6,8.3-5.1,16.6-7.5,24.9
		c-1.5,5,12.1,6.9,13.7,1.3c3.6-12.3,7.3-24.5,11.2-36.7c8.9,9.6,17.8,19.2,26.7,28.8c4.3,4.7,16.2,0.3,10.4-6
		c-11-11.9-22-23.7-33-35.6c3.3-10,6.6-20,10.1-29.9c13,10.4,25.1,21.8,36.2,34.3C2338.5,265.5,2351.8,263.1,2346.9,257.5z"/>
</g>
<g>
	<g>
		<path fill="none" stroke="#C9E1D4" stroke-miterlimit="10" d="M512.3,855.6"/>
	</g>
</g>
<g>
</g>
<g>
</g>
<g>
</g>
<g>
</g>
<g>
</g>
<g>
</g>
<g>
</g>
<g>
</g>
<g>
</g>
<g>
</g>
<g>
</g>
<g>
</g>
<g>
</g>
<g>
</g>
<g>
</g>
</svg>
