<?xml version="1.0" encoding="utf-8"?>
<!-- Generator: Adobe Illustrator 18.0.0, SVG Export Plug-In . SVG Version: 6.00 Build 0)  -->
<!DOCTYPE svg PUBLIC "-//W3C//DTD SVG 1.1//EN" "http://www.w3.org/Graphics/SVG/1.1/DTD/svg11.dtd">
<svg version="1.1" id="Layer_1" xmlns="http://www.w3.org/2000/svg" xmlns:xlink="http://www.w3.org/1999/xlink" x="0px" y="0px"
	 viewBox="0 0 1457.1 1006.9" enable-background="new 0 0 1457.1 1006.9" xml:space="preserve">
<path fill="#A7A9AC" d="M24.1,593.2C-3.4,547.4,7,489.5,46,455.7c-4.7-32.6,10.1-66.2,40.1-84.2c8.2-4.9,16.9-8.2,25.8-10.1
	c-1.2-34.7,16-68.9,47.9-88c29.3-17.5,64-18.1,92.7-4.6c9.5-20.9,25.2-39.3,46.4-52c55.4-33.2,127.1-15.1,160.3,40.2
	c2.8,4.7,5.2,9.5,7.3,14.3c40.1-20.6,89.8-6.8,113.3,32.4c0.8,1.4,1.6,2.8,2.4,4.3c0,0,0.1-0.1,0.1-0.1
	c34.7-20.8,79.7-9.5,100.5,25.2c9.5,15.8,12.3,33.7,9.2,50.5c9,7,17,15.7,23.2,26.1c26.5,44.3,12.1,101.7-32.2,128.2
	c-12.7,7.6-26.5,11.9-40.4,13c-0.3,16.1-5.3,31.8-14.3,45.2c1,1.5,2,3,2.9,4.5c26.9,44.9,12.3,103.1-32.6,130
	c-16.4,9.8-34.5,14.1-52.2,13.4c-8.5,21.6-24,40.7-45.5,53.5c-37.9,22.7-83.9,19.8-118.1-3.6c-8.4,11-19,20.7-31.6,28.2
	c-52.6,31.5-120.6,14.9-152.9-37c-55.7,21.6-120.5,0.6-152.2-52.3c-22.4-37.4-22.9-81.9-5.3-118.4C34.4,608.3,28.8,601.2,24.1,593.2
	z"/>
<g>
	<path fill="#F8CA32" d="M1282.8,792.6c0,0-152.1-150.1-350-57.8c-162.7,75.9-126.5,272.1-126.5,272.1s-99.9-238-239.3-248.7
		C427.6,747.4,226,945.6,226,945.6s112.5-153.4,37.7-326.3C208.6,491.9,0,448.4,0,448.4s351.1,0,302.5-295.4
		c0,0,290.2,293.7,383-153c0,0,143.1,440.1,416.6,62.6c0,0-137.7,361.6,355.1,219C1457.1,281.6,976.9,461,1282.8,792.6z"/>
	<path fill="#EDE8E0" d="M1244.1,457.1c0-43.9-28.7-81.2-68.4-93.9c-13.2-87.1-88.4-153.9-179.2-153.9c-20.3,0-39.7,3.4-57.9,9.5
		c-10.5-44-50.1-76.8-97.4-76.8c-54.1,0-98.2,43-100,96.7c-12.4-15.7-31.6-25.8-53.1-25.8c-9.1,0-17.7,1.8-25.7,5.1
		c-9.6-43.4-48.3-75.9-94.6-75.9c-43.6,0-80.4,28.7-92.6,68.3c-16.6-6-34.6-9.3-53.3-9.3c-86.2,0-156,69.9-156,156
		c0,2.9,0.1,5.8,0.3,8.7c-53.1,19.3-91.1,70.2-91.1,130c0,73.9,57.9,134.2,130.9,138.1c-4.1,10.9-6.3,22.7-6.3,35
		c0,55,44.6,99.7,99.7,99.7c14.4,0,28.1-3.1,40.5-8.6c40.6,53.2,104.7,87.6,176.8,87.6c49.5,0,95.2-16.2,132.2-43.6
		c14.8,35.9,50,61.1,91.2,61.1c29.1,0,55.3-12.6,73.3-32.7c22.5,12,48.1,18.9,75.4,18.9c86.2,0,156.5-68.3,159.7-153.7
		c34.6-23.7,57.3-63.6,57.3-108.7c0-16.7-3.1-32.7-8.8-47.4C1225.1,524.1,1244.1,492.8,1244.1,457.1z"/>
	<g>
		<path fill="#A7A9AC" d="M940.5,238.6c-0.8-3.5-1.6-6.9-2.7-10.3c-1-3.4-2.2-6.7-3.5-9.9c-2.6-6.4-5.8-12.5-9.5-18.2
			c-0.9-1.5-1.5-3-2.4-4.5c-0.8-1.5-1.7-2.9-2.7-4.3c-1.9-2.8-3.9-5.5-6-8.2c-4.3-5.2-9.1-10-14.3-14.3c-10.5-8.6-22.7-15-35.7-18.8
			c-6.5-1.9-13.2-3.1-19.9-3.5c-6.7-0.4-13.6-0.1-20.3,0.8c-13.4,1.8-26.5,6.3-37.9,13.4c-11.4,7.1-21.1,16.9-28.1,28.4
			c-3.5,5.8-6.4,11.9-8.6,18.3c-1.1,3.2-2.1,6.5-2.9,9.8c-0.4,1.6-0.8,3.3-1.1,5c-0.3,1.7-0.6,3.4-1.1,5
			c-3.6,13.3-5.1,27.3-5.7,41.5c-2.9-13.9-4.1-28.4-3-43c2.3-14.4,7.1-28.6,14.8-41.3c7.7-12.7,18.4-23.6,31-31.4
			c12.6-7.9,26.9-12.7,41.5-14.7c7.3-1,14.6-1.3,22.1-0.9c7.4,0.5,14.7,1.8,21.8,3.9c14.2,4.1,27.4,11.2,38.8,20.5
			c5.7,4.7,11,9.9,15.6,15.6c2.3,2.9,4.5,5.8,6.6,8.9c1,1.5,2,3.1,2.9,4.7c1,1.6,2,3.1,2.8,4.8c2.9,6.8,4.9,13.9,6.2,21.1
			c0.6,3.6,1,7.2,1.3,10.8C940.7,231.5,940.7,235.1,940.5,238.6z"/>
	</g>
	<g>
		<path fill="#A7A9AC" d="M1176.9,556.2c1.2-0.9,2.4-1.7,3.6-2.5l3.5-2.6l3.4-2.7l3.3-2.8c4.3-3.8,8.3-7.8,12-12
			c8.3-7.4,15.4-16.1,21.3-25.5c11.7-18.8,18.2-41.2,15-63c-1.5-10.9-4.9-21.5-10.1-31.2c-5.2-9.7-12.2-18.4-20.4-25.9
			c-8.2-7.4-17.6-13.5-27.7-18.2c-4.8-3-9.7-5.7-14.9-8.2c-2.6-1.2-5.2-2.5-7.9-3.5c-2.6-1.2-5.4-2.2-8.1-3.3
			c2.9,0.2,5.8,0.4,8.7,0.8c2.9,0.3,5.8,0.9,8.7,1.4c5.8,1.2,11.5,2.7,17.2,4.6c10.7,5.2,20.9,11.7,29.9,19.8
			c8.9,8.1,16.5,17.6,22.2,28.3c5.7,10.6,9.5,22.3,11.1,34.3c0.8,6,1.1,12,0.7,18.1c-0.4,6.1-1.3,12.1-2.8,17.9
			c-3,11.7-7.9,22.8-14.2,32.9c-6.3,10.2-14.1,19.4-22.9,27.4c-4.9,3.5-10,6.7-15.3,9.3l-4,1.9l-4.1,1.8l-4.1,1.5
			C1179.6,555.3,1178.3,555.7,1176.9,556.2z"/>
	</g>
	<g>
		<path fill="#A7A9AC" d="M884,824.8c14.8,6.1,29.9,10.7,45.2,14.3c3.8,0.9,7.7,1.5,11.4,2.7c3.7,1.1,7.6,2,11.4,2.9
			c7.6,1.7,15.3,3,23,3.7c3.8,0.4,7.6,0.6,11.4,0.5c3.9,0,7.7-0.2,11.6-0.5c7.7-0.6,15.4-1.8,22.9-3.6c15.1-3.5,29.6-9.1,43.1-16.7
			c13.5-7.5,25.9-17,36.6-28.1c10.7-11.1,19.7-23.8,26.5-37.7c6.7-13.8,11.4-28.8,13.4-44.1c3.4-15.1,4.8-30.9,4.6-46.9
			c3.9,15.5,5.6,31.8,4.5,48.2c-0.7,4-1.4,8.1-2.3,12c-0.9,4-1.9,7.9-3.1,11.9c-2.4,7.8-5.4,15.5-9,22.8
			c-7.2,14.7-16.7,28.3-28.1,40c-11.4,11.8-24.5,21.8-38.7,29.7c-14.2,8-29.6,13.9-45.5,17.6c-8,1.8-16,3.1-24.2,3.8
			c-4.1,0.3-8.2,0.5-12.2,0.5c-4.1,0-8.3-0.2-12.4-0.6c-8.2-0.8-16.2-2.2-24.1-3.9c-4-0.9-7.9-1.9-11.8-2.8c-4-0.9-7.7-2.5-11.5-3.9
			c-7.5-3-14.9-6.2-22-9.9C897.5,833.3,890.6,829.3,884,824.8z"/>
	</g>
	<g>
		<path fill="#EDE8E0" d="M1116.5,664c-8.9-23.3-27.1-50.8-42.1-63.6C1027,559.6,945,557,900.7,624.9"/>
		<path fill="#A7A9AC" d="M1116.5,664c-5-10.4-10.8-20.3-17.3-29.7c-3.3-4.7-6.6-9.3-10.2-13.7c-3.6-4.4-7.3-8.6-11.3-12.6
			c-1-0.9-2-1.9-3-2.8c-1.1-0.9-2.1-1.8-3.2-2.7c-2.2-1.8-4.4-3.4-6.7-5c-4.6-3.2-9.4-6-14.4-8.5c-9.9-5-20.5-8.6-31.4-10.8
			c-21.7-4.4-44.7-2.7-65.4,5.5c-10.3,4.1-20.2,9.7-29,16.8c-8.9,6.9-16.8,15.3-24,24.3c5.4-10.2,12.5-19.6,21-27.8
			c4.2-4.1,8.8-7.8,13.7-11.2c4.9-3.3,10-6.3,15.5-8.8c5.4-2.5,11-4.5,16.8-6.1c5.8-1.5,11.6-2.7,17.6-3.3c11.9-1.2,24-0.6,35.6,1.8
			c2.9,0.6,5.8,1.3,8.7,2.1c2.9,0.8,5.7,1.8,8.5,2.8c2.8,1,5.6,2.2,8.3,3.4c2.7,1.3,5.4,2.6,8,4c5.2,2.9,10.2,6.1,14.9,9.7
			c2.3,1.8,4.6,3.7,6.8,5.7c1.1,1,2.2,2.1,3.3,3.1c1.1,1.1,2.1,2.2,3.1,3.2c4,4.4,7.5,9.1,10.9,13.9c3.3,4.8,6.4,9.7,9.3,14.8
			c2.9,5.1,5.5,10.2,7.8,15.6C1112.7,653.1,1114.8,658.5,1116.5,664z"/>
	</g>
	<g>
		<path fill="#EDE8E0" d="M441.1,651.7c-4.4,28.2,8,57.5,33.9,73.2c18.3,11.1,39.5,13.2,58.5,7.5"/>
		<path fill="#A7A9AC" d="M441.1,651.7c0.9,6.3,2.2,12.2,4,17.8c0.2,2.9,0.7,5.7,1.3,8.5c0.4,1.4,0.7,2.8,1.1,4.2l1.3,4.1
			c2,5.4,4.6,10.5,7.8,15.2c3.2,4.7,7,9.1,11.3,12.8l0.8,0.7c0.3,0.2,0.6,0.4,0.8,0.7l1.7,1.3l1.7,1.3l1.8,1.2
			c2.4,1.6,4.8,3.1,7.4,4.4c5.1,2.6,10.5,4.6,16.1,5.7c5.6,1.2,11.3,1.7,17,1.5c1.4,0.2,2.9,0.5,4.4,0.7l2.2,0.3l2.3,0.2
			c3,0.3,6.1,0.3,9.3,0.3c-0.7,0.4-1.4,0.8-2,1.2c-0.7,0.4-1.4,0.8-2.1,1.2c-1.4,0.7-2.9,1.4-4.4,2c-3,1.3-6.1,2.2-9.3,3.1
			c-6.5,0.3-13-0.3-19.3-1.7c-6.3-1.3-12.5-3.6-18.3-6.5c-2.9-1.4-5.7-3.1-8.4-4.9l-2-1.3l-1.9-1.5l-1.9-1.5c-0.3-0.3-0.6-0.5-1-0.8
			l-0.9-0.8c-4.9-4.2-9.2-9.1-12.9-14.5c-3.6-5.3-6.6-11.1-8.9-17.2c-2.2-6.1-3.5-12.5-4.3-18.9
			C436.7,663.8,438.4,657.5,441.1,651.7z"/>
	</g>
	<g>
		<path fill="#EDE8E0" d="M830.7,788.8c25.2,13.4,57,11.1,80.3-8.2c16.5-13.6,25.4-33,26.2-52.9"/>
		<path fill="#A7A9AC" d="M830.7,788.8c6.3,1.2,12.3,1.9,18.1,2c2.8,0.7,5.6,1.2,8.4,1.5c1.4,0.1,2.8,0.3,4.3,0.4l4.3,0.1
			c5.7-0.1,11.4-0.9,16.9-2.4c5.5-1.5,10.9-3.7,15.8-6.6l0.9-0.5c0.3-0.2,0.6-0.4,0.9-0.6l1.8-1.2l1.8-1.2l1.7-1.3
			c2.3-1.7,4.5-3.5,6.5-5.6c4.1-4,7.7-8.5,10.7-13.4c2.9-4.9,5.3-10.1,7-15.6c0.7-1.3,1.5-2.6,2.1-3.9l1-2l0.9-2.1
			c1.3-2.8,2.3-5.7,3.4-8.7c0.2,0.8,0.3,1.5,0.5,2.3c0.2,0.8,0.3,1.6,0.4,2.4c0.2,1.6,0.4,3.2,0.5,4.8c0.3,3.2,0.1,6.5-0.1,9.8
			c-1.9,6.2-4.5,12.2-7.9,17.7c-3.3,5.6-7.5,10.6-12.1,15.1c-2.3,2.3-4.8,4.4-7.4,6.3l-1.9,1.5l-2,1.3l-2,1.3
			c-0.3,0.2-0.7,0.4-1,0.7l-1.1,0.6c-5.6,3.3-11.6,5.7-17.9,7.4c-6.2,1.7-12.7,2.6-19.2,2.8c-6.5,0.1-12.9-0.7-19.3-2.1
			C840.7,796.8,835.3,793.2,830.7,788.8z"/>
	</g>
	<g>
		<path fill="#FFFFFF" d="M849.5,340.2l-16.2,10.5c-15-0.3-60.7-1.2-70.9-1.3c0-0.1,0-0.1,0.1-0.1c0,0-3.4,0.1-3.7,0.1
			c-0.3,0-3.7-0.1-3.7-0.1c0,0,0,0,0.1,0.1c-12.3,0.2-75.7,1.4-75.7,1.4s-34.2,43.4-31.3,98.8c3.1,60,45.6,54.8,96.9,52.7
			c35.2,1.4,57.9-3.4,79-29.6h39.6C911.4,418,849.5,340.2,849.5,340.2z"/>
	</g>
	<ellipse fill="#EDE8E0" cx="775.4" cy="525" rx="127.7" ry="80.4"/>
	<g>
		<path fill="#EDE8E0" d="M870.9,472.1c-16.5-22.2-48.9-29.7-75.1-31.1c-20.8-1.1-41.9,0.4-62.3,4.8c-17.6,3.8-41.9,9.1-52.6,25.1"
			/>
		<path fill="#A7A9AC" d="M870.9,472.1c-0.9-0.7-1.7-1.4-2.6-2.1c-0.8-0.7-1.6-1.4-2.6-1.9l-2.6-1.8c-0.8-0.6-1.8-1.1-2.7-1.6
			c-3.6-2.2-7.4-3.8-11.2-5.3c-7-4.1-14.8-6.9-22.8-9.1c-16-4.3-33-5.4-49.8-5c-8.4,0.2-16.8,0.9-25.2,2c-8.4,1.1-16.6,2.8-24.9,4.7
			c-8.2,1.9-16.3,4.2-23.7,7.4c-7.9,2.2-15.6,5.4-22,11.5c0.5-1,0.9-2,1.4-3c0.5-1,1.2-1.9,1.8-2.9c0.3-0.5,0.6-0.9,1-1.4l1.1-1.3
			c0.7-0.9,1.5-1.7,2.3-2.5c3.2-3.3,6.9-6.1,10.7-8.6c8.3-3.7,16.9-6,25.4-8c4.3-1,8.4-1.9,12.7-2.8c4.3-0.8,8.6-1.5,13-2.1
			c8.7-1.2,17.4-1.9,26.2-2.1c4.4-0.1,8.7-0.1,13.1,0c2.2,0.1,4.4,0.2,6.6,0.3c2.2,0.2,4.4,0.3,6.6,0.5c8.8,0.8,17.5,2.2,26.1,4.5
			c8.6,2.3,17,5.5,25,9.9c3.6,2.9,7,5.9,9.9,9.5c0.7,0.9,1.5,1.7,2.1,2.6l1.9,2.8c0.6,0.9,1.2,1.9,1.7,2.9
			C869.9,470.1,870.5,471.1,870.9,472.1z"/>
	</g>
	<g>
		<linearGradient id="SVGID_1_" gradientUnits="userSpaceOnUse" x1="881.0599" y1="527.5723" x2="1127.9513" y2="527.5723">
			<stop  offset="0" style="stop-color:#C0C2C4"/>
			<stop  offset="1" style="stop-color:#ADAFB2"/>
		</linearGradient>
		<path fill="url(#SVGID_1_)" d="M1059.8,434.5c0,0,41.9,25.5,59.4,71.7s7.5,68.7-20,84.4c-24.8,14.1-37.4,18-47.9,26.9
			c-2.4,2-5.3,3.2-8.4,3.2h-24c-7.1,0-13-5.6-13.2-12.7c-0.3-9,1.2-22.1,8.9-36.2h-28.3c0,0,6.6,9.6,10.2,18.6
			c1.7,4.4-0.7,9.2-5.1,10.7l-33.3,11.1c-2.2,0.7-4.7,0.5-6.7-0.7c-7.5-4.4-26.9-15.4-42.5-22.1c-19.7-8.5-33.8-35.2-25.4-57.7
			c8.5-22.5,56.7-76.4,56.7-76.4L1059.8,434.5z"/>
		<path fill="#F5B949" d="M908.1,493.9l78.3,77.9h28.3l17.1-15.7l82.9-60.4c0,0-27.6-52.5-64.8-63.5l-109.6,23.2L908.1,493.9z"/>
		<ellipse fill="#2F8F6D" cx="1002.9" cy="472.7" rx="63.1" ry="44.2"/>
		<ellipse fill="#91929D" cx="1000.4" cy="465.7" rx="55.7" ry="39.1"/>
		<path fill="#ABADB0" d="M958,258.9c0,0-0.1-4.5,9.8-3.7s23.1,5.1,28.1,16.7s7.2,17.1,7.2,17.1l-32.8,13.7c0,0-2.1-22.4-6.3-30.1
			C959.7,264.9,956.9,263.4,958,258.9z"/>
		
			<linearGradient id="SVGID_2_" gradientUnits="userSpaceOnUse" x1="182.1583" y1="-290.8911" x2="232.6298" y2="-176.588" gradientTransform="matrix(0.8907 0.4546 -0.4546 0.8907 725.05 501.7478)">
			<stop  offset="0" style="stop-color:#C7C8CA"/>
			<stop  offset="1" style="stop-color:#B1B3B6"/>
		</linearGradient>
		<path fill="url(#SVGID_2_)" d="M1134.4,339.2c1.8-4,0.3-8.7-3.4-11.1c-28.8-18.2-53.8,1.7-53.8,1.7l0,0c-2.3-3.3-4.9-6.4-7.9-9.5
			c-21.2-21.8-54.3-38.1-85.1-28.8c-5.3,1.6-10.5,4-15.5,7.3c-28.9,19.4-34.5,47.3-50.9,76.4c-11,19.5-25,34.7-17.6,58.4
			c5.7,18.3,20.4,33.9,36.9,43.2c79.2,44.7,123.2-10.8,129.6-23.2c8.5-16.7,16.5-34,21.2-52.3c2.6-10,3.8-20,3.3-29.7
			c-0.4-9.2,6.9-16.8,16.1-16.9c0.1,0,0.2,0,0.2,0C1124.4,354.8,1131.4,345.9,1134.4,339.2z"/>
		<path fill="#5F6062" d="M929,399.3c-1,1-1.8,2-2.5,3.2c-0.7,1.1-1.2,2.3-1.4,3.5c-0.3,1.2,0.1,2.3,0.2,3.4c0,0.6,0.1,1.2,0.2,1.8
			c0.1,0.6,0.3,1.3,0.3,2.1l0,0c0,0.1-0.1,0.2-0.2,0.2c0,0-0.1,0-0.1,0c-1.4-0.7-2.4-1.9-2.9-3.5c-0.3-0.7-0.3-1.6-0.2-2.4l0.3-1.2
			c0.1-0.4,0.3-0.7,0.4-1.1c0.5-1.4,1.4-2.7,2.4-3.7c1-1,2.1-1.9,3.4-2.5c0.1,0,0.2,0,0.2,0.1C929.1,399.2,929,399.3,929,399.3
			L929,399.3z"/>
		<path fill="#5F6062" d="M977.7,420.2c0.9,1.3,1.3,2.8,1.4,4.4c0.1,1.6-0.3,3.3-1,4.7c-0.7,1.5-1.6,2.9-2.9,3.9
			c-0.7,0.4-1.4,0.8-2.1,1.1c-0.8,0.3-1.5,0.5-2.4,0.5c-0.1,0-0.2-0.1-0.2-0.1c0,0,0-0.1,0-0.1l0,0c0.4-0.7,0.9-1.3,1.4-1.9
			c0.5-0.6,0.9-1.1,1.4-1.6c0.4-0.6,1-1,1.4-1.4l0.7-0.7l0.6-0.8c0.8-1.1,1.3-2.4,1.6-3.7c0.3-1.4,0.2-2.8-0.3-4.2l0,0
			c0-0.1,0-0.2,0.1-0.2C977.6,420.2,977.6,420.2,977.7,420.2z"/>
		<path fill="#5F6062" d="M941.6,413.4c0.2-0.5,0-1.3-1-2.5c-1.7-2-7.3-5.7-9.2-2.7c-1.4,2.2-0.3,3.8,2.3,4.8
			C935.8,413.9,940.8,414.9,941.6,413.4z"/>
		<path fill="#5F6062" d="M956.4,419.6c0.2-0.5,1.1-0.8,2.8-0.7c2.9,0.2,9.9,2.6,8.8,5.9c-0.8,2.4-2.8,2.4-5.6,1
			C960.1,424.6,955.7,421.1,956.4,419.6z"/>
		<g>
			<path fill="#797A7D" d="M930.8,538.9c5.1,0,10.2,1,15.1,2.4c2.5,0.7,4.9,1.6,7.2,2.6l3.5,1.6c1.2,0.5,2.3,1.2,3.4,1.8
				c1.1,0.6,2.2,1.3,3.3,2c1.1,0.7,2.2,1.3,3.2,2.1l3.1,2.3c1,0.7,2,1.6,2.9,2.5l1.4,1.3c0.5,0.4,1,0.9,1.4,1.3l2.6,2.8
				c0.9,0.9,1.7,1.9,2.5,2.9c0.8,1,1.6,2,2.3,3c-1-0.8-1.9-1.7-2.8-2.6c-0.9-0.8-1.8-1.8-2.8-2.5c-1.9-1.6-3.8-3.3-5.8-4.7
				c-4-3.1-8.2-5.7-12.5-8.1c-4.3-2.5-8.9-4.5-13.6-6.3C940.6,541.4,935.8,539.9,930.8,538.9z"/>
		</g>
		<path fill="#F5B949" d="M1080.3,271.9c-2.5-1.3-5.1-2.3-7.7-3.1c-3.5-1.2-12.7-2-12.7-2c-9.4-0.2-18.8,2.4-26.9,7.8l-22.4,14.8
			l63.6,39.9c2.7-19.1,16.7-34.6,35.5-39.2l4.1-1L1080.3,271.9z"/>
		<path fill="#2F8F6D" d="M1068.6,333.5l-64-35.7c-2.7-1.5-3.7-4.9-2.2-7.6l0.6-1c1.5-2.7,4.9-3.7,7.6-2.2l64,35.7
			c2.7,1.5,3.7,4.9,2.2,7.6l-0.6,1C1074.8,334,1071.4,335,1068.6,333.5z"/>
		<circle fill="#2F8F6D" cx="1115.8" cy="291.3" r="10.7"/>
		<rect x="991.7" y="511.3" fill="#2F8F6D" width="14" height="60.5"/>
		<circle fill="#9A9FA3" cx="932" cy="376.1" r="10.2"/>
		<circle fill="#5F6062" cx="932" cy="376.1" r="5.6"/>
		<circle fill="#9A9FA3" cx="992" cy="401.3" r="10.2"/>
		<circle fill="#5F6062" cx="991.2" cy="400.8" r="5.6"/>
		<path fill="#FFFFFF" d="M975.7,344.6l-6.1,58.8c-0.6,5.7-6,9.7-11.6,8.5c-10.8-2.3-26-7.5-25.8-19.1c0.3-15.3,18-37,35.8-52.3
			C971.2,337.7,976.2,340.3,975.7,344.6z"/>
		<path fill="#5F6062" d="M935.3,432.8c5.7-0.6,12.5,1.7,14.5,2.5c8.7,3.4,15.4,9.7,17,19.5c1.6,9.7-11.4,6.9-15.1,5.7
			c-9.1-2.9-18.2-7.9-22.8-15.5c-0.8-1.4-2-3.2-1.6-5.5C928.3,435,931.5,433.2,935.3,432.8z"/>
		<g>
			<path fill="#5F6062" d="M946.5,421.2c0,1.5-0.2,2.8-0.4,4c-0.1,0.6-0.2,1.2-0.3,1.9c-0.1,0.6-0.3,1.2-0.4,1.8
				c-0.3,1.2-0.6,2.4-1,3.6c-0.4,1.2-0.7,2.4-1.4,3.8l-0.2,0c-0.1-1.3-0.1-2.6,0-3.9c0.1-1.3,0.3-2.6,0.6-3.9c0.7-2.5,1.6-5,2.9-7.3
				L946.5,421.2z"/>
		</g>
		<path fill="#FFFFFF" d="M941.8,435.2c-0.9-0.2-1.9,0.1-2.5,0.8c-1.1,1.3-2.1,4-0.9,5.3c1.7,1.9,15.7,9.5,19,10.2
			c0,0,1.3,0.2,3.8-2.6l0,0c0.5-1.5,0.1-3.1-1.1-4.1C956.8,442,950,437,941.8,435.2z"/>
		<g>
			<path fill="#7D7E81" d="M988,374.8c1.4,0.4,2.8,1,4.2,1.7c1.4,0.7,2.7,1.4,4,2.2c1.3,0.8,2.7,1.6,3.7,2.9c1,1.2,1.8,2.7,1.9,4.3
				l-0.2,0.1c-1.1-1.1-2.1-2.1-3.2-3c-1.1-0.9-2-2-3.2-3c-1.1-0.9-2.3-1.8-3.6-2.6c-1.2-0.8-2.5-1.6-3.8-2.3L988,374.8z"/>
		</g>
		<g>
			<path fill="#7D7E81" d="M949.8,358.9c-1.5-0.3-2.9-0.6-4.4-0.8c-1.5-0.2-2.9-0.4-4.4-0.4c-1.5,0-2.9,0.1-4.3,0.1
				c-1.4,0-2.8,0-4.4,0.1l-0.1-0.2c1.2-1.1,2.8-1.7,4.3-2c1.6-0.3,3.1,0,4.6,0.3c1.5,0.2,3,0.6,4.5,1c1.5,0.4,2.9,0.9,4.3,1.5
				L949.8,358.9z"/>
		</g>
	</g>
	<path fill="#ABADB0" d="M576.4,469.8l8.6,20.2c3.9,9.1-1.9,19.4-11.7,20.8l-30.3,4.2l-6.4-37.8L576.4,469.8z"/>
	<path fill="#E57C39" d="M363.2,407.2c0,0-34.1,18.9-51.9,72.1c-7.3,21.8,2.4,45.7,22.8,56.3l0,0c7.2,3.7,15.3,5.5,23.4,5.2
		c38.6-1.6,155.3-7.7,190.1-25.2l-7.7-30.3l39.4-8.6c0,0-22.6-64.5-78.3-64.8L363.2,407.2z"/>
	<path fill="#D54849" d="M512.2,420.5L496.4,452c-2.7,6.1-10.5,7.8-15.5,3.4l-13.6-12l-12.2,18.1c-2.9,4.3-8.6,5.6-13.1,3
		l-35.8-20.8L512.2,420.5z"/>
	<path fill="#CB7639" d="M386.1,524l8.3-28c0.3-0.9-0.2-1.5-0.5-0.7l-9.9,27.4L386.1,524z"/>
	<path fill="#ABADB0" d="M471.5,255.4l68.1-6.2c23.3-2.1,46.3,6,63.2,22.1l0,0c24,22.9,31.6,58.2,19.1,89l-5.6,13.9
		c-13.4,33.1-46.9,53.4-82.4,50.2l-18.2-1.7"/>
	<path fill="#939598" d="M526.5,404.5L526.5,404.5c27.2,2.5,52.8-13.1,63.1-38.4l4.3-10.6c10.3-25.5,2.7-55-19.4-72.3
		c-12.6-9.8-28.6-14.1-44.5-12.7l-38.6,3.5c-6.6,0.6-11.1,7-9.4,13.4l27,102.3C511.1,397.8,518.1,403.7,526.5,404.5z"/>
	
		<linearGradient id="SVGID_3_" gradientUnits="userSpaceOnUse" x1="-10422.2246" y1="1441.2871" x2="-10474.5518" y2="1582.8076" gradientTransform="matrix(-0.9829 0.184 0.184 0.9829 -10075.4873 835.5649)">
		<stop  offset="0" style="stop-color:#BCBEC0"/>
		<stop  offset="1" style="stop-color:#A3A5A8"/>
	</linearGradient>
	<path fill="url(#SVGID_3_)" d="M370.7,433c44.3,21.2,93,21.5,136.7-1.7c21.1-11.2,38.8-29.5,38.3-54.7c-0.1-7.2-1.7-14.1-4-20.9
		c-6-18.2-3.7-37.1-8.8-55.4c-3.7-13.4-11.9-25.2-22.2-34.5c-20.1-18.1-46.4-23.9-76-25c-21.7-0.8-53.8,8-69.9,23.8"/>
	<path fill="#A7A9AC" d="M516,326.4c3.8,5.4,2.4,12.9-3,16.6c-5.4,3.7-12.9,2.3-16.6-3.1s-2.4-12.9,3-16.6
		C504.8,319.6,512.2,321,516,326.4z"/>
	<path fill="#737577" d="M512.4,328.9c1.8,2.9,0.9,6.7-2.1,8.5s-6.7,0.8-8.5-2.1s-0.9-6.7,2.1-8.5C506.8,325,510.6,326,512.4,328.9z
		"/>
	<g>
		<path fill="#797A7D" d="M437,318c-0.8,0.5-1.6,0.9-2.4,1.3c-0.8,0.1-1.6,0.3-2.5,0.5c-1.6,0.4-3.2,0.9-4.8,1.5
			c-1.5,0.6-3,1.4-4.4,2.3c-0.7,0.5-1.3,0.9-1.9,1.5c-0.8,0.3-1.6,0.7-2.5,1.1c0.3-0.9,0.6-1.8,1.1-2.6c0.7-0.6,1.4-1.1,2.1-1.7
			c1.5-1,3.1-1.8,4.7-2.5c1.7-0.6,3.4-1.2,5.1-1.5c0.9-0.2,1.7-0.4,2.6-0.5C435.3,317.5,436.2,317.7,437,318z"/>
	</g>
	<g>
		<path fill="#797A7D" d="M491.9,306.1c0.8-0.5,1.7-0.7,2.6-1c0.9,0.1,1.8,0.1,2.6,0.2c1.8,0.2,3.5,0.5,5.2,1c1.7,0.5,3.4,1.1,5,1.9
			c0.8,0.4,1.6,0.9,2.3,1.4c0.6,0.7,1,1.6,1.4,2.5c-0.9-0.3-1.7-0.6-2.6-0.8c-0.6-0.5-1.4-0.9-2.1-1.3c-1.5-0.7-3-1.3-4.6-1.8
			c-1.6-0.4-3.2-0.7-4.9-0.9c-0.8-0.1-1.7-0.2-2.5-0.2C493.6,306.8,492.7,306.5,491.9,306.1z"/>
	</g>
	<path fill="#A7A9AC" d="M444,339.5c3.3,4.7,2.1,11.2-2.6,14.4c-4.7,3.2-11.2,2-14.5-2.7c-3.3-4.7-2.1-11.2,2.6-14.4
		C434.2,333.6,440.7,334.8,444,339.5z"/>
	<path fill="#737577" d="M442.1,341.9c1.8,3,0.9,6.9-2.1,8.7c-3,1.8-6.9,0.8-8.7-2.2c-1.8-3-0.9-6.9,2.1-8.7
		C436.4,338,440.3,338.9,442.1,341.9z"/>
	
		<linearGradient id="SVGID_4_" gradientUnits="userSpaceOnUse" x1="-10352.1953" y1="1175.7909" x2="-10352.1953" y2="1215.8654" gradientTransform="matrix(-0.9907 0.1358 0.1358 0.9907 -10093.6729 650.2146)">
		<stop  offset="0" style="stop-color:#BEC0C2"/>
		<stop  offset="1" style="stop-color:#B1B3B6"/>
	</linearGradient>
	<path fill="url(#SVGID_4_)" d="M375.4,262.5L308.8,276c-23,4.2-43,18.2-55,38.3l0,0c-16.9,28.6-14.7,64.6,5.6,90.8l9.2,11.9
		c21.8,28.2,59.5,38.9,92.9,26.2l17.1-6.5"/>
	<path fill="#A1A3A6" d="M366.1,420.7L366.1,420.7c-25.1,10.8-54.3,4-71.9-16.9l-7.4-8.8c-17.8-21-19.7-51.5-4-74.7
		c8.9-13.2,22.8-22.3,38.3-25.9l37.8-8.7c6.5-1.5,12.7,3.2,13.1,9.8l6.1,105.6C378.6,409.6,373.8,417.4,366.1,420.7z"/>
	<path fill="#E57C39" d="M366.4,512.1c0,0,19.7,0.3,68.6-47.5l-55.6-50.4l-45.9,37.8L366.4,512.1z"/>
	<path fill="#BEC0C2" d="M379.4,414.3l55.6,50.4l10.5-14.5c5.6-7.7,6.1-18,1.4-26.2l-2.1-3.7c-1.3-2.3-3-4.4-5.1-6.1L423.4,400
		c-3.5-3-7.7-4.9-12.3-5.6h0c-8.1-1.1-16.3,2-21.7,8.2L379.4,414.3z"/>
	<g>
		<path fill="#EDE8E0" d="M607.9,539c-20.5-17.6-53.2-35.5-75.6-41.5c-70.8-18.9-162.4,9.5-180.1,87.1"/>
		<path fill="#A7A9AC" d="M607.9,539c-10.8-7.1-22.2-13.2-33.7-18.6c-2.9-1.4-5.9-2.5-8.6-4.1l-2.1-1.2l-2.1-1.1
			c-1.4-0.7-2.8-1.4-4.3-2.1c-5.7-2.7-11.5-5.3-17.4-7.4l-4.4-1.5l-4.4-1.3c-3-0.8-6.1-1.5-9.2-2.1c-6.1-1.2-12.4-2.1-18.6-2.7
			c-12.5-1.1-25.2-0.8-37.6,0.9c-12.5,1.6-24.7,4.7-36.4,9.1c-11.7,4.5-22.8,10.4-32.7,17.9c-2.5,1.9-4.9,3.8-7.2,5.9
			c-2.3,2-4.6,4.2-6.7,6.5c-2.1,2.2-4.2,4.6-6.1,7c-1.9,2.4-3.8,4.9-5.4,7.5c-0.8,1.3-1.9,2.4-2.8,3.7c-1,1.2-1.9,2.5-2.8,3.8
			c-1.8,2.6-3.5,5.2-5,8c-0.8,1.4-1.5,2.8-2.3,4.2c-0.7,1.4-1.5,2.8-2.1,4.3c-1.4,2.9-2.6,5.9-3.8,8.9c1.1-13,4.8-26,11.2-37.9
			c2-2.7,3.9-5.5,6-8.1c2.1-2.6,4.3-5.2,6.6-7.6c2.3-2.4,4.7-4.8,7.2-7c2.5-2.2,5.1-4.3,7.8-6.4c10.7-8.1,22.5-14.4,34.9-19.1
			c12.4-4.7,25.3-7.9,38.4-9.6c13.1-1.7,26.4-2,39.6-0.9c6.6,0.6,13.1,1.5,19.6,2.8c3.2,0.7,6.5,1.4,9.7,2.3l4.8,1.4l4.7,1.6
			c6.3,2.2,12.3,4.9,18.2,7.7c1.5,0.7,3,1.4,4.4,2.2l4.4,2.2c3,1.4,5.6,3.4,8.3,5.3c5.4,3.8,10.6,7.8,15.5,12
			C598.8,529.7,603.6,534.2,607.9,539z"/>
	</g>
	<path fill="#797A7D" d="M430.4,391.1L430.4,391.1c0-5.5,3.9-10.3,9.3-11.4l28.5-5.9l9.4,23.4l-33.7,5.4
		C436.8,403.7,430.4,398.3,430.4,391.1z"/>
	<path fill="#ED85A9" d="M443.8,402.6c0,0,3.5-8.7,12.9-11.5c9.4-2.8,20.4-0.3,24.9,5.2L443.8,402.6z"/>
	<path fill="#FFFFFF" d="M497,349.5c4.3-0.7,16.7-3.4,23.3-10.3c0.7-0.7,1.8,0,1.6,0.9c-1.3,5.2-5.3,14.7-18.1,20.2
		c-0.4,0.2-0.9,0-1.2-0.3l-6.3-9C496,350.4,496.3,349.6,497,349.5z"/>
	
		<linearGradient id="SVGID_5_" gradientUnits="userSpaceOnUse" x1="-3166.6355" y1="4803.5625" x2="-3360.2317" y2="4803.5625" gradientTransform="matrix(0.4395 -0.8983 0.8983 0.4395 -2409.9172 -4594.6411)">
		<stop  offset="0" style="stop-color:#C7C8CA"/>
		<stop  offset="1" style="stop-color:#B1B3B6"/>
	</linearGradient>
	<path fill="url(#SVGID_5_)" d="M505.4,338.3c1,2.4,1.8,4.9,2.6,7.4c3.8,12.4,8.8,24,13.9,35.9c6.4,15,12.6,30.4,14.9,46.6
		c4.6,33.3-8.7,68.6-34.2,90.5c-25.5,21.9-62.3,29.8-94.6,20.3c-15.5-4.6-30-12.9-46-15.2c-0.5-0.1-1.1-0.2-1.5-0.5
		c-1-0.7-0.7-2.3-0.3-3.4c1.5-3.6,4.2-6.6,7.7-8.3c1.3-0.7,2.8-1.2,3.6-2.4c1.1-1.6,0.7-3.7,0.6-5.6c-0.2-4.4,1.4-8.9,4.5-12
		c0.6-0.7,1.4-1.3,2.3-1.3c1.4,0,2.2,1.4,2.9,2.6c5.2,9,15.1,14.2,25,17.3c16.9,5.2,35.7,5.4,52.1-1.5c16.3-6.9,29.8-21.1,34-38.3
		c4.6-18.9-2.1-38.8-11.2-56s-20.9-33.1-27.8-51.3c-2.1-5.6-3.8-11.6-3.4-17.6c0.6-11,8.6-21.1,19.1-24.4c5.8-1.8,11.3-2.8,17.3-1.1
		C496.7,322.6,501.9,329.8,505.4,338.3z"/>
	<path fill="#A9ABAE" d="M481.4,359.9c3.4-3.4,11.1-9.9,23.1-12.7c0.9-0.2,0.8-1.5-0.1-1.6c-6.9-1-20.4-0.9-24.4,13.5
		C479.8,359.9,480.8,360.5,481.4,359.9z"/>
	<path fill="#A9ABAE" d="M487.4,373.6c3.4-3.4,11.1-9.9,23.1-12.7c0.9-0.2,0.8-1.5-0.1-1.6c-6.9-1-20.4-0.9-24.4,13.5
		C485.8,373.6,486.8,374.2,487.4,373.6z"/>
	<path fill="#A9ABAE" d="M493.3,386.6c3.4-3.4,11.1-9.9,23.1-12.7c0.9-0.2,0.8-1.5-0.1-1.6c-6.9-1-20.4-0.9-24.4,13.5
		C491.7,386.6,492.7,387.2,493.3,386.6z"/>
	<path fill="#FFFFFF" d="M445.8,357.1c4.4-0.3,17-1.8,24.1-8c0.7-0.6,1.8,0.1,1.5,1.1c-1.7,5.1-6.6,14.2-19.9,18.4
		c-0.4,0.1-0.9-0.1-1.1-0.4l-5.4-9.5C444.7,358,445.1,357.2,445.8,357.1z"/>
	<path fill="#F1625B" d="M831.3,202.7l71.4,22.2c7.8,2.4,10.7,11.8,5.7,18.2l-12.5,16c-3.8,4.9-10.7,5.9-15.8,2.4l-53-37
		L831.3,202.7z"/>
	<path fill="#F1625B" d="M832.3,187.7l74.7-2.7c8.1-0.3,14,7.6,11.4,15.3l-6.5,19.2c-2,5.8-8.2,9.1-14.1,7.4l-62.2-17.4L832.3,187.7
		z"/>
	<g>
		<path fill="#3BB7A3" d="M852.5,405.5c0,0-26-13.2-11.6-39.7C840.9,365.9,866.8,371.2,852.5,405.5z"/>
		<g>
			<path fill="#797A7D" d="M853.8,405.1c-4.4-2.3-8.2-5.9-11.1-9.8c-6.7-9.1-5.4-20.1-0.4-29.7c-0.9,0.3-1.7,0.5-2.6,0.8
				c4.3,0.9,8.4,3.8,11.2,7.1c7.6,9.1,4.2,22.5,0.2,32.3c-0.2,0.4,2.6,0.2,2.8-0.5c4.2-10.4,7.3-23.6-0.6-33.1
				c-2.8-3.3-7-5.9-11.2-6.8c-0.6-0.1-2.3,0.2-2.6,0.8c-5.1,9.8-6.1,20.5,0.4,29.9c2.8,4.1,6.9,7.7,11.3,10
				C851.8,406.4,854.1,405.2,853.8,405.1z"/>
		</g>
	</g>
	<path fill="#58595B" d="M678.8,346c0,0,25.3,46,83.8,42.7c58.6-3.3,81.9-51.5,81.9-51.5L678.8,346z"/>
	<path fill="#58595B" d="M714.7,178.2c-3.1,14.1-16.7,22.9-30.2,19.7c-13.6-3.2-22.1-17.3-18.9-31.4c3.1-14.1,16.7-22.9,30.2-19.7
		C709.4,150,717.8,164.1,714.7,178.2z"/>
	<ellipse fill="#58595B" cx="814.7" cy="176.5" rx="25.2" ry="26.2"/>
	<g>
		<path fill="#FFFFFF" d="M870.2,280.6c-4.7-19.2-13.5-37.2-19.1-56.1c-5.7-19.1-13.4-38.8-31-50c-24.3-15.4-55.5-16.6-83.1-14.5
			c-5.6,0.4-11.1,1-16.7,1.8c-20.1,2.8-40.4,10.7-52.4,28.6c-15.5,23-18.6,51.5-27.7,77.2c-8.5,24-10.5,50.1,8,70.3
			c8.4,9.1,19.3,14.9,31.1,18.4c2.4,0.7,4.9,1.3,7.4,1.9l32.8,8.2c20.8,5.2,42.5,5.3,63.4,0.3l31.7-7.6c3.8-0.7,7.5-1.6,11.2-2.7
			c0,0,0.1,0,0.1,0c13.4-4.1,25.8-11.2,34.5-22.4c10-13,14.3-31.3,11.1-47.4C871.1,284.4,870.7,282.5,870.2,280.6z"/>
	</g>
	<path fill="#58595B" d="M742.1,250.1h18c7.1,0,12.9,6,12.9,13.4v0.1c0,4-1.8,7.9-4.8,10.4l-8.8,7.4c-4.7,3.9-11.4,4-16.1,0.1
		l-9.2-7.5c-3.1-2.5-4.9-6.4-4.9-10.5v0C729.2,256.1,735,250.1,742.1,250.1z"/>
	<path fill="#58595B" d="M665,262.3c6.3-11.5,16.9-24.4,30.2-27.2c16-3.5,27.9,11.8,29.7,26.9c2,16.6-6,32.8-21.2,39.7
		c-13.2,6-39.5,4.7-44.1-12.6C657.5,281.3,660,271.4,665,262.3z"/>
	<ellipse fill="#FFFFFF" cx="707.1" cy="267" rx="6.8" ry="7.1"/>
	<path fill="#58595B" d="M839.9,262.6c-6.3-11.5-16.9-24.4-30.2-27.2c-16-3.5-27.9,11.8-29.7,26.9c-2,16.6,6,32.8,21.2,39.7
		c13.2,6,39.5,4.7,44.1-12.6C847.5,281.6,845,271.8,839.9,262.6z"/>
	<ellipse fill="#FFFFFF" cx="797.9" cy="267.3" rx="6.8" ry="7.1"/>
	<rect x="749.4" y="277.8" fill="#58595B" width="3.4" height="20.3"/>
	<g>
		<path fill="#F1625B" d="M683.8,174.6c0,0-18.6,8.4-27.5,37.9l190.8-0.3c0,0-7.2-26.5-24.1-35.7L683.8,174.6z"/>
	</g>
	<polygon fill="#FFFFFF" points="688.9,188.4 691.9,181.7 695.4,188.1 702.7,188.9 697.6,194.3 699.2,201.5 692.5,198.3 686.2,202 
		687.1,194.7 681.6,189.7 	"/>
	<polygon fill="#FFFFFF" points="703.1,181.7 703.9,179.9 704.8,181.6 706.8,181.8 705.4,183.3 705.8,185.2 704,184.3 702.3,185.3 
		702.6,183.4 701.1,182.1 	"/>
	<polygon fill="#FFFFFF" points="710.4,188.2 711.2,186.4 712.1,188.1 714.1,188.4 712.7,189.8 713.1,191.7 711.4,190.8 
		709.7,191.8 709.9,189.9 708.5,188.6 	"/>
	<polygon fill="#FFFFFF" points="710.4,198.4 711.2,196.6 712.1,198.4 714.1,198.6 712.7,200 713.1,201.9 711.4,201.1 709.7,202 
		709.9,200.1 708.5,198.8 	"/>
	<polygon fill="#FFFFFF" points="703.1,203.6 703.9,201.8 704.8,203.5 706.8,203.7 705.4,205.1 705.8,207.1 704,206.2 702.3,207.2 
		702.6,205.3 701.1,203.9 	"/>
	<path fill="#58595B" d="M700.1,266.9c1.5,0.2,2.8,0.5,4,0.7c1.2,0.2,2.3,0.3,3.3,0.4c0.5,0.1,1,0,1.6,0c0.5-0.1,1.1-0.1,1.6-0.2
		c1.1-0.2,2.3-0.6,3.9-0.9l0.2,0.2c-0.5,0.4-1,1-1.5,1.4c-0.6,0.4-1.1,0.8-1.8,1c-0.6,0.3-1.3,0.5-1.9,0.7c-0.7,0.1-1.4,0.2-2.1,0.2
		c-1.4-0.1-2.7-0.4-4-1c-1.2-0.6-2.4-1.3-3.4-2.2L700.1,266.9z"/>
	<path fill="#58595B" d="M790.7,266.9c1.5,0.2,2.8,0.5,4,0.7c1.2,0.2,2.3,0.3,3.3,0.4c0.5,0.1,1,0,1.6,0c0.5-0.1,1.1-0.1,1.6-0.2
		c1.1-0.2,2.3-0.6,3.9-0.9l0.2,0.2c-0.5,0.4-1,1-1.5,1.4c-0.6,0.4-1.1,0.8-1.8,1c-0.6,0.3-1.3,0.5-1.9,0.7c-0.7,0.1-1.4,0.2-2.1,0.2
		c-1.4-0.1-2.7-0.4-4-1c-1.2-0.6-2.4-1.3-3.4-2.2L790.7,266.9z"/>
	<path fill="#58595B" d="M725.2,291.5c2.4,0.8,4.7,1.5,7,2.1c2.1,1,4.3,1.8,6.5,2.5c2.2,0.7,4.5,1.1,6.8,1.5l3.5,0.4l3.5,0.1l0.9,0
		l0.9-0.1l1.7-0.1l1.7-0.1c0.6,0,1.1-0.2,1.7-0.3l3.4-0.6l3.4-1l1.7-0.5c0.6-0.2,1.1-0.4,1.6-0.6c1.1-0.4,2.2-0.9,3.2-1.3
		c1.2-0.2,2.3-0.6,3.5-0.9c1.2-0.3,2.4-0.6,3.6-0.9c-1.8,1.7-3.7,3.4-5.7,4.8c-1.1,0.5-2.3,0.9-3.4,1.4c-0.6,0.2-1.1,0.5-1.7,0.7
		l-1.8,0.5l-3.6,1l-3.7,0.7c-0.6,0.1-1.2,0.3-1.8,0.3l-1.9,0.2l-1.9,0.2l-0.9,0.1l-0.9,0l-3.7-0.1l-3.7-0.4
		c-2.5-0.4-4.9-0.9-7.3-1.6c-1.2-0.3-2.4-0.8-3.5-1.2c-0.6-0.2-1.2-0.5-1.7-0.7c-0.3-0.1-0.6-0.2-0.9-0.4c-0.3-0.1-0.6-0.2-0.9-0.4
		C728.7,295.2,726.7,293.5,725.2,291.5z"/>
	<g>
		<path fill="#E27593" d="M780.8,430l-41.4-22.3c-1.6-0.9-2.2-2.9-1.3-4.5l42.1-78.1c0.9-1.6,2.9-2.2,4.5-1.3l41.4,22.3
			c1.6,0.9,2.2,2.9,1.3,4.5l-42.1,78.1C784.4,430.3,782.4,430.9,780.8,430z"/>
		
			<rect x="742.3" y="355.9" transform="matrix(-0.4749 0.8801 -0.8801 -0.4749 1487.1879 -132.8875)" fill="#ED85A9" width="81.9" height="42.8"/>
		<g>
			<path fill="#E27593" d="M782.7,368.5c-2.6,1-4.5,2.8-5.6,4.9c-1.5,2.8-1.4,4.5,0.2,5.4c3.5,1.9,8.5-10.1,15.5-6.4
				c3.5,1.9,4.6,5.6,3,9.8l3.8,2l-1.7,3.1l-3.8-2c-1.8,2.5-4,3.8-6.4,4.7l-1.6-3.9c2.3-1,4.1-2.4,5.1-4.3c1.1-2.1,1.1-3.9-0.5-4.7
				c-3.4-1.8-8.3,10.3-15.5,6.4c-3.4-1.8-4.7-5.4-3-10l-3.8-2.1l1.7-3.1l3.7,2c1.5-2.3,4.1-4.8,6.8-5.6L782.7,368.5z"/>
		</g>
	</g>
	<g>
		<path fill="#E27593" d="M775.3,424.6l-46.7-5.6c-1.8-0.2-3.1-1.9-2.9-3.7l10.5-88.1c0.2-1.8,1.9-3.1,3.7-2.9l46.7,5.6
			c1.8,0.2,3.1,1.9,2.9,3.7L779,421.8C778.8,423.6,777.1,424.9,775.3,424.6z"/>
		
			<rect x="717.3" y="353.3" transform="matrix(-0.1185 0.993 -0.993 -0.1185 1220.1718 -333.8172)" fill="#ED85A9" width="81.9" height="42.8"/>
		<g>
			<path fill="#E27593" d="M754.6,366.8c-2.1,1.9-3.2,4.3-3.4,6.6c-0.4,3.2,0.4,4.7,2.2,4.9c4,0.5,4.2-12.6,12.1-11.6
				c4,0.5,6.3,3.5,6.4,8l4.2,0.5l-0.4,3.5l-4.3-0.5c-0.7,3-2.3,5-4.3,6.7l-2.9-3c1.8-1.8,2.9-3.7,3.2-5.8c0.3-2.4-0.4-4-2.2-4.2
				c-3.9-0.5-4,12.6-12,11.6c-3.8-0.5-6.3-3.3-6.5-8.2l-4.3-0.5l0.4-3.5l4.2,0.5c0.6-2.7,2.1-5.9,4.3-7.7L754.6,366.8z"/>
		</g>
	</g>
	<g>
		<path fill="#E27593" d="M769.5,425.9L724.6,440c-1.7,0.6-3.6-0.4-4.2-2.2l-26.7-84.6c-0.6-1.7,0.4-3.6,2.2-4.2l44.8-14.2
			c1.7-0.6,3.6,0.4,4.2,2.2l26.7,84.6C772.2,423.5,771.2,425.3,769.5,425.9z"/>
		
			<rect x="692.4" y="366" transform="matrix(0.301 0.9536 -0.9536 0.301 882.0399 -428.5495)" fill="#ED85A9" width="81.9" height="42.8"/>
		<g>
			<path fill="#E27593" d="M726.7,381.7c-1.1,2.6-1.1,5.2-0.4,7.4c1,3.1,2.3,4.1,4,3.6c3.8-1.2-1.4-13.2,6.3-15.6
				c3.8-1.2,7.2,0.6,9.1,4.7l4.1-1.3l1.1,3.4l-4.1,1.3c0.6,3,0,5.5-1.1,7.9l-3.9-1.6c0.9-2.4,1.1-4.6,0.5-6.6c-0.7-2.3-2-3.5-3.7-3
				c-3.7,1.2,1.6,13.1-6.2,15.5c-3.6,1.1-7.1-0.4-9.3-4.8l-4.1,1.3l-1.1-3.4l4-1.3c-0.6-2.7-0.5-6.3,0.7-8.8L726.7,381.7z"/>
		</g>
	</g>
	<path fill="#58595B" d="M660.9,348.3c0,0-24.3,23.9-33.1,58.2s41.5,56.9,87.9,50.8c46.4-6.1,30.5-42.5,15.2-53
		c-15.2-10.5-40.1-45.5-40.1-45.5L660.9,348.3z"/>
	<path fill="#58595B" d="M854.2,340.5c0,0,25.3,25.7,34.1,59.9c8.8,34.3-41.5,56.9-87.9,50.8c-46.4-6.1-30.5-42.5-15.2-53
		c15.2-10.5,40.3-46.8,40.3-46.8L854.2,340.5z"/>
</g>
<path fill="#A7A9AC" d="M553.8,753.3c-0.9,7.7,0.7,15.2,3.9,22.2c1.7,3.7,7,4.6,10.3,2.7c3.8-2.2,4.4-6.6,2.7-10.3
	c-2.2-4.6-2.5-9.6-1.9-14.6c0.5-4-3.8-7.5-7.5-7.5C556.8,745.8,554.3,749.2,553.8,753.3L553.8,753.3z"/>
<path fill="#A7A9AC" d="M589.5,751.4c-1,4.1-2.1,8.1-3.1,12.2c-1,3.8,1.2,8.3,5.2,9.2c3.9,0.9,8.2-1.2,9.2-5.2
	c1-4.1,2.1-8.1,3.1-12.2c1-3.8-1.2-8.3-5.2-9.2C594.9,745.2,590.6,747.3,589.5,751.4L589.5,751.4z"/>
<path fill="#A7A9AC" d="M562.9,714c1,5.1,2,10.2,2.9,15.3c0.8,4,5.5,6.3,9.2,5.2c4.2-1.1,6-5.2,5.2-9.2c-1-5.1-2-10.2-2.9-15.3
	c-0.8-4-5.5-6.3-9.2-5.2C564,706,562.1,710,562.9,714L562.9,714z"/>
<path fill="#A7A9AC" d="M983.4,700.5c4.2,1.8,8.4,3.6,12.5,5.4c3.7,1.6,8,1.1,10.3-2.7c1.9-3.2,1-8.6-2.7-10.3
	c-4.2-1.8-8.4-3.6-12.5-5.4c-3.7-1.6-8-1.1-10.3,2.7C978.9,693.4,979.7,698.9,983.4,700.5L983.4,700.5z"/>
<path fill="#A7A9AC" d="M998,675.3c4.8,4.1,9.5,8.1,14.3,12.2c3.1,2.6,7.6,3,10.6,0c2.7-2.7,3.1-8,0-10.6
	c-4.8-4.1-9.5-8.1-14.3-12.2c-3.1-2.6-7.6-3-10.6,0C995.3,667.4,994.9,672.6,998,675.3L998,675.3z"/>
<path fill="#A7A9AC" d="M1012,712.6c-1.4,5.7,0.1,11.1,3.8,15.5c2.6,3,8,2.8,10.6,0c2.9-3.2,2.7-7.4,0-10.6c1.8,2.1-0.4-0.4-0.2-0.5
	c0,0,0.7,1.8,0.1,0c-0.1-0.6-0.1-0.6,0,0c0.1,0.7,0.1,0.7,0.1,0c0-0.3,0-0.6,0-1c-0.2,1.2-0.2,1.4,0,0.6c1-3.8-1.2-8.3-5.2-9.2
	C1017.3,706.5,1013,708.6,1012,712.6L1012,712.6z"/>
<g>
</g>
<g>
</g>
<g>
</g>
<g>
</g>
<g>
</g>
<g>
</g>
<g>
</g>
<g>
</g>
<g>
</g>
<g>
</g>
<g>
</g>
<g>
</g>
<g>
</g>
<g>
</g>
<g>
</g>
</svg>
