<?xml version="1.0" encoding="utf-8"?>
<!-- Generator: Adobe Illustrator 18.0.0, SVG Export Plug-In . SVG Version: 6.00 Build 0)  -->
<!DOCTYPE svg PUBLIC "-//W3C//DTD SVG 1.1//EN" "http://www.w3.org/Graphics/SVG/1.1/DTD/svg11.dtd">
<svg version="1.1" id="Layer_1" xmlns="http://www.w3.org/2000/svg" xmlns:xlink="http://www.w3.org/1999/xlink" x="0px" y="0px"
	 viewBox="0 0 125.4 127.2" enable-background="new 0 0 125.4 127.2" xml:space="preserve">
<g>
	<g>
		<path fill="#448577" d="M125.4,127.2C119,8.9,0,0,0,0S7.2,119.1,125.4,127.2z"/>
	</g>
	<path fill="#80B493" d="M25.8,30c2.5,3.1,5,6.2,7.6,9.2c0,0,0,0.1,0,0.1c0,0,0,0,0,0c1.4,1.7,2.9,3.4,4.3,5
		c-5.1,4.2-6.1,10.8-5.9,17.4c0-1.2,0.2-2.5,0.3-3.7c0-0.1,0.1-0.2,0.2-0.4c0.2-0.5,0.3-1.1,0.5-1.6c0.4-1.2,1-2.3,1.7-3.3
		c1.4-2,3.1-3.5,5.2-4.7c0.2-0.1,0.3-0.5,0.3-1.1c3.6,4.1,7.3,8.1,11.1,12.1c0,0,0,0.1,0,0.1c0,0,0.1,0,0.1,0
		c1.5,1.5,2.9,3.1,4.4,4.6c-4.7,5-5.4,14.3-1.8,20c-0.7-1.2,1.1-3.9,0.3-5.2c-0.8-1.3-1.1-2.6-1.7-3.9c0-0.5-0.1-0.8-0.1-1
		c0.1-0.4,0.2-0.7,0.4-1.1c1-2.5,2.8-4.3,5-5.7c0.2-0.1,0.3-0.5,0.3-0.9c3.6,3.6,7.2,7.2,10.9,10.7c0,0.1-0.1,0.1-0.1,0.1
		c0.1,0,0.1,0,0.2-0.1c0.9,0.9,1.8,1.7,2.7,2.5c0,0.3,0,0.5,0.1,0.8c3.6,9.1,7.9,18,12.7,26.5c-0.7-1.2,1-3.9,0.3-5.2
		C81.2,95.2,78,89,75.2,82.6c9.1,8.3,18.6,16.2,28.4,23.8c-0.7-0.6,1.1-4.5,0.3-5.2c-10.4-8-20.4-16.4-30-25.3
		c7.6-0.1,16.1,3.3,22.9,4.9c-0.3-0.1,0.6-5.1,0.3-5.2c-8.3-2-19.4-6.7-28-4.2c-4.4-4.2-8.7-8.4-13-12.8c8.8-0.2,17.8,0.7,26.3,2.7
		c-0.3-0.1,0.6-5.1,0.3-5.2c-10.2-2.4-20.9-3.3-31.4-2.4c-4.4-4.6-8.6-9.3-12.8-14.1c5.5,0.5,10.9,1,16.4,1.6c0,0,0.4-5.1,0.3-5.2
		c-7.2-0.7-14.4-1.4-21.5-2c-2.6-3.1-5.1-6.2-7.6-9.3C26.9,25.8,25,28.9,25.8,30z M32.1,56.7c0-0.1,0-0.1,0-0.2
		C32.1,56.6,32.1,56.6,32.1,56.7z"/>
</g>
<g>
</g>
<g>
</g>
<g>
</g>
<g>
</g>
<g>
</g>
<g>
</g>
<g>
</g>
<g>
</g>
<g>
</g>
<g>
</g>
<g>
</g>
<g>
</g>
<g>
</g>
<g>
</g>
<g>
</g>
</svg>
