<?xml version="1.0" encoding="utf-8"?>
<!-- Generator: Adobe Illustrator 18.0.0, SVG Export Plug-In . SVG Version: 6.00 Build 0)  -->
<!DOCTYPE svg PUBLIC "-//W3C//DTD SVG 1.1//EN" "http://www.w3.org/Graphics/SVG/1.1/DTD/svg11.dtd">
<svg version="1.1" id="Layer_1" xmlns="http://www.w3.org/2000/svg" xmlns:xlink="http://www.w3.org/1999/xlink" x="0px" y="0px"
	 viewBox="0 0 9384.3 1207" enable-background="new 0 0 9384.3 1207" xml:space="preserve">
<linearGradient id="SVGID_1_" gradientUnits="userSpaceOnUse" x1="4653.1123" y1="130.0945" x2="4653.1123" y2="-0.1138">
	<stop  offset="0" style="stop-color:#E87475"/>
	<stop  offset="1" style="stop-color:#D1504A"/>
</linearGradient>
<rect x="0" y="0" fill="url(#SVGID_1_)" width="9306.2" height="1207"/>
<g>
	<path fill="#DD6568" d="M841.4,435.2c3.8,5.1,5.2,11.9,3.7,18.1"/>
	<g>
		<g>
			<g>
				<path fill="#E87475" d="M845.1,453.3C845.1,453.3,845.1,453.3,845.1,453.3C845.2,453.3,845.1,453.3,845.1,453.3z"/>
				<path fill="#E87475" d="M845.9,453L845.9,453C845.9,453,845.8,452.9,845.9,453L845.9,453z"/>
				<path fill="#E87475" d="M846.5,452.6c-0.6-0.1-0.1,0.1-0.4,0.2l-0.1,0l0.3,0.1C846.4,452.8,846.3,452.7,846.5,452.6z"/>
				<path fill="#E87475" d="M848.4,452.7c-0.3,0-0.1-0.1-0.2,0c0,0,0.1,0,0.1,0C848.2,452.8,848.3,452.8,848.4,452.7z"/>
				<path fill="#E87475" d="M848.2,452.8C848.1,452.8,848.5,452.8,848.2,452.8L848.2,452.8z"/>
				<path fill="#E87475" d="M848.6,452.6l0.1,0.1c0.2,0,0.4,0,0.5,0C849.2,452.6,849,452.6,848.6,452.6z"/>
				<path fill="#E87475" d="M848.1,452.4L848.1,452.4C848.3,452.5,848.3,452.5,848.1,452.4z"/>
				<path fill="#E87475" d="M848.3,452.6l-0.1-0.1C848,452.5,847.8,452.4,848.3,452.6C848,452.5,848.2,452.5,848.3,452.6z"/>
				<path fill="#E87475" d="M848.1,452.6c-0.2,0-0.4,0-0.6-0.1C847.4,452.6,847.9,452.7,848.1,452.6z"/>
				<path fill="#E87475" d="M845.9,452.5l-0.2,0L845.9,452.5C845.8,452.6,846.1,452.5,845.9,452.5z"/>
				<path fill="#E87475" d="M850,452.4c-0.2,0-0.6-0.1-0.9-0.1l0.1,0.1C849.5,452.3,849.7,452.3,850,452.4z"/>
				<path fill="#E87475" d="M849.1,452.3l-0.2-0.1C848.7,452.2,848.9,452.2,849.1,452.3z"/>
				<path fill="#E87475" d="M847.2,452.3c0,0,0.5,0.2,0.4,0.2C847.7,452.5,847.2,452.3,847.2,452.3L847.2,452.3z"/>
				<polygon fill="#E87475" points="850.8,452.2 851.2,452.3 850.5,452.1 				"/>
				<path fill="#E87475" d="M851.1,452c0.4,0.1,1,0.1,1.2,0.2c0.1-0.1-0.3-0.2-0.6-0.2C851.9,452,851.7,452,851.1,452z"/>
				<path fill="#E87475" d="M851.3,451.8c0.1,0,0.3,0.1,0.5,0.1C851.7,451.9,851.5,451.8,851.3,451.8z"/>
				<path fill="#E87475" d="M849.2,452.1c0.2,0,0.5,0.1,0.8,0.1L849.2,452.1L849.2,452.1z"/>
				<path fill="#E87475" d="M849.3,452L849.3,452c0.1,0,0.2,0,0.2,0C849.4,452,849.4,452,849.3,452z"/>
				<path fill="#E87475" d="M849.2,452.1L849.2,452.1C849.2,452.1,849.1,452.1,849.2,452.1z"/>
				<path fill="#E87475" d="M848,452.2c-0.2-0.1-0.5-0.2-1.1-0.2C847.2,452.1,847.6,452.1,848,452.2z"/>
				<path fill="#E87475" d="M848.3,452l-0.3,0c0.2,0,0.4,0.1,0.6,0.1L848.3,452z"/>
				<polygon fill="#E87475" points="848.2,451.9 848.3,452 848.4,452 				"/>
				<path fill="#E87475" d="M850.2,451.8c-0.3-0.1-0.2-0.1-0.2-0.2c-0.2,0-0.4,0-0.5,0.1C849.8,451.8,850.2,451.8,850.2,451.8z"/>
				<path fill="#E87475" d="M849.7,451.9L849.7,451.9C849.6,451.9,849.6,451.9,849.7,451.9z"/>
				<path fill="#E87475" d="M850.3,451.2c0,0-0.1,0-0.2,0L850.3,451.2L850.3,451.2z"/>
				<path fill="#E87475" d="M849.4,451.7c-0.2,0-0.1,0.1,0.1,0.1c0,0,0-0.1,0-0.1C849.4,451.7,849.4,451.7,849.4,451.7z"/>
				<path fill="#E87475" d="M851.1,451.6c-0.2,0-0.4,0-0.6,0C850.9,451.7,851.3,451.7,851.1,451.6z"/>
				<path fill="#E87475" d="M849.9,451.9C849.9,451.9,849.9,451.9,849.9,451.9C850.1,451.9,850,451.9,849.9,451.9z"/>
				<path fill="#E87475" d="M849.9,451.9c-0.1,0-0.2-0.1-0.4-0.1c0,0,0.1,0.1,0.1,0.1C849.7,451.9,849.8,451.9,849.9,451.9z"/>
				<path fill="#E87475" d="M844.8,450.5c0.8,0.1,1.5,0.3,0.7,0.2c0.6,0.1,3.2,0.4,4.7,0.5c-0.3,0-0.7-0.1-1.2-0.2
					c-0.4,0-1,0.1-1.7-0.1c-0.4-0.1,0.3-0.1,0.7-0.1c-1-0.1-1.4-0.3-2.9-0.4l0.5,0.1C845.4,450.6,845,450.5,844.8,450.5z"/>
				<path fill="#E87475" d="M850.1,451.4L850.1,451.4c0.2,0,0.6,0,1.2,0c-0.4-0.1-0.7-0.2-1-0.2c0,0,0,0.2-0.1,0.2L850.1,451.4z"/>
				<path fill="#E87475" d="M850.1,451.6c-0.8-0.1-1.1-0.2-2.1-0.3c0,0.1,0.6,0.1,0.9,0.2C848.9,451.3,849.3,451.6,850.1,451.6
					C850,451.6,850,451.6,850.1,451.6c0.1,0.1,0.3,0.1,0.5,0.1c0,0,0,0-0.1,0l0,0l0,0c-0.1,0-0.2,0-0.1,0c0,0,0,0,0,0
					C850.3,451.6,850.2,451.6,850.1,451.6c0.3,0,0.2,0,0.3,0c0,0,0.1,0,0.1,0c0,0,0,0,0,0c0,0-0.3-0.2-0.3-0.2
					C850.1,451.4,850.1,451.5,850.1,451.6z"/>
				<path fill="#E87475" d="M845.6,451.7c0.1,0,0.1,0,0.1,0C845.7,451.7,845.6,451.7,845.6,451.7z"/>
				<path fill="#E87475" d="M846,451.7c0.1,0,0.3,0.1,0.2,0.1c-0.2,0-0.3,0-0.5-0.1c0.2,0,0.4,0.1,0.7,0.1l-0.1,0
					c0.2,0,1.1,0,1.2,0.1C847,451.8,846.6,451.8,846,451.7z"/>
				<path fill="#E87475" d="M847.6,451.6l-0.3-0.2l-0.7,0l0.4,0.1C846.8,451.5,847.3,451.5,847.6,451.6z"/>
				<polygon fill="#E87475" points="850.7,451.3 851.6,451.4 850.3,451.2 				"/>
				<polygon fill="#E87475" points="850.6,451.1 851.4,451.2 850.9,451.1 				"/>
				<path fill="#E87475" d="M840.3,443.6l-0.2,0C840.1,443.6,840.2,443.6,840.3,443.6z"/>
				<path fill="#E87475" d="M840.3,443.8l0.4-0.1C840.5,443.7,840.3,443.7,840.3,443.8z"/>
				<path fill="#E87475" d="M850.6,446.6c0.7-0.1,1.9-0.3,1-0.2l-0.9,0.1C850.9,446.5,850.8,446.6,850.6,446.6z"/>
				<path fill="#E87475" d="M845.2,444.5c-0.1,0-0.2,0-0.3,0.1c0.3,0,0.6-0.1,0.8-0.1C845.5,444.4,845.3,444.5,845.2,444.5z"/>
				<path fill="#E87475" d="M841.6,445.1l0.5-0.2C842,445,841.8,445,841.6,445.1z"/>
				<path fill="#E87475" d="M839.1,442.9l-0.8,0.3C838.3,443.2,838.7,443,839.1,442.9z"/>
				<path fill="#E87475" d="M850.4,449.2c0.3,0,0.5-0.1,0.5-0.1C850.4,449.1,849.7,449.1,850.4,449.2z"/>
				<path fill="#E87475" d="M849.2,441.2c-0.2,0-0.3,0.1-0.5,0.1C848.8,441.3,849,441.2,849.2,441.2z"/>
				<path fill="#E87475" d="M850.9,448.9c-0.1,0-0.1,0-0.2,0c0.1,0,0.3,0.1,0.2,0.1C851.3,449,851.5,449,850.9,448.9z"/>
				<path fill="#E87475" d="M839.1,438.7C839.2,438.7,839.2,438.7,839.1,438.7C839.1,438.7,839.1,438.7,839.1,438.7z"/>
				<path fill="#E87475" d="M842.3,435.1c0.1,0,0.1,0,0.1,0C842.4,435.1,842.3,435.1,842.3,435.1z"/>
				<path fill="#E87475" d="M851.1,450.4C851.1,450.4,851.1,450.4,851.1,450.4L851.1,450.4z"/>
				<path fill="#E87475" d="M847.6,450.3c-0.1,0-0.2,0-0.4,0C847.4,450.2,847.5,450.3,847.6,450.3z"/>
				<path fill="#E87475" d="M845.6,448.5L845.6,448.5C845.4,448.5,845.4,448.5,845.6,448.5z"/>
				<path fill="#E87475" d="M850.7,450.4c0.1,0,0.2,0,0.3,0C850.8,450.4,850.8,450.4,850.7,450.4z"/>
				<path fill="#E87475" d="M851.1,450.4C851,450.4,851,450.4,851.1,450.4C851.1,450.5,851.2,450.5,851.1,450.4z"/>
				<path fill="#E87475" d="M851,450.3C851,450.3,851,450.3,851,450.3C851,450.4,851,450.4,851,450.3C851,450.3,851,450.3,851,450.3
					z"/>
				<path fill="#E87475" d="M841.2,440.1C841.3,440,841.3,440,841.2,440.1C841,440.1,841,440.1,841.2,440.1z"/>
				<path fill="#E87475" d="M841.6,446.5C841.6,446.5,841.6,446.5,841.6,446.5L841.6,446.5L841.6,446.5z"/>
				<path fill="#E87475" d="M840.9,446.5c1.1-0.1,0.9,0,0.7,0l2.5-0.3L840.9,446.5z"/>
				<path fill="#E87475" d="M839.9,443.2l-0.7,0.3c-1.2,0.3-0.8,0.1-1.9,0.5c2.6-0.8,0.3,0.1,2.9-0.6l-0.5,0.2c0,0-0.1,0-0.1,0
					c-1.2,0.4,1.9-0.5,1.6-0.3c-0.2,0.1-0.6,0.2-0.9,0.3l0.7-0.1c0,0-0.5,0.2-0.5,0.1l0.2,0.1l-0.1,0c0.4-0.1,1.1-0.2,1.3-0.3
					c-0.4,0.1-0.3,0.1-0.6,0.2l0.7-0.1c-0.7,0.2-1.4,0.3-1.3,0.2c-2.6,0.7,0.7-0.1-0.8,0.4l-0.3,0c-1.5,0.4-0.9,0.3-1.9,0.6
					c0.5-0.1,2.3-0.7,3-0.8c-0.2,0.1-0.3,0.1,0.3,0c-0.9,0.2-0.7,0.2-0.6,0.2l-1.2,0.3c0.4,0,1-0.2,1.6-0.3
					c-0.1,0.1-1.1,0.3-1.9,0.5c-0.2,0.1,1.5-0.4,1.8-0.4c-0.5,0.2,0.1,0.1,0.8,0.1c-0.4,0.1-0.8,0.2-1.1,0.3l1-0.2
					c0,0-0.3,0.1-0.5,0.1c0.4,0,1.3-0.3,1.6-0.3c1.4-0.3-2,0.5-0.4,0.3c-0.4,0.1-0.8,0.1-1.3,0.2c1-0.1,0.8-0.1,2.2-0.2l-0.8,0.2
					c0.9-0.2,2.1-0.4,3-0.4c0.5-0.1,0.8-0.2,1-0.2l0.7,0c-0.2,0.1-0.6,0.1-1.2,0.2c0.1,0,0.2,0,0.3,0c-0.5,0.1-1.2,0.2-1.9,0.3
					c0.2-0.1,0.5-0.1,0.8-0.2c-0.8,0.1-1.6,0.2-2.4,0.4c0.1,0,0.3,0,0.3,0c-0.2,0-0.4,0.1-0.5,0.1c-0.1,0,0.1,0,0.5,0l-1.4,0.3
					l0.6-0.1l-0.9,0.3c1.4-0.1,3.5-0.4,4.2-0.3c-1,0.1-1.7,0.2-2.9,0.4c1.3-0.2-0.6,0-0.3-0.2c-0.1,0.1-0.7,0.1-0.9,0.2l1.2,0
					c-1,0.1-0.7,0.1-1.2,0.2c2-0.3,1.3-0.1,1.9-0.1c-0.7,0.1-1.3,0.2-1.2,0.1c-1.5,0.3,2.3-0.2,1.1,0c0,0,0.1,0-0.3,0
					c0.6,0,0.1,0.1-0.4,0.2l0,0c-0.2,0.1,0,0.4,1.7,0.2c-0.2,0-2,0.2-2.4,0.2c0,0,1.4-0.1,2.9-0.2c1.4-0.1,2.9-0.2,2.9-0.2
					c-1.5,0.1-4.9,0.5-5.7,0.5c-0.2,0-0.4,0.1,0.1,0.1c0.2,0,2.1-0.2,2.2-0.2c-1.6,0.2-0.9,0.1-2.2,0.3c0.3-0.1,2.6-0.2,2.5-0.2
					c-0.3,0-2.3,0.2-2.5,0.2l2.2-0.1c-0.4,0-1.9,0.1-2.5,0.2c0.4,0,0,0.1,0.2,0.1l0.5-0.1c-0.3,0.1,3.2-0.1,3.1,0.1
					c-0.5,0-2.9,0.1-3.1,0.2c1.2,0,5.5-0.2,6.4,0l-0.7,0.1l0.8,0.1c-1.7,0-5.4,0-6.8,0c-0.5,0.1-0.8,0.1-0.7,0.1c-0.6,0.1-0.9,0-1,0
					l-0.4,0.2c1.3-0.1,1.4,0.1,2.5,0l-1.4-0.1c1.3-0.1,3.8-0.1,3.6,0.1c-0.5,0.1-2.4,0.1-2.8,0.1c0.5,0,0.9,0.1,0.6,0.1l-0.7,0
					c-0.5,0.1,1.8,0.1,0.5,0.2c-0.1,0-1.7,0.1-0.9,0.1c1.5-0.1,6.3-0.2,7.4-0.2c-0.1,0-1.5,0.2-2.2,0.3c-1.2,0.1-2.9,0-3.9,0
					c0.4,0,0.8,0,1,0c-0.3,0-1.1,0-1,0.1c1.4,0-0.1,0.1,1.2,0c0.4,0.1-0.3,0.1-0.2,0.1c0.9,0,3,0.1,3.4,0.2c-0.3,0-0.8,0-1,0
					c-0.1,0.1-0.7,0.2-0.8,0.3c-0.3,0-0.7,0.1-1.3,0c0.2,0,0.7,0.1,0.7,0.1c-1.2,0-0.2-0.1-1.6-0.1c0.8,0,1.1,0.1,1.6,0.2
					c1.2,0,0.2-0.1-0.3-0.2c1.7,0,3.4,0.2,4.2,0.4c0.4,0.1-1.1,0-0.9,0c-0.3,0.2,2.9,0.4,1.7,0.5c-1.1,0-2.1-0.1-2.9-0.2
					c-0.4-0.1,0.7-0.1,0.6-0.2l-0.5,0.1c-0.4-0.1-0.6-0.1-0.3-0.1c-1,0-0.2,0.4-1.1,0.5c0.4,0.1,0.7,0.1,1.2,0.1l-0.1-0.1
					c0.9,0,1.2,0.2,1.6,0.2c0.6,0.1,1.5,0.3,1,0.4l-1.2-0.1c0.4,0,0.7,0,0.4-0.1c0.5,0.1-1.7,0-0.1,0.2l0.9,0
					c0.6,0.1,1.9,0.4,1.5,0.4c1.2,0.1-0.1,0,1.3,0c-1.8-0.1,0.1-0.3-1.8-0.3c1.6,0.1,0.7-0.1,2.1-0.1c-0.4,0-0.8,0-0.6-0.1
					c-0.1,0-0.3,0-0.4,0c0,0,0,0,0,0l0,0c-0.1,0-0.1,0,0,0c-0.2,0-0.4,0-0.6,0c-0.9-0.1-0.9-0.3-1.4-0.3c0.2,0,0.5,0.1,0.9,0.1
					l-0.7-0.1c0.9,0.1,1.5,0,2,0.1l0-0.1c0.5,0,0.7-0.1,0.3-0.2c0.2,0-1-0.2-0.3-0.1l-0.5-0.2l0.2,0c0.1-0.2-1.5-0.4,0.2-0.6
					c-0.2-0.1-0.5-0.1-0.2-0.2l0.8,0c-0.3-0.1,0.8-0.2,0-0.3c2.1-0.1,0.5-0.4,0.8-0.5l-1,0c0.1-0.1-0.2-0.2-0.6-0.3l-0.9,0
					c-0.7-0.1,0.6-0.3,0.5-0.4c0.3,0,0.3,0,0,0.1c2-0.3-1.5-0.3,0-0.5c-0.3,0-0.2-0.1,0-0.1c0,0,0,0,0,0c0,0,0,0,0,0
					c0.2,0,0.3-0.1,0.5-0.1c-0.2,0-0.4,0.1-0.5,0.1c0,0-0.1-0.1-0.4-0.1l1-0.1c0,0,0,0,0,0c0.4-0.1-0.5,0-1.2,0.1
					c-0.2,0-0.4,0-0.6,0c1.5-0.1-0.5-0.1,1.1-0.3c-0.8,0-0.6-0.2-2.3-0.1c0.2,0,0.3,0,0.3,0c0.2-0.1,0.4-0.1-0.1-0.1l1.2-0.1l-1.6,0
					c0.7-0.1,1.2-0.2,2.1-0.2c-1.5,0-0.6-0.1-2-0.1l0.8-0.1c0,0-1.1,0-0.5-0.1c1.5-0.3,0.1-0.5,1.5-1c-2.3,0.4,1-0.3-0.8,0
					c0.5-0.1,0.8-0.2,1.3-0.2c-0.6-0.1,0.8-0.4-0.7-0.2c0.5-0.1,0.8-0.1,1.1-0.2c-0.1,0-0.5,0-0.2,0c0.3-0.1,0.5-0.1,0.7-0.1
					c-0.1-0.1-1.8,0.1-3.4,0.4c0.7-0.2,0.6-0.2-0.4-0.1c0.5-0.1,1-0.3,1.2-0.2c0.1-0.1,0.7-0.4-0.6-0.2c0.3-0.1,0.1-0.1-0.1-0.1
					c0.1-0.1,0.2-0.2,0-0.2l-0.2,0.1c-1.5,0.3-0.4,0-0.6-0.1l0.2,0c1-0.4-0.5,0,0.7-0.4l-0.9,0.2c-2,0.4,1.1-0.4,0.4-0.4l-0.5,0.2
					c-0.7,0.1,2.7-0.8,2.9-0.9c0.2-0.1,0.3,0,0.4-0.1c1.1-0.5-1.2,0.3-1.5,0.2c0.7-0.2,1.7-0.4,1.8-0.5c0.5-0.2-2.2,0.3-1-0.2
					c-0.5,0.2-1,0.3-1.4,0.4c-0.2,0,1.8-0.8,0.2-0.4c0.1,0,0.3-0.1,0.4-0.1c-0.4,0-0.7,0-1.6,0.2c3.2-1-1.7,0.1,1.3-0.8l-0.2-0.2
					l0.3-0.1c0.2-0.2-0.6,0-1.3,0.2c0.2-0.1,0.5-0.2,0.6-0.2c0.5-0.4,0.4-0.4-1.1,0l0.9-0.3c-0.6,0.2,1.4-0.8,0.2-0.6
					c0.1,0,0.3-0.1,0.4-0.1c-1.2,0.2,2.4-1.5-1-0.3l-0.9,0.2c-0.2,0.3-1.5,0.6-2,0.8c-0.2,0,0.9-0.6,1.2-0.6l-0.2,0.1
					c1.8-0.7,0.5-0.5,1.7-0.9c-0.2-0.3,0.6-1,0.5-1.4l-1.3,0.6l0-0.1c0.3-0.2,1-0.5,1-0.4c0.7-0.4-0.7,0.2-1,0.3
					c0.5-0.4,1.6-0.7,1.6-0.7l-0.1,0l-0.1,0.1c-0.6,0.2-1.1,0.5-1.1,0.3c0.2-0.2,0.8-0.4,0.8-0.5c0.1,0,0.1-0.1,0-0.1l0-0.2l-1,0.6
					c-0.5,0.2,0-0.2-1.2,0.5c1.8-1,0.4-0.8,0.9-1.2c-0.8,0.3-0.8,0.2-0.8,0.1c-0.2,0.1-1.3,0.8-1.2,0.6c2.4-1.2,0.9-0.7,2.6-1.7
					c-1.1,0.7-0.3-0.1-1.9,0.9c0.2-0.2,0.9-0.5,1.4-0.9c-0.9,0.3,0.1-0.6-0.7-0.4c-0.3,0.2-0.6,0.4-1.1,0.6l1-0.8
					c-0.2,0.1-1.4,0.8-0.8,0.3c-0.2,0.1-0.4,0.3-0.6,0.3c0.2-0.4-0.4-0.3-0.8-0.3c-0.2,0-0.4,0-0.5-0.1c-0.1-0.1-0.2-0.2-0.3-0.2
					c0,0.1-0.1,0.1-0.2,0.1c0,0-0.2,0.1-0.2,0.2c0,0-0.1-0.2-0.1-0.1c-0.2,0.1-0.4,0-0.5,0.1l0.1,0c-0.1,0-0.1,0-0.1,0.1
					c0,0.1-0.1,0.2-0.2,0.2c0.1,0,0,0.1-0.1,0.3c-0.1,0.2-0.3,0.4-0.1,0.3c-0.1,0.1-0.1,0.1-0.2,0.2c0.2-0.1,0.2-0.1,0.1,0.1l-0.1,0
					c0,0.3-0.3,0.6-0.9,1.2l0.5-0.3c-0.1,0.1-0.3,0.2-0.4,0.3c0.7-0.4,0.2-0.3,0.9-0.7c-0.5,0.3-0.5,0.5-0.6,0.6
					c-0.1,0.1-0.2,0.3-0.9,0.8c-0.1,0.1,0.7-0.5,0.6-0.3l-0.4,0.3l0.5-0.3c-0.1,0.1-0.6,0.5-1,0.7c0.1,0-0.1,0-0.1,0
					c-0.6,0.4-0.1,0.2-0.3,0.4l0.4-0.3c0.1,0.1-0.1,0.3-0.2,0.5c-0.1,0.1-0.1,0.2,0,0.2c0.1,0,0.3-0.1,0.6-0.2l0.4-0.2
					c0.9-0.3-0.3,0.3,0.1,0.3l-0.1,0c0.4-0.2,0.6-0.3,0.6-0.2c-0.5,0.2-0.9,0.5-1.4,0.8c0.9-0.3,0.6-0.3,2.2-1l-0.6,0.4
					c0.6-0.3,0.9-0.4,1.1-0.5c-0.6,0.2-1,0.6-1.8,0.9c-1.4,0.9,1.6-0.5-0.5,0.6c1.9-0.8,1-0.6,1.4-0.8c0.6-0.3,1.4-0.6,1.2-0.5
					c0,0.1-2.3,1.2-2.2,1.3c0,0-0.1,0.1-0.1,0c-0.5,0.3,0.7-0.2-0.1,0.2c1.1-0.5,0,0.1,1.4-0.6l-0.4,0c0.4-0.1,2.1-0.8,1.3-0.4
					c-0.3,0.1-0.7,0.3-0.9,0.3c-0.4,0.2,0.3-0.1-0.1,0.2c-1.4,0.7-0.4,0-1.5,0.5c-0.6,0.3,1.1-0.4-0.5,0.3c2-0.9-0.2,0.2,1.4-0.4
					l-0.9,0.4c0.1-0.1,0.6-0.2,0.6-0.2l-1.1,0.5c1-0.4-0.8,0.5-0.2,0.3c-0.1-0.1,1-0.5,1.6-0.8c1.2-0.4-2.2,1.1-1.8,1.1
					c-0.1,0,0.5-0.3,0.9-0.4c-0.2,0.1-0.5,0.3-0.9,0.5c0.2,0,0.9-0.4,1.5-0.6c-1.1,0.5,0.5-0.1,0.8-0.2l-0.9,0.4
					c-0.5,0.4,1.9-0.7,1.2-0.3l-1.3,0.4l0.3-0.1l-1,0.4c0.8-0.2,0.6-0.1,0.3,0c0.6-0.3,1.6-0.6,1.7-0.6c-0.5,0.2-0.9,0.3-0.7,0.3
					c-0.6,0.2-1.3,0.4-0.5,0.1c-0.3,0.1-0.6,0.2-0.9,0.3c-0.6,0.3-0.1,0.2-0.1,0.2c0,0,0.1-0.1,0.2-0.1l1.3-0.4
					c-0.3,0.1-0.6,0.2-0.9,0.3c0.1,0,0.5-0.2,0.6-0.1c-0.7,0.3-1.5,0.5-1.9,0.6l0.9-0.2c-0.3,0.1-0.9,0.4-1.1,0.5
					c-0.4,0.2,1.5-0.4,0.9-0.1c0.1,0,0.3-0.1,0.4-0.1c-0.1,0.1-1,0.5,0,0.3l-1.3,0.5c0.3,0,1.7-0.6,2.2-0.7c0.5,0-1.1,0.4-1.5,0.5
					c0.7-0.2,2.1-0.5,1-0.1C839.8,443.3,840,443.2,839.9,443.2z M840.8,443.9c-0.2,0-0.8,0.2-0.3,0
					C841.6,443.7,841.1,443.8,840.8,443.9z M843.4,445c-0.3,0-0.2,0,0.2-0.1C843.6,444.9,843.6,444.9,843.4,445z M850.3,449.9
					C850.3,449.9,850.3,449.9,850.3,449.9C850.6,449.8,850.5,449.8,850.3,449.9z M849.9,450c0.1,0,0.3,0,0.4,0
					c-0.2,0-0.3-0.1-0.2-0.1C849.8,449.9,849.7,449.9,849.9,450z M847,437l-0.2,0.1C846.5,437.2,846.7,437.1,847,437z"/>
				<path fill="#E87475" d="M842,445c0.2,0,0.3-0.1,0.5-0.1C842.4,444.9,842.2,445,842,445z"/>
				<path fill="#E87475" d="M839.3,442.8C839.3,442.8,839.3,442.8,839.3,442.8l-0.2,0L839.3,442.8z"/>
				<path fill="#E87475" d="M841.7,448.1c0.1,0,0.3,0,0.5,0C842,448.1,841.8,448.1,841.7,448.1z"/>
				<path fill="#E87475" d="M851.4,450.8l-0.2-0.1c0,0-0.2,0-0.3,0C851.1,450.8,851.4,450.8,851.4,450.8z"/>
				<path fill="#E87475" d="M845.4,450.8c0.1,0,0,0,0.1,0l0.5,0.1C846,450.9,845.6,450.8,845.4,450.8z"/>
				<path fill="#E87475" d="M848.2,450.6c-0.8-0.1-0.5,0-0.4,0.1c0,0,0,0,0,0C849,450.8,848.6,450.7,848.2,450.6z"/>
				<path fill="#E87475" d="M847.9,450.7C847.9,450.7,847.9,450.7,847.9,450.7C848.3,450.8,848,450.7,847.9,450.7z"/>
				<path fill="#E87475" d="M850.4,450.2c-0.2,0,1,0.1,0.7,0.1C852.1,450.4,849.9,450,850.4,450.2z"/>
				<polygon fill="#E87475" points="845.6,450.4 846.6,450.4 845.8,450.3 				"/>
				<path fill="#E87475" d="M846.4,450l-0.3,0.1c0.2,0,0.3,0,0.3,0C846.4,450.1,846.6,450.1,846.4,450z"/>
				<path fill="#E87475" d="M846.4,450.2c0,0,0,0,0.2,0.1C846.6,450.2,846.5,450.2,846.4,450.2z"/>
				<polygon fill="#E87475" points="845.3,450.2 845.5,450.2 845.6,450.2 				"/>
				<path fill="#E87475" d="M846.6,449.2l-0.3-0.1c-0.3,0-0.6,0-0.4,0C846.1,449.2,846.3,449.2,846.6,449.2z"/>
				<path fill="#E87475" d="M843.8,449.3c0.2,0,0.4,0,0.8,0l-1.2-0.1L843.8,449.3z"/>
				<path fill="#E87475" d="M843.6,449.1c-0.3,0-1-0.1-0.9-0.1C843,449.1,843.3,449.1,843.6,449.1z"/>
				<polygon fill="#E87475" points="845.1,447.9 845.2,448 847.2,447.9 				"/>
				<path fill="#E87475" d="M840.2,447.2c-0.5,0.1,1.3-0.1,0.7,0c0.5,0,0.5-0.1,0.9-0.1C841.3,447.1,841.6,447.1,840.2,447.2z"/>
				<path fill="#E87475" d="M841.8,447.1c0.1,0,0.2,0,0.3,0C842,447.1,841.9,447.1,841.8,447.1z"/>
				<polygon fill="#E87475" points="841.8,435.1 841.7,435.1 841.8,435.1 				"/>
				<path fill="#E87475" d="M841.5,435.2L841.5,435.2c0,0-0.1,0-0.1,0C841.4,435.2,841.5,435.2,841.5,435.2z"/>
				<path fill="#E87475" d="M838.3,444.7l0.3-0.1c0.3-0.1,0.3-0.1,0.4-0.1L838.3,444.7z"/>
				<polygon fill="#E87475" points="839,443.8 839,443.9 840.1,443.5 				"/>
				<path fill="#E87475" d="M837.5,443.8c0,0,0.2,0,0.2,0C837.4,443.8,838.9,443.3,837.5,443.8z"/>
			</g>
		</g>
	</g>
</g>
<path fill="#DD6568" d="M1861.2,1058.3c0,0-52.4-0.7-75.6,20.9c-23.2,21.6-9.1,64.7,51.4,64.5c60.6-0.2,91.2-8.8,112.2-3.9
	c21,5,63.1-17.9,56.4-47.4c-6.7-29.4-31-56.3-50.4-51.9C1935.8,1045,1893.8,1055.4,1861.2,1058.3z"/>
<path fill="#DD6568" d="M1803.1,903.9l-47.4,35.3c-8.6,6.4-13.5,16.6-13.1,27.2l0.6,17.3c0.4,12.8,8.4,24.2,20.3,29.1l31.4,12.7
	c7.8,3.2,16.5,3.2,24.3,0.1l65.9-26.3c9.6-3.8,16.8-12,19.4-22l6.3-23.9c3.2-12.1-0.8-24.9-10.3-33l-19.1-16.4
	c-6.2-5.3-14.2-8.1-22.3-7.8l-37.6,1.3C1814.8,897.7,1808.5,899.9,1803.1,903.9z"/>
<path fill="#DD6568" d="M681.8,842l10,16.4c4.2,6.9,12.3,10.4,20.2,8.8l42.4-8.7c6.6-1.4,12-6.1,14.2-12.4l2.6-7.5
	c2.5-7.1,0.5-15.1-5-20.2l-22-20.5c-6.3-5.9-15.7-6.8-23-2.3l-33,20.3C679.1,821.3,676.3,833,681.8,842z"/>
<path fill="#DD6568" d="M746.7,899.2c0,0-36.2,11.7-41.9,39.1c-5.6,27.4,32.1,59.1,54.8,63.9s78.8-2.7,78.8-2.7s33-25,18-51.1
	C841.5,922.3,836.7,862.3,746.7,899.2z"/>
<path fill="#DD6568" d="M758.7,619.8c0,0-17.7,17.5-16.8,44.3c0.9,26.7,27.5,103.3,56.5,126.3c29,22.9,49.5,47.6,89.4,60.3
	c39.9,12.7,75.8-6.8,70.3-46.1s-44.2-95.7-61-134.6C880.3,631.2,829.1,576.6,758.7,619.8z"/>
<path fill="#DD6568" d="M976.2,982.6c0,0-19.9,72.8,14.3,111.1c34.2,38.3,104.9,37.7,128.4-16.4
	C1142.5,1023.1,1037.2,869.1,976.2,982.6z"/>
<path fill="#DD6568" d="M4997.7,1132.4l9,20c3.8,8.4,11.4,14.5,20.4,16.5l50.9,11.1c12.7,2.8,25.8-3.3,31.9-14.8l23.1-43.3
	c3.8-7.1,4.5-15.4,1.9-23l-19.6-58.5c-3.1-9.3-10.7-16.4-20.2-18.9l0,0c-10.6-2.8-21.9,0.6-29.2,8.7l-63.4,70.7
	C4994.8,1109.6,4992.9,1121.9,4997.7,1132.4z"/>
<path fill="#DD6568" d="M5159.5,1030.6l-3.6-25.6c-1.3-9.5,0.2-19.1,4.5-27.7l11.2-22.5c5.3-10.6,14.3-18.9,25.4-23.2l35.9-13.9
	c13.6-5.3,28.8-4,41.3,3.4l57.9,34.2c13.5,8,22.2,22,23.2,37.6l3.1,44.6c0.5,7.9-0.9,15.9-4.3,23.1l-7.9,17.1
	c-8.2,17.8-26.5,28.7-46.1,27.5l-30.1-1.9c-6.1-0.4-12.1-1.9-17.6-4.6l-66.5-31.9C5171.6,1060,5161.7,1046.4,5159.5,1030.6z"/>
<path fill="#DD6568" d="M4806.9,1038.1c0,0,5.9,55.5,19.4,67.3c13.5,11.8,76,25.1,92.7,8.9s34.6-48.4,12.5-77.5
	S4826.7,961.6,4806.9,1038.1z"/>
<path fill="#DD6568" d="M5412.7,1108.2l19.9,11.7c8.4,4.9,18.9,4.1,26.4-2.1l40.1-33.3c6.2-5.2,9.3-13.3,8-21.3l-1.5-9.4
	c-1.4-9-8-16.3-16.8-18.6l-35-9.3c-10-2.7-20.5,1.7-25.7,10.6l-23.5,40.2C5398.1,1087.7,5401.8,1101.7,5412.7,1108.2z"/>
<path fill="#DD6568" d="M5434.8,560c0,0-31.8,32.9-22.2,65.2c9.6,32.2,67.6,44.5,94.4,36.7c26.8-7.8,82-47.6,82-47.6
	s20.8-45.2-10-64.4C5548.3,530.6,5509.3,469.8,5434.8,560z"/>
<path fill="#DD6568" d="M5441.4,779.4c0,0-8.8,28.6,7.3,56.5c16.2,27.8,87.8,94,131.6,101.9c43.8,7.9,79.6,22.4,129.1,13.2
	c49.5-9.2,76.6-50.3,48.4-88.8c-28.2-38.5-101.2-76.4-141.1-108.1C5576.7,722.3,5491.4,693.5,5441.4,779.4z"/>
<path fill="#DD6568" d="M2058.1,855.8l-33.6,9.8c-9.2,2.7-17.6,7.8-24.1,14.8l-7.2,7.7c-10.7,11.5-15.8,27.1-14,42.6l4.9,41.8
	c1.8,15.3,10.2,29.1,22.9,37.8l15.4,10.4c8.4,5.7,18.1,8.9,28.2,9.2l35.7,1.2c21.9,0.7,42.1-12.1,50.7-32.3l15.5-36
	c4.9-11.4,5.7-24.1,2.2-36l-8.3-28.4c-5.1-17.5-18.9-31.2-36.5-36.3l-22.4-6.4C2078,853,2067.7,853,2058.1,855.8z"/>
<path fill="#DD6568" d="M2248.3,803.6c-26.1,22.6-46.6,41.8-44.5,78.4c1.2,21.9,2.9,38.9,17.2,56.2c14.6,17.6,36,26.6,58.6,27.3
	c33.1,1.1,66.4,2.5,99.3-2.4c16.8-2.5,32.7-7.2,48.5-13.5c11.9-4.7,30.6-9.5,38.6-20.5c9.6-13.3,32.2-42.7,13.6-68.1
	c-18-24.7-36.5-49.2-56.1-72.7c-15.8-18.9-40.6-21.7-64.3-22.5c-27.9-1-56.1,5.1-81.1,17.6C2266.7,789.1,2257.1,796,2248.3,803.6z"
	/>
<path fill="#DD6568" d="M2196.5,984l-7,23c-2.8,9.4,5.4,18.4,15,16.3l27.7-6c10.5-2.3,13.7-15.7,5.4-22.5l-20.8-17
	C2209.9,972,2199.2,975.3,2196.5,984z"/>
<path fill="#DD6568" d="M2334.3,1019c0,0-42.9,23.5-43.4,34.4s-9.3,48.2,33.8,53.9c43.1,5.7,84.6-9.2,96.5-31.5
	c7.5-14-1.7-35.8-9.5-50c-4.7-8.7-14.3-13.5-24.1-12.5L2334.3,1019z"/>
<path fill="#DD6568" d="M2590.9,988c0,0-52.4-0.7-75.6,20.9c-23.2,21.6-9.1,64.7,51.4,64.5s91.2-8.8,112.2-3.9
	c21,5,63.1-17.9,56.4-47.4c-6.7-29.4-31-56.3-50.4-51.9C2665.5,974.7,2623.5,985,2590.9,988z"/>
<path fill="#DD6568" d="M6744.5,1015.6l-47.4,35.3c-8.6,6.4-13.5,16.6-13.1,27.2l0.6,17.3c0.4,12.8,8.4,24.2,20.3,29.1l31.4,12.7
	c7.8,3.2,16.5,3.2,24.3,0.1l65.9-26.3c9.6-3.8,16.8-12,19.4-22l6.3-23.9c3.2-12.1-0.8-24.9-10.3-33l-19.1-16.4
	c-6.2-5.3-14.2-8.1-22.3-7.8l-37.6,1.3C6756.2,1009.4,6749.8,1011.7,6744.5,1015.6z"/>
<path fill="#DD6568" d="M5784.9,980l-47.4,35.3c-8.6,6.4-13.5,16.6-13.1,27.2l0.6,17.3c0.4,12.8,8.4,24.2,20.3,29.1l31.4,12.7
	c7.8,3.2,16.5,3.2,24.3,0.1l65.9-26.3c9.6-3.8,16.8-12,19.4-22l6.3-23.9c3.2-12.1-0.8-24.9-10.3-33l-19.1-16.4
	c-6.2-5.3-14.2-8.1-22.3-7.8l-37.6,1.3C5796.6,973.8,5790.2,976.1,5784.9,980z"/>
<path fill="#DD6568" d="M7020.7,962.8l-33.6,9.8c-9.2,2.7-17.6,7.8-24.1,14.8l-7.2,7.7c-10.7,11.5-15.8,27.1-14,42.6l4.9,41.8
	c1.8,15.3,10.2,29.1,22.9,37.8l15.4,10.4c8.4,5.7,18.1,8.9,28.2,9.2l35.7,1.2c21.9,0.7,42.1-12.1,50.7-32.3l15.5-36
	c4.9-11.4,5.7-24.1,2.2-36l-8.3-28.4c-5.1-17.5-18.9-31.2-36.5-36.3l-22.4-6.4C7040.6,960,7030.3,960,7020.7,962.8z"/>
<path fill="#DD6568" d="M7482.3,898.2c-26.1,22.6-46.6,41.8-44.5,78.4c1.2,21.9,2.9,38.9,17.2,56.2c14.6,17.6,36,26.6,58.6,27.3
	c33.1,1.1,66.4,2.5,99.3-2.4c16.8-2.5,32.7-7.2,48.5-13.5c11.9-4.7,30.6-9.5,38.6-20.5c9.6-13.3,32.2-42.7,13.6-68.1
	c-18-24.7-36.5-49.2-56.1-72.7c-15.8-18.9-40.6-21.7-64.3-22.5c-27.9-1-56.1,5.1-81.1,17.6C7500.7,883.6,7491.1,890.5,7482.3,898.2z
	"/>
<path fill="#DD6568" d="M7159.2,1028.6l-7,23c-2.8,9.4,5.4,18.4,15,16.3l27.7-6c10.5-2.3,13.7-15.7,5.4-22.5l-20.8-17
	C7172.5,1016.6,7161.8,1019.9,7159.2,1028.6z"/>
<path fill="#DD6568" d="M7154.6,1141.1l1,27.8c0.4,12.6,9.7,23.1,22.1,25.1l14.7,2.4c7,1.1,14.1-0.6,19.8-4.7l12.4-9.1
	c11.1-8.1,14.1-23.5,6.8-35.2l-12.7-20.3c-4.5-7.3-12.4-11.9-20.9-12.3l-15.3-0.8C7166.8,1113.1,7154,1125.7,7154.6,1141.1z"/>
<path fill="#DD6568" d="M7296.9,1063.7c0,0-42.9,23.5-43.4,34.4c-0.5,11-9.3,48.2,33.8,53.9s84.6-9.2,96.5-31.5
	c7.5-14-1.7-35.8-9.5-50c-4.7-8.7-14.3-13.5-24.1-12.5L7296.9,1063.7z"/>
<path fill="#DD6568" d="M6014,986.9l-7,23c-2.8,9.4,5.4,18.4,15,16.3l27.7-6c10.5-2.3,13.7-15.7,5.4-22.5l-20.8-17
	C6027.3,974.9,6016.6,978.1,6014,986.9z"/>
<path fill="#DD6568" d="M6009.4,1099.4l1,27.8c0.4,12.6,9.7,23.1,22.1,25.1l14.7,2.4c7,1.1,14.1-0.6,19.8-4.7l12.4-9.1
	c11.1-8.1,14.1-23.5,6.8-35.2l-12.7-20.3c-4.5-7.3-12.4-11.9-20.9-12.3l-15.3-0.8C6021.7,1071.4,6008.9,1083.9,6009.4,1099.4z"/>
<path fill="#DD6568" d="M6151.8,1021.9c0,0-42.9,23.5-43.4,34.4s-9.3,48.2,33.8,53.9c43.1,5.7,84.6-9.2,96.5-31.5
	c7.5-14-1.7-35.8-9.5-50c-4.7-8.7-14.3-13.5-24.1-12.5L6151.8,1021.9z"/>
<path fill="#DD6568" d="M8777.9,928.6c0,0-52.4-0.7-75.6,20.9c-23.2,21.6-9.1,64.7,51.4,64.5c60.6-0.2,91.2-8.8,112.2-3.9
	s63.1-17.9,56.4-47.4s-31-56.3-50.4-51.9C8852.5,915.3,8810.5,925.7,8777.9,928.6z"/>
<path fill="#DD6568" d="M2866.8,992.1l-47.4,35.3c-8.6,6.4-13.5,16.6-13.1,27.2l0.6,17.3c0.4,12.8,8.4,24.2,20.3,29.1l31.4,12.7
	c7.8,3.2,16.5,3.2,24.3,0.1l65.9-26.3c9.6-3.8,16.8-12,19.4-22l6.3-23.9c3.2-12.1-0.8-24.9-10.3-33l-19.1-16.4
	c-6.2-5.3-14.2-8.1-22.3-7.8l-37.6,1.3C2878.6,985.9,2872.2,988.1,2866.8,992.1z"/>
<path fill="#DD6568" d="M3775.9,1060.9c0.2-1.3,0.6-2.6,1-3.9c1.5-4.3,4.4-8.1,7.2-11.7c32.3-41.5,61.1-85.3,92.3-127.6
	c2.6-3.5,5.3-7.1,8.8-9.7c7.7-5.6,18.1-2.8,26.9-3.5c11.3-1,22.8-1.9,34,0.4c23.5,5,42.6,19.3,53.1,41.1
	c30.8,64.2,24.4,115.4,18.7,128.9c-5.7,13.5-32.2,40.9-93.3,45c-31.3,2.1-64.1,0-94.2-9.4C3812.6,1105,3771.7,1086.1,3775.9,1060.9z
	"/>
<path fill="#DD6568" d="M4057.4,1145.4l-9.7-71.2c-1.9-14.2,3.2-28.5,13.7-38.3l34.5-32.1c5.9-5.5,13.3-9.3,21.2-10.9l11.9-2.5
	c14.7-3,29.9,1.6,40.4,12.3l2.7,2.7c10.2,10.4,14.7,25.2,11.9,39.5l-9.8,49.4c-0.9,4.5-2.5,8.8-4.7,12.8l-29.7,53.6
	c-8,14.4-23.4,23.2-39.9,22.7l0,0C4078.3,1183,4060.3,1166.8,4057.4,1145.4z"/>
<path fill="#DD6568" d="M3758.5,823.3l-1.1,16.3c-0.5,6.9,2.3,13.5,7.6,18l29.5,25.1c7.4,6.3,18.1,6.9,26.1,1.5l30.4-20.3
	c5-3.3,8.3-8.5,9.3-14.4l7.7-45.3c1.2-7.2-1.3-14.5-6.6-19.5v0c-6-5.6-14.5-7.3-22.2-4.5l-66.4,24.1
	C3764.7,807.3,3759.1,814.7,3758.5,823.3z"/>
<path fill="#DD6568" d="M3294.5,1050.7l-1.1,16.3c-0.5,6.9,2.3,13.5,7.6,18l29.5,25.1c7.4,6.3,18.1,6.9,26.1,1.5l30.4-20.3
	c5-3.3,8.3-8.5,9.3-14.4l7.7-45.3c1.2-7.2-1.3-14.5-6.6-19.5l0,0c-6-5.6-14.5-7.3-22.2-4.5l-66.4,24.1
	C3300.7,1034.7,3295.1,1042.2,3294.5,1050.7z"/>
<path fill="#DD6568" d="M4347.2,992.9c0,0-30,17.3-31.2,40.8c-1.2,23.5,22,46.2,47.1,36.1C4388.2,1059.8,4403.7,975.6,4347.2,992.9z
	"/>
<path fill="#DD6568" d="M7461.1,263.9c0.2-1.3,0.5-2.6,1-3.9c1.5-4.3,4.4-8,7.2-11.6c32-41.2,60.5-84.5,91.5-126.4
	c2.6-3.5,5.2-7,8.7-9.6c7.6-5.6,17.9-2.7,26.6-3.5c11.2-1,22.6-1.9,33.7,0.4c23.3,5,42.3,19.1,52.6,40.7
	c30.5,63.6,24.2,114.4,18.6,127.7c-5.6,13.3-32,40.5-92.5,44.6c-31,2.1-63.5,0-93.3-9.3C7497.5,307.6,7456.9,288.9,7461.1,263.9z"/>
<path fill="#DD6568" d="M7791.1,448.3l-11.6-85.3c-2.3-17,3.8-34.1,16.4-45.9l41.3-38.5c7.1-6.6,15.9-11.1,25.4-13.1l14.3-2.9
	c17.6-3.6,35.8,1.9,48.4,14.7l3.2,3.3c12.3,12.5,17.6,30.2,14.2,47.4l-11.7,59.2c-1.1,5.4-3,10.6-5.6,15.4l-35.6,64.3
	c-9.6,17.3-28,27.8-47.8,27.3l0,0C7816.1,493.4,7794.6,474,7791.1,448.3z"/>
<path fill="#DD6568" d="M7516.4,347.9c0,0-44.5-0.5-35.5,25.5s49.3,80.4,73.7,85.5c24.4,5.1,60.4,23.1,69.9,34.9
	c9.5,11.8,30.8,15.1,52-17c21.1-32.1,39.9-91.7,1.7-125.4C7640.1,317.7,7640.6,373,7516.4,347.9z"/>
<path fill="#DD6568" d="M7593.3,736.9l-5.8,9.3c-7.5,12-4.8,27.7,6.4,36.5l25.3,19.9c5.1,4,11.5,6.1,18.1,5.9h0
	c15.3-0.5,27.3-13.3,26.7-28.6l-0.5-15.6c-0.3-8.5-4.5-16.5-11.4-21.5l-18.9-13.7C7620,719.7,7601.8,723.3,7593.3,736.9z"/>
<path fill="#DD6568" d="M8933,1028.5l-5.8,9.3c-7.5,12-4.8,27.7,6.3,36.5l25.3,19.9c5.1,4,11.5,6.1,18.1,5.9l0,0
	c15.3-0.5,27.3-13.3,26.7-28.6l-0.5-15.6c-0.3-8.5-4.5-16.5-11.4-21.5l-18.9-13.7C8959.8,1011.4,8941.5,1014.9,8933,1028.5z"/>
<path fill="#DD6568" d="M2311.8,218.5c0,0-80.3-20.1-107.7,25.5s40.6,72.5,77.6,78c37,5.5,27.4,26,64.3,28.7
	c17.9,1.3,36.2,1.4,50.2,1.1c15.7-0.3,30.5-7.3,40.8-19.1l12.2-14c17.9-20.6,18.2-51.1,0.7-72v0c-9.5-11.4-23.1-18.5-37.9-19.7
	L2311.8,218.5z"/>
<path fill="#DD6568" d="M2506.1,291.4l-4.7,13.5c-4.6,13.2-0.5,27.9,10.2,36.9l8.4,7c9.9,8.3,23.7,10.2,35.5,4.9l30.3-13.6
	c10.8-4.9,18.3-15.1,19.7-26.9v0c1.2-10.1-2.2-20.1-9.2-27.4l-13.2-13.7c-9-9.3-22.4-12.6-34.7-8.6l-20.8,6.8
	C2517.5,273.6,2509.6,281.4,2506.1,291.4z"/>
<path fill="#DD6568" d="M3944.6,391.6l-4.7,13.5c-4.6,13.2-0.5,27.9,10.2,36.9l8.4,7c9.9,8.3,23.7,10.2,35.5,4.9l30.3-13.6
	c10.8-4.9,18.3-15.1,19.7-26.9v0c1.2-10.1-2.2-20.1-9.2-27.4l-13.2-13.7c-9-9.3-22.4-12.6-34.7-8.6l-20.8,6.8
	C3956,373.8,3948.1,381.6,3944.6,391.6z"/>
<path fill="#DD6568" d="M3831.3,488.8c0,0,33.8-12.2,65.7,4.7s13.7,53.4-11.9,48.8C3859.6,537.7,3800.3,512.8,3831.3,488.8z"/>
<path fill="#DD6568" d="M3874.4,381.9l21.9,21.6c7.6,7.5,8.7,19.4,2.5,28.1v0c-3.7,5.2-9.4,8.5-15.7,9.1l-26.4,2.6
	c-8.9,0.9-17.5-3.8-21.6-11.8l-6.4-12.5c-4.2-8.2-2.8-18,3.4-24.7l10.8-11.7C3851.5,373.6,3865.7,373.3,3874.4,381.9z"/>
<path fill="#DD6568" d="M859.5,244.1v6c0,6.6,3.2,12.8,8.5,16.6l6.4,4.6c7.8,5.7,18.6,5.1,25.8-1.3l32.2-28.9
	c2.7-2.5,4.8-5.6,5.9-9.1l6-18.9c4.2-13.2-5.7-26.7-19.6-26.7l0,0c-4.8,0-9.5,1.7-13.2,4.8l-44.5,37.3
	C862.2,232.3,859.5,238.1,859.5,244.1z"/>
<path fill="#DD6568" d="M746.1,248l1.1,0.8c9.3,6.3,21.5,6.2,30.6-0.3l0.7-0.5c8.5-6,12.8-16.5,10.9-26.8l-0.7-3.8
	c-1.5-8-6.4-14.9-13.6-18.7l0,0c-8.2-4.5-18.1-4.4-26.1,0.2l-0.5,0.3c-6.9,3.9-11.7,10.6-13.1,18.4l-0.6,3.2
	C732.9,231.3,737.3,242,746.1,248z"/>
<path fill="#DD6568" d="M250.8,381.2l1.1,0.8c9.3,6.3,21.5,6.2,30.6-0.3l0.7-0.5c8.5-6,12.8-16.5,10.9-26.8l-0.7-3.8
	c-1.5-8-6.4-14.9-13.6-18.7v0c-8.2-4.5-18.1-4.4-26.1,0.2l-0.5,0.3c-6.9,3.9-11.7,10.6-13.1,18.4l-0.6,3.2
	C237.5,364.5,241.9,375.2,250.8,381.2z"/>
<path fill="#DD6568" d="M654.9,449.9l20.4-19.9c4.6-4.5,10.5-7.5,16.9-8.6l2.6-0.4c11.5-1.9,23.1,2.7,30.2,11.9l0,0
	c7.8,10.1,8.7,24,2.3,35l-11.5,19.8c-1.5,2.7-2.7,5.5-3.4,8.5l-3.7,15.6c-1.2,5.2-3.8,10-7.4,13.9l-4.8,5.3
	c-7.4,8.1-18.5,11.8-29.2,9.8l-0.4-0.1c-16.2-3.1-27.3-18.2-25.4-34.6l4.3-37.3C646.4,461.7,649.7,455,654.9,449.9z"/>
<g>
	<path fill="#DD6568" d="M698.3,329.4c-7.7,4.9-15.4,9.9-23.1,14.8"/>
	<g>
		<path fill="#E87475" d="M694.5,323c-7.7,4.9-15.4,9.9-23.1,14.8c-8.1,5.2-0.6,18.2,7.6,13c7.7-4.9,15.4-9.9,23.1-14.8
			C710.2,330.7,702.7,317.7,694.5,323L694.5,323z"/>
	</g>
</g>
<g>
	<path fill="#DD6568" d="M771.6,691.2c10.4,20.5,22.9,40,37.4,57.9"/>
	<g>
		<path fill="#E87475" d="M765.1,694.9c10.7,21.1,23.7,40.9,38.5,59.4c2.6,3.2,8,2.7,10.6,0c3.1-3.1,2.6-7.4,0-10.6
			c-14-17.5-26-36.4-36.2-56.4C773.7,678.8,760.7,686.3,765.1,694.9L765.1,694.9z"/>
	</g>
</g>
<g>
	<path fill="#DD6568" d="M830.6,767.3"/>
	<g>
		<path fill="#E87475" d="M830.6,774.8c9.7,0,9.7-15,0-15C820.9,759.8,820.9,774.8,830.6,774.8L830.6,774.8z"/>
	</g>
</g>
<g>
	<path fill="#DD6568" d="M1060.9,977.7c13.6,13.9,25,29.9,33.7,47.3"/>
	<g>
		<path fill="#E87475" d="M1055.6,983c13.2,13.6,24,28.9,32.5,45.8c4.3,8.6,17.3,1,13-7.6c-9-18-20.8-34.4-34.8-48.9
			C1059.5,965.5,1048.9,976.1,1055.6,983L1055.6,983z"/>
	</g>
</g>
<path fill="#DD6568" d="M1275.7,1123.9c0,0,74.4,12.5,109.1-25.4c34.7-37.9,27.1-108.2-29.2-126.1
	C1299.4,954.5,1156.7,1074.6,1275.7,1123.9z"/>
<g>
	<path fill="#DD6568" d="M1262.4,1040.2c12.5-14.9,27.3-27.9,43.7-38.2"/>
	<g>
		<path fill="#E87475" d="M1267.7,1045.5c12.2-14.4,26.3-26.9,42.2-37c8.1-5.2,0.6-18.2-7.6-13c-17,10.8-32.3,24-45.3,39.4
			C1250.9,1042.2,1261.5,1052.9,1267.7,1045.5L1267.7,1045.5z"/>
	</g>
</g>
<g>
	<path fill="#DD6568" d="M1893.3,942.5c-5.9,4.4-6.9,13-11.6,18.7c-2.2,2.6-5,4.5-7.9,6.3c-6.1,3.8-12.3,7.3-18.7,10.5"/>
	<g>
		<path fill="#E87475" d="M1888,937.2c-6.1,5.1-7.7,12.8-12,19.2c-2.2,3.3-7.3,5.5-10.6,7.5c-4.6,2.8-9.4,5.3-14.1,7.7
			c-8.6,4.4-1,17.3,7.6,13c8.9-4.5,18-9.3,25.8-15.6c6.9-5.6,7.4-15.6,14-21.1C1906.1,941.6,1895.4,931.1,1888,937.2L1888,937.2z"/>
	</g>
</g>
<g>
	<path fill="#DD6568" d="M1952.2,1057.3c4-0.4,8-0.8,12-1.2"/>
	<g>
		<path fill="#E87475" d="M1952.2,1064.8c4-0.4,8-0.8,12-1.2c4.1-0.4,7.5-3.1,7.5-7.5c0-3.8-3.4-7.9-7.5-7.5c-4,0.4-8,0.8-12,1.2
			c-4.1,0.4-7.5,3.1-7.5,7.5C1944.7,1061.1,1948.1,1065.2,1952.2,1064.8L1952.2,1064.8z"/>
	</g>
</g>
<g>
	<path fill="#DD6568" d="M2102.2,890.4c15.2,10.3,25.4,27.7,27.1,45.9"/>
	<g>
		<path fill="#E87475" d="M2098.4,896.9c12.9,9,21.7,23.8,23.4,39.5c0.4,4.1,3.1,7.5,7.5,7.5c3.8,0,7.9-3.4,7.5-7.5
			c-2.2-21.4-13.1-40.1-30.8-52.4C2098,878.4,2090.5,891.4,2098.4,896.9L2098.4,896.9z"/>
	</g>
</g>
<g>
	<path fill="#DD6568" d="M2121.2,965.3"/>
	<g>
		<path fill="#E87475" d="M2121.2,972.8c9.7,0,9.7-15,0-15C2111.6,957.8,2111.6,972.8,2121.2,972.8L2121.2,972.8z"/>
	</g>
</g>
<g>
	<path fill="#DD6568" d="M2378.6,806c14.7,16.6,27.9,34.5,39.6,53.3"/>
	<g>
		<path fill="#E87475" d="M2373.3,811.3c14.2,16.2,27,33.5,38.4,51.8c5.1,8.2,18.1,0.7,13-7.6c-12-19.4-25.7-37.7-40.8-54.9
			C2377.5,793.4,2366.9,804.1,2373.3,811.3L2373.3,811.3z"/>
	</g>
</g>
<g>
	<path fill="#DD6568" d="M2432.2,886.3"/>
	<g>
		<path fill="#E87475" d="M2432.2,893.8c9.7,0,9.7-15,0-15C2422.6,878.8,2422.6,893.8,2432.2,893.8L2432.2,893.8z"/>
	</g>
</g>
<path fill="#DD6568" d="M9075.2,732.5l-5.5,46.4c-1.5,12.7,0.4,25.7,5.7,37.4l5.7,12.9c8.5,19.1,25,33.6,45.2,39.4l54,15.7
	c19.8,5.8,41.2,2.7,58.5-8.5l20.9-13.4c11.4-7.3,20.4-17.7,26.1-30l20.1-43.4c12.3-26.6,7.1-58.1-13.2-79.3l-36.3-37.8
	c-11.5-11.9-26.7-19.5-43.2-21.5l-39.3-4.6c-24.3-2.8-48.3,7-63.6,25.9l-19.6,24.2C9082.1,706.5,9076.8,719.1,9075.2,732.5z"/>
<path fill="#DD6568" d="M9110.2,471.2c14.2,43.9,27.1,79.1,73.3,95.7c27.6,9.9,49.5,16.7,78.1,8.2c29.3-8.7,51.4-30.4,64.2-57.9
	c18.6-40.1,37.8-80.4,48.8-123.4c5.7-22,8.2-44,8.7-66.7c0.4-17.1,4.2-42.7-5.1-58.2c-11.3-18.8-35.7-61.8-76.7-52.3
	c-39.8,9.3-79.5,19.2-118.7,31.1c-31.6,9.6-47.9,38.6-61.3,67.4c-15.8,33.9-23,71.7-20.6,109C9102,440.9,9105.4,456.3,9110.2,471.2z
	"/>
<path fill="#DD6568" d="M9002,591.3l38.7,32.3c15.8,13.2,39.9,4.5,43.8-15.7l11.1-58.5c4.2-22.2-19.1-39.4-39.1-28.9l-49.9,26.2
	C8989.8,555.7,8987.3,579,9002,591.3z"/>
<g>
	<path fill="#DD6568" d="M9140.8,696.2c20.6-13.3,47.3-16.9,70.7-9.4"/>
	<g>
		<path fill="#E87475" d="M9144.6,702.7c19.4-12.3,43-15.4,64.9-8.6c9.3,2.9,13.2-11.6,4-14.5c-25.5-7.9-53.9-4.2-76.5,10.1
			C9128.8,694.9,9136.4,707.9,9144.6,702.7L9144.6,702.7z"/>
	</g>
</g>
<g>
	<path fill="#DD6568" d="M9242.9,711.9"/>
	<g>
		<path fill="#E87475" d="M9242.9,719.4c9.7,0,9.7-15,0-15S9233.3,719.4,9242.9,719.4L9242.9,719.4z"/>
	</g>
</g>
<g>
	<path fill="#DD6568" d="M9181.1,312.1c28.1-9.4,57-16.4,86.3-20.9"/>
	<g>
		<path fill="#E87475" d="M9183.1,319.3c28.1-9.4,57-16.3,86.3-20.9c4-0.6,6.2-5.6,5.2-9.2c-1.2-4.3-5.2-5.9-9.2-5.2
			c-29.3,4.5-58.2,11.5-86.3,20.9C9170,307.9,9173.9,322.4,9183.1,319.3L9183.1,319.3z"/>
	</g>
</g>
<g>
	<path fill="#DD6568" d="M9308,288"/>
	<g>
		<path fill="#E87475" d="M9308,295.5c9.7,0,9.7-15,0-15S9298.3,295.5,9308,295.5L9308,295.5z"/>
	</g>
</g>
<g>
	<path fill="#DD6568" d="M2392.2,1048.3"/>
	<g>
		<path fill="#E87475" d="M2392.2,1055.8c9.7,0,9.7-15,0-15C2382.6,1040.8,2382.6,1055.8,2392.2,1055.8L2392.2,1055.8z"/>
	</g>
</g>
<g>
	<path fill="#DD6568" d="M2690.2,994c-19.8,3.1-39.5,7.2-59,12.3"/>
	<g>
		<path fill="#E87475" d="M2688.2,986.8c-19.8,3.1-39.5,7.2-59,12.3c-9.4,2.4-5.4,16.9,4,14.5c19.4-5,39.1-9.1,59-12.3
			c4-0.6,6.2-5.6,5.2-9.2C2696.2,987.8,2692.2,986.2,2688.2,986.8L2688.2,986.8z"/>
	</g>
</g>
<path fill="#DD6568" d="M246.4,841.3l-33.6,9.8c-9.2,2.7-17.6,7.8-24.1,14.8l-7.2,7.7c-10.7,11.5-15.8,27.1-14,42.6l4.9,41.8
	c1.8,15.3,10.2,29.1,22.9,37.8l15.4,10.4c8.4,5.7,18.1,8.9,28.2,9.2l35.7,1.2c21.9,0.7,42.1-12.1,50.7-32.3l15.5-36
	c4.9-11.4,5.7-24.1,2.2-36l-8.3-28.4c-5.1-17.5-18.9-31.2-36.5-36.3l-22.4-6.4C266.3,838.4,256.1,838.5,246.4,841.3z"/>
<path fill="#DD6568" d="M160.3,522.6c-26.1,22.6-46.6,41.8-44.5,78.4c1.2,21.9,2.9,38.9,17.2,56.2c14.6,17.6,36,26.6,58.6,27.3
	c33.1,1.1,66.4,2.5,99.3-2.4c16.8-2.5,32.7-7.2,48.5-13.5c11.9-4.7,30.6-9.5,38.6-20.5c9.6-13.3,32.2-42.7,13.6-68.1
	c-18-24.7-36.5-49.2-56.1-72.7c-15.8-18.9-40.6-21.7-64.3-22.5c-27.9-1-56.1,5.1-81.1,17.6C178.8,508.1,169.1,514.9,160.3,522.6z"/>
<path fill="#DD6568" d="M384.9,969.5l-7,23c-2.8,9.4,5.4,18.4,15,16.3l27.7-6c10.5-2.3,13.7-15.7,5.4-22.5l-20.8-17
	C398.2,957.5,387.5,960.7,384.9,969.5z"/>
<path fill="#DD6568" d="M522.7,1004.5c0,0-42.9,23.5-43.4,34.4c-0.5,11-9.3,48.2,33.8,53.9c43.1,5.7,84.6-9.2,96.5-31.5
	c7.5-14-1.7-35.8-9.5-50c-4.7-8.7-14.3-13.5-24.1-12.5L522.7,1004.5z"/>
<path fill="#DD6568" d="M423.4,732.2c0,0-52.4-0.7-75.6,20.9c-23.2,21.6-9.1,64.7,51.4,64.5s91.2-8.8,112.2-3.9
	c21,5,63.1-17.9,56.4-47.4c-6.7-29.4-31-56.3-50.4-51.9C498.1,718.9,456.1,729.2,423.4,732.2z"/>
<g>
	<path fill="#DD6568" d="M290.5,875.9c15.2,10.3,25.4,27.7,27.1,45.9"/>
	<g>
		<path fill="#E87475" d="M286.7,882.3c12.9,9,21.7,23.8,23.4,39.5c0.4,4.1,3.1,7.5,7.5,7.5c3.8,0,7.9-3.4,7.5-7.5
			c-2.2-21.4-13.1-40.1-30.8-52.4C286.4,863.8,278.9,876.8,286.7,882.3L286.7,882.3z"/>
	</g>
</g>
<g>
	<path fill="#DD6568" d="M309.6,950.8"/>
	<g>
		<path fill="#E87475" d="M309.6,958.3c9.7,0,9.7-15,0-15C299.9,943.3,299.9,958.3,309.6,958.3L309.6,958.3z"/>
	</g>
</g>
<path fill="#DD6568" d="M475,169.3l-42.4-10.7c-11.6-2.9-23.8-2.7-35.3,0.8l-12.6,3.8c-18.8,5.6-34.1,19.2-41.9,37.2l-21,48.2
	c-7.7,17.7-7.4,37.8,0.9,55.2l10,20.9c5.4,11.4,14,21,24.7,27.7l37.8,23.8c23.2,14.6,53,13.5,75-2.8l39.4-29.1
	c12.4-9.2,21.3-22.4,25-37.4l8.9-35.9c5.5-22.1-0.7-45.6-16.5-62.1l-20.1-21.1C498.2,178.8,487.1,172.3,475,169.3z"/>
<g>
	<path fill="#DD6568" d="M500.7,234.4c9.9,20.7,10,45.8,0.2,66.6"/>
	<g>
		<path fill="#E87475" d="M494.3,238.1c8.6,18.4,8.7,40.6,0.2,59c-1.7,3.7-1.1,8,2.7,10.3c3.3,1.9,8.6,1,10.3-2.7
			c10.8-23.8,10.8-50.5-0.2-74.2C503.1,221.8,490.2,229.4,494.3,238.1L494.3,238.1z"/>
	</g>
</g>
<g>
	<path fill="#DD6568" d="M474,327.2"/>
	<g>
		<path fill="#E87475" d="M474,334.7c9.7,0,9.7-15,0-15C464.3,319.7,464.3,334.7,474,334.7L474,334.7z"/>
	</g>
</g>
<g>
	<path fill="#DD6568" d="M290.6,525c14.7,16.6,27.9,34.5,39.6,53.3"/>
	<g>
		<path fill="#E87475" d="M285.3,530.3c14.2,16.2,27,33.5,38.4,51.8c5.1,8.2,18.1,0.7,13-7.6c-12-19.4-25.7-37.7-40.8-54.9
			C289.5,512.4,278.9,523.1,285.3,530.3L285.3,530.3z"/>
	</g>
</g>
<g>
	<path fill="#DD6568" d="M344.3,605.3"/>
	<g>
		<path fill="#E87475" d="M344.3,612.8c9.7,0,9.7-15,0-15C334.6,597.8,334.6,612.8,344.3,612.8L344.3,612.8z"/>
	</g>
</g>
<g>
	<path fill="#DD6568" d="M580.6,1033.8"/>
	<g>
		<path fill="#E87475" d="M580.6,1041.3c9.7,0,9.7-15,0-15S570.9,1041.3,580.6,1041.3L580.6,1041.3z"/>
	</g>
</g>
<g>
	<path fill="#DD6568" d="M522.8,738.2c-19.8,3.1-39.5,7.2-59,12.3"/>
	<g>
		<path fill="#E87475" d="M520.8,731c-19.9,3.1-39.5,7.2-59,12.3c-9.4,2.4-5.4,16.9,4,14.5c19.4-5,39.1-9.1,59-12.3
			c4-0.6,6.2-5.6,5.2-9.2C528.8,732,524.8,730.4,520.8,731L520.8,731z"/>
	</g>
</g>
<g>
	<path fill="#DD6568" d="M3898,940.1c-10,20.5-20,41-30,61.5"/>
	<g>
		<path fill="#E87475" d="M3891.5,936.3c-10,20.5-20,41-30,61.5c-4.2,8.7,8.7,16.3,13,7.6c10-20.5,20-41,30-61.5
			C3908.7,935.2,3895.7,927.6,3891.5,936.3L3891.5,936.3z"/>
	</g>
</g>
<g>
	<path fill="#DD6568" d="M3928.3,934.3c3.5-0.5,7-1,10.5-1.5"/>
	<g>
		<path fill="#E87475" d="M3930.2,941.6c3.5-0.5,7-1,10.5-1.5c4.1-0.6,6.2-5.7,5.2-9.2c-1.2-4.3-5.2-5.8-9.2-5.2
			c-3.5,0.5-7,1-10.5,1.5c-4.1,0.6-6.2,5.7-5.2,9.2C3922.2,940.6,3926.2,942.2,3930.2,941.6L3930.2,941.6z"/>
	</g>
</g>
<g>
	<path fill="#DD6568" d="M4142.5,1017.7c6.1,1.7,9,8.5,10.7,14.6c2.5,8.6,4.4,17.7,3.1,26.6"/>
	<g>
		<path fill="#E87475" d="M4140.5,1024.9c4.3,1.5,5.5,9.2,6.5,12.9c1.9,7,2.8,13.9,1.8,21.1c-0.5,4.1,3.8,7.5,7.5,7.5
			c4.5,0,7-3.4,7.5-7.5c1.3-10.1-0.8-20.3-3.7-29.9c-2.5-8.4-7.1-15.6-15.6-18.5C4135.3,1007.2,4131.4,1021.7,4140.5,1024.9
			L4140.5,1024.9z"/>
	</g>
</g>
<g>
	<path fill="#DD6568" d="M3849,826.7c-0.6,3.3-1.2,6.7-1.8,10c-0.3,1.7-0.6,3.5-1.3,5.1c-2.6,6.1-9.9,8.8-13.9,14.2"/>
	<g>
		<path fill="#E87475" d="M3841.7,824.7c-0.9,4.8-0.8,12.3-4.2,16.1c-3.3,3.7-7.8,6-10.9,9.9c-2.6,3.2-3.1,7.5,0,10.6
			c2.7,2.7,8,3.2,10.6,0c3.8-4.7,9.3-7.6,13-12.4c4.4-5.7,4.7-13.4,6-20.2C3857.9,819.3,3843.4,815.2,3841.7,824.7L3841.7,824.7z"/>
	</g>
</g>
<g>
	<path fill="#DD6568" d="M4363.4,1012.7c2.7,3.7,4,8.3,3.8,12.8"/>
	<g>
		<path fill="#E87475" d="M4356.9,1016.5c0.5,0.7,0.9,1.4,1.4,2.1c0.5,0.8,0.5,0.9,0.9,2.1c0.7,2.1,0.6,2.5,0.5,4.7
			c-0.1,4.1,3.5,7.5,7.5,7.5c4.2,0,7.4-3.4,7.5-7.5c0.2-5.8-1.4-11.8-4.8-16.6c-2.3-3.3-6.5-4.9-10.3-2.7
			C4356.3,1008.1,4354.5,1013.1,4356.9,1016.5L4356.9,1016.5z"/>
	</g>
</g>
<g>
	<path fill="#DD6568" d="M5198.8,962.5c-8.6,14.3-10.4,32.4-5,48.1"/>
	<g>
		<path fill="#E87475" d="M5192.3,958.7c-9.4,16.3-11.6,36-5.7,53.8c3,9.1,17.5,5.2,14.5-4c-4.7-14.2-3.3-29.3,4.2-42.3
			C5210.1,957.9,5197.1,950.3,5192.3,958.7L5192.3,958.7z"/>
	</g>
</g>
<g>
	<path fill="#DD6568" d="M5225.3,947.5c3.7-3.2,7.9-5.8,12.5-7.6"/>
	<g>
		<path fill="#E87475" d="M5230.6,952.8c2.3-2,6.5-4.6,9.2-5.7c3.8-1.6,6.4-4.9,5.2-9.2c-1-3.6-5.4-6.8-9.2-5.2
			c-5.9,2.4-11,5.4-15.8,9.6c-3.1,2.7-2.7,7.9,0,10.6C5223.1,955.8,5227.5,955.4,5230.6,952.8L5230.6,952.8z"/>
	</g>
</g>
<g>
	<path fill="#DD6568" d="M5485.2,788.7c7.4,28.1,27.7,52.6,54,65.1"/>
	<g>
		<path fill="#E87475" d="M5477.9,790.7c8.2,30.1,29.3,55.9,57.4,69.6c8.7,4.2,16.3-8.7,7.6-13c-24.7-12-43.3-34-50.5-60.6
			C5489.8,777.4,5475.4,781.3,5477.9,790.7L5477.9,790.7z"/>
	</g>
</g>
<g>
	<path fill="#DD6568" d="M5454.3,574.8c-4.5,6.8-8.7,14.2-9.3,22.3c-0.6,8.1,3.3,17.1,10.9,20"/>
	<g>
		<path fill="#E87475" d="M5447.8,571c-5.9,9-11.1,19.1-10.2,30.2c0.7,9.2,5.8,18.5,14.6,22.4c3.7,1.6,8,1.1,10.3-2.7
			c1.9-3.2,1.1-8.6-2.7-10.3c-13.8-6.1-4.6-23.4,1-32C5466.1,570.5,5453.1,563,5447.8,571L5447.8,571z"/>
	</g>
</g>
<g>
	<path fill="#DD6568" d="M5471.7,556.2"/>
	<g>
		<path fill="#E87475" d="M5471.7,563.7c9.7,0,9.7-15,0-15C5462,548.7,5462,563.7,5471.7,563.7L5471.7,563.7z"/>
	</g>
</g>
<g>
	<path fill="#DD6568" d="M6798.9,1027.9c7.7,4,15.3,8,23,12"/>
	<g>
		<path fill="#E87475" d="M6795.1,1034.4c7.7,4,15.3,8,23,12c8.6,4.5,16.2-8.5,7.6-13c-7.7-4-15.3-8-23-12
			C6794.1,1017,6786.5,1029.9,6795.1,1034.4L6795.1,1034.4z"/>
	</g>
</g>
<g>
	<path fill="#DD6568" d="M7024.3,984.7c12.7-3.6,25.8,2.9,37.4,9.1c2.6,1.4,5.3,2.9,7.5,4.9c5.1,4.7,7,11.9,8.7,18.6"/>
	<g>
		<path fill="#E87475" d="M7026.3,991.9c10.6-2.6,20.9,2.7,30,7.5c3.9,2,7.7,3.8,10.1,7.6c2.3,3.6,3.2,8.1,4.3,12.2
			c2.3,9.4,16.8,5.4,14.5-4c-1.5-5.9-3.2-11.9-6.6-17.1c-3.5-5.5-9-8.8-14.7-11.8c-12.9-6.9-26.8-12.6-41.6-9
			C7012.9,979.7,7016.9,994.2,7026.3,991.9L7026.3,991.9z"/>
	</g>
</g>
<g>
	<path fill="#DD6568" d="M6837.5,895.2c5.9,9.4,11.8,18.8,17.7,28.2"/>
	<g>
		<path fill="#E87475" d="M6831,899c5.9,9.4,11.8,18.8,17.7,28.2c5.1,8.2,18.1,0.7,13-7.6c-5.9-9.4-11.8-18.8-17.7-28.2
			C6838.8,883.2,6825.8,890.8,6831,899L6831,899z"/>
	</g>
</g>
<g>
	<path fill="#DD6568" d="M7146.1,271.8c-16.2,30.6-32.4,61.1-48.6,91.7"/>
	<g>
		<path fill="#E87475" d="M7139.6,268c-16.2,30.6-32.4,61.1-48.6,91.7c-4.5,8.5,8.4,16.1,13,7.6c16.2-30.6,32.4-61.1,48.6-91.7
			C7157.1,267,7144.1,259.4,7139.6,268L7139.6,268z"/>
	</g>
</g>
<g>
	<path fill="#DD6568" d="M7524.5,390.1c7.2,11.4,15,23.3,27,29.4c4.5,2.3,9.4,3.6,14.3,5c8.3,2.3,16.5,4.6,24.8,6.9"/>
	<g>
		<path fill="#E87475" d="M7518,393.9c7.1,11.2,14.6,22.1,25.7,29.7c6,4.1,13.2,6.2,20.1,8.1c8.3,2.3,16.5,4.6,24.8,6.9
			c9.3,2.6,13.3-11.9,4-14.5c-7-1.9-14-3.9-21-5.8c-6-1.7-12.1-3.1-17.7-6c-10.3-5.5-16.9-16.4-22.9-25.9
			C7525.8,378.2,7512.8,385.7,7518,393.9L7518,393.9z"/>
	</g>
</g>
<path fill="#DD6568" d="M8347.7,979.9c-26.1,22.6-46.6,41.8-44.5,78.4c1.2,21.9,2.9,38.9,17.2,56.2c14.6,17.6,36,26.6,58.6,27.3
	c33.1,1.1,66.4,2.5,99.3-2.4c16.8-2.5,32.7-7.2,48.5-13.5c11.9-4.7,30.6-9.5,38.6-20.5c9.6-13.3,32.2-42.7,13.6-68.1
	c-18-24.7-36.5-49.2-56.1-72.7c-15.8-18.9-40.6-21.7-64.3-22.5c-27.9-1-56.1,5.1-81.1,17.6C8366.2,965.4,8356.5,972.2,8347.7,979.9z
	"/>
<path fill="#DD6568" d="M7946.9,963.1c0,0-53.8-0.6-42.9,30.8c10.9,31.4,59.6,97.2,89.1,103.4c29.6,6.2,73.1,27.9,84.6,42.2
	s37.3,18.3,62.9-20.5c25.6-38.8,48.2-110.9,2.1-151.6C8096.5,926.6,8097,993.4,7946.9,963.1z"/>
<g>
	<path fill="#DD6568" d="M7956.6,1014.1c8.7,13.7,18.1,28.1,32.7,35.5c5.4,2.8,11.4,4.4,17.3,6c10,2.8,20,5.5,30,8.3"/>
	<g>
		<path fill="#E87475" d="M7950.2,1017.9c8.6,13.5,17.7,26.9,31.3,35.9c7.5,4.9,16.4,7.3,25,9.6c9.4,2.6,18.8,5.2,28.1,7.8
			c9.3,2.6,13.3-11.9,4-14.5c-8.1-2.2-16.3-4.5-24.4-6.7c-8.1-2.3-16.5-4.1-23.8-8.4c-12.1-6.9-19.9-19.8-27.2-31.3
			C7957.9,1002.2,7944.9,1009.7,7950.2,1017.9L7950.2,1017.9z"/>
	</g>
</g>
<g>
	<path fill="#DD6568" d="M7814.2,348.7c2.5,23.7,6.4,47.3,11.7,70.6"/>
	<g>
		<path fill="#E87475" d="M7806.7,348.7c2.6,24.4,6.6,48.6,12,72.6c2.1,9.4,16.6,5.4,14.5-4c-5.1-22.6-9-45.5-11.5-68.6
			c-0.4-4.1-3.1-7.5-7.5-7.5C7810.5,341.2,7806.3,344.7,7806.7,348.7L7806.7,348.7z"/>
	</g>
</g>
<path fill="#D1504A" d="M2466.3,628.5c-10.5,2.4-21.1,2.4-31.6,0c-18.5-4.2-34.3-15.4-44.4-31.5c-2.4-3.9-4.5-7.9-6.1-12.1
	l-73.7-16.8c-9,8.5-20.3,14.6-32.8,17.5c-10.5,2.4-21.1,2.4-31.6,0c-38.2-8.7-62.3-46.9-53.6-85.1c1.9-8.4,5.2-16.2,9.7-23.1
	c-1.1-8.2-0.7-16.7,1.2-25c6-26.5,27-47.5,53.6-53.6c10.5-2.4,21.1-2.4,31.6,0c23.5,5.3,41.6,21.6,50.1,42.2l75.2,17.1
	c8.8-7.9,19.7-13.7,31.8-16.4c10.5-2.4,21.1-2.4,31.6,0c38.2,8.7,62.3,46.9,53.6,85.1c-1.9,8.4-5.2,16.2-9.7,23.1
	c1.1,8.2,0.7,16.7-1.2,25.1C2513.8,601.4,2492.8,622.4,2466.3,628.5C2466.3,628.5,2466.3,628.5,2466.3,628.5z"/>
<path fill="#DAD7C3" d="M2445.9,533.1c6.4-3,11.3-8.7,13-16.1c2.9-12.7-5.1-25.3-17.8-28.2c-12.4-2.8-24.7,4.7-28,16.9l-96.1-21.8
	c2.3-12.4-5.5-24.5-17.9-27.3c-12.7-2.9-25.3,5.1-28.2,17.8c-1.7,7.4,0.3,14.7,4.7,20.1c-6.4,3-11.3,8.7-13,16.1
	c-2.9,12.7,5.1,25.3,17.8,28.2c12.7,2.9,25.3-5.1,28.2-17.8l96,21.8c-2.9,12.7,5.1,25.3,17.8,28.2c12.7,2.9,25.3-5.1,28.2-17.8
	C2452.4,545.9,2450.4,538.6,2445.9,533.1z"/>
<path fill="#D1504A" d="M4092.6,925.6c-10.7-0.5-20.9-3.4-30.4-8.5c-16.7-9-28.9-24-34.4-42.2c-1.3-4.4-2.2-8.8-2.6-13.3l-66.5-35.9
	c-11,5.7-23.5,8.7-36.2,8c-10.7-0.5-20.9-3.4-30.4-8.5c-34.5-18.6-47.4-61.9-28.8-96.4c4.1-7.5,9.4-14.2,15.6-19.6
	c1.2-8.2,3.8-16.3,7.9-23.8c12.9-23.9,38.8-38.5,66-37.3c10.7,0.5,20.9,3.4,30.4,8.5c21.2,11.4,34.3,31.9,36.9,54.1l67.8,36.6
	c10.6-5.3,22.7-7.9,35-7.3c10.7,0.5,20.9,3.4,30.4,8.5c34.5,18.6,47.4,61.9,28.8,96.4c-4.1,7.5-9.4,14.2-15.6,19.6
	c-1.2,8.2-3.8,16.3-7.9,23.8C4145.7,912.2,4119.8,926.9,4092.6,925.6L4092.6,925.6z"/>
<path fill="#DAD7C3" d="M4098.6,828.3c6.9-1.2,13.2-5.4,16.8-12c6.2-11.5,1.9-25.7-9.5-31.9c-11.2-6-25.1-2.1-31.5,8.7l-86.7-46.8
	c5.6-11.3,1.2-25.1-10-31.1c-11.5-6.2-25.7-1.9-31.9,9.5c-3.6,6.7-3.6,14.3-0.8,20.7c-6.9,1.2-13.2,5.4-16.8,12
	c-6.2,11.5-1.9,25.7,9.5,31.9c11.5,6.2,25.7,1.9,31.9-9.5l86.7,46.8c-6.2,11.5-1.9,25.7,9.5,31.9c11.5,6.2,25.7,1.9,31.9-9.5
	C4101.3,842.3,4101.4,834.7,4098.6,828.3z"/>
<path fill="#D1504A" d="M5674.3,285.3c-7.7,5.5-16.4,9.1-25.8,10.7c-16.5,2.8-33.2-1-46.9-10.7c-3.3-2.3-6.3-5-9.1-7.8l-65.8,11.2
	c-4.5,10-11.6,18.8-20.8,25.3c-7.7,5.5-16.4,9.1-25.8,10.7c-34.2,5.8-66.7-17.2-72.5-51.4c-1.3-7.5-1.2-15,0.1-22.1
	c-3.7-6.3-6.2-13.4-7.5-20.9c-4-23.7,6-47.9,25.6-61.8c7.7-5.5,16.4-9.1,25.8-10.7c21-3.6,41.2,3.5,55.1,17.5l67.1-11.5
	c4.5-9.5,11.5-17.8,20.4-24.2c7.7-5.5,16.4-9.1,25.8-10.7c34.1-5.8,66.7,17.2,72.5,51.4c1.3,7.5,1.2,14.9-0.1,22.1
	c3.7,6.3,6.2,13.4,7.5,20.9C5703.9,247.1,5693.9,271.4,5674.3,285.3C5674.3,285.3,5674.3,285.3,5674.3,285.3z"/>
<path fill="#DAD7C3" d="M5625.5,214.3c4.2-4.6,6.3-11,5.2-17.5c-1.9-11.3-12.7-19-24-17c-11.1,1.9-18.6,12.2-17.1,23.2l-85.8,14.6
	c-2.3-10.9-12.8-18.1-23.9-16.2c-11.3,1.9-19,12.7-17,24c1.1,6.6,5.2,11.9,10.7,14.8c-4.2,4.6-6.3,11-5.2,17.5
	c1.9,11.3,12.7,19,24,17c11.3-1.9,19-12.7,17-24l85.8-14.6c1.9,11.3,12.7,19,24,17c11.3-1.9,19-12.7,17-24
	C5635,222.6,5630.9,217.3,5625.5,214.3z"/>
<g>
</g>
<g>
</g>
<g>
</g>
<g>
</g>
<g>
</g>
<g>
</g>
<g>
</g>
<g>
</g>
<g>
</g>
<g>
</g>
<g>
</g>
<g>
</g>
<g>
</g>
<g>
</g>
<g>
</g>
</svg>
