<?xml version="1.0" encoding="utf-8"?>
<!-- Generator: Adobe Illustrator 18.0.0, SVG Export Plug-In . SVG Version: 6.00 Build 0)  -->
<!DOCTYPE svg PUBLIC "-//W3C//DTD SVG 1.1//EN" "http://www.w3.org/Graphics/SVG/1.1/DTD/svg11.dtd">
<svg version="1.1" id="Layer_1" xmlns="http://www.w3.org/2000/svg" xmlns:xlink="http://www.w3.org/1999/xlink" x="0px" y="0px"
	 viewBox="0 0 815 541.9" enable-background="new 0 0 815 541.9" xml:space="preserve">
<g>
	<path fill="#F1625B" d="M706.5,85.2l84.5,25.6c9.2,2.8,12.7,13.9,6.9,21.5l-14.7,19c-4.4,5.8-12.6,7.1-18.6,2.9l-62.9-43.3
		L706.5,85.2z"/>
	<path fill="#F1625B" d="M696.9,75.5l85.3-22.9c9.3-2.5,18.2,5.1,17.2,14.6L797,91.1c-0.7,7.3-7,12.7-14.3,12.3l-76.3-3.6
		L696.9,75.5z"/>
	<path fill="#4F4F51" d="M279.9,239.5c0-8.8,1-16.3,3-22.8l-0.4-0.7c0.6-1,1.1-1.9,1.7-2.8c2.4-6.4,5.8-11.9,9.9-16.7
		c2.1-2.7,4.3-5.4,6.6-8c11.9-15.8,25.6-30.4,41.1-42.7c19.5-15.5,36.7-26.1,47.8-49.7c3.4-7.3,8.5-16.3,18-15.6
		c14.3,1,27.1,10.2,39.8,16c13.2,6.1,17.5,14.5,21,28.3c6.9,27.3-7.8,67.1-50.7,122.9c-0.8,1-1.6,2-2.4,3c-0.3,0.4-0.6,0.8-0.9,1.1
		c-52.1,65.9-92.9,44.3-92.9,44.3C299.7,289.8,280,263.1,279.9,239.5z"/>
	<path fill="#FFFFFF" d="M465.4,184.7c0,0-25.8,17.7-51.5,46.1l101.5,101.4L486,186.4L465.4,184.7z"/>
	<path fill="#58595B" d="M413.9,230.7c-22.9,25.3-45.6,59.1-49.8,96.5c-8.9,79.5,54.8,99.7,54.8,99.7s73.3,22.7,96.5-94.9l-9.4-46.7
		L413.9,230.7z"/>
	<path fill="#FFFFFF" d="M712.9,184.7c0,0,25.8,17.7,51.5,46.1L662.9,332.1l29.4-145.7L712.9,184.7z"/>
	<path fill="#58595B" d="M764.4,230.7c22.9,25.3,45.6,59.1,49.8,96.5c8.9,79.5-54.8,99.7-54.8,99.7s-73.3,22.7-96.5-94.9l9.4-46.7
		L764.4,230.7z"/>
	<g>
		<path fill="#58595B" d="M117.2,339c0,0-42.7,40.8-57.4,60.3C48,415,32.6,427.9,13.5,431.2c-0.2,0-0.4,0.1-0.7,0.1
			C1.4,433.5-4,447.2,3.3,455.4l66.9,75.5c8.9,10,24.1,11,34.1,2.1l80.8-59.4L117.2,339z"/>
	</g>
	<g>
		<path fill="#58595B" d="M377,379.4c0,0-2.2,59-7,83c-3.9,19.3-3.4,39.3,6.8,55.8c0.1,0.2,0.2,0.4,0.3,0.6
			c5.9,10-0.7,23.1-11.7,23.1H264.9c-13.3,0-24.1-10.8-24.1-24.1v-41.7L377,379.4z"/>
	</g>
	<g>
		<path fill="#FFFFFF" d="M139.7,244.2c2.7,2,5.9,3.1,9.3,3.3c23.2,1.4,74.6,4.6,86.9,5.3c0-0.1,0-0.2-0.1-0.2c0,0,4.4,0.4,4.8,0.5
			c0.4,0,4.8,0.3,4.8,0.3c0,0-0.1,0.1-0.1,0.2c12.7,1.2,68,6.6,89.4,8.7c5.6,0.5,29.5-5.1,32.1-0.4c10.1,17.7,20,72.6,12.2,126.2
			c-12.3,85.1-122.3,101.2-194,85.6c-16.4-3.6-32.5-9.3-46.9-17.6c-15.2-8.8-29.6-19.7-38.3-34.9c-9.6-16.9-14.7-36.4-15.2-55.6
			c-0.6-21,2.6-42,7.3-62.5c6.7-29.2,11.6-65.4,23.5-92.9C119.7,200.6,131.2,237.9,139.7,244.2z"/>
	</g>
	<path fill="#58595B" d="M372.4,274c0,0-37.9,55.5-144.3,54.8c-103.5-0.7-128.5-64.2-128.5-64.2l17.8-74l246.7,52.2L372.4,274z"/>
	<path fill="#58595B" d="M411.7,306.5l-0.3,57.2l26.6,0.1c9.9,0.1,18-8,18.1-17.9l0.2-39.2c0-8.9-7.2-16.2-16.1-16.3l-12.1-0.1
		C419.1,290.4,411.8,297.6,411.7,306.5z"/>
	<g>
		<path fill="#58595B" d="M430,374.6c0,0,1.2,42.7,6.6,70.9c4.3,22.7,3.7,46.2-7.5,65.7c-0.1,0.2-0.3,0.4-0.4,0.7
			c-6.5,11.8,0.8,27.2,12.9,27.2h110.9c14.7,0,26.6-12.7,26.6-28.4v-49.1L430,374.6z"/>
	</g>
	<g>
		<path fill="#58595B" d="M756.1,374.6c0,0-1.2,42.7-6.6,70.9c-4.3,22.7-3.7,46.2,7.5,65.7c0.1,0.2,0.3,0.4,0.4,0.7
			c6.5,11.8-0.8,27.2-12.9,27.2H633.7c-14.7,0-26.6-12.7-26.6-28.4v-49.1L756.1,374.6z"/>
	</g>
	<g>
		<path fill="#FFFFFF" d="M728,202.6L704,218.1c-22.3-0.4-90.1-1.7-105.3-2c0-0.1,0.1-0.2,0.1-0.2c0,0-5.1,0.1-5.5,0.1
			c-0.5,0-5.5-0.1-5.5-0.1c0,0,0.1,0.1,0.1,0.2c-18.2,0.3-112.4,2.1-112.4,2.1s-50.8,64.4-46.5,146.6
			c4.6,89.1,88.3,123.8,164.3,120.7c52.2,2.1,108.1-13.6,139.4-52.5l0,0C803.9,352,728,202.6,728,202.6z"/>
	</g>
	<g>
		<path fill="#EDEDEE" d="M635,284c2.3-1.6,3.6-3.4,3.7-5.7c0.3-11.1-31.7-13.9-39.2-14.9c-22.1-3-44.3-4.1-66.4-6.6
			c-10.5-1.2-45.1-14.5-53.2-5.3c-14.3,16.1,70.8,38.9,82.1,39.7C582.4,292.5,617.2,296.2,635,284z"/>
	</g>
	<circle fill="#EDEDEE" cx="509.1" cy="36.3" r="36.3"/>
	<circle fill="#EDEDEE" cx="684.2" cy="42.5" r="36.3"/>
	<path fill="#FFFFFF" d="M699.1,37.7c-10-5-20.7-8.3-31.7-9.8c-6.3-0.9-44.2-3.1-62.2,1c-6.3,1.4-12.8,1.4-19.1,0
		c-18-4.2-55.9-1.9-62.2-1c-11,1.5-21.7,4.9-31.7,9.8c-42.1,20.9-70.2,70.1-65.5,118.9c5.1,52.8,48.6,87.1,90.4,109.2
		c0.5,0.2,1.6,0.7,3.1,1.4c48.5,19.9,102.4,19.9,150.8,0c1.6-0.6,2.6-1.1,3.1-1.4c41.8-22,85.3-56.4,90.4-109.2
		C769.3,107.8,741.2,58.6,699.1,37.7z"/>
	<path fill="#EDEDEE" d="M599,99.2h-13.1c-19.9,0-37.1,14.1-40.8,33.7l-5.4,27.7c-5,25.7,14.7,49.5,40.8,49.5h23.9
		c26.1,0,45.8-23.8,40.8-49.5l-5.4-27.7C636.1,113.3,619,99.2,599,99.2z"/>
	<path fill="#5F6062" d="M577.6,146.4h29.8c9.3,0,14.2,11.5,7.9,18.6l-9.1,10.3c-7.5,8.4-19.8,8.4-27.3,0l-9.1-10.3
		C563.4,157.9,568.2,146.4,577.6,146.4z"/>
	<circle fill="#D1D3D4" cx="526" cy="130.9" r="16.9"/>
	<circle fill="#5F6062" cx="526" cy="130.9" r="10.6"/>
	<circle fill="#D1D3D4" cx="658.6" cy="132.2" r="16.9"/>
	<circle fill="#5F6062" cx="658.6" cy="132.2" r="10.6"/>
	<g>
		<path fill="#5F6062" d="M575.4,194.7c1-1.3,2.3-2.5,3.6-3.5c1.5-0.6,3-1.2,4.6-1.6c3.1-0.9,6.4-1.5,9.7-1.6
			c3.3-0.2,6.6,0.3,9.8,1.2c0.8,0.3,1.6,0.5,2.4,0.8c0.7,0.4,1.5,0.7,2.3,1c0.3,0.3,0.7,0.5,1,0.8c0.3,0.3,0.6,0.6,0.9,0.9
			c0.6,0.6,1.1,1.3,1.6,1.9c-0.8-0.2-1.6-0.4-2.4-0.6c-0.4-0.1-0.8-0.2-1.1-0.3c-0.4-0.1-0.8-0.1-1.2-0.2c-0.7-0.3-1.3-0.6-2-0.9
			c-0.7-0.3-1.4-0.5-2.1-0.7c-2.8-0.8-5.8-1.2-8.8-1.1c-3,0.1-6,0.6-8.9,1.5c-1.4,0.4-2.9,0.9-4.3,1.6
			C578.6,194.2,577.1,194.5,575.4,194.7z"/>
	</g>
	<path fill="#EDEDEE" d="M587.8,38.7c0,9.7-0.1,19.3-0.4,28.9c-0.2,5.2,14,1,14.1-3.6c0.3-9.6,0.5-19.3,0.4-28.9
		C601.9,29.8,587.8,34.1,587.8,38.7L587.8,38.7z"/>
	<path fill="#58595B" d="M154.5,223.4c8.1,2.8,14.7,6.2,20.1,10.1l0.8-0.2c0.7,0.8,1.4,1.6,2.1,2.4c5.1,4.3,9.1,9.2,12.2,14.5
		c1.8,2.8,3.6,5.7,5.3,8.6c10.8,16.1,1.8,39.6,8.2,57.9c8,23,30.3,36,48.6,53.9c5.6,5.5,12.3,13.1,8.6,21.6
		c-5.6,12.9-18.1,21.7-27.5,31.6c-9.9,10.3-19,11.5-32.8,10.3c-27.5-2.4-72.5-6.8-110.3-64.3c-0.7-1-1.4-2.1-2.1-3.2
		c-0.3-0.4-0.5-0.8-0.8-1.2c-44.2-69.2,2-121.9,2-121.9C101.8,225.5,132.6,216,154.5,223.4z"/>
	
		<ellipse transform="matrix(-0.9668 -0.2556 0.2556 -0.9668 198.4172 189.6002)" fill="#58595B" cx="111.5" cy="81.9" rx="30.4" ry="31.6"/>
	
		<ellipse transform="matrix(-0.9751 0.2217 -0.2217 -0.9751 554.9435 33.4427)" fill="#58595B" cx="275.6" cy="47.9" rx="30.4" ry="31.6"/>
	<path fill="#FFFFFF" d="M384.2,197.8c7.5-43.7-18.2-87.9-48-117.7c-40.6-40.5-103.1-51.6-156.9-34.4
		C129.6,61.5,98.5,104.9,89.7,155c-5.6,31.8-6.3,70.7,13,98.4c33,47.4,102.6,47.5,153.4,40.3c38.5-5.5,94.3-22.5,114.9-58.6
		C377.5,223.7,381.9,211,384.2,197.8z"/>
	<path fill="#58595B" d="M175.3,162.4c8.6-15.6,22.8-29.2,38.6-33c28.7-6.9,48.4,23.2,44.6,48.9c-4.6,30.7-35.2,50.2-65.1,43
		c-16.5-4-28.5-17.2-26.3-34.8C168,178.7,170.9,170.3,175.3,162.4z"/>
	<path fill="#58595B" d="M363.6,129.7c-8.2-11.6-23.5-22.2-35.8-21.2c-24.6,2-31,21.5-25.3,41.6c6.9,24,29,39.1,50.7,30.6
		c12.1-4.7,22.8-18.8,19.2-32.6C370.9,141.9,367.8,135.5,363.6,129.7z"/>
	
		<ellipse transform="matrix(0.9978 -6.659739e-002 6.659738e-002 0.9978 -10.2319 16.3478)" fill="#FFFFFF" cx="240.1" cy="161.6" rx="9.9" ry="10.3"/>
	<path fill="#58595B" d="M325.5,194.5c-14.2,5.9-37.4,13.5-59.3,12.2c-4.7-0.3-6.6,5.9-2.7,8.7c15.9,11.2,43.6,21.9,67.7-13.6
		C333.9,197.9,329.8,192.7,325.5,194.5z"/>
	<path fill="#FFFFFF" d="M314.1,201.7c2.2-1,4.5,1.1,3.7,3.4c-0.8,2.3-2.8,4.9-7.7,6.8c-8.7,3.5-17.7,5.6-23.5,1.6
		c-2.1-1.4-1.3-4.7,1.2-5C294,207.7,304.9,205.7,314.1,201.7z"/>
	
		<ellipse transform="matrix(-0.9998 -1.897809e-002 1.897808e-002 -0.9998 640.9247 274.6249)" fill="#FFFFFF" cx="321.8" cy="134.3" rx="7.7" ry="7.9"/>
	<path fill="#FFFFFF" d="M287.9,119c0,0,25.5,10.6,37.7,38.5l-42.1,1.6L287.9,119z"/>
	<path fill="#58595B" d="M312.3,153.5l-17.8,6.4c-7,2.5-10.8,10.1-8.3,16.9l0,0.1c1.3,3.7,4.3,6.6,8.2,7.9l11.2,3.7
		c5.9,2,12.6-0.3,16-5.6l6.6-10.2c2.2-3.4,2.7-7.7,1.4-11.5v0C327.1,154.5,319.4,151,312.3,153.5z"/>
	<g>
		<path fill="#EDEDEE" d="M512,111.9c1.4-1.2,2.6-2.1,3.7-3.1c1.2,0,2.5-0.3,3.7-0.5c2.4-0.4,4.8-1.1,7-2.1c2.3-0.9,4.3-2.2,6.2-3.6
			l1.4-1.1l0.6-0.6c0.1-0.1,0.2-0.2,0.3-0.3c0.1-0.1,0.1-0.3,0.3-0.3c0.4-0.1,0.8-0.1,1.1-0.2c0.4-0.1,0.7-0.2,1.1-0.3
			c0.8-0.2,1.6-0.4,2.5-0.6c0.1,0.9,0.1,1.7,0,2.6c0,0.4-0.1,0.9-0.1,1.3c-0.1,0.4-0.2,0.8-0.3,1.3c0,0.2-0.2,0.3-0.4,0.4
			c-0.2,0.1-0.3,0.3-0.4,0.4l-0.8,0.8l-1.7,1.4c-2.3,1.8-4.9,3.3-7.6,4.4c-2.7,1.1-5.5,1.9-8.3,2.4c-1.4,0.3-2.8,0.4-4.3,0.6
			C514.7,114,513.3,113.1,512,111.9z"/>
	</g>
	<g>
		<path fill="#EDEDEE" d="M672.6,111.9c-1.3,1.3-2.8,2.1-4.2,2.9c-1.4-0.2-2.8-0.3-4.3-0.6c-2.8-0.5-5.6-1.3-8.3-2.4
			c-2.7-1.1-5.2-2.6-7.6-4.4l-1.7-1.4l-0.8-0.8c-0.1-0.1-0.3-0.3-0.4-0.4c-0.2-0.1-0.3-0.2-0.4-0.4c-0.1-0.4-0.2-0.8-0.3-1.3
			c0-0.4-0.1-0.9-0.1-1.3c0-0.9-0.1-1.7,0-2.6c0.9,0.2,1.7,0.4,2.5,0.6c0.4,0.1,0.7,0.2,1.1,0.3c0.4,0.1,0.8,0.1,1.1,0.2
			c0.2,0,0.2,0.2,0.3,0.3c0.1,0.1,0.2,0.2,0.3,0.3l0.6,0.6l1.4,1.1c1.9,1.4,3.9,2.7,6.2,3.6c2.2,0.9,4.6,1.6,7,2.1
			c1.2,0.2,2.4,0.4,3.7,0.5C670,109.7,671.2,110.6,672.6,111.9z"/>
	</g>
	<g>
		<path fill="#58595B" d="M232,159.3c1.1-0.7,2.2-1.2,3.4-1.6c1.2-0.1,2.5-0.2,3.7-0.2c1.2,0,2.5,0.1,3.8,0.4
			c0.6,0.1,1.2,0.3,1.9,0.5c0.3,0.1,0.6,0.2,1,0.4c0.4,0.2,0.8,0.6,1,1c0.5,0.8,0.5,1.9,0.1,2.7c-0.2,0.4-0.6,0.8-1,1
			c-0.2,0.1-0.4,0.2-0.6,0.3l-0.4,0.1c-1.1,0.4-2.2,0.8-3.3,1.2c-1.1,0.4-2.1,0.9-3.1,1.5c-1.1,0.3-2.2,0.7-3.2,1.4
			c0.4-1.2,1.3-2.3,2.2-3.2c1.1-0.6,2.2-1.2,3.4-1.6c1.1-0.5,2.3-0.9,3.4-1.3l0.4-0.1c0.1,0,0.1,0,0.2-0.1c0.1-0.1,0.2-0.2,0.3-0.3
			c0.1-0.2,0.1-0.6,0-0.7c-0.1-0.1-0.1-0.2-0.3-0.2c-0.1-0.1-0.5-0.2-0.7-0.3c-0.5-0.2-1-0.3-1.6-0.5c-1.1-0.3-2.2-0.3-3.4-0.4
			c-1.1,0-2.3,0-3.5,0.2C234.5,159.5,233.3,159.4,232,159.3z"/>
	</g>
	<g>
		<path fill="#58595B" d="M325.9,128.2c-0.8,0.9-1.5,1.7-2.2,2.5c-0.9,0.6-1.7,1.2-2.4,1.9c-0.7,0.7-1.5,1.4-2,2.2
			c-0.3,0.4-0.6,0.8-0.8,1.2c-0.1,0.2-0.3,0.5-0.3,0.6c0,0.1,0,0.2,0,0.2c0,0.2,0.2,0.4,0.4,0.4c0.1,0,0.2,0,0.3,0c0,0,0.1,0,0.1,0
			l0.4-0.2c1-0.4,2-0.8,3.1-1.2c1-0.4,2.1-0.7,3.2-0.9c1.2,0.1,2.4,0.3,3.4,0.9c-1.1,0.1-2.1,0.6-3,1c-1,0.2-2,0.5-3,0.8
			c-1,0.3-2,0.7-2.9,1.1l-0.4,0.2c-0.2,0.1-0.4,0.2-0.6,0.2c-0.4,0.1-0.9,0-1.3-0.1c-0.8-0.3-1.4-1-1.6-1.9c-0.1-0.4,0-0.9,0.1-1.3
			c0.1-0.4,0.3-0.6,0.4-0.8c0.3-0.5,0.6-1,0.9-1.5c0.7-0.9,1.5-1.8,2.3-2.5c0.8-0.8,1.7-1.4,2.6-2.1
			C323.7,128.6,324.8,128.3,325.9,128.2z"/>
	</g>
	<path fill="#F1625B" d="M483.6,42.5h224.3c0,0,33.2,19.6,45.1,50.9L437.3,96C437.3,96,446.9,64.7,483.6,42.5z"/>
	<g>
		<polygon fill="#FFFFFF" points="672.8,62 676.3,54.1 680.5,61.7 689.1,62.7 683.1,69 684.9,77.5 677.1,73.7 669.5,78.1 
			670.7,69.4 664.2,63.6 		"/>
		<polygon fill="#FFFFFF" points="689.6,54.1 690.5,52 691.6,54.1 693.9,54.3 692.3,56 692.8,58.3 690.7,57.3 688.7,58.4 689,56.1 
			687.3,54.6 		"/>
		<polygon fill="#FFFFFF" points="698.2,61.9 699.2,59.7 700.3,61.8 702.6,62 701,63.7 701.5,66 699.4,65 697.4,66.1 697.7,63.8 
			696,62.3 		"/>
		<polygon fill="#FFFFFF" points="698.2,73.9 699.2,71.8 700.3,73.8 702.6,74.1 701,75.8 701.4,78 699.4,77 697.4,78.2 697.7,75.9 
			695.9,74.3 		"/>
		<polygon fill="#FFFFFF" points="689.5,80 690.5,77.9 691.6,79.9 693.9,80.2 692.3,81.9 692.8,84.1 690.7,83.1 688.7,84.3 689,82 
			687.3,80.4 		"/>
	</g>
</g>
<g>
</g>
<g>
</g>
<g>
</g>
<g>
</g>
<g>
</g>
<g>
</g>
<g>
</g>
<g>
</g>
<g>
</g>
<g>
</g>
<g>
</g>
<g>
</g>
<g>
</g>
<g>
</g>
<g>
</g>
</svg>
