<?xml version="1.0" encoding="utf-8"?>
<!-- Generator: Adobe Illustrator 18.0.0, SVG Export Plug-In . SVG Version: 6.00 Build 0)  -->
<!DOCTYPE svg PUBLIC "-//W3C//DTD SVG 1.1//EN" "http://www.w3.org/Graphics/SVG/1.1/DTD/svg11.dtd">
<svg version="1.1" id="Layer_1" xmlns="http://www.w3.org/2000/svg" xmlns:xlink="http://www.w3.org/1999/xlink" x="0px" y="0px"
	 viewBox="0 0 375.9 240.4" enable-background="new 0 0 375.9 240.4" xml:space="preserve">
<path fill="#568986" d="M15,106.1l23.9-90c4.9-18.6,29.8-22,39.6-5.5l5.1,8.6c8,13.6,27.4,14.3,36.5,1.4l0,0
	c10.5-15,33.7-11.1,38.7,6.5l2.1,7.3c4.9,17.4,27.7,21.5,38.3,6.9l0.5-0.6c11.5-15.6,36.1-9.5,38.9,9.6l3,20.3
	c2.4,16.2,21.2,24,34.3,14.2l6.4-4.7c14.9-11,35.8,0.5,34.5,19l-0.9,13c-1,14.8,12.7,26.2,27.1,22.5l5.7-1.5
	c15.3-4,29.6,9.3,26.8,24.9l-11.6,64.4c-2.1,11.8-13.4,19.6-25.2,17.5L17.8,182c-12.7-2.3-20.6-15.1-17-27.4L15,106.1z"/>
<g>
</g>
<g>
</g>
<g>
</g>
<g>
</g>
<g>
</g>
<g>
</g>
<g>
</g>
<g>
</g>
<g>
</g>
<g>
</g>
<g>
</g>
<g>
</g>
<g>
</g>
<g>
</g>
<g>
</g>
</svg>
