<?xml version="1.0" encoding="utf-8"?>
<!-- Generator: Adobe Illustrator 18.0.0, SVG Export Plug-In . SVG Version: 6.00 Build 0)  -->
<!DOCTYPE svg PUBLIC "-//W3C//DTD SVG 1.1//EN" "http://www.w3.org/Graphics/SVG/1.1/DTD/svg11.dtd">
<svg version="1.1" id="Layer_1" xmlns="http://www.w3.org/2000/svg" xmlns:xlink="http://www.w3.org/1999/xlink" x="0px" y="0px"
	 viewBox="0 0 8149.3 1284" enable-background="new 0 0 8149.3 1284" xml:space="preserve">
<g>
	<path fill="#896840" d="M2594,0c3.8,17.2,7.7,34.4,11.9,51.6c13.7,55.8,26.9,119.9,71.7,163.2c2,2-2.1,17-2.4,19.8
		c-0.4,2.8-4.9,17.8-2.9,19.8c-40.3-38.9-54.5-91.6-67.3-142c-9.2-36-17.3-75.9-24.5-112.4h-72c2,30.8,4.3,65.2,7.1,96
		c16.4,180.8,55.2,358.4,81.8,538c25.6,173.3,37.8,352.2-10.9,523.2c-6.2,21.6-13.3,42.9-21.3,64c0.6-1.5-12.5-13.8-14-15.4
		c-1.7-2-14.6-13.3-13.7-15.7c63.4-167.4,62.7-345.8,41.4-519.8c-22-180-63.8-357.4-84-537.6c-4.8-42.9-8.7-89.6-11.8-132.7h-78.2
		c2,30.8,4.3,65.2,7.1,96c16.4,180.8,55.2,358.4,81.8,538c25.6,173.3,37.8,352.2-10.9,523.2c-6.2,21.6-13.3,42.9-21.3,64
		c0.6-1.5-12.5-13.8-14-15.4c-1.7-2-14.6-13.3-13.7-15.7c63.4-167.4,62.7-345.8,41.4-519.8c-22-180-63.8-357.4-84-537.6
		C2386,89.7,2382.2,43.1,2379,0h-103c2,30.8,4.3,65.2,7.1,96c16.4,180.8,55.2,358.4,81.8,538c25.6,173.3,37.8,352.2-10.9,523.2
		c-6.2,21.6-13.3,42.9-21.3,64c0.6-1.5-12.5-13.8-14-15.4c-1.7-2-14.6-13.3-13.7-15.7c63.4-167.4,62.7-345.8,41.4-519.8
		c-22-180-63.8-357.4-84-537.6c-4.8-42.9-8.7-89.6-11.8-132.7h-84.8v1249.6h517.9V0H2594z M2264.9,887.9c0.4-1.6-14-12.5-15.7-14.1
		c-2-1.8-16-11.9-15.4-14.4c29.4-117.5,7.4-242.7-61.1-346.3c7.3,11,23.7,17.3,31,28.5C2272.2,645.1,2294.3,770.3,2264.9,887.9z"/>
	<path fill="#7B5E39" d="M2379,0h25.6"/>
	<path fill="#7B5E39" d="M2474.9,670.3c21.3,173.9,22,352.4-41.4,519.8c-0.9,2.4,11.9,13.7,13.7,15.7c1.5,1.7,14.6,13.9,14,15.4
		c8-21.1,15.2-42.4,21.3-64c48.7-171,36.5-349.9,10.9-523.2c-26.5-179.6-65.4-357.2-81.8-538c-2.8-30.8-5.1-65.2-7.1-96H2379
		c3.1,43.1,7,89.7,11.8,132.7C2411.1,312.9,2452.9,490.3,2474.9,670.3z"/>
	<path fill="#7B5E39" d="M2250.5,0h25.6"/>
	<path fill="#7B5E39" d="M2346.3,670.3c21.3,173.9,22,352.4-41.4,519.8c-0.9,2.4,11.9,13.7,13.7,15.7c1.5,1.7,14.6,13.9,14,15.4
		c8-21.1,15.2-42.4,21.3-64c48.7-171,36.5-349.9,10.9-523.2c-26.5-179.6-65.4-357.2-81.8-538c-2.8-30.8-5.1-65.2-7.1-96h-25.6
		c3.1,43.1,7,89.7,11.8,132.7C2282.5,312.9,2324.3,490.3,2346.3,670.3z"/>
	<path fill="#7B5E39" d="M2482.8,0h25.6"/>
	<path fill="#7B5E39" d="M2578.7,670.3c21.3,173.9,22,352.4-41.4,519.8c-0.9,2.4,11.9,13.7,13.7,15.7c1.5,1.7,14.6,13.9,14,15.4
		c8-21.1,15.2-42.4,21.3-64c48.7-171,36.5-349.9,10.9-523.2c-26.5-179.6-65.4-357.2-81.8-538c-2.8-30.8-5.1-65.2-7.1-96h-25.6
		c3.1,43.1,7,89.7,11.8,132.7C2514.9,312.9,2556.7,490.3,2578.7,670.3z"/>
	<path fill="#7B5E39" d="M2580.5,0h13.5"/>
	<path fill="#7B5E39" d="M2672.3,254.4c-2-2,2.5-17,2.9-19.8c0.4-2.8,4.5-17.9,2.4-19.8c-44.8-43.2-58-107.3-71.7-163.2
		c-4.2-17.2-8.2-34.4-11.9-51.6h-13.5c7.2,36.4,15.3,76.3,24.5,112.4C2617.8,162.8,2632,215.5,2672.3,254.4z"/>
	<path fill="#7B5E39" d="M2172.7,513.1c68.5,103.6,90.5,228.7,61.1,346.3c-0.6,2.5,13.4,12.6,15.4,14.4c1.7,1.6,16.1,12.5,15.7,14.1
		c29.4-117.5,7.4-242.7-61.1-346.3C2196.4,530.4,2180,524.1,2172.7,513.1z"/>
</g>
<g>
	<g>
		<path fill="#649C80" d="M4682.2,828.9c-318.8,11.6-348.5,331.2-348.5,331.2S4654.5,1146.6,4682.2,828.9z"/>
	</g>
	<path fill="#9BBB97" d="M4415.6,1092.2c8.5-6.5,16.9-13.2,25.2-19.9c0.1,0,0.2,0,0.2,0c0,0,0-0.1,0-0.1c4.6-3.7,9.2-7.5,13.7-11.3
		c11,14,28.8,16.9,46.5,16.8c-3.3,0-6.7-0.6-10.1-0.9c-0.3-0.1-0.6-0.2-1.1-0.4c-1.4-0.5-2.9-0.9-4.3-1.4c-3.2-1.2-6.1-2.9-8.9-4.8
		c-5.3-3.8-9.3-8.6-12.4-14.3c-0.3-0.6-1.4-0.8-2.8-0.8c11.2-9.5,22.2-19.2,33.1-29.1c0.1,0,0.1,0.1,0.1,0.1c0-0.1,0-0.1,0-0.2
		c4.2-3.8,8.4-7.7,12.5-11.6c13.3,12.9,38.3,15.3,53.8,5.9c-3.2,1.9-10.6-3.1-13.9-1.1c-3.5,2.1-7.1,2.8-10.6,4.5
		c-1.3,0.1-2.2,0.2-2.6,0.3c-1-0.3-1.9-0.7-2.8-1.1c-6.6-2.9-11.5-7.8-15.1-13.8c-0.3-0.6-1.2-0.8-2.4-0.8
		c9.9-9.4,19.6-19.1,29.2-28.8c0.2,0.1,0.3,0.2,0.4,0.3c-0.1-0.2-0.1-0.4-0.1-0.5c2.3-2.4,4.7-4.8,7-7.2c0.7,0,1.4-0.1,2-0.3
		c24.8-9.3,48.8-20.3,72-32.9c-3.4,1.8-10.4-3-13.9-1.1c-16.5,9-33.5,17.1-50.8,24.4c22.8-24.1,44.6-49.2,65.3-75.2
		c-1.6,2-12.2-3.2-13.9-1.1c-22,27.6-45.2,54.1-69.5,79.6c0.1-20.4,9.7-43.2,14.4-61.3c-0.2,0.7-13.6-2-13.9-1.1
		c-5.8,22.4-19,51.8-12.7,75c-11.4,11.7-23.1,23.1-35,34.3c-0.2-23.8,2.6-47.8,8.5-70.8c-0.2,0.7-13.6-2-13.9-1.1
		c-7,27.3-9.8,56.2-8.1,84.3c-12.6,11.5-25.4,22.8-38.5,33.8c1.7-14.7,3.3-29.4,5-44c0,0.1-13.8-1.3-13.9-1.1
		c-2.2,19.3-4.4,38.6-6.6,57.8c-8.4,6.8-16.8,13.5-25.3,20.1C4404.4,1089,4412.8,1094.3,4415.6,1092.2z M4487.9,1076.6
		c-0.2,0-0.4,0-0.6,0C4487.5,1076.6,4487.7,1076.6,4487.9,1076.6z"/>
</g>
<g>
	<g>
		<path fill="#67AE92" d="M6129.3,774.9c-313.1,157.8-196.1,490.7-196.1,490.7S6247.4,1105,6129.3,774.9z"/>
		<g>
			<path fill="#65A68A" d="M6127.8,775.3c-74.9,37.9-139.6,94.5-177.7,170.1c-28.6,56.8-40.5,120.6-39.7,183.9
				c0.5,41.1,6,82.4,16.9,122.1c1.4,4.9,2.7,9.9,4.4,14.7c0,0,2.6-0.6,2.9-0.8c22-11.3,42.6-26.2,61.9-41.4
				c44-34.7,82.6-76.8,111.1-125.1c37.4-63.5,54.2-136.7,48.4-210.2c-3.1-38.9-12.2-77.2-25.3-114
				C6130.7,774.4,6127.9,775.4,6127.8,775.3c28.2,79.3,36.1,165.1,11.4,246.3c-18.5,60.9-54.1,115.4-98.4,160.7
				c-28.6,29.3-61.1,55.3-96.2,76.4c-4.2,2.5-8.5,5-12.8,7.3c1-0.3,1.9-0.5,2.9-0.8c-8.1-23.2-12.8-48-16.3-72.3
				c-8-55.2-7-112.1,5.4-166.6c16.4-71.5,54.1-135.9,108.4-185.3c29.5-26.8,63.1-48.7,98.5-66.6
				C6129.9,775,6128.7,774.9,6127.8,775.3z"/>
		</g>
	</g>
	<path fill="#7CB397" d="M5983.8,1160.2c5.5-10.4,10.8-20.9,16-31.4c0.1-0.1,0.2-0.1,0.2-0.1c0,0,0-0.1,0-0.1
		c2.9-5.8,5.7-11.7,8.5-17.6c17.4,8.9,36.5,3.7,54.2-4.5c-3.3,1.5-7,2.5-10.5,3.7c-0.3,0-0.7,0-1.3,0.1c-1.6,0.1-3.3,0.5-4.9,0.6
		c-3.7,0.2-7.5-0.1-11.1-0.8c-7-1.3-13.3-4.3-19-8.6c-0.6-0.5-1.8-0.2-3.2,0.5c6.8-14.6,13.4-29.4,19.7-44.3c0.1,0,0.2,0,0.2,0
		c0-0.1-0.1-0.1-0.1-0.2c2.4-5.8,4.8-11.6,7.2-17.4c19.2,6.7,45.2-2.3,56.4-18.7c-2.3,3.4-12,1.8-14.3,5.3c-2.5,3.7-5.8,6.1-8.5,9.4
		c-1.3,0.7-2.1,1.2-2.4,1.5c-1.1,0.1-2.2,0.2-3.3,0.2c-7.9,0.1-15-2.5-21.4-6.9c-0.6-0.4-1.6-0.2-2.8,0.3
		c5.6-14,10.9-28.1,15.9-42.2c0.2,0,0.4,0,0.5,0.1c-0.1-0.2-0.2-0.3-0.4-0.5c1.2-3.4,2.5-6.9,3.7-10.4c0.7-0.3,1.4-0.7,1.9-1.2
		c20.5-20.7,39.4-42.6,56.8-65.9c-2.5,3.4-11.7,1.8-14.3,5.3c-12.4,16.6-25.6,32.4-39.5,47.6c11.7-34.6,21.9-69.6,30.7-105
		c-0.7,2.7-13.6,2.4-14.3,5.3c-9.3,37.6-20.3,74.8-32.9,111.4c-9.2-20.4-10.1-47.5-13.7-67.8c0.1,0.8-14.5,4.3-14.3,5.3
		c4.5,25,4.8,60.5,21.7,80.8c-6.1,16.9-12.5,33.7-19.2,50.3c-11.1-23.7-19.3-49-23.9-74.6c0.1,0.8-14.5,4.3-14.3,5.3
		c5.5,30.5,16,60.6,30.6,87.9c-7.3,17.3-15,34.4-23,51.4c-5.1-15.4-10.1-30.9-15.2-46.3c0,0.1-14.4,5-14.3,5.3
		c6.7,20.3,13.3,40.5,20,60.8c-5.2,10.6-10.6,21.2-16.1,31.7C5971.2,1162.2,5982,1163.7,5983.8,1160.2z M6048.9,1111.5
		c-0.2,0.1-0.4,0.1-0.6,0.2C6048.5,1111.6,6048.7,1111.6,6048.9,1111.5z"/>
</g>
<g>
	<g>
		<path fill="#67AE92" d="M5826.3,759.5c-196.5,290.3,67.8,524.1,67.8,524.1S6090.3,990.2,5826.3,759.5z"/>
		<g>
			<path fill="#65A68A" d="M5824.9,759.9c-29.2,43.3-52,91-63.8,142.1c-9.6,41.6-11.3,84.8-5.4,127.1
				c9.6,68.3,39.2,132.8,79.3,188.5c17,23.6,35.9,47,57.7,66.4c0.1,0.1,2.8-0.6,2.9-0.8c17.7-26.5,30.9-56.9,41.9-86.7
				c23.9-65.3,34.4-136.1,24.4-205.3c-6-40.8-19.4-80.2-39.1-116.4c-24-44.1-57.3-82.6-94.9-115.7
				C5827.3,758.7,5825.3,760.2,5824.9,759.9c39.1,34.3,73.1,74.4,97.5,120.6c19.9,37.6,32.6,78.8,37.7,121
				c8.3,68.4-3.6,138.1-28,202.1c-10.5,27.6-23,55.7-39.5,80.4c1-0.3,1.9-0.5,2.9-0.8c-24.1-21.3-44.8-47.6-63-73.9
				c-40-57.6-68.1-124-75.5-194c-4.3-40.4-1.1-81.4,8.6-120.8c12-48.5,34.3-94,62.2-135.3C5827.4,759.7,5825.3,759.2,5824.9,759.9z"
				/>
		</g>
	</g>
	<path fill="#7CB397" d="M5887,1166.9c-0.3-11.8-0.7-23.5-1.3-35.2c0.1-0.1,0.1-0.2,0.1-0.2c0,0-0.1-0.1-0.1-0.1
		c-0.3-6.5-0.7-13-1.1-19.5c19.6-0.7,33.7-14.6,45.1-30.4c-2.2,3-4.8,5.6-7.3,8.4c-0.3,0.2-0.6,0.4-1.1,0.7c-1.4,0.9-2.6,2-4,2.9
		c-3.1,2-6.5,3.6-10.1,4.7c-6.8,2.2-13.7,2.7-20.8,1.7c-0.8-0.1-1.6,0.7-2.6,2c-1.2-16.1-2.6-32.2-4.4-48.2c0.1-0.1,0.1-0.1,0.2-0.1
		c-0.1,0-0.1-0.1-0.2-0.1c-0.7-6.2-1.4-12.5-2.2-18.7c20.1-3.5,38.4-24.1,40.2-43.9c-0.4,4.1-9.6,7.4-9.9,11.6
		c-0.4,4.4-2.1,8.1-2.9,12.3c-0.8,1.3-1.2,2.1-1.4,2.5c-0.9,0.6-1.8,1.3-2.8,1.8c-6.8,4-14.3,5.1-22.1,4.4c-0.7-0.1-1.5,0.6-2.3,1.6
		c-2-14.9-4.2-29.8-6.6-44.6c0.2-0.1,0.4-0.2,0.5-0.1c-0.2-0.1-0.4-0.2-0.6-0.2c-0.6-3.6-1.2-7.2-1.8-10.8c0.5-0.6,0.8-1.3,1-2
		c7.8-28,13.6-56.4,17.5-85.2c-0.6,4.2-9.4,7.3-9.9,11.6c-2.8,20.5-6.5,40.8-11.3,60.9c-6.7-35.9-14.7-71.5-24.3-106.7
		c0.7,2.7-10.7,8.7-9.9,11.6c10.2,37.4,18.7,75.2,25.5,113.3c-18-13.3-32-36.6-45-52.5c0.5,0.6-10.6,10.8-9.9,11.6
		c16.1,19.7,33.6,50.5,58.3,60c2.9,17.7,5.5,35.5,7.7,53.3c-21.2-15.2-40.7-33.4-57.2-53.5c0.5,0.6-10.6,10.8-9.9,11.6
		c19.6,23.9,43.5,45.1,69.5,61.9c2,18.6,3.7,37.3,5,56.1c-11.9-11-23.9-22-35.8-33c0.1,0-10.2,11.4-9.9,11.6
		c15.7,14.5,31.4,28.9,47.1,43.4c0.6,11.8,1.1,23.7,1.4,35.5C5876.9,1174.8,5887,1170.7,5887,1166.9z M5920.1,1092.6
		c-0.1,0.2-0.3,0.3-0.4,0.5C5919.8,1092.9,5919.9,1092.8,5920.1,1092.6z"/>
</g>
<g>
	<g>
		<path fill="#67AE92" d="M4381.9,688c-266.4,210.9-90.4,504.1-90.4,504.1S4558.4,978.3,4381.9,688z"/>
		<g>
			<path fill="#65A68A" d="M4380.4,688.4c-39.3,31.2-74,68.3-99.8,111.5c-21,35.3-35.3,74.3-42.4,114.8
				c-11.5,65.6-3.4,133.5,16.8,196.6c8.9,27.8,19.9,56.1,35,81.3c0,0.1,2.7-0.6,2.9-0.8c24.1-19.4,45.2-43.5,64-67.9
				c41.2-53.4,71.6-115.7,82.4-182.6c6.4-39.4,5.5-79.8-2.1-119c-9.3-47.8-28.8-93.1-53.9-134.6
				C4383.1,687.4,4380.5,688.6,4380.4,688.4c26.1,43.1,45.9,90.2,54.9,139.9c7.4,40.6,7.1,82.3-0.4,122.8
				c-12.2,65.6-43.7,126.5-84.9,178.6c-17.8,22.5-37.5,44.8-60,62.8c1-0.3,1.9-0.5,2.9-0.8c-15.8-26.3-27-56-36.2-85.1
				c-20.1-63.8-27.1-132.3-14.6-198.3c7.4-39.4,22.1-77.1,42.7-111.4c25.4-42.3,59.8-78.6,98.4-109.2
				C4382.6,688.2,4381.1,687.8,4380.4,688.4z"/>
		</g>
	</g>
	<path fill="#9BBB97" d="M4318.9,1082.2c3.2-11,6.2-21.9,9.1-33c0.1-0.1,0.1-0.1,0.1-0.1c0,0,0-0.1-0.1-0.1
		c1.6-6.1,3.1-12.2,4.7-18.4c18.3,5,35.4-3.6,50.6-14.9c-2.9,2.1-6.1,3.7-9.2,5.6c-0.3,0.1-0.7,0.2-1.2,0.3c-1.5,0.4-3,1.1-4.6,1.5
		c-3.5,0.9-7.1,1.4-10.7,1.5c-6.9,0.1-13.5-1.5-19.7-4.5c-0.7-0.3-1.7,0.2-3,1.1c3.6-15.2,7-30.5,10-45.9c0.1,0,0.2,0,0.2,0
		c0-0.1-0.1-0.1-0.1-0.2c1.2-6,2.3-11.9,3.4-17.9c19.5,2.6,42.5-11,49.9-28.8c-1.5,3.6-11,4-12.6,7.8c-1.7,4-4.3,6.9-6.3,10.5
		c-1.1,0.9-1.8,1.6-2,1.9c-1,0.3-2,0.6-3.1,0.9c-7.4,1.7-14.7,0.6-21.7-2.4c-0.6-0.3-1.6,0.1-2.6,0.8c2.5-14.4,4.8-28.8,6.9-43.2
		c0.2-0.1,0.4-0.1,0.5,0c-0.2-0.1-0.3-0.3-0.5-0.4c0.5-3.5,1-7,1.5-10.5c0.6-0.5,1.2-0.9,1.5-1.5c15.4-23.6,29.1-48.1,41.1-73.7
		c-1.7,3.7-10.8,4-12.6,7.8c-8.5,18.1-18,35.8-28.2,52.9c4.3-35.1,7.2-70.3,8.7-105.7c-0.1,2.7-12.5,4.9-12.6,7.8
		c-1.5,37.5-4.7,75-9.5,112.2c-12.7-17.5-18.9-43.2-26.3-61.7c0.3,0.7-12.9,6.9-12.6,7.8c9.1,22.9,16.3,56.5,36.4,72.4
		c-2.5,17.2-5.3,34.4-8.4,51.5c-15.2-20.3-27.9-42.8-37.3-66.1c0.3,0.7-12.9,6.9-12.6,7.8c11.2,27.8,27,54.4,46.2,77.5
		c-3.6,17.8-7.5,35.6-11.8,53.3c-7.8-13.7-15.6-27.3-23.5-41c0,0.1-12.7,7.6-12.6,7.8c10.3,17.9,20.6,35.9,30.8,53.8
		c-2.9,11.1-5.9,22.2-9.1,33.2C4307.4,1086.6,4317.9,1085.8,4318.9,1082.2z M4371.2,1023.2c-0.2,0.1-0.4,0.2-0.5,0.3
		C4370.9,1023.5,4371,1023.3,4371.2,1023.2z"/>
</g>
<g>
	<g>
		<path fill="#649C80" d="M8149.3,852.6c-297.9,10.8-325.7,309.6-325.7,309.6S8123.4,1149.6,8149.3,852.6z"/>
	</g>
	<path fill="#9BBB97" d="M7900.2,1098.7c7.9-6.1,15.8-12.3,23.5-18.6c0.1,0,0.2,0,0.2,0c0,0,0-0.1,0-0.1c4.3-3.5,8.6-7,12.8-10.6
		c10.3,13.1,26.9,15.8,43.5,15.7c-3.1,0-6.3-0.5-9.4-0.8c-0.2-0.1-0.6-0.2-1-0.4c-1.3-0.5-2.7-0.8-4-1.3c-2.9-1.2-5.7-2.7-8.3-4.5
		c-4.9-3.5-8.7-8.1-11.6-13.4c-0.3-0.6-1.3-0.8-2.6-0.8c10.5-8.9,20.8-18,30.9-27.2c0.1,0,0.1,0,0.1,0.1c0-0.1,0-0.1,0-0.2
		c3.9-3.6,7.8-7.2,11.7-10.9c12.5,12,35.8,14.3,50.3,5.5c-3,1.8-9.9-2.9-12.9-1c-3.2,1.9-6.6,2.6-9.9,4.2c-1.3,0.1-2.1,0.2-2.4,0.3
		c-0.9-0.3-1.8-0.6-2.6-1c-6.1-2.7-10.7-7.2-14.1-12.9c-0.3-0.5-1.2-0.7-2.3-0.8c9.3-8.8,18.4-17.8,27.3-27c0.2,0.1,0.3,0.2,0.4,0.3
		c0-0.2-0.1-0.3-0.1-0.5c2.2-2.2,4.4-4.5,6.5-6.7c0.7,0,1.3-0.1,1.9-0.3c23.1-8.7,45.6-18.9,67.3-30.8c-3.1,1.7-9.7-2.8-12.9-1
		c-15.5,8.4-31.3,16-47.4,22.8c21.3-22.6,41.6-46,61-70.3c-1.5,1.8-11.4-3-12.9-1c-20.6,25.8-42.3,50.6-64.9,74.4
		c0.1-19,9.1-40.3,13.4-57.3c-0.2,0.6-12.7-1.8-12.9-1c-5.4,20.9-17.8,48.4-11.9,70.1c-10.7,10.9-21.6,21.6-32.7,32.1
		c-0.2-22.2,2.5-44.7,8-66.1c-0.2,0.6-12.7-1.8-12.9-1c-6.6,25.5-9.2,52.5-7.6,78.8c-11.8,10.8-23.8,21.3-36,31.5
		c1.6-13.7,3.1-27.4,4.7-41.2c0,0.1-12.9-1.3-12.9-1c-2,18-4.1,36-6.1,54.1c-7.8,6.3-15.7,12.6-23.7,18.7
		C7889.7,1095.8,7897.6,1100.7,7900.2,1098.7z M7967.8,1084.1c-0.2,0-0.4,0-0.5,0C7967.4,1084.1,7967.6,1084.1,7967.8,1084.1z"/>
</g>
<g>
	<g>
		<path fill="#67AE92" d="M7868.6,721c-249,197.1-84.4,471.1-84.4,471.1S8033.6,992.3,7868.6,721z"/>
		<g>
			<path fill="#65A68A" d="M7867.2,721.4c-39,31-73.1,68.2-97.6,111.8c-19.8,35.3-32.3,74.3-37.5,114.5
				c-8.2,63.4,2.5,128.3,24.5,187.9c7.2,19.4,15.4,39.1,26.1,57c0,0.1,2.7-0.6,2.9-0.8c25.4-20.4,47.3-46.2,66.5-72.3
				c41.3-56.2,69.4-122.7,73.8-192.7c4.6-73-18.3-144.1-55.8-206.1C7869.9,720.4,7867.3,721.6,7867.2,721.4
				c25.9,42.8,45.1,89.8,52.8,139.4c6.2,40.2,4.3,81.3-5,120.8c-14.6,62.3-47.4,119.5-89,167.7c-13.2,15.3-27.4,30.5-43.2,43.2
				c1-0.3,1.9-0.5,2.9-0.8c-16.6-27.7-28.1-59.2-37-90c-19.2-66.5-22.8-137.9-3.3-204.8c20.7-71.1,67.3-130.7,124.7-176.3
				C7869.4,721.2,7867.9,720.8,7867.2,721.4z"/>
		</g>
	</g>
	<path fill="#9BBB97" d="M7809.8,1089.4c3-10.2,5.8-20.5,8.5-30.8c0.1-0.1,0.1-0.1,0.1-0.1c0,0,0-0.1-0.1-0.1
		c1.5-5.7,2.9-11.4,4.4-17.2c17.1,4.7,33.1-3.4,47.3-13.9c-2.7,2-5.7,3.5-8.6,5.2c-0.3,0.1-0.6,0.2-1.1,0.3c-1.4,0.4-2.8,1-4.3,1.4
		c-3.3,0.9-6.6,1.3-10,1.4c-6.5,0.1-12.6-1.4-18.4-4.2c-0.6-0.3-1.6,0.2-2.8,1c3.4-14.2,6.5-28.5,9.4-42.9c0.1,0,0.1,0,0.2,0
		c0-0.1-0.1-0.1-0.1-0.2c1.1-5.6,2.2-11.1,3.2-16.7c18.3,2.5,39.7-10.3,46.7-26.9c-1.4,3.4-10.3,3.8-11.8,7.3
		c-1.5,3.7-4,6.4-5.8,9.9c-1,0.9-1.6,1.5-1.9,1.8c-0.9,0.3-1.9,0.6-2.9,0.8c-6.9,1.6-13.8,0.5-20.3-2.2c-0.6-0.3-1.5,0.1-2.4,0.7
		c2.4-13.4,4.5-26.9,6.4-40.4c0.2-0.1,0.4-0.1,0.5,0c-0.1-0.1-0.3-0.3-0.4-0.4c0.5-3.3,0.9-6.6,1.4-9.9c0.6-0.4,1.1-0.9,1.4-1.4
		c14.4-22.1,27.2-45,38.4-68.8c-1.6,3.4-10.1,3.7-11.8,7.3c-8,17-16.8,33.4-26.4,49.5c4-32.8,6.8-65.7,8.1-98.8
		c-0.1,2.5-11.6,4.6-11.8,7.3c-1.4,35.1-4.4,70.1-8.9,104.8c-11.9-16.4-17.7-40.3-24.6-57.7c0.3,0.7-12.1,6.5-11.8,7.3
		c8.5,21.4,15.3,52.8,34,67.7c-2.3,16.1-4.9,32.2-7.9,48.2c-14.2-19-26.1-40-34.8-61.8c0.3,0.6-12.1,6.5-11.8,7.3
		c10.4,26,25.2,50.9,43.2,72.4c-3.3,16.7-7,33.3-11,49.8c-7.3-12.8-14.6-25.5-21.9-38.3c0,0.1-11.9,7.1-11.8,7.3
		c9.6,16.8,19.2,33.5,28.8,50.3c-2.7,10.4-5.5,20.7-8.5,31C7799,1093.5,7808.9,1092.8,7809.8,1089.4z M7858.7,1034.3
		c-0.2,0.1-0.3,0.2-0.5,0.3C7858.4,1034.5,7858.5,1034.4,7858.7,1034.3z"/>
</g>
<g>
	<g>
		<path fill="#4F897D" d="M2959.1,710.7c-389.4,18.6-421.3,409.7-421.3,409.7S2929.7,1099.5,2959.1,710.7z"/>
	</g>
	<path fill="#7CB397" d="M2636.9,1036.3c10.3-8.1,20.4-16.3,30.5-24.7c0.1,0,0.2,0,0.2,0c0,0,0-0.1,0-0.1c5.6-4.6,11.1-9.3,16.6-14
		c13.7,16.9,35.4,20.2,57.1,19.9c-4.1,0.1-8.2-0.6-12.3-0.9c-0.3-0.1-0.7-0.3-1.3-0.5c-1.7-0.6-3.5-1-5.2-1.7
		c-3.9-1.5-7.5-3.4-10.9-5.8c-6.5-4.5-11.5-10.4-15.4-17.3c-0.4-0.7-1.7-1-3.5-1c13.6-11.8,26.9-23.8,40-36.1c0.1,0,0.2,0.1,0.2,0.1
		c0-0.1,0-0.2,0-0.3c5.1-4.8,10.1-9.6,15.2-14.4c16.5,15.5,47,18.1,65.8,6.5c-3.9,2.4-13-3.6-16.9-1.1c-4.2,2.6-8.6,3.5-12.9,5.7
		c-1.6,0.1-2.7,0.3-3.2,0.4c-1.2-0.4-2.3-0.8-3.4-1.3c-8-3.4-14.1-9.3-18.6-16.7c-0.4-0.7-1.5-0.9-3-1c12-11.7,23.7-23.6,35.3-35.7
		c0.2,0.1,0.4,0.2,0.5,0.3c-0.1-0.2-0.1-0.4-0.2-0.7c2.8-2.9,5.6-5.9,8.4-8.9c0.9,0,1.7-0.1,2.5-0.4c30.1-11.7,59.3-25.5,87.5-41.2
		c-4.1,2.3-12.7-3.5-16.9-1.1c-20.1,11.2-40.7,21.4-61.7,30.5c27.5-29.8,53.8-60.8,78.8-92.8c-1.9,2.4-14.9-3.7-16.9-1.1
		c-26.5,34-54.5,66.8-83.8,98.3c-0.1-24.9,11.2-52.9,16.7-75.1c-0.2,0.8-16.7-2.2-16.9-1.1c-6.8,27.4-22.5,63.6-14.5,91.9
		c-13.8,14.4-27.9,28.6-42.3,42.4c-0.6-29.1,2.6-58.5,9.5-86.6c-0.2,0.8-16.7-2.2-16.9-1.1c-8.2,33.4-11.2,68.8-8.7,103.1
		c-15.2,14.2-30.8,28.2-46.6,41.8c1.8-18,3.7-35.9,5.5-53.9c0,0.1-16.9-1.5-16.9-1.1c-2.4,23.6-4.8,47.2-7.2,70.8
		c-10.1,8.4-20.3,16.7-30.7,24.9C2623.2,1032.6,2633.6,1038.9,2636.9,1036.3z M2725.1,1016.2c-0.2,0-0.5,0-0.7,0
		C2724.6,1016.2,2724.9,1016.2,2725.1,1016.2z"/>
</g>
<g>
	<g>
		<path fill="#67AE92" d="M778.1,816.3c-312,72-280.5,392.7-280.5,392.7S811.1,1134.8,778.1,816.3z"/>
	</g>
	<path fill="#8EB897" d="M565.3,1126.5c7.1-8,14.1-16.2,21-24.4c0.1,0,0.2,0,0.2-0.1c0,0,0-0.1,0-0.1c3.8-4.6,7.6-9.2,11.4-13.8
		c13.5,11.7,31.6,11.2,49.1,7.8c-3.3,0.6-6.7,0.7-10.1,1c-0.3-0.1-0.6-0.1-1.1-0.2c-1.5-0.3-3-0.3-4.5-0.6c-3.3-0.6-6.6-1.7-9.7-3.1
		c-5.9-2.7-10.8-6.7-14.9-11.8c-0.4-0.5-1.5-0.5-2.9-0.3c9.2-11.5,18.2-23.2,27.1-35c0.1,0,0.2,0,0.2,0.1c0-0.1,0-0.1,0-0.2
		c3.4-4.6,6.8-9.2,10.2-13.8c15.6,10.1,40.6,7.8,54.1-4.4c-2.8,2.5-11-1-13.9,1.6c-3,2.7-6.4,4.1-9.6,6.5c-1.3,0.4-2.1,0.6-2.5,0.8
		c-1-0.1-2-0.3-3-0.5c-7-1.6-12.8-5.5-17.5-10.8c-0.4-0.5-1.4-0.5-2.5-0.4c8-11.2,15.7-22.5,23.3-34c0.2,0,0.4,0.1,0.4,0.2
		c-0.1-0.2-0.1-0.3-0.2-0.5c1.8-2.8,3.7-5.6,5.5-8.4c0.7-0.1,1.4-0.3,1.9-0.7c22.6-13.9,44.2-29.2,64.7-46.1
		c-3,2.4-10.8-0.9-13.9,1.6c-14.6,12-29.7,23.2-45.4,33.7c17.8-28.1,34.6-57,50.1-86.5c-1.2,2.2-12.6-0.8-13.9,1.6
		c-16.5,31.3-34.3,61.9-53.4,91.7c-3.8-20.1,1.3-44.4,2.5-63.1c0,0.7-13.8,0.7-13.9,1.6c-1.5,23.1-8.9,54.7,1.7,76.4
		c-9.1,13.7-18.4,27.2-28,40.5c-4.7-23.4-6.5-47.7-5-71.4c0,0.7-13.8,0.7-13.9,1.6c-1.7,28.2,1,57.2,8,84.6
		c-10.2,13.7-20.7,27.3-31.5,40.6c-1.1-14.8-2.3-29.6-3.4-44.4c0,0.1-13.9,1.3-13.9,1.6c1.5,19.4,3,38.8,4.5,58.3
		c-7,8.3-14,16.5-21.2,24.6C553.7,1125.5,563,1129.1,565.3,1126.5z M633.7,1097.4c-0.2,0-0.4,0-0.6,0.1
		C633.2,1097.4,633.4,1097.4,633.7,1097.4z"/>
</g>
<g>
	<path fill="#ABC19B" d="M2260.3,1244.1c160.2-84.9,419-292.9,508.9-772.9c2.4-13-17.9-18.4-23.2-6.1
		c-40,92-109.5,238.8-203.1,387.8c46.9-126.5,76.3-285.3,68.6-483c-0.5-13.2-21.6-14.7-24.1-1.7c-17.3,90.8-49,232.8-100.4,383.7
		c19.3-127,17.3-279.8-22.7-461.5c-2.9-13-23.9-11.4-24,1.8c-1.1,118-10.5,322.3-55,526.8c1.8-140.9-28-311.6-116.5-512.2
		c-5.4-12.3-25.8-7.3-23.2,5.8c19,97.7,44.6,256.4,50.8,428.4c-33.1-130.6-99.5-280.6-219.9-446.3c-8.1-11.1-26.8-2.4-21.4,9.9
		c37.6,86,92.4,222.7,135.7,376.3c-56.7-117.9-146.4-248-285.1-384.7c-9.9-9.8-26.9,1.6-19.4,13
		c111.5,169.1,341.3,554.2,355.8,872.8c0.2,4.6,3,7.7,6.6,9.3c-2.1,3.5-4.1,6.9-6.2,10.3c-2.9,4.7-1.7,9.3,1.4,12.4
		c-0.1,0.2-0.1,0.4-0.2,0.6c-13.6,11.6-27.5,22.7-41.5,33.3c-11,8.3,0.4,24.1,13.2,18.3c8.1-3.6,16.7-7.7,25.6-12.1
		c5.1,2.2,11.6,1.4,15.4-4C2257.6,1248.1,2258.9,1246.1,2260.3,1244.1z"/>
	<path fill="#ABC19B" d="M2283,1211c114.4-112.7,318.4-397.3,202.3-924.1c-2.9-13-23.9-11.4-24,1.8c-1.9,196.4-26.7,632-197.7,909.4
		C2256.5,1209.4,2273.3,1220.5,2283,1211z"/>
	<path fill="#ABC19B" d="M2267.9,1247.6c133.1-94.3,385.5-345,364.5-881.2c-0.5-13.2-21.6-14.7-24.1-1.7
		c-36.9,193.3-139,619.1-357.5,867.3C2242,1242.1,2256.7,1255.6,2267.9,1247.6z"/>
	<path fill="#ABC19B" d="M2236.4,1262.6c151.6-67.8,455-266.8,553.9-794.9c2.4-13-17.9-18.4-23.2-6.1
		c-79.2,182.2-274.2,579.9-543.9,782.7C2212.2,1252.6,2223.6,1268.4,2236.4,1262.6z"/>
	<path fill="#ABC19B" d="M2287.1,1180.2c32.2-150.7,41.5-491.2-360.4-887.5c-9.9-9.8-26.9,1.6-19.4,13
		c111.5,169.1,341.3,554.2,355.8,872.8C2263.7,1191.4,2284.4,1192.9,2287.1,1180.2z"/>
	<path fill="#ABC19B" d="M2295.5,1218.7c58.7-143.8,128.6-478.1-198-927.6c-8.1-11.1-26.8-2.4-21.4,9.9
		c80,183,238.5,596.2,196,912.4C2270.3,1226.3,2290.5,1230.9,2295.5,1218.7z"/>
	<path fill="#ABC19B" d="M2277.3,1246.6c89.6-129.9,232.6-443.9,12.5-943.3c-5.4-12.3-25.8-7.3-23.2,5.8
		c37.7,193.6,101.1,626.7-11,928.1C2251,1249.4,2269.7,1257.5,2277.3,1246.6z"/>
</g>
<g>
	<path fill="#5DA286" d="M86.3,1218.5c-1.6-1-3.1-2.1-4.5-3.4c-18.5-17.5-32-50-45.7-71.7c-10.6-16.8-39.1-47.9-35.8-68
		c3.9-23.7,25-35.2,40.8-50.9c17.2-17.1,37.1-37.6,47.9-59.6c7.2-14.7,10.2-39.3,30.4-42.2c12.8-1.8,27.3,21.5,34.9,29.3
		c25,25.8,47.8,53.6,72.5,79.7c8.8,9.3,21.5,16.5,27.8,28c8.5,15.5-1.5,29-7.8,42.8c-16.2,35.8-32.6,71.6-48.3,107.7
		c-1.3,3-2.7,6.1-5.1,8.3c-7.4,6.6-30.9,4.1-39.9,4.4C133.8,1223.8,103.6,1229.2,86.3,1218.5z"/>
	<path fill="#98BA97" d="M74.9,1016.6c6.7,16.1,13,32.3,18.9,48.6c5.8,16.4,11.6,32.7,16.9,49.3c5.2,16.6,9.7,33.4,14.5,50.1
		c4.8,16.7,10.3,33.2,16.1,49.5l-3.1,0.6c-2.5-20.7-5.5-41.3-7.7-62c-2.2-20.7-4.6-41.4-6.5-62.1c-1.9-20.7-3.4-41.5-4.7-62.3
		c-1.2-20.8-2.3-41.6-2.7-62.4c0-0.2,0.2-0.4,0.4-0.4c0.2,0,0.4,0.1,0.4,0.3c3.4,20.6,6.1,41.2,8.7,61.9c2.5,20.7,4.8,41.4,6.7,62.1
		c1.9,20.7,3.3,41.5,4.9,62.2c1.5,20.8,2.4,41.6,3.6,62.4l0,0.1c0.1,0.9-0.6,1.6-1.5,1.7c-0.7,0-1.4-0.4-1.6-1.1
		c-5-16.6-10.4-33.1-16.5-49.4c-6-16.3-12.5-32.5-18.1-48.9c-5.6-16.4-10.7-33-15.8-49.7c-5-16.6-9.6-33.4-13.8-50.3
		c-0.1-0.2,0.1-0.4,0.3-0.5C74.6,1016.3,74.8,1016.4,74.9,1016.6z"/>
	<path fill="#98BA97" d="M174.3,1028.2c-1.3,15.8-3.3,31.5-5.7,47.1c-2.4,15.6-5,31.2-8.7,46.6c-3.6,15.4-7.7,30.7-10.4,46.3
		c-2.9,15.5-4.9,31.2-6.9,46.9c-0.2,1.5-1.6,2.6-3.2,2.4c-0.8-0.1-1.5-0.6-2-1.2l-0.2-0.2c-7.7-11.4-15.2-23-22.5-34.6
		c-7.4-11.6-14.8-23.2-21.7-35.1c-7-11.8-13.8-23.8-20.5-35.8c-6.6-12.1-13.1-24.2-19.2-36.7c-0.1-0.2,0-0.5,0.2-0.6
		c0.2-0.1,0.4,0,0.5,0.1c8.3,11.1,16,22.4,23.8,33.8c7.7,11.4,15.2,22.9,22.5,34.6c7.4,11.6,14.4,23.5,21.3,35.4
		c7,11.9,13.9,23.8,20.5,35.8l-5.3,1c3.6-15.4,7.3-30.8,10.2-46.3c2.9-15.5,4.5-31.3,6.7-47c2-15.7,5.2-31.2,8.4-46.7
		c3.3-15.5,7-30.9,11.4-46.1c0.1-0.2,0.3-0.3,0.5-0.3C174.2,1027.8,174.4,1028,174.3,1028.2z"/>
	<path fill="#7CB397" d="M209.5,1073.9c-1.5,6.6-3.7,12.8-6.2,18.9c-2.5,6.1-5.1,12.1-8.5,17.7c-3.4,5.6-7.5,10.9-10.6,16.7
		c-3.1,5.7-5.7,11.8-7.8,18c-2.2,6.2-4.5,12.4-7.2,18.3c-2.6,6-5.3,12-8.2,17.8c-6.1,11.6-12.8,22.9-21,33.5
		c-0.1,0.2-0.4,0.2-0.6,0.1c-0.1-0.1-0.2-0.3-0.1-0.4c3.4-12.9,8.3-25.1,13.8-37c2.8-5.9,5.9-11.7,9.1-17.4
		c3.1-5.8,6.5-11.4,10.2-16.9c3.6-5.5,6.9-11.2,9.5-17.2c2.7-6,4.4-12.4,6.8-18.5c2.5-6.1,5.6-11.8,8.9-17.5
		c3.4-5.6,6.9-11.2,11.2-16.4c0.2-0.2,0.4-0.2,0.6-0.1C209.5,1073.6,209.6,1073.8,209.5,1073.9z"/>
</g>
<g>
</g>
<g>
</g>
<g>
</g>
<g>
</g>
<g>
</g>
<g>
</g>
<g>
</g>
<g>
</g>
<g>
</g>
<g>
</g>
<g>
</g>
<g>
</g>
<g>
</g>
<g>
</g>
<g>
</g>
</svg>
