<?xml version="1.0" encoding="utf-8"?>
<!-- Generator: Adobe Illustrator 18.0.0, SVG Export Plug-In . SVG Version: 6.00 Build 0)  -->
<!DOCTYPE svg PUBLIC "-//W3C//DTD SVG 1.1//EN" "http://www.w3.org/Graphics/SVG/1.1/DTD/svg11.dtd">
<svg version="1.1" id="Layer_1" xmlns="http://www.w3.org/2000/svg" xmlns:xlink="http://www.w3.org/1999/xlink" x="0px" y="0px"
	 viewBox="0 0 423.7 225.3" enable-background="new 0 0 423.7 225.3" xml:space="preserve">
<g>
	<path fill="#FFFFFF" d="M351.7,186.7H72.1C32.3,186.7,0,154.5,0,114.7l0-42.6C0,32.3,32.3,0,72.1,0l279.6,0
		c39.8,0,72.1,32.3,72.1,72.1v42.6C423.7,154.5,391.5,186.7,351.7,186.7z"/>
	<g>
		<g>
			<path fill="#EA8C38" d="M49.9,59.3v-5h-5.2v-4h17.7c0,15.9-0.2,25.8-0.6,29.5c-0.4,3.7-2.4,5.5-5.8,5.5c-0.7,0-2-0.1-3.6-0.2
				l-1-3.8c1.5,0.2,2.8,0.2,4,0.2c1.6,0,2.4-1.2,2.7-3.4c0.1-1,0.2-2.9,0.2-5.8H53c-1.1,5.8-3.2,10.2-6.4,13.4L43.4,83
				c2.7-2.6,4.5-6.2,5.6-10.7h-4.2v-3.9h4.8c0.2-1.6,0.2-3.2,0.3-4.9v-0.3h-5.1v-3.9H49.9z M58.3,63.2h-4.5v0.3
				c0,1.7-0.1,3.4-0.2,4.9h4.7C58.3,66.8,58.3,65.1,58.3,63.2z M58.4,54.3h-4.6v5h4.6C58.3,57.7,58.3,56.1,58.4,54.3z M79.7,50.3
				v3.2c-1.3,4.1-2.7,7.9-4.2,11.3c3.1,3.6,4.6,6.5,4.7,8.8c0,2.8-0.6,4.7-1.6,5.7c-1.2,1.1-3.4,1.7-6.9,1.7l-1.3-4.4
				c1.6,0.2,2.9,0.3,4,0.3c0.7,0,1.2-0.3,1.4-0.7c0.2-0.4,0.3-1.2,0.4-2.6c0-2.2-1.7-5.2-5-8.8c1.4-3,2.7-6.5,4.1-10.6h-6V86h-4.1
				V50.3H79.7z"/>
			<path fill="#EA8C38" d="M86.2,51.4c4.4-0.4,8.4-1.2,11.9-2.4l1.4,3.7c-1.4,0.4-2.9,0.8-4.4,1.2v5.6h4.2v3.9h-4.2v1.7
				c1.8,1.7,3.5,3.5,5.2,5.5L98,74.1c-1.1-2-2.1-3.7-2.9-5v17h-4V69.9c-1.2,3.1-2.6,6-4.3,8.5l-1.8-4.5c2.6-3.1,4.5-6.6,5.7-10.4
				h-4.1v-3.9h4.5v-4.8c-1.4,0.2-2.7,0.4-4.1,0.6L86.2,51.4z M108.9,60.8V59h-9.4v-3.4h9.4v-1.8c-2.4,0.1-5,0.2-7.8,0.2l-1.2-3.5
				c7.7,0,14.2-0.5,19.5-1.5l1.9,3.2c-2.4,0.6-5.2,1-8.4,1.3v2h9.3V59h-9.3v1.8h7.8v13.7h-7.8v1.8h8.5v3.4h-8.5v2h9.4v3.5H99.4v-3.5
				h9.5v-2h-8.5v-3.4h8.5v-1.8h-7.8V60.8H108.9z M108.9,66.1v-2H105v2H108.9z M108.9,69.3H105v2h3.8V69.3z M112.9,66.1h3.8v-2h-3.8
				V66.1z M116.6,69.3h-3.8v2h3.8V69.3z"/>
			<path fill="#EA8C38" d="M143.9,52v-3.2h4.1V52h15.5v3.9H148v2.5h12.7v15.8h-9c2.9,2.8,7.1,5.1,12.7,6.8l-1.9,3.9
				c-6.7-2.7-11.6-6.3-14.5-10.6v12h-4.1V74.3c-2.6,4.2-7.2,7.7-14,10.8l-2.3-3.8c6-2.1,10.2-4.5,12.7-7h-9.2V58.4h12.8v-2.5h-15.5
				V52H143.9z M143.9,62h-8.7v2.7h8.7V62z M135.2,70.6h8.7v-2.7h-8.7V70.6z M156.6,62H148v2.7h8.6V62z M148,70.6h8.6v-2.7H148V70.6z
				"/>
			<path fill="#EA8C38" d="M206,50.3v4.1h-11.7v4.8h9.6v26.6h-4.2v-1.5h-23.4v1.5h-4.2V59.2h9.4v-4.8h-11.6v-4.1H206z M199.7,80.4
				v-5.4h-5.2c-3,0-4.4-1.6-4.4-4.6v-7.2h-4.6v0.2c-0.1,6.5-2.3,11.2-6.5,14.2l-2.8-2.4v5.4H199.7z M181.5,63.3v-0.2h-5.2v11.2
				C179.7,71.9,181.4,68.3,181.5,63.3z M185.6,59.2h4.6v-4.8h-4.6V59.2z M194.3,69.3c0,1.2,0.5,1.8,1.6,1.8h3.9v-8h-5.4V69.3z"/>
			<path fill="#EA8C38" d="M220,86l-3-2.8c2.4-2.5,3.7-5.6,3.8-9.4v-7.5c-2,2.3-4.2,4.4-6.6,6.4l-2.7-3.6c4.5-3.6,8.1-7.6,10.7-12.2
				h-9.6v-4h11.6c0.6-1.4,1.1-2.8,1.6-4.2l4.3,0.5c-0.4,1.3-0.8,2.5-1.2,3.7h19.1v4H227c-0.6,1.2-1.3,2.4-2,3.5h18.1V82
				c0,2.5-1.4,3.7-4.2,3.7h-4l-1-3.8c1.4,0.1,2.6,0.2,3.8,0.2c1,0,1.4-0.5,1.4-1.6v-3h-14.9C223.6,80.9,222.2,83.7,220,86z
				 M224.7,73.6c0,0.2,0,0.3,0,0.4h14.6v-3.1h-14.5V73.6z M239.2,64.1h-14.5v3.2h14.5V64.1z"/>
			<path fill="#EA8C38" d="M274.3,51.9h15.4v3.8h-35.6v-3.8h15.6c-0.4-0.9-0.7-1.7-1.1-2.4l4.7-0.8C273.6,49.7,274,50.7,274.3,51.9z
				 M280,85.8l-1-3.7l3.1,0.1c1.4,0,2.1-0.5,2.1-1.4v-9.8h-24.4V86h-4V67.5h32.3v14.2c0,2.8-1.6,4.2-4.9,4.2H280z M283.7,57.4v8.5
				h-23.4v-8.5H283.7z M280.2,72.7v8.6h-16.5v-8.6H280.2z M279.7,60.5h-15.4v2.2h15.4V60.5z M276.6,75.7h-9.1v2.5h9.1V75.7z"/>
			<path fill="#EA8C38" d="M302.9,75c-0.9,3.7-2.2,7-3.8,9.7l-3.5-2.3c1.6-2.6,2.8-5.3,3.4-8.2L302.9,75z M310.1,51.6
				c0.5-1,0.8-2,1.1-3l4.4,0.6c-0.2,0.8-0.6,1.6-1,2.4H327V72h-25.8V51.6H310.1z M309.1,85.4c-2.8,0-4.2-1.4-4.2-4v-7.2h4.2v6.3
				c0,0.8,0.4,1.2,1.2,1.2h8.2c0.6,0,1.1-0.2,1.4-0.6c0.4-0.4,0.6-1.8,0.8-4l4,1.3c-0.4,3.4-1,5.5-1.8,6.1c-0.8,0.6-2,0.9-3.6,0.9
				H309.1z M323,57.4v-2.2h-17.8v2.2H323z M323,62.9v-2.2h-17.8v2.2H323z M323,66.2h-17.8v2.3H323V66.2z M318.8,77.7l-3.2,2.2
				c-1-1.6-2.5-3.4-4.3-5.4l3.1-1.9C316.3,74.5,317.8,76.3,318.8,77.7z M332.5,81.5l-3.4,2.3c-1.3-2.5-3-5.3-5.3-8.4l3.3-2
				C329.5,76.5,331.2,79.2,332.5,81.5z"/>
			<path fill="#EA8C38" d="M356.4,71.4c-2.1,0.7-4.3,1.4-6.6,2v8.1c0,2.6-1.4,4-4.2,4h-4.5l-0.9-4c1.4,0.2,2.7,0.2,4,0.2
				c0.9,0,1.4-0.5,1.4-1.4v-6c-2.3,0.5-4.7,0.9-7.2,1.3l-0.6-4.2c2.7-0.4,5.3-0.9,7.8-1.4v-6.9h-7.8v-4h7.8v-3.7
				c-1.9,0.4-3.9,0.7-6,1l-0.9-4c5.5-0.6,10.5-1.8,14.8-3.5l1.4,3.9c-1.6,0.6-3.4,1.1-5.2,1.6v4.7h8.2c-0.2-3.1-0.3-6.5-0.3-10.2
				h4.2c0,3.8,0.2,7.2,0.4,10.2h12v4h-11.6c0.2,2.6,0.6,4.7,1,6.4c0.2,0.6,0.3,1.2,0.5,1.8c1.6-2,3.1-4.3,4.3-6.8l3.6,1.9
				c-1.8,3.6-3.9,6.8-6.3,9.4c0.4,1,0.8,1.8,1.3,2.4c1.1,1.8,2,2.6,2.6,2.6c0.4,0,0.9-2,1.4-6l3.7,2c-1,5.7-2.5,8.6-4.5,8.6
				c-1.8,0-3.6-1.2-5.5-3.6c-0.7-0.9-1.4-2-2-3.2c-2.7,2.2-5.8,4-9.1,5.3l-2.3-3.6c3.7-1.4,6.9-3.3,9.7-5.8c-0.4-1.3-0.8-2.6-1.2-4
				c-0.6-2.2-1-4.7-1.4-7.6h-8.6v5.9c2.3-0.6,4.6-1.2,6.6-2V71.4z M373.4,54.7l-3,3c-1.6-1.8-4-3.6-7-5.6l2.8-2.7
				C369,51.1,371.4,52.9,373.4,54.7z"/>
			<path fill="#EA8C38" d="M49.7,127.1c-0.8,3.6-1.9,6.8-3.2,9.5l-3.4-1.2c1.2-2.4,2.3-5.5,3.2-9.2L49.7,127.1z M51.3,107.7
				c-0.5-1.1-1-2.1-1.6-3l4.5-0.7c0.5,1.1,0.9,2.3,1.4,3.7h7v3.8H44.1v-3.8H51.3z M60.8,113.7v10.8h-5.5v12.3c0,2.5-1.2,3.8-3.7,3.8
				h-3l-0.8-3.8c0.9,0.2,1.7,0.2,2.5,0.2c0.7,0,1.1-0.4,1.1-1.2v-11.3h-5.7v-10.8H60.8z M56.9,117.2h-7.5v3.8h7.5V117.2z M62,133.4
				l-3.3,1.3c-0.7-2.6-1.5-5.2-2.6-7.7l3.3-0.9C60.6,128.7,61.4,131.2,62,133.4z M69.6,104v8.9h9.7v3.9h-9.8
				c-0.3,10.7-2.7,18.6-7.2,23.7l-3-2.6c3.8-4.5,5.9-11.6,6.2-21.1h-3.4v-3.9h3.5V104H69.6z M73.7,140.3c-2.2,0-3.4-1.2-3.4-3.6v-18
				h3.9v17.2c0,0.5,0.2,0.8,0.6,0.8H76c0.3,0,0.6-0.3,0.8-0.8c0.2-0.6,0.3-2.4,0.4-5.4l3.6,1.2c-0.3,4.3-0.7,6.8-1.3,7.6
				c-0.6,0.8-1.6,1.2-2.8,1.2H73.7z M78.5,110.1l-3,2.1c-1-1.8-2.5-3.7-4.3-5.8l3.1-1.9C76.1,106.7,77.5,108.5,78.5,110.1z"/>
			<path fill="#EA8C38" d="M94.7,119.5l-3,3c-1.5-1.8-3.7-3.7-6.5-5.8l3-2.9C90.7,115.7,92.9,117.5,94.7,119.5z M95.7,126.4
				c-1.8,5-3.7,9.8-5.9,14.2l-4.2-1.8c2.4-4.5,4.6-9.2,6.3-13.9L95.7,126.4z M95.8,109.8l-3,3c-1.6-1.8-3.8-3.6-6.8-5.6l3-2.9
				C91.7,106.1,94,108,95.8,109.8z M119,120.9v3.8c-1.2,3.3-3.2,6.2-6.1,8.6c2.8,1.4,6.1,2.7,9.9,3.8l-2.3,3.7
				c-4.4-1.5-8-3.2-11-5.1c-3.6,2.2-8,4-13.2,5.3l-2.3-3.6c4.6-1.1,8.6-2.6,11.8-4.4c-3-2.5-5-5.2-6.1-8.3h-2.4v-4H119z
				 M107.2,104.5c-0.2,1-0.5,1.9-0.8,2.8H119c-0.2,5.6-0.6,9.1-1.2,10.4c-0.7,1.2-2.2,1.8-4.6,1.9c-1.2,0-2.7-0.1-4.3-0.2l-1.2-3.8
				c2,0.2,3.7,0.2,5.1,0.2c0.9,0,1.5-0.2,1.7-0.6c0.2-0.5,0.3-1.8,0.4-4h-10c-1.7,3.6-4,6.5-6.7,8.8l-2.7-3.4
				c3.8-3.2,6.4-7.6,7.8-13L107.2,104.5z M109.1,131.1c2.4-1.8,4.3-3.9,5.6-6.2h-10.9C104.8,127.2,106.6,129.2,109.1,131.1z"/>
			<path fill="#EA8C38" d="M136,141l-3-2.8c2.4-2.5,3.7-5.6,3.8-9.4v-7.5c-2,2.3-4.2,4.4-6.6,6.4l-2.7-3.6
				c4.5-3.6,8.1-7.6,10.7-12.2h-9.6v-4h11.6c0.6-1.4,1.1-2.8,1.6-4.2l4.3,0.5c-0.4,1.3-0.8,2.5-1.2,3.7h19.1v4H143
				c-0.6,1.2-1.3,2.4-2,3.5h18.1V137c0,2.5-1.4,3.7-4.2,3.7h-4l-1-3.8c1.4,0.1,2.6,0.2,3.8,0.2c1,0,1.4-0.5,1.4-1.6v-3h-14.9
				C139.6,135.9,138.2,138.7,136,141z M140.7,128.6c0,0.2,0,0.3,0,0.4h14.6v-3.1h-14.5V128.6z M155.2,119.1h-14.5v3.2h14.5V119.1z"
				/>
			<path fill="#EA8C38" d="M189,106.9h-12.6v0.8h11.8v2h-11.8v0.7h11.8v2h-11.8v0.8h13.8v2.2h-3.2c0.8,0.8,1.4,1.5,2,2.3l-2.8,1.3
				c-0.2-0.3-0.4-0.5-0.5-0.7c-4.3,0.5-8.8,0.9-13.5,1l-0.7-2.6c0.8,0,1.6-0.5,2.5-1.3H170v-2.2h2.8v-8.3H189V106.9z M182.3,135.5
				c-2.4,2-5.4,3.7-9,5.1l-2.4-3.1c3.5-1.2,6.4-2.6,8.8-4.2L182.3,135.5z M204.7,129.8v3.2h-14.4v7.3h-4.1V133h-14.7v-3.2H204.7z
				 M203.8,127H200v-3.4H176v3.5h-3.8v-6.8h13.6c-0.2-0.4-0.4-0.8-0.6-1.1l4.2-0.7c0.2,0.6,0.4,1.2,0.6,1.8h14V127z M176.4,116.8
				c2.6-0.2,5.2-0.4,7.8-0.6l-0.8-0.8h-5.7C177.2,115.9,176.8,116.4,176.4,116.8z M198.5,125.1v3.1h-21v-3.1H198.5z M203.8,106.3
				c-2.7,1.5-6.7,2.7-11.8,3.6l-1.8-3.1c5.1-0.8,9-1.9,11.6-3.2L203.8,106.3z M204.7,110.8c-2.9,1.5-7.1,2.8-12.6,3.8l-1.6-2.9
				c5.4-0.9,9.6-2,12.4-3.4L204.7,110.8z M206.1,115.2c-3.2,1.8-7.8,3.2-13.9,4.2l-1.8-3.1c6-1,10.5-2.2,13.6-3.8L206.1,115.2z
				 M205.2,137.7l-2.8,2.8c-2-1.5-4.9-3.1-8.6-4.8l2.5-2.4C199.8,134.8,202.8,136.3,205.2,137.7z"/>
			<path fill="#EA8C38" d="M229.2,140.4c-2.8,0-4.2-1.6-4.2-4.8v-6l-13.4,1.3v-4.1l13.4-1.3v-5.2l-10.2,1.1v-4.1l10.2-1.1v-5.3
				c-3.4,0.3-6.8,0.6-10.3,0.7l-1.2-3.5c11.6-0.7,20.8-1.9,27.7-3.7l2,3.4c-4.5,1-9.1,1.9-13.9,2.6v5.4l14.6-1.5v4l-14.6,1.6v5.3
				l17.8-1.8v4.1l-17.8,1.8v5.4c0,1.1,0.4,1.7,1.3,1.7h10.6c0.8,0,1.4-0.2,1.8-0.7c0.5-0.5,0.8-1.9,1-4.2l4.1,1.3
				c-0.4,3.7-1,5.8-2,6.5c-0.9,0.6-2.2,1-4,1H229.2z"/>
			<path fill="#EA8C38" d="M281.3,109.9h-25.2v-4h31v4c-3.7,3.3-7.8,6.4-12.4,9.4v16.9c0,3-1.5,4.4-4.4,4.4c-2.4,0-4.6-0.1-6.4-0.3
				l-1.1-4c2,0.2,4.1,0.4,6.4,0.4c0.8,0,1.3-0.4,1.3-1.3v-18.2C274.2,115.1,277.8,112.7,281.3,109.9z"/>
			<path fill="#EA8C38" d="M316.2,131.6c0.6,0.6,0.9,1.3,0.9,2.2s-0.3,1.6-0.9,2.2c-0.6,0.6-1.4,0.8-2.2,0.8s-1.6-0.3-2.2-0.9
				c-0.6-0.6-0.9-1.3-0.9-2.2s0.3-1.6,0.9-2.2c0.6-0.6,1.3-0.8,2.2-0.8S315.6,131.1,316.2,131.6z M316.7,108.3l-1,20.4h-3.4l-1-20.4
				H316.7z"/>
		</g>
	</g>
	<path fill="#EDA939" d="M45.4,92.1c112.2-1.4,224.4,0.4,336.3,5.5c0,0,0.1-2.5,0-2.5c-112-5-224.2-6.9-336.3-5.5
		C45.3,89.6,45.4,92.1,45.4,92.1L45.4,92.1z"/>
	<path fill="#EDA939" d="M45.4,146.6c97.3,3.9,194.9,5,292.3,3.1c0.1,0,0-2.5,0-2.5c-97.5,1.9-195,0.9-292.3-3.1
		C45.4,144.1,45.3,146.5,45.4,146.6L45.4,146.6z"/>
	<path fill="#FFFFFF" d="M132.2,178.4c0,0,2.3,36.1-13.8,47c0,0,40.7-7.6,49.2-47H132.2z"/>
</g>
<g>
</g>
<g>
</g>
<g>
</g>
<g>
</g>
<g>
</g>
<g>
</g>
<g>
</g>
<g>
</g>
<g>
</g>
<g>
</g>
<g>
</g>
<g>
</g>
<g>
</g>
<g>
</g>
<g>
</g>
</svg>
