<?xml version="1.0" encoding="utf-8"?>
<!-- Generator: Adobe Illustrator 18.0.0, SVG Export Plug-In . SVG Version: 6.00 Build 0)  -->
<!DOCTYPE svg PUBLIC "-//W3C//DTD SVG 1.1//EN" "http://www.w3.org/Graphics/SVG/1.1/DTD/svg11.dtd">
<svg version="1.1" id="Layer_1" xmlns="http://www.w3.org/2000/svg" xmlns:xlink="http://www.w3.org/1999/xlink" x="0px" y="0px"
	 viewBox="0 0 819 687.6" enable-background="new 0 0 819 687.6" xml:space="preserve">
<path fill="#836031" d="M62.6,683.2c67.9-2.4,135.9-2,203.8,1c19.4,0.9,38.8,2,58.2,3.3c3.6,0.2,7.1-2.6,7-6.3
	c-0.1-3.9-4-6.4-7.6-6.6c-67.8-4.6-135.8-6.5-203.8-5.7c-19.4,0.2-38.8,0.7-58.2,1.4C52.5,670.7,53.6,683.6,62.6,683.2L62.6,683.2z"
	/>
<g>
	<path fill="#E38A81" d="M814.6,590.2l-24.8-14.9c-7-4.2-5.3-14.8,2.7-16.6l18.5-4.1c8-1.8,9.7-12.4,2.7-16.6l-36.4-22.1
		c-6.1-3.7-5.7-12.6,0.6-15.8l21.7-10.9c6.5-3.3,6.7-12.5,0.4-16l-28.7-16.1c-6.1-3.4-6.2-12.1-0.3-15.7l23.7-14.4
		c5.9-3.6,5.8-12.1-0.2-15.6L771.7,398c-5.4-3.2-6.1-10.8-1.3-14.8l43.3-36.1c6.5-5.4,2.7-16-5.8-16h-51.8h-4.9H67.8h-14h-9.6
		c-8.6,0-12.4,10.8-5.6,16.2l6.8,5.4c5.8,4.6,4,13.8-3.1,15.8l-4.6,1.3c-7.1,2.1-8.9,11.3-3.1,15.8c5.9,4.6,3.9,14-3.3,15.9L6.7,408
		c-7.7,2.1-9.2,12.4-2.3,16.5l24.8,14.9c7,4.2,5.3,14.8-2.7,16.6l-18.5,4.1c-8,1.8-9.7,12.4-2.7,16.6l36.4,22.1
		c6.1,3.7,5.7,12.6-0.6,15.8l-21.7,10.9c-6.5,3.3-6.7,12.5-0.4,16l28.7,16.1c6.1,3.4,6.2,12.1,0.3,15.7l-23.7,14.4
		c-5.9,3.6-5.8,12.1,0.2,15.6l22.9,13.3c5.4,3.2,6.1,10.8,1.3,14.8L5.3,667.6c-6.5,5.4-2.7,16,5.8,16h42.7h14h683.5h4.9h18.8
		c8.6,0,12.4-10.8,5.6-16.2l-6.8-5.4c-5.8-4.6-4-13.8,3.1-15.8l4.6-1.3c7.1-2.1,8.9-11.3,3.1-15.8c-5.9-4.6-3.9-14,3.3-15.9
		l24.5-6.5C820,604.6,821.5,594.3,814.6,590.2z"/>
	<path fill="#E27E7D" d="M41.6,458.9c72.8-0.8,145.7-1.3,218.5-1.5c72.6-0.2,145.2-0.2,217.8,0.2c41,0.2-2.7,0.5,38.4,0.9
		c9.1,0.1,4.2-10.4-2.5-10.4c-73-0.7-61.3-1.1-134.4-1.2c-73.1-0.1-146.3,0.1-219.4,0.5c-41.4,0.3-82.7,0.6-124.1,1.1
		c-3.2,0-4.3,3.3-3.1,5.9C34.5,457.5,38.3,458.9,41.6,458.9L41.6,458.9z"/>
	<path fill="#E27E7D" d="M325.5,511.7c113.9,7,228.1,9.9,342.2,8.7c32.1-0.3,64.1-1,96.2-2c8.6-0.3,6.7-13.7-1-13.5
		c-114.1,3.5-228.3,2.9-342.3-1.8c-32.1-1.3-64.1-3-96.1-4.9C316,497.8,317.8,511.3,325.5,511.7L325.5,511.7z"/>
	<path fill="#836031" d="M493.9,556.4c74.4-2,148.9-2.3,223.3-0.9c20.9,0.4,41.8,0.9,62.7,1.5c8.6,0.3,9-12.3,0.1-12.6
		c-74.4-2.3-148.9-2.9-223.3-1.9c-20.9,0.3-41.8,0.7-62.7,1.3C485.4,544,484.9,556.6,493.9,556.4L493.9,556.4z"/>
	<path fill="#836031" d="M163.1,582.3c99.8,4.3,199.5,8.6,299.3,12.9c28.3,1.2,56.7,2.4,85,3.7c3.4,0.1,7.2-1.7,7.9-5.3
		c0.6-3.4-2.6-6.3-5.9-6.4c-99.8-4.3-199.5-8.6-299.3-12.9c-28.3-1.2-56.7-2.4-85-3.7c-3.4-0.1-7.2,1.7-7.9,5.3
		C156.6,579.4,159.8,582.2,163.1,582.3L163.1,582.3z"/>
	<path fill="#FFCE79" d="M164.3,196.6c0,0-69.1,49.4-61.1,133.5c7.7,80,93.1,79.2,191.9,69.9c8.7-0.8,15.4-7.8,16-16.5l0.8-12.2
		c0,0,11.6,0.8,11.7,0.8c5.7,0.4,27.2-0.9,32.4,0.3c12.3,2.7,7.3,3.4,27.9,4c19.7,0.6,42.8-17.2,44.7-36.1
		c1.7-17.2-6.3-33.9-15.3-48c-7.5-11.7-25.1-26.5-17.5-41.9c3-6.2,4.2-13,4.1-19.8c-0.1-7.1-0.6-13.7-7.1-17.9
		c-12.8-8.4-25.7,2.6-33.5,12.4c-8.9,11.2-17.2,23-29.8,30.5C315.1,264.3,164.3,196.6,164.3,196.6z"/>
	<path fill="#75B191" d="M131.2,231.2c0,0-29.2,30.5-28.6,82.8l129.7,1.7l-0.6,13.6l64.1,1.9c9.8,0.3,17.5,8.5,17.1,18.4l-0.9,21.9
		l13.5,1.1c0,0-10.8-77.3-3.3-122.9L131.2,231.2z"/>
	<path fill="none" stroke="#F0AB4B" stroke-width="3" stroke-linecap="round" stroke-linejoin="round" stroke-miterlimit="10" d="
		M204.5,329.1c0,0,58-0.2,92.9,2.8c9.7,0.8,16.9,9.3,16.2,19l-0.3,19.7"/>
	<path fill="none" stroke="#F0AB4B" stroke-width="3" stroke-linecap="round" stroke-linejoin="round" stroke-miterlimit="10" d="
		M231.1,329.2c2.6-13,0.2-27,0.2-27"/>
	<linearGradient id="SVGID_1_" gradientUnits="userSpaceOnUse" x1="447.1431" y1="300.0347" x2="752.8068" y2="300.0347">
		<stop  offset="0" style="stop-color:#C0C2C4"/>
		<stop  offset="1" style="stop-color:#BCBEC0"/>
	</linearGradient>
	<path fill="url(#SVGID_1_)" d="M668.5,184.8c0,0,51.8,31.6,73.5,88.8s9.3,85.1-24.8,104.5c-30.7,17.4-46.3,22.3-59.3,33.3
		c-2.9,2.5-6.5,3.9-10.3,3.9h-29.7c-8.8,0-16.1-6.9-16.4-15.7c-0.3-11.2,1.5-27.3,11.1-44.8h-35c0,0,8.2,11.9,12.6,23
		c2.1,5.4-0.8,11.4-6.3,13.3l-41.3,13.8c-2.8,0.9-5.8,0.6-8.3-0.9c-9.3-5.4-33.4-19.1-52.6-27.3c-24.4-10.5-41.8-43.6-31.4-71.5
		c10.5-27.9,70.2-94.6,70.2-94.6L668.5,184.8z"/>
	<path fill="#F5C15D" d="M480.7,258.3l96.9,96.5h35l21.2-19.5l102.6-74.8c0,0-31.4-65.1-80.3-78.6l-135.6,28.7L480.7,258.3z"/>
	<g>
		<path fill="#797A7D" d="M508.7,314c6.3,0.1,12.5,1.4,18.6,3.2c3,0.9,6,2,8.9,3.2l4.3,2c1.4,0.7,2.8,1.5,4.2,2.2
			c0.7,0.4,1.4,0.7,2.1,1.2l2,1.3l2,1.3c0.7,0.4,1.3,0.8,2,1.3l3.8,2.8c1.3,0.9,2.4,2,3.6,3l1.8,1.6l0.9,0.8l0.8,0.8l3.3,3.4
			c1.1,1.1,2.1,2.4,3.1,3.6c1,1.2,2,2.5,2.9,3.7c-1.2-1.1-2.3-2.1-3.4-3.2c-1.1-1.1-2.2-2.2-3.4-3.2c-2.4-2-4.7-4.1-7.2-5.9
			c-4.9-3.8-10.1-7.2-15.5-10.2c-5.4-3-11.1-5.5-16.9-7.7C520.9,316.9,514.9,315.2,508.7,314z"/>
	</g>
	<path fill="#E27E7D" d="M46,429.9c79,1.8,158,3,237.1,3.6c79,0.7,158.1,0.7,237.1,0.3c44.5-0.3,88.9-0.7,133.4-1.3
		c3.2,0,5.7-2.7,4.9-5.9c-0.9-3.4-5-5.2-8.3-5.1c-79,1.1-158,1.6-237.1,1.6c-79,0-158.1-0.6-237.1-1.7c-44.4-0.6-88.9-1.5-133.3-2.5
		c-3.2-0.1-5.7,2.8-4.9,5.9C38.7,428.3,42.8,429.8,46,429.9L46,429.9z"/>
	<path fill="#F2A959" d="M510.4,252.6c0,0,8.9,24.2,48.5,35.9c38.9,11.5,112,11.3,156.4-60.9l-21.7-26.8L510.4,252.6z"/>
	<path fill="#9CA1A5" d="M674.2,173.9l30.8,41c0,0-76.4,108.7-194.6,28.5L674.2,173.9z"/>
	<g>
		
			<linearGradient id="SVGID_2_" gradientUnits="userSpaceOnUse" x1="573.5295" y1="30.9366" x2="631.9516" y2="112.1576" gradientTransform="matrix(1 4.662756e-003 -4.662756e-003 1 20.4841 168.5744)">
			<stop  offset="0" style="stop-color:#C0C2C4"/>
			<stop  offset="1" style="stop-color:#B1B3B6"/>
		</linearGradient>
		<path fill="url(#SVGID_2_)" d="M688.7,155.9c-0.3-3.9-0.9-7.8-1.8-11.7c-3.4-15-10.5-30-20.3-42c-1.2-1.4-2.4-2.8-3.8-4.2l0,0
			c-3.2-3.3-6.7-6.5-9.8-10.1c-2.4-2.1-5-4.2-7.6-6.1l1-20.6c0.4-7.3-1.1-14.5-4.1-21.1L629.7,13c-0.9-6-5.3-10.8-11.1-12.4
			C610.5-1.7,602,3,599.7,11.1c-4.5,15.7,2.6,29.1,8.3,36.7c3.4,4.5,5.6,9.9,6.3,15.4c-7.8-3.8-13.2-6-13.2-6
			c-14.7-3-25.1-2.1-25.1-2.1c-12.8-0.3-25.8,1.9-38.2,7.1c-18.4,7.7-34.6,21.4-46.1,37.6c-13.4,19-29.4,37.2-48.4,50.8
			c-2,1.4-3.8,3.1-5.5,4.9c-10.6-0.8-18.5,9.5-19.4,20.1c-0.4,4.7,0.8,8.1,2.9,11c2.8,3.8,4.8,8,5.5,12.7
			c1.6,10.1,5.8,19.7,12.1,27.7c14.8,18.9,41.9,31.3,65.1,35.2c15.6,2.6,31.5,2.8,47.2,1.9c15-0.9,29.9-2.8,44.6-5.4
			C703.6,239.8,688.7,155.9,688.7,155.9z"/>
		<g>
			<path fill="#797A7D" d="M449.5,170.5c1.5,0.8,2.8,2.1,3.7,3.6c0.9,1.5,1.5,3.3,1.6,5c0.2,1.8,0.2,3.6-0.4,5.3
				c-0.3,0.8-0.7,1.6-1.1,2.4c-0.5,0.7-1,1.4-1.7,2c-0.1,0.1-0.1,0-0.2,0c0,0,0-0.1,0-0.1v0c0-0.9,0.1-1.7,0.3-2.5
				c0.1-0.8,0.2-1.6,0.4-2.4c0.1-0.4,0.1-0.8,0.2-1.2c0.1-0.4,0.2-0.8,0.2-1.1l0.2-1.1l0.1-1.2c0-1.5-0.2-3.1-0.8-4.6
				c-0.6-1.5-1.5-2.8-2.7-3.9l0,0c-0.1,0-0.1-0.1,0-0.2C449.4,170.5,449.4,170.5,449.5,170.5z"/>
		</g>
		<path fill="#808285" d="M428.6,185.2c0-0.8,0.5-1.6,1.7-2.4c2.1-1.4,7.8-2.6,8.2,2c0.3,3.4-1.1,4.6-3.5,4.5
			C432.9,189.1,428.7,187.4,428.6,185.2z"/>
		<circle fill="#9A9FA3" cx="498.7" cy="152" r="12.6"/>
		<circle fill="#6B6C6F" cx="498.7" cy="152" r="8"/>
		<path fill="#FFFFFF" d="M466.7,130.9l-53.1-64.7c-2-2.4-5.9-0.7-5.5,2.4c2.5,19.1,10,60.2,30.4,86.8
			C438.6,155.4,449.5,150.4,466.7,130.9z"/>
		<path fill="#797A7D" d="M471.1,206.8c0,0-16.5,23.4-29.1,23.8c0,0-9.9-9.8-12.2-21.2c0,0,11.7-4,18.7-1.8
			C455.6,209.7,469.3,207.1,471.1,206.8z"/>
		<path fill="#EF9BB5" d="M442,230.6c0,0-5.7-5.4-7.7-10.1c0,0,7.4-4.9,27.4-2.4C461.7,218.1,451.4,230.2,442,230.6z"/>
		
			<path fill="none" stroke="#797A7D" stroke-width="2.5" stroke-linecap="round" stroke-linejoin="round" stroke-miterlimit="10" d="
			M430.5,209.2c0,0,7.7-2.4,18-1.7c10.3,0.7,16.8,1.2,25.2-1.5"/>
		<g>
			<path fill="#797A7D" d="M481.5,191.1c-1.6,2-3,4.1-4.1,6.3c-1.1,2.2-1.8,4.5-2.1,6.8c-0.1,0.6-0.1,1.2-0.2,1.8
				c0,0.6-0.1,1.2,0,1.8l0.1,1.8c0.1,0.6,0.2,1.2,0.3,1.8l0.1,0.9l0.2,0.9l0.4,1.8c0.3,1.2,0.8,2.4,1.1,3.6c-0.8-1-1.6-2.1-2.3-3.2
				l-0.9-1.8c-0.1-0.3-0.3-0.6-0.4-0.9l-0.3-1c-0.2-0.6-0.4-1.3-0.6-1.9l-0.3-2c-0.1-0.7-0.1-1.3-0.1-2c0-0.7,0-1.4,0.2-2
				c0.3-2.7,1.4-5.3,2.9-7.5C477.3,194.2,479.2,192.3,481.5,191.1z"/>
		</g>
		<path fill="none" d="M653.7,88.8c3.1,3.5,6.6,6.8,9.8,10.1C660.6,95.3,657.3,92,653.7,88.8z"/>
		<polygon fill="#91929D" points="663.5,98.9 663.5,98.9 663.5,98.9 		"/>
	</g>
	<path fill="#75B191" d="M325.5,372.5"/>
	<linearGradient id="SVGID_3_" gradientUnits="userSpaceOnUse" x1="325.5427" y1="372.4948" x2="325.5427" y2="372.4948">
		<stop  offset="0" style="stop-color:#C7C8CA"/>
		<stop  offset="1" style="stop-color:#BCBEC0"/>
	</linearGradient>
	<path fill="url(#SVGID_3_)" d="M325.5,372.5"/>
	<path fill="#75B191" d="M325.5,372.5c0,0,18.9,0.3,30.6,0c0,0-29.2-37.3-17.8-107.8l-18.8-9.7l-11.6,29.7L325.5,372.5z"/>
	<path fill="#EDA939" d="M315.7,257.5c0,0,61.6,29.8,55.5-39.6l-15.9-9.6L315.7,257.5z"/>
	<g>
		<path fill="#EDA939" d="M172.3,50.5c0,0,15.4-39.2,53-17.5c4.7,2.7,10.3,3.1,15.1,0.7c10-5.1,28.6-10.5,43.2,8.1
			c3.2,4,8,6.4,13.1,6.3c21.3-0.7,25.4,9.7,31.6,28.9c0,0,21.5,4.2,21.6,4.2c35.7,7,45.3,47.7,26.2,76.1c-3.2,4.7-1.6,11.2,3.4,13.7
			c8.6,4.3,19.2,12.7,16.5,27.1c-4.4,23.5-26.7,20.4-26.7,20.4L166.9,63.6L172.3,50.5z"/>
		<path fill="#EDA939" d="M138.6,73.2c0,0-45.8,4.3-50.6,43.1c-2.8,22.1,8.3,35.3,18.3,42.6c6.4,4.6,7.7,13.4,2.7,19.5
			c-5.1,6.3-10.4,14.6-12.3,23.5c-2.6,12.1-2.5,25.2,3.3,36.4c5.3,10.2,14.2,17.6,24.9,21.5c9.7,3.6,26.7,1.1,29,14.3
			c2.1,12.1,9.9,30.9,37.6,32.1c0,0,17,1.2,27.3-12.6c2-2.7,6.1-2.5,7.7,0.5c3.2,6,9.3,13.4,20.8,15.9c17.5,3.8,26.8-8.7,30.8-16.6
			c1.3-2.6,4.8-3.3,7-1.4c6.7,5.8,20.3,13.4,37.5,0c24.4-18.9,2.1-57.4,2.1-57.4L138.6,73.2z"/>
		<path fill="#F2B964" d="M278,60.3c-3.6-1.6,6.1-17.9,7.4-19.2c8.5-9,24-11.6,34.3-4.1c13.1,9.5,11.6,31.1,4.1,43.6
			C323.8,80.5,278.1,60.3,278,60.3z"/>
		<path fill="#FFCE79" d="M366.5,174.3c-0.7-8.4-3.1-16.3-6.1-24.2c-2.3-6.1-4.9-12.1-7.2-18.1c-6.1-15.8-11.9-36-22.3-49.4
			c-14-18.1-36.3-27.2-58-32.3c-24.2-5.7-47.9-1.8-71.3,7c-1,0.4-11.3,5.1-11.4,5c-8.4-10.7-25.1-12.5-38.1-8.4
			c-12.9,4-22.3,17.9-20.2,31.2c0.9,12,9.8,22.6,17.4,28.4c0.1,0-0.1,0,0,0c-4.3,9.4-5.2,13.7-6.7,23.9
			c-3.9,26.7,2.3,54.8,17.5,77.1c13.6,19.9,33.9,34.9,56.4,43.6c24.5,9.4,51.9,11.6,77.2,4.7c25.3-6.9,48.1-23.2,61.7-45.7
			C363,204.3,367.7,189.3,366.5,174.3z"/>
		<path fill="#F2B964" d="M152.2,104.4c5.7,4.3,14.9-4.5,22.7-15c7.5-10.1,1.3-24.9-11.2-26.3c-7-0.8-14.6,1.1-21.6,8.5
			c0,0-0.1,0.1-0.1,0.1c-5.1,5.4-5.7,13.7-1.7,20C143.6,96.7,148,101.2,152.2,104.4z"/>
		<circle fill="#F0AB4B" cx="254.4" cy="153.3" r="11.1"/>
		<circle fill="#F0AB4B" cx="326.6" cy="142.8" r="10.7"/>
		<circle fill="#48484A" cx="326.8" cy="142.1" r="6.7"/>
		<path fill="#F1B55B" d="M279.9,160.2l-12.2-18.9l0,0c-3.4-4.5-1.1-10.9,4.3-12.3l21.7-5.5c2.7-0.7,5.5,0.1,7.5,2.1
			c6.1,6.2,16.4,20.5,18,28.4"/>
		<circle fill="#E87D4C" cx="208.2" cy="183.3" r="26.5"/>
		<circle fill="#E87D4C" cx="346.2" cy="160.8" r="14.8"/>
		<circle fill="#48484A" cx="254.4" cy="153.3" r="6.7"/>
		<path fill="#EA8C38" d="M283.5,154.1c7.8-1.8,18.6-3.7,30.6-4.1c4.3-0.1,6.7,4.8,4,8.1L305,174.4l-22.4-10.9
			C278.3,161.4,279,155.2,283.5,154.1z"/>
		<path fill="#F1B55B" d="M251.7,114.2c-6.2,1.6-13.7,5.6-14.3,15.5c-0.1,2.6,3.3,3.9,5.2,1.9l12.1-12.8
			C256.6,116.6,254.5,113.5,251.7,114.2z"/>
		<path fill="#F1B55B" d="M302.4,101.4c6.4,0.1,14.6,2.2,17.5,11.7c0.8,2.5-2.3,4.5-4.6,3.1l-14.8-9.6
			C298.2,105,299.5,101.4,302.4,101.4z"/>
		<path fill="none" stroke="#EA8C38" stroke-width="3" stroke-linecap="round" stroke-linejoin="round" stroke-miterlimit="10" d="
			M303.4,164.4c0,0,3.6,18.7,0,27.5c0,0-11.8-1.6-21.6,4.7"/>
		<path fill="none" stroke="#EA8C38" stroke-width="3" stroke-linecap="round" stroke-linejoin="round" stroke-miterlimit="10" d="
			M292.6,206.7c0,0,6.1-0.9,9-3.1"/>
	</g>
	<path fill="#E38A81" d="M311.6,377.7l0.7-14.4l32.3-13.5c0,0,5.5,23.3,27.4,26.1C372,375.9,323.4,384.1,311.6,377.7z"/>
</g>
<g>
</g>
<g>
</g>
<g>
</g>
<g>
</g>
<g>
</g>
<g>
</g>
<g>
</g>
<g>
</g>
<g>
</g>
<g>
</g>
<g>
</g>
<g>
</g>
<g>
</g>
<g>
</g>
<g>
</g>
</svg>
