<?xml version="1.0" encoding="utf-8"?>
<!-- Generator: Adobe Illustrator 18.0.0, SVG Export Plug-In . SVG Version: 6.00 Build 0)  -->
<!DOCTYPE svg PUBLIC "-//W3C//DTD SVG 1.1//EN" "http://www.w3.org/Graphics/SVG/1.1/DTD/svg11.dtd">
<svg version="1.1" id="Layer_1" xmlns="http://www.w3.org/2000/svg" xmlns:xlink="http://www.w3.org/1999/xlink" x="0px" y="0px"
	 viewBox="0 0 1679.4 1160.1" enable-background="new 0 0 1679.4 1160.1" xml:space="preserve">
<path fill="#FEC059" d="M1521,869.8c0,0-189.8-161.3-411.9-37c-182.6,102.3-123.5,327.3-123.5,327.3S849,892.1,686,891.6
	c-163-0.4-380.3,247.4-380.3,247.4s117.5-188.1,15.6-382.6C246.2,613.1,0,580.5,0,580.5s408.2-30.4,326.1-369.6
	c0,0,362.7,316.3,432-210.9c0,0,204.4,499.2,489.7,36.7c0,0-128.8,432.2,431.7,223.9C1679.4,260.6,1136.7,510.7,1521,869.8z"/>
<path fill="#FFFFFF" d="M1471.1,474.5c-4-53.6-42.4-96.4-92.1-108.4c-24-105.2-121.8-179.9-232.6-171.6
	c-24.7,1.8-48.2,7.7-69.8,16.9c-16.8-52.8-68.1-89.2-125.8-84.9c-66.1,4.9-116,61.4-113.3,127.1c-16.5-18.1-40.9-28.6-67.2-26.7
	c-11.1,0.8-21.5,3.8-30.9,8.5c-15.7-52.1-65.9-88.3-122.4-84.1c-53.2,4-95.5,42.4-106.9,91.8c-20.8-5.9-43-8.3-65.9-6.6
	C339.1,244.3,260.1,336,268,441.1c0.3,3.6,0.6,7.1,1.1,10.6c-63.1,28.4-104.8,94-99.4,167c6.7,90.2,82.9,158.6,172.3,156.7
	c-4,13.7-5.7,28.3-4.6,43.3c5,67.2,63.5,117.6,130.7,112.6c17.6-1.3,34-6.3,48.6-14.2c54.4,61.3,135.7,97.4,223.7,90.8
	c60.4-4.5,114.7-28.4,157.3-65.2c21.3,42.4,66.6,70,116.9,66.3c35.5-2.6,66.3-20.4,86.5-46.5c28.5,12.7,60.5,18.7,93.7,16.2
	c105.2-7.8,184.8-97.5,181-202.1c40.1-32.1,64.2-82.8,60.1-137.9c-1.5-20.4-6.8-39.6-15.1-57.1C1454,558,1474.3,518.1,1471.1,474.5z
	"/>
<g>
	<path fill="#FFFFFF" d="M508.7,785c-2.9,34.8,15,69.4,48,86.3c23.3,11.9,49.4,12.5,72.1,3.9"/>
	<path fill="#A7A9AC" d="M508.7,785c0,0,0.1,0.7,0.4,2c0.1,0.7,0.3,1.5,0.4,2.4c0.2,1,0.3,2.1,0.6,3.3c0.6,2.4,1.2,5.2,2.2,8.4
		c0.2,0.8,0.5,1.6,0.7,2.5c0.3,0.8,0.6,1.7,0.9,2.5c0.3,0.9,0.5,1.8,0.6,2.7c0.1,1,0.4,1.9,0.6,2.9c0.5,1.9,0.9,4,1.7,6
		c0.3,1,0.7,2.1,1,3.1c0.3,1.1,0.8,2.1,1.2,3.1c0.4,1.1,0.9,2.1,1.3,3.2c0.5,1,1.1,2.1,1.6,3.2c1,2.2,2.3,4.3,3.6,6.4
		c0.6,1.1,1.3,2.1,2.1,3.1c0.7,1,1.4,2.1,2.2,3.1c0.8,1,1.6,2,2.4,3l1.2,1.5c0.4,0.5,0.9,1,1.3,1.4c0.9,1,1.8,1.9,2.7,2.9
		c0.9,1,1.9,1.8,2.9,2.7l1.5,1.3l0.7,0.7l0.8,0.6l3.1,2.5c1,0.9,2.1,1.6,3.3,2.3c1.1,0.7,2.2,1.5,3.3,2.2c1.2,0.6,2.3,1.3,3.5,1.9
		l1.7,1l0.4,0.2c0.1,0.1-0.1,0-0.1,0l0.1,0l0.1,0.1l0.2,0.1l0.9,0.4l1.9,0.9c0.6,0.3,1.2,0.6,1.8,0.8c1.2,0.5,2.3,1,3.5,1.4
		c1.2,0.4,2.4,0.8,3.6,1.3c1.2,0.4,2.4,0.7,3.6,1.1c4.8,1.3,9.5,2.2,14.1,2.7c4.5,0.4,8.9,0.5,12.8,0.3c1,0,2-0.1,2.9-0.3
		c0.5-0.1,0.9-0.2,1.4-0.2c0.5,0,0.9,0,1.4,0c1.8,0.1,3.6,0.2,5.3,0.2c0.8,0,1.7,0,2.4,0c0.8,0,1.5-0.1,2.3-0.1c1.5,0,2.8-0.1,4-0.2
		c1.2-0.1,2.3-0.2,3.3-0.3c1-0.1,1.8-0.2,2.4-0.3c1.3-0.1,2.1-0.2,2.1-0.2s-0.6,0.4-1.7,1.1c-0.6,0.4-1.3,0.8-2.1,1.3
		c-0.9,0.5-1.8,1-3,1.6c-1.1,0.6-2.4,1.2-3.8,1.8c-1.4,0.7-3,1.3-4.6,1.9c-1.7,0.7-3.5,1.2-5.5,1.8c-1,0.4-2,0.4-3.1,0.4
		c-1.1,0-2.1,0.2-3.2,0.2c-4.4,0.2-9.2,0.1-14.2-0.4c-5-0.5-10.3-1.5-15.6-3c-1.3-0.4-2.7-0.7-4-1.2c-1.3-0.5-2.7-0.9-4-1.4
		c-1.3-0.6-2.7-1.1-4-1.7c-0.7-0.3-1.3-0.6-1.9-0.9l-1.9-0.9l-0.9-0.4l-0.6-0.3l-0.5-0.3l-1.9-1.1c-1.3-0.7-2.5-1.4-3.8-2.1
		c-1.2-0.8-2.4-1.6-3.7-2.4c-1.2-0.8-2.5-1.6-3.6-2.5l-3.5-2.7l-0.9-0.7l-0.8-0.7l-1.6-1.5c-1.1-1-2.2-1.9-3.2-3c-1-1.1-2-2.1-3-3.2
		c-0.5-0.5-1-1-1.5-1.6l-1.4-1.7c-0.9-1.1-1.8-2.2-2.7-3.3c-0.8-1.2-1.6-2.3-2.4-3.5c-0.8-1.1-1.6-2.3-2.3-3.5
		c-1.4-2.4-2.8-4.7-4-7.1c-0.6-1.2-1.2-2.4-1.7-3.5c-0.5-1.2-1-2.4-1.5-3.5c-0.5-1.2-1-2.3-1.4-3.5c-0.4-1.2-0.8-2.3-1.1-3.4
		c-0.8-2.2-1.3-4.5-1.8-6.6c-0.3-1.1-0.5-2.1-0.8-3.1c-0.3-1-0.5-2-0.5-3.1c0-1,0-2,0-3c0.1-1,0.1-1.9,0.2-2.8
		c0.1-0.9,0.1-1.8,0.2-2.6c0-0.8,0.2-1.6,0.3-2.4c0.3-1.5,0.5-2.9,0.7-4.2c0.2-1.3,0.5-2.3,0.8-3.3c0.3-0.9,0.5-1.7,0.7-2.4
		C508.5,785.7,508.7,785,508.7,785z"/>
</g>
<g>
	<path fill="#FFFFFF" d="M723.5,575.7c-19.9-14.7-50.8-28.7-71.6-32.7c-65.8-12.4-147.2,19.6-158.1,91.5"/>
	<path fill="#A7A9AC" d="M723.5,575.7c0,0-1-0.5-2.8-1.5c-0.9-0.5-2.1-1.1-3.4-1.7c-1.3-0.7-2.9-1.4-4.6-2.2
		c-3.5-1.7-7.8-3.5-12.7-5.5c-1.2-0.5-2.5-1-3.8-1.5c-1.3-0.5-2.7-1-4.1-1.5c-1.4-0.5-2.8-1-4.3-1.5c-1.5-0.5-3-1.1-4.4-1.8
		c-0.7-0.4-1.5-0.7-2.2-1.1c-0.8-0.3-1.5-0.6-2.3-1c-1.6-0.7-3.2-1.3-4.8-1.9c-3.3-1.3-6.7-2.4-10.2-3.6c-3.5-1.1-7.1-2.1-10.9-2.9
		l-1.4-0.3l-0.3-0.1c0,0-0.2,0-0.1,0l-0.2,0l-0.7-0.1c-1-0.2-2-0.4-3-0.5c-1.9-0.3-3.9-0.6-5.9-0.8c-15.9-1.9-33.3-1.2-50.1,2.3
		c-16.8,3.5-33,9.9-46.5,18.4c-6.8,4.3-12.8,9-18.1,14.1c-5.3,5-9.6,10.4-13.2,15.6c-0.4,0.7-0.9,1.3-1.3,1.9
		c-0.4,0.7-0.8,1.3-1.2,1.9c-0.8,1.3-1.4,2.6-2.1,3.9c-1.6,2.4-3.2,4.7-4.5,6.9c-1.3,2.2-2.5,4.4-3.5,6.5c-0.5,1-1,2-1.5,3
		c-0.4,1-0.9,1.9-1.2,2.8c-1.5,3.5-2.6,6.4-3.2,8.3c-0.7,2-1,3-1,3s0-1.1,0-3.2c0.1-2.1,0.2-5.2,0.8-9.1c0.1-1,0.3-2,0.5-3.1
		c0.2-1.1,0.4-2.2,0.6-3.4c0.5-2.4,1.2-4.9,2-7.6c0.4-1.3,0.8-2.7,1.4-4.1c0.5-1.4,1-2.9,1.7-4.3c0.3-0.7,0.8-1.4,1.2-2.1
		c0.4-0.7,0.9-1.4,1.3-2.1c0.4-0.7,0.9-1.4,1.3-2.1c0.5-0.7,0.9-1.4,1.4-2.1c3.9-5.7,8.7-11.5,14.4-17c5.7-5.5,12.3-10.6,19.5-15.2
		c14.5-9.2,31.7-15.9,49.4-19.6c17.8-3.7,36.1-4.4,53-2.4c2.1,0.3,4.2,0.5,6.3,0.9c1.1,0.2,2,0.3,3,0.5l0.7,0.1l0.4,0.1l0.4,0.1
		l1.5,0.3c4.1,0.8,8,2,11.7,3.1c3.7,1.2,7.3,2.4,10.7,3.8c3.4,1.3,6.6,2.7,9.8,3.9c1.6,0.6,3.1,1.4,4.4,2.2c1.4,0.8,2.8,1.6,4.1,2.4
		c1.3,0.8,2.6,1.6,3.8,2.4c1.2,0.8,2.4,1.6,3.5,2.3c4.5,3.1,8.4,5.9,11.4,8.4c1.5,1.2,2.9,2.3,4,3.3c1.2,1,2.1,1.8,2.9,2.6
		C722.7,575,723.5,575.7,723.5,575.7z"/>
</g>
<polygon fill="#FFFFFF" points="1186.9,265.9 1484.4,153.8 1279.9,378.1 "/>
<polygon fill="#FFFFFF" points="339.8,522 63.5,364.8 366.6,378.8 "/>
<polygon fill="#FFFFFF" points="446.9,785.5 174.3,949.2 335.2,691.9 "/>
<g>
</g>
<g>
</g>
<g>
</g>
<g>
</g>
<g>
</g>
<g>
</g>
<g>
</g>
<g>
</g>
<g>
</g>
<g>
</g>
<g>
</g>
<g>
</g>
<g>
</g>
<g>
</g>
<g>
</g>
</svg>
