<?xml version="1.0" encoding="utf-8"?>
<!-- Generator: Adobe Illustrator 18.0.0, SVG Export Plug-In . SVG Version: 6.00 Build 0)  -->
<!DOCTYPE svg PUBLIC "-//W3C//DTD SVG 1.1//EN" "http://www.w3.org/Graphics/SVG/1.1/DTD/svg11.dtd">
<svg version="1.1" id="Layer_1" xmlns="http://www.w3.org/2000/svg" xmlns:xlink="http://www.w3.org/1999/xlink" x="0px" y="0px"
	 viewBox="0 0 324.1 188.2" enable-background="new 0 0 324.1 188.2" xml:space="preserve">
<g>
	<path fill="#FFFFFF" d="M269.3,152.8H54.8C24.5,152.8,0,128.2,0,98l0-43.2C0,24.5,24.5,0,54.8,0l214.4,0
		c30.3,0,54.8,24.5,54.8,54.8V98C324.1,128.2,299.5,152.8,269.3,152.8z"/>
	<g>
		<path fill="#616264" d="M76.8,72.1c-2.1,0.7-4.3,1.4-6.6,2v8.1c0,2.6-1.4,4-4.2,4h-4.5l-0.9-4c1.4,0.2,2.7,0.2,4,0.2
			c0.9,0,1.4-0.5,1.4-1.4v-6c-2.3,0.5-4.7,0.9-7.2,1.3l-0.6-4.2c2.7-0.4,5.3-0.9,7.8-1.4v-6.9h-7.8v-4h7.8v-3.7
			c-1.9,0.4-3.9,0.7-6,1l-0.9-4c5.5-0.6,10.5-1.8,14.8-3.5l1.4,3.9c-1.6,0.6-3.4,1.1-5.2,1.6v4.7h8.2c-0.2-3.1-0.3-6.5-0.3-10.2h4.2
			c0,3.8,0.2,7.2,0.4,10.2h12v4H82.9c0.2,2.6,0.6,4.7,1,6.4c0.2,0.6,0.3,1.2,0.5,1.8c1.6-2,3.1-4.3,4.3-6.8l3.6,1.9
			c-1.8,3.6-3.9,6.8-6.3,9.4c0.4,1,0.8,1.8,1.3,2.4c1.1,1.8,2,2.6,2.6,2.6c0.4,0,0.9-2,1.4-6l3.7,2c-1,5.7-2.5,8.6-4.5,8.6
			c-1.8,0-3.6-1.2-5.5-3.6c-0.7-0.9-1.4-2-2-3.2c-2.7,2.2-5.8,4-9.1,5.3l-2.3-3.6c3.7-1.4,6.9-3.3,9.7-5.8c-0.4-1.3-0.8-2.6-1.2-4
			c-0.6-2.2-1-4.7-1.4-7.6h-8.6v5.9c2.3-0.6,4.6-1.2,6.6-2V72.1z M93.8,55.4l-3,3c-1.6-1.8-4-3.6-7-5.6l2.8-2.7
			C89.4,51.8,91.8,53.6,93.8,55.4z"/>
		<path fill="#616264" d="M121.2,49.5v8.9l12-2.7c-0.1,6.1-0.9,12.5-2.4,19.3l-4.1-1.2c1-3.6,1.8-7.8,2.4-12.8l-7.8,1.6V77H117V63.5
			l-7.3,1.6v13.8c0,1.8,0.9,2.6,2.6,2.6h17c1.3,0,2.2-0.3,2.8-0.8c0.6-0.6,0.9-2.4,1.1-5.6l3.8,1.3c-0.3,4.2-1,6.8-1.9,7.7
			c-1,0.9-2.7,1.3-5.2,1.3h-18.7c-3.8,0-5.8-2-5.8-6.1V65.9l-5.9,1.2v-4l5.9-1.3v-9.2h4.1v8.2l7.3-1.6v-9.8H121.2z"/>
		<path fill="#616264" d="M142.5,71.3v-3.8h35.7v3.8h-15.3v3.4h11v3.7h-11v3.8c1.8,0.2,3.9,0.2,6.2,0.2c3.6,0,6.6-0.1,9-0.2
			l-1.2,3.9c-2.8,0-5.3,0-7.6-0.1c-6.6,0-11.2-0.6-13.6-1.5c-1.9-0.8-3.6-2.4-5.1-4.6c-1.5,2.7-3.4,4.9-5.7,6.7l-2.7-3.5
			c3.6-2.8,6-6.5,7.3-11.1l4,0.7c-0.4,1.4-0.8,2.7-1.3,4c1.5,2.4,3.3,3.8,5.2,4.5c0.4,0.1,0.8,0.2,1.3,0.4V71.3H142.5z M172.9,50.8
			v14.6h-25V50.8H172.9z M168.8,56.5v-2.1H152v2.1H168.8z M168.8,59.8H152v2.2h16.8V59.8z"/>
		<path fill="#616264" d="M194,82h-3.4v-2.4h-2.2v3.2H185V52.2h9.1V82z M190.6,76.3V55.6h-2.2v20.7H190.6z M205.6,51v2.8
			c-0.6,3.5-1.4,7.2-2.3,11.2c1.4,3.6,2.2,6.6,2.3,9.2c0,2-0.3,3.4-0.8,4.2c-0.9,1-2.3,1.6-4.4,1.6l-1-3.2v9.8h-3.4V51H205.6z
			 M201.1,76.5c0.3-0.1,0.6-0.3,0.7-0.6c0.1-0.3,0.2-0.9,0.2-1.8c0-2.6-0.8-5.5-2.2-8.7c1-4.2,1.7-7.9,2.3-11.2h-2.8v22
			C200,76.5,200.6,76.5,201.1,76.5z M214.4,58.6v18h-8v-18H214.4z M221,51.1V55h-1.4v27.5c0,2.6-1.4,4-4.2,4h-4.2l-0.8-3.5
			c1.3,0.2,2.6,0.2,3.8,0.2c1.2,0,1.8-0.5,1.8-1.6V55h-9.1v-3.8H221z M211.4,61.4h-2v12.4h2V61.4z"/>
		<path fill="#616264" d="M246.6,77.3c0.6,0.6,0.9,1.3,0.9,2.2s-0.3,1.6-0.9,2.2c-0.6,0.6-1.4,0.8-2.2,0.8s-1.6-0.3-2.2-0.9
			c-0.6-0.6-0.9-1.3-0.9-2.2s0.3-1.6,0.9-2.2c0.6-0.6,1.3-0.8,2.2-0.8S246,76.7,246.6,77.3z M247,54l-1,20.4h-3.4l-1-20.4H247z"/>
	</g>
	<path fill="#B3B5B8" d="M58.3,93.4c70.2-1.4,140.4,0.4,210.4,5.5c0,0,0.1-2.5,0-2.5c-70-5-140.2-6.9-210.4-5.5
		C58.3,90.9,58.3,93.4,58.3,93.4L58.3,93.4z"/>
	<path fill="#FFFFFF" d="M238.6,141.2c0,0-2.3,36.1,13.8,47c0,0-40.7-7.6-49.2-47H238.6z"/>
</g>
<g>
</g>
<g>
</g>
<g>
</g>
<g>
</g>
<g>
</g>
<g>
</g>
<g>
</g>
<g>
</g>
<g>
</g>
<g>
</g>
<g>
</g>
<g>
</g>
<g>
</g>
<g>
</g>
<g>
</g>
</svg>
