<?xml version="1.0" encoding="utf-8"?>
<!-- Generator: Adobe Illustrator 18.0.0, SVG Export Plug-In . SVG Version: 6.00 Build 0)  -->
<!DOCTYPE svg PUBLIC "-//W3C//DTD SVG 1.1//EN" "http://www.w3.org/Graphics/SVG/1.1/DTD/svg11.dtd">
<svg version="1.1" id="Layer_1" xmlns="http://www.w3.org/2000/svg" xmlns:xlink="http://www.w3.org/1999/xlink" x="0px" y="0px"
	 viewBox="0 0 66.6 156.8" enable-background="new 0 0 66.6 156.8" xml:space="preserve">
<g>
	<g>
		<path fill="#44A68D" d="M50.4,0c-86.5,62.3-35.5,156.8-35.5,156.8S101.7,93.5,50.4,0z"/>
	</g>
	<path fill="#80B493" d="M25.1,122.7c1.2-3.4,2.2-6.8,3.3-10.2c0,0,0,0,0,0c0,0,0,0,0,0c0.6-1.9,1.2-3.8,1.7-5.7
		c5.7,1.8,11.1-0.6,16.1-3.9c-0.9,0.6-2,1.1-3,1.6c-0.1,0-0.2,0-0.4,0.1c-0.5,0.1-1,0.3-1.5,0.4c-1.1,0.2-2.2,0.3-3.4,0.3
		c-2.2-0.1-4.2-0.7-6.1-1.7c-0.2-0.1-0.5,0-0.9,0.3c1.4-4.7,2.6-9.5,3.8-14.2c0,0,0,0,0.1,0c0,0,0,0,0-0.1c0.5-1.9,0.9-3.7,1.3-5.6
		c6.1,1.1,13.5-2.9,16.1-8.3c-0.5,1.1-3.5,1.1-4.1,2.3c-0.6,1.2-1.4,2.1-2.1,3.2c-0.4,0.3-0.6,0.5-0.7,0.6c-0.3,0.1-0.6,0.2-1,0.2
		c-2.4,0.4-4.6,0-6.8-1c-0.2-0.1-0.5,0-0.8,0.2c1-4.5,1.9-8.9,2.8-13.4c0.1,0,0.1,0,0.2,0c0,0-0.1-0.1-0.1-0.1
		c0.2-1.1,0.4-2.2,0.6-3.3c0.2-0.1,0.4-0.3,0.5-0.5c5.2-7.2,9.8-14.7,13.9-22.5c-0.6,1.1-3.4,1.1-4.1,2.3c-2.9,5.6-6.1,11-9.6,16.2
		c1.9-10.9,3.3-21.9,4.2-33c-0.1,0.8-4,1.4-4.1,2.3c-1,11.7-2.5,23.4-4.6,35c-3.7-5.7-5.3-13.8-7.4-19.7c0.1,0.2-4.2,2-4.1,2.3
		c2.5,7.3,4.3,17.9,10.4,23.2c-1,5.4-2.1,10.7-3.4,16c-4.5-6.6-8.1-13.8-10.7-21.3c0.1,0.2-4.2,2-4.1,2.3
		c3.1,8.9,7.7,17.4,13.4,24.9c-1.4,5.5-2.9,11-4.5,16.5c-2.3-4.4-4.5-8.8-6.8-13.2c0,0-4.1,2.2-4.1,2.3c3,5.8,5.9,11.5,8.9,17.3
		c-1.1,3.4-2.2,6.9-3.3,10.3C21.4,123.9,24.7,123.8,25.1,122.7z M42.3,104.9c-0.1,0-0.1,0.1-0.2,0.1C42.2,105,42.3,105,42.3,104.9z"
		/>
</g>
<g>
</g>
<g>
</g>
<g>
</g>
<g>
</g>
<g>
</g>
<g>
</g>
<g>
</g>
<g>
</g>
<g>
</g>
<g>
</g>
<g>
</g>
<g>
</g>
<g>
</g>
<g>
</g>
<g>
</g>
</svg>
