<?xml version="1.0" encoding="utf-8"?>
<!-- Generator: Adobe Illustrator 18.0.0, SVG Export Plug-In . SVG Version: 6.00 Build 0)  -->
<!DOCTYPE svg PUBLIC "-//W3C//DTD SVG 1.1//EN" "http://www.w3.org/Graphics/SVG/1.1/DTD/svg11.dtd">
<svg version="1.1" id="Layer_1" xmlns="http://www.w3.org/2000/svg" xmlns:xlink="http://www.w3.org/1999/xlink" x="0px" y="0px"
	 viewBox="0 0 560.3 217.5" enable-background="new 0 0 560.3 217.5" xml:space="preserve">
<g>
	<path fill="#FFFFFF" d="M490,180.3H70.3C31.6,180.3,0,148.7,0,110l0-39.7C0,31.6,31.6,0,70.3,0L490,0c38.7,0,70.3,31.6,70.3,70.3
		V110C560.3,148.7,528.7,180.3,490,180.3z"/>
	<g>
		<path fill="#757679" d="M59.6,52.6l-3.3-2.1c2.2-2.6,3.7-5.4,4.6-8.3l3.7,0.8c-0.2,0.7-0.4,1.3-0.6,1.9h8.7v3.3H67
			c0.7,1,1.4,2,1.9,2.9l-3.5,1.3c-0.7-1.5-1.5-2.8-2.5-4.2h-0.4C61.6,49.7,60.6,51.2,59.6,52.6z M71.2,59.1v-2.7H58.4V53h12.8v-2H75
			v2h12.8v3.4H75v2.7h11.3v3.4h-3.3v2.7h6.5v3.4h-6.5v4.8c0,2.5-1.4,3.7-4.1,3.7h-5.2l-0.9-3.7c1.7,0.1,3.3,0.3,4.8,0.3
			c1,0,1.5-0.4,1.5-1.2v-3.9H56.6v-3.4h22.6v-2.7H60v-3.4H71.2z M69.8,73.9L66.8,76c-1.1-1.6-2.5-3.3-4.4-5.1l3.1-2
			C67.4,70.7,68.8,72.4,69.8,73.9z M75.7,51.1l-3.2-1.9c1.6-2.2,2.7-4.6,3.4-7.1l3.7,0.8c-0.2,0.6-0.4,1.2-0.6,1.8h10V48h-5.7
			c0.7,1,1.4,2,1.9,3l-3.4,1.3c-0.7-1.5-1.6-2.9-2.5-4.3h-1.6C77,49.1,76.4,50.2,75.7,51.1z"/>
		<path fill="#757679" d="M99.3,52.6L96,50.5c2.2-2.6,3.7-5.4,4.6-8.3l3.7,0.8c-0.2,0.7-0.4,1.3-0.6,1.9h8.7v3.3h-5.6
			c0.7,1,1.4,2,1.9,2.9l-3.5,1.3c-0.7-1.5-1.5-2.8-2.5-4.2h-0.4C101.3,49.7,100.4,51.2,99.3,52.6z M110.9,59.1v-2.7H98.1V53h12.8v-2
			h3.9v2h12.8v3.4h-12.8v2.7h11.3v3.4h-3.3v2.7h6.5v3.4h-6.5v4.8c0,2.5-1.4,3.7-4.1,3.7h-5.2l-0.9-3.7c1.7,0.1,3.3,0.3,4.8,0.3
			c1,0,1.5-0.4,1.5-1.2v-3.9H96.4v-3.4h22.6v-2.7H99.7v-3.4H110.9z M109.6,73.9l-3.1,2.1c-1.1-1.6-2.5-3.3-4.4-5.1l3.1-2
			C107.1,70.7,108.5,72.4,109.6,73.9z M115.4,51.1l-3.2-1.9c1.6-2.2,2.7-4.6,3.4-7.1l3.7,0.8c-0.2,0.6-0.4,1.2-0.6,1.8h10V48H123
			c0.7,1,1.4,2,1.9,3l-3.4,1.3c-0.7-1.5-1.6-2.9-2.5-4.3h-1.6C116.7,49.1,116.1,50.2,115.4,51.1z"/>
		<path fill="#757679" d="M155.8,58.7c0,3.7-1.7,6.4-5.1,8.3l-1.3-2.1c2.2-1.4,3.4-3.1,3.7-5.2c-0.2,0-0.4,0.1-0.7,0.1
			c-0.8,0-1.5-0.3-2.1-0.8c-0.6-0.5-0.8-1.2-0.8-2c0-0.9,0.3-1.5,0.8-2.1c0.6-0.5,1.2-0.8,2.1-0.8C154.6,54.1,155.8,55.6,155.8,58.7
			z"/>
		<path fill="#757679" d="M182.1,55.4c0,8.2-1.5,15.1-4.3,21l-2.9-2.7c2.3-4.7,3.4-10.8,3.5-18.3V43.5h29.5v8.6h-25.7V55.4z
			 M184.2,68.8l-2.5-2.2c1.6-1.3,2.9-3,3.7-4.9c-0.4,0.1-0.9,0.2-1.3,0.3l-0.9-3c3.2-0.4,6.1-1,8.6-1.5v2.7
			c-1.6,0.4-3.5,0.9-5.5,1.3l2.2,0.9c-0.1,0.4-0.3,0.8-0.5,1.2h5.5v-2h3.9v2h10v3.2h-10v2.4h12v3.3h-12v4.8h-3.9v-4.8h-11.8v-3.3
			h11.8v-2.4h-7.3C185.5,67.6,184.8,68.2,184.2,68.8z M182.1,46.8v2H204v-2H182.1z M191.9,54.4l-1.1,2.7c-2.4-0.9-4.8-1.5-7.4-1.9
			l1.3-2.5C187.1,53,189.5,53.6,191.9,54.4z M197.2,52.7v8h-3.7v-8H197.2z M207.7,59.4l-1.2,3c-2.5-1-5.2-1.8-7.9-2.4l1.3-2.6
			C202.6,57.9,205.2,58.6,207.7,59.4z M198.6,54.3c2.8-0.4,5.5-1.1,8-1.8l0.9,2.8c-2.4,0.7-5.1,1.3-8,1.8L198.6,54.3z"/>
		<path fill="#757679" d="M217.4,60.2l-2.7-3.2c2.6-3.1,4.9-7.5,6.8-13.3l3.7,0.9c-0.6,1.9-1.3,3.7-2,5.4h7.6v-7.6h3.9v7.6H247v3.8
			h-12.2v8.2h14.2v3.9h-14.2v11.2h-3.9V65.7h-15.6v-3.9h15.6v-8.2h-9.4C220.3,56.1,218.9,58.3,217.4,60.2z"/>
		<path fill="#757679" d="M274.9,58.7c0,3.7-1.7,6.4-5.1,8.3l-1.3-2.1c2.2-1.4,3.4-3.1,3.7-5.2c-0.2,0-0.4,0.1-0.7,0.1
			c-0.8,0-1.5-0.3-2.1-0.8c-0.6-0.5-0.8-1.2-0.8-2c0-0.9,0.3-1.5,0.8-2.1c0.6-0.5,1.2-0.8,2.1-0.8C273.8,54.1,274.9,55.6,274.9,58.7
			z"/>
		<path fill="#757679" d="M311.9,63.4c-2,0.7-4,1.3-6.2,1.8v7.6c0,2.5-1.3,3.7-3.9,3.7h-4.2l-0.9-3.7c1.3,0.1,2.5,0.2,3.7,0.2
			c0.9,0,1.3-0.4,1.3-1.3v-5.7c-2.2,0.4-4.4,0.9-6.7,1.2l-0.6-3.9c2.5-0.4,5-0.8,7.3-1.3v-6.4h-7.3V52h7.3v-3.5
			c-1.8,0.4-3.6,0.7-5.6,0.9l-0.8-3.7c5.2-0.6,9.8-1.6,13.9-3.3l1.3,3.7c-1.5,0.6-3.1,1-4.8,1.5V52h7.7c-0.2-2.9-0.3-6.1-0.3-9.5
			h3.9c0,3.6,0.2,6.7,0.4,9.5h11.2v3.7h-10.9c0.2,2.4,0.6,4.4,1,6c0.2,0.6,0.3,1.1,0.4,1.6c1.5-1.9,2.9-4,4-6.4l3.4,1.8
			c-1.6,3.4-3.6,6.3-5.9,8.8c0.4,0.9,0.8,1.7,1.2,2.3c1,1.6,1.9,2.5,2.4,2.5c0.4,0,0.8-1.9,1.3-5.7l3.5,1.8c-1,5.4-2.4,8-4.2,8
			c-1.6,0-3.4-1.1-5.1-3.3c-0.7-0.9-1.3-1.8-1.9-3c-2.5,2.1-5.4,3.7-8.5,4.9l-2.2-3.3c3.4-1.3,6.5-3.1,9.1-5.4
			c-0.4-1.2-0.8-2.4-1.1-3.7c-0.6-2-1-4.4-1.3-7.1h-8v5.5c2.2-0.6,4.3-1.2,6.2-1.8V63.4z M327.8,47.7l-2.8,2.8
			c-1.5-1.6-3.7-3.4-6.6-5.2l2.6-2.5C323.7,44.4,325.9,46.1,327.8,47.7z"/>
		<path fill="#757679" d="M343.4,51.4v3c-1.1,1.9-2.4,3.7-3.9,5.6h4.2v2.6c-0.5,2.7-1,4.8-1.7,6.6c0.3,0.2,0.6,0.4,0.9,0.7
			c1.2,1.1,2.4,1.9,3.4,2.4c1,0.4,2.6,0.6,4.6,0.7c2.1,0,4.4,0,7,0c2.8,0,6.4-0.1,10.9-0.3l-0.9,3.7h-9.5c-2.6,0-5.1-0.1-7.7-0.1
			c-2.5-0.1-4.5-0.4-5.8-0.9c-1.6-0.6-3-1.5-4.3-2.9c-0.2-0.3-0.5-0.4-0.9-0.4c-0.7,0-1.8,1.6-3.3,4.9l-2.8-2.6
			c1.6-3.3,3.2-5.2,4.8-5.8c0.6-1.6,1.2-3.4,1.5-5.3H335v-2.9c1.6-1.9,3-3.7,4.2-5.4h-4.8v-3.5H343.4z M343.2,47.8l-2.5,2.5
			c-1.3-1.6-3.2-3.5-5.7-5.4l2.5-2.4C339.8,44.3,341.6,46.1,343.2,47.8z M364.8,55.7v7h-0.5l2.4,1.5c-0.6,0.9-1.5,1.9-2.5,2.9
			c1.1,0.7,2.2,1.5,3.1,2.2l-2.5,2.5c-2.2-2-5.4-4.2-9.4-6.5l2.2-2.1c1.3,0.7,2.7,1.5,3.9,2.2c1-1.1,1.7-2,2.2-2.7h-8.2
			c-0.7,0.8-1.6,1.6-2.6,2.3v3.6c1.7-0.3,3.4-0.7,5.2-1.2l0.6,3c-3,0.6-6.1,1.2-9.2,1.6l-1-2.7c0.7-0.2,1-0.6,1-1v-1.3
			c-1.1,0.6-2.4,1.1-3.7,1.6l-1.8-3c3-0.8,5.2-1.8,6.9-2.9h-3.6v-7H364.8z M367.5,51.4v3.1h-22.8v-3.1H367.5z M365.7,43.3v7.2h-19.2
			v-7.2H365.7z M352,45.8h-2.2v2h2.2V45.8z M361.4,58.5h-10.7v1.6h10.7V58.5z M357.2,45.8h-2.3v2h2.3V45.8z M362.4,45.8h-2.3v2h2.3
			V45.8z"/>
		<path fill="#757679" d="M374.2,62.7v-3.5h33.4v3.5h-14.3v3.1h10.3v3.4h-10.3v3.6c1.7,0.1,3.6,0.2,5.8,0.2c3.3,0,6.1-0.1,8.4-0.1
			l-1.1,3.7c-2.6,0-5,0-7.1-0.1c-6.2,0-10.4-0.5-12.8-1.4c-1.8-0.7-3.4-2.2-4.8-4.3c-1.4,2.5-3.2,4.6-5.4,6.3l-2.5-3.3
			c3.4-2.6,5.6-6.1,6.8-10.4l3.7,0.6c-0.3,1.3-0.7,2.5-1.2,3.7c1.4,2.2,3.1,3.6,4.9,4.2c0.4,0.1,0.8,0.2,1.2,0.3v-9.6H374.2z
			 M402.7,43.5v13.7h-23.4V43.5H402.7z M398.8,48.8v-2h-15.7v2H398.8z M398.8,51.8h-15.7v2h15.7V51.8z"/>
		<path fill="#757679" d="M423.6,63.4h-3.9v-8.5c-1.4,2.4-3.1,4.7-5.1,6.8l-1.4-3.7c2.6-2.2,4.8-4.8,6.3-7.8h-5.6v-3.6h5.7v-3.7h3.9
			v3.7h4.4v3.6h-4.4v1.1c1.8,1.2,3.7,2.5,5.5,3.9l-2.2,3.3c-1.3-1.5-2.4-2.8-3.3-3.8V63.4z M420.5,66c-0.9,3.6-2.1,6.7-3.7,9.4
			l-3.4-2.1c1.5-2.5,2.6-5.2,3.2-8.1L420.5,66z M426.4,76.3c-2.8,0-4.2-1.5-4.2-4.3v-7.1h4v6.3c0,0.9,0.5,1.3,1.5,1.3h7.8
			c0.5,0,0.9-0.2,1.2-0.6c0.3-0.4,0.5-1.6,0.6-3.6l3.7,1.3c-0.3,3.2-0.8,5.2-1.6,5.8c-0.7,0.6-1.8,0.9-3.3,0.9H426.4z M434.9,68.6
			l-3.1,2.2c-1-1.5-2.2-3.1-3.8-4.9l3-1.9C432.7,65.7,434,67.3,434.9,68.6z M445.4,43.5v19.6h-15.5V43.5H445.4z M441.6,49.1V47h-7.9
			v2.2H441.6z M441.6,54.4v-2.1h-7.9v2.1H441.6z M441.6,57.5h-7.9v2.2h7.9V57.5z M448.2,72.1l-3.3,2.3c-1.3-2.5-3.2-5.4-5.5-8.5
			l3.2-2C445,67.1,446.9,69.8,448.2,72.1z"/>
		<path fill="#757679" d="M469,58.8h-10.3V77h-3.9V43.5H469V58.8z M465.1,47h-6.4v2.6h6.4V47z M458.7,55.3h6.4v-2.5h-6.4V55.3z
			 M477.8,60.8v12h-15.1v-12H477.8z M474.1,64.2h-7.5v5.1h7.5V64.2z M471.4,58.7V43.5h14.4v29.5c0,2.5-1.3,3.8-3.9,3.8
			c-1.2,0-2.4-0.1-3.6-0.1l-1-3.7c1.1,0.1,2.2,0.2,3.1,0.2c0.9,0,1.4-0.5,1.4-1.4V58.7H471.4z M482,47.1h-6.6v2.5h6.6V47.1z
			 M475.3,55.3h6.6v-2.5h-6.6V55.3z"/>
		<path fill="#757679" d="M513.3,58.7c0,3.7-1.7,6.4-5.1,8.3l-1.3-2.1c2.2-1.4,3.4-3.1,3.7-5.2c-0.2,0-0.4,0.1-0.7,0.1
			c-0.8,0-1.5-0.3-2.1-0.8c-0.6-0.5-0.8-1.2-0.8-2c0-0.9,0.3-1.5,0.8-2.1c0.6-0.5,1.2-0.8,2.1-0.8C512.1,54.1,513.3,55.6,513.3,58.7
			z"/>
		<path fill="#757679" d="M89.8,117.8c-0.1,7.4-0.6,11.8-1.5,13.2c-1,1.5-2.7,2.2-5,2.2c-1,0-2.3-0.1-3.7-0.2l-1-3.7
			c1.5,0.1,2.8,0.2,3.8,0.3c1.5,0,2.4-0.5,2.8-1.4c0.4-0.9,0.6-3.2,0.7-6.9H63.5c-1.7,1.7-3.6,3.2-5.7,4.5l-1.9-3.5
			c5.4-3.6,9.4-8.5,12-14.7h-9.4v-3.4H64c-0.7-1.1-1.6-2.2-2.5-3.5l3.1-1.9c1.3,1.6,2.4,3,3.1,4.2l-1.8,1.2h3.3
			c0.5-1.8,1-3.6,1.3-5.6l3.9,0.5c-0.4,1.8-0.8,3.5-1.2,5.1h11.4l-1.3,6.6h4.5l-1.2,7H89.8z M66.2,124.1c-1,3.1-2.3,5.8-4.1,8.1
			l-3.4-2.2c1.8-2.1,3.1-4.3,3.9-6.7L66.2,124.1z M66.5,117.8h16.1l0.7-3.6H68.9C68.1,115.5,67.3,116.7,66.5,117.8z M72.3,130.5
			l-3.7,0.4c-0.2-2.9-0.6-5.1-1.2-6.7l3.3-0.4C71.5,125.5,72.1,127.7,72.3,130.5z M72,107.6c-0.4,1.1-0.9,2.2-1.3,3.2h8.6l0.8-3.2
			H72z M78.4,128.7l-3.5,1.3c-0.5-2.1-1.2-4.1-1.9-6.1l3-0.9C77,125.2,77.8,127,78.4,128.7z M84.1,127.5l-3.6,0.9
			c-0.5-1.8-1.2-3.6-2-5.3l3.1-1C82.5,123.6,83.4,125.4,84.1,127.5z"/>
		<path fill="#757679" d="M96,117.4l-1.3-4.1c3.8-4.3,6.6-9.3,8.4-15l3.7,1.7c-0.9,2.6-1.9,5.1-3.3,7.5v25.8h-3.9v-20
			C98.5,114.7,97.3,116.1,96,117.4z M119.3,98.6v11.8h10.2v3.9h-10.2v18.9h-4v-18.9h-9.4v-3.9h9.4V98.6H119.3z"/>
		<path fill="#757679" d="M154.6,100.7h13.3v3.3h-27.4v10.4c-0.1,7.7-1.3,13.8-3.4,18.4l-3-2.6c1.7-3.8,2.6-9.1,2.7-15.8v-13.7h13.9
			c-0.4-0.7-0.7-1.3-1.1-1.9l3.8-0.6C153.9,99,154.2,99.8,154.6,100.7z M145,110.7c-0.1,3.1-0.9,5.5-2.4,7.2l-1.8-1.6
			c1.2-1.2,1.9-3.1,1.9-5.5H145z M168,131l-3.1,2.2c-0.5-0.9-1.1-1.8-1.7-2.7c-5.3,0.9-12.2,1.6-20.6,2.1l-1-3.2
			c1.2-0.1,2.2-0.3,3.1-0.6c2.1-0.9,4.4-2.2,6.9-4c-2.5,0.1-5.2,0.2-8,0.3l-0.7-3c0.8-0.1,1.6-0.3,2.4-0.7c1.4-0.6,3.2-2.1,5.5-4.6
			l3.6,0.9c-1.5,1.7-3.2,3.1-4.9,4.3c2.1-0.1,4.1-0.2,6.2-0.3c1.2-1,2.4-2.1,3.7-3.2l3.5,1.7c-4.6,3.9-8.6,6.8-12.1,8.8
			c4-0.4,7.4-0.8,10.5-1.3c-0.6-0.9-1.3-1.7-1.9-2.5l3-1.9C164.7,126.2,166.6,128.8,168,131z M146,106.7v-2h3.4v2h4v2.9H149v7.6
			h-2.7v-7.6h-4.6v-2.9H146z M152.6,110.7v2.8c0,0.4,0.1,0.6,0.5,0.6h1.3v2.1h-2.2c-1.3,0-1.9-0.8-1.9-2.5v-3.1H152.6z M159.3,106.7
			v-2h3.4v2h4.6v2.9h-5v7.6h-2.7v-7.6h-4.9v-2.9H159.3z M158.2,110.7c0,3-0.6,5.3-1.6,6.8l-1.8-1.6c0.7-1.1,1.1-2.9,1.2-5.2H158.2z
			 M166.1,110.8v3.5c0,0.4,0.3,0.6,0.9,0.6h1.5v2.1h-2.4c-1.6,0-2.3-0.9-2.3-2.5v-3.7H166.1z"/>
		<path fill="#757679" d="M174.7,117.4l-1.3-4.2c3.9-4.2,6.7-9.2,8.6-14.9l3.6,1.7c-1,2.9-2.2,5.7-3.8,8.3v24.9h-3.9v-19.3
			C176.9,115.1,175.8,116.3,174.7,117.4z M186.4,114l-3.4-2.1c2.8-4.2,4.7-8.6,5.8-13.3l3.7,0.8c-0.3,1.1-0.6,2.2-1,3.3h15.6v2.5
			c-0.6,2.2-1.3,4.5-2.1,6.7l-3.7-1.1c0.7-1.3,1.3-2.7,1.9-4.4h-13C189.1,109.2,187.8,111.7,186.4,114z M191.8,114.9
			c-1.3,5.1-3,9.6-5,13.5l-3.7-1.3c1.9-3.4,3.7-7.8,5.2-13.1L191.8,114.9z M189.6,132.9l-0.9-3.7c1.5,0.1,3,0.3,4.3,0.3
			c0.9,0,1.3-0.5,1.3-1.4v-19.1h3.8v20c0,2.6-1.3,3.9-3.8,3.9H189.6z M208.1,127.4l-3.4,1.5c-1.3-5.4-2.9-10.2-4.6-14.3l3.4-1.2
			C205.3,117.8,206.8,122.5,208.1,127.4z"/>
		<path fill="#757679" d="M227.3,130.9h-3.7V129H218v3h-3.7v-27.3h3.6c0.7-2,1.2-4,1.5-6.2l3.9,0.5c-0.4,2-1,3.9-1.6,5.7h5.7V130.9z
			 M223.5,114.9v-6.6H218v6.6H223.5z M223.5,125.4v-7.1H218v7.1H223.5z M246,128.9c-0.4,2.6-2.2,3.9-5.4,3.9c-0.7,0-2.1-0.1-4-0.2
			l-0.9-3.6c1.6,0.1,3.1,0.2,4.3,0.2c1.3,0,2.1-0.7,2.4-2.2c0.2-1.8,0.3-8,0.4-18.6h-9.1c-1,2.2-2.2,4.3-3.6,6.1l-2.4-3.1
			c2.5-3.5,4.1-7.9,5-13l3.9,0.5c-0.4,2-0.9,3.9-1.4,5.7h11.4C246.5,117.7,246.3,125.8,246,128.9z M239.6,121.7l-3.1,2.2
			c-1.4-2.5-3.3-5.2-5.6-8.2l3.2-2C236.5,116.8,238.3,119.4,239.6,121.7z"/>
		<path fill="#757679" d="M255.9,133.4l-3-2.7c2.7-3.1,4.1-7.2,4.2-12.1v-8c-0.7,0.5-1.4,0.9-2.1,1.4l-2.5-3c4.3-2.5,8-6,11.2-10.6
			l3.9,0.9c-0.4,0.7-0.9,1.3-1.4,2h13.3v2.8c-1.2,1.3-2.4,2.4-3.5,3.4h8v22.2c0,2.2-1.3,3.3-3.8,3.3h-5l-1-3.6
			c1.8,0.1,3.4,0.2,4.9,0.2c0.7,0,1-0.4,1-1.3v-3.5h-20.2C259.3,128.1,257.9,131,255.9,133.4z M260.9,118.2c0,1.1-0.1,2.2-0.2,3.2
			h7.8v-3.5h-7.6V118.2z M270.6,107.5c1.2-0.9,2.4-1.8,3.7-2.9h-10.7c-0.9,1-1.9,2-2.8,2.9H270.6z M260.9,111v3.6h7.6V111H260.9z
			 M280.3,111h-8v3.6h8V111z M280.3,117.9h-8v3.5h8V117.9z"/>
		<path fill="#757679" d="M297.6,108.2v-4.6h-4.9v-3.7h16.6c0,14.9-0.2,24.1-0.6,27.6c-0.4,3.4-2.2,5.2-5.4,5.2
			c-0.7,0-1.8-0.1-3.4-0.2l-1-3.6c1.4,0.1,2.7,0.2,3.7,0.2c1.5,0,2.3-1.1,2.5-3.2c0.1-0.9,0.1-2.7,0.2-5.4h-4.9c-1,5.4-3,9.5-6,12.5
			l-2.9-2.5c2.5-2.4,4.2-5.8,5.2-10h-4v-3.7h4.5c0.1-1.5,0.2-3,0.3-4.6v-0.3h-4.8v-3.7H297.6z M305.5,111.9h-4.2v0.3
			c0,1.6-0.1,3.1-0.2,4.6h4.4C305.5,115.3,305.5,113.7,305.5,111.9z M305.6,103.6h-4.3v4.6h4.3C305.6,106.7,305.6,105.2,305.6,103.6
			z M325.6,99.8v3c-1.2,3.8-2.5,7.4-4,10.6c2.9,3.4,4.3,6.1,4.4,8.3c0,2.6-0.5,4.4-1.5,5.4c-1.1,1-3.2,1.6-6.4,1.6l-1.2-4.1
			c1.5,0.1,2.7,0.3,3.7,0.3c0.7,0,1.1-0.3,1.3-0.7c0.2-0.3,0.3-1.1,0.3-2.4c0-2.1-1.6-4.9-4.6-8.3c1.3-2.8,2.5-6.1,3.8-9.9h-5.6
			v29.7h-3.8V99.8H325.6z"/>
		<path fill="#757679" d="M351.2,100.7h13.3v3.3h-27.4v10.4c-0.1,7.7-1.3,13.8-3.4,18.4l-3-2.6c1.7-3.8,2.6-9.1,2.7-15.8v-13.7h13.9
			c-0.4-0.7-0.7-1.3-1.1-1.9l3.8-0.6C350.4,99,350.8,99.8,351.2,100.7z M341.6,110.7c-0.1,3.1-0.9,5.5-2.4,7.2l-1.8-1.6
			c1.2-1.2,1.9-3.1,1.9-5.5H341.6z M364.5,131l-3.1,2.2c-0.5-0.9-1.1-1.8-1.7-2.7c-5.3,0.9-12.2,1.6-20.6,2.1l-1-3.2
			c1.2-0.1,2.2-0.3,3.1-0.6c2.1-0.9,4.4-2.2,6.9-4c-2.5,0.1-5.2,0.2-8,0.3l-0.7-3c0.8-0.1,1.6-0.3,2.4-0.7c1.4-0.6,3.2-2.1,5.5-4.6
			l3.6,0.9c-1.5,1.7-3.2,3.1-4.9,4.3c2.1-0.1,4.1-0.2,6.2-0.3c1.2-1,2.4-2.1,3.7-3.2l3.5,1.7c-4.6,3.9-8.6,6.8-12.1,8.8
			c4-0.4,7.4-0.8,10.5-1.3c-0.6-0.9-1.3-1.7-1.9-2.5l3-1.9C361.3,126.2,363.2,128.8,364.5,131z M342.5,106.7v-2h3.4v2h4v2.9h-4.4
			v7.6h-2.7v-7.6h-4.6v-2.9H342.5z M349.2,110.7v2.8c0,0.4,0.2,0.6,0.5,0.6h1.3v2.1h-2.2c-1.3,0-1.9-0.8-1.9-2.5v-3.1H349.2z
			 M355.9,106.7v-2h3.4v2h4.6v2.9h-5v7.6h-2.7v-7.6h-4.9v-2.9H355.9z M354.8,110.7c0,3-0.6,5.3-1.6,6.8l-1.8-1.6
			c0.7-1.1,1.1-2.9,1.2-5.2H354.8z M362.6,110.8v3.5c0,0.4,0.3,0.6,0.9,0.6h1.5v2.1h-2.4c-1.6,0-2.3-0.9-2.3-2.5v-3.7H362.6z"/>
		<path fill="#757679" d="M385.2,108c0.2-1.9,0.4-3.9,0.4-6v-3.4h4v2.5c0,2.4-0.1,4.8-0.4,6.9h15v3.8h-14.1
			c2.7,7.8,7.7,13.9,15,18.1l-2.5,3.2c-7-4.3-12-10.4-14.9-18.1c-2.5,8.3-7.6,14.5-15,18.4l-2.5-3.3c7.6-3.7,12.4-9.8,14.4-18.4H371
			V108H385.2z"/>
		<path fill="#757679" d="M425,104c1.5,1.3,2.2,3.1,2.2,5.4c0,1.9-0.5,3.4-1.4,4.6c-0.3,0.4-1.4,1.4-3.2,3c-0.7,0.5-1.2,1.2-1.5,1.8
			c-0.4,0.7-0.6,1.6-0.6,2.5v0.5h-4.3v-0.5c0-1.4,0.2-2.7,0.7-3.7c0.5-1,1.9-2.6,4.4-4.8l0.4-0.5c0.7-0.8,1-1.7,1-2.7
			c0-1.2-0.4-2.2-1-2.9c-0.7-0.7-1.7-1-3-1c-1.6,0-2.8,0.5-3.5,1.5c-0.6,0.9-0.9,2.1-0.9,3.7h-4.3c0-2.8,0.8-4.9,2.4-6.5
			c1.6-1.6,3.8-2.4,6.6-2.4C421.5,102.1,423.5,102.7,425,104z M420.5,124.4c0.5,0.5,0.8,1.2,0.8,2c0,0.8-0.3,1.5-0.8,2.1
			c-0.6,0.5-1.3,0.8-2.1,0.8c-0.8,0-1.5-0.3-2-0.8c-0.6-0.5-0.9-1.2-0.9-2c0-0.8,0.3-1.5,0.9-2c0.5-0.5,1.2-0.8,2-0.8
			C419.2,123.7,419.9,123.9,420.5,124.4z"/>
	</g>
	<linearGradient id="SVGID_1_" gradientUnits="userSpaceOnUse" x1="59.7707" y1="82.8718" x2="526.6906" y2="82.8718">
		<stop  offset="0" style="stop-color:#B3B5B8"/>
		<stop  offset="1" style="stop-color:#A9ABAE"/>
	</linearGradient>
	<path fill="url(#SVGID_1_)" d="M59.8,81.7c155.7-1.3,311.4,0.4,466.8,5.1c-0.1,0,0.1-2.3,0-2.3c-155.4-4.7-311.2-6.3-466.8-5.1
		C59.7,79.4,59.8,81.7,59.8,81.7L59.8,81.7z"/>
	<linearGradient id="SVGID_2_" gradientUnits="userSpaceOnUse" x1="59.7707" y1="140.121" x2="430.5064" y2="140.121">
		<stop  offset="0" style="stop-color:#B3B5B8"/>
		<stop  offset="1" style="stop-color:#A9ABAE"/>
	</linearGradient>
	<path fill="url(#SVGID_2_)" d="M59.8,139c123.6-1.3,247.3,0.4,370.7,5.1c-0.1,0,0.1-2.3,0-2.3c-123.4-4.7-247.1-6.3-370.7-5.1
		C59.7,136.6,59.8,139,59.8,139L59.8,139z"/>
	<path fill="#FFFFFF" d="M307.9,170.1c0,0,27.4,40.9,69.9,47.5c0,0-19.6-19.6-11.9-58L307.9,170.1z"/>
</g>
<g>
</g>
<g>
</g>
<g>
</g>
<g>
</g>
<g>
</g>
<g>
</g>
<g>
</g>
<g>
</g>
<g>
</g>
<g>
</g>
<g>
</g>
<g>
</g>
<g>
</g>
<g>
</g>
<g>
</g>
</svg>
