<svg xmlns="http://www.w3.org/2000/svg" xmlns:xlink="http://www.w3.org/1999/xlink" viewBox="0 0 11799.9 1302.4"><defs><pattern id="a" width="282.1" height="282.1" patternTransform="matrix(1, 0, 0, -1, 4229.6, -843.5)" patternUnits="userSpaceOnUse" viewBox="0 0 282.1 282.1"><rect width="282.1" height="282.1" style="fill:none"/><polygon points="0 0 282.1 0 282.1 282.1 0 282.1 0 0" style="fill:none"/><polygon points="282.1 0 0 0 0 282.1 282.1 282.1 282.1 0" style="fill:#84b8b9"/><path d="M138,229c9.7,0,9.7,15,0,15s-9.7-15,0-15Z" style="fill:#719ea0"/><path d="M50.6,184.3c9.7,0,9.7,15,0,15s-9.6-15,0-15Z" style="fill:#719ea0"/><path d="M225.4,179.9c9.7,0,9.7,15,0,15s-9.7-15,0-15Z" style="fill:#719ea0"/><path d="M138,127.8c9.7,0,9.7,15,0,15s-9.7-15,0-15Z" style="fill:#719ea0"/><path d="M138.2,32.9c9.7,0,9.7,15,0,15s-9.7-15,0-15Z" style="fill:#719ea0"/><path d="M50.6,83.1c9.7,0,9.7,15,0,15s-9.6-15,0-15Z" style="fill:#719ea0"/><path d="M225.4,78.8c9.7,0,9.7,15,0,15s-9.7-15,0-15Z" style="fill:#719ea0"/></pattern></defs><title>patch</title><rect x="3404.4" y="104.3" width="8395.5" height="1198.1" style="fill:#8cb0cc"/><polygon points="3472.2 1269.3 2 1269.3 4 0 3472.2 0 3472.2 1269.3" style="fill:#cceaea"/><path d="M382.4,1268.7H2638l-167-151a203,203,0,0,0-235.4-26.5h0a203,203,0,0,1-191.5,3.8l-16.3-8.3a203,203,0,0,0-235.4,36.9,113.55,113.55,0,0,1-156.1,3.7l-10.6-9.6a203,203,0,0,0-235.4-26.5h0a203,203,0,0,1-191.5,3.8l-16.3-8.3a203,203,0,0,0-235.4,36.9,141.51,141.51,0,0,1-194.6,4.6l-11.6-10.5a203,203,0,0,0-235.4-26.5h0A203,203,0,0,1,314,1095l-16.3-8.3a203,203,0,0,0-235.4,36.9c-17.1,17-40.2,27.4-62.3,31.3v113.9H382.4Z" transform="translate(0)" style="fill:url(#a)"/></svg>