<?xml version="1.0" encoding="utf-8"?>
<!-- Generator: Adobe Illustrator 18.0.0, SVG Export Plug-In . SVG Version: 6.00 Build 0)  -->
<!DOCTYPE svg PUBLIC "-//W3C//DTD SVG 1.1//EN" "http://www.w3.org/Graphics/SVG/1.1/DTD/svg11.dtd">
<svg version="1.1" id="Layer_1" xmlns="http://www.w3.org/2000/svg" xmlns:xlink="http://www.w3.org/1999/xlink" x="0px" y="0px"
	 viewBox="0 0 374.5 589.8" enable-background="new 0 0 374.5 589.8" xml:space="preserve">
<linearGradient id="SVGID_1_" gradientUnits="userSpaceOnUse" x1="26.7423" y1="538.8665" x2="330.7312" y2="538.8665">
	<stop  offset="3.919991e-002" style="stop-color:#B64D3F"/>
	<stop  offset="1" style="stop-color:#E47377"/>
</linearGradient>
<ellipse fill="url(#SVGID_1_)" cx="178.7" cy="538.9" rx="152" ry="50.9"/>
<g>
	<path fill="#989BBB" d="M289.2,436.5c-24.3-79.1-51.8-150.6-50.3-216.1h-57.8h-57.8c1.6,65.4-25.9,136.9-50.3,216.1
		c-24.3,79.1,18.3,111.1,18.3,111.1h89.8h89.8C270.9,547.6,313.5,515.6,289.2,436.5z"/>
	<path fill="#7E819C" d="M139.2,412.9H122c-1.3,0-2.4-1.1-2.4-2.4v-60.6c0-1.3,1.1-2.4,2.4-2.4h17.2c1.3,0,2.4,1.1,2.4,2.4v60.6
		C141.6,411.8,140.5,412.9,139.2,412.9z"/>
	<circle fill="#7E819C" cx="129.6" cy="431.7" r="10"/>
	<circle fill="#7E819C" cx="248.3" cy="497.5" r="13.5"/>
	<circle fill="#7E819C" cx="244.7" cy="526.3" r="10"/>
	<circle fill="#7E819C" cx="270" cy="514.5" r="8.3"/>
	<path fill="#777D9F" d="M373.4,149.4c-6.5-42.9-38.6-78.2-71.7-103.8c-15.3-11.8-31.8-22.4-48.8-31.4c-0.6-0.3-1.6-0.8-3-1.4
		c-39.9-17.1-85.2-17.1-125.1,0c-1.4,0.6-2.4,1.1-3,1.4c-17,9-33.5,19.7-48.8,31.4C39.7,71.2,7.6,106.5,1.1,149.4
		c-3.1,20.5,0.2,41.4,8.3,60.3h355.6C373.1,190.8,376.4,169.9,373.4,149.4z"/>
	<path fill="#ADADB7" d="M26.3,238.3c0.2,0,160.9,0,160.9,0s160.7,0,160.9,0c4.4,0,13.8-21.5,15.2-24.5c0.6-1.3,1.1-2.7,1.7-4H9.4
		c0.6,1.3,1.1,2.7,1.7,4C12.6,216.8,21.9,238.3,26.3,238.3z"/>
	<circle fill="#ADADB7" cx="110.2" cy="58.9" r="9.4"/>
	<circle fill="#ADADB7" cx="137.2" cy="42.2" r="9.4"/>
	<circle fill="#ADADB7" cx="139.6" cy="73.4" r="10"/>
</g>
<g>
</g>
<g>
</g>
<g>
</g>
<g>
</g>
<g>
</g>
<g>
</g>
<g>
</g>
<g>
</g>
<g>
</g>
<g>
</g>
<g>
</g>
<g>
</g>
<g>
</g>
<g>
</g>
<g>
</g>
</svg>
