<?xml version="1.0" encoding="utf-8"?>
<!-- Generator: Adobe Illustrator 18.0.0, SVG Export Plug-In . SVG Version: 6.00 Build 0)  -->
<!DOCTYPE svg PUBLIC "-//W3C//DTD SVG 1.1//EN" "http://www.w3.org/Graphics/SVG/1.1/DTD/svg11.dtd">
<svg version="1.1" id="Layer_1" xmlns="http://www.w3.org/2000/svg" xmlns:xlink="http://www.w3.org/1999/xlink" x="0px" y="0px"
	 viewBox="0 0 8458.7 359.6" enable-background="new 0 0 8458.7 359.6" xml:space="preserve">
<g>
	<g>
		<path fill="#357EA4" d="M3745.5,255.3l202.2-134.8c12.9-8.6,27.8-13.2,42.9-13.2l0,0c46.1,0,83.4-41.6,83.4-92.9V0l-428.8,12.6
			L3745.5,255.3z"/>
		<path fill="#498EB5" d="M3645.2,12.6l100.3,242.7l-52.5,67.9c-13.3,17.1-38.2,11.7-44.7-9.8l-17.6-58.8c-6.3-21-24.2-35-44.2-34.3
			l0,0c-8.9,0.3-17.7-2.3-25.3-7.6l-63.1-43.9c-5.2-3.6-11.1-6.1-17.2-7.1l-119.1-19.8l-85.6-129.3H3645.2z"/>
		<polygon fill="#79A7C8" points="3400.2,12.6 3433.6,74.3 3578.6,117.4 3594.3,136.4 3405.4,101.4 3352.3,12.6 		"/>
		<polygon fill="#79A7C8" points="3692.4,12.6 3719.9,98.1 3675.5,86 3645.2,12.6 		"/>
		<polygon fill="#498EB5" points="3816.3,12.6 3759.3,160.5 3719.9,98.1 3692.4,12.6 		"/>
	</g>
	<g>
		<path fill="#357EA4" d="M6796.3,255.3l202.2-134.8c12.9-8.6,27.8-13.2,42.9-13.2l0,0c46.1,0,83.4-41.6,83.4-92.9V0L6696,12.6
			L6796.3,255.3z"/>
		<path fill="#498EB5" d="M6696,12.6l100.3,242.7l-52.5,67.9c-13.3,17.1-38.2,11.7-44.7-9.8l-17.6-58.8c-6.3-21-24.2-35-44.2-34.3
			l0,0c-8.9,0.3-17.7-2.3-25.3-7.6l-63.1-43.9c-5.2-3.6-11.1-6.1-17.2-7.1l-119.1-19.8l-85.6-129.3H6696z"/>
		<polygon fill="#79A7C8" points="6451,12.6 6484.5,74.3 6629.4,117.4 6645.1,136.4 6456.3,101.4 6403.1,12.6 		"/>
		<polygon fill="#79A7C8" points="6743.2,12.6 6770.7,98.1 6726.4,86 6696,12.6 		"/>
		<polygon fill="#498EB5" points="6867.2,12.6 6810.1,160.5 6770.7,98.1 6743.2,12.6 		"/>
	</g>
	<g>
		<path fill="#498EB5" d="M485.2,19.1L376.8,264.8l56.7,68.7c14.3,17.4,41.3,11.8,48.2-9.9l19-59.5c6.8-21.3,26.2-35.4,47.7-34.7
			l0,0c9.6,0.3,19.1-2.4,27.3-7.7l68.1-44.4c5.7-3.7,12-6.1,18.6-7.2L791.2,150l92.4-130.9H485.2z"/>
		<polygon fill="#679DC4" points="749.8,19.1 713.7,81.6 557.1,125.2 540.1,144.4 744.1,108.9 801.5,19.1 		"/>
		<path fill="#4688AD" d="M782.5,48.8l21.2,48.4c8.6,21.7,37.1,24.1,49,4.2l16-26.8c7-11.6,20.8-16.6,33.1-11.8v0
			c13.8,5.3,29.1-1.5,35-15.5l11.8-28.2H802.1L782.5,48.8z"/>
		<polygon fill="#357EA4" points="0,331.3 96.3,239.8 169.6,359.6 211.1,328 227,249.8 278,299.7 376.8,264.8 485.2,19.1 0,19.1 		
			"/>
		<polygon fill="#679DC4" points="434.2,19.1 404.5,105.6 452.4,93.4 485.2,19.1 		"/>
		<polygon fill="#4688AD" points="300.3,19.1 362,168.8 404.5,105.6 434.2,19.1 		"/>
	</g>
	<g>
		<path fill="#679DC4" d="M1864.4,215.6l15.1,24c19.6,31.2,60.3,34.5,83.9,6.9v0c10.2-11.9,24.5-18.7,39.4-18.7h21.1
			c15,0,29.4-6.9,39.6-19l2.8-3.3c9.3-11,14.5-25.6,14.5-40.7V10.2h-216.5V215.6z"/>
		<polygon fill="#4688AD" points="1999.8,10.2 2019.9,144.7 2080.9,188.4 2080.9,10.2 		"/>
		<path fill="#357EA4" d="M2591,4.3l-117.2,59.5c-15.9,8.1-27.4,23.2-31.3,41.2l-6.1,28.2c-2.4,11-14.2,16.7-23.8,11.3l-11.7-6.6
			c-10.9-6.1-24.2,2.1-24.2,15c0,23.3,0.6,66.2-30.1,71c-6.3,1-53.1-6.1-53.4,3.3c0,0,7.7-222.9,7.7-222.9H2591z"/>
		<path fill="#498EB5" d="M2301.1,215.6l-16,24c-20.7,31.2-63.6,34.5-88.6,6.9l0,0c-10.8-11.9-25.8-18.7-41.6-18.7h-22.3
			c-15.9,0-31-6.9-41.8-19l-3-3.3c-9.8-11-15.3-25.6-15.3-40.7V10.2h228.5V215.6z"/>
		<polygon fill="#679DC4" points="2121.6,10.2 2109.4,144.7 2072.5,188.4 2072.5,10.2 		"/>
		<path fill="#4688AD" d="M1650.2,4.3L1785.7,65c4.3,1.9,7.5,5.6,8.6,9.9l10.7,43.6c2.3,9.4,13.8,14.3,23,9.7l13-6.4
			c10.6-5.3,23.4,1.8,23.4,12.9v81.5c0,8.1,4.3,15.8,11.5,20.4v0c12.8,8.3,30.7,4.9,38.8-7.5l25.4-38.5V4.3H1650.2z"/>
	</g>
	<g>
		<path fill="#679DC4" d="M4922.3,215.6l15.1,24c19.6,31.2,60.3,34.5,83.9,6.9l0,0c10.2-11.9,24.5-18.7,39.4-18.7h21.1
			c15,0,29.4-6.9,39.6-19l2.8-3.3c9.3-11,14.5-25.6,14.5-40.7V10.2h-216.5V215.6z"/>
		<polygon fill="#4688AD" points="5057.8,10.2 5077.9,144.7 5138.9,188.4 5138.9,10.2 		"/>
		<path fill="#357EA4" d="M5649,4.3l-117.2,59.5c-15.9,8.1-27.4,23.2-31.3,41.2l-6.1,28.2c-2.4,11-14.2,16.7-23.8,11.3l-11.7-6.6
			c-10.9-6.1-24.2,2.1-24.2,15c0,23.3,0.6,66.2-30.1,71c-6.3,1-53.1-6.1-53.4,3.3c0,0,7.7-222.9,7.7-222.9H5649z"/>
		<path fill="#498EB5" d="M5359,215.6l-16,24c-20.7,31.2-63.6,34.5-88.6,6.9v0c-10.8-11.9-25.8-18.7-41.6-18.7h-22.3
			c-15.9,0-31-6.9-41.8-19l-3-3.3c-9.9-11-15.3-25.6-15.3-40.7V10.2H5359V215.6z"/>
		<polygon fill="#679DC4" points="5179.6,10.2 5167.4,144.7 5130.5,188.4 5130.5,10.2 		"/>
		<path fill="#4688AD" d="M4708.2,4.3L4843.7,65c4.3,1.9,7.5,5.6,8.6,9.9l10.7,43.6c2.3,9.4,13.8,14.3,23,9.7l13-6.4
			c10.6-5.3,23.4,1.8,23.4,12.9v81.5c0,8.1,4.3,15.8,11.5,20.4v0c12.8,8.3,30.7,4.9,38.8-7.5l25.4-38.5V4.3H4708.2z"/>
	</g>
	<g>
		<path fill="#679DC4" d="M7732.1,215.6l15.1,24c19.6,31.2,60.3,34.5,83.9,6.9v0c10.2-11.9,24.5-18.7,39.4-18.7h21.1
			c15,0,29.4-6.9,39.6-19l2.8-3.3c9.3-11,14.5-25.6,14.5-40.7V10.2h-216.5V215.6z"/>
		<polygon fill="#4688AD" points="7867.5,10.2 7887.6,144.7 7948.6,188.4 7948.6,10.2 		"/>
		<path fill="#357EA4" d="M8458.7,4.3l-117.2,59.5c-15.9,8.1-27.4,23.2-31.3,41.2l-6.1,28.2c-2.4,11-14.2,16.7-23.8,11.3l-11.7-6.6
			c-10.9-6.1-24.2,2.1-24.2,15c0,23.3,0.6,66.2-30.1,71c-6.3,1-53.1-6.1-53.4,3.3c0,0,7.7-222.9,7.7-222.9H8458.7z"/>
		<path fill="#498EB5" d="M8168.8,215.6l-16,24c-20.7,31.2-63.6,34.5-88.6,6.9l0,0c-10.8-11.9-25.8-18.7-41.6-18.7h-22.3
			c-15.9,0-31-6.9-41.8-19l-3-3.3c-9.9-11-15.3-25.6-15.3-40.7V10.2h228.5V215.6z"/>
		<polygon fill="#679DC4" points="7989.3,10.2 7977.1,144.7 7940.2,188.4 7940.2,10.2 		"/>
		<path fill="#4688AD" d="M7517.9,4.3L7653.4,65c4.3,1.9,7.5,5.6,8.6,9.9l10.7,43.6c2.3,9.4,13.8,14.3,23,9.7l13-6.4
			c10.6-5.3,23.4,1.8,23.4,12.9v81.5c0,8.1,4.3,15.8,11.5,20.4v0c12.8,8.3,30.7,4.9,38.8-7.5l25.4-38.5V4.3H7517.9z"/>
	</g>
</g>
<g>
</g>
<g>
</g>
<g>
</g>
<g>
</g>
<g>
</g>
<g>
</g>
<g>
</g>
<g>
</g>
<g>
</g>
<g>
</g>
<g>
</g>
<g>
</g>
<g>
</g>
<g>
</g>
<g>
</g>
</svg>
