<svg xmlns="http://www.w3.org/2000/svg" viewBox="0 0 47.79 43.94"><title>icon-leaf</title><path d="M47.79,0C43.34,42.84,0,43.94,0,43.94S4.73.85,47.79,0Z" style="fill:#c7df98"/><path d="M10.12,35.4q1.44-1.64,2.93-3.23l7.85-.36s0-1.88,0-1.88l-6,.27q2.4-2.49,4.9-4.88A37.19,37.19,0,0,0,31.24,25c.12,0-.11-1.86,0-1.88a37.22,37.22,0,0,1-9.61.51q2.43-2.25,4.94-4.4c3.07,1.05,7.16-.46,10.22-1,.12,0-.11-1.86,0-1.88-2.49.47-5.65,1.55-8.39,1.38q5.48-4.56,11.36-8.64c.3-.21-.3-1.68,0-1.88Q34.17,11,29,15.29q1.71-3.4,3.75-6.62c.29-.45-.3-1.44,0-1.88a77.06,77.06,0,0,0-5.09,9.4.79.79,0,0,0-.06.27l-1,.87-.07,0s0,0,0,.05q-2.11,1.8-4.15,3.67c0-.16,0-.28-.09-.33a4.46,4.46,0,0,1-1.73-2.16c0-.13-.08-.26-.12-.39a2.24,2.24,0,0,0,.07-.35c.26-.46.39-.94.7-1.39s-.31-1.47,0-1.88a6.47,6.47,0,0,0,.31,7.3l-1.68,1.58h0v0q-2.15,2.06-4.23,4.19c0-.19,0-.34-.09-.39a5.5,5.5,0,0,1-2.39-3c-.06-.19-.09-.4-.15-.59l0-.15c0-.46-.06-.91,0-1.36-.17,2.39.06,4.81,1.85,6.42L13,30.29h0v0q-1.47,1.59-2.91,3.21C9.79,33.88,10.42,35.06,10.12,35.4ZM12.86,24s0-.05,0-.08S12.86,24,12.86,24Z" style="fill:#a4d298"/></svg>