<?xml version="1.0" encoding="utf-8"?>
<!-- Generator: Adobe Illustrator 18.0.0, SVG Export Plug-In . SVG Version: 6.00 Build 0)  -->
<!DOCTYPE svg PUBLIC "-//W3C//DTD SVG 1.1//EN" "http://www.w3.org/Graphics/SVG/1.1/DTD/svg11.dtd">
<svg version="1.1" id="Layer_1" xmlns="http://www.w3.org/2000/svg" xmlns:xlink="http://www.w3.org/1999/xlink" x="0px" y="0px"
	 viewBox="0 0 160.2 168.6" enable-background="new 0 0 160.2 168.6" xml:space="preserve">
<g>
	<path fill="#00756E" d="M55.9,9.4c-4.3,3.2-6.8,8.2-6.7,13.6l0.5,15.3l-14.4-5.2c-5-1.8-10.7-1-15,2.1l0,0c-22,16-27,47.1-11,69.2
		l25.8,35.5c9.2,12.7,23.4,19.7,38.1,20.3l0,0l47.4,8c14.7,2.5,28.6-7.6,30.8-22.3l7-47.6l0,0c3.9-14.1,1.7-29.8-7.5-42.5
		l-25.8-35.5C109.1-1.7,77.9-6.6,55.9,9.4z"/>
	<path fill="#277D76" d="M116.4,50.5c-15.4,2.1-30.4,5.7-45,10.9C67.6,56.3,63.7,51.2,60,46c-2.8-3.9-9.9,3.6-7.6,6.8
		c1.9,2.5,3.8,5.1,5.6,7.6c-0.8,0.6-1.5,1.4-1.8,1.8C49.7,70.4,44.1,79,39.1,88.2c-0.9,1.7-0.8,3.3,1.2,3.4c2.1,0.1,4.3-3.6,5.1-5
		c4.1-7.6,9-14.8,14.3-21.6c0.2-0.3,0.5-0.7,0.8-1.2c4.7,6.4,9.5,12.7,14.4,18.9c-0.1,0.1-0.2,0.2-0.2,0.4
		c-6.5,12.3-12.5,24.8-18,37.5c-0.9,2-0.1,3.9,2.1,4.1c2.4,0.2,4.6-3,5.4-4.9c4.7-10.7,9.7-21.2,15.1-31.5
		c4.4,5.6,8.9,11.2,13.4,16.8c-0.4,0.4-0.7,0.9-1,1.4c-4.9,9.6-9.3,19.4-13,29.6c-0.7,2-0.2,4.2,2.2,4.2c2.4,0,4.6-2.9,5.4-4.8
		c3.2-8.5,6.8-16.8,10.8-24.9c4.2,5.1,8.4,10.1,12.6,15.2c2.6,3,9.4-4.8,6.6-8.1c-6.3-7.4-12.4-14.9-18.5-22.4
		c9.8-1.6,19.6-3.3,29.4-4.9c4.8-0.8,6.9-10.1,0.6-9.1c-12.1,2-24.2,4-36.3,6c-5-6.3-9.9-12.5-14.7-18.9c12-3.9,24.3-6.8,36.9-8.5
		C117.9,59.2,122,49.7,116.4,50.5z"/>
</g>
<g>
</g>
<g>
</g>
<g>
</g>
<g>
</g>
<g>
</g>
<g>
</g>
<g>
</g>
<g>
</g>
<g>
</g>
<g>
</g>
<g>
</g>
<g>
</g>
<g>
</g>
<g>
</g>
<g>
</g>
</svg>
