<?xml version="1.0" encoding="utf-8"?>
<!-- Generator: Adobe Illustrator 18.0.0, SVG Export Plug-In . SVG Version: 6.00 Build 0)  -->
<!DOCTYPE svg PUBLIC "-//W3C//DTD SVG 1.1//EN" "http://www.w3.org/Graphics/SVG/1.1/DTD/svg11.dtd">
<svg version="1.1" id="Layer_1" xmlns="http://www.w3.org/2000/svg" xmlns:xlink="http://www.w3.org/1999/xlink" x="0px" y="0px"
	 viewBox="0 0 612.3 463.6" enable-background="new 0 0 612.3 463.6" xml:space="preserve">
<g>
	<g>
		<rect x="215.1" y="155.9" fill="#F69696" width="133.6" height="307.7"/>
		<path fill="#F48991" d="M291.5,162.6c-5.6,19.7-6.8,39.5-6.3,59.3c0.5,19.9,2.7,39.9,3.6,59.8c0.9,19.8,0.7,39.6-3.6,59.3
			c-4.2,19.2-14.2,38.1-21.1,57.1c-6.6,18.4-9.8,37.4,2.8,55.6c1.6,2.3,3.4,4.6,5.5,6.8c-0.1-0.2,3.2-1.5,3.6-1.6
			c0.4-0.2,3.8-1.4,3.5-1.7c-16.4-17.8-16.2-36.7-10.7-55.2c5.7-19.1,16.5-38,21.7-57.1c5.4-19.7,6.3-39.5,5.7-59.3
			c-0.6-19.8-2.8-39.7-3.7-59.5c-0.9-19.8-0.5-39.6,4.1-59.4c0.6-2.5,1.2-5,1.9-7.5c-0.1,0.4-2.9,1.3-3.6,1.6
			C294.2,161.3,291.6,162.1,291.5,162.6L291.5,162.6z"/>
		<path fill="#F48991" d="M324.7,162.6c-5.6,19.7-6.8,39.5-6.3,59.3c0.5,19.9,2.7,39.9,3.6,59.8c0.9,19.8,0.7,39.6-3.6,59.3
			c-4.2,19.2-14.2,38.1-21.1,57.1c-6.6,18.4-9.8,37.4,2.8,55.6c1.6,2.3,3.4,4.6,5.5,6.8c-0.1-0.2,3.2-1.5,3.6-1.6
			c0.4-0.2,3.8-1.4,3.5-1.7c-16.4-17.8-16.2-36.7-10.7-55.2c5.7-19.1,16.5-38,21.7-57.1c5.4-19.7,6.3-39.5,5.7-59.3
			c-0.6-19.8-2.8-39.7-3.7-59.5c-0.9-19.8-0.5-39.6,4.1-59.4c0.6-2.5,1.2-5,1.9-7.5c-0.1,0.4-2.9,1.3-3.6,1.6
			C327.4,161.3,324.8,162.1,324.7,162.6L324.7,162.6z"/>
		<path fill="#F48991" d="M264.7,162.6c-5.6,19.7-6.8,39.5-6.3,59.3c0.5,19.9,2.7,39.9,3.6,59.8c0.9,19.8,0.7,39.6-3.6,59.3
			c-4.2,19.2-14.2,38.1-21.1,57.1c-6.6,18.4-9.8,37.4,2.8,55.6c1.6,2.3,3.4,4.6,5.5,6.8c-0.1-0.2,3.2-1.5,3.6-1.6
			c0.4-0.2,3.8-1.4,3.5-1.7c-16.4-17.8-16.2-36.7-10.7-55.2c5.7-19.1,16.5-38,21.7-57.1c5.4-19.7,6.3-39.5,5.7-59.3
			c-0.6-19.8-2.8-39.7-3.7-59.5c-0.9-19.8-0.5-39.6,4.1-59.4c0.6-2.5,1.2-5,1.9-7.5c-0.1,0.4-2.9,1.3-3.6,1.6
			C267.4,161.3,264.8,162.1,264.7,162.6L264.7,162.6z"/>
		<path fill="#F48991" d="M231.7,214.9c0.7,6.7-2.9,13.4-4.7,20c-1.8,6.3-1.9,12.7-1.3,19.1c1,12.7,4.6,25.5,2.2,38.2
			c-1.3,7.1-4.6,14.2-11,20.9c1.2-1.3,4.2-2.4,5.5-3.7c23.3-24.4,4.2-50.5,9.5-75.7c1.6-7.5,6.2-15,5.4-22.6c0,0.4-2.2,1.5-2.8,1.9
			C233.8,213.5,231.7,214.4,231.7,214.9L231.7,214.9z"/>
		<path fill="#F48991" d="M246.5,259.6c7.6,25.7,3.6,51.9-11.5,77.2c-3.5,5.9-6.9,12.3-18.5,16.9c-0.5,0.2,0.5,1.8,0.6,2.1
			c0.1,0.3,1.3,1.9,0.7,2.1c10.4-4.1,14.1-9.7,17.4-15.1c4-6.4,7.2-13,9.8-19.5c5-13.1,7.2-26.3,6.4-39.6
			c-0.4-7.1-1.8-14.2-3.8-21.2C247.3,261.6,247,260.6,246.5,259.6C246.4,259,246.3,258.8,246.5,259.6L246.5,259.6z"/>
		<path fill="#F48991" d="M331.1,422.2c-7.6-12.5-1.9-25.8,15.8-36.8c-1.9,1.2-6.1,1.8-8,3c-17.7,11-23.4,24.3-15.8,36.8
			c-0.1-0.2,3.6-1.3,4-1.5C327.6,423.5,331.2,422.4,331.1,422.2L331.1,422.2z"/>
	</g>
	<g>
		<path fill="#F69D9A" d="M522.6,225.8c0.3-0.2,0.6-0.4,0.9-0.6l75.1-83.6c18.4-13.6,18.3-40.7-0.2-54L505.3,1l0,0
			c-1.1-0.7-2.4-1.1-3.9-1L24.1,39.8c-5.6,0.5-7.5,7.8-2.8,10.8l4.8,3.1c4.1,2.6,3.4,8.7-1.1,10.4L22,65.3
			c-4.5,1.7-5.2,7.8-1.1,10.5c4.1,2.7,3.4,8.8-1.2,10.5L3.9,92c-5,1.8-5.3,8.6-0.6,10.9l17.2,8.2c4.9,2.3,4.3,9.3-0.8,11l-11.9,3.7
			c-5.1,1.6-5.7,8.6-0.8,10.9l25.2,12.2c4.2,2.1,4.5,7.9,0.5,10.3L19,167.6c-4.1,2.5-3.7,8.5,0.7,10.4l19.8,8.8
			c4.2,1.9,4.8,7.5,1.1,10.1l-14.8,10.7c-3.7,2.7-3.1,8.2,1,10.1l15.8,7.3c3.8,1.7,4.6,6.6,1.7,9.5l-26.4,26
			c-4,3.9-0.8,10.6,4.7,10.1l28.1-2.5l9.2-0.8l399-33.6l3.2-0.3l57.9-6.8C521,226.6,521.9,226.3,522.6,225.8L522.6,225.8
			L522.6,225.8z"/>
		<path fill="#F58E93" d="M33.2,107.8c56-5.5,61.5-4.7,117.6-9.8c55.9-5.1,111.8-10,167.7-14.7c31.6-2.7-2,0.5,29.6-2
			c7-0.6,2.6-7.7-2.6-7.3c-56.3,4.5-47.3,3.4-103.5,8.3c-56.3,4.9-112.6,10-168.9,15.3c-31.8,3-13.1-0.1-44.9,3
			c-2.5,0.2-3.1,2.7-2,4.4C27.6,107.3,30.6,108.1,33.2,107.8L33.2,107.8z"/>
		<path fill="#F58E93" d="M204.5,132.4c88.1-2.8,176.2-8.5,263.9-17.1c24.7-2.4,49.3-5.1,73.9-8c6.6-0.8,4.3-10.3-1.6-9.6
			c-87.6,10.3-175.5,17.6-263.6,22.1c-24.8,1.2-49.5,2.2-74.3,3C196.3,123.1,198.6,132.6,204.5,132.4L204.5,132.4z"/>
		<path fill="#F58E93" d="M380.5,145.9c57.2-6.5,114.5-11.8,171.9-15.9c16.1-1.2,32.3-2.2,48.4-3.2c6.7-0.4,6.2-9.4-0.7-9
			c-57.4,3.4-114.8,8.1-172,13.9c-16.1,1.6-32.2,3.4-48.2,5.2C373.2,137.7,373.6,146.7,380.5,145.9L380.5,145.9z"/>
		<path fill="#F58E93" d="M162.3,207.4c77.1-3.7,154.1-7.5,231.2-11.2c21.9-1.1,43.8-2.1,65.7-3.2c2.6-0.1,5.5-1.7,5.7-4.3
			c0.2-2.5-2.4-4.3-4.9-4.2c-77.1,3.7-154.1,7.5-231.2,11.2c-21.9,1.1-43.8,2.1-65.7,3.2c-2.6,0.1-5.5,1.7-5.7,4.3
			C157.1,205.7,159.8,207.5,162.3,207.4L162.3,207.4z"/>
		<path fill="#F58E93" d="M55.6,250.6c49.5-6,99.3-10.2,149.1-12.5c14.2-0.7,28.5-1.2,42.7-1.5c2.6-0.1,5-2.2,4.7-4.7
			c-0.3-2.7-3.3-4.1-5.9-4c-49.9,1.3-99.7,4.4-149.3,9.3c-14.2,1.4-28.4,3-42.5,4.7C47.5,242.7,49.1,251.4,55.6,250.6L55.6,250.6z"
			/>
	</g>
	<g>
		<g>
			<path fill="#FFFFFF" d="M158.5,119.1c-1.6,0.8-3.2,1.6-4.9,2.4l1.5,15.1c0.3,3.4,0,5.3-1.8,6.7c-1.8,1.3-4.4,1.9-8.3,2.2
				c-0.4-1.9-1.6-4.8-2.6-6.7c2.2-0.1,4.3-0.3,5-0.4c0.7-0.1,1-0.3,0.9-1.2l-1.3-12.7c-1.7,0.8-3.3,1.5-4.9,2.3l-2.5-6.9
				c1.9-0.7,4.1-1.6,6.6-2.7l-1.1-11.2l-5.9,0.6l-0.7-6.9l5.9-0.6l-1.2-11.8l6.8-0.7l1.2,11.8l4.2-0.4l0.7,6.9l-4.2,0.4l0.9,8.9
				l3.8-1.7L158.5,119.1z M164.3,101.1l-6.9,0.7L156.1,89l36.9-3.7l1.2,12.4l-7.2,0.7l-0.6-6.1l-22.8,2.3L164.3,101.1z M173.7,95.3
				c0.4,8.8-1.3,14.1-13,17.8c-0.8-1.7-2.7-4.2-4.2-5.4c9.7-2.5,10.7-5.5,10.4-11.8L173.7,95.3z M184.9,121.2
				c3.9,4.2,9.5,8,14.8,9.9c-1.5,1.5-3.5,4.4-4.5,6.3c-4.9-2.3-9.9-6.3-14-11l1.6,16l-7.3,0.7l-1.5-15.3
				c-2.9,5.3-6.8,10.1-11.5,13.2c-1.2-1.6-3.7-3.9-5.3-5.1c5.1-3,9.6-7.9,12.4-13.2l-10,1l-0.7-6.6l13.8-1.4l-0.6-6.2l7.3-0.7
				l0.6,6.2l16.2-1.6l0.7,6.6L184.9,121.2z M190.9,102.2c1.1-0.1,2.9-0.5,3.8-0.8c0.4,1.7,0.8,4.5,1.2,6.1c-1,0.5-2.6,0.6-4.3,0.8
				l-5.6,0.6c-6.4,0.6-8.1-1.3-8.7-7.4l-0.6-6.5l6.6-0.7l0.7,6.5c0.2,1.5,0.4,2,1.5,1.9L190.9,102.2z"/>
			<path fill="#FFFFFF" d="M224.6,128.8c-6.3,2.3-13,4.5-18.4,6.3l-2-6.7c2-0.5,4.3-1.3,7-2.1l-1.5-14.5l-5.4,0.5l-0.7-6.6l5.4-0.5
				l-1.3-13.5l-6,0.6l-0.7-6.7l19.2-1.9l0.7,6.7l-6.4,0.6l1.3,13.5l4.9-0.5l0.7,6.6l-4.9,0.5l1.3,13l5.4-1.8L224.6,128.8z
				 M237,105.4c1.3,12.7,0.8,24.2-10.3,32.7c-1-1.5-3.5-3.9-5.1-4.9c8.8-6.6,9.8-15.2,9-24.8L228,110c-1.8-3.7-5.3-9.6-8.3-13.9
				l5.2-2.7c1.7,2.4,3.5,5.1,5.1,7.6l-2.2-22l6.6-0.7L237,105.4z M263.3,125.3l0.7,6.9l-26,2.6l-0.7-6.9l11-1.1l-1.7-16.9l-7,0.7
				L239,104l7-0.7l-1.5-15.3l-7.7,0.8l-0.7-6.7l21.6-2.2l0.7,6.7l-6.8,0.7l1.5,15.3l6.1-0.6l0.7,6.6l-6.1,0.6l1.7,16.9L263.3,125.3z
				"/>
			<path fill="#FFFFFF" d="M321.9,79.3c0,0,0.2,2.5,0.3,3.4c2,28,2.3,38,0.1,41.5c-1.5,2.5-3.2,3.3-5.6,4c-2.3,0.5-6.1,0.9-9.8,1.1
				c-0.3-2-1.6-5.1-3.2-7c4,0,7.7-0.4,9.3-0.6c1.2-0.1,1.9-0.4,2.6-1.3c1.6-2.2,1.5-11.6,0-33.7L302.2,88c-1.2,3.9-2.8,7.5-4.5,10.4
				c-1.1-0.8-3.4-2.1-5.2-3l2.9,29.1l-16.7,1.7l0.5,4.6l-6.7,0.7l-4.6-46.4l7-0.7c0.5-3.2,0.8-7.3,0.8-10.2l8.2,0.3
				c-0.7,3.2-1.6,6.5-2.4,9.2l9.7-1l1,10.1c3.1-5.6,5.3-13.5,6.4-20.9l7.2,0.9c-0.4,2.7-1,5.5-1.6,8.2L321.9,79.3z M285.2,89.9
				l-9.9,1l1,10.1l9.9-1L285.2,89.9z M288.1,118.7l-1.2-12.2l-9.9,1l1.2,12.2L288.1,118.7z M308.4,113.3c-2.1-3.6-6.6-9.3-10.1-13.5
				l5.5-3.9c3.5,4,8.3,9.5,10.6,12.9L308.4,113.3z"/>
			<path fill="#FFFFFF" d="M353.9,118.6c-1.8-2.4-5-5.9-7.9-8.9c-0.9,6.1-3,11.9-7.2,17.2c-1.2-1.5-3.9-3.9-5.5-4.9
				c5.9-7.7,6.9-17.1,6.4-26.1l-5.4,3c-1-4.6-3.2-12-5.2-17.8l5.2-2.5c2,5.2,4.1,11.9,5.3,16.2c-0.1-1.6-0.3-3.2-0.4-4.8l-2.1-21.3
				l6.7-0.7l2.1,21.3c0.4,4.1,0.7,8.4,0.6,12.7c3,2.3,9.8,9,11.6,10.7L353.9,118.6z M354.9,77.5c-1.5,5-2.6,11-3.9,14.8l-4.7-1.4
				c0.8-4.1,1.5-10.5,1.8-15L354.9,77.5z M365.8,111.5l6.3,3.5c-3.2,3.6-8.5,7.6-13.1,10c-1.2-1.4-3.4-3.4-5.1-4.6
				c4.3-2.2,9.2-5.9,11.7-8.9l-6.7,0.7l-3.3-32.8l9.8-1c0.1-1.5,0.2-2.9,0.3-4.4l-12.7,1.3l-0.6-6.2l33.6-3.4l0.6,6.2l-12.5,1.2
				c-0.3,1.5-0.7,3-1.1,4.5l11.9-1.2l3.3,32.8L365.8,111.5z M363.6,88l15.1-1.5l-0.4-4L363.2,84L363.6,88z M364.5,97.1l15.1-1.5
				l-0.4-4.1L364.1,93L364.5,97.1z M365.4,106.1l15.1-1.5l-0.4-4l-15.1,1.5L365.4,106.1z M379.9,110.5c4,1.8,9.5,4.6,12.5,6.7
				L387,122c-2.7-2.1-8.1-5.1-12.2-7.1L379.9,110.5z"/>
			<path fill="#FFFFFF" d="M395.2,91.1c0.9-4.4,1.1-11.5,1-16.5l4.2,0.1c0.3,5.1,0.1,12.5-0.7,17.5L395.2,91.1z M410.4,71.4
				c1.7,3.9,3.5,9,4.4,12.1l-4.4,2.1c-0.7-2.7-2-7-3.4-10.7l4.5,44.5l-6.1,0.6l-5.8-58.3l6.1-0.6l1.2,11.7L410.4,71.4z M421.7,85.1
				c-1.7-3.3-5.1-7.9-8.9-12c2-4.2,3.9-9,4.8-12.3l6.6,0.8c-1.3,4.1-2.9,7.5-4.5,10.8c3.1,3.2,6.2,7.1,7.9,9.8L421.7,85.1z
				 M437.3,82.3c-0.5,1.4-0.9,2.9-1.4,4.2l15-1.5l3,30l-7.1,0.7l-0.2-2.4l-21,2.1l0.3,2.7l-6.8,0.7l-3-30.3l12.6-1.3
				c0.5-1.7,0.8-3.5,1-5l3.5,0c-2-3.1-5.3-7.1-8.9-10.6c2-4.1,4.2-8.9,5.3-12.2l6.7,0.8c-1.5,4.1-3.3,7.4-4.9,10.6
				c3.3,3.1,6.7,6.8,8.5,9.6l-3.8,1.9L437.3,82.3z M444.4,91.5l-21,2.1l1.6,15.8l21-2.1L444.4,91.5z M441.1,107.1
				c-1.4-1.1-3.4-2.4-5.6-3.5c-1.8,1.9-3.7,3.6-5.5,5.2c-1.1-0.9-3.5-2.4-4.8-3.1c2-1.3,3.8-2.9,5.5-4.6c-1.9-0.9-3.8-1.8-5.5-2.5
				l3.1-3.9c1.9,0.7,3.9,1.6,6,2.4c1.1-1.4,2.2-2.9,3-4.5l5.5,1.1c-1,1.9-2.3,3.8-3.7,5.7c2.1,1.1,4,2.2,5.4,3.2L441.1,107.1z
				 M446.5,82.9c-2.1-3.3-6.3-7.9-10.8-12c2.5-4.3,5.1-9.3,6.4-12.7l6.7,1c-1.7,4.1-3.8,7.6-5.8,11c3.6,3.2,7.4,7,9.5,9.8
				L446.5,82.9z"/>
			<path fill="#FFFFFF" d="M250,189.6l0.6,6.4l-41.6,4.2l-0.6-6.4L250,189.6z M243.4,162.9l0.6,6.1l-33.9,3.4l-0.6-6.1L243.4,162.9z
				"/>
			<path fill="#FFFFFF" d="M268.7,178.9c-1.2,0.6-2.4,1.2-3.7,1.8l1.1,11.3c0.3,2.6,0,4-1.3,5.1c-1.3,1-3.3,1.4-6.2,1.7
				c-0.3-1.4-1.2-3.6-2-5.1c1.6-0.1,3.2-0.2,3.8-0.3c0.6-0.1,0.7-0.3,0.7-0.9l-1-9.5c-1.3,0.6-2.5,1.1-3.7,1.7l-1.8-5.2
				c1.4-0.5,3.1-1.2,5-2l-0.8-8.4l-4.5,0.4l-0.5-5.2l4.5-0.4l-0.9-8.9l5.1-0.5l0.9,8.9l3.2-0.3l0.5,5.2l-3.2,0.3l0.7,6.7l2.9-1.3
				L268.7,178.9z M273,165.3l-5.2,0.5l-1-9.6l27.7-2.8l0.9,9.3l-5.4,0.5l-0.5-4.5l-17.1,1.7L273,165.3z M280.1,161
				c0.3,6.6-1,10.6-9.7,13.4c-0.6-1.3-2-3.2-3.2-4c7.3-1.9,8-4.2,7.8-8.8L280.1,161z M288.6,180.4c3,3.2,7.1,6,11.1,7.4
				c-1.1,1.2-2.6,3.3-3.4,4.7c-3.7-1.8-7.4-4.7-10.5-8.2l1.2,12l-5.5,0.5l-1.1-11.5c-2.2,4-5.1,7.6-8.6,10c-0.9-1.2-2.8-2.9-4-3.9
				c3.8-2.3,7.2-5.9,9.3-9.9l-7.5,0.7l-0.5-5l10.4-1l-0.5-4.6l5.5-0.5l0.5,4.6l12.2-1.2l0.5,5L288.6,180.4z M293.1,166.2
				c0.8-0.1,2.1-0.4,2.9-0.6c0.3,1.3,0.6,3.4,0.9,4.6c-0.7,0.4-2,0.5-3.2,0.6l-4.2,0.4c-4.8,0.5-6.1-1-6.6-5.6l-0.5-4.9l4.9-0.5
				l0.5,4.9c0.1,1.1,0.3,1.5,1.1,1.5L293.1,166.2z"/>
			<path fill="#FFFFFF" d="M328.3,163.9l-6.6,0.7c-0.3-1.6-1-2.8-2.3-3.6c-1.2-0.7-2.9-1-5-0.8c-1.8,0.2-3.2,0.7-4.1,1.5
				c-0.9,0.8-1.3,1.9-1.2,3.1c0.2,1.8,2.2,2.9,6.2,3.5c1,0.1,1.8,0.2,2.4,0.3c5.2,0.8,8.7,1.8,10.3,3.1s2.6,3.3,2.8,6.1
				c0.3,3.4-0.6,6.2-2.8,8.3c-2.2,2.2-5.4,3.5-9.7,3.9c-4.3,0.4-7.7-0.2-10.3-2c-2.6-1.7-4.2-4.4-4.7-8l6.9-0.7
				c0.5,1.8,1.4,3.1,2.7,3.9c1.3,0.8,3.2,1,5.5,0.8c2-0.2,3.5-0.7,4.5-1.5c0.9-0.8,1.3-1.9,1.2-3.3c-0.1-1.2-0.7-2.1-1.7-2.7
				c-1-0.6-3.7-1.1-7.9-1.6c-4.4-0.5-7.5-1.4-9.1-2.7c-1.7-1.3-2.6-3.4-2.9-6.3c-0.3-3.3,0.5-5.9,2.6-7.9c2-2,5.2-3.2,9.4-3.6
				c3.9-0.4,7,0.2,9.5,1.9C326.4,158,327.8,160.5,328.3,163.9z"/>
			<path fill="#FFFFFF" d="M335.1,153.3l13.2-1.3c5.1-0.5,9.1,0.5,11.9,3c2.8,2.5,4.5,6.7,5,12.3c0.3,3.1,0.1,5.9-0.6,8.3
				c-0.7,2.5-1.9,4.5-3.5,6.1c-1.2,1.2-2.7,2.1-4.3,2.8c-1.6,0.6-4,1.1-7.1,1.4l-11.2,1.1L335.1,153.3z M342.4,158.6l2.2,21.7
				l5.5-0.5c3.2-0.3,5.4-1.4,6.7-3.2c1.2-1.8,1.7-4.6,1.3-8.4c-0.4-3.8-1.3-6.5-2.8-8.1c-1.5-1.6-3.7-2.3-6.5-2L342.4,158.6z"/>
			<path fill="#FFFFFF" d="M370.2,149.8l16.5-1.6c3.7-0.4,6.5,0.2,8.5,1.6c2,1.4,3.1,3.7,3.4,7c0.2,2-0.1,3.8-0.8,5.2
				c-0.7,1.4-1.9,2.5-3.5,3.2c1.5,0.4,2.7,1.1,3.4,2s1.2,2.6,1.6,4.9l0.5,4c0,0.1,0,0.2,0,0.4c0.3,1.8,0.8,2.9,1.7,3.2l0.1,1.1
				l-7.6,0.8c-0.3-0.4-0.5-1-0.7-1.6c-0.2-0.6-0.3-1.5-0.5-2.6l-0.5-3.6c-0.3-2.1-0.8-3.5-1.6-4.1s-2.1-0.9-4-0.7l-7.5,0.7l1.3,13.1
				l-6.9,0.7L370.2,149.8z M377.7,154.9l0.9,8.9l8.3-0.8c1.8-0.2,3.1-0.7,3.9-1.5c0.8-0.8,1.1-2,0.9-3.5c-0.1-1.5-0.7-2.5-1.6-3.2
				c-0.9-0.7-2.2-0.9-3.8-0.8L377.7,154.9z"/>
		</g>
	</g>
</g>
<g>
</g>
<g>
</g>
<g>
</g>
<g>
</g>
<g>
</g>
<g>
</g>
<g>
</g>
<g>
</g>
<g>
</g>
<g>
</g>
<g>
</g>
<g>
</g>
<g>
</g>
<g>
</g>
<g>
</g>
</svg>
