<svg xmlns="http://www.w3.org/2000/svg" xmlns:xlink="http://www.w3.org/1999/xlink" viewBox="0 0 285.22 285.22"><defs><style>.a{fill:none;}.b{isolation:isolate;}.c{clip-path:url(#a);}.d,.e{fill:#fad5bf;}.e{mix-blend-mode:multiply;}.f{fill:#a4a6a7;}.g{fill:#c9caca;}.h{fill:#f7c850;}.i{fill:#bbbdbe;}.j{fill:#2f926b;}.k{fill:#aaacad;}.l{fill:#a1a1a8;}.m{fill:#b9baba;}.n{fill:url(#b);}.o{fill:#807f80;}.p{fill:#898989;}.q{fill:#6f6f6f;}.r{fill:#fff;}</style><clipPath id="a"><circle class="a" cx="142.61" cy="142.61" r="142.61"/></clipPath><linearGradient id="b" x1="924.96" y1="-257.96" x2="962.93" y2="-171.97" gradientTransform="translate(-816.81 251.05) rotate(5.92)" gradientUnits="userSpaceOnUse"><stop offset="0" stop-color="#d3d3d4"/><stop offset="1" stop-color="#c7c8c8"/></linearGradient></defs><title>nzd</title><g class="b"><g class="c"><circle class="d" cx="142.02" cy="141.4" r="142.61"/><path class="e" d="M234.73,258.67c3.73-4.62,6.09-10.79,5.74-19.06-.57-13.48-5.09-25.82-11-36.38-3.45-6.49-10.72-18.64-21.1-28.07a41,41,0,0,0,1.93-8.07c1.46-14.06,2.33-28.34.72-42.42a75.14,75.14,0,0,0-5.74-21.77A12.19,12.19,0,0,1,212,86.69l.17-.07C224,82,226.51,73.84,226.75,68.38a6.71,6.71,0,0,0-5.41-6.83C196.2,56.59,184,77.32,184,77.32v0a60,60,0,0,0-8.09-4.5c-15.74-7.21-35.41-10.38-52.31-5.06-1-2-2.5-4.82-4.4-8.43-4.43-8.41-14.56-10.88-22.06-10.85S90,51.87,90,51.87c-.59,3.45,1.65,4.39,5.3,9.92,3,4.48,5.4,16.3,6.23,20.61q-1,1.25-2,2.61c-15,21.48-11.41,42.56-15.05,67.4-2.44,16.66-8.12,31.09,3.52,45.76a46.13,46.13,0,0,0,3.6,4c-1.37,2-2.71,4-4,6-7.45,11.82-16.37,26.65-13.2,41.53,2,9.18,7.33,16.1,14.94,19.73q0,.17,0,.35a28.62,28.62,0,0,0-6.32,18v23.95h-1.2a5.59,5.59,0,1,0,0,11.19h52.48a6.2,6.2,0,0,0,6.2-6.2V306.62h10.7v5.16h-1.2a5.59,5.59,0,1,0,0,11.19h52.48a6.2,6.2,0,0,0,6.2-6.2V300.18A50.82,50.82,0,0,0,234.73,258.67Z"/><path class="f" d="M105.77,255.78H222.2a0,0,0,0,1,0,0v0a50.83,50.83,0,0,1-50.83,50.83h-65.6a0,0,0,0,1,0,0V255.78A0,0,0,0,1,105.77,255.78Z"/><path class="g" d="M92.17,184.29c-1.89.36-6.51,8.63-7.85,10.46-3.23,4.4-6.39,8.86-9.3,13.49-7.45,11.82-16.37,26.65-13.2,41.53,2.78,13.05,12.45,21.56,25.68,22.51,32.79,2.37,66.48.27,99.41,0,0,0,42.36.59,41-32.69-1.78-42.2-42.29-73.29-42.29-73.29Z"/><path class="h" d="M75,208.5l43,64.79h34.06l11.79-15.13,55.27-50.38s-13.45-30.25-36.07-41.52L92.16,184.4Z"/><path class="i" d="M99.2,259.08h0a28.74,28.74,0,0,0-28.74,28.74v23.95h-1.2a5.59,5.59,0,1,0,0,11.19h52.48a6.2,6.2,0,0,0,6.2-6.2V287.83A28.74,28.74,0,0,0,99.2,259.08Z"/><path class="i" d="M167.38,259.73h0a28.74,28.74,0,0,0-28.74,28.74v23.3h-1.2a5.59,5.59,0,1,0,0,11.19h52.48a6.2,6.2,0,0,0,6.2-6.2V288.47A28.74,28.74,0,0,0,167.38,259.73Z"/><path class="g" d="M112.62,257.25c-5-1.62-10.18-3.12-15.52-3.18C91.94,254,86.48,256,81.75,257.9c-2.81,1.15-5,2.75-5,6v5.42a6.43,6.43,0,0,0,6.41,6.41h29.37a6.43,6.43,0,0,0,6.41-6.41v-5.42c0-3.82-2.87-5.58-6.12-6.62Z"/><path class="g" d="M185.09,257.25c-5-1.62-10.18-3.12-15.52-3.18C164.41,254,159,256,154.22,257.9c-2.81,1.15-5,2.75-5,6v5.42a6.43,6.43,0,0,0,6.41,6.41H185a6.43,6.43,0,0,0,6.41-6.41v-5.42c0-3.82-2.87-5.58-6.12-6.62Z"/><ellipse class="j" cx="139.15" cy="205.29" rx="46.32" ry="31.35"/><ellipse class="k" cx="139.15" cy="203.45" rx="37.9" ry="24.66"/><rect class="j" x="129.66" y="231.52" width="11.58" height="41.89"/><ellipse class="l" cx="140.64" cy="190.66" rx="40.02" ry="28.04" transform="translate(-32.97 29.44) rotate(-10.71)"/><path class="m" d="M77.41,51.87s-.36-3.35,7.14-3.38,17.63,2.44,22.06,10.85,6.44,12.43,6.44,12.43L89.22,84S86.35,67.32,82.7,61.79,76.82,55.32,77.41,51.87Z"/><path class="n" d="M214.13,68.38a6.71,6.71,0,0,0-5.41-6.83c-25.13-5-37.32,15.78-37.32,15.78v0a60,60,0,0,0-8.09-4.5c-20.79-9.52-48.45-12-67.51,2.83A43.19,43.19,0,0,0,87,85c-15,21.48-11.41,42.56-15.05,67.4-2.44,16.66-8.12,31.09,3.52,45.76,9,11.33,23.52,18.28,37.63,20.33,67.72,9.87,83.56-41,84.65-51.43,1.46-14.06,2.33-28.34.72-42.42a75.14,75.14,0,0,0-5.74-21.77,12.19,12.19,0,0,1,6.73-16.21l.17-.07C211.37,82,213.9,73.84,214.13,68.38Z"/><path class="o" d="M88.4,172.87a12,12,0,0,0-.86,2.88,8.27,8.27,0,0,0,0,2.77,12.47,12.47,0,0,0,1,2.29c.13.4.34.78.52,1.24a12.14,12.14,0,0,1,.62,1.51v0a.15.15,0,0,1-.1.18h0a4.26,4.26,0,0,1-3.12-1.64,3.7,3.7,0,0,1-.78-1.68l-.09-.92c0-.3,0-.61,0-.9a8.2,8.2,0,0,1,.85-3.28,10.37,10.37,0,0,1,1.85-2.63.13.13,0,0,1,.21.14Z"/><path class="o" d="M128.16,175.37a6.49,6.49,0,0,1,2.22,2.77,7.49,7.49,0,0,1,.53,3.68,6.91,6.91,0,0,1-1.06,3.57,8.37,8.37,0,0,1-1.28,1.32,6.34,6.34,0,0,1-1.66.9.15.15,0,0,1-.18-.09.14.14,0,0,1,0-.06h0a7.23,7.23,0,0,1,.41-1.76,10.51,10.51,0,0,1,.53-1.52,7.69,7.69,0,0,1,.64-1.36l.37-.66c.1-.23.18-.46.26-.7a7,7,0,0,0,.24-3,6.4,6.4,0,0,0-1.19-2.94h0a.13.13,0,0,1,.17-.18Z"/><path class="p" d="M100.82,179.63c0-.43-.34-.94-1.37-1.53-1.75-1-6.63-2.16-7.19.43-.42,1.91.75,2.74,2.83,2.85C96.91,181.48,100.69,180.9,100.82,179.63Z"/><path class="p" d="M112.92,180.32c0-.42.57-.82,1.81-1.17,2.11-.58,7.67-.64,7.73,1.95,0,1.91-1.4,2.44-3.68,2.11C116.78,182.91,112.79,181.55,112.92,180.32Z"/><circle class="k" cx="142.43" cy="155.48" r="7.31" transform="translate(-26.91 281.12) rotate(-84.08)"/><circle class="k" cx="86.54" cy="149.89" r="6.49" transform="translate(-71.48 220.51) rotate(-84.08)"/><circle class="q" cx="86.54" cy="149.89" r="4.12" transform="translate(-71.48 220.51) rotate(-84.08)"/><path class="o" d="M87,191.82c4.31,1.86,8.62,2.93,12.37,2.61.47-.09.93-.1,1.38-.23l1.49-.32a20.78,20.78,0,0,1,4-.44,23.14,23.14,0,0,1,4,.29c1.29.21,2.68.62,3.62.87a97.66,97.66,0,0,0,12.63,2.61,55.44,55.44,0,0,0,13.28.06h.06a.2.2,0,0,1,.11.37,29.06,29.06,0,0,1-6.58,2.13,36.74,36.74,0,0,1-6.89.63,54.19,54.19,0,0,1-13.66-1.93,24.34,24.34,0,0,0-6.64-1.23,20.32,20.32,0,0,0-3.37.16c-.54.09-1.15.13-1.73.19s-1.17,0-1.75,0a20.75,20.75,0,0,1-12.52-5.5.19.19,0,0,1,.2-.32Z"/><path class="o" d="M106.13,185.44a14.38,14.38,0,0,1,2.08,3.13,6.26,6.26,0,0,1,.61,2.48,6.48,6.48,0,0,1-.5,2.52,12.82,12.82,0,0,1-2,3.24l-.13.16a.15.15,0,0,1-.25,0,16.61,16.61,0,0,1-.82-2.84,18.66,18.66,0,0,1-.32-2.95,18.24,18.24,0,0,1,.19-3,12.68,12.68,0,0,1,.75-2.87.14.14,0,0,1,.18-.08l.06,0Z"/><circle class="q" cx="142.43" cy="155.48" r="4.64" transform="translate(-26.91 281.12) rotate(-84.08)"/><path class="r" d="M110.06,117.38l13.58,42.38a7.3,7.3,0,0,1-5.41,9.38c-8.13,1.7-20.19,2.68-23.54-5.33-4.44-10.61,1.2-30.9,8.78-46.88A3.55,3.55,0,0,1,110.06,117.38Z"/><path class="o" d="M134.47,145.6a4,4,0,0,1,.17-3.35,5,5,0,0,1,5.11-2.72,4.41,4.41,0,0,1,2.87,1.61l.09.1a.12.12,0,0,1,0,.17l-.06,0a17.75,17.75,0,0,0-2.3.42,9.29,9.29,0,0,0-2.14.86,8.82,8.82,0,0,0-1.91,1.29,9.71,9.71,0,0,0-1.53,1.73.13.13,0,0,1-.22,0Z"/><path class="o" d="M92.14,139.64c-1.28-.16-2.1-.28-2.81-.43a6,6,0,0,1-1.72-.63,6.43,6.43,0,0,1-1.43-1.19,15.85,15.85,0,0,1-1.76-2.33l-.08-.13a.11.11,0,0,1,0-.15l.07,0c.4,0,.81,0,1.21.08a10.56,10.56,0,0,1,1.19.25,9.85,9.85,0,0,1,2.27.9A9.28,9.28,0,0,1,91,137.51a6.57,6.57,0,0,1,1.39,2,.11.11,0,0,1-.06.14H92.3Z"/></g></g></svg>