<?xml version="1.0" encoding="utf-8"?>
<!-- Generator: Adobe Illustrator 18.0.0, SVG Export Plug-In . SVG Version: 6.00 Build 0)  -->
<!DOCTYPE svg PUBLIC "-//W3C//DTD SVG 1.1//EN" "http://www.w3.org/Graphics/SVG/1.1/DTD/svg11.dtd">
<svg version="1.1" id="Layer_1" xmlns="http://www.w3.org/2000/svg" xmlns:xlink="http://www.w3.org/1999/xlink" x="0px" y="0px"
	 viewBox="0 0 533.1 530.8" enable-background="new 0 0 533.1 530.8" xml:space="preserve">
<g>
	<path fill="#FFFFFF" d="M521.5,393.6c3.6-4.2,5.8-9.7,5.8-15.7c0-7.6-3.5-14.4-9.1-18.8v-9.8c0-16.1-6.2-31.4-17.4-42.9
		c-11.2-11.6-26.3-18.2-42.4-18.7l-74.2-2.3c-3.9-5.9-10.4-9.9-17.9-10.4l-1.4-5.9c1.8,0.1,3.7,0.1,5.5,0.1
		c55.5,0,101.4-35.1,114.2-87.4c3.6-14.8,5.4-31,5.1-48.1c0-1.9-0.3-3.9-0.8-6.8c-0.2-1.4-0.6-3.8-0.8-5.6l0.9-1.3
		c4-5.5,4.5-12.7,1.4-18.7c-3.1-6.1-9.2-9.8-16-9.8c-0.9,0-1.8,0.1-2.7,0.2l-7.1,1c-3.4,0.5-6.6,1.7-9.4,3.4
		c-2.1-0.6-4.2-0.9-6.4-0.9c-1.2,0-2.4,0.1-3.5,0.3l-8.2,1.2c-7.4,1.1-13.3,6.5-14.9,13.9c-1.7,7.3,1.3,14.8,7.5,18.9l0.3,0.2
		c1.4,8.6,1.1,20-0.8,32.8c-3,20-23.6,35.1-41.8,38.2c8.1-10.2,14.2-21.9,17.7-34.6l4.1-14.8c5.3-19,4.8-38.9-1.5-57.6
		c-6.3-18.7-17.9-34.9-33.6-46.8c-16.9-12.9-38-20-59.3-20c-6.6,0-13.2,0.7-19.7,2l-32.8,6.7c-12.9-4.6-26.7-7.1-40.2-7.1
		c-0.7,0-1.4,0-2.1,0c-2.8-2.6-6.2-4.6-9.9-5.7C199,8.6,181,0,161.6,0c-8.1,0-16.2,1.5-23.9,4.4c-27.4,10.3-44.3,35.9-42.5,62.7
		c-1.5,2.6-2.4,5.5-2.9,8.4L73,81.7c-27,8.2-49.1,27.7-60.7,53.5c-8.1,18-10.6,37.7-7.2,57.1s12.5,37.2,26.2,51.3l10.7,11
		c6.3,6.5,13.5,12.1,21.2,16.6c-1.3,2.3-2.3,4.7-3.1,7.3c-0.3,1-0.5,2-0.7,3c-1.9-0.3-3.9-0.5-5.9-0.5H33.9
		C15.2,281,0,296.2,0,314.9v88.7c0,18.7,15.2,33.9,33.9,33.9h19.6c1.8,0,3.6-0.1,5.4-0.4c0,0.5,0,0.9,0,1.4
		c0,51,41.5,92.4,92.4,92.4c37.8,0,70.8-22.9,85-56.2c1.4,0.3,2.9,0.4,4.4,0.4H337c6.2,0,12-2.3,16.4-6.4
		c12.6,36.1,47,62.1,87.3,62.1c51,0,92.4-41.5,92.4-92.4C533.1,422.6,529.1,407.2,521.5,393.6z"/>
	<g>
		<g>
			
				<path fill="#ABADB0" stroke="#797A7D" stroke-width="2.5" stroke-linecap="round" stroke-linejoin="round" stroke-miterlimit="10" d="
				M332.4,280.2l5.9,18.1c2.7,8.2-0.3,17.2-7.3,22.2l-9.8,7l-12.3-41.4L332.4,280.2z"/>
			<g>
				<path fill="#E68843" d="M138,216.5c0,0-29.6,15.1-39.9,101l21.3,36.2c0,0,164.7-4.7,207.6-26.2l-11.3-39.3l16.7-8
					c0,0-16.6-53.4-53.2-58.9L138,216.5z"/>
				<path fill="#E4E5E6" d="M292.5,397.6c-4.1-2.5-12.6-5.6-22.2,2.5c-1,0.9-0.3,2.5,1,2.3l20.6-2.4
					C293.2,399.9,293.6,398.3,292.5,397.6z"/>
				<path fill="#E4E5E6" d="M270.8,400.1c-4.2-2.5-12.7-5.6-22.5,2.5c-1,0.9-0.3,2.5,1,2.3l20.8-2.4
					C271.5,402.4,271.9,400.7,270.8,400.1z"/>
				<path fill="#D54849" d="M290.6,230.3l-16.2,32.2c-2.7,6.2-10.8,8-15.9,3.5l-13.9-12.3l-12.5,18.5c-3,4.4-8.8,5.7-13.4,3.1
					l-36.7-21.3L290.6,230.3z"/>
				
					<linearGradient id="SVGID_1_" gradientUnits="userSpaceOnUse" x1="1289.0834" y1="163.4318" x2="1362.0931" y2="163.4318" gradientTransform="matrix(-0.9997 -2.251806e-002 -2.251806e-002 0.9997 1463.0717 206.0309)">
					<stop  offset="0" style="stop-color:#C7C8CA"/>
					<stop  offset="1" style="stop-color:#BCBEC0"/>
				</linearGradient>
				
					<path fill="url(#SVGID_1_)" stroke="#797A7D" stroke-width="2.5" stroke-linecap="round" stroke-linejoin="round" stroke-miterlimit="10" d="
					M171.1,321.1l-72.9-3.5l1.1,18.3c0.6,9.8,6.5,18.2,15.1,21.6l3.9,1.6c2.4,1,5,1.5,7.6,1.5l20.9,0.5c4.5,0.1,8.9-1.2,12.7-3.6
					l0,0c6.8-4.4,11-12.2,11.2-20.6L171.1,321.1z"/>
				
					<path fill="#B1B3B6" stroke="#797A7D" stroke-width="2.5" stroke-linecap="round" stroke-linejoin="round" stroke-miterlimit="10" d="
					M253.3,363.4c0,0-9.1,13.5-20.6,17.8"/>
			</g>
		</g>
		<g>
			<circle fill="#D54849" cx="255.1" cy="299.5" r="25.8"/>
			<polygon fill="#FBDBAE" points="247,291.2 248.4,280.1 269.2,297.6 252.3,319.2 256.2,303.2 			"/>
		</g>
		<rect x="208.9" y="331" fill="#6E7668" width="101.7" height="65.2"/>
		<g>
			<circle fill="#938A8B" cx="439.9" cy="438.4" r="77.4"/>
			<circle fill="#545456" cx="439.9" cy="438.4" r="68.2"/>
			<circle fill="#2F302F" cx="438.4" cy="438.4" r="47.6"/>
			<circle fill="#7A7B7E" cx="438.4" cy="438.4" r="36.6"/>
		</g>
		<g>
			<circle fill="#938A8B" cx="150.5" cy="438.4" r="77.4"/>
			<circle fill="#545456" cx="150.5" cy="438.4" r="68.2"/>
			<circle fill="#2F302F" cx="149" cy="438.4" r="47.6"/>
			<circle fill="#7A7B7E" cx="149" cy="438.4" r="36.6"/>
		</g>
		<path fill="#6E7668" d="M142.4,322.9l-36-46.8c-4.6-5.9-12.3-8.3-19.4-5.9l-1.8,0.6c-11.7,3.9-15.8,18.4-7.9,27.8l25.9,31.1
			L142.4,322.9z"/>
		<path fill="#747578" d="M33.2,422.5h19.6c10.4,0,18.9-8.5,18.9-18.9v-88.7c0-10.4-8.5-18.9-18.9-18.9H33.2
			c-10.4,0-18.9,8.5-18.9,18.9v88.7C14.3,414,22.8,422.5,33.2,422.5z"/>
		<path fill="#545456" d="M40,422.3h3.8c7.8,0,14.3-6.4,14.3-14.3v-97.8c0-7.8-6.4-14.3-14.3-14.3H40c-7.8,0-14.3,6.4-14.3,14.3
			v97.8C25.7,415.9,32.1,422.3,40,422.3z"/>
		<path fill="#AFA387" d="M355.5,299.5l-15.4-66c-0.6-2.7-2.4-5-4.8-6.3l-13.3-7.1c-1.4-0.7-2.9-1.1-4.5-1.1l0,0
			c-5.3,0-9.5,4.3-9.5,9.5v140.1c0,10.9-8.9,19.8-19.8,19.8h-36.3c-10.9,0-19.8-8.9-19.8-19.8v-28.7c0-11.4-9.2-20.6-20.6-20.6H88.8
			c-11.4,0-20.6,9.2-20.6,20.6v59.3h8.6c6.5,0,11.8-5.3,11.8-11.8v-13.1h102l43.1,68.6h108.6l31.7-62.7h128.4v-30.9
			c0-25.2-20-45.9-45.2-46.7L355.5,299.5z"/>
		<path fill="#6E7668" d="M239.9,460.1h96.3c3.3,0,6.4-1.8,8-4.8l36.5-68.3h121.7c5,0,9.1-4.1,9.1-9.1s-4.1-9.1-9.1-9.1H375.4
			c-3.3,0-6.4,1.8-8,4.8L330.8,442H245l-39.8-65.4c-1.6-2.7-4.6-4.3-7.7-4.3H88.6c-2.8,0-5.4,1.3-7.1,3.5l-20.4,26.1
			c-3.1,3.9-2.4,9.6,1.6,12.7c3.9,3.1,9.6,2.4,12.7-1.6l17.7-22.6h99.3l39.8,65.4C233.8,458.5,236.8,460.1,239.9,460.1z"/>
		<path fill="#B1E0E1" d="M328.5,223.6l14.3,79h14l-16.8-70.9c-0.4-1.6-1.4-3-2.9-3.7L328.5,223.6z"/>
		<path fill="#6E7668" d="M364,334.1L364,334.1c4.7,0,8.5-3.8,8.5-8.5v-27.2c0-4.7-3.8-8.5-8.5-8.5l0,0c-4.7,0-8.5,3.8-8.5,8.5v27.2
			C355.5,330.3,359.3,334.1,364,334.1z"/>
		<path fill="#E68843" d="M132.2,239.1c0,0-18.6,7.9-44.7,72.9l72.9,24.3l24.2-47.9L132.2,239.1z"/>
		
			<linearGradient id="SVGID_2_" gradientUnits="userSpaceOnUse" x1="1656.7009" y1="371.1891" x2="1729.7107" y2="371.1891" gradientTransform="matrix(-1.0063 -0.3086 -0.2932 0.9561 1930.658 511.1476)">
			<stop  offset="0" style="stop-color:#BEC0C2"/>
			<stop  offset="1" style="stop-color:#B1B3B6"/>
		</linearGradient>
		<path fill="url(#SVGID_2_)" d="M160.4,336.3L87.5,312l-3.8,17.9c-2,9.6,1.7,19.4,9.5,25.1l3.6,2.6c2.2,1.6,4.7,2.9,7.3,3.7
			l21.1,6.5c4.5,1.4,9.3,1.4,13.8,0.1h0c8.1-2.3,14.5-8.6,16.9-16.7L160.4,336.3z"/>
		<path fill="#CB7639" d="M160.4,336.1l13.7-27.8c0.5-0.9-0.9-1.7-1.4-0.8l-17.6,26.8L160.4,336.1z"/>
		<g>
			<path fill="#C89E6B" d="M140.5,306.9l-25.3-7.1c-2.9-0.8-4.5-3.8-3.7-6.7l7.1-25.3c0.8-2.9,3.8-4.5,6.7-3.7l25.3,7.1
				c2.9,0.8,4.5,3.8,3.7,6.7l-7.1,25.3C146.3,306,143.3,307.7,140.5,306.9z"/>
			<path fill="#D9AF77" d="M151.1,289L115.4,279l3.1-11.2c0.8-2.9,3.8-4.5,6.7-3.7l25.3,7.1c2.9,0.8,4.5,3.8,3.7,6.7L151.1,289z"/>
			<path fill="#BA8F64" d="M133.8,291l-3.4-1c-1.6-0.4-2.5-2.1-2.1-3.7l1.6-5.6c0.4-1.6,2.1-2.5,3.7-2.1l3.4,1
				c1.6,0.4,2.5,2.1,2.1,3.7l-1.6,5.6C137,290.5,135.3,291.5,133.8,291z"/>
		</g>
		<g>
			<path fill="#ABADB0" d="M229,57.7l68.7-14.1c23.5-4.8,47.9,0.7,66.9,15.2l0,0c27.1,20.6,38.8,55.6,29.7,88.4l-4.1,14.8
				c-9.9,35.2-41.6,59.8-78.1,60.6l-18.8,0.4"/>
			<path fill="#939598" d="M302.1,203.1L302.1,203.1c28-0.6,52.2-19.4,59.8-46.3l3.2-11.3c7.6-27.1-3.6-56.3-28.1-71.3
				c-13.9-8.5-30.7-11.1-46.7-7.8l-38.9,8c-6.7,1.4-10.5,8.4-8,14.7l39.2,101C285.6,198.1,293.4,203.3,302.1,203.1z"/>
			
				<linearGradient id="SVGID_3_" gradientUnits="userSpaceOnUse" x1="1109.3379" y1="-11.2272" x2="1056.8187" y2="130.813" gradientTransform="matrix(-0.9561 0.293 0.293 0.9561 1276.3357 -171.1169)">
				<stop  offset="0" style="stop-color:#BCBEC0"/>
				<stop  offset="1" style="stop-color:#A3A5A8"/>
			</linearGradient>
			<path fill="url(#SVGID_3_)" d="M157.8,248.7c47.6,16.5,97.1,11.2,139-17.5c20.2-13.8,36.1-34.5,32.8-60.1
				c-0.9-7.3-3.4-14.2-6.4-20.8c-8.2-17.9-8-37.4-15.3-55.4c-5.3-13.2-15-24.3-26.5-32.6c-22.5-16.1-53.1-22.8-80.2-16.7
				c-21.7,4.9-48,15.9-62.6,33.8"/>
			<path fill="#B6B8BA" d="M293.4,123.6c4.5,5.1,3.9,12.8-1.2,17.3s-12.8,3.9-17.3-1.2c-4.5-5.1-3.9-12.8,1.2-17.3
				C281.3,117.9,289,118.5,293.4,123.6z"/>
			<path fill="#808285" d="M290,126.5c2.1,2.8,1.6,6.8-1.1,8.9c-2.8,2.1-6.8,1.6-8.9-1.2c-2.1-2.8-1.6-6.8,1.1-8.9
				S287.9,123.8,290,126.5z"/>
			<g>
				<path fill="#797A7D" d="M212.1,124.1c-0.8,0.6-1.6,1.1-2.3,1.6c-0.8,0.2-1.6,0.5-2.5,0.7c-1.6,0.6-3.2,1.2-4.7,2
					c-1.5,0.8-2.9,1.8-4.2,2.8c-0.6,0.6-1.2,1.1-1.8,1.8c-0.8,0.4-1.5,0.9-2.3,1.4c0.2-0.9,0.4-1.9,0.8-2.8c0.6-0.7,1.3-1.3,2-2
					c1.4-1.2,2.9-2.2,4.5-3.1c1.6-0.8,3.3-1.6,5-2.2c0.9-0.3,1.7-0.6,2.6-0.8C210.2,123.8,211.2,123.9,212.1,124.1z"/>
			</g>
			<g>
				<path fill="#797A7D" d="M266.5,105.7c0.8-0.5,1.7-0.9,2.5-1.3c0.9,0,1.8-0.1,2.7-0.1c1.8,0,3.6,0.1,5.4,0.4
					c1.8,0.3,3.6,0.7,5.3,1.4c0.8,0.4,1.7,0.7,2.5,1.2c0.7,0.7,1.2,1.5,1.7,2.3c-1-0.2-1.8-0.5-2.7-0.6c-0.7-0.4-1.5-0.7-2.3-1.1
					c-1.6-0.6-3.2-1-4.9-1.3c-1.7-0.2-3.4-0.4-5.1-0.4c-0.9,0-1.7,0-2.6,0.1C268.4,106.2,267.5,106,266.5,105.7z"/>
			</g>
			<path fill="#797A7D" d="M254.2,183.1c0,0-23.2,9.4-40.6,7.9l0.5,5.3c0,0,31.2,24.3,53.2-8.2L254.2,183.1z"/>
			<path fill="#B6B8BA" d="M221.6,145.2c3.9,4.4,3.4,11.2-1,15c-4.4,3.8-11.2,3.4-15-1.1c-3.9-4.4-3.4-11.2,1-15
				C211,140.3,217.7,140.8,221.6,145.2z"/>
			<path fill="#808285" d="M220,147.9c2.2,2.9,1.7,6.9-1.2,9.1s-6.9,1.6-9.1-1.2s-1.7-6.9,1.2-9.1C213.8,144.5,217.8,145,220,147.9z
				"/>
			<path fill="#FFFFFF" d="M295.4,156.3c3.2-3.1,12.2-12.6,13.7-22.2c0.2-1,1.5-1.1,1.9-0.2c2,5.2,4.1,15.5-3.6,27.5
				c-0.3,0.4-0.8,0.6-1.2,0.4l-10.5-3.9C295.1,157.6,294.9,156.8,295.4,156.3z"/>
			<g>
				
					<linearGradient id="SVGID_4_" gradientUnits="userSpaceOnUse" x1="1009.0807" y1="-181.7226" x2="810.2598" y2="-181.7226" gradientTransform="matrix(-0.9958 9.162994e-002 9.162994e-002 0.9958 1286.3593 283.4738)">
					<stop  offset="0" style="stop-color:#C7C8CA"/>
					<stop  offset="1" style="stop-color:#B1B3B6"/>
				</linearGradient>
				<path fill="url(#SVGID_4_)" d="M244.5,180.1l-6.3-11.7c-3.8-7.1-4.2-15.5-1-22.9l0,0c2.7-6.4,7.9-11.5,14.4-14.1l4.7-1.9
					c7.7-3.1,16.4-2.4,23.5,1.9c2,1.2,3.7,2.4,4.9,3.4c1.9,1.6,3.6,3.5,5,5.5c0.8,1.2,2.3,5.3,3.4,5.9c0,0,12.2,6.4,16.6,20.3
					c0.2,0.8,5.2,3,5.9,3.6c5.5,4.1,10,9.4,13.8,15c13.4,19.4,34.8,34.4,59.4,30.5c25.5-4.1,50.7-24.5,54.7-50.9
					c2.1-13.6,3.1-30.8-0.7-44.1l-5.2-3.5c-2.3-1.5-1.5-5.1,1.2-5.5l8.2-1.2c2.8-0.4,5.6,0.5,7.7,2.4l0.9,0.9c1.1,1,2.9,0.7,3.6-0.7
					c1.3-2.9,4-5,7.1-5.5l7.1-1.1c2.6-0.4,4.5,2.6,2.9,4.8l-3.4,4.8c-1.6,2.3,1.2,15.1,1.2,18c0.2,14.8-1.1,29.9-4.6,44.3
					c-17.5,71-99.4,96.1-159.7,58.9c-12-7.4-20.8-17-29.6-27.8C270.3,197.3,258.6,186.6,244.5,180.1"/>
				<path fill="#A9ABAE" d="M289.9,146.6c-4.9,0.8-14.8,3.5-24.3,11.8c-0.7,0.6-1.8-0.2-1.3-1c3.2-6.3,11.3-17.6,25.7-12.4
					C290.9,145.3,290.8,146.4,289.9,146.6z"/>
				<path fill="#A9ABAE" d="M299.6,157.3c-4.9,0.8-14.8,3.5-24.3,11.8c-0.7,0.6-1.8-0.2-1.3-1c3.2-6.3,11.3-17.6,25.7-12.4
					C300.5,156,300.4,157.2,299.6,157.3z"/>
				<path fill="#A9ABAE" d="M308,168.4c-4.9,0.8-14.8,3.5-24.3,11.8c-0.7,0.6-1.8-0.2-1.3-1c3.2-6.3,11.3-17.6,25.7-12.4
					C309,167.1,308.9,168.3,308,168.4z"/>
			</g>
			<path fill="#FFFFFF" d="M238.2,176.4c3.5-2.8,13.3-11.4,15.7-20.8c0.2-1,1.6-1,1.9,0c1.5,5.3,2.6,15.8-6.1,27.1
				c-0.3,0.4-0.8,0.5-1.2,0.3l-10.1-4.9C237.7,177.8,237.6,176.9,238.2,176.4z"/>
			
				<linearGradient id="SVGID_5_" gradientUnits="userSpaceOnUse" x1="1218.8584" y1="11.3273" x2="1218.8584" y2="52.3844" gradientTransform="matrix(-0.9693 0.246 0.246 0.9693 1284.3245 -80.9756)">
				<stop  offset="0" style="stop-color:#BEC0C2"/>
				<stop  offset="1" style="stop-color:#B1B3B6"/>
			</linearGradient>
			<path fill="url(#SVGID_5_)" d="M142.9,74.7L76.8,96.1c-22.9,7-41.7,23.5-51.6,45.3l0,0c-14,31-7.6,67.4,16.1,91.8l10.7,11
				c25.5,26.2,65.1,32.7,97.6,16l16.7-8.6"/>
			<path fill="#A1A3A6" d="M151.6,236.8L151.6,236.8c-24.3,13.9-54.8,10.3-75.1-8.9l-8.6-8.1c-20.5-19.4-25.9-50.1-12.6-75.6
				c7.6-14.5,20.6-25.3,36-30.7l37.5-13.2c6.4-2.3,13.3,1.8,14.5,8.5l18.4,106.8C163.1,224,159.1,232.5,151.6,236.8z"/>
			<path fill="#ED85A9" d="M262.3,194.2c0,0-18.7-7.6-37.6,7.8C224.7,202,245.5,213,262.3,194.2z"/>
			
				<path fill="none" stroke="#797A7D" stroke-width="2.5" stroke-linecap="round" stroke-linejoin="round" stroke-miterlimit="10" d="
				M206,205c0,0,14.2-7.5,5.4-25.3"/>
		</g>
		<g>
			<path fill="#D9AF77" d="M204.2,43.4c-8.8-23.4-36.6-34.6-62.1-25s-39,36.3-30.2,59.7L204.2,43.4z"/>
			<path fill="#E68843" d="M206,55.8l-86.5,32.5c-5,1.9-10.7-0.7-12.6-5.7l0,0c-1.9-5,0.7-10.7,5.7-12.6l86.5-32.5
				c5-1.9,10.7,0.7,12.6,5.7v0C213.6,48.2,211,53.9,206,55.8z"/>
		</g>
	</g>
</g>
<g>
</g>
<g>
</g>
<g>
</g>
<g>
</g>
<g>
</g>
<g>
</g>
<g>
</g>
<g>
</g>
<g>
</g>
<g>
</g>
<g>
</g>
<g>
</g>
<g>
</g>
<g>
</g>
<g>
</g>
</svg>
