<?xml version="1.0" encoding="utf-8"?>
<!-- Generator: Adobe Illustrator 18.0.0, SVG Export Plug-In . SVG Version: 6.00 Build 0)  -->
<!DOCTYPE svg PUBLIC "-//W3C//DTD SVG 1.1//EN" "http://www.w3.org/Graphics/SVG/1.1/DTD/svg11.dtd">
<svg version="1.1" id="Layer_1" xmlns="http://www.w3.org/2000/svg" xmlns:xlink="http://www.w3.org/1999/xlink" x="0px" y="0px"
	 viewBox="0 0 419.2 160.9" enable-background="new 0 0 419.2 160.9" xml:space="preserve">
<g>
	<path fill="#FFFFFF" d="M364.4,130.6H54.8C24.5,130.6,0,106.1,0,75.8l0-21C0,24.5,24.5,0,54.8,0l309.6,0
		c30.3,0,54.8,24.5,54.8,54.8v21C419.2,106.1,394.7,130.6,364.4,130.6z"/>
	<g>
		<path fill="#616264" d="M63.9,44.6c0.1-0.8,0.2-1.5,0.3-2.3l3.6,0.5c-0.1,0.6-0.2,1.2-0.2,1.8h11.7v3H67.1
			c-0.1,0.5-0.2,1.1-0.3,1.5h9.5v15.9h4.3v3.1h-8.1c2.8,1,5.4,2.1,7.8,3.4l-1.8,2.8c-3.1-1.9-6.4-3.4-9.6-4.5l1.1-1.7h-9.4l1.5,1.6
			c-2.7,1.8-5.9,3.3-9.8,4.5l-1.4-3c3.1-0.9,5.7-1.9,7.9-3.1H50v-3.1h4.8V49.2h8.3c0.1-0.5,0.2-1.1,0.3-1.5H51.3v-3H63.9z
			 M72.8,53.3V52H58.2v1.3H72.8z M72.8,57.2v-1.3H58.2v1.3H72.8z M72.8,61.1v-1.3H58.2v1.3H72.8z M72.8,65.1v-1.4H58.2v1.4H72.8z"/>
		<path fill="#616264" d="M86.2,59.7L85,55.8c2.5-3.9,4.4-8.4,5.6-13.7l3.4,1.6c-0.6,2.3-1.3,4.4-2.2,6.5v24h-3.6V56.9
			C87.6,57.8,86.9,58.7,86.2,59.7z M98,64.5h5.8v3.3H98v6.4h-3.5V43.5h10v10.9H98v3.2h5.8V61H98V64.5z M101.2,51.2v-4.3H98v4.3
			H101.2z M115.9,56.7v3.1c-0.6,3.1-1.7,5.7-3.2,7.9c1.5,1.5,3,2.7,4.6,3.5l-1.7,3.1c-2-1-3.7-2.3-5.1-3.8c-1.7,1.6-3.6,2.9-5.8,3.9
			l-1.9-3c2.2-1,4.1-2.3,5.6-3.8c-1.4-2.4-2.3-4.9-2.6-7.5h-1v-3.3H115.9z M105.8,54.4v-3.3h6.2v-4.3h-6.1v-3.3h9.6v10.9H105.8z
			 M110.5,64.8c0.9-1.4,1.6-3,2.2-4.8h-3.8C109.1,61.8,109.7,63.4,110.5,64.8z"/>
		<path fill="#616264" d="M135.6,55.5c1.2,0.7,2.4,1.4,3.6,2.1c1.4,0.8,2.7,1.1,3.9,1.1c1.3,0,2.8-1.3,4.8-3.8l2.5,2.1
			c-2.4,3.4-4.9,5.1-7.3,5.1c-1.6,0-3.2-0.4-4.7-1.1c-1.2-0.7-2.4-1.4-3.5-2.1c-1.4-0.8-2.7-1.1-4-1.1c-1.3,0-2.9,1.3-4.8,3.8
			l-2.5-2.1c2.4-3.4,4.8-5.1,7.3-5.1C132.6,54.4,134.1,54.7,135.6,55.5z"/>
		<path fill="#616264" d="M173.4,61.6c-1.8,0.6-3.7,1.2-5.7,1.7v6.9c0,2.3-1.2,3.4-3.6,3.4h-3.9l-0.8-3.4c1.2,0.1,2.3,0.2,3.4,0.2
			c0.8,0,1.2-0.4,1.2-1.2v-5.2c-2,0.4-4,0.8-6.1,1.1l-0.5-3.6c2.3-0.3,4.5-0.8,6.6-1.2v-5.9h-6.7v-3.4h6.7V48
			c-1.6,0.3-3.3,0.6-5.1,0.9l-0.8-3.4c4.7-0.5,9-1.5,12.7-3l1.2,3.4c-1.4,0.5-2.9,1-4.4,1.4v4h7c-0.2-2.6-0.3-5.5-0.3-8.7h3.6
			c0,3.3,0.1,6.2,0.3,8.7h10.2v3.4h-10c0.2,2.2,0.5,4,0.9,5.5c0.1,0.5,0.3,1,0.4,1.5c1.4-1.7,2.6-3.7,3.7-5.8l3.1,1.6
			c-1.5,3.1-3.3,5.8-5.4,8c0.3,0.8,0.7,1.5,1.1,2.1c1,1.5,1.7,2.3,2.2,2.3c0.4,0,0.8-1.7,1.2-5.2l3.2,1.7c-0.9,4.9-2.2,7.4-3.8,7.4
			c-1.5,0-3.1-1-4.7-3c-0.6-0.8-1.2-1.7-1.7-2.7c-2.3,1.9-4.9,3.4-7.8,4.5l-2-3c3.1-1.2,5.9-2.8,8.3-4.9c-0.4-1.1-0.7-2.2-1-3.4
			c-0.5-1.8-0.9-4-1.2-6.5h-7.3v5.1c2-0.5,3.9-1.1,5.7-1.7V61.6z M187.9,47.3l-2.6,2.6c-1.4-1.5-3.4-3.1-6-4.8l2.4-2.3
			C184.2,44.3,186.2,45.8,187.9,47.3z"/>
		<path fill="#616264" d="M201.8,50.7v2.8c-1,1.7-2.2,3.4-3.5,5.1h3.9v2.4c-0.4,2.4-1,4.4-1.6,6c0.3,0.2,0.5,0.4,0.8,0.6
			c1.1,1,2.2,1.7,3.1,2.2c1,0.4,2.4,0.6,4.2,0.6c1.9,0,4,0,6.4,0c2.5,0,5.8-0.1,10-0.2l-0.8,3.4h-8.7c-2.4,0-4.7-0.1-7-0.1
			s-4.1-0.3-5.3-0.8c-1.4-0.5-2.7-1.4-3.9-2.6c-0.2-0.3-0.5-0.4-0.8-0.4c-0.6,0-1.6,1.5-3,4.5l-2.6-2.4c1.5-3,2.9-4.8,4.3-5.3
			c0.6-1.5,1.1-3.1,1.4-4.8h-4.6v-2.7c1.5-1.8,2.8-3.4,3.8-5h-4.3v-3.2H201.8z M201.6,47.4l-2.3,2.3c-1.2-1.5-2.9-3.2-5.2-5l2.3-2.2
			C198.5,44.2,200.2,45.8,201.6,47.4z M221.3,54.6v6.4h-0.5l2.2,1.4c-0.6,0.8-1.3,1.7-2.3,2.7c1,0.7,2,1.3,2.9,2l-2.3,2.3
			c-2.1-1.8-4.9-3.8-8.6-5.9l2.1-1.9c1.2,0.6,2.4,1.3,3.5,2c0.9-1,1.5-1.8,2-2.5h-7.5c-0.7,0.8-1.5,1.5-2.4,2.1v3.3
			c1.6-0.3,3.1-0.6,4.7-1.1l0.6,2.7c-2.7,0.6-5.5,1.1-8.4,1.5l-1-2.4c0.6-0.2,0.9-0.5,0.9-1V65c-1,0.5-2.2,1-3.4,1.4l-1.6-2.7
			c2.7-0.8,4.8-1.6,6.3-2.7h-3.3v-6.4H221.3z M223.8,50.7v2.8h-20.9v-2.8H223.8z M222.1,43.3v6.5h-17.6v-6.5H222.1z M209.6,45.6
			h-2.1v1.8h2.1V45.6z M218.2,57.1h-9.8v1.5h9.8V57.1z M214.4,45.6h-2.1v1.8h2.1V45.6z M219.1,45.6H217v1.8h2.1V45.6z"/>
		<path fill="#616264" d="M236.9,55.7l-2.6,2.5c-1.3-1.5-3.1-3.1-5.6-4.9l2.5-2.5C233.4,52.5,235.3,54.1,236.9,55.7z M237.7,61.7
			c-1.5,4.3-3.2,8.3-5.1,12.1l-3.6-1.6c2.1-3.9,3.9-7.8,5.4-11.9L237.7,61.7z M237.8,47.5l-2.5,2.5c-1.4-1.5-3.3-3.1-5.8-4.8
			l2.5-2.5C234.3,44.3,236.2,45.9,237.8,47.5z M257.7,57v3.2c-1,2.8-2.8,5.3-5.2,7.4c2.4,1.2,5.2,2.3,8.5,3.3l-2,3.1
			c-3.7-1.3-6.8-2.7-9.4-4.3c-3.1,1.9-6.8,3.4-11.3,4.5l-1.9-3c4-1,7.3-2.2,10.1-3.7c-2.5-2.1-4.3-4.5-5.2-7.1h-2.1V57H257.7z
			 M247.6,43c-0.2,0.8-0.4,1.6-0.7,2.4h10.8c-0.1,4.8-0.5,7.8-1,8.9c-0.6,1-1.9,1.5-3.9,1.6c-1.1,0-2.3-0.1-3.7-0.2l-1.1-3.2
			c1.7,0.1,3.2,0.2,4.4,0.2c0.8,0,1.3-0.2,1.5-0.5c0.2-0.4,0.3-1.5,0.3-3.4h-8.6c-1.5,3.1-3.4,5.6-5.7,7.6l-2.3-2.9
			c3.3-2.7,5.5-6.5,6.6-11.1L247.6,43z M249.2,65.6c2.1-1.6,3.7-3.3,4.8-5.3h-9.3C245.5,62.3,247,64,249.2,65.6z"/>
		<path fill="#616264" d="M292.1,53.6v15.5h-6c3.3,0.6,6.5,1.4,9.5,2.4l-1.2,2.9c-3.5-1.4-7.1-2.4-10.9-3.1l1.1-2.2h-8.1l1.4,1.8
			c-2.5,1.4-6,2.6-10.6,3.5l-1.6-2.8c4-0.7,7.1-1.5,9.4-2.5h-5.8V53.6H292.1z M293.9,43.5v8.7h-26.5v-8.7H293.9z M275.2,46.4h-4.3v3
			h4.3V46.4z M288.6,58v-1.6h-15.8V58H288.6z M288.6,62v-1.6h-15.8V62H288.6z M288.6,64.5h-15.8v1.7h15.8V64.5z M283,46.4h-4.5v3
			h4.5V46.4z M290.5,46.4h-4.3v3h4.3V46.4z"/>
		<path fill="#616264" d="M305.3,71.4h-3.4V44.9h9.2v25.7h-3.4v-1.8h-2.3V71.4z M307.6,48.3h-2.3v17.2h2.3V48.3z M329.5,60.5v7.1
			h-2.2l-0.9,2.5h5.6V73h-20.4v-2.9h5.8l-0.7-2.5h-2.4v-7.1H329.5z M331.8,57.4h-2.9v-2.2h-14v2.3h-2.9v-5.1h19.9V57.4z M320.3,44.2
			v-1.7h3.3v1.7h7.9V47h-7.9v1.3h6.7V51H314v-2.7h6.3V47h-7.8v-2.8H320.3z M328.1,56.5v2.7h-12.4v-2.7H328.1z M326.4,63.1h-8.9v2
			h8.9V63.1z M323.4,70.1l0.9-2.5h-4.5l0.7,2.5H323.4z"/>
		<path fill="#616264" d="M354.4,66.1c0.5,0.5,0.8,1.1,0.8,1.8c0,0.8-0.3,1.4-0.8,1.9c-0.5,0.5-1.2,0.7-1.9,0.7
			c-0.8,0-1.4-0.3-1.8-0.8c-0.5-0.5-0.8-1.1-0.8-1.8c0-0.8,0.2-1.4,0.8-1.8c0.5-0.5,1.1-0.7,1.8-0.7
			C353.3,65.4,353.9,65.6,354.4,66.1z M354.9,46.1L354,63.5h-2.9l-0.9-17.4H354.9z"/>
	</g>
	<path fill="#B3B5B8" d="M49.8,79.8c105.9-1.2,211.9,0.4,317.7,4.7c0,0,0.1-2.1,0-2.1c-105.7-4.3-211.7-5.9-317.7-4.7
		C49.8,77.7,49.8,79.8,49.8,79.8L49.8,79.8z"/>
	<path fill="#FFFFFF" d="M66.8,120.7c0,0,1.9,30.9-11.8,40.2c0,0,34.8-6.5,42.1-40.2H66.8z"/>
</g>
<g>
</g>
<g>
</g>
<g>
</g>
<g>
</g>
<g>
</g>
<g>
</g>
<g>
</g>
<g>
</g>
<g>
</g>
<g>
</g>
<g>
</g>
<g>
</g>
<g>
</g>
<g>
</g>
<g>
</g>
</svg>
