<?xml version="1.0" encoding="utf-8"?>
<!-- Generator: Adobe Illustrator 18.0.0, SVG Export Plug-In . SVG Version: 6.00 Build 0)  -->
<!DOCTYPE svg PUBLIC "-//W3C//DTD SVG 1.1//EN" "http://www.w3.org/Graphics/SVG/1.1/DTD/svg11.dtd">
<svg version="1.1" id="Layer_1" xmlns="http://www.w3.org/2000/svg" xmlns:xlink="http://www.w3.org/1999/xlink" x="0px" y="0px"
	 viewBox="0 0 1170.6 664.6" enable-background="new 0 0 1170.6 664.6" xml:space="preserve">
<g>
	<path fill="#ACB2B6" d="M563.5,260c0,0,78.1,66,65.9,202l-259.5,14.6l-7.4-179.5L563.5,260z"/>
	<polygon fill="#F6B992" points="0,431.3 1170.6,363.6 789.9,626.6 411.4,664.6 	"/>
	<g>
		<g>
			<path fill="#F8CFA5" d="M185.7,468.2c28.9-2.2,57.9-2.4,86.9-0.9c3.3,0.2,9.2-4.7,3.4-5c-29.7-1.6-59.4-1.2-89.1,1
				C182.5,463.7,179.7,468.7,185.7,468.2L185.7,468.2z"/>
		</g>
	</g>
	<g>
		<g>
			<path fill="#F8CFA5" d="M184.4,493.7c18.1-0.3,36.3-0.1,54.4,0.6c2.1,0.1,4.4-0.5,6.1-1.6c1.4-0.9,1.2-2-0.5-2
				c-18.8-0.7-37.5-0.9-56.3-0.6C185.7,490,178.6,493.7,184.4,493.7L184.4,493.7z"/>
		</g>
	</g>
	<g>
		<g>
			<path fill="#F8CFA5" d="M208.6,523.8c60.4,0.7,120.9,1.4,181.3,2.1c1.9,0,4.6-0.7,5.7-2.4c1.2-1.7-1-2.5-2.3-2.5
				c-60.4-0.7-120.9-1.4-181.3-2.1c-1.9,0-4.6,0.7-5.7,2.4C205.1,523,207.2,523.8,208.6,523.8L208.6,523.8z"/>
		</g>
	</g>
	<g>
		<g>
			<path fill="#F8CFA5" d="M434.1,502.9c19,0.7,38,0.3,57-1.3c2-0.2,4.4-0.6,5.8-2.2c1.3-1.5-1.1-2.1-2.2-2c-19,1.6-38,2-57,1.3
				C434.9,498.6,428.3,502.7,434.1,502.9L434.1,502.9z"/>
		</g>
	</g>
	<g>
		<g>
			<path fill="#F8CFA5" d="M444.7,557.4c55.9,1.9,112,0.1,167.7-5.4c4.1-0.4,7.3-5.1,1.3-4.6c-55,5.4-110.3,7.1-165.5,5.2
				C445,552.6,438.8,557.2,444.7,557.4L444.7,557.4z"/>
		</g>
	</g>
	<path fill="#ACB2B6" d="M559.9,247.8c0,0,49.2,9.6,82-16.7l28.1,30.5l-72.6,45.1l-37.5-24.8V247.8z"/>
	<g>
		<circle fill="#976C5A" cx="679.7" cy="373.9" r="128.9"/>
		<path fill="#866050" d="M631,302.1c-0.4-1.9-0.2-15.8-0.1-22.5c0-2.3,0.7-4.5,1.9-6.5l6.5-10.6l0,0c0.9-1.8,3.7-1.1,3.7,0.9v6
			c0,0.2,0,0.4-0.1,0.6l-2.2,6.5c-0.7,1.9-0.8,4-0.5,6l2.9,19.5H631z"/>
		<path fill="#866050" d="M662.4,261.6c-0.2-1.2-0.1-10,0-14.2c0-1.4,0.4-2.8,1.2-4.1l4.1-6.7l0,0c0.6-1.1,2.3-0.7,2.3,0.6v3.8
			c0,0.1,0,0.3-0.1,0.4l-1.4,4.1c-0.4,1.2-0.5,2.5-0.3,3.8l1.8,12.3H662.4z"/>
		<path fill="#866050" d="M699,267.5c0.6-0.8,5.3-6.6,7.6-9.3c0.8-0.9,1.7-1.8,2.5-2.4l4.8-3.4l0,0c0.8-0.6,1.1,0.1,0.4,0.9l-2,2.5
			c-0.1,0.1-0.1,0.2-0.2,0.2l-2.6,2.4c-0.8,0.7-1.5,1.5-2.1,2.4l-6.1,8.5L699,267.5z"/>
		<path fill="#866050" d="M723.9,287.3c1.4-1.4,13.2-8.8,18.8-12.3c1.9-1.2,4.1-1.9,6.4-2l12.4-0.4l0,0c2-0.2,3,2.4,1.3,3.5l-5,3.3
			c-0.2,0.1-0.4,0.2-0.6,0.3l-6.7,1.7c-2,0.5-3.8,1.5-5.3,2.8l-14.7,13L723.9,287.3z"/>
		<path fill="#866050" d="M659,331.4c1.1-1.1,10.4-6.9,14.8-9.7c1.5-1,3.3-1.5,5.1-1.5l9.8-0.3l0,0c1.6-0.2,2.3,1.9,1,2.8l-4,2.6
			c-0.1,0.1-0.3,0.2-0.5,0.2l-5.3,1.3c-1.6,0.4-3,1.2-4.2,2.2l-11.6,10.3L659,331.4z"/>
		<g>
			<g>
				<path fill="#866050" d="M590.3,324c-0.7,2.4-1.8,4.3-3.5,6c-2.4,2.3,2.1,2.7,3.5,2.6c3.2-0.2,7.3-1.2,9.7-3.5
					c2.1-2.1,3.8-4.7,4.6-7.5c0.7-2.6-4.7-1.8-5.9-1.6c-1.9,0.3-3.8,0.9-5.5,1.7C592.3,322.1,590.6,323,590.3,324L590.3,324z"/>
			</g>
		</g>
		<g>
			<g>
				<path fill="#866050" d="M591.5,349.1c1.9,4.6,3.4,9.3,4.4,14.1c0.8,4,15.4,0.5,14.5-3.9c-1-4.9-2.4-9.6-4.4-14.1
					C604.2,341,590,345.6,591.5,349.1L591.5,349.1z"/>
			</g>
		</g>
		<g>
			<g>
				<path fill="#866050" d="M612.7,345.2c1.6,1,3.3,2,4.9,2.9c3.2,1.9,7.4,1.6,10.4-0.8c1.3-1,2.3-2.4,2.5-4
					c0.1-1.4-0.5-3.1-1.8-3.9c-1.6-1-3.3-2-4.9-2.9c-3.2-1.9-7.4-1.6-10.4,0.8c-1.3,1-2.3,2.4-2.5,4
					C610.8,342.8,611.4,344.4,612.7,345.2L612.7,345.2z"/>
			</g>
		</g>
		<g>
			<g>
				<path fill="#866050" d="M590.3,416.5c5.7,10.8,12.9,20.6,21.4,29.4c2.4,2.5,15.6-2.8,13.7-4.8c-8.2-8.5-15-18.1-20.6-28.5
					C603,409.3,589.3,414.7,590.3,416.5L590.3,416.5z"/>
			</g>
		</g>
		<g>
			<g>
				<path fill="#866050" d="M677.5,371.3c2.6,2.2,5.2,4.3,7.8,6.5c2.3,1.9,7.1,0.5,9.4-0.4c1.1-0.4,6.4-2.9,4.1-4.8
					c-2.6-2.2-5.2-4.3-7.8-6.5c-2.3-1.9-7.1-0.5-9.4,0.4C680.5,366.9,675.2,369.3,677.5,371.3L677.5,371.3z"/>
			</g>
		</g>
		<g>
			<g>
				<path fill="#866050" d="M700.7,361.7c3.1,0,7.5-1.3,9.7-3.6c2.4-2.5-2-2.9-3.6-2.9c-3.1,0-7.5,1.3-9.7,3.6
					C694.8,361.3,699.2,361.7,700.7,361.7L700.7,361.7z"/>
			</g>
		</g>
		<g>
			<g>
				<path fill="none" stroke="#BFA89F" stroke-miterlimit="10" d="M655.3,406.7"/>
			</g>
		</g>
		<g>
			<g>
				<path fill="none" stroke="#BFA89F" stroke-miterlimit="10" d="M677.3,402.3"/>
			</g>
		</g>
		<circle fill="#866050" cx="576.9" cy="347.9" r="6.5"/>
		<circle fill="#866050" cx="566.4" cy="365.5" r="6.5"/>
		<circle fill="#866050" cx="583.4" cy="365.5" r="4.1"/>
		<circle fill="#866050" cx="648.4" cy="416.2" r="6.5"/>
		<circle fill="#866050" cx="637.9" cy="433.8" r="6.5"/>
		<circle fill="#866050" cx="654.9" cy="433.8" r="4.1"/>
	</g>
	<g>
		<polygon fill="#464547" stroke="#464547" stroke-width="4" stroke-miterlimit="10" points="872.1,443.2 851.4,443.5 851.4,439.3 
			867.8,439 867.3,406.2 871.6,406.1 		"/>
		<path fill="#464547" stroke="#464547" stroke-width="4" stroke-miterlimit="10" d="M939.2,442.2l-22.7,0.3l-0.1-4.2l18.5-0.3
			l-0.1-5c-6.5-1.6-12.1-6.1-16.2-13.1c-3.3-5.6-4.5-10.9-4.5-11.1l4.1-0.9c0,0.2,4.4,19,19.1,21.3l1.8,0.3L939.2,442.2z"/>
		<path fill="#464547" d="M835.5,352.4l-31.3-0.8l0.2-9.1c0-2-1.4-3.9-3.4-4.2c-2.3-0.3-4.3,1.5-4.4,3.8l-0.2,10.1
			c-0.1,2.4,1.9,4.4,4.3,4.5l3.5,0.1l0,0l31.3,0.8L835.5,352.4z"/>
		<path fill="#58595B" d="M902.9,425.3l-2.5,0.5c-27.6,5.2-54.3-13.2-59.5-40.7l-4.8-25.5c-5.2-27.6,13.2-54.3,40.7-59.5l2.5-0.5
			c27.6-5.2,54.3,13.2,59.5,40.7l4.8,25.5C948.8,393.3,930.5,420.1,902.9,425.3z"/>
		<path fill="#464547" d="M929.7,353.5l-5.9,17.1c-1.3,3.7-4,6.7-7.5,8.5l-36.8,18l-3.7-7.6c-0.9-1.8-3-2.7-4.8-2
			c-2,0.8-2.8,3.1-1.9,5l4,8.2c1.1,2.2,3.7,3.1,5.9,2l2.7-1.3l0-0.1l36.8-18c4.7-2.3,8.2-6.3,9.9-11.2l5.9-17.1L929.7,353.5z"/>
		<g>
			<path fill="#464547" d="M930.6,378.2c0,0,0-0.1-0.1,0l0,0.1L930.6,378.2z"/>
			<path fill="#464547" d="M929.8,378.5c-0.1,0.1-0.1,0.3,0,0.3c0-0.2,0.1-0.2,0.1-0.3c0.1-0.1,0.2-0.1,0.2,0c0,0,0.2-0.1,0.2-0.2
				C930.1,378.2,930,378.4,929.8,378.5C929.8,378.5,929.8,378.5,929.8,378.5z"/>
			<path fill="#464547" d="M920.6,385L920.6,385C920.6,385,920.6,385,920.6,385z"/>
			<path fill="#464547" d="M914.6,388.6C914.6,388.6,914.6,388.6,914.6,388.6C914.6,388.6,914.6,388.6,914.6,388.6z"/>
			<path fill="#464547" d="M913.5,389.1C913.5,389.1,913.5,389.1,913.5,389.1C913.5,389.1,913.5,389.1,913.5,389.1z"/>
			<path fill="#464547" d="M920.6,385l-0.2,0.1C920.4,385.1,920.5,385,920.6,385z"/>
			<path fill="#464547" d="M928.8,379.6C928.8,379.6,928.8,379.6,928.8,379.6L928.8,379.6C928.8,379.6,928.8,379.6,928.8,379.6z"/>
			<path fill="#464547" d="M923.1,383.2L923.1,383.2C923.1,383.1,923.1,383.1,923.1,383.2L923.1,383.2z"/>
			<path fill="#464547" d="M925,381.8c0,0,0,0.1,0,0.2C925,381.9,925,381.8,925,381.8C925,381.8,925,381.8,925,381.8z"/>
			<path fill="#464547" d="M928.1,379.6L928.1,379.6C928.1,379.6,928.1,379.6,928.1,379.6z"/>
			<path fill="#464547" d="M921.6,384.1C921.6,384.1,921.6,384.1,921.6,384.1C921.6,384.1,921.6,384.1,921.6,384.1z"/>
			<path fill="#464547" d="M858.1,396.6C858.1,396.6,858.1,396.6,858.1,396.6C858.1,396.6,858.1,396.6,858.1,396.6z"/>
			<path fill="#464547" d="M855.5,395.7L855.5,395.7C855.5,395.7,855.5,395.7,855.5,395.7L855.5,395.7z"/>
			<path fill="#464547" d="M911.5,390C911.5,390,911.5,390,911.5,390C911.5,390,911.5,390,911.5,390z"/>
			<path fill="#464547" d="M892.6,396.2c0.2,0.1-0.4,0.2,0,0.2C892.5,396.4,892.9,396.2,892.6,396.2z"/>
			<path fill="#464547" d="M928.7,379.7L928.7,379.7C928.7,379.7,928.7,379.7,928.7,379.7z"/>
			<path fill="#464547" d="M892.6,396.4L892.6,396.4L892.6,396.4C892.6,396.4,892.6,396.4,892.6,396.4z"/>
			<path fill="#464547" d="M907,392.2C907,392.2,907,392.3,907,392.2C907,392.2,907,392.2,907,392.2z"/>
			<path fill="#464547" d="M910.4,390.8L910.4,390.8C910.4,390.8,910.4,390.8,910.4,390.8z"/>
			<path fill="#464547" d="M905.2,393.1c0,0-0.1,0-0.1,0c0,0,0,0,0,0C905.1,393.1,905.2,393.1,905.2,393.1z"/>
			<path fill="#464547" d="M903.3,393.8C903.3,393.8,903.3,393.8,903.3,393.8c0.1,0,0.1,0,0.1,0L903.3,393.8z"/>
			<path fill="#464547" d="M864.3,397.3C864.3,397.2,864.2,397.2,864.3,397.3C864.2,397.3,863.9,397.3,864.3,397.3z"/>
			<path fill="#464547" d="M928.7,379.6C928.7,379.6,928.7,379.6,928.7,379.6L928.7,379.6C928.8,379.6,928.7,379.6,928.7,379.6z"/>
			<path fill="#464547" d="M905.4,393.9l-0.3,0.1C905.2,393.9,905.3,393.9,905.4,393.9z"/>
			<path fill="#464547" d="M878.9,397.7L878.9,397.7C878.9,397.7,878.9,397.7,878.9,397.7z"/>
			<path fill="#464547" d="M904.2,394.3c-0.1,0-0.1,0-0.2,0c0,0,0,0,0,0L904.2,394.3z"/>
			<path fill="#464547" d="M864.2,397.2L864.2,397.2L864.2,397.2z"/>
			<path fill="#464547" d="M862.1,397.2c0.3,0,0.2-0.1,0.2-0.2c0.4,0,0.2,0.1,0.3,0.2c0.2,0,0.4-0.1,0.6-0.1c0,0,0,0,0,0.1
				c0.3-0.1,0.7,0.1,1-0.1c0,0,0,0,0,0c0-0.1,0-0.1,0-0.2c0.1,0,0.3-0.1,0.3,0c-0.1,0-0.1,0-0.1,0l0.1,0c0.1,0.1-0.2,0-0.2,0.1
				c0.3,0,0.6-0.1,0.8,0c0,0.1-0.5,0-0.2,0.1l-0.3-0.1c0.2,0.2-0.2,0,0,0.2c0.4,0.1,0.5,0,0.9,0c0.1-0.1,0-0.1,0.1-0.2
				c0.6-0.1,0.5,0.3,0.9,0.2c0.1-0.1,0.2-0.2,0.5-0.1l-0.1,0.1c0.4,0,0.3-0.2,0.7-0.1c-0.1,0-0.3,0-0.3,0c0.3,0.1,0.2-0.1,0.4-0.1
				l0,0.1c0.5,0,1-0.1,1.5-0.1c0,0-0.1,0.1,0,0.1c0.6,0,1.4,0.1,2,0.1l0.2-0.1c0.1,0,0.1,0,0,0.1c0.2,0,0-0.1,0.1-0.1
				c0.1,0,0.2,0.1,0.1,0.1c0.4-0.1,1.2-0.2,1.6,0l-0.1,0c0.3,0,0.4-0.2,0.7-0.1l-0.1,0c0.7,0.1,1.6,0,2.1,0.1
				c0.1-0.1,0.7,0.1,0.8-0.1c0.4,0.1,0.3,0.1,0.9,0.2c0.2,0,0.2-0.1,0.4-0.1l0,0.1l0.3-0.1l0.1,0.1l0.2,0c-0.1,0-0.2,0-0.1-0.1
				c0.3,0,0.7,0.1,0.7,0.1l0.7-0.1c0,0-0.1,0.1-0.2,0.1c0.4-0.1,0.1,0.1,0.4,0c0,0,0-0.1,0-0.1c0.2,0.1,0.6,0.1,0.8,0l-0.1,0.1
				c0.5,0,1.1,0,1.7-0.1c-0.2,0-0.2-0.2,0-0.2l0.1,0.1c0.1-0.1-0.2,0,0-0.1c0.2,0,0.1,0.1,0,0.2l0.3,0c0,0,0,0.1-0.1,0.1
				c0.1-0.1,0.5,0.1,0.6,0l0,0c0.6,0,0.8-0.1,1.3-0.1c0-0.1,0.2-0.1,0.3-0.2c0.3,0,0.7,0.1,1.1,0c0.3-0.1,0.1-0.1,0.2-0.2
				c0,0.1,0.4,0.1,0.2,0.1c0.5,0,0.6-0.1,1.3-0.2c-0.1,0-0.1,0-0.1-0.1c0.1,0,0.3,0,0.2,0.1l0,0c0.7-0.2,1.7,0.1,2.2-0.1l0,0
				l0.6-0.2c0.3,0-0.2,0.1,0.1,0.1c0.6-0.2,1-0.1,1.5-0.3c0.4,0.2,1.4-0.2,2-0.1l0-0.1c0.1-0.1,0.2,0,0.3,0c0,0-0.2,0-0.1-0.1
				c0.6-0.1,1.2-0.2,1.8-0.3c0.6-0.1,1.2-0.2,1.8-0.3c0.4-0.1,0.2-0.4,0.8-0.4l-0.1,0.2c0.8-0.3,1.8-0.5,2.6-0.8c0,0,0,0.1-0.1,0.1
				c0.2,0,0.7-0.2,0.6-0.3c0.1,0,0,0,0.1,0.1c0.2,0,0.4-0.2,0.5-0.2c0,0,0,0-0.1,0.1c0.1-0.1,0.5-0.2,0.4-0.2
				c0.3-0.1,0.6-0.2,0.9-0.3c0.1-0.2,0.5-0.1,0.5-0.3c0,0.2,0.6-0.1,0.8-0.2c0,0.1,0.2,0,0.1,0.1c0.2-0.1,0.4-0.2,0.3-0.3
				c0.5,0,0.8-0.5,1.1-0.3c0.3-0.2,0.6-0.3,0.9-0.5c0.3-0.2,0.6-0.3,0.9-0.5c0,0.2-0.6,0.3-0.5,0.4c0.5-0.3,0.8-0.6,1.3-0.8
				c0.2,0-0.1,0.1-0.1,0.1c0.5-0.3,1.1-0.5,1.5-0.8c0,0,0,0.1-0.1,0.1c0.1-0.1,0.2-0.1,0.2-0.1l-0.1,0.1c-0.2,0,0.3-0.4,0.3-0.4
				c-0.1,0.3,0.5-0.2,0.4,0.2c0.1,0,0.1-0.1,0.1-0.1c0.1,0,0.1,0,0.1,0.1c0.3-0.2,0.2-0.2,0.5-0.4c0,0,0,0.1-0.1,0.1
				c0.1-0.1,0.2-0.3,0.5-0.4c0,0,0,0,0,0.1c0.4-0.2,0.7-0.6,1.2-0.8c-0.1,0.2,0.2,0,0.3,0.1l0.2-0.2l-0.1,0c0.2-0.1,0.4-0.3,0.6-0.4
				l-0.1,0.1l0.4-0.3l-0.3,0.1c0.2-0.2-0.1-0.1,0.2-0.3c-0.1,0,0.2-0.1,0.4-0.1l0,0c0.1-0.1,0.2-0.2,0.4-0.3c0.1,0,0,0.1,0.1,0.2
				c0.1-0.2,0.5-0.3,0.6-0.5c0,0.1,0,0.1,0,0.1l0-0.1c0.1,0,0.1,0,0.2,0c0.3-0.2-0.2-0.1,0.2-0.2c0,0,0,0-0.1,0.1
				c0.4-0.2,0.7-0.5,1-0.6c0.2,0.1-0.3,0.2-0.1,0.2c0.5-0.3,0.9-0.8,1.4-1l-0.1,0c0-0.2,0.4-0.1,0.6-0.4c0,0,0,0.1,0,0.1
				c0.3-0.2,0.6-0.5,1.1-0.8l0,0.1c0.2-0.1,0.5-0.3,0.7-0.4c0-0.1,0.1-0.1,0-0.2c0.8-0.2,1.1-0.9,1.7-1.1c-0.1,0-0.1,0.1-0.1,0.1
				l0.4-0.4c-0.1,0-0.1,0-0.2,0c0-0.1,0.1-0.2,0.2-0.3c-0.2,0.2,0.1,0.1,0.2,0.1c0,0,0-0.1,0-0.1c0.3-0.1-0.1-0.2,0.3-0.3l0,0
				c0.1-0.1,0.2-0.2,0.3-0.3c0.1,0-0.1,0.1-0.1,0.2c0.2-0.1,0.3-0.4,0.5-0.4c-0.1,0.1-0.2,0.2-0.2,0.2c0.2,0,0.2-0.1,0.4-0.2l0,0
				l0.3-0.2l-0.1,0c0.1-0.4,0.4-0.4,0.6-0.7c-0.2,0.3,0,0.1,0,0.2c0.1,0,0.2-0.1,0.2,0c0.1-0.2,0.3-0.1,0.4-0.4c0,0,0.2-0.1,0.2,0
				c0.2-0.2-0.1,0-0.1-0.1c0.2-0.3,0.8-0.4,1.1-0.8c0.3-0.3,0.3-0.5,0.6-0.8c0.1,0,0,0.2,0,0.2c0.2-0.1,0.3-0.2,0.5-0.4
				c0,0,0,0,0.1,0c0.1-0.1,0-0.2,0.2-0.3c0,0.1,0,0.1-0.1,0.2c0.1-0.1,0.3-0.3,0.4-0.5c0.1,0,0,0.1-0.1,0.2c0.2-0.2,0.4-0.4,0.4-0.5
				l-0.1,0.1c0.1-0.1,0.1,0,0,0.1c-0.1,0.2-0.2,0.2-0.3,0.1l0.1-0.1c-0.2-0.1-0.4,0.4-0.7,0.6l0-0.2l-0.2,0.3c-0.1,0-0.2,0-0.1-0.1
				c-0.2,0.1-0.1,0.2-0.3,0.2c0,0,0,0,0,0l-0.1,0.2c0,0-0.1-0.1,0-0.1c-0.3,0.2-0.4,0.5-0.6,0.4l0,0c-0.4,0.4,0,0.1-0.2,0.5
				l-0.4-0.1l0,0.1c0,0-0.1,0.1-0.1,0c-0.1,0.2,0.1,0,0,0.1c-0.3,0.1-0.5,0.5-0.7,0.4c0,0.1,0.2-0.1,0,0.1c-0.2-0.1-0.2,0.2-0.5,0.3
				c0-0.1,0.2-0.2,0-0.1c0,0.2-0.4,0.2-0.5,0.4c0.1,0.1-0.3,0.3-0.6,0.5c0,0-0.5,0.3-0.8,0.5l0,0c0,0.1-0.2,0.3-0.4,0.5
				c0-0.1,0-0.1,0.1-0.2l-0.2,0.1c0,0.1-0.1,0.1-0.2,0.2l0-0.1c-0.2,0.2-0.4,0.4-0.8,0.6c0,0.1,0.4,0,0.1,0.3c0,0-0.1-0.1,0-0.2
				c0,0-0.1,0.1-0.1,0.1l0.1-0.2c-0.2,0.1,0,0.1-0.2,0.2c0-0.1-0.1,0-0.1,0c0,0,0.1,0,0.1-0.1c-0.1,0.1-0.3,0.1-0.4,0.1
				c0,0,0.1,0.1,0,0.1c-0.2,0.2-0.1,0-0.3,0.1c0,0.1-0.2,0.1-0.2,0.2c-0.1,0-0.1,0-0.2,0c-0.1,0.1-0.6,0.4-0.4,0.4l0,0l0,0l0,0l0,0
				c-0.4,0.4-0.9,0.5-1.3,0.8l0,0c-0.2,0.2-0.5,0.4-0.7,0.5c-0.1,0-0.2,0.1-0.2,0c-0.2,0.1-0.2,0.2-0.5,0.3c0.2-0.2-0.1,0,0.2-0.2
				c-0.3,0.1-0.3,0.1-0.6,0.4c0-0.1-0.2,0-0.3,0.1l0.2-0.1c-0.1,0.1-0.2,0.2-0.4,0.2l0-0.1c-0.6,0.2-0.8,0.8-1.3,0.8
				c-0.1,0.2,0.3-0.1,0.2,0c-0.2,0.1-0.6,0.1-0.6,0.2c-0.4,0.1-0.2,0.3-0.6,0.5c0.1,0,0.2,0.1-0.1,0.3c-0.2,0.1-0.4,0-0.2-0.1
				c0.1,0,0.1,0,0.1,0c0.1-0.1,0.2-0.1,0-0.1l0,0.1c-0.1,0-0.5,0.2-0.4,0.1c-0.2,0.1,0,0.1,0.1,0c-0.3,0.1-0.5,0.3-0.8,0.4
				c0.1,0,0.1,0,0.1,0c-0.5,0.2-0.2,0.2-0.5,0.4c-0.2,0,0-0.2-0.3,0c-0.2,0.1-0.1-0.1,0-0.1c-0.3,0.2-0.6,0.2-0.7,0.3l0.1-0.1
				c-0.1,0.1-0.2,0.1-0.2,0.1l0.1,0c-0.1,0-0.2,0.1-0.2,0c-0.1,0.1,0.1,0.1,0,0.3c-0.1,0-0.3,0.2-0.4,0.2c0.4-0.2-0.1-0.1,0.2-0.3
				c-0.1,0-0.1,0.1-0.2,0.1c0,0,0,0,0,0c-0.4,0.1-0.1,0.2-0.5,0.4c0-0.1-0.1-0.1-0.2,0c0.2-0.1,0.1,0.1,0,0.2
				c-0.3,0.1-0.2,0.2-0.4,0.2l0.2-0.1c0,0.1-0.1,0.1-0.3,0.2c0,0,0.1-0.1,0.1-0.1c-0.1,0.2-0.5,0.1-0.7,0.3c-0.1,0-0.1-0.1-0.2-0.1
				c-0.3,0.2-0.4,0.1-0.6,0.3c0.1,0,0.1,0-0.1,0.2l0.5-0.3l-0.3,0.3c0.2-0.1,0.3-0.2,0.4-0.2c-0.1,0.1-0.1,0.1,0,0.1
				c-0.3,0-0.4,0.3-0.7,0.3l-0.1-0.2c-0.4,0.1-0.6,0.4-1.1,0.6l0.2,0c0,0.1-0.3,0.1-0.4,0.2c0-0.1-0.1-0.1-0.2-0.1
				c0,0-0.4,0.1-0.3,0.3l-0.3,0c-0.4,0.1-0.4,0.4-0.8,0.5c0.1-0.1-0.1-0.1,0.1-0.2c-0.1,0.1-0.2,0.1-0.2,0.1c-0.1,0-0.3,0.2-0.5,0.2
				c0,0,0,0.1-0.2,0.2c0,0,0,0,0,0c0,0-0.2,0.1-0.1,0.2c-0.5-0.1-1.1,0.4-1.5,0.4c-0.3,0.1-0.6,0.2-0.9,0.3c0,0,0,0,0,0
				c-0.4,0.1-0.2,0.3-0.6,0.3c-0.2,0,0.2-0.1,0.1-0.1c-0.1-0.2-0.5,0.2-0.8,0.1l0.1,0c-0.2,0-0.5,0.2-0.8,0.3c0,0,0,0,0,0
				c-0.2,0.2-0.6,0.3-1,0.5c0.1-0.1,0.1-0.1,0.1-0.2c-0.1,0.1,0.1,0.1-0.2,0.2c-0.1,0-0.3,0-0.4-0.1l0.3-0.1
				c-0.2-0.1-0.4,0.1-0.5,0.1l0-0.1c-0.4,0.1-0.4,0.3-0.9,0.4l0.1,0c-0.2,0.2-0.2,0-0.5,0.1l-0.1-0.1c-0.2,0.1-0.6,0.3-0.9,0.3
				c0.2-0.1,0.5-0.3,0.7-0.4c-0.2,0-0.6,0.1-0.6,0.2c0.1,0,0.1-0.1,0.2-0.1c-0.2,0.1-0.4,0.3-0.8,0.3c0-0.3-0.9,0.1-1.2-0.1
				c-0.6,0.2-1.2,0.1-1.9,0.3c0.3,0.2-0.2,0-0.1,0.2c-0.2,0-0.2,0-0.2,0l-0.5-0.1c-0.1,0,0.1-0.1,0.1-0.1c-0.4,0-0.2-0.1-0.4-0.1
				c0.1,0.1-0.1,0.1-0.3,0.1l0.3,0.1c-0.5,0.2-0.4-0.1-0.9,0l0.2-0.1c-0.3,0.1-0.9,0.1-1.2,0.3c0,0-0.1-0.1,0-0.1
				c-0.6,0-1.4,0.3-1.8,0.2l0-0.1c-0.1,0-0.2,0.1-0.3,0.1c0,0,0-0.1,0-0.1c-0.1,0-0.3,0.1-0.5,0.1l0.1-0.1c-0.6,0-0.9,0.2-1.4,0.3
				c0-0.2-0.5-0.2-0.7-0.2l0,0c-0.7,0-1.2,0.2-1.8,0.3c-0.4-0.2-1.4,0-2-0.1c0.1,0,0,0.1-0.1,0.1c-0.2,0-0.4,0.1-0.4,0l0.1,0
				c-0.1-0.1-0.4-0.1-0.7-0.1l0,0.2c-0.6-0.3-1.7,0.1-2-0.1c-0.2,0-0.3,0-0.5,0.1l0-0.1c-0.4,0-0.6,0-1.2,0l0.1-0.1
				c-0.3,0-0.4,0.3-0.7,0.3l-0.1-0.2c-0.5,0-1-0.1-1.6,0c0,0,0-0.1,0.1-0.1c-0.2,0-0.9-0.1-0.9,0.1c0-0.1-0.5,0-0.8,0l0-0.1
				c-0.2,0.1-0.2,0.2-0.6,0.2c-0.1,0-0.1-0.1,0-0.1c-0.3-0.1-0.2,0.1-0.5,0l0.1-0.1c-0.3,0-0.2,0-0.4,0.1c-0.2,0-0.5,0-0.5-0.1
				c0,0.1-0.2,0.1-0.3,0.1c0,0,0-0.1,0.1-0.1c-0.4-0.1-0.7,0.1-1,0c0,0,0,0-0.1-0.1c0.4,0,0.6,0,0.6,0c0-0.1-0.3-0.1-0.1-0.2
				c-0.2,0.1-0.6,0.2-0.9,0.1c0,0,0,0,0,0l0,0c-0.1,0-0.1,0-0.2,0c-0.1,0-0.1,0-0.2,0c0-0.1-0.3-0.1-0.5-0.1c0,0.1-0.2,0.1,0,0.2
				c0,0,0,0,0.1,0c0,0,0,0,0.1,0l0,0c0.1,0,0.2,0,0.4,0c-0.1,0-0.2,0.1-0.4,0c-0.1,0.1-0.2,0.1-0.2,0.2c-0.2-0.1-0.6-0.2-0.6-0.3
				c-0.4,0-1,0-1.3,0.2c-0.1,0-0.1-0.1-0.2-0.1c0.1,0,0.2,0,0.2,0c-0.3,0-0.7,0-0.8,0.1c-0.3-0.1,0.2-0.1-0.2-0.1l0.1,0
				c-0.8-0.3-1.4,0.2-2.3-0.1c0.1,0,0.1,0,0.1,0.1c-1.1-0.2-2.2-0.1-3.2-0.4c-0.3-0.1-0.3,0-0.5,0l-0.1-0.1l-0.3,0.1
				c-0.5,0-0.7-0.4-1.3-0.3l0.1,0.1c-0.2,0-0.6-0.1-0.6-0.1c0,0-0.1,0.1-0.1,0l0-0.1l-0.5,0c-0.4-0.1,0.1-0.2-0.5-0.3
				c-0.2,0-0.6,0.1-0.5,0.1c0.1,0,0.2,0.1,0.2,0.1l-0.2,0c-0.1,0.2-0.2,0.3,0.2,0.5l0.3,0l0.1,0.1l-0.3,0c0.1,0.1,0.3,0.1,0.4,0
				c0,0,0.1,0.1,0.1,0.1l0.3-0.1c0,0.1-0.2,0.1,0,0.2c0.2,0-0.1-0.2,0.1-0.2c0.1,0.1,0.1,0.2,0.3,0.1c0,0,0,0.1-0.1,0.1
				c0.2,0,0.4,0.1,0.5,0c0.1,0.1,0.6,0.1,0.5,0.2c0.1,0,0.3-0.1,0.5-0.1c-0.3,0.1,0.6,0.1,0.5,0.3c0.2-0.1,0.7,0,1.1,0
				c0,0-0.1,0-0.1,0c0.2,0,0.3,0.1,0.4,0.1c0-0.1,0.4-0.1,0.5-0.2c0.2,0.2-0.2,0.1-0.1,0.3c0-0.1,0.4-0.1,0.4-0.2
				c0.2,0.1,0.2,0.1,0.2,0.2c0.1-0.2,0.2,0,0.3-0.1c0.3,0.1,0.1,0.2,0.4,0.1C862.3,397.2,862.1,397.2,862.1,397.2z M869.3,397.4
				L869.3,397.4c-0.1,0-0.1,0-0.1,0C869.2,397.4,869.2,397.4,869.3,397.4z M869.9,397.4c-0.1,0-0.2,0-0.3,0c0,0,0-0.1,0.1-0.1
				C869.7,397.4,869.8,397.4,869.9,397.4z M868.6,396.7c0.1,0,0.1,0,0.1,0C868.7,396.7,868.7,396.7,868.6,396.7
				C868.6,396.7,868.6,396.7,868.6,396.7C868.6,396.7,868.6,396.7,868.6,396.7z"/>
			<path fill="#464547" d="M868.5,396.8C868.5,396.8,868.4,396.8,868.5,396.8C868.4,396.8,868.5,396.8,868.5,396.8
				C868.5,396.8,868.5,396.8,868.5,396.8C868.5,396.8,868.5,396.8,868.5,396.8z"/>
			<path fill="#464547" d="M920.6,385L920.6,385C920.6,385,920.7,385,920.6,385C920.6,385,920.6,385,920.6,385z"/>
			<polygon fill="#464547" points="878.3,397.8 878.3,397.7 878.2,397.8 			"/>
			<path fill="#464547" d="M923.6,383.3C923.6,383.3,923.6,383.3,923.6,383.3C923.6,383.3,923.6,383.3,923.6,383.3z"/>
			<path fill="#464547" d="M924.8,382.5l0.2-0.1C924.9,382.5,924.8,382.5,924.8,382.5z"/>
			<path fill="#464547" d="M925.7,381.9C925.7,381.9,925.7,381.9,925.7,381.9L925.7,381.9L925.7,381.9z"/>
			<path fill="#464547" d="M910.8,391.4C910.8,391.4,910.8,391.4,910.8,391.4C910.7,391.4,910.7,391.4,910.8,391.4z"/>
			<path fill="#464547" d="M915.3,388.7c0,0-0.1,0.1-0.1,0.1C915.3,388.7,915.3,388.7,915.3,388.7z"/>
			<polygon fill="#464547" points="905.5,393.8 905.5,393.8 905.4,393.9 			"/>
			<path fill="#464547" d="M915,388.9c0.1,0,0.2-0.1,0.2-0.1C915.1,388.8,915,388.9,915,388.9z"/>
			<path fill="#464547" d="M929.5,379L929.5,379C929.6,379,929.6,379,929.5,379L929.5,379z"/>
			<path fill="#464547" d="M929.6,379L929.6,379C929.6,379,929.6,379,929.6,379z"/>
			<path fill="#464547" d="M929.7,378.9L929.7,378.9C929.7,378.9,929.7,378.9,929.7,378.9z"/>
			<path fill="#464547" d="M928.4,379.9L928.4,379.9C928.4,379.9,928.4,379.9,928.4,379.9z"/>
			<path fill="#464547" d="M928,380.2c0.1-0.1,0.3-0.1,0.4-0.2l0,0C928.3,380,928.1,380.1,928,380.2z"/>
			<path fill="#464547" d="M926.3,380.9l0.3-0.2c-0.1,0-0.2,0,0-0.1C926.1,380.8,926.7,380.7,926.3,380.9z"/>
			<path fill="#464547" d="M925.3,381.6C925.4,381.5,925.3,381.5,925.3,381.6C925.2,381.6,925.2,381.6,925.3,381.6z"/>
			<path fill="#464547" d="M918.4,386.3L918.4,386.3C918.3,386.3,918.4,386.3,918.4,386.3z"/>
			<polygon fill="#464547" points="917.3,387.6 917.5,387.5 917.5,387.4 			"/>
			<polygon fill="#464547" points="916.2,387.5 916.2,387.5 916,387.6 			"/>
			<path fill="#464547" d="M903.6,393.6L903.6,393.6C903.8,393.6,903.8,393.5,903.6,393.6z"/>
			<path fill="#464547" d="M897.9,395.4c-0.1,0-0.2,0-0.3,0C897.7,395.4,897.8,395.4,897.9,395.4z"/>
			<polygon fill="#464547" points="879.9,396.9 880,396.8 879.8,396.9 			"/>
		</g>
		<g>
			<path fill="#464547" d="M932.3,387.5c0,0-0.1,0-0.1,0.1l0.1,0.1L932.3,387.5z"/>
			<path fill="#464547" d="M931.9,388.1c0,0.1,0,0.3,0.2,0.3C932,388.2,932.1,388.2,931.9,388.1c0.1-0.2,0.2-0.2,0.2-0.2
				c0,0,0.1-0.2,0-0.2C932,387.8,932,388,931.9,388.1C931.9,388.2,931.9,388.1,931.9,388.1z"/>
			<path fill="#464547" d="M923.8,395L923.8,395C923.9,394.9,923.9,395,923.8,395z"/>
			<path fill="#464547" d="M917.7,397.6C917.7,397.6,917.8,397.6,917.7,397.6C917.7,397.6,917.7,397.6,917.7,397.6z"/>
			<path fill="#464547" d="M916.6,397.9C916.6,397.9,916.6,397.9,916.6,397.9C916.6,397.9,916.6,397.9,916.6,397.9z"/>
			<path fill="#464547" d="M923.8,395l-0.2,0C923.7,395.1,923.8,395,923.8,395z"/>
			<path fill="#464547" d="M931.5,389.6c0,0,0-0.1,0-0.1C931.5,389.5,931.5,389.6,931.5,389.6L931.5,389.6z"/>
			<path fill="#464547" d="M926.3,393.4L926.3,393.4C926.4,393.4,926.4,393.4,926.3,393.4L926.3,393.4z"/>
			<path fill="#464547" d="M928.2,392.2c0,0,0,0.1,0,0.2C928.2,392.3,928.2,392.2,928.2,392.2C928.2,392.2,928.2,392.2,928.2,392.2z
				"/>
			<path fill="#464547" d="M930.8,389.8L930.8,389.8C930.8,389.8,930.8,389.8,930.8,389.8z"/>
			<path fill="#464547" d="M924.9,394.2C924.9,394.2,924.9,394.2,924.9,394.2C924.9,394.2,924.9,394.2,924.9,394.2z"/>
			<path fill="#464547" d="M863.4,406.2C863.4,406.2,863.4,406.2,863.4,406.2C863.4,406.2,863.4,406.2,863.4,406.2z"/>
			<path fill="#464547" d="M860.9,405.4L860.9,405.4C860.9,405.4,860.9,405.4,860.9,405.4L860.9,405.4z"/>
			<path fill="#464547" d="M914.6,398.5C914.6,398.5,914.6,398.5,914.6,398.5C914.6,398.5,914.6,398.5,914.6,398.5z"/>
			<path fill="#464547" d="M896.2,403.9c0.2,0-0.3,0.2,0,0.2C896.2,404,896.5,403.9,896.2,403.9z"/>
			<path fill="#464547" d="M931.4,389.7L931.4,389.7C931.4,389.7,931.4,389.7,931.4,389.7z"/>
			<path fill="#464547" d="M896.2,404.1L896.2,404.1L896.2,404.1C896.2,404.1,896.2,404.1,896.2,404.1z"/>
			<path fill="#464547" d="M910.1,400.2C910.1,400.2,910.1,400.2,910.1,400.2C910.1,400.2,910.1,400.2,910.1,400.2z"/>
			<path fill="#464547" d="M913.5,399.2L913.5,399.2C913.4,399.2,913.5,399.2,913.5,399.2z"/>
			<path fill="#464547" d="M908.3,400.9c0,0-0.1,0-0.1,0c0,0,0,0,0,0C908.3,400.9,908.3,400.9,908.3,400.9z"/>
			<path fill="#464547" d="M906.5,401.5C906.5,401.5,906.5,401.5,906.5,401.5C906.5,401.5,906.6,401.5,906.5,401.5L906.5,401.5z"/>
			<path fill="#464547" d="M869.3,406.6C869.3,406.6,869.3,406.6,869.3,406.6C869.3,406.6,869,406.6,869.3,406.6z"/>
			<path fill="#464547" d="M931.4,389.6C931.4,389.6,931.4,389.6,931.4,389.6C931.4,389.6,931.4,389.6,931.4,389.6
				C931.4,389.6,931.4,389.6,931.4,389.6z"/>
			<path fill="#464547" d="M908.5,401.7l-0.3,0.1C908.3,401.8,908.4,401.7,908.5,401.7z"/>
			<path fill="#464547" d="M883.3,406.4L883.3,406.4C883.3,406.4,883.3,406.4,883.3,406.4z"/>
			<path fill="#464547" d="M907.3,402c-0.1,0-0.1,0-0.2,0c0,0,0,0,0,0L907.3,402z"/>
			<path fill="#464547" d="M869.3,406.5L869.3,406.5L869.3,406.5z"/>
			<path fill="#464547" d="M867.2,406.7c0.3,0,0.1-0.1,0.2-0.2c0.4,0,0.2,0.1,0.3,0.2c0.2,0,0.4-0.1,0.6-0.1c0,0,0,0,0,0.1
				c0.2-0.1,0.7,0,1-0.1c0,0,0,0,0,0c0-0.1,0-0.1,0-0.2c0.1,0,0.2-0.1,0.3,0c-0.1,0-0.1,0-0.1,0.1l0.1,0c0.1,0.1-0.2,0-0.2,0.1
				c0.3,0,0.6-0.1,0.8-0.1c0,0.1-0.5,0-0.2,0.1l-0.3-0.1c0.2,0.2-0.2,0,0,0.2c0.4,0.1,0.5,0,0.9,0c0.1-0.1,0-0.1,0.1-0.2
				c0.6-0.1,0.5,0.3,0.9,0.2c0.1-0.1,0.2-0.2,0.5-0.1l-0.1,0.1c0.4,0,0.2-0.2,0.7-0.1c-0.1,0.1-0.3,0-0.3,0.1
				c0.3,0.1,0.2-0.1,0.4-0.1l0,0.1c0.4,0,0.9-0.1,1.4-0.1c0,0-0.1,0.1,0,0.1c0.6,0,1.3,0,1.9,0.1l0.2-0.1c0.1,0,0.1,0,0,0.1
				c0.2,0,0-0.1,0.1-0.1c0.1,0,0.2,0.1,0.1,0.1c0.4-0.1,1.1-0.2,1.6-0.1l-0.1,0c0.3,0,0.4-0.2,0.7-0.1l-0.1,0c0.7,0,1.5-0.1,2.1,0
				c0.1-0.2,0.7,0,0.7-0.2c0.4,0.1,0.3,0.1,0.9,0.1c0.2,0,0.2-0.1,0.4-0.2l0,0.1l0.2-0.1l0.1,0.1l0.2,0c-0.1,0-0.2,0-0.1-0.1
				c0.3-0.1,0.7,0,0.7,0.1l0.7-0.1c0,0-0.1,0.1-0.2,0.1c0.3-0.1,0.1,0.1,0.4,0c0,0,0-0.1,0-0.1c0.2,0.1,0.5,0,0.8,0l0,0.1
				c0.5,0,1-0.1,1.6-0.2c-0.2,0-0.2-0.1,0-0.2l0.1,0.1c0.1-0.1-0.2,0,0-0.1c0.2,0,0.2,0.1,0,0.2l0.2-0.1c0,0,0,0.1,0,0.1
				c0.1-0.1,0.4,0.1,0.6-0.1l0,0c0.5-0.1,0.8-0.1,1.2-0.2c0-0.1,0.2-0.1,0.3-0.2c0.3,0,0.7,0,1.1,0c0.3-0.1,0.1-0.1,0.2-0.2
				c0,0.1,0.4,0,0.2,0.1c0.5-0.1,0.6-0.1,1.2-0.3c-0.1,0-0.1,0-0.1-0.1c0.1,0,0.3,0,0.2,0l0,0c0.6-0.2,1.6,0,2.1-0.3l0,0l0.5-0.2
				c0.3,0-0.1,0.1,0.1,0.1c0.6-0.2,0.9-0.2,1.4-0.3c0.4,0.2,1.3-0.3,1.9-0.2l0-0.1c0.1-0.1,0.2,0,0.3,0c0,0-0.2,0-0.1-0.1
				c1.1-0.3,2.3-0.4,3.5-0.6c0.4-0.1,0.2-0.4,0.7-0.4l-0.1,0.2c0.8-0.4,1.7-0.4,2.5-0.8c0,0,0,0.1-0.1,0.1c0.2,0,0.6-0.2,0.6-0.2
				c0.1,0,0,0.1,0.1,0.1c0.2,0,0.4-0.2,0.5-0.2c0,0,0,0-0.1,0.1c0.1-0.1,0.5-0.1,0.4-0.2c0.3,0,0.6-0.2,0.8-0.2
				c0.1-0.2,0.5-0.1,0.5-0.3c0,0.2,0.6,0,0.7-0.2c0,0.1,0.2,0,0.1,0.1c0.2-0.1,0.4-0.2,0.3-0.2c0.5,0,0.8-0.4,1.1-0.3
				c0.6-0.3,1.2-0.5,1.8-0.8c0,0.2-0.6,0.2-0.6,0.4c0.5-0.3,0.8-0.5,1.3-0.6c0.1,0-0.1,0.1-0.1,0.1c0.5-0.3,1.1-0.4,1.5-0.6
				c0,0,0,0-0.1,0.1c0.1,0,0.2-0.1,0.2-0.1l-0.1,0.1c-0.2,0,0.3-0.3,0.3-0.4c-0.1,0.3,0.5-0.1,0.3,0.2c0.1,0,0.1-0.1,0.1-0.1
				c0.1,0,0.1,0,0.1,0.1c0.3-0.2,0.2-0.2,0.5-0.3c0,0,0,0.1-0.1,0.1c0.1-0.1,0.3-0.2,0.5-0.3c0,0,0,0,0,0.1c0.4-0.2,0.7-0.5,1.2-0.6
				c-0.1,0.2,0.2,0,0.3,0.1l0.2-0.1l-0.1,0c0.2-0.1,0.4-0.3,0.6-0.3l-0.1,0.1l0.4-0.2l-0.3,0c0.2-0.2-0.1-0.1,0.2-0.2
				c-0.1,0,0.2-0.1,0.4-0.1l0,0c0.1-0.1,0.2-0.2,0.4-0.2c0.1,0,0,0.1,0.1,0.2c0.1-0.1,0.5-0.2,0.6-0.4c0,0,0,0.1,0,0.1l0.1-0.1
				c0.1,0,0.1,0,0.1,0c0.3-0.1-0.2-0.1,0.2-0.2c0,0,0,0-0.1,0.1c0.4-0.1,0.7-0.4,1.1-0.5c0.2,0.1-0.3,0.2-0.1,0.2
				c0.5-0.2,1-0.6,1.4-0.8l-0.1,0c0-0.2,0.4-0.1,0.6-0.3c-0.1,0,0,0.1,0,0.1c0.3-0.1,0.6-0.4,1.1-0.7l0,0.1c0.2-0.1,0.5-0.2,0.7-0.3
				c0-0.1,0.2-0.1,0.1-0.2c0.8-0.1,1.1-0.8,1.8-0.9c-0.1,0-0.1,0.1-0.1,0.1c0.1-0.1,0.3-0.2,0.4-0.3c-0.1,0-0.1,0-0.2,0
				c0-0.1,0.1-0.2,0.2-0.3c-0.2,0.2,0.1,0.1,0.2,0.1c0,0,0-0.1,0-0.1c0.3,0,0-0.2,0.3-0.3l0,0c0.1-0.1,0.2-0.2,0.3-0.3
				c0.1,0-0.1,0.1-0.1,0.2c0.2-0.1,0.2-0.4,0.5-0.4c-0.1,0.1-0.2,0.2-0.2,0.2c0.2,0,0.2-0.1,0.4-0.1l0,0l0.3-0.2l-0.1,0
				c0.1-0.4,0.4-0.4,0.6-0.7c-0.2,0.3,0,0.1,0.1,0.2c0.1,0,0.2-0.1,0.2-0.1c0.1-0.2,0.3-0.1,0.4-0.4c0,0,0.1-0.1,0.2,0
				c0.1-0.2-0.1,0-0.1-0.1c0.2-0.3,0.7-0.5,0.9-0.9c0.2-0.4,0.2-0.5,0.4-0.8c0.1-0.1,0,0.2,0,0.2c0.2-0.1,0.3-0.3,0.3-0.5
				c0,0.1,0,0,0.1,0c0.1-0.1,0-0.2,0.1-0.3c0,0.1,0,0.1,0,0.2c0.1-0.2,0.1-0.4,0.2-0.6c0.1,0,0,0.2,0,0.2c0.1-0.2,0.2-0.6,0.2-0.7
				l-0.1,0.1c0-0.1,0.1,0,0.1,0.1c0,0.2-0.2,0.2-0.2,0.2l0-0.1c-0.2,0-0.2,0.5-0.4,0.8c0-0.1,0-0.1-0.1-0.2c0,0.1,0,0.2-0.1,0.3
				c-0.1,0-0.2,0-0.1-0.1c-0.2,0.1-0.1,0.2-0.2,0.3c0,0,0,0,0,0c0,0.1-0.1,0.1-0.1,0.2c0,0-0.1,0,0-0.1c-0.3,0.2-0.3,0.5-0.4,0.5
				l0,0c-0.3,0.4,0,0.1-0.1,0.5c-0.1,0-0.2,0-0.4,0l0,0.1c0,0-0.1,0.1-0.1,0.1c-0.1,0.2,0.1,0,0,0.1c-0.2,0.1-0.5,0.5-0.6,0.4
				c0,0.1,0.2-0.1,0.1,0.1c-0.2-0.1-0.2,0.2-0.4,0.3c0-0.1,0.2-0.2,0-0.1c0,0.2-0.4,0.2-0.5,0.4c0.1,0.1-0.3,0.3-0.5,0.5
				c0,0-0.5,0.3-0.8,0.4l0,0c0,0.1-0.2,0.3-0.4,0.4c0-0.1,0-0.1,0.1-0.2l-0.2,0.1c0,0.1-0.1,0.1-0.2,0.2l0-0.1
				c-0.2,0.1-0.4,0.4-0.8,0.5c0,0.1,0.4,0.1,0.1,0.3c0,0-0.1-0.1,0-0.2c0,0-0.1,0.1-0.1,0.1l0.1-0.1c-0.2,0,0,0.1-0.2,0.2
				c0-0.1-0.1,0-0.1-0.1c0,0,0.1,0,0.1-0.1c-0.1,0.1-0.3,0.1-0.4,0.1c0,0,0,0.1,0,0.1c-0.2,0.1-0.1,0-0.3,0c0,0.1-0.2,0.1-0.2,0.2
				c-0.1,0-0.1,0-0.1,0c-0.1,0.1-0.6,0.3-0.4,0.3l0,0c0,0,0,0,0,0l0,0l0,0c-0.4,0.3-0.9,0.4-1.3,0.6l0,0c-0.2,0.2-0.6,0.3-0.7,0.4
				c-0.1,0-0.2,0-0.2,0c-0.2,0.1-0.2,0.2-0.5,0.2c0.2-0.1-0.1,0,0.2-0.1c-0.3,0.1-0.3,0.1-0.6,0.3c0.1-0.1-0.2,0-0.3,0.1l0.2,0
				c-0.1,0.1-0.3,0.1-0.4,0.2l0-0.1c-0.6,0.1-0.8,0.6-1.3,0.6c-0.1,0.1,0.3-0.1,0.2,0.1c-0.2,0.1-0.6,0-0.6,0.1
				c-0.4,0.1-0.2,0.3-0.6,0.4c0.1,0,0.1,0.1-0.1,0.2c-0.2,0.1-0.4,0-0.2-0.1c0.1,0,0.1,0,0.1,0c0.1,0,0.2-0.1,0.1-0.1l0,0.1
				c-0.1,0-0.5,0.1-0.4,0c-0.2,0.1-0.1,0.1,0.1,0.1c-0.3,0.1-0.5,0.2-0.8,0.3c0.1,0,0.1,0,0.1,0c-0.5,0.1-0.2,0.2-0.5,0.3
				c-0.2,0,0-0.2-0.3,0c-0.2,0-0.1-0.1,0-0.1c-0.3,0.2-0.6,0.2-0.7,0.2l0.1-0.1c-0.1,0.1-0.2,0.1-0.2,0.1l0.1,0
				c-0.1,0-0.2,0.1-0.2,0c-0.1,0.1,0.1,0.1,0,0.2c-0.1,0-0.4,0.2-0.4,0.1c0.4-0.1-0.1-0.1,0.2-0.2c-0.1,0-0.1,0.1-0.2,0.1
				c0,0,0,0,0,0c-0.4,0-0.1,0.2-0.5,0.3c0-0.1-0.1-0.1-0.2,0c0.2-0.1,0.1,0.1,0,0.2c-0.3,0-0.3,0.1-0.4,0.2l0.2,0
				c0,0.1-0.2,0.1-0.3,0.2c0,0,0.1-0.1,0.1-0.1c-0.1,0.2-0.5,0-0.7,0.2c-0.1,0-0.1-0.1-0.2-0.1c-0.3,0.2-0.3,0-0.6,0.2
				c0.1,0,0.1,0-0.1,0.2l0.5-0.2l-0.3,0.2c0.2-0.1,0.3-0.2,0.4-0.2c-0.1,0.1-0.1,0.1,0,0.1c-0.3,0-0.4,0.2-0.7,0.2l-0.1-0.2
				c-0.4,0-0.6,0.3-1.1,0.4l0.2,0c0,0.1-0.3,0.1-0.4,0.2c0-0.1-0.1-0.1-0.2-0.1c0,0-0.4,0.1-0.4,0.3l-0.2,0
				c-0.4,0.1-0.4,0.3-0.8,0.4c0.1-0.1-0.1-0.1,0.1-0.2c-0.1,0-0.2,0.1-0.2,0.1c-0.1,0-0.3,0.2-0.5,0.2c0,0,0,0.1-0.2,0.2
				c0,0,0,0,0,0c0,0-0.2,0.1-0.1,0.1c-0.4-0.1-1.1,0.3-1.5,0.3c-0.3,0.1-0.6,0.2-0.8,0.3c0,0,0,0,0,0c-0.4,0-0.2,0.3-0.6,0.3
				c-0.2-0.1,0.2-0.1,0.1-0.1c-0.1-0.2-0.5,0.2-0.8,0.1l0.1,0c-0.2,0-0.5,0.2-0.8,0.3c0,0,0,0,0,0c-0.2,0.2-0.6,0.3-0.9,0.4
				c0.1-0.1,0.1-0.1,0-0.2c-0.1,0.1,0.1,0.1-0.2,0.2c-0.1,0-0.3,0-0.4-0.1l0.3-0.1c-0.2-0.1-0.3,0.1-0.5,0.1l0-0.1
				c-0.4,0.1-0.4,0.3-0.8,0.3l0.1,0c-0.2,0.2-0.2,0-0.4,0.1l-0.1-0.1c-0.2,0.1-0.5,0.3-0.8,0.4c0.1-0.1,0.5-0.3,0.7-0.4
				c-0.2,0-0.5,0.1-0.6,0.2c0.1,0,0.1-0.1,0.2-0.1c-0.2,0.2-0.4,0.3-0.7,0.3c0-0.3-0.8,0.1-1.1,0c-0.5,0.2-1.1,0.2-1.8,0.3
				c0.3,0.2-0.2,0-0.1,0.2c-0.2,0-0.2,0.1-0.2,0l-0.5,0c-0.1,0,0.1-0.1,0.1-0.1c-0.3,0.1-0.2-0.1-0.4-0.1c0.1,0.1-0.1,0.1-0.3,0.1
				l0.3,0c-0.4,0.2-0.4-0.1-0.9,0.1l0.1-0.1c-0.2,0.1-0.9,0.2-1.1,0.4c0,0-0.1-0.1,0-0.1c-0.6,0.1-1.3,0.4-1.7,0.4l0-0.1
				c-0.1,0-0.2,0.1-0.3,0.1c0,0,0-0.1,0-0.1c-0.1,0-0.3,0.1-0.4,0.1l0.1-0.1c-0.6,0-0.9,0.3-1.3,0.4c0-0.2-0.5-0.1-0.7-0.1l0,0
				c-0.7,0.1-1.1,0.3-1.7,0.4c-0.4-0.1-1.3,0.1-1.9,0c0.1,0,0,0.1-0.1,0.1c-0.1,0-0.4,0.1-0.4,0l0.1,0c-0.1-0.1-0.4-0.1-0.6-0.1
				l0,0.2c-0.6-0.2-1.6,0.2-1.9,0c-0.1,0.1-0.3,0.1-0.5,0.1l0-0.1c-0.4,0-0.6,0-1.1,0.1l0.1-0.1c-0.3,0-0.3,0.3-0.6,0.3l-0.1-0.1
				c-0.5,0-1-0.1-1.5,0.1c0,0,0-0.1,0.1-0.1c-0.2,0-0.9-0.1-0.8,0.1c0-0.1-0.5,0-0.8,0.1l0-0.1c-0.2,0.1-0.2,0.2-0.5,0.2
				c-0.1,0-0.1-0.1,0-0.1c-0.3,0-0.2,0.1-0.5,0l0.1-0.1c-0.3,0-0.2,0-0.4,0.1c-0.2,0-0.5,0-0.5-0.1c0,0.1-0.2,0.1-0.3,0.1
				c0,0,0-0.1,0.1-0.1c-0.4-0.1-0.6,0.1-0.9,0c0,0,0,0,0-0.1c0.3,0,0.6,0,0.6,0c0-0.1-0.3-0.1-0.1-0.2c-0.2,0.1-0.6,0.2-0.9,0.2
				c0,0,0,0,0,0l0,0c-0.1,0-0.1,0-0.2,0c-0.1,0-0.1,0-0.2,0c0-0.1-0.3,0-0.5-0.1c0,0.1-0.2,0.1,0,0.2c0,0,0,0,0.1,0c0,0,0,0,0.1,0
				l0,0c0.1,0,0.2,0,0.3,0c-0.1,0-0.2,0.1-0.4,0c-0.1,0.1-0.1,0.1-0.2,0.2c-0.2-0.1-0.5-0.2-0.6-0.3c-0.4,0-1,0-1.3,0.2
				c-0.1,0-0.1-0.1-0.2-0.1c0.1,0,0.2,0,0.2,0c-0.2,0-0.7,0-0.8,0.1c-0.3-0.1,0.2-0.1-0.2-0.1l0.1,0c-0.8-0.2-1.3,0.3-2.2,0
				c0.1,0,0.1,0,0.1,0.1c-1-0.2-2.1,0-3.1-0.3c-0.3-0.1-0.3,0-0.5,0.1l-0.1-0.1l-0.3,0.1c-0.4,0-0.7-0.3-1.3-0.2l0.1,0.1
				c-0.2,0-0.6,0-0.6-0.1c0,0-0.1,0.1-0.1,0l0-0.1l-0.5,0c-0.4-0.1,0.1-0.2-0.4-0.3c-0.2,0-0.6,0.1-0.5,0.1c0.1,0,0.2,0.1,0.2,0.1
				l-0.2,0c-0.1,0.2-0.2,0.3,0.2,0.5l0.3-0.1l0.1,0.1l-0.3,0c0.1,0.1,0.2,0,0.4,0c0,0,0.1,0.1,0.1,0.1l0.3-0.1c0,0.1-0.2,0.1,0,0.2
				c0.2-0.1-0.1-0.2,0.1-0.2c0.1,0.1,0.1,0.1,0.3,0.1c0,0,0,0.1-0.1,0.1c0.2,0,0.4,0,0.5-0.1c0.1,0.1,0.5,0,0.5,0.2
				c0.1,0,0.3-0.1,0.4-0.1c-0.3,0.2,0.5,0.1,0.4,0.3c0.2-0.2,0.7,0,1.1-0.1c0,0-0.1,0-0.1,0c0.2,0,0.2,0.1,0.4,0.1
				c0-0.1,0.3-0.1,0.5-0.2c0.2,0.2-0.2,0.2-0.1,0.3c0-0.1,0.4-0.1,0.3-0.2c0.2,0.1,0.2,0.1,0.2,0.2c0-0.2,0.2,0,0.3-0.1
				c0.3,0.1,0.1,0.2,0.3,0.1C867.5,406.6,867.2,406.7,867.2,406.7z M874.1,406.6L874.1,406.6c-0.1,0-0.1,0-0.1,0
				C874,406.6,874,406.6,874.1,406.6z M874.7,406.6c-0.1,0-0.2,0-0.3,0c0,0,0-0.1,0.1-0.1C874.5,406.6,874.6,406.6,874.7,406.6z
				 M873.5,405.9c0.1,0,0.1,0,0.1,0C873.6,405.9,873.5,405.9,873.5,405.9C873.4,405.9,873.4,406,873.5,405.9
				C873.4,405.9,873.5,405.9,873.5,405.9z"/>
			<path fill="#464547" d="M873.3,406C873.3,406,873.3,406,873.3,406C873.3,406.1,873.3,406.1,873.3,406L873.3,406
				C873.3,406,873.3,406,873.3,406z"/>
			<path fill="#464547" d="M923.9,394.9L923.9,394.9C923.9,394.9,923.9,394.9,923.9,394.9C923.9,394.9,923.9,394.9,923.9,394.9z"/>
			<polygon fill="#464547" points="882.7,406.5 882.7,406.5 882.6,406.5 			"/>
			<path fill="#464547" d="M926.8,393.7C926.9,393.7,926.9,393.7,926.8,393.7C926.9,393.7,926.9,393.7,926.8,393.7z"/>
			<path fill="#464547" d="M928,392.9l0.2-0.1C928.1,392.8,928,392.9,928,392.9z"/>
			<path fill="#464547" d="M928.9,392.3C928.9,392.3,928.9,392.3,928.9,392.3L928.9,392.3L928.9,392.3z"/>
			<path fill="#464547" d="M913.8,399.8C913.8,399.8,913.8,399.8,913.8,399.8C913.7,399.8,913.7,399.8,913.8,399.8z"/>
			<path fill="#464547" d="M918.4,397.7c0,0-0.1,0.1-0.1,0.1C918.3,397.8,918.4,397.8,918.4,397.7z"/>
			<polygon fill="#464547" points="908.5,401.7 908.5,401.7 908.5,401.7 			"/>
			<path fill="#464547" d="M918,397.9c0.1,0,0.2,0,0.2-0.1C918.2,397.9,918.1,397.9,918,397.9z"/>
			<path fill="#464547" d="M931.9,388.8L931.9,388.8C932,388.7,932,388.7,931.9,388.8L931.9,388.8z"/>
			<path fill="#464547" d="M932,388.7L932,388.7C932,388.7,932,388.7,932,388.7z"/>
			<path fill="#464547" d="M932,388.5c0,0,0,0.1,0,0.1C932,388.6,932,388.6,932,388.5z"/>
			<path fill="#464547" d="M931.2,390L931.2,390C931.2,390,931.2,390,931.2,390z"/>
			<path fill="#464547" d="M930.9,390.3c0.1-0.1,0.2-0.2,0.3-0.3l0,0C931.2,390.1,930.9,390.2,930.9,390.3z"/>
			<path fill="#464547" d="M929.3,391.3c0.1-0.1,0.2-0.1,0.3-0.2c-0.1,0-0.2,0-0.1-0.1C929.2,391.2,929.7,391,929.3,391.3z"/>
			<path fill="#464547" d="M928.5,392C928.6,391.9,928.4,391.9,928.5,392C928.4,392,928.3,392,928.5,392z"/>
			<path fill="#464547" d="M921.6,396L921.6,396C921.5,395.9,921.6,395.9,921.6,396z"/>
			<polygon fill="#464547" points="920.4,397 920.6,397 920.6,396.9 			"/>
			<polygon fill="#464547" points="919.4,396.8 919.4,396.7 919.2,396.8 			"/>
			<path fill="#464547" d="M906.8,401.3L906.8,401.3C907,401.3,906.9,401.2,906.8,401.3z"/>
			<path fill="#464547" d="M901.3,402.9c-0.1,0-0.2,0-0.3,0C901.1,402.9,901.2,402.9,901.3,402.9z"/>
			<polygon fill="#464547" points="884.2,405.5 884.3,405.5 884.1,405.5 			"/>
		</g>
		<g>
			<path fill="#464547" d="M905.3,410.4C905.3,410.3,905.3,410.3,905.3,410.4L905.3,410.4L905.3,410.4z"/>
			<path fill="#464547" d="M905,410.2c0,0.1,0,0.2,0,0.3C905,410.4,905.1,410.4,905,410.2c0.1,0,0.1,0.1,0.1,0.1c0,0,0.1,0,0.1-0.1
				C905.1,410.2,905.1,410.2,905,410.2C905,410.3,905,410.3,905,410.2z"/>
			<path fill="#464547" d="M901.5,411.1L901.5,411.1C901.5,411.1,901.5,411.1,901.5,411.1z"/>
			<path fill="#464547" d="M899.2,411.6C899.3,411.6,899.3,411.5,899.2,411.6C899.3,411.5,899.2,411.6,899.2,411.6z"/>
			<path fill="#464547" d="M898.8,411.5C898.8,411.5,898.9,411.5,898.8,411.5C898.9,411.5,898.8,411.5,898.8,411.5z"/>
			<path fill="#464547" d="M901.5,411.1L901.5,411.1C901.4,411.1,901.4,411.1,901.5,411.1z"/>
			<path fill="#464547" d="M904.6,410.7C904.6,410.6,904.6,410.6,904.6,410.7C904.6,410.6,904.6,410.6,904.6,410.7L904.6,410.7z"/>
			<path fill="#464547" d="M902.4,410.7L902.4,410.7C902.4,410.7,902.4,410.7,902.4,410.7L902.4,410.7z"/>
			<path fill="#464547" d="M903.1,410.5c0,0,0,0.1,0,0.1C903.1,410.6,903.1,410.6,903.1,410.5C903.1,410.6,903.1,410.5,903.1,410.5z
				"/>
			<path fill="#464547" d="M904.3,410.3L904.3,410.3C904.4,410.3,904.3,410.3,904.3,410.3z"/>
			<path fill="#464547" d="M901.9,410.9C901.9,410.8,901.9,410.8,901.9,410.9C901.8,410.8,901.9,410.8,901.9,410.9z"/>
			<path fill="#464547" d="M880.6,413.9C880.6,413.9,880.6,413.8,880.6,413.9C880.6,413.9,880.6,413.9,880.6,413.9z"/>
			<polygon fill="#464547" points="879.8,413.3 879.8,413.3 879.8,413.3 			"/>
			<path fill="#464547" d="M898.1,411.5C898.1,411.6,898.1,411.6,898.1,411.5C898.1,411.5,898.1,411.5,898.1,411.5z"/>
			<path fill="#464547" d="M891.8,412.7c0.1,0.1-0.1,0.1,0,0.2C891.8,412.8,891.8,412.7,891.8,412.7z"/>
			<path fill="#464547" d="M904.6,410.6C904.6,410.6,904.6,410.7,904.6,410.6C904.6,410.7,904.6,410.7,904.6,410.6z"/>
			<path fill="#464547" d="M891.8,412.9L891.8,412.9L891.8,412.9C891.8,412.9,891.8,412.9,891.8,412.9z"/>
			<path fill="#464547" d="M896.5,411.9C896.6,411.9,896.6,412,896.5,411.9C896.6,412,896.6,411.9,896.5,411.9z"/>
			<path fill="#464547" d="M897.8,411.8L897.8,411.8C897.7,411.8,897.8,411.8,897.8,411.8z"/>
			<path fill="#464547" d="M896,412.2C895.9,412.2,895.9,412.2,896,412.2C895.9,412.2,895.9,412.2,896,412.2
				C895.9,412.2,895.9,412.2,896,412.2z"/>
			<path fill="#464547" d="M895.3,412.3C895.3,412.3,895.3,412.3,895.3,412.3L895.3,412.3L895.3,412.3z"/>
			<path fill="#464547" d="M882.7,413.9C882.6,413.9,882.6,413.8,882.7,413.9C882.6,413.9,882.5,413.9,882.7,413.9z"/>
			<path fill="#464547" d="M904.6,410.6C904.6,410.6,904.6,410.6,904.6,410.6L904.6,410.6C904.6,410.6,904.6,410.6,904.6,410.6z"/>
			<path fill="#464547" d="M896.1,413l-0.1,0C896,413,896,413,896.1,413z"/>
			<path fill="#464547" d="M887.4,413.8L887.4,413.8C887.4,413.8,887.4,413.8,887.4,413.8z"/>
			<path fill="#464547" d="M895.6,413C895.6,413,895.6,413,895.6,413C895.6,413,895.6,413,895.6,413L895.6,413z"/>
			<path fill="#464547" d="M882.6,413.8L882.6,413.8L882.6,413.8z"/>
			<path fill="#464547" d="M881.9,414c0.1,0,0.1-0.1,0.1-0.2c0.1,0,0.1,0.1,0.1,0.2c0.1,0,0.1-0.2,0.2-0.1c0,0,0,0,0,0.1
				c0.1-0.1,0.2,0,0.3-0.1c0,0,0,0,0,0c0-0.1,0-0.1,0-0.2c0,0,0.1-0.1,0.1,0c0,0,0,0,0,0.1l0,0c0,0.1-0.1,0-0.1,0.1
				c0.1,0,0.2-0.1,0.3-0.1c0,0.1-0.2,0-0.1,0.1l-0.1,0c0.1,0.2-0.1,0,0,0.2c0.1,0,0.2-0.1,0.3,0c0-0.1,0-0.1,0-0.2
				c0.2-0.1,0.2,0.3,0.3,0.1c0-0.1,0.1-0.2,0.2-0.2l0,0.1c0.1,0,0.1-0.2,0.2-0.1c0,0.1-0.1,0-0.1,0.1c0.1,0.1,0.1-0.1,0.1-0.1l0,0.1
				c0.1,0,0.3-0.1,0.5-0.1c0,0,0,0.1,0,0.1c0.2-0.1,0.4,0,0.6,0.1l0.1-0.1c0,0,0,0,0,0.1c0.1,0,0-0.1,0-0.1c0,0,0.1,0.1,0,0.1
				c0.1-0.1,0.4-0.2,0.5-0.1l0,0c0.1,0,0.1-0.2,0.2-0.1l0,0c0.2,0,0.5-0.1,0.7,0.1c0-0.2,0.2,0.1,0.3-0.2c0.1,0.1,0.1,0.1,0.3,0.2
				c0.1,0,0.1-0.1,0.1-0.2l0,0.1l0.1-0.1l0.1,0.1l0.1,0c0,0-0.1,0-0.1-0.1c0.1-0.1,0.2,0.1,0.2,0.1l0.2-0.1c0,0,0,0.1-0.1,0.1
				c0.1-0.1,0,0.1,0.1,0c0,0,0-0.1,0-0.1c0.1,0.1,0.2,0.1,0.3,0l0,0.1c0.2,0,0.3-0.1,0.5-0.1c-0.1,0-0.1-0.2,0-0.2l0,0.1
				c0-0.1-0.1,0,0-0.1c0.1,0,0.1,0.1,0,0.2l0.1,0c0,0,0,0.1,0,0.1c0-0.1,0.2,0.1,0.2,0l0,0c0.2,0,0.3-0.1,0.4-0.1
				c0-0.1,0.1-0.1,0.1-0.2c0.1,0,0.2,0.1,0.4,0.1c0.1-0.1,0-0.1,0.1-0.1c0,0.1,0.1,0.1,0.1,0.1c0.2,0,0.2,0,0.4-0.1c0,0-0.1,0,0-0.1
				c0,0,0.1,0,0.1,0.1l0,0c0.2-0.2,0.6,0.2,0.7,0l0,0l0.2-0.1c0.1,0,0,0.1,0,0.1c0.2-0.2,0.3,0,0.5-0.1c0.2,0.3,0.5-0.1,0.7,0.1
				l0-0.1c0-0.1,0.1,0,0.1,0c0,0-0.1-0.1,0-0.1c0.4-0.1,0.8,0,1.2,0c0.1,0,0-0.3,0.2-0.2l0,0.1c0.3-0.2,0.6-0.1,0.9-0.2
				c0,0,0,0.1,0,0.1c0.1,0.1,0.2,0,0.2-0.1c0,0,0,0.1,0.1,0.1c0.1,0,0.1-0.1,0.2-0.1c0,0,0,0,0,0c0,0,0.2,0,0.1-0.1
				c0.1,0,0.2-0.1,0.3,0c0-0.1,0.2,0,0.2-0.1c0,0.2,0.2,0.1,0.3,0c0,0.1,0.1,0,0.1,0.1c0.1,0,0.1-0.1,0.1-0.1c0.2,0.2,0.3-0.2,0.4,0
				c0.2-0.1,0.4-0.2,0.6-0.3c0,0.2-0.2,0.1-0.2,0.2c0.2-0.1,0.3-0.3,0.5-0.3c0.1,0,0,0.1,0,0.1c0.2-0.1,0.4-0.1,0.5-0.2c0,0,0,0,0,0
				c0,0,0.1,0,0.1-0.1l0,0c-0.1-0.1,0.1-0.2,0.1-0.3c0,0.2,0.2,0,0.1,0.3c0,0,0-0.1,0-0.1c0,0,0.1,0,0,0.1c0.1-0.1,0.1-0.1,0.2-0.2
				c0,0,0,0.1,0,0.1c0-0.1,0.1-0.2,0.2-0.1c0,0,0,0,0,0.1c0.2,0,0.2-0.2,0.4-0.2c0,0.2,0.1,0,0.1,0.2l0.1-0.1l-0.1-0.1
				c0.1,0,0.1-0.1,0.2-0.1l0,0.1l0.1-0.1l-0.1,0c0.1-0.1,0-0.2,0.1-0.2c0,0,0.1,0,0.1,0l0,0c0-0.1,0.1-0.1,0.1-0.1c0,0,0,0.1,0,0.2
				c0-0.1,0.2-0.1,0.2-0.2c0,0,0,0.1,0,0.1l0-0.1c0,0,0.1,0,0.1,0.1c0.1,0-0.1-0.2,0.1-0.1c0,0,0,0,0,0c0.1,0,0.2-0.1,0.4-0.1
				c0.1,0.1-0.1,0.1,0,0.2c0.2-0.1,0.3-0.2,0.5-0.3l0,0c0-0.2,0.2,0.1,0.2-0.1c0,0,0,0.1,0,0.1c0.1,0,0.2-0.1,0.4-0.2l0,0.1
				c0.1,0,0.2,0,0.3,0c0-0.1,0.1-0.1,0-0.1c0.3,0.2,0.4-0.3,0.7-0.1c0,0,0,0.1,0,0.1l0.2-0.1c0-0.1,0,0-0.1-0.1c0-0.1,0-0.1,0.1-0.1
				c-0.1,0.1,0,0.1,0.1,0.2c0,0,0-0.1,0-0.1c0.1,0.1,0-0.2,0.1-0.1l0,0c0,0,0.1-0.1,0.1-0.1c0,0.1,0,0.1,0,0.1
				c0.1,0,0.1-0.2,0.2-0.1c0,0-0.1,0-0.1,0.1c0.1,0.1,0.1,0.1,0.2,0.1l0,0l0.1,0l0,0c0-0.3,0.2-0.1,0.2-0.3c-0.1,0.2,0,0.1,0,0.2
				c0,0,0.1,0,0.1,0.1c0-0.1,0.1,0,0.2-0.1c0,0,0.1,0,0.1,0.1c0.1,0,0-0.1,0-0.1c0.1-0.1,0.3,0.1,0.4-0.1c0.1-0.1,0.1-0.2,0.2-0.3
				c0.1,0,0,0.1,0,0.1c0.1,0,0.1,0,0.2-0.1c0,0,0,0.1,0,0.1c0,0,0-0.1,0.1-0.1c0,0,0,0.1,0,0.1c0.1,0,0.1-0.1,0.1-0.2
				c0,0.1,0,0.1,0,0.1c0.1,0,0.2-0.1,0.2-0.2l-0.1,0c0,0,0,0.1,0,0.1c0,0.1-0.1,0-0.1,0l0,0c-0.1-0.2-0.2,0.1-0.3,0.1l0-0.2
				l-0.1,0.1c0,0-0.1-0.1,0-0.1c-0.1,0,0,0.1-0.1,0c0,0,0,0,0,0l-0.1,0.1c0,0,0-0.1,0-0.1c-0.1,0-0.2,0.2-0.2,0.1l0,0
				c-0.1,0.1,0,0.1-0.1,0.3l-0.2-0.2l0,0.1c0,0-0.1,0-0.1,0c0,0.1,0,0,0,0.1c-0.1-0.1-0.2,0.1-0.3,0c0,0.1,0.1,0,0,0.1
				c-0.1-0.2-0.1,0.1-0.2,0c0-0.1,0.1-0.1,0-0.1c0,0.2-0.2,0-0.2,0.1c0,0.1-0.1,0.1-0.2,0.2c0,0-0.2,0-0.3,0l0,0
				c0,0.1-0.1,0.1-0.2,0.2c0-0.1,0-0.1,0-0.2l-0.1,0c0,0,0,0.1-0.1,0.1l0-0.1c-0.1,0-0.2,0.2-0.3,0.1c0,0.1,0.2,0.2,0.1,0.3
				c0,0,0-0.1,0-0.2c0,0,0,0-0.1,0l0-0.1c-0.1,0,0,0.1-0.1,0.1c0-0.1,0,0-0.1-0.1c0,0,0,0,0.1,0c-0.1,0-0.1,0-0.2-0.1
				c0,0,0,0.1,0,0.1c-0.1,0-0.1-0.1-0.1-0.1c0,0.1-0.1,0-0.1,0.1c0,0,0,0-0.1-0.1c0,0.1-0.2,0.1-0.1,0.2l0,0l0,0l0,0l0,0
				c-0.1,0.1-0.3,0-0.5,0.1l0,0c-0.1,0.1-0.2,0.1-0.2,0.2c0,0-0.1,0-0.1-0.1c-0.1,0-0.1,0.1-0.2,0.1c0.1-0.1,0,0,0.1-0.1
				c-0.1,0-0.1-0.1-0.2,0.1c0-0.1-0.1-0.1-0.1-0.1l0.1,0c0,0-0.1,0-0.1,0l0-0.1c-0.2-0.1-0.3,0.3-0.5,0.1c0,0.1,0.1,0,0.1,0.1
				c-0.1,0-0.2-0.1-0.2-0.1c-0.1,0-0.1,0.2-0.2,0.2c0,0,0.1,0.1,0,0.2c-0.1,0-0.1-0.1-0.1-0.2c0,0,0,0,0,0c0,0,0.1,0,0-0.1l0,0
				c-0.1,0-0.2,0-0.2-0.1c-0.1,0.1,0,0.1,0,0.1c-0.1,0-0.2,0-0.3,0c0,0,0.1,0.1,0,0.1c-0.2,0-0.1,0.1-0.2,0.1c-0.1,0,0-0.2-0.1-0.1
				c-0.1,0,0-0.1,0-0.1c-0.1,0.1-0.2,0-0.3,0l0,0c0,0-0.1,0-0.1,0l0,0.1c0,0-0.1,0-0.1,0c0,0.1,0.1,0.1,0,0.2c-0.1,0-0.1,0.1-0.2,0
				c0.1,0,0-0.1,0.1-0.1c0,0,0,0-0.1,0c0,0,0,0,0,0c-0.1-0.1,0,0.1-0.2,0.2c0-0.1-0.1-0.1-0.1-0.1c0.1,0,0,0.1,0,0.2
				c-0.1,0-0.1,0.1-0.1,0.1l0.1,0c0,0.1,0,0.1-0.1,0.1c0,0,0,0,0-0.1c0,0.1-0.2-0.1-0.2,0c-0.1,0,0-0.1-0.1-0.1
				c-0.1,0.1-0.1-0.1-0.2,0c0,0.1,0,0.1,0,0.2l0.2-0.1l-0.1,0.1c0.1,0,0.1-0.1,0.1-0.1c0,0.1,0,0.1,0,0.1c-0.1-0.1-0.1,0.1-0.2,0
				l0-0.2c-0.1-0.1-0.2,0.1-0.4,0.1l0.1,0c0,0.1-0.1,0-0.1,0.1c0-0.1,0-0.1-0.1-0.1c0,0.1-0.1,0-0.1,0.2l-0.1-0.1
				c-0.1,0-0.1,0.2-0.3,0.2c0-0.1,0-0.1,0-0.2c0,0-0.1,0-0.1,0c0,0-0.1,0.1-0.2,0.1c0,0,0,0.1-0.1,0.1c0,0,0,0,0,0
				c0,0-0.1,0.1,0,0.1c-0.2-0.2-0.4,0.1-0.5-0.1c-0.1,0-0.2,0.1-0.3,0.1c0,0,0,0,0,0c-0.1,0,0,0.2-0.2,0.2c-0.1-0.1,0.1-0.1,0-0.1
				c-0.1-0.2-0.2,0.1-0.3-0.1l0,0c-0.1-0.1-0.2,0.1-0.3,0.1c0,0,0,0,0,0c-0.1,0.1-0.2,0.2-0.3,0.2c0-0.1,0-0.1,0-0.1
				c0,0,0,0.1-0.1,0.2c0,0-0.1-0.1-0.1-0.2l0.1,0c-0.1-0.1-0.1,0-0.2,0l0-0.1c-0.1,0-0.1,0.2-0.3,0.2l0,0c-0.1,0.1-0.1-0.1-0.2,0
				l0-0.1c-0.1,0-0.2,0.2-0.3,0.2c0-0.1,0.2-0.2,0.2-0.2c-0.1,0-0.2,0-0.2,0.1c0,0,0-0.1,0.1,0c-0.1,0.1-0.1,0.2-0.2,0.2
				c0-0.3-0.3,0-0.4-0.2c-0.2,0.1-0.4,0-0.6,0c0.1,0.2-0.1,0,0,0.2c-0.1,0-0.1,0-0.1,0l-0.2-0.1c0-0.1,0-0.1,0-0.1
				c-0.1,0-0.1-0.1-0.1-0.1c0,0.1,0,0.1-0.1,0.1l0.1,0.1c-0.1,0.1-0.2-0.2-0.3,0l0-0.1c-0.1,0.1-0.3,0-0.4,0.2c0,0,0-0.1,0-0.1
				c-0.2,0-0.4,0.2-0.6,0.1l0-0.1c0,0-0.1,0.1-0.1,0.1c0,0,0-0.1,0-0.1c0,0-0.1,0.1-0.1,0.1l0-0.1c-0.2-0.1-0.3,0.2-0.4,0.2
				c0-0.2-0.2-0.2-0.2-0.2l0,0c-0.2,0-0.4,0.2-0.6,0.2c-0.1-0.2-0.4,0-0.7-0.1c0,0,0,0.1,0,0.1c-0.1,0-0.1,0.1-0.1,0l0,0
				c0-0.1-0.1-0.1-0.2-0.1l0,0.2c-0.2-0.3-0.5,0.1-0.7-0.1c0,0-0.1,0.1-0.2,0.1l0-0.1c-0.1,0-0.2,0-0.4,0l0-0.1
				c-0.1,0-0.1,0.3-0.2,0.3l0-0.1c-0.2,0-0.3-0.1-0.5,0c0,0,0-0.1,0-0.1c-0.1,0-0.3-0.1-0.3,0.1c0-0.1-0.2,0-0.3,0.1l0-0.1
				c-0.1,0.1-0.1,0.2-0.2,0.2c0,0,0-0.1,0-0.1c-0.1-0.1-0.1,0.1-0.2,0l0-0.1c-0.1,0-0.1,0-0.1,0.1c-0.1,0-0.2,0-0.2-0.1
				c0,0.1-0.1,0.1-0.1,0.1c0,0,0-0.1,0-0.1c-0.1-0.1-0.2,0.1-0.3,0c0,0,0,0,0-0.1c0.1,0,0.2,0,0.2,0c0-0.1-0.1-0.1,0-0.2
				c-0.1,0.1-0.2,0.2-0.3,0.2c0,0,0,0,0,0l0,0c0,0,0,0-0.1,0c0,0,0,0-0.1,0c0-0.1-0.1,0-0.2,0c0,0.1-0.1,0.1,0,0.2c0,0,0,0,0,0
				c0,0,0,0,0,0l0,0c0,0,0.1,0,0.1,0c0,0.1-0.1,0.1-0.1,0c0,0.1-0.1,0.1-0.1,0.2c-0.1-0.1-0.2-0.2-0.2-0.3c-0.1,0.1-0.3,0-0.4,0.2
				c0,0,0-0.1-0.1-0.1c0,0,0.1,0,0.1,0c-0.1,0-0.2,0-0.3,0.1c-0.1-0.1,0.1-0.1-0.1-0.1l0,0c-0.3-0.2-0.5,0.3-0.8,0c0,0,0,0,0,0
				c-0.3-0.1-0.7,0.1-1.1-0.1c-0.1,0-0.1,0-0.2,0.1l0-0.1l-0.1,0.1c-0.1,0.1-0.2-0.3-0.4-0.1l0,0.1c-0.1,0-0.2,0-0.2-0.1
				c0,0,0,0.1,0,0l0-0.1l-0.2,0.1c-0.1,0,0-0.2-0.1-0.2c-0.1,0-0.2,0.2-0.2,0.2c0,0,0.1,0,0.1,0.1l-0.1,0c0,0.2-0.1,0.3,0.1,0.5
				l0.1-0.1l0,0.1l-0.1,0c0,0.1,0.1,0,0.1,0c0,0,0,0.1,0,0.1l0.1-0.2c0,0.1-0.1,0.1,0,0.2c0.1-0.1,0-0.1,0-0.2c0,0.1,0,0.1,0.1,0.1
				c0,0,0,0.1,0,0.1c0.1,0,0.1,0,0.2-0.1c0,0.1,0.2,0,0.2,0.1c0,0,0.1-0.1,0.1-0.1c-0.1,0.2,0.2,0,0.1,0.2c0.1-0.2,0.2-0.1,0.4-0.1
				c0,0,0,0,0,0c0.1,0,0.1,0.1,0.1,0.1c0-0.1,0.1-0.2,0.2-0.2c0.1,0.1-0.1,0.2,0,0.3c0-0.1,0.1-0.1,0.1-0.2c0.1,0.1,0.1,0,0.1,0.2
				c0-0.2,0.1,0,0.1-0.1c0.1,0.1,0,0.2,0.1,0.1C882,414,881.9,414,881.9,414z M884.3,413.8L884.3,413.8
				C884.3,413.8,884.2,413.8,884.3,413.8C884.2,413.8,884.2,413.8,884.3,413.8z M884.5,413.8C884.4,413.8,884.4,413.7,884.5,413.8
				C884.4,413.7,884.4,413.7,884.5,413.8C884.4,413.7,884.4,413.7,884.5,413.8z M884.1,413.1C884.1,413.1,884.1,413.1,884.1,413.1
				C884.1,413.1,884.1,413.1,884.1,413.1L884.1,413.1C884,413.1,884,413.1,884.1,413.1z"/>
			<path fill="#464547" d="M884,413.2C884,413.2,884,413.2,884,413.2C884,413.2,884,413.2,884,413.2L884,413.2L884,413.2z"/>
			<path fill="#464547" d="M901.5,411.1L901.5,411.1C901.5,411.1,901.5,411.1,901.5,411.1C901.5,411.1,901.5,411.1,901.5,411.1z"/>
			<polygon fill="#464547" points="887.2,413.9 887.2,413.9 887.2,413.9 			"/>
			<path fill="#464547" d="M902.6,411.1C902.6,411.1,902.6,411.2,902.6,411.1C902.6,411.2,902.6,411.1,902.6,411.1z"/>
			<path fill="#464547" d="M903.1,411L903.1,411C903.1,411,903.1,411,903.1,411z"/>
			<path fill="#464547" d="M903.4,411C903.4,411,903.4,410.9,903.4,411L903.4,411L903.4,411z"/>
			<path fill="#464547" d="M897.9,412.5C897.9,412.5,897.9,412.5,897.9,412.5C897.9,412.5,897.9,412.5,897.9,412.5z"/>
			<path fill="#464547" d="M899.5,411.9C899.5,411.9,899.5,411.9,899.5,411.9C899.5,411.9,899.5,411.9,899.5,411.9z"/>
			<polygon fill="#464547" points="896.1,413 896.1,413 896.1,413 			"/>
			<path fill="#464547" d="M899.4,412C899.4,412,899.5,412,899.4,412C899.5,411.9,899.4,411.9,899.4,412z"/>
			<path fill="#464547" d="M904.9,410.6L904.9,410.6C904.9,410.6,904.9,410.6,904.9,410.6L904.9,410.6z"/>
			<path fill="#464547" d="M904.9,410.5L904.9,410.5C905,410.5,904.9,410.5,904.9,410.5z"/>
			<path fill="#464547" d="M905,410.5L905,410.5C905,410.5,905,410.5,905,410.5z"/>
			<path fill="#464547" d="M904.5,410.7L904.5,410.7C904.5,410.7,904.5,410.7,904.5,410.7z"/>
			<path fill="#464547" d="M904.3,410.7c0,0,0.1,0,0.1,0l0,0C904.5,410.8,904.3,410.6,904.3,410.7z"/>
			<path fill="#464547" d="M903.6,410.5l0.1,0c0,0-0.1-0.1,0-0.1C903.5,410.3,903.8,410.4,903.6,410.5z"/>
			<path fill="#464547" d="M903.3,410.5C903.3,410.5,903.2,410.5,903.3,410.5C903.2,410.5,903.2,410.5,903.3,410.5z"/>
			<path fill="#464547" d="M900.7,411.2L900.7,411.2C900.6,411.2,900.6,411.2,900.7,411.2z"/>
			<polygon fill="#464547" points="900.3,411.8 900.3,411.8 900.3,411.8 			"/>
			<polygon fill="#464547" points="899.8,411.3 899.8,411.2 899.8,411.3 			"/>
			<path fill="#464547" d="M895.4,412.2l0,0.1C895.5,412.3,895.5,412.1,895.4,412.2z"/>
			<path fill="#464547" d="M893.5,412.6c0-0.1-0.1-0.1-0.1,0C893.4,412.6,893.5,412.6,893.5,412.6z"/>
			<polygon fill="#464547" points="887.7,413 887.7,412.9 887.6,413 			"/>
		</g>
		<path fill="#464547" d="M873.9,445.1l-26.3,0.4l0-1.4c-0.1-6.2,4.9-11.4,11.1-11.4l15.1-0.2L873.9,445.1z"/>
		<path fill="#464547" d="M940.8,444.1l-29.8,0.4l0-1.4c-0.1-6.2,4.9-11.4,11.1-11.4l18.6-0.3L940.8,444.1z"/>
		<path fill="#48484A" d="M920.7,361l-67.4,4.4c-12,0.8-22.4-8.3-23.2-20.4l-0.1-1.5c-1.5-22.5,15.6-41.9,38.1-43.4l29.5-1.9
			c22.5-1.5,41.9,15.6,43.4,38.1l0.1,1.5C941.8,349.9,932.7,360.3,920.7,361z"/>
		<path fill="#58595B" d="M840.8,251.3l0.3-2c12.7,1.7,18.8,9.9,21.7,16.4c3.1,7.1,3.1,13.6,3.1,13.9l-2,0c0-0.1-0.1-6.5-3-13.2
			C857,257.6,850.3,252.5,840.8,251.3z"/>
		<circle fill="#58595B" cx="840.3" cy="250.6" r="2.8"/>
		<path fill="#58595B" d="M902.5,279.3c0-0.1,1.7-6.1,6.4-11.6c6.3-7.3,14.9-10.2,25.5-8.6l0.3-2.2c-14.3-2.1-22.9,3.9-27.6,9.4
			c-5.1,5.9-6.8,12.2-6.9,12.5L902.5,279.3z"/>
		<circle fill="#58595B" cx="936.1" cy="257.8" r="3.1"/>
		<path fill="#6B6C6F" d="M915.2,338.9c16,1.3,27.5-16.3,20.3-31.2c-9-18.5-26.7-31.8-48-33.5c-21.3-1.8-40.9,8.4-52.8,25.2
			c-9.6,13.5-1.2,32.8,14.9,34.1L915.2,338.9z"/>
		<circle fill="#FFFFFF" cx="855.2" cy="292.2" r="12.5"/>
		<circle fill="#282829" cx="854.8" cy="292.9" r="8.8"/>
		<path fill="#464547" d="M869.1,304.5c0.9,0.1,1.6,0.1,2.3,0.1c0.3,0.2,0.6,0.3,0.9,0.5l0.9,0.4c1.2,0.5,2.5,0.8,3.7,0.9
			c1.3,0.1,2.6,0.1,3.8-0.3c0.6-0.1,1.2-0.4,1.8-0.6c0.4,0.1,0.7,0.1,1.1,0.1c0.4,0,0.8,0.1,1.2,0.1c-0.4,0.7-0.9,1.4-1.5,2
			c-0.7,0.2-1.4,0.5-2.2,0.7c-1.5,0.4-3,0.4-4.5,0.3c-1.5-0.1-3-0.5-4.4-1.1l-1-0.5c-0.3-0.2-0.7-0.3-1-0.5
			C869.8,306,869.4,305.3,869.1,304.5z"/>
		<path fill="#464547" d="M885.2,302.3c0.3,0.5,0.6,0.9,0.9,1.2c-0.1,0.2-0.1,0.5-0.1,0.7c0,0.5,0.1,0.9,0.3,1.3
			c0.2,0.4,0.5,0.8,0.9,1.1c0.2,0.2,0.4,0.3,0.6,0.5c0.1,0.4,0.2,0.9,0.2,1.5c-0.5,0.3-1,0.4-1.5,0.6c-0.3-0.2-0.6-0.4-0.9-0.7
			c-0.6-0.5-1.1-1.1-1.5-1.9c-0.4-0.7-0.5-1.6-0.5-2.4c0-0.2,0-0.4,0-0.6c0-0.2,0.1-0.4,0.1-0.6
			C884.2,302.6,884.6,302.3,885.2,302.3z"/>
		<path fill="#464547" d="M873.4,295.4c-0.2,0.3-0.4,0.7-0.6,1c-0.2,0.3-0.3,0.6-0.4,0.9c-0.1,0.3,0,0.7-0.3,0.9
			c-0.1,0.1-0.3,0.2-0.5,0.3c-0.2,0.1-0.5,0.2-0.8,0.2l-0.2-0.1c-0.3-0.3-0.4-0.5-0.5-0.8c-0.1-0.3-0.1-0.5,0-0.7
			c0-0.2,0.2-0.4,0.3-0.6l0.6-0.4c0.2-0.1,0.4-0.3,0.5-0.4c0.2-0.1,0.4-0.2,0.6-0.3c0.4-0.2,0.8-0.3,1.2-0.3L873.4,295.4z"/>
		<path fill="#464547" d="M876.7,296c0.4,0,0.8,0.2,1.1,0.3c0.4,0.2,0.7,0.4,1,0.7c0.3,0.3,0.8,0.5,0.8,1c0,0.2,0,0.4-0.1,0.7
			c-0.1,0.2-0.3,0.5-0.6,0.7l-0.2,0c-0.4-0.1-0.6-0.2-0.8-0.3c-0.2-0.1-0.3-0.2-0.5-0.3c-0.1-0.1-0.2-0.2-0.2-0.4c0-0.2,0-0.3,0-0.5
			c0-0.1-0.1-0.3-0.1-0.4c0-0.1-0.1-0.3-0.1-0.5c-0.1-0.3-0.2-0.6-0.4-0.9L876.7,296z"/>
		<path fill="#464547" d="M867.7,293.2c0.6-6.9-4.6-12.9-11.4-13.5c-6.9-0.6-12.9,4.6-13.5,11.4L867.7,293.2z"/>
		<circle fill="#FFFFFF" cx="904.6" cy="297" r="13.3"/>
		<circle fill="#282829" cx="904.5" cy="298.5" r="8.8"/>
		<path fill="#464547" d="M917.9,298.1c0.6-7.3-4.8-13.7-12.1-14.3c-7.3-0.6-13.7,4.8-14.3,12.1L917.9,298.1z"/>
		<g>
			<circle fill="#464547" cx="922.1" cy="309.6" r="1.3"/>
			<circle fill="#464547" cx="924.2" cy="313" r="1.3"/>
			<circle fill="#464547" cx="920.4" cy="313.7" r="1.3"/>
		</g>
		<g>
			<circle fill="#464547" cx="839.8" cy="302.3" r="1.3"/>
			<circle fill="#464547" cx="841.9" cy="305.8" r="1.3"/>
			<circle fill="#464547" cx="838.1" cy="306.4" r="1.3"/>
		</g>
		<g>
			<path fill="#6B6C6F" d="M867.8,361.2c0,0,0.1,0,0.2,0C867.9,361.1,867.7,361.2,867.8,361.2z"/>
			<polygon fill="#6B6C6F" points="867.4,360.7 867.4,360.7 867.3,360.6 			"/>
			<path fill="#6B6C6F" d="M867.3,360.1c-0.2,0.1,0.1,0.2,0,0.3l-0.1,0l0.2,0C867.4,360.3,867.2,360.2,867.3,360.1z"/>
			<path fill="#6B6C6F" d="M867.8,359.7C867.7,359.7,867.7,359.6,867.8,359.7C867.7,359.7,867.7,359.7,867.8,359.7
				C867.8,359.7,867.8,359.7,867.8,359.7z"/>
			<path fill="#6B6C6F" d="M867.8,359.7C867.8,359.8,867.8,359.7,867.8,359.7L867.8,359.7z"/>
			<path fill="#6B6C6F" d="M867.7,359.5L867.7,359.5c0.2,0,0.2-0.1,0.2,0C867.8,359.4,867.7,359.4,867.7,359.5z"/>
			<path fill="#6B6C6F" d="M867.5,359.4L867.5,359.4C867.5,359.5,867.5,359.4,867.5,359.4z"/>
			<path fill="#6B6C6F" d="M867.6,359.5L867.6,359.5C867.5,359.5,867.4,359.5,867.6,359.5C867.5,359.5,867.5,359.5,867.6,359.5z"/>
			<path fill="#6B6C6F" d="M867.6,359.6c0,0.1-0.1,0.1-0.2,0.1C867.5,359.8,867.6,359.7,867.6,359.6z"/>
			<path fill="#6B6C6F" d="M867,360.2L867,360.2l0,0.1C867,360.2,867.1,360.1,867,360.2z"/>
			<path fill="#6B6C6F" d="M867.7,358.9c-0.1,0-0.1,0.1-0.2,0.1l0.1,0C867.6,359,867.6,359,867.7,358.9z"/>
			<path fill="#6B6C6F" d="M867.5,359l-0.1-0.1C867.4,359,867.5,359,867.5,359z"/>
			<polygon fill="#6B6C6F" points="867.2,359.5 867.4,359.6 867.2,359.5 			"/>
			<polygon fill="#6B6C6F" points="867.7,358.6 867.8,358.6 867.6,358.6 			"/>
			<path fill="#6B6C6F" d="M867.6,358.4c0.1,0,0.2-0.1,0.2-0.1c0-0.1-0.1-0.1-0.2-0.1C867.7,358.2,867.7,358.3,867.6,358.4z"/>
			<path fill="#6B6C6F" d="M867.5,358.2c0,0,0.1,0,0.1,0C867.6,358.2,867.6,358.2,867.5,358.2z"/>
			<path fill="#6B6C6F" d="M867.4,358.8c0,0,0.1-0.1,0.1-0.1L867.4,358.8C867.4,358.8,867.4,358.8,867.4,358.8z"/>
			<path fill="#6B6C6F" d="M867.4,358.8L867.4,358.8C867.4,358.7,867.4,358.7,867.4,358.8C867.4,358.7,867.4,358.7,867.4,358.8z"/>
			<path fill="#6B6C6F" d="M867.4,358.8L867.4,358.8C867.4,358.8,867.4,358.8,867.4,358.8z"/>
			<path fill="#6B6C6F" d="M867.3,359.2c-0.1,0-0.2-0.1-0.3,0C867.1,359.3,867.2,359.2,867.3,359.2z"/>
			<path fill="#6B6C6F" d="M867.2,358.9l0,0.1c0,0,0.1,0,0.1,0L867.2,358.9z"/>
			<polygon fill="#6B6C6F" points="867.2,358.9 867.2,358.9 867.2,358.9 			"/>
			<path fill="#6B6C6F" d="M867.4,358.4c-0.1,0-0.1-0.1-0.1-0.1c0,0.1,0,0.1,0,0.2C867.3,358.4,867.4,358.4,867.4,358.4z"/>
			<path fill="#6B6C6F" d="M867.4,358.6L867.4,358.6C867.4,358.6,867.4,358.6,867.4,358.6z"/>
			<path fill="#6B6C6F" d="M867.2,357.8C867.2,357.8,867.2,357.8,867.2,357.8L867.2,357.8L867.2,357.8z"/>
			<path fill="#6B6C6F" d="M867.3,358.4C867.2,358.5,867.3,358.5,867.3,358.4C867.3,358.5,867.3,358.5,867.3,358.4
				C867.3,358.4,867.3,358.4,867.3,358.4z"/>
			<path fill="#6B6C6F" d="M867.4,358.1C867.4,358.1,867.4,358.1,867.4,358.1C867.4,358.1,867.5,358,867.4,358.1z"/>
			<path fill="#6B6C6F" d="M867.4,358.5L867.4,358.5C867.5,358.5,867.4,358.5,867.4,358.5z"/>
			<path fill="#6B6C6F" d="M867.4,358.5C867.4,358.5,867.4,358.5,867.4,358.5C867.3,358.5,867.4,358.5,867.4,358.5
				C867.4,358.6,867.4,358.5,867.4,358.5z"/>
			<path fill="#6B6C6F" d="M866.3,357.9c0.1,0,0.3,0,0.1,0.2c0.1,0.1,0.6-0.1,0.8-0.3c-0.1,0-0.1,0-0.2,0c-0.1,0.1-0.1,0.2-0.3,0.2
				c-0.1-0.1,0-0.1,0.1-0.2c-0.2,0.1-0.3-0.1-0.5,0l0.1,0.1C866.4,357.9,866.3,357.8,866.3,357.9z"/>
			<path fill="#6B6C6F" d="M867.2,358L867.2,358c0,0,0.1-0.1,0.2-0.1c-0.1,0-0.1,0-0.2,0L867.2,358L867.2,358z"/>
			<path fill="#6B6C6F" d="M867.3,358.2c-0.2,0-0.2-0.1-0.4,0c0,0.1,0.1,0,0.2,0.1C867,358.1,867.2,358.3,867.3,358.2
				C867.3,358.2,867.3,358.2,867.3,358.2C867.3,358.2,867.3,358.2,867.3,358.2L867.3,358.2L867.3,358.2L867.3,358.2
				C867.3,358.2,867.3,358.2,867.3,358.2C867.3,358.2,867.3,358.2,867.3,358.2C867.3,358.2,867.3,358.2,867.3,358.2
				C867.3,358.1,867.3,358.1,867.3,358.2L867.3,358.2L867.3,358.2l0-0.2C867.2,358,867.2,358.1,867.3,358.2z"/>
			<path fill="#6B6C6F" d="M866.7,359.3C866.7,359.2,866.7,359.2,866.7,359.3C866.7,359.2,866.7,359.2,866.7,359.3z"/>
			<path fill="#6B6C6F" d="M866.7,359.2C866.8,359.2,866.8,359.2,866.7,359.2C866.8,359.3,866.7,359.2,866.7,359.2
				c0,0.1,0.1,0.1,0.1,0l0,0c0-0.1,0.2-0.2,0.2-0.2C867,359,866.9,359.1,866.7,359.2z"/>
			<path fill="#6B6C6F" d="M867,358.7l-0.1-0.1l-0.1,0.1l0.1,0C866.8,358.7,866.9,358.7,867,358.7z"/>
			<polygon fill="#6B6C6F" points="867.3,357.7 867.5,357.7 867.2,357.7 			"/>
			<polygon fill="#6B6C6F" points="867.3,357.5 867.4,357.5 867.3,357.5 			"/>
			<path fill="#6B6C6F" d="M864.3,346.9L864.3,346.9C864.3,346.9,864.3,346.9,864.3,346.9z"/>
			<path fill="#6B6C6F" d="M864.4,347.3L864.4,347.3C864.4,347.2,864.4,347.2,864.4,347.3z"/>
			<path fill="#6B6C6F" d="M866.7,352.8c0.1-0.1,0.3-0.2,0.2-0.2l-0.1,0.1C866.7,352.7,866.7,352.8,866.7,352.8z"/>
			<path fill="#6B6C6F" d="M865.4,349.7C865.4,349.7,865.4,349.8,865.4,349.7c0,0,0.1,0,0.1,0C865.5,349.8,865.4,349.8,865.4,349.7z
				"/>
			<path fill="#6B6C6F" d="M864.8,349.8l0.1-0.1C864.8,349.7,864.8,349.8,864.8,349.8z"/>
			<path fill="#6B6C6F" d="M864,345.2l-0.2,0C863.9,345.2,864,345.2,864,345.2z"/>
			<path fill="#6B6C6F" d="M867,355.6c0.1-0.1,0.1-0.1,0.1-0.2C866.9,355.5,866.8,355.6,867,355.6z"/>
			<path fill="#6B6C6F" d="M866,346.8C865.9,346.8,865.9,346.8,866,346.8C865.9,346.8,865.9,346.8,866,346.8z"/>
			<path fill="#6B6C6F" d="M867,355.3C867,355.3,867,355.3,867,355.3c0,0.1,0,0.1,0,0.2C867.1,355.4,867.1,355.3,867,355.3z"/>
			<path fill="#6B6C6F" d="M863.8,338.8C863.8,338.8,863.8,338.7,863.8,338.8C863.8,338.7,863.8,338.8,863.8,338.8z"/>
			<path fill="#6B6C6F" d="M865.2,336.8C865.3,336.8,865.3,336.8,865.2,336.8C865.3,336.8,865.3,336.8,865.2,336.8z"/>
			<path fill="#6B6C6F" d="M867.2,356.8C867.2,356.8,867.2,356.8,867.2,356.8L867.2,356.8z"/>
			<path fill="#6B6C6F" d="M866.7,357.1C866.6,357.1,866.6,357.1,866.7,357.1C866.6,357.1,866.6,357.1,866.7,357.1z"/>
			<path fill="#6B6C6F" d="M866,355.1L866,355.1C866,355.1,866,355.1,866,355.1z"/>
			<path fill="#6B6C6F" d="M867.2,356.8C867.2,356.8,867.2,356.8,867.2,356.8C867.2,356.8,867.2,356.8,867.2,356.8z"/>
			<path fill="#6B6C6F" d="M867.2,356.8C867.2,356.8,867.2,356.8,867.2,356.8C867.3,356.8,867.3,356.8,867.2,356.8z"/>
			<path fill="#6B6C6F" d="M867.2,356.7C867.2,356.7,867.2,356.7,867.2,356.7C867.2,356.8,867.2,356.8,867.2,356.7
				C867.2,356.7,867.2,356.7,867.2,356.7z"/>
			<path fill="#6B6C6F" d="M864.4,342.1C864.4,342.1,864.4,342.1,864.4,342.1C864.3,342.1,864.3,342.1,864.4,342.1z"/>
			<polygon fill="#6B6C6F" points="865,352.1 865,352.1 865,352.1 			"/>
			<path fill="#6B6C6F" d="M864.8,352c0.2,0,0.2,0.1,0.1,0.1l0.4-0.1L864.8,352z"/>
			<path fill="#6B6C6F" d="M864.2,346.2l-0.1,0.1c-0.2-0.1-0.2-0.2-0.3-0.1c0.5-0.1,0.1,0.4,0.6,0.3l-0.1,0.1c0,0,0,0,0,0
				c-0.2,0.2,0.4,0,0.3,0.2c0,0.1-0.1,0.1-0.2,0.1l0.1,0.1c0,0-0.1,0-0.1,0l0.1,0.2l0,0c0.1,0,0.2,0.1,0.3,0.1c-0.1,0.1-0.1,0-0.1,0
				l0.1,0.1c-0.1,0.1-0.2,0-0.2-0.1c-0.5,0.2,0.1,0.1-0.1,0.4l-0.1-0.1c-0.3,0.1-0.2,0.2-0.3,0.3c0.1,0,0.4-0.3,0.5-0.2
				c0,0,0,0.1,0.1,0.1c-0.2,0-0.1,0.1-0.1,0.2l-0.2,0c0.1,0.1,0.2,0,0.3,0.1c0,0.1-0.2,0.2-0.3,0.2c0,0.2,0.3-0.2,0.3,0
				c-0.1,0.1,0,0.2,0.2,0.4c-0.1,0.1-0.1,0-0.2,0.1l0.2,0c0,0-0.1,0-0.1,0c0.1,0.1,0.2,0,0.3,0.1c0.2,0-0.3,0.3,0,0.4
				c-0.1,0-0.1,0-0.2,0c0.2,0.1,0.1,0.1,0.4,0.2l-0.1,0.2c0.2-0.1,0.4,0,0.5,0c0.1,0,0.1-0.1,0.2-0.1l0.1,0.1c0,0-0.1,0-0.2,0
				c0,0,0,0,0.1,0c-0.1,0.1-0.2,0.1-0.3,0.1c0,0,0.1-0.1,0.1-0.1c-0.1,0-0.3,0-0.4,0c0,0,0.1,0,0.1,0c0,0-0.1,0-0.1,0c0,0,0,0,0.1,0
				l-0.2,0.1l0.1,0l-0.1,0.2c0.3,0.1,0.6,0.2,0.8,0.4c-0.2,0-0.3,0-0.5,0.1c0.2-0.1-0.1-0.2-0.1-0.3c0,0.1-0.1,0.1-0.2,0.1l0.2,0.2
				c-0.2,0-0.1,0.1-0.2,0.2c0.3-0.1,0.3,0.1,0.4,0.2c-0.1,0-0.2,0-0.2-0.1c-0.3,0.2,0.4,0.1,0.2,0.2c0,0,0,0-0.1,0
				c0.1,0,0,0.2-0.1,0.2l0,0c0,0.2,0.1,0.6,0.4,0.5c0,0-0.4,0.1-0.4,0.1l1,0.1c-0.3,0-0.9,0.3-1,0.1c0,0.1-0.1,0.1,0,0.2
				c0,0,0.4-0.2,0.4-0.1c-0.3,0.2-0.1,0.1-0.4,0.3c0-0.1,0.5-0.1,0.5,0c-0.1,0-0.4,0.1-0.4,0.1l0.4,0.1c-0.1,0-0.3,0.1-0.4,0.1
				c0.1,0,0,0.2,0.1,0.2l0.1-0.1c0,0.2,0.6,0.1,0.6,0.3c-0.1,0-0.5,0.1-0.5,0.2c0.2,0,1,0,1.2,0.1l-0.1,0.1l0.1,0.1
				c-0.3,0-1-0.1-1.2-0.2c-0.1,0.1-0.1,0.1-0.1,0.2c-0.1,0.1-0.2,0-0.2-0.1l0,0.3c0.2-0.1,0.3,0.1,0.5,0.1l-0.3-0.2
				c0.2-0.1,0.7,0,0.7,0.2c-0.1,0.1-0.4,0.1-0.5,0.1c0.1,0,0.2,0.1,0.1,0.2l-0.1,0c-0.1,0.1,0.3,0.1,0.1,0.3c0,0-0.3,0.2-0.1,0.2
				c0.3-0.1,1.1-0.3,1.3-0.3c0,0-0.2,0.3-0.4,0.4c-0.2,0.1-0.5,0-0.7,0.1c0.1,0,0.1,0,0.2,0c0,0.1-0.2,0-0.2,0.1c0.2,0,0,0.2,0.2,0
				c0.1,0.1,0,0.1,0,0.2c0.1-0.1,0.5,0,0.6,0.1c-0.1,0-0.1,0-0.2,0.1c0,0.2-0.1,0.3-0.1,0.5c-0.1,0-0.1,0.1-0.2,0.1
				c0,0,0.1,0,0.1,0.1c-0.2,0.2,0-0.1-0.3,0c0.1,0,0.2,0.1,0.3,0.2c0.2-0.1,0-0.2-0.1-0.3c0.3-0.1,0.6,0,0.8,0.1
				c0.1,0.1-0.2,0.1-0.1,0.1c0,0.3,0.5,0.1,0.4,0.4c-0.2,0.1-0.4,0.1-0.5,0.2c-0.1-0.1,0.1-0.2,0.1-0.3l-0.1,0.1
				c-0.1,0-0.1-0.1-0.1-0.2c-0.2,0.1,0,0.5-0.1,0.7c0.1,0,0.1,0.1,0.2,0l0-0.1c0.1-0.1,0.2,0.1,0.3,0c0.1,0.1,0.3,0.1,0.2,0.3
				l-0.2,0.1c0.1,0,0.1-0.1,0-0.1c0.1,0-0.3,0.3,0,0.3l0.1-0.1c0.1,0.1,0.4,0.1,0.3,0.2c0.2-0.1,0,0,0.2-0.2c-0.3,0.2,0-0.3-0.3-0.1
				c0.3-0.2,0.1-0.2,0.3-0.3c-0.1,0-0.1,0.1-0.1,0c0,0,0,0-0.1,0l0,0l0,0c0,0,0,0,0,0c0,0-0.1,0.1-0.1,0.1c-0.2,0-0.2-0.2-0.3-0.2
				c0-0.1,0.1,0,0.2,0l-0.1,0c0.2,0,0.2-0.2,0.3-0.1l0-0.1c0.1-0.1,0.1-0.2,0-0.2c0-0.1-0.2-0.1-0.1-0.1l-0.1-0.2l0,0
				c0-0.2-0.3-0.3-0.1-0.6c0-0.1-0.1-0.1-0.1-0.2l0.1-0.1c-0.1-0.1,0.1-0.3,0-0.3c0.4-0.2,0-0.4,0.1-0.6l-0.2,0
				c0-0.1-0.1-0.2-0.1-0.3l-0.2,0c-0.1-0.1,0.1-0.3,0-0.5c0.1,0,0.1,0,0,0.1c0.3-0.3-0.3-0.4-0.1-0.6c-0.1,0,0-0.1,0-0.1
				c0,0,0,0,0,0c0,0,0,0,0,0c0,0,0.1-0.1,0.1-0.1c0,0-0.1,0.1-0.1,0.1c0,0,0-0.1-0.1-0.1l0.2-0.1c0,0,0,0,0,0c0.1-0.1-0.1,0-0.2,0
				c0,0-0.1,0-0.1,0c0.3-0.1-0.1-0.1,0.2-0.2c-0.1,0-0.1-0.2-0.4-0.2c0,0,0.1,0,0.1,0c0-0.1,0.1-0.1,0-0.2l0.2-0.1L866,352
				c0.1-0.1,0.2-0.2,0.4-0.1c-0.3-0.1-0.1-0.1-0.4-0.2l0.1,0c0-0.1-0.2-0.1-0.1-0.2c0.2-0.2,0-0.6,0.2-1c-0.4,0.1,0.2-0.2-0.1-0.1
				c0.1,0,0.1-0.1,0.2-0.1c-0.1-0.1,0.1-0.3-0.1-0.3c0.1,0,0.1,0,0.2,0c0,0-0.1,0,0-0.1c0.1,0,0.1,0,0.1,0c0-0.2-0.3-0.1-0.6-0.1
				c0.1-0.1,0.1-0.1-0.1-0.2c0.1,0,0.2-0.1,0.2,0c0-0.1,0.1-0.4-0.1-0.3c0.1,0,0-0.1,0-0.1c0-0.1,0-0.1,0-0.3l0,0
				c-0.3,0-0.1-0.1-0.1-0.2l0,0c0.2-0.3-0.1-0.1,0.1-0.4l-0.2,0c-0.4,0,0.2-0.2,0-0.4l-0.1,0.1c-0.1-0.1,0.5-0.3,0.5-0.4
				c0,0,0.1,0,0.1,0c0.2-0.2-0.2,0-0.3-0.1c0.1,0,0.3,0,0.3-0.1c0.1-0.1-0.4-0.2-0.2-0.4c-0.1,0-0.2,0.1-0.3,0c0-0.1,0.3-0.3,0-0.4
				c0,0,0,0,0.1,0c-0.1-0.1-0.1-0.2-0.3-0.3c0.6-0.2-0.3-0.4,0.2-0.5l0-0.2l0.1,0c0-0.2-0.1-0.2-0.2-0.2c0,0,0.1,0,0.1,0
				c0.1-0.2,0.1-0.3-0.2-0.4l0.2,0c-0.1,0,0.2-0.4,0-0.6c0,0,0.1,0,0.1,0c-0.2-0.2,0.4-0.7-0.2-0.7l-0.2-0.1c0,0.2-0.3,0-0.4,0.1
				c0-0.1,0.2-0.2,0.2-0.1l0,0c0.3,0,0.1-0.3,0.3-0.3c0-0.4,0.1-0.9,0.1-1.3l-0.3,0.1l0-0.1c0.1,0,0.2-0.1,0.2,0
				c0.1-0.1-0.1-0.1-0.2-0.1c0.1-0.2,0.3,0,0.3,0l0-0.1l0,0c-0.1-0.1-0.2,0-0.2-0.2c0-0.1,0.2-0.1,0.2-0.1c0,0,0,0,0,0l0-0.2
				l-0.2,0.1c-0.1-0.1,0-0.2-0.2-0.1c0.3-0.2,0.1-0.7,0.2-0.8c-0.2-0.1-0.2-0.2-0.1-0.3c0,0-0.3,0.1-0.2,0c0.5,0,0.2-0.2,0.5-0.4
				c-0.2,0.1-0.1-0.3-0.4-0.2c0-0.1,0.2,0,0.3-0.1c-0.2-0.2,0.1-0.5,0-0.8c-0.1,0-0.2,0.1-0.2,0l0.3-0.2c0-0.1-0.4,0-0.1-0.1
				c-0.1,0-0.1,0-0.2,0c0.3-0.6-0.3-1.1,0.3-1.7c-0.1,0.1-0.1,0-0.1,0c0,0-0.2,0-0.2,0l0.2-0.3c-0.2,0,0-0.2-0.2-0.3l0,0.1
				c-0.3-0.1-0.6,0.2-0.9,0.2c0.3,0.1-0.4,0.3,0,0.5c-0.1,0-0.1,0-0.2,0c0.1,0,0.2,0.1,0.1,0.2l0,0c0,0.3-0.1,0.4-0.2,0.8l0.2,0
				c0,0.1-0.1,0.1-0.1,0.1c0.3,0.1,0-0.2,0.3-0.2c-0.3,0.1,0,0.5-0.4,0.6c0,0.1,0.2-0.1,0.2,0.1l-0.1,0l0.1,0c0,0.1-0.1,0.1-0.2,0.1
				c0,0,0,0,0-0.1c-0.1,0.1,0.1,0.3,0,0.3l0.1-0.1c0.1,0.3,0,0.7,0.2,0.9l0.1,0c0.2,0.2-0.1,0.2,0,0.4l0,0c0.1,0,0.1,0.1,0.1,0.2
				c-0.1,0-0.2,0.1-0.3,0.1c0.2,0.2,0.1,0.1,0.4,0.2l-0.1,0.1c0.1,0,0.2,0,0.2,0.2c-0.1-0.1-0.2,0.1-0.3,0c-0.3,0.3,0.3,0.3-0.1,0.5
				c0.4,0.1,0.2-0.2,0.3-0.2c0.1-0.1,0.3,0.1,0.2,0.1c0,0.1-0.5,0.2-0.4,0.4c0,0,0,0,0,0c-0.1,0.1,0.1,0.1,0,0.2
				c0.2,0,0,0.1,0.3,0.1l-0.1-0.2c0.1,0.1,0.4,0.2,0.3,0.3c-0.1,0-0.1,0-0.2-0.1c-0.1,0.1,0.1,0.1,0,0.2c-0.3,0-0.1-0.2-0.3-0.3
				c-0.1,0.1,0.2,0.2-0.1,0.2c0.4,0,0,0.2,0.3,0.3l-0.2,0c0,0,0.1,0.1,0.1,0.1l-0.2,0c0.2,0.1-0.1,0.2,0,0.3c0-0.2,0.2-0.1,0.3-0.2
				c0.2,0.2-0.4,0.2-0.3,0.5c0,0,0.1-0.2,0.2-0.1c0,0.1-0.1,0.1-0.2,0.2c0,0.2,0.2-0.1,0.3,0c-0.2,0.1,0.1,0.1,0.2,0.2l-0.2,0
				c-0.1,0.2,0.4,0,0.2,0.2l-0.2-0.1l0.1,0.1l-0.2,0c0.2,0.1,0.1,0.1,0.1,0.3c0.1,0,0.3,0,0.3,0.1c-0.1,0.1-0.2,0-0.1,0.1
				c-0.1,0-0.2,0-0.1-0.1c-0.1,0-0.1,0-0.2,0c-0.1,0.1,0,0.2,0,0.2c0,0,0,0,0-0.1l0.2,0.2c-0.1,0-0.1,0-0.2,0c0,0,0.1,0.1,0.1,0.1
				c-0.1,0-0.3,0-0.4,0l0.2,0.2c-0.1,0-0.2,0.1-0.2,0.1c-0.1,0.1,0.3,0.2,0.2,0.4c0,0,0.1,0,0.1,0c0,0.1-0.2,0.3,0,0.4l-0.2,0.1
				c0.1,0.1,0.3-0.2,0.4,0c0.1,0.1-0.2,0.1-0.3,0.2c0.1,0.1,0.4,0.1,0.2,0.3C864.2,346.2,864.3,346.2,864.2,346.2z M864.5,347.7
				c0,0-0.2-0.1-0.1-0.1C864.6,347.6,864.5,347.7,864.5,347.7z M865.1,350c-0.1,0,0-0.1,0-0.1C865.1,350,865.1,350,865.1,350z
				 M867,356.3C867,356.3,867,356.3,867,356.3C867.1,356.3,867.1,356.3,867,356.3z M867,356.5C867,356.5,867,356.5,867,356.5
				C867,356.5,867,356.5,867,356.5C867,356.4,866.9,356.5,867,356.5z M865.5,341.6L865.5,341.6C865.4,341.5,865.4,341.5,865.5,341.6
				z"/>
			<path fill="#6B6C6F" d="M864.8,349.8C864.9,349.8,864.9,349.8,864.8,349.8C864.9,349.8,864.9,349.8,864.8,349.8z"/>
			<polygon fill="#6B6C6F" points="864.1,345.2 864.1,345.2 864,345.2 			"/>
			<path fill="#6B6C6F" d="M865.3,354.7C865.3,354.7,865.3,354.6,865.3,354.7C865.3,354.6,865.3,354.6,865.3,354.7z"/>
			<path fill="#6B6C6F" d="M867.4,357.2L867.4,357.2C867.3,357.1,867.3,357.1,867.4,357.2C867.3,357.2,867.4,357.1,867.4,357.2z"/>
			<path fill="#6B6C6F" d="M866.4,358.2C866.5,358.2,866.4,358.2,866.4,358.2l0.1,0C866.5,358.2,866.5,358.1,866.4,358.2z"/>
			<path fill="#6B6C6F" d="M866.8,357.4c-0.1,0-0.1,0.1,0,0.1c0,0,0,0,0,0C867,357.5,866.9,357.4,866.8,357.4z"/>
			<path fill="#6B6C6F" d="M866.8,357.5C866.8,357.6,866.8,357.6,866.8,357.5C866.9,357.6,866.8,357.6,866.8,357.5z"/>
			<path fill="#6B6C6F" d="M867.1,356.7c0,0,0.2,0,0.1,0C867.4,356.6,867,356.5,867.1,356.7z"/>
			<polygon fill="#6B6C6F" points="866.4,357.6 866.5,357.5 866.4,357.5 			"/>
			<path fill="#6B6C6F" d="M866.4,357l0,0.1c0,0,0,0,0.1,0C866.4,357.1,866.5,357,866.4,357z"/>
			<path fill="#6B6C6F" d="M866.4,357.2C866.5,357.2,866.5,357.2,866.4,357.2C866.5,357.2,866.5,357.2,866.4,357.2z"/>
			<polygon fill="#6B6C6F" points="866.3,357.4 866.3,357.4 866.3,357.3 			"/>
			<path fill="#6B6C6F" d="M866.3,356L866.3,356c-0.1-0.1-0.2-0.1-0.1,0C866.2,355.9,866.3,356,866.3,356z"/>
			<path fill="#6B6C6F" d="M865.9,356.4c0,0,0.1-0.1,0.1-0.1L865.9,356.4L865.9,356.4z"/>
			<path fill="#6B6C6F" d="M865.8,356.1c-0.1,0-0.2-0.1-0.2,0C865.7,356.1,865.8,356.2,865.8,356.1z"/>
			<polygon fill="#6B6C6F" points="865.9,354.4 865.9,354.4 866.2,354.3 			"/>
			<path fill="#6B6C6F" d="M864.8,353.1c-0.1,0.1,0.2,0,0.1,0.1c0.1,0,0.1-0.1,0.2-0.1C865,353.1,865.1,353,864.8,353.1z"/>
			<path fill="#6B6C6F" d="M865.1,353.1C865.1,353.2,865.1,353.2,865.1,353.1C865.1,353.2,865.1,353.1,865.1,353.1z"/>
			<polygon fill="#6B6C6F" points="865.4,336.4 865.5,336.3 865.4,336.4 			"/>
			<path fill="#6B6C6F" d="M865.2,336.3l0.2,0L865.2,336.3C865.2,336.2,865.2,336.3,865.2,336.3z"/>
			<path fill="#6B6C6F" d="M864,348L864,348c0.1,0,0.1,0,0.1-0.1L864,348z"/>
			<polygon fill="#6B6C6F" points="864.1,346.9 864.1,346.9 864.3,346.8 			"/>
			<path fill="#6B6C6F" d="M863.8,345.9c0,0,0,0.1,0,0.1C863.8,346,864,345.9,863.8,345.9z"/>
		</g>
	</g>
	<g>
		<ellipse fill="#8A6252" cx="791.3" cy="449.9" rx="82.5" ry="82.7"/>
		<path fill="#7C5849" d="M760.1,403.9c-0.2-1.2-0.1-10.2,0-14.4c0-1.5,0.4-2.9,1.2-4.1l4.1-6.8l0,0c0.6-1.2,2.3-0.7,2.3,0.6v3.9
			c0,0.1,0,0.3-0.1,0.4l-1.4,4.2c-0.4,1.2-0.5,2.6-0.4,3.9l1.8,12.5H760.1z"/>
		<path fill="#7C5849" d="M780.2,377.9c-0.1-0.8-0.1-6.4,0-9.1c0-0.9,0.3-1.8,0.8-2.6l2.6-4.3l0,0c0.4-0.7,1.5-0.5,1.5,0.4v2.4
			c0,0.1,0,0.2,0,0.3l-0.9,2.6c-0.3,0.8-0.3,1.6-0.2,2.4l1.2,7.9H780.2z"/>
		<path fill="#7C5849" d="M803.7,381.6c0.4-0.5,3.4-4.2,4.9-6c0.5-0.6,1.1-1.1,1.6-1.5l3-2.2l0,0c0.5-0.4,0.7,0,0.2,0.6l-1.3,1.6
			c0,0.1-0.1,0.1-0.1,0.2l-1.7,1.5c-0.5,0.4-1,1-1.4,1.5l-3.9,5.4L803.7,381.6z"/>
		<path fill="#7C5849" d="M819.6,394.4c0.9-0.9,8.4-5.6,12-7.9c1.2-0.8,2.7-1.2,4.1-1.3l7.9-0.2l0,0c1.3-0.1,1.9,1.6,0.8,2.3
			l-3.2,2.1c-0.1,0.1-0.2,0.1-0.4,0.2l-4.3,1.1c-1.3,0.3-2.4,0.9-3.4,1.8l-9.4,8.4L819.6,394.4z"/>
		<path fill="#7C5849" d="M778.1,422.6c0.7-0.7,6.6-4.5,9.5-6.2c1-0.6,2.1-1,3.2-1l6.3-0.2l0,0c1-0.1,1.5,1.2,0.6,1.8l-2.5,1.7
			c-0.1,0.1-0.2,0.1-0.3,0.1l-3.4,0.9c-1,0.3-1.9,0.7-2.7,1.4l-7.4,6.6L778.1,422.6z"/>
		<path fill="#7C5849" d="M730.3,418.6c-0.3,1.1-0.8,2.1-1.5,3.1c0.2-0.3,0.4-0.6,0.7-0.9c-0.3,0.5-0.7,0.9-1.1,1.3
			c-0.7,0.7-1.1,1.7-0.3,2.4c0.9,0.8,3.2,0.7,4.3,0.6c2.2-0.2,4.5-0.6,6.5-1.4c1.7-0.6,3.4-1.4,4.7-2.6c1.5-1.4,2.7-3.2,3.3-5.2
			c0.9-3-5.4-2.2-6.8-1.9c-2.2,0.4-4.4,1-6.4,2c-0.5,0.3-1.1,0.6-1.6,0.9C731.4,417.2,730.8,417.8,730.3,418.6L730.3,418.6z"/>
		<path fill="#7C5849" d="M731.1,435c1.2,2.9,2.2,6,2.8,9.1c0.2,1.2,2.2,1.6,3.1,1.7c2,0.3,4.3-0.1,6.2-0.6c2-0.6,4.1-1.3,5.7-2.6
			c0.9-0.7,2.1-1.7,1.8-3c-0.6-3.1-1.6-6.1-2.8-9.1c-1.2-2.9-7-1.7-9.3-1.1c-2,0.6-4.1,1.3-5.7,2.6
			C732.1,432.6,730.6,433.9,731.1,435L731.1,435z"/>
		<path fill="#7C5849" d="M745.5,433.7c1,0.6,2.1,1.3,3.1,1.9c0.8,0.6,1.7,1,2.6,1.1c1,0.3,2.1,0.4,3.1,0.3c1.2,0,2.3-0.3,3.4-0.8
			c1.1-0.3,2-0.8,2.9-1.6c1.4-1.2,2.8-2.8,2.9-4.7c0.1-1.7-0.6-3.5-2.1-4.5c-1-0.6-2.1-1.3-3.1-1.9c-0.8-0.6-1.7-1-2.6-1.1
			c-1-0.3-2.1-0.4-3.1-0.3c-1.2,0-2.3,0.3-3.4,0.8c-1.1,0.3-2,0.8-2.9,1.6c-1.4,1.2-2.8,2.8-2.9,4.7
			C743.4,431,744,432.8,745.5,433.7L745.5,433.7z"/>
		<path fill="#7C5849" d="M730.3,478.3c3.7,7,8.4,13.3,13.9,19.1c2.8,2.9,18-3.3,15.8-5.6c-5.2-5.4-9.4-11.5-13-18
			C745,470,729.2,476.2,730.3,478.3L730.3,478.3z"/>
		<path fill="#7C5849" d="M786.4,449.6c1.7,1.4,3.3,2.8,5,4.2c1.1,0.9,3.1,0.9,4.4,0.9c2.1-0.1,4.6-0.6,6.5-1.4
			c1.3-0.5,7.4-3.4,4.8-5.5c-1.7-1.4-3.3-2.8-5-4.2c-1.1-0.9-3.1-0.9-4.4-0.9c-2.1,0.1-4.6,0.6-6.5,1.4
			C789.8,444.6,783.8,447.4,786.4,449.6L786.4,449.6z"/>
		<g>
			<g>
				<path fill="none" stroke="#BFA89F" stroke-miterlimit="10" d="M775.7,471"/>
			</g>
		</g>
		<g>
			<g>
				<path fill="none" stroke="#BFA89F" stroke-miterlimit="10" d="M789.8,468.1"/>
			</g>
		</g>
		<ellipse fill="#7C5849" cx="725.5" cy="433.3" rx="4.2" ry="4.2"/>
		<ellipse fill="#7C5849" cx="718.8" cy="444.6" rx="4.2" ry="4.2"/>
		<ellipse fill="#7C5849" cx="729.7" cy="444.6" rx="2.6" ry="2.6"/>
		<ellipse fill="#7C5849" cx="771.2" cy="477.1" rx="4.2" ry="4.2"/>
		<ellipse fill="#7C5849" cx="764.5" cy="488.4" rx="4.2" ry="4.2"/>
		<ellipse fill="#7C5849" cx="775.4" cy="488.4" rx="2.6" ry="2.6"/>
	</g>
	<path fill="#AAAFB4" d="M654.8,218.3c4-2.6,8.1-4.6,11.6-5.9c23.9-8.6,53.2,1.9,71.2,18.4c15.8,14.5,11,27.9-9.9,29.8
		c-14.9,1.3-29.2-4.1-44-4.4c-11.1-0.2-31.6,8.8-41,0.5C627.5,243.4,640.7,227.5,654.8,218.3z"/>
	<g>
		
			<linearGradient id="SVGID_1_" gradientUnits="userSpaceOnUse" x1="-2941.803" y1="209.2222" x2="-2702.97" y2="209.2222" gradientTransform="matrix(-0.9998 1.950509e-002 1.950509e-002 0.9998 -2569.9377 12.6857)">
			<stop  offset="0" style="stop-color:#BCBEC0"/>
			<stop  offset="1" style="stop-color:#B1B3B6"/>
		</linearGradient>
		<path fill="url(#SVGID_1_)" d="M140.2,90.9l5.1-2.2c5.1-2.2,6.6-8.6,3-12.8c-4.2-5-1.2-12.7,5.3-13.4l137.6-12
			c26.5-0.5,49.4,16.8,56.9,41.3c14.1,16.7,23.7,37.6,26.5,60.9c7.7,63.6-37.6,121.4-101.2,129.1c-63.6,7.7-121.4-37.6-129.1-101.2
			c-2.8-23.1,1.4-45.4,10.9-64.8L139,105.3C133.5,101.8,134.1,93.5,140.2,90.9z"/>
		<circle fill="#9A9FA3" cx="257.5" cy="166.2" r="82.5"/>
		<path fill="#AAAFB4" d="M440.9,137.3c8.6,60.3,64.5,102.2,124.8,93.6s102.2-64.5,93.6-124.8c-3.1-21.9-12.5-41.3-26-56.8
			l12.3-13.4c4.2-4.6,1.6-12.1-4.6-13l-5.3-0.7c-5.2-0.7-8.2-6.3-5.9-11.1c2.7-5.6-2-11.9-8.1-11.1l-87.1,12.4
			C474.2,21.1,432.3,77,440.9,137.3z"/>
		<circle fill="#959A9E" cx="551.8" cy="121" r="78.5"/>
		<g>
			
				<linearGradient id="SVGID_2_" gradientUnits="userSpaceOnUse" x1="-3027.4097" y1="208.2793" x2="-3027.4097" y2="275.7552" gradientTransform="matrix(-0.999 4.531100e-002 4.531100e-002 0.999 -2598.342 90.2459)">
				<stop  offset="0" style="stop-color:#CBCCCE"/>
				<stop  offset="1" style="stop-color:#C2C4C6"/>
			</linearGradient>
			<path fill="url(#SVGID_2_)" d="M306.8,261.7c38,72.1,149,66.8,212,42.6c33.2-12.8,63.8-42.9,69.1-79.7
				c2.9-20.3-4.8-35.9-11.3-54.4c-8.1-23-11.8-47.2-21-69.8c-8.8-21.8-24.5-40.6-43.8-53.9c-25.1-17.3-68.6-21-98.3-17.6
				c-65.5,7.3-98.6,34.6-119.8,99.1C279.1,172.8,284.9,220.3,306.8,261.7z"/>
		</g>
		<circle fill="#B0B6BA" cx="409.7" cy="171.3" r="17.8"/>
		<circle fill="#636466" cx="410.5" cy="171.2" r="10.3"/>
		<circle fill="#B0B6BA" cx="533.4" cy="152.6" r="17.8"/>
		<circle fill="#636466" cx="533.4" cy="152.6" r="9.7"/>
		<path fill="#D8D9DA" d="M485.9,206.9c18.4-1.3,32.7,15.7,28.3,33.6c-3.3,13.6-10.5,26.7-25.7,29.7c-19.1,3.8-31.1-7.9-39-23.1
			c-8.9-17.2,3.1-37.8,22.4-39.2L485.9,206.9z"/>
		<g>
			<path fill="#9A9FA3" d="M408.8,128.7c0.6,1.4,0.7,2.8,0.7,4.3c-0.6,1.2-1.2,2.4-2,3.5c-1.5,2.2-3.5,4.1-5.7,5.6
				c-0.6,0.4-1.1,0.7-1.7,1c-0.6,0.4-1.2,0.6-1.8,0.9c-0.6,0.2-1.2,0.6-1.8,0.7l-1.9,0.6c-0.6,0.2-1.3,0.3-1.9,0.4
				c-0.6,0.1-1.3,0.3-1.9,0.3c-1.4-0.5-2.7-1-3.9-1.7c1.2-0.9,2.3-1.6,3.4-2.3c0.6-0.1,1.1-0.2,1.7-0.3c0.6-0.1,1.1-0.2,1.6-0.4
				l1.6-0.5c0.5-0.2,1-0.4,1.5-0.6c0.5-0.2,1-0.4,1.5-0.7c0.5-0.3,1-0.5,1.4-0.8c1.8-1.2,3.4-2.8,4.6-4.6c0.6-0.9,1.2-1.8,1.6-2.9
				C406.8,130.6,407.8,129.7,408.8,128.7z"/>
		</g>
		<g>
			<path fill="#9A9FA3" d="M537.8,127.1c-1.2-0.9-2.2-1.6-3.3-2.3c-0.5-0.9-1.2-1.8-1.9-2.6c-1.5-1.6-3.2-3-5.1-4
				c-0.5-0.2-1-0.4-1.5-0.7c-0.5-0.2-1-0.4-1.6-0.5c-0.5-0.1-1-0.3-1.6-0.4l-1.7-0.3c-0.5-0.1-1.1-0.1-1.7-0.2c-0.6,0-1.1,0-1.7-0.1
				c-1.1-0.6-2.3-1.1-3.6-1.8c1.1-0.8,2.4-1.5,3.7-2.2c0.6,0,1.3,0.1,1.9,0.1c0.6,0,1.3,0.1,1.9,0.2l1.9,0.3
				c0.6,0.1,1.3,0.3,1.9,0.5c0.6,0.2,1.3,0.4,1.9,0.7c0.6,0.3,1.2,0.5,1.8,0.8c2.4,1.2,4.5,2.9,6.3,4.9c0.9,1,1.7,2.1,2.4,3.2
				C538.2,124.2,538.2,125.7,537.8,127.1z"/>
		</g>
		<path fill="#6B6C6F" d="M461,234.1c0,0,7.2-12.6,25.3-11.3c6.2,0.5,10.2,2.7,12.8,5.5c3.6,3.9,2.5,13.1-1.6,14.2
			C484.4,245.7,456.4,250.8,461,234.1z"/>
		<path fill="#FFFFFF" d="M472.9,236c4.3,0.9,10.6,1.3,17.8-1.2c3.6-1.3,3.8-6.3,0.3-7.8c-2.2-1-5.3-1.7-9.5-1.4
			c-4.6,0.3-7.8,1.4-10,2.8C468.3,230.3,469.2,235.2,472.9,236z"/>
		<path fill="#636466" d="M513,149.7c-3.8-10.6-11-19.8-22.9-24c-13.4-4.8-29.9-1.9-41,6.5c-14.2,10.7-16.9,27.8-14.7,43.2
			c2.5,18.3,17.5,64.7,49,57.1c19.2-4.6,29.6-18.5,32.5-35.5C518.1,183.8,518.5,164.9,513,149.7z"/>
		<path fill="#FFFFFF" d="M462.2,141.5c0.7-0.3-1.7,1.1-2.3,1.6c-2.3,1.7-4.3,3.9-6,6.3c-6.5,9.4-6.2,21.3-3.5,32c1,3.9-5,6.2-6,2.2
			c-4.3-17-2.2-39.3,15.6-48C463.6,133.7,465.8,139.7,462.2,141.5L462.2,141.5z"/>
		<path fill="#B4BABE" d="M306.8,261.7c0,0-112.8,115.5-37.7,183.3c64.4,58.2,184.2-13.9,185-85.5c0.3-26-2.1-51.7-24.7-64.5
			c-20.3-11.5-44.5-19.5-55.9-2.1l-9.2,17.1C364.3,310,328.6,296.1,306.8,261.7z"/>
		<g>
			<path fill="#878C90" d="M364.4,310.1c-0.3,2.6-0.1,5.2,0.5,7.5c0.3,1.2,0.7,2.3,1.2,3.4c0.5,1.1,1,2.1,1.6,3.1
				c2.5,4,6,7.3,9.8,10.4c3.8,3.1,8,5.9,12.4,8.7c4.4,2.8,8.9,5.4,13.3,8.6l-0.1,0.4c-5-1.8-9.9-3.7-14.6-6.1
				c-4.7-2.4-9.3-5.1-13.5-8.4c-4.1-3.4-7.9-7.3-10.2-12.2c-1.1-2.4-1.9-5-2.1-7.7c-0.2-2.7,0.2-5.4,1.3-7.9L364.4,310.1z"/>
		</g>
	</g>
	<g>
		<path fill="#878C90" d="M415.6,431.7c6.9-5.7,12.8-12.2,18-19.2c2.5-3.5,4.9-7.1,6.9-10.9c2.1-3.7,4-7.6,5.5-11.6
			c1.6-4,3-8,4-12.2c0.3-1,0.6-2.1,0.8-3.1c0.2-1.1,0.5-2.1,0.7-3.2c0.2-1.1,0.4-2.1,0.6-3.2c0.2-1.1,0.4-2.1,0.6-3.2
			c1.3-8.6,1.8-17.4,2.1-26.5l0.4-0.1c1.2,8.9,1.5,17.9,0.6,26.8c-0.1,2.2-0.5,4.4-0.8,6.7c-0.2,1.1-0.4,2.2-0.6,3.3
			c-0.2,1.1-0.4,2.2-0.7,3.3l-0.8,3.3l-1,3.2c-0.3,1.1-0.7,2.1-1.1,3.2c-0.4,1.1-0.7,2.1-1.2,3.2c-3.3,8.3-8,16.1-13.7,23
			c-5.7,6.9-12.4,13-20.2,17.5L415.6,431.7z"/>
	</g>
	<g>
		<path fill="#878C90" d="M306.1,263c4.1,4.5,8.1,8.7,12.2,12.7l1.6,1.5c0.5,0.5,1,1,1.5,1.5l3.2,2.9c1.1,0.9,2.1,1.9,3.2,2.9
			c1.1,1,2.2,1.8,3.3,2.8c0.5,0.5,1.1,1,1.6,1.4l1.7,1.3c1.1,0.9,2.2,1.8,3.4,2.6l3.4,2.6l0.9,0.6c0.3,0.2,0.6,0.4,0.9,0.6l1.8,1.2
			c2.3,1.7,4.8,3.3,7.2,4.9c1.2,0.9,2.5,1.6,3.7,2.4c1.3,0.8,2.5,1.6,3.7,2.5l-0.1,0.4l-4.1-1.6c-1.4-0.5-2.8-1-4.1-1.7l-4-1.9
			c-0.7-0.3-1.3-0.7-2-1l-1.9-1.1c-2.6-1.4-5.1-3.1-7.5-4.7c-1.2-0.8-2.4-1.8-3.6-2.6l-1.8-1.3c-0.6-0.5-1.1-1-1.7-1.4
			c-4.6-3.8-8.8-8-12.6-12.6c-1.9-2.3-3.7-4.6-5.5-7c-1.7-2.5-3.3-4.9-4.7-7.6L306.1,263z"/>
	</g>
	<g>
		<path fill="#878C90" d="M306.1,335.2c3.9-3.3,8.2-6.1,12.6-8.6c2.2-1.3,4.5-2.3,6.8-3.5c2.3-1.1,4.6-2,7-3
			c2.4-0.9,4.8-1.7,7.2-2.5c2.4-0.7,4.9-1.4,7.3-2c4.9-1.2,10-2,15.1-2.1l0.1,0.3c-9.7,2.4-19.3,5.5-28.6,9.1
			c-9.4,3.6-18.5,7.7-27.3,12.5L306.1,335.2z"/>
	</g>
	<g>
		<path fill="#878C90" d="M374.9,288.8c0,0,0.2-0.3,0.6-0.8c0.2-0.3,0.4-0.6,0.8-0.9c0.3-0.4,0.7-0.8,1.2-1.2
			c0.9-0.8,2.2-1.8,3.8-2.7c1.6-0.9,3.4-1.7,5.6-2.3c2.1-0.6,4.5-1.1,7.1-1.2c2.5-0.2,5.3-0.1,8,0.3c2.8,0.4,5.5,0.9,8.3,1.8
			c1.4,0.4,2.7,0.9,4.1,1.5l2,0.8c0.7,0.3,1.4,0.6,2,0.9c2.6,1.3,5.1,2.8,7.4,4.4c2.4,1.5,4.5,3.3,6.6,4.9c2.1,1.7,3.9,3.4,5.7,5
			c1.8,1.7,3.4,3.4,4.8,5.2c1.4,1.7,2.4,3.5,3.2,5.1c0.8,1.6,1.2,3.2,1.4,4.5c0.1,0.6,0.2,1.2,0.1,1.7c0,0.5,0,0.9,0,1.3
			c-0.1,0.7-0.1,1-0.1,1l-0.4,0c0,0,0-0.3-0.1-1c-0.1-0.6-0.2-1.6-0.5-2.7c-0.4-1.1-0.9-2.5-1.8-3.9c-0.9-1.4-2-2.9-3.5-4.4
			c-2.8-3-6.7-5.9-10.8-9c-4.2-3.1-8.7-6.1-13.7-8.6c-2.4-1.2-5-2.3-7.5-3.2c-2.6-0.9-5.1-1.5-7.7-2c-5.1-0.9-9.9-0.9-14-0.1
			c-2,0.4-3.8,0.9-5.4,1.5c-1.5,0.6-2.8,1.3-3.8,2c-1,0.7-1.7,1.2-2.2,1.6c-0.5,0.4-0.8,0.6-0.8,0.6L374.9,288.8z"/>
	</g>
</g>
<g>
</g>
<g>
</g>
<g>
</g>
<g>
</g>
<g>
</g>
<g>
</g>
<g>
</g>
<g>
</g>
<g>
</g>
<g>
</g>
<g>
</g>
<g>
</g>
<g>
</g>
<g>
</g>
<g>
</g>
</svg>
