<?xml version="1.0" encoding="utf-8"?>
<!-- Generator: Adobe Illustrator 18.0.0, SVG Export Plug-In . SVG Version: 6.00 Build 0)  -->
<!DOCTYPE svg PUBLIC "-//W3C//DTD SVG 1.1//EN" "http://www.w3.org/Graphics/SVG/1.1/DTD/svg11.dtd">
<svg version="1.1" id="Layer_1" xmlns="http://www.w3.org/2000/svg" xmlns:xlink="http://www.w3.org/1999/xlink" x="0px" y="0px"
	 viewBox="0 142.6 612 506.9" enable-background="new 0 142.6 612 506.9" xml:space="preserve">
<title>cyn</title>
<path fill="#EA5C50" d="M413.3,329l105.3,32.7c9,2.8,14.1,12.4,11.3,21.4c-0.6,2-1.6,3.8-2.9,5.5l-18.5,23.6
	c-5.6,7.2-15.8,8.7-23.3,3.5L407.1,361L413.3,329z"/>
<path fill="#EA5C50" d="M409.8,319.7l109.7-11.3c9.4-1,17.8,5.9,18.8,15.3c0.2,2.1,0,4.1-0.5,6.1l-7.8,28.9
	c-2.3,8.8-11.1,14.2-20,12.3l-93.3-19.5L409.8,319.7z"/>
<path fill="#6F6F6F" d="M241.3,292.8c-4.1,20.2-23.7,33.2-43.9,29.2c-0.2-0.1-0.5-0.1-0.7-0.2c-20.3-5.3-32.7-25.8-27.9-46.3
	c4.1-20.2,23.7-33.2,43.9-29.2c0.2,0.1,0.5,0.1,0.7,0.2C233.7,251.8,246.1,272.4,241.3,292.8z"/>
<ellipse fill="#6F6F6F" cx="388.8" cy="290.3" rx="37.2" ry="38.6"/>
<path fill="#F1F0F1" d="M470,444.1c-6.2-28.7-20-57.6-27.8-83.8c-8.4-28-19.8-56.6-45.5-73c-35.8-22.8-81.9-24.5-122.6-21.3
	c-8.2,0.6-16.4,1.5-24.6,2.7c-29.6,4-59.6,15.7-77.4,42.1c-14.6,21.7-19.7,46.9-27,71.5c-7.6,25.9-20.8,51.8-24.1,78.8
	c-2.4,24.6,5.6,49,22,67.4c12.5,13.1,28.3,22.5,45.8,27.2c3.6,1.1,7.3,2,11,2.7l48.3,12.1c30.7,7.7,62.8,7.8,93.6,0.4l46.8-11.2
	c5.6-1,11.1-2.3,16.6-4h0.2c19.8-6,38.1-16.5,50.9-33C475,498.2,475.8,471.2,470,444.1z"/>
<path fill="#6F6F6F" d="M281.7,384.8h26.6c10.7,0.2,19.2,9,19,19.7v0.2c0,5.9-2.6,11.5-7.1,15.4l-13,10.9
	c-6.9,5.8-16.8,5.8-23.8,0.2l-13.6-11.2c-4.6-3.8-7.3-9.5-7.2-15.5l0,0C262.5,393.8,271,385,281.7,384.8z"/>
<path fill="#6F6F6F" d="M167,392c2.5-4.5,5.4-8.7,8.6-12.7c11.9-15,30.1-31.4,50.9-25.6c12.6,4,22.7,13.8,27,26.3
	c1.4,3.9,2.4,7.9,2.9,12c2.9,24.5-8.8,48.4-31.3,58.5c-19.5,8.9-58.2,7-65.1-18.6C156.3,418.4,160.1,404.3,167,392z"/>
<ellipse fill="#FFFFFF" cx="230.1" cy="399.6" rx="10.1" ry="10.5"/>
<path fill="#6F6F6F" d="M217.8,391.4c2-3.3,4.9-6,8.4-7.7c2.5-1.1,5.3-1.4,8-0.7c2.8,0.8,5.3,2.6,7.1,4.9c1.1,1.5,2,3.1,2.5,4.9
	c0.3,1,0.5,2.1,0.6,3.2c0,0.6,0,1.2,0,1.8c-0.1,0.6-0.2,1.3-0.3,1.9l-0.9,1c-1.8-1.2-3.8-2.1-5.9-2.8c-2.1-0.8-4.2-1.4-6.4-1.9
	c-2.2-0.6-4.3-1.1-6.5-1.6l-6.6-1.6L217.8,391.4z"/>
<ellipse fill="#6F6F6F" cx="230.6" cy="398.5" rx="7.2" ry="7.5"/>
<path fill="#6F6F6F" d="M426.8,392.2c-11.4-20.1-33.1-44.3-58.9-39.7c-18.1,3.3-28.1,22.8-30.1,39.6c-2.9,24.5,8.8,48.4,31.3,58.5
	c15.2,6.9,35.7,6.9,50.6-1C441.5,438.1,436.9,410.1,426.8,392.2z"/>
<ellipse fill="#FFFFFF" cx="364" cy="399.6" rx="10.1" ry="10.5"/>
<path fill="#6F6F6F" d="M377.6,392c-2.1-2.2-4.8-3.7-7.7-4.4c-2.4-0.6-5-0.5-7.4,0.1c-2.6,0.7-4.9,2-6.8,3.8c-1.1,1-2,2.3-2.7,3.6
	c-0.4,0.7-0.7,1.5-1,2.3c-0.3,0.9-0.4,1.8-0.4,2.7l0.5,0.6l1.4-1l1.5-0.8c1-0.5,2-1,3.1-1.4c2.1-0.8,4.3-1.5,6.4-2
	c2.2-0.6,4.4-1.2,6.6-1.6l6.7-1.3L377.6,392z"/>
<ellipse fill="#6F6F6F" cx="364" cy="399.1" rx="7.2" ry="7.5"/>
<line fill="none" stroke="#6F6F6F" stroke-width="3" stroke-miterlimit="10" x1="295" y1="425.6" x2="295" y2="455.6"/>
<path fill="#6F6F6F" d="M272.8,456c5.6-1.3,10.4-2.5,15-3.8l13.7-3.7c4.5-1.3,9.1-2.7,13.9-3.9c2.4-0.6,4.9-1.3,7.5-1.8
	c2.7-0.7,5.4-1.2,8.2-1.4l0.5,0.6c-2.1,1.5-4.3,3-6.4,4.5c-2.2,1.5-4.5,2.7-6.8,3.9c-4.7,2.4-9.5,4.4-14.6,5.9
	c-5.1,1.4-10.3,2.2-15.5,2.4c-5.3,0.3-10.5-0.3-15.6-1.9L272.8,456z"/>
<path fill="#EA5C50" d="M195.6,287.6c0,0-26.1,12.3-39.2,55.9h280.3c0,0-10.6-41-35-52.6L195.6,287.6z"/>
<polygon fill="#FFFFFF" points="203.2,308 207.6,298 212.8,307.6 223.6,308.7 216.1,316.6 218.4,327.2 208.6,322.5 199.2,328 
	200.6,317.2 192.5,309.9 "/>
<polygon fill="#FFFFFF" points="224.2,298.1 225.3,295.4 226.7,298 229.6,298.3 227.6,300.4 228.2,303.2 225.6,301.9 223.1,303.4 
	223.4,300.5 221.3,298.6 "/>
<polygon fill="#FFFFFF" points="235,307.7 236.1,305 237.5,307.6 240.4,307.9 238.4,310 239,312.8 236.4,311.5 233.9,313 
	234.3,310.1 232.1,308.2 "/>
<polygon fill="#FFFFFF" points="235,322.7 236.1,320.1 237.5,322.6 240.4,322.9 238.4,325 239,327.9 236.4,326.6 233.9,328 
	234.3,325.2 232.1,323.3 "/>
<polygon fill="#FFFFFF" points="224.2,330.4 225.3,327.7 226.7,330.2 229.6,330.6 227.6,332.6 228.2,335.5 225.6,334.2 223.1,335.7 
	223.4,332.8 221.3,330.9 "/>
</svg>
