<?xml version="1.0" encoding="utf-8"?>
<!-- Generator: Adobe Illustrator 18.0.0, SVG Export Plug-In . SVG Version: 6.00 Build 0)  -->
<!DOCTYPE svg PUBLIC "-//W3C//DTD SVG 1.1//EN" "http://www.w3.org/Graphics/SVG/1.1/DTD/svg11.dtd">
<svg version="1.1" id="Layer_1" xmlns="http://www.w3.org/2000/svg" xmlns:xlink="http://www.w3.org/1999/xlink" x="0px" y="0px"
	 viewBox="0 0 685.9 525.4" enable-background="new 0 0 685.9 525.4" xml:space="preserve">
<g>
	<path fill="#FFDC5D" d="M94.2,212.7C172.6,129.1,276.7,50.8,395.1,12C434.4-0.8,479-4.4,524.2,6.4c40.5,9.7,80.4,32,115,56.1
		c10.7,7.5,21,15.5,30.3,24.5c1.4,1.3,20.3,22.1,15.7,22c-5.2-0.3-10.4-1-15.8-1.9C541.8,86.2,480.2,218.9,434.6,313.9
		C381.8,424,315.5,537,173.8,524.4c-23.3-2.1-46.3-7.9-68.1-16.2c-7.2-2.8-14.3-5.9-21.4-9c-29.1-12.8-54.5-34.9-70.1-64.4
		C-31.8,348,44.4,265.9,94.2,212.7z"/>
	<g>
		<polygon fill="#FFC235" points="216.7,425.1 217.1,426 219.4,424.6 		"/>
		<path fill="#FFC235" d="M240.3,423.3c1.9-1.5,5.7-3,5.3-5.1l-3.3,2.6c-0.4-0.7-1.2-0.9-2.2-0.8c-1,0.1-2.1,0.4-3.1,0.9l2.4-0.5
			c-0.6,0.3,0,1.2-0.6,1.5c-2-0.1-3.1,0.5-4.2,0.9c-1.1,0.4-2.2,0.7-4.1,0.1l0.2-0.2L228,424c-0.9-0.1-0.6-0.9-0.4-1.2
			c-1.2,0.6-2.2,1.1-3.4,1.5c-1.2,0.4-2.5,0.7-4.2,0.8c1.4,1.3,3.3,0.7,5.1-0.1c1.8-0.8,3.6-1.5,5.1-0.3l-0.2,0.2
			c0.8-0.4,1.6-0.5,2.5-0.6c0.9-0.1,1.8-0.2,2.7-0.2C236.9,424,238.7,424,240.3,423.3z"/>
		<path fill="#FFC235" d="M227.6,422.8c0.1,0,0.1-0.1,0.2-0.1C227.8,422.6,227.7,422.7,227.6,422.8z"/>
		<path fill="#FFC235" d="M345.4,360.6l-0.3-0.4C345.2,360.5,345.2,360.7,345.4,360.6z"/>
		<path fill="#FFC235" d="M312.2,386.1c0.1,0,0.1-0.1,0.2-0.1C312.2,385.4,312.2,385.6,312.2,386.1z"/>
		<path fill="#FFC235" d="M464.3,175.6l1-0.1C464.8,175.2,464.5,175.3,464.3,175.6z"/>
		<path fill="#FFC235" d="M506.8,142.8L506.8,142.8C506.9,142.7,506.8,142.8,506.8,142.8z"/>
		<path fill="#FFC235" d="M481.5,150l-0.4-0.4C481.2,149.9,481.3,150,481.5,150z"/>
		<path fill="#FFC235" d="M495.3,138.5c0.5-0.2,1-0.4,1.4-0.6C496.2,137.8,495.6,138.1,495.3,138.5z"/>
		<path fill="#FFC235" d="M506.5,143.3c0.1-0.2,0.2-0.3,0.3-0.5C506.7,142.9,506.6,143.1,506.5,143.3z"/>
		<path fill="#FFC235" d="M460.3,166.6l-1.5-0.6C459.1,166.3,459.7,166.5,460.3,166.6z"/>
		<path fill="#FFC235" d="M498.3,135.1c0.4,0.1,0.7,0,1.1-0.1C499,134.8,498.7,134.8,498.3,135.1z"/>
		<path fill="#FFC235" d="M243.9,422.4c-0.5,0.1-1.1,0.3-1.7,0.6C242.9,423,243.4,422.7,243.9,422.4z"/>
		<path fill="#FFC235" d="M397.3,245.3c-0.1-0.2-0.2-0.4-0.3-0.6C396.9,245.1,397.1,245.2,397.3,245.3z"/>
		<path fill="#FFC235" d="M430.7,196.3l0.1-0.2c-0.1,0-0.2,0-0.3,0L430.7,196.3z"/>
		<path fill="#FFC235" d="M420.3,210.1c0-0.1-0.1-0.3-0.1-0.4C420.2,209.9,420.2,210,420.3,210.1z"/>
		<path fill="#FFC235" d="M438.1,185.3c0-0.2,0.1-0.5,0-0.8L438.1,185.3z"/>
		<path fill="#FFC235" d="M447.8,177.2c-0.8,0-0.7-0.7-0.7-1.5c-2.7,1.8-2.1,3.8-5.3,5.3c0.5-0.2,1.1-0.4,1.6-0.6
			c-0.7,2.3-3.1,5.3-5.4,5.8l0-0.8c-0.2,1.1-1.3,1.9-2.3,2.6c-1,0.7-1.8,1.3-1.7,1.9c1-0.2,0.8,0.7,2,0.1l-2.3,4.7l-1.8-1l-1.2,2.5
			c0.5,0-0.2,0.6-0.8,1.3c-0.6,0.8-1.2,1.7-0.5,2.3c-1.5,0.7-0.8-1.5-1.1-2.4c-0.5,1.6-1.3,1.1-1.2,3l-2.3,0.1l-1.4,3.9
			c0-0.3-0.3-0.1-0.3-0.4c0.1,2.3-3.4,3.1-2.7,6.5c0-0.2-0.1-0.2-0.2-0.3c0.4,1.8-2.3,3.7-3.1,4.5c-0.9,1.9,0.9,1.7,1.5,2.2
			c-3.7,4.5-2.6,3-3.5,8.3c-3.4,1.2-1.1-4.9-4.4-2.6c0.6,1-0.1,3.7-1.3,6.3c-1.1,0.9-2.3,2.3-3.6,3.6c-1.3,1.3-2.6,2.5-4,3.3
			l1.4,0.5c-0.4,1.2-0.8,2.4-1.2,3.6c-0.3-1-0.5-1.9-0.7-2.9c0.1,0.8,0,2.9,0,4.3c-0.8,4-3.8,0.4-3.4,4.1c-0.2,0-0.4,0-0.5,0
			c0.2,0.7,0,1.6-0.5,2.6c-0.5,1-1.1,2.2-1.6,3.6l-1.2-1.8l1.2-1.5c-2.1,0-1.2,2.9-2.2,4.5c-0.4,2,1.4,1.9,1.4,3
			c-0.4,0.6-0.4,1.8-1.1,2c-1.3,1.2-2-0.9-2.5-1.7c1,2.2,0.6,2.5-0.3,5.8c-0.9-0.3-1.1-0.7-1.1-1.1c-0.1,0.7,0,1.4,0.5,2.1l-1.5,0.5
			c-3.1,2.6,1.4,4.9-1.1,8.6c-0.4-1.5-1.5,3.5-3.2,4.2c0.4-1.5-2.8-0.6-3.4-1.9c-2.2,2.9,1.3,2.2,0.4,5l-1.6-2.1
			c-0.3,2.9,0.8,1.2,0.2,4c-0.3-1-1.1,0.8-1-1c-1.8,3.2-1.2,2.4-2.9,5.2l1.9,1.2c-0.3,1.1-1.3,1-1.8,1.1c0.2-0.4,0.5-1,0.3-1.1
			c-2.3,0.3,0.1,2.3-2.2,2.9c0.8,0,1.9,0.1,1.4,1.3c-1-1-2,1.3-2.6,1.1c1.2-0.3-0.9,2.8,0.3,3.6c-1.6,0.9-0.7-0.9-1.4-1.3
			c1,1.9-2.2,4.9-1.9,6.4c-0.1,0-0.2,0-0.3-0.1c0.2,1.9-0.8,4.5-1,8.1l-0.6-1.6c-2,2.6,1.5,3,0.2,5.4c-0.7-0.7-1.2,0.3-1.6,1.3
			c-0.5,0.9-1,1.8-1.6,0.7c0.1,1.9-0.3,3.7,0.6,5.4c-1.6,0.9-0.8-3.8-2.3-2.2l-0.3,2.5l-1.1-0.1c0.6,0.4-0.3,2.2,0.2,2.4
			c-1.2-0.3-2.4,0.1-3.1-0.4c-0.4,1.4-2.4,2.6-2.1,4.2l-0.6-0.2c1.2,2.3-1.8,4-0.3,5.8l-1.5,0.1c-1,2,1.2,2.9,1.1,4
			c-0.4,0.8-0.8,1.9-1.4,2.6c0.3-3.3-2.3,0.3-3.3,0.3c-0.6,1-2.4,3.8-2,5.2c-0.2-1.8-1.5-1.6-0.1-3.7c-2.6-0.2-1.7,3.4-3.5,5.5
			l-0.8-0.6c-0.8,1.8-0.9,3-0.7,4c0.2,1,0.6,1.9,0.8,3.1c-1.3-0.4-1.3-0.9-1.7-2.6c-1.1,0.8-2.1,2.2-3,3.6c-0.5,0.7-1,1.5-1.4,2.2
			c-0.5,0.7-1,1.3-1.5,1.9c-1.3,0.1-1.3-0.7-1-1.7c-1.2,2.9-4.5,5-4,8c-0.2-1.1-1.3,0.5-2.4,1c0.3,0.3,0.6,0.9,0.5,0.9
			c-0.6,2-2.8,5.6-4.9,6.6l0.1-1c-1.9,1.6-2.6,3.5-3.5,5.3c-0.2,0.5-0.4,0.9-0.7,1.4c-0.3,0.4-0.6,0.8-0.9,1.2
			c-0.7,0.8-1.7,1.5-3,2.1c-1.1,0.3-0.5-2.1-1.9-0.7c-0.2,1.3,1.2,2.4-1.1,3.7l-0.8-1.3l-0.4,2.3c1.5,0.4,3.5-1.8,2.8,0.6
			c-2.7,0.4-0.8,2.4-4,2.9c0.4-0.5,0.4-2,0.4-2.7c-1.4,0.6-2.5,1.3-3.4,2c-0.9,0.7-1.6,1.4-2.4,2.2c-1.5,1.5-3,3-6,3.8
			c-0.9,1.3-2.2,2.5-3.3,3.7c-1.2,1.1-2.3,2.1-2.9,3.1c-0.6-1.4-1.3-2.5-0.7-4.2c-2.3,1.1-1.6,4.7-4.2,3.6c-0.1,2.3-5.6,4.5-4.9,7.3
			c-0.4-0.5-2.5,1.2-0.8-1.4c-2.8,2.3-5.2-0.3-6.6,0.4c-0.8,0.5,1.7,1.2-0.2,2.1c-0.3,0-0.5-0.3-0.7-0.3l-0.5,0.9
			c-1-0.3,0.3-1.6,0-2.3c-2.9,0.5-3.7,3.4-6.8,4.8l0.4-0.7l-3.3,1.1l0.1-0.2l-2.3,1.9l-0.2-0.7c-0.5,0.4-0.5,0.9-1.3,1.3l0-1
			c-0.4,1.6-3.3,3.3-4.8,3.8l-0.4-0.3l-1.6,1.5l-1.6,1.4c-2.2-0.4,1.9-2.8-1.8-1.1l0.5-2.1c-2.6,1.4-3.2,0.6-4.9,1.7
			c1.1,0.7,2.4,0.2,1.6,1.3c-1.3-0.7-2.2-0.4-2.9,0.3c-0.7,0.7-1.4,1.7-2.4,2.4c1.1-0.3,1.8-0.4,2.3-1.6c1.1-0.2,0.6,0.9,1.4,0.8
			c0.5-0.4,0.9-0.9,1.4-1.4l0.8,1.1l2.5-1.7c0.2,1.5,2.6-0.5,1.9,1.3c1.8-1.1,3.1-0.5,4.4-2.4c1.6,0.5-1.7,1.7-0.3,1.4
			c7.3-3.4,15-6.2,22.7-9.2l-0.4,1c0.5-1,1.2-1.9,1.5-2.6c0.9,0.2,2.8,0.2,4.4-0.5c1.7-0.6,3.2-1.6,3.5-3.1c0.3,0,0.1,0.5,0,0.7
			c0.6-0.4,1.3-0.7,2.2-1.1c0.9-0.3,1.8-0.7,2.8-1.1c2-0.8,4.1-1.6,5.7-2.8c0.1-2.9,5.8-2,5.2-5.5c-0.1,0.3-0.2,0.7-0.3,1
			c-0.8,0-0.7-0.7-0.4-1.6c0.3-0.9,0.7-1.9,0.7-2.3c2.1,1.1,1,1.3,3.2,2.1l-1.7,0.3l1.3,1.2c0.7-3.3,2.9-4.2,5-5
			c2-0.8,4-1.3,4.2-3.5c0,0.2,0.2,0.4,0.1,0.7c2.3-0.5,1.9-3.2,2.7-4.6c0.7,0.5,0.2,1.7,0.1,2.7c1.6-1,3.2-2.9,4.8-4.8
			c1.6-2,3.2-3.9,5.2-4.8c0.2-1.8-1.5-0.7-1.1-2.4c1.1-0.7,2.3-0.7,1.7,0.9c2-0.5,3.7-2.9,5.5-5.4c0.9-1.2,1.8-2.6,2.8-3.8
			c1-1.2,2-2.2,3.3-3c0.4-1.5,0.2-2,0.2-2.6c0-0.6,0.1-1.3,1-3.3c0.1,1.3,2.9,0.9,1.4,3l0.5,0.8c1.4-1.6,3-3.6,4.1-5.5
			c0.6-1,1.1-1.9,1.4-2.9c0.3-0.9,0.3-1.9,0.1-2.7c1.6,1,0.7-0.4,2.5-1.2c0.2-0.7-0.3-0.1-0.5,0c-0.5-2.2,1.4-1.9,1.8-3l0.1,0.5
			l0.7-3.2c0.5-0.3,1.2-0.7,1.7-0.5l-1.1-0.7c0.9-1.4,1.8,0.3,2.6-1.7l-1.1-0.2c1.2-0.8,1.1-3.2,2.5-2.7c0.3,0.1,0,0.3-0.2,0.7
			c1.4-0.3,2-1.5,2.4-2.8c0.4-1.3,0.8-2.8,1.8-3.6l-2.2-0.5c0.6-2.4,1.1-1,1.7-0.6c0.8-1.4,1.6-1.4,2.9-3.1c0.1-1.2-0.4-0.9-0.8-1.5
			c0.5-0.5,1-1.1,1.5-1.6l0.3,1.8c-1.1-4.4,4.4-7.2,2.9-10.5c1.1-0.8,0.6,1.6,1.3,1.1c3.1-2.8,2.3-8.7,5.2-10.9
			c1.9-2,3.2-4.6,4.5-7.2c1.3-2.6,2.5-5.4,4.3-7.8l-0.6-0.2l2.3-3.5c-0.7-1.6,1.1-3.9,0.6-6.1c0.3,0.3,1.1,0.3,1.3,0.8
			c0.6-1.7,0.9-3.7,2.1-4.3l0.2,0.8c2.1-3.3,4.5-8.2,4.5-10.5c0.5-1.2,1.4-0.7,2.2-0.7c1.1-2,1.2-3.6,1.3-5.6
			c0.4-0.3,0.9-0.7,1.6-0.9l-0.8-1.4c0.6-0.7,1.1,0.3,1.8-0.1c0.2-3.9,3.4-6.8,4.5-9l-0.8,0c0-1.2,1.8-2.4,1.9-1
			c1.6-1.9,1.9-3.7,2.4-5.8c0.5-2,1.1-4.3,2.9-7c1.3,0.3,1.9-1.1,2.6-2.4c0.7-1.3,1.4-2.6,2.8-2.3c0.9-2.7,2.8-3.6,2.5-6.1
			c0.3,0.1,0.5,0,0.3,0.4c1.5-0.3,2.9-3.7,3.9-6.4l0.8,0.4c-1-1.9,2.4-5.4,1.4-7.4c0.5,0,0.3,0.9,0.4,1.4c2.3-0.1,0.8-2.5,2.3-3.8
			c0.3,0.4,1,0.3,1.1,0.8c2.7-1.8,4.8-5,7-8.4c2.3-3.3,4.6-7,7.9-9.5c1.6-1.6-2-0.7,0.1-2.8c1.3,0,0.5,2.4,2,1.2
			c0-1.8,0.6-2,1.8-3.3c0.2,0.7,0.7,0.7,0.2,2c1.2-0.3,2-4.2,4.5-4.6c-0.5-0.3-0.5-0.8-0.4-1.3c0.5-1.7,2-2.7,3.3-3.3
			c1.4-0.6,2.5-0.9,2.3-1.4c0,0,0.6-0.9-0.2-0.4c0.8-0.8,2.2-1.7,2.6-0.8c0.1-0.8-0.1-1.7,0.5-2.4l0.4,1.1c0.2-0.5,0.2-1.4,0.4-1.9
			l-1,0.1c1.5-0.3,1.9-3.5,3.3-2l-0.3,0.3l2.4-0.9c0.1-1.3,0.3-2.5,1.7-3.4c1.9,1.2,3.4-2.4,5.1-3.5l0.4,0.6c0.5-1.8,4-4.1,3.2-3.9
			c1.2-1,3.2-1.9,3-0.9c0.7-1.1,2.8-2.8,2.6-4.2l3.1-0.2c-0.4-3,4.6-2.3,3.1-4.6c1.4-0.5,1.5,0.2,2.6,0c0.7-2.3,2.6-3.3,4.4-4.3
			l0.2,0.2c1.8-1,3-3.6,5.3-5.3l1.7,1.5c1.1-1.1,0.5-2.7,1.9-3.1c0.5,0.1,0.3,0.4,0,0.7c0.9-1.1,2.8-1.7,4-1.8
			c1-2.5,2.8-2.8,3.5-5.2c2.4,0.7-1.7,2,0.4,2.8c1.6-0.4,2.9-1.2,4.1-2.2c1.2-1,2.4-2.2,3.7-3.5c0.5,0.2,0.3,0.7,0.4,1.2
			c0,0,0.9-2,1.5-4.1c0.6-2.1,1-4.4,0-5c0.1-1.6,0.6-2.9-2.6-2.5c-0.5,1.2-2.4,3.5-3.6,2.4l0.6,1.4c-3.1,2.6-1.8-2.5-6-0.1
			c0.4,0,0.7-0.1,1.1-0.1c-0.7,0.5-0.9,1.7-2,1.9c-0.5-0.2,0-0.7,0.1-1.2l-2.4,3.8c-0.6-0.7-0.7-1.1-0.4-2.1c-3.1,2,2,1.9-2.1,3.8
			c-1-0.1-0.2-0.9,0-1.7c-2.5,0-3,1.8-4.4,3.6c-0.7-1.1,0.5-1.7-1.4-1.5c0.7,0.4,1.5,1.2,0.4,2.1c-0.2-1.5-1.3,0-2.6,0.4
			c0.5,0.2,0.7,0.8,0.4,1.3c-0.4,0.5-1.2,0.4-1.9,1l2.1,0.2c-1.2,2.3-3.3,1.4-5.1,1.9c0-0.3,0.1-0.6,0.4-0.9c-1.8,0.6-4,0.8-5.2,3.1
			l0.1-0.2c-1.4,1.8-0.8,2-0.3,2.3c0.5,0.3,0.9,0.6-0.7,2.6c-1.5,0.8-1.9-4-4.1-0.4c2.1-0.2-0.3,3.7-1.8,5.4l0.2-3.4
			c-0.7,0.5-1.5,2-2.1,2.1l0.4,0.4c1.5,1.6-2.4,1.5-2.8,3.6c-0.3-3.6,0.1-3.2-1.4-5.8c-0.2,2.3-0.7,4.5-3.1,6.1l0.4-3.2
			c-3.3,1.9-4.5,7.5-5.6,10.9c-0.5-1.8-1.8-1.5-1.8-3.4l-2.5,2.6l-0.4-2.1c0.1,2.4-1.9,2.5-0.1,4.2c0.1-0.5-0.2-0.7,0.4-1.1
			c0.4,0.6,1,2.2-0.5,3.4c-1.3,0.4-0.1-1.2-0.8-1.5c-0.2,1.6-1.4,0.4-1.8,1.8l1.5,0c0.3,1.6-1.5,1.4-1.9,2.8c0.7-1.4-0.2-1.7-1.2-2
			l0.2,0.1c-0.6,0.7-0.8,2.2-1.8,2l-0.8-2l0,2c-0.5,0.2-1.3-0.1-0.9-1c-3.8,2,3,3-2.1,5.5c-0.5-0.6-0.4-1.4,1-2.1
			c-0.7-1-1.4-1.3-2.8-0.6c-0.1,0-0.1-0.1-0.2-0.2c-1,1-2.2,2.1-3.2,3.2C448.7,174.8,448,176.1,447.8,177.2z"/>
		<path fill="#FFC235" d="M452.9,170.4c1.1-1,2-1.9,2.3-2.5C454.7,167.8,452,169.6,452.9,170.4z"/>
		<path fill="#FFC235" d="M336.1,355.8c0.1-0.2,0.1-0.4,0.2-0.5C336.3,355.5,336.2,355.7,336.1,355.8z"/>
		<path fill="#FFC235" d="M329.1,365c0.2,0.1,0.5,0,0.7-0.2C329.5,364.6,329.2,364.5,329.1,365z"/>
		<path fill="#FFC235" d="M389.6,260.7C389.6,260.7,389.6,260.7,389.6,260.7C389.6,260.7,389.6,260.7,389.6,260.7z"/>
		<path fill="#FFC235" d="M358.5,319.9c0.1,1.2,0.3,1.8,0.7,2.1C359.5,321.4,359.3,320.7,358.5,319.9z"/>
		<path fill="#FFC235" d="M369.8,300.5c0-0.2,0-0.4-0.1-0.5C369.7,300.4,369.7,300.5,369.8,300.5z"/>
		<path fill="#FFC235" d="M390.4,257.1c0.1,1.2-0.6,2.4-0.8,3.6C389.8,259.7,391.2,258.3,390.4,257.1z"/>
		<polygon fill="#FFC235" points="320.7,376.6 320.8,375.1 320.4,376.4 		"/>
		<path fill="#FFC235" d="M327.9,368.4c0.5-0.2,1.4-2,0.6-2C328.5,367.2,328.2,367.8,327.9,368.4z"/>
		<polygon fill="#FFC235" points="354,335.7 353.4,334.8 353.6,336 		"/>
	</g>
</g>
<g>
</g>
<g>
</g>
<g>
</g>
<g>
</g>
<g>
</g>
<g>
</g>
<g>
</g>
<g>
</g>
<g>
</g>
<g>
</g>
<g>
</g>
<g>
</g>
<g>
</g>
<g>
</g>
<g>
</g>
</svg>
