<?xml version="1.0" encoding="utf-8"?>
<!-- Generator: Adobe Illustrator 18.0.0, SVG Export Plug-In . SVG Version: 6.00 Build 0)  -->
<!DOCTYPE svg PUBLIC "-//W3C//DTD SVG 1.1//EN" "http://www.w3.org/Graphics/SVG/1.1/DTD/svg11.dtd">
<svg version="1.1" id="Layer_1" xmlns="http://www.w3.org/2000/svg" xmlns:xlink="http://www.w3.org/1999/xlink" x="0px" y="0px"
	 viewBox="0 0 1497.1 1006.9" enable-background="new 0 0 1497.1 1006.9" xml:space="preserve">
<path fill="#A7A9AC" d="M1331.8,550.4c22.7-49.4,5.7-106.9-37.6-136.8c1.1-33.5-17.6-65.9-49.9-80.7c-8.8-4.1-18-6.5-27.2-7.4
	c-2.7-35.2-23.9-67.9-58.2-83.7c-31.6-14.5-66.8-11.2-94.3,5.7c-11.9-20.1-29.9-37-52.8-47.5c-59.7-27.4-130.3-1.2-157.7,58.6
	c-2.3,5-4.2,10.2-5.8,15.3c-42.9-16.4-91.7,3.1-111.1,45.5c-0.7,1.5-1.3,3-1.9,4.6c0,0-0.1,0-0.1-0.1c-37.4-17.2-81.7-0.7-98.9,36.7
	c-7.8,17-8.6,35.5-3.7,52.2c-8.4,8-15.4,17.8-20.5,29C590,489.5,611,546,658.8,567.9c13.7,6.3,28.2,9,42.3,8.6
	c2.1,16.2,8.9,31.6,19.5,44.1c-0.8,1.6-1.6,3.2-2.4,4.9c-22.2,48.4-0.9,105.7,47.5,127.9c17.7,8.1,36.5,10.4,54.4,7.7
	c11.1,20.9,28.8,38.5,52,49.1c40.9,18.7,87.1,10.7,119.1-16.8c9.7,10.2,21.5,18.8,35.1,25c56.7,26,123.7,1.6,150.6-54.5
	c58.8,15.6,122-12.8,148.2-69.9c18.5-40.4,14.1-85.4-7.8-120.5C1323,566.7,1327.8,558.9,1331.8,550.4z"/>
<g>
	<path fill="#F8CA32" d="M1497.1,374.7c-0.8-0.2-5.4-1.5-12.8-3.7c-7.4-2.2-17.8-5.2-30.1-8.7c-24.7-7-57.8-15.7-92.5-20.9
		c-8.6-1.3-17.4-2.3-26-3.1c-8.7-0.8-17.3-1.2-25.6-1.5c-16.7-0.4-32.5,0.4-46,1.9c-13.5,1.5-24.7,3.7-32.4,5.4
		c-3.9,0.9-6.9,1.6-9,2.1c-2.1,0.5-3.2,0.8-3.2,0.8l5.2-4.5l5.4-4.4l2.7-2.2c0.9-0.7,1.8-1.4,2.8-2.1l5.7-4.2
		c23.4-3.2,46.9-3.8,69.6-2.2c22.7,1.6,44.8,5.2,66,10c21.3,4.8,41.7,10.7,61.7,17.1C1458.5,361,1477.9,367.9,1497.1,374.7z"/>
	<path fill="#F8CA32" d="M1402.3,364.3c-1.1-0.1-12.2-2.7-28.5-5.6c-8.2-1.4-17.7-3-27.9-4.1c-10.2-1.2-21.2-2.1-32.2-2.5
		c-11-0.4-22-0.3-32.3,0.4c-10.3,0.6-19.9,1.8-28.1,3c-2,0.3-4,0.6-5.9,1c-1.9,0.3-3.6,0.7-5.3,1c-1.7,0.3-3.2,0.6-4.6,0.9
		c-1.4,0.3-2.7,0.6-3.9,0.9c-4.7,1-7.4,1.8-7.4,1.8c2.1-1.9,4.2-3.7,6.4-5.6c2.2-1.8,4.4-3.7,6.6-5.4c14-2.2,28.1-3.3,42.1-3.6
		c14-0.2,27.9,0.5,41.5,2C1350.3,351.3,1376.7,357.2,1402.3,364.3z"/>
	<path fill="#F8CA32" d="M1491.8,411.6c-0.8-0.2-5.4-1.5-12.7-3.7c-7.4-2.2-17.5-5.2-29.6-8.7c-12-3.4-26-7.3-40.9-11
		c-14.9-3.6-30.8-7.1-46.8-9.6c-8-1.3-16-2.4-23.9-3.2c-3.9-0.5-7.9-0.7-11.7-1.1c-1.9-0.1-3.9-0.2-5.8-0.4c-1-0.1-1.9-0.1-2.9-0.2
		c-0.9,0-1.9-0.1-2.8-0.1c-1.9-0.1-3.7-0.1-5.6-0.2c-1.8,0-3.7,0-5.5-0.1c-0.9,0-1.8,0-2.7,0c-0.9,0-1.8,0-2.7,0
		c-1.8,0-3.5,0-5.2,0.1c-3.4,0.1-6.8,0.2-10,0.4c-1.6,0.1-3.2,0.2-4.8,0.3c-0.8,0.1-1.5,0.1-2.3,0.2c-0.8,0.1-1.5,0.1-2.3,0.2
		c-6,0.5-11.4,1.2-16.2,2c-2.4,0.4-4.6,0.8-6.7,1.1c-2.1,0.4-4,0.8-5.7,1.1c-0.9,0.2-1.7,0.3-2.4,0.5c-0.8,0.2-1.5,0.3-2.1,0.5
		c-1.3,0.3-2.4,0.6-3.4,0.8c-1.8,0.4-2.8,0.6-2.8,0.6c6-5.6,12.4-11.1,19.2-16.3c20.8-2.3,41.6-2.3,62.1-0.4
		c20.5,1.9,40.6,5.5,60.4,10.2C1415.6,384.2,1453.7,397.9,1491.8,411.6z"/>
	<path fill="#F8CA32" d="M1394.6,402.5c-1-0.1-11.5-2.6-26.7-5.3c-15.2-2.8-35-5.5-54.6-6.2c-9.8-0.4-19.5-0.3-28.6,0.2
		c-9,0.5-17.4,1.5-24.5,2.5c-3.5,0.6-6.8,1.1-9.6,1.7c-1.4,0.3-2.8,0.5-4,0.8c-1.2,0.3-2.4,0.5-3.4,0.8c-2,0.5-3.6,0.8-4.7,1.1
		c-1.1,0.3-1.7,0.4-1.7,0.4l1.3-1.4l1.3-1.3l2.7-2.6l2.8-2.6l2.9-2.5c12.2-1.8,24.5-2.7,36.8-2.7c12.3,0,24.6,0.7,36.9,2.1
		C1346,390.1,1370.4,395.6,1394.6,402.5z"/>
	<path fill="#F8CA32" d="M1471.6,448c-0.8-0.2-5.3-1.5-12.6-3.6c-7.3-2.1-17.3-5.1-28.9-8.3c-11.7-3.3-25.1-6.8-39.1-10.1
		c-14.1-3.2-28.9-6.2-43.5-8.3c-7.3-1-14.5-1.9-21.5-2.4c-3.5-0.3-7-0.5-10.4-0.7c-3.4-0.1-6.8-0.3-10.1-0.3
		c-6.6-0.2-12.9,0.1-18.8,0.3c-1.5,0.1-2.9,0.2-4.4,0.3c-1.4,0.1-2.8,0.2-4.2,0.3c-2.7,0.3-5.4,0.5-7.9,0.9c-2.5,0.3-5,0.6-7.2,1
		c-2.3,0.4-4.5,0.7-6.5,1.1c-2,0.4-3.9,0.8-5.7,1.1c-1.7,0.4-3.3,0.8-4.8,1.1c-0.7,0.2-1.4,0.3-2,0.5c-0.6,0.2-1.2,0.3-1.8,0.5
		c-1.1,0.3-2,0.5-2.8,0.7c-1.5,0.4-2.3,0.6-2.3,0.6c4.7-5.5,9.8-11,15.4-16.1c8.8-1.2,17.7-1.9,26.7-2.2c8.9-0.3,17.9,0,27,0.6
		c18.1,1.3,36.2,4.2,54.5,8.4c18.3,4.1,36.6,9.4,55.1,15.3C1434,434.6,1452.6,441.2,1471.6,448z"/>
</g>
<path fill="#F8CA32" d="M1282.8,792.6c0,0-152.1-150.1-350-57.8c-162.7,75.9-126.5,272.1-126.5,272.1s-99.9-238-239.3-248.7
	C427.6,747.4,226,945.6,226,945.6s112.5-153.4,37.7-326.3C208.6,491.9,0,448.4,0,448.4s351.1,0,302.5-295.4c0,0,290.2,293.7,383-153
	c0,0,143.1,440.1,416.6,62.6c0,0-137.7,361.6,355.1,219C1457.1,281.6,976.9,461,1282.8,792.6z"/>
<path fill="#EDE8E0" d="M1244.1,457.1c0-43.9-28.7-81.2-68.4-93.9c-13.2-87.1-88.4-153.9-179.2-153.9c-20.3,0-39.7,3.4-57.9,9.5
	c-10.5-44-50.1-76.8-97.4-76.8c-54.1,0-98.2,43-100,96.7c-12.4-15.7-31.6-25.8-53.1-25.8c-9.1,0-17.7,1.8-25.7,5.1
	c-9.6-43.4-48.3-75.9-94.6-75.9c-43.6,0-80.4,28.7-92.6,68.3c-16.6-6-34.6-9.3-53.3-9.3c-86.2,0-156,69.9-156,156
	c0,2.9,0.1,5.8,0.3,8.7c-53.1,19.3-91.1,70.2-91.1,130c0,73.9,57.9,134.2,130.9,138.1c-4.1,10.9-6.3,22.7-6.3,35
	c0,55,44.6,99.7,99.7,99.7c14.4,0,28.1-3.1,40.5-8.6c40.6,53.2,104.7,87.6,176.8,87.6c49.5,0,95.2-16.2,132.2-43.6
	c14.8,35.9,50,61.1,91.2,61.1c29.1,0,55.3-12.6,73.3-32.7c22.5,12,48.1,18.9,75.4,18.9c86.2,0,156.5-68.3,159.7-153.7
	c34.6-23.7,57.3-63.6,57.3-108.7c0-16.7-3.1-32.7-8.8-47.4C1225.1,524.1,1244.1,492.8,1244.1,457.1z"/>
<g>
	<path d="M737,246.6c0,0-1.1-0.9-2.8-2.6c-0.9-0.8-2-1.7-3.3-2.8c-1.3-1.1-2.8-2.2-4.5-3.4c-0.8-0.6-1.7-1.2-2.6-1.8
		c-0.5-0.3-0.9-0.6-1.4-0.9c-0.5-0.3-1-0.6-1.5-0.9c-1-0.6-2-1.3-3.1-1.8c-1.1-0.6-2.1-1.2-3.3-1.7c-1.1-0.5-2.3-1.1-3.5-1.6
		c-1.2-0.5-2.4-1-3.6-1.5c-0.6-0.2-1.2-0.5-1.9-0.7c-0.6-0.2-1.3-0.4-1.9-0.6c-0.6-0.2-1.3-0.4-1.9-0.6l-1.9-0.5
		c-1.3-0.4-2.6-0.7-3.9-0.9c-1.3-0.3-2.6-0.5-3.9-0.7c-2.6-0.4-5.2-0.7-7.7-0.8l-0.9-0.1l-0.4,0l-0.5,0c-0.6,0-1.3,0-1.9,0
		c-1.2,0-2.4,0-3.6,0c-2.3,0.1-4.5,0.2-6.6,0.5c-2,0.2-3.9,0.5-5.6,0.8c-1.6,0.3-3.1,0.6-4.3,0.9c-1.2,0.3-2.1,0.5-2.8,0.6
		c-0.6,0.2-1,0.2-1,0.2s0.3-0.2,0.9-0.5c0.6-0.3,1.4-0.8,2.5-1.3c1.1-0.5,2.5-1.2,4.1-1.8c1.6-0.6,3.5-1.2,5.5-1.8
		c2.1-0.6,4.3-1,6.8-1.4c1.2-0.2,2.5-0.3,3.8-0.4c0.7-0.1,1.3-0.1,1.9-0.1l0.5,0l0.5,0l1,0c1.3,0,2.7,0,4.1,0.1
		c1.4,0.1,2.8,0.1,4.2,0.4c1.4,0.2,2.8,0.3,4.2,0.7c1.4,0.3,2.8,0.6,4.2,1l2.1,0.6c0.7,0.2,1.4,0.5,2.1,0.7c0.7,0.2,1.4,0.5,2,0.7
		c0.7,0.3,1.3,0.5,2,0.8c0.7,0.3,1.3,0.5,2,0.8c0.6,0.3,1.3,0.6,1.9,0.9c1.3,0.6,2.5,1.3,3.6,2c1.2,0.7,2.3,1.4,3.4,2.1
		c1.1,0.7,2.1,1.5,3.1,2.2c1,0.7,1.9,1.5,2.8,2.3c0.9,0.8,1.7,1.5,2.4,2.3c0.7,0.8,1.5,1.4,2.1,2.2c0.6,0.7,1.2,1.4,1.8,2.1
		c1.1,1.3,2,2.6,2.7,3.6C736.3,245.4,737,246.6,737,246.6z"/>
</g>
<g>
	<path fill="#A7A9AC" d="M943.5,238.6c0,0-0.3-1.3-0.9-3.7c-0.6-2.4-1.6-5.9-3-10.3c-1.5-4.3-3.6-9.5-6.4-15.1
		c-1.4-2.8-3.1-5.7-5-8.6c-0.9-1.5-1.7-3.1-2.5-4.7c-0.9-1.6-1.9-3.2-2.9-4.8c-4.2-6.3-9.5-12.8-15.9-18.6
		c-6.4-5.9-14-11.3-22.5-15.6c-8.5-4.4-17.8-7.6-27.7-9.4c-4.9-0.9-9.9-1.4-14.9-1.4c-1.1,0-2.6,0-3.8,0c-1.2,0-2.5,0.1-3.8,0.2
		c-2.5,0.2-5.1,0.4-7.6,0.8c-10.1,1.4-19.9,4.2-28.9,8.5c-9,4.3-17.1,10-23.8,16.6c-6.7,6.6-12.1,14.2-16.1,21.9
		c-4.1,7.7-6.8,15.5-8.7,23c-1.1,3.7-1.3,7.4-2.4,10.8c-0.9,3.4-1.6,6.7-2.2,9.8c-1.1,6.2-1.9,11.8-2.3,16.4
		c-0.2,2.3-0.4,4.4-0.5,6.2c-0.1,1.8-0.2,3.3-0.3,4.6c-0.1,2.5-0.2,3.8-0.2,3.8s-0.3-1.3-0.8-3.8c-0.4-2.5-1.1-6.1-1.6-10.8
		c-0.5-4.7-1-10.4-1.1-17c0-3.3,0.1-6.9,0.3-10.6c0.1-3.8,1.4-7.6,2.2-11.6c2-8,5-16.5,9.5-24.9c4.4-8.4,10.3-16.7,17.8-24.1
		c7.4-7.3,16.4-13.6,26.3-18.3c9.9-4.7,20.6-7.8,31.6-9.3c2.7-0.4,5.5-0.6,8.2-0.8c1.4-0.1,2.7-0.2,4.2-0.2c1.4,0,2.6-0.1,4.1,0
		c5.5,0,11.1,0.6,16.4,1.5c10.8,1.9,21,5.5,30.2,10.2c9.2,4.7,17.4,10.6,24.4,17c7,6.4,12.8,13.4,17.3,20.3c1.1,1.7,2.2,3.5,3.2,5.2
		c1,1.7,2.1,3.3,2.8,5.1c1.4,3.5,2.6,6.9,3.5,10.1c0.9,3.2,1.6,6.3,2.1,9.1c0.5,2.8,0.9,5.4,1.1,7.8c0.5,4.7,0.5,8.4,0.5,10.9
		c0,1.3-0.1,2.2-0.1,2.9C943.5,238.3,943.5,238.6,943.5,238.6z"/>
</g>
<path fill="#A7A9AC" d="M1176.9,556.2c1.2-0.9,2.4-1.7,3.6-2.5l3.5-2.6l3.4-2.7l3.3-2.8c4.3-3.8,8.3-7.8,12-12
	c8.3-7.4,15.4-16.1,21.3-25.5c11.7-18.8,18.2-41.2,15-63c-1.5-10.9-4.9-21.5-10.1-31.2c-5.2-9.7-12.2-18.4-20.4-25.9
	c-8.2-7.4-17.6-13.5-27.7-18.2c-4.8-3-9.7-5.7-14.9-8.2c-2.6-1.2-5.2-2.5-7.9-3.5c-2.6-1.2-5.4-2.2-8.1-3.3c2.9,0.2,5.8,0.4,8.7,0.8
	c2.9,0.3,5.8,0.9,8.7,1.4c5.8,1.2,11.5,2.7,17.2,4.6c10.7,5.2,20.9,11.7,29.9,19.8c8.9,8.1,16.5,17.6,22.2,28.3
	c5.7,10.6,9.5,22.3,11.1,34.3c0.8,6,1.1,12,0.7,18.1c-0.4,6.1-1.3,12.1-2.8,17.9c-3,11.7-7.9,22.8-14.2,32.9
	c-6.3,10.2-14.1,19.4-22.9,27.4c-4.9,3.5-10,6.7-15.3,9.3l-4,1.9l-4.1,1.8l-4.1,1.5C1179.6,555.3,1178.3,555.7,1176.9,556.2z"/>
<g>
	<path fill="#A7A9AC" d="M884,824.8c0,0,1.4,0.6,4,1.6c2.6,1.1,6.4,2.5,11.4,4.2c4.9,1.7,10.9,3.5,17.9,5.5c3.5,1,7.2,1.9,11.1,2.8
		c2,0.5,4,0.9,6,1.3c2.1,0.4,4.2,1,6.3,1.6c4.2,1.3,8.7,2.3,13.3,3.3c4.6,1,9.4,1.9,14.4,2.5c4.9,0.7,10,1.2,15.2,1.3
		c0.6,0,1.2,0,1.9,0c0.7,0,1.4,0,2,0c0.7,0,1.4,0,2,0l2-0.1c1.3,0,2.6-0.1,4-0.2c1.3-0.1,2.7-0.2,4-0.3c10.8-1,21.9-3.1,32.8-6.5
		c10.9-3.3,21.6-7.9,31.8-13.6c10.1-5.7,19.6-12.4,28.1-20c8.5-7.6,16-16,22.4-24.8c6.3-8.8,11.4-18,15.4-27.1
		c4-9.1,6.7-18.1,8.6-26.6c0.4-2.1,0.9-4.2,1.2-6.2c0.2-1,0.3-2,0.5-3c0.1-1,0.2-2,0.4-3c0.4-1.9,0.8-3.8,1.2-5.7
		c0.3-1.9,0.7-3.7,1-5.4c0.2-1.8,0.5-3.5,0.7-5.1c0.2-1.7,0.4-3.3,0.5-4.8c0.1-1.6,0.3-3,0.4-4.5c0.1-1.4,0.2-2.8,0.3-4.1
		c0.3-5.2,0.4-9.3,0.4-12.1c0-2.8,0-4.3,0-4.3s0.3,1.5,1,4.2c0.6,2.8,1.5,6.8,2.2,12c0.8,5.2,1.4,11.7,1.6,19.1
		c0,3.7,0.1,7.7-0.2,11.9c-0.2,2.1-0.7,4.2-1.1,6.4c-0.4,2.2-0.8,4.4-1.3,6.6c-2,9-4.9,18.6-9.1,28.2c-4.2,9.7-9.6,19.5-16.3,28.8
		c-6.7,9.3-14.7,18.3-23.7,26.3c-9,8-19.1,15.1-29.7,21.1c-10.7,6-22,10.8-33.5,14.3c-11.5,3.5-23.2,5.8-34.6,6.9
		c-1.4,0.1-2.9,0.3-4.3,0.3c-1.4,0.1-2.8,0.2-4.3,0.2c-0.7,0-1.4,0.1-2.1,0.1c-0.7,0-1.4,0-2,0c-0.7,0-1.4,0-2,0c-0.7,0-1.4,0-2.2,0
		c-5.6-0.1-11-0.7-16.2-1.4c-5.2-0.7-10.2-1.6-15-2.7c-4.8-1-9.4-2.2-13.8-3.2c-2.2-0.5-4.3-1.2-6.4-1.9c-2-0.8-4-1.5-5.9-2.3
		c-3.8-1.5-7.4-3.1-10.8-4.6c-6.7-3-12.4-6-17-8.5c-4.6-2.5-8.1-4.7-10.5-6.2c-1.2-0.7-2.1-1.4-2.7-1.8
		C884.3,825,884,824.8,884,824.8z"/>
</g>
<g>
	<path fill="#EDE8E0" d="M1108.7,664c-8.9-23.3-27.1-50.8-42.1-63.6c-47.3-40.7-129.4-43.3-173.7,24.5"/>
	<path fill="#A7A9AC" d="M1108.7,664c0,0-0.5-1-1.4-2.8c-0.4-0.9-1-2-1.7-3.3c-0.7-1.3-1.5-2.8-2.4-4.4c-1.8-3.3-4.1-7.2-6.9-11.7
		c-2.8-4.4-6.1-9.3-9.9-14.4c-3.8-5.2-8.2-10.6-13.1-15.8c-2.5-2.6-5.1-5.3-8-7.6l-1-0.9l-1.2-0.9l-1.2-0.9l-1.1-0.8
		c-0.8-0.6-1.5-1.1-2.3-1.7c-0.8-0.6-1.6-1.1-2.4-1.7c-6.5-4.4-13.6-8.3-21.2-11.4c-7.6-3.2-15.6-5.6-23.7-7.3
		c-8.2-1.6-16.5-2.4-24.6-2.4c-8.2,0.1-16.2,1-23.8,2.7c-7.6,1.7-14.8,4.1-21.4,7c-6.6,2.9-12.5,6.3-17.7,9.9
		c-2.6,1.8-5.1,3.6-7.3,5.4c-2.3,1.8-4.4,3.6-6.3,5.3c-1.9,1.8-3.7,3.5-5.2,5.1c-0.8,0.8-1.5,1.6-2.3,2.3c-0.7,0.8-1.4,1.5-2,2.2
		c-2.5,2.8-4.4,5.1-5.7,6.6c-1.3,1.6-2,2.4-2,2.4s0.5-0.9,1.5-2.7c1-1.8,2.5-4.3,4.7-7.5c2.1-3.2,4.9-6.9,8.4-10.9
		c1.8-2,3.7-4.1,5.9-6.2c2.1-2.1,4.5-4.2,7.1-6.3c2.6-2.1,5.3-4.2,8.3-6.2c3-2,6.2-3.9,9.6-5.7c3.4-1.8,7-3.4,10.7-4.9
		c3.8-1.5,7.7-2.7,11.7-3.8c8.1-2.1,16.8-3.4,25.6-3.6c8.8-0.2,17.8,0.6,26.6,2.4c8.8,1.8,17.3,4.6,25.3,8.2
		c8,3.6,15.5,8.1,22.2,13.1c0.8,0.6,1.7,1.3,2.5,1.9c0.8,0.6,1.6,1.3,2.4,2l1.2,1l1.1,1l1.1,1l1.1,1.1c3,2.8,5.6,5.7,8,8.6
		c4.8,5.9,8.8,11.8,12.3,17.3c3.5,5.6,6.3,10.8,8.7,15.6c0.6,1.2,1.2,2.3,1.7,3.5c0.5,1.1,1,2.2,1.5,3.3c0.5,1,0.9,2.1,1.3,3
		c0.4,1,0.8,1.9,1.1,2.8c0.7,1.7,1.3,3.4,1.8,4.7c0.5,1.4,0.9,2.6,1.2,3.5C1108.4,663,1108.7,664,1108.7,664z"/>
</g>
<g>
	<path fill="#EDE8E0" d="M441.1,651.7c-4.4,28.2,8,57.5,33.9,73.2c18.3,11.1,39.5,13.2,58.5,7.5"/>
	<path fill="#A7A9AC" d="M441.1,651.7c0,0,0.1,0.6,0.3,1.7c0.1,0.5,0.2,1.2,0.3,2c0.1,0.8,0.2,1.7,0.5,2.7c0.4,2,0.8,4.3,1.6,6.9
		c0.2,0.7,0.3,1.3,0.5,2c0.2,0.7,0.5,1.4,0.7,2.1c0.3,0.7,0.3,1.5,0.3,2.2c0,0.8,0.2,1.5,0.3,2.3c0.3,1.6,0.5,3.2,1,4.9
		c0.2,0.8,0.4,1.7,0.6,2.6c0.2,0.9,0.5,1.7,0.8,2.6c0.3,0.9,0.6,1.8,0.9,2.7c0.4,0.9,0.7,1.8,1.1,2.7c0.7,1.8,1.6,3.6,2.5,5.4
		c0.4,0.9,1,1.8,1.5,2.7c0.5,0.9,1,1.8,1.6,2.7c0.6,0.8,1.2,1.7,1.8,2.6c0.6,0.9,1.2,1.7,1.9,2.5c0.7,0.8,1.3,1.6,2,2.5
		c0.7,0.8,1.4,1.6,2.2,2.3c0.8,0.8,1.4,1.6,2.2,2.3l2.4,2.2c0.8,0.8,1.6,1.4,2.5,2l2.5,2c0.9,0.6,1.8,1.2,2.7,1.8l1.3,0.9l0.3,0.2
		c0.1,0.1-0.1-0.1-0.1,0l0,0l0.1,0.1l0.2,0.1l0.7,0.4l1.5,0.8c0.5,0.3,1,0.6,1.4,0.8c0.9,0.5,1.8,0.9,2.7,1.4
		c0.9,0.4,1.9,0.8,2.8,1.2c0.9,0.4,1.9,0.7,2.8,1.1c3.8,1.4,7.5,2.4,11.2,3c3.6,0.6,7.1,1,10.3,1c0.8,0,1.6,0,2.4,0
		c0.4,0,0.8-0.1,1.1-0.1c0.4,0,0.7,0.1,1.1,0.1c1.5,0.2,2.9,0.5,4.3,0.7c0.7,0.1,1.3,0.2,2,0.2c0.6,0.1,1.3,0.1,1.9,0.2
		c1.2,0.1,2.3,0.2,3.3,0.2c1,0,1.9,0.1,2.7,0.1c0.8,0,1.5,0,2,0c1.1,0,1.7,0,1.7,0s-0.5,0.3-1.5,0.9c-0.5,0.3-1.1,0.6-1.8,1
		c-0.7,0.4-1.6,0.8-2.5,1.3c-0.9,0.5-2,0.9-3.2,1.4c-1.2,0.5-2.5,1-3.9,1.4c-1.4,0.5-3,0.9-4.6,1.3c-0.8,0.3-1.7,0.3-2.5,0.2
		c-0.9-0.1-1.8,0-2.7,0c-3.6-0.1-7.6-0.5-11.7-1.2c-4.1-0.7-8.4-1.9-12.7-3.4c-1.1-0.4-2.2-0.8-3.2-1.2c-1.1-0.5-2.1-0.9-3.2-1.4
		c-1.1-0.5-2.2-1.1-3.2-1.6c-0.6-0.3-1-0.6-1.5-0.8l-1.5-0.8l-0.7-0.4l-0.5-0.3l-0.4-0.2l-1.5-1c-1-0.7-2-1.3-3-2l-2.9-2.2
		c-1-0.7-1.9-1.5-2.8-2.3l-2.7-2.5c-0.9-0.8-1.7-1.7-2.5-2.6c-0.8-0.9-1.7-1.7-2.4-2.7c-0.8-0.9-1.5-1.9-2.3-2.8
		c-0.8-0.9-1.5-1.9-2.1-2.9c-0.7-1-1.3-1.9-2-2.9c-0.6-1-1.2-2-1.8-3c-0.6-1-1.2-2-1.7-3c-1-2-2.1-4-2.8-6.1c-0.4-1-0.8-2-1.2-3
		c-0.3-1-0.7-2-1-3c-0.3-1-0.7-2-0.9-2.9c-0.2-1-0.5-2-0.7-2.9c-0.5-1.9-0.8-3.8-1.1-5.6c-0.2-0.9-0.3-1.8-0.4-2.6
		c-0.2-0.9-0.3-1.7-0.2-2.5c0.1-0.8,0.2-1.7,0.3-2.4c0.1-0.8,0.3-1.5,0.4-2.3c0.5-2.9,1.3-5.5,1.9-7.5c0.3-1,0.7-1.9,1-2.6
		c0.3-0.7,0.6-1.4,0.8-1.9C440.9,652.3,441.1,651.7,441.1,651.7z"/>
</g>
<g>
	<path fill="#EDE8E0" d="M830.7,788.8c25.2,13.4,57,11.1,80.3-8.2c16.5-13.6,25.4-33,26.2-52.9"/>
	<path fill="#A7A9AC" d="M830.7,788.8c0,0,0.6,0.1,1.7,0.3c0.5,0.1,1.2,0.2,2,0.4c0.8,0.1,1.7,0.4,2.7,0.4c2,0.2,4.3,0.6,7.1,0.7
		c0.7,0.1,1.4,0.1,2.1,0.2c0.7,0,1.5,0,2.2,0c0.8,0,1.5,0.2,2.2,0.5c0.7,0.3,1.5,0.3,2.3,0.5c1.6,0.2,3.2,0.6,5,0.7
		c0.9,0.1,1.7,0.2,2.6,0.2c0.9,0.1,1.8,0.1,2.7,0.1c0.9,0,1.9,0,2.8,0c0.9-0.1,1.9-0.1,2.9-0.2c1.9,0,3.9-0.4,5.9-0.6
		c1-0.1,2-0.3,3-0.5c1-0.2,2-0.4,3-0.6c1-0.3,2-0.6,3-0.9c1-0.3,2-0.6,3-0.9c1-0.4,2-0.7,3-1.1c1-0.4,1.9-0.9,2.9-1.3
		c1-0.5,2-0.8,2.9-1.4l2.8-1.5c1-0.5,1.8-1.1,2.7-1.7l2.7-1.8c0.8-0.7,1.7-1.3,2.5-1.9l1.3-1l0.3-0.2c0.1-0.1-0.1,0.1-0.1,0l0,0
		l0.1-0.1l0.2-0.1l0.6-0.6l1.3-1.1c0.4-0.4,0.9-0.7,1.2-1.1c0.7-0.7,1.4-1.4,2.2-2.1c0.7-0.8,1.4-1.5,2.1-2.3c0.7-0.7,1.3-1.6,2-2.3
		c2.5-3.1,4.7-6.4,6.5-9.6c1.8-3.2,3.2-6.4,4.3-9.4c0.3-0.7,0.5-1.5,0.7-2.2c0.1-0.4,0.2-0.8,0.3-1.1c0.1-0.4,0.3-0.7,0.5-1
		c0.7-1.3,1.4-2.6,2-3.8c0.3-0.6,0.6-1.2,0.9-1.8c0.3-0.6,0.5-1.2,0.8-1.7c0.5-1.1,1-2.1,1.3-3.1c0.4-0.9,0.7-1.8,1-2.5
		c0.3-0.8,0.5-1.4,0.7-1.9c0.4-1,0.6-1.6,0.6-1.6s0.1,0.6,0.4,1.7c0.1,0.6,0.2,1.2,0.4,2c0.1,0.8,0.2,1.7,0.4,2.8
		c0.1,1.1,0.2,2.2,0.3,3.5c0.1,1.3,0.1,2.7,0.1,4.2c0,1.5-0.1,3.1-0.2,4.8c0,0.9-0.3,1.7-0.7,2.5c-0.4,0.8-0.6,1.7-0.9,2.5
		c-1.3,3.4-2.9,7-4.9,10.7c-2,3.6-4.5,7.3-7.4,10.9c-0.7,0.9-1.4,1.8-2.2,2.6c-0.8,0.9-1.6,1.7-2.4,2.6c-0.9,0.8-1.7,1.7-2.6,2.5
		c-0.4,0.4-0.9,0.8-1.3,1.2l-1.3,1.1l-0.6,0.6l-0.4,0.4l-0.4,0.3l-1.4,1.1c-1,0.7-1.9,1.5-2.9,2.2l-3,2c-1,0.7-2,1.3-3.1,1.9
		l-3.2,1.7c-1,0.6-2.2,1-3.3,1.6c-1.1,0.5-2.2,1-3.3,1.4c-1.1,0.4-2.3,0.8-3.4,1.2c-1.1,0.4-2.3,0.8-3.4,1.1c-1.1,0.3-2.3,0.6-3.4,1
		c-1.1,0.2-2.3,0.5-3.4,0.7c-1.1,0.2-2.3,0.5-3.4,0.6c-2.3,0.3-4.5,0.6-6.7,0.7c-1.1,0.1-2.2,0.1-3.2,0.2c-1.1,0-2.1,0-3.2,0
		c-1,0-2.1,0-3.1-0.1c-1-0.1-2-0.2-3-0.3c-2-0.1-3.8-0.5-5.6-0.8c-0.9-0.1-1.8-0.3-2.6-0.4c-0.9-0.1-1.7-0.3-2.5-0.7
		c-0.8-0.4-1.5-0.7-2.2-1.1c-0.7-0.4-1.4-0.8-2-1.1c-2.6-1.4-4.8-3-6.5-4.2c-0.9-0.6-1.5-1.2-2.2-1.8c-0.6-0.5-1.1-1-1.5-1.4
		C831.2,789.2,830.7,788.8,830.7,788.8z"/>
</g>
<g>
	<path fill="#FFFFFF" d="M833.9,344.3l-15.1,9.8c-14-0.3-56.7-1.1-66.2-1.3c0-0.1,0-0.1,0.1-0.1c0,0-3.2,0.1-3.5,0.1
		c-0.3,0-3.5-0.1-3.5-0.1c0,0,0,0,0.1,0.1c-11.5,0.2-70.7,1.3-70.7,1.3s-31.9,40.5-29.2,92.2c2.9,56,42.6,51.1,90.4,49.2
		c32.9,1.3,54-3.2,73.7-27.7h36.9C891.7,416.9,833.9,344.3,833.9,344.3z"/>
</g>
<g>
	<path fill="#3BB7A3" d="M844.6,419.2c0,0-26-13.2-11.6-39.8C833,379.4,859,384.8,844.6,419.2z"/>
	<g>
		<path fill="#797A7D" d="M846,418.7c-4.4-2.3-8.2-5.9-11.1-9.8c-6.7-9.1-5.4-20.2-0.4-29.7c-0.9,0.3-1.7,0.5-2.6,0.8
			c4.3,0.9,8.4,3.8,11.2,7.1c7.6,9.2,4.2,22.5,0.2,32.4c-0.2,0.4,2.6,0.2,2.8-0.5c4.2-10.5,7.3-23.6-0.6-33.2c-2.8-3.3-7-6-11.2-6.9
			c-0.6-0.1-2.3,0.2-2.6,0.8c-5.1,9.8-6.1,20.5,0.4,30c2.8,4.1,6.9,7.7,11.3,10C844,420,846.3,418.8,846,418.7z"/>
	</g>
</g>
<polygon fill="#ABADB0" points="565.5,485.3 585.8,532.8 527.3,527 523.7,493 "/>
<path fill="#E57C39" d="M341.9,419.7c0,0-30.3,15.5-40.8,103.5l21.8,37.1c0,0,168.6-4.8,212.5-26.9l-8-31.7l41.3-9.1
	c0,0-23.7-67.7-82.1-68L341.9,419.7z"/>
<path fill="#D54849" d="M498.1,433.7l-16.6,33c-2.8,6.4-11,8.2-16.2,3.5L451,457.6l-12.8,18.9c-3,4.5-9,5.9-13.7,3.1L387,457.8
	L498.1,433.7z"/>
<path fill="#CB7639" d="M365.9,542.3l8.7-29.3c0.3-1-0.2-1.6-0.6-0.7L363.7,541L365.9,542.3z"/>
<g>
	<linearGradient id="SVGID_1_" gradientUnits="userSpaceOnUse" x1="873.3956" y1="523.8521" x2="1130.4351" y2="523.8521">
		<stop  offset="0" style="stop-color:#C0C2C4"/>
		<stop  offset="1" style="stop-color:#ADAFB2"/>
	</linearGradient>
	<path fill="url(#SVGID_1_)" d="M1059.5,427c0,0,43.6,26.6,61.8,74.7c18.2,48.1,7.8,71.5-20.9,87.8c-25.8,14.7-38.9,18.8-49.9,28
		c-2.4,2.1-5.5,3.3-8.7,3.3h-25c-7.4,0-13.5-5.8-13.8-13.2c-0.3-9.4,1.3-23,9.3-37.7h-29.4c0,0,6.9,10,10.6,19.4
		c1.8,4.5-0.7,9.6-5.3,11.2L953.6,612c-2.3,0.8-4.9,0.5-7-0.7c-7.8-4.6-28-16-44.2-23c-20.5-8.8-35.2-36.7-26.4-60.1
		s59-79.5,59-79.5L1059.5,427z"/>
	<path fill="#F5B949" d="M901.6,488.8l81.5,81.1h29.4l17.8-16.4l86.3-62.9c0,0-28.7-54.6-67.5-66.1L935,448.7L901.6,488.8z"/>
	<ellipse fill="#2F8F6D" cx="1000.2" cy="466.7" rx="65.7" ry="46"/>
	<ellipse fill="#91929D" cx="997.6" cy="459.4" rx="58" ry="40.7"/>
	<path fill="#ABADB0" d="M915,258.4c0,0-1.2-4.5,9.1-6.1c10.3-1.6,24.6-0.3,32.4,10.3c7.8,10.6,11.4,15.7,11.4,15.7l-30.1,21.7
		c0,0-7.4-22.2-13.5-29S914.9,263.3,915,258.4z"/>
	
		<linearGradient id="SVGID_2_" gradientUnits="userSpaceOnUse" x1="660.3248" y1="719.8967" x2="712.8708" y2="838.8981" gradientTransform="matrix(0.9706 0.2409 -0.2409 0.9706 525.633 -546.3799)">
		<stop  offset="0" style="stop-color:#C7C8CA"/>
		<stop  offset="1" style="stop-color:#B1B3B6"/>
	</linearGradient>
	<path fill="url(#SVGID_2_)" d="M1112.8,298.3c0.8-4.5-1.8-8.9-6.1-10.4c-33.5-11.6-54.2,14.4-54.2,14.4l0,0
		c-3.1-2.8-6.5-5.4-10.2-7.7c-26.6-17.1-64.1-25.8-93.1-9.2c-5,2.9-9.7,6.6-13.9,11.1c-24.8,26.5-23.9,56.1-33.6,89.5
		c-6.6,22.4-17.1,41-4,63.4c10.1,17.3,28.7,29.6,47.6,35.1c90.9,26.6,122.4-40,125.9-54.1c4.7-19,8.7-38.4,9.2-58
		c0.3-10.8-0.9-21.2-3.7-30.9c-2.6-9.2,3.1-18.7,12.4-20.9c0.1,0,0.2,0,0.2-0.1C1106.4,316.4,1111.4,305.7,1112.8,298.3z"/>
	<path fill="#5F6062" d="M918.7,407.7c-0.7,1.2-1.3,2.5-1.7,3.8c-0.4,1.3-0.6,2.6-0.6,3.9c0,1.3,0.7,2.3,1,3.4
		c0.1,0.6,0.4,1.1,0.6,1.8c0.2,0.6,0.6,1.2,0.8,2.1l0,0c0,0.1,0,0.2-0.1,0.2c0,0-0.1,0-0.1,0c-1.5-0.4-2.9-1.4-3.8-2.8
		c-0.5-0.7-0.7-1.5-0.8-2.4l0-1.2c0-0.4,0.1-0.8,0.1-1.2c0.2-1.6,0.8-3,1.6-4.3c0.8-1.3,1.7-2.4,2.8-3.4c0.1-0.1,0.2,0,0.2,0
		C918.8,407.5,918.8,407.6,918.7,407.7L918.7,407.7z"/>
	<path fill="#5F6062" d="M973,417.3c1.2,1.1,2,2.6,2.5,4.2c0.5,1.6,0.5,3.4,0.1,5.1c-0.3,1.7-0.9,3.4-2,4.6
		c-0.6,0.6-1.2,1.2-1.9,1.7c-0.7,0.4-1.5,0.8-2.3,1.1c-0.1,0-0.2,0-0.2-0.1c0,0,0-0.1,0-0.1l0,0c0.3-0.9,0.6-1.6,1-2.2
		c0.3-0.7,0.7-1.3,1-2c0.3-0.7,0.8-1.2,1.1-1.8l0.6-0.9l0.5-0.9c0.5-1.3,0.8-2.7,0.7-4.1c-0.1-1.4-0.5-2.9-1.3-4.2l0,0
		c0-0.1,0-0.2,0-0.2C972.9,417.3,973,417.3,973,417.3z"/>
	<path fill="#5F6062" d="M934.8,418.9c0.1-0.6-0.3-1.3-1.6-2.3c-2.2-1.7-8.8-4-10-0.5c-0.9,2.6,0.6,3.9,3.4,4.4
		C929.1,420.8,934.4,420.6,934.8,418.9z"/>
	<path fill="#5F6062" d="M951.3,421.8c0.1-0.6,0.9-1,2.7-1.3c3-0.5,10.6,0.3,10.3,3.9c-0.2,2.6-2.3,3.1-5.4,2.3
		C956.2,425.9,950.9,423.4,951.3,421.8z"/>
	<g>
		<path fill="#797A7D" d="M925.2,535.6c5.3,0,10.6,1.1,15.7,2.6c2.6,0.7,5,1.7,7.5,2.7l3.6,1.7c1.2,0.6,2.4,1.2,3.6,1.8
			c1.2,0.6,2.3,1.3,3.4,2l1.7,1.1c0.6,0.4,1.1,0.7,1.7,1.1l3.2,2.4c1.1,0.8,2,1.7,3.1,2.6l1.5,1.3l0.7,0.7l0.7,0.7l2.8,2.9
			c0.9,0.9,1.7,2,2.6,3c0.8,1,1.6,2.1,2.4,3.1c-1-0.9-2-1.8-2.9-2.7c-1-0.9-1.9-1.8-2.9-2.6c-2-1.7-4-3.4-6.1-4.9
			c-4.1-3.2-8.5-6-13-8.5c-4.5-2.6-9.3-4.7-14.1-6.5C935.4,538.2,930.3,536.7,925.2,535.6z"/>
	</g>
	<path fill="#F5B949" d="M1042.1,242.7c-2.8-0.7-5.7-1.1-8.5-1.3c-3.9-0.4-13.4,0.9-13.4,0.9c-9.6,2-18.5,6.9-25.4,14.2l-19.2,20.3
		l73.9,25.4c-1.8-20,8.8-39.1,26.7-48.1l3.9-2L1042.1,242.7z"/>
	<path fill="#2F8F6D" d="M1045,308l-73.7-21.2c-3-0.9-4.7-4-3.8-7l0.5-1.6c0.9-3,4-4.7,7-3.8l73.7,21.2c3,0.9,4.7,4,3.8,7l-0.5,1.6
		C1051.1,307.1,1048,308.8,1045,308z"/>
	<circle fill="#2F8F6D" cx="1082.7" cy="254" r="11.1"/>
	<rect x="988.6" y="506.9" fill="#2F8F6D" width="14.5" height="63"/>
	<circle fill="#9A9FA3" cx="921.9" cy="380.1" r="10.7"/>
	<circle fill="#5F6062" cx="921.9" cy="380.1" r="5.8"/>
	<circle fill="#9A9FA3" cx="990.2" cy="393.9" r="10.6"/>
	<circle fill="#5F6062" cx="989.3" cy="393.5" r="5.8"/>
	<path fill="#FFFFFF" d="M962.1,340.9l3.1,61.5c0.3,6-4.6,10.9-10.6,10.6c-11.5-0.6-28-3.6-29.6-15.5c-2.2-15.8,12.6-40.9,28.4-59.6
		C956.3,334.6,961.9,336.4,962.1,340.9z"/>
	<path fill="#5F6062" d="M928.9,442.6c4.6-1.4,12-0.9,14.3-0.7c9.7,0.9,19.4,4.3,26.7,10.9c7.3,6.6-5.8,6.8-9.8,6.5
		c-9.7-0.5-20.7-2.5-29.4-7.1c-1.6-0.9-3.7-2-4.7-3.6C924,445.3,925.8,443.5,928.9,442.6z"/>
	<g>
		<path fill="#5F6062" d="M941.6,425.7c0.3,1.5,0.4,2.8,0.5,4.2c0,0.3,0.1,0.7,0,1l0,1c0,0.6,0,1.3,0,1.9c-0.1,1.3,0,2.6-0.1,3.9
			c-0.1,1.3-0.2,2.6-0.5,4.1l-0.2,0.1c-0.4-1.3-0.7-2.6-0.9-4c-0.2-1.4-0.3-2.7-0.3-4.1c0.1-2.7,0.4-5.5,1.2-8.1L941.6,425.7z"/>
	</g>
	<path fill="#FFFFFF" d="M934.6,443.3c0,0-1.3,3.5,1.4,4.6c2.7,1.1,20.3,4.3,23.6,4.2c0,0,1.3-0.1,1.7-2.5v-1
		C961.2,448.6,946.3,442.6,934.6,443.3z"/>
</g>
<g>
	<path fill="#EDE8E0" d="M604.6,550c-20.5-17.6-53.2-35.5-75.6-41.5c-70.8-18.9-162.4,9.5-180.1,87.1"/>
	<path fill="#A7A9AC" d="M604.6,550c0,0-1-0.7-2.9-1.9c-0.9-0.6-2.1-1.4-3.6-2.2c-0.7-0.4-1.5-0.9-2.3-1.4c-0.8-0.5-1.7-1-2.6-1.5
		c-3.6-2.2-8.2-4.6-13.4-7.2c-1.3-0.7-2.7-1.3-4-2c-1.4-0.7-2.8-1.4-4.3-2.1c-1.5-0.7-3-1.4-4.6-2.1c-1.6-0.7-3.1-1.4-4.7-2.3
		c-0.8-0.4-1.5-0.9-2.3-1.3c-0.8-0.4-1.6-0.8-2.4-1.2c-1.6-0.9-3.3-1.7-5.1-2.5c-3.5-1.7-7.1-3.2-10.8-4.7
		c-3.8-1.5-7.7-2.9-11.7-4.1l-1.5-0.4l-0.4-0.1c0,0-0.2,0-0.1,0l-0.2-0.1l-0.8-0.2c-1.1-0.3-2.2-0.6-3.2-0.8c-2.1-0.5-4.2-1-6.4-1.4
		c-17.3-3.4-36.4-4.1-55.1-1.6c-18.7,2.4-36.9,8.1-52.4,16.4c-7.7,4.1-14.8,8.9-20.9,14c-6.2,5.1-11.4,10.5-15.7,16
		c-1.1,1.3-2.1,2.7-3.1,4.1c-1,1.4-1.8,2.8-2.7,4.1c-0.5,0.6-1,1.2-1.4,1.9c-0.5,0.6-0.9,1.2-1.4,1.8c-0.9,1.2-1.8,2.4-2.6,3.6
		c-1.6,2.4-3.1,4.6-4.3,6.8c-0.7,1.1-1.2,2.1-1.8,3.1c-0.6,1-1.1,2-1.5,2.9c-1,1.9-1.7,3.6-2.4,5.1c-0.7,1.5-1.2,2.8-1.7,3.8
		c-0.9,2.1-1.3,3.2-1.3,3.2s0.1-1.2,0.3-3.5c0.1-1.1,0.3-2.5,0.6-4.2c0.3-1.6,0.6-3.5,1.1-5.7c0.2-1.1,0.5-2.2,0.8-3.3
		c0.3-1.2,0.6-2.4,1-3.6c0.7-2.5,1.7-5.2,2.8-8.1c1.2-2.8,2.4-5.9,4.1-8.9c0.9-1.5,2-2.8,3.1-4.3c1.1-1.4,2.2-2.9,3.4-4.4
		c4.7-5.9,10.4-11.8,17-17.3c6.6-5.5,14.2-10.6,22.5-15c16.5-8.8,35.8-14.8,55.4-17.4c19.7-2.6,39.7-1.9,58,1.7
		c2.3,0.4,4.5,0.9,6.8,1.5c1.2,0.3,2.2,0.5,3.3,0.8l0.8,0.2l0.5,0.1l0.4,0.1l1.6,0.5c4.4,1.2,8.5,2.8,12.5,4.3c4,1.6,7.7,3.2,11.3,5
		c3.6,1.7,7,3.5,10.3,5.1c1.7,0.8,3.2,1.7,4.7,2.8c1.5,1,2.9,2,4.3,3c1.4,1,2.7,1.9,4,2.9c1.3,1,2.5,1.9,3.7,2.8
		c4.7,3.7,8.7,7.1,11.9,10c1.6,1.4,3,2.8,4.2,3.9c1.2,1.2,2.2,2.2,3,3C603.8,549.1,604.6,550,604.6,550z"/>
</g>
<path fill="#E57C39" d="M335.9,442.8c0,0-19,8.1-45.8,74.6l74.7,24.9l24.8-49.1L335.9,442.8z"/>
<linearGradient id="SVGID_3_" gradientUnits="userSpaceOnUse" x1="-1021.876" y1="135.2637" x2="-947.12" y2="135.2637" gradientTransform="matrix(-1.0063 -0.3086 -0.2932 0.9561 -629.6398 116.5151)">
	<stop  offset="0" style="stop-color:#BEC0C2"/>
	<stop  offset="1" style="stop-color:#B1B3B6"/>
</linearGradient>
<path fill="url(#SVGID_3_)" d="M364.8,542.3l-74.7-24.9l-3.9,18.3c-2.1,9.8,1.7,19.9,9.7,25.7l3.6,2.7c2.3,1.7,4.8,2.9,7.5,3.8
	l21.6,6.6c4.6,1.4,9.5,1.5,14.2,0.1h0c8.3-2.4,14.8-8.8,17.3-17.1L364.8,542.3z"/>
<path fill="#ABADB0" d="M455.4,260.5l71.5-6.5c24.4-2.2,48.6,6.2,66.3,23.2l0,0c25.2,24.1,33.1,61.1,20,93.3l-5.9,14.6
	c-14.1,34.7-49.2,56.1-86.4,52.6l-19.1-1.8"/>
<path fill="#939598" d="M513.1,416.9L513.1,416.9c28.5,2.6,55.4-13.8,66.2-40.3l4.5-11.2c10.9-26.7,2.8-57.7-20.4-75.8
	c-13.2-10.3-30-14.8-46.6-13.3l-40.5,3.7c-6.9,0.6-11.6,7.3-9.9,14.1l28.3,107.3C496.9,409.8,504.3,416.1,513.1,416.9z"/>
<linearGradient id="SVGID_4_" gradientUnits="userSpaceOnUse" x1="-1994.009" y1="666.4738" x2="-2048.9014" y2="814.9326" gradientTransform="matrix(-0.9829 0.184 0.184 0.9829 -1666.5372 55.2544)">
	<stop  offset="0" style="stop-color:#BCBEC0"/>
	<stop  offset="1" style="stop-color:#A3A5A8"/>
</linearGradient>
<path fill="url(#SVGID_4_)" d="M349.7,446.7c46.5,22.2,97.5,22.6,143.4-1.8c22.1-11.7,40.7-31,40.2-57.3c-0.1-7.5-1.8-14.8-4.2-21.9
	c-6.3-19.1-3.8-38.9-9.2-58.1c-3.9-14.1-12.4-26.4-23.2-36.2c-21.1-19-48.7-25-79.7-26.2c-22.8-0.9-56.5,8.4-73.3,24.9"/>
<path fill="#A7A9AC" d="M502.1,335c3.9,5.7,2.5,13.5-3.2,17.4c-5.7,3.9-13.5,2.5-17.4-3.3c-3.9-5.7-2.5-13.5,3.2-17.4
	C490.3,327.8,498.1,329.3,502.1,335z"/>
<path fill="#737577" d="M498.3,337.6c1.9,3.1,0.9,7.1-2.2,8.9c-3.1,1.8-7.1,0.9-8.9-2.2c-1.9-3.1-0.9-7.1,2.2-8.9
	C492.4,333.5,496.4,334.5,498.3,337.6z"/>
<g>
	<path fill="#797A7D" d="M419.3,326.2c0,0-0.3,0.2-0.9,0.5c-0.3,0.1-0.6,0.3-1,0.5c-0.2,0.1-0.4,0.2-0.6,0.3c-0.2,0.1-0.5,0-0.7,0.1
		c-1,0.2-2.1,0.4-3.3,0.7c-1.2,0.3-2.4,0.7-3.7,1.2c-0.6,0.3-1.2,0.5-1.8,0.8c-0.6,0.3-1.1,0.5-1.7,0.9c-0.5,0.3-1,0.6-1.5,0.9
		c-0.4,0.3-0.9,0.6-1.2,0.9c-0.2,0.1-0.3,0.4-0.5,0.4c-0.2,0.1-0.4,0.2-0.6,0.3c-0.4,0.2-0.7,0.4-1,0.5c-0.6,0.3-0.9,0.4-0.9,0.4
		s0.1-0.3,0.3-0.9c0.1-0.3,0.3-0.7,0.5-1.1c0.1-0.2,0.2-0.4,0.4-0.6c0.1-0.2,0.4-0.3,0.6-0.5c0.4-0.4,0.9-0.7,1.4-1
		c0.5-0.4,1-0.7,1.6-1c0.6-0.4,1.2-0.6,1.8-1c0.6-0.3,1.3-0.6,1.9-0.8c1.3-0.5,2.6-0.9,3.9-1.3c1.3-0.3,2.4-0.6,3.5-0.8
		c0.3,0,0.5-0.2,0.7-0.1c0.2,0,0.5,0.1,0.7,0.1c0.4,0.1,0.8,0.2,1.1,0.3C418.9,326,419.3,326.2,419.3,326.2z"/>
</g>
<g>
	<path fill="#797A7D" d="M476.8,313.7c0,0,0.3-0.2,0.9-0.4c0.3-0.1,0.7-0.3,1.1-0.4c0.2-0.1,0.4-0.1,0.7-0.2c0.2-0.1,0.5,0,0.7,0
		c1,0.1,2.2,0.2,3.5,0.4c1.3,0.2,2.6,0.5,4,0.8c0.7,0.2,1.3,0.4,2,0.6c0.6,0.3,1.3,0.5,1.9,0.8c0.6,0.3,1.2,0.5,1.7,0.8
		c0.5,0.3,1,0.6,1.5,0.9c0.2,0.2,0.5,0.2,0.6,0.5c0.2,0.2,0.3,0.4,0.4,0.6c0.3,0.4,0.4,0.7,0.6,1c0.3,0.6,0.4,0.9,0.4,0.9
		s-0.4-0.1-0.9-0.3c-0.3-0.1-0.6-0.2-1-0.4c-0.2-0.1-0.4-0.1-0.6-0.2c-0.2-0.1-0.4-0.3-0.6-0.4c-0.4-0.3-0.9-0.5-1.3-0.8
		c-0.5-0.3-1-0.5-1.6-0.8c-0.5-0.3-1.1-0.5-1.7-0.7c-0.6-0.2-1.2-0.4-1.9-0.6c-1.3-0.3-2.5-0.6-3.8-0.8c-1.2-0.2-2.4-0.3-3.4-0.4
		c-0.2,0-0.5,0-0.7,0c-0.2-0.1-0.4-0.2-0.6-0.2c-0.4-0.2-0.8-0.3-1-0.4C477.1,313.8,476.8,313.7,476.8,313.7z"/>
</g>
<path fill="#797A7D" d="M455.3,391c0,0-24.7,6.9-42.2,3.3l-0.1,5.4c0,0,29,28.3,55.1-2.2L455.3,391z"/>
<path fill="#A7A9AC" d="M426.5,348.7c3.4,5,2.2,11.7-2.7,15.1c-4.9,3.4-11.7,2.1-15.2-2.8c-3.4-5-2.2-11.7,2.7-15.1
	C416.3,342.5,423.1,343.7,426.5,348.7z"/>
<path fill="#737577" d="M424.6,351.3c1.9,3.2,0.9,7.2-2.2,9.1c-3.1,1.9-7.2,0.9-9.2-2.3s-0.9-7.2,2.2-9.1
	C418.6,347.1,422.7,348.1,424.6,351.3z"/>
<linearGradient id="SVGID_5_" gradientUnits="userSpaceOnUse" x1="-1879.2065" y1="608.6781" x2="-1879.2065" y2="650.7172" gradientTransform="matrix(-0.9907 0.1358 0.1358 0.9907 -1645.5802 73.7968)">
	<stop  offset="0" style="stop-color:#BEC0C2"/>
	<stop  offset="1" style="stop-color:#B1B3B6"/>
</linearGradient>
<path fill="url(#SVGID_5_)" d="M354.6,267.9l-69.8,14.2c-24.1,4.4-45.1,19.1-57.7,40.2l0,0c-17.8,30-15.5,67.7,5.8,95.3l9.6,12.5
	c22.9,29.6,62.5,40.8,97.4,27.4l17.9-6.8"/>
<path fill="#A1A3A6" d="M344.8,433.9L344.8,433.9c-26.3,11.3-56.9,4.1-75.4-17.7l-7.8-9.2c-18.6-22-20.6-54-4.2-78.4
	c9.4-13.9,23.9-23.4,40.2-27.1l39.7-9.1c6.8-1.6,13.3,3.4,13.7,10.3l6.4,110.8C358,422.2,352.9,430.4,344.8,433.9z"/>
<path fill="#ED85A9" d="M462.3,403.2c0,0-18.2-9.9-39.1,3.6C423.1,406.9,443,420.4,462.3,403.2z"/>
<path fill="none" stroke="#797A7D" stroke-width="2.5" stroke-linecap="round" stroke-linejoin="round" stroke-miterlimit="10" d="
	M403.8,407.7c0,0,15.3-6,8.4-25.2"/>
<path fill="#FFFFFF" d="M482.2,359.2c4.5-0.8,17.5-3.5,24.4-10.8c0.7-0.7,1.9,0,1.7,1c-1.3,5.5-5.5,15.5-19,21.1
	c-0.4,0.2-1,0-1.2-0.4l-6.6-9.4C481.1,360.1,481.5,359.3,482.2,359.2z"/>
<linearGradient id="SVGID_6_" gradientUnits="userSpaceOnUse" x1="-687.6605" y1="1045.1051" x2="-890.7482" y2="1045.1051" gradientTransform="matrix(0.4395 -0.8983 0.8983 0.4395 -137.2881 -705.9382)">
	<stop  offset="0" style="stop-color:#C7C8CA"/>
	<stop  offset="1" style="stop-color:#B1B3B6"/>
</linearGradient>
<path fill="url(#SVGID_6_)" d="M491,347.4c1,2.5,1.9,5.1,2.8,7.8c4,13,9.2,25.2,14.5,37.7c6.7,15.7,13.2,31.8,15.6,48.9
	c4.8,34.9-9.2,71.9-35.9,94.9S422.6,568,388.7,558c-16.3-4.8-31.4-13.5-48.2-15.9c-0.6-0.1-1.1-0.2-1.6-0.5c-1-0.8-0.8-2.4-0.3-3.6
	c1.5-3.8,4.4-6.9,8.1-8.7c1.4-0.7,2.9-1.3,3.8-2.5c1.1-1.7,0.7-3.9,0.6-5.9c-0.2-4.6,1.5-9.3,4.7-12.6c0.7-0.7,1.5-1.4,2.4-1.4
	c1.4,0,2.3,1.5,3.1,2.7c5.5,9.4,15.8,14.9,26.2,18.1c17.8,5.5,37.5,5.6,54.6-1.6c17.1-7.2,31.3-22.1,35.7-40.2
	c4.8-19.9-2.2-40.7-11.8-58.8c-9.6-18-22-34.7-29.2-53.9c-2.2-5.9-3.9-12.2-3.6-18.5c0.7-11.5,9-22.2,20-25.6
	c6.1-1.9,11.8-2.9,18.1-1.2C481.8,331,487.3,338.5,491,347.4z"/>
<path fill="#A9ABAE" d="M465.8,370c3.6-3.6,11.6-10.3,24.2-13.4c0.9-0.2,0.9-1.6-0.1-1.7c-7.2-1-21.4-1-25.6,14.2
	C464.2,370,465.2,370.7,465.8,370z"/>
<path fill="#A9ABAE" d="M472.1,384.4c3.6-3.6,11.6-10.3,24.2-13.4c0.9-0.2,0.9-1.6-0.1-1.7c-7.2-1-21.4-1-25.6,14.2
	C470.4,384.4,471.5,385.1,472.1,384.4z"/>
<path fill="#A9ABAE" d="M478.2,398.1c3.6-3.6,11.6-10.3,24.2-13.4c0.9-0.2,0.9-1.6-0.1-1.7c-7.2-1-21.4-1-25.6,14.2
	C476.6,398.1,477.6,398.7,478.2,398.1z"/>
<path fill="#FFFFFF" d="M428.5,367.2c4.6-0.3,17.8-1.9,25.3-8.4c0.8-0.7,1.9,0.1,1.6,1.1c-1.8,5.4-7,14.9-20.9,19.3
	c-0.5,0.1-1-0.1-1.2-0.5l-5.7-10C427.3,368.1,427.7,367.3,428.5,367.2z"/>
<ellipse fill="#EDE8E0" cx="747" cy="517.2" rx="119.1" ry="75.1"/>
<g>
	<path fill="#EDE8E0" d="M808.2,477.4c-18.6-25-53.4-38.2-89.3-30.8c-25.4,5.2-46.2,19.7-58.8,38.4"/>
	<path fill="#A7A9AC" d="M808.2,477.4c0,0-0.6-0.4-1.6-1.2c-0.5-0.4-1.1-0.9-1.9-1.5c-0.4-0.3-0.8-0.6-1.2-0.9
		c-0.4-0.3-0.9-0.6-1.4-0.9c-1-0.6-2-1.4-3.2-2.1c-1.2-0.7-2.5-1.5-3.9-2.3c-1.3-0.9-2.9-1.6-4.4-2.4c-0.8-0.4-1.5-1-2.2-1.6
		c-0.7-0.6-1.5-1.1-2.3-1.6c-0.8-0.5-1.6-1.1-2.4-1.6c-0.9-0.5-1.7-1-2.6-1.5c-1.8-1.1-3.7-1.9-5.7-2.9c-0.5-0.2-1-0.5-1.5-0.7
		c-0.5-0.2-1-0.4-1.6-0.6c-1-0.4-2.1-0.8-3.2-1.2c-1.1-0.5-2.2-0.7-3.3-1.1c-1.1-0.3-2.2-0.7-3.4-1c-4.6-1.2-9.5-2.2-14.5-2.7
		c-5-0.6-10.1-0.5-15.2-0.3c-1.3,0.1-2.5,0.3-3.8,0.4l-1.9,0.2l-1,0.1l-0.9,0.2c-1.3,0.2-2.5,0.4-3.8,0.6l-1.8,0.3l-1.9,0.4
		c-2.7,0.6-4.9,1.3-7.2,1.9c-1.2,0.4-2.3,0.8-3.5,1.2c-1.1,0.4-2.3,0.9-3.4,1.3c-4.4,1.8-8.6,3.8-12.4,6.1c-3.8,2.3-7.2,4.6-10.2,7
		c-0.8,0.6-1.5,1.2-2.1,1.8c-0.3,0.3-0.6,0.7-1,0.9c-0.3,0.3-0.7,0.5-1.1,0.7c-1.5,1-3,1.8-4.3,2.7c-1.3,0.9-2.6,1.8-3.7,2.6
		c-1.1,0.8-2.2,1.6-3.1,2.4c-0.9,0.7-1.7,1.4-2.5,2c-0.7,0.6-1.3,1.1-1.8,1.6c-1,0.8-1.5,1.3-1.5,1.3s0.3-0.6,0.7-1.8
		c0.2-0.6,0.6-1.3,0.9-2.2c0.4-0.9,0.9-1.8,1.4-2.9c1.1-2.2,2.6-4.8,4.5-7.7c0.5-0.7,1-1.5,1.5-2.2c0.6-0.7,1.1-1.5,1.7-2.3
		c0.6-0.8,1.3-1.4,2.2-2c0.8-0.6,1.6-1.3,2.4-1.9c3.3-2.7,7.1-5.2,11.2-7.7c4.2-2.5,8.7-4.7,13.6-6.7c1.2-0.5,2.5-1,3.7-1.4
		c1.3-0.4,2.5-0.9,3.8-1.3c2.6-0.8,5.4-1.6,7.9-2.1l1.9-0.4l0.1,0l0.2,0l0.1,0l0.3,0l0.5-0.1l1-0.2c1.4-0.2,2.7-0.5,4.1-0.7l1-0.2
		l1-0.1l2.1-0.2c1.4-0.1,2.8-0.3,4.2-0.4c5.6-0.2,11.2-0.3,16.7,0.3c5.5,0.5,10.9,1.6,16,2.9c1.3,0.3,2.5,0.8,3.7,1.2
		c1.2,0.4,2.5,0.7,3.7,1.2c1.2,0.5,2.4,0.9,3.5,1.4c0.6,0.2,1.2,0.5,1.7,0.7c0.6,0.3,1.1,0.5,1.7,0.8c2.2,1,4.3,2,6.3,3.2
		c1,0.6,2,1.1,2.9,1.7c0.9,0.6,1.8,1.2,2.7,1.8c1.7,1.3,3.6,2,4.9,3.5c1.3,1.5,2.6,2.8,3.6,4.2c1,1.4,2,2.6,2.9,3.9
		c0.8,1.3,1.5,2.5,2.2,3.5c0.3,0.5,0.6,1,0.9,1.5c0.2,0.5,0.5,0.9,0.7,1.4c0.4,0.8,0.7,1.6,1,2.1
		C807.9,476.8,808.2,477.4,808.2,477.4z"/>
</g>
<g>
	<path fill="#58595B" d="M670.7,380c0,0,25.3,46.1,84,42.8c58.7-3.3,82-51.6,82-51.6L670.7,380z"/>
	<path fill="#58595B" d="M650.7,378.3c0,0-24.1,22-32.9,56.3c-8.8,34.3,41.6,57,88.1,50.9c46.5-6.1,30.5-42.6,15.3-53.1
		c-15.3-10.5-40.2-45.6-40.2-45.6L650.7,378.3z"/>
	<path fill="#58595B" d="M844.6,378.3c0,0,24.1,22,32.9,56.3s-41.6,57-88.1,50.9c-46.5-6.1-30.5-42.6-15.3-53.1s40.2-45.6,40.2-45.6
		L844.6,378.3z"/>
	<path fill="#F1625B" d="M823.4,236.4l71.5,22.2c7.8,2.4,10.7,11.9,5.7,18.3l-12.5,16c-3.8,4.9-10.7,5.9-15.8,2.4l-53.1-37.1
		L823.4,236.4z"/>
	<path fill="#F1625B" d="M821,230.1l74.5-7.6c8.1-0.8,14.5,6.7,12.4,14.5l-5.2,19.7c-1.6,6-7.6,9.7-13.6,8.4l-63.4-13.3L821,230.1z"
		/>
	<path fill="#58595B" d="M706.6,211.9c-3.1,14.1-16.7,22.9-30.3,19.7c-13.6-3.2-22.1-17.3-19-31.4c3.1-14.1,16.7-22.9,30.3-19.7
		C701.3,183.7,709.8,197.7,706.6,211.9z"/>
	<ellipse fill="#58595B" cx="806.8" cy="210.2" rx="25.3" ry="26.2"/>
	<g>
		<path fill="#FFFFFF" d="M862.4,314.5c-4.7-19.3-13.5-37.2-19.2-56.2c-5.7-19.2-13.4-38.9-31.1-50.1
			c-24.3-15.4-55.6-16.6-83.2-14.5c-5.6,0.4-11.2,1-16.7,1.8c-20.1,2.8-40.5,10.7-52.5,28.6c-15.5,23.1-18.7,51.6-27.8,77.3
			c-8.5,24-10.5,50.2,8,70.5c8.4,9.1,19.3,15,31.1,18.4c2.5,0.7,4.9,1.3,7.4,1.9l32.8,8.2c20.9,5.2,42.6,5.3,63.5,0.3l31.8-7.6
			c3.8-0.7,7.5-1.6,11.2-2.7c0,0,0.1,0,0.1,0c13.4-4.1,25.9-11.2,34.6-22.4c10.1-13,14.3-31.4,11.1-47.5
			C863.3,318.3,862.9,316.4,862.4,314.5z"/>
	</g>
	<path fill="#58595B" d="M734.1,284h18c7.1,0,12.9,6,12.9,13.4v0.1c0,4-1.8,7.9-4.8,10.4l-8.8,7.4c-4.7,3.9-11.4,4-16.1,0.1
		l-9.2-7.5c-3.1-2.5-4.9-6.4-4.9-10.5v0C721.1,290,726.9,284,734.1,284z"/>
	<path fill="#58595B" d="M656.9,296.1c6.3-11.6,17-24.4,30.2-27.3c16-3.5,28,11.8,29.8,27c2,16.6-6,32.9-21.3,39.8
		c-13.2,6-39.5,4.7-44.2-12.6C649.3,315.2,651.8,305.3,656.9,296.1z"/>
	<ellipse fill="#FFFFFF" cx="699" cy="300.9" rx="6.9" ry="7.1"/>
	<path fill="#58595B" d="M832.1,296.4c-6.3-11.6-17-24.4-30.2-27.3c-16-3.5-28,11.8-29.8,27c-2,16.6,6,32.9,21.3,39.8
		c13.2,6,39.5,4.7,44.2-12.6C839.6,315.5,837.1,305.6,832.1,296.4z"/>
	<ellipse fill="#FFFFFF" cx="790" cy="301.2" rx="6.9" ry="7.1"/>
	<rect x="741.4" y="311.7" fill="#58595B" width="3.4" height="20.4"/>
	<g>
		<path fill="#F1625B" d="M675.6,208.3c0,0-18.6,8.4-27.5,37.9l191.2-0.3c0,0-7.2-26.5-24.2-35.8L675.6,208.3z"/>
	</g>
	<polygon fill="#FFFFFF" points="680.8,222.1 683.8,215.4 687.3,221.9 694.6,222.6 689.5,228 691.1,235.2 684.4,232 678,235.7 
		679,228.4 673.5,223.5 	"/>
	<polygon fill="#FFFFFF" points="695,215.4 695.8,213.6 696.7,215.3 698.7,215.5 697.3,217 697.7,218.9 695.9,218 694.2,219 
		694.5,217.1 693,215.8 	"/>
	<polygon fill="#FFFFFF" points="702.3,221.9 703.1,220.1 704.1,221.9 706,222.1 704.7,223.5 705.1,225.4 703.3,224.6 701.6,225.5 
		701.8,223.6 700.4,222.3 	"/>
	<polygon fill="#FFFFFF" points="702.3,232.2 703.1,230.4 704.1,232.1 706,232.3 704.7,233.7 705.1,235.6 703.3,234.8 701.6,235.8 
		701.8,233.8 700.4,232.5 	"/>
	<polygon fill="#FFFFFF" points="695,237.3 695.8,235.5 696.7,237.3 698.7,237.5 697.3,238.9 697.7,240.8 695.9,240 694.2,240.9 
		694.5,239 693,237.7 	"/>
	<path fill="#58595B" d="M717.2,325.4c2.4,0.8,4.7,1.5,7,2.1c2.1,1,4.3,1.8,6.5,2.5c2.2,0.7,4.5,1.1,6.8,1.5l3.5,0.4l3.5,0.1l0.9,0
		l0.9-0.1l1.7-0.1l1.7-0.1c0.6,0,1.1-0.2,1.7-0.3l3.4-0.6l3.4-1l1.7-0.5c0.6-0.2,1.1-0.4,1.6-0.6c1.1-0.4,2.2-0.9,3.3-1.3
		c1.2-0.2,2.3-0.6,3.5-0.9c1.2-0.3,2.4-0.6,3.6-0.9c-1.8,1.7-3.7,3.4-5.7,4.9c-1.1,0.5-2.3,0.9-3.4,1.4c-0.6,0.2-1.1,0.5-1.7,0.7
		l-1.8,0.5l-3.6,1l-3.7,0.7c-0.6,0.1-1.2,0.3-1.8,0.3l-1.9,0.2l-1.9,0.2l-0.9,0.1l-0.9,0l-3.7-0.1l-3.7-0.4
		c-2.5-0.4-4.9-0.9-7.3-1.6c-1.2-0.3-2.4-0.8-3.5-1.2c-0.6-0.2-1.2-0.5-1.7-0.7c-0.3-0.1-0.6-0.3-0.9-0.4c-0.3-0.1-0.6-0.2-0.9-0.4
		C720.6,329.1,718.7,327.4,717.2,325.4z"/>
	<circle fill="#58595B" cx="699.7" cy="300.9" r="5.2"/>
	<circle fill="#58595B" cx="790.6" cy="300.9" r="5.2"/>
</g>
<g>
	<path fill="#A7A9AC" d="M552.7,761.7c-0.9,7.7,0.7,15.2,3.9,22.2c1.7,3.7,7,4.6,10.3,2.7c3.8-2.2,4.4-6.6,2.7-10.3
		c-2.2-4.6-2.5-9.6-1.9-14.6c0.5-4-3.8-7.5-7.5-7.5C555.7,754.2,553.2,757.7,552.7,761.7L552.7,761.7z"/>
	<path fill="#A7A9AC" d="M588.5,759.8c-1,4.1-2.1,8.1-3.1,12.2c-1,3.8,1.2,8.3,5.2,9.2c3.9,0.9,8.2-1.2,9.2-5.2
		c1-4.1,2.1-8.1,3.1-12.2c1-3.8-1.2-8.3-5.2-9.2C593.8,753.7,589.5,755.7,588.5,759.8L588.5,759.8z"/>
	<path fill="#A7A9AC" d="M561.8,722.5c1,5.1,2,10.2,2.9,15.3c0.8,4,5.5,6.3,9.2,5.2c4.2-1.1,6-5.2,5.2-9.2c-1-5.1-2-10.2-2.9-15.3
		c-0.8-4-5.5-6.3-9.2-5.2C562.9,714.4,561.1,718.5,561.8,722.5L561.8,722.5z"/>
	<path fill="#A7A9AC" d="M982.4,708.9c4.2,1.8,8.4,3.6,12.5,5.4c3.7,1.6,8,1.1,10.3-2.7c1.9-3.2,1-8.6-2.7-10.3
		c-4.2-1.8-8.4-3.6-12.5-5.4c-3.7-1.6-8-1.1-10.3,2.7C977.8,701.8,978.6,707.3,982.4,708.9L982.4,708.9z"/>
	<path fill="#A7A9AC" d="M996.9,683.7c4.8,4.1,9.5,8.1,14.3,12.2c3.1,2.6,7.6,3,10.6,0c2.7-2.7,3.1-8,0-10.6
		c-4.8-4.1-9.5-8.1-14.3-12.2c-3.1-2.6-7.6-3-10.6,0C994.2,675.8,993.8,681.1,996.9,683.7L996.9,683.7z"/>
	<path fill="#A7A9AC" d="M1010.9,721.1c-1.4,5.7,0.1,11.1,3.8,15.5c2.6,3,8,2.8,10.6,0c2.9-3.2,2.7-7.4,0-10.6
		c1.8,2.1-0.4-0.4-0.2-0.5c0,0,0.7,1.8,0.1,0c-0.1-0.6-0.1-0.6,0,0c0.1,0.7,0.1,0.7,0.1,0c0-0.3,0-0.6,0-1c-0.2,1.2-0.2,1.4,0,0.6
		c1-3.8-1.2-8.3-5.2-9.2C1016.2,715,1012,717,1010.9,721.1L1010.9,721.1z"/>
</g>
<g>
</g>
<g>
</g>
<g>
</g>
<g>
</g>
<g>
</g>
<g>
</g>
<g>
</g>
<g>
</g>
<g>
</g>
<g>
</g>
<g>
</g>
<g>
</g>
<g>
</g>
<g>
</g>
<g>
</g>
</svg>
