<?xml version="1.0" encoding="utf-8"?>
<!-- Generator: Adobe Illustrator 18.0.0, SVG Export Plug-In . SVG Version: 6.00 Build 0)  -->
<!DOCTYPE svg PUBLIC "-//W3C//DTD SVG 1.1//EN" "http://www.w3.org/Graphics/SVG/1.1/DTD/svg11.dtd">
<svg version="1.1" id="Layer_1" xmlns="http://www.w3.org/2000/svg" xmlns:xlink="http://www.w3.org/1999/xlink" x="0px" y="0px"
	 viewBox="0 0 151.4 109.8" enable-background="new 0 0 151.4 109.8" xml:space="preserve">
<g>
	<path fill="#F2A6A7" d="M66.6,9.5c0,0,67,28.4,57.6,65.9s-54.6,46.3-81.6,16.7S66.6,9.5,66.6,9.5z"/>
	<circle fill="#FFE27F" cx="89.4" cy="80" r="5.2"/>
	<circle fill="#FFE27F" cx="76.6" cy="84.3" r="5.2"/>
	<line fill="none" stroke="#FFE27F" stroke-width="8" stroke-miterlimit="10" x1="89.4" y1="80" x2="78.8" y2="38.3"/>
	<line fill="none" stroke="#FFE27F" stroke-width="8" stroke-miterlimit="10" x1="75.5" y1="83.2" x2="65.9" y2="46"/>
	<path fill="#EE8697" d="M63,7.8c-1,0.4,5.2,19.4,5.6,20.7C73,41.4,79,54.6,88.6,64.5c8.4,8.7,20.1,13.8,32.4,12.6
		c14.8-1.5,28.7-12,30.2-27.4c2-20.5-13.5-39.8-32.2-46.5C101-3.3,80.4,1.2,63,7.8z"/>
	<path fill="#EE8697" d="M63,7.8c1.1-0.2,5.1,19.5,5.4,20.7c2.7,13.4,4,27.9,0.5,41.3c-3,11.7-10.6,22-21.8,27
		c-13.6,6-30.9,3.8-39.9-8.8c-11.9-16.8-8-41.3,4.9-56.4C24.5,17,44.6,10.7,63,7.8z"/>
</g>
<g>
</g>
<g>
</g>
<g>
</g>
<g>
</g>
<g>
</g>
<g>
</g>
<g>
</g>
<g>
</g>
<g>
</g>
<g>
</g>
<g>
</g>
<g>
</g>
<g>
</g>
<g>
</g>
<g>
</g>
</svg>
