<?xml version="1.0" encoding="utf-8"?>
<!-- Generator: Adobe Illustrator 18.0.0, SVG Export Plug-In . SVG Version: 6.00 Build 0)  -->
<!DOCTYPE svg PUBLIC "-//W3C//DTD SVG 1.1//EN" "http://www.w3.org/Graphics/SVG/1.1/DTD/svg11.dtd">
<svg version="1.1" id="Layer_1" xmlns="http://www.w3.org/2000/svg" xmlns:xlink="http://www.w3.org/1999/xlink" x="0px" y="0px"
	 viewBox="0 0 129.8 158.4" enable-background="new 0 0 129.8 158.4" xml:space="preserve">
<g>
	<path fill="#00756E" d="M84.6,0c-4.9,0-9.4,2.4-12.1,6.5L64.8,18L57,6.5c-2.7-4-7.3-6.4-12.1-6.4l0,0C20.1,0.2-0.1,20.4,0,45.1
		l0.1,39.8c0,14.2,6.8,26.9,17.2,35.1l0,0l30.6,31.1c9.5,9.6,25.1,9.6,34.5-0.1l30.4-31.2l0,0c10.4-8.3,17.1-21,17-35.2l-0.1-39.8
		C129.6,20.1,109.3-0.1,84.6,0z"/>
	<path fill="#277D76" d="M107.3,62.4c-12.4-6.6-25.3-11.9-38.9-15.9c-0.1-5.8-0.2-11.6-0.2-17.4c0-4.3-9.2-2.6-9.2,0.9
		c0,2.9,0.1,5.7,0.1,8.6c-0.9,0.1-1.8,0.2-2.2,0.4c-9.1,2.6-17.9,6-26.4,10c-1.6,0.8-2.3,2-0.9,3.2c1.5,1.2,5.1-0.3,6.5-1
		c7.1-3.4,14.4-6.1,22-8.3c0.3-0.1,0.7-0.2,1.2-0.4c0.1,7.2,0.3,14.4,0.5,21.5c-0.1,0.1-0.2,0.1-0.4,0.1C48,69.8,37,75.8,26.1,82.2
		c-1.7,1-2.2,2.8-0.6,4.1c1.7,1.4,5,0.2,6.5-0.7c9.1-5.4,18.4-10.4,27.8-15.2c0.3,6.5,0.6,13,0.9,19.5c-0.5,0.1-1,0.3-1.5,0.5
		c-8.7,4.4-17.1,9.4-25.3,14.8c-1.6,1.1-2.3,3-0.6,4.2c1.8,1.3,4.9,0.4,6.5-0.7c6.8-4.6,13.9-8.7,21.2-12.6c0.4,6,0.8,11.9,1.2,17.9
		c0.3,3.6,9.5,1.5,9.2-2.5c-0.7-8.8-1.2-17.5-1.7-26.3c8.1,4,16.1,8,24.2,12c3.9,1.9,10.5-3.7,5.2-6.4c-10-4.9-19.9-9.9-29.9-14.8
		c-0.3-7.2-0.6-14.5-0.8-21.7c10.9,3.5,21.5,7.9,31.6,13.3C103.8,69.6,111.8,64.8,107.3,62.4z"/>
</g>
<g>
</g>
<g>
</g>
<g>
</g>
<g>
</g>
<g>
</g>
<g>
</g>
<g>
</g>
<g>
</g>
<g>
</g>
<g>
</g>
<g>
</g>
<g>
</g>
<g>
</g>
<g>
</g>
<g>
</g>
</svg>
