<?xml version="1.0" encoding="utf-8"?>
<!-- Generator: Adobe Illustrator 18.0.0, SVG Export Plug-In . SVG Version: 6.00 Build 0)  -->
<!DOCTYPE svg PUBLIC "-//W3C//DTD SVG 1.1//EN" "http://www.w3.org/Graphics/SVG/1.1/DTD/svg11.dtd">
<svg version="1.1" id="Layer_1" xmlns="http://www.w3.org/2000/svg" xmlns:xlink="http://www.w3.org/1999/xlink" x="0px" y="0px"
	 viewBox="0 142.6 612 506.9" enable-background="new 0 142.6 612 506.9" xml:space="preserve">
<title>stock-bg</title>
<path fill="#f19aa0" d="M122.1,619.4c-28.7,0-52-24.5-52-54.6l-0.3-303.5c-0.1-13.8,4.9-27.1,14-37.4c9.6-10.9,23.4-17.2,38-17.3
	h125.7c1.3-2.2,2.8-4.2,4.5-6.1c8.1-9.1,19.6-14.3,31.8-14.4h47.4c14.7,0.1,28.3,7.7,36.1,20.2h127.2c28.7,0,52,24.5,52,54.6
	l0.3,303.5c0,30.1-23.3,54.7-52,54.7L122.1,619.4L122.1,619.4z"/>
</svg>
