<?xml version="1.0" encoding="utf-8"?>
<!-- Generator: Adobe Illustrator 18.0.0, SVG Export Plug-In . SVG Version: 6.00 Build 0)  -->
<!DOCTYPE svg PUBLIC "-//W3C//DTD SVG 1.1//EN" "http://www.w3.org/Graphics/SVG/1.1/DTD/svg11.dtd">
<svg version="1.1" id="Layer_1" xmlns="http://www.w3.org/2000/svg" xmlns:xlink="http://www.w3.org/1999/xlink" x="0px" y="0px"
	 viewBox="0 0 3998.5 586.7" enable-background="new 0 0 3998.5 586.7" xml:space="preserve">
<g>
	<path fill="none" stroke="#3A867D" stroke-miterlimit="10" d="M476.2,326.6"/>
	
		<ellipse transform="matrix(0.9548 0.2973 -0.2973 0.9548 127.46 -135.4273)" fill="#FFD25C" cx="508.9" cy="351.3" rx="66.4" ry="57.7"/>
	<path fill="#F0596F" d="M595.6,346.5c0.5-7.4-5-13.9-12.5-14.4c-7.4-0.5-13.9,5-14.4,12.5c-1.1,14.3-5.8,24.6-14.4,31.4
		c-2.1,1.7-4.3,3.1-6.6,4.2c7.1-11.6,12.5-27.1,13.2-47.4c0.2-7.4-5.6-13.7-13.1-13.9c-7.4-0.2-13.7,5.6-13.9,13.1
		c-0.5,17.6-5.9,29.8-12.1,38.3l0.8-42.4c0.1-7.4-5.8-13.6-13.2-13.7c-7.4-0.1-13.6,5.8-13.7,13.2l-0.9,49
		c-17.9-18.5-8-40.7-6.5-43.6c3.3-6.6,0.7-14.7-5.9-18.1c-6.7-3.5-14.8-0.8-18.1,5.9c-5.1,10-9.3,26.6-5.6,43.9
		c-2.9-2.7-5-5.3-6.4-7.7c-5.1-8.7-2.7-16.2-2.7-16.2c2.7-6.9-0.8-14.7-7.7-17.4c-6.9-2.7-14.8,0.7-17.4,7.7
		c-0.7,1.9-6.9,19.1,3.9,38.5c9.1,16.4,27,28.8,53.5,37.1c4.5,1.4,9.3,2.6,14.2,3.8c0,0,0.1,0,0.1,0.1c0.8,0.2,1.6,0.4,2.4,0.5
		c2.2,0.5,4.4,1,6.8,1.5c0,0,0.1,0,0.1,0c0.1,0,0.2,0,0.3,0.1c1.6,0.2,38.8,5.9,65.2-15C585.7,385.5,594,368.4,595.6,346.5z"/>
	<path fill="#F0596F" d="M458,586.1c0-1.3,0.8-77.3,22.4-123c17.6-37.2,9.8-58.8,9.7-59l25-10.1c1.3,3.3,12.2,33.1-10.3,80.7
		C485.6,515,485,586.2,484.9,586.5L458,586.1z"/>
</g>
<g>
	<path fill="none" stroke="#3A867D" stroke-miterlimit="10" d="M595.3,398.1"/>
	
		<ellipse transform="matrix(0.8602 0.51 -0.51 0.8602 303.8223 -255.8754)" fill="#FFD25C" cx="618.6" cy="426.2" rx="59.2" ry="51.4"/>
	<path fill="#F0596F" d="M694.7,439.9c2-6.3-1.5-13.1-7.8-15.1c-6.3-2-13.1,1.5-15.1,7.8c-3.9,12.2-10,20.1-18.9,24.3
		c-2.1,1-4.4,1.8-6.6,2.3c8.5-8.6,16.5-20.9,21.2-38.4c1.7-6.4-2-13-8.5-14.7c-6.4-1.7-13,2.1-14.7,8.5
		c-4.1,15.1-11.3,24.6-18.3,30.7l9.4-36.6c1.7-6.4-2.2-13-8.6-14.6c-6.4-1.7-13,2.2-14.6,8.6l-10.9,42.3
		c-11.7-19.7,1.5-36.9,3.3-39.1c4.3-5,3.6-12.6-1.4-16.9c-5.1-4.4-12.6-3.7-16.9,1.3c-6.5,7.6-13.5,21.2-13.9,36.9
		c-2-2.9-3.3-5.6-4-8c-2.6-8.6,1-14.6,1-14.6c3.8-5.5,2.4-12.9-3.1-16.7c-5.4-3.7-12.9-2.4-16.7,3.1c-1,1.5-9.9,15.1-4.6,34.2
		c4.5,16.1,17.5,30.5,38.8,43.2c3.6,2.1,7.5,4.2,11.5,6.2c0,0,0.1,0,0.1,0.1c0.6,0.4,1.3,0.7,2,0.9c1.8,0.9,3.6,1.8,5.6,2.7
		c0,0,0.1,0,0.1,0c0.1,0,0.1,0.1,0.2,0.1c1.3,0.5,32.4,13.1,59.7,0.4C678.1,471.6,688.8,458.6,694.7,439.9z"/>
	<path fill="#F0596F" d="M535.2,580.6c0.3-1.1,7.4-28.2,35.6-63.4c22.9-28.6,20.6-49,20.6-49.2l23.8-3.6c0.5,3.1,3.8,31.2-25.5,67.8
		c-25,31.2-31,54.1-31,54.3L535.2,580.6z"/>
</g>
<g>
	<path fill="none" stroke="#3A867D" stroke-miterlimit="10" d="M320.5,376.2"/>
	
		<ellipse transform="matrix(0.9982 -5.932215e-002 5.932215e-002 0.9982 -22.3646 22.0215)" fill="#FFD25C" cx="359.7" cy="387.7" rx="66.4" ry="57.7"/>
	<path fill="#F0596F" d="M439.1,352.6c-2.1-7.1-9.6-11.2-16.8-9.1c-7.1,2.1-11.2,9.6-9.1,16.8c4.1,13.7,3.3,25-2.3,34.5
		c-1.4,2.3-3,4.4-4.7,6.3c2.5-13.4,2.2-29.8-4.4-49c-2.4-7-10.1-10.8-17.1-8.4c-7,2.4-10.8,10.1-8.4,17.1c5.7,16.6,5,30,2.2,40.1
		l-14.3-40c-2.5-7-10.2-10.7-17.2-8.2c-7,2.5-10.7,10.2-8.2,17.2l16.5,46.2c-23.2-11-21.8-35.2-21.5-38.5c0.8-7.4-4.5-14-11.9-14.8
		c-7.5-0.9-14.1,4.5-14.9,11.9c-1.3,11.2,0.7,28.2,10.2,43c-3.7-1.5-6.6-3.2-8.7-4.9c-7.8-6.3-8.2-14.2-8.2-14.3
		c0.1-7.4-5.9-13.5-13.4-13.6c-7.4-0.1-13.5,5.9-13.6,13.4c0,2,0.3,20.3,17.3,34.7c14.3,12.1,35.5,17.4,63.2,15.7
		c4.7-0.3,9.6-0.8,14.6-1.5c0,0,0.1,0,0.1,0c0.8,0,1.6-0.2,2.4-0.4c2.3-0.3,4.5-0.6,6.9-1c0,0,0.1,0,0.1,0c0.1,0,0.2,0,0.3,0
		c1.6-0.3,38.4-8.2,55.7-37.1C443.7,392.5,445.4,373.7,439.1,352.6z"/>
	<path fill="#F0596F" d="M379.3,583.6c-0.4-1.2-10.8-30.9-6.8-81.3c3.3-41-11.7-58.5-11.8-58.6l19.8-18.3
		c2.4,2.6,23.1,26.7,18.9,79.1c-3.6,44.6,5.2,69.7,5.3,70L379.3,583.6z"/>
</g>
<g>
	<path fill="#F8A79E" d="M119.4,579.6c-6.3,0.6-12.3-3.2-14.4-9.3c-24.5-70.2-97.2-81.7-97.9-81.8l4.1-27.6
		c2.7,0.4,50.8,8,87.8,46.8l-6.7-75l27.8-2.5l12,134.3c0.6,7-4.1,13.4-11,14.9C120.6,579.5,120,579.6,119.4,579.6z"/>
	<path fill="#F8A79E" d="M131.6,569.4l-26.9-7.4c1-3.6,24.8-88.2,94.4-116.7l10.6,25.8c-29.2,12-48.7,37.6-60,57
		C137.1,550,131.7,569.2,131.6,569.4z"/>
	
		<ellipse transform="matrix(0.9983 5.894449e-002 -5.894449e-002 0.9983 28.0035 0.2483)" fill="#F37A8A" cx="9.8" cy="474.8" rx="9.8" ry="14.1"/>
	<path fill="#F37A8A" d="M37.8,479.1c6.7,1.8,13.3,3.8,19.5,7.1c0.8,0.5,3.1-1.9,3.9-1.4c-6.1-3.3-12.8-5.3-19.5-7.1
		C40.6,477.4,38.9,479.4,37.8,479.1L37.8,479.1z"/>
	<path fill="#F37A8A" d="M30.6,483.5c7.1,5.3,16,7.2,23.3,12.2c0.7,0.5,3.3-1.9,3.9-1.4c-7.3-5-16.2-6.9-23.3-12.2
		C33.9,481.6,31.2,484,30.6,483.5L30.6,483.5z"/>
	<path fill="#F37A8A" d="M68.5,498.2c3.3,2.1,6.6,4.1,10,6c0.2,0.1,1.7-0.6,2-0.7c0.3-0.1,1.7-0.9,2-0.7c-3.4-1.9-6.7-3.9-10-6
		c-0.2-0.1-1.7,0.6-2,0.7C70.2,497.6,68.7,498.3,68.5,498.2L68.5,498.2z"/>
	<path fill="#F37A8A" d="M65.7,505.9c3.2,1.5,6.4,2.8,9.7,4c0.4,0.1,1.6-0.6,2-0.7c0.4-0.1,1.6-0.9,2-0.7c-3.3-1.2-6.6-2.5-9.7-4
		c-0.3-0.1-1.7,0.6-2,0.7C67.4,505.3,66,506.1,65.7,505.9L65.7,505.9z"/>
	<path fill="#F37A8A" d="M88.6,516.2c2,2.4,4.1,4.6,6.4,6.7c0.1,0.1,1.8-0.6,2-0.7c0.2-0.1,1.8-0.9,2-0.7c-2.3-2.1-4.4-4.4-6.4-6.7
		C92.3,514.4,88.9,516.6,88.6,516.2L88.6,516.2z"/>
	<path fill="#F16B98" d="M85.2,522.4c2.4,1.5,4.6,3.2,6.7,5c0.1,0.1,1.8-0.6,2-0.7c0.2-0.1,1.8-0.9,2-0.7c-2.1-1.8-4.4-3.5-6.7-5
		c-0.2-0.1-1.7,0.6-2,0.7C86.9,521.7,85.4,522.5,85.2,522.4L85.2,522.4z"/>
	<path fill="#F37A8A" d="M100.4,442.3c0.8,3.1,1.5,6.3,2.3,9.4c0-0.1,4-1.3,3.9-1.4c-0.8-3.1-1.5-6.3-2.3-9.4
		C104.4,441,100.4,442.1,100.4,442.3L100.4,442.3z"/>
	<path fill="#F37A8A" d="M110.6,441.2c0.4,3.6,0.6,7.3,0.5,10.9c0-0.5,3.9-0.9,3.9-1.4c0.1-3.7-0.1-7.3-0.5-10.9
		C114.6,440,110.6,440.8,110.6,441.2L110.6,441.2z"/>
	<path fill="#F37A8A" d="M103,461.2c1.8,9.1,0.9,18.4,2.6,27.4c0-0.2,4-1.2,3.9-1.4c-1.7-9.1-0.8-18.4-2.6-27.4
		C107,459.9,103,460.9,103,461.2L103,461.2z"/>
	<path fill="#F37A8A" d="M111.6,463c1.6,9.3,2.7,18.6,3.3,28c0-0.4,4-1,3.9-1.4c-0.6-9.4-1.7-18.7-3.3-28
		C115.6,461.8,111.6,462.8,111.6,463L111.6,463z"/>
	<path fill="#F37A8A" d="M103.2,498.1c1.2,4.4,2.3,8.8,3.3,13.3c0-0.1,4-1.2,3.9-1.4c-1-4.5-2.1-8.9-3.3-13.3
		C107.2,496.7,103.2,498,103.2,498.1L103.2,498.1z"/>
	<path fill="#F37A8A" d="M115.4,500.8c-1,9.1-1.3,18.2-1.1,27.4c0-0.4,3.9-1,3.9-1.4c-0.2-9.2,0.1-18.3,1.1-27.4
		C119.3,500,115.5,500.2,115.4,500.8L115.4,500.8z"/>
	<path fill="#F37A8A" d="M185.7,459.9c-5.1,3-9.6,6.5-13.7,10.8c-0.8,0.8,1.2,4.4,0.5,5.2c4.1-4.2,8.6-7.8,13.7-10.8
		C186.8,464.7,185,460.2,185.7,459.9L185.7,459.9z"/>
	<path fill="#F37A8A" d="M191.8,469.5c-3.3,2-6.4,4.3-9.4,6.7c-0.2,0.2,0.2,2.3,0.2,2.6c0,0.3,0.5,2.4,0.3,2.6
		c3-2.4,6.2-4.7,9.4-6.7c0.2-0.1-0.2-2.3-0.2-2.6C192.1,471.9,191.7,469.6,191.8,469.5L191.8,469.5z"/>
	<path fill="#F37A8A" d="M162.3,481.7c-7.9,4.9-15.9,10.2-19.3,19.3c-0.5,1.5,1,3.8,0.5,5.2c3.3-9.1,11.4-14.4,19.3-19.3
		C163.4,486.5,161.6,482.1,162.3,481.7L162.3,481.7z"/>
	<path fill="#F37A8A" d="M150.7,508.8c4.5-2.8,8.3-6.6,11.1-11.2c0.3-0.4-0.2-2.1-0.2-2.6c0-0.5-0.5-2.2-0.3-2.6
		c-2.8,4.6-6.5,8.3-11.1,11.2C149.6,504.1,151.4,508.4,150.7,508.8L150.7,508.8z"/>
	<path fill="#F37A8A" d="M136.4,515.3c-2.1,2.3-4.2,4.6-6.3,6.9c-0.3,0.3,0.2,2.2,0.2,2.6c0.1,0.6,0.1,1.2,0.2,1.8
		c0,0.1,0.1,0.7,0.1,0.8c2.1-2.3,4.2-4.6,6.3-6.9c0.3-0.3-0.2-2.2-0.2-2.6c-0.1-0.6-0.1-1.2-0.2-1.8
		C136.5,515.9,136.4,515.3,136.4,515.3L136.4,515.3z"/>
	<path fill="#F16B98" d="M142.8,519.8c-0.2,3.8-3.7,7.4-5.9,10.2c-0.3,0.3,0.2,2.2,0.2,2.6c0,0.4,0.5,2.3,0.3,2.6
		c2.2-2.8,5.7-6.4,5.9-10.2C143.4,523.3,142.7,521.5,142.8,519.8L142.8,519.8z"/>
	
		<ellipse transform="matrix(0.996 -8.881183e-002 8.881183e-002 0.996 -37.8962 11.1372)" fill="#F37A8A" cx="106.2" cy="431.4" rx="14" ry="6.7"/>
	
		<ellipse transform="matrix(0.9143 -0.4051 0.4051 0.9143 -167.8206 122.4166)" fill="#F37A8A" cx="205.3" cy="457.7" rx="9.7" ry="14.2"/>
</g>
<g>
	<path fill="#F8A79E" d="M1352.3,579.6c-7.5,0.7-14.7-3.8-17.3-11.2c-29.4-84.2-116.4-97.9-117.3-98l4.9-33.1
		c3.3,0.5,60.9,9.6,105.2,56.1l-8-89.9l33.3-3l14.3,160.9c0.7,8.4-4.9,16.1-13.1,17.8C1353.7,579.4,1353,579.5,1352.3,579.6z"/>
	<path fill="#F8A79E" d="M1366.9,567.4l-32.3-8.8c1.2-4.3,29.7-105.7,113.1-139.9l12.7,31c-35,14.4-58.4,45.1-71.8,68.3
		C1373.5,544.1,1367,567.1,1366.9,567.4z"/>
	
		<ellipse transform="matrix(0.9983 5.894449e-002 -5.894449e-002 0.9983 28.8838 -71.1783)" fill="#F37A8A" cx="1220.9" cy="454" rx="11.7" ry="16.9"/>
	<path fill="#F37A8A" d="M1254.5,459.2c8,2.2,16,4.5,23.3,8.5c1,0.5,3.8-2.2,4.7-1.7c-7.4-4-15.3-6.3-23.3-8.5
		C1257.9,457.1,1255.8,459.6,1254.5,459.2L1254.5,459.2z"/>
	<path fill="#F37A8A" d="M1245.8,464.5c8.5,6.3,19.2,8.6,27.9,14.6c0.8,0.6,3.9-2.3,4.7-1.7c-8.7-6-19.4-8.3-27.9-14.6
		C1249.8,462.2,1246.5,465,1245.8,464.5L1245.8,464.5z"/>
	<path fill="#F37A8A" d="M1291.3,482.1c3.9,2.5,7.9,4.9,11.9,7.2c0.3,0.2,2-0.7,2.4-0.8c0.3-0.1,2-1.1,2.3-0.9
		c-4.1-2.3-8-4.7-11.9-7.2c-0.3-0.2-2.1,0.7-2.4,0.8C1293.4,481.3,1291.6,482.2,1291.3,482.1L1291.3,482.1z"/>
	<path fill="#F37A8A" d="M1288,491.3c3.8,1.8,7.7,3.4,11.7,4.8c0.4,0.1,1.9-0.7,2.4-0.8c0.4-0.2,1.9-1,2.3-0.9
		c-4-1.4-7.8-3-11.7-4.8c-0.3-0.2-2,0.7-2.4,0.8C1289.9,490.6,1288.3,491.5,1288,491.3L1288,491.3z"/>
	<path fill="#F37A8A" d="M1315.4,503.7c2.4,2.9,4.9,5.6,7.6,8.1c0.2,0.1,2.1-0.7,2.4-0.8c0.2-0.1,2.2-1,2.3-0.9
		c-2.7-2.5-5.3-5.2-7.6-8.1C1319.7,501.5,1315.7,504.1,1315.4,503.7L1315.4,503.7z"/>
	<path fill="#F16B98" d="M1311.3,511c2.8,1.8,5.5,3.8,8.1,6.1c0.2,0.2,2.1-0.7,2.4-0.8c0.2-0.1,2.2-1,2.3-0.9
		c-2.5-2.2-5.2-4.2-8.1-6.1c-0.3-0.2-2.1,0.7-2.4,0.8C1313.3,510.2,1311.5,511.2,1311.3,511L1311.3,511z"/>
	<path fill="#F37A8A" d="M1329.6,415.1c0.9,3.7,1.8,7.5,2.7,11.2c0-0.2,4.8-1.5,4.7-1.7c-0.9-3.7-1.8-7.5-2.7-11.2
		C1334.3,413.5,1329.5,414.8,1329.6,415.1L1329.6,415.1z"/>
	<path fill="#F37A8A" d="M1341.8,413.7c0.5,4.4,0.7,8.7,0.6,13.1c0-0.6,4.7-1.1,4.7-1.7c0.1-4.4-0.1-8.7-0.6-13.1
		C1346.5,412.3,1341.7,413.3,1341.8,413.7L1341.8,413.7z"/>
	<path fill="#F37A8A" d="M1332.7,437.7c2.2,10.9,1.1,22,3.1,32.9c0-0.2,4.8-1.4,4.7-1.7c-2-10.9-0.9-22-3.1-32.9
		C1337.4,436.2,1332.6,437.4,1332.7,437.7L1332.7,437.7z"/>
	<path fill="#F37A8A" d="M1342.9,439.9c1.9,11.1,3.3,22.3,3.9,33.5c0-0.4,4.7-1.2,4.7-1.7c-0.7-11.3-2-22.4-3.9-33.5
		C1347.7,438.4,1342.9,439.6,1342.9,439.9L1342.9,439.9z"/>
	<path fill="#F37A8A" d="M1332.9,481.9c1.5,5.3,2.8,10.6,4,15.9c0-0.2,4.8-1.5,4.7-1.7c-1.2-5.3-2.5-10.6-4-15.9
		C1337.7,480.3,1332.9,481.8,1332.9,481.9L1332.9,481.9z"/>
	<path fill="#F37A8A" d="M1347.5,485.2c-1.2,10.9-1.6,21.8-1.3,32.8c0-0.5,4.7-1.2,4.7-1.7c-0.3-11,0.2-21.9,1.3-32.8
		C1352.2,484.2,1347.6,484.4,1347.5,485.2L1347.5,485.2z"/>
	<path fill="#F37A8A" d="M1431.7,436.1c-6.1,3.5-11.6,7.8-16.4,12.9c-1,1,1.5,5.3,0.6,6.2c4.9-5.1,10.4-9.4,16.4-12.9
		C1433,441.9,1430.9,436.6,1431.7,436.1L1431.7,436.1z"/>
	<path fill="#F37A8A" d="M1439.1,447.7c-3.9,2.5-7.7,5.1-11.3,8c-0.3,0.2,0.2,2.7,0.2,3.1c0,0.4,0.6,2.9,0.3,3.1
		c3.6-2.9,7.4-5.6,11.3-8c0.2-0.1-0.2-2.8-0.2-3.1C1439.4,450.5,1438.9,447.8,1439.1,447.7L1439.1,447.7z"/>
	<path fill="#F37A8A" d="M1403.6,462.3c-9.4,5.9-19.1,12.2-23.1,23.1c-0.7,1.8,1.2,4.5,0.6,6.2c4-10.9,13.6-17.2,23.1-23.1
		C1405,468.1,1402.9,462.8,1403.6,462.3L1403.6,462.3z"/>
	<path fill="#F37A8A" d="M1389.8,494.8c5.4-3.4,9.9-7.9,13.3-13.4c0.3-0.5-0.2-2.5-0.2-3.1c-0.1-0.6-0.6-2.6-0.3-3.1
		c-3.3,5.5-7.8,10-13.3,13.4C1388.4,489.1,1390.6,494.3,1389.8,494.8L1389.8,494.8z"/>
	<path fill="#F37A8A" d="M1372.7,502.5c-2.5,2.8-5.1,5.5-7.6,8.3c-0.3,0.3,0.2,2.7,0.2,3.1c0.1,0.7,0.1,1.5,0.2,2.2
		c0,0.1,0.2,0.8,0.1,0.9c2.5-2.8,5.1-5.5,7.6-8.3c0.3-0.3-0.2-2.7-0.2-3.1c-0.1-0.7-0.1-1.5-0.2-2.2
		C1372.8,503.3,1372.6,502.6,1372.7,502.5L1372.7,502.5z"/>
	<path fill="#F16B98" d="M1380.3,507.9c-0.2,4.5-4.4,8.8-7.1,12.2c-0.3,0.4,0.2,2.6,0.2,3.1c0,0.5,0.6,2.7,0.3,3.1
		c2.6-3.4,6.8-7.7,7.1-12.2C1381,512.1,1380.2,510,1380.3,507.9L1380.3,507.9z"/>
	
		<ellipse transform="matrix(0.996 -8.881183e-002 8.881183e-002 0.996 -30.4246 120.283)" fill="#F37A8A" cx="1336.5" cy="402" rx="16.7" ry="8.1"/>
	
		<ellipse transform="matrix(0.9143 -0.4051 0.4051 0.9143 -50.8787 626.6766)" fill="#F37A8A" cx="1455.2" cy="433.6" rx="11.6" ry="17"/>
</g>
<g>
	<path fill="none" stroke="#3A867D" stroke-miterlimit="10" d="M3027,342.1"/>
	
		<ellipse transform="matrix(0.8989 0.4381 -0.4381 0.8989 469.3119 -1299.7023)" fill="#FFD25C" cx="3051.6" cy="367.3" rx="57.3" ry="49.8"/>
	<path fill="#F0596F" d="M3126.2,374.6c1.4-6.3-2.5-12.5-8.7-13.9c-6.3-1.4-12.5,2.5-13.9,8.7c-2.8,12-8.1,20.2-16.3,24.9
		c-2,1.1-4.1,2-6.2,2.7c7.5-9,14.2-21.5,17.4-38.7c1.2-6.3-3-12.4-9.3-13.6c-6.3-1.2-12.4,3-13.6,9.3c-2.8,14.9-8.9,24.7-15.3,31.1
		l6.2-36.1c1.1-6.3-3.1-12.4-9.5-13.4c-6.3-1.1-12.3,3.2-13.4,9.5l-7.2,41.7c-12.8-18.1-1.5-35.7,0.1-38c3.7-5.2,2.5-12.4-2.7-16.2
		c-5.3-3.8-12.5-2.6-16.2,2.6c-5.7,7.9-11.4,21.5-10.5,36.7c-2.1-2.7-3.6-5.2-4.5-7.4c-3.2-8.1-0.2-14.2-0.1-14.2
		c3.2-5.6,1.3-12.7-4.3-15.9c-5.5-3.2-12.7-1.3-15.9,4.3c-0.9,1.5-8.3,15.4-1.7,33.4c5.6,15.2,19.3,28.1,40.8,38.6
		c3.6,1.8,7.6,3.4,11.6,5.1c0,0,0.1,0,0.1,0.1c0.6,0.3,1.3,0.6,2,0.7c1.9,0.7,3.6,1.5,5.6,2.1c0,0,0.1,0,0.1,0
		c0.1,0,0.1,0.1,0.2,0.1c1.3,0.4,32.4,10.1,57.6-4.3C3112.7,406.5,3122,393.1,3126.2,374.6z"/>
	<path fill="#F0596F" d="M2983.4,522.9c0.2-1.1,4.9-27.8,29.3-64c19.9-29.4,16-48.9,15.9-49.1l22.6-5.4c0.7,2.9,6.1,29.8-19.3,67.5
		c-21.6,32-25.6,54.6-25.7,54.8L2983.4,522.9z"/>
</g>
<path fill="#B0D398" d="M3762.8,446.6c-4.2-1.3-8.2-0.6-12.3,0.7c-14.8,4.7-29.6,9.4-44.4,14.1c-11.3,3.6-22.6,7.2-33.9,10.7
	c-0.5-4.9-1-9.9-1.4-14.8c26.1-8.3,52.3-16.7,78.4-25c6.4-2,12.3-4.3,15-11.4c3.1-8.3-0.8-17.7-8.8-21.3c-4.5-2.1-9.1-1.6-13.6-0.1
	c-13.9,4.4-27.8,8.8-41.6,13.3c-10.6,3.4-21.2,6.8-31.8,10.1c-0.2-4.3-0.5-8.5-0.7-12.8c28.7-9,57.5-18.1,86.2-27.1
	c6.4-2,13.4-3.5,17.1-9.7c8-13.3-5-29.1-19.5-24.7c-15.8,4.8-31.4,9.9-47.2,14.8c-12.6,4-25.2,7.9-37.7,11.9
	c-0.1-5.6-0.1-11.2-0.1-16.8c29-9.7,57.9-19.4,86.9-29.1c6.1-2,11.9-3.4,15.5-9.5c5.1-8.6,1.5-19.9-7.6-24c-4.6-2.1-9.2-1.5-13.8,0
	c-15.2,5-30.3,10.2-45.5,15.2c-11.6,3.9-23.2,7.8-34.8,11.7c0.3-9.3,0.8-18.6,1.4-27.9c25.9-6.2,51.9-12.3,77.8-18.5
	c6.2-1.5,12.4-2.7,16.3-8.5c8.4-12.8-3.5-28.5-17.9-25.7c-13.5,2.7-27,6.4-40.4,9.6c-10.9,2.6-21.9,5.2-32.8,7.8
	c0.5-4.5,0.9-9.1,1.5-13.6c24-5.7,48-11.3,72-17c5.7-1.3,11.5-2.5,15.3-7.6c9.1-12.5-2.1-29.3-17-26.6c-12.1,2.2-24.2,5.7-36.2,8.5
	c-9.7,2.3-19.5,4.6-29.2,6.9c1-6,2-12,3-18c22.2-3.3,44.5-6.6,66.7-9.9c5.8-0.9,11.3-1.9,15.2-7c9.4-12.2-1.4-28.6-16-26.9
	c-10.9,1.3-21.9,3.2-32.7,4.8c-8.6,1.3-17.3,2.6-25.9,3.8c0.9-4,1.9-8,2.9-12c17.6-4.1,35.3-8.3,52.9-12.4c4.6-1.1,9-2.2,12.4-5.8
	c8.4-8.8,4.7-23.7-6.9-27.6c-4.6-1.6-8.9-0.5-13.4,0.6c-5.5,1.3-11,2.6-16.5,3.9c-6.1,1.4-12.2,2.9-18.3,4.3
	c1.6-5.2,3.3-10.4,5-15.5c12.6-5.2,25.3-10.5,37.9-15.7c2-0.8,3.9-1.5,5.7-2.6c7.3-4.3,10.4-13.9,6.6-21.7
	c-3.8-7.8-12.8-11.4-21-8.5c-2.4,0.8-4.8,1.9-7.2,2.9c-1.8,0.7-3.5,1.5-5.3,2.2c2.4-5.4,4.9-10.7,7.6-15.9c0.4-0.8,0.9-1.7,1.3-2.5
	c0.1-0.3,0.5-1,0.7-1.4c0.4-0.8,0.8-1.5,1.3-2.3c1.7-3,3.2-5.9,3.5-9.4C3738.3,2.4,3719-6,3708.4,5c-3.7,3.8-5.9,9.3-8.3,14
	c-3.8,7.3-7.3,14.8-10.6,22.4c-0.8-1.4-1.6-2.9-2.4-4.3c-4.6-8-8.6-18.1-19.1-19.1c-8.7-0.8-16.9,5.4-18.2,14.1
	c-0.7,4.4,0.5,8.3,2.6,12c4.1,7.1,8.2,14.2,12.2,21.4c3.1,5.5,6.3,10.9,9.4,16.4c-1.5,4.5-3,9-4.4,13.5c-2.6-3.2-5.2-6.5-7.8-9.7
	c-3.7-4.7-7.5-9.3-11.2-14c-2.2-2.7-4.3-5.8-7-8c-10-8-25.3-1.6-27.1,10.9c-0.8,6,1.9,10.7,5.4,15.2c6.9,8.6,13.8,17.3,20.7,25.9
	c5.2,6.5,10.5,13.1,15.7,19.6c-0.8,3.1-1.5,6.2-2.3,9.3c-13-12.4-26-24.9-39.1-37.3c-3.7-3.5-7.8-5.6-13-5.5
	c-7.1,0.2-13.4,4.9-15.5,11.7c-2.3,7.3,0.8,13.7,6,18.7c9.9,9.4,19.8,18.9,29.7,28.3c7.9,7.6,15.9,15.1,23.8,22.7
	c-1,5.4-2,10.9-2.8,16.3c-18.3-15.9-36.5-31.9-54.9-47.6c-9.8-8.4-25.5-3.9-27.9,9.3c-1.6,8.7,3.7,14.2,9.6,19.3
	c12.8,11.1,25.6,22.2,38.3,33.3c9.8,8.5,19.5,17,29.3,25.4c-0.4,3.8-0.9,7.7-1.3,11.5c-20.8-14.9-41.7-29.7-62.5-44.6
	c-2.6-1.9-5.4-3.5-8.7-4c-9-1.4-17.8,4.8-19.3,13.9c-1.4,9.1,4.2,14.6,10.8,19.2c14.2,10.2,28.5,20.3,42.7,30.5
	c11.2,8,22.4,16,33.6,24c-0.6,9-1.1,18.1-1.4,27.1c-24.8-15.2-49.7-30.5-74.5-45.7c-2-1.2-4-2.6-6.2-3.4c-9.8-3.4-20.6,3-22.2,13.3
	c-1.6,9.8,5.1,15.2,12.3,19.7c16.7,10.2,33.4,20.5,50.1,30.7c13.3,8.1,26.5,16.3,39.8,24.4c0,5.6,0,11.3,0.1,16.9
	c-28.8-11.7-57.6-23.4-86.4-35.1c-1.2-0.5-2.5-1.1-3.7-1.5c-9.8-3.5-20.6,2.1-22.7,12.6c-1.6,8.2,3.1,15.6,10.5,18.8
	c1.5,0.7,3,1.2,4.5,1.8c18.5,7.5,37.1,15.1,55.6,22.6c14.4,5.8,28.8,11.7,43.2,17.5c0.2,5,0.5,10,0.7,14.9
	c-30.9-6.4-61.9-12.8-92.8-19.2c-2.1-0.4-4.2-1-6.3-1.3c-8.3-1.4-16.8,3.7-19,11.9c-0.1,0.2-0.1,0.5-0.2,0.7
	c-0.1,0.4-0.2,0.9-0.3,1.3c-1.4,9.6,5.2,17.2,14.2,19.2c1.6,0.3,3.1,0.6,4.7,1c8.5,1.7,16.9,3.5,25.4,5.2
	c22.4,4.6,44.8,9.3,67.2,13.9c3.3,0.7,6.5,1.3,9.8,2c0.5,5.7,1,11.4,1.6,17.1c-24.8-1.4-49.6-2.9-74.4-4.3c-1-0.1-2-0.2-3-0.2
	c-8.5-0.2-16,4.9-17.7,13.5c-2.3,11.2,6.5,19.6,17.1,20.2c15.1,0.9,30.3,1.7,45.4,2.6c12.1,0.7,24.2,1.4,36.3,2.1
	c1,8.3,2.1,16.6,3.4,24.8c1.4,9.4,9.1,16.8,19.1,15.5c9.6-1.3,15.3-10.1,14.4-19.3c-0.8-8.4-2.2-16.8-3.4-25.2
	c27.4-8.7,54.8-17.3,82.2-26c6.8-2.1,13.1-4.6,15.5-12.3C3776.4,459,3771.5,449.3,3762.8,446.6z"/>
<g>
	<path fill="#669585" d="M3610.7,564.4c-3.2-67,15.1-190.8,156.8-322.9c3.8-3.6,9.6,1.4,6.6,5.7c-22.7,32.2-57.8,85.3-88.9,146.2
		c32.8-41.9,79.7-85.5,146.9-126.4c4.5-2.7,9.1,3.3,5.3,6.9c-26.7,25.1-67.7,65.7-107.7,114.3c38.4-33.6,89.5-66.4,157.6-94
		c4.9-2,8.5,4.7,4.1,7.7c-38.9,26.1-104.9,73.7-164.1,131.8c46.4-31.3,108.9-59.7,192.8-76.8c5.2-1.1,7.5,6.2,2.6,8.3
		c-36.2,15.6-93.8,42.6-152.2,78.3c49.8-18.6,112.6-31.3,191.2-31.1c5.3,0,6.1,7.6,0.9,8.7c-35.9,7.4-92,20.7-151.5,41.3
		c50.3-8.6,111-10,183.5,2.1c5.2,0.9,4.8,8.5-0.5,8.7c-78,3.3-250.8,18-359.4,83.3c-1.6,0.9-3.2,0.8-4.4,0.1
		c-0.7,1.4-1.5,2.8-2.2,4.1c-1,1.9-2.7,2.5-4.4,2.3c-0.1,0.1-0.1,0.1-0.1,0.2c-1.2,6.7-2.1,13.3-2.9,19.8c-0.6,5.1-8.1,5.1-8.7,0
		c-0.4-3.2-0.7-6.7-1-10.4c-1.7-1.1-2.7-3.2-1.7-5.5C3609.9,566.1,3610.3,565.3,3610.7,564.4z"/>
	<g>
		<g>
			<path fill="#91AC8E" d="M3890.2,465.1c-68.2,3.3-135.7,17.4-199.4,42.1c0.9-0.4,2-0.4,2.9-0.8c61.9-24,127.3-37.3,193.6-40.5
				C3888.2,465.8,3889.2,465.1,3890.2,465.1L3890.2,465.1z"/>
		</g>
	</g>
	<g>
		<g>
			<path fill="#91AC8E" d="M3860.3,434.1c-57.4,16.2-116.4,33.1-165.1,69c0.7-0.5,2.1-0.2,2.9-0.8c48.6-35.8,107.3-52.7,164.7-68.9
				C3863,433.4,3860.9,433.9,3860.3,434.1L3860.3,434.1z"/>
		</g>
	</g>
	<g>
		<g>
			<path fill="#91AC8E" d="M3821.8,399.4c-31.2,13.4-59.7,31.8-87.6,51c-13.7,9.4-27.4,19.2-39.5,30.7
				c-11.1,10.7-21.1,22.6-34.3,30.8c0.8-0.5,2.1-0.3,2.9-0.8c12.7-7.9,22.6-19.2,33.1-29.7c11.8-11.7,25.5-21.4,39.1-30.9
				c28.3-19.6,57.4-38.4,89.1-52C3823.8,399,3822.7,399,3821.8,399.4L3821.8,399.4z"/>
		</g>
	</g>
	<g>
		<g>
			<path fill="#91AC8E" d="M3780.9,366.7c-30.2,15.9-55.2,38.5-79.8,61.8c-21.4,20.3-46.2,40-56.8,68.6c0.2-0.5,2.7-0.2,2.9-0.8
				c10.6-28.5,35.4-48.3,56.8-68.6c24.7-23.2,49.6-45.9,79.8-61.8C3782.9,366.4,3781.7,366.3,3780.9,366.7L3780.9,366.7z"/>
		</g>
	</g>
	<g>
		<g>
			<path fill="#91AC8E" d="M3761,333.7c-24.7,24-49.3,48-72.4,73.5c-21,23.2-42,47.3-54,76.5c0.2-0.5,2.7-0.2,2.9-0.8
				c11.8-28.8,32.2-52.5,52.8-75.3c23.5-26,48.5-50.4,73.6-74.7C3763.3,333.6,3761.7,333.1,3761,333.7L3761,333.7z"/>
		</g>
	</g>
	<g>
		<g>
			<path fill="#91AC8E" d="M3693.5,343.6c-14.7,23.1-30.7,45.4-44.6,69.1c-13.7,23.3-19.7,49.5-26.2,75.5c0.1-0.4,2.8-0.3,2.9-0.8
				c6.3-25.3,12.2-51,25.2-73.9c13.9-24.4,30.5-47.1,45.5-70.7C3696,343.5,3693.9,343,3693.5,343.6L3693.5,343.6z"/>
		</g>
	</g>
</g>
<g>
</g>
<g>
</g>
<g>
</g>
<g>
</g>
<g>
</g>
<g>
</g>
<g>
</g>
<g>
</g>
<g>
</g>
<g>
</g>
<g>
</g>
<g>
</g>
<g>
</g>
<g>
</g>
<g>
</g>
</svg>
