<?xml version="1.0" encoding="utf-8"?>
<!-- Generator: Adobe Illustrator 18.0.0, SVG Export Plug-In . SVG Version: 6.00 Build 0)  -->
<!DOCTYPE svg PUBLIC "-//W3C//DTD SVG 1.1//EN" "http://www.w3.org/Graphics/SVG/1.1/DTD/svg11.dtd">
<svg version="1.1" id="Layer_1" xmlns="http://www.w3.org/2000/svg" xmlns:xlink="http://www.w3.org/1999/xlink" x="0px" y="0px"
	 viewBox="0 0 2649.6 1189" enable-background="new 0 0 2649.6 1189" xml:space="preserve">
<defs><pattern id="pat" width="360" height="360" patternUnits="userSpaceOnUse" viewBox="0 0 360 360"><rect width="360" height="360" style="fill:none"/><rect width="360" height="360" style="fill:#f9d4be"/><path d="M54.68,54.25c-.13,14.82,5.58,26.93,14.74,38.22,7.68,9.47,12.95,17.29,12.22,30-.57,10,15,10,15.58,0,.73-12.72-3-23.6-10.76-33.59C78,78,70.14,68.93,70.27,54.25c.09-10-15.49-10-15.58,0Z" style="fill:#f5bbb1"/><path d="M144.85,98.17c8.46,0,8.47-13.15,0-13.15s-8.47,13.15,0,13.15Z" style="fill:#f5bbb1"/><path d="M57.6,158.37c8.46,0,8.47-13.15,0-13.15s-8.47,13.15,0,13.15Z" style="fill:#f5bbb1"/><path d="M92.5,156.62c8.46,0,8.47-13.15,0-13.15s-8.47,13.15,0,13.15Z" style="fill:#f5bbb1"/><path d="M137.87,180.18c8.46,0,8.47-13.15,0-13.15s-8.47,13.15,0,13.15Z" style="fill:#f5bbb1"/><path d="M132,150.35c7.73-4,15.6-7.69,23.68-10.93,3.89-1.56,6.67-5.21,5.44-9.58-1-3.7-5.64-7-9.58-5.44-9.33,3.74-18.48,7.87-27.4,12.5s-1,18.07,7.86,13.45Z" style="fill:#f5bbb1"/><path d="M117.34,36.41a57.7,57.7,0,0,1,14.2,12.67c2.66,3.26,8.25,2.76,11,0,3.22-3.22,2.67-7.75,0-11A70.36,70.36,0,0,0,125.2,23c-8.53-5.32-16.36,8.15-7.86,13.45Z" style="fill:#f5bbb1"/><path d="M249,49l-9.8,9.39a7.87,7.87,0,0,0,0,11,8,8,0,0,0,11,0L260,60a7.87,7.87,0,0,0,0-11,8,8,0,0,0-11,0Z" style="fill:#f5bbb1"/><path d="M205.81,136.61c4.09-9.39,14.81-11.7,23-16.32,9.64-5.42,15.16-13.75,19.94-23.5,4.39-9-9-16.88-13.45-7.86-2.48,5.06-4.92,10.65-9.23,14.45-3.62,3.18-8.22,5.06-12.53,7.1-8.63,4.08-17.22,9.12-21.2,18.27s9.46,17,13.45,7.86Z" style="fill:#f5bbb1"/><path d="M182.61,88.55l5.23,11.34c1.71,3.71,7.36,4.92,10.66,2.79,3.83-2.47,4.63-6.69,2.79-10.66l-5.23-11.34c-1.71-3.71-7.36-4.92-10.66-2.79-3.83,2.47-4.63,6.69-2.79,10.66Z" style="fill:#f5bbb1"/><path d="M171.64,172.46a190.61,190.61,0,0,0-3.31,30.81c-.24,10,15.34,10,15.58,0a164.52,164.52,0,0,1,2.75-26.66c1.85-9.8-13.17-14-15-4.14Z" style="fill:#f5bbb1"/><path d="M73.94,182.95c-6.41,8.13-12.9,16.41-15.77,26.54-1.95,6.87-.71,21.69-9.57,23.76-9.76,2.29-5.63,17.32,4.14,15,10.37-2.43,16-11.82,18.08-21.67,1.21-5.87,1.49-11.84,4-17.39S81.21,198.72,85,194c6.15-7.79-4.81-18.89-11-11Z" style="fill:#f5bbb1"/><path d="M97,232.05c10.62,6.78,15.52,19.57,26.37,26.43,8.5,5.38,16.32-8.1,7.86-13.45-10.64-6.73-15.56-19.53-26.37-26.43-8.48-5.41-16.3,8.07-7.86,13.45Z" style="fill:#f5bbb1"/><path d="M77.91,274.36a58.42,58.42,0,0,1-14.63,15.55c-3.4,2.46-5.07,6.78-2.79,10.66,2,3.36,7.23,5.28,10.66,2.79a78.8,78.8,0,0,0,20.22-21.14c5.47-8.44-8-16.26-13.45-7.86Z" style="fill:#f5bbb1"/><path d="M49.37,334.6a42,42,0,0,1,13.84,9.61c6.93,7.28,17.93-3.75,11-11a53.23,53.23,0,0,0-17-12.05c-3.85-1.69-8.37-1.13-10.66,2.79-1.94,3.31-1.08,9,2.79,10.66Z" style="fill:#f5bbb1"/><path d="M125,324.68l27.2-6.3c9.76-2.26,5.63-17.29-4.14-15l-27.2,6.3c-9.76,2.26-5.63,17.29,4.14,15Z" style="fill:#f5bbb1"/><path d="M18.18,98.38A42.65,42.65,0,0,1,9,110.16c-3.08,2.87-2.9,8.12,0,11a7.92,7.92,0,0,0,11,0,59.26,59.26,0,0,0,11.6-14.94,7.79,7.79,0,1,0-13.45-7.86Z" style="fill:#f5bbb1"/><path d="M19.66,178.54l-3.58,13.94a7.94,7.94,0,0,0,5.44,9.58,7.89,7.89,0,0,0,9.58-5.44l3.58-13.94a7.79,7.79,0,0,0-15-4.14Z" style="fill:#f5bbb1"/><path d="M27.07,32.74c8.46,0,8.47-13.15,0-13.15s-8.47,13.15,0,13.15Z" style="fill:#f5bbb1"/><path d="M333.29,26.63c8.46,0,8.47-13.15,0-13.15s-8.47,13.15,0,13.15Z" style="fill:#f5bbb1"/><path d="M284.78,59.92c5.82-2.41,10.33-3.44,15.51.5,4.26,3.23,7.74,7.34,12.12,10.46a29.1,29.1,0,0,0,32.09,1c8.59-5.16.76-18.64-7.86-13.45-10.8,6.49-17.71-2.72-25.43-9.08-9.31-7.67-19.37-9-30.57-4.41-9.14,3.78-5.13,18.86,4.14,15Z" style="fill:#f5bbb1"/><path d="M284.78,103.32a57.69,57.69,0,0,1,8.63,18.29c2.62,9.67,17.65,5.57,15-4.14a70.51,70.51,0,0,0-10.2-22c-2.41-3.44-6.82-5-10.66-2.79-3.41,2-5.22,7.19-2.79,10.66Z" style="fill:#f5bbb1"/><path d="M263.5,154c8.46,0,8.47-13.15,0-13.15S255,154,263.5,154Z" style="fill:#f5bbb1"/><path d="M233,199.37c8.46,0,8.47-13.15,0-13.15s-8.47,13.15,0,13.15Z" style="fill:#f5bbb1"/><path d="M310.61,202c8.46,0,8.47-13.15,0-13.15s-8.47,13.15,0,13.15Z" style="fill:#f5bbb1"/><path d="M334.58,134.57a61.56,61.56,0,0,0-21.46,16.22c-2.72,3.21-3.15,7.87,0,11,2.79,2.79,8.28,3.22,11,0A51.14,51.14,0,0,1,342.45,148c3.83-1.74,4.76-7.3,2.79-10.66-2.31-3.94-6.81-4.54-10.66-2.79Z" style="fill:#f5bbb1"/><path d="M263.64,193.68l-1,22.68c-.44,10,15.14,10,15.58,0l1-22.68c.44-10-15.14-10-15.58,0Z" style="fill:#f5bbb1"/><path d="M229.56,249.92a452.28,452.28,0,0,1,46.77,27.84c8.31,5.65,16.12-7.84,7.86-13.45a452.28,452.28,0,0,0-46.77-27.84c-8.9-4.59-16.79,8.85-7.86,13.45Z" style="fill:#f5bbb1"/><path d="M327.07,269.47q-21.68,20.22-41.45,42.32c-6.67,7.45,4.31,18.51,11,11q19.77-22.09,41.45-42.32c7.35-6.85-3.69-17.85-11-11Z" style="fill:#f5bbb1"/><path d="M180.54,252c-.47,15.11,6.44,28,12,41.57,4.64,11.25,8.68,26.06-1.72,35.38-7.48,6.71,3.57,17.7,11,11,11.18-10,12.93-25.89,9.4-39.79-4.15-16.35-15.7-30.77-15.15-48.18.31-10-15.27-10-15.58,0Z" style="fill:#f5bbb1"/><path d="M30.56,316.28c8.46,0,8.47-13.15,0-13.15s-8.47,13.15,0,13.15Z" style="fill:#f5bbb1"/><path d="M42.77,283.13c8.46,0,8.47-13.15,0-13.15s-8.47,13.15,0,13.15Z" style="fill:#f5bbb1"/><path d="M234.56,325.92c8.46,0,8.47-13.15,0-13.15s-8.47,13.15,0,13.15Z" style="fill:#f5bbb1"/><path d="M332.7,345.55c8.46,0,8.47-13.15,0-13.15s-8.47,13.15,0,13.15Z" style="fill:#f5bbb1"/><path d="M319,257.21c8.46,0,8.47-13.15,0-13.15s-8.47,13.15,0,13.15Z" style="fill:#f5bbb1"/><path d="M181.56,33.44c8.46,0,8.47-13.15,0-13.15s-8.47,13.15,0,13.15Z" style="fill:#f5bbb1"/><path d="M79.49,29.52c8.46,0,8.47-13.15,0-13.15s-8.47,13.15,0,13.15Z" style="fill:#f5bbb1"/><path d="M262,27.55c8.46,0,8.47-13.15,0-13.15s-8.47,13.15,0,13.15Z" style="fill:#f5bbb1"/><path d="M159.68,255.21c8.46,0,8.47-13.15,0-13.15s-8.47,13.15,0,13.15Z" style="fill:#f5bbb1"/></pattern></defs>
<g>
	<path fill="url(#pat)" d="M2649.6,0C2223,0,1802.4,101.2,1422.5,295.2L714.4,656.9C496.1,768.4,254.4,826.6,9.3,826.6H0V1189
		h2649.6v-79.6V826.6L2649.6,0L2649.6,0z"/>
</g>
<g>
</g>
<g>
</g>
<g>
</g>
<g>
</g>
<g>
</g>
<g>
</g>
<g>
</g>
<g>
</g>
<g>
</g>
<g>
</g>
<g>
</g>
<g>
</g>
<g>
</g>
<g>
</g>
<g>
</g>
</svg>
