<?xml version="1.0" encoding="utf-8"?>
<!-- Generator: Adobe Illustrator 18.0.0, SVG Export Plug-In . SVG Version: 6.00 Build 0)  -->
<!DOCTYPE svg PUBLIC "-//W3C//DTD SVG 1.1//EN" "http://www.w3.org/Graphics/SVG/1.1/DTD/svg11.dtd">
<svg version="1.1" id="Layer_1" xmlns="http://www.w3.org/2000/svg" xmlns:xlink="http://www.w3.org/1999/xlink" x="0px" y="0px"
	 viewBox="0 0 589.2 247.8" enable-background="new 0 0 589.2 247.8" xml:space="preserve">
<g>
	<path fill="#FFFFFF" d="M518.9,199H70.3C31.6,199,0,167.3,0,128.7V70.3C0,31.6,31.6,0,70.3,0l448.6,0c38.7,0,70.3,31.6,70.3,70.3
		v58.4C589.2,167.3,557.5,199,518.9,199z"/>
	<g>
		<path fill="#757679" d="M71.6,40.6v13.8h-9.5c-0.1,1.2-0.1,2.4-0.2,3.6h10.8c0,7.4-0.2,11.9-0.6,13.6c-0.5,2.8-2.8,4.2-6.8,4.2
			c-0.6,0-1.8-0.1-3.4-0.2L61,72c1.4,0.1,2.6,0.2,3.6,0.2c2,0,3.2-0.8,3.6-2.4c0.2-0.8,0.3-3.4,0.4-7.9h-7.1
			c-0.3,2.3-0.7,4.2-1.1,5.7c-1,3.3-2.8,6.1-5.2,8.6l-2.7-3.5c2-2,3.4-4.3,4.2-7c0.7-2.4,1.2-6.2,1.4-11.3h-3.3V40.6H71.6z
			 M67.5,44.5h-8.7v5.9h8.7V44.5z M79.9,42.8v24.6h-4.1V42.8H79.9z M78.1,75.9l-0.9-4c1.8,0.2,3.6,0.2,5.2,0.2c1.1,0,1.6-0.7,1.6-2
			V39.4h4.2v31.9c0,3-1.5,4.6-4.4,4.6H78.1z"/>
		<path fill="#757679" d="M131.7,40.8v3.9h-14.8v3h11.8v15h4.1v3.9h-4.1v4.7c0,3.2-1.4,4.9-4.2,4.9h-3.8l-1.1-4l3.6,0.2
			c1,0,1.5-0.7,1.5-2v-3.8H105v9.7H101v-9.7h-4.1v-3.9h4.1v-15h11.8v-3H98v-3.9H131.7z M112.8,55.2v-3.7H105v3.7H112.8z M112.8,62.7
			v-3.8H105v3.8H112.8z M116.9,55.2h7.7v-3.7h-7.7V55.2z M124.6,62.7v-3.8h-7.7v3.8H124.6z"/>
		<path fill="#757679" d="M144.2,49.4l-3.6-2.3c2.3-2.5,3.9-5.2,4.8-8l4,0.9c-0.2,0.6-0.4,1.2-0.7,1.8h9.8v3.6H153
			c0.6,0.9,1.2,1.8,1.6,2.6l-3.8,1.5c-0.6-1.4-1.4-2.8-2.3-4.1H147C146.2,46.9,145.3,48.2,144.2,49.4z M176,57.7h-4.1v-4.3h-26.4
			v4.3h-4.1v-7.8h15.3c-0.3-0.7-0.6-1.4-1-2l3.5-0.6l-0.8-0.5c1.8-2.4,3.2-5,4-7.7l4,0.9c-0.2,0.6-0.4,1.2-0.6,1.8h11v3.6h-6.3
			c0.6,0.8,1,1.6,1.4,2.3l-3.7,1.4c-0.6-1.3-1.4-2.5-2.2-3.7h-1.8c-0.7,1.3-1.4,2.5-2.2,3.6l-1.8-1.2c0.2,0.6,0.5,1.3,0.8,2h15V57.7
			z M170.4,63.6h-19.3v1.9h21.2v10.9h-4.1V75h-17v1.3H147V55h23.5V63.6z M166.4,60.3v-2h-15.2v2H166.4z M168.2,71.3v-2.6h-17v2.6
			H168.2z"/>
		<path fill="#757679" d="M203,61.7c-2.1,0.7-4.3,1.4-6.6,2v8.1c0,2.6-1.4,4-4.2,4h-4.5l-0.9-4c1.4,0.2,2.7,0.2,4,0.2
			c0.9,0,1.4-0.5,1.4-1.4v-6c-2.3,0.5-4.7,0.9-7.2,1.3l-0.6-4.2c2.7-0.4,5.3-0.9,7.8-1.4v-6.9h-7.8v-4h7.8v-3.7
			c-1.9,0.4-3.9,0.7-6,1l-0.9-4c5.5-0.6,10.5-1.8,14.8-3.5l1.4,3.9c-1.6,0.6-3.4,1.1-5.2,1.6v4.7h8.2c-0.2-3.1-0.3-6.5-0.3-10.2h4.2
			c0,3.8,0.2,7.2,0.4,10.2h12v4h-11.6c0.2,2.6,0.6,4.7,1,6.4c0.2,0.6,0.3,1.2,0.5,1.8c1.6-2,3.1-4.3,4.3-6.8l3.6,1.9
			c-1.8,3.6-3.9,6.8-6.3,9.4c0.4,1,0.8,1.8,1.3,2.4c1.1,1.8,2,2.6,2.6,2.6c0.4,0,0.9-2,1.4-6l3.7,2c-1,5.7-2.5,8.6-4.5,8.6
			c-1.8,0-3.6-1.2-5.5-3.6c-0.7-0.9-1.4-2-2-3.2c-2.7,2.2-5.8,4-9.1,5.3l-2.3-3.6c3.7-1.4,6.9-3.3,9.7-5.8c-0.4-1.3-0.8-2.6-1.2-4
			c-0.6-2.2-1-4.7-1.4-7.6h-8.6v5.9c2.3-0.6,4.6-1.2,6.6-2V61.7z M220,45l-3,3c-1.6-1.8-4-3.6-7-5.6l2.8-2.7
			C215.6,41.5,218,43.2,220,45z"/>
		<path fill="#757679" d="M243,73.8h-4v-2h-5.9V75h-4V45.8h3.8c0.7-2.1,1.2-4.3,1.6-6.6l4.2,0.6c-0.4,2.2-1,4.2-1.8,6h6.1V73.8z
			 M239,56.7v-7h-5.9v7H239z M239,68v-7.6h-5.9V68H239z M263,71.7c-0.4,2.8-2.3,4.2-5.8,4.2c-0.8,0-2.2-0.1-4.3-0.2l-1-3.8
			c1.8,0.1,3.3,0.2,4.6,0.2c1.4,0,2.3-0.8,2.5-2.4c0.2-1.9,0.4-8.5,0.4-19.8h-9.7c-1.1,2.4-2.4,4.6-3.8,6.5l-2.5-3.3
			c2.6-3.8,4.4-8.4,5.4-13.9l4.1,0.5c-0.4,2.2-0.9,4.2-1.5,6.1h12.2C263.6,59.8,263.4,68.4,263,71.7z M256.2,64.1l-3.4,2.3
			c-1.5-2.6-3.5-5.6-6-8.8l3.4-2.1C252.9,58.7,254.8,61.6,256.2,64.1z"/>
		<path fill="#757679" d="M275.5,76.5l-3.2-2.9c2.9-3.4,4.4-7.7,4.5-13v-8.6c-0.8,0.5-1.5,1-2.2,1.5l-2.6-3.2
			c4.6-2.6,8.6-6.4,12-11.3l4.2,1c-0.5,0.7-1,1.4-1.5,2.2h14.2v3c-1.3,1.4-2.5,2.6-3.8,3.6h8.6v23.7c0,2.4-1.4,3.6-4,3.6h-5.4
			l-1-3.8c1.9,0.1,3.6,0.2,5.2,0.2c0.7,0,1.1-0.5,1.1-1.4v-3.7H280C279.1,70.9,277.6,73.9,275.5,76.5z M280.8,60.3
			c0,1.2-0.1,2.3-0.2,3.4h8.3V60h-8.1V60.3z M291.2,48.8c1.3-0.9,2.6-2,4-3.1h-11.4c-1,1.1-2,2.1-3,3.1H291.2z M280.8,52.6v3.8h8.1
			v-3.8H280.8z M301.5,52.6H293v3.8h8.6V52.6z M301.5,60H293v3.7h8.6V60z"/>
		<path fill="#757679" d="M343.3,45.3h-25.2v-4h31v4c-3.7,3.3-7.8,6.4-12.4,9.4v16.9c0,3-1.5,4.4-4.4,4.4c-2.4,0-4.6-0.1-6.4-0.3
			l-1.1-4c2,0.2,4.1,0.4,6.4,0.4c0.8,0,1.3-0.4,1.3-1.3V52.5C336.3,50.4,339.9,48,343.3,45.3z"/>
		<path fill="#757679" d="M380.1,66.9c0.6,0.6,0.9,1.3,0.9,2.2s-0.3,1.6-0.9,2.2c-0.6,0.6-1.4,0.8-2.2,0.8c-0.9,0-1.6-0.3-2.2-0.9
			c-0.6-0.6-0.9-1.3-0.9-2.2s0.3-1.6,0.9-2.2c0.6-0.6,1.3-0.8,2.2-0.8C378.7,66.1,379.5,66.4,380.1,66.9z M380.6,43.6l-1,20.4h-3.4
			l-1-20.4H380.6z"/>
		<path fill="#757679" d="M420,42.5c0.2-1.2,0.3-2.4,0.4-3.6l4.2,0.6l-0.4,3h15.3v3.9h-16c-0.2,1-0.4,2.1-0.7,3.1h14.8v22
			c0,3-1.4,4.6-4.2,4.6h-3.7l-1.1-4l3.4,0.1c1,0,1.4-0.6,1.4-1.6V53.4h-23.8v22.9h-4.1V49.5h13c0.2-1,0.4-2.1,0.6-3.1h-15.6v-3.9
			H420z M420,58.5h3.4c0.8-1.5,1.5-3,2.1-4.7l3.8,1.4c-0.6,1.2-1.2,2.4-1.8,3.4h3.6v3.6h-7.4v3h8.4v3.6h-8.4v6.9h-4.1v-6.9h-8.4
			v-3.6h8.4v-3h-7.2v-3.6h3.6c-0.6-1.2-1.2-2.2-1.8-3.2l3.7-1.4C418.7,55.2,419.4,56.7,420,58.5z"/>
		<path fill="#757679" d="M458.7,45.2v-5.9h4.2V59c-0.1,7.9-2.3,13.7-6.6,17.4l-3.2-2.8c2.2-1.8,3.7-4.2,4.6-7.2
			c-3.1,0.7-6.3,1.4-9.6,2l-1-4.2c3.9-0.4,7.8-1,11.5-1.8c0.1-1.1,0.2-2.2,0.2-3.3v-0.8H449v-4h9.7v-5h-10.6v-4H458.7z M472.3,39.3
			v5.9h10.6v4h-10.6v5h9.7v4h-9.7v5.2h11.2v4h-11.2v9h-4.2v-37H472.3z"/>
		<path fill="#757679" d="M516.7,73.9l-1-3.8l3,0.2c0.9,0,1.4-0.5,1.4-1.5v-3.2h-8.6v10.7h-4.2V65.6h-8.6v7.8h-4.1V61.9h12.8v-2.3
			h-2l-0.8-3.1l1.8,0.2c0.6,0,0.9-0.4,0.9-1.1v-1.1l-2.5,0.7c-0.3-2-0.8-3.8-1.2-5.6l2.2-0.8c0.6,1.6,1.1,3.4,1.5,5.4v-6.4h-4v11.2
			h-3.1V47.9h-4.2v11.7h-3.4v-15h3.2c-0.7-1.4-1.5-2.6-2.3-3.6l3-1.4c0.8,1.2,1.6,2.5,2.4,4l-2.1,1h3.3v-5.2h3.4v5.2h3.2l-2-1.1
			c1-1.4,1.7-2.7,2.3-4l3,1.5c-0.6,1.2-1.3,2.4-2.2,3.6h2.8v3.8c2.4-2.6,4-5.6,4.8-9.1l3.8,0.5c-0.3,1.1-0.6,2.1-1,3.1h8.6v3.6h-1.5
			c-0.8,2.9-2,5.3-3.5,7.3c1.8,1.2,3.8,2.2,6,3.2l-2,3.4c-2.5-1.2-4.7-2.5-6.6-3.9c-1.8,1.6-4,2.8-6.4,3.6l-1.9-3.2
			c2.2-0.6,4-1.6,5.6-2.8c-0.9-0.8-1.6-1.7-2.3-2.6l1.8-2.7c0.8,1,1.8,2,2.9,2.9c1.1-1.5,2-3.2,2.6-5.2h-5c-1.1,1.9-2.4,3.6-4,5.2
			l-2-2.6v7.3c0,1.6-0.6,2.6-1.6,3h2.6v2.6h12.8v7.8c0,2.8-1.4,4.2-4.1,4.2H516.7z M499.7,49.7c-0.2,2.6-0.5,4.9-1,7l-2.6-0.9
			c0.6-1.8,1-4,1.2-6.4L499.7,49.7z"/>
		<path fill="#757679" d="M62.9,108.9v3.2c-1.2,2-2.6,4-4.2,6h4.6v2.7c-0.5,2.9-1.1,5.3-1.8,7.2c0.3,0.2,0.6,0.4,0.9,0.8
			c1.3,1.2,2.4,2.1,3.6,2.6c1.2,0.4,2.8,0.7,5,0.8c2.2,0,4.6,0,7.4,0c2.9,0,6.6-0.1,11.2-0.3l-1,3.9h-9.8c-2.7,0-5.4-0.1-8.1-0.2
			c-2.7-0.1-4.8-0.4-6.1-1c-1.7-0.7-3.2-1.7-4.5-3.1c-0.3-0.3-0.6-0.4-0.9-0.4c-0.8,0-2,1.7-3.7,5.2l-3-2.8c1.8-3.4,3.6-5.5,5.2-6.1
			c0.7-1.8,1.3-3.7,1.7-5.8h-5.6v-3.1c1.8-2.1,3.4-4,4.6-5.8h-5.2v-3.8H62.9z M62.8,105.1l-2.7,2.7c-1.4-1.8-3.5-3.7-6.1-5.8
			l2.8-2.6C59.2,101.3,61.2,103.2,62.8,105.1z M74,102.9c-0.4-1.1-0.9-2.1-1.4-3l4.4-0.7c0.4,1.1,0.9,2.3,1.3,3.7h9.9v3.8H64.6v-3.8
			H74z M86.3,119.9v10.5H66.9v-10.5H86.3z M85.3,108.8v3.3H67.8v-3.3H85.3z M85.3,114.3v3.3H67.8v-3.3H85.3z M82.2,123.2H71v3.7
			h11.2V123.2z"/>
		<path fill="#757679" d="M116.1,101.6h14.2v3.5h-29.2v11.1c-0.1,8.2-1.4,14.8-3.7,19.7l-3.2-2.8c1.8-4,2.8-9.7,2.9-16.9v-14.6H112
			c-0.4-0.8-0.8-1.4-1.2-2l4.1-0.6C115.3,99.7,115.7,100.6,116.1,101.6z M105.8,112.3c-0.1,3.4-0.9,5.9-2.5,7.6l-2-1.7
			c1.3-1.3,2-3.3,2.1-5.9H105.8z M130.4,134l-3.3,2.3c-0.6-1-1.2-2-1.8-2.9c-5.7,1-13,1.7-22,2.3l-1.1-3.4c1.2-0.1,2.4-0.4,3.4-0.7
			c2.2-1,4.7-2.4,7.3-4.2c-2.7,0.1-5.6,0.2-8.6,0.3l-0.8-3.2c0.9-0.1,1.7-0.4,2.5-0.7c1.5-0.6,3.4-2.2,5.8-4.9l3.8,0.9
			c-1.6,1.8-3.4,3.4-5.2,4.6c2.2-0.1,4.4-0.2,6.6-0.3c1.3-1.1,2.6-2.2,4-3.4l3.7,1.8c-4.9,4.1-9.2,7.2-12.9,9.4
			c4.2-0.4,8-0.9,11.2-1.4c-0.7-0.9-1.4-1.8-2.1-2.7l3.2-2C126.8,128.8,128.9,131.6,130.4,134z M106.8,108v-2.1h3.6v2.1h4.3v3.1
			h-4.7v8.1h-2.9v-8.1h-4.9V108H106.8z M114,112.3v3c0,0.4,0.2,0.6,0.5,0.6h1.4v2.3h-2.4c-1.4,0-2-0.9-2-2.6v-3.3H114z M121.1,108
			v-2.1h3.6v2.1h5v3.1h-5.3v8.1h-2.9v-8.1h-5.3V108H121.1z M120,112.3c0,3.2-0.6,5.6-1.7,7.3l-2-1.7c0.8-1.2,1.2-3.1,1.2-5.6H120z
			 M128.3,112.3v3.8c0,0.4,0.3,0.7,1,0.7h1.6v2.2h-2.5c-1.7,0-2.5-0.9-2.5-2.7v-4H128.3z"/>
		<path fill="#757679" d="M145.8,136.1h-4V119c-1.1,3-2.4,5.8-3.8,8.4l-1.8-4.6c2.5-3.5,4.4-7.6,5.6-12.1H137v-4h4.8v-7.4h4v7.4h3.6
			v4h-3.6v2.8c1.5,1.4,3,3,4.5,4.8l-2.2,3.3l-2.3-3.6V136.1z M158.9,101.8c0.2-1,0.3-1.9,0.4-2.9l4.2,0.5l-0.3,2.4h8.2v3.6h-8.8
			c-0.2,0.7-0.3,1.3-0.5,1.9h8v3.4h-9c-0.2,0.6-0.5,1.3-0.8,2h12.3v3.7h-4.3c1.3,2.1,3.2,3.9,5.6,5.6l-2.6,3.2c-1.2-1-2.3-2-3.3-3.1
			v2.5h-4.9v2.6h7.9v3.8h-7.9v5.2h-4V131h-8.1v-3.8h8.1v-2.6H154v-2.1c-1.1,1.2-2.3,2.2-3.6,3.1l-2.3-3.6c2.2-1.4,4.1-3.4,5.7-5.7
			h-4.6v-3.7h6.6c0.3-0.6,0.6-1.3,0.8-2h-5v-3.4h6.1l0.5-1.9h-7.4v-3.6H158.9z M155.4,121.1h3.8v-3.4h4v3.4h4
			c-1.2-1.5-2.2-3-2.9-4.6h-5.7C157.5,118.1,156.5,119.7,155.4,121.1z"/>
		<path fill="#757679" d="M214.8,119.9c-0.1,7.9-0.6,12.6-1.6,14.1c-1,1.6-2.8,2.4-5.4,2.4c-1.1,0-2.4-0.1-4-0.2l-1.1-3.9
			c1.6,0.1,3,0.2,4.1,0.3c1.6,0,2.6-0.6,3-1.5c0.4-0.9,0.6-3.4,0.7-7.4h-23.9c-1.8,1.8-3.9,3.4-6,4.8l-2.1-3.7
			c5.8-3.8,10-9.1,12.8-15.7h-10v-3.7h5.9c-0.8-1.2-1.7-2.4-2.7-3.7l3.3-2.1c1.4,1.7,2.5,3.2,3.3,4.5l-1.9,1.3h3.5
			c0.6-1.9,1-3.9,1.4-6l4.1,0.5c-0.4,1.9-0.8,3.7-1.3,5.4h12.2l-1.4,7.1h4.8l-1.3,7.5H214.8z M189.7,126.5c-1,3.3-2.5,6.2-4.4,8.6
			l-3.6-2.3c2-2.2,3.4-4.6,4.2-7.2L189.7,126.5z M190,119.9h17.2l0.8-3.8h-15.5C191.7,117.4,190.8,118.7,190,119.9z M196.2,133.5
			l-4,0.5c-0.2-3.1-0.6-5.5-1.2-7.2l3.5-0.4C195.3,128.1,195.9,130.4,196.2,133.5z M195.8,109c-0.4,1.2-0.9,2.3-1.4,3.4h9.2l0.9-3.4
			H195.8z M202.7,131.5l-3.8,1.4c-0.6-2.2-1.3-4.4-2.1-6.5l3.2-0.9C201.2,127.7,202,129.7,202.7,131.5z M208.8,130.2l-3.8,1
			c-0.6-2-1.3-3.8-2.2-5.6l3.3-1.1C207.1,126.1,208,128,208.8,130.2z"/>
		<path fill="#757679" d="M221.5,119.5l-1.4-4.4c4-4.6,7-9.9,9-16.1l3.9,1.8c-0.9,2.8-2.1,5.4-3.5,8v27.5h-4.2v-21.3
			C224.2,116.6,222.8,118,221.5,119.5z M246.4,99.3V112h10.9v4.2h-10.9v20.2h-4.3v-20.2h-10V112h10V99.3H246.4z"/>
		<path fill="#757679" d="M284.1,101.6h14.2v3.5h-29.2v11.1c-0.1,8.2-1.4,14.8-3.7,19.7l-3.2-2.8c1.8-4,2.8-9.7,2.9-16.9v-14.6H280
			c-0.4-0.8-0.8-1.4-1.2-2l4.1-0.6C283.3,99.7,283.7,100.6,284.1,101.6z M273.8,112.3c-0.1,3.4-0.9,5.9-2.5,7.6l-2-1.7
			c1.3-1.3,2-3.3,2.1-5.9H273.8z M298.4,134l-3.3,2.3c-0.6-1-1.2-2-1.8-2.9c-5.7,1-13,1.7-22,2.3l-1.1-3.4c1.2-0.1,2.4-0.4,3.4-0.7
			c2.2-1,4.7-2.4,7.3-4.2c-2.7,0.1-5.6,0.2-8.6,0.3l-0.8-3.2c0.9-0.1,1.7-0.4,2.5-0.7c1.5-0.6,3.4-2.2,5.8-4.9l3.8,0.9
			c-1.6,1.8-3.4,3.4-5.2,4.6c2.2-0.1,4.4-0.2,6.6-0.3c1.3-1.1,2.6-2.2,4-3.4l3.7,1.8c-4.9,4.1-9.2,7.2-12.9,9.4
			c4.2-0.4,8-0.9,11.2-1.4c-0.7-0.9-1.4-1.8-2.1-2.7l3.2-2C294.8,128.8,296.9,131.6,298.4,134z M274.8,108v-2.1h3.6v2.1h4.3v3.1
			h-4.7v8.1h-2.9v-8.1h-4.9V108H274.8z M282,112.3v3c0,0.4,0.2,0.6,0.5,0.6h1.4v2.3h-2.4c-1.4,0-2-0.9-2-2.6v-3.3H282z M289.1,108
			v-2.1h3.6v2.1h5v3.1h-5.3v8.1h-2.9v-8.1h-5.3V108H289.1z M288,112.3c0,3.2-0.6,5.6-1.7,7.3l-2-1.7c0.8-1.2,1.2-3.1,1.2-5.6H288z
			 M296.3,112.3v3.8c0,0.4,0.3,0.7,1,0.7h1.6v2.2h-2.5c-1.7,0-2.5-0.9-2.5-2.7v-4H296.3z"/>
		<path fill="#757679" d="M340.3,101v4.1h-12.9c-0.7,1.5-1.4,2.9-2.3,4.3v1.7c6.3,3.6,11.7,7.4,16.2,11.7l-2.9,3.5
			c-3.6-3.8-8-7.4-13.3-10.8v20.9h-4.3v-21.1c-3.6,4.1-8.2,7.8-13.6,11l-2.8-3.6c8.6-4.9,14.7-10.7,18.2-17.6h-17V101H340.3z"/>
		<path fill="#757679" d="M347.4,124.9l-0.9-3c3.8-0.1,6.6-0.5,8.4-1.1l0.9,2.7c-0.8,0.3-1.8,0.5-3,0.8v2.3h3v3h-3v2.2
			c1.1-0.2,2.1-0.4,3-0.6v2.8c-1.7,0.6-4.6,1-8.8,1.5l-0.5-3.2c1-0.1,2-0.1,3-0.2v-2.5h-2.9v-3h2.9v-1.8
			C348.8,124.8,348.1,124.9,347.4,124.9z M346.8,103.9v-3.5h14.9v3.5h-1.3v28.5c1.2-2.3,2-4.7,2.6-7.2l3,0.6
			c-0.7,3.5-1.8,6.5-3.2,9.1l-2.5-1.6v2.8h-3.7v-16.4h-9.9v-3.3h1.9v-12.5H346.8z M352.3,103.9v2.1h4.4v-2.1H352.3z M356.7,111.1
			v-2.2h-4.4v2.2H356.7z M356.7,116.4V114h-4.4v2.4H356.7z M382.6,119.6v3.4h-20.7v-3.4H382.6z M370.3,107.6v-2.2h-8v-3.6h8v-2.4
			h3.9v2.4h8.6v3.6h-8.6v2.2h7.9v10.3h-19.5v-10.3H370.3z M368.2,110.8H366v4h2.3V110.8z M370.1,135.7c-2.2,0-3.2-1.2-3.2-3.5v-7.4
			h3.6v6.7c0,0.4,0.2,0.6,0.8,0.6h3.2c0.4,0,0.6-0.2,0.8-0.4c0.2-0.3,0.3-1.2,0.4-2.7l3.5,1.1c-0.2,2.7-0.7,4.3-1.3,4.8
			c-0.6,0.5-1.4,0.7-2.6,0.7H370.1z M373.4,110.8h-2.2v4h2.2V110.8z M377,127.9l-2.6,1.8c-0.8-1.4-1.9-2.9-3.2-4.6l2.5-1.6
			C375.1,125.2,376.2,126.6,377,127.9z M378.6,110.8h-2.2v4h2.2V110.8z M383.8,132.3l-3.3,1.5c-0.9-3.2-1.9-6-3-8.4l3.3-1.1
			C381.9,126.8,382.9,129.5,383.8,132.3z"/>
		<path fill="#757679" d="M407.4,121.7c-2.1,0.7-4.3,1.4-6.6,2v8.1c0,2.6-1.4,4-4.2,4h-4.5l-0.9-4c1.4,0.2,2.7,0.2,4,0.2
			c0.9,0,1.4-0.5,1.4-1.4v-6c-2.3,0.5-4.7,0.9-7.2,1.3l-0.6-4.2c2.7-0.4,5.3-0.9,7.8-1.4v-6.9h-7.8v-4h7.8v-3.7
			c-1.9,0.4-3.9,0.7-6,1l-0.9-4c5.5-0.6,10.5-1.8,14.8-3.5l1.4,3.9c-1.6,0.6-3.4,1.1-5.2,1.6v4.7h8.2c-0.2-3.1-0.3-6.5-0.3-10.2h4.2
			c0,3.8,0.2,7.2,0.4,10.2h12v4h-11.6c0.2,2.6,0.6,4.7,1,6.4c0.2,0.6,0.3,1.2,0.5,1.8c1.6-2,3.1-4.3,4.3-6.8l3.6,1.9
			c-1.8,3.6-3.9,6.8-6.3,9.4c0.4,1,0.8,1.8,1.3,2.4c1.1,1.8,2,2.6,2.6,2.6c0.4,0,0.9-2,1.4-6l3.7,2c-1,5.7-2.5,8.6-4.5,8.6
			c-1.8,0-3.6-1.2-5.5-3.6c-0.7-0.9-1.4-2-2-3.2c-2.7,2.2-5.8,4-9.1,5.3l-2.3-3.6c3.7-1.4,6.9-3.3,9.7-5.8c-0.4-1.3-0.8-2.6-1.2-4
			c-0.6-2.2-1-4.7-1.4-7.6h-8.6v5.9c2.3-0.6,4.6-1.2,6.6-2V121.7z M424.5,105l-3,3c-1.6-1.8-4-3.6-7-5.6l2.8-2.7
			C420.1,101.5,422.5,103.2,424.5,105z"/>
		<path fill="#757679" d="M435.7,103.9c-0.5-1.2-1.1-2.5-1.8-3.7l4-1.1c0.8,1.8,1.4,3.3,1.8,4.8h4.1v3.8h-13.2v-3.8H435.7z
			 M443.1,133.9h-7.5v1.8h-3.9v-14.2h11.4V133.9z M442.6,110c3.1-2.6,5.4-6,6.8-10.2l3.7,1.5c-1.2,3-2.6,5.6-4.2,7.7h13.1
			c-1.8-2.9-3.6-5.5-5.5-7.8l3.5-1.6c3,3.4,5.6,7.2,7.8,11.4l-3.6,1.8c-0.4-0.6-0.7-1.2-1-1.8v10.8h-3.2v9.2c0,0.6,0.4,1,1.2,1h0.9
			c0.5,0,0.8-0.2,1-0.7c0.2-0.5,0.4-1.9,0.5-4.2l3.6,1.2c-0.3,3.6-0.8,5.7-1.4,6.4c-0.6,0.6-1.6,1-2.9,1h-2.8
			c-2.6,0-3.8-1.3-3.8-3.8v-10h-2.7c-0.5,6.6-3.2,11.5-8,14.6l-2.2-3.5c3.7-2.2,5.8-5.8,6.3-11h-3v-10.2l-1.2,1l-2.8-2.4v3.2h-10.6
			V110H442.6z M442.6,115.6v3.5h-10.6v-3.5H442.6z M439.3,130.4V125h-3.7v5.4H439.3z M459.5,112.7h-9v5.5h9V112.7z"/>
		<path fill="#757679" d="M493.2,126.9c0.6,0.6,0.9,1.3,0.9,2.2s-0.3,1.6-0.9,2.2c-0.6,0.6-1.4,0.8-2.2,0.8c-0.9,0-1.6-0.3-2.2-0.9
			c-0.6-0.6-0.9-1.3-0.9-2.2s0.3-1.6,0.9-2.2c0.6-0.6,1.3-0.8,2.2-0.8C491.9,126.1,492.6,126.4,493.2,126.9z M493.7,103.6l-1,20.4
			h-3.4l-1-20.4H493.7z"/>
	</g>
	<linearGradient id="SVGID_1_" gradientUnits="userSpaceOnUse" x1="53.1941" y1="81.4069" x2="537.0112" y2="81.4069">
		<stop  offset="0" style="stop-color:#B3B5B8"/>
		<stop  offset="1" style="stop-color:#A9ABAE"/>
	</linearGradient>
	<path fill="url(#SVGID_1_)" d="M53.2,80.2c161.3-1.4,322.7,0.4,483.7,5.5c-0.1,0,0.1-2.5,0-2.5c-161-5-322.4-6.9-483.7-5.5
		C53.2,77.7,53.2,80.2,53.2,80.2L53.2,80.2z"/>
	<linearGradient id="SVGID_2_" gradientUnits="userSpaceOnUse" x1="56.3525" y1="137.6334" x2="525.6519" y2="137.6334">
		<stop  offset="0" style="stop-color:#B3B5B8"/>
		<stop  offset="1" style="stop-color:#A9ABAE"/>
	</linearGradient>
	<path fill="url(#SVGID_2_)" d="M56.4,136.9c156.2,3.9,312.8,5,469.2,3.1c0.1,0,0-2.5,0-2.5c-156.4,1.9-313,0.9-469.2-3.1
		C56.5,134.4,56.2,136.9,56.4,136.9L56.4,136.9z"/>
	<path fill="#FFFFFF" d="M285.9,197.1c0,0-29.2,43.7-74.6,50.7c0,0,20.9-21,12.7-62L285.9,197.1z"/>
</g>
<g>
</g>
<g>
</g>
<g>
</g>
<g>
</g>
<g>
</g>
<g>
</g>
<g>
</g>
<g>
</g>
<g>
</g>
<g>
</g>
<g>
</g>
<g>
</g>
<g>
</g>
<g>
</g>
<g>
</g>
</svg>
