<?xml version="1.0" encoding="utf-8"?>
<!-- Generator: Adobe Illustrator 18.0.0, SVG Export Plug-In . SVG Version: 6.00 Build 0)  -->
<!DOCTYPE svg PUBLIC "-//W3C//DTD SVG 1.1//EN" "http://www.w3.org/Graphics/SVG/1.1/DTD/svg11.dtd">
<svg version="1.1" id="Layer_1" xmlns="http://www.w3.org/2000/svg" xmlns:xlink="http://www.w3.org/1999/xlink" x="0px" y="0px"
	 viewBox="0 122.9 612 219.1" enable-background="new 0 122.9 612 219.1" xml:space="preserve">
<g>
	<path fill="#414042" d="M188.2,180.3h-18.6c-1.5,3.7-2.6,6.6-4.6,10h3v36.8h-9V200c-2.1,3-4.5,5.7-7.1,8.3
		c-3.7,3.9-9.5,7.2-14.3,9.6l-0.6-0.4c1.4-1.3,2.8-2.6,4.2-4c3-3,5.2-7,7.3-10.5c4.4-7.4,8.2-14.5,10.9-22.7h-20.4v-3.8h49
		L188.2,180.3L188.2,180.3z M189.7,213.3c0,2.7-2.3,4.5-4.8,4.8c-2.8,0.3-5.2-1.5-5.8-4.2c-0.8-3.3-1-5-2.3-8.1
		c-2.1-5.2-4.6-8.9-8.1-13.3l0.5-0.4C177,196.8,189.7,203,189.7,213.3z"/>
	<path fill="#414042" d="M203.6,183.1v-8.3h8.5v8.3h5.6v3.7h-5.6v8.3c3.2-1.2,6.4-2.8,9.4-4.4l0.6,0.4c-3,3.4-6.4,6.5-10,9.1v22
		c0,0.9-0.2,1.8-0.5,2.6c-1,2.1-7,2.4-9.1,2.4c-0.3,0-1,0-1.2-0.2c-1-0.8,1.3-3.7-5.6-5.1l0.1-0.8c1.7,0.1,3.5,0.2,5.1,0.2
		c1.5,0,2.6,0.3,2.6-1.6v-14.7c-2.1,1.1-4.2,2-6.4,2.7l-1.3-7.6c2.5-0.6,5.3-1.1,7.7-2.2v-11.3h-7v-3.7
		C196.7,183.1,203.6,183.1,203.6,183.1z M247.6,177.2v4h-10v41c0,0.7-0.1,1.5-0.3,2.2c-1.1,2.3-4.9,2.6-7,2.8
		c-1.6,0.2-3.2,0.3-4.8,0.3c-3.2,0-1-2.2-3.3-4.4c-0.8-0.8-3.7-1.3-4.8-1.5l0.1-0.8c2.4,0.1,4.9,0.3,7.3,0.3c0.6,0,3.1,0,3.6-0.3
		c0.4-0.3,0.5-0.9,0.5-1.3v-38.3h-11.7v-4C217.1,177.2,247.6,177.2,247.6,177.2z"/>
	<path fill="#414042" d="M271,174.7c-2.5,6.9-3.3,8.5-8,13.9h5.3v38.3H260v-35.6c-1.8,1.5-3.7,2.8-5.7,4.1l-0.6-0.4
		c3.7-6.4,6.2-12.8,7-20.2L271,174.7z M281.4,196.1c-2.1,11.4-2.9,17.5-11.8,25.7l-0.6-0.3c1.1-3,2.1-6.3,2.7-9.5
		c0.3-1.4,0.4-3,0.5-4.4c0.3-3.9,0.4-7.8,0.4-11.7L281.4,196.1z M294.9,180.6l2.4-2.5l10.1,2c-0.9,0.8-1.8,1.7-2.7,2.5l-2,3.3
		c-2.1,3.5-5.7,5.9-9.2,7.9l-0.6-0.3c0.9-3,1.4-5.9,1.9-9.1h-12.2c-4.3,4.6-7.4,7.1-12.7,10.3l-0.6-0.4c1-1.3,1.7-2.7,2.6-4
		c1.7-2.8,4.6-10.5,5-13.7l0.3-1.7h10.3c-0.6,1.9-1.7,3.7-2.4,5.7H294.9z M291.8,191.7v30.4c0,0.8-0.1,1.7-0.4,2.4
		c-1.3,2.6-6.9,2.8-9.4,2.8c-0.4,0-1.3,0-1.7-0.2c-0.3-0.3-0.4-1-0.4-1.3c-0.4-3.2-4.6-3.7-7.1-4.1l0.3-0.8c2.1,0.1,4.2,0.3,6.3,0.3
		c1.2,0,4,0.2,4-1.6v-27.9L291.8,191.7L291.8,191.7z M294.1,195.3c2.2,1.8,4.5,3.5,6.4,5.7c1,1.2,2,2.4,2.9,3.7c1.7,2.6,3,7,3,10.1
		c0,2.3-0.6,4.4-2.7,5.5c-0.8,0.4-2.1,1-2.9,1c-1,0-2.4-0.3-3-1.2c-0.6-0.9-0.7-2-0.8-3c-0.1-2.4-0.3-4.9-0.3-7.3
		c-0.1-2.8-1.6-10.6-2.7-13.1l-0.5-1.2L294.1,195.3z"/>
	<path fill="#414042" d="M332.4,175.1c-2.1,4.2-4.9,7.4-8.7,10l4.8,0.1l2-2.2l9.1,1.5l-2.6,2.3v39.4h-8.3v-3.6h-6.2v3.6h-8v-42.2
		h6.4c0.8-3,1.3-5.7,1.7-8.7L332.4,175.1z M328.8,201.3v-12.4h-6.2v12.4H328.8z M328.8,204.9h-6.2v13.9h6.2V204.9z M348.3,184.6h4.6
		l2.2-2.4l9.1,1.9l-2.4,2.2c0,9.1-0.1,18.2-0.2,27.3c0,2.4,0,4.9-0.1,7.4c-0.1,1-0.2,2.2-0.6,3.1c-1.5,2.8-7.8,3.3-10.7,3.3
		c-2.8,0-0.8-2.3-3.2-4.1c-1.6-1.1-4.4-1.4-6.2-1.7v-0.8c1.9,0,3.7,0.1,5.6,0.1c1.3,0,5.1,0.3,6.1-0.7c0.4-0.4,0.3-1.1,0.3-1.7
		c0-0.9,0.1-1.8,0.1-2.7c0.2-3.9,0.1-7.8,0.1-11.7c0-5.2,0.1-10.4,0.1-15.6h-7.9c-2.1,2.2-4.5,4.2-7,6l-0.6-0.3
		c3.3-5.8,4.6-12.4,5-19.1l9.1-0.1C351,178.5,349.9,181.5,348.3,184.6z M339,195.5c2.6,1.5,8.8,3.9,10.5,6.4c0.7,1,1.7,2.7,1.7,4
		c0,2.2-2.2,4.2-4.2,4.2c-3.4,0-3.9-2.4-4.4-5c-0.3-1.9-0.9-3.7-1.7-5.5c-0.7-1.4-1.8-2.4-2.5-3.7L339,195.5z"/>
	<path fill="#414042" d="M377,225.5l-5.5-7.8c5.6-5.6,7.8-11.2,12-17.3l0.7,0.3C383.6,211.3,382.9,216.3,377,225.5z M379.7,198.9
		c-3.4-0.3-3.5-2.9-4.7-5.7c-0.7-1.7-2-3.3-3.3-4.6l0.5-0.5c2.6,0.7,5.1,0.8,7.7,1.9c1.9,0.8,4.2,1.7,4.3,4.6
		C384.3,196.8,382,199.1,379.7,198.9z M383.4,185.7c-3.3,0-3.7-1.8-5.1-4.5c-1.1-2.1-2.8-3.8-4.7-5.3l0.3-0.4c3,0.5,5.9,0.4,8.9,1.5
		c1.8,0.6,3.7,2.2,4.3,4C387.9,184.1,386,185.7,383.4,185.7z M382.4,225.7v-4h4.5v-22.3h7.4v2.2h18.4l2.2-2.4l7.6,1.9l-2.4,2.4v18.3
		h3v4L382.4,225.7L382.4,225.7z M418.9,178.7v18.6h-8.6v-1.9h-11.8v1.9h-8.2V175h8.2v2h11.7l2.5-2.4l8.5,2L418.9,178.7z
		 M397.1,205.4h-2.9v16.4h2.9V205.4z M398.5,180.6v7.7c1.3-2.4,2.2-4.9,2.4-7.7H398.5z M410.4,190.8c-0.8,0.5-1.7,0.6-2.8,0.3
		c-1.1-1-2.1-1.9-2.4-3.5l-0.8-1.3c-1.4,2.8-3,3.7-6.1,4.7v0.6h11.9L410.4,190.8L410.4,190.8z M405.1,205.4h-2.7v16.4h2.7V205.4z
		 M410.4,180.6H403l5.3,1.9c-0.7,0.9-1.1,1.6-2.1,2.4c1.3,0.3,1.4-0.1,2.6,0.3c0.5,0.2,1.1,0.4,1.7,0.9V180.6z M412.9,205.4h-2.6
		v16.4h2.6V205.4z"/>
	<path fill="#414042" d="M461.5,206.1h21v3.7h-21v17.5h-9.3v-17.5h-21.6v-3.7h21.6v-2.4h9.3V206.1z M452.7,187.9
		c-3.1-1.7-1.9-4.1-5.5-5.3l-1.7-0.6l0.3-0.6c4,0.2,8,0.5,11.8,1.5c1.2-0.8,2.3-1.7,3.4-2.6h-27.4v-3.6h30.8l4-3l10.2,3.2
		c-1.5,0.6-3,1.1-4.6,1.7c-0.3,0.1-3,1.9-3.6,2.2c-2.6,1.4-7,2.8-9.8,3.8c0.3,0.4,0.6,1,0.6,1.5c0,0.7-0.6,1.2-1,1.7h10.7l2.7-2.8
		l10.1,1.9c-1,0.8-2,1.5-3,2.3c0,0-1.7,2.1-1.8,2.4c-2.2,2.6-6.2,5.5-9.2,7l-0.7-0.3c0.7-2.4,1.3-4.6,1.8-7.1h-9.1v7.5
		c0,3.6-2.8,3.7-5.7,4c-1.4,0.1-2.9,0.3-4.3,0.3c-4.7,0-2-2.2-4.2-3.6c-0.7-0.4-2.3-0.8-3-1v-0.7c1.8,0.1,3.7,0.3,5.5,0.3
		c1.5,0,2.7,0.1,2.7-1.7v-4.9h-21.8v-3.7L452.7,187.9z M437.7,196.4c1.1-1.2,2.1-2.5,3-3.7h10.1c-1,1-2.1,1.9-3.1,2.8
		c-3.7,3-11,5.6-15.6,6.7l-0.4-0.3C433.8,200.2,436,198.3,437.7,196.4z M451.1,211.9c-4.9,8.4-10.1,10.8-18.8,14.3l-0.4-0.3
		c3.9-3.7,7.2-9.1,9.3-13.9L451.1,211.9L451.1,211.9z M465.6,211.1c5,4.4,11.2,7.1,17.7,8.4v0.5c-1.8,0.5-2.7,1-3.3,2.8
		c-0.1,0.3-0.1,0.5-0.1,0.8c0,1,0.6,1.9,1,2.8l-0.6,0.5c-4.6-1.9-10.4-4.6-13.3-8.9c-1.4-2.1-2.2-4.4-3.1-6.7L465.6,211.1z"/>
	<path fill="#414042" d="M100.1,256.7c-0.6,2.1-1.6,4-2.6,5.8c-2.8,4.8-7.4,7.4-12.1,10h27.9l2.1-2.4l8.9,2.4l-1.7,1.7
		c0,4,0.3,8.2,0.3,12.3c0,2.1-0.1,4.1-0.2,6.2c-0.1,3.2-0.1,5.8-1.7,8.7c-1,1.5-3.1,2.2-4.8,2.5c-1.6,0.3-3.2,0.6-4.9,0.6
		c-0.4,0-1.8-0.1-2.1-0.3c-0.2-0.2-0.3-1.9-1-2.8c-1.5-1.8-4.1-2.1-6.3-2.4v-1c2.3,0.2,4.6,0.3,6.9,0.3c0.9,0,3.6,0,4.3-0.5
		c0.6-0.3,0.7-1,0.8-1.6c0.3-1.5,0.2-3.1,0.3-4.6c0-1.3,0.2-2.8,0.2-4.2c0-3.7-0.2-7.4-0.3-11.1H99.3c-0.3,4.8-0.7,9.4-1.9,13.9
		c-0.5,1.9-1.4,3.5-2.6,5c-1.5,1.7-3.1,3.1-4.8,4.6c-2.3,1.9-4.8,3.5-7.3,5l-0.8-0.4c1.1-1.2,2.2-2.3,3.1-3.7
		c1.5-1.7,2.5-4.1,3.3-6.3c0.8-2.3,1.5-4.7,1.7-7.1c0.3-3.7,0.3-7.4,0.3-11h-6.5v-3c-1.7,0.8-3.6,1.5-5.5,2.2l-0.3-0.5
		c8.9-7.6,11.6-11.4,13.4-23.1h10.1C101,253.4,100.7,255.1,100.1,256.7z M111.7,251.7c1.5,2.4,3.3,4.8,5,7.1
		c3.3,4.4,10.1,6.4,15.2,7.3v0.4c-1.6,0.8-3.9,1.9-3.9,4c0,1,0.4,2,0.8,2.9l-0.5,0.4c-4.9-2-9.9-4.6-13.2-8.8
		c-1.2-1.5-2.5-3-3.5-4.8c-1.5-2.6-2.2-5.6-3-8.5L111.7,251.7L111.7,251.7z"/>
	<path fill="#414042" d="M142.1,266.5v-5.8h-3.9v-3.8h3.9v-4.4h7.7v4.4h4.5v-4.4h8v4.4h3.7v3.8h-3.7v5.8h4.4v3.8h-29.6v-3.8H142.1z
		 M148.2,272.1v2.1h7.3l2.6-2.2l8,1.5l-2.2,2.5v23.2c0,0.6-0.1,1.2-0.4,1.7c-0.3,0.3-0.4,0.6-0.7,1c-1.5,2-5.5,2.4-7.7,2.4
		c-1.5,0-1.2-1.2-1.7-2.3c-0.2-0.4-0.6-0.8-1-1.1c-0.8-0.6-2.2-1.2-3.1-1.5l0.3-0.6c1.5,0.1,3.1,0.3,4.6,0.3c0.6,0,1.7,0,1.7-1v-5.3
		h-7.6V304h-7.7v-32L148.2,272.1L148.2,272.1z M155.8,281.6v-3.7h-7.6v3.7H155.8z M155.8,285.5h-7.6v3.6h7.6V285.5z M154.3,266.5
		v-5.8h-4.5v5.8H154.3z M166,277.7l-0.7-0.3c1-2.3,1.8-4.8,2.4-7.2c0.9-4.1,1.8-10,1.8-14.2c0-1.2-0.1-2.4-0.2-3.6h9.2
		c-0.3,1.1-0.4,2.3-0.6,3.5l-0.6,2.7h11.3v4.2h-12.4c-1.1,3.9-2.5,6.4-4.7,9.7c0.9,3.5,2.2,6.1,3.7,9.4c1.1-4,2.6-9.7,2.6-13.8
		c0-0.7-0.1-1.4-0.1-2.2h8.3c-0.8,5.1-1.7,10.4-3.2,15.3c-0.8,2.4-2,4.8-3.2,7.1c2.8,3.4,6.1,6.5,10.1,8.5l-0.1,0.7l-0.5-0.1
		c-2.5-0.1-3.8,1.2-3.8,3.8c0,0.7,0.3,1.4,0.4,2.1l-0.6,0.5c-3.7-2.2-7.4-6.1-9.8-9.7c-1.5,1.6-3,3.3-4.6,4.6
		c-2.6,2.1-5.4,3.8-8.2,5.6l-0.6-0.4c1.2-1.2,2.4-2.5,3.6-3.7c2.8-3.1,5-7.4,6.9-11.1c-0.7-1.9-1.5-3.9-1.8-5.9
		c-0.2-1-0.3-2.1-0.4-3.1c-0.3-1.8-0.4-3.7-0.6-5.5C168.3,275.7,167.1,276.7,166,277.7z"/>
	<path fill="#414042" d="M233.7,253.8l2-3l8.3,2.1l-2.5,2.3c0,9.8-0.3,19.8,0.3,29.7c0.1,0.8,0.1,5.5,0.9,5.5c0.3,0,0.8-2.2,0.9-2.6
		l0.9-3.5l0.3-1.5l1,0.1c-0.1,1.1-0.3,2.3-0.3,3.5c0,1.5,0.1,5.7,0.9,6.7c0.9,1.1,1.9,0.2,1.9,1.4c0,2.4-1.5,9.1-4.7,9.1
		c-2.7,0-5.6-4.8-6.7-6.9c-3.8-6.9-3-32.5-3-39.4h-27v19.1c0,13.3-1.8,19.5-10.8,29l-0.7-0.3c3.8-7.8,3.9-17,3.9-25.6v-27.8h7.7v2.2
		L233.7,253.8L233.7,253.8z M214.4,294.7c1.1,0,2.2-0.1,3.3-0.1v-8.1h-2.6v1.9h-6v-20.7h6v1.9h2.6V264c-3.5,0.1-6.7,0.2-10.2,0
		l-0.1-0.7c6.7-1,13.6-2.4,19.8-5.3l5.8,4.6c-3.1,0.8-6.6,1-9.9,1.2v5.7h2.5l1.6-2.2l6.2,2l-1.7,1.7v17.3h-6v-1.9h-2.6v8l4.4-0.2
		c-0.4-1.9-0.6-2.7-1.3-4.5l0.6-0.4c4.4,1,6.9,4,7.4,6.3c0.8,3.6-0.3,4.4-2.7,4.8c-1.6,0.3-3.1-0.8-3.6-1.9
		c-0.3-0.6-0.3-1.5-0.3-2.1c-6.5,1.9-13,3.4-19.7,4.8l-2.4-6.7C208.5,294.5,211.4,294.7,214.4,294.7z M217.7,283v-10h-2.6v10H217.7z
		 M223.2,283h2.6v-10h-2.6V283z"/>
	<path fill="#414042" d="M261.7,251.7v2.2h3.1l2.2-2.4l7.5,1.2l-2.8,2.4c-0.5,4.2-0.8,9.3-4.8,11.9l-2.2,1.4
		c1.9,1.2,3.5,2.2,4.4,4.2c0.5,1,0.7,2.1,0.8,3.2c0.1,1.5,0.1,3,0.1,4.4c0.1,3,0.3,6.2,0.3,9.2c0,4-1.5,5.7-5.6,5.7
		c-0.4,0-1.1,0.1-1.5-0.2c-0.8-0.5,0.6-2.4-1.7-3.3v12.5h-6.7v-52.5L261.7,251.7L261.7,251.7z M265.2,257.5h-3.5v32.7
		c0.3,0.1,0.6,0.1,0.9,0.1c1.4,0,2.2-0.3,2.2-1.9c0-0.9-0.1-1.7-0.1-2.6c0-3.1,0.1-6.4,0.1-9.5c0-1.5,0.1-4.6-1-5.8l-1.7-2
		C264.6,264.2,264.9,262.4,265.2,257.5z M267.1,304.3c3-3.7,6.4-8.2,7.2-12.9l0.4-2.6h-2.9v-19h5.6v1.7h3.3l2.3-2.1l5.8,1.9
		l-2.5,1.8v15.7h-3c-0.4,1.2-1,2.3-1.7,3.4c1.5,0.8,4.8,2.7,5.5,4.2c0.3,0.4,0.4,1,0.7,1.5c1.7-2.9,2.4-5.7,3-9.1h-1.8v-19h5.5v1.7
		h3l2.2-2.1l6,2.1l-2.2,1.7v15.7H299c-0.4,1.3-1,2.7-1.6,4c1.7,1,4.3,1,6.1,2.8c1.2,1.2,2.3,3.2,2.4,4.8c0.1,2.6-2.1,3.6-3.7,3.6
		c-3.7,0-3.5-4-4.1-6.7c-0.3-1.3-0.6-1.6-1.4-2.7c-4.9,5.8-7.3,7.4-14.3,10.6l-0.4-0.3c1.3-1.2,2.5-2.4,3.7-3.7
		c-0.8,0.3-1.7,0.4-2.4,0c-1.7-1-1.4-2.7-1.4-4.4c0-1-0.4-1.7-0.8-2.6c-1,1.4-2.1,2.8-3.2,4c-2.2,2.6-7,5.1-10.1,6.6L267.1,304.3z
		 M291.3,253.9c1,1.2,2.2,2.3,3.5,3.3c3.5,3,9.1,4.6,13.5,5.6l0.1,0.6c-2.2,0.4-3.7,1.4-3.7,3.9c0,1,0.3,2,0.7,3l-0.4,0.3
		c-3.3-1.5-6.5-3.3-9.4-5.5v2.1h-17.4v-2.3c-3.1,1.7-6.4,3.2-9.7,4.6l-0.4-0.4c6.9-5.6,10.3-8.7,13.7-17.1l11-0.1L291.3,253.9z
		 M281.1,282.7v-7.6h-3.6v7.6H281.1z M281.1,288.2v-1.9h-3.6v1.9H281.1z M294.2,263.5c-2.4-2.8-3.1-4.1-4.5-7.4
		c-2.8,3-5.8,5.3-9.2,7.4H294.2z M297.9,282.7v-7.6h-3.3v7.6H297.9z M297.9,288.2v-1.9h-3.3v1.9H297.9z"/>
	<path fill="#414042" d="M319,251.7h7.9v8.9h4v3.7h-4v8c1.4-0.9,2.8-1.7,4.1-2.6l0.6,0.4v-1v-1.2c-1.2,0.5-2.4,1.1-3.7,1.5l-0.3-0.4
		c3.6-3.1,9.4-8.5,11.2-12.9c0.6-1.5,1.1-2.9,1.5-4.4l11.6,0.1c-0.4,0.8-1,1.5-1.3,2.2c4.4,5.6,9.2,7.3,15.9,8.8l-0.1,0.9
		c-1.5,0.4-3.1,1.2-3.1,3c0,1.2,0.4,2.5,0.7,3.7l-0.4,0.3c-0.8-0.3-1.5-0.7-2.3-1.1v14.5h-7.8v-1.4h-14.6c-0.1,0.8-0.2,1.5-0.3,2.2
		h6.5v1.9h9.1l2.2-2.4l8.1,1.6l-2.5,2.5v16h-7.5v-3.2h-9.1v3.3h-7.6v-16.1c-2.6,6.1-5.1,9-10.2,13.2l-0.3-0.2
		c-0.2,0.5-0.4,1-0.7,1.6c-0.9,1.7-5.8,2.3-7.6,2.3c-0.3,0-1.2,0-1.5-0.2c-0.6-0.6,0.2-2.3-1.2-3.4c-0.5-0.4-3.4-1.1-4-1.3l0.1-1
		c1.5,0.1,3,0.2,4.4,0.2c0.9,0,2.6,0.2,2.6-1.1v-15.7c-1.3,1-2.7,1.7-4.1,2.4l-3.1-7.9c2.4-0.5,4.9-1.1,7.2-2v-11h-5.6v-3.7h5.6
		L319,251.7L319,251.7z M329.3,295.2c2.6-8.2,2.2-15.6,2.4-24.2c-1.7,1.8-3.2,3.7-4.9,5.4v23.8C327.8,298.6,328.8,297,329.3,295.2z
		 M339,265v1.3h6.9c-1.7-1.7,0.3-3.1-2.2-5.7c-2.1,1.7-4.4,3.1-6.6,4.4H339z M353.3,278.8v-2.7H339c0,0.9,0,1.8-0.1,2.7H353.3z
		 M353.3,272.4v-2.4H339v2.4L353.3,272.4L353.3,272.4z M356.3,266.3c-4.1-3.4-5.3-5.9-7.6-10.5c-1.3,1.4-2.4,2.8-4,4
		c2.1,0.5,6.9,1.5,6.9,4.2c0,1-0.8,1.8-1.7,2.4H356.3z M354.1,297.4v-7h-9.2v7H354.1z"/>
	<path fill="#414042" d="M392.4,273v-10.5h-7.1c-3,4-7,6.7-11.1,9.2l-0.6-0.3c3.7-5.9,5.3-11.6,5.8-18.5h9.1
		c-0.3,1.9-0.7,3.8-1.1,5.6h5V252h9.7v6.7h18.3v3.9h-18.3V273h20.7l-0.1,3.9h-15v16.9c0,0.6,0.1,2.6,0.4,3.1
		c0.4,0.7,1.3,0.8,2.1,0.8c1.5,0,3.1-0.3,4.2-1.4c1-1,3.1-6.1,3.8-7.7l1.1,0.2c-0.4,1.5-0.8,3-0.8,4.6c0,1.3,0.3,2.4,1.5,3.1
		c0.4,0.3,2.3,0.8,2.3,1.3c0,0.3-0.1,0.5-0.2,0.7c-1,2.9-2.8,4.5-5.7,5.1c-2.3,0.4-4.6,0.6-6.9,0.6c-2.4,0-8.2-0.1-9.7-2.2
		c-1-1.2-1.2-3-1.2-4.4v-20.6h-3.7c-0.1,3.3-0.1,6.8-0.6,10.1c-0.3,2.6-1.6,4.9-3,7c-2,2.9-4.9,4.8-8,6.2c-3.7,1.6-7.4,2.9-11.2,3.9
		l-0.3-0.5c6.7-3.5,12.8-9.2,13.8-17c0.4-3.2,0.4-6.5,0.4-9.7h-14.3V273C371.7,273,392.4,273,392.4,273z"/>
	<path fill="#414042" d="M440.2,252.8v1.5h6l2.1-2.8l8.1,1.9l-2.3,2.5v16.6h-7.7v-1.3h-6v33.3h-7.7v-51.7L440.2,252.8L440.2,252.8z
		 M446.3,260.8v-3.1h-6.1v3.1H446.3z M446.3,267.8v-3.5h-6.1v3.5H446.3z M441.8,287.6v-3.5h5.8v-6h-4.1v-3.3h25.9v3.3h-3.3v6h4.2
		v3.5h-4.2v11h-6.4v-11h-6c-1,4.8-1.7,7.4-6.1,10.1c-2.1,1.3-4.4,2.4-6.7,3.1l-0.4-0.4c1-0.9,2.1-1.7,3-2.7c0.8-0.8,1.3-1.7,1.7-2.7
		c1.4-2.6,1.7-4.5,2-7.4L441.8,287.6L441.8,287.6z M459.7,284.1v-6h-5.6l-0.1,6H459.7z M464.9,252.7v1.5h6.7l2.2-2.8l8.2,2.1
		l-2.5,2.5v43.5c0,0.9-0.1,1.8-0.6,2.5c-1.2,1.7-5.7,2.4-7.7,2.4c-2.2,0-0.8-1.2-2.4-2.8c-1.2-1.1-4.2-1.7-5.7-2l0.1-0.9
		c2,0.1,4,0.2,6,0.2c1.8,0,2.7,0.3,2.7-1.8v-26.1H465v1.4h-7.7v-19.8L464.9,252.7L464.9,252.7z M471.9,260.8v-3.1h-6.9v3.1H471.9z
		 M471.9,267.8v-3.6h-6.9v3.6H471.9z"/>
	<path fill="#414042" d="M498.7,288.6c-2.8-2.1-6.2-3.5-9.5-4.8c1.9-6.3,3.5-12.8,4.2-19.3H489v-3.9h4.8l0.6-8.7h8.4l-1,8.7h1.8
		l2.5-2.8l8.6,2.5l-2.9,2.2c-0.3,2.4-0.4,4.9-0.5,7.4c-0.4,7-1.7,12.1-4.6,18.4c0.8,0.6,1.7,1.2,2.5,1.7c1.7,1.3,4.5,4.6,4.5,6.9
		c0,2.2-1.6,4-3.8,4c-0.8,0-1.5-0.2-2.2-0.6c-2.3-1.2-1.9-3.3-3.1-5l-1.6-2.2c-4.7,4.8-8.4,7.4-14.4,10.5l-0.5-0.4
		C493.2,298.2,495.6,295.1,498.7,288.6z M500.2,285.2c0.3-0.8,0.6-1.5,0.9-2.2c0.5-1.4,0.7-2.9,1-4.4c0.9-4.7,1.3-9.4,1.6-14.2h-2.4
		l-0.8,4.8c-0.8,4.7-2.3,9.8-3.9,14.4L500.2,285.2z M514,268.1c0.8-0.3,2.3-3,2.6-3.7c2.1-3.9,3.4-8,4-12.4h10.8
		c-3.9,7.6-6.2,11.2-13,16.4c4.6-0.1,9.2-0.3,13.7-0.6c-0.9-3.3-1.8-4.9-3.7-7.7l0.6-0.3c2.4,1.3,5,2.2,7.3,3.8
		c2.4,1.7,4.6,4.1,4.6,7.2c0,2.5-1.9,4.5-4.4,4.5c-3.5,0-3.5-3-3.9-5.6c-3.3,1.4-6.7,2.8-10.1,3.6c-2.8,0.6-5.6,1.1-8.5,1.6
		l-1.7-6.5C512.9,268.4,513.5,268.3,514,268.1z M529.4,279.1l2.6-2.7l9.1,2.2l-2.6,2.2V304h-8.6v-4.8H523v4.6h-8.5l-0.1-26.5h8.5
		v1.8L529.4,279.1z M529.8,295.4V283H523v12.4H529.8z"/>
</g>
</svg>
