<?xml version="1.0" encoding="utf-8"?>
<!-- Generator: Adobe Illustrator 18.0.0, SVG Export Plug-In . SVG Version: 6.00 Build 0)  -->
<!DOCTYPE svg PUBLIC "-//W3C//DTD SVG 1.1//EN" "http://www.w3.org/Graphics/SVG/1.1/DTD/svg11.dtd">
<svg version="1.1" id="Layer_1" xmlns="http://www.w3.org/2000/svg" xmlns:xlink="http://www.w3.org/1999/xlink" x="0px" y="0px"
	 viewBox="0 0 1257.7 787" enable-background="new 0 0 1257.7 787" xml:space="preserve">
<g>
	<polygon fill="#F6B992" points="0,437.5 1257.7,443.9 1192.6,714.4 657.2,787 213.3,675.4 	"/>
	<g>
		<g>
			<path fill="#F8CFA5" d="M185.1,520c29.6-2.2,59.3-2.5,89-0.9c3.3,0.2,9.2-4.7,3.4-5c-30.4-1.6-60.8-1.2-91.2,1
				C182,515.4,179.1,520.4,185.1,520L185.1,520z"/>
		</g>
	</g>
	<g>
		<g>
			<path fill="#F8CFA5" d="M183.9,546c18.6-0.3,37.1-0.1,55.7,0.6c2.1,0.1,4.4-0.5,6.1-1.6c1.4-0.9,1.2-2-0.5-2
				c-19.2-0.7-38.4-0.9-57.6-0.6C185.2,542.4,178.1,546.1,183.9,546L183.9,546z"/>
		</g>
	</g>
	<g>
		<g>
			<path fill="#F8CFA5" d="M208.6,576.9c61.9,0.7,123.8,1.5,185.6,2.2c1.9,0,4.6-0.7,5.7-2.4c1.2-1.7-1-2.5-2.3-2.5
				c-61.9-0.7-123.8-1.5-185.6-2.2c-1.9,0-4.6,0.7-5.7,2.4C205.1,576.1,207.2,576.9,208.6,576.9L208.6,576.9z"/>
		</g>
	</g>
	<g>
		<path fill="#8F9194" d="M510.2,399.4l-11.7,82.2c0,15,9.7,28.3,24,32.8l71.2,10.9c14.4,4.6,30.1-0.7,38.8-13.1l51.8-74.1
			L510.2,399.4z"/>
		
			<linearGradient id="SVGID_1_" gradientUnits="userSpaceOnUse" x1="520.7132" y1="461.2141" x2="805.8972" y2="461.2141" gradientTransform="matrix(1.0445 -7.181775e-002 6.859801e-002 0.9976 -63.7185 35.6552)">
			<stop  offset="0" style="stop-color:#B6B8BA"/>
			<stop  offset="1" style="stop-color:#A9ABAE"/>
		</linearGradient>
		<path fill="url(#SVGID_1_)" d="M804.7,365.8l-296.1,45.7c0,0,3.5,28.7,61.2,51c12.1,4.7,39.2,9.4,60.7,7.4l9.2,26.1
			c6.2,15.1,22,24.5,38.9,23.3l91.8-7.6c17.1-1.2,31.5-12.9,35.5-28.8l-3.1-96.1C804.8,380.3,805.4,373.3,804.7,365.8z"/>
		<polygon fill="#E07E46" points="449.9,277.5 519.7,258.5 517.4,324.7 522.8,351.2 475.8,365.4 		"/>
		<path fill="#E78E49" d="M704.5,200c9.6-2.5,24.3,2.8,30.1,9.2c30.7,34,59.1,89.1,66.2,133.2c2.6,16.3,11.1,24-3.1,30.8
			c-8,3.8-21.9,6.3-30.5,8.3c-60.1,14.3-121.1,28.3-182.6,34.6c-4.2,0.4-75.5,0.7-76.1-4.5c-5.2-42.7-8-112,11.1-153
			c9.6-20.6,37.1-12.2,60.4-15.3C580.2,243.2,704.4,200,704.5,200z"/>
		<path fill="#E78E49" d="M684.1,307.9c0,0,0.8,24.6-57.4,86.8l-64.3-68l40.5-51.3L684.1,307.9z"/>
		<path fill="#E57B41" d="M568.7,309.5l33.1-38.3c1.1-1.3,2.5-1.1,1.5,0.2l-30.8,40L568.7,309.5z"/>
		<g>
			<circle fill="#8A6252" cx="326.1" cy="381.5" r="180.6"/>
			<path fill="#7C5849" d="M252.5,284.9c-0.7-2.7-1.5-22.1-1.8-31.4c-0.1-3.2,0.6-6.4,2.1-9.2l8.3-15.3v0c1.2-2.6,5-1.9,5.2,1
				l0.5,8.4c0,0.3,0,0.6-0.1,0.9l-2.6,9.3c-0.8,2.8-0.9,5.6-0.3,8.5l5.5,27L252.5,284.9z"/>
			<path fill="#7C5849" d="M204.1,257.4c-0.4-1.7-0.9-14-1.1-19.9c-0.1-2,0.4-4,1.4-5.8l5.2-9.7l0,0c0.7-1.6,3.2-1.2,3.3,0.6
				l0.3,5.3c0,0.2,0,0.4-0.1,0.6l-1.7,5.9c-0.5,1.7-0.6,3.6-0.2,5.3l3.5,17.1L204.1,257.4z"/>
			<path fill="#7C5849" d="M345.1,231.2c0.8-1.2,7-9.6,9.9-13.6c1-1.4,2.2-2.6,3.4-3.5l6.4-5.1l0,0c1-0.9,1.5,0,0.6,1.2l-2.7,3.6
				c-0.1,0.1-0.2,0.2-0.3,0.4l-3.5,3.5c-1,1-2,2.2-2.8,3.5l-7.8,12.3L345.1,231.2z"/>
			<path fill="#7C5849" d="M381.5,257c1.9-2,17.8-13.3,25.3-18.7c2.6-1.8,5.7-3,8.9-3.2l17.3-1.5l0,0c2.8-0.4,4.3,3.2,2,4.9l-6.8,5
				c-0.2,0.2-0.5,0.3-0.8,0.4l-9.2,2.9c-2.7,0.9-5.2,2.3-7.2,4.4l-19.6,19.4L381.5,257z"/>
			<path fill="#7C5849" d="M294,323.6c1.5-1.6,14-10.5,20-14.7c2.1-1.5,4.5-2.3,7-2.5l13.7-1.1h0c2.2-0.4,3.4,2.5,1.6,3.8l-5.4,3.9
				c-0.2,0.1-0.4,0.2-0.6,0.3l-7.3,2.3c-2.2,0.7-4.1,1.9-5.7,3.4l-15.5,15.3L294,323.6z"/>
			<path fill="#7C5849" d="M199.1,317.7c-0.8,3.3-2.2,6.4-4.5,8.9c-2.4,2.6,2.1,3.1,3.9,2.9c3.4-0.3,8.3-1.3,10.8-3.9
				c2.8-3,4.9-6.6,5.8-10.6c0.7-2.9-5.1-2.1-6.5-1.8c-2.1,0.4-4.2,0.9-6.1,1.9C201.4,315.7,199.4,316.5,199.1,317.7L199.1,317.7z"/>
			<path fill="#7C5849" d="M202.8,352.5c3,6.3,5.4,12.7,7.2,19.5c1.2,4.5,17.3,0.3,16.1-4.3c-1.8-6.7-4.1-13.2-7.2-19.5
				C216.6,343.5,201,348.9,202.8,352.5L202.8,352.5z"/>
			<path fill="#7C5849" d="M233.1,345.7c2.3,1.2,4.7,2.5,7,3.7c1.6,0.9,4.5,0.6,6.2,0.2c1.8-0.5,4.1-1.7,5.2-3.2
				c1-1.3,1.8-3.1,1.3-4.8c-0.6-1.8-1.9-2.7-3.5-3.5c-2.3-1.2-4.7-2.5-7-3.7c-1.6-0.9-4.5-0.6-6.2-0.2c-1.8,0.5-4.1,1.7-5.2,3.2
				c-1,1.3-1.8,3.1-1.3,4.8C230.2,344,231.4,344.9,233.1,345.7L233.1,345.7z"/>
			<path fill="#7C5849" d="M206.2,447c8.8,14.6,19.5,27.8,32,39.4c2.9,2.7,17.3-3.4,15.2-5.3c-12.1-11.3-22.5-24.2-31.1-38.4
				C220.1,439,205.1,445.2,206.2,447L206.2,447z"/>
			<path fill="#7C5849" d="M324.6,376.8c3.8,2.8,7.6,5.7,11.4,8.5c2.7,2,7.7,0.7,10.5-0.5c1.1-0.5,7.2-3.4,4.6-5.3
				c-3.8-2.8-7.6-5.7-11.4-8.5c-2.7-2-7.7-0.7-10.5,0.5C328.1,371.9,322,374.8,324.6,376.8L324.6,376.8z"/>
			<g>
				<g>
					<path fill="none" stroke="#BFA89F" stroke-miterlimit="10" d="M294.6,429.3"/>
				</g>
			</g>
			<g>
				<g>
					<path fill="none" stroke="#BFA89F" stroke-miterlimit="10" d="M325,421.5"/>
				</g>
			</g>
			<circle fill="#7C5849" cx="180.3" cy="353.1" r="9.1"/>
			<circle fill="#7C5849" cx="167" cy="378.5" r="9.1"/>
			<circle fill="#7C5849" cx="190.8" cy="377.2" r="5.8"/>
			<circle fill="#7C5849" cx="285.6" cy="443.2" r="9.1"/>
			<circle fill="#7C5849" cx="272.2" cy="468.6" r="9.1"/>
			<circle fill="#7C5849" cx="296.1" cy="467.3" r="5.8"/>
		</g>
		
			<linearGradient id="SVGID_2_" gradientUnits="userSpaceOnUse" x1="-8036.7051" y1="69.6823" x2="-7947.8638" y2="69.6823" gradientTransform="matrix(0.5437 0.9012 -0.8562 0.5166 4969.166 7536.3154)">
			<stop  offset="0" style="stop-color:#BEC0C2"/>
			<stop  offset="1" style="stop-color:#B1B3B6"/>
		</linearGradient>
		<path fill="url(#SVGID_2_)" d="M560,317.3l50.2,78.9l-20,9.8c-10.7,5.2-23.4,3.8-32.5-3.7l-4.1-3.4c-2.6-2.1-4.8-4.7-6.5-7.5
			l-13.9-23c-3-4.9-4.4-10.5-4.2-16.3v0c0.3-10.2,5.9-19.6,14.7-24.9L560,317.3z"/>
		<path fill="#E57B41" d="M715,284.5c0.5,1.6,0.7,3.3,1,5c0.1,0.8,0.2,1.7,0.2,2.5c0.1,0.8,0.1,1.7,0.1,2.5
			c0.1,3.4-0.1,6.8-0.5,10.1c-1,6.7-2.9,13.3-5.6,19.6c-2.7,6.3-6.3,12.2-10.3,17.7c-4.1,5.5-8.7,10.5-13.5,15.3
			c-2.6,2.2-5,4.6-7.7,6.6c-1.3,1-2.6,2.1-4,3.1c-1.4,1-2.7,2-4.1,3c-0.7,0.5-1.4,1-2.1,1.4l-2.1,1.4l-4.3,2.7
			c-2.9,1.7-5.8,3.4-8.8,5l-4.5,2.3c-1.5,0.7-3,1.6-4.5,2.2l-4.6,2c-1.5,0.7-3,1.4-4.6,1.9c-3.1,1.1-6.3,2.3-9.4,3.4l-4.7,1.5
			l-4.8,1.4l-0.1-0.4c12.3-4.9,24.3-10.5,35.7-17.1c11.4-6.6,22.2-14.4,31.9-23.4c9.5-9.1,18-19.5,23.7-31.4
			c2.9-5.9,5-12.2,6.4-18.7c0.7-3.2,1.1-6.5,1.3-9.8c0.2-3.3,0.2-6.6-0.4-9.8L715,284.5z"/>
		<path fill="#A9ABAE" d="M396.6,170.2c-0.9-4.2-3.7-12.6-11.7-20.4c-0.6-0.6,0.1-1.5,0.9-1.2c5.9,2.5,16.6,8.9,12.3,21.6
			C397.9,171,396.8,171,396.6,170.2z"/>
		<path fill="#D1504A" d="M514.6,273.5l10.3,15.7c7.6,11.6,22.9,15.2,34.9,8.3l50.5-29L514.6,273.5z"/>
		
			<linearGradient id="SVGID_3_" gradientUnits="userSpaceOnUse" x1="-6848.457" y1="995.2998" x2="-6916.6279" y2="1179.6721" gradientTransform="matrix(0.9916 -0.1294 0.1294 0.9916 7237.6948 -1747.9884)">
			<stop  offset="0" style="stop-color:#BEC0C2"/>
			<stop  offset="1" style="stop-color:#A9ABAE"/>
		</linearGradient>
		<path fill="url(#SVGID_3_)" d="M694.7,221.2c-46.5,44.3-106.8,64.3-170.6,53.2c-13.2-2.3-26.6-4.9-39-10
			c-34.2-14-36.1-41.2-36-74.2c0.1-21-6.4-36.6-9.3-57.2c-5.9-41.8,15-85.3,48.2-110.4C528.4-8,581-1.6,627.7,7.5"/>
		<path fill="#A9ABAE" d="M488.5,137.9c-1.5,7.4,3.2,14.5,10.5,16.1s14.5-3.2,16-10.6c1.5-7.4-3.2-14.5-10.5-16.1
			C497.2,125.8,490,130.6,488.5,137.9z"/>
		<path fill="#656668" d="M492.5,141.3c0.3,4.6,4.3,8,8.9,7.6c4.6-0.4,8-4.4,7.6-9c-0.3-4.6-4.3-8-8.9-7.6
			C495.6,132.7,492.1,136.7,492.5,141.3z"/>
		
			<linearGradient id="SVGID_4_" gradientUnits="userSpaceOnUse" x1="-7205.668" y1="828.9656" x2="-7205.668" y2="883.0901" gradientTransform="matrix(0.9959 9.021030e-002 -9.021030e-002 0.9959 7962.2295 26.5002)">
			<stop  offset="0" style="stop-color:#BEC0C2"/>
			<stop  offset="1" style="stop-color:#A9ABAE"/>
		</linearGradient>
		<path fill="url(#SVGID_4_)" d="M619.3,6.7l101,15.1c34.9,4.6,66.1,22.5,85.7,49.1l0,0c27.8,37.8,27.5,86.5-0.8,123l-12.8,16.5
			c-30.4,39.2-86.1,55.3-137.3,39.8l-38.5-9.2"/>
		<path fill="#9B9DA0" d="M646.5,220L646.5,220c38.5,13.4,81.8,2.8,106.5-26.3l10.4-12.2c24.9-29.2,25.3-70.5-0.2-101.1
			c-14.5-17.4-36-29-59.7-33.1L646,37.4c-9.8-1.7-18.8,4.9-18.8,13.9l-0.4,142.9C626.7,205.6,634.6,215.9,646.5,220z"/>
		<g>
			<path fill="#797A7D" d="M491.6,114.7c1.3-0.8,2.8-1.1,4.2-1.3c0.7-0.1,1.4,0,2.2,0c0.7,0.1,1.4,0.2,2.2,0.3
				c1.4,0.4,2.8,0.9,4,1.8c1.2,0.8,2.3,2,2.9,3.3l0,0c0,0,0,0.1,0,0.1c0,0-0.1,0-0.1,0c-1.1-0.8-2.2-1.5-3.5-2.1
				c-1.2-0.5-2.5-1-3.8-1.3c-2.6-0.6-5.4-0.9-8.1-0.8c-0.1,0-0.1,0-0.1-0.1C491.6,114.8,491.6,114.8,491.6,114.7L491.6,114.7z"/>
		</g>
		<path fill="#797A7D" d="M448.9,181c0,0,32.5,1.3,46.4-3.9c1.5-0.6,2.9,1.1,2.1,2.5c-11.1,19.4-29.1,22.7-48.3,21.4L448.9,181z"/>
		<g>
			<path fill="#797A7D" d="M499.5,169.5c-1.1,1.8-1.6,4-1.6,6.1c0,2.1,0.6,4.1,1.5,6c0.4,1,1,1.8,1.6,2.7c0.6,0.9,1.2,1.7,1.7,2.6
				l0.8,1.4l0.8,1.4c0.6,0.9,1.1,1.9,1.6,3l-0.2,0.2c-1.1-0.5-2-1.2-2.9-1.9c-0.9-0.7-1.7-1.6-2.5-2.4c-0.7-0.9-1.4-1.9-1.9-2.9
				c-0.4-1.1-0.9-2.2-1.2-3.3c-0.7-2.2-1.1-4.6-0.8-7c0.4-2.3,1.2-4.6,2.8-6.2L499.5,169.5z"/>
		</g>
		
			<linearGradient id="SVGID_5_" gradientUnits="userSpaceOnUse" x1="-5160.7314" y1="2390.2241" x2="-5392.8071" y2="2390.2241" gradientTransform="matrix(0.8748 0.4845 -0.4845 0.8748 6096.4985 608.2963)">
			<stop  offset="0" style="stop-color:#C4C6C8"/>
			<stop  offset="1" style="stop-color:#B1B3B6"/>
		</linearGradient>
		<path fill="url(#SVGID_5_)" d="M460.2,185.1c-4.8,3.3-10.5,4.7-15.8,6.9c-19,8-38.7,15.2-58.3,21.7c-18.9,6.2-38.5,10.9-58.5,10.3
			c-3.7-0.1-7.4-0.4-11.1-0.8c-36.9-4.5-71-27.4-89.5-59.7S205.7,90.6,219.1,56c5.8-14.9,14.3-28.8,17-44.6c0.3-1.5,0.8-2.9,1.8-4.1
			c3.5-4,8.3-0.9,10.6,2.6c1.9,2.9,3,6.5,5.7,8.6c3.5,2.8,8.5,2.4,12.9,3.2c5.4,0.9,11.5,5.8,6.9,11.5c-0.7,0.8-1.5,1.5-2.5,2
			c-13.2,7.5-20,22.4-23.4,37.1c-4.1,17.8-4.1,36.9,2.1,54.1c6.2,17.2,18.9,32.4,35.7,39.7c22.4,9.7,48.7,4.5,71.2-5.1
			s48.4-28.8,71.6-36.7c10.3-3.5,18.8-3.5,29.1,0c12.2,4.2,18.2,19.7,18.6,32.4c0.2,5.5-0.8,11.3-3.4,16.3
			C470.2,178.8,465.4,181.5,460.2,185.1z"/>
		<path fill="#A9ABAE" d="M415.1,159.7c-0.8-4.2-3.2-12.7-10.9-20.8c-0.6-0.6,0.2-1.5,0.9-1.2c5.8,2.7,16.3,9.5,11.5,22
			C416.3,160.5,415.2,160.5,415.1,159.7z"/>
		<path fill="#A9ABAE" d="M403.3,166.4c-0.8-4.2-3.2-12.7-10.9-20.8c-0.6-0.6,0.2-1.5,0.9-1.2c5.8,2.7,16.3,9.5,11.5,22
			C404.6,167.2,403.5,167.1,403.3,166.4z"/>
		<path fill="#A9ABAE" d="M391.6,173.5c-0.8-4.2-3.2-12.7-10.9-20.8c-0.6-0.6,0.2-1.5,0.9-1.2c5.8,2.7,16.3,9.5,11.5,22
			C392.8,174.3,391.7,174.2,391.6,173.5z"/>
		<path fill="#FFFFFF" d="M474.7,152.6c-6.5,2.2-25.7,7.8-40,3.1c-1.5-0.5-2.6,1.3-1.6,2.5c5.7,6.3,18.3,16.5,40.1,14.5
			c0.7-0.1,1.3-0.6,1.4-1.4l2-17.1C476.9,153.1,475.8,152.3,474.7,152.6z"/>
		<g>
			<path fill="#58595B" d="M825,188.9c-2.6,16.7-17.7,28-33.8,25.2c-16.1-2.7-27.1-18.5-24.5-35.2c2.6-16.7,17.7-28,33.8-25.2
				C816.6,156.5,827.6,172.2,825,188.9z"/>
			<g>
				<path fill="#58595B" d="M923.1,568c0,0,56.2,43.4,77.1,51.7c16.8,6.6,31.5,17.4,38,34.6c0.1,0.2,0.2,0.4,0.2,0.6
					c4.1,10.2,17.8,11.3,24.2,2l58.8-85.7c7.8-11.4,6-26.1-4-33l-96.3-71.5L923.1,568z"/>
			</g>
			<g>
				<path fill="#58595B" d="M781.2,552.9c0,0-6.6,31.3-6.2,53.2c0.3,17.6-4.6,34.6-19.8,45.7c-0.2,0.1-0.3,0.3-0.5,0.4
					c-8.9,6.9-4.1,20,8.3,23.1l114.4,28.9c15.2,3.8,29.8-2.3,32.7-13.7l30.6-121.1L781.2,552.9z"/>
			</g>
			<path fill="#E15B55" d="M921.7,223.7l69.2,26c7.5,2.8,9.9,12.3,4.6,18.3l-13.3,15.1c-4,4.6-10.9,5.2-15.7,1.4l-50.2-39.6
				L921.7,223.7z"/>
			<path fill="#F1625B" d="M908.1,217.4l79.9-8c8.7-0.9,15.5,7.2,13.3,15.6l-5.7,21.1c-1.7,6.4-8.1,10.3-14.6,9L913,240.7
				L908.1,217.4z"/>
			<path fill="#4F4F51" d="M851.5,422.6c-4.1-7.1-8.5-12.7-13.3-17l0-0.8c-0.9-0.5-1.8-1-2.7-1.5c-5-4-10.3-6.9-16-8.8
				c-3-1.2-6-2.3-9.1-3.4c-17.1-7.2-35.1-12.5-53.5-15.1c-23.2-3.3-42-3.7-62.2-17.6c-6.2-4.3-14.6-9.1-21.9-4.1
				c-11.1,7.6-17.1,21.1-24.6,31.8c-7.8,11.2-7.3,20-3.5,32.8c7.4,25.4,38.1,50.6,99.3,75.4c1.1,0.5,2.2,0.9,3.4,1.3
				c0.4,0.2,0.8,0.3,1.3,0.5c73.4,28.7,96.2-8.1,96.2-8.1C859.4,472.6,862.7,441.8,851.5,422.6z"/>
			<path fill="#58595B" d="M659.5,430.2l7.1,1.7c14.7,3.6,29.6-5.5,33.2-20.1l6.7-27.3c3.6-14.7-5.5-29.6-20.1-33.2l-7.1-1.7
				c-14.7-3.6-29.6,5.5-33.2,20.1l-6.7,27.3C635.8,411.7,644.9,426.6,659.5,430.2z"/>
			<g>
				<path fill="#FFFFFF" d="M932.6,347.1c-1.8,2.5-4.3,4.5-7.3,5.7c-20.2,8.1-65,26.2-75.7,30.5c0-0.1,0-0.2,0-0.2
					c0,0-3.8,1.7-4.1,1.8c-0.4,0.1-4.2,1.7-4.2,1.7c0,0,0.1,0,0.1,0.1c-10.9,4.9-58.5,26.1-77,34.3c-4.8,2.1-27.7,4.2-28.7,9.2
					c-3.8,18.7,3.8,70.5,26.6,115.9c36.2,72.1,152.8,58.3,211.9,23.1c13.5-8.1,26.2-17.9,36.6-29.6c40.5-45.6,25.2-109.4-5.2-159.2
					c-14.6-23.9-42.8-49.9-61.6-70.8C937.5,302.4,938.2,339.1,932.6,347.1z"/>
			</g>
			<path fill="#4F4F51" d="M734.4,442.2c0,0,53.6,46.1,148.1,13.9c91.9-31.3,110.6-93.3,110.6-93.3l-56.5-70.4l-204,119.7
				L734.4,442.2z"/>
			
				<ellipse transform="matrix(0.8363 -0.5483 0.5483 0.8363 38.0355 504.5916)" fill="#58595B" cx="863.9" cy="188.6" rx="34.4" ry="35.7"/>
			<path fill="#FFFFFF" d="M701.3,378.4c-19.6-36.6-9.9-83.6,7.8-119c24.1-48.1,59.3-75.9,128.7-75.5c53.3,0.3,90,27,112.8,69
				c14.4,26.7,26.6,61,17.7,91.4c-15.3,51.9-77.2,72.7-124.6,81.3c-35.9,6.5-90.6,8-119.6-18.1C714.9,399.5,707.2,389.5,701.3,378.4
				z"/>
			<path fill="#58595B" d="M808,279.3c-12.3-11.3-29-19.3-44.1-17.9c-27.6,2.4-36.2,35-25.2,56.7c13.2,25.9,46.2,34.2,70.7,19
				c13.5-8.4,20.2-23.8,13.1-38.8C819.3,291.6,814.2,285,808,279.3z"/>
			
				<ellipse transform="matrix(-0.9676 0.2525 -0.2525 -0.9676 1551.1277 396.5954)" fill="#FFFFFF" cx="750.1" cy="297.8" rx="9.3" ry="9.7"/>
			<path fill="#58595B" d="M697.8,347.6c14.3,1.8,37.2,3,56.6-3.6c4.2-1.4,7.4,3.7,4.6,7.2c-11.6,14.1-45.2,25.5-64.6,4.4
				C691.3,352.4,693.4,347.1,697.8,347.6z"/>
			<path fill="#FFFFFF" d="M705.7,350.5c-2.7-0.5-4.6,2.7-2.8,4.8c1.4,1.5,3.7,3,7.7,3.6c8,1.2,16.1,1.3,20.7-2.5
				c2.2-1.8,0.8-5.4-2.1-5.2C723.6,351.6,714.3,352,705.7,350.5z"/>
			<path fill="#FFFFFF" d="M707.1,268.5c0,0-21.1,15-26.4,43.1l38.8-7.3L707.1,268.5z"/>
			<path fill="#58595B" d="M691.9,305.2l17.6,2.1c7,0.8,12,7,11.2,13.7l0,0.1c-0.4,3.7-2.6,7-5.8,9l-9.4,5.7c-5,3-11.6,2.3-15.8-1.8
				l-8.2-7.9c-2.8-2.7-4.1-6.4-3.7-10.2v0C678.6,309.1,684.9,304.3,691.9,305.2z"/>
			<path fill="#4F4F51" d="M970.3,335.1c0,0-51.4,52.6-96.2,67l50,13.3l50.9-56.8L970.3,335.1z"/>
			
				<ellipse transform="matrix(1 -7.829929e-003 7.829929e-003 1 -2.309 5.8825)" fill="#58595B" cx="750.1" cy="297.8" rx="6.9" ry="7.2"/>
			<g>
				<path fill="#F1625B" d="M760.1,201.3c0,0-31,13.2-45.3,47.5l232.6-1.6c0,0-17.5-34-50.1-49.3L760.1,201.3z"/>
			</g>
			<polygon fill="#FFFFFF" points="856,215.7 858.7,208.2 863,214.9 870.9,215.3 865.8,221.3 867.9,228.9 860.6,226 854,230.4 
				854.5,222.5 848.3,217.6 			"/>
			<polygon fill="#FFFFFF" points="870.7,207.5 871.5,205.5 872.6,207.3 874.7,207.4 873.3,209 873.9,211 872,210.2 870.2,211.4 
				870.3,209.3 868.7,208 			"/>
			<polygon fill="#FFFFFF" points="879,214 879.8,212 880.9,213.8 883,213.9 881.7,215.5 882.2,217.5 880.3,216.7 878.5,217.9 
				878.7,215.8 877,214.5 			"/>
			<polygon fill="#FFFFFF" points="879.8,224.9 880.5,222.9 881.6,224.7 883.7,224.8 882.4,226.4 882.9,228.4 881,227.7 
				879.2,228.8 879.4,226.7 877.7,225.4 			"/>
			<polygon fill="#FFFFFF" points="872.3,231 873,229 874.1,230.8 876.2,230.8 874.9,232.5 875.4,234.5 873.5,233.7 871.7,234.9 
				871.9,232.8 870.2,231.5 			"/>
			<g>
				<circle fill="#976C5A" cx="550.5" cy="517.1" r="182.6"/>
				<path fill="#866050" d="M481.5,415.4c-0.5-2.7-0.3-22.4-0.1-31.8c0.1-3.2,1-6.4,2.7-9.1l9.2-15l0,0c1.3-2.6,5.2-1.6,5.2,1.3v8.5
					c0,0.3,0,0.6-0.1,0.9l-3.2,9.2c-0.9,2.7-1.2,5.7-0.8,8.5l4.1,27.6H481.5z"/>
				<path fill="#866050" d="M526,358c-0.3-1.7-0.2-14.2-0.1-20.1c0-2,0.6-4,1.7-5.8l5.8-9.5l0,0c0.8-1.6,3.3-1,3.3,0.8v5.4
					c0,0.2,0,0.4-0.1,0.6l-2,5.8c-0.6,1.7-0.8,3.6-0.5,5.4l2.6,17.4H526z"/>
				<path fill="#866050" d="M577.9,366.3c0.8-1.2,7.6-9.3,10.8-13.2c1.1-1.3,2.3-2.5,3.6-3.4l6.7-4.8l0,0c1.1-0.9,1.5,0.1,0.5,1.3
					l-2.9,3.5c-0.1,0.1-0.2,0.2-0.3,0.3l-3.7,3.3c-1.1,1-2.1,2.2-3,3.4l-8.6,12L577.9,366.3z"/>
				<path fill="#866050" d="M613.2,394.4c2-1.9,18.7-12.5,26.6-17.5c2.7-1.7,5.9-2.7,9.1-2.8l17.6-0.5l0,0c2.9-0.3,4.2,3.5,1.8,5
					l-7.1,4.7c-0.3,0.2-0.5,0.3-0.8,0.4l-9.5,2.4c-2.8,0.7-5.4,2.1-7.6,4l-20.9,18.5L613.2,394.4z"/>
				<path fill="#866050" d="M521.2,456.8c1.6-1.5,14.7-9.8,21-13.8c2.2-1.4,4.6-2.1,7.2-2.2l13.9-0.4l0,0c2.3-0.2,3.3,2.7,1.4,4
					l-5.6,3.7c-0.2,0.1-0.4,0.2-0.6,0.3l-7.5,1.9c-2.2,0.6-4.3,1.6-6,3.2L528.5,468L521.2,456.8z"/>
				<g>
					<g>
						<path fill="#866050" d="M426.7,446c-1,3.4-2.6,6.3-5.2,8.8c-2.4,2.3,2.1,2.7,3.5,2.6c3.2-0.2,7.3-1.2,9.7-3.5
							c3-2.9,5.2-6.4,6.3-10.4c0.7-2.6-4.7-1.8-5.9-1.6c-1.9,0.3-3.8,0.9-5.5,1.7C428.8,444,427,444.9,426.7,446L426.7,446z"/>
					</g>
				</g>
				<g>
					<g>
						<path fill="#866050" d="M428.6,481.2c2.7,6.5,4.8,13.2,6.2,20c0.7,3.4,15.3-0.1,14.5-3.9c-1.4-6.9-3.5-13.6-6.2-20
							C441.5,473.5,427.3,478.2,428.6,481.2L428.6,481.2z"/>
					</g>
				</g>
				<g>
					<g>
						<path fill="#866050" d="M457.9,474.7c2.3,1.4,4.6,2.8,6.9,4.2c3.3,2,7.4,1.6,10.4-0.8c2.3-1.8,3.9-6,0.7-8
							c-2.3-1.4-4.6-2.8-6.9-4.2c-3.3-2-7.4-1.6-10.4,0.8C456.2,468.5,454.7,472.7,457.9,474.7L457.9,474.7z"/>
					</g>
				</g>
				<g>
					<g>
						<path fill="#866050" d="M426.8,576.7c8.1,15.4,18.2,29.4,30.2,42c3.7,3.9,17.5-1.6,13.4-5.8c-11.5-12-21.4-25.4-29.2-40
							C438.5,567.6,424.5,572.3,426.8,576.7L426.8,576.7z"/>
					</g>
				</g>
				<g>
					<g>
						<path fill="#866050" d="M550.1,512.1c3.7,3.1,7.4,6.1,11.1,9.2c0.8,0.7,2.8,0.4,3.7,0.3c1.9-0.2,3.8-0.6,5.6-1.3
							c0.8-0.3,6.3-2.3,4.4-3.9c-3.7-3.1-7.4-6.1-11.1-9.2c-0.8-0.7-2.8-0.4-3.7-0.3c-1.9,0.2-3.8,0.6-5.6,1.3
							C553.7,508.5,548.2,510.5,550.1,512.1L550.1,512.1z"/>
					</g>
				</g>
				<g>
					<g>
						<path fill="#866050" d="M583.9,500.4c3.1,0,7.6-2.4,8-5.7c0.5-3.8-3.9-4.6-6.6-4.6c-3.1,0-7.6,2.4-8,5.7
							C576.7,499.6,581.2,500.4,583.9,500.4L583.9,500.4z"/>
					</g>
				</g>
				<g>
					<g>
						<path fill="none" stroke="#BFA89F" stroke-miterlimit="10" d="M516,563.6"/>
					</g>
				</g>
				<g>
					<g>
						<path fill="none" stroke="#BFA89F" stroke-miterlimit="10" d="M547.1,557.4"/>
					</g>
				</g>
				<circle fill="#866050" cx="404.8" cy="480.3" r="9.2"/>
				<circle fill="#866050" cx="390" cy="505.3" r="9.2"/>
				<circle fill="#866050" cx="414.1" cy="505.3" r="5.8"/>
				<circle fill="#866050" cx="506.1" cy="577.1" r="9.2"/>
				<circle fill="#866050" cx="491.3" cy="602" r="9.2"/>
				<circle fill="#866050" cx="515.4" cy="602" r="5.8"/>
			</g>
			<path fill="#58595B" d="M763.5,478.4l10.7,60.2l-29.7,5.3c-10.1,1.8-19.8-4.9-21.6-15l-7.5-41.8c-1.6-8.9,4.4-17.5,13.3-19
				l15.6-2.8C753.4,463.6,761.9,469.5,763.5,478.4z"/>
			<path fill="#58595B" d="M719.1,483.7c0,0,51.3,0.5,81.2-35.8c29.8-36.3,70.2-57.9,107.8-39.4c21.2,10.4,27.4,25.1,27.5,47.8
				c0.3,87.6-125.3,96.9-183.1,96.4c-16-0.1-29.2-12.6-30.4-28.6C720.6,505.4,719.1,483.7,719.1,483.7z"/>
		</g>
	</g>
	<g>
		<ellipse fill="#8A6252" cx="591.1" cy="656.1" rx="73" ry="73.1"/>
		<path fill="#7C5849" d="M563.5,615.4c-0.2-1.1-0.1-9,0-12.7c0-1.3,0.4-2.6,1.1-3.7l3.7-6l0,0c0.5-1,2.1-0.6,2.1,0.5v3.4
			c0,0.1,0,0.2-0.1,0.4l-1.3,3.7c-0.4,1.1-0.5,2.3-0.3,3.4l1.6,11H563.5z"/>
		<path fill="#7C5849" d="M581.3,592.3c-0.1-0.7-0.1-5.7,0-8.1c0-0.8,0.2-1.6,0.7-2.3l2.3-3.8l0,0c0.3-0.6,1.3-0.4,1.3,0.3v2.2
			c0,0.1,0,0.2,0,0.2l-0.8,2.3c-0.2,0.7-0.3,1.4-0.2,2.2l1,7H581.3z"/>
		<path fill="#7C5849" d="M602,595.7c0.3-0.5,3-3.7,4.3-5.3c0.4-0.5,0.9-1,1.4-1.4l2.7-1.9l0,0c0.4-0.3,0.6,0,0.2,0.5l-1.2,1.4
			c0,0-0.1,0.1-0.1,0.1l-1.5,1.3c-0.4,0.4-0.9,0.9-1.2,1.4l-3.4,4.8L602,595.7z"/>
		<path fill="#7C5849" d="M616.1,606.9c0.8-0.8,7.5-5,10.6-7c1.1-0.7,2.4-1.1,3.6-1.1l7-0.2l0,0c1.1-0.1,1.7,1.4,0.7,2l-2.9,1.9
			c-0.1,0.1-0.2,0.1-0.3,0.1l-3.8,1c-1.1,0.3-2.2,0.8-3,1.6l-8.3,7.4L616.1,606.9z"/>
		<path fill="#7C5849" d="M579.4,631.9c0.6-0.6,5.9-3.9,8.4-5.5c0.9-0.5,1.9-0.8,2.9-0.9l5.5-0.2l0,0c0.9-0.1,1.3,1.1,0.6,1.6
			l-2.2,1.5c-0.1,0.1-0.2,0.1-0.3,0.1l-3,0.8c-0.9,0.2-1.7,0.7-2.4,1.3l-6.6,5.8L579.4,631.9z"/>
		<path fill="#7C5849" d="M537.1,628.3c-0.3,1-0.7,1.9-1.3,2.7c0.2-0.3,0.4-0.5,0.6-0.8c-0.3,0.4-0.6,0.8-1,1.1
			c-0.6,0.6-1,1.5-0.2,2.1c0.8,0.7,2.9,0.6,3.8,0.6c2-0.2,3.9-0.6,5.8-1.3c1.5-0.6,3-1.2,4.1-2.3c1.3-1.3,2.4-2.9,2.9-4.6
			c0.8-2.7-4.8-1.9-6-1.7c-1.9,0.4-3.9,0.9-5.6,1.8c-0.5,0.3-0.9,0.5-1.4,0.8C538.1,627.1,537.5,627.7,537.1,628.3L537.1,628.3z"/>
		<path fill="#7C5849" d="M537.8,642.9c1.1,2.6,1.9,5.3,2.5,8c0.2,1.1,1.9,1.4,2.7,1.5c1.7,0.2,3.8-0.1,5.5-0.5
			c1.7-0.5,3.6-1.1,5-2.3c0.8-0.6,1.8-1.5,1.6-2.7c-0.6-2.8-1.4-5.4-2.5-8c-1.1-2.6-6.2-1.5-8.2-1c-1.7,0.5-3.6,1.1-5,2.3
			C538.8,640.8,537.4,641.9,537.8,642.9L537.8,642.9z"/>
		<path fill="#7C5849" d="M550.6,641.8c0.9,0.6,1.8,1.1,2.8,1.7c0.7,0.5,1.5,0.9,2.3,1c0.9,0.3,1.8,0.4,2.8,0.3c1,0,2-0.3,3-0.7
			c0.9-0.3,1.8-0.7,2.6-1.4c1.2-1,2.5-2.5,2.5-4.1c0-1.5-0.5-3.1-1.9-4c-0.9-0.6-1.8-1.1-2.8-1.7c-0.7-0.5-1.5-0.9-2.3-1
			c-0.9-0.3-1.8-0.4-2.8-0.3c-1,0-2,0.3-3,0.7c-0.9,0.3-1.8,0.7-2.6,1.4c-1.2,1-2.5,2.5-2.5,4.1
			C548.7,639.3,549.2,640.9,550.6,641.8L550.6,641.8z"/>
		<path fill="#7C5849" d="M537.1,681.2c3.3,6.2,7.4,11.8,12.3,16.9c2.4,2.6,15.9-2.9,14-4.9c-4.6-4.8-8.4-10.1-11.5-15.9
			C550.2,673.8,536.1,679.3,537.1,681.2L537.1,681.2z"/>
		<path fill="#7C5849" d="M586.7,655.8c1.5,1.2,2.9,2.5,4.4,3.7c1,0.8,2.7,0.8,3.9,0.8c1.9-0.1,4-0.5,5.8-1.2c1.2-0.5,6.5-3,4.2-4.9
			c-1.5-1.2-2.9-2.5-4.4-3.7c-1-0.8-2.7-0.8-3.9-0.8c-1.9,0.1-4,0.5-5.8,1.2C589.8,651.4,584.4,653.9,586.7,655.8L586.7,655.8z"/>
		<g>
			<g>
				<path fill="none" stroke="#BFA89F" stroke-miterlimit="10" d="M577.3,674.7"/>
			</g>
		</g>
		<g>
			<g>
				<path fill="none" stroke="#BFA89F" stroke-miterlimit="10" d="M589.7,672.2"/>
			</g>
		</g>
		<ellipse fill="#7C5849" cx="532.9" cy="641.3" rx="3.7" ry="3.7"/>
		<ellipse fill="#7C5849" cx="526.9" cy="651.3" rx="3.7" ry="3.7"/>
		<circle fill="#7C5849" cx="536.6" cy="651.3" r="2.3"/>
		<ellipse fill="#7C5849" cx="573.3" cy="680.1" rx="3.7" ry="3.7"/>
		<ellipse fill="#7C5849" cx="567.4" cy="690.1" rx="3.7" ry="3.7"/>
		<circle fill="#7C5849" cx="577.1" cy="690.1" r="2.3"/>
	</g>
	<g>
		<polygon fill="#464547" stroke="#464547" stroke-width="4" stroke-miterlimit="10" points="698.2,718.2 686.5,718.4 686.5,716 
			695.8,715.9 695.5,697.2 697.9,697.2 		"/>
		<path fill="#464547" stroke="#464547" stroke-width="4" stroke-miterlimit="10" d="M736.2,717.7l-12.9,0.2l0-2.4l10.5-0.2l0-2.8
			c-3.7-0.9-6.9-3.5-9.2-7.4c-1.9-3.2-2.5-6.2-2.6-6.3l2.3-0.5c0,0.1,2.5,10.8,10.8,12.1l1,0.2L736.2,717.7z"/>
		<path fill="#464547" d="M677.5,666.7l-17.7-0.4l0.1-5.2c0-1.2-0.8-2.2-1.9-2.4c-1.3-0.2-2.5,0.9-2.5,2.2l-0.1,5.7
			c0,1.4,1,2.5,2.4,2.5l2,0l0,0l17.7,0.4L677.5,666.7z"/>
		<path fill="#58595B" d="M717.8,707.7l-5.6,1c-14.5,2.7-28.5-6.9-31.2-21.4l-3.5-18.7c-2.7-14.5,6.9-28.5,21.4-31.2l5.6-1
			c14.5-2.7,28.5,6.9,31.2,21.4l3.5,18.7C741.8,690.9,732.2,705,717.8,707.7z"/>
		<path fill="#464547" d="M730.9,667.3l-3.4,9.7c-0.7,2.1-2.3,3.8-4.2,4.8L702.4,692l-2.1-4.3c-0.5-1-1.7-1.6-2.7-1.1
			c-1.1,0.5-1.6,1.8-1.1,2.8l2.3,4.7c0.6,1.2,2.1,1.7,3.3,1.1l1.5-0.7l0,0l20.8-10.2c2.6-1.3,4.7-3.6,5.6-6.4l3.4-9.7L730.9,667.3z"
			/>
		<g>
			<path fill="#464547" d="M731.3,681.3C731.3,681.3,731.3,681.3,731.3,681.3L731.3,681.3L731.3,681.3z"/>
			<path fill="#464547" d="M730.9,681.5c0,0.1-0.1,0.2,0,0.2C730.9,681.6,731,681.6,730.9,681.5c0.1-0.1,0.2-0.1,0.2,0
				c0,0,0.1-0.1,0.1-0.1C731.1,681.4,731,681.4,730.9,681.5C730.9,681.5,730.9,681.5,730.9,681.5z"/>
			<path fill="#464547" d="M725.7,685.2L725.7,685.2C725.7,685.2,725.7,685.2,725.7,685.2z"/>
			<path fill="#464547" d="M722.3,687.3C722.3,687.3,722.3,687.2,722.3,687.3C722.3,687.3,722.3,687.3,722.3,687.3z"/>
			<path fill="#464547" d="M721.6,687.5C721.7,687.5,721.7,687.5,721.6,687.5C721.7,687.5,721.6,687.5,721.6,687.5z"/>
			<path fill="#464547" d="M725.7,685.2L725.7,685.2C725.6,685.3,725.6,685.2,725.7,685.2z"/>
			<path fill="#464547" d="M730.3,682.2C730.3,682.2,730.3,682.1,730.3,682.2L730.3,682.2C730.3,682.2,730.3,682.2,730.3,682.2z"/>
			<path fill="#464547" d="M727.1,684.2L727.1,684.2C727.1,684.1,727.1,684.1,727.1,684.2L727.1,684.2z"/>
			<path fill="#464547" d="M728.2,683.4C728.1,683.4,728.2,683.4,728.2,683.4C728.2,683.4,728.2,683.4,728.2,683.4
				C728.2,683.4,728.2,683.4,728.2,683.4z"/>
			<path fill="#464547" d="M729.9,682.2L729.9,682.2C729.9,682.1,729.9,682.2,729.9,682.2z"/>
			<path fill="#464547" d="M726.3,684.7C726.3,684.7,726.3,684.7,726.3,684.7C726.3,684.7,726.3,684.7,726.3,684.7z"/>
			<path fill="#464547" d="M690.3,691.8C690.3,691.8,690.3,691.8,690.3,691.8C690.3,691.8,690.3,691.8,690.3,691.8z"/>
			<path fill="#464547" d="M688.8,691.3L688.8,691.3C688.8,691.3,688.8,691.3,688.8,691.3L688.8,691.3z"/>
			<path fill="#464547" d="M720.5,688.1C720.5,688.1,720.5,688.1,720.5,688.1C720.6,688,720.5,688.1,720.5,688.1z"/>
			<path fill="#464547" d="M709.8,691.6c0.1,0-0.2,0.1,0,0.1C709.8,691.7,710,691.6,709.8,691.6z"/>
			<path fill="#464547" d="M730.3,682.2L730.3,682.2C730.2,682.2,730.3,682.2,730.3,682.2z"/>
			<path fill="#464547" d="M709.8,691.7L709.8,691.7L709.8,691.7C709.8,691.7,709.8,691.7,709.8,691.7z"/>
			<path fill="#464547" d="M718,689.3C718,689.3,718,689.3,718,689.3C718,689.3,718,689.3,718,689.3z"/>
			<path fill="#464547" d="M719.9,688.5L719.9,688.5C719.9,688.5,719.9,688.5,719.9,688.5z"/>
			<path fill="#464547" d="M717,689.8C716.9,689.8,716.9,689.8,717,689.8C716.9,689.8,716.9,689.8,717,689.8
				C716.9,689.8,716.9,689.8,717,689.8z"/>
			<path fill="#464547" d="M715.9,690.2C715.9,690.2,715.9,690.2,715.9,690.2C715.9,690.2,715.9,690.2,715.9,690.2L715.9,690.2z"/>
			<path fill="#464547" d="M693.8,692.2C693.8,692.2,693.8,692.1,693.8,692.2C693.8,692.2,693.6,692.2,693.8,692.2z"/>
			<path fill="#464547" d="M730.3,682.1C730.3,682.2,730.3,682.2,730.3,682.1L730.3,682.1C730.3,682.1,730.3,682.1,730.3,682.1z"/>
			<path fill="#464547" d="M717.1,690.2l-0.2,0.1C717,690.3,717,690.3,717.1,690.2z"/>
			<path fill="#464547" d="M702.1,692.4L702.1,692.4C702.1,692.4,702.1,692.4,702.1,692.4z"/>
			<path fill="#464547" d="M716.4,690.5c0,0-0.1,0-0.1,0c0,0,0,0,0,0L716.4,690.5z"/>
			<path fill="#464547" d="M693.7,692.1L693.7,692.1L693.7,692.1z"/>
			<path fill="#464547" d="M692.5,692.2c0.2,0,0.1-0.1,0.1-0.1c0.2,0,0.1,0.1,0.2,0.1c0.1,0,0.2-0.1,0.3-0.1c0,0,0,0,0,0
				c0.1,0,0.4,0,0.6,0c0,0,0,0,0,0c0,0,0-0.1,0-0.1c0.1,0,0.1,0,0.2,0c0,0-0.1,0-0.1,0l0.1,0c0.1,0.1-0.1,0-0.1,0.1
				c0.2,0,0.4-0.1,0.5,0c0,0.1-0.3,0-0.1,0.1l-0.2,0c0.1,0.1-0.1,0,0,0.1c0.2,0,0.3,0,0.5,0c0.1,0,0-0.1,0-0.1
				c0.4,0,0.3,0.2,0.5,0.1c0.1,0,0.1-0.1,0.3-0.1l-0.1,0.1c0.2,0,0.1-0.1,0.4,0c0,0-0.2,0-0.2,0c0.2,0.1,0.1,0,0.2,0l0,0.1
				c0.3,0,0.5,0,0.8,0c0,0-0.1,0,0,0.1c0.4,0,0.8,0,1.1,0.1l0.1-0.1c0,0,0.1,0,0,0c0.1,0,0,0,0.1-0.1c0.1,0,0.1,0,0.1,0.1
				c0.2,0,0.7-0.1,0.9,0l0,0c0.2,0,0.2-0.1,0.4-0.1l0,0c0.4,0,0.9,0,1.2,0.1c0.1-0.1,0.4,0,0.4-0.1c0.2,0.1,0.2,0.1,0.5,0.1
				c0.1,0,0.1-0.1,0.2-0.1l0,0.1l0.2-0.1l0.1,0.1l0.1,0c0,0-0.1,0-0.1,0c0.2,0,0.4,0,0.4,0.1l0.4-0.1c0,0-0.1,0-0.1,0
				c0.2-0.1,0,0.1,0.2,0c0,0,0,0,0,0c0.1,0,0.3,0,0.5,0l0,0c0.3,0,0.6,0,0.9,0c-0.1,0-0.1-0.1,0-0.1l0,0.1c0.1,0-0.1,0,0-0.1
				c0.1,0,0.1,0.1,0,0.1l0.1,0c0,0,0,0,0,0.1c0.1,0,0.3,0.1,0.3,0l0,0c0.3,0,0.5,0,0.7-0.1c0-0.1,0.1,0,0.2-0.1c0.2,0,0.4,0,0.6,0
				c0.2,0,0-0.1,0.1-0.1c0,0.1,0.2,0,0.1,0.1c0.3,0,0.4,0,0.7-0.1c0,0-0.1,0-0.1,0c0.1,0,0.1,0,0.1,0l0,0c0.4-0.1,0.9,0.1,1.2-0.1
				l0,0l0.3-0.1c0.2,0-0.1,0,0,0.1c0.3-0.1,0.6-0.1,0.8-0.1c0.2,0.1,0.8-0.1,1.1-0.1l0,0c0.1,0,0.1,0,0.2,0c0,0-0.1,0,0,0
				c0.3-0.1,0.7-0.1,1-0.2c0.3-0.1,0.7-0.1,1-0.2c0.2-0.1,0.1-0.2,0.4-0.2l-0.1,0.1c0.5-0.2,1-0.3,1.5-0.5c0,0,0,0-0.1,0.1
				c0.1,0,0.4-0.1,0.4-0.2c0.1,0,0,0,0.1,0c0.1,0,0.2-0.1,0.3-0.1c0,0,0,0,0,0c0.1,0,0.3-0.1,0.2-0.1c0.2,0,0.3-0.1,0.5-0.2
				c0.1-0.1,0.3-0.1,0.3-0.2c0,0.1,0.3,0,0.4-0.1c0,0,0.1,0,0.1,0c0.1,0,0.2-0.1,0.2-0.1c0.3,0,0.4-0.3,0.6-0.2
				c0.2-0.1,0.3-0.2,0.5-0.3c0.2-0.1,0.3-0.2,0.5-0.3c0,0.1-0.4,0.2-0.3,0.3c0.3-0.2,0.4-0.3,0.8-0.5c0.1,0,0,0.1,0,0.1
				c0.3-0.2,0.6-0.3,0.9-0.5c0,0,0,0,0,0.1c0.1,0,0.1-0.1,0.1-0.1l0,0c-0.1,0,0.2-0.2,0.2-0.3c0,0.2,0.3-0.1,0.2,0.1
				c0,0,0.1-0.1,0-0.1c0.1,0,0.1,0,0,0c0.2-0.1,0.1-0.1,0.3-0.2c0,0,0,0,0,0.1c0.1-0.1,0.1-0.2,0.3-0.2c0,0,0,0,0,0
				c0.2-0.1,0.4-0.3,0.7-0.4c0,0.1,0.1,0,0.2,0l0.1-0.1l-0.1,0c0.1-0.1,0.2-0.2,0.3-0.2l-0.1,0.1l0.2-0.1l-0.1,0.1
				c0.1-0.1-0.1-0.1,0.1-0.2c0,0,0.1-0.1,0.2-0.1l0,0c0.1-0.1,0.1-0.1,0.2-0.2c0,0,0,0.1,0,0.1c0-0.1,0.3-0.2,0.3-0.3
				c0,0,0,0.1,0,0.1l0-0.1c0.1,0,0.1,0,0.1,0c0.2-0.1-0.1,0,0.1-0.1c0,0,0,0,0,0c0.2-0.1,0.4-0.3,0.6-0.4c0.1,0-0.2,0.1-0.1,0.1
				c0.3-0.2,0.5-0.4,0.8-0.6l-0.1,0c0-0.1,0.2-0.1,0.3-0.2c0,0,0,0.1,0,0.1c0.2-0.1,0.3-0.3,0.6-0.5l0,0c0.1,0,0.3-0.2,0.4-0.2
				c0,0,0.1-0.1,0-0.1c0.4-0.1,0.6-0.5,1-0.6c0,0-0.1,0.1,0,0.1l0.2-0.2c0,0,0,0-0.1,0c0,0,0.1-0.1,0.1-0.2c-0.1,0.1,0,0.1,0.1,0
				c0,0,0,0,0,0c0.2,0,0-0.1,0.2-0.2l0,0c0.1-0.1,0.1-0.1,0.2-0.2c0.1,0-0.1,0.1,0,0.1c0.1-0.1,0.1-0.2,0.3-0.3c0,0-0.1,0.1-0.1,0.1
				c0.1,0,0.1,0,0.2-0.1l0,0l0.2-0.1l-0.1,0c0-0.2,0.2-0.2,0.4-0.4c-0.1,0.2,0,0.1,0,0.1c0.1,0,0.1-0.1,0.1,0
				c0.1-0.1,0.2-0.1,0.2-0.2c0,0,0.1-0.1,0.1,0c0.1-0.1,0,0-0.1,0c0.1-0.2,0.4-0.2,0.6-0.5c0.2-0.2,0.2-0.3,0.3-0.4
				c0.1,0,0,0.1,0,0.1c0.1-0.1,0.2-0.1,0.3-0.2c0,0,0,0,0.1,0c0.1-0.1,0-0.1,0.1-0.2c0,0,0,0.1,0,0.1c0.1-0.1,0.1-0.2,0.2-0.3
				c0,0,0,0.1,0,0.1c0.1-0.1,0.3-0.2,0.3-0.3l-0.1,0c0,0,0,0,0,0.1c-0.1,0.1-0.1,0.1-0.2,0.1l0.1-0.1c-0.1,0-0.3,0.2-0.4,0.3l0-0.1
				l-0.1,0.2c0,0-0.1,0,0-0.1c-0.1,0-0.1,0.1-0.2,0.1c0,0,0,0,0,0l-0.1,0.1c0,0-0.1,0,0-0.1c-0.2,0.1-0.2,0.3-0.3,0.3l0,0
				c-0.2,0.2,0,0.1-0.1,0.3l-0.2,0l0,0.1c0,0-0.1,0-0.1,0c-0.1,0.1,0,0,0,0.1c-0.2,0-0.3,0.3-0.4,0.2c0,0.1,0.1-0.1,0,0.1
				c-0.1-0.1-0.1,0.1-0.3,0.2c0-0.1,0.1-0.1,0-0.1c0,0.1-0.2,0.1-0.3,0.2c0,0.1-0.2,0.2-0.3,0.3c0,0-0.3,0.2-0.5,0.3l0,0
				c0,0.1-0.1,0.2-0.2,0.3c0,0,0-0.1,0-0.1l-0.1,0.1c0,0,0,0.1-0.1,0.1l0-0.1c-0.1,0.1-0.2,0.2-0.4,0.3c0,0,0.2,0,0.1,0.2
				c0,0-0.1-0.1,0-0.1c0,0,0,0.1-0.1,0.1l0-0.1c-0.1,0,0,0.1-0.1,0.1c0,0-0.1,0-0.1,0c0,0,0.1,0,0.1-0.1c-0.1,0-0.2,0.1-0.2,0.1
				c0,0,0,0,0,0.1c-0.1,0.1-0.1,0-0.2,0c0,0-0.1,0.1-0.1,0.1c0,0-0.1,0-0.1,0c-0.1,0.1-0.3,0.2-0.2,0.2l0,0l0,0l0,0l0,0
				c-0.2,0.2-0.5,0.3-0.7,0.5l0,0c-0.1,0.1-0.3,0.2-0.4,0.3c0,0-0.1,0-0.1,0c-0.1,0.1-0.1,0.1-0.3,0.2c0.1-0.1-0.1,0,0.1-0.1
				c-0.1,0.1-0.2,0.1-0.3,0.2c0-0.1-0.1,0-0.2,0.1l0.1,0c-0.1,0.1-0.1,0.1-0.2,0.1l0-0.1c-0.3,0.1-0.4,0.4-0.7,0.4
				c-0.1,0.1,0.2-0.1,0.1,0c-0.1,0.1-0.3,0.1-0.4,0.1c-0.2,0.1-0.1,0.2-0.3,0.3c0,0,0.1,0,0,0.1c-0.1,0.1-0.2,0-0.1-0.1
				c0,0,0.1,0,0.1,0c0,0,0.1-0.1,0-0.1l0,0c-0.1,0-0.3,0.1-0.2,0.1c-0.1,0.1,0,0.1,0.1,0c-0.2,0.1-0.3,0.2-0.5,0.2c0,0,0.1,0,0,0
				c-0.3,0.1-0.1,0.1-0.3,0.2c-0.1,0,0-0.1-0.2,0c-0.1,0-0.1,0,0-0.1c-0.1,0.1-0.3,0.1-0.4,0.2l0.1-0.1c0,0-0.1,0.1-0.1,0.1l0.1,0
				c-0.1,0-0.1,0-0.1,0c0,0.1,0.1,0,0,0.1c-0.1,0-0.2,0.1-0.2,0.1c0.2-0.1-0.1,0,0.1-0.1c0,0-0.1,0-0.1,0.1c0,0,0,0,0,0
				c-0.2,0.1-0.1,0.1-0.3,0.2c0,0-0.1,0-0.1,0c0.1,0,0.1,0,0,0.1c-0.1,0-0.1,0.1-0.2,0.1l0.1,0c0,0-0.1,0.1-0.2,0.1
				c0,0,0.1-0.1,0-0.1c-0.1,0.1-0.3,0.1-0.4,0.2c-0.1,0,0-0.1-0.1,0c-0.1,0.1-0.2,0-0.4,0.2c0.1,0,0.1,0,0,0.1l0.3-0.2l-0.2,0.1
				c0.1,0,0.2-0.1,0.2-0.1c-0.1,0.1-0.1,0.1,0,0.1c-0.2,0-0.2,0.1-0.4,0.2l0-0.1c-0.2,0-0.3,0.2-0.6,0.3l0.1,0
				c0,0.1-0.2,0.1-0.2,0.1c0,0-0.1,0-0.1,0c0,0-0.2,0.1-0.2,0.2l-0.1,0c-0.2,0.1-0.2,0.2-0.4,0.3c0-0.1-0.1-0.1,0.1-0.1
				c-0.1,0-0.1,0-0.1,0.1c-0.1,0-0.2,0.1-0.3,0.1c0,0,0,0.1-0.1,0.1c0,0,0,0,0,0c0,0-0.1,0.1,0,0.1c-0.3,0-0.6,0.2-0.9,0.2
				c-0.2,0.1-0.3,0.1-0.5,0.2c0,0,0,0,0,0c-0.2,0-0.1,0.1-0.3,0.2c-0.1,0,0.1-0.1,0-0.1c-0.1-0.1-0.3,0.1-0.4,0.1l0,0
				c-0.1,0-0.3,0.1-0.5,0.2c0,0,0,0,0,0c-0.1,0.1-0.4,0.2-0.5,0.3c0-0.1,0.1-0.1,0-0.1c-0.1,0,0,0.1-0.1,0.1c-0.1,0-0.2,0-0.2-0.1
				l0.2,0c-0.1,0-0.2,0.1-0.3,0.1l0,0c-0.2,0.1-0.2,0.1-0.5,0.2l0,0c-0.1,0.1-0.1,0-0.3,0.1l-0.1-0.1c-0.1,0-0.3,0.1-0.5,0.2
				c0.1-0.1,0.3-0.1,0.4-0.2c-0.1,0-0.3,0.1-0.4,0.1c0,0,0.1,0,0.1,0c-0.1,0.1-0.2,0.1-0.4,0.2c0-0.2-0.5,0.1-0.7,0
				c-0.3,0.1-0.7,0.1-1.1,0.1c0.2,0.1-0.1,0-0.1,0.1c-0.1,0-0.1,0-0.1,0l-0.3,0c-0.1,0,0.1,0,0.1-0.1c-0.2,0-0.1,0-0.2-0.1
				c0,0-0.1,0.1-0.2,0.1l0.2,0c-0.3,0.1-0.3-0.1-0.5,0l0.1,0c-0.1,0-0.5,0.1-0.7,0.2c0,0-0.1,0,0-0.1c-0.3,0-0.8,0.2-1,0.1l0,0
				c-0.1,0-0.1,0.1-0.2,0c0,0,0,0,0,0c0,0-0.2,0.1-0.3,0.1l0.1,0c-0.3,0-0.5,0.1-0.8,0.1c0-0.1-0.3-0.1-0.4-0.1l0,0
				c-0.4,0-0.7,0.1-1,0.1c-0.2-0.1-0.8,0-1.1-0.1c0.1,0,0,0.1-0.1,0.1c-0.1,0-0.2,0.1-0.2,0l0,0c-0.1-0.1-0.2-0.1-0.4-0.1l0,0.1
				c-0.4-0.2-0.9,0.1-1.1-0.1c-0.1,0-0.2,0-0.3,0.1l0-0.1c-0.2,0-0.4,0-0.7,0l0.1,0c-0.2,0-0.2,0.2-0.4,0.2l0-0.1
				c-0.3,0-0.6-0.1-0.9,0c0,0,0,0,0.1,0c-0.1,0-0.5-0.1-0.5,0.1c0-0.1-0.3,0-0.5,0l0-0.1c-0.1,0.1-0.1,0.1-0.3,0.1c0,0,0,0,0,0
				c-0.1,0-0.1,0-0.3,0l0.1,0c-0.2,0-0.1,0-0.2,0.1c-0.1,0-0.3,0-0.3-0.1c0,0-0.1,0.1-0.2,0.1c0,0,0,0,0,0c-0.3,0-0.4,0.1-0.6,0
				c0,0,0,0,0,0c0.2,0,0.4,0,0.3,0c0-0.1-0.2-0.1,0-0.1c-0.1,0-0.4,0.1-0.5,0.1c0,0,0,0,0,0l0,0c0,0-0.1,0-0.1,0c-0.1,0-0.1,0-0.1,0
				c0,0-0.2,0-0.3,0c0,0.1-0.1,0,0,0.1c0,0,0,0,0.1,0c0,0,0,0,0,0l0,0c0.1,0,0.1,0,0.2,0c-0.1,0-0.1,0-0.2,0c0,0-0.1,0.1-0.1,0.1
				c-0.1-0.1-0.3-0.1-0.3-0.2c-0.2,0-0.6,0-0.7,0.1c-0.1,0-0.1,0-0.1-0.1c0,0,0.1,0,0.1,0c-0.1,0-0.4,0-0.5,0.1
				c-0.2,0,0.1-0.1-0.1-0.1l0,0c-0.5-0.2-0.8,0.1-1.3-0.1c0,0,0.1,0,0.1,0c-0.6-0.1-1.3-0.1-1.8-0.2c-0.2,0-0.2,0-0.3,0l0-0.1
				l-0.2,0c-0.3,0-0.4-0.2-0.7-0.2l0,0c-0.1,0-0.4,0-0.3-0.1c0,0,0,0-0.1,0l0,0l-0.3,0c-0.2-0.1,0.1-0.1-0.3-0.2
				c-0.1,0-0.3,0-0.3,0.1c0,0,0.1,0,0.1,0.1l-0.1,0c0,0.1-0.1,0.2,0.1,0.3l0.2,0l0.1,0.1l-0.2,0c0.1,0.1,0.1,0,0.2,0
				c0,0,0,0,0.1,0.1l0.2-0.1c0,0-0.1,0.1,0,0.1c0.1,0-0.1-0.1,0.1-0.1c0.1,0.1,0,0.1,0.2,0.1c0,0,0,0-0.1,0c0.1,0,0.2,0,0.3,0
				c0.1,0.1,0.3,0,0.3,0.1c0,0,0.2,0,0.3,0c-0.2,0.1,0.3,0.1,0.3,0.2c0.1-0.1,0.4,0,0.6,0c0,0,0,0-0.1,0c0.1,0,0.1,0.1,0.2,0.1
				c0-0.1,0.2-0.1,0.3-0.1c0.1,0.1-0.1,0.1-0.1,0.2c0-0.1,0.3,0,0.2-0.1c0.1,0.1,0.1,0,0.1,0.1c0-0.1,0.1,0,0.2-0.1
				C692.5,692.1,692.4,692.1,692.5,692.2C692.7,692.1,692.5,692.2,692.5,692.2z M696.6,692.2L696.6,692.2
				C696.6,692.2,696.6,692.2,696.6,692.2C696.6,692.2,696.6,692.2,696.6,692.2z M697,692.3c0,0-0.1,0-0.1,0c0,0,0,0,0,0
				C696.8,692.2,696.9,692.2,697,692.3z M696.3,691.8C696.3,691.8,696.3,691.8,696.3,691.8C696.3,691.9,696.3,691.9,696.3,691.8
				C696.2,691.9,696.2,691.9,696.3,691.8C696.2,691.9,696.2,691.8,696.3,691.8z"/>
			<path fill="#464547" d="M696.2,691.9C696.1,691.9,696.1,691.9,696.2,691.9C696.1,691.9,696.2,691.9,696.2,691.9
				C696.2,691.9,696.2,691.9,696.2,691.9C696.2,691.9,696.2,691.9,696.2,691.9z"/>
			<path fill="#464547" d="M725.7,685.2L725.7,685.2C725.7,685.2,725.7,685.2,725.7,685.2C725.7,685.2,725.7,685.2,725.7,685.2z"/>
			<polygon fill="#464547" points="701.7,692.5 701.7,692.4 701.7,692.4 			"/>
			<path fill="#464547" d="M727.4,684.3C727.4,684.3,727.4,684.3,727.4,684.3C727.4,684.3,727.4,684.3,727.4,684.3z"/>
			<path fill="#464547" d="M728,683.8l0.1-0.1C728.1,683.8,728.1,683.8,728,683.8z"/>
			<path fill="#464547" d="M728.6,683.5C728.6,683.4,728.6,683.4,728.6,683.5L728.6,683.5L728.6,683.5z"/>
			<path fill="#464547" d="M720.1,688.8C720.1,688.8,720.1,688.8,720.1,688.8C720.1,688.9,720.1,688.8,720.1,688.8z"/>
			<path fill="#464547" d="M722.7,687.3C722.7,687.3,722.6,687.3,722.7,687.3C722.7,687.3,722.7,687.3,722.7,687.3z"/>
			<polygon fill="#464547" points="717.1,690.2 717.1,690.2 717.1,690.2 			"/>
			<path fill="#464547" d="M722.5,687.4c0.1,0,0.1,0,0.1-0.1C722.6,687.4,722.5,687.4,722.5,687.4z"/>
			<polygon fill="#464547" points="730.7,681.8 730.8,681.8 730.8,681.8 			"/>
			<path fill="#464547" d="M730.8,681.8L730.8,681.8C730.8,681.8,730.8,681.8,730.8,681.8z"/>
			<path fill="#464547" d="M730.8,681.7L730.8,681.7C730.8,681.8,730.8,681.7,730.8,681.7z"/>
			<path fill="#464547" d="M730.1,682.3L730.1,682.3C730.1,682.3,730.1,682.3,730.1,682.3z"/>
			<path fill="#464547" d="M729.9,682.5c0.1,0,0.1-0.1,0.2-0.1l0,0C730.1,682.4,729.9,682.4,729.9,682.5z"/>
			<path fill="#464547" d="M728.9,682.9l0.2-0.1c0,0-0.1,0,0-0.1C728.8,682.8,729.1,682.7,728.9,682.9z"/>
			<path fill="#464547" d="M728.3,683.3C728.4,683.2,728.3,683.2,728.3,683.3C728.3,683.3,728.3,683.3,728.3,683.3z"/>
			<path fill="#464547" d="M724.4,686L724.4,686C724.4,686,724.4,685.9,724.4,686z"/>
			<polygon fill="#464547" points="723.8,686.7 723.9,686.6 723.9,686.6 			"/>
			<polygon fill="#464547" points="723.2,686.6 723.2,686.6 723.1,686.7 			"/>
			<path fill="#464547" d="M716.1,690.1L716.1,690.1C716.2,690.1,716.2,690,716.1,690.1z"/>
			<path fill="#464547" d="M712.8,691.1c0,0-0.1,0-0.2,0C712.7,691.1,712.8,691.1,712.8,691.1z"/>
			<polygon fill="#464547" points="702.6,691.9 702.7,691.9 702.5,691.9 			"/>
		</g>
		<g>
			<path fill="#464547" d="M732.3,686.6C732.3,686.6,732.3,686.6,732.3,686.6l0,0.1L732.3,686.6z"/>
			<path fill="#464547" d="M732.1,687c0,0.1,0,0.2,0.1,0.2C732.1,687,732.2,687,732.1,687c0.1-0.1,0.1-0.1,0.1-0.1c0,0,0-0.1,0-0.1
				C732.2,686.8,732.1,686.9,732.1,687C732.1,687,732.1,687,732.1,687z"/>
			<path fill="#464547" d="M727.5,690.9L727.5,690.9C727.5,690.9,727.5,690.9,727.5,690.9z"/>
			<path fill="#464547" d="M724,692.4C724.1,692.4,724.1,692.3,724,692.4C724,692.4,724,692.4,724,692.4z"/>
			<path fill="#464547" d="M723.4,692.5C723.4,692.5,723.4,692.5,723.4,692.5C723.4,692.5,723.4,692.5,723.4,692.5z"/>
			<path fill="#464547" d="M727.5,690.9L727.5,690.9C727.4,690.9,727.5,690.9,727.5,690.9z"/>
			<path fill="#464547" d="M731.8,687.8C731.8,687.8,731.8,687.8,731.8,687.8C731.8,687.8,731.8,687.8,731.8,687.8L731.8,687.8z"/>
			<path fill="#464547" d="M728.9,690L728.9,690C729,690,729,690,728.9,690L728.9,690z"/>
			<path fill="#464547" d="M730,689.3C729.9,689.3,730,689.3,730,689.3C730,689.3,730,689.3,730,689.3
				C730,689.3,730,689.3,730,689.3z"/>
			<path fill="#464547" d="M731.5,687.9L731.5,687.9C731.5,687.9,731.5,687.9,731.5,687.9z"/>
			<path fill="#464547" d="M728.1,690.5C728.1,690.4,728.1,690.4,728.1,690.5C728.1,690.4,728.1,690.5,728.1,690.5z"/>
			<path fill="#464547" d="M693.3,697.3C693.3,697.3,693.3,697.2,693.3,697.3C693.3,697.2,693.3,697.3,693.3,697.3z"/>
			<path fill="#464547" d="M691.8,696.8L691.8,696.8C691.9,696.8,691.9,696.8,691.8,696.8L691.8,696.8z"/>
			<path fill="#464547" d="M722.3,692.9L722.3,692.9C722.3,692.9,722.3,692.9,722.3,692.9z"/>
			<path fill="#464547" d="M711.9,695.9c0.1,0-0.2,0.1,0,0.1C711.8,696,712,695.9,711.9,695.9z"/>
			<path fill="#464547" d="M731.8,687.8L731.8,687.8C731.8,687.9,731.8,687.9,731.8,687.8z"/>
			<path fill="#464547" d="M711.9,696L711.9,696L711.9,696C711.9,696,711.9,696,711.9,696z"/>
			<path fill="#464547" d="M719.7,693.8C719.7,693.8,719.7,693.9,719.7,693.8C719.7,693.8,719.7,693.8,719.7,693.8z"/>
			<path fill="#464547" d="M721.7,693.2L721.7,693.2C721.6,693.2,721.6,693.2,721.7,693.2z"/>
			<path fill="#464547" d="M718.7,694.2C718.7,694.2,718.7,694.2,718.7,694.2C718.7,694.3,718.7,694.3,718.7,694.2
				C718.7,694.3,718.7,694.2,718.7,694.2z"/>
			<path fill="#464547" d="M717.7,694.6C717.7,694.6,717.7,694.6,717.7,694.6C717.7,694.6,717.7,694.6,717.7,694.6L717.7,694.6z"/>
			<path fill="#464547" d="M696.7,697.5C696.6,697.5,696.6,697.4,696.7,697.5C696.6,697.5,696.5,697.5,696.7,697.5z"/>
			<path fill="#464547" d="M731.8,687.8C731.8,687.8,731.8,687.8,731.8,687.8C731.8,687.8,731.8,687.8,731.8,687.8
				C731.8,687.8,731.8,687.8,731.8,687.8z"/>
			<path fill="#464547" d="M718.8,694.7l-0.2,0C718.7,694.7,718.8,694.7,718.8,694.7z"/>
			<path fill="#464547" d="M704.6,697.4L704.6,697.4C704.5,697.4,704.6,697.4,704.6,697.4z"/>
			<path fill="#464547" d="M718.2,694.9c0,0-0.1,0-0.1,0c0,0,0,0,0,0L718.2,694.9z"/>
			<path fill="#464547" d="M696.6,697.4L696.6,697.4L696.6,697.4z"/>
			<path fill="#464547" d="M695.4,697.5c0.2,0,0.1-0.1,0.1-0.1c0.2,0,0.1,0.1,0.2,0.1c0.1,0,0.2-0.1,0.3-0.1c0,0,0,0,0,0
				c0.1-0.1,0.4,0,0.5-0.1c0,0,0,0,0,0c0,0,0-0.1,0-0.1c0.1,0,0.1,0,0.2,0c0,0-0.1,0-0.1,0l0.1,0c0.1,0.1-0.1,0-0.1,0.1
				c0.2,0,0.3-0.1,0.5,0c0,0.1-0.3,0-0.1,0.1l-0.2,0c0.1,0.1-0.1,0,0,0.1c0.2,0,0.3,0,0.5,0c0.1,0,0-0.1,0-0.1
				c0.3-0.1,0.3,0.2,0.5,0.1c0.1,0,0.1-0.1,0.3-0.1l-0.1,0.1c0.2,0,0.1-0.1,0.4-0.1c0,0-0.2,0-0.1,0c0.2,0.1,0.1,0,0.2,0l0,0.1
				c0.2,0,0.5-0.1,0.8-0.1c0,0-0.1,0,0,0.1c0.3,0,0.7,0,1.1,0l0.1-0.1c0,0,0.1,0,0,0c0.1,0,0,0,0.1-0.1c0.1,0,0.1,0,0.1,0.1
				c0.2-0.1,0.6-0.1,0.9-0.1l0,0c0.2,0,0.2-0.1,0.4-0.1l0,0c0.4,0,0.9-0.1,1.2,0c0.1-0.1,0.4,0,0.4-0.1c0.2,0,0.2,0.1,0.5,0.1
				c0.1,0,0.1-0.1,0.2-0.1l0,0.1l0.1-0.1l0.1,0.1l0.1,0c0,0-0.1,0-0.1,0c0.2,0,0.4,0,0.4,0l0.4-0.1c0,0-0.1,0-0.1,0.1
				c0.2-0.1,0,0.1,0.2,0c0,0,0,0,0-0.1c0.1,0,0.3,0,0.5,0l0,0c0.3,0,0.6-0.1,0.9-0.1c-0.1,0-0.1-0.1,0-0.1l0,0.1c0.1,0-0.1,0,0-0.1
				c0.1,0,0.1,0.1,0,0.1l0.1,0c0,0,0,0,0,0.1c0.1,0,0.3,0,0.3,0l0,0c0.3,0,0.4-0.1,0.7-0.1c0-0.1,0.1-0.1,0.2-0.1c0.2,0,0.4,0,0.6,0
				c0.2,0,0-0.1,0.1-0.1c0,0,0.2,0,0.1,0.1c0.3,0,0.3-0.1,0.7-0.1c0,0-0.1,0-0.1,0c0.1,0,0.1,0,0.1,0l0,0c0.4-0.1,0.9,0,1.2-0.2l0,0
				l0.3-0.1c0.1,0-0.1,0.1,0,0.1c0.3-0.1,0.5-0.1,0.8-0.2c0.2,0.1,0.8-0.2,1.1-0.1l0,0c0.1,0,0.1,0,0.2,0c0,0-0.1,0,0,0
				c0.6-0.2,1.3-0.2,2-0.4c0.2,0,0.1-0.2,0.4-0.2l-0.1,0.1c0.5-0.2,1-0.3,1.4-0.4c0,0,0,0-0.1,0.1c0.1,0,0.4-0.1,0.4-0.1
				c0.1,0,0,0,0.1,0c0.1,0,0.2-0.1,0.3-0.1c0,0,0,0,0,0c0.1,0,0.3-0.1,0.2-0.1c0.2,0,0.3-0.1,0.5-0.1c0.1-0.1,0.3-0.1,0.3-0.2
				c0,0.1,0.3,0,0.4-0.1c0,0,0.1,0,0.1,0c0.1,0,0.2-0.1,0.2-0.1c0.3,0,0.4-0.2,0.6-0.1c0.3-0.2,0.7-0.3,1-0.4c0,0.1-0.4,0.1-0.3,0.2
				c0.3-0.1,0.5-0.3,0.8-0.4c0.1,0,0,0.1-0.1,0.1c0.3-0.1,0.6-0.2,0.8-0.4c0,0,0,0,0,0c0.1,0,0.1,0,0.1-0.1l0,0
				c-0.1,0,0.2-0.2,0.2-0.2c0,0.1,0.3-0.1,0.2,0.1c0,0,0.1-0.1,0.1-0.1c0.1,0,0.1,0,0,0c0.2-0.1,0.1-0.1,0.3-0.2c0,0,0,0,0,0.1
				c0.1-0.1,0.1-0.1,0.3-0.2c0,0,0,0,0,0c0.2-0.1,0.4-0.3,0.7-0.3c0,0.1,0.1,0,0.1,0.1l0.1-0.1l-0.1,0c0.1,0,0.2-0.1,0.3-0.2
				l-0.1,0.1l0.2-0.1l-0.1,0c0.1-0.1,0-0.1,0.1-0.1c0,0,0.1-0.1,0.2,0l0,0c0.1,0,0.1-0.1,0.2-0.1c0,0,0,0.1,0,0.1
				c0-0.1,0.3-0.1,0.3-0.2c0,0,0,0.1,0,0.1l0-0.1c0.1,0,0.1,0,0.1,0c0.2-0.1-0.1-0.1,0.1-0.1c0,0,0,0,0,0c0.2-0.1,0.4-0.2,0.6-0.3
				c0.1,0-0.2,0.1-0.1,0.1c0.3-0.1,0.5-0.3,0.8-0.4l-0.1,0c0-0.1,0.2,0,0.3-0.2c0,0,0,0.1,0,0.1c0.2-0.1,0.4-0.2,0.6-0.4l0,0
				c0.1,0,0.3-0.1,0.4-0.2c0,0,0.1-0.1,0-0.1c0.4-0.1,0.6-0.4,1-0.5c0,0-0.1,0.1,0,0.1c0.1-0.1,0.2-0.1,0.2-0.2c0,0,0,0-0.1,0
				c0,0,0.1-0.1,0.1-0.1c-0.1,0.1,0,0.1,0.1,0.1c0,0,0,0,0,0c0.2,0,0-0.1,0.2-0.2l0,0c0.1-0.1,0.1-0.1,0.2-0.2c0.1,0-0.1,0.1,0,0.1
				c0.1-0.1,0.1-0.2,0.3-0.2c0,0-0.1,0.1-0.1,0.1c0.1,0,0.1,0,0.2-0.1l0,0l0.2-0.1l-0.1,0c0-0.2,0.2-0.2,0.3-0.4
				c-0.1,0.2,0,0.1,0,0.1c0.1,0,0.1-0.1,0.1,0c0-0.1,0.2-0.1,0.2-0.2c0,0,0.1-0.1,0.1,0c0.1-0.1,0,0-0.1,0c0.1-0.2,0.4-0.3,0.5-0.5
				c0.1-0.2,0.1-0.3,0.2-0.5c0.1,0,0,0.1,0,0.1c0.1-0.1,0.1-0.2,0.2-0.3c0,0,0,0,0.1,0c0-0.1,0-0.1,0.1-0.2c0,0,0,0.1,0,0.1
				c0-0.1,0.1-0.2,0.1-0.3c0,0,0,0.1,0,0.1c0.1-0.1,0.1-0.3,0.1-0.4l-0.1,0.1c0,0,0.1,0,0,0c0,0.1-0.1,0.1-0.1,0.1l0-0.1
				c-0.1,0-0.1,0.3-0.2,0.4c0,0,0-0.1,0-0.1c0,0.1,0,0.1,0,0.2c0,0-0.1,0-0.1-0.1c-0.1,0.1,0,0.1-0.1,0.2c0,0,0,0,0,0
				c0,0,0,0.1,0,0.1c0,0-0.1,0,0-0.1c-0.2,0.1-0.2,0.3-0.3,0.3l0,0c-0.2,0.2,0,0.1-0.1,0.3c-0.1,0-0.1,0-0.2,0l0,0.1
				c0,0-0.1,0.1-0.1,0c0,0.1,0,0,0,0.1c-0.1,0.1-0.3,0.3-0.4,0.2c0,0.1,0.1-0.1,0,0.1c-0.1,0-0.1,0.1-0.2,0.2c0-0.1,0.1-0.1,0-0.1
				c0,0.1-0.2,0.1-0.3,0.2c0,0.1-0.2,0.2-0.3,0.3c0,0-0.3,0.2-0.5,0.2l0,0c0,0.1-0.1,0.2-0.2,0.2c0,0,0-0.1,0-0.1L729,690
				c0,0,0,0.1-0.1,0.1l0-0.1c-0.1,0.1-0.2,0.2-0.4,0.3c0,0.1,0.2,0,0,0.2c0,0-0.1-0.1,0-0.1c0,0,0,0.1-0.1,0.1l0.1-0.1
				c-0.1,0,0,0.1-0.1,0.1c0,0-0.1,0-0.1,0c0,0,0.1,0,0.1,0c-0.1,0-0.2,0.1-0.2,0.1c0,0,0,0,0,0.1c-0.1,0.1-0.1,0-0.2,0
				c0,0-0.1,0.1-0.1,0.1c0,0-0.1,0-0.1,0c-0.1,0.1-0.3,0.2-0.2,0.2l0,0c0,0,0,0,0,0l0,0l0,0c-0.2,0.2-0.5,0.2-0.7,0.4l0,0
				c-0.1,0.1-0.3,0.2-0.4,0.2c0,0-0.1,0-0.1,0c-0.1,0.1-0.1,0.1-0.3,0.1c0.1-0.1-0.1,0,0.1-0.1c-0.1,0-0.2,0-0.3,0.2
				c0-0.1-0.1,0-0.2,0l0.1,0c-0.1,0-0.1,0.1-0.2,0.1l0-0.1c-0.3,0.1-0.5,0.4-0.8,0.3c-0.1,0.1,0.2,0,0.1,0c-0.1,0-0.3,0-0.4,0
				c-0.2,0-0.1,0.2-0.3,0.2c0,0,0.1,0.1-0.1,0.1c-0.1,0-0.2,0-0.1-0.1c0,0,0.1,0,0.1,0c0,0,0.1-0.1,0-0.1l0,0c-0.1,0-0.3,0.1-0.2,0
				c-0.1,0.1,0,0.1,0.1,0c-0.2,0-0.3,0.1-0.5,0.2c0,0,0.1,0,0,0c-0.3,0.1-0.1,0.1-0.3,0.2c-0.1,0,0-0.1-0.2,0c-0.1,0,0,0,0-0.1
				c-0.1,0.1-0.3,0.1-0.4,0.1l0.1-0.1c0,0-0.1,0-0.1,0.1l0.1,0c-0.1,0-0.1,0-0.1,0c0,0,0.1,0.1,0,0.1c-0.1,0-0.2,0.1-0.2,0.1
				c0.2-0.1,0-0.1,0.1-0.1c0,0-0.1,0-0.1,0c0,0,0,0,0,0c-0.2,0-0.1,0.1-0.3,0.2c0,0-0.1,0-0.1,0c0.1,0,0.1,0,0,0.1
				c-0.1,0-0.1,0.1-0.2,0.1l0.1,0c0,0-0.1,0.1-0.2,0.1c0,0,0.1-0.1,0,0c-0.1,0.1-0.3,0-0.4,0.1c-0.1,0,0-0.1-0.1-0.1
				c-0.2,0.1-0.2,0-0.4,0.1c0.1,0,0.1,0,0,0.1l0.3-0.1l-0.2,0.1c0.1,0,0.2-0.1,0.2-0.1c-0.1,0.1-0.1,0.1,0,0.1
				c-0.1,0-0.2,0.1-0.4,0.1l0-0.1c-0.2,0-0.3,0.2-0.6,0.2l0.1,0c0,0.1-0.2,0.1-0.2,0.1c0,0-0.1,0-0.1,0c0,0-0.2,0.1-0.2,0.1l-0.1,0
				c-0.2,0.1-0.2,0.2-0.4,0.2c0.1-0.1-0.1-0.1,0.1-0.1c-0.1,0-0.1,0-0.1,0.1c0,0-0.2,0.1-0.3,0.1c0,0,0,0.1-0.1,0.1c0,0,0,0,0,0
				c0,0-0.1,0.1,0,0.1c-0.3-0.1-0.6,0.2-0.8,0.1c-0.2,0.1-0.3,0.1-0.5,0.2c0,0,0,0,0,0c-0.2,0-0.1,0.1-0.3,0.2c-0.1,0,0.1-0.1,0-0.1
				c-0.1-0.1-0.3,0.1-0.4,0.1l0,0c-0.1,0-0.3,0.1-0.5,0.2c0,0,0,0,0,0c-0.1,0.1-0.3,0.2-0.5,0.3c0-0.1,0.1,0,0-0.1
				c-0.1,0,0,0.1-0.1,0.1c-0.1,0-0.2,0-0.2-0.1l0.2,0c-0.1,0-0.2,0.1-0.3,0.1l0,0c-0.2,0.1-0.2,0.1-0.5,0.2l0,0
				c-0.1,0.1-0.1,0-0.2,0.1l-0.1-0.1c-0.1,0-0.3,0.1-0.5,0.2c0.1-0.1,0.3-0.2,0.4-0.2c-0.1,0-0.3,0.1-0.3,0.1c0,0,0.1,0,0.1,0
				c-0.1,0.1-0.2,0.2-0.4,0.2c0-0.2-0.5,0.1-0.6,0c-0.3,0.1-0.6,0.1-1,0.2c0.2,0.1-0.1,0-0.1,0.1c-0.1,0-0.1,0-0.1,0l-0.3,0
				c-0.1,0,0.1,0,0.1-0.1c-0.2,0-0.1,0-0.2,0c0,0-0.1,0.1-0.2,0.1l0.2,0c-0.3,0.1-0.2-0.1-0.5,0.1l0.1-0.1c-0.1,0-0.5,0.1-0.6,0.2
				c0,0-0.1,0,0-0.1c-0.3,0-0.7,0.2-1,0.2l0,0c-0.1,0-0.1,0.1-0.2,0.1c0,0,0,0,0,0c0,0-0.2,0.1-0.2,0.1l0.1,0
				c-0.3,0-0.5,0.1-0.8,0.2c0-0.1-0.3-0.1-0.4-0.1l0,0c-0.4,0-0.6,0.2-1,0.2c-0.2-0.1-0.7,0-1.1,0c0.1,0,0,0.1-0.1,0.1
				c-0.1,0-0.2,0.1-0.2,0l0,0c-0.1-0.1-0.2,0-0.4,0l0,0.1c-0.4-0.1-0.9,0.1-1.1,0c-0.1,0-0.2,0-0.3,0.1l0-0.1c-0.2,0-0.3,0-0.6,0
				l0.1,0c-0.2,0-0.2,0.2-0.3,0.2l0-0.1c-0.3,0-0.6,0-0.8,0c0,0,0,0,0.1,0c-0.1,0-0.5,0-0.5,0.1c0-0.1-0.3,0-0.4,0l0-0.1
				c-0.1,0.1-0.1,0.1-0.3,0.1c0,0,0,0,0,0c-0.1,0-0.1,0.1-0.3,0l0.1,0c-0.1,0-0.1,0-0.2,0.1c-0.1,0-0.3,0-0.3-0.1
				c0,0-0.1,0.1-0.2,0.1c0,0,0,0,0,0c-0.2,0-0.4,0.1-0.5,0c0,0,0,0,0,0c0.2,0,0.3,0,0.3,0c0-0.1-0.2-0.1,0-0.1
				c-0.1,0-0.3,0.1-0.5,0.1c0,0,0,0,0,0l0,0c0,0-0.1,0-0.1,0c0,0-0.1,0-0.1,0c0,0-0.2,0-0.3,0c0,0.1-0.1,0,0,0.1c0,0,0,0,0.1,0
				c0,0,0,0,0,0l0,0c0.1,0,0.1,0,0.2,0c-0.1,0-0.1,0.1-0.2,0c0,0-0.1,0.1-0.1,0.1c-0.1-0.1-0.3-0.1-0.3-0.2c-0.2,0-0.6,0-0.7,0.1
				c-0.1,0-0.1,0-0.1-0.1c0,0,0.1,0,0.1,0c-0.1,0-0.4,0-0.4,0.1c-0.2,0,0.1-0.1-0.1-0.1l0,0c-0.5-0.1-0.8,0.2-1.3,0c0,0,0.1,0,0.1,0
				c-0.6-0.1-1.2,0-1.8-0.2c-0.2,0-0.2,0-0.3,0l0-0.1l-0.2,0.1c-0.2,0-0.4-0.2-0.7-0.1l0,0c-0.1,0-0.3,0-0.3-0.1c0,0,0,0-0.1,0l0,0
				l-0.3,0c-0.2,0,0-0.1-0.3-0.2c-0.1,0-0.3,0.1-0.3,0.1c0,0,0.1,0,0.1,0.1l-0.1,0c0,0.1-0.1,0.2,0.1,0.3l0.2,0l0.1,0.1l-0.1,0
				c0.1,0.1,0.1,0,0.2,0c0,0,0,0,0.1,0.1l0.2-0.1c0,0-0.1,0.1,0,0.1c0.1,0-0.1-0.1,0.1-0.1c0.1,0.1,0.1,0.1,0.2,0.1c0,0,0,0-0.1,0
				c0.1,0,0.2,0,0.3,0c0.1,0.1,0.3,0,0.3,0.1c0,0,0.2-0.1,0.2,0c-0.2,0.1,0.3,0,0.3,0.1c0.1-0.1,0.4,0,0.6,0c0,0,0,0-0.1,0
				c0.1,0,0.1,0,0.2,0.1c0-0.1,0.2-0.1,0.3-0.1c0.1,0.1-0.1,0.1-0.1,0.2c0-0.1,0.2,0,0.2-0.1c0.1,0.1,0.1,0,0.1,0.1
				c0-0.1,0.1,0,0.2-0.1C695.5,697.4,695.3,697.5,695.4,697.5C695.6,697.5,695.4,697.5,695.4,697.5z M699.4,697.5L699.4,697.5
				C699.3,697.5,699.3,697.5,699.4,697.5C699.3,697.5,699.3,697.5,699.4,697.5z M699.7,697.5c0,0-0.1,0-0.1,0c0,0,0,0,0,0
				C699.6,697.4,699.6,697.5,699.7,697.5z M699,697.1C699,697.1,699.1,697.1,699,697.1C699,697.1,699,697.1,699,697.1
				C699,697.1,699,697.1,699,697.1C699,697.1,699,697.1,699,697.1z"/>
			<path fill="#464547" d="M698.9,697.1C698.9,697.1,698.9,697.2,698.9,697.1C698.9,697.2,698.9,697.2,698.9,697.1L698.9,697.1
				C698.9,697.1,698.9,697.1,698.9,697.1z"/>
			<path fill="#464547" d="M727.6,690.9L727.6,690.9C727.6,690.9,727.6,690.9,727.6,690.9C727.6,690.9,727.6,690.9,727.6,690.9z"/>
			<polygon fill="#464547" points="704.2,697.4 704.2,697.4 704.2,697.4 			"/>
			<path fill="#464547" d="M729.2,690.1C729.2,690.1,729.2,690.1,729.2,690.1C729.2,690.1,729.2,690.1,729.2,690.1z"/>
			<path fill="#464547" d="M729.9,689.7l0.1,0C729.9,689.7,729.9,689.7,729.9,689.7z"/>
			<path fill="#464547" d="M730.4,689.3C730.4,689.3,730.4,689.3,730.4,689.3L730.4,689.3L730.4,689.3z"/>
			<path fill="#464547" d="M721.8,693.6C721.8,693.6,721.8,693.6,721.8,693.6C721.8,693.6,721.8,693.6,721.8,693.6z"/>
			<path fill="#464547" d="M724.4,692.4C724.4,692.5,724.4,692.5,724.4,692.4C724.4,692.5,724.4,692.5,724.4,692.4z"/>
			<polygon fill="#464547" points="718.8,694.7 718.8,694.7 718.8,694.7 			"/>
			<path fill="#464547" d="M724.2,692.5c0.1,0,0.1,0,0.1,0C724.3,692.5,724.3,692.5,724.2,692.5z"/>
			<polygon fill="#464547" points="732.1,687.3 732.1,687.3 732.1,687.3 			"/>
			<path fill="#464547" d="M732.1,687.3L732.1,687.3C732.1,687.3,732.1,687.3,732.1,687.3z"/>
			<path fill="#464547" d="M732.1,687.2C732.1,687.2,732.1,687.3,732.1,687.2C732.1,687.3,732.1,687.2,732.1,687.2z"/>
			<path fill="#464547" d="M731.7,688L731.7,688C731.7,688,731.7,688,731.7,688z"/>
			<path fill="#464547" d="M731.5,688.2c0,0,0.1-0.1,0.2-0.2l0,0C731.7,688.1,731.5,688.2,731.5,688.2z"/>
			<path fill="#464547" d="M730.6,688.8c0.1,0,0.1-0.1,0.2-0.1c0,0-0.1,0,0,0C730.5,688.7,730.8,688.6,730.6,688.8z"/>
			<path fill="#464547" d="M730.1,689.2C730.2,689.1,730.1,689.1,730.1,689.2C730.1,689.2,730.1,689.2,730.1,689.2z"/>
			<path fill="#464547" d="M726.3,691.4L726.3,691.4C726.2,691.4,726.3,691.4,726.3,691.4z"/>
			<polygon fill="#464547" points="725.6,692 725.7,692 725.7,692 			"/>
			<polygon fill="#464547" points="725,691.9 725,691.9 724.9,691.9 			"/>
			<path fill="#464547" d="M717.9,694.5L717.9,694.5C717.9,694.5,717.9,694.4,717.9,694.5z"/>
			<path fill="#464547" d="M714.7,695.4c0,0-0.1,0-0.2,0C714.6,695.4,714.7,695.4,714.7,695.4z"/>
			<polygon fill="#464547" points="705,696.8 705.1,696.8 705,696.9 			"/>
		</g>
		<g>
			<path fill="#464547" d="M717,699.6C717,699.6,717,699.5,717,699.6L717,699.6L717,699.6z"/>
			<path fill="#464547" d="M716.9,699.5c0,0,0,0.1,0,0.2C716.9,699.6,716.9,699.6,716.9,699.5C716.9,699.5,716.9,699.6,716.9,699.5
				c0.1,0,0.1,0.1,0.1,0C716.9,699.5,716.9,699.5,716.9,699.5C716.9,699.6,716.9,699.5,716.9,699.5z"/>
			<path fill="#464547" d="M714.8,700L714.8,700C714.8,700,714.8,700,714.8,700z"/>
			<path fill="#464547" d="M713.6,700.3C713.6,700.3,713.6,700.3,713.6,700.3C713.6,700.3,713.6,700.3,713.6,700.3z"/>
			<path fill="#464547" d="M713.4,700.3C713.4,700.3,713.4,700.3,713.4,700.3C713.4,700.3,713.4,700.3,713.4,700.3z"/>
			<path fill="#464547" d="M714.8,700L714.8,700C714.8,700,714.8,700,714.8,700z"/>
			<path fill="#464547" d="M716.6,699.8C716.6,699.8,716.6,699.8,716.6,699.8C716.6,699.7,716.6,699.8,716.6,699.8L716.6,699.8z"/>
			<path fill="#464547" d="M715.4,699.8L715.4,699.8C715.4,699.8,715.4,699.8,715.4,699.8L715.4,699.8z"/>
			<path fill="#464547" d="M715.8,699.7C715.8,699.7,715.8,699.7,715.8,699.7C715.8,699.7,715.8,699.7,715.8,699.7
				C715.8,699.7,715.8,699.7,715.8,699.7z"/>
			<path fill="#464547" d="M716.5,699.6L716.5,699.6C716.5,699.6,716.5,699.6,716.5,699.6z"/>
			<path fill="#464547" d="M715.1,699.9C715.1,699.9,715.1,699.9,715.1,699.9C715.1,699.9,715.1,699.9,715.1,699.9z"/>
			<path fill="#464547" d="M703,701.6C703,701.6,703,701.6,703,701.6C703,701.6,703,701.6,703,701.6z"/>
			<polygon fill="#464547" points="702.6,701.3 702.6,701.3 702.6,701.2 			"/>
			<path fill="#464547" d="M712.9,700.3L712.9,700.3C713,700.3,713,700.3,712.9,700.3z"/>
			<path fill="#464547" d="M709.3,700.9c0,0-0.1,0.1,0,0.1C709.3,701,709.4,700.9,709.3,700.9z"/>
			<path fill="#464547" d="M716.6,699.8C716.6,699.8,716.6,699.8,716.6,699.8C716.6,699.8,716.6,699.8,716.6,699.8z"/>
			<polygon fill="#464547" points="709.3,701 709.3,701 709.4,701 			"/>
			<path fill="#464547" d="M712.1,700.5C712.1,700.5,712.1,700.5,712.1,700.5C712.1,700.5,712.1,700.5,712.1,700.5z"/>
			<path fill="#464547" d="M712.7,700.4L712.7,700.4C712.7,700.4,712.7,700.4,712.7,700.4z"/>
			<path fill="#464547" d="M711.7,700.6C711.7,700.6,711.7,700.6,711.7,700.6C711.7,700.6,711.7,700.6,711.7,700.6
				C711.7,700.6,711.7,700.6,711.7,700.6z"/>
			<polygon fill="#464547" points="711.4,700.7 711.4,700.7 711.4,700.7 			"/>
			<path fill="#464547" d="M704.2,701.6C704.2,701.6,704.2,701.6,704.2,701.6C704.2,701.6,704.1,701.6,704.2,701.6z"/>
			<path fill="#464547" d="M716.6,699.7C716.6,699.7,716.6,699.8,716.6,699.7L716.6,699.7C716.6,699.7,716.6,699.7,716.6,699.7z"/>
			<path fill="#464547" d="M711.8,701.1L711.8,701.1C711.7,701.1,711.8,701.1,711.8,701.1z"/>
			<path fill="#464547" d="M706.9,701.6L706.9,701.6C706.9,701.6,706.9,701.6,706.9,701.6z"/>
			<path fill="#464547" d="M711.5,701.1C711.5,701.1,711.5,701.1,711.5,701.1C711.5,701.1,711.5,701.1,711.5,701.1L711.5,701.1z"/>
			<path fill="#464547" d="M704.2,701.6L704.2,701.6L704.2,701.6z"/>
			<path fill="#464547" d="M703.8,701.7c0.1,0,0-0.1,0-0.1C703.9,701.5,703.8,701.6,703.8,701.7c0.1,0,0.2-0.1,0.2-0.1c0,0,0,0,0,0
				c0-0.1,0.1,0,0.2-0.1c0,0,0,0,0,0c0,0,0-0.1,0-0.1c0,0,0,0,0.1,0c0,0,0,0,0,0l0,0c0,0.1,0,0,0,0.1c0.1,0,0.1-0.1,0.2-0.1
				c0,0.1-0.1,0,0,0.1l-0.1,0c0,0.1,0,0,0,0.1c0.1,0,0.1,0,0.2,0c0,0,0-0.1,0-0.1c0.1-0.1,0.1,0.2,0.2,0.1c0,0,0-0.1,0.1-0.1l0,0.1
				c0.1,0,0-0.1,0.1-0.1c0,0-0.1,0-0.1,0c0.1,0.1,0,0,0.1,0l0,0.1c0.1,0,0.2-0.1,0.3-0.1c0,0,0,0,0,0.1c0.1,0,0.2,0,0.4,0l0-0.1
				c0,0,0,0,0,0c0,0,0,0,0-0.1c0,0,0,0,0,0.1c0.1-0.1,0.2-0.1,0.3,0l0,0c0.1,0,0.1-0.1,0.1-0.1l0,0c0.1,0,0.3,0,0.4,0
				c0-0.1,0.1,0,0.1-0.1c0.1,0.1,0.1,0.1,0.2,0.1c0,0,0-0.1,0.1-0.1l0,0.1l0-0.1l0,0.1l0,0c0,0,0,0,0,0c0.1,0,0.1,0,0.1,0.1l0.1-0.1
				c0,0,0,0,0,0.1c0.1-0.1,0,0.1,0.1,0c0,0,0,0,0,0c0,0,0.1,0,0.2,0l0,0c0.1,0,0.2,0,0.3,0c0,0,0-0.1,0-0.1l0,0.1c0,0,0,0,0-0.1
				c0,0,0,0.1,0,0.1l0,0c0,0,0,0,0,0.1c0,0,0.1,0.1,0.1,0l0,0c0.1,0,0.2,0,0.2,0c0-0.1,0,0,0.1-0.1c0.1,0,0.1,0.1,0.2,0
				c0.1,0,0,0,0-0.1c0,0.1,0.1,0,0,0.1c0.1,0,0.1,0,0.2-0.1c0,0,0,0,0,0c0,0,0,0,0,0l0,0c0.1-0.1,0.3,0.1,0.4,0l0,0l0.1-0.1
				c0,0,0,0,0,0.1c0.1-0.1,0.2,0,0.3-0.1c0.1,0.1,0.3,0,0.4,0l0,0c0,0,0,0,0.1,0c0,0,0,0,0,0c0.2-0.1,0.5,0,0.7,0
				c0.1,0,0-0.2,0.1-0.1l0,0.1c0.2-0.1,0.3,0,0.5-0.1c0,0,0,0,0,0c0,0,0.1,0,0.1-0.1c0,0,0,0,0,0.1c0,0,0.1-0.1,0.1,0c0,0,0,0,0,0
				c0,0,0.1,0,0.1-0.1c0.1,0,0.1,0,0.2,0c0-0.1,0.1,0,0.1-0.1c0,0.1,0.1,0.1,0.1,0c0,0,0,0,0,0.1c0,0,0.1,0,0.1-0.1
				c0.1,0.1,0.1-0.1,0.2,0c0.1-0.1,0.2-0.1,0.3-0.2c0,0.1-0.1,0-0.1,0.1c0.1-0.1,0.2-0.1,0.3-0.1c0,0,0,0,0,0.1
				c0.1-0.1,0.2,0,0.3-0.1c0,0,0,0,0,0c0,0,0,0,0,0l0,0c0-0.1,0.1-0.1,0-0.2c0,0.1,0.1,0,0.1,0.2c0,0,0,0,0-0.1c0,0,0,0,0,0.1
				c0.1,0,0-0.1,0.1-0.1c0,0,0,0,0,0.1c0,0,0-0.1,0.1-0.1c0,0,0,0,0,0c0.1,0,0.1-0.1,0.2-0.1c0,0.1,0,0,0.1,0.1l0,0l0,0
				c0,0,0.1-0.1,0.1-0.1l0,0l0.1,0l-0.1,0c0,0,0-0.1,0-0.1c0,0,0,0,0.1,0l0,0c0,0,0-0.1,0.1,0c0,0,0,0.1,0,0.1c0-0.1,0.1,0,0.1-0.1
				c0,0,0,0.1,0,0.1l0-0.1c0,0,0,0,0,0c0.1,0,0-0.1,0-0.1c0,0,0,0,0,0c0.1,0,0.1-0.1,0.2-0.1c0,0.1-0.1,0,0,0.1
				c0.1,0,0.2-0.1,0.3-0.1l0,0c0-0.1,0.1,0,0.1,0c0,0,0,0.1,0,0c0.1,0,0.1-0.1,0.2-0.1l0,0c0,0,0.1,0,0.2,0c0,0,0,0,0-0.1
				c0.2,0.1,0.2-0.1,0.4-0.1c0,0,0,0,0,0l0.1-0.1c0,0,0,0-0.1-0.1c0,0,0-0.1,0.1-0.1c0,0,0,0.1,0,0.1c0,0,0,0,0,0
				c0.1,0.1,0-0.1,0.1-0.1l0,0c0,0,0-0.1,0.1-0.1c0,0,0,0,0,0.1c0,0,0.1-0.1,0.1-0.1c0,0,0,0,0,0c0.1,0,0.1,0,0.1,0l0,0l0.1,0l0,0
				c0-0.1,0.1-0.1,0.1-0.2c0,0.1,0,0.1,0,0.1c0,0,0.1,0,0.1,0c0-0.1,0.1,0,0.1-0.1c0,0,0,0,0,0c0,0,0,0,0-0.1c0-0.1,0.2,0,0.2-0.1
				c0.1-0.1,0.1-0.1,0.1-0.2c0,0,0,0.1,0,0.1c0,0,0.1,0,0.1,0c0,0,0,0,0,0c0,0,0-0.1,0-0.1c0,0,0,0.1,0,0.1c0,0,0.1-0.1,0.1-0.1
				c0,0,0,0.1,0,0.1c0,0,0.1-0.1,0.1-0.1l0,0c0,0,0,0,0,0.1c0,0.1-0.1,0-0.1,0l0,0c-0.1-0.1-0.1,0.1-0.2,0.1l0-0.1l0,0.1
				c0,0,0-0.1,0-0.1c0,0,0,0-0.1,0c0,0,0,0,0,0l0,0c0,0,0-0.1,0,0c-0.1,0-0.1,0.1-0.1,0l0,0c-0.1,0.1,0,0.1,0,0.2l-0.1-0.1l0,0.1
				c0,0,0,0,0,0c0,0.1,0,0,0,0.1c-0.1,0-0.1,0.1-0.2,0c0,0,0.1,0,0,0.1c0-0.1-0.1,0-0.1,0c0-0.1,0,0,0-0.1c0,0.1-0.1,0-0.1,0
				c0,0.1-0.1,0.1-0.1,0.1c0,0-0.1,0-0.2,0l0,0c0,0.1-0.1,0.1-0.1,0.1c0,0,0-0.1,0-0.1l0,0c0,0,0,0,0,0.1l0-0.1
				c-0.1,0-0.1,0.1-0.2,0.1c0,0.1,0.1,0.1,0,0.2c0,0,0-0.1,0-0.1c0,0,0,0,0,0l0-0.1c0,0,0,0,0,0c0,0,0,0,0-0.1c0,0,0,0,0,0
				c0,0-0.1,0-0.1,0c0,0,0,0.1,0,0.1c-0.1,0,0,0-0.1-0.1c0,0,0,0,0,0.1c0,0,0,0,0,0c0,0-0.1,0-0.1,0.1l0,0l0,0l0,0l0,0
				c-0.1,0.1-0.2,0-0.3,0.1l0,0c0,0-0.1,0-0.1,0.1c0,0,0,0,0-0.1c0,0,0,0-0.1,0c0,0,0,0,0,0c-0.1,0-0.1,0-0.1,0c0-0.1-0.1-0.1-0.1,0
				l0,0c0,0-0.1,0-0.1,0l0-0.1c-0.1-0.1-0.2,0.2-0.3,0.1c0,0.1,0.1,0,0.1,0.1c-0.1,0-0.1-0.1-0.1-0.1c-0.1,0,0,0.1-0.1,0.1
				c0,0,0,0.1,0,0.1c-0.1,0-0.1-0.1-0.1-0.1c0,0,0,0,0,0c0,0,0,0,0,0l0,0c0,0-0.1,0-0.1,0c0,0,0,0,0,0c-0.1,0-0.1,0-0.2,0
				c0,0,0,0,0,0c-0.1,0,0,0.1-0.1,0.1c0,0,0-0.1-0.1,0c0,0,0-0.1,0-0.1c0,0.1-0.1,0-0.2,0l0,0c0,0,0,0,0,0l0,0c0,0,0,0,0,0
				c0,0,0,0.1,0,0.1c0,0-0.1,0-0.1,0c0.1,0,0-0.1,0-0.1c0,0,0,0,0,0c0,0,0,0,0,0c-0.1,0,0,0.1-0.1,0.1c0,0,0-0.1,0-0.1
				c0,0,0,0.1,0,0.1c-0.1,0,0,0-0.1,0l0,0c0,0,0,0-0.1,0.1c0,0,0,0,0,0c0,0.1-0.1,0-0.1,0c0,0,0-0.1,0-0.1c0,0.1-0.1,0-0.1,0
				c0,0,0,0,0,0.1l0.1-0.1l-0.1,0.1c0,0,0.1,0,0.1,0c0,0,0,0,0,0.1c-0.1-0.1-0.1,0.1-0.1,0l0-0.1c-0.1,0-0.1,0.1-0.2,0.1l0,0
				c0,0-0.1,0-0.1,0c0,0,0,0,0-0.1c0,0-0.1,0-0.1,0.1l-0.1,0c-0.1,0-0.1,0.1-0.1,0.1c0,0,0-0.1,0-0.1c0,0,0,0,0,0c0,0-0.1,0.1-0.1,0
				c0,0,0,0.1,0,0.1c0,0,0,0,0,0c0,0,0,0,0,0.1c-0.1-0.1-0.2,0-0.3-0.1c-0.1,0-0.1,0-0.2,0.1c0,0,0,0,0,0c-0.1,0,0,0.1-0.1,0.1
				c0-0.1,0,0,0-0.1c0-0.1-0.1,0-0.2,0l0,0c0,0-0.1,0.1-0.2,0.1c0,0,0,0,0,0c0,0.1-0.1,0.1-0.2,0.1c0-0.1,0,0,0-0.1c0,0,0,0.1,0,0.1
				c0,0-0.1,0-0.1-0.1l0.1,0c0-0.1-0.1,0-0.1,0l0,0c-0.1,0-0.1,0.1-0.2,0.1l0,0c0,0.1,0,0-0.1,0l0-0.1c0,0-0.1,0.1-0.2,0.1
				c0-0.1,0.1-0.1,0.1-0.1c0,0-0.1,0-0.1,0.1c0,0,0,0,0,0c0,0.1-0.1,0.1-0.1,0.1c0-0.2-0.2,0-0.2-0.1c-0.1,0.1-0.2,0-0.3,0
				c0.1,0.1,0,0,0,0.1c0,0,0,0,0,0l-0.1-0.1c0,0,0,0,0-0.1c-0.1,0,0,0-0.1-0.1c0,0,0,0.1-0.1,0.1l0.1,0.1c-0.1,0.1-0.1-0.1-0.2,0
				l0,0c0,0-0.2,0-0.2,0.1c0,0,0,0,0-0.1c-0.1,0-0.2,0.1-0.3,0.1l0,0c0,0,0,0.1-0.1,0c0,0,0,0,0,0c0,0-0.1,0.1-0.1,0l0,0
				c-0.1,0-0.2,0.1-0.3,0.1c0-0.1-0.1-0.1-0.1-0.1l0,0c-0.1,0-0.2,0.1-0.3,0.1c-0.1-0.1-0.3,0-0.4-0.1c0,0,0,0.1,0,0.1
				c0,0-0.1,0.1-0.1,0l0,0c0-0.1-0.1-0.1-0.1-0.1l0,0.1c-0.1-0.1-0.3,0.1-0.4-0.1c0,0-0.1,0-0.1,0.1l0-0.1c-0.1,0-0.1,0-0.2,0l0,0
				c-0.1,0-0.1,0.2-0.1,0.2l0-0.1c-0.1,0-0.2-0.1-0.3,0c0,0,0,0,0,0c0,0-0.2-0.1-0.2,0.1c0-0.1-0.1,0-0.1,0l0-0.1
				c0,0.1,0,0.1-0.1,0.1c0,0,0,0,0,0c0,0,0,0.1-0.1,0l0,0c0,0,0,0-0.1,0.1c0,0-0.1,0-0.1-0.1c0,0,0,0.1-0.1,0.1c0,0,0,0,0,0
				c-0.1,0-0.1,0.1-0.2,0c0,0,0,0,0,0c0.1,0,0.1,0,0.1,0c0-0.1-0.1-0.1,0-0.1c0,0-0.1,0.1-0.2,0.1c0,0,0,0,0,0l0,0c0,0,0,0,0,0
				c0,0,0,0,0,0c0,0-0.1,0-0.1,0c0,0.1,0,0,0,0.1c0,0,0,0,0,0c0,0,0,0,0,0l0,0c0,0,0,0,0.1,0c0,0,0,0.1-0.1,0c0,0,0,0.1,0,0.1
				c0-0.1-0.1-0.1-0.1-0.2c-0.1,0-0.2,0-0.2,0.1c0,0,0,0,0,0c0,0,0,0,0,0c0,0-0.1,0-0.1,0.1c-0.1,0,0-0.1,0-0.1l0,0
				c-0.2-0.1-0.3,0.2-0.4,0c0,0,0,0,0,0c-0.2-0.1-0.4,0.1-0.6-0.1c-0.1,0-0.1,0-0.1,0.1l0-0.1l-0.1,0.1c-0.1,0-0.1-0.2-0.2-0.1l0,0
				c0,0-0.1,0-0.1,0c0,0,0,0,0,0l0,0l-0.1,0c-0.1,0,0-0.1-0.1-0.1c0,0-0.1,0.1-0.1,0.1c0,0,0,0,0,0.1l0,0c0,0.1,0,0.2,0,0.3l0.1-0.1
				l0,0l-0.1,0c0,0,0,0,0.1,0c0,0,0,0,0,0.1l0.1-0.1c0,0,0,0.1,0,0.1c0,0,0-0.1,0-0.1c0,0,0,0.1,0.1,0c0,0,0,0,0,0
				c0,0,0.1,0,0.1-0.1c0,0.1,0.1,0,0.1,0.1c0,0,0.1-0.1,0.1-0.1c-0.1,0.1,0.1,0,0.1,0.1c0-0.1,0.1,0,0.2-0.1c0,0,0,0,0,0
				c0,0,0,0,0.1,0.1c0-0.1,0.1-0.1,0.1-0.1c0,0.1,0,0.1,0,0.2c0-0.1,0.1-0.1,0.1-0.1c0,0,0,0,0,0.1c0-0.1,0,0,0.1-0.1
				C703.8,701.6,703.7,701.6,703.8,701.7C703.8,701.6,703.8,701.7,703.8,701.7z M705.1,701.5L705.1,701.5
				C705.1,701.5,705.1,701.5,705.1,701.5C705.1,701.5,705.1,701.5,705.1,701.5z M705.2,701.5C705.2,701.5,705.2,701.5,705.2,701.5
				C705.2,701.5,705.2,701.5,705.2,701.5C705.2,701.5,705.2,701.5,705.2,701.5z M705,701.1C705,701.1,705,701.1,705,701.1
				C705,701.2,705,701.2,705,701.1L705,701.1C705,701.2,705,701.1,705,701.1z"/>
			<path fill="#464547" d="M704.9,701.2C704.9,701.2,704.9,701.2,704.9,701.2C704.9,701.2,704.9,701.2,704.9,701.2L704.9,701.2
				L704.9,701.2z"/>
			<polygon fill="#464547" points="714.9,700 714.9,700 714.9,700 			"/>
			<polygon fill="#464547" points="706.8,701.6 706.8,701.6 706.7,701.6 			"/>
			<path fill="#464547" d="M715.5,700C715.5,700,715.5,700.1,715.5,700C715.5,700.1,715.5,700,715.5,700z"/>
			<path fill="#464547" d="M715.8,700L715.8,700C715.8,700,715.8,700,715.8,700z"/>
			<path fill="#464547" d="M716,700C716,699.9,716,699.9,716,700L716,700L716,700z"/>
			<path fill="#464547" d="M712.8,700.8C712.8,700.8,712.8,700.8,712.8,700.8C712.8,700.8,712.8,700.8,712.8,700.8z"/>
			<path fill="#464547" d="M713.7,700.5C713.7,700.5,713.7,700.5,713.7,700.5C713.7,700.5,713.8,700.5,713.7,700.5z"/>
			<polygon fill="#464547" points="711.8,701.1 711.8,701.1 711.8,701.1 			"/>
			<path fill="#464547" d="M713.7,700.5C713.7,700.5,713.7,700.5,713.7,700.5C713.7,700.5,713.7,700.5,713.7,700.5z"/>
			<polygon fill="#464547" points="716.8,699.7 716.8,699.7 716.8,699.7 			"/>
			<path fill="#464547" d="M716.8,699.7L716.8,699.7C716.8,699.7,716.8,699.7,716.8,699.7z"/>
			<path fill="#464547" d="M716.8,699.7L716.8,699.7C716.8,699.7,716.8,699.7,716.8,699.7z"/>
			<path fill="#464547" d="M716.5,699.8L716.5,699.8C716.5,699.8,716.5,699.8,716.5,699.8z"/>
			<path fill="#464547" d="M716.5,699.8C716.5,699.8,716.5,699.8,716.5,699.8L716.5,699.8C716.5,699.8,716.5,699.8,716.5,699.8z"/>
			<path fill="#464547" d="M716.1,699.7L716.1,699.7C716.1,699.6,716.1,699.6,716.1,699.7C716,699.6,716.2,699.6,716.1,699.7z"/>
			<path fill="#464547" d="M715.9,699.7C715.9,699.7,715.8,699.7,715.9,699.7C715.8,699.7,715.8,699.7,715.9,699.7z"/>
			<path fill="#464547" d="M714.4,700.1L714.4,700.1C714.3,700.1,714.4,700.1,714.4,700.1z"/>
			<polygon fill="#464547" points="714.2,700.4 714.2,700.4 714.2,700.4 			"/>
			<polygon fill="#464547" points="713.9,700.1 713.9,700.1 713.9,700.1 			"/>
			<path fill="#464547" d="M711.4,700.6L711.4,700.6C711.4,700.7,711.4,700.6,711.4,700.6z"/>
			<path fill="#464547" d="M710.3,700.9C710.3,700.8,710.3,700.8,710.3,700.9C710.3,700.9,710.3,700.9,710.3,700.9z"/>
			<polygon fill="#464547" points="707,701.1 707,701.1 707,701.1 			"/>
		</g>
		<path fill="#464547" d="M699.2,719.3l-14.9,0.2l0-0.7c-0.1-3.6,2.8-6.5,6.4-6.6l8.5-0.1L699.2,719.3z"/>
		<path fill="#464547" d="M737.1,718.7l-16.9,0.3l0-0.7c-0.1-3.6,2.8-6.5,6.4-6.6l10.4-0.2L737.1,718.7z"/>
		<path fill="#48484A" d="M726.6,671.6l-40,2.6c-6.3,0.4-11.8-4.4-12.2-10.7l-0.2-3.6c-0.8-11.8,8.2-22,20-22.7l20.1-1.3
			c11.8-0.8,22,8.2,22.8,20l0.2,3.6C737.7,665.7,732.9,671.1,726.6,671.6z"/>
		<path fill="#58595B" d="M680.5,609.3l0.1-1.1c7.2,0.9,10.7,5.6,12.3,9.3c1.7,4,1.8,7.7,1.8,7.9l-1.1,0c0,0,0-3.7-1.7-7.5
			C689.7,612.9,685.9,610,680.5,609.3z"/>
		<circle fill="#58595B" cx="680.2" cy="608.9" r="1.6"/>
		<path fill="#58595B" d="M715.4,625.2c0,0,0.9-3.5,3.6-6.6c3.6-4.1,8.5-5.8,14.5-4.9l0.2-1.2c-8.1-1.2-13,2.2-15.6,5.3
			c-2.9,3.3-3.8,6.9-3.9,7.1L715.4,625.2z"/>
		<circle fill="#58595B" cx="734.4" cy="613" r="1.8"/>
		<path fill="#6B6C6F" d="M722.6,659c9.1,0.8,15.6-9.2,11.5-17.7c-5.1-10.5-15.1-18-27.2-19c-12.1-1-23.2,4.8-29.9,14.3
			c-5.5,7.7-0.7,18.6,8.4,19.4L722.6,659z"/>
		
			<ellipse transform="matrix(0.9966 8.245566e-002 -8.245566e-002 0.9966 54.5013 -54.6299)" fill="#FFFFFF" cx="688.7" cy="632.5" rx="7.1" ry="7.1"/>
		
			<ellipse transform="matrix(0.9966 8.245566e-002 -8.245566e-002 0.9966 54.5342 -54.61)" fill="#282829" cx="688.4" cy="632.9" rx="5" ry="5"/>
		<path fill="#464547" d="M696.5,639.5c0.5,0,0.9,0.1,1.3,0.1c0.2,0.1,0.3,0.2,0.5,0.3l0.5,0.2c0.7,0.3,1.4,0.4,2.1,0.5
			c0.7,0.1,1.5,0,2.2-0.1c0.4-0.1,0.7-0.2,1-0.3c0.2,0,0.4,0,0.6,0.1c0.2,0,0.4,0,0.7,0.1c-0.2,0.4-0.5,0.8-0.8,1.1
			c-0.4,0.1-0.8,0.3-1.2,0.4c-0.8,0.2-1.7,0.2-2.6,0.2c-0.9-0.1-1.7-0.3-2.5-0.6l-0.6-0.3c-0.2-0.1-0.4-0.2-0.6-0.3
			C696.9,640.4,696.7,640,696.5,639.5z"/>
		<path fill="#464547" d="M705.6,638.2c0.2,0.3,0.3,0.5,0.5,0.7c0,0.1-0.1,0.3-0.1,0.4c0,0.3,0,0.5,0.2,0.8c0.1,0.2,0.3,0.4,0.5,0.6
			c0.1,0.1,0.2,0.2,0.4,0.3c0,0.2,0.1,0.5,0.1,0.8c-0.3,0.2-0.5,0.2-0.8,0.3c-0.2-0.1-0.4-0.2-0.5-0.4c-0.3-0.3-0.6-0.6-0.9-1.1
			c-0.2-0.4-0.3-0.9-0.3-1.4c0-0.1,0-0.2,0-0.3c0-0.1,0-0.2,0.1-0.3C705.1,638.4,705.3,638.3,705.6,638.2z"/>
		<path fill="#464547" d="M698.9,634.4c-0.1,0.2-0.2,0.4-0.3,0.6c-0.1,0.2-0.2,0.4-0.2,0.5c-0.1,0.2,0,0.4-0.2,0.5
			c-0.1,0.1-0.2,0.1-0.3,0.1c-0.1,0-0.3,0.1-0.5,0.1l-0.1,0c-0.1-0.2-0.2-0.3-0.3-0.5c0-0.1-0.1-0.3,0-0.4c0-0.1,0.1-0.2,0.2-0.3
			l0.3-0.2c0.1-0.1,0.2-0.1,0.3-0.2c0.1-0.1,0.2-0.1,0.3-0.2c0.2-0.1,0.5-0.2,0.7-0.2L698.9,634.4z"/>
		<path fill="#464547" d="M700.8,634.7c0.2,0,0.4,0.1,0.6,0.2c0.2,0.1,0.4,0.2,0.6,0.4c0.2,0.2,0.4,0.3,0.4,0.5c0,0.1,0,0.2-0.1,0.4
			c-0.1,0.1-0.2,0.3-0.3,0.4l-0.1,0c-0.2,0-0.3-0.1-0.5-0.2c-0.1,0-0.2-0.1-0.3-0.2c-0.1-0.1-0.1-0.1-0.1-0.2c0-0.1,0-0.2,0-0.3
			c0-0.1,0-0.2-0.1-0.2c0-0.1,0-0.2-0.1-0.3c-0.1-0.2-0.1-0.4-0.2-0.5L700.8,634.7z"/>
		<path fill="#464547" d="M695.7,633.1c0.3-3.9-2.6-7.3-6.5-7.7c-3.9-0.3-7.3,2.6-7.7,6.5L695.7,633.1z"/>
		
			<ellipse transform="matrix(0.9966 8.245566e-002 -8.245566e-002 0.9966 54.8226 -56.9278)" fill="#FFFFFF" cx="716.6" cy="635.3" rx="7.5" ry="7.5"/>
		
			<ellipse transform="matrix(0.9966 8.245566e-002 -8.245566e-002 0.9966 54.8906 -56.9194)" fill="#282829" cx="716.6" cy="636.1" rx="5" ry="5"/>
		<path fill="#464547" d="M724.1,635.9c0.3-4.1-2.7-7.8-6.9-8.1s-7.8,2.7-8.1,6.9L724.1,635.9z"/>
		<g>
			<circle fill="#464547" cx="726.5" cy="642.4" r="0.8"/>
			<circle fill="#464547" cx="727.7" cy="644.4" r="0.8"/>
			<circle fill="#464547" cx="725.6" cy="644.7" r="0.8"/>
		</g>
		<g>
			<circle fill="#464547" cx="679.9" cy="638.3" r="0.8"/>
			<circle fill="#464547" cx="681.1" cy="640.2" r="0.8"/>
			<circle fill="#464547" cx="679" cy="640.6" r="0.8"/>
		</g>
		<g>
			<path fill="#6B6C6F" d="M695.8,671.7C695.8,671.7,695.8,671.7,695.8,671.7C695.8,671.7,695.7,671.7,695.8,671.7z"/>
			<polygon fill="#6B6C6F" points="695.5,671.4 695.6,671.4 695.5,671.4 			"/>
			<path fill="#6B6C6F" d="M695.5,671.1c-0.1,0.1,0,0.1,0,0.2l0,0l0.1,0C695.5,671.2,695.4,671.1,695.5,671.1z"/>
			<path fill="#6B6C6F" d="M695.7,670.8C695.7,670.9,695.7,670.8,695.7,670.8C695.7,670.9,695.7,670.9,695.7,670.8
				C695.7,670.9,695.7,670.8,695.7,670.8z"/>
			<path fill="#6B6C6F" d="M695.8,670.9C695.8,670.9,695.8,670.8,695.8,670.9L695.8,670.9z"/>
			<path fill="#6B6C6F" d="M695.7,670.7L695.7,670.7c0.1,0,0.1,0,0.1,0C695.8,670.7,695.7,670.7,695.7,670.7z"/>
			<path fill="#6B6C6F" d="M695.6,670.7L695.6,670.7C695.6,670.7,695.6,670.7,695.6,670.7z"/>
			<path fill="#6B6C6F" d="M695.7,670.8L695.7,670.8C695.6,670.7,695.5,670.7,695.7,670.8C695.6,670.7,695.6,670.7,695.7,670.8z"/>
			<path fill="#6B6C6F" d="M695.6,670.8C695.6,670.8,695.6,670.9,695.6,670.8C695.6,670.9,695.7,670.9,695.6,670.8z"/>
			<path fill="#6B6C6F" d="M695.3,671.1L695.3,671.1L695.3,671.1C695.3,671.2,695.4,671.1,695.3,671.1z"/>
			<path fill="#6B6C6F" d="M695.7,670.4c0,0-0.1,0-0.1,0.1L695.7,670.4C695.7,670.5,695.7,670.4,695.7,670.4z"/>
			<path fill="#6B6C6F" d="M695.6,670.5L695.6,670.5C695.6,670.5,695.6,670.5,695.6,670.5z"/>
			<polygon fill="#6B6C6F" points="695.4,670.7 695.6,670.8 695.4,670.7 			"/>
			<polygon fill="#6B6C6F" points="695.7,670.2 695.8,670.2 695.7,670.2 			"/>
			<path fill="#6B6C6F" d="M695.7,670.1c0.1,0,0.1-0.1,0.1,0c0,0-0.1,0-0.1-0.1C695.7,670,695.7,670.1,695.7,670.1z"/>
			<path fill="#6B6C6F" d="M695.6,670C695.6,670,695.7,670,695.6,670C695.7,670,695.7,670,695.6,670z"/>
			<path fill="#6B6C6F" d="M695.6,670.3C695.6,670.3,695.6,670.3,695.6,670.3L695.6,670.3C695.6,670.3,695.6,670.3,695.6,670.3z"/>
			<path fill="#6B6C6F" d="M695.6,670.3L695.6,670.3C695.6,670.3,695.6,670.3,695.6,670.3C695.6,670.3,695.6,670.3,695.6,670.3z"/>
			<path fill="#6B6C6F" d="M695.6,670.3L695.6,670.3C695.5,670.3,695.5,670.4,695.6,670.3z"/>
			<path fill="#6B6C6F" d="M695.5,670.6c-0.1,0-0.1-0.1-0.2,0C695.4,670.6,695.4,670.6,695.5,670.6z"/>
			<path fill="#6B6C6F" d="M695.5,670.4L695.5,670.4C695.5,670.5,695.5,670.4,695.5,670.4L695.5,670.4z"/>
			<polygon fill="#6B6C6F" points="695.4,670.4 695.5,670.4 695.5,670.4 			"/>
			<path fill="#6B6C6F" d="M695.6,670.1C695.5,670.1,695.5,670.1,695.6,670.1C695.5,670.1,695.5,670.1,695.6,670.1
				C695.5,670.1,695.6,670.1,695.6,670.1z"/>
			<path fill="#6B6C6F" d="M695.5,670.2L695.5,670.2C695.5,670.2,695.5,670.2,695.5,670.2z"/>
			<polygon fill="#6B6C6F" points="695.5,669.8 695.4,669.8 695.5,669.8 			"/>
			<path fill="#6B6C6F" d="M695.5,670.1C695.5,670.2,695.5,670.2,695.5,670.1C695.5,670.2,695.5,670.1,695.5,670.1
				C695.5,670.1,695.5,670.1,695.5,670.1z"/>
			<path fill="#6B6C6F" d="M695.6,669.9C695.6,669.9,695.5,669.9,695.6,669.9C695.6,669.9,695.6,669.9,695.6,669.9z"/>
			<path fill="#6B6C6F" d="M695.6,670.2L695.6,670.2C695.6,670.2,695.6,670.2,695.6,670.2z"/>
			<path fill="#6B6C6F" d="M695.6,670.2C695.5,670.2,695.5,670.2,695.6,670.2C695.5,670.2,695.5,670.2,695.6,670.2
				C695.5,670.2,695.6,670.2,695.6,670.2z"/>
			<path fill="#6B6C6F" d="M694.9,669.8C695,669.8,695.1,669.8,694.9,669.8c0.1,0.1,0.4,0,0.5-0.1c0,0-0.1,0-0.1,0
				c0,0-0.1,0.1-0.2,0.1c0-0.1,0-0.1,0.1-0.1C695.1,669.8,695.1,669.7,694.9,669.8L694.9,669.8C695,669.8,694.9,669.8,694.9,669.8z"
				/>
			<path fill="#6B6C6F" d="M695.4,669.9L695.4,669.9c0,0,0.1,0,0.1-0.1c0,0-0.1,0-0.1,0L695.4,669.9L695.4,669.9z"/>
			<path fill="#6B6C6F" d="M695.5,670c-0.1,0-0.1,0-0.2,0C695.3,670.1,695.3,670,695.5,670C695.3,670,695.4,670.1,695.5,670
				C695.5,670,695.5,670,695.5,670C695.5,670,695.5,670,695.5,670L695.5,670L695.5,670L695.5,670C695.5,670,695.5,670,695.5,670
				L695.5,670C695.5,670,695.5,670,695.5,670C695.5,669.9,695.5,670,695.5,670L695.5,670L695.5,670L695.5,670
				C695.5,669.9,695.5,669.9,695.5,670z"/>
			<path fill="#6B6C6F" d="M695.1,670.6C695.1,670.6,695.1,670.6,695.1,670.6C695.1,670.6,695.1,670.6,695.1,670.6z"/>
			<path fill="#6B6C6F" d="M695.2,670.5C695.2,670.5,695.2,670.5,695.2,670.5C695.2,670.6,695.2,670.6,695.2,670.5
				C695.2,670.6,695.2,670.6,695.2,670.5L695.2,670.5c0.1,0,0.2-0.1,0.2-0.1C695.3,670.5,695.2,670.5,695.2,670.5z"/>
			<path fill="#6B6C6F" d="M695.3,670.3L695.3,670.3l-0.1,0L695.3,670.3C695.2,670.3,695.3,670.3,695.3,670.3z"/>
			<polygon fill="#6B6C6F" points="695.5,669.7 695.6,669.7 695.5,669.7 			"/>
			<polygon fill="#6B6C6F" points="695.5,669.6 695.6,669.6 695.5,669.6 			"/>
			<path fill="#6B6C6F" d="M693.8,663.6L693.8,663.6C693.8,663.6,693.8,663.6,693.8,663.6z"/>
			<path fill="#6B6C6F" d="M693.8,663.8L693.8,663.8C693.8,663.8,693.8,663.8,693.8,663.8z"/>
			<path fill="#6B6C6F" d="M695.1,666.9C695.2,666.9,695.3,666.8,695.1,666.9L695.1,666.9C695.2,666.9,695.1,666.9,695.1,666.9z"/>
			<path fill="#6B6C6F" d="M694.4,665.2C694.4,665.2,694.4,665.2,694.4,665.2C694.4,665.2,694.5,665.2,694.4,665.2
				C694.5,665.2,694.4,665.2,694.4,665.2z"/>
			<path fill="#6B6C6F" d="M694.1,665.2L694.1,665.2C694.1,665.2,694.1,665.2,694.1,665.2z"/>
			<path fill="#6B6C6F" d="M693.6,662.6L693.6,662.6C693.6,662.6,693.6,662.6,693.6,662.6z"/>
			<path fill="#6B6C6F" d="M695.3,668.5C695.3,668.5,695.3,668.4,695.3,668.5C695.3,668.5,695.2,668.5,695.3,668.5z"/>
			<path fill="#6B6C6F" d="M694.7,663.5C694.7,663.5,694.7,663.5,694.7,663.5C694.7,663.5,694.7,663.5,694.7,663.5z"/>
			<path fill="#6B6C6F" d="M695.3,668.3C695.3,668.3,695.3,668.3,695.3,668.3C695.3,668.4,695.3,668.4,695.3,668.3
				C695.4,668.4,695.4,668.4,695.3,668.3z"/>
			<path fill="#6B6C6F" d="M693.5,659C693.5,659,693.5,659,693.5,659C693.5,659,693.5,659,693.5,659z"/>
			<path fill="#6B6C6F" d="M694.3,657.8C694.3,657.8,694.3,657.9,694.3,657.8C694.3,657.9,694.3,657.8,694.3,657.8z"/>
			<path fill="#6B6C6F" d="M695.5,669.2C695.5,669.2,695.5,669.2,695.5,669.2L695.5,669.2z"/>
			<path fill="#6B6C6F" d="M695.1,669.4C695.1,669.4,695.1,669.4,695.1,669.4C695.1,669.4,695.1,669.4,695.1,669.4z"/>
			<path fill="#6B6C6F" d="M694.8,668.2L694.8,668.2C694.7,668.2,694.7,668.2,694.8,668.2z"/>
			<path fill="#6B6C6F" d="M695.4,669.2C695.4,669.2,695.4,669.2,695.4,669.2C695.4,669.2,695.4,669.2,695.4,669.2z"/>
			<path fill="#6B6C6F" d="M695.5,669.2C695.5,669.2,695.5,669.2,695.5,669.2C695.5,669.2,695.5,669.2,695.5,669.2z"/>
			<path fill="#6B6C6F" d="M695.4,669.1C695.4,669.2,695.4,669.2,695.4,669.1C695.4,669.2,695.4,669.2,695.4,669.1
				C695.4,669.2,695.4,669.2,695.4,669.1z"/>
			<path fill="#6B6C6F" d="M693.8,660.9C693.8,660.9,693.8,660.9,693.8,660.9C693.8,660.9,693.8,660.9,693.8,660.9z"/>
			<polygon fill="#6B6C6F" points="694.2,666.5 694.2,666.5 694.2,666.5 			"/>
			<path fill="#6B6C6F" d="M694.1,666.5C694.2,666.5,694.2,666.5,694.1,666.5l0.3,0L694.1,666.5z"/>
			<path fill="#6B6C6F" d="M693.8,663.2L693.8,663.2c-0.2,0-0.2,0-0.3,0c0.3,0,0,0.2,0.3,0.2l-0.1,0c0,0,0,0,0,0
				c-0.1,0.1,0.2,0,0.2,0.1c0,0-0.1,0.1-0.1,0.1l0.1,0.1c0,0-0.1,0,0,0l0,0.1l0,0c0,0,0.1,0,0.1,0c0,0,0,0-0.1,0l0.1,0.1
				c-0.1,0-0.1,0-0.1,0c-0.3,0.1,0.1,0-0.1,0.2l0-0.1c-0.1,0.1-0.1,0.1-0.2,0.2c0,0,0.2-0.2,0.3-0.1c0,0,0,0.1,0,0.1
				c-0.1,0-0.1,0.1-0.1,0.1l-0.1,0c0,0,0.1,0,0.2,0c0,0.1-0.1,0.1-0.2,0.1c0,0.1,0.2-0.1,0.2,0c0,0.1,0,0.1,0.1,0.2
				c0,0.1-0.1,0-0.1,0l0.1,0c0,0,0,0,0,0c0,0,0.1,0,0.2,0c0.1,0-0.2,0.2,0,0.2c0,0-0.1,0-0.1,0c0.1,0.1,0.1,0.1,0.2,0.1l-0.1,0.1
				c0.1-0.1,0.2,0,0.3,0c0,0,0.1-0.1,0.1-0.1l0.1,0.1c0,0-0.1,0-0.1,0c0,0,0,0,0,0c0,0-0.1,0-0.2,0c0,0,0,0,0.1,0
				c-0.1,0-0.2,0-0.2,0c0,0,0,0,0,0c0,0,0,0-0.1,0c0,0,0,0,0,0l-0.1,0l0.1,0l-0.1,0.1c0.2,0.1,0.4,0.1,0.4,0.2c-0.1,0-0.2,0-0.3,0
				c0.1-0.1-0.1-0.1,0-0.2c0,0-0.1,0-0.1,0l0.1,0.1c-0.1,0-0.1,0-0.1,0.1c0.2-0.1,0.1,0.1,0.2,0.1c-0.1,0-0.1,0-0.1,0
				c-0.1,0.1,0.2,0,0.1,0.1c0,0,0,0,0,0c0.1,0,0,0.1,0,0.1l0,0c0,0.1,0,0.3,0.2,0.3c0,0-0.2,0-0.2,0l0.6,0.1c-0.1,0-0.5,0.2-0.6,0.1
				c0,0,0,0.1,0,0.1c0,0,0.2-0.1,0.2-0.1c-0.2,0.1-0.1,0.1-0.2,0.2c0,0,0.3-0.1,0.3,0c0,0-0.2,0.1-0.2,0l0.2,0.1c0,0-0.2,0-0.2,0.1
				c0,0,0,0.1,0,0.1l0-0.1c0,0.1,0.3,0,0.3,0.2c0,0-0.3,0-0.3,0.1c0.1,0,0.6,0,0.7,0.1l-0.1,0l0.1,0.1c-0.2,0-0.6-0.1-0.7-0.1
				c0,0.1-0.1,0-0.1,0.1c-0.1,0-0.1,0-0.1,0l0,0.2c0.1,0,0.1,0.1,0.3,0.1l-0.2-0.1c0.1,0,0.4,0,0.4,0.1c0,0-0.2,0-0.3,0
				c0,0,0.1,0.1,0.1,0.1l-0.1,0c0,0.1,0.2,0.1,0.1,0.2c0,0-0.2,0.1-0.1,0.1c0.1-0.1,0.6-0.2,0.7-0.2c0,0-0.1,0.2-0.2,0.2
				c-0.1,0.1-0.3,0-0.4,0.1c0,0,0.1,0,0.1,0c0,0-0.1,0-0.1,0.1c0.1,0,0,0.1,0.1,0c0,0,0,0.1,0,0.1c0.1,0,0.3,0,0.3,0
				c0,0-0.1,0-0.1,0c0,0.1-0.1,0.2,0,0.3c0,0-0.1,0.1-0.1,0.1c0,0,0.1,0,0.1,0c-0.1,0.1,0-0.1-0.2,0c0.1,0,0.1,0.1,0.2,0.1
				c0.1,0,0-0.1,0-0.1c0.2,0,0.4,0,0.4,0.1c0.1,0.1-0.1,0.1-0.1,0.1c0,0.2,0.3,0.1,0.2,0.2c-0.1,0.1-0.2,0.1-0.3,0.1
				c0-0.1,0.1-0.1,0-0.2l0,0.1c0,0-0.1-0.1,0-0.1c-0.1,0.1,0,0.3-0.1,0.4c0,0,0.1,0,0.1,0l0,0c0.1-0.1,0.1,0,0.2,0
				c0.1,0,0.2,0.1,0.1,0.2l-0.1,0c0,0,0.1-0.1,0-0.1c0.1,0-0.1,0.2,0,0.1l0.1-0.1c0.1,0,0.2,0.1,0.2,0.1c0.1-0.1,0,0,0.1-0.1
				c-0.2,0.1,0-0.2-0.2-0.1c0.2-0.1,0.1-0.1,0.2-0.2c0,0-0.1,0-0.1,0c0,0,0,0,0,0l0,0l0,0c0,0,0,0,0,0c0,0,0,0-0.1,0
				c-0.1,0-0.1-0.1-0.2-0.1c0,0,0,0,0.1,0l-0.1,0c0.1,0,0.1-0.1,0.2-0.1l0-0.1c0-0.1,0.1-0.1,0-0.1c0,0-0.1-0.1,0,0l-0.1-0.1l0,0
				c0-0.1-0.2-0.2,0-0.3c0,0-0.1-0.1,0-0.1l0.1,0c0,0,0.1-0.2,0-0.2c0.2-0.1,0-0.2,0-0.3l-0.1,0c0-0.1,0-0.1-0.1-0.2l-0.1,0
				c-0.1,0,0-0.2,0-0.3c0,0,0,0,0,0c0.2-0.2-0.2-0.2,0-0.3c0,0,0,0,0-0.1c0,0,0,0,0,0c0,0,0,0,0,0c0,0,0,0,0,0c0,0,0,0,0,0
				c0,0,0,0,0-0.1l0.1,0c0,0,0,0,0,0c0,0,0,0-0.1,0c0,0,0,0-0.1,0c0.2-0.1-0.1-0.1,0.1-0.1c-0.1,0-0.1-0.1-0.2-0.1c0,0,0,0,0,0
				c0,0,0-0.1,0-0.1l0.1,0l-0.2,0c0.1-0.1,0.1-0.1,0.2-0.1c-0.2-0.1-0.1-0.1-0.2-0.1l0.1,0c0,0-0.1-0.1-0.1-0.1
				c0.1-0.1,0-0.4,0.1-0.6c-0.2,0.1,0.1-0.1-0.1-0.1c0.1,0,0.1-0.1,0.1,0c-0.1-0.1,0.1-0.2-0.1-0.2c0.1,0,0.1,0,0.1,0c0,0-0.1,0,0,0
				c0,0,0,0,0.1,0c0-0.1-0.2-0.1-0.3,0c0.1-0.1,0.1-0.1,0-0.1c0.1,0,0.1-0.1,0.1,0c0,0,0.1-0.2-0.1-0.2c0,0,0,0,0-0.1
				c0-0.1,0-0.1,0-0.2l0,0c-0.2,0,0-0.1-0.1-0.1l0,0c0.1-0.2-0.1,0,0.1-0.2l-0.1,0c-0.2,0,0.1-0.1,0-0.2l-0.1,0
				c-0.1,0,0.3-0.2,0.3-0.2c0,0,0,0,0,0c0.1-0.1-0.1,0-0.2-0.1c0.1,0,0.2,0,0.2-0.1c0.1,0-0.2-0.1-0.1-0.2c-0.1,0-0.1,0.1-0.1,0
				c0-0.1,0.2-0.2,0-0.2c0,0,0,0,0,0c0,0-0.1-0.1-0.2-0.1c0.3-0.1-0.2-0.3,0.1-0.3l0-0.1l0,0c0-0.1-0.1-0.1-0.1-0.1c0,0,0,0,0.1,0
				c0.1-0.1,0-0.1-0.1-0.2l0.1,0c-0.1,0,0.1-0.2,0-0.3c0,0,0,0,0,0c-0.1-0.1,0.2-0.4-0.1-0.4l-0.1-0.1c0,0.1-0.2,0-0.2,0.1
				c0,0,0.1-0.1,0.1-0.1l0,0c0.2,0,0.1-0.2,0.2-0.2c0-0.2,0.1-0.5,0.1-0.7l-0.1,0l0-0.1c0,0,0.1,0,0.1,0c0.1,0-0.1-0.1-0.1-0.1
				c0.1-0.1,0.2,0,0.2,0l0,0l0,0c-0.1,0-0.1,0-0.1-0.1c0,0,0.1,0,0.1-0.1c0,0,0,0,0,0l0-0.1l-0.1,0.1c-0.1,0,0-0.1-0.1,0
				c0.2-0.1,0.1-0.4,0.1-0.4c-0.1-0.1-0.1-0.1-0.1-0.2c0,0-0.2,0-0.1,0c0.3,0,0.1-0.1,0.3-0.2c-0.1,0.1,0-0.2-0.2-0.1
				c0-0.1,0.1,0,0.2-0.1c-0.1-0.1,0.1-0.3,0-0.4c0,0-0.1,0-0.1,0l0.2-0.1c0,0-0.2,0-0.1-0.1c0,0-0.1,0-0.1,0c0.2-0.3-0.2-0.6,0.1-1
				c-0.1,0-0.1,0-0.1,0c0,0-0.1,0-0.1,0l0.1-0.1c-0.1,0,0-0.1-0.1-0.1l0,0c-0.2,0-0.3,0.1-0.5,0.1c0.2,0-0.2,0.2,0,0.3
				c0,0-0.1,0-0.1,0c0.1,0,0.1,0,0.1,0.1l0,0c0,0.2-0.1,0.2-0.1,0.4l0.1,0c0,0,0,0.1-0.1,0.1c0.1,0,0-0.1,0.2-0.1
				c-0.2,0.1,0,0.3-0.2,0.3c0,0.1,0.1,0,0.1,0l-0.1,0l0.1,0c0,0-0.1,0.1-0.1,0.1c0,0,0,0,0,0c-0.1,0.1,0,0.1,0,0.2l0-0.1
				c0.1,0.2,0,0.4,0.1,0.5l0,0c0.1,0.1,0,0.1,0,0.2l0,0c0,0,0.1,0.1,0.1,0.1c-0.1,0-0.1,0.1-0.2,0c0.1,0.1,0.1,0.1,0.2,0.1l-0.1,0
				c0.1,0,0.1,0,0.1,0.1c-0.1,0-0.1,0.1-0.2,0c-0.2,0.2,0.2,0.2-0.1,0.3c0.2,0,0.1-0.1,0.2-0.1c0.1,0,0.2,0,0.1,0.1
				c0,0-0.3,0.1-0.2,0.2c0,0,0,0,0,0c0,0,0.1,0.1,0,0.1c0.1,0,0,0.1,0.2,0.1l0-0.1c0,0.1,0.2,0.1,0.1,0.2c0,0-0.1,0-0.1,0
				c0,0,0,0.1,0,0.1c-0.2,0,0-0.1-0.2-0.2c-0.1,0,0.1,0.1-0.1,0.1c0.2,0,0,0.1,0.1,0.2l-0.1,0c0,0,0.1,0,0.1,0.1l-0.1,0
				c0.1,0-0.1,0.1,0,0.2c0-0.1,0.1,0,0.2-0.1c0.1,0.1-0.2,0.1-0.2,0.3c0,0,0.1-0.1,0.1-0.1c0,0-0.1,0.1-0.1,0.1c0,0.1,0.1,0,0.2,0
				c-0.1,0.1,0.1,0,0.1,0.1l-0.1,0c-0.1,0.1,0.2,0,0.1,0.1l-0.1,0l0,0.1l-0.1,0c0.1,0.1,0.1,0.1,0,0.1c0.1,0,0.2,0,0.2,0
				c-0.1,0-0.1,0-0.1,0.1c-0.1,0-0.1,0-0.1-0.1c0,0-0.1,0-0.1,0c-0.1,0.1,0,0.1,0,0.1c0,0,0,0,0,0l0.1,0.1c0,0-0.1,0-0.1,0
				c0,0,0.1,0,0.1,0.1c-0.1,0-0.2,0-0.2,0l0.1,0.1c0,0-0.1,0.1-0.1,0.1c0,0.1,0.2,0.1,0.1,0.2c0,0,0,0,0,0c0,0.1-0.1,0.2,0,0.2
				l-0.1,0.1c0,0.1,0.2-0.1,0.2,0c0.1,0.1-0.1,0.1-0.2,0.1C693.7,663.1,693.9,663.1,693.8,663.2
				C693.7,663.2,693.8,663.2,693.8,663.2z M693.9,664.1C693.9,664,693.8,664,693.9,664.1C694,664,693.9,664,693.9,664.1z
				 M694.2,665.4C694.2,665.4,694.2,665.3,694.2,665.4C694.3,665.3,694.3,665.3,694.2,665.4z M695.3,668.9L695.3,668.9
				C695.4,668.9,695.4,668.9,695.3,668.9z M695.3,669C695.3,669,695.3,669,695.3,669C695.3,669,695.3,669,695.3,669
				C695.3,669,695.3,669,695.3,669z M694.5,660.6L694.5,660.6C694.4,660.5,694.4,660.5,694.5,660.6z"/>
			<path fill="#6B6C6F" d="M694.1,665.2C694.1,665.2,694.1,665.2,694.1,665.2C694.1,665.2,694.1,665.2,694.1,665.2z"/>
			<polygon fill="#6B6C6F" points="693.7,662.6 693.7,662.6 693.6,662.6 			"/>
			<path fill="#6B6C6F" d="M694.3,668C694.4,668,694.4,668,694.3,668C694.4,668,694.4,668,694.3,668z"/>
			<path fill="#6B6C6F" d="M695.5,669.4L695.5,669.4C695.5,669.4,695.5,669.4,695.5,669.4C695.5,669.4,695.5,669.4,695.5,669.4z"/>
			<path fill="#6B6C6F" d="M695,670C695,670,695,670,695,670L695,670C695.1,670,695,670,695,670z"/>
			<path fill="#6B6C6F" d="M695.2,669.5C695.1,669.6,695.2,669.6,695.2,669.5C695.2,669.6,695.2,669.6,695.2,669.5
				C695.3,669.6,695.3,669.6,695.2,669.5z"/>
			<path fill="#6B6C6F" d="M695.2,669.6C695.2,669.6,695.2,669.6,695.2,669.6C695.2,669.6,695.2,669.6,695.2,669.6z"/>
			<path fill="#6B6C6F" d="M695.4,669.1C695.4,669.1,695.5,669.1,695.4,669.1C695.6,669.1,695.3,669,695.4,669.1z"/>
			<polygon fill="#6B6C6F" points="695,669.6 695.1,669.6 695,669.6 			"/>
			<path fill="#6B6C6F" d="M695,669.3L695,669.3C695,669.4,695,669.4,695,669.3C695,669.4,695,669.3,695,669.3z"/>
			<path fill="#6B6C6F" d="M695,669.4C695,669.4,695,669.4,695,669.4C695,669.4,695,669.4,695,669.4z"/>
			<polygon fill="#6B6C6F" points="694.9,669.6 694.9,669.5 694.9,669.5 			"/>
			<path fill="#6B6C6F" d="M694.9,668.7L694.9,668.7C694.9,668.7,694.8,668.7,694.9,668.7C694.9,668.7,694.9,668.7,694.9,668.7z"/>
			<path fill="#6B6C6F" d="M694.7,669C694.7,669,694.7,668.9,694.7,669L694.7,669L694.7,669z"/>
			<path fill="#6B6C6F" d="M694.6,668.8C694.6,668.8,694.5,668.7,694.6,668.8C694.6,668.8,694.6,668.9,694.6,668.8z"/>
			<polygon fill="#6B6C6F" points="694.7,667.8 694.7,667.8 694.9,667.8 			"/>
			<path fill="#6B6C6F" d="M694.1,667.1C694.1,667.2,694.2,667.1,694.1,667.1c0.1,0.1,0.1,0,0.2,0
				C694.2,667.1,694.2,667.1,694.1,667.1z"/>
			<path fill="#6B6C6F" d="M694.3,667.1C694.3,667.1,694.3,667.1,694.3,667.1C694.3,667.1,694.3,667.1,694.3,667.1z"/>
			<polygon fill="#6B6C6F" points="694.4,657.6 694.5,657.6 694.4,657.6 			"/>
			<path fill="#6B6C6F" d="M694.3,657.6l0.1,0L694.3,657.6C694.3,657.5,694.3,657.6,694.3,657.6z"/>
			<path fill="#6B6C6F" d="M693.6,664.2L693.6,664.2C693.7,664.2,693.7,664.2,693.6,664.2L693.6,664.2z"/>
			<polygon fill="#6B6C6F" points="693.7,663.6 693.7,663.6 693.8,663.5 			"/>
			<path fill="#6B6C6F" d="M693.5,663C693.5,663.1,693.5,663.1,693.5,663C693.5,663.1,693.6,663,693.5,663z"/>
		</g>
	</g>
</g>
<g>
</g>
<g>
</g>
<g>
</g>
<g>
</g>
<g>
</g>
<g>
</g>
<g>
</g>
<g>
</g>
<g>
</g>
<g>
</g>
<g>
</g>
<g>
</g>
<g>
</g>
<g>
</g>
<g>
</g>
</svg>
