<?xml version="1.0" encoding="utf-8"?>
<!-- Generator: Adobe Illustrator 18.0.0, SVG Export Plug-In . SVG Version: 6.00 Build 0)  -->
<!DOCTYPE svg PUBLIC "-//W3C//DTD SVG 1.1//EN" "http://www.w3.org/Graphics/SVG/1.1/DTD/svg11.dtd">
<svg version="1.1" id="Layer_1" xmlns="http://www.w3.org/2000/svg" xmlns:xlink="http://www.w3.org/1999/xlink" x="0px" y="0px"
	 viewBox="0 0 4532.3 369.6" enable-background="new 0 0 4532.3 369.6" xml:space="preserve">
<g>
	<path fill="none" stroke="#3A867D" stroke-miterlimit="10" d="M3577.6,62.2"/>
	
		<ellipse transform="matrix(0.9548 0.2973 -0.2973 0.9548 186.1876 -1066.6873)" fill="#EDA939" cx="3599.4" cy="78.7" rx="44.3" ry="38.5"/>
	<path fill="#D54F51" d="M3657.3,75.5c0.4-5-3.4-9.3-8.3-9.6c-5-0.4-9.3,3.4-9.6,8.3c-0.7,9.5-3.8,16.4-9.6,21
		c-1.4,1.1-2.9,2-4.4,2.8c4.7-7.8,8.4-18.1,8.8-31.6c0.2-5-3.7-9.1-8.7-9.3c-5-0.2-9.1,3.7-9.3,8.7c-0.4,11.7-4,19.9-8,25.5
		l0.5-28.3c0.1-5-3.8-9.1-8.8-9.2c-5-0.1-9.1,3.9-9.2,8.8l-0.6,32.7c-11.9-12.3-5.3-27.2-4.4-29.1c2.2-4.4,0.5-9.8-3.9-12.1
		c-4.5-2.3-9.8-0.5-12.1,3.9c-3.4,6.7-6.2,17.8-3.8,29.3c-1.9-1.8-3.4-3.5-4.3-5.1c-3.4-5.8-1.8-10.8-1.8-10.8
		c1.8-4.6-0.5-9.8-5.1-11.6c-4.6-1.8-9.9,0.5-11.6,5.1c-0.5,1.3-4.6,12.7,2.6,25.7c6,10.9,18,19.2,35.7,24.7c3,0.9,6.2,1.7,9.5,2.5
		c0,0,0.1,0,0.1,0c0.5,0.2,1.1,0.3,1.6,0.3c1.5,0.3,3,0.7,4.5,1c0,0,0.1,0,0.1,0c0.1,0,0.1,0,0.2,0c1.1,0.2,25.9,3.9,43.6-10
		C3650.7,101.5,3656.2,90.1,3657.3,75.5z"/>
	<path fill="#D54F51" d="M3565.4,205.6c0-0.9,0.5-21.8,15-52.3c11.8-24.8,6.5-39.3,6.5-39.4l16.7-6.8c0.9,2.2,8.2,22.1-6.9,53.9
		c-12.8,27-13.2,44.8-13.2,44.9L3565.4,205.6z"/>
</g>
<path fill="#75B191" d="M3056.6,223.1c-26.2-48.8-73.9-52.3-102.9-7.6l0,0c-29,44.8-76.8,41.3-102.9-7.6l-2.2-4.1
	c-25.1-46.9-72.8-40.9-92.7,11.6l-19,50.3c-13.7,36.2-46.6,40.3-63.9,8l-53.8-100.6c-25.7-48-76.2-20-76.2,42.3v0
	c0,62.2-50.5,90.3-76.2,42.3l-28.9-53.9c-25.1-46.9-72.8-40.9-92.7,11.6l-58.3,154.1h197.8h41.9h171.1h26.7h171.1h41.9h197.8
	L3056.6,223.1z"/>
<path fill="#75B191" d="M553.4,247.5c-18.8-32.3-53.1-34.6-74-5l0,0c-20.9,29.6-55.2,27.3-74-5l-1.6-2.7c-18-31-52.3-27-66.6,7.7
	l-13.7,33.2c-9.8,23.9-33.5,26.7-45.9,5.3l-38.7-66.5c-18.5-31.7-54.8-13.2-54.8,28v0c0,41.2-36.3,59.7-54.8,28l-20.8-35.6
	c-18-31-52.3-27-66.6,7.7L0,344.4h142.2h30.1h123h19.2h123h30.1h142.2L553.4,247.5z"/>
<g>
	<path fill="#89B79C" d="M540.8,214.6L572.6,354c2,8.7,10.6,14.1,19.3,12.1c8.7-2,14.1-10.6,12.1-19.3l-31.8-139.4l-15.7,3.6
		L540.8,214.6z"/>
	<path fill="#89B79C" d="M539.3,135.7l8.5-1.9c2.4-0.6,4.8-1.3,7.1-2.1l-2.5-10.9c-4.7,2.5-9.8,4.5-15.2,5.7
		c-5.4,1.2-10.9,1.7-16.2,1.4l2.5,10.9c2.4-0.2,4.9-0.6,7.3-1.2L539.3,135.7z"/>
	<path fill="#89B79C" d="M565,176.1l-2.9-12.9c-2.3,0.7-4.7,1.4-7.1,2l-8.5,1.9l-8.5,1.9c-2.4,0.6-4.8,1-7.3,1.3l2.9,12.9l15.7-3.6
		L565,176.1z"/>
	<path fill="#89B79C" d="M544.6,86.5l-11.3-49.7c-2-8.7-10.6-14.1-19.3-12.1c-8.7,2-14.1,10.6-12.1,19.3l11.3,49.7
		c5.2,2.1,11,2.7,16.8,1.4S540.8,90.7,544.6,86.5z"/>
	<path fill="#89B79C" d="M513.2,93.7c-8.2-3.3-14.7-10.5-16.8-19.8L491,50.5c-2-8.7-10.6-14.1-19.3-12.1S457.6,49,459.6,57.6
		l5.4,23.4c6.2,27,29.7,45.6,56.1,46.8l-3.1-13.6L513.2,93.7z"/>
	<path fill="#68AF9C" d="M517.9,114.4l3.1,13.6c5.3,0.2,10.8-0.2,16.2-1.4C528.5,128.4,519.8,123,517.9,114.4z"/>
	<path fill="#68AF9C" d="M530,95.1c-5.8,1.3-11.7,0.7-16.8-1.4l4.7,20.7C515.9,105.7,521.3,97,530,95.1z"/>
	<path fill="#89B79C" d="M523.5,138.8c-29.3,3-57-16.4-63.8-45.8L452,59.3c-2-8.7-10.6-14.1-19.3-12.1s-14.1,10.6-12.1,19.3
		l7.7,33.6c10.7,46.8,55.7,77,102.4,70.2l-3.5-15.4L523.5,138.8z"/>
	<path fill="#68AF9C" d="M539.3,135.7l-8.5,1.9c-2.4,0.6-4.9,0.9-7.3,1.2l3.7,16.2C525.2,146.3,530.6,137.7,539.3,135.7z"/>
	<path fill="#68AF9C" d="M546.4,167.1c-8.7,2-17.3-3.4-19.3-12.1l3.5,15.4c2.4-0.4,4.8-0.8,7.3-1.3L546.4,167.1z"/>
	<path fill="#89B79C" d="M533.6,183.2l-5,1.1c-47.8,10.9-95.5-19.1-106.4-66.9L411,68.7c-2-8.7-10.6-14.1-19.3-12.1
		c-8.7,2-14.1,10.6-12.1,19.3l11.1,48.8c14.9,65.1,79.9,106,145,91.1l5-1.1l-3.6-15.7L533.6,183.2z"/>
	<path fill="#68AF9C" d="M537.2,198.9l3.6,15.7l15.7-3.6C547.8,213,539.2,207.6,537.2,198.9z"/>
	<path fill="#68AF9C" d="M549.3,179.6l-15.7,3.6l3.6,15.7C535.2,190.2,540.6,181.6,549.3,179.6z"/>
	<path fill="#89B79C" d="M552.4,120.7c23.3-12.6,36.3-39.5,30.2-66.5l-5.4-23.4c-2-8.7-10.6-14.1-19.3-12.1
		c-8.7,2-14.1,10.6-12.1,19.3l5.4,23.4c2.1,9.3-0.6,18.6-6.6,25.1l4.7,20.7L552.4,120.7z"/>
	<path fill="#68AF9C" d="M537.2,126.5c5.4-1.2,10.5-3.2,15.2-5.7l-3.1-13.6C551.2,115.9,545.8,124.5,537.2,126.5z"/>
	<path fill="#68AF9C" d="M549.3,107.2l-4.7-20.7c-3.7,4.1-8.7,7.2-14.6,8.5C538.7,93.1,547.3,98.5,549.3,107.2z"/>
	<circle fill="#9DBC9B" cx="533.6" cy="110.8" r="16.1"/>
	<path fill="#89B79C" d="M562.1,163.2c45-14.1,72.4-60.9,61.8-107.7l-7.7-33.6c-2-8.7-10.6-14.1-19.3-12.1
		c-8.7,2-14.1,10.6-12.1,19.3l7.7,33.6c6.7,29.5-9.9,58.9-37.6,68.9l3.7,16.2L562.1,163.2z"/>
	<path fill="#68AF9C" d="M546.4,167.1l8.5-1.9c2.4-0.6,4.8-1.2,7.1-2l-3.5-15.4C560.5,156.5,555.1,165.1,546.4,167.1z"/>
	<path fill="#68AF9C" d="M539.3,135.7c8.7-2,17.3,3.4,19.3,12.1l-3.7-16.2c-2.3,0.8-4.6,1.5-7.1,2.1L539.3,135.7z"/>
	<circle fill="#9DBC9B" cx="542.8" cy="151.4" r="16.1"/>
	<path fill="#89B79C" d="M637.9,0.4c-8.7,2-14.1,10.6-12.1,19.3l11.1,48.8c10.9,47.8-19.1,95.5-66.9,106.4l-5,1.1l3.6,15.7l3.6,15.7
		l5-1.1c65.1-14.9,106-79.9,91.1-145l-11.1-48.8C655.2,3.9,646.6-1.6,637.9,0.4z"/>
	<path fill="#68AF9C" d="M568.6,191.8l-3.6-15.7l-15.7,3.6C558,177.7,566.6,183.1,568.6,191.8z"/>
	<path fill="#68AF9C" d="M556.5,211l15.7-3.6l-3.6-15.7C570.6,200.4,565.1,209.1,556.5,211z"/>
	<circle fill="#9DBC9B" cx="552.9" cy="195.3" r="16.1"/>
</g>
<g>
	<g>
		<path fill="#4F897D" d="M4265.2,263.8c0,17.4,2.8,34.2,8.1,49.8c20.6-61.5,78.2-106,146.3-107c28.4-28.5,67.7-46.2,111.2-46.2
			v-9.7c-28.2-27.1-66.5-43.8-108.7-43.8C4335.5,106.9,4265.2,177.1,4265.2,263.8z"/>
		<g>
			<path fill="#61958C" d="M4263.8,264.2c0.1,17,2.8,33.7,8.1,49.8c0-0.1,2.8-0.5,2.9-0.8c15.1-44.3,49.3-80,93-96.8
				c13.8-5.3,28.4-8.2,43.1-9.1c3.1-0.2,6.2,0.1,9.2-0.8c1.2-0.3,1.1-0.3,2.2-1.4c2.6-2.5,5.2-5,8-7.3
				c22.3-19.3,50.2-31.9,79.5-35.8c6.5-0.9,13.1-1.2,19.7-1.2c0.3,0,2.9-0.7,2.9-0.8c0-2.9,0-5.8,0-8.7c0-1.9-2.1-2.9-3.4-4.2
				c-2.7-2.4-5.4-4.7-8.3-7c-10.1-8.1-21.4-14.7-33.1-20.1c-23.9-10.8-50.4-15-76.5-13.1c-40.1,3-78.4,21.5-105.8,50.9
				C4278.5,186.7,4264,225.1,4263.8,264.2c0-0.2,2.9-0.5,2.9-0.8c0.2-45.2,19.7-88.2,53.6-118.1c37.9-33.5,90.1-45.3,139-33.2
				c16.8,4.2,32.7,11.3,47.1,20.7c7.4,4.8,14.2,10.2,20.7,16.2c2.4,2.2,2.2,2.5,2.2,5.5c0,2.1,0,4.2,0,6.3c1-0.3,1.9-0.5,2.9-0.8
				c-42.5,0.2-83.9,16.9-114.1,47c1-0.3,1.9-0.5,2.9-0.8c-30.8,0.6-61.4,9.9-87.1,26.9c-29.1,19.1-50.9,48.1-62.1,80.9
				c1-0.3,1.9-0.5,2.9-0.8c-5.3-16.1-8-32.8-8.1-49.8C4266.7,263.6,4263.8,263.9,4263.8,264.2z"/>
		</g>
	</g>
	<g>
		
			<rect x="4433.2" y="119.4" transform="matrix(-0.7915 -0.6112 0.6112 -0.7915 7890.8604 2963.616)" fill="none" width="35.5" height="32.7"/>
		<path fill-rule="evenodd" clip-rule="evenodd" fill="#649981" d="M4457.2,126.1c-0.1,0.2-1-0.4-0.5-0.6c0.2,0.1,0.1,0.3,0.3,0.4
			c0.2-0.2-0.2-0.4,0.1-0.7C4457.3,125.5,4457.1,125.8,4457.2,126.1z"/>
		<path fill-rule="evenodd" clip-rule="evenodd" fill="#649981" d="M4470.6,136.8c-0.1-0.2-0.2-0.5,0-0.8
			C4471,136.3,4470.9,136.5,4470.6,136.8z"/>
		<path fill-rule="evenodd" clip-rule="evenodd" fill="#649981" d="M4455.2,141.4c0.1,0.6-0.9-0.2-1.2-0.2
			C4454.4,141,4455,141.5,4455.2,141.4z"/>
		<path fill-rule="evenodd" clip-rule="evenodd" fill="#649981" d="M4446.5,140.4c0.3,0.4-0.5,0.3-0.6,0.7
			C4445.8,140.5,4446.2,140.7,4446.5,140.4z"/>
		<path fill-rule="evenodd" clip-rule="evenodd" fill="#649981" d="M4433.5,136.3c0.1,0.2,0.1,0.3,0.2,0.2c0.2,0.4-0.4,0.5-0.6,0.1
			C4433.3,136.6,4433.4,136.5,4433.5,136.3z"/>
		<path fill-rule="evenodd" clip-rule="evenodd" fill="#649981" d="M4429.2,136.7c0.3-0.2,0.8,0.5,0.4,0.7
			C4429.1,137.2,4429.4,136.9,4429.2,136.7z"/>
		<path fill-rule="evenodd" clip-rule="evenodd" fill="#649981" d="M4450.3,115.9c-0.5-0.6-0.4-1-0.4-1.7c-0.5,0.8-0.2-0.3-0.8-0.4
			c-1.2,0.3-1.2,0-2.3,1.5c0.3,0.4,0.5-0.3,0.8,0c-0.2,0.2-0.3,0.4-0.5,0.6c0.4,0.5,0.8,0.9,1.4,0.9c-0.1-0.2-0.1-0.3,0-0.6
			c0.2,0.2,0.1,0.4,0.2,0.5C4449.7,116.7,4449.1,116.6,4450.3,115.9z M4448.6,114.8c0.7,0.3-0.3,0.8-0.1,1.1
			C4448.1,115.9,4447.9,114.9,4448.6,114.8z"/>
		<path fill-rule="evenodd" clip-rule="evenodd" fill="#649981" d="M4460,123.2c0,0.2,0.4,0.4,0.1,0.6c-0.2-0.1-0.1-0.3-0.3-0.4
			c-0.4,0.3,0.2,0.5-0.2,0.8c-0.3-0.5-0.6-0.1-1,0.2c-0.1,0.2,0,0.4,0.3,0.6c-0.3,0-0.4,0.3-0.3,0.6c-0.1,0.1-0.2,0-0.1-0.1
			c-0.4,0-0.7,0.8-1.1,0.7c-0.2-0.4,0.1-0.9-0.2-1.3c-0.5,0-0.6,0.4-1.3,0c0.3-0.2,0.5-0.8,0-0.6c-0.4-0.4,0.9-0.1,0.4,0.3
			c0.5,0.1,0.1-0.5,0.1-0.7c-0.2-0.2-0.4-0.2-0.6,0c-0.1-1.1,0.3-0.5,0.6-1.3c0.3,0.3,0.4,0,0.5,0.4c0-0.7,0.8-0.4,1.2-0.8
			c0.7,0.5,0.2,0.8,0.9,0.5c0.1,0.3-0.2,0.2-0.3,0.4C4459.5,123,4459.5,123.7,4460,123.2z"/>
		<path fill-rule="evenodd" clip-rule="evenodd" fill="#649981" d="M4462.3,128.8c-0.1-0.5-0.6-0.2-0.6-0.7c0.7,0.3,1.4,0.1,1.9,0.3
			c0.2-0.3,0.4-0.6,0.7-0.9c-0.2-0.2-0.2-0.3,0.1-0.3c-0.5-0.4,0-0.3,0-0.8c-0.7,0.4-0.6-0.3-0.9-0.3c0,0.1-1.2,0-1.4-0.1
			c-0.2,0.2,0,0.4,0,0.6c-0.4-0.3-0.5,0.8-1.1,0.5c0.1,0.3,0.4,0.5,0,0.6c0.3,0.5,0.3,0.1,0.1,0.6c-0.1-0.1-0.1-0.4-0.3-0.1
			c-0.2,0.2,0.7,0.2,0.1,0.4c0.2,0.1,0.2,0.4,0.4,0.3c-0.4-0.2,0.9-0.4,0.3,0.1c0.2,0.2,0.4,0.1,0.6,0.3
			C4461.9,129,4462.1,128.8,4462.3,128.8z M4462.5,127c0.3-0.1-0.3,0.5-0.5,0.6c0-0.1-0.1-0.3-0.3-0.4
			C4462,127.2,4462.2,127.3,4462.5,127z"/>
		<path fill-rule="evenodd" clip-rule="evenodd" fill="#649981" d="M4452.1,121.8c-0.4-0.2,0.1-0.6,0.1-0.9
			c-0.3-0.1-0.7,0.1-0.5-0.4c-0.4,0.1-0.6-0.1-0.7,0.4c-0.1-0.9,0.3-1,0.4-1.8c0.2-0.3,0.4-0.3,0.6-0.1c-0.5-0.3-0.1-0.8,0.5-0.9
			c0.8,0.5,1.1,1.5,0.8,1.8c0.2,0.1,0.4,0.1,0.7,0.1c0.1-0.2-0.9-0.4-0.2-1c-0.1,0.4,0.2,0.7,0.6,0c0.4,0.2-0.2,0.5,0.4,0.7
			c-0.3,0.2-0.6,0.6-1,0.6c-0.1,0.3,0.3,0,0.3,0.4c-0.2,0.4-1,0.4-0.9,0.9C4452.9,121.7,4452.2,121.1,4452.1,121.8z"/>
		<path fill-rule="evenodd" clip-rule="evenodd" fill="#649981" d="M4470.5,135c0.1-0.1,0.2,0,0.1,0.1c0.4,0.2,0.5-0.6,0.3-0.7
			c0.7,0,1.3-0.3,2,0.2c-0.3,0.5,0.1,0.9,0.6,1c-0.8,0.5-2.4,0.2-2.4,1.1c-0.3-0.3,0-1.1-0.6-0.7
			C4470.6,135.6,4470.8,135.5,4470.5,135z"/>
		<path fill-rule="evenodd" clip-rule="evenodd" fill="#649981" d="M4466.5,132.1c-0.5,0,0,1.1-0.8,1c-0.4-0.4,0.7-0.2,0.3-0.6
			c-0.3,0-0.1,0.2-0.5,0.4c-0.1-0.2,0-0.5-0.2-0.7c0.3-0.1,0.2,0.2,0.4,0.3c0.1-0.1,0.1-0.2,0.2-0.2c0.1-0.3-0.3,0-0.3-0.4
			c0.6-0.3,0-0.3,0.4-0.8c0.2,0.1,0.1,0.3,0.3,0.4c0.1-0.4,0-0.6,0.4-0.8c0.4,0.5,1.2,0.4,1.7,0.5c0.2,0.2-0.2,0.5,0,0.8
			c-0.4,0-0.4,0.1-0.6,0.5c-0.2-0.2-0.1-0.3-0.4-0.5c-0.3,0.3,0.1,0.4,0.1,0.6c-0.1,0-0.3,0.1-0.4,0.3c0-0.2-0.2-0.3-0.4-0.5
			c-0.3,0.2,0,0.4,0.2,0.5C4466.5,133,4466.3,132.3,4466.5,132.1z"/>
		<path fill-rule="evenodd" clip-rule="evenodd" fill="#649981" d="M4458.8,124.8c0.2-0.1,0.4,0.1,0.6,0.3c-0.5,0.4,0.2,0.6-0.3,0.9
			C4458.8,125.6,4459.4,125.1,4458.8,124.8z"/>
		<path fill-rule="evenodd" clip-rule="evenodd" fill="#649981" d="M4446.5,120.7c-0.4,0.3,0.1,0.5,0,0.8c-0.8-0.4-0.7,0.4-1.4,0.5
			c0.5,0.4,0.2,0.3-0.1,0.3c0.3,0.2,0.5,0.4,0.5,0.6c0.4,0,0.1-0.4,0.4-0.3c0.1,0.1,0.2,0.1,0.2,0.2c-0.1,0.2-0.3,0.2-0.4,0.3
			c0.5,0.4,0.8,0.3,1,0.4c-0.2-0.4-0.5-0.8-0.2-1.3c0.2,0.4-0.1,0.8,0.5,1.1c0.6-0.2,0.5-0.5,1.1-0.7c0-0.4-0.5-0.5-0.9-0.7
			c0.1-0.1,0-0.2,0.1-0.3c0.2,0,0.4-0.1,0.6-0.1c-0.1-0.1,0-0.2,0.2-0.2C4447.3,121.5,4447.4,120.9,4446.5,120.7z M4447.4,122.4
			c0.3,0.2-0.3,0.5-0.3,0.7C4446.8,122.8,4447.1,122.4,4447.4,122.4z"/>
		<path fill-rule="evenodd" clip-rule="evenodd" fill="#649981" d="M4456.8,128.6c0.3,0.3-0.4,0.2-0.5,0.4c-0.1,0.2,0.2,0.8,0.5,0.6
			c0.1-0.4-0.5-0.1-0.4-0.5c0.2-0.1,0.4,0.1,0.5-0.2c0.1,0.2,0,0.4,0.2,0.5c0.3-0.1,0.7,0.1,0.9-0.4c0.1,0.2-0.1,0.4,0.2,0.5
			c-1,1.1-0.5,0.9-1.3,1.7c-0.1-0.1,0.1-0.3,0.2-0.5c-0.4-0.1-0.5,0.6-0.7,0.9c0.1-0.7-1.1-0.3-1.2-0.9c0.4,0.1,0.2,0.1,0.2-0.5
			c-0.4-0.2-0.3,0.1-0.5,0.4c-0.2-0.3-0.1-0.8,0.2-0.8c-0.2-0.1-0.4,0-0.5,0.2c-0.2-0.2,0.1-0.5-0.3-0.6c0.2-0.1,0.5,0.1,0.3-0.1
			c0.1-0.1,0.7,0.2,0.4-0.3c0.2-0.1,0.1,0.1,0.2,0.2c0,0,0.7-0.4,0.6-0.7c0.4-0.4,0.2,0.7,0.6,0
			C4456.4,128.8,4456.5,128.8,4456.8,128.6z"/>
		<path fill-rule="evenodd" clip-rule="evenodd" fill="#649981" d="M4454.7,130.3c-0.1,0.2-0.4,0.4-0.3,0.6c0.2,0.2-0.4-0.3-0.6-0.7
			C4454,130,4454.3,129.9,4454.7,130.3z"/>
		<path fill-rule="evenodd" clip-rule="evenodd" fill="#649981" d="M4452.7,125.5c-0.1,0.3,0.1,0.9-0.3,0.9c0.1,0.2,0.7,0,0.4-0.3
			c0.9,0.3-0.7,0.6-0.2,1.2c-0.3,0.1-0.2-0.2-0.4-0.3c0,0.5-0.1,0.8-0.7,0.6c0,0.2-0.2,0.4,0,0.6c0,0.5-0.3-0.4-0.5-0.6
			c-0.5,0.2,0.1-0.4,0.3,0.1c0.1-0.2-0.2-0.4-0.4-0.3c0.7-0.4,0-1-0.1-1.8c0.3-0.3,0.6,0,0.8-0.3c0,0.2,0.4,0.4,0.1,0.6
			c0.4,0.2,0.1-0.4,0.4-0.5c0.5,0.2-0.2,0.5,0.3,0.6C4452.5,125.9,4452.6,125.7,4452.7,125.5z"/>
		<path fill-rule="evenodd" clip-rule="evenodd" fill="#649981" d="M4450.8,126c0.1,0.1,0,0.2-0.1,0.1c-0.2,0.2,0.4,0.4,0.3,0.6
			c-0.2,0.3-0.5,0-0.8-0.2c0.1-0.1,0.2,0,0.3,0.1c0.1-0.2-0.1-0.3-0.3-0.4C4450.5,126.1,4450.7,126.2,4450.8,126z"/>
		<path fill-rule="evenodd" clip-rule="evenodd" fill="#649981" d="M4465.7,139.2c-0.2-0.1-0.3,0.6-0.7,0.2c0.2-0.3,0.5-0.2,0.7-0.6
			c-0.2-0.2-0.4,0-0.6-0.3c-0.4,0.3-0.1,0.4-0.3,0.7c-0.3-0.2-0.1-0.5,0-0.8c0.3-0.1,0.6,0,0.8-0.3c-0.1-0.1-0.2,0.1-0.3,0.1
			c-0.1-0.1,0-0.2,0.1-0.3c-0.1,0-0.3,0-0.5-0.2c0.1-0.2,0.3-0.1,0.4-0.3c0.2-0.3-0.3,0-0.5-0.4c-0.5,0.1,0.4-0.2,0.6,0
			c0.1-0.3-0.5-0.4,0-0.8c0.1,0.1,0.1,0.1,0,0.2c0.8-0.5,1,0.7,1.5-0.2c0.1,0.2-0.1,0.4,0.2,0.5c-0.2,0.2-0.5-0.1-0.6,0.3
			c0.2,0.8,1.7,0.1,1.7,1.1c-0.2,0.3-0.5-0.1-0.6,0.1c-0.1,0.2,0.2,0.1,0.4,0.3c-0.2,0.8-0.6,0.3-1.1,1.1c0.1-0.6-0.7,0.2-0.3-0.4
			c-0.2-0.2-0.6,0.4-0.2,0.5c-0.1,0.1-0.3-0.1-0.4,0.1C4466,139.5,4465.5,139.7,4465.7,139.2z"/>
		<path fill-rule="evenodd" clip-rule="evenodd" fill="#649981" d="M4464.9,138.2c-0.2,0.2-0.4,0.5-0.7,0.2c0.5-0.4,0-0.6,0.3-0.9
			C4465.2,137.5,4463.9,137.8,4464.9,138.2z"/>
		<path fill-rule="evenodd" clip-rule="evenodd" fill="#649981" d="M4442.4,123c-0.1-0.3,0.3-0.6,0.3-0.9c0.1,0.1,0.2,0,0.1-0.1
			c-0.3,0.3-0.7,0.2-1.1,0.1c-0.1,0.4-0.2,0.4-0.3,0.9c-0.2-0.2-0.1-0.4-0.2-0.5c-0.2,0.9-0.9,0.5-0.7,1.2c-0.8-0.6-0.1,0-0.9,0.1
			c0.3,0.4-0.3,0.3-0.1,0.7c0.3,0.5,1.1,0.6,1.6,1.2c0.5-0.3-0.3-0.4,0.1-0.7c0.3,0.3,0.4,0,0.5,0.4c0.2-0.2,0-0.4,0-0.6
			c0.2,0.1,0.2,0.3,0.3,0.4c0.2-0.5,0.5-0.9,0.3-1.3c0.3,0.2,0.1,0.4,0.5,0.4c0.2-0.8,0.4-0.7,0.6-1.5c0.3,0.3,0.2,0.5,0.6,0.3
			c-0.2-0.2-0.1-0.4-0.2-0.5c-0.2,0.1-0.9,0.3-0.8,0c0.1,0.1,0.2,0,0.1-0.1C4442.6,122.3,4442.8,123.2,4442.4,123z M4440.4,124.9
			c0.1-0.2,0.3-0.2,0.4-0.1c0.1-0.1,0-0.2,0-0.2C4441.4,124.4,4440.7,125.5,4440.4,124.9z"/>
		<path fill-rule="evenodd" clip-rule="evenodd" fill="#649981" d="M4452.6,130.7c-0.1,0.1-0.2,0-0.3-0.1c-0.1,0.4,0.5,0.3,0.6-0.1
			c0.5-0.4-0.4,0.8,0.3,0.4c0.1,0.2-0.1,0.4,0.2,0.5c-0.2,0.1-0.3,0.1-0.2,0.2c-0.1,0.1-0.2,0-0.1-0.1c-0.3,0.3-0.7,0-1.1,0.1
			c0.1,0.1,0.1,0.5,0.3,0.4c-0.3,0.9-1,0.9-1.7,1.2c-0.1-0.3-0.2-0.6-0.7-0.9c0.2-0.1,0.4,0.1,0.5-0.2c-0.4-0.4-0.6,0.4-1-0.2
			c0.3-0.2,1.1,0.1,0.5-0.6c0.6,0.3,0.4,0.3,1.2,0c-0.3-0.4-0.5,0.4-0.9-0.1c0.4-0.4,0.9,0,1.3,0
			C4450.8,130.8,4452.1,130.6,4452.6,130.7z"/>
		<path fill-rule="evenodd" clip-rule="evenodd" fill="#649981" d="M4448.2,127.9c-0.4-0.3-0.7-0.1-1-0.2c0.2-0.7-1-1.4-1.6-1.2
			c0.1,0.1,0,0.2-0.2,0.2c0.1,0.1,0.4,0.2,0.3,0.4c-0.5-0.3-0.9,0.1-1.4,0.3c0.6,0.4,0.1,1.4,0.3,1.2c0.5-0.2,0.5,0.3,1,0
			c0,0.1,0,0.2,0.1,0.3c0.4-0.5-0.5-0.6-0.6-0.5c0.4-0.2,0.2-0.4,0.5-0.4c0.3,0.5,0.5,1.2,0.4,1.5c0.4-0.3,0.1,0.3,0.3,0.4
			c0.7-0.4,1.3,0.1,1.1-0.9c0.2,0.1,0.3,0,0.5,0.2c0.3-0.4-0.3-0.9,0.4-0.8C4448.2,128.2,4448.2,128,4448.2,127.9z M4446.1,127.4
			c0.3,0.1,0.1,0.7,0.5,0.4c0.3,0.4-0.4,0.2-0.5,0.4C4446.1,127.9,4445.8,127.7,4446.1,127.4z"/>
		<path fill-rule="evenodd" clip-rule="evenodd" fill="#649981" d="M4461,139.5c0,0.2,0.3,0.5,0.7,0.3c0.3,0.2-0.5,0.5,0.1,0.6
			c-0.2,0.1-0.3,0.1-0.2,0.2c-0.2,0.1-0.1-0.2-0.4-0.3c-0.1,0.6,0.1,0.5,0.4,0.9c-0.4,0.3-0.8,0.1-0.9,0.7c0-0.6-0.7,0-0.7-0.6
			c-0.4,0.5-0.3,0.2-0.3-0.1c-0.3,0-0.1,0.2-0.5,0.4c-0.1-0.4,0.1-0.3-0.4-0.5c0.3-0.3,0.1-1-0.3-0.8c0.4-0.4,1.1-0.6,1.2-1.4
			c0.6-0.1,1,0.2,1.2-0.6C4461.2,138.8,4461.7,139.5,4461,139.5z"/>
		<path fill-rule="evenodd" clip-rule="evenodd" fill="#649981" d="M4456.4,136.4c0.1-0.1,0.2,0,0.1,0.1c0.4,0.3,0.6-0.1,1,0.4
			c-0.7,0.5-0.3,0.1-0.4,0.8c-0.3-0.4-0.7-0.1-0.7-0.6c-0.3-0.1,0,0.3-0.4,0.3c0.3,0.4,0.4,0.1,0.7,0.3c-0.4,0.4-0.9-0.2-1.3,0.4
			c0.2,0,0.3-0.2,0.6,0c-0.2,0.7-0.7-0.3-0.9,0.4c-0.2-0.7-1.4-0.5-1.3-0.4c-0.4-0.3,0.6-0.8,0.3-1.7c0.3-0.6,1.3,0.2,1.3-0.4
			c0.2,0,1.2,0.1,0.7,0.6c0.1,0.1,0.2,0,0.3,0.1C4456.5,136.6,4456.5,136.5,4456.4,136.4z"/>
		<path fill-rule="evenodd" clip-rule="evenodd" fill="#649981" d="M4465.8,144.6c0.2,0.1,0.3-0.2,0.5-0.4c-0.2,1-0.7,0.9-0.9,1.4
			c-0.3,0.3-0.3-0.4,0-0.6c-0.4,0-0.3,0.2-0.4-0.3c-0.2,0-1,0.3-0.5,0.6c-0.4,0.3-0.2-0.3-0.5-0.4c0.2-0.3,0.5-0.2,0.7-0.4
			c0.1-0.3-0.4-0.6,0-1c-0.5,0.1,0.1,1.5-1,1c0.1-0.1,0.2,0,0.3,0.1c0.1-0.4-1-0.5-0.8,0c-0.3,0.2,0.1-0.5-0.5-0.6
			c0.1-0.1,0.1-0.2,0.1-0.3c0.2,0.2,0.5,0.4,0.7,0.6c0.3-0.2-0.1-0.4,0-0.6c-0.1-0.1-0.2,0.1-0.3,0.1c-0.3-0.3,0.1-0.7,0.3-0.7
			c0,0.7,0.5-0.3,1.2-0.3c0.2,0.1,0.4,0.4,0.6,0.3c0.2,0.1-0.2,0.8,0.2,0.5C4465.6,143.9,4465.4,144.2,4465.8,144.6z"/>
		<path fill-rule="evenodd" clip-rule="evenodd" fill="#649981" d="M4449.1,139.1c0.2-0.1,0.5,0,0.8,0.2c0-0.4,0.2-0.8,0.1-1.1
			c-0.4-0.2-0.6,0.5-1,0c0.2-0.3,0.2-0.1,0.3,0.1c0.1-0.6,0.4-0.7,0.8-0.5c0.1-0.2-0.2-0.1-0.4-0.3c0.2-0.3,1.2-0.1,0.8,0.4
			c0.5,0.2,0.2-0.3,0.6-0.3c-0.2,0-0.5-0.1-0.7-0.3c0.2-0.2,0.5,0.2,0.6-0.3c0,0.9,0.8-0.2,1.1,0.6c-0.2,0-0.4,0-0.6,0
			c0.1,0.6,0.5,0.6,0.9,1.1c-0.4,0-0.9,0.1-1.2,0.8c-0.6-0.4-1.6-0.3-1.1,0.5C4449.7,139.8,4449.7,139.5,4449.1,139.1z"/>
		<path fill-rule="evenodd" clip-rule="evenodd" fill="#649981" d="M4439.3,128.8c0-0.7,0.4,0.3,0.8,0.4c-0.3-0.6,0.3-0.1,0.2-0.5
			c0.3-0.3,0.4,0.3,0.1,0.4c0.6-0.1,0.9,0.4,0.7,0.9c0.4,0,0.1-0.4,0.6-0.3c-0.1,0.3-0.1,0.8,0.4,0.3c-0.4,1.2-1.3,1.2-2.1,1.7
			c-0.1-0.2-0.2-0.4-0.1-0.6c-0.4-0.2,0.1,0.4-0.3,0.6c-0.3-0.2-0.3-0.4-0.1-0.6c-0.3,0.3-0.6,0.3-1.2,0.3c-0.3-0.2,0-0.5,0.2-0.8
			c-0.2,0-0.3,0.2-0.6,0c0.3-0.1,0.4-0.2,0.2-0.5c0.1-0.2,0.9,0.9,1.6,0.9c0-0.2-0.2-0.8,0.3-0.4c-0.3-0.6-0.6-0.4-0.8-0.4
			c0-0.5-0.7-0.2-1.3-0.8c0.3-0.5,0.7,0,1.1,0.1c0-0.2,0.1-0.7,0.4-0.3C4439.6,128.9,4439.5,128.6,4439.3,128.8z"/>
		<path fill-rule="evenodd" clip-rule="evenodd" fill="#649981" d="M4445.7,133.3c0-0.3-0.5-0.5-0.8-0.4c0,0.2,0.3,0.9-0.2,0.8
			c0.2-0.7-0.4-0.8-1-1c0.2,0.1,0.2,0.4-0.1,0.1c-0.3,0.3-0.1,0.6-0.1,0.9c-0.2-0.2-0.4-0.3-0.6-0.5c-0.4,0.5,0.2,1-0.5,1.2
			c0.1,0.1,0.3,0.3,0.1,0.4c0.8,0.4,0.8,0.2,1.2,0.9c0.1-0.2,0.3,0.1,0.4-0.1c-0.2-0.2-0.2-0.3-0.2-0.5c0.4,0.4,0.6-0.1,1,0.2
			C4445.1,134.6,4444.8,133.2,4445.7,133.3z M4443.2,133.9c0.1,0.1,0,0.2-0.1,0.3c0.6,0.2,0.5,1.1,0.9,0.3c0.4,1.1-1,0.1-1.2,0
			C4442.8,134.4,4443,134.3,4443.2,133.9z"/>
		<path fill-rule="evenodd" clip-rule="evenodd" fill="#649981" d="M4456.7,144.3c-0.3-0.4-0.2-0.3-0.6-0.3c0.5-0.4,0.3-0.3,0.4-0.8
			c0.1,0.4,0.8,0.7,0.7,0.1c-0.6,0.1-0.1-0.2,0.2-0.2c-0.1-0.2-0.7-0.3-0.5-0.6c0.2,0.1,0.3-0.2,0.5-0.2c-0.4-0.9-1.2-0.4-1.8-0.4
			c0.2,0.2,0.3,0.4,0.3,0.6c-0.8-0.8-1.4-0.5-2.1-1.3c-0.3,0.2-0.6,0.5-0.5,0.9c0.2-0.1,0.3-0.1,0.3-0.4c0.2,0.4,0.8,0.2,0.6,0.5
			c-0.3,0-1.2-0.3-1.1,0.4c0.3-0.1-0.2,0.5-0.3,0.6c0.1-0.2,0.5,0.1,0.4,0.3c-0.2,0.1-0.9,0.2-0.7,0.6c0.2-0.3,0.4-0.3,0.6-0.1
			c0.2-0.1,0.3-0.7,0.6-0.5c-0.2,0.4-0.6,1-0.9,1.2c0.5,0.3,0.4-0.5,1.1-0.4c0,0.3,0.5,0.6,0.9,0.9c0.2-0.2,0-0.4,0-0.6
			C4455.7,145.4,4456,144.5,4456.7,144.3z M4455.1,144.9c-0.1-0.2,0.1-0.4,0.3-0.6c0.2,0.1,0.3,0.3,0.5,0.2
			C4456.1,145,4455.3,144.4,4455.1,144.9z M4454.9,142.9c0.2-0.3,0.5-0.3,0.8,0c-0.2,0.2,0,0.3-0.2,0.5c0.1,0.1,0.2-0.1,0.3-0.1
			c0.1,0.1,0,0.2,0.1,0.3c-0.1,0.1-0.1,0.2-0.2,0.2C4455.2,143.4,4455.5,143,4454.9,142.9z M4455.1,144.1c-0.2-0.1-0.3,0.2-0.5,0.4
			c-1-0.5,0.1-0.9-0.6-1.2c0.2-0.2,0.9,0.3,1.3,0.4c0.2,0.2-0.2,0.4,0,0.6C4455.1,144.3,4455.1,144.2,4455.1,144.1z"/>
		<path fill-rule="evenodd" clip-rule="evenodd" fill="#649981" d="M4457.9,146.8c0.1,0.1,0,0.3-0.2,0.5c0.5,0.4,1.2,0.8,1.2,0.2
			c0.5,0.1,0.5,0.3,0.6,0.7c0.1-0.1,0.1-0.2,0.2-0.2c0.1,0.1,0.2,0.1,0.2,0c-0.2-0.2-0.2-0.3-0.2-0.5c0.7,0.5,0.1,0.1,0.4-0.3
			c0.4,0,0.4,0.4,0.9,0.3c-0.1-0.1-0.2-0.2-0.1-0.3c0.1,0.1,0.2,0.1,0.2,0c-0.8-0.4,0.1-1,0-1.2c-0.4-0.2-0.8-0.2-1.1-0.6
			c-0.3,0.3-0.7,0.5-1,0.6c0.1-0.1-0.1-0.2-0.2,0c0.3,0.3,0.9,0.5,0.7,0.9c-0.5-0.6-0.5-0.4-0.8-0.2c-0.1-0.1-0.2-0.2-0.1-0.3
			c0.1,0.1,0.2-0.1,0-0.2c-0.2,0.2-0.3,0.4-0.5,0.6c0.2,0.2,0.5,0.1,0.4,0.3C4458.2,146.8,4458.1,146.8,4457.9,146.8z M4458.7,147
			c-0.2,0-0.4,0.2-0.3,0.4C4457.8,147.6,4458.2,146.4,4458.7,147z"/>
		<path fill-rule="evenodd" clip-rule="evenodd" fill="#649981" d="M4445.7,134.1c-0.1,0.2-0.3,0.2-0.4,0.1
			c-0.1,0.2,0.1,0.3,0.3,0.4c-0.1,0.1-0.3-0.1-0.4,0.1C4445,134.3,4445.3,133.7,4445.7,134.1z"/>
		<path fill-rule="evenodd" clip-rule="evenodd" fill="#649981" d="M4434.1,131.1c0.2-0.3,0.4,0.8,0.6,0.5c0.1,0.1-0.1,0.3-0.2,0.2
			c-0.1,0.2,0.2,0.3,0.4,0.5c0-0.4,0.2-0.3,0.5-0.6c-0.1-0.1-0.2,0.1-0.3,0.1c0-0.3-0.3-0.5-0.6-0.7c0.8-0.4,1.4-0.1,1.6,0.7
			c0.4,0.1-0.2-0.6,0.4-0.5c0.1,0.3,0,0.7-0.2,1c-0.4-0.4-0.1,0.1-0.4,0.3c-0.1-0.3,0-0.6-0.1-0.9c-0.4,0.1,0.2,0.9-0.7,0.6
			c-0.1,0.4,0.6,0.2,0.4,0.7c0.5,0,0.6-0.2,0.9-0.4c0,0.4-0.2,0.8-0.2,1.2c-0.3,0.1-0.6-0.9-1.1,0.1c-0.2-0.2-0.1-0.4,0.1-0.7
			c-0.3,0-0.5,0.2-0.6-0.3c-0.2,0.4,0.1,0.7,0.1,1.1c-0.3-0.4-0.7-1.1-1.7-1.3c0.2-0.2,0.5,0,0.7-0.2c-0.4-0.1-0.9,0-0.5-0.6
			c-0.3-0.4-0.5,0.3-0.8-0.2c0.3,0,0.3-0.2,0.1-0.3c0.2-0.3,0.6,0.3,0.8,0.4c0-0.3-0.7-0.7,0-0.8c-0.1,0.6,0.3,0.3,0.7,0.6
			C4434.1,131.6,4434.1,131.3,4434.1,131.1z"/>
		<path fill-rule="evenodd" clip-rule="evenodd" fill="#649981" d="M4445.9,139.5c0.2-0.2,0.3,0.5,0.6-0.1c0,0.3,0.3,0.5,0.6,0.7
			c-0.3,0.3-0.6-0.1-0.9-0.3c-0.5,0.7-1,1.1-1.5,0.7c-0.1-0.4,0.2-0.2,0.5-0.4c-0.4-0.4-0.6,0.3-1,0c-0.1,0.3-0.1,0.6,0.3,0.8
			c-0.1,0.3-0.4,0-0.5,0.2c-0.1-0.3,0.3-0.7-0.3-0.4c0-0.2,0.3-0.6,0.4-1c-0.3,0-0.6-0.3-0.9,0.1c-0.1-0.2,0-0.4,0.1-0.7
			c-0.3-0.1-0.5,0-0.8-0.2c0.1-1,1.3-0.1,1.1,0.1c-0.1,0.2,0.2,0.3,0.4,0.5c-0.2-0.3,0.2-0.6,0.1-0.9c0.1-0.2,0.6,0.5,0.4,0.7
			c0.5,0.1,0.4-0.5-0.1-0.6c0.3-0.2,0.6-0.1,1,0.2c-0.2,0.2-0.3,0.4-0.5,0.6c0.4,0.1,0.3,0.2,0.8,0.4
			C4446,139.7,4446,139.6,4445.9,139.5z"/>
		<path fill-rule="evenodd" clip-rule="evenodd" fill="#649981" d="M4450.6,144.1c-0.2,0.4-0.4,0.1-0.6,0.3c0.1-0.5-0.2-0.4-0.6-0.3
			c-0.1-0.7,0.8-0.3,0.9,0.1c0.3-0.4-0.2-0.7-0.1-1.1c-0.4-0.2,0.1,0.4-0.3,0.6c-0.2-0.6-0.1-0.4-0.7-0.1c-0.1-0.1,0-0.2,0.1-0.3
			c-0.2-0.2-0.4-0.2-0.6,0c0.3,0.4-0.1,0.9,0.6,1c-0.3,0.1-0.6,0.4-1,0.2c0.1-0.2,0.4-0.4,0.3-0.6c-0.3-0.1,0,0.3-0.4,0.3
			c0.1,0.4,0,0.7,0.5,0.8c-0.1,0.1-0.2,0.2-0.3,0.4c-0.4-0.3-0.3-0.8-1-1c0-0.5,0.3-0.4,0-0.8c0.6-0.1,0.5-1,1.5-0.6
			c0.5-0.3-0.3-0.4,0.1-0.7c0.4,0.5,0.8,0.5,1.1,0.1c0,0.7,0.5,0.2,0.6,0.7C4450.4,143.5,4450.5,143.4,4450.6,144.1z"/>
		<path fill-rule="evenodd" clip-rule="evenodd" fill="#649981" d="M4452.6,148.4c0.2,0.2,0.4,0.3,0.4,0.5c0.3,0.1,1.2-0.8,0.7-0.9
			c0.4,0.4-0.8,0.4-0.6,0c0.8,0.4,0-0.4,0-0.6c0.5,0.3,0.6-0.1,0.8,0.4c0-0.7-0.3-1.2-0.7-0.6c-0.3-0.6,0.8-0.8,0.5-1.4
			c-0.2,0.2-0.5,0-0.7,0.2c0.1,0.1,0.4,0.2,0.3,0.4c-0.4-0.5-0.7-0.2-1-0.2c0.5,0.4-0.1,0.3-0.3,0.4c0.3,0.4-0.2,0.3-0.1,0.7
			c-0.2-0.1-0.2-0.3-0.3-0.4c-0.1,0.4-0.7,0.4-0.5,0.6c0.1-0.1,0.3,0,0.2,0.2c-0.2-0.1-0.4-0.1-0.6,0c0.1,0.1,0.1,0.2-0.1,0.3
			c0.2,0.4,0.7-0.3,0.6,0.3c-0.3,0-1.1,0.2-0.9,0.4c0.4,0.1,0.6-0.1,0.7-0.2c0.1,0.1,0,0.3-0.2,0.5c0.5,0,0.6,0.3,0.9,0.3
			C4451.3,148.5,4453.1,149.2,4452.6,148.4z M4452.5,148c-0.1-0.2-0.2-0.4-0.3-0.6C4452.6,147.1,4452.7,147.7,4452.5,148z"/>
		<path fill-rule="evenodd" clip-rule="evenodd" fill="#649981" d="M4440.8,136.5c-0.3,0-0.6,0.2-0.8,0.3
			C4439.6,136.3,4440.4,136.3,4440.8,136.5z"/>
		<path fill-rule="evenodd" clip-rule="evenodd" fill="#649981" d="M4458.2,150.2c-0.1,0.2,0.1,0.2,0.1,0.1c0.3,0.4-0.4,0.2-0.5,0.4
			c0.3,0.3,0.4,0,0.7,0.3c-0.4,0.5-0.2,0.3,0.2,0.5c-0.2,0-0.4,0.2-0.3,0.4c-0.4,0.3-0.3-0.4-0.6-0.5c0.1,0.3-0.1,0.6,0.3,0.8
			c-0.8-0.1-1.2,0.3-1.3,0.2c-0.5,0.3,0-0.5-0.3-0.6c0.3-0.1,0.6,0.2,0.9,0.1c0.3-0.4-0.3-0.8-0.5-1.1c0.3-0.4,0.6-0.3,0.9-0.9
			c0.2,0.2,0.4,0,0.6,0.3C4458.4,150.3,4458.3,150.2,4458.2,150.2z"/>
		<path fill-rule="evenodd" clip-rule="evenodd" fill="#649981" d="M4438.4,136.3c0.3-0.3,0.3-0.6,0.2-0.8c-0.2,0.3-0.5,0.1-0.8,0
			c-0.2,0.2-0.4,0.9-0.7,0.4c-0.2,0.5,0.3,0.8-0.5,0.6c0.3,0.8,0.1,0.3,0.7,0.3c0,0.4-0.1,0.1-0.4,0.5c0.1,0.1,0.2,0.2,0.4,0.3
			c0.2-0.2,0.1-0.4,0.3-0.6c0.1,0.4,0.3,0.3,0.6,0.3c-0.5,0.1-0.6,0.7-0.5,0.4c0.4-0.3,0.4,0.4,0.4,0.5c0.4-0.6,0.7-0.5,0.9-0.4
			c-0.2-0.3,0.8-0.6,0.5-1.2c-0.6,0.7-0.2-0.8-0.8-0.4c0.3,0.1,0.2,0.8,0,0.6C4438.8,136.4,4438.7,136.3,4438.4,136.3z M4437.9,136
			c0.1,0.3,0.5,0.3,0.5,0.8C4438.1,137,4437.6,136.3,4437.9,136z"/>
		<path fill-rule="evenodd" clip-rule="evenodd" fill="#649981" d="M4442.2,139c0.2,0,0.4,0.2,0.8,0.4c-0.2,0.2,0.2,0.4-0.1,0.7
			c0.2,0,0.4-0.1,0.5-0.2c0.1,0.2,0.1,0.3,0.2,0.2c0.2,0.4-0.7-0.1-0.8,0.3c-0.2-0.2-0.4-0.3-0.6-0.5c0.3-0.1,0.5-0.4,0.6,0
			c0.3-0.3-0.2-0.4-0.1-0.6C4442.4,139.6,4442.3,139.5,4442.2,139z"/>
		<path fill-rule="evenodd" clip-rule="evenodd" fill="#649981" d="M4433.8,137.2c-0.1,0.1-0.2,0.4-0.4,0.3
			c-0.3-0.3-0.4-0.9-1.1-1.1c0.4-0.4,0.5-0.6,0.4-1c-0.1,0.1-0.2,0.4-0.4,0.3c0.4-0.6-0.3,0-0.5-0.4c0.1-0.2,0.3-0.3,0.4-0.5
			c-0.5,0.1-0.4,0-1,0c0.1,0.2,0.5,0.9,0,0.8c0-0.1,0.2-0.2,0.1-0.3c-0.1,0.1-0.3,0-0.5-0.2c0.1-0.2,0.3-0.3,0.2-0.5
			c-0.6-0.2-1.4,0-1.5,0.7c-0.1-0.3-0.2-0.4-0.5-0.2c0.2,0.2-0.1,0.4-0.3,0.6c0.8,0.6,1.3,1.2,1.5,2.1c0.4-0.8,0.8,0.4,0.8-0.3
			c0.1,0.2,0.2,0.4,0.5,0.6c-0.3,0-0.5,0.3-0.3,0.6c0.1-0.1,0.2,0,0.2,0.2c0.4-0.1,0.2-0.5,0.6-0.5c0.1,0.2,0.1,0.3,0,0.6
			c0.7,0.6,0.4-0.2,1.3,0.4c0.5-0.3,1.4-0.8,1.8-0.1c-0.2-0.3,0.3-1.2,0.7-1.2c-0.1,0.2-0.3,0.3-0.2,0.5c0.2-0.1,0.4-0.2,0.6-0.5
			c-0.5-0.4-0.9,0-1.3,0c-0.3-0.7,0-0.4-0.4-1.1c-0.2,0.4-0.7,0.1-0.7-0.1C4433.8,137.1,4433.3,137.1,4433.8,137.2z M4434.5,137.1
			c0,0.4,0.7,0.7,0,1.2c0.1-0.6-0.5-0.6-0.9-0.7C4433.9,137.1,4434.2,137.2,4434.5,137.1z M4431.6,136.3c-0.1,0.5-0.5,0.9-0.7-0.1
			c0,0.4-0.1,0.7,0.4,1.1c0.5,0.2-1-0.5-0.8,0.3c-0.1-0.5,0-1,0.2-1.6c0.5-0.1,0.5,0.4,1.1,0.1c0.1,0.1,0,0.2,0.1,0.3
			c-0.1,0.1-0.1,0.2-0.2,0.2C4431.6,136.5,4431.6,136.4,4431.6,136.3z"/>
		<path fill-rule="evenodd" clip-rule="evenodd" fill="#649981" d="M4453.6,153c-0.2,0.5-0.1,0.3-0.5,0.4c-0.2,0.2,0.4,0.4,0.5,0.6
			c0.2-1,1.5,0.3,2-0.4c0.3,0.3,0.4,0.5,0.5,0.8c-0.2-0.1-0.9,0.1-0.4,0.5c0.1-0.1,0-0.2,0-0.2c0.6,0.4-0.6,0.2-0.9-0.5
			c-0.1,0.2-0.3,0.3-0.2,0.5c0.2,0.1,0.1-0.3,0.3-0.1c0.4,0.3-0.5,0.5,0,1c-0.2-0.2-0.7-0.1-0.6,0.3c-0.5,0.4,0-0.7-0.4-0.3
			c-0.3-0.3,0.3,0,0.4-0.3c-0.3,0-1.3-0.2-1.2,0.3c-0.6,0.1-0.1-0.3,0.2-0.5c-0.3-0.1-0.6-0.1-0.8,0.3c-0.7-0.5-0.7-0.5-1.1-1.4
			c-0.2-0.6,0.2,0.5,0.5,0.2c0.1,0.2-0.3,0.3,0.3,0.6c0-0.6-0.1-0.7,0.5-0.9c-0.6,0-0.3-0.2-0.6-0.3c-0.1-0.1,0.1-0.3-0.1-0.4
			c0.4-0.3,0.3,0.1,0.7,0.3c-0.3-0.6,0.5,0,0.8-0.5c0.2,0.1,0.3,0.3,0.5,0.4C4454.1,153.4,4453.8,153.2,4453.6,153z"/>
		<path fill-rule="evenodd" clip-rule="evenodd" fill="#649981" d="M4446.5,149.3c-0.1-0.3,0.6,0.2,0.6-0.5c0.1,0.4,0.7,0.6,0.6,1
			C4447.9,150.2,4446.9,148.9,4446.5,149.3z"/>
		<path fill-rule="evenodd" clip-rule="evenodd" fill="#649981" d="M4448.9,149.9c-0.4-0.6,0.4-0.8-0.7-1.1c0.3,0.2,0.2,1-0.1,0.9
			c0-0.3,0.3-0.6-0.1-0.9c-0.5,0.5,0.3,0.5-0.2,1.2c-0.1-0.1-0.2,0-0.3-0.1c-0.2-0.7-1.3-0.8-1.3-0.4c0.1-0.1,0.4-0.1,0.3,0.1
			c-0.3-0.2-0.5,0.1-0.7,0.4c0.1,0.8,1.4,0.8,0.8,1.4c0.5,0.2,0.9-0.8,1.5-0.2c0.1-0.2,0.4-0.4,0.3-0.6c-0.1,0.2-0.4-0.4-0.4-0.5
			C4448.2,150.1,4448.4,150,4448.9,149.9z M4446.9,149.8c0.3,0.2,0.1,0.2-0.1,0.3c0.2,0.2,0.5,0.2,0.7,0.1c0.3,0.4,0,0.3-0.3,0.6
			c0.4,0.7-0.2-0.3-0.6-0.5C4446.8,150.1,4446.7,150,4446.9,149.8z"/>
		<path fill-rule="evenodd" clip-rule="evenodd" fill="#649981" d="M4448.9,149.6c0.4-0.1,0.4,0,0.7,0.3c-0.2,0.3-0.5,0.2-0.7,0.2
			c-0.1,0.1,0.1,0.7,0.3,0.4c0.3,0.3-0.3,0.1-0.4,0.5c-0.2,0.6,0.4-1.1-0.4-0.5C4448.2,149.8,4449.7,150.4,4448.9,149.6z"/>
		<path fill-rule="evenodd" clip-rule="evenodd" fill="#649981" d="M4442.4,144.5c-0.1-0.5,0.2,0.1,0.4,0.3c-0.4,0-0.1,0.6-0.5,0.2
			c-0.1,0.1,0.1,0.2,0.1,0.3c0.2,0.1,0.3-0.1,0.4-0.3c0.1,0.6,1,0.7,0.8,1.4c0.4,0.2-0.1-0.4,0.3-0.6c0.2,0.3,0.3,0.6,0,1
			c-0.2-0.2-0.5-0.2-0.7-0.1c0,0.7,0.6-0.1,0.9,0.3c-0.5-0.1-0.5,0.5-0.2,0.5c0.3,0.3-0.5,0.1,0.1,0.4c-0.7,0.1-0.7,0.5-1.6-0.7
			c0.2-0.1,0.4,0,0.5-0.2c0.2-0.9-1.2-0.3-1.6-1c-0.2,0.2,0.3,0.8,0.5,0.6c0.1-0.3-0.1,0.3-0.3,0.7c0.8,0-0.3,0.1,0,0.6
			c0.2,0.1,0.3-0.2,0.5-0.4c0.2,0.1,0.3,0.3,0.5,0.4c-0.1,0.3-0.7,0.6-0.4,0.8c-0.5-0.1-0.9-0.5-0.9-1.1c-0.3,0.3,0.2,0.6-0.3,0.9
			c0-0.4-0.4-0.4-0.7-0.6c0.1,0,0.3-0.1,0.4-0.3c0.2,0.1,0.1,0.3,0.3,0.4c0.1-0.1,0-0.2,0.1-0.3c-0.5-0.3-0.8-0.1-1.1-0.6
			c0.2-0.2,0.5,0.2,0.6-0.1c-0.2-0.2-0.5-0.1-0.4-0.7c0.2-0.1,0.3-0.1,0.6,0c0.2-0.4-0.1-0.3-0.4-0.5c0.5-0.4,0.8-0.5,0.6-1.3
			c0.3,0.3,0.7,0.6,0.2,1c0.4-0.2,0.6-0.6,0.8-1.1c0.3,0,0.4,0.1,0.5,0.4C4442.4,144.7,4442.4,144.6,4442.4,144.5z"/>
		<path fill-rule="evenodd" clip-rule="evenodd" fill="#649981" d="M4443,148.2c0.3,0.2-0.4,0.2-0.5,0.6c-0.5-0.2,0.1-0.5,0.2-0.8
			C4442.8,148.1,4442.9,148.3,4443,148.2z"/>
		<path fill-rule="evenodd" clip-rule="evenodd" fill="#649981" d="M4438.7,142.5c-0.1-0.1-0.2,0-0.3-0.1c-0.1-1.2-1,0.7-1.6,0.1
			c-0.1,0.2-0.3,0.3-0.4,0.5c0.3,1,1.5,1,2.5,0.8c-0.2-0.5-0.6,0.4-0.5-0.2c1.3,0.1,0.4-0.9,1.7-0.7c-0.5-0.5-0.9,0-1.3-0.3
			c0.2-0.2,0.3-0.9-0.1-0.6C4438.8,142.2,4438.7,142.3,4438.7,142.5z M4438.3,143.2c0.2,0.5-1,0.1-0.9-0.3
			C4437.8,142.7,4437.9,143.5,4438.3,143.2z"/>
		<path fill-rule="evenodd" clip-rule="evenodd" fill="#649981" d="M4462.2,128.9c0.5,0.3,0,0.9-0.3,0.9c-0.3-0.4-0.3-0.2-0.5-0.6
			C4461.6,129.1,4461.9,129.5,4462.2,128.9z"/>
		<path fill-rule="evenodd" clip-rule="evenodd" fill="#649981" d="M4460.7,133.8c0,0.5,0.8-0.4,1.2,0.2c-0.4,0.4-0.7,0.5-1,1
			c-0.3,0-0.5-0.3-0.7,0.2c-1.3-0.3-1.1-1-1.4-0.9c0-0.7,0.8-0.3,0.6-1.1c0.4,0.4,0.1-0.1,0.4-0.3c0.3,0.4,0.6,0.2,0.9,0.5
			c0-0.3,0.1-0.2,0.3-0.4c0.1,0.1,0,0.2-0.1,0.3c0.3,0.2,0.4-0.5,0.7-0.4C4462.1,133.6,4461,133.6,4460.7,133.8z"/>
	</g>
	<g>
		
			<rect x="4474.3" y="136.6" transform="matrix(-0.8723 -0.4891 0.4891 -0.8723 8335.5479 2483.1946)" fill="none" width="35.5" height="32.7"/>
		<path fill-rule="evenodd" clip-rule="evenodd" fill="#649981" d="M4496.8,142.4c-0.1,0.2-1-0.2-0.6-0.5c0.2,0.1,0.2,0.3,0.3,0.4
			c0.1-0.3-0.3-0.4,0-0.7C4496.9,141.8,4496.7,142.2,4496.8,142.4z"/>
		<path fill-rule="evenodd" clip-rule="evenodd" fill="#649981" d="M4511.7,151.1c-0.1-0.2-0.3-0.4-0.1-0.8
			C4512,150.5,4511.9,150.8,4511.7,151.1z"/>
		<path fill-rule="evenodd" clip-rule="evenodd" fill="#649981" d="M4497.1,157.9c0.2,0.5-0.9,0-1.2,0
			C4496.3,157.6,4496.9,158,4497.1,157.9z"/>
		<path fill-rule="evenodd" clip-rule="evenodd" fill="#649981" d="M4488.4,158.2c0.3,0.4-0.4,0.4-0.5,0.8
			C4487.6,158.4,4488.1,158.5,4488.4,158.2z"/>
		<path fill-rule="evenodd" clip-rule="evenodd" fill="#649981" d="M4474.9,156.1c0.1,0.1,0.1,0.3,0.3,0.2c0.3,0.3-0.4,0.5-0.6,0.2
			C4474.7,156.3,4474.8,156.3,4474.9,156.1z"/>
		<path fill-rule="evenodd" clip-rule="evenodd" fill="#649981" d="M4470.7,157c0.3-0.2,0.9,0.3,0.5,0.6
			C4470.7,157.6,4470.9,157.2,4470.7,157z"/>
		<path fill-rule="evenodd" clip-rule="evenodd" fill="#649981" d="M4488.5,133.4c-0.6-0.5-0.5-0.9-0.7-1.6
			c-0.4,0.9-0.2-0.3-0.9-0.3c-1.2,0.5-1.2,0.2-2.1,1.8c0.4,0.4,0.4-0.3,0.8-0.1c-0.1,0.2-0.3,0.4-0.4,0.7c0.5,0.4,1,0.7,1.6,0.7
			c-0.1-0.1-0.2-0.3,0-0.6c0.2,0.1,0.1,0.3,0.3,0.5C4488.1,134.2,4487.4,134.3,4488.5,133.4z M4486.7,132.5c0.7,0.2-0.2,0.8,0.1,1.1
			C4486.4,133.8,4486,132.8,4486.7,132.5z"/>
		<path fill-rule="evenodd" clip-rule="evenodd" fill="#649981" d="M4499.2,139.2c0,0.2,0.5,0.3,0.2,0.6c-0.2-0.1-0.2-0.3-0.3-0.4
			c-0.3,0.4,0.2,0.5-0.1,0.8c-0.3-0.4-0.6,0-0.9,0.4c-0.1,0.3,0.1,0.4,0.4,0.6c-0.3,0.1-0.3,0.4-0.2,0.6c-0.1,0.1-0.2,0-0.1-0.1
			c-0.4,0.1-0.6,0.9-1,0.8c-0.2-0.4-0.1-0.9-0.4-1.3c-0.4,0.1-0.6,0.5-1.3,0.1c0.3-0.2,0.4-0.9,0-0.6c-0.4-0.3,0.9-0.3,0.4,0.2
			c0.6,0,0-0.5,0-0.7c-0.2-0.1-0.4-0.1-0.6,0c-0.3-1.1,0.3-0.5,0.4-1.4c0.4,0.2,0.4-0.1,0.5,0.3c-0.1-0.7,0.8-0.6,1.1-1
			c0.7,0.4,0.3,0.7,1,0.4c0.2,0.2-0.1,0.3-0.2,0.4C4498.6,139.1,4498.8,139.8,4499.2,139.2z"/>
		<path fill-rule="evenodd" clip-rule="evenodd" fill="#649981" d="M4502.2,144.4c-0.2-0.4-0.7-0.1-0.7-0.6c0.7,0.2,1.4-0.1,1.9,0
			c0.2-0.3,0.4-0.6,0.5-0.9c-0.3-0.1-0.2-0.3,0-0.3c-0.6-0.3-0.1-0.3-0.1-0.8c-0.6,0.5-0.6-0.2-1-0.2c0.1,0.1-1.2,0.2-1.4,0.1
			c-0.2,0.2,0,0.4,0,0.6c-0.4-0.2-0.4,0.8-1.1,0.6c0.1,0.3,0.5,0.4,0,0.6c0.4,0.4,0.3,0.1,0.2,0.6c-0.2-0.1-0.2-0.4-0.3,0
			c-0.1,0.3,0.8,0.1,0.1,0.4c0.3,0.1,0.2,0.4,0.4,0.2c-0.4-0.2,0.8-0.5,0.3,0c0.2,0.2,0.4,0,0.6,0.2
			C4501.9,144.6,4502.1,144.5,4502.2,144.4z M4502.2,142.6c0.3-0.2-0.3,0.6-0.4,0.7c-0.1-0.1-0.1-0.3-0.3-0.4
			C4501.7,142.8,4502,142.9,4502.2,142.6z"/>
		<path fill-rule="evenodd" clip-rule="evenodd" fill="#649981" d="M4491.2,138.9c-0.4-0.2,0-0.6,0-0.9c-0.3,0-0.7,0.2-0.5-0.3
			c-0.4,0.2-0.6,0-0.6,0.5c-0.2-0.9,0.2-1,0.2-1.9c0.1-0.3,0.3-0.4,0.6-0.2c-0.6-0.2-0.2-0.8,0.4-1c0.9,0.4,1.3,1.3,1,1.6
			c0.2,0,0.4,0,0.7,0c0-0.2-0.9-0.3-0.4-0.9c0,0.5,0.3,0.6,0.6,0c0.5,0.1-0.1,0.6,0.5,0.6c-0.3,0.3-0.5,0.7-0.9,0.7
			c-0.1,0.3,0.3,0,0.3,0.4c-0.2,0.4-1,0.5-0.7,1C4491.9,138.8,4491.2,138.2,4491.2,138.9z"/>
		<path fill-rule="evenodd" clip-rule="evenodd" fill="#649981" d="M4511.3,149.3c0.1-0.1,0.2,0,0.1,0.1c0.4,0.1,0.4-0.6,0.2-0.7
			c0.7-0.1,1.2-0.5,2-0.1c-0.3,0.5,0.2,0.9,0.7,0.9c-0.7,0.6-2.3,0.5-2.2,1.4c-0.3-0.2-0.1-1.1-0.7-0.6
			C4511.5,149.9,4511.7,149.8,4511.3,149.3z"/>
		<path fill-rule="evenodd" clip-rule="evenodd" fill="#649981" d="M4506.9,147.1c-0.5,0.1,0.1,1.1-0.6,1.1
			c-0.5-0.3,0.6-0.3,0.2-0.6c-0.3,0-0.1,0.2-0.4,0.5c-0.1-0.2-0.1-0.5-0.3-0.7c0.2-0.2,0.3,0.1,0.4,0.2c0-0.1,0.1-0.2,0.2-0.3
			c0.1-0.3-0.3,0-0.3-0.4c0.6-0.4-0.1-0.3,0.3-0.9c0.2,0.1,0.2,0.3,0.3,0.4c0-0.4-0.1-0.6,0.3-0.9c0.5,0.5,1.3,0.2,1.8,0.3
			c0.3,0.2-0.2,0.6,0.1,0.8c-0.4,0-0.4,0.1-0.5,0.6c-0.3-0.1-0.2-0.3-0.5-0.4c-0.3,0.3,0.1,0.4,0.2,0.6c-0.1,0.1-0.3,0.1-0.4,0.3
			c-0.1-0.2-0.2-0.3-0.5-0.4c-0.2,0.3,0,0.4,0.3,0.5C4507.1,148,4506.7,147.3,4506.9,147.1z"/>
		<path fill-rule="evenodd" clip-rule="evenodd" fill="#649981" d="M4498.2,140.9c0.1-0.2,0.4,0.1,0.6,0.2c-0.5,0.4,0.3,0.5-0.2,1
			C4498.4,141.7,4498.9,141.2,4498.2,140.9z"/>
		<path fill-rule="evenodd" clip-rule="evenodd" fill="#649981" d="M4485.5,138.7c-0.4,0.4,0.2,0.5,0.1,0.8
			c-0.8-0.3-0.7,0.5-1.3,0.7c0.6,0.3,0.3,0.3,0,0.3c0.3,0.1,0.5,0.3,0.6,0.5c0.4,0,0-0.4,0.4-0.3c0.1,0.1,0.2,0.1,0.3,0.2
			c-0.1,0.2-0.2,0.3-0.4,0.3c0.6,0.4,0.9,0.2,1.1,0.3c-0.2-0.4-0.6-0.7-0.4-1.3c0.3,0.3,0,0.8,0.6,1.1c0.6-0.3,0.4-0.6,1-0.8
			c-0.1-0.4-0.6-0.4-0.9-0.5c0.1-0.1,0-0.2,0-0.3c0.2-0.1,0.4-0.1,0.6-0.2c-0.1-0.1,0-0.2,0.2-0.3
			C4486.4,139.4,4486.4,138.8,4485.5,138.7z M4486.6,140.2c0.3,0.1-0.2,0.5-0.2,0.7C4486,140.8,4486.3,140.3,4486.6,140.2z"/>
		<path fill-rule="evenodd" clip-rule="evenodd" fill="#649981" d="M4496.8,145.1c0.3,0.2-0.4,0.3-0.4,0.5c0,0.2,0.3,0.8,0.6,0.5
			c0.1-0.4-0.5,0-0.5-0.4c0.2-0.1,0.4,0,0.5-0.3c0.1,0.1,0.1,0.4,0.3,0.5c0.3-0.1,0.7,0,0.9-0.6c0.1,0.2,0,0.4,0.3,0.5
			c-0.9,1.2-0.4,1-1.1,1.9c-0.1-0.1,0-0.3,0.1-0.5c-0.5,0-0.4,0.7-0.5,0.9c0-0.7-1.1-0.1-1.3-0.8c0.4,0.1,0.2,0,0.1-0.5
			c-0.5-0.1-0.3,0.1-0.4,0.5c-0.2-0.3-0.2-0.7,0.1-0.8c-0.2,0-0.4,0-0.5,0.3c-0.3-0.2,0-0.5-0.4-0.6c0.1-0.1,0.5,0,0.3-0.2
			c0.1-0.1,0.7,0.1,0.4-0.3c0.2-0.2,0.1,0.1,0.3,0.2c0-0.1,0.6-0.5,0.5-0.8c0.3-0.4,0.3,0.6,0.6,0
			C4496.4,145.2,4496.5,145.3,4496.8,145.1z"/>
		<path fill-rule="evenodd" clip-rule="evenodd" fill="#649981" d="M4495,147c-0.1,0.2-0.4,0.5-0.2,0.6c0.3,0.1-0.5-0.2-0.7-0.6
			C4494.3,146.8,4494.6,146.7,4495,147z"/>
		<path fill-rule="evenodd" clip-rule="evenodd" fill="#649981" d="M4492.3,142.6c0,0.3,0.2,0.9-0.2,1c0.1,0.1,0.7-0.1,0.4-0.3
			c0.9,0.2-0.6,0.7,0,1.2c-0.2,0.2-0.3-0.1-0.4-0.2c0,0.5,0,0.8-0.6,0.7c0.1,0.2-0.1,0.4,0,0.6c0.1,0.5-0.3-0.4-0.6-0.5
			c-0.4,0.3,0.1-0.4,0.3,0c0.1-0.2-0.3-0.4-0.4-0.2c0.6-0.5-0.1-1-0.4-1.8c0.2-0.4,0.6-0.1,0.8-0.4c0,0.2,0.5,0.3,0.2,0.6
			c0.5,0.1,0-0.4,0.3-0.5c0.5,0.1-0.1,0.5,0.4,0.6C4492.1,143,4492.2,142.8,4492.3,142.6z"/>
		<path fill-rule="evenodd" clip-rule="evenodd" fill="#649981" d="M4490.5,143.3c0.1,0.1,0,0.2-0.1,0.1c-0.1,0.3,0.4,0.3,0.4,0.6
			c-0.2,0.3-0.5,0.1-0.8-0.1c0.1-0.1,0.2,0,0.3,0c0.1-0.2-0.2-0.3-0.3-0.4C4490.2,143.4,4490.4,143.5,4490.5,143.3z"/>
		<path fill-rule="evenodd" clip-rule="evenodd" fill="#649981" d="M4507.1,154.2c-0.2-0.1-0.2,0.7-0.7,0.3c0.2-0.3,0.5-0.3,0.6-0.7
			c-0.2-0.2-0.4,0-0.6-0.2c-0.3,0.3,0,0.5-0.2,0.7c-0.4-0.2-0.2-0.5-0.1-0.8c0.3-0.1,0.6-0.1,0.8-0.4c-0.1-0.1-0.2,0.1-0.3,0.2
			c-0.1-0.1,0-0.2,0-0.3c-0.1,0-0.3,0-0.5-0.1c0.1-0.2,0.3-0.2,0.4-0.3c0.2-0.4-0.3,0.1-0.5-0.3c-0.5,0.1,0.3-0.2,0.6,0
			c0.1-0.3-0.6-0.4-0.1-0.8c0.1,0,0.1,0.1,0.1,0.2c0.8-0.6,1.1,0.5,1.5-0.4c0.1,0.2,0,0.4,0.3,0.5c-0.2,0.3-0.5,0-0.6,0.4
			c0.3,0.7,1.7-0.2,1.8,0.8c-0.1,0.3-0.5-0.1-0.6,0.2c-0.1,0.2,0.2,0,0.4,0.2c-0.1,0.8-0.5,0.4-0.9,1.3c0-0.6-0.7,0.3-0.3-0.4
			c-0.2-0.2-0.5,0.5-0.1,0.5c-0.1,0.1-0.3-0.1-0.4,0.1C4507.5,154.4,4507.1,154.7,4507.1,154.2z"/>
		<path fill-rule="evenodd" clip-rule="evenodd" fill="#649981" d="M4506.2,153.4c-0.2,0.2-0.4,0.5-0.7,0.3c0.4-0.4-0.1-0.6,0.2-1
			C4506.4,152.6,4505.2,153.1,4506.2,153.4z"/>
		<path fill-rule="evenodd" clip-rule="evenodd" fill="#649981" d="M4481.8,141.6c-0.1-0.3,0.2-0.7,0.2-1c0.1,0,0.2,0,0.1-0.1
			c-0.3,0.4-0.7,0.3-1,0.3c0,0.4-0.2,0.4-0.2,1c-0.2-0.1-0.1-0.3-0.3-0.5c-0.1,0.9-0.8,0.7-0.5,1.3c-0.9-0.5-0.1,0.1-0.8,0.2
			c0.3,0.4-0.2,0.3,0,0.7c0.3,0.5,1.1,0.4,1.7,1c0.4-0.3-0.4-0.3,0-0.7c0.4,0.2,0.4-0.1,0.5,0.3c0.2-0.2,0-0.4,0-0.6
			c0.2,0.1,0.3,0.2,0.3,0.4c0.2-0.5,0.4-1,0.1-1.4c0.4,0.2,0.1,0.4,0.5,0.3c0.1-0.9,0.3-0.7,0.3-1.6c0.3,0.2,0.3,0.5,0.6,0.2
			c-0.2-0.1-0.1-0.3-0.3-0.5c-0.2,0.1-0.8,0.4-0.8,0.1c0.1,0,0.2,0,0.1-0.1C4481.9,140.9,4482.2,141.7,4481.8,141.6z M4480,143.8
			c0.1-0.3,0.2-0.2,0.4-0.1c0.1-0.1,0-0.2-0.1-0.2C4481,143.1,4480.4,144.3,4480,143.8z"/>
		<path fill-rule="evenodd" clip-rule="evenodd" fill="#649981" d="M4493,147.7c-0.1,0.1-0.2,0-0.3,0c-0.1,0.4,0.6,0.2,0.6-0.2
			c0.4-0.4-0.3,0.9,0.3,0.4c0.1,0.2,0,0.4,0.3,0.5c-0.1,0.1-0.3,0.1-0.2,0.3c-0.1,0.1-0.2,0-0.1-0.1c-0.3,0.3-0.7,0.1-1,0.3
			c0.1,0.1,0.2,0.5,0.3,0.4c-0.2,0.9-0.9,1-1.5,1.4c-0.1-0.3-0.3-0.6-0.8-0.8c0.2-0.1,0.4,0,0.5-0.3c-0.4-0.3-0.5,0.5-1,0
			c0.3-0.3,1.1-0.1,0.4-0.7c0.7,0.2,0.5,0.2,1.2-0.2c-0.4-0.4-0.5,0.4-0.9,0c0.3-0.4,0.9-0.1,1.3-0.1
			C4491.2,148.1,4492.4,147.6,4493,147.7z"/>
		<path fill-rule="evenodd" clip-rule="evenodd" fill="#649981" d="M4488.2,145.5c-0.4-0.2-0.7,0-1,0c0.1-0.7-1.2-1.3-1.7-1
			c0.1,0.1,0,0.2-0.2,0.3c0.1,0.1,0.4,0.2,0.3,0.4c-0.5-0.2-0.9,0.2-1.3,0.5c0.7,0.3,0.3,1.3,0.4,1.1c0.5-0.2,0.5,0.3,1-0.2
			c0,0.1,0,0.2,0.2,0.3c0.4-0.5-0.5-0.6-0.7-0.4c0.4-0.2,0.2-0.5,0.4-0.5c0.4,0.5,0.7,1.1,0.6,1.4c0.4-0.4,0.2,0.3,0.3,0.4
			c0.6-0.5,1.3-0.1,0.9-1.1c0.2,0.1,0.3-0.1,0.5,0.1c0.3-0.5-0.5-0.9,0.3-0.9C4488.2,145.9,4488.2,145.7,4488.2,145.5z M4486,145.4
			c0.3,0,0.2,0.7,0.5,0.3c0.3,0.4-0.4,0.3-0.4,0.5C4486.1,145.9,4485.8,145.7,4486,145.4z"/>
		<path fill-rule="evenodd" clip-rule="evenodd" fill="#649981" d="M4502.6,155.2c0,0.2,0.4,0.4,0.7,0.2c0.4,0.1-0.4,0.6,0.2,0.6
			c-0.1,0.1-0.3,0.1-0.2,0.3c-0.2,0.2-0.1-0.1-0.4-0.2c0,0.6,0.2,0.5,0.6,0.9c-0.4,0.4-0.8,0.2-0.8,0.8c-0.1-0.6-0.7,0.1-0.8-0.5
			c-0.3,0.6-0.3,0.3-0.3,0c-0.3,0-0.1,0.2-0.4,0.5c-0.1-0.4,0-0.3-0.5-0.4c0.3-0.3,0-1-0.4-0.8c0.4-0.5,1-0.8,1-1.5
			c0.5-0.2,1,0,1.1-0.8C4502.6,154.4,4503.2,155.1,4502.6,155.2z"/>
		<path fill-rule="evenodd" clip-rule="evenodd" fill="#649981" d="M4497.6,152.7c0.1-0.1,0.2,0,0.1,0.1c0.4,0.2,0.6-0.2,1.1,0.3
			c-0.6,0.6-0.3,0.2-0.3,0.9c-0.4-0.3-0.7,0-0.8-0.5c-0.3-0.1,0,0.3-0.4,0.3c0.3,0.3,0.5,0,0.7,0.2c-0.3,0.5-0.9,0-1.2,0.6
			c0.2,0,0.3-0.2,0.6,0c-0.1,0.8-0.7-0.2-0.9,0.6c-0.3-0.7-1.5-0.3-1.3-0.2c-0.4-0.3,0.5-0.9,0.1-1.7c0.2-0.6,1.4,0,1.2-0.6
			c0.2-0.1,1.2-0.1,0.8,0.5c0.1,0,0.2-0.1,0.3,0C4497.7,153,4497.7,152.8,4497.6,152.7z"/>
		<path fill-rule="evenodd" clip-rule="evenodd" fill="#649981" d="M4508.1,159.5c0.2,0.1,0.3-0.3,0.4-0.5c-0.1,1-0.5,1-0.7,1.6
			c-0.2,0.3-0.3-0.3,0-0.6c-0.4,0.1-0.3,0.2-0.4-0.2c-0.2,0-1,0.5-0.4,0.7c-0.3,0.4-0.2-0.3-0.5-0.3c0.2-0.3,0.4-0.3,0.6-0.5
			c0-0.3-0.5-0.5-0.2-1c-0.5,0.2,0.3,1.5-0.8,1.1c0.1-0.1,0.2,0,0.3,0c0.1-0.4-1-0.4-0.8,0.1c-0.3,0.3,0-0.5-0.6-0.5
			c0.1-0.1,0.1-0.3,0-0.3c0.2,0.2,0.5,0.3,0.8,0.5c0.2-0.3-0.1-0.3,0-0.6c-0.1-0.1-0.2,0.1-0.3,0.2c-0.3-0.2,0-0.7,0.2-0.7
			c0.1,0.7,0.5-0.4,1.1-0.4c0.2,0.1,0.5,0.4,0.6,0.2c0.2,0.1-0.1,0.8,0.3,0.5C4507.8,158.9,4507.6,159.2,4508.1,159.5z"/>
		<path fill-rule="evenodd" clip-rule="evenodd" fill="#649981" d="M4490.7,156.5c0.2-0.1,0.5-0.1,0.8,0.1c-0.1-0.4,0.1-0.8-0.1-1.1
			c-0.4-0.2-0.5,0.5-1,0.2c0.2-0.3,0.2-0.1,0.3,0c0-0.6,0.3-0.7,0.7-0.7c0.1-0.2-0.2,0-0.4-0.2c0.1-0.3,1.2-0.3,0.9,0.3
			c0.5,0.1,0.2-0.3,0.6-0.4c-0.2,0-0.5,0-0.7-0.2c0.2-0.2,0.5,0.1,0.6-0.4c0.1,0.9,0.8-0.3,1.1,0.5c-0.2,0.1-0.4,0.1-0.6,0
			c0.2,0.6,0.6,0.5,1.1,0.9c-0.4,0.1-0.8,0.3-1.1,1c-0.7-0.3-1.6,0-1.1,0.6C4491.4,157.2,4491.4,156.8,4490.7,156.5z"/>
		<path fill-rule="evenodd" clip-rule="evenodd" fill="#649981" d="M4479.6,147.8c-0.1-0.7,0.4,0.2,0.9,0.3
			c-0.4-0.5,0.3-0.2,0.1-0.5c0.3-0.3,0.4,0.2,0.1,0.4c0.6-0.2,0.9,0.3,0.8,0.8c0.4,0,0.1-0.5,0.6-0.4c0,0.3,0,0.8,0.4,0.2
			c-0.2,1.3-1.1,1.3-1.8,2c-0.2-0.2-0.2-0.4-0.2-0.6c-0.5-0.1,0.2,0.4-0.2,0.6c-0.3-0.1-0.4-0.3-0.2-0.6c-0.2,0.4-0.5,0.4-1.1,0.4
			c-0.3-0.2-0.1-0.5,0.1-0.8c-0.2,0-0.3,0.2-0.6,0c0.3-0.1,0.3-0.2,0.1-0.5c0.1-0.2,1.1,0.8,1.8,0.6c0-0.2-0.3-0.7,0.2-0.4
			c-0.4-0.6-0.6-0.3-0.9-0.3c-0.1-0.5-0.7-0.1-1.4-0.6c0.2-0.5,0.7-0.1,1.1-0.1c0-0.2,0-0.7,0.4-0.3
			C4479.8,147.9,4479.7,147.6,4479.6,147.8z"/>
		<path fill-rule="evenodd" clip-rule="evenodd" fill="#649981" d="M4486.6,151.3c-0.1-0.3-0.6-0.4-0.9-0.3c0,0.2,0.4,0.8-0.1,0.8
			c0.1-0.7-0.5-0.7-1.1-0.8c0.2,0.1,0.2,0.3-0.1,0.1c-0.3,0.4,0,0.6,0,0.9c-0.2-0.1-0.4-0.3-0.7-0.4c-0.3,0.6,0.4,1-0.3,1.2
			c0.2,0.1,0.3,0.2,0.1,0.4c0.9,0.3,0.8,0.1,1.3,0.8c0.1-0.2,0.3,0,0.4-0.1c-0.2-0.1-0.3-0.3-0.3-0.5c0.4,0.4,0.6-0.2,1,0
			C4486.1,152.6,4485.6,151.3,4486.6,151.3z M4484.1,152.2c0.1,0.1,0,0.2,0,0.3c0.6,0.1,0.7,1,1,0.2c0.5,1-1,0.2-1.2,0.2
			C4483.8,152.8,4484,152.7,4484.1,152.2z"/>
		<path fill-rule="evenodd" clip-rule="evenodd" fill="#649981" d="M4499,160.6c-0.4-0.4-0.2-0.3-0.6-0.2c0.5-0.5,0.2-0.3,0.3-0.9
			c0.2,0.4,0.9,0.6,0.7,0c-0.5,0.2-0.1-0.2,0.2-0.3c-0.2-0.2-0.8-0.2-0.6-0.5c0.2,0.1,0.3-0.2,0.5-0.3c-0.5-0.9-1.2-0.2-1.9-0.2
			c0.2,0.2,0.4,0.3,0.4,0.6c-0.9-0.7-1.4-0.3-2.3-0.9c-0.3,0.3-0.5,0.6-0.4,1c0.2-0.2,0.3-0.1,0.2-0.4c0.2,0.4,0.8,0.1,0.7,0.4
			c-0.3,0.1-1.2-0.1-1,0.5c0.3-0.1-0.1,0.5-0.2,0.6c0.1-0.2,0.5,0,0.4,0.2c-0.2,0.1-0.9,0.3-0.6,0.7c0.1-0.3,0.3-0.4,0.6-0.2
			c0.2-0.2,0.2-0.8,0.5-0.6c-0.2,0.4-0.4,1.1-0.8,1.3c0.5,0.2,0.3-0.6,1-0.5c0.1,0.3,0.6,0.5,1,0.7c0.2-0.2,0-0.4,0-0.6
			C4498.2,161.7,4498.4,160.8,4499,160.6z M4497.5,161.3c-0.2-0.1,0.1-0.4,0.2-0.6c0.2,0.1,0.4,0.2,0.5,0.1
			C4498.5,161.4,4497.6,160.9,4497.5,161.3z M4497,159.5c0.2-0.4,0.4-0.3,0.8-0.1c-0.2,0.2,0,0.3-0.1,0.5c0.1,0.1,0.2-0.1,0.3-0.2
			c0.1,0.1,0.1,0.2,0.2,0.3c-0.1,0.1-0.1,0.2-0.2,0.3C4497.4,159.9,4497.6,159.5,4497,159.5z M4497.4,160.6
			c-0.2-0.1-0.3,0.3-0.4,0.5c-1.1-0.4-0.1-0.9-0.8-1.1c0.2-0.3,0.9,0.2,1.3,0.2c0.2,0.1-0.2,0.4,0,0.6
			C4497.4,160.8,4497.4,160.6,4497.4,160.6z"/>
		<path fill-rule="evenodd" clip-rule="evenodd" fill="#649981" d="M4500.5,162.9c0.1,0.1,0,0.3-0.1,0.5c0.5,0.4,1.3,0.6,1.2,0
			c0.5,0.1,0.6,0.2,0.7,0.6c0.1-0.1,0.1-0.2,0.2-0.3c0.1,0,0.2,0.1,0.2-0.1c-0.2-0.1-0.3-0.3-0.3-0.5c0.7,0.4,0.1,0,0.4-0.3
			c0.3-0.1,0.5,0.4,1,0.2c-0.1-0.1-0.3-0.2-0.2-0.3c0.1,0,0.2,0.1,0.2-0.1c-0.8-0.3-0.1-1-0.2-1.2c-0.4-0.2-0.8-0.1-1.1-0.5
			c-0.3,0.3-0.6,0.6-0.9,0.7c0.1-0.1-0.1-0.2-0.2,0.1c0.4,0.2,1,0.4,0.8,0.8c-0.5-0.5-0.6-0.3-0.8-0.1c-0.1-0.1-0.3-0.2-0.2-0.3
			c0.1,0.1,0.2-0.1-0.1-0.2c-0.1,0.2-0.3,0.4-0.4,0.7c0.2,0.2,0.5,0,0.4,0.2C4500.9,162.8,4500.7,162.8,4500.5,162.9z M4501.4,163
			c-0.2,0.1-0.4,0.3-0.2,0.4C4500.6,163.7,4500.8,162.4,4501.4,163z"/>
		<path fill-rule="evenodd" clip-rule="evenodd" fill="#649981" d="M4486.7,152.1c-0.1,0.3-0.2,0.2-0.4,0.1
			c-0.1,0.2,0.2,0.3,0.3,0.4c-0.1,0.1-0.3-0.1-0.4,0.1C4485.9,152.4,4486.2,151.7,4486.7,152.1z"/>
		<path fill-rule="evenodd" clip-rule="evenodd" fill="#649981" d="M4474.7,150.8c0.2-0.4,0.5,0.7,0.7,0.4c0.2,0.1,0,0.3-0.2,0.3
			c-0.1,0.2,0.3,0.3,0.5,0.4c-0.1-0.4,0.2-0.3,0.4-0.7c-0.1-0.1-0.2,0.1-0.3,0.2c-0.1-0.2-0.4-0.4-0.7-0.6c0.7-0.5,1.3-0.3,1.7,0.4
			c0.4,0.1-0.2-0.5,0.3-0.5c0.1,0.3,0.1,0.7,0,1c-0.5-0.3-0.1,0.1-0.4,0.3c-0.1-0.3-0.1-0.6-0.2-0.8c-0.4,0.2,0.3,0.9-0.6,0.7
			c0,0.4,0.6,0.1,0.5,0.6c0.5-0.1,0.6-0.3,0.9-0.6c0,0.4-0.1,0.9,0,1.2c-0.3,0.2-0.7-0.8-1,0.3c-0.2-0.2-0.2-0.4,0-0.7
			c-0.3,0.1-0.5,0.3-0.6-0.2c-0.2,0.4,0.2,0.7,0.3,1c-0.4-0.4-0.8-1-1.9-1.1c0.2-0.3,0.5-0.1,0.7-0.3c-0.4-0.1-0.9,0.2-0.6-0.5
			c-0.4-0.3-0.4,0.4-0.8-0.1c0.2-0.1,0.3-0.2,0-0.3c0.2-0.3,0.6,0.3,0.9,0.3c0-0.3-0.8-0.6-0.1-0.8c0,0.6,0.4,0.3,0.8,0.5
			C4474.8,151.2,4474.7,151,4474.7,150.8z"/>
		<path fill-rule="evenodd" clip-rule="evenodd" fill="#649981" d="M4487.6,157.4c0.2-0.2,0.4,0.4,0.6-0.2c0.1,0.2,0.4,0.4,0.7,0.6
			c-0.2,0.3-0.6,0-1-0.2c-0.3,0.8-0.8,1.2-1.4,1c-0.1-0.4,0.2-0.2,0.4-0.5c-0.4-0.4-0.6,0.3-1,0.2c0,0.3,0,0.6,0.4,0.8
			c-0.1,0.3-0.4,0-0.5,0.3c-0.1-0.3,0.2-0.8-0.3-0.4c0-0.2,0.2-0.6,0.3-1.1c-0.3,0-0.7-0.2-0.8,0.2c-0.1-0.2-0.1-0.4,0-0.7
			c-0.3-0.1-0.5,0.1-0.8-0.1c0-1,1.2-0.3,1.1-0.1c-0.1,0.2,0.3,0.3,0.5,0.4c-0.3-0.2,0.1-0.6,0-0.9c0.1-0.2,0.7,0.4,0.5,0.6
			c0.5,0.1,0.3-0.6-0.2-0.6c0.3-0.2,0.6-0.2,1,0c-0.1,0.2-0.3,0.4-0.4,0.7c0.4,0,0.3,0.1,0.9,0.3
			C4487.7,157.6,4487.7,157.5,4487.6,157.4z"/>
		<path fill-rule="evenodd" clip-rule="evenodd" fill="#649981" d="M4493,161.3c-0.1,0.4-0.4,0.1-0.6,0.4c0-0.5-0.3-0.4-0.6-0.2
			c-0.2-0.6,0.8-0.4,0.9,0c0.3-0.4-0.3-0.7-0.3-1c-0.5-0.1,0.2,0.4-0.2,0.6c-0.3-0.5-0.2-0.4-0.7,0c-0.1-0.1,0-0.2,0-0.3
			c-0.2-0.1-0.4-0.1-0.6,0c0.4,0.4,0.1,0.9,0.7,0.9c-0.3,0.2-0.5,0.5-0.9,0.4c0.1-0.2,0.4-0.5,0.2-0.6c-0.3-0.1,0,0.3-0.4,0.3
			c0.1,0.4,0.1,0.7,0.7,0.7c-0.1,0.1-0.2,0.3-0.2,0.4c-0.4-0.2-0.4-0.7-1.1-0.8c-0.1-0.5,0.2-0.5-0.1-0.8c0.6-0.2,0.3-1.1,1.3-0.8
			c0.4-0.3-0.4-0.3,0-0.7c0.5,0.4,0.9,0.4,1.1-0.1c0.1,0.7,0.5,0.1,0.7,0.6C4492.7,160.7,4492.7,160.6,4493,161.3z"/>
		<path fill-rule="evenodd" clip-rule="evenodd" fill="#649981" d="M4495.5,165.2c0.2,0.1,0.4,0.3,0.5,0.4c0.3,0,1.1-1,0.5-0.9
			c0.4,0.4-0.7,0.5-0.6,0c0.8,0.3-0.1-0.4,0-0.6c0.5,0.2,0.5-0.2,0.9,0.3c-0.1-0.7-0.4-1.2-0.8-0.5c-0.4-0.6,0.6-0.9,0.3-1.4
			c-0.2,0.3-0.5,0.1-0.7,0.3c0.1,0.1,0.4,0.2,0.3,0.4c-0.5-0.4-0.7-0.1-1,0c0.6,0.3-0.1,0.4-0.2,0.4c0.4,0.4-0.2,0.3,0,0.7
			c-0.2-0.1-0.3-0.2-0.3-0.4c0,0.4-0.7,0.5-0.4,0.7c0.1-0.1,0.3,0,0.3,0.2c-0.2,0-0.4,0-0.6,0c0.1,0.1,0.1,0.2,0,0.3
			c0.2,0.4,0.7-0.4,0.6,0.2c-0.3,0.1-1,0.3-0.9,0.6c0.4,0,0.5-0.2,0.7-0.3c0.1,0.1,0,0.3-0.1,0.5c0.5-0.1,0.6,0.2,1,0.2
			C4494.3,165.5,4496.2,165.9,4495.5,165.2z M4495.3,164.9c-0.2-0.2-0.2-0.4-0.4-0.6C4495.3,163.9,4495.6,164.5,4495.3,164.9z"/>
		<path fill-rule="evenodd" clip-rule="evenodd" fill="#649981" d="M4482.1,155.2c-0.3,0-0.5,0.3-0.8,0.4
			C4480.9,155.2,4481.7,155,4482.1,155.2z"/>
		<path fill-rule="evenodd" clip-rule="evenodd" fill="#649981" d="M4501.3,166.1c-0.1,0.2,0.1,0.1,0.1,0.1c0.3,0.4-0.4,0.3-0.4,0.5
			c0.3,0.2,0.4-0.1,0.7,0.2c-0.3,0.5-0.1,0.3,0.3,0.5c-0.2,0.1-0.4,0.3-0.2,0.4c-0.3,0.3-0.4-0.3-0.7-0.4c0.2,0.3-0.1,0.6,0.4,0.8
			c-0.8,0-1.2,0.4-1.3,0.4c-0.5,0.3-0.1-0.5-0.4-0.6c0.3-0.1,0.6,0.1,0.9,0c0.2-0.5-0.4-0.7-0.6-1.1c0.2-0.4,0.6-0.4,0.7-1
			c0.2,0.2,0.4,0,0.6,0.2C4501.5,166.2,4501.4,166.2,4501.3,166.1z"/>
		<path fill-rule="evenodd" clip-rule="evenodd" fill="#649981" d="M4479.8,155.3c0.2-0.3,0.2-0.6,0.1-0.8c-0.2,0.4-0.5,0.2-0.8,0.1
			c-0.2,0.2-0.3,0.9-0.6,0.5c-0.1,0.6,0.4,0.7-0.4,0.7c0.4,0.7,0.2,0.3,0.7,0.2c0.1,0.4-0.1,0.2-0.3,0.5c0.1,0.1,0.3,0.2,0.4,0.2
			c0.2-0.2,0-0.4,0.2-0.6c0.1,0.4,0.3,0.2,0.6,0.2c-0.5,0.2-0.5,0.8-0.4,0.5c0.4-0.3,0.4,0.3,0.5,0.4c0.3-0.7,0.7-0.6,0.9-0.6
			c-0.2-0.3,0.7-0.7,0.3-1.2c-0.4,0.8-0.3-0.8-0.9-0.3c0.3,0,0.3,0.7,0,0.6C4480.2,155.3,4480,155.2,4479.8,155.3z M4479.2,155.1
			c0.2,0.3,0.6,0.2,0.7,0.7C4479.6,156,4478.9,155.4,4479.2,155.1z"/>
		<path fill-rule="evenodd" clip-rule="evenodd" fill="#649981" d="M4483.9,157.4c0.2-0.1,0.4,0.1,0.9,0.3c-0.1,0.3,0.3,0.4,0,0.7
			c0.2,0,0.3-0.1,0.5-0.3c0.1,0.1,0.1,0.3,0.3,0.2c0.2,0.4-0.7,0-0.8,0.4c-0.2-0.1-0.4-0.3-0.7-0.4c0.3-0.1,0.4-0.5,0.6,0
			c0.2-0.3-0.3-0.4-0.2-0.6C4484.2,158,4484.1,157.9,4483.9,157.4z"/>
		<path fill-rule="evenodd" clip-rule="evenodd" fill="#649981" d="M4475.4,156.8c-0.1,0.1-0.2,0.4-0.4,0.3
			c-0.4-0.2-0.5-0.8-1.3-0.9c0.3-0.4,0.4-0.6,0.3-1.1c-0.1,0.1-0.2,0.4-0.4,0.3c0.3-0.6-0.3,0-0.5-0.3c0.1-0.2,0.2-0.4,0.3-0.5
			c-0.4,0.2-0.4,0.1-1,0.2c0.1,0.2,0.6,0.8,0.1,0.8c0-0.1,0.1-0.3,0-0.3c-0.1,0.1-0.3,0-0.5-0.1c0.1-0.2,0.2-0.4,0.1-0.5
			c-0.6-0.1-1.4,0.2-1.4,1c-0.1-0.3-0.2-0.3-0.5-0.1c0.2,0.1-0.1,0.4-0.2,0.6c0.9,0.5,1.5,1,1.8,1.9c0.3-0.8,0.8,0.2,0.8-0.4
			c0.1,0.2,0.3,0.4,0.6,0.5c-0.3,0.1-0.5,0.4-0.2,0.6c0.1-0.1,0.2,0,0.3,0.2c0.4-0.2,0.1-0.6,0.5-0.6c0.1,0.1,0.2,0.3,0,0.6
			c0.8,0.5,0.3-0.3,1.3,0.2c0.5-0.3,1.3-1,1.8-0.4c-0.2-0.2,0.1-1.2,0.5-1.3c-0.1,0.2-0.2,0.4-0.1,0.5c0.2-0.1,0.4-0.3,0.5-0.6
			c-0.5-0.3-0.9,0.1-1.3,0.1c-0.4-0.6,0-0.4-0.5-1c-0.2,0.4-0.6,0.2-0.7,0C4475.3,156.8,4474.8,156.8,4475.4,156.8z M4476,156.7
			c0,0.4,0.8,0.6,0.2,1.2c0.1-0.6-0.5-0.5-0.9-0.5C4475.4,156.8,4475.7,156.8,4476,156.7z M4473,156.3c-0.1,0.5-0.4,1-0.7,0
			c0.1,0.4,0,0.8,0.5,1c0.5,0.2-1-0.4-0.8,0.4c-0.2-0.5-0.2-1,0-1.6c0.5-0.2,0.6,0.3,1.1-0.1c0.1,0.1,0.1,0.2,0.2,0.3
			c-0.1,0.1-0.1,0.2-0.2,0.3C4473.1,156.5,4473,156.4,4473,156.3z"/>
		<path fill-rule="evenodd" clip-rule="evenodd" fill="#649981" d="M4497.3,169.7c-0.1,0.5,0,0.3-0.4,0.5c-0.2,0.3,0.4,0.3,0.6,0.5
			c0-1,1.5,0,2-0.7c0.3,0.2,0.5,0.5,0.7,0.7c-0.2,0-0.9,0.3-0.3,0.5c0.1-0.1,0-0.2-0.1-0.2c0.6,0.4-0.6,0.3-1-0.4
			c-0.1,0.2-0.2,0.4-0.1,0.5c0.2,0.1,0-0.3,0.3-0.2c0.5,0.2-0.4,0.6,0.2,1c-0.2-0.1-0.7,0-0.6,0.4c-0.5,0.5-0.1-0.7-0.4-0.2
			c-0.3-0.3,0.3-0.1,0.4-0.3c-0.3,0.1-1.3,0-1.1,0.4c-0.5,0.2-0.2-0.3,0.1-0.5c-0.3,0-0.6,0-0.8,0.4c-0.8-0.3-0.7-0.4-1.2-1.2
			c-0.3-0.6,0.2,0.5,0.5,0.1c0.1,0.2-0.3,0.3,0.4,0.6c-0.1-0.6-0.2-0.6,0.4-1c-0.6,0.1-0.4-0.1-0.6-0.2c-0.1-0.1,0.1-0.3-0.1-0.4
			c0.4-0.4,0.3,0.1,0.7,0.2c-0.4-0.6,0.5-0.1,0.7-0.7c0.2,0.1,0.4,0.2,0.5,0.3C4497.7,170,4497.5,169.7,4497.3,169.7z"/>
		<path fill-rule="evenodd" clip-rule="evenodd" fill="#649981" d="M4489.6,167c-0.2-0.3,0.7,0.1,0.5-0.6c0.1,0.3,0.8,0.5,0.7,0.9
			C4491.1,167.7,4489.9,166.5,4489.6,167z"/>
		<path fill-rule="evenodd" clip-rule="evenodd" fill="#649981" d="M4492.1,167.3c-0.5-0.5,0.3-0.8-0.8-1c0.3,0.1,0.3,1,0,0.9
			c0-0.3,0.2-0.7-0.2-0.8c-0.4,0.6,0.4,0.5,0,1.2c-0.1-0.1-0.2,0-0.3,0c-0.2-0.6-1.4-0.6-1.3-0.2c0.1-0.1,0.4-0.2,0.3,0
			c-0.3-0.1-0.5,0.2-0.6,0.5c0.2,0.8,1.5,0.6,1,1.3c0.6,0.1,0.8-1,1.5-0.4c0.1-0.2,0.3-0.5,0.2-0.6c-0.1,0.3-0.5-0.3-0.5-0.4
			C4491.4,167.6,4491.7,167.4,4492.1,167.3z M4490.1,167.4c0.3,0.2,0.1,0.2,0,0.3c0.3,0.1,0.5,0.2,0.7,0c0.3,0.3,0,0.3-0.2,0.6
			c0.5,0.6-0.3-0.2-0.7-0.4C4490.1,167.8,4489.9,167.6,4490.1,167.4z"/>
		<path fill-rule="evenodd" clip-rule="evenodd" fill="#649981" d="M4492.1,166.9c0.4-0.2,0.4,0,0.7,0.2c-0.2,0.3-0.4,0.3-0.7,0.3
			c0,0.1,0.2,0.7,0.3,0.4c0.3,0.2-0.3,0.1-0.3,0.5c-0.1,0.6,0.2-1.2-0.5-0.4C4491.4,167.2,4492.9,167.6,4492.1,166.9z"/>
		<path fill-rule="evenodd" clip-rule="evenodd" fill="#649981" d="M4484.8,162.9c-0.2-0.4,0.2,0.1,0.4,0.2c-0.4,0,0,0.6-0.5,0.3
			c-0.1,0.1,0.1,0.2,0.2,0.3c0.2,0.1,0.3-0.2,0.4-0.3c0.2,0.6,1.1,0.5,1,1.3c0.5,0.1-0.2-0.4,0.2-0.6c0.3,0.3,0.4,0.6,0.2,1
			c-0.3-0.1-0.5-0.2-0.7,0c0.1,0.7,0.6-0.2,1,0.2c-0.5,0-0.5,0.6-0.1,0.5c0.4,0.2-0.5,0.2,0.1,0.4c-0.7,0.2-0.6,0.6-1.7-0.4
			c0.1-0.1,0.4-0.1,0.5-0.3c0.1-0.9-1.2-0.1-1.7-0.8c-0.2,0.2,0.4,0.8,0.6,0.5c0.1-0.3-0.1,0.3-0.2,0.7c0.8-0.1-0.3,0.2,0,0.6
			c0.2,0.1,0.3-0.3,0.4-0.5c0.2,0.1,0.4,0.2,0.5,0.3c-0.1,0.3-0.6,0.7-0.3,0.9c-0.5,0-0.9-0.4-1.1-0.9c-0.2,0.4,0.3,0.5-0.2,1
			c-0.1-0.4-0.5-0.3-0.8-0.5c0.1-0.1,0.3-0.1,0.4-0.3c0.2,0.1,0.2,0.3,0.3,0.4c0-0.1-0.1-0.2,0-0.3c-0.5-0.2-0.8,0-1.1-0.5
			c0.2-0.2,0.5,0.2,0.6-0.2c-0.2-0.2-0.5,0-0.5-0.6c0.2-0.1,0.3-0.2,0.6,0c0.1-0.5-0.1-0.3-0.5-0.4c0.5-0.4,0.7-0.6,0.4-1.4
			c0.4,0.2,0.7,0.5,0.4,0.9c0.4-0.3,0.5-0.7,0.7-1.2c0.3,0,0.4,0,0.5,0.3C4484.9,163.1,4484.9,163,4484.8,162.9z"/>
		<path fill-rule="evenodd" clip-rule="evenodd" fill="#649981" d="M4486.1,166.4c0.3,0.2-0.4,0.2-0.4,0.7c-0.5-0.1,0-0.5,0.1-0.8
			C4485.9,166.4,4485.9,166.5,4486.1,166.4z"/>
		<path fill-rule="evenodd" clip-rule="evenodd" fill="#649981" d="M4480.9,161.4c-0.1-0.1-0.2,0-0.3,0c-0.3-1.2-0.9,0.8-1.6,0.3
			c-0.1,0.2-0.2,0.4-0.3,0.5c0.4,0.9,1.7,0.8,2.6,0.4c-0.2-0.4-0.6,0.4-0.5-0.1c1.3,0,0.3-0.9,1.6-0.9c-0.6-0.4-0.9,0.1-1.4-0.1
			c0.2-0.2,0.2-0.9-0.2-0.6C4480.9,161.1,4480.9,161.2,4480.9,161.4z M4480.7,162.1c0.3,0.5-1,0.2-1-0.2
			C4480,161.7,4480.3,162.5,4480.7,162.1z"/>
		<path fill-rule="evenodd" clip-rule="evenodd" fill="#649981" d="M4502.2,144.6c0.6,0.2,0.1,0.9-0.2,1c-0.3-0.4-0.4-0.2-0.6-0.5
			C4501.6,144.8,4502,145.1,4502.2,144.6z"/>
		<path fill-rule="evenodd" clip-rule="evenodd" fill="#649981" d="M4501.4,149.6c0.1,0.5,0.8-0.5,1.2,0c-0.3,0.5-0.6,0.6-0.8,1.1
			c-0.3,0-0.6-0.2-0.7,0.3c-1.3-0.1-1.2-0.9-1.6-0.7c-0.1-0.7,0.8-0.4,0.5-1.1c0.5,0.3,0.1-0.1,0.4-0.3c0.4,0.4,0.6,0.1,1,0.4
			c-0.1-0.3,0.1-0.2,0.2-0.4c0.1,0.1,0,0.2,0,0.3c0.3,0.1,0.4-0.6,0.6-0.5C4502.8,149.2,4501.7,149.4,4501.4,149.6z"/>
	</g>
	<g>
		
			<rect x="4444.6" y="164.5" transform="matrix(-0.8723 -0.4891 0.4891 -0.8723 8266.2764 2520.9802)" fill="none" width="35.5" height="32.7"/>
		<path fill-rule="evenodd" clip-rule="evenodd" fill="#649981" d="M4467.1,170.4c-0.1,0.2-1-0.2-0.6-0.5c0.2,0.1,0.2,0.3,0.3,0.4
			c0.1-0.3-0.3-0.4,0-0.7C4467.2,169.8,4467,170.1,4467.1,170.4z"/>
		<path fill-rule="evenodd" clip-rule="evenodd" fill="#649981" d="M4482,179.1c-0.1-0.2-0.3-0.4-0.1-0.8
			C4482.3,178.5,4482.2,178.7,4482,179.1z"/>
		<path fill-rule="evenodd" clip-rule="evenodd" fill="#649981" d="M4467.4,185.9c0.2,0.5-0.9,0-1.2,0
			C4466.6,185.6,4467.2,185.9,4467.4,185.9z"/>
		<path fill-rule="evenodd" clip-rule="evenodd" fill="#649981" d="M4458.7,186.1c0.3,0.4-0.4,0.4-0.5,0.8
			C4457.9,186.4,4458.4,186.5,4458.7,186.1z"/>
		<path fill-rule="evenodd" clip-rule="evenodd" fill="#649981" d="M4445.2,184c0.1,0.1,0.1,0.3,0.3,0.2c0.3,0.3-0.4,0.5-0.6,0.2
			C4445,184.3,4445.1,184.2,4445.2,184z"/>
		<path fill-rule="evenodd" clip-rule="evenodd" fill="#649981" d="M4441,185c0.3-0.2,0.9,0.3,0.5,0.6
			C4441,185.5,4441.2,185.2,4441,185z"/>
		<path fill-rule="evenodd" clip-rule="evenodd" fill="#649981" d="M4458.8,161.3c-0.6-0.5-0.5-0.9-0.7-1.6
			c-0.4,0.9-0.2-0.3-0.9-0.3c-1.2,0.5-1.2,0.2-2.1,1.8c0.4,0.4,0.4-0.3,0.8-0.1c-0.1,0.2-0.3,0.4-0.4,0.7c0.5,0.4,1,0.7,1.6,0.7
			c-0.1-0.1-0.2-0.3,0-0.6c0.2,0.1,0.1,0.3,0.3,0.5C4458.4,162.2,4457.7,162.2,4458.8,161.3z M4457,160.5c0.7,0.2-0.2,0.8,0.1,1.1
			C4456.7,161.7,4456.3,160.7,4457,160.5z"/>
		<path fill-rule="evenodd" clip-rule="evenodd" fill="#649981" d="M4469.5,167.1c0,0.2,0.5,0.3,0.2,0.6c-0.2-0.1-0.2-0.3-0.3-0.4
			c-0.3,0.4,0.2,0.5-0.1,0.8c-0.3-0.4-0.6,0-0.9,0.4c-0.1,0.3,0.1,0.4,0.4,0.6c-0.3,0.1-0.3,0.4-0.2,0.6c-0.1,0.1-0.2,0-0.1-0.1
			c-0.4,0.1-0.6,0.9-1,0.8c-0.2-0.4-0.1-0.9-0.4-1.3c-0.4,0.1-0.6,0.5-1.3,0.1c0.3-0.2,0.4-0.9,0-0.6c-0.4-0.3,0.9-0.3,0.4,0.2
			c0.6,0,0-0.5,0-0.7c-0.2-0.1-0.4-0.1-0.6,0c-0.3-1.1,0.3-0.5,0.4-1.4c0.4,0.2,0.4-0.1,0.5,0.3c-0.1-0.7,0.8-0.6,1.1-1
			c0.7,0.4,0.3,0.7,1,0.4c0.2,0.2-0.1,0.3-0.2,0.4C4468.9,167,4469.1,167.7,4469.5,167.1z"/>
		<path fill-rule="evenodd" clip-rule="evenodd" fill="#649981" d="M4472.5,172.4c-0.2-0.4-0.7-0.1-0.7-0.6c0.7,0.2,1.4-0.1,1.9,0
			c0.2-0.3,0.4-0.6,0.5-0.9c-0.3-0.1-0.2-0.3,0-0.3c-0.6-0.3-0.1-0.3-0.1-0.8c-0.6,0.5-0.6-0.2-1-0.2c0.1,0.1-1.2,0.2-1.4,0.1
			c-0.2,0.2,0,0.4,0,0.6c-0.4-0.2-0.4,0.8-1.1,0.6c0.1,0.3,0.5,0.4,0,0.6c0.4,0.4,0.3,0.1,0.2,0.6c-0.2-0.1-0.2-0.4-0.3,0
			c-0.1,0.3,0.8,0.1,0.1,0.4c0.3,0.1,0.2,0.4,0.4,0.2c-0.4-0.2,0.8-0.5,0.3,0c0.2,0.2,0.4,0,0.6,0.2
			C4472.2,172.6,4472.4,172.4,4472.5,172.4z M4472.5,170.6c0.3-0.2-0.3,0.6-0.4,0.7c-0.1-0.1-0.1-0.3-0.3-0.4
			C4472,170.8,4472.3,170.8,4472.5,170.6z"/>
		<path fill-rule="evenodd" clip-rule="evenodd" fill="#649981" d="M4461.5,166.9c-0.4-0.2,0-0.6,0-0.9c-0.3,0-0.7,0.2-0.5-0.3
			c-0.4,0.2-0.6,0-0.6,0.5c-0.2-0.9,0.2-1,0.2-1.9c0.1-0.3,0.3-0.4,0.6-0.2c-0.6-0.2-0.2-0.8,0.4-1c0.9,0.4,1.3,1.3,1,1.6
			c0.2,0,0.4,0,0.7,0c0-0.2-0.9-0.3-0.4-0.9c0,0.5,0.3,0.6,0.6,0c0.5,0.1-0.1,0.6,0.5,0.6c-0.3,0.3-0.5,0.7-0.9,0.7
			c-0.1,0.3,0.3,0,0.3,0.4c-0.2,0.4-1,0.5-0.7,1C4462.2,166.7,4461.5,166.2,4461.5,166.9z"/>
		<path fill-rule="evenodd" clip-rule="evenodd" fill="#649981" d="M4481.6,177.3c0.1-0.1,0.2,0,0.1,0.1c0.4,0.1,0.4-0.6,0.2-0.7
			c0.7-0.1,1.2-0.5,2-0.1c-0.3,0.5,0.2,0.9,0.7,0.9c-0.7,0.6-2.3,0.5-2.2,1.4c-0.3-0.2-0.1-1.1-0.7-0.6
			C4481.8,177.9,4482,177.7,4481.6,177.3z"/>
		<path fill-rule="evenodd" clip-rule="evenodd" fill="#649981" d="M4477.2,175c-0.5,0.1,0.1,1.1-0.6,1.1c-0.5-0.3,0.6-0.3,0.2-0.6
			c-0.3,0-0.1,0.2-0.4,0.5c-0.1-0.2-0.1-0.5-0.3-0.7c0.2-0.2,0.3,0.1,0.4,0.2c0-0.1,0.1-0.2,0.2-0.3c0.1-0.3-0.3,0-0.3-0.4
			c0.6-0.4-0.1-0.3,0.3-0.9c0.2,0.1,0.2,0.3,0.3,0.4c0-0.4-0.1-0.6,0.3-0.9c0.5,0.5,1.3,0.2,1.8,0.3c0.3,0.2-0.2,0.6,0.1,0.8
			c-0.4,0-0.4,0.1-0.5,0.6c-0.3-0.1-0.2-0.3-0.5-0.4c-0.3,0.3,0.1,0.4,0.2,0.6c-0.1,0.1-0.3,0.1-0.4,0.3c-0.1-0.2-0.2-0.3-0.5-0.4
			c-0.2,0.3,0,0.4,0.3,0.5C4477.4,175.9,4477,175.2,4477.2,175z"/>
		<path fill-rule="evenodd" clip-rule="evenodd" fill="#649981" d="M4468.5,168.9c0.1-0.2,0.4,0.1,0.6,0.2c-0.5,0.4,0.3,0.5-0.2,1
			C4468.7,169.6,4469.2,169.1,4468.5,168.9z"/>
		<path fill-rule="evenodd" clip-rule="evenodd" fill="#649981" d="M4455.8,166.7c-0.4,0.4,0.2,0.5,0.1,0.8
			c-0.8-0.3-0.7,0.5-1.3,0.7c0.6,0.3,0.3,0.3,0,0.3c0.3,0.1,0.5,0.3,0.6,0.5c0.4,0,0-0.4,0.4-0.3c0.1,0.1,0.2,0.1,0.3,0.2
			c-0.1,0.2-0.2,0.3-0.4,0.3c0.6,0.4,0.9,0.2,1.1,0.3c-0.2-0.4-0.6-0.7-0.4-1.3c0.3,0.3,0,0.8,0.6,1.1c0.6-0.3,0.4-0.6,1-0.8
			c-0.1-0.4-0.6-0.4-0.9-0.5c0.1-0.1,0-0.2,0-0.3c0.2-0.1,0.4-0.1,0.6-0.2c-0.1-0.1,0-0.2,0.2-0.3
			C4456.7,167.3,4456.7,166.7,4455.8,166.7z M4456.9,168.2c0.3,0.1-0.2,0.5-0.2,0.7C4456.3,168.7,4456.6,168.2,4456.9,168.2z"/>
		<path fill-rule="evenodd" clip-rule="evenodd" fill="#649981" d="M4467.1,173c0.3,0.2-0.4,0.3-0.4,0.5c0,0.2,0.3,0.8,0.6,0.5
			c0.1-0.4-0.5,0-0.5-0.4c0.2-0.1,0.4,0,0.5-0.3c0.1,0.1,0.1,0.4,0.3,0.5c0.3-0.1,0.7,0,0.9-0.6c0.1,0.2,0,0.4,0.3,0.5
			c-0.9,1.2-0.4,1-1.1,1.9c-0.1-0.1,0-0.3,0.1-0.5c-0.5,0-0.4,0.7-0.5,0.9c0-0.7-1.1-0.1-1.3-0.8c0.4,0.1,0.2,0,0.1-0.5
			c-0.5-0.1-0.3,0.1-0.4,0.5c-0.2-0.3-0.2-0.7,0.1-0.8c-0.2,0-0.4,0-0.5,0.3c-0.3-0.2,0-0.5-0.4-0.6c0.1-0.1,0.5,0,0.3-0.2
			c0.1-0.1,0.7,0.1,0.4-0.3c0.2-0.2,0.1,0.1,0.3,0.2c0-0.1,0.6-0.5,0.5-0.8c0.3-0.4,0.3,0.6,0.6,0
			C4466.7,173.2,4466.8,173.2,4467.1,173z"/>
		<path fill-rule="evenodd" clip-rule="evenodd" fill="#649981" d="M4465.3,175c-0.1,0.2-0.4,0.5-0.2,0.6c0.3,0.1-0.5-0.2-0.7-0.6
			C4464.6,174.8,4464.8,174.6,4465.3,175z"/>
		<path fill-rule="evenodd" clip-rule="evenodd" fill="#649981" d="M4462.6,170.5c0,0.3,0.2,0.9-0.2,1c0.1,0.1,0.7-0.1,0.4-0.3
			c0.9,0.2-0.6,0.7,0,1.2c-0.2,0.2-0.3-0.1-0.4-0.2c0,0.5,0,0.8-0.6,0.7c0.1,0.2-0.1,0.4,0,0.6c0.1,0.5-0.3-0.4-0.6-0.5
			c-0.4,0.3,0.1-0.4,0.3,0c0.1-0.2-0.3-0.4-0.4-0.2c0.6-0.5-0.1-1-0.4-1.8c0.2-0.4,0.6-0.1,0.8-0.4c0,0.2,0.5,0.3,0.2,0.6
			c0.5,0.1,0-0.4,0.3-0.5c0.5,0.1-0.1,0.5,0.4,0.6C4462.4,170.9,4462.5,170.7,4462.6,170.5z"/>
		<path fill-rule="evenodd" clip-rule="evenodd" fill="#649981" d="M4460.8,171.3c0.1,0.1,0,0.2-0.1,0.1c-0.1,0.3,0.4,0.3,0.4,0.6
			c-0.2,0.3-0.5,0.1-0.8-0.1c0.1-0.1,0.2,0,0.3,0c0.1-0.2-0.2-0.3-0.3-0.4C4460.5,171.4,4460.7,171.4,4460.8,171.3z"/>
		<path fill-rule="evenodd" clip-rule="evenodd" fill="#649981" d="M4477.4,182.2c-0.2-0.1-0.2,0.7-0.7,0.3c0.2-0.3,0.5-0.3,0.6-0.7
			c-0.2-0.2-0.4,0-0.6-0.2c-0.3,0.3,0,0.5-0.2,0.7c-0.4-0.2-0.2-0.5-0.1-0.8c0.3-0.1,0.6-0.1,0.8-0.4c-0.1-0.1-0.2,0.1-0.3,0.2
			c-0.1-0.1,0-0.2,0-0.3c-0.1,0-0.3,0-0.5-0.1c0.1-0.2,0.3-0.2,0.4-0.3c0.2-0.4-0.3,0.1-0.5-0.3c-0.5,0.1,0.3-0.2,0.6,0
			c0.1-0.3-0.6-0.4-0.1-0.8c0.1,0,0.1,0.1,0.1,0.2c0.8-0.6,1.1,0.5,1.5-0.4c0.1,0.2,0,0.4,0.3,0.5c-0.2,0.3-0.5,0-0.6,0.4
			c0.3,0.7,1.7-0.2,1.8,0.8c-0.1,0.3-0.5-0.1-0.6,0.2c-0.1,0.2,0.2,0,0.4,0.2c-0.1,0.8-0.5,0.4-0.9,1.3c0-0.6-0.7,0.3-0.3-0.4
			c-0.2-0.2-0.5,0.5-0.1,0.5c-0.1,0.1-0.3-0.1-0.4,0.1C4477.8,182.4,4477.4,182.7,4477.4,182.2z"/>
		<path fill-rule="evenodd" clip-rule="evenodd" fill="#649981" d="M4476.5,181.3c-0.2,0.2-0.4,0.5-0.7,0.3c0.4-0.4-0.1-0.6,0.2-1
			C4476.7,180.5,4475.5,181.1,4476.5,181.3z"/>
		<path fill-rule="evenodd" clip-rule="evenodd" fill="#649981" d="M4452.1,169.5c-0.1-0.3,0.2-0.7,0.2-1c0.1,0,0.2,0,0.1-0.1
			c-0.3,0.4-0.7,0.3-1,0.3c0,0.4-0.2,0.4-0.2,1c-0.2-0.1-0.1-0.3-0.3-0.5c-0.1,0.9-0.8,0.7-0.5,1.3c-0.9-0.5-0.1,0.1-0.8,0.2
			c0.3,0.4-0.2,0.3,0,0.7c0.3,0.5,1.1,0.4,1.7,1c0.4-0.3-0.4-0.3,0-0.7c0.4,0.2,0.4-0.1,0.5,0.3c0.2-0.2,0-0.4,0-0.6
			c0.2,0.1,0.3,0.2,0.3,0.4c0.2-0.5,0.4-1,0.1-1.4c0.4,0.2,0.1,0.4,0.5,0.3c0.1-0.9,0.3-0.7,0.3-1.6c0.3,0.2,0.3,0.5,0.6,0.2
			c-0.2-0.1-0.1-0.3-0.3-0.5c-0.2,0.1-0.8,0.4-0.8,0.1c0.1,0,0.2,0,0.1-0.1C4452.2,168.8,4452.5,169.6,4452.1,169.5z M4450.3,171.7
			c0.1-0.3,0.2-0.2,0.4-0.1c0.1-0.1,0-0.2-0.1-0.2C4451.3,171.1,4450.7,172.3,4450.3,171.7z"/>
		<path fill-rule="evenodd" clip-rule="evenodd" fill="#649981" d="M4463.3,175.6c-0.1,0.1-0.2,0-0.3,0c-0.1,0.4,0.6,0.2,0.6-0.2
			c0.4-0.4-0.3,0.9,0.3,0.4c0.1,0.2,0,0.4,0.3,0.5c-0.1,0.1-0.3,0.1-0.2,0.3c-0.1,0.1-0.2,0-0.1-0.1c-0.3,0.3-0.7,0.1-1,0.3
			c0.1,0.1,0.2,0.5,0.3,0.4c-0.2,0.9-0.9,1-1.5,1.4c-0.1-0.3-0.3-0.6-0.8-0.8c0.2-0.1,0.4,0,0.5-0.3c-0.4-0.3-0.5,0.5-1,0
			c0.3-0.3,1.1-0.1,0.4-0.7c0.7,0.2,0.5,0.2,1.2-0.2c-0.4-0.4-0.5,0.4-0.9,0c0.3-0.4,0.9-0.1,1.3-0.1
			C4461.5,176,4462.7,175.6,4463.3,175.6z"/>
		<path fill-rule="evenodd" clip-rule="evenodd" fill="#649981" d="M4458.5,173.5c-0.4-0.2-0.7,0-1,0c0.1-0.7-1.2-1.3-1.7-1
			c0.1,0.1,0,0.2-0.2,0.3c0.1,0.1,0.4,0.2,0.3,0.4c-0.5-0.2-0.9,0.2-1.3,0.5c0.7,0.3,0.3,1.3,0.4,1.1c0.5-0.2,0.5,0.3,1-0.2
			c0,0.1,0,0.2,0.2,0.3c0.4-0.5-0.5-0.6-0.7-0.4c0.4-0.2,0.2-0.5,0.4-0.5c0.4,0.5,0.7,1.1,0.6,1.4c0.4-0.4,0.2,0.3,0.3,0.4
			c0.6-0.5,1.3-0.1,0.9-1.1c0.2,0.1,0.3-0.1,0.5,0.1c0.3-0.5-0.5-0.9,0.3-0.9C4458.5,173.8,4458.5,173.6,4458.5,173.5z
			 M4456.3,173.3c0.3,0,0.2,0.7,0.5,0.3c0.3,0.4-0.4,0.3-0.4,0.5C4456.4,173.8,4456.1,173.6,4456.3,173.3z"/>
		<path fill-rule="evenodd" clip-rule="evenodd" fill="#649981" d="M4472.9,183.1c0,0.2,0.4,0.4,0.7,0.2c0.4,0.1-0.4,0.6,0.2,0.6
			c-0.1,0.1-0.3,0.1-0.2,0.3c-0.2,0.2-0.1-0.1-0.4-0.2c0,0.6,0.2,0.5,0.6,0.9c-0.4,0.4-0.8,0.2-0.8,0.8c-0.1-0.6-0.7,0.1-0.8-0.5
			c-0.3,0.6-0.3,0.3-0.3,0c-0.3,0-0.1,0.2-0.4,0.5c-0.1-0.4,0-0.3-0.5-0.4c0.3-0.3,0-1-0.4-0.8c0.4-0.5,1-0.8,1-1.5
			c0.5-0.2,1,0,1.1-0.8C4472.9,182.4,4473.5,183,4472.9,183.1z"/>
		<path fill-rule="evenodd" clip-rule="evenodd" fill="#649981" d="M4467.9,180.7c0.1-0.1,0.2,0,0.1,0.1c0.4,0.2,0.6-0.2,1.1,0.3
			c-0.6,0.6-0.3,0.2-0.3,0.9c-0.4-0.3-0.7,0-0.8-0.5c-0.3-0.1,0,0.3-0.4,0.3c0.3,0.3,0.5,0,0.7,0.2c-0.3,0.5-0.9,0-1.2,0.6
			c0.2,0,0.3-0.2,0.6,0c-0.1,0.8-0.7-0.2-0.9,0.6c-0.3-0.7-1.5-0.3-1.3-0.2c-0.4-0.3,0.5-0.9,0.1-1.7c0.2-0.6,1.4,0,1.2-0.6
			c0.2-0.1,1.2-0.1,0.8,0.5c0.1,0,0.2-0.1,0.3,0C4468,180.9,4468,180.8,4467.9,180.7z"/>
		<path fill-rule="evenodd" clip-rule="evenodd" fill="#649981" d="M4478.4,187.4c0.2,0.1,0.3-0.3,0.4-0.5c-0.1,1-0.5,1-0.7,1.6
			c-0.2,0.3-0.3-0.3,0-0.6c-0.4,0.1-0.3,0.2-0.4-0.2c-0.2,0-1,0.5-0.4,0.7c-0.3,0.4-0.2-0.3-0.5-0.3c0.2-0.3,0.4-0.3,0.6-0.5
			c0-0.3-0.5-0.5-0.2-1c-0.5,0.2,0.3,1.5-0.8,1.1c0.1-0.1,0.2,0,0.3,0c0.1-0.4-1-0.4-0.8,0.1c-0.3,0.3,0-0.5-0.6-0.5
			c0.1-0.1,0.1-0.3,0-0.3c0.2,0.2,0.5,0.3,0.8,0.5c0.2-0.3-0.1-0.3,0-0.6c-0.1-0.1-0.2,0.1-0.3,0.2c-0.3-0.2,0-0.7,0.2-0.7
			c0.1,0.7,0.5-0.4,1.1-0.4c0.2,0.1,0.5,0.4,0.6,0.2c0.2,0.1-0.1,0.8,0.3,0.5C4478.1,186.8,4477.9,187.1,4478.4,187.4z"/>
		<path fill-rule="evenodd" clip-rule="evenodd" fill="#649981" d="M4461,184.4c0.2-0.1,0.5-0.1,0.8,0.1c-0.1-0.4,0.1-0.8-0.1-1.1
			c-0.4-0.2-0.5,0.5-1,0.2c0.2-0.3,0.2-0.1,0.3,0c0-0.6,0.3-0.7,0.7-0.7c0.1-0.2-0.2,0-0.4-0.2c0.1-0.3,1.2-0.3,0.9,0.3
			c0.5,0.1,0.2-0.3,0.6-0.4c-0.2,0-0.5,0-0.7-0.2c0.2-0.2,0.5,0.1,0.6-0.4c0.1,0.9,0.8-0.3,1.1,0.5c-0.2,0.1-0.4,0.1-0.6,0
			c0.2,0.6,0.6,0.5,1.1,0.9c-0.4,0.1-0.8,0.3-1.1,1c-0.7-0.3-1.6,0-1.1,0.6C4461.7,185.1,4461.7,184.7,4461,184.4z"/>
		<path fill-rule="evenodd" clip-rule="evenodd" fill="#649981" d="M4449.9,175.7c-0.1-0.7,0.4,0.2,0.9,0.3
			c-0.4-0.5,0.3-0.2,0.1-0.5c0.3-0.3,0.4,0.2,0.1,0.4c0.6-0.2,0.9,0.3,0.8,0.8c0.4,0,0.1-0.5,0.6-0.4c0,0.3,0,0.8,0.4,0.2
			c-0.2,1.3-1.1,1.3-1.8,2c-0.2-0.2-0.2-0.4-0.2-0.6c-0.5-0.1,0.2,0.4-0.2,0.6c-0.3-0.1-0.4-0.3-0.2-0.6c-0.2,0.4-0.5,0.4-1.1,0.4
			c-0.3-0.2-0.1-0.5,0.1-0.8c-0.2,0-0.3,0.2-0.6,0c0.3-0.1,0.3-0.2,0.1-0.5c0.1-0.2,1.1,0.8,1.8,0.6c0-0.2-0.3-0.7,0.2-0.4
			c-0.4-0.6-0.6-0.3-0.9-0.3c-0.1-0.5-0.7-0.1-1.4-0.6c0.2-0.5,0.7-0.1,1.1-0.1c0-0.2,0-0.7,0.4-0.3
			C4450.1,175.8,4450,175.5,4449.9,175.7z"/>
		<path fill-rule="evenodd" clip-rule="evenodd" fill="#649981" d="M4456.9,179.3c-0.1-0.3-0.6-0.4-0.9-0.3c0,0.2,0.4,0.8-0.1,0.8
			c0.1-0.7-0.5-0.7-1.1-0.8c0.2,0.1,0.2,0.3-0.1,0.1c-0.3,0.4,0,0.6,0,0.9c-0.2-0.1-0.4-0.3-0.7-0.4c-0.3,0.6,0.4,1-0.3,1.2
			c0.2,0.1,0.3,0.2,0.1,0.4c0.9,0.3,0.8,0.1,1.3,0.8c0.1-0.2,0.3,0,0.4-0.1c-0.2-0.1-0.3-0.3-0.3-0.5c0.4,0.4,0.6-0.2,1,0
			C4456.4,180.6,4455.9,179.3,4456.9,179.3z M4454.4,180.2c0.1,0.1,0,0.2,0,0.3c0.6,0.1,0.7,1,1,0.2c0.5,1-1,0.2-1.2,0.2
			C4454.1,180.7,4454.3,180.6,4454.4,180.2z"/>
		<path fill-rule="evenodd" clip-rule="evenodd" fill="#649981" d="M4469.3,188.5c-0.4-0.4-0.2-0.3-0.6-0.2c0.5-0.5,0.2-0.3,0.3-0.9
			c0.2,0.4,0.9,0.6,0.7,0c-0.5,0.2-0.1-0.2,0.2-0.3c-0.2-0.2-0.8-0.2-0.6-0.5c0.2,0.1,0.3-0.2,0.5-0.3c-0.5-0.9-1.2-0.2-1.9-0.2
			c0.2,0.2,0.4,0.3,0.4,0.6c-0.9-0.7-1.4-0.3-2.3-0.9c-0.3,0.3-0.5,0.6-0.4,1c0.2-0.2,0.3-0.1,0.2-0.4c0.2,0.4,0.8,0.1,0.7,0.4
			c-0.3,0.1-1.2-0.1-1,0.5c0.3-0.1-0.1,0.5-0.2,0.6c0.1-0.2,0.5,0,0.4,0.2c-0.2,0.1-0.9,0.3-0.6,0.7c0.1-0.3,0.3-0.4,0.6-0.2
			c0.2-0.2,0.2-0.8,0.5-0.6c-0.2,0.4-0.4,1.1-0.8,1.3c0.5,0.2,0.3-0.6,1-0.5c0.1,0.3,0.6,0.5,1,0.7c0.2-0.2,0-0.4,0-0.6
			C4468.5,189.7,4468.7,188.8,4469.3,188.5z M4467.8,189.3c-0.2-0.1,0.1-0.4,0.2-0.6c0.2,0.1,0.4,0.2,0.5,0.1
			C4468.8,189.3,4467.9,188.8,4467.8,189.3z M4467.3,187.4c0.2-0.4,0.4-0.3,0.8-0.1c-0.2,0.2,0,0.3-0.1,0.5c0.1,0.1,0.2-0.1,0.3-0.2
			c0.1,0.1,0.1,0.2,0.2,0.3c-0.1,0.1-0.1,0.2-0.2,0.3C4467.7,187.8,4467.9,187.4,4467.3,187.4z M4467.7,188.5
			c-0.2-0.1-0.3,0.3-0.4,0.5c-1.1-0.4-0.1-0.9-0.8-1.1c0.2-0.3,0.9,0.2,1.3,0.2c0.2,0.1-0.2,0.4,0,0.6
			C4467.7,188.7,4467.7,188.6,4467.7,188.5z"/>
		<path fill-rule="evenodd" clip-rule="evenodd" fill="#649981" d="M4470.8,190.8c0.1,0.1,0,0.3-0.1,0.5c0.5,0.4,1.3,0.6,1.2,0
			c0.5,0.1,0.6,0.2,0.7,0.6c0.1-0.1,0.1-0.2,0.2-0.3c0.1,0,0.2,0.1,0.2-0.1c-0.2-0.1-0.3-0.3-0.3-0.5c0.7,0.4,0.1,0,0.4-0.3
			c0.3-0.1,0.5,0.4,1,0.2c-0.1-0.1-0.3-0.2-0.2-0.3c0.1,0,0.2,0.1,0.2-0.1c-0.8-0.3-0.1-1-0.2-1.2c-0.4-0.2-0.8-0.1-1.1-0.5
			c-0.3,0.3-0.6,0.6-0.9,0.7c0.1-0.1-0.1-0.2-0.2,0.1c0.4,0.2,1,0.4,0.8,0.8c-0.5-0.5-0.6-0.3-0.8-0.1c-0.1-0.1-0.3-0.2-0.2-0.3
			c0.1,0.1,0.2-0.1-0.1-0.2c-0.1,0.2-0.3,0.4-0.4,0.7c0.2,0.2,0.5,0,0.4,0.2C4471.2,190.7,4471,190.7,4470.8,190.8z M4471.7,190.9
			c-0.2,0.1-0.4,0.3-0.2,0.4C4470.9,191.6,4471.1,190.4,4471.7,190.9z"/>
		<path fill-rule="evenodd" clip-rule="evenodd" fill="#649981" d="M4457,180c-0.1,0.3-0.2,0.2-0.4,0.1c-0.1,0.2,0.2,0.3,0.3,0.4
			c-0.1,0.1-0.3-0.1-0.4,0.1C4456.2,180.3,4456.5,179.6,4457,180z"/>
		<path fill-rule="evenodd" clip-rule="evenodd" fill="#649981" d="M4445,178.8c0.2-0.4,0.5,0.7,0.7,0.4c0.2,0.1,0,0.3-0.2,0.3
			c-0.1,0.2,0.3,0.3,0.5,0.4c-0.1-0.4,0.2-0.3,0.4-0.7c-0.1-0.1-0.2,0.1-0.3,0.2c-0.1-0.2-0.4-0.4-0.7-0.6c0.7-0.5,1.3-0.3,1.7,0.4
			c0.4,0.1-0.2-0.5,0.3-0.5c0.1,0.3,0.1,0.7,0,1c-0.5-0.3-0.1,0.1-0.4,0.3c-0.1-0.3-0.1-0.6-0.2-0.8c-0.4,0.2,0.3,0.9-0.6,0.7
			c0,0.4,0.6,0.1,0.5,0.6c0.5-0.1,0.6-0.3,0.9-0.6c0,0.4-0.1,0.9,0,1.2c-0.3,0.2-0.7-0.8-1,0.3c-0.2-0.2-0.2-0.4,0-0.7
			c-0.3,0.1-0.5,0.3-0.6-0.2c-0.2,0.4,0.2,0.7,0.3,1c-0.4-0.4-0.8-1-1.9-1.1c0.2-0.3,0.5-0.1,0.7-0.3c-0.4-0.1-0.9,0.2-0.6-0.5
			c-0.4-0.3-0.4,0.4-0.8-0.1c0.2-0.1,0.3-0.2,0-0.3c0.2-0.3,0.6,0.3,0.9,0.3c0-0.3-0.8-0.6-0.1-0.8c0,0.6,0.4,0.3,0.8,0.5
			C4445.1,179.2,4445,179,4445,178.8z"/>
		<path fill-rule="evenodd" clip-rule="evenodd" fill="#649981" d="M4457.9,185.3c0.2-0.2,0.4,0.4,0.6-0.2c0.1,0.2,0.4,0.4,0.7,0.6
			c-0.2,0.3-0.6,0-1-0.2c-0.3,0.8-0.8,1.2-1.4,1c-0.1-0.4,0.2-0.2,0.4-0.5c-0.4-0.4-0.6,0.3-1,0.2c0,0.3,0,0.6,0.4,0.8
			c-0.1,0.3-0.4,0-0.5,0.3c-0.1-0.3,0.2-0.8-0.3-0.4c0-0.2,0.2-0.6,0.3-1.1c-0.3,0-0.7-0.2-0.8,0.2c-0.1-0.2-0.1-0.4,0-0.7
			c-0.3-0.1-0.5,0.1-0.8-0.1c0-1,1.2-0.3,1.1-0.1c-0.1,0.2,0.3,0.3,0.5,0.4c-0.3-0.2,0.1-0.6,0-0.9c0.1-0.2,0.7,0.4,0.5,0.6
			c0.5,0.1,0.3-0.6-0.2-0.6c0.3-0.2,0.6-0.2,1,0c-0.1,0.2-0.3,0.4-0.4,0.7c0.4,0,0.3,0.1,0.9,0.3
			C4458,185.6,4458,185.4,4457.9,185.3z"/>
		<path fill-rule="evenodd" clip-rule="evenodd" fill="#649981" d="M4463.3,189.2c-0.1,0.4-0.4,0.1-0.6,0.4c0-0.5-0.3-0.4-0.6-0.2
			c-0.2-0.6,0.8-0.4,0.9,0c0.3-0.4-0.3-0.7-0.3-1c-0.5-0.1,0.2,0.4-0.2,0.6c-0.3-0.5-0.2-0.4-0.7,0c-0.1-0.1,0-0.2,0-0.3
			c-0.2-0.1-0.4-0.1-0.6,0c0.4,0.4,0.1,0.9,0.7,0.9c-0.3,0.2-0.5,0.5-0.9,0.4c0.1-0.2,0.4-0.5,0.2-0.6c-0.3-0.1,0,0.3-0.4,0.3
			c0.1,0.4,0.1,0.7,0.7,0.7c-0.1,0.1-0.2,0.3-0.2,0.4c-0.4-0.2-0.4-0.7-1.1-0.8c-0.1-0.5,0.2-0.5-0.1-0.8c0.6-0.2,0.3-1.1,1.3-0.8
			c0.4-0.3-0.4-0.3,0-0.7c0.5,0.4,0.9,0.4,1.1-0.1c0.1,0.7,0.5,0.1,0.7,0.6C4463,188.7,4463,188.6,4463.3,189.2z"/>
		<path fill-rule="evenodd" clip-rule="evenodd" fill="#649981" d="M4465.8,193.1c0.2,0.1,0.4,0.3,0.5,0.4c0.3,0,1.1-1,0.5-0.9
			c0.4,0.4-0.7,0.5-0.6,0c0.8,0.3-0.1-0.4,0-0.6c0.5,0.2,0.5-0.2,0.9,0.3c-0.1-0.7-0.4-1.2-0.8-0.5c-0.4-0.6,0.6-0.9,0.3-1.4
			c-0.2,0.3-0.5,0.1-0.7,0.3c0.1,0.1,0.4,0.2,0.3,0.4c-0.5-0.4-0.7-0.1-1,0c0.6,0.3-0.1,0.4-0.2,0.4c0.4,0.4-0.2,0.3,0,0.7
			c-0.2-0.1-0.3-0.2-0.3-0.4c0,0.4-0.7,0.5-0.4,0.7c0.1-0.1,0.3,0,0.3,0.2c-0.2,0-0.4,0-0.6,0c0.1,0.1,0.1,0.2,0,0.3
			c0.2,0.4,0.7-0.4,0.6,0.2c-0.3,0.1-1,0.3-0.9,0.6c0.4,0,0.5-0.2,0.7-0.3c0.1,0.1,0,0.3-0.1,0.5c0.5-0.1,0.6,0.2,1,0.2
			C4464.6,193.4,4466.5,193.9,4465.8,193.1z M4465.6,192.8c-0.2-0.2-0.2-0.4-0.4-0.6C4465.6,191.8,4465.9,192.4,4465.6,192.8z"/>
		<path fill-rule="evenodd" clip-rule="evenodd" fill="#649981" d="M4452.4,183.1c-0.3,0-0.5,0.3-0.8,0.4
			C4451.2,183.1,4452,182.9,4452.4,183.1z"/>
		<path fill-rule="evenodd" clip-rule="evenodd" fill="#649981" d="M4471.6,194.1c-0.1,0.2,0.1,0.1,0.1,0.1c0.3,0.4-0.4,0.3-0.4,0.5
			c0.3,0.2,0.4-0.1,0.7,0.2c-0.3,0.5-0.1,0.3,0.3,0.5c-0.2,0.1-0.4,0.3-0.2,0.4c-0.3,0.3-0.4-0.3-0.7-0.4c0.2,0.3-0.1,0.6,0.4,0.8
			c-0.8,0-1.2,0.4-1.3,0.4c-0.5,0.3-0.1-0.5-0.4-0.6c0.3-0.1,0.6,0.1,0.9,0c0.2-0.5-0.4-0.7-0.6-1.1c0.2-0.4,0.6-0.4,0.7-1
			c0.2,0.2,0.4,0,0.6,0.2C4471.8,194.1,4471.7,194.1,4471.6,194.1z"/>
		<path fill-rule="evenodd" clip-rule="evenodd" fill="#649981" d="M4450.1,183.2c0.2-0.3,0.2-0.6,0.1-0.8c-0.2,0.4-0.5,0.2-0.8,0.1
			c-0.2,0.2-0.3,0.9-0.6,0.5c-0.1,0.6,0.4,0.7-0.4,0.7c0.4,0.7,0.2,0.3,0.7,0.2c0.1,0.4-0.1,0.2-0.3,0.5c0.1,0.1,0.3,0.2,0.4,0.2
			c0.2-0.2,0-0.4,0.2-0.6c0.1,0.4,0.3,0.2,0.6,0.2c-0.5,0.2-0.5,0.8-0.4,0.5c0.4-0.3,0.4,0.3,0.5,0.4c0.3-0.7,0.7-0.6,0.9-0.6
			c-0.2-0.3,0.7-0.7,0.3-1.2c-0.4,0.8-0.3-0.8-0.9-0.3c0.3,0,0.3,0.7,0,0.6C4450.5,183.2,4450.3,183.2,4450.1,183.2z M4449.5,183
			c0.2,0.3,0.6,0.2,0.7,0.7C4449.9,184,4449.2,183.3,4449.5,183z"/>
		<path fill-rule="evenodd" clip-rule="evenodd" fill="#649981" d="M4454.2,185.3c0.2-0.1,0.4,0.1,0.9,0.3c-0.1,0.3,0.3,0.4,0,0.7
			c0.2,0,0.3-0.1,0.5-0.3c0.1,0.1,0.1,0.3,0.3,0.2c0.2,0.4-0.7,0-0.8,0.4c-0.2-0.1-0.4-0.3-0.7-0.4c0.3-0.1,0.4-0.5,0.6,0
			c0.2-0.3-0.3-0.4-0.2-0.6C4454.5,185.9,4454.4,185.8,4454.2,185.3z"/>
		<path fill-rule="evenodd" clip-rule="evenodd" fill="#649981" d="M4445.7,184.8c-0.1,0.1-0.2,0.4-0.4,0.3
			c-0.4-0.2-0.5-0.8-1.3-0.9c0.3-0.4,0.4-0.6,0.3-1.1c-0.1,0.1-0.2,0.4-0.4,0.3c0.3-0.6-0.3,0-0.5-0.3c0.1-0.2,0.2-0.4,0.3-0.5
			c-0.4,0.2-0.4,0.1-1,0.2c0.1,0.2,0.6,0.8,0.1,0.8c0-0.1,0.1-0.3,0-0.3c-0.1,0.1-0.3,0-0.5-0.1c0.1-0.2,0.2-0.4,0.1-0.5
			c-0.6-0.1-1.4,0.2-1.4,1c-0.1-0.3-0.2-0.3-0.5-0.1c0.2,0.1-0.1,0.4-0.2,0.6c0.9,0.5,1.5,1,1.8,1.9c0.3-0.8,0.8,0.2,0.8-0.4
			c0.1,0.2,0.3,0.4,0.6,0.5c-0.3,0.1-0.5,0.4-0.2,0.6c0.1-0.1,0.2,0,0.3,0.2c0.4-0.2,0.1-0.6,0.5-0.6c0.1,0.1,0.2,0.3,0,0.6
			c0.8,0.5,0.3-0.3,1.3,0.2c0.5-0.3,1.3-1,1.8-0.4c-0.2-0.2,0.1-1.2,0.5-1.3c-0.1,0.2-0.2,0.4-0.1,0.5c0.2-0.1,0.4-0.3,0.5-0.6
			c-0.5-0.3-0.9,0.1-1.3,0.1c-0.4-0.6,0-0.4-0.5-1c-0.2,0.4-0.6,0.2-0.7,0C4445.6,184.8,4445.1,184.8,4445.7,184.8z M4446.3,184.6
			c0,0.4,0.8,0.6,0.2,1.2c0.1-0.6-0.5-0.5-0.9-0.5C4445.7,184.7,4446,184.8,4446.3,184.6z M4443.3,184.2c-0.1,0.5-0.4,1-0.7,0
			c0.1,0.4,0,0.8,0.5,1c0.5,0.2-1-0.4-0.8,0.4c-0.2-0.5-0.2-1,0-1.6c0.5-0.2,0.6,0.3,1.1-0.1c0.1,0.1,0.1,0.2,0.2,0.3
			c-0.1,0.1-0.1,0.2-0.2,0.3C4443.4,184.4,4443.3,184.3,4443.3,184.2z"/>
		<path fill-rule="evenodd" clip-rule="evenodd" fill="#649981" d="M4467.6,197.6c-0.1,0.5,0,0.3-0.4,0.5c-0.2,0.3,0.4,0.3,0.6,0.5
			c0-1,1.5,0,2-0.7c0.3,0.2,0.5,0.5,0.7,0.7c-0.2,0-0.9,0.3-0.3,0.5c0.1-0.1,0-0.2-0.1-0.2c0.6,0.4-0.6,0.3-1-0.4
			c-0.1,0.2-0.2,0.4-0.1,0.5c0.2,0.1,0-0.3,0.3-0.2c0.5,0.2-0.4,0.6,0.2,1c-0.2-0.1-0.7,0-0.6,0.4c-0.5,0.5-0.1-0.7-0.4-0.2
			c-0.3-0.3,0.3-0.1,0.4-0.3c-0.3,0.1-1.3,0-1.1,0.4c-0.5,0.2-0.2-0.3,0.1-0.5c-0.3,0-0.6,0-0.8,0.4c-0.8-0.3-0.7-0.4-1.2-1.2
			c-0.3-0.6,0.2,0.5,0.5,0.1c0.1,0.2-0.3,0.3,0.4,0.6c-0.1-0.6-0.2-0.6,0.4-1c-0.6,0.1-0.4-0.1-0.6-0.2c-0.1-0.1,0.1-0.3-0.1-0.4
			c0.4-0.4,0.3,0.1,0.7,0.2c-0.4-0.6,0.5-0.1,0.7-0.7c0.2,0.1,0.4,0.2,0.5,0.3C4468,197.9,4467.8,197.7,4467.6,197.6z"/>
		<path fill-rule="evenodd" clip-rule="evenodd" fill="#649981" d="M4459.9,194.9c-0.2-0.3,0.7,0.1,0.5-0.6c0.1,0.3,0.8,0.5,0.7,0.9
			C4461.4,195.6,4460.2,194.5,4459.9,194.9z"/>
		<path fill-rule="evenodd" clip-rule="evenodd" fill="#649981" d="M4462.4,195.2c-0.5-0.5,0.3-0.8-0.8-1c0.3,0.1,0.3,1,0,0.9
			c0-0.3,0.2-0.7-0.2-0.8c-0.4,0.6,0.4,0.5,0,1.2c-0.1-0.1-0.2,0-0.3,0c-0.2-0.6-1.4-0.6-1.3-0.2c0.1-0.1,0.4-0.2,0.3,0
			c-0.3-0.1-0.5,0.2-0.6,0.5c0.2,0.8,1.5,0.6,1,1.3c0.6,0.1,0.8-1,1.5-0.4c0.1-0.2,0.3-0.5,0.2-0.6c-0.1,0.3-0.5-0.3-0.5-0.4
			C4461.7,195.5,4462,195.4,4462.4,195.2z M4460.4,195.3c0.3,0.2,0.1,0.2,0,0.3c0.3,0.1,0.5,0.2,0.7,0c0.3,0.3,0,0.3-0.2,0.6
			c0.5,0.6-0.3-0.2-0.7-0.4C4460.4,195.7,4460.2,195.6,4460.4,195.3z"/>
		<path fill-rule="evenodd" clip-rule="evenodd" fill="#649981" d="M4462.4,194.9c0.4-0.2,0.4,0,0.7,0.2c-0.2,0.3-0.4,0.3-0.7,0.3
			c0,0.1,0.2,0.7,0.3,0.4c0.3,0.2-0.3,0.1-0.3,0.5c-0.1,0.6,0.2-1.2-0.5-0.4C4461.7,195.2,4463.2,195.5,4462.4,194.9z"/>
		<path fill-rule="evenodd" clip-rule="evenodd" fill="#649981" d="M4455.1,190.8c-0.2-0.4,0.2,0.1,0.4,0.2c-0.4,0,0,0.6-0.5,0.3
			c-0.1,0.1,0.1,0.2,0.2,0.3c0.2,0.1,0.3-0.2,0.4-0.3c0.2,0.6,1.1,0.5,1,1.3c0.5,0.1-0.2-0.4,0.2-0.6c0.3,0.3,0.4,0.6,0.2,1
			c-0.3-0.1-0.5-0.2-0.7,0c0.1,0.7,0.6-0.2,1,0.2c-0.5,0-0.5,0.6-0.1,0.5c0.4,0.2-0.5,0.2,0.1,0.4c-0.7,0.2-0.6,0.6-1.7-0.4
			c0.1-0.1,0.4-0.1,0.5-0.3c0.1-0.9-1.2-0.1-1.7-0.8c-0.2,0.2,0.4,0.8,0.6,0.5c0.1-0.3-0.1,0.3-0.2,0.7c0.8-0.1-0.3,0.2,0,0.6
			c0.2,0.1,0.3-0.3,0.4-0.5c0.2,0.1,0.4,0.2,0.5,0.3c-0.1,0.3-0.6,0.7-0.3,0.9c-0.5,0-0.9-0.4-1.1-0.9c-0.2,0.4,0.3,0.5-0.2,1
			c-0.1-0.4-0.5-0.3-0.8-0.5c0.1-0.1,0.3-0.1,0.4-0.3c0.2,0.1,0.2,0.3,0.3,0.4c0-0.1-0.1-0.2,0-0.3c-0.5-0.2-0.8,0-1.1-0.5
			c0.2-0.2,0.5,0.2,0.6-0.2c-0.2-0.2-0.5,0-0.5-0.6c0.2-0.1,0.3-0.2,0.6,0c0.1-0.5-0.1-0.3-0.5-0.4c0.5-0.4,0.7-0.6,0.4-1.4
			c0.4,0.2,0.7,0.5,0.4,0.9c0.4-0.3,0.5-0.7,0.7-1.2c0.3,0,0.4,0,0.5,0.3C4455.2,191,4455.2,190.9,4455.1,190.8z"/>
		<path fill-rule="evenodd" clip-rule="evenodd" fill="#649981" d="M4456.4,194.3c0.3,0.2-0.4,0.2-0.4,0.7c-0.5-0.1,0-0.5,0.1-0.8
			C4456.2,194.3,4456.2,194.5,4456.4,194.3z"/>
		<path fill-rule="evenodd" clip-rule="evenodd" fill="#649981" d="M4451.2,189.3c-0.1-0.1-0.2,0-0.3,0c-0.3-1.2-0.9,0.8-1.6,0.3
			c-0.1,0.2-0.2,0.4-0.3,0.5c0.4,0.9,1.7,0.8,2.6,0.4c-0.2-0.4-0.6,0.4-0.5-0.1c1.3,0,0.3-0.9,1.6-0.9c-0.6-0.4-0.9,0.1-1.4-0.1
			c0.2-0.2,0.2-0.9-0.2-0.6C4451.2,189,4451.2,189.2,4451.2,189.3z M4451,190.1c0.3,0.5-1,0.2-1-0.2
			C4450.3,189.7,4450.6,190.5,4451,190.1z"/>
		<path fill-rule="evenodd" clip-rule="evenodd" fill="#649981" d="M4472.5,172.5c0.6,0.2,0.1,0.9-0.2,1c-0.3-0.4-0.4-0.2-0.6-0.5
			C4471.9,172.8,4472.3,173.1,4472.5,172.5z"/>
		<path fill-rule="evenodd" clip-rule="evenodd" fill="#649981" d="M4471.7,177.6c0.1,0.5,0.8-0.5,1.2,0c-0.3,0.5-0.6,0.6-0.8,1.1
			c-0.3,0-0.6-0.2-0.7,0.3c-1.3-0.1-1.2-0.9-1.6-0.7c-0.1-0.7,0.8-0.4,0.5-1.1c0.5,0.3,0.1-0.1,0.4-0.3c0.4,0.4,0.6,0.1,1,0.4
			c-0.1-0.3,0.1-0.2,0.2-0.4c0.1,0.1,0,0.2,0,0.3c0.3,0.1,0.4-0.6,0.6-0.5C4473.1,177.1,4472,177.3,4471.7,177.6z"/>
	</g>
</g>
<path fill="#89B79C" d="M4419.7,206.6c-68.1,1-125.8,45.5-146.3,107c-0.4,1.2-0.8,2.4-1.2,3.7h2.5h29c22.5-29.8,58.3-49.1,98.5-49.1
	s76,19.3,98.5,49.1h30.2V160.4C4487.4,160.4,4448.1,178,4419.7,206.6z"/>
<path fill="#6EB09C" d="M4054.6,219.8c-62,0-117,29.7-151.7,75.5h303.4C4171.6,249.5,4116.6,219.8,4054.6,219.8z"/>
<path fill="#6EB09C" d="M4504.7,206.4L4504.7,206.4c8.9,5.2,9.9,17.6,2,24.2l-3.9,3.2c-7.9,6.6-6.9,19,2,24.2l26.1,15.2v-51.6v-10.9
	v-51.6l-28,23.2C4494.8,188.8,4495.9,201.2,4504.7,206.4z"/>
<g>
	<circle fill="#1D7D72" cx="2354.2" cy="261.4" r="9.3"/>
	<circle fill="#1D7D72" cx="2388.3" cy="255.3" r="9.3"/>
	<circle fill="#1D7D72" cx="2382.2" cy="282.8" r="12.6"/>
</g>
<g>
	<circle fill="#1D7D72" cx="2782" cy="213.3" r="6.6"/>
	<circle fill="#1D7D72" cx="2806.1" cy="209" r="6.6"/>
	<circle fill="#1D7D72" cx="2801.8" cy="228.5" r="8.9"/>
</g>
<g>
</g>
<g>
</g>
<g>
</g>
<g>
</g>
<g>
</g>
<g>
</g>
<g>
</g>
<g>
</g>
<g>
</g>
<g>
</g>
<g>
</g>
<g>
</g>
<g>
</g>
<g>
</g>
<g>
</g>
</svg>
