<?xml version="1.0" encoding="utf-8"?>
<!-- Generator: Adobe Illustrator 18.0.0, SVG Export Plug-In . SVG Version: 6.00 Build 0)  -->
<!DOCTYPE svg PUBLIC "-//W3C//DTD SVG 1.1//EN" "http://www.w3.org/Graphics/SVG/1.1/DTD/svg11.dtd">
<svg version="1.1" id="Layer_1" xmlns="http://www.w3.org/2000/svg" xmlns:xlink="http://www.w3.org/1999/xlink" x="0px" y="0px"
	 viewBox="0 0 213.3 373.8" enable-background="new 0 0 213.3 373.8" xml:space="preserve">
<path fill="#93C28F" d="M103.4,10l91.8,15.5c19,3.2,24.7,27.7,9.1,39l-8.1,5.9c-12.8,9.3-11.7,28.6,2,36.4l0,0
	c15.9,9,14.2,32.5-2.9,39.1l-7.1,2.7c-16.8,6.5-18.8,29.5-3.4,38.8l0.7,0.4c16.6,10,12.8,35-6,39.7l-19.9,4.9
	c-15.9,3.9-21.9,23.3-11,35.5l5.3,5.9c12.3,13.8,2.8,35.7-15.7,36.1l-13,0.3c-14.8,0.3-24.9,15.1-19.9,29l2,5.5
	c5.4,14.9-6.5,30.3-22.3,29l-65.2-5.6c-11.9-1-20.8-11.5-19.7-23.5l28-324.8C29.2,7,41.2-2,53.9,0.4L103.4,10z"/>
<g>
</g>
<g>
</g>
<g>
</g>
<g>
</g>
<g>
</g>
<g>
</g>
<g>
</g>
<g>
</g>
<g>
</g>
<g>
</g>
<g>
</g>
<g>
</g>
<g>
</g>
<g>
</g>
<g>
</g>
</svg>
