<?xml version="1.0" encoding="utf-8"?>
<!-- Generator: Adobe Illustrator 18.0.0, SVG Export Plug-In . SVG Version: 6.00 Build 0)  -->
<!DOCTYPE svg PUBLIC "-//W3C//DTD SVG 1.1//EN" "http://www.w3.org/Graphics/SVG/1.1/DTD/svg11.dtd">
<svg version="1.1" id="Layer_1" xmlns="http://www.w3.org/2000/svg" xmlns:xlink="http://www.w3.org/1999/xlink" x="0px" y="0px"
	 viewBox="0 0 835.4 707.9" enable-background="new 0 0 835.4 707.9" xml:space="preserve">
<g>
	<g>
		<path fill="#74592E" d="M830.9,612.6l-25.3-15.2c-7.2-4.3-5.4-15.1,2.8-17l18.8-4.2c8.1-1.8,9.9-12.6,2.8-16.9l-37.1-22.5
			c-6.2-3.8-5.8-12.9,0.6-16.2l22.2-11.2c6.6-3.3,6.8-12.7,0.4-16.3l-29.3-16.4c-6.2-3.5-6.3-12.3-0.3-16l24.2-14.7
			c6-3.6,5.9-12.4-0.2-15.9l-23.3-13.5c-5.6-3.2-6.2-11-1.3-15.1l44.2-36.8c6.6-5.5,2.7-16.4-5.9-16.4h-52.9h-5H69.1H54.8H45
			c-8.8,0-12.6,11.1-5.7,16.5l6.9,5.5c5.9,4.7,4,14-3.2,16.1l-4.7,1.4c-7.2,2.1-9.1,11.5-3.1,16.1c6,4.7,4,14.2-3.3,16.2l-25,6.7
			c-7.9,2.1-9.4,12.7-2.4,16.9l25.3,15.2c7.2,4.3,5.4,15.1-2.8,17L8.2,480c-8.1,1.8-9.9,12.6-2.8,16.9l37.1,22.5
			c6.2,3.8,5.8,12.9-0.6,16.2l-22.2,11.2c-6.6,3.3-6.8,12.7-0.4,16.3l29.3,16.4c6.2,3.5,6.3,12.3,0.3,16l-24.2,14.7
			c-6,3.6-5.9,12.4,0.2,15.9l23.3,13.5c5.6,3.2,6.2,11,1.3,15.1L5.4,691.6c-6.6,5.5-2.7,16.4,5.9,16.4h43.5h14.3h697.2h5h19.2
			c8.8,0,12.6-11.1,5.7-16.5l-6.9-5.5c-5.9-4.7-4-14,3.2-16.1l4.7-1.4c7.2-2.1,9.1-11.5,3.1-16.1c-6-4.7-4-14.2,3.3-16.2l25-6.7
			C836.5,627.4,837.9,616.8,830.9,612.6z"/>
		<path fill="#836031" d="M42.5,478.7c74.3-0.8,148.6-1.3,222.9-1.5c74.1-0.2,148.1-0.2,222.2,0.2c41.9,0.2-2.7,0.5,39.1,0.9
			c9.3,0.1,4.3-10.6-2.5-10.6c-74.5-0.7-62.6-1.1-137.1-1.2c-74.6-0.1-149.2,0.1-223.8,0.5c-42.2,0.3-84.4,0.6-126.5,1.1
			c-3.3,0-4.4,3.4-3.1,6C35.2,477.3,39.1,478.7,42.5,478.7L42.5,478.7z"/>
		<path fill="#836031" d="M332,532.6c116.2,7.1,232.6,10.1,349,8.9c32.7-0.3,65.4-1,98.1-2c8.7-0.3,6.9-14-1-13.7
			c-116.4,3.6-232.8,3-349.1-1.8c-32.7-1.3-65.4-3-98-5C322.3,518.3,324.2,532.1,332,532.6L332,532.6z"/>
		<path fill="#836031" d="M503.8,578.1c75.9-2,151.9-2.3,227.8-0.9c21.3,0.4,42.7,0.9,64,1.6c8.8,0.3,9.2-12.6,0.1-12.9
			c-75.9-2.3-151.9-3-227.8-1.9c-21.3,0.3-42.7,0.7-64,1.3C495.1,565.5,494.6,578.4,503.8,578.1L503.8,578.1z"/>
		<path fill="#836031" d="M166.3,604.6c101.8,4.4,203.5,8.8,305.3,13.1c28.9,1.2,57.8,2.5,86.7,3.7c3.4,0.1,7.4-1.7,8-5.4
			c0.6-3.5-2.7-6.4-6-6.5c-101.8-4.4-203.5-8.8-305.3-13.1c-28.9-1.2-57.8-2.5-86.7-3.7c-3.4-0.1-7.4,1.7-8,5.4
			C159.7,601.6,163,604.5,166.3,604.6L166.3,604.6z"/>
		<path fill="#836031" d="M81.5,686.3c65.8-2.3,131.7-2,197.5,1c18.8,0.9,37.6,1.9,56.4,3.2c3.5,0.2,6.8-2.5,6.8-6.1
			c-0.1-3.8-3.9-6.2-7.3-6.4c-65.7-4.5-131.6-6.3-197.4-5.5c-18.8,0.2-37.6,0.7-56.4,1.3C71.8,674.1,72.8,686.6,81.5,686.3
			L81.5,686.3z"/>
		<g>
			
				<rect x="510.7" y="386.7" transform="matrix(-0.3935 0.9193 -0.9193 -0.3935 1206.9855 118.781)" fill="none" width="107.2" height="141.7"/>
			<path fill-rule="evenodd" clip-rule="evenodd" fill="#836031" d="M596.1,465.9c3.2-0.7,6.9-0.5,10.4-0.6
				C603.6,467,599.9,466.5,596.1,465.9z"/>
			<path fill-rule="evenodd" clip-rule="evenodd" fill="#836031" d="M603.9,460.7c4-1,9.9-1.7,14,0.4c-0.9,1.2,0.2,1.6-0.7,2.8
				C613.1,463.6,606.3,464.5,603.9,460.7z"/>
			<path fill-rule="evenodd" clip-rule="evenodd" fill="#836031" d="M581.6,425.3c-0.9-1.9-2.2,1-3.7,0.4c3.2,0.2,9.7,0.9,11.7-2.6
				c0.3,0.4,0.5,0.8,0.9,0.4c0.8,0.2,0.7,0.7,0.5,1.2c2.2,0.7,1.6-1.2,3.1-1.2c-0.6,2.3,3.8,0,2.3,0.5c-0.6-1.3,2.4-1.6,3.1-0.2
				c2.6,0.5,5.5-2.6,7.5-0.9c-6.1,3.4-17,1.5-20.2,4.5c-1.4,0.6-4.2-2.4-5.6,0.1c-1.1-1.2-5.4-1.6-5.2,0.3c0.8-0.7,2-0.3,2.9-0.8
				c0.3,2.5-2,0.7-3.7,1.5c1.1-2.6-6.1-0.8-8.4-0.5c-0.5-1.6,2.9-1,4.1-1.3c-0.8-1.2-3.5,0.6-5.4-0.3c0,0.5,0,0.9,0.5,1.2
				c-2,1.9-4.3-2-6.5-0.2c-0.1,0.7,2.4,0.7,2.9,0.2c-0.9,0.9-10,2.3-9.8,0.4c-1.4-0.2-0.8,0.4-1.2,1.5c-4.5-0.1-8.6,1.1-13.1,1
				c0.1,1.1,2.5,0.2,2.2,2c0.7,0.1,0.1-0.6,0.5-1.3c1.6,0.3,1.5,1.6,2.6,1.1c0.2-1.1-0.9,0.2-1.1-1c1-1.4,2.3,0.3,2.6,1.1
				c13.8-0.6,28.3-1.9,42.8-3c-6.1,1.8-15.9,2.3-23.6,3.1c-0.5,0.7,0,1,0.5,1.2c-0.5,0.8-1.8-0.3-2.3,0.6c-0.6-0.6,0.3-0.8,0.5-1.3
				c-1.5-0.6-1.8,2.1-3,2.3c-1.5-0.8-3.9-0.5-3.5,0c-0.5,0.8-3-1.4-1.3-1.6c-1.7-0.6-2.7-0.1-2.6,1.4c-6.8-0.4-13.1,0.3-19.8,0.1
				c-0.2,0.4,0.4,0.6,0.7,0.8c-11.8-0.7-22.8,1.2-35.4-2.5c1.9-0.3,1.8-0.7,0.3-1.9c5.5,1.1,14.2-0.9,20.1,1.5
				c4.5-1.4,10-0.4,15-0.7c-1.4-2.6-6.6-0.8-9.2-0.9c-1.8-0.2,0-1.9-1.6-2.2c2.1-1.7,5-3.2,9.3-1.6c1-2,5.5-0.6,9.5-1
				c2.4-0.2,2.8-0.4,4.8-0.5c3.2-0.2,9.8-2.5,13.1-1c6.2-2.2,14.3,0.2,20.5-1.8C581.2,424.2,582.3,423.4,581.6,425.3z"/>
			<path fill-rule="evenodd" clip-rule="evenodd" fill="#836031" d="M563,417.8c0.6-1-2.1-0.6-0.7-1.8c7.9,0.8,13.8-3.3,21.3-3.6
				c2.2,1.2,0.6,4,1,6c-2.2,2.2-6.3-0.3-8.2,2.6c-1.2-0.5-0.6-1.1-1.7-0.7c-13.4,4.1-28.3,4.5-42.9,5.5c1.1-2.2,3.8-0.6,5.3-1.8
				c-4,0.2-6.7,0.1-8.7,1.3c-0.2,1.4,1.1-0.7,1.9,0.3c-0.9,0.9-2.5,0.3-3.5,1c-1.3-1.3,1.3-0.2,1.2-1.5c-0.7-1.2-3.6-0.1-5-0.1
				c-0.2,2.1,1.1,0,2.6,1.1c-3.9-0.8-8.6-0.7-11.9-3.1c0.2-1,1-0.6,1.7-0.3c0.3-2.9-0.3-3.4,0.2-6.5c10.2-0.5,19-4.5,30.1-2.8
				c0.4-1.5-2.1,0.4-0.9-1.4c6,2.1,11.3-0.7,17.5-0.6c-2-1.4-6.2-0.7-8.3,0.5c-0.4-0.3,0.1-1-0.5-1.2c-1.1,1.8-2.2-0.9-3.2,1.7
				c-1.3-1,0-1.1,0.7-1.7c-1.3-0.5-3.1,0-3.6-1c1.8-0.7,1.9-0.4,4,0.2c3.1-1.4,6.7-1.5,10.3-1.7c1.4-2.5,5.1-3.5,6.7-2.7
				c2.7-2.3,13.7-2.6,10.3,5.4c-11.1,3.8-23.1,5.5-35.8,5.5c0.3-1,1.4,0.1,1.8-0.7c-7,3-16.7,5.2-26.2,4.5c0,1.1,2.1-0.1,3.2,0.9
				c-0.4,0.8-1.5-0.3-1.8,0.7c3.7,0.2,9.5-0.6,10.2-0.2C539.5,419.8,553.1,420,563,417.8z"/>
			<path fill-rule="evenodd" clip-rule="evenodd" fill="#836031" d="M526.6,444.8c-1.6,0.5-2.1-2.1-3.4-1.5
				c-6.4,1-16.5-1.4-25.5-0.8c0.1,1,0.1,2.1,0.2,3.1c6.1,3.6,12.8-0.9,18.5,1.8c4.4-0.1,14.4,0.9,22.1,0.4c-0.5-0.3-1-0.6-0.5-1.2
				c1.7,0.9,2.2,0,2.4,1.5c2.3-2.1,7-1.3,9.4-0.6c-0.3-0.2-0.8-0.4-0.7-0.8c1.5-0.4,1.8,1.3,2.8,0.7c-0.8-0.3-0.8-0.9-0.3-1.7
				c4.6,2.3,6.5-0.1,10.9,0.6c-0.2,0.5-0.9,0.4-0.4,0.9c3.4-0.2,9.3-1,10-3.3c1.5,0.6,2.2,0,2.4,1.5c0.4-0.3,0.9-0.9,1.4-0.9
				c6.6-0.6,14.1-1,19.8-1.2c0-1,3.3-1.2,4.2-2.8c-9-1.1-19.4,1-28.4,2.5c-0.7-1,1-0.8,0.1-1.5c-0.7,0.7-1.4-0.3-1,1.1
				c-8.9-0.9-19.1,3-26.5,0.3c0.6,0,1.2,0,1.7-0.3c-2.4-0.6-3.5-1.2-5.9-0.5c0.7,1.6,2.5,0.3,4,1.2c-0.1,0.6,0.3,1.1-0.3,1.9
				c-0.2-2.6-6.1-1.5-3.8-0.6c-0.9,1.4-3.1-0.6-4.6-1c-1.1,1.2,1.2,0.9,0.1,2.1C532,442.7,528.1,444.2,526.6,444.8z M566.7,445.8
				c-0.8,2.4-3.1-0.7-3.5,1C562.2,444.7,566.1,444,566.7,445.8z"/>
			<path fill-rule="evenodd" clip-rule="evenodd" fill="#836031" d="M514.6,439.7c0.7,0.4,1.1-0.1,1.9,0.3c0.3-1.4-1.1,0-1.7-0.7
				c3.4-3,8.8-0.3,13.2-2.5c0.8,0.4,0,1.4,1.3,1.6c0.7,0.1,0.1-0.6,0.6-1.3c4,0.9,8.5,0.6,12.6,1.3c-0.1-0.4-0.1-0.9,0.1-1.5
				c2.7,1.7,3.7-0.9,6.5,1.3c0.3-0.5,0.2-0.8-0.1-1c7.1,2.6,17.2-1.7,26.3,0.1c0.8-0.3,1.3-1.4,2.2-1.6c4.9,2.3,7.8,0.3,11.4,1.8
				c0.5-0.8,0.5-1.4-0.3-1.7c3.2-0.7,5.1,0.1,8.1-0.1c-1.8,1.6-4.8,0.4-7,1c0.2,0.5,2,0.6,1,2.4c-0.4-0.2-0.1-0.7-0.1-1
				c-1.2-0.6-1.7,0.4-2.9-0.2c-0.1,0.5,0.7,0.7,0.5,1.2c0.5-0.1,1-0.5,1.4-0.9c-2.4,2.3-12.7,1.7-18.5,1.7c-1.4,0.4-2.7,1-4.6,0.1
				c1-0.8,2.6,0.1,3.7-0.4c-0.6-1.1-3.1,0.6-5.1-1.2c0.2,0.6,0.5,1.2,0.7,1.8c-1,0.2-1.7,1-3.1,0.2c0.3-1,1.4,0.1,1.8-0.7
				c-1.3-0.6-1.8,0.8-3.4-0.4c1.2,3-11.5,2.3-12.1-0.1c-1-0.6-0.6,2.1-1.8,0.7c0.2-0.3,0.6-0.2,0.8-0.7c-0.7-0.4-1.1,0.1-1.9-0.3
				c0.4,2.5,4.4,1,5.1,2.2c-4.5,1.8-11.5-2.7-15.4,0.5c-1.1-1.6-7.7-1-8.1,0.1c-5.5-1.1-11.7,1.1-15.4-3.1
				C512.7,437,515.3,438.9,514.6,439.7z"/>
			<path fill-rule="evenodd" clip-rule="evenodd" fill="#836031" d="M521.7,456.4c1,0.3-0.1,1.4,0.7,1.8c1.5-0.4,3.2-0.4,5,0.1
				c-6.3,2.6-13.4,0.8-21.8,1.3c-0.8,1.9,2.1,2.7-0.4,3.4c3.3,1.3,6.8-1.2,9.2,0.9c-1.7-0.4-2.9,0.4-4.6,0.1
				c-1.1,1.1-0.7,1.4-0.7,2.8c-1.9,0.3-4.2-0.5-6.1-0.1c-1.7,4.7,5.3,3.7,8.2,4.5c1.3-0.1-0.2-1.6,1.2-1.5c3.6,0.9,9.5,0.1,13.8-0.2
				c-0.3-0.2-0.8-0.4-0.7-0.8c3.3,1.7,10.1,1.7,12.8,0.9c-0.2,0.1-0.9-0.6-0.7-0.8c14.9,1.3,28.8-0.2,42.7-1.5
				c1.2,0.9,1.6-0.2,2.8,0.7c2.8-2,7.4,0.7,9.9-1.8c-8.8-0.2-16.8,1.8-26.1,0.5c-3.1,0.7-9.5,1.9-11.5-0.4c1.9,0.3,5.7,1.6,5.4-0.7
				c-1.7-1.1-4.1,2-4.2-0.8c1.4,1,7.1-1.3,5.9,1.5c1.4-2.8,3.4,0.9,5.4-0.7c-0.8-1-2.3,0.5-2.1-0.9c1.8,1.1,2.1-1.2,3.5-1
				c0.1,1.4,2.9,0.6,2.1-0.1c-0.3,0.4-0.8,0.5-1.2,0.5c3-1.1,5.9,0.4,8.9-0.7c-0.3-0.2-0.8-0.4-0.7-0.8c1.2-0.2,1.1,1.8,1.7,0.7
				c-0.6-0.1-0.9-1.9,0.1-1.5c-0.7,1.2,4.6,1.1,3.9-0.9c2.5-0.1,3.8,2,5.4,0.3c-0.8-1-1.9,1.5-1.9-0.3c3.4-0.1,8.6-0.8,13.2-2.5
				c-2.7-1.2-4.9,1.8-6.9-0.4c-8.5,2.4-15.5,1.7-24.7,2.1c0.5,0.3,1.2,0.4,1.1,1c-2.9,0.3-15.8-0.5-12.8,1.6
				c-7.8-1.8-13.4,0.5-20.1-0.5c0.2-0.6,0.5-1.1,0.7-1.7c4.5,2,10.6,0.5,15.2-0.1c-3-0.6-4.1-0.6-6.3-0.7c0.2-0.6,0.5-1.1,0.7-1.7
				c2.9,0.3,5.5,1,9.4-0.6c-2.2,0.4,7.6,2.7,5.4,0.3c4.7,1.4,9.7-2.5,16.2-1.2c0.4-0.8-0.1-1.2,0.3-1.9c2,0.9,3-0.8,4.8-0.5
				c-1-1.9-5.8-1-8-0.4c1.3,0.8,2.2-0.3,2,1.3c-2,0.7-1.7-2-3-1.3c-1.6,0.3-6,1.2-9.7,1.4c-13.4,0.7-29.7-0.2-42.5,1.1
				c0.6,0.3,1.6,0.5,1.5,1.2C522.7,457.6,522.6,455.4,521.7,456.4z M553.9,465.1c0.1,1.4,0.8,1.3,1.2,3.1
				c-4.3-1.9-11.7,0.9-16.1-1.3c-4.1,1.6-11.4-0.2-17.5,0.6c5.1-1,12.4-2.6,16.2-1.2c0.7-0.6,1.9,0,2.2-1.6
				C540.3,467.2,550.5,468.4,553.9,465.1z"/>
			<path fill-rule="evenodd" clip-rule="evenodd" fill="#836031" d="M608.1,450.8c-0.4-0.4-0.6-0.9-0.3-1.7
				c-1.2-0.9-1.3,0.8-2.5-0.1c-0.3,1.4,1.1,0,1.7,0.7c-3.6-0.4-5.5,0.6-8.1,0.1c-0.2,0.2,0.4,0.8,0.7,0.8c-3.4,0.5-10.9,0.7-15.5,2
				c4,0,7.7-0.8,11.9-0.5c-4.1,0.4-9,2.5-13.1-0.1c-4.8,0.6-12.4,0.2-18,1.9c1.1-0.2,0.5-1.5-0.2-0.6c-0.5-0.5,0.2-0.4,0.4-0.9
				c-1.1-0.8-4,0-5.1-1.2c1.3-0.8,4.5-1.6,5.6-0.1c0.8-0.2,1.3-0.8,2-1.2c16.4-0.1,32.2-1.7,47.5-4.5c1.5,0.5,2.3,0.3,2.8,1.7
				C613.5,449.4,612.2,448.1,608.1,450.8z"/>
			<path fill-rule="evenodd" clip-rule="evenodd" fill="#836031" d="M544,453.8c1.3,0.2,2-1,3.3-0.6c-3.1,3.7-9.4-0.5-13,2
				c-4.5-1.7-7.9-0.2-10.5-1.5c0.7-1.5,2.4-0.4,3.7-0.4c-0.1-1.3-2.2-0.2-3.2-0.9c1.6-1.1,4,0,5.8-0.6c-1.6-1.5-5.5,0.3-7.6-2.3
				c5.5-0.5,12.6,3.1,17.4,0.8c0.4,0.1,0.3,0.3,0.2,0.6C537,452.9,544.8,451.5,544,453.8z"/>
			<path fill-rule="evenodd" clip-rule="evenodd" fill="#836031" d="M554.3,482c-0.5-0.3-0.1-0.5,0.2-0.4c-4-1.9-12.4,1-17.4-0.8
				c-0.8-0.2-1.3,0.3-1.6,1.3c-4.3-0.7-8.4-0.8-11.9,0.5c-0.5-0.5-0.8-1.1-1.3-1.6c0.2-0.2,1.8-1.2,0.7-1.7
				c13.8-2.5,29.2,0.8,42.3-0.6c-1-1.7-5,0.8-6.1-1.1c-0.4,0.7,0.1,1.1-0.3,1.9c-2-1.4-4.1-2.8-5.5-1.3c-4.9-2.8-7.5-1.4-11.6-2.4
				c2.1-1.2,4.8-1.1,7.5-0.9c-2.7-1.4,1.3-1,3.1-1.2c-1.3-1.7,2.6-1.2,4.3-0.7c-3.5,0.5-0.2-0.1-1.8,1.8c1.5,0.8,2.1-0.6,3.5,0
				c-0.2-0.5,0.2-1.3-0.3-1.7c-0.8-0.2-0.1,1.7-1.8,0.7c0.4-0.3,0.8-0.5,0.4-0.9c0.7-0.9,2-0.3,3.1-0.2c-0.2,0.3-0.6,0.2-0.8,0.7
				c0.7-0.2,1.8,0.3,2.5,0.1c0.1-0.7-0.6-0.1-1.3-0.5c0.4-0.7,1.2-0.7,2.1-0.1c-0.2,1.9-1.7,0.5-2.2,1.6c3.2-0.2,6.8,0.5,9.8-0.4
				c-1.8-0.8-3-1.8-6.7-0.9c-0.9-1.8,2.3-0.7,3.3-0.6c0.4-0.5-0.6-2-1.1-1c1.6-0.7,6.6,0.1,10.5,0.4c0.1-0.5-0.6-0.7-1.1-1
				c3.5-0.1,6.8-0.7,10.9,0.6c-0.2,0.7-0.7,0.6-1,1.1c1.3,0.4,4.6-2,3.4-2.1c1.8,0.9,4.4-0.3,5.8-0.6c2.2-0.4,4.6,0.3,6.5,0.2
				c4.9-0.2,9.1-1.9,14.9-1.7c-0.1-1-3.2-2.2-3.6-1c-0.5-2-2.5-1.6-4.7-2c1.7-1.1,3.9-0.8,6.2-0.4c-0.2,0.3-0.6,0.2-0.8,0.7
				c2.2,0.9,3.3-1.1,5.9,0.5c-0.4,0.6,0.1,0.9-0.1,1.5c6.2,0.8,10.9-2.4,16.8-2.5c1.6,5.7-7.8,7-11.1,5.9c-0.2,1.8-3.5,0.6-4.9,2
				c0.6,1.9-1.8,2.8,0.4,3.7c-3.3,0.8-6.9,1-10.3,1.7c0.9-0.5,1.9-0.7,2.6-1.4c-4-3.6-9.8,0.6-15.4-2c-1.4-0.2,0.7,1.1-0.3,1.9
				c-5.9-0.3-13-0.3-17.5,0.6c-0.5,0.1-1.9-0.9-1.8,0.7c-1.3-1.8-2.5,0.4-3.2-1.9c-0.6,1.3-1-0.2-2.9-0.2c0.9,2.5-0.9,1.4-2.4,2
				c1.8,0.8,2.9,1.9,4.6,1c0.6,0.6-0.2,1.1-0.8,0.7c-0.4,0.7,0.1,1.1-0.3,1.9c-0.8-0.2-0.7-0.8-0.2-0.6c0-1.5-1.7-0.2-2.6-1.1
				c0,0.5,0,0.9,0.5,1.2c-3.1,0.6-8.1-2-11.4,0.7C556.3,481.1,554.9,480.7,554.3,482z"/>
			<path fill-rule="evenodd" clip-rule="evenodd" fill="#836031" d="M589.4,476.8c3.3,3.3,9.7-1.3,13.4,0.7c-1.1,1-2.9,0.4-4.3,0.7
				c0,0.6,0.2,1.1,0.9,1.4c-1.5,0.4-2.9,1-4.8,0.5c0.7-1.4,2.6,0.1,3.5-1c-0.7-1.3-5.5-0.7-5,0.9c-2.4-1.2-5.1,1.9-8.5,0.9
				c0.5-0.8,1.5-0.3,2-1.2c-3.7,0-7.2,0.3-10.8,0.4c-0.2,1.4,1.5,0.3,2.1,0.9c-0.3,1.6-5.6,0-3.1,0.2c0.3-1.4-1.1,0-1.7-0.7
				c4.9-3.1,10.2-2.9,16-1.8C589,478.1,589.1,477.5,589.4,476.8z"/>
			<path fill-rule="evenodd" clip-rule="evenodd" fill="#836031" d="M572.1,483c-10.1,0.7-23.6-0.3-32.7,0.7
				c-4.6,0.5-11.5-0.7-16.7-0.1c-0.3,1.1,0,1.9-0.9,3.2c2.7,1.2,4.5,1.6,5.4,0.3c3.2,1.1,5.7,0.7,8.4,0.5c-0.2-0.6-1.5-0.8-0.7-1.8
				c12.7,0.3,24.2-0.4,35.8-0.9c-0.3,0.5-1,0.6,0.1,1c7-2.8,13.3-2.4,20.9-0.2c1.2-0.4,0.9-1.2,1.6-1.3c-0.1,0.7,0.7,0.9,0.9,1.4
				c1.2-0.4,0.9-1.2,1.6-1.3c0.7,1.2,2.7,0.3,2.6,2.1c-5.6,2.4-12.4,2-18.1,4.4c-0.9-0.4-1.7-0.7-2.6-1.1c-1.2,0.2,0.1,1.3-1,1.1
				c-1-0.7-1.3-1.2-2.3-0.5c-0.5,0.7-6.2,0.4-7.7,0.2c-10.1,2.6-25.9-1.4-37.1,1.4c-0.8,5.6,7.4,2.4,10.6,3.5
				c-0.3-0.2-0.8-0.4-0.7-0.8c5,0.5,7.3-0.4,12.6,1.3c-1.2,1.9,0.6,2.6,0.2,4.2c13.4,2.9,24.8-1,38.2-0.4c1.1-1.2-1.2-0.9-0.1-2.1
				c0.3,1.7,2.9,2.3,4.3,1.8c-1.1,2.3,2.1,0.7,1.8,2.8c1.1-0.3,2.3-0.2,3.5,0c0.4-1.1-0.2-1.7,0.9-2.1c-0.9-0.7-2.5,1.4-2.5-0.1
				c3.3-0.7,3.9-4.8,1.5-7c-4.1,0.9-10.8,0.3-14.4-0.6c4.2-0.3,8.3-1.2,12.2-2.4c-0.8-0.3-0.8-0.9-0.3-1.7c1.9,0.7,4.9-0.8,5.9,0.5
				c-1.9,0-3.7,0.3-5.4,0.7c7.5-0.2,15.2,0.3,21.5-2.9c-1-1.4-4.8-0.9-4.5,1.1c-1.8-0.6-3.5,0.9-4-1.2c-1.4,2.9-4.6,1.5-7,2.1
				c0.2-1.8-1.8-1.4-0.8-2.9c-1.9-1.4-4.3,2-4.6-1c6.8-0.9,13.8-1.8,20.2,0.1c-1.8-0.8,1.8-1.3,3.1-0.2c0.8-4.2,9.4-0.5,9.9-5.4
				c-3.3,3.3-9.5-0.6-13,2c0.9,0.9,2.3-1.2,2.3,0.5c-6.7-0.5-16.1-0.9-22.1-0.4c-0.3,0.6-0.2,1-0.1,1.5c-4.4-1.4-12-1.8-14.8,0.3
				C582.5,481.7,574.7,482.8,572.1,483z M553.4,495.8c3.5-0.8,11,0.5,11.5,0.4c0.6-1.1,0.5,0.9,1.7,0.7
				C562.8,497.5,557,497.6,553.4,495.8z"/>
			<path fill-rule="evenodd" clip-rule="evenodd" fill="#836031" d="M553.1,510.9c-0.9,0.8,3.2-2.6,0.7-1.7
				c2.9-1.1,10.7,0.5,16.5,0.5c2.8,0,6.2,0.2,9.4,0.5c-7.6-1.6,0.8-1.2,4.7-1.5c-3.8-1.6-9.4,0.3-14.2-1c3-1.3,6.7-1.7,10.8-1.5
				c6.4,0.3,14,0.4,19.8,2.4c-2.5,2.2-6.6,0.6-9.7,1.4c-0.3,1.4,1.1,0,1.7,0.7c-2.5,0.5-5-1.8-6.4,0.8c-1.6-0.7-3.5-0.5-6.7-0.9
				c1.4,1.7-4.7,2.3-5.8,0.6c-0.5,1.2-3.4,1.5-5.6,1.2c0.4,1.5,2.5-0.2,3.8,0.6C565.8,512.9,559.2,512.6,553.1,510.9z"/>
			<path fill-rule="evenodd" clip-rule="evenodd" fill="#836031" d="M594.2,423.1c1.8-1.2,9.5-2.9,12.2-2.4
				c-0.5,1.4-2.1,0.1-2.9,0.8c2.1,1.4-2.7,1.4-4.3,1.7c-0.4-0.2-0.1-0.7-0.1-1C597.6,422.8,595.7,422.3,594.2,423.1z"/>
			<path fill-rule="evenodd" clip-rule="evenodd" fill="#836031" d="M602.5,479.3c0.5,2.1,1.9-1,2.6-1.4c0.6,0.2,1.1,0.5,1.7,0.7
				c-1.2,1.6-3.2,1.5-4.9,2c-0.5-1.1,0-0.9-1.5-1.2c0.8-0.4,3.2-1.4,3.3-0.6C603.6,479.6,603.1,479.5,602.5,479.3z"/>
		</g>
		<g>
			
				<rect x="69.7" y="355.9" transform="matrix(-0.3935 0.9193 -0.9193 -0.3935 564.0722 481.3145)" fill="none" width="107.2" height="141.7"/>
			<path fill-rule="evenodd" clip-rule="evenodd" fill="#836031" d="M155,435.1c3.2-0.7,6.9-0.5,10.4-0.6
				C162.6,436.2,158.8,435.7,155,435.1z"/>
			<path fill-rule="evenodd" clip-rule="evenodd" fill="#836031" d="M162.9,429.9c4-1,9.9-1.7,14,0.4c-0.9,1.2,0.2,1.6-0.7,2.8
				C172,432.8,165.3,433.7,162.9,429.9z"/>
			<path fill-rule="evenodd" clip-rule="evenodd" fill="#836031" d="M140.5,394.5c-0.9-1.9-2.2,1-3.7,0.4c3.2,0.2,9.7,0.9,11.7-2.6
				c0.3,0.4,0.5,0.8,0.9,0.4c0.8,0.2,0.7,0.7,0.5,1.2c2.2,0.7,1.6-1.2,3.1-1.2c-0.6,2.3,3.8,0,2.3,0.5c-0.6-1.3,2.4-1.6,3.1-0.2
				c2.6,0.5,5.5-2.6,7.5-0.9c-6.1,3.4-17,1.5-20.2,4.5c-1.4,0.6-4.2-2.4-5.6,0.1c-1.1-1.2-5.4-1.6-5.2,0.3c0.8-0.7,2-0.3,2.9-0.8
				c0.3,2.5-2,0.7-3.7,1.5c1.1-2.6-6.1-0.8-8.4-0.5c-0.5-1.6,2.9-1,4.1-1.3c-0.8-1.2-3.5,0.6-5.4-0.3c0,0.5,0,0.9,0.5,1.2
				c-2,1.9-4.3-2-6.5-0.2c-0.1,0.7,2.4,0.7,2.9,0.2c-0.9,0.9-10,2.3-9.8,0.4c-1.4-0.2-0.8,0.4-1.2,1.5c-4.5-0.1-8.6,1.1-13.1,1
				c0.1,1.1,2.5,0.2,2.2,2c0.7,0.1,0.1-0.6,0.5-1.3c1.6,0.3,1.5,1.6,2.6,1.1c0.2-1.1-0.9,0.2-1.1-1c1-1.4,2.3,0.3,2.6,1.1
				c13.8-0.6,28.3-1.9,42.8-3c-6.1,1.8-15.9,2.3-23.6,3.1c-0.5,0.7,0,1,0.5,1.2c-0.5,0.8-1.8-0.3-2.3,0.6c-0.6-0.6,0.3-0.8,0.5-1.3
				c-1.5-0.6-1.8,2.1-3,2.3c-1.5-0.8-3.9-0.5-3.5,0c-0.5,0.8-3-1.4-1.3-1.6c-1.7-0.6-2.7-0.1-2.6,1.4c-6.8-0.4-13.1,0.3-19.8,0.1
				c-0.2,0.4,0.4,0.6,0.7,0.8c-11.8-0.7-22.8,1.2-35.4-2.5c1.9-0.3,1.8-0.7,0.3-1.9c5.5,1.1,14.2-0.9,20.1,1.5
				c4.5-1.4,10-0.4,15-0.7c-1.4-2.6-6.6-0.8-9.2-0.9c-1.8-0.2,0-1.9-1.6-2.2c2.1-1.7,5-3.2,9.3-1.6c1-2,5.5-0.6,9.5-1
				c2.4-0.2,2.8-0.4,4.8-0.5c3.2-0.2,9.8-2.5,13.1-1c6.2-2.2,14.3,0.2,20.5-1.8C140.1,393.4,141.2,392.6,140.5,394.5z"/>
			<path fill-rule="evenodd" clip-rule="evenodd" fill="#836031" d="M121.9,387c0.6-1-2.1-0.6-0.7-1.8c7.9,0.8,13.8-3.3,21.3-3.6
				c2.2,1.2,0.6,4,1,6c-2.2,2.2-6.3-0.3-8.2,2.6c-1.2-0.5-0.6-1.1-1.7-0.7c-13.4,4.1-28.3,4.5-42.9,5.5c1.1-2.2,3.8-0.6,5.3-1.8
				c-4,0.2-6.7,0.1-8.7,1.3c-0.2,1.4,1.1-0.7,1.9,0.3c-0.9,0.9-2.5,0.3-3.5,1c-1.3-1.3,1.3-0.2,1.2-1.5c-0.7-1.2-3.6-0.1-5-0.1
				c-0.2,2.1,1.1,0,2.6,1.1c-3.9-0.8-8.6-0.7-11.9-3.1c0.2-1,1-0.6,1.7-0.3c0.3-2.9-0.3-3.4,0.2-6.5c10.2-0.5,19-4.5,30.1-2.8
				c0.4-1.5-2.1,0.4-0.9-1.4c6,2.1,11.3-0.7,17.5-0.6c-2-1.4-6.2-0.7-8.3,0.5c-0.4-0.3,0.1-1-0.5-1.2c-1.1,1.8-2.2-0.9-3.2,1.7
				c-1.3-1,0-1.1,0.7-1.7c-1.3-0.5-3.1,0-3.6-1c1.8-0.7,1.9-0.4,4,0.2c3.1-1.4,6.7-1.5,10.3-1.7c1.4-2.5,5.1-3.5,6.7-2.7
				c2.7-2.3,13.7-2.6,10.3,5.4c-11.1,3.8-23.1,5.5-35.8,5.5c0.3-1,1.4,0.1,1.8-0.7c-7,3-16.7,5.2-26.2,4.5c0,1.1,2.1-0.1,3.2,0.9
				c-0.4,0.8-1.5-0.3-1.8,0.7c3.7,0.2,9.5-0.6,10.2-0.2C98.5,388.9,112.1,389.2,121.9,387z"/>
			<path fill-rule="evenodd" clip-rule="evenodd" fill="#836031" d="M85.6,414c-1.6,0.5-2.1-2.1-3.4-1.5c-6.4,1-16.5-1.4-25.5-0.8
				c0.1,1,0.1,2.1,0.2,3.1c6.1,3.6,12.8-0.9,18.5,1.8c4.4-0.1,14.4,0.9,22.1,0.4c-0.5-0.3-1-0.6-0.5-1.2c1.7,0.9,2.2,0,2.4,1.5
				c2.3-2.1,7-1.3,9.4-0.6c-0.3-0.2-0.8-0.4-0.7-0.8c1.5-0.4,1.8,1.3,2.8,0.7c-0.8-0.3-0.8-0.9-0.3-1.7c4.6,2.3,6.5-0.1,10.9,0.6
				c-0.2,0.5-0.9,0.4-0.4,0.9c3.4-0.2,9.3-1,10-3.3c1.5,0.6,2.2,0,2.4,1.5c0.4-0.3,0.9-0.9,1.4-0.9c6.6-0.6,14.1-1,19.8-1.2
				c0-1,3.3-1.2,4.2-2.8c-9-1.1-19.4,1-28.4,2.5c-0.7-1,1-0.8,0.1-1.5c-0.7,0.7-1.4-0.3-1,1.1c-8.9-0.9-19.1,3-26.5,0.3
				c0.6,0,1.2,0,1.7-0.3c-2.4-0.6-3.5-1.2-5.9-0.5c0.7,1.6,2.5,0.3,4,1.2c-0.1,0.6,0.3,1.1-0.3,1.9c-0.2-2.6-6.1-1.5-3.8-0.6
				c-0.9,1.4-3.1-0.6-4.6-1c-1.1,1.2,1.2,0.9,0.1,2.1C91,411.9,87.1,413.4,85.6,414z M125.7,415c-0.8,2.4-3.1-0.7-3.5,1
				C121.2,413.9,125.1,413.2,125.7,415z"/>
			<path fill-rule="evenodd" clip-rule="evenodd" fill="#836031" d="M73.6,408.9c0.7,0.4,1.1-0.1,1.9,0.3c0.3-1.4-1.1,0-1.7-0.7
				c3.4-3,8.8-0.3,13.2-2.5c0.8,0.4,0,1.4,1.3,1.6c0.7,0.1,0.1-0.6,0.6-1.3c4,0.9,8.5,0.6,12.6,1.3c-0.1-0.4-0.1-0.9,0.1-1.5
				c2.7,1.7,3.7-0.9,6.5,1.3c0.3-0.5,0.2-0.8-0.1-1c7.1,2.6,17.2-1.7,26.3,0.1c0.8-0.3,1.3-1.4,2.2-1.6c4.9,2.3,7.8,0.3,11.4,1.8
				c0.5-0.8,0.5-1.4-0.3-1.7c3.2-0.7,5.1,0.1,8.1-0.1c-1.8,1.6-4.8,0.4-7,1c0.2,0.5,2,0.6,1,2.4c-0.4-0.2-0.1-0.7-0.1-1
				c-1.2-0.6-1.7,0.4-2.9-0.2c-0.1,0.5,0.7,0.7,0.5,1.2c0.5-0.1,1-0.5,1.4-0.9c-2.4,2.3-12.7,1.7-18.5,1.7c-1.4,0.4-2.7,1-4.6,0.1
				c1-0.8,2.6,0.1,3.7-0.4c-0.6-1.1-3.1,0.6-5.1-1.2c0.2,0.6,0.5,1.2,0.7,1.8c-1,0.2-1.7,1-3.1,0.2c0.3-1,1.4,0.1,1.8-0.7
				c-1.3-0.6-1.8,0.8-3.4-0.4c1.2,3-11.5,2.3-12.1-0.1c-1-0.6-0.6,2.1-1.8,0.7c0.2-0.3,0.6-0.2,0.8-0.7c-0.7-0.4-1.1,0.1-1.9-0.3
				c0.4,2.5,4.4,1,5.1,2.2c-4.5,1.8-11.5-2.7-15.4,0.5c-1.1-1.6-7.7-1-8.1,0.1c-5.5-1.1-11.7,1.1-15.4-3.1
				C71.7,406.2,74.2,408.1,73.6,408.9z"/>
			<path fill-rule="evenodd" clip-rule="evenodd" fill="#836031" d="M80.6,425.6c1,0.3-0.1,1.4,0.7,1.8c1.5-0.4,3.2-0.4,5,0.1
				c-6.3,2.6-13.4,0.8-21.8,1.3c-0.8,1.9,2.1,2.7-0.4,3.4c3.3,1.3,6.8-1.2,9.2,0.9c-1.7-0.4-2.9,0.4-4.6,0.1
				c-1.1,1.1-0.7,1.4-0.7,2.8c-1.9,0.3-4.2-0.5-6.1-0.1c-1.7,4.7,5.3,3.7,8.2,4.5c1.3-0.1-0.2-1.6,1.2-1.5c3.6,0.9,9.5,0.1,13.8-0.2
				c-0.3-0.2-0.8-0.4-0.7-0.8c3.3,1.7,10.1,1.7,12.8,0.9c-0.2,0.1-0.9-0.6-0.7-0.8c14.9,1.3,28.8-0.2,42.7-1.5
				c1.2,0.9,1.6-0.2,2.8,0.7c2.8-2,7.4,0.7,9.9-1.8c-8.8-0.2-16.8,1.8-26.1,0.5c-3.1,0.7-9.5,1.9-11.5-0.4c1.9,0.3,5.7,1.6,5.4-0.7
				c-1.7-1.1-4.1,2-4.2-0.8c1.4,1,7.1-1.3,5.9,1.5c1.4-2.8,3.4,0.9,5.4-0.7c-0.8-1-2.3,0.5-2.1-0.9c1.8,1.1,2.1-1.2,3.5-1
				c0.1,1.4,2.9,0.6,2.1-0.1c-0.3,0.4-0.8,0.5-1.2,0.5c3-1.1,5.9,0.4,8.9-0.7c-0.3-0.2-0.8-0.4-0.7-0.8c1.2-0.2,1.1,1.8,1.7,0.7
				c-0.6-0.1-0.9-1.9,0.1-1.5c-0.7,1.2,4.6,1.1,3.9-0.9c2.5-0.1,3.8,2,5.4,0.3c-0.8-1-1.9,1.5-1.9-0.3c3.4-0.1,8.6-0.8,13.2-2.5
				c-2.7-1.2-4.9,1.8-6.9-0.4c-8.5,2.4-15.5,1.7-24.7,2.1c0.5,0.3,1.2,0.4,1.1,1c-2.9,0.3-15.8-0.5-12.8,1.6
				c-7.8-1.8-13.4,0.5-20.1-0.5c0.2-0.6,0.5-1.1,0.7-1.7c4.5,2,10.6,0.5,15.2-0.1c-3-0.6-4.1-0.6-6.3-0.7c0.2-0.6,0.5-1.1,0.7-1.7
				c2.9,0.3,5.5,1,9.4-0.6c-2.2,0.4,7.6,2.7,5.4,0.3c4.7,1.4,9.7-2.5,16.2-1.2c0.4-0.8-0.1-1.2,0.3-1.9c2,0.9,3-0.8,4.8-0.5
				c-1-1.9-5.8-1-8-0.4c1.3,0.8,2.2-0.3,2,1.3c-2,0.7-1.7-2-3-1.3c-1.6,0.3-6,1.2-9.7,1.4c-13.4,0.7-29.7-0.2-42.5,1.1
				c0.6,0.3,1.6,0.5,1.5,1.2C81.7,426.7,81.5,424.6,80.6,425.6z M112.9,434.3c0.1,1.4,0.8,1.3,1.2,3.1c-4.3-1.9-11.7,0.9-16.1-1.3
				c-4.1,1.6-11.4-0.2-17.5,0.6c5.1-1,12.4-2.6,16.2-1.2c0.7-0.6,1.9,0,2.2-1.6C99.2,436.4,109.5,437.6,112.9,434.3z"/>
			<path fill-rule="evenodd" clip-rule="evenodd" fill="#836031" d="M167.1,420c-0.4-0.4-0.6-0.9-0.3-1.7c-1.2-0.9-1.3,0.8-2.5-0.1
				c-0.3,1.4,1.1,0,1.7,0.7c-3.6-0.4-5.5,0.6-8.1,0.1c-0.2,0.2,0.4,0.8,0.7,0.8c-3.4,0.5-10.9,0.7-15.5,2c4,0,7.7-0.8,11.9-0.5
				c-4.1,0.4-9,2.5-13.1-0.1c-4.8,0.6-12.4,0.2-18,1.9c1.1-0.2,0.5-1.5-0.2-0.6c-0.5-0.5,0.2-0.4,0.4-0.9c-1.1-0.8-4,0-5.1-1.2
				c1.4-0.8,4.5-1.6,5.6-0.1c0.8-0.2,1.3-0.8,2-1.2c16.4-0.1,32.2-1.7,47.5-4.5c1.5,0.5,2.3,0.3,2.8,1.7
				C172.5,418.6,171.1,417.3,167.1,420z"/>
			<path fill-rule="evenodd" clip-rule="evenodd" fill="#836031" d="M103,423c1.3,0.2,2-1,3.3-0.6c-3.1,3.7-9.4-0.5-13,2
				c-4.5-1.7-7.9-0.2-10.5-1.5c0.7-1.5,2.4-0.4,3.7-0.4c-0.1-1.3-2.2-0.2-3.2-0.9c1.6-1.1,4,0,5.8-0.6c-1.6-1.5-5.5,0.3-7.6-2.3
				c5.5-0.5,12.6,3.1,17.4,0.8c0.4,0.1,0.3,0.3,0.2,0.6C95.9,422,103.8,420.6,103,423z"/>
			<path fill-rule="evenodd" clip-rule="evenodd" fill="#836031" d="M113.2,451.2c-0.5-0.3-0.1-0.5,0.2-0.4c-4-1.9-12.4,1-17.4-0.8
				c-0.8-0.2-1.3,0.3-1.6,1.3c-4.3-0.7-8.4-0.8-11.9,0.5c-0.5-0.5-0.8-1.1-1.3-1.6c0.2-0.2,1.8-1.2,0.7-1.7
				c13.8-2.5,29.2,0.8,42.3-0.6c-1-1.7-5,0.8-6.1-1.1c-0.4,0.7,0.1,1.1-0.3,1.9c-2-1.4-4.1-2.8-5.5-1.3c-4.9-2.8-7.5-1.4-11.6-2.4
				c2.1-1.2,4.8-1.1,7.5-0.9c-2.7-1.4,1.3-1,3.1-1.2c-1.3-1.7,2.6-1.2,4.3-0.7c-3.5,0.5-0.2-0.1-1.8,1.8c1.5,0.8,2.1-0.6,3.5,0
				c-0.2-0.5,0.2-1.3-0.3-1.7c-0.8-0.2-0.1,1.7-1.8,0.7c0.4-0.3,0.8-0.5,0.4-0.9c0.7-0.9,2-0.3,3.1-0.2c-0.2,0.3-0.6,0.2-0.8,0.7
				c0.7-0.2,1.8,0.3,2.5,0.1c0.1-0.7-0.6-0.1-1.3-0.5c0.4-0.7,1.2-0.7,2.1-0.1c-0.2,1.9-1.7,0.5-2.2,1.6c3.2-0.2,6.8,0.5,9.8-0.4
				c-1.8-0.8-3-1.8-6.7-0.9c-0.9-1.8,2.3-0.7,3.3-0.6c0.4-0.5-0.6-2-1.1-1c1.6-0.7,6.6,0.1,10.5,0.4c0.1-0.5-0.6-0.7-1.1-1
				c3.5-0.1,6.8-0.7,10.9,0.6c-0.2,0.7-0.7,0.6-1,1.1c1.3,0.4,4.6-2,3.4-2.1c1.8,0.9,4.4-0.3,5.8-0.6c2.2-0.4,4.6,0.3,6.5,0.2
				c4.9-0.2,9.1-1.9,14.9-1.7c-0.1-1-3.2-2.2-3.6-1c-0.5-2-2.5-1.6-4.7-2c1.7-1.1,3.9-0.8,6.2-0.4c-0.2,0.3-0.6,0.2-0.8,0.7
				c2.2,0.9,3.3-1.1,5.9,0.5c-0.4,0.6,0.1,0.9-0.1,1.5c6.2,0.8,10.9-2.4,16.8-2.5c1.6,5.7-7.8,7-11.1,5.9c-0.2,1.8-3.5,0.6-4.9,2
				c0.6,1.9-1.8,2.8,0.4,3.7c-3.3,0.8-6.9,1-10.3,1.7c0.9-0.5,1.9-0.7,2.6-1.4c-4-3.6-9.8,0.6-15.4-2c-1.4-0.2,0.7,1.1-0.3,1.9
				c-5.9-0.3-13-0.3-17.5,0.6c-0.5,0.1-1.9-0.9-1.8,0.7c-1.3-1.8-2.5,0.4-3.2-1.9c-0.6,1.3-1-0.2-2.9-0.2c0.9,2.5-0.9,1.4-2.4,2
				c1.8,0.8,2.9,1.9,4.6,1c0.6,0.6-0.2,1.1-0.8,0.7c-0.4,0.7,0.1,1.1-0.3,1.9c-0.8-0.2-0.7-0.8-0.2-0.6c0-1.5-1.7-0.2-2.6-1.1
				c0,0.5,0,0.9,0.5,1.2c-3.1,0.6-8.1-2-11.4,0.7C115.3,450.3,113.9,449.9,113.2,451.2z"/>
			<path fill-rule="evenodd" clip-rule="evenodd" fill="#836031" d="M148.4,446c3.3,3.3,9.7-1.3,13.4,0.7c-1.1,1-2.9,0.4-4.3,0.7
				c0,0.6,0.2,1.1,0.9,1.4c-1.5,0.4-2.9,1-4.8,0.5c0.7-1.4,2.6,0.1,3.5-1c-0.7-1.3-5.5-0.7-5,0.9c-2.4-1.2-5.1,1.9-8.5,0.9
				c0.5-0.8,1.5-0.3,2-1.2c-3.7,0-7.2,0.3-10.8,0.4c-0.2,1.4,1.5,0.3,2.1,0.9c-0.3,1.6-5.6,0-3.1,0.2c0.3-1.4-1.1,0-1.7-0.7
				c4.9-3.1,10.2-2.9,16-1.8C147.9,447.3,148,446.7,148.4,446z"/>
			<path fill-rule="evenodd" clip-rule="evenodd" fill="#836031" d="M131,452.2c-10.1,0.7-23.6-0.3-32.7,0.7
				c-4.6,0.5-11.5-0.7-16.7-0.1c-0.3,1.1,0,1.9-0.9,3.2c2.7,1.2,4.5,1.6,5.4,0.3c3.2,1.1,5.7,0.7,8.4,0.5c-0.2-0.6-1.5-0.8-0.7-1.8
				c12.7,0.3,24.2-0.4,35.8-0.9c-0.3,0.5-1,0.6,0.1,1c7-2.8,13.3-2.4,20.9-0.2c1.2-0.4,0.9-1.2,1.6-1.3c-0.1,0.7,0.7,0.9,0.9,1.4
				c1.2-0.4,0.9-1.2,1.6-1.3c0.7,1.2,2.7,0.3,2.6,2.1c-5.6,2.4-12.4,2-18.1,4.4c-0.9-0.4-1.7-0.7-2.6-1.1c-1.2,0.2,0.1,1.3-1,1.1
				c-1-0.7-1.3-1.2-2.3-0.5c-0.5,0.7-6.2,0.4-7.7,0.2c-10.1,2.6-25.9-1.4-37.1,1.4c-0.8,5.6,7.4,2.4,10.6,3.5
				c-0.3-0.2-0.8-0.4-0.7-0.8c5,0.5,7.3-0.4,12.6,1.3c-1.2,1.9,0.6,2.6,0.2,4.2c13.4,2.9,24.8-1,38.2-0.4c1.1-1.2-1.2-0.9-0.1-2.1
				c0.3,1.7,2.9,2.3,4.3,1.8c-1.1,2.3,2.1,0.7,1.8,2.8c1.1-0.3,2.3-0.2,3.5,0c0.4-1.1-0.2-1.7,0.9-2.1c-0.9-0.7-2.5,1.4-2.5-0.1
				c3.3-0.7,3.9-4.8,1.5-7c-4.1,0.9-10.8,0.3-14.4-0.6c4.2-0.3,8.3-1.2,12.2-2.4c-0.8-0.3-0.8-0.9-0.3-1.7c1.9,0.7,4.9-0.8,5.9,0.5
				c-1.9,0-3.7,0.3-5.4,0.7c7.5-0.2,15.2,0.3,21.5-2.9c-1-1.4-4.8-0.9-4.5,1.1c-1.8-0.6-3.5,0.9-4-1.2c-1.4,2.9-4.6,1.5-7,2.1
				c0.2-1.8-1.8-1.4-0.8-2.9c-1.9-1.4-4.3,2-4.6-1c6.8-0.9,13.8-1.8,20.2,0.1c-1.8-0.8,1.8-1.3,3.1-0.2c0.8-4.2,9.4-0.5,9.9-5.4
				c-3.3,3.3-9.5-0.6-13,2c0.9,0.9,2.3-1.2,2.3,0.5c-6.7-0.5-16.1-0.9-22.1-0.4c-0.3,0.6-0.2,1-0.1,1.5c-4.4-1.4-12-1.8-14.8,0.3
				C141.4,450.9,133.7,452,131,452.2z M112.4,465c3.5-0.8,11,0.5,11.5,0.4c0.6-1.1,0.5,0.9,1.7,0.7C121.8,466.7,116,466.8,112.4,465
				z"/>
			<path fill-rule="evenodd" clip-rule="evenodd" fill="#836031" d="M112,480c-0.9,0.8,3.2-2.6,0.7-1.7c2.9-1.1,10.7,0.5,16.5,0.5
				c2.8,0,6.2,0.2,9.4,0.5c-7.6-1.6,0.8-1.2,4.7-1.5c-3.8-1.6-9.4,0.3-14.2-1c3-1.3,6.7-1.7,10.8-1.5c6.4,0.3,14,0.4,19.8,2.4
				c-2.5,2.2-6.6,0.6-9.7,1.4c-0.3,1.4,1.1,0,1.7,0.7c-2.5,0.5-5-1.8-6.4,0.8c-1.6-0.7-3.5-0.5-6.7-0.9c1.4,1.7-4.7,2.3-5.8,0.6
				c-0.5,1.2-3.4,1.5-5.6,1.2c0.4,1.5,2.5-0.2,3.8,0.6C124.8,482.1,118.2,481.8,112,480z"/>
			<path fill-rule="evenodd" clip-rule="evenodd" fill="#836031" d="M153.1,392.3c1.8-1.2,9.5-2.9,12.2-2.4
				c-0.5,1.4-2.1,0.1-2.9,0.8c2.1,1.4-2.7,1.4-4.3,1.7c-0.4-0.2-0.1-0.7-0.1-1C156.6,392,154.6,391.5,153.1,392.3z"/>
			<path fill-rule="evenodd" clip-rule="evenodd" fill="#836031" d="M161.5,448.5c0.5,2.1,1.9-1,2.6-1.4c0.6,0.2,1.1,0.5,1.7,0.7
				c-1.2,1.6-3.2,1.5-4.9,2c-0.5-1.1,0-0.9-1.5-1.2c0.8-0.4,3.2-1.4,3.3-0.6C162.5,448.8,162,448.7,161.5,448.5z"/>
		</g>
		<g>
			
				<rect x="177.9" y="389.8" transform="matrix(-0.3935 0.9193 -0.9193 -0.3935 746.1168 429.0988)" fill="none" width="107.2" height="141.7"/>
			<path fill-rule="evenodd" clip-rule="evenodd" fill="#836031" d="M263.3,469.1c3.2-0.7,6.9-0.5,10.4-0.6
				C270.8,470.1,267.1,469.7,263.3,469.1z"/>
			<path fill-rule="evenodd" clip-rule="evenodd" fill="#836031" d="M271.1,463.8c4-1,9.9-1.7,14,0.4c-0.9,1.2,0.2,1.6-0.7,2.8
				C280.3,466.7,273.5,467.6,271.1,463.8z"/>
			<path fill-rule="evenodd" clip-rule="evenodd" fill="#836031" d="M248.8,428.4c-0.9-1.9-2.2,1-3.7,0.4c3.2,0.2,9.7,0.9,11.7-2.6
				c0.3,0.4,0.5,0.8,0.9,0.4c0.8,0.2,0.7,0.7,0.5,1.2c2.2,0.7,1.6-1.2,3.1-1.2c-0.6,2.3,3.8,0,2.3,0.5c-0.6-1.3,2.4-1.6,3.1-0.2
				c2.6,0.5,5.5-2.6,7.5-0.9c-6.1,3.4-17,1.5-20.2,4.5c-1.4,0.6-4.2-2.4-5.6,0.1c-1.1-1.2-5.4-1.6-5.2,0.3c0.8-0.7,2-0.3,2.9-0.8
				c0.3,2.5-2,0.7-3.7,1.5c1.1-2.6-6.1-0.8-8.4-0.5c-0.5-1.6,2.9-1,4.1-1.3c-0.8-1.2-3.5,0.6-5.4-0.3c0,0.5,0,0.9,0.5,1.2
				c-2,1.9-4.3-2-6.5-0.2c-0.1,0.7,2.4,0.7,2.9,0.2c-0.9,0.9-10,2.3-9.8,0.4c-1.4-0.2-0.8,0.4-1.2,1.5c-4.5-0.1-8.6,1.1-13.1,1
				c0.1,1.1,2.5,0.2,2.2,2c0.7,0.1,0.1-0.6,0.5-1.3c1.6,0.3,1.5,1.6,2.6,1.1c0.2-1.1-0.9,0.2-1.1-1c1-1.4,2.3,0.3,2.6,1.1
				c13.8-0.6,28.3-1.9,42.8-3c-6.1,1.8-15.9,2.3-23.6,3.1c-0.5,0.7,0,1,0.5,1.2c-0.5,0.8-1.8-0.3-2.3,0.6c-0.6-0.6,0.3-0.8,0.5-1.3
				c-1.5-0.6-1.8,2.1-3,2.3c-1.5-0.8-3.9-0.5-3.5,0c-0.5,0.8-3-1.4-1.3-1.6c-1.7-0.6-2.7-0.1-2.6,1.4c-6.8-0.4-13.1,0.3-19.8,0.1
				c-0.2,0.4,0.4,0.6,0.7,0.8c-11.8-0.7-22.8,1.2-35.4-2.5c1.9-0.3,1.8-0.7,0.3-1.9c5.5,1.1,14.2-0.9,20.1,1.5
				c4.5-1.4,10-0.4,15-0.7c-1.4-2.6-6.6-0.8-9.2-0.9c-1.8-0.2,0-1.9-1.6-2.2c2.1-1.7,5-3.2,9.3-1.6c1-2,5.5-0.6,9.5-1
				c2.4-0.2,2.8-0.4,4.8-0.5c3.2-0.2,9.8-2.5,13.1-1c6.2-2.2,14.3,0.2,20.5-1.8C248.4,427.3,249.5,426.5,248.8,428.4z"/>
			<path fill-rule="evenodd" clip-rule="evenodd" fill="#836031" d="M230.2,421c0.6-1-2.1-0.6-0.7-1.8c7.9,0.8,13.8-3.3,21.3-3.6
				c2.2,1.2,0.6,4,1,6c-2.2,2.2-6.3-0.3-8.2,2.6c-1.2-0.5-0.6-1.1-1.7-0.7c-13.4,4.1-28.3,4.5-42.9,5.5c1.1-2.2,3.8-0.6,5.3-1.8
				c-4,0.2-6.7,0.1-8.7,1.3c-0.2,1.4,1.1-0.7,1.9,0.3c-0.9,0.9-2.5,0.3-3.5,1c-1.3-1.3,1.3-0.2,1.2-1.5c-0.7-1.2-3.6-0.1-5-0.1
				c-0.2,2.1,1.1,0,2.6,1.1c-3.9-0.8-8.6-0.7-11.9-3.1c0.2-1,1-0.6,1.7-0.3c0.3-2.9-0.3-3.4,0.2-6.5c10.2-0.5,19-4.5,30.1-2.8
				c0.4-1.5-2.1,0.4-0.9-1.4c6,2.1,11.3-0.7,17.5-0.6c-2-1.4-6.2-0.7-8.3,0.5c-0.4-0.3,0.1-1-0.5-1.2c-1.1,1.8-2.2-0.9-3.2,1.7
				c-1.3-1,0-1.1,0.7-1.7c-1.3-0.5-3.1,0-3.6-1c1.8-0.7,1.9-0.4,4,0.2c3.1-1.4,6.7-1.5,10.3-1.7c1.4-2.5,5.1-3.5,6.7-2.7
				c2.7-2.3,13.7-2.6,10.3,5.4c-11.1,3.8-23.1,5.5-35.8,5.5c0.3-1,1.4,0.1,1.8-0.7c-7,3-16.7,5.2-26.2,4.5c0,1.1,2.1-0.1,3.2,0.9
				c-0.4,0.8-1.5-0.3-1.8,0.7c3.7,0.2,9.5-0.6,10.2-0.2C206.7,422.9,220.3,423.1,230.2,421z"/>
			<path fill-rule="evenodd" clip-rule="evenodd" fill="#836031" d="M193.8,447.9c-1.6,0.5-2.1-2.1-3.4-1.5
				c-6.4,1-16.5-1.4-25.5-0.8c0.1,1,0.1,2.1,0.2,3.1c6.1,3.6,12.8-0.9,18.5,1.8c4.4-0.1,14.4,0.9,22.1,0.4c-0.5-0.3-1-0.6-0.5-1.2
				c1.7,0.9,2.2,0,2.4,1.5c2.3-2.1,7-1.3,9.4-0.6c-0.3-0.2-0.8-0.4-0.7-0.8c1.5-0.4,1.8,1.3,2.8,0.7c-0.8-0.3-0.8-0.9-0.3-1.7
				c4.6,2.3,6.5-0.1,10.9,0.6c-0.2,0.5-0.9,0.4-0.4,0.9c3.4-0.2,9.3-1,10-3.3c1.5,0.6,2.2,0,2.4,1.5c0.4-0.3,0.9-0.9,1.4-0.9
				c6.6-0.6,14.1-1,19.8-1.2c0-1,3.3-1.2,4.2-2.8c-9-1.1-19.4,1-28.4,2.5c-0.7-1,1-0.8,0.1-1.5c-0.7,0.7-1.4-0.3-1,1.1
				c-8.9-0.9-19.1,3-26.5,0.3c0.6,0,1.2,0,1.7-0.3c-2.4-0.6-3.5-1.2-5.9-0.5c0.7,1.6,2.5,0.3,4,1.2c-0.1,0.6,0.3,1.1-0.3,1.9
				c-0.2-2.6-6.1-1.5-3.8-0.6c-0.9,1.4-3.1-0.6-4.6-1c-1.1,1.2,1.2,0.9,0.1,2.1C199.2,445.8,195.3,447.3,193.8,447.9z M233.9,448.9
				c-0.8,2.4-3.1-0.7-3.5,1C229.4,447.8,233.3,447.1,233.9,448.9z"/>
			<path fill-rule="evenodd" clip-rule="evenodd" fill="#836031" d="M181.8,442.8c0.7,0.4,1.1-0.1,1.9,0.3c0.3-1.4-1.1,0-1.7-0.7
				c3.4-3,8.8-0.3,13.2-2.5c0.8,0.4,0,1.4,1.3,1.6c0.7,0.1,0.1-0.6,0.6-1.3c4,0.9,8.5,0.6,12.6,1.3c-0.1-0.4-0.1-0.9,0.1-1.5
				c2.7,1.7,3.7-0.9,6.5,1.3c0.3-0.5,0.2-0.8-0.1-1c7.1,2.6,17.2-1.7,26.3,0.1c0.8-0.3,1.3-1.4,2.2-1.6c4.9,2.3,7.8,0.3,11.4,1.8
				c0.5-0.8,0.5-1.4-0.3-1.7c3.2-0.7,5.1,0.1,8.1-0.1c-1.8,1.6-4.8,0.4-7,1c0.2,0.5,2,0.6,1,2.4c-0.4-0.2-0.1-0.7-0.1-1
				c-1.2-0.6-1.7,0.4-2.9-0.2c-0.1,0.5,0.7,0.7,0.5,1.2c0.5-0.1,1-0.5,1.4-0.9c-2.4,2.3-12.7,1.7-18.5,1.7c-1.4,0.4-2.7,1-4.6,0.1
				c1-0.8,2.6,0.1,3.7-0.4c-0.6-1.1-3.1,0.6-5.1-1.2c0.2,0.6,0.5,1.2,0.7,1.8c-1,0.2-1.7,1-3.1,0.2c0.3-1,1.4,0.1,1.8-0.7
				c-1.3-0.6-1.8,0.8-3.4-0.4c1.2,3-11.5,2.3-12.1-0.1c-1-0.6-0.6,2.1-1.8,0.7c0.2-0.3,0.6-0.2,0.8-0.7c-0.7-0.4-1.1,0.1-1.9-0.3
				c0.4,2.5,4.4,1,5.1,2.2c-4.5,1.8-11.5-2.7-15.4,0.5c-1.1-1.6-7.7-1-8.1,0.1c-5.5-1.1-11.7,1.1-15.4-3.1
				C179.9,440.2,182.5,442,181.8,442.8z"/>
			<path fill-rule="evenodd" clip-rule="evenodd" fill="#836031" d="M188.9,459.5c1,0.3-0.1,1.4,0.7,1.8c1.5-0.4,3.2-0.4,5,0.1
				c-6.3,2.6-13.4,0.8-21.8,1.3c-0.8,1.9,2.1,2.7-0.4,3.4c3.3,1.3,6.8-1.2,9.2,0.9c-1.7-0.4-2.9,0.4-4.6,0.1
				c-1.1,1.1-0.7,1.4-0.7,2.8c-1.9,0.3-4.2-0.5-6.1-0.1c-1.7,4.7,5.3,3.7,8.2,4.5c1.3-0.1-0.2-1.6,1.2-1.5c3.6,0.9,9.5,0.1,13.8-0.2
				c-0.3-0.2-0.8-0.4-0.7-0.8c3.3,1.7,10.1,1.7,12.8,0.9c-0.2,0.1-0.9-0.6-0.7-0.8c14.9,1.3,28.8-0.2,42.7-1.5
				c1.2,0.9,1.6-0.2,2.8,0.7c2.8-2,7.4,0.7,9.9-1.8c-8.8-0.2-16.8,1.8-26.1,0.5c-3.1,0.7-9.5,1.9-11.5-0.4c1.9,0.3,5.7,1.6,5.4-0.7
				c-1.7-1.1-4.1,2-4.2-0.8c1.4,1,7.1-1.3,5.9,1.5c1.4-2.8,3.4,0.9,5.4-0.7c-0.8-1-2.3,0.5-2.1-0.9c1.8,1.1,2.1-1.2,3.5-1
				c0.1,1.4,2.9,0.6,2.1-0.1c-0.3,0.4-0.8,0.5-1.2,0.5c3-1.1,5.9,0.4,8.9-0.7c-0.3-0.2-0.8-0.4-0.7-0.8c1.2-0.2,1.1,1.8,1.7,0.7
				c-0.6-0.1-0.9-1.9,0.1-1.5c-0.7,1.2,4.6,1.1,3.9-0.9c2.5-0.1,3.8,2,5.4,0.3c-0.8-1-1.9,1.5-1.9-0.3c3.4-0.1,8.6-0.8,13.2-2.5
				c-2.7-1.2-4.9,1.8-6.9-0.4c-8.5,2.4-15.5,1.7-24.7,2.1c0.5,0.3,1.2,0.4,1.1,1c-2.9,0.3-15.8-0.5-12.8,1.6
				c-7.8-1.8-13.4,0.5-20.1-0.5c0.2-0.6,0.5-1.1,0.7-1.7c4.5,2,10.6,0.5,15.2-0.1c-3-0.6-4.1-0.6-6.3-0.7c0.2-0.6,0.5-1.1,0.7-1.7
				c2.9,0.3,5.5,1,9.4-0.6c-2.2,0.4,7.6,2.7,5.4,0.3c4.7,1.4,9.7-2.5,16.2-1.2c0.4-0.8-0.1-1.2,0.3-1.9c2,0.9,3-0.8,4.8-0.5
				c-1-1.9-5.8-1-8-0.4c1.3,0.8,2.2-0.3,2,1.3c-2,0.7-1.7-2-3-1.3c-1.6,0.3-6,1.2-9.7,1.4c-13.4,0.7-29.7-0.2-42.5,1.1
				c0.6,0.3,1.6,0.5,1.5,1.2C189.9,460.7,189.8,458.5,188.9,459.5z M221.1,468.2c0.1,1.4,0.8,1.3,1.2,3.1
				c-4.3-1.9-11.7,0.9-16.1-1.3c-4.1,1.6-11.4-0.2-17.5,0.6c5.1-1,12.4-2.6,16.2-1.2c0.7-0.6,1.9,0,2.2-1.6
				C207.5,470.3,217.7,471.6,221.1,468.2z"/>
			<path fill-rule="evenodd" clip-rule="evenodd" fill="#836031" d="M275.3,454c-0.4-0.4-0.6-0.9-0.3-1.7c-1.2-0.9-1.3,0.8-2.5-0.1
				c-0.3,1.4,1.1,0,1.7,0.7c-3.6-0.4-5.5,0.6-8.1,0.1c-0.2,0.2,0.4,0.8,0.7,0.8c-3.4,0.5-10.9,0.7-15.5,2c4,0,7.7-0.8,11.9-0.5
				c-4.1,0.4-9,2.5-13.1-0.1c-4.8,0.6-12.4,0.2-18,1.9c1.1-0.2,0.5-1.5-0.2-0.6c-0.5-0.5,0.2-0.4,0.4-0.9c-1.1-0.8-4,0-5.1-1.2
				c1.4-0.8,4.5-1.6,5.6-0.1c0.8-0.2,1.3-0.8,2-1.2c16.4-0.1,32.2-1.7,47.5-4.5c1.5,0.5,2.3,0.3,2.8,1.7
				C280.7,452.5,279.4,451.2,275.3,454z"/>
			<path fill-rule="evenodd" clip-rule="evenodd" fill="#836031" d="M211.2,456.9c1.3,0.2,2-1,3.3-0.6c-3.1,3.7-9.4-0.5-13,2
				c-4.5-1.7-7.9-0.2-10.5-1.5c0.7-1.5,2.4-0.4,3.7-0.4c-0.1-1.3-2.2-0.2-3.2-0.9c1.6-1.1,4,0,5.8-0.6c-1.6-1.5-5.5,0.3-7.6-2.3
				c5.5-0.5,12.6,3.1,17.4,0.8c0.4,0.1,0.3,0.3,0.2,0.6C204.2,456,212,454.6,211.2,456.9z"/>
			<path fill-rule="evenodd" clip-rule="evenodd" fill="#836031" d="M221.5,485.1c-0.5-0.3-0.1-0.5,0.2-0.4c-4-1.9-12.4,1-17.4-0.8
				c-0.8-0.2-1.3,0.3-1.6,1.3c-4.3-0.7-8.4-0.8-11.9,0.5c-0.5-0.5-0.8-1.1-1.3-1.6c0.2-0.2,1.8-1.2,0.7-1.7
				c13.8-2.5,29.2,0.8,42.3-0.6c-1-1.7-5,0.8-6.1-1.1c-0.4,0.7,0.1,1.1-0.3,1.9c-2-1.4-4.1-2.8-5.5-1.3c-4.9-2.8-7.5-1.4-11.6-2.4
				c2.1-1.2,4.8-1.1,7.5-0.9c-2.7-1.4,1.3-1,3.1-1.2c-1.3-1.7,2.6-1.2,4.3-0.7c-3.5,0.5-0.2-0.1-1.8,1.8c1.5,0.8,2.1-0.6,3.5,0
				c-0.2-0.5,0.2-1.3-0.3-1.7c-0.8-0.2-0.1,1.7-1.8,0.7c0.4-0.3,0.8-0.5,0.4-0.9c0.7-0.9,2-0.3,3.1-0.2c-0.2,0.3-0.6,0.2-0.8,0.7
				c0.7-0.2,1.8,0.3,2.5,0.1c0.1-0.7-0.6-0.1-1.3-0.5c0.4-0.7,1.2-0.7,2.1-0.1c-0.2,1.9-1.7,0.5-2.2,1.6c3.2-0.2,6.8,0.5,9.8-0.4
				c-1.8-0.8-3-1.8-6.7-0.9c-0.9-1.8,2.3-0.7,3.3-0.6c0.4-0.5-0.6-2-1.1-1c1.6-0.7,6.6,0.1,10.5,0.4c0.1-0.5-0.6-0.7-1.1-1
				c3.5-0.1,6.8-0.7,10.9,0.6c-0.2,0.7-0.7,0.6-1,1.1c1.3,0.4,4.6-2,3.4-2.1c1.8,0.9,4.4-0.3,5.8-0.6c2.2-0.4,4.6,0.3,6.5,0.2
				c4.9-0.2,9.1-1.9,14.9-1.7c-0.1-1-3.2-2.2-3.6-1c-0.5-2-2.5-1.6-4.7-2c1.7-1.1,3.9-0.8,6.2-0.4c-0.2,0.3-0.6,0.2-0.8,0.7
				c2.2,0.9,3.3-1.1,5.9,0.5c-0.4,0.6,0.1,0.9-0.1,1.5c6.2,0.8,10.9-2.4,16.8-2.5c1.6,5.7-7.8,7-11.1,5.9c-0.2,1.8-3.5,0.6-4.9,2
				c0.6,1.9-1.8,2.8,0.4,3.7c-3.3,0.8-6.9,1-10.3,1.7c0.9-0.5,1.9-0.7,2.6-1.4c-4-3.6-9.8,0.6-15.4-2c-1.4-0.2,0.7,1.1-0.3,1.9
				c-5.9-0.3-13-0.3-17.5,0.6c-0.5,0.1-1.9-0.9-1.8,0.7c-1.3-1.8-2.5,0.4-3.2-1.9c-0.6,1.3-1-0.2-2.9-0.2c0.9,2.5-0.9,1.4-2.4,2
				c1.8,0.8,2.9,1.9,4.6,1c0.6,0.6-0.2,1.1-0.8,0.7c-0.4,0.7,0.1,1.1-0.3,1.9c-0.8-0.2-0.7-0.8-0.2-0.6c0-1.5-1.7-0.2-2.6-1.1
				c0,0.5,0,0.9,0.5,1.2c-3.1,0.6-8.1-2-11.4,0.7C223.5,484.3,222.1,483.8,221.5,485.1z"/>
			<path fill-rule="evenodd" clip-rule="evenodd" fill="#836031" d="M256.6,479.9c3.3,3.3,9.7-1.3,13.4,0.7c-1.1,1-2.9,0.4-4.3,0.7
				c0,0.6,0.2,1.1,0.9,1.4c-1.5,0.4-2.9,1-4.8,0.5c0.7-1.4,2.6,0.1,3.5-1c-0.7-1.3-5.5-0.7-5,0.9c-2.4-1.2-5.1,1.9-8.5,0.9
				c0.5-0.8,1.5-0.3,2-1.2c-3.7,0-7.2,0.3-10.8,0.4c-0.2,1.4,1.5,0.3,2.1,0.9c-0.3,1.6-5.6,0-3.1,0.2c0.3-1.4-1.1,0-1.7-0.7
				c4.9-3.1,10.2-2.9,16-1.8C256.2,481.3,256.3,480.6,256.6,479.9z"/>
			<path fill-rule="evenodd" clip-rule="evenodd" fill="#836031" d="M239.3,486.1c-10.1,0.7-23.6-0.3-32.7,0.7
				c-4.6,0.5-11.5-0.7-16.7-0.1c-0.3,1.1,0,1.9-0.9,3.2c2.7,1.2,4.5,1.6,5.4,0.3c3.2,1.1,5.7,0.7,8.4,0.5c-0.2-0.6-1.5-0.8-0.7-1.8
				c12.7,0.3,24.2-0.4,35.8-0.9c-0.3,0.5-1,0.6,0.1,1c7-2.8,13.3-2.4,20.9-0.2c1.2-0.4,0.9-1.2,1.6-1.3c-0.1,0.7,0.7,0.9,0.9,1.4
				c1.2-0.4,0.9-1.2,1.6-1.3c0.7,1.2,2.7,0.3,2.6,2.1c-5.6,2.4-12.4,2-18.1,4.4c-0.9-0.4-1.7-0.7-2.6-1.1c-1.2,0.2,0.1,1.3-1,1.1
				c-1-0.7-1.3-1.2-2.3-0.5c-0.5,0.7-6.2,0.4-7.7,0.2c-10.1,2.6-25.9-1.4-37.1,1.4c-0.8,5.6,7.4,2.4,10.6,3.5
				c-0.3-0.2-0.8-0.4-0.7-0.8c5,0.5,7.3-0.4,12.6,1.3c-1.2,1.9,0.6,2.6,0.2,4.2c13.4,2.9,24.8-1,38.2-0.4c1.1-1.2-1.2-0.9-0.1-2.1
				c0.3,1.7,2.9,2.3,4.3,1.8c-1.1,2.3,2.1,0.7,1.8,2.8c1.1-0.3,2.3-0.2,3.5,0c0.4-1.1-0.2-1.7,0.9-2.1c-0.9-0.7-2.5,1.4-2.5-0.1
				c3.3-0.7,3.9-4.8,1.5-7c-4.1,0.9-10.8,0.3-14.4-0.6c4.2-0.3,8.3-1.2,12.2-2.4c-0.8-0.3-0.8-0.9-0.3-1.7c1.9,0.7,4.9-0.8,5.9,0.5
				c-1.9,0-3.7,0.3-5.4,0.7c7.5-0.2,15.2,0.3,21.5-2.9c-1-1.4-4.8-0.9-4.5,1.1c-1.8-0.6-3.5,0.9-4-1.2c-1.4,2.9-4.6,1.5-7,2.1
				c0.2-1.8-1.8-1.4-0.8-2.9c-1.9-1.4-4.3,2-4.6-1c6.8-0.9,13.8-1.8,20.2,0.1c-1.8-0.8,1.8-1.3,3.1-0.2c0.8-4.2,9.4-0.5,9.9-5.4
				c-3.3,3.3-9.5-0.6-13,2c0.9,0.9,2.3-1.2,2.3,0.5c-6.7-0.5-16.1-0.9-22.1-0.4c-0.3,0.6-0.2,1-0.1,1.5c-4.4-1.4-12-1.8-14.8,0.3
				C249.7,484.8,241.9,486,239.3,486.1z M220.6,498.9c3.5-0.8,11,0.5,11.5,0.4c0.6-1.1,0.5,0.9,1.7,0.7
				C230,500.6,224.2,500.7,220.6,498.9z"/>
			<path fill-rule="evenodd" clip-rule="evenodd" fill="#836031" d="M220.3,514c-0.9,0.8,3.2-2.6,0.7-1.7c2.9-1.1,10.7,0.5,16.5,0.5
				c2.8,0,6.2,0.2,9.4,0.5c-7.6-1.6,0.8-1.2,4.7-1.5c-3.8-1.6-9.4,0.3-14.2-1c3-1.3,6.7-1.7,10.8-1.5c6.4,0.3,14,0.4,19.8,2.4
				c-2.5,2.2-6.6,0.6-9.7,1.4c-0.3,1.4,1.1,0,1.7,0.7c-2.5,0.5-5-1.8-6.4,0.8c-1.6-0.7-3.5-0.5-6.7-0.9c1.4,1.7-4.7,2.3-5.8,0.6
				c-0.5,1.2-3.4,1.5-5.6,1.2c0.4,1.5,2.5-0.2,3.8,0.6C233,516,226.4,515.7,220.3,514z"/>
			<path fill-rule="evenodd" clip-rule="evenodd" fill="#836031" d="M261.4,426.2c1.8-1.2,9.5-2.9,12.2-2.4
				c-0.5,1.4-2.1,0.1-2.9,0.8c2.1,1.4-2.7,1.4-4.3,1.7c-0.4-0.2-0.1-0.7-0.1-1C264.8,426,262.9,425.5,261.4,426.2z"/>
			<path fill-rule="evenodd" clip-rule="evenodd" fill="#836031" d="M269.7,482.5c0.5,2.1,1.9-1,2.6-1.4c0.6,0.2,1.1,0.5,1.7,0.7
				c-1.2,1.6-3.2,1.5-4.9,2c-0.5-1.1,0-0.9-1.5-1.2c0.8-0.4,3.2-1.4,3.3-0.6C270.8,482.8,270.3,482.6,269.7,482.5z"/>
		</g>
		<g>
			
				<rect x="107.2" y="502.6" transform="matrix(-0.3935 0.9193 -0.9193 -0.3935 751.2338 651.3025)" fill="none" width="107.2" height="141.7"/>
			<path fill-rule="evenodd" clip-rule="evenodd" fill="#836031" d="M192.6,581.9c3.2-0.7,6.9-0.5,10.4-0.6
				C200.1,582.9,196.3,582.5,192.6,581.9z"/>
			<path fill-rule="evenodd" clip-rule="evenodd" fill="#836031" d="M200.4,576.6c4-1,9.9-1.7,14,0.4c-0.9,1.2,0.2,1.6-0.7,2.8
				C209.5,579.5,202.8,580.4,200.4,576.6z"/>
			<path fill-rule="evenodd" clip-rule="evenodd" fill="#836031" d="M178,541.2c-0.9-1.9-2.2,1-3.7,0.4c3.2,0.2,9.7,0.9,11.7-2.6
				c0.3,0.4,0.5,0.8,0.9,0.4c0.8,0.2,0.7,0.7,0.5,1.2c2.2,0.7,1.6-1.2,3.1-1.2c-0.6,2.3,3.8,0,2.3,0.5c-0.6-1.3,2.4-1.6,3.1-0.2
				c2.6,0.5,5.5-2.6,7.5-0.9c-6.1,3.4-17,1.5-20.2,4.5c-1.4,0.6-4.2-2.4-5.6,0.1c-1.1-1.2-5.4-1.6-5.2,0.3c0.8-0.7,2-0.3,2.9-0.8
				c0.3,2.5-2,0.7-3.7,1.5c1.1-2.6-6.1-0.8-8.4-0.5c-0.5-1.6,2.9-1,4.1-1.3c-0.8-1.2-3.5,0.6-5.4-0.3c0,0.5,0,0.9,0.5,1.2
				c-2,1.9-4.3-2-6.5-0.2c-0.1,0.7,2.4,0.7,2.9,0.2c-0.9,0.9-10,2.3-9.8,0.4c-1.4-0.2-0.8,0.4-1.2,1.5c-4.5-0.1-8.6,1.1-13.1,1
				c0.1,1.1,2.5,0.2,2.2,2c0.7,0.1,0.1-0.6,0.5-1.3c1.6,0.3,1.5,1.6,2.6,1.1c0.2-1.1-0.9,0.2-1.1-1c1-1.4,2.3,0.3,2.6,1.1
				c13.8-0.6,28.3-1.9,42.8-3c-6.1,1.8-15.9,2.3-23.6,3.1c-0.5,0.7,0,1,0.5,1.2c-0.5,0.8-1.8-0.3-2.3,0.6c-0.6-0.6,0.3-0.8,0.5-1.3
				c-1.5-0.6-1.8,2.1-3,2.3c-1.5-0.8-3.9-0.5-3.5,0c-0.5,0.8-3-1.4-1.3-1.6c-1.7-0.6-2.7-0.1-2.6,1.4c-6.8-0.4-13.1,0.3-19.8,0.1
				c-0.2,0.4,0.4,0.6,0.7,0.8c-11.8-0.7-22.8,1.2-35.4-2.5c1.9-0.3,1.8-0.7,0.3-1.9c5.5,1.1,14.2-0.9,20.1,1.5
				c4.5-1.4,10-0.4,15-0.7c-1.4-2.6-6.6-0.8-9.2-0.9c-1.8-0.2,0-1.9-1.6-2.2c2.1-1.7,5-3.2,9.3-1.6c1-2,5.5-0.6,9.5-1
				c2.4-0.2,2.8-0.4,4.8-0.5c3.2-0.2,9.8-2.5,13.1-1c6.2-2.2,14.3,0.2,20.5-1.8C177.6,540.1,178.8,539.3,178,541.2z"/>
			<path fill-rule="evenodd" clip-rule="evenodd" fill="#836031" d="M159.4,533.8c0.6-1-2.1-0.6-0.7-1.8c7.9,0.8,13.8-3.3,21.3-3.6
				c2.2,1.2,0.6,4,1,6c-2.2,2.2-6.3-0.3-8.2,2.6c-1.2-0.5-0.6-1.1-1.7-0.7c-13.4,4.1-28.3,4.5-42.9,5.5c1.1-2.2,3.8-0.6,5.3-1.8
				c-4,0.2-6.7,0.1-8.7,1.3c-0.2,1.4,1.1-0.7,1.9,0.3c-0.9,0.9-2.5,0.3-3.5,1c-1.3-1.3,1.3-0.2,1.2-1.5c-0.7-1.2-3.6-0.1-5-0.1
				c-0.2,2.1,1.1,0,2.6,1.1c-3.9-0.8-8.6-0.7-11.9-3.1c0.2-1,1-0.6,1.7-0.3c0.3-2.9-0.3-3.4,0.2-6.5c10.2-0.5,19-4.5,30.1-2.8
				c0.4-1.5-2.1,0.4-0.9-1.4c6,2.1,11.3-0.7,17.5-0.6c-2-1.4-6.2-0.7-8.3,0.5c-0.4-0.3,0.1-1-0.5-1.2c-1.1,1.8-2.2-0.9-3.2,1.7
				c-1.3-1,0-1.1,0.7-1.7c-1.3-0.5-3.1,0-3.6-1c1.8-0.7,1.9-0.4,4,0.2c3.1-1.4,6.7-1.5,10.3-1.7c1.4-2.5,5.1-3.5,6.7-2.7
				c2.7-2.3,13.7-2.6,10.3,5.4c-11.1,3.8-23.1,5.5-35.8,5.5c0.3-1,1.4,0.1,1.8-0.7c-7,3-16.7,5.2-26.2,4.5c0,1.1,2.1-0.1,3.2,0.9
				c-0.4,0.8-1.5-0.3-1.8,0.7c3.7,0.2,9.5-0.6,10.2-0.2C136,535.7,149.6,535.9,159.4,533.8z"/>
			<path fill-rule="evenodd" clip-rule="evenodd" fill="#836031" d="M123.1,560.7c-1.6,0.5-2.1-2.1-3.4-1.5
				c-6.4,1-16.5-1.4-25.5-0.8c0.1,1,0.1,2.1,0.2,3.1c6.1,3.6,12.8-0.9,18.5,1.8c4.4-0.1,14.4,0.9,22.1,0.4c-0.5-0.3-1-0.6-0.5-1.2
				c1.7,0.9,2.2,0,2.4,1.5c2.3-2.1,7-1.3,9.4-0.6c-0.3-0.2-0.8-0.4-0.7-0.8c1.5-0.4,1.8,1.3,2.8,0.7c-0.8-0.3-0.8-0.9-0.3-1.7
				c4.6,2.3,6.5-0.1,10.9,0.6c-0.2,0.5-0.9,0.4-0.4,0.9c3.4-0.2,9.3-1,10-3.3c1.5,0.6,2.2,0,2.4,1.5c0.4-0.3,0.9-0.9,1.4-0.9
				c6.6-0.6,14.1-1,19.8-1.2c0-1,3.3-1.2,4.2-2.8c-9-1.1-19.4,1-28.4,2.5c-0.7-1,1-0.8,0.1-1.5c-0.7,0.7-1.4-0.3-1,1.1
				c-8.9-0.9-19.1,3-26.5,0.3c0.6,0,1.2,0,1.7-0.3c-2.4-0.6-3.5-1.2-5.9-0.5c0.7,1.6,2.5,0.3,4,1.2c-0.1,0.6,0.3,1.1-0.3,1.9
				c-0.2-2.6-6.1-1.5-3.8-0.6c-0.9,1.4-3.1-0.6-4.6-1c-1.1,1.2,1.2,0.9,0.1,2.1C128.5,558.6,124.6,560.1,123.1,560.7z M163.2,561.7
				c-0.8,2.4-3.1-0.7-3.5,1C158.7,560.6,162.6,559.9,163.2,561.7z"/>
			<path fill-rule="evenodd" clip-rule="evenodd" fill="#836031" d="M111.1,555.6c0.7,0.4,1.1-0.1,1.9,0.3c0.3-1.4-1.1,0-1.7-0.7
				c3.4-3,8.8-0.3,13.2-2.5c0.8,0.4,0,1.4,1.3,1.6c0.7,0.1,0.1-0.6,0.6-1.3c4,0.9,8.5,0.6,12.6,1.3c-0.1-0.4-0.1-0.9,0.1-1.5
				c2.7,1.7,3.7-0.9,6.5,1.3c0.3-0.5,0.2-0.8-0.1-1c7.1,2.6,17.2-1.7,26.3,0.1c0.8-0.3,1.3-1.4,2.2-1.6c4.9,2.3,7.8,0.3,11.4,1.8
				c0.5-0.8,0.5-1.4-0.3-1.7c3.2-0.7,5.1,0.1,8.1-0.1c-1.8,1.6-4.8,0.4-7,1c0.2,0.5,2,0.6,1,2.4c-0.4-0.2-0.1-0.7-0.1-1
				c-1.2-0.6-1.7,0.4-2.9-0.2c-0.1,0.5,0.7,0.7,0.5,1.2c0.5-0.1,1-0.5,1.4-0.9c-2.4,2.3-12.7,1.7-18.5,1.7c-1.4,0.4-2.7,1-4.6,0.1
				c1-0.8,2.6,0.1,3.7-0.4c-0.6-1.1-3.1,0.6-5.1-1.2c0.2,0.6,0.5,1.2,0.7,1.8c-1,0.2-1.7,1-3.1,0.2c0.3-1,1.4,0.1,1.8-0.7
				c-1.3-0.6-1.8,0.8-3.4-0.4c1.2,3-11.5,2.3-12.1-0.1c-1-0.6-0.6,2.1-1.8,0.7c0.2-0.3,0.6-0.2,0.8-0.7c-0.7-0.4-1.1,0.1-1.9-0.3
				c0.4,2.5,4.4,1,5.1,2.2c-4.5,1.8-11.5-2.7-15.4,0.5c-1.1-1.6-7.7-1-8.1,0.1c-5.5-1.1-11.7,1.1-15.4-3.1
				C109.2,553,111.7,554.8,111.1,555.6z"/>
			<path fill-rule="evenodd" clip-rule="evenodd" fill="#836031" d="M118.1,572.3c1,0.3-0.1,1.4,0.7,1.8c1.5-0.4,3.2-0.4,5,0.1
				c-6.3,2.6-13.4,0.8-21.8,1.3c-0.8,1.9,2.1,2.7-0.4,3.4c3.3,1.3,6.8-1.2,9.2,0.9c-1.7-0.4-2.9,0.4-4.6,0.1
				c-1.1,1.1-0.7,1.4-0.7,2.8c-1.9,0.3-4.2-0.5-6.1-0.1c-1.7,4.7,5.3,3.7,8.2,4.5c1.3-0.1-0.2-1.6,1.2-1.5c3.6,0.9,9.5,0.1,13.8-0.2
				c-0.3-0.2-0.8-0.4-0.7-0.8c3.3,1.7,10.1,1.7,12.8,0.9c-0.2,0.1-0.9-0.6-0.7-0.8c14.9,1.3,28.8-0.2,42.7-1.5
				c1.2,0.9,1.6-0.2,2.8,0.7c2.8-2,7.4,0.7,9.9-1.8c-8.8-0.2-16.8,1.8-26.1,0.5c-3.1,0.7-9.5,1.9-11.5-0.4c1.9,0.3,5.7,1.6,5.4-0.7
				c-1.7-1.1-4.1,2-4.2-0.8c1.4,1,7.1-1.3,5.9,1.5c1.4-2.8,3.4,0.9,5.4-0.7c-0.8-1-2.3,0.5-2.1-0.9c1.8,1.1,2.1-1.2,3.5-1
				c0.1,1.4,2.9,0.6,2.1-0.1c-0.3,0.4-0.8,0.5-1.2,0.5c3-1.1,5.9,0.4,8.9-0.7c-0.3-0.2-0.8-0.4-0.7-0.8c1.2-0.2,1.1,1.8,1.7,0.7
				c-0.6-0.1-0.9-1.9,0.1-1.5c-0.7,1.2,4.6,1.1,3.9-0.9c2.5-0.1,3.8,2,5.4,0.3c-0.8-1-1.9,1.5-1.9-0.3c3.4-0.1,8.6-0.8,13.2-2.5
				c-2.7-1.2-4.9,1.8-6.9-0.4c-8.5,2.4-15.5,1.7-24.7,2.1c0.5,0.3,1.2,0.4,1.1,1c-2.9,0.3-15.8-0.5-12.8,1.6
				c-7.8-1.8-13.4,0.5-20.1-0.5c0.2-0.6,0.5-1.1,0.7-1.7c4.5,2,10.6,0.5,15.2-0.1c-3-0.6-4.1-0.6-6.3-0.7c0.2-0.6,0.5-1.1,0.7-1.7
				c2.9,0.3,5.5,1,9.4-0.6c-2.2,0.4,7.6,2.7,5.4,0.3c4.7,1.4,9.7-2.5,16.2-1.2c0.4-0.8-0.1-1.2,0.3-1.9c2,0.9,3-0.8,4.8-0.5
				c-1-1.9-5.8-1-8-0.4c1.3,0.8,2.2-0.3,2,1.3c-2,0.7-1.7-2-3-1.3c-1.6,0.3-6,1.2-9.7,1.4c-13.4,0.7-29.7-0.2-42.5,1.1
				c0.6,0.3,1.6,0.5,1.5,1.2C119.2,573.5,119,571.3,118.1,572.3z M150.4,581c0.1,1.4,0.8,1.3,1.2,3.1c-4.3-1.9-11.7,0.9-16.1-1.3
				c-4.1,1.6-11.4-0.2-17.5,0.6c5.1-1,12.4-2.6,16.2-1.2c0.7-0.6,1.9,0,2.2-1.6C136.7,583.1,147,584.3,150.4,581z"/>
			<path fill-rule="evenodd" clip-rule="evenodd" fill="#836031" d="M204.6,566.8c-0.4-0.4-0.6-0.9-0.3-1.7
				c-1.2-0.9-1.3,0.8-2.5-0.1c-0.3,1.4,1.1,0,1.7,0.7c-3.6-0.4-5.5,0.6-8.1,0.1c-0.2,0.2,0.4,0.8,0.7,0.8c-3.4,0.5-10.9,0.7-15.5,2
				c4,0,7.7-0.8,11.9-0.5c-4.1,0.4-9,2.5-13.1-0.1c-4.8,0.6-12.4,0.2-18,1.9c1.1-0.2,0.5-1.5-0.2-0.6c-0.5-0.5,0.2-0.4,0.4-0.9
				c-1.1-0.8-4,0-5.1-1.2c1.4-0.8,4.5-1.6,5.6-0.1c0.8-0.2,1.3-0.8,2-1.2c16.4-0.1,32.2-1.7,47.5-4.5c1.5,0.5,2.3,0.3,2.8,1.7
				C210,565.3,208.6,564,204.6,566.8z"/>
			<path fill-rule="evenodd" clip-rule="evenodd" fill="#836031" d="M140.5,569.7c1.3,0.2,2-1,3.3-0.6c-3.1,3.7-9.4-0.5-13,2
				c-4.5-1.7-7.9-0.2-10.5-1.5c0.7-1.5,2.4-0.4,3.7-0.4c-0.1-1.3-2.2-0.2-3.2-0.9c1.6-1.1,4,0,5.8-0.6c-1.6-1.5-5.5,0.3-7.6-2.3
				c5.5-0.5,12.6,3.1,17.4,0.8c0.4,0.1,0.3,0.3,0.2,0.6C133.4,568.8,141.3,567.4,140.5,569.7z"/>
			<path fill-rule="evenodd" clip-rule="evenodd" fill="#836031" d="M150.7,597.9c-0.5-0.3-0.1-0.5,0.2-0.4c-4-1.9-12.4,1-17.4-0.8
				c-0.8-0.2-1.3,0.3-1.6,1.3c-4.3-0.7-8.4-0.8-11.9,0.5c-0.5-0.5-0.8-1.1-1.3-1.6c0.2-0.2,1.8-1.2,0.7-1.7
				c13.8-2.5,29.2,0.8,42.3-0.6c-1-1.7-5,0.8-6.1-1.1c-0.4,0.7,0.1,1.1-0.3,1.9c-2-1.4-4.1-2.8-5.5-1.3c-4.9-2.8-7.5-1.4-11.6-2.4
				c2.1-1.2,4.8-1.1,7.5-0.9c-2.7-1.4,1.3-1,3.1-1.2c-1.3-1.7,2.6-1.2,4.3-0.7c-3.5,0.5-0.2-0.1-1.8,1.8c1.5,0.8,2.1-0.6,3.5,0
				c-0.2-0.5,0.2-1.3-0.3-1.7c-0.8-0.2-0.1,1.7-1.8,0.7c0.4-0.3,0.8-0.5,0.4-0.9c0.7-0.9,2-0.3,3.1-0.2c-0.2,0.3-0.6,0.2-0.8,0.7
				c0.7-0.2,1.8,0.3,2.5,0.1c0.1-0.7-0.6-0.1-1.3-0.5c0.4-0.7,1.2-0.7,2.1-0.1c-0.2,1.9-1.7,0.5-2.2,1.6c3.2-0.2,6.8,0.5,9.8-0.4
				c-1.8-0.8-3-1.8-6.7-0.9c-0.9-1.8,2.3-0.7,3.3-0.6c0.4-0.5-0.6-2-1.1-1c1.6-0.7,6.6,0.1,10.5,0.4c0.1-0.5-0.6-0.7-1.1-1
				c3.5-0.1,6.8-0.7,10.9,0.6c-0.2,0.7-0.7,0.6-1,1.1c1.3,0.4,4.6-2,3.4-2.1c1.8,0.9,4.4-0.3,5.8-0.6c2.2-0.4,4.6,0.3,6.5,0.2
				c4.9-0.2,9.1-1.9,14.9-1.7c-0.1-1-3.2-2.2-3.6-1c-0.5-2-2.5-1.6-4.7-2c1.7-1.1,3.9-0.8,6.2-0.4c-0.2,0.3-0.6,0.2-0.8,0.7
				c2.2,0.9,3.3-1.1,5.9,0.5c-0.4,0.6,0.1,0.9-0.1,1.5c6.2,0.8,10.9-2.4,16.8-2.5c1.6,5.7-7.8,7-11.1,5.9c-0.2,1.8-3.5,0.6-4.9,2
				c0.6,1.9-1.8,2.8,0.4,3.7c-3.3,0.8-6.9,1-10.3,1.7c0.9-0.5,1.9-0.7,2.6-1.4c-4-3.6-9.8,0.6-15.4-2c-1.4-0.2,0.7,1.1-0.3,1.9
				c-5.9-0.3-13-0.3-17.5,0.6c-0.5,0.1-1.9-0.9-1.8,0.7c-1.3-1.8-2.5,0.4-3.2-1.9c-0.6,1.3-1-0.2-2.9-0.2c0.9,2.5-0.9,1.4-2.4,2
				c1.8,0.8,2.9,1.9,4.6,1c0.6,0.6-0.2,1.1-0.8,0.7c-0.4,0.7,0.1,1.1-0.3,1.9c-0.8-0.2-0.7-0.8-0.2-0.6c0-1.5-1.7-0.2-2.6-1.1
				c0,0.5,0,0.9,0.5,1.2c-3.1,0.6-8.1-2-11.4,0.7C152.8,597.1,151.4,596.6,150.7,597.9z"/>
			<path fill-rule="evenodd" clip-rule="evenodd" fill="#836031" d="M185.9,592.7c3.3,3.3,9.7-1.3,13.4,0.7c-1.1,1-2.9,0.4-4.3,0.7
				c0,0.6,0.2,1.1,0.9,1.4c-1.5,0.4-2.9,1-4.8,0.5c0.7-1.4,2.6,0.1,3.5-1c-0.7-1.3-5.5-0.7-5,0.9c-2.4-1.2-5.1,1.9-8.5,0.9
				c0.5-0.8,1.5-0.3,2-1.2c-3.7,0-7.2,0.3-10.8,0.4c-0.2,1.4,1.5,0.3,2.1,0.9c-0.3,1.6-5.6,0-3.1,0.2c0.3-1.4-1.1,0-1.7-0.7
				c4.9-3.1,10.2-2.9,16-1.8C185.4,594.1,185.5,593.4,185.9,592.7z"/>
			<path fill-rule="evenodd" clip-rule="evenodd" fill="#836031" d="M168.5,598.9c-10.1,0.7-23.6-0.3-32.7,0.7
				c-4.6,0.5-11.5-0.7-16.7-0.1c-0.3,1.1,0,1.9-0.9,3.2c2.7,1.2,4.5,1.6,5.4,0.3c3.2,1.1,5.7,0.7,8.4,0.5c-0.2-0.6-1.5-0.8-0.7-1.8
				c12.7,0.3,24.2-0.4,35.8-0.9c-0.3,0.5-1,0.6,0.1,1c7-2.8,13.3-2.4,20.9-0.2c1.2-0.4,0.9-1.2,1.6-1.3c-0.1,0.7,0.7,0.9,0.9,1.4
				c1.2-0.4,0.9-1.2,1.6-1.3c0.7,1.2,2.7,0.3,2.6,2.1c-5.6,2.4-12.4,2-18.1,4.4c-0.9-0.4-1.7-0.7-2.6-1.1c-1.2,0.2,0.1,1.3-1,1.1
				c-1-0.7-1.3-1.2-2.3-0.5c-0.5,0.7-6.2,0.4-7.7,0.2c-10.1,2.6-25.9-1.4-37.1,1.4c-0.8,5.6,7.4,2.4,10.6,3.5
				c-0.3-0.2-0.8-0.4-0.7-0.8c5,0.5,7.3-0.4,12.6,1.3c-1.2,1.9,0.6,2.6,0.2,4.2c13.4,2.9,24.8-1,38.2-0.4c1.1-1.2-1.2-0.9-0.1-2.1
				c0.3,1.7,2.9,2.3,4.3,1.8c-1.1,2.3,2.1,0.7,1.8,2.8c1.1-0.3,2.3-0.2,3.5,0c0.4-1.1-0.2-1.7,0.9-2.1c-0.9-0.7-2.5,1.4-2.5-0.1
				c3.3-0.7,3.9-4.8,1.5-7c-4.1,0.9-10.8,0.3-14.4-0.6c4.2-0.3,8.3-1.2,12.2-2.4c-0.8-0.3-0.8-0.9-0.3-1.7c1.9,0.7,4.9-0.8,5.9,0.5
				c-1.9,0-3.7,0.3-5.4,0.7c7.5-0.2,15.2,0.3,21.5-2.9c-1-1.4-4.8-0.9-4.5,1.1c-1.8-0.6-3.5,0.9-4-1.2c-1.4,2.9-4.6,1.5-7,2.1
				c0.2-1.8-1.8-1.4-0.8-2.9c-1.9-1.4-4.3,2-4.6-1c6.8-0.9,13.8-1.8,20.2,0.1c-1.8-0.8,1.8-1.3,3.1-0.2c0.8-4.2,9.4-0.5,9.9-5.4
				c-3.3,3.3-9.5-0.6-13,2c0.9,0.9,2.3-1.2,2.3,0.5c-6.7-0.5-16.1-0.9-22.1-0.4c-0.3,0.6-0.2,1-0.1,1.5c-4.4-1.4-12-1.8-14.8,0.3
				C178.9,597.6,171.2,598.7,168.5,598.9z M149.9,611.7c3.5-0.8,11,0.5,11.5,0.4c0.6-1.1,0.5,0.9,1.7,0.7
				C159.3,613.4,153.5,613.5,149.9,611.7z"/>
			<path fill-rule="evenodd" clip-rule="evenodd" fill="#836031" d="M149.5,626.8c-0.9,0.8,3.2-2.6,0.7-1.7
				c2.9-1.1,10.7,0.5,16.5,0.5c2.8,0,6.2,0.2,9.4,0.5c-7.6-1.6,0.8-1.2,4.7-1.5c-3.8-1.6-9.4,0.3-14.2-1c3-1.3,6.7-1.7,10.8-1.5
				c6.4,0.3,14,0.4,19.8,2.4c-2.5,2.2-6.6,0.6-9.7,1.4c-0.3,1.4,1.1,0,1.7,0.7c-2.5,0.5-5-1.8-6.4,0.8c-1.6-0.7-3.5-0.5-6.7-0.9
				c1.4,1.7-4.7,2.3-5.8,0.6c-0.5,1.2-3.4,1.5-5.6,1.2c0.4,1.5,2.5-0.2,3.8,0.6C162.3,628.8,155.7,628.5,149.5,626.8z"/>
			<path fill-rule="evenodd" clip-rule="evenodd" fill="#836031" d="M190.6,539c1.8-1.2,9.5-2.9,12.2-2.4c-0.5,1.4-2.1,0.1-2.9,0.8
				c2.1,1.4-2.7,1.4-4.3,1.7c-0.4-0.2-0.1-0.7-0.1-1C194.1,538.8,192.1,538.3,190.6,539z"/>
			<path fill-rule="evenodd" clip-rule="evenodd" fill="#836031" d="M199,595.3c0.5,2.1,1.9-1,2.6-1.4c0.6,0.2,1.1,0.5,1.7,0.7
				c-1.2,1.6-3.2,1.5-4.9,2c-0.5-1.1,0-0.9-1.5-1.2c0.8-0.4,3.2-1.4,3.3-0.6C200,595.6,199.5,595.4,199,595.3z"/>
		</g>
		<g>
			
				<rect x="643" y="354.4" transform="matrix(0.3653 -0.9309 0.9309 0.3653 46.2027 918.3838)" fill="none" width="107.2" height="141.7"/>
			<path fill-rule="evenodd" clip-rule="evenodd" fill="#836031" d="M664.5,417.9c-3.2,0.8-6.9,0.8-10.4,0.9
				C657,417.1,660.7,417.4,664.5,417.9z"/>
			<path fill-rule="evenodd" clip-rule="evenodd" fill="#836031" d="M656.9,423.4c-4,1.1-9.9,2-14,0c0.8-1.2-0.2-1.6,0.6-2.8
				C647.7,420.8,654.3,419.6,656.9,423.4z"/>
			<path fill-rule="evenodd" clip-rule="evenodd" fill="#836031" d="M680.3,458.1c1,1.9,2.2-1.1,3.7-0.5c-3.2-0.1-9.7-0.6-11.7,2.9
				c-0.3-0.4-0.6-0.8-0.9-0.3c-0.8-0.1-0.7-0.7-0.5-1.2c-2.3-0.7-1.5,1.2-3,1.3c0.5-2.4-3.8,0.1-2.3-0.4c0.6,1.3-2.4,1.7-3.1,0.3
				c-2.7-0.4-5.4,2.8-7.4,1.1c6-3.6,16.9-2,20-5.1c1.4-0.6,4.3,2.2,5.6-0.3c1.1,1.1,5.5,1.4,5.2-0.5c-0.8,0.7-2,0.4-2.8,0.9
				c-0.4-2.5,2-0.7,3.6-1.6c-1,2.7,6.2,0.7,8.4,0.3c0.5,1.6-2.9,1.1-4.1,1.4c0.9,1.1,3.5-0.7,5.4,0.1c0-0.5-0.1-0.9-0.5-1.2
				c2-2,4.4,1.9,6.5,0c0.1-0.7-2.4-0.6-2.9-0.2c0.9-1,10-2.6,9.8-0.7c1.4,0.1,0.7-0.5,1.1-1.6c4.5,0,8.5-1.3,13.1-1.4
				c-0.1-1.1-2.5-0.1-2.3-1.9c-0.7-0.1,0,0.6-0.5,1.3c-1.6-0.2-1.5-1.5-2.6-1c-0.1,1.1,0.9-0.3,1.1,0.9c-0.9,1.4-2.3-0.2-2.6-1
				c-13.8,1.1-28.2,2.8-42.7,4.3c6.1-2,15.8-2.8,23.5-3.8c0.4-0.7,0-1-0.5-1.2c0.5-0.8,1.8,0.2,2.2-0.6c0.6,0.6-0.2,0.8-0.5,1.3
				c1.6,0.5,1.7-2.2,2.9-2.4c1.5,0.8,4,0.3,3.5-0.1c0.5-0.8,3,1.3,1.4,1.5c1.7,0.5,2.7,0,2.6-1.5c6.8,0.2,13.1-0.7,19.8-0.7
				c0.2-0.4-0.4-0.5-0.7-0.8c11.8,0.3,22.8-1.9,35.5,1.4c-1.8,0.3-1.8,0.7-0.2,1.9c-5.5-0.9-14.1,1.3-20.2-0.9
				c-4.5,1.5-10,0.7-15,1.1c1.4,2.6,6.6,0.6,9.3,0.6c1.8,0.2,0,1.9,1.7,2.2c-2,1.8-4.9,3.4-9.2,1.9c-0.9,2-5.5,0.8-9.5,1.3
				c-2.4,0.3-2.8,0.5-4.8,0.6c-3.2,0.3-9.7,2.8-13.1,1.4c-6.2,2.4-14.3,0.2-20.5,2.5C680.7,459.2,679.6,460,680.3,458.1z"/>
			<path fill-rule="evenodd" clip-rule="evenodd" fill="#836031" d="M699.1,465c-0.6,1,2.1,0.5,0.8,1.8c-7.9-0.6-13.7,3.7-21.2,4.2
				c-2.3-1.2-0.7-4-1.2-6c2.1-2.2,6.3,0.1,8.1-2.8c1.2,0.4,0.6,1.1,1.7,0.7c13.2-4.5,28.1-5.3,42.7-6.8c-1.1,2.2-3.8,0.7-5.3,1.9
				c4-0.3,6.7-0.3,8.6-1.6c0.1-1.4-1,0.8-1.9-0.2c0.9-1,2.5-0.4,3.5-1.1c1.3,1.3-1.3,0.3-1.1,1.6c0.8,1.2,3.6,0,5,0
				c0.1-2.1-1.1,0.1-2.6-1c4,0.7,8.6,0.4,12,2.7c-0.2,1-0.9,0.6-1.6,0.4c-0.2,2.9,0.4,3.4,0,6.5c-10.2,0.8-18.9,5-30,3.7
				c-0.4,1.5,2.1-0.5,1,1.4c-6.1-2-11.3,1-17.5,1.2c2,1.3,6.2,0.5,8.3-0.7c0.4,0.3,0,1,0.5,1.2c1-1.9,2.2,0.8,3.2-1.8
				c1.3,1,0,1.1-0.7,1.7c1.3,0.4,3.1-0.1,3.6,0.9c-1.8,0.8-1.9,0.5-4-0.1c-3.1,1.5-6.7,1.7-10.3,2c-1.4,2.5-5,3.6-6.6,2.9
				c-2.6,2.4-13.6,3.1-10.5-5.1c11-4.1,22.9-6.2,35.6-6.5c-0.3,1.1-1.4,0-1.8,0.8c6.9-3.2,16.5-5.7,26.1-5.3c0-1.1-2.1,0.1-3.2-0.8
				c0.4-0.8,1.6,0.3,1.8-0.8c-3.7,0-9.5,0.8-10.2,0.5C722.5,462.3,708.9,462.5,699.1,465z"/>
			<path fill-rule="evenodd" clip-rule="evenodd" fill="#836031" d="M734.6,436.9c1.6-0.6,2.2,2.1,3.5,1.4c6.4-1.2,16.5,0.9,25.5,0
				c-0.1-1-0.2-2.1-0.3-3.1c-6.2-3.4-12.8,1.3-18.5-1.3c-4.4,0.3-14.4-0.5-22.1,0.3c0.5,0.3,1,0.5,0.5,1.2c-1.7-0.9-2.2,0.1-2.4-1.5
				c-2.3,2.2-6.9,1.5-9.3,0.8c0.3,0.2,0.9,0.3,0.7,0.8c-1.4,0.4-1.8-1.2-2.8-0.6c0.8,0.2,0.8,0.8,0.4,1.6c-4.7-2.1-6.5,0.3-10.9-0.3
				c0.1-0.5,0.9-0.4,0.3-0.9c-3.3,0.3-9.3,1.3-9.9,3.6c-1.6-0.6-2.2,0.1-2.4-1.5c-0.4,0.4-0.8,0.9-1.4,1c-6.6,0.8-14.1,1.4-19.7,1.8
				c0.1,1-3.3,1.3-4.1,2.9c9,0.8,19.3-1.6,28.3-3.4c0.7,1-1,0.8-0.1,1.5c0.6-0.7,1.4,0.2,0.9-1.1c8.9,0.6,19-3.6,26.5-1.1
				c-0.6,0-1.2,0.1-1.6,0.4c2.4,0.5,3.5,1.1,5.9,0.3c-0.8-1.5-2.5-0.2-4.1-1.1c0.1-0.6-0.3-1.1,0.2-1.9c0.3,2.6,6.1,1.3,3.8,0.5
				c0.8-1.4,3.1,0.5,4.7,0.8c1.1-1.2-1.3-0.9-0.2-2.1C729.3,439.2,733.2,437.6,734.6,436.9z M694.5,437.1c0.8-2.5,3.1,0.6,3.5-1.1
				C699,438.1,695.2,438.9,694.5,437.1z"/>
			<path fill-rule="evenodd" clip-rule="evenodd" fill="#836031" d="M746.8,441.6c-0.8-0.4-1.1,0.2-1.9-0.2
				c-0.2,1.4,1.1-0.1,1.7,0.7c-3.3,3.1-8.7,0.5-13.1,2.9c-0.9-0.3-0.1-1.4-1.4-1.5c-0.7-0.1,0,0.6-0.5,1.3c-4-0.7-8.5-0.4-12.6-1
				c0.1,0.4,0.2,0.9-0.1,1.5c-2.7-1.6-3.6,1-6.6-1.1c-0.3,0.5-0.2,0.8,0.1,1c-7.2-2.4-17.2,2.2-26.3,0.7c-0.8,0.3-1.3,1.4-2.2,1.7
				c-4.9-2.2-7.8-0.1-11.4-1.5c-0.5,0.8-0.4,1.4,0.4,1.6c-3.2,0.8-5.1,0.1-8.1,0.3c1.8-1.7,4.8-0.5,7-1.3c-0.2-0.5-2-0.6-1.1-2.4
				c0.4,0.2,0.1,0.7,0.1,1c1.2,0.6,1.7-0.5,2.9,0.2c0.1-0.5-0.7-0.6-0.5-1.2c-0.5,0.2-1,0.5-1.4,1c2.4-2.4,12.6-2.1,18.4-2.3
				c1.4-0.4,2.6-1.1,4.6-0.2c-1,0.8-2.6,0-3.7,0.5c0.6,1,3.1-0.7,5.1,1c-0.2-0.6-0.5-1.2-0.8-1.8c1-0.3,1.7-1,3.1-0.3
				c-0.3,1.1-1.4,0-1.8,0.8c1.3,0.6,1.8-0.9,3.4,0.3c-1.3-3,11.4-2.6,12.1-0.3c1,0.6,0.5-2.1,1.8-0.8c-0.2,0.3-0.6,0.3-0.8,0.7
				c0.8,0.4,1.1-0.2,1.9,0.2c-0.5-2.5-4.5-0.9-5.2-2c4.4-2,11.6,2.4,15.4-1c1.2,1.6,7.7,0.8,8.1-0.3c5.6,0.9,11.7-1.4,15.5,2.6
				C748.7,444.2,746.2,442.5,746.8,441.6z"/>
			<path fill-rule="evenodd" clip-rule="evenodd" fill="#836031" d="M739.2,425.2c-1.1-0.3,0-1.4-0.8-1.8c-1.5,0.5-3.1,0.5-5,0
				c6.2-2.8,13.4-1.2,21.8-2c0.8-1.9-2.2-2.6,0.3-3.4c-3.3-1.2-6.8,1.4-9.3-0.6c1.7,0.3,2.9-0.5,4.6-0.2c1-1.1,0.7-1.4,0.6-2.8
				c1.9-0.3,4.2,0.4,6.1-0.1c1.5-4.8-5.4-3.6-8.3-4.3c-1.3,0.2,0.3,1.6-1.1,1.6c-3.6-0.8-9.5,0.2-13.7,0.6c0.3,0.2,0.8,0.3,0.7,0.8
				c-3.3-1.6-10.1-1.4-12.8-0.5c0.2-0.1,0.9,0.6,0.7,0.8c-15-0.8-28.8,1.1-42.6,2.8c-1.2-0.8-1.6,0.2-2.8-0.6
				c-2.7,2-7.4-0.5-9.8,2.1c8.8,0,16.7-2.3,26-1.3c3.1-0.7,9.5-2.2,11.5,0c-1.9-0.2-5.7-1.4-5.4,0.9c1.7,1.1,4-2.1,4.2,0.7
				c-1.5-1-7.1,1.5-6-1.3c-1.4,2.8-3.4-0.8-5.4,0.9c0.9,1,2.3-0.6,2.2,0.9c-1.8-1.1-2.1,1.3-3.5,1.1c-0.2-1.4-3-0.5-2.1,0.2
				c0.3-0.5,0.7-0.5,1.2-0.5c-3,1.2-5.9-0.3-8.9,1c0.3,0.2,0.9,0.3,0.7,0.8c-1.2,0.2-1.2-1.8-1.7-0.7c0.6,0.1,1,1.8-0.1,1.5
				c0.7-1.2-4.6-0.9-3.9,1c-2.5,0.1-3.8-1.9-5.5-0.1c0.9,1,1.8-1.6,1.9,0.2c-3.4,0.2-8.5,1-13.1,2.9c2.7,1.1,4.8-1.9,6.9,0.2
				c8.4-2.7,15.4-2.2,24.6-2.8c-0.5-0.3-1.3-0.4-1.1-0.9c2.9-0.4,15.8,0,12.8-2c7.8,1.6,13.4-0.9,20.1-0.1c-0.2,0.6-0.5,1.2-0.7,1.7
				c-4.6-1.9-10.6-0.2-15.2,0.5c3,0.5,4.1,0.4,6.3,0.5c-0.2,0.6-0.5,1.2-0.7,1.7c-3-0.2-5.6-0.9-9.3,0.8c2.2-0.5-7.7-2.5-5.4-0.1
				c-4.7-1.3-9.6,2.8-16.2,1.7c-0.4,0.8,0.1,1.1-0.2,1.9c-2.1-0.9-3,0.9-4.8,0.6c1,1.8,5.8,0.9,8,0.1c-1.3-0.8-2.2,0.3-2-1.3
				c1.9-0.7,1.7,1.9,3,1.2c1.6-0.3,5.9-1.4,9.7-1.7c13.4-1.1,29.7-0.7,42.4-2.4c-0.6-0.3-1.7-0.5-1.6-1.1
				C738.1,424,738.4,426.2,739.2,425.2z M706.7,417.4c-0.2-1.4-0.9-1.2-1.3-3c4.4,1.8,11.6-1.3,16.2,0.8c4-1.8,11.4-0.1,17.5-1.2
				c-5,1.2-12.3,2.9-16.2,1.7c-0.7,0.6-1.9,0.1-2.2,1.7C720.3,415,710,414,706.7,417.4z"/>
			<path fill-rule="evenodd" clip-rule="evenodd" fill="#836031" d="M653,433.4c0.5,0.4,0.7,0.9,0.4,1.6c1.2,0.8,1.3-0.9,2.5,0
				c0.2-1.4-1.1,0.1-1.7-0.7c3.6,0.3,5.4-0.7,8.1-0.3c0.2-0.2-0.4-0.8-0.7-0.8c3.4-0.6,10.8-1,15.5-2.4c-4,0.1-7.7,1-11.8,0.9
				c4.1-0.5,8.9-2.8,13.1-0.3c4.8-0.8,12.4-0.6,18-2.5c-1.1,0.2-0.5,1.5,0.3,0.6c0.6,0.4-0.2,0.4-0.3,0.9c1.1,0.8,4-0.1,5.1,1
				c-1.3,0.8-4.5,1.7-5.6,0.3c-0.8,0.2-1.3,0.8-2,1.2c-16.4,0.6-32.1,2.7-47.4,5.9c-1.5-0.5-2.3-0.2-2.9-1.6
				C647.6,434.9,649,436.2,653,433.4z"/>
			<path fill-rule="evenodd" clip-rule="evenodd" fill="#836031" d="M716.9,428.4c-1.3-0.1-1.9,1-3.3,0.7c3-3.8,9.5,0.3,13-2.4
				c4.5,1.5,7.9,0,10.6,1.1c-0.7,1.5-2.4,0.5-3.7,0.5c0.1,1.3,2.2,0.1,3.2,0.8c-1.5,1.2-4,0.1-5.8,0.7c1.6,1.5,5.5-0.5,7.7,2
				c-5.5,0.7-12.7-2.8-17.4-0.3c-0.4-0.1-0.3-0.3-0.3-0.6C724,429.2,716.2,430.8,716.9,428.4z"/>
			<path fill-rule="evenodd" clip-rule="evenodd" fill="#836031" d="M705.8,400.6c0.5,0.3,0.1,0.5-0.2,0.4
				c4.1,1.8,12.4-1.4,17.4,0.3c0.8,0.2,1.3-0.4,1.5-1.4c4.3,0.6,8.4,0.5,11.8-0.9c0.6,0.5,0.8,1.1,1.4,1.5c-0.2,0.2-1.7,1.2-0.7,1.7
				c-13.7,2.9-29.2,0.1-42.3,1.9c1.1,1.7,4.9-1,6.1,0.9c0.4-0.8-0.2-1.1,0.2-1.9c2,1.4,4.2,2.7,5.5,1.2c5,2.6,7.5,1.2,11.7,2.1
				c-2.1,1.3-4.7,1.2-7.4,1.1c2.7,1.3-1.3,1-3,1.3c1.4,1.7-2.6,1.3-4.3,0.8c3.5-0.6,0.2,0.1,1.7-1.8c-1.5-0.7-2.1,0.7-3.5,0.1
				c0.2,0.5-0.2,1.3,0.4,1.6c0.8,0.2,0-1.7,1.8-0.8c-0.4,0.3-0.8,0.6-0.3,0.9c-0.7,1-2,0.3-3.1,0.3c0.2-0.3,0.6-0.3,0.8-0.7
				c-0.7,0.2-1.8-0.2-2.5,0c-0.1,0.7,0.6,0,1.3,0.5c-0.4,0.7-1.1,0.7-2.1,0.2c0.1-1.9,1.7-0.6,2.2-1.7c-3.2,0.3-6.8-0.2-9.8,0.7
				c1.9,0.8,3.1,1.7,6.7,0.6c1,1.8-2.3,0.8-3.3,0.7c-0.3,0.5,0.7,2,1.1,0.9c-1.6,0.8-6.6,0.1-10.5-0.1c-0.1,0.5,0.6,0.7,1.1,0.9
				c-3.5,0.2-6.8,0.9-10.9-0.3c0.2-0.7,0.7-0.6,0.9-1.1c-1.3-0.4-4.6,2.2-3.4,2.2c-1.9-0.8-4.4,0.4-5.8,0.7c-2.1,0.4-4.6-0.2-6.5,0
				c-4.9,0.4-9.1,2.2-14.9,2.2c0.1,1,3.3,2.1,3.6,0.9c0.6,2,2.5,1.5,4.8,1.9c-1.7,1.1-3.9,0.9-6.2,0.6c0.2-0.3,0.6-0.3,0.8-0.7
				c-2.3-0.8-3.3,1.2-5.9-0.3c0.4-0.7-0.1-0.9,0.1-1.5c-6.2-0.6-10.8,2.7-16.7,3c-1.8-5.7,7.6-7.2,10.9-6.2c0.1-1.8,3.5-0.7,4.8-2.1
				c-0.6-1.8,1.7-2.8-0.5-3.7c3.3-0.9,6.9-1.3,10.3-2c-0.8,0.6-1.8,0.7-2.6,1.5c4.1,3.5,9.8-0.9,15.4,1.5c1.4,0.1-0.8-1,0.2-1.9
				c5.9,0.1,13,0,17.5-1.2c0.5-0.1,1.9,0.9,1.8-0.8c1.4,1.7,2.4-0.5,3.3,1.8c0.6-1.3,1.1,0.2,2.9,0.2c-0.9-2.4,0.8-1.5,2.3-2.1
				c-1.9-0.8-3-1.9-4.7-0.8c-0.6-0.6,0.1-1.1,0.8-0.7c0.4-0.8-0.2-1.1,0.2-1.9c0.8,0.2,0.7,0.8,0.3,0.6c0,1.5,1.7,0.1,2.6,1
				c0-0.5-0.1-0.9-0.5-1.2c3.1-0.7,8.2,1.7,11.4-1C703.8,401.5,705.2,401.9,705.8,400.6z"/>
			<path fill-rule="evenodd" clip-rule="evenodd" fill="#836031" d="M670.9,406.9c-3.4-3.2-9.6,1.6-13.4-0.3c1.1-1,2.9-0.4,4.3-0.8
				c0-0.6-0.2-1.1-1-1.4c1.5-0.5,2.9-1.1,4.8-0.6c-0.7,1.4-2.6,0-3.5,1.1c0.7,1.3,5.5,0.5,4.9-1.1c2.4,1.2,5.1-2,8.5-1.2
				c-0.5,0.8-1.5,0.4-2,1.2c3.7-0.1,7.2-0.6,10.8-0.8c0.1-1.4-1.5-0.3-2.2-0.9c0.2-1.6,5.6-0.1,3.1-0.3c-0.2,1.4,1.1-0.1,1.7,0.7
				c-4.8,3.2-10.1,3.2-15.9,2.3C671.3,405.5,671.2,406.1,670.9,406.9z"/>
			<path fill-rule="evenodd" clip-rule="evenodd" fill="#836031" d="M688,400.1c10.1-1,23.6-0.5,32.7-1.7c4.6-0.6,11.5,0.4,16.7-0.5
				c0.3-1.1,0-1.9,0.8-3.2c-2.7-1.1-4.5-1.5-5.4-0.1c-3.2-1-5.7-0.5-8.4-0.3c0.2,0.6,1.5,0.8,0.8,1.8c-12.7,0.1-24.2,1.1-35.8,2
				c0.3-0.5,1-0.6-0.1-1c-7,3-13.2,2.8-20.8,0.8c-1.2,0.4-0.9,1.2-1.5,1.4c0.1-0.7-0.8-0.9-1-1.4c-1.2,0.4-0.9,1.2-1.5,1.4
				c-0.8-1.2-2.7-0.3-2.7-2.1c5.6-2.6,12.4-2.4,18-5c0.9,0.3,1.7,0.7,2.6,1c1.2-0.2-0.1-1.3,0.9-1.1c1,0.7,1.3,1.2,2.3,0.4
				c0.4-0.7,6.2-0.6,7.7-0.5c10-2.9,25.9,0.6,37-2.5c0.6-5.6-7.4-2.1-10.7-3.2c0.3,0.2,0.8,0.3,0.7,0.8c-5-0.3-7.3,0.7-12.6-1
				c1.1-1.9-0.6-2.6-0.4-4.1c-13.5-2.5-24.8,1.7-38.1,1.5c-1.1,1.2,1.3,0.9,0.2,2.1c-0.4-1.7-3-2.2-4.3-1.7c1.1-2.3-2.1-0.7-1.9-2.8
				c-1.1,0.3-2.3,0.3-3.5,0.1c-0.4,1.1,0.3,1.7-0.9,2.2c0.9,0.7,2.4-1.5,2.5,0c-3.3,0.8-3.8,4.9-1.3,7c4.1-1,10.8-0.6,14.4,0.2
				c-4.2,0.5-8.2,1.5-12.1,2.8c0.8,0.2,0.8,0.8,0.4,1.6c-2-0.6-4.9,0.9-5.9-0.3c1.9-0.1,3.6-0.4,5.4-0.9c-7.5,0.4-15.2,0.2-21.4,3.6
				c1.1,1.4,4.8,0.8,4.5-1.2c1.8,0.5,3.5-1,4.1,1.1c1.3-3,4.6-1.6,6.9-2.3c-0.1,1.8,1.9,1.3,0.9,2.8c1.9,1.3,4.3-2.1,4.7,0.8
				c-6.8,1.1-13.8,2.3-20.2,0.6c1.8,0.8-1.8,1.4-3.1,0.3c-0.7,4.2-9.4,0.8-9.7,5.7c3.2-3.4,9.5,0.3,13-2.4c-0.9-0.9-2.3,1.3-2.3-0.4
				c6.7,0.3,16.1,0.4,22.1-0.3c0.3-0.6,0.2-1,0.1-1.5c4.4,1.3,12,1.5,14.8-0.7C677.7,401.7,685.4,400.4,688,400.1z M706.3,386.7
				c-3.5,0.9-11-0.2-11.5,0c-0.5,1.1-0.5-0.9-1.7-0.7C696.8,385.3,702.6,385.1,706.3,386.7z"/>
			<path fill-rule="evenodd" clip-rule="evenodd" fill="#836031" d="M706.2,371.7c0.9-0.9-3.1,2.7-0.7,1.7c-2.8,1.2-10.7-0.2-16.5,0
				c-2.8,0.1-6.2,0-9.4-0.2c7.6,1.3-0.8,1.2-4.7,1.7c3.9,1.5,9.3-0.5,14.3,0.6c-2.9,1.4-6.7,1.9-10.7,1.8c-6.5-0.1-14,0-19.8-1.8
				c2.5-2.3,6.6-0.8,9.7-1.7c0.2-1.4-1.1,0.1-1.7-0.7c2.5-0.6,5,1.6,6.4-1c1.6,0.7,3.6,0.3,6.8,0.6c-1.4-1.7,4.6-2.4,5.8-0.7
				c0.4-1.2,3.3-1.6,5.5-1.3c-0.5-1.5-2.5,0.3-3.8-0.5C693.4,370,700,370.2,706.2,371.7z"/>
			<path fill-rule="evenodd" clip-rule="evenodd" fill="#836031" d="M667.8,460.7c-1.8,1.3-9.4,3.2-12.1,2.8
				c0.5-1.4,2.1-0.2,2.8-0.9c-2.1-1.3,2.7-1.5,4.2-1.8c0.4,0.2,0.1,0.7,0.1,1C664.3,461,666.3,461.5,667.8,460.7z"/>
			<path fill-rule="evenodd" clip-rule="evenodd" fill="#836031" d="M657.7,404.7c-0.6-2-1.9,1.1-2.6,1.5c-0.6-0.2-1.2-0.5-1.7-0.7
				c1.2-1.7,3.1-1.6,4.8-2.1c0.5,1.1,0,0.9,1.6,1.1c-0.8,0.4-3.1,1.5-3.3,0.7C656.6,404.4,657.2,404.5,657.7,404.7z"/>
		</g>
	</g>
	<path fill="#EDA939" d="M185.3,51.1c0,0,16.7-42.7,57.8-19.1c5.1,2.9,11.2,3.4,16.5,0.7c10.9-5.6,31.1-11.5,47.1,8.8
		c3.5,4.4,8.7,7,14.3,6.8c23.2-0.7,27.7,10.5,34.5,31.5c0,0,23.5,4.6,23.6,4.6c38.9,7.6,49.4,52,28.6,82.9c-3.5,5.1-1.7,12.2,3.7,15
		c9.4,4.7,20.9,13.8,18,29.5c-4.8,25.6-29.1,22.2-29.1,22.2L179.5,65.3L185.3,51.1z"/>
	<path fill="#FFCE79" d="M186.2,211.2c0,0-70.5,50.4-62.3,136.2c7.8,81.6,95,80.8,195.8,71.3c8.8-0.8,15.8-7.9,16.4-16.8l0.8-12.4
		c0,0,11.8,0.8,12,0.8c5.8,0.4,10,5.6,14.8,8.3c17.4,9.7,41,8.4,57.4-2.9c22.3-15.5,17.2-43.5,6.7-64.9
		c-6.3-12.9-14.6-24.7-23.1-36.2c-1.9-2.6-3.9-5.2-6-7.7c-4.9-5.9-5.7-14.2-2-20.9c3.1-6.3,4.3-13.3,4.2-20.2
		c-0.1-7.2-0.7-13.9-7.2-18.3c-6.2-4.1-13.1-2.7-17.6,3.1c-11.4,15.1-13.7,25.8-28.7,34.7S186.2,211.2,186.2,211.2z"/>
	<path fill="#75B191" d="M152.5,246.5c0,0-29.8,31.1-29.2,84.4l132.3,1.7l-0.6,13.8l65.4,1.9c10,0.3,17.9,8.7,17.5,18.7l-0.9,22.4
		l13.8,1.1c0,0-11.1-78.9-3.4-125.3L152.5,246.5z"/>
	<path fill="#EDA939" d="M148.6,75.7c0,0-49.9,4.7-55.2,46.9c-3,24.1,9.1,38.5,20,46.4c6.9,5,8.3,14.6,3,21.3
		c-5.6,6.9-11.3,15.9-13.4,25.6c-2.8,13.2-2.8,27.5,3.6,39.7c5.8,11.1,15.5,19.1,27.2,23.5c10.6,3.9,29.1,1.2,31.6,15.6
		c2.3,13.2,10.8,33.7,40.9,35c0,0,18.5,1.3,29.8-13.8c2.2-2.9,6.6-2.7,8.3,0.5c3.4,6.6,10.1,14.6,22.6,17.3
		c19.1,4.2,29.2-9.4,33.6-18.1c1.4-2.9,5.2-3.6,7.6-1.5c7.3,6.3,21.7,8,32.2-2.4c13.1-13,11-60,11-60L148.6,75.7z"/>
	<path fill="#F2B964" d="M300.6,61.7c-3.9-1.7,6.7-19.5,8-20.9c9.3-9.8,26.2-12.6,37.4-4.5c14.3,10.3,12.7,33.9,4.5,47.5
		C350.5,83.7,300.7,61.7,300.6,61.7z"/>
	<path fill="none" stroke="#F0AB4B" stroke-width="3" stroke-linecap="round" stroke-linejoin="round" stroke-miterlimit="10" d="
		M338.2,388.7l0.3-20.1c0.8-9.9-6.6-18.5-16.5-19.4c-35.6-3.1-94.7-2.9-94.7-2.9"/>
	<path fill="none" stroke="#F0AB4B" stroke-width="3" stroke-linecap="round" stroke-linejoin="round" stroke-miterlimit="10" d="
		M254.3,346.4c2.6-13.3,0.2-27.6,0.2-27.6"/>
	<path fill="#FFCE79" d="M397,185.9c-0.7-9.1-3.4-17.8-6.7-26.4c-2.5-6.6-5.3-13.1-7.9-19.7c-6.7-17.2-13-39.3-24.3-53.9
		c-15.3-19.8-39.6-29.6-63.2-35.2c-26.3-6.2-52.2-2-77.7,7.6c-1.1,0.4-12.3,5.5-12.4,5.4c-9.2-11.7-27.4-13.6-41.6-9.2
		c-14.1,4.4-24.4,19.5-22,34c1,13,10.7,24.7,19,31c0.1,0-0.1,0,0,0c-4.6,10.3-5.7,14.9-7.3,26.1c-4.3,29.1,2.6,59.8,19.1,84.1
		c14.8,21.7,36.9,38,61.5,47.5c26.6,10.3,56.5,12.7,84.1,5.1c27.5-7.6,52.5-25.3,67.2-49.8C393.2,218.6,398.3,202.3,397,185.9z"/>
	<path fill="#F2B964" d="M163.5,109.7c6.2,4.7,16.3-4.9,24.8-16.4c8.2-11,1.5-27.1-12.2-28.7c-7.6-0.8-15.9,1.2-23.5,9.2
		c0,0-0.1,0.1-0.1,0.1c-5.6,5.9-6.2,14.9-1.9,21.8C154.1,101.4,158.9,106.2,163.5,109.7z"/>
	<circle fill="#F0AB4B" cx="274.9" cy="163.1" r="12.1"/>
	<circle fill="#F0AB4B" cx="353.5" cy="151.6" r="11.6"/>
	<circle fill="#48484A" cx="353.8" cy="150.9" r="7.3"/>
	<path fill="#F1B55B" d="M302.6,170.6l-13.3-20.5l0,0c-3.7-4.9-1.2-11.9,4.7-13.4l23.7-6c2.9-0.7,6,0.1,8.2,2.3
		c6.7,6.8,17.8,22.4,19.7,31"/>
	<circle fill="#E87D4C" cx="224.5" cy="195.7" r="28.9"/>
	<circle fill="#E87D4C" cx="374.9" cy="171.2" r="16.1"/>
	<circle fill="#48484A" cx="274.9" cy="163.1" r="7.3"/>
	<path fill="#EA8C38" d="M306.6,164c8.5-2,20.3-4.1,33.4-4.4c4.6-0.1,7.3,5.3,4.4,8.9L330,186l-24.5-11.9
		C300.9,171.9,301.6,165.2,306.6,164z"/>
	<path fill="#E87D4C" d="M302,208.4c0,0,9.8,16.6,27.8,14c19.3-2.8,20.8-24.1,20.8-24.1l-22.8,1.9L302,208.4z"/>
	<path fill="none" stroke="#EA8C38" stroke-width="3" stroke-linecap="round" stroke-linejoin="round" stroke-miterlimit="10" d="
		M329.1,199c0,0,23,4.8,28.3-6.5"/>
	<path fill="none" stroke="#EA8C38" stroke-width="3" stroke-linecap="round" stroke-linejoin="round" stroke-miterlimit="10" d="
		M327.1,168c0,0,3.5,8.8,2.9,18l-0.9,13c0,0-4.1,4.8-22.6,8.7c-18.5,4-30.5-6.2-30.5-6.2"/>
	
		<path fill="#FFCE79" stroke="#F0AB4B" stroke-width="3" stroke-linecap="round" stroke-linejoin="round" stroke-miterlimit="10" d="
		M380.8,227.6l-28.3,33.7c-3.1,3.8-5.1,8.4-5.6,13.3c-1.5,14.7-3.8,25.8-2.2,44.5"/>
	<linearGradient id="SVGID_1_" gradientUnits="userSpaceOnUse" x1="410.0116" y1="316.6539" x2="721.7968" y2="316.6539">
		<stop  offset="0" style="stop-color:#C0C2C4"/>
		<stop  offset="1" style="stop-color:#ADAFB2"/>
	</linearGradient>
	<path fill="url(#SVGID_1_)" d="M635.8,199.1c0,0,52.9,32.2,75,90.6s9.5,86.8-25.3,106.5c-31.3,17.8-47.2,22.8-60.5,34
		c-3,2.5-6.7,4-10.6,4h-30.3c-8.9,0-16.4-7-16.7-16c-0.3-11.4,1.5-27.9,11.3-45.7h-35.7c0,0,8.4,12.1,12.8,23.5
		c2.2,5.5-0.8,11.7-6.4,13.5l-42.1,14c-2.8,0.9-5.9,0.6-8.5-0.9c-9.5-5.5-34-19.5-53.6-27.9c-24.9-10.7-42.7-44.5-32-72.9
		c10.7-28.5,71.6-96.5,71.6-96.5L635.8,199.1z"/>
	<path fill="#F5C15D" d="M444.2,274.1l98.9,98.4h35.7l21.6-19.8L705,276.4c0,0-34.8-66.3-81.9-80.2l-138.4,29.3L444.2,274.1z"/>
	<ellipse fill="#F2A959" cx="563.8" cy="247.3" rx="79.6" ry="55.8"/>
	<ellipse fill="#91929D" cx="560.7" cy="238.5" rx="70.4" ry="49.3"/>
	<g>
		<path fill="#ABADB0" d="M438.7,7.2c0,0-1.2-5.5,11.3-6.9c12.5-1.3,29.9,1,38.7,14.3s12.9,19.6,12.9,19.6L464,58.8
			c0,0-7.7-27.4-14.7-36S438.3,13.1,438.7,7.2z"/>
		<linearGradient id="SVGID_2_" gradientUnits="userSpaceOnUse" x1="532.8151" y1="61.5157" x2="596.5527" y2="205.8625">
			<stop  offset="0" style="stop-color:#C7C8CA"/>
			<stop  offset="1" style="stop-color:#B1B3B6"/>
		</linearGradient>
		<path fill="url(#SVGID_2_)" d="M669.9,11.1c-0.3-5.5-4.7-10-10.2-10.5c-42.8-3.9-59.6,32.8-59.6,32.8l0,0
			c-4.5-2.3-9.2-4.4-14.3-6.1c-36.4-12.3-83-11.7-112.2,16.4c-5.1,4.9-9.5,10.6-13.2,17.1c-21.4,38.5-11.7,73-13.5,115.1
			c-1.2,28.2-8.2,53.3,13.8,75.8c17,17.4,42.4,26.4,66.4,27.4c114.8,4.8,132.4-82.9,132.4-100.5c0-23.7-1-47.7-6.1-71
			c-2.8-12.7-7.3-24.7-13.4-35.3c-5.7-10.1-1.8-22.9,8.4-28.2c0.1,0,0.2-0.1,0.3-0.1C667.6,34.3,670.4,20.3,669.9,11.1z"/>
		<g>
			<path fill="#797A7D" d="M478,207.3c-0.6,1.6-1.1,3.2-1.3,4.9c-0.2,1.7-0.2,3.3,0.2,4.8c0.3,1.6,1.3,2.8,2,4.1
				c0.4,0.7,0.9,1.3,1.4,1.9c0.5,0.7,1.1,1.2,1.6,2l0,0c0,0.1,0,0.1,0,0.2c0,0-0.1,0-0.1,0c-1.8-0.3-3.6-1.2-4.9-2.6l-0.5-0.5
				c-0.2-0.2-0.3-0.4-0.4-0.6c-0.2-0.4-0.5-0.9-0.6-1.3l-0.4-1.4c-0.1-0.5-0.1-0.9-0.2-1.4c-0.2-1.9,0.1-3.7,0.6-5.4
				c0.6-1.7,1.3-3.3,2.3-4.8c0-0.1,0.1-0.1,0.2,0C478,207.2,478,207.2,478,207.3L478,207.3z"/>
		</g>
		<g>
			<path fill="#797A7D" d="M544.8,204.7c1.7,1,2.9,2.6,3.8,4.3c0.9,1.8,1.3,3.8,1.2,5.8c0,2-0.4,4.1-1.2,5.9c-0.5,0.9-1,1.7-1.6,2.5
				c-0.7,0.7-1.4,1.4-2.2,2c-0.1,0-0.1,0-0.2,0c0,0,0-0.1,0-0.1l0,0c0.2-1,0.5-1.9,0.8-2.8c0.3-0.9,0.6-1.7,0.9-2.6
				c0.1-0.4,0.3-0.8,0.4-1.3c0.2-0.4,0.3-0.8,0.5-1.2l0.4-1.2l0.3-1.3c0.2-1.7,0.1-3.5-0.4-5.2c-0.5-1.7-1.5-3.3-2.8-4.6l0,0
				c0,0-0.1-0.1,0-0.2C544.7,204.7,544.8,204.7,544.8,204.7z"/>
		</g>
		<path fill="#808285" d="M499.9,216.5c0-0.7-0.7-1.5-2.5-2.3c-3.1-1.4-11.4-2.5-11.9,2c-0.4,3.3,1.7,4.4,5.2,4.3
			C493.7,220.2,499.9,218.6,499.9,216.5z"/>
		<path fill="#808285" d="M520.3,215.5c0-0.7,0.8-1.5,2.8-2.3c3.4-1.3,12.7-2.4,13.2,1.9c0.4,3.2-1.9,4.3-5.8,4.2
			C527.1,219.2,520.3,217.6,520.3,215.5z"/>
		<path fill="#FFFFFF" d="M504.6,110.9l30,68.4c2.9,6.6-0.5,14.4-7.4,16.6c-13.3,4.2-33.2,8-40.2-4.8c-9.2-16.9-3.3-51.8,6.5-79.8
			C495.3,106.2,502.4,106,504.6,110.9z"/>
		<circle fill="#9A9FA3" cx="565.2" cy="168.9" r="12.3"/>
		<circle fill="#9A9FA3" cx="470.9" cy="169.3" r="10.9"/>
		<circle fill="#6B6C6F" cx="470.9" cy="169.3" r="6.9"/>
		
			<path fill="none" stroke="#797A7D" stroke-width="2.5" stroke-linecap="round" stroke-linejoin="round" stroke-miterlimit="10" d="
			M478.8,239.5c0,0,12.7,9.7,26.5,5.9c5.2-1.4,10.6-1.5,15.9-0.6c11.5,2.1,31.3,3.8,46.8-5.4"/>
		
			<path fill="none" stroke="#797A7D" stroke-width="2.5" stroke-linecap="round" stroke-linejoin="round" stroke-miterlimit="10" d="
			M509.5,225.2c0,0-2.1,8.8,2.3,19.2"/>
		<circle fill="#6B6C6F" cx="565.2" cy="168.9" r="7.8"/>
	</g>
	<g>
		<path fill="#797A7D" d="M472.8,330.9c6.4,0.2,12.8,1.4,18.9,3.3c3.1,0.9,6.1,2.1,9.1,3.3l4.4,2c1.5,0.7,2.9,1.5,4.3,2.2
			c0.7,0.4,1.4,0.8,2.1,1.2l2.1,1.3l2.1,1.3c0.7,0.4,1.4,0.8,2,1.3l3.9,2.9c1.3,0.9,2.5,2.1,3.7,3.1l1.8,1.6l0.9,0.8l0.8,0.9
			l3.4,3.5c1.1,1.1,2.1,2.4,3.1,3.7c1,1.2,2,2.5,3,3.8c-1.2-1.1-2.3-2.2-3.5-3.3c-1.2-1.1-2.2-2.3-3.5-3.2c-2.4-2.1-4.8-4.2-7.3-6.1
			c-5-3.9-10.3-7.3-15.8-10.4c-5.5-3.1-11.3-5.7-17.2-7.9C485.2,333.9,479.1,332.1,472.8,330.9z"/>
	</g>
	<path fill="#836031" d="M47,449.1c80.6,1.8,161.2,3,241.8,3.7c80.6,0.7,161.2,0.8,241.8,0.3c45.3-0.3,90.7-0.7,136-1.3
		c3.2,0,5.8-2.8,5-6c-0.9-3.5-5.1-5.3-8.4-5.2c-80.6,1.1-161.2,1.7-241.8,1.6s-161.2-0.6-241.8-1.8c-45.3-0.7-90.7-1.5-136-2.5
		c-3.3-0.1-5.8,2.8-5,6C39.5,447.5,43.7,449,47,449.1L47,449.1z"/>
</g>
<g>
</g>
<g>
</g>
<g>
</g>
<g>
</g>
<g>
</g>
<g>
</g>
<g>
</g>
<g>
</g>
<g>
</g>
<g>
</g>
<g>
</g>
<g>
</g>
<g>
</g>
<g>
</g>
<g>
</g>
</svg>
