<?xml version="1.0" encoding="utf-8"?>
<!-- Generator: Adobe Illustrator 21.0.2, SVG Export Plug-In . SVG Version: 6.00 Build 0)  -->
<svg version="1.1" id="Layer_1" xmlns="http://www.w3.org/2000/svg" xmlns:xlink="http://www.w3.org/1999/xlink" x="0px" y="0px"
	 viewBox="0 0 612 699.5" style="enable-background:new 0 0 612 699.5;" xml:space="preserve">
<style type="text/css">
	.st0{fill:#F7F3EA;}
	.st1{fill:#ABADB0;stroke:#797A7D;stroke-width:2.5;stroke-linecap:round;stroke-linejoin:round;stroke-miterlimit:10;}
	.st2{fill:#E68843;}
	.st3{fill:#E4E5E6;}
	.st4{fill:#D54849;}
	.st5{fill:url(#SVGID_1_);stroke:#797A7D;stroke-width:2.5;stroke-linecap:round;stroke-linejoin:round;stroke-miterlimit:10;}
	.st6{fill:#B1B3B6;stroke:#797A7D;stroke-width:2.5;stroke-linecap:round;stroke-linejoin:round;stroke-miterlimit:10;}
	.st7{fill:#FBDBAE;}
	.st8{fill:#6E7668;}
	.st9{fill:#747578;}
	.st10{fill:#545456;}
	.st11{fill:#AFA387;}
	.st12{fill:#B1E0E1;}
	.st13{fill:url(#SVGID_2_);}
	.st14{fill:#CB7639;}
	.st15{fill:#C89E6B;}
	.st16{fill:#D9AF77;}
	.st17{fill:#BA8F64;}
	.st18{fill:#ABADB0;}
	.st19{fill:#939598;}
	.st20{fill:url(#SVGID_3_);}
	.st21{fill:#B6B8BA;}
	.st22{fill:#808285;}
	.st23{fill:#797A7D;}
	.st24{fill:url(#SVGID_4_);}
	.st25{fill:#A9ABAE;}
	.st26{fill:url(#SVGID_5_);}
	.st27{fill:#A1A3A6;}
	.st28{fill:#ED85A9;}
	.st29{fill:none;stroke:#797A7D;stroke-width:2.5;stroke-linecap:round;stroke-linejoin:round;stroke-miterlimit:10;}
</style>
<g id="body.svg">
	<g>
		<path class="st0" d="M605.3,525.2c0-8.7-4-16.5-10.4-21.6v-11.3c0-18.5-7.1-36-20-49.2c-12.9-13.3-30.2-20.9-48.7-21.5L441,419
			c-4.5-6.8-11.9-11.4-20.5-11.9l-1.6-6.8c2.1,0.1,4.2,0.1,6.3,0.1c63.7,0,116.4-40.3,131.1-100.3c4.1-17,6.2-35.6,5.9-55.2
			c0-2.2-0.3-4.5-0.9-7.8c-0.2-1.6-0.7-4.4-0.9-6.4l1-1.5c4.6-6.3,5.2-14.6,1.6-21.5c-3.6-7-10.6-11.3-18.4-11.3
			c-1,0-2.1,0.1-3.1,0.2l-8.2,1.1c-3.9,0.6-7.6,2-10.8,3.9c-2.4-0.7-4.8-1-7.3-1c-1.4,0-2.8,0.1-4,0.3l-9.4,1.4
			c-8.5,1.3-15.3,7.5-17.1,16c-2,8.4,1.5,17,8.6,21.7l0.3,0.2c1.6,9.9,1.3,23-0.9,37.7c-3.4,23-27.1,40.3-48,43.9
			C454,310,461,296.6,465.1,282l4.7-17c6.1-21.8,5.5-44.7-1.7-66.1c-7.2-21.5-20.5-40.1-38.6-53.7c-19.4-14.8-43.6-23-68.1-23
			c-7.6,0-15.2,0.8-22.6,2.3l-37.7,7.7c-14.8-5.3-30.7-8.2-46.1-8.2h-2.4c-3.2-3-7.1-5.3-11.4-6.5c-12.7-16.3-33.4-26.2-55.7-26.2
			c-9.3,0-18.6,1.7-27.4,5.1c-31.5,11.8-50.9,41.2-48.8,72c-1.7,3-2.8,6.3-3.3,9.6l-22.2,7.1c-31,9.4-56.4,31.8-69.7,61.4
			C4.8,267.2,2,289.8,5.9,312.1S20.3,354.8,36,371l12.3,12.6c7.2,7.5,15.5,13.9,24.3,19.1c-1.5,2.6-2.6,5.4-3.6,8.4
			c-0.3,1.1-0.6,2.3-0.8,3.4c-2.2-0.3-4.5-0.6-6.8-0.6H38.9C17.4,413.9,0,431.4,0,452.8v101.8c0,21.5,17.4,38.9,38.9,38.9h22.5
			c1,0,2,0,3-0.1c0.1,0,0.1-0.1,0.2-0.1c0.5,0.5,1.1,0.9,1.8,1.2c1.7,1,3.9,1.2,5.7,0.2c1.6-0.9,2.3-2.5,2.8-4.2
			c1-3-1.6-6.3-4.6-6.3c-0.1,0-0.1,0-0.2-0.1c-0.2-0.1-0.5-0.2-0.7-0.2c-0.3-0.2-0.6-0.4-0.9-0.6c5.6-52.6,50.2-93.7,104.2-93.7
			c56.2,0,102.2,44.4,104.7,99.9c-0.7-0.2-1.4-0.3-2.2-0.2c-3.3,0.5-6.7,1-10,1.5c-0.8,0.1-1.5,0.4-2,0.8c-0.3,0.4-0.5,0.8-0.8,1.2
			c0,0.6-0.1,1.2-0.2,1.8c-0.3,2.1-0.8,4.1-1.4,6.1c1.2,2.5,2.2,5.1,2.3,7.9c0,1.4-0.1,2.7-0.4,4c0,0.1,0.1,0.2,0.1,0.3
			c1.6,5.4,2.3,12,0.5,17.6c3.3,2.7,7,4.6,10.7,5.1c0.6,0.3,1.2,0.5,1.8,0.8c0.2,0,0.3,0,0.5,0h110.6c1.7,0,3.3-0.2,4.9-0.4
			c0.9,0.3,2,0.4,3.2-0.1c2.9-1.1,6.4-2,9.3-3.5c2.7-0.4,5.3-1.3,7.6-3.3c0.9-0.8,1.6-1.6,2.3-2.5c-2.6-5.8-3.4-12.2-1.3-18.8
			c0.1-0.4,0.3-0.8,0.5-1.2c-1.2-5.6-2-11.5-1.6-17.2c-3.7-0.4-7.7-0.2-11.4,0c2.6-55.5,48.6-99.9,104.7-99.9
			c40,0,74.9,22.6,92.6,55.6c0.5-0.5,1-0.9,1.6-1.3c-0.2-0.3-0.3-0.6-0.5-0.9C602.8,538.4,605.3,532,605.3,525.2z"/>
		<g>
			<g>
				<path class="st1" d="M381.6,413l6.8,20.8c3.1,9.4-0.3,19.7-8.4,25.5l-11.3,8l-14.1-47.5L381.6,413z"/>
				<g>
					<path class="st2" d="M158.4,339.9c0,0-34,17.3-45.8,115.9l24.5,41.6c0,0,189.1-5.4,238.3-30.1l-13-45.1l19.2-9.2
						c0,0-19.1-61.3-61.1-67.6L158.4,339.9z"/>
					<path class="st3" d="M335.8,547.8c-4.7-2.9-14.5-6.4-25.5,2.9c-1.1,1-0.3,2.9,1.1,2.6l23.6-2.8
						C336.6,550.4,337.1,548.6,335.8,547.8z"/>
					<path class="st3" d="M310.9,550.6c-4.8-2.9-14.6-6.4-25.8,2.9c-1.1,1-0.3,2.9,1.1,2.6l23.9-2.8
						C311.7,553.3,312.1,551.3,310.9,550.6z"/>
					<path class="st4" d="M333.6,355.7l-18.6,37c-3.1,7.1-12.4,9.2-18.3,4l-16-14.1l-14.4,21.2c-3.4,5.1-10.1,6.5-15.4,3.6
						l-42.1-24.5L333.6,355.7z"/>
					
						<linearGradient id="SVGID_1_" gradientUnits="userSpaceOnUse" x1="1075.4033" y1="139.1518" x2="1148.382" y2="139.1518" gradientTransform="matrix(-1.1477 -2.585078e-02 -2.585078e-02 1.1477 1433.7476 350.1913)">
						<stop  offset="0" style="stop-color:#C7C8CA"/>
						<stop  offset="1" style="stop-color:#BCBEC0"/>
					</linearGradient>
					<path class="st5" d="M196.4,459.9l-83.7-4l1.3,21c0.7,11.3,7.5,20.9,17.3,24.8l4.5,1.8c2.8,1.1,5.7,1.7,8.7,1.7l24,0.6
						c5.2,0.1,10.2-1.4,14.6-4.1l0,0c7.8-5.1,12.6-14,12.9-23.6L196.4,459.9z"/>
					<path class="st6" d="M290.8,508.5c0,0-10.4,15.5-23.6,20.4"/>
				</g>
			</g>
			<g>
				<circle class="st4" cx="292.9" cy="435.1" r="29.6"/>
				<polygon class="st7" points="283.6,425.6 285.2,412.9 309,433 289.6,457.8 294.1,439.4 				"/>
			</g>
			<rect x="239.8" y="471.3" class="st8" width="116.8" height="74.8"/>
			<path class="st8" d="M163.5,462l-41.3-53.7c-5.3-6.8-14.1-9.5-22.3-6.8l-2.1,0.7c-13.4,4.5-18.1,21.1-9.1,31.9l29.7,35.7
				L163.5,462z"/>
			<path class="st9" d="M38.1,576.4h22.5c11.9,0,21.7-9.8,21.7-21.7V452.8c0-11.9-9.8-21.7-21.7-21.7H38.1
				c-11.9,0-21.7,9.8-21.7,21.7v101.8C16.4,566.6,26.2,576.4,38.1,576.4z"/>
			<path class="st10" d="M45.9,576.1h4.4c9,0,16.4-7.3,16.4-16.4V447.4c0-9-7.3-16.4-16.4-16.4h-4.4c-9,0-16.4,7.3-16.4,16.4v112.3
				C29.5,568.8,36.9,576.1,45.9,576.1z"/>
			<path class="st11" d="M408.1,435.1l-17.7-75.8c-0.7-3.1-2.8-5.7-5.5-7.2l-15.3-8.2c-1.6-0.8-3.3-1.3-5.2-1.3l0,0
				c-6.1,0-10.9,4.9-10.9,10.9v160.8c0,12.5-10.2,22.7-22.7,22.7h-41.7c-12.5,0-22.7-10.2-22.7-22.7v-32.9
				c0-13.1-10.6-23.6-23.6-23.6H101.9c-13.1,0-23.6,10.6-23.6,23.6v68.1h9.9c7.5,0,13.5-6.1,13.5-13.5v-15h117.1l49.5,78.8H393
				l36.4-72h147.4v-35.5c0-28.9-23-52.7-51.9-53.6L408.1,435.1z"/>
			<path class="st8" d="M275.4,619.5H386c3.8,0,7.3-2.1,9.2-5.5l41.9-78.4h139.7c5.7,0,10.4-4.7,10.4-10.4s-4.7-10.4-10.4-10.4H431
				c-3.8,0-7.3,2.1-9.2,5.5l-42,78.5h-98.5l-45.7-75.1c-1.8-3.1-5.3-4.9-8.8-4.9h-125c-3.2,0-6.2,1.5-8.2,4l-23.4,30
				c-3.6,4.5-2.8,11,1.8,14.6c4.5,3.6,11,2.8,14.6-1.8l20.3-25.9h114l45.7,75.1C268.4,617.7,271.8,619.5,275.4,619.5z"/>
			<path class="st12" d="M377.1,348l16.4,90.7h16.1l-19.3-81.4c-0.5-1.8-1.6-3.4-3.3-4.2L377.1,348z"/>
			<path class="st8" d="M417.9,474.9L417.9,474.9c5.4,0,9.8-4.4,9.8-9.8v-31.2c0-5.4-4.4-9.8-9.8-9.8l0,0c-5.4,0-9.8,4.4-9.8,9.8
				v31.2C408.1,470.5,412.5,474.9,417.9,474.9z"/>
			<path class="st2" d="M151.8,365.8c0,0-21.4,9.1-51.3,83.7l83.7,27.9l27.8-55L151.8,365.8z"/>
			
				<linearGradient id="SVGID_2_" gradientUnits="userSpaceOnUse" x1="1465.3257" y1="326.8317" x2="1538.3325" y2="326.8317" gradientTransform="matrix(-1.1552 -0.3543 -0.3366 1.0976 1980.3846 658.9805)">
				<stop  offset="0" style="stop-color:#BEC0C2"/>
				<stop  offset="1" style="stop-color:#B1B3B6"/>
			</linearGradient>
			<path class="st13" d="M184.1,477.4l-83.7-27.9L96.1,470c-2.3,11,2,22.3,10.9,28.8l4.1,3c2.5,1.8,5.4,3.3,8.4,4.2l24.2,7.5
				c5.2,1.6,10.7,1.6,15.8,0.1l0,0c9.3-2.6,16.6-9.9,19.4-19.2L184.1,477.4z"/>
			<path class="st14" d="M184.1,477.2l15.7-31.9c0.6-1-1-2-1.6-0.9L178,475.2L184.1,477.2z"/>
			<g>
				<path class="st15" d="M161.3,443.6l-29-8.2c-3.3-0.9-5.2-4.4-4.2-7.7l8.2-29c0.9-3.3,4.4-5.2,7.7-4.2l29,8.2
					c3.3,0.9,5.2,4.4,4.2,7.7l-8.2,29C168,442.6,164.5,444.6,161.3,443.6z"/>
				<path class="st16" d="M173.5,423.1l-41-11.5l3.6-12.9c0.9-3.3,4.4-5.2,7.7-4.2l29,8.2c3.3,0.9,5.2,4.4,4.2,7.7L173.5,423.1z"/>
				<path class="st17" d="M153.6,425.4l-3.9-1.1c-1.8-0.5-2.9-2.4-2.4-4.2l1.8-6.4c0.5-1.8,2.4-2.9,4.2-2.4l3.9,1.1
					c1.8,0.5,2.9,2.4,2.4,4.2l-1.8,6.4C157.3,424.8,155.3,426,153.6,425.4z"/>
			</g>
			<g>
				<path class="st18" d="M262.9,157.6l78.9-16.2c27-5.5,55,0.8,76.8,17.4l0,0c31.1,23.6,44.5,63.8,34.1,101.5l-4.7,17
					c-11.4,40.4-47.8,68.7-89.7,69.6l-21.6,0.5"/>
				<path class="st19" d="M346.8,324.5L346.8,324.5c32.1-0.7,59.9-22.3,68.7-53.2l3.7-13c8.7-31.1-4.1-64.6-32.3-81.9
					c-16-9.8-35.2-12.7-53.6-9l-44.7,9.2c-7.7,1.6-12.1,9.6-9.2,16.9l45,115.9C327.9,318.7,336.8,324.7,346.8,324.5z"/>
				
					<linearGradient id="SVGID_3_" gradientUnits="userSpaceOnUse" x1="881.0071" y1="-6.8428" x2="828.4877" y2="135.1973" gradientTransform="matrix(-1.0976 0.3364 0.3364 1.0976 1213.3135 -33.275)">
					<stop  offset="0" style="stop-color:#BCBEC0"/>
					<stop  offset="1" style="stop-color:#A3A5A8"/>
				</linearGradient>
				<path class="st20" d="M181.2,376.8c54.6,18.9,111.5,12.9,159.6-20.1c23.2-15.8,41.4-39.6,37.7-69c-1-8.4-3.9-16.3-7.3-23.9
					c-9.4-20.5-9.2-42.9-17.6-63.6c-6.1-15.2-17.2-27.9-30.4-37.4c-25.8-18.5-61-26.2-92.1-19.2c-24.9,5.6-55.1,18.3-71.9,38.8"/>
				<path class="st21" d="M336.8,233.2c5.2,5.9,4.5,14.7-1.4,19.9c-5.9,5.1-14.7,4.5-19.9-1.4s-4.5-14.7,1.4-19.9
					C322.8,226.7,331.8,227.4,336.8,233.2z"/>
				<path class="st22" d="M332.9,236.5c2.4,3.2,1.8,7.8-1.3,10.2c-3.1,2.4-7.8,1.8-10.2-1.4c-2.4-3.2-1.8-7.8,1.3-10.2
					C325.9,232.8,330.5,233.4,332.9,236.5z"/>
				<g>
					<path class="st23" d="M243.5,233.8c-0.9,0.7-1.8,1.3-2.6,1.8c-0.9,0.2-1.8,0.6-2.9,0.8c-1.8,0.7-3.7,1.4-5.4,2.3
						c-1.7,0.9-3.3,2.1-4.8,3.2c-0.7,0.7-1.4,1.3-2.1,2.1c-0.9,0.5-1.7,1-2.6,1.6c0.2-1,0.5-2.2,0.9-3.2c0.7-0.8,1.5-1.5,2.3-2.3
						c1.6-1.4,3.3-2.5,5.2-3.6c1.8-0.9,3.8-1.8,5.7-2.5c1-0.3,2-0.7,3-0.9C241.3,233.4,242.5,233.6,243.5,233.8z"/>
				</g>
				<g>
					<path class="st23" d="M305.9,212.7c0.9-0.6,2-1,2.9-1.5c1,0,2.1-0.1,3.1-0.1c2.1,0,4.1,0.1,6.2,0.5c2.1,0.3,4.1,0.8,6.1,1.6
						c0.9,0.5,2,0.8,2.9,1.4c0.8,0.8,1.4,1.7,2,2.6c-1.1-0.2-2.1-0.6-3.1-0.7c-0.8-0.5-1.7-0.8-2.6-1.3c-1.8-0.7-3.7-1.1-5.6-1.5
						c-2-0.2-3.9-0.5-5.9-0.5c-1,0-2,0-3,0.1C308.1,213.2,307.1,213,305.9,212.7z"/>
				</g>
				<path class="st23" d="M291.8,301.5c0,0-26.6,10.8-46.6,9.1l0.6,6.1c0,0,35.8,27.9,61.1-9.4L291.8,301.5z"/>
				<path class="st21" d="M254.4,258c4.5,5.1,3.9,12.9-1.1,17.2c-5.1,4.4-12.9,3.9-17.2-1.3c-4.5-5.1-3.9-12.9,1.1-17.2
					S249.9,253,254.4,258z"/>
				<path class="st22" d="M252.6,261.1c2.5,3.3,2,7.9-1.4,10.4c-3.2,2.5-7.9,1.8-10.4-1.4c-2.5-3.3-2-7.9,1.4-10.4
					C245.4,257.2,250,257.8,252.6,261.1z"/>
				<g>
					
						<linearGradient id="SVGID_4_" gradientUnits="userSpaceOnUse" x1="789.1996" y1="-196.0328" x2="590.3787" y2="-196.0328" gradientTransform="matrix(-1.1432 0.1052 0.1052 1.1432 1226.8894 456.5384)">
						<stop  offset="0" style="stop-color:#C7C8CA"/>
						<stop  offset="1" style="stop-color:#B1B3B6"/>
					</linearGradient>
					<path class="st24" d="M280.7,298.1l-7.2-13.4c-4.4-8.2-4.8-17.8-1.1-26.3l0,0c3.1-7.3,9.1-13.2,16.5-16.2l5.4-2.2
						c8.8-3.6,18.8-2.8,27,2.2c2.3,1.4,4.2,2.8,5.6,3.9c2.2,1.8,4.1,4,5.7,6.3c0.9,1.4,2.6,6.1,3.9,6.8c0,0,14,7.3,19.1,23.3
						c0.2,0.9,6,3.4,6.8,4.1c6.3,4.7,11.5,10.8,15.8,17.2c15.4,22.3,40,39.5,68.2,35c29.3-4.7,58.2-28.1,62.8-58.4
						c2.4-15.6,3.6-35.4-0.8-50.6l-6-4c-2.6-1.7-1.7-5.9,1.4-6.3l9.4-1.4c3.2-0.5,6.4,0.6,8.8,2.8l1,1c1.3,1.1,3.3,0.8,4.1-0.8
						c1.5-3.3,4.6-5.7,8.2-6.3l8.2-1.1c3-0.5,5.2,3,3.3,5.5l-3.9,5.5c-1.8,2.6,1.4,17.3,1.4,20.7c0.2,17-1.3,34.3-5.3,50.9
						c-20.1,81.5-114.1,110.3-183.3,67.6c-13.8-8.5-23.9-19.5-34-31.9C310.3,317.8,296.9,305.5,280.7,298.1"/>
					<path class="st25" d="M332.8,259.6c-5.6,0.9-17,4-27.9,13.5c-0.8,0.7-2.1-0.2-1.5-1.1c3.7-7.2,13-20.2,29.5-14.2
						C334,258.1,333.8,259.4,332.8,259.6z"/>
					<path class="st25" d="M343.9,271.9c-5.6,0.9-17,4-27.9,13.5c-0.8,0.7-2.1-0.2-1.5-1.1c3.7-7.2,13-20.2,29.5-14.2
						C345,270.4,344.9,271.8,343.9,271.9z"/>
					<path class="st25" d="M353.6,284.6c-5.6,0.9-17,4-27.9,13.5c-0.8,0.7-2.1-0.2-1.5-1.1c3.7-7.2,13-20.2,29.5-14.2
						C354.7,283.2,354.6,284.5,353.6,284.6z"/>
				</g>
				
					<linearGradient id="SVGID_5_" gradientUnits="userSpaceOnUse" x1="992.3227" y1="11.094" x2="992.3227" y2="52.1511" gradientTransform="matrix(-1.1128 0.2824 0.2824 1.1128 1222.375 62.5204)">
					<stop  offset="0" style="stop-color:#BEC0C2"/>
					<stop  offset="1" style="stop-color:#B1B3B6"/>
				</linearGradient>
				<path class="st26" d="M164,177.1l-75.9,24.6c-26.3,8-47.9,27-59.2,52l0,0c-16,35.5-8.7,77.3,18.5,105.3l12.3,12.6
					c29.3,30.1,74.7,37.5,112,18.4l19.2-9.9"/>
				<path class="st27" d="M174,363.2L174,363.2c-27.9,16-62.9,11.8-86.2-10.2l-9.9-9.3c-23.5-22.3-29.7-57.5-14.5-86.8
					c8.7-16.6,23.6-29,41.3-35.2l43.1-15.2c7.3-2.6,15.3,2.1,16.6,9.8l21.1,122.6C187.2,348.5,182.6,358.2,174,363.2z"/>
				<path class="st28" d="M301.1,314.3c0,0-21.5-8.7-43.2,9C258,323.2,281.8,335.8,301.1,314.3z"/>
				<path class="st29" d="M236.5,326.7c0,0,16.3-8.6,6.2-29"/>
			</g>
			<g>
				<path class="st16" d="M234.4,141.1c-10.1-26.9-42-39.7-71.3-28.7s-44.8,41.7-34.7,68.5L234.4,141.1z"/>
				<path class="st2" d="M236.5,155.4l-99.3,37.3c-5.7,2.2-12.3-0.8-14.5-6.5l0,0c-2.2-5.7,0.8-12.3,6.5-14.5l99.3-37.3
					c5.7-2.2,12.3,0.8,14.5,6.5l0,0C245.2,146.7,242.2,153.2,236.5,155.4z"/>
			</g>
		</g>
	</g>
</g>
</svg>
