<svg xmlns="http://www.w3.org/2000/svg" viewBox="0 0 92.35 92.35"><title>usd</title><g id="圖層_5" data-name="圖層 5"><path d="M44.53,79.59a8.16,8.16,0,0,0,.92.08,8.06,8.06,0,0,1-.92-.08Z" style="fill:none"/><path d="M78.49,63.34c-2.14-6.91-5.25-13.49-7-20.53C69.81,36,70.3,28.46,66.35,22.38a23.91,23.91,0,0,0-40.44,0c-3.77,5.8-4.38,12.86-5.31,19.58C19.37,51,15,59.16,12.72,68a1.76,1.76,0,0,0,2.87,1.77l.21-.19a1.76,1.76,0,0,1,2.32,0l3.54,3.11a1.76,1.76,0,0,0,2.32,0l3.54-3.11a1.76,1.76,0,0,1,2.32,0l3.54,3.11a1.76,1.76,0,0,0,2.32,0l3.54-3.11a1.76,1.76,0,0,1,2.32,0l3.8,3.33a1.37,1.37,0,0,0,1.81,0L51,69.55a1.76,1.76,0,0,1,2.32,0l3.54,3.11a1.76,1.76,0,0,0,2.32,0l3.54-3.11a1.76,1.76,0,0,1,2.32,0l3.55,3.11a1.76,1.76,0,0,0,2.32,0l3.58-3.14a1.76,1.76,0,0,1,2.29,0h0a1.76,1.76,0,0,0,2.85-1.73C79.33,66.3,78.95,64.81,78.49,63.34Z" style="fill:#f6f3db"/><path d="M39.62,29.64a4.34,4.34,0,1,1-4.34-4.34Z" style="fill:#fff"/><path d="M38.18,29.84a3.77,3.77,0,0,1-1.3,3c-1.14.85-2.62.18-3.47-.79-1.32-1.51-1.57-5.8,1.29-6l-.77-.21,4.34,4.34c.66.66,3.38-.41,2.7-1.09A50.65,50.65,0,0,0,36.83,25c-2-1.56-5.74.87-6.75,2.7a4.81,4.81,0,0,0,3.82,7c3.31.44,7-1.74,7.16-5.25C41.12,28.37,38.22,29,38.18,29.84Z" style="fill:#fff"/><path d="M38.21,29.64a2.93,2.93,0,1,1-2.93-2.93Z" style="fill:#6f6f6f"/><circle cx="35.28" cy="29.6" r="1.66" style="fill:#545252"/><path d="M52.94,29.64a4.34,4.34,0,1,0,4.34-4.34Z" style="fill:#fff"/><path d="M51.49,30c.19,3.53,3.67,5.53,7,4.73s5.74-4.22,4.13-7.5c-1.1-2.26-4.59-4-6.7-2.1-1.44,1.31-2.76,2.76-4.14,4.14s1.57,1.51,2.38.69l4.34-4.34-1.72.61A3.63,3.63,0,0,1,59.49,32c-2.05,2.79-5-.32-5.1-2.71C54.33,28.1,51.42,28.75,51.49,30Z" style="fill:#fff"/><path d="M54.35,29.64a2.93,2.93,0,1,0,2.93-2.93Z" style="fill:#6f6f6f"/><circle cx="57.28" cy="29.6" r="1.66" style="fill:#545252"/><path d="M54.53,29.25c-.57-1-6.51-3.79-8.47-3.79-2.35,0-7.72,2.47-8.47,3.79-1.14,2-1.5,4.46-.42,6.28l6.91,11.6a2.11,2.11,0,0,0,4,0l6.91-11.6C56,33.7,55.89,31.68,54.53,29.25Z" style="fill:#f1d65c"/><circle cx="43.72" cy="28.98" r="1.19" style="fill:#ecb556"/><circle cx="48.45" cy="28.98" r="1.19" style="fill:#ecb556"/><path d="M18.53,66.82,22.32,57a.31.31,0,0,1,.6.16l-1.5,10.67a1.09,1.09,0,0,1-1.59.81l-.8-.42A1.09,1.09,0,0,1,18.53,66.82Z" style="fill:#e1e0c3"/><path d="M29.64,67.42,32.5,57.24a.31.31,0,0,1,.61.1L32.62,68.1a1.09,1.09,0,0,1-1.51,1l-.83-.34A1.09,1.09,0,0,1,29.64,67.42Z" style="fill:#e1e0c3"/><path d="M73.73,66.82,69.94,57a.31.31,0,0,0-.6.16l1.5,10.67a1.09,1.09,0,0,0,1.59.81l.8-.42A1.09,1.09,0,0,0,73.73,66.82Z" style="fill:#e1e0c3"/><path d="M62.62,67.42,59.77,57.24a.31.31,0,0,0-.61.1l.49,10.77a1.09,1.09,0,0,0,1.51,1l.83-.34A1.09,1.09,0,0,0,62.62,67.42Z" style="fill:#e1e0c3"/><path d="M47.23,67.29,45.92,56.8a.31.31,0,0,0-.62,0L44.19,67.53a1.09,1.09,0,0,0,1.35,1.17l.87-.22A1.09,1.09,0,0,0,47.23,67.29Z" style="fill:#e1e0c3"/></g></svg>