<svg xmlns="http://www.w3.org/2000/svg" xmlns:xlink="http://www.w3.org/1999/xlink" viewBox="0 0 9398.98 1207"><defs><style>.a{fill:none;}.b{fill:#f9d4be;}.c{fill:#f5bbb1;}.d{fill:url(#a);}.e{fill:#f8a79e;}.f{fill:#f2eae2;}.g{fill:#f59295;}</style><pattern id="a" width="360" height="360" patternTransform="matrix(1, 0, 0, -1, -56, 548)" patternUnits="userSpaceOnUse" viewBox="0 0 360 360"><rect class="a" width="360" height="360"/><rect class="a" width="360" height="360"/><rect class="b" width="360" height="360"/><path class="c" d="M54.68,305.75c-.13-14.82,5.58-26.93,14.74-38.22,7.68-9.47,12.95-17.29,12.22-30-.57-10,15-10,15.58,0,.73,12.72-3,23.6-10.76,33.59C78,282,70.14,291.07,70.27,305.75c.09,10-15.49,10-15.58,0Z"/><path class="c" d="M144.85,261.83c8.46,0,8.47,13.15,0,13.15S136.38,261.83,144.85,261.83Z"/><path class="c" d="M57.6,201.63c8.46,0,8.47,13.15,0,13.15S49.13,201.63,57.6,201.63Z"/><path class="c" d="M92.5,203.38c8.46,0,8.47,13.15,0,13.15S84,203.38,92.5,203.38Z"/><path class="c" d="M137.87,179.82c8.46,0,8.47,13.15,0,13.15S129.4,179.82,137.87,179.82Z"/><path class="c" d="M132,209.65c7.73,4,15.6,7.69,23.68,10.93,3.89,1.56,6.67,5.21,5.44,9.58-1,3.7-5.64,7-9.58,5.44-9.33-3.74-18.48-7.87-27.4-12.5s-1-18.07,7.86-13.45Z"/><path class="c" d="M117.34,323.59a57.7,57.7,0,0,0,14.2-12.67c2.66-3.26,8.25-2.76,11,0,3.22,3.22,2.67,7.75,0,11A70.36,70.36,0,0,1,125.2,337c-8.53,5.32-16.36-8.15-7.86-13.45Z"/><path class="c" d="M249,311l-9.8-9.39a7.87,7.87,0,0,1,0-11,8,8,0,0,1,11,0L260,300a7.87,7.87,0,0,1,0,11A8,8,0,0,1,249,311Z"/><path class="c" d="M205.81,223.39c4.09,9.39,14.81,11.7,23,16.32,9.64,5.42,15.16,13.75,19.94,23.5,4.39,9-9,16.88-13.45,7.86-2.48-5.06-4.92-10.65-9.23-14.45-3.62-3.18-8.22-5.06-12.53-7.1-8.63-4.08-17.22-9.12-21.2-18.27s9.46-17,13.45-7.86Z"/><path class="c" d="M182.61,271.45l5.23-11.34c1.71-3.71,7.36-4.92,10.66-2.79,3.83,2.47,4.63,6.69,2.79,10.66l-5.23,11.34c-1.71,3.71-7.36,4.92-10.66,2.79C181.57,279.64,180.77,275.42,182.61,271.45Z"/><path class="c" d="M171.64,187.54a190.61,190.61,0,0,1-3.31-30.81c-.24-10,15.34-10,15.58,0a164.52,164.52,0,0,0,2.75,26.66c1.85,9.8-13.17,14-15,4.14Z"/><path class="c" d="M73.94,177.05c-6.41-8.13-12.9-16.41-15.77-26.54-2-6.87-.71-21.69-9.57-23.76-9.76-2.29-5.63-17.32,4.14-15,10.37,2.43,16,11.82,18.08,21.67,1.21,5.87,1.49,11.84,4,17.39S81.21,161.28,85,166c6.15,7.79-4.81,18.89-11,11Z"/><path class="c" d="M97,127.95c10.62-6.78,15.52-19.57,26.37-26.43,8.5-5.38,16.32,8.1,7.86,13.45-10.64,6.73-15.56,19.53-26.37,26.43C96.38,146.81,88.56,133.33,97,127.95Z"/><path class="c" d="M77.91,85.64A58.42,58.42,0,0,0,63.28,70.09c-3.4-2.46-5.07-6.78-2.79-10.66,2-3.36,7.23-5.28,10.66-2.79A78.8,78.8,0,0,1,91.37,77.78c5.47,8.44-8,16.26-13.45,7.86Z"/><path class="c" d="M49.37,25.4a42,42,0,0,0,13.84-9.61c6.93-7.28,17.93,3.75,11,11a53.23,53.23,0,0,1-17,12C53.36,40.53,48.84,40,46.55,36c-1.94-3.31-1.08-9,2.79-10.66Z"/><path class="c" d="M125,35.32l27.2,6.3c9.76,2.26,5.63,17.29-4.14,15l-27.2-6.3C111.1,48.06,115.23,33,125,35.32Z"/><path class="c" d="M18.18,261.62A42.65,42.65,0,0,0,9,249.84a7.78,7.78,0,0,1,11-11,59.26,59.26,0,0,1,11.6,14.94,7.79,7.79,0,0,1-13.33,8.06l-.12-.2Z"/><path class="c" d="M19.66,181.46l-3.58-13.94a7.94,7.94,0,0,1,5.44-9.58,7.89,7.89,0,0,1,9.58,5.44l3.58,13.94a7.79,7.79,0,0,1-15,4.14Z"/><path class="c" d="M27.07,327.26c8.46,0,8.47,13.15,0,13.15S18.6,327.26,27.07,327.26Z"/><path class="c" d="M333.29,333.37c8.46,0,8.47,13.15,0,13.15S324.82,333.37,333.29,333.37Z"/><path class="c" d="M284.78,300.08c5.82,2.41,10.33,3.44,15.51-.5,4.26-3.23,7.74-7.34,12.12-10.46a29.1,29.1,0,0,1,32.09-1c8.59,5.16.76,18.64-7.86,13.45-10.8-6.49-17.71,2.72-25.43,9.08-9.31,7.67-19.37,9-30.57,4.41-9.14-3.78-5.13-18.86,4.14-15Z"/><path class="c" d="M284.78,256.68a57.69,57.69,0,0,0,8.63-18.29c2.62-9.67,17.65-5.57,15,4.14a70.51,70.51,0,0,1-10.2,22c-2.41,3.44-6.82,5-10.66,2.79-3.41-2-5.22-7.19-2.79-10.66Z"/><path class="c" d="M263.5,206c8.46,0,8.47,13.15,0,13.15S255,206,263.5,206Z"/><path class="c" d="M233,160.63c8.46,0,8.47,13.15,0,13.15S224.53,160.63,233,160.63Z"/><path class="c" d="M310.61,158c8.46,0,8.47,13.15,0,13.15S302.14,158,310.61,158Z"/><path class="c" d="M334.58,225.43a61.56,61.56,0,0,1-21.46-16.22c-2.72-3.21-3.15-7.87,0-11,2.79-2.79,8.28-3.22,11,0A51.14,51.14,0,0,0,342.45,212c3.83,1.74,4.76,7.3,2.79,10.66-2.31,3.94-6.81,4.54-10.66,2.79Z"/><path class="c" d="M263.64,166.32l-1-22.68c-.44-10,15.14-10,15.58,0l1,22.68C279.66,176.32,264.08,176.32,263.64,166.32Z"/><path class="c" d="M229.56,110.08a452.28,452.28,0,0,0,46.77-27.84c8.31-5.65,16.12,7.84,7.86,13.45a452.28,452.28,0,0,1-46.77,27.84c-8.9,4.59-16.79-8.85-7.86-13.45Z"/><path class="c" d="M327.07,90.53q-21.68-20.22-41.45-42.32c-6.67-7.45,4.31-18.51,11-11q19.77,22.09,41.45,42.32C345.42,86.38,334.38,97.38,327.07,90.53Z"/><path class="c" d="M180.54,108c-.47-15.11,6.44-28,12-41.57,4.64-11.25,8.68-26.06-1.72-35.38-7.48-6.71,3.57-17.7,11-11,11.18,10,12.93,25.89,9.4,39.79-4.15,16.35-15.7,30.77-15.15,48.18.31,10-15.27,10-15.58,0Z"/><path class="c" d="M30.56,43.72c8.46,0,8.47,13.15,0,13.15S22.09,43.72,30.56,43.72Z"/><path class="c" d="M42.77,76.87c8.46,0,8.47,13.15,0,13.15S34.3,76.87,42.77,76.87Z"/><path class="c" d="M234.56,34.08c8.46,0,8.47,13.15,0,13.15S226.09,34.08,234.56,34.08Z"/><path class="c" d="M332.7,14.45c8.46,0,8.47,13.15,0,13.15S324.23,14.45,332.7,14.45Z"/><path class="c" d="M319,102.79c8.46,0,8.47,13.15,0,13.15S310.53,102.79,319,102.79Z"/><path class="c" d="M181.56,326.56c8.46,0,8.47,13.15,0,13.15S173.09,326.56,181.56,326.56Z"/><path class="c" d="M79.49,330.48c8.46,0,8.47,13.15,0,13.15S71,330.48,79.49,330.48Z"/><path class="c" d="M262,332.45c8.46,0,8.47,13.15,0,13.15S253.53,332.45,262,332.45Z"/><path class="c" d="M159.68,104.79c8.46,0,8.47,13.15,0,13.15S151.21,104.79,159.68,104.79Z"/></pattern></defs><title>slope-up</title><rect class="d" x="72.8" width="9308.3" height="1207"/><path class="e" d="M2665.2,560.9a54.66,54.66,0,0,1-24.8,0,55.37,55.37,0,0,1-34.8-24.7,56.43,56.43,0,0,1-4.8-9.5L2543,513.6a55.83,55.83,0,0,1-25.7,13.7,54.66,54.66,0,0,1-24.8,0,56,56,0,0,1-34.4-84.9,59.52,59.52,0,0,1,.9-19.7,55.92,55.92,0,0,1,42-42,54.66,54.66,0,0,1,24.8,0,55.77,55.77,0,0,1,39.3,33.1l59,13.4a56.63,56.63,0,0,1,24.9-12.9,54.66,54.66,0,0,1,24.8,0,56,56,0,0,1,34.4,84.9,59.52,59.52,0,0,1-.9,19.7,56.19,56.19,0,0,1-42.1,42Z"/><path class="f" d="M2649.2,486.2a18.44,18.44,0,1,0-25.6-21.5l-75.4-17.1a18.49,18.49,0,1,0-32.5,8.3,18.45,18.45,0,1,0,25.8,20.8l75.3,17.1a18.46,18.46,0,1,0,36,8.2A17.71,17.71,0,0,0,2649.2,486.2Z"/><path class="e" d="M790.3,813.4a53.9,53.9,0,0,1-62.2,4.4,56,56,0,0,1-8.3-6.2L664,825.1a54.65,54.65,0,0,1-16.3,23,53.9,53.9,0,0,1-86.6-29,55.43,55.43,0,0,1-1.2-19,55.7,55.7,0,0,1-7.7-17.4,54.06,54.06,0,0,1,88-53.5l56.9-13.8a53.94,53.94,0,0,1,102.6,7.1,55.43,55.43,0,0,1,1.2,19,55.7,55.7,0,0,1,7.7,17.4,54.58,54.58,0,0,1-18.3,54.5Z"/><path class="f" d="M744.2,755.5a17.87,17.87,0,1,0-31.5-7.6L640,765.6a17.89,17.89,0,1,0-24.6,21.2,17.89,17.89,0,1,0,31.4,6.9L719.5,776a17.9,17.9,0,0,0,34.8-8.4A18.18,18.18,0,0,0,744.2,755.5Z"/><path class="e" d="M4227.6,825.7a46.47,46.47,0,0,1-42.4-33.1,44.62,44.62,0,0,1-1.7-8.7L4140,760.4a46.41,46.41,0,0,1-62.4-63.2,47.69,47.69,0,0,1,10.2-12.9,46.82,46.82,0,0,1,48.3-40,46.44,46.44,0,0,1,44,40.9l44.4,23.9a46.68,46.68,0,0,1,42.8.7,46.5,46.5,0,0,1,18.8,63,45.75,45.75,0,0,1-10.2,12.8,47.07,47.07,0,0,1-5.2,15.6,46.52,46.52,0,0,1-43.1,24.5Z"/><path class="f" d="M4231.5,762.1a15.32,15.32,0,0,0,11-7.9,15.41,15.41,0,0,0-26.8-15.2L4159,708.4a15.38,15.38,0,0,0-6.5-20.3,15.55,15.55,0,0,0-20.9,6.2,15.3,15.3,0,0,0-.5,13.5,15.32,15.32,0,0,0-11,7.9,15.42,15.42,0,0,0,27.1,14.7l56.7,30.6a15.42,15.42,0,0,0,27.1,14.7A15.87,15.87,0,0,0,4231.5,762.1Z"/><path class="e" d="M5842.5,483.7a50,50,0,0,1-20.2,8.4,49.07,49.07,0,0,1-36.8-8.4,46.53,46.53,0,0,1-7.1-6.1l-51.7,8.8a49.33,49.33,0,0,1-16.4,19.9,50,50,0,0,1-20.2,8.4,49.45,49.45,0,0,1-57-40.3,50.81,50.81,0,0,1,.1-17.4,48.78,48.78,0,0,1-5.9-16.4,49.36,49.36,0,0,1,83.6-43.2l52.7-9a49.46,49.46,0,0,1,36.2-27.4,49.3,49.3,0,0,1,56.9,40.3,50.81,50.81,0,0,1-.1,17.4,49.55,49.55,0,0,1-14.1,65Z"/><path class="f" d="M5804.2,428a16.37,16.37,0,1,0-28.3-9l-67.4,11.5a16.35,16.35,0,1,0-23.7,17.9,16.37,16.37,0,1,0,28.2,8.3l67.4-11.5a16.38,16.38,0,1,0,32.3-5.5A16.75,16.75,0,0,0,5804.2,428Z"/><path class="e" d="M7894.1,819.5a50,50,0,0,1-20.2,8.4,49.07,49.07,0,0,1-36.8-8.4,46.53,46.53,0,0,1-7.1-6.1l-51.7,8.8a49.33,49.33,0,0,1-16.4,19.9,50,50,0,0,1-20.2,8.4,49.45,49.45,0,0,1-57-40.3,50.81,50.81,0,0,1,.1-17.4,48.78,48.78,0,0,1-5.9-16.4,49.36,49.36,0,0,1,83.6-43.2l52.7-9a49.46,49.46,0,0,1,36.2-27.4,49.3,49.3,0,0,1,56.9,40.3,50.81,50.81,0,0,1-.1,17.4,48.78,48.78,0,0,1,5.9,16.4,49.4,49.4,0,0,1-20,48.6Z"/><path class="f" d="M7855.7,763.7a16.37,16.37,0,1,0-28.3-9L7760,766.2a16.35,16.35,0,1,0-23.7,17.9,16.37,16.37,0,1,0,28.2,8.3l67.4-11.5a16.38,16.38,0,1,0,32.3-5.5A16.75,16.75,0,0,0,7855.7,763.7Z"/><path class="g" d="M9390.7,61.6c19.7-24.8,2-61.3-29.6-61.3H0L50.3,67.9a53.65,53.65,0,0,0,84.9,1.5h0c24.8-31,68.1-33.4,96.2-5.3h0a64.76,64.76,0,0,0,91.6,0l6.3-6.3c25.8-25.8,64.7-23,86.5,6.3h0a57.31,57.31,0,0,0,90.7,1.6l4.2-5.2a50.4,50.4,0,0,1,79.8,1.4l1.6,2.2a57.31,57.31,0,0,0,90.7,1.6l2.6-3.2a57.31,57.31,0,0,1,90.7,1.6h0a57.31,57.31,0,0,0,90.7,1.6l2.8-3.6a57.31,57.31,0,0,1,90.7,1.6l.2.3a57.31,57.31,0,0,0,90.7,1.6l8.5-10.6a50.4,50.4,0,0,1,79.8,1.4l5.6,7.5a57.31,57.31,0,0,0,90.7,1.6l2.6-3.2a57.31,57.31,0,0,1,90.7,1.6h0a57.31,57.31,0,0,0,90.7,1.6l2.8-3.6a57.31,57.31,0,0,1,90.7,1.6l.2.3a57.31,57.31,0,0,0,90.7,1.6l3.2-4a44.11,44.11,0,0,1,69.8,1.2h0a58.74,58.74,0,0,0,88.6,6.5l2.3-2.3a68.56,68.56,0,0,1,97,0h0c26.4,26.4,67.1,24.2,90.5-5h0a57.31,57.31,0,0,1,90.7,1.6l.2.3a57.31,57.31,0,0,0,90.7,1.6l4.2-5.2a50.4,50.4,0,0,1,79.8,1.4l1.6,2.2a57.31,57.31,0,0,0,90.7,1.6l2.6-3.2a57.31,57.31,0,0,1,90.7,1.6h0a57.31,57.31,0,0,0,90.7,1.6l2.8-3.6a57.31,57.31,0,0,1,90.7,1.6l.2.3a57.31,57.31,0,0,0,90.7,1.6l8.5-10.6a50.4,50.4,0,0,1,79.8,1.4l8.4,11.3a53.65,53.65,0,0,0,84.9,1.5h0c24.8-31,68.1-33.4,96.2-5.3l3,3c26.4,26.4,67.1,24.2,90.5-5h0a57.31,57.31,0,0,1,90.7,1.6l.2.3a57.31,57.31,0,0,0,90.7,1.6h0a48.15,48.15,0,0,1,76.2,1.4l.6.8a53.65,53.65,0,0,0,84.9,1.5h0c24.8-31,68.1-33.4,96.2-5.3l3,3c26.4,26.4,67.1,24.2,90.5-5h0a57.31,57.31,0,0,1,90.7,1.6l.2.3a57.21,57.21,0,0,0,90.6,1.6l4.2-5.2a50.4,50.4,0,0,1,79.8,1.4l1.6,2.2a57.31,57.31,0,0,0,90.7,1.6l2.6-3.2a57.31,57.31,0,0,1,90.7,1.6h0a57.31,57.31,0,0,0,90.7,1.6l2.8-3.6a57.31,57.31,0,0,1,90.7,1.6l.2.3a57.31,57.31,0,0,0,90.7,1.6l8.5-10.6a50.4,50.4,0,0,1,79.8,1.4l5.6,7.5a57.31,57.31,0,0,0,90.7,1.6l2.6-3.2a57.31,57.31,0,0,1,90.7,1.6h0a57.31,57.31,0,0,0,90.7,1.6l2.8-3.6a57.31,57.31,0,0,1,90.7,1.6l.2.3a57.31,57.31,0,0,0,90.7,1.6h0a48.15,48.15,0,0,1,76.2,1.4l.6.8a53.65,53.65,0,0,0,84.9,1.5h0c24.8-31,68.1-33.4,96.2-5.3l3,3c26.4,26.4,67.1,24.2,90.5-5h0a57.31,57.31,0,0,1,90.7,1.6l.2.3a57.21,57.21,0,0,0,90.6,1.6l4.2-5.2a50.4,50.4,0,0,1,79.8,1.4l1.6,2.2a57.31,57.31,0,0,0,90.7,1.6l2.6-3.2a57.31,57.31,0,0,1,90.7,1.6h0a57.31,57.31,0,0,0,90.7,1.6l2.8-3.6a57.21,57.21,0,0,1,90.6,1.6l.3.3a57.31,57.31,0,0,0,90.7,1.6l8.4-10.5a50.4,50.4,0,0,1,79.8,1.4l5.6,7.5a57.31,57.31,0,0,0,90.7,1.6l2.6-3.2a57.31,57.31,0,0,1,90.7,1.6h0a57.31,57.31,0,0,0,90.7,1.6l2.8-3.5a57.31,57.31,0,0,1,90.7,1.6l.3.3a57.21,57.21,0,0,0,90.6,1.6h0a48.15,48.15,0,0,1,76.2,1.4l.6.8a53.65,53.65,0,0,0,84.9,1.5h0c24.8-31,68.1-33.4,96.2-5.3l3,3c26.4,26.4,67.1,24.2,90.5-5h0a57.31,57.31,0,0,1,90.7,1.6l.2.3a57.31,57.31,0,0,0,90.7,1.6l4.2-5.2a50.4,50.4,0,0,1,79.8,1.4l1.6,2.2a57.31,57.31,0,0,0,90.7,1.6l2.6-3.2a57.31,57.31,0,0,1,90.7,1.6h0a57.31,57.31,0,0,0,90.7,1.6l2.8-3.6a57.31,57.31,0,0,1,90.7,1.6l.2.3a57.21,57.21,0,0,0,90.6,1.6l8.5-10.6a50.4,50.4,0,0,1,79.8,1.4l5.6,7.5a57.31,57.31,0,0,0,90.7,1.6l2.6-3.2a57.31,57.31,0,0,1,90.7,1.6h0a57.31,57.31,0,0,0,90.7,1.6l2.8-3.5a57.31,57.31,0,0,1,90.7,1.6l.3.3a57.21,57.21,0,0,0,90.6,1.6h0a48.15,48.15,0,0,1,76.2,1.4l.6.8a53.65,53.65,0,0,0,84.9,1.5h0c24.8-31,68.1-33.4,96.2-5.3l3,3c26.4,26.4,67.1,24.2,90.5-5h0a57.31,57.31,0,0,1,90.7,1.6l.2.3a57.21,57.21,0,0,0,90.6,1.6l4.2-5.2a50.4,50.4,0,0,1,79.8,1.4l1.6,2.2a57.31,57.31,0,0,0,90.7,1.6l2.6-3.2a57.31,57.31,0,0,1,90.7,1.6h0a57.31,57.31,0,0,0,90.7,1.6l2.8-3.6a57.31,57.31,0,0,1,90.7,1.6l.2.3a57.31,57.31,0,0,0,90.7,1.6l8.5-10.6a50.4,50.4,0,0,1,79.8,1.4l5.6,7.5a57.31,57.31,0,0,0,90.7,1.6l2.6-3.2C9390.2,62.2,9390.4,61.9,9390.7,61.6Z"/></svg>