<?xml version="1.0" encoding="utf-8"?>
<!-- Generator: Adobe Illustrator 18.0.0, SVG Export Plug-In . SVG Version: 6.00 Build 0)  -->
<!DOCTYPE svg PUBLIC "-//W3C//DTD SVG 1.1//EN" "http://www.w3.org/Graphics/SVG/1.1/DTD/svg11.dtd">
<svg version="1.1" id="Layer_1" xmlns="http://www.w3.org/2000/svg" xmlns:xlink="http://www.w3.org/1999/xlink" x="0px" y="0px"
	 viewBox="0 0 4014.7 415.7" enable-background="new 0 0 4014.7 415.7" xml:space="preserve">
<g>
	<path fill="#517270" d="M0.8,399.7l60.4-262.3c4.5-10.6,24.4-11.8,31.2-1.9l22.5,32.8c6.9,10,27.1,8.6,31.3-2.1l26.6-68.3
		c4.9-12.5,29.4-11.7,32.8,1l16.3,61.3c3.5,13.2,29.4,13.3,33.1,0.1l27.2-97.7c3.7-13.3,29.7-13.1,33.1,0.2l22.6,89.4
		c3.4,13.5,30,13.4,33.2-0.1l33.4-141.8c3.2-13.7,30.3-13.6,33.3,0.2l42.2,194.3c0.1,0.6,0.2,1.3,0.2,1.9v196.8
		c0,6.8-7.5,12.3-16.9,12.3l-446.4,0C5.5,415.6-2.6,407.6,0.8,399.7z"/>
	<path fill="#55C0A2" d="M67.9,399.7l60.4-262.3c4.5-10.6,24.4-11.8,31.2-1.9l22.5,32.8c6.9,10,27.1,8.6,31.3-2.1l26.6-68.3
		c4.9-12.5,29.4-11.7,32.8,1l16.3,61.3c3.5,13.2,29.4,13.3,33.1,0.1l27.2-97.7c3.7-13.3,29.7-13.1,33.1,0.2l22.6,89.4
		c3.4,13.5,30,13.4,33.2-0.1l33.4-141.8c3.2-13.7,30.3-13.6,33.3,0.2L547,204.7c0.1,0.6,0.2,1.3,0.2,1.9v196.8
		c0,6.8-7.5,12.3-16.9,12.3l-446.4,0C72.6,415.6,64.5,407.6,67.9,399.7z"/>
</g>
<g>
	<path fill="#BEDD9C" d="M3094.8,236.8l-25.5,85.2c-1.6,5.3,1.4,10.9,6.7,12.5c5.3,1.6,10.9-1.4,12.5-6.7l25.5-85.2l-9.6-2.9
		L3094.8,236.8z"/>
	<path fill="#BEDD9C" d="M3118.2,193.6l5.2,1.6c1.5,0.4,3,0.8,4.5,1l2-6.7c-3.3-0.1-6.7-0.6-10-1.6c-3.3-1-6.4-2.4-9.2-4.2l-2,6.7
		c1.4,0.6,2.8,1.2,4.3,1.6L3118.2,193.6z"/>
	<path fill="#BEDD9C" d="M3119.8,223.4l2.4-7.9c-1.5-0.3-3-0.7-4.5-1.1l-5.2-1.6l-5.2-1.6c-1.5-0.4-2.9-1-4.3-1.5l-2.4,7.9l9.6,2.9
		L3119.8,223.4z"/>
	<path fill="#BEDD9C" d="M3136.1,168.6l9.1-30.4c1.6-5.3-1.4-10.9-6.7-12.5c-5.3-1.6-10.9,1.4-12.5,6.7l-9.1,30.4
		c2.2,2.7,5.1,4.8,8.7,5.9C3129.2,169.9,3132.8,169.7,3136.1,168.6z"/>
	<path fill="#BEDD9C" d="M3116.9,162.9c-3.4-4.3-4.8-10.2-3.1-15.9l4.3-14.3c1.6-5.3-1.4-10.9-6.7-12.5c-5.3-1.6-10.9,1.4-12.5,6.7
		l-4.3,14.3c-4.9,16.5,2.1,33.8,16,42.5l2.5-8.3L3116.9,162.9z"/>
	<path fill="#BEDD9C" d="M3113.2,175.5l-2.5,8.3c2.8,1.8,5.9,3.2,9.2,4.2C3114.6,186.4,3111.6,180.8,3113.2,175.5z"/>
	<path fill="#BEDD9C" d="M3125.6,168.8c-3.6-1.1-6.5-3.2-8.7-5.9l-3.8,12.6C3114.7,170.2,3120.3,167.2,3125.6,168.8z"/>
	<path fill="#BEDD9C" d="M3108.7,190.5c-16.8-7.4-25.9-26.3-20.5-44.3l6.1-20.6c1.6-5.3-1.4-10.9-6.7-12.5
		c-5.3-1.6-10.9,1.4-12.5,6.7l-6.1,20.6c-8.5,28.6,6.6,58.7,33.9,69.4l2.8-9.4L3108.7,190.5z"/>
	<path fill="#BEDD9C" d="M3118.2,193.6l-5.2-1.6c-1.5-0.4-2.9-1-4.3-1.6l-3,9.9C3107.3,195.1,3112.9,192.1,3118.2,193.6z"/>
	<path fill="#BEDD9C" d="M3112.5,212.8c-5.3-1.6-8.3-7.2-6.7-12.5l-2.8,9.4c1.4,0.5,2.9,1.1,4.3,1.5L3112.5,212.8z"/>
	<path fill="#BEDD9C" d="M3100.6,217.6l-3.1-0.9c-29.2-8.7-45.9-39.6-37.1-68.8l8.9-29.8c1.6-5.3-1.4-10.9-6.7-12.5
		c-5.3-1.6-10.9,1.4-12.5,6.7l-8.9,29.8c-11.9,39.8,10.8,81.8,50.6,93.7l3.1,0.9l2.9-9.6L3100.6,217.6z"/>
	<path fill="#BEDD9C" d="M3097.7,227.2l-2.9,9.6l9.6,2.9C3099.1,238.1,3096.1,232.5,3097.7,227.2z"/>
	<path fill="#BEDD9C" d="M3110.2,220.5l-9.6-2.9l-2.9,9.6C3099.3,221.9,3104.9,218.9,3110.2,220.5z"/>
	<path fill="#BEDD9C" d="M3129.9,189.6c16.4,0.3,31.8-10.3,36.7-26.8l4.3-14.3c1.6-5.3-1.4-10.9-6.7-12.5
		c-5.3-1.6-10.9,1.4-12.5,6.7l-4.3,14.3c-1.7,5.7-6,9.9-11.3,11.6l-3.8,12.6L3129.9,189.6z"/>
	<path fill="#BEDD9C" d="M3119.9,188c3.3,1,6.7,1.5,10,1.6l2.5-8.3C3130.8,186.6,3125.2,189.6,3119.9,188z"/>
	<path fill="#BEDD9C" d="M3132.3,181.3l3.8-12.6c-3.3,1.1-6.9,1.2-10.5,0.2C3130.9,170.4,3133.9,176,3132.3,181.3z"/>
	<circle fill="#BEDD9C" cx="3122.7" cy="178.4" r="10"/>
	<path fill="#BEDD9C" d="M3122.1,215.5c28.7,6.1,57.9-10.8,66.4-39.4l6.1-20.6c1.6-5.3-1.4-10.9-6.7-12.5
		c-5.3-1.6-10.9,1.4-12.5,6.7l-6.1,20.6c-5.4,18-23.4,28.9-41.4,25.8l-3,9.9L3122.1,215.5z"/>
	<path fill="#BEDD9C" d="M3112.5,212.8l5.2,1.6c1.5,0.4,3,0.8,4.5,1.1l2.8-9.4C3123.3,211.4,3117.8,214.4,3112.5,212.8z"/>
	<path fill="#BEDD9C" d="M3118.2,193.6c5.3,1.6,8.3,7.2,6.7,12.5l3-9.9c-1.5-0.3-3-0.6-4.5-1L3118.2,193.6z"/>
	<circle fill="#BEDD9C" cx="3115.3" cy="203.2" r="10"/>
	<path fill="#BEDD9C" d="M3213,150.6c-5.3-1.6-10.9,1.4-12.5,6.7l-8.9,29.8c-8.7,29.2-39.6,45.9-68.8,37.1l-3.1-0.9l-2.9,9.6
		l-2.9,9.6l3.1,0.9c39.8,11.9,81.8-10.8,93.7-50.6l8.9-29.8C3221.3,157.8,3218.3,152.2,3213,150.6z"/>
	<path fill="#BEDD9C" d="M3116.9,233l2.9-9.6l-9.6-2.9C3115.5,222.1,3118.5,227.7,3116.9,233z"/>
	<path fill="#BEDD9C" d="M3104.4,239.7l9.6,2.9l2.9-9.6C3115.3,238.3,3109.7,241.3,3104.4,239.7z"/>
	<circle fill="#BEDD9C" cx="3107.3" cy="230.1" r="10"/>
</g>
<g>
	<path fill="#89B79C" d="M2918.5,236.4l17.9,88.9c1.1,5.5,6.5,9.1,12,8c5.5-1.1,9.1-6.5,8-12l-17.9-88.9l-10,2L2918.5,236.4z"/>
	<path fill="#89B79C" d="M2918.9,186.3l5.4-1.1c1.6-0.3,3.1-0.7,4.5-1.2l-1.4-6.9c-3,1.5-6.3,2.7-9.7,3.4c-3.5,0.7-6.9,0.9-10.3,0.6
		l1.4,6.9c1.5-0.1,3.1-0.3,4.6-0.6L2918.9,186.3z"/>
	<path fill="#89B79C" d="M2934.5,212.4l-1.7-8.2c-1.5,0.4-3,0.8-4.5,1.1l-5.4,1.1l-5.4,1.1c-1.5,0.3-3.1,0.5-4.6,0.7l1.7,8.2l10-2
		L2934.5,212.4z"/>
	<path fill="#89B79C" d="M2923,155.2l-6.4-31.7c-1.1-5.5-6.5-9.1-12-8c-5.5,1.1-9.1,6.5-8,12l6.4,31.7c3.2,1.4,6.9,1.9,10.7,1.1
		S2920.6,157.8,2923,155.2z"/>
	<path fill="#89B79C" d="M2903,159.3c-5.2-2.3-9.2-6.9-10.4-12.8l-3-15c-1.1-5.5-6.5-9.1-12-8c-5.5,1.1-9.1,6.5-8,12l3,15
		c3.5,17.2,18.1,29.4,34.8,30.6l-1.7-8.6L2903,159.3z"/>
	<path fill="#68AF9C" d="M2905.6,172.4l1.7,8.6c3.4,0.2,6.8,0.1,10.3-0.6C2912.1,181.6,2906.7,178,2905.6,172.4z"/>
	<path fill="#68AF9C" d="M2913.6,160.4c-3.7,0.7-7.4,0.3-10.7-1.1l2.7,13.2C2904.5,166.9,2908.1,161.5,2913.6,160.4z"/>
	<path fill="#89B79C" d="M2908.8,188c-18.6,1.4-35.9-11.3-39.7-30.1l-4.3-21.5c-1.1-5.5-6.5-9.1-12-8c-5.5,1.1-9.1,6.5-8,12
		l4.3,21.5c6,29.9,34,49.7,63.8,46.2l-2-9.8L2908.8,188z"/>
	<path fill="#68AF9C" d="M2918.9,186.3l-5.4,1.1c-1.6,0.3-3.1,0.5-4.6,0.6l2.1,10.3C2909.7,192.8,2913.3,187.4,2918.9,186.3z"/>
	<path fill="#68AF9C" d="M2922.9,206.4c-5.5,1.1-10.9-2.5-12-8l2,9.8c1.5-0.2,3.1-0.4,4.6-0.7L2922.9,206.4z"/>
	<path fill="#89B79C" d="M2914.5,216.4l-3.2,0.6c-30.5,6.1-60.3-13.7-66.4-44.2l-6.3-31.1c-1.1-5.5-6.5-9.1-12-8
		c-5.5,1.1-9.1,6.5-8,12l6.3,31.1c8.4,41.5,48.9,68.5,90.5,60.2l3.2-0.6l-2-10L2914.5,216.4z"/>
	<path fill="#68AF9C" d="M2916.5,226.4l2,10l10-2C2923,235.5,2917.6,231.9,2916.5,226.4z"/>
	<path fill="#68AF9C" d="M2924.5,214.4l-10,2l2,10C2915.4,220.9,2919,215.5,2924.5,214.4z"/>
	<path fill="#89B79C" d="M2927.4,177.1c15-7.6,23.7-24.5,20.2-41.7l-3-15c-1.1-5.5-6.5-9.1-12-8c-5.5,1.1-9.1,6.5-8,12l3,15
		c1.2,5.9-0.7,11.8-4.6,15.8l2.7,13.2L2927.4,177.1z"/>
	<path fill="#68AF9C" d="M2917.7,180.4c3.5-0.7,6.7-1.9,9.7-3.4l-1.7-8.6C2926.8,173.9,2923.2,179.3,2917.7,180.4z"/>
	<path fill="#68AF9C" d="M2925.7,168.4l-2.7-13.2c-2.4,2.6-5.7,4.4-9.4,5.2C2919.2,159.3,2924.6,162.9,2925.7,168.4z"/>
	<circle fill="#9DBC9B" cx="2915.7" cy="170.4" r="10.2"/>
	<path fill="#89B79C" d="M2932.9,204.1c28.8-8.2,46.9-37.4,40.9-67.3l-4.3-21.5c-1.1-5.5-6.5-9.1-12-8s-9.1,6.5-8,12l4.3,21.5
		c3.8,18.8-7.2,37.2-25,43.1l2.1,10.3L2932.9,204.1z"/>
	<path fill="#68AF9C" d="M2922.9,206.4l5.4-1.1c1.5-0.3,3.1-0.7,4.5-1.1l-2-9.8C2932,199.9,2928.4,205.2,2922.9,206.4z"/>
	<path fill="#68AF9C" d="M2918.9,186.3c5.5-1.1,10.9,2.5,12,8l-2.1-10.3c-1.5,0.5-3,0.9-4.5,1.2L2918.9,186.3z"/>
	<circle fill="#9DBC9B" cx="2920.9" cy="196.3" r="10.2"/>
	<path fill="#89B79C" d="M2983.6,102.1c-5.5,1.1-9.1,6.5-8,12l6.3,31.1c6.1,30.5-13.7,60.3-44.2,66.4l-3.2,0.6l2,10l2,10l3.2-0.6
		c41.5-8.4,68.5-48.9,60.2-90.5l-6.3-31.1C2994.5,104.6,2989.2,101,2983.6,102.1z"/>
	<path fill="#68AF9C" d="M2936.5,222.4l-2-10l-10,2C2930,213.3,2935.4,216.8,2936.5,222.4z"/>
	<path fill="#68AF9C" d="M2928.5,234.4l10-2l-2-10C2937.6,227.9,2934.1,233.3,2928.5,234.4z"/>
	<circle fill="#9DBC9B" cx="2926.5" cy="224.4" r="10.2"/>
</g>
<g>
	<path fill="none" stroke="#3A867D" stroke-miterlimit="10" d="M1951.5,154"/>
	
		<ellipse transform="matrix(0.9828 0.1844 -0.1844 0.9828 65.8995 -362.8541)" fill="#FFD25C" cx="1983.7" cy="172.9" rx="60.7" ry="52.7"/>
	<path fill="#F0596F" d="M2061.9,159.3c-0.3-6.8-6.1-12.1-12.8-11.8c-6.8,0.3-12.1,6-11.8,12.8c0.6,13.1-2.6,22.9-9.7,30
		c-1.7,1.7-3.6,3.2-5.6,4.5c5.2-11.3,8.5-25.9,6.9-44.4c-0.6-6.8-6.5-11.8-13.3-11.2c-6.8,0.6-11.8,6.5-11.2,13.3
		c1.4,16-2.2,27.7-6.9,36l-3.8-38.6c-0.7-6.8-6.7-11.7-13.5-11.1c-6.8,0.7-11.7,6.7-11.1,13.5l4.4,44.6
		c-18.2-14.9-11.5-36.1-10.6-38.8c2.3-6.4-0.9-13.4-7.3-15.8c-6.4-2.4-13.5,0.9-15.8,7.2c-3.6,9.6-5.6,25.1-0.5,40.4
		c-2.9-2.1-5.1-4.3-6.6-6.3c-5.5-7.4-4.1-14.4-4.1-14.5c1.7-6.6-2.2-13.3-8.8-15c-6.5-1.7-13.3,2.2-15,8.8c-0.5,1.8-4.2,18,7.6,34.5
		c10,13.9,27.6,23.3,52.5,27.9c4.2,0.8,8.7,1.4,13.3,1.9c0,0,0.1,0,0.1,0c0.7,0.1,1.5,0.2,2.2,0.2c2.1,0.2,4.1,0.5,6.3,0.6
		c0,0,0.1,0,0.1,0c0.1,0,0.2,0,0.3,0c1.5,0.1,35.8,1.2,57.6-20.6C2057,195.7,2062.7,179.4,2061.9,159.3z"/>
	<path fill="#F0596F" d="M1957.7,350.8c-0.1-1.2-2.8-29.8,12-73.5c12-35.6,2.6-54.4,2.5-54.6l21.6-11.8c1.5,2.8,14.6,28.7-0.8,74.3
		c-13.1,38.8-10.9,62.9-10.8,63.2L1957.7,350.8z"/>
</g>
<g>
	<path fill="none" stroke="#3A867D" stroke-miterlimit="10" d="M1798.5,123"/>
	
		<ellipse transform="matrix(0.9924 0.123 -0.123 0.9924 31.0956 -224.1672)" fill="#FFD25C" cx="1831.8" cy="139.9" rx="60.7" ry="52.7"/>
	<path fill="#F0596F" d="M1909,121.5c-0.7-6.8-6.8-11.7-13.5-11c-6.8,0.7-11.7,6.8-11,13.5c1.4,13-1.2,23-7.8,30.6
		c-1.6,1.8-3.4,3.4-5.3,4.9c4.5-11.6,6.9-26.4,4.1-44.8c-1-6.7-7.3-11.4-14-10.4c-6.7,1-11.4,7.3-10.4,14
		c2.4,15.9-0.5,27.8-4.6,36.3l-6.2-38.3c-1.1-6.7-7.4-11.3-14.1-10.2c-6.7,1.1-11.3,7.4-10.2,14.1l7.1,44.2
		c-19.1-13.7-13.8-35.3-12.9-38.1c1.9-6.5-1.7-13.3-8.2-15.3c-6.6-2-13.4,1.7-15.4,8.2c-3,9.8-4,25.4,2.1,40.3c-3-1.9-5.4-3.9-7-5.8
		c-6-7-5-14.1-5-14.2c1.3-6.7-3.1-13.1-9.7-14.4c-6.6-1.3-13.1,3.1-14.4,9.7c-0.4,1.8-3.1,18.3,9.8,34c10.8,13.3,29,21.5,54.1,24.6
		c4.2,0.5,8.7,0.9,13.4,1.1c0,0,0.1,0,0.1,0c0.8,0.1,1.5,0.1,2.2,0.1c2.1,0.1,4.1,0.2,6.3,0.2c0,0,0.1,0,0.1,0c0.1,0,0.2,0,0.3,0
		c1.5,0,35.9-1,56.2-24.1C1906.4,158.2,1911.1,141.5,1909,121.5z"/>
	<path fill="#F0596F" d="M1816.9,319.1c-0.2-1.2-4.6-29.5,7.4-74.1c9.8-36.3-0.8-54.4-0.9-54.6l20.8-13.2
		c1.7,2.7,16.4,27.8,3.8,74.2c-10.7,39.5-6.9,63.5-6.9,63.7L1816.9,319.1z"/>
</g>
<path fill="#87BAB4" d="M1279.3,243.7c-25.2-42.9-71.2-46-99.2-6.6l0,0c-28,39.4-74,36.3-99.2-6.6l-2.1-3.6
	c-24.2-41.2-70.1-36-89.3,10.2l-18.3,44.2c-13.2,31.8-44.9,35.4-61.5,7l-51.9-88.4c-24.8-42.2-73.4-17.6-73.4,37.2v0
	c0,54.7-48.7,79.4-73.4,37.2l-27.8-47.4c-24.2-41.2-70.1-36-89.3,10.2l-56.1,135.4h190.5h40.3h164.8h25.7H1124h40.3h190.5
	L1279.3,243.7z"/>
<g>
	<g>
		<path fill="#87BAB4" d="M3990.4,271L3990.4,271c-8,0-15,3.9-19.5,9.8v-19c0-13.4-10.9-24.3-24.3-24.3l0,0
			c-5.9,0-11.4,2.2-15.7,5.7v-18.6c0-13.4-10.9-24.3-24.3-24.3h0c-13.4,0-24.3,10.9-24.3,24.3v14.1c-2.4-0.8-5-1.3-7.7-1.3
			c-13.4,0-24.3,10.9-24.3,24.3v9.9c-1.9-0.5-3.8-0.7-5.8-0.7c-13.4,0-24.3,10.9-24.3,24.3v0.4v50.7v24.3h86.5h0h40l0,0h43.8l0,0
			h24.3v-24.3v-50.7v-0.4C4014.7,282,4003.8,271,3990.4,271z"/>
	</g>
	<g>
		<path fill="#87BAB4" d="M3957.5,259.9c0.1,0.5-2.4,8.9-3.9,17.4c-0.4,2.1-0.7,4.3-1,6.3c-0.1,0.8-0.2,1.6-0.3,2.4l0,0.2
			c0,0,0,0,0,0l-0.9,0l-1.1,0l-0.1,0l-0.1,0c4.6,0,1.3,0,2.3,0v0l0,0l0,0l0-0.1l0,0c-0.1,0.1-0.1,0.1-0.1,0.1
			c-2.6,0.8-5.6,1.4-8.6,1.4c0.1-0.3,0.2-0.6,0.4-0.9c0.1-0.1,0.2-0.3,0.3-0.4c0.1-0.1,0.2-0.1,0.3-0.3c0.2-0.3,0.4-0.6,0.7-1.1
			l0.8-2c1.1-2.7,2.2-5.3,3.4-7.9C3951.9,269.6,3954.6,264.7,3957.5,259.9z"/>
		<path fill="#87BAB4" d="M3945.7,261c0.1,0.4-1.9,7.7-3.1,15c-0.3,1.8-0.6,3.7-0.8,5.4c-0.2,1.7-0.5,3.5-0.5,4.2c0,0.4,0,0.6,0,0.9
			c0,0.3,0,0.5,0,0.7c0.1,0.4,0.1,0.6,0.1,0.6c-2.4,0-4.8-0.3-7.2-0.9c0.1-0.5,0.3-0.9,0.4-1.4l0.6-1.5l1.3-3.4
			c0.9-2.3,1.8-4.6,2.8-6.8C3941.2,269.5,3943.4,265.2,3945.7,261z"/>
		<path fill="#87BAB4" d="M3934.6,262.1c0.1,0.3-1.5,6.6-2.5,12.9c-0.5,3.1-1,6.3-1.2,8.6c-0.1,1.1-0.2,2-0.2,2.7c0,0.6,0,1,0,1
			c-1.9-0.5-3.8-1.3-5.6-2.2c0.3-1.1,0.6-2.2,1-3.1l1.1-2.9c0.7-1.9,1.5-3.9,2.3-5.8C3931.1,269.4,3932.8,265.7,3934.6,262.1z"/>
		<path fill="#87BAB4" d="M3925.3,262.6c0,0.3-1.1,5.6-2,10.8c-0.9,5.3-1.5,10.5-1.5,10.7c-1.4-0.8-2.9-1.7-4.3-2.4
			C3919.7,275.1,3922.3,268.7,3925.3,262.6z"/>
		<path fill="#87BAB4" d="M3916.9,262.9c0,0.2-0.9,4.7-1.6,9.1c-0.7,4.4-1.3,8.8-1.3,8.8l-3.4-1.9
			C3912.5,273.5,3914.6,268.1,3916.9,262.9z"/>
		<path fill="#87BAB4" d="M3910.5,263c0,0.2-0.7,3.9-1.3,7.5c-0.6,3.6-1.1,7.3-1.1,7.3l-2.7-1.6
			C3906.9,271.7,3908.6,267.3,3910.5,263z"/>
	</g>
	<g>
		<path fill="#87BAB4" d="M3881.5,275.6c0.2,0.2,0.8,4.4,2.2,8.3c0.2,0.5,0.4,1,0.6,1.5c0.3,0.8,0.6,1.5,1,2.3
			c0.4,1,0.9,2.2,1.4,3.6c0.2,0.6,0.5,1.5,0.7,2.2c0.2,0.7,0.4,1.3,0.5,1.9c0.6,2.4,0.8,4.5,0.9,6c0,0.7,0.1,1.3,0.1,1.7
			c0,0.4,0,0.6,0,0.6c-3-1.2-6-2.2-9-2.8c0.2-1.8,0.1-3.5-0.1-5.4c-0.3-2-0.6-3.6-0.7-5c-0.2-1.4-0.2-2.3-0.2-3.1
			c0.1-0.8,0.1-1.7,0.2-2.5C3879.6,281.4,3880.4,278.3,3881.5,275.6z"/>
		<path fill="#87BAB4" d="M3870.9,279.7c0.2,0.2,1,4.5,2.6,8.5c0.4,1.1,0.7,1.9,1.3,3.2c0.5,1.3,1.2,2.8,1.7,4.4
			c0.5,1.6,0.8,2.8,0.9,3.7c0.2,0.9,0.2,1.4,0.2,1.4c-2.4-0.5-4.9-0.8-7.3-0.9c0.1-1.1,0-2.2-0.1-3.3l-0.3-3
			c-0.1-0.9-0.1-1.8-0.1-2.5c0-0.8,0-1.6,0-2.4C3869.9,285.6,3870.3,282.6,3870.9,279.7z"/>
		<path fill="#87BAB4" d="M3861.2,284.3c0.2,0.2,1.1,4.3,2.7,8.2c0.7,1.9,1.7,3.9,2.3,5.5c0.3,0.8,0.5,1.6,0.7,2
			c0.1,0.5,0.2,0.8,0.2,0.8c-1.9,0-3.9,0.1-5.8,0.3c0.2-2.4-0.3-5.5-0.4-8.4C3860.8,289.9,3860.9,287.1,3861.2,284.3z"/>
		<path fill="#87BAB4" d="M3852.9,288.3c0.2,0.2,1.2,3.9,2.6,7.5c0.3,0.9,0.7,1.8,1.1,2.6c0.3,0.7,0.6,1.4,0.8,2
			c0.4,1.1,0.6,1.6,0.6,1.6c-1.5,0.3-3,0.6-4.5,0.9c0.1-0.8,0-1.9-0.1-3.1c-0.1-1.3-0.3-2.6-0.4-3.9
			C3852.8,293.4,3852.8,290.8,3852.9,288.3z"/>
		<path fill="#87BAB4" d="M3845.6,292c0.1,0.1,1.1,3.5,2.4,6.7c0.6,1.6,1.4,3.3,1.7,4.1c0.4,0.9,0.5,1.2,0.5,1.2l-3.5,0.9
			c0.1-1.3-0.5-4-0.7-6.2C3845.7,296.5,3845.6,294.3,3845.6,292z"/>
		<path fill="#87BAB4" d="M3839.9,294.9c0.1,0.1,1,3,2.1,5.8c0.5,1.4,1.1,2.8,1.5,3.7c0.3,0.8,0.5,1.3,0.5,1.3
			c-0.9,0.2-1.9,0.4-2.9,0.6c0-0.2,0-0.4-0.1-0.6c0-0.2,0-0.4-0.1-0.6l-0.2-1.5c-0.1-1-0.3-1.9-0.4-2.9
			C3840.1,298.8,3839.9,296.9,3839.9,294.9z"/>
	</g>
	<g>
		<path fill="#87BAB4" d="M3882,317.5c0.3,0.3,1.9,6.8,3,13.3c1.1,6.5,1.6,13,1.6,13c-3-0.4-6-0.7-9-1
			C3879.7,334.6,3881.2,326.2,3882,317.5z"/>
		<path fill="#87BAB4" d="M3872,323.1c0.2,0.2,1.4,5.1,2.1,10c0.8,4.9,1.3,9.8,1.3,9.8c-2.4-0.2-4.8-0.5-7.2-0.6
			C3869.8,336.1,3871.1,329.7,3872,323.1z"/>
		<path fill="#87BAB4" d="M3862.3,327.8c0.2,0.1,1,3.9,1.6,7.6c0.6,3.7,1,7.4,1,7.4l-5.7-0.4
			C3860.4,337.6,3861.5,332.8,3862.3,327.8z"/>
		<path fill="#87BAB4" d="M3853.8,331.2c0.1,0.1,0.7,2.9,1.2,5.8c0.5,2.8,0.8,5.6,0.8,5.6l-4.6-0.2
			C3852.2,338.7,3853,335,3853.8,331.2z"/>
		<path fill="#87BAB4" d="M3846.1,334c0.1,0.1,0.5,2.2,0.9,4.4c0.3,2.1,0.6,4.3,0.6,4.3l-3.7-0.1
			C3844.8,339.7,3845.5,336.8,3846.1,334z"/>
		<path fill="#87BAB4" d="M3840.1,335.9c0.1,0.1,0.4,1.7,0.7,3.4c0.3,1.6,0.5,3.3,0.5,3.3l-2.9-0.1
			C3838.9,340.3,3839.5,338.1,3840.1,335.9z"/>
	</g>
	<g>
		<path fill="#87BAB4" d="M3943,322.6c0.3,0.2,1.4,5.4,2,10.5c0.7,5.1,0.9,10.3,0.9,10.3c-3-0.3-5.9-0.6-8.9-0.8
			C3939.4,336.2,3941.5,329.6,3943,322.6z"/>
		<path fill="#87BAB4" d="M3932.7,327.3c0.2,0.2,1,4,1.4,7.8c0.5,3.8,0.7,7.6,0.7,7.6c-2.4-0.2-4.7-0.4-7.1-0.5
			C3929.6,337.4,3931.3,332.5,3932.7,327.3z"/>
		<path fill="#87BAB4" d="M3922.7,331.1c0.2,0.1,0.7,3,1,5.8c0.3,2.8,0.5,5.7,0.5,5.7l-5.7-0.3
			C3920.1,338.7,3921.5,335,3922.7,331.1z"/>
		<path fill="#87BAB4" d="M3914,333.9c0.1,0.1,0.5,2.2,0.7,4.3c0.3,2.1,0.4,4.2,0.4,4.2l-4.5-0.1
			C3911.9,339.6,3913,336.8,3914,333.9z"/>
		<path fill="#87BAB4" d="M3906.3,336.2c0.1,0.1,0.4,1.7,0.5,3.2c0.2,1.6,0.3,3.2,0.3,3.2l-3.6,0
			C3904.4,340.5,3905.4,338.4,3906.3,336.2z"/>
		<path fill="#87BAB4" d="M3900.1,337.8c0.1,0,0.3,1.3,0.4,2.5c0.1,1.2,0.2,2.4,0.2,2.4l-2.9,0
			C3898.6,341.1,3899.4,339.5,3900.1,337.8z"/>
	</g>
	<g>
		<path fill="#87BAB4" d="M3997.5,300c0.1,0.1,0.6,2,1.1,4.7c0.4,2.7,0.8,6.2,0.8,9.8c0,3.5-0.3,7-0.7,9.6c-0.4,2.6-0.8,4.3-0.8,4.3
			c-2.7-1.3-5.5-2.5-8.3-3.6C3993.8,317.7,3996.6,309.3,3997.5,300z"/>
		<path fill="#87BAB4" d="M3987.3,305.3c0.2,0.2,1.1,5,1,9.7c0,2.4-0.2,4.7-0.4,6.5c-0.2,1.8-0.4,2.9-0.4,2.9
			c-2.2-0.9-4.5-1.6-6.8-2.4C3983.7,317.2,3986,311.5,3987.3,305.3z"/>
		<path fill="#87BAB4" d="M3977.3,309.1c0.2,0.1,0.6,3.3,0.5,6.4c0,1.6-0.1,3.1-0.3,4.3c-0.1,1.1-0.3,1.9-0.3,1.9
			c-1.8-0.6-3.6-1.1-5.5-1.5C3974,316.9,3975.9,313.2,3977.3,309.1z"/>
		<path fill="#87BAB4" d="M3968.5,311.4c0.1,0.1,0.3,2.1,0.3,4.2c0,2-0.3,4-0.3,4c-1.5-0.4-2.9-0.7-4.4-1
			C3965.7,316.5,3967.2,314.1,3968.5,311.4z"/>
		<path fill="#87BAB4" d="M3960.5,313c0.1,0.1,0.2,1.4,0.1,2.7c0,1.3-0.2,2.5-0.2,2.5c-1.2-0.2-2.4-0.4-3.6-0.6
			C3958.2,316.2,3959.4,314.7,3960.5,313z"/>
		<path fill="#87BAB4" d="M3954.3,314c0.1,0,0.1,0.9,0.1,1.7c0,0.8-0.1,1.6-0.1,1.6l-2.9-0.4C3952.4,316.1,3953.4,315.1,3954.3,314z
			"/>
	</g>
</g>
<g>
	<circle fill="#A7C4C4" cx="1202.1" cy="263.7" r="9.3"/>
	<circle fill="#A7C4C4" cx="1236.2" cy="257.6" r="9.3"/>
	<circle fill="#A7C4C4" cx="1230.1" cy="285.1" r="12.6"/>
</g>
<circle fill="#A7C4C4" cx="658.6" cy="288.3" r="9.3"/>
<circle fill="#A7C4C4" cx="688.3" cy="270.3" r="9.3"/>
<circle fill="#A7C4C4" cx="692.5" cy="298.2" r="12.6"/>
<g>
</g>
<g>
</g>
<g>
</g>
<g>
</g>
<g>
</g>
<g>
</g>
<g>
</g>
<g>
</g>
<g>
</g>
<g>
</g>
<g>
</g>
<g>
</g>
<g>
</g>
<g>
</g>
<g>
</g>
</svg>
