<svg xmlns="http://www.w3.org/2000/svg" viewBox="0 0 200 200"><title>bond</title><rect x="54.79" y="90" width="90.42" height="67.45" transform="translate(-0.13 0.1) rotate(-0.06)" style="fill:#b1b1b2"/><path d="M108.57,157.45l0-37a4.79,4.79,0,0,0-5-4.54H97.67a4.79,4.79,0,0,0-5,4.56l0,37Z" style="fill:#747374"/><rect x="68.99" y="87.26" width="15.41" height="70.22" transform="translate(-0.13 0.08) rotate(-0.06)" style="fill:#dcdcdd"/><polygon points="118.28 94.4 68.96 94.45 68.96 92.08 117.1 92.03 118.28 94.4" style="fill:#a6a8aa"/><rect x="117.13" y="87.21" width="15.41" height="70.22" transform="translate(-0.13 0.13) rotate(-0.06)" style="fill:#dcdcdd"/><rect x="117.1" y="92.01" width="26.94" height="2.37" transform="translate(-0.1 0.14) rotate(-0.06)" style="fill:#a6a8aa"/><rect x="142.9" y="87.18" width="15.41" height="70.22" transform="translate(-0.13 0.16) rotate(-0.06)" style="fill:#dcdcdd"/><rect x="142.86" y="91.99" width="15.41" height="2.37" transform="translate(-0.1 0.16) rotate(-0.06)" style="fill:#a6a8aa"/><rect x="44.33" y="87.28" width="15.41" height="70.22" transform="matrix(1, 0, 0, 1, -0.13, 0.05)" style="fill:#dcdcdd"/><rect x="44.3" y="92.09" width="24.66" height="2.37" transform="translate(-0.1 0.06) rotate(-0.06)" style="fill:#a6a8aa"/><path d="M38.49,89.71A2.63,2.63,0,0,1,36,88.05a2.29,2.29,0,0,1,.94-2.69l62.38-42a2.85,2.85,0,0,1,3.14,0l61.8,41.84a2.29,2.29,0,0,1,.93,2.69,2.63,2.63,0,0,1-2.51,1.65Z" style="fill:#cfd0d2"/><path d="M100.86,45.33l61.8,41.84L38.48,87.3l62.38-42m0-4.82a5.63,5.63,0,0,0-3.13.94l-62.38,42a4.58,4.58,0,0,0-1.88,5.38,5.26,5.26,0,0,0,5,3.31L162.66,92a5.26,5.26,0,0,0,5-3.31,4.58,4.58,0,0,0-1.87-5.37L104,41.46a5.62,5.62,0,0,0-3.16-1Z" style="fill:#eaebec"/><polygon points="100.79 51.95 53.05 84.07 148.09 83.97 100.79 51.95" style="fill:#a4a4a5"/><polygon points="101.17 45.33 103.23 46.73 43.41 87.29 38.79 87.3 101.17 45.33" style="fill:#adafb0"/></svg>