<svg xmlns="http://www.w3.org/2000/svg" xmlns:xlink="http://www.w3.org/1999/xlink" viewBox="0 0 11863.6 358.3"><defs><pattern id="a" width="379" height="379" patternTransform="matrix(1, 0, 0, -1, 4046.8, 796)" patternUnits="userSpaceOnUse" viewBox="0 0 379 379"><rect width="379" height="379" style="fill:none"/><polygon points="0 379 379 379 379 0 0 0 0 379" style="fill:none"/><polygon points="379 0 0 0 0 379 379 379 379 0" style="fill:#5e9bc3"/><path d="M152,333.5c7.7,0,7.7,11.9,0,11.9s-7.7-11.9,0-11.9Z" style="fill:#498eb5"/><path d="M213.2,332c7.7,0,7.7,11.9,0,11.9s-7.7-11.9,0-11.9Z" style="fill:#498eb5"/><path d="M238.5,272.3c7.7,0,7.7,11.9,0,11.9s-7.6-11.9,0-11.9Z" style="fill:#498eb5"/><path d="M178.8,209.9c7.7,0,7.7,11.9,0,11.9s-7.6-11.9,0-11.9Z" style="fill:#498eb5"/><path d="M50.4,157.6c7.7,0,7.7,11.9,0,11.9s-7.6-11.9,0-11.9Z" style="fill:#498eb5"/><path d="M37,269.3c7.7,0,7.7,11.9,0,11.9s-7.7-11.9,0-11.9Z" style="fill:#498eb5"/><path d="M348,278.7c7.7,0,7.7,11.9,0,11.9s-7.6-11.9,0-11.9Z" style="fill:#498eb5"/><path d="M346,218.8c7.7,0,7.7,11.9,0,11.9s-7.6-11.9,0-11.9Z" style="fill:#498eb5"/><path d="M206.7,149.7c7.7,0,7.7,11.9,0,11.9s-7.7-11.9,0-11.9Z" style="fill:#498eb5"/><path d="M50.4,44.8c7.7,0,7.7,11.9,0,11.9s-7.6-11.9,0-11.9Z" style="fill:#498eb5"/><path d="M206.7,36.8c7.7,0,7.7,11.9,0,11.9s-7.7-11.9,0-11.9Z" style="fill:#498eb5"/><path d="M151,101.9c7.7,0,7.7,11.9,0,11.9s-7.7-11.9,0-11.9Z" style="fill:#498eb5"/><path d="M31,327.2c18.9,1,37.8,1.9,56.7,2.9,7.6.4,7.7,12.3,0,11.9-18.9-1-37.8-1.9-56.7-2.9-7.6-.4-7.6-12.3,0-11.9Z" style="fill:#498eb5"/><path d="M87.8,270.7l88.1,1.5c7.7.1,7.7,12,0,11.9l-88.1-1.5c-7.7-.1-7.7-12,0-11.9Z" style="fill:#498eb5"/><path d="M37.1,211.8a431,431,0,0,1,97-.5c7.5.8,7.6,12.7,0,11.9a425.2,425.2,0,0,0-97,.5c-7.6.9-7.6-11,0-11.9Z" style="fill:#498eb5"/><path d="M238.5,219.2l68.7,1.5c7.7.2,7.7,12.1,0,11.9l-68.7-1.5c-7.6-.1-7.6-12,0-11.9Z" style="fill:#498eb5"/><path d="M255.7,326.2c28.6-.9,57.3-.5,85.9,1.1,7.6.4,7.7,12.3,0,11.9q-42.9-2.4-85.9-1.1c-7.6.2-7.6-11.7,0-11.9Z" style="fill:#498eb5"/><path d="M263.8,155.5a385.52,385.52,0,0,0,68.8,1.9c7.7-.5,7.6,11.4,0,11.9a386,386,0,0,1-68.8-1.9c-7.5-.9-7.6-12.8,0-11.9Z" style="fill:#498eb5"/><path d="M279.3,273a125,125,0,0,0,22.9.7c7.7-.5,7.6,11.4,0,11.9a125,125,0,0,1-22.9-.7c-3.2-.4-5.9-2.5-6-6,0-2.9,2.8-6.3,6-5.9Z" style="fill:#498eb5"/><path d="M92.2,152.4l69.7-1.5c7.7-.2,7.7,11.7,0,11.9l-69.7,1.5c-7.6.2-7.6-11.7,0-11.9Z" style="fill:#498eb5"/><path d="M263.8,42.6a385.52,385.52,0,0,0,68.8,1.9c7.7-.5,7.6,11.4,0,11.9a386,386,0,0,1-68.8-1.9c-7.5-.9-7.6-12.8,0-11.9Z" style="fill:#498eb5"/><path d="M92.2,39.6l69.7-1.5c7.7-.2,7.7,11.7,0,11.9L92.2,51.5c-7.6.1-7.6-11.8,0-11.9Z" style="fill:#498eb5"/><path d="M42.5,103.2a536.12,536.12,0,0,1,71.7.2c7.6.5,7.7,12.4,0,11.9a519.91,519.91,0,0,0-71.7-.2c-7.7.5-7.6-11.5,0-11.9Z" style="fill:#498eb5"/><path d="M204.7,97.3a397.65,397.65,0,0,0,77.1-4.1c7.5-1.2,10.7,10.3,3.2,11.5a406.58,406.58,0,0,1-80.2,4.5c-7.7-.4-7.8-12.3-.1-11.9Z" style="fill:#498eb5"/><path d="M328.1,96.9c7.7,0,7.7,11.9,0,11.9s-7.6-11.9,0-11.9Z" style="fill:#498eb5"/></pattern><pattern id="b" width="379" height="379" patternTransform="matrix(1, 0, 0, -1, 4046.8, 796)" patternUnits="userSpaceOnUse" viewBox="0 0 379 379"><rect width="379" height="379" style="fill:none"/><polygon points="0 0 379 0 379 379 0 379 0 0" style="fill:none"/><polygon points="379 0 0 0 0 379 379 379 379 0" style="fill:#fcceb8"/><path d="M31,327.2c18.9,1,37.8,1.9,56.7,2.9,7.6.4,7.7,12.3,0,11.9-18.9-1-37.8-1.9-56.7-2.9-7.6-.4-7.6-12.3,0-11.9Z" style="fill:#f9b5ac"/><path d="M87.8,270.7l88.1,1.5c7.7.1,7.7,12,0,11.9l-88.1-1.5c-7.7-.1-7.7-12,0-11.9Z" style="fill:#f9b5ac"/><path d="M37.1,211.8a431,431,0,0,1,97-.5c7.5.8,7.6,12.7,0,11.9a425.2,425.2,0,0,0-97,.5c-7.6.9-7.6-11,0-11.9Z" style="fill:#f9b5ac"/><path d="M238.5,219.2l68.7,1.5c7.7.2,7.7,12.1,0,11.9l-68.7-1.5c-7.6-.1-7.6-12,0-11.9Z" style="fill:#f9b5ac"/><path d="M255.7,326.2c28.6-.9,57.3-.5,85.9,1.1,7.6.4,7.7,12.3,0,11.9q-42.9-2.4-85.9-1.1c-7.6.2-7.6-11.7,0-11.9Z" style="fill:#f9b5ac"/><path d="M263.8,155.5a385.52,385.52,0,0,0,68.8,1.9c7.7-.5,7.6,11.4,0,11.9a386,386,0,0,1-68.8-1.9c-7.5-.9-7.6-12.8,0-11.9Z" style="fill:#f9b5ac"/><path d="M152,333.5c7.7,0,7.7,11.9,0,11.9s-7.7-11.9,0-11.9Z" style="fill:#f9b5ac"/><path d="M213.2,332c7.7,0,7.7,11.9,0,11.9s-7.7-11.9,0-11.9Z" style="fill:#f9b5ac"/><path d="M238.5,272.3c7.7,0,7.7,11.9,0,11.9s-7.6-11.9,0-11.9Z" style="fill:#f9b5ac"/><path d="M178.8,209.9c7.7,0,7.7,11.9,0,11.9s-7.6-11.9,0-11.9Z" style="fill:#f9b5ac"/><path d="M50.4,157.6c7.7,0,7.7,11.9,0,11.9s-7.6-11.9,0-11.9Z" style="fill:#f9b5ac"/><path d="M37,269.3c7.7,0,7.7,11.9,0,11.9s-7.7-11.9,0-11.9Z" style="fill:#f9b5ac"/><path d="M279.3,273a125,125,0,0,0,22.9.7c7.7-.5,7.6,11.4,0,11.9a125,125,0,0,1-22.9-.7c-3.2-.4-5.9-2.5-6-6,0-2.9,2.8-6.3,6-5.9Z" style="fill:#f9b5ac"/><path d="M348,278.7c7.7,0,7.7,11.9,0,11.9s-7.6-11.9,0-11.9Z" style="fill:#f9b5ac"/><path d="M346,218.8c7.7,0,7.7,11.9,0,11.9s-7.6-11.9,0-11.9Z" style="fill:#f9b5ac"/><path d="M92.2,152.4l69.7-1.5c7.7-.2,7.7,11.7,0,11.9l-69.7,1.5c-7.6.2-7.6-11.7,0-11.9Z" style="fill:#f9b5ac"/><path d="M206.7,149.7c7.7,0,7.7,11.9,0,11.9s-7.7-11.9,0-11.9Z" style="fill:#f9b5ac"/><path d="M263.8,42.6a385.52,385.52,0,0,0,68.8,1.9c7.7-.5,7.6,11.4,0,11.9a386,386,0,0,1-68.8-1.9c-7.5-.9-7.6-12.8,0-11.9Z" style="fill:#f9b5ac"/><path d="M50.4,44.8c7.7,0,7.7,11.9,0,11.9s-7.6-11.9,0-11.9Z" style="fill:#f9b5ac"/><path d="M92.2,39.6l69.7-1.5c7.7-.2,7.7,11.7,0,11.9L92.2,51.5c-7.6.1-7.6-11.8,0-11.9Z" style="fill:#f9b5ac"/><path d="M206.7,36.8c7.7,0,7.7,11.9,0,11.9s-7.7-11.9,0-11.9Z" style="fill:#f9b5ac"/><path d="M42.5,103.2a536.12,536.12,0,0,1,71.7.2c7.6.5,7.7,12.4,0,11.9a519.91,519.91,0,0,0-71.7-.2c-7.7.5-7.6-11.5,0-11.9Z" style="fill:#f9b5ac"/><path d="M151,101.9c7.7,0,7.7,11.9,0,11.9s-7.7-11.9,0-11.9Z" style="fill:#f9b5ac"/><path d="M204.7,97.3a397.65,397.65,0,0,0,77.1-4.1c7.5-1.2,10.7,10.3,3.2,11.5a406.58,406.58,0,0,1-80.2,4.5c-7.7-.4-7.8-12.3-.1-11.9Z" style="fill:#f9b5ac"/><path d="M328.1,96.9c7.7,0,7.7,11.9,0,11.9s-7.6-11.9,0-11.9Z" style="fill:#f9b5ac"/></pattern></defs><title>floor</title><rect x="3470.4" width="8393.2" height="358.3" style="fill:url(#a)"/><rect width="3472.5" height="358.3" style="fill:url(#b)"/></svg>