<?xml version="1.0" encoding="utf-8"?>
<!-- Generator: Adobe Illustrator 21.0.2, SVG Export Plug-In . SVG Version: 6.00 Build 0)  -->
<svg version="1.1" id="Layer_1" xmlns="http://www.w3.org/2000/svg" xmlns:xlink="http://www.w3.org/1999/xlink" x="0px" y="0px"
	 viewBox="0 0 612 506.9" style="enable-background:new 0 0 612 506.9;" xml:space="preserve">
<style type="text/css">
	.st0{fill:url(#SVGID_1_);}
	.st1{fill:#AAACAD;}
	.st2{fill:url(#SVGID_2_);}
	.st3{fill:url(#SVGID_3_);}
	.st4{fill:#E8E8E8;}
	.st5{fill:#636262;}
	.st6{fill:#FFFFFF;}
	.st7{fill:#BDBFC0;}
</style>
<linearGradient id="SVGID_1_" gradientUnits="userSpaceOnUse" x1="-4858.6357" y1="158.7505" x2="-4769.5957" y2="158.7505" gradientTransform="matrix(-2.6343 -0.3459 0.3459 -2.6343 -12598.165 -1005.6323)">
	<stop  offset="0" style="stop-color:#C9CACA"/>
	<stop  offset="1" style="stop-color:#BFC0C0"/>
</linearGradient>
<path class="st0" d="M52.7,152.4l5.3-1.3c4.3-1.1,6.9-5.6,5.9-9.8c-0.3-0.8-0.5-1.6-1.1-2.4c-2.4-3.7-1.3-8.8,2.7-11.2
	c1.3-0.8,2.9-1.3,4.5-1.3l136.8,8.2c25.5,3.2,46,23.1,49.8,48.7c33.5,54,16.8,125.1-37.3,158.3c-54,33.5-125.1,16.8-158.3-37.3
	c-24-38.8-22.9-88.1,2.9-125.8L49.5,166c-3.5-2.9-4-8-1.1-11.4C49.2,153.7,50.8,152.9,52.7,152.4z"/>
<ellipse class="st1" cx="161" cy="244" rx="82" ry="82"/>
<linearGradient id="SVGID_2_" gradientUnits="userSpaceOnUse" x1="-1674.376" y1="-262.4205" x2="-1585.2089" y2="-262.4205" gradientTransform="matrix(2.6391 -0.3401 -0.3401 -2.6391 4668.7056 -1003.2358)">
	<stop  offset="0" style="stop-color:#C9CACA"/>
	<stop  offset="1" style="stop-color:#BFC0C0"/>
</linearGradient>
<path class="st2" d="M559.3,152.4l-5.3-1.3c-4.3-1.1-6.9-5.6-5.9-9.8c0.3-0.8,0.5-1.6,1.1-2.4c2.4-3.7,1.3-8.8-2.7-11.2
	c-1.3-0.8-2.9-1.3-4.5-1.3l-136.8,8.2c-25.5,3.2-46,23.1-49.8,48.7c-33.5,54-16.8,125.1,37.3,158.3c54,33.5,125.1,16.8,158.3-37.3
	c23.9-38.8,22.9-88.1-2.9-125.9l14.4-12.5c3.5-2.9,4-8,1.1-11.4C562.8,153.7,561.2,152.9,559.3,152.4z"/>
<ellipse class="st1" cx="451" cy="244.2" rx="82" ry="82"/>
<linearGradient id="SVGID_3_" gradientUnits="userSpaceOnUse" x1="-178.6436" y1="-38.9033" x2="-58.5886" y2="-38.9033" gradientTransform="matrix(2.6609 0 0 -2.6609 624.4984 164.6252)">
	<stop  offset="0" style="stop-color:#D7D7D8"/>
	<stop  offset="1" style="stop-color:#CFD0D0"/>
</linearGradient>
<path class="st3" d="M457.7,276.9c-5.9-10.9-10.1-22.6-12.2-34.9c-14.6-76.9-88.9-127.7-165.8-113.1
	c-67.1,12.8-115.5,71.3-115.5,139.4c0,0.5,0,1.1,0,1.6c-26.6,38.3-17,91,21.3,117.6c15.4,10.6,34.3,16,53.2,14.9
	c10.9-0.5,21.8,0.5,32.2,3.2c23.1,5.9,47.6,5.9,70.8-0.3c11.4-2.9,23.1-4.3,35.1-3.2c2.4,0.3,4.8,0.3,7.2,0.3
	c46.8,0,84.6-38.1,84.6-84.6C468.6,303.8,464.9,289.4,457.7,276.9z"/>
<path class="st4" d="M315.6,304.9c14.9,0,26.9,12.2,26.6,27.1c0,2.9-0.5,5.6-1.3,8.2c-4.5,13.3-12.5,25.5-27.7,27.4
	c-19.2,2.1-30.1-10.4-36.7-25.8c-5.6-13.8,1.1-29.5,14.9-35.1c3.2-1.3,6.9-2.1,10.4-1.9L315.6,304.9z"/>
<path class="st5" d="M347,250.3c-2.7-11.2-10.1-20.8-20.8-25.5c-13.3-5.6-28.7-4.5-41,3.2c-14.9,9.6-18.9,26.1-18.1,41.5
	c1.1,18.4,12.2,65.5,43.9,60.4c19.4-2.9,30.9-16,34.9-32.5C349.1,284.4,351,266,347,250.3z"/>
<path class="st6" d="M297.2,238.3c0.8-0.3-1.9,0.8-2.4,1.3c-2.4,1.6-4.5,3.5-6.4,5.9c-7.2,8.8-7.7,20.5-6.1,31.4
	c0.8,4-5.3,5.6-6.1,1.6c-2.9-17.3,1.1-39.1,19.2-46.3C299.3,230.6,300.9,236.7,297.2,238.3z"/>
<ellipse class="st7" cx="239.2" cy="259.9" rx="16" ry="16"/>
<ellipse class="st5" cx="239.2" cy="259.9" rx="9.6" ry="9.6"/>
<ellipse class="st7" cx="375.9" cy="259.9" rx="16" ry="16"/>
<ellipse class="st5" cx="375.9" cy="259.9" rx="9.6" ry="9.6"/>
</svg>
