<?xml version="1.0" encoding="utf-8"?>
<!-- Generator: Adobe Illustrator 18.0.0, SVG Export Plug-In . SVG Version: 6.00 Build 0)  -->
<!DOCTYPE svg PUBLIC "-//W3C//DTD SVG 1.1//EN" "http://www.w3.org/Graphics/SVG/1.1/DTD/svg11.dtd">
<svg version="1.1" id="Layer_1" xmlns="http://www.w3.org/2000/svg" xmlns:xlink="http://www.w3.org/1999/xlink" x="0px" y="0px"
	 viewBox="0 0 433.7 245.7" enable-background="new 0 0 433.7 245.7" xml:space="preserve">
<g>
	<path fill="#FFFFFF" d="M346.7,203.3H86.9C39.1,203.3,0,164.2,0,116.4l0-29.5C0,39.1,39.1,0,86.9,0l259.8,0
		c47.8,0,86.9,39.1,86.9,86.9v29.5C433.7,164.2,394.6,203.3,346.7,203.3z"/>
	<g>
		<path fill="#EA8C38" d="M102,70.6c-0.1,7.9-0.6,12.6-1.6,14.1c-1,1.6-2.8,2.4-5.4,2.4c-1.1,0-2.4-0.1-4-0.2L90,83
			c1.6,0.1,3,0.2,4.1,0.3c1.6,0,2.6-0.6,3-1.5c0.4-0.9,0.6-3.4,0.7-7.4H74c-1.8,1.8-3.9,3.4-6,4.8l-2.1-3.7
			c5.8-3.8,10-9.1,12.8-15.7h-10v-3.7h5.9c-0.8-1.2-1.7-2.4-2.7-3.7l3.3-2.1c1.4,1.7,2.5,3.2,3.3,4.5l-1.9,1.3H80
			c0.6-1.9,1-3.9,1.4-6l4.1,0.5c-0.4,1.9-0.8,3.7-1.3,5.4h12.2L95,63.2h4.8l-1.3,7.5H102z M76.9,77.3c-1,3.3-2.5,6.2-4.4,8.6
			l-3.6-2.3c2-2.2,3.4-4.6,4.2-7.2L76.9,77.3z M77.2,70.6h17.2l0.8-3.8H79.7C78.9,68.2,78.1,69.4,77.2,70.6z M83.4,84.2l-4,0.5
			c-0.2-3.1-0.6-5.5-1.2-7.2l3.5-0.4C82.6,78.8,83.1,81.2,83.4,84.2z M83,59.8c-0.4,1.2-0.9,2.3-1.4,3.4h9.2l0.9-3.4H83z M89.9,82.3
			l-3.8,1.4c-0.6-2.2-1.3-4.4-2.1-6.5l3.2-0.9C88.4,78.5,89.3,80.5,89.9,82.3z M96,81l-3.8,1c-0.6-2-1.3-3.8-2.2-5.6l3.3-1.1
			C94.3,76.8,95.2,78.8,96,81z"/>
		<path fill="#EA8C38" d="M110.1,70.2l-1.4-4.4c4-4.6,7-9.9,9-16.1l3.9,1.8c-0.9,2.8-2.1,5.4-3.5,8v27.5H114V65.8
			C112.8,67.4,111.5,68.8,110.1,70.2z M135,50.1v12.6h10.9v4.2H135v20.2h-4.3V66.9h-10v-4.2h10V50.1H135z"/>
		<path fill="#EA8C38" d="M174.1,52.4h14.2v3.5h-29.2V67c-0.1,8.2-1.4,14.8-3.7,19.7l-3.2-2.8c1.8-4,2.8-9.7,2.9-16.9V52.4H170
			c-0.4-0.8-0.8-1.4-1.2-2l4.1-0.6C173.3,50.5,173.7,51.4,174.1,52.4z M163.8,63.1c-0.1,3.4-0.9,5.9-2.5,7.6l-2-1.7
			c1.3-1.3,2-3.3,2.1-5.9H163.8z M188.3,84.8l-3.3,2.3c-0.6-1-1.2-2-1.8-2.9c-5.7,1-13,1.7-22,2.3l-1.1-3.4c1.2-0.1,2.4-0.4,3.4-0.7
			c2.2-1,4.7-2.4,7.3-4.2c-2.7,0.1-5.6,0.2-8.6,0.3l-0.8-3.2c0.9-0.1,1.7-0.4,2.5-0.7c1.5-0.6,3.4-2.2,5.8-4.9l3.8,0.9
			c-1.6,1.8-3.4,3.4-5.2,4.6c2.2-0.1,4.4-0.2,6.6-0.3c1.3-1.1,2.6-2.2,4-3.4l3.7,1.8c-4.9,4.1-9.2,7.2-12.9,9.4
			c4.2-0.4,8-0.9,11.2-1.4c-0.7-0.9-1.4-1.8-2.1-2.7l3.2-2C184.8,79.6,186.9,82.4,188.3,84.8z M164.8,58.8v-2.1h3.6v2.1h4.3v3.1
			h-4.7V70h-2.9v-8.1h-4.9v-3.1H164.8z M171.9,63.1v3c0,0.4,0.2,0.6,0.5,0.6h1.4V69h-2.4c-1.4,0-2-0.9-2-2.6v-3.3H171.9z
			 M179.1,58.8v-2.1h3.6v2.1h5v3.1h-5.3V70h-2.9v-8.1h-5.3v-3.1H179.1z M177.9,63.1c0,3.2-0.6,5.6-1.7,7.3l-2-1.7
			c0.8-1.2,1.2-3.1,1.2-5.6H177.9z M186.3,63.1v3.8c0,0.4,0.3,0.7,1,0.7h1.6v2.2h-2.5c-1.7,0-2.5-0.9-2.5-2.7v-4H186.3z"/>
		<path fill="#EA8C38" d="M232.2,51.3v3.8h-11.4v2.6h9v10.8h-16.3l-1.4,2.5h20.6v3.8h-8.3c-0.8,2-2,3.7-3.7,5.2
			c3.8,1.1,7.6,2.4,11.5,3.9l-2.6,3.4c-4.2-1.8-8.4-3.4-12.6-4.7c-3.8,1.9-9.9,3.4-18.4,4.6l-1.6-3.8c6.1-0.6,10.8-1.5,14.4-2.6
			c-3-0.9-6-1.6-8.9-2.3c0.9-1.3,1.7-2.5,2.5-3.8h-9V71h11.4c0.5-0.9,1-1.7,1.5-2.5h-10V57.7h9v-2.6h-11.4v-3.8H232.2z M207.9,61.2
			h-5V65h5V61.2z M220.1,74.9h-10.3c-0.5,0.8-1,1.4-1.4,2.1c2.6,0.5,5.2,1.2,7.9,1.9C218,77.7,219.3,76.4,220.1,74.9z M216.9,55.1
			h-5v2.6h5V55.1z M216.9,61.2h-5V65h5V61.2z M225.8,61.2h-5V65h5V61.2z"/>
		<path fill="#EA8C38" d="M275.9,66.2v4.2h-36.4v-4.2H275.9z"/>
		<path fill="#EA8C38" d="M296,76.2l-13.4,1v-4.1l13.4-0.9V76.2z M295.1,57v4h-11.5v-4H295.1z M308.4,62c0,2.3-0.1,4.4-0.4,6.4
			c2.2,6.6,6.1,11.8,11.7,15.6l-2.8,3.2c-4.4-3.5-7.8-7.7-10.2-12.7c-0.1,0.3-0.2,0.6-0.3,1c-1.5,4.7-5,8.7-10.7,11.8l-2.8-3.4
			c4.8-2.6,8-5.8,9.5-9.6c1.2-3.2,1.8-7.4,1.8-12.4H308.4z M297.5,68.6l-3.5-2.4c3-3.9,5-9.3,5.8-16.2l4.1,0.7
			c-0.3,1.8-0.6,3.5-0.9,5.1h15.4v2.8c-0.9,3.5-2,7.1-3.3,10.6l-4.2-1.2c1.2-2.3,2.1-5,2.9-8.1H302
			C300.8,63.5,299.3,66.4,297.5,68.6z"/>
		<path fill="#EA8C38" d="M357.8,63.1v18.1h-7c3.8,0.7,7.6,1.6,11.1,2.8l-1.4,3.4c-4.1-1.6-8.3-2.8-12.7-3.6l1.3-2.5h-9.4l1.6,2.2
			c-2.9,1.7-7,3-12.4,4.1l-1.9-3.3c4.6-0.8,8.3-1.8,11-3h-6.8V63.1H357.8z M359.9,51.3v10.2h-31V51.3H359.9z M338,54.7H333v3.6h5.1
			V54.7z M353.7,68.2v-1.9h-18.5v1.9H353.7z M353.7,73v-1.9h-18.5V73H353.7z M353.7,75.9h-18.5v2h18.5V75.9z M347.1,54.7h-5.3v3.6
			h5.3V54.7z M355.9,54.7h-5v3.6h5V54.7z"/>
		<path fill="#EA8C38" d="M76.1,119.7v3.2c-1.2,2-2.6,4-4.2,6h4.6v2.7c-0.5,2.9-1.1,5.3-1.8,7.2c0.3,0.2,0.6,0.4,0.9,0.8
			c1.3,1.2,2.4,2.1,3.6,2.6c1.2,0.4,2.8,0.7,5,0.8c2.2,0,4.6,0,7.4,0c2.9,0,6.6-0.1,11.2-0.3l-1,3.9H92c-2.7,0-5.4-0.1-8.1-0.2
			c-2.7-0.1-4.8-0.4-6.1-1c-1.7-0.7-3.2-1.7-4.5-3.1c-0.3-0.3-0.6-0.4-0.9-0.4c-0.8,0-2,1.7-3.7,5.2l-3-2.8c1.8-3.4,3.6-5.5,5.2-6.1
			c0.7-1.8,1.3-3.7,1.7-5.8H67v-3.1c1.8-2.1,3.4-4,4.6-5.8h-5.2v-3.8H76.1z M76.1,115.9l-2.7,2.7c-1.4-1.8-3.5-3.7-6.1-5.8l2.8-2.6
			C72.4,112.1,74.4,114,76.1,115.9z M87.3,113.7c-0.4-1.1-0.9-2.1-1.4-3l4.4-0.7c0.4,1.1,0.9,2.3,1.3,3.7h9.9v3.8H77.9v-3.8H87.3z
			 M99.5,130.6v10.5H80.1v-10.5H99.5z M98.6,119.6v3.3H81v-3.3H98.6z M98.6,125.1v3.3H81v-3.3H98.6z M95.4,134H84.2v3.7h11.2V134z"
			/>
		<path fill="#EA8C38" d="M129.3,112.4h14.2v3.5h-29.2V127c-0.1,8.2-1.4,14.8-3.7,19.7l-3.2-2.8c1.8-4,2.8-9.7,2.9-16.9v-14.6h14.9
			c-0.4-0.8-0.8-1.4-1.2-2l4.1-0.6C128.5,110.5,128.9,111.4,129.3,112.4z M119,123.1c-0.1,3.4-0.9,5.9-2.5,7.6l-2-1.7
			c1.3-1.3,2-3.3,2.1-5.9H119z M143.6,144.8l-3.3,2.3c-0.6-1-1.2-2-1.8-2.9c-5.7,1-13,1.7-22,2.3l-1.1-3.4c1.2-0.1,2.4-0.4,3.4-0.7
			c2.2-1,4.7-2.4,7.3-4.2c-2.7,0.1-5.6,0.2-8.6,0.3l-0.8-3.2c0.9-0.1,1.7-0.4,2.5-0.7c1.5-0.6,3.4-2.2,5.8-4.9l3.8,0.9
			c-1.6,1.8-3.4,3.4-5.2,4.6c2.2-0.1,4.4-0.2,6.6-0.3c1.3-1.1,2.6-2.2,4-3.4l3.7,1.8c-4.9,4.1-9.2,7.2-12.9,9.4
			c4.2-0.4,8-0.9,11.2-1.4c-0.7-0.9-1.4-1.8-2.1-2.7l3.2-2C140.1,139.6,142.2,142.4,143.6,144.8z M120.1,118.8v-2.1h3.6v2.1h4.3v3.1
			h-4.7v8.1h-2.9v-8.1h-4.9v-3.1H120.1z M127.2,123.1v3c0,0.4,0.2,0.6,0.5,0.6h1.4v2.3h-2.4c-1.4,0-2-0.9-2-2.6v-3.3H127.2z
			 M134.3,118.8v-2.1h3.6v2.1h5v3.1h-5.3v8.1h-2.9v-8.1h-5.3v-3.1H134.3z M133.2,123.1c0,3.2-0.6,5.6-1.7,7.3l-2-1.7
			c0.8-1.2,1.2-3.1,1.2-5.6H133.2z M141.6,123.1v3.8c0,0.4,0.3,0.7,1,0.7h1.6v2.2h-2.5c-1.7,0-2.5-0.9-2.5-2.7v-4H141.6z"/>
		<path fill="#EA8C38" d="M171.2,111.8c-0.4,0.5-0.9,1-1.3,1.4h10.4v3.2c-4.3,7.7-12.3,12-24,13l-1.7-3.8c3.2-0.2,6.1-0.6,8.7-1.2
			c-1.1-1.3-2.2-2.5-3.3-3.5l3.6-1.8c1.3,1.2,2.5,2.6,3.6,4c3.5-1.5,6.3-3.6,8.4-6.2h-10.4c-3.1,1.8-6.7,3.2-10.9,4.1l-2.4-3.8
			c7-1.3,12.3-3.7,15.8-7.3L171.2,111.8z M171.2,139.3c3.7-1.6,6.7-3.9,9-6.7h-10.6c-3.4,1.6-7.5,2.8-12.2,3.8l-2.4-3.7
			c8.7-0.8,15.1-3.4,19.2-7.6l3.6,1.9c-0.6,0.6-1.3,1.3-2,1.9h9.9v3.2c-5.8,9.3-16.4,14.2-32,14.6l-1.7-4c5.9,0,11-0.6,15.4-1.9
			c-1.2-1.5-2.4-2.9-3.6-4.1l3.7-1.8C168.6,136.2,169.9,137.7,171.2,139.3z"/>
		<path fill="#EA8C38" d="M217.6,144.7l-1-3.8l3,0.2c0.9,0,1.4-0.5,1.4-1.5v-3.2h-8.6v10.7h-4.2v-10.7h-8.6v7.8h-4.1v-11.5h12.8
			v-2.3h-2l-0.8-3.1l1.8,0.2c0.6,0,0.9-0.4,0.9-1.1v-1.1l-2.5,0.7c-0.3-2-0.8-3.8-1.2-5.6l2.2-0.8c0.6,1.6,1.1,3.4,1.5,5.4v-6.4h-4
			v11.2H201v-11.2h-4.2v11.7h-3.4v-15h3.2c-0.7-1.4-1.5-2.6-2.3-3.6l3-1.4c0.8,1.2,1.6,2.5,2.4,4l-2.1,1h3.3v-5.2h3.4v5.2h3.2
			l-2-1.1c1-1.4,1.7-2.7,2.3-4l3,1.5c-0.6,1.2-1.3,2.4-2.2,3.6h2.8v3.8c2.4-2.6,4-5.6,4.8-9.1l3.8,0.5c-0.3,1.1-0.6,2.1-1,3.1h8.6
			v3.6h-1.5c-0.8,2.9-2,5.3-3.5,7.3c1.8,1.2,3.8,2.2,6,3.2l-2,3.4c-2.5-1.2-4.7-2.5-6.6-3.9c-1.8,1.6-4,2.8-6.4,3.6l-1.9-3.2
			c2.2-0.6,4-1.6,5.6-2.8c-0.9-0.8-1.6-1.7-2.3-2.6l1.8-2.7c0.8,1,1.8,2,2.9,2.9c1.1-1.5,2-3.2,2.6-5.2h-5c-1.1,1.9-2.4,3.6-4,5.2
			l-2-2.6v7.3c0,1.6-0.6,2.6-1.6,3h2.6v2.6h12.8v7.8c0,2.8-1.4,4.2-4.1,4.2H217.6z M200.5,120.4c-0.2,2.6-0.5,4.9-1,7l-2.6-0.9
			c0.6-1.8,1-4,1.2-6.4L200.5,120.4z"/>
		<path fill="#EA8C38" d="M252.8,111.4v13.8h-9.5c-0.1,1.2-0.1,2.4-0.2,3.6H254c0,7.4-0.2,11.9-0.6,13.6c-0.5,2.8-2.8,4.2-6.8,4.2
			c-0.6,0-1.8-0.1-3.4-0.2l-0.9-3.6c1.4,0.1,2.6,0.2,3.6,0.2c2,0,3.2-0.8,3.6-2.4c0.2-0.8,0.3-3.4,0.4-7.9h-7.1
			c-0.3,2.3-0.7,4.2-1.1,5.7c-1,3.3-2.8,6.1-5.2,8.6l-2.7-3.5c2-2,3.4-4.3,4.2-7c0.7-2.4,1.2-6.2,1.4-11.3H236v-13.8H252.8z
			 M248.8,115.3H240v5.9h8.7V115.3z M261.2,113.6v24.6h-4.1v-24.6H261.2z M259.4,146.7l-0.9-4c1.8,0.2,3.6,0.2,5.2,0.2
			c1.1,0,1.6-0.7,1.6-2v-30.8h4.2v31.9c0,3-1.5,4.6-4.4,4.6H259.4z"/>
		<path fill="#EA8C38" d="M287.9,139.2h-7v2.7h-4V113h11V139.2z M284.1,135.4v-18.6H281v18.6H284.1z M294.6,126.4
			c0,8.1-1.6,15-4.6,20.8l-3.2-2.8c2.5-4.6,3.8-10.6,3.8-18v-15.2h19.8v12.6h-15.8V126.4z M294.6,115v5h11.9v-5H294.6z M301,146.5
			c-2.8,0-4.2-1.4-4.2-4.3v-15.8h4v4.1l10.9-0.8v3.9l-10.9,0.8v7c0,0.9,0.5,1.3,1.5,1.3h4.7c0.7,0,1.2-0.3,1.5-0.8
			c0.4-0.5,0.6-2.1,0.8-4.6l3.8,1.2c-0.4,3.9-1,6.2-1.8,7c-0.8,0.7-2,1-3.6,1H301z"/>
		<path fill="#EA8C38" d="M343.3,115.9c1.6,1.4,2.4,3.3,2.4,5.8c0,2-0.5,3.6-1.5,4.9c-0.4,0.4-1.5,1.5-3.4,3.2
			c-0.7,0.6-1.2,1.2-1.6,2c-0.4,0.8-0.6,1.7-0.6,2.6v0.6H334v-0.6c0-1.5,0.2-2.8,0.8-3.9c0.5-1.1,1.4-2.2,2.8-3.4
			c1.3-1.2,2.1-1.9,2.4-2.3c0.7-0.9,1.1-1.8,1.1-2.8c0-1.3-0.4-2.4-1.1-3.1c-0.8-0.8-1.8-1.1-3.2-1.1c-1.7,0-3,0.5-3.8,1.6
			c-0.7,0.9-1,2.2-1,4h-4.6c0-3,0.8-5.3,2.6-7c1.7-1.7,4-2.5,7-2.5C339.6,113.8,341.7,114.5,343.3,115.9z M338.5,137.7
			c0.6,0.6,0.9,1.3,0.9,2.2s-0.3,1.6-0.9,2.2c-0.6,0.6-1.4,0.8-2.2,0.8s-1.6-0.3-2.2-0.9c-0.6-0.6-0.9-1.3-0.9-2.2s0.3-1.6,0.9-2.2
			c0.6-0.6,1.3-0.8,2.2-0.8S337.9,137.2,338.5,137.7z"/>
	</g>
	<path fill="#EA8C38" d="M56,100.4c104.1-1.4,208.2,0.4,312.1,5.5c0,0,0.1-2.5,0-2.5c-103.9-5-208-6.9-312.1-5.5
		C56,97.9,56,100.4,56,100.4L56,100.4z"/>
	<path fill="#EA8C38" d="M56.1,156c103.9,3.9,208,5,312,3.1c0.1,0,0-2.5,0-2.5c-104,1.9-208.2,0.9-312-3.1
		C56.1,153.5,55.9,156,56.1,156L56.1,156z"/>
	<path fill="#FFFFFF" d="M173.6,195c0,0-29.2,43.7-74.6,50.7c0,0,20.9-21,12.7-62L173.6,195z"/>
</g>
<g>
</g>
<g>
</g>
<g>
</g>
<g>
</g>
<g>
</g>
<g>
</g>
<g>
</g>
<g>
</g>
<g>
</g>
<g>
</g>
<g>
</g>
<g>
</g>
<g>
</g>
<g>
</g>
<g>
</g>
</svg>
