<?xml version="1.0" encoding="utf-8"?>
<!-- Generator: Adobe Illustrator 21.0.2, SVG Export Plug-In . SVG Version: 6.00 Build 0)  -->
<!DOCTYPE svg PUBLIC "-//W3C//DTD SVG 1.1//EN" "http://www.w3.org/Graphics/SVG/1.1/DTD/svg11.dtd">
<svg version="1.1" id="Layer_1" xmlns="http://www.w3.org/2000/svg" xmlns:xlink="http://www.w3.org/1999/xlink" x="0px" y="0px"
	 viewBox="0 0 170.4 170.4" style="enable-background:new 0 0 170.4 170.4;" xml:space="preserve">
<style type="text/css">
	.st0{fill:#00B900;}
</style>
<title>line</title>
<path class="st0" d="M139.6,0.2L31.1,0C14,0,0.2,13.8,0.2,30.8L0,139.3c0,17,13.8,30.9,30.8,30.9l108.5,0.1
	c17,0,30.9-13.8,30.9-30.8l0.1-108.5C170.4,14,156.6,0.2,139.6,0.2C139.6,0.2,139.6,0.2,139.6,0.2z M134,108.7L134,108.7
	c-13,15-42.1,33.2-48.7,36s-5.7-1.8-5.4-3.3l0.9-5.3c0.2-1.6,0.4-4-0.2-5.6c-0.7-1.7-3.4-2.6-5.5-3.1c-29.8-3.9-51.9-24.8-51.9-49.7
	c0-27.8,27.8-50.3,62-50.3s62,22.6,62,50.3C147.3,88.8,143,98.8,134,108.7z"/>
<path class="st0" d="M60.9,94.2H48.6c-1.8,0-3.2-1.4-3.3-3.2V66.3c0-1.8,1.5-3.3,3.3-3.3s3.3,1.5,3.3,3.3v21.4h9.1
	c1.8,0,3.3,1.5,3.3,3.3C64.2,92.8,62.7,94.2,60.9,94.2z M73.7,91c0,1.8-1.5,3.3-3.3,3.3s-3.3-1.5-3.3-3.3l0,0V66.3
	c0-1.8,1.5-3.3,3.3-3.3s3.3,1.5,3.3,3.3V91z M103.4,91c0,1.8-1.4,3.3-3.2,3.3c-1.1,0-2-0.5-2.7-1.3L84.9,75.7V91
	c0,1.8-1.5,3.3-3.3,3.3c-1.8,0-3.3-1.5-3.3-3.3V66.3c0-1.4,0.9-2.6,2.2-3.1c0.3-0.1,0.7-0.2,1-0.2c1,0,2,0.5,2.6,1.3l12.7,17.2V66.3
	c0-1.8,1.5-3.3,3.3-3.3c1.8,0,3.3,1.5,3.3,3.3V91z M123.3,75.4c1.8,0,3.3,1.5,3.3,3.3s-1.5,3.3-3.3,3.3h-9.1v5.8h9.1
	c1.8,0,3.3,1.5,3.3,3.3c0,1.8-1.5,3.3-3.3,3.3l0,0H111c-1.8,0-3.3-1.4-3.3-3.2c0,0,0,0,0,0V78.7l0,0V66.3l0,0c0-1.8,1.4-3.3,3.2-3.3
	c0,0,0,0,0,0h12.3c1.8,0.1,3.2,1.6,3.1,3.4c-0.1,1.7-1.4,3-3.1,3.1h-9.1v5.8L123.3,75.4L123.3,75.4z"/>
</svg>
