<svg xmlns="http://www.w3.org/2000/svg" viewBox="0 0 230 230"><title>cyn-bg</title><path d="M207.79,78.7a15.93,15.93,0,0,0-12.71-6.28,16.36,16.36,0,0,0-1.66.09L168.94,75c-.14-13.18-10.68-23.86-23.61-23.86a23.38,23.38,0,0,0-15.76,6.19A101,101,0,0,0,113,56.08c-3.63,0-7.37.15-11.46.46-2.4.18-4.85.43-7.3.73a23.5,23.5,0,0,0-12.57-7.8,23.23,23.23,0,0,0-5.37-.63,23.6,23.6,0,0,0-23,18.81,24.64,24.64,0,0,0,.64,12.94A56.14,56.14,0,0,0,48.8,92.49l-.21.7c-.85,2.58-1.59,5.16-2.29,7.69l-1.2,4h.08q-.32,1.12-.64,2.23c-.92,3.1-2.09,6.28-3.33,9.64-2.51,6.79-5.11,13.8-6.05,21.51a42.57,42.57,0,0,0,10.73,33c5.47,6,12.74,10.33,21.62,12.94,1.51.44,3.08.84,4.67,1.17l18,4.49a83.6,83.6,0,0,0,39.74.18l17.33-4.15a64.7,64.7,0,0,0,6.75-1.62l7.23-1.74v-1a44.75,44.75,0,0,0,17.05-13.14c7.54-9.74,10-21.29,7.39-35.26A16,16,0,0,0,197.92,127l6.94-8.87a16.11,16.11,0,0,0,2.75-14.4l3-11.13A15.94,15.94,0,0,0,207.79,78.7Z" style="fill:#f6bcb1"/></svg>