<?xml version="1.0" encoding="utf-8"?>
<!-- Generator: Adobe Illustrator 18.0.0, SVG Export Plug-In . SVG Version: 6.00 Build 0)  -->
<!DOCTYPE svg PUBLIC "-//W3C//DTD SVG 1.1//EN" "http://www.w3.org/Graphics/SVG/1.1/DTD/svg11.dtd">
<svg version="1.1" id="Layer_1" xmlns="http://www.w3.org/2000/svg" xmlns:xlink="http://www.w3.org/1999/xlink" x="0px" y="0px"
	 viewBox="0 0 490.3 240.9" enable-background="new 0 0 490.3 240.9" xml:space="preserve">
<g>
	<path fill="#FFFFFF" d="M402.7,208.2H87.6C39.2,208.2,0,169,0,120.6l0-32.9C0,39.2,39.2,0,87.6,0l315.1,0
		c48.4,0,87.6,39.2,87.6,87.6v32.9C490.3,169,451.1,208.2,402.7,208.2z"/>
	<g>
		<path fill="#616264" d="M68.2,61.8V65c-1.2,2-2.6,4-4.2,6h4.6v2.7c-0.5,2.9-1.1,5.3-1.8,7.2c0.3,0.2,0.6,0.4,0.9,0.8
			c1.3,1.2,2.4,2.1,3.6,2.6c1.2,0.4,2.8,0.7,5,0.8c2.2,0,4.6,0,7.4,0c2.9,0,6.6-0.1,11.2-0.3l-1,3.9h-9.8c-2.7,0-5.4-0.1-8.1-0.2
			c-2.7-0.1-4.8-0.4-6.1-1c-1.7-0.7-3.2-1.7-4.5-3.1c-0.3-0.3-0.6-0.4-0.9-0.4c-0.8,0-2,1.7-3.7,5.2l-3-2.8c1.8-3.4,3.6-5.5,5.2-6.1
			c0.7-1.8,1.3-3.7,1.7-5.8H59v-3.1c1.8-2.1,3.4-4,4.6-5.8h-5.2v-3.8H68.2z M68.2,58l-2.7,2.7C64,58.9,62,57,59.4,54.9l2.8-2.6
			C64.5,54.2,66.5,56,68.2,58z M79.4,55.7c-0.4-1.1-0.9-2.1-1.4-3l4.4-0.7c0.4,1.1,0.9,2.3,1.3,3.7h9.9v3.8H70v-3.8H79.4z
			 M91.6,72.7v10.5H72.2V72.7H91.6z M90.6,61.6v3.3H73.1v-3.3H90.6z M90.6,67.1v3.3H73.1v-3.3H90.6z M87.5,76H76.3v3.7h11.2V76z"/>
		<path fill="#616264" d="M108.5,89.2h-4V71.8c-0.9,2.9-1.9,5.5-3.1,7.9l-2-3.6c2.1-3.7,3.6-7.9,4.6-12.6h-3.6v-3.9h4v-7.4h4v7.4
			h3.4v3.9h-3.4v2.1c1.4,1.6,2.7,3.4,4.1,5.4l-2.2,3.4c-0.7-1.4-1.3-2.7-1.8-3.8V89.2z M121.6,77.2v2.6c-1.4,4-4.2,7.1-8.6,9.2
			l-2.4-3.2c3.2-1.3,5.5-3.1,6.9-5.4h-5.2v-3.2H121.6z M118,55.7c-0.4-1.1-0.9-2.1-1.4-3l4.1-0.6c0.4,1,0.9,2.3,1.3,3.6h4.7
			c0.5-1.2,0.9-2.4,1.2-3.7l4,0.6c-0.3,1.1-0.7,2.2-1.2,3.2h4.9v3.1h-9.2v1.6h7.9v3h-7.9v1.7h10v3.2h-24v-3.2h10v-1.7h-7.8v-3h7.8
			v-1.6H113v-3.1H118z M118.9,85.5l3,0.2c0.6,0,0.9-0.4,0.9-1.2v-8.8H115v-3.1h11.7V76c0.2,0.5,0.5,0.9,0.8,1.3
			c2.2-1,4.2-2.5,6.1-4.4l2.6,2.6c-1.9,2-4.1,3.5-6.5,4.6c2,2.1,4.5,3.9,7.5,5.4l-2.6,3.1c-3.2-2-5.8-4.4-7.8-7.2v4.3
			c0,2.2-1.4,3.4-4,3.4h-2.8L118.9,85.5z M130.8,70.5l-1.1,2.7c-3.4-1-6.9-1.7-10.6-2.2l1.3-2.5C124,68.9,127.5,69.6,130.8,70.5z"/>
		<path fill="#616264" d="M152.7,52.2c-0.4,2.4-0.8,4.6-1.2,6.6h8.1v2.3c-0.3,6.4-1.7,12-4.3,16.7c2.2,1.6,3.9,3,5.3,4.3l-2.9,3.5
			c-1.3-1.3-2.9-2.7-4.7-4.2c-2.1,2.9-4.7,5.4-7.8,7.5l-2.8-3.5c3-1.9,5.4-4.1,7.4-6.6c-2-1.6-4.2-3.2-6.6-4.9
			c1.2-3.4,2.2-7.1,3.1-11h-4.1v-4.1h5c0.4-2.3,0.8-4.6,1.2-7L152.7,52.2z M155.8,62.9h-5c-0.9,3.9-1.8,7.1-2.8,9.8
			c1.5,1,2.9,1.9,4.2,2.8C154.2,71.8,155.4,67.6,155.8,62.9z M176.6,87.4h-4V85h-6.5v2.4H162V55.2h14.6V87.4z M172.6,80.9V59.3h-6.5
			v21.6H172.6z"/>
		<path fill="#616264" d="M195.7,53.5c-0.9,3-2,5.8-3.5,8.4v27.3h-4.1V68.3c-1,1.3-2.1,2.6-3.3,3.9l-1.4-4.5c3.8-4.5,6.7-9.8,8.5-16
			L195.7,53.5z M220.7,54.2v4h-2.8v26.3c0,2.9-1.4,4.4-4.3,4.4h-6.8l-0.9-4.1c2.2,0.2,4.3,0.3,6.2,0.3c1,0,1.5-0.6,1.5-1.7V58.3
			h-17.9v-4H220.7z M210,63.1v15.7h-13.6V63.1H210z M205.9,66.8h-5.5V75h5.5V66.8z"/>
		<path fill="#616264" d="M251.4,58c1.6,1.4,2.4,3.3,2.4,5.8c0,2-0.5,3.6-1.5,4.9c-0.4,0.4-1.5,1.5-3.4,3.2c-0.7,0.6-1.2,1.2-1.6,2
			c-0.4,0.8-0.6,1.7-0.6,2.6V77H242v-0.6c0-1.5,0.2-2.8,0.8-3.9c0.5-1.1,1.4-2.2,2.8-3.4c1.3-1.2,2.1-1.9,2.4-2.3
			c0.7-0.9,1.1-1.8,1.1-2.8c0-1.3-0.4-2.4-1.1-3.1c-0.8-0.8-1.8-1.1-3.2-1.1c-1.7,0-3,0.5-3.8,1.6c-0.7,0.9-1,2.2-1,4h-4.6
			c0-3,0.8-5.3,2.6-7c1.7-1.7,4-2.5,7-2.5C247.6,55.8,249.8,56.5,251.4,58z M246.6,79.8c0.6,0.6,0.9,1.3,0.9,2.2s-0.3,1.6-0.9,2.2
			c-0.6,0.6-1.4,0.8-2.2,0.8s-1.6-0.3-2.2-0.9c-0.6-0.6-0.9-1.3-0.9-2.2s0.3-1.6,0.9-2.2c0.6-0.6,1.3-0.8,2.2-0.8
			S246,79.2,246.6,79.8z"/>
		<path fill="#616264" d="M294.2,52.3c2.4,4.7,6.1,8.7,11,11.8l-2.4,3.6c-1.3-0.9-2.4-1.8-3.5-2.7v3.3h-14.2V65
			c-1.1,1-2.2,2-3.4,2.8l-1.2-1.8v18.4h-3.9v-1.8h-3.7v2.6H269V55h11.5v8.4c4-3,7.4-6.7,9.9-11.2H294.2z M276.6,78.8V58.9h-3.7v19.9
			H276.6z M301.3,89.2h-4v-2.1h-9.9v2.1h-4V72.4h17.8V89.2z M298.7,64.4c-2.6-2.4-4.7-5.1-6.4-8.2c-1.9,3.2-4.1,5.9-6.5,8.2H298.7z
			 M297.3,83.2v-7h-9.9v7H297.3z"/>
		<path fill="#616264" d="M336.2,52.3c2.4,4.7,6.1,8.7,11,11.8l-2.4,3.6c-1.3-0.9-2.4-1.8-3.5-2.7v3.3h-14.2V65
			c-1.1,1-2.2,2-3.4,2.8l-1.2-1.8v18.4h-3.9v-1.8h-3.7v2.6H311V55h11.5v8.4c4-3,7.4-6.7,9.9-11.2H336.2z M318.6,78.8V58.9h-3.7v19.9
			H318.6z M343.3,89.2h-4v-2.1h-9.9v2.1h-4V72.4h17.8V89.2z M340.7,64.4c-2.6-2.4-4.7-5.1-6.4-8.2c-1.9,3.2-4.1,5.9-6.5,8.2H340.7z
			 M339.3,83.2v-7h-9.9v7H339.3z"/>
		<path fill="#616264" d="M378.2,52.3c2.4,4.7,6.1,8.7,11,11.8l-2.4,3.6c-1.3-0.9-2.4-1.8-3.5-2.7v3.3h-14.2V65
			c-1.1,1-2.2,2-3.4,2.8l-1.2-1.8v18.4h-3.9v-1.8h-3.7v2.6H353V55h11.5v8.4c4-3,7.4-6.7,9.9-11.2H378.2z M360.6,78.8V58.9h-3.7v19.9
			H360.6z M385.3,89.2h-4v-2.1h-9.9v2.1h-4V72.4h17.8V89.2z M382.7,64.4c-2.6-2.4-4.7-5.1-6.4-8.2c-1.9,3.2-4.1,5.9-6.5,8.2H382.7z
			 M381.3,83.2v-7h-9.9v7H381.3z"/>
		<path fill="#616264" d="M415.8,69.5c0,3.9-1.8,6.9-5.5,8.8l-1.4-2.3c2.4-1.5,3.7-3.3,3.9-5.6c-0.2,0-0.5,0.1-0.8,0.1
			c-0.9,0-1.6-0.3-2.2-0.8c-0.6-0.6-0.9-1.3-0.9-2.1c0-0.9,0.3-1.6,0.9-2.2s1.3-0.8,2.2-0.8C414.5,64.6,415.8,66.2,415.8,69.5z"/>
		<path fill="#616264" d="M68.3,107.2c-0.4,2.6-0.9,4.9-1.3,7.1h6.6v2.3c-0.2,6.2-1.4,11.6-3.6,16.2c2.1,1.7,3.9,3.2,5.2,4.5
			l-2.8,3.3c-1.2-1.3-2.7-2.6-4.4-4.1c-1.9,3-4.3,5.6-7.2,7.9l-2.9-3.6c2.7-2,5-4.3,6.8-7c-1.8-1.5-3.8-3-5.9-4.6
			c1.2-3.4,2.2-7,3.2-10.9h-3.7v-4h4.6c0.5-2.4,0.9-5,1.3-7.5L68.3,107.2z M69.5,118.3h-3.3c-0.9,3.8-1.8,7-2.8,9.6
			c1.2,0.8,2.2,1.6,3.2,2.3C68.2,126.8,69.2,122.8,69.5,118.3z M82.9,123.4V119c1.9-1.8,3.8-3.8,5.6-6.2h-13v-4.1h17.8v4.1
			c-1.8,2.6-3.9,5.2-6.2,7.5v3.1h7.6v4.1h-7.6V139c0,3.1-1.2,4.7-3.5,4.7h-6l-1.1-4c1.6,0,3.4,0.1,5.4,0.1c0.7,0,1-0.7,1-2v-10.2
			h-8.5v-4.1H82.9z"/>
		<path fill="#616264" d="M120.7,126.7c-2.2,1.7-5.2,3.3-8.8,4.7l-2-3.3c3.8-1.1,6.6-2.3,8.6-3.6h-6.6v-6.8
			c-0.2,0.2-0.5,0.3-0.7,0.4l-2.4-3c-0.2,0.4-0.4,0.8-0.6,1.2v27.7h-4.2v-20.7c-1,1.3-2,2.6-3,3.8l-1.4-4.5c3.4-4.5,6-9.8,7.7-16
			l3.9,1.8c-0.6,2.2-1.4,4.3-2.3,6.4c3.6-2,6.7-4.7,9.4-8.2l4.2,1c-0.4,0.6-0.9,1.2-1.4,1.8h9.4v2.6c-0.7,1-1.5,2-2.2,2.8h6.7v9.7
			h-11.4c1.4,1.5,2.5,3.1,3.3,4.7c2.4-1.2,4.4-2.5,6.1-4.1l2.6,3c-1.8,1.4-3.8,2.7-6,3.8c1.7,2.8,4.2,5.2,7.7,7.4l-2.6,3.2
			c-2.4-2-4.4-4.2-5.9-6.4v0.2c0,2.9-0.5,4.9-1.5,6c-0.8,0.9-2.4,1.5-4.6,1.8c-0.7,0.1-1.5,0.1-2.3,0.1l-1.3-3.8c1.2,0,2.2,0,3-0.1
			c0.8-0.1,1.4-0.4,2-0.9c0.4-0.6,0.7-1.6,0.7-3.2V136c-3.3,2.8-7.5,5.2-12.7,7l-2.1-3.6c6.1-1.9,10.8-4.3,14.1-7.2
			c-0.2-0.6-0.4-1-0.6-1.5c-2.9,2.6-6.7,4.6-11.4,6.2l-2-3.4c5.1-1.4,9-3.3,11.9-5.6C121.4,127.6,121,127.1,120.7,126.7z M123,114.8
			c0.8-0.7,1.6-1.4,2.4-2.2h-7.2c-0.8,0.8-1.7,1.6-2.5,2.2H123z M115.8,118.2v3h5.4v-3H115.8z M130.8,121.2v-3h-5.6v3H130.8z"/>
		<path fill="#616264" d="M152,116.8v3.2c-1.2,2-2.5,4-4.1,6h4.5v2.8c-0.5,2.8-1.1,5.2-1.8,7c0.3,0.2,0.6,0.4,0.9,0.8
			c1.3,1.2,2.6,2,3.7,2.6c1.1,0.4,2.8,0.7,5,0.8c2.2,0,4.7,0,7.5,0c3,0,6.8-0.1,11.6-0.3l-1,3.9h-10.2c-2.8,0-5.5-0.1-8.2-0.2
			c-2.7-0.1-4.8-0.4-6.2-1c-1.7-0.6-3.2-1.6-4.6-3.1c-0.2-0.3-0.6-0.4-0.9-0.4c-0.7,0-1.9,1.8-3.5,5.3l-3-2.8
			c1.8-3.5,3.4-5.6,5.1-6.2c0.7-1.8,1.2-3.6,1.6-5.6H143v-3.1c1.8-2.1,3.2-4,4.4-5.8h-5.1v-3.8H152z M151.8,112.9l-2.7,2.7
			c-1.4-1.8-3.4-3.7-6.1-5.8l2.7-2.6C148.1,109.2,150.1,111,151.8,112.9z M174.9,121.4v7.5h-0.6l2.6,1.6c-0.7,1-1.6,2-2.6,3.1
			c1.2,0.8,2.3,1.6,3.4,2.4l-2.7,2.7c-2.4-2.2-5.7-4.5-10-7l2.4-2.3c1.4,0.8,2.8,1.6,4.1,2.4c1-1.2,1.8-2.1,2.3-2.9h-8.8
			c-0.8,0.9-1.7,1.7-2.8,2.5v3.8c1.8-0.4,3.7-0.8,5.5-1.2l0.7,3.2c-3.2,0.7-6.5,1.2-9.8,1.7l-1.1-2.8c0.7-0.2,1.1-0.6,1.1-1.1v-1.4
			c-1.2,0.6-2.5,1.2-4,1.7l-1.9-3.2c3.2-0.9,5.6-1.9,7.4-3.1h-3.9v-7.5H174.9z M177.7,116.8v3.3h-24.4v-3.3H177.7z M175.8,108v7.6
			h-20.6V108H175.8z M161.2,110.8h-2.4v2.2h2.4V110.8z M171.2,124.3h-11.4v1.7h11.4V124.3z M166.7,110.8h-2.4v2.2h2.4V110.8z
			 M172.3,110.8h-2.4v2.2h2.4V110.8z"/>
		<path fill="#616264" d="M194.4,111c-0.5-1.2-1-2.4-1.5-3.4l4.4-0.7c0.5,1.2,0.9,2.6,1.4,4.1h7.8c0.6-1.4,1.1-2.8,1.4-4.2l4.4,0.6
			c-0.4,1.3-0.9,2.5-1.5,3.6h8v3.9h-14.3v2.3h12.1v3.8h-12.1v2.3h15.4v3.9h-22.7c-0.4,1-0.8,2-1.3,3h21.5v4h-10.7v5h13.2v4h-31.1v-4
			h13.7v-5h-7.9v-1.9c-2.1,3.1-4.9,5.5-8.4,7.2l-2.8-3.2c4.6-2,7.8-5,9.6-9.1h-8.3v-3.9h15.4v-2.3h-11.8v-3.8h11.8v-2.3H186V111
			H194.4z"/>
		<path fill="#616264" d="M253.6,113.1h-25.2v-4h31v4c-3.7,3.3-7.8,6.4-12.4,9.4v16.9c0,3-1.5,4.4-4.4,4.4c-2.4,0-4.6-0.1-6.4-0.3
			l-1.1-4c2,0.2,4.1,0.4,6.4,0.4c0.8,0,1.3-0.4,1.3-1.3v-18.2C246.6,118.2,250.2,115.8,253.6,113.1z"/>
		<path fill="#616264" d="M304.5,123.2v4.2h-36.4v-4.2H304.5z"/>
		<path fill="#616264" d="M314.2,136.2c-0.2,3-0.5,5.6-1.1,8l-3.4-1c0.7-2.2,1.2-4.6,1.4-7.3L314.2,136.2z M317.4,125.3v-1.9H311
			v-15.1h16.5v15.1H321v1.9h6v3.3h-6v2h6.8v3.7h-17.4v-3.7h6.9v-2h-6v-3.3H317.4z M317.7,111.4h-3.4v2.4l1.9-0.7
			c0.5,1.6,1,3.4,1.4,5.4l-2.1,0.6c-0.3-1.6-0.7-3.2-1.2-4.7v5.8h3.4V111.4z M318.8,143.2l-3.4,0.4c0-3.1-0.1-5.6-0.2-7.3l3-0.4
			C318.5,137.8,318.7,140.2,318.8,143.2z M323.8,142.4l-3.3,0.8c-0.3-2.6-0.6-4.8-1-6.8l3-0.6C323,137.8,323.4,140,323.8,142.4z
			 M324.2,111.4h-3.6v8.8h3.6V111.4z M324,113.4c-0.2,2-0.6,4-1.2,5.9l-2-0.7c0.5-1.8,0.8-3.7,1-5.7L324,113.4z M328.4,141.4l-3,1.1
			c-0.4-2.2-1-4.4-1.6-6.4l2.9-0.8C327.4,137.5,328,139.5,328.4,141.4z M338.7,107.3v7h7.8v3.8h-7.8v6.1h6.5v20h-3.9v-1.9h-8.1v1.9
			h-3.9v-20h5.4v-16.8H338.7z M341.3,138.5v-10.6h-8.1v10.6H341.3z"/>
	</g>
	<path fill="#B3B5B8" d="M58.3,95.8c123.9-1.4,247.9,0.4,371.6,5.5c-0.1,0,0.1-2.5,0-2.5c-123.7-5-247.6-6.9-371.6-5.5
		C58.2,93.3,58.3,95.8,58.3,95.8L58.3,95.8z"/>
	<path fill="#B3B5B8" d="M58,148.2c86,3.9,172.2,5,258.3,3.1c0.1,0,0-2.5,0-2.5c-86.1,1.9-172.3,0.9-258.3-3.1
		C58,145.7,57.9,148.2,58,148.2L58,148.2z"/>
	<path fill="#FFFFFF" d="M256.8,194c0,0-2.3,36.1,13.8,47c0,0-40.7-7.6-49.2-47H256.8z"/>
</g>
<g>
</g>
<g>
</g>
<g>
</g>
<g>
</g>
<g>
</g>
<g>
</g>
<g>
</g>
<g>
</g>
<g>
</g>
<g>
</g>
<g>
</g>
<g>
</g>
<g>
</g>
<g>
</g>
<g>
</g>
</svg>
