<?xml version="1.0" encoding="utf-8"?>
<!-- Generator: Adobe Illustrator 18.0.0, SVG Export Plug-In . SVG Version: 6.00 Build 0)  -->
<!DOCTYPE svg PUBLIC "-//W3C//DTD SVG 1.1//EN" "http://www.w3.org/Graphics/SVG/1.1/DTD/svg11.dtd">
<svg version="1.1" id="Layer_1" xmlns="http://www.w3.org/2000/svg" xmlns:xlink="http://www.w3.org/1999/xlink" x="0px" y="0px"
	 viewBox="0 0 349.6 175.9" enable-background="new 0 0 349.6 175.9" xml:space="preserve">
<g>
	<path fill="#D65B51" d="M253.6,124.5c0,0-2.5,39.6,15.1,51.4c0,0-44.5-8.4-53.9-51.4H253.6z"/>
	<path fill="#D65B51" d="M283.5,144.6H66c-36.3,0-66-29.7-66-66L0,66C0,29.7,29.7,0,66,0l217.5,0c36.3,0,66,29.7,66,66v12.5
		C349.6,114.9,319.9,144.6,283.5,144.6z"/>
	<g>
		<path fill="#FFFFFF" d="M83.2,61.4v19.8h-7.7c4.2,0.7,8.3,1.8,12.2,3L86.2,88c-4.5-1.8-9.1-3.1-13.9-4l1.4-2.8H63.3l1.8,2.4
			c-3.2,1.8-7.7,3.3-13.6,4.5l-2.1-3.6c5.1-0.9,9.1-1.9,12.1-3.2h-7.4V61.4H83.2z M85.5,48.5v11.2H51.7V48.5H85.5z M61.6,52.2H56
			v3.9h5.6V52.2z M78.8,67v-2.1H58.5V67H78.8z M78.8,72.2v-2.1H58.5v2.1H78.8z M78.8,75.4H58.5v2.1h20.2V75.4z M71.5,52.2h-5.8v3.9
			h5.8V52.2z M81.2,52.2h-5.5v3.9h5.5V52.2z"/>
		<path fill="#FFFFFF" d="M112.8,50.6c0.2-1.3,0.3-2.6,0.5-3.9l4.6,0.7l-0.4,3.2h16.8v4.3h-17.5c-0.3,1.1-0.5,2.3-0.7,3.4h16.2v24.1
			c0,3.3-1.5,5-4.6,5h-4.1l-1.2-4.4l3.8,0.1c1.1,0,1.6-0.6,1.6-1.8V62.6h-26.1v25.1h-4.5V58.3h14.2c0.3-1.1,0.5-2.3,0.7-3.4H95v-4.3
			H112.8z M112.8,68.2h3.7c0.9-1.6,1.6-3.3,2.3-5.2l4.1,1.5c-0.6,1.4-1.3,2.6-2,3.7h4v4h-8.1v3.3h9.2v4h-9.2V87h-4.5v-7.5h-9.2v-4
			h9.2v-3.3h-7.9v-4h3.9c-0.6-1.3-1.3-2.5-2-3.5l4.1-1.5C111.3,64.6,112.1,66.2,112.8,68.2z"/>
		<path fill="#FFFFFF" d="M153.2,53.7v-6.5h4.6v21.5c-0.1,8.7-2.5,15-7.2,19l-3.5-3.1c2.4-2,4.1-4.6,5.1-7.9
			c-3.4,0.8-6.9,1.5-10.6,2.1l-1.1-4.6c4.3-0.4,8.5-1.1,12.6-2c0.1-1.2,0.2-2.4,0.2-3.6v-0.9h-10.6v-4.4h10.6V58h-11.6v-4.3H153.2z
			 M168.1,47.2v6.5h11.6V58h-11.6v5.5h10.6v4.4h-10.6v5.6h12.3v4.3h-12.3v9.9h-4.6V47.2H168.1z"/>
		<path fill="#FFFFFF" d="M214.6,85.1l-1.1-4.2l3.3,0.2c1,0,1.5-0.6,1.5-1.6V76h-9.5v11.7h-4.6V76h-9.5v8.6h-4.5V72h14v-2.5h-2.1
			l-0.9-3.4l2,0.2c0.6,0,1-0.4,1-1.2v-1.2l-2.8,0.7c-0.4-2.1-0.8-4.2-1.4-6.1l2.5-0.8c0.7,1.8,1.2,3.8,1.7,6v-7h-4.3v12.3h-3.4V56.6
			h-4.6v12.8h-3.7V53h3.5c-0.8-1.5-1.7-2.8-2.5-4l3.2-1.6c0.9,1.3,1.8,2.8,2.6,4.4l-2.3,1.1h3.6v-5.7h3.8V53h3.5l-2.2-1.2
			c1.1-1.5,1.9-2.9,2.5-4.3l3.3,1.6c-0.7,1.3-1.4,2.6-2.4,3.9h3.1v4.2c2.6-2.8,4.4-6.1,5.3-9.9l4.1,0.5c-0.3,1.2-0.7,2.3-1.1,3.4
			h9.4v3.9h-1.7c-0.9,3.2-2.2,5.8-3.8,8c1.9,1.3,4.2,2.5,6.6,3.5l-2.1,3.7c-2.8-1.3-5.2-2.7-7.2-4.3c-2,1.8-4.4,3.1-7,3.9l-2.1-3.5
			c2.4-0.7,4.4-1.8,6.1-3.1c-1-0.9-1.8-1.9-2.5-2.8l1.9-2.9c0.9,1.1,2,2.2,3.2,3.2c1.2-1.7,2.1-3.5,2.8-5.6h-5.4
			c-1.2,2.1-2.6,3.9-4.3,5.6l-2.2-2.9v8c0,1.7-0.6,2.8-1.8,3.3h2.8V72h14v8.5c0,3.1-1.5,4.6-4.5,4.6H214.6z M196,58.5
			c-0.2,2.8-0.5,5.4-1.1,7.6l-2.9-1c0.7-2,1.1-4.4,1.3-7L196,58.5z"/>
		<path fill="#FFFFFF" d="M243.5,82.6h-3.8V80h-2.4v3.5h-3.8V50h9.9V82.6z M239.7,76.4V53.7h-2.4v22.7H239.7z M256.1,48.6v3.1
			c-0.7,3.9-1.6,7.9-2.5,12.2c1.5,3.9,2.4,7.3,2.5,10.1c0,2.2-0.4,3.7-0.9,4.6c-1,1.1-2.5,1.8-4.8,1.8l-1.1-3.5v10.7h-3.8V48.6
			H256.1z M251.3,76.6c0.4-0.1,0.6-0.3,0.8-0.7c0.1-0.4,0.2-1,0.2-1.9c0-2.8-0.8-6-2.5-9.5c1.1-4.6,1.9-8.6,2.5-12.3h-3v24.1
			C250.1,76.5,250.7,76.6,251.3,76.6z M265.8,57v19.8h-8.8V57H265.8z M273,48.8V53h-1.6v30.1c0,2.9-1.5,4.3-4.6,4.3h-4.6l-0.9-3.8
			c1.4,0.2,2.8,0.3,4.1,0.3c1.3,0,2-0.6,2-1.7V53h-10v-4.2H273z M262.6,60h-2.2v13.6h2.2V60z"/>
		<path fill="#FFFFFF" d="M301,77.4c0.6,0.6,1,1.4,1,2.4s-0.3,1.8-1,2.4c-0.7,0.6-1.5,0.9-2.5,0.9c-1,0-1.8-0.4-2.4-1
			c-0.7-0.6-1-1.4-1-2.4s0.3-1.8,1-2.4c0.6-0.6,1.4-0.9,2.4-0.9C299.5,76.5,300.4,76.8,301,77.4z M301.5,51.9l-1.1,22.3h-3.7
			l-1.1-22.3H301.5z"/>
	</g>
	<path fill="#EDA939" d="M46.7,94.1c87.6-1.5,175.3,0.5,262.7,6c0,0,0.1-2.7,0-2.7c-87.5-5.5-175.1-7.5-262.7-6
		C46.7,91.3,46.7,94.1,46.7,94.1L46.7,94.1z"/>
</g>
<g>
</g>
<g>
</g>
<g>
</g>
<g>
</g>
<g>
</g>
<g>
</g>
<g>
</g>
<g>
</g>
<g>
</g>
<g>
</g>
<g>
</g>
<g>
</g>
<g>
</g>
<g>
</g>
<g>
</g>
</svg>
