<?xml version="1.0" encoding="utf-8"?>
<!-- Generator: Adobe Illustrator 21.0.2, SVG Export Plug-In . SVG Version: 6.00 Build 0)  -->
<!DOCTYPE svg PUBLIC "-//W3C//DTD SVG 1.1//EN" "http://www.w3.org/Graphics/SVG/1.1/DTD/svg11.dtd">
<svg version="1.1" id="Layer_1" xmlns="http://www.w3.org/2000/svg" xmlns:xlink="http://www.w3.org/1999/xlink" x="0px" y="0px"
	 viewBox="0 0 90.9 90.9" style="enable-background:new 0 0 90.9 90.9;" xml:space="preserve">
<style type="text/css">
	.st0{opacity:0.3;fill:#C8C7C7;}
	.st1{fill:#C8C7C7;}
</style>
<title>icon-rr</title>
<g>
	
		<rect x="67.2" y="22.3" transform="matrix(1 -1.047196e-03 1.047196e-03 1 -4.724309e-02 7.596962e-02)" class="st0" width="10.7" height="45.6"/>
	
		<rect x="53.2" y="31.8" transform="matrix(1 -1.047196e-03 1.047196e-03 1 -5.225084e-02 6.132543e-02)" class="st0" width="10.7" height="36.3"/>
	
		<rect x="39.1" y="45.2" transform="matrix(1 -1.047196e-03 1.047196e-03 1 -5.927903e-02 4.658113e-02)" class="st0" width="10.7" height="22.9"/>
	
		<rect x="25.1" y="50.6" transform="matrix(1 -1.047196e-03 1.047196e-03 1 -6.211501e-02 3.193570e-02)" class="st1" width="10.7" height="17.5"/>
	<rect x="11.1" y="56.6" class="st1" width="10.7" height="11.4"/>
</g>
</svg>
