<?xml version="1.0" encoding="utf-8"?>
<!-- Generator: Adobe Illustrator 18.0.0, SVG Export Plug-In . SVG Version: 6.00 Build 0)  -->
<!DOCTYPE svg PUBLIC "-//W3C//DTD SVG 1.1//EN" "http://www.w3.org/Graphics/SVG/1.1/DTD/svg11.dtd">
<svg version="1.1" id="Layer_1" xmlns="http://www.w3.org/2000/svg" xmlns:xlink="http://www.w3.org/1999/xlink" x="0px" y="0px"
	 viewBox="0 0 513.6 289.6" enable-background="new 0 0 513.6 289.6" xml:space="preserve">
<g>
	<path fill="#D65B51" d="M421.1,258.5H92.5C41.6,258.5,0,216.9,0,166V92.5C0,41.6,41.6,0,92.5,0h328.6c50.9,0,92.5,41.6,92.5,92.5
		V166C513.6,216.9,472,258.5,421.1,258.5z"/>
	<g>
		<path fill="#FFFFFF" d="M75.7,65.5L74.3,61c4.1-4.5,7.2-9.8,9.2-16l3.9,1.8c-1,3.1-2.4,6.1-4.1,8.9v26.6h-4.2V61.7
			C78,62.9,76.9,64.2,75.7,65.5z M88.1,61.7l-3.6-2.2c3-4.4,5-9.2,6.2-14.2l3.9,0.8c-0.3,1.2-0.7,2.4-1,3.6h16.7v2.7
			c-0.6,2.4-1.4,4.8-2.3,7.1l-4-1.2c0.8-1.4,1.4-2.9,2-4.7H92.2C91,56.7,89.6,59.3,88.1,61.7z M93.9,62.7
			c-1.4,5.5-3.2,10.3-5.4,14.4l-3.9-1.4c2.1-3.7,3.9-8.4,5.5-14L93.9,62.7z M91.5,82l-0.9-3.9c1.6,0.2,3.2,0.3,4.6,0.3
			c1,0,1.4-0.5,1.4-1.5V56.5h4v21.4c0,2.8-1.4,4.2-4.1,4.2H91.5z M111.3,76.1l-3.7,1.6c-1.4-5.8-3.1-10.9-4.9-15.3l3.7-1.2
			C108.3,65.9,110,70.9,111.3,76.1z"/>
		<path fill="#FFFFFF" d="M154.1,47v4.1h-12.9c-0.7,1.5-1.4,2.9-2.3,4.3v1.7c6.3,3.6,11.7,7.4,16.2,11.7l-2.9,3.5
			c-3.6-3.8-8-7.4-13.3-10.8v20.9h-4.3V61.3c-3.6,4.1-8.2,7.8-13.6,11l-2.8-3.6c8.6-4.9,14.7-10.7,18.2-17.6h-17V47H154.1z"/>
		<path fill="#FFFFFF" d="M165.8,59.5l-3.7-2.3c2.6-3.8,4.4-7.7,5.4-11.9l4.1,0.9c-0.4,1.4-0.8,2.8-1.2,4h10.6v4h-5.3
			c0,2.3-0.2,4.5-0.4,6.5h6.1v4h-6.6l-0.5,2.4c2.4,2.4,4.8,5.1,7.3,8.1l-2.6,3.9c-2.4-3.5-4.3-6.2-5.9-8.1c-1.7,4-4.5,7.5-8.6,10.4
			l-2.7-3.4c4.1-3.1,6.8-6.8,8.1-11.2l0.5-2.1h-7.7v-4h8.3c0.2-2,0.3-4.2,0.4-6.5h-2.7C168,56.1,167,57.9,165.8,59.5z M197.6,80.5
			h-4.1v-2.2h-6.6v2.2h-4V49.1h14.8V80.5z M193.5,74.5V53h-6.6v21.5H193.5z"/>
		<path fill="#FFFFFF" d="M216,54.9v3.2c-1.2,2-2.6,4-4.2,6h4.6v2.7c-0.5,2.9-1.1,5.2-1.8,7.1c0.3,0.2,0.6,0.4,0.9,0.8
			c1.3,1.2,2.5,2,3.6,2.5c1.1,0.4,2.8,0.7,5,0.8c2.2,0,4.6,0,7.4,0c2.9,0,6.6-0.1,11.2-0.3l-1,3.9H232c-2.7,0-5.4-0.1-8.1-0.2
			c-2.7-0.1-4.8-0.4-6.1-0.9c-1.7-0.6-3.2-1.7-4.5-3.1c-0.3-0.3-0.6-0.4-0.9-0.4c-0.8,0-2,1.7-3.7,5.2l-3-2.8
			c1.8-3.5,3.6-5.6,5.3-6.2c0.7-1.8,1.2-3.7,1.6-5.7h-5.6v-3.1c1.8-2.1,3.4-4,4.6-5.8h-5.2v-3.8H216z M215.8,51.1l-2.7,2.7
			c-1.4-1.8-3.4-3.7-6.1-5.8l2.7-2.6C212.1,47.3,214.1,49.2,215.8,51.1z M223,49.4c-0.6-1-1.2-1.9-1.9-2.8l3.8-1.5
			c0.8,1.2,1.6,2.6,2.4,4.3h4.3c1-1.4,1.8-2.8,2.6-4.3l4,1.4c-0.6,1-1.2,2-1.9,2.9h5.9v3.7h-11c-0.2,0.8-0.5,1.6-0.8,2.3h9v20.2
			h-19.3V55.4h5.8c0.3-0.8,0.5-1.5,0.7-2.3h-9.4v-3.7H223z M235.6,61.1V59h-11.6v2.2H235.6z M235.6,66.4v-2.1h-11.6v2.1H235.6z
			 M235.6,69.7h-11.6V72h11.6V69.7z"/>
		<path fill="#FFFFFF" d="M270.9,47c-0.4,0.5-0.9,1-1.3,1.4h10.4v3.2c-4.3,7.7-12.3,12-24,13l-1.7-3.8c3.2-0.2,6.1-0.6,8.7-1.2
			c-1.1-1.3-2.2-2.5-3.3-3.5l3.6-1.8c1.3,1.2,2.5,2.6,3.6,4c3.5-1.5,6.3-3.6,8.4-6.2h-10.4c-3.1,1.8-6.7,3.2-10.9,4.1l-2.4-3.8
			c7-1.3,12.3-3.7,15.8-7.3L270.9,47z M270.8,74.5c3.7-1.6,6.7-3.9,9-6.7h-10.6c-3.4,1.6-7.5,2.8-12.2,3.8l-2.4-3.7
			c8.7-0.8,15.1-3.4,19.2-7.6l3.6,1.9c-0.6,0.6-1.3,1.3-2,1.9h9.9v3.2c-5.8,9.3-16.4,14.2-32,14.6l-1.7-4c5.9,0,11-0.6,15.4-1.9
			c-1.2-1.5-2.4-2.9-3.6-4.1l3.7-1.8C268.2,71.4,269.5,72.9,270.8,74.5z"/>
		<path fill="#FFFFFF" d="M328.9,58.8v4h-10.6v13.5c0,1,0.4,1.6,1.4,1.6h4.4c0.5,0,0.9-0.3,1.1-0.9c0.3-0.6,0.5-2.6,0.6-5.8l3.8,1.2
			c-0.3,4.5-0.8,7.2-1.5,8c-0.7,0.8-1.8,1.2-3.2,1.2h-6.4c-2.8,0-4.2-1.5-4.2-4.4V62.9h-5.9v0.8c-0.2,5.1-1.3,9.2-3.4,12.2
			c-2,2.8-5.2,5-9.7,6.6l-2.2-3.5c4.3-1.5,7.2-3.4,8.7-5.7c1.5-2.5,2.3-5.6,2.5-9.6v-0.8h-9.9v-4H328.9z M325.4,47.1v4h-28v-4H325.4
			z"/>
		<path fill="#FFFFFF" d="M362.6,79.9l-1-3.8l3,0.2c0.9,0,1.4-0.5,1.4-1.5v-3.2h-8.6v10.7h-4.2V71.6h-8.6v7.8h-4.1V67.9h12.8v-2.3
			h-2l-0.8-3.1l1.8,0.2c0.6,0,0.9-0.4,0.9-1.1v-1.1l-2.5,0.7c-0.3-2-0.8-3.8-1.2-5.6l2.2-0.8c0.6,1.6,1.1,3.4,1.5,5.4v-6.4h-4v11.2
			H346V53.9h-4.2v11.7h-3.4v-15h3.2c-0.7-1.4-1.5-2.6-2.3-3.6l3-1.4c0.8,1.2,1.6,2.5,2.4,4l-2.1,1h3.3v-5.2h3.4v5.2h3.2l-2-1.1
			c1-1.4,1.7-2.7,2.3-4l3,1.5c-0.6,1.2-1.3,2.4-2.2,3.6h2.8v3.8c2.4-2.6,4-5.6,4.8-9.1l3.8,0.5c-0.3,1.1-0.6,2.1-1,3.1h8.6v3.6h-1.5
			c-0.8,2.9-2,5.3-3.5,7.3c1.8,1.2,3.8,2.2,6,3.2l-2,3.4c-2.5-1.2-4.7-2.5-6.6-3.9c-1.8,1.6-4,2.8-6.4,3.6l-1.9-3.2
			c2.2-0.6,4-1.6,5.6-2.8c-0.9-0.8-1.6-1.7-2.3-2.6l1.8-2.7c0.8,1,1.8,2,2.9,2.9c1.1-1.5,2-3.2,2.6-5.2h-5c-1.1,1.9-2.4,3.6-4,5.2
			l-2-2.6v7.3c0,1.6-0.6,2.6-1.6,3h2.6v2.6h12.8v7.8c0,2.8-1.4,4.2-4.1,4.2H362.6z M345.5,55.7c-0.2,2.6-0.5,4.9-1,7l-2.6-0.9
			c0.6-1.8,1-4,1.2-6.4L345.5,55.7z"/>
		<path fill="#FFFFFF" d="M399.5,46.6v13.8H390c-0.1,1.2-0.1,2.4-0.2,3.6h10.8c0,7.4-0.2,11.9-0.6,13.6c-0.5,2.8-2.8,4.2-6.8,4.2
			c-0.6,0-1.8-0.1-3.4-0.2L389,78c1.4,0.1,2.6,0.2,3.6,0.2c2,0,3.2-0.8,3.6-2.4c0.2-0.8,0.3-3.4,0.4-7.9h-7.1
			c-0.3,2.3-0.7,4.2-1.1,5.7c-1,3.3-2.8,6.1-5.2,8.6l-2.7-3.5c2-2,3.4-4.3,4.2-7c0.7-2.4,1.2-6.2,1.4-11.3h-3.3V46.6H399.5z
			 M395.4,50.5h-8.7v5.9h8.7V50.5z M407.8,48.8v24.6h-4.1V48.8H407.8z M406,81.9l-0.9-4c1.8,0.2,3.6,0.2,5.2,0.2
			c1.1,0,1.6-0.7,1.6-2V45.4h4.2v31.9c0,3-1.5,4.6-4.4,4.6H406z"/>
		<path fill="#FFFFFF" d="M109.5,106.7v4.1H95.1v13.8H111v4H95.1v13.7h-4.2v-13.7H75.2v-4h15.6v-13.8h-14v-4.1H109.5z M86.9,121.3
			l-3.9,1.9c-1.3-3.3-2.7-6.3-4.1-9l3.9-1.9C84.1,115.1,85.5,118,86.9,121.3z M107.6,114c-1.1,3.1-2.6,6.1-4.4,9l-3.8-1.9
			c1.8-3,3.3-5.9,4.4-8.8L107.6,114z"/>
		<path fill="#FFFFFF" d="M119.7,117.7c2.8-0.4,7-4.6,12.4-12.6l4.3,1.5c-3.1,4.2-6.2,7.9-9.5,11c6.5-0.3,12.8-0.8,19-1.3
			c-1.2-1.8-2.4-3.4-3.7-5l3.8-1.8c3.2,4,6.2,8.4,9.1,13.2l-4.1,2c-0.9-1.6-1.8-3.2-2.7-4.7c-8.3,0.8-17.6,1.3-27.8,1.7L119.7,117.7
			z M150.6,142.4h-4.2v-1.5h-19.1v1.5H123v-17.2h27.6V142.4z M146.3,136.9v-7.6h-19.1v7.6H146.3z"/>
		<path fill="#FFFFFF" d="M173.9,133.8h-6.8v2.5h-3.9v-28.1h10.7V133.8z M170.1,130v-17.9h-3V130H170.1z M179.2,129.6
			c-0.6,4.2-1.2,7.9-2,11l-3.4-1.2c0.9-2.8,1.6-6.3,2.3-10.6L179.2,129.6z M198.1,124.2c0,9-0.5,14.2-1.6,15.7c-1,1.5-3,2.3-6,2.3
			c-1.1,0-2.2,0-3.4-0.1l-0.9-3.7c1.3,0.1,2.4,0.2,3.6,0.2c2.2,0,3.5-0.7,3.9-2.2c0.1-0.5,0.2-1,0.3-1.7l-2.7,1.1
			c-0.5-2.3-1.2-4.6-1.9-6.7l2.8-0.8c0.8,2.2,1.4,4.2,1.8,5.9c0.2-1.6,0.2-3.8,0.2-6.5h-17.9v-21.2h21v3.5h-7.6v2.5h6.9v3.4h-6.9
			v2.6h7v3.4h-7v2.5H198.1z M180.3,109.9v2.5h5.6v-2.5H180.3z M180.3,118.3h5.6v-2.6h-5.6V118.3z M180.3,124.2h5.6v-2.5h-5.6V124.2z
			 M184,138.7l-3.3,0.4c-0.1-4.2-0.2-7.4-0.4-9.6l3-0.4C183.7,131.5,183.9,134.7,184,138.7z M189.1,136.7l-3.2,0.7
			c-0.3-3-0.7-5.7-1.1-8l3-0.6C188.3,131.3,188.7,133.9,189.1,136.7z"/>
		<path fill="#FFFFFF" d="M231.2,111.1c1.6,1.4,2.4,3.3,2.4,5.8c0,2-0.5,3.6-1.5,4.9c-0.4,0.4-1.5,1.5-3.4,3.2
			c-0.7,0.6-1.2,1.2-1.6,2c-0.4,0.8-0.6,1.7-0.6,2.6v0.6h-4.6v-0.6c0-1.5,0.2-2.8,0.8-3.9c0.5-1.1,1.4-2.2,2.8-3.4
			c1.3-1.2,2.1-1.9,2.4-2.3c0.7-0.9,1.1-1.8,1.1-2.8c0-1.3-0.4-2.4-1.1-3.1c-0.8-0.8-1.8-1.1-3.2-1.1c-1.7,0-3,0.5-3.8,1.6
			c-0.7,0.9-1,2.2-1,4h-4.6c0-3,0.8-5.3,2.6-7c1.7-1.7,4-2.5,7-2.5C227.5,109,229.6,109.7,231.2,111.1z M226.4,132.9
			c0.6,0.6,0.9,1.3,0.9,2.2s-0.3,1.6-0.9,2.2c-0.6,0.6-1.4,0.8-2.2,0.8s-1.6-0.3-2.2-0.9c-0.6-0.6-0.9-1.3-0.9-2.2s0.3-1.6,0.9-2.2
			c0.6-0.6,1.3-0.8,2.2-0.8S225.8,132.4,226.4,132.9z"/>
		<path fill="#FFFFFF" d="M259.7,114.9v3.2c-1.2,2-2.6,4-4.2,6h4.6v2.7c-0.5,2.9-1.1,5.3-1.8,7.2c0.3,0.2,0.6,0.4,0.9,0.8
			c1.3,1.2,2.4,2.1,3.6,2.6c1.2,0.4,2.8,0.7,5,0.8c2.2,0,4.6,0,7.4,0c2.9,0,6.6-0.1,11.2-0.3l-1,3.9h-9.8c-2.7,0-5.4-0.1-8.1-0.2
			c-2.7-0.1-4.8-0.4-6.1-1c-1.7-0.7-3.2-1.7-4.5-3.1c-0.3-0.3-0.6-0.4-0.9-0.4c-0.8,0-2,1.7-3.7,5.2l-3-2.8c1.8-3.4,3.6-5.5,5.2-6.1
			c0.7-1.8,1.3-3.7,1.7-5.8h-5.6v-3.1c1.8-2.1,3.4-4,4.6-5.8h-5.2v-3.8H259.7z M259.7,111.1l-2.7,2.7c-1.4-1.8-3.5-3.7-6.1-5.8
			l2.8-2.6C256,107.3,258,109.2,259.7,111.1z M270.9,108.9c-0.4-1.1-0.9-2.1-1.4-3l4.4-0.7c0.4,1.1,0.9,2.3,1.3,3.7h9.9v3.8h-23.6
			v-3.8H270.9z M283.1,125.9v10.5h-19.4v-10.5H283.1z M282.2,114.8v3.3h-17.6v-3.3H282.2z M282.2,120.3v3.3h-17.6v-3.3H282.2z
			 M279,129.2h-11.2v3.7H279V129.2z"/>
		<path fill="#FFFFFF" d="M301.7,142.3h-4v-17.4c-0.9,2.9-1.9,5.5-3.1,7.9l-2-3.6c2.1-3.7,3.6-7.9,4.6-12.6h-3.6v-3.9h4v-7.4h4v7.4
			h3.4v3.9h-3.4v2.1c1.4,1.6,2.7,3.4,4.1,5.4l-2.2,3.4c-0.7-1.4-1.3-2.7-1.8-3.8V142.3z M314.8,130.3v2.6c-1.4,4-4.2,7.1-8.6,9.2
			l-2.4-3.2c3.2-1.3,5.5-3.1,6.9-5.4h-5.2v-3.2H314.8z M311.3,108.9c-0.4-1.1-0.9-2.1-1.4-3l4.1-0.6c0.4,1,0.9,2.3,1.3,3.6h4.7
			c0.5-1.2,0.9-2.4,1.2-3.7l4,0.6c-0.3,1.1-0.7,2.2-1.2,3.2h4.9v3.1h-9.2v1.6h7.9v3h-7.9v1.7h10v3.2h-24v-3.2h10v-1.7h-7.8v-3h7.8
			V112h-9.4v-3.1H311.3z M312.1,138.7l3,0.2c0.6,0,0.9-0.4,0.9-1.2v-8.8h-7.8v-3.1h11.7v3.4c0.2,0.5,0.5,0.9,0.8,1.3
			c2.2-1,4.2-2.5,6.1-4.4l2.6,2.6c-1.9,2-4.1,3.5-6.5,4.6c2,2.1,4.5,3.9,7.5,5.4l-2.6,3.1c-3.2-2-5.8-4.4-7.8-7.2v4.3
			c0,2.2-1.4,3.4-4,3.4h-2.8L312.1,138.7z M324,123.7l-1.1,2.7c-3.4-1-6.9-1.7-10.6-2.2l1.3-2.5C317.3,122.1,320.7,122.8,324,123.7z
			"/>
		<path fill="#FFFFFF" d="M338.3,141.9l-0.9-4c1,0.2,2,0.2,3,0.2c0.9,0,1.4-0.5,1.4-1.4v-8.2c-1.4,0.6-2.8,1.1-4.3,1.6l-1.1-4.2
			c1.8-0.4,3.6-1,5.4-1.7v-8h-4.4v-4h4.4v-6.8h4.2v6.8h4.1v4h-4.1v6.2c1.3-0.7,2.6-1.4,3.9-2.2v4.3c-1.3,0.7-2.6,1.4-3.9,2.1v11.2
			c0,2.7-1.4,4.1-4.1,4.1H338.3z M370.7,121.9v3.9c-1.1,3.5-3,6.5-5.5,9c2.5,1.5,5.4,2.8,9,4l-2.2,3.6c-3.8-1.5-7.1-3.2-9.8-5
			c-3,2.2-6.7,3.9-11.1,5.2l-2.3-3.6c3.9-1.1,7.2-2.6,9.9-4.4c-2.8-2.6-4.6-5.5-5.6-8.6h-2.2v-4.1H370.7z M368.3,106.5v8.2
			c0,0.8,0.5,1.3,1.6,1.3h2.9v3.9h-4c-3.1,0-4.6-1.4-4.6-4.2v-5.3h-6.5v1.6c0,3.9-1.9,6.9-5.6,9.1l-2.8-3.2c2.8-1.3,4.3-3.1,4.3-5.4
			v-6H368.3z M361.7,132.3c2.1-1.8,3.7-4,4.8-6.3h-9.6C357.8,128.3,359.4,130.5,361.7,132.3z"/>
		<path fill="#FFFFFF" d="M406.7,111.6c-0.2,0.5-0.3,1-0.5,1.5c2.9,2.6,6.4,4,10.6,4.5l-1.7,3.5c-1-0.2-2-0.4-2.9-0.6v16.3h-6.8
			c3.9,0.6,7.6,1.5,11.1,2.5l-1.4,3.3c-4.2-1.5-8.7-2.6-13.4-3.4l1.2-2.4h-9l1.6,2.1c-3,1.5-7.2,2.8-12.7,3.7l-1.9-3.2
			c4.8-0.7,8.5-1.6,11.2-2.6h-6.8V120h9.8l-1.5-2.4c5.3-0.9,8.4-3.2,9.4-6.8L406.7,111.6z M392.9,114.5v3.6h-11.6v-3.6H392.9z
			 M392,107.3v3.5h-10v-3.5H392z M408.2,124.8v-1.7h-18.5v1.7H408.2z M408.2,129.1v-1.6h-18.5v1.6H408.2z M408.2,131.7h-18.5v1.8
			h18.5V131.7z M394.8,115l-2.3-3c2.8-1.9,4.7-4.2,5.7-7l3.8,0.5c-0.2,0.6-0.4,1.2-0.7,1.8h13.9v2.9c-1,2.1-2.2,3.9-3.4,5.3
			l-2.8-2.3c0.7-0.7,1.3-1.5,1.9-2.4h-11.6C398.1,112.3,396.6,113.7,394.8,115z M411,120c-2.4-1-4.6-2.3-6.4-4.2
			c-1.6,1.9-3.7,3.3-6.5,4.2H411z"/>
		<path fill="#FFFFFF" d="M90.3,202l-1-4c2.1,0.2,4,0.2,5.9,0.2c0.9,0,1.4-0.6,1.4-1.7v-20.2h-0.4c-3.9,8.2-10.5,14.9-19.6,20.2
			l-2.2-3.6c8-4.3,13.9-9.9,17.6-16.6H75.2v-4h21.5v-6.8h4.2v6.8h9.6v4h-9.6v21.3c0,3-1.4,4.4-4.2,4.4H90.3z"/>
		<path fill="#FFFFFF" d="M119.8,202.4l-3.2-2.9c1.5-2.6,2.3-6,2.4-10.1v-10.2h15.8v19.8c0,2-1.2,3.1-3.7,3.1h-3.6l-1.1-3.8
			c1.2,0.1,2.4,0.2,3.4,0.2c0.6,0,0.9-0.3,0.9-0.8v-3.4c-2.3,0.5-4.8,1-7.3,1.4l-0.8-3C122.3,196.6,121.4,199.8,119.8,202.4z
			 M137.3,176.3l-3.3,2.4c-0.4-0.8-0.8-1.6-1.3-2.4c-4.2,0.6-9.2,1.1-14.9,1.4l-1.1-3.5c0.7-0.2,1.4-0.6,1.9-1
			c2.4-2.8,4.2-5.5,5.4-8l4,1.2c-1.6,3.1-3.4,5.6-5.4,7.6c2.6-0.2,5.4-0.4,8.4-0.8c-0.6-1-1.4-2.1-2.1-3.1l3.2-2
			C134.3,171.3,136.1,174,137.3,176.3z M128.6,189.4c-1.3-0.3-2.7-0.6-4.1-0.8c-0.5-0.1-1-0.2-1.5-0.2v0.8c0,1-0.1,2-0.2,2.9
			c2.7-0.2,5.4-0.6,8-1.2v-8H123v2.3l3.2,0.5c1,0.2,2.2,0.4,3.7,0.7L128.6,189.4z M141.8,201.7c-2.9,0-4.3-1.3-4.3-3.8v-13.4h4.1
			v3.5l10-0.7v3.8l-10,0.7v5.2c0,0.7,0.4,1,1.4,1h4.6c0.6,0,1-0.2,1.2-0.6c0.3-0.4,0.5-1.7,0.6-3.9l3.8,1.2c-0.3,3.4-0.9,5.4-1.6,6
			c-0.7,0.6-1.8,0.9-3.3,0.9H141.8z M141.7,166v4l9.8-0.7v3.8l-9.8,0.7v4.4c0,0.8,0.4,1.2,1.3,1.2h9.4v3.8h-10.6
			c-2.8,0-4.2-1.4-4.2-4V166H141.7z"/>
		<path fill="#FFFFFF" d="M164.4,184.7v-3.8c-0.9,0.8-1.7,1.6-2.6,2.2l-3.3-2.8c5-3.6,8.6-8.4,11-14.4l3.9,1.6
			c-2.3,5.5-5.3,10-8.8,13.4h25c-0.1,5.2-0.4,9.4-0.8,12.6c-0.4,3.2-1.2,5.4-2.2,6.7c-1,1.2-2.6,1.9-4.9,2h-7.4l-1.1-4
			c2.2,0.1,4.4,0.2,6.5,0.2c2.2,0,3.7-0.8,4.4-2.5c0.7-1.7,1.1-5.4,1.4-11h-9.5c-1,4.2-2.2,7.6-3.8,10c-2,2.8-5,5.4-8.9,7.6
			l-2.6-3.3c3.4-1.8,6-3.9,7.8-6.2c1.5-2.1,2.6-4.8,3.4-8.2H164.4z M184.8,166.5c2.1,5.4,5.7,9.8,10.9,13.1l-2.8,3.8
			c-4.8-3.2-8.4-7.5-10.9-12.8H177v-4.1H184.8z"/>
		<path fill="#FFFFFF" d="M218.8,198.5c0,2.3-1.4,3.5-4.1,3.5h-3.6l-1-3.6c1.3,0.1,2.4,0.2,3.5,0.2c1,0,1.4-0.4,1.4-1.3v-2.6
			c-2,0.7-4.2,1.4-6.5,2l-1-3.4c2.8-0.6,5.3-1.3,7.5-2.1v-6.6h-7.6v1.7c2.2,0.3,4.3,0.8,6.4,1.4l-1.2,3c-1.7-0.6-3.4-1-5.2-1.4
			c-0.2,5.4-1.3,9.8-3.5,13.3l-2.9-2.7c1.7-3,2.6-6.7,2.6-11.3v-7.6h15.2V198.5z M231.3,191.3c1.8,2.9,4.1,5.4,6.7,7.7l-2.8,3.3
			c-2.4-2.2-4.4-4.6-6.1-7.2c-2.1,2.9-4.6,5.3-7.6,7.3l-2.3-3.6c3.2-1.9,5.8-4.4,7.7-7.4c-1.4-2.7-2.6-5.6-3.5-8.8
			c-0.6,1-1.1,1.9-1.7,2.8l-2.5-3.2c0.6-0.9,1-1.9,1.5-2.9h-19.4v-3.8h4v-3h-3.4v-3.7h3.4v-3.5h3.8v3.5h4.3v-3.5h3.8v3.5h3.4v3.7
			h-3.4v3h3.9v2.4c1.4-3.6,2.4-7.8,3-12.7l4,0.7c-0.2,1.7-0.6,3.4-0.9,5h9.7v4h-2C234.8,181.3,233.5,186.7,231.3,191.3z
			 M213.3,175.5v-3H209v3H213.3z M228.9,187.1c1.4-3.5,2.2-7.6,2.4-12.2h-4.9c-0.7,2.3-1.5,4.4-2.4,6.3l2.2-1.2
			C226.8,182.5,227.7,184.9,228.9,187.1z"/>
		<path fill="#FFFFFF" d="M274.5,166.3V184c0,5.7,0.1,9.4,0.4,11c0.2,1.6,0.5,2.4,0.8,2.4c0.4,0,0.7-1.7,1-5.1l3.4,1.6
			c-0.6,3.2-1.1,5.4-1.7,6.4c-0.6,1-1.4,1.6-2.2,1.6c-2,0-3.4-1.2-4.2-3.6c-1-2.4-1.4-7.2-1.4-14.3v-13.8h-21.6v13.1
			c-0.1,7.6-1.1,14-3.1,19.2l-3.3-2.7c1.5-4.4,2.3-9.9,2.4-16.5v-17H274.5z M269.2,172.5v3.7h-7.4v2.6h6.8v13.1h-6.8v4.4
			c1.2-0.2,2.2-0.4,3.2-0.7c-0.3-0.7-0.7-1.4-1-2l3.3-1.4c1.6,2.5,2.9,5.2,4,8l-3.8,1.6c-0.4-1-0.7-2-1-2.8c-3.8,1-9.3,1.8-16.2,2.3
			l-1.2-3.8c3.2-0.1,6.2-0.3,8.7-0.6v-5h-6.9v-13.1h6.8v-2.6h-7.4v-3.7H269.2z M257.7,182.4h-3.1v5.9h3.1V182.4z M264.9,182.4h-3.2
			v5.9h3.2V182.4z"/>
		<path fill="#FFFFFF" d="M298.3,166.5v3.2c-0.4,1.3-0.8,2.6-1.2,3.9c4.4-2.1,7.9-4.8,10.3-8.2h3.4c2.1,3.1,5.6,5.8,10.7,8.2
			l-2.2,3.4c-1.4-0.6-2.7-1.4-3.8-2.1v2h-13v-1.7c-1.1,0.7-2.2,1.3-3.4,1.8l-2.1-3.2c-0.8,2.2-1.6,4.4-2.4,6.6
			c2.2,3.7,3.4,6.9,3.6,9.6c0,1.9-0.4,3.3-1.1,4.1c-1.1,1-3.1,1.6-5.8,1.6l-1.3-4c0.9,0.1,1.6,0.2,2.2,0.2c0.8-0.1,1.3-0.2,1.6-0.5
			c0.2-0.2,0.4-0.7,0.4-1.4c0-2.6-1.2-5.6-3.5-8.9c1.6-4,2.8-7.6,3.6-10.8h-4.4v32h-4.1v-35.8H298.3z M299.1,202.1l-2.8-2.5
			c3.1-2.4,5.4-5.5,6.8-9.4l3.4,1.4c-0.4,0.8-0.7,1.6-1.1,2.4c1.3,0.9,2.4,1.8,3.4,2.7l-2.6,2.6c-0.6-0.8-1.4-1.6-2.4-2.5
			C302.4,198.9,300.8,200.7,299.1,202.1z M308.4,178.9v10.8h-9.5v-10.8H308.4z M305,182.1h-2.8v4.4h2.8V182.1z M309.1,169.2
			c-1.2,1.6-2.6,3-4,4.2h8.1C311.5,172.1,310.1,170.7,309.1,169.2z M309.6,202.1l-2.8-2.5c3.1-2.3,5.4-5.4,6.8-9.3l3.4,1.4
			c-0.4,1-0.9,1.9-1.3,2.8c2.2,1.6,4.2,3.1,5.8,4.7l-2.7,2.6c-1.2-1.4-2.8-3-4.7-4.6C312.7,199.2,311.2,200.9,309.6,202.1z
			 M319.8,178.9v10.8h-9.6v-10.8H319.8z M316.4,182.1h-2.8v4.4h2.8V182.1z"/>
		<path fill="#FFFFFF" d="M336.8,197.7h-3.4v-2.4h-2.2v3.2h-3.4v-30.7h9.1V197.7z M333.4,191.9v-20.7h-2.2v20.7H333.4z M348.3,166.6
			v2.8c-0.6,3.5-1.4,7.2-2.3,11.2c1.4,3.6,2.2,6.6,2.3,9.2c0,2-0.3,3.4-0.8,4.2c-0.9,1-2.3,1.6-4.4,1.6l-1-3.2v9.8h-3.4v-35.7H348.3
			z M343.9,192.2c0.3-0.1,0.6-0.3,0.7-0.6c0.1-0.3,0.2-0.9,0.2-1.8c0-2.6-0.8-5.5-2.2-8.7c1-4.2,1.7-7.9,2.3-11.2h-2.8v22
			C342.8,192.1,343.4,192.2,343.9,192.2z M357.2,174.2v18h-8v-18H357.2z M363.8,166.7v3.8h-1.4v27.5c0,2.6-1.4,4-4.2,4H354l-0.8-3.5
			c1.3,0.2,2.6,0.2,3.8,0.2s1.8-0.5,1.8-1.6v-26.6h-9.1v-3.8H363.8z M354.2,177h-2v12.4h2V177z"/>
		<path fill="#FFFFFF" d="M389.3,192.9c0.6,0.6,0.9,1.3,0.9,2.2s-0.3,1.6-0.9,2.2c-0.6,0.6-1.4,0.8-2.2,0.8s-1.6-0.3-2.2-0.9
			c-0.6-0.6-0.9-1.3-0.9-2.2s0.3-1.6,0.9-2.2c0.6-0.6,1.3-0.8,2.2-0.8S388.7,192.4,389.3,192.9z M389.8,169.6l-1,20.4h-3.4l-1-20.4
			H389.8z"/>
	</g>
	<path fill="#FFFFFF" d="M73.1,86.2c121.6-1.4,243.3,0.4,364.6,5.5c-0.1,0,0.1-2.5,0-2.5c-121.4-5-243-6.9-364.6-5.5
		C73.1,83.7,73.1,86.2,73.1,86.2L73.1,86.2z"/>
	<path fill="#FFFFFF" d="M73.1,142.9c121.4,3.9,243,5,364.6,3.1c0.1,0,0-2.5,0-2.5c-121.6,1.9-243.2,0.9-364.6-3.1
		C73.2,140.4,73,142.9,73.1,142.9L73.1,142.9z"/>
	<path fill="#FFFFFF" d="M73.1,212.1c105.9,3.9,212.1,5,318.2,3.1c0.1,0,0-2.5,0-2.5c-106.1,1.9-212.3,0.9-318.2-3.1
		C73.2,209.6,73,212.1,73.1,212.1L73.1,212.1z"/>
	<path fill="#D65B51" d="M286.3,238.8c0,0,29.2,43.7,74.6,50.7c0,0-20.9-21-12.7-62L286.3,238.8z"/>
</g>
<g>
</g>
<g>
</g>
<g>
</g>
<g>
</g>
<g>
</g>
<g>
</g>
<g>
</g>
<g>
</g>
<g>
</g>
<g>
</g>
<g>
</g>
<g>
</g>
<g>
</g>
<g>
</g>
<g>
</g>
</svg>
