<?xml version="1.0" encoding="utf-8"?>
<!-- Generator: Adobe Illustrator 18.0.0, SVG Export Plug-In . SVG Version: 6.00 Build 0)  -->
<!DOCTYPE svg PUBLIC "-//W3C//DTD SVG 1.1//EN" "http://www.w3.org/Graphics/SVG/1.1/DTD/svg11.dtd">
<svg version="1.1" id="Layer_1" xmlns="http://www.w3.org/2000/svg" xmlns:xlink="http://www.w3.org/1999/xlink" x="0px" y="0px"
	 viewBox="0 0 460.7 160.5" enable-background="new 0 0 460.7 160.5" xml:space="preserve">
<g>
	<path fill="#FFFFFF" d="M407.3,126.5H53.4C24,126.5,0,102.5,0,73.1l0-19.6C0,24,24,0,53.4,0l353.8,0c29.4,0,53.4,24,53.4,53.4v19.6
		C460.7,102.5,436.7,126.5,407.3,126.5z"/>
	<g>
		<path fill="#757679" d="M48.4,50.6l-3.2-2.1c2.1-2.5,3.5-5.2,4.4-8l3.6,0.8c-0.2,0.6-0.4,1.2-0.6,1.8h8.4v3.1h-5.4
			c0.7,1,1.3,1.9,1.8,2.8l-3.4,1.3c-0.7-1.4-1.5-2.7-2.4-4h-0.4C50.3,47.8,49.4,49.3,48.4,50.6z M59.5,56.8v-2.6H47.2V51h12.3v-1.9
			h3.7V51h12.3v3.2H63.2v2.6h10.9V60H71v2.6h6.2v3.3H71v4.6c0,2.4-1.3,3.6-4,3.6h-5l-0.8-3.5c1.6,0.1,3.1,0.3,4.6,0.3
			c1,0,1.5-0.4,1.5-1.2v-3.7H45.5v-3.3h21.7V60H48.8v-3.2H59.5z M58.2,71l-3,2.1c-1-1.5-2.4-3.1-4.2-4.9l3-1.9
			C55.8,68,57.2,69.6,58.2,71z M63.8,49.2l-3.1-1.9c1.5-2.2,2.6-4.4,3.2-6.8l3.5,0.8c-0.2,0.6-0.4,1.2-0.6,1.8h9.6v3.1h-5.5
			c0.7,1,1.3,1.9,1.8,2.8l-3.3,1.3c-0.7-1.4-1.5-2.8-2.4-4.1h-1.5C65.1,47.2,64.5,48.2,63.8,49.2z"/>
		<path fill="#757679" d="M86.2,50.6L83,48.5c2.1-2.5,3.5-5.2,4.4-8l3.6,0.8c-0.2,0.6-0.4,1.2-0.6,1.8h8.4v3.1h-5.4
			c0.7,1,1.3,1.9,1.8,2.8l-3.4,1.3c-0.7-1.4-1.5-2.7-2.4-4h-0.4C88.1,47.8,87.2,49.3,86.2,50.6z M97.3,56.8v-2.6H85V51h12.3v-1.9
			h3.7V51h12.3v3.2H101v2.6h10.9V60h-3.1v2.6h6.2v3.3h-6.2v4.6c0,2.4-1.3,3.6-4,3.6h-5L99,70.5c1.6,0.1,3.1,0.3,4.6,0.3
			c1,0,1.5-0.4,1.5-1.2v-3.7H83.3v-3.3H105V60H86.6v-3.2H97.3z M96,71l-3,2.1c-1-1.5-2.4-3.1-4.2-4.9l3-1.9C93.6,68,95,69.6,96,71z
			 M101.6,49.2l-3.1-1.9c1.5-2.2,2.6-4.4,3.2-6.8l3.5,0.8c-0.2,0.6-0.4,1.2-0.6,1.8h9.6v3.1h-5.5c0.7,1,1.3,1.9,1.8,2.8l-3.3,1.3
			c-0.7-1.4-1.5-2.8-2.4-4.1h-1.5C102.9,47.2,102.3,48.2,101.6,49.2z"/>
		<path fill="#757679" d="M140,56.4c0,3.5-1.7,6.2-4.9,8l-1.3-2.1c2.2-1.3,3.3-3,3.5-5c-0.2,0-0.4,0.1-0.7,0.1c-0.8,0-1.4-0.3-2-0.8
			c-0.5-0.5-0.8-1.2-0.8-1.9c0-0.8,0.3-1.5,0.8-2c0.5-0.5,1.2-0.8,2-0.8C138.9,52,140,53.4,140,56.4z"/>
		<path fill="#757679" d="M165,53.3c0,7.8-1.4,14.5-4.2,20.2l-2.8-2.6c2.2-4.5,3.3-10.4,3.3-17.6V41.8h28.4v8.2H165V53.3z
			 M166.9,66.2l-2.4-2.2c1.6-1.3,2.8-2.8,3.6-4.8c-0.4,0.1-0.9,0.2-1.3,0.3l-0.9-2.9c3.1-0.4,5.9-0.9,8.3-1.5v2.6
			c-1.6,0.4-3.3,0.9-5.3,1.3l2.1,0.8c-0.1,0.4-0.3,0.8-0.5,1.2h5.3v-1.9h3.7v1.9h9.6v3.1h-9.6v2.3h11.5v3.2h-11.5v4.6h-3.7v-4.6
			h-11.3v-3.2h11.3v-2.3h-7C168.2,65,167.6,65.6,166.9,66.2z M165,45V47h21.1V45H165z M174.4,52.3l-1.1,2.6
			c-2.3-0.8-4.6-1.4-7.1-1.9l1.3-2.4C169.8,51,172.1,51.6,174.4,52.3z M179.5,50.7v7.7h-3.6v-7.7H179.5z M189.5,57.2l-1.2,2.8
			c-2.4-1-5-1.8-7.6-2.3l1.3-2.5C184.6,55.7,187.2,56.3,189.5,57.2z M180.8,52.2c2.7-0.4,5.3-1,7.7-1.8l0.9,2.7
			c-2.3,0.6-4.9,1.2-7.7,1.7L180.8,52.2z"/>
		<path fill="#757679" d="M198.6,57.8l-2.6-3.1c2.5-3,4.7-7.2,6.6-12.8l3.6,0.8c-0.6,1.8-1.3,3.6-1.9,5.1h7.3v-7.3h3.8v7.3H227v3.7
			h-11.7v7.8H229v3.7h-13.7v10.8h-3.8V63.2h-15v-3.7h15v-7.8h-9C201.3,54,200,56,198.6,57.8z"/>
		<path fill="#757679" d="M253.4,56.4c0,3.5-1.7,6.2-4.9,8l-1.3-2.1c2.2-1.3,3.3-3,3.5-5c-0.2,0-0.4,0.1-0.7,0.1
			c-0.8,0-1.4-0.3-2-0.8c-0.5-0.5-0.8-1.2-0.8-1.9c0-0.8,0.3-1.5,0.8-2c0.5-0.5,1.2-0.8,2-0.8C252.3,52,253.4,53.4,253.4,56.4z"/>
		<path fill="#757679" d="M288.5,60.9c-1.9,0.6-3.9,1.2-6,1.8V70c0,2.4-1.3,3.6-3.8,3.6h-4.1l-0.8-3.6c1.3,0.1,2.4,0.2,3.6,0.2
			c0.8,0,1.3-0.4,1.3-1.2v-5.4c-2.1,0.4-4.2,0.8-6.4,1.2l-0.5-3.8c2.4-0.4,4.8-0.8,7-1.3v-6.2h-7V50h7v-3.3
			c-1.7,0.4-3.5,0.6-5.4,0.9l-0.8-3.6c5-0.5,9.4-1.6,13.3-3.2l1.3,3.5c-1.5,0.5-3,1-4.6,1.4V50h7.4c-0.2-2.8-0.3-5.8-0.3-9.1h3.8
			c0,3.5,0.1,6.5,0.4,9.1h10.8v3.6h-10.5c0.2,2.3,0.5,4.2,0.9,5.8c0.1,0.6,0.3,1.1,0.4,1.6c1.5-1.8,2.8-3.9,3.9-6.1l3.2,1.7
			c-1.6,3.2-3.5,6.1-5.7,8.5c0.4,0.9,0.8,1.6,1.2,2.2c1,1.6,1.8,2.4,2.3,2.4c0.4,0,0.8-1.8,1.2-5.4l3.3,1.8c-0.9,5.1-2.3,7.7-4,7.7
			c-1.6,0-3.2-1.1-4.9-3.2c-0.6-0.8-1.3-1.8-1.8-2.8c-2.4,2-5.2,3.6-8.2,4.8l-2.1-3.2c3.3-1.2,6.2-3,8.7-5.2
			c-0.4-1.2-0.8-2.3-1.1-3.6c-0.5-1.9-0.9-4.2-1.2-6.8h-7.7v5.3c2.1-0.5,4.1-1.1,6-1.8V60.9z M303.9,45.9l-2.7,2.7
			c-1.5-1.6-3.6-3.2-6.3-5l2.5-2.4C299.9,42.7,302.1,44.3,303.9,45.9z"/>
		<path fill="#757679" d="M318.5,49.5v2.9c-1,1.8-2.3,3.6-3.7,5.4h4.1v2.5c-0.5,2.6-1,4.6-1.7,6.3c0.3,0.2,0.5,0.4,0.8,0.7
			c1.2,1.1,2.3,1.8,3.3,2.3c1,0.4,2.5,0.6,4.5,0.7c2,0,4.2,0,6.8,0c2.7,0,6.2-0.1,10.5-0.3l-0.9,3.5H333c-2.5,0-4.9-0.1-7.4-0.1
			c-2.4-0.1-4.3-0.4-5.6-0.9c-1.5-0.6-2.9-1.5-4.1-2.8c-0.2-0.3-0.5-0.4-0.8-0.4c-0.6,0-1.7,1.6-3.2,4.8l-2.7-2.5
			c1.6-3.2,3.1-5,4.6-5.6c0.6-1.6,1.1-3.3,1.5-5.1h-4.9v-2.8c1.6-1.9,2.9-3.6,4-5.2h-4.6v-3.4H318.5z M318.2,46l-2.4,2.4
			c-1.3-1.6-3.1-3.3-5.5-5.2l2.4-2.3C315,42.6,316.8,44.3,318.2,46z M339.1,53.6v6.8h-0.5l2.3,1.4c-0.6,0.9-1.4,1.8-2.4,2.8
			c1.1,0.7,2.1,1.4,3,2.1l-2.4,2.4c-2.2-1.9-5.1-4-9-6.3l2.2-2.1c1.3,0.7,2.6,1.4,3.7,2.1c0.9-1,1.6-1.9,2.1-2.6h-7.9
			c-0.7,0.8-1.5,1.5-2.5,2.2V66c1.7-0.3,3.3-0.7,5-1.1l0.6,2.9c-2.9,0.6-5.8,1.1-8.8,1.5l-1-2.6c0.6-0.2,1-0.6,1-1v-1.3
			c-1.1,0.5-2.3,1-3.6,1.5l-1.7-2.9c2.8-0.8,5-1.7,6.6-2.8h-3.5v-6.8H339.1z M341.6,49.5v3h-22v-3H341.6z M339.9,41.6v6.9h-18.5
			v-6.9H339.9z M326.7,44.1h-2.2V46h2.2V44.1z M335.7,56.2h-10.3v1.5h10.3V56.2z M331.7,44.1h-2.2V46h2.2V44.1z M336.7,44.1h-2.2V46
			h2.2V44.1z"/>
		<path fill="#757679" d="M356.9,60.9h-3.8v-8.2c-1.4,2.3-3,4.5-4.9,6.6l-1.4-3.6c2.5-2.2,4.6-4.6,6.1-7.5h-5.4v-3.5h5.5v-3.6h3.8
			v3.6h4.2v3.5h-4.2v1.1c1.8,1.1,3.5,2.4,5.3,3.8l-2.1,3.2c-1.2-1.5-2.3-2.7-3.2-3.6V60.9z M354,63.5c-0.9,3.5-2.1,6.5-3.6,9
			l-3.2-2.1c1.5-2.4,2.5-5,3.1-7.8L354,63.5z M359.6,73.3c-2.7,0-4.1-1.4-4.1-4.1v-6.8h3.8v6c0,0.9,0.5,1.3,1.4,1.3h7.5
			c0.5,0,0.9-0.2,1.2-0.5c0.3-0.4,0.5-1.5,0.6-3.4l3.6,1.2c-0.3,3.1-0.8,5-1.5,5.5c-0.7,0.5-1.7,0.8-3.1,0.8H359.6z M367.9,65.9
			l-3,2.1c-0.9-1.4-2.2-3-3.7-4.8l2.9-1.8C365.7,63.2,367,64.7,367.9,65.9z M378,41.9v18.8H363V41.9H378z M374.3,47.3v-2.1h-7.6v2.1
			H374.3z M374.3,52.3v-2h-7.6v2H374.3z M374.3,55.3h-7.6v2.1h7.6V55.3z M380.7,69.4l-3.2,2.2c-1.3-2.4-3.1-5.1-5.3-8.2l3.1-1.9
			C377.6,64.5,379.4,67.1,380.7,69.4z"/>
		<path fill="#757679" d="M400.3,56.5h-9.9V74h-3.7V41.9h13.6V56.5z M396.5,45.2h-6.2v2.5h6.2V45.2z M390.4,53.2h6.2v-2.4h-6.2V53.2
			z M408.8,58.4V70h-14.5V58.4H408.8z M405.1,61.7h-7.2v4.9h7.2V61.7z M402.6,56.5V41.9h13.8v28.4c0,2.4-1.3,3.7-3.7,3.7
			c-1.2,0-2.3-0.1-3.4-0.1l-1-3.6c1.1,0.1,2.1,0.2,3,0.2c0.9,0,1.4-0.5,1.4-1.4V56.5H402.6z M412.7,45.2h-6.4v2.4h6.4V45.2z
			 M406.3,53.2h6.4v-2.4h-6.4V53.2z"/>
	</g>
	<linearGradient id="SVGID_1_" gradientUnits="userSpaceOnUse" x1="45.3252" y1="78.6662" x2="422.9363" y2="78.6662">
		<stop  offset="0" style="stop-color:#B3B5B8"/>
		<stop  offset="1" style="stop-color:#A9ABAE"/>
	</linearGradient>
	<path fill="url(#SVGID_1_)" d="M45.3,77.5c125.9-1.3,251.9,0.4,377.5,4.9c-0.1,0,0.1-2.2,0-2.3C297.2,75.7,171.3,74,45.3,75.3
		C45.3,75.3,45.3,77.5,45.3,77.5L45.3,77.5z"/>
	<path fill="#FFFFFF" d="M253.6,114.9c0,0,26.3,39.3,67.2,45.6c0,0-18.8-18.9-11.5-55.8L253.6,114.9z"/>
</g>
<g>
</g>
<g>
</g>
<g>
</g>
<g>
</g>
<g>
</g>
<g>
</g>
<g>
</g>
<g>
</g>
<g>
</g>
<g>
</g>
<g>
</g>
<g>
</g>
<g>
</g>
<g>
</g>
<g>
</g>
</svg>
