<?xml version="1.0" encoding="utf-8"?>
<!-- Generator: Adobe Illustrator 18.0.0, SVG Export Plug-In . SVG Version: 6.00 Build 0)  -->
<!DOCTYPE svg PUBLIC "-//W3C//DTD SVG 1.1//EN" "http://www.w3.org/Graphics/SVG/1.1/DTD/svg11.dtd">
<svg version="1.1" id="Layer_1" xmlns="http://www.w3.org/2000/svg" xmlns:xlink="http://www.w3.org/1999/xlink" x="0px" y="0px"
	 viewBox="0 0 337.3 198.8" enable-background="new 0 0 337.3 198.8" xml:space="preserve">
<path fill="#78B18C" d="M285,151.2c-1.4-2.5-1.4-5-1.2-7.8c1-9.9,2-19.7,3-29.6c0.8-7.5,1.5-15.1,2.3-22.6c-3.1,0.3-6.3,0.7-9.4,1.1
	c-1.8,17.4-3.6,34.8-5.4,52.3c-0.4,4.3-1.1,8.3-5.1,10.9c-4.7,3-11.2,1.8-14.5-2.7c-1.9-2.6-2.2-5.5-1.9-8.5
	c0.9-9.3,1.9-18.5,2.9-27.8c0.7-7.1,1.5-14.1,2.2-21.2c-2.7,0.4-5.4,0.8-8.1,1.2c-1.9,19.1-3.8,38.3-5.7,57.4
	c-0.4,4.3-0.4,8.8-3.8,12c-7.2,6.7-18.8,0.7-18-9c0.9-10.5,2.1-20.9,3.1-31.4c0.8-8.4,1.7-16.8,2.5-25.1c-3.5,0.7-7,1.4-10.5,2.1
	c-2.3,19.4-4.6,38.8-6.9,58.1c-0.5,4.1-0.6,7.9-3.9,10.9c-4.7,4.3-12.2,3.5-16-1.6c-1.9-2.6-2.1-5.5-1.8-8.6
	c1.2-10.1,2.4-20.3,3.6-30.4c0.9-7.8,1.8-15.5,2.8-23.3c-5.8,1.4-11.5,2.9-17.3,4.5c-0.5,17-1,34-1.4,51c-0.1,4.1-0.1,8.1-3.2,11.3
	c-6.9,6.9-18.3,1.6-18.4-7.9c-0.1-8.8,0.5-17.7,0.7-26.5c0.2-7.2,0.4-14.4,0.6-21.5c-2.8,0.9-5.5,1.8-8.3,2.7
	c-0.4,15.7-0.8,31.5-1.2,47.2c-0.1,3.7,0,7.5-2.8,10.6c-6.6,7.3-18.6,2.5-18.8-7.2c-0.2-7.9,0.4-15.9,0.6-23.7
	c0.2-6.4,0.3-12.8,0.5-19.2c-3.6,1.4-7.3,2.8-10.9,4.2c0.8,14.3,1.7,28.7,2.5,43c0.2,3.7,0.3,7.3-2.4,10.4
	c-6.4,7.5-18.1,2.9-18.9-6.5c-0.6-7-0.8-14.1-1.2-21.1c-0.3-5.6-0.7-11.1-1-16.7c-2.4,1.1-4.7,2.2-7.1,3.3
	c-0.3,11.6-0.6,23.1-0.9,34.7c-0.1,3-0.2,5.9-2,8.5c-4.4,6.4-14.2,6-18.1-0.7c-1.6-2.7-1.4-5.5-1.4-8.4c0.1-3.6,0.2-7.2,0.3-10.8
	c0.1-4,0.2-8,0.3-12c-3,1.7-6.1,3.4-9,5.2c-1.6,8.6-3.3,17.2-4.9,25.7c-0.3,1.3-0.5,2.6-0.9,3.9c-1.8,5.1-7.3,8.3-12.7,7
	c-5.4-1.4-8.8-6.5-8.1-12c0.2-1.6,0.6-3.2,0.9-4.9c0.2-1.2,0.5-2.4,0.7-3.6c-3,2.2-6,4.5-9,6.8c-0.5,0.4-0.9,0.8-1.4,1.2
	c-0.1,0.1-0.6,0.5-0.8,0.6c-0.4,0.4-0.8,0.7-1.3,1.1c-1.7,1.5-3.3,2.8-5.5,3.4c-9.4,2.7-17.2-8.3-11.7-16.4c1.9-2.8,5.1-4.9,7.6-7
	c4.1-3.3,8.3-6.5,12.6-9.5c-1-0.3-2-0.6-3-1c-5.6-1.8-12.4-3-14.4-9.4c-1.7-5.3,1.2-11.3,6.5-13.2c2.6-1,5.3-0.8,7.9,0.1
	c5,1.6,10,3.2,14.9,4.9c3.8,1.2,7.7,2.5,11.5,3.7c2.6-1.5,5.2-3,7.8-4.5c-2.4-1.2-4.7-2.4-7.1-3.6c-3.4-1.7-6.8-3.4-10.2-5.2
	c-2-1-4.2-1.9-5.9-3.3c-6.3-5.2-4.3-15.6,3.3-18.4c3.6-1.3,7-0.2,10.2,1.4c6.3,3.2,12.6,6.4,18.9,9.6c4.8,2.4,9.5,4.8,14.3,7.3
	c1.8-0.9,3.7-1.8,5.5-2.6c-9.5-6.5-18.9-13-28.4-19.6c-2.7-1.8-4.5-4.2-5.1-7.4c-0.8-4.5,1.4-9,5.3-11.2c4.3-2.4,8.7-1.3,12.4,1.3
	c7.2,4.9,14.4,9.9,21.6,14.8c5.8,4,11.5,7.9,17.3,11.9c3.3-1.3,6.5-2.6,9.8-3.9c-12.3-9.3-24.7-18.6-36.9-28.1
	c-6.5-5-5.8-15.4,2.2-18.7c5.2-2.2,9.4,0.5,13.3,3.5c8.6,6.5,17.2,13.1,25.8,19.6c6.6,5,13.1,10,19.7,15c2.3-0.8,4.7-1.5,7-2.3
	c-12-11.1-24-22.2-36-33.3c-1.5-1.4-2.9-2.9-3.6-4.9c-2.1-5.5,0.7-11.8,6.2-13.9c5.5-2.1,9.7,0.7,13.4,4.2
	c8.2,7.6,16.4,15.2,24.6,22.7c6.5,6,12.9,11.9,19.4,17.9c5.6-1.5,11.2-3,16.8-4.4c-12.8-13.5-25.5-27.1-38.3-40.6
	c-1-1.1-2.2-2.2-2.9-3.4c-3.4-5.7-0.8-13.3,5.4-15.6c5.9-2.2,10.2,1.2,13.9,5.1c8.6,9.1,17.2,18.2,25.7,27.3
	c6.8,7.2,13.6,14.5,20.4,21.7c3.5-0.7,7-1.5,10.6-2.1c-11.1-16.5-22.1-33-33.2-49.5c-0.5-0.7-1-1.4-1.4-2.1
	c-3.5-5.7-1.4-13.2,4.9-15.8c4.9-2.1,10.1-0.1,13.1,4.1c0.6,0.8,1.2,1.7,1.7,2.6c7.1,10.6,14.2,21.2,21.4,31.8
	C234,59,239.5,67.3,245,75.5c3.1-0.5,6.3-1,9.4-1.5c-8-18.5-16.1-37-24.1-55.5c-0.5-1.3-1.1-2.5-1.6-3.8c-1.9-5,0.1-11,5-13.5
	c0.1-0.1,0.3-0.1,0.4-0.2c0.2-0.1,0.5-0.3,0.8-0.4c5.8-2.1,11.4,1,13.8,6.4c0.4,0.9,0.8,1.9,1.2,2.8c2.2,5.1,4.4,10.1,6.6,15.2
	c5.8,13.4,11.6,26.8,17.4,40.2c0.8,1.9,1.7,3.9,2.5,5.8c3.6-0.4,7.2-0.9,10.9-1.2c-4.1-15.3-8.2-30.6-12.4-45.9
	c-0.2-0.6-0.4-1.2-0.5-1.9c-1.2-5.3,1-10.6,6.1-12.8c6.7-2.9,13.1,1.5,14.9,8.1c2.5,9.3,5,18.7,7.5,28c2,7.5,4,15,6,22.4
	c5.3-0.4,10.6-0.8,16-1.1c6.1-0.3,11.7,3.5,12.2,9.9c0.5,6.2-4.3,10.9-10.2,11.5c-5.4,0.6-10.8,0.8-16.2,1.2
	c-1.9,18.2-3.7,36.5-5.6,54.7c-0.5,4.5-1.2,8.8-5.7,11.3C294.5,158.1,287.8,156.3,285,151.2z"/>
<g>
</g>
<g>
</g>
<g>
</g>
<g>
</g>
<g>
</g>
<g>
</g>
<g>
</g>
<g>
</g>
<g>
</g>
<g>
</g>
<g>
</g>
<g>
</g>
<g>
</g>
<g>
</g>
<g>
</g>
</svg>
