<?xml version="1.0" encoding="utf-8"?>
<!-- Generator: Adobe Illustrator 18.0.0, SVG Export Plug-In . SVG Version: 6.00 Build 0)  -->
<!DOCTYPE svg PUBLIC "-//W3C//DTD SVG 1.1//EN" "http://www.w3.org/Graphics/SVG/1.1/DTD/svg11.dtd">
<svg version="1.1" id="Layer_1" xmlns="http://www.w3.org/2000/svg" xmlns:xlink="http://www.w3.org/1999/xlink" x="0px" y="0px"
	 viewBox="0 0 448.2 215.2" enable-background="new 0 0 448.2 215.2" xml:space="preserve">
<g>
	<path fill="#FFFFFF" d="M377.9,178.4H70.3C31.6,178.4,0,146.7,0,108.1l0-37.8C0,31.6,31.6,0,70.3,0l307.6,0
		c38.7,0,70.3,31.6,70.3,70.3v37.8C448.2,146.7,416.6,178.4,377.9,178.4z"/>
	<g>
		<path fill="#757679" d="M76.7,70.5h-6.2v2.4h-3.6V44.7h9.8V70.5z M73.2,67V48.2h-2.6V67H73.2z M82.7,69.3
			c-0.6,2.6-1.3,4.9-2.3,6.9L77,75c1-1.7,1.8-3.9,2.5-6.6L82.7,69.3z M98.3,43.1v13.7h-7.9V59h7.9v3.2h-7.9v2.2h9.1v3.3H77.7v-3.3h9
			v-2.2h-7.9V59h7.9v-2.1h-7.9V43.1H98.3z M87,46.3h-4.9v7.4H87V46.3z M86.3,52.3l-2.2,0.6c-0.3-1.7-0.7-3.3-1.1-4.9l2.1-0.7
			C85.6,48.7,85.9,50.4,86.3,52.3z M88.3,75.5L85,76.4c-0.3-2.6-0.7-4.8-1.3-6.7l3.1-0.6C87.5,71,87.9,73.2,88.3,75.5z M94.1,75.4
			l-3.3,0.8c-0.5-2.6-1.1-4.9-1.7-6.8l3.1-0.6C92.9,70.8,93.5,73,94.1,75.4z M94.9,46.3h-4.9v7.4h4.9V46.3z M94.2,47.8
			c-0.4,1.9-0.8,3.6-1.4,5l-2.1-0.8c0.5-1.3,0.9-2.9,1.3-4.8L94.2,47.8z M100.2,74.8L97,76.3c-0.7-2.6-1.6-4.9-2.4-6.9l3-1
			C98.6,70.4,99.4,72.5,100.2,74.8z"/>
		<path fill="#757679" d="M114,54.8c0,8.1-1.5,15-4.3,20.7l-2.9-2.6c2.3-4.7,3.4-10.7,3.4-18.1V43h29.2v8.5H114V54.8z M116,68.1
			l-2.5-2.2c1.6-1.3,2.9-2.9,3.7-4.9c-0.4,0.1-0.9,0.2-1.3,0.3l-0.9-3c3.2-0.4,6-1,8.6-1.5v2.7c-1.6,0.4-3.4,0.9-5.4,1.3l2.2,0.9
			c-0.1,0.4-0.3,0.8-0.5,1.2h5.4v-2h3.9v2h9.9V66H129v2.4h11.9v3.3H129v4.7h-3.9v-4.7h-11.7v-3.3h11.7V66H118
			C117.4,66.8,116.7,67.5,116,68.1z M114,46.3v2h21.7v-2H114z M123.7,53.8l-1.1,2.7c-2.4-0.9-4.8-1.5-7.3-1.9l1.3-2.5
			C119,52.5,121.4,53.1,123.7,53.8z M128.9,52.1V60h-3.7v-7.9H128.9z M139.3,58.8l-1.2,2.9c-2.5-1-5.1-1.8-7.8-2.3l1.3-2.6
			C134.2,57.3,136.8,58,139.3,58.8z M130.3,53.7c2.7-0.4,5.4-1.1,8-1.8l0.9,2.8c-2.4,0.7-5,1.3-7.9,1.8L130.3,53.7z"/>
		<path fill="#757679" d="M150.9,59.5l-2.6-3.2c2.6-3.1,4.8-7.4,6.7-13.1l3.7,0.9c-0.6,1.9-1.3,3.7-2,5.3h7.5v-7.5h3.9v7.5h12v3.8
			h-12v8.1h14.1V65h-14.1v11.1h-3.9V65h-15.4v-3.8h15.4v-8.1h-9.3C153.7,55.5,152.3,57.7,150.9,59.5z"/>
		<path fill="#757679" d="M209.6,58c0,3.6-1.7,6.4-5.1,8.2l-1.3-2.1c2.2-1.4,3.4-3.1,3.6-5.1c-0.2,0-0.4,0.1-0.7,0.1
			c-0.8,0-1.5-0.3-2-0.8c-0.6-0.5-0.8-1.2-0.8-2c0-0.9,0.3-1.5,0.8-2c0.6-0.5,1.2-0.8,2-0.8C208.5,53.5,209.6,55,209.6,58z"/>
		<path fill="#757679" d="M264.1,61c-0.1,7.3-0.6,11.7-1.5,13.1c-1,1.4-2.6,2.2-5,2.2c-1,0-2.3-0.1-3.7-0.2l-1-3.6
			c1.5,0.1,2.8,0.2,3.8,0.3c1.5,0,2.4-0.5,2.8-1.4c0.4-0.9,0.6-3.1,0.7-6.9h-22.1c-1.7,1.7-3.6,3.2-5.6,4.5l-1.9-3.4
			c5.3-3.6,9.3-8.4,11.9-14.6h-9.3v-3.4h5.4c-0.7-1.1-1.6-2.2-2.5-3.4l3-1.9c1.3,1.6,2.3,3,3.1,4.1l-1.7,1.2h3.2
			c0.5-1.8,1-3.6,1.3-5.5l3.8,0.5c-0.4,1.8-0.8,3.4-1.2,5h11.3l-1.3,6.6h4.4l-1.2,6.9H264.1z M240.9,67.2c-1,3.1-2.3,5.7-4,8
			l-3.4-2.1c1.8-2.1,3.1-4.3,3.9-6.6L240.9,67.2z M241.1,61h15.9l0.7-3.5h-14.3C242.7,58.7,242,59.9,241.1,61z M246.9,73.6l-3.7,0.4
			c-0.2-2.9-0.6-5.1-1.1-6.6l3.3-0.4C246.1,68.6,246.6,70.8,246.9,73.6z M246.6,50.9c-0.4,1.1-0.9,2.1-1.3,3.1h8.6l0.8-3.1H246.6z
			 M252.9,71.8l-3.5,1.3c-0.5-2.1-1.2-4.1-1.9-6l3-0.9C251.5,68.3,252.3,70.1,252.9,71.8z M258.6,70.5l-3.5,0.9
			c-0.5-1.8-1.2-3.6-2-5.2l3.1-1C257,66.7,257.8,68.5,258.6,70.5z"/>
		<path fill="#757679" d="M272.6,60.6l-1.3-4c3.7-4.2,6.5-9.2,8.3-14.9l3.6,1.7c-0.9,2.6-1.9,5-3.3,7.4v25.5h-3.9V56.5
			C275.1,58,273.9,59.3,272.6,60.6z M295.7,42v11.7h10.1v3.9h-10.1v18.7h-4V57.5h-9.3v-3.9h9.3V42H295.7z"/>
		<path fill="#757679" d="M332.9,44.1h13.2v3.3H319v10.3c-0.1,7.6-1.3,13.7-3.4,18.2l-2.9-2.6c1.7-3.7,2.6-9,2.7-15.6V44.1h13.8
			c-0.4-0.7-0.7-1.3-1.1-1.9l3.8-0.6C332.2,42.4,332.5,43.2,332.9,44.1z M323.4,54c-0.1,3.1-0.9,5.5-2.3,7.1l-1.8-1.6
			c1.2-1.2,1.9-3,1.9-5.5H323.4z M346.1,74.1l-3,2.1c-0.5-0.9-1.1-1.8-1.7-2.7c-5.3,0.9-12,1.6-20.3,2.1l-1-3.2
			c1.1-0.1,2.2-0.3,3.1-0.6c2.1-0.9,4.3-2.2,6.8-3.9c-2.5,0.1-5.2,0.2-8,0.3l-0.7-3c0.8-0.1,1.6-0.3,2.3-0.7
			c1.4-0.6,3.2-2.1,5.4-4.5l3.6,0.9c-1.5,1.7-3.1,3.1-4.9,4.3c2-0.1,4.1-0.2,6.1-0.3c1.2-1,2.4-2.1,3.7-3.2l3.4,1.7
			c-4.6,3.8-8.5,6.7-11.9,8.7c3.9-0.4,7.4-0.8,10.4-1.3c-0.6-0.9-1.3-1.7-1.9-2.5l2.9-1.9C342.9,69.3,344.8,71.8,346.1,74.1z
			 M324.4,50v-2h3.3v2h4v2.9h-4.3v7.5h-2.7v-7.5h-4.5V50H324.4z M331,54v2.8c0,0.4,0.1,0.6,0.5,0.6h1.3v2.1h-2.2
			c-1.3,0-1.9-0.8-1.9-2.4v-3H331z M337.5,50v-2h3.3v2h4.6v2.9h-4.9v7.5h-2.7v-7.5H333V50H337.5z M336.5,54c0,3-0.6,5.2-1.6,6.7
			l-1.8-1.6c0.7-1.1,1.1-2.9,1.1-5.1H336.5z M344.3,54v3.5c0,0.4,0.3,0.6,0.9,0.6h1.5v2.1h-2.3c-1.6,0-2.3-0.9-2.3-2.5V54H344.3z"/>
		<path fill="#757679" d="M355.1,60.6l-1.3-4.1c3.8-4.2,6.6-9.1,8.5-14.8l3.6,1.7c-1,2.9-2.2,5.6-3.8,8.2v24.6h-3.9V57.1
			C357.3,58.3,356.2,59.5,355.1,60.6z M366.6,57.2l-3.3-2.1c2.7-4.1,4.7-8.5,5.8-13.1l3.6,0.8c-0.3,1.1-0.6,2.2-1,3.3h15.4v2.5
			c-0.6,2.2-1.3,4.4-2.1,6.6l-3.7-1.1c0.7-1.3,1.3-2.7,1.9-4.3h-12.8C369.3,52.5,368,55,366.6,57.2z M372,58.1
			c-1.3,5.1-3,9.5-5,13.3l-3.6-1.3c1.9-3.4,3.6-7.7,5.1-13L372,58.1z M369.8,76l-0.9-3.6c1.5,0.1,2.9,0.3,4.3,0.3
			c0.9,0,1.3-0.5,1.3-1.4V52.3h3.7v19.8c0,2.6-1.3,3.9-3.8,3.9H369.8z M388.2,70.5l-3.4,1.5c-1.3-5.3-2.9-10.1-4.5-14.2l3.4-1.1
			C385.4,61,386.9,65.6,388.2,70.5z"/>
		<path fill="#757679" d="M79.8,129.5h-3.7v-1.9h-5.5v2.9h-3.7v-27h3.6c0.7-2,1.1-4,1.4-6.1l3.9,0.5c-0.4,2-1,3.9-1.6,5.6h5.6V129.5
			z M76.1,113.6v-6.5h-5.5v6.5H76.1z M76.1,124.1v-7h-5.5v7H76.1z M98.3,127.5c-0.4,2.6-2.1,3.9-5.3,3.9c-0.7,0-2.1-0.1-4-0.2
			l-0.9-3.5c1.6,0.1,3.1,0.2,4.3,0.2c1.3,0,2.1-0.7,2.3-2.2c0.2-1.8,0.3-7.9,0.4-18.4h-9c-1,2.2-2.2,4.2-3.6,6l-2.3-3.1
			c2.4-3.5,4.1-7.8,5-12.9l3.8,0.5c-0.4,2-0.9,3.9-1.4,5.7h11.3C98.9,116.5,98.7,124.5,98.3,127.5z M92,120.4l-3.1,2.1
			c-1.4-2.4-3.2-5.1-5.5-8.1l3.1-2C88.9,115.5,90.7,118.1,92,120.4z"/>
		<path fill="#757679" d="M108.1,132l-3-2.7c2.7-3.1,4.1-7.1,4.1-12v-7.9c-0.7,0.5-1.4,0.9-2,1.4l-2.4-3c4.3-2.4,8-6,11.1-10.5
			l3.9,0.9c-0.4,0.7-0.9,1.3-1.4,2h13.2v2.8c-1.2,1.3-2.3,2.4-3.5,3.4h8v22c0,2.2-1.3,3.3-3.7,3.3h-5l-1-3.6
			c1.7,0.1,3.3,0.2,4.8,0.2c0.7,0,1-0.4,1-1.3v-3.4h-20C111.5,126.8,110.1,129.6,108.1,132z M113.1,117c0,1.1-0.1,2.1-0.2,3.1h7.7
			v-3.4h-7.5V117z M122.7,106.3c1.2-0.9,2.4-1.8,3.7-2.9h-10.6c-0.9,1-1.9,2-2.8,2.9H122.7z M113.1,109.8v3.5h7.5v-3.5H113.1z
			 M132.3,109.8h-7.9v3.5h7.9V109.8z M132.3,116.7h-7.9v3.4h7.9V116.7z"/>
		<path fill="#757679" d="M153.8,109.4h17.4v3.3h-17.4v2h22.9v3.6h-23.7v9.4c2.9-0.6,5.9-1.4,8.8-2.4l0.7,3.4
			c-3.7,1.3-8,2.3-12.8,3.1l-1.6-3.3c0.8-0.3,1.2-0.8,1.2-1.5v-8.8h-4.8v-3.6h5.5V98.4h23.1v3.6h-19.4v2.1h17.4v3.3h-17.4V109.4z
			 M166.3,122.8c2.1-1,4-2.4,5.9-4.3l2.5,2.6c-1.7,1.6-3.5,3-5.5,4c2.4,1.6,5.3,2.8,8.6,3.6l-2.2,3.2c-7.4-2.1-12.6-5.9-15.7-11.6
			l3-1.7C163.8,120.2,165,121.6,166.3,122.8z"/>
		<path fill="#757679" d="M193.7,99c-2,4-5.4,7.7-10.3,10.9l-1.2-3.7c3.7-2.5,6.4-5.4,8.2-8.7L193.7,99z M183.5,120.1l-1.1-3.7
			c3.7-2.7,6.4-5.9,8.1-9.6l3.3,1.6c-0.8,1.8-1.9,3.4-3.1,5v18.4H187v-14.5C185.9,118.3,184.8,119.2,183.5,120.1z M215.8,113.1v3.3
			h-4.1v2h5v3.4h-5v6.1c0,2.4-1.3,3.6-3.8,3.6h-4l-0.8-3.6c1.3,0.1,2.4,0.3,3.5,0.3c0.9,0,1.3-0.4,1.3-1.1v-5.2h-15.1v-3.4h15.1v-2
			h-13.7v-3.3H215.8z M213.8,98.6v12.5h-18.2V98.6H213.8z M203.3,127.5l-2.9,2c-1.1-1.6-2.6-3.4-4.4-5.4l2.8-2
			C200.7,124.1,202.2,126,203.3,127.5z M210.1,103.4v-1.8h-10.9v1.8H210.1z M210.1,106.3h-10.9v1.8h10.9V106.3z"/>
		<path fill="#757679" d="M227.2,107.1v-4.6h-4.8v-3.7h16.4c0,14.7-0.2,23.9-0.6,27.3c-0.4,3.4-2.2,5.1-5.4,5.1
			c-0.7,0-1.8-0.1-3.4-0.2l-1-3.5c1.4,0.1,2.6,0.2,3.7,0.2c1.4,0,2.3-1.1,2.5-3.2c0.1-0.9,0.1-2.7,0.2-5.4h-4.8c-1,5.3-3,9.4-6,12.4
			l-2.9-2.5c2.5-2.4,4.2-5.7,5.1-9.9h-3.9v-3.6h4.5c0.1-1.4,0.2-3,0.3-4.5v-0.3h-4.7v-3.6H227.2z M235,110.7h-4.2v0.3
			c0,1.6-0.1,3.1-0.2,4.5h4.4C235,114,235,112.4,235,110.7z M235.1,102.5h-4.3v4.6h4.2C235.1,105.6,235.1,104.1,235.1,102.5z
			 M254.8,98.8v3c-1.2,3.8-2.5,7.3-3.9,10.5c2.9,3.3,4.3,6,4.3,8.2c0,2.6-0.5,4.4-1.5,5.3c-1.1,1-3.2,1.6-6.4,1.6l-1.2-4.1
			c1.4,0.1,2.7,0.3,3.7,0.3c0.7,0,1.1-0.3,1.3-0.7c0.2-0.3,0.3-1.1,0.3-2.4c0-2.1-1.6-4.8-4.6-8.2c1.3-2.7,2.5-6,3.8-9.8h-5.6v29.4
			h-3.8v-33H254.8z"/>
		<path fill="#757679" d="M280.2,99.7h13.2v3.3h-27.1v10.3c-0.1,7.6-1.3,13.7-3.4,18.2l-2.9-2.6c1.7-3.7,2.6-9,2.7-15.6V99.7h13.8
			c-0.4-0.7-0.7-1.3-1.1-1.9l3.8-0.6C279.4,97.9,279.8,98.7,280.2,99.7z M270.7,109.6c-0.1,3.1-0.9,5.5-2.3,7.1l-1.8-1.6
			c1.2-1.2,1.9-3,1.9-5.5H270.7z M293.4,129.6l-3,2.1c-0.5-0.9-1.1-1.8-1.7-2.7c-5.3,0.9-12,1.6-20.3,2.1l-1-3.2
			c1.1-0.1,2.2-0.3,3.1-0.6c2.1-0.9,4.3-2.2,6.8-3.9c-2.5,0.1-5.2,0.2-8,0.3l-0.7-3c0.8-0.1,1.6-0.3,2.3-0.7
			c1.4-0.6,3.2-2.1,5.4-4.5l3.6,0.9c-1.5,1.7-3.1,3.1-4.9,4.3c2-0.1,4.1-0.2,6.1-0.3c1.2-1,2.4-2.1,3.7-3.2l3.4,1.7
			c-4.6,3.8-8.5,6.7-11.9,8.7c3.9-0.4,7.4-0.8,10.4-1.3c-0.6-0.9-1.3-1.7-1.9-2.5l2.9-1.9C290.1,124.8,292.1,127.4,293.4,129.6z
			 M271.6,105.6v-2h3.3v2h4v2.9h-4.3v7.5H272v-7.5h-4.5v-2.9H271.6z M278.2,109.6v2.8c0,0.4,0.1,0.6,0.5,0.6h1.3v2.1h-2.2
			c-1.3,0-1.9-0.8-1.9-2.4v-3H278.2z M284.8,105.6v-2h3.3v2h4.6v2.9h-4.9v7.5h-2.7v-7.5h-4.9v-2.9H284.8z M283.8,109.6
			c0,3-0.6,5.2-1.6,6.7l-1.8-1.6c0.7-1.1,1.1-2.9,1.1-5.1H283.8z M291.5,109.6v3.5c0,0.4,0.3,0.6,0.9,0.6h1.5v2.1h-2.3
			c-1.6,0-2.3-0.9-2.3-2.5v-3.7H291.5z"/>
		<path fill="#757679" d="M309.4,109.4h17.4v3.3h-17.4v2h22.9v3.6h-23.7v9.4c2.9-0.6,5.9-1.4,8.8-2.4l0.7,3.4
			c-3.7,1.3-8,2.3-12.8,3.1l-1.6-3.3c0.8-0.3,1.2-0.8,1.2-1.5v-8.8h-4.8v-3.6h5.5V98.4h23.1v3.6h-19.4v2.1h17.4v3.3h-17.4V109.4z
			 M321.9,122.8c2.1-1,4-2.4,5.9-4.3l2.5,2.6c-1.7,1.6-3.5,3-5.5,4c2.4,1.6,5.3,2.8,8.6,3.6l-2.2,3.2c-7.4-2.1-12.6-5.9-15.7-11.6
			l3-1.7C319.4,120.2,320.6,121.6,321.9,122.8z"/>
		<path fill="#757679" d="M361.6,102.9c1.5,1.3,2.2,3.1,2.2,5.3c0,1.9-0.5,3.4-1.4,4.6c-0.3,0.4-1.4,1.4-3.2,2.9
			c-0.7,0.5-1.1,1.1-1.5,1.8c-0.4,0.7-0.6,1.6-0.6,2.4v0.5H353V120c0-1.4,0.2-2.6,0.7-3.6c0.5-1,1.3-2,2.6-3.1
			c1.2-1.1,1.9-1.8,2.2-2.1c0.7-0.8,1-1.7,1-2.6c0-1.2-0.4-2.2-1-2.9c-0.7-0.7-1.7-1-3-1c-1.6,0-2.7,0.5-3.5,1.5
			c-0.6,0.9-0.9,2.1-0.9,3.7h-4.2c0-2.7,0.8-4.9,2.4-6.4c1.6-1.6,3.7-2.3,6.5-2.3C358.2,101,360.2,101.6,361.6,102.9z M357.2,123.1
			c0.5,0.5,0.8,1.2,0.8,2c0,0.8-0.3,1.5-0.8,2c-0.6,0.5-1.3,0.8-2.1,0.8c-0.8,0-1.5-0.3-2-0.8c-0.6-0.5-0.9-1.2-0.9-2
			c0-0.8,0.3-1.5,0.9-2c0.5-0.5,1.2-0.8,2-0.8C355.9,122.3,356.6,122.6,357.2,123.1z"/>
	</g>
	<linearGradient id="SVGID_1_" gradientUnits="userSpaceOnUse" x1="66.3688" y1="80.9409" x2="389.7905" y2="80.9409">
		<stop  offset="0" style="stop-color:#B3B5B8"/>
		<stop  offset="1" style="stop-color:#A9ABAE"/>
	</linearGradient>
	<path fill="url(#SVGID_1_)" d="M66.4,79.8c107.8-1.3,215.7,0.4,323.4,5.1c0,0,0.1-2.3,0-2.3c-107.6-4.7-215.5-6.3-323.4-5.1
		C66.3,77.5,66.4,79.8,66.4,79.8L66.4,79.8z"/>
	<linearGradient id="SVGID_2_" gradientUnits="userSpaceOnUse" x1="68.3948" y1="133.0081" x2="369.4298" y2="133.0081">
		<stop  offset="0" style="stop-color:#B3B5B8"/>
		<stop  offset="1" style="stop-color:#A9ABAE"/>
	</linearGradient>
	<path fill="url(#SVGID_2_)" d="M68.4,132.3c100.2,3.6,200.6,4.6,301,2.8c0.1,0,0-2.3,0-2.3c-100.3,1.8-200.8,0.8-301-2.8
		C68.5,130,68.3,132.3,68.4,132.3L68.4,132.3z"/>
	<path fill="#FFFFFF" d="M315.2,168.3c0,0,27.1,40.4,69.1,47c0,0-19.3-19.4-11.8-57.4L315.2,168.3z"/>
</g>
<g>
</g>
<g>
</g>
<g>
</g>
<g>
</g>
<g>
</g>
<g>
</g>
<g>
</g>
<g>
</g>
<g>
</g>
<g>
</g>
<g>
</g>
<g>
</g>
<g>
</g>
<g>
</g>
<g>
</g>
</svg>
