<?xml version="1.0" encoding="utf-8"?>
<!-- Generator: Adobe Illustrator 18.0.0, SVG Export Plug-In . SVG Version: 6.00 Build 0)  -->
<!DOCTYPE svg PUBLIC "-//W3C//DTD SVG 1.1//EN" "http://www.w3.org/Graphics/SVG/1.1/DTD/svg11.dtd">
<svg version="1.1" id="Layer_1" xmlns="http://www.w3.org/2000/svg" xmlns:xlink="http://www.w3.org/1999/xlink" x="0px" y="0px"
	 viewBox="0 0 62.9 160.5" enable-background="new 0 0 62.9 160.5" xml:space="preserve">
<g>
	<g>
		<path fill="#44A68D" d="M27.7,0c-66.6,83.3,7.9,160.5,7.9,160.5S102.1,76.3,27.7,0z"/>
	</g>
	<path fill="#80B493" d="M36.2,125c0.2-3.6,0.3-7.1,0.4-10.7c0,0,0,0,0,0c0,0,0,0,0,0c0.1-2,0.1-4,0.1-5.9c6,0.3,10.6-3.6,14.4-8.1
		c-0.7,0.8-1.6,1.6-2.4,2.4c-0.1,0-0.2,0.1-0.3,0.2c-0.4,0.2-0.8,0.5-1.3,0.8c-1,0.5-2.1,0.9-3.2,1.2c-2.1,0.5-4.2,0.5-6.3,0
		c-0.2-0.1-0.5,0.2-0.8,0.5c0-4.9,0-9.8-0.2-14.7c0,0,0,0,0.1,0c0,0,0,0-0.1,0c-0.1-1.9-0.1-3.8-0.2-5.7c6.2-0.6,12.2-6.4,13.2-12.3
		c-0.2,1.2-3.1,2-3.3,3.3c-0.2,1.3-0.8,2.4-1.2,3.7c-0.3,0.4-0.4,0.6-0.5,0.7c-0.3,0.2-0.6,0.3-0.9,0.5c-2.2,1-4.5,1.2-6.8,0.8
		c-0.2,0-0.5,0.1-0.7,0.4c-0.2-4.6-0.5-9.1-0.9-13.7c0.1,0,0.1-0.1,0.2,0c-0.1,0-0.1-0.1-0.2-0.1c-0.1-1.1-0.2-2.2-0.3-3.3
		c0.2-0.2,0.3-0.4,0.4-0.6c3-8.3,5.5-16.8,7.4-25.4c-0.3,1.3-3,2-3.3,3.3c-1.3,6.1-3,12.2-4.9,18.2c-1.2-11-2.7-22-4.8-32.9
		c0.2,0.8-3.5,2.4-3.3,3.3c2.2,11.6,3.8,23.3,5,35c-5.1-4.5-8.8-11.9-12.4-17c0.1,0.2-3.5,3-3.3,3.3c4.4,6.3,9,16.1,16.2,19.6
		c0.5,5.4,0.8,10.9,1.1,16.4c-6.1-5.1-11.5-11.1-16.1-17.6c0.1,0.2-3.5,3-3.3,3.3c5.4,7.7,12.1,14.7,19.6,20.4
		c0.2,5.7,0.2,11.4,0.1,17.1c-3.4-3.6-6.7-7.3-10.1-10.9c0,0-3.4,3.2-3.3,3.3c4.4,4.8,8.8,9.5,13.2,14.3c-0.1,3.6-0.2,7.2-0.4,10.8
		C33,127.1,36.2,126.2,36.2,125z M48.1,103.3c0,0-0.1,0.1-0.1,0.1C48,103.3,48,103.3,48.1,103.3z"/>
</g>
<g>
</g>
<g>
</g>
<g>
</g>
<g>
</g>
<g>
</g>
<g>
</g>
<g>
</g>
<g>
</g>
<g>
</g>
<g>
</g>
<g>
</g>
<g>
</g>
<g>
</g>
<g>
</g>
<g>
</g>
</svg>
