<?xml version="1.0" encoding="utf-8"?>
<!-- Generator: Adobe Illustrator 18.0.0, SVG Export Plug-In . SVG Version: 6.00 Build 0)  -->
<!DOCTYPE svg PUBLIC "-//W3C//DTD SVG 1.1//EN" "http://www.w3.org/Graphics/SVG/1.1/DTD/svg11.dtd">
<svg version="1.1" id="Layer_1" xmlns="http://www.w3.org/2000/svg" xmlns:xlink="http://www.w3.org/1999/xlink" x="0px" y="0px"
	 viewBox="0 0 807.7 486.2" enable-background="new 0 0 807.7 486.2" xml:space="preserve">
<g>
	<g>
		<g>
			<linearGradient id="SVGID_1_" gradientUnits="userSpaceOnUse" x1="49.2835" y1="406.9933" x2="154.4024" y2="406.9933">
				<stop  offset="0" style="stop-color:#BEC0C2"/>
				<stop  offset="1" style="stop-color:#B1B3B6"/>
			</linearGradient>
			<path fill="url(#SVGID_1_)" d="M147,379.2c0,0-37.8,48.7-97.7,43.7v11.8c0,0,69.9,4.5,105.1-38.3L147,379.2z"/>
		</g>
		<path fill="#B1B3B6" d="M392.9,352.9c3.3-0.1,3.8,20.7,3.7,23.1c-1,29.1-16.6,50.8-27.8,75.8c-2.7,6-8.1,10-14.2,10.4l-50.8,3.4
			c-10.1,0.7-18.7-8.5-18.5-19.7l0.2-14.3c0-2-2.5-2.3-2.9-0.4l-3.2,17.2c-2.1,11.3-10.8,19.6-21.3,20.3l-66.1,4.4
			c-9.3,0.6-18.1-4.9-22.5-14.1c-8.3-17.5-20.5-46.8-21-68.2l91.9-25.8C240.4,365,391.5,353,392.9,352.9z"/>
		<path fill="#E4E5E6" d="M357.1,457.3c-5-3.8-15.3-8.7-27.7,1.7c-1.3,1.1-0.5,3.4,1.2,3.3l25.7-1.7
			C357.8,460.4,358.4,458.3,357.1,457.3z"/>
		<path fill="#E4E5E6" d="M330.1,459.1c-5.1-3.8-15.5-8.7-28,1.8c-1.3,1.1-0.5,3.4,1.2,3.3l26-1.7
			C330.8,462.2,331.4,460.1,330.1,459.1z"/>
		<path fill="#E4E5E6" d="M259,463.8c-6.1-3.7-18.7-8.4-34.2,2.2c-1.6,1.1-0.7,3.4,1.4,3.2l31.6-2.1
			C259.8,467,260.6,464.8,259,463.8z"/>
		<path fill="#E4E5E6" d="M225.6,466.1c-6.2-3.7-18.9-8.4-34.5,2.2c-1.7,1.1-0.7,3.4,1.4,3.2l32-2.1
			C226.5,469.2,227.2,467,225.6,466.1z"/>
		
			<path fill="#B1B3B6" stroke="#797A7D" stroke-width="2.5" stroke-linecap="round" stroke-linejoin="round" stroke-miterlimit="10" d="
			M310.2,407.3c0,0-12,17.8-26.4,22.9"/>
		<g>
			<path fill="#F58258" d="M429.6,301.1c0,0-15.9-81.6-61.2-88.5l-207.7,6.8c0,0-22.1,11.3-37.9,66c-7.3,12.8-15.6,29.8-24.7,52.3
				l13.5,4.5c-0.1,0.8-0.2,1.6-0.3,2.4l26.4,44.9c0,0,204.1-5.8,257.3-32.5l-2.4-21.2L429.6,301.1z"/>
		</g>
		<path fill="#D54849" d="M350,236.4l-20.1,39.9c-3.4,7.7-13.4,9.9-19.7,4.3L293,265.4l-15.5,22.9c-3.7,5.4-10.9,7.1-16.6,3.8
			L207.5,261L350,236.4z"/>
		<g>
			<circle fill="#D54849" cx="306" cy="322.3" r="32"/>
			<polygon fill="#FBDBAE" points="295.9,312 297.6,298.2 323.4,319.9 302.5,346.7 307.3,326.9 			"/>
		</g>
		<path fill="#CB7639" d="M188.6,367.6l17-34.5c0.6-1.2-1.1-2.1-1.8-1L182,365.4L188.6,367.6z"/>
		<g>
			<path fill="#D4A26B" d="M165.1,331.8l-33.8-9.6c-2.9-0.8-4.5-3.8-3.7-6.7l9.6-33.8c0.8-2.9,3.8-4.5,6.7-3.7l33.8,9.6
				c2.9,0.8,4.5,3.8,3.7,6.7l-9.6,33.8C170.9,331,168,332.6,165.1,331.8z"/>
			<path fill="#E5BF7A" d="M177,309.3l-44.3-12.5l4.3-15.1c0.8-2.9,3.8-4.5,6.7-3.7l33.8,9.6c2.9,0.8,4.5,3.8,3.7,6.7L177,309.3z"/>
			<path fill="#BA8F64" d="M156.2,312l-5.6-1.6c-1.6-0.4-2.5-2.1-2.1-3.7l2.4-8.4c0.4-1.6,2.1-2.5,3.7-2.1l5.6,1.6
				c1.6,0.4,2.5,2.1,2.1,3.7l-2.4,8.4C159.5,311.5,157.8,312.4,156.2,312z"/>
		</g>
		<path fill="#797A7D" d="M49.3,422.9c0,0-12-19.4-44.7,0c0,0,18.4,31,44.7,11.8V422.9z"/>
		<g>
			
				<linearGradient id="SVGID_2_" gradientUnits="userSpaceOnUse" x1="-3584.2295" y1="-401.5585" x2="-3493.7217" y2="-401.5585" gradientTransform="matrix(-1.0063 -0.3086 -0.2932 0.9561 -3542.9011 -331.4068)">
				<stop  offset="0" style="stop-color:#BEC0C2"/>
				<stop  offset="1" style="stop-color:#B1B3B6"/>
			</linearGradient>
			<path fill="url(#SVGID_2_)" d="M188.6,367.9l-90.4-30.1L93.4,360c-2.5,11.8,2.1,24,11.7,31.2l4.4,3.3c2.7,2,5.8,3.6,9,4.6l26.1,8
				c5.6,1.7,11.5,1.8,17.1,0.2h0c10-2.8,17.9-10.6,21-20.7L188.6,367.9z"/>
		</g>
		<g>
			
				<linearGradient id="SVGID_3_" gradientUnits="userSpaceOnUse" x1="-8287.4346" y1="360.0386" x2="-8196.9268" y2="360.0386" gradientTransform="matrix(0.5795 0.8786 0.8348 -0.5506 4900.4097 7687.1021)">
				<stop  offset="0" style="stop-color:#BEC0C2"/>
				<stop  offset="1" style="stop-color:#B1B3B6"/>
			</linearGradient>
			<path fill="url(#SVGID_3_)" d="M378.7,220.3l50.5,80.8L447,287c9.5-7.5,13.7-19.9,10.8-31.5l-1.3-5.3c-0.8-3.3-2.2-6.4-4.1-9.3
				l-15.1-22.8c-3.2-4.9-7.8-8.7-13.1-11v0c-9.5-4.2-20.6-3.2-29.3,2.6L378.7,220.3z"/>
		</g>
		<path fill="#ABADB0" d="M281.8,24.5l88-8c30.1-2.7,59.9,7.7,81.7,28.6l0,0c31,29.6,40.8,75.2,24.7,114.9l-7.3,18
			c-17.3,42.7-60.6,69-106.4,64.8l-23.5-2.2"/>
		<path fill="#939598" d="M352.8,217L352.8,217c35.1,3.2,68.2-16.9,81.5-49.6l5.6-13.7c13.4-32.9,3.5-71.1-25.1-93.3
			c-16.3-12.6-36.9-18.2-57.4-16.4l-49.9,4.5c-8.5,0.8-14.3,9-12.1,17.3l34.9,132.1C332.9,208.4,341.9,216,352.8,217z"/>
		
			<linearGradient id="SVGID_4_" gradientUnits="userSpaceOnUse" x1="-4667.5693" y1="682.062" x2="-4735.1621" y2="864.8703" gradientTransform="matrix(-0.9829 0.184 0.184 0.9829 -4466.0942 315.04)">
			<stop  offset="0" style="stop-color:#BCBEC0"/>
			<stop  offset="1" style="stop-color:#A3A5A8"/>
		</linearGradient>
		<path fill="url(#SVGID_4_)" d="M165.5,253.8c57.3,27.4,120.1,27.8,176.6-2.2c27.2-14.5,50.1-38.1,49.5-70.6
			c-0.2-9.3-2.2-18.2-5.1-27c-7.8-23.5-4.7-47.9-11.3-71.5c-4.8-17.3-15.3-32.6-28.6-44.5c-26-23.4-60-30.8-98.1-32.3
			c-28-1.1-69.6,10.4-90.3,30.7"/>
		<path fill="#ABADB0" d="M353.4,116.9c4.1,6,2.7,14.2-3.3,18.3s-14.2,2.6-18.3-3.4s-2.7-14.2,3.3-18.3
			C341,109.4,349.2,110.9,353.4,116.9z"/>
		<path fill="#737577" d="M348.5,119.4c2.3,3.8,1.1,8.7-2.7,11c-3.8,2.3-8.7,1.1-11-2.7c-2.3-3.8-1.1-8.7,2.7-11
			C341.3,114.4,346.2,115.6,348.5,119.4z"/>
		<path fill="#ABADB0" d="M260.2,133.1c4.2,6.1,2.7,14.5-3.4,18.7c-6.1,4.2-14.5,2.6-18.7-3.5c-4.2-6.1-2.7-14.5,3.4-18.7
			C247.6,125.4,255.9,127,260.2,133.1z"/>
		<path fill="#737577" d="M257.8,136.2c2.4,3.9,1.1,8.9-2.7,11.3c-3.9,2.3-8.9,1.1-11.3-2.8s-1.1-8.9,2.7-11.3
			S255.5,132.3,257.8,136.2z"/>
		
			<linearGradient id="SVGID_5_" gradientUnits="userSpaceOnUse" x1="-4530.9468" y1="577.4792" x2="-4530.9468" y2="629.2452" gradientTransform="matrix(-0.9907 0.1358 0.1358 0.9907 -4464.397 266.1262)">
			<stop  offset="0" style="stop-color:#BEC0C2"/>
			<stop  offset="1" style="stop-color:#B1B3B6"/>
		</linearGradient>
		<path fill="url(#SVGID_5_)" d="M171.6,33.6L85.6,51c-29.7,5.5-55.6,23.5-71,49.5l0,0c-21.9,36.9-19,83.4,7.2,117.3l11.9,15.3
			c28.2,36.5,76.9,50.2,120,33.8l22.1-8.4"/>
		<path fill="#A1A3A6" d="M159.5,238L159.5,238c-32.4,14-70.1,5.1-92.8-21.8l-9.6-11.3c-22.9-27.2-25.4-66.5-5.2-96.5
			c11.5-17.1,29.4-28.8,49.5-33.4l48.8-11.2c8.3-1.9,16.4,4.1,16.9,12.7l7.9,136.4C175.7,223.6,169.5,233.7,159.5,238z"/>
		<path fill="#797A7D" d="M235.1,199.5c2.9-1.7,5.4-3.3,7.6-5.1c2.2-1.8,3.9-3.7,5.5-5.9c0.4-0.5,0.8-1.1,1.1-1.7
			c0.4-0.6,0.7-1.2,1-1.8c0.6-1.2,1.2-2.5,1.8-3.9c1.1-2.7,2.1-5.6,3.4-8.8l0-0.1c0-0.1,0.1-0.1,0.2-0.1c0.1,0,0.1,0.1,0.1,0.2
			l0,2.4l-0.1,2.4c-0.1,1.6-0.3,3.2-0.7,4.7c-0.3,1.6-0.8,3.1-1.4,4.6c-0.6,1.5-1.4,2.9-2.3,4.2c-1.8,2.6-4.3,4.8-7.1,6.4
			c-2.8,1.6-5.9,2.6-9.1,2.8c-0.1,0-0.2-0.1-0.2-0.2C234.9,199.6,235,199.6,235.1,199.5L235.1,199.5z"/>
		<g>
			<path fill="#797A7D" d="M233,122c2.6-0.9,5-1.6,7.3-2.3c2.3-0.8,4.5-1.5,6.5-2.5c2-0.9,3.9-2,5.7-3.4c1.8-1.4,3.4-3.1,5.2-5.2
				l0,0c0.1-0.1,0.1-0.1,0.2,0c0,0,0.1,0.1,0,0.2c-0.7,2.4-2,4.8-3.7,6.7c-1.7,1.9-3.9,3.4-6.2,4.5c-2.4,1-4.9,1.7-7.4,2.1
				c-2.5,0.4-5.1,0.5-7.7,0.2c-0.1,0-0.1-0.1-0.1-0.2C232.9,122.1,232.9,122.1,233,122L233,122z"/>
		</g>
		<g>
			<path fill="#797A7D" d="M326.4,102.1c2.4,1.2,4.6,2.4,6.7,3.5c2.2,1.1,4.2,2.1,6.3,2.9c2.1,0.8,4.2,1.4,6.4,1.7
				c2.2,0.3,4.6,0.2,7.3,0l0.1,0c0.1,0,0.1,0.1,0.2,0.1c0,0.1,0,0.1-0.1,0.1c-2.3,1.2-4.8,2-7.4,2.1c-2.6,0.1-5.2-0.4-7.6-1.3
				c-2.4-0.9-4.6-2.2-6.7-3.8c-2.1-1.5-3.9-3.3-5.6-5.3c0-0.1,0-0.2,0-0.2C326.2,102,326.3,102,326.4,102.1L326.4,102.1z"/>
		</g>
		<path fill="#797A7D" d="M288.9,192.3c-0.4-2.9-2.7-6.4-4-8.1c-2.1-2.7-4.9-4.7-8.2-5.5c-6.7-1.6-13.9,1.2-19.8,4.4
			c-1,0.5-1.9,1-2.8,1.6c-4.6,2.7-4.2,10.3,0.9,12.2c3.6,1.4,8.5,1.2,12.3,1.4c3.1,0.2,6.1,0.3,9.2,0.3c3.5-0.1,8.6-0.1,11.3-2.6
			C288.8,195.1,289.1,193.8,288.9,192.3z"/>
		<path fill="#ED85A9" d="M255,196.9c0,0,14.6-11.3,31.6,0c0,0-2.4,2.1-12.5,1.7C264,198.2,257.3,198.4,255,196.9z"/>
		<path fill="#FFFFFF" d="M334.2,142.4c5.6,0.4,22,1,32.4-5.5c1.1-0.7,2.3,0.5,1.7,1.6c-3.2,6.2-11.3,16.8-29,19.6
			c-0.6,0.1-1.2-0.2-1.4-0.8l-5-13.2C332.6,143.3,333.2,142.4,334.2,142.4z"/>
		
			<linearGradient id="SVGID_6_" gradientUnits="userSpaceOnUse" x1="-3715.1824" y1="1547.5337" x2="-3962.7083" y2="1547.5337" gradientTransform="matrix(-0.8856 0.4645 0.4645 0.8856 -3684.2207 557.2884)">
			<stop  offset="0" style="stop-color:#C7C8CA"/>
			<stop  offset="1" style="stop-color:#B1B3B6"/>
		</linearGradient>
		<path fill="url(#SVGID_6_)" d="M286.2,186.3c8.3,6.1,19.3,9.1,28.7,13.2c10.2,4.4,20.8,8.1,31.2,12.1c20.8,8.2,42,15.9,64.3,18.5
			c9.3,1.1,18.8,1.2,28.2,0.3c39.5-3.9,76.4-27.5,96.9-61.5s24.4-77.2,11-114.5c-5.8-16-14.6-31-17-47.9c-0.2-1.6-0.8-3.2-1.9-4.4
			c-3.7-4.3-8.8-1.2-11.3,2.6c-2.1,3.1-3.4,6.8-6.3,9c-3.8,2.9-9.1,2.4-13.9,3.1c-5.7,0.9-12.4,5.9-7.6,12.1
			c0.7,0.9,1.6,1.6,2.6,2.2c13.9,8.3,20.8,24.4,24.1,40.1c3.9,19.1,3.5,39.4-3.6,57.6s-21,34.1-39,41.4c-24.2,9.9-52,3.7-75.8-7.1
			c-23.8-10.8-45.5-25.9-70-35c-10.9-4-22.9-6.8-34-3.3c-13.1,4.2-22.4,17.2-23.2,30.8c-0.3,5.8,0.6,12.1,3.2,17.5
			C275.7,179.3,280.7,182.4,286.2,186.3z"/>
		<path fill="#A9ABAE" d="M307,159.5c3.4-5.3,11.5-15.5,26-22.4c1.1-0.5,0.7-2.1-0.5-2c-9,0.6-26.3,4.3-27.5,23.7
			C304.9,159.9,306.4,160.4,307,159.5z"/>
		<path fill="#A9ABAE" d="M323.3,164.9c3.4-5.2,11.4-15.4,25.8-22.2c1.1-0.5,0.7-2.1-0.5-2c-8.9,0.6-26.1,4.2-27.3,23.6
			C321.2,165.3,322.7,165.9,323.3,164.9z"/>
		<path fill="#A9ABAE" d="M338.4,172.9c3.4-5.2,11.4-15.4,25.8-22.2c1.1-0.5,0.7-2.1-0.5-2c-8.9,0.6-26.1,4.2-27.3,23.6
			C336.4,173.3,337.8,173.8,338.4,172.9z"/>
		<path fill="#FFFFFF" d="M263.3,158c5.7,0.4,22.2,1,32.6-5.7c1.1-0.7,2.3,0.5,1.8,1.6c-3.2,6.2-11.3,17-29.1,19.8
			c-0.6,0.1-1.2-0.2-1.4-0.8l-5.1-13.3C261.7,158.9,262.4,158,263.3,158z"/>
	</g>
	<path fill="#959A9E" d="M726.6,457.5H593.7v-89.1h204v18C797.7,425.7,765.9,457.5,726.6,457.5z"/>
	<linearGradient id="SVGID_7_" gradientUnits="userSpaceOnUse" x1="515.5493" y1="305.5341" x2="807.7082" y2="305.5341">
		<stop  offset="0" style="stop-color:#C0C2C4"/>
		<stop  offset="1" style="stop-color:#BCBEC0"/>
	</linearGradient>
	<path fill="url(#SVGID_7_)" d="M569.9,243.2c-3.3,0.6-11.4,15.1-13.8,18.3c-5.7,7.7-11.2,15.5-16.3,23.6
		c-13.1,20.7-28.7,46.7-23.1,72.8c4.9,22.9,21.8,37.8,45,39.4c57.4,4.1,116.5,0.5,174.2,0c0,0,74.2,1,71.8-57.3
		c-3.1-73.9-74.1-128.4-74.1-128.4S570,243.2,569.9,243.2z"/>
	<path fill="#F5C15D" d="M539.8,285.6l75.4,113.5l59.7,0l20.7-26.5l96.8-88.3c0,0-23.6-53-63.2-72.8l-159.3,31.8L539.8,285.6z"/>
	<g>
		<path fill="#AAAFB4" d="M582.2,374.3L582.2,374.3c-27.8,0-50.4,22.5-50.4,50.4v42h-2.1c-5.4,0-9.8,4.4-9.8,9.8
			c0,5.4,4.4,9.8,9.8,9.8h92c6,0,10.9-4.9,10.9-10.9v-1.2v-7.6v-42C632.6,396.8,610,374.3,582.2,374.3z"/>
		<path fill="#AAAFB4" d="M701.7,375.4L701.7,375.4c-27.8,0-50.4,22.5-50.4,50.4v40.8h-2.1c-5.4,0-9.8,4.4-9.8,9.8
			c0,5.4,4.4,9.8,9.8,9.8h92c6,0,10.9-4.9,10.9-10.9v-0.1v-8.7v-40.8C752.1,397.9,729.5,375.4,701.7,375.4z"/>
	</g>
	<linearGradient id="SVGID_8_" gradientUnits="userSpaceOnUse" x1="542.874" y1="384.4771" x2="616.809" y2="384.4771">
		<stop  offset="0" style="stop-color:#C0C2C4"/>
		<stop  offset="1" style="stop-color:#BCBEC0"/>
	</linearGradient>
	<path fill="url(#SVGID_8_)" d="M605.7,371c-8.8-2.8-17.8-5.5-27.2-5.6c-9-0.1-18.6,3.3-26.9,6.7c-4.9,2-8.8,4.8-8.8,10.6v9.5
		c0,6.2,5.1,11.2,11.2,11.2h51.5c6.2,0,11.2-5.1,11.2-11.2v-9.5c0-6.7-5-9.8-10.7-11.6C606,371.1,605.8,371.1,605.7,371z"/>
	<linearGradient id="SVGID_9_" gradientUnits="userSpaceOnUse" x1="669.8645" y1="384.4771" x2="743.7995" y2="384.4771">
		<stop  offset="0" style="stop-color:#C0C2C4"/>
		<stop  offset="1" style="stop-color:#BCBEC0"/>
	</linearGradient>
	<path fill="url(#SVGID_9_)" d="M732.7,371c-8.8-2.8-17.8-5.5-27.2-5.6c-9-0.1-18.6,3.3-26.9,6.7c-4.9,2-8.8,4.8-8.8,10.6v9.5
		c0,6.2,5.1,11.2,11.2,11.2h51.5c6.2,0,11.2-5.1,11.2-11.2v-9.5c0-6.7-5-9.8-10.7-11.6C733,371.1,732.8,371.1,732.7,371z"/>
	<ellipse fill="#2F8F6D" cx="652.2" cy="280" rx="81.2" ry="54.9"/>
	<ellipse fill="#9A9FA3" cx="652.2" cy="276.8" rx="66.4" ry="43.2"/>
	<g>
		<path fill="none" d="M712.7,131.5c3.2,3.2,6.9,6,10.1,8.9C719.9,137.3,716.4,134.3,712.7,131.5z"/>
		<polygon fill="#91929D" points="722.9,140.4 722.9,140.4 722.9,140.4 		"/>
		
			<linearGradient id="SVGID_10_" gradientUnits="userSpaceOnUse" x1="304.3612" y1="720.1113" x2="364.1378" y2="803.2152" gradientTransform="matrix(0.9768 0.2144 -0.2144 0.9768 521.9292 -522.6377)">
			<stop  offset="0" style="stop-color:#C0C2C4"/>
			<stop  offset="1" style="stop-color:#B1B3B6"/>
		</linearGradient>
		<path fill="url(#SVGID_10_)" d="M769.7,220.1c0.5-4,0.7-8,0.7-12c-0.1-15.8-4.1-32.3-11.3-46.3c-0.8-1.7-1.8-3.3-2.9-5l0,0
			c-2.5-3.9-5.3-8-7.6-12.2c-2-2.6-4.1-5.2-6.3-7.8l5.4-20.4c1.9-7.2,2-14.7,0.4-22l-6.8-29.9c0.3-6.2-3-12-8.5-14.8
			c-7.6-4-17.1-1.1-21.1,6.5c-7.8,14.8-3.6,29.7,0.5,38.5c2.4,5.3,3.5,11.1,3,16.8c-7-5.5-11.9-8.8-11.9-8.8
			c-14-6.2-24.7-7.5-24.7-7.5c-12.8-3.1-26.2-3.7-39.7-1.1c-20,3.7-39.2,14-54.2,27.7c-17.5,16.1-37.4,30.9-59.3,40.4
			c-2.3,1-4.5,2.3-6.6,3.8c-10.4-3-20.6,5.5-23.7,16c-1.4,4.6-1,8.3,0.6,11.6c2,4.4,3.1,9.1,2.8,13.9c-0.6,10.4,1.5,21,6.1,30.3
			c10.7,22.1,35.2,40.3,57.6,49.2c15,5.9,30.9,9.5,46.8,12c15.2,2.4,30.5,3.6,45.8,4.2C766.6,307.2,769.7,220.1,769.7,220.1z"/>
		<g>
			<path fill="#797A7D" d="M527.2,183.3c1.4,1.1,2.3,2.7,2.9,4.4c0.6,1.7,0.7,3.6,0.5,5.4c-0.1,1.8-0.6,3.6-1.5,5.2
				c-0.5,0.7-1,1.5-1.6,2.1c-0.6,0.6-1.3,1.2-2.1,1.7c-0.1,0-0.1,0-0.2,0c0,0,0-0.1,0-0.1l0,0c0.2-0.9,0.5-1.7,0.8-2.5
				c0.3-0.8,0.6-1.6,0.9-2.3c0.1-0.4,0.3-0.8,0.4-1.1c0.2-0.4,0.4-0.7,0.5-1.1l0.5-1.1l0.3-1.1c0.4-1.5,0.5-3.1,0.2-4.7
				c-0.2-1.6-0.9-3.2-1.9-4.5l0,0c0-0.1,0-0.1,0-0.2C527.1,183.3,527.1,183.3,527.2,183.3z"/>
		</g>
		<path fill="#808285" d="M503.2,193.5c0.2-0.8,0.8-1.5,2.2-2.1c2.4-1,8.4-0.9,7.7,3.7c-0.5,3.5-2.1,4.4-4.5,3.7
			C506.6,198.3,502.7,195.7,503.2,193.5z"/>
		<circle fill="#9A9FA3" cx="580.4" cy="175.3" r="12.9"/>
		<circle fill="#6B6C6F" cx="580.4" cy="175.3" r="8.2"/>
		<path fill="#797A7D" d="M498.6,212.1c0,0,32.5,2,52.2-4c1.6-0.5,3,1.3,2,2.7c-5.7,8.1-20.8,24.4-48.9,23.9
			C503.8,234.8,496.8,222.9,498.6,212.1z"/>
		<path fill="#9CA1A5" d="M569,148.4c0,0-2.4,17.9,21.8,19.3"/>
		<path fill="#939598" d="M501,218.8c0.6,7.5,2.5,14.9,5.3,22.2l0,0c0,0.1,0,0.2-0.1,0.2c-0.1,0-0.2,0-0.2-0.1
			c-3.7-6.8-6.2-14.3-7.3-22c-0.3-1.9-0.5-3.9-0.6-5.8c-0.1-1.9,0-3.9-0.2-5.8c-0.3-3.8-1.4-7.6-3.1-11c-0.9-1.7-1.7-3.5-2-5.5
			c-0.3-1.9-0.3-3.9,0-5.9c0.7-3.9,2.2-7.6,4.5-10.7c0.5-0.8,1.2-1.5,1.8-2.3c0.3-0.4,0.7-0.7,1-1.1c0.3-0.4,0.7-0.7,1.1-1
			c1.4-1.3,3.1-2.4,4.8-3.3c1.7-0.9,3.7-1.4,5.6-1.7c2-0.3,3.9-0.1,5.8,0.3l-0.2,0c2.1-1.6,4.3-3.1,6.7-4.2c0.1,0,0.2,0,0.2,0.1
			c0,0.1,0,0.2-0.1,0.2l0,0c-1.1,0.7-2.2,1.5-3.2,2.3c-1,0.8-2,1.7-2.9,2.6c-0.2,0.2-0.4,0.2-0.7,0.2l-0.2,0
			c-1.8-0.2-3.6-0.2-5.3,0.2c-1.7,0.4-3.4,1-4.9,1.9c-3,1.7-5.5,4.3-7.5,7.3c-2,2.9-3.2,6.3-3.8,9.7c-0.3,1.7-0.3,3.3,0,4.9
			c0.2,0.8,0.4,1.5,0.6,2.3c0.1,0.4,0.3,0.7,0.5,1.1l0.6,1.3c1.8,3.8,3,7.9,3.1,12.1c0,0.5,0,1.1,0,1.6l0,1.5"/>
		<path fill="#FFFFFF" d="M555.1,146.7l-48.4-85.2c-1.5-3-6.4-2.4-6.8,0.8c-2.5,19.6,3.2,73,18.6,105
			C518.5,167.3,530.6,160.9,555.1,146.7z"/>
		<path fill="#FFFFFF" d="M503.2,216.2L503.2,216.2c0.1,2.2,2,3.8,4.1,3.8l15.4-0.4c2.1-0.1,3.8-1.7,3.9-3.8l0,0
			c0-0.7-0.5-1.3-1.2-1.2c-3.6,0.3-13.9,1-20.9,0.4C503.7,215,503.1,215.5,503.2,216.2z"/>
	</g>
	<rect x="635.6" y="325.9" fill="#2F8F6D" width="20.3" height="73.4"/>
</g>
<g>
</g>
<g>
</g>
<g>
</g>
<g>
</g>
<g>
</g>
<g>
</g>
<g>
</g>
<g>
</g>
<g>
</g>
<g>
</g>
<g>
</g>
<g>
</g>
<g>
</g>
<g>
</g>
<g>
</g>
</svg>
