<?xml version="1.0" encoding="utf-8"?>
<!-- Generator: Adobe Illustrator 18.0.0, SVG Export Plug-In . SVG Version: 6.00 Build 0)  -->
<!DOCTYPE svg PUBLIC "-//W3C//DTD SVG 1.1//EN" "http://www.w3.org/Graphics/SVG/1.1/DTD/svg11.dtd">
<svg version="1.1" id="Layer_1" xmlns="http://www.w3.org/2000/svg" xmlns:xlink="http://www.w3.org/1999/xlink" x="0px" y="0px"
	 viewBox="0 0 835.1 439" enable-background="new 0 0 835.1 439" xml:space="preserve">
<g>
	<g>
		<path fill="#58595B" d="M102,307.4c0,0,1.8,47.8,5.7,67.2c3.2,15.6,2.7,31.8-5.5,45.2c-0.1,0.2-0.2,0.3-0.3,0.5
			c-4.8,8.1,0.6,18.7,9.5,18.7h81.7c10.8,0,19.6-8.7,19.6-19.5v-33.8L102,307.4z"/>
	</g>
	<g>
		<path fill="#58595B" d="M336.8,307.4c0,0-1.7,47.8-5.7,67.2c-3.2,15.6-2.7,31.8,5.5,45.2c0.1,0.2,0.2,0.3,0.3,0.5
			c4.8,8.1-0.6,18.7-9.5,18.7H246c-10.8,0-19.6-8.7-19.6-19.5v-33.8L336.8,307.4z"/>
	</g>
	<path fill="#58595B" d="M410.3,212.3c0,0-41,4.3-70.3-13.5c-29.2-17.8-65.4-17.4-85.1,5c-11.1,12.7-9.2,34.3-0.6,48.9
		c35.7,61,115.4,28.1,161.8,11.4c2.5-0.9,9.2-2.4,9-3.1C425.1,260.9,410.3,212.3,410.3,212.3z"/>
	<g>
		<path fill="#FFFFFF" d="M144.6,197.8c2.2,1.6,4.8,2.5,7.5,2.7c18.8,1.1,60.4,3.7,70.3,4.3c0-0.1,0-0.1-0.1-0.1
			c0,0,3.6,0.3,3.9,0.4c0.3,0,3.9,0.2,3.9,0.2c0,0,0,0-0.1,0.1c10.3,1,55.1,5.4,72.4,7.1c4.5,0.4,23.9-4.1,26-0.3
			c8.2,14.3,16.2,58.8,9.9,102.2c-9.9,68.9-99.1,82-157.1,69.3c-13.3-2.9-26.3-7.5-38-14.2c-12.4-7.1-24-16-31-28.3
			c-7.8-13.7-11.9-29.5-12.3-45.1c-0.5-17,2.1-34,5.9-50.6c5.4-23.6,9.4-52.9,19.1-75.3C128.3,162.5,137.7,192.7,144.6,197.8z"/>
	</g>
	<path fill="#58595B" d="M333.1,221.9c0,0-30.7,45-116.9,44.4c-83.8-0.5-104.1-52-104.1-52l14.4-59.9l199.8,42.3L333.1,221.9z"/>
	<path fill="#58595B" d="M387.1,251.4l-0.2,43.2l18.1,0.1c9.9,0.1,18-8,18.1-17.9l0.1-25.3c0-8.9-7.2-16.2-16.1-16.3l-3.7,0
		C394.4,235.2,387.1,242.4,387.1,251.4z"/>
	<path fill="#FFFFFF" d="M427.1,153.2c0,0-62.2,48.9-59.3,113.7s59.3,77,59.3,77l12.3-176.7L427.1,153.2z"/>
	<g>
		<path fill="#FFFFFF" d="M401.9,303.4c0,0,1,34.6,5.3,57.4c3.5,18.4,3,37.5-6.1,53.2c-0.1,0.2-0.2,0.4-0.3,0.5
			c-5.3,9.5,0.7,22,10.4,22h89.8c11.9,0,21.6-10.3,21.6-23v-39.8L401.9,303.4z"/>
	</g>
	<g>
		<path fill="#FFFFFF" d="M666.1,303.4c0,0-1,34.6-5.3,57.4c-3.5,18.4-3,37.5,6.1,53.2c0.1,0.2,0.2,0.4,0.3,0.5
			c5.3,9.5-0.7,22-10.4,22h-89.8c-11.9,0-21.6-10.3-21.6-23v-39.8L666.1,303.4z"/>
	</g>
	<g>
		<path fill="#FFFFFF" d="M643.3,164.1l-19.5,12.6c-18.1-0.3-73-1.4-85.3-1.6c0-0.1,0-0.2,0.1-0.2c0,0-4.1,0.1-4.5,0.1
			c-0.4,0-4.5-0.1-4.5-0.1c0,0,0.1,0.1,0.1,0.2c-14.7,0.3-91,1.7-91,1.7S397.6,229,401,295.5c3.7,72.1,71.5,100.3,133.1,97.7
			c42.3,1.7,87.5-11,112.9-42.5l0,0C704.8,285.1,643.3,164.1,643.3,164.1z"/>
	</g>
	<g>
		<path fill="#EDEDEE" d="M567.9,230c1.9-1.3,2.9-2.8,3-4.6c0.2-9-25.6-11.3-31.7-12.1c-17.9-2.4-35.9-3.3-53.8-5.3
			c-8.5-0.9-36.5-11.8-43.1-4.3c-11.6,13.1,57.3,31.5,66.5,32.1C525.3,237,553.5,239.9,567.9,230z"/>
	</g>
	<path fill="#EDEDEE" d="M398.9,249c-8.4,23.7-6.1,48.7-3.4,73.2c0.7,5.9,12.7,6,12-0.7c-2.5-22.6-5.1-46.4,2.6-68.3
		C412.3,247,400.8,243.4,398.9,249L398.9,249z"/>
	<path fill="#EDEDEE" d="M473.8,392c13.9,2,27.7,4.5,41.4,7.6c6.7,1.5,11.1-8.5,3.4-10.2c-13.7-3-27.5-5.6-41.4-7.6
		c-3-0.4-6.5,1.1-7.5,4.1C468.8,388.7,470.9,391.5,473.8,392L473.8,392z"/>
	<circle fill="#EDEDEE" cx="465.9" cy="29.4" r="29.4"/>
	<circle fill="#EDEDEE" cx="607.8" cy="34.5" r="29.4"/>
	<path fill="#FFFFFF" d="M619.9,30.5c-8.1-4-16.8-6.7-25.7-8c-5.1-0.7-35.8-2.5-50.4,0.8c-5.1,1.2-10.4,1.2-15.4,0
		c-14.6-3.4-45.3-1.5-50.4-0.8c-8.9,1.2-17.6,3.9-25.7,8c-34.1,17-56.8,56.8-53,96.3c4.1,42.8,39.3,70.6,73.2,88.4
		c0.4,0.2,1.3,0.6,2.5,1.1c39.3,16.1,82.9,16.1,122.2,0c1.3-0.5,2.1-0.9,2.5-1.1c33.9-17.8,69.1-45.6,73.2-88.4
		C676.7,87.3,654,47.5,619.9,30.5z"/>
	<path fill="#EDEDEE" d="M538.8,111.1h-10.6c-16.1,0-30,11.5-33.1,27.3l-4.3,22.5c-4,20.8,11.9,40.1,33.1,40.1h19.3
		c21.2,0,37.1-19.3,33.1-40.1l-4.3-22.5C568.8,122.6,554.9,111.1,538.8,111.1z"/>
	<path fill="#5F6062" d="M521.4,149.4h24.1c7.5,0,11.5,9.3,6.4,15.1l-7.4,8.3c-6.1,6.8-16,6.8-22.1,0l-7.4-8.3
		C509.9,158.7,513.9,149.4,521.4,149.4z"/>
	<circle fill="#D1D3D4" cx="479.6" cy="136.8" r="13.7"/>
	<circle fill="#5F6062" cx="479.6" cy="136.8" r="8.6"/>
	<circle fill="#D1D3D4" cx="587" cy="137.9" r="13.7"/>
	<circle fill="#5F6062" cx="587" cy="137.9" r="8.6"/>
	<path fill="#5F6062" d="M519.7,186.6c0,0,15.4,9.6,28.9,0"/>
	<path fill="#EDEDEE" d="M529.7,31.3c0,7.8-0.1,15.6-0.3,23.4c-0.1,4.2,11.3,0.8,11.4-2.9c0.3-7.8,0.4-15.6,0.3-23.4
		C541.1,24.1,529.7,27.7,529.7,31.3L529.7,31.3z"/>
	<polygon fill="#FFFFFF" points="636.2,159.4 751.5,176.3 751.5,259.7 643.6,278.7 	"/>
	<rect x="711.6" y="115.1" fill="#BCBEC0" width="36.3" height="321.6"/>
	<path fill="#FFFFFF" d="M747.9,263.6L747.9,263.6c-17.1,0-31-14-31-31V199c0-17.1,14-31,31-31h0c17.1,0,31,14,31,31v33.5
		C778.9,249.6,765,263.6,747.9,263.6z"/>
	<path fill="#D1D3D4" d="M772.2,151.8h-84.9c-34.7,0-62.9-28.2-62.9-62.9v-21c0-34.7,28.2-62.9,62.9-62.9h84.9
		c34.7,0,62.9,28.2,62.9,62.9v21C835.1,123.7,806.9,151.8,772.2,151.8z"/>
	<path fill="#58595B" d="M151,181.9c-6.9-1.8-13-2.4-18.5-2.1l-0.5-0.5c-0.9,0.2-1.7,0.5-2.6,0.7c-5.5,0.6-10.5,2.2-15.1,4.5
		c-2.5,1.1-5.1,2.3-7.6,3.6c-14.8,6.2-28.9,14.1-41.7,23.9c-16,12.3-27.7,23.6-48.5,27.7c-8.8,1.7-15.6,5.2-16.4,15
		c-0.9,11,2.1,21.9,5.7,32.2c3.4,9.7,8.7,15.5,17.8,20.3c20.1,10.8,54.3,7.1,106.5-15.5c1-0.4,1.9-0.8,2.9-1.2
		c0.4-0.2,0.7-0.3,1.1-0.5c62.1-27.8,53.2-64.2,53.2-64.2C186.6,207.4,169.5,186.7,151,181.9z"/>
	<path fill="#F1625B" d="M138,77l-56.4,44c-6.1,4.8-5.6,14.2,1.1,18.3l16.6,10.1c5,3.1,11.6,1.6,14.9-3.2l34.9-51.1L138,77z"/>
	<path fill="#F1625B" d="M145.5,74.6l-71.4-5.3c-7.8-0.6-13.7,6.8-11.5,14.2l5.5,18.6c1.7,5.7,7.5,9,13.2,7.6l60.2-14.4L145.5,74.6z
		"/>
	
		<ellipse transform="matrix(-0.9889 0.1486 -0.1486 -0.9889 320.4665 74.1477)" fill="#58595B" cx="157.5" cy="49" rx="24.2" ry="25.1"/>
	
		<ellipse transform="matrix(-0.9889 0.1486 -0.1486 -0.9889 479.6148 36.2237)" fill="#58595B" cx="238.5" cy="36" rx="24.2" ry="25.1"/>
	<path fill="#FFFFFF" d="M346.8,166.8c10.7-42.9-18.2-75.3-42.4-107.4c-13.7-18.2-37.4-30.6-60.2-29.9
		c-60.4,1.9-112.7,16-122.6,69.1c-1.6,8.6-3.2,33.7-4.8,42.3c-2,10.7-2.3,21.4-1.1,31.5c2.5,21,14.2,38.1,33.1,47.8
		c30.4,15.6,57.6,17.1,90.9,14.8c30.8-2.1,76-12.3,94.5-39.6C340,186.9,344.3,177,346.8,166.8z"/>
	<g>
		<path fill="#F1625B" d="M273.7,35.5c0,0,25.9,9.2,42.7,39.7L119.8,115c0,0,0-32.9,16.9-49.5L273.7,35.5z"/>
	</g>
	<g>
		<polygon fill="#FFFFFF" points="157.8,81.6 159.1,74.6 163.8,79.9 170.8,78.9 167.3,85 170.4,91.4 163.5,89.9 158.4,94.8 
			157.6,87.8 151.4,84.5 		"/>
		<polygon fill="#FFFFFF" points="169.5,72.1 169.8,70.3 171.1,71.7 173,71.4 172,73 172.8,74.7 171,74.3 169.6,75.6 169.4,73.8 
			167.8,72.9 		"/>
		<polygon fill="#FFFFFF" points="177.8,76.5 178.1,74.7 179.4,76.1 181.3,75.8 180.3,77.4 181.1,79.1 179.3,78.7 177.9,80 
			177.7,78.2 176.1,77.3 		"/>
		<polygon fill="#FFFFFF" points="180.1,86 180.5,84.2 181.7,85.6 183.6,85.3 182.6,86.9 183.5,88.6 181.6,88.2 180.3,89.5 
			180.1,87.7 178.4,86.8 		"/>
		<polygon fill="#FFFFFF" points="174.5,92.5 174.8,90.6 176.1,92 177.9,91.8 177,93.4 177.8,95.1 176,94.7 174.6,96 174.4,94.1 
			172.8,93.2 		"/>
	</g>
	<path fill="#58595B" d="M188.9,126.4c7.7-11.8,19.8-21.8,32.5-23.9c23.2-3.8,37,21.2,32.4,41.4c-5.4,24-30.8,37.7-54.1,30.2
		c-12.9-4.1-21.5-15.3-18.8-29.1C182.1,138.9,185,132.4,188.9,126.4z"/>
	<path fill="#58595B" d="M334.5,111.6c-5.8-9.7-17.3-18.9-27.1-18.9c-19.6,0.1-25.8,15.2-22.5,31.5c4,19.4,20.6,32.7,38.4,27.2
		c9.8-3,19.1-13.6,17.1-24.7C339.6,121.7,337.5,116.5,334.5,111.6z"/>
	
		<ellipse transform="matrix(1 7.829929e-003 -7.829929e-003 1 1.0221 -1.8771)" fill="#FFFFFF" cx="240.2" cy="129.6" rx="7.9" ry="8.2"/>
	
		<ellipse transform="matrix(-1 -7.829975e-003 7.829975e-003 -1 479.7303 261.0672)" fill="#58595B" cx="240.4" cy="129.6" rx="6" ry="6.2"/>
	<path fill="#58595B" d="M249.6,131.4l-18.5-5.8c0,0,7-8.2,12-6.1C248.1,121.6,250,125.1,249.6,131.4z"/>
	<path fill="#58595B" d="M293.1,167c-9.2,2.6-24.1,5.6-37.6,3.2c-2.9-0.5-4.5,3.2-2.3,5.2c9,8.1,25.4,16.7,42.9-3.5
		C298.1,169.8,295.9,166.3,293.1,167z"/>
	<path fill="#58595B" d="M292.4,152c-0.1,2-0.1,3.7,0,5.4l0.2,4.8c0.1,1.6,0.1,3.1,0.1,4.7c0,0.4,0,0.8,0,1.2l-0.1,1.3
		c0,0.2,0,0.4,0,0.7c0,0.2,0,0.4,0,0.7c0,0.5,0,0.9,0,1.5l0.2,0.2c0.9-1.5,1.7-3.1,2.1-4.9c0.4-1.7,0.6-3.5,0.6-5.3
		c-0.1-1.8-0.4-3.5-0.8-5.3c-0.5-1.7-1.1-3.4-2-4.9L292.4,152z"/>
	<path fill="#FFFFFF" d="M283.6,171.6c0,0,0.9,3.5-4.1,4.6c-5,1.1-10.1,1.2-11.4-3.1C268,173.1,277,173.9,283.6,171.6z"/>
	
		<ellipse transform="matrix(-0.9956 -9.331972e-002 9.331972e-002 -0.9956 590.4381 253.1048)" fill="#FFFFFF" cx="301.1" cy="112.7" rx="6.1" ry="6.3"/>
	
		<ellipse transform="matrix(0.9956 9.331973e-002 -9.331973e-002 0.9956 11.8357 -27.61)" fill="#58595B" cx="301.1" cy="112.7" rx="4.5" ry="4.6"/>
	<path fill="#58595B" d="M295.6,117.3l11-10.1c0,0-7.5-3.4-10.3-0.3S293.2,113,295.6,117.3z"/>
	<path fill="#FFFFFF" d="M275.2,98.7c0,0,19.6,9.9,27.6,32.7l-33.4-1.2L275.2,98.7z"/>
	<path fill="#58595B" d="M292.5,127.4l-14.5,4c-5.7,1.6-9.1,7.4-7.6,12.9l0,0.1c0.8,3,3,5.5,6,6.8l8.6,3.6c4.6,1.9,10,0.5,13-3.5
		l5.8-7.7c2-2.6,2.6-5.9,1.8-9v0C304.2,129.1,298.3,125.8,292.5,127.4z"/>
	<g>
		<path fill="#FFFFFF" d="M668.5,81.8c0.2,1.5,0.6,2.7,1.3,3.5c1.2,1.4,3.2,2.1,6,2.1c1.7,0,3.1-0.2,4.2-0.6c2-0.7,3-2,3-3.9
			c0-1.1-0.5-2-1.5-2.6c-1-0.6-2.6-1.1-4.7-1.6l-3.7-0.8c-3.6-0.8-6.1-1.7-7.4-2.6c-2.3-1.6-3.4-4-3.4-7.3c0-3,1.1-5.6,3.4-7.6
			c2.2-2,5.5-3,9.9-3c3.6,0,6.7,0.9,9.3,2.8c2.6,1.9,3.9,4.6,4,8.2H682c-0.1-2-1-3.5-2.7-4.3c-1.1-0.6-2.5-0.9-4.2-0.9
			c-1.9,0-3.4,0.4-4.5,1.1c-1.1,0.7-1.7,1.8-1.7,3.1c0,1.2,0.6,2.1,1.7,2.7c0.7,0.4,2.2,0.9,4.5,1.4l6,1.4c2.6,0.6,4.6,1.4,5.9,2.5
			c2,1.6,3,3.9,3,6.9c0,3.1-1.2,5.7-3.6,7.7c-2.4,2-5.8,3.1-10.1,3.1c-4.5,0-8-1-10.5-3c-2.6-2-3.8-4.8-3.8-8.3H668.5z"/>
		<path fill="#FFFFFF" d="M709.3,58.4h8l12,33.9h-7.7l-2.2-7h-12.5l-2.3,7h-7.4L709.3,58.4z M708.8,79.5h8.7l-4.3-13.3L708.8,79.5z"
			/>
		<path fill="#FFFFFF" d="M738.3,58.4h7.1v27.8h16.9v6.1h-24V58.4z"/>
		<path fill="#FFFFFF" d="M796.9,64.4h-17.9v7.2h16.5v5.9h-16.5v8.7h18.8v6.1H772V58.4h24.9V64.4z"/>
	</g>
</g>
<g>
</g>
<g>
</g>
<g>
</g>
<g>
</g>
<g>
</g>
<g>
</g>
<g>
</g>
<g>
</g>
<g>
</g>
<g>
</g>
<g>
</g>
<g>
</g>
<g>
</g>
<g>
</g>
<g>
</g>
</svg>
