<?xml version="1.0" encoding="utf-8"?>
<!-- Generator: Adobe Illustrator 18.0.0, SVG Export Plug-In . SVG Version: 6.00 Build 0)  -->
<!DOCTYPE svg PUBLIC "-//W3C//DTD SVG 1.1//EN" "http://www.w3.org/Graphics/SVG/1.1/DTD/svg11.dtd">
<svg version="1.1" id="Layer_1" xmlns="http://www.w3.org/2000/svg" xmlns:xlink="http://www.w3.org/1999/xlink" x="0px" y="0px"
	 viewBox="0 0 704.2 461.5" enable-background="new 0 0 704.2 461.5" xml:space="preserve">
<g>
	<g>
		<rect x="247.4" y="153.9" fill="#F69D9A" width="133.6" height="307.7"/>
		<path fill="#F58E93" d="M323.8,160.6c-5.6,19.7-6.8,39.5-6.3,59.3c0.5,19.9,2.7,39.9,3.6,59.8c0.9,19.8,0.7,39.6-3.6,59.3
			c-4.2,19.2-14.2,38.1-21.1,57.1c-6.6,18.4-9.8,37.4,2.8,55.6c1.6,2.3,3.4,4.6,5.5,6.8c-0.1-0.2,3.2-1.5,3.6-1.6
			c0.4-0.2,3.8-1.4,3.5-1.7c-16.4-17.8-16.2-36.7-10.7-55.2c5.7-19.1,16.5-38,21.7-57.1c5.4-19.7,6.3-39.5,5.7-59.3
			c-0.6-19.8-2.8-39.7-3.7-59.5c-0.9-19.8-0.5-39.6,4.1-59.4c0.6-2.5,1.2-5,1.9-7.5c-0.1,0.4-2.9,1.3-3.6,1.6
			C326.5,159.3,323.9,160.1,323.8,160.6L323.8,160.6z"/>
		<path fill="#F58E93" d="M356.9,160.6c-5.6,19.7-6.8,39.5-6.3,59.3c0.5,19.9,2.7,39.9,3.6,59.8c0.9,19.8,0.7,39.6-3.6,59.3
			c-4.2,19.2-14.2,38.1-21.1,57.1c-6.6,18.4-9.8,37.4,2.8,55.6c1.6,2.3,3.4,4.6,5.5,6.8c-0.1-0.2,3.2-1.5,3.6-1.6
			c0.4-0.2,3.8-1.4,3.5-1.7c-16.4-17.8-16.2-36.7-10.7-55.2c5.7-19.1,16.5-38,21.7-57.1c5.4-19.7,6.3-39.5,5.7-59.3
			c-0.6-19.8-2.8-39.7-3.7-59.5c-0.9-19.8-0.5-39.6,4.1-59.4c0.6-2.5,1.2-5,1.9-7.5c-0.1,0.4-2.9,1.3-3.6,1.6
			C359.7,159.3,357.1,160.1,356.9,160.6L356.9,160.6z"/>
		<path fill="#F58E93" d="M297,160.6c-5.6,19.7-6.8,39.5-6.3,59.3c0.5,19.9,2.7,39.9,3.6,59.8c0.9,19.8,0.7,39.6-3.6,59.3
			c-4.2,19.2-14.2,38.1-21.1,57.1c-6.6,18.4-9.8,37.4,2.8,55.6c1.6,2.3,3.4,4.6,5.5,6.8c-0.1-0.2,3.2-1.5,3.6-1.6
			c0.4-0.2,3.8-1.4,3.5-1.7c-16.4-17.8-16.2-36.7-10.7-55.2c5.7-19.1,16.5-38,21.7-57.1c5.4-19.7,6.3-39.5,5.7-59.3
			c-0.6-19.8-2.8-39.7-3.7-59.5c-0.9-19.8-0.5-39.6,4.1-59.4c0.6-2.5,1.2-5,1.9-7.5c-0.1,0.4-2.9,1.3-3.6,1.6
			C299.7,159.3,297.1,160.1,297,160.6L297,160.6z"/>
		<path fill="#F58E93" d="M264,212.8c0.7,6.7-2.9,13.4-4.7,20c-1.8,6.3-1.9,12.7-1.3,19.1c1,12.7,4.6,25.5,2.2,38.2
			c-1.3,7.1-4.6,14.2-11,20.9c1.2-1.3,4.2-2.4,5.5-3.7c23.3-24.4,4.2-50.5,9.5-75.7c1.6-7.5,6.2-15,5.4-22.6c0,0.4-2.2,1.5-2.8,1.9
			C266.1,211.4,264,212.3,264,212.8L264,212.8z"/>
		<path fill="#F58E93" d="M278.8,257.5c7.6,25.7,3.6,51.9-11.5,77.2c-3.5,5.9-6.9,12.3-18.5,16.9c-0.5,0.2,0.5,1.8,0.6,2.1
			c0.1,0.3,1.3,1.9,0.7,2.1c10.4-4.1,14.1-9.7,17.4-15.1c4-6.4,7.2-13,9.8-19.5c5-13.1,7.2-26.3,6.4-39.6
			c-0.4-7.1-1.8-14.2-3.8-21.2C279.6,259.5,279.3,258.5,278.8,257.5C278.7,256.9,278.6,256.7,278.8,257.5L278.8,257.5z"/>
		<path fill="#F58E93" d="M363.4,420.1c-7.6-12.5-1.9-25.8,15.8-36.8c-1.9,1.2-6.1,1.8-8,3c-17.7,11-23.4,24.3-15.8,36.8
			c-0.1-0.2,3.6-1.3,4-1.5C359.9,421.4,363.5,420.4,363.4,420.1L363.4,420.1z"/>
	</g>
	<g>
		<path fill="#F8A79E" d="M576.9,226.2c0.4-0.2,0.7-0.4,1-0.7L688,140.3c21.4-13.9,21.6-41,0.4-54L567.5,0.9l0,0
			c-1.2-0.7-2.7-1.1-4.4-0.9L28.5,46c-6.5,0.6-8.7,7.9-3.3,10.9l5.4,3c4.6,2.6,3.8,8.7-1.4,10.5l-3.4,1.2c-5.2,1.8-6.1,7.9-1.4,10.5
			c4.7,2.6,3.8,8.8-1.6,10.5L4.6,98.5c-5.7,1.9-6.3,8.7-0.8,10.9l19.7,8c5.6,2.3,4.9,9.3-1.1,11l-13.8,3.9c-5.9,1.7-6.7,8.7-1.1,11
			l28.8,11.9c4.8,2,5.1,7.8,0.4,10.3L20.9,174c-4.7,2.6-4.4,8.5,0.6,10.4l22.7,8.5c4.8,1.8,5.4,7.4,1.1,10.1l-17.1,10.9
			c-4.3,2.7-3.7,8.3,1,10.1l18.1,7.1c4.3,1.7,5.3,6.6,1.8,9.5l-30.7,26.4c-4.6,4-1.1,10.6,5.3,10l32.3-2.9l10.6-0.9l459.4-39
			l3.7-0.3l44.1-7C575,227,576,226.7,576.9,226.2L576.9,226.2L576.9,226.2z"/>
		<path fill="#F69696" d="M38,114c64.5-6.3,70.9-5.5,135.4-11.4c64.3-5.9,128.7-11.5,193.1-17c36.4-3.1-2.3,0.6,34.1-2.4
			c8.1-0.7,3.1-7.7-2.8-7.3c-64.8,5.3-54.4,4.1-119.2,9.7c-64.8,5.7-129.7,11.5-194.5,17.6c-36.6,3.4-15.1,0.1-51.7,3.6
			c-2.9,0.3-3.6,2.7-2.4,4.4C31.6,113.6,35.1,114.3,38,114L38,114z"/>
		<path fill="#F69696" d="M234.8,136.4c101.4-4,202.8-10.8,303.9-20.6c28.4-2.8,56.8-5.8,85.2-9c7.6-0.9,5.1-10.3-1.7-9.5
			c-100.9,11.4-202.1,20-303.5,25.6c-28.5,1.6-57,2.9-85.5,4C225.5,127.1,228,136.6,234.8,136.4L234.8,136.4z"/>
		<path fill="#F69696" d="M437.1,147.5c65.8-7.2,131.8-13.3,197.9-18.2c18.6-1.4,37.1-2.6,55.7-3.8c7.7-0.5,7.2-9.5-0.7-9
			c-66.1,4.2-132.2,9.6-198.1,16.2c-18.5,1.9-37,3.8-55.5,5.8C428.7,139.3,429.1,148.4,437.1,147.5L437.1,147.5z"/>
		<path fill="#F69696" d="M185.2,212c88.7-4.8,177.4-9.5,266.1-14.3c25.2-1.4,50.4-2.7,75.6-4.1c3-0.2,6.3-1.8,6.6-4.4
			c0.3-2.5-2.7-4.3-5.6-4.1c-88.7,4.8-177.4,9.5-266.1,14.3c-25.2,1.4-50.4,2.7-75.6,4.1c-3,0.2-6.3,1.8-6.6,4.4
			C179.3,210.4,182.3,212.1,185.2,212L185.2,212z"/>
		<path fill="#F69696" d="M62,256.7c57.1-6.7,114.3-11.5,171.7-14.5c16.4-0.9,32.8-1.5,49.2-2.1c3-0.1,5.8-2.3,5.5-4.8
			c-0.3-2.7-3.8-4-6.8-3.9c-57.4,1.9-114.7,5.7-171.9,11.3c-16.3,1.6-32.7,3.4-49,5.3C52.8,248.9,54.4,257.5,62,256.7L62,256.7z"/>
	</g>
	<g>
		<g>
			<path fill="#FFFFFF" d="M130.2,132.9l-18.8,1.9l-4-39.9l18.8-1.9L130.2,132.9z M120.3,136.7c-1.4,4.4-3.6,9.6-5.4,13
				c-1.3-0.9-3.9-2.2-5.5-2.8c2-3.1,3.8-7.6,4.9-11.4L120.3,136.7z M120.4,99.6l-6.4,0.6l0.6,5.6l6.4-0.6L120.4,99.6z M121.5,110.7
				l-6.4,0.6l0.6,5.7l6.4-0.6L121.5,110.7z M122.7,121.9l-6.4,0.6l0.6,5.8l6.4-0.6L122.7,121.9z M126.7,134.1c2.4,2.8,5.4,6.6,6.9,9
				l-4.7,3.7c-1.4-2.6-4.4-6.7-6.8-9.6L126.7,134.1z M152.6,113c-1.3,1.8-2.8,3.5-4.4,5.2l13.7-1.4l2.8,28.1l-6.7,0.7l-0.3-2.7
				l-11.7,1.2l0.3,2.9l-6.4,0.6l-2.1-20.7c-1.1,0.8-2.3,1.6-3.4,2.2c-0.9-1.4-3.1-4.1-4.5-5.3c5-2.7,9.5-6,13.4-9.8l-13.1,1.3
				l-0.6-6.2l11.2-1.1l-0.6-6.1l-8.5,0.8l-0.6-6.2l8.5-0.8l-0.6-6.5l6.8-0.7l0.6,6.5l7-0.7l0.4,4.4c1-2.1,1.8-4.4,2.5-6.7l6.3,1.3
				c-1.4,4.6-3.3,9-5.6,13l7.6-0.8l0.6,6.2L152.6,113z M155.8,123.1l-11.7,1.2l0.4,4.1l11.7-1.2L155.8,123.1z M157.2,137.2l-0.5-4.6
				l-11.7,1.2l0.5,4.6L157.2,137.2z M147.7,107.2l1.5-0.1c1.4-2.1,2.7-4.2,3.8-6.5l-5.9,0.6L147.7,107.2z"/>
			<path fill="#FFFFFF" d="M230.9,128l0.7,7.5l-56.7,5.7l-0.7-7.5l22.3-2.2l-4.7-47l8-0.8l1.8,17.8l22-2.2l0.8,7.5l-22,2.2l2.2,21.6
				L230.9,128z"/>
			<path fill="#FFFFFF" d="M250.7,81.5c-1.2,3.1-2.7,6.2-4.4,9.1c3.2,6.4,4.4,13.4,5.1,21c0.9,8.5,1.3,17.7-0.9,21.6
				c-0.6,1.2-1.7,2.1-3.2,2.5c-1.7,0.6-3.8,0.9-6.1,1.1c-0.3-2.3-1-4.7-2.3-6.6c2,0,3.4-0.2,4.4-0.4c0.7-0.1,1.2-0.4,1.5-1
				c1-1.4,0.8-7.4,0.2-14c-1.5,2.9-3.1,5.6-4.8,7.7c-1-1.6-3.1-4.1-4.6-5.3c3.1-3.2,6.3-9.2,7.8-14.3c-0.5-2-1-4-1.5-5.8
				c-1.1,1.4-2.2,2.7-3.4,4c-1.2-1.3-3.5-3.1-5.1-4c1.9-2,3.7-4.3,5.4-6.8c-1.4-2.4-3.3-4.6-5.5-6.8l4.6-4c1.7,1.5,3.1,3.2,4.4,4.7
				c0.9-1.9,1.7-3.8,2.3-5.6L250.7,81.5z M258.7,109.2l9.9-1l2.1,21l-9.9,1l0.4,4.3l-5.9,0.6l-4.9-49l2.9-0.3
				c0.5-2.7,0.9-5.8,1.1-8.2l6.8,0.5c-0.6,2.4-1.2,4.8-1.7,7l6.2-0.6l2,19.6l-9.4,0.9L258.7,109.2z M260.5,91.4l-3.6,0.4l0.7,7.1
				l3.6-0.4L260.5,91.4z M259.3,115.5l0.9,8.5l4-0.4l-0.9-8.5L259.3,115.5z M282.2,83.9l0.6,6.4l8.3-0.8l2.8,27.9
				c0.2,2.3,0.1,4-1.2,5.1c-1.2,1.1-2.8,1.5-4.9,1.7c-0.3-1.4-1.2-3.3-2.1-4.8l1.4,13.5l-6,0.6l-3.6-36.4l-2.7,0.3l2.8,28l-5.4,0.5
				l-3.4-34.3l8.1-0.8l-0.6-6.4l-8.8,0.9l-0.6-6.3l24-2.4l0.6,6.3L282.2,83.9z M283.4,96.6l2.2,22.1c1,0,1.8-0.1,2.3-0.2
				c0.4,0,0.5-0.2,0.4-0.7l-2.2-21.6L283.4,96.6z"/>
			<path fill="#FFFFFF" d="M357.4,101.9l-24.2,2.4l1.5,15c0.4,4.2-0.3,6.3-3.1,7.8c-2.9,1.5-7.2,2.1-12.9,2.6
				c-0.7-2.1-2.5-5.4-3.9-7.4c4.4-0.2,9.3-0.7,10.6-0.9c1.4-0.2,1.8-0.6,1.7-1.6l-1.5-14.8l-24.7,2.5l-0.7-7.4l24.7-2.5l-0.9-8.7
				c3.7-2.3,8-5.5,11.3-8.6l-30.6,3.1l-0.7-7.4l38.9-3.9l1.7-0.5l6,3.7c-4.8,5.8-11.7,12.1-18.5,16.7l0.5,4.7l24.2-2.4L357.4,101.9z
				"/>
			<path fill="#FFFFFF" d="M418.1,70.8c0,0,0.2,2.5,0.3,3.4c2,28,2.3,38,0.1,41.5c-1.5,2.5-3.2,3.3-5.6,4c-2.3,0.5-6.1,0.9-9.8,1.1
				c-0.3-2-1.6-5.1-3.2-7c4,0,7.7-0.4,9.3-0.6c1.2-0.1,1.9-0.4,2.6-1.3c1.6-2.2,1.5-11.6,0-33.7l-13.4,1.3
				c-1.2,3.9-2.8,7.5-4.5,10.4c-1.1-0.8-3.4-2.1-5.2-3l2.9,29.1l-16.7,1.7l0.5,4.6l-6.7,0.7l-4.6-46.4l7.1-0.7
				c0.5-3.2,0.8-7.3,0.8-10.2l8.2,0.3c-0.7,3.2-1.6,6.5-2.4,9.2l9.7-1l1,10.1c3.1-5.6,5.3-13.5,6.4-20.9l7.2,0.9
				c-0.4,2.7-1,5.5-1.6,8.2L418.1,70.8z M381.4,81.5l-9.9,1l1,10.1l9.9-1L381.4,81.5z M384.3,110.2L383.1,98l-9.9,1l1.2,12.2
				L384.3,110.2z M404.7,104.8c-2.1-3.6-6.6-9.3-10.1-13.5l5.5-3.9c3.5,4,8.3,9.5,10.6,12.9L404.7,104.8z"/>
			<path fill="#FFFFFF" d="M486.6,100.8l-13.1,1.3l0.5,4.9c0.3,3.5-0.2,5.3-2.7,6.6c-2.3,1.2-5.8,1.6-10.4,2c-0.5-2-1.8-4.5-3-6.3
				c3.1-0.2,6.5-0.5,7.5-0.6c1-0.2,1.3-0.4,1.2-1.1l-0.5-4.7l-18.3,1.8c3,1.5,6.4,3.1,8.4,4.3l-4,5.5c-2.5-1.8-7.7-4.5-11.5-6.4
				l2.3-3l-13.3,1.3l-0.6-5.9l36.3-3.6l-0.3-2.7l-30.3,3l-2.3-23.1l13.8-1.4l-0.2-2.4l-18.7,1.9l-0.6-5.7l13.5-1.4
				c-1-1.4-2.3-2.8-3.5-3.9l5.8-3c1.7,1.5,4,3.8,5.1,5.4l-1.9,1l14.8-1.5c1-2.1,2.1-4.7,2.6-6.6l8,1.2c-1.2,1.6-2.3,3.3-3.3,4.7
				l13-1.3l0.6,5.7l-18.9,1.9l0.2,2.4l14.8-1.5l2.3,23.1l-7.5,0.8l0.3,2.7l13-1.3L486.6,100.8z M439.8,77.7l0.4,4.2
				c4.7-1.2,6.2-3,6.5-4.9L439.8,77.7z M441.2,92.2l31.5-3.1l-0.8-8.2l-0.6,0.1l-6.5,0.6c-5.6,0.6-7.1-0.4-7.5-4.7l-0.1-0.9
				l-4.2,0.4c-0.2,3.8-2.5,7.2-8.9,9.8c-0.7-1.2-2.5-3.1-3.8-4L441.2,92.2z M445.7,85.6l22.3-2.2l0.4,3.9l-22.3,2.2L445.7,85.6z
				 M452.6,72.1l4.1-0.4l-0.2-2.4l-4.1,0.4L452.6,72.1z M463.5,75.4l0.1,1c0.1,1.4,0.4,1.5,1.8,1.4l4.7-0.5c1-0.1,1.3-0.2,1.4-0.6
				l-0.2-2.1L463.5,75.4z"/>
			<path fill="#FFFFFF" d="M502.2,81.8c0.9,8.7,1.2,21.6-3.2,30.2c-1.2-1.1-4.4-3.1-6-3.6c3.8-7.9,3.1-18.4,2.4-26L494,68.1
				l52.7-5.3l0.6,6.1l-45.9,4.6L502.2,81.8z M517.5,63.8l-20.4,2l-1-10.3l20.4-2L517.5,63.8z M546.5,80.4
				c-0.6,5.7-1.8,10.7-3.8,14.9c2.8,2.6,6.2,4.5,9.9,5.7c-1.4,1.5-3.1,4.3-3.9,6.2c-3.5-1.4-6.7-3.5-9.4-6.1c-2.3,3-5.1,5.6-8.5,7.8
				c-0.9-1.2-3.3-3.6-4.7-4.6l0.5,4.9l-6.1,0.6l-0.4-4.4c-5.7,1.3-11.2,2.5-15.7,3.4l-1.3-5.3l4.1-0.7l-1.6-16.2l-2,0.2l-0.5-4.7
				l8.2-0.8l-0.2-2.3l-6.9,0.7l-0.4-4.5l20.5-2l0.4,4.5l-7.4,0.7l0.2,2.3l8.2-0.8l0.5,4.7l-2.1,0.2l0.4,3.7c3-4.3,4.7-10.7,5-17.1
				l6.4,0.5c-0.1,1.3-0.2,2.7-0.5,4l12.7-1.3l0.6,5.7L546.5,80.4z M510,58l-7,0.7l0.3,2.7l7-0.7L510,58z M511.4,86l0.3,2.6l6.6-0.7
				l-0.3-2.6L511.4,86z M512.2,94.8l6.6-0.7l-0.3-2.7l-6.6,0.7L512.2,94.8z M519.4,100.4l-0.3-2.6l-6.6,0.7l0.3,3.2L519.4,100.4z
				 M542.4,61.3l-20.6,2.1l-1-10.3l20.6-2.1L542.4,61.3z M525.9,104.2c3.8-2.2,6.8-4.8,9-8.1c-1.4-2-2.7-4.1-3.8-6.4
				c-0.5,0.9-1,1.8-1.6,2.6c-1.1-1-3.7-3-5.2-3.8L525.9,104.2z M534.8,55.5l-7.2,0.7l0.3,2.7l7.2-0.7L534.8,55.5z M534.1,81.6
				l-0.3,0.9c1.1,2.7,2.5,5.2,4.1,7.5c1-2.7,1.6-5.6,1.9-8.9L534.1,81.6z"/>
			<path fill="#FFFFFF" d="M202.2,192.5l0.8,7.9c0.2,2.3,0,3.7-1.5,4.7c-1.4,1-3.4,1.2-6.1,1.5c-0.3-1.5-1.3-3.6-2.1-4.9
				c1.6-0.1,3.4-0.3,3.9-0.3c0.6-0.1,0.7-0.3,0.6-0.7l-0.8-7.7l-7.8,0.8l-1-9.8c-0.6,0.5-1.3,1-1.9,1.5c-0.4-0.7-1.3-1.8-2.2-2.8
				l1.7,17.1l-8.4,0.8l0.4,3.8l-4.9,0.5l-3.7-37.5l13.3-1.3l1.5,14.8c1.2-0.8,2.2-1.7,3.2-2.7c-0.9-0.9-2.1-1.8-3.1-2.6l2.9-2.7
				c1,0.6,1.9,1.3,2.8,2c0.6-0.9,1.1-1.9,1.6-2.9l-7.1,0.7l-0.4-4.4l9-0.9c0.4-1.5,0.6-3.1,0.8-4.8l5,0.2c-0.1,1.4-0.3,2.7-0.6,4
				l13-1.3l0.4,4.4l-7.9,0.8c0.8,1.1,1.6,2.1,2.6,3c0.7-1.1,1.4-2.2,1.9-3.1l3.9,1.8c-1,1.3-2,2.6-3,3.7c1.5,1.1,3.2,1.9,4.9,2.5
				c-1.1,1.1-2.4,3.1-3.1,4.5c-0.6-0.2-1.1-0.5-1.7-0.8l1,9.5L202.2,192.5z M174.4,171.8l0.5,4.8l3.5-0.3l-0.5-4.8L174.4,171.8z
				 M175.9,186.2l3.5-0.3l-0.5-4.9l-3.5,0.3L175.9,186.2z M180.3,195.4l-0.5-4.9l-3.5,0.3l0.5,4.9L180.3,195.4z M194.6,195.9
				c-1.2,3.8-3.6,7.7-6,10.2c-1-0.8-3.2-2-4.4-2.6c2.3-2.2,4.4-5.3,5.4-8.4L194.6,195.9z M203.6,180.6l-10.8,1.1l0.2,2.2l10.8-1.1
				L203.6,180.6z M193.6,189.6l10.8-1.1l-0.2-2.2l-10.8,1.1L193.6,189.6z M196.6,171.5c-0.8,2.3-1.8,4.4-3,6.4l8.7-0.9
				c-1.6-1.7-3-3.6-4.2-5.6L196.6,171.5z M208.4,193.1c2.6,2.2,5.5,5.3,7,7.5l-4.1,2.9c-1.4-2.2-4.2-5.5-6.8-7.9L208.4,193.1z"/>
			<path fill="#FFFFFF" d="M262.9,191.9l-8,0.8l0.8,7.7l-5.3,0.5l-0.8-7.7l-8.7,0.9l-0.5-4.8l8.7-0.9l-0.4-4.2l-3.9,0.4
				c-0.4,1.4-0.9,2.7-1.5,3.8c-0.9-0.5-2.6-1.2-3.9-1.6l1,9.9c0.2,2.2,0,3.6-1.3,4.6c-1.4,0.9-3.3,1.3-6.1,1.6
				c-0.3-1.3-1.2-3.4-2.1-4.6c1.9-0.1,3.7-0.3,4.3-0.3s0.8-0.3,0.7-0.9l-0.7-6.8l-9.3,0.9c0,4.5-0.7,9.1-2.5,12.7
				c-0.9-0.7-3-1.7-4.1-2.1c2.7-5.1,2.2-12.2,1.7-17.4l-0.7-6.9c-1-0.8-2.9-2.1-4-2.6c2.8-3.7,4.8-9.5,5.5-15.1l5,0.5
				c-0.2,1.2-0.4,2.3-0.7,3.4l4.3-0.4l0.7-0.3l3.4,1.7c-0.5,1.9-1.2,4.1-2,6.2l5.3-0.5l0.3,2.9c3.7-2.2,4.8-5,5.2-8.5l-5.3,0.5
				l-0.5-4.5l20.8-2.1c0,0,0.1,1.2,0.1,1.8c0.5,7.5,0.5,10.8-0.5,12.1c-0.7,1.1-1.6,1.5-2.7,1.8c-1,0.2-2.8,0.5-4.7,0.6
				c-0.2-1.4-0.9-3.3-1.7-4.4c1.5,0,2.7-0.1,3.4-0.2c0.6-0.1,0.9-0.2,1.2-0.6c0.4-0.6,0.4-2.2,0.2-6.1l-5.4,0.5
				c-0.3,5-1.7,9-6.2,12.1l4.3,0.4c-0.1,1-0.2,2.1-0.4,3.1l2.3-0.2l-0.4-4.2l5.3-0.5l0.4,4.2l7-0.7l0.5,4.7l-7,0.7l0.4,4.2l8-0.8
				L262.9,191.9z M225.1,168.1c-0.4,1.2-0.8,2.4-1.3,3.6l4-0.4c0.4-1.1,0.7-2.3,1-3.6L225.1,168.1z M225,179.2l2.7-0.3l-0.4-3.5
				l-2.7,0.3L225,179.2z M225.5,184c0.1,1,0.2,2,0.3,3.1l2.7-0.3l-0.4-3.9l-2.7,0.3L225.5,184z M231.4,178.6l2.7-0.3l-0.4-3.5
				l-2.7,0.3L231.4,178.6z M234.8,186.2l-0.4-3.9l-2.7,0.3l0.4,3.9L234.8,186.2z M239.4,186c1.3-2.5,2.1-6.1,2.3-9.5
				c-0.3,0.2-0.6,0.4-0.9,0.6c-0.5-0.9-1.6-2.1-2.6-3L239.4,186z"/>
			<path fill="#FFFFFF" d="M306.5,155.7l0.5,4.7l-41.4,4.1l-0.5-4.7l18.1-1.8c-0.5-1.1-1-2.2-1.5-3.2l5.6-2c0.7,1.4,1.6,3.1,2.3,4.5
				L306.5,155.7z M308.8,190.1c0.2,2.4-0.3,3.5-2,4.4c-1.6,0.7-4.2,1-7.4,1.3c-0.4-1.2-1.3-2.7-2-3.8l-13.4,1.3l0.2,2l-5.2,0.5
				l-1.2-12.4l20.4-2l1,10.4l-0.7,0.1c1.6-0.1,3.3-0.3,3.8-0.4c0.7-0.1,0.9-0.3,0.9-0.9l-1.1-11.3l-28,2.8l1.6,16.5l-5.4,0.5
				l-2.1-21l39-3.9L308.8,190.1z M302.5,172.8l-29.6,3l-1-10l29.6-3L302.5,172.8z M296,167.1l-18.1,1.8l0.3,2.6l18.1-1.8L296,167.1z
				 M293.6,185.8l-10.3,1l0.3,2.7l10.3-1L293.6,185.8z"/>
			<path fill="#FFFFFF" d="M315.4,189.8c1.4-2.8,2.8-7,3.5-10.3l5.2,1.6c-0.8,3.4-2,7.8-3.2,10.7L315.4,189.8z M334.7,175.8
				l-13.5,1.3l-2.3-23l10.8-1.1c0.3-1.6,0.7-3.3,0.8-4.7l6.8,0.2c-0.5,1.5-1.1,2.8-1.6,4l12.8-1.3l2.3,23l-13.5,1.3
				c2.2,1.7,4.4,4,5.5,5.7l-4.3,3.1c-1.1-2-3.9-4.9-6.3-6.8L334.7,175.8z M325,160.1l18.5-1.8l-0.2-2.2l-18.5,1.8L325,160.1z
				 M342.4,186c2.3-0.2,2.6-0.9,2.4-5.4c1.3,0.8,3.7,1.3,5.3,1.5c0,6.6-1.5,8.4-6.7,8.9l-8.9,0.9c-6.6,0.7-8.5-0.7-9-5.7l-0.6-6.5
				l5.7-0.6l0.6,6.4c0.1,1.4,0.6,1.5,3.3,1.2L342.4,186z M325.6,166.2l18.5-1.8l-0.2-2.2l-18.5,1.8L325.6,166.2z M326.3,172.4
				l18.5-1.8l-0.2-2.2l-18.5,1.8L326.3,172.4z M352.5,175.3c2.5,2.9,5.1,6.7,6.2,9.5l-5.1,2.8c-0.9-2.7-3.4-6.7-5.8-9.7L352.5,175.3
				z"/>
			<path fill="#FFFFFF" d="M402.9,148.9c0,0,0.2,1.9,0.2,2.5c1.5,21,1.7,28.5,0,31.2c-1.1,1.9-2.4,2.5-4.2,3
				c-1.8,0.4-4.6,0.6-7.4,0.8c-0.2-1.5-1.2-3.8-2.4-5.3c3,0,5.8-0.3,7-0.4c0.9-0.1,1.4-0.3,2-1c1.2-1.6,1.1-8.7,0-25.3l-10,1
				c-0.9,2.9-2.1,5.7-3.4,7.8c-0.8-0.6-2.5-1.5-3.9-2.3l2.2,21.9l-12.5,1.3l0.3,3.4l-5.1,0.5l-3.5-34.8l5.3-0.5
				c0.4-2.4,0.6-5.5,0.6-7.7l6.2,0.2c-0.6,2.4-1.2,4.9-1.8,6.9l7.3-0.7l0.8,7.6c2.3-4.2,4-10.1,4.8-15.7l5.4,0.7
				c-0.3,2.1-0.7,4.1-1.2,6.1L402.9,148.9z M375.4,157l-7.5,0.7l0.8,7.6l7.5-0.7L375.4,157z M377.5,178.6l-0.9-9.2l-7.5,0.7l0.9,9.2
				L377.5,178.6z M392.8,174.5c-1.6-2.7-5-7-7.6-10.2l4.1-2.9c2.7,3,6.2,7.1,7.9,9.7L392.8,174.5z"/>
			<path fill="#FFFFFF" d="M424.5,170.4c-0.6-1.2-1.6-2.9-2.6-4.7l1.8,18.1l-5.2,0.5l-1.5-15.4c-1,3.3-2.1,6.3-3.4,8.5
				c-0.7-1.6-2.2-3.9-3.3-5.2c2.1-3.3,4-8.5,5.1-13.2l-5.1,0.5l-0.5-5.2l5.6-0.6l-0.6-5.7c-1.4,0.4-2.7,0.8-4.1,1.1
				c-0.4-1.2-1.2-3-2-4.1c4.4-1.3,9.2-3.2,12.4-5l3.7,4.2c-1.5,0.8-3.2,1.6-5,2.2l0.7,6.8l5-0.5l0.5,5.2l-5,0.5l0.1,0.7
				c1.1,1.1,4.2,4.4,5.6,5.9c0.6-3.7,0.8-8.1,0.7-12l4.2,0.5c0.1,5,0,11.5-1,15.5l-4.5-1c0.1-0.3,0.2-0.6,0.2-0.9L424.5,170.4z
				 M446.2,176c1.4-0.1,1.5-1.3,1.2-6.6c1.3,0.7,3.5,1.4,5,1.6c0.1,7-1,9.4-5.2,9.9l-5.3,0.5c-4,0.4-5.7-0.6-6.5-4.1
				c-1.4,1.7-2.9,3.2-4.4,4.7c-1-0.9-3.5-2.6-4.9-3.4c3.2-2.7,5.9-5.9,8.3-9.5l-1.9-19.2l5.3-0.5l1.1,11.2c2.5-6,4.3-12.8,5.4-20.1
				l5.5,0.6c-0.8,4.8-1.9,9.4-3.1,13.6l2.7-1c2.2,4.1,4.3,9.4,5.3,13.1l-4.9,2c-0.7-3.1-2.4-7.3-4-11.1c-1.6,4.6-3.6,9-5.8,12.9
				l0.4,3.7c0.2,2,0.4,2.3,1.9,2.1L446.2,176z M439.7,148.8c-2-1.7-6.2-4.4-9.2-6.3l3-4.1c2.9,1.6,7.2,4.1,9.3,5.7L439.7,148.8z"/>
			<path fill="#FFFFFF" d="M464.3,149l-5.4,0.5l-1-9.8l17.3-1.7c-0.3-1.1-0.8-2.2-1.3-3.1l5.3-1.5c0.6,1.2,1.4,2.7,1.9,4l17.1-1.7
				l1,9.8l-5.7,0.6l-0.5-4.9l-18.1,1.8c2.6,0.8,5.5,1.9,7.1,2.9l-2.5,3.8c-1.8-1.3-5.5-2.9-8.5-3.7l1.9-2.9l-9,0.9L464.3,149z
				 M478,161.3c-2.5,0.3-4.3,0.2-5.5-0.3c-3.5,2-7.1,3.7-10.7,5.1c-0.8-1.1-2.6-3.2-3.6-4.2c4.1-1.4,8.1-3.1,11.8-5.1l-0.1-0.6
				l-0.8-7.9l5-0.5l0.6,6.2c4.9-3.2,9.1-6.9,11.8-11.1l4.9,1.8c-3.1,4.6-7.3,8.6-12.2,12.1l6.7-0.7c2.1-0.2,2.4-0.9,2.2-4.6
				c1.2,0.6,3.3,1.1,4.6,1.3c0,5.6-1.3,7.1-6,7.6L478,161.3z M468.1,150.8c-1.1,3.1-2.7,6.6-5.1,9.1l-4.8-2.3
				c2.3-2.2,4.2-5.5,5.2-8.4L468.1,150.8z M491.6,162.6l5.6-0.6l1.4,14.1l-5.6,0.6l-0.2-1.5l-27.4,2.7l-1.2-11.8l5.5-0.5l0.7,6.6
				l8-0.8l-0.9-8.8l5.7-0.6l0.9,8.8l8.3-0.8L491.6,162.6z M493.1,146.6c3,2.1,6.7,5.2,8.6,7.5l-4,3.4c-1.6-2.2-5.2-5.5-8.3-7.8
				L493.1,146.6z"/>
		</g>
	</g>
</g>
<g>
</g>
<g>
</g>
<g>
</g>
<g>
</g>
<g>
</g>
<g>
</g>
<g>
</g>
<g>
</g>
<g>
</g>
<g>
</g>
<g>
</g>
<g>
</g>
<g>
</g>
<g>
</g>
<g>
</g>
</svg>
