<?xml version="1.0" encoding="utf-8"?>
<!-- Generator: Adobe Illustrator 18.0.0, SVG Export Plug-In . SVG Version: 6.00 Build 0)  -->
<!DOCTYPE svg PUBLIC "-//W3C//DTD SVG 1.1//EN" "http://www.w3.org/Graphics/SVG/1.1/DTD/svg11.dtd">
<svg version="1.1" id="Layer_1" xmlns="http://www.w3.org/2000/svg" xmlns:xlink="http://www.w3.org/1999/xlink" x="0px" y="0px"
	 viewBox="0 0 514 269.7" enable-background="new 0 0 514 269.7" xml:space="preserve">
<g>
	<path fill="#D65B51" d="M418.9,219.9H95.1C42.8,219.9,0,177.1,0,124.8l0-29.7C0,42.8,42.8,0,95.1,0l323.9,0
		C471.2,0,514,42.8,514,95.1v29.7C514,177.1,471.2,219.9,418.9,219.9z"/>
	<path fill="#FFFFFF" d="M61.5,101.4c126.1-1.4,252.2,0.4,378.1,5.5c-0.1,0,0.1-2.5,0-2.5c-125.9-5-252-6.9-378.1-5.5
		C61.4,98.9,61.5,101.4,61.5,101.4L61.5,101.4z"/>
	<path fill="#FFFFFF" d="M61.5,158.1c113.4,3.9,227,5,340.5,3.1c0.1,0,0-2.5,0-2.5c-113.5,1.9-227.2,0.9-340.5-3.1
		C61.6,155.6,61.4,158.1,61.5,158.1L61.5,158.1z"/>
	<path fill="#D65B51" d="M181.7,199.9c0,0-15.7,50.2-57.2,69.8c0,0,14.1-26-5.3-63L181.7,199.9z"/>
	<g>
		<path fill="#FFFFFF" d="M73.3,70.2v3.2c-1.2,2-2.6,4-4.2,6h4.6v2.7c-0.5,2.9-1.1,5.3-1.8,7.2c0.3,0.2,0.6,0.4,0.9,0.8
			c1.3,1.2,2.4,2.1,3.6,2.6c1.2,0.4,2.8,0.7,5,0.8c2.2,0,4.6,0,7.4,0c2.9,0,6.6-0.1,11.2-0.3l-1,3.9h-9.8c-2.7,0-5.4-0.1-8.1-0.2
			c-2.7-0.1-4.8-0.4-6.1-1c-1.7-0.7-3.2-1.7-4.5-3.1c-0.3-0.3-0.6-0.4-0.9-0.4c-0.8,0-2,1.7-3.7,5.2l-3-2.8c1.8-3.4,3.6-5.5,5.2-6.1
			c0.7-1.8,1.3-3.7,1.7-5.8h-5.6v-3.1c1.8-2.1,3.4-4,4.6-5.8h-5.2v-3.8H73.3z M73.3,66.4l-2.7,2.7c-1.4-1.8-3.5-3.7-6.1-5.8l2.8-2.6
			C69.6,62.6,71.6,64.5,73.3,66.4z M84.5,64.2c-0.4-1.1-0.9-2.1-1.4-3l4.4-0.7c0.4,1.1,0.9,2.3,1.3,3.7h9.9v3.8H75.1v-3.8H84.5z
			 M96.7,81.1v10.5H77.3V81.1H96.7z M95.8,70.1v3.3H78.2v-3.3H95.8z M95.8,75.6v3.3H78.2v-3.3H95.8z M92.7,84.5H81.4v3.7h11.2V84.5z
			"/>
		<path fill="#FFFFFF" d="M108.5,82.2v-3.8h35.7v3.8h-15.3v3.4h11v3.7h-11v3.8c1.8,0.2,3.9,0.2,6.2,0.2c3.6,0,6.6-0.1,9-0.2
			l-1.2,3.9c-2.8,0-5.3,0-7.6-0.1c-6.6,0-11.2-0.6-13.6-1.5c-1.9-0.8-3.6-2.4-5.1-4.6c-1.5,2.7-3.4,4.9-5.7,6.7l-2.7-3.5
			c3.6-2.8,6-6.5,7.3-11.1l4,0.7c-0.4,1.4-0.8,2.7-1.3,4c1.5,2.4,3.3,3.8,5.2,4.5c0.4,0.1,0.8,0.2,1.3,0.4V82.2H108.5z M138.9,61.7
			v14.6h-25V61.7H138.9z M134.8,67.4v-2.1H118v2.1H134.8z M134.8,70.6H118v2.2h16.8V70.6z"/>
		<path fill="#FFFFFF" d="M171.1,68.6c0.3-0.9,0.5-1.8,0.7-2.8h-12.2v11.5c-0.2,8.4-1.5,15.1-4,20.2l-3.2-2.8
			c1.9-4.2,2.8-10,2.9-17.3V61.8h33.3v4.1H176c-0.2,1-0.4,1.9-0.7,2.8h10.7v16.2h-8.8v8.8c0,2.6-1.4,3.8-4,3.8h-4l-0.9-4.1
			c1.2,0.2,2.4,0.3,3.5,0.3c0.8,0,1.2-0.4,1.2-1.1v-7.8H163V68.6H171.1z M169.2,87.5c-1.8,3.4-3.8,6.4-6.2,8.9l-3.4-2.4
			c2.3-2.3,4.3-5.1,6-8.3L169.2,87.5z M181.9,74.9v-2.5h-14.8v2.5H181.9z M181.9,78.4h-14.8V81h14.8V78.4z M189.2,94.2l-3.5,2.4
			c-1.4-2.6-3.4-5.6-6-8.8l3.4-2.1C185.8,89,187.8,91.8,189.2,94.2z"/>
		<path fill="#FFFFFF" d="M200.9,78l-3.7-1c1.1-4.2,1.7-8.6,1.8-13.3l3.7,0.3c-0.1,1.5-0.2,3-0.3,4.6h1.7v-7.9h4.1v7.9h2.7v4h-2.7v8
			c0.8-0.4,1.7-0.8,2.6-1.2v3.9c-0.9,0.4-1.7,0.8-2.6,1.2v13.2h-4.1V86c-1.8,0.6-3.6,1.3-5.5,1.8l-1-4c2.2-0.4,4.4-1,6.5-1.8v-9.6
			H202C201.7,74.4,201.4,76.2,200.9,78z M219.4,61.5c-0.4,1.8-0.8,3.5-1.2,5.1h15.1c0,13.9-0.2,22.5-0.6,25.7
			c-0.5,3.4-2.8,5.2-6.8,5.2c-0.6,0-1.6-0.1-3-0.2l-1-3.7c1.3,0.1,2.4,0.2,3.3,0.2c2.1,0,3.4-1.1,3.7-3.3c0.2-1.9,0.4-8.5,0.4-19.8
			h-1.4c-0.8,6.4-2,11.5-3.5,15.3c-1.8,4.2-4.6,8.1-8.2,11.4l-2.6-3.3c3.3-3,5.7-6.2,7.4-9.9c1.4-3.4,2.5-7.9,3.2-13.5h-2
			c-1.7,8.5-4.7,14.7-9,18.6l-2.7-3.1c3.8-3.3,6.5-8.4,8-15.5h-1.7c-1,2.4-2.2,4.4-3.5,6l-3-2.6c2.5-3.1,4.2-7.6,5.3-13.5
			L219.4,61.5z"/>
		<path fill="#FFFFFF" d="M248.2,80.6c-0.8,4.2-1.7,7.8-2.8,11l-3-1.1c1.1-2.8,2.1-6.4,2.9-10.7L248.2,80.6z M248.3,72.2l-3.2,0.9
			c-0.6-2.8-1.3-5.5-2.1-8.1l3.4-1.1C247.1,66.2,247.7,69,248.3,72.2z M249.1,74.2V60.5h4.1v13.7h5.2v4h-5.2v19.2h-4.1V78.2h-5.6v-4
			H249.1z M258.7,63.9c-0.2,3.3-0.8,6.3-1.6,8.8l-3.1-1c0.6-2.4,1-5.2,1.2-8.3L258.7,63.9z M259.2,89l-3.1,0.8
			c-0.5-3.2-1.1-6.3-1.8-9.3l2.7-0.9C257.8,82.3,258.5,85.5,259.2,89z M275.6,60.6v22.3l3.2-0.5l0.7,4l-3.9,0.6v10.5h-4v-9.9
			l-11.5,1.7l-0.6-4l12.1-1.8V60.6H275.6z M269.5,78.9l-2.8,2.7c-1.5-2-3.8-4.1-6.6-6.3l2.7-2.6C265.5,74.8,267.7,76.9,269.5,78.9z
			 M270.7,69.2l-2.8,2.7c-1.6-1.8-3.9-3.8-6.8-5.9l2.7-2.6C266.5,65.3,268.9,67.2,270.7,69.2z"/>
		<path fill="#FFFFFF" d="M301.1,61.8v3.3c-1,3.4-2.3,6.9-3.8,10.7c2.2,3.7,3.4,6.9,3.6,9.6c0,1.9-0.4,3.3-1.2,4.2
			c-1.2,1-3.1,1.6-5.9,1.6l-1.4-4.2c0.9,0.2,1.6,0.2,2.2,0.2c0.8-0.1,1.3-0.2,1.6-0.4c0.2-0.2,0.4-0.7,0.4-1.3c0-2.7-1.2-5.7-3.6-9
			c1.6-4,2.8-7.5,3.7-10.7h-4.3v31.9h-4.1V61.8H301.1z M323.8,62.5v4h-2.4v26.3c0,2.9-1.3,4.4-4,4.4h-6l-0.9-4
			c1.9,0.2,3.7,0.2,5.5,0.2c0.9,0,1.4-0.6,1.4-1.7V66.5h-15.2v-4H323.8z M314.2,71.3v15.8h-11.1V71.3H314.2z M310.4,74.9h-3.5v8.6
			h3.5V74.9z"/>
		<path fill="#FFFFFF" d="M354,77.9c0,3.9-1.8,6.9-5.5,8.8l-1.4-2.3c2.4-1.5,3.7-3.3,3.9-5.6c-0.2,0-0.5,0.1-0.8,0.1
			c-0.9,0-1.6-0.3-2.2-0.8c-0.6-0.6-0.9-1.3-0.9-2.1c0-0.9,0.3-1.6,0.9-2.2c0.6-0.6,1.3-0.8,2.2-0.8C352.8,73,354,74.6,354,77.9z"/>
		<path fill="#FFFFFF" d="M378,80.7l-1.4-4.5c4.1-4.5,7.2-9.8,9.2-16l3.9,1.8c-1,3.1-2.4,6.1-4.1,8.9v26.6h-4.2V76.9
			C380.3,78.2,379.2,79.5,378,80.7z M390.4,77l-3.6-2.2c3-4.4,5-9.2,6.2-14.2l3.9,0.8c-0.3,1.2-0.7,2.4-1,3.6h16.7v2.7
			c-0.6,2.4-1.4,4.8-2.3,7.1l-4-1.2c0.8-1.4,1.4-2.9,2-4.7h-13.8C393.3,71.9,391.9,74.6,390.4,77z M396.2,78
			c-1.4,5.5-3.2,10.3-5.4,14.4l-3.9-1.4c2.1-3.7,3.9-8.4,5.5-14L396.2,78z M393.8,97.3l-0.9-3.9c1.6,0.2,3.2,0.3,4.6,0.3
			c1,0,1.4-0.5,1.4-1.5V71.8h4v21.4c0,2.8-1.4,4.2-4.1,4.2H393.8z M413.6,91.4L410,93c-1.4-5.8-3.1-10.9-4.9-15.3l3.7-1.2
			C410.6,81.1,412.3,86.1,413.6,91.4z"/>
		<path fill="#FFFFFF" d="M457.6,62.3v4.1h-12.9c-0.7,1.5-1.4,2.9-2.3,4.3v1.7c6.3,3.6,11.7,7.4,16.2,11.7l-2.9,3.5
			c-3.6-3.8-8-7.4-13.3-10.8v20.9h-4.3V76.6c-3.6,4.1-8.2,7.8-13.6,11l-2.8-3.6c8.6-4.9,14.7-10.7,18.2-17.6h-17v-4.1H457.6z"/>
		<path fill="#FFFFFF" d="M66.8,134.8l-3.7-2.3c2.6-3.8,4.4-7.7,5.4-11.9l4.1,0.9c-0.4,1.4-0.8,2.8-1.2,4h10.6v4h-5.3
			c0,2.3-0.2,4.5-0.4,6.5h6.1v4h-6.6l-0.5,2.4c2.4,2.4,4.8,5.1,7.3,8.1l-2.6,3.9c-2.4-3.5-4.3-6.2-5.9-8.1c-1.7,4-4.5,7.5-8.6,10.4
			l-2.7-3.4c4.1-3.1,6.8-6.8,8.1-11.2l0.5-2.1h-7.7v-4h8.3c0.2-2,0.3-4.2,0.4-6.5h-2.7C68.9,131.4,67.9,133.1,66.8,134.8z
			 M98.6,155.8h-4.1v-2.2h-6.6v2.2h-4v-31.4h14.8V155.8z M94.5,149.7v-21.5h-6.6v21.5H94.5z"/>
		<path fill="#FFFFFF" d="M115.3,130.2v3.2c-1.2,2-2.6,4-4.2,6h4.6v2.7c-0.5,2.9-1.1,5.2-1.8,7.1c0.3,0.2,0.6,0.4,0.9,0.8
			c1.3,1.2,2.5,2,3.6,2.5c1.1,0.4,2.8,0.7,5,0.8c2.2,0,4.6,0,7.4,0c2.9,0,6.6-0.1,11.2-0.3l-1,3.9h-9.8c-2.7,0-5.4-0.1-8.1-0.2
			c-2.7-0.1-4.8-0.4-6.1-0.9c-1.7-0.6-3.2-1.7-4.5-3.1c-0.3-0.3-0.6-0.4-0.9-0.4c-0.8,0-2,1.7-3.7,5.2l-3-2.8
			c1.8-3.5,3.6-5.6,5.3-6.2c0.7-1.8,1.2-3.7,1.6-5.7h-5.6v-3.1c1.8-2.1,3.4-4,4.6-5.8h-5.2v-3.8H115.3z M115.1,126.4l-2.7,2.7
			c-1.4-1.8-3.4-3.7-6.1-5.8l2.7-2.6C111.4,122.6,113.4,124.5,115.1,126.4z M122.3,124.6c-0.6-1-1.2-1.9-1.9-2.8l3.8-1.5
			c0.8,1.2,1.6,2.6,2.4,4.3h4.3c1-1.4,1.8-2.8,2.6-4.3l4,1.4c-0.6,1-1.2,2-1.9,2.9h5.9v3.7h-11c-0.2,0.8-0.5,1.6-0.8,2.3h9v20.2
			h-19.3v-20.2h5.8c0.3-0.8,0.5-1.5,0.7-2.3h-9.4v-3.7H122.3z M134.9,136.4v-2.2h-11.6v2.2H134.9z M134.9,141.7v-2.1h-11.6v2.1
			H134.9z M134.9,144.9h-11.6v2.3h11.6V144.9z"/>
		<path fill="#FFFFFF" d="M158.9,149.1h-6.8v2.5h-3.9v-28.1h10.7V149.1z M155.1,145.2v-17.9h-3v17.9H155.1z M164.2,144.8
			c-0.6,4.2-1.2,7.9-2,11l-3.4-1.2c0.9-2.8,1.6-6.3,2.3-10.6L164.2,144.8z M183.1,139.5c0,9-0.5,14.2-1.6,15.7c-1,1.5-3,2.3-6,2.3
			c-1.1,0-2.2,0-3.4-0.1l-0.9-3.7c1.3,0.1,2.4,0.2,3.6,0.2c2.2,0,3.5-0.7,3.9-2.2c0.1-0.5,0.2-1,0.3-1.7l-2.7,1.1
			c-0.5-2.3-1.2-4.6-1.9-6.7l2.8-0.8c0.8,2.2,1.4,4.2,1.8,5.9c0.2-1.6,0.2-3.8,0.2-6.5h-17.9v-21.2h21v3.5h-7.6v2.5h6.9v3.4h-6.9
			v2.6h7v3.4h-7v2.5H183.1z M165.3,125.2v2.5h5.6v-2.5H165.3z M165.3,133.6h5.6V131h-5.6V133.6z M165.3,139.5h5.6V137h-5.6V139.5z
			 M169,154l-3.3,0.4c-0.1-4.2-0.2-7.4-0.4-9.6l3-0.4C168.7,146.7,168.9,149.9,169,154z M174.1,152l-3.2,0.7c-0.3-3-0.7-5.7-1.1-8
			l3-0.6C173.3,146.5,173.7,149.1,174.1,152z"/>
		<path fill="#FFFFFF" d="M214.5,126.4c1.6,1.4,2.4,3.3,2.4,5.8c0,2-0.5,3.6-1.5,4.9c-0.4,0.4-1.5,1.5-3.4,3.2
			c-0.7,0.6-1.2,1.2-1.6,2c-0.4,0.8-0.6,1.7-0.6,2.6v0.6h-4.6v-0.6c0-1.5,0.2-2.8,0.8-3.9c0.5-1.1,1.4-2.2,2.8-3.4
			c1.3-1.2,2.1-1.9,2.4-2.3c0.7-0.9,1.1-1.8,1.1-2.8c0-1.3-0.4-2.4-1.1-3.1c-0.8-0.8-1.8-1.1-3.2-1.1c-1.7,0-3,0.5-3.8,1.6
			c-0.7,0.9-1,2.2-1,4h-4.6c0-3,0.8-5.3,2.6-7c1.7-1.7,4-2.5,7-2.5C210.8,124.3,212.9,125,214.5,126.4z M209.7,148.2
			c0.6,0.6,0.9,1.3,0.9,2.2s-0.3,1.6-0.9,2.2c-0.6,0.6-1.4,0.8-2.2,0.8s-1.6-0.3-2.2-0.9c-0.6-0.6-0.9-1.3-0.9-2.2s0.3-1.6,0.9-2.2
			c0.6-0.6,1.3-0.8,2.2-0.8S209.1,147.6,209.7,148.2z"/>
		<path fill="#FFFFFF" d="M242.2,122c-2,4.4-5.3,8.4-10.1,12l-1.2-4c3.5-2.7,6.1-6,7.8-9.7L242.2,122z M243.5,132.3
			c-0.9,1.9-2,3.8-3.4,5.5v19.8H236v-15.6c-1.1,1-2.3,1.9-3.6,2.8l-1.2-4c3.9-3,6.8-6.4,8.7-10.3L243.5,132.3z M248.6,151.7
			c2.2-0.6,4.4-1.4,6.7-2.4l0.9,3.8c-3.3,1.3-7.4,2.6-12.3,3.8l-0.9-3.6c1-0.3,1.5-0.8,1.5-1.4v-30.1h20.1v18.1h-16V151.7z
			 M260.5,125.6h-12v3.4h12V125.6z M248.6,136.1h12v-3.4h-12V136.1z M267.4,143.3c-1.8,2.1-3.9,3.8-6.2,5c1.9,2.3,4.2,4.1,6.9,5.4
			l-2.3,3.4c-5.6-3.1-9.6-8-12.2-14.5l3.1-1.8c0.7,1.7,1.5,3.2,2.4,4.6c2-1.1,3.8-2.8,5.6-4.8L267.4,143.3z"/>
		<path fill="#FFFFFF" d="M285.3,122.5c-0.9,2.7-2,5.3-3.3,7.8v27.4h-4.1v-21.2c-1.1,1.4-2.4,2.9-3.6,4.2l-1.4-4.3
			c3.9-4.5,6.8-9.7,8.6-15.7L285.3,122.5z M288.9,130.9v21.8h21v3.8h-25v-25.6H288.9z M297.3,123.3c0.1-1,0.2-1.9,0.3-2.8l4.4,0.6
			c-0.1,0.7-0.2,1.4-0.3,2.2h7.8v3.7H301l-0.5,2.1h6.6v21.6h-16.2V129h5.3c0.2-0.7,0.3-1.4,0.4-2.1h-11.4v-3.7H297.3z M303.3,135.3
			v-2.7h-8.5v2.7H303.3z M303.3,141v-2.6h-8.5v2.6H303.3z M303.3,144.1h-8.5v2.9h8.5V144.1z"/>
		<path fill="#FFFFFF" d="M317.8,133.5V132c-0.3,0.4-0.7,0.8-1,1.2l-2.2-3.1c2.3-2.6,4.4-5.8,6.4-9.4h2.8c2.5,2.5,4.9,5,7.1,7.6
			l-0.2-1.5l3.6-0.6c-0.4-1.5-0.8-3.1-1.2-4.9l3.9-0.4c0.3,1.8,0.6,3.4,1,4.7l3.9-0.7c-0.8-0.8-1.7-1.7-2.8-2.6l2.6-1.7
			c1.4,1.1,2.4,2.2,3.2,3l-1.4,1l6.3-1.1l0.6,3.5l-4.3,0.8l2.5,1.9c-1.6,1.5-3.4,2.9-5.5,4.1c0,0,0.1,0,0.1,0.1
			c1.3,0.9,2.4,1.3,3.3,1.3c0.6-0.1,1.1-1.1,1.7-3l3.2,2.1c-1.3,3.1-2.8,4.7-4.5,4.7c-1.7,0-3.4-0.6-5.1-1.7
			c-0.8-0.5-1.6-1.1-2.3-1.8c-2.5,1-5.2,1.9-8.2,2.6l-1.6-3.4c2.7-0.6,5.2-1.2,7.4-2c-0.1-0.2-0.2-0.3-0.2-0.4
			c-0.5-0.8-1-1.7-1.4-2.8l-4.3,0.8l-0.3-1.8l-2.5,2.7c-0.3-0.4-0.6-0.7-0.8-1v3.4h-3v3.3h4.6v3.8h-4.6v10.5
			c1.8-0.4,3.6-0.9,5.4-1.4v3.9c-4.4,1.2-9,2.2-14,3.1l-1-4c1.9-0.2,3.8-0.6,5.7-0.9v-11.3h-4.6v-3.8h4.6v-3.3H317.8z M320.1,149.8
			l-3.1,0.8c-0.5-2.7-1.1-5.2-1.8-7.7l3.1-1.1C318.9,144.1,319.5,146.7,320.1,149.8z M327.3,129.8c-1.8-2.2-3.4-4-4.6-5.1
			c-1,1.8-2.1,3.5-3.3,5.1H327.3z M330,142.4c-0.5,2.7-1.2,5-2,7l-3-1.1c0.6-1.8,1.2-4.1,1.8-6.8L330,142.4z M350.9,144.1L347,145
			l2.4,1.8c-1.6,1.8-3.6,3.5-5.9,4.9l0.1,0.1c1.2,1,2.2,1.4,3,1.4c0.7,0,1.4-1.4,2-4.2l3.3,2.2c-1.4,3.9-3.1,5.8-4.9,5.8
			c-1.6,0-3.2-0.6-4.8-1.8c-0.7-0.5-1.4-1.1-2-1.8c-2.5,1.2-5.2,2.1-8.2,2.9l-1.5-3.4c2.8-0.7,5.3-1.5,7.5-2.4
			c-0.2-0.2-0.3-0.4-0.4-0.6c-0.4-0.7-0.8-1.6-1.2-2.6l-5.6,1.2l-0.6-3.7l5.1-1.1c-0.4-1.7-0.8-3.6-1.2-5.8l4-0.4
			c0.3,2,0.6,3.8,1,5.4l2.8-0.6c-0.7-1-1.6-2-2.8-3.1l2.5-1.6c1.3,1.2,2.2,2.3,2.9,3.2l-2,1.4l7.8-1.7L350.9,144.1z M345.7,127.8
			l-6.4,1.1c0.1,0.3,0.3,0.6,0.4,0.9c0.3,0.5,0.6,1,0.9,1.4C342.6,130.2,344.3,129,345.7,127.8z M340.5,147.3c0.2,0.5,0.5,1,0.8,1.5
			c1.8-1.1,3.4-2.3,4.8-3.6l-5.9,1.3L340.5,147.3z"/>
		<path fill="#FFFFFF" d="M372.1,155.1h-4v-2h-5.9v3.2h-4V127h3.8c0.7-2.1,1.2-4.3,1.6-6.6l4.2,0.6c-0.4,2.2-1,4.2-1.8,6h6.1V155.1z
			 M368.1,138v-7h-5.9v7H368.1z M368.1,149.2v-7.6h-5.9v7.6H368.1z M392.1,152.9c-0.4,2.8-2.3,4.2-5.8,4.2c-0.8,0-2.2-0.1-4.3-0.2
			l-1-3.8c1.8,0.1,3.3,0.2,4.6,0.2c1.4,0,2.3-0.8,2.5-2.4c0.2-1.9,0.4-8.5,0.4-19.8H379c-1.1,2.4-2.4,4.6-3.8,6.5l-2.5-3.3
			c2.6-3.8,4.4-8.4,5.4-13.9l4.1,0.5c-0.4,2.2-0.9,4.2-1.5,6.1h12.2C392.7,141,392.5,149.7,392.1,152.9z M385.3,145.3l-3.4,2.3
			c-1.5-2.6-3.5-5.6-6-8.8l3.4-2.1C382,140,383.9,142.8,385.3,145.3z"/>
	</g>
</g>
<g>
</g>
<g>
</g>
<g>
</g>
<g>
</g>
<g>
</g>
<g>
</g>
<g>
</g>
<g>
</g>
<g>
</g>
<g>
</g>
<g>
</g>
<g>
</g>
<g>
</g>
<g>
</g>
<g>
</g>
</svg>
