<?xml version="1.0" encoding="utf-8"?>
<!-- Generator: Adobe Illustrator 18.0.0, SVG Export Plug-In . SVG Version: 6.00 Build 0)  -->
<!DOCTYPE svg PUBLIC "-//W3C//DTD SVG 1.1//EN" "http://www.w3.org/Graphics/SVG/1.1/DTD/svg11.dtd">
<svg version="1.1" id="Layer_1" xmlns="http://www.w3.org/2000/svg" xmlns:xlink="http://www.w3.org/1999/xlink" x="0px" y="0px"
	 viewBox="0 0 511.9 178.4" enable-background="new 0 0 511.9 178.4" xml:space="preserve">
<g>
	<path fill="#FFFFFF" d="M458.5,140.6h-405C24,140.6,0,116.5,0,87.1l0-33.7C0,24,24,0,53.4,0l405,0c29.4,0,53.4,24,53.4,53.4v33.7
		C511.9,116.5,487.9,140.6,458.5,140.6z"/>
	<g>
		<path fill="#757679" d="M53.7,56.2l-3.6-2.3c2.3-2.8,3.9-5.8,4.9-8.9l4,0.9c-0.2,0.7-0.4,1.4-0.7,2h9.3v3.5h-6
			c0.8,1.1,1.5,2.1,2,3.1l-3.8,1.4c-0.8-1.6-1.6-3-2.6-4.5h-0.5C55.9,53.1,54.9,54.7,53.7,56.2z M66.1,63.1v-2.8H52.4v-3.6h13.7
			v-2.1h4.2v2.1H84v3.6H70.2v2.8h12.1v3.6h-3.5v2.8h6.9v3.6h-6.9v5.2c0,2.6-1.5,4-4.4,4h-5.6L68,78.4c1.8,0.2,3.5,0.3,5.1,0.3
			c1.1,0,1.6-0.4,1.6-1.3v-4.2H50.6v-3.6h24.1v-2.8H54.2v-3.6H66.1z M64.7,78.9l-3.3,2.3c-1.2-1.7-2.7-3.5-4.7-5.5l3.4-2.1
			C62,75.6,63.6,77.4,64.7,78.9z M70.9,54.6l-3.4-2.1c1.7-2.4,2.9-4.9,3.6-7.6l3.9,0.8c-0.2,0.7-0.4,1.3-0.6,2h10.7v3.5H79
			c0.8,1.1,1.5,2.2,2,3.2l-3.6,1.4c-0.8-1.6-1.7-3.1-2.7-4.6H73C72.3,52.4,71.6,53.6,70.9,54.6z"/>
		<path fill="#757679" d="M95.7,56.2l-3.6-2.3c2.3-2.8,3.9-5.8,4.9-8.9l4,0.9c-0.2,0.7-0.4,1.4-0.7,2h9.3v3.5h-6
			c0.8,1.1,1.5,2.1,2,3.1l-3.8,1.4c-0.8-1.6-1.6-3-2.6-4.5h-0.5C97.9,53.1,96.9,54.7,95.7,56.2z M108.1,63.1v-2.8H94.4v-3.6h13.7
			v-2.1h4.2v2.1H126v3.6h-13.7v2.8h12.1v3.6h-3.5v2.8h6.9v3.6h-6.9v5.2c0,2.6-1.5,4-4.4,4h-5.6l-0.9-3.9c1.8,0.2,3.5,0.3,5.1,0.3
			c1.1,0,1.6-0.4,1.6-1.3v-4.2H92.6v-3.6h24.1v-2.8H96.2v-3.6H108.1z M106.7,78.9l-3.3,2.3c-1.2-1.7-2.7-3.5-4.7-5.5l3.4-2.1
			C104,75.6,105.6,77.4,106.7,78.9z M112.9,54.6l-3.4-2.1c1.7-2.4,2.9-4.9,3.6-7.6l3.9,0.8c-0.2,0.7-0.4,1.3-0.6,2h10.7v3.5H121
			c0.8,1.1,1.5,2.2,2,3.2l-3.6,1.4c-0.8-1.6-1.7-3.1-2.7-4.6H115C114.3,52.4,113.6,53.6,112.9,54.6z"/>
		<path fill="#757679" d="M155.6,62.7c0,3.9-1.8,6.9-5.5,8.8l-1.4-2.3c2.4-1.5,3.7-3.3,3.9-5.6c-0.2,0-0.5,0.1-0.8,0.1
			c-0.9,0-1.6-0.3-2.2-0.8c-0.6-0.6-0.9-1.3-0.9-2.1c0-0.9,0.3-1.6,0.9-2.2c0.6-0.6,1.3-0.8,2.2-0.8
			C154.4,57.7,155.6,59.4,155.6,62.7z"/>
		<path fill="#757679" d="M183.3,59.2c0,8.7-1.6,16.2-4.6,22.4l-3.1-2.8c2.4-5,3.7-11.6,3.7-19.6V46.5h31.5v9.2h-27.5V59.2z
			 M185.5,73.5l-2.7-2.4c1.8-1.4,3.1-3.2,4-5.3c-0.5,0.1-1,0.2-1.4,0.3l-1-3.2c3.4-0.5,6.5-1,9.2-1.6v2.9c-1.8,0.5-3.7,1-5.9,1.4
			l2.4,0.9c-0.2,0.4-0.4,0.9-0.6,1.3h5.8v-2.2h4.2v2.2h10.7v3.4h-10.7v2.6h12.8v3.5h-12.8v5.1h-4.2v-5.1h-12.6v-3.5h12.6v-2.6h-7.8
			C186.9,72.2,186.2,72.9,185.5,73.5z M183.3,50v2.2h23.4V50H183.3z M193.7,58.1l-1.2,2.9c-2.6-0.9-5.2-1.6-7.9-2.1l1.4-2.7
			C188.7,56.7,191.2,57.3,193.7,58.1z M199.4,56.3v8.5h-4v-8.5H199.4z M210.6,63.5l-1.3,3.2c-2.7-1.1-5.5-2-8.4-2.5l1.4-2.8
			C205.2,61.9,208,62.6,210.6,63.5z M200.9,58c3-0.5,5.8-1.2,8.6-2l1,3c-2.6,0.7-5.4,1.4-8.5,1.9L200.9,58z"/>
		<path fill="#757679" d="M220.6,64.3l-2.8-3.4c2.8-3.3,5.2-8,7.3-14.2l4,0.9c-0.7,2-1.4,4-2.1,5.7h8.1v-8.1h4.2v8.1h13v4.1h-13v8.7
			h15.2v4.1h-15.2v12H235v-12h-16.7v-4.1H235v-8.7h-10C223.7,60,222.2,62.3,220.6,64.3z"/>
		<path fill="#757679" d="M281.6,62.7c0,3.9-1.8,6.9-5.5,8.8l-1.4-2.3c2.4-1.5,3.7-3.3,3.9-5.6c-0.2,0-0.5,0.1-0.8,0.1
			c-0.9,0-1.6-0.3-2.2-0.8c-0.6-0.6-0.9-1.3-0.9-2.1c0-0.9,0.3-1.6,0.9-2.2c0.6-0.6,1.3-0.8,2.2-0.8
			C280.4,57.7,281.6,59.4,281.6,62.7z"/>
		<path fill="#757679" d="M320.6,67.7c-2.1,0.7-4.3,1.4-6.6,2v8.1c0,2.6-1.4,4-4.2,4h-4.5l-0.9-4c1.4,0.2,2.7,0.2,4,0.2
			c0.9,0,1.4-0.5,1.4-1.4v-6c-2.3,0.5-4.7,0.9-7.2,1.3l-0.6-4.2c2.7-0.4,5.3-0.9,7.8-1.4v-6.9h-7.8v-4h7.8v-3.7
			c-1.9,0.4-3.9,0.7-6,1l-0.9-4c5.5-0.6,10.5-1.8,14.8-3.5l1.4,3.9c-1.6,0.6-3.4,1.1-5.2,1.6v4.7h8.2c-0.2-3.1-0.3-6.5-0.3-10.2h4.2
			c0,3.8,0.2,7.2,0.4,10.2h12v4h-11.6c0.2,2.6,0.6,4.7,1,6.4c0.2,0.6,0.3,1.2,0.5,1.8c1.6-2,3.1-4.3,4.3-6.8l3.6,1.9
			c-1.8,3.6-3.9,6.8-6.3,9.4c0.4,1,0.8,1.8,1.3,2.4c1.1,1.8,2,2.6,2.6,2.6c0.4,0,0.9-2,1.4-6l3.7,2c-1,5.7-2.5,8.6-4.5,8.6
			c-1.8,0-3.6-1.2-5.5-3.6c-0.7-0.9-1.4-2-2-3.2c-2.7,2.2-5.8,4-9.1,5.3l-2.3-3.6c3.7-1.4,6.9-3.3,9.7-5.8c-0.4-1.3-0.8-2.6-1.2-4
			c-0.6-2.2-1-4.7-1.4-7.6H314v5.9c2.3-0.6,4.6-1.2,6.6-2V67.7z M337.6,51l-3,3c-1.6-1.8-4-3.6-7-5.6l2.8-2.7
			C333.2,47.5,335.6,49.2,337.6,51z"/>
		<path fill="#757679" d="M353.9,54.9v3.2c-1.2,2-2.5,4-4.1,6h4.5v2.8c-0.5,2.8-1.1,5.2-1.8,7c0.3,0.2,0.6,0.4,0.9,0.8
			c1.3,1.2,2.6,2,3.7,2.6c1.1,0.4,2.8,0.7,5,0.8c2.2,0,4.7,0,7.5,0c3,0,6.8-0.1,11.6-0.3l-1,3.9H370c-2.8,0-5.5-0.1-8.2-0.2
			s-4.8-0.4-6.2-1c-1.7-0.6-3.2-1.6-4.6-3.1c-0.2-0.3-0.6-0.4-0.9-0.4c-0.7,0-1.9,1.8-3.5,5.3l-3-2.8c1.8-3.5,3.4-5.6,5.1-6.2
			c0.7-1.8,1.2-3.6,1.6-5.6h-5.4v-3.1c1.8-2.1,3.2-4,4.4-5.8h-5.1v-3.8H353.9z M353.6,51.1l-2.7,2.7c-1.4-1.8-3.4-3.7-6.1-5.8
			l2.7-2.6C350,47.3,352,49.2,353.6,51.1z M376.7,59.5v7.5h-0.6l2.6,1.6c-0.7,1-1.6,2-2.6,3.1c1.2,0.8,2.3,1.6,3.4,2.4l-2.7,2.7
			c-2.4-2.2-5.7-4.5-10-7l2.4-2.3c1.4,0.8,2.8,1.6,4.1,2.4c1-1.2,1.8-2.1,2.3-2.9h-8.8c-0.8,0.9-1.7,1.7-2.8,2.5v3.8
			c1.8-0.4,3.7-0.8,5.5-1.2l0.7,3.2c-3.2,0.7-6.5,1.2-9.8,1.7l-1.1-2.8c0.7-0.2,1.1-0.6,1.1-1.1v-1.4c-1.2,0.6-2.5,1.2-4,1.7
			l-1.9-3.2c3.2-0.9,5.6-1.9,7.4-3.1H358v-7.5H376.7z M379.6,54.9v3.3h-24.4v-3.3H379.6z M377.6,46.2v7.6h-20.6v-7.6H377.6z
			 M363,48.9h-2.4v2.2h2.4V48.9z M373,62.5h-11.4v1.7H373V62.5z M368.6,48.9h-2.4v2.2h2.4V48.9z M374.1,48.9h-2.4v2.2h2.4V48.9z"/>
		<path fill="#757679" d="M396.6,67.7h-4.2v-9.1c-1.5,2.6-3.3,5-5.4,7.3l-1.5-4c2.8-2.4,5.1-5.2,6.8-8.3h-6v-3.8h6.1v-4h4.2v4h4.7
			v3.8h-4.7v1.2c2,1.2,3.9,2.6,5.9,4.2l-2.4,3.5c-1.4-1.6-2.6-3-3.6-4V67.7z M393.4,70.5c-1,3.8-2.3,7.2-4,10l-3.6-2.3
			c1.6-2.7,2.8-5.6,3.4-8.7L393.4,70.5z M399.6,81.5c-3,0-4.5-1.6-4.5-4.6v-7.6h4.2V76c0,1,0.5,1.4,1.6,1.4h8.4c0.6,0,1-0.2,1.3-0.6
			s0.6-1.7,0.7-3.8l4,1.4c-0.3,3.4-0.9,5.5-1.7,6.2c-0.8,0.6-1.9,0.9-3.5,0.9H399.6z M408.7,73.3l-3.3,2.3c-1-1.6-2.4-3.4-4.1-5.3
			l3.2-2C406.4,70.2,407.8,71.9,408.7,73.3z M420,46.5v20.9h-16.6V46.5H420z M415.9,52.5v-2.3h-8.5v2.3H415.9z M415.9,58.1v-2.2
			h-8.5v2.2H415.9z M415.9,61.5h-8.5v2.4h8.5V61.5z M423,77.1l-3.6,2.5c-1.4-2.7-3.4-5.7-5.8-9.1l3.4-2.1
			C419.6,71.7,421.6,74.6,423,77.1z"/>
		<path fill="#757679" d="M444.8,62.8h-11v19.5h-4.1V46.5h15.1V62.8z M440.6,50.2h-6.8v2.8h6.8V50.2z M433.8,59.1h6.8v-2.7h-6.8
			V59.1z M454.2,64.9v12.8h-16.1V64.9H454.2z M450.1,68.6h-8v5.5h8V68.6z M447.3,62.7V46.5h15.4v31.6c0,2.7-1.4,4.1-4.1,4.1
			c-1.3,0-2.6-0.1-3.8-0.2l-1.1-4c1.2,0.2,2.3,0.2,3.4,0.2c1,0,1.5-0.5,1.5-1.5v-14H447.3z M458.6,50.3h-7.1v2.7h7.1V50.3z
			 M451.5,59.1h7.1v-2.6h-7.1V59.1z"/>
	</g>
	<linearGradient id="SVGID_1_" gradientUnits="userSpaceOnUse" x1="50.3613" y1="87.4069" x2="469.9293" y2="87.4069">
		<stop  offset="0" style="stop-color:#B3B5B8"/>
		<stop  offset="1" style="stop-color:#A9ABAE"/>
	</linearGradient>
	<path fill="url(#SVGID_1_)" d="M50.4,86.2c139.9-1.4,279.9,0.4,419.5,5.5c-0.1,0,0.1-2.5,0-2.5c-139.6-5-279.6-6.9-419.5-5.5
		C50.3,83.7,50.4,86.2,50.4,86.2L50.4,86.2z"/>
	<path fill="#FFFFFF" d="M281.7,127.7c0,0,29.2,43.7,74.6,50.7c0,0-20.9-21-12.7-62L281.7,127.7z"/>
</g>
<g>
</g>
<g>
</g>
<g>
</g>
<g>
</g>
<g>
</g>
<g>
</g>
<g>
</g>
<g>
</g>
<g>
</g>
<g>
</g>
<g>
</g>
<g>
</g>
<g>
</g>
<g>
</g>
<g>
</g>
</svg>
