<?xml version="1.0" encoding="utf-8"?>
<!-- Generator: Adobe Illustrator 18.0.0, SVG Export Plug-In . SVG Version: 6.00 Build 0)  -->
<!DOCTYPE svg PUBLIC "-//W3C//DTD SVG 1.1//EN" "http://www.w3.org/Graphics/SVG/1.1/DTD/svg11.dtd">
<svg version="1.1" id="Layer_1" xmlns="http://www.w3.org/2000/svg" xmlns:xlink="http://www.w3.org/1999/xlink" x="0px" y="0px"
	 viewBox="0 0 120.6 112.1" enable-background="new 0 0 120.6 112.1" xml:space="preserve">
<g>
	<g>
		<path fill="#448577" d="M0,0c10.7,108.7,120.6,112.1,120.6,112.1S109.2,2.7,0,0z"/>
	</g>
	<path fill="#80B493" d="M95.6,85.5c-2.4-2.8-4.9-5.5-7.3-8.2c0,0,0-0.1,0-0.1c0,0,0,0,0,0c-1.4-1.5-2.8-3-4.2-4.5
		c4.5-4.1,5.2-10.2,4.8-16.3c0.1,1.1-0.1,2.3-0.1,3.5c0,0.1-0.1,0.2-0.1,0.4c-0.2,0.5-0.2,1-0.4,1.5c-0.4,1.1-0.9,2.2-1.5,3.1
		c-1.2,1.9-2.8,3.4-4.6,4.5c-0.2,0.1-0.2,0.5-0.2,1c-3.5-3.6-7-7.2-10.7-10.7c0,0,0-0.1,0-0.1c0,0,0,0-0.1,0c-1.4-1.4-2.8-2.7-4.2-4
		c4.1-4.8,4.4-13.4,0.9-18.5c0.7,1-0.8,3.7-0.1,4.8c0.8,1.1,1.1,2.4,1.8,3.5c0.1,0.5,0.1,0.7,0.2,0.9c-0.1,0.3-0.2,0.7-0.3,1
		c-0.8,2.3-2.4,4.1-4.4,5.4c-0.2,0.1-0.2,0.4-0.2,0.8c-3.4-3.2-6.9-6.3-10.5-9.4c0-0.1,0-0.1,0.1-0.1c-0.1,0-0.1,0-0.2,0.1
		c-0.9-0.7-1.7-1.5-2.6-2.2c0-0.2-0.1-0.5-0.1-0.7c-3.7-8.3-8-16.2-12.8-23.9c0.7,1.1-0.8,3.6-0.1,4.8C42,27.7,45.2,33.3,48,39
		C39.3,31.8,30.3,24.9,21,18.3c0.7,0.5-0.8,4.2-0.1,4.8c9.9,6.9,19.4,14.3,28.7,22.1c-7,0.4-15-2.4-21.3-3.6c0.2,0-0.4,4.7-0.1,4.8
		c7.8,1.5,18.1,5.4,25.9,2.8c4.2,3.7,8.4,7.4,12.5,11.2c-8.1,0.6-16.4,0.1-24.4-1.4c0.2,0-0.4,4.7-0.1,4.8c9.5,1.8,19.4,2.2,29,1
		c4.2,4.1,8.3,8.2,12.4,12.4c-5.1-0.3-10.1-0.5-15.2-0.8c0,0-0.2,4.8-0.1,4.8c6.6,0.3,13.3,0.7,19.9,1c2.5,2.7,5,5.5,7.4,8.2
		C94.8,89.4,96.4,86.4,95.6,85.5z M88.8,61.1c0,0.1,0,0.1,0,0.2C88.8,61.3,88.8,61.2,88.8,61.1z"/>
</g>
<g>
</g>
<g>
</g>
<g>
</g>
<g>
</g>
<g>
</g>
<g>
</g>
<g>
</g>
<g>
</g>
<g>
</g>
<g>
</g>
<g>
</g>
<g>
</g>
<g>
</g>
<g>
</g>
<g>
</g>
</svg>
