<?xml version="1.0" encoding="utf-8"?>
<!-- Generator: Adobe Illustrator 18.0.0, SVG Export Plug-In . SVG Version: 6.00 Build 0)  -->
<!DOCTYPE svg PUBLIC "-//W3C//DTD SVG 1.1//EN" "http://www.w3.org/Graphics/SVG/1.1/DTD/svg11.dtd">
<svg version="1.1" id="Layer_1" xmlns="http://www.w3.org/2000/svg" xmlns:xlink="http://www.w3.org/1999/xlink" x="0px" y="0px"
	 viewBox="0 0 762.1 583.7" enable-background="new 0 0 762.1 583.7" xml:space="preserve">
<g>
	<path fill="#FFD25C" d="M104.7,236.3c87.1-92.9,202.8-179.9,334.4-223c43.6-14.3,93.1-18.3,143.5-6.2c45,10.8,89.3,35.5,127.7,62.3
		c11.9,8.3,23.3,17.3,33.7,27.2c1.6,1.5,22.6,24.6,17.5,24.4c-5.8-0.3-11.6-1.1-17.5-2.1C602,95.8,533.6,243.3,482.9,348.8
		c-58.7,122.3-132.4,247.8-289.8,233.8c-25.9-2.3-51.4-8.8-75.7-18c-8-3.1-15.9-6.5-23.8-10c-32.3-14.3-60.5-38.7-77.9-71.6
		C-35.3,386.6,49.3,295.4,104.7,236.3z"/>
	<g>
		<polygon fill="#FFC235" points="240.7,472.3 241.3,473.3 243.7,471.8 		"/>
		<path fill="#FFC235" d="M267,470.3c2.1-1.7,6.3-3.4,5.8-5.6l-3.7,2.9c-0.5-0.8-1.4-1-2.4-0.9c-1.1,0.1-2.3,0.5-3.5,0.9l2.7-0.6
			c-0.7,0.3,0,1.4-0.7,1.7c-2.2-0.1-3.4,0.5-4.7,1c-1.2,0.5-2.5,0.8-4.6,0.1l0.2-0.2l-3,1.5c-1-0.1-0.7-1-0.4-1.3
			c-1.3,0.6-2.5,1.2-3.8,1.7c-1.3,0.4-2.8,0.8-4.7,0.8c1.6,1.5,3.6,0.7,5.6-0.1c2-0.9,4-1.7,5.6-0.3l-0.2,0.2
			c0.9-0.4,1.8-0.6,2.8-0.7c1-0.1,2-0.2,3-0.2C263.2,471.1,265.3,471.1,267,470.3z"/>
		<path fill="#FFC235" d="M252.9,469.8c0.1,0,0.2-0.1,0.2-0.1C253.1,469.6,253,469.6,252.9,469.8z"/>
		<path fill="#FFC235" d="M383.8,400.7l-0.3-0.4C383.5,400.5,383.6,400.8,383.8,400.7z"/>
		<path fill="#FFC235" d="M346.9,429c0.1,0,0.1-0.1,0.2-0.1C346.9,428.2,346.9,428.4,346.9,429z"/>
		<path fill="#FFC235" d="M515.9,195.1l1.1-0.1C516.4,194.7,516.1,194.8,515.9,195.1z"/>
		<path fill="#FFC235" d="M563.1,158.6L563.1,158.6C563.2,158.6,563.1,158.6,563.1,158.6z"/>
		<path fill="#FFC235" d="M535,166.7l-0.5-0.4C534.6,166.6,534.8,166.7,535,166.7z"/>
		<path fill="#FFC235" d="M550.3,153.9c0.5-0.2,1.1-0.4,1.5-0.7C551.3,153.1,550.7,153.5,550.3,153.9z"/>
		<path fill="#FFC235" d="M562.8,159.2c0.1-0.2,0.2-0.4,0.3-0.5C563,158.8,562.8,159,562.8,159.2z"/>
		<path fill="#FFC235" d="M511.4,185.1l-1.7-0.7C510.1,184.8,510.8,184.9,511.4,185.1z"/>
		<path fill="#FFC235" d="M553.6,150.1c0.4,0.1,0.8,0.1,1.2-0.1C554.5,149.8,554.1,149.8,553.6,150.1z"/>
		<path fill="#FFC235" d="M271,469.3c-0.6,0.1-1.2,0.3-1.9,0.7C269.9,470,270.5,469.7,271,469.3z"/>
		<path fill="#FFC235" d="M441.5,272.5c-0.1-0.2-0.2-0.4-0.4-0.6C441,272.4,441.2,272.5,441.5,272.5z"/>
		<path fill="#FFC235" d="M478.6,218.1l0.1-0.2c-0.1,0-0.2,0-0.4,0L478.6,218.1z"/>
		<path fill="#FFC235" d="M467,233.5c0-0.1-0.1-0.3-0.1-0.4C466.8,233.3,466.9,233.4,467,233.5z"/>
		<path fill="#FFC235" d="M486.8,205.9c0.1-0.3,0.1-0.6,0-0.9L486.8,205.9z"/>
		<path fill="#FFC235" d="M497.6,196.9c-0.9,0-0.8-0.8-0.7-1.7c-3,2-2.3,4.2-5.9,5.9c0.6-0.2,1.2-0.5,1.8-0.7
			c-0.8,2.5-3.4,5.9-6,6.4l0-0.8c-0.3,1.3-1.4,2.1-2.5,2.9c-1.1,0.7-2,1.4-1.9,2.1c1.1-0.2,0.8,0.8,2.3,0.1l-2.6,5.2l-2-1.1
			l-1.3,2.7c0.6,0-0.2,0.6-0.9,1.5c-0.7,0.8-1.3,1.9-0.5,2.6c-1.7,0.8-0.9-1.6-1.2-2.6c-0.5,1.7-1.4,1.3-1.4,3.3l-2.6,0.1l-1.6,4.3
			c0-0.3-0.3-0.2-0.3-0.4c0.1,2.6-3.8,3.5-3,7.2c0-0.2-0.1-0.2-0.2-0.3c0.4,2-2.5,4.1-3.5,5c-1,2.1,1,1.9,1.6,2.4
			c-4.1,5-2.9,3.4-3.9,9.2c-3.8,1.4-1.2-5.4-4.9-2.9c0.7,1.1-0.1,4.1-1.4,7c-1.2,1-2.5,2.5-3.9,4c-1.4,1.4-2.9,2.8-4.4,3.6l1.5,0.6
			c-0.4,1.4-0.9,2.7-1.4,4c-0.3-1.1-0.6-2.2-0.8-3.2c0.1,0.8,0,3.2,0,4.8c-0.9,4.5-4.3,0.4-3.8,4.5c-0.2,0-0.4,0-0.6,0
			c0.3,0.8,0,1.7-0.6,2.9c-0.5,1.2-1.2,2.5-1.8,4l-1.3-2l1.4-1.7c-2.3,0-1.4,3.3-2.4,5c-0.4,2.2,1.6,2.1,1.6,3.4
			c-0.4,0.6-0.5,1.9-1.3,2.2c-1.4,1.4-2.3-0.9-2.7-1.9c1.1,2.4,0.6,2.8-0.3,6.4c-1-0.3-1.2-0.7-1.2-1.2c-0.1,0.8,0,1.6,0.6,2.4
			l-1.6,0.6c-3.4,2.9,1.5,5.4-1.2,9.5c-0.4-1.7-1.7,3.9-3.5,4.7c0.5-1.7-3.1-0.6-3.7-2.1c-2.4,3.2,1.5,2.5,0.5,5.6l-1.7-2.3
			c-0.4,3.3,0.9,1.3,0.2,4.5c-0.3-1.1-1.2,0.9-1.1-1.1c-2,3.5-1.4,2.7-3.2,5.8l2.1,1.4c-0.3,1.2-1.5,1.1-2,1.2
			c0.2-0.5,0.6-1.1,0.3-1.2c-2.5,0.3,0.1,2.6-2.4,3.2c0.9,0,2.1,0.1,1.5,1.5c-1.1-1.1-2.3,1.4-2.9,1.2c1.4-0.4-1,3.1,0.4,4
			c-1.8,1-0.8-1-1.5-1.5c1.1,2.1-2.5,5.5-2.1,7.1c-0.1,0-0.3,0-0.4-0.1c0.2,2.2-0.9,5-1.1,8.9l-0.7-1.8c-2.2,2.9,1.6,3.4,0.2,6
			c-0.7-0.8-1.3,0.4-1.8,1.4c-0.5,1-1.1,2-1.7,0.8c0.1,2.1-0.3,4.1,0.6,6c-1.8,1-0.9-4.2-2.5-2.4l-0.3,2.8l-1.2-0.1
			c0.7,0.5-0.4,2.5,0.3,2.7c-1.3-0.3-2.7,0.1-3.5-0.5c-0.5,1.6-2.7,2.9-2.4,4.7l-0.6-0.2c1.3,2.6-2,4.5-0.3,6.5l-1.7,0.1
			c-1.1,2.2,1.3,3.2,1.2,4.5c-0.4,0.9-0.9,2.1-1.6,2.8c0.4-3.6-2.5,0.3-3.6,0.4c-0.7,1.1-2.7,4.2-2.2,5.8c-0.2-2-1.6-1.8-0.2-4.1
			c-2.9-0.2-1.9,3.7-3.9,6.1l-0.9-0.7c-0.9,2-1,3.3-0.8,4.5c0.2,1.1,0.7,2.1,0.9,3.5c-1.5-0.4-1.5-1-1.9-2.8c-1.2,0.9-2.3,2.4-3.4,4
			c-0.5,0.8-1.1,1.6-1.6,2.4c-0.5,0.8-1.1,1.5-1.7,2.1c-1.4,0.2-1.5-0.7-1.1-1.8c-1.3,3.3-5,5.6-4.4,8.9c-0.2-1.3-1.4,0.6-2.6,1.1
			c0.4,0.3,0.7,1,0.6,1c-0.7,2.2-3.1,6.3-5.4,7.3l0.1-1.1c-2.2,1.8-2.9,3.9-3.9,5.9c-0.2,0.5-0.5,1-0.8,1.5c-0.3,0.5-0.6,0.9-1,1.4
			c-0.8,0.9-1.8,1.7-3.3,2.4c-1.2,0.3-0.5-2.3-2.1-0.8c-0.2,1.4,1.3,2.7-1.3,4.1l-0.9-1.4l-0.5,2.5c1.6,0.4,3.9-2,3.1,0.6
			c-3,0.4-0.8,2.6-4.4,3.2c0.5-0.6,0.4-2.2,0.4-3c-1.6,0.6-2.7,1.4-3.8,2.2c-1,0.8-1.8,1.6-2.6,2.4c-1.6,1.7-3.3,3.4-6.7,4.3
			c-1,1.4-2.4,2.8-3.7,4.1c-1.3,1.2-2.6,2.4-3.3,3.5c-0.7-1.5-1.4-2.8-0.8-4.7c-2.5,1.2-1.8,5.2-4.7,4c-0.1,2.6-6.2,5-5.4,8.1
			c-0.4-0.5-2.8,1.3-0.9-1.6c-3.1,2.6-5.8-0.3-7.4,0.5c-0.9,0.5,1.9,1.3-0.2,2.4c-0.3,0-0.5-0.3-0.8-0.3l-0.5,1
			c-1.1-0.3,0.3-1.8,0-2.6c-3.2,0.6-4.1,3.7-7.5,5.3l0.4-0.7l-3.6,1.2l0.1-0.2l-2.5,2.1l-0.2-0.8c-0.6,0.5-0.6,1-1.5,1.4l0-1.1
			c-0.4,1.8-3.7,3.7-5.4,4.3l-0.5-0.3l-1.7,1.6l-1.8,1.5c-2.5-0.5,2.1-3.1-2-1.2l0.6-2.3c-2.8,1.6-3.6,0.6-5.5,1.9
			c1.2,0.8,2.6,0.2,1.8,1.4c-1.5-0.8-2.4-0.4-3.3,0.3c-0.8,0.8-1.6,1.9-2.7,2.7c1.2-0.3,2-0.5,2.6-1.8c1.3-0.2,0.7,1,1.5,0.9
			c0.5-0.5,1-1.1,1.5-1.6l0.8,1.2l2.8-1.9c0.2,1.7,2.9-0.5,2.1,1.5c2-1.2,3.5-0.5,4.9-2.7c1.7,0.5-1.9,1.9-0.3,1.6
			c8.1-3.8,16.6-6.9,25.2-10.2l-0.5,1.1c0.5-1.1,1.3-2.1,1.7-2.9c1,0.2,3.1,0.2,4.9-0.5c1.9-0.7,3.6-1.8,3.9-3.4
			c0.3,0,0.1,0.5,0,0.8c0.6-0.4,1.5-0.8,2.4-1.2c1-0.4,2-0.8,3.1-1.2c2.2-0.9,4.5-1.8,6.3-3.1c0.1-3.2,6.5-2.2,5.8-6.1
			c-0.1,0.4-0.2,0.8-0.3,1.1c-0.9,0-0.8-0.8-0.5-1.7c0.3-1,0.8-2.1,0.8-2.6c2.3,1.2,1.1,1.4,3.5,2.3l-1.9,0.4l1.4,1.4
			c0.8-3.7,3.3-4.6,5.5-5.5c2.3-0.9,4.5-1.5,4.7-3.9c0,0.3,0.2,0.5,0.1,0.8c2.5-0.6,2.1-3.6,3-5.2c0.8,0.6,0.3,1.8,0.1,3
			c1.8-1.1,3.5-3.2,5.3-5.3c1.8-2.2,3.6-4.3,5.7-5.4c0.2-2-1.6-0.8-1.2-2.7c1.2-0.7,2.6-0.7,1.9,1c2.2-0.6,4.1-3.2,6.1-6
			c1-1.4,2-2.9,3.1-4.2c1.1-1.3,2.3-2.5,3.6-3.3c0.4-1.6,0.2-2.2,0.2-2.9c0-0.7,0.1-1.4,1.1-3.6c0.1,1.5,3.2,1,1.6,3.4l0.6,0.9
			c1.5-1.8,3.3-4,4.6-6.1c0.7-1.1,1.2-2.1,1.5-3.2c0.3-1,0.4-2.1,0.1-3c1.8,1.1,0.8-0.5,2.7-1.3c0.2-0.7-0.3-0.1-0.6,0
			c-0.5-2.4,1.5-2.1,2-3.3l0.1,0.6l0.8-3.5c0.5-0.3,1.3-0.8,1.9-0.6l-1.2-0.8c1-1.5,2,0.3,2.9-1.8l-1.2-0.2c1.3-0.8,1.3-3.6,2.8-3
			c0.3,0.1,0,0.3-0.2,0.7c1.5-0.4,2.2-1.7,2.7-3.1c0.5-1.5,0.9-3.1,2-4l-2.4-0.6c0.7-2.7,1.2-1.2,1.9-0.6c0.9-1.6,1.8-1.5,3.2-3.4
			c0.1-1.3-0.5-1-0.9-1.6c0.6-0.6,1.1-1.2,1.7-1.8l0.4,2c-1.2-4.9,4.8-8,3.2-11.6c1.3-0.9,0.7,1.8,1.4,1.2c3.4-3.2,2.6-9.7,5.8-12.1
			c2.1-2.2,3.6-5.1,5-8c1.4-2.9,2.8-6,4.8-8.6l-0.6-0.2l2.5-3.9c-0.7-1.8,1.3-4.3,0.7-6.8c0.4,0.4,1.3,0.3,1.4,0.9
			c0.7-1.9,1-4.1,2.3-4.7l0.2,0.8c2.3-3.7,5-9.1,5-11.7c0.5-1.4,1.6-0.8,2.4-0.8c1.2-2.2,1.4-4,1.4-6.3c0.5-0.4,1-0.7,1.8-1
			l-0.9-1.6c0.7-0.8,1.2,0.4,2-0.2c0.2-4.3,3.8-7.6,5-10l-0.9,0c0-1.3,2.1-2.7,2.1-1.1c1.7-2.1,2.2-4.2,2.7-6.4
			c0.6-2.3,1.2-4.8,3.3-7.8c1.5,0.3,2.1-1.2,2.9-2.7c0.7-1.5,1.5-2.9,3.2-2.5c1-3,3.1-4,2.8-6.8c0.3,0.1,0.6,0,0.3,0.4
			c1.7-0.3,3.2-4.1,4.3-7.1l0.9,0.4c-1.1-2.1,2.6-6,1.6-8.2c0.6,0,0.4,1,0.4,1.6c2.5-0.1,0.9-2.8,2.5-4.2c0.3,0.4,1.1,0.3,1.2,0.9
			c3-2,5.3-5.6,7.7-9.3c2.5-3.7,5.1-7.8,8.7-10.5c1.7-1.8-2.2-0.8,0.1-3.1c1.4,0,0.5,2.6,2.2,1.4c0-2,0.6-2.2,2.1-3.6
			c0.3,0.7,0.8,0.8,0.2,2.2c1.4-0.3,2.2-4.7,5-5.2c-0.5-0.4-0.5-0.9-0.5-1.5c0.5-1.8,2.2-3,3.7-3.7c1.5-0.7,2.8-1,2.6-1.5
			c0,0,0.6-1-0.2-0.5c0.9-0.8,2.4-1.9,2.9-0.9c0.1-0.9-0.1-1.9,0.5-2.6l0.4,1.2c0.2-0.6,0.2-1.6,0.5-2.1l-1.1,0.1
			c1.7-0.3,2.1-3.9,3.6-2.2l-0.3,0.4l2.7-1c0.2-1.4,0.3-2.8,1.9-3.8c2.1,1.3,3.8-2.6,5.7-3.9l0.5,0.7c0.6-2,4.4-4.6,3.5-4.4
			c1.3-1.1,3.5-2.1,3.3-1c0.8-1.2,3.1-3.1,2.9-4.6l3.4-0.2c-0.4-3.4,5.2-2.5,3.4-5.1c1.6-0.6,1.7,0.2,2.9,0c0.8-2.6,2.9-3.7,4.9-4.8
			l0.2,0.2c2-1.1,3.3-4,5.9-5.9l1.9,1.6c1.2-1.2,0.5-3,2.1-3.4c0.5,0.1,0.3,0.4,0,0.7c1-1.3,3.1-1.9,4.4-2c1.1-2.7,3.1-3.1,3.9-5.8
			c2.7,0.8-1.9,2.3,0.5,3.1c1.8-0.4,3.2-1.3,4.6-2.5c1.4-1.2,2.7-2.5,4.1-3.9c0.5,0.2,0.3,0.8,0.4,1.3c0,0,1-2.2,1.6-4.5
			c0.7-2.4,1.1-4.9,0-5.5c0.1-1.8,0.6-3.2-2.9-2.7c-0.5,1.4-2.7,3.9-4,2.6l0.6,1.5c-3.5,2.9-2-2.8-6.7-0.1c0.4,0,0.8-0.1,1.2-0.1
			c-0.8,0.6-1,1.9-2.2,2.1c-0.5-0.2,0-0.8,0.2-1.3l-2.6,4.2c-0.7-0.7-0.8-1.2-0.4-2.3c-3.5,2.2,2.3,2.2-2.3,4.2
			c-1.2-0.1-0.3-1,0-1.8c-2.7,0-3.3,2-4.9,4c-0.8-1.2,0.6-1.9-1.6-1.7c0.8,0.4,1.7,1.4,0.5,2.3c-0.2-1.6-1.4,0-2.8,0.5
			c0.5,0.3,0.8,0.9,0.5,1.4c-0.5,0.6-1.3,0.4-2.1,1.1l2.3,0.2c-1.3,2.5-3.7,1.6-5.6,2.2c0-0.3,0.1-0.7,0.4-1c-2,0.7-4.4,0.9-5.8,3.4
			l0.1-0.3c-1.6,2-0.9,2.3-0.3,2.6c0.6,0.3,1,0.7-0.8,2.9c-1.7,0.9-2.2-4.4-4.5-0.5c2.4-0.2-0.4,4.1-2,6l0.3-3.8
			c-0.8,0.6-1.7,2.2-2.3,2.3l0.5,0.4c1.6,1.8-2.7,1.7-3.1,3.9c-0.4-4,0.1-3.5-1.6-6.4c-0.2,2.5-0.7,5-3.4,6.7l0.4-3.6
			c-3.7,2.2-5,8.3-6.2,12.1c-0.5-2-2-1.6-2-3.8l-2.8,2.9l-0.5-2.3c0.1,2.7-2.1,2.8-0.1,4.7c0.1-0.6-0.2-0.8,0.5-1.2
			c0.5,0.7,1.1,2.4-0.5,3.7c-1.5,0.4-0.1-1.3-0.9-1.7c-0.2,1.7-1.5,0.4-2,2l1.7,0c0.3,1.8-1.6,1.6-2.1,3.1c0.7-1.6-0.3-1.9-1.4-2.2
			l0.2,0.1c-0.7,0.7-0.9,2.4-2,2.2l-0.9-2.2l0,2.2c-0.6,0.2-1.4-0.1-1-1.1c-4.2,2.2,3.4,3.3-2.3,6.1c-0.5-0.7-0.4-1.5,1.1-2.3
			c-0.7-1.1-1.6-1.4-3.1-0.6c-0.1-0.1-0.1-0.1-0.2-0.2c-1.1,1.1-2.5,2.3-3.6,3.6C498.6,194.3,497.8,195.6,497.6,196.9z"/>
		<path fill="#FFC235" d="M503.2,189.3c1.2-1.2,2.2-2.2,2.5-2.8C505.2,186.4,502.2,188.4,503.2,189.3z"/>
		<path fill="#FFC235" d="M373.5,395.4c0.1-0.2,0.2-0.4,0.2-0.6C373.6,395,373.6,395.2,373.5,395.4z"/>
		<path fill="#FFC235" d="M365.6,405.5c0.3,0.1,0.5,0,0.8-0.2C366.1,405.1,365.8,405,365.6,405.5z"/>
		<path fill="#FFC235" d="M432.9,289.7C432.9,289.7,432.9,289.7,432.9,289.7C432.9,289.7,432.9,289.7,432.9,289.7z"/>
		<path fill="#FFC235" d="M398.4,355.5c0.1,1.3,0.4,2,0.8,2.3C399.4,357.1,399.3,356.3,398.4,355.5z"/>
		<path fill="#FFC235" d="M410.9,333.9c0-0.2,0-0.4-0.1-0.6C410.8,333.7,410.8,333.9,410.9,333.9z"/>
		<path fill="#FFC235" d="M433.8,285.6c0.1,1.3-0.6,2.7-0.8,4C433.1,288.5,434.7,287,433.8,285.6z"/>
		<polygon fill="#FFC235" points="356.3,418.5 356.5,416.8 356,418.3 		"/>
		<path fill="#FFC235" d="M364.3,409.4c0.6-0.2,1.5-2.2,0.7-2.2C365,408,364.6,408.7,364.3,409.4z"/>
		<polygon fill="#FFC235" points="393.4,373 392.6,372 392.9,373.4 		"/>
	</g>
</g>
<g>
</g>
<g>
</g>
<g>
</g>
<g>
</g>
<g>
</g>
<g>
</g>
<g>
</g>
<g>
</g>
<g>
</g>
<g>
</g>
<g>
</g>
<g>
</g>
<g>
</g>
<g>
</g>
<g>
</g>
</svg>
