<?xml version="1.0" encoding="utf-8"?>
<!-- Generator: Adobe Illustrator 18.0.0, SVG Export Plug-In . SVG Version: 6.00 Build 0)  -->
<!DOCTYPE svg PUBLIC "-//W3C//DTD SVG 1.1//EN" "http://www.w3.org/Graphics/SVG/1.1/DTD/svg11.dtd">
<svg version="1.1" id="Layer_1" xmlns="http://www.w3.org/2000/svg" xmlns:xlink="http://www.w3.org/1999/xlink" x="0px" y="0px"
	 viewBox="0 0 921.4 701.8" enable-background="new 0 0 921.4 701.8" xml:space="preserve">
<g>
	<g>
		<path fill="#74592E" d="M916.5,609.8l-27.9-14.7c-7.9-4.2-6-14.6,3-16.4l20.8-4c9-1.7,10.9-12.2,3.1-16.4l-40.9-21.8
			c-6.8-3.6-6.5-12.5,0.7-15.6l24.4-10.8c7.3-3.2,7.5-12.3,0.4-15.8l-32.3-15.9c-6.8-3.3-7-11.9-0.3-15.4l26.7-14.2
			c6.6-3.5,6.5-12-0.2-15.4l-25.7-13.1c-6.1-3.1-6.9-10.6-1.4-14.6l48.7-35.6c7.3-5.3,3-15.8-6.5-15.8h-58.3h-5.5h-769H60.5H49.6
			c-9.7,0-13.9,10.7-6.3,15.9l7.6,5.3c6.5,4.5,4.5,13.6-3.5,15.6l-5.2,1.3c-8,2-10,11.1-3.5,15.6c6.6,4.6,4.4,13.8-3.7,15.6
			l-27.5,6.4c-8.7,2-10.3,12.2-2.6,16.3l27.9,14.7c7.9,4.2,6,14.6-3,16.4l-20.8,4c-9,1.7-10.9,12.2-3.1,16.4l40.9,21.8
			c6.8,3.6,6.5,12.5-0.7,15.6l-24.4,10.8c-7.3,3.2-7.5,12.3-0.4,15.8l32.3,15.9c6.8,3.3,7,11.9,0.3,15.4l-26.7,14.2
			c-6.6,3.5-6.5,12,0.2,15.4l25.7,13.1c6.1,3.1,6.9,10.6,1.4,14.6L5.9,686c-7.3,5.3-3,15.8,6.5,15.8h48h15.8h769h5.5h21.1
			c9.7,0,13.9-10.7,6.3-15.9l-7.6-5.3c-6.5-4.5-4.5-13.6,3.5-15.6l5.2-1.3c8-2,10-11.1,3.5-15.6c-6.6-4.6-4.4-13.8,3.7-15.6
			l27.5-6.4C922.6,624,924.2,613.8,916.5,609.8z"/>
		<path fill="#836031" d="M46.8,480.5c81.9-0.8,163.9-1.3,245.8-1.5c81.7-0.2,163.4-0.1,245.1,0.2c46.2,0.2-3,0.5,43.2,0.9
			c10.2,0.1,4.8-10.2-2.8-10.3c-82.2-0.7-69-1-151.2-1.2c-82.3-0.1-164.6,0.1-246.9,0.5c-46.5,0.3-93,0.6-139.6,1
			c-3.7,0-4.9,3.3-3.5,5.8C38.8,479.1,43.1,480.5,46.8,480.5L46.8,480.5z"/>
		<path fill="#836031" d="M366.2,532.5c128.2,6.9,256.6,9.8,385,8.6c36.1-0.3,72.2-1,108.2-2c9.6-0.3,7.6-13.5-1.1-13.3
			c-128.3,3.4-256.8,2.9-385.1-1.8c-36.1-1.3-72.1-2.9-108.1-4.9C355.5,518.7,357.5,532.1,366.2,532.5L366.2,532.5z"/>
		<path fill="#836031" d="M555.7,576.5c83.7-1.9,167.5-2.3,251.3-0.9c23.5,0.4,47.1,0.9,70.6,1.5c9.7,0.3,10.2-12.2,0.1-12.4
			c-83.7-2.3-167.5-2.9-251.3-1.9c-23.5,0.3-47.1,0.7-70.6,1.3C546.1,564.3,545.5,576.7,555.7,576.5L555.7,576.5z"/>
		<path fill="#836031" d="M183.5,602.1c112.3,4.2,224.5,8.5,336.8,12.7c31.9,1.2,63.7,2.4,95.6,3.6c3.8,0.1,8.2-1.6,8.9-5.2
			c0.7-3.4-2.9-6.2-6.6-6.3c-112.3-4.2-224.5-8.5-336.8-12.7c-31.9-1.2-63.7-2.4-95.6-3.6c-3.8-0.1-8.2,1.6-8.9,5.2
			C176.2,599.1,179.8,601.9,183.5,602.1L183.5,602.1z"/>
		<path fill="#836031" d="M89.9,680.9c72.6-2.2,145.3-1.9,217.9,1c20.7,0.8,41.5,1.9,62.2,3.1c3.8,0.2,7.6-2.4,7.5-5.9
			c-0.1-3.7-4.3-6-8.1-6.2c-72.5-4.3-145.1-6.1-217.8-5.3c-20.8,0.2-41.5,0.7-62.2,1.3C79.2,669.1,80.3,681.2,89.9,680.9L89.9,680.9
			z"/>
		<g>
			<polygon fill="none" points="671,534.6 717.5,439.4 573.8,385.5 527.3,480.7 			"/>
			<path fill-rule="evenodd" clip-rule="evenodd" fill="#836031" d="M657.5,468.2c3.6-0.7,7.6-0.5,11.5-0.6
				C665.8,469.2,661.6,468.7,657.5,468.2z"/>
			<path fill-rule="evenodd" clip-rule="evenodd" fill="#836031" d="M666.1,463.1c4.4-1,11-1.6,15.4,0.4c-1,1.1,0.2,1.5-0.7,2.7
				C676.2,465.9,668.8,466.8,666.1,463.1z"/>
			<path fill-rule="evenodd" clip-rule="evenodd" fill="#836031" d="M641.5,428.9c-1-1.8-2.4,1-4.1,0.4c3.6,0.2,10.7,0.8,12.9-2.5
				c0.3,0.4,0.6,0.8,0.9,0.4c0.9,0.1,0.7,0.7,0.5,1.2c2.5,0.7,1.7-1.1,3.4-1.2c-0.6,2.3,4.2,0,2.6,0.5c-0.7-1.3,2.7-1.5,3.4-0.2
				c2.9,0.5,6-2.5,8.2-0.8c-6.8,3.3-18.7,1.4-22.3,4.4c-1.5,0.6-4.6-2.3-6.2,0.1c-1.2-1.1-6-1.5-5.7,0.3c0.9-0.6,2.2-0.3,3.2-0.8
				c0.4,2.4-2.2,0.6-4,1.4c1.2-2.5-6.8-0.8-9.2-0.5c-0.5-1.5,3.2-1,4.5-1.2c-0.9-1.1-3.9,0.6-6-0.3c0,0.4,0.1,0.9,0.5,1.2
				c-2.2,1.8-4.8-2-7.1-0.2c-0.2,0.7,2.6,0.7,3.2,0.2c-1,0.9-11.1,2.2-10.8,0.4c-1.5-0.2-0.8,0.4-1.3,1.5c-5-0.1-9.4,1-14.4,1
				c0.1,1.1,2.8,0.2,2.4,1.9c0.8,0.1,0.1-0.6,0.6-1.2c1.8,0.3,1.6,1.5,2.8,1.1c0.2-1-1,0.2-1.2-0.9c1.1-1.4,2.5,0.2,2.8,1.1
				c15.2-0.6,31.2-1.8,47.2-2.9c-6.8,1.8-17.5,2.2-26,3c-0.5,0.6,0,0.9,0.5,1.2c-0.5,0.8-1.9-0.3-2.5,0.5c-0.7-0.6,0.3-0.8,0.6-1.2
				c-1.7-0.6-1.9,2.1-3.3,2.2c-1.6-0.8-4.4-0.4-3.9,0c-0.5,0.7-3.3-1.3-1.5-1.5c-1.8-0.6-2.9-0.1-2.9,1.4
				c-7.5-0.4-14.5,0.3-21.9,0.1c-0.2,0.4,0.4,0.5,0.7,0.8c-13-0.7-25.2,1.1-39.1-2.4c2-0.3,2-0.7,0.3-1.8c6.1,1.1,15.6-0.9,22.2,1.5
				c5-1.3,11-0.4,16.5-0.7c-1.5-2.5-7.2-0.8-10.2-0.9c-2-0.2,0-1.8-1.8-2.1c2.3-1.7,5.5-3.1,10.3-1.5c1.1-1.9,6.1-0.6,10.5-0.9
				c2.6-0.2,3.1-0.4,5.3-0.5c3.6-0.2,10.8-2.4,14.4-1c6.9-2.1,15.8,0.2,22.7-1.8C641,427.8,642.3,427.1,641.5,428.9z"/>
			<path fill-rule="evenodd" clip-rule="evenodd" fill="#836031" d="M621,421.7c0.7-0.9-2.3-0.6-0.8-1.8c8.7,0.8,15.2-3.2,23.5-3.4
				c2.5,1.2,0.7,3.9,1.1,5.8c-2.4,2.1-6.9-0.3-9,2.5c-1.3-0.4-0.6-1-1.9-0.7c-14.7,4-31.2,4.3-47.3,5.3c1.3-2.1,4.2-0.6,5.9-1.7
				c-4.4,0.2-7.3,0.1-9.6,1.3c-0.2,1.4,1.2-0.7,2.1,0.3c-1,0.9-2.7,0.3-3.8,1c-1.4-1.3,1.4-0.2,1.3-1.5c-0.8-1.2-3.9-0.1-5.5-0.1
				c-0.2,2,1.3,0,2.8,1.1c-4.3-0.8-9.5-0.7-13.1-2.9c0.2-1,1.1-0.5,1.8-0.3c0.3-2.8-0.3-3.3,0.3-6.3c11.2-0.5,21-4.3,33.2-2.7
				c0.5-1.5-2.4,0.4-1-1.4c6.6,2.1,12.5-0.6,19.3-0.6c-2.2-1.3-6.8-0.6-9.2,0.5c-0.5-0.3,0.1-0.9-0.5-1.2c-1.2,1.8-2.4-0.8-3.6,1.6
				c-1.4-1,0-1.1,0.8-1.7c-1.4-0.5-3.5,0-4-1c2-0.7,2.1-0.4,4.4,0.2c3.4-1.3,7.4-1.4,11.4-1.6c1.6-2.4,5.7-3.4,7.4-2.6
				c2.9-2.2,15.1-2.6,11.4,5.3c-12.3,3.6-25.5,5.3-39.5,5.3c0.3-1,1.6,0.1,2-0.7c-7.7,2.9-18.4,5-28.9,4.3c0,1,2.3-0.1,3.5,0.8
				c-0.4,0.8-1.7-0.3-2,0.7c4,0.1,10.5-0.5,11.3-0.2C595.1,423.6,610.1,423.8,621,421.7z"/>
			<path fill-rule="evenodd" clip-rule="evenodd" fill="#836031" d="M580.8,447.8c-1.8,0.5-2.3-2.1-3.8-1.4
				c-7.1,1-18.2-1.4-28.1-0.8c0.1,1,0.1,2,0.2,3c6.7,3.4,14.1-0.8,20.4,1.8c4.8-0.1,15.9,0.9,24.4,0.3c-0.6-0.3-1.1-0.5-0.5-1.2
				c1.8,0.9,2.5,0,2.6,1.5c2.6-2,7.7-1.2,10.3-0.5c-0.3-0.2-0.9-0.4-0.7-0.8c1.6-0.4,2,1.2,3,0.6c-0.9-0.3-0.9-0.8-0.3-1.6
				c5.1,2.2,7.2-0.1,12,0.6c-0.2,0.5-1,0.4-0.4,0.8c3.7-0.2,10.3-1,11.1-3.2c1.7,0.6,2.5,0,2.6,1.5c0.5-0.3,1-0.8,1.6-0.9
				c7.3-0.6,15.6-1,21.8-1.1c0-1,3.6-1.1,4.7-2.7c-9.9-1-21.4,1-31.4,2.4c-0.8-1,1.1-0.8,0.1-1.4c-0.7,0.6-1.5-0.2-1.1,1.1
				c-9.8-0.9-21.1,2.9-29.2,0.3c0.7,0,1.3,0,1.8-0.3c-2.6-0.6-3.9-1.1-6.5-0.5c0.8,1.5,2.7,0.2,4.5,1.2c-0.1,0.6,0.3,1-0.3,1.8
				c-0.2-2.5-6.7-1.4-4.2-0.6c-0.9,1.3-3.4-0.5-5.1-0.9c-1.2,1.1,1.4,0.9,0.1,2C586.8,445.7,582.5,447.1,580.8,447.8z M625.1,448.7
				c-0.9,2.3-3.4-0.7-3.8,1C620.1,447.6,624.4,446.9,625.1,448.7z"/>
			<path fill-rule="evenodd" clip-rule="evenodd" fill="#836031" d="M567.6,442.8c0.8,0.4,1.2-0.1,2.1,0.3c0.3-1.4-1.2,0-1.9-0.7
				c3.8-2.9,9.7-0.3,14.6-2.4c0.9,0.4,0,1.4,1.5,1.5c0.8,0.1,0.1-0.6,0.6-1.2c4.4,0.8,9.4,0.6,13.9,1.3c-0.1-0.4-0.2-0.9,0.1-1.4
				c3,1.6,4-0.9,7.2,1.2c0.3-0.5,0.3-0.8-0.1-1c7.8,2.5,19-1.6,29,0.1c0.9-0.2,1.5-1.3,2.4-1.5c5.4,2.2,8.6,0.3,12.5,1.8
				c0.6-0.8,0.5-1.3-0.3-1.6c3.5-0.7,5.7,0.1,9-0.1c-2,1.6-5.3,0.3-7.8,1c0.3,0.5,2.2,0.6,1.1,2.4c-0.5-0.2-0.1-0.6-0.1-1
				c-1.3-0.6-1.9,0.4-3.2-0.2c-0.1,0.5,0.8,0.6,0.5,1.2c0.6-0.1,1.1-0.5,1.6-0.9c-2.7,2.2-14,1.6-20.4,1.7c-1.5,0.3-2.9,1-5.1,0.1
				c1.1-0.8,2.9,0.1,4.1-0.4c-0.6-1-3.4,0.5-5.6-1.1c0.3,0.6,0.5,1.2,0.8,1.8c-1.1,0.2-1.9,0.9-3.4,0.2c0.3-1,1.6,0.1,2-0.7
				c-1.4-0.6-2,0.8-3.7-0.4c1.4,2.9-12.7,2.2-13.4-0.1c-1.1-0.6-0.7,2-2,0.7c0.3-0.3,0.7-0.2,0.9-0.6c-0.8-0.4-1.2,0.1-2.1-0.3
				c0.5,2.4,4.9,1,5.7,2.1c-4.9,1.8-12.7-2.6-17,0.5c-1.3-1.6-8.5-1-9,0.1c-6.1-1.1-12.9,1-17-2.9
				C565.5,440.2,568.3,442,567.6,442.8z"/>
			<path fill-rule="evenodd" clip-rule="evenodd" fill="#836031" d="M575.4,458.9c1.2,0.3-0.1,1.4,0.8,1.8c1.6-0.4,3.5-0.4,5.5,0.1
				c-7,2.5-14.8,0.8-24.1,1.3c-0.9,1.8,2.3,2.6-0.5,3.2c3.6,1.3,7.6-1.1,10.2,0.9c-1.9-0.3-3.2,0.4-5.1,0.1c-1.2,1-0.8,1.4-0.7,2.7
				c-2.1,0.3-4.7-0.5-6.7-0.1c-1.8,4.6,5.9,3.6,9,4.4c1.4-0.1-0.2-1.6,1.3-1.5c4,0.9,10.4,0,15.2-0.2c-0.3-0.2-0.9-0.4-0.7-0.8
				c3.6,1.7,11.1,1.6,14.1,0.9c-0.2,0.1-1-0.6-0.7-0.8c16.5,1.2,31.7-0.2,47.1-1.4c1.3,0.8,1.7-0.2,3,0.6c3-1.9,8.1,0.7,10.9-1.8
				c-9.7-0.2-18.5,1.7-28.7,0.5c-3.5,0.6-10.5,1.8-12.7-0.3c2.1,0.3,6.3,1.6,5.9-0.7c-1.8-1.1-4.5,1.9-4.7-0.8
				c1.6,1,7.9-1.2,6.5,1.5c1.6-2.7,3.7,0.9,5.9-0.7c-0.9-1-2.6,0.5-2.4-0.9c1.9,1.1,2.3-1.2,3.8-1c0.1,1.4,3.3,0.6,2.3-0.1
				c-0.3,0.4-0.8,0.4-1.3,0.5c3.3-1.1,6.5,0.4,9.8-0.7c-0.3-0.2-0.9-0.4-0.7-0.8c1.4-0.2,1.3,1.7,1.9,0.7c-0.6-0.1-1-1.8,0.1-1.4
				c-0.8,1.1,5.1,1,4.3-0.8c2.8-0.1,4.1,1.9,6,0.3c-0.9-1-2.1,1.5-2.1-0.3c3.8-0.1,9.4-0.7,14.6-2.4c-3-1.1-5.4,1.7-7.6-0.4
				c-9.4,2.3-17.1,1.6-27.3,2c0.5,0.3,1.4,0.4,1.2,0.9c-3.2,0.3-17.4-0.5-14.2,1.5c-8.6-1.7-14.8,0.5-22.1-0.5
				c0.3-0.6,0.5-1.1,0.8-1.7c5,2,11.7,0.5,16.8-0.1c-3.3-0.6-4.5-0.6-6.9-0.6c0.3-0.6,0.5-1.1,0.8-1.7c3.2,0.3,6.1,1,10.3-0.5
				c-2.5,0.4,8.4,2.6,6,0.3c5.2,1.4,10.7-2.4,17.9-1.1c0.5-0.7-0.1-1.1,0.3-1.8c2.2,0.9,3.3-0.8,5.3-0.5c-1.1-1.8-6.3-1-8.8-0.4
				c1.4,0.8,2.4-0.3,2.2,1.3c-2.2,0.6-1.9-1.9-3.3-1.2c-1.8,0.2-6.6,1.2-10.7,1.4c-14.8,0.6-32.8-0.2-46.9,1
				c0.7,0.3,1.8,0.5,1.7,1.1C576.6,460,576.4,458,575.4,458.9z M610.9,467.3c0.2,1.4,0.9,1.2,1.4,3c-4.8-1.8-12.9,0.9-17.8-1.3
				c-4.5,1.6-12.6-0.2-19.3,0.6c5.6-1,13.6-2.5,17.9-1.1c0.8-0.5,2.1,0,2.4-1.5C595.9,469.3,607.2,470.6,610.9,467.3z"/>
			<path fill-rule="evenodd" clip-rule="evenodd" fill="#836031" d="M670.8,453.6c-0.5-0.4-0.7-0.9-0.3-1.6
				c-1.3-0.9-1.5,0.8-2.8-0.1c-0.3,1.4,1.2,0,1.9,0.7c-4-0.4-6,0.6-9,0.1c-0.2,0.2,0.5,0.8,0.7,0.8c-3.8,0.5-12,0.7-17.1,1.9
				c4.4,0,8.5-0.8,13.1-0.5c-4.6,0.3-9.9,2.4-14.5-0.1c-5.3,0.6-13.6,0.2-19.9,1.8c1.2-0.1,0.6-1.5-0.3-0.6
				c-0.6-0.4,0.2-0.3,0.4-0.8c-1.2-0.8-4.4,0-5.6-1.1c1.5-0.8,5-1.5,6.2-0.1c0.8-0.2,1.5-0.7,2.2-1.1c18.1-0.1,35.5-1.7,52.4-4.3
				c1.7,0.5,2.5,0.2,3.1,1.7C676.7,452.2,675.2,450.9,670.8,453.6z"/>
			<path fill-rule="evenodd" clip-rule="evenodd" fill="#836031" d="M600.1,456.4c1.4,0.2,2.2-0.9,3.6-0.6c-3.4,3.6-10.4-0.5-14.4,2
				c-4.9-1.6-8.7-0.2-11.6-1.4c0.8-1.4,2.7-0.4,4.1-0.4c-0.1-1.3-2.4-0.2-3.5-0.8c1.7-1.1,4.4,0,6.4-0.5c-1.7-1.5-6.1,0.3-8.4-2.2
				c6-0.5,13.9,3,19.2,0.8c0.4,0.1,0.4,0.3,0.3,0.6C592.3,455.5,600.9,454.2,600.1,456.4z"/>
			<path fill-rule="evenodd" clip-rule="evenodd" fill="#836031" d="M611.3,483.6c-0.5-0.3-0.1-0.5,0.2-0.4
				c-4.4-1.9-13.7,1-19.2-0.8c-0.9-0.2-1.4,0.3-1.8,1.3c-4.8-0.7-9.2-0.8-13.1,0.5c-0.6-0.5-0.9-1.1-1.5-1.5c0.3-0.2,2-1.2,0.8-1.7
				c15.2-2.4,32.2,0.8,46.7-0.6c-1.1-1.7-5.5,0.8-6.7-1.1c-0.4,0.7,0.2,1.1-0.3,1.8c-2.2-1.4-4.6-2.7-6.1-1.3
				c-5.4-2.7-8.2-1.4-12.8-2.4c2.3-1.2,5.3-1,8.2-0.8c-3-1.3,1.5-1,3.4-1.2c-1.5-1.7,2.9-1.2,4.8-0.7c-3.9,0.5-0.2-0.1-2,1.7
				c1.6,0.7,2.3-0.6,3.9,0c-0.2-0.5,0.3-1.2-0.3-1.6c-0.9-0.2-0.1,1.7-2,0.7c0.5-0.3,0.9-0.5,0.4-0.8c0.8-0.9,2.2-0.3,3.4-0.2
				c-0.3,0.3-0.7,0.2-0.9,0.7c0.8-0.2,1.9,0.2,2.8,0.1c0.1-0.7-0.7-0.1-1.4-0.5c0.5-0.7,1.3-0.6,2.3-0.1c-0.2,1.9-1.9,0.5-2.4,1.5
				c3.6-0.2,7.5,0.4,10.8-0.4c-2-0.8-3.3-1.7-7.4-0.8c-1-1.8,2.5-0.7,3.6-0.6c0.4-0.4-0.7-1.9-1.2-0.9c1.8-0.7,7.2,0.1,11.5,0.4
				c0.2-0.5-0.7-0.7-1.2-0.9c3.9-0.1,7.5-0.7,12,0.6c-0.2,0.7-0.8,0.5-1.1,1.1c1.4,0.4,5.1-2,3.8-2c2,0.8,4.8-0.3,6.4-0.5
				c2.4-0.4,5.1,0.3,7.1,0.2c5.4-0.2,10.1-1.9,16.5-1.7c-0.1-0.9-3.6-2.2-4-1c-0.5-1.9-2.7-1.5-5.2-1.9c1.9-1,4.4-0.7,6.9-0.4
				c-0.3,0.3-0.7,0.2-0.9,0.6c2.5,0.9,3.7-1.1,6.5,0.5c-0.5,0.6,0.1,0.9-0.1,1.4c6.9,0.8,12-2.3,18.5-2.4c1.8,5.5-8.6,6.8-12.3,5.7
				c-0.2,1.7-3.9,0.5-5.4,1.9c0.6,1.8-2,2.7,0.5,3.6c-3.7,0.8-7.6,1-11.4,1.6c0.9-0.5,2.1-0.6,2.9-1.4c-4.4-3.5-10.8,0.5-16.9-1.9
				c-1.6-0.2,0.8,1-0.3,1.8c-6.5-0.3-14.3-0.3-19.3,0.6c-0.5,0.1-2.1-0.9-2,0.7c-1.5-1.7-2.7,0.4-3.6-1.8c-0.7,1.2-1.2-0.2-3.2-0.2
				c1,2.4-0.9,1.4-2.6,1.9c2,0.8,3.2,1.9,5.1,0.9c0.7,0.6-0.2,1.1-0.9,0.6c-0.4,0.7,0.2,1.1-0.3,1.8c-0.9-0.2-0.8-0.8-0.3-0.6
				c0-1.5-1.8-0.2-2.8-1.1c0,0.4,0.1,0.9,0.5,1.2c-3.5,0.6-9-1.9-12.6,0.7C613.6,482.8,612.1,482.4,611.3,483.6z"/>
			<path fill-rule="evenodd" clip-rule="evenodd" fill="#836031" d="M650.1,478.6c3.6,3.2,10.6-1.3,14.8,0.6c-1.3,1-3.2,0.3-4.8,0.7
				c0,0.6,0.2,1.1,1,1.4c-1.6,0.4-3.2,1-5.3,0.5c0.8-1.4,2.9,0.1,3.8-1c-0.7-1.3-6-0.7-5.5,0.9c-2.6-1.2-5.7,1.8-9.4,0.9
				c0.6-0.8,1.7-0.3,2.2-1.1c-4.1,0-7.9,0.3-11.9,0.4c-0.2,1.4,1.6,0.3,2.4,0.9c-0.3,1.5-6.2,0-3.4,0.2c0.3-1.4-1.2,0-1.9-0.7
				c5.4-3,11.2-2.8,17.6-1.7C649.6,479.9,649.7,479.3,650.1,478.6z"/>
			<path fill-rule="evenodd" clip-rule="evenodd" fill="#836031" d="M631,484.6c-11.2,0.7-26.1-0.3-36.1,0.7
				c-5.1,0.5-12.7-0.7-18.4-0.1c-0.3,1,0,1.8-0.9,3.1c3,1.2,4.9,1.5,6,0.3c3.5,1,6.3,0.6,9.2,0.5c-0.2-0.6-1.7-0.8-0.8-1.8
				c14,0.3,26.7-0.4,39.5-0.8c-0.4,0.5-1.1,0.6,0.1,1c7.8-2.7,14.7-2.3,23-0.2c1.3-0.4,1-1.1,1.8-1.3c-0.2,0.6,0.8,0.9,1,1.4
				c1.3-0.4,1-1.1,1.8-1.3c0.8,1.2,3,0.3,2.9,2.1c-6.2,2.3-13.7,2-20,4.3c-0.9-0.4-1.9-0.7-2.8-1.1c-1.3,0.2,0.1,1.2-1.1,1.1
				c-1.1-0.7-1.4-1.2-2.6-0.5c-0.5,0.6-6.8,0.4-8.5,0.2c-11.1,2.5-28.5-1.4-40.9,1.3c-0.9,5.4,8.1,2.3,11.7,3.4
				c-0.3-0.2-0.9-0.4-0.7-0.8c5.5,0.4,8.1-0.4,13.9,1.3c-1.3,1.8,0.6,2.5,0.3,4c14.7,2.8,27.4-0.9,42.1-0.4c1.2-1.1-1.4-0.9-0.1-2
				c0.4,1.6,3.2,2.2,4.7,1.8c-1.2,2.2,2.3,0.7,2,2.7c1.2-0.3,2.5-0.2,3.9,0c0.5-1-0.3-1.6,1-2.1c-1-0.7-2.7,1.4-2.8-0.1
				c3.6-0.7,4.3-4.6,1.6-6.7c-4.6,0.8-11.9,0.3-15.9-0.6c4.7-0.3,9.1-1.2,13.4-2.3c-0.9-0.3-0.9-0.8-0.3-1.6
				c2.1,0.7,5.4-0.7,6.5,0.5c-2.1,0-4,0.3-5.9,0.7c8.3-0.2,16.8,0.3,23.7-2.8c-1.1-1.4-5.3-0.9-5,1.1c-2-0.6-3.9,0.9-4.5-1.2
				c-1.6,2.8-5.1,1.4-7.7,2c0.2-1.7-2-1.3-0.9-2.8c-2.1-1.3-4.8,1.9-5.1-0.9c7.5-0.9,15.2-1.8,22.3,0c-2-0.8,2-1.3,3.4-0.2
				c0.9-4,10.4-0.5,10.9-5.2c-3.6,3.2-10.4-0.6-14.4,2c1,0.9,2.5-1.2,2.6,0.5c-7.4-0.5-17.8-0.9-24.4-0.3c-0.3,0.6-0.2,1-0.1,1.4
				c-4.8-1.3-13.2-1.8-16.3,0.2C642.4,483.4,633.9,484.5,631,484.6z M610.4,497c3.8-0.7,12.1,0.5,12.7,0.3c0.6-1,0.5,0.9,1.9,0.7
				C620.8,498.6,614.4,498.7,610.4,497z"/>
			<path fill-rule="evenodd" clip-rule="evenodd" fill="#836031" d="M610,511.5c-1,0.8,3.5-2.5,0.8-1.7c3.2-1,11.8,0.5,18.2,0.5
				c3.1,0,6.9,0.2,10.4,0.5c-8.4-1.5,0.9-1.1,5.2-1.5c-4.2-1.6-10.3,0.3-15.7-1c3.3-1.3,7.4-1.6,11.9-1.4c7.1,0.3,15.5,0.4,21.8,2.3
				c-2.8,2.1-7.3,0.6-10.7,1.4c-0.3,1.4,1.2,0,1.9,0.7c-2.8,0.5-5.5-1.7-7.1,0.8c-1.7-0.7-3.9-0.4-7.4-0.8c1.5,1.7-5.2,2.2-6.4,0.5
				c-0.5,1.2-3.7,1.5-6.1,1.1c0.4,1.5,2.8-0.2,4.2,0.6C624.1,513.5,616.8,513.2,610,511.5z"/>
			<path fill-rule="evenodd" clip-rule="evenodd" fill="#836031" d="M655.4,426.8c2-1.2,10.4-2.8,13.4-2.3c-0.6,1.3-2.3,0.1-3.2,0.8
				c2.3,1.3-3,1.3-4.7,1.7c-0.5-0.2-0.1-0.6-0.1-1C659.2,426.5,657,426,655.4,426.8z"/>
			<path fill-rule="evenodd" clip-rule="evenodd" fill="#836031" d="M664.6,481.1c0.6,2,2.1-1,2.9-1.4c0.6,0.2,1.3,0.5,1.9,0.7
				c-1.4,1.6-3.5,1.4-5.4,1.9c-0.5-1.1,0-0.9-1.7-1.1c0.9-0.4,3.5-1.3,3.6-0.6C665.7,481.4,665.2,481.3,664.6,481.1z"/>
		</g>
		<g>
			<polygon fill="none" points="184.6,504.8 231.1,409.6 87.4,355.8 40.8,450.9 			"/>
			<path fill-rule="evenodd" clip-rule="evenodd" fill="#836031" d="M171,438.4c3.6-0.7,7.6-0.5,11.5-0.6
				C179.3,439.4,175.2,439,171,438.4z"/>
			<path fill-rule="evenodd" clip-rule="evenodd" fill="#836031" d="M179.6,433.3c4.4-1,11-1.6,15.4,0.4c-1,1.1,0.2,1.5-0.7,2.7
				C189.7,436.1,182.3,437,179.6,433.3z"/>
			<path fill-rule="evenodd" clip-rule="evenodd" fill="#836031" d="M155,399.1c-1-1.8-2.4,1-4.1,0.4c3.6,0.2,10.7,0.8,12.9-2.5
				c0.3,0.4,0.6,0.8,0.9,0.4c0.9,0.1,0.7,0.7,0.5,1.2c2.5,0.7,1.7-1.1,3.4-1.2c-0.6,2.3,4.2,0,2.6,0.5c-0.7-1.3,2.7-1.5,3.4-0.2
				c2.9,0.5,6-2.5,8.2-0.8c-6.8,3.3-18.7,1.4-22.3,4.4c-1.5,0.6-4.6-2.3-6.2,0.1c-1.2-1.1-6-1.5-5.7,0.3c0.9-0.6,2.2-0.3,3.2-0.8
				c0.4,2.4-2.2,0.6-4,1.4c1.2-2.5-6.8-0.8-9.2-0.5c-0.5-1.5,3.2-1,4.5-1.2c-0.9-1.1-3.9,0.6-6-0.3c0,0.4,0.1,0.9,0.5,1.2
				c-2.2,1.8-4.8-2-7.1-0.2c-0.2,0.7,2.6,0.7,3.2,0.2c-1,0.9-11.1,2.2-10.8,0.4c-1.5-0.2-0.8,0.4-1.3,1.5c-5-0.1-9.4,1-14.4,1
				c0.1,1.1,2.8,0.2,2.4,1.9c0.8,0.1,0.1-0.6,0.6-1.2c1.8,0.3,1.6,1.5,2.8,1.1c0.2-1-1,0.2-1.2-0.9c1.1-1.4,2.5,0.2,2.8,1.1
				c15.2-0.6,31.2-1.8,47.2-2.9c-6.8,1.8-17.5,2.2-26,3c-0.5,0.6,0,0.9,0.5,1.2c-0.5,0.8-1.9-0.3-2.5,0.5c-0.7-0.6,0.3-0.8,0.6-1.2
				c-1.7-0.6-1.9,2.1-3.3,2.2c-1.6-0.8-4.4-0.4-3.9,0c-0.5,0.7-3.3-1.3-1.5-1.5c-1.8-0.6-2.9-0.1-2.9,1.4
				c-7.5-0.4-14.5,0.3-21.9,0.1c-0.2,0.4,0.4,0.5,0.7,0.8c-13-0.7-25.2,1.1-39.1-2.4c2-0.3,2-0.7,0.3-1.8c6.1,1.1,15.6-0.9,22.2,1.5
				c5-1.3,11-0.4,16.5-0.7c-1.5-2.5-7.2-0.8-10.2-0.9c-2-0.2,0-1.8-1.8-2.1c2.3-1.7,5.5-3.1,10.3-1.5c1.1-1.9,6.1-0.6,10.5-0.9
				c2.6-0.2,3.1-0.4,5.3-0.5c3.6-0.2,10.8-2.4,14.4-1c6.9-2.1,15.8,0.2,22.7-1.8C154.5,398.1,155.8,397.3,155,399.1z"/>
			<path fill-rule="evenodd" clip-rule="evenodd" fill="#836031" d="M134.5,391.9c0.7-0.9-2.3-0.6-0.8-1.8
				c8.7,0.8,15.2-3.2,23.5-3.4c2.5,1.2,0.7,3.9,1.1,5.8c-2.4,2.1-6.9-0.3-9,2.5c-1.3-0.4-0.6-1-1.9-0.7c-14.7,4-31.2,4.3-47.3,5.3
				c1.3-2.1,4.2-0.6,5.9-1.7c-4.4,0.2-7.3,0.1-9.6,1.3c-0.2,1.4,1.2-0.7,2.1,0.3c-1,0.9-2.7,0.3-3.8,1c-1.4-1.3,1.4-0.2,1.3-1.5
				c-0.8-1.2-3.9-0.1-5.5-0.1c-0.2,2,1.3,0,2.8,1.1c-4.3-0.8-9.5-0.7-13.1-2.9c0.2-1,1.1-0.5,1.8-0.3c0.3-2.8-0.3-3.3,0.3-6.3
				c11.2-0.5,21-4.3,33.2-2.7c0.5-1.5-2.4,0.4-1-1.4c6.6,2.1,12.5-0.6,19.3-0.6c-2.2-1.3-6.8-0.6-9.2,0.5c-0.5-0.3,0.1-0.9-0.5-1.2
				c-1.2,1.8-2.4-0.8-3.6,1.6c-1.4-1,0-1.1,0.8-1.7c-1.4-0.5-3.5,0-4-1c2-0.7,2.1-0.4,4.4,0.2c3.4-1.3,7.4-1.4,11.4-1.6
				c1.6-2.4,5.7-3.4,7.4-2.6c2.9-2.2,15.1-2.6,11.4,5.3c-12.3,3.6-25.5,5.3-39.5,5.3c0.3-1,1.6,0.1,2-0.7c-7.7,2.9-18.4,5-28.9,4.3
				c0,1,2.3-0.1,3.5,0.8c-0.4,0.8-1.7-0.3-2,0.7c4,0.1,10.5-0.5,11.3-0.2C108.6,393.8,123.6,394,134.5,391.9z"/>
			<path fill-rule="evenodd" clip-rule="evenodd" fill="#836031" d="M94.4,418c-1.8,0.5-2.3-2.1-3.8-1.4c-7.1,1-18.2-1.4-28.1-0.8
				c0.1,1,0.1,2,0.2,3c6.7,3.4,14.1-0.8,20.4,1.8c4.8-0.1,15.9,0.9,24.4,0.3c-0.6-0.3-1.1-0.5-0.5-1.2c1.8,0.9,2.5,0,2.6,1.5
				c2.6-2,7.7-1.2,10.3-0.5c-0.3-0.2-0.9-0.4-0.7-0.8c1.6-0.4,2,1.2,3,0.6c-0.9-0.3-0.9-0.8-0.3-1.6c5.1,2.2,7.2-0.1,12,0.6
				c-0.2,0.5-1,0.4-0.4,0.8c3.7-0.2,10.3-1,11.1-3.2c1.7,0.6,2.5,0,2.6,1.5c0.5-0.3,1-0.8,1.6-0.9c7.3-0.6,15.6-1,21.8-1.1
				c0-1,3.6-1.1,4.7-2.7c-9.9-1-21.4,1-31.4,2.4c-0.8-1,1.1-0.8,0.1-1.4c-0.7,0.6-1.5-0.2-1.1,1.1c-9.8-0.9-21.1,2.9-29.2,0.3
				c0.7,0,1.3,0,1.8-0.3c-2.6-0.6-3.9-1.1-6.5-0.5c0.8,1.5,2.7,0.2,4.5,1.2c-0.1,0.6,0.3,1-0.3,1.8c-0.2-2.5-6.7-1.4-4.2-0.6
				c-0.9,1.3-3.4-0.5-5.1-0.9c-1.2,1.1,1.4,0.9,0.1,2C100.3,415.9,96,417.4,94.4,418z M138.6,418.9c-0.9,2.3-3.4-0.7-3.8,1
				C133.6,417.9,137.9,417.2,138.6,418.9z"/>
			<path fill-rule="evenodd" clip-rule="evenodd" fill="#836031" d="M81.2,413c0.8,0.4,1.2-0.1,2.1,0.3c0.3-1.4-1.2,0-1.9-0.7
				c3.8-2.9,9.7-0.3,14.6-2.4c0.9,0.4,0,1.4,1.5,1.5c0.8,0.1,0.1-0.6,0.6-1.2c4.4,0.8,9.4,0.6,13.9,1.3c-0.1-0.4-0.2-0.9,0.1-1.4
				c3,1.6,4-0.9,7.2,1.2c0.3-0.5,0.3-0.8-0.1-1c7.8,2.5,19-1.6,29,0.1c0.9-0.2,1.5-1.3,2.4-1.5c5.4,2.2,8.6,0.3,12.5,1.8
				c0.6-0.8,0.5-1.3-0.3-1.6c3.5-0.7,5.7,0.1,9-0.1c-2,1.6-5.3,0.3-7.8,1c0.3,0.5,2.2,0.6,1.1,2.4c-0.5-0.2-0.1-0.6-0.1-1
				c-1.3-0.6-1.9,0.4-3.2-0.2c-0.1,0.5,0.8,0.6,0.5,1.2c0.6-0.1,1.1-0.5,1.6-0.9c-2.7,2.2-14,1.6-20.4,1.7c-1.5,0.3-2.9,1-5.1,0.1
				c1.1-0.8,2.9,0.1,4.1-0.4c-0.6-1-3.4,0.5-5.6-1.1c0.3,0.6,0.5,1.2,0.8,1.8c-1.1,0.2-1.9,0.9-3.4,0.2c0.3-1,1.6,0.1,2-0.7
				c-1.4-0.6-2,0.8-3.7-0.4c1.4,2.9-12.7,2.2-13.4-0.1c-1.1-0.6-0.7,2-2,0.7c0.3-0.3,0.7-0.2,0.9-0.6c-0.8-0.4-1.2,0.1-2.1-0.3
				c0.5,2.4,4.9,1,5.7,2.1c-4.9,1.8-12.7-2.6-17,0.5c-1.3-1.6-8.5-1-9,0.1c-6.1-1.1-12.9,1-17-2.9C79.1,410.5,81.9,412.3,81.2,413z"
				/>
			<path fill-rule="evenodd" clip-rule="evenodd" fill="#836031" d="M88.9,429.2c1.2,0.3-0.1,1.4,0.8,1.8c1.6-0.4,3.5-0.4,5.5,0.1
				c-7,2.5-14.8,0.8-24.1,1.3c-0.9,1.8,2.3,2.6-0.5,3.2c3.6,1.3,7.6-1.1,10.2,0.9c-1.9-0.3-3.2,0.4-5.1,0.1c-1.2,1-0.8,1.4-0.7,2.7
				c-2.1,0.3-4.7-0.5-6.7-0.1c-1.8,4.6,5.9,3.6,9,4.4c1.4-0.1-0.2-1.6,1.3-1.5c4,0.9,10.4,0,15.2-0.2c-0.3-0.2-0.9-0.4-0.7-0.8
				c3.6,1.7,11.1,1.6,14.1,0.9c-0.2,0.1-1-0.6-0.7-0.8c16.5,1.2,31.7-0.2,47.1-1.4c1.3,0.8,1.7-0.2,3,0.6c3-1.9,8.1,0.7,10.9-1.8
				c-9.7-0.2-18.5,1.7-28.7,0.5c-3.5,0.6-10.5,1.8-12.7-0.3c2.1,0.3,6.3,1.6,5.9-0.7c-1.8-1.1-4.5,1.9-4.7-0.8
				c1.6,1,7.9-1.2,6.5,1.5c1.6-2.7,3.7,0.9,5.9-0.7c-0.9-1-2.6,0.5-2.4-0.9c1.9,1.1,2.3-1.2,3.8-1c0.1,1.4,3.3,0.6,2.3-0.1
				c-0.3,0.4-0.8,0.4-1.3,0.5c3.3-1.1,6.5,0.4,9.8-0.7c-0.3-0.2-0.9-0.4-0.7-0.8c1.4-0.2,1.3,1.7,1.9,0.7c-0.6-0.1-1-1.8,0.1-1.4
				c-0.8,1.1,5.1,1,4.3-0.8c2.8-0.1,4.1,1.9,6,0.3c-0.9-1-2.1,1.5-2.1-0.3c3.8-0.1,9.4-0.7,14.6-2.4c-3-1.1-5.4,1.7-7.6-0.4
				c-9.4,2.3-17.1,1.6-27.3,2c0.5,0.3,1.4,0.4,1.2,0.9c-3.2,0.3-17.4-0.5-14.2,1.5c-8.6-1.7-14.8,0.5-22.1-0.5
				c0.3-0.6,0.5-1.1,0.8-1.7c5,2,11.7,0.5,16.8-0.1c-3.3-0.6-4.5-0.6-6.9-0.6c0.3-0.6,0.5-1.1,0.8-1.7c3.2,0.3,6.1,1,10.3-0.5
				c-2.5,0.4,8.4,2.6,6,0.3c5.2,1.4,10.7-2.4,17.9-1.1c0.5-0.7-0.1-1.1,0.3-1.8c2.2,0.9,3.3-0.8,5.3-0.5c-1.1-1.8-6.3-1-8.8-0.4
				c1.4,0.8,2.4-0.3,2.2,1.3c-2.2,0.6-1.9-1.9-3.3-1.2c-1.8,0.2-6.6,1.2-10.7,1.4c-14.8,0.6-32.8-0.2-46.9,1
				c0.7,0.3,1.8,0.5,1.7,1.1C90.1,430.3,89.9,428.2,88.9,429.2z M124.5,437.6c0.2,1.4,0.9,1.2,1.4,3c-4.8-1.8-12.9,0.9-17.8-1.3
				c-4.5,1.6-12.6-0.2-19.3,0.6c5.6-1,13.6-2.5,17.9-1.1c0.8-0.5,2.1,0,2.4-1.5C109.5,439.6,120.8,440.8,124.5,437.6z"/>
			<path fill-rule="evenodd" clip-rule="evenodd" fill="#836031" d="M184.3,423.8c-0.5-0.4-0.7-0.9-0.3-1.6
				c-1.3-0.9-1.5,0.8-2.8-0.1c-0.3,1.4,1.2,0,1.9,0.7c-4-0.4-6,0.6-9,0.1c-0.2,0.2,0.5,0.8,0.7,0.8c-3.8,0.5-12,0.7-17.1,1.9
				c4.4,0,8.5-0.8,13.1-0.5c-4.6,0.3-9.9,2.4-14.5-0.1c-5.3,0.6-13.6,0.2-19.9,1.8c1.2-0.1,0.6-1.5-0.3-0.6
				c-0.6-0.4,0.2-0.3,0.4-0.8c-1.2-0.8-4.4,0-5.6-1.1c1.5-0.8,5-1.5,6.2-0.1c0.8-0.2,1.5-0.7,2.2-1.1c18.1-0.1,35.5-1.7,52.4-4.3
				c1.7,0.5,2.5,0.2,3.1,1.7C190.3,422.4,188.7,421.2,184.3,423.8z"/>
			<path fill-rule="evenodd" clip-rule="evenodd" fill="#836031" d="M113.6,426.7c1.4,0.2,2.2-0.9,3.6-0.6c-3.4,3.6-10.4-0.5-14.4,2
				c-4.9-1.6-8.7-0.2-11.6-1.4c0.8-1.4,2.7-0.4,4.1-0.4c-0.1-1.3-2.4-0.2-3.5-0.8c1.7-1.1,4.4,0,6.4-0.5c-1.7-1.5-6.1,0.3-8.4-2.2
				c6-0.5,13.9,3,19.2,0.8c0.4,0.1,0.4,0.3,0.3,0.6C105.8,425.8,114.5,424.4,113.6,426.7z"/>
			<path fill-rule="evenodd" clip-rule="evenodd" fill="#836031" d="M124.9,453.9c-0.5-0.3-0.1-0.5,0.2-0.4
				c-4.4-1.9-13.7,1-19.2-0.8c-0.9-0.2-1.4,0.3-1.8,1.3c-4.8-0.7-9.2-0.8-13.1,0.5c-0.6-0.5-0.9-1.1-1.5-1.5c0.3-0.2,2-1.2,0.8-1.7
				c15.2-2.4,32.2,0.8,46.7-0.6c-1.1-1.7-5.5,0.8-6.7-1.1c-0.4,0.7,0.2,1.1-0.3,1.8c-2.2-1.4-4.6-2.7-6.1-1.3
				c-5.4-2.7-8.2-1.4-12.8-2.4c2.3-1.2,5.3-1,8.2-0.8c-3-1.3,1.5-1,3.4-1.2c-1.5-1.7,2.9-1.2,4.8-0.7c-3.9,0.5-0.2-0.1-2,1.7
				c1.6,0.7,2.3-0.6,3.9,0c-0.2-0.5,0.3-1.2-0.3-1.6c-0.9-0.2-0.1,1.7-2,0.7c0.5-0.3,0.9-0.5,0.4-0.8c0.8-0.9,2.2-0.3,3.4-0.2
				c-0.3,0.3-0.7,0.2-0.9,0.7c0.8-0.2,1.9,0.2,2.8,0.1c0.1-0.7-0.7-0.1-1.4-0.5c0.5-0.7,1.3-0.6,2.3-0.1c-0.2,1.9-1.9,0.5-2.4,1.5
				c3.6-0.2,7.5,0.4,10.8-0.4c-2-0.8-3.3-1.7-7.4-0.8c-1-1.8,2.5-0.7,3.6-0.6c0.4-0.4-0.7-1.9-1.2-0.9c1.8-0.7,7.2,0.1,11.5,0.4
				c0.2-0.5-0.7-0.7-1.2-0.9c3.9-0.1,7.5-0.7,12,0.6c-0.2,0.7-0.8,0.5-1.1,1.1c1.4,0.4,5.1-2,3.8-2c2,0.8,4.8-0.3,6.4-0.5
				c2.4-0.4,5.1,0.3,7.1,0.2c5.4-0.2,10.1-1.9,16.5-1.7c-0.1-0.9-3.6-2.2-4-1c-0.5-1.9-2.7-1.5-5.2-1.9c1.9-1,4.4-0.7,6.9-0.4
				c-0.3,0.3-0.7,0.2-0.9,0.6c2.5,0.9,3.7-1.1,6.5,0.5c-0.5,0.6,0.1,0.9-0.1,1.4c6.9,0.8,12-2.3,18.5-2.4c1.8,5.5-8.6,6.8-12.3,5.7
				c-0.2,1.7-3.9,0.5-5.4,1.9c0.6,1.8-2,2.7,0.5,3.6c-3.7,0.8-7.6,1-11.4,1.6c0.9-0.5,2.1-0.6,2.9-1.4c-4.4-3.5-10.8,0.5-16.9-1.9
				c-1.6-0.2,0.8,1-0.3,1.8c-6.5-0.3-14.3-0.3-19.3,0.6c-0.5,0.1-2.1-0.9-2,0.7c-1.5-1.7-2.7,0.4-3.6-1.8c-0.7,1.2-1.2-0.2-3.2-0.2
				c1,2.4-0.9,1.4-2.6,1.9c2,0.8,3.2,1.9,5.1,0.9c0.7,0.6-0.2,1.1-0.9,0.6c-0.4,0.7,0.2,1.1-0.3,1.8c-0.9-0.2-0.8-0.8-0.3-0.6
				c0-1.5-1.8-0.2-2.8-1.1c0,0.4,0.1,0.9,0.5,1.2c-3.5,0.6-9-1.9-12.6,0.7C127.1,453.1,125.6,452.6,124.9,453.9z"/>
			<path fill-rule="evenodd" clip-rule="evenodd" fill="#836031" d="M163.7,448.9c3.6,3.2,10.6-1.3,14.8,0.6c-1.3,1-3.2,0.3-4.8,0.7
				c0,0.6,0.2,1.1,1,1.4c-1.6,0.4-3.2,1-5.3,0.5c0.8-1.4,2.9,0.1,3.8-1c-0.7-1.3-6-0.7-5.5,0.9c-2.6-1.2-5.7,1.8-9.4,0.9
				c0.6-0.8,1.7-0.3,2.2-1.1c-4.1,0-7.9,0.3-11.9,0.4c-0.2,1.4,1.6,0.3,2.4,0.9c-0.3,1.5-6.2,0-3.4,0.2c0.3-1.4-1.2,0-1.9-0.7
				c5.4-3,11.2-2.8,17.6-1.7C163.1,450.2,163.3,449.6,163.7,448.9z"/>
			<path fill-rule="evenodd" clip-rule="evenodd" fill="#836031" d="M144.5,454.9c-11.2,0.7-26.1-0.3-36.1,0.7
				c-5.1,0.5-12.7-0.7-18.4-0.1c-0.3,1,0,1.8-0.9,3.1c3,1.2,4.9,1.5,6,0.3c3.5,1,6.3,0.6,9.2,0.5c-0.2-0.6-1.7-0.8-0.8-1.8
				c14,0.3,26.7-0.4,39.5-0.8c-0.4,0.5-1.1,0.6,0.1,1c7.8-2.7,14.7-2.3,23-0.2c1.3-0.4,1-1.1,1.8-1.3c-0.2,0.6,0.8,0.9,1,1.4
				c1.3-0.4,1-1.1,1.8-1.3c0.8,1.2,3,0.3,2.9,2.1c-6.2,2.3-13.7,2-20,4.3c-0.9-0.4-1.9-0.7-2.8-1.1c-1.3,0.2,0.1,1.2-1.1,1.1
				c-1.1-0.7-1.4-1.2-2.6-0.5c-0.5,0.6-6.8,0.4-8.5,0.2c-11.1,2.5-28.5-1.4-40.9,1.3c-0.9,5.4,8.1,2.3,11.7,3.4
				c-0.3-0.2-0.9-0.4-0.7-0.8c5.5,0.4,8.1-0.4,13.9,1.3c-1.3,1.8,0.6,2.5,0.3,4c14.7,2.8,27.4-0.9,42.1-0.4c1.2-1.1-1.4-0.9-0.1-2
				c0.4,1.6,3.2,2.2,4.7,1.8c-1.2,2.2,2.3,0.7,2,2.7c1.2-0.3,2.5-0.2,3.9,0c0.5-1-0.3-1.6,1-2.1c-1-0.7-2.7,1.4-2.8-0.1
				c3.6-0.7,4.3-4.6,1.6-6.7c-4.6,0.8-11.9,0.3-15.9-0.6c4.7-0.3,9.1-1.2,13.4-2.3c-0.9-0.3-0.9-0.8-0.3-1.6
				c2.1,0.7,5.4-0.7,6.5,0.5c-2.1,0-4,0.3-5.9,0.7c8.3-0.2,16.8,0.3,23.7-2.8c-1.1-1.4-5.3-0.9-5,1.1c-2-0.6-3.9,0.9-4.5-1.2
				c-1.6,2.8-5.1,1.4-7.7,2c0.2-1.7-2-1.3-0.9-2.8c-2.1-1.3-4.8,1.9-5.1-0.9c7.5-0.9,15.2-1.8,22.3,0c-2-0.8,2-1.3,3.4-0.2
				c0.9-4,10.4-0.5,10.9-5.2c-3.6,3.2-10.4-0.6-14.4,2c1,0.9,2.5-1.2,2.6,0.5c-7.4-0.5-17.8-0.9-24.4-0.3c-0.3,0.6-0.2,1-0.1,1.4
				c-4.8-1.3-13.2-1.8-16.3,0.2C156,453.6,147.5,454.7,144.5,454.9z M123.9,467.2c3.8-0.7,12.1,0.5,12.7,0.3c0.6-1,0.5,0.9,1.9,0.7
				C134.3,468.9,127.9,469,123.9,467.2z"/>
			<path fill-rule="evenodd" clip-rule="evenodd" fill="#836031" d="M123.5,481.8c-1,0.8,3.5-2.5,0.8-1.7c3.2-1,11.8,0.5,18.2,0.5
				c3.1,0,6.9,0.2,10.4,0.5c-8.4-1.5,0.9-1.1,5.2-1.5c-4.2-1.6-10.3,0.3-15.7-1c3.3-1.3,7.4-1.6,11.9-1.4c7.1,0.3,15.5,0.4,21.8,2.3
				c-2.8,2.1-7.3,0.6-10.7,1.4c-0.3,1.4,1.2,0,1.9,0.7c-2.8,0.5-5.5-1.7-7.1,0.8c-1.7-0.7-3.9-0.4-7.4-0.8c1.5,1.7-5.2,2.2-6.4,0.5
				c-0.5,1.2-3.7,1.5-6.1,1.1c0.4,1.5,2.8-0.2,4.2,0.6C137.6,483.7,130.3,483.4,123.5,481.8z"/>
			<path fill-rule="evenodd" clip-rule="evenodd" fill="#836031" d="M168.9,397c2-1.2,10.4-2.8,13.4-2.3c-0.6,1.3-2.3,0.1-3.2,0.8
				c2.3,1.3-3,1.3-4.7,1.7c-0.5-0.2-0.1-0.6-0.1-1C172.7,396.8,170.5,396.3,168.9,397z"/>
			<path fill-rule="evenodd" clip-rule="evenodd" fill="#836031" d="M178.1,451.3c0.6,2,2.1-1,2.9-1.4c0.6,0.2,1.3,0.5,1.9,0.7
				c-1.4,1.6-3.5,1.4-5.4,1.9c-0.5-1.1,0-0.9-1.7-1.1c0.9-0.4,3.5-1.3,3.6-0.6C179.3,451.6,178.7,451.5,178.1,451.3z"/>
		</g>
		<g>
			<polygon fill="none" points="303.9,537.6 350.5,442.4 206.7,388.6 160.2,483.7 			"/>
			<path fill-rule="evenodd" clip-rule="evenodd" fill="#836031" d="M290.4,471.2c3.6-0.7,7.6-0.5,11.5-0.6
				C298.7,472.2,294.6,471.7,290.4,471.2z"/>
			<path fill-rule="evenodd" clip-rule="evenodd" fill="#836031" d="M299,466.1c4.4-1,11-1.6,15.4,0.4c-1,1.1,0.2,1.5-0.7,2.7
				C309.1,468.9,301.7,469.8,299,466.1z"/>
			<path fill-rule="evenodd" clip-rule="evenodd" fill="#836031" d="M274.4,431.9c-1-1.8-2.4,1-4.1,0.4c3.6,0.2,10.7,0.8,12.9-2.5
				c0.3,0.4,0.6,0.8,0.9,0.4c0.9,0.1,0.7,0.7,0.5,1.2c2.5,0.7,1.7-1.1,3.4-1.2c-0.6,2.3,4.2,0,2.6,0.5c-0.7-1.3,2.7-1.5,3.4-0.2
				c2.9,0.5,6-2.5,8.2-0.8c-6.8,3.3-18.7,1.4-22.3,4.4c-1.5,0.6-4.6-2.3-6.2,0.1c-1.2-1.1-6-1.5-5.7,0.3c0.9-0.6,2.2-0.3,3.2-0.8
				c0.4,2.4-2.2,0.6-4,1.4c1.2-2.5-6.8-0.8-9.2-0.5c-0.5-1.5,3.2-1,4.5-1.2c-0.9-1.1-3.9,0.6-6-0.3c0,0.4,0.1,0.9,0.5,1.2
				c-2.2,1.8-4.8-2-7.1-0.2c-0.2,0.7,2.6,0.7,3.2,0.2c-1,0.9-11.1,2.2-10.8,0.4c-1.5-0.2-0.8,0.4-1.3,1.5c-5-0.1-9.4,1-14.4,1
				c0.1,1.1,2.8,0.2,2.4,1.9c0.8,0.1,0.1-0.6,0.6-1.2c1.8,0.3,1.6,1.5,2.8,1.1c0.2-1-1,0.2-1.2-0.9c1.1-1.4,2.5,0.2,2.8,1.1
				c15.2-0.6,31.2-1.8,47.2-2.9c-6.8,1.8-17.5,2.2-26,3c-0.5,0.6,0,0.9,0.5,1.2c-0.5,0.8-1.9-0.3-2.5,0.5c-0.7-0.6,0.3-0.8,0.6-1.2
				c-1.7-0.6-1.9,2.1-3.3,2.2c-1.6-0.8-4.4-0.4-3.9,0c-0.5,0.7-3.3-1.3-1.5-1.5c-1.8-0.6-2.9-0.1-2.9,1.4
				c-7.5-0.4-14.5,0.3-21.9,0.1c-0.2,0.4,0.4,0.5,0.7,0.8c-13-0.7-25.2,1.1-39.1-2.4c2-0.3,2-0.7,0.3-1.8c6.1,1.1,15.6-0.9,22.2,1.5
				c5-1.3,11-0.4,16.5-0.7c-1.5-2.5-7.2-0.8-10.2-0.9c-2-0.2,0-1.8-1.8-2.1c2.3-1.7,5.5-3.1,10.3-1.5c1.1-1.9,6.1-0.6,10.5-0.9
				c2.6-0.2,3.1-0.4,5.3-0.5c3.6-0.2,10.8-2.4,14.4-1c6.9-2.1,15.8,0.2,22.7-1.8C273.9,430.9,275.2,430.1,274.4,431.9z"/>
			<path fill-rule="evenodd" clip-rule="evenodd" fill="#836031" d="M253.9,424.7c0.7-0.9-2.3-0.6-0.8-1.8
				c8.7,0.8,15.2-3.2,23.5-3.4c2.5,1.2,0.7,3.9,1.1,5.8c-2.4,2.1-6.9-0.3-9,2.5c-1.3-0.4-0.6-1-1.9-0.7c-14.7,4-31.2,4.3-47.3,5.3
				c1.3-2.1,4.2-0.6,5.9-1.7c-4.4,0.2-7.3,0.1-9.6,1.3c-0.2,1.4,1.2-0.7,2.1,0.3c-1,0.9-2.7,0.3-3.8,1c-1.4-1.3,1.4-0.2,1.3-1.5
				c-0.8-1.2-3.9-0.1-5.5-0.1c-0.2,2,1.3,0,2.8,1.1c-4.3-0.8-9.5-0.7-13.1-2.9c0.2-1,1.1-0.5,1.8-0.3c0.3-2.8-0.3-3.3,0.3-6.3
				c11.2-0.5,21-4.3,33.2-2.7c0.5-1.5-2.4,0.4-1-1.4c6.6,2.1,12.5-0.6,19.3-0.6c-2.2-1.3-6.8-0.6-9.2,0.5c-0.5-0.3,0.1-0.9-0.5-1.2
				c-1.2,1.8-2.4-0.8-3.6,1.6c-1.4-1,0-1.1,0.8-1.7c-1.4-0.5-3.5,0-4-1c2-0.7,2.1-0.4,4.4,0.2c3.4-1.3,7.4-1.4,11.4-1.6
				c1.6-2.4,5.7-3.4,7.4-2.6c2.9-2.2,15.1-2.6,11.4,5.3c-12.3,3.6-25.5,5.3-39.5,5.3c0.3-1,1.6,0.1,2-0.7c-7.7,2.9-18.4,5-28.9,4.3
				c0,1,2.3-0.1,3.5,0.8c-0.4,0.8-1.7-0.3-2,0.7c4,0.1,10.5-0.5,11.3-0.2C228,426.6,243,426.8,253.9,424.7z"/>
			<path fill-rule="evenodd" clip-rule="evenodd" fill="#836031" d="M213.8,450.8c-1.8,0.5-2.3-2.1-3.8-1.4
				c-7.1,1-18.2-1.4-28.1-0.8c0.1,1,0.1,2,0.2,3c6.7,3.4,14.1-0.8,20.4,1.8c4.8-0.1,15.9,0.9,24.4,0.3c-0.6-0.3-1.1-0.5-0.5-1.2
				c1.8,0.9,2.5,0,2.6,1.5c2.6-2,7.7-1.2,10.3-0.5c-0.3-0.2-0.9-0.4-0.7-0.8c1.6-0.4,2,1.2,3,0.6c-0.9-0.3-0.9-0.8-0.3-1.6
				c5.1,2.2,7.2-0.1,12,0.6c-0.2,0.5-1,0.4-0.4,0.8c3.7-0.2,10.3-1,11.1-3.2c1.7,0.6,2.5,0,2.6,1.5c0.5-0.3,1-0.8,1.6-0.9
				c7.3-0.6,15.6-1,21.8-1.1c0-1,3.6-1.1,4.7-2.7c-9.9-1-21.4,1-31.4,2.4c-0.8-1,1.1-0.8,0.1-1.4c-0.7,0.6-1.5-0.2-1.1,1.1
				c-9.8-0.9-21.1,2.9-29.2,0.3c0.7,0,1.3,0,1.8-0.3c-2.6-0.6-3.9-1.1-6.5-0.5c0.8,1.5,2.7,0.2,4.5,1.2c-0.1,0.6,0.3,1-0.3,1.8
				c-0.2-2.5-6.7-1.4-4.2-0.6c-0.9,1.3-3.4-0.5-5.1-0.9c-1.2,1.1,1.4,0.9,0.1,2C219.7,448.7,215.4,450.2,213.8,450.8z M258,451.7
				c-0.9,2.3-3.4-0.7-3.8,1C253,450.6,257.3,450,258,451.7z"/>
			<path fill-rule="evenodd" clip-rule="evenodd" fill="#836031" d="M200.5,445.8c0.8,0.4,1.2-0.1,2.1,0.3c0.3-1.4-1.2,0-1.9-0.7
				c3.8-2.9,9.7-0.3,14.6-2.4c0.9,0.4,0,1.4,1.5,1.5c0.8,0.1,0.1-0.6,0.6-1.2c4.4,0.8,9.4,0.6,13.9,1.3c-0.1-0.4-0.2-0.9,0.1-1.4
				c3,1.6,4-0.9,7.2,1.2c0.3-0.5,0.3-0.8-0.1-1c7.8,2.5,19-1.6,29,0.1c0.9-0.2,1.5-1.3,2.4-1.5c5.4,2.2,8.6,0.3,12.5,1.8
				c0.6-0.8,0.5-1.3-0.3-1.6c3.5-0.7,5.7,0.1,9-0.1c-2,1.6-5.3,0.3-7.8,1c0.3,0.5,2.2,0.6,1.1,2.4c-0.5-0.2-0.1-0.6-0.1-1
				c-1.3-0.6-1.9,0.4-3.2-0.2c-0.1,0.5,0.8,0.6,0.5,1.2c0.6-0.1,1.1-0.5,1.6-0.9c-2.7,2.2-14,1.6-20.4,1.7c-1.5,0.3-2.9,1-5.1,0.1
				c1.1-0.8,2.9,0.1,4.1-0.4c-0.6-1-3.4,0.5-5.6-1.1c0.3,0.6,0.5,1.2,0.8,1.8c-1.1,0.2-1.9,0.9-3.4,0.2c0.3-1,1.6,0.1,2-0.7
				c-1.4-0.6-2,0.8-3.7-0.4c1.4,2.9-12.7,2.2-13.4-0.1c-1.1-0.6-0.7,2-2,0.7c0.3-0.3,0.7-0.2,0.9-0.6c-0.8-0.4-1.2,0.1-2.1-0.3
				c0.5,2.4,4.9,1,5.7,2.1c-4.9,1.8-12.7-2.6-17,0.5c-1.3-1.6-8.5-1-9,0.1c-6.1-1.1-12.9,1-17-2.9
				C198.5,443.3,201.3,445,200.5,445.8z"/>
			<path fill-rule="evenodd" clip-rule="evenodd" fill="#836031" d="M208.3,461.9c1.2,0.3-0.1,1.4,0.8,1.8c1.6-0.4,3.5-0.4,5.5,0.1
				c-7,2.5-14.8,0.8-24.1,1.3c-0.9,1.8,2.3,2.6-0.5,3.2c3.6,1.3,7.6-1.1,10.2,0.9c-1.9-0.3-3.2,0.4-5.1,0.1c-1.2,1-0.8,1.4-0.7,2.7
				c-2.1,0.3-4.7-0.5-6.7-0.1c-1.8,4.6,5.9,3.6,9,4.4c1.4-0.1-0.2-1.6,1.3-1.5c4,0.9,10.4,0,15.2-0.2c-0.3-0.2-0.9-0.4-0.7-0.8
				c3.6,1.7,11.1,1.6,14.1,0.9c-0.2,0.1-1-0.6-0.7-0.8c16.5,1.2,31.7-0.2,47.1-1.4c1.3,0.8,1.7-0.2,3,0.6c3-1.9,8.1,0.7,10.9-1.8
				c-9.7-0.2-18.5,1.7-28.7,0.5c-3.5,0.6-10.5,1.8-12.7-0.3c2.1,0.3,6.3,1.6,5.9-0.7c-1.8-1.1-4.5,1.9-4.7-0.8
				c1.6,1,7.9-1.2,6.5,1.5c1.6-2.7,3.7,0.9,5.9-0.7c-0.9-1-2.6,0.5-2.4-0.9c1.9,1.1,2.3-1.2,3.8-1c0.1,1.4,3.3,0.6,2.3-0.1
				c-0.3,0.4-0.8,0.4-1.3,0.5c3.3-1.1,6.5,0.4,9.8-0.7c-0.3-0.2-0.9-0.4-0.7-0.8c1.4-0.2,1.3,1.7,1.9,0.7c-0.6-0.1-1-1.8,0.1-1.4
				c-0.8,1.1,5.1,1,4.3-0.8c2.8-0.1,4.1,1.9,6,0.3c-0.9-1-2.1,1.5-2.1-0.3c3.8-0.1,9.4-0.7,14.6-2.4c-3-1.1-5.4,1.7-7.6-0.4
				c-9.4,2.3-17.1,1.6-27.3,2c0.5,0.3,1.4,0.4,1.2,0.9c-3.2,0.3-17.4-0.5-14.2,1.5c-8.6-1.7-14.8,0.5-22.1-0.5
				c0.3-0.6,0.5-1.1,0.8-1.7c5,2,11.7,0.5,16.8-0.1c-3.3-0.6-4.5-0.6-6.9-0.6c0.3-0.6,0.5-1.1,0.8-1.7c3.2,0.3,6.1,1,10.3-0.5
				c-2.5,0.4,8.4,2.6,6,0.3c5.2,1.4,10.7-2.4,17.9-1.1c0.5-0.7-0.1-1.1,0.3-1.8c2.2,0.9,3.3-0.8,5.3-0.5c-1.1-1.8-6.3-1-8.8-0.4
				c1.4,0.8,2.4-0.3,2.2,1.3c-2.2,0.6-1.9-1.9-3.3-1.2c-1.8,0.2-6.6,1.2-10.7,1.4c-14.8,0.6-32.8-0.2-46.9,1
				c0.7,0.3,1.8,0.5,1.7,1.1C209.5,463.1,209.3,461,208.3,461.9z M243.9,470.4c0.2,1.4,0.9,1.2,1.4,3c-4.8-1.8-12.9,0.9-17.8-1.3
				c-4.5,1.6-12.6-0.2-19.3,0.6c5.6-1,13.6-2.5,17.9-1.1c0.8-0.5,2.1,0,2.4-1.5C228.8,472.4,240.2,473.6,243.9,470.4z"/>
			<path fill-rule="evenodd" clip-rule="evenodd" fill="#836031" d="M303.7,456.6c-0.5-0.4-0.7-0.9-0.3-1.6
				c-1.3-0.9-1.5,0.8-2.8-0.1c-0.3,1.4,1.2,0,1.9,0.7c-4-0.4-6,0.6-9,0.1c-0.2,0.2,0.5,0.8,0.7,0.8c-3.8,0.5-12,0.7-17.1,1.9
				c4.4,0,8.5-0.8,13.1-0.5c-4.6,0.3-9.9,2.4-14.5-0.1c-5.3,0.6-13.6,0.2-19.9,1.8c1.2-0.1,0.6-1.5-0.3-0.6
				c-0.6-0.4,0.2-0.3,0.4-0.8c-1.2-0.8-4.4,0-5.6-1.1c1.5-0.8,5-1.5,6.2-0.1c0.8-0.2,1.5-0.7,2.2-1.1c18.1-0.1,35.5-1.7,52.4-4.3
				c1.7,0.5,2.5,0.2,3.1,1.7C309.7,455.2,308.1,454,303.7,456.6z"/>
			<path fill-rule="evenodd" clip-rule="evenodd" fill="#836031" d="M233,459.4c1.4,0.2,2.2-0.9,3.6-0.6c-3.4,3.6-10.4-0.5-14.4,2
				c-4.9-1.6-8.7-0.2-11.6-1.4c0.8-1.4,2.7-0.4,4.1-0.4c-0.1-1.3-2.4-0.2-3.5-0.8c1.7-1.1,4.4,0,6.4-0.5c-1.7-1.5-6.1,0.3-8.4-2.2
				c6-0.5,13.9,3,19.2,0.8c0.4,0.1,0.4,0.3,0.3,0.6C225.2,458.5,233.8,457.2,233,459.4z"/>
			<path fill-rule="evenodd" clip-rule="evenodd" fill="#836031" d="M244.3,486.7c-0.5-0.3-0.1-0.5,0.2-0.4
				c-4.4-1.9-13.7,1-19.2-0.8c-0.9-0.2-1.4,0.3-1.8,1.3c-4.8-0.7-9.2-0.8-13.1,0.5c-0.6-0.5-0.9-1.1-1.5-1.5c0.3-0.2,2-1.2,0.8-1.7
				c15.2-2.4,32.2,0.8,46.7-0.6c-1.1-1.7-5.5,0.8-6.7-1.1c-0.4,0.7,0.2,1.1-0.3,1.8c-2.2-1.4-4.6-2.7-6.1-1.3
				c-5.4-2.7-8.2-1.4-12.8-2.4c2.3-1.2,5.3-1,8.2-0.8c-3-1.3,1.5-1,3.4-1.2c-1.5-1.7,2.9-1.2,4.8-0.7c-3.9,0.5-0.2-0.1-2,1.7
				c1.6,0.7,2.3-0.6,3.9,0c-0.2-0.5,0.3-1.2-0.3-1.6c-0.9-0.2-0.1,1.7-2,0.7c0.5-0.3,0.9-0.5,0.4-0.8c0.8-0.9,2.2-0.3,3.4-0.2
				c-0.3,0.3-0.7,0.2-0.9,0.7c0.8-0.2,1.9,0.2,2.8,0.1c0.1-0.7-0.7-0.1-1.4-0.5c0.5-0.7,1.3-0.6,2.3-0.1c-0.2,1.9-1.9,0.5-2.4,1.5
				c3.6-0.2,7.5,0.4,10.8-0.4c-2-0.8-3.3-1.7-7.4-0.8c-1-1.8,2.5-0.7,3.6-0.6c0.4-0.4-0.7-1.9-1.2-0.9c1.8-0.7,7.2,0.1,11.5,0.4
				c0.2-0.5-0.7-0.7-1.2-0.9c3.9-0.1,7.5-0.7,12,0.6c-0.2,0.7-0.8,0.5-1.1,1.1c1.4,0.4,5.1-2,3.8-2c2,0.8,4.8-0.3,6.4-0.5
				c2.4-0.4,5.1,0.3,7.1,0.2c5.4-0.2,10.1-1.9,16.5-1.7c-0.1-0.9-3.6-2.2-4-1c-0.5-1.9-2.7-1.5-5.2-1.9c1.9-1,4.4-0.7,6.9-0.4
				c-0.3,0.3-0.7,0.2-0.9,0.6c2.5,0.9,3.7-1.1,6.5,0.5c-0.5,0.6,0.1,0.9-0.1,1.4c6.9,0.8,12-2.3,18.5-2.4c1.8,5.5-8.6,6.8-12.3,5.7
				c-0.2,1.7-3.9,0.5-5.4,1.9c0.6,1.8-2,2.7,0.5,3.6c-3.7,0.8-7.6,1-11.4,1.6c0.9-0.5,2.1-0.6,2.9-1.4c-4.4-3.5-10.8,0.5-16.9-1.9
				c-1.6-0.2,0.8,1-0.3,1.8c-6.5-0.3-14.3-0.3-19.3,0.6c-0.5,0.1-2.1-0.9-2,0.7c-1.5-1.7-2.7,0.4-3.6-1.8c-0.7,1.2-1.2-0.2-3.2-0.2
				c1,2.4-0.9,1.4-2.6,1.9c2,0.8,3.2,1.9,5.1,0.9c0.7,0.6-0.2,1.1-0.9,0.6c-0.4,0.7,0.2,1.1-0.3,1.8c-0.9-0.2-0.8-0.8-0.3-0.6
				c0-1.5-1.8-0.2-2.8-1.1c0,0.4,0.1,0.9,0.5,1.2c-3.5,0.6-9-1.9-12.6,0.7C246.5,485.9,245,485.4,244.3,486.7z"/>
			<path fill-rule="evenodd" clip-rule="evenodd" fill="#836031" d="M283.1,481.6c3.6,3.2,10.6-1.3,14.8,0.6c-1.3,1-3.2,0.3-4.8,0.7
				c0,0.6,0.2,1.1,1,1.4c-1.6,0.4-3.2,1-5.3,0.5c0.8-1.4,2.9,0.1,3.8-1c-0.7-1.3-6-0.7-5.5,0.9c-2.6-1.2-5.7,1.8-9.4,0.9
				c0.6-0.8,1.7-0.3,2.2-1.1c-4.1,0-7.9,0.3-11.9,0.4c-0.2,1.4,1.6,0.3,2.4,0.9c-0.3,1.5-6.2,0-3.4,0.2c0.3-1.4-1.2,0-1.9-0.7
				c5.4-3,11.2-2.8,17.6-1.7C282.5,483,282.7,482.3,283.1,481.6z"/>
			<path fill-rule="evenodd" clip-rule="evenodd" fill="#836031" d="M263.9,487.7c-11.2,0.7-26.1-0.3-36.1,0.7
				c-5.1,0.5-12.7-0.7-18.4-0.1c-0.3,1,0,1.8-0.9,3.1c3,1.2,4.9,1.5,6,0.3c3.5,1,6.3,0.6,9.2,0.5c-0.2-0.6-1.7-0.8-0.8-1.8
				c14,0.3,26.7-0.4,39.5-0.8c-0.4,0.5-1.1,0.6,0.1,1c7.8-2.7,14.7-2.3,23-0.2c1.3-0.4,1-1.1,1.8-1.3c-0.2,0.6,0.8,0.9,1,1.4
				c1.3-0.4,1-1.1,1.8-1.3c0.8,1.2,3,0.3,2.9,2.1c-6.2,2.3-13.7,2-20,4.3c-0.9-0.4-1.9-0.7-2.8-1.1c-1.3,0.2,0.1,1.2-1.1,1.1
				c-1.1-0.7-1.4-1.2-2.6-0.5c-0.5,0.6-6.8,0.4-8.5,0.2c-11.1,2.5-28.5-1.4-40.9,1.3c-0.9,5.4,8.1,2.3,11.7,3.4
				c-0.3-0.2-0.9-0.4-0.7-0.8c5.5,0.4,8.1-0.4,13.9,1.3c-1.3,1.8,0.6,2.5,0.3,4c14.7,2.8,27.4-0.9,42.1-0.4c1.2-1.1-1.4-0.9-0.1-2
				c0.4,1.6,3.2,2.2,4.7,1.8c-1.2,2.2,2.3,0.7,2,2.7c1.2-0.3,2.5-0.2,3.9,0c0.5-1-0.3-1.6,1-2.1c-1-0.7-2.7,1.4-2.8-0.1
				c3.6-0.7,4.3-4.6,1.6-6.7c-4.6,0.8-11.9,0.3-15.9-0.6c4.7-0.3,9.1-1.2,13.4-2.3c-0.9-0.3-0.9-0.8-0.3-1.6
				c2.1,0.7,5.4-0.7,6.5,0.5c-2.1,0-4,0.3-5.9,0.7c8.3-0.2,16.8,0.3,23.7-2.8c-1.1-1.4-5.3-0.9-5,1.1c-2-0.6-3.9,0.9-4.5-1.2
				c-1.6,2.8-5.1,1.4-7.7,2c0.2-1.7-2-1.3-0.9-2.8c-2.1-1.3-4.8,1.9-5.1-0.9c7.5-0.9,15.2-1.8,22.3,0c-2-0.8,2-1.3,3.4-0.2
				c0.9-4,10.4-0.5,10.9-5.2c-3.6,3.2-10.4-0.6-14.4,2c1,0.9,2.5-1.2,2.6,0.5c-7.4-0.5-17.8-0.9-24.4-0.3c-0.3,0.6-0.2,1-0.1,1.4
				c-4.8-1.3-13.2-1.8-16.3,0.2C275.4,486.4,266.9,487.5,263.9,487.7z M243.3,500c3.8-0.7,12.1,0.5,12.7,0.3c0.6-1,0.5,0.9,1.9,0.7
				C253.7,501.6,247.3,501.7,243.3,500z"/>
			<path fill-rule="evenodd" clip-rule="evenodd" fill="#836031" d="M242.9,514.5c-1,0.8,3.5-2.5,0.8-1.7c3.2-1,11.8,0.5,18.2,0.5
				c3.1,0,6.9,0.2,10.4,0.5c-8.4-1.5,0.9-1.1,5.2-1.5c-4.2-1.6-10.3,0.3-15.7-1c3.3-1.3,7.4-1.6,11.9-1.4c7.1,0.3,15.5,0.4,21.8,2.3
				c-2.8,2.1-7.3,0.6-10.7,1.4c-0.3,1.4,1.2,0,1.9,0.7c-2.8,0.5-5.5-1.7-7.1,0.8c-1.7-0.7-3.9-0.4-7.4-0.8c1.5,1.7-5.2,2.2-6.4,0.5
				c-0.5,1.2-3.7,1.5-6.1,1.1c0.4,1.5,2.8-0.2,4.2,0.6C257,516.5,249.7,516.2,242.9,514.5z"/>
			<path fill-rule="evenodd" clip-rule="evenodd" fill="#836031" d="M288.3,429.8c2-1.2,10.4-2.8,13.4-2.3c-0.6,1.3-2.3,0.1-3.2,0.8
				c2.3,1.3-3,1.3-4.7,1.7c-0.5-0.2-0.1-0.6-0.1-1C292.1,429.6,289.9,429.1,288.3,429.8z"/>
			<path fill-rule="evenodd" clip-rule="evenodd" fill="#836031" d="M297.5,484.1c0.6,2,2.1-1,2.9-1.4c0.6,0.2,1.3,0.5,1.9,0.7
				c-1.4,1.6-3.5,1.4-5.4,1.9c-0.5-1.1,0-0.9-1.7-1.1c0.9-0.4,3.5-1.3,3.6-0.6C298.7,484.4,298.1,484.3,297.5,484.1z"/>
		</g>
		<g>
			<polygon fill="none" points="225.9,646.5 272.4,551.3 128.7,497.5 82.2,592.6 			"/>
			<path fill-rule="evenodd" clip-rule="evenodd" fill="#836031" d="M212.4,580.1c3.6-0.7,7.6-0.5,11.5-0.6
				C220.7,581.1,216.6,580.7,212.4,580.1z"/>
			<path fill-rule="evenodd" clip-rule="evenodd" fill="#836031" d="M221,575c4.4-1,11-1.6,15.4,0.4c-1,1.1,0.2,1.5-0.7,2.7
				C231.1,577.8,223.7,578.7,221,575z"/>
			<path fill-rule="evenodd" clip-rule="evenodd" fill="#836031" d="M196.4,540.8c-1-1.8-2.4,1-4.1,0.4c3.6,0.2,10.7,0.8,12.9-2.5
				c0.3,0.4,0.6,0.8,0.9,0.4c0.9,0.1,0.7,0.7,0.5,1.2c2.5,0.7,1.7-1.1,3.4-1.2c-0.6,2.3,4.2,0,2.6,0.5c-0.7-1.3,2.7-1.5,3.4-0.2
				c2.9,0.5,6-2.5,8.2-0.8c-6.8,3.3-18.7,1.4-22.3,4.4c-1.5,0.6-4.6-2.3-6.2,0.1c-1.2-1.1-6-1.5-5.7,0.3c0.9-0.6,2.2-0.3,3.2-0.8
				c0.4,2.4-2.2,0.6-4,1.4c1.2-2.5-6.8-0.8-9.2-0.5c-0.5-1.5,3.2-1,4.5-1.2c-0.9-1.1-3.9,0.6-6-0.3c0,0.4,0.1,0.9,0.5,1.2
				c-2.2,1.8-4.8-2-7.1-0.2c-0.2,0.7,2.6,0.7,3.2,0.2c-1,0.9-11.1,2.2-10.8,0.4c-1.5-0.2-0.8,0.4-1.3,1.5c-5-0.1-9.4,1-14.4,1
				c0.1,1.1,2.8,0.2,2.4,1.9c0.8,0.1,0.1-0.6,0.6-1.2c1.8,0.3,1.6,1.5,2.8,1.1c0.2-1-1,0.2-1.2-0.9c1.1-1.4,2.5,0.2,2.8,1.1
				c15.2-0.6,31.2-1.8,47.2-2.9c-6.8,1.8-17.5,2.2-26,3c-0.5,0.6,0,0.9,0.5,1.2c-0.5,0.8-1.9-0.3-2.5,0.5c-0.7-0.6,0.3-0.8,0.6-1.2
				c-1.7-0.6-1.9,2.1-3.3,2.2c-1.6-0.8-4.4-0.4-3.9,0c-0.5,0.7-3.3-1.3-1.5-1.5c-1.8-0.6-2.9-0.1-2.9,1.4
				c-7.5-0.4-14.5,0.3-21.9,0.1c-0.2,0.4,0.4,0.5,0.7,0.8c-13-0.7-25.2,1.1-39.1-2.4c2-0.3,2-0.7,0.3-1.8c6.1,1.1,15.6-0.9,22.2,1.5
				c5-1.3,11-0.4,16.5-0.7c-1.5-2.5-7.2-0.8-10.2-0.9c-2-0.2,0-1.8-1.8-2.1c2.3-1.7,5.5-3.1,10.3-1.5c1.1-1.9,6.1-0.6,10.5-0.9
				c2.6-0.2,3.1-0.4,5.3-0.5c3.6-0.2,10.8-2.4,14.4-1c6.9-2.1,15.8,0.2,22.7-1.8C195.9,539.8,197.2,539,196.4,540.8z"/>
			<path fill-rule="evenodd" clip-rule="evenodd" fill="#836031" d="M175.9,533.6c0.7-0.9-2.3-0.6-0.8-1.8
				c8.7,0.8,15.2-3.2,23.5-3.4c2.5,1.2,0.7,3.9,1.1,5.8c-2.4,2.1-6.9-0.3-9,2.5c-1.3-0.4-0.6-1-1.9-0.7c-14.7,4-31.2,4.3-47.3,5.3
				c1.3-2.1,4.2-0.6,5.9-1.7c-4.4,0.2-7.3,0.1-9.6,1.3c-0.2,1.4,1.2-0.7,2.1,0.3c-1,0.9-2.7,0.3-3.8,1c-1.4-1.3,1.4-0.2,1.3-1.5
				c-0.8-1.2-3.9-0.1-5.5-0.1c-0.2,2,1.3,0,2.8,1.1c-4.3-0.8-9.5-0.7-13.1-2.9c0.2-1,1.1-0.5,1.8-0.3c0.3-2.8-0.3-3.3,0.3-6.3
				c11.2-0.5,21-4.3,33.2-2.7c0.5-1.5-2.4,0.4-1-1.4c6.6,2.1,12.5-0.6,19.3-0.6c-2.2-1.3-6.8-0.6-9.2,0.5c-0.5-0.3,0.1-0.9-0.5-1.2
				c-1.2,1.8-2.4-0.8-3.6,1.6c-1.4-1,0-1.1,0.8-1.7c-1.4-0.5-3.5,0-4-1c2-0.7,2.1-0.4,4.4,0.2c3.4-1.3,7.4-1.4,11.4-1.6
				c1.6-2.4,5.7-3.4,7.4-2.6c2.9-2.2,15.1-2.6,11.4,5.3c-12.3,3.6-25.5,5.3-39.5,5.3c0.3-1,1.6,0.1,2-0.7c-7.7,2.9-18.4,5-28.9,4.3
				c0,1,2.3-0.1,3.5,0.8c-0.4,0.8-1.7-0.3-2,0.7c4,0.1,10.5-0.5,11.3-0.2C150,535.5,165,535.7,175.9,533.6z"/>
			<path fill-rule="evenodd" clip-rule="evenodd" fill="#836031" d="M135.7,559.7c-1.8,0.5-2.3-2.1-3.8-1.4
				c-7.1,1-18.2-1.4-28.1-0.8c0.1,1,0.1,2,0.2,3c6.7,3.4,14.1-0.8,20.4,1.8c4.8-0.1,15.9,0.9,24.4,0.3c-0.6-0.3-1.1-0.5-0.5-1.2
				c1.8,0.9,2.5,0,2.6,1.5c2.6-2,7.7-1.2,10.3-0.5c-0.3-0.2-0.9-0.4-0.7-0.8c1.6-0.4,2,1.2,3,0.6c-0.9-0.3-0.9-0.8-0.3-1.6
				c5.1,2.2,7.2-0.1,12,0.6c-0.2,0.5-1,0.4-0.4,0.8c3.7-0.2,10.3-1,11.1-3.2c1.7,0.6,2.5,0,2.6,1.5c0.5-0.3,1-0.8,1.6-0.9
				c7.3-0.6,15.6-1,21.8-1.1c0-1,3.6-1.1,4.7-2.7c-9.9-1-21.4,1-31.4,2.4c-0.8-1,1.1-0.8,0.1-1.4c-0.7,0.6-1.5-0.2-1.1,1.1
				c-9.8-0.9-21.1,2.9-29.2,0.3c0.7,0,1.3,0,1.8-0.3c-2.6-0.6-3.9-1.1-6.5-0.5c0.8,1.5,2.7,0.2,4.5,1.2c-0.1,0.6,0.3,1-0.3,1.8
				c-0.2-2.5-6.7-1.4-4.2-0.6c-0.9,1.3-3.4-0.5-5.1-0.9c-1.2,1.1,1.4,0.9,0.1,2C141.7,557.6,137.4,559.1,135.7,559.7z M180,560.6
				c-0.9,2.3-3.4-0.7-3.8,1C175,559.6,179.3,558.9,180,560.6z"/>
			<path fill-rule="evenodd" clip-rule="evenodd" fill="#836031" d="M122.5,554.7c0.8,0.4,1.2-0.1,2.1,0.3c0.3-1.4-1.2,0-1.9-0.7
				c3.8-2.9,9.7-0.3,14.6-2.4c0.9,0.4,0,1.4,1.5,1.5c0.8,0.1,0.1-0.6,0.6-1.2c4.4,0.8,9.4,0.6,13.9,1.3c-0.1-0.4-0.2-0.9,0.1-1.4
				c3,1.6,4-0.9,7.2,1.2c0.3-0.5,0.3-0.8-0.1-1c7.8,2.5,19-1.6,29,0.1c0.9-0.2,1.5-1.3,2.4-1.5c5.4,2.2,8.6,0.3,12.5,1.8
				c0.6-0.8,0.5-1.3-0.3-1.6c3.5-0.7,5.7,0.1,9-0.1c-2,1.6-5.3,0.3-7.8,1c0.3,0.5,2.2,0.6,1.1,2.4c-0.5-0.2-0.1-0.6-0.1-1
				c-1.3-0.6-1.9,0.4-3.2-0.2c-0.1,0.5,0.8,0.6,0.5,1.2c0.6-0.1,1.1-0.5,1.6-0.9c-2.7,2.2-14,1.6-20.4,1.7c-1.5,0.3-2.9,1-5.1,0.1
				c1.1-0.8,2.9,0.1,4.1-0.4c-0.6-1-3.4,0.5-5.6-1.1c0.3,0.6,0.5,1.2,0.8,1.8c-1.1,0.2-1.9,0.9-3.4,0.2c0.3-1,1.6,0.1,2-0.7
				c-1.4-0.6-2,0.8-3.7-0.4c1.4,2.9-12.7,2.2-13.4-0.1c-1.1-0.6-0.7,2-2,0.7c0.3-0.3,0.7-0.2,0.9-0.6c-0.8-0.4-1.2,0.1-2.1-0.3
				c0.5,2.4,4.9,1,5.7,2.1c-4.9,1.8-12.7-2.6-17,0.5c-1.3-1.6-8.5-1-9,0.1c-6.1-1.1-12.9,1-17-2.9
				C120.4,552.2,123.2,554,122.5,554.7z"/>
			<path fill-rule="evenodd" clip-rule="evenodd" fill="#836031" d="M130.3,570.8c1.2,0.3-0.1,1.4,0.8,1.8c1.6-0.4,3.5-0.4,5.5,0.1
				c-7,2.5-14.8,0.8-24.1,1.3c-0.9,1.8,2.3,2.6-0.5,3.2c3.6,1.3,7.6-1.1,10.2,0.9c-1.9-0.3-3.2,0.4-5.1,0.1c-1.2,1-0.8,1.4-0.7,2.7
				c-2.1,0.3-4.7-0.5-6.7-0.1c-1.8,4.6,5.9,3.6,9,4.4c1.4-0.1-0.2-1.6,1.3-1.5c4,0.9,10.4,0,15.2-0.2c-0.3-0.2-0.9-0.4-0.7-0.8
				c3.6,1.7,11.1,1.6,14.1,0.9c-0.2,0.1-1-0.6-0.7-0.8c16.5,1.2,31.7-0.2,47.1-1.4c1.3,0.8,1.7-0.2,3,0.6c3-1.9,8.1,0.7,10.9-1.8
				c-9.7-0.2-18.5,1.7-28.7,0.5c-3.5,0.6-10.5,1.8-12.7-0.3c2.1,0.3,6.3,1.6,5.9-0.7c-1.8-1.1-4.5,1.9-4.7-0.8
				c1.6,1,7.9-1.2,6.5,1.5c1.6-2.7,3.7,0.9,5.9-0.7c-0.9-1-2.6,0.5-2.4-0.9c1.9,1.1,2.3-1.2,3.8-1c0.1,1.4,3.3,0.6,2.3-0.1
				c-0.3,0.4-0.8,0.4-1.3,0.5c3.3-1.1,6.5,0.4,9.8-0.7c-0.3-0.2-0.9-0.4-0.7-0.8c1.4-0.2,1.3,1.7,1.9,0.7c-0.6-0.1-1-1.8,0.1-1.4
				c-0.8,1.1,5.1,1,4.3-0.8c2.8-0.1,4.1,1.9,6,0.3c-0.9-1-2.1,1.5-2.1-0.3c3.8-0.1,9.4-0.7,14.6-2.4c-3-1.1-5.4,1.7-7.6-0.4
				c-9.4,2.3-17.1,1.6-27.3,2c0.5,0.3,1.4,0.4,1.2,0.9c-3.2,0.3-17.4-0.5-14.2,1.5c-8.6-1.7-14.8,0.5-22.1-0.5
				c0.3-0.6,0.5-1.1,0.8-1.7c5,2,11.7,0.5,16.8-0.1c-3.3-0.6-4.5-0.6-6.9-0.6c0.3-0.6,0.5-1.1,0.8-1.7c3.2,0.3,6.1,1,10.3-0.5
				c-2.5,0.4,8.4,2.6,6,0.3c5.2,1.4,10.7-2.4,17.9-1.1c0.5-0.7-0.1-1.1,0.3-1.8c2.2,0.9,3.3-0.8,5.3-0.5c-1.1-1.8-6.3-1-8.8-0.4
				c1.4,0.8,2.4-0.3,2.2,1.3c-2.2,0.6-1.9-1.9-3.3-1.2c-1.8,0.2-6.6,1.2-10.7,1.4c-14.8,0.6-32.8-0.2-46.9,1
				c0.7,0.3,1.8,0.5,1.7,1.1C131.5,572,131.3,569.9,130.3,570.8z M165.8,579.3c0.2,1.4,0.9,1.2,1.4,3c-4.8-1.8-12.9,0.9-17.8-1.3
				c-4.5,1.6-12.6-0.2-19.3,0.6c5.6-1,13.6-2.5,17.9-1.1c0.8-0.5,2.1,0,2.4-1.5C150.8,581.3,162.1,582.5,165.8,579.3z"/>
			<path fill-rule="evenodd" clip-rule="evenodd" fill="#836031" d="M225.7,565.5c-0.5-0.4-0.7-0.9-0.3-1.6
				c-1.3-0.9-1.5,0.8-2.8-0.1c-0.3,1.4,1.2,0,1.9,0.7c-4-0.4-6,0.6-9,0.1c-0.2,0.2,0.5,0.8,0.7,0.8c-3.8,0.5-12,0.7-17.1,1.9
				c4.4,0,8.5-0.8,13.1-0.5c-4.6,0.3-9.9,2.4-14.5-0.1c-5.3,0.6-13.6,0.2-19.9,1.8c1.2-0.1,0.6-1.5-0.3-0.6
				c-0.6-0.4,0.2-0.3,0.4-0.8c-1.2-0.8-4.4,0-5.6-1.1c1.5-0.8,5-1.5,6.2-0.1c0.8-0.2,1.5-0.7,2.2-1.1c18.1-0.1,35.5-1.7,52.4-4.3
				c1.7,0.5,2.5,0.2,3.1,1.7C231.6,564.1,230.1,562.9,225.7,565.5z"/>
			<path fill-rule="evenodd" clip-rule="evenodd" fill="#836031" d="M155,568.4c1.4,0.2,2.2-0.9,3.6-0.6c-3.4,3.6-10.4-0.5-14.4,2
				c-4.9-1.6-8.7-0.2-11.6-1.4c0.8-1.4,2.7-0.4,4.1-0.4c-0.1-1.3-2.4-0.2-3.5-0.8c1.7-1.1,4.4,0,6.4-0.5c-1.7-1.5-6.1,0.3-8.4-2.2
				c6-0.5,13.9,3,19.2,0.8c0.4,0.1,0.4,0.3,0.3,0.6C147.2,567.5,155.8,566.1,155,568.4z"/>
			<path fill-rule="evenodd" clip-rule="evenodd" fill="#836031" d="M166.3,595.6c-0.5-0.3-0.1-0.5,0.2-0.4
				c-4.4-1.9-13.7,1-19.2-0.8c-0.9-0.2-1.4,0.3-1.8,1.3c-4.8-0.7-9.2-0.8-13.1,0.5c-0.6-0.5-0.9-1.1-1.5-1.5c0.3-0.2,2-1.2,0.8-1.7
				c15.2-2.4,32.2,0.8,46.7-0.6c-1.1-1.7-5.5,0.8-6.7-1.1c-0.4,0.7,0.2,1.1-0.3,1.8c-2.2-1.4-4.6-2.7-6.1-1.3
				c-5.4-2.7-8.2-1.4-12.8-2.4c2.3-1.2,5.3-1,8.2-0.8c-3-1.3,1.5-1,3.4-1.2c-1.5-1.7,2.9-1.2,4.8-0.7c-3.9,0.5-0.2-0.1-2,1.7
				c1.6,0.7,2.3-0.6,3.9,0c-0.2-0.5,0.3-1.2-0.3-1.6c-0.9-0.2-0.1,1.7-2,0.7c0.5-0.3,0.9-0.5,0.4-0.8c0.8-0.9,2.2-0.3,3.4-0.2
				c-0.3,0.3-0.7,0.2-0.9,0.7c0.8-0.2,1.9,0.2,2.8,0.1c0.1-0.7-0.7-0.1-1.4-0.5c0.5-0.7,1.3-0.6,2.3-0.1c-0.2,1.9-1.9,0.5-2.4,1.5
				c3.6-0.2,7.5,0.4,10.8-0.4c-2-0.8-3.3-1.7-7.4-0.8c-1-1.8,2.5-0.7,3.6-0.6c0.4-0.4-0.7-1.9-1.2-0.9c1.8-0.7,7.2,0.1,11.5,0.4
				c0.2-0.5-0.7-0.7-1.2-0.9c3.9-0.1,7.5-0.7,12,0.6c-0.2,0.7-0.8,0.5-1.1,1.1c1.4,0.4,5.1-2,3.8-2c2,0.8,4.8-0.3,6.4-0.5
				c2.4-0.4,5.1,0.3,7.1,0.2c5.4-0.2,10.1-1.9,16.5-1.7c-0.1-0.9-3.6-2.2-4-1c-0.5-1.9-2.7-1.5-5.2-1.9c1.9-1,4.4-0.7,6.9-0.4
				c-0.3,0.3-0.7,0.2-0.9,0.7c2.5,0.9,3.7-1.1,6.5,0.5c-0.5,0.6,0.1,0.9-0.1,1.4c6.9,0.8,12-2.3,18.5-2.4c1.8,5.5-8.6,6.8-12.3,5.7
				c-0.2,1.7-3.9,0.5-5.4,1.9c0.6,1.8-2,2.7,0.5,3.6c-3.7,0.8-7.6,1-11.4,1.6c0.9-0.5,2.1-0.6,2.9-1.4c-4.4-3.5-10.8,0.5-16.9-1.9
				c-1.6-0.2,0.8,1-0.3,1.8c-6.5-0.3-14.3-0.3-19.3,0.6c-0.5,0.1-2.1-0.9-2,0.7c-1.5-1.7-2.7,0.4-3.6-1.8c-0.7,1.2-1.2-0.2-3.2-0.2
				c1,2.4-0.9,1.4-2.6,1.9c2,0.8,3.2,1.9,5.1,0.9c0.7,0.6-0.2,1.1-0.9,0.6c-0.4,0.7,0.2,1.1-0.3,1.8c-0.9-0.2-0.8-0.8-0.3-0.6
				c0-1.5-1.8-0.2-2.8-1.1c0,0.4,0.1,0.9,0.5,1.2c-3.5,0.6-9-1.9-12.6,0.7C168.5,594.8,167,594.3,166.3,595.6z"/>
			<path fill-rule="evenodd" clip-rule="evenodd" fill="#836031" d="M205,590.5c3.6,3.2,10.6-1.3,14.8,0.6c-1.3,1-3.2,0.3-4.8,0.7
				c0,0.6,0.2,1.1,1,1.4c-1.6,0.4-3.2,1-5.3,0.5c0.8-1.4,2.9,0.1,3.8-1c-0.7-1.3-6-0.7-5.5,0.9c-2.6-1.2-5.7,1.8-9.4,0.9
				c0.6-0.8,1.7-0.3,2.2-1.1c-4.1,0-7.9,0.3-11.9,0.4c-0.2,1.4,1.6,0.3,2.4,0.9c-0.3,1.5-6.2,0-3.4,0.2c0.3-1.4-1.2,0-1.9-0.7
				c5.4-3,11.2-2.8,17.6-1.7C204.5,591.9,204.6,591.2,205,590.5z"/>
			<path fill-rule="evenodd" clip-rule="evenodd" fill="#836031" d="M185.9,596.6c-11.2,0.7-26.1-0.3-36.1,0.7
				c-5.1,0.5-12.7-0.7-18.4-0.1c-0.3,1,0,1.8-0.9,3.1c3,1.2,4.9,1.5,6,0.3c3.5,1,6.3,0.6,9.2,0.5c-0.2-0.6-1.7-0.8-0.8-1.8
				c14,0.3,26.7-0.4,39.5-0.8c-0.4,0.5-1.1,0.6,0.1,1c7.8-2.7,14.7-2.3,23-0.2c1.3-0.4,1-1.1,1.8-1.3c-0.2,0.6,0.8,0.9,1,1.4
				c1.3-0.4,1-1.1,1.8-1.3c0.8,1.2,3,0.3,2.9,2.1c-6.2,2.3-13.7,2-20,4.3c-0.9-0.4-1.9-0.7-2.8-1.1c-1.3,0.2,0.1,1.2-1.1,1.1
				c-1.1-0.7-1.4-1.2-2.6-0.5c-0.5,0.6-6.8,0.4-8.5,0.2c-11.1,2.5-28.5-1.4-40.9,1.3c-0.9,5.4,8.1,2.3,11.7,3.4
				c-0.3-0.2-0.9-0.4-0.7-0.8c5.5,0.4,8.1-0.4,13.9,1.3c-1.3,1.8,0.6,2.5,0.3,4c14.7,2.8,27.4-0.9,42.1-0.4c1.2-1.1-1.4-0.9-0.1-2
				c0.4,1.6,3.2,2.2,4.7,1.8c-1.2,2.2,2.3,0.7,2,2.7c1.2-0.3,2.5-0.2,3.9,0c0.5-1-0.3-1.6,1-2.1c-1-0.7-2.7,1.4-2.8-0.1
				c3.6-0.7,4.3-4.6,1.6-6.7c-4.6,0.8-11.9,0.3-15.9-0.6c4.7-0.3,9.1-1.2,13.4-2.3c-0.9-0.3-0.9-0.8-0.3-1.6
				c2.1,0.7,5.4-0.7,6.5,0.5c-2.1,0-4,0.3-5.9,0.7c8.3-0.2,16.8,0.3,23.7-2.8c-1.1-1.4-5.3-0.9-5,1.1c-2-0.6-3.9,0.9-4.5-1.2
				c-1.6,2.8-5.1,1.4-7.7,2c0.2-1.7-2-1.3-0.9-2.8c-2.1-1.3-4.8,1.9-5.1-0.9c7.5-0.9,15.2-1.8,22.3,0c-2-0.8,2-1.3,3.4-0.2
				c0.9-4,10.4-0.5,10.9-5.2c-3.6,3.2-10.4-0.6-14.4,2c1,0.9,2.5-1.2,2.6,0.5c-7.4-0.5-17.8-0.9-24.4-0.3c-0.3,0.6-0.2,1-0.1,1.4
				c-4.8-1.3-13.2-1.8-16.3,0.2C197.3,595.3,188.8,596.4,185.9,596.6z M165.3,608.9c3.8-0.7,12.1,0.5,12.7,0.3
				c0.6-1,0.5,0.9,1.9,0.7C175.7,610.5,169.3,610.6,165.3,608.9z"/>
			<path fill-rule="evenodd" clip-rule="evenodd" fill="#836031" d="M164.9,623.4c-1,0.8,3.5-2.5,0.8-1.7c3.2-1,11.8,0.5,18.2,0.5
				c3.1,0,6.9,0.2,10.4,0.5c-8.4-1.5,0.9-1.1,5.2-1.5c-4.2-1.6-10.3,0.3-15.7-1c3.3-1.3,7.4-1.6,11.9-1.4c7.1,0.3,15.5,0.4,21.8,2.3
				c-2.8,2.1-7.3,0.6-10.7,1.4c-0.3,1.4,1.2,0,1.9,0.7c-2.8,0.5-5.5-1.7-7.1,0.8c-1.7-0.7-3.9-0.4-7.4-0.8c1.5,1.7-5.2,2.2-6.4,0.5
				c-0.5,1.2-3.7,1.5-6.1,1.1c0.4,1.5,2.8-0.2,4.2,0.6C179,625.4,171.7,625.1,164.9,623.4z"/>
			<path fill-rule="evenodd" clip-rule="evenodd" fill="#836031" d="M210.3,538.7c2-1.2,10.4-2.8,13.4-2.3c-0.6,1.3-2.3,0.1-3.2,0.8
				c2.3,1.3-3,1.3-4.7,1.7c-0.5-0.2-0.1-0.6-0.1-1C214.1,538.5,211.9,538,210.3,538.7z"/>
			<path fill-rule="evenodd" clip-rule="evenodd" fill="#836031" d="M219.5,593c0.6,2,2.1-1,2.9-1.4c0.6,0.2,1.3,0.5,1.9,0.7
				c-1.4,1.6-3.5,1.4-5.4,1.9c-0.5-1.1,0-0.9-1.7-1.1c0.9-0.4,3.5-1.3,3.6-0.6C220.6,593.3,220.1,593.2,219.5,593z"/>
		</g>
		<g>
			<polygon fill="none" points="717.1,355.7 673.9,452.1 819.5,502.1 862.6,405.7 			"/>
			<path fill-rule="evenodd" clip-rule="evenodd" fill="#836031" d="M733,421.7c-3.6,0.8-7.6,0.7-11.4,0.9
				C724.6,421,728.8,421.3,733,421.7z"/>
			<path fill-rule="evenodd" clip-rule="evenodd" fill="#836031" d="M724.5,427.1c-4.4,1.1-10.9,1.9-15.5,0c0.9-1.2-0.3-1.5,0.6-2.7
				C714.3,424.5,721.7,423.4,724.5,427.1z"/>
			<path fill-rule="evenodd" clip-rule="evenodd" fill="#836031" d="M750.3,460.6c1.1,1.8,2.4-1.1,4.1-0.5
				c-3.6-0.1-10.7-0.6-12.9,2.8c-0.3-0.4-0.6-0.8-1-0.3c-0.9-0.1-0.8-0.6-0.6-1.2c-2.5-0.6-1.7,1.2-3.3,1.3c0.5-2.3-4.2,0.1-2.6-0.4
				c0.7,1.2-2.6,1.6-3.4,0.3c-2.9-0.4-5.9,2.7-8.2,1c6.7-3.4,18.7-1.9,22.1-5c1.5-0.6,4.7,2.1,6.2-0.3c1.2,1.1,6,1.4,5.7-0.4
				c-0.9,0.7-2.2,0.3-3.1,0.9c-0.5-2.4,2.2-0.7,4-1.5c-1.1,2.6,6.8,0.6,9.3,0.3c0.6,1.5-3.2,1.1-4.5,1.4c1,1.1,3.9-0.7,6,0.1
				c0-0.4-0.1-0.9-0.6-1.2c2.2-1.9,4.8,1.8,7.2,0c0.1-0.7-2.6-0.6-3.2-0.1c1-0.9,11-2.5,10.8-0.6c1.6,0.1,0.8-0.4,1.2-1.5
				c5,0,9.4-1.3,14.4-1.3c-0.1-1.1-2.8-0.1-2.5-1.8c-0.8-0.1-0.1,0.6-0.6,1.3c-1.8-0.2-1.7-1.5-2.9-1c-0.2,1,1-0.3,1.2,0.9
				c-1,1.4-2.5-0.2-2.9-1c-15.2,1-31.1,2.7-47.1,4.1c6.7-2,17.4-2.7,25.9-3.7c0.5-0.7,0-0.9-0.6-1.2c0.5-0.8,2,0.2,2.5-0.6
				c0.7,0.6-0.3,0.8-0.6,1.3c1.7,0.5,1.9-2.1,3.2-2.3c1.6,0.7,4.4,0.3,3.9-0.1c0.5-0.8,3.3,1.2,1.5,1.5c1.9,0.5,2.9,0,2.9-1.4
				c7.5,0.2,14.5-0.7,21.8-0.7c0.2-0.4-0.4-0.5-0.8-0.7c13.1,0.3,25.1-1.8,39.1,1.4c-2,0.3-2,0.7-0.3,1.8
				c-6.1-0.9-15.6,1.3-22.2-0.9c-4.9,1.5-11,0.7-16.5,1.1c1.6,2.5,7.3,0.6,10.2,0.6c2,0.2,0.1,1.8,1.8,2.1
				c-2.2,1.7-5.4,3.2-10.2,1.8c-1,2-6.1,0.7-10.5,1.2c-2.6,0.3-3.1,0.5-5.2,0.6c-3.6,0.3-10.7,2.7-14.4,1.3
				c-6.8,2.3-15.8,0.2-22.6,2.4C750.8,461.6,749.6,462.4,750.3,460.6z"/>
			<path fill-rule="evenodd" clip-rule="evenodd" fill="#836031" d="M771.1,467.2c-0.6,0.9,2.3,0.5,0.9,1.7
				c-8.7-0.6-15.1,3.6-23.3,4.1c-2.5-1.1-0.8-3.9-1.3-5.8c2.4-2.2,6.9,0.1,8.9-2.7c1.3,0.4,0.7,1,1.9,0.7c14.6-4.4,31-5.1,47.1-6.5
				c-1.2,2.1-4.2,0.7-5.8,1.9c4.4-0.3,7.3-0.3,9.5-1.6c0.1-1.4-1.1,0.7-2.1-0.2c1-0.9,2.7-0.4,3.8-1.1c1.5,1.3-1.4,0.2-1.2,1.5
				c0.9,1.1,3.9,0,5.5,0c0.1-2.1-1.3,0.1-2.9-1c4.4,0.6,9.5,0.4,13.2,2.6c-0.2,1-1,0.6-1.8,0.3c-0.2,2.8,0.4,3.3,0,6.3
				c-11.2,0.8-20.8,4.9-33.1,3.6c-0.4,1.5,2.4-0.5,1.1,1.3c-6.7-1.9-12.5,1-19.3,1.1c2.2,1.3,6.8,0.4,9.2-0.7c0.5,0.3,0,0.9,0.6,1.2
				c1.1-1.8,2.4,0.8,3.5-1.7c1.4,0.9,0,1.1-0.8,1.7c1.4,0.4,3.5-0.1,4,0.9c-2,0.8-2.1,0.5-4.4-0.1c-3.4,1.4-7.4,1.6-11.3,1.9
				c-1.5,2.4-5.5,3.5-7.3,2.8c-2.9,2.3-15,3-11.6-4.9c12.2-4,25.3-6,39.3-6.3c-0.3,1-1.6,0-2,0.8c7.6-3.1,18.2-5.5,28.8-5.1
				c0-1-2.3,0.1-3.5-0.7c0.4-0.8,1.7,0.3,2-0.8c-4,0-10.4,0.8-11.3,0.5C796.9,464.7,781.9,464.9,771.1,467.2z"/>
			<path fill-rule="evenodd" clip-rule="evenodd" fill="#836031" d="M810.3,440.1c1.8-0.6,2.4,2,3.8,1.3c7-1.2,18.2,0.9,28.1,0
				c-0.1-1-0.2-2-0.3-3c-6.8-3.2-14.1,1.2-20.4-1.2c-4.8,0.3-15.9-0.5-24.4,0.3c0.6,0.2,1.1,0.5,0.6,1.2c-1.9-0.8-2.5,0-2.7-1.4
				c-2.5,2.1-7.6,1.4-10.3,0.8c0.3,0.2,0.9,0.3,0.8,0.7c-1.6,0.4-2-1.2-3.1-0.6c0.9,0.2,0.9,0.8,0.4,1.6c-5.1-2.1-7.2,0.3-12-0.3
				c0.2-0.5,1-0.4,0.4-0.8c-3.7,0.3-10.3,1.3-10.9,3.5c-1.7-0.5-2.5,0.1-2.7-1.4c-0.5,0.3-0.9,0.9-1.5,0.9
				c-7.3,0.8-15.5,1.4-21.7,1.7c0.1,1-3.6,1.2-4.6,2.8c9.9,0.8,21.3-1.5,31.3-3.3c0.8,1-1.1,0.8-0.1,1.4c0.7-0.7,1.6,0.2,1-1.1
				c9.8,0.6,21-3.5,29.2-1.1c-0.7,0-1.3,0.1-1.8,0.3c2.7,0.5,3.9,1,6.5,0.3c-0.9-1.5-2.7-0.2-4.5-1.1c0.1-0.6-0.3-1,0.3-1.8
				c0.3,2.5,6.8,1.3,4.2,0.5c0.9-1.4,3.4,0.5,5.2,0.8c1.2-1.2-1.4-0.9-0.2-2C804.4,442.3,808.6,440.7,810.3,440.1z M766,440.3
				c0.8-2.4,3.5,0.6,3.8-1.1C771,441.3,766.7,442.1,766,440.3z"/>
			<path fill-rule="evenodd" clip-rule="evenodd" fill="#836031" d="M823.7,444.7c-0.8-0.3-1.2,0.2-2.1-0.2c-0.2,1.4,1.2,0,1.9,0.7
				c-3.7,3-9.6,0.5-14.5,2.8c-0.9-0.3-0.1-1.4-1.5-1.5c-0.8-0.1-0.1,0.6-0.6,1.3c-4.4-0.7-9.4-0.4-13.9-0.9c0.1,0.4,0.2,0.9-0.1,1.4
				c-3-1.5-4,1-7.3-1c-0.3,0.5-0.2,0.8,0.1,1c-7.9-2.3-18.9,2.1-29,0.7c-0.9,0.3-1.4,1.3-2.4,1.6c-5.4-2.1-8.6-0.1-12.6-1.4
				c-0.5,0.8-0.5,1.3,0.4,1.6c-3.5,0.8-5.7,0.1-9,0.3c2-1.6,5.3-0.5,7.7-1.2c-0.3-0.5-2.2-0.6-1.2-2.3c0.5,0.2,0.1,0.6,0.1,1
				c1.4,0.6,1.9-0.4,3.2,0.1c0.1-0.5-0.8-0.6-0.6-1.2c-0.6,0.2-1.1,0.5-1.5,0.9c2.6-2.3,13.9-2,20.3-2.2c1.5-0.4,2.9-1.1,5.1-0.2
				c-1.1,0.8-2.9,0-4.1,0.5c0.7,1,3.4-0.6,5.6,1c-0.3-0.6-0.6-1.2-0.9-1.7c1.1-0.2,1.9-1,3.4-0.3c-0.3,1-1.6,0-2,0.8
				c1.5,0.6,2-0.8,3.7,0.3c-1.5-2.9,12.6-2.5,13.4-0.2c1.1,0.6,0.6-2,2-0.8c-0.2,0.3-0.7,0.3-0.9,0.7c0.8,0.3,1.2-0.2,2.1,0.2
				c-0.6-2.4-4.9-0.9-5.7-2c4.9-1.9,12.8,2.3,17-0.9c1.3,1.5,8.5,0.8,9-0.3c6.1,0.9,12.9-1.4,17.1,2.5
				C825.8,447.2,823,445.5,823.7,444.7z"/>
			<path fill-rule="evenodd" clip-rule="evenodd" fill="#836031" d="M815.3,428.8c-1.2-0.3,0-1.4-0.9-1.7c-1.6,0.4-3.5,0.5-5.5,0
				c6.9-2.7,14.7-1.2,24-1.9c0.9-1.8-2.4-2.5,0.4-3.3c-3.6-1.2-7.5,1.3-10.2-0.6c1.9,0.3,3.2-0.5,5.1-0.2c1.1-1.1,0.8-1.4,0.6-2.7
				c2.1-0.3,4.7,0.4,6.7-0.1c1.7-4.6-6-3.5-9.2-4.1c-1.4,0.2,0.3,1.6-1.2,1.5c-4-0.8-10.4,0.2-15.2,0.6c0.3,0.2,0.9,0.3,0.8,0.7
				c-3.6-1.6-11.2-1.3-14.1-0.5c0.2-0.1,1,0.6,0.8,0.7c-16.5-0.8-31.7,1-47,2.7c-1.3-0.8-1.7,0.2-3.1-0.6c-3,2-8.2-0.5-10.9,2.1
				c9.8,0,18.4-2.2,28.7-1.3c3.4-0.7,10.4-2.1,12.7,0c-2.1-0.2-6.3-1.4-5.9,0.9c1.9,1,4.4-2,4.7,0.6c-1.6-0.9-7.8,1.4-6.6-1.3
				c-1.5,2.7-3.8-0.8-5.9,0.9c0.9,1,2.5-0.5,2.4,0.8c-2-1-2.3,1.2-3.8,1.1c-0.2-1.4-3.3-0.5-2.3,0.2c0.3-0.4,0.8-0.5,1.3-0.5
				c-3.3,1.1-6.6-0.3-9.8,1c0.3,0.2,0.9,0.3,0.8,0.7c-1.3,0.2-1.3-1.7-1.9-0.7c0.6,0.1,1.1,1.8-0.1,1.4c0.8-1.1-5.1-0.9-4.3,0.9
				c-2.8,0.1-4.2-1.8-6-0.1c1,1,2-1.6,2.1,0.2c-3.8,0.2-9.4,1-14.5,2.8c3,1,5.3-1.8,7.6,0.2c9.3-2.6,17-2.1,27.2-2.7
				c-0.5-0.3-1.4-0.4-1.2-0.9c3.2-0.4,17.4,0,14.1-1.9c8.7,1.5,14.8-0.9,22.1-0.1c-0.3,0.6-0.5,1.1-0.8,1.7
				c-5-1.8-11.7-0.2-16.8,0.5c3.3,0.5,4.5,0.4,7,0.5c-0.3,0.6-0.5,1.1-0.8,1.7c-3.3-0.2-6.1-0.8-10.3,0.8c2.4-0.5-8.5-2.4-6-0.1
				c-5.2-1.2-10.6,2.7-17.8,1.6c-0.5,0.8,0.1,1.1-0.3,1.8c-2.3-0.8-3.3,0.9-5.2,0.6c1.2,1.8,6.4,0.8,8.8,0.1
				c-1.4-0.7-2.4,0.3-2.2-1.2c2.1-0.7,1.9,1.9,3.3,1.1c1.8-0.3,6.6-1.4,10.7-1.6c14.8-1,32.8-0.6,46.8-2.3c-0.7-0.3-1.8-0.5-1.7-1.1
				C814.1,427.7,814.4,429.8,815.3,428.8z M779.5,421.3c-0.2-1.4-1-1.2-1.5-2.9c4.8,1.7,12.8-1.3,17.8,0.8
				c4.4-1.7,12.6-0.1,19.3-1.1c-5.6,1.1-13.5,2.8-17.8,1.6c-0.8,0.6-2.1,0.1-2.4,1.6C794.4,418.9,783.1,418,779.5,421.3z"/>
			<path fill-rule="evenodd" clip-rule="evenodd" fill="#836031" d="M720.2,436.7c0.5,0.4,0.7,0.9,0.4,1.6c1.3,0.8,1.4-0.8,2.8,0
				c0.2-1.4-1.2,0-1.9-0.7c4,0.3,6-0.7,9-0.3c0.2-0.2-0.5-0.8-0.8-0.7c3.8-0.6,12-1,17.1-2.4c-4.4,0.1-8.5,1-13.1,0.8
				c4.5-0.5,9.8-2.7,14.5-0.3c5.3-0.7,13.6-0.5,19.8-2.4c-1.2,0.2-0.5,1.5,0.3,0.6c0.6,0.4-0.2,0.4-0.4,0.8c1.3,0.8,4.4-0.1,5.6,1
				c-1.5,0.8-5,1.7-6.2,0.3c-0.8,0.2-1.5,0.8-2.2,1.2c-18.1,0.6-35.4,2.6-52.2,5.7c-1.7-0.5-2.5-0.2-3.2-1.6
				C714.3,438.2,715.8,439.4,720.2,436.7z"/>
			<path fill-rule="evenodd" clip-rule="evenodd" fill="#836031" d="M790.7,431.9c-1.4-0.1-2.1,1-3.6,0.7c3.3-3.7,10.4,0.2,14.3-2.3
				c5,1.5,8.7,0,11.6,1.1c-0.7,1.5-2.7,0.5-4.1,0.5c0.2,1.3,2.4,0.1,3.5,0.7c-1.7,1.2-4.4,0.1-6.4,0.7c1.8,1.4,6.1-0.5,8.5,2
				c-6,0.7-14-2.7-19.2-0.3c-0.4-0.1-0.4-0.3-0.3-0.6C798.6,432.6,790,434.2,790.7,431.9z"/>
			<path fill-rule="evenodd" clip-rule="evenodd" fill="#836031" d="M778.5,405c0.5,0.3,0.1,0.5-0.2,0.4c4.5,1.7,13.6-1.4,19.2,0.3
				c0.9,0.2,1.4-0.3,1.7-1.3c4.8,0.6,9.2,0.5,13.1-0.8c0.6,0.5,0.9,1,1.5,1.5c-0.3,0.2-1.9,1.2-0.8,1.7c-15.1,2.8-32.2,0.1-46.6,1.9
				c1.2,1.6,5.5-0.9,6.8,0.9c0.4-0.7-0.2-1.1,0.3-1.8c2.2,1.3,4.6,2.6,6.1,1.1c5.5,2.5,8.3,1.2,12.9,2c-2.3,1.3-5.2,1.2-8.2,1
				c3,1.2-1.4,1-3.3,1.3c1.5,1.6-2.8,1.3-4.8,0.8c3.9-0.6,0.2,0.1,1.9-1.8c-1.7-0.7-2.3,0.7-3.9,0.1c0.3,0.5-0.2,1.2,0.4,1.6
				c0.9,0.2,0-1.7,2-0.8c-0.5,0.3-0.9,0.5-0.4,0.8c-0.7,0.9-2.2,0.3-3.4,0.3c0.2-0.3,0.7-0.3,0.9-0.7c-0.8,0.2-1.9-0.2-2.8,0
				c-0.1,0.7,0.7,0,1.4,0.5c-0.4,0.7-1.3,0.7-2.3,0.2c0.1-1.9,1.8-0.5,2.4-1.6c-3.5,0.3-7.5-0.2-10.8,0.6c2.1,0.7,3.4,1.7,7.4,0.6
				c1.1,1.7-2.5,0.7-3.6,0.7c-0.4,0.5,0.7,1.9,1.2,0.9c-1.7,0.7-7.2,0.1-11.5-0.1c-0.1,0.5,0.7,0.7,1.2,0.9c-3.9,0.2-7.5,0.9-12-0.3
				c0.2-0.7,0.8-0.6,1-1.1c-1.4-0.4-5.1,2.1-3.7,2.1c-2.1-0.8-4.8,0.4-6.4,0.7c-2.4,0.4-5.1-0.2-7.2,0c-5.4,0.4-10,2.2-16.4,2.1
				c0.1,0.9,3.6,2.1,4,0.9c0.6,1.9,2.8,1.4,5.3,1.8c-1.8,1.1-4.3,0.9-6.9,0.5c0.2-0.3,0.7-0.3,0.9-0.7c-2.5-0.8-3.7,1.2-6.5-0.3
				c0.4-0.6-0.1-0.9,0.1-1.4c-6.9-0.6-11.9,2.6-18.4,2.9c-2-5.5,8.4-7,12.1-6c0.1-1.8,3.8-0.6,5.3-2c-0.7-1.8,1.9-2.7-0.6-3.6
				c3.6-0.9,7.6-1.2,11.3-1.9c-0.9,0.5-2,0.7-2.9,1.4c4.5,3.4,10.8-0.8,17,1.5c1.6,0.1-0.8-1,0.3-1.8c6.5,0.1,14.3,0,19.3-1.1
				c0.5-0.1,2.1,0.8,2-0.8c1.5,1.7,2.7-0.4,3.6,1.7c0.6-1.2,1.2,0.2,3.2,0.1c-1-2.4,0.9-1.4,2.6-2c-2.1-0.7-3.3-1.8-5.2-0.8
				c-0.7-0.6,0.1-1.1,0.9-0.7c0.4-0.7-0.2-1.1,0.3-1.8c0.9,0.2,0.8,0.7,0.3,0.6c0,1.5,1.8,0.1,2.9,1c0-0.4-0.1-0.9-0.6-1.2
				c3.4-0.7,9,1.6,12.6-1C776.3,405.9,777.8,406.3,778.5,405z"/>
			<path fill-rule="evenodd" clip-rule="evenodd" fill="#836031" d="M739.9,411.1c-3.7-3.1-10.6,1.5-14.8-0.2c1.2-1,3.2-0.4,4.8-0.8
				c0-0.6-0.2-1.1-1.1-1.3c1.6-0.5,3.2-1.1,5.2-0.6c-0.8,1.4-2.9,0-3.8,1.1c0.8,1.3,6,0.5,5.4-1c2.7,1.1,5.6-1.9,9.3-1.1
				c-0.5,0.8-1.7,0.4-2.2,1.2c4.1-0.1,7.9-0.5,11.9-0.7c0.1-1.4-1.7-0.3-2.4-0.8c0.3-1.5,6.2-0.1,3.4-0.3c-0.2,1.4,1.2,0,1.9,0.7
				c-5.2,3.1-11.1,3.1-17.5,2.2C740.4,409.8,740.3,410.4,739.9,411.1z"/>
			<path fill-rule="evenodd" clip-rule="evenodd" fill="#836031" d="M758.9,404.6c11.1-1,26.1-0.4,36-1.6c5.1-0.6,12.7,0.4,18.4-0.4
				c0.3-1-0.1-1.8,0.8-3.1c-3-1.1-5-1.4-6-0.1c-3.5-1-6.3-0.5-9.3-0.3c0.2,0.6,1.7,0.7,0.9,1.7c-14,0.1-26.6,1.1-39.5,1.9
				c0.3-0.5,1.1-0.6-0.1-1c-7.7,2.9-14.6,2.7-23,0.8c-1.3,0.4-1,1.2-1.7,1.3c0.1-0.6-0.8-0.8-1.1-1.3c-1.3,0.4-1,1.2-1.7,1.3
				c-0.8-1.2-3-0.2-3-2c6.1-2.5,13.6-2.3,19.8-4.8c1,0.3,1.9,0.7,2.9,1c1.3-0.2-0.1-1.2,1-1.1c1.1,0.6,1.4,1.1,2.6,0.4
				c0.5-0.7,6.8-0.6,8.5-0.5c11-2.8,28.6,0.6,40.8-2.4c0.7-5.4-8.2-2.1-11.9-3.1c0.3,0.2,0.9,0.3,0.8,0.7c-5.5-0.3-8.1,0.6-13.9-0.9
				c1.2-1.8-0.7-2.5-0.4-4c-14.8-2.4-27.3,1.7-42.1,1.5c-1.2,1.2,1.4,0.9,0.2,2c-0.4-1.6-3.3-2.1-4.8-1.6c1.2-2.2-2.3-0.7-2.1-2.7
				c-1.2,0.3-2.5,0.3-3.9,0.1c-0.4,1.1,0.3,1.6-0.9,2.1c1,0.7,2.7-1.4,2.8,0c-3.6,0.8-4.2,4.7-1.4,6.8c4.5-1,11.9-0.6,15.9,0.2
				c-4.7,0.4-9.1,1.4-13.3,2.7c0.9,0.2,0.9,0.8,0.4,1.6c-2.2-0.6-5.4,0.9-6.5-0.3c2.1-0.1,4-0.4,5.9-0.9c-8.2,0.4-16.8,0.2-23.6,3.5
				c1.2,1.3,5.3,0.7,5-1.2c2,0.5,3.9-1,4.5,1.1c1.5-2.9,5-1.5,7.6-2.2c-0.1,1.7,2.1,1.3,1,2.8c2.1,1.3,4.7-2.1,5.2,0.8
				c-7.5,1.1-15.2,2.2-22.3,0.5c2,0.8-2,1.4-3.4,0.3c-0.8,4-10.3,0.8-10.7,5.5c3.5-3.3,10.4,0.3,14.3-2.3c-1-0.9-2.5,1.2-2.6-0.4
				c7.4,0.3,17.8,0.4,24.4-0.3c0.3-0.6,0.2-1,0.1-1.4c4.8,1.2,13.2,1.4,16.3-0.7C747.5,406.1,755.9,404.8,758.9,404.6z M779,391.7
				c-3.8,0.9-12.1-0.2-12.7,0c-0.6,1-0.6-0.9-1.9-0.7C768.6,390.3,775,390.1,779,391.7z"/>
			<path fill-rule="evenodd" clip-rule="evenodd" fill="#836031" d="M778.9,377.1c1-0.8-3.4,2.6-0.8,1.7c-3.1,1.1-11.8-0.2-18.2,0
				c-3.1,0.1-6.9,0-10.4-0.2c8.4,1.3-0.9,1.2-5.1,1.6c4.3,1.4,10.3-0.5,15.7,0.6c-3.2,1.4-7.4,1.8-11.8,1.7
				c-7.1-0.1-15.5,0-21.9-1.7c2.7-2.2,7.3-0.8,10.7-1.6c0.2-1.4-1.2,0-1.9-0.7c2.8-0.6,5.5,1.5,7.1-1c1.7,0.6,3.9,0.3,7.4,0.6
				c-1.6-1.6,5.1-2.4,6.4-0.7c0.5-1.2,3.7-1.6,6.1-1.3c-0.5-1.5-2.8,0.3-4.2-0.5C764.8,375.5,772,375.7,778.9,377.1z"/>
			<path fill-rule="evenodd" clip-rule="evenodd" fill="#836031" d="M736.5,463.1c-1.9,1.2-10.3,3.1-13.3,2.7
				c0.5-1.3,2.3-0.1,3.1-0.9c-2.3-1.3,2.9-1.4,4.7-1.8c0.5,0.2,0.1,0.6,0.1,1C732.7,463.4,734.9,463.8,736.5,463.1z"/>
			<path fill-rule="evenodd" clip-rule="evenodd" fill="#836031" d="M725.4,409c-0.6-2-2.1,1-2.9,1.4c-0.6-0.2-1.3-0.4-1.9-0.7
				c1.3-1.6,3.5-1.5,5.3-2c0.6,1.1,0,0.9,1.7,1.1c-0.9,0.4-3.5,1.4-3.6,0.7C724.2,408.7,724.8,408.9,725.4,409z"/>
		</g>
	</g>
	<path fill="#F2B964" d="M400,335.3c0,0,26.5,14.8,84-72c41-61.9,34.6-130.8,27.5-165.1c-2.6-12.8-14-22-27.1-22h-24.8
		c-12.8,0-23.9,8.8-26.9,21.2c-11.6,47.9-44.9,64.5-44.9,64.5"/>
	<path fill="#FFCE79" d="M387.7,161.8l-206.5,84.9c0,0-18.3,28.1-35.9,68.1l0,0h0c-13.6,30.9-26.8,68.9-30.8,106.5
		c-1.4,13.5,7.6,25.5,19.8,26.1l48.5,2.5c6.8,0.4,13.3-3,17.5-9l64.1-92.3L400,335.3"/>
	<path fill="#75B191" d="M145.3,314.8l111.9,41.8h164.6c0,0,6.8-9,15.9-21.6c16.2-22.4,39.9-56.3,46.3-71.8l-89.7-105.6L159.4,276.1
		L145.3,314.8z"/>
	<polygon fill="#75B191" points="442.2,311.7 442.2,356.6 413.6,356.6 	"/>
	<path fill="#75B191" d="M406.9,395.4"/>
	<linearGradient id="SVGID_1_" gradientUnits="userSpaceOnUse" x1="406.9064" y1="395.3648" x2="406.9064" y2="395.3648">
		<stop  offset="0" style="stop-color:#C7C8CA"/>
		<stop  offset="1" style="stop-color:#BCBEC0"/>
	</linearGradient>
	<path fill="url(#SVGID_1_)" d="M406.9,395.4"/>
	<path fill="#74592E" d="M393.2,400.5l0.7-14.2l31.8-13.3c0,0,5.4,22.9,27,25.7C452.7,398.7,404.8,406.8,393.2,400.5z"/>
	<g>
		<path fill="#EDA939" d="M390.9,263.5c0,0,70.6,12.2,44.4-55.8l-18.8-5L390.9,263.5z"/>
		<path fill="#EDA939" d="M186.9,96.6c0,0,4.2-43.9,48.3-32.9c5.5,1.4,11.3,0.2,15.4-3.7c8.6-8,25.7-18.8,45.8-4.3
			c4.3,3.1,9.9,4.2,15,2.5c21.2-6.8,28.3,2.4,40.1,20c0,0,22.9-1.9,23-2c37.9-3.2,59.3,34.9,48.3,69c-1.8,5.6,1.6,11.7,7.4,12.8
			c9.9,1.9,23,7.2,24.4,22.5c2.4,24.9-21,28.2-21,28.2l-248.2-97.5L186.9,96.6z"/>
		<path fill="#EDA939" d="M159.6,129.1c0,0-44.8,17.5-38.5,57.9c3.6,23.1,18.5,33.1,30.7,37.5c7.7,2.8,11.6,11.3,8.3,18.9
			c-3.3,7.8-6.3,17.7-5.6,27.2c0.9,13,4.7,26.1,13.8,35.7c8.3,8.8,19.4,13.6,31.3,14.5c10.8,0.8,27.1-6.6,33.3,6.1
			c5.6,11.6,18.9,28.3,47,21.5c0,0,17.4-3.7,23.9-20.6c1.3-3.3,5.4-4.3,7.8-1.7c4.9,5.2,13.2,10.8,25.5,10
			c18.7-1.2,24.5-16.4,26.3-25.6c0.6-3,3.9-4.7,6.6-3.4c8.4,3.9,24.2,7.6,37.8-10.8c19.1-26.1-14.4-58.3-14.4-58.3L159.6,129.1z"/>
		<path fill="#F2B964" d="M296.1,76c-4-0.6,1-19.8,1.9-21.4c5.9-11.5,20.8-18.5,33.3-14c16,5.7,20.7,28,16.7,42.7
			C348,83.1,296.3,76,296.1,76z"/>
		<path fill="#FFCE79" d="M418,165.2c-3.1-8.2-7.9-15.5-13.1-22.6c-4.1-5.4-8.4-10.7-12.5-16.1c-10.7-14.1-22.4-32.8-36.7-43.3
			c-19.3-14.2-44.3-16.9-67.6-15.8c-25.9,1.2-48.7,12-69.8,27.5c-0.9,0.7-9.9,8.4-10,8.3c-11.6-8.3-28.9-5.3-40.8,2.5
			c-11.8,7.8-17.3,24.4-11.4,37.2c4.4,11.8,16.4,20,25.7,23.6c0.1,0-0.1,0,0,0c-1.6,10.7-1.3,15.3,0.1,26
			c3.8,28,18.1,54.5,39.9,72.5c19.4,16.2,44.2,25.4,69.3,27.6c27.3,2.5,55.6-3.2,79-17.5c23.4-14.3,41.7-37.2,48.9-63.7
			C423.1,196.4,423.5,179.9,418,165.2z"/>
		<path fill="#F2B964" d="M182.3,156.5c6.9,2.7,13.7-8.9,18.5-21.7c4.6-12.3-5.8-25.4-18.8-23.3c-7.2,1.2-14.4,5.3-19.3,14.7
			c0,0,0,0.1-0.1,0.1c-3.6,6.9-1.8,15.4,4,20.6C171.4,151.3,177.2,154.5,182.3,156.5z"/>
		<circle fill="#F0AB4B" cx="299.2" cy="176.3" r="11.6"/>
		<circle fill="#F0AB4B" cx="368.8" cy="145" r="11.2"/>
		<path fill="#F1B55B" d="M326.8,176L309,160.5l0,0c-4.7-3.5-4.3-10.7,0.8-13.6l20.3-11.8c2.5-1.5,5.6-1.5,8.1,0
			c8,4.5,22.4,15.9,26.3,23.4"/>
		<circle fill="#E87D4C" cx="261.3" cy="219.8" r="27.8"/>
		<circle fill="#E87D4C" cx="393.7" cy="157.5" r="15.4"/>
		<path fill="#EA8C38" d="M328.7,168.8c7.3-4.1,17.7-9.1,29.6-12.9c4.3-1.3,8.1,2.9,6.4,7l-8.6,20l-25.7-4.5
			C325.6,177.7,324.4,171.2,328.7,168.8z"/>
		<path fill="#F1B55B" d="M285.2,137.8c-5.8,3.4-12.2,9.6-9.9,19.7c0.6,2.7,4.5,2.9,5.8,0.4l8.4-16.4
			C290.8,138.9,287.8,136.3,285.2,137.8z"/>
		<path fill="#F1B55B" d="M332.5,110.4c6.5-1.7,15.4-2,21,6.7c1.5,2.3-1,5.2-3.7,4.4l-17.6-5.4C329.3,115.1,329.6,111.2,332.5,110.4
			z"/>
		<path fill="none" stroke="#48484A" stroke-width="3" stroke-linecap="round" stroke-linejoin="round" stroke-miterlimit="10" d="
			M293.2,175.3c0,0,4.5-1.5,9.4-1.8c1.9-0.1,2.3,1.8,0.5,2.6c-3.2,1.4-6.9,3.4-8.1,5.7"/>
		<path fill="none" stroke="#48484A" stroke-width="3" stroke-linecap="round" stroke-linejoin="round" stroke-miterlimit="10" d="
			M371.8,139.6c0,0-4.2,2.1-8,5.3c-1.5,1.3-0.4,2.9,1.5,2.2c3.3-1.2,7.3-2.3,9.7-1.6"/>
		<path fill="#EA8C38" d="M317.5,206.5c13.3-2.5,43.6-10.7,55.3-27.8c1.7-2.5,5.5-1.8,6.2,1.1c2.2,9.7,2.5,25.8-15.3,35
			c-24.5,12.8-40.4,4-47.8-2.5C313.7,210.5,314.7,207,317.5,206.5z"/>
		
			<line fill="none" stroke="#EA8C38" stroke-width="3" stroke-linecap="round" stroke-linejoin="round" stroke-miterlimit="10" x1="354.1" y1="175.5" x2="358.5" y2="192"/>
		<path fill="#FFFFFF" d="M329.6,205.8c7.1-1.2,28.9-5.9,43.3-21.8c1-1.1,2.8-0.8,3.3,0.6l0.1,0.4c0.2,0.5,0.1,1.1-0.2,1.6
			c-2.2,3.8-13.6,20-46.1,23c-0.9,0.1-1.7-0.5-2-1.3l0,0C327.6,207.2,328.4,206,329.6,205.8z"/>
		<path fill="#FFFFFF" d="M328,208.4l3.9,5.2c1.1,1.5,3.4,1.1,4-0.6l1.9-5.5L328,208.4z"/>
		<path fill="#FFFFFF" d="M371.2,190.6l4.3,3.1c0.7,0.5,1.6,0,1.5-0.8l-0.7-7.9L371.2,190.6z"/>
	</g>
	<g>
		<linearGradient id="SVGID_2_" gradientUnits="userSpaceOnUse" x1="499.5917" y1="307.1729" x2="807.6432" y2="307.1729">
			<stop  offset="0" style="stop-color:#C2C4C6"/>
			<stop  offset="1" style="stop-color:#BCBEC0"/>
		</linearGradient>
		<path fill="url(#SVGID_2_)" d="M576.6,211c0,0-107.6,68.4-68.4,161.4c0,0,27.4,54.7,122.2,21c0,0,118.3,43.8,158.5-11.9
			s12-118.5-50-176.9L576.6,211z"/>
		<g>
			<path fill="#797A7D" d="M630.3,393.2c5.4-4.5,11.2-8.6,17-12.5c2.9-2,5.8-3.8,8.8-5.7l8.9-5.5c3-1.7,6-3.5,9.1-5.3
				c3.1-1.7,6.1-3.4,9.2-5c6.2-3.3,12.5-6.4,19-9l0,0c0.1,0,0.2,0,0.2,0.1c0,0.1,0,0.1-0.1,0.2l-35.9,21.6l-36,21.4
				c-0.1,0-0.2,0-0.2-0.1C630.2,393.4,630.2,393.3,630.3,393.2L630.3,393.2z"/>
		</g>
		<path fill="#F5C15D" d="M517.8,271.2l54.7,26.1c0,0,52.2-30.8,128-3.8l16.4,5.9l67.5-41.9l-50.6-69.3l-187.3,47.6
			C546.4,235.8,527.4,252.5,517.8,271.2z"/>
		<path fill="#F2A959" d="M555,243.6c0,0,7.4,32.5,80.1,34.6s108.1-20.1,128.6-48.9L748,207.7L555,243.6z"/>
		<g>
			<path fill="#797A7D" d="M553.5,307.1c1.4-1.1,2.8-2.1,4.3-3.1c1.5-1,3-1.9,4.5-2.8c3.1-1.8,6.2-3.5,9.4-5.1
				c6.5-3,13.1-5.6,20-7.7c13.7-4.3,27.9-6.6,42.3-7.1c7.2-0.1,14.3-0.1,21.5,0.7l2.7,0.2l2.7,0.4l5.3,0.7c3.5,0.6,7.1,1.2,10.5,2.1
				l5.2,1.2c1.7,0.4,3.4,0.9,5.2,1.4c3.4,0.9,6.8,2,10.2,3.2c0.8,0.3,1.7,0.6,2.5,0.9l2.5,1l5,2c3.3,1.3,6.5,2.9,9.7,4.4l0,0
				c0.1,0,0.1,0.1,0.1,0.2c0,0.1-0.1,0.1-0.2,0.1c-13.1-5.3-26.7-9.3-40.5-12l-2.6-0.5l-2.6-0.4l-5.2-0.8l-5.3-0.6l-2.6-0.3
				l-2.6-0.2c-7-0.6-14.1-0.7-21.1-0.5c-7.1,0.2-14.1,0.9-21.1,1.9c-7,1-13.9,2.5-20.7,4.4c-6.8,1.9-13.5,4.2-20,6.9
				c-6.5,2.8-12.8,5.9-18.7,9.8c-0.1,0-0.2,0-0.2,0C553.5,307.2,553.5,307.1,553.5,307.1z"/>
		</g>
		<g>
			<path fill="#797A7D" d="M700.3,363.3c-0.2-7.2,0.4-14.4,1.4-21.6c0.5-3.6,1.2-7.1,1.9-10.7c0.8-3.5,1.7-7,2.7-10.5
				c1.1-3.5,2.2-6.9,3.6-10.3c1.4-3.4,2.8-6.7,4.6-9.9c1.8-3.2,3.8-6.3,6.1-9.2c2.3-2.8,4.9-5.5,8-7.4l0,0c0.1,0,0.2,0,0.2,0
				c0,0.1,0,0.1,0,0.2c-2.7,2.4-4.9,5.1-6.9,8.1c-2,3-3.7,6.1-5.2,9.3c-3,6.5-5.4,13.2-7.4,20c-2,6.8-3.7,13.8-5.2,20.8
				c-1.4,7-2.6,14.1-3.5,21.1c0,0.1-0.1,0.1-0.2,0.1C700.3,363.4,700.3,363.4,700.3,363.3L700.3,363.3z"/>
		</g>
	</g>
	<g>
		
			<linearGradient id="SVGID_3_" gradientUnits="userSpaceOnUse" x1="515.0861" y1="96.5197" x2="560.6838" y2="230.463" gradientTransform="matrix(0.9936 0.1134 -0.1134 0.9936 151.5786 125.0408)">
			<stop  offset="0" style="stop-color:#C7C8CA"/>
			<stop  offset="3.733511e-002" style="stop-color:#C2C4C6"/>
			<stop  offset="1" style="stop-color:#ABADB0"/>
		</linearGradient>
		<path fill="url(#SVGID_3_)" d="M766.9,169c0.1-4.1-0.1-8.1-0.5-12.2c-1.8-15.9-7.5-32.1-16.1-45.5c-1-1.6-2.2-3.2-3.4-4.8l0,0
			c-2.9-3.7-6.2-7.5-8.9-11.5c-2.3-2.5-4.6-4.8-7.1-7.2l3.4-21.1c1.2-7.4,0.5-15-1.9-22.2l-10-29.4c-0.3-6.3-4.2-11.8-10-14.1
			c-8.1-3.2-17.3,0.6-20.6,8.7c-6.4,15.7-0.6,30.2,4.4,38.7c3,5.1,4.6,10.8,4.7,16.6c-7.6-4.8-12.9-7.6-12.9-7.6
			c-14.8-4.8-25.6-5-25.6-5c-13.2-1.8-26.7-1-40.1,3c-19.8,5.8-38.1,18.1-51.7,33.5c-15.9,18-34.4,35-55.5,46.8
			c-2.2,1.2-4.3,2.7-6.2,4.5c-10.8-2-20.2,7.7-22.2,18.5c-0.9,4.7-0.1,8.5,1.8,11.6c2.5,4.2,4,8.8,4.3,13.7
			c0.5,10.5,3.7,21,9.3,29.9c13.1,21.1,39.6,37,63.1,43.6c15.7,4.4,32.1,6.4,48.4,7.2c15.5,0.8,31.1,0.5,46.6-0.5
			C772.9,257.1,766.9,169,766.9,169z"/>
		<g>
			<path fill="#797A7D" d="M515,135.9c-1,0.8-2,1.6-2.9,2.4c-0.9,0.8-1.8,1.7-2.7,2.6c-0.2,0.2-0.4,0.3-0.6,0.3l-0.2,0
				c-1.8-0.1-3.5,0-5.2,0.5c-1.6,0.5-3.2,1.1-4.6,2.1c-2.8,1.8-5.1,4.5-6.8,7.5c-1.7,2.9-2.7,6.3-3.1,9.6c-0.2,1.6-0.1,3.2,0.3,4.7
				c0.2,0.7,0.4,1.5,0.7,2.2c0.2,0.4,0.3,0.7,0.5,1l0.7,1.3c1.9,3.6,3.3,7.5,3.7,11.6c0.1,0.5,0.1,1,0.1,1.5l0.1,1.4
				c0,0.9,0.1,1.8,0.1,2.7c0.1,1.8,0.3,3.6,0.5,5.4c1,7.2,3.2,14.3,6.3,21.2l0,0c0,0.1,0,0.2-0.1,0.2c-0.1,0-0.1,0-0.2-0.1
				c-4-6.4-6.8-13.5-8.3-20.9c-0.4-1.8-0.7-3.7-0.9-5.6c-0.2-1.9-0.2-3.8-0.5-5.6c-0.5-3.7-1.7-7.3-3.5-10.5c-1-1.6-1.9-3.3-2.3-5.2
				c-0.4-1.9-0.5-3.8-0.3-5.7c0.5-3.8,1.8-7.4,3.8-10.6c0.5-0.8,1.1-1.6,1.6-2.3c0.3-0.4,0.6-0.7,0.9-1.1c0.3-0.4,0.6-0.7,1-1
				c1.3-1.4,2.9-2.5,4.5-3.4c1.6-1,3.5-1.6,5.3-1.9c1.9-0.4,3.8-0.3,5.7,0l-0.1,0c1.9-1.7,4-3.2,6.3-4.5c0.1,0,0.2,0,0.2,0.1
				C515.1,135.8,515.1,135.9,515,135.9L515,135.9z"/>
		</g>
		<g>
			<path fill="#797A7D" d="M518.9,157.1c1.5,1,2.6,2.5,3.4,4.1c0.8,1.7,1.1,3.5,1.1,5.4c0,1.8-0.2,3.7-1,5.4
				c-0.4,0.8-0.9,1.6-1.4,2.3c-0.6,0.7-1.2,1.4-1.9,1.9c-0.1,0-0.1,0-0.2,0c0,0,0-0.1,0-0.1l0,0c0.1-0.9,0.3-1.8,0.6-2.6
				c0.2-0.8,0.4-1.6,0.7-2.4c0.1-0.4,0.2-0.8,0.3-1.2c0.1-0.4,0.3-0.8,0.4-1.1l0.4-1.1l0.2-1.2c0.2-1.6,0.2-3.2-0.3-4.8
				c-0.4-1.6-1.2-3.1-2.4-4.3l0,0c0-0.1,0-0.1,0-0.2C518.8,157.1,518.9,157.1,518.9,157.1z"/>
		</g>
		<path fill="#808285" d="M495.8,169.9c0.1-0.8,0.7-1.6,2-2.3c2.3-1.2,8.3-1.8,8.2,3c-0.1,3.5-1.7,4.6-4.1,4.2
			C499.8,174.3,495.6,172.2,495.8,169.9z"/>
		<circle fill="#9A9FA3" cx="571.7" cy="143.6" r="13.1"/>
		<circle fill="#6B6C6F" cx="570.3" cy="141.5" r="8.3"/>
		<path fill="#FFFFFF" d="M541.1,118.3l-47.4-72.6c-1.8-2.7-6-1.4-5.9,1.8c0.4,20,3.6,63.1,21.5,92.8
			C509.4,140.3,521.2,136.4,541.1,118.3z"/>
		<g>
			<path fill="#797A7D" d="M559.6,177c-1.6,2.1-3,4.3-4,6.6c-1,2.3-1.7,4.7-1.9,7.2c-0.1,0.6-0.1,1.2-0.1,1.8c0,0.6-0.1,1.2,0,1.9
				l0.2,1.9c0.1,0.6,0.3,1.2,0.4,1.8l0.2,0.9l0.3,0.9l0.5,1.9c0.4,1.2,1,2.4,1.3,3.7c-0.9-1-1.7-2.1-2.5-3.2l-1-1.8
				c-0.2-0.3-0.3-0.6-0.5-0.9l-0.3-1c-0.2-0.6-0.5-1.3-0.7-2l-0.4-2.1c-0.2-0.7-0.1-1.4-0.2-2.1c0-0.7,0-1.4,0.1-2.1
				c0.2-2.8,1.2-5.5,2.7-7.8C555.3,180.4,557.3,178.4,559.6,177z"/>
		</g>
		<path fill="none" d="M738.5,95.9c2.8,4,6,7.7,8.9,11.5C744.9,103.5,741.8,99.6,738.5,95.9z"/>
		<polygon fill="#91929D" points="747.4,107.4 747.4,107.4 747.4,107.4 		"/>
		<g>
			<path fill="#797A7D" d="M551.8,194.1c-4.9-0.2-9.6-0.2-14.4,0.2c-4.7,0.4-9.3,1.3-13.7,2.8c-4.4,1.5-8.6,3.7-12.3,6.5
				c-3.7,2.9-7.1,6.3-9.7,10.3c1.5-4.7,4.5-8.8,8.2-12.1c1.8-1.7,3.9-3.1,6-4.4c2.2-1.2,4.5-2.3,6.8-3.1c2.4-0.8,4.8-1.4,7.2-1.8
				c1.2-0.2,2.5-0.3,3.7-0.4c0.6,0,1.2-0.1,1.8-0.1l1.8,0C542.3,192,547.2,192.7,551.8,194.1z"/>
		</g>
		
			<linearGradient id="SVGID_4_" gradientUnits="userSpaceOnUse" x1="901.4362" y1="77.253" x2="901.4362" y2="94.7294" gradientTransform="matrix(1.1039 -0.3058 0.2669 0.9637 -449.5698 318.8082)">
			<stop  offset="0" style="stop-color:#C7C8CA"/>
			<stop  offset="1" style="stop-color:#B1B3B6"/>
		</linearGradient>
		<path fill="url(#SVGID_4_)" d="M581.3,134l-19.7,5.5c-5.4,1.5-11.1-1.7-12.6-7.2v0c-1.5-5.4,1.7-11.1,7.2-12.6l19.7-5.5
			c5.4-1.5,11.1,1.7,12.6,7.2v0C590,126.8,586.7,132.5,581.3,134z"/>
		<g>
			<path fill="#797A7D" d="M552.1,122.5c-0.4,2.1-0.8,3.9-1,5.6c-0.2,1.7,0,3.2,0.4,4.4c0.5,1.2,1.4,2.3,2.7,3.5
				c1.3,1.1,2.9,2.1,4.6,3.4l0,0c0.1,0,0.1,0.1,0,0.2c0,0-0.1,0.1-0.1,0c-1.9-0.4-3.8-1-5.5-2c-1.7-1-3.3-2.4-4-4.2
				c-0.8-1.9-0.6-4,0-5.9c0.6-1.9,1.5-3.6,2.7-5.2c0-0.1,0.1-0.1,0.2,0C552.1,122.4,552.1,122.4,552.1,122.5L552.1,122.5z"/>
		</g>
		<g>
			<path fill="#797A7D" d="M512.6,227.3c2.9,3.2,6.2,5.9,9.8,8.3c0.8,0.6,1.7,1.2,2.6,1.8l2.7,1.7c1.9,1,3.6,2.2,5.5,3.2
				c7.5,4,15.3,7.4,23.4,10.1c8,3,16.3,5,24.6,7.3c2.1,0.5,4.2,0.9,6.3,1.4c2.1,0.5,4.2,1,6.3,1.5c4.2,0.9,8.5,1.7,12.7,2.8l0,0
				c0.1,0,0.1,0.1,0.1,0.2c0,0.1-0.1,0.1-0.2,0.1l-12.9-1.5c-4.3-0.7-8.6-1.4-12.8-2.1l-6.4-1.4c-2.1-0.5-4.3-0.9-6.3-1.5l-6.3-1.8
				l-1.6-0.4l-1.5-0.5l-3.1-1.1c-4.1-1.3-8.1-3.1-12.1-4.8l-5.8-2.9c-1.9-1-3.8-2.1-5.7-3.2c-1.9-1.1-3.6-2.4-5.5-3.5l-2.6-2
				c-0.9-0.6-1.7-1.3-2.6-2c-3.4-2.8-6.5-5.8-9-9.4c0-0.1,0-0.2,0-0.2C512.4,227.2,512.5,227.2,512.6,227.3L512.6,227.3z"/>
		</g>
	</g>
</g>
<g>
</g>
<g>
</g>
<g>
</g>
<g>
</g>
<g>
</g>
<g>
</g>
<g>
</g>
<g>
</g>
<g>
</g>
<g>
</g>
<g>
</g>
<g>
</g>
<g>
</g>
<g>
</g>
<g>
</g>
</svg>
