<?xml version="1.0" encoding="utf-8"?>
<!-- Generator: Adobe Illustrator 18.0.0, SVG Export Plug-In . SVG Version: 6.00 Build 0)  -->
<!DOCTYPE svg PUBLIC "-//W3C//DTD SVG 1.1//EN" "http://www.w3.org/Graphics/SVG/1.1/DTD/svg11.dtd">
<svg version="1.1" id="Layer_1" xmlns="http://www.w3.org/2000/svg" xmlns:xlink="http://www.w3.org/1999/xlink" x="0px" y="0px"
	 viewBox="0 0 255.5 186" enable-background="new 0 0 255.5 186" xml:space="preserve">
<g>
	<path fill="#FFFFFF" d="M190.3,139.8h-125C29.3,139.8,0,110.5,0,74.6v-9.4C0,29.3,29.3,0,65.2,0h125c35.9,0,65.2,29.3,65.2,65.2
		v9.4C255.5,110.5,226.1,139.8,190.3,139.8z"/>
	<g>
		<g>
			<path fill="#EA8C38" d="M61.4,55.5c0.3-0.8,0.5-1.7,0.6-2.5H51.1v10.3c-0.1,7.5-1.3,13.6-3.6,18.1l-2.8-2.6
				c1.7-3.7,2.6-9,2.6-15.6v-14h29.9V53H65.8c-0.2,0.9-0.4,1.7-0.6,2.5h9.6V70h-8V78c0,2.3-1.2,3.5-3.6,3.5h-3.6l-0.8-3.7
				c1.1,0.1,2.2,0.3,3.2,0.3c0.7,0,1.1-0.3,1.1-1v-7h-8.9V55.5H61.4z M59.7,72.5c-1.6,3.1-3.4,5.8-5.6,8L51,78.4
				c2.1-2.1,3.9-4.6,5.4-7.5L59.7,72.5z M71.1,61.2v-2.2H57.8v2.2H71.1z M71.1,64.3H57.8v2.3h13.3V64.3z M77.7,78.5l-3.1,2.1
				c-1.3-2.4-3.1-5-5.4-7.9l3.1-1.9C74.6,73.8,76.4,76.4,77.7,78.5z"/>
			<path fill="#EA8C38" d="M97.4,55.4H84.6v-3.6h12.8v-3.4h3.8v3.4H114v3.6h-12.9v9.4c3.6,4.9,8.6,8.7,14.8,11.6l-2.1,3.5
				c-4.9-2.4-9.1-5.7-12.7-9.7v11.3h-3.8V70.2c-3.3,3.9-7.5,7.2-12.6,9.8l-2-3.4c6.3-3,11.1-6.9,14.6-11.6V55.4z M86.2,68.5
				l-2.3-2.8c2.9-2.4,4.8-5.5,5.8-9.6l3.5,0.6c-0.4,1.7-1,3.3-1.6,4.8c1.6,0.8,3,1.7,4.4,2.8l-2,3.1c-1.3-1.2-2.7-2.2-4-3
				C88.8,66,87.6,67.4,86.2,68.5z M105.2,67.5l-2.3-3c2.3-2.1,3.9-4.9,4.8-8.4l3.5,0.6c-0.4,1.6-0.8,3.1-1.4,4.4
				c1.8,1,3.5,2.1,5,3.4l-2.1,3.2c-1.5-1.4-3.1-2.7-4.6-3.6C107.2,65.4,106.3,66.6,105.2,67.5z"/>
			<path fill="#EA8C38" d="M130.2,48.3c-0.4,2.1-0.7,4.1-1,5.9h7.3v2.1c-0.3,5.8-1.5,10.8-3.9,15c1.9,1.4,3.5,2.7,4.8,3.9l-2.6,3.1
				c-1.2-1.2-2.6-2.4-4.2-3.8c-1.9,2.6-4.2,4.9-7.1,6.8l-2.5-3.1c2.7-1.7,4.9-3.7,6.7-5.9c-1.8-1.4-3.8-2.9-6-4.4
				c1-3.1,2-6.4,2.8-9.9h-3.7v-3.7h4.5c0.4-2.1,0.8-4.1,1.1-6.3L130.2,48.3z M133,58h-4.5c-0.8,3.5-1.6,6.4-2.5,8.8
				c1.4,0.9,2.6,1.7,3.8,2.6C131.6,66,132.6,62.2,133,58z M151.7,79.9h-3.6v-2.2h-5.8v2.2h-3.7V51h13.1V79.9z M148.1,74.1V54.7h-5.8
				v19.4H148.1z"/>
			<path fill="#EA8C38" d="M171.3,48.6v10.8h5V63h-5v11.1c1.9-0.5,3.6-1,5.3-1.5v3.7c-5.3,1.7-11.2,3.1-17.9,4.2l-0.5-3.8
				c0.8-0.1,1.6-0.3,2.4-0.4V55.3h3.7v20.4c1.2-0.3,2.2-0.5,3.3-0.7V48.6H171.3z M181.6,80.4c-2.7,0-4.1-1.5-4.1-4.5V48.2h3.7v11.4
				l8.9-0.6v3.6l-8.9,0.6v11.9c0,1.2,0.5,1.7,1.5,1.7h3.4c0.5,0,0.9-0.3,1.1-1c0.3-0.7,0.4-2.8,0.5-6.4l3.6,1.2
				c-0.3,4.8-0.8,7.6-1.5,8.5c-0.6,0.9-1.6,1.3-3,1.3H181.6z"/>
			<path fill="#EA8C38" d="M214.7,73.1c0.5,0.5,0.8,1.2,0.8,1.9s-0.3,1.5-0.8,2c-0.6,0.5-1.2,0.8-2,0.8c-0.8,0-1.4-0.3-1.9-0.8
				c-0.6-0.5-0.8-1.2-0.8-1.9s0.3-1.4,0.8-1.9c0.5-0.5,1.2-0.8,1.9-0.8C213.5,72.3,214.1,72.6,214.7,73.1z M215.1,52.1l-0.9,18.3
				h-3.1l-0.9-18.3H215.1z"/>
		</g>
	</g>
	<path fill="#EA8C38" d="M32.8,93.5c59.4,3.5,118.9,4.5,178.4,2.8c0,0,0-2.2,0-2.3c-59.5,1.7-119,0.8-178.4-2.8
		C32.8,91.3,32.7,93.5,32.8,93.5L32.8,93.5z"/>
	<path fill="#FFFFFF" d="M105.8,140.3c0,0-26.3,39.3-67.2,45.6c0,0,18.8-18.9,11.5-55.8L105.8,140.3z"/>
</g>
<g>
</g>
<g>
</g>
<g>
</g>
<g>
</g>
<g>
</g>
<g>
</g>
<g>
</g>
<g>
</g>
<g>
</g>
<g>
</g>
<g>
</g>
<g>
</g>
<g>
</g>
<g>
</g>
<g>
</g>
</svg>
