<?xml version="1.0" encoding="utf-8"?>
<!-- Generator: Adobe Illustrator 18.0.0, SVG Export Plug-In . SVG Version: 6.00 Build 0)  -->
<!DOCTYPE svg PUBLIC "-//W3C//DTD SVG 1.1//EN" "http://www.w3.org/Graphics/SVG/1.1/DTD/svg11.dtd">
<svg version="1.1" id="Layer_1" xmlns="http://www.w3.org/2000/svg" xmlns:xlink="http://www.w3.org/1999/xlink" x="0px" y="0px"
	 viewBox="0 0 423.3 263.6" enable-background="new 0 0 423.3 263.6" xml:space="preserve">
<g>
	<path fill="#FFFFFF" d="M335.7,235.8h-248C39.2,235.8,0,196.5,0,148.1l0-60.5C0,39.2,39.2,0,87.6,0l248,0
		c48.4,0,87.6,39.2,87.6,87.6v60.5C423.3,196.5,384,235.8,335.7,235.8z"/>
	<g>
		<path fill="#616264" d="M59.6,52.4l-2.2-1.9c1.3-1.4,2.3-3.2,3-5.5l-1.5,0.1L58,42.7c0.5-0.2,1-0.4,1.3-0.7c1.1-1.9,2-3.7,2.6-5.4
			l2.8,0.8c-0.9,2-1.8,3.7-2.9,5c1.7-0.2,3.5-0.5,5.4-0.9c-0.4-0.8-0.9-1.5-1.4-2.2l2.2-1.4c1.7,2.4,2.9,4.5,3.8,6.4L69.6,46
			c-0.4-0.7-0.7-1.4-1.1-2.1c-2.2,0.5-4.8,0.8-7.6,1.1l2.1,0.8c-0.1,0.5-0.3,0.9-0.4,1.3h8.1v2.7h-4.2c-0.1,1.2-0.1,2.2-0.3,3.3h5.3
			v2.7h-5.9c-0.1,0.1-0.1,0.2-0.1,0.3c1.7,1.2,3.4,2.5,5,3.9l-1.8,2.7c-1.7-1.8-3.2-3.2-4.3-4.1c-1.2,2.2-2.9,3.9-5.1,5.1l-1.7-2.3
			c2.4-1.2,4.2-3.1,5.2-5.6h-4.5v-2.7h5.3c0.2-1,0.3-2.1,0.3-3.2v0h-2.4C60.8,50.8,60.2,51.7,59.6,52.4z M78.6,50.7
			c-0.1,0.3-0.1,0.6-0.1,0.8c1,4.2,3.1,7.5,6.2,9.8l-1.8,2.4c-2.5-2-4.3-4.7-5.4-7.9c-1.2,3.1-3.1,5.9-5.8,8.1l-1.6-2.5
			c3.8-3,5.8-7.3,5.9-12.8c0-1.3,0-2.2,0-2.9h2.8C78.7,47.7,78.7,49.3,78.6,50.7z M73.2,49.6l-2.4-1.7c1.5-2.7,2.5-6.4,3-11.1
			l2.8,0.5c-0.2,1.4-0.4,2.7-0.5,3.8H84v1.8c-0.4,2.5-0.9,5-1.5,7.5l-2.9-0.8c0.6-1.6,1-3.6,1.5-5.8h-5.5
			C74.9,46.2,74.2,48.1,73.2,49.6z"/>
		<path fill="#616264" d="M90.2,52.4L88,50.5c1.3-1.4,2.3-3.2,3-5.5l-1.5,0.1l-0.8-2.4c0.5-0.2,1-0.4,1.3-0.7c1.1-1.9,2-3.7,2.6-5.4
			l2.8,0.8c-0.9,2-1.8,3.7-2.9,5c1.7-0.2,3.5-0.5,5.4-0.9c-0.4-0.8-0.9-1.5-1.4-2.2l2.2-1.4c1.7,2.4,2.9,4.5,3.8,6.4l-2.4,1.6
			c-0.4-0.7-0.7-1.4-1.1-2.1c-2.2,0.5-4.8,0.8-7.6,1.1l2.1,0.8c-0.1,0.5-0.3,0.9-0.4,1.3h8.1v2.7h-4.2c-0.1,1.2-0.1,2.2-0.3,3.3h5.3
			v2.7h-5.9c-0.1,0.1-0.1,0.2-0.1,0.3c1.7,1.2,3.4,2.5,5,3.9l-1.8,2.7c-1.7-1.8-3.2-3.2-4.3-4.1c-1.2,2.2-2.9,3.9-5.1,5.1l-1.7-2.3
			c2.4-1.2,4.2-3.1,5.2-5.6h-4.5v-2.7h5.3c0.2-1,0.3-2.1,0.3-3.2v0H92C91.4,50.8,90.8,51.7,90.2,52.4z M109.2,50.7
			c-0.1,0.3-0.1,0.6-0.1,0.8c1,4.2,3.1,7.5,6.2,9.8l-1.8,2.4c-2.5-2-4.3-4.7-5.4-7.9c-1.2,3.1-3.1,5.9-5.8,8.1l-1.6-2.5
			c3.8-3,5.8-7.3,5.9-12.8c0-1.3,0-2.2,0-2.9h2.8C109.3,47.7,109.3,49.3,109.2,50.7z M103.8,49.6l-2.4-1.7c1.5-2.7,2.5-6.4,3-11.1
			l2.8,0.5c-0.2,1.4-0.4,2.7-0.5,3.8h7.8v1.8c-0.4,2.5-0.9,5-1.5,7.5l-2.9-0.8c0.6-1.6,1-3.6,1.5-5.8h-5.5
			C105.5,46.2,104.8,48.1,103.8,49.6z"/>
		<path fill="#616264" d="M131,47.8c1,0.6,2,1.2,3.1,1.8c1.2,0.6,2.3,1,3.4,1c1.1,0,2.4-1.1,4.1-3.3l2.2,1.8
			c-2.1,2.9-4.1,4.3-6.2,4.3c-1.4,0-2.7-0.3-4-1c-1-0.6-2-1.2-3-1.8c-1.2-0.6-2.3-1-3.4-1c-1.1,0-2.4,1.1-4.1,3.3l-2.2-1.8
			c2-2.9,4.1-4.3,6.2-4.3C128.4,46.8,129.7,47.2,131,47.8z"/>
		<path fill="#616264" d="M160.4,36.8v21.4c0.7-0.2,1.3-0.3,1.9-0.5v2.9c-3.8,1-7.8,1.9-12.1,2.6l-0.7-2.9c2.7-0.3,5.3-0.8,7.8-1.3
			V47.4h-7.1v-2.9h7.1v-7.8H160.4z M168.1,62.7c-2.3,0-3.4-1.1-3.4-3.2V36.8h3.1v7.9l7.7-0.5v2.9l-7.7,0.6v11.4c0,0.5,0.3,0.8,1,0.8
			h2.5c0.7,0,1.2-0.2,1.5-0.6c0.3-0.4,0.5-1.8,0.6-4.2l2.8,0.9c-0.2,3.1-0.6,5.1-1.2,5.7c-0.6,0.6-1.7,1-3.2,1H168.1z"/>
		<path fill="#616264" d="M205.8,37.6v2.8h-2.9v8.9h3.6v2.8h-3.5v8.3c0,2.1-1.1,3.1-3.3,3.1h-3.4l-0.7-2.8c1.1,0.1,2.1,0.2,3.1,0.2
			c0.8,0,1.3-0.4,1.3-1.3v-7.5h-19.4v-2.8h19.4v-8.9h-18.3v-2.8H205.8z M196.2,53.5v6.7h-11.9v-6.7H196.2z M196.1,41.7v6.3h-11.6
			v-6.3H196.1z M193.3,55.7h-6.2v2.2h6.2V55.7z M193.3,43.8h-6v2h6V43.8z"/>
		<path fill="#616264" d="M226.6,49.3c0,2.9-1.3,5-4,6.4l-1-1.7c1.7-1.1,2.7-2.4,2.9-4.1c-0.2,0-0.4,0.1-0.6,0.1
			c-0.6,0-1.2-0.2-1.6-0.6c-0.4-0.4-0.6-0.9-0.6-1.5c0-0.7,0.2-1.2,0.6-1.6c0.4-0.4,1-0.6,1.6-0.6C225.7,45.8,226.6,47,226.6,49.3z"
			/>
		<path fill="#616264" d="M267.7,47.7v2.6h-12.8v13.4h-3v-2.4c-2.3,0.4-5.5,0.7-9.7,1l-0.4-2.6l2.4-0.1v-9.4h-2.4v-2.6H267.7z
			 M264.4,46.6h-3v-6.8h-13.2v6.9h-2.9v-9.1h19.2V46.6z M251.9,51.8v-1.5h-4.8v1.5H251.9z M251.9,55.5v-1.6h-4.8v1.6H251.9z
			 M251.9,59v-1.3h-4.8v1.8C248.9,59.3,250.5,59.1,251.9,59z M260.6,44.3v2H249v-2H260.6z M260.5,41.2v2h-11.4v-2H260.5z M255.9,54
			v-2.5h10.3v2.4c-0.5,2-1.3,3.7-2.6,5.2c1.2,0.8,2.6,1.6,4.2,2.2l-1.5,2.5c-1.8-0.9-3.4-1.8-4.6-2.8c-1.4,1.1-3.1,2-5,2.8l-1.5-2.4
			c1.7-0.7,3.3-1.5,4.5-2.4c-1.3-1.5-2.2-3.2-2.7-5.1H255.9z M263.4,54h-4c0.4,1.2,1.1,2.3,2,3.3C262.4,56.3,263,55.1,263.4,54z"/>
		<path fill="#616264" d="M279.7,43.7v2.4c-0.9,1.5-1.9,2.9-3.1,4.3h3.5v2c-0.4,2.1-1,3.9-1.6,5.3l0.4,0.4c0.9,0.8,1.7,1.4,2.4,1.8
			c0.8,0.3,1.9,0.5,3.3,0.6c1.5,0,3.1,0.1,5,0.1c2.3,0,5.4-0.1,9.1-0.3l-0.7,3h-8c-1.9,0-3.7-0.1-5.5-0.1c-1.9-0.1-3.2-0.3-4.2-0.7
			c-1.1-0.5-2.2-1.2-3.1-2.2c-0.2-0.2-0.4-0.3-0.6-0.3c-0.5,0-1.4,1.3-2.7,3.8l-2.2-2c1.3-2.6,2.6-4.1,3.9-4.6
			c0.6-1.3,1-2.6,1.4-4.1h-4.1v-2.3c1.3-1.5,2.4-2.9,3.3-4.2h-4.1v-2.7H279.7z M279.4,40.9l-2,2c-1-1.3-2.4-2.7-4.3-4.2l2-2
			C276.8,38.2,278.2,39.5,279.4,40.9z M285.7,47.4c-0.3,4.6-1.4,8.3-3.2,11.1l-2.1-2.2c1.6-2.5,2.4-5.9,2.6-10.3v-7.8
			c4.6-0.1,8.7-0.6,12.2-1.5l1.5,2.6c-3.3,0.8-6.9,1.3-10.9,1.5v3.7h12.1v2.9h-4.5v11.9h-2.9V47.4H285.7z"/>
		<path fill="#616264" d="M309.5,48.1l-2.2,2.2c-1.1-1.3-2.8-2.7-4.9-4.2l2.2-2.1C306.5,45.4,308.1,46.7,309.5,48.1z M309.6,52.9
			c-1.2,3.7-2.5,7.2-4,10.5l-2.8-1.3c1.6-3.4,3-6.8,4.2-10.3L309.6,52.9z M310.3,41.1l-2.2,2.2c-1.2-1.3-2.8-2.7-4.9-4.2l2.2-2.1
			C307.3,38.4,308.9,39.7,310.3,41.1z M317.8,54.9c0.2-0.6,0.3-1.2,0.4-1.8h2.9c-0.1,0.6-0.2,1.3-0.4,1.8h8.6v2.6h-9.5
			c-0.5,1-1.1,1.8-1.8,2.6c-1.5,1.5-4.2,2.8-8,3.7l-1.2-2.7c3.2-0.6,5.5-1.6,6.9-2.8c0.3-0.2,0.5-0.5,0.7-0.7h-6.8v-2.6H317.8z
			 M321,36.8c-0.2,0.6-0.4,1.3-0.7,1.8h8.1v12.9c0,1.5-0.9,2.3-2.6,2.3h-1.4l-0.6-2.3l1.2,0.1c0.3,0,0.5-0.2,0.5-0.7v-9.8h-12v12.7
			h-2.9V38.6h6.6c0.4-0.7,0.6-1.5,0.8-2.2L321,36.8z M324.7,43.3c-1.1,0.3-2.4,0.6-3.9,0.7v2.5h0.5c0.5-0.8,0.9-1.6,1.3-2.4l2,0.8
			c-0.3,0.6-0.6,1.1-1,1.6h1.3v2.1h-3.9c1.2,0.5,2.4,1.1,3.7,1.7l-1.3,2c-0.9-0.8-1.7-1.5-2.4-2v2.2h-2.4v-2.3c-1,1-2,1.9-3.2,2.7
			l-1.3-2.2c1.5-0.6,2.8-1.3,3.9-2.1h-3.7v-2.1h1.5c-0.2-0.5-0.5-0.9-0.7-1.3l1.9-0.8c0.3,0.6,0.6,1.3,0.9,2h0.7v-2.3
			c-1.1,0.1-2.2,0.1-3.4,0.1l-0.7-2.1c3.7,0,6.8-0.3,9.3-0.9L324.7,43.3z M329.7,61.4l-1.6,2.5c-2.7-1.5-5.4-2.7-8.1-3.6l1.4-2.2
			C324.4,59,327.2,60.1,329.7,61.4z"/>
		<path fill="#616264" d="M351.9,61.9l-0.8-2.8l2.2,0.1c0.6,0,1-0.4,1-1.1v-2.3h-6.3v7.8h-3v-7.8h-6.3v5.7h-3v-8.4h9.3v-1.7h-1.4
			l-0.6-2.3l1.3,0.1c0.4,0,0.6-0.3,0.6-0.8v-0.8l-1.8,0.5c-0.2-1.4-0.6-2.8-0.9-4.1l1.6-0.6c0.4,1.2,0.8,2.5,1.1,4V43h-2.9v8.2h-2.3
			V43h-3v8.5h-2.5V40.6h2.4c-0.5-1-1.1-1.9-1.7-2.7l2.2-1c0.6,0.9,1.2,1.8,1.7,2.9l-1.5,0.8h2.4v-3.8h2.5v3.8h2.3l-1.5-0.8
			c0.7-1,1.3-2,1.7-2.9l2.2,1.1c-0.4,0.9-1,1.7-1.6,2.6h2.1v2.8c1.7-1.9,2.9-4.1,3.5-6.6l2.7,0.4c-0.2,0.8-0.4,1.5-0.7,2.2h6.3v2.6
			h-1.1c-0.6,2.1-1.5,3.8-2.5,5.3c1.3,0.9,2.8,1.6,4.4,2.3l-1.4,2.5c-1.8-0.9-3.4-1.8-4.8-2.9c-1.3,1.2-2.9,2-4.7,2.6l-1.4-2.3
			c1.6-0.5,2.9-1.2,4.1-2.1c-0.6-0.6-1.2-1.3-1.7-1.9l1.3-2c0.6,0.8,1.3,1.5,2.1,2.1c0.8-1.1,1.4-2.4,1.9-3.8h-3.6
			c-0.8,1.4-1.7,2.6-2.9,3.8l-1.5-1.9v5.3c0,1.1-0.4,1.9-1.2,2.2h1.9v1.9h9.3v5.7c0,2-1,3.1-3,3.1H351.9z M339.5,44.2
			c-0.1,1.9-0.4,3.6-0.7,5.1l-1.9-0.6c0.4-1.3,0.7-2.9,0.8-4.7L339.5,44.2z"/>
		<path fill="#616264" d="M68.6,106.4h-2.9v-1.5h-4.3v2.3h-2.9V86h2.8c0.5-1.5,0.9-3.1,1.1-4.8l3.1,0.4c-0.3,1.6-0.8,3.1-1.3,4.4
			h4.4V106.4z M65.7,93.9v-5.1h-4.3v5.1H65.7z M65.7,102.1v-5.5h-4.3v5.5H65.7z M83.1,104.9c-0.3,2-1.7,3.1-4.2,3.1
			c-0.6,0-1.6-0.1-3.1-0.2l-0.7-2.8c1.3,0.1,2.4,0.1,3.4,0.1c1,0,1.7-0.6,1.8-1.7c0.2-1.4,0.3-6.2,0.3-14.5h-7.1
			c-0.8,1.7-1.7,3.3-2.8,4.7l-1.8-2.4c1.9-2.7,3.2-6.1,3.9-10.1l3,0.4c-0.3,1.6-0.7,3.1-1.1,4.5h8.9
			C83.6,96.2,83.4,102.5,83.1,104.9z M78.2,99.3l-2.4,1.7c-1.1-1.9-2.5-4.1-4.3-6.4l2.5-1.5C75.7,95.4,77.2,97.5,78.2,99.3z"/>
		<path fill="#616264" d="M93.9,88.8v-2.9c-1.4,0.2-2.8,0.4-4.2,0.5l-0.9-2.8c4.9-0.4,8.7-1.2,11.6-2.3l1.5,2.5
			c-1.6,0.6-3.2,1.1-4.9,1.5v3.5h5.2v2.9H97v0.7c1.8,1.5,3.6,3.1,5.4,4.9l-1.8,2.7c-1.4-1.8-2.7-3.3-3.6-4.4v12.6h-3.1V96.8
			c-1.3,2.3-2.8,4.5-4.7,6.4l-1.4-3.6c2.7-2.3,4.8-5,6.1-7.9v-0.1h-5.3v-2.9H93.9z M107,84v17.8h-3V84H107z M106.4,108l-0.6-2.9
			c1.4,0.1,2.7,0.2,3.9,0.2c0.7,0,1-0.4,1-1.2V81.3h3.1v23.4c0,2.1-1,3.2-3.1,3.2H106.4z"/>
		<path fill="#616264" d="M126.4,84.1c-0.4-0.9-0.7-1.7-1.1-2.5l3.2-0.5c0.4,0.9,0.7,1.9,1,3h5.7c0.4-1,0.8-2,1-3.1l3.2,0.4
			c-0.3,0.9-0.6,1.8-1.1,2.7h5.8v2.8h-10.4v1.7h8.8v2.8h-8.8v1.7h11.3v2.9h-16.5c-0.3,0.8-0.6,1.5-1,2.2h15.7v2.9h-7.8v3.6h9.6v2.9
			h-22.7v-2.9h10V101h-5.7v-1.4c-1.5,2.2-3.6,4-6.1,5.3l-2-2.4c3.3-1.4,5.7-3.6,7-6.6h-6v-2.9h11.2v-1.7h-8.6v-2.8h8.6v-1.7h-10.4
			v-2.8H126.4z"/>
		<path fill="#616264" d="M157.5,82.3c-1.4,3.2-3.9,6.1-7.4,8.7l-0.9-2.9c2.6-2,4.5-4.3,5.7-7.1L157.5,82.3z M158.5,89.8
			c-0.6,1.4-1.5,2.7-2.5,4v14.5h-3V96.9c-0.8,0.7-1.7,1.4-2.6,2.1l-0.9-2.9c2.8-2.2,4.9-4.7,6.3-7.5L158.5,89.8z M162.2,104
			c1.6-0.5,3.2-1,4.9-1.7l0.7,2.7c-2.4,1-5.4,1.9-9,2.8l-0.6-2.6c0.7-0.2,1.1-0.6,1.1-1v-22h14.6v13.2h-11.7V104z M170.9,84.9h-8.7
			v2.4h8.7V84.9z M162.2,92.6h8.7v-2.5h-8.7V92.6z M175.9,97.9c-1.3,1.5-2.9,2.8-4.5,3.7c1.4,1.7,3.1,3,5,4l-1.7,2.5
			c-4.1-2.3-7-5.8-8.9-10.6l2.3-1.3c0.5,1.2,1.1,2.3,1.7,3.3c1.4-0.8,2.8-2,4.1-3.5L175.9,97.9z"/>
		<path fill="#616264" d="M206.1,82.5v3h-9.4c-0.5,1.1-1,2.1-1.7,3.1v1.2c4.6,2.6,8.5,5.4,11.8,8.5l-2.1,2.5
			c-2.6-2.8-5.9-5.4-9.7-7.8v15.2h-3.1V92.9c-2.7,3-6,5.7-9.9,8l-2-2.7c6.3-3.6,10.7-7.8,13.3-12.8h-12.4v-3H206.1z"/>
		<path fill="#616264" d="M212.9,90.7v-1.2c-0.3,0.4-0.6,0.7-0.9,1l-1.6-2.3c1.8-2,3.4-4.3,5-6.9h2c1.6,1.7,3.1,3.6,4.5,5.4
			l-1.6,1.7v2.2H218v2.4h3.4v2.8H218v7.6c1.3-0.3,2.5-0.6,3.7-1v2.8c-3.2,1-6.6,1.8-10.2,2.5l-0.7-3c1.5-0.2,2.9-0.4,4.3-0.7v-8.2
			h-3.5v-2.8h3.5v-2.4H212.9z M214.6,102.6l-2.2,0.6c-0.3-1.9-0.8-3.6-1.3-5.3l2.2-0.7C213.8,98.7,214.2,100.6,214.6,102.6z
			 M219.5,88c-1.1-1.7-2.1-2.9-2.9-3.8c-0.8,1.3-1.6,2.6-2.5,3.8H219.5z M221.7,97.3c-0.3,1.9-0.7,3.6-1.2,5.1l-2.1-0.7
			c0.4-1.3,0.7-3,1-5L221.7,97.3z M224.6,84.4v-2.8h2.9v2.8h3.5v-2.8h3v2.8h2.5v2.7H234V90h3.5v2.8h-16.2V90h3.3v-2.9h-2.4v-2.7
			H224.6z M235.6,108.2h-2.9v-1.1h-6.5v1h-2.9V94.5h12.4V108.2z M232.7,99.4v-2.2h-6.5v2.2H232.7z M232.7,104.4V102h-6.5v2.3H232.7z
			 M231,90v-2.9h-3.5V90H231z"/>
		<path fill="#616264" d="M257.2,93.9c0,2.9-1.3,5-4,6.4l-1-1.7c1.7-1.1,2.7-2.4,2.9-4.1c-0.2,0-0.4,0.1-0.6,0.1
			c-0.6,0-1.2-0.2-1.6-0.6c-0.4-0.4-0.6-0.9-0.6-1.5c0-0.7,0.2-1.2,0.6-1.6c0.4-0.4,1-0.6,1.6-0.6C256.3,90.3,257.2,91.5,257.2,93.9
			z"/>
		<path fill="#616264" d="M285.6,97.6c-1.5,0.5-3.1,1-4.8,1.4v5.9c0,1.9-1,2.9-3.1,2.9h-3.3l-0.7-2.9c1,0.1,2,0.2,2.9,0.2
			c0.7,0,1-0.4,1-1v-4.4c-1.7,0.3-3.4,0.7-5.2,1l-0.4-3.1c2-0.3,3.9-0.6,5.7-1v-5H272v-2.9h5.7V86c-1.4,0.3-2.8,0.5-4.3,0.7
			l-0.6-2.9c4-0.4,7.6-1.3,10.8-2.6l1,2.9c-1.2,0.4-2.4,0.8-3.8,1.2v3.4h6c-0.2-2.2-0.2-4.7-0.2-7.4h3.1c0,2.8,0.1,5.2,0.3,7.4h8.7
			v2.9h-8.5c0.2,1.9,0.4,3.4,0.8,4.7c0.1,0.5,0.2,0.9,0.3,1.3c1.2-1.5,2.2-3.1,3.1-5L297,94c-1.3,2.6-2.8,4.9-4.6,6.9
			c0.3,0.7,0.6,1.3,0.9,1.8c0.8,1.3,1.5,1.9,1.9,1.9c0.3,0,0.6-1.5,1-4.4l2.7,1.4c-0.8,4.2-1.8,6.3-3.3,6.3c-1.3,0-2.6-0.9-4-2.6
			c-0.5-0.7-1-1.4-1.5-2.3c-2,1.6-4.2,2.9-6.6,3.8l-1.7-2.6c2.7-1,5-2.4,7.1-4.2c-0.3-0.9-0.6-1.9-0.9-2.9c-0.4-1.6-0.8-3.4-1-5.5
			h-6.2v4.3c1.7-0.4,3.3-0.9,4.8-1.4V97.6z M298.1,85.4l-2.2,2.2c-1.2-1.3-2.9-2.6-5.1-4.1l2-2C294.8,82.8,296.6,84.1,298.1,85.4z"
			/>
		<path fill="#616264" d="M311.3,82.4c-1.6,3.1-4.3,6-8.1,8.6l-0.9-2.9c2.9-2,5.1-4.3,6.5-6.9L311.3,82.4z M303.3,99l-0.9-2.9
			c2.9-2.2,5-4.7,6.4-7.5l2.6,1.2c-0.6,1.4-1.5,2.7-2.4,3.9v14.5h-2.9V96.8C305.2,97.6,304.3,98.3,303.3,99z M328.7,93.5v2.6h-3.2
			v1.6h3.9v2.7h-3.9v4.8c0,1.9-1,2.8-3,2.8h-3.2l-0.6-2.9c1,0.1,1.9,0.2,2.8,0.2c0.7,0,1-0.3,1-0.9v-4.1h-11.9v-2.7h11.9v-1.6h-10.8
			v-2.6H328.7z M327.1,82.1V92h-14.3v-9.9H327.1z M318.9,104.9l-2.3,1.6c-0.8-1.3-2-2.7-3.5-4.2l2.2-1.6
			C316.9,102.2,318.1,103.6,318.9,104.9z M324.2,85.9v-1.4h-8.5v1.4H324.2z M324.2,88.2h-8.5v1.4h8.5V88.2z"/>
		<path fill="#616264" d="M343.6,107.7c-1.9,0-2.8-0.9-2.8-2.8v-4.1h-1.7c-0.2,1.8-0.5,3.2-1,4.1c-0.7,1.2-1.8,2.3-3.4,3.2l-1.7-2.1
			c1.3-0.7,2.2-1.5,2.7-2.4c0.4-0.7,0.6-1.6,0.8-2.9H334v-2.4h12.6v2.4h-3.1v3.5c0,0.6,0.3,0.8,1,0.8h11.3c0.5,0,0.9-0.1,1.1-0.4
			c0.2-0.2,0.4-0.8,0.5-1.8c-0.4,0.1-0.8,0.2-1.3,0.2h-1.7l-0.7-2.4l1.8,0.1c0.6,0,0.9-0.4,0.9-1.2v-4c-0.7,0.9-1.5,1.7-2.2,2.5
			l-1-2.4c1.2-1,2.3-2.3,3.3-3.7v-7.6h-2.9v-2.4h5.4v18.4c0,0.9-0.3,1.6-0.8,2.1l1.8,0.6c-0.2,2.2-0.6,3.5-1.2,4
			c-0.5,0.4-1.3,0.6-2.4,0.6H343.6z M338.8,83.4v-2.2h2.7v2.2h4.2v2.3h-4.2V87h5v2.3h-1.7v1.7h1.6v2.2h-1.6V95h2.2v2.3h-6.5V95h1.9
			v-1.7h-1.7v-2.2h1.7v-1.7H338v1.7h1.7v2.2H338v1.8c0.7-0.1,1.3-0.3,1.8-0.4v2.2c-1.2,0.4-3.2,0.8-6,1l-0.4-2.3
			c0.7-0.1,1.4-0.1,2-0.1v-2.1h-1.8v-2.2h1.8v-1.7h-1.9V87h5.1v-1.3h-4.6v-2.3H338.8z M350.1,91.6l-1.8,0.8c-0.4-2.1-0.9-4-1.4-5.6
			l1.9-0.6C349.3,87.9,349.7,89.6,350.1,91.6z M347.5,100.9l1.9,0.1c0.6,0,0.9-0.4,0.9-1.2v-2.9c-0.7,0.7-1.4,1.4-2.2,2.1l-1-2.4
			c1.2-0.9,2.2-1.9,3.2-3v-8.9H347v-2.4h5.7v18.5c0,1.8-1,2.7-2.8,2.7h-1.8L347.5,100.9z M356.1,91.1l-1.8,0.8
			c-0.4-2.1-0.9-3.9-1.3-5.5l1.9-0.6C355.3,87.4,355.8,89.2,356.1,91.1z"/>
		<path fill="#616264" d="M57.9,130.5v-2.8h9v2.8h-3v6.5h2.7v2.8h-2.7v6.5c1-0.4,2.1-0.9,3.1-1.4v3c-2.7,1.2-5.7,2.3-8.8,3.2
			l-0.8-2.9c1.2-0.2,2.3-0.5,3.5-0.9v-7.5h-2.8V137h2.8v-6.5H57.9z M73.4,125.8v8.5c-0.1,8.5-1.8,14.7-5.2,18.6l-2.3-2
			c2.4-2.8,3.8-7,4.3-12.4c-1.3-1.4-2.6-2.5-3.8-3.3l1.3-2.4c0.9,0.6,1.8,1.4,2.7,2.3v-9.1H73.4z M74.5,130.3v-2.8H84v2.8h-3.4v7.2
			h2.9v2.8h-2.9v8.7h3.8v2.8h-11V149h4.3v-8.7h-2.9v-2.8h2.9v-7.2H74.5z"/>
		<path fill="#616264" d="M113.9,151.2l-2.6,1.8c-0.4-0.8-0.9-1.6-1.4-2.4c-6.7,0.6-13.1,1-19.1,1.4l-0.5-2.5
			c2.4-1.3,4.8-4.2,7.2-8.9h-9v-3h11.5v-4.5h-9.7v-2.9h9.7v-4.3h3.1v4.3h9.7v2.9h-9.7v4.5h11.5v3H101c-1.8,3.7-3.6,6.6-5.5,8.5
			c5.9-0.4,10.2-0.8,12.8-1c-1.1-1.7-2.3-3.4-3.7-5.2l2.4-1.6C110,145.1,112.3,148.4,113.9,151.2z"/>
		<path fill="#616264" d="M141.9,135.3v13.2h-5.1c2.8,0.5,5.5,1.2,8.1,2l-1,2.5c-3-1.2-6.1-2-9.3-2.7l1-1.8h-6.9l1.2,1.6
			c-2.1,1.2-5.1,2.2-9,3l-1.4-2.4c3.4-0.6,6.1-1.3,8-2.2h-5v-13.2H141.9z M143.5,126.7v7.4h-22.6v-7.4H143.5z M127.5,129.1h-3.7v2.6
			h3.7V129.1z M139,139v-1.4h-13.5v1.4H139z M139,142.5v-1.4h-13.5v1.4H139z M139,144.6h-13.5v1.4H139V144.6z M134.1,129.1h-3.9v2.6
			h3.9V129.1z M140.6,129.1h-3.7v2.6h3.7V129.1z"/>
		<path fill="#616264" d="M176.1,137.5v3h-26.5v-3H176.1z"/>
		<path fill="#616264" d="M206.5,127v3h-12.3v3.6c3.6,1.7,7.1,3.6,10.8,5.8l-1.8,2.7c-3.6-2.3-6.6-4.1-9-5.3v15.9h-3.1V130h-10.8v-3
			H206.5z"/>
		<path fill="#616264" d="M226.6,138.4c0,2.9-1.3,5-4,6.4l-1-1.7c1.7-1.1,2.7-2.4,2.9-4.1c-0.2,0-0.4,0.1-0.6,0.1
			c-0.6,0-1.2-0.2-1.6-0.6c-0.4-0.4-0.6-0.9-0.6-1.5c0-0.7,0.2-1.2,0.6-1.6c0.4-0.4,1-0.6,1.6-0.6
			C225.7,134.9,226.6,136.1,226.6,138.4z"/>
		<path fill="#616264" d="M242,140.5l-1-3.3c3-3.3,5.2-7.2,6.7-11.6l2.8,1.3c-0.8,2.3-1.7,4.4-3,6.5v19.4h-3v-15
			C243.7,138.7,242.9,139.6,242,140.5z M251.1,137.8l-2.6-1.6c2.2-3.2,3.7-6.7,4.5-10.3l2.9,0.6c-0.2,0.9-0.5,1.7-0.8,2.6h12.2v2
			c-0.4,1.7-1,3.5-1.7,5.2l-2.9-0.8c0.6-1,1-2.1,1.5-3.4H254C253.1,134.1,252.2,136,251.1,137.8z M255.2,138.5
			c-1,4-2.3,7.5-3.9,10.5l-2.9-1c1.5-2.7,2.9-6.1,4-10.2L255.2,138.5z M253.6,152.6l-0.7-2.9c1.2,0.1,2.3,0.2,3.4,0.2
			c0.7,0,1-0.4,1-1.1V134h2.9v15.6c0,2-1,3-3,3H253.6z M268,148.3l-2.7,1.2c-1-4.2-2.2-7.9-3.6-11.2l2.7-0.9
			C265.8,140.8,267,144.4,268,148.3z"/>
		<path fill="#616264" d="M275.7,136.8l-2.9-1.8c2.1-2.7,3.6-5.6,4.5-8.7l3.1,0.6c-0.3,1-0.6,2-1,2.9h4.7v-4h3.1v4h9.3v2.9h-9.3v4.6
			h11.3v2.9h-7.6v7.3c0,1.1,0.4,1.7,1.2,1.7h2.4c0.3,0,0.5-0.2,0.8-0.5c0.2-0.4,0.4-1.8,0.5-4.3l2.9,0.9c-0.3,3.4-0.7,5.4-1.2,5.9
			c-0.6,0.6-1.3,0.9-2.3,0.9h-4.1c-2.3,0-3.4-1.4-3.4-4.1v-7.9h-4.5c-0.3,3.2-1,5.7-2.1,7.3c-1.3,2-3.6,3.7-6.9,5.2l-2.2-2.7
			c2.9-1.1,4.9-2.5,6.1-4c0.9-1.2,1.6-3.1,1.9-5.7h-7.6v-2.9H284v-4.6h-6C277.4,134.3,276.6,135.6,275.7,136.8z"/>
		<path fill="#616264" d="M308.1,127.7v-1.7h2.7v1.7h4.4v2.6h-4.4c-0.1,0.6-0.1,1.2-0.2,1.8h4.9v2.7h-5.3c1.7,1,3.5,2.1,5.3,3.4
			l-1.3,1.9h11.5v12.8h-3.1v-1.1h-13.1v1.1h-3.1v-12.6c-0.8,0.6-1.6,1-2.4,1.4l-1.5-2.4c2.2-1,3.6-2.3,4.4-3.9
			c0.1-0.2,0.2-0.4,0.3-0.6h-4.4v-2.7h5.1c0.1-0.6,0.2-1.2,0.2-1.8h-4.3v-2.6H308.1z M313.3,140.1c-1.6-1.3-3-2.4-4-3.1
			c-0.1,0.1-0.1,0.2-0.1,0.3c-0.6,1.1-1.4,2-2.4,2.8H313.3z M322.6,144.6v-1.9h-13.1v1.9H322.6z M322.6,149v-1.9h-13.1v1.9H322.6z
			 M316.9,139.9l-1.5-2.4c2.1-0.8,3.5-1.7,4.3-2.8h-3.3v-2.7h4.3c0.1-0.6,0.2-1.2,0.2-1.8h-4.3v-2.6h4.3v-1.7h2.7v1.7h4.7v2.6h-4.7
			c-0.1,0.6-0.1,1.3-0.2,1.8h5.7v2.7h-5.6c2.1,1.3,4.1,2.6,5.8,4l-1.9,2.1c-1.8-1.7-3.7-3.1-5.7-4.4
			C320.8,138,319.1,139.1,316.9,139.9z"/>
		<path fill="#616264" d="M346.9,142.1c-1.5,0.5-3.1,1-4.8,1.4v5.9c0,1.9-1,2.9-3.1,2.9h-3.3l-0.7-2.9c1,0.1,2,0.2,2.9,0.2
			c0.7,0,1-0.4,1-1v-4.4c-1.7,0.3-3.4,0.7-5.2,1l-0.4-3.1c2-0.3,3.9-0.6,5.7-1v-5h-5.7v-2.9h5.7v-2.7c-1.4,0.3-2.8,0.5-4.3,0.7
			l-0.6-2.9c4-0.4,7.6-1.3,10.8-2.6l1,2.9c-1.2,0.4-2.4,0.8-3.8,1.2v3.4h6c-0.2-2.2-0.2-4.7-0.2-7.4h3.1c0,2.8,0.1,5.2,0.3,7.4h8.7
			v2.9h-8.5c0.2,1.9,0.4,3.4,0.8,4.7c0.1,0.5,0.2,0.9,0.3,1.3c1.2-1.5,2.2-3.1,3.1-5l2.6,1.4c-1.3,2.6-2.8,4.9-4.6,6.9
			c0.3,0.7,0.6,1.3,0.9,1.8c0.8,1.3,1.5,1.9,1.9,1.9c0.3,0,0.6-1.5,1-4.4l2.7,1.4c-0.8,4.2-1.8,6.3-3.3,6.3c-1.3,0-2.6-0.9-4-2.6
			c-0.5-0.7-1-1.4-1.5-2.3c-2,1.6-4.2,2.9-6.6,3.8l-1.7-2.6c2.7-1,5-2.4,7.1-4.2c-0.3-0.9-0.6-1.9-0.9-2.9c-0.4-1.6-0.8-3.4-1-5.5
			H342v4.3c1.7-0.4,3.3-0.9,4.8-1.4V142.1z M359.3,129.9l-2.2,2.2c-1.2-1.3-2.9-2.6-5.1-4.1l2-2
			C356.1,127.4,357.8,128.7,359.3,129.9z"/>
		<path fill="#616264" d="M58.6,197.1l-0.6-2.8c0.7,0.1,1.3,0.2,2,0.2c0.7,0,1.1-0.4,1.1-1.1v-6c-1,0.4-1.9,0.8-2.9,1.2l-0.7-2.9
			c1.2-0.3,2.4-0.7,3.6-1.2v-6.1H58v-2.8H61v-5H64v5h2.5v2.8H64v4.8c0.9-0.5,1.8-1,2.7-1.6v3c-0.9,0.5-1.8,1-2.7,1.5v8.1
			c0,2-1,3-3,3H58.6z M72.5,173.7l-2,1h3.4v-4.4h2.9v4.4h3.5l-1.8-1c1-1,1.7-2.1,2.3-3.1l2.2,1.1c-0.6,1-1.3,2-2.2,3h2.9v6.1h-2.7
			v4.1H69.8v-4.1H67v-6.1h3.3c-0.7-1.1-1.4-2.1-2.2-3l2.3-1.1C71.1,171.6,71.8,172.6,72.5,173.7z M83.2,197.3h-2.9v-0.9h-9.8v0.8
			h-2.9v-11.1h15.6V197.3z M80.9,178.8v-1.5H69.8v1.5H80.9z M74,190.3v-1.7h-3.6v1.7H74z M74,194v-1.7h-3.6v1.7H74z M78.3,180.9h-6
			v1.9h6V180.9z M76.7,190.3h3.6v-1.7h-3.6V190.3z M80.3,194v-1.7h-3.6v1.7H80.3z"/>
		<path fill="#616264" d="M99.3,177.2v-1.7h2.9v1.7h5.7v2.1c1.3-1,2.4-2,3.4-3.1l2.2,1.7c-1.2,1.3-2.5,2.4-3.8,3.5h4.5v2.7h-8.6
			c-0.4,0.2-0.7,0.4-1,0.6c-0.7,0.3-1.4,0.7-2.2,1h8.7v11.7h-2.9v-1.1H96.6v1.1h-2.9v-8.3c-1.4,0.4-2.8,0.9-4.3,1.4l-1.2-2.7
			c4.1-0.8,8-2.1,11.6-3.7H89.1v-2.7h10.2v-1.6h-7.5v-2.6H99.3z M94.9,171.8v-1.4h3v1.4h3.1v2.7h-3.1v1.7h-3v-1.7h-5.9v-2.7H94.9z
			 M108.2,188.2H96.6v1.7h11.6V188.2z M96.6,193.9h11.6v-1.7H96.6V193.9z M108.4,170.4v1.4h5.9v2.7h-5.9v1.7h-3v-1.7h-3.1v-2.7h3.1
			v-1.4H108.4z M107.2,179.8h-5v1.6h2.6C105.7,180.9,106.5,180.3,107.2,179.8z"/>
		<path fill="#616264" d="M126.4,170.4c-0.3,1.9-0.6,3.6-0.9,5.2h4.8v1.7c-0.2,4.5-1,8.5-2.6,11.8c1.5,1.2,2.8,2.3,3.8,3.3l-2.1,2.4
			c-0.9-0.9-2-1.9-3.2-3c-1.4,2.2-3.1,4.1-5.2,5.7l-2.1-2.6c2-1.5,3.6-3.1,4.9-5.1c-1.3-1.1-2.7-2.2-4.3-3.3c0.8-2.4,1.6-5.1,2.3-8
			h-2.7v-2.9h3.3c0.3-1.8,0.7-3.6,1-5.5L126.4,170.4z M127.3,178.5h-2.4c-0.6,2.8-1.3,5.1-2,7c0.8,0.6,1.6,1.1,2.4,1.7
			C126.3,184.7,127,181.7,127.3,178.5z M137,182.2V179c1.4-1.3,2.8-2.8,4.1-4.5h-9.5v-3h13v3c-1.3,1.9-2.9,3.8-4.5,5.5v2.3h5.6v3
			h-5.6v8.4c0,2.3-0.9,3.4-2.6,3.4h-4.4l-0.8-2.9c1.2,0,2.5,0.1,3.9,0.1c0.5,0,0.8-0.5,0.8-1.5v-7.5h-6.2v-3H137z"/>
		<path fill="#616264" d="M158.1,191.1h-5v1.8h-2.9v-20.5h7.8V191.1z M155.3,188.3v-13h-2.2v13H155.3z M161.9,188
			c-0.4,3.1-0.9,5.7-1.5,8l-2.5-0.9c0.6-2,1.2-4.6,1.7-7.7L161.9,188z M175.7,184.1c0,6.5-0.4,10.4-1.1,11.4
			c-0.8,1.1-2.2,1.7-4.3,1.7c-0.8,0-1.6,0-2.4-0.1l-0.7-2.7c0.9,0.1,1.8,0.1,2.6,0.1c1.6,0,2.6-0.5,2.8-1.6c0.1-0.3,0.1-0.8,0.2-1.3
			l-2,0.8c-0.4-1.7-0.8-3.3-1.4-4.9l2-0.6c0.6,1.6,1,3,1.3,4.3c0.1-1.2,0.2-2.8,0.2-4.7h-13v-15.5h15.3v2.5h-5.6v1.8h5v2.4h-5v1.9
			h5.1v2.4h-5.1v1.8H175.7z M162.7,173.7v1.8h4.1v-1.8H162.7z M162.7,179.8h4.1V178h-4.1V179.8z M162.7,184.1h4.1v-1.8h-4.1V184.1z
			 M165.4,194.7L163,195c-0.1-3-0.1-5.4-0.3-7l2.2-0.3C165.2,189.4,165.3,191.8,165.4,194.7z M169.1,193.3l-2.3,0.5
			c-0.2-2.2-0.5-4.1-0.8-5.8l2.2-0.5C168.6,189.3,168.8,191.2,169.1,193.3z"/>
		<path fill="#616264" d="M198.6,174.6c1.2,1,1.7,2.4,1.7,4.2c0,1.5-0.4,2.7-1.1,3.6c-0.3,0.3-1.1,1.1-2.5,2.3
			c-0.5,0.4-0.9,0.9-1.2,1.4c-0.3,0.6-0.4,1.2-0.4,1.9v0.4h-3.4V188c0-1.1,0.2-2.1,0.6-2.9c0.4-0.8,1-1.6,2-2.4
			c0.9-0.8,1.5-1.4,1.7-1.7c0.5-0.6,0.8-1.3,0.8-2.1c0-1-0.3-1.7-0.8-2.3c-0.6-0.6-1.3-0.8-2.3-0.8c-1.3,0-2.2,0.4-2.7,1.2
			c-0.5,0.7-0.7,1.6-0.7,2.9H187c0-2.2,0.6-3.8,1.9-5.1c1.3-1.2,2.9-1.8,5.1-1.8C195.9,173.1,197.4,173.6,198.6,174.6z M195.1,190.5
			c0.4,0.4,0.6,0.9,0.6,1.6c0,0.6-0.2,1.2-0.6,1.6c-0.5,0.4-1,0.6-1.6,0.6c-0.6,0-1.2-0.2-1.6-0.6c-0.5-0.4-0.7-0.9-0.7-1.6
			c0-0.6,0.2-1.2,0.7-1.6c0.4-0.4,0.9-0.6,1.6-0.6C194.1,189.9,194.7,190.1,195.1,190.5z"/>
	</g>
	<path fill="#B3B5B8" d="M58,72.2c104.3-1.1,208.6,0.3,312.7,4.4c0,0,0.1-2,0-2C266.6,70.5,162.3,69.1,58,70.2
		C57.9,70.2,58,72.2,58,72.2L58,72.2z"/>
	<path fill="#B3B5B8" d="M58,161.7c104.3-1.1,208.6,0.3,312.7,4.4c0,0,0.1-2,0-2c-104.1-4.1-208.4-5.5-312.7-4.4
		C57.9,159.7,58,161.7,58,161.7L58,161.7z"/>
	<path fill="#B3B5B8" d="M57.8,114.6c104.8,3.2,209.9,4,314.9,2.5c0.1,0,0-2,0-2c-105,1.5-210.1,0.7-314.9-2.5
		C57.8,112.6,57.7,114.6,57.8,114.6L57.8,114.6z"/>
	<path fill="#B3B5B8" d="M57.8,204.6c48.2,3.2,96.5,4,144.8,2.5c0,0,0-2,0-2c-48.3,1.5-96.6,0.7-144.8-2.5
		C57.8,202.6,57.7,204.6,57.8,204.6L57.8,204.6z"/>
	<path fill="#FFFFFF" d="M193,225.5c0,0-1.8,29.3,11.1,38c0,0-33-6.2-39.9-38H193z"/>
</g>
<g>
</g>
<g>
</g>
<g>
</g>
<g>
</g>
<g>
</g>
<g>
</g>
<g>
</g>
<g>
</g>
<g>
</g>
<g>
</g>
<g>
</g>
<g>
</g>
<g>
</g>
<g>
</g>
<g>
</g>
</svg>
