<?xml version="1.0" encoding="utf-8"?>
<!-- Generator: Adobe Illustrator 18.0.0, SVG Export Plug-In . SVG Version: 6.00 Build 0)  -->
<!DOCTYPE svg PUBLIC "-//W3C//DTD SVG 1.1//EN" "http://www.w3.org/Graphics/SVG/1.1/DTD/svg11.dtd">
<svg version="1.1" id="Layer_1" xmlns="http://www.w3.org/2000/svg" xmlns:xlink="http://www.w3.org/1999/xlink" x="0px" y="0px"
	 viewBox="0 142.6 612 506.9" enable-background="new 0 142.6 612 506.9" xml:space="preserve">
<title>usd-bg</title>
<path fill="#F6BCB1" d="M383.7,611.3c-18,0-35.5-6.2-49.5-17.5l-4.9,4.4c-12.9,11.4-32.3,11.4-45.2,0l-9.9-8.8l-8.5,7.4
	c-13.7,12-34.2,12-47.9,0l-8.5-7.4l-8.5,7.5c-13.7,12-34.2,12-47.9,0l-10.4-9.3c-3.9,1.4-7.9,2.1-12,2.1
	c-11.3-0.1-21.9-5.3-28.9-14.2c-6.9-8.9-9.2-20.5-6.4-31.3c5.3-21,12.7-41,19.8-60.4c10.1-27.5,19.6-53.5,23.3-80.5
	c0.5-3.5,0.9-7.1,1.4-10.6c4.6-34.9,9.8-74.5,31.9-108.6c29.6-45.5,81-73.7,134.2-73.7s104.7,28.4,134.2,74
	c17.9,27.5,22.1,58.5,25.9,85.8c1.4,11.9,3.4,23.7,6.1,35.4c5.3,21.3,13,42,21.3,63.9c5.9,15.6,11.9,31.7,17.1,48.3
	c2.7,8.4,4.9,17.4,7,26.6c2.4,10.7-0.3,21.9-7.2,30.5c-6.9,8.6-17.4,13.6-28.4,13.7l0,0c-3.3,0-6.6-0.5-9.8-1.4l-11.5,9.9
	c-11,9.7-26.8,11.8-39.9,5.3C409.1,608.2,396.5,611.3,383.7,611.3z"/>
</svg>
