<?xml version="1.0" encoding="utf-8"?>
<!-- Generator: Adobe Illustrator 18.0.0, SVG Export Plug-In . SVG Version: 6.00 Build 0)  -->
<!DOCTYPE svg PUBLIC "-//W3C//DTD SVG 1.1//EN" "http://www.w3.org/Graphics/SVG/1.1/DTD/svg11.dtd">
<svg version="1.1" id="Layer_1" xmlns="http://www.w3.org/2000/svg" xmlns:xlink="http://www.w3.org/1999/xlink" x="0px" y="0px"
	 viewBox="0 0 3269.3 901.5" enable-background="new 0 0 3269.3 901.5" xml:space="preserve">
<g>
	<g>
		<polygon fill="#C2E6E4" points="3072.4,901.5 0,901.5 0,73.6 3088,73.6 		"/>
		<path fill="#C2E6E4" d="M3088,25.2L3088,25.2c-80.8-24-177-26.3-261.4-6.5l-98,23.1c-84.6,19.9-180.9,17.5-261.9-6.5l-34.2-10.1
			c-80.8-24-177-26.3-261.4-6.5l-54.9,12.9c-84.4,19.9-180.5,17.5-261.4-6.5h0c-80.8-24-177-26.3-261.4-6.5l-67.2,15.8
			c-71.7,16.9-146.1,21.4-219.1,13.8v57.5h30.7h34h543.6h120.6h534.8h42.8h534.8h120.6"/>
	</g>
	<path fill="#C2E6E4" d="M446.8,100.5h109.3h523.6V73.6L915.4,19.8C842.1-4.1,755-6.5,678.5,13.4l-49.8,12.9
		c-76.5,19.9-163.6,17.5-236.9-6.5v0c-73.3-24-160.4-26.3-236.9-6.5L66.1,36.5"/>
</g>
<path fill="#AAD7DB" d="M1579.1,376.9l-49.8,12.9c-76.5,19.9-163.6,17.5-236.9-6.5h0c-73.3-24-160.4-26.3-236.9-6.5l-88.8,23.1
	c-76.6,19.9-164,17.5-237.4-6.5l-31-10.1c-43.6-14.3-92.2-20.9-140.5-19.7c-40-0.9-80.3,3.4-118,13.2l-49.8,12.9
	c-30.9,8-63.6,12.4-96.5,13.2c-41.1-1-81.7-7.6-118.9-19.7h0l5.2,7.7c-9.1-2.2-18.1-4.8-26.8-7.7h0l36.6,53.7h-43.3v288.1h1458.2
	V464V437v-64.6v-1.3C1596,372.8,1587.5,374.7,1579.1,376.9z"/>
<g>
</g>
<g>
</g>
<g>
</g>
<g>
</g>
<g>
</g>
<g>
</g>
<g>
</g>
<g>
</g>
<g>
</g>
<g>
</g>
<g>
</g>
<g>
</g>
<g>
</g>
<g>
</g>
<g>
</g>
</svg>
