<svg xmlns="http://www.w3.org/2000/svg" xmlns:xlink="http://www.w3.org/1999/xlink" viewBox="0 0 740.87 740.87"><defs><style>.a{isolation:isolate;}.b,.c{fill:#fad5bf;}.c{mix-blend-mode:multiply;}.d{fill:url(#a);}.e,.g{fill:#bfc0c0;}.f{fill:#ededee;}.ag,.g{stroke:#807f80;stroke-linecap:round;stroke-linejoin:round;stroke-width:2.5px;}.h{fill:url(#b);}.i{fill:#f08c47;}.j{fill:#d4413c;}.k{fill:#fce4b5;}.l{fill:#d37b2c;}.m{fill:#ddae68;}.n{fill:#e9c774;}.o{fill:#c59a62;}.p{fill:#595857;}.q{fill:#fff;}.r{fill:#efefef;}.s{fill:url(#c);}.t{fill:#b9baba;}.u{fill:#9fa0a0;}.ac,.ae,.u,.w,.y{mix-blend-mode:darken;}.v{fill:url(#d);}.w{fill:#b5b6b6;}.x{fill:#727171;}.z{fill:#807f80;}.aa{fill:#898989;}.ab{fill:url(#e);}.ac{fill:#b7b8b8;}.ad{fill:url(#f);}.ae{fill:#afafb0;}.af{fill:#ec86a9;}.ag{fill:none;}.ah{fill:#deb771;}.ai{fill:#e68b34;}</style><linearGradient id="a" x1="133.68" y1="566.6" x2="246" y2="566.6" gradientUnits="userSpaceOnUse"><stop offset="0" stop-color="#cbcccc"/><stop offset="1" stop-color="#bfc0c0"/></linearGradient><linearGradient id="b" x1="479.11" y1="481.91" x2="519.29" y2="481.91" xlink:href="#a"/><linearGradient id="c" x1="-1170.11" y1="111.77" x2="-1073.41" y2="111.77" gradientTransform="matrix(-1.01, -0.31, -0.29, 0.96, -869.69, 81.32)" xlink:href="#a"/><linearGradient id="d" x1="-1249.25" y1="494.41" x2="-1315.17" y2="672.7" gradientTransform="matrix(-0.96, 0.29, 0.29, 0.96, -988.58, 168.19)" gradientUnits="userSpaceOnUse"><stop offset="0" stop-color="#c9caca"/><stop offset="1" stop-color="#b1b1b2"/></linearGradient><linearGradient id="e" x1="-1606.28" y1="90.1" x2="-1855.84" y2="90.1" gradientTransform="matrix(-1, 0.09, 0.09, 1, -1191.23, 397.22)" gradientUnits="userSpaceOnUse"><stop offset="0" stop-color="#d3d3d4"/><stop offset="1" stop-color="#bfc0c0"/></linearGradient><linearGradient id="f" x1="-1170.5" y1="477.43" x2="-1170.5" y2="528.97" gradientTransform="matrix(-0.97, 0.25, 0.25, 0.97, -1035.2, 208.84)" xlink:href="#a"/></defs><title>elephant</title><g class="a"><circle class="b" cx="370.43" cy="370.43" r="370.43"/><path class="c" d="M702.51,234.57a3.8,3.8,0,0,0-3.64-6L690,229.91a11.59,11.59,0,0,0-8.94,6.86,2.79,2.79,0,0,1-4.46.86l-1.19-1.12a11.59,11.59,0,0,0-9.64-3L655.48,235a3.8,3.8,0,0,0-1.56,6.92l6.59,4.42c4.71,16.73,3.4,38.39.82,55.4-5,33-36.67,58.69-68.67,63.85-15.23,2.45-29.51-.91-42.09-7.88a104,104,0,0,0,43.77-59.37l5.21-18.58a104.12,104.12,0,0,0-37.22-111h0a104.12,104.12,0,0,0-84-19.13l-46.58,9.57a130.67,130.67,0,0,0-56.2-9.37l-.92-2.44a10.44,10.44,0,0,0-12.77-6.28c-14-23.55-45.11-33.83-73.87-23s-45.41,39.15-40.35,66.13A10.44,10.44,0,0,0,243.09,197l1.32,3.51a10.44,10.44,0,0,0,.42,1L201,215.58a104.12,104.12,0,0,0-64.71,56.88h0a104.12,104.12,0,0,0,20.21,115.27L170,401.58a104,104,0,0,0,64.13,31.06c-.41,1.33-.81,2.69-1.22,4.07-7.8,13.67-16.71,31.83-26.4,55.93l14.42,4.8h0l-14.42-4.8-5.06,23.72a32.92,32.92,0,0,0,7.36,28.55v29.41a111.77,111.77,0,0,1-54.51,9.25s-12.81-20.71-47.76,0c0,0,19.69,33.07,47.76,12.64A186.42,186.42,0,0,0,208.79,590v26.75h71.49c.87,1.9,1.71,3.72,2.52,5.43,4.66,9.82,14.09,15.7,24,15l70.64-4.72c11.17-.75,20.43-9.6,22.72-21.71l3.46-18.35a1.5,1.5,0,0,1,1.55-1.34l-.39.34.74-.28a1.66,1.66,0,0,1,1.18,1.72l-.25,15.31c-.2,12,9,21.78,19.82,21.06l54.26-3.63a18.15,18.15,0,0,0,15.19-11.12c11.88-26.71,28.57-49.95,29.67-81,.08-2.21-.33-18.89-2.68-23.47l-.38-1.31,6.58-4.72a26.22,26.22,0,0,0,9.67-29.39l-7.75-24h0s-9.51-30.52-29.75-53.55c74.82,40.15,171.62,7.83,192.8-78.32a218.06,218.06,0,0,0,5.81-55.59c-.06-3.59-3.55-19.74-1.52-22.58Z"/><path class="d" d="M238.13,536.86s-40.33,52.09-104.44,46.71V596.2S208.33,601,246,555.33Z"/><path class="e" d="M500.82,508.79c3.53-.16,4.09,22.07,4,24.64-1.11,31.09-17.79,54.33-29.67,81A18.15,18.15,0,0,1,460,625.59l-54.26,3.63c-10.83.72-20-9-19.82-21.06l.25-15.31a1.56,1.56,0,1,0-3.08-.43l-3.46,18.35c-2.28,12.11-11.55,21-22.72,21.71l-70.64,4.72c-9.93.66-19.36-5.22-24-15-8.89-18.73-22-50-22.45-72.92l98.15-27.55S499.32,508.89,500.82,508.79Z"/><path class="f" d="M462.61,620.31c-5.36-4.05-16.38-9.26-29.61,1.85a2,2,0,0,0,1.24,3.49l27.43-1.83A2,2,0,0,0,462.61,620.31Z"/><path class="f" d="M433.68,622.25c-5.42-4.05-16.55-9.25-29.93,1.87A2,2,0,0,0,405,627.6l27.73-1.85A2,2,0,0,0,433.68,622.25Z"/><path class="f" d="M357.74,627.32c-6.54-4-20-9-36.49,2.31-1.75,1.21-.74,3.62,1.48,3.47l33.81-2.26C358.63,630.7,359.45,628.36,357.74,627.32Z"/><path class="f" d="M322.09,629.71c-6.61-4-20.24-9-36.89,2.34-1.77,1.21-.75,3.62,1.49,3.47l34.18-2.28C323,633.09,323.81,630.74,322.09,629.71Z"/><path class="g" d="M412.42,567S399.57,586,384.21,591.41"/><path class="h" d="M510.26,450.58l7.75,24a26.22,26.22,0,0,1-9.67,29.39l-13,9.31-16.25-54.87Z"/><path class="i" d="M510.26,450.58s-22-70.73-70.42-78.08l-187-6.29s-23.6,12-40.53,70.5c-7.8,13.67-16.71,31.83-26.4,55.93l14.42,4.8c-.11.87-.22,1.73-.32,2.61l28.16,48s218.09-6.22,274.94-34.77l-15-52.11Z"/><path class="j" d="M455,384.38,433.5,427.06a13.31,13.31,0,0,1-21,4.58l-18.4-16.35L377.54,439.8a13.31,13.31,0,0,1-17.73,4.06l-57-33.26Z"/><circle class="j" cx="407.97" cy="476.07" r="34.23" transform="translate(-51.5 49.49) rotate(-6.53)"/><polygon class="k" points="397.14 465.05 399 450.33 426.58 473.53 404.25 502.18 409.33 481.05 397.14 465.05"/><path class="l" d="M282.51,524.56l18.19-36.82a1.09,1.09,0,0,0-1.89-1.08L275.46,522.2Z"/><rect class="m" x="221.44" y="432.97" width="49.13" height="49.13" rx="5.41" ry="5.41" transform="translate(133.51 -49.61) rotate(15.76)"/><path class="n" d="M230.46,433.47h38.32a5.41,5.41,0,0,1,5.41,5.41V456a0,0,0,0,1,0,0H225a0,0,0,0,1,0,0V438.88a5.41,5.41,0,0,1,5.41-5.41Z" transform="translate(130.17 -51.08) rotate(15.76)"/><rect class="o" x="240.71" y="448.8" width="12.67" height="15.7" rx="3" ry="3" transform="translate(133.31 -49.93) rotate(15.76)"/><path class="p" d="M133.68,583.57s-12.81-20.71-47.76,0c0,0,19.69,33.07,47.76,12.64Z"/><rect class="q" x="188.19" y="529.31" width="141.51" height="87.42"/><polygon class="r" points="196.93 539.26 196.93 573.02 236.25 573.02 274.66 539.26 196.93 539.26"/><rect class="r" x="196.93" y="577.92" width="39.32" height="31.55"/><polygon class="r" points="243.42 579.64 243.42 609.47 293.12 609.47 293.12 539.26 243.42 579.64"/><rect class="r" x="300.97" y="545.53" width="19.32" height="61.39"/><path class="s" d="M282.49,524.81,185.9,492.63l-5.06,23.72a32.82,32.82,0,0,0,12.53,33.3l4.71,3.47a32.22,32.22,0,0,0,9.66,4.86l27.93,8.57a32.28,32.28,0,0,0,18.31.18h0a33,33,0,0,0,22.43-22.07Z"/><path class="t" d="M371.53,167.4l86.19-17.71a104.12,104.12,0,0,1,84,19.13h0a104.12,104.12,0,0,1,37.22,111l-5.21,18.58a104.12,104.12,0,0,1-98.07,76l-23.54.5"/><path class="u" d="M463.23,350h0a79.68,79.68,0,0,0,75.05-58.17l4-14.22A79.69,79.69,0,0,0,507,188c-17.49-10.69-38.55-13.91-58.63-9.78l-48.88,10a13.78,13.78,0,0,0-10.07,18.48l49.25,126.77A25.74,25.74,0,0,0,463.23,350Z"/><path class="v" d="M282.12,407.25c59.72,20.67,121.92,14.08,174.44-21.93,25.3-17.34,45.27-43.3,41.12-75.39-1.18-9.16-4.25-17.77-8.08-26.11-10.31-22.43-10-46.9-19.17-69.5-6.71-16.61-18.8-30.5-33.28-40.86-28.3-20.24-66.6-28.68-100.67-21-27.24,6.14-60.29,20-78.56,42.43"/><path class="w" d="M452.42,250.16a15.33,15.33,0,1,1-21.7-1.56A15.33,15.33,0,0,1,452.42,250.16Z"/><path class="x" d="M448.15,253.86A7.94,7.94,0,1,1,437,252.38,7.93,7.93,0,0,1,448.15,253.86Z"/><g class="y"><path class="z" d="M350.33,250.84l-3,1.72c-1,.26-2.08.6-3.1.95a43.71,43.71,0,0,0-5.93,2.57,32.33,32.33,0,0,0-5.31,3.57,22.84,22.84,0,0,0-2.25,2.23c-1,.55-1.76,1.29-2.76,2a15.09,15.09,0,0,1,1.26-3.29,24.83,24.83,0,0,1,2.45-2.43,34.31,34.31,0,0,1,5.66-3.81,45.71,45.71,0,0,1,6.22-2.69c1.06-.38,2.14-.7,3.23-1A18.19,18.19,0,0,1,350.33,250.84Z"/></g><g class="y"><path class="z" d="M418.66,227.72a18.19,18.19,0,0,1,3.22-1.37c1.13-.06,2.25-.11,3.38-.11a45.7,45.7,0,0,1,6.75.49,34.31,34.31,0,0,1,6.6,1.74,24.84,24.84,0,0,1,3.11,1.49,15.09,15.09,0,0,1,2.27,2.69c-1.16-.31-2.15-.75-3.25-.95a22.85,22.85,0,0,0-2.86-1.36,32.33,32.33,0,0,0-6.19-1.62,43.72,43.72,0,0,0-6.44-.47c-1.08,0-2.16,0-3.24.13Z"/></g><path class="aa" d="M403.11,324.79s-29.1,11.84-51,9.88l.6,6.6s39.17,30.51,66.77-10.25Z"/><path class="w" d="M362.25,277.28a13.32,13.32,0,1,1-18.86-1.36A13.32,13.32,0,0,1,362.25,277.28Z"/><path class="x" d="M360.29,280.64a8.15,8.15,0,1,1-11.47-1.52A8.14,8.14,0,0,1,360.29,280.64Z"/><path class="q" d="M454.91,291.16c4-3.92,15.27-15.75,17.19-27.85a1.24,1.24,0,0,1,2.38-.22c2.49,6.48,5.13,19.46-4.48,34.54a1.26,1.26,0,0,1-1.5.5l-13.17-4.92A1.24,1.24,0,0,1,454.91,291.16Z"/><path class="ab" d="M391,321.11l-7.92-14.68a33.12,33.12,0,0,1-1.29-28.78h0a33.12,33.12,0,0,1,18-17.66l5.9-2.38a33.08,33.08,0,0,1,29.49,2.33,45.43,45.43,0,0,1,6.15,4.3,41.46,41.46,0,0,1,6.29,6.9c1.06,1.48,2.88,6.68,4.24,7.43,0,0,15.35,8,20.87,25.5.31,1,6.49,3.79,7.45,4.5,6.89,5.09,12.54,11.78,17.36,18.8,16.77,24.4,43.72,43.19,74.5,38.23,32-5.16,63.67-30.8,68.67-63.85,2.57-17,3.89-38.68-.82-55.41l-6.59-4.42a3.8,3.8,0,0,1,1.56-6.92l10.24-1.52a11.59,11.59,0,0,1,9.64,3l1.19,1.12a2.79,2.79,0,0,0,4.46-.86,11.59,11.59,0,0,1,8.94-6.86l8.91-1.32a3.8,3.8,0,0,1,3.64,6l-4.3,6c-2,2.83,1.45,19,1.52,22.58a218.06,218.06,0,0,1-5.81,55.59c-21.91,89.14-124.79,120.65-200.5,73.89-15-9.29-26.13-21.28-37.16-34.84-12.3-15.12-27-28.53-44.67-36.65"/><path class="ac" d="M448,279a62.82,62.82,0,0,0-30.51,14.8,1.06,1.06,0,0,1-1.65-1.28C419.91,284.6,430,270.4,448.16,277A1.06,1.06,0,0,1,448,279Z"/><path class="ac" d="M460.09,292.47a62.82,62.82,0,0,0-30.51,14.8,1.06,1.06,0,0,1-1.65-1.28c4.07-7.95,14.19-22.15,32.32-15.58A1.06,1.06,0,0,1,460.09,292.47Z"/><path class="ac" d="M470.71,306.44a62.82,62.82,0,0,0-30.51,14.8,1.06,1.06,0,0,1-1.65-1.28c4.07-7.95,14.19-22.15,32.32-15.58A1.06,1.06,0,0,1,470.71,306.44Z"/><path class="q" d="M383,316.49c4.39-3.52,16.68-14.26,19.72-26.12a1.24,1.24,0,0,1,2.39,0c1.87,6.69,3.3,19.85-7.69,34a1.26,1.26,0,0,1-1.54.36l-12.65-6.12A1.24,1.24,0,0,1,383,316.49Z"/><path class="ad" d="M263.51,188.73l-83.07,26.85a104.12,104.12,0,0,0-64.71,56.88h0a104.12,104.12,0,0,0,20.21,115.27l13.44,13.85a104.12,104.12,0,0,0,122.45,20l20.92-10.79"/><path class="ae" d="M274.41,392.27h0A79.68,79.68,0,0,1,180.12,381l-10.74-10.14A79.69,79.69,0,0,1,153.51,276c9.49-18.17,25.89-31.77,45.23-38.57l47.07-16.55A13.78,13.78,0,0,1,264,231.53l23,134A25.74,25.74,0,0,1,274.41,392.27Z"/><path class="af" d="M413.3,338.76s-23.51-9.59-47.17,9.81C366.13,348.57,392.23,362.33,413.3,338.76Z"/><path class="ag" d="M342.66,352.28s17.81-9.4,6.75-31.81"/><path class="ah" d="M345.3,149.54c-11.05-29.37-45.94-43.42-77.91-31.38s-48.94,45.6-37.88,75Z"/><rect class="ai" x="218.65" y="161.67" width="140.54" height="24.58" rx="9.79" ry="9.79" transform="translate(-42.76 112.93) rotate(-20.63)"/></g></svg>