<?xml version="1.0" encoding="utf-8"?>
<!-- Generator: Adobe Illustrator 18.0.0, SVG Export Plug-In . SVG Version: 6.00 Build 0)  -->
<!DOCTYPE svg PUBLIC "-//W3C//DTD SVG 1.1//EN" "http://www.w3.org/Graphics/SVG/1.1/DTD/svg11.dtd">
<svg version="1.1" id="Layer_1" xmlns="http://www.w3.org/2000/svg" xmlns:xlink="http://www.w3.org/1999/xlink" x="0px" y="0px"
	 viewBox="0 0 269.3 191.1" enable-background="new 0 0 269.3 191.1" xml:space="preserve">
<g>
	<path fill="#FFFFFF" d="M214.5,152.8H54.8C24.5,152.8,0,128.2,0,98l0-43.2C0,24.5,24.5,0,54.8,0l159.7,0
		c30.3,0,54.8,24.5,54.8,54.8V98C269.3,128.2,244.8,152.8,214.5,152.8z"/>
	<g>
		<path fill="#616264" d="M69.7,80.5H63v2.6h-3.9V52.6h10.6V80.5z M65.8,76.7V56.4H63v20.3H65.8z M76.1,79.2
			c-0.6,2.8-1.4,5.3-2.5,7.5L70,85.4c1-1.9,2-4.2,2.7-7.1L76.1,79.2z M93,50.9v14.8h-8.6V68h8.5v3.4h-8.5v2.4h9.8v3.6H70.8v-3.6h9.8
			v-2.4H72V68h8.6v-2.3H72V50.9H93z M80.8,54.4h-5.3v8h5.3V54.4z M80,60.8l-2.4,0.6c-0.3-1.8-0.8-3.6-1.2-5.3l2.3-0.8
			C79.2,57,79.6,58.8,80,60.8z M82.2,85.9l-3.6,0.9c-0.4-2.8-0.8-5.2-1.4-7.3l3.4-0.7C81.3,81,81.8,83.4,82.2,85.9z M88.5,85.8
			l-3.6,0.9c-0.5-2.8-1.2-5.2-1.9-7.3l3.4-0.7C87.2,80.9,87.8,83.2,88.5,85.8z M89.4,54.4h-5.2v8h5.2V54.4z M88.5,56
			c-0.4,2-0.9,3.8-1.5,5.4l-2.3-0.8c0.5-1.4,1-3.1,1.4-5.2L88.5,56z M95,85.1l-3.4,1.6c-0.8-2.8-1.7-5.3-2.6-7.4l3.3-1.1
			C93.3,80.3,94.2,82.7,95,85.1z"/>
		<path fill="#616264" d="M111.7,80.5H105v2.6h-3.9V52.6h10.6V80.5z M107.8,76.7V56.4H105v20.3H107.8z M118.1,79.2
			c-0.6,2.8-1.4,5.3-2.5,7.5l-3.7-1.3c1-1.9,2-4.2,2.7-7.1L118.1,79.2z M135,50.9v14.8h-8.6V68h8.5v3.4h-8.5v2.4h9.8v3.6h-23.5v-3.6
			h9.8v-2.4H114V68h8.6v-2.3H114V50.9H135z M122.8,54.4h-5.3v8h5.3V54.4z M122,60.8l-2.4,0.6c-0.3-1.8-0.8-3.6-1.2-5.3l2.3-0.8
			C121.2,57,121.6,58.8,122,60.8z M124.2,85.9l-3.6,0.9c-0.4-2.8-0.8-5.2-1.4-7.3l3.4-0.7C123.3,81,123.8,83.4,124.2,85.9z
			 M130.5,85.8l-3.6,0.9c-0.5-2.8-1.2-5.2-1.9-7.3l3.4-0.7C129.2,80.9,129.8,83.2,130.5,85.8z M131.4,54.4h-5.2v8h5.2V54.4z
			 M130.5,56c-0.4,2-0.9,3.8-1.5,5.4l-2.3-0.8c0.5-1.4,1-3.1,1.4-5.2L130.5,56z M137,85.1l-3.4,1.6c-0.8-2.8-1.7-5.3-2.6-7.4
			l3.3-1.1C135.3,80.3,136.2,82.7,137,85.1z"/>
		<path fill="#616264" d="M149.2,66c0.6,0.6,0.8,1.3,0.8,2.2s-0.3,1.6-0.8,2.2c-0.6,0.6-1.3,0.9-2.2,0.9c-0.9,0-1.6-0.3-2.2-0.9
			c-0.6-0.6-0.8-1.3-0.8-2.2s0.3-1.6,0.8-2.2c0.6-0.6,1.3-0.9,2.2-0.9S148.6,65.4,149.2,66z M162.5,66c0.6,0.6,0.8,1.3,0.8,2.2
			s-0.3,1.6-0.8,2.2c-0.6,0.6-1.3,0.9-2.2,0.9c-0.9,0-1.6-0.3-2.2-0.9c-0.6-0.6-0.8-1.3-0.8-2.2s0.3-1.6,0.8-2.2
			c0.6-0.6,1.3-0.9,2.2-0.9C161.2,65.1,162,65.4,162.5,66z M175.9,66c0.6,0.6,0.8,1.3,0.8,2.2s-0.3,1.6-0.8,2.2
			c-0.6,0.6-1.3,0.9-2.2,0.9c-0.9,0-1.6-0.3-2.2-0.9c-0.6-0.6-0.8-1.3-0.8-2.2s0.3-1.6,0.8-2.2c0.6-0.6,1.3-0.9,2.2-0.9
			S175.3,65.4,175.9,66z"/>
		<path fill="#616264" d="M191.2,66c0.6,0.6,0.8,1.3,0.8,2.2s-0.3,1.6-0.8,2.2c-0.6,0.6-1.3,0.9-2.2,0.9c-0.9,0-1.6-0.3-2.2-0.9
			c-0.6-0.6-0.8-1.3-0.8-2.2s0.3-1.6,0.8-2.2c0.6-0.6,1.3-0.9,2.2-0.9S190.6,65.4,191.2,66z M204.5,66c0.6,0.6,0.8,1.3,0.8,2.2
			s-0.3,1.6-0.8,2.2c-0.6,0.6-1.3,0.9-2.2,0.9c-0.9,0-1.6-0.3-2.2-0.9c-0.6-0.6-0.8-1.3-0.8-2.2s0.3-1.6,0.8-2.2
			c0.6-0.6,1.3-0.9,2.2-0.9C203.2,65.1,204,65.4,204.5,66z M217.9,66c0.6,0.6,0.8,1.3,0.8,2.2s-0.3,1.6-0.8,2.2
			c-0.6,0.6-1.3,0.9-2.2,0.9c-0.9,0-1.6-0.3-2.2-0.9c-0.6-0.6-0.8-1.3-0.8-2.2s0.3-1.6,0.8-2.2c0.6-0.6,1.3-0.9,2.2-0.9
			S217.3,65.4,217.9,66z"/>
	</g>
	<path fill="#FFFFFF" d="M88.3,144.1c0,0,2.3,36.1-13.8,47c0,0,40.7-7.6,49.2-47H88.3z"/>
</g>
<g>
</g>
<g>
</g>
<g>
</g>
<g>
</g>
<g>
</g>
<g>
</g>
<g>
</g>
<g>
</g>
<g>
</g>
<g>
</g>
<g>
</g>
<g>
</g>
<g>
</g>
<g>
</g>
<g>
</g>
</svg>
