<?xml version="1.0" encoding="utf-8"?>
<!-- Generator: Adobe Illustrator 18.0.0, SVG Export Plug-In . SVG Version: 6.00 Build 0)  -->
<!DOCTYPE svg PUBLIC "-//W3C//DTD SVG 1.1//EN" "http://www.w3.org/Graphics/SVG/1.1/DTD/svg11.dtd">
<svg version="1.1" id="Layer_1" xmlns="http://www.w3.org/2000/svg" xmlns:xlink="http://www.w3.org/1999/xlink" x="0px" y="0px"
	 viewBox="0 0 2380.4 896.1" enable-background="new 0 0 2380.4 896.1" xml:space="preserve">
<polygon fill="#C2E6E4" points="1420.7,458.6 1420.7,719.8 0,719.8 0,896.1 1564.7,896.1 1594.7,458.6 1528.8,458.6 "/>
<path fill="#C2E6E4" d="M2199.1,19.8c-80.8-24-177-26.3-261.4-6.5l-54.9,12.9c-84.4,19.9-180.5,17.5-261.4-6.5h0
	c-80.8-24-177-26.3-261.4-6.5l-98,23.1c-84.6,19.9-180.9,17.5-261.9-6.5L966,19.8c-80.8-24-177-26.3-261.4-6.5l-54.9,12.9
	c-84.4,19.9-180.5,17.5-261.4-6.5h0c-80.8-24-177-26.3-261.4-6.5L59.9,29.2C40.1,33.9,20.1,37.6,0,40.4v27.9v32.3v295.1
	c21.4-2.2,42.5-5.8,62.8-11.1l49.8-12.9c35.3-9.2,72.9-13.6,110.3-13.4c45.9-0.4,91.8,6.3,133.2,19.8h0
	c73.3,24,160.4,26.3,236.9,6.5l49.8-12.9c76.5-19.9,163.6-17.5,236.9,6.5l31,10.1c73.4,24,160.7,26.4,237.4,6.5l88.8-23.1
	c76.5-19.9,163.6-17.5,236.9,6.5h0c39,12.8,82,19.4,125.1,19.8l20.4-297.3h62.9h120.6h577.6V73.6L2199.1,19.8z"/>
<path fill="#AAD7DB" d="M58.3,387.3l60.9-15.8c33.2-8.6,68.5-13.1,103.7-13.4c-37.4-0.2-75,4.2-110.3,13.4l-49.8,12.9
	c-20.3,5.3-41.4,9-62.8,11.1v3.5C19.6,396.2,39,392.3,58.3,387.3z"/>
<g>
</g>
<g>
</g>
<g>
</g>
<g>
</g>
<g>
</g>
<g>
</g>
<g>
</g>
<g>
</g>
<g>
</g>
<g>
</g>
<g>
</g>
<g>
</g>
<g>
</g>
<g>
</g>
<g>
</g>
</svg>
