<?xml version="1.0" encoding="utf-8"?>
<!-- Generator: Adobe Illustrator 18.0.0, SVG Export Plug-In . SVG Version: 6.00 Build 0)  -->
<!DOCTYPE svg PUBLIC "-//W3C//DTD SVG 1.1//EN" "http://www.w3.org/Graphics/SVG/1.1/DTD/svg11.dtd">
<svg version="1.1" id="Layer_1" xmlns="http://www.w3.org/2000/svg" xmlns:xlink="http://www.w3.org/1999/xlink" x="0px" y="0px"
	 viewBox="0 0 402.5 214.1" enable-background="new 0 0 402.5 214.1" xml:space="preserve">
<g>
	<path fill="#FFFFFF" d="M330.5,177.4H72.1C32.3,177.4,0,145.1,0,105.3l0-33.2C0,32.3,32.3,0,72.1,0l258.4,0
		c39.8,0,72.1,32.3,72.1,72.1v33.2C402.5,145.1,370.3,177.4,330.5,177.4z"/>
	<g>
		<g>
			<path fill="#EA8C38" d="M47.4,56.3v-4.7h-4.9v-3.8h16.8c0,15.1-0.2,24.5-0.6,28c-0.4,3.5-2.2,5.2-5.5,5.2c-0.7,0-1.9-0.1-3.5-0.2
				l-1-3.6c1.4,0.2,2.7,0.2,3.8,0.2c1.5,0,2.3-1.1,2.5-3.3c0.1-0.9,0.2-2.7,0.2-5.5h-4.9c-1.1,5.5-3.1,9.7-6.1,12.7l-3-2.6
				c2.5-2.5,4.3-5.9,5.3-10.1h-4V65h4.6c0.2-1.5,0.2-3,0.3-4.6v-0.3h-4.9v-3.7H47.4z M55.4,60.1h-4.3v0.3c0,1.6-0.1,3.2-0.2,4.6h4.5
				C55.3,63.5,55.4,61.8,55.4,60.1z M55.5,51.6h-4.4v4.7h4.3C55.4,54.8,55.4,53.3,55.5,51.6z M75.7,47.8v3c-1.2,3.9-2.6,7.5-4,10.8
				c2.9,3.4,4.4,6.2,4.4,8.4c0,2.7-0.5,4.5-1.5,5.4c-1.1,1.1-3.3,1.6-6.5,1.6l-1.2-4.2c1.5,0.2,2.7,0.3,3.8,0.3
				c0.7,0,1.1-0.3,1.3-0.7c0.2-0.3,0.3-1.1,0.3-2.4c0-2.1-1.6-4.9-4.7-8.4c1.3-2.8,2.6-6.2,3.9-10.1h-5.7v30.2h-3.9V47.8H75.7z"/>
			<path fill="#EA8C38" d="M81.9,48.8c4.2-0.4,8-1.1,11.3-2.3l1.3,3.5c-1.3,0.4-2.7,0.8-4.2,1.1v5.4h4v3.7h-4v1.6
				c1.7,1.6,3.3,3.3,5,5.2l-2.2,3.3c-1.1-1.9-2-3.5-2.8-4.8v16.1h-3.8V66.4c-1.1,3-2.5,5.7-4.1,8.1l-1.7-4.3
				c2.5-2.9,4.3-6.2,5.4-9.9h-3.9v-3.7h4.3V52c-1.3,0.2-2.6,0.4-3.9,0.5L81.9,48.8z M103.4,57.8v-1.7h-8.9v-3.3h8.9v-1.7
				c-2.3,0.1-4.8,0.2-7.4,0.2L94.9,48c7.3,0,13.5-0.5,18.5-1.4l1.8,3c-2.3,0.5-5,0.9-7.9,1.2v1.9h8.8v3.3h-8.8v1.7h7.4v13h-7.4v1.7
				h8.1v3.3h-8.1v1.9h9V81H94.4v-3.3h9v-1.9h-8.1v-3.3h8.1v-1.7H96v-13H103.4z M103.4,62.8v-1.9h-3.6v1.9H103.4z M103.4,65.8h-3.6
				v1.9h3.6V65.8z M107.2,62.8h3.6v-1.9h-3.6V62.8z M110.8,65.8h-3.6v1.9h3.6V65.8z"/>
			<path fill="#EA8C38" d="M136.7,49.4v-3h3.9v3h14.7v3.7h-14.7v2.4h12v15h-8.5c2.7,2.7,6.8,4.8,12.1,6.4l-1.8,3.7
				c-6.4-2.6-11-6-13.8-10.1v11.4h-3.9V70.5c-2.4,4-6.8,7.3-13.3,10.2l-2.2-3.6c5.7-2,9.7-4.3,12-6.7h-8.7v-15h12.1v-2.4H122v-3.7
				H136.7z M136.7,58.9h-8.3v2.6h8.3V58.9z M128.5,67.1h8.3v-2.5h-8.3V67.1z M148.8,58.9h-8.2v2.6h8.2V58.9z M140.6,67.1h8.2v-2.5
				h-8.2V67.1z"/>
			<path fill="#EA8C38" d="M195.7,47.8v3.9h-11.1v4.6h9.2v25.3h-4v-1.4h-22.3v1.4h-4V56.2h8.9v-4.6h-11v-3.9H195.7z M189.7,76.4
				v-5.2h-4.9c-2.8,0-4.2-1.5-4.2-4.4v-6.9h-4.3v0.2c-0.1,6.2-2.2,10.6-6.2,13.4l-2.7-2.3v5.1H189.7z M172.4,60.1v-0.2h-4.9v10.6
				C170.7,68.3,172.3,64.8,172.4,60.1z M176.3,56.2h4.3v-4.6h-4.3V56.2z M184.6,65.8c0,1.1,0.5,1.7,1.5,1.7h3.7v-7.6h-5.2V65.8z"/>
			<path fill="#EA8C38" d="M209,81.7l-2.8-2.6c2.3-2.4,3.5-5.3,3.6-9V63c-1.9,2.2-4,4.2-6.3,6.1l-2.6-3.4c4.3-3.4,7.7-7.3,10.2-11.6
				h-9.2v-3.8H213c0.6-1.3,1.1-2.7,1.5-4l4.1,0.5c-0.4,1.2-0.8,2.4-1.2,3.5h18.1v3.8h-19.8c-0.6,1.1-1.2,2.3-1.9,3.3H231v20.4
				c0,2.4-1.3,3.5-4,3.5h-3.8l-1-3.6c1.3,0.1,2.5,0.2,3.6,0.2c0.9,0,1.4-0.5,1.4-1.5v-2.8H213C212.4,76.9,211.1,79.5,209,81.7z
				 M213.4,69.9c0,0.2,0,0.3,0,0.4h13.8v-3h-13.8V69.9z M227.2,60.9h-13.8V64h13.8V60.9z"/>
			<path fill="#EA8C38" d="M260.6,49.3h14.7v3.6h-33.9v-3.6h14.9c-0.3-0.8-0.7-1.6-1.1-2.3l4.4-0.8C260,47.2,260.3,48.2,260.6,49.3z
				 M266,81.6l-0.9-3.5l2.9,0.1c1.3,0,2-0.5,2-1.4v-9.3h-23.2v14.2H243V64.1h30.7v13.5c0,2.6-1.6,4-4.6,4H266z M269.5,54.5v8.1
				h-22.2v-8.1H269.5z M266.2,69v8.2h-15.7V69H266.2z M265.7,57.5h-14.6v2.1h14.6V57.5z M262.7,71.9h-8.7v2.4h8.7V71.9z"/>
			<path fill="#EA8C38" d="M287.8,71.3c-0.9,3.5-2.1,6.6-3.6,9.2l-3.3-2.2c1.6-2.4,2.7-5.1,3.3-7.8L287.8,71.3z M294.5,49
				c0.5-0.9,0.8-1.9,1-2.8l4.2,0.6c-0.2,0.8-0.5,1.6-0.9,2.3h11.9v19.4h-24.5V49H294.5z M293.6,81.1c-2.7,0-4-1.3-4-3.8v-6.8h4v6
				c0,0.8,0.3,1.2,1.1,1.2h7.8c0.6,0,1.1-0.2,1.4-0.6c0.4-0.4,0.6-1.7,0.7-3.8l3.8,1.3c-0.3,3.3-0.9,5.2-1.7,5.8
				c-0.8,0.6-1.9,0.9-3.4,0.9H293.6z M306.9,54.5v-2.1H290v2.1H306.9z M306.9,59.7v-2.1H290v2.1H306.9z M306.9,62.9H290v2.2h16.9
				V62.9z M302.9,73.8l-3,2.1c-1-1.5-2.4-3.3-4.1-5.2l2.9-1.8C300.5,70.8,301.9,72.4,302.9,73.8z M315.9,77.4l-3.2,2.2
				c-1.2-2.4-2.9-5.1-5-8l3.1-1.9C313,72.6,314.7,75.2,315.9,77.4z"/>
			<path fill="#EA8C38" d="M338.6,67.8c-2,0.7-4.1,1.3-6.3,1.9v7.7c0,2.5-1.3,3.8-4,3.8H324l-0.9-3.8c1.3,0.2,2.6,0.2,3.8,0.2
				c0.9,0,1.3-0.5,1.3-1.3v-5.7c-2.2,0.5-4.4,0.9-6.8,1.3l-0.6-4c2.6-0.4,5.1-0.8,7.4-1.3V60h-7.4v-3.8h7.4v-3.5
				c-1.8,0.4-3.7,0.7-5.7,0.9l-0.8-3.8c5.2-0.6,10-1.7,14.1-3.3l1.4,3.7c-1.6,0.6-3.2,1.1-4.9,1.5v4.4h7.8c-0.2-2.9-0.3-6.2-0.3-9.7
				h4c0,3.6,0.2,6.8,0.4,9.7h11.4V60h-11.1c0.2,2.5,0.6,4.5,1,6.1c0.2,0.6,0.3,1.1,0.5,1.7c1.6-1.9,2.9-4.1,4.1-6.5l3.4,1.8
				c-1.7,3.4-3.7,6.4-6,8.9c0.4,0.9,0.8,1.7,1.2,2.3c1.1,1.7,1.9,2.5,2.4,2.5c0.4,0,0.8-1.9,1.3-5.7l3.5,1.9c-1,5.4-2.4,8.2-4.3,8.2
				c-1.7,0-3.4-1.1-5.2-3.4c-0.7-0.9-1.3-1.9-1.9-3c-2.6,2.1-5.5,3.8-8.6,5l-2.2-3.4c3.5-1.3,6.6-3.1,9.2-5.5
				c-0.4-1.2-0.8-2.5-1.1-3.8c-0.6-2.1-1-4.4-1.3-7.2h-8.1v5.6c2.2-0.6,4.3-1.2,6.3-1.9V67.8z M354.8,51.9l-2.9,2.8
				c-1.6-1.7-3.8-3.4-6.6-5.3l2.7-2.5C350.6,48.6,352.9,50.3,354.8,51.9z"/>
			<path fill="#EA8C38" d="M47.2,120.7c-0.8,3.4-1.8,6.5-3,9l-3.2-1.2c1.1-2.3,2.2-5.2,3-8.7L47.2,120.7z M48.8,102.3
				c-0.5-1-0.9-2-1.5-2.8l4.3-0.7c0.5,1.1,0.9,2.2,1.3,3.5h6.7v3.6H41.9v-3.6H48.8z M57.7,108v10.3h-5.2V130c0,2.4-1.2,3.6-3.5,3.6
				h-2.8l-0.8-3.6c0.8,0.2,1.6,0.2,2.4,0.2c0.7,0,1-0.4,1-1.2v-10.8h-5.4V108H57.7z M54.1,111.4H47v3.6h7.1V111.4z M58.9,126.7
				l-3.1,1.2c-0.6-2.5-1.4-4.9-2.4-7.3l3.2-0.9C57.5,122.3,58.3,124.6,58.9,126.7z M66.1,98.8v8.5h9.2v3.7h-9.3
				c-0.3,10.2-2.6,17.7-6.8,22.5l-2.8-2.5c3.6-4.3,5.6-11,5.9-20h-3.3v-3.7h3.3v-8.5H66.1z M70,133.3c-2.1,0-3.2-1.2-3.2-3.5v-17.1
				h3.7v16.3c0,0.5,0.2,0.7,0.6,0.7h1.1c0.3,0,0.6-0.3,0.7-0.8c0.2-0.6,0.3-2.3,0.4-5.2l3.5,1.1c-0.3,4.1-0.7,6.5-1.3,7.3
				c-0.6,0.7-1.5,1.1-2.7,1.1H70z M74.6,104.6l-2.9,2c-1-1.7-2.4-3.5-4.1-5.5l2.9-1.8C72.3,101.3,73.7,103.1,74.6,104.6z"/>
			<path fill="#EA8C38" d="M90,113.5l-2.8,2.8c-1.4-1.7-3.5-3.5-6.2-5.5l2.8-2.7C86.2,109.9,88.2,111.7,90,113.5z M90.9,120.1
				c-1.7,4.8-3.5,9.3-5.6,13.5l-4-1.7c2.3-4.3,4.3-8.7,6-13.2L90.9,120.1z M91,104.3l-2.8,2.8c-1.5-1.7-3.6-3.4-6.4-5.3l2.8-2.7
				C87.1,100.8,89.3,102.6,91,104.3z M113.1,114.9v3.6c-1.1,3.2-3.1,5.9-5.8,8.2c2.7,1.4,5.8,2.6,9.4,3.6l-2.2,3.5
				c-4.1-1.4-7.6-3-10.4-4.8c-3.4,2.1-7.6,3.8-12.5,5l-2.2-3.4c4.4-1.1,8.1-2.5,11.2-4.1c-2.8-2.4-4.7-5-5.8-7.9h-2.3v-3.8H113.1z
				 M101.8,99.3c-0.2,0.9-0.5,1.8-0.8,2.7h12c-0.2,5.3-0.5,8.6-1.1,9.9c-0.7,1.1-2.1,1.7-4.3,1.8c-1.2,0-2.5-0.1-4.1-0.2l-1.2-3.6
				c1.9,0.2,3.5,0.2,4.9,0.2c0.8,0,1.4-0.2,1.6-0.6c0.2-0.5,0.3-1.7,0.3-3.8h-9.5c-1.6,3.4-3.8,6.2-6.4,8.4l-2.6-3.2
				c3.6-3,6.1-7.2,7.4-12.3L101.8,99.3z M103.7,124.5c2.3-1.7,4.1-3.7,5.3-5.9H98.6C99.6,120.8,101.2,122.8,103.7,124.5z"/>
			<path fill="#EA8C38" d="M129.2,134l-2.8-2.6c2.3-2.4,3.5-5.3,3.6-9v-7.1c-1.9,2.2-4,4.2-6.3,6.1l-2.6-3.4
				c4.3-3.4,7.7-7.3,10.2-11.6h-9.2v-3.8h11.1c0.6-1.3,1.1-2.7,1.5-4l4.1,0.5c-0.4,1.2-0.8,2.4-1.2,3.5h18.1v3.8h-19.8
				c-0.6,1.1-1.2,2.3-1.9,3.3h17.2v20.4c0,2.4-1.3,3.5-4,3.5h-3.8l-0.9-3.6c1.3,0.1,2.5,0.2,3.6,0.2c0.9,0,1.4-0.5,1.4-1.5V126
				h-14.2C132.6,129.1,131.3,131.8,129.2,134z M133.6,122.1c0,0.2,0,0.3,0,0.4h13.8v-3h-13.8V122.1z M147.4,113.1h-13.8v3.1h13.8
				V113.1z"/>
			<path fill="#EA8C38" d="M179.6,101.5h-11.9v0.8h11.2v1.9h-11.2v0.7h11.2v1.9h-11.2v0.7h13.1v2.1h-3c0.7,0.7,1.4,1.4,1.9,2.2
				l-2.7,1.2c-0.2-0.3-0.3-0.5-0.5-0.7c-4.1,0.5-8.4,0.8-12.8,1l-0.7-2.5c0.8,0,1.5-0.5,2.4-1.3h-4v-2.1h2.7v-7.9h15.4V101.5z
				 M173.2,128.8c-2.3,1.9-5.1,3.5-8.5,4.9l-2.3-3c3.3-1.1,6.1-2.5,8.4-4L173.2,128.8z M194.5,123.3v3h-13.7v7h-3.9v-7h-13.9v-3
				H194.5z M193.7,120.7H190v-3.3h-22.9v3.3h-3.6v-6.5h12.9c-0.2-0.4-0.4-0.7-0.6-1l4-0.7c0.2,0.5,0.3,1.1,0.5,1.7h13.3V120.7z
				 M167.6,110.9c2.5-0.2,5-0.3,7.4-0.6l-0.8-0.8h-5.4C168.3,110.1,167.9,110.6,167.6,110.9z M188.6,118.9v2.9h-20v-2.9H188.6z
				 M193.7,100.9c-2.6,1.4-6.3,2.5-11.2,3.5l-1.7-2.9c4.9-0.8,8.5-1.8,11.1-3L193.7,100.9z M194.5,105.3c-2.8,1.4-6.8,2.7-12,3.6
				l-1.6-2.8c5.2-0.8,9.1-1.9,11.7-3.2L194.5,105.3z M195.8,109.5c-3,1.7-7.4,3-13.2,4l-1.7-2.9c5.7-0.9,10-2.1,12.9-3.6
				L195.8,109.5z M194.9,130.8l-2.6,2.6c-1.9-1.4-4.6-2.9-8.1-4.5l2.4-2.3C189.8,128,192.6,129.4,194.9,130.8z"/>
			<path fill="#EA8C38" d="M217.7,133.4c-2.7,0-4-1.5-4-4.5v-5.7l-12.7,1.3v-3.9l12.7-1.3v-5l-9.7,1v-3.9l9.7-1v-5.1
				c-3.2,0.3-6.5,0.5-9.8,0.7l-1.1-3.3c11-0.7,19.8-1.8,26.3-3.5l1.9,3.3c-4.3,1-8.7,1.8-13.2,2.4v5.1l13.8-1.4v3.8l-13.8,1.5v5
				l16.9-1.7v3.9l-16.9,1.7v5.2c0,1.1,0.4,1.6,1.2,1.6h10c0.8,0,1.4-0.2,1.7-0.6c0.5-0.5,0.8-1.8,0.9-4l3.9,1.3
				c-0.4,3.5-1,5.5-1.9,6.2c-0.8,0.6-2.1,1-3.8,1H217.7z"/>
			<path fill="#EA8C38" d="M267.2,104.4h-24v-3.8h29.5v3.8c-3.5,3.1-7.4,6.1-11.8,8.9v16.1c0,2.8-1.4,4.2-4.1,4.2
				c-2.3,0-4.3-0.1-6-0.3l-1.1-3.8c1.9,0.2,3.9,0.4,6,0.4c0.8,0,1.2-0.4,1.2-1.3v-17.3C260.5,109.3,264,107,267.2,104.4z"/>
			<path fill="#EA8C38" d="M300.4,125c0.5,0.5,0.8,1.2,0.8,2.1c0,0.8-0.3,1.6-0.8,2.1c-0.6,0.5-1.3,0.8-2.1,0.8s-1.5-0.3-2.1-0.8
				c-0.6-0.5-0.9-1.2-0.9-2.1c0-0.8,0.3-1.5,0.9-2.1c0.5-0.5,1.2-0.8,2.1-0.8S299.8,124.5,300.4,125z M300.9,102.8l-1,19.3h-3.2
				l-1-19.3H300.9z"/>
		</g>
	</g>
	<path fill="#EDA939" d="M43.1,87.5c106.6-1.3,213.2,0.4,319.5,5.2c0,0,0.1-2.4,0-2.4c-106.4-4.8-213-6.5-319.5-5.2
		C43.1,85.1,43.1,87.5,43.1,87.5L43.1,87.5z"/>
	<path fill="#EDA939" d="M43.1,139.2c92.4,3.7,185.1,4.7,277.7,2.9c0.1,0,0-2.4,0-2.4c-92.6,1.8-185.3,0.8-277.7-2.9
		C43.2,136.8,43,139.2,43.1,139.2L43.1,139.2z"/>
	<path fill="#FFFFFF" d="M125.5,169.4c0,0,2.2,34.3-13.1,44.6c0,0,38.7-7.2,46.8-44.6H125.5z"/>
</g>
<g>
</g>
<g>
</g>
<g>
</g>
<g>
</g>
<g>
</g>
<g>
</g>
<g>
</g>
<g>
</g>
<g>
</g>
<g>
</g>
<g>
</g>
<g>
</g>
<g>
</g>
<g>
</g>
<g>
</g>
</svg>
