<?xml version="1.0" encoding="utf-8"?>
<!-- Generator: Adobe Illustrator 18.0.0, SVG Export Plug-In . SVG Version: 6.00 Build 0)  -->
<!DOCTYPE svg PUBLIC "-//W3C//DTD SVG 1.1//EN" "http://www.w3.org/Graphics/SVG/1.1/DTD/svg11.dtd">
<svg version="1.1" id="Layer_1" xmlns="http://www.w3.org/2000/svg" xmlns:xlink="http://www.w3.org/1999/xlink" x="0px" y="0px"
	 viewBox="0 0 875.4 666.7" enable-background="new 0 0 875.4 666.7" xml:space="preserve">
<g>
	<path fill="#E38A81" d="M870.7,579.3l-26.5-13.9c-7.5-3.9-5.7-13.9,2.9-15.6l19.7-3.8c8.5-1.7,10.4-11.6,2.9-15.5l-38.9-20.7
		c-6.5-3.5-6.1-11.8,0.7-14.8l23.2-10.2c6.9-3.1,7.1-11.7,0.4-15l-30.7-15.1c-6.5-3.2-6.6-11.3-0.3-14.7l25.4-13.5
		c6.3-3.3,6.2-11.4-0.2-14.6l-24.4-12.4c-5.8-3-6.5-10.1-1.3-13.9l46.3-33.8c7-5.1,2.9-15-6.2-15h-55.4h-5.2H72.4h-15H47.2
		c-9.2,0-13.2,10.1-6,15.1l7.2,5c6.2,4.3,4.2,12.9-3.3,14.8l-4.9,1.2c-7.6,1.9-9.5,10.5-3.3,14.8c6.3,4.3,4.2,13.1-3.5,14.9
		l-26.2,6.1c-8.3,1.9-9.8,11.6-2.5,15.5l26.5,13.9c7.5,3.9,5.7,13.9-2.9,15.6l-19.7,3.8c-8.5,1.7-10.4,11.6-2.9,15.5l38.9,20.7
		c6.5,3.5,6.1,11.8-0.7,14.8l-23.2,10.2c-6.9,3.1-7.1,11.7-0.4,15L51,549c6.5,3.2,6.6,11.3,0.3,14.7l-25.4,13.5
		c-6.3,3.3-6.2,11.4,0.2,14.6l24.4,12.4c5.8,3,6.5,10.1,1.3,13.9L5.6,651.7c-7,5.1-2.9,15,6.2,15h45.6h15h730.5h5.2h20.1
		c9.2,0,13.2-10.1,6-15.1l-7.2-5c-6.2-4.3-4.2-12.9,3.3-14.8l4.9-1.2c7.6-1.9,9.5-10.5,3.3-14.8c-6.3-4.3-4.2-13.1,3.5-14.9
		l26.2-6.1C876.4,592.8,878,583.1,870.7,579.3z"/>
	<path fill="#E27E7D" d="M72.3,423.2c77.8-0.7,155.7-1.2,233.5-1.4c77.6-0.2,155.2-0.1,232.8,0.2c43.9,0.2-2.9,0.5,41,0.8
		c9.7,0.1,4.5-9.7-2.6-9.8c-78.1-0.6-65.6-1-143.6-1.1c-78.2-0.1-156.3,0.1-234.5,0.5c-44.2,0.2-88.4,0.6-132.6,1
		c-3.5,0-4.6,3.1-3.3,5.5C64.7,421.9,68.8,423.3,72.3,423.2L72.3,423.2z"/>
	<path fill="#E27E7D" d="M375.7,472.7c121.7,6.5,243.8,9.3,365.7,8.1c34.3-0.3,68.6-0.9,102.8-1.9c9.2-0.2,7.2-12.8-1.1-12.6
		c-121.9,3.3-244,2.7-365.8-1.7c-34.3-1.2-68.5-2.8-102.7-4.6C365.5,459.6,367.5,472.2,375.7,472.7L375.7,472.7z"/>
	<path fill="#836031" d="M527.9,547.7c79.5-1.8,159.1-2.1,238.7-0.9c22.4,0.4,44.7,0.8,67.1,1.4c9.2,0.2,9.7-11.5,0.1-11.8
		c-79.5-2.1-159.1-2.7-238.7-1.8c-22.4,0.3-44.7,0.7-67.1,1.2C518.8,536.1,518.2,547.9,527.9,547.7L527.9,547.7z"/>
	<path fill="#E27E7D" d="M169.6,520.2c106.6,4,213.3,8,319.9,12.1c30.3,1.1,60.6,2.3,90.8,3.4c3.6,0.1,7.7-1.6,8.4-5
		c0.6-3.2-2.8-5.9-6.3-6c-106.6-4-213.3-8-319.9-12.1c-30.3-1.1-60.6-2.3-90.8-3.4c-3.6-0.1-7.7,1.6-8.4,5
		C162.7,517.4,166.2,520.1,169.6,520.2L169.6,520.2z"/>
	<path fill="#E27E7D" d="M102.9,591c69-2.1,138-1.8,207,0.9c19.7,0.8,39.4,1.8,59.1,2.9c3.6,0.2,7.2-2.3,7.1-5.6
		c-0.1-3.5-4.1-5.7-7.7-5.9c-68.9-4.1-137.9-5.8-206.9-5.1c-19.7,0.2-39.4,0.6-59.1,1.2C92.7,579.8,93.8,591.3,102.9,591L102.9,591z
		"/>
	<path fill="#F2B964" d="M380,318.5c0,0,25.2,14,79.8-68.4c39-58.8,32.8-124.2,26.1-156.9c-2.5-12.2-13.3-20.9-25.7-20.9h-23.6
		c-12.2,0-22.7,8.4-25.6,20.2c-11,45.5-42.6,61.2-42.6,61.2"/>
	<path fill="#FFCE79" d="M368.4,153.7l-196.2,80.7c0,0-17.4,26.7-34.1,64.7l0,0h0c-12.9,29.4-25.5,65.5-29.2,101.1
		c-1.4,12.8,7.2,24.2,18.8,24.8l46.1,2.4c6.5,0.3,12.7-2.9,16.6-8.6l60.9-87.7L380,318.5"/>
	<path fill="#75B191" d="M138,299.1l106.3,39.7h156.4c0,0,6.4-8.5,15.1-20.5c15.4-21.3,37.9-53.5,44-68.2l-85.2-100.3L151.4,262.3
		L138,299.1z"/>
	<polygon fill="#75B191" points="420.1,296.1 420.1,338.8 392.9,338.8 	"/>
	<path fill="#75B191" d="M386.6,375.6"/>
	<linearGradient id="SVGID_1_" gradientUnits="userSpaceOnUse" x1="386.5611" y1="375.5965" x2="386.5611" y2="375.5965">
		<stop  offset="0" style="stop-color:#C7C8CA"/>
		<stop  offset="1" style="stop-color:#BCBEC0"/>
	</linearGradient>
	<path fill="url(#SVGID_1_)" d="M386.6,375.6"/>
	<g>
		<path fill="#EDA939" d="M371.3,250.3c0,0,67,11.6,42.2-53l-17.8-4.8L371.3,250.3z"/>
		<path fill="#EDA939" d="M177.6,91.8c0,0,4-41.7,45.9-31.2c5.2,1.3,10.7,0.2,14.6-3.5c8.2-7.6,24.4-17.9,43.5-4.1
			c4.1,3,9.4,3.9,14.2,2.4c20.2-6.4,26.9,2.3,38.1,19c0,0,21.7-1.9,21.8-1.9c36-3.1,56.4,33.2,45.9,65.5c-1.7,5.4,1.6,11.1,7,12.2
			c9.4,1.8,21.8,6.9,23.2,21.4c2.2,23.7-20,26.8-20,26.8L176,105.7L177.6,91.8z"/>
		<path fill="#EDA939" d="M151.6,122.6c0,0-42.5,16.7-36.6,55c3.4,21.9,17.6,31.5,29.2,35.7c7.3,2.7,11,10.7,7.9,17.9
			c-3.2,7.4-6,16.8-5.3,25.8c0.9,12.3,4.5,24.8,13.1,33.9c7.9,8.3,18.4,12.9,29.7,13.8c10.3,0.8,25.8-6.3,31.6,5.8
			c5.3,11,17.9,26.8,44.7,20.4c0,0,16.6-3.5,22.7-19.6c1.2-3.1,5.1-4.1,7.4-1.6c4.7,4.9,12.5,10.3,24.2,9.5
			c17.8-1.1,23.3-15.6,24.9-24.3c0.6-2.9,3.7-4.5,6.3-3.2c7.9,3.7,23,7.3,35.9-10.2c18.2-24.8-13.7-55.4-13.7-55.4L151.6,122.6z"/>
		<path fill="#F2B964" d="M281.3,72.2c-3.8-0.5,1-18.8,1.8-20.4c5.7-10.9,19.8-17.6,31.7-13.3c15.2,5.5,19.6,26.6,15.8,40.5
			C330.6,79,281.4,72.2,281.3,72.2z"/>
		<path fill="#FFCE79" d="M397.1,157c-2.9-7.8-7.5-14.8-12.5-21.5c-3.8-5.2-8-10.2-11.9-15.3C362.6,106.8,351.5,89,337.9,79
			c-18.4-13.5-42.1-16.1-64.3-15c-24.6,1.2-46.3,11.4-66.3,26.2c-0.9,0.6-9.4,8-9.5,7.9c-11-7.9-27.4-5.1-38.8,2.4
			c-11.2,7.4-16.5,23.2-10.8,35.4c4.2,11.2,15.6,19,24.4,22.4c0.1,0-0.1,0,0,0c-1.5,10.2-1.3,14.5,0.1,24.7
			c3.6,26.6,17.2,51.8,37.9,68.9c18.4,15.3,41.9,24.1,65.8,26.2c26,2.3,52.8-3.1,75-16.6c22.3-13.5,39.6-35.4,46.4-60.5
			C401.9,186.6,402.3,170.9,397.1,157z"/>
		<path fill="#F2B964" d="M173.2,148.7c6.6,2.6,13-8.4,17.6-20.6c4.4-11.7-5.5-24.2-17.9-22.1c-6.9,1.2-13.6,5-18.3,14
			c0,0,0,0.1-0.1,0.1c-3.4,6.6-1.7,14.6,3.8,19.6C162.8,143.8,168.3,146.8,173.2,148.7z"/>
		<circle fill="#F0AB4B" cx="284.2" cy="167.5" r="11"/>
		<circle fill="#F0AB4B" cx="350.3" cy="137.7" r="10.6"/>
		<path fill="#F1B55B" d="M310.4,167.2l-16.9-14.7l0,0c-4.5-3.3-4.1-10.2,0.8-13l19.3-11.2c2.4-1.4,5.3-1.4,7.7,0
			c7.6,4.3,21.3,15.2,25,22.2"/>
		<circle fill="#E87D4C" cx="248.3" cy="208.8" r="26.4"/>
		<circle fill="#E87D4C" cx="374" cy="149.6" r="14.7"/>
		<path fill="#EA8C38" d="M312.3,160.4c7-3.9,16.8-8.6,28.2-12.2c4-1.3,7.7,2.8,6.1,6.7l-8.2,19l-24.4-4.3
			C309.3,168.8,308.2,162.6,312.3,160.4z"/>
		<path fill="#F1B55B" d="M270.9,130.9c-5.5,3.2-11.5,9.1-9.4,18.7c0.6,2.5,4.2,2.8,5.5,0.4l8-15.6
			C276.3,131.9,273.4,129.4,270.9,130.9z"/>
		<path fill="#F1B55B" d="M315.9,104.8c6.1-1.6,14.6-1.9,19.9,6.4c1.4,2.2-1,5-3.5,4.2l-16.7-5.2
			C312.8,109.4,313.1,105.6,315.9,104.8z"/>
		<path fill="none" stroke="#48484A" stroke-width="3" stroke-linecap="round" stroke-linejoin="round" stroke-miterlimit="10" d="
			M278.6,166.6c0,0,4.2-1.4,9-1.7c1.9-0.1,2.2,1.7,0.4,2.4c-3.1,1.4-6.5,3.3-7.7,5.4"/>
		<path fill="none" stroke="#48484A" stroke-width="3" stroke-linecap="round" stroke-linejoin="round" stroke-miterlimit="10" d="
			M353.2,132.6c0,0-4,2-7.6,5.1c-1.4,1.2-0.4,2.7,1.4,2.1c3.1-1.2,6.9-2.2,9.2-1.5"/>
		<path fill="#EA8C38" d="M301.6,196.2c12.6-2.3,41.5-10.2,52.6-26.4c1.6-2.4,5.2-1.7,5.9,1.1c2.1,9.2,2.4,24.5-14.6,33.3
			c-23.3,12.1-38.4,3.8-45.4-2.4C298,200,299,196.7,301.6,196.2z"/>
		
			<line fill="none" stroke="#EA8C38" stroke-width="3" stroke-linecap="round" stroke-linejoin="round" stroke-miterlimit="10" x1="336.4" y1="166.7" x2="340.6" y2="182.4"/>
		<path fill="#FFFFFF" d="M313.1,195.5c6.7-1.1,27.5-5.6,41.1-20.7c1-1.1,2.7-0.7,3.1,0.6l0.1,0.4c0.2,0.5,0.1,1.1-0.1,1.5
			c-2.1,3.6-12.9,19-43.8,21.8c-0.8,0.1-1.6-0.4-1.9-1.2l0,0C311.2,196.9,311.9,195.7,313.1,195.5z"/>
		<path fill="#FFFFFF" d="M311.6,197.9l3.7,4.9c1.1,1.4,3.2,1,3.8-0.6l1.8-5.3L311.6,197.9z"/>
		<path fill="#FFFFFF" d="M352.6,181.1l4.1,3c0.6,0.5,1.5,0,1.4-0.8l-0.6-7.5L352.6,181.1z"/>
	</g>
	<g>
		<linearGradient id="SVGID_2_" gradientUnits="userSpaceOnUse" x1="474.6121" y1="291.8142" x2="767.2611" y2="291.8142">
			<stop  offset="0" style="stop-color:#C2C4C6"/>
			<stop  offset="1" style="stop-color:#BCBEC0"/>
		</linearGradient>
		<path fill="url(#SVGID_2_)" d="M547.8,200.4c0,0-102.2,65-65,153.3c0,0,26,52,116.1,19.9c0,0,112.4,41.6,150.6-11.3
			s11.4-112.6-47.5-168.1L547.8,200.4z"/>
		<g>
			<path fill="#797A7D" d="M598.8,373.6c5.1-4.3,10.6-8.2,16.1-11.9c2.7-1.9,5.5-3.6,8.3-5.5c2.8-1.8,5.6-3.5,8.5-5.2
				c2.9-1.7,5.7-3.4,8.6-5c2.9-1.6,5.8-3.2,8.8-4.7c5.9-3.1,11.9-6,18.1-8.5l0,0c0.1,0,0.2,0,0.2,0.1c0,0.1,0,0.1-0.1,0.2
				l-34.1,20.5l-34.2,20.3c-0.1,0-0.2,0-0.2-0.1C598.7,373.7,598.7,373.6,598.8,373.6L598.8,373.6z"/>
		</g>
		<path fill="#F5C15D" d="M491.9,257.6l51.9,24.8c0,0,49.6-29.2,121.6-3.6l15.6,5.6l64.1-39.8L697,178.8L519,224
			C519,224,501,239.9,491.9,257.6z"/>
		<path fill="#F2A959" d="M527.2,231.4c0,0,7.1,30.9,76.1,32.8s102.7-19.1,122.2-46.4l-14.9-20.6L527.2,231.4z"/>
		<g>
			<path fill="#797A7D" d="M525.9,291.7c1.3-1.1,2.7-2,4.1-3c1.4-0.9,2.9-1.8,4.3-2.7c2.9-1.7,5.9-3.3,8.9-4.8
				c6.1-2.9,12.5-5.3,19-7.4c13-4.1,26.6-6.3,40.2-6.7c6.8-0.1,13.6,0,20.4,0.7l2.5,0.2l2.5,0.3l5.1,0.7c3.3,0.6,6.7,1.1,10,2l5,1.2
				c1.6,0.4,3.3,0.9,4.9,1.4c3.3,0.9,6.5,1.9,9.7,3c0.8,0.3,1.6,0.5,2.4,0.9l2.4,0.9l4.7,1.9c3.1,1.3,6.2,2.8,9.2,4.2l0,0
				c0.1,0,0.1,0.1,0.1,0.2c0,0.1-0.1,0.1-0.2,0.1c-12.4-5-25.3-8.9-38.5-11.4l-2.5-0.5l-2.5-0.4l-5-0.8l-5-0.6l-2.5-0.3l-2.5-0.2
				c-6.7-0.6-13.4-0.7-20.1-0.5c-13.4,0.4-26.7,2.4-39.7,6c-6.5,1.8-12.8,4-19,6.6c-6.1,2.6-12.2,5.6-17.8,9.3c-0.1,0-0.2,0-0.2,0
				C525.8,291.8,525.8,291.7,525.9,291.7z"/>
		</g>
		<g>
			<path fill="#797A7D" d="M665.3,345.1c-0.3-6.9,0.3-13.7,1.3-20.5c0.4-3.4,1.1-6.8,1.8-10.1c0.7-3.4,1.6-6.7,2.6-10
				c1-3.3,2.1-6.6,3.4-9.8c1.3-3.2,2.7-6.4,4.4-9.4c1.7-3.1,3.6-6,5.8-8.7c2.2-2.7,4.7-5.2,7.7-7l0,0c0.1,0,0.2,0,0.2,0
				c0,0.1,0,0.1,0,0.2c-2.5,2.2-4.7,4.9-6.6,7.7c-1.9,2.8-3.5,5.8-5,8.8c-2.9,6.1-5.2,12.5-7.1,19c-1.9,6.5-3.6,13.1-4.9,19.7
				c-1.3,6.6-2.5,13.3-3.3,20.1c0,0.1-0.1,0.1-0.2,0.1C665.3,345.3,665.3,345.2,665.3,345.1L665.3,345.1z"/>
		</g>
	</g>
	<g>
		
			<linearGradient id="SVGID_3_" gradientUnits="userSpaceOnUse" x1="485.2647" y1="81.3511" x2="528.5825" y2="208.5972" gradientTransform="matrix(0.9936 0.1134 -0.1134 0.9936 146.8683 129.5258)">
			<stop  offset="0" style="stop-color:#C7C8CA"/>
			<stop  offset="3.733511e-002" style="stop-color:#C2C4C6"/>
			<stop  offset="1" style="stop-color:#ABADB0"/>
		</linearGradient>
		<path fill="url(#SVGID_3_)" d="M728.6,160.6c0.1-3.9-0.1-7.7-0.5-11.6c-1.7-15.1-7.1-30.5-15.3-43.2c-1-1.5-2.1-3-3.3-4.5l0,0
			c-2.7-3.5-5.9-7.1-8.5-10.9c-2.1-2.3-4.4-4.6-6.8-6.8l3.2-20.1c1.1-7.1,0.5-14.3-1.8-21.1l-9.5-27.9c-0.3-5.9-4-11.2-9.5-13.4
			c-7.7-3-16.5,0.6-19.6,8.3c-6,14.9-0.5,28.7,4.2,36.8c2.8,4.8,4.4,10.2,4.5,15.8c-7.2-4.6-12.2-7.3-12.2-7.3
			c-14-4.5-24.3-4.8-24.3-4.8c-12.5-1.7-25.4-0.9-38.1,2.8c-18.8,5.5-36.2,17.2-49.1,31.9c-15.2,17.1-32.7,33.3-52.7,44.5
			c-2.1,1.2-4.1,2.6-5.9,4.2c-10.2-1.9-19.2,7.3-21.1,17.6c-0.9,4.5-0.1,8,1.7,11c2.4,4,3.8,8.4,4,13c0.5,10,3.5,19.9,8.8,28.4
			c12.4,20.1,37.6,35.1,60,41.4c14.9,4.2,30.5,6.1,46,6.9c14.7,0.8,29.5,0.5,44.2-0.5C734.2,244.2,728.6,160.6,728.6,160.6z"/>
		<g>
			<path fill="#797A7D" d="M489.3,129.1c-1,0.7-1.9,1.5-2.8,2.3c-0.9,0.8-1.7,1.7-2.5,2.5c-0.2,0.2-0.4,0.3-0.6,0.2l-0.2,0
				c-1.7-0.1-3.3,0-4.9,0.5c-1.5,0.5-3,1.1-4.3,2c-2.7,1.8-4.8,4.3-6.4,7.1c-1.6,2.8-2.6,6-2.9,9c-0.1,1.5-0.1,3,0.3,4.4
				c0.2,0.7,0.4,1.4,0.7,2c0.1,0.3,0.3,0.7,0.5,1l0.7,1.2c1.8,3.4,3.1,7.2,3.5,11.1c0.1,0.5,0.1,1,0.1,1.5l0,1.4
				c0,0.9,0.1,1.7,0.1,2.6c0.1,1.7,0.2,3.4,0.5,5.1c1,6.8,3,13.6,5.9,20.1l0,0c0,0.1,0,0.2-0.1,0.2c-0.1,0-0.1,0-0.2-0.1
				c-3.8-6.1-6.4-12.8-7.8-19.9c-0.4-1.8-0.6-3.5-0.8-5.3c-0.2-1.8-0.2-3.6-0.5-5.3c-0.5-3.5-1.7-6.9-3.4-10c-0.9-1.5-1.8-3.2-2.2-5
				c-0.4-1.8-0.5-3.6-0.3-5.4c0.5-3.6,1.7-7.1,3.6-10.1c0.4-0.8,1-1.5,1.5-2.2c0.3-0.4,0.6-0.7,0.9-1c0.3-0.3,0.6-0.7,0.9-1
				c1.3-1.3,2.7-2.4,4.3-3.3c1.6-0.9,3.3-1.5,5.1-1.8c1.8-0.3,3.6-0.3,5.4,0l-0.1,0c1.8-1.6,3.8-3,6-4.2c0.1,0,0.2,0,0.2,0.1
				C489.4,129,489.4,129.1,489.3,129.1L489.3,129.1z"/>
		</g>
		<g>
			<path fill="#797A7D" d="M493,149.3c1.4,0.9,2.5,2.3,3.2,3.9c0.7,1.6,1.1,3.3,1.1,5.1c0,1.8-0.2,3.6-0.9,5.1
				c-0.4,0.8-0.9,1.5-1.4,2.2c-0.6,0.7-1.2,1.3-1.9,1.8c-0.1,0-0.1,0-0.2,0c0,0,0-0.1,0-0.1l0,0c0.1-0.9,0.3-1.7,0.5-2.5
				c0.2-0.8,0.4-1.5,0.6-2.3c0.1-0.4,0.2-0.7,0.3-1.1c0.1-0.4,0.3-0.7,0.4-1.1l0.4-1.1l0.2-1.1c0.2-1.5,0.2-3-0.2-4.5
				c-0.4-1.5-1.1-2.9-2.2-4.1l0,0c0-0.1,0-0.1,0-0.2C492.9,149.3,493,149.2,493,149.3z"/>
		</g>
		<path fill="#808285" d="M471,161.4c0.1-0.7,0.6-1.5,1.9-2.2c2.2-1.2,7.9-1.7,7.8,2.8c-0.1,3.3-1.6,4.4-3.9,4
			C474.8,165.6,470.8,163.5,471,161.4z"/>
		<circle fill="#9A9FA3" cx="543.2" cy="136.4" r="12.4"/>
		<circle fill="#6B6C6F" cx="541.8" cy="134.4" r="7.9"/>
		<path fill="#FFFFFF" d="M514.1,112.4l-45-68.9c-1.7-2.6-5.7-1.3-5.6,1.7c0.4,19,3.4,60,20.5,88.1
			C483.9,133.3,495.2,129.5,514.1,112.4z"/>
		<g>
			<path fill="#797A7D" d="M531.6,168.2c-1.5,2-2.8,4.1-3.8,6.3c-1,2.2-1.6,4.5-1.8,6.8c-0.1,0.6-0.1,1.2-0.1,1.7
				c0,0.6-0.1,1.2,0,1.8l0.1,1.8c0.1,0.6,0.2,1.2,0.3,1.8l0.2,0.9l0.3,0.9l0.5,1.8c0.4,1.2,0.9,2.3,1.3,3.5c-0.8-0.9-1.7-2-2.4-3
				l-0.9-1.7c-0.2-0.3-0.3-0.6-0.4-0.9l-0.3-0.9c-0.2-0.6-0.4-1.2-0.6-1.9l-0.3-2c-0.1-0.7-0.1-1.3-0.1-2c0-0.7,0-1.3,0.1-2
				c0.2-2.7,1.2-5.2,2.6-7.5C527.5,171.4,529.4,169.5,531.6,168.2z"/>
		</g>
		<path fill="none" d="M701.5,91.2c2.6,3.8,5.7,7.4,8.5,10.9C707.6,98.3,704.7,94.7,701.5,91.2z"/>
		<polygon fill="#91929D" points="710,102 710,102 710,102 		"/>
		<g>
			<path fill="#797A7D" d="M524.2,184.4c-2.3,0.1-4.6,0-6.9-0.1l-3.4,0.2c-1.1,0.1-2.3,0-3.4,0.2c-2.2,0.3-4.5,0.4-6.6,1
				c-0.5,0.1-1.1,0.2-1.6,0.3c-0.5,0.1-1.1,0.2-1.6,0.4l-3.2,1c-4.1,1.5-8.1,3.5-11.6,6.2c-3.5,2.7-6.7,5.9-9.2,9.8
				c1.4-4.4,4.3-8.4,7.7-11.5c3.5-3.2,7.7-5.6,12.2-7.2l3.4-1c0.6-0.2,1.1-0.3,1.7-0.4c0.6-0.1,1.2-0.2,1.7-0.3
				c2.3-0.5,4.7-0.5,7-0.5l0.9,0c0.3,0,0.6,0,0.9,0.1c0.6,0,1.2,0.1,1.7,0.1l3.5,0.3C519.8,183.3,522,183.8,524.2,184.4z"/>
		</g>
		
			<linearGradient id="SVGID_4_" gradientUnits="userSpaceOnUse" x1="863.2282" y1="73.763" x2="863.2282" y2="90.3656" gradientTransform="matrix(1.1039 -0.3058 0.2669 0.9637 -434.7681 304.6074)">
			<stop  offset="0" style="stop-color:#C7C8CA"/>
			<stop  offset="1" style="stop-color:#B1B3B6"/>
		</linearGradient>
		<path fill="url(#SVGID_4_)" d="M552.2,127.3l-18.7,5.2c-5.2,1.4-10.6-1.6-12-6.8v0c-1.4-5.2,1.6-10.6,6.8-12l18.7-5.2
			c5.2-1.4,10.6,1.6,12,6.8v0C560.5,120.5,557.4,125.9,552.2,127.3z"/>
		<g>
			<path fill="#797A7D" d="M524.5,116.4c-0.4,2-0.7,3.7-0.9,5.3c-0.1,1.6,0,3,0.4,4.1c0.4,1.1,1.3,2.2,2.5,3.2
				c1.2,1.1,2.7,2.1,4.3,3.3l0,0c0.1,0,0.1,0.1,0,0.2c0,0-0.1,0.1-0.1,0c-1.8-0.4-3.6-0.9-5.2-1.9c-1.6-0.9-3.1-2.2-3.8-4
				c-0.7-1.8-0.6-3.8,0-5.6c0.5-1.8,1.5-3.5,2.6-4.9c0-0.1,0.1-0.1,0.2,0C524.5,116.2,524.5,116.3,524.5,116.4L524.5,116.4z"/>
		</g>
		<g>
			<path fill="#797A7D" d="M486.9,215.9c2.8,3,6,5.6,9.3,7.9c0.8,0.6,1.7,1.2,2.5,1.7l2.5,1.6c1.8,1,3.5,2.1,5.3,3
				c7.1,3.8,14.6,7,22.2,9.6c7.6,2.8,15.5,4.8,23.4,6.9c2,0.5,4,0.9,6,1.4c2,0.5,4,1,6,1.4c4,0.8,8.1,1.6,12.1,2.7l0,0
				c0.1,0,0.1,0.1,0.1,0.2c0,0.1-0.1,0.1-0.2,0.1l-12.3-1.4c-4.1-0.6-8.1-1.3-12.2-2l-6-1.3c-2-0.5-4-0.8-6-1.4l-6-1.7l-1.5-0.4
				l-1.5-0.5l-2.9-1c-3.9-1.3-7.7-3-11.5-4.6l-5.6-2.7c-1.8-1-3.6-2-5.4-3c-1.8-1.1-3.5-2.2-5.2-3.4l-2.5-1.9
				c-0.8-0.6-1.7-1.2-2.4-1.9c-3.2-2.6-6.2-5.5-8.6-8.9c0-0.1,0-0.2,0-0.2C486.8,215.8,486.9,215.8,486.9,215.9L486.9,215.9z"/>
		</g>
	</g>
</g>
<g>
</g>
<g>
</g>
<g>
</g>
<g>
</g>
<g>
</g>
<g>
</g>
<g>
</g>
<g>
</g>
<g>
</g>
<g>
</g>
<g>
</g>
<g>
</g>
<g>
</g>
<g>
</g>
<g>
</g>
</svg>
