<?xml version="1.0" encoding="utf-8"?>
<!-- Generator: Adobe Illustrator 18.0.0, SVG Export Plug-In . SVG Version: 6.00 Build 0)  -->
<!DOCTYPE svg PUBLIC "-//W3C//DTD SVG 1.1//EN" "http://www.w3.org/Graphics/SVG/1.1/DTD/svg11.dtd">
<svg version="1.1" id="Layer_1" xmlns="http://www.w3.org/2000/svg" xmlns:xlink="http://www.w3.org/1999/xlink" x="0px" y="0px"
	 viewBox="0 0 260 161.3" enable-background="new 0 0 260 161.3" xml:space="preserve">
<g>
	<path fill="#FFFFFF" d="M69.7,139.4h120.6c38.5,0,69.7-31.2,69.7-69.7v0C260,31.2,228.8,0,190.3,0L69.7,0C31.2,0,0,31.2,0,69.7v0
		C0,108.2,31.2,139.4,69.7,139.4z"/>
	<path fill="#FFFFFF" d="M114,129.9c0,0,1.5,24.2-9.2,31.4c0,0,27.2-5.1,33-31.4H114z"/>
	<g>
		<path fill="#616264" d="M70.4,90.2c0-3.2,2.3-5.8,5.5-5.8c3.2,0,5.5,2.5,5.5,5.8s-2.3,5.8-5.5,5.8C72.7,95.9,70.4,93.4,70.4,90.2z
			"/>
		<path fill="#616264" d="M92.9,90.2c0-3.2,2.3-5.8,5.5-5.8c3.2,0,5.5,2.5,5.5,5.8s-2.3,5.8-5.5,5.8C95.2,95.9,92.9,93.4,92.9,90.2z
			"/>
		<path fill="#616264" d="M115.4,90.2c0-3.2,2.3-5.8,5.5-5.8c3.2,0,5.5,2.5,5.5,5.8s-2.3,5.8-5.5,5.8
			C117.7,95.9,115.4,93.4,115.4,90.2z"/>
		<path fill="#616264" d="M137.9,90.2c0-3.2,2.3-5.8,5.5-5.8c3.2,0,5.5,2.5,5.5,5.8s-2.3,5.8-5.5,5.8
			C140.2,95.9,137.9,93.4,137.9,90.2z"/>
		<path fill="#616264" d="M160.4,90.2c0-3.2,2.3-5.8,5.5-5.8c3.2,0,5.5,2.5,5.5,5.8s-2.3,5.8-5.5,5.8
			C162.7,95.9,160.4,93.4,160.4,90.2z"/>
		<path fill="#616264" d="M182.9,90.2c0-3.2,2.3-5.8,5.5-5.8c3.2,0,5.5,2.5,5.5,5.8s-2.3,5.8-5.5,5.8
			C185.2,95.9,182.9,93.4,182.9,90.2z"/>
	</g>
</g>
<g>
</g>
<g>
</g>
<g>
</g>
<g>
</g>
<g>
</g>
<g>
</g>
<g>
</g>
<g>
</g>
<g>
</g>
<g>
</g>
<g>
</g>
<g>
</g>
<g>
</g>
<g>
</g>
<g>
</g>
</svg>
