<?xml version="1.0" encoding="utf-8"?>
<!-- Generator: Adobe Illustrator 18.0.0, SVG Export Plug-In . SVG Version: 6.00 Build 0)  -->
<!DOCTYPE svg PUBLIC "-//W3C//DTD SVG 1.1//EN" "http://www.w3.org/Graphics/SVG/1.1/DTD/svg11.dtd">
<svg version="1.1" id="Layer_1" xmlns="http://www.w3.org/2000/svg" xmlns:xlink="http://www.w3.org/1999/xlink" x="0px" y="0px"
	 viewBox="0 0 1048.7 662.3" enable-background="new 0 0 1048.7 662.3" xml:space="preserve">
<g>
	<path fill="#F58258" d="M537,277.7c0,0-42.1-72.8-46.8-82.9l-255.6,38.2c0,0-16.8,8.6-31.4,47.3c-7.2,10.4-16.1,25.8-26.1,48.3
		c-9,20.3-4.5,65.3,11.9,80.2c5.8,5.3,13.4,9.7,23.1,11.9c0,0,26.8,2,63.8,3.5l26.4,1.4H302c64.9,1.7,146.2-8.3,175.7-23.2l-4.9-77
		L537,277.7z"/>
	<path fill="#F58258" d="M461.8,300.8c0,0,19.7,57.1,15.9,101.6l-14.2-39.2L461.8,300.8z"/>
	<path fill="#D65B51" d="M420,249.6l-19.7,39.1c-3.3,7.6-13.1,9.7-19.3,4.2l-16.9-15L349,300.4c-3.6,5.3-10.7,7-16.3,3.7l-44.6-25.9
		L420,249.6z"/>
	<g>
		<circle fill="#D65B51" cx="376.9" cy="333.7" r="31.4"/>
		<polygon fill="#EBE5C9" points="367,323.6 368.7,310.1 394,331.3 373.5,357.6 378.2,338.2 		"/>
	</g>
	<path fill="#A3A5A8" d="M482.9,200.1l53.2,76.7l16.7-14.6c8.9-7.8,12.5-20.1,9.1-31.3l-1.6-5.1c-1-3.2-2.5-6.2-4.4-8.9l-15.8-21.6
		c-3.4-4.6-8-8.1-13.3-10.2h0c-9.5-3.6-20.3-2.2-28.6,3.9L482.9,200.1z"/>
	<path fill="#ABADB0" d="M355.9,44.2l84.8-7.7c29-2.6,57.7,7.4,78.7,27.5l0,0c29.9,28.5,39.3,72.4,23.7,110.7l-7,17.3
		c-16.7,41.1-58.3,66.5-102.5,62.4l-22.7-2.1"/>
	<path fill="#939598" d="M424.3,229.6L424.3,229.6c33.8,3.1,65.7-16.3,78.5-47.8l5.4-13.2c12.9-31.7,3.4-68.5-24.2-89.9
		c-15.7-12.2-35.6-17.6-55.3-15.8l-48.1,4.4c-8.2,0.7-13.8,8.7-11.7,16.7l33.6,127.2C405.1,221.3,413.9,228.7,424.3,229.6z"/>
	
		<linearGradient id="SVGID_1_" gradientUnits="userSpaceOnUse" x1="-8777.7168" y1="1086.4027" x2="-8842.8232" y2="1262.4847" gradientTransform="matrix(-0.9829 0.184 0.184 0.9829 -8505.0684 689.8375)">
		<stop  offset="0" style="stop-color:#BCBEC0"/>
		<stop  offset="1" style="stop-color:#A3A5A8"/>
	</linearGradient>
	<path fill="url(#SVGID_1_)" d="M243.9,265.1c55.2,26.3,115.7,26.8,170.1-2.2c26.2-13.9,48.2-36.7,47.7-68c-0.1-8.9-2.2-17.5-4.9-26
		c-7.5-22.7-4.6-46.2-10.9-68.9c-4.7-16.7-14.8-31.4-27.6-42.9c-25-22.5-57.7-29.7-94.5-31.1c-27-1-67,10-87,29.6"/>
	<path fill="#A1A3A6" d="M424.9,133.2c4,5.8,2.6,13.7-3.2,17.6c-5.8,4-13.7,2.5-17.7-3.3c-4-5.8-2.6-13.7,3.2-17.6
		C413,126,420.9,127.4,424.9,133.2z"/>
	<path fill="#67686B" d="M420.2,135.6c2.2,3.6,1.1,8.4-2.6,10.6c-3.6,2.2-8.4,1-10.6-2.6c-2.2-3.6-1.1-8.4,2.6-10.6
		C413.3,130.8,418,131.9,420.2,135.6z"/>
	<path fill="#A1A3A6" d="M335.1,148.8c4.1,5.9,2.6,13.9-3.3,18c-5.9,4-13.9,2.5-18-3.4c-4.1-5.9-2.6-13.9,3.3-18
		S331,142.9,335.1,148.8z"/>
	<path fill="#67686B" d="M332.8,151.8c2.3,3.7,1.1,8.6-2.6,10.8c-3.7,2.2-8.6,1-10.9-2.7c-2.3-3.7-1.1-8.6,2.6-10.8
		C325.7,146.9,330.6,148.1,332.8,151.8z"/>
	
		<linearGradient id="SVGID_2_" gradientUnits="userSpaceOnUse" x1="-8670.9482" y1="877.8621" x2="-8670.9482" y2="927.7233" gradientTransform="matrix(-0.9907 0.1358 0.1358 0.9907 -8526.1289 543.2602)">
		<stop  offset="0" style="stop-color:#BEC0C2"/>
		<stop  offset="1" style="stop-color:#B1B3B6"/>
	</linearGradient>
	<path fill="url(#SVGID_2_)" d="M249.8,52.9L167,69.8c-28.6,5.3-53.5,22.6-68.4,47.7l0,0c-21.1,35.5-18.3,80.3,6.9,113l11.4,14.8
		c27.1,35.1,74.1,48.3,115.6,32.5l21.3-8.1"/>
	<path fill="#A1A3A6" d="M238.2,249.8L238.2,249.8c-31.2,13.5-67.5,4.9-89.4-21l-9.2-10.9c-22.1-26.2-24.5-64-5-93
		c11.1-16.4,28.3-27.7,47.7-32.2l47-10.8c8-1.8,15.8,4,16.3,12.2l7.6,131.4C253.8,236,247.8,245.7,238.2,249.8z"/>
	<path fill="#797A7D" d="M317.7,216.3c1.6-2.3,2.9-4.5,3.8-6.6c0.9-2.1,1.4-4.2,1.6-6.3c0-0.5,0.1-1.1,0.1-1.6c0-0.5,0-1.1,0-1.6
		c-0.1-1.1-0.2-2.2-0.4-3.4c-0.4-2.3-1-4.7-1.6-7.4l0-0.1c0-0.1,0.1-0.2,0.1-0.2c0.1,0,0.1,0,0.2,0.1l1.2,1.6l1.1,1.7
		c0.7,1.1,1.3,2.3,1.8,3.5c0.5,1.2,0.8,2.5,1.1,3.7c0.2,1.3,0.3,2.6,0.2,3.8c-0.2,2.6-1.2,5.1-2.7,7.3c-1.5,2.2-3.6,4.2-6.2,5.7
		c-0.1,0-0.2,0-0.2,0C317.6,216.5,317.6,216.4,317.7,216.3L317.7,216.3z"/>
	<g>
		<path fill="#797A7D" d="M333.3,129.5c-2.3,1.2-4.5,2.2-6.6,3.2c-2.1,1-4,2-5.9,3.2c-1.8,1.2-3.5,2.4-5,3.9
			c-1.5,1.5-2.9,3.3-4.4,5.5l0,0.1c0,0.1-0.1,0.1-0.2,0c0,0-0.1-0.1-0.1-0.1c0.4-2.4,1.3-4.8,2.7-6.9c1.4-2.1,3.3-3.7,5.4-5.1
			c2.1-1.3,4.4-2.2,6.8-2.9c2.4-0.7,4.8-1.1,7.3-1.2c0.1,0,0.1,0.1,0.1,0.1C333.4,129.4,333.4,129.4,333.3,129.5L333.3,129.5z"/>
	</g>
	<g>
		<path fill="#797A7D" d="M424.8,126.5c-2.4-1-4.6-2.1-6.7-3.1c-2.1-1-4.1-1.8-6.2-2.5c-2-0.7-4.1-1.2-6.2-1.4
			c-2.2-0.2-4.4-0.1-7.1,0.2l-0.1,0c-0.1,0-0.1-0.1-0.2-0.1c0-0.1,0-0.1,0.1-0.1c2.1-1.2,4.5-2.1,7-2.3c2.5-0.2,5,0.2,7.3,0.9
			c2.3,0.8,4.6,2,6.6,3.4c2,1.4,3.9,3,5.5,4.9c0.1,0.1,0,0.1,0,0.2C425,126.5,424.9,126.5,424.8,126.5L424.8,126.5z"/>
	</g>
	<g>
		<path fill="#CE5C45" d="M231.9,298.2c-1.1,1.9-2.2,3.7-3.3,5.4c-0.1,0.2-0.4,0.3-0.6,0.4c-0.2,0.1-0.4,0.3-0.6,0.4l-1.1,0.9
			c-0.7,0.6-1.5,1.2-2.2,1.8c-2.9,2.5-5.7,5.1-8.4,7.8c-2.7,2.8-5.3,5.6-7.7,8.6c-1.3,1.5-2.4,3-3.6,4.5c-1.8,1.1-3.5,2.2-5.5,3.2
			c0.3-2.2,0.9-4.2,1.5-6.2c1.2-1.6,2.4-3.2,3.7-4.7c2.5-3.1,5.2-6,8-8.9c2.8-2.8,5.7-5.6,8.7-8.2c1.5-1.3,3.1-2.5,4.7-3.8
			c1-0.3,2-0.6,3.1-0.8C229.7,298.4,230.8,298.2,231.9,298.2z"/>
	</g>
	
		<linearGradient id="SVGID_3_" gradientUnits="userSpaceOnUse" x1="-556.0595" y1="-166.4476" x2="-467.3939" y2="-166.4476" gradientTransform="matrix(0.6522 0.8261 0.7849 -0.6197 741.4797 641.4952)">
		<stop  offset="0" style="stop-color:#BEC0C2"/>
		<stop  offset="1" style="stop-color:#B1B3B6"/>
	</linearGradient>
	<path fill="url(#SVGID_3_)" d="M229.7,299.8l56.1,74.6l16.2-15.2c8.6-8.1,11.7-20.5,7.9-31.6l-1.7-5.1c-1.1-3.2-2.7-6.1-4.8-8.7
		l-16.6-21c-3.5-4.5-8.3-7.8-13.7-9.7h0c-9.7-3.3-20.4-1.4-28.4,4.9L229.7,299.8z"/>
	<path fill="#797A7D" d="M366.4,197.2c0,0-15.7,15.7-36.1,6.7l-5.4-4.5l41.2-4.8L366.4,197.2z"/>
	<g>
		<path fill="#896A4A" d="M1044.1,588.2l-26.1-11.8c-7.4-3.3-5.6-11.8,2.8-13.2l19.5-3.3c8.4-1.4,10.2-9.8,2.9-13.2l-38.3-17.5
			c-6.4-2.9-6-10,0.7-12.6l22.9-8.7c6.8-2.6,7-9.9,0.4-12.7l-30.2-12.8c-6.4-2.7-6.5-9.6-0.3-12.4l25-11.4c6.2-2.8,6.1-9.6-0.2-12.4
			l-24.1-10.5c-5.7-2.5-6.4-8.5-1.3-11.7l45.6-28.6c6.9-4.3,2.8-12.7-6.1-12.7h-54.6h-5.1h-906H56.6H46.4c-9,0-13,8.6-5.9,12.8
			l7.1,4.3c6.1,3.6,4.2,10.9-3.3,12.5l-4.8,1.1c-7.5,1.6-9.3,8.9-3.2,12.6c6.2,3.7,4.2,11.1-3.4,12.6l-25.8,5.2
			c-8.1,1.6-9.7,9.8-2.5,13.1l26.1,11.8c7.4,3.3,5.6,11.8-2.8,13.2L8.5,485c-8.4,1.4-10.2,9.8-2.9,13.2l38.3,17.5
			c6.4,2.9,6,10-0.7,12.6L20.4,537c-6.8,2.6-7,9.9-0.4,12.7l30.2,12.8c6.4,2.7,6.5,9.6,0.3,12.4l-25,11.4c-6.2,2.8-6.1,9.6,0.2,12.4
			l24.1,10.5c5.7,2.5,6.4,8.5,1.3,11.7L5.5,649.6c-6.9,4.3-2.8,12.7,6.1,12.7h44.9h14.8h906h5.1h19.8c9,0,13-8.6,5.9-12.8l-7.1-4.3
			c-6.1-3.6-4.2-10.9,3.3-12.5l4.8-1.1c7.5-1.6,9.3-8.9,3.2-12.6c-6.2-3.7-4.2-11.1,3.4-12.6l25.8-5.2
			C1049.8,599.6,1051.3,591.4,1044.1,588.2z"/>
		<path fill="#7D6143" d="M43.8,484c76.7-0.6,153.3-1,230-1.2c76.4-0.2,152.9-0.1,229.3,0.2c43.2,0.2-2.8,0.4,40.4,0.7
			c9.6,0.1,4.5-8.2-2.6-8.3c-76.9-0.5-64.6-0.8-141.5-0.9c-77-0.1-154,0.1-231,0.4c-43.5,0.2-87.1,0.5-130.6,0.8
			c-3.4,0-4.5,2.6-3.2,4.7C36.3,482.9,40.3,484.1,43.8,484L43.8,484z"/>
		<path fill="#7D6143" d="M342.6,526c119.9,5.5,240.1,7.9,360.2,6.9c33.8-0.3,254.1-0.8,287.8-1.6c9-0.2,7.1-10.9-1.1-10.7
			c-120.1,2.8-426.8,2.3-546.9-1.4c-33.7-1-67.5-2.4-101.2-3.9C332.6,514.9,334.5,525.6,342.6,526L342.6,526z"/>
		<path fill="#7D6143" d="M519.9,561.4c78.3-1.6,343.3-1.8,421.7-0.7c22,0.3,44,0.7,66,1.2c9.1,0.2,9.5-9.8,0.1-10
			c-78.3-1.8-343.3-2.3-421.7-1.5c-22,0.2-44,0.6-66.1,1C510.9,551.5,510.4,561.6,519.9,561.4L519.9,561.4z"/>
		<path fill="#7D6143" d="M171.7,582c105,3.4,210,6.8,315.1,10.2c29.8,1,59.6,1.9,89.5,2.9c3.5,0.1,7.6-1.3,8.3-4.2
			c0.6-2.7-2.7-5-6.2-5.1c-105-3.4-210-6.8-315.1-10.2c-29.8-1-59.6-1.9-89.5-2.9c-3.5-0.1-7.6,1.3-8.3,4.2
			C164.8,579.6,168.2,581.8,171.7,582L171.7,582z"/>
		<path fill="#7D6143" d="M84.1,645.4c67.9-1.8,135.9-1.5,203.8,0.8c19.4,0.7,38.8,1.5,58.2,2.5c3.6,0.2,7.1-1.9,7-4.7
			c-0.1-3-4-4.8-7.6-5c-67.8-3.5-135.8-4.9-203.8-4.3c-19.4,0.2-38.8,0.5-58.2,1C74.1,636,75.1,645.7,84.1,645.4L84.1,645.4z"/>
		<path fill="#7D6143" d="M318.9,439.5c78.7-1.7,157.5-2.4,236.3-2.1c39.5,0.1,79.1,0.5,118.6,1.2c38.7,0.6,77.4,1.7,116.1,1.9
			c43.8,0.2,87.6-0.8,131-5.1c2.4-0.2,9.6-1.5,10.1-3.7c0.5-2.4-5.4-1.7-7.1-1.6c-76.6,7.6-154.1,4.3-231.1,3
			c-78-1.3-156.1-1.7-234.1-1.1c-44.2,0.3-88.4,1-132.5,1.9c-3.5,0.1-9.4,1-11.6,3.2C312.3,439.3,316.7,439.5,318.9,439.5
			L318.9,439.5z"/>
		<g>
			<g>
				<g>
					
						<rect x="67.8" y="388.4" transform="matrix(-0.9995 -3.282712e-002 3.282711e-002 -0.9995 290.6803 937.7058)" fill="none" width="170.4" height="156.1"/>
					<path fill-rule="evenodd" clip-rule="evenodd" fill="#7D6143" d="M112.2,399.8c-1.5,1.1-2.4,0.1-5.6,0.6
						C107.7,399.2,110.8,398.2,112.2,399.8z"/>
					<path fill-rule="evenodd" clip-rule="evenodd" fill="#7D6143" d="M212.9,412.6c1.8-0.4,1.1,1.6,2.3,1.7
						C214.9,416.3,212.2,414.2,212.9,412.6z"/>
					<path fill-rule="evenodd" clip-rule="evenodd" fill="#7D6143" d="M179.2,419.5c-1.5,5.9-3-0.1-3.3,3.9c-0.9-1.2-2.2-2-2.3-4.1
						C176.2,418.3,176.3,419.2,179.2,419.5z"/>
					<path fill-rule="evenodd" clip-rule="evenodd" fill="#7D6143" d="M82.4,433.8c-2.6,0.7-5,0.2-5.5-1c-0.8,2.4-5,1.2-8,1.3
						c0-2.7,4.1-1.1,4.1-3.8c5.2,0.6,6.8,2.5,9.5,0.3C86.7,431.7,80.4,433.2,82.4,433.8z"/>
					<path fill-rule="evenodd" clip-rule="evenodd" fill="#7D6143" d="M235.9,442C232.1,442.7,234.6,438.3,235.9,442L235.9,442z"/>
					<path fill-rule="evenodd" clip-rule="evenodd" fill="#7D6143" d="M237.5,441.3c0.5,0,1.1,0,1.6,0.1c0.3,1.7-1.2,1.5-2.4,1.5
						C236.8,442.2,237.4,442.1,237.5,441.3z"/>
					<path fill-rule="evenodd" clip-rule="evenodd" fill="#7D6143" d="M187,449.2c3.1,0.4-0.7,2.4,1.5,3.2
						C186.3,454.4,186.2,451.5,187,449.2z"/>
					<path fill-rule="evenodd" clip-rule="evenodd" fill="#7D6143" d="M192.6,450.2c-0.3,1.8-2.2,1.8-3.2,0.7
						C189.6,449,191.5,449.1,192.6,450.2z"/>
					<path fill-rule="evenodd" clip-rule="evenodd" fill="#7D6143" d="M188.4,457.2c-0.9-0.2-0.6-1.5-0.7-2.4c0.8,0,1.6,0.1,2.4,0.1
						C190.4,456.7,188.5,456,188.4,457.2z"/>
					<path fill-rule="evenodd" clip-rule="evenodd" fill="#7D6143" d="M197.2,455.1c-0.2,0.9,0.1,1.4,0.7,1.6
						c-1.3,1.2-2.5,0.2-4-0.1C194.2,455.2,195.4,454.8,197.2,455.1z"/>
					<path fill-rule="evenodd" clip-rule="evenodd" fill="#7D6143" d="M175.2,494.2c-0.3-1.6,3.7-1,2.4,0.9c-0.5,0-1.1,0-1.6-0.1
						C176.1,494.4,175.7,494.3,175.2,494.2z"/>
					<path fill-rule="evenodd" clip-rule="evenodd" fill="#7D6143" d="M132.1,496c0.8,0,1.6,0.1,2.4,0.1c-0.3,1-1.4,1.2-1.7,2.3
						C131.9,498.2,132.2,496.9,132.1,496z"/>
					<path fill-rule="evenodd" clip-rule="evenodd" fill="#7D6143" d="M204.5,499.2c0.3-1.1,2-0.6,3.2-0.7c-0.1,2.2,1.3,1.6-0.1,3.2
						C205,502.3,206.6,499,204.5,499.2z"/>
					<path fill-rule="evenodd" clip-rule="evenodd" fill="#7D6143" d="M209.3,498.5c1.6-0.2,2.5,0.2,2.3,1.7c-0.8,0-1.6-0.1-2.4-0.1
						C209.3,499.6,209.3,499.1,209.3,498.5z"/>
					<path fill-rule="evenodd" clip-rule="evenodd" fill="#7D6143" d="M127.3,496.6c1.9-0.3,1.7,1.5,4,0.9
						C130.1,498.8,126.8,499.9,127.3,496.6z"/>
					<path fill-rule="evenodd" clip-rule="evenodd" fill="#7D6143" d="M133.5,501.6c0.7,0.5,1.4,1,1.6,0.1c3.2,2.2-2.4,1.7-1.7,3.9
						C131.1,504.8,134,503,133.5,501.6z"/>
					<path fill-rule="evenodd" clip-rule="evenodd" fill="#7D6143" d="M138.2,504.2c0.7,0.6,1.8,0.9,3.2,0.9
						C141.6,506.5,136.9,506.3,138.2,504.2z"/>
					<path fill-rule="evenodd" clip-rule="evenodd" fill="#7D6143" d="M210.2,520.1c-0.4,2-3.1-0.1-2.3-1.7
						C208.9,518.7,209.1,519.8,210.2,520.1z"/>
					<path fill-rule="evenodd" clip-rule="evenodd" fill="#7D6143" d="M207.8,520c0.2,1.3-0.8,1.3-0.9,2.4
						C205.4,522.6,205.9,518.7,207.8,520z"/>
					<path fill-rule="evenodd" clip-rule="evenodd" fill="#7D6143" d="M91.6,517c0.7,0.9,2.9,0.3,2.3,2.5
						C92.2,519.5,91.4,518.7,91.6,517z"/>
					<path fill-rule="evenodd" clip-rule="evenodd" fill="#7D6143" d="M178.7,531.8c0.4-1.8,3.9-0.2,5.6-0.6
						C183.9,532.9,180.4,531.4,178.7,531.8z"/>
					<path fill-rule="evenodd" clip-rule="evenodd" fill="#7D6143" d="M97.2,396.1c1.2,0.2,0.7,1.9,0.7,3.2c2.5-0.5,2.3,1.5,4.7,1
						c-0.1-2.5,4.6,0.1,5.7-3c4.7,2.5,12,3.7,11.7,6.8c3.9-5.2,7,1.8,11.2-2c0.8,4.6-7.1,0.9-7.2,2.2c1,0.4,1.6,1.1,1.5,2.4
						c-1.7-1.2-5.8,0.6-2.3-2.5c-7.5,1.3-13.6-0.9-23.1,0c-6.7,0.6-17.6,0.3-16.2,8.2c7.8-1.8,9.5,2.3,14.4-2.7
						c-0.2,1.1-1.4,1.3-1.7,2.3c3.2,1.7,8.6,2.7,8.8,0.3c0.6,2.5,4.5,1.9,6.3,3.4c-4.4,0.2-4.5,0.1-7.2,1.4
						c-0.9-3.1-3.4-0.3-5.5-2.6c1.3,2.1-1,2.8,0.7,4c2.2-3.6,5.7,2.7,7.9,1.9c-0.1-1.6,3-3.8,4-1.5c-1.3,0-2.8-0.2-2.4,1.5
						c2-1,3.8,1.9,4,0.1c-1,0-0.9-2.2,0.1-2.4c0.3,1.8,1.3,2.9,3.1,3.3c2-1-0.8-3,0.9-3.2c1,1.2,1.8,5.2,3.1,1.7
						c-0.6-0.2-1.6-0.1-1.6-0.8c3.2-1.9,2.3,0.3,3.1,1.7c1.6-5.1,4.8,1.1,8-2.1c-1.4,1.5,0,1-0.1,3.2c-2-2.5-2.8,3.1-4.8,0.6
						c-0.8,3.7,2.6-0.4,2.3,1.7c-2.4,0.7-3.4,1.6-3.3,3.1c-1.8-0.6-10.1-1.6-6.4,1.4c-2.4-0.1-7.8,1.3-6.3-1c-5.9,1.5-10.2-1.3-12,2
						c-1.8-0.3-4-0.9-2.3-2.5c-4.7-1.2-5.5,1.9-8.8,2.1c0.2,2.6,2.6,4.1-0.2,5.6c1.8-2.9-1.5-3-3-4.9c1.9,3.3-1.8,1.4-1.7,4.7
						c2,0.9,2.9-3.3,4-0.7c-0.5,0-1.1,0-1.6-0.1c-0.7,2.4,0.7,2.9,0.6,4.8c-1-0.1-1.1-1.1-2.4-0.9c-0.3,4.2,3.6,0.1,4.7,3.3
						c-0.4,1.5-2.3,1.4-1.7,3.9c3.8,1.2,3.7,2.4,7.1,1.8c-0.1,1.4,0.1,2.5,0.7,3.2c-1.8,0.5-2.5-2.3-2.4,0.7
						c0.5,1.6,3.7,0.6,3.9,2.5c-2.8,0.8-3.6,3.8-7.3,3.7c-0.2,1.5,0.8,1.8,0.7,3.2c-2.1-2.2-0.8,1.1-2.4,1.5
						c-2.9,0.2-3.9,1.1-6.4-0.2c-0.8,3.1-3.1,1.6-5.6,1.4c-1.2,3.9,4.7,1.3,5.5,3.4c-2.6-0.5-3.7,0.4-5.6,0.6
						c0.9-1.1,0.9-1.9-0.7-2.4c-0.4,1.5-3.1,0.5-2.5,3.1c2.2,1,4.1,1.1,6.4,0.2c1,1.1,0.9,3-0.1,4c3.5,0.2,5-0.8,6.4,0.2
						c-0.7,2.4-6.2,2.7-3.4,6.3c-3,0.4-6.4,0.3-7.3,2.9c7.4,2.3,7.6-1.5,13.5,2c-2,0.3-8.4,0.4-6.5,4.6c-2.4-0.1-4.8-0.2-4.9,2.2
						c3.5-0.1,6.2-0.8,8.8,0.3c-1.5,0.1-2.7,0.4-3.2,1.5c1.3,1.4,3.7-0.2,4.8-1.4c-0.4,3.4,11,2.8,12.7,0.4c0,0.8-0.1,1.6-0.1,2.4
						c4.1-2.5,4.9,1.8,5.6-2.2c12.4,3.3,28.9-0.1,39.7,4.5c-2.6,0.8-5.8,1.9-7.2-0.2c0,0.5,0,1.1-0.1,1.6c-0.5,0-0.9,0.1-0.8,0.8
						c1.5,0.2,2.6,0.6,3.1,1.7c-0.6,0.8-4.2,2.6-1.7,3.9c1.2-1.3,4.3,1.2,5.6-1.4c0.5,2.5,0.5,1.5-0.1,4c2.6,0.1,1.5-3.9,4.9-3
						c0.2,2.7,2.4,1.4-0.1,3.2c8,2.6,23.7-1.5,31.7,3.4c0.2-1.2-0.2-2.9,0.9-3.2c0.8,0,1.6,0.1,2.4,0.1c0.2,6.7,8.9-0.3,14.3,2.1
						c3.8-2.6,2.3-8,6.7-8.5c-0.6-0.2-0.9-0.7-0.7-1.6c-5,1.9-10.6-0.4-12.6-3.6c-0.2,1.2,0.2,2.9-0.9,3.2c-0.9-3.6-9.1,4.6-6.3-3.4
						c-0.3-0.9-3.8-1-1.6-0.1c0.5,0.1,0.9,0.1,0.8,0.8c-2.5,3.7-2.9-0.6-3.3,3.9c-1.2-0.6-1.1-2.6-3.1-2.5c-0.2,0.9,0.1,2.3-0.9,2.4
						c-0.6-0.2-1.6-0.1-1.6-0.8c1-1.1,4-2.1,0.9-3.2c-0.5,3.9-1.1-2.9-4.7-1c-0.7,2.2,1.1,2.1,0.7,4c-0.8,0-1,0.6-1.6,0.7
						c-0.8-3.1-6.2-0.2-7.9-1.9c-0.2,1.5-0.6,2.6-1.7,3.1c0.2-1.5-0.8-1.8-0.7-3.2c-2.3,0.5-8.3-0.2-6.4,2.2
						c-1.1-0.1-1.8,0.3-2.4,0.7c1.4-1.6-0.5-1.6,0.9-3.2c-2.5-1-2,1.2-3.2,1.5c-0.6-2.3,1.2-2,0.9-4c-8.1-2.4-17.8-2.2-25.4-4
						c17.1,0.6,34.8,0,52.5,0.9c4.7-3.2,10.6,0.2,15.1,0.5c0.7,0,8.4-3.5,7.9,1.1c2.5,0.8,1.2-2.6,3.3-2.3c1.5,3.4,5.7-0.6,7.9,1.9
						c-1,0.1-1.9,0.2-1.6,1.5c2.1-0.7,4.8,0,7.1,1c1.4-3.1-2-1.7-2.3-3.3c5.8-0.4,0.9,4.6,6.2,4.2c1.1-2.5-2.6-0.7-1.5-3.2
						c1.9,0.3,2.9,1.4,5.5,1c-0.2-1.9,0.2-3.1,0.9-4c-2.2-0.7-2.1,1.1-4,0.7c0-0.8-0.6-1-0.7-1.6c1.3,0.3,2.2-1,0.8-1.6
						c-1.2,2.9,0-2.3-1.5-1.6c0.3,1.3-4.4,1.2-4-0.1c1.9,1.3,2.4-2.6,0.9-2.4c0.3,1.3-3.1,2.6-3.2,0.7c1.8-0.6,3.1-0.1,4.9-2.2
						c-4.8,3.6-10.4-3.4-12,2c-3.1-5.8-19.2-2.8-21.2-8.7c-2.6,1.1-4.9-1.2-6.3-1c0-1.4,0.3-2.5,0.9-3.2c-1.4-1.5-2.5,1-3.1-1.7
						c3.5,0.7-0.6-1.6,1.6-1.5c2.5,3.2,7,0.4,8.6,3.5c-2.5-0.8-3,0.6-4,1.5c0.7-3-4.2-1.6-3.2,0.7c3.8,2.5,8.4-3,10.3,0.3
						c2.2-2-1.5-1.2-1.5-3.2c1.4,1.1,6.3,0.1,5.6-1.4c0,1.1,1.4,0.8,1.5,1.6c-0.8,0.8-2.9,0.2-2.5,2.3c0,3,3.1,0.2,3.1,1.7
						c0,0.5,0.1,0.9,0.8,0.8c-1.5-3.3,0.1-5.4-2.2-7.2c3-0.6,8.8,1.4,8.8-0.5c5.1,2.7,12.9,2.8,19.8,3.8c0.2-5,6.2-3.8,7.4-7.7
						c-0.2,3.4,1.2,0,2.4,0.1c-0.5,2.1,0.2,2.9,2.3,2.5c-0.9-4.8-12.4-4.7-11.1-2c-3.1-2-3.8-0.5-6.2-4.2c-2.4-0.1-2.8,2-4.9,2.2
						c-0.7-1.5,2.5-2.6,0.1-3.2c-0.4,4.8-0.9-3.1-1.6-0.1c-0.8,1.5,2.3,2.7-0.1,3.2c-3.6-0.4-0.4-2.4-2.3-4.1
						c-1.4,0.4-0.1,3.8-1.7,3.9c-0.4-3.3-4.6-3.7-1.6-0.8c-5.8-2.5-8.5,0.7-14.3,0.3c0.7-3.5-1.6,0.6-1.5-1.6c0-0.5,0-1.1,0.1-1.6
						c1.1,1.3,3.2,0.7,4-0.7c-1.1,0-0.7-1.4-1.5-1.6c0.6,4.8-3.9-0.5-4.9,3c1,0.1,1.9,0.3,1.5,1.6c-2,0.2-4.8-0.5-6.3-1
						c2.2-1.5,3.1-0.7,4.8-1.4c-0.2-4-2.8-1.8-3.8-4.1c-4.1,4.7-5.8-0.4-10.4,1.3c0.1-1,1.1-1.1,0.9-2.4c-2.5-1.1-0.7,2.6-3.2,1.5
						c0.8-2.5-0.6-3-1.5-4c4.3,1.9,6.8-2.6,8.7,1.9c-0.6-1.7,2.2-3.5,2.4-1.5c-0.3,0.9-4.3,1.9-1.7,3.1c3.1-0.5,7.8-2.7,8.2-6.9
						c3.2,2.6,5.4,1.5,8.6,4.3c-1-2-1.8-3.3,0.2-5.6c0.1,2.8,3.6-1.3,3.2,0.9c-1.1,0.2-1.6,1.1-3.2,0.7c0.1,1.5,1.9,5.3,3.1,3.3
						c-2.5-2.2,2.3-2.8,3.2-0.7c-0.3,0.4-3.9,1.1-1.6,1.5c1.3-2.7,5.3-0.1,6.4-1.4c-0.6-0.2-0.9-0.7-0.7-1.6
						c-5.5,2.8-9.5-8.6-2.2-4.9c-1,0.1-1.9,0.2-1.6,1.5c2.4-0.6,2.5-0.6,4.8,0.2c0.4-4.2,8.9,0.6,4.9-3c2.5-0.7,3,4.3,4.7,1.7
						c-1.8-2.3,3.7,1.6,3.2-1.5c-0.8,0-2-0.4-0.8-0.8c2.3,0.8,0.9,1.2,0.7,3.2c3.3-0.6,2.7,0,6.4,0.2c1.1-2.5-2.6-0.7-1.5-3.2
						c1.7,1.4,6.3,0.6,7.2-1.4c-2.7-0.4-6.6-0.9-9.6,0.5c0.7,0.3,0.7,2.2-0.1,2.4c-1.1-4.4-5.5-1-7-5c2.2,0.7,2.1-1.1,4-0.7
						c0.8,0.8,0.2,2.9,2.3,2.5c0-3,2-2.3,4.8-1.4c3-3,1.9-5.6,2-11.1c-3,2-6.8,3.9-9.6,2.1c2.2-2.3,3.5-1.9,7.2-1.4
						c-3.8-4.4-8.7,2.5-9.5-2.7c-1.2,2.3,2,4.1-0.2,4.8c1.3-2.8-2.7-0.6-2.3-2.5c1,0,1.1-2.2,0.1-2.4c-0.2,1.8-2-1.1-4-0.1
						c-0.8,1.5,2.3,2.7-0.1,3.2c-0.6-0.6-0.9-5.2-2.3-2.5c0.7,0.5,2.4,3.8,0.7,4c0.4-1.9-1.4-1.8-0.7-4c-4,1.2-0.4-0.1-2.3-1.7
						c-1.1,1.7-4.8,1.2-1.7,3.1c-4.1-0.9-2.5-2.9-7.1-2.6c-0.2,0.9,0.1,2.3-0.9,2.4c-2.7-2.5-6.8,0.6-7.1-3.4
						c-0.8,0.8-1.6,1.6-2.5,2.3c0.3-1-2.2-2.8-2.4-0.9c1.4,3,4.6-0.6,5.5,2.6c-5.5,0.2-9-3.3-7.8-5c-2,2.2-5.2,3.1-6.4,1.4
						c-0.2,1.2,0.2,2.9-0.9,3.2c-2.8-1.5-4.2,2.5-4.8,0.6c1.1,0,0.8-1.4,1.6-1.5c0.8,0,1.6,0.1,2.4,0.1c-0.8-6.2-8.4-6.8-12.6-5.2
						c-0.2-0.6,0-1.6-0.7-1.6c-0.1,2.2,1.3,1.6-0.1,3.2c3.3-1.4,1.4,1.5,4.8,0.2c-1.5,1.6,0.5,3-0.9,4c-0.1-1-0.9-0.5-1.6-0.1
						c1.2-2.3,0.6-0.9-1.6-0.8c0.1-0.9,1.5-1.8,0.1-2.4c-0.4,1.8-4.2,0.5-4.8-0.2c-1.3,1.9-2.8,3.5-5.7,3.8c0-1.1,0.1-2.1,0.1-3.2
						c0.5,0.2,3,2.1,3.2,0.1c-0.5-1.6-4.4,0.1-4.7-1.7c0.2-1,0.9-0.5,1.6,0.1c-0.7-5.3-3.7,1.1-5.5-1.8c0.4-1.2,2.5-0.6,1.7-3.1
						c-2.5-0.8-3,0.6-4,1.5c-0.6-4.5,4.9-2.8,6.5-3c-0.1,1.3-2.1,0.6-1.7,2.3c5.3-6.6,15.7,1.5,24.8-3.2c-0.7-4-8.2-5.7-6.9-9
						c2.4,1,4.3,0.6,5.5,1.8c-1-0.3-2.8,2.2-0.9,2.4c2.8-2.5,2.5,4.3,4.6,4.9c-0.7,0.2-4.1,1.5-1.7,2.3c0.8-2.3,2.9-0.1,3.2-1.5
						c-0.7-0.2-2-3.6-0.7-3.2c3.2,1.6,10.9,1.6,12.9-3.6c-2.7,1.7-2.6,1.1-5.6-0.2c-0.1,1.1,0.3,1.8,0.7,2.4
						c-4.5,2.2-5.3-3.6-7.9-1.9c1.9,0.3-1,2.1-1.7,2.3c1.5-3.8,0.4-3.5-1.5-3.2c0.4-0.9,0.9-1.8,1.7-2.3c0.6,0.5,2.8-0.3,4-0.7
						c-1-0.1-1.9-0.3-1.5-1.6c0.8,0,1-0.6,1.6-0.7c0.4,1,0.8,1.8,1.5,2.4c2.4-1.3,3.1-2.9,0.1-4c5.3,0.7,10.3,5.9,14.3,1.3
						c-0.2,2,1.1,2.5,2.3,3.3c-0.2-3.3,3.7,0.5,4.7,1c1.2-2.3,6.9-2.9,7.2-1.4c3.7,0.1,3.8-3.6,5.8-5.4c0.5,3.7,4.1-1.8,8,0.3
						c0-2,0-3.8,1-4.7c-2.1,0.1-10.8-0.3-9.4-4.3c-1-0.1-1.9-0.3-1.5-1.6c-11.5-0.3-16.6,0.6-26.3-0.9c-1.1,0.5-0.2,3.1-1.7,3.1
						c-16.4-4.7-43.7-3.9-62.1-2c-1.1,2,3.1,2.6,0.7,3.2c-3.6-2.2-4.7,1.7-8,2.1c-0.7-1.5,2.5-2.6,0.1-3.2c-1.5,2.4-3.8,0.8-7.2,0.6
						c-1.1,2.7-5.1,3.8-8.1,2.9c1.6-0.4,3.5-1.6,0.9-2.4C100.8,396.6,96.9,394.2,97.2,396.1z M137.2,415.7c1.9-1.6,2.8,0.4,5.6-0.6
						C141.1,418,139.6,416.8,137.2,415.7z M170.3,496.4c0-0.5,0-1.1,0.1-1.6c0.6,0.4,1.3,0.9,2.4,0.9
						C172.3,497.4,171.5,497.4,170.3,496.4z M126.5,401.8c0.2-1.1,2.4-0.2,2.4-1.5C131.4,401.3,128.1,402.6,126.5,401.8z M142.4,400
						c1.4,0.6,0.1,1.5-0.1,2.4c-0.6-0.4-1.3-0.9-2.4-0.9C140.2,400.3,142.4,401.3,142.4,400z M135.8,408.5c1.1-0.9,4.7,2.2,5.4,4.2
						c-1.8,0.1-3.4-3.9-4.7-1.7c-1.1-0.4,0.1-0.7,0.1-1.6C136.7,408.6,136.3,408.6,135.8,408.5z M148.4,411.3
						c1.4-0.2,1.3,4.5-0.9,3.2C147.5,413,148.6,412.8,148.4,411.3z M155.6,411.5c0.5,0,1.1,0,1.6,0.1c0.3,1.7-1.2,1.5-2.4,1.5
						C154.9,412.5,155.6,412.3,155.6,411.5z M133.3,412.4C136.3,409.7,137.2,414.7,133.3,412.4L133.3,412.4z M165.1,412.6
						c0.9,2.6-2.6,0.5-1.7,3.1C161.8,415.5,163.4,412,165.1,412.6z M122.9,414.4c0.7,0.9,2.9,0.3,2.3,2.5c-1.5-0.4-4.8,0.9-3.9-1.7
						C122.2,416.1,122.9,415.9,122.9,414.4z M131.5,419.5c0.5,1.6,4.8-0.3,3.9,2.5c1.2-0.9,3.3-0.9,4.1-2.3c0.8,0.5,0.8,1.9,2.3,1.7
						C139.1,422.8,132.5,424.4,131.5,419.5z M167.9,425.5c-1.1-0.1-2.2-0.2-2.4,0.7c-1.5-0.1,0.7-2.9,0.9-4c1.6,0.9,4,0.1,4.7,3.3
						c-0.7-0.9-2.9-0.3-2.3-2.5C167.8,423.2,168.1,424.5,167.9,425.5z M130.6,422.7c0.4,1.8-1.6,1.1-1.7,2.3
						C126.9,424.6,128.9,421.9,130.6,422.7z M206.6,434.7c2.6-0.6,1,2.7,3.1,2.5C209.5,438.6,206,436.7,206.6,434.7z M205,435.5
						c0.7,2.4-4.5,2.3-7.2,1.4c1.5-0.9,5.2-1.8,6.4-0.6C204.9,436.4,204.9,435.9,205,435.5z M213.7,437.3c0,0.5,0,1.1-0.1,1.6
						C209.7,439.6,212.3,434.6,213.7,437.3z M151.5,438.5C149.2,435.9,157,437.1,151.5,438.5L151.5,438.5z M207.3,439.5
						c-0.2-1.4,4.5-1.3,3.2,0.9C209.7,439.8,208.6,439.5,207.3,439.5z M91.8,438.1c-0.2-1.4,4.5-1.3,3.2,0.9
						C94.3,438.4,93.2,438.1,91.8,438.1z M105.2,443.3c1.3-2.3,0.8,2.9-1.6,1.5c0.1-1.4-0.9-1.7-0.7-3.2c1,0.4,1.6,1.1,1.5,2.4
						C105,444.3,105.1,443.8,105.2,443.3z M116.2,446.1c-3-2.1-6.8,0.4-8.7-2.7c1.4,1,4.8-0.6,7.1,1c-0.5-0.8-1.8-0.9-1.5-2.4
						c3.2-0.1,2.8,4.9,4.7,1C121,444.1,113.7,447.9,116.2,446.1z M94.7,446.2c1-3.2,3.5-0.1,6.4-0.6c-0.9,0.7-0.3,2.9-2.5,2.3
						c1-0.9,0.4-2,0-0.8C97.5,445.3,97.1,445.5,94.7,446.2z M151.9,451.2c-0.3-1.7,1.2-1.5,2.4-1.5c-1.1,1.8,0.1,1.5-0.9,4
						c-1-0.2-0.8-1.6,0.1-1.6C153.5,451.3,152.5,451.4,151.9,451.2z M161.5,451.6c1.6-2,0,1.3-0.1,2.4c-0.5,0-1.1,0-1.6-0.1
						c-0.4-0.7-0.8-1.3-0.7-2.4C159.7,452,161.2,452.8,161.5,451.6z M147.1,451.1c2.1,0.8-0.8,3.5-1.6,1.5
						C145.7,451.8,147.1,452.1,147.1,451.1z M167.8,452.6c0,0.5,0,1.1-0.1,1.6C163.8,454.8,166.4,449.9,167.8,452.6z M142.2,457.3
						c0-0.5,0-1.1,0.1-1.6c2.1-0.2,0.5,3.1,3.1,2.5C145,460.1,142.4,458,142.2,457.3z M159.7,456.3c1.4-0.1,1.6,1,3.2,0.9
						C163.1,458.6,158.4,458.4,159.7,456.3z M172.9,467.9c-1.3,1.8-2,1.1-4,0.7C169.5,466,171,467.6,172.9,467.9z M161.7,467.5
						c1.5-0.7,2.6,2.5,3.2,0.1c2.3,1.2-1.4,2.8-3.3,2.3C161.7,469.1,161.7,468.3,161.7,467.5z M172.7,472.6c0.2-0.7-0.3-0.8-0.8-0.8
						c0.4-0.6,0.9-1.3,0.9-2.4C172.4,471.9,175.9,471.4,172.7,472.6z M79.7,468c1.2,0.5,2,1.2,3.1,1.7C82.2,471.6,78.8,470,79.7,468
						z M118.5,474.8c-2,3.7-2.8-0.8-4.1,2.3c-3.4-2.1-6.4-1.5-10.3-0.3c0.2-0.9,1.6-0.5,1.6-1.5c-1.1-1.4-3.4,2.9-7.2,1.4
						c0.4-1.7-1.1-1.6-2.3-1.7c4.6-2.7,14.8-2.2,25.5-0.8c-0.9,1-0.7,1.6,0.7,1.6C121.7,476.3,118,476.9,118.5,474.8z M87.5,473.8
						c0.8-2.3,2.5,0.6,4,0.1c-0.4,1.5-3.1,0.5-2.5,3.1C86.8,477.5,89.6,473.3,87.5,473.8z M89.4,486.6
						C84.3,488.9,81,485.3,89.4,486.6L89.4,486.6z M87.7,490.5c-1.1-2.1,2-2.3,4-0.7C91.4,492.5,88.3,487.7,87.7,490.5z
						 M143.2,497.2c-0.6,1.1-1.7,1.4-3.2,1.5C139.3,496.2,141.8,497.3,143.2,497.2z M178.8,505.5c0.2-0.7-0.3-0.8-0.8-0.8
						c1.3-1.8,2-1.1,4-0.7c0.3,2.2-3,0.6-3.3,2.3C177.9,506.1,178.4,505.5,178.8,505.5z M191.6,505.1c-5.2,1.6-9.7,2.6-3.2-0.9
						C189.1,504.9,190.2,505.1,191.6,505.1z"/>
					<path fill-rule="evenodd" clip-rule="evenodd" fill="#7D6143" d="M104.4,419.4c-1.3,3.5-3.6,0.9-6.4,2.2
						c0.7-2.2-1.5-1.7-1.5-3.2c-0.7,2.8-5.1,1.7-6.5,3.8c-1.4-2.8-3.4-4.8-7.9-2.6c-0.5-3,3.4-1.3,4.1-3.1c3,3.3,8.8,2.6,11.9,0.4
						C97.8,421.5,102.5,416.8,104.4,419.4z"/>
					<path fill-rule="evenodd" clip-rule="evenodd" fill="#7D6143" d="M188.3,410.2c1.4-0.2,3.9,2.4,4.8,0.2c1.2,0.7,1.6,2.1,1.5,4
						c-0.6-0.2-0.8-0.8-1.6-0.8c-0.8,0-0.6,1-0.8,1.6c-1.1-0.2-1.4-3.4-1.6-0.1c-1.2-0.7-1.1-2.6-1.5-4c-2.1-0.6,0.4,3.8-1.7,3.1
						c-0.5,0-1.1,0-1.6-0.1C185.7,411.9,188.2,412.3,188.3,410.2z"/>
					<path fill-rule="evenodd" clip-rule="evenodd" fill="#7D6143" d="M202.6,413.1c-0.6,1.6-3.7,0.4-4.1,2.3
						c-1.1,0.4,0.8-4.4-1.5-1.6C195.3,411.2,200.1,413,202.6,413.1z"/>
					<path fill-rule="evenodd" clip-rule="evenodd" fill="#7D6143" d="M153.8,417.9c0.9-2-1.4,4.6,3.9,2.5c0.1,0.7-0.3,0.7-0.8,0.8
						c0,0.5,0,1.1-0.1,1.6c-1.9-2-3.5,0.5-6.4-0.2c0-1.1,0.1-2.1,0.1-3.2c3.2,0-0.3,1.2,1.5,2.4
						C154.3,422.2,151.6,417.4,153.8,417.9z"/>
					<path fill-rule="evenodd" clip-rule="evenodd" fill="#7D6143" d="M122.6,420.8c-0.1-0.7,0.3-0.7,0.8-0.8c0.5,0,1.1,0,1.6,0.1
						c-1.7,1.8-2.8,4.7-5.7,3C119.6,421.8,125.3,422.4,122.6,420.8z"/>
					<path fill-rule="evenodd" clip-rule="evenodd" fill="#7D6143" d="M159.3,516c-0.6-0.2-1.6-0.1-1.6-0.8c1-0.3,1.7-1,1.7-2.3
						c-2.5,0.5-2.9-0.9-4.7-1c-1.4,3.1,3.4,0.4,3.1,2.5c-0.4,0.9-0.9,1.8-1.7,2.3c0.3-3.2-0.2-1.8-2.3-1.7c0-1.2-3.1-4.4-4.7-1.7
						c-0.3,2.5,2.4-1.9,2.4,0.9c-1,1.1-3,1.1-4.1,2.3c-0.4,2.9,1.7,2.6,3,6.5c-1.3-1.5-2.8-0.2-2.5,2.3c5.1,0.7,7.3,0.1,10.3,1.9
						c-0.2-5,4.7,0.1,5.7-3c0,0.8-0.1,1.6-0.1,2.4c2.6,0.5,4-0.1,4.8-1.4c-0.1,1.4,0.5,2.1,1.5,2.4c1.8-1.1-0.9-2,0.9-2.4
						c2.6,4.4,11.6,1.7,15.1,2.1c0.3,2,4,2.1,7.9,2.6c1.2-6-3.2-3.6,1-6.3c-1.8,0.2-3-0.3-3.1-1.7c1,0.3,4.9,0,2.4-0.7
						c-3.7-0.8-5.3-4.6-3.8-6.5c-0.3,3.1,3.3,2.5,3,5.7c2-1,3.8,1.9,4,0.1c-2.1-0.3,2.3-4.5,2.5-2.3c-0.1,1.6-2.2,0.9-1.7,3.1
						c1.4,0,2.5,0.3,3.2,0.9c-1.9-2.3,1.6-4.4,2.5-3.1c0.1,0.8-3.5,1.5-0.9,2.4c0.2-2.8,2.6,1.8,2.4-0.7c-2.8-1.5,1.2-2.5,1.7-3.1
						c-2-1.9-3.9,0.9-4.7-1.7c0.3,3.9-4.9-2.6-5.6-0.2c0.9,0.2,1.2,0.9,1.5,1.6c-2.3-2.1-2.8,1.9-3.3,2.3c-1.2-1.5,0.8-2.7-1.5-4
						c-0.2,0.6-0.7,0.9-1.6,0.7c0-0.8,0.1-1.6,0.1-2.4c1.6-0.3,5,1.9,3.2,0.1c-5.4-3.1-9.3,1.8-12,2c0-1.1,1.4-0.7,1.6-1.5
						c-1.5,0-1.7-0.7-0.7-1.6c-2,1-3.8-1.9-4-0.1c1,0.8,2.9,0.8,3.1,2.5c-3.6-0.4-8.3-1.5-8.8,0.5c-2.5,0.3-2-2.2-3.9-2.5
						c-0.7,2.9-2.4-0.4-4,1.5c0.1-0.9,1.5-1.8,0.1-2.4c-0.1,1.5-3.7-1.5-1.6,1.5c-2.5-1-2,1.2-3.2,1.5c-0.3-2.2,2-6.3-0.7-4
						C162.5,512.5,159.1,515.5,159.3,516z M175.2,519.7c-1,0.2-0.9,1.6-0.1,1.6c-1.2,2.3-3.2-1.1-2.3-3.3c5.1,1.3,3.2-0.4,5.6-1.4
						c0.9,2.6-1.1,3.8,1.5,4c-0.4,0.6-0.9,1.3-0.9,2.4c-0.7-0.5-1.4-1-1.6-0.1C177,522,177.1,520.9,175.2,519.7z M188.8,517
						c-1.7,2.3-4.1,3.8-7.3,4.5c-0.3-0.7-0.7-1.4-1.5-1.6c0.1-2.2,2.1,2,1.6-1.5C185.8,519.4,185.8,518.5,188.8,517z M158.5,516.8
						c0.9,0.2,0.5,1.6,1.5,1.6c-1.2,1.7-1.9-0.6-4,0.7C153.6,517.9,159.3,518.8,158.5,516.8z M164.1,517c0.9,0.2,0.4,0.8,0,0.8
						c0.1,1.2,2.4,0.4,2.3,1.7c1.9,0.8-2.8-0.2-4.8,0.6C161,517.5,164.3,519.1,164.1,517z M152.9,519c0.7,0.2,0.8-0.3,0.8-0.8
						c3.2,1.9-2.6,1-2.5,2.3c-1.5-0.1-0.5-2.6-2.3-2.5c0.6-1.4,1.5-0.1,2.4,0.1c0.7-0.4,1.3-0.8,2.4-0.7
						C153.6,518,152.9,518.2,152.9,519z M175.8,525.3c2.3-0.6,2,1.2,4,0.9C179.8,527.5,174.5,527.7,175.8,525.3z"/>
					<path fill-rule="evenodd" clip-rule="evenodd" fill="#7D6143" d="M196.1,513.2c0.9-0.9,2.4-0.5,4.8,0.2
						C199.5,514.3,197.9,514,196.1,513.2z"/>
					<path fill-rule="evenodd" clip-rule="evenodd" fill="#7D6143" d="M216.7,517.1c-0.7,0.6-1.8,0.8-3.2,0.7
						c2.9,1.2,2.4,4.2-0.2,5.6c-1.7,2,0.1-2.8,1.7-2.3c-0.1-0.6-0.8-0.8-0.7-1.6c-2.5-1.1-0.7,2.6-3.2,1.5c0.3-1.3-0.6-1.5-1.5-1.6
						c2.1-0.8,3.8-2,5.7-3c2.5,1.3,4.7,2.8,7.9,3.4c-0.2,1-1.6,0.7-1.6-0.1c-1.3,0.3-0.8,2.5-3.2,1.5c1.2-2.3,0.6-0.9-1.6-0.8
						C217.9,518.7,216.5,519.3,216.7,517.1z"/>
					<path fill-rule="evenodd" clip-rule="evenodd" fill="#7D6143" d="M140.2,517.8c0.2-0.9,1.6-0.5,1.6-1.5c1.8,2.9,0.6-0.5,4,0.1
						c0,1.3-0.5,3,0.7,3.2C145.3,521.1,142.4,517.8,140.2,517.8z"/>
					<path fill-rule="evenodd" clip-rule="evenodd" fill="#7D6143" d="M102.8,517.3c0.8,0,0.6,1,0.7,1.6c2.3-0.8,7.9-1.5,13.6-2.7
						c-0.1,2.1-3.4,0.7-2.5,3.9c2.4-1,2.9-4.1,7.3-2.9c-0.9,4.8,5,4.3,9.3,7.5c0.3-2.2,1.1-0.8,4.8-0.6c-1.4,1.5,0,1-0.1,3.2
						c-2.3-0.2-8.9,2.5-9.5-1.1c-2.4,0.4,0.7,1.7-0.1,3.2c-0.6-0.7-2.2-0.5-2.3-1.7c-0.9,3.6-5.6-0.3-5.6,2.2
						c-0.5-1.4-2.4-1.4-3.1-2.5c-1.9,1.6-9.2,0.4-13.6,1.9c0.2-0.9,1.6-0.5,1.6-1.5c0-2.3-4.8,2.9-4-0.9c-2.3,3.8-12.8-1.1-12.8,1.2
						c-2.2-0.3-1.7-3-3.1-4.1c2.9-1.3,4.4-3.2,8.8-1.3c-0.4-1.7-1.6-2.6-2.3-4.1c-1.4-0.2-2.1,1.3-2.4-0.1c-0.9,0.2-0.6,1.6-1.6,1.5
						c-1.6,1.5,1.5-4.5,4.9-3c0.1,2.5,1.9,3.3,3,4.9c1.2-0.6,1.2-2.5,1.7-3.9c2.5-0.8,1.9,1.3,3.1,1.7
						C99,516.1,99.7,519.1,102.8,517.3z"/>
					<path fill-rule="evenodd" clip-rule="evenodd" fill="#7D6143" d="M85.2,517.5c2.9-1.8-6.5,4.4-1.7,2.3c0,1.4-4.4,1.2-6.4-0.2
						C79.2,518.2,82.7,518.4,85.2,517.5z"/>
					<path fill-rule="evenodd" clip-rule="evenodd" fill="#7D6143" d="M176.3,532.5c-4.5,2.3-6.5,0-11.1-1.2c-1,1.2-1.1,3.2-2.5,3.9
						c-1.9-1.8-5.4-1.9-7.1-1.8c0.9,0.2,1.2,0.9,1.5,1.6c-2.4-0.7-2.9,0.7-4.8,0.6c1.8-1.8,0.8-2.1,1.7-3.9
						c-5.7,1.6-13.7,0-17.5-0.6c-0.9,2.9,2.6,1.6,3.1,3.3c-1.5,0.1,0.4,1.3-0.8,1.6c-4.6-1.5-17.6-3.2-22.3,0.9
						c3.8-0.2,6.9,0.2,8.7,1.9c0.8-1.5-2.3-2.7,0.1-3.2c2.8,0.7,4.6,2.4,7.1,3.4c0.1-1,0.3-1.9,1.6-1.5c-2.6,2.4,2.6,1.4,4.7,1.7
						c0.8-3.7-2.6,0.5-2.3-1.7c2-2.2,4.5,0.9,6.4-0.6c-2.4,2.9,0.7,2.2-0.2,4.8c0.5-2.3,1.2,1.3,2.4,0.9c0-0.5,0-1.1,0.1-1.6
						c0.5,0,0.9-0.1,0.8-0.8c-1.4,0.1-1.8-0.9-1.5-2.4c1.1,0.3,1.5,1.2,3.2,0.9c-0.6,2.7,1.5,2.7,2.3,4.1c0.3-5.4,5.6,2.4,4.9-3
						c1.7,2.9,2.4,1.9,5.5,1c0.2,1.8-2.3,0.8-2.5,2.3c3,0.5,2.6-2.7,6.4-1.4c-2.3,1.7,4.8,3.8,5.5,2.6c-0.7-0.3-0.7-2.2,0.1-2.4
						c1.4,0.3,1.9,5.4,3.9,2.5c-2.3,0.3-1.1-2.2-0.7-2.4c0.8,1.6,3.8,4.2,4,0.1c-0.9-0.2-2.3,0.1-2.4-0.9c2.2-0.1,1.9-2.9,3.3-3.9
						c2.5,0.3,1.2,4,4.7,3.3c0.3-1.6-1-1.6-1.5-2.4c1.1,0.1,1.8-0.3,2.4-0.7c-0.1,1.4,0.1,2.5,0.7,3.2c2.5-0.8,2.1,0.3,4-0.7
						c-1.3-2.7,1.3-2.7,1.8-5.5c-4.1-0.6-4.3,2.9-5.5-1c0.3,2.5-2.1,2.2-3.3,3.1c0.1-1,1.1-1.1,0.9-2.4c-2.6,0.5-3.9,1-1.6-0.8
						c-2.8-1.3-4.9,2.4-5.6,0.6C175.6,533.9,176,533.2,176.3,532.5z M165.2,532.9c2.4,0.6,1.5,0.6,4,0.1
						C168.8,535.2,164.8,536.6,165.2,532.9z M141.2,533.7c2.6-0.5,6,1.2,1.6,0.8c-0.8,0-0.6,1-0.8,1.6
						C141,536,141.3,534.7,141.2,533.7z M167.4,538.6c0.5-0.9,0.4,2.1,3.1,1.7c-1.1,2.4-3-1.3-4,0.7c-1.2-0.5,0-0.8,0.8-0.8
						C166.8,539.4,166.4,538.7,167.4,538.6z"/>
					<path fill-rule="evenodd" clip-rule="evenodd" fill="#7D6143" d="M110.9,535.9c-1.7,1-4.5,2.4-4.7-1c5.1-1,4.7,1.9,9.5,0.3
						c0,1.1-0.1,2.1-0.1,3.2c-2.4-2.9-6.6,2.1-6.3-1C110.6,537.8,110.8,536.9,110.9,535.9z"/>
					<path fill-rule="evenodd" clip-rule="evenodd" fill="#7D6143" d="M120,502c3,3.1,5.4-0.2,12-0.4c-0.1,5.1-5.6,8.8-9.9,10
						c-2,0.6-4.3-3-4.8-0.2c-0.3,1.7-13.1-2.1-19.1,0.2c0.8-3.1,0.5-5.1,2.6-7.9c4.3,2,8.5-0.3,11.9,2
						C114.4,503.7,119.2,505,120,502z"/>
				</g>
			</g>
		</g>
		<g>
			<g>
				<g>
					
						<rect x="791.7" y="388.4" transform="matrix(-0.9995 -3.282712e-002 3.282711e-002 -0.9995 1738.1124 961.4697)" fill="none" width="170.4" height="156.1"/>
					<path fill-rule="evenodd" clip-rule="evenodd" fill="#7D6143" d="M836.1,399.8c-1.5,1.1-2.4,0.1-5.6,0.6
						C831.7,399.2,834.7,398.2,836.1,399.8z"/>
					<path fill-rule="evenodd" clip-rule="evenodd" fill="#7D6143" d="M936.8,412.6c1.8-0.4,1.1,1.6,2.3,1.7
						C938.8,416.3,936.1,414.2,936.8,412.6z"/>
					<path fill-rule="evenodd" clip-rule="evenodd" fill="#7D6143" d="M903.2,419.5c-1.5,5.9-3-0.1-3.3,3.9c-0.9-1.2-2.2-2-2.3-4.1
						C900.1,418.3,900.3,419.2,903.2,419.5z"/>
					<path fill-rule="evenodd" clip-rule="evenodd" fill="#7D6143" d="M806.3,433.8c-2.6,0.7-5,0.2-5.5-1c-0.8,2.4-5,1.2-8,1.3
						c0-2.7,4.1-1.1,4.1-3.8c5.2,0.6,6.8,2.5,9.5,0.3C810.6,431.7,804.3,433.2,806.3,433.8z"/>
					<path fill-rule="evenodd" clip-rule="evenodd" fill="#7D6143" d="M959.8,442C956,442.7,958.5,438.3,959.8,442L959.8,442z"/>
					<path fill-rule="evenodd" clip-rule="evenodd" fill="#7D6143" d="M961.4,441.3c0.5,0,1.1,0,1.6,0.1c0.3,1.7-1.2,1.5-2.4,1.5
						C960.7,442.2,961.4,442.1,961.4,441.3z"/>
					<path fill-rule="evenodd" clip-rule="evenodd" fill="#7D6143" d="M910.9,449.2c3.1,0.4-0.7,2.4,1.5,3.2
						C910.2,454.4,910.1,451.5,910.9,449.2z"/>
					<path fill-rule="evenodd" clip-rule="evenodd" fill="#7D6143" d="M916.5,450.2c-0.3,1.8-2.2,1.8-3.2,0.7
						C913.6,449,915.5,449.1,916.5,450.2z"/>
					<path fill-rule="evenodd" clip-rule="evenodd" fill="#7D6143" d="M912.3,457.2c-0.9-0.2-0.6-1.5-0.7-2.4c0.8,0,1.6,0.1,2.4,0.1
						C914.3,456.7,912.4,456,912.3,457.2z"/>
					<path fill-rule="evenodd" clip-rule="evenodd" fill="#7D6143" d="M921.1,455.1c-0.2,0.9,0.1,1.4,0.7,1.6
						c-1.3,1.2-2.5,0.2-4-0.1C918.1,455.2,919.3,454.8,921.1,455.1z"/>
					<path fill-rule="evenodd" clip-rule="evenodd" fill="#7D6143" d="M899.1,494.2c-0.3-1.6,3.7-1,2.4,0.9c-0.5,0-1.1,0-1.6-0.1
						C900,494.4,899.6,494.3,899.1,494.2z"/>
					<path fill-rule="evenodd" clip-rule="evenodd" fill="#7D6143" d="M856,496c0.8,0,1.6,0.1,2.4,0.1c-0.3,1-1.4,1.2-1.7,2.3
						C855.8,498.2,856.1,496.9,856,496z"/>
					<path fill-rule="evenodd" clip-rule="evenodd" fill="#7D6143" d="M928.4,499.2c0.3-1.1,2-0.6,3.2-0.7c-0.1,2.2,1.3,1.6-0.1,3.2
						C928.9,502.3,930.5,499,928.4,499.2z"/>
					<path fill-rule="evenodd" clip-rule="evenodd" fill="#7D6143" d="M933.2,498.5c1.6-0.2,2.5,0.2,2.3,1.7c-0.8,0-1.6-0.1-2.4-0.1
						C933.2,499.6,933.2,499.1,933.2,498.5z"/>
					<path fill-rule="evenodd" clip-rule="evenodd" fill="#7D6143" d="M851.2,496.6c1.9-0.3,1.7,1.5,4,0.9
						C854,498.8,850.7,499.9,851.2,496.6z"/>
					<path fill-rule="evenodd" clip-rule="evenodd" fill="#7D6143" d="M857.4,501.6c0.7,0.5,1.4,1,1.6,0.1c3.2,2.2-2.4,1.7-1.7,3.9
						C855,504.8,857.9,503,857.4,501.6z"/>
					<path fill-rule="evenodd" clip-rule="evenodd" fill="#7D6143" d="M862.1,504.2c0.7,0.6,1.8,0.9,3.2,0.9
						C865.5,506.5,860.8,506.3,862.1,504.2z"/>
					<path fill-rule="evenodd" clip-rule="evenodd" fill="#7D6143" d="M934.1,520.1c-0.4,2-3.1-0.1-2.3-1.7
						C932.8,518.7,933,519.8,934.1,520.1z"/>
					<path fill-rule="evenodd" clip-rule="evenodd" fill="#7D6143" d="M931.7,520c0.2,1.3-0.8,1.3-0.9,2.4
						C929.3,522.6,929.8,518.7,931.7,520z"/>
					<path fill-rule="evenodd" clip-rule="evenodd" fill="#7D6143" d="M815.5,517c0.7,0.9,2.9,0.3,2.3,2.5
						C816.1,519.5,815.3,518.7,815.5,517z"/>
					<path fill-rule="evenodd" clip-rule="evenodd" fill="#7D6143" d="M902.7,531.8c0.4-1.8,3.9-0.2,5.6-0.6
						C907.8,532.9,904.3,531.4,902.7,531.8z"/>
					<path fill-rule="evenodd" clip-rule="evenodd" fill="#7D6143" d="M821.1,396.1c1.2,0.2,0.7,1.9,0.7,3.2c2.5-0.5,2.3,1.5,4.7,1
						c-0.1-2.5,4.6,0.1,5.7-3c4.7,2.5,12,3.7,11.7,6.8c3.9-5.2,7,1.8,11.2-2c0.8,4.6-7.1,0.9-7.2,2.2c1,0.4,1.6,1.1,1.5,2.4
						c-1.7-1.2-5.8,0.6-2.3-2.5c-7.5,1.3-13.6-0.9-23.1,0c-6.7,0.6-17.6,0.3-16.2,8.2c7.8-1.8,9.5,2.3,14.4-2.7
						c-0.2,1.1-1.4,1.3-1.7,2.3c3.2,1.7,8.6,2.7,8.8,0.3c0.6,2.5,4.5,1.9,6.3,3.4c-4.4,0.2-4.5,0.1-7.2,1.4
						c-0.9-3.1-3.4-0.3-5.5-2.6c1.3,2.1-1,2.8,0.7,4c2.2-3.6,5.7,2.7,7.9,1.9c-0.1-1.6,3-3.8,4-1.5c-1.3,0-2.8-0.2-2.4,1.5
						c2-1,3.8,1.9,4,0.1c-1,0-0.9-2.2,0.1-2.4c0.3,1.8,1.3,2.9,3.1,3.3c2-1-0.8-3,0.9-3.2c1,1.2,1.8,5.2,3.1,1.7
						c-0.6-0.2-1.6-0.1-1.6-0.8c3.2-1.9,2.3,0.3,3.1,1.7c1.6-5.1,4.8,1.1,8-2.1c-1.4,1.5,0,1-0.1,3.2c-2-2.5-2.8,3.1-4.8,0.6
						c-0.8,3.7,2.6-0.4,2.3,1.7c-2.4,0.7-3.4,1.6-3.3,3.1c-1.8-0.6-10.1-1.6-6.4,1.4c-2.4-0.1-7.8,1.3-6.3-1c-5.9,1.5-10.2-1.3-12,2
						c-1.8-0.3-4-0.9-2.3-2.5c-4.7-1.2-5.5,1.9-8.8,2.1c0.2,2.6,2.6,4.1-0.2,5.6c1.8-2.9-1.5-3-3-4.9c1.9,3.3-1.8,1.4-1.7,4.7
						c2,0.9,2.9-3.3,4-0.7c-0.5,0-1.1,0-1.6-0.1c-0.7,2.4,0.7,2.9,0.6,4.8c-1-0.1-1.1-1.1-2.4-0.9c-0.3,4.2,3.6,0.1,4.7,3.3
						c-0.4,1.5-2.3,1.4-1.7,3.9c3.8,1.2,3.7,2.4,7.1,1.8c-0.1,1.4,0.1,2.5,0.7,3.2c-1.8,0.5-2.5-2.3-2.4,0.7
						c0.5,1.6,3.7,0.6,3.9,2.5c-2.8,0.8-3.6,3.8-7.3,3.7c-0.2,1.5,0.8,1.8,0.7,3.2c-2.1-2.2-0.8,1.1-2.4,1.5
						c-2.9,0.2-3.9,1.1-6.4-0.2c-0.8,3.1-3.1,1.6-5.6,1.4c-1.2,3.9,4.7,1.3,5.5,3.4c-2.6-0.5-3.7,0.4-5.6,0.6
						c0.9-1.1,0.9-1.9-0.7-2.4c-0.4,1.5-3.1,0.5-2.5,3.1c2.2,1,4.1,1.1,6.4,0.2c1,1.1,0.9,3-0.1,4c3.5,0.2,5-0.8,6.4,0.2
						c-0.7,2.4-6.2,2.7-3.4,6.3c-3,0.4-6.4,0.3-7.3,2.9c7.4,2.3,7.6-1.5,13.5,2c-2,0.3-8.4,0.4-6.5,4.6c-2.4-0.1-4.8-0.2-4.9,2.2
						c3.5-0.1,6.2-0.8,8.8,0.3c-1.5,0.1-2.7,0.4-3.2,1.5c1.3,1.4,3.7-0.2,4.8-1.4c-0.4,3.4,11,2.8,12.7,0.4c0,0.8-0.1,1.6-0.1,2.4
						c4.1-2.5,4.9,1.8,5.6-2.2c12.4,3.3,28.9-0.1,39.7,4.5c-2.6,0.8-5.8,1.9-7.2-0.2c0,0.5,0,1.1-0.1,1.6c-0.5,0-0.9,0.1-0.8,0.8
						c1.5,0.2,2.6,0.6,3.1,1.7c-0.6,0.8-4.2,2.6-1.7,3.9c1.2-1.3,4.3,1.2,5.6-1.4c0.5,2.5,0.5,1.5-0.1,4c2.6,0.1,1.5-3.9,4.9-3
						c0.2,2.7,2.4,1.4-0.1,3.2c8,2.6,23.7-1.5,31.7,3.4c0.2-1.2-0.2-2.9,0.9-3.2c0.8,0,1.6,0.1,2.4,0.1c0.2,6.7,8.9-0.3,14.3,2.1
						c3.8-2.6,2.3-8,6.7-8.5c-0.6-0.2-0.9-0.7-0.7-1.6c-5,1.9-10.6-0.4-12.6-3.6c-0.2,1.2,0.2,2.9-0.9,3.2c-0.9-3.6-9.1,4.6-6.3-3.4
						c-0.3-0.9-3.8-1-1.6-0.1c0.5,0.1,0.9,0.1,0.8,0.8c-2.5,3.7-2.9-0.6-3.3,3.9c-1.2-0.6-1.1-2.6-3.1-2.5c-0.2,0.9,0.1,2.3-0.9,2.4
						c-0.6-0.2-1.6-0.1-1.6-0.8c1-1.1,4-2.1,0.9-3.2c-0.5,3.9-1.1-2.9-4.7-1c-0.7,2.2,1.1,2.1,0.7,4c-0.8,0-1,0.6-1.6,0.7
						c-0.8-3.1-6.2-0.2-7.9-1.9c-0.2,1.5-0.6,2.6-1.7,3.1c0.2-1.5-0.8-1.8-0.7-3.2c-2.3,0.5-8.3-0.2-6.4,2.2
						c-1.1-0.1-1.8,0.3-2.4,0.7c1.4-1.6-0.5-1.6,0.9-3.2c-2.5-1-2,1.2-3.2,1.5c-0.6-2.3,1.2-2,0.9-4c-8.1-2.4-17.8-2.2-25.4-4
						c17.1,0.6,34.8,0,52.5,0.9c4.7-3.2,10.6,0.2,15.1,0.5c0.7,0,8.4-3.5,7.9,1.1c2.5,0.8,1.2-2.6,3.3-2.3c1.5,3.4,5.7-0.6,7.9,1.9
						c-1,0.1-1.9,0.2-1.6,1.5c2.1-0.7,4.8,0,7.1,1c1.4-3.1-2-1.7-2.3-3.3c5.8-0.4,0.9,4.6,6.2,4.2c1.1-2.5-2.6-0.7-1.5-3.2
						c1.9,0.3,2.9,1.4,5.5,1c-0.2-1.9,0.2-3.1,0.9-4c-2.2-0.7-2.1,1.1-4,0.7c0-0.8-0.6-1-0.7-1.6c1.3,0.3,2.2-1,0.8-1.6
						c-1.2,2.9,0-2.3-1.5-1.6c0.3,1.3-4.4,1.2-4-0.1c1.9,1.3,2.4-2.6,0.9-2.4c0.3,1.3-3.1,2.6-3.2,0.7c1.8-0.6,3.1-0.1,4.9-2.2
						c-4.8,3.6-10.4-3.4-12,2c-3.1-5.8-19.2-2.8-21.2-8.7c-2.6,1.1-4.9-1.2-6.3-1c0-1.4,0.3-2.5,0.9-3.2c-1.4-1.5-2.5,1-3.1-1.7
						c3.5,0.7-0.6-1.6,1.6-1.5c2.5,3.2,7,0.4,8.6,3.5c-2.5-0.8-3,0.6-4,1.5c0.7-3-4.2-1.6-3.2,0.7c3.8,2.5,8.4-3,10.3,0.3
						c2.2-2-1.5-1.2-1.5-3.2c1.4,1.1,6.3,0.1,5.6-1.4c0,1.1,1.4,0.8,1.5,1.6c-0.8,0.8-2.9,0.2-2.5,2.3c0,3,3.1,0.2,3.1,1.7
						c0,0.5,0.1,0.9,0.8,0.8c-1.5-3.3,0.1-5.4-2.2-7.2c3-0.6,8.8,1.4,8.8-0.5c5.1,2.7,12.9,2.8,19.8,3.8c0.2-5,6.2-3.8,7.4-7.7
						c-0.2,3.4,1.2,0,2.4,0.1c-0.5,2.1,0.2,2.9,2.3,2.5c-0.9-4.8-12.4-4.7-11.1-2c-3.1-2-3.8-0.5-6.2-4.2c-2.4-0.1-2.8,2-4.9,2.2
						c-0.7-1.5,2.5-2.6,0.1-3.2c-0.4,4.8-0.9-3.1-1.6-0.1c-0.8,1.5,2.3,2.7-0.1,3.2c-3.6-0.4-0.4-2.4-2.3-4.1
						c-1.4,0.4-0.1,3.8-1.7,3.9c-0.4-3.3-4.6-3.7-1.6-0.8c-5.8-2.5-8.5,0.7-14.3,0.3c0.7-3.5-1.6,0.6-1.5-1.6c0-0.5,0-1.1,0.1-1.6
						c1.1,1.3,3.2,0.7,4-0.7c-1.1,0-0.7-1.4-1.5-1.6c0.6,4.8-3.9-0.5-4.9,3c1,0.1,1.9,0.3,1.5,1.6c-2,0.2-4.8-0.5-6.3-1
						c2.2-1.5,3.1-0.7,4.8-1.4c-0.2-4-2.8-1.8-3.8-4.1c-4.1,4.7-5.8-0.4-10.4,1.3c0.1-1,1.1-1.1,0.9-2.4c-2.5-1.1-0.7,2.6-3.2,1.5
						c0.8-2.5-0.6-3-1.5-4c4.3,1.9,6.8-2.6,8.7,1.9c-0.6-1.7,2.2-3.5,2.4-1.5c-0.3,0.9-4.3,1.9-1.7,3.1c3.1-0.5,7.8-2.7,8.2-6.9
						c3.2,2.6,5.4,1.5,8.6,4.3c-1-2-1.8-3.3,0.2-5.6c0.1,2.8,3.6-1.3,3.2,0.9c-1.1,0.2-1.6,1.1-3.2,0.7c0.1,1.5,1.9,5.3,3.1,3.3
						c-2.5-2.2,2.3-2.8,3.2-0.7c-0.3,0.4-3.9,1.1-1.6,1.5c1.3-2.7,5.3-0.1,6.4-1.4c-0.6-0.2-0.9-0.7-0.7-1.6
						c-5.5,2.8-9.5-8.6-2.2-4.9c-1,0.1-1.9,0.2-1.6,1.5c2.4-0.6,2.5-0.6,4.8,0.2c0.4-4.2,8.9,0.6,4.9-3c2.5-0.7,3,4.3,4.7,1.7
						c-1.8-2.3,3.7,1.6,3.2-1.5c-0.8,0-2-0.4-0.8-0.8c2.3,0.8,0.9,1.2,0.7,3.2c3.3-0.6,2.7,0,6.4,0.2c1.1-2.5-2.6-0.7-1.5-3.2
						c1.7,1.4,6.3,0.6,7.2-1.4c-2.7-0.4-6.6-0.9-9.6,0.5c0.7,0.3,0.7,2.2-0.1,2.4c-1.1-4.4-5.5-1-7-5c2.2,0.7,2.1-1.1,4-0.7
						c0.8,0.8,0.2,2.9,2.3,2.5c0-3,2-2.3,4.8-1.4c3-3,1.9-5.6,2-11.1c-3,2-6.8,3.9-9.6,2.1c2.2-2.3,3.5-1.9,7.2-1.4
						c-3.8-4.4-8.7,2.5-9.5-2.7c-1.2,2.3,2,4.1-0.2,4.8c1.3-2.8-2.7-0.6-2.3-2.5c1,0,1.1-2.2,0.1-2.4c-0.2,1.8-2-1.1-4-0.1
						c-0.8,1.5,2.3,2.7-0.1,3.2c-0.6-0.6-0.9-5.2-2.3-2.5c0.7,0.5,2.4,3.8,0.7,4c0.4-1.9-1.4-1.8-0.7-4c-4,1.2-0.4-0.1-2.3-1.7
						c-1.1,1.7-4.8,1.2-1.7,3.1c-4.1-0.9-2.5-2.9-7.1-2.6c-0.2,0.9,0.1,2.3-0.9,2.4c-2.7-2.5-6.8,0.6-7.1-3.4
						c-0.8,0.8-1.6,1.6-2.5,2.3c0.3-1-2.2-2.8-2.4-0.9c1.4,3,4.6-0.6,5.5,2.6c-5.5,0.2-9-3.3-7.8-5c-2,2.2-5.2,3.1-6.4,1.4
						c-0.2,1.2,0.2,2.9-0.9,3.2c-2.8-1.5-4.2,2.5-4.8,0.6c1.1,0,0.8-1.4,1.6-1.5c0.8,0,1.6,0.1,2.4,0.1c-0.8-6.2-8.4-6.8-12.6-5.2
						c-0.2-0.6,0-1.6-0.7-1.6c-0.1,2.2,1.3,1.6-0.1,3.2c3.3-1.4,1.4,1.5,4.8,0.2c-1.5,1.6,0.5,3-0.9,4c-0.1-1-0.9-0.5-1.6-0.1
						c1.2-2.3,0.6-0.9-1.6-0.8c0.1-0.9,1.5-1.8,0.1-2.4c-0.4,1.8-4.2,0.5-4.8-0.2c-1.3,1.9-2.8,3.5-5.7,3.8c0-1.1,0.1-2.1,0.1-3.2
						c0.5,0.2,3,2.1,3.2,0.1c-0.5-1.6-4.4,0.1-4.7-1.7c0.2-1,0.9-0.5,1.6,0.1c-0.7-5.3-3.7,1.1-5.5-1.8c0.4-1.2,2.5-0.6,1.7-3.1
						c-2.5-0.8-3,0.6-4,1.5c-0.6-4.5,4.9-2.8,6.5-3c-0.1,1.3-2.1,0.6-1.7,2.3c5.3-6.6,15.7,1.5,24.8-3.2c-0.7-4-8.2-5.7-6.9-9
						c2.4,1,4.3,0.6,5.5,1.8c-1-0.3-2.8,2.2-0.9,2.4c2.8-2.5,2.5,4.3,4.6,4.9c-0.7,0.2-4.1,1.5-1.7,2.3c0.8-2.3,2.9-0.1,3.2-1.5
						c-0.7-0.2-2-3.6-0.7-3.2c3.2,1.6,10.9,1.6,12.9-3.6c-2.7,1.7-2.6,1.1-5.6-0.2c-0.1,1.1,0.3,1.8,0.7,2.4
						c-4.5,2.2-5.3-3.6-7.9-1.9c1.9,0.3-1,2.1-1.7,2.3c1.5-3.8,0.4-3.5-1.5-3.2c0.4-0.9,0.9-1.8,1.7-2.3c0.6,0.5,2.8-0.3,4-0.7
						c-1-0.1-1.9-0.3-1.5-1.6c0.8,0,1-0.6,1.6-0.7c0.4,1,0.8,1.8,1.5,2.4c2.4-1.3,3.1-2.9,0.1-4c5.3,0.7,10.3,5.9,14.3,1.3
						c-0.2,2,1.1,2.5,2.3,3.3c-0.2-3.3,3.7,0.5,4.7,1c1.2-2.3,6.9-2.9,7.2-1.4c3.7,0.1,3.8-3.6,5.8-5.4c0.5,3.7,4.1-1.8,8,0.3
						c0-2,0-3.8,1-4.7c-2.1,0.1-10.8-0.3-9.4-4.3c-1-0.1-1.9-0.3-1.5-1.6c-11.5-0.3-16.6,0.6-26.3-0.9c-1.1,0.5-0.2,3.1-1.7,3.1
						c-16.4-4.7-43.7-3.9-62.1-2c-1.1,2,3.1,2.6,0.7,3.2c-3.6-2.2-4.7,1.7-8,2.1c-0.7-1.5,2.5-2.6,0.1-3.2c-1.5,2.4-3.8,0.8-7.2,0.6
						c-1.1,2.7-5.1,3.8-8.1,2.9c1.6-0.4,3.5-1.6,0.9-2.4C824.7,396.6,820.8,394.2,821.1,396.1z M861.1,415.7
						c1.9-1.6,2.8,0.4,5.6-0.6C865,418,863.5,416.8,861.1,415.7z M894.3,496.4c0-0.5,0-1.1,0.1-1.6c0.6,0.4,1.3,0.9,2.4,0.9
						C896.2,497.4,895.4,497.4,894.3,496.4z M850.4,401.8c0.2-1.1,2.4-0.2,2.4-1.5C855.3,401.3,852,402.6,850.4,401.8z M866.4,400
						c1.4,0.6,0.1,1.5-0.1,2.4c-0.6-0.4-1.3-0.9-2.4-0.9C864.1,400.3,866.3,401.3,866.4,400z M859.7,408.5c1.1-0.9,4.7,2.2,5.4,4.2
						c-1.8,0.1-3.4-3.9-4.7-1.7c-1.1-0.4,0.1-0.7,0.1-1.6C860.6,408.6,860.2,408.6,859.7,408.5z M872.4,411.3
						c1.4-0.2,1.3,4.5-0.9,3.2C871.4,413,872.5,412.8,872.4,411.3z M879.5,411.5c0.5,0,1.1,0,1.6,0.1c0.3,1.7-1.2,1.5-2.4,1.5
						C878.8,412.5,879.5,412.3,879.5,411.5z M857.2,412.4C860.2,409.7,861.2,414.7,857.2,412.4L857.2,412.4z M889,412.6
						c0.9,2.6-2.6,0.5-1.7,3.1C885.7,415.5,887.3,412,889,412.6z M846.8,414.4c0.7,0.9,2.9,0.3,2.3,2.5c-1.5-0.4-4.8,0.9-3.9-1.7
						C846.1,416.1,846.8,415.9,846.8,414.4z M855.4,419.5c0.5,1.6,4.8-0.3,3.9,2.5c1.2-0.9,3.3-0.9,4.1-2.3c0.8,0.5,0.8,1.9,2.3,1.7
						C863,422.8,856.4,424.4,855.4,419.5z M891.8,425.5c-1.1-0.1-2.2-0.2-2.4,0.7c-1.5-0.1,0.7-2.9,0.9-4c1.6,0.9,4,0.1,4.7,3.3
						c-0.7-0.9-2.9-0.3-2.3-2.5C891.7,423.2,892,424.5,891.8,425.5z M854.5,422.7c0.4,1.8-1.6,1.1-1.7,2.3
						C850.8,424.6,852.8,421.9,854.5,422.7z M930.5,434.7c2.6-0.6,1,2.7,3.1,2.5C933.4,438.6,929.9,436.7,930.5,434.7z M928.9,435.5
						c0.7,2.4-4.5,2.3-7.2,1.4c1.5-0.9,5.2-1.8,6.4-0.6C928.8,436.4,928.9,435.9,928.9,435.5z M937.6,437.3c0,0.5,0,1.1-0.1,1.6
						C933.7,439.6,936.2,434.6,937.6,437.3z M875.4,438.5C873.2,435.9,880.9,437.1,875.4,438.5L875.4,438.5z M931.2,439.5
						c-0.2-1.4,4.5-1.3,3.2,0.9C933.6,439.8,932.6,439.5,931.2,439.5z M815.7,438.1c-0.2-1.4,4.5-1.3,3.2,0.9
						C818.2,438.4,817.1,438.1,815.7,438.1z M829.1,443.3c1.3-2.3,0.8,2.9-1.6,1.5c0.1-1.4-0.9-1.7-0.7-3.2c1,0.4,1.6,1.1,1.5,2.4
						C828.9,444.3,829,443.8,829.1,443.3z M840.2,446.1c-3-2.1-6.8,0.4-8.7-2.7c1.4,1,4.8-0.6,7.1,1c-0.5-0.8-1.8-0.9-1.5-2.4
						c3.2-0.1,2.8,4.9,4.7,1C844.9,444.1,837.6,447.9,840.2,446.1z M818.6,446.2c1-3.2,3.5-0.1,6.4-0.6c-0.9,0.7-0.3,2.9-2.5,2.3
						c1-0.9,0.4-2,0-0.8C821.4,445.3,821,445.5,818.6,446.2z M875.8,451.2c-0.3-1.7,1.2-1.5,2.4-1.5c-1.1,1.8,0.1,1.5-0.9,4
						c-1-0.2-0.8-1.6,0.1-1.6C877.4,451.3,876.4,451.4,875.8,451.2z M885.4,451.6c1.6-2,0,1.3-0.1,2.4c-0.5,0-1.1,0-1.6-0.1
						c-0.4-0.7-0.8-1.3-0.7-2.4C883.6,452,885.1,452.8,885.4,451.6z M871.1,451.1c2.1,0.8-0.8,3.5-1.6,1.5
						C869.6,451.8,871,452.1,871.1,451.1z M891.7,452.6c0,0.5,0,1.1-0.1,1.6C887.8,454.8,890.3,449.9,891.7,452.6z M866.1,457.3
						c0-0.5,0-1.1,0.1-1.6c2.1-0.2,0.5,3.1,3.1,2.5C868.9,460.1,866.3,458,866.1,457.3z M883.6,456.3c1.4-0.1,1.6,1,3.2,0.9
						C887,458.6,882.3,458.4,883.6,456.3z M896.8,467.9c-1.3,1.8-2,1.1-4,0.7C893.4,466,894.9,467.6,896.8,467.9z M885.6,467.5
						c1.5-0.7,2.6,2.5,3.2,0.1c2.3,1.2-1.4,2.8-3.3,2.3C885.6,469.1,885.6,468.3,885.6,467.5z M896.6,472.6c0.2-0.7-0.3-0.8-0.8-0.8
						c0.4-0.6,0.9-1.3,0.9-2.4C896.3,471.9,899.8,471.4,896.6,472.6z M803.6,468c1.2,0.5,2,1.2,3.1,1.7
						C806.2,471.6,802.7,470,803.6,468z M842.4,474.8c-2,3.7-2.8-0.8-4.1,2.3c-3.4-2.1-6.4-1.5-10.3-0.3c0.2-0.9,1.6-0.5,1.6-1.5
						c-1.1-1.4-3.4,2.9-7.2,1.4c0.4-1.7-1.1-1.6-2.3-1.7c4.6-2.7,14.8-2.2,25.5-0.8c-0.9,1-0.7,1.6,0.7,1.6
						C845.6,476.3,841.9,476.9,842.4,474.8z M811.4,473.8c0.8-2.3,2.5,0.6,4,0.1c-0.4,1.5-3.1,0.5-2.5,3.1
						C810.7,477.5,813.5,473.3,811.4,473.8z M813.3,486.6C808.2,488.9,804.9,485.3,813.3,486.6L813.3,486.6z M811.6,490.5
						c-1.1-2.1,2-2.3,4-0.7C815.3,492.5,812.2,487.7,811.6,490.5z M867.2,497.2c-0.6,1.1-1.7,1.4-3.2,1.5
						C863.2,496.2,865.7,497.3,867.2,497.2z M902.7,505.5c0.2-0.7-0.3-0.8-0.8-0.8c1.3-1.8,2-1.1,4-0.7c0.3,2.2-3,0.6-3.3,2.3
						C901.8,506.1,902.3,505.5,902.7,505.5z M915.5,505.1c-5.2,1.6-9.7,2.6-3.2-0.9C913,504.9,914.1,505.1,915.5,505.1z"/>
					<path fill-rule="evenodd" clip-rule="evenodd" fill="#7D6143" d="M828.3,419.4c-1.3,3.5-3.6,0.9-6.4,2.2
						c0.7-2.2-1.5-1.7-1.5-3.2c-0.7,2.8-5.1,1.7-6.5,3.8c-1.4-2.8-3.4-4.8-7.9-2.6c-0.5-3,3.4-1.3,4.1-3.1c3,3.3,8.8,2.6,11.9,0.4
						C821.7,421.5,826.4,416.8,828.3,419.4z"/>
					<path fill-rule="evenodd" clip-rule="evenodd" fill="#7D6143" d="M912.2,410.2c1.4-0.2,3.9,2.4,4.8,0.2c1.2,0.7,1.6,2.1,1.5,4
						c-0.6-0.2-0.8-0.8-1.6-0.8c-0.8,0-0.6,1-0.8,1.6c-1.1-0.2-1.4-3.4-1.6-0.1c-1.2-0.7-1.1-2.6-1.5-4c-2.1-0.6,0.4,3.8-1.7,3.1
						c-0.5,0-1.1,0-1.6-0.1C909.6,411.9,912.2,412.3,912.2,410.2z"/>
					<path fill-rule="evenodd" clip-rule="evenodd" fill="#7D6143" d="M926.5,413.1c-0.6,1.6-3.7,0.4-4.1,2.3
						c-1.1,0.4,0.8-4.4-1.5-1.6C919.2,411.2,924.1,413,926.5,413.1z"/>
					<path fill-rule="evenodd" clip-rule="evenodd" fill="#7D6143" d="M877.7,417.9c0.9-2-1.4,4.6,3.9,2.5c0.1,0.7-0.3,0.7-0.8,0.8
						c0,0.5,0,1.1-0.1,1.6c-1.9-2-3.5,0.5-6.4-0.2c0-1.1,0.1-2.1,0.1-3.2c3.2,0-0.3,1.2,1.5,2.4
						C878.2,422.2,875.5,417.4,877.7,417.9z"/>
					<path fill-rule="evenodd" clip-rule="evenodd" fill="#7D6143" d="M846.6,420.8c-0.1-0.7,0.3-0.7,0.8-0.8c0.5,0,1.1,0,1.6,0.1
						c-1.7,1.8-2.8,4.7-5.7,3C843.5,421.8,849.3,422.4,846.6,420.8z"/>
					<path fill-rule="evenodd" clip-rule="evenodd" fill="#7D6143" d="M883.3,516c-0.6-0.2-1.6-0.1-1.6-0.8c1-0.3,1.7-1,1.7-2.3
						c-2.5,0.5-2.9-0.9-4.7-1c-1.4,3.1,3.4,0.4,3.1,2.5c-0.4,0.9-0.9,1.8-1.7,2.3c0.3-3.2-0.2-1.8-2.3-1.7c0-1.2-3.1-4.4-4.7-1.7
						c-0.3,2.5,2.4-1.9,2.4,0.9c-1,1.1-3,1.1-4.1,2.3c-0.4,2.9,1.7,2.6,3,6.5c-1.3-1.5-2.8-0.2-2.5,2.3c5.1,0.7,7.3,0.1,10.3,1.9
						c-0.2-5,4.7,0.1,5.7-3c0,0.8-0.1,1.6-0.1,2.4c2.6,0.5,4-0.1,4.8-1.4c-0.1,1.4,0.5,2.1,1.5,2.4c1.8-1.1-0.9-2,0.9-2.4
						c2.6,4.4,11.6,1.7,15.1,2.1c0.3,2,4,2.1,7.9,2.6c1.2-6-3.2-3.6,1-6.3c-1.8,0.2-3-0.3-3.1-1.7c1,0.3,4.9,0,2.4-0.7
						c-3.7-0.8-5.3-4.6-3.8-6.5c-0.3,3.1,3.3,2.5,3,5.7c2-1,3.8,1.9,4,0.1c-2.1-0.3,2.3-4.5,2.5-2.3c-0.1,1.6-2.2,0.9-1.7,3.1
						c1.4,0,2.5,0.3,3.2,0.9c-1.9-2.3,1.6-4.4,2.5-3.1c0.1,0.8-3.5,1.5-0.9,2.4c0.2-2.8,2.6,1.8,2.4-0.7c-2.8-1.5,1.2-2.5,1.7-3.1
						c-2-1.9-3.9,0.9-4.7-1.7c0.3,3.9-4.9-2.6-5.6-0.2c0.9,0.2,1.2,0.9,1.5,1.6c-2.3-2.1-2.8,1.9-3.3,2.3c-1.2-1.5,0.8-2.7-1.5-4
						c-0.2,0.6-0.7,0.9-1.6,0.7c0-0.8,0.1-1.6,0.1-2.4c1.6-0.3,5,1.9,3.2,0.1c-5.4-3.1-9.3,1.8-12,2c0-1.1,1.4-0.7,1.6-1.5
						c-1.5,0-1.7-0.7-0.7-1.6c-2,1-3.8-1.9-4-0.1c1,0.8,2.9,0.8,3.1,2.5c-3.6-0.4-8.3-1.5-8.8,0.5c-2.5,0.3-2-2.2-3.9-2.5
						c-0.7,2.9-2.4-0.4-4,1.5c0.1-0.9,1.5-1.8,0.1-2.4c-0.1,1.5-3.7-1.5-1.6,1.5c-2.5-1-2,1.2-3.2,1.5c-0.3-2.2,2-6.3-0.7-4
						C886.5,512.5,883,515.5,883.3,516z M899.1,519.7c-1,0.2-0.9,1.6-0.1,1.6c-1.2,2.3-3.2-1.1-2.3-3.3c5.1,1.3,3.2-0.4,5.6-1.4
						c0.9,2.6-1.1,3.8,1.5,4c-0.4,0.6-0.9,1.3-0.9,2.4c-0.7-0.5-1.4-1-1.6-0.1C900.9,522,901,520.9,899.1,519.7z M912.7,517
						c-1.7,2.3-4.1,3.8-7.3,4.5c-0.3-0.7-0.7-1.4-1.5-1.6c0.1-2.2,2.1,2,1.6-1.5C909.7,519.4,909.7,518.5,912.7,517z M882.4,516.8
						c0.9,0.2,0.5,1.6,1.5,1.6c-1.2,1.7-1.9-0.6-4,0.7C877.5,517.9,883.2,518.8,882.4,516.8z M888,517c0.9,0.2,0.4,0.8,0,0.8
						c0.1,1.2,2.4,0.4,2.3,1.7c1.9,0.8-2.8-0.2-4.8,0.6C884.9,517.5,888.2,519.1,888,517z M876.8,519c0.7,0.2,0.8-0.3,0.8-0.8
						c3.2,1.9-2.6,1-2.5,2.3c-1.5-0.1-0.5-2.6-2.3-2.5c0.6-1.4,1.5-0.1,2.4,0.1c0.7-0.4,1.3-0.8,2.4-0.7
						C877.5,518,876.8,518.2,876.8,519z M899.7,525.3c2.3-0.6,2,1.2,4,0.9C903.7,527.5,898.4,527.7,899.7,525.3z"/>
					<path fill-rule="evenodd" clip-rule="evenodd" fill="#7D6143" d="M920,513.2c0.9-0.9,2.4-0.5,4.8,0.2
						C923.5,514.3,921.8,514,920,513.2z"/>
					<path fill-rule="evenodd" clip-rule="evenodd" fill="#7D6143" d="M940.6,517.1c-0.7,0.6-1.8,0.8-3.2,0.7
						c2.9,1.2,2.4,4.2-0.2,5.6c-1.7,2,0.1-2.8,1.7-2.3c-0.1-0.6-0.8-0.8-0.7-1.6c-2.5-1.1-0.7,2.6-3.2,1.5c0.3-1.3-0.6-1.5-1.5-1.6
						c2.1-0.8,3.8-2,5.7-3c2.5,1.3,4.7,2.8,7.9,3.4c-0.2,1-1.6,0.7-1.6-0.1c-1.3,0.3-0.8,2.5-3.2,1.5c1.2-2.3,0.6-0.9-1.6-0.8
						C941.8,518.7,940.4,519.3,940.6,517.1z"/>
					<path fill-rule="evenodd" clip-rule="evenodd" fill="#7D6143" d="M864.1,517.8c0.2-0.9,1.6-0.5,1.6-1.5c1.8,2.9,0.6-0.5,4,0.1
						c0,1.3-0.5,3,0.7,3.2C869.2,521.1,866.3,517.8,864.1,517.8z"/>
					<path fill-rule="evenodd" clip-rule="evenodd" fill="#7D6143" d="M826.7,517.3c0.8,0,0.6,1,0.7,1.6c2.3-0.8,7.9-1.5,13.6-2.7
						c-0.1,2.1-3.4,0.7-2.5,3.9c2.4-1,2.9-4.1,7.3-2.9c-0.9,4.8,5,4.3,9.3,7.5c0.3-2.2,1.1-0.8,4.8-0.6c-1.4,1.5,0,1-0.1,3.2
						c-2.3-0.2-8.9,2.5-9.5-1.1c-2.4,0.4,0.7,1.7-0.1,3.2c-0.6-0.7-2.2-0.5-2.3-1.7c-0.9,3.6-5.6-0.3-5.6,2.2
						c-0.5-1.4-2.4-1.4-3.1-2.5c-1.9,1.6-9.2,0.4-13.6,1.9c0.2-0.9,1.6-0.5,1.6-1.5c0-2.3-4.8,2.9-4-0.9c-2.3,3.8-12.8-1.1-12.8,1.2
						c-2.2-0.3-1.7-3-3.1-4.1c2.9-1.3,4.4-3.2,8.8-1.3c-0.4-1.7-1.6-2.6-2.3-4.1c-1.4-0.2-2.1,1.3-2.4-0.1c-0.9,0.2-0.6,1.6-1.6,1.5
						c-1.6,1.5,1.5-4.5,4.9-3c0.1,2.5,1.9,3.3,3,4.9c1.2-0.6,1.2-2.5,1.7-3.9c2.5-0.8,1.9,1.3,3.1,1.7
						C822.9,516.1,823.6,519.1,826.7,517.3z"/>
					<path fill-rule="evenodd" clip-rule="evenodd" fill="#7D6143" d="M809.1,517.5c2.9-1.8-6.5,4.4-1.7,2.3c0,1.4-4.4,1.2-6.4-0.2
						C803.1,518.2,806.6,518.4,809.1,517.5z"/>
					<path fill-rule="evenodd" clip-rule="evenodd" fill="#7D6143" d="M900.2,532.5c-4.5,2.3-6.5,0-11.1-1.2c-1,1.2-1.1,3.2-2.5,3.9
						c-1.9-1.8-5.4-1.9-7.1-1.8c0.9,0.2,1.2,0.9,1.5,1.6c-2.4-0.7-2.9,0.7-4.8,0.6c1.8-1.8,0.8-2.1,1.7-3.9
						c-5.7,1.6-13.7,0-17.5-0.6c-0.9,2.9,2.6,1.6,3.1,3.3c-1.5,0.1,0.4,1.3-0.8,1.6c-4.6-1.5-17.6-3.2-22.3,0.9
						c3.8-0.2,6.9,0.2,8.7,1.9c0.8-1.5-2.3-2.7,0.1-3.2c2.8,0.7,4.6,2.4,7.1,3.4c0.1-1,0.3-1.9,1.6-1.5c-2.6,2.4,2.6,1.4,4.7,1.7
						c0.8-3.7-2.6,0.5-2.3-1.7c2-2.2,4.5,0.9,6.4-0.6c-2.4,2.9,0.7,2.2-0.2,4.8c0.5-2.3,1.2,1.3,2.4,0.9c0-0.5,0-1.1,0.1-1.6
						c0.5,0,0.9-0.1,0.8-0.8c-1.4,0.1-1.8-0.9-1.5-2.4c1.1,0.3,1.5,1.2,3.2,0.9c-0.6,2.7,1.5,2.7,2.3,4.1c0.3-5.4,5.6,2.4,4.9-3
						c1.7,2.9,2.4,1.9,5.5,1c0.2,1.8-2.3,0.8-2.5,2.3c3,0.5,2.6-2.7,6.4-1.4c-2.3,1.7,4.8,3.8,5.5,2.6c-0.7-0.3-0.7-2.2,0.1-2.4
						c1.4,0.3,1.9,5.4,3.9,2.5c-2.3,0.3-1.1-2.2-0.7-2.4c0.8,1.6,3.8,4.2,4,0.1c-0.9-0.2-2.3,0.1-2.4-0.9c2.2-0.1,1.9-2.9,3.3-3.9
						c2.5,0.3,1.2,4,4.7,3.3c0.3-1.6-1-1.6-1.5-2.4c1.1,0.1,1.8-0.3,2.4-0.7c-0.1,1.4,0.1,2.5,0.7,3.2c2.5-0.8,2.1,0.3,4-0.7
						c-1.3-2.7,1.3-2.7,1.8-5.5c-4.1-0.6-4.3,2.9-5.5-1c0.3,2.5-2.1,2.2-3.3,3.1c0.1-1,1.1-1.1,0.9-2.4c-2.6,0.5-3.9,1-1.6-0.8
						c-2.8-1.3-4.9,2.4-5.6,0.6C899.5,533.9,899.9,533.2,900.2,532.5z M889.1,532.9c2.4,0.6,1.5,0.6,4,0.1
						C892.7,535.2,888.7,536.6,889.1,532.9z M865.2,533.7c2.6-0.5,6,1.2,1.6,0.8c-0.8,0-0.6,1-0.8,1.6
						C864.9,536,865.2,534.7,865.2,533.7z M891.3,538.6c0.5-0.9,0.4,2.1,3.1,1.7c-1.1,2.4-3-1.3-4,0.7c-1.2-0.5,0-0.8,0.8-0.8
						C890.8,539.4,890.3,538.7,891.3,538.6z"/>
					<path fill-rule="evenodd" clip-rule="evenodd" fill="#7D6143" d="M834.8,535.9c-1.7,1-4.5,2.4-4.7-1c5.1-1,4.7,1.9,9.5,0.3
						c0,1.1-0.1,2.1-0.1,3.2c-2.4-2.9-6.6,2.1-6.3-1C834.5,537.8,834.7,536.9,834.8,535.9z"/>
					<path fill-rule="evenodd" clip-rule="evenodd" fill="#7D6143" d="M843.9,502c3,3.1,5.4-0.2,12-0.4c-0.1,5.1-5.6,8.8-9.9,10
						c-2,0.6-4.3-3-4.8-0.2c-0.3,1.7-13.1-2.1-19.1,0.2c0.8-3.1,0.5-5.1,2.6-7.9c4.3,2,8.5-0.3,11.9,2
						C838.3,503.7,843.1,505,843.9,502z"/>
				</g>
			</g>
		</g>
		<g>
			<g>
				<g>
					
						<rect x="442.5" y="461.3" transform="matrix(-0.9995 -3.282712e-002 3.282711e-002 -0.9995 995.5615 1056.1093)" fill="none" width="127.8" height="117.1"/>
					<path fill-rule="evenodd" clip-rule="evenodd" fill="#7D6143" d="M475.8,469.8c-1.1,0.8-1.8,0.1-4.2,0.5
						C472.5,469.4,474.8,468.7,475.8,469.8z"/>
					<path fill-rule="evenodd" clip-rule="evenodd" fill="#7D6143" d="M551.4,479.5c1.3-0.3,0.8,1.2,1.8,1.3
						C552.8,482.2,550.8,480.7,551.4,479.5z"/>
					<path fill-rule="evenodd" clip-rule="evenodd" fill="#7D6143" d="M526.1,484.6c-1.1,4.4-2.3-0.1-2.5,2.9
						c-0.7-0.9-1.7-1.5-1.7-3C523.8,483.7,523.9,484.4,526.1,484.6z"/>
					<path fill-rule="evenodd" clip-rule="evenodd" fill="#7D6143" d="M453.5,495.4c-1.9,0.5-3.8,0.2-4.2-0.7c-0.6,1.8-3.7,0.9-6,1
						c0-2,3.1-0.8,3.1-2.9c3.9,0.4,5.1,1.9,7.2,0.2C456.7,493.8,452,495,453.5,495.4z"/>
					<path fill-rule="evenodd" clip-rule="evenodd" fill="#7D6143" d="M568.6,501.6C565.7,502,567.6,498.8,568.6,501.6L568.6,501.6z
						"/>
					<path fill-rule="evenodd" clip-rule="evenodd" fill="#7D6143" d="M569.8,501c0.4,0,0.8,0,1.2,0c0.2,1.3-0.9,1.1-1.8,1.1
						C569.3,501.7,569.8,501.6,569.8,501z"/>
					<path fill-rule="evenodd" clip-rule="evenodd" fill="#7D6143" d="M531.9,506.9c2.4,0.3-0.5,1.8,1.1,2.4
						C531.4,510.8,531.3,508.7,531.9,506.9z"/>
					<path fill-rule="evenodd" clip-rule="evenodd" fill="#7D6143" d="M536.1,507.7c-0.2,1.4-1.6,1.3-2.4,0.5
						C533.9,506.8,535.3,506.9,536.1,507.7z"/>
					<path fill-rule="evenodd" clip-rule="evenodd" fill="#7D6143" d="M532.9,512.9c-0.7-0.1-0.5-1.1-0.5-1.8c0.6,0,1.2,0,1.8,0.1
						C534.5,512.5,533,512,532.9,512.9z"/>
					<path fill-rule="evenodd" clip-rule="evenodd" fill="#7D6143" d="M539.6,511.4c-0.1,0.7,0.1,1.1,0.6,1.2c-1,0.9-1.9,0.2-3-0.1
						C537.3,511.4,538.2,511.2,539.6,511.4z"/>
					<path fill-rule="evenodd" clip-rule="evenodd" fill="#7D6143" d="M523.1,540.7c-0.2-1.2,2.7-0.8,1.8,0.7c-0.4,0-0.8,0-1.2,0
						C523.8,540.8,523.4,540.7,523.1,540.7z"/>
					<path fill-rule="evenodd" clip-rule="evenodd" fill="#7D6143" d="M490.8,542c0.6,0,1.2,0,1.8,0.1c-0.2,0.8-1.1,0.9-1.3,1.8
						C490.6,543.7,490.8,542.7,490.8,542z"/>
					<path fill-rule="evenodd" clip-rule="evenodd" fill="#7D6143" d="M545.1,544.4c0.2-0.8,1.5-0.4,2.4-0.5c-0.1,1.6,1,1.2-0.1,2.4
						C545.4,546.7,546.6,544.3,545.1,544.4z"/>
					<path fill-rule="evenodd" clip-rule="evenodd" fill="#7D6143" d="M548.7,543.9c1.2-0.2,1.9,0.2,1.8,1.3c-0.6,0-1.2,0-1.8-0.1
						C548.6,544.7,548.6,544.3,548.7,543.9z"/>
					<path fill-rule="evenodd" clip-rule="evenodd" fill="#7D6143" d="M487.2,542.5c1.4-0.2,1.3,1.1,3,0.7
						C489.2,544.1,486.8,545,487.2,542.5z"/>
					<path fill-rule="evenodd" clip-rule="evenodd" fill="#7D6143" d="M491.8,546.2c0.5,0.4,1,0.8,1.2,0c2.4,1.7-1.8,1.3-1.3,2.9
						C490,548.7,492.1,547.3,491.8,546.2z"/>
					<path fill-rule="evenodd" clip-rule="evenodd" fill="#7D6143" d="M495.3,548.1c0.5,0.5,1.3,0.7,2.4,0.7
						C497.9,549.9,494.3,549.8,495.3,548.1z"/>
					<path fill-rule="evenodd" clip-rule="evenodd" fill="#7D6143" d="M549.3,560.1c-0.3,1.5-2.3,0-1.8-1.3
						C548.3,559.1,548.5,559.9,549.3,560.1z"/>
					<path fill-rule="evenodd" clip-rule="evenodd" fill="#7D6143" d="M547.5,560c0.1,1-0.6,1-0.7,1.8
						C545.7,562,546.1,559,547.5,560z"/>
					<path fill-rule="evenodd" clip-rule="evenodd" fill="#7D6143" d="M460.4,557.8c0.5,0.7,2.2,0.3,1.7,1.8
						C460.8,559.7,460.2,559.1,460.4,557.8z"/>
					<path fill-rule="evenodd" clip-rule="evenodd" fill="#7D6143" d="M525.7,568.9c0.3-1.3,2.9-0.1,4.2-0.5
						C529.6,569.7,527,568.5,525.7,568.9z"/>
					<path fill-rule="evenodd" clip-rule="evenodd" fill="#7D6143" d="M464.6,467.1c0.9,0.1,0.5,1.5,0.5,2.4
						c1.8-0.4,1.7,1.1,3.6,0.7c-0.1-1.9,3.5,0.1,4.3-2.2c3.5,1.9,9,2.8,8.8,5.1c2.9-3.9,5.2,1.3,8.4-1.5c0.6,3.4-5.3,0.7-5.4,1.6
						c0.7,0.3,1.2,0.8,1.1,1.8c-1.3-0.9-4.4,0.4-1.7-1.8c-5.6,1-10.2-0.7-17.3,0c-5,0.5-13.2,0.2-12.2,6.2c5.9-1.3,7.2,1.7,10.8-2
						c-0.2,0.8-1,1-1.3,1.8c2.4,1.3,6.4,2,6.6,0.2c0.5,1.9,3.4,1.5,4.7,2.5c-3.3,0.2-3.3,0-5.4,1c-0.7-2.3-2.5-0.2-4.1-1.9
						c1,1.6-0.8,2.1,0.5,3c1.6-2.7,4.3,2,5.9,1.4c-0.1-1.2,2.3-2.8,3-1.1c-0.9,0-2.1-0.1-1.8,1.1c1.5-0.7,2.9,1.4,3,0.1
						c-0.8,0-0.7-1.7,0.1-1.8c0.2,1.3,1,2.2,2.3,2.5c1.5-0.7-0.6-2.2,0.7-2.4c0.7,0.9,1.3,3.9,2.3,1.3c-0.5-0.1-1.2-0.1-1.2-0.6
						c2.4-1.5,1.7,0.2,2.3,1.3c1.2-3.8,3.6,0.9,6-1.6c-1,1.2,0,0.8-0.1,2.4c-1.5-1.9-2.1,2.4-3.6,0.5c-0.6,2.8,2-0.3,1.8,1.3
						c-1.8,0.5-2.5,1.2-2.5,2.3c-1.3-0.5-7.6-1.2-4.8,1c-1.8,0-5.9,1-4.8-0.8c-4.4,1.1-7.7-1-9,1.5c-1.4-0.2-3-0.7-1.7-1.8
						c-3.5-0.9-4.1,1.4-6.6,1.6c0.1,2,2,3-0.1,4.2c1.3-2.2-1.2-2.3-2.3-3.7c1.4,2.5-1.3,1.1-1.3,3.5c1.5,0.7,2.2-2.5,3-0.5
						c-0.4,0-0.8,0-1.2,0c-0.5,1.8,0.5,2.2,0.5,3.6c-0.8-0.1-0.8-0.8-1.8-0.7c-0.2,3.2,2.7,0.1,3.5,2.5c-0.3,1.1-1.7,1-1.3,2.9
						c2.9,0.9,2.8,1.8,5.3,1.4c-0.1,1,0.1,1.9,0.5,2.4c-1.3,0.3-1.8-1.8-1.8,0.5c0.3,1.2,2.8,0.5,2.9,1.9c-2.1,0.6-2.7,2.8-5.5,2.8
						c-0.2,1.1,0.6,1.3,0.5,2.4c-1.6-1.7-0.6,0.9-1.8,1.1c-2.2,0.1-2.9,0.8-4.8-0.2c-0.6,2.3-2.3,1.2-4.2,1.1
						c-0.9,2.9,3.5,1,4.1,2.5c-1.9-0.4-2.8,0.3-4.2,0.5c0.7-0.8,0.7-1.4-0.5-1.8c-0.3,1.1-2.3,0.4-1.9,2.3c1.6,0.7,3.1,0.8,4.8,0.2
						c0.7,0.8,0.7,2.2-0.1,3c2.6,0.1,3.7-0.6,4.8,0.2c-0.6,1.8-4.6,2-2.5,4.7c-2.2,0.3-4.8,0.3-5.4,2.2c5.5,1.7,5.7-1.2,10.1,1.5
						c-1.5,0.2-6.3,0.3-4.9,3.4c-1.8,0-3.6-0.2-3.6,1.7c2.6-0.1,4.6-0.6,6.6,0.2c-1.1,0-2,0.3-2.4,1.1c1,1.1,2.8-0.1,3.6-1.1
						c-0.3,2.5,8.2,2.1,9.5,0.3c0,0.6,0,1.2-0.1,1.8c3.1-1.8,3.7,1.4,4.2-1.7c9.3,2.5,21.7,0,29.8,3.4c-1.9,0.6-4.4,1.4-5.4-0.2
						c0,0.4,0,0.8,0,1.2c-0.4,0-0.7,0.1-0.6,0.6c1.1,0.1,2,0.5,2.3,1.3c-0.4,0.6-3.1,1.9-1.3,2.9c0.9-1,3.2,0.9,4.2-1.1
						c0.4,1.9,0.4,1.2-0.1,3c2,0,1.1-2.9,3.7-2.3c0.2,2,1.8,1-0.1,2.4c6,1.9,17.8-1.1,23.8,2.6c0.1-0.9-0.1-2.2,0.7-2.4
						c0.6,0,1.2,0,1.8,0.1c0.2,5,6.7-0.2,10.7,1.5c2.9-1.9,1.7-6,5-6.4c-0.5-0.1-0.7-0.5-0.6-1.2c-3.7,1.5-8-0.3-9.5-2.7
						c-0.1,0.9,0.1,2.2-0.7,2.4c-0.7-2.7-6.9,3.4-4.7-2.5c-0.2-0.7-2.9-0.8-1.2,0c0.4,0,0.7,0.1,0.6,0.6c-1.9,2.8-2.2-0.4-2.5,2.9
						c-0.9-0.5-0.8-1.9-2.3-1.9c-0.1,0.7,0,1.7-0.7,1.8c-0.5-0.1-1.2-0.1-1.2-0.6c0.8-0.8,3-1.6,0.7-2.4c-0.4,2.9-0.8-2.2-3.6-0.7
						c-0.5,1.7,0.8,1.6,0.5,3c-0.6,0-0.7,0.5-1.2,0.6c-0.6-2.3-4.7-0.1-5.9-1.4c-0.1,1.1-0.5,2-1.3,2.3c0.2-1.1-0.6-1.3-0.5-2.4
						c-1.7,0.4-6.2-0.2-4.8,1.6c-0.8-0.1-1.3,0.2-1.8,0.5c1.1-1.2-0.4-1.2,0.7-2.4c-1.9-0.7-1.5,0.9-2.4,1.1c-0.4-1.7,0.9-1.5,0.7-3
						c-6-1.8-13.4-1.7-19-3c12.8,0.5,26.1,0,39.4,0.7c3.5-2.4,8,0.2,11.3,0.4c0.5,0,6.3-2.6,5.9,0.8c1.9,0.6,0.9-1.9,2.4-1.7
						c1.1,2.6,4.3-0.4,5.9,1.4c-0.7,0-1.4,0.1-1.2,1.2c1.6-0.5,3.6,0,5.4,0.8c1-2.3-1.5-1.3-1.7-2.4c4.4-0.3,0.7,3.4,4.7,3.1
						c0.8-1.9-1.9-0.5-1.1-2.4c1.4,0.2,2.2,1,4.2,0.7c-0.1-1.4,0.2-2.3,0.7-3c-1.7-0.5-1.6,0.8-3,0.5c0-0.6-0.5-0.7-0.6-1.2
						c1,0.2,1.6-0.8,0.6-1.2c-0.9,2.2,0-1.8-1.2-1.2c0.2,1-3.3,0.9-3-0.1c1.4,1,1.8-2,0.7-1.8c0.2,1-2.3,1.9-2.4,0.5
						c1.4-0.5,2.3-0.1,3.6-1.7c-3.6,2.7-7.8-2.5-9,1.5c-2.3-4.4-14.4-2.1-15.9-6.5c-2,0.9-3.7-0.9-4.8-0.8c0-1,0.2-1.9,0.7-2.4
						c-1-1.2-1.9,0.8-2.3-1.3c2.6,0.5-0.4-1.2,1.2-1.2c1.8,2.4,5.2,0.3,6.5,2.6c-1.9-0.6-2.3,0.4-3,1.1c0.5-2.3-3.1-1.2-2.4,0.5
						c2.8,1.8,6.3-2.3,7.8,0.3c1.6-1.5-1.1-0.9-1.1-2.4c1,0.8,4.7,0.1,4.2-1.1c0,0.8,1,0.6,1.2,1.2c-0.6,0.6-2.2,0.1-1.8,1.7
						c0,2.2,2.3,0.1,2.3,1.3c0,0.4,0.1,0.7,0.6,0.6c-1.2-2.5,0.1-4.1-1.6-5.4c2.3-0.4,6.6,1,6.6-0.4c3.8,2,9.7,2.1,14.8,2.9
						c0.2-3.8,4.7-2.8,5.6-5.8c-0.2,2.5,0.9,0,1.8,0.1c-0.4,1.5,0.2,2.2,1.7,1.8c-0.7-3.6-9.3-3.5-8.3-1.5c-2.3-1.5-2.8-0.4-4.7-3.1
						c-1.8,0-2.1,1.5-3.6,1.7c-0.5-1.1,1.9-1.9,0.1-2.4c-0.3,3.6-0.6-2.3-1.2,0c-0.6,1.1,1.7,2.1-0.1,2.4c-2.7-0.3-0.3-1.8-1.7-3
						c-1,0.3,0,2.8-1.3,2.9c-0.3-2.4-3.4-2.7-1.2-0.6c-4.3-1.9-6.3,0.5-10.8,0.2c0.5-2.6-1.2,0.4-1.2-1.2c0-0.4,0-0.8,0-1.2
						c0.9,1,2.4,0.5,3-0.5c-0.8,0-0.5-1.1-1.2-1.2c0.4,3.6-2.9-0.3-3.7,2.3c0.7,0.1,1.4,0.2,1.2,1.2c-1.5,0.2-3.6-0.4-4.8-0.8
						c1.6-1.2,2.3-0.5,3.6-1.1c-0.2-3-2.1-1.3-2.9-3.1c-3.1,3.5-4.4-0.3-7.8,0.9c0.1-0.8,0.8-0.8,0.7-1.8c-1.9-0.8-0.5,1.9-2.4,1.1
						c0.6-1.9-0.4-2.3-1.1-3c3.2,1.4,5.1-2,6.5,1.4c-0.5-1.2,1.6-2.6,1.8-1.1c-0.2,0.7-3.2,1.4-1.3,2.3c2.3-0.4,5.9-2,6.1-5.2
						c2.4,2,4.1,1.1,6.5,3.2c-0.8-1.5-1.3-2.5,0.1-4.2c0.1,2.1,2.7-1,2.4,0.7c-0.8,0.2-1.2,0.8-2.4,0.5c0.1,1.1,1.4,4,2.3,2.5
						c-1.9-1.6,1.8-2.1,2.4-0.5c-0.2,0.3-2.9,0.8-1.2,1.2c1-2,4-0.1,4.8-1c-0.5-0.1-0.7-0.5-0.6-1.2c-4.1,2.1-7.1-6.4-1.7-3.6
						c-0.7,0-1.4,0.1-1.2,1.2c1.8-0.5,1.9-0.5,3.6,0.1c0.3-3.2,6.6,0.4,3.7-2.3c1.9-0.5,2.2,3.3,3.5,1.3c-1.4-1.7,2.8,1.2,2.4-1.1
						c-0.6,0-1.5-0.3-0.6-0.6c1.7,0.6,0.6,0.9,0.5,2.4c2.4-0.4,2.1,0,4.8,0.2c0.8-1.9-1.9-0.5-1.1-2.4c1.3,1.1,4.7,0.4,5.4-1
						c-2-0.3-5-0.6-7.2,0.4c0.6,0.2,0.5,1.6-0.1,1.8c-0.8-3.3-4.1-0.7-5.3-3.8c1.7,0.5,1.6-0.8,3-0.5c0.6,0.6,0.1,2.2,1.7,1.8
						c0-2.2,1.5-1.8,3.6-1.1c2.3-2.2,1.4-4.2,1.5-8.3c-2.3,1.5-5.1,2.9-7.2,1.6c1.7-1.7,2.6-1.4,5.4-1c-2.8-3.3-6.6,1.9-7.1-2
						c-0.9,1.7,1.5,3.1-0.1,3.6c1-2.1-2-0.4-1.7-1.8c0.8,0,0.8-1.6,0.1-1.8c-0.1,1.3-1.5-0.8-3-0.1c-0.6,1.1,1.7,2.1-0.1,2.4
						c-0.5-0.4-0.6-3.9-1.7-1.8c0.5,0.4,1.8,2.9,0.5,3c0.3-1.4-1-1.3-0.5-3c-3,0.9-0.3-0.1-1.8-1.3c-0.8,1.3-3.6,0.9-1.3,2.3
						c-3.1-0.7-1.9-2.2-5.3-2c-0.1,0.7,0,1.7-0.7,1.8c-2-1.9-5.1,0.5-5.3-2.6c-0.6,0.6-1.2,1.2-1.8,1.7c0.2-0.7-1.7-2.1-1.8-0.7
						c1.1,2.2,3.5-0.4,4.1,1.9c-4.1,0.1-6.7-2.4-5.8-3.8c-1.5,1.7-3.9,2.3-4.8,1c-0.1,0.9,0.1,2.2-0.7,2.4c-2.1-1.1-3.1,1.9-3.6,0.5
						c0.8,0,0.6-1,1.2-1.2c0.6,0,1.2,0,1.8,0.1c-0.6-4.6-6.3-5.1-9.4-3.9c-0.1-0.5,0-1.2-0.6-1.2c-0.1,1.6,1,1.2-0.1,2.4
						c2.5-1,1.1,1.1,3.6,0.1c-1.1,1.2,0.4,2.3-0.7,3c-0.1-0.7-0.7-0.4-1.2,0c0.9-1.7,0.5-0.7-1.2-0.6c0.1-0.7,1.1-1.3,0.1-1.8
						c-0.3,1.3-3.2,0.4-3.6-0.1c-1,1.5-2.1,2.7-4.3,2.8c0-0.8,0.1-1.6,0.1-2.4c0.4,0.2,2.2,1.6,2.4,0.1c-0.4-1.2-3.3,0-3.5-1.3
						c0.1-0.7,0.7-0.3,1.2,0c-0.6-4-2.8,0.9-4.1-1.3c0.3-0.9,1.9-0.4,1.3-2.3c-1.9-0.6-2.3,0.4-3,1.1c-0.5-3.4,3.7-2.1,4.9-2.2
						c-0.1,0.9-1.5,0.4-1.3,1.8c4-5,11.8,1.1,18.6-2.4c-0.5-3-6.1-4.3-5.2-6.7c1.8,0.7,3.2,0.5,4.1,1.3c-0.7-0.2-2.1,1.7-0.7,1.8
						c2.1-1.9,1.9,3.2,3.5,3.7c-0.5,0.2-3.1,1.1-1.3,1.8c0.6-1.7,2.2-0.1,2.4-1.1c-0.5-0.2-1.5-2.7-0.5-2.4c2.4,1.2,8.2,1.2,9.6-2.7
						c-2,1.3-2,0.8-4.2-0.1c-0.1,0.8,0.2,1.3,0.5,1.8c-3.4,1.7-4-2.7-5.9-1.4c1.4,0.2-0.7,1.6-1.3,1.8c1.2-2.8,0.3-2.6-1.1-2.4
						c0.3-0.7,0.7-1.3,1.3-1.8c0.5,0.4,2.1-0.2,3-0.5c-0.7-0.1-1.4-0.2-1.2-1.2c0.6,0,0.7-0.5,1.2-0.6c0.3,0.7,0.6,1.4,1.1,1.8
						c1.8-1,2.3-2.1,0.1-3c4,0.5,7.7,4.4,10.7,0.9c-0.2,1.5,0.9,1.9,1.7,2.4c-0.1-2.4,2.8,0.4,3.6,0.7c0.9-1.7,5.2-2.2,5.4-1
						c2.8,0.1,2.9-2.7,4.3-4c0.3,2.8,3-1.3,6,0.2c0-1.5,0-2.9,0.7-3.6c-1.6,0.1-8.1-0.3-7.1-3.2c-0.7-0.1-1.4-0.2-1.2-1.2
						c-8.6-0.2-12.4,0.5-19.7-0.6c-0.8,0.3-0.2,2.3-1.3,2.3c-12.3-3.5-32.8-2.9-46.5-1.5c-0.8,1.5,2.3,1.9,0.5,2.4
						c-2.7-1.7-3.6,1.3-6,1.6c-0.5-1.1,1.9-1.9,0.1-2.4c-1.1,1.8-2.8,0.6-5.4,0.4c-0.9,2-3.8,2.9-6,2.2c1.2-0.3,2.6-1.2,0.7-1.8
						C467.3,467.5,464.4,465.7,464.6,467.1z M494.5,481.8c1.4-1.2,2.1,0.3,4.2-0.5C497.5,483.6,496.4,482.7,494.5,481.8z
						 M519.4,542.4c0-0.4,0-0.8,0-1.2c0.5,0.3,0.9,0.7,1.8,0.7C520.9,543.1,520.3,543.1,519.4,542.4z M486.5,471.4
						c0.2-0.9,1.8-0.1,1.8-1.1C490.2,471,487.7,471.9,486.5,471.4z M498.5,470c1,0.5,0.1,1.1-0.1,1.8c-0.5-0.3-0.9-0.7-1.8-0.7
						C496.8,470.3,498.5,471,498.5,470z M493.5,476.4c0.8-0.7,3.5,1.7,4.1,3.1c-1.4,0.1-2.5-3-3.5-1.3c-0.9-0.3,0.1-0.5,0-1.2
						C494.2,476.5,493.9,476.5,493.5,476.4z M503,478.5c1.1-0.2,1,3.4-0.7,2.4C502.3,479.8,503.1,479.6,503,478.5z M508.4,478.7
						c0.4,0,0.8,0,1.2,0c0.2,1.3-0.9,1.1-1.8,1.1C507.9,479.4,508.4,479.3,508.4,478.7z M491.6,479.3
						C493.9,477.3,494.6,481.1,491.6,479.3L491.6,479.3z M515.5,479.5c0.7,2-1.9,0.4-1.3,2.3C513,481.6,514.2,479,515.5,479.5z
						 M483.8,480.9c0.5,0.7,2.2,0.3,1.7,1.8c-1.1-0.3-3.6,0.7-2.9-1.3C483.3,482.1,483.8,482,483.8,480.9z M490.3,484.7
						c0.4,1.2,3.6-0.3,2.9,1.9c0.9-0.7,2.5-0.7,3-1.7c0.6,0.4,0.6,1.4,1.8,1.3C496,487.2,491,488.3,490.3,484.7z M517.6,489.1
						c-0.8-0.1-1.7-0.2-1.8,0.5c-1.1-0.1,0.5-2.2,0.7-3c1.2,0.6,3,0.1,3.5,2.5c-0.5-0.7-2.2-0.3-1.7-1.8
						C517.5,487.4,517.7,488.4,517.6,489.1z M489.6,487c0.3,1.3-1.2,0.8-1.3,1.8C486.9,488.5,488.4,486.5,489.6,487z M546.6,496.1
						c1.9-0.5,0.8,2,2.3,1.9C548.8,498.9,546.1,497.6,546.6,496.1z M545.4,496.6c0.5,1.8-3.4,1.7-5.4,1c1.2-0.7,3.9-1.4,4.8-0.4
						C545.3,497.3,545.4,497,545.4,496.6z M551.9,498c0,0.4,0,0.8,0,1.2C549,499.7,550.9,496,551.9,498z M505.3,498.9
						C503.6,497,509.4,497.9,505.3,498.9L505.3,498.9z M547.1,499.7c-0.2-1.1,3.4-1,2.4,0.7C549,499.9,548.2,499.7,547.1,499.7z
						 M460.5,498.6c-0.2-1.1,3.4-1,2.4,0.7C462.4,498.8,461.6,498.6,460.5,498.6z M470.6,502.5c1-1.8,0.6,2.2-1.2,1.2
						c0.1-1.1-0.7-1.3-0.5-2.4c0.7,0.3,1.2,0.8,1.1,1.8C470.4,503.2,470.5,502.9,470.6,502.5z M478.9,504.6c-2.2-1.6-5.1,0.3-6.5-2
						c1,0.8,3.6-0.5,5.4,0.8c-0.4-0.6-1.4-0.7-1.1-1.8c2.4-0.1,2.1,3.7,3.6,0.7C482.4,503.1,476.9,506,478.9,504.6z M462.7,504.7
						c0.8-2.4,2.6-0.1,4.8-0.4c-0.7,0.5-0.3,2.2-1.8,1.7c0.7-0.7,0.3-1.5,0-0.6C464.8,504,464.5,504.2,462.7,504.7z M505.6,508.5
						c-0.2-1.3,0.9-1.1,1.8-1.1c-0.8,1.4,0,1.1-0.7,3c-0.7-0.2-0.6-1.2,0-1.2C506.8,508.5,506.1,508.6,505.6,508.5z M512.8,508.7
						c1.2-1.5,0,1-0.1,1.8c-0.4,0-0.8,0-1.2,0c-0.3-0.5-0.6-1-0.5-1.8C511.4,509.1,512.6,509.6,512.8,508.7z M502,508.3
						c1.6,0.6-0.6,2.6-1.2,1.2C501,508.9,502,509.1,502,508.3z M517.5,509.5c0,0.4,0,0.8,0,1.2C514.6,511.1,516.5,507.4,517.5,509.5
						z M498.3,513c0-0.4,0-0.8,0-1.2c1.6-0.1,0.4,2.3,2.3,1.9C500.4,515.1,498.4,513.5,498.3,513z M511.5,512.2
						c1.1,0,1.2,0.8,2.4,0.7C514,514,510.4,513.9,511.5,512.2z M521.3,520.9c-0.9,1.4-1.5,0.9-3,0.5
						C518.8,519.6,519.9,520.7,521.3,520.9z M513,520.7c1.1-0.5,1.9,1.9,2.4,0.1c1.7,0.9-1.1,2.1-2.4,1.7
						C512.9,521.8,513,521.2,513,520.7z M521.2,524.5c0.1-0.5-0.2-0.6-0.6-0.6c0.3-0.5,0.7-0.9,0.7-1.8
						C521,524,523.6,523.5,521.2,524.5z M451.4,521c0.9,0.3,1.5,0.9,2.3,1.3C453.4,523.7,450.8,522.5,451.4,521z M480.5,526.2
						c-1.5,2.8-2.1-0.6-3,1.7c-2.5-1.6-4.8-1.1-7.8-0.3c0.2-0.6,1.2-0.4,1.2-1.2c-0.8-1-2.6,2.1-5.4,1c0.3-1.3-0.8-1.2-1.8-1.3
						c3.4-2,11.1-1.7,19.1-0.6c-0.7,0.7-0.6,1.2,0.6,1.2C483,527.3,480.1,527.7,480.5,526.2z M457.3,525.4c0.6-1.7,1.9,0.4,3,0.1
						c-0.3,1.1-2.3,0.4-1.9,2.3C456.7,528.2,458.9,525,457.3,525.4z M458.7,535C454.9,536.7,452.4,534,458.7,535L458.7,535z
						 M457.4,537.9c-0.9-1.6,1.5-1.7,3-0.5C460.2,539.4,457.9,535.8,457.4,537.9z M499.1,542.9c-0.4,0.8-1.3,1.1-2.4,1.1
						C496.1,542.2,498,543,499.1,542.9z M525.8,549.1c0.1-0.5-0.2-0.6-0.6-0.6c0.9-1.4,1.5-0.9,3-0.5c0.2,1.7-2.2,0.5-2.4,1.7
						C525.1,549.6,525.4,549.1,525.8,549.1z M535.3,548.9c-3.9,1.2-7.3,1.9-2.4-0.7C533.5,548.7,534.3,548.9,535.3,548.9z"/>
					<path fill-rule="evenodd" clip-rule="evenodd" fill="#7D6143" d="M470,484.6c-0.9,2.6-2.7,0.7-4.8,1.6c0.5-1.6-1.1-1.2-1.1-2.4
						c-0.5,2.1-3.8,1.3-4.9,2.8c-1.1-2.1-2.5-3.6-5.9-2c-0.3-2.2,2.6-0.9,3.1-2.3c2.3,2.5,6.6,2,9,0.3
						C465,486.2,468.5,482.6,470,484.6z"/>
					<path fill-rule="evenodd" clip-rule="evenodd" fill="#7D6143" d="M532.9,477.7c1.1-0.1,2.9,1.8,3.6,0.1c0.9,0.5,1.2,1.5,1.1,3
						c-0.5-0.1-0.6-0.6-1.2-0.6c-0.6,0-0.5,0.7-0.6,1.2c-0.8-0.1-1-2.5-1.2,0c-0.9-0.5-0.8-1.9-1.1-3c-1.6-0.5,0.3,2.8-1.3,2.3
						c-0.4,0-0.8,0-1.2,0C531,478.9,532.9,479.3,532.9,477.7z"/>
					<path fill-rule="evenodd" clip-rule="evenodd" fill="#7D6143" d="M543.6,479.8c-0.4,1.2-2.8,0.3-3,1.7
						c-0.8,0.3,0.6-3.3-1.2-1.2C538.1,478.4,541.8,479.8,543.6,479.8z"/>
					<path fill-rule="evenodd" clip-rule="evenodd" fill="#7D6143" d="M507,483.4c0.6-1.5-1,3.4,2.9,1.9c0.1,0.5-0.3,0.6-0.6,0.6
						c0,0.4,0,0.8,0,1.2c-1.4-1.5-2.6,0.4-4.8-0.2c0-0.8,0.1-1.6,0.1-2.4c2.4,0-0.2,0.9,1.1,1.8C507.4,486.7,505.4,483.1,507,483.4z
						"/>
					<path fill-rule="evenodd" clip-rule="evenodd" fill="#7D6143" d="M483.7,485.6c-0.1-0.5,0.3-0.6,0.6-0.6c0.4,0,0.8,0,1.2,0
						c-1.3,1.4-2.1,3.5-4.3,2.2C481.3,486.4,485.7,486.9,483.7,485.6z"/>
					<path fill-rule="evenodd" clip-rule="evenodd" fill="#7D6143" d="M511.2,557c-0.5-0.1-1.2-0.1-1.2-0.6c0.8-0.2,1.2-0.7,1.3-1.8
						c-1.8,0.4-2.2-0.7-3.6-0.7c-1,2.3,2.6,0.3,2.3,1.9c-0.3,0.7-0.7,1.3-1.3,1.8c0.2-2.4-0.2-1.4-1.8-1.3c0-0.9-2.4-3.3-3.5-1.3
						c-0.2,1.9,1.8-1.5,1.8,0.7c-0.7,0.9-2.3,0.9-3,1.7c-0.3,2.2,1.3,2,2.2,4.9c-1-1.1-2.1-0.1-1.8,1.7c3.8,0.5,5.5,0.1,7.7,1.4
						c-0.1-3.8,3.5,0.1,4.3-2.2c0,0.6,0,1.2-0.1,1.8c1.9,0.4,3-0.1,3.6-1.1c-0.1,1,0.4,1.5,1.1,1.8c1.3-0.8-0.7-1.5,0.7-1.8
						c2,3.3,8.7,1.3,11.3,1.6c0.2,1.5,3,1.6,5.9,2c0.9-4.5-2.4-2.7,0.8-4.8c-1.4,0.1-2.2-0.2-2.3-1.3c0.7,0.2,3.7,0,1.8-0.5
						c-2.8-0.6-4-3.5-2.8-4.9c-0.2,2.3,2.5,1.9,2.2,4.3c1.5-0.7,2.9,1.4,3,0.1c-1.6-0.2,1.8-3.3,1.8-1.7c0,1.2-1.7,0.7-1.3,2.3
						c1,0,1.9,0.2,2.4,0.7c-1.4-1.7,1.2-3.3,1.9-2.3c0.1,0.6-2.6,1.1-0.7,1.8c0.1-2.1,1.9,1.3,1.8-0.5c-2.1-1.1,0.9-1.8,1.3-2.3
						c-1.5-1.5-2.9,0.7-3.5-1.3c0.2,2.9-3.6-1.9-4.2-0.1c0.7,0.1,0.9,0.7,1.2,1.2c-1.8-1.6-2.1,1.4-2.4,1.7c-0.9-1.1,0.6-2-1.1-3
						c-0.1,0.5-0.5,0.7-1.2,0.6c0-0.6,0-1.2,0.1-1.8c1.2-0.3,3.8,1.4,2.4,0.1c-4-2.3-7,1.3-9,1.5c0-0.8,1.1-0.5,1.2-1.2
						c-1.1,0-1.2-0.5-0.6-1.2c-1.5,0.7-2.9-1.4-3-0.1c0.8,0.6,2.2,0.6,2.3,1.9c-2.7-0.3-6.2-1.1-6.6,0.4c-1.9,0.2-1.5-1.7-2.9-1.9
						c-0.5,2.2-1.8-0.3-3,1.1c0.1-0.7,1.1-1.3,0.1-1.8c-0.1,1.2-2.7-1.1-1.2,1.2c-1.9-0.7-1.5,0.9-2.4,1.1c-0.2-1.6,1.5-4.7-0.5-3
						C513.6,554.4,511,556.6,511.2,557z M523,559.8c-0.8,0.1-0.6,1.2,0,1.2c-0.9,1.7-2.4-0.8-1.7-2.4c3.8,1,2.4-0.3,4.2-1.1
						c0.7,2-0.8,2.8,1.1,3c-0.3,0.5-0.7,0.9-0.7,1.8c-0.5-0.4-1-0.8-1.2,0C524.4,561.5,524.5,560.7,523,559.8z M533.3,557.8
						c-1.3,1.7-3.1,2.9-5.5,3.4c-0.2-0.5-0.5-1.1-1.2-1.2c0.1-1.7,1.6,1.5,1.2-1.2C531,559.6,531,558.9,533.3,557.8z M510.6,557.6
						c0.6,0.2,0.4,1.2,1.2,1.2c-0.9,1.3-1.4-0.5-3,0.5C506.8,558.4,511.2,559.2,510.6,557.6z M514.7,557.7c0.7,0.1,0.3,0.6,0,0.6
						c0.1,0.9,1.8,0.3,1.8,1.3c1.4,0.6-2.1-0.2-3.6,0.5C512.4,558.1,514.9,559.3,514.7,557.7z M506.3,559.3c0.5,0.1,0.6-0.2,0.6-0.6
						c2.4,1.4-1.9,0.7-1.8,1.7c-1.1-0.1-0.3-2-1.7-1.8c0.5-1,1.1-0.1,1.8,0.1c0.5-0.3,1-0.6,1.8-0.5
						C506.8,558.6,506.3,558.7,506.3,559.3z M523.5,564c1.7-0.4,1.5,0.9,3,0.7C526.5,565.7,522.5,565.8,523.5,564z"/>
					<path fill-rule="evenodd" clip-rule="evenodd" fill="#7D6143" d="M538.7,555c0.7-0.7,1.8-0.4,3.6,0.1
						C541.3,555.8,540.1,555.5,538.7,555z"/>
					<path fill-rule="evenodd" clip-rule="evenodd" fill="#7D6143" d="M554.2,557.8c-0.5,0.4-1.4,0.6-2.4,0.5
						c2.2,0.9,1.8,3.2-0.1,4.2c-1.3,1.5,0-2.1,1.3-1.8c-0.1-0.5-0.6-0.6-0.6-1.2c-1.9-0.8-0.5,1.9-2.4,1.1c0.3-1-0.4-1.1-1.2-1.2
						c1.6-0.6,2.9-1.5,4.3-2.2c1.8,1,3.5,2.1,5.9,2.6c-0.2,0.7-1.2,0.6-1.2,0c-0.9,0.2-0.6,1.9-2.4,1.1c0.9-1.7,0.5-0.7-1.2-0.6
						C555.1,559.1,554.1,559.5,554.2,557.8z"/>
					<path fill-rule="evenodd" clip-rule="evenodd" fill="#7D6143" d="M496.8,558.4c0.2-0.6,1.2-0.4,1.2-1.2c1.3,2.2,0.5-0.3,3,0.1
						c0,0.9-0.4,2.3,0.5,2.4C500.7,560.8,498.5,558.3,496.8,558.4z"/>
					<path fill-rule="evenodd" clip-rule="evenodd" fill="#7D6143" d="M468.7,558c0.6,0,0.4,0.7,0.6,1.2c1.7-0.6,5.9-1.1,10.2-2.1
						c-0.1,1.5-2.6,0.5-1.9,2.9c1.8-0.8,2.2-3,5.4-2.2c-0.6,3.6,3.7,3.3,7,5.6c0.2-1.7,0.8-0.6,3.6-0.5c-1,1.2,0,0.8-0.1,2.4
						c-1.8-0.1-6.7,1.9-7.1-0.8c-1.8,0.3,0.5,1.3-0.1,2.4c-0.5-0.5-1.6-0.4-1.8-1.3c-0.7,2.7-4.2-0.2-4.2,1.7c-0.3-1-1.8-1-2.3-1.9
						c-1.5,1.2-6.9,0.3-10.2,1.5c0.2-0.6,1.2-0.4,1.2-1.2c0-1.8-3.6,2.2-3-0.7c-1.7,2.9-9.6-0.9-9.6,0.9c-1.6-0.2-1.3-2.3-2.3-3.1
						c2.2-0.9,3.3-2.4,6.6-1c-0.3-1.3-1.2-2-1.7-3c-1-0.2-1.6,1-1.8-0.1c-0.7,0.1-0.4,1.2-1.2,1.2c-1.2,1.1,1.1-3.4,3.7-2.3
						c0.1,1.9,1.5,2.5,2.3,3.7c0.9-0.5,0.9-1.9,1.3-2.9c1.9-0.6,1.4,1,2.3,1.3C465.9,557.1,466.4,559.4,468.7,558z"/>
					<path fill-rule="evenodd" clip-rule="evenodd" fill="#7D6143" d="M455.6,558.2c2.2-1.4-4.9,3.3-1.3,1.8c0,1.1-3.3,0.9-4.8-0.2
						C451.1,558.7,453.7,558.8,455.6,558.2z"/>
					<path fill-rule="evenodd" clip-rule="evenodd" fill="#7D6143" d="M523.9,569.4c-3.4,1.7-4.9,0-8.3-0.9
						c-0.7,0.9-0.8,2.4-1.9,2.9c-1.4-1.3-4-1.4-5.3-1.4c0.7,0.1,0.9,0.7,1.2,1.2c-1.8-0.5-2.2,0.5-3.6,0.5c1.4-1.3,0.6-1.6,1.3-2.9
						c-4.3,1.2-10.3,0-13.1-0.4c-0.7,2.2,2,1.2,2.3,2.5c-1.1,0.1,0.3,1-0.6,1.2c-3.5-1.2-13.2-2.4-16.7,0.6c2.8-0.2,5.2,0.2,6.5,1.4
						c0.6-1.1-1.7-2.1,0.1-2.4c2.1,0.5,3.4,1.8,5.3,2.6c0.1-0.7,0.2-1.4,1.2-1.2c-1.9,1.8,2,1.1,3.5,1.3c0.6-2.8-2,0.3-1.8-1.3
						c1.5-1.7,3.4,0.7,4.8-0.4c-1.8,2.2,0.5,1.6-0.1,3.6c0.4-1.7,0.9,0.9,1.8,0.7c0-0.4,0-0.8,0-1.2c0.4,0,0.7-0.1,0.6-0.6
						c-1.1,0-1.4-0.6-1.1-1.8c0.8,0.2,1.1,0.9,2.4,0.7c-0.5,2,1.2,2,1.7,3c0.2-4.1,4.2,1.8,3.7-2.3c1.3,2.1,1.8,1.4,4.2,0.7
						c0.1,1.4-1.7,0.6-1.8,1.7c2.3,0.4,2-2,4.8-1c-1.7,1.3,3.6,2.8,4.1,1.9c-0.6-0.2-0.5-1.6,0.1-1.8c1,0.3,1.4,4,2.9,1.9
						c-1.8,0.2-0.8-1.6-0.5-1.8c0.6,1.2,2.8,3.1,3,0.1c-0.7-0.1-1.7,0-1.8-0.7c1.7-0.1,1.4-2.2,2.5-2.9c1.8,0.2,0.9,3,3.5,2.5
						c0.2-1.2-0.8-1.2-1.1-1.8c0.8,0.1,1.3-0.2,1.8-0.5c-0.1,1,0.1,1.9,0.5,2.4c1.9-0.6,1.6,0.2,3-0.5c-1-2.1,1-2,1.3-4.1
						c-3.1-0.5-3.2,2.2-4.2-0.7c0.2,1.9-1.6,1.6-2.5,2.3c0.1-0.8,0.8-0.8,0.7-1.8c-1.9,0.4-3,0.8-1.2-0.6c-2.1-0.9-3.6,1.8-4.2,0.5
						C523.4,570.4,523.6,569.9,523.9,569.4z M515.5,569.7c1.8,0.5,1.1,0.5,3,0.1C518.3,571.4,515.3,572.5,515.5,569.7z M497.6,570.3
						c1.9-0.4,4.5,0.9,1.2,0.6c-0.6,0-0.5,0.7-0.6,1.2C497.4,572,497.7,571,497.6,570.3z M517.2,574c0.4-0.7,0.3,1.6,2.3,1.3
						c-0.8,1.8-2.2-0.9-3,0.5c-0.9-0.3,0-0.6,0.6-0.6C516.8,574.6,516.5,574.1,517.2,574z"/>
					<path fill-rule="evenodd" clip-rule="evenodd" fill="#7D6143" d="M474.8,572c-1.3,0.8-3.4,1.8-3.6-0.7c3.8-0.7,3.5,1.4,7.2,0.2
						c0,0.8-0.1,1.6-0.1,2.4c-1.8-2.2-4.9,1.6-4.8-0.8C474.6,573.4,474.8,572.7,474.8,572z"/>
					<path fill-rule="evenodd" clip-rule="evenodd" fill="#7D6143" d="M481.7,546.5c2.2,2.3,4.1-0.1,9-0.3c-0.1,3.8-4.2,6.6-7.4,7.5
						c-1.5,0.4-3.2-2.3-3.6-0.1c-0.2,1.3-9.8-1.6-14.3,0.1c0.6-2.3,0.4-3.8,2-5.9c3.2,1.5,6.4-0.2,8.9,1.5
						C477.5,547.8,481.1,548.7,481.7,546.5z"/>
				</g>
			</g>
		</g>
	</g>
	<path fill="#B1B3B6" d="M645.3,250.5c-0.2,0.1-0.3,0.2-0.5,0.3c-2.5,1.4-24.2,14.2-37.9,26.8c-6.4,6-16.1,6.6-23.4,1.8
		c-0.3-0.2-0.6-0.4-0.9-0.7l-23.3-21.1c-10.9-9.9-27.7-9.4-38.1,1.1l-19,19.2c-8.9,9-10.6,23-3.9,33.8
		c16.3,26.3,54.6,69.6,130.4,69.6h131c0,0-13.4,26.8-11.7,47.1c1.6,18.8,23.4,16.9,26.7,16.5c0.3,0,0.6-0.1,0.9-0.1h19.9
		c0.7,0,1.5-0.1,2.2-0.3c2.1-0.6,6.7-2.4,13.5-6.8c9.3-6,87.9-28.8,96.1-74.6c8.1-45.8-28.7-131-88.8-160.9
		C760.1,173.1,651,246.6,645.3,250.5z"/>
	<path fill="#F5C15D" d="M613.3,272.1L686,381.2h73.8l22.3-20.5l108.8-79.3c0,0-30.9-69.5-82.3-84.7l-145.8,32.8L613.3,272.1z"/>
	<g>
		<path fill="#797A7D" d="M570.1,279.6c-1.1,3.2-2.9,6.1-4.9,8.7c-1,1.4-2.1,2.6-3.3,3.8c-0.6,0.6-1.2,1.2-1.8,1.8
			c-0.6,0.6-1.3,1.1-1.9,1.7c-0.6,0.5-1.3,1-2,1.5c-0.7,0.5-1.3,1-2.1,1.4c-1.5,0.9-2.9,1.8-4.4,2.4c-3,1.5-6.2,2.5-9.5,3.1
			c2.9-1.6,5.8-3.1,8.6-4.8c2.8-1.7,5.4-3.6,7.9-5.6c2.5-2,4.9-4.2,7.1-6.6C565.9,284.7,568.1,282.3,570.1,279.6z"/>
	</g>
	<path fill="#2F8F6D" d="M652.2,273.7c0,0,9.3,25.5,51.1,37.8c41,12.1,120.2,10.7,166.9-65.3l-11-14L652.2,273.7z"/>
	<path fill="#9CA1A5" d="M824.6,190.8l34.7,41.3c0,0-82.7,116.2-207.1,31.9L824.6,190.8z"/>
	
		<linearGradient id="SVGID_4_" gradientUnits="userSpaceOnUse" x1="944.1178" y1="277.1451" x2="1005.6147" y2="362.6408" gradientTransform="matrix(0.9918 -0.1276 0.1276 0.9918 -222.2772 59.5992)">
		<stop  offset="0" style="stop-color:#C0C2C4"/>
		<stop  offset="1" style="stop-color:#B1B3B6"/>
	</linearGradient>
	<path fill="url(#SVGID_4_)" d="M842,152.5c-0.9-4-2.1-8-3.5-11.9c-5.6-15.2-15.2-29.8-27-41c-1.4-1.3-2.9-2.6-4.6-3.9l0,0
		c-3.8-3-7.9-5.9-11.6-9.1c-2.8-1.9-5.8-3.7-8.8-5.3l-1.8-21.6c-0.6-7.6-3.1-15-7.3-21.4l-17-26.6c-1.8-6.1-7-10.6-13.3-11.4
		C738.4-1,730.3,5,729,13.7c-2.5,17,6.8,30,13.8,37.1c4.2,4.3,7.2,9.5,8.7,15.2c-8.7-2.9-14.6-4.4-14.6-4.4
		c-15.7-1.1-26.5,1.3-26.5,1.3c-13.4,1.5-26.6,5.5-38.9,12.7c-18.1,10.6-33.2,27.1-42.9,45.7c-11.3,21.7-25.5,42.9-43.4,59.7
		c-1.9,1.8-3.6,3.8-5.1,5.9c-11.1,0.7-18,12.5-17.4,23.7c0.3,4.9,1.9,8.4,4.6,11c3.5,3.5,6.1,7.7,7.5,12.5
		c3.1,10.3,8.8,19.8,16.4,27.3c18.1,17.7,48.1,26.9,72.9,27.6c16.6,0.5,33.2-1.5,49.5-4.6c15.5-3,30.8-7.1,45.8-11.8
		C869.3,237.9,842,152.5,842,152.5z"/>
	<g>
		<path fill="#797A7D" d="M594.4,201.1c1.7,0.6,3.2,1.8,4.3,3.2c1.2,1.4,2,3.2,2.4,5c0.5,1.8,0.7,3.7,0.4,5.6
			c-0.2,0.9-0.5,1.8-0.8,2.6c-0.4,0.8-0.9,1.6-1.4,2.4c0,0.1-0.1,0.1-0.2,0c0,0,0-0.1-0.1-0.1l0,0c-0.1-0.9-0.1-1.8,0-2.7
			c0-0.9,0-1.7,0.1-2.5c0-0.4,0-0.8,0-1.2c0-0.4,0.1-0.8,0.1-1.2l0.1-1.2l-0.1-1.2c-0.2-1.6-0.6-3.2-1.4-4.7c-0.8-1.5-2-2.8-3.4-3.7
			l0,0c-0.1,0-0.1-0.1,0-0.2C594.3,201.1,594.4,201,594.4,201.1z"/>
	</g>
	<path fill="#808285" d="M574.7,219.2c-0.1-0.8,0.3-1.7,1.5-2.8c2-1.8,7.8-3.8,8.8,0.9c0.8,3.5-0.5,5-3.1,5.1
		C579.7,222.7,575.1,221.5,574.7,219.2z"/>
	<path fill="#9A9FA3" d="M656.1,171.8c1.7,7.1-2.7,14.3-9.8,16c-7.1,1.7-14.3-2.7-16-9.8c-1.7-7.1,2.9-13.2,10-14.8
		C647.5,161.3,654.4,164.6,656.1,171.8z"/>
	<circle fill="#6B6C6F" cx="642.7" cy="174" r="8.4"/>
	<path fill="#FFFFFF" d="M608.5,155.4l-77.8-66.9c-2.5-2.3-7-0.1-6.3,3.1c4.4,19.8,30.7,70.4,56.7,96.1
		C581.1,187.7,589.7,177.8,608.5,155.4z"/>
	<path fill="none" d="M796.1,87.3c3.7,3.3,7.8,6.2,11.6,9.1C804.3,93.2,800.4,90.1,796.1,87.3z"/>
	<polygon fill="#91929D" points="807.7,96.5 807.7,96.5 807.7,96.5 	"/>
	<rect x="715.2" y="310.3" fill="#2F8F6D" width="26.6" height="71"/>
	<path fill="#797A7D" d="M580,246.2c0,0,10.1-19,36.5-16.4c3.1,0.3,3.5,4.7,0.5,5.5L580,246.2z"/>
	<g>
		<path fill="#797A7D" d="M617.3,216.7c0.3,2.3,0.5,4.4,0.9,6.5c0.2,1,0.4,2.1,0.6,3.1c0.2,1,0.5,2,0.9,2.9c0.3,1,0.7,1.8,1.2,2.7
			c0.4,0.9,1,1.7,1.6,2.5c1.2,1.6,2.8,3,4.6,4.4l-0.1,0.2c-2.1-0.8-4.1-1.9-5.6-3.5c-1.6-1.6-2.7-3.6-3.5-5.6
			c-0.7-2.1-1.1-4.3-1.2-6.6c-0.1-2.2,0.1-4.4,0.5-6.6L617.3,216.7z"/>
	</g>
	<path fill="#91969A" d="M623.4,169.1c0,0,3.7,9.3,16.1,1.5c11.1-7,13.1-11.9,13.1-11.9"/>
	<path fill="#FFFFFF" d="M406.4,157.8c5.4,0.4,21.2,1,31.2-5.3c1-0.6,2.2,0.5,1.7,1.6c-3.1,6-10.8,16.2-27.9,18.8
		c-0.6,0.1-1.1-0.2-1.3-0.8l-4.9-12.7C404.8,158.6,405.5,157.7,406.4,157.8z"/>
	
		<linearGradient id="SVGID_5_" gradientUnits="userSpaceOnUse" x1="-4550.8696" y1="4361.5024" x2="-4789.2881" y2="4361.5024" gradientTransform="matrix(1.635437e-002 -0.9999 0.9999 1.635437e-002 -3863.5278 -4454.5928)">
		<stop  offset="0" style="stop-color:#C7C8CA"/>
		<stop  offset="1" style="stop-color:#B1B3B6"/>
	</linearGradient>
	<path fill="url(#SVGID_5_)" d="M392.9,140.6c4.8,2.5,8.9,6,12.4,10c2.9,3.4,7.9,5.6,11.1,8.6c30.4,28.6,64.8,52.7,80.5,93.3
		c13.8,35.6,9.4,77.6-10.9,110s-55.9,54.5-93.8,59.1c-16.3,2-33,0.9-48.6,6.1c-1.5,0.5-3.1,0.7-4.6,0.3c-5.3-1.3-4.8-7.1-2.7-10.9
		c1.8-3.1,4.4-5.9,5-9.4c0.8-4.6-1.9-8.9-3.4-13.3c-1.7-5.3-0.3-13.2,7.1-11.8c1.1,0.2,2.1,0.7,3,1.3c13.2,8.4,30,7.3,44.9,3.3
		c18.1-4.9,35.4-14.1,48-28c12.6-13.9,20.2-32.8,18.7-51.5c-2-25.1-19.4-46.3-39-62.1c-19.6-15.8-42-27.9-60.4-45
		c-8.2-7.6-15.8-16.8-17.6-27.8c-2.1-13.1,5.1-26.7,16.4-33.3c4.9-2.8,10.7-4.7,16.4-4.8C382.4,134.7,387.1,137.7,392.9,140.6z"/>
	<path fill="#A9ABAE" d="M380.2,174.2c3.3-5.1,11.1-14.9,25-21.5c1-0.5,0.7-2-0.5-2c-8.7,0.6-25.3,4.1-26.4,22.9
		C378.2,174.6,379.6,175.1,380.2,174.2z"/>
	<path fill="#A9ABAE" d="M393.7,186.5c3.3-5,11-14.8,24.9-21.4c1-0.5,0.7-2-0.5-2c-8.6,0.6-25.1,4.1-26.3,22.7
		C391.8,186.9,393.1,187.4,393.7,186.5z"/>
	<path fill="#A9ABAE" d="M406.9,199.3c3.3-5,11-14.8,24.9-21.4c1-0.5,0.7-2-0.5-2c-8.6,0.6-25.1,4.1-26.3,22.7
		C405,199.7,406.4,200.2,406.9,199.3z"/>
	<path fill="#FFFFFF" d="M338.1,172.8c5.5,0.4,21.4,0.9,31.4-5.5c1-0.7,2.3,0.5,1.7,1.6c-3.1,6-10.8,16.3-28,19.1
		c-0.6,0.1-1.1-0.2-1.3-0.8l-4.9-12.8C336.6,173.6,337.2,172.7,338.1,172.8z"/>
</g>
<g>
</g>
<g>
</g>
<g>
</g>
<g>
</g>
<g>
</g>
<g>
</g>
<g>
</g>
<g>
</g>
<g>
</g>
<g>
</g>
<g>
</g>
<g>
</g>
<g>
</g>
<g>
</g>
<g>
</g>
</svg>
