<?xml version="1.0" encoding="utf-8"?>
<!-- Generator: Adobe Illustrator 18.0.0, SVG Export Plug-In . SVG Version: 6.00 Build 0)  -->
<!DOCTYPE svg PUBLIC "-//W3C//DTD SVG 1.1//EN" "http://www.w3.org/Graphics/SVG/1.1/DTD/svg11.dtd">
<svg version="1.1" id="Layer_1" xmlns="http://www.w3.org/2000/svg" xmlns:xlink="http://www.w3.org/1999/xlink" x="0px" y="0px"
	 viewBox="0 0 6301.8 774.4" enable-background="new 0 0 6301.8 774.4" xml:space="preserve">
<polygon fill="#F9B3AA" points="886.5,132.7 730,142 485.1,19.6 165.3,58.3 0,264.5 13.3,299.5 165.3,109.8 485.1,71.1 730,193.6 
	886.5,184.3 984,287.4 984,235.8 "/>
<polygon fill="#F59295" points="536.4,655.5 137.1,625.4 13.3,299.5 0,316 137.1,676.9 536.4,707 859.8,589.4 984,402 984,350.4 
	859.8,537.9 "/>
<polygon fill="#E7EAD6" points="730,193.6 485.1,71.1 165.3,109.8 13.3,299.5 137.1,625.4 536.4,655.5 859.8,537.9 984,350.4 
	984,287.4 886.5,184.3 "/>
<polygon fill="#F9B3AA" points="3546.9,42.6 3916.2,59.8 4281.4,348.9 4288.5,356.3 4297,322.7 4281.4,306.3 3916.2,17.2 3546.9,0 
	3331.6,92.1 3238,379.6 3240.2,415.3 3331.6,134.7 "/>
<polygon fill="#F59295" points="4208.3,671.9 3774.6,730.8 3415.1,640.4 3242.3,447.7 3240.2,415.3 3238,422.2 3242.3,490.2 
	3415.1,682.9 3774.6,773.3 4208.3,714.5 4297,365.3 4288.5,356.3 "/>
<polygon fill="#E7EAD6" points="3415.1,640.4 3774.6,730.8 4208.3,671.9 4288.5,356.3 4281.4,348.9 3916.2,59.8 3546.9,42.6 
	3331.6,134.7 3240.2,415.3 3242.3,447.7 "/>
<polygon fill="#F9B3AA" points="5157.2,44.3 5526.2,61.5 6286.2,350.6 6293.2,358 6301.8,324.5 6286.2,308.1 5526.2,19 5157.2,1.8 
	4942.1,93.8 4848.5,381 4850.8,416.7 4942.1,136.4 "/>
<polygon fill="#F59295" points="6200.9,639 5384.7,731.9 5025.5,641.6 4852.8,449 4850.8,416.7 4848.5,423.6 4852.8,491.6 
	5025.5,684.1 5384.7,774.4 6200.9,681.5 6301.8,367 6293.2,358 "/>
<polygon fill="#E7EAD6" points="5025.5,641.6 5384.7,731.9 6200.9,639 6293.2,358 6286.2,350.6 5526.2,61.5 5157.2,44.3 
	4942.1,136.4 4850.8,416.7 4852.8,449 "/>
<g>
	<polygon fill="#F59295" points="2331.5,664 2024.9,694.8 1691.7,505.9 1667.6,347.1 1662.1,353.2 1691.7,548.5 2024.9,737.4 
		2331.5,706.6 2648.6,487.6 2639.9,451 	"/>
	<g>
		<polygon fill="#F9B3AA" points="2248.1,69 2581.2,204.1 2639.9,451 2648.6,445 2581.2,161.5 2248.1,26.4 1926.6,20.1 
			1662.1,310.6 1667.6,347.1 1926.6,62.7 		"/>
		<polygon fill="#E7EAD6" points="2024.9,694.8 2331.5,664 2639.9,451 2581.2,204.1 2248.1,69 1926.6,62.7 1667.6,347.1 
			1691.7,505.9 		"/>
	</g>
</g>
<g>
</g>
<g>
</g>
<g>
</g>
<g>
</g>
<g>
</g>
<g>
</g>
<g>
</g>
<g>
</g>
<g>
</g>
<g>
</g>
<g>
</g>
<g>
</g>
<g>
</g>
<g>
</g>
<g>
</g>
</svg>
