<svg xmlns="http://www.w3.org/2000/svg" viewBox="0 0 230 230"><title>zar</title><path d="M61.37,61.44s-.84-2.12,4.06-3.49,12-1.58,16.36,3.11,6.44,7,6.44,7L74.88,80.3S70,69.92,66.61,67,61.6,63.8,61.37,61.44Z" style="fill:#c7c8c8"/><path d="M167.48,62.61s1-2-3.71-3.85S152,56.07,147.18,60.34s-7.06,6.33-7.06,6.33l12.16,13.47s5.83-9.88,9.47-12.51S167,64.94,167.48,62.61Z" style="fill:#c7c8c8"/><path d="M153.43,74.5c.08-.25-5.33-5.57-5.33-5.57C136.5,60,125.09,57,114.88,57.13c-10.2-.47-21.71,2.1-33.63,10.59,0,0-5.59,5.11-5.53,5.37.22.9-5.37,7.86-6,9.15a45.87,45.87,0,0,0-4.49,15.67c-1.08,10.48.26,21,1.49,31.39,1.06,9,.9,18.49,3.06,27.29,6.24,25.41,36.92,30.95,59,25.74,12.49-3,23.32-9.37,27.29-22.28,4.77-15.51,4.07-33.36,6.5-49.4A46.92,46.92,0,0,0,153.43,74.5Z" style="fill:#dcdcdd"/><path d="M98.21,133l9.3-43.2a2.71,2.71,0,0,1,5.28-.07l10.51,43.44a4.81,4.81,0,0,1-3.4,5.79,32.14,32.14,0,0,1-18.46-.37A4.84,4.84,0,0,1,98.21,133Z" style="fill:#fff"/><circle cx="89.01" cy="126.22" r="5.18" transform="translate(-44.53 203.82) rotate(-84.97)" style="fill:#aaacad"/><circle cx="89.01" cy="126.22" r="3.29" transform="translate(-44.53 203.82) rotate(-84.97)" style="fill:#6f6f6f"/><circle cx="133.63" cy="126.22" r="5.18" transform="translate(-3.81 248.27) rotate(-84.97)" style="fill:#aaacad"/><circle cx="133.63" cy="126.22" r="3.29" transform="translate(-3.81 248.27) rotate(-84.97)" style="fill:#6f6f6f"/><path d="M95.36,140.72a9.88,9.88,0,0,0-1,2.37,7.07,7.07,0,0,0-.25,2.43,6.56,6.56,0,0,0,.75,2.18,9,9,0,0,0,.56,1.06c.2.36.48.69.69,1.12h0a.06.06,0,0,1,0,.09h0a4.21,4.21,0,0,1-2.24-1.65l-.2-.3a2.21,2.21,0,0,1-.15-.33,4.52,4.52,0,0,1-.22-.7l-.09-.72c0-.24,0-.48,0-.72a7,7,0,0,1,.66-2.67,9,9,0,0,1,1.46-2.23.06.06,0,0,1,.1.07Z" style="fill:#807f80"/><path d="M127.94,140.12a5.49,5.49,0,0,1,2,2.1,6.24,6.24,0,0,1,.76,2.92,6.68,6.68,0,0,1-.49,3,10.94,10.94,0,0,1-.77,1.28,7.9,7.9,0,0,1-1,1.08.07.07,0,0,1-.11-.06h0a8.46,8.46,0,0,1,.36-1.41c.11-.46.25-.89.39-1.32.05-.22.11-.43.18-.65a6,6,0,0,0,.2-.63l.19-.64.1-.66a6,6,0,0,0-.33-2.62,5.46,5.46,0,0,0-1.54-2.26h0a.06.06,0,0,1,.07-.1Z" style="fill:#807f80"/><path d="M106.15,146.54c.07-.36-.22-.82-1-1.39-1.41-1-5.44-2.29-6.1-.13-.49,1.58.44,2.36,2.19,2.6C102.72,147.82,106,147.6,106.15,146.54Z" style="fill:#898989"/><path d="M115.82,146.16c0-.36.37-.76,1.37-1.21,1.7-.75,6.34-1.51,6.72.66.28,1.59-.86,2.22-2.82,2.23C119.38,147.84,115.86,147.2,115.82,146.16Z" style="fill:#898989"/><path d="M111.89,160.32a11.33,11.33,0,0,1-.56-2.46,18.1,18.1,0,0,1-.16-2.46,18.35,18.35,0,0,1,.16-2.46,11.45,11.45,0,0,1,.55-2.46H112c0,1.64,0,3.28,0,4.92s0,3.28,0,4.92Z" style="fill:#807f80"/><path d="M105.94,160.39a38.86,38.86,0,0,1,6.94-1c1.17-.09,2.35-.09,3.54-.1s2.32.09,3.42.09,2.18,0,3.24,0a25.62,25.62,0,0,0,3.12-.28,19,19,0,0,0,5.88-2l.14.08a12.63,12.63,0,0,1-5.55,2.89,26.69,26.69,0,0,1-6.89.61c-1.16,0-2.31-.12-3.46-.17s-2.3-.08-3.45-.09c-2.3,0-4.61,0-6.92.11Z" style="fill:#807f80"/><path d="M119.8,160.39a38.86,38.86,0,0,0-6.94-1c-1.17-.09-2.35-.09-3.54-.1s-2.32.09-3.42.09-2.18,0-3.24,0a25.62,25.62,0,0,1-3.12-.28,19,19,0,0,1-5.88-2l-.14.08a12.63,12.63,0,0,0,5.55,2.89,26.69,26.69,0,0,0,6.89.61c1.16,0,2.31-.12,3.46-.17s2.3-.08,3.45-.09c2.3,0,4.61,0,6.92.11Z" style="fill:#807f80"/></svg>