<?xml version="1.0" encoding="utf-8"?>
<!-- Generator: Adobe Illustrator 18.0.0, SVG Export Plug-In . SVG Version: 6.00 Build 0)  -->
<!DOCTYPE svg PUBLIC "-//W3C//DTD SVG 1.1//EN" "http://www.w3.org/Graphics/SVG/1.1/DTD/svg11.dtd">
<svg version="1.1" id="Layer_1" xmlns="http://www.w3.org/2000/svg" xmlns:xlink="http://www.w3.org/1999/xlink" x="0px" y="0px"
	 viewBox="0 0 1598.9 361.7" enable-background="new 0 0 1598.9 361.7" xml:space="preserve">
<path fill="#AAD7DB" d="M1473.8,19.8L1473.8,19.8c-73.3-24-160.4-26.3-236.9-6.5L1148,36.5c-76.6,19.9-164,17.5-237.4-6.5l-31-10.1
	c-73.3-24-160.4-26.3-236.9-6.5L593,26.3c-76.5,19.9-163.6,17.5-236.9-6.5h0C314.6,6.3,268.7-0.4,222.9,0
	c-35.2,0.3-70.5,4.7-103.7,13.4L58.3,29.2C39,34.2,19.6,38.1,0,40.9v32.6v26.9v261.2h1420.7V100.5h108h66l4.2-60.8
	C1555.7,39.2,1512.8,32.6,1473.8,19.8z"/>
<g>
</g>
<g>
</g>
<g>
</g>
<g>
</g>
<g>
</g>
<g>
</g>
<g>
</g>
<g>
</g>
<g>
</g>
<g>
</g>
<g>
</g>
<g>
</g>
<g>
</g>
<g>
</g>
<g>
</g>
</svg>
