<?xml version="1.0" encoding="utf-8"?>
<!-- Generator: Adobe Illustrator 18.0.0, SVG Export Plug-In . SVG Version: 6.00 Build 0)  -->
<!DOCTYPE svg PUBLIC "-//W3C//DTD SVG 1.1//EN" "http://www.w3.org/Graphics/SVG/1.1/DTD/svg11.dtd">
<svg version="1.1" id="Layer_1" xmlns="http://www.w3.org/2000/svg" xmlns:xlink="http://www.w3.org/1999/xlink" x="0px" y="0px"
	 viewBox="0 142.6 612 506.9" enable-background="new 0 142.6 612 506.9" xml:space="preserve">
<title>aud-bg</title>
<path fill="#F6BCB1" d="M306,579.4c-14,0-28-1.8-41.6-5.3c-6.5-1.7-13.1-2.6-19.8-2.7c-1.5,0-2.9,0-4.4,0c-2.2,0-4.3,0.2-6.5,0.2
	c-2.7,0-5.3,0-8.1-0.3c-32-2.3-61.4-18.4-80.7-44.1C67,519.5,10.1,450.2,17.7,372.3c1.5-15.6,5.6-30.9,12.2-45.2
	c-13.4-13.7-13.2-35.7,0.5-49.1c1.5-1.4,3.1-2.8,4.8-3.9c1.5-18,16.6-31.7,34.6-31.7h1.4l138.1,8.4h0.9c8.6,1.1,17,3.5,24.8,7.2
	c45.1-21,97.1-21,142.2,0c7.8-3.6,16.1-6,24.6-7.1h0.9l138.1-8.4h1.4c18,0,33,13.8,34.6,31.7c15.9,10.8,20,32.4,9.2,48.3
	c-1.2,1.7-2.5,3.3-3.9,4.8c32.8,71.1,1.7,155.2-69.3,188c-12.5,5.8-25.7,9.7-39.3,11.6c-21,28.4-54.2,45.2-89.5,45.2
	c-3.2,0-6.4-0.1-9.5-0.4c-1.9-0.2-3.9-0.2-5.9-0.2c-6.8,0-13.6,0.9-20.1,2.7C334.6,577.7,320.3,579.4,306,579.4z"/>
</svg>
