<?xml version="1.0" encoding="utf-8"?>
<!-- Generator: Adobe Illustrator 18.0.0, SVG Export Plug-In . SVG Version: 6.00 Build 0)  -->
<!DOCTYPE svg PUBLIC "-//W3C//DTD SVG 1.1//EN" "http://www.w3.org/Graphics/SVG/1.1/DTD/svg11.dtd">
<svg version="1.1" id="Layer_1" xmlns="http://www.w3.org/2000/svg" xmlns:xlink="http://www.w3.org/1999/xlink" x="0px" y="0px"
	 viewBox="0 0 304.2 444.8" enable-background="new 0 0 304.2 444.8" xml:space="preserve">
<g>
	<path fill="#989BBB" d="M234.9,354.5c-19.8-64.3-42.1-122.4-40.8-175.5h-46.9h-46.9c1.3,53.1-21,111.2-40.8,175.5
		c-19.8,64.3,14.8,90.2,14.8,90.2h72.9h72.9C220.1,444.8,254.7,418.8,234.9,354.5z"/>
	<path fill="#7E819C" d="M112.6,335.4H99.5c-1.3,0-2.4-1.1-2.4-2.4v-48.3c0-1.3,1.1-2.4,2.4-2.4h13.1c1.3,0,2.4,1.1,2.4,2.4V333
		C115,334.3,113.9,335.4,112.6,335.4z"/>
	<circle fill="#7E819C" cx="105.3" cy="350.7" r="8.1"/>
	<circle fill="#7E819C" cx="201.7" cy="404.1" r="11"/>
	<circle fill="#7E819C" cx="198.8" cy="427.5" r="8.1"/>
	<circle fill="#7E819C" cx="219.3" cy="417.9" r="6.7"/>
	<path fill="#828AB3" d="M303.3,121.4C298,86.5,271.9,57.8,245,37.1c-12.4-9.6-25.8-18.2-39.6-25.5c-0.5-0.2-1.3-0.6-2.4-1.1
		c-32.4-13.9-69.2-13.9-101.6,0c-1.1,0.5-2,0.9-2.4,1.1c-13.8,7.3-27.3,16-39.6,25.5c-26.9,20.8-53,49.5-58.3,84.3
		c-2.5,16.6,0.2,33.6,6.7,49h288.9C303.1,155,305.8,138,303.3,121.4z"/>
	<path fill="#ADADB7" d="M21.4,193.6c0.1,0,130.7,0,130.7,0s130.6,0,130.7,0c3.6,0,11.2-17.4,12.3-19.9c0.5-1.1,0.9-2.2,1.4-3.2H7.7
		c0.5,1.1,0.9,2.2,1.4,3.2C10.2,176.1,17.8,193.6,21.4,193.6z"/>
	<circle fill="#ADADB7" cx="89.5" cy="47.9" r="7.6"/>
	<circle fill="#ADADB7" cx="111.5" cy="34.3" r="7.6"/>
	<circle fill="#ADADB7" cx="113.4" cy="59.7" r="8.1"/>
</g>
<g>
</g>
<g>
</g>
<g>
</g>
<g>
</g>
<g>
</g>
<g>
</g>
<g>
</g>
<g>
</g>
<g>
</g>
<g>
</g>
<g>
</g>
<g>
</g>
<g>
</g>
<g>
</g>
<g>
</g>
</svg>
