<?xml version="1.0" encoding="utf-8"?>
<!-- Generator: Adobe Illustrator 21.0.2, SVG Export Plug-In . SVG Version: 6.00 Build 0)  -->
<!DOCTYPE svg PUBLIC "-//W3C//DTD SVG 1.1//EN" "http://www.w3.org/Graphics/SVG/1.1/DTD/svg11.dtd">
<svg version="1.1" id="Layer_1" xmlns="http://www.w3.org/2000/svg" xmlns:xlink="http://www.w3.org/1999/xlink" x="0px" y="0px"
	 viewBox="0 0 577.1 548.5" style="enable-background:new 0 0 577.1 548.5;" xml:space="preserve">
<style type="text/css">
	.st0{fill:#99B6B3;}
	.st1{fill:#639580;}
	.st2{fill:#B9D895;}
	.st3{fill:#57BC9E;}
	.st4{fill:#49706B;}
	.st5{fill:#509F89;}
	.st6{fill:#4A8E81;}
	.st7{fill:#C7DF98;}
	.st8{fill:#8EBDB6;}
	.st9{fill:#B6DFD8;}
</style>
<title>mobile-deco-btm</title>
<path class="st0" d="M576.7,441.5c-21.8-37.3-61.5-40-85.7-5.8l0,0c-24.2,34.2-64,31.5-85.7-5.8l-1.8-3.1
	c-20.9-35.8-60.6-31.2-77.2,8.9l-15.8,38.4c-11.4,27.6-38.8,30.8-53.2,6.1l-44.9-76.8c-21.4-36.6-63.5-15.2-63.5,32.3l0,0
	c0,47.5-42.1,68.9-63.5,32.3l-24-41.2c-20.9-35.8-60.6-31.2-77.2,8.9l-48.6,117.6H642L576.7,441.5z"/>
<path class="st1" d="M-16.3,436.3c-10.1-12.2-20.5-25.7-30.5-40.4c0,0-12.1,57.6,28.3,102.4s83.3,37.9,83.3,37.9l6.9-15
	c0,0-21.6-15.3-50.8-44.1l-15.3,6.8l8.6-13.5c-8.7-8.9-17.9-19-27.3-30.1l-7.8,10L-16.3,436.3z"/>
<path class="st2" d="M25.3,361.4C19,341,13.1,319,8.2,295.7c0,0-44.5,65.2-17.3,141.4s83.8,89.6,83.8,89.6l16.2-15.1
	c0,0-19-30-40.3-80.7l-22.4,0.5L45.7,419c-6.2-15.5-12.5-32.7-18.4-51.3l-14.8,8.5L25.3,361.4z"/>
<path class="st3" d="M106.9,335.3c2.1-24.2,5.3-49.9,10.1-76.7c0,0-74.9,49.7-78.9,141.8s50,130.5,50,130.5l23.6-9
	c0,0-7.2-39.9-7.9-102.5l-23.9-9l23.8-5.5c0.1-19,0.9-39.8,2.5-62l-19.2,2.6L106.9,335.3z"/>
<path class="st4" d="M109.4,383.7c7.8,5.1,20.9,10.5,20.9,10.5c-8.2-0.2-17.3-3.4-23.1-5.9c-3.8,8.8-6.1,18.1-7,27.6
	c9.4,5.9,29.2,11.6,29.2,11.6c-6.5,3-21.2-0.7-29.7-3.8c-0.3,10.1,0.3,20.2,1.9,30.2c0.1,3.5,0.6,6.9,1.3,10.3
	c15.6,7,34.5,6.4,34.5,6.4c-8.8,5.7-24.4,3.3-32.7,1.4c1.9,7,4.3,13.8,7.2,20.4c25.9,3.3,38.3-2.9,38.3-2.9
	c-10.9,6.1-23.3,9-35.8,8.4c3.1,6.5,6.7,12.8,10.5,18.8l105.6,31.6l3-10.2c0,0-123.4-59.5-84-187.3C149.5,351,124,355.9,109.4,383.7
	z"/>
<path class="st5" d="M181,408.8c-54.2,67.7,6.3,130.6,6.3,130.6S241.5,471,181,408.8z"/>
<path class="st6" d="M187.6,510.2c0.2-2.9,0.3-5.8,0.4-8.7l0,0l0,0c0-1.6,0.1-3.2,0.1-4.8c4.8,0.2,8.6-2.9,11.7-6.6
	c-0.6,0.7-1.3,1.3-2,1.9l-0.3,0.1c-0.4,0.2-0.7,0.4-1,0.6c-2.4,1.3-5.1,1.6-7.7,1c-0.2,0-0.4,0.1-0.7,0.4c0-4,0-8-0.1-12l0,0l0,0
	c0-1.5-0.1-3.1-0.2-4.6c5-0.5,9.9-5.2,10.8-10c-0.2,1-2.5,1.6-2.7,2.7s-0.7,2-1,3c-0.1,0.2-0.3,0.4-0.4,0.6
	c-0.2,0.1-0.5,0.3-0.7,0.4c-1.7,0.8-3.7,1-5.5,0.6c-0.2,0-0.4,0.1-0.6,0.4c-0.2-3.7-0.4-7.4-0.8-11.1c0,0,0.1,0,0.1,0l-0.1-0.1
	c-0.1-0.9-0.1-1.8-0.2-2.7c0.1-0.1,0.2-0.3,0.3-0.5c2.5-6.7,4.5-13.6,6-20.7c-0.2,1-2.5,1.6-2.7,2.7c-1.1,5-2.4,9.9-4,14.8
	c-0.9-9-2.2-17.9-3.9-26.8c0.1,0.7-2.8,1.9-2.7,2.7c1.8,9.4,3.1,18.9,4,28.4c-4.2-3.6-7.2-9.7-10.1-13.9c0.1,0.2-2.8,2.5-2.7,2.7
	c3.6,5.2,7.3,13.1,13.2,16c0.4,4.4,0.7,8.9,0.9,13.3c-4.9-4.2-9.3-9-13-14.3c0.1,0.2-2.8,2.5-2.7,2.7c4.4,6.3,9.8,11.9,15.9,16.6
	c0.1,4.7,0.2,9.3,0.1,13.9l-8.2-8.9c0,0-2.7,2.6-2.7,2.7l10.7,11.6c-0.1,2.9-0.2,5.9-0.4,8.8C184.9,512,187.5,511.2,187.6,510.2z
	 M197.2,492.5l-0.1,0.1L197.2,492.5z"/>
<path class="st5" d="M266.9,442.8c-85.1,16.5-79.7,103.6-79.7,103.6S272.8,529.4,266.9,442.8z"/>
<path class="st6" d="M206.3,524.3c2-2.1,4-4.2,5.9-6.4l0,0l0,0c1.1-1.2,2.1-2.4,3.2-3.6c3.5,3.3,8.4,3.3,13.2,2.6
	c-0.9,0.1-1.8,0.1-2.7,0.2l-0.3-0.1c-0.4-0.1-0.8-0.1-1.2-0.2c-2.6-0.6-4.9-2.1-6.5-4.3c-0.1-0.2-0.4-0.2-0.8-0.1
	c2.6-3,5.2-6.1,7.7-9.2l0,0v-0.1c1-1.2,1.9-2.4,2.9-3.6c4.1,2.9,10.9,2.5,14.7-0.7c-0.8,0.6-3-0.4-3.8,0.3s-1.8,1-2.7,1.6
	c-0.2,0-0.5,0.1-0.7,0.2c-0.3,0-0.5-0.1-0.8-0.2c-1.8-0.5-3.5-1.6-4.6-3.1c-0.1-0.1-0.4-0.2-0.7-0.1c2.3-3,4.5-6,6.6-9
	c0.1,0,0.1,0,0.1,0.1l-0.1-0.1l1.6-2.2c0.2,0,0.4-0.1,0.5-0.2c6.3-3.5,12.3-7.5,18-11.9c-0.8,0.6-2.9-0.4-3.8,0.3
	c-4.1,3.1-8.3,6-12.6,8.7c5.1-7.4,9.9-15.1,14.4-22.9c-0.3,0.6-3.4-0.3-3.8,0.3c-4.8,8.3-9.9,16.4-15.3,24.3
	c-0.8-5.5,0.8-12,1.3-17.1c0,0.2-3.7,0-3.8,0.3c-0.6,6.3-2.9,14.7-0.3,20.7c-2.6,3.6-5.2,7.2-8,10.7c-1.1-6.4-1.3-12.9-0.7-19.4
	c0,0.2-3.7,0-3.8,0.3c-0.7,7.7-0.3,15.4,1.4,23c-2.9,3.6-5.9,7.2-8.9,10.7l-0.5-12c0,0-3.8,0.2-3.8,0.3l0.7,15.8c-2,2.2-4,4.3-6,6.5
	C203.2,524,205.6,525,206.3,524.3z M225.1,517.1h-0.2H225.1z"/>
<path class="st7" d="M45.2,512.5c1.6-0.4,3.2-0.2,4.7,0.5l16.8,6.4l12.9,4.9c0.3-2,0.5-4,0.8-5.9L50.6,507c-2.4-0.9-4.7-1.9-5.6-4.8
	c-1.1-3.4,0.5-7,3.7-8.5c1.7-0.7,3.6-0.6,5.2,0.2l15.8,6l12,4.6c0.2-1.7,0.3-3.4,0.4-5.1L49.6,487c-2.4-0.9-5.1-1.6-6.4-4.2
	c-2.9-5.5,2.4-11.7,7.9-9.7c6,2.2,11.9,4.5,17.9,6.7l14.3,5.4c0.1-2.3,0.2-4.5,0.3-6.8l-32.9-13.1c-2.3-0.9-4.5-1.6-5.8-4.1
	c-1.8-3.4-0.4-7.7,3-9.4c0.1,0,0.2-0.1,0.3-0.1c1.7-0.7,3.6-0.6,5.3,0.2c5.8,2.3,11.5,4.6,17.2,6.9l13.2,5.3c0-3.8,0-7.5-0.1-11.3
	l-29.6-8.7c-2.4-0.7-4.7-1.3-6.1-3.7c-3-5.3,1.8-11.5,7.3-10.1c5.1,1.3,10.2,3,15.3,4.5l12.5,3.7c-0.1-1.8-0.2-3.7-0.4-5.5l-27.4-8
	c-2.2-0.6-4.4-1.2-5.8-3.3c-3.3-5.2,1.3-11.8,6.9-10.5c4.6,1.1,9.2,2.7,13.8,4l11.1,3.3c-0.3-2.4-0.6-4.9-0.9-7.3l-25.4-5
	c-2.2-0.4-4.3-1-5.7-3.1c-2.1-3.1-1.3-7.4,1.8-9.5c1.4-1,3.1-1.4,4.8-1.1c4.2,0.7,8.3,1.6,12.5,2.5l9.9,2c-0.3-1.6-0.6-3.3-0.9-4.9
	l-20.1-5.9c-1.7-0.5-3.4-1-4.7-2.5c-3.1-3.7-1.4-9.6,3-11c1.8-0.6,3.4,0,5.1,0.5L67,375l6.9,2c-0.5-2.1-1.1-4.2-1.7-6.3l-14.3-7
	c-0.7-0.3-1.5-0.7-2.2-1.2c-2.8-2-3.8-5.8-2.2-8.9c1.5-3,5.1-4.4,8.2-3.1c0.9,0.4,1.8,0.9,2.7,1.3l2,1c-0.8-2.2-1.7-4.4-2.7-6.5
	l-0.5-1l-0.3-0.6l-0.4-0.9c-0.7-1.2-1.1-2.5-1.2-3.9c-0.2-6.2,7.4-9.3,11.3-4.7c1.4,1.6,2.1,3.9,3,5.8c1.3,3,2.6,6.1,3.7,9.2l1-1.7
	c1.9-3.1,3.6-7.1,7.6-7.4c3.5-0.1,6.5,2.5,6.8,6c0.2,1.7-0.3,3.4-1.2,4.8l-5,8.4l-3.9,6.5c0.5,1.8,1,3.7,1.5,5.5l3.1-3.8l4.5-5.5
	c0.8-1.1,1.8-2.2,2.8-3.1c4-3.1,9.7-0.3,10.2,4.9c0.2,2.4-0.9,4.3-2.3,6l-8.4,10.1l-6.3,7.7c0.2,1.3,0.5,2.5,0.7,3.8
	c5.2-4.8,10.4-9.6,15.5-14.4c2.4-2.6,6.4-2.7,9-0.3c0.9,0.9,1.6,2,1.9,3.3c0.8,3-0.5,5.5-2.6,7.4l-11.8,11l-9.5,8.8
	c0.3,2.2,0.6,4.4,0.8,6.6c7.3-6.1,14.5-12.3,21.8-18.4c2.7-2.3,6.8-2,9.1,0.7c0.8,1,1.4,2.2,1.5,3.5c0.5,3.5-1.6,5.7-4,7.6
	L107.2,421l-11.6,9.8c0.1,1.6,0.2,3.1,0.3,4.7l24.6-17c1-0.8,2.1-1.3,3.4-1.5c3.6-0.4,6.8,2.3,7.2,5.9c0,0,0,0,0,0
	c0.4,3.7-1.8,5.8-4.4,7.6l-16.9,11.6l-13.3,9.1c0.1,3.7,0.1,7.3,0.1,11L126,445c0.8-0.5,1.6-0.9,2.4-1.3c3.5-1,7.1,1,8.1,4.5
	c0.1,0.4,0.2,0.8,0.2,1.2c0.5,4-2.2,6.1-5,7.7L112,468.8L96.4,478c-0.1,2.3-0.2,4.5-0.3,6.8l33.7-12.8c0.5-0.2,1-0.4,1.5-0.5
	c3.4-1.1,7.1,0.8,8.2,4.2c0.1,0.4,0.2,0.8,0.3,1.2c0.5,3.2-1.3,6.3-4.3,7.4c-0.6,0.2-1.2,0.5-1.8,0.7l-21.7,8.2l-16.8,6.4
	c-0.2,2-0.3,4-0.5,6l35.9-6.3c0.8-0.1,1.6-0.3,2.5-0.4c3.3-0.4,6.4,1.8,7.1,5.1c0,0.1,0,0.2,0,0.3c0,0.2,0.1,0.4,0.1,0.5
	c0.4,3.6-2.1,6.9-5.7,7.5l-1.8,0.3l-9.8,1.7l-26,4.5l-3.8,0.7c-0.3,2.3-0.6,4.6-0.9,6.9l28.6-0.5c0.4,0,0.8,0,1.1,0
	c3.3,0,6.1,2.4,6.6,5.7c0.6,3.7-1.9,7.2-5.6,7.8c-0.4,0.1-0.8,0.1-1.3,0.1l-17.4,0.3l-14,0.3c-0.5,3.3-1.1,6.7-1.7,10
	c-0.7,3.8-3.7,6.6-7.5,6s-5.7-4.3-5.2-8c0.4-3.4,1.1-6.8,1.7-10.1l-31.1-11.8c-2.6-1-5-2.1-5.8-5.2
	C39.7,517.4,41.7,513.6,45.2,512.5z"/>
<path class="st1" d="M610.5,425.5c10.2-12.2,20.5-25.7,30.5-40.4c0,0,12.1,57.6-28.3,102.4s-83.3,37.9-83.3,37.9l-6.8-15
	c0,0,21.7-15.3,50.8-44.1l15.3,6.8l-8.6-13.5c8.7-8.9,17.9-19,27.3-30.1l7.8,10L610.5,425.5z"/>
<path class="st2" d="M568.9,350.6c6.3-20.4,12.2-42.4,17.2-65.7c0,0,44.5,65.2,17.3,141.4s-83.8,89.6-83.8,89.6l-16.2-15.1
	c0,0,19-30,40.3-80.7l22.4,0.5l-17.5-12.4c6.2-15.5,12.5-32.7,18.4-51.3l14.8,8.5L568.9,350.6z"/>
<path class="st3" d="M487.3,324.5c-2.1-24.2-5.3-49.9-10.1-76.7c0,0,74.9,49.7,78.9,141.8s-50,130.5-50,130.5l-23.6-9
	c0,0,7.2-39.8,7.9-102.4l23.8-9l-23.8-5.5c-0.1-19-0.8-39.8-2.5-62l19.2,2.6L487.3,324.5z"/>
<path class="st4" d="M439.1,400.6c-7,4.5-18.8,9.4-18.8,9.4c7.4-0.1,15.5-3.1,20.7-5.3c3.4,7.9,5.5,16.3,6.3,24.8
	c-8.4,5.3-26.2,10.4-26.2,10.4c5.8,2.7,19-0.6,26.7-3.4c0.3,9.1-0.3,18.2-1.7,27.1c-0.1,3.1-0.5,6.2-1.2,9.3
	c-14,6.3-30.9,5.7-30.9,5.7c7.9,5.1,21.9,2.9,29.3,1.3c-1.7,6.3-3.9,12.4-6.5,18.3c-23.2,2.9-34.4-2.6-34.4-2.6
	c9.8,5.4,20.9,8,32.1,7.5c-2.8,5.8-6,11.5-9.5,16.9l-94.8,28.4l-2.7-9.1c0,0,110.9-53.4,75.5-168.1
	C403.1,371.2,426.1,375.5,439.1,400.6z"/>
<path class="st5" d="M379.9,408.8c54.2,67.7-6.3,130.6-6.3,130.6S319.4,471,379.9,408.8z"/>
<path class="st6" d="M376,512.9c-0.2-2.9-0.3-5.9-0.4-8.8l10.7-11.6c0,0-2.7-2.6-2.7-2.7l-8.2,8.9c-0.1-4.7,0-9.3,0.1-13.9
	c6.1-4.7,11.5-10.3,15.9-16.6c0.1-0.2-2.8-2.5-2.7-2.7c-3.7,5.3-8.1,10.1-13,14.3c0.2-4.4,0.5-8.9,0.8-13.3
	c5.9-2.8,9.6-10.8,13.2-16c0.1-0.2-2.8-2.5-2.7-2.7c-2.9,4.2-5.9,10.2-10.1,13.9c0.9-9.5,2.3-19,4-28.4c0.1-0.7-2.8-2-2.7-2.7
	c-1.7,8.9-3,17.8-3.9,26.8c-1.6-4.9-2.9-9.8-4-14.8c-0.2-1-2.5-1.6-2.7-2.7c1.5,7,3.5,13.9,6,20.7c0.1,0.2,0.2,0.3,0.3,0.5
	c-0.1,0.9-0.2,1.8-0.2,2.7l-0.1,0.1c0,0,0.1,0,0.1,0c-0.3,3.7-0.6,7.4-0.8,11.1c-0.2-0.2-0.4-0.4-0.6-0.4c-1.9,0.4-3.8,0.1-5.5-0.6
	c-0.3-0.1-0.5-0.3-0.7-0.4c-0.1-0.2-0.2-0.4-0.4-0.6c-0.3-1-0.8-1.9-1-3s-2.5-1.7-2.7-2.7c0.8,4.9,5.8,9.6,10.8,10
	c-0.1,1.5-0.1,3.1-0.2,4.6l0,0l0,0c-0.1,4-0.2,8-0.1,12c-0.3-0.3-0.5-0.5-0.7-0.4c-2.6,0.6-5.4,0.3-7.7-1c-0.4-0.2-0.7-0.4-1-0.6
	l-0.3-0.1c-0.7-0.6-1.4-1.2-2-1.9c3.1,3.7,6.9,6.8,11.7,6.6c0,1.6,0,3.2,0.1,4.8l0,0l0,0c0.1,2.9,0.2,5.8,0.4,8.7
	C373.4,511.2,376,512,376,512.9z M363.8,492.6l-0.1-0.1L363.8,492.6z"/>
<path class="st5" d="M294,442.8c85.1,16.5,79.7,103.6,79.7,103.6S288.1,529.4,294,442.8z"/>
<path class="st6" d="M358.4,524.6c-2-2.1-4-4.3-6-6.5l0.7-15.8c0-0.1-3.8-0.3-3.8-0.3l-0.5,12c-3.1-3.5-6-7.1-8.9-10.7
	c1.6-7.6,2.1-15.3,1.4-23c0-0.3-3.8-0.1-3.8-0.3c0.6,6.5,0.4,13-0.7,19.4c-2.7-3.5-5.4-7.1-8-10.7c2.6-6,0.3-14.4-0.3-20.7
	c0-0.3-3.8-0.1-3.8-0.3c0.5,5.1,2.1,11.6,1.3,17.1c-5.5-7.9-10.6-16-15.3-24.3c-0.4-0.6-3.4,0.3-3.8-0.3c4.5,7.8,9.3,15.5,14.4,22.9
	c-4.3-2.7-8.5-5.6-12.6-8.7c-0.9-0.6-2.9,0.3-3.8-0.3c5.7,4.4,11.7,8.3,18,11.9c0.2,0.1,0.3,0.1,0.5,0.2l1.6,2.2l-0.1,0.1
	c0,0,0.1,0,0.1-0.1c2.2,3,4.4,6,6.6,9c-0.3,0-0.6,0-0.7,0.1c-1.2,1.5-2.8,2.6-4.6,3.1c-0.3,0.1-0.5,0.1-0.8,0.2
	c-0.2-0.1-0.4-0.2-0.7-0.2c-0.9-0.6-1.8-1-2.7-1.6s-3,0.4-3.8-0.3c3.8,3.2,10.6,3.6,14.7,0.7c1,1.2,1.9,2.4,2.9,3.6v0.1l0,0
	c2.5,3.1,5.1,6.2,7.7,9.2c-0.4,0-0.7,0-0.8,0.1c-1.6,2.2-3.9,3.7-6.5,4.3c-0.4,0.1-0.8,0.1-1.2,0.2l-0.2,0c-0.9-0.1-1.8,0-2.7-0.2
	c4.8,0.8,9.6,0.7,13.2-2.6c1.1,1.2,2.1,2.4,3.2,3.6l0,0l0,0c1.9,2.2,3.9,4.3,5.9,6.4C355.3,525,357.8,524,358.4,524.6z M336,517.1
	h-0.2H336z"/>
<path class="st7" d="M510.9,498.7c-1.6-0.4-3.2-0.2-4.7,0.5l-16.8,6.4l-12.8,4.9c-0.3-2-0.5-4-0.8-5.9l29.7-11.3
	c2.4-0.9,4.7-1.9,5.6-4.8c1.1-3.4-0.5-7-3.7-8.5c-1.7-0.7-3.6-0.6-5.2,0.2l-15.8,6l-12,4.6c-0.2-1.7-0.3-3.4-0.5-5.1l32.7-12.3
	c2.4-0.9,5.1-1.6,6.4-4.2c2.9-5.5-2.4-11.7-7.8-9.7c-6,2.2-11.9,4.5-17.9,6.7l-14.3,5.4c-0.1-2.3-0.2-4.5-0.3-6.8l32.9-13.1
	c2.3-0.9,4.5-1.6,5.8-4.1c1.8-3.4,0.4-7.7-3-9.4c-0.1,0-0.2-0.1-0.3-0.1c-1.7-0.7-3.6-0.6-5.3,0.2c-5.8,2.3-11.5,4.6-17.2,6.9
	l-13.2,5.3c0-3.8,0-7.5,0.1-11.3l29.5-8.7c2.4-0.7,4.7-1.3,6.1-3.7c3-5.3-1.8-11.5-7.3-10.1c-5.2,1.3-10.2,3-15.3,4.5l-12.5,3.7
	c0.1-1.8,0.2-3.7,0.4-5.5l27.4-8c2.2-0.6,4.4-1.2,5.8-3.3c3.3-5.2-1.3-11.8-6.9-10.5c-4.6,1.1-9.2,2.7-13.8,4l-11.1,3.3
	c0.3-2.4,0.6-4.9,0.9-7.3l25.4-5c2.2-0.4,4.3-1,5.7-3.1c2.1-3.1,1.3-7.4-1.8-9.5c-1.4-1-3.1-1.4-4.8-1.1c-4.2,0.7-8.3,1.6-12.5,2.5
	l-9.9,2c0.3-1.6,0.6-3.3,0.9-4.9l20.1-5.9c1.7-0.5,3.4-1,4.7-2.5c3.1-3.7,1.4-9.6-3-11c-1.8-0.6-3.4,0-5.1,0.5l-6.3,1.8l-6.9,2
	c0.5-2.1,1.1-4.2,1.7-6.3l14.3-7c0.7-0.3,1.5-0.7,2.2-1.2c2.8-2,3.8-5.8,2.2-8.9c-1.5-3-5.1-4.4-8.2-3.1c-0.9,0.4-1.8,0.9-2.7,1.3
	l-2,1c0.8-2.2,1.7-4.4,2.7-6.5l0.5-1l0.3-0.6l0.5-0.9c0.7-1.2,1.1-2.5,1.2-3.9c0.2-6.2-7.4-9.3-11.3-4.7c-1.3,1.6-2.1,3.9-3,5.8
	c-1.3,3-2.6,6.1-3.7,9.2l-1-1.7c-1.9-3.1-3.6-7.1-7.6-7.4c-3.5-0.1-6.5,2.5-6.8,6c-0.2,1.7,0.3,3.4,1.2,4.8l5,8.4l3.8,6.5
	c-0.5,1.8-1,3.7-1.5,5.5l-3.1-3.8l-4.5-5.5c-0.8-1.1-1.8-2.2-2.8-3.1c-4-3.1-9.7-0.3-10.2,4.9c-0.2,2.4,0.9,4.3,2.3,6l8.4,10.1
	l6.3,7.7c-0.2,1.3-0.5,2.5-0.7,3.8c-5.2-4.8-10.4-9.6-15.5-14.4c-2.4-2.6-6.4-2.7-9-0.3c-0.9,0.9-1.6,2-1.9,3.3
	c-0.8,3,0.5,5.5,2.6,7.4l11.8,11l9.5,8.8c-0.3,2.2-0.6,4.4-0.8,6.6c-7.3-6.1-14.5-12.3-21.8-18.4c-2.7-2.3-6.8-2-9.1,0.7
	c-0.8,1-1.4,2.2-1.5,3.5c-0.5,3.5,1.7,5.7,4,7.6l15.2,12.8l11.6,9.8c-0.1,1.6-0.2,3.1-0.3,4.7l-24.7-17c-1-0.8-2.1-1.3-3.4-1.5
	c-3.6-0.3-6.8,2.3-7.2,5.9c0,0,0,0,0,0c-0.4,3.7,1.8,5.8,4.4,7.6l16.8,11.6l13.3,9.1c-0.1,3.7-0.1,7.3-0.1,11l-29.3-17.3
	c-0.8-0.5-1.6-0.9-2.4-1.3c-3.5-1-7.1,1-8.1,4.5c-0.1,0.4-0.2,0.8-0.2,1.2c-0.5,4,2.2,6.1,5,7.7L444,455l15.6,9.2
	c0.1,2.3,0.2,4.5,0.3,6.8l-33.7-12.8c-0.5-0.2-1-0.4-1.5-0.5c-3.4-1.1-7.1,0.8-8.2,4.2c-0.1,0.4-0.2,0.8-0.3,1.2
	c-0.5,3.2,1.3,6.3,4.3,7.4c0.6,0.2,1.2,0.5,1.8,0.7l21.7,8.2l16.8,6.4c0.2,2,0.3,4,0.5,6l-35.9-6.3c-0.8-0.1-1.6-0.3-2.5-0.4
	c-3.3-0.4-6.4,1.8-7.1,5.1c0,0.1,0,0.2,0,0.3c0,0.2-0.1,0.4-0.1,0.5c-0.4,3.6,2.1,6.9,5.7,7.5l1.8,0.3l9.8,1.7l26,4.5l3.8,0.7
	c0.3,2.3,0.6,4.6,0.9,6.9l-28.6-0.5c-0.4,0-0.8,0-1.2,0c-3.3,0-6.1,2.4-6.6,5.7c-0.6,3.7,1.9,7.2,5.6,7.8c0.4,0.1,0.8,0.1,1.3,0.1
	l17.4,0.3l14,0.3c0.5,3.3,1.1,6.7,1.7,10c0.7,3.8,3.7,6.6,7.5,6s5.7-4.3,5.2-8c-0.5-3.4-1.1-6.8-1.7-10.1l31.1-11.8
	c2.6-1,5-2.1,5.8-5.2C516.4,503.5,514.4,499.8,510.9,498.7z"/>
<path class="st8" d="M511.2,218.8c-20.8-14.6-42.5-31.1-64.2-49.5c0,0,5.6,94.1,87,146.2s144.6,23.4,144.6,23.4l4.2-26.1
	c0,0-39.9-14.4-97-46.8L565,282.8l7.5-24.5c-17.2-10.1-35.7-21.8-54.9-35l-7.8,18.8L511.2,218.8z"/>
<path class="st9" d="M578.5,94.3C560.1,65.5,541.7,34,524.2,0c0,0-41.2,119.4,32.9,225.7s167.3,103,167.3,103l18.6-30.2
	c0,0-42.1-38.3-96.3-107.7l-34.3,10.3l21.9-26.5c-16.1-21.3-33.1-45.2-50.1-71.4L565,122.5L578.5,94.3z"/>
<path class="st9" d="M-1.4,94.3C17,65.5,35.3,34,52.8,0c0,0,41.2,119.4-32.9,225.7s-167.3,103-167.3,103l-18.6-30.2
	c0,0,42.1-38.3,96.3-107.6l34.3,10.3l-21.9-26.5c16.1-21.3,33.1-45.2,50.1-71.4l19.3,19.3L-1.4,94.3z"/>
<path class="st7" d="M-39.2,363.7c-6.5-37.1-5-107.4,64.7-191c0.9-1,2.4-1.1,3.5-0.2c0.8,0.7,1.1,2,0.6,3
	C14.4,203.7,1.3,233-9.7,263.2c15.3-25.6,38.4-53.3,72.9-80.8c1.1-0.8,2.6-0.6,3.5,0.4c0.7,0.9,0.7,2.2,0,3
	c-18.8,22.6-36.2,46.4-52,71.3c19-21.4,45.2-43.3,81.2-63.5c1.2-0.7,2.7-0.3,3.4,0.9c0.6,1,0.4,2.3-0.5,3.1
	c-19.9,17.3-53.3,48.4-82.1,85c23.7-20.7,56.5-40.9,102-56.4c1.3-0.4,2.7,0.3,3.1,1.6c0.4,1.1-0.1,2.3-1.1,2.9
	C93,247,66.5,265.1,41.4,285.1c26.5-13.9,60.6-25.4,104.4-30.8c1.3-0.2,2.6,0.8,2.7,2.2c0.1,1.1-0.5,2.2-1.6,2.6
	c-27.8,9.5-55.1,20.8-81.5,33.6c27.4-8.4,61.1-13.4,102.4-11.8c1.4,0.1,2.4,1.2,2.4,2.6c0,1.2-0.9,2.1-2,2.3
	c-43.2,7.3-138.5,27.7-194.4,71.7c-0.7,0.6-1.6,0.7-2.4,0.3c-0.3,0.8-0.6,1.6-0.9,2.5c-0.3,1-1.3,1.6-2.3,1.6L-32,362
	c-0.2,3.8-0.3,7.5-0.2,11.3c0,1.4-1.1,2.5-2.4,2.5c-1.1,0-2.1-0.8-2.4-1.9c-0.4-1.8-0.9-3.7-1.3-5.7c-1.2-0.5-1.8-1.8-1.3-3
	L-39.2,363.7z"/>
<path class="st9" d="M276.9,578c-20.7-21.6-50.7-68.6-41.7-154.6c0.3-1.1,1.4-1.7,2.4-1.5c0.7,0.2,1.3,0.7,1.5,1.5
	c2.6,25.3,6.9,50.5,12.9,75.2c-1.2-23.7,1.8-52.1,12.5-85.5c0.5-1,1.7-1.4,2.7-0.9c0.7,0.3,1.1,1,1.1,1.7c-2.4,23.3-3.3,46.6-2.8,70
	c3.1-22.5,10.7-48.5,25.5-77.8c0.6-0.9,1.9-1.1,2.8-0.5c0.6,0.4,0.9,1.1,0.8,1.9c-5.5,20.2-13.8,55.5-16.7,92.4
	c6.5-24.1,19.2-52,42.5-82.3c0.8-0.8,2.1-0.7,2.8,0c0.5,0.5,0.7,1.3,0.5,2c-11.1,22.9-20.5,46.6-28.3,70.9
	c11.3-20.8,28.8-43.5,55.3-66.4c0.9-0.6,2.2-0.3,2.8,0.6c0.4,0.6,0.4,1.4,0.1,2.1c-14.2,18.6-27.2,38-38.9,58.2
	c14.4-17.6,34.5-35.8,62.4-53c1-0.4,2.2,0,2.6,1c0.3,0.7,0.2,1.5-0.3,2c-25.3,23.9-79.2,79.4-96.6,133.2c-0.2,0.7-0.8,1.2-1.5,1.3
	c0.1,0.7,0.3,1.4,0.5,2c0.2,0.8-0.1,1.6-0.8,2.1v0.1c1.6,2.6,3.2,5.1,4.8,7.5c0.5,1,0.1,2.2-0.9,2.7c-0.6,0.3-1.4,0.3-2-0.1
	c-1.1-1-2.2-2-3.4-3.2c-1,0.2-1.9-0.4-2.2-1.4L276.9,578z"/>
</svg>
