<?xml version="1.0" encoding="utf-8"?>
<!-- Generator: Adobe Illustrator 18.0.0, SVG Export Plug-In . SVG Version: 6.00 Build 0)  -->
<!DOCTYPE svg PUBLIC "-//W3C//DTD SVG 1.1//EN" "http://www.w3.org/Graphics/SVG/1.1/DTD/svg11.dtd">
<svg version="1.1" id="Layer_1" xmlns="http://www.w3.org/2000/svg" xmlns:xlink="http://www.w3.org/1999/xlink" x="0px" y="0px"
	 viewBox="0 0 8777.2 486.6" enable-background="new 0 0 8777.2 486.6" xml:space="preserve">
<g>
	<g>
		<path fill="#3D68A5" d="M624.3,48.5L484.9,364.6l73,88.5c18.4,22.3,53.2,15.2,62.1-12.8l24.5-76.6c8.8-27.4,33.7-45.6,61.4-44.7
			l0,0c12.4,0.4,24.6-3,35.1-9.9l87.7-57.2c7.3-4.8,15.4-7.9,23.9-9.2l165.5-25.8L1137,48.5H624.3z"/>
		<polygon fill="#6C90C1" points="964.8,48.5 918.3,128.9 716.9,185.1 695,209.8 957.5,164.1 1031.4,48.5 		"/>
		<path fill="#24508E" d="M1006.9,86.7l27.3,62.2c11.1,27.9,47.8,31,63.1,5.4l20.6-34.4c9-15,26.8-21.3,42.6-15.2l0,0
			c17.7,6.9,37.5-1.9,45-19.9l15.2-36.3h-188.7L1006.9,86.7z"/>
		<polygon fill="#27579A" points="0,450.3 124,332.5 218.3,486.6 271.6,446 292.1,345.4 357.7,409.6 484.9,364.6 624.3,48.5 0,48.5 
					"/>
		<polygon fill="#6C90C1" points="558.7,48.5 520.5,159.8 582.2,144.1 624.3,48.5 		"/>
		<polygon fill="#3D68A5" points="386.5,48.5 465.8,241.2 520.5,159.8 558.7,48.5 		"/>
	</g>
	<g>
		<path fill="#27579A" d="M3782.4,332.6L4045.8,157c16.9-11.2,36.2-17.2,55.8-17.2l0,0c60,0,108.7-54.2,108.7-121V0l-558.6,16.4
			L3782.4,332.6z"/>
		<path fill="#3D68A5" d="M3651.7,16.4l130.7,316.1L3714,421c-17.3,22.3-49.8,15.2-58.2-12.8l-22.9-76.6
			c-8.2-27.4-31.6-45.6-57.5-44.7h0c-11.6,0.4-23.1-3-32.9-9.9l-82.2-57.2c-6.8-4.8-14.5-7.9-22.4-9.2l-155.2-25.8L3171.1,16.4
			H3651.7z"/>
		<polygon fill="#6C90C1" points="3332.6,16.4 3376.1,96.8 3565,153 3585.5,177.7 3339.4,132 3270.2,16.4 		"/>
		<polygon fill="#6C90C1" points="3713.2,16.4 3749.1,127.8 3691.2,112 3651.7,16.4 		"/>
		<polygon fill="#3D68A5" points="3874.7,16.4 3800.3,209.1 3749.1,127.8 3713.2,16.4 		"/>
	</g>
	<g>
		<path fill="#27579A" d="M6762,332.6L7025.4,157c16.9-11.2,36.2-17.2,55.8-17.2l0,0c60,0,108.7-54.2,108.7-121V0l-558.6,16.4
			L6762,332.6z"/>
		<path fill="#3D68A5" d="M6631.3,16.4L6762,332.6l-68.4,88.5c-17.3,22.3-49.8,15.2-58.2-12.8l-22.9-76.6
			c-8.2-27.4-31.6-45.6-57.5-44.7l0,0c-11.6,0.4-23.1-3-32.9-9.9l-82.2-57.2c-6.8-4.8-14.5-7.9-22.4-9.2l-155.2-25.8L6150.7,16.4
			H6631.3z"/>
		<polygon fill="#6C90C1" points="6312.1,16.4 6355.7,96.8 6544.5,153 6565,177.7 6319,132 6249.7,16.4 		"/>
		<polygon fill="#3D68A5" points="6870.2,48.3 6795.9,240.9 6744.6,159.6 6708.8,48.3 		"/>
	</g>
	<g>
		<path fill="#6C90C1" d="M1764.7,289.2l19.3,30.6c25,39.7,76.8,44,106.9,8.8l0,0c13-15.2,31.2-23.9,50.2-23.9h26.9
			c19.2,0,37.5-8.8,50.5-24.2l3.6-4.3c11.9-14.1,18.5-32.6,18.5-51.8V27.5h-275.9V289.2z"/>
		<polygon fill="#3D68A5" points="1937.3,27.5 1962.9,198.9 2040.6,254.5 2040.6,27.5 		"/>
		<path fill="#27579A" d="M2690.7,20l-149.4,75.8c-20.2,10.3-34.9,29.6-39.8,52.5l-7.8,35.9c-3,14.1-18.1,21.2-30.3,14.4l-14.9-8.4
			c-13.9-7.8-30.8,2.7-30.8,19.2c0,29.7,0.8,84.4-38.3,90.5c-8,1.3-67.6-7.8-68,4.2c0-0.1,9.8-284,9.8-284H2690.7z"/>
		<path fill="#3D68A5" d="M2321.2,289.2l-20.4,30.6c-26.4,39.7-81.1,44-112.8,8.8v0c-13.8-15.2-32.9-23.9-53-23.9h-28.4
			c-20.2,0-39.5-8.8-53.3-24.2l-3.8-4.3c-12.6-14.1-19.5-32.6-19.5-51.8V27.5h291.2V289.2z"/>
		<polygon fill="#6C90C1" points="2092.5,27.5 2077,198.9 2029.9,254.5 2029.9,27.5 		"/>
		<path fill="#3D68A5" d="M1491.8,20l172.6,77.3c5.5,2.5,9.5,7.1,10.9,12.7l13.6,55.6c2.9,12,17.6,18.2,29.4,12.3l16.5-8.2
			c13.5-6.7,29.9,2.3,29.9,16.4v103.9c0,10.4,5.5,20.1,14.7,26v0c16.4,10.6,39.1,6.2,49.5-9.5l32.4-49V20H1491.8z"/>
	</g>
	<g>
		<path fill="#6C90C1" d="M4824,278l19.3,30.6c25,39.7,76.8,44,106.9,8.8v0c13-15.2,31.2-23.9,50.2-23.9h26.9
			c19.2,0,37.5-8.8,50.5-24.2l3.6-4.3c11.9-14.1,18.5-32.6,18.5-51.8V16.2H4824V278z"/>
		<polygon fill="#3D68A5" points="4996.6,16.2 5022.3,187.7 5100,243.2 5100,16.2 		"/>
		<path fill="#27579A" d="M5750,8.8l-149.4,75.8c-20.2,10.3-34.9,29.6-39.8,52.5l-7.8,35.9c-3,14.1-18.1,21.2-30.3,14.4l-14.9-8.4
			c-13.9-7.8-30.8,2.7-30.8,19.2v127.7c0,4.9-2.3,9.4-6.1,12.2l-26.3,19.3c-6.8,5-16.2,2.9-20.5-4.5l-43.6-74.9V8.8H5750z"/>
		<path fill="#3D68A5" d="M5380.5,278l-20.4,30.6c-26.4,39.7-81.1,44-112.8,8.8v0c-13.8-15.2-32.9-23.9-53-23.9h-28.4
			c-20.2,0-39.5-8.8-53.3-24.2l-3.8-4.3c-12.6-14.1-19.5-32.6-19.5-51.8V16.2h291.2V278z"/>
		<polygon fill="#6C90C1" points="5151.9,16.2 5136.3,187.7 5089.3,243.2 5089.3,16.2 		"/>
		<path fill="#3D68A5" d="M4551.1,8.8L4723.8,86c5.5,2.5,9.5,7.1,10.9,12.7l13.6,55.6c2.9,12,17.6,18.2,29.4,12.3l16.5-8.2
			c13.5-6.7,29.9,2.3,29.9,16.4v103.9c0,10.4,5.5,20.1,14.7,26v0c16.4,10.6,39.1,6.2,49.5-9.5l32.4-49V8.8H4551.1z"/>
	</g>
	<g>
		<path fill="#6C90C1" d="M7851.2,278l19.3,30.6c25,39.7,76.8,44,106.9,8.8v0c13-15.2,31.2-23.9,50.2-23.9h26.9
			c19.2,0,37.5-8.8,50.5-24.2l3.6-4.3c11.9-14.1,18.5-32.6,18.5-51.8V16.2h-275.9V278z"/>
		<polygon fill="#3D68A5" points="8023.8,16.2 8049.5,187.7 8127.2,243.2 8127.2,16.2 		"/>
		<path fill="#27579A" d="M8777.2,8.8l-149.4,75.8c-20.2,10.3-34.9,29.6-39.8,52.5l-7.8,35.9c-3,14.1-18.1,21.2-30.3,14.4l-14.9-8.4
			c-13.9-7.8-30.8,2.7-30.8,19.2v127.7c0,4.9-2.3,9.4-6.1,12.2l-26.3,19.3c-6.8,5-16.2,2.9-20.5-4.5l-43.6-74.9V8.8H8777.2z"/>
		<path fill="#3D68A5" d="M8407.7,278l-20.4,30.6c-26.4,39.7-81.1,44-112.8,8.8v0c-13.8-15.2-32.9-23.9-53-23.9h-28.4
			c-20.2,0-39.5-8.8-53.3-24.2l-3.8-4.3c-12.6-14.1-19.5-32.6-19.5-51.8V16.2h291.2V278z"/>
		<polygon fill="#6C90C1" points="8179.1,16.2 8163.5,187.7 8116.5,243.2 8116.5,16.2 		"/>
		<path fill="#3D68A5" d="M7578.3,8.8L7751,86c5.5,2.5,9.5,7.1,10.9,12.7l13.6,55.6c2.9,12,17.6,18.2,29.4,12.3l16.5-8.2
			c13.5-6.7,29.9,2.3,29.9,16.4v103.9c0,10.4,5.5,20.1,14.7,26v0c16.4,10.6,39.1,6.2,49.5-9.5l32.4-49V8.8H7578.3z"/>
	</g>
</g>
<g>
</g>
<g>
</g>
<g>
</g>
<g>
</g>
<g>
</g>
<g>
</g>
<g>
</g>
<g>
</g>
<g>
</g>
<g>
</g>
<g>
</g>
<g>
</g>
<g>
</g>
<g>
</g>
<g>
</g>
</svg>
