<?xml version="1.0" encoding="utf-8"?>
<!-- Generator: Adobe Illustrator 18.0.0, SVG Export Plug-In . SVG Version: 6.00 Build 0)  -->
<!DOCTYPE svg PUBLIC "-//W3C//DTD SVG 1.1//EN" "http://www.w3.org/Graphics/SVG/1.1/DTD/svg11.dtd">
<svg version="1.1" id="Layer_1" xmlns="http://www.w3.org/2000/svg" xmlns:xlink="http://www.w3.org/1999/xlink" x="0px" y="0px"
	 viewBox="0 0 157.2 143.6" enable-background="new 0 0 157.2 143.6" xml:space="preserve">
<g>
	<path fill="#97BB8C" d="M152,59c-2.3-4.3-6.5-7.2-11.4-7.7l-13.8-1.5l6.5-12.2c2.3-4.3,2.3-9.4,0-13.7l0,0
		C121.8,2,94.5-6.4,72.6,5.2L37.5,23.9c-12.6,6.7-20.6,18.6-23.1,31.6l0,0L1.1,97c-4.1,12.9,3.2,26.6,16.2,30.5l41.8,12.4l0,0
		c12.2,5.3,26.5,5.3,39.1-1.4l35.2-18.6C155.2,108.2,163.6,80.9,152,59z"/>
	<path fill="#78B18C" d="M107.4,108.1c0.1-14.1-1.3-28-4.1-41.8c5.1-2.8,10.1-5.6,15.3-8.3c3.8-2-2-9.4-5.1-7.7
		c-2.5,1.3-5,2.7-7.5,4.1c-0.5-0.8-1.1-1.5-1.4-1.8C98,45.8,91,39.6,83.4,33.9c-1.4-1.1-2.9-1.1-3.2,0.7c-0.4,1.9,2.7,4.4,3.9,5.3
		c6.3,4.7,12.1,9.9,17.5,15.6c0.2,0.2,0.5,0.5,0.9,0.9c-6.3,3.4-12.6,6.9-18.8,10.5c-0.1-0.1-0.2-0.2-0.3-0.3
		C73.2,59.2,62.7,52.2,52,45.6c-1.7-1-3.5-0.6-4,1.4c-0.5,2.1,2.2,4.5,3.7,5.4c9,5.5,17.8,11.4,26.4,17.5
		c-5.6,3.3-11.2,6.6-16.8,9.9c-0.3-0.4-0.7-0.8-1.1-1.1c-8-5.6-16.3-10.8-24.9-15.4c-1.7-0.9-3.7-0.7-4,1.4c-0.3,2.2,2,4.5,3.7,5.5
		c7.3,3.9,14.2,8.2,21,12.9c-5.1,3.1-10.2,6.2-15.2,9.4c-3,1.9,3.1,9.1,6.5,6.9c7.4-4.7,14.9-9.3,22.5-13.8c0.2,9,0.4,18,0.7,27
		c0.1,4.4,8.2,7.5,8.1,1.7c-0.3-11.1-0.5-22.3-0.8-33.4c6.2-3.7,12.5-7.3,18.8-10.8c2,11.3,3,22.7,3,34.2
		C99.4,108.4,107.4,113.2,107.4,108.1z"/>
</g>
<g>
</g>
<g>
</g>
<g>
</g>
<g>
</g>
<g>
</g>
<g>
</g>
<g>
</g>
<g>
</g>
<g>
</g>
<g>
</g>
<g>
</g>
<g>
</g>
<g>
</g>
<g>
</g>
<g>
</g>
</svg>
