<?xml version="1.0" encoding="utf-8"?>
<!-- Generator: Adobe Illustrator 18.0.0, SVG Export Plug-In . SVG Version: 6.00 Build 0)  -->
<!DOCTYPE svg PUBLIC "-//W3C//DTD SVG 1.1//EN" "http://www.w3.org/Graphics/SVG/1.1/DTD/svg11.dtd">
<svg version="1.1" id="Layer_1" xmlns="http://www.w3.org/2000/svg" xmlns:xlink="http://www.w3.org/1999/xlink" x="0px" y="0px"
	 viewBox="0 0 8270.7 788.2" enable-background="new 0 0 8270.7 788.2" xml:space="preserve">
<g>
	<g>
		<rect x="922.2" y="458.1" fill="#2B5FA2" width="879.1" height="251.6"/>
		<path fill="#6C90C1" d="M1502.3,400.6l-580.1,57.5V504h796.7h82.4v-60.3c0-23.9-18.6-43.3-41.4-43.3h-253.6
			C1505,400.4,1503.6,400.4,1502.3,400.6z"/>
		<polygon fill="#27579A" points="1213.4,504 1169.4,504 1169.4,708 1315.1,709.6 1315.1,504 		"/>
	</g>
	<polygon fill="#27579A" points="1543.4,504 1801.3,686.8 1801.3,504 	"/>
</g>
<g>
	<g>
		<rect x="5503.9" y="458.1" fill="#2B5FA2" width="879.1" height="251.6"/>
		<path fill="#6C90C1" d="M6084,400.6l-580.1,57.5V504h796.7h82.4v-60.3c0-23.9-18.6-43.3-41.4-43.3h-253.6
			C6086.6,400.4,6085.3,400.4,6084,400.6z"/>
		<polygon fill="#27579A" points="5795,504 5751,504 5751,708 5896.8,709.6 5896.8,504 		"/>
	</g>
	<polygon fill="#27579A" points="6125,504 6383,686.8 6383,504 	"/>
</g>
<g>
	<g>
		<rect x="2427.9" y="436.1" fill="#2B5FA2" width="930.8" height="251.6"/>
		<path fill="#6C90C1" d="M2744.4,378.6l614.2,57.5V482h-843.5h-87.2v-60.3c0-23.9,19.6-43.3,43.9-43.3h268.5
			C2741.7,378.4,2743,378.4,2744.4,378.6z"/>
		<polygon fill="#27579A" points="3050.4,482 3097,482 3097,686 2942.6,687.6 2942.6,482 		"/>
	</g>
	<polygon fill="#27579A" points="2701,482 2427.9,664.8 2427.9,482 	"/>
</g>
<g>
	<g>
		<rect x="3916" y="436.1" fill="#2B5FA2" width="930.8" height="251.6"/>
		<path fill="#6C90C1" d="M4232.5,378.6l614.2,57.5V482h-843.5H3916v-60.3c0-23.9,19.6-43.3,43.9-43.3h268.5
			C4229.8,378.4,4231.2,378.4,4232.5,378.6z"/>
		<polygon fill="#27579A" points="4538.5,482 4585.1,482 4585.1,686 4430.8,687.6 4430.8,482 		"/>
	</g>
	<polygon fill="#27579A" points="4189.1,482 3916,664.8 3916,482 	"/>
</g>
<path fill="#1F4777" d="M3412,455.3l104.3-339.7c9.8-32,35.1-54.7,64.8-58.3l102.4-12.4c12.8-1.5,25.7,0.5,37.5,6.1l128.4,59.6
	l-41.5,120.3l30.6,55.6l-48.1,11.7L3767.1,415l118.1,115.4v153.9h-477.5V484C3407.7,474.2,3409.2,464.5,3412,455.3z"/>
<polygon fill="#3D68A5" points="3849.4,110.6 3885.2,298.2 3885.2,530.4 3767.1,415 3790.4,298.2 3838.5,286.5 3807.9,230.8 "/>
<polygon fill="#25334F" points="3622.7,680.4 3680.4,590.1 3823.1,513.9 3855,680.4 "/>
<g>
	<polygon fill="#6C90C1" points="3632.2,350.1 3573.9,407.3 3632.2,465.5 3689,407.8 	"/>
	<polygon fill="#3D68A5" points="3573.9,407.3 3573.9,620 3631.5,620 3631.5,465.5 	"/>
	<polygon fill="#2B5FA2" points="3631.5,465.5 3689,407.8 3687.9,620 3631.5,620 	"/>
	<rect x="3501.8" y="513.9" fill="#5676AE" width="50.8" height="53"/>
	<polygon fill="#27579A" points="3552.6,513.9 3582.2,544.1 3582.2,590.8 3552.6,566.9 	"/>
	<polygon fill="#7A9BC5" points="3501.8,566.9 3533,592.2 3582.2,590.8 3552.6,566.9 	"/>
	<rect x="3720.4" y="480" fill="#2B5FA2" width="35.9" height="37.4"/>
	<polygon fill="#3869AA" points="3720.4,480 3680.4,517.4 3680.4,548.6 3720.4,517.4 	"/>
	<polygon fill="#2A5398" points="3756.3,517.4 3727.8,544.1 3680.4,548.6 3720.4,517.4 	"/>
</g>
<polygon fill="#27579A" points="3479.9,640.9 3648,607.3 3813.1,452.4 3786.1,610.5 3708.2,640.9 3798.5,680.4 3487.1,680.4 "/>
<polygon fill="#1F4777" points="3813.1,452.4 3913.8,523.9 3883.7,645.2 3930.4,680.4 3798.5,680.4 3708.2,640.9 3786.1,610.5 "/>
<polygon fill="#1F4777" points="3913.8,523.9 4014.5,482.1 4180.5,660.1 4180.5,680.4 3917.1,680.4 3883.7,645.2 "/>
<g>
	<polygon fill="#25334F" points="5101.7,680.4 5159.3,590.1 5302,513.9 5333.9,680.4 	"/>
	<polygon fill="#1F4777" points="4915.9,635.2 4927.3,335.6 5042.7,111.2 5158.2,0 5222.1,0 5350,491.3 5259.5,680.4 4907.8,680.4 	
		"/>
	<polygon fill="#3D68A5" points="4927.3,335.6 5067.6,235.4 5117.4,96.4 5200.8,74.2 5230.8,33.4 5222.1,0 5158.2,0 5042.7,111.2 	
		"/>
	<polygon fill="#17386B" points="5260.7,148 5230.8,254 5284.3,452.4 5151.1,605 4916.8,611.9 4907.8,680.4 5259.5,680.4 
		5350,491.3 	"/>
	<g>
		<polygon fill="#6C90C1" points="5111.2,350.1 5052.9,407.3 5111.2,465.5 5168,407.8 		"/>
		<polygon fill="#3D68A5" points="5052.9,407.3 5052.9,620 5110.4,620 5110.4,465.5 		"/>
		<polygon fill="#2B5FA2" points="5110.4,465.5 5168,407.8 5166.9,620 5110.4,620 		"/>
		<rect x="4980.8" y="513.9" fill="#5676AE" width="50.8" height="53"/>
		<polygon fill="#27579A" points="5031.6,513.9 5061.1,544.1 5061.1,590.8 5031.6,566.9 		"/>
		<polygon fill="#7A9BC5" points="4980.8,566.9 5012,592.2 5061.1,590.8 5031.6,566.9 		"/>
		<rect x="5199.4" y="480" fill="#2B5FA2" width="35.9" height="37.4"/>
		<polygon fill="#3869AA" points="5199.4,480 5159.4,517.4 5159.4,548.6 5199.4,517.4 		"/>
		<polygon fill="#2A5398" points="5235.2,517.4 5206.8,544.1 5159.4,548.6 5199.4,517.4 		"/>
	</g>
	<polygon fill="#27579A" points="4958.8,640.9 5127,607.3 5292,452.4 5265,610.5 5187.2,640.9 5277.5,680.4 4966.1,680.4 	"/>
	<polygon fill="#1F4777" points="5292,452.4 5392.7,523.9 5362.6,645.2 5409.3,680.4 5277.5,680.4 5187.2,640.9 5265,610.5 	"/>
	<polygon fill="#1F4777" points="5392.7,523.9 5493.4,482.1 5654.6,660.1 5654.6,680.4 5396.1,680.4 5362.6,645.2 	"/>
</g>
<path fill="#1F4777" d="M4347.5,680.4l169.7-179.6c39.4-41.6,99.2-35.3,132,14v0c31.2,46.8,87.2,55.3,126.9,19.1l50.3-45.9
	c39-35.6,93.9-28.1,125.5,17.1l122.6,175.4H4347.5z"/>
<path fill="#1F4777" d="M294.3,423.2L410.8,73.3c11-32.9,39.2-56.3,72.4-60L597.6,0.5c14.3-1.6,28.7,0.6,41.9,6.2l143.4,61.4
	L736.6,192l34.2,57.3L717,261.4L691,381.7l131.9,118.9v158.5H289.5V452.8C289.5,442.7,291.2,432.7,294.3,423.2z"/>
<polygon fill="#3D68A5" points="782.9,68.1 822.9,261.3 822.9,500.6 691,381.7 717,261.4 770.8,249.3 736.6,192 "/>
<polygon fill="#161934" points="432.7,586.8 594.8,511.9 576.9,586.8 622.9,659.4 588.1,680.4 432.7,680.4 "/>
<polygon fill="#204883" points="641.6,680.4 699.3,590.1 842,513.9 873.9,680.4 "/>
<path fill="#27579A" d="M842,513.9l117.8,19.7l76.4-25.7c18.1-6.1,37.6,2.8,45.7,20.7l68.5,151.9H873.9L842,513.9z"/>
<polygon fill="#204883" points="0,586.8 162.2,511.9 144.2,586.8 190.2,659.4 155.4,680.4 0,680.4 "/>
<polygon fill="#27579A" points="162.2,511.9 259.7,568.1 304.5,625.4 304.5,680.4 155.4,680.4 113.4,610.8 "/>
<polygon fill="#204883" points="159,680.4 229.8,584.1 404.9,502.8 444.1,680.4 "/>
<polygon fill="#27579A" points="404.9,502.8 549.5,523.8 682,485 783.4,680.4 444.1,680.4 "/>
<path fill="#1F4777" d="M1539.3,680.4l99.8-105.6c23.1-24.5,58.3-20.8,77.6,8.2l0,0c18.4,27.5,51.3,32.5,74.6,11.2l29.6-27
	c22.9-20.9,55.2-16.5,73.8,10l72.1,103.1H1539.3z"/>
<g>
	<polygon fill="#3D68A5" points="2380.8,749.3 2546.2,716.2 2708.5,563.9 2681.9,719.4 2605.4,749.3 2694.2,788.2 2388,788.2 	"/>
	<polygon fill="#6C90C1" points="2708.5,563.9 2807.5,634.2 2777.9,753.5 2823.8,788.2 2694.2,788.2 2605.4,749.3 2681.9,719.4 	"/>
	<polygon fill="#3D68A5" points="2807.5,634.2 2906.5,593.2 3065,768.2 3065,788.2 2810.8,788.2 2777.9,753.5 	"/>
	<path fill="#1F4777" d="M2975.9,722.3l117.6-124.5c27.3-28.9,68.7-24.5,91.5,9.7v0c21.7,32.5,60.5,38.3,87.9,13.2l34.9-31.8
		c27-24.7,65.1-19.5,87,11.8l85,121.6H2975.9z"/>
</g>
<g>
	<polygon fill="#3D68A5" points="5518.1,680.5 5683.4,647.5 5845.7,495.1 5819.2,650.7 5742.6,680.5 5831.4,719.4 5525.2,719.4 	"/>
	<polygon fill="#6C90C1" points="5845.7,495.1 5944.7,565.4 5915.1,684.8 5961.1,719.4 5831.4,719.4 5742.6,680.5 5819.2,650.7 	"/>
	<polygon fill="#3D68A5" points="5944.7,565.4 6043.8,524.4 6202.2,699.4 6202.2,719.4 5948.1,719.4 5915.1,684.8 	"/>
	<path fill="#1F4777" d="M6113.1,696.4l117.6-124.5c27.3-28.9,68.7-24.5,91.5,9.7v0c21.7,32.5,60.5,38.3,87.9,13.2l34.9-31.8
		c27-24.7,65.1-19.5,87,11.8l85,121.6H6113.1z"/>
</g>
<g>
	<polygon fill="#25334F" points="6755.2,680.4 6812.9,590.1 6955.6,513.9 6987.5,680.4 	"/>
	<polygon fill="#1F4777" points="6569.5,635.2 6580.9,335.6 6696.3,111.2 6811.8,0 6875.7,0 7003.6,491.3 6913,680.4 6561.3,680.4 	
		"/>
	<polygon fill="#3D68A5" points="6580.9,335.6 6721.2,235.4 6770.9,96.4 6854.4,74.2 6884.4,33.4 6875.7,0 6811.8,0 6696.3,111.2 	
		"/>
	<polygon fill="#17386B" points="6914.2,148 6884.4,254 6937.9,452.4 6804.7,605 6570.4,611.9 6561.3,680.4 6913,680.4 
		7003.6,491.3 	"/>
	<g>
		<polygon fill="#6C90C1" points="6764.7,350.1 6706.5,407.3 6764.7,465.5 6821.5,407.8 		"/>
		<polygon fill="#3D68A5" points="6706.5,407.3 6706.5,620 6764,620 6764,465.5 		"/>
		<polygon fill="#2B5FA2" points="6764,465.5 6821.5,407.8 6820.4,620 6764,620 		"/>
		<rect x="6634.3" y="513.9" fill="#5676AE" width="50.8" height="53"/>
		<polygon fill="#27579A" points="6685.2,513.9 6714.7,544.1 6714.7,590.8 6685.2,566.9 		"/>
		<polygon fill="#7A9BC5" points="6634.3,566.9 6665.6,592.2 6714.7,590.8 6685.2,566.9 		"/>
		<rect x="6852.9" y="480" fill="#2B5FA2" width="35.9" height="37.4"/>
		<polygon fill="#3869AA" points="6852.9,480 6813,517.4 6813,548.6 6852.9,517.4 		"/>
		<polygon fill="#2A5398" points="6888.8,517.4 6860.3,544.1 6813,548.6 6852.9,517.4 		"/>
	</g>
	<polygon fill="#27579A" points="6612.4,640.9 6780.5,607.3 6945.6,452.4 6918.6,610.5 6840.7,640.9 6931.1,680.4 6619.6,680.4 	"/>
	<polygon fill="#1F4777" points="6945.6,452.4 7046.3,523.9 7016.2,645.2 7062.9,680.4 6931.1,680.4 6840.7,640.9 6918.6,610.5 	"/>
	<polygon fill="#1F4777" points="7046.3,523.9 7147,482.1 7308.1,660.1 7308.1,680.4 7049.7,680.4 7016.2,645.2 	"/>
</g>
<g>
	<polygon fill="#3D68A5" points="7171.6,680.5 7337,647.5 7499.3,495.1 7472.8,650.7 7396.2,680.5 7485,719.4 7178.8,719.4 	"/>
	<polygon fill="#6C90C1" points="7499.3,495.1 7598.3,565.4 7568.7,684.8 7614.6,719.4 7485,719.4 7396.2,680.5 7472.8,650.7 	"/>
	<polygon fill="#3D68A5" points="7598.3,565.4 7697.3,524.4 7855.8,699.4 7855.8,719.4 7601.6,719.4 7568.7,684.8 	"/>
	<path fill="#1F4777" d="M7766.7,696.4l117.6-124.5c27.3-28.9,68.7-24.5,91.5,9.7v0c21.7,32.5,60.5,38.3,87.9,13.2l34.9-31.8
		c27-24.7,65.1-19.5,87,11.8l85,121.6H7766.7z"/>
</g>
<g>
	<polygon fill="#25334F" points="2038,680.4 2095.6,590.1 2238.4,513.9 2270.3,680.4 	"/>
	<polygon fill="#1F4777" points="1852.2,635.2 1863.6,335.6 1979.1,111.2 2094.5,0 2158.5,0 2286.3,491.3 2195.8,680.4 
		1844.1,680.4 	"/>
	<polygon fill="#3D68A5" points="1863.6,335.6 2003.9,235.4 2053.7,96.4 2137.1,74.2 2167.2,33.4 2158.5,0 2094.5,0 1979.1,111.2 	
		"/>
	<polygon fill="#17386B" points="2197,148 2167.2,254 2220.6,452.4 2087.4,605 1853.1,611.9 1844.1,680.4 2195.8,680.4 
		2286.3,491.3 	"/>
	<g>
		<polygon fill="#6C90C1" points="2047.5,350.1 1989.2,407.3 2047.5,465.5 2104.3,407.8 		"/>
		<polygon fill="#3D68A5" points="1989.2,407.3 1989.2,641.1 2046.7,620 2046.7,465.5 		"/>
		<polygon fill="#2B5FA2" points="2046.7,465.5 2104.3,407.8 2103.2,620 2046.7,620 		"/>
		<rect x="1917.1" y="513.9" fill="#5676AE" width="50.8" height="53"/>
		<polygon fill="#27579A" points="1967.9,513.9 1997.4,544.1 1997.4,590.8 1967.9,566.9 		"/>
		<polygon fill="#7A9BC5" points="1917.1,566.9 1948.3,592.2 1997.4,590.8 1967.9,566.9 		"/>
		<rect x="2135.7" y="480" fill="#2B5FA2" width="35.9" height="37.4"/>
		<polygon fill="#3869AA" points="2135.7,480 2095.7,517.4 2095.7,548.6 2135.7,517.4 		"/>
		<polygon fill="#2A5398" points="2171.6,517.4 2143.1,544.1 2095.7,548.6 2135.7,517.4 		"/>
	</g>
	<polygon fill="#27579A" points="1863.6,680.4 2063.3,607.3 2228.3,452.4 2201.3,610.5 2123.5,640.9 2213.8,680.4 1902.4,680.4 	"/>
	<polygon fill="#1F4777" points="2228.3,452.4 2329,523.9 2298.9,645.2 2345.6,680.4 2213.8,680.4 2123.5,640.9 2201.3,610.5 	"/>
	<polygon fill="#1F4777" points="2329,523.9 2429.7,482.1 2590.9,660.1 2590.9,680.4 2332.4,680.4 2298.9,645.2 	"/>
</g>
<g>
</g>
<g>
</g>
<g>
</g>
<g>
</g>
<g>
</g>
<g>
</g>
<g>
</g>
<g>
</g>
<g>
</g>
<g>
</g>
<g>
</g>
<g>
</g>
<g>
</g>
<g>
</g>
<g>
</g>
</svg>
