<svg xmlns="http://www.w3.org/2000/svg" viewBox="0 0 90.9 90.9"><title>stock</title><g id="圖層_5" data-name="圖層 5"><path d="M40.4,21.51a1.87,1.87,0,0,0,1.76,2h6.58a1.87,1.87,0,0,0,1.76-2h0a1.87,1.87,0,0,0-1.76-2H42.16a1.87,1.87,0,0,0-1.76,2Z" style="fill:#d7d7d8"/><path d="M16.73,67.87a3.18,3.18,0,0,0,3,3.33l51.76-.05a3.18,3.18,0,0,0,3-3.34l0-42.15a3.17,3.17,0,0,0-3-3.33l-51.76.05a3.18,3.18,0,0,0-3,3.34Z" style="fill:#d7d7d8"/><path d="M18.93,66.26a2.93,2.93,0,0,0,2.76,3.08l47.81,0a2.93,2.93,0,0,0,2.75-3.09l0-38.93a2.93,2.93,0,0,0-2.76-3.08l-47.81,0a2.93,2.93,0,0,0-2.75,3.09Z" style="fill:#eeebec"/><rect x="60.29" y="41.23" width="5.28" height="22.37" transform="translate(-0.05 0.07) rotate(-0.06)" style="fill:#c8c7c7"/><rect x="53.39" y="45.82" width="5.28" height="17.79" transform="translate(-0.06 0.06) rotate(-0.06)" style="fill:#c8c7c7"/><rect x="46.5" y="52.43" width="5.28" height="11.19" transform="translate(-0.06 0.05) rotate(-0.06)" style="fill:#c8c7c7"/><rect x="39.6" y="55.09" width="5.28" height="8.54" transform="translate(-0.06 0.04) rotate(-0.06)" style="fill:#c8c7c7"/><rect x="32.7" y="58.4" width="5.28" height="5.23" transform="translate(-0.06 0.04) rotate(-0.06)" style="fill:#c8c7c7"/><rect x="25.8" y="61.02" width="5.28" height="2.61" transform="translate(-0.06 0.03) rotate(-0.06)" style="fill:#c8c7c7"/><rect x="23.39" y="65.53" width="45.92" height="1.23" transform="translate(-0.07 0.05) rotate(-0.06)" style="fill:#c4c6c8"/><path d="M23.17,56.18a1,1,0,0,1-.94-.82,1.09,1.09,0,0,1,.71-1.3C44,48.32,58.86,39.6,63.58,30.13a3.46,3.46,0,0,1,.25-.45.9.9,0,0,1,1.35-.18A1.17,1.17,0,0,1,65.36,31l-.1.2C62.34,37.05,53,48.1,23.4,56.15A.85.85,0,0,1,23.17,56.18Z" style="fill:#a4a4a5"/><rect x="68.3" y="26.93" width="1.1" height="39.19" transform="translate(-0.05 0.07) rotate(-0.06)" style="fill:#c4c6c8"/><path d="M66.08,35.37a.71.71,0,0,1-.67-.61l-.76-4.31L60.45,31.7a.68.68,0,0,1-.83-.54.77.77,0,0,1,.48-.93L65,28.77a.62.62,0,0,1,.54.09.77.77,0,0,1,.31.5l.9,5.1a.76.76,0,0,1-.54.89Z" style="fill:#a4a4a5"/></g></svg>