<?xml version="1.0" encoding="utf-8"?>
<!-- Generator: Adobe Illustrator 18.0.0, SVG Export Plug-In . SVG Version: 6.00 Build 0)  -->
<!DOCTYPE svg PUBLIC "-//W3C//DTD SVG 1.1//EN" "http://www.w3.org/Graphics/SVG/1.1/DTD/svg11.dtd">
<svg version="1.1" id="Layer_1" xmlns="http://www.w3.org/2000/svg" xmlns:xlink="http://www.w3.org/1999/xlink" x="0px" y="0px"
	 viewBox="0 0 498 239.1" enable-background="new 0 0 498 239.1" xml:space="preserve">
<g>
	<path fill="#FFFFFF" d="M427.7,198.2H70.3C31.6,198.2,0,166.5,0,127.9l0-57.6C0,31.6,31.6,0,70.3,0l357.4,0
		C466.4,0,498,31.6,498,70.3v57.6C498,166.5,466.4,198.2,427.7,198.2z"/>
	<g>
		<path fill="#757679" d="M85.2,78.3h-6.9V81h-4V49.7h10.9V78.3z M81.3,74.4V53.5h-2.9v20.9H81.3z M91.9,77
			c-0.7,2.9-1.5,5.5-2.6,7.7l-3.8-1.4c1.1-1.9,2-4.4,2.8-7.3L91.9,77z M109.2,47.9v15.3h-8.8v2.3h8.7V69h-8.7v2.4h10.1v3.7H86.3
			v-3.7h10V69h-8.8v-3.5h8.8v-2.3h-8.8V47.9H109.2z M96.7,51.4h-5.5v8.2h5.5V51.4z M95.9,58.1l-2.4,0.6c-0.3-1.9-0.8-3.7-1.3-5.4
			l2.4-0.8C95.1,54.1,95.5,56,95.9,58.1z M98.2,83.9l-3.7,0.9c-0.4-2.8-0.8-5.3-1.4-7.5l3.5-0.7C97.2,78.9,97.7,81.3,98.2,83.9z
			 M104.6,83.8l-3.7,0.9c-0.5-2.9-1.2-5.4-1.9-7.5l3.5-0.7C103.2,78.7,103.9,81.1,104.6,83.8z M105.5,51.4h-5.4v8.2h5.4V51.4z
			 M104.6,53.1c-0.4,2.1-0.9,4-1.5,5.6l-2.4-0.9c0.5-1.4,1-3.2,1.4-5.4L104.6,53.1z M111.3,83.1l-3.5,1.6c-0.8-2.9-1.7-5.4-2.7-7.7
			l3.4-1.1C109.5,78.2,110.5,80.6,111.3,83.1z"/>
		<path fill="#757679" d="M126.7,60.9c0,9-1.6,16.6-4.8,23l-3.2-2.9c2.5-5.2,3.8-11.9,3.8-20.1V47.8H155v9.4h-28.3V60.9z
			 M128.9,75.7l-2.8-2.5c1.8-1.4,3.2-3.3,4.1-5.4c-0.5,0.1-1,0.2-1.4,0.3l-1-3.3c3.5-0.5,6.7-1.1,9.5-1.7v3c-1.8,0.5-3.8,1-6,1.5
			l2.4,0.9c-0.2,0.5-0.4,0.9-0.6,1.4h6v-2.2h4.3v2.2h11v3.5h-11V76h13.2v3.6h-13.2v5.3h-4.3v-5.3h-13V76h13v-2.7h-8
			C130.4,74.3,129.7,75,128.9,75.7z M126.7,51.5v2.2h24.1v-2.2H126.7z M137.4,59.8l-1.2,3c-2.6-0.9-5.3-1.6-8.1-2.1l1.4-2.8
			C132.2,58.3,134.8,59,137.4,59.8z M143.2,57.9v8.8h-4.1v-8.8H143.2z M154.8,65.3l-1.3,3.3c-2.8-1.2-5.7-2-8.7-2.6l1.4-2.8
			C149.2,63.7,152,64.4,154.8,65.3z M144.8,59.7c3-0.5,6-1.2,8.8-2l1,3.1c-2.6,0.7-5.6,1.4-8.8,2L144.8,59.7z"/>
		<path fill="#757679" d="M167.6,66.1l-2.9-3.5c2.8-3.4,5.4-8.3,7.5-14.6l4.1,0.9c-0.7,2.1-1.4,4.1-2.2,5.9h8.4v-8.3h4.3v8.3h13.4
			V59h-13.4v9h15.6v4.2h-15.6v12.3h-4.3V72.2h-17.2V68h17.2v-9h-10.3C170.7,61.7,169.2,64.1,167.6,66.1z"/>
		<path fill="#757679" d="M232.9,64.5c0,4-1.9,7.1-5.6,9.1l-1.4-2.3c2.5-1.5,3.8-3.4,4-5.7c-0.2,0-0.5,0.1-0.8,0.1
			c-0.9,0-1.6-0.3-2.3-0.9s-0.9-1.3-0.9-2.2c0-0.9,0.3-1.7,0.9-2.3c0.6-0.6,1.4-0.9,2.3-0.9C231.7,59.4,232.9,61.1,232.9,64.5z"/>
		<path fill="#757679" d="M293.5,67.8c-0.1,8.1-0.6,13-1.6,14.5c-1.1,1.6-2.9,2.4-5.5,2.4c-1.2,0-2.5-0.1-4.1-0.2l-1.1-4
			c1.7,0.1,3.1,0.2,4.2,0.3c1.6,0,2.7-0.6,3.1-1.6c0.4-0.9,0.7-3.5,0.7-7.6h-24.6c-1.9,1.9-4,3.5-6.2,5l-2.1-3.8
			c5.9-4,10.3-9.3,13.2-16.2h-10.3v-3.8h6c-0.8-1.2-1.7-2.5-2.8-3.8l3.4-2.1c1.5,1.7,2.6,3.3,3.4,4.6l-1.9,1.4h3.6
			c0.6-2,1.1-4,1.5-6.1l4.2,0.5c-0.4,2-0.9,3.8-1.4,5.6h12.6l-1.5,7.3h4.9l-1.3,7.7H293.5z M267.7,74.6c-1.1,3.4-2.6,6.4-4.5,8.9
			l-3.7-2.4c2-2.3,3.5-4.8,4.3-7.4L267.7,74.6z M267.9,67.8h17.7l0.8-3.9h-15.9C269.7,65.2,268.8,66.5,267.9,67.8z M274.3,81.8
			l-4.1,0.5c-0.2-3.2-0.6-5.6-1.3-7.4l3.6-0.5C273.5,76.2,274,78.6,274.3,81.8z M273.9,56.6c-0.5,1.2-0.9,2.4-1.4,3.5h9.5l0.9-3.5
			H273.9z M281,79.8l-3.9,1.4c-0.6-2.3-1.3-4.5-2.1-6.7l3.3-0.9C279.5,75.8,280.4,77.9,281,79.8z M287.3,78.4l-3.9,1
			c-0.6-2-1.3-4-2.2-5.8l3.4-1.1C285.6,74.1,286.5,76.1,287.3,78.4z"/>
		<path fill="#757679" d="M302.9,67.4l-1.4-4.5c4.2-4.7,7.2-10.2,9.3-16.5l4,1.9c-0.9,2.8-2.1,5.6-3.6,8.2v28.3h-4.3V62.8
			C305.7,64.4,304.3,65.9,302.9,67.4z M328.6,46.7v13h11.2v4.3h-11.2v20.7h-4.4V63.9h-10.3v-4.3h10.3v-13H328.6z"/>
		<path fill="#757679" d="M369.9,49h14.7v3.6h-30.1V64c-0.1,8.4-1.4,15.2-3.8,20.2l-3.3-2.9c1.9-4.2,2.9-10,3-17.4V49h15.3
			c-0.4-0.8-0.8-1.5-1.2-2.1l4.2-0.7C369.1,47.1,369.5,48,369.9,49z M359.3,60c-0.1,3.5-0.9,6.1-2.6,7.9l-2-1.8
			c1.3-1.3,2.1-3.4,2.1-6.1H359.3z M384.6,82.3l-3.4,2.4c-0.6-1-1.2-2-1.9-3c-5.8,1-13.4,1.8-22.6,2.3l-1.1-3.5
			c1.3-0.1,2.4-0.4,3.5-0.7c2.3-1,4.8-2.4,7.5-4.4c-2.8,0.1-5.8,0.2-8.8,0.3l-0.8-3.3c0.9-0.1,1.8-0.4,2.6-0.7c1.6-0.7,3.5-2.3,6-5
			l4,0.9c-1.7,1.9-3.5,3.5-5.4,4.8c2.3-0.1,4.5-0.2,6.8-0.3c1.3-1.1,2.7-2.3,4.1-3.5l3.8,1.9c-5.1,4.2-9.5,7.4-13.3,9.7
			c4.4-0.4,8.2-0.9,11.5-1.5c-0.7-0.9-1.4-1.9-2.1-2.8l3.3-2.1C381,77,383.1,79.8,384.6,82.3z M360.4,55.5v-2.2h3.7v2.2h4.4v3.2
			h-4.8v8.4h-3v-8.4h-5v-3.2H360.4z M367.7,60v3.1c0,0.4,0.2,0.6,0.5,0.6h1.5v2.3h-2.4c-1.4,0-2.1-0.9-2.1-2.7V60H367.7z
			 M375.1,55.5v-2.2h3.7v2.2h5.1v3.2h-5.5v8.4h-3v-8.4H370v-3.2H375.1z M373.9,60c0,3.3-0.6,5.8-1.8,7.5l-2-1.8
			c0.8-1.2,1.2-3.2,1.3-5.7H373.9z M382.5,60v3.9c0,0.5,0.3,0.7,1,0.7h1.6v2.3h-2.6c-1.7,0-2.6-0.9-2.6-2.8V60H382.5z"/>
		<path fill="#757679" d="M394.6,67.4l-1.4-4.6c4.2-4.6,7.4-10.1,9.4-16.4l4,1.9c-1.1,3.2-2.5,6.3-4.2,9.1v27.3h-4.3V63.4
			C397,64.8,395.8,66.1,394.6,67.4z M407.4,63.5l-3.7-2.3c3-4.6,5.2-9.4,6.4-14.6l4,0.9c-0.3,1.2-0.7,2.5-1.1,3.7h17.2V54
			c-0.6,2.5-1.4,4.9-2.3,7.3l-4.1-1.2c0.8-1.4,1.5-3,2.1-4.8h-14.2C410.3,58.3,408.9,61.1,407.4,63.5z M413.3,64.5
			c-1.4,5.6-3.3,10.6-5.5,14.8l-4-1.4c2.1-3.8,4-8.6,5.7-14.4L413.3,64.5z M410.9,84.4l-0.9-4c1.6,0.2,3.3,0.3,4.7,0.3
			c1,0,1.5-0.5,1.5-1.6V58.1h4.2v22c0,2.8-1.4,4.3-4.2,4.3H410.9z M431.3,78.3l-3.8,1.7c-1.5-5.9-3.2-11.2-5-15.8l3.8-1.3
			C428.2,67.8,429.9,72.9,431.3,78.3z"/>
		<path fill="#757679" d="M88.7,143.9h-4.1v-2.1h-6.1v3.3h-4.1v-30h4c0.7-2.2,1.3-4.4,1.6-6.8l4.3,0.6c-0.5,2.2-1.1,4.3-1.8,6.2h6.3
			V143.9z M84.5,126.3v-7.2h-6.1v7.2H84.5z M84.5,137.9v-7.8h-6.1v7.8H84.5z M109.2,141.7c-0.4,2.9-2.4,4.3-5.9,4.3
			c-0.8,0-2.3-0.1-4.4-0.2l-1-3.9c1.8,0.1,3.4,0.2,4.8,0.2c1.5,0,2.3-0.8,2.6-2.4c0.2-2,0.4-8.8,0.5-20.4h-10
			c-1.1,2.5-2.4,4.7-4,6.7l-2.6-3.4c2.7-3.9,4.5-8.6,5.5-14.3l4.2,0.5c-0.4,2.2-0.9,4.3-1.6,6.3h12.5
			C109.8,129.4,109.6,138.3,109.2,141.7z M102.2,133.8l-3.5,2.4c-1.5-2.7-3.6-5.7-6.1-9l3.5-2.2C98.8,128.4,100.8,131.3,102.2,133.8
			z"/>
		<path fill="#757679" d="M120.1,146.6l-3.3-3c3-3.5,4.5-7.9,4.6-13.3v-8.8c-0.8,0.5-1.5,1-2.3,1.5l-2.7-3.3
			c4.7-2.7,8.8-6.6,12.3-11.6l4.3,1c-0.5,0.7-1,1.5-1.5,2.2h14.7v3.1c-1.3,1.4-2.6,2.7-3.9,3.7h8.8v24.4c0,2.4-1.4,3.7-4.2,3.7h-5.5
			l-1.1-4c1.9,0.1,3.7,0.2,5.4,0.2c0.7,0,1.2-0.5,1.2-1.4v-3.8h-22.2C123.8,140.9,122.3,144,120.1,146.6z M125.6,130
			c0,1.2-0.1,2.4-0.2,3.5h8.6v-3.8h-8.3V130z M136.4,118.1c1.3-0.9,2.7-2,4.1-3.2h-11.8c-1,1.1-2.1,2.2-3.1,3.2H136.4z M125.6,122
			v3.9h8.3V122H125.6z M147,122h-8.8v3.9h8.8V122z M147,129.6h-8.8v3.8h8.8V129.6z"/>
		<path fill="#757679" d="M170.9,121.5h19.3v3.6h-19.3v2.3h25.4v4h-26.3v10.5c3.3-0.7,6.5-1.6,9.8-2.7l0.7,3.8
			c-4.1,1.4-8.9,2.5-14.2,3.4l-1.7-3.6c0.9-0.4,1.4-0.9,1.4-1.6v-9.8h-5.3v-4h6.1v-18h25.7v4h-21.5v2.3h19.3v3.6h-19.3V121.5z
			 M184.8,136.5c2.3-1.1,4.5-2.6,6.6-4.8l2.8,2.8c-1.9,1.8-3.9,3.3-6.1,4.4c2.7,1.8,5.9,3.1,9.5,4l-2.4,3.6
			c-8.2-2.3-14-6.6-17.4-12.8l3.3-1.9C182,133.5,183.3,135.1,184.8,136.5z"/>
		<path fill="#757679" d="M215.2,110c-2.2,4.4-6,8.5-11.4,12.1l-1.3-4.2c4.1-2.8,7.2-6,9.1-9.7L215.2,110z M203.9,133.4l-1.3-4.1
			c4.1-3,7.1-6.6,9.1-10.6l3.7,1.7c-0.9,2-2.1,3.8-3.5,5.6v20.5h-4.2v-16.1C206.6,131.4,205.3,132.4,203.9,133.4z M239.7,125.6v3.7
			h-4.6v2.3h5.5v3.7h-5.5v6.8c0,2.6-1.4,4-4.2,4h-4.5l-0.9-4c1.4,0.2,2.7,0.3,3.9,0.3c0.9,0,1.4-0.5,1.4-1.3v-5.8h-16.7v-3.7h16.7
			v-2.3h-15.3v-3.7H239.7z M237.5,109.6v13.9h-20.2v-13.9H237.5z M225.9,141.7l-3.3,2.2c-1.2-1.8-2.8-3.8-4.9-6l3.1-2.2
			C223,137.9,224.7,140,225.9,141.7z M233.4,114.9v-2h-12.1v2H233.4z M233.4,118.1h-12.1v2h12.1V118.1z"/>
		<path fill="#757679" d="M252.5,119v-5.1h-5.3v-4.1h18.2c0,16.4-0.2,26.5-0.6,30.4c-0.4,3.8-2.4,5.7-6,5.7c-0.7,0-2-0.1-3.7-0.2
			l-1.1-3.9c1.6,0.2,2.9,0.2,4.1,0.2c1.6,0,2.5-1.2,2.8-3.5c0.1-1,0.2-3,0.2-6h-5.4c-1.2,5.9-3.3,10.5-6.6,13.8l-3.2-2.8
			c2.8-2.7,4.7-6.3,5.7-11h-4.4v-4h5c0.2-1.6,0.2-3.3,0.3-5V123h-5.3v-4H252.5z M261.1,123h-4.7v0.3c0,1.8-0.1,3.5-0.2,5h4.9
			C261.1,126.7,261.1,124.9,261.1,123z M261.2,113.9h-4.7v5.1h4.7C261.2,117.3,261.2,115.6,261.2,113.9z M283.2,109.8v3.3
			c-1.3,4.2-2.8,8.1-4.4,11.6c3.2,3.7,4.8,6.7,4.8,9.1c0,2.9-0.6,4.9-1.6,5.9c-1.2,1.2-3.5,1.7-7.1,1.7l-1.3-4.5
			c1.6,0.2,3,0.3,4.1,0.3c0.7,0,1.2-0.3,1.4-0.7c0.2-0.4,0.3-1.2,0.4-2.6c0-2.3-1.7-5.4-5.1-9.1c1.4-3,2.8-6.7,4.2-10.9h-6.2v32.7
			h-4.2v-36.7H283.2z"/>
		<path fill="#757679" d="M311.3,110.7H326v3.6h-30.1v11.4c-0.1,8.4-1.4,15.2-3.8,20.2l-3.3-2.9c1.9-4.2,2.9-10,3-17.4v-15h15.3
			c-0.4-0.8-0.8-1.5-1.2-2.1l4.2-0.7C310.5,108.8,310.9,109.7,311.3,110.7z M300.7,121.7c-0.1,3.5-0.9,6.1-2.6,7.9l-2-1.8
			c1.3-1.3,2.1-3.4,2.1-6.1H300.7z M326,144l-3.4,2.4c-0.6-1-1.2-2-1.9-3c-5.8,1-13.4,1.8-22.6,2.3l-1.1-3.5
			c1.3-0.1,2.4-0.4,3.5-0.7c2.3-1,4.8-2.4,7.5-4.4c-2.8,0.1-5.8,0.2-8.8,0.3l-0.8-3.3c0.9-0.1,1.8-0.4,2.6-0.7c1.6-0.7,3.5-2.3,6-5
			l4,0.9c-1.7,1.9-3.5,3.5-5.4,4.8c2.3-0.1,4.5-0.2,6.8-0.3c1.3-1.1,2.7-2.3,4.1-3.5l3.8,1.9c-5.1,4.2-9.5,7.4-13.3,9.7
			c4.4-0.4,8.2-0.9,11.5-1.5c-0.7-0.9-1.4-1.9-2.1-2.8l3.3-2.1C322.4,138.7,324.5,141.6,326,144z M301.8,117.3v-2.2h3.7v2.2h4.4v3.2
			h-4.8v8.4h-3v-8.4h-5v-3.2H301.8z M309.1,121.7v3.1c0,0.4,0.2,0.6,0.5,0.6h1.5v2.3h-2.4c-1.4,0-2.1-0.9-2.1-2.7v-3.4H309.1z
			 M316.5,117.3v-2.2h3.7v2.2h5.1v3.2h-5.5v8.4h-3v-8.4h-5.4v-3.2H316.5z M315.3,121.7c0,3.3-0.6,5.8-1.8,7.5l-2-1.8
			c0.8-1.2,1.2-3.2,1.3-5.7H315.3z M323.9,121.8v3.9c0,0.5,0.3,0.7,1,0.7h1.6v2.3h-2.6c-1.7,0-2.6-0.9-2.6-2.8v-4.1H323.9z"/>
		<path fill="#757679" d="M343.8,121.5h19.3v3.6h-19.3v2.3h25.4v4h-26.3v10.5c3.3-0.7,6.5-1.6,9.8-2.7l0.7,3.8
			c-4.1,1.4-8.9,2.5-14.2,3.4l-1.7-3.6c0.9-0.4,1.4-0.9,1.4-1.6v-9.8h-5.3v-4h6.1v-18h25.7v4h-21.5v2.3h19.3v3.6h-19.3V121.5z
			 M357.7,136.5c2.3-1.1,4.5-2.6,6.6-4.8l2.8,2.8c-1.9,1.8-3.9,3.3-6.1,4.4c2.7,1.8,5.9,3.1,9.5,4l-2.4,3.6
			c-8.2-2.3-14-6.6-17.4-12.8l3.3-1.9C354.9,133.5,356.2,135.1,357.7,136.5z"/>
		<path fill="#757679" d="M401.8,114.4c1.6,1.4,2.5,3.4,2.5,5.9c0,2.1-0.5,3.7-1.5,5.1c-0.4,0.4-1.6,1.5-3.5,3.3
			c-0.7,0.6-1.3,1.3-1.6,2c-0.4,0.8-0.6,1.7-0.6,2.7v0.6h-4.7v-0.6c0-1.6,0.2-2.9,0.8-4c0.5-1.1,1.5-2.3,2.8-3.5
			c1.3-1.2,2.1-2,2.5-2.3c0.7-0.9,1.1-1.9,1.1-2.9c0-1.4-0.4-2.4-1.2-3.2c-0.8-0.8-1.9-1.2-3.3-1.2c-1.8,0-3,0.5-3.9,1.6
			c-0.7,0.9-1,2.3-1,4.1h-4.7c0-3,0.9-5.4,2.7-7.2c1.8-1.7,4.2-2.6,7.2-2.6C398,112.2,400.2,112.9,401.8,114.4z M396.9,136.8
			c0.6,0.6,0.9,1.3,0.9,2.2c0,0.9-0.3,1.7-0.9,2.3c-0.7,0.6-1.4,0.9-2.3,0.9c-0.9,0-1.6-0.3-2.2-0.9c-0.7-0.6-0.9-1.3-0.9-2.2
			c0-0.9,0.3-1.6,0.9-2.2c0.6-0.6,1.3-0.9,2.2-0.9C395.5,135.9,396.3,136.2,396.9,136.8z"/>
	</g>
	<linearGradient id="SVGID_1_" gradientUnits="userSpaceOnUse" x1="73.7431" y1="89.9344" x2="433.1005" y2="89.9344">
		<stop  offset="0" style="stop-color:#B3B5B8"/>
		<stop  offset="1" style="stop-color:#A9ABAE"/>
	</linearGradient>
	<path fill="url(#SVGID_1_)" d="M73.8,88.6c119.8-1.4,239.7,0.4,359.3,5.6c-0.1,0,0.1-2.6,0-2.6c-119.6-5.2-239.5-7-359.3-5.6
		C73.7,86.1,73.8,88.6,73.8,88.6L73.8,88.6z"/>
	<linearGradient id="SVGID_2_" gradientUnits="userSpaceOnUse" x1="75.9942" y1="147.7868" x2="410.4775" y2="147.7868">
		<stop  offset="0" style="stop-color:#B3B5B8"/>
		<stop  offset="1" style="stop-color:#A9ABAE"/>
	</linearGradient>
	<path fill="url(#SVGID_2_)" d="M76,147c111.3,4.1,222.9,5.1,334.4,3.2c0.1,0,0-2.6,0-2.6c-111.5,1.9-223.1,0.9-334.4-3.2
		C76.1,144.4,75.9,147,76,147L76,147z"/>
	<path fill="#FFFFFF" d="M350.2,187c0,0,30.1,44.9,76.8,52.2c0,0-21.5-21.6-13.1-63.7L350.2,187z"/>
</g>
<g>
</g>
<g>
</g>
<g>
</g>
<g>
</g>
<g>
</g>
<g>
</g>
<g>
</g>
<g>
</g>
<g>
</g>
<g>
</g>
<g>
</g>
<g>
</g>
<g>
</g>
<g>
</g>
<g>
</g>
</svg>
