<?xml version="1.0" encoding="utf-8"?>
<!-- Generator: Adobe Illustrator 18.0.0, SVG Export Plug-In . SVG Version: 6.00 Build 0)  -->
<!DOCTYPE svg PUBLIC "-//W3C//DTD SVG 1.1//EN" "http://www.w3.org/Graphics/SVG/1.1/DTD/svg11.dtd">
<svg version="1.1" id="Layer_1" xmlns="http://www.w3.org/2000/svg" xmlns:xlink="http://www.w3.org/1999/xlink" x="0px" y="0px"
	 viewBox="0 0 390.3 221.1" enable-background="new 0 0 390.3 221.1" xml:space="preserve">
<g>
	<path fill="#FFFFFF" d="M303.4,183H86.9C39.1,183,0,143.9,0,96.1l0-9.2C0,39.1,39.1,0,86.9,0l216.4,0c47.8,0,86.9,39.1,86.9,86.9
		v9.2C390.3,143.9,351.2,183,303.4,183z"/>
	<g>
		<path fill="#EA8C38" d="M91.8,63.6c-0.1,7.1-0.5,11.3-1.4,12.7c-0.9,1.4-2.6,2.1-4.8,2.1c-1,0-2.2-0.1-3.6-0.2l-1-3.5
			c1.5,0.1,2.7,0.2,3.7,0.3c1.4,0,2.3-0.5,2.7-1.4c0.4-0.8,0.6-3.1,0.6-6.7H66.6c-1.7,1.7-3.5,3.1-5.4,4.4l-1.9-3.3
			c5.2-3.5,9-8.2,11.5-14.1h-9v-3.3H67c-0.7-1-1.5-2.2-2.4-3.3l3-1.9c1.3,1.5,2.3,2.9,3,4l-1.7,1.2H72c0.5-1.7,0.9-3.5,1.3-5.4
			l3.7,0.5c-0.4,1.7-0.8,3.3-1.2,4.9h11l-1.3,6.4h4.3l-1.2,6.7H91.8z M69.2,69.6c-0.9,3-2.2,5.6-3.9,7.8L62,75.3
			c1.8-2,3-4.2,3.8-6.4L69.2,69.6z M69.5,63.6H85l0.7-3.4H71.8C71,61.3,70.3,62.5,69.5,63.6z M75.1,75.8l-3.6,0.4
			c-0.2-2.8-0.5-4.9-1.1-6.4l3.2-0.4C74.3,71,74.8,73.1,75.1,75.8z M74.7,53.8c-0.4,1.1-0.8,2.1-1.3,3.1h8.3l0.8-3.1H74.7z
			 M80.9,74.1l-3.4,1.3c-0.5-2-1.2-4-1.9-5.8l2.9-0.8C79.6,70.6,80.4,72.4,80.9,74.1z M86.4,72.9L83,73.7c-0.5-1.8-1.2-3.5-1.9-5.1
			l3-1C84.9,69.2,85.7,70.9,86.4,72.9z"/>
		<path fill="#EA8C38" d="M99.1,63.2l-1.2-3.9c3.6-4.1,6.3-8.9,8.1-14.5l3.5,1.7c-0.8,2.5-1.9,4.9-3.2,7.2v24.8h-3.7V59.3
			C101.5,60.6,100.3,61.9,99.1,63.2z M121.5,45.1v11.4h9.8v3.7h-9.8v18.1h-3.9V60.2h-9v-3.7h9V45.1H121.5z"/>
		<path fill="#EA8C38" d="M156.7,47.2h12.8v3.2h-26.3v10c-0.1,7.4-1.2,13.3-3.3,17.7l-2.8-2.5c1.7-3.6,2.5-8.7,2.6-15.2V47.2H153
			c-0.4-0.7-0.7-1.3-1.1-1.8l3.7-0.6C155.9,45.5,156.3,46.3,156.7,47.2z M147.4,56.8c-0.1,3-0.8,5.3-2.3,6.9l-1.8-1.5
			c1.2-1.2,1.8-3,1.9-5.3H147.4z M169.5,76.3l-3,2.1c-0.5-0.9-1.1-1.8-1.7-2.6c-5.1,0.9-11.7,1.5-19.8,2.1l-1-3.1
			c1.1-0.1,2.1-0.3,3-0.6c2-0.9,4.2-2.1,6.6-3.8c-2.4,0.1-5,0.2-7.7,0.3l-0.7-2.9c0.8-0.1,1.5-0.3,2.3-0.6c1.4-0.6,3.1-2,5.3-4.4
			l3.5,0.8c-1.5,1.7-3.1,3-4.7,4.2c2-0.1,4-0.2,6-0.3c1.2-1,2.3-2,3.6-3.1l3.3,1.6c-4.4,3.7-8.3,6.5-11.6,8.5
			c3.8-0.4,7.2-0.8,10.1-1.3c-0.6-0.8-1.2-1.7-1.9-2.4l2.8-1.8C166.3,71.6,168.2,74.1,169.5,76.3z M148.3,52.9V51h3.2v1.9h3.9v2.8
			h-4.2V63h-2.6v-7.3h-4.4v-2.8H148.3z M154.8,56.8v2.7c0,0.4,0.1,0.5,0.5,0.5h1.3v2.1h-2.1c-1.2,0-1.8-0.8-1.8-2.4v-3H154.8z
			 M161.2,52.9V51h3.2v1.9h4.5v2.8h-4.8V63h-2.6v-7.3h-4.8v-2.8H161.2z M160.2,56.8c0,2.9-0.5,5.1-1.5,6.6l-1.8-1.5
			c0.7-1.1,1.1-2.8,1.1-5H160.2z M167.7,56.8v3.4c0,0.4,0.3,0.6,0.9,0.6h1.4v2h-2.3c-1.5,0-2.2-0.8-2.2-2.4v-3.6H167.7z"/>
		<path fill="#EA8C38" d="M209,46.2v3.4h-10.2v2.4h8.1v9.7h-14.6l-1.3,2.3h18.5v3.5H202c-0.7,1.8-1.8,3.3-3.3,4.7
			c3.4,1,6.8,2.2,10.3,3.5l-2.3,3.1c-3.8-1.6-7.6-3-11.3-4.2c-3.4,1.7-8.9,3.1-16.6,4.1l-1.4-3.4c5.5-0.6,9.8-1.4,12.9-2.3
			c-2.7-0.8-5.4-1.5-8-2.1c0.8-1.2,1.5-2.3,2.3-3.4h-8.1v-3.5h10.2c0.4-0.8,0.9-1.5,1.3-2.3h-9v-9.7h8.1v-2.4h-10.2v-3.4H209z
			 M187.1,55.1h-4.5v3.4h4.5V55.1z M198.1,67.4h-9.3c-0.5,0.7-0.9,1.3-1.3,1.9c2.3,0.5,4.7,1,7.1,1.7
			C196.2,69.9,197.4,68.8,198.1,67.4z M195.2,49.6h-4.5v2.4h4.5V49.6z M195.2,55.1h-4.5v3.4h4.5V55.1z M203.3,55.1h-4.5v3.4h4.5
			V55.1z"/>
		<path fill="#EA8C38" d="M248.3,59.5v3.7h-32.7v-3.7H248.3z"/>
		<path fill="#EA8C38" d="M266.4,68.6l-12.1,0.9v-3.7l12.1-0.8V68.6z M265.6,51.3v3.6h-10.4v-3.6H265.6z M277.5,55.8
			c0,2.1-0.1,4-0.3,5.8c2,5.9,5.5,10.6,10.5,14.1l-2.5,2.9c-4-3.2-7-6.9-9.2-11.4c-0.1,0.3-0.2,0.6-0.3,0.9
			c-1.3,4.2-4.5,7.8-9.6,10.6l-2.5-3c4.4-2.4,7.2-5.2,8.5-8.6c1-2.9,1.6-6.6,1.6-11.2H277.5z M267.7,61.7l-3.1-2.2
			c2.7-3.5,4.5-8.4,5.3-14.6l3.7,0.6c-0.3,1.7-0.5,3.2-0.8,4.6h13.9v2.5c-0.8,3.2-1.8,6.4-3,9.5l-3.7-1.1c1-2.1,1.9-4.5,2.6-7.3
			h-10.7C270.7,57.1,269.4,59.8,267.7,61.7z"/>
		<path fill="#EA8C38" d="M322,56.8v16.3h-6.3c3.5,0.6,6.8,1.4,10,2.5l-1.3,3.1c-3.7-1.4-7.5-2.5-11.4-3.3l1.2-2.3h-8.5l1.5,1.9
			c-2.6,1.5-6.3,2.7-11.2,3.7l-1.7-3c4.2-0.7,7.5-1.6,9.9-2.7h-6.1V56.8H322z M323.9,46.2v9.2h-27.9v-9.2H323.9z M304.2,49.2h-4.6
			v3.2h4.6V49.2z M318.3,61.4v-1.7h-16.6v1.7H318.3z M318.3,65.7V64h-16.6v1.7H318.3z M318.3,68.3h-16.6v1.8h16.6V68.3z M312.4,49.2
			h-4.8v3.2h4.8V49.2z M320.3,49.2h-4.5v3.2h4.5V49.2z"/>
		<path fill="#EA8C38" d="M68.5,107.7v2.9c-1.1,1.8-2.4,3.6-3.8,5.4h4.2v2.4c-0.5,2.6-1,4.8-1.7,6.4c0.3,0.2,0.5,0.4,0.8,0.7
			c1.2,1.1,2.2,1.9,3.2,2.3c1,0.4,2.5,0.6,4.5,0.7c1.9,0,4.2,0,6.7,0c2.6,0,5.9-0.1,10.1-0.3l-0.9,3.5h-8.8c-2.4,0-4.9-0.1-7.3-0.1
			c-2.4-0.1-4.3-0.4-5.5-0.9c-1.5-0.6-2.8-1.5-4.1-2.8c-0.3-0.3-0.5-0.4-0.8-0.4c-0.7,0-1.8,1.5-3.3,4.6l-2.7-2.5
			c1.7-3.1,3.2-4.9,4.7-5.5c0.6-1.6,1.2-3.3,1.5-5.2h-5.1v-2.8c1.7-1.9,3.1-3.6,4.1-5.2h-4.7v-3.4H68.5z M68.5,104.3l-2.4,2.4
			c-1.3-1.6-3.1-3.3-5.5-5.2l2.5-2.4C65.2,100.9,67,102.6,68.5,104.3z M78.6,102.3c-0.4-1-0.8-1.9-1.3-2.7l4-0.6
			c0.4,1,0.8,2.1,1.2,3.3h8.9v3.4H70.1v-3.4H78.6z M89.6,117.6v9.4H72.1v-9.4H89.6z M88.7,107.6v3H72.9v-3H88.7z M88.7,112.6v3H72.9
			v-3H88.7z M85.9,120.6H75.8v3.3h10.1V120.6z"/>
		<path fill="#EA8C38" d="M116.4,101.2h12.8v3.2h-26.3v10c-0.1,7.4-1.2,13.3-3.3,17.7l-2.8-2.5c1.7-3.6,2.5-8.7,2.6-15.2v-13.1h13.4
			c-0.4-0.7-0.7-1.3-1.1-1.8l3.7-0.6C115.7,99.5,116,100.3,116.4,101.2z M107.1,110.8c-0.1,3-0.8,5.3-2.3,6.9l-1.8-1.5
			c1.2-1.2,1.8-3,1.9-5.3H107.1z M129.2,130.3l-3,2.1c-0.5-0.9-1.1-1.8-1.7-2.6c-5.1,0.9-11.7,1.5-19.8,2.1l-1-3.1
			c1.1-0.1,2.1-0.3,3-0.6c2-0.9,4.2-2.1,6.6-3.8c-2.4,0.1-5,0.2-7.7,0.3l-0.7-2.9c0.8-0.1,1.5-0.3,2.3-0.6c1.4-0.6,3.1-2,5.3-4.4
			l3.5,0.8c-1.5,1.7-3.1,3-4.7,4.2c2-0.1,4-0.2,6-0.3c1.2-1,2.3-2,3.6-3.1l3.3,1.6c-4.4,3.7-8.3,6.5-11.6,8.5
			c3.8-0.4,7.2-0.8,10.1-1.3c-0.6-0.8-1.2-1.7-1.9-2.4l2.8-1.8C126.1,125.6,127.9,128.1,129.2,130.3z M108.1,106.9V105h3.2v1.9h3.9
			v2.8H111v7.3h-2.6v-7.3H104v-2.8H108.1z M114.5,110.8v2.7c0,0.4,0.1,0.5,0.5,0.5h1.3v2.1h-2.1c-1.2,0-1.8-0.8-1.8-2.4v-3H114.5z
			 M120.9,106.9V105h3.2v1.9h4.5v2.8h-4.8v7.3h-2.6v-7.3h-4.8v-2.8H120.9z M119.9,110.8c0,2.9-0.5,5.1-1.5,6.6l-1.8-1.5
			c0.7-1.1,1.1-2.8,1.1-5H119.9z M127.4,110.8v3.4c0,0.4,0.3,0.6,0.9,0.6h1.4v2h-2.3c-1.5,0-2.2-0.8-2.2-2.4v-3.6H127.4z"/>
		<path fill="#EA8C38" d="M154.1,100.6c-0.4,0.4-0.8,0.9-1.2,1.3h9.3v2.9c-3.9,6.9-11.1,10.8-21.6,11.7l-1.5-3.4
			c2.9-0.1,5.5-0.5,7.8-1.1c-1-1.2-2-2.2-3-3.2l3.2-1.6c1.2,1.1,2.2,2.3,3.3,3.6c3.2-1.3,5.7-3.2,7.5-5.6h-9.3
			c-2.8,1.6-6,2.8-9.8,3.7l-2.2-3.4c6.3-1.2,11.1-3.3,14.2-6.6L154.1,100.6z M154,125.3c3.3-1.5,6-3.5,8.1-6h-9.5
			c-3.1,1.4-6.7,2.6-10.9,3.4l-2.2-3.3c7.8-0.7,13.6-3,17.2-6.9l3.2,1.7c-0.6,0.6-1.2,1.2-1.8,1.7h8.9v2.9
			c-5.2,8.4-14.8,12.8-28.8,13.1l-1.5-3.6c5.3,0,9.9-0.6,13.8-1.7c-1.1-1.4-2.2-2.6-3.3-3.7l3.3-1.6
			C151.7,122.6,152.9,123.9,154,125.3z"/>
		<path fill="#EA8C38" d="M195.8,130.2l-0.9-3.5l2.7,0.2c0.8,0,1.2-0.5,1.2-1.3v-2.8h-7.8v9.6h-3.7v-9.6h-7.8v7.1h-3.7v-10.4h11.5
			v-2.1h-1.8l-0.8-2.8l1.6,0.1c0.5,0,0.8-0.3,0.8-1v-1l-2.3,0.6c-0.3-1.8-0.7-3.4-1.1-5l2-0.7c0.5,1.4,1,3.1,1.4,4.9v-5.8h-3.6v10.1
			h-2.8v-10.1h-3.7v10.5h-3.1v-13.5h2.9c-0.6-1.2-1.4-2.3-2.1-3.3l2.7-1.3c0.7,1.1,1.4,2.3,2.1,3.6l-1.9,0.9h3v-4.7h3.1v4.7h2.9
			l-1.8-1c0.9-1.2,1.5-2.4,2.1-3.6l2.7,1.3c-0.5,1.1-1.2,2.2-2,3.2h2.6v3.5c2.2-2.3,3.6-5,4.3-8.2l3.4,0.4c-0.3,1-0.5,1.9-0.9,2.8
			h7.7v3.2h-1.4c-0.8,2.6-1.8,4.8-3.1,6.6c1.6,1.1,3.4,2,5.4,2.9L204,118c-2.3-1.1-4.2-2.2-5.9-3.5c-1.7,1.4-3.6,2.5-5.8,3.2
			l-1.7-2.8c1.9-0.6,3.6-1.4,5-2.6c-0.8-0.8-1.5-1.5-2.1-2.3l1.6-2.4c0.8,0.9,1.6,1.8,2.6,2.6c1-1.4,1.8-2.9,2.3-4.6h-4.5
			c-1,1.7-2.2,3.2-3.6,4.6l-1.8-2.4v6.6c0,1.4-0.5,2.3-1.5,2.7h2.3v2.3h11.5v7c0,2.5-1.3,3.8-3.7,3.8H195.8z M180.5,108.4
			c-0.1,2.3-0.4,4.4-0.9,6.3l-2.4-0.8c0.5-1.7,0.9-3.6,1-5.8L180.5,108.4z"/>
		<path fill="#EA8C38" d="M227.6,100.3v12.4H219c-0.1,1.1-0.1,2.2-0.2,3.2h9.8c0,6.6-0.2,10.7-0.5,12.3c-0.4,2.5-2.5,3.8-6.2,3.8
			c-0.6,0-1.6-0.1-3-0.2l-0.8-3.2c1.3,0.1,2.3,0.1,3.3,0.1c1.8,0,2.9-0.8,3.2-2.2c0.2-0.7,0.3-3.1,0.4-7.1h-6.4
			c-0.3,2.1-0.6,3.8-1,5.1c-0.9,3-2.5,5.5-4.7,7.7l-2.4-3.2c1.8-1.8,3.1-3.9,3.8-6.3c0.6-2.2,1-5.5,1.2-10.2h-3v-12.4H227.6z
			 M223.9,103.8H216v5.3h7.8V103.8z M235,102.2v22.1h-3.7v-22.1H235z M233.4,132l-0.8-3.6c1.7,0.1,3.2,0.2,4.7,0.2
			c1,0,1.5-0.6,1.5-1.8V99.2h3.7v28.7c0,2.7-1.3,4.1-3.9,4.1H233.4z"/>
		<path fill="#EA8C38" d="M259.1,125.3h-6.3v2.4h-3.6v-26h9.9V125.3z M255.7,121.9v-16.7h-2.8v16.7H255.7z M265.1,113.8
			c0,7.3-1.4,13.5-4.1,18.7l-2.9-2.6c2.2-4.2,3.4-9.5,3.4-16.2v-13.6h17.9v11.3h-14.3V113.8z M265.1,103.5v4.5h10.7v-4.5H265.1z
			 M270.9,131.8c-2.5,0-3.8-1.3-3.8-3.9v-14.2h3.6v3.7l9.8-0.7v3.5l-9.8,0.7v6.3c0,0.8,0.4,1.2,1.3,1.2h4.2c0.6,0,1.1-0.3,1.4-0.7
			c0.4-0.5,0.6-1.9,0.7-4.2l3.4,1.1c-0.3,3.5-0.9,5.6-1.6,6.3c-0.7,0.6-1.8,0.9-3.2,0.9H270.9z"/>
		<path fill="#EA8C38" d="M309,104.3c1.4,1.3,2.2,3,2.2,5.2c0,1.8-0.5,3.3-1.3,4.4c-0.3,0.4-1.4,1.3-3.1,2.8
			c-0.6,0.5-1.1,1.1-1.4,1.8c-0.4,0.7-0.5,1.5-0.5,2.4v0.5h-4.1v-0.5c0-1.4,0.2-2.6,0.7-3.5c0.5-1,1.3-2,2.5-3
			c1.2-1,1.9-1.7,2.2-2.1c0.6-0.8,1-1.7,1-2.6c0-1.2-0.4-2.1-1-2.8c-0.7-0.7-1.7-1-2.9-1c-1.5,0-2.7,0.5-3.4,1.4
			c-0.6,0.8-0.9,2-0.9,3.6h-4.1c0-2.7,0.8-4.8,2.3-6.3c1.5-1.5,3.6-2.3,6.3-2.3C305.6,102.4,307.5,103,309,104.3z M304.6,123.9
			c0.5,0.5,0.8,1.2,0.8,1.9s-0.3,1.5-0.8,2c-0.6,0.5-1.2,0.8-2,0.8s-1.4-0.3-1.9-0.8c-0.6-0.5-0.8-1.2-0.8-1.9s0.3-1.4,0.8-1.9
			c0.5-0.5,1.2-0.8,1.9-0.8S304.1,123.4,304.6,123.9z"/>
	</g>
	<path fill="#EA8C38" d="M50.4,90.4c93.7-1.3,187.4,0.4,280.9,4.9c0,0,0.1-2.2,0-2.3c-93.5-4.5-187.2-6.2-280.9-4.9
		C50.4,88.1,50.4,90.4,50.4,90.4L50.4,90.4z"/>
	<path fill="#EA8C38" d="M50.4,140.4c93.5,3.5,187.2,4.5,280.8,2.8c0.1,0,0-2.2,0-2.3c-93.6,1.7-187.4,0.8-280.8-2.8
		C50.5,138.2,50.3,140.4,50.4,140.4L50.4,140.4z"/>
	<path fill="#FFFFFF" d="M156.2,175.5c0,0-26.3,39.3-67.2,45.6c0,0,18.8-18.9,11.5-55.8L156.2,175.5z"/>
</g>
<g>
</g>
<g>
</g>
<g>
</g>
<g>
</g>
<g>
</g>
<g>
</g>
<g>
</g>
<g>
</g>
<g>
</g>
<g>
</g>
<g>
</g>
<g>
</g>
<g>
</g>
<g>
</g>
<g>
</g>
</svg>
