<?xml version="1.0" encoding="utf-8"?>
<!-- Generator: Adobe Illustrator 18.0.0, SVG Export Plug-In . SVG Version: 6.00 Build 0)  -->
<!DOCTYPE svg PUBLIC "-//W3C//DTD SVG 1.1//EN" "http://www.w3.org/Graphics/SVG/1.1/DTD/svg11.dtd">
<svg version="1.1" id="Layer_1" xmlns="http://www.w3.org/2000/svg" xmlns:xlink="http://www.w3.org/1999/xlink" x="0px" y="0px"
	 viewBox="0 0 456 210.8" enable-background="new 0 0 456 210.8" xml:space="preserve">
<g>
	<path fill="#FFFFFF" d="M202.1,162c0,0-34.7,44.7-83.9,48.8c0,0,24-20.9,18.3-65.5L202.1,162z"/>
	<path fill="#FFFFFF" d="M396,161.5H60c-33,0-60-27-60-60V60C0,27,27,0,60,0h336c33,0,60,27,60,60v41.5
		C456,134.5,429,161.5,396,161.5z"/>
	<g>
		<path fill="#757679" d="M76,54.4c0.7,0,1.4,0.3,1.9,0.8c0.5,0.5,0.8,1.2,0.8,1.9v0.2c0,0.8-0.3,1.4-0.8,2
			c-0.5,0.5-1.2,0.8-1.9,0.8h-2.4c-0.2,0-0.4,0.1-0.4,0.4v28c0,1.7-0.2,3.1-0.7,4c-0.5,0.9-1.2,1.6-2.3,2.1c-1.6,0.6-4.3,1-8,1h0
			c-0.8,0-1.5-0.2-2.1-0.7c-0.7-0.5-1.1-1.1-1.4-1.9c-0.1-0.3-0.2-0.6-0.4-0.9c-0.1-0.2-0.1-0.4-0.1-0.7c0-0.3,0.1-0.6,0.3-0.9
			c0.3-0.5,0.8-0.7,1.4-0.7h0c1,0,3,0,5.9,0c0.6,0,1-0.1,1.2-0.3c0.2-0.2,0.3-0.5,0.3-1V60.5c0-0.2-0.1-0.4-0.3-0.4H38.6
			c-0.7,0-1.4-0.3-1.9-0.8c-0.5-0.5-0.8-1.2-0.8-2v-0.2c0-0.7,0.3-1.4,0.8-1.9c0.5-0.5,1.2-0.8,1.9-0.8H76z M60.4,81.1
			c0,0.8-0.3,1.4-0.8,2c-0.5,0.5-1.2,0.8-1.9,0.8H46.1c-0.2,0-0.4,0.1-0.4,0.4v0.5c0,0.7-0.3,1.4-0.8,1.9s-1.2,0.8-2,0.8h0
			c-0.7,0-1.4-0.3-1.9-0.8c-0.5-0.5-0.8-1.2-0.8-1.9V68.2c0-0.8,0.3-1.4,0.8-2c0.5-0.5,1.2-0.8,1.9-0.8h14.7c0.7,0,1.4,0.3,1.9,0.8
			c0.5,0.5,0.8,1.2,0.8,2V81.1z M54.8,71.2c0-0.2-0.1-0.3-0.4-0.3h-8.3c-0.2,0-0.4,0.1-0.4,0.3v6.9c0,0.2,0.1,0.3,0.4,0.3h8.3
			c0.2,0,0.4-0.1,0.4-0.3V71.2z"/>
		<path fill="#757679" d="M101.5,77.7c0.3-0.1,0.6-0.2,0.9-0.2c0.4,0,0.7,0.1,1.1,0.3c0.6,0.3,1,0.8,1.2,1.5l0,0.2
			c0.1,0.2,0.1,0.5,0.1,0.7c0,0.5-0.1,1-0.4,1.5c-0.3,0.7-0.9,1.2-1.6,1.5c-4.2,1.9-8.8,3.9-13.7,5.9c-0.3,0.1-0.6,0.2-1,0.2
			s-0.7-0.1-1-0.2c-0.7-0.3-1.1-0.8-1.3-1.5l-0.3-0.8c-0.1-0.3-0.1-0.6-0.1-0.9c0-0.4,0.1-0.9,0.3-1.3c0.3-0.7,0.9-1.1,1.6-1.4
			c1.2-0.4,2.3-0.9,3.4-1.3c0.2-0.1,0.3-0.2,0.3-0.5l-0.9-24.7c0-0.7,0.3-1.4,0.8-2c0.5-0.6,1.1-0.9,1.9-0.9l0.4,0
			c0.1,0,0.1,0,0.1,0c0.7,0,1.3,0.2,1.9,0.7c0.6,0.5,0.8,1.2,0.8,1.9l0.8,22.7c0,0.1,0,0.1,0.1,0.2c0.1,0,0.1,0.1,0.2,0
			C98.7,78.9,100.1,78.3,101.5,77.7z M128.3,88.7c0.4,0.6,0.6,1.2,0.6,1.8c0,0.1,0,0.2,0,0.3c-0.1,0.8-0.4,1.4-1,2l-0.9,0.9
			c-0.4,0.4-0.9,0.6-1.5,0.6c-0.1,0-0.2,0-0.3,0c-0.7-0.1-1.3-0.4-1.7-1c-1.6-2.3-4-5.3-7.2-8.9c-0.2-0.2-0.3-0.2-0.5,0
			c-3,4.2-6.9,7.5-11.8,10.1c-0.5,0.2-0.9,0.4-1.4,0.4c-0.2,0-0.5,0-0.7-0.1c-0.8-0.2-1.4-0.6-2-1.2c-0.2-0.3-0.5-0.6-0.8-0.9
			c-0.3-0.4-0.5-0.8-0.5-1.3c0-0.1,0-0.2,0-0.4c0.1-0.7,0.5-1.1,1-1.3c3.1-1.4,5.8-3.2,8-5.2c2.2-2,4-4.4,5.5-7.2
			c1.5-2.8,2.6-5.8,3.5-9.1c0.9-3.3,1.5-7.1,2-11.5c0.1-0.8,0.4-1.4,1-1.9c0.5-0.4,1.1-0.7,1.7-0.7c0.1,0,0.2,0,0.3,0l0.7,0.1
			c0.8,0.1,1.4,0.4,1.9,1c0.4,0.5,0.6,1,0.6,1.6c0,0.1,0,0.2,0,0.4c-1.1,8.7-2.9,15.7-5.4,21.1c-0.1,0.2-0.1,0.4,0.1,0.6
			c1.8,1.8,3.4,3.6,4.9,5.2C125.9,85.8,127.2,87.3,128.3,88.7z M111.6,65.8c0.2,0.4,0.3,0.9,0.3,1.3c0,0.3,0,0.6-0.1,0.9
			c-0.2,0.7-0.7,1.3-1.4,1.6l-0.7,0.4c-0.4,0.2-0.7,0.3-1.1,0.3c-0.3,0-0.6,0-0.9-0.1c-0.7-0.2-1.2-0.7-1.5-1.3
			c-1.1-2.3-2.6-4.7-4.3-7.1c-0.3-0.4-0.5-0.9-0.5-1.3c0-0.2,0-0.4,0.1-0.6c0.2-0.7,0.5-1.2,1.2-1.5l0.2-0.1c0.5-0.2,1-0.4,1.6-0.4
			c0.2,0,0.4,0,0.7,0c0.8,0.2,1.5,0.6,2,1.2C108.8,61.2,110.3,63.5,111.6,65.8z"/>
		<path fill="#757679" d="M146.7,71.9c0.2-0.1,0.4-0.1,0.7-0.1c0.4,0,0.8,0.1,1.2,0.4c0.6,0.4,0.9,0.9,1,1.6c0,0.1,0,0.3,0,0.4
			c0,0.6-0.2,1.1-0.5,1.6c-0.4,0.7-0.9,1.1-1.6,1.3c-0.7,0.2-1.3,0.4-1.8,0.5c-0.2,0.1-0.3,0.2-0.3,0.4v11.7c0,1.4-0.1,2.4-0.4,3.2
			c-0.3,0.7-0.8,1.3-1.5,1.8c-0.9,0.6-2.2,0.9-3.9,1c-0.1,0-0.1,0-0.2,0c-0.7,0-1.3-0.2-1.9-0.7c-0.6-0.5-1-1.1-1.2-1.9
			c0-0.2,0-0.4,0-0.6c0-0.4,0.1-0.8,0.4-1.2c0.4-0.5,0.9-0.8,1.5-0.8c0.6,0,1,0,1.2,0c0.3,0,0.5-0.1,0.6-0.2
			c0.1-0.1,0.2-0.3,0.2-0.6V79.5c0-0.1,0-0.2-0.1-0.2c-0.1,0-0.1-0.1-0.2,0c-0.5,0.1-1,0.3-1.5,0.5c-0.2,0.1-0.5,0.1-0.7,0.1
			c-0.4,0-0.9-0.1-1.3-0.4c-0.7-0.4-1.1-1-1.2-1.7v-0.1c-0.1-0.2-0.1-0.4-0.1-0.6c0-0.5,0.1-1,0.4-1.4c0.4-0.7,1-1.1,1.7-1.3
			c0.3-0.1,0.8-0.2,1.4-0.3s1.1-0.3,1.4-0.3c0.2-0.1,0.3-0.2,0.3-0.5v-7.5c0-0.2-0.1-0.3-0.3-0.3h-2c-0.7,0-1.3-0.3-1.8-0.8
			c-0.5-0.5-0.8-1.1-0.8-1.8c0-0.7,0.3-1.3,0.8-1.8c0.5-0.5,1.1-0.8,1.8-0.8h2c0.2,0,0.3-0.1,0.3-0.3v-6c0-0.7,0.3-1.3,0.8-1.8
			c0.5-0.5,1.1-0.7,1.8-0.7c0.7,0,1.3,0.2,1.8,0.7c0.5,0.5,0.7,1.1,0.7,1.8v6c0,0.2,0.1,0.3,0.4,0.3h3c0.3,0,0.5,0.1,0.7,0.3
			c0.2,0.2,0.3,0.4,0.3,0.6c0,0,0,0.1,0,0.1c0,0,0,0,0,0c2.6-2,4.7-4.6,6.2-7.6c0.3-0.7,0.9-1.3,1.5-1.6c0.5-0.3,1-0.5,1.6-0.5
			c0.2,0,0.4,0,0.5,0l0.1,0c0.7,0.1,1.1,0.4,1.4,1c0.2,0.3,0.2,0.6,0.2,0.9c0,0.3-0.1,0.6-0.2,0.8c0,0.1,0,0.1,0,0.2
			c0,0.1,0.1,0.1,0.2,0.1h5.4c0.1,0,0.1,0,0.2,0c0.5-0.1,0.9,0,1.3,0.2l1.2,0.7c0.5,0.3,0.8,0.8,1,1.3c0.1,0.2,0.1,0.4,0.1,0.6
			c0,0.4-0.1,0.7-0.2,1.1c-0.6,1.1-1.3,2.3-2.1,3.5c-0.1,0.1-0.1,0.1,0,0.2c0,0.1,0.1,0.1,0.2,0.1h6c0.8,0,1.4,0.3,2,0.8
			c0.5,0.5,0.8,1.2,0.8,1.9v10.5c0,0.7-0.2,1.3-0.7,1.7c-0.5,0.5-1,0.7-1.7,0.7s-1.2-0.2-1.7-0.7c-0.5-0.5-0.7-1-0.7-1.7v-1.1
			c0-0.2-0.1-0.4-0.4-0.4h-2.9c-1.7,0-2.8-0.3-3.4-0.9c-0.6-0.6-0.8-1.8-0.8-3.5v-2.5c0-0.2-0.1-0.3-0.4-0.3h-1.2
			c-0.2,0-0.3,0.1-0.4,0.3c-0.4,3.2-1.5,5.5-3.4,7c-0.4,0.3-0.8,0.4-1.2,0.4c-0.2,0-0.3,0-0.5-0.1c-0.6-0.2-1.1-0.5-1.6-1
			c0-0.1-0.1-0.1-0.1-0.1c-0.1,0-0.1,0.1-0.1,0.1v2.3c0,0.7-0.2,1.2-0.7,1.6c-0.4,0.4-1,0.7-1.6,0.7s-1.2-0.2-1.7-0.7
			c-0.5-0.4-0.7-1-0.7-1.6V65.3c0-0.2-0.1-0.4-0.2-0.6c-0.3-0.3-0.7-0.7-1.3-1.3c0,0-0.1,0-0.1,0c0,0-0.1,0.1-0.1,0.1
			c0,0.5-0.2,1-0.6,1.3c-0.4,0.4-0.8,0.6-1.3,0.6h-2c-0.2,0-0.4,0.1-0.4,0.3v6.2c0,0.1,0,0.2,0.1,0.2c0.1,0,0.1,0.1,0.2,0
			L146.7,71.9z M178,80.2c0.5,0.5,0.7,1,0.7,1.7s-0.2,1.2-0.7,1.6s-1,0.7-1.7,0.7h-7.8c-0.1,0-0.1,0-0.2,0.1c0,0.1-0.1,0.1,0,0.2
			c1.8,2.8,4.6,4.7,8.4,5.7c0.6,0.2,1,0.5,1.2,1.1c0.1,0.2,0.1,0.4,0.1,0.7c0,0.3-0.1,0.7-0.3,1c0,0-0.1,0.1-0.1,0.1
			c-0.5,0.7-1.1,1.2-1.8,1.6c-0.4,0.2-0.9,0.3-1.3,0.3c-0.3,0-0.6,0-0.9-0.1c-4.3-1.4-7.4-3.9-9.5-7.5c0-0.1-0.1-0.1-0.2-0.1
			s-0.1,0-0.2,0.1c-1,1.8-2.4,3.4-4.2,4.6c-1.8,1.3-4.2,2.3-7.2,3.2c-0.3,0.1-0.5,0.1-0.8,0.1c-0.4,0-0.9-0.1-1.3-0.3
			c-0.7-0.3-1.2-0.8-1.6-1.4c-0.2-0.3-0.3-0.6-0.3-1c0-0.2,0-0.4,0.1-0.6c0.2-0.6,0.6-0.9,1.2-1.1c2.7-0.7,4.8-1.5,6.3-2.5
			c1.5-1,2.7-2.3,3.5-3.7c0-0.1,0-0.1,0-0.2c0-0.1-0.1-0.1-0.2-0.1h-7.6c-0.7,0-1.2-0.2-1.7-0.7c-0.5-0.4-0.7-1-0.7-1.6
			s0.2-1.2,0.7-1.7c0.5-0.5,1-0.7,1.7-0.7h8.9c0.2,0,0.4-0.1,0.4-0.3c0-0.3,0.1-0.6,0.1-1c0.1-0.7,0.4-1.3,0.9-1.8
			c0.5-0.5,1.1-0.7,1.9-0.7c0.7,0,1.3,0.2,1.8,0.7c0.4,0.5,0.6,1,0.6,1.5c0,0.1,0,0.2,0,0.3c0,0.3-0.1,0.7-0.1,1
			c0,0.2,0.1,0.3,0.3,0.3h9.9C177,79.5,177.5,79.8,178,80.2z M164.2,59.2c0-0.1,0-0.1,0-0.2s-0.1-0.1-0.2-0.1h-5.1
			c-0.2,0-0.4,0.1-0.5,0.3c-0.7,0.9-1.4,1.9-2.4,2.9c0,0,0,0.1,0,0.1c0,0.1,0.1,0.1,0.1,0.1h6c0.2,0,0.4-0.1,0.6-0.3
			C163.3,61,163.8,60.1,164.2,59.2z M156.4,66.8c-0.2,0-0.4,0.1-0.4,0.3v4.4c0,0.1,0,0.1,0.1,0.1c0.1,0,0.1,0,0.2,0
			c1.4-0.9,2.3-2.4,2.6-4.6c0-0.2-0.1-0.3-0.3-0.3H156.4z M172.3,70.4c0.1-0.1,0.1-0.2,0.1-0.5v-2.8c0-0.2-0.1-0.3-0.4-0.3h-2.7
			c-0.2,0-0.3,0.1-0.3,0.3v2.5c0,0.4,0,0.7,0.1,0.7s0.3,0.1,0.6,0.1h1.9C171.9,70.5,172.2,70.5,172.3,70.4z"/>
		<path fill="#757679" d="M193.5,67c0.7,0.4,1,1,1.2,1.8c0,0.1,0,0.3,0,0.4c0,0.6-0.2,1.1-0.6,1.6L194,71c-0.4,0.6-1,0.9-1.7,1
			c-0.2,0-0.3,0-0.4,0c-0.6,0-1.1-0.2-1.6-0.6c-1-0.7-2-1.3-3.2-1.9c-0.6-0.3-1-0.8-1.2-1.4c0-0.2,0-0.4,0-0.6
			c0-0.4,0.1-0.8,0.4-1.2c0.5-0.6,1.1-1,1.8-1.3c0.3-0.1,0.6-0.1,0.8-0.1c0.4,0,0.9,0.1,1.3,0.3C191.4,65.8,192.5,66.4,193.5,67z
			 M191.5,79.3c0.2-0.7,0.7-1.1,1.3-1.3c0.2-0.1,0.5-0.1,0.7-0.1c0.4,0,0.8,0.1,1.2,0.4c0.7,0.5,1.1,1.1,1.4,1.8
			c0.1,0.4,0.2,0.7,0.2,1.1c0,0.4-0.1,0.8-0.2,1.2c-1.3,3.5-2.7,6.9-4.1,10.2c-0.3,0.7-0.8,1.1-1.5,1.3c-0.2,0.1-0.5,0.1-0.7,0.1
			c-0.4,0-0.9-0.1-1.3-0.4l-0.4-0.2c-0.7-0.4-1.1-1-1.3-1.7c-0.1-0.3-0.1-0.6-0.1-0.8c0-0.5,0.1-0.9,0.3-1.3
			C188.6,86,190.2,82.6,191.5,79.3z M195.8,54.4c0.6,0.4,1,1,1.1,1.8c0,0.2,0,0.3,0,0.4c0,0.6-0.2,1.2-0.6,1.7l-0.1,0.1
			c-0.4,0.6-1,0.9-1.8,1c-0.1,0-0.2,0-0.3,0c-0.6,0-1.2-0.2-1.7-0.6c-1-0.7-2-1.4-3.2-2c-0.6-0.3-1-0.8-1.2-1.5c0-0.2,0-0.4,0-0.6
			c0-0.4,0.2-0.9,0.5-1.3c0.5-0.6,1.1-1,1.8-1.2c0.2-0.1,0.5-0.1,0.7-0.1c0.5,0,1,0.1,1.4,0.4C193.7,53.2,194.8,53.9,195.8,54.4z
			 M228.1,81.2c0.5,0.5,0.7,1,0.7,1.7s-0.2,1.2-0.7,1.7c-0.5,0.5-1,0.7-1.7,0.7h-8.9c-0.1,0-0.2,0-0.2,0.1c0,0.1,0,0.1,0,0.2
			c1.1,1.2,2.4,2.2,4,3c1.6,0.8,3.5,1.4,5.7,1.8c0.6,0.1,0.9,0.4,1.2,1c0.1,0.2,0.1,0.4,0.1,0.6c0,0.3-0.1,0.7-0.3,0.9
			c-0.1,0.1-0.1,0.2-0.1,0.2c-0.5,0.7-1.1,1.2-1.8,1.6c-0.5,0.2-0.9,0.4-1.4,0.4c-0.2,0-0.5,0-0.8-0.1c-4.7-1.2-8.3-3.5-10.7-6.9
			c0-0.1-0.1-0.1-0.2-0.1s-0.2,0-0.2,0.1c-2,3.1-5.8,5.4-11.3,6.8c-0.2,0.1-0.5,0.1-0.8,0.1c-0.5,0-0.9-0.1-1.4-0.3
			c-0.7-0.4-1.2-0.9-1.7-1.6c-0.2-0.3-0.3-0.6-0.3-1c0-0.2,0-0.4,0.1-0.7c0.2-0.6,0.6-0.9,1.2-1.1c4.7-1,7.8-2.7,9.4-5
			c0.1-0.1,0.1-0.1,0-0.2c0-0.1-0.1-0.1-0.2-0.1h-8.5c-0.7,0-1.2-0.2-1.7-0.7c-0.5-0.5-0.7-1-0.7-1.7s0.2-1.2,0.7-1.7
			c0.5-0.5,1-0.7,1.7-0.7h10.2c0.2,0,0.2-0.1,0.3-0.2c0.1-0.6,0.4-1.1,0.8-1.6c0.4-0.4,1-0.6,1.6-0.6h1.1c0.6,0,1,0.2,1.4,0.7
			c0.3,0.4,0.5,0.8,0.5,1.3c0,0.1,0,0.2,0,0.3c0,0.2,0,0.2,0.2,0.2h10.8C227.1,80.5,227.7,80.8,228.1,81.2z M204.3,60.2
			c-0.2,0-0.4,0.1-0.4,0.4v16c0,0.7-0.2,1.3-0.7,1.7c-0.5,0.5-1,0.7-1.7,0.7c-0.7,0-1.3-0.2-1.7-0.7c-0.5-0.5-0.7-1.1-0.7-1.7V58.5
			c0-0.7,0.3-1.4,0.8-1.9c0.5-0.5,1.2-0.8,1.9-0.8h6.7c0.2,0,0.4-0.1,0.5-0.3c0.2-0.5,0.4-1,0.5-1.5c0.2-0.7,0.6-1.3,1.3-1.8
			c0.5-0.4,1.1-0.6,1.7-0.6c0.1,0,0.2,0,0.4,0l0.9,0.1c0.7,0.1,1.2,0.4,1.5,1c0.2,0.3,0.3,0.6,0.3,1c0,0.3-0.1,0.6-0.2,0.8
			c-0.1,0.2-0.3,0.6-0.5,1c0,0.1,0,0.2,0,0.2c0,0.1,0.1,0.1,0.2,0.1h9.7c0.8,0,1.4,0.3,2,0.8c0.5,0.5,0.8,1.2,0.8,1.9v17.7
			c0,0.7-0.2,1.3-0.7,1.8c-0.5,0.5-1.1,0.8-1.8,0.8c-0.7,0-1.3-0.3-1.8-0.8c-0.5-0.5-0.7-1.1-0.7-1.8V60.5c0-0.2-0.1-0.4-0.4-0.4
			H204.3z M219.6,67.8c0.4,0,0.8,0.2,1.1,0.5s0.4,0.7,0.4,1.1c0,0.4-0.1,0.8-0.4,1.1c-0.3,0.3-0.7,0.5-1.1,0.5h-3.7
			c-0.1,0-0.1,0-0.1,0s0,0.1,0,0.1c1.1,0.6,2.3,1.3,3.7,2.1c0.4,0.2,0.7,0.6,0.8,1.1c0.1,0.5,0,0.9-0.3,1.4
			c-0.2,0.4-0.6,0.6-1.1,0.7c-0.5,0.1-0.9,0-1.3-0.3c-0.7-0.6-1.5-1.2-2.5-2c-0.1,0-0.1,0-0.2,0c-0.1,0-0.1,0.1-0.1,0.2v1.3
			c0,0.5-0.2,1-0.6,1.3c-0.4,0.4-0.8,0.6-1.3,0.6c-0.5,0-1-0.2-1.3-0.6c-0.4-0.4-0.6-0.8-0.6-1.3v-1.7c0,0,0-0.1-0.1-0.1
			c0,0-0.1,0-0.2,0c-0.9,1.2-1.9,2.2-2.9,3c-0.3,0.2-0.7,0.3-1.1,0.3c-0.1,0-0.2,0-0.4,0c-0.5-0.1-0.9-0.4-1.3-0.8
			c-0.3-0.3-0.4-0.7-0.3-1.2c0.1-0.4,0.3-0.8,0.7-1c1.4-0.8,2.6-1.8,3.6-2.9c0.1,0,0.1-0.1,0-0.1c0-0.1-0.1-0.1-0.1-0.1h-2.5
			c-0.4,0-0.8-0.2-1.1-0.5c-0.3-0.3-0.5-0.7-0.5-1.1c0-0.4,0.2-0.8,0.5-1.1s0.7-0.5,1.1-0.5h0.3c0.2,0,0.2-0.1,0.1-0.2
			c-0.1-0.2-0.1-0.3-0.2-0.5c-0.1-0.3-0.2-0.6-0.2-0.8c0-0.2,0-0.4,0.1-0.7c0.2-0.5,0.5-0.9,1-1.1h0c0,0,0,0,0-0.1
			c-0.1,0-0.2,0-0.3,0c-0.4,0-0.8-0.1-1.1-0.4c-0.3-0.2-0.6-0.6-0.7-1c-0.1-0.3-0.1-0.6,0.1-0.9c0.2-0.3,0.4-0.5,0.8-0.5
			c4-0.3,7.4-0.7,10.1-1.2c0.2,0,0.4,0,0.6,0c0.9,0,1.6,0.3,2.1,1c0.2,0.3,0.3,0.7,0.2,1c-0.1,0.4-0.4,0.6-0.7,0.7
			c-1.1,0.2-2.3,0.4-3.6,0.6c-0.2,0-0.3,0.2-0.3,0.4v3.2c0,0.2,0.1,0.3,0.3,0.3h1.7c0,0,0,0,0,0s0,0,0,0c-0.2-0.1-0.4-0.3-0.5-0.5
			c-0.1-0.3-0.1-0.5,0-0.8c0.2-0.4,0.3-0.7,0.5-1c0.2-0.4,0.5-0.7,0.9-0.9c0.4-0.2,0.8-0.2,1.3-0.1c0.4,0.2,0.7,0.4,0.8,0.8
			c0.1,0.4,0.1,0.8-0.1,1.2c-0.1,0.1-0.3,0.4-0.7,1.1c0,0.1,0,0.1,0,0.2c0,0,0.1,0.1,0.1,0.1H219.6z M210.8,67.8
			c0.2,0,0.3-0.1,0.3-0.3v-2.8c0-0.2-0.1-0.4-0.3-0.3l-1.8,0.1c-0.1,0-0.1,0-0.1,0.1c0,0.1,0,0.1,0,0.2c0.4,0.5,0.7,1.1,1,1.9
			c0.1,0.2,0.1,0.4,0,0.7c-0.1,0.2-0.3,0.4-0.5,0.5c0,0,0,0,0,0H210.8z"/>
		<path fill="#757679" d="M278,59.4c-0.4,0.4-0.9,0.6-1.5,0.6c-0.2,0-0.3,0.1-0.3,0.3c-1.1,3-2.5,5.5-4.2,7.6
			c-0.2,0.2-0.1,0.4,0,0.5c1.6,1.2,3.3,2.2,5.1,3c0.5,0.2,0.9,0.6,1,1.2c0,0.2,0,0.3,0,0.5c0,0.4-0.1,0.7-0.4,1
			c-0.4,0.6-1,1-1.7,1.2c-0.3,0.1-0.6,0.1-0.8,0.1c-0.4,0-0.7-0.1-1.1-0.2c-1.9-0.9-3.7-2.1-5.4-3.6c-0.2-0.2-0.3-0.2-0.5,0
			c-1.5,1.2-3.3,2.2-5.2,3.1c-0.3,0.2-0.7,0.2-1,0.2c-0.3,0-0.6,0-0.9-0.1c-0.7-0.2-1.2-0.7-1.6-1.3c-0.2-0.3-0.3-0.7-0.3-1
			c0-0.2,0-0.4,0.1-0.7c0.2-0.6,0.6-1,1.1-1.2c1.7-0.7,3.2-1.5,4.6-2.5c0.2-0.1,0.2-0.3,0.1-0.5c-0.9-1.3-1.8-2.7-2.5-4.1
			c-0.1-0.2-0.2-0.2-0.4,0c-0.4,0.5-0.9,0.7-1.5,0.7c-0.1,0-0.1,0-0.1,0c-0.7,0-1.3-0.3-1.7-0.8c-0.2-0.2-0.4-0.4-0.5-0.5
			c-0.1-0.1-0.1-0.1-0.2,0c0,0-0.1,0.1-0.1,0.1v8.5c0,0.9-0.1,1.7-0.3,2.2c-0.2,0.5-0.6,0.9-1.1,1.3c-0.7,0.3-1.6,0.5-2.7,0.6
			c0,0-0.1,0-0.1,0c-0.5,0-0.9-0.2-1.3-0.5c-0.4-0.3-0.7-0.8-0.9-1.3c-0.2-0.4-0.1-0.8,0.1-1.2c0.2-0.4,0.6-0.6,1-0.6h0.8
			c0.3,0,0.5-0.2,0.5-0.5v-8.9c0-0.2-0.1-0.4-0.3-0.4h-3.9c-0.2,0-0.4,0.1-0.4,0.4v11.2c0,0.5-0.2,0.9-0.5,1.3
			c-0.3,0.3-0.8,0.5-1.2,0.5c-0.5,0-0.9-0.2-1.3-0.5c-0.4-0.3-0.5-0.8-0.5-1.3V62.3c0-0.2-0.1-0.4-0.3-0.4h-3.9
			c-0.2,0-0.4,0.1-0.4,0.4v7.1c0,0,0,0,0.1,0c0,0,0.1,0,0.1,0c0.5-1.2,0.9-2.8,1.1-4.7c0-0.4,0.2-0.7,0.5-0.9s0.6-0.3,1-0.3
			c0.4,0.1,0.7,0.2,1,0.6c0.2,0.3,0.3,0.7,0.3,1.1c-0.2,1.9-0.6,3.5-1.1,5c-0.2,0.5-0.5,0.8-1.1,1c-0.2,0.1-0.4,0.1-0.6,0.1
			c-0.3,0-0.7-0.1-1-0.3c-0.1,0-0.1,0-0.2,0c0,0-0.1,0.1-0.1,0.1v2.7c0,0.6-0.2,1-0.6,1.4c-0.4,0.4-0.9,0.6-1.4,0.6
			c-0.6,0-1-0.2-1.4-0.6c-0.4-0.4-0.6-0.9-0.6-1.4v-13c0-0.6,0.2-1.1,0.6-1.5c0.4-0.4,0.9-0.7,1.5-0.7c0.1,0,0.1,0,0.2-0.1
			c0,0,0.1-0.1,0-0.2c-0.3-0.8-0.7-1.7-1.3-2.7c-0.2-0.3-0.3-0.6-0.3-0.9c0-0.2,0-0.4,0.1-0.6c0.2-0.5,0.5-0.9,1-1.1
			c0.3-0.2,0.7-0.2,1-0.2c0.2,0,0.5,0,0.7,0.1c0.6,0.2,1.1,0.5,1.4,1c0.2,0.3,0.4,0.6,0.6,0.9c0.2,0.4,0.3,0.8,0.3,1.2
			c0,0.3-0.1,0.6-0.2,0.9c-0.2,0.7-0.7,1.2-1.4,1.5l-0.2,0.1c0,0,0,0.1,0,0.1c0,0,0,0,0,0h3.5c0.2,0,0.3-0.1,0.3-0.3v-4.6
			c0-0.7,0.2-1.3,0.7-1.7c0.5-0.5,1.1-0.7,1.7-0.7c0.7,0,1.2,0.2,1.7,0.7c0.5,0.5,0.7,1,0.7,1.7v4.6c0,0.2,0.1,0.3,0.4,0.3h3.3
			c0,0,0.1,0,0.1,0c0,0,0,0,0,0c-0.6-0.2-0.9-0.7-1.2-1.2c-0.1-0.2-0.1-0.5-0.1-0.7c0-0.3,0.1-0.6,0.2-1c0.2-0.4,0.4-0.9,0.7-1.3
			c0.3-0.6,0.7-1.1,1.3-1.3c0.4-0.2,0.7-0.2,1.1-0.2c0.3,0,0.6,0,0.8,0.1c0.6,0.2,0.9,0.6,1.1,1.2c0.1,0.2,0.1,0.4,0.1,0.6
			c0,0.4-0.1,0.7-0.3,1c-0.9,1.2-1.6,2.1-2.1,2.8c0,0.1,0,0.1,0,0.2c0,0,0.1,0.1,0.1,0.1h0.8c0.5,0,0.9,0.2,1.3,0.5
			c0.4,0.4,0.5,0.8,0.5,1.3c0,0,0,0.1,0,0.1c0,0,0.1,0,0.1,0c2-1.9,3.5-4.2,4.6-6.9c0.2-0.7,0.7-1.1,1.3-1.5
			c0.4-0.2,0.9-0.4,1.3-0.4c0.2,0,0.3,0,0.5,0c0.6,0.1,1.1,0.5,1.4,1c0.2,0.3,0.3,0.7,0.3,1c0,0.2,0,0.4-0.1,0.7
			c-0.1,0.3-0.2,0.7-0.4,1c0,0.1,0,0.2,0,0.2c0,0.1,0.1,0.1,0.2,0.1h9.1c0.6,0,1.1,0.2,1.5,0.6s0.6,0.9,0.6,1.5
			C278.7,58.5,278.4,59,278,59.4z M271.9,78c0.7,0,1.4,0.3,1.9,0.8c0.5,0.5,0.8,1.2,0.8,1.9v7.4c0,1.3-0.2,2.3-0.5,3
			c-0.4,0.7-1,1.3-1.9,1.6c-1.1,0.4-3,0.7-5.5,0.7c0,0-0.1,0-0.1,0c-0.7,0-1.3-0.2-1.9-0.6c-0.6-0.5-1-1-1.3-1.7
			c-0.1-0.2-0.1-0.4-0.1-0.7c0-0.3,0.1-0.6,0.3-0.9c0.3-0.5,0.7-0.7,1.3-0.7h0c1,0,2.1,0,3.3,0c0.4,0,0.6-0.1,0.8-0.2
			s0.2-0.3,0.2-0.6v-5c0-0.2-0.1-0.3-0.3-0.3H260c-0.2,0-0.4,0.1-0.4,0.3v9.8c0,0.8-0.3,1.4-0.8,2c-0.5,0.5-1.2,0.8-2,0.8h0
			c-0.8,0-1.4-0.3-2-0.8c-0.5-0.5-0.8-1.2-0.8-2v-9.8c0-0.2-0.1-0.3-0.4-0.3h-7.8c-0.2,0-0.4,0.1-0.4,0.3v7.7c0,0.7-0.3,1.4-0.8,1.9
			s-1.2,0.8-1.9,0.8s-1.4-0.3-1.9-0.8c-0.5-0.5-0.8-1.2-0.8-1.9v-10c0-0.7,0.3-1.4,0.8-1.9c0.5-0.5,1.2-0.8,1.9-0.8h10.9
			c0.2,0,0.3-0.1,0.3-0.3c0-0.6,0.2-1.2,0.7-1.6c0.4-0.4,1-0.7,1.6-0.7h1c0.7,0,1.2,0.2,1.6,0.7c0.4,0.4,0.7,1,0.7,1.6
			c0,0.2,0.1,0.3,0.3,0.3H271.9z M253.7,68.2c0,0.1,0,0.2,0,0.3c0,0.3-0.1,0.5-0.2,0.8c-0.2,0.3-0.5,0.5-0.9,0.7c-0.1,0-0.2,0-0.3,0
			c-0.2,0-0.4-0.1-0.6-0.2c-0.3-0.2-0.4-0.4-0.5-0.8c-0.2-1.1-0.4-2.4-0.8-3.8c0-0.1,0-0.2,0-0.4c0-0.2,0-0.4,0.1-0.6
			c0.2-0.3,0.4-0.5,0.7-0.6c0.1,0,0.2,0,0.4,0c0.2,0,0.4,0,0.6,0.1c0.3,0.2,0.5,0.4,0.6,0.7C253.1,65.8,253.4,67,253.7,68.2z
			 M270.9,60.3c0-0.1,0-0.1,0-0.2c0-0.1-0.1-0.1-0.2-0.1h-4.8c-0.1,0-0.2,0-0.2,0.1c0,0.1-0.1,0.1,0,0.2c0.7,1.5,1.5,2.9,2.5,4.2
			c0.2,0.2,0.3,0.2,0.4,0C269.6,63.3,270.4,61.9,270.9,60.3z"/>
		<path fill="#757679" d="M323.4,85c0,0.8-0.3,1.4-0.8,2c-0.5,0.5-1.2,0.8-2,0.8h-5c0,0-0.1,0-0.1,0c0,0,0,0,0,0
			c3.7,1.2,7.4,2.6,11,4c0.5,0.2,0.7,0.6,0.7,1.1c0,0.5-0.2,0.9-0.7,1.1l-1.2,0.6c-0.8,0.3-1.6,0.5-2.4,0.5c-0.9,0-1.7-0.2-2.6-0.6
			c-2.5-1.1-5.2-2.3-8.3-3.4c-0.6-0.2-0.9-0.7-0.9-1.3c0-0.5,0.2-0.8,0.6-1.1l1.3-0.8c0,0,0-0.1,0-0.1c0,0,0-0.1-0.1-0.1h-12.6
			c0,0-0.1,0-0.1,0.1c0,0,0,0.1,0,0.1l1.3,0.6c0.6,0.2,0.8,0.7,0.8,1.3c0,0.5-0.2,0.9-0.7,1.2c-2.8,1.5-6.2,2.8-10.2,4.1
			c-0.4,0.1-0.9,0.2-1.3,0.2c-0.4,0-0.8,0-1.2-0.1c-0.8-0.2-1.5-0.6-2.1-1.3c-0.1-0.1-0.2-0.2-0.3-0.3c-0.3-0.3-0.5-0.6-0.5-1
			c0-0.2,0-0.3,0-0.4c0.2-0.6,0.5-0.9,1.1-1c4.1-0.9,7.5-2,10.2-3.3c0,0,0,0,0-0.1c0,0,0-0.1-0.1-0.1h-4.2c-0.8,0-1.4-0.3-2-0.8
			s-0.8-1.2-0.8-2V69.6c0-0.8,0.3-1.4,0.8-2c0.5-0.5,1.2-0.8,2-0.8h27c0.8,0,1.4,0.3,2,0.8c0.5,0.5,0.8,1.2,0.8,2V85z M323.2,53.2
			c0.7,0,1.4,0.3,1.9,0.8c0.5,0.5,0.8,1.2,0.8,2v6.2c0,0.7-0.3,1.4-0.8,1.9c-0.5,0.5-1.2,0.8-1.9,0.8h-32.1c-0.8,0-1.4-0.3-2-0.8
			c-0.5-0.5-0.8-1.2-0.8-1.9v-6.2c0-0.8,0.3-1.4,0.8-2c0.5-0.5,1.2-0.8,2-0.8H323.2z M298.9,60.7c0.2,0,0.3-0.1,0.3-0.3v-2.6
			c0-0.2-0.1-0.3-0.3-0.3h-5c-0.2,0-0.4,0.1-0.4,0.3v2.6c0,0.2,0.1,0.3,0.4,0.3H298.9z M296.9,70.4c-0.2,0-0.3,0.1-0.3,0.4v1.6
			c0,0.2,0.1,0.4,0.3,0.4h20.2c0.2,0,0.3-0.1,0.3-0.4v-1.6c0-0.2-0.1-0.4-0.3-0.4H296.9z M296.9,76c-0.2,0-0.3,0.1-0.3,0.4v1.7
			c0,0.2,0.1,0.3,0.3,0.3h20.2c0.2,0,0.3-0.1,0.3-0.3v-1.7c0-0.2-0.1-0.4-0.3-0.4H296.9z M296.9,81.8c-0.2,0-0.3,0.1-0.3,0.4v1.7
			c0,0.2,0.1,0.3,0.3,0.3h20.2c0.2,0,0.3-0.1,0.3-0.3v-1.7c0-0.2-0.1-0.4-0.3-0.4H296.9z M309.4,60.7c0.2,0,0.3-0.1,0.3-0.3v-2.6
			c0-0.2-0.1-0.3-0.3-0.3h-5.1c-0.2,0-0.4,0.1-0.4,0.3v2.6c0,0.2,0.1,0.3,0.4,0.3H309.4z M320.1,60.7c0.2,0,0.4-0.1,0.4-0.3v-2.6
			c0-0.2-0.1-0.3-0.4-0.3h-5.3c-0.2,0-0.3,0.1-0.3,0.3v2.6c0,0.2,0.1,0.3,0.3,0.3H320.1z"/>
		<path fill="#757679" d="M376.4,59.4c0.7,0,1.4,0.3,1.9,0.8c0.5,0.5,0.8,1.2,0.8,1.9v0.1c0,0.7-0.3,1.4-0.8,1.9
			c-0.5,0.5-1.2,0.8-1.9,0.8h-3.1c-0.2,0-0.4,0.1-0.4,0.3v22.5c0,1.6-0.2,2.8-0.5,3.7c-0.4,0.8-1,1.5-2,1.9c-1.1,0.6-3.1,0.9-5.9,1
			c-0.1,0-0.1,0-0.1,0c-0.7,0-1.3-0.2-1.9-0.7c-0.6-0.5-1-1.2-1.3-2c-0.1-0.2-0.1-0.4-0.2-0.7c-0.1-0.2-0.1-0.4-0.1-0.6
			c0-0.4,0.1-0.8,0.4-1.1c0.3-0.5,0.8-0.8,1.4-0.8h0c1,0,2.1,0,3.3,0c0.4,0,0.7-0.1,0.8-0.2c0.2-0.1,0.2-0.4,0.2-0.7V65.3
			c0-0.2-0.1-0.3-0.3-0.3h-4.6c-0.2,0-0.4,0.1-0.5,0.3c-0.9,2-1.8,3.8-2.8,5.3c-0.4,0.6-1,1-1.7,1.1c-0.1,0-0.2,0-0.4,0
			c-0.6,0-1.1-0.2-1.6-0.6c-0.1-0.1-0.2-0.2-0.3-0.2c-0.6-0.4-1-1-1.1-1.7c0-0.2,0-0.4,0-0.5c0-0.5,0.2-1,0.5-1.5
			c0.4-0.6,0.8-1.3,1.2-2c0.1-0.1,0.1-0.2,0-0.2c0-0.1-0.1-0.1-0.2-0.1h-5c-0.2,0-0.4,0.1-0.4,0.3v26.5c0,0.7-0.3,1.4-0.8,1.9
			c-0.5,0.5-1.2,0.8-1.9,0.8h-0.2c-0.7,0-1.4-0.3-1.9-0.8c-0.5-0.5-0.8-1.2-0.8-1.9V65.2c0-0.2-0.1-0.2-0.3-0.2
			c-0.2,0-0.3,0.1-0.3,0.2c-1,2.2-2,4.1-2.9,5.6c-0.4,0.6-0.9,1-1.7,1.1c-0.2,0-0.3,0-0.5,0c-0.6,0-1.1-0.2-1.5-0.5
			c-0.2-0.2-0.4-0.3-0.7-0.4c-0.6-0.4-1-0.9-1.1-1.6c-0.1-0.2-0.1-0.4-0.1-0.6c0-0.5,0.2-1,0.5-1.4c2.5-3.7,4.5-8.6,6-14.5
			c0.2-0.7,0.6-1.3,1.2-1.8c0.5-0.3,1-0.5,1.5-0.5c0.2,0,0.4,0,0.6,0l0.6,0.1c0.7,0.1,1.3,0.5,1.7,1.2c0.3,0.4,0.4,0.9,0.4,1.3
			c0,0.2,0,0.4-0.1,0.7c-0.4,1.6-1,3.3-1.6,5c0,0.1,0,0.2,0.1,0.2c0,0.1,0.1,0.1,0.2,0.1h7.7c0.7,0,1.4,0.3,1.9,0.8
			c0.5,0.5,0.8,1.2,0.8,1.9v0.3c0,0,0,0,0.1,0c0,0,0.1,0,0.1,0c1.4-3,2.5-6.1,3.3-9.5c0.2-0.7,0.6-1.3,1.3-1.8
			c0.5-0.3,1-0.5,1.5-0.5c0.2,0,0.4,0,0.6,0l0.3,0.1c0.7,0.1,1.3,0.5,1.7,1.2c0.3,0.4,0.4,0.8,0.4,1.3c0,0.2,0,0.5-0.1,0.7
			c-0.5,1.9-1,3.6-1.5,5.1c0,0.1,0,0.2,0.1,0.2c0,0.1,0.1,0.1,0.2,0.1H376.4z"/>
		<path fill="#757679" d="M425.9,70.9c0.7,0,1.4,0.3,1.9,0.8c0.5,0.5,0.8,1.2,0.8,1.9v0.2c0,0.7-0.3,1.4-0.8,1.9
			c-0.5,0.5-1.2,0.8-1.9,0.8h-15.7c-0.2,0-0.3,0.1-0.3,0.4V88c0,1.7-0.2,2.9-0.7,3.8c-0.4,0.9-1.2,1.5-2.3,1.9
			c-1.4,0.6-3.8,0.9-7.2,1c0,0-0.1,0-0.1,0c-0.7,0-1.4-0.2-2-0.7c-0.7-0.5-1.1-1.1-1.4-1.9c-0.1-0.3-0.2-0.5-0.3-0.8
			c-0.1-0.2-0.1-0.5-0.1-0.7c0-0.3,0.1-0.6,0.3-0.9c0.3-0.5,0.8-0.7,1.3-0.7h0c1.6,0,3.3,0,5.3,0c0.5,0,0.9-0.1,1.1-0.2
			c0.2-0.2,0.3-0.4,0.3-0.8v-11c0-0.2-0.1-0.4-0.4-0.4h-15.8c-0.7,0-1.4-0.3-1.9-0.8c-0.5-0.5-0.8-1.2-0.8-1.9v-0.2
			c0-0.7,0.3-1.4,0.8-1.9c0.5-0.5,1.2-0.8,1.9-0.8h15.8c0.2,0,0.4-0.1,0.4-0.4v-4.7c0-0.7,0.2-1.3,0.7-1.7c0.5-0.5,1.1-0.7,1.7-0.7
			c0.2,0,0.4,0,0.6-0.1c2.3-1.4,4.3-2.8,6.2-4.4c0.1,0,0.1-0.1,0-0.1c0-0.1-0.1-0.1-0.1-0.1h-20.4c-0.7,0-1.4-0.3-1.9-0.8
			c-0.5-0.5-0.8-1.2-0.8-1.9v-0.1c0-0.7,0.3-1.4,0.8-1.9c0.5-0.5,1.2-0.8,1.9-0.8h26.5c0.1,0,0.2,0,0.3,0c0.2,0,0.4,0,0.6,0
			c0.5,0,1,0.2,1.5,0.5l1.3,0.9c0.6,0.5,0.9,1.1,0.9,1.9c0,0.6-0.2,1.2-0.7,1.6c-3.9,3.7-8.3,7-13,9.8c-0.2,0.1-0.3,0.3-0.3,0.5v2.3
			c0,0.2,0.1,0.4,0.3,0.4H425.9z"/>
	</g>
	<linearGradient id="SVGID_1_" gradientUnits="userSpaceOnUse" x1="39.6721" y1="108.9758" x2="416.4919" y2="108.9758">
		<stop  offset="0" style="stop-color:#B3B5B8"/>
		<stop  offset="1" style="stop-color:#A9ABAE"/>
	</linearGradient>
	<path fill="url(#SVGID_1_)" d="M39.7,107.5c125.6-1.6,251.3,0.5,376.8,6.3c-0.1,0,0.1-2.9,0-2.9c-125.4-5.8-251.1-8-376.8-6.3
		C39.6,104.6,39.7,107.5,39.7,107.5L39.7,107.5z"/>
</g>
<g>
</g>
<g>
</g>
<g>
</g>
<g>
</g>
<g>
</g>
<g>
</g>
<g>
</g>
<g>
</g>
<g>
</g>
<g>
</g>
<g>
</g>
<g>
</g>
<g>
</g>
<g>
</g>
<g>
</g>
</svg>
