<?xml version="1.0" encoding="utf-8"?>
<!-- Generator: Adobe Illustrator 18.0.0, SVG Export Plug-In . SVG Version: 6.00 Build 0)  -->
<!DOCTYPE svg PUBLIC "-//W3C//DTD SVG 1.1//EN" "http://www.w3.org/Graphics/SVG/1.1/DTD/svg11.dtd">
<svg version="1.1" id="Layer_1" xmlns="http://www.w3.org/2000/svg" xmlns:xlink="http://www.w3.org/1999/xlink" x="0px" y="0px"
	 viewBox="0 0 7821.4 1152.4" enable-background="new 0 0 7821.4 1152.4" xml:space="preserve">
<g>
	<g>
		<g>
			<path fill="#58595B" d="M2553.5,788.8c0,0,1.8,47.8,5.7,67.2c3.2,15.6,2.7,31.8-5.5,45.2c-0.1,0.2-0.2,0.3-0.3,0.5
				c-4.8,8.1,0.6,18.7,9.5,18.7h81.7c10.8,0,19.6-8.7,19.6-19.5v-33.8L2553.5,788.8z"/>
		</g>
		<g>
			<path fill="#58595B" d="M2788.3,788.8c0,0-1.7,47.8-5.7,67.2c-3.2,15.6-2.7,31.8,5.5,45.2c0.1,0.2,0.2,0.3,0.3,0.5
				c4.8,8.1-0.6,18.7-9.5,18.7h-81.4c-10.8,0-19.6-8.7-19.6-19.5v-33.8L2788.3,788.8z"/>
		</g>
		<path fill="#58595B" d="M2861.8,693.7c0,0-41,4.3-70.3-13.5c-29.2-17.8-65.4-17.4-85.1,5c-11.1,12.7-9.2,34.3-0.6,48.9
			c35.7,61,115.4,28.1,161.8,11.4c2.5-0.9,9.2-2.4,9-3.1C2876.6,742.4,2861.8,693.7,2861.8,693.7z"/>
		<g>
			<path fill="#FFFFFF" d="M2596.1,679.2c2.2,1.6,4.8,2.5,7.5,2.7c18.8,1.1,60.4,3.7,70.3,4.3c0-0.1,0-0.1-0.1-0.1
				c0,0,3.6,0.3,3.9,0.4c0.3,0,3.9,0.2,3.9,0.2c0,0,0,0-0.1,0.1c10.3,1,55.1,5.4,72.4,7.1c4.5,0.4,23.9-4.1,26-0.3
				c8.2,14.3,16.2,58.8,9.9,102.2c-9.9,68.9-99.1,82-157.1,69.3c-13.3-2.9-26.3-7.5-38-14.2c-12.4-7.1-24-16-31-28.3
				c-7.8-13.7-11.9-29.5-12.3-45.1c-0.5-17,2.1-34,5.9-50.6c5.4-23.6,9.4-52.9,19.1-75.3C2579.9,643.9,2589.2,674.2,2596.1,679.2z"
				/>
		</g>
		<path fill="#58595B" d="M2784.6,703.4c0,0-30.7,45-116.9,44.4c-83.8-0.5-104.1-52-104.1-52l14.4-59.9l199.8,42.3L2784.6,703.4z"/>
		<path fill="#58595B" d="M2838.6,732.8l-0.2,43.2l18.1,0.1c9.9,0.1,18-8,18.1-17.9l0.1-25.3c0-8.9-7.2-16.2-16.1-16.3l-3.7,0
			C2845.9,716.6,2838.6,723.8,2838.6,732.8z"/>
		<path fill="#FFFFFF" d="M2878.6,634.7c0,0-62.2,48.9-59.3,113.7s59.3,77,59.3,77l12.3-176.7L2878.6,634.7z"/>
		<g>
			<path fill="#FFFFFF" d="M2853.4,784.8c0,0,1,34.6,5.3,57.4c3.5,18.4,3,37.5-6.1,53.2c-0.1,0.2-0.2,0.4-0.3,0.5
				c-5.3,9.5,0.7,22,10.4,22h89.8c11.9,0,21.6-10.3,21.6-23v-39.8L2853.4,784.8z"/>
		</g>
		<g>
			<path fill="#FFFFFF" d="M3117.6,784.8c0,0-1,34.6-5.3,57.4c-3.5,18.4-3,37.5,6.1,53.2c0.1,0.2,0.2,0.4,0.3,0.5
				c5.3,9.5-0.7,22-10.4,22h-89.8c-11.9,0-21.6-10.3-21.6-23v-39.8L3117.6,784.8z"/>
		</g>
		<g>
			<path fill="#FFFFFF" d="M3094.8,645.5l-19.5,12.6c-18.1-0.3-73-1.4-85.3-1.6c0-0.1,0-0.2,0.1-0.2c0,0-4.1,0.1-4.5,0.1
				c-0.4,0-4.5-0.1-4.5-0.1c0,0,0.1,0.1,0.1,0.2c-14.7,0.3-91,1.7-91,1.7s-41.1,52.2-37.7,118.8c3.7,72.1,71.5,100.3,133.1,97.7
				c42.3,1.7,87.5-11,112.9-42.5l0,0C3156.3,766.6,3094.8,645.5,3094.8,645.5z"/>
		</g>
		<g>
			<path fill="#EDEDEE" d="M3019.4,711.4c1.9-1.3,2.9-2.8,3-4.6c0.2-9-25.6-11.3-31.7-12.1c-17.9-2.4-35.9-3.3-53.8-5.3
				c-8.5-0.9-36.5-11.8-43.1-4.3c-11.6,13.1,57.3,31.5,66.5,32.1C2976.8,718.4,3005,721.3,3019.4,711.4z"/>
		</g>
		<path fill="#EDEDEE" d="M2850.4,730.4c-8.4,23.7-6.1,48.7-3.4,73.2c0.7,5.9,12.7,6,12-0.7c-2.5-22.6-5.1-46.4,2.6-68.3
			C2863.8,728.4,2852.4,724.8,2850.4,730.4L2850.4,730.4z"/>
		<path fill="#EDEDEE" d="M2925.3,873.4c13.9,2,27.7,4.5,41.4,7.6c6.7,1.5,11.1-8.5,3.4-10.2c-13.7-3-27.5-5.6-41.4-7.6
			c-3-0.4-6.5,1.1-7.5,4.1C2920.3,870.2,2922.4,873,2925.3,873.4L2925.3,873.4z"/>
		<circle fill="#EDEDEE" cx="2917.5" cy="510.9" r="29.4"/>
		<circle fill="#EDEDEE" cx="3059.3" cy="515.9" r="29.4"/>
		<path fill="#FFFFFF" d="M3071.4,511.9c-8.1-4-16.8-6.7-25.7-8c-5.1-0.7-35.8-2.5-50.4,0.8c-5.1,1.2-10.4,1.2-15.4,0
			c-14.6-3.4-45.3-1.5-50.4-0.8c-8.9,1.2-17.6,3.9-25.7,8c-34.1,17-56.8,56.8-53,96.3c4.1,42.8,39.3,70.6,73.2,88.4
			c0.4,0.2,1.3,0.6,2.5,1.1c39.3,16.1,82.9,16.1,122.2,0c1.3-0.5,2.1-0.9,2.5-1.1c33.9-17.8,69.1-45.6,73.2-88.4
			C3128.2,568.7,3105.5,528.9,3071.4,511.9z"/>
		<path fill="#EDEDEE" d="M2990.3,592.5h-10.6c-16.1,0-30,11.5-33.1,27.3l-4.3,22.5c-4,20.8,11.9,40.1,33.1,40.1h19.3
			c21.2,0,37.1-19.3,33.1-40.1l-4.3-22.5C3020.3,604,3006.5,592.5,2990.3,592.5z"/>
		<path fill="#5F6062" d="M2972.9,630.8h24.1c7.5,0,11.5,9.3,6.4,15.1l-7.4,8.3c-6.1,6.8-16,6.8-22.1,0l-7.4-8.3
			C2961.4,640.1,2965.4,630.8,2972.9,630.8z"/>
		<circle fill="#D1D3D4" cx="2931.1" cy="618.2" r="13.7"/>
		<circle fill="#5F6062" cx="2931.1" cy="618.2" r="8.6"/>
		<circle fill="#D1D3D4" cx="3038.5" cy="619.3" r="13.7"/>
		<circle fill="#5F6062" cx="3038.5" cy="619.3" r="8.6"/>
		<path fill="#5F6062" d="M2971.2,668.1c0,0,15.4,9.6,28.9,0"/>
		<path fill="#EDEDEE" d="M2981.2,512.8c0,7.8-0.1,15.6-0.3,23.4c-0.1,4.2,11.3,0.8,11.4-2.9c0.3-7.8,0.4-15.6,0.3-23.4
			C2992.6,505.6,2981.2,509.1,2981.2,512.8L2981.2,512.8z"/>
		<polygon fill="#FFFFFF" points="3087.7,640.9 3203,657.7 3203,741.1 3095.1,760.2 		"/>
		<rect x="3163.1" y="596.5" fill="#BCBEC0" width="36.3" height="321.6"/>
		<path fill="#FFFFFF" d="M3199.4,745L3199.4,745c-17.1,0-31-14-31-31v-33.5c0-17.1,14-31,31-31h0c17.1,0,31,14,31,31V714
			C3230.4,731,3216.5,745,3199.4,745z"/>
		<path fill="#D1D3D4" d="M3223.7,633.3h-84.9c-34.7,0-62.9-28.2-62.9-62.9v-21c0-34.7,28.2-62.9,62.9-62.9h84.9
			c34.7,0,62.9,28.2,62.9,62.9v21C3286.6,605.1,3258.4,633.3,3223.7,633.3z"/>
		<path fill="#58595B" d="M2602.5,663.4c-6.9-1.8-13-2.4-18.5-2.1l-0.5-0.5c-0.9,0.2-1.7,0.5-2.6,0.7c-5.5,0.6-10.5,2.2-15.1,4.5
			c-2.5,1.1-5.1,2.3-7.6,3.6c-14.8,6.2-28.9,14.1-41.7,23.9c-16,12.3-27.7,23.6-48.5,27.7c-8.8,1.7-15.6,5.2-16.4,15
			c-0.9,11,2.1,21.9,5.7,32.2c3.4,9.7,8.7,15.5,17.8,20.3c20.1,10.8,54.3,7.1,106.5-15.5c1-0.4,1.9-0.8,2.9-1.2
			c0.4-0.2,0.7-0.3,1.1-0.5c62.1-27.8,53.2-64.2,53.2-64.2C2638.1,688.8,2621,668.2,2602.5,663.4z"/>
		<path fill="#F1625B" d="M2589.5,558.5l-56.4,44c-6.1,4.8-5.6,14.2,1.1,18.3l16.6,10.1c5,3.1,11.6,1.6,14.9-3.2l34.9-51.1
			L2589.5,558.5z"/>
		<path fill="#F1625B" d="M2597,556l-71.4-5.3c-7.8-0.6-13.7,6.8-11.5,14.2l5.5,18.6c1.7,5.7,7.5,9,13.2,7.6l60.2-14.4L2597,556z"/>
		
			<ellipse transform="matrix(-0.9889 0.1486 -0.1486 -0.9889 5267.8115 667.4897)" fill="#58595B" cx="2609" cy="530.5" rx="24.2" ry="25.1"/>
		
			<ellipse transform="matrix(-0.9889 0.1486 -0.1486 -0.9889 5426.96 629.5657)" fill="#58595B" cx="2690" cy="517.5" rx="24.2" ry="25.1"/>
		<path fill="#FFFFFF" d="M2798.3,648.2c10.7-42.9-18.2-75.3-42.4-107.4c-13.7-18.2-37.4-30.6-60.2-29.9
			c-60.4,1.9-112.7,16-122.6,69.1c-1.6,8.6-3.2,33.7-4.8,42.3c-2,10.7-2.3,21.4-1.1,31.5c2.5,21,14.2,38.1,33.1,47.8
			c30.4,15.6,57.6,17.1,90.9,14.8c30.8-2.1,76-12.3,94.5-39.6C2791.5,668.3,2795.8,658.5,2798.3,648.2z"/>
		<g>
			<path fill="#F1625B" d="M2725.3,516.9c0,0,25.9,9.2,42.7,39.7l-196.6,39.9c0,0,0-32.9,16.9-49.5L2725.3,516.9z"/>
		</g>
		<g>
			<polygon fill="#FFFFFF" points="2609.3,563 2610.6,556.1 2615.3,561.3 2622.3,560.3 2618.8,566.5 2621.9,572.8 2615,571.4 
				2609.9,576.2 2609.1,569.2 2602.9,565.9 			"/>
			<polygon fill="#FFFFFF" points="2621,553.5 2621.4,551.7 2622.6,553.1 2624.5,552.8 2623.5,554.5 2624.4,556.2 2622.5,555.8 
				2621.2,557.1 2621,555.2 2619.3,554.3 			"/>
			<polygon fill="#FFFFFF" points="2629.3,557.9 2629.7,556.1 2630.9,557.5 2632.8,557.2 2631.8,558.9 2632.6,560.6 2630.8,560.2 
				2629.5,561.5 2629.3,559.6 2627.6,558.7 			"/>
			<polygon fill="#FFFFFF" points="2631.6,567.4 2632,565.6 2633.2,567 2635.1,566.7 2634.2,568.4 2635,570 2633.1,569.7 
				2631.8,571 2631.6,569.1 2629.9,568.2 			"/>
			<polygon fill="#FFFFFF" points="2626,573.9 2626.3,572.1 2627.6,573.5 2629.4,573.2 2628.5,574.8 2629.3,576.5 2627.5,576.1 
				2626.1,577.4 2625.9,575.6 2624.3,574.7 			"/>
		</g>
		<path fill="#58595B" d="M2640.4,607.8c7.7-11.8,19.8-21.8,32.5-23.9c23.2-3.8,37,21.2,32.4,41.4c-5.4,24-30.8,37.7-54.1,30.2
			c-12.9-4.1-21.5-15.3-18.8-29.1C2633.7,620.3,2636.5,613.8,2640.4,607.8z"/>
		<path fill="#58595B" d="M2786,593c-5.8-9.7-17.3-18.9-27.1-18.9c-19.6,0.1-25.8,15.2-22.5,31.5c4,19.4,20.6,32.7,38.4,27.2
			c9.8-3,19.1-13.6,17.1-24.7C2791.1,603.1,2789,597.9,2786,593z"/>
		
			<ellipse transform="matrix(1 7.829929e-003 -7.829929e-003 1 4.8668 -21.0575)" fill="#FFFFFF" cx="2691.8" cy="611" rx="7.9" ry="8.2"/>
		
			<ellipse transform="matrix(-1 -7.829975e-003 7.829975e-003 -1 5378.9141 1243.1073)" fill="#58595B" cx="2691.9" cy="611" rx="6" ry="6.2"/>
		<path fill="#58595B" d="M2701.1,612.8l-18.5-5.8c0,0,7-8.2,12-6.1S2701.5,606.5,2701.1,612.8z"/>
		<path fill="#58595B" d="M2744.6,648.5c-9.2,2.6-24.1,5.6-37.6,3.2c-2.9-0.5-4.5,3.2-2.3,5.2c9,8.1,25.4,16.7,42.9-3.5
			C2749.6,651.2,2747.4,647.7,2744.6,648.5z"/>
		<path fill="#58595B" d="M2744,633.4c-0.1,2-0.1,3.7,0,5.4l0.2,4.8c0.1,1.6,0.1,3.1,0.1,4.7c0,0.4,0,0.8,0,1.2l-0.1,1.3
			c0,0.2,0,0.4,0,0.7c0,0.2,0,0.4,0,0.7c0,0.5,0,0.9,0,1.5l0.2,0.2c0.9-1.5,1.7-3.1,2.1-4.9c0.4-1.7,0.6-3.5,0.6-5.3
			c-0.1-1.8-0.4-3.5-0.8-5.3c-0.5-1.7-1.1-3.4-2-4.9L2744,633.4z"/>
		<path fill="#FFFFFF" d="M2735.1,653c0,0,0.9,3.5-4.1,4.6c-5,1.1-10.1,1.2-11.4-3.1C2719.6,654.5,2728.5,655.3,2735.1,653z"/>
		
			<ellipse transform="matrix(-0.9956 -9.331972e-002 9.331972e-002 -0.9956 5437.8418 1442.6382)" fill="#FFFFFF" cx="2752.7" cy="594.2" rx="6.1" ry="6.3"/>
		
			<ellipse transform="matrix(0.9956 9.331973e-002 -9.331973e-002 0.9956 67.4605 -254.2838)" fill="#58595B" cx="2752.7" cy="594.2" rx="4.5" ry="4.6"/>
		<path fill="#58595B" d="M2747.1,598.7l11-10.1c0,0-7.5-3.4-10.3-0.3C2744.9,591.4,2744.7,594.5,2747.1,598.7z"/>
		<path fill="#FFFFFF" d="M2726.7,580.1c0,0,19.6,9.9,27.6,32.7l-33.4-1.2L2726.7,580.1z"/>
		<path fill="#58595B" d="M2744.1,608.9l-14.5,4c-5.7,1.6-9.1,7.4-7.6,12.9l0,0.1c0.8,3,3,5.5,6,6.8l8.6,3.6c4.6,1.9,10,0.5,13-3.5
			l5.8-7.7c2-2.6,2.6-5.9,1.8-9l0,0C2755.7,610.5,2749.8,607.3,2744.1,608.9z"/>
		<g>
			<path fill="#FFFFFF" d="M3120.1,563.2c0.2,1.5,0.6,2.7,1.3,3.5c1.2,1.4,3.2,2.1,6,2.1c1.7,0,3.1-0.2,4.2-0.6c2-0.7,3-2,3-3.9
				c0-1.1-0.5-2-1.5-2.6c-1-0.6-2.6-1.1-4.7-1.6l-3.7-0.8c-3.6-0.8-6.1-1.7-7.4-2.6c-2.3-1.6-3.4-4-3.4-7.3c0-3,1.1-5.6,3.4-7.6
				c2.2-2,5.5-3,9.9-3c3.6,0,6.7,0.9,9.3,2.8c2.6,1.9,3.9,4.6,4,8.2h-6.8c-0.1-2-1-3.5-2.7-4.3c-1.1-0.6-2.5-0.9-4.2-0.9
				c-1.9,0-3.4,0.4-4.5,1.1c-1.1,0.7-1.7,1.8-1.7,3.1c0,1.2,0.6,2.1,1.7,2.7c0.7,0.4,2.2,0.9,4.5,1.4l6,1.4c2.6,0.6,4.6,1.4,5.9,2.5
				c2,1.6,3,3.9,3,6.9c0,3.1-1.2,5.7-3.6,7.7c-2.4,2-5.8,3.1-10.1,3.1c-4.5,0-8-1-10.5-3c-2.6-2-3.8-4.8-3.8-8.3H3120.1z"/>
			<path fill="#FFFFFF" d="M3160.8,539.8h8l12,33.9h-7.7l-2.2-7h-12.5l-2.3,7h-7.4L3160.8,539.8z M3160.3,560.9h8.7l-4.3-13.3
				L3160.3,560.9z"/>
			<path fill="#FFFFFF" d="M3189.8,539.8h7.1v27.8h16.9v6.1h-24V539.8z"/>
			<path fill="#FFFFFF" d="M3248.4,545.8h-17.9v7.2h16.5v5.9h-16.5v8.7h18.8v6.1h-25.7v-33.9h24.9V545.8z"/>
		</g>
	</g>
	<g>
		<path fill="#F1625B" d="M4643.8,552.6l68.5,20.7c7.4,2.3,10.3,11.3,5.6,17.4l-11.9,15.4c-3.6,4.7-10.2,5.7-15.1,2.4l-51-35.1
			L4643.8,552.6z"/>
		<path fill="#F1625B" d="M4636.1,544.8l69.1-18.5c7.5-2,14.7,4.1,13.9,11.8l-1.9,19.4c-0.6,5.9-5.7,10.3-11.6,10l-61.8-2.9
			L4636.1,544.8z"/>
		<path fill="#4F4F51" d="M4298.3,677.6c0-7.1,0.8-13.2,2.5-18.5l-0.4-0.6c0.4-0.8,0.9-1.5,1.3-2.3c2-5.2,4.7-9.6,8-13.5
			c1.7-2.2,3.5-4.4,5.3-6.5c9.6-12.8,20.7-24.6,33.3-34.6c15.8-12.6,29.7-21.1,38.7-40.2c2.8-5.9,6.9-13.2,14.6-12.6
			c11.6,0.9,21.9,8.2,32.2,13c10.7,4.9,14.1,11.7,17,22.9c5.6,22.2-6.3,54.4-41,99.5c-0.6,0.8-1.3,1.6-1.9,2.5
			c-0.2,0.3-0.5,0.6-0.7,0.9c-42.2,53.4-75.2,35.9-75.2,35.9C4314.3,718.3,4298.4,696.8,4298.3,677.6z"/>
		<path fill="#FFFFFF" d="M4448.6,633.2c0,0-20.9,14.3-41.7,37.3l82.2,82.1l-23.8-118L4448.6,633.2z"/>
		<path fill="#58595B" d="M4406.9,670.5c-18.5,20.5-36.9,47.9-40.3,78.2c-7.2,64.4,44.4,80.7,44.4,80.7s59.4,18.4,78.2-76.8
			l-7.6-37.8L4406.9,670.5z"/>
		<path fill="#FFFFFF" d="M4649,633.2c0,0,20.9,14.3,41.7,37.3l-82.2,82.1l23.8-118L4649,633.2z"/>
		<path fill="#58595B" d="M4690.7,670.5c18.5,20.5,36.9,47.9,40.3,78.2c7.2,64.4-44.4,80.7-44.4,80.7s-59.4,18.4-78.2-76.8l7.6-37.8
			L4690.7,670.5z"/>
		<g>
			<path fill="#58595B" d="M4166.6,758.2c0,0-34.6,33-46.5,48.9c-9.6,12.7-22,23.2-37.5,25.8c-0.2,0-0.4,0.1-0.5,0.1
				c-9.2,1.8-13.6,12.9-7.7,19.5l54.2,61.1c7.2,8.1,19.6,8.9,27.6,1.7l65.5-48.1L4166.6,758.2z"/>
		</g>
		<g>
			<path fill="#58595B" d="M4376.9,791c0,0-1.7,47.8-5.7,67.2c-3.2,15.6-2.7,31.8,5.5,45.2c0.1,0.2,0.2,0.3,0.3,0.5
				c4.8,8.1-0.6,18.7-9.5,18.7h-81.4c-10.8,0-19.6-8.7-19.6-19.5v-33.8L4376.9,791z"/>
		</g>
		<g>
			<path fill="#FFFFFF" d="M4184.8,681.4c2.2,1.6,4.8,2.5,7.5,2.7c18.8,1.1,60.4,3.7,70.3,4.3c0-0.1,0-0.1-0.1-0.1
				c0,0,3.6,0.3,3.9,0.4c0.3,0,3.9,0.2,3.9,0.2c0,0,0,0-0.1,0.1c10.3,1,55.1,5.4,72.4,7.1c4.5,0.4,23.9-4.1,26-0.3
				c8.2,14.3,16.2,58.8,9.9,102.2c-9.9,68.9-99.1,82-157.1,69.3c-13.3-2.9-26.3-7.5-38-14.2c-12.4-7.1-24-16-31-28.3
				c-7.8-13.7-11.9-29.5-12.3-45.1c-0.5-17,2.1-34,5.9-50.6c5.4-23.6,9.4-52.9,19.1-75.3C4168.5,646.1,4177.9,676.4,4184.8,681.4z"
				/>
		</g>
		<path fill="#58595B" d="M4373.3,705.6c0,0-30.7,45-116.9,44.4c-83.8-0.5-104.1-52-104.1-52l14.4-59.9l199.8,42.3L4373.3,705.6z"/>
		<path fill="#58595B" d="M4405.1,735l-0.2,43.2l18.1,0.1c9.9,0.1,18-8,18.1-17.9l0.1-25.3c0-8.9-7.2-16.2-16.1-16.3l-3.7,0
			C4412.4,718.8,4405.1,726,4405.1,735z"/>
		<g>
			<path fill="#58595B" d="M4419.9,787c0,0,1,34.6,5.3,57.4c3.5,18.4,3,37.5-6.1,53.2c-0.1,0.2-0.2,0.4-0.3,0.5
				c-5.3,9.5,0.7,22,10.4,22h89.8c11.9,0,21.6-10.3,21.6-23v-39.8L4419.9,787z"/>
		</g>
		<g>
			<path fill="#58595B" d="M4684.1,787c0,0-1,34.6-5.3,57.4c-3.5,18.4-3,37.5,6.1,53.2c0.1,0.2,0.2,0.4,0.3,0.5
				c5.3,9.5-0.7,22-10.4,22h-89.8c-11.9,0-21.6-10.3-21.6-23v-39.8L4684.1,787z"/>
		</g>
		<g>
			<path fill="#FFFFFF" d="M4661.3,647.7l-19.5,12.6c-18.1-0.3-73-1.4-85.3-1.6c0-0.1,0-0.2,0.1-0.2c0,0-4.1,0.1-4.5,0.1
				c-0.4,0-4.5-0.1-4.5-0.1c0,0,0.1,0.1,0.1,0.2c-14.7,0.3-91,1.7-91,1.7s-41.1,52.2-37.7,118.8c3.7,72.1,71.5,100.3,133.1,97.7
				c42.3,1.7,87.5-11,112.9-42.5l0,0C4722.8,768.8,4661.3,647.7,4661.3,647.7z"/>
		</g>
		<g>
			<path fill="#EDEDEE" d="M4586,713.6c1.9-1.3,2.9-2.8,3-4.6c0.2-9-25.6-11.3-31.7-12.1c-17.9-2.4-35.9-3.3-53.8-5.3
				c-8.5-0.9-36.5-11.8-43.1-4.3c-11.6,13.1,57.3,31.5,66.5,32.1C4543.3,720.6,4571.5,723.5,4586,713.6z"/>
		</g>
		<circle fill="#EDEDEE" cx="4484" cy="513.1" r="29.4"/>
		<circle fill="#EDEDEE" cx="4625.8" cy="518.1" r="29.4"/>
		<path fill="#FFFFFF" d="M4637.9,514.1c-8.1-4-16.8-6.7-25.7-8c-5.1-0.7-35.8-2.5-50.4,0.8c-5.1,1.2-10.4,1.2-15.4,0
			c-14.6-3.4-45.3-1.5-50.4-0.8c-8.9,1.2-17.6,3.9-25.7,8c-34.1,17-56.8,56.8-53,96.3c4.1,42.8,39.3,70.6,73.2,88.4
			c0.4,0.2,1.3,0.6,2.5,1.1c39.3,16.1,82.9,16.1,122.2,0c1.3-0.5,2.1-0.9,2.5-1.1c33.9-17.8,69.1-45.6,73.2-88.4
			C4694.7,570.9,4672,531.1,4637.9,514.1z"/>
		<path fill="#EDEDEE" d="M4556.8,564h-10.6c-16.1,0-30,11.5-33.1,27.3l-4.3,22.5c-4,20.8,11.9,40.1,33.1,40.1h19.3
			c21.2,0,37.1-19.3,33.1-40.1l-4.3-22.5C4586.8,575.4,4573,564,4556.8,564z"/>
		<path fill="#5F6062" d="M4539.4,602.2h24.1c7.5,0,11.5,9.3,6.4,15.1l-7.4,8.3c-6.1,6.8-16,6.8-22.1,0l-7.4-8.3
			C4527.9,611.6,4531.9,602.2,4539.4,602.2z"/>
		<circle fill="#D1D3D4" cx="4497.6" cy="589.6" r="13.7"/>
		<circle fill="#5F6062" cx="4497.6" cy="589.6" r="8.6"/>
		<circle fill="#D1D3D4" cx="4605" cy="590.7" r="13.7"/>
		<circle fill="#5F6062" cx="4605" cy="590.7" r="8.6"/>
		<g>
			<path fill="#5F6062" d="M4537.7,641.4c0.8-1.2,1.8-2.2,2.8-3.1c1.2-0.5,2.5-1,3.8-1.3c2.6-0.8,5.2-1.2,7.9-1.3
				c2.7-0.1,5.4,0.2,8,1c0.6,0.2,1.3,0.4,1.9,0.6c0.6,0.3,1.2,0.5,1.9,0.8c0.5,0.5,1,1,1.4,1.6c0.4,0.6,0.8,1.1,1.2,1.7
				c-0.7-0.1-1.4-0.2-2-0.3c-0.3,0-0.6-0.1-1-0.2c-0.3-0.1-0.7-0.1-1-0.1c-0.5-0.2-1.1-0.5-1.6-0.7c-0.6-0.2-1.1-0.4-1.7-0.5
				c-2.3-0.7-4.7-1-7.1-0.9c-2.4,0.1-4.8,0.5-7.1,1.2c-1.2,0.4-2.3,0.7-3.4,1.2C4540.4,641.1,4539.1,641.3,4537.7,641.4z"/>
		</g>
		<path fill="#EDEDEE" d="M4547.7,515c0,7.8-0.1,15.6-0.3,23.4c-0.1,4.2,11.3,0.8,11.4-2.9c0.3-7.8,0.4-15.6,0.3-23.4
			C4559.1,507.8,4547.7,511.3,4547.7,515L4547.7,515z"/>
		<path fill="#58595B" d="M4196.7,664.6c6.6,2.2,11.9,5,16.3,8.2l0.7-0.1c0.6,0.7,1.1,1.3,1.7,2c4.2,3.5,7.4,7.4,9.9,11.8
			c1.5,2.3,2.9,4.6,4.3,7c8.8,13,1.5,32,6.6,46.9c6.5,18.6,24.6,29.2,39.3,43.6c4.6,4.5,9.9,10.6,7,17.5
			c-4.5,10.4-14.7,17.6-22.3,25.6c-8,8.3-15.4,9.3-26.6,8.3c-22.2-2-58.8-5.5-89.3-52.1c-0.6-0.8-1.1-1.7-1.7-2.6
			c-0.2-0.3-0.4-0.6-0.6-1c-35.8-56.1,1.6-98.7,1.6-98.7C4154,666.3,4179,658.6,4196.7,664.6z"/>
		
			<ellipse transform="matrix(-0.9668 -0.2556 0.2556 -0.9668 8045.0718 2145.4441)" fill="#58595B" cx="4161.9" cy="550" rx="24.6" ry="25.6"/>
		
			<ellipse transform="matrix(-0.9751 0.2217 -0.2217 -0.9751 8598.6006 79.5385)" fill="#58595B" cx="4294.8" cy="522.4" rx="24.6" ry="25.6"/>
		<path fill="#FFFFFF" d="M4382.8,643.9c6-35.4-14.7-71.2-38.9-95.4c-32.9-32.8-83.5-41.8-127.1-27.9
			c-40.2,12.8-65.4,47.9-72.5,88.5c-4.5,25.8-5.1,57.3,10.5,79.7c26.7,38.4,83.1,38.5,124.3,32.6c31.2-4.5,76.4-18.2,93.1-47.5
			C4377.4,664.8,4381,654.5,4382.8,643.9z"/>
		<path fill="#58595B" d="M4213.6,615.2c7-12.6,18.5-23.7,31.2-26.8c23.3-5.6,39.2,18.8,36.1,39.6c-3.7,24.9-28.5,40.7-52.7,34.9
			c-13.4-3.2-23.1-14-21.3-28.2C4207.7,628.4,4210,621.6,4213.6,615.2z"/>
		<path fill="#58595B" d="M4366.1,588.6c-6.7-9.4-19.1-17.9-29-17.1c-20,1.6-25.1,17.4-20.5,33.7c5.5,19.4,23.5,31.7,41.1,24.8
			c9.8-3.8,18.4-15.3,15.6-26.4C4372,598.6,4369.5,593.4,4366.1,588.6z"/>
		
			<ellipse transform="matrix(0.9978 -6.659738e-002 6.659738e-002 0.9978 -31.4568 285.4736)" fill="#FFFFFF" cx="4266.1" cy="614.6" rx="8.1" ry="8.4"/>
		<path fill="#58595B" d="M4335.2,641.2c-11.5,4.7-30.3,10.9-48,9.9c-3.8-0.2-5.4,4.8-2.2,7.1c12.9,9.1,35.3,17.7,54.9-11
			C4342.1,643.9,4338.7,639.7,4335.2,641.2z"/>
		<path fill="#FFFFFF" d="M4326,647c1.8-0.8,3.6,0.9,3,2.8c-0.6,1.9-2.3,4-6.3,5.5c-7,2.8-14.4,4.5-19,1.3c-1.7-1.1-1-3.8,1-4
			C4309.8,651.8,4318.6,650.3,4326,647z"/>
		
			<ellipse transform="matrix(-0.9998 -1.897785e-002 1.897785e-002 -0.9998 8652.4463 1266.8807)" fill="#FFFFFF" cx="4332.2" cy="592.4" rx="6.2" ry="6.4"/>
		<path fill="#FFFFFF" d="M4304.8,580c0,0,20.7,8.6,30.5,31.2l-34.1,1.3L4304.8,580z"/>
		<path fill="#58595B" d="M4324.6,608l-14.4,5.2c-5.7,2-8.7,8.2-6.8,13.7l0,0.1c1.1,3,3.5,5.4,6.6,6.4l9.1,3
			c4.8,1.6,10.2-0.3,12.9-4.5l5.3-8.3c1.8-2.8,2.2-6.2,1.1-9.3l0,0C4336.5,608.8,4330.3,605.9,4324.6,608z"/>
		<g>
			<path fill="#EDEDEE" d="M4486.3,574.2c1.1-1.2,2.1-2.1,3-3.1c1,0,2-0.2,2.9-0.4c1.9-0.4,3.8-0.9,5.6-1.6c1.8-0.7,3.4-1.7,4.9-2.8
				l1.1-0.9l0.5-0.5c0.1-0.1,0.2-0.2,0.2-0.3c0.1-0.1,0.1-0.2,0.3-0.2c0.3,0,0.7,0,1,0c0.3,0,0.6-0.1,1-0.1c0.7-0.1,1.4-0.2,2.2-0.3
				c0.2,0.8,0.2,1.5,0.3,2.3c0,0.8,0,1.5-0.1,2.3c0,0.2-0.2,0.3-0.3,0.3c-0.1,0.1-0.2,0.2-0.3,0.3l-0.7,0.7l-1.4,1.2
				c-1.9,1.5-4,2.8-6.3,3.7c-2.2,0.9-4.5,1.6-6.8,2c-1.2,0.2-2.3,0.3-3.5,0.5C4488.5,576.4,4487.3,575.5,4486.3,574.2z"/>
		</g>
		<g>
			<path fill="#EDEDEE" d="M4616.4,574.2c-1,1.3-2.2,2.1-3.5,2.9c-1.2-0.2-2.3-0.3-3.5-0.5c-2.3-0.4-4.6-1.1-6.8-2
				c-2.2-0.9-4.3-2.2-6.3-3.7l-1.4-1.2l-0.7-0.7c-0.1-0.1-0.2-0.2-0.3-0.3c-0.1-0.1-0.3-0.1-0.3-0.3c-0.1-0.7-0.2-1.5-0.1-2.3
				c0-0.8,0.1-1.5,0.3-2.3c0.8,0.1,1.6,0.2,2.2,0.3c0.4,0,0.7,0.1,1,0.1c0.3,0,0.7,0,1,0c0.2,0,0.2,0.1,0.3,0.2
				c0.1,0.1,0.2,0.2,0.2,0.3l0.5,0.5l1.1,0.9c1.5,1.1,3.1,2.1,4.9,2.8c1.8,0.7,3.7,1.3,5.6,1.6c1,0.2,1.9,0.3,2.9,0.4
				C4614.3,572.1,4615.3,573,4616.4,574.2z"/>
		</g>
		<g>
			<path fill="#58595B" d="M4259.6,612.7c0.8-0.6,1.8-1.1,2.8-1.5c1-0.1,2-0.2,3-0.1c1,0,2.1,0.1,3.1,0.3c0.5,0.1,1,0.3,1.5,0.4
				c0.3,0.1,0.5,0.2,0.8,0.3c0.4,0.2,0.7,0.5,0.9,0.9c0.4,0.7,0.4,1.6,0,2.4c-0.2,0.4-0.5,0.7-0.8,0.9c-0.2,0.1-0.4,0.2-0.6,0.3
				l-0.3,0.1c-0.9,0.3-1.8,0.6-2.7,1c-0.9,0.4-1.7,0.7-2.5,1.2c-0.9,0.2-1.8,0.4-2.7,1c0.2-1.1,1-1.9,1.7-2.7
				c0.9-0.5,1.8-0.9,2.7-1.3c0.9-0.4,1.9-0.7,2.8-1l0.4-0.1c0,0,0.1,0,0.1,0c0.1,0,0.1-0.1,0.1-0.1c0.1-0.1,0.1-0.3,0-0.4
				c0-0.1-0.1-0.1-0.1-0.1c-0.1-0.1-0.4-0.1-0.6-0.2c-0.4-0.2-0.8-0.3-1.3-0.4c-0.9-0.2-1.8-0.3-2.7-0.3c-0.9,0-1.8,0-2.8,0.1
				C4261.6,613,4260.6,612.9,4259.6,612.7z"/>
		</g>
		<g>
			<path fill="#58595B" d="M4335.6,587.4c-0.6,0.8-1.1,1.5-1.6,2.2c-0.7,0.5-1.3,1-1.9,1.5c-0.6,0.6-1.2,1.1-1.6,1.8
				c-0.2,0.3-0.4,0.6-0.6,1c-0.1,0.1-0.2,0.4-0.2,0.5c0,0,0,0.1,0,0.1c0,0.1,0.1,0.2,0.2,0.2c0,0,0.1,0,0.1,0c0,0,0,0,0.1,0l0.3-0.1
				c0.8-0.4,1.6-0.7,2.5-1c0.9-0.3,1.7-0.6,2.6-0.7c1,0.1,2,0.3,2.8,0.9c-0.9,0.2-1.7,0.6-2.4,1c-0.8,0.1-1.6,0.4-2.4,0.7
				c-0.8,0.3-1.6,0.6-2.4,0.9l-0.3,0.1c-0.2,0.1-0.4,0.1-0.6,0.2c-0.4,0.1-0.8,0-1.2-0.1c-0.7-0.3-1.3-0.9-1.4-1.7
				c-0.1-0.4,0-0.8,0.1-1.2c0.1-0.3,0.2-0.5,0.3-0.7c0.2-0.4,0.5-0.8,0.8-1.2c0.6-0.8,1.2-1.4,1.9-2.1c0.7-0.6,1.4-1.2,2.1-1.7
				C4333.7,587.7,4334.6,587.5,4335.6,587.4z"/>
		</g>
		<path fill="#F1625B" d="M4463.3,518.1H4645c0,0,26.9,15.8,36.5,41.2l-255.7,2.1C4425.8,561.4,4433.6,536,4463.3,518.1z"/>
		<g>
			<polygon fill="#FFFFFF" points="4616.6,533.9 4619.4,527.4 4622.8,533.6 4629.8,534.4 4625,539.5 4626.4,546.4 4620,543.4 
				4613.9,546.9 4614.9,539.9 4609.6,535.1 			"/>
			<polygon fill="#FFFFFF" points="4630.2,527.5 4630.9,525.8 4631.8,527.4 4633.7,527.6 4632.4,529 4632.8,530.8 4631.1,530 
				4629.5,530.9 4629.7,529.1 4628.3,527.8 			"/>
			<polygon fill="#FFFFFF" points="4637.2,533.7 4637.9,532 4638.8,533.7 4640.7,533.9 4639.4,535.2 4639.8,537.1 4638.1,536.2 
				4636.5,537.2 4636.7,535.3 4635.3,534.1 			"/>
			<polygon fill="#FFFFFF" points="4637.2,543.5 4637.9,541.8 4638.8,543.4 4640.7,543.6 4639.4,545 4639.8,546.8 4638.1,546 
				4636.5,547 4636.7,545.1 4635.3,543.8 			"/>
			<polygon fill="#FFFFFF" points="4630.1,548.4 4630.9,546.7 4631.8,548.4 4633.7,548.6 4632.4,549.9 4632.7,551.8 4631.1,551 
				4629.4,551.9 4629.7,550 4628.3,548.8 			"/>
		</g>
	</g>
	<g>
		<g>
			<path fill="#4F4F51" d="M5733.9,658.1c3.6-6.2,7.4-10.9,11.5-14.7v-0.7c0.8-0.4,1.6-0.9,2.3-1.3c4.3-3.5,8.9-5.9,13.8-7.6
				c2.6-1,5.2-2,7.9-2.9c14.8-6.2,30.3-10.8,46.2-13c20-2.8,36.3-3.2,53.7-15.2c5.4-3.7,12.6-7.9,18.9-3.5
				c9.6,6.6,14.8,18.2,21.2,27.5c6.8,9.7,6.3,17.3,3.1,28.4c-6.4,21.9-32.9,43.7-85.7,65.1c-1,0.4-1.9,0.8-2.9,1.2
				c-0.4,0.1-0.7,0.3-1.1,0.4c-63.4,24.8-83.1-7-83.1-7C5727.1,701.3,5724.3,674.7,5733.9,658.1z"/>
			<path fill="#58595B" d="M5896.6,665.4L5896.6,665.4c-14.4,3.5-29-5.4-32.5-19.7l-4.3-17.4c-3.5-14.4,5.4-29,19.7-32.5h0
				c14.4-3.5,29,5.4,32.5,19.7l4.3,17.4C5919.9,647.3,5911,661.9,5896.6,665.4z"/>
			<path fill="#F1625B" d="M6177.8,512.7l68.5,20.7c7.4,2.3,10.3,11.3,5.6,17.4l-11.9,15.4c-3.6,4.7-10.2,5.7-15.1,2.4l-51-35.1
				L6177.8,512.7z"/>
			<path fill="#F1625B" d="M6170.1,504.8l69.1-18.5c7.5-2,14.7,4.1,13.9,11.8l-1.9,19.4c-0.6,5.9-5.7,10.3-11.6,10l-61.8-2.9
				L6170.1,504.8z"/>
			<path fill="#FFFFFF" d="M5982.6,593.3c0,0-20.9,14.3-41.7,37.3l82.2,82.1l-23.8-118L5982.6,593.3z"/>
			<path fill="#58595B" d="M5940.9,630.6c-18.5,20.5-36.9,47.9-40.3,78.2c-7.2,64.4,44.4,80.7,44.4,80.7s59.4,18.4,78.2-76.8
				l-7.6-37.8L5940.9,630.6z"/>
			<path fill="#FFFFFF" d="M6183,593.3c0,0,20.9,14.3,41.7,37.3l-82.2,82.1l23.8-118L6183,593.3z"/>
			<path fill="#58595B" d="M6224.7,630.6c18.5,20.5,36.9,47.9,40.3,78.2c7.2,64.4-44.4,80.7-44.4,80.7s-59.4,18.4-78.2-76.8
				l7.6-37.8L6224.7,630.6z"/>
			<g>
				<path fill="#58595B" d="M5702.2,754.3c0,0-31.8,43.1-47.6,58.6c-12.7,12.4-22.6,27.7-23.4,45.3c0,0.2,0,0.4,0,0.6
					c-0.7,10.5-12.4,16.9-20.5,11.3l-75.3-51.3c-10-6.8-12.6-20.4-5.8-30.4l54.6-78.6L5702.2,754.3z"/>
			</g>
			<g>
				<path fill="#58595B" d="M5791.9,734.1c0,0-1.2,53.5-5.3,75.3c-3.3,17.5-2.5,35.6,6.9,50.5c0.1,0.2,0.2,0.3,0.3,0.5
					c5.5,9-0.4,21-10.3,21.1l-91.1,1.3c-12.1,0.2-22-9.5-22.2-21.5l-0.5-95.7L5791.9,734.1z"/>
			</g>
			<g>
				<path fill="#FFFFFF" d="M5664,592.9c1.6,2.2,3.7,3.9,6.3,4.9c17.5,7,56.2,22.6,65.4,26.3c0-0.1,0-0.1,0-0.2c0,0,3.3,1.5,3.6,1.6
					c0.3,0.1,3.6,1.5,3.6,1.5c0,0-0.1,0-0.1,0.1c9.5,4.2,50.5,22.5,66.5,29.6c4.1,1.8,23.9,3.6,24.8,7.9
					c3.2,16.2-3.3,60.9-22.9,100.1c-31.2,62.3-132,50.3-183,19.9c-11.7-7-22.6-15.4-31.6-25.5c-35-39.3-21.8-94.5,4.5-137.5
					c12.6-20.7,36.9-43.1,53.2-61.2C5659.7,554.3,5659.1,585.9,5664,592.9z"/>
			</g>
			<path fill="#58595B" d="M5835.1,675c0,0-43.3,32.9-124.9,5.1c-79.3-27-100.5-71.3-100.5-71.3l50.8-63.2L5836.7,649L5835.1,675z"
				/>
			<path fill="#58595B" d="M5939.1,695l-0.2,43.2l18.1,0.1c9.9,0.1,18-8,18.1-17.9l0.1-25.3c0-8.9-7.2-16.2-16.1-16.3l-3.7,0
				C5946.4,678.9,5939.1,686.1,5939.1,695z"/>
			<g>
				<path fill="#58595B" d="M5953.9,747.1c0,0,1,34.6,5.3,57.4c3.5,18.4,3,37.5-6.1,53.2c-0.1,0.2-0.2,0.4-0.3,0.5
					c-5.3,9.5,0.7,22,10.4,22h89.8c11.9,0,21.6-10.3,21.6-23v-39.8L5953.9,747.1z"/>
			</g>
			<g>
				<path fill="#58595B" d="M6218.1,747.1c0,0-1,34.6-5.3,57.4c-3.5,18.4-3,37.5,6.1,53.2c0.1,0.2,0.2,0.4,0.3,0.5
					c5.3,9.5-0.7,22-10.4,22h-89.8c-11.9,0-21.6-10.3-21.6-23v-39.8L6218.1,747.1z"/>
			</g>
			<g>
				<path fill="#FFFFFF" d="M6195.3,607.8l-19.5,12.6c-18.1-0.3-73-1.4-85.3-1.6c0-0.1,0-0.2,0.1-0.2c0,0-4.1,0.1-4.5,0.1
					c-0.4,0-4.5-0.1-4.5-0.1c0,0,0.1,0.1,0.1,0.2c-14.7,0.3-91,1.7-91,1.7s-41.1,52.2-37.7,118.8c3.7,72.1,71.5,100.3,133.1,97.7
					c42.3,1.7,87.5-11,112.9-42.5l0,0C6256.8,728.8,6195.3,607.8,6195.3,607.8z"/>
			</g>
			<g>
				<path fill="#EDEDEE" d="M6119.9,673.7c1.9-1.3,2.9-2.8,3-4.6c0.2-9-25.6-11.3-31.7-12.1c-17.9-2.4-35.9-3.3-53.8-5.3
					c-8.5-0.9-36.5-11.8-43.1-4.3c-11.6,13.1,57.3,31.5,66.5,32.1C6077.3,680.6,6105.5,683.6,6119.9,673.7z"/>
			</g>
			<circle fill="#EDEDEE" cx="6018" cy="473.1" r="29.4"/>
			<circle fill="#EDEDEE" cx="6159.8" cy="478.1" r="29.4"/>
			<path fill="#FFFFFF" d="M6171.9,474.2c-8.1-4-16.8-6.7-25.7-8c-5.1-0.7-35.8-2.5-50.4,0.8c-5.1,1.2-10.4,1.2-15.4,0
				c-14.6-3.4-45.3-1.5-50.4-0.8c-8.9,1.2-17.6,3.9-25.7,8c-34.1,17-56.8,56.8-53,96.3c4.1,42.8,39.3,70.6,73.2,88.4
				c0.4,0.2,1.3,0.6,2.5,1.1c39.3,16.1,82.9,16.1,122.2,0c1.3-0.5,2.1-0.9,2.5-1.1c33.9-17.8,69.1-45.6,73.2-88.4
				C6228.7,531,6206,491.1,6171.9,474.2z"/>
			<path fill="#EDEDEE" d="M6090,539.8h-10.6c-16.1,0-30,11.5-33.1,27.3l-4.3,22.5c-4,20.8,11.9,40.1,33.1,40.1h19.3
				c21.2,0,37.1-19.3,33.1-40.1l-4.3-22.5C6120.1,551.3,6106.2,539.8,6090,539.8z"/>
			<path fill="#5F6062" d="M6072.6,578.1h24.1c7.5,0,11.5,9.3,6.4,15.1l-7.4,8.3c-6.1,6.8-16,6.8-22.1,0l-7.4-8.3
				C6061.2,587.4,6065.1,578.1,6072.6,578.1z"/>
			<circle fill="#D1D3D4" cx="6030.7" cy="565.5" r="13.7"/>
			<circle fill="#757679" cx="6030.7" cy="565.5" r="8.6"/>
			<circle fill="#D1D3D4" cx="6139.7" cy="566.6" r="13.7"/>
			<circle fill="#757679" cx="6139.7" cy="566.6" r="8.6"/>
			<path fill="#EDEDEE" d="M6081.7,475c0,7.8-0.1,15.6-0.3,23.4c-0.1,4.2,11.3,0.8,11.4-2.9c0.3-7.8,0.4-15.6,0.3-23.4
				C6093.1,467.8,6081.7,471.3,6081.7,475L6081.7,475z"/>
			<g>
				<path fill="#EDEDEE" d="M6041,537.9c-0.9,1.4-1.7,2.5-2.4,3.6c-1,0.2-1.9,0.5-2.8,0.9c-1.8,0.7-3.6,1.6-5.2,2.6
					c-1.6,1-3.1,2.3-4.3,3.7l-0.9,1.1l-0.4,0.6c-0.1,0.1-0.1,0.2-0.2,0.3c0,0.1,0,0.3-0.2,0.3c-0.3,0.1-0.7,0.1-1,0.2
					c-0.3,0.1-0.6,0.2-1,0.3c-0.7,0.2-1.4,0.4-2.2,0.7c-0.3-0.7-0.5-1.5-0.7-2.2c-0.2-0.8-0.2-1.5-0.3-2.3c0-0.2,0.1-0.3,0.2-0.4
					c0.1-0.1,0.2-0.2,0.3-0.4l0.5-0.8l1.2-1.4c1.6-1.8,3.5-3.4,5.5-4.7c2-1.3,4.2-2.3,6.4-3.2c1.1-0.4,2.2-0.7,3.4-1.1
					C6038.4,536.2,6039.7,536.8,6041,537.9z"/>
			</g>
			<g>
				<path fill="#EDEDEE" d="M6130.6,536.4c1.4-0.9,2.8-1.3,4.2-1.6c1.1,0.5,2.1,1,3.2,1.6c2.1,1.1,4,2.5,5.8,4.1
					c1.8,1.6,3.4,3.4,4.8,5.5l1,1.6l0.4,0.8c0.1,0.1,0.1,0.3,0.2,0.4c0.1,0.1,0.2,0.2,0.2,0.4c-0.1,0.7-0.3,1.5-0.6,2.2
					c-0.3,0.7-0.6,1.4-1,2.1c-0.8-0.3-1.4-0.7-2-1c-0.3-0.1-0.6-0.3-0.9-0.4c-0.3-0.1-0.6-0.3-0.9-0.4c-0.2-0.1-0.2-0.2-0.2-0.3
					c0-0.1-0.1-0.2-0.1-0.3l-0.3-0.6l-0.7-1.2c-1-1.6-2.2-3-3.7-4.3c-1.4-1.3-3-2.4-4.8-3.4c-0.9-0.5-1.7-0.9-2.7-1.3
					C6131.9,539.1,6131.3,537.9,6130.6,536.4z"/>
			</g>
			<path fill="#F1625B" d="M5997.3,478.1H6179c0,0,26.9,15.8,36.5,41.2l-255.7,2.1C5959.8,521.4,5967.6,496.1,5997.3,478.1z"/>
			
				<ellipse transform="matrix(-0.8363 -0.5483 0.5483 -0.8363 10261.5264 3968.1997)" fill="#58595B" cx="5723.2" cy="452" rx="29.7" ry="30.8"/>
			<path fill="#FFFFFF" d="M5863.7,619.9c16.9-31.6,8.5-72.2-6.8-102.8c-20.8-41.6-51.2-65.5-111.2-65.2
				c-46.1,0.3-77.8,23.3-97.4,59.6c-12.5,23-23,52.7-15.3,79c13.2,44.9,66.7,62.8,107.6,70.2c31,5.6,78.3,6.9,103.3-15.6
				C5851.9,638.1,5858.6,629.5,5863.7,619.9z"/>
			<path fill="#58595B" d="M5771.5,534.3c10.6-9.8,25-16.6,38.1-15.5c23.8,2.1,31.3,30.2,21.8,49c-11.4,22.4-39.9,29.6-61,16.4
				c-11.7-7.3-17.5-20.5-11.3-33.5C5761.7,545,5766.1,539.3,5771.5,534.3z"/>
			
				<ellipse transform="matrix(0.9676 0.2525 -0.2525 0.9676 327.5907 -1452.0997)" fill="#FFFFFF" cx="5821.5" cy="550.3" rx="8.1" ry="8.4"/>
			<path fill="#58595B" d="M5866.7,593.3c-12.3,1.5-32.1,2.6-48.9-3.1c-3.6-1.2-6.4,3.2-3.9,6.2c10,12.1,39,22,55.8,3.8
				C5872.3,597.5,5870.5,592.9,5866.7,593.3z"/>
			<path fill="#FFFFFF" d="M5859.9,595.8c2.3-0.4,4,2.4,2.4,4.1c-1.2,1.3-3.2,2.6-6.7,3.1c-6.9,1-13.9,1.1-17.9-2.2
				c-1.9-1.6-0.7-4.7,1.8-4.5C5844.4,596.8,5852.5,597.1,5859.9,595.8z"/>
			<path fill="#FFFFFF" d="M5858.7,525c0,0,18.2,13,22.8,37.2l-33.5-6.3L5858.7,525z"/>
			<path fill="#58595B" d="M5871.8,556.7l-15.2,1.8c-6,0.7-10.3,6-9.6,11.9l0,0.1c0.4,3.2,2.2,6,5,7.7l8.2,5c4.3,2.6,10,2,13.6-1.5
				l7-6.9c2.4-2.3,3.5-5.6,3.2-8.8l0,0C5883.3,560.1,5877.8,555.9,5871.8,556.7z"/>
			<path fill="#58595B" d="M5642.4,640.1c4.9-5.9,11.7-10.5,20.7-12.8c16.2-4.2,33.4-1.6,49.6,1.3c28.2,5,52,2.7,79.8-4.4
				c6.2-1.6,14.2-3,18.5,2.8c6.6,8.8,7.5,20.6,10.4,30.8c3,10.6,0,17.1-6.6,25.9c-36.4,47.9-116.7,67.1-164.6,24.4
				C5631.1,690.9,5627,658.7,5642.4,640.1z"/>
			<path fill="#58595B" d="M5819,690.2L5819,690.2c-14.4,3.5-29-5.4-32.5-19.7l-4.3-17.4c-3.5-14.4,5.4-29,19.7-32.5l0,0
				c14.4-3.5,29,5.4,32.5,19.7l4.3,17.4C5842.3,672.1,5833.4,686.7,5819,690.2z"/>
			<path fill="#58595B" d="M5631.3,582.5c0,0,52.3,43.1,73.7,44.8l-62.6,12.8l-15.1-37.3L5631.3,582.5z"/>
			
				<ellipse transform="matrix(-1 -7.829975e-003 7.829975e-003 -1 11638.5342 1146.2039)" fill="#58595B" cx="5821.5" cy="550.3" rx="6" ry="6.2"/>
			<path fill="#58595B" d="M5830.7,552.1l-18.5-5.8c0,0,7-8.2,12-6.1C5829.2,542.3,5831.2,545.8,5830.7,552.1z"/>
			<g>
				<g>
					<path fill="#434345" d="M6024.7,568.7c3.7,1.1,7.8,0.5,11-1.7c2.6-1.9,0.1-6.2-2.5-4.3c-2.2,1.5-4.6,2-7.1,1.2
						C6022.9,562.9,6021.6,567.8,6024.7,568.7L6024.7,568.7z"/>
				</g>
			</g>
			<g>
				<g>
					<path fill="#434345" d="M6133.1,565.6c2,3.6,5.9,5.9,10,5.7c3.2-0.1,3.2-5.1,0-5c-2.4,0.1-4.5-1.1-5.7-3.3
						C6135.8,560.3,6131.5,562.8,6133.1,565.6L6133.1,565.6z"/>
				</g>
			</g>
			<path fill="#5F6062" d="M6099.2,614.2c-11.3,6.5-23.1,2.5-28.4,0c-0.8-0.4-0.5-1.5,0.3-1.5h27.7
				C6099.6,612.7,6099.9,613.8,6099.2,614.2z"/>
			<g>
				<polygon fill="#FFFFFF" points="6150.6,494.8 6153.4,488.4 6156.8,494.6 6163.8,495.3 6158.9,500.4 6160.4,507.3 6154,504.3 
					6147.9,507.8 6148.9,500.8 6143.6,496.1 				"/>
				<polygon fill="#FFFFFF" points="6164.2,488.4 6164.9,486.7 6165.8,488.4 6167.7,488.6 6166.4,489.9 6166.8,491.8 6165.1,490.9 
					6163.5,491.9 6163.7,490 6162.3,488.8 				"/>
				<polygon fill="#FFFFFF" points="6171.2,494.7 6171.9,493 6172.8,494.6 6174.7,494.8 6173.4,496.2 6173.8,498 6172.1,497.2 
					6170.5,498.1 6170.7,496.3 6169.3,495 				"/>
				<polygon fill="#FFFFFF" points="6171.2,504.4 6171.9,502.7 6172.8,504.4 6174.7,504.6 6173.4,505.9 6173.8,507.8 6172.1,507 
					6170.5,507.9 6170.7,506 6169.3,504.8 				"/>
				<polygon fill="#FFFFFF" points="6164.1,509.4 6164.9,507.7 6165.8,509.3 6167.6,509.5 6166.4,510.9 6166.7,512.7 6165.1,511.9 
					6163.4,512.8 6163.7,511 6162.3,509.7 				"/>
			</g>
		</g>
	</g>
	<g>
		<polygon fill="#58595B" points="7600.4,601 7728.5,619.7 7728.5,712.4 7608.7,733.6 		"/>
		<rect x="7684.2" y="551.7" fill="#BCBEC0" width="40.3" height="357.3"/>
		<path fill="#58595B" d="M7724.5,716.7L7724.5,716.7c-19,0-34.5-15.5-34.5-34.5V645c0-19,15.5-34.5,34.5-34.5l0,0
			c19,0,34.5,15.5,34.5,34.5v37.2C7759,701.2,7743.5,716.7,7724.5,716.7z"/>
		<path fill="#F1625B" d="M7588.9,500.5l76.1,23.1c8.3,2.5,11.5,12.5,6.2,19.3l-13.2,17.1c-4,5.2-11.4,6.4-16.8,2.6l-56.6-39
			L7588.9,500.5z"/>
		<path fill="#F1625B" d="M7580.3,491.8l76.8-20.6c8.3-2.2,16.3,4.6,15.5,13.2l-2.2,21.5c-0.7,6.5-6.3,11.4-12.9,11.1l-68.7-3.2
			L7580.3,491.8z"/>
		<path fill="#FFFFFF" d="M7371.9,590.1c0,0-23.3,15.9-46.3,41.5l91.3,91.2l-26.5-131.2L7371.9,590.1z"/>
		<path fill="#58595B" d="M7325.6,631.5c-20.6,22.8-41,53.2-44.8,86.9c-8,71.5,49.3,89.7,49.3,89.7s66,20.4,86.9-85.4l-8.5-42.1
			L7325.6,631.5z"/>
		<path fill="#58595B" d="M7323.6,701.3l-0.3,49.8l22.1,0.1c9.9,0.1,18-8,18.1-17.9l0.2-31.9c0-8.9-7.2-16.2-16.1-16.3l-7.7,0
			C7330.9,685.2,7323.7,692.4,7323.6,701.3z"/>
		<g>
			<path fill="#58595B" d="M7340.1,761c0,0,1.1,38.4,5.9,63.8c3.9,20.4,3.3,41.6-6.8,59.1c-0.1,0.2-0.2,0.4-0.3,0.6
				c-5.8,10.6,0.7,24.5,11.6,24.5h99.8c13.2,0,24-11.4,24-25.5v-44.2L7340.1,761z"/>
		</g>
		<g>
			<path fill="#58595B" d="M7633.6,761c0,0-1.1,38.4-5.9,63.8c-3.9,20.4-3.3,41.6,6.8,59.1c0.1,0.2,0.2,0.4,0.3,0.6
				c5.8,10.6-0.7,24.5-11.6,24.5h-99.8c-13.2,0-24-11.4-24-25.5v-44.2L7633.6,761z"/>
		</g>
		<g>
			<path fill="#FFFFFF" d="M7608.3,606.2l-21.7,14c-20.1-0.4-81.1-1.5-94.7-1.8c0-0.1,0.1-0.2,0.1-0.2c0,0-4.6,0.1-5,0.1
				c-0.4,0-5-0.1-5-0.1c0,0,0.1,0.1,0.1,0.2c-16.4,0.3-101.2,1.9-101.2,1.9s-45.7,58-41.9,132c4.2,80.1,79.5,111.4,147.9,108.6
				c47,1.9,97.3-12.2,125.5-47.2l0,0C7676.6,740.7,7608.3,606.2,7608.3,606.2z"/>
		</g>
		<g>
			<path fill="#EDEDEE" d="M7524.5,679.4c2.1-1.4,3.3-3.1,3.3-5.1c0.2-10-28.5-12.5-35.3-13.4c-19.9-2.7-39.9-3.7-59.8-5.9
				c-9.4-1.1-40.6-13.1-47.9-4.8c-12.9,14.5,63.7,35,73.9,35.7C7477.2,687.2,7508.5,690.4,7524.5,679.4z"/>
		</g>
		<circle fill="#58595B" cx="7411.2" cy="456.6" r="32.7"/>
		<circle fill="#58595B" cx="7568.8" cy="462.1" r="32.7"/>
		<path fill="#FFFFFF" d="M7582.3,457.8c-9-4.5-18.6-7.5-28.5-8.8c-5.7-0.8-39.8-2.8-56,0.9c-5.7,1.3-11.5,1.3-17.2,0
			c-16.2-3.7-50.3-1.7-56-0.9c-9.9,1.4-19.5,4.4-28.5,8.8c-37.9,18.8-63.2,63.1-58.9,107c4.6,47.5,43.7,78.4,81.4,98.2
			c0.4,0.2,1.4,0.6,2.8,1.2c43.6,17.9,92.1,17.9,135.8,0c1.4-0.6,2.4-1,2.8-1.2c37.6-19.8,76.8-50.7,81.4-98.2
			C7645.4,520.8,7620.2,476.6,7582.3,457.8z"/>
		<circle fill="#58595B" cx="7413.5" cy="567.3" r="23.7"/>
		<path fill="#EDEDEE" d="M7482.1,458.7c0,8.7-0.1,17.4-0.4,26c-0.2,4.7,12.6,0.9,12.7-3.2c0.3-8.7,0.4-17.4,0.4-26
			C7494.8,450.7,7482.1,454.6,7482.1,458.7L7482.1,458.7z"/>
		<path fill="#F1625B" d="M7388.3,462.1h201.9c0,0,29.9,17.6,40.6,45.8l-284.1,2.3C7346.6,510.3,7355.2,482.1,7388.3,462.1z"/>
		<circle fill="#FFFFFF" cx="7416.9" cy="559.2" r="11.5"/>
		<circle fill="#58595B" cx="7416.9" cy="559.2" r="8.1"/>
		<circle fill="#58595B" cx="7556.3" cy="567.3" r="23.7"/>
		<circle fill="#FFFFFF" cx="7556.3" cy="559.2" r="11.5"/>
		<circle fill="#58595B" cx="7556.3" cy="559.2" r="8.1"/>
		<path fill="#EDEDEE" d="M7491.3,530.7h-11.8c-17.9,0-33.4,12.7-36.8,30.3l-4.8,25c-4.5,23.1,13.2,44.5,36.8,44.5h21.5
			c23.5,0,41.2-21.4,36.8-44.5l-4.8-25C7524.7,543.4,7509.2,530.7,7491.3,530.7z"/>
		<path fill="#5F6062" d="M7472,573.2h26.8c8.4,0,12.8,10.4,7.1,16.8l-8.2,9.2c-6.7,7.6-17.8,7.6-24.5,0l-8.2-9.2
			C7459.2,583.6,7463.6,573.2,7472,573.2z"/>
		<path fill="#CFD1D2" d="M7758.5,588.2h-108.3c-34.7,0-62.9-28.2-62.9-62.9V488c0-34.7,28.2-62.9,62.9-62.9h108.3
			c34.7,0,62.9,28.2,62.9,62.9v37.3C7821.4,560,7793.2,588.2,7758.5,588.2z"/>
		<g>
			<path fill="#FFFFFF" d="M7636.3,510.4c0.2,1.7,0.7,3,1.4,3.9c1.3,1.6,3.5,2.3,6.7,2.3c1.9,0,3.4-0.2,4.6-0.6
				c2.2-0.8,3.4-2.2,3.4-4.4c0-1.2-0.6-2.2-1.6-2.9c-1.1-0.7-2.8-1.3-5.2-1.8l-4.1-0.9c-4-0.9-6.8-1.8-8.3-2.9
				c-2.5-1.7-3.8-4.5-3.8-8.2c0-3.4,1.2-6.2,3.7-8.4c2.5-2.2,6.1-3.3,10.9-3.3c4,0,7.4,1.1,10.3,3.2c2.8,2.1,4.3,5.2,4.5,9.2h-7.6
				c-0.1-2.3-1.2-3.9-3-4.8c-1.3-0.6-2.8-0.9-4.7-0.9c-2.1,0-3.7,0.4-5,1.2c-1.2,0.8-1.9,2-1.9,3.4c0,1.3,0.6,2.4,1.8,3
				c0.8,0.4,2.5,1,5,1.6l6.6,1.6c2.9,0.7,5.1,1.6,6.5,2.7c2.2,1.8,3.4,4.3,3.4,7.7c0,3.4-1.3,6.3-4,8.6c-2.7,2.3-6.4,3.4-11.3,3.4
				c-5,0-8.9-1.1-11.7-3.4c-2.8-2.2-4.3-5.3-4.3-9.2H7636.3z"/>
			<path fill="#FFFFFF" d="M7681.6,484.3h8.9l13.3,37.7h-8.5l-2.5-7.7h-13.9l-2.6,7.7h-8.2L7681.6,484.3z M7681.1,507.8h9.6
				L7686,493L7681.1,507.8z"/>
			<path fill="#FFFFFF" d="M7713.9,484.3h7.9v30.9h18.8v6.8h-26.7V484.3z"/>
			<path fill="#FFFFFF" d="M7778.9,491H7759v8h18.3v6.5H7759v9.7h20.9v6.8h-28.6v-37.7h27.6V491z"/>
		</g>
		<path fill="#5F6062" d="M7471.9,614.7c12.5-7.2,25.7-2.7,31.6,0.1c0.8,0.4,0.6,1.7-0.4,1.7l-30.8-0.1
			C7471.5,616.3,7471.2,615.1,7471.9,614.7z"/>
		<g>
			<polygon fill="#FFFFFF" points="7558.6,480.7 7561.8,473.5 7565.5,480.4 7573.3,481.3 7567.9,486.9 7569.5,494.6 7562.4,491.2 
				7555.6,495.1 7556.7,487.4 7550.9,482.1 			"/>
			<polygon fill="#FFFFFF" points="7573.7,473.6 7574.5,471.7 7575.5,473.5 7577.6,473.7 7576.1,475.3 7576.6,477.3 7574.7,476.4 
				7572.9,477.4 7573.2,475.4 7571.6,474 			"/>
			<polygon fill="#FFFFFF" points="7581.5,480.5 7582.3,478.6 7583.3,480.5 7585.4,480.7 7583.9,482.2 7584.4,484.2 7582.5,483.3 
				7580.7,484.4 7581,482.3 7579.4,480.9 			"/>
			<polygon fill="#FFFFFF" points="7581.4,491.4 7582.3,489.5 7583.3,491.3 7585.4,491.5 7583.9,493.1 7584.4,495.1 7582.5,494.2 
				7580.7,495.2 7580.9,493.2 7579.4,491.8 			"/>
			<polygon fill="#FFFFFF" points="7573.6,496.9 7574.5,495 7575.5,496.8 7577.5,497 7576.1,498.5 7576.5,500.6 7574.7,499.7 
				7572.9,500.7 7573.1,498.6 7571.6,497.3 			"/>
		</g>
	</g>
	<g>
		<polygon fill="#006185" points="854.3,0 735.7,0 461.5,454.5 232,637 0,1152.4 752.1,1152.4 		"/>
		<polygon fill="#32799D" points="719.9,382.9 386,810.4 129.2,1152.4 0,1152.4 232,637 461.5,454.5 735.7,0 854.3,0 809.2,508.3 		
			"/>
		<polygon fill="#79A7C8" points="461.5,454.5 412.2,576.2 232,637 		"/>
		<polygon fill="#4688AD" points="412.2,576.2 0,1152.4 232,637 		"/>
	</g>
</g>
<g>
</g>
<g>
</g>
<g>
</g>
<g>
</g>
<g>
</g>
<g>
</g>
<g>
</g>
<g>
</g>
<g>
</g>
<g>
</g>
<g>
</g>
<g>
</g>
<g>
</g>
<g>
</g>
<g>
</g>
</svg>
