<?xml version="1.0" encoding="utf-8"?>
<!-- Generator: Adobe Illustrator 18.0.0, SVG Export Plug-In . SVG Version: 6.00 Build 0)  -->
<!DOCTYPE svg PUBLIC "-//W3C//DTD SVG 1.1//EN" "http://www.w3.org/Graphics/SVG/1.1/DTD/svg11.dtd">
<svg version="1.1" id="Layer_1" xmlns="http://www.w3.org/2000/svg" xmlns:xlink="http://www.w3.org/1999/xlink" x="0px" y="0px"
	 viewBox="0 0 437.4 249" enable-background="new 0 0 437.4 249" xml:space="preserve">
<g>
	<path fill="#D65B51" d="M341,219.9H96.4c-53,0-96.4-43.4-96.4-96.4l0-27.2C0,43.4,43.4,0,96.4,0L341,0c53,0,96.4,43.4,96.4,96.4
		v27.2C437.4,176.6,394,219.9,341,219.9z"/>
	<g>
		<g>
			<path fill="#FFFFFF" d="M72.9,74.7l-1.3-4c3.7-4.1,6.4-8.9,8.2-14.4l3.5,1.7c-0.9,2.8-2.2,5.5-3.7,8v23.9H76V71.3
				C75,72.5,74,73.6,72.9,74.7z M84.1,71.4l-3.2-2c2.7-4,4.5-8.2,5.6-12.7l3.5,0.8c-0.3,1.1-0.6,2.2-0.9,3.2h15V63
				c-0.5,2.2-1.2,4.3-2.1,6.4l-3.6-1c0.7-1.2,1.3-2.6,1.8-4.2H87.8C86.7,66.8,85.5,69.2,84.1,71.4z M89.3,72.3
				c-1.3,4.9-2.9,9.3-4.8,13L80.9,84c1.9-3.3,3.5-7.5,5-12.6L89.3,72.3z M87.2,89.6l-0.8-3.5c1.4,0.1,2.8,0.3,4.1,0.3
				c0.9,0,1.3-0.5,1.3-1.4V66.7h3.6v19.2c0,2.5-1.2,3.7-3.7,3.7H87.2z M105,84.4l-3.3,1.5c-1.3-5.2-2.8-9.8-4.4-13.8l3.3-1.1
				C102.3,75.1,103.8,79.6,105,84.4z"/>
			<path fill="#FFFFFF" d="M120.3,61.9v-5.3h3.7v17.7c-0.1,7.1-2.1,12.3-5.9,15.7l-2.9-2.6c1.9-1.6,3.3-3.8,4.2-6.5
				c-2.8,0.6-5.7,1.3-8.7,1.8l-0.9-3.7c3.5-0.3,7-0.9,10.4-1.7c0.1-1,0.2-2,0.2-3v-0.7h-8.7V70h8.7v-4.5h-9.6v-3.6H120.3z
				 M132.5,56.6v5.3h9.5v3.6h-9.5V70h8.7v3.6h-8.7v4.6h10.1v3.6h-10.1v8.1h-3.8V56.6H132.5z"/>
			<path fill="#FFFFFF" d="M180.3,57.7v3.4H170v2.4h8.1v9.7h-14.6l-1.3,2.3h18.5v3.5h-7.5c-0.7,1.8-1.8,3.3-3.3,4.7
				c3.4,1,6.8,2.2,10.3,3.5l-2.3,3.1c-3.8-1.6-7.6-3-11.3-4.2c-3.4,1.7-8.9,3.1-16.6,4.1l-1.4-3.4c5.5-0.6,9.8-1.4,12.9-2.3
				c-2.7-0.8-5.4-1.5-8-2.1c0.8-1.2,1.5-2.3,2.3-3.4h-8.1v-3.5h10.2c0.4-0.8,0.9-1.5,1.3-2.3h-9v-9.7h8.1v-2.4h-10.2v-3.4H180.3z
				 M158.4,66.6h-4.5V70h4.5V66.6z M169.3,78.9h-9.3c-0.5,0.7-0.9,1.3-1.3,1.9c2.3,0.5,4.7,1,7.1,1.7
				C167.5,81.5,168.6,80.3,169.3,78.9z M166.5,61.1h-4.5v2.4h4.5V61.1z M166.5,66.6h-4.5V70h4.5V66.6z M174.5,66.6H170V70h4.5V66.6z
				"/>
			<path fill="#FFFFFF" d="M202.4,76.8c-1.9,0.6-3.9,1.2-6,1.8v7.3c0,2.4-1.3,3.6-3.8,3.6h-4.1l-0.8-3.6c1.3,0.1,2.4,0.2,3.6,0.2
				c0.8,0,1.3-0.4,1.3-1.2v-5.4c-2.1,0.4-4.2,0.8-6.4,1.2l-0.5-3.8c2.4-0.4,4.8-0.8,7-1.3v-6.2h-7v-3.6h7v-3.3
				c-1.7,0.4-3.5,0.6-5.4,0.9l-0.8-3.6c5-0.5,9.4-1.6,13.3-3.2l1.3,3.5c-1.5,0.5-3,1-4.6,1.4v4.2h7.4c-0.2-2.8-0.3-5.8-0.3-9.1h3.8
				c0,3.5,0.1,6.5,0.4,9.1h10.8v3.6h-10.5c0.2,2.3,0.5,4.2,0.9,5.8c0.1,0.6,0.3,1.1,0.4,1.6c1.5-1.8,2.8-3.9,3.9-6.1l3.2,1.7
				c-1.6,3.2-3.5,6.1-5.7,8.5c0.4,0.9,0.8,1.6,1.2,2.2c1,1.6,1.8,2.4,2.3,2.4c0.4,0,0.8-1.8,1.2-5.4l3.3,1.8c-0.9,5.1-2.3,7.7-4,7.7
				c-1.6,0-3.2-1.1-4.9-3.2c-0.6-0.8-1.3-1.8-1.8-2.8c-2.4,2-5.2,3.6-8.2,4.8l-2.1-3.2c3.3-1.2,6.2-3,8.7-5.2
				c-0.4-1.2-0.8-2.3-1.1-3.6c-0.5-1.9-0.9-4.2-1.2-6.8h-7.7v5.3c2.1-0.5,4.1-1.1,6-1.8V76.8z M217.7,61.7l-2.7,2.7
				c-1.5-1.6-3.6-3.2-6.3-5l2.5-2.4C213.8,58.5,215.9,60.1,217.7,61.7z"/>
			<path fill="#FFFFFF" d="M225.9,89.7l-2.9-2.6c2.1-3,3.2-6.9,3.3-11.6V57.7h27.9v27.2c0,2.8-1.4,4.2-4.3,4.2h-4.1l-1-3.7
				c1.4,0.1,2.7,0.2,4,0.2c1.1,0,1.7-0.7,1.7-2.1v-5h-8.6v10.2H238V78.5h-8.1C229.5,83,228.1,86.7,225.9,89.7z M230.1,61.4v5h7.9v-5
				H230.1z M230.1,75.1h7.9v-5.2h-7.9V75.1z M250.4,61.4h-8.6v5h8.6V61.4z M250.4,69.9h-8.6v5.2h8.6V69.9z"/>
			<path fill="#FFFFFF" d="M263.8,89.8l-2.5-2.3c1.1-2.5,1.6-5.7,1.7-9.5V67.8l-0.1,0.1l-2.2-2.6c2.1-2.1,3.9-5,5.4-8.8l3.3,0.8
				c-0.3,0.6-0.5,1.2-0.8,1.8h5.6v2.6c-0.6,1.3-1.3,2.3-1.9,3.3h3v6.9c1.8-1.4,3.3-3,4.3-4.9h-3.1v-9.3H293v9.3h-10
				c-0.3,0.6-0.6,1.3-1,1.9h11.5c0,9.5-0.1,15.4-0.4,17.7c-0.3,2.2-1.7,3.3-4.1,3.3c-0.7,0-1.9-0.1-3.6-0.1l-0.8-2.8
				c1.2,0.1,2.2,0.1,3.1,0.1c-0.1-0.5-0.3-0.9-0.4-1.3c-2.3,0.6-5.9,1.2-10.8,1.7l-0.5-2.9c2-0.1,3.9-0.3,5.6-0.4v-2.8h-4.7v-6.6
				l-0.5,0.4l-1-1.6v12.9c0,1.9-1.1,2.9-3.2,2.9h-1.3l-0.8-2.9c0.4,0.1,0.7,0.1,1,0.1c0.7,0,1.1-0.4,1.1-1.2v-4h-6.4
				C265.6,84.6,264.9,87.5,263.8,89.8z M270.4,62h-3.2c-0.6,1-1.2,1.9-1.8,2.8h3.2C269.2,64,269.8,63,270.4,62z M266,68v3.3h1.7V68
				H266z M266,78.1h1.7v-3.6H266V78.1z M272.3,68h-1.8v3.3h1.8V68z M272.3,74.5h-1.8v3.6h1.8V74.5z M290,85.1
				c0.2-1.2,0.3-5.6,0.4-13.1h-10.5c-0.8,0.8-1.5,1.5-2.4,2.3h4.1v-1.5h3v1.5h4.7v7.1h-4.7v2.5c0.6-0.1,1.3-0.2,1.9-0.3l-0.6-1.4
				l2.2-0.7c0.6,1.4,1.2,2.9,1.8,4.7C289.9,85.8,289.9,85.4,290,85.1z M281.6,76.7h-2.2v2.2h2.2V76.7z M281.2,60.5h-1.7V64h1.7V60.5
				z M285.7,60.5h-1.9V64h1.9V60.5z M286.6,76.7h-2.1v2.2h2.1V76.7z M290,60.5h-1.7V64h1.7V60.5z"/>
			<path fill="#FFFFFF" d="M300.1,89.6l-0.8-3.6c0.9,0.1,1.8,0.2,2.7,0.2c0.8,0,1.2-0.4,1.2-1.2v-7.3c-1.3,0.5-2.5,0.9-3.8,1.3
				l-0.9-3.8c1.6-0.4,3.2-0.8,4.7-1.3v-7.1h-4v-3.6h4v-6.4h3.8v6.4h2.6v3.6H307v5.6c0.9-0.4,1.8-0.9,2.7-1.4v3.8
				c-0.9,0.4-1.8,0.9-2.7,1.3v9.8c0,2.4-1.3,3.7-3.7,3.7H300.1z M311.3,78.7v-3.5h19.3v3.5h-7.7v6.6h9v3.6h-22.1v-3.6h9.2v-6.6
				H311.3z M320.4,64.4c-0.9,5.2-3.6,8.6-8,10.3l-1.9-3c3.7-1.3,5.9-4,6.7-8.1L320.4,64.4z M314.3,63.6v4.1h-3.5v-7.5h8.3
				c-0.5-1.2-1-2.3-1.6-3.4l3.9-0.6c0.5,1.2,1,2.6,1.5,4h8.3v7.5h-3.5v-4.1h-2.4v5.7c0,0.5,0.3,0.8,1,0.8h5v3.2h-6.7
				c-1.8,0-2.7-0.9-2.7-2.6v-7.2H314.3z"/>
			<path fill="#FFFFFF" d="M355.2,81.5c0.5,0.5,0.8,1.2,0.8,1.9s-0.3,1.5-0.8,2c-0.6,0.5-1.2,0.8-2,0.8c-0.8,0-1.4-0.3-1.9-0.8
				c-0.6-0.5-0.8-1.2-0.8-1.9s0.3-1.4,0.8-1.9c0.5-0.5,1.2-0.8,1.9-0.8C354,80.7,354.7,81,355.2,81.5z M355.6,60.5l-0.9,18.3h-3.1
				l-0.9-18.3H355.6z"/>
			<path fill="#FFFFFF" d="M72.9,128.7l-1.3-4c3.7-4.1,6.4-8.9,8.2-14.4l3.5,1.7c-0.9,2.8-2.2,5.5-3.7,8v23.9H76v-18.6
				C75,126.5,74,127.6,72.9,128.7z M84.1,125.4l-3.2-2c2.7-4,4.5-8.2,5.6-12.7l3.5,0.8c-0.3,1.1-0.6,2.2-0.9,3.2h15v2.4
				c-0.5,2.2-1.2,4.3-2.1,6.4l-3.6-1c0.7-1.2,1.3-2.6,1.8-4.2H87.8C86.7,120.8,85.5,123.2,84.1,125.4z M89.3,126.3
				c-1.3,4.9-2.9,9.3-4.8,13l-3.5-1.3c1.9-3.3,3.5-7.5,5-12.6L89.3,126.3z M87.2,143.6l-0.8-3.5c1.4,0.1,2.8,0.3,4.1,0.3
				c0.9,0,1.3-0.5,1.3-1.4v-18.3h3.6v19.2c0,2.5-1.2,3.7-3.7,3.7H87.2z M105,138.4l-3.3,1.5c-1.3-5.2-2.8-9.8-4.4-13.8l3.3-1.1
				C102.3,129.1,103.8,133.6,105,138.4z"/>
			<path fill="#FFFFFF" d="M120.3,115.9v-5.3h3.7v17.7c-0.1,7.1-2.1,12.3-5.9,15.7l-2.9-2.6c1.9-1.6,3.3-3.8,4.2-6.5
				c-2.8,0.6-5.7,1.3-8.7,1.8l-0.9-3.7c3.5-0.3,7-0.9,10.4-1.7c0.1-1,0.2-2,0.2-3v-0.7h-8.7V124h8.7v-4.5h-9.6v-3.6H120.3z
				 M132.5,110.6v5.3h9.5v3.6h-9.5v4.5h8.7v3.6h-8.7v4.6h10.1v3.6h-10.1v8.1h-3.8v-33.3H132.5z"/>
			<path fill="#FFFFFF" d="M180.3,111.7v3.4H170v2.4h8.1v9.7h-14.6l-1.3,2.3h18.5v3.5h-7.5c-0.7,1.8-1.8,3.3-3.3,4.7
				c3.4,1,6.8,2.2,10.3,3.5l-2.3,3.1c-3.8-1.6-7.6-3-11.3-4.2c-3.4,1.7-8.9,3.1-16.6,4.1l-1.4-3.4c5.5-0.6,9.8-1.4,12.9-2.3
				c-2.7-0.8-5.4-1.5-8-2.1c0.8-1.2,1.5-2.3,2.3-3.4h-8.1v-3.5h10.2c0.4-0.8,0.9-1.5,1.3-2.3h-9v-9.7h8.1v-2.4h-10.2v-3.4H180.3z
				 M158.4,120.6h-4.5v3.4h4.5V120.6z M169.3,132.9h-9.3c-0.5,0.7-0.9,1.3-1.3,1.9c2.3,0.5,4.7,1,7.1,1.7
				C167.5,135.5,168.6,134.3,169.3,132.9z M166.5,115.1h-4.5v2.4h4.5V115.1z M166.5,120.6h-4.5v3.4h4.5V120.6z M174.5,120.6H170v3.4
				h4.5V120.6z"/>
			<path fill="#FFFFFF" d="M202.4,130.8c-1.9,0.6-3.9,1.2-6,1.8v7.3c0,2.4-1.3,3.6-3.8,3.6h-4.1l-0.8-3.6c1.3,0.1,2.4,0.2,3.6,0.2
				c0.8,0,1.3-0.4,1.3-1.2v-5.4c-2.1,0.4-4.2,0.8-6.4,1.2l-0.5-3.8c2.4-0.4,4.8-0.8,7-1.3v-6.2h-7v-3.6h7v-3.3
				c-1.7,0.4-3.5,0.6-5.4,0.9l-0.8-3.6c5-0.5,9.4-1.6,13.3-3.2l1.3,3.5c-1.5,0.5-3,1-4.6,1.4v4.2h7.4c-0.2-2.8-0.3-5.8-0.3-9.1h3.8
				c0,3.5,0.1,6.5,0.4,9.1h10.8v3.6h-10.5c0.2,2.3,0.5,4.2,0.9,5.8c0.1,0.6,0.3,1.1,0.4,1.6c1.5-1.8,2.8-3.9,3.9-6.1l3.2,1.7
				c-1.6,3.2-3.5,6.1-5.7,8.5c0.4,0.9,0.8,1.6,1.2,2.2c1,1.6,1.8,2.4,2.3,2.4c0.4,0,0.8-1.8,1.2-5.4l3.3,1.8c-0.9,5.1-2.3,7.7-4,7.7
				c-1.6,0-3.2-1.1-4.9-3.2c-0.6-0.8-1.3-1.8-1.8-2.8c-2.4,2-5.2,3.6-8.2,4.8l-2.1-3.2c3.3-1.2,6.2-3,8.7-5.2
				c-0.4-1.2-0.8-2.3-1.1-3.6c-0.5-1.9-0.9-4.2-1.2-6.8h-7.7v5.3c2.1-0.5,4.1-1.1,6-1.8V130.8z M217.7,115.7l-2.7,2.7
				c-1.5-1.6-3.6-3.2-6.3-5l2.5-2.4C213.8,112.5,215.9,114.1,217.7,115.7z"/>
			<path fill="#FFFFFF" d="M225.9,143.7l-2.9-2.6c2.1-3,3.2-6.9,3.3-11.6v-17.8h27.9v27.2c0,2.8-1.4,4.2-4.3,4.2h-4.1l-1-3.7
				c1.4,0.1,2.7,0.2,4,0.2c1.1,0,1.7-0.7,1.7-2.1v-5h-8.6v10.2H238v-10.2h-8.1C229.5,137,228.1,140.7,225.9,143.7z M230.1,115.4v5
				h7.9v-5H230.1z M230.1,129.1h7.9v-5.2h-7.9V129.1z M250.4,115.4h-8.6v5h8.6V115.4z M250.4,123.9h-8.6v5.2h8.6V123.9z"/>
			<path fill="#FFFFFF" d="M263.8,143.8l-2.5-2.3c1.1-2.5,1.6-5.7,1.7-9.5v-10.2l-0.1,0.1l-2.2-2.6c2.1-2.1,3.9-5,5.4-8.8l3.3,0.8
				c-0.3,0.6-0.5,1.2-0.8,1.8h5.6v2.6c-0.6,1.3-1.3,2.3-1.9,3.3h3v6.9c1.8-1.4,3.3-3,4.3-4.9h-3.1v-9.3H293v9.3h-10
				c-0.3,0.6-0.6,1.3-1,1.9h11.5c0,9.5-0.1,15.4-0.4,17.7c-0.3,2.2-1.7,3.3-4.1,3.3c-0.7,0-1.9-0.1-3.6-0.1l-0.8-2.8
				c1.2,0.1,2.2,0.1,3.1,0.1c-0.1-0.5-0.3-0.9-0.4-1.3c-2.3,0.6-5.9,1.2-10.8,1.7l-0.5-2.9c2-0.1,3.9-0.3,5.6-0.4v-2.8h-4.7v-6.6
				l-0.5,0.4l-1-1.6v12.9c0,1.9-1.1,2.9-3.2,2.9h-1.3l-0.8-2.9c0.4,0.1,0.7,0.1,1,0.1c0.7,0,1.1-0.4,1.1-1.2v-4h-6.4
				C265.6,138.6,264.9,141.5,263.8,143.8z M270.4,116h-3.2c-0.6,1-1.2,1.9-1.8,2.8h3.2C269.2,118,269.8,117,270.4,116z M266,122v3.3
				h1.7V122H266z M266,132.1h1.7v-3.6H266V132.1z M272.3,122h-1.8v3.3h1.8V122z M272.3,128.5h-1.8v3.6h1.8V128.5z M290,139.1
				c0.2-1.2,0.3-5.6,0.4-13.1h-10.5c-0.8,0.8-1.5,1.5-2.4,2.3h4.1v-1.5h3v1.5h4.7v7.1h-4.7v2.5c0.6-0.1,1.3-0.2,1.9-0.3l-0.6-1.4
				l2.2-0.7c0.6,1.4,1.2,2.9,1.8,4.7C289.9,139.8,289.9,139.4,290,139.1z M281.6,130.7h-2.2v2.2h2.2V130.7z M281.2,114.5h-1.7v3.5
				h1.7V114.5z M285.7,114.5h-1.9v3.5h1.9V114.5z M286.6,130.7h-2.1v2.2h2.1V130.7z M290,114.5h-1.7v3.5h1.7V114.5z"/>
			<path fill="#FFFFFF" d="M300.1,143.6l-0.8-3.6c0.9,0.1,1.8,0.2,2.7,0.2c0.8,0,1.2-0.4,1.2-1.2v-7.3c-1.3,0.5-2.5,0.9-3.8,1.3
				l-0.9-3.8c1.6-0.4,3.2-0.8,4.7-1.3v-7.1h-4v-3.6h4v-6.4h3.8v6.4h2.6v3.6H307v5.6c0.9-0.4,1.8-0.9,2.7-1.4v3.8
				c-0.9,0.4-1.8,0.9-2.7,1.3v9.8c0,2.4-1.3,3.7-3.7,3.7H300.1z M311.3,132.7v-3.5h19.3v3.5h-7.7v6.6h9v3.6h-22.1v-3.6h9.2v-6.6
				H311.3z M320.4,118.4c-0.9,5.2-3.6,8.6-8,10.3l-1.9-3c3.7-1.3,5.9-4,6.7-8.1L320.4,118.4z M314.3,117.6v4.1h-3.5v-7.5h8.3
				c-0.5-1.2-1-2.3-1.6-3.4l3.9-0.6c0.5,1.2,1,2.6,1.5,4h8.3v7.5h-3.5v-4.1h-2.4v5.7c0,0.5,0.3,0.8,1,0.8h5v3.2h-6.7
				c-1.8,0-2.7-0.9-2.7-2.6v-7.2H314.3z"/>
			<path fill="#FFFFFF" d="M355.2,135.5c0.5,0.5,0.8,1.2,0.8,1.9c0,0.8-0.3,1.5-0.8,2c-0.6,0.5-1.2,0.8-2,0.8
				c-0.8,0-1.4-0.3-1.9-0.8c-0.6-0.5-0.8-1.2-0.8-1.9c0-0.8,0.3-1.4,0.8-1.9c0.5-0.5,1.2-0.8,1.9-0.8
				C354,134.7,354.7,135,355.2,135.5z M355.6,114.5l-0.9,18.3h-3.1l-0.9-18.3H355.6z"/>
		</g>
	</g>
	<path fill="#FFFFFF" d="M67.7,99.3c98.2-1.3,196.5,0.4,294.6,4.9c0,0,0.1-2.2,0-2.3c-98-4.5-196.3-6.2-294.6-4.9
		C67.7,97,67.7,99.3,67.7,99.3L67.7,99.3z"/>
	<path fill="#FFFFFF" d="M67.7,150.3c98,3.5,196.3,4.5,294.5,2.8c0.1,0,0-2.2,0-2.3c-98.2,1.7-196.5,0.8-294.5-2.8
		C67.8,148.1,67.6,150.3,67.7,150.3L67.7,150.3z"/>
	<path fill="#D65B51" d="M199.4,209.3c0,0,11.7,28.1,59,39.7c0,0-8.5-24.5,0-44.3L199.4,209.3z"/>
</g>
<g>
</g>
<g>
</g>
<g>
</g>
<g>
</g>
<g>
</g>
<g>
</g>
<g>
</g>
<g>
</g>
<g>
</g>
<g>
</g>
<g>
</g>
<g>
</g>
<g>
</g>
<g>
</g>
<g>
</g>
</svg>
