<svg xmlns="http://www.w3.org/2000/svg" xmlns:xlink="http://www.w3.org/1999/xlink" viewBox="0 0 2269.59 1207.5"><defs><style>.a{fill:none;}.b{fill:#fcceb8;}.c{fill:#f9b5ac;}.d{fill:url(#a);}</style><pattern id="a" width="402.8" height="402.8" patternTransform="matrix(1, 0, 0, -1, -5001.9, -481.9)" patternUnits="userSpaceOnUse" viewBox="0 0 402.8 402.8"><rect class="a" width="402.8" height="402.8"/><polygon class="a" points="0 402.8 402.8 402.8 402.8 0 0 0 0 402.8"/><polygon class="b" points="402.8 0 0 0 0 402.8 402.8 402.8 402.8 0"/><path class="c" d="M61.2,342.1c-.1-16.6,6.2-30.1,16.5-42.8,8.6-10.6,14.5-19.3,13.7-33.6-.6-11.2,16.8-11.2,17.4,0,.8,14.2-3.4,26.4-12,37.6-9.4,12.2-18.3,22.3-18.1,38.8,0,11.2-17.4,11.2-17.5,0Z"/><path class="c" d="M162.1,294.4c7.7,0,7.7,11.9,0,11.9s-7.7-11.9,0-11.9Z"/><path class="c" d="M64.4,227c7.7,0,7.7,11.9,0,11.9s-7.6-11.9,0-11.9Z"/><path class="c" d="M103.5,229c7.7,0,7.7,11.9,0,11.9s-7.7-11.9,0-11.9Z"/><path class="c" d="M154.3,202.6c7.7,0,7.7,11.9,0,11.9s-7.7-11.9,0-11.9Z"/><path class="c" d="M147.7,234.6a288.26,288.26,0,0,0,26.5,12.2c4.4,1.7,7.5,5.8,6.1,10.7-1.2,4.1-6.3,7.9-10.7,6.1-10.4-4.2-20.7-8.8-30.7-14s-1.1-20.2,8.8-15Z"/><path class="c" d="M131.3,362.1a65.13,65.13,0,0,0,15.9-14.2c3-3.6,9.2-3.1,12.3,0,3.6,3.6,3,8.7,0,12.3a80.3,80.3,0,0,1-19.4,16.9c-9.6,6-18.3-9.1-8.8-15Z"/><path class="c" d="M244.8,363c-3.7-3.5-7.3-7-11-10.5-3.3-3.2-3.4-9.2,0-12.3a8.88,8.88,0,0,1,12.3,0c3.7,3.5,7.3,7,11,10.5,3.3,3.2,3.4,9.2,0,12.3a9,9,0,0,1-12.3,0Z"/><path class="c" d="M230.3,249.9c4.6,10.5,16.6,13.1,25.8,18.3,10.8,6.1,17,15.4,22.3,26.3,4.9,10-10.1,18.9-15.1,8.8-2.8-5.7-5.5-11.9-10.3-16.2-4-3.6-9.2-5.7-14-7.9-9.7-4.6-19.3-10.2-23.7-20.4s10.5-19.1,15-8.9Z"/><path class="c" d="M204.3,303.7c2-4.2,3.9-8.5,5.9-12.7s8.2-5.5,11.9-3.1c4.3,2.8,5.2,7.5,3.1,11.9-2,4.2-3.9,8.5-5.9,12.7s-8.2,5.5-11.9,3.1c-4.2-2.7-5.1-7.4-3.1-11.9Z"/><path class="c" d="M192,209.8a221.93,221.93,0,0,1-3.7-34.5c-.3-11.2,17.2-11.2,17.4,0a175.14,175.14,0,0,0,3.1,29.8c2.1,11.1-14.7,15.8-16.8,4.7Z"/><path class="c" d="M82.7,198.1c-7.2-9.1-14.4-18.4-17.6-29.7-2.2-7.7-.8-24.3-10.7-26.6-10.9-2.6-6.3-19.4,4.6-16.8,11.6,2.7,18,13.2,20.2,24.3,1.4,6.6,1.7,13.3,4.4,19.5s7.2,11.7,11.4,17.1c6.9,8.6-5.3,21-12.3,12.2Z"/><path class="c" d="M108.5,143.2c11.9-7.6,17.4-21.9,29.5-29.6,9.5-6,18.3,9.1,8.8,15.1-11.9,7.5-17.4,21.9-29.5,29.6-9.5,6-18.2-9.1-8.8-15.1Z"/><path class="c" d="M87.2,95.8A66.26,66.26,0,0,0,70.8,78.4c-3.8-2.8-5.7-7.6-3.1-11.9,2.2-3.8,8.1-5.9,11.9-3.1a86.46,86.46,0,0,1,22.6,23.7c6.1,9.4-8.9,18.1-15,8.7Z"/><path class="c" d="M55.2,28.4A47.62,47.62,0,0,0,70.7,17.6C78.5,9.5,90.8,21.8,83,29.9A60.48,60.48,0,0,1,64,43.4c-4.3,1.9-9.4,1.3-11.9-3.1-2.2-3.7-1.2-10,3.1-11.9Z"/><path class="c" d="M139.9,39.5c10.1,2.4,20.3,4.7,30.4,7.1,10.9,2.5,6.3,19.3-4.6,16.8-10.1-2.4-20.3-4.7-30.4-7.1-11-2.5-6.4-19.3,4.6-16.8Z"/><path class="c" d="M20.3,292.7a48.21,48.21,0,0,0-10.2-13.2c-3.4-3.2-3.2-9.1,0-12.3a8.88,8.88,0,0,1,12.3,0,65.9,65.9,0,0,1,13,16.7,8.74,8.74,0,0,1-15.1,8.8Z"/><path class="c" d="M22,203c-1.3-5.2-2.7-10.4-4-15.6a8.71,8.71,0,1,1,16.8-4.6c1.3,5.2,2.7,10.4,4,15.6A8.71,8.71,0,1,1,22,203Z"/><path class="c" d="M30.3,367.6c7.7,0,7.7,11.9,0,11.9s-7.7-11.9,0-11.9Z"/><path class="c" d="M372.9,374.4c7.7,0,7.7,11.9,0,11.9s-7.7-11.9,0-11.9Z"/><path class="c" d="M318.6,335.7c6.5,2.7,11.6,3.8,17.4-.6,4.8-3.6,8.7-8.2,13.6-11.7,10.7-7.7,24.7-7.8,35.9-1.1,9.6,5.8.9,20.9-8.8,15.1-12.1-7.3-19.8,3-28.5,10.2-10.4,8.6-21.7,10.1-34.2,4.9-10.2-4.2-5.7-21,4.6-16.8Z"/><path class="c" d="M318.6,287.2a66.62,66.62,0,0,0,9.7-20.5c2.9-10.8,19.7-6.2,16.8,4.6a78.9,78.9,0,0,1-11.4,24.6c-2.7,3.9-7.6,5.6-11.9,3.1-3.9-2.1-5.9-7.9-3.2-11.8Z"/><path class="c" d="M294.8,231.9c7.7,0,7.7,11.9,0,11.9s-7.7-11.9,0-11.9Z"/><path class="c" d="M260.7,181.1c7.7,0,7.7,11.9,0,11.9s-7.7-11.9,0-11.9Z"/><path class="c" d="M347.5,178.2c7.7,0,7.7,11.9,0,11.9s-7.6-11.9,0-11.9Z"/><path class="c" d="M374.4,252.2a69,69,0,0,1-24-18.1c-3-3.6-3.5-8.8,0-12.3,3.1-3.1,9.3-3.6,12.3,0a56.64,56.64,0,0,0,20.5,15.4c4.3,1.9,5.3,8.2,3.1,11.9-2.6,4.4-7.6,5.1-11.9,3.1Z"/><path class="c" d="M295,186.1c-.4-8.5-.7-16.9-1.1-25.4-.5-11.2,16.9-11.2,17.4,0,.4,8.5.7,16.9,1.1,25.4.5,11.2-16.9,11.2-17.4,0Z"/><path class="c" d="M256.8,123.2A484.26,484.26,0,0,0,309.1,92c9.3-6.3,18,8.8,8.8,15.1a530.47,530.47,0,0,1-52.3,31.2c-9.9,5.1-18.7-10-8.8-15.1Z"/><path class="c" d="M365.9,101.3c-16.2-15.1-31.6-30.9-46.4-47.4-7.5-8.3,4.8-20.7,12.3-12.3Q353.85,66.35,378.2,89c8.3,7.6-4.1,19.9-12.3,12.3Z"/><path class="c" d="M202,120.8c-.5-16.9,7.2-31.3,13.5-46.5,5.2-12.6,9.7-29.2-1.9-39.6-8.4-7.5,4-19.8,12.3-12.3,12.5,11.2,14.5,29,10.5,44.5-4.6,18.3-17.6,34.4-17,53.9.4,11.2-17,11.2-17.4,0Z"/><path class="c" d="M34.2,50.3c7.7,0,7.7,11.9,0,11.9s-7.7-11.9,0-11.9Z"/><path class="c" d="M47.9,87.4c7.7,0,7.7,11.9,0,11.9s-7.7-11.9,0-11.9Z"/><path class="c" d="M262.4,39.5c7.7,0,7.7,11.9,0,11.9s-7.6-11.9,0-11.9Z"/><path class="c" d="M372.2,17.6c7.7,0,7.7,11.9,0,11.9s-7.6-11.9,0-11.9Z"/><path class="c" d="M356.9,116.4c7.7,0,7.7,11.9,0,11.9s-7.7-11.9,0-11.9Z"/><path class="c" d="M203.1,366.8c7.7,0,7.7,11.9,0,11.9s-7.6-11.9,0-11.9Z"/><path class="c" d="M88.9,371.2c7.7,0,7.7,11.9,0,11.9s-7.6-11.9,0-11.9Z"/><path class="c" d="M293.2,373.4c7.7,0,7.7,11.9,0,11.9s-7.7-11.9,0-11.9Z"/><path class="c" d="M178.7,118.6c7.7,0,7.7,11.9,0,11.9s-7.7-11.9,0-11.9Z"/></pattern></defs><title>slope-right</title><path class="d" d="M2186.2,813.7,1196.6,295.2C826.2,101.2,416.2,0,.3,0h0V.5H0v1207H19.3v-98.1H2116.9C2277.1,1109.4,2328.9,888.5,2186.2,813.7Z"/></svg>