<?xml version="1.0" encoding="utf-8"?>
<!-- Generator: Adobe Illustrator 18.0.0, SVG Export Plug-In . SVG Version: 6.00 Build 0)  -->
<!DOCTYPE svg PUBLIC "-//W3C//DTD SVG 1.1//EN" "http://www.w3.org/Graphics/SVG/1.1/DTD/svg11.dtd">
<svg version="1.1" id="Layer_1" xmlns="http://www.w3.org/2000/svg" xmlns:xlink="http://www.w3.org/1999/xlink" x="0px" y="0px"
	 viewBox="0 0 881.8 715" enable-background="new 0 0 881.8 715" xml:space="preserve">
<g>
	<g>
		<path fill="#74592E" d="M877,614.3l-26.7-16c-7.6-4.5-5.7-16,2.9-17.9l19.9-4.4c8.6-1.9,10.5-13.3,2.9-17.9l-39.2-23.8
			c-6.6-4-6.2-13.6,0.7-17.1l23.4-11.8c7-3.5,7.2-13.4,0.4-17.2l-30.9-17.3c-6.5-3.7-6.7-13-0.3-16.9l25.5-15.5
			c6.3-3.8,6.2-13.1-0.2-16.8l-24.6-14.3c-5.9-3.4-6.6-11.6-1.4-15.9l46.6-38.9c7-5.8,2.9-17.3-6.3-17.3H814h-5.2H73H57.9H47.5
			c-9.2,0-13.3,11.7-6.1,17.4l7.3,5.8c6.2,4.9,4.3,14.8-3.3,17l-4.9,1.4c-7.6,2.2-9.6,12.1-3.3,17c6.3,5,4.2,15-3.5,17.1l-26.4,7
			c-8.3,2.2-9.9,13.4-2.5,17.8l26.7,16c7.6,4.5,5.7,16-2.9,17.9l-19.9,4.4c-8.6,1.9-10.5,13.3-2.9,17.9L44.9,516
			c6.6,4,6.2,13.6-0.7,17.1l-23.4,11.8c-7,3.5-7.2,13.4-0.4,17.2l30.9,17.3c6.5,3.7,6.7,13,0.3,16.9l-25.5,15.5
			c-6.3,3.8-6.2,13.1,0.2,16.8l24.6,14.3c5.9,3.4,6.6,11.6,1.4,15.9L5.7,697.7c-7,5.8-2.9,17.3,6.3,17.3h45.9H73h735.8h5.2h20.2
			c9.2,0,13.3-11.7,6.1-17.4l-7.3-5.8c-6.2-4.9-4.3-14.8,3.3-17l4.9-1.4c7.6-2.2,9.6-12.1,3.3-17c-6.3-5-4.2-15,3.5-17.1l26.4-7
			C882.8,629.9,884.4,618.8,877,614.3z"/>
		<path fill="#836031" d="M44.8,473c78.4-0.8,156.8-1.4,235.2-1.6c78.2-0.2,156.3-0.2,234.5,0.2c44.2,0.2-2.9,0.5,41.3,0.9
			c9.8,0.1,4.6-11.2-2.6-11.2c-78.6-0.7-66-1.1-144.7-1.3c-78.7-0.1-157.5,0.1-236.2,0.6c-44.5,0.3-89,0.7-133.6,1.1
			c-3.5,0-4.7,3.6-3.3,6.3C37.1,471.5,41.3,473,44.8,473L44.8,473z"/>
		<path fill="#836031" d="M350.4,529.9c122.6,7.5,245.5,10.7,368.4,9.4c34.5-0.4,69.1-1.1,103.6-2.1c9.2-0.3,7.3-14.8-1.1-14.5
			c-122.8,3.8-245.7,3.1-368.5-1.9c-34.5-1.4-69-3.2-103.5-5.3C340.2,514.8,342.1,529.4,350.4,529.9L350.4,529.9z"/>
		<path fill="#836031" d="M531.7,578c80.1-2.1,160.3-2.5,240.4-1c22.5,0.4,45,1,67.5,1.7c9.3,0.3,9.7-13.3,0.1-13.6
			c-80.1-2.5-160.3-3.2-240.4-2c-22.5,0.3-45,0.8-67.6,1.4C522.6,564.6,522,578.2,531.7,578L531.7,578z"/>
		<path fill="#836031" d="M175.6,605.9c107.4,4.6,214.8,9.2,322.2,13.9c30.5,1.3,61,2.6,91.5,3.9c3.6,0.2,7.8-1.8,8.5-5.7
			c0.6-3.7-2.8-6.8-6.3-6.9c-107.4-4.6-214.8-9.2-322.2-13.9c-30.5-1.3-61-2.6-91.5-3.9c-3.6-0.2-7.8,1.8-8.5,5.7
			C168.6,602.7,172.1,605.8,175.6,605.9L175.6,605.9z"/>
		<path fill="#836031" d="M86,692.1c69.5-2.4,139-2.1,208.5,1.1c19.8,0.9,39.7,2,59.5,3.4c3.7,0.2,7.2-2.6,7.1-6.4
			c-0.1-4-4.1-6.5-7.7-6.8c-69.4-4.7-138.9-6.7-208.4-5.8c-19.9,0.2-39.7,0.7-59.6,1.4C75.8,679.2,76.9,692.4,86,692.1L86,692.1z"/>
		<g>
			
				<rect x="539" y="375.9" transform="matrix(-0.3935 0.9193 -0.9193 -0.3935 1244.2809 80.4343)" fill="none" width="113.1" height="149.6"/>
			<path fill-rule="evenodd" clip-rule="evenodd" fill="#836031" d="M629.2,459.5c3.4-0.8,7.3-0.6,11-0.7
				C637.1,460.6,633.2,460.2,629.2,459.5z"/>
			<path fill-rule="evenodd" clip-rule="evenodd" fill="#836031" d="M637.4,454c4.2-1.1,10.5-1.8,14.8,0.4c-0.9,1.2,0.2,1.7-0.7,2.9
				C647.1,457.1,640,458,637.4,454z"/>
			<path fill-rule="evenodd" clip-rule="evenodd" fill="#836031" d="M613.8,416.6c-1-2-2.3,1.1-3.9,0.5c3.4,0.2,10.2,0.9,12.4-2.7
				c0.3,0.4,0.6,0.9,0.9,0.4c0.8,0.2,0.7,0.7,0.5,1.3c2.4,0.8,1.7-1.2,3.2-1.3c-0.6,2.5,4,0,2.5,0.5c-0.6-1.4,2.6-1.7,3.3-0.2
				c2.8,0.6,5.8-2.8,7.9-0.9c-6.5,3.6-17.9,1.6-21.3,4.8c-1.5,0.6-4.4-2.5-5.9,0.1c-1.1-1.2-5.7-1.7-5.5,0.3c0.8-0.7,2.1-0.3,3-0.8
				c0.4,2.7-2.1,0.7-3.9,1.6c1.1-2.8-6.5-0.9-8.8-0.6c-0.5-1.7,3.1-1.1,4.3-1.4c-0.9-1.2-3.7,0.7-5.7-0.3c0,0.5,0.1,1,0.5,1.3
				c-2.2,2-4.6-2.2-6.8-0.3c-0.2,0.7,2.5,0.7,3.1,0.3c-1,1-10.6,2.4-10.3,0.4c-1.5-0.2-0.8,0.5-1.2,1.6c-4.8-0.1-9,1.1-13.8,1
				c0.1,1.2,2.7,0.2,2.3,2.1c0.8,0.1,0.1-0.7,0.6-1.4c1.7,0.3,1.5,1.7,2.7,1.2c0.2-1.1-0.9,0.2-1.2-1c1-1.5,2.4,0.3,2.7,1.2
				c14.6-0.7,29.8-2,45.2-3.1c-6.5,1.9-16.7,2.4-24.9,3.2c-0.5,0.7,0,1,0.5,1.3c-0.5,0.9-1.9-0.3-2.4,0.6c-0.7-0.7,0.3-0.8,0.6-1.4
				c-1.6-0.6-1.8,2.2-3.2,2.4c-1.5-0.9-4.2-0.5-3.7,0c-0.5,0.8-3.2-1.5-1.4-1.7c-1.8-0.6-2.8-0.1-2.8,1.5
				c-7.2-0.4-13.9,0.3-20.9,0.1c-0.2,0.4,0.4,0.6,0.7,0.8c-12.5-0.7-24.1,1.2-37.4-2.6c2-0.3,1.9-0.7,0.3-2
				c5.8,1.2,14.9-0.9,21.2,1.6c4.8-1.5,10.6-0.4,15.8-0.7c-1.4-2.8-6.9-0.8-9.7-1c-1.9-0.2,0-2-1.7-2.3c2.2-1.8,5.3-3.4,9.8-1.7
				c1-2.1,5.9-0.6,10.1-1c2.5-0.2,2.9-0.4,5-0.5c3.4-0.2,10.3-2.6,13.8-1c6.6-2.3,15.1,0.3,21.7-1.9
				C613.4,415.5,614.6,414.6,613.8,416.6z"/>
			<path fill-rule="evenodd" clip-rule="evenodd" fill="#836031" d="M594.2,408.8c0.6-1-2.2-0.6-0.8-1.9c8.3,0.9,14.6-3.5,22.5-3.8
				c2.4,1.3,0.6,4.2,1,6.3c-2.3,2.3-6.6-0.3-8.6,2.7c-1.3-0.5-0.6-1.1-1.8-0.8c-14.1,4.4-29.8,4.7-45.2,5.8c1.2-2.3,4-0.6,5.6-1.9
				c-4.2,0.2-7,0.1-9.2,1.4c-0.2,1.5,1.1-0.8,2,0.3c-1,1-2.6,0.3-3.7,1.1c-1.3-1.4,1.3-0.2,1.2-1.6c-0.8-1.3-3.8-0.1-5.3-0.1
				c-0.2,2.2,1.2,0,2.7,1.2c-4.2-0.8-9.1-0.7-12.5-3.2c0.2-1.1,1-0.6,1.7-0.3c0.3-3.1-0.3-3.6,0.3-6.8c10.8-0.5,20.1-4.7,31.8-3
				c0.5-1.6-2.3,0.5-1-1.5c6.3,2.3,12-0.7,18.5-0.7c-2.1-1.5-6.5-0.7-8.8,0.5c-0.4-0.3,0.1-1-0.5-1.3c-1.2,1.9-2.3-0.9-3.4,1.7
				c-1.3-1.1,0-1.2,0.8-1.8c-1.4-0.5-3.3,0-3.8-1.1c1.9-0.8,2-0.5,4.2,0.2c3.3-1.5,7.1-1.5,10.9-1.7c1.5-2.6,5.4-3.7,7.1-2.8
				c2.8-2.4,14.4-2.8,10.9,5.7c-11.8,4-24.4,5.8-37.8,5.8c0.3-1.1,1.5,0.1,1.9-0.8c-7.4,3.2-17.6,5.4-27.7,4.7
				c0,1.1,2.2-0.1,3.4,0.9c-0.4,0.8-1.6-0.3-1.9,0.8c3.9,0.2,10-0.6,10.8-0.2C569.5,410.8,583.8,411,594.2,408.8z"/>
			<path fill-rule="evenodd" clip-rule="evenodd" fill="#836031" d="M555.8,437.2c-1.7,0.6-2.2-2.2-3.6-1.5
				c-6.8,1.1-17.4-1.5-26.9-0.8c0.1,1.1,0.1,2.2,0.2,3.3c6.4,3.7,13.5-0.9,19.5,1.9c4.6-0.2,15.2,1,23.4,0.4c-0.5-0.3-1-0.6-0.5-1.3
				c1.7,1,2.4,0,2.5,1.6c2.5-2.2,7.4-1.3,9.9-0.6c-0.3-0.3-0.9-0.4-0.7-0.8c1.5-0.4,1.9,1.4,2.9,0.7c-0.8-0.3-0.9-0.9-0.3-1.7
				c4.8,2.4,6.9-0.1,11.5,0.6c-0.2,0.5-1,0.4-0.4,0.9c3.5-0.2,9.9-1.1,10.6-3.5c1.6,0.6,2.4,0,2.5,1.6c0.5-0.4,0.9-0.9,1.5-1
				c7-0.6,14.9-1.1,20.8-1.2c0-1.1,3.5-1.2,4.5-2.9c-9.5-1.1-20.4,1-30,2.7c-0.7-1.1,1-0.9,0.1-1.5c-0.7,0.7-1.5-0.3-1,1.2
				c-9.4-0.9-20.2,3.2-27.9,0.3c0.6,0,1.2,0,1.7-0.3c-2.5-0.6-3.7-1.2-6.2-0.5c0.8,1.6,2.6,0.3,4.3,1.3c-0.1,0.7,0.3,1.1-0.3,2
				c-0.2-2.7-6.4-1.6-4-0.6c-0.9,1.5-3.2-0.6-4.9-1c-1.2,1.2,1.3,1,0.1,2.2C561.5,435,557.4,436.6,555.8,437.2z M598.2,438.3
				c-0.9,2.6-3.3-0.7-3.7,1.1C593.4,437.1,597.5,436.3,598.2,438.3z"/>
			<path fill-rule="evenodd" clip-rule="evenodd" fill="#836031" d="M543.2,431.8c0.8,0.4,1.2-0.1,2,0.3c0.3-1.5-1.2,0-1.8-0.8
				c3.6-3.2,9.2-0.3,13.9-2.6c0.9,0.4,0,1.5,1.4,1.7c0.8,0.1,0.1-0.7,0.6-1.4c4.2,0.9,9,0.7,13.3,1.4c-0.1-0.5-0.2-0.9,0.1-1.5
				c2.8,1.8,3.9-0.9,6.9,1.4c0.3-0.5,0.2-0.8-0.1-1.1c7.5,2.7,18.2-1.8,27.8,0.1c0.9-0.3,1.4-1.4,2.3-1.7c5.1,2.5,8.3,0.3,12,1.9
				c0.5-0.8,0.5-1.5-0.3-1.7c3.4-0.8,5.4,0.1,8.6-0.1c-1.9,1.7-5.1,0.4-7.4,1.1c0.2,0.5,2.1,0.7,1,2.6c-0.4-0.2-0.1-0.7-0.1-1.1
				c-1.3-0.7-1.8,0.4-3.1-0.3c-0.1,0.5,0.8,0.7,0.5,1.3c0.6-0.2,1-0.5,1.5-1c-2.6,2.4-13.4,1.8-19.5,1.8c-1.5,0.4-2.8,1.1-4.8,0.1
				c1-0.8,2.8,0.1,3.9-0.5c-0.6-1.1-3.2,0.6-5.4-1.2c0.2,0.7,0.5,1.3,0.8,1.9c-1,0.2-1.8,1-3.3,0.2c0.3-1.1,1.5,0.1,1.9-0.8
				c-1.4-0.6-1.9,0.9-3.6-0.5c1.3,3.2-12.1,2.4-12.8-0.1c-1-0.6-0.6,2.2-1.9,0.8c0.2-0.3,0.6-0.3,0.8-0.7c-0.8-0.4-1.2,0.1-2-0.3
				c0.5,2.7,4.7,1.1,5.4,2.3c-4.7,1.9-12.1-2.9-16.3,0.5c-1.2-1.7-8.1-1.1-8.6,0.1c-5.8-1.1-12.4,1.1-16.3-3.2
				C541.2,429,543.8,431,543.2,431.8z"/>
			<path fill-rule="evenodd" clip-rule="evenodd" fill="#836031" d="M550.6,449.4c1.1,0.3-0.1,1.5,0.8,1.9c1.6-0.4,3.3-0.4,5.3,0.1
				c-6.7,2.7-14.1,0.8-23,1.4c-0.9,2,2.2,2.8-0.4,3.6c3.4,1.4,7.2-1.3,9.7,1c-1.8-0.4-3.1,0.4-4.8,0.1c-1.1,1.1-0.8,1.5-0.7,2.9
				c-2,0.3-4.5-0.5-6.4-0.1c-1.8,5,5.6,4,8.7,4.8c1.4-0.1-0.2-1.7,1.2-1.6c3.8,1,10,0.1,14.5-0.2c-0.3-0.3-0.9-0.4-0.7-0.8
				c3.4,1.8,10.6,1.8,13.5,1c-0.2,0.1-1-0.6-0.7-0.8c15.8,1.3,30.4-0.2,45.1-1.6c1.2,0.9,1.7-0.2,2.9,0.7c2.9-2.1,7.8,0.8,10.5-1.9
				c-9.3-0.2-17.7,1.9-27.5,0.5c-3.3,0.7-10,2-12.1-0.4c2,0.3,6,1.7,5.7-0.8c-1.8-1.2-4.3,2.1-4.5-0.8c1.5,1.1,7.5-1.3,6.3,1.6
				c1.5-3,3.6,0.9,5.7-0.8c-0.9-1.1-2.4,0.5-2.3-1c1.9,1.2,2.2-1.3,3.7-1.1c0.1,1.5,3.1,0.7,2.2-0.1c-0.3,0.5-0.8,0.5-1.3,0.5
				c3.2-1.2,6.3,0.5,9.4-0.8c-0.3-0.3-0.9-0.4-0.7-0.8c1.3-0.2,1.2,1.9,1.8,0.8c-0.6-0.1-1-2,0.1-1.5c-0.8,1.2,4.9,1.1,4.1-0.9
				c2.7-0.1,4,2.1,5.7,0.3c-0.9-1.1-2,1.6-2-0.3c3.6-0.1,9-0.8,13.9-2.6c-2.8-1.2-5.2,1.9-7.3-0.4c-9,2.5-16.4,1.8-26.1,2.2
				c0.5,0.3,1.3,0.5,1.2,1c-3,0.3-16.6-0.5-13.6,1.7c-8.2-1.9-14.2,0.5-21.2-0.5c0.3-0.6,0.5-1.2,0.8-1.8c4.8,2.1,11.2,0.6,16.1-0.1
				c-3.1-0.7-4.3-0.6-6.6-0.7c0.3-0.6,0.5-1.2,0.8-1.8c3.1,0.3,5.8,1.1,9.9-0.6c-2.4,0.4,8,2.8,5.7,0.3c4.9,1.5,10.3-2.6,17.1-1.2
				c0.5-0.8-0.1-1.2,0.3-2c2.1,1,3.2-0.8,5-0.5c-1-2-6.1-1.1-8.4-0.4c1.3,0.8,2.3-0.3,2.1,1.4c-2.1,0.7-1.8-2.1-3.2-1.4
				c-1.7,0.3-6.3,1.3-10.3,1.5c-14.1,0.7-31.4-0.3-44.9,1.1c0.6,0.4,1.7,0.6,1.6,1.2C551.7,450.7,551.5,448.4,550.6,449.4z
				 M584.6,458.7c0.2,1.5,0.9,1.3,1.3,3.2c-4.6-2-12.3,1-17-1.4c-4.3,1.7-12-0.2-18.5,0.7c5.3-1.1,13-2.7,17.1-1.2
				c0.8-0.6,2,0,2.3-1.7C570.2,460.8,581.1,462.2,584.6,458.7z"/>
			<path fill-rule="evenodd" clip-rule="evenodd" fill="#836031" d="M641.9,443.6c-0.5-0.4-0.7-1-0.3-1.7c-1.2-0.9-1.4,0.9-2.6-0.1
				c-0.3,1.5,1.2,0,1.8,0.8c-3.8-0.5-5.8,0.6-8.6,0.1c-0.2,0.2,0.4,0.9,0.7,0.8c-3.6,0.5-11.5,0.8-16.4,2.1c4.2,0,8.2-0.8,12.5-0.5
				c-4.4,0.4-9.5,2.6-13.9-0.1c-5.1,0.7-13.1,0.2-19,2c1.1-0.2,0.6-1.6-0.3-0.6c-0.6-0.5,0.2-0.4,0.4-0.9c-1.2-0.9-4.2,0-5.4-1.2
				c1.4-0.8,4.8-1.7,5.9-0.1c0.8-0.2,1.4-0.8,2.1-1.2c17.3-0.1,34-1.8,50.2-4.7c1.6,0.6,2.4,0.3,3,1.8
				C647.6,442.1,646.1,440.7,641.9,443.6z"/>
			<path fill-rule="evenodd" clip-rule="evenodd" fill="#836031" d="M574.2,446.7c1.3,0.2,2.1-1,3.5-0.6c-3.3,3.9-10-0.6-13.7,2.1
				c-4.7-1.8-8.3-0.3-11.1-1.5c0.7-1.6,2.6-0.4,3.9-0.5c-0.1-1.4-2.3-0.2-3.4-0.9c1.6-1.2,4.2,0,6.1-0.6c-1.6-1.6-5.8,0.4-8.1-2.4
				c5.8-0.5,13.3,3.3,18.3,0.9c0.4,0.1,0.4,0.4,0.3,0.6C566.8,445.7,575,444.3,574.2,446.7z"/>
			<path fill-rule="evenodd" clip-rule="evenodd" fill="#836031" d="M585,476.5c-0.5-0.3-0.1-0.6,0.2-0.5c-4.2-2-13.1,1.1-18.3-0.9
				c-0.8-0.2-1.4,0.3-1.7,1.4c-4.6-0.8-8.8-0.8-12.5,0.5c-0.6-0.5-0.9-1.2-1.4-1.7c0.3-0.2,1.9-1.3,0.8-1.8
				c14.6-2.6,30.8,0.9,44.7-0.7c-1.1-1.8-5.2,0.8-6.5-1.2c-0.4,0.8,0.1,1.2-0.3,2c-2.1-1.5-4.4-3-5.8-1.4c-5.1-2.9-7.9-1.5-12.3-2.6
				c2.2-1.3,5-1.1,7.9-0.9c-2.8-1.4,1.4-1,3.2-1.3c-1.4-1.8,2.7-1.3,4.6-0.7c-3.7,0.5-0.2-0.1-1.9,1.9c1.6,0.8,2.2-0.6,3.7,0
				c-0.2-0.5,0.3-1.4-0.3-1.7c-0.8-0.2-0.1,1.8-1.9,0.8c0.5-0.3,0.9-0.6,0.4-0.9c0.7-1,2.1-0.3,3.3-0.2c-0.2,0.3-0.6,0.3-0.8,0.7
				c0.8-0.2,1.9,0.3,2.6,0.1c0.1-0.8-0.7-0.1-1.4-0.6c0.4-0.7,1.2-0.7,2.2-0.1c-0.2,2-1.8,0.5-2.3,1.7c3.4-0.2,7.2,0.5,10.3-0.4
				c-1.9-0.9-3.2-1.9-7.1-0.9c-1-1.9,2.4-0.7,3.5-0.6c0.4-0.5-0.6-2.1-1.2-1c1.7-0.8,6.9,0.1,11,0.4c0.2-0.6-0.7-0.7-1.2-1
				c3.7-0.1,7.2-0.8,11.5,0.6c-0.2,0.8-0.8,0.6-1,1.2c1.4,0.5,4.9-2.1,3.6-2.2c1.9,0.9,4.6-0.3,6.1-0.6c2.3-0.4,4.9,0.3,6.8,0.3
				c5.2-0.2,9.7-2.1,15.7-1.8c-0.1-1-3.4-2.4-3.8-1.1c-0.5-2.1-2.6-1.6-5-2.1c1.8-1.1,4.2-0.8,6.6-0.4c-0.2,0.3-0.6,0.3-0.8,0.7
				c2.4,0.9,3.5-1.2,6.2,0.5c-0.4,0.7,0.1,1-0.1,1.5c6.6,0.8,11.5-2.5,17.7-2.6c1.7,6-8.3,7.4-11.7,6.2c-0.2,1.9-3.7,0.6-5.2,2.1
				c0.6,2-1.9,2.9,0.5,3.9c-3.5,0.9-7.3,1.1-10.9,1.7c0.9-0.6,2-0.7,2.8-1.5c-4.2-3.8-10.4,0.6-16.2-2.1c-1.5-0.2,0.8,1.1-0.3,2
				c-6.2-0.3-13.7-0.4-18.5,0.7c-0.5,0.1-2-1-1.9,0.8c-1.4-1.9-2.6,0.4-3.4-2c-0.6,1.3-1.1-0.3-3.1-0.3c0.9,2.6-0.9,1.5-2.5,2.1
				c2,0.9,3.1,2,4.9,1c0.6,0.6-0.2,1.2-0.8,0.7c-0.4,0.8,0.1,1.2-0.3,2c-0.9-0.2-0.7-0.8-0.3-0.6c0-1.6-1.8-0.2-2.7-1.2
				c0,0.5,0.1,1,0.5,1.3c-3.3,0.7-8.6-2.1-12.1,0.7C587.2,475.6,585.7,475.1,585,476.5z"/>
			<path fill-rule="evenodd" clip-rule="evenodd" fill="#836031" d="M622.1,471c3.4,3.5,10.2-1.4,14.1,0.7c-1.2,1-3.1,0.4-4.6,0.7
				c0,0.6,0.2,1.2,1,1.5c-1.6,0.4-3.1,1.1-5,0.5c0.8-1.5,2.8,0.1,3.7-1.1c-0.7-1.4-5.8-0.7-5.2,1c-2.5-1.3-5.4,2-9,1
				c0.5-0.9,1.6-0.4,2.1-1.2c-3.9-0.1-7.6,0.4-11.4,0.5c-0.2,1.5,1.6,0.4,2.3,1c-0.3,1.7-5.9-0.1-3.3,0.2c0.3-1.5-1.2,0-1.8-0.8
				c5.1-3.3,10.7-3,16.8-1.9C621.6,472.4,621.8,471.7,622.1,471z"/>
			<path fill-rule="evenodd" clip-rule="evenodd" fill="#836031" d="M603.8,477.6c-10.7,0.8-25-0.3-34.5,0.7
				c-4.9,0.5-12.2-0.8-17.6-0.1c-0.3,1.1,0,2-0.9,3.4c2.9,1.3,4.7,1.7,5.7,0.3c3.3,1.1,6,0.7,8.8,0.6c-0.2-0.7-1.6-0.9-0.8-1.9
				c13.4,0.3,25.5-0.4,37.8-0.9c-0.3,0.5-1.1,0.6,0.1,1.1c7.4-2.9,14.1-2.5,22-0.2c1.3-0.4,1-1.2,1.7-1.4c-0.2,0.7,0.8,0.9,1,1.5
				c1.3-0.4,1-1.2,1.7-1.4c0.8,1.3,2.9,0.4,2.8,2.3c-6,2.6-13.1,2.1-19.1,4.7c-0.9-0.4-1.8-0.8-2.7-1.2c-1.3,0.2,0.1,1.3-1,1.2
				c-1.1-0.7-1.3-1.3-2.5-0.5c-0.5,0.7-6.5,0.5-8.1,0.3c-10.6,2.8-27.3-1.5-39.1,1.4c-0.8,5.9,7.8,2.5,11.2,3.7
				c-0.3-0.3-0.9-0.4-0.7-0.8c5.3,0.5,7.7-0.5,13.3,1.4c-1.2,2,0.6,2.8,0.3,4.4c14.1,3.1,26.2-1,40.3-0.4c1.2-1.2-1.3-1-0.1-2.2
				c0.3,1.8,3,2.4,4.5,1.9c-1.2,2.4,2.2,0.8,1.9,3c1.1-0.3,2.4-0.2,3.7,0c0.4-1.1-0.2-1.8,1-2.3c-1-0.8-2.6,1.5-2.6-0.1
				c3.5-0.8,4.1-5,1.5-7.4c-4.4,0.9-11.4,0.3-15.2-0.6c4.5-0.4,8.7-1.3,12.8-2.5c-0.8-0.3-0.9-0.9-0.3-1.7c2,0.7,5.1-0.8,6.2,0.5
				c-2,0-3.9,0.3-5.7,0.8c7.9-0.2,16.1,0.3,22.7-3.1c-1.1-1.5-5.1-1-4.8,1.2c-1.9-0.6-3.7,0.9-4.3-1.3c-1.5,3.1-4.9,1.5-7.4,2.2
				c0.2-1.9-1.9-1.4-0.8-3c-2-1.5-4.6,2.1-4.9-1c7.2-0.9,14.6-1.9,21.4,0.1c-1.9-0.9,1.9-1.4,3.3-0.2c0.9-4.4,9.9-0.6,10.5-5.7
				c-3.5,3.5-10-0.6-13.7,2.1c0.9,1,2.4-1.3,2.5,0.5c-7.1-0.6-17-0.9-23.4-0.4c-0.3,0.6-0.2,1.1-0.1,1.5c-4.6-1.5-12.6-1.9-15.6,0.3
				C614.8,476.2,606.6,477.4,603.8,477.6z M584.1,491.1c3.7-0.8,11.6,0.6,12.1,0.4c0.6-1.1,0.5,1,1.8,0.8
				C594,492.8,587.9,492.9,584.1,491.1z"/>
			<path fill-rule="evenodd" clip-rule="evenodd" fill="#836031" d="M583.7,506.9c-1,0.9,3.3-2.8,0.8-1.8c3-1.1,11.3,0.6,17.4,0.5
				c2.9,0,6.6,0.2,9.9,0.5c-8-1.7,0.9-1.2,5-1.6c-4.1-1.7-9.9,0.3-15-1.1c3.1-1.4,7.1-1.8,11.4-1.6c6.8,0.3,14.8,0.4,20.8,2.5
				c-2.7,2.3-7,0.7-10.3,1.5c-0.3,1.5,1.2,0,1.8,0.8c-2.7,0.6-5.2-1.9-6.8,0.8c-1.6-0.8-3.7-0.5-7.1-0.9c1.4,1.8-5,2.4-6.1,0.6
				c-0.5,1.3-3.6,1.6-5.9,1.2c0.4,1.6,2.6-0.2,4,0.6C597.2,509.1,590.2,508.8,583.7,506.9z"/>
			<path fill-rule="evenodd" clip-rule="evenodd" fill="#836031" d="M627.1,414.3c1.9-1.3,10-3.1,12.8-2.5c-0.5,1.5-2.2,0.1-3,0.8
				c2.2,1.5-2.9,1.5-4.5,1.8c-0.4-0.2-0.1-0.7-0.1-1.1C630.8,414.1,628.7,413.5,627.1,414.3z"/>
			<path fill-rule="evenodd" clip-rule="evenodd" fill="#836031" d="M635.9,473.7c0.5,2.2,2-1.1,2.8-1.5c0.6,0.3,1.2,0.5,1.8,0.8
				c-1.3,1.7-3.4,1.6-5.2,2.1c-0.5-1.2,0-1-1.6-1.2c0.9-0.4,3.4-1.5,3.5-0.6C637.1,474,636.5,473.9,635.9,473.7z"/>
		</g>
		<g>
			
				<rect x="73.5" y="343.4" transform="matrix(-0.3935 0.9193 -0.9193 -0.3935 565.7108 463.0744)" fill="none" width="113.1" height="149.6"/>
			<path fill-rule="evenodd" clip-rule="evenodd" fill="#836031" d="M163.6,427c3.4-0.8,7.3-0.6,11-0.7
				C171.6,428.1,167.6,427.6,163.6,427z"/>
			<path fill-rule="evenodd" clip-rule="evenodd" fill="#836031" d="M171.9,421.5c4.2-1.1,10.5-1.8,14.8,0.4
				c-0.9,1.2,0.2,1.7-0.7,2.9C181.5,424.5,174.5,425.5,171.9,421.5z"/>
			<path fill-rule="evenodd" clip-rule="evenodd" fill="#836031" d="M148.3,384.1c-1-2-2.3,1.1-3.9,0.5c3.4,0.2,10.2,0.9,12.4-2.7
				c0.3,0.4,0.6,0.9,0.9,0.4c0.8,0.2,0.7,0.7,0.5,1.3c2.4,0.8,1.7-1.2,3.2-1.3c-0.6,2.5,4,0,2.5,0.5c-0.6-1.4,2.6-1.7,3.3-0.2
				c2.8,0.6,5.8-2.8,7.9-0.9c-6.5,3.6-17.9,1.6-21.3,4.8c-1.5,0.6-4.4-2.5-5.9,0.1c-1.1-1.2-5.7-1.7-5.5,0.3c0.8-0.7,2.1-0.3,3-0.8
				c0.4,2.7-2.1,0.7-3.9,1.6c1.1-2.8-6.5-0.9-8.8-0.6c-0.5-1.7,3.1-1.1,4.3-1.4c-0.9-1.2-3.7,0.7-5.7-0.3c0,0.5,0.1,1,0.5,1.3
				c-2.2,2-4.6-2.2-6.8-0.3c-0.2,0.7,2.5,0.7,3.1,0.3c-1,1-10.6,2.4-10.3,0.4c-1.5-0.2-0.8,0.5-1.2,1.6c-4.8-0.1-9,1.1-13.8,1
				c0.1,1.2,2.7,0.2,2.3,2.1c0.8,0.1,0.1-0.7,0.6-1.4c1.7,0.3,1.5,1.7,2.7,1.2c0.2-1.1-0.9,0.2-1.2-1c1-1.5,2.4,0.3,2.7,1.2
				c14.6-0.7,29.8-2,45.2-3.1c-6.5,1.9-16.7,2.4-24.9,3.2c-0.5,0.7,0,1,0.5,1.3c-0.5,0.9-1.9-0.3-2.4,0.6c-0.7-0.7,0.3-0.8,0.6-1.4
				c-1.6-0.6-1.8,2.2-3.2,2.4c-1.5-0.9-4.2-0.5-3.7,0c-0.5,0.8-3.2-1.5-1.4-1.7c-1.8-0.6-2.8-0.1-2.8,1.5
				c-7.2-0.4-13.9,0.3-20.9,0.1c-0.2,0.4,0.4,0.6,0.7,0.8c-12.5-0.7-24.1,1.2-37.4-2.6c2-0.3,1.9-0.7,0.3-2
				c5.8,1.2,14.9-0.9,21.2,1.6c4.8-1.5,10.6-0.4,15.8-0.7c-1.4-2.8-6.9-0.8-9.7-1c-1.9-0.2,0-2-1.7-2.3c2.2-1.8,5.3-3.4,9.8-1.7
				c1-2.1,5.9-0.6,10.1-1c2.5-0.2,2.9-0.4,5-0.5c3.4-0.2,10.3-2.6,13.8-1c6.6-2.3,15.1,0.3,21.7-1.9
				C147.9,382.9,149.1,382.1,148.3,384.1z"/>
			<path fill-rule="evenodd" clip-rule="evenodd" fill="#836031" d="M128.7,376.2c0.6-1-2.2-0.6-0.8-1.9c8.3,0.9,14.6-3.5,22.5-3.8
				c2.4,1.3,0.6,4.2,1,6.3c-2.3,2.3-6.6-0.3-8.6,2.7c-1.3-0.5-0.6-1.1-1.8-0.8c-14.1,4.4-29.8,4.7-45.2,5.8c1.2-2.3,4-0.6,5.6-1.9
				c-4.2,0.2-7,0.1-9.2,1.4c-0.2,1.5,1.1-0.8,2,0.3c-1,1-2.6,0.3-3.7,1.1c-1.3-1.4,1.3-0.2,1.2-1.6c-0.8-1.3-3.8-0.1-5.3-0.1
				c-0.2,2.2,1.2,0,2.7,1.2c-4.2-0.8-9.1-0.7-12.5-3.2c0.2-1.1,1-0.6,1.7-0.3c0.3-3.1-0.3-3.6,0.3-6.8c10.8-0.5,20.1-4.7,31.8-3
				c0.5-1.6-2.3,0.5-1-1.5c6.3,2.3,12-0.7,18.5-0.7c-2.1-1.5-6.5-0.7-8.8,0.5c-0.4-0.3,0.1-1-0.5-1.3c-1.2,1.9-2.3-0.9-3.4,1.7
				c-1.3-1.1,0-1.2,0.8-1.8c-1.4-0.5-3.3,0-3.8-1.1c1.9-0.8,2-0.5,4.2,0.2c3.3-1.5,7.1-1.5,10.9-1.7c1.5-2.6,5.4-3.7,7.1-2.8
				c2.8-2.4,14.4-2.8,10.9,5.7c-11.8,4-24.4,5.8-37.8,5.8c0.3-1.1,1.5,0.1,1.9-0.8c-7.4,3.2-17.6,5.4-27.7,4.7
				c0,1.1,2.2-0.1,3.4,0.9c-0.4,0.8-1.6-0.3-1.9,0.8c3.9,0.2,10-0.6,10.8-0.2C103.9,378.3,118.3,378.5,128.7,376.2z"/>
			<path fill-rule="evenodd" clip-rule="evenodd" fill="#836031" d="M90.3,404.7c-1.7,0.6-2.2-2.2-3.6-1.5
				c-6.8,1.1-17.4-1.5-26.9-0.8c0.1,1.1,0.1,2.2,0.2,3.3c6.4,3.7,13.5-0.9,19.5,1.9c4.6-0.2,15.2,1,23.4,0.4c-0.5-0.3-1-0.6-0.5-1.3
				c1.7,1,2.4,0,2.5,1.6c2.5-2.2,7.4-1.3,9.9-0.6c-0.3-0.3-0.9-0.4-0.7-0.8c1.5-0.4,1.9,1.4,2.9,0.7c-0.8-0.3-0.9-0.9-0.3-1.7
				c4.8,2.4,6.9-0.1,11.5,0.6c-0.2,0.5-1,0.4-0.4,0.9c3.5-0.2,9.9-1.1,10.6-3.5c1.6,0.6,2.4,0,2.5,1.6c0.5-0.4,0.9-0.9,1.5-1
				c7-0.6,14.9-1.1,20.8-1.2c0-1.1,3.5-1.2,4.5-2.9c-9.5-1.1-20.4,1-30,2.7c-0.7-1.1,1-0.9,0.1-1.5c-0.7,0.7-1.5-0.3-1,1.2
				c-9.4-0.9-20.2,3.2-27.9,0.3c0.6,0,1.2,0,1.7-0.3c-2.5-0.6-3.7-1.2-6.2-0.5c0.8,1.6,2.6,0.3,4.3,1.3c-0.1,0.7,0.3,1.1-0.3,2
				c-0.2-2.7-6.4-1.6-4-0.6c-0.9,1.5-3.2-0.6-4.9-1c-1.2,1.2,1.3,1,0.1,2.2C96,402.5,91.9,404.1,90.3,404.7z M132.7,405.7
				c-0.9,2.6-3.3-0.7-3.7,1.1C127.9,404.6,132,403.8,132.7,405.7z"/>
			<path fill-rule="evenodd" clip-rule="evenodd" fill="#836031" d="M77.7,399.3c0.8,0.4,1.2-0.1,2,0.3c0.3-1.5-1.2,0-1.8-0.8
				c3.6-3.2,9.2-0.3,13.9-2.6c0.9,0.4,0,1.5,1.4,1.7c0.8,0.1,0.1-0.7,0.6-1.4c4.2,0.9,9,0.7,13.3,1.4c-0.1-0.5-0.2-0.9,0.1-1.5
				c2.8,1.8,3.9-0.9,6.9,1.4c0.3-0.5,0.2-0.8-0.1-1.1c7.5,2.7,18.2-1.8,27.8,0.1c0.9-0.3,1.4-1.4,2.3-1.7c5.1,2.5,8.3,0.3,12,1.9
				c0.5-0.8,0.5-1.5-0.3-1.7c3.4-0.8,5.4,0.1,8.6-0.1c-1.9,1.7-5.1,0.4-7.4,1.1c0.2,0.5,2.1,0.7,1,2.6c-0.4-0.2-0.1-0.7-0.1-1.1
				c-1.3-0.7-1.8,0.4-3.1-0.3c-0.1,0.5,0.8,0.7,0.5,1.3c0.6-0.2,1-0.5,1.5-1c-2.6,2.4-13.4,1.8-19.5,1.8c-1.5,0.4-2.8,1.1-4.8,0.1
				c1-0.8,2.8,0.1,3.9-0.5c-0.6-1.1-3.2,0.6-5.4-1.2c0.2,0.7,0.5,1.3,0.8,1.9c-1,0.2-1.8,1-3.3,0.2c0.3-1.1,1.5,0.1,1.9-0.8
				c-1.4-0.6-1.9,0.9-3.6-0.5c1.3,3.2-12.1,2.4-12.8-0.1c-1-0.6-0.6,2.2-1.9,0.8c0.2-0.3,0.6-0.3,0.8-0.7c-0.8-0.4-1.2,0.1-2-0.3
				c0.5,2.7,4.7,1.1,5.4,2.3c-4.7,1.9-12.1-2.9-16.3,0.5c-1.2-1.7-8.1-1.1-8.6,0.1c-5.8-1.1-12.4,1.1-16.3-3.2
				C75.7,396.5,78.3,398.5,77.7,399.3z"/>
			<path fill-rule="evenodd" clip-rule="evenodd" fill="#836031" d="M85.1,416.9c1.1,0.3-0.1,1.5,0.8,1.9c1.6-0.4,3.3-0.4,5.3,0.1
				c-6.7,2.7-14.1,0.8-23,1.4c-0.9,2,2.2,2.8-0.4,3.6c3.4,1.4,7.2-1.3,9.7,1c-1.8-0.4-3.1,0.4-4.8,0.1c-1.1,1.1-0.8,1.5-0.7,2.9
				c-2,0.3-4.5-0.5-6.4-0.1c-1.8,5,5.6,4,8.7,4.8c1.4-0.1-0.2-1.7,1.2-1.6c3.8,1,10,0.1,14.5-0.2c-0.3-0.3-0.9-0.4-0.7-0.8
				c3.4,1.8,10.6,1.8,13.5,1c-0.2,0.1-1-0.6-0.7-0.8c15.8,1.3,30.4-0.2,45.1-1.6c1.2,0.9,1.7-0.2,2.9,0.7c2.9-2.1,7.8,0.8,10.5-1.9
				c-9.3-0.2-17.7,1.9-27.5,0.5c-3.3,0.7-10,2-12.1-0.4c2,0.3,6,1.7,5.7-0.8c-1.8-1.2-4.3,2.1-4.5-0.8c1.5,1.1,7.5-1.3,6.3,1.6
				c1.5-3,3.6,0.9,5.7-0.8c-0.9-1.1-2.4,0.5-2.3-1c1.9,1.2,2.2-1.3,3.7-1.1c0.1,1.5,3.1,0.7,2.2-0.1c-0.3,0.5-0.8,0.5-1.3,0.5
				c3.2-1.2,6.3,0.5,9.4-0.8c-0.3-0.3-0.9-0.4-0.7-0.8c1.3-0.2,1.2,1.9,1.8,0.8c-0.6-0.1-1-2,0.1-1.5c-0.8,1.2,4.9,1.1,4.1-0.9
				c2.7-0.1,4,2.1,5.7,0.3c-0.9-1.1-2,1.6-2-0.3c3.6-0.1,9-0.8,13.9-2.6c-2.8-1.2-5.2,1.9-7.3-0.4c-9,2.5-16.4,1.8-26.1,2.2
				c0.5,0.3,1.3,0.5,1.2,1c-3,0.3-16.6-0.5-13.6,1.7c-8.2-1.9-14.2,0.5-21.2-0.5c0.3-0.6,0.5-1.2,0.8-1.8c4.8,2.1,11.2,0.6,16.1-0.1
				c-3.1-0.7-4.3-0.6-6.6-0.7c0.3-0.6,0.5-1.2,0.8-1.8c3.1,0.3,5.8,1.1,9.9-0.6c-2.4,0.4,8,2.8,5.7,0.3c4.9,1.5,10.3-2.6,17.1-1.2
				c0.5-0.8-0.1-1.2,0.3-2c2.1,1,3.2-0.8,5-0.5c-1-2-6.1-1.1-8.4-0.4c1.3,0.8,2.3-0.3,2.1,1.4c-2.1,0.7-1.8-2.1-3.2-1.4
				c-1.7,0.3-6.3,1.3-10.3,1.5c-14.1,0.7-31.4-0.3-44.9,1.1c0.6,0.4,1.7,0.6,1.6,1.2C86.2,418.2,86,415.9,85.1,416.9z M119.1,426.1
				c0.2,1.5,0.9,1.3,1.3,3.2c-4.6-2-12.3,1-17-1.4c-4.3,1.7-12-0.2-18.5,0.7c5.3-1.1,13-2.7,17.1-1.2c0.8-0.6,2,0,2.3-1.7
				C104.7,428.3,115.6,429.6,119.1,426.1z"/>
			<path fill-rule="evenodd" clip-rule="evenodd" fill="#836031" d="M176.4,411.1c-0.5-0.4-0.7-1-0.3-1.7c-1.2-0.9-1.4,0.9-2.6-0.1
				c-0.3,1.5,1.2,0,1.8,0.8c-3.8-0.5-5.8,0.6-8.6,0.1c-0.2,0.2,0.4,0.9,0.7,0.8c-3.6,0.5-11.5,0.8-16.4,2.1c4.2,0,8.2-0.8,12.5-0.5
				c-4.4,0.4-9.5,2.6-13.9-0.1c-5.1,0.7-13.1,0.2-19,2c1.1-0.2,0.6-1.6-0.3-0.6c-0.6-0.5,0.2-0.4,0.4-0.9c-1.2-0.9-4.2,0-5.4-1.2
				c1.4-0.8,4.8-1.7,5.9-0.1c0.8-0.2,1.4-0.8,2.1-1.2c17.3-0.1,34-1.8,50.2-4.7c1.6,0.6,2.4,0.3,3,1.8
				C182.1,409.6,180.6,408.2,176.4,411.1z"/>
			<path fill-rule="evenodd" clip-rule="evenodd" fill="#836031" d="M108.7,414.2c1.3,0.2,2.1-1,3.5-0.6c-3.3,3.9-10-0.6-13.7,2.1
				c-4.7-1.8-8.3-0.3-11.1-1.5c0.7-1.6,2.6-0.4,3.9-0.5c-0.1-1.4-2.3-0.2-3.4-0.9c1.6-1.2,4.2,0,6.1-0.6c-1.6-1.6-5.8,0.4-8.1-2.4
				c5.8-0.5,13.3,3.3,18.3,0.9c0.4,0.1,0.4,0.4,0.3,0.6C101.3,413.2,109.5,411.7,108.7,414.2z"/>
			<path fill-rule="evenodd" clip-rule="evenodd" fill="#836031" d="M119.5,443.9c-0.5-0.3-0.1-0.6,0.2-0.5
				c-4.2-2-13.1,1.1-18.3-0.9c-0.8-0.2-1.4,0.3-1.7,1.4c-4.6-0.8-8.8-0.8-12.5,0.5c-0.6-0.5-0.9-1.2-1.4-1.7
				c0.3-0.2,1.9-1.3,0.8-1.8c14.6-2.6,30.8,0.9,44.7-0.7c-1.1-1.8-5.2,0.8-6.5-1.2c-0.4,0.8,0.1,1.2-0.3,2c-2.1-1.5-4.4-3-5.8-1.4
				c-5.1-2.9-7.9-1.5-12.3-2.6c2.2-1.3,5-1.1,7.9-0.9c-2.8-1.4,1.4-1,3.2-1.3c-1.4-1.8,2.7-1.3,4.6-0.7c-3.7,0.5-0.2-0.1-1.9,1.9
				c1.6,0.8,2.2-0.6,3.7,0c-0.2-0.5,0.3-1.4-0.3-1.7c-0.8-0.2-0.1,1.8-1.9,0.8c0.5-0.3,0.9-0.6,0.4-0.9c0.7-1,2.1-0.3,3.3-0.2
				c-0.2,0.3-0.6,0.3-0.8,0.7c0.8-0.2,1.9,0.3,2.6,0.1c0.1-0.8-0.7-0.1-1.4-0.6c0.4-0.7,1.2-0.7,2.2-0.1c-0.2,2-1.8,0.5-2.3,1.7
				c3.4-0.2,7.2,0.5,10.3-0.4c-1.9-0.9-3.2-1.9-7.1-0.9c-1-1.9,2.4-0.7,3.5-0.6c0.4-0.5-0.6-2.1-1.2-1c1.7-0.8,6.9,0.1,11,0.4
				c0.2-0.6-0.7-0.7-1.2-1c3.7-0.1,7.2-0.8,11.5,0.6c-0.2,0.8-0.8,0.6-1,1.2c1.4,0.5,4.9-2.1,3.6-2.2c1.9,0.9,4.6-0.3,6.1-0.6
				c2.3-0.4,4.9,0.3,6.8,0.3c5.2-0.2,9.7-2.1,15.7-1.8c-0.1-1-3.4-2.4-3.8-1.1c-0.5-2.1-2.6-1.6-5-2.1c1.8-1.1,4.2-0.8,6.6-0.4
				c-0.2,0.3-0.6,0.3-0.8,0.7c2.4,0.9,3.5-1.2,6.2,0.5c-0.4,0.7,0.1,1-0.1,1.5c6.6,0.8,11.5-2.5,17.7-2.6c1.7,6-8.3,7.4-11.7,6.2
				c-0.2,1.9-3.7,0.6-5.2,2.1c0.6,2-1.9,2.9,0.5,3.9c-3.5,0.9-7.3,1.1-10.9,1.7c0.9-0.6,2-0.7,2.8-1.5c-4.2-3.8-10.4,0.6-16.2-2.1
				c-1.5-0.2,0.8,1.1-0.3,2c-6.2-0.3-13.7-0.4-18.5,0.7c-0.5,0.1-2-1-1.9,0.8c-1.4-1.9-2.6,0.4-3.4-2c-0.6,1.3-1.1-0.3-3.1-0.3
				c0.9,2.6-0.9,1.5-2.5,2.1c2,0.9,3.1,2,4.9,1c0.6,0.6-0.2,1.2-0.8,0.7c-0.4,0.8,0.1,1.2-0.3,2c-0.9-0.2-0.7-0.8-0.3-0.6
				c0-1.6-1.8-0.2-2.7-1.2c0,0.5,0.1,1,0.5,1.3c-3.3,0.7-8.6-2.1-12.1,0.7C121.6,443.1,120.2,442.6,119.5,443.9z"/>
			<path fill-rule="evenodd" clip-rule="evenodd" fill="#836031" d="M156.6,438.4c3.4,3.5,10.2-1.4,14.1,0.7c-1.2,1-3.1,0.4-4.6,0.7
				c0,0.6,0.2,1.2,1,1.5c-1.6,0.4-3.1,1.1-5,0.5c0.8-1.5,2.8,0.1,3.7-1.1c-0.7-1.4-5.8-0.7-5.2,1c-2.5-1.3-5.4,2-9,1
				c0.5-0.9,1.6-0.4,2.1-1.2c-3.9-0.1-7.6,0.4-11.4,0.5c-0.2,1.5,1.6,0.4,2.3,1c-0.3,1.7-5.9-0.1-3.3,0.2c0.3-1.5-1.2,0-1.8-0.8
				c5.1-3.3,10.7-3,16.8-1.9C156.1,439.9,156.2,439.2,156.6,438.4z"/>
			<path fill-rule="evenodd" clip-rule="evenodd" fill="#836031" d="M138.3,445c-10.7,0.8-25-0.3-34.5,0.7
				c-4.9,0.5-12.2-0.8-17.6-0.1c-0.3,1.1,0,2-0.9,3.4c2.9,1.3,4.7,1.7,5.7,0.3c3.3,1.1,6,0.7,8.8,0.6c-0.2-0.7-1.6-0.9-0.8-1.9
				c13.4,0.3,25.5-0.4,37.8-0.9c-0.3,0.5-1.1,0.6,0.1,1.1c7.4-2.9,14.1-2.5,22-0.2c1.3-0.4,1-1.2,1.7-1.4c-0.2,0.7,0.8,0.9,1,1.5
				c1.3-0.4,1-1.2,1.7-1.4c0.8,1.3,2.9,0.4,2.8,2.3c-6,2.6-13.1,2.1-19.1,4.7c-0.9-0.4-1.8-0.8-2.7-1.2c-1.3,0.2,0.1,1.3-1,1.2
				c-1.1-0.7-1.3-1.3-2.5-0.5c-0.5,0.7-6.5,0.5-8.1,0.3c-10.6,2.8-27.3-1.5-39.1,1.4c-0.8,5.9,7.8,2.5,11.2,3.7
				c-0.3-0.3-0.9-0.4-0.7-0.8c5.3,0.5,7.7-0.5,13.3,1.4c-1.2,2,0.6,2.8,0.3,4.4c14.1,3.1,26.2-1,40.3-0.4c1.2-1.2-1.3-1-0.1-2.2
				c0.3,1.8,3,2.4,4.5,1.9c-1.2,2.4,2.2,0.8,1.9,3c1.1-0.3,2.4-0.2,3.7,0c0.4-1.1-0.2-1.8,1-2.3c-1-0.8-2.6,1.5-2.6-0.1
				c3.5-0.8,4.1-5,1.5-7.4c-4.4,0.9-11.4,0.3-15.2-0.6c4.5-0.4,8.7-1.3,12.8-2.5c-0.8-0.3-0.9-0.9-0.3-1.7c2,0.7,5.1-0.8,6.2,0.5
				c-2,0-3.9,0.3-5.7,0.8c7.9-0.2,16.1,0.3,22.7-3.1c-1.1-1.5-5.1-1-4.8,1.2c-1.9-0.6-3.7,0.9-4.3-1.3c-1.5,3.1-4.9,1.5-7.4,2.2
				c0.2-1.9-1.9-1.4-0.8-3c-2-1.5-4.6,2.1-4.9-1c7.2-0.9,14.6-1.9,21.4,0.1c-1.9-0.9,1.9-1.4,3.3-0.2c0.9-4.4,9.9-0.6,10.5-5.7
				c-3.5,3.5-10-0.6-13.7,2.1c0.9,1,2.4-1.3,2.5,0.5c-7.1-0.6-17-0.9-23.4-0.4c-0.3,0.6-0.2,1.1-0.1,1.5c-4.6-1.5-12.6-1.9-15.6,0.3
				C149.2,443.6,141.1,444.8,138.3,445z M118.6,458.5c3.7-0.8,11.6,0.6,12.1,0.4c0.6-1.1,0.5,1,1.8,0.8
				C128.5,460.3,122.4,460.4,118.6,458.5z"/>
			<path fill-rule="evenodd" clip-rule="evenodd" fill="#836031" d="M118.2,474.4c-1,0.9,3.3-2.8,0.8-1.8c3-1.1,11.3,0.6,17.4,0.5
				c2.9,0,6.6,0.2,9.9,0.5c-8-1.7,0.9-1.2,5-1.6c-4.1-1.7-9.9,0.3-15-1.1c3.1-1.4,7.1-1.8,11.4-1.6c6.8,0.3,14.8,0.4,20.8,2.5
				c-2.7,2.3-7,0.7-10.3,1.5c-0.3,1.5,1.2,0,1.8,0.8c-2.7,0.6-5.2-1.9-6.8,0.8c-1.6-0.8-3.7-0.5-7.1-0.9c1.4,1.8-5,2.4-6.1,0.6
				c-0.5,1.3-3.6,1.6-5.9,1.2c0.4,1.6,2.6-0.2,4,0.6C131.7,476.6,124.7,476.2,118.2,474.4z"/>
			<path fill-rule="evenodd" clip-rule="evenodd" fill="#836031" d="M161.6,381.8c1.9-1.3,10-3.1,12.8-2.5c-0.5,1.5-2.2,0.1-3,0.8
				c2.2,1.5-2.9,1.5-4.5,1.8c-0.4-0.2-0.1-0.7-0.1-1.1C165.3,381.5,163.2,381,161.6,381.8z"/>
			<path fill-rule="evenodd" clip-rule="evenodd" fill="#836031" d="M170.4,441.1c0.5,2.2,2-1.1,2.8-1.5c0.6,0.3,1.2,0.5,1.8,0.8
				c-1.3,1.7-3.4,1.6-5.2,2.1c-0.5-1.2,0-1-1.6-1.2c0.9-0.4,3.4-1.5,3.5-0.6C171.6,441.5,171,441.3,170.4,441.1z"/>
		</g>
		<g>
			
				<rect x="187.8" y="379.2" transform="matrix(-0.3935 0.9193 -0.9193 -0.3935 757.8516 407.9629)" fill="none" width="113.1" height="149.6"/>
			<path fill-rule="evenodd" clip-rule="evenodd" fill="#836031" d="M277.9,462.8c3.4-0.8,7.3-0.6,11-0.7
				C285.8,463.9,281.9,463.5,277.9,462.8z"/>
			<path fill-rule="evenodd" clip-rule="evenodd" fill="#836031" d="M286.2,457.3c4.2-1.1,10.5-1.8,14.8,0.4
				c-0.9,1.2,0.2,1.7-0.7,2.9C295.8,460.4,288.7,461.3,286.2,457.3z"/>
			<path fill-rule="evenodd" clip-rule="evenodd" fill="#836031" d="M262.6,419.9c-1-2-2.3,1.1-3.9,0.5c3.4,0.2,10.2,0.9,12.4-2.7
				c0.3,0.4,0.6,0.9,0.9,0.4c0.8,0.2,0.7,0.7,0.5,1.3c2.4,0.8,1.7-1.2,3.2-1.3c-0.6,2.5,4,0,2.5,0.5c-0.6-1.4,2.6-1.7,3.3-0.2
				c2.8,0.6,5.8-2.8,7.9-0.9c-6.5,3.6-17.9,1.6-21.3,4.8c-1.5,0.6-4.4-2.5-5.9,0.1c-1.1-1.2-5.7-1.7-5.5,0.3c0.8-0.7,2.1-0.3,3-0.8
				c0.4,2.7-2.1,0.7-3.9,1.6c1.1-2.8-6.5-0.9-8.8-0.6c-0.5-1.7,3.1-1.1,4.3-1.4c-0.9-1.2-3.7,0.7-5.7-0.3c0,0.5,0.1,1,0.5,1.3
				c-2.2,2-4.6-2.2-6.8-0.3c-0.2,0.7,2.5,0.7,3.1,0.3c-1,1-10.6,2.4-10.3,0.4c-1.5-0.2-0.8,0.5-1.2,1.6c-4.8-0.1-9,1.1-13.8,1
				c0.1,1.2,2.7,0.2,2.3,2.1c0.8,0.1,0.1-0.7,0.6-1.4c1.7,0.3,1.5,1.7,2.7,1.2c0.2-1.1-0.9,0.2-1.2-1c1-1.5,2.4,0.3,2.7,1.2
				c14.6-0.7,29.8-2,45.2-3.1c-6.5,1.9-16.7,2.4-24.9,3.2c-0.5,0.7,0,1,0.5,1.3c-0.5,0.9-1.9-0.3-2.4,0.6c-0.7-0.7,0.3-0.8,0.6-1.4
				c-1.6-0.6-1.8,2.2-3.2,2.4c-1.5-0.9-4.2-0.5-3.7,0c-0.5,0.8-3.2-1.5-1.4-1.7c-1.8-0.6-2.8-0.1-2.8,1.5
				c-7.2-0.4-13.9,0.3-20.9,0.1c-0.2,0.4,0.4,0.6,0.7,0.8c-12.5-0.7-24.1,1.2-37.4-2.6c2-0.3,1.9-0.7,0.3-2
				c5.8,1.2,14.9-0.9,21.2,1.6c4.8-1.5,10.6-0.4,15.8-0.7c-1.4-2.8-6.9-0.8-9.7-1c-1.9-0.2,0-2-1.7-2.3c2.2-1.8,5.3-3.4,9.8-1.7
				c1-2.1,5.9-0.6,10.1-1c2.5-0.2,2.9-0.4,5-0.5c3.4-0.2,10.3-2.6,13.8-1c6.6-2.3,15.1,0.3,21.7-1.9
				C262.1,418.8,263.3,417.9,262.6,419.9z"/>
			<path fill-rule="evenodd" clip-rule="evenodd" fill="#836031" d="M243,412.1c0.6-1-2.2-0.6-0.8-1.9c8.3,0.9,14.6-3.5,22.5-3.8
				c2.4,1.3,0.6,4.2,1,6.3c-2.3,2.3-6.6-0.3-8.6,2.7c-1.3-0.5-0.6-1.1-1.8-0.8c-14.1,4.4-29.8,4.7-45.2,5.8c1.2-2.3,4-0.6,5.6-1.9
				c-4.2,0.2-7,0.1-9.2,1.4c-0.2,1.5,1.1-0.8,2,0.3c-1,1-2.6,0.3-3.7,1.1c-1.3-1.4,1.3-0.2,1.2-1.6c-0.8-1.3-3.8-0.1-5.3-0.1
				c-0.2,2.2,1.2,0,2.7,1.2c-4.2-0.8-9.1-0.7-12.5-3.2c0.2-1.1,1-0.6,1.7-0.3c0.3-3.1-0.3-3.6,0.3-6.8c10.8-0.5,20.1-4.7,31.8-3
				c0.5-1.6-2.3,0.5-1-1.5c6.3,2.3,12-0.7,18.5-0.7c-2.1-1.5-6.5-0.7-8.8,0.5c-0.4-0.3,0.1-1-0.5-1.3c-1.2,1.9-2.3-0.9-3.4,1.7
				c-1.3-1.1,0-1.2,0.8-1.8c-1.4-0.5-3.3,0-3.8-1.1c1.9-0.8,2-0.5,4.2,0.2c3.3-1.5,7.1-1.5,10.9-1.7c1.5-2.6,5.4-3.7,7.1-2.8
				c2.8-2.4,14.4-2.8,10.9,5.7c-11.8,4-24.4,5.8-37.8,5.8c0.3-1.1,1.5,0.1,1.9-0.8c-7.4,3.2-17.6,5.4-27.7,4.7
				c0,1.1,2.2-0.1,3.4,0.9c-0.4,0.8-1.6-0.3-1.9,0.8c3.9,0.2,10-0.6,10.8-0.2C218.2,414.1,232.5,414.3,243,412.1z"/>
			<path fill-rule="evenodd" clip-rule="evenodd" fill="#836031" d="M204.6,440.5c-1.7,0.6-2.2-2.2-3.6-1.5
				c-6.8,1.1-17.4-1.5-26.9-0.8c0.1,1.1,0.1,2.2,0.2,3.3c6.4,3.7,13.5-0.9,19.5,1.9c4.6-0.2,15.2,1,23.4,0.4c-0.5-0.3-1-0.6-0.5-1.3
				c1.7,1,2.4,0,2.5,1.6c2.5-2.2,7.4-1.3,9.9-0.6c-0.3-0.3-0.9-0.4-0.7-0.8c1.5-0.4,1.9,1.4,2.9,0.7c-0.8-0.3-0.9-0.9-0.3-1.7
				c4.8,2.4,6.9-0.1,11.5,0.6c-0.2,0.5-1,0.4-0.4,0.9c3.5-0.2,9.9-1.1,10.6-3.5c1.6,0.6,2.4,0,2.5,1.6c0.5-0.4,0.9-0.9,1.5-1
				c7-0.6,14.9-1.1,20.8-1.2c0-1.1,3.5-1.2,4.5-2.9c-9.5-1.1-20.4,1-30,2.7c-0.7-1.1,1-0.9,0.1-1.5c-0.7,0.7-1.5-0.3-1,1.2
				c-9.4-0.9-20.2,3.2-27.9,0.3c0.6,0,1.2,0,1.7-0.3c-2.5-0.6-3.7-1.2-6.2-0.5c0.8,1.6,2.6,0.3,4.3,1.3c-0.1,0.7,0.3,1.1-0.3,2
				c-0.2-2.7-6.4-1.6-4-0.6c-0.9,1.5-3.2-0.6-4.9-1c-1.2,1.2,1.3,1,0.1,2.2C210.3,438.3,206.1,439.9,204.6,440.5z M246.9,441.6
				c-0.9,2.6-3.3-0.7-3.7,1.1C242.1,440.4,246.3,439.6,246.9,441.6z"/>
			<path fill-rule="evenodd" clip-rule="evenodd" fill="#836031" d="M191.9,435.1c0.8,0.4,1.2-0.1,2,0.3c0.3-1.5-1.2,0-1.8-0.8
				c3.6-3.2,9.2-0.3,13.9-2.6c0.9,0.4,0,1.5,1.4,1.7c0.8,0.1,0.1-0.7,0.6-1.4c4.2,0.9,9,0.7,13.3,1.4c-0.1-0.5-0.2-0.9,0.1-1.5
				c2.8,1.8,3.9-0.9,6.9,1.4c0.3-0.5,0.2-0.8-0.1-1.1c7.5,2.7,18.2-1.8,27.8,0.1c0.9-0.3,1.4-1.4,2.3-1.7c5.1,2.5,8.3,0.3,12,1.9
				c0.5-0.8,0.5-1.5-0.3-1.7c3.4-0.8,5.4,0.1,8.6-0.1c-1.9,1.7-5.1,0.4-7.4,1.1c0.2,0.5,2.1,0.7,1,2.6c-0.4-0.2-0.1-0.7-0.1-1.1
				c-1.3-0.7-1.8,0.4-3.1-0.3c-0.1,0.5,0.8,0.7,0.5,1.3c0.6-0.2,1-0.5,1.5-1c-2.6,2.4-13.4,1.8-19.5,1.8c-1.5,0.4-2.8,1.1-4.8,0.1
				c1-0.8,2.8,0.1,3.9-0.5c-0.6-1.1-3.2,0.6-5.4-1.2c0.2,0.7,0.5,1.3,0.8,1.9c-1,0.2-1.8,1-3.3,0.2c0.3-1.1,1.5,0.1,1.9-0.8
				c-1.4-0.6-1.9,0.9-3.6-0.5c1.3,3.2-12.1,2.4-12.8-0.1c-1-0.6-0.6,2.2-1.9,0.8c0.2-0.3,0.6-0.3,0.8-0.7c-0.8-0.4-1.2,0.1-2-0.3
				c0.5,2.7,4.7,1.1,5.4,2.3c-4.7,1.9-12.1-2.9-16.3,0.5c-1.2-1.7-8.1-1.1-8.6,0.1c-5.8-1.1-12.4,1.1-16.3-3.2
				C189.9,432.3,192.6,434.3,191.9,435.1z"/>
			<path fill-rule="evenodd" clip-rule="evenodd" fill="#836031" d="M199.3,452.7c1.1,0.3-0.1,1.5,0.8,1.9c1.6-0.4,3.3-0.4,5.3,0.1
				c-6.7,2.7-14.1,0.8-23,1.4c-0.9,2,2.2,2.8-0.4,3.6c3.4,1.4,7.2-1.3,9.7,1c-1.8-0.4-3.1,0.4-4.8,0.1c-1.1,1.1-0.8,1.5-0.7,2.9
				c-2,0.3-4.5-0.5-6.4-0.1c-1.8,5,5.6,4,8.7,4.8c1.4-0.1-0.2-1.7,1.2-1.6c3.8,1,10,0.1,14.5-0.2c-0.3-0.3-0.9-0.4-0.7-0.8
				c3.4,1.8,10.6,1.8,13.5,1c-0.2,0.1-1-0.6-0.7-0.8c15.8,1.3,30.4-0.2,45.1-1.6c1.2,0.9,1.7-0.2,2.9,0.7c2.9-2.1,7.8,0.8,10.5-1.9
				c-9.3-0.2-17.7,1.9-27.5,0.5c-3.3,0.7-10,2-12.1-0.4c2,0.3,6,1.7,5.7-0.8c-1.8-1.2-4.3,2.1-4.5-0.8c1.5,1.1,7.5-1.3,6.3,1.6
				c1.5-3,3.6,0.9,5.7-0.8c-0.9-1.1-2.4,0.5-2.3-1c1.9,1.2,2.2-1.3,3.7-1.1c0.1,1.5,3.1,0.7,2.2-0.1c-0.3,0.5-0.8,0.5-1.3,0.5
				c3.2-1.2,6.3,0.5,9.4-0.8c-0.3-0.3-0.9-0.4-0.7-0.8c1.3-0.2,1.2,1.9,1.8,0.8c-0.6-0.1-1-2,0.1-1.5c-0.8,1.2,4.9,1.1,4.1-0.9
				c2.7-0.1,4,2.1,5.7,0.3c-0.9-1.1-2,1.6-2-0.3c3.6-0.1,9-0.8,13.9-2.6c-2.8-1.2-5.2,1.9-7.3-0.4c-9,2.5-16.4,1.8-26.1,2.2
				c0.5,0.3,1.3,0.5,1.2,1c-3,0.3-16.6-0.5-13.6,1.7c-8.2-1.9-14.2,0.5-21.2-0.5c0.3-0.6,0.5-1.2,0.8-1.8c4.8,2.1,11.2,0.6,16.1-0.1
				c-3.1-0.7-4.3-0.6-6.6-0.7c0.3-0.6,0.5-1.2,0.8-1.8c3.1,0.3,5.8,1.1,9.9-0.6c-2.4,0.4,8,2.8,5.7,0.3c4.9,1.5,10.3-2.6,17.1-1.2
				c0.5-0.8-0.1-1.2,0.3-2c2.1,1,3.2-0.8,5-0.5c-1-2-6.1-1.1-8.4-0.4c1.3,0.8,2.3-0.3,2.1,1.4c-2.1,0.7-1.8-2.1-3.2-1.4
				c-1.7,0.3-6.3,1.3-10.3,1.5c-14.1,0.7-31.4-0.3-44.9,1.1c0.6,0.4,1.7,0.6,1.6,1.2C200.5,454,200.3,451.7,199.3,452.7z M233.4,462
				c0.2,1.5,0.9,1.3,1.3,3.2c-4.6-2-12.3,1-17-1.4c-4.3,1.7-12-0.2-18.5,0.7c5.3-1.1,13-2.7,17.1-1.2c0.8-0.6,2,0,2.3-1.7
				C219,464.1,229.8,465.5,233.4,462z"/>
			<path fill-rule="evenodd" clip-rule="evenodd" fill="#836031" d="M290.6,446.9c-0.5-0.4-0.7-1-0.3-1.7c-1.2-0.9-1.4,0.9-2.6-0.1
				c-0.3,1.5,1.2,0,1.8,0.8c-3.8-0.5-5.8,0.6-8.6,0.1c-0.2,0.2,0.4,0.9,0.7,0.8c-3.6,0.5-11.5,0.8-16.4,2.1c4.2,0,8.2-0.8,12.5-0.5
				c-4.4,0.4-9.5,2.6-13.9-0.1c-5.1,0.7-13.1,0.2-19,2c1.1-0.2,0.6-1.6-0.3-0.6c-0.6-0.5,0.2-0.4,0.4-0.9c-1.2-0.9-4.2,0-5.4-1.2
				c1.4-0.8,4.8-1.7,5.9-0.1c0.8-0.2,1.4-0.8,2.1-1.2c17.3-0.1,34-1.8,50.2-4.7c1.6,0.6,2.4,0.3,3,1.8
				C296.3,445.4,294.9,444,290.6,446.9z"/>
			<path fill-rule="evenodd" clip-rule="evenodd" fill="#836031" d="M223,450c1.3,0.2,2.1-1,3.5-0.6c-3.3,3.9-10-0.6-13.7,2.1
				c-4.7-1.8-8.3-0.3-11.1-1.5c0.7-1.6,2.6-0.4,3.9-0.5c-0.1-1.4-2.3-0.2-3.4-0.9c1.6-1.2,4.2,0,6.1-0.6c-1.6-1.6-5.8,0.4-8.1-2.4
				c5.8-0.5,13.3,3.3,18.3,0.9c0.4,0.1,0.4,0.4,0.3,0.6C215.5,449,223.8,447.6,223,450z"/>
			<path fill-rule="evenodd" clip-rule="evenodd" fill="#836031" d="M233.8,479.8c-0.5-0.3-0.1-0.6,0.2-0.5
				c-4.2-2-13.1,1.1-18.3-0.9c-0.8-0.2-1.4,0.3-1.7,1.4c-4.6-0.8-8.8-0.8-12.5,0.5c-0.6-0.5-0.9-1.2-1.4-1.7
				c0.3-0.2,1.9-1.3,0.8-1.8c14.6-2.6,30.8,0.9,44.7-0.7c-1.1-1.8-5.2,0.8-6.5-1.2c-0.4,0.8,0.1,1.2-0.3,2c-2.1-1.5-4.4-3-5.8-1.4
				c-5.1-2.9-7.9-1.5-12.3-2.6c2.2-1.3,5-1.1,7.9-0.9c-2.8-1.4,1.4-1,3.2-1.3c-1.4-1.8,2.7-1.3,4.6-0.7c-3.7,0.5-0.2-0.1-1.9,1.9
				c1.6,0.8,2.2-0.6,3.7,0c-0.2-0.5,0.3-1.4-0.3-1.7c-0.8-0.2-0.1,1.8-1.9,0.8c0.5-0.3,0.9-0.6,0.4-0.9c0.7-1,2.1-0.3,3.3-0.2
				c-0.2,0.3-0.6,0.3-0.8,0.7c0.8-0.2,1.9,0.3,2.6,0.1c0.1-0.8-0.7-0.1-1.4-0.6c0.4-0.7,1.2-0.7,2.2-0.1c-0.2,2-1.8,0.5-2.3,1.7
				c3.4-0.2,7.2,0.5,10.3-0.4c-1.9-0.9-3.2-1.9-7.1-0.9c-1-1.9,2.4-0.7,3.5-0.6c0.4-0.5-0.6-2.1-1.2-1c1.7-0.8,6.9,0.1,11,0.4
				c0.2-0.6-0.7-0.7-1.2-1c3.7-0.1,7.2-0.8,11.5,0.6c-0.2,0.8-0.8,0.6-1,1.2c1.4,0.5,4.9-2.1,3.6-2.2c1.9,0.9,4.6-0.3,6.1-0.6
				c2.3-0.4,4.9,0.3,6.8,0.3c5.2-0.2,9.7-2.1,15.7-1.8c-0.1-1-3.4-2.4-3.8-1.1c-0.5-2.1-2.6-1.6-5-2.1c1.8-1.1,4.2-0.8,6.6-0.4
				c-0.2,0.3-0.6,0.3-0.8,0.7c2.4,0.9,3.5-1.2,6.2,0.5c-0.4,0.7,0.1,1-0.1,1.5c6.6,0.8,11.5-2.5,17.7-2.6c1.7,6-8.3,7.4-11.7,6.2
				c-0.2,1.9-3.7,0.6-5.2,2.1c0.6,2-1.9,2.9,0.5,3.9c-3.5,0.9-7.3,1.1-10.9,1.7c0.9-0.6,2-0.7,2.8-1.5c-4.2-3.8-10.4,0.6-16.2-2.1
				c-1.5-0.2,0.8,1.1-0.3,2c-6.2-0.3-13.7-0.4-18.5,0.7c-0.5,0.1-2-1-1.9,0.8c-1.4-1.9-2.6,0.4-3.4-2c-0.6,1.3-1.1-0.3-3.1-0.3
				c0.9,2.6-0.9,1.5-2.5,2.1c2,0.9,3.1,2,4.9,1c0.6,0.6-0.2,1.2-0.8,0.7c-0.4,0.8,0.1,1.2-0.3,2c-0.9-0.2-0.7-0.8-0.3-0.6
				c0-1.6-1.8-0.2-2.7-1.2c0,0.5,0.1,1,0.5,1.3c-3.3,0.7-8.6-2.1-12.1,0.7C235.9,478.9,234.4,478.4,233.8,479.8z"/>
			<path fill-rule="evenodd" clip-rule="evenodd" fill="#836031" d="M270.9,474.3c3.4,3.5,10.2-1.4,14.1,0.7c-1.2,1-3.1,0.4-4.6,0.7
				c0,0.6,0.2,1.2,1,1.5c-1.6,0.4-3.1,1.1-5,0.5c0.8-1.5,2.8,0.1,3.7-1.1c-0.7-1.4-5.8-0.7-5.2,1c-2.5-1.3-5.4,2-9,1
				c0.5-0.9,1.6-0.4,2.1-1.2c-3.9-0.1-7.6,0.4-11.4,0.5c-0.2,1.5,1.6,0.4,2.3,1c-0.3,1.7-5.9-0.1-3.3,0.2c0.3-1.5-1.2,0-1.8-0.8
				c5.1-3.3,10.7-3,16.8-1.9C270.4,475.7,270.5,475,270.9,474.3z"/>
			<path fill-rule="evenodd" clip-rule="evenodd" fill="#836031" d="M252.5,480.9c-10.7,0.8-25-0.3-34.5,0.7
				c-4.9,0.5-12.2-0.8-17.6-0.1c-0.3,1.1,0,2-0.9,3.4c2.9,1.3,4.7,1.7,5.7,0.3c3.3,1.1,6,0.7,8.8,0.6c-0.2-0.7-1.6-0.9-0.8-1.9
				c13.4,0.3,25.5-0.4,37.8-0.9c-0.3,0.5-1.1,0.6,0.1,1.1c7.4-2.9,14.1-2.5,22-0.2c1.3-0.4,1-1.2,1.7-1.4c-0.2,0.7,0.8,0.9,1,1.5
				c1.3-0.4,1-1.2,1.7-1.4c0.8,1.3,2.9,0.4,2.8,2.3c-6,2.6-13.1,2.1-19.1,4.7c-0.9-0.4-1.8-0.8-2.7-1.2c-1.3,0.2,0.1,1.3-1,1.2
				c-1.1-0.7-1.3-1.3-2.5-0.5c-0.5,0.7-6.5,0.5-8.1,0.3c-10.6,2.8-27.3-1.5-39.1,1.4c-0.8,5.9,7.8,2.5,11.2,3.7
				c-0.3-0.3-0.9-0.4-0.7-0.8c5.3,0.5,7.7-0.5,13.3,1.4c-1.2,2,0.6,2.8,0.3,4.4c14.1,3.1,26.2-1,40.3-0.4c1.2-1.2-1.3-1-0.1-2.2
				c0.3,1.8,3,2.4,4.5,1.9c-1.2,2.4,2.2,0.8,1.9,3c1.1-0.3,2.4-0.2,3.7,0c0.4-1.1-0.2-1.8,1-2.3c-1-0.8-2.6,1.5-2.6-0.1
				c3.5-0.8,4.1-5,1.5-7.4c-4.4,0.9-11.4,0.3-15.2-0.6c4.5-0.4,8.7-1.3,12.8-2.5c-0.8-0.3-0.9-0.9-0.3-1.7c2,0.7,5.1-0.8,6.2,0.5
				c-2,0-3.9,0.3-5.7,0.8c7.9-0.2,16.1,0.3,22.7-3.1c-1.1-1.5-5.1-1-4.8,1.2c-1.9-0.6-3.7,0.9-4.3-1.3c-1.5,3.1-4.9,1.5-7.4,2.2
				c0.2-1.9-1.9-1.4-0.8-3c-2-1.5-4.6,2.1-4.9-1c7.2-0.9,14.6-1.9,21.4,0.1c-1.9-0.9,1.9-1.4,3.3-0.2c0.9-4.4,9.9-0.6,10.5-5.7
				c-3.5,3.5-10-0.6-13.7,2.1c0.9,1,2.4-1.3,2.5,0.5c-7.1-0.6-17-0.9-23.4-0.4c-0.3,0.6-0.2,1.1-0.1,1.5c-4.6-1.5-12.6-1.9-15.6,0.3
				C263.5,479.5,255.4,480.7,252.5,480.9z M232.9,494.4c3.7-0.8,11.6,0.6,12.1,0.4c0.6-1.1,0.5,1,1.8,0.8
				C242.8,496.1,236.6,496.2,232.9,494.4z"/>
			<path fill-rule="evenodd" clip-rule="evenodd" fill="#836031" d="M232.5,510.2c-1,0.9,3.3-2.8,0.8-1.8c3-1.1,11.3,0.6,17.4,0.5
				c2.9,0,6.6,0.2,9.9,0.5c-8-1.7,0.9-1.2,5-1.6c-4.1-1.7-9.9,0.3-15-1.1c3.1-1.4,7.1-1.8,11.4-1.6c6.8,0.3,14.8,0.4,20.8,2.5
				c-2.7,2.3-7,0.7-10.3,1.5c-0.3,1.5,1.2,0,1.8,0.8c-2.7,0.6-5.2-1.9-6.8,0.8c-1.6-0.8-3.7-0.5-7.1-0.9c1.4,1.8-5,2.4-6.1,0.6
				c-0.5,1.3-3.6,1.6-5.9,1.2c0.4,1.6,2.6-0.2,4,0.6C245.9,512.4,239,512.1,232.5,510.2z"/>
			<path fill-rule="evenodd" clip-rule="evenodd" fill="#836031" d="M275.9,417.6c1.9-1.3,10-3.1,12.8-2.5c-0.5,1.5-2.2,0.1-3,0.8
				c2.2,1.5-2.9,1.5-4.5,1.8c-0.4-0.2-0.1-0.7-0.1-1.1C279.5,417.4,277.4,416.8,275.9,417.6z"/>
			<path fill-rule="evenodd" clip-rule="evenodd" fill="#836031" d="M284.7,477c0.5,2.2,2-1.1,2.8-1.5c0.6,0.3,1.2,0.5,1.8,0.8
				c-1.3,1.7-3.4,1.6-5.2,2.1c-0.5-1.2,0-1-1.6-1.2c0.9-0.4,3.4-1.5,3.5-0.6C285.8,477.3,285.3,477.2,284.7,477z"/>
		</g>
		<g>
			
				<rect x="113.1" y="498.2" transform="matrix(-0.3935 0.9193 -0.9193 -0.3935 763.2525 642.4902)" fill="none" width="113.1" height="149.6"/>
			<path fill-rule="evenodd" clip-rule="evenodd" fill="#836031" d="M203.2,581.9c3.4-0.8,7.3-0.6,11-0.7
				C211.2,583,207.2,582.5,203.2,581.9z"/>
			<path fill-rule="evenodd" clip-rule="evenodd" fill="#836031" d="M211.5,576.3c4.2-1.1,10.5-1.8,14.8,0.4
				c-0.9,1.2,0.2,1.7-0.7,2.9C221.1,579.4,214.1,580.4,211.5,576.3z"/>
			<path fill-rule="evenodd" clip-rule="evenodd" fill="#836031" d="M187.9,539c-1-2-2.3,1.1-3.9,0.5c3.4,0.2,10.2,0.9,12.4-2.7
				c0.3,0.4,0.6,0.9,0.9,0.4c0.8,0.2,0.7,0.7,0.5,1.3c2.4,0.8,1.7-1.2,3.2-1.3c-0.6,2.5,4,0,2.5,0.5c-0.6-1.4,2.6-1.7,3.3-0.2
				c2.8,0.6,5.8-2.8,7.9-0.9c-6.5,3.6-17.9,1.6-21.3,4.8c-1.5,0.6-4.4-2.5-5.9,0.1c-1.1-1.2-5.7-1.7-5.5,0.3c0.8-0.7,2.1-0.3,3-0.8
				c0.4,2.7-2.1,0.7-3.9,1.6c1.1-2.8-6.5-0.9-8.8-0.6c-0.5-1.7,3.1-1.1,4.3-1.4c-0.9-1.2-3.7,0.7-5.7-0.3c0,0.5,0.1,1,0.5,1.3
				c-2.2,2-4.6-2.2-6.8-0.3c-0.2,0.7,2.5,0.7,3.1,0.3c-1,1-10.6,2.4-10.3,0.4c-1.5-0.2-0.8,0.5-1.2,1.6c-4.8-0.1-9,1.1-13.8,1
				c0.1,1.2,2.7,0.2,2.3,2.1c0.8,0.1,0.1-0.7,0.6-1.4c1.7,0.3,1.5,1.7,2.7,1.2c0.2-1.1-0.9,0.2-1.2-1c1-1.5,2.4,0.3,2.7,1.2
				c14.6-0.7,29.8-2,45.2-3.1c-6.5,1.9-16.7,2.4-24.9,3.2c-0.5,0.7,0,1,0.5,1.3c-0.5,0.9-1.9-0.3-2.4,0.6c-0.7-0.7,0.3-0.8,0.6-1.4
				c-1.6-0.6-1.8,2.2-3.2,2.4c-1.5-0.9-4.2-0.5-3.7,0c-0.5,0.8-3.2-1.5-1.4-1.7c-1.8-0.6-2.8-0.1-2.8,1.5
				c-7.2-0.4-13.9,0.3-20.9,0.1c-0.2,0.4,0.4,0.6,0.7,0.8c-12.5-0.7-24.1,1.2-37.4-2.6c2-0.3,1.9-0.7,0.3-2
				c5.8,1.2,14.9-0.9,21.2,1.6c4.8-1.5,10.6-0.4,15.8-0.7c-1.4-2.8-6.9-0.8-9.7-1c-1.9-0.2,0-2-1.7-2.3c2.2-1.8,5.3-3.4,9.8-1.7
				c1-2.1,5.9-0.6,10.1-1c2.5-0.2,2.9-0.4,5-0.5c3.4-0.2,10.3-2.6,13.8-1c6.6-2.3,15.1,0.3,21.7-1.9
				C187.5,537.8,188.7,537,187.9,539z"/>
			<path fill-rule="evenodd" clip-rule="evenodd" fill="#836031" d="M168.3,531.1c0.6-1-2.2-0.6-0.8-1.9c8.3,0.9,14.6-3.5,22.5-3.8
				c2.4,1.3,0.6,4.2,1,6.3c-2.3,2.3-6.6-0.3-8.6,2.7c-1.3-0.5-0.6-1.1-1.8-0.8c-14.1,4.4-29.8,4.7-45.2,5.8c1.2-2.3,4-0.6,5.6-1.9
				c-4.2,0.2-7,0.1-9.2,1.4c-0.2,1.5,1.1-0.8,2,0.3c-1,1-2.6,0.3-3.7,1.1c-1.3-1.4,1.3-0.2,1.2-1.6c-0.8-1.3-3.8-0.1-5.3-0.1
				c-0.2,2.2,1.2,0,2.7,1.2c-4.2-0.8-9.1-0.7-12.5-3.2c0.2-1.1,1-0.6,1.7-0.3c0.3-3.1-0.3-3.6,0.3-6.8c10.8-0.5,20.1-4.7,31.8-3
				c0.5-1.6-2.3,0.5-1-1.5c6.3,2.3,12-0.7,18.5-0.7c-2.1-1.5-6.5-0.7-8.8,0.5c-0.4-0.3,0.1-1-0.5-1.3c-1.2,1.9-2.3-0.9-3.4,1.7
				c-1.3-1.1,0-1.2,0.8-1.8c-1.4-0.5-3.3,0-3.8-1.1c1.9-0.8,2-0.5,4.2,0.2c3.3-1.5,7.1-1.5,10.9-1.7c1.5-2.6,5.4-3.7,7.1-2.8
				c2.8-2.4,14.4-2.8,10.9,5.7c-11.8,4-24.4,5.8-37.8,5.8c0.3-1.1,1.5,0.1,1.9-0.8c-7.4,3.2-17.6,5.4-27.7,4.7
				c0,1.1,2.2-0.1,3.4,0.9c-0.4,0.8-1.6-0.3-1.9,0.8c3.9,0.2,10-0.6,10.8-0.2C143.5,533.1,157.9,533.4,168.3,531.1z"/>
			<path fill-rule="evenodd" clip-rule="evenodd" fill="#836031" d="M129.9,559.6c-1.7,0.6-2.2-2.2-3.6-1.5
				c-6.8,1.1-17.4-1.5-26.9-0.8c0.1,1.1,0.1,2.2,0.2,3.3c6.4,3.7,13.5-0.9,19.5,1.9c4.6-0.2,15.2,1,23.4,0.4c-0.5-0.3-1-0.6-0.5-1.3
				c1.7,1,2.4,0,2.5,1.6c2.5-2.2,7.4-1.3,9.9-0.6c-0.3-0.3-0.9-0.4-0.7-0.8c1.5-0.4,1.9,1.4,2.9,0.7c-0.8-0.3-0.9-0.9-0.3-1.7
				c4.8,2.4,6.9-0.1,11.5,0.6c-0.2,0.5-1,0.4-0.4,0.9c3.5-0.2,9.9-1.1,10.6-3.5c1.6,0.6,2.4,0,2.5,1.6c0.5-0.4,0.9-0.9,1.5-1
				c7-0.6,14.9-1.1,20.8-1.2c0-1.1,3.5-1.2,4.5-2.9c-9.5-1.1-20.4,1-30,2.7c-0.7-1.1,1-0.9,0.1-1.5c-0.7,0.7-1.5-0.3-1,1.2
				c-9.4-0.9-20.2,3.2-27.9,0.3c0.6,0,1.2,0,1.7-0.3c-2.5-0.6-3.7-1.2-6.2-0.5c0.8,1.6,2.6,0.3,4.3,1.3c-0.1,0.7,0.3,1.1-0.3,2
				c-0.2-2.7-6.4-1.6-4-0.6c-0.9,1.5-3.2-0.6-4.9-1c-1.2,1.2,1.3,1,0.1,2.2C135.6,557.3,131.5,558.9,129.9,559.6z M172.2,560.6
				c-0.9,2.6-3.3-0.7-3.7,1.1C167.5,559.4,171.6,558.7,172.2,560.6z"/>
			<path fill-rule="evenodd" clip-rule="evenodd" fill="#836031" d="M117.2,554.2c0.8,0.4,1.2-0.1,2,0.3c0.3-1.5-1.2,0-1.8-0.8
				c3.6-3.2,9.2-0.3,13.9-2.6c0.9,0.4,0,1.5,1.4,1.7c0.8,0.1,0.1-0.7,0.6-1.4c4.2,0.9,9,0.7,13.3,1.4c-0.1-0.5-0.2-0.9,0.1-1.5
				c2.8,1.8,3.9-0.9,6.9,1.4c0.3-0.5,0.2-0.8-0.1-1.1c7.5,2.7,18.2-1.8,27.8,0.1c0.9-0.3,1.4-1.4,2.3-1.7c5.1,2.5,8.3,0.3,12,1.9
				c0.5-0.8,0.5-1.5-0.3-1.7c3.4-0.8,5.4,0.1,8.6-0.1c-1.9,1.7-5.1,0.4-7.4,1.1c0.2,0.5,2.1,0.7,1,2.6c-0.4-0.2-0.1-0.7-0.1-1.1
				c-1.3-0.7-1.8,0.4-3.1-0.3c-0.1,0.5,0.8,0.7,0.5,1.3c0.6-0.2,1-0.5,1.5-1c-2.6,2.4-13.4,1.8-19.5,1.8c-1.5,0.4-2.8,1.1-4.8,0.1
				c1-0.8,2.8,0.1,3.9-0.5c-0.6-1.1-3.2,0.6-5.4-1.2c0.2,0.7,0.5,1.3,0.8,1.9c-1,0.2-1.8,1-3.3,0.2c0.3-1.1,1.5,0.1,1.9-0.8
				c-1.4-0.6-1.9,0.9-3.6-0.5c1.3,3.2-12.1,2.4-12.8-0.1c-1-0.6-0.6,2.2-1.9,0.8c0.2-0.3,0.6-0.3,0.8-0.7c-0.8-0.4-1.2,0.1-2-0.3
				c0.5,2.7,4.7,1.1,5.4,2.3c-4.7,1.9-12.1-2.9-16.3,0.5c-1.2-1.7-8.1-1.1-8.6,0.1c-5.8-1.1-12.4,1.1-16.3-3.2
				C115.2,551.4,117.9,553.3,117.2,554.2z"/>
			<path fill-rule="evenodd" clip-rule="evenodd" fill="#836031" d="M124.7,571.8c1.1,0.3-0.1,1.5,0.8,1.9c1.6-0.4,3.3-0.4,5.3,0.1
				c-6.7,2.7-14.1,0.8-23,1.4c-0.9,2,2.2,2.8-0.4,3.6c3.4,1.4,7.2-1.3,9.7,1c-1.8-0.4-3.1,0.4-4.8,0.1c-1.1,1.1-0.8,1.5-0.7,2.9
				c-2,0.3-4.5-0.5-6.4-0.1c-1.8,5,5.6,4,8.7,4.8c1.4-0.1-0.2-1.7,1.2-1.6c3.8,1,10,0.1,14.5-0.2c-0.3-0.3-0.9-0.4-0.7-0.8
				c3.4,1.8,10.6,1.8,13.5,1c-0.2,0.1-1-0.6-0.7-0.8c15.8,1.3,30.4-0.2,45.1-1.6c1.2,0.9,1.7-0.2,2.9,0.7c2.9-2.1,7.8,0.8,10.5-1.9
				c-9.3-0.2-17.7,1.9-27.5,0.5c-3.3,0.7-10,2-12.1-0.4c2,0.3,6,1.7,5.7-0.8c-1.8-1.2-4.3,2.1-4.5-0.8c1.5,1.1,7.5-1.3,6.3,1.6
				c1.5-3,3.6,0.9,5.7-0.8c-0.9-1.1-2.4,0.5-2.3-1c1.9,1.2,2.2-1.3,3.7-1.1c0.1,1.5,3.1,0.7,2.2-0.1c-0.3,0.5-0.8,0.5-1.3,0.5
				c3.2-1.2,6.3,0.5,9.4-0.8c-0.3-0.3-0.9-0.4-0.7-0.8c1.3-0.2,1.2,1.9,1.8,0.8c-0.6-0.1-1-2,0.1-1.5c-0.8,1.2,4.9,1.1,4.1-0.9
				c2.7-0.1,4,2.1,5.7,0.3c-0.9-1.1-2,1.6-2-0.3c3.6-0.1,9-0.8,13.9-2.6c-2.8-1.2-5.2,1.9-7.3-0.4c-9,2.5-16.4,1.8-26.1,2.2
				c0.5,0.3,1.3,0.5,1.2,1c-3,0.3-16.6-0.5-13.6,1.7c-8.2-1.9-14.2,0.5-21.2-0.5c0.3-0.6,0.5-1.2,0.8-1.8c4.8,2.1,11.2,0.6,16.1-0.1
				c-3.1-0.7-4.3-0.6-6.6-0.7c0.3-0.6,0.5-1.2,0.8-1.8c3.1,0.3,5.8,1.1,9.9-0.6c-2.4,0.4,8,2.8,5.7,0.3c4.9,1.5,10.3-2.6,17.1-1.2
				c0.5-0.8-0.1-1.2,0.3-2c2.1,1,3.2-0.8,5-0.5c-1-2-6.1-1.1-8.4-0.4c1.3,0.8,2.3-0.3,2.1,1.4c-2.1,0.7-1.8-2.1-3.2-1.4
				c-1.7,0.3-6.3,1.3-10.3,1.5c-14.1,0.7-31.4-0.3-44.9,1.1c0.6,0.4,1.7,0.6,1.6,1.2C125.8,573,125.6,570.7,124.7,571.8z M158.7,581
				c0.2,1.5,0.9,1.3,1.3,3.2c-4.6-2-12.3,1-17-1.4c-4.3,1.7-12-0.2-18.5,0.7c5.3-1.1,13-2.7,17.1-1.2c0.8-0.6,2,0,2.3-1.7
				C144.3,583.2,155.2,584.5,158.7,581z"/>
			<path fill-rule="evenodd" clip-rule="evenodd" fill="#836031" d="M215.9,565.9c-0.5-0.4-0.7-1-0.3-1.7c-1.2-0.9-1.4,0.9-2.6-0.1
				c-0.3,1.5,1.2,0,1.8,0.8c-3.8-0.5-5.8,0.6-8.6,0.1c-0.2,0.2,0.4,0.9,0.7,0.8c-3.6,0.5-11.5,0.8-16.4,2.1c4.2,0,8.2-0.8,12.5-0.5
				c-4.4,0.4-9.5,2.6-13.9-0.1c-5.1,0.7-13.1,0.2-19,2c1.1-0.2,0.6-1.6-0.3-0.6c-0.6-0.5,0.2-0.4,0.4-0.9c-1.2-0.9-4.2,0-5.4-1.2
				c1.4-0.8,4.8-1.7,5.9-0.1c0.8-0.2,1.4-0.8,2.1-1.2c17.3-0.1,34-1.8,50.2-4.7c1.6,0.6,2.4,0.3,3,1.8
				C221.6,564.4,220.2,563.1,215.9,565.9z"/>
			<path fill-rule="evenodd" clip-rule="evenodd" fill="#836031" d="M148.3,569.1c1.3,0.2,2.1-1,3.5-0.6c-3.3,3.9-10-0.6-13.7,2.1
				c-4.7-1.8-8.3-0.3-11.1-1.5c0.7-1.6,2.6-0.4,3.9-0.5c-0.1-1.4-2.3-0.2-3.4-0.9c1.6-1.2,4.2,0,6.1-0.6c-1.6-1.6-5.8,0.4-8.1-2.4
				c5.8-0.5,13.3,3.3,18.3,0.9c0.4,0.1,0.4,0.4,0.3,0.6C140.8,568.1,149.1,566.6,148.3,569.1z"/>
			<path fill-rule="evenodd" clip-rule="evenodd" fill="#836031" d="M159.1,598.8c-0.5-0.3-0.1-0.6,0.2-0.5
				c-4.2-2-13.1,1.1-18.3-0.9c-0.8-0.2-1.4,0.3-1.7,1.4c-4.6-0.8-8.8-0.8-12.5,0.5c-0.6-0.5-0.9-1.2-1.4-1.7
				c0.3-0.2,1.9-1.3,0.8-1.8c14.6-2.6,30.8,0.9,44.7-0.7c-1.1-1.8-5.2,0.8-6.5-1.2c-0.4,0.8,0.1,1.2-0.3,2c-2.1-1.5-4.4-3-5.8-1.4
				c-5.1-2.9-7.9-1.5-12.3-2.6c2.2-1.3,5-1.1,7.9-0.9c-2.8-1.4,1.4-1,3.2-1.3c-1.4-1.8,2.7-1.3,4.6-0.7c-3.7,0.5-0.2-0.1-1.9,1.9
				c1.6,0.8,2.2-0.6,3.7,0c-0.2-0.5,0.3-1.4-0.3-1.7c-0.8-0.2-0.1,1.8-1.9,0.8c0.5-0.3,0.9-0.6,0.4-0.9c0.7-1,2.1-0.3,3.3-0.2
				c-0.2,0.3-0.6,0.3-0.8,0.7c0.8-0.2,1.9,0.3,2.6,0.1c0.1-0.8-0.7-0.1-1.4-0.6c0.4-0.7,1.2-0.7,2.2-0.1c-0.2,2-1.8,0.5-2.3,1.7
				c3.4-0.2,7.2,0.5,10.3-0.4c-1.9-0.9-3.2-1.9-7.1-0.9c-1-1.9,2.4-0.7,3.5-0.6c0.4-0.5-0.6-2.1-1.2-1c1.7-0.8,6.9,0.1,11,0.4
				c0.2-0.6-0.7-0.7-1.2-1c3.7-0.1,7.2-0.8,11.5,0.6c-0.2,0.8-0.8,0.6-1,1.2c1.4,0.5,4.9-2.1,3.6-2.2c1.9,0.9,4.6-0.3,6.1-0.6
				c2.3-0.4,4.9,0.3,6.8,0.3c5.2-0.2,9.7-2.1,15.7-1.8c-0.1-1-3.4-2.4-3.8-1.1c-0.5-2.1-2.6-1.6-5-2.1c1.8-1.1,4.2-0.8,6.6-0.4
				c-0.2,0.3-0.6,0.3-0.8,0.7c2.4,0.9,3.5-1.2,6.2,0.5c-0.4,0.7,0.1,1-0.1,1.5c6.6,0.8,11.5-2.5,17.7-2.6c1.7,6-8.3,7.4-11.7,6.2
				c-0.2,1.9-3.7,0.6-5.2,2.1c0.6,2-1.9,2.9,0.5,3.9c-3.5,0.9-7.3,1.1-10.9,1.7c0.9-0.6,2-0.7,2.8-1.5c-4.2-3.8-10.4,0.6-16.2-2.1
				c-1.5-0.2,0.8,1.1-0.3,2c-6.2-0.3-13.7-0.4-18.5,0.7c-0.5,0.1-2-1-1.9,0.8c-1.4-1.9-2.6,0.4-3.4-2c-0.6,1.3-1.1-0.3-3.1-0.3
				c0.9,2.6-0.9,1.5-2.5,2.1c2,0.9,3.1,2,4.9,1c0.6,0.6-0.2,1.2-0.8,0.7c-0.4,0.8,0.1,1.2-0.3,2c-0.9-0.2-0.7-0.8-0.3-0.6
				c0-1.6-1.8-0.2-2.7-1.2c0,0.5,0.1,1,0.5,1.3c-3.3,0.7-8.6-2.1-12.1,0.7C161.2,597.9,159.8,597.4,159.1,598.8z"/>
			<path fill-rule="evenodd" clip-rule="evenodd" fill="#836031" d="M196.2,593.3c3.4,3.5,10.2-1.4,14.1,0.7c-1.2,1-3.1,0.4-4.6,0.7
				c0,0.6,0.2,1.2,1,1.5c-1.6,0.4-3.1,1.1-5,0.5c0.8-1.5,2.8,0.1,3.7-1.1c-0.7-1.4-5.8-0.7-5.2,1c-2.5-1.3-5.4,2-9,1
				c0.5-0.9,1.6-0.4,2.1-1.2c-3.9-0.1-7.6,0.4-11.4,0.5c-0.2,1.5,1.6,0.4,2.3,1c-0.3,1.7-5.9-0.1-3.3,0.2c0.3-1.5-1.2,0-1.8-0.8
				c5.1-3.3,10.7-3,16.8-1.9C195.7,594.8,195.8,594.1,196.2,593.3z"/>
			<path fill-rule="evenodd" clip-rule="evenodd" fill="#836031" d="M177.9,599.9c-10.7,0.8-25-0.3-34.5,0.7
				c-4.9,0.5-12.2-0.8-17.6-0.1c-0.3,1.1,0,2-0.9,3.4c2.9,1.3,4.7,1.7,5.7,0.3c3.3,1.1,6,0.7,8.8,0.6c-0.2-0.7-1.6-0.9-0.8-1.9
				c13.4,0.3,25.5-0.4,37.8-0.9c-0.3,0.5-1.1,0.6,0.1,1.1c7.4-2.9,14.1-2.5,22-0.2c1.3-0.4,1-1.2,1.7-1.4c-0.2,0.7,0.8,0.9,1,1.5
				c1.3-0.4,1-1.2,1.7-1.4c0.8,1.3,2.9,0.4,2.8,2.3c-6,2.6-13.1,2.1-19.1,4.7c-0.9-0.4-1.8-0.8-2.7-1.2c-1.3,0.2,0.1,1.3-1,1.2
				c-1.1-0.7-1.3-1.3-2.5-0.5c-0.5,0.7-6.5,0.5-8.1,0.3c-10.6,2.8-27.3-1.5-39.1,1.4c-0.8,5.9,7.8,2.5,11.2,3.7
				c-0.3-0.3-0.9-0.4-0.7-0.8c5.3,0.5,7.7-0.5,13.3,1.4c-1.2,2,0.6,2.8,0.3,4.4c14.1,3.1,26.2-1,40.3-0.4c1.2-1.2-1.3-1-0.1-2.2
				c0.3,1.8,3,2.4,4.5,1.9c-1.2,2.4,2.2,0.8,1.9,3c1.1-0.3,2.4-0.2,3.7,0c0.4-1.1-0.2-1.8,1-2.3c-1-0.8-2.6,1.5-2.6-0.1
				c3.5-0.8,4.1-5,1.5-7.4c-4.4,0.9-11.4,0.3-15.2-0.6c4.5-0.4,8.7-1.3,12.8-2.5c-0.8-0.3-0.9-0.9-0.3-1.7c2,0.7,5.1-0.8,6.2,0.5
				c-2,0-3.9,0.3-5.7,0.8c7.9-0.2,16.1,0.3,22.7-3.1c-1.1-1.5-5.1-1-4.8,1.2c-1.9-0.6-3.7,0.9-4.3-1.3c-1.5,3.1-4.9,1.5-7.4,2.2
				c0.2-1.9-1.9-1.4-0.8-3c-2-1.5-4.6,2.1-4.9-1c7.2-0.9,14.6-1.9,21.4,0.1c-1.9-0.9,1.9-1.4,3.3-0.2c0.9-4.4,9.9-0.6,10.5-5.7
				c-3.5,3.5-10-0.6-13.7,2.1c0.9,1,2.4-1.3,2.5,0.5c-7.1-0.6-17-0.9-23.4-0.4c-0.3,0.6-0.2,1.1-0.1,1.5c-4.6-1.5-12.6-1.9-15.6,0.3
				C188.8,598.5,180.7,599.7,177.9,599.9z M158.2,613.4c3.7-0.8,11.6,0.6,12.1,0.4c0.6-1.1,0.5,1,1.8,0.8
				C168.1,615.2,162,615.3,158.2,613.4z"/>
			<path fill-rule="evenodd" clip-rule="evenodd" fill="#836031" d="M157.8,629.3c-1,0.9,3.3-2.8,0.8-1.8c3-1.1,11.3,0.6,17.4,0.5
				c2.9,0,6.6,0.2,9.9,0.5c-8-1.7,0.9-1.2,5-1.6c-4.1-1.7-9.9,0.3-15-1.1c3.1-1.4,7.1-1.8,11.4-1.6c6.8,0.3,14.8,0.4,20.8,2.5
				c-2.7,2.3-7,0.7-10.3,1.5c-0.3,1.5,1.2,0,1.8,0.8c-2.7,0.6-5.2-1.8-6.8,0.8c-1.6-0.8-3.7-0.5-7.1-0.9c1.4,1.8-5,2.4-6.1,0.6
				c-0.5,1.3-3.6,1.6-5.9,1.2c0.4,1.6,2.6-0.2,4,0.6C171.3,631.4,164.3,631.1,157.8,629.3z"/>
			<path fill-rule="evenodd" clip-rule="evenodd" fill="#836031" d="M201.2,536.6c1.9-1.3,10-3.1,12.8-2.5c-0.5,1.5-2.2,0.1-3,0.8
				c2.2,1.5-2.9,1.5-4.5,1.8c-0.4-0.2-0.1-0.7-0.1-1.1C204.9,536.4,202.8,535.9,201.2,536.6z"/>
			<path fill-rule="evenodd" clip-rule="evenodd" fill="#836031" d="M210,596c0.5,2.2,2-1.1,2.8-1.5c0.6,0.3,1.2,0.5,1.8,0.8
				c-1.3,1.7-3.4,1.6-5.2,2.1c-0.5-1.2,0-1-1.6-1.2c0.9-0.4,3.4-1.5,3.5-0.6C211.1,596.3,210.6,596.2,210,596z"/>
		</g>
		<g>
			
				<rect x="678.6" y="341.9" transform="matrix(0.3653 -0.9309 0.9309 0.3653 78.7837 948.851)" fill="none" width="113.1" height="149.6"/>
			<path fill-rule="evenodd" clip-rule="evenodd" fill="#836031" d="M701.4,408.8c-3.4,0.9-7.2,0.8-10.9,1
				C693.4,408,697.4,408.3,701.4,408.8z"/>
			<path fill-rule="evenodd" clip-rule="evenodd" fill="#836031" d="M693.3,414.6c-4.2,1.2-10.4,2.1-14.8,0c0.9-1.3-0.3-1.7,0.6-2.9
				C683.6,411.8,690.6,410.7,693.3,414.6z"/>
			<path fill-rule="evenodd" clip-rule="evenodd" fill="#836031" d="M718,451.2c1.1,2,2.3-1.2,3.9-0.6c-3.4-0.1-10.2-0.6-12.3,3.1
				c-0.3-0.4-0.6-0.9-0.9-0.4c-0.8-0.1-0.7-0.7-0.6-1.3c-2.4-0.7-1.6,1.3-3.2,1.4c0.5-2.5-4,0.1-2.5-0.4c0.7,1.4-2.5,1.7-3.3,0.3
				c-2.8-0.5-5.7,2.9-7.8,1.1c6.4-3.8,17.9-2.1,21.1-5.4c1.4-0.7,4.5,2.3,5.9-0.3c1.2,1.2,5.8,1.5,5.5-0.5c-0.8,0.7-2.1,0.4-3,0.9
				c-0.4-2.7,2.1-0.8,3.8-1.7c-1,2.8,6.5,0.7,8.9,0.3c0.6,1.7-3,1.2-4.3,1.5c0.9,1.2,3.7-0.8,5.8,0.1c0-0.5-0.1-1-0.6-1.3
				c2.1-2.1,4.6,2,6.8,0c0.1-0.7-2.5-0.7-3.1-0.2c1-1,10.5-2.7,10.3-0.7c1.5,0.1,0.8-0.5,1.2-1.7c4.8,0,9-1.4,13.8-1.5
				c-0.1-1.2-2.7-0.1-2.4-2c-0.8-0.1,0,0.7-0.5,1.4c-1.7-0.2-1.6-1.6-2.7-1.1c-0.1,1.1,0.9-0.3,1.2,1c-1,1.5-2.4-0.2-2.7-1.1
				c-14.5,1.1-29.7,2.9-45.1,4.5c6.4-2.1,16.7-2.9,24.8-4c0.5-0.7,0-1-0.6-1.3c0.5-0.9,1.9,0.2,2.4-0.7c0.7,0.7-0.3,0.9-0.5,1.4
				c1.6,0.6,1.8-2.3,3.1-2.5c1.6,0.8,4.2,0.4,3.7-0.1c0.5-0.8,3.2,1.4,1.5,1.6c1.8,0.6,2.8,0,2.7-1.6c7.2,0.2,13.8-0.7,20.9-0.8
				c0.2-0.5-0.4-0.6-0.7-0.8c12.5,0.3,24-2,37.4,1.5c-1.9,0.4-1.9,0.8-0.3,2c-5.8-1-14.9,1.4-21.3-1c-4.7,1.6-10.5,0.8-15.8,1.2
				c1.5,2.7,7,0.6,9.8,0.7c1.9,0.2,0.1,2,1.7,2.3c-2.1,1.9-5.2,3.5-9.8,2c-0.9,2.1-5.8,0.8-10,1.3c-2.5,0.3-2.9,0.5-5,0.7
				c-3.4,0.3-10.3,2.9-13.8,1.5c-6.5,2.5-15.1,0.2-21.6,2.6C718.5,452.4,717.3,453.3,718,451.2z"/>
			<path fill-rule="evenodd" clip-rule="evenodd" fill="#836031" d="M737.9,458.5c-0.6,1,2.2,0.6,0.8,1.9
				c-8.4-0.6-14.5,3.9-22.3,4.4c-2.4-1.2-0.8-4.2-1.2-6.3c2.3-2.4,6.6,0.1,8.6-3c1.3,0.4,0.6,1.1,1.8,0.7c14-4.8,29.7-5.6,45-7.1
				c-1.1,2.3-4,0.7-5.6,2c4.2-0.3,7-0.3,9.1-1.7c0.1-1.5-1.1,0.8-2-0.3c0.9-1,2.6-0.4,3.6-1.2c1.4,1.4-1.3,0.3-1.2,1.7
				c0.8,1.2,3.8,0,5.3,0c0.1-2.2-1.2,0.1-2.7-1.1c4.2,0.7,9.1,0.5,12.6,2.8c-0.2,1.1-1,0.6-1.7,0.4c-0.2,3.1,0.4,3.6,0,6.8
				c-10.7,0.9-19.9,5.3-31.6,4c-0.4,1.6,2.3-0.5,1,1.5c-6.4-2.1-12,1.1-18.4,1.2c2.1,1.4,6.5,0.5,8.8-0.8c0.5,0.3,0,1,0.6,1.3
				c1.1-2,2.3,0.8,3.4-1.8c1.4,1,0,1.2-0.7,1.8c1.4,0.5,3.3-0.1,3.8,1c-1.9,0.8-2,0.5-4.2-0.1c-3.2,1.6-7.1,1.8-10.8,2.1
				c-1.4,2.7-5.3,3.8-7,3.1c-2.7,2.5-14.3,3.2-11.1-5.4c11.6-4.3,24.2-6.6,37.6-6.9c-0.3,1.1-1.5,0-1.9,0.8c7.3-3.4,17.4-6,27.5-5.6
				c0-1.1-2.2,0.1-3.4-0.8c0.4-0.8,1.6,0.3,1.9-0.8c-3.9,0-10,0.9-10.8,0.5C762.6,455.7,748.2,455.9,737.9,458.5z"/>
			<path fill-rule="evenodd" clip-rule="evenodd" fill="#836031" d="M775.4,428.9c1.7-0.6,2.3,2.2,3.7,1.4c6.7-1.3,17.4,1,26.9,0
				c-0.1-1.1-0.2-2.2-0.3-3.3c-6.5-3.6-13.5,1.3-19.5-1.3c-4.6,0.3-15.2-0.5-23.4,0.3c0.5,0.3,1,0.6,0.6,1.3
				c-1.8-0.9-2.4,0.1-2.6-1.5c-2.4,2.3-7.3,1.6-9.9,0.9c0.3,0.2,0.9,0.4,0.7,0.8c-1.5,0.4-1.9-1.3-2.9-0.6c0.8,0.3,0.9,0.9,0.4,1.7
				c-4.9-2.3-6.9,0.3-11.5-0.3c0.2-0.5,0.9-0.5,0.4-0.9c-3.5,0.4-9.8,1.4-10.5,3.8c-1.6-0.6-2.3,0.1-2.6-1.5c-0.4,0.4-0.9,0.9-1.5,1
				c-7,0.8-14.8,1.5-20.8,1.9c0.1,1.1-3.4,1.3-4.4,3c9.5,0.9,20.4-1.7,29.9-3.6c0.8,1.1-1,0.9-0.1,1.6c0.7-0.7,1.5,0.2,1-1.2
				c9.4,0.6,20.1-3.8,27.9-1.2c-0.6,0-1.2,0.1-1.7,0.4c2.5,0.6,3.7,1.1,6.2,0.3c-0.8-1.6-2.6-0.2-4.3-1.2c0.1-0.7-0.3-1.1,0.3-2
				c0.3,2.7,6.5,1.4,4,0.5c0.9-1.5,3.3,0.5,4.9,0.9c1.1-1.3-1.3-0.9-0.2-2.2C769.7,431.3,773.8,429.6,775.4,428.9z M733,429.1
				c0.8-2.6,3.3,0.6,3.6-1.2C737.8,430.2,733.7,431,733,429.1z"/>
			<path fill-rule="evenodd" clip-rule="evenodd" fill="#836031" d="M788.2,433.9c-0.8-0.4-1.2,0.2-2-0.3c-0.2,1.5,1.1-0.1,1.8,0.7
				c-3.5,3.3-9.2,0.6-13.9,3c-0.9-0.4-0.1-1.5-1.5-1.6c-0.8-0.1,0,0.7-0.5,1.4c-4.2-0.8-9-0.4-13.3-1c0.1,0.5,0.2,0.9-0.1,1.6
				c-2.9-1.7-3.8,1.1-6.9-1.1c-0.3,0.5-0.2,0.9,0.1,1.1c-7.6-2.5-18.1,2.3-27.7,0.7c-0.9,0.3-1.4,1.5-2.3,1.7
				c-5.2-2.3-8.3-0.1-12.1-1.6c-0.5,0.9-0.5,1.5,0.4,1.7c-3.3,0.9-5.4,0.1-8.6,0.3c1.9-1.8,5.1-0.5,7.4-1.3
				c-0.3-0.5-2.1-0.6-1.1-2.5c0.4,0.2,0.1,0.7,0.1,1.1c1.3,0.6,1.8-0.5,3.1,0.2c0.1-0.5-0.8-0.7-0.6-1.3c-0.6,0.2-1,0.6-1.5,1
				c2.5-2.5,13.3-2.2,19.4-2.4c1.5-0.4,2.8-1.2,4.8-0.2c-1,0.9-2.8,0-3.9,0.6c0.6,1.1,3.2-0.7,5.4,1.1c-0.3-0.6-0.5-1.3-0.8-1.9
				c1-0.3,1.8-1.1,3.3-0.3c-0.3,1.1-1.5,0-1.9,0.8c1.4,0.6,1.9-0.9,3.6,0.3c-1.4-3.1,12-2.8,12.8-0.3c1,0.6,0.6-2.2,1.9-0.8
				c-0.2,0.3-0.6,0.3-0.8,0.7c0.8,0.4,1.2-0.2,2,0.3c-0.5-2.7-4.7-0.9-5.5-2.2c4.7-2.1,12.2,2.5,16.2-1c1.3,1.7,8.2,0.8,8.6-0.3
				c5.9,1,12.3-1.5,16.4,2.7C790.3,436.6,787.5,434.8,788.2,433.9z"/>
			<path fill-rule="evenodd" clip-rule="evenodd" fill="#836031" d="M780.2,416.5c-1.1-0.3,0-1.5-0.8-1.9c-1.6,0.5-3.3,0.5-5.3,0
				c6.6-2.9,14.1-1.3,23-2.1c0.8-2-2.3-2.7,0.3-3.6c-3.5-1.3-7.2,1.5-9.8-0.7c1.8,0.3,3.1-0.5,4.8-0.2c1.1-1.2,0.7-1.5,0.6-2.9
				c2-0.3,4.5,0.4,6.4-0.1c1.6-5.1-5.7-3.8-8.8-4.5c-1.4,0.2,0.3,1.7-1.2,1.7c-3.8-0.9-10,0.2-14.5,0.6c0.3,0.2,0.9,0.4,0.7,0.8
				c-3.5-1.7-10.7-1.4-13.5-0.5c0.2-0.1,1,0.6,0.7,0.8c-15.8-0.9-30.4,1.1-45,2.9c-1.3-0.9-1.7,0.3-2.9-0.6
				c-2.8,2.2-7.8-0.5-10.4,2.3c9.3,0,17.6-2.4,27.5-1.4c3.3-0.8,10-2.3,12.1,0c-2-0.2-6.1-1.5-5.7,1c1.8,1.1,4.2-2.2,4.5,0.7
				c-1.5-1-7.5,1.6-6.3-1.4c-1.4,3-3.6-0.8-5.7,0.9c0.9,1,2.4-0.6,2.3,0.9c-1.9-1.1-2.2,1.3-3.6,1.2c-0.2-1.5-3.1-0.6-2.2,0.2
				c0.3-0.5,0.8-0.5,1.3-0.6c-3.2,1.3-6.3-0.3-9.4,1.1c0.3,0.2,0.9,0.4,0.7,0.8c-1.3,0.2-1.3-1.9-1.8-0.7c0.6,0.1,1.1,1.9-0.1,1.6
				c0.7-1.3-4.9-1-4.1,1c-2.7,0.1-4-2-5.8-0.1c0.9,1.1,1.9-1.7,2,0.3c-3.6,0.2-9,1.1-13.9,3c2.9,1.1,5.1-2,7.3,0.2
				c8.9-2.8,16.3-2.3,26-3c-0.5-0.3-1.3-0.4-1.2-1c3-0.4,16.6,0,13.5-2.1c8.3,1.6,14.1-0.9,21.2-0.1c-0.2,0.6-0.5,1.2-0.7,1.8
				c-4.8-2-11.2-0.2-16.1,0.6c3.2,0.6,4.3,0.5,6.7,0.5c-0.2,0.6-0.5,1.2-0.7,1.8c-3.1-0.2-5.9-0.9-9.9,0.9c2.3-0.5-8.1-2.6-5.8-0.1
				c-5-1.4-10.2,2.9-17.1,1.8c-0.4,0.8,0.1,1.2-0.3,2c-2.2-0.9-3.1,0.9-5,0.7c1.1,1.9,6.1,0.9,8.4,0.1c-1.3-0.8-2.3,0.3-2.1-1.4
				c2-0.8,1.8,2,3.2,1.3c1.7-0.3,6.3-1.5,10.2-1.8c14.1-1.1,31.4-0.7,44.8-2.5c-0.7-0.3-1.8-0.5-1.7-1.2
				C779,415.3,779.3,417.6,780.2,416.5z M745.9,408.3c-0.2-1.5-0.9-1.3-1.4-3.2c4.6,1.9,12.3-1.4,17.1,0.9c4.2-1.8,12-0.1,18.4-1.2
				c-5.3,1.2-13,3.1-17.1,1.8c-0.7,0.6-2,0.1-2.3,1.7C760.2,405.7,749.4,404.7,745.9,408.3z"/>
			<path fill-rule="evenodd" clip-rule="evenodd" fill="#836031" d="M689.2,425.1c0.5,0.4,0.7,1,0.4,1.7c1.3,0.9,1.4-0.9,2.6,0
				c0.2-1.5-1.2,0.1-1.8-0.7c3.8,0.3,5.7-0.8,8.6-0.3c0.2-0.2-0.5-0.9-0.7-0.8c3.6-0.6,11.4-1.1,16.3-2.6c-4.2,0.2-8.1,1.1-12.5,0.9
				c4.4-0.5,9.4-2.9,13.9-0.4c5.1-0.8,13-0.6,19-2.6c-1.1,0.2-0.5,1.6,0.3,0.6c0.6,0.5-0.2,0.4-0.4,0.9c1.2,0.9,4.2-0.1,5.4,1.1
				c-1.4,0.9-4.7,1.8-5.9,0.3c-0.8,0.2-1.4,0.9-2.1,1.3c-17.3,0.6-33.9,2.8-50,6.3c-1.6-0.5-2.4-0.2-3-1.7
				C683.5,426.8,685,428.1,689.2,425.1z"/>
			<path fill-rule="evenodd" clip-rule="evenodd" fill="#836031" d="M756.7,420c-1.3-0.1-2.1,1.1-3.5,0.8c3.2-4,10,0.3,13.7-2.6
				c4.8,1.6,8.3,0,11.1,1.2c-0.7,1.6-2.6,0.5-3.9,0.6c0.2,1.4,2.3,0.1,3.4,0.8c-1.6,1.3-4.2,0.1-6.1,0.8c1.7,1.6,5.8-0.5,8.1,2.1
				c-5.8,0.7-13.4-2.9-18.4-0.3c-0.4-0.1-0.4-0.3-0.3-0.6C764.2,420.7,756,422.5,756.7,420z"/>
			<path fill-rule="evenodd" clip-rule="evenodd" fill="#836031" d="M745,390.5c0.5,0.3,0.1,0.6-0.2,0.5c4.3,1.9,13-1.5,18.4,0.3
				c0.8,0.2,1.4-0.4,1.6-1.5c4.6,0.7,8.8,0.6,12.5-0.9c0.6,0.5,0.9,1.1,1.5,1.6c-0.2,0.2-1.8,1.3-0.7,1.8c-14.5,3-30.8,0.1-44.6,2
				c1.2,1.8,5.2-1,6.5,1c0.4-0.8-0.2-1.2,0.3-2c2.1,1.5,4.4,2.8,5.8,1.2c5.2,2.8,7.9,1.3,12.3,2.2c-2.2,1.4-5,1.3-7.8,1.1
				c2.9,1.4-1.4,1.1-3.2,1.4c1.5,1.8-2.7,1.4-4.6,0.9c3.7-0.6,0.2,0.1,1.8-1.9c-1.6-0.8-2.2,0.7-3.7,0.1c0.2,0.5-0.2,1.4,0.4,1.7
				c0.8,0.2,0-1.8,1.9-0.8c-0.4,0.3-0.9,0.6-0.4,0.9c-0.7,1-2.1,0.3-3.3,0.3c0.2-0.3,0.6-0.3,0.8-0.7c-0.8,0.2-1.9-0.2-2.6,0
				c-0.1,0.8,0.7,0,1.4,0.5c-0.4,0.8-1.2,0.7-2.2,0.2c0.1-2,1.8-0.6,2.3-1.7c-3.4,0.3-7.2-0.3-10.3,0.7c2,0.8,3.2,1.8,7.1,0.7
				c1,1.9-2.4,0.8-3.5,0.8c-0.4,0.5,0.7,2.1,1.2,1c-1.7,0.8-6.9,0.1-11-0.1c-0.1,0.6,0.7,0.7,1.2,1c-3.7,0.2-7.2,1-11.5-0.3
				c0.2-0.8,0.7-0.6,1-1.2c-1.4-0.4-4.8,2.3-3.5,2.3c-2-0.9-4.6,0.5-6.1,0.8c-2.3,0.5-4.9-0.2-6.8,0c-5.2,0.4-9.6,2.4-15.7,2.3
				c0.1,1,3.5,2.3,3.8,1c0.6,2.1,2.6,1.6,5,2c-1.8,1.2-4.1,0.9-6.6,0.6c0.2-0.3,0.6-0.3,0.8-0.7c-2.4-0.9-3.5,1.3-6.2-0.3
				c0.4-0.7-0.1-1,0.1-1.6c-6.6-0.6-11.4,2.9-17.6,3.1c-1.9-6,8-7.7,11.5-6.6c0.1-1.9,3.7-0.7,5.1-2.2c-0.7-1.9,1.8-3-0.6-3.9
				c3.5-1,7.3-1.3,10.8-2.1c-0.9,0.6-1.9,0.8-2.7,1.6c4.3,3.7,10.3-0.9,16.3,1.6c1.5,0.1-0.8-1.1,0.3-2c6.2,0.1,13.7-0.1,18.4-1.2
				c0.5-0.1,2,0.9,1.9-0.8c1.5,1.8,2.6-0.5,3.5,1.9c0.6-1.4,1.1,0.2,3.1,0.2c-1-2.6,0.9-1.6,2.4-2.2c-2-0.8-3.1-2-4.9-0.9
				c-0.7-0.6,0.1-1.2,0.8-0.7c0.4-0.8-0.2-1.2,0.3-2c0.9,0.2,0.8,0.8,0.3,0.6c0,1.6,1.8,0.1,2.7,1.1c0-0.5-0.1-1-0.6-1.3
				c3.3-0.8,8.7,1.8,12-1.1C742.9,391.5,744.3,392,745,390.5z"/>
			<path fill-rule="evenodd" clip-rule="evenodd" fill="#836031" d="M708.1,397.2c-3.5-3.4-10.1,1.7-14.2-0.3
				c1.2-1.1,3.1-0.5,4.6-0.9c0-0.6-0.2-1.2-1-1.5c1.6-0.5,3-1.2,5-0.7c-0.7,1.5-2.8,0-3.6,1.2c0.7,1.4,5.8,0.5,5.2-1.1
				c2.6,1.2,5.4-2.1,8.9-1.2c-0.5,0.9-1.6,0.4-2.1,1.3c3.9-0.1,7.6-0.6,11.4-0.8c0.1-1.5-1.6-0.3-2.3-0.9c0.3-1.7,5.9-0.1,3.3-0.3
				c-0.2,1.5,1.1-0.1,1.8,0.7c-5,3.4-10.6,3.4-16.8,2.4C708.5,395.7,708.4,396.4,708.1,397.2z"/>
			<path fill-rule="evenodd" clip-rule="evenodd" fill="#836031" d="M726.2,390c10.7-1.1,25-0.5,34.5-1.8c4.8-0.7,12.2,0.4,17.6-0.5
				c0.3-1.1,0-2,0.8-3.4c-2.9-1.2-4.7-1.5-5.8-0.1c-3.4-1-6-0.5-8.9-0.3c0.2,0.7,1.6,0.8,0.8,1.9c-13.4,0.1-25.5,1.2-37.8,2.1
				c0.3-0.5,1.1-0.7-0.1-1.1c-7.3,3.2-14,2.9-22,0.9c-1.3,0.4-1,1.3-1.6,1.5c0.1-0.7-0.8-0.9-1-1.5c-1.3,0.4-1,1.3-1.6,1.5
				c-0.8-1.3-2.9-0.3-2.8-2.2c5.9-2.7,13.1-2.5,19-5.2c0.9,0.4,1.8,0.7,2.7,1.1c1.3-0.3-0.1-1.3,1-1.2c1.1,0.7,1.4,1.2,2.5,0.4
				c0.5-0.7,6.5-0.7,8.1-0.5c10.5-3.1,27.3,0.7,39.1-2.6c0.6-5.9-7.8-2.2-11.3-3.4c0.3,0.2,0.9,0.4,0.7,0.8c-5.3-0.3-7.7,0.7-13.3-1
				c1.2-2-0.7-2.7-0.4-4.4c-14.2-2.7-26.2,1.8-40.2,1.6c-1.1,1.3,1.3,0.9,0.2,2.2c-0.4-1.7-3.1-2.3-4.6-1.8c1.1-2.4-2.2-0.7-2-2.9
				c-1.1,0.3-2.4,0.3-3.7,0.1c-0.4,1.2,0.3,1.8-0.9,2.3c1,0.7,2.5-1.6,2.6,0c-3.4,0.9-4,5.2-1.3,7.4c4.3-1.1,11.4-0.6,15.2,0.2
				c-4.5,0.5-8.7,1.6-12.8,2.9c0.8,0.3,0.9,0.9,0.4,1.7c-2.1-0.6-5.1,1-6.2-0.3c2-0.1,3.9-0.4,5.7-1c-7.9,0.5-16.1,0.2-22.6,3.8
				c1.1,1.4,5.1,0.8,4.7-1.3c1.9,0.6,3.7-1.1,4.3,1.2c1.4-3.2,4.8-1.7,7.3-2.4c-0.1,1.9,2,1.4,0.9,3c2,1.4,4.5-2.3,4.9,0.9
				c-7.1,1.2-14.5,2.4-21.4,0.6c1.9,0.8-1.9,1.5-3.3,0.3c-0.7,4.4-9.9,0.9-10.3,6c3.3-3.6,10,0.3,13.7-2.6c-1-1-2.4,1.3-2.5-0.4
				c7.1,0.4,17,0.4,23.4-0.3c0.3-0.6,0.2-1.1,0.1-1.6c4.6,1.3,12.7,1.6,15.6-0.7C715.3,391.8,723.4,390.3,726.2,390z M745.4,375.9
				c-3.7,0.9-11.6-0.2-12.1,0c-0.6,1.1-0.5-0.9-1.8-0.7C735.5,374.5,741.6,374.2,745.4,375.9z"/>
			<path fill-rule="evenodd" clip-rule="evenodd" fill="#836031" d="M745.3,360.1c0.9-0.9-3.3,2.9-0.7,1.8c-3,1.2-11.3-0.2-17.4,0
				c-2.9,0.1-6.6,0-10-0.2c8.1,1.4-0.8,1.3-4.9,1.8c4.1,1.6,9.9-0.6,15.1,0.6c-3.1,1.5-7.1,2-11.3,1.9c-6.8-0.1-14.8,0-20.9-1.9
				c2.6-2.4,6.9-0.9,10.2-1.8c0.2-1.5-1.2,0.1-1.8-0.7c2.6-0.7,5.3,1.7,6.7-1c1.7,0.7,3.8,0.4,7.1,0.7c-1.5-1.8,4.9-2.6,6.1-0.8
				c0.5-1.3,3.5-1.7,5.8-1.4c-0.5-1.6-2.6,0.3-4-0.5C731.8,358.3,738.8,358.4,745.3,360.1z"/>
			<path fill-rule="evenodd" clip-rule="evenodd" fill="#836031" d="M704.8,454c-1.9,1.3-9.9,3.4-12.8,2.9c0.5-1.5,2.2-0.2,3-0.9
				c-2.2-1.4,2.8-1.5,4.5-1.9c0.4,0.2,0.1,0.7,0.1,1.1C701.2,454.3,703.3,454.8,704.8,454z"/>
			<path fill-rule="evenodd" clip-rule="evenodd" fill="#836031" d="M694.2,394.9c-0.6-2.2-2,1.1-2.7,1.6c-0.6-0.2-1.2-0.5-1.8-0.7
				c1.3-1.8,3.3-1.7,5.1-2.2c0.5,1.2,0,1,1.7,1.2c-0.8,0.4-3.3,1.6-3.5,0.8C693,394.6,693.6,394.7,694.2,394.9z"/>
		</g>
	</g>
	<path fill="#FFCE79" d="M355.8,254.1c-15.8,9.4-178.2-63.4-178.2-63.4s-74.4,53.2-65.8,143.7c8.2,86.2,100.3,85.3,206.6,75.3
		c9.3-0.9,16.6-8.4,17.3-17.7l0.9-13.1c0,0,12.5,0.8,12.6,0.8"/>
	<path fill="#75B191" d="M142,227.9c0,0-31.4,32.8-30.8,89.1l139.7,1.8l-0.6,14.6l69,2c10.6,0.3,18.9,9.2,18.5,19.8l-1,23.6
		l14.6,1.2c0,0-11.7-83.2-3.6-132.3L142,227.9z"/>
	<path fill="none" stroke="#F0AB4B" stroke-width="3" stroke-linecap="round" stroke-linejoin="round" stroke-miterlimit="10" d="
		M220.9,333.2c0,0,62.4-0.2,100,3c10.4,0.9,18.2,10,17.4,20.5L338,378"/>
	<path fill="none" stroke="#F0AB4B" stroke-width="3" stroke-linecap="round" stroke-linejoin="round" stroke-miterlimit="10" d="
		M249.5,333.4c2.8-14,0.2-29.1,0.2-29.1"/>
	<linearGradient id="SVGID_1_" gradientUnits="userSpaceOnUse" x1="438.1223" y1="301.9693" x2="767.1995" y2="301.9693">
		<stop  offset="0" style="stop-color:#C7C8CA"/>
		<stop  offset="1" style="stop-color:#BCBEC0"/>
	</linearGradient>
	<path fill="url(#SVGID_1_)" d="M676.4,177.9c0,0,55.8,34,79.2,95.6s10,91.6-26.7,112.5c-33,18.8-49.9,24-63.8,35.8
		c-3.1,2.6-7,4.2-11.1,4.2h-32c-9.4,0-17.3-7.4-17.6-16.9c-0.4-12.1,1.6-29.4,11.9-48.2h-37.7c0,0,8.8,12.8,13.5,24.8
		c2.3,5.8-0.9,12.3-6.8,14.3l-44.4,14.8c-3,1-6.3,0.7-9-0.9c-10-5.8-35.9-20.5-56.6-29.4c-26.3-11.3-45.1-46.9-33.8-77
		c11.3-30,75.6-101.8,75.6-101.8L676.4,177.9z"/>
	<path fill="#F5C15D" d="M474.2,257.1l104.3,103.9h37.7l22.8-21l110.5-80.5c0,0-33.8-70-86.4-84.6l-146,30.9L474.2,257.1z"/>
	<g>
		<path fill="#797A7D" d="M504.4,317c6.8,0.2,13.5,1.6,20,3.5c3.3,1,6.4,2.2,9.6,3.5l4.6,2.1c1.5,0.7,3,1.6,4.5,2.4
			c0.7,0.4,1.5,0.8,2.2,1.2l2.2,1.4l2.2,1.4c0.7,0.4,1.5,0.9,2.1,1.4l4.1,3c1.4,1,2.6,2.2,3.9,3.3l1.9,1.7l1,0.8l0.9,0.9l3.6,3.6
			c1.2,1.2,2.2,2.5,3.3,3.8c1.1,1.3,2.1,2.6,3.2,4c-1.2-1.2-2.5-2.3-3.7-3.5c-1.2-1.2-2.4-2.4-3.7-3.4c-2.5-2.2-5-4.4-7.7-6.4
			c-5.2-4.1-10.9-7.7-16.7-11c-5.8-3.3-11.9-6-18.2-8.3C517.5,320.1,511.1,318.2,504.4,317z"/>
	</g>
	<path fill="#F2A959" d="M501.3,223.8c-1.1,1.3,4.2,11.7,4.8,13c4.4,10,9.9,19.6,16.9,28.1c47.1,57.1,157.8,46.6,204.9-4.8
		c1.4-1.6,13.8-15.3,12.6-16.8c0,0-37.1-48.1-37.1-48.1l-195.9,21.1C507.5,216.3,501.3,223.8,501.3,223.8z"/>
	<path fill="#9CA1A5" d="M682.5,166.2l49.8,64.9c0,0-129.6,120-221.3-10.5L682.5,166.2z"/>
	<path fill="#75B191" d="M351.2,380"/>
	<linearGradient id="SVGID_2_" gradientUnits="userSpaceOnUse" x1="351.1998" y1="379.9797" x2="351.1998" y2="379.9797">
		<stop  offset="0" style="stop-color:#C7C8CA"/>
		<stop  offset="1" style="stop-color:#BCBEC0"/>
	</linearGradient>
	<path fill="url(#SVGID_2_)" d="M351.2,380"/>
	<path fill="#75B191" d="M351.2,380c0,0,20.4,0.3,33,0c0,0-31.5-40.1-19.2-116.1l-20.2-10.5l-12.5,32L351.2,380z"/>
	<path fill="#74592E" d="M336.2,385.6l0.8-15.5l39.2-16.3c0,0,1.6,26.9,25.1,29.9C401.2,383.7,348.9,392.5,336.2,385.6z"/>
	<path fill="#75B191" d="M135,236.8l27.3-36.5l212.8,5c0,0,52.1,77.3,49.1,131.4l-52.5,18.9L135,236.8z"/>
	<g>
		<path fill="#F2B964" d="M293.9,49.4c-4-1.8,6.9-20.3,8.3-21.7c9.6-10.2,27.2-13.1,38.8-4.7c14.9,10.7,13.2,35.2,4.6,49.3
			C345.7,72.3,294,49.4,293.9,49.4z"/>
		<path fill="#FFCE79" d="M394.1,178.4c-0.8-9.5-3.5-18.5-6.9-27.4c-2.6-6.9-5.5-13.6-8.2-20.5c-7-17.9-13.5-40.8-25.2-56
			c-15.9-20.5-41.1-30.8-65.6-36.5c-27.3-6.4-54.2-2.1-80.7,7.9c-1.1,0.4-12.8,5.8-12.9,5.7c-9.6-12.1-28.4-14.1-43.2-9.5
			c-14.6,4.5-25.3,20.2-22.9,35.3c1,13.6,11.1,25.6,19.7,32.2c0.1,0-0.1,0,0,0c-4.8,10.7-5.9,15.5-7.6,27.1
			c-4.4,30.2,2.7,62.1,19.9,87.3c15.4,22.6,38.4,39.5,63.8,49.4c27.7,10.7,58.7,13.2,87.3,5.3c28.6-7.9,54.5-26.3,69.8-51.7
			C390.1,212.4,395.4,195.4,394.1,178.4z"/>
		<path fill="#F2B964" d="M151.6,99.3c6.4,4.9,16.9-5.1,25.7-17c8.5-11.4,1.5-28.2-12.6-29.8c-7.9-0.9-16.5,1.2-24.4,9.6
			c0,0-0.1,0.1-0.1,0.1c-5.8,6.1-6.4,15.5-2,22.6C141.8,90.6,146.8,95.7,151.6,99.3z"/>
		<circle fill="#F0AB4B" cx="267.2" cy="154.7" r="12.5"/>
		<circle fill="#F0AB4B" cx="348.9" cy="142.7" r="12.1"/>
		<circle fill="#FFFFFF" cx="349.2" cy="142" r="7.6"/>
		<path fill="#F1B55B" d="M296,162.5l-13.9-21.3l0,0c-3.8-5.1-1.3-12.4,4.9-13.9l24.6-6.2c3-0.8,6.3,0.1,8.5,2.4
			c6.9,7.1,18.5,23.2,20.4,32.2"/>
		<circle fill="#E87D4C" cx="214.9" cy="188.6" r="30"/>
		<circle fill="#E87D4C" cx="371.1" cy="163.2" r="16.7"/>
		<circle fill="#FFFFFF" cx="267.2" cy="154.7" r="7.6"/>
		<circle fill="#48484A" cx="267.2" cy="154.7" r="3.8"/>
		<path fill="#EA8C38" d="M300.2,155.6c8.9-2.1,21.1-4.2,34.7-4.6c4.8-0.1,7.6,5.5,4.5,9.2l-14.9,18.2L299,166.2
			C294.3,163.9,295,156.8,300.2,155.6z"/>
		<path fill="#F1B55B" d="M254.3,132c6.5-3.1,14-9.2,12.5-20.3c-0.4-2.9-4.6-3.6-6.2-1L250,127.7C248.3,130.4,251.3,133.5,254.3,132
			z"/>
		<path fill="#F1B55B" d="M338.7,112.5c-7.2,0.5-16.7-1.1-20.9-11.4c-1.1-2.7,2.2-5.4,4.9-3.9l17.6,9.4
			C343.1,108.1,342,112.2,338.7,112.5z"/>
		<circle fill="#48484A" cx="349.2" cy="141.6" r="3.8"/>
		<g>
			<path fill="#EA8C38" d="M324.6,174.8c1.4,2.2,2.1,4.4,2.7,6.7c0.5,2.2,0.7,4.4,0.7,6.7c0,2.2-0.2,4.4-0.7,6.7
				c-0.5,2.2-1.3,4.4-2.7,6.7l-0.1,0.1c-0.1,0.1-0.2,0.1-0.3,0.1c-0.1,0-0.1-0.1-0.1-0.1c-0.1-2.2-0.1-4.4-0.1-6.7l-0.1-6.7l0.1-6.7
				c0-2.2,0.1-4.4,0.1-6.7c0-0.1,0.1-0.2,0.2-0.2C324.5,174.7,324.5,174.7,324.6,174.8L324.6,174.8z"/>
		</g>
		<g>
			<path fill="#EA8C38" d="M295.8,208.7c3.5-2.4,7.1-4.1,10.8-5.6c3.7-1.5,7.5-2.7,11.3-3.7c3.8-1,7.7-1.8,11.7-2.3
				c4-0.5,8-0.8,12.2-0.5l0.1,0c0.1,0,0.2,0.1,0.2,0.2c0,0.1-0.1,0.1-0.1,0.2c-3.8,1.1-7.6,2.1-11.5,3.2l-11.5,3.1l-11.5,3
				c-3.8,1-7.7,2-11.5,2.9c-0.1,0-0.2,0-0.2-0.1C295.6,208.8,295.7,208.8,295.8,208.7L295.8,208.7z"/>
		</g>
		<g>
			<path fill="#EA8C38" d="M318.3,221.1c1.5-1.4,2.6-2.3,3.8-3.2c1.2-0.8,2.3-1.5,3.5-2.1c1.2-0.6,2.5-1.1,4-1.4
				c0.7-0.2,1.5-0.4,2.4-0.4c0.9-0.1,1.7-0.2,2.8-0.1l0.2,0c0.1,0,0.2,0.1,0.2,0.2c0,0,0,0.1-0.1,0.1l-1.8,1.5
				c-0.6,0.5-1.2,0.9-1.9,1.4c-1.3,0.9-2.6,1.7-4,2.4c-1.4,0.7-2.9,1.2-4.4,1.6c-1.5,0.4-3.1,0.6-4.7,0.5c-0.1,0-0.2-0.1-0.1-0.2
				c0,0,0-0.1,0.1-0.1L318.3,221.1z"/>
		</g>
	</g>
	<g>
		
			<linearGradient id="SVGID_3_" gradientUnits="userSpaceOnUse" x1="457.0844" y1="66.8596" x2="489.0844" y2="120.8596" gradientTransform="matrix(0.9431 0.3324 -0.3324 0.9431 360.6316 773.39)">
			<stop  offset="0" style="stop-color:#C7C8CA"/>
			<stop  offset="1" style="stop-color:#B1B3B6"/>
		</linearGradient>
		<path fill="url(#SVGID_3_)" d="M736.9,190.5c1-4.1,1.8-8.3,2.3-12.5c1.9-16.5-0.1-34.2-5.8-49.8c-0.7-1.9-1.5-3.7-2.4-5.6
			c0,0,0,0,0,0c-2.1-4.4-4.5-9-6.4-13.7c-1.7-3-3.6-6-5.6-8.9l8.3-20.6c2.9-7.3,4-15.1,3.2-22.9l-3.3-32.1
			c1.2-6.4-1.6-12.9-6.9-16.6c-7.4-5.1-17.7-3.4-22.9,4c-10.1,14.4-7.6,30.5-4.5,40.3c1.9,5.8,2.2,12,0.9,17.9
			c-6.6-6.7-11.3-10.7-11.3-10.7c-13.8-8.3-24.8-11-24.8-11c-12.9-4.9-26.9-7.2-41.3-6.3c-21.4,1.3-42.8,9.5-60.2,22
			c-20.3,14.6-43,27.5-67.1,34.5c-2.5,0.7-5,1.8-7.3,3.1c-10.5-4.5-22.2,3.1-26.8,13.6c-2,4.6-2.1,8.5-0.9,12.2
			c1.5,4.8,2,9.9,1.1,14.8c-1.9,10.8-1.1,22.1,2.5,32.5c8.4,24.4,31.5,46.6,53.8,58.8c14.9,8.1,31,13.9,47.3,18.6
			c15.5,4.4,31.4,7.7,47.3,10.3C722.5,281.1,736.9,190.5,736.9,190.5z"/>
		<g>
			<path fill="#797A7D" d="M488.5,120.9c1.3,1.3,2,3.1,2.5,4.9c0.4,1.9,0.3,3.8-0.1,5.7c-0.4,1.9-1.1,3.7-2.2,5.2
				c-0.6,0.7-1.3,1.4-2,2c-0.7,0.6-1.5,1.1-2.4,1.5c-0.1,0-0.1,0-0.2-0.1c0,0,0-0.1,0-0.1l0,0c0.3-0.9,0.8-1.7,1.2-2.5
				c0.4-0.8,0.8-1.5,1.2-2.3c0.2-0.4,0.4-0.7,0.6-1.1c0.2-0.4,0.5-0.7,0.7-1.1l0.6-1.1l0.5-1.1c0.6-1.6,0.9-3.2,0.8-4.9
				c-0.1-1.7-0.5-3.4-1.4-4.9l0,0c0-0.1,0-0.1,0-0.2C488.4,120.9,488.4,120.9,488.5,120.9z"/>
		</g>
		<path fill="#808285" d="M462.1,128.4c0.3-0.8,1.1-1.4,2.6-1.9c2.6-0.7,8.9,0.1,7.6,4.9c-0.9,3.5-2.8,4.3-5.2,3.3
			C465.1,133.9,461.3,130.7,462.1,128.4z"/>
		<circle fill="#9A9FA3" cx="545.1" cy="119.4" r="13.6"/>
		<path fill="#FFFFFF" d="M520,86.7L488.9,2.2c-1.2-3.2-5.7-2.8-6.4,0.5c-4.2,20.3-11.1,64.8,0.3,99
			C482.7,101.6,495.6,100.4,520,86.7z"/>
		<g>
			<path fill="#797A7D" d="M519.4,134.1c-1.2,2.5-2.1,5-2.7,7.6c-0.6,2.6-0.7,5.2-0.4,7.7c0,0.6,0.2,1.3,0.3,1.9
				c0.1,0.6,0.2,1.3,0.4,1.9l0.6,1.9c0.3,0.6,0.5,1.2,0.8,1.8l0.4,0.9l0.5,0.9l1,1.8c0.7,1.2,1.5,2.2,2.2,3.5
				c-1.1-0.8-2.2-1.7-3.2-2.7l-1.4-1.6c-0.2-0.3-0.4-0.6-0.7-0.8l-0.5-0.9c-0.4-0.6-0.7-1.2-1.1-1.9l-0.8-2
				c-0.3-0.7-0.4-1.4-0.6-2.1c-0.1-0.7-0.3-1.4-0.4-2.1c-0.3-2.9,0.1-5.8,1.1-8.5C515.9,138.5,517.4,136,519.4,134.1z"/>
		</g>
		<path fill="none" d="M725,109.9c1.9,4.7,4.3,9.3,6.4,13.7C729.8,119,727.6,114.4,725,109.9z"/>
		<polygon fill="#91929D" points="731.4,123.6 731.4,123.6 731.4,123.6 		"/>
		<path fill="none" stroke="#48484A" stroke-width="3" stroke-linecap="round" stroke-linejoin="round" stroke-miterlimit="10" d="
			M551.1,114.1c0,0-7.7,1.8-15.2,5.8c-2.9,1.5-1.7,4.6,1.6,4.1c5.9-0.8,13-1.1,16.7,1.1"/>
		<path fill="#797A7D" d="M455.4,142.1c0,0,28.8,9.5,60.3,4c0,0-8.3,35.1-54.3,37.1C461.5,183.2,450.3,166.4,455.4,142.1z"/>
		<path fill="#EF9BB5" d="M461.5,183.2c0,0-6.4-11.6-6.7-19.4c0,0,11.2-8.7,46.5,4.7C501.2,168.5,486.2,183.6,461.5,183.2z"/>
	</g>
</g>
<g>
</g>
<g>
</g>
<g>
</g>
<g>
</g>
<g>
</g>
<g>
</g>
<g>
</g>
<g>
</g>
<g>
</g>
<g>
</g>
<g>
</g>
<g>
</g>
<g>
</g>
<g>
</g>
<g>
</g>
</svg>
