<?xml version="1.0" encoding="utf-8"?>
<!-- Generator: Adobe Illustrator 18.0.0, SVG Export Plug-In . SVG Version: 6.00 Build 0)  -->
<!DOCTYPE svg PUBLIC "-//W3C//DTD SVG 1.1//EN" "http://www.w3.org/Graphics/SVG/1.1/DTD/svg11.dtd">
<svg version="1.1" id="Layer_1" xmlns="http://www.w3.org/2000/svg" xmlns:xlink="http://www.w3.org/1999/xlink" x="0px" y="0px"
	 viewBox="0 0 112.9 106.3" enable-background="new 0 0 112.9 106.3" xml:space="preserve">
<g>
	<path fill="#B49187" d="M80.6,45.4c-5.2-8.7-15.8-12.7-25.5-9.6l-3,1l-3,1c-9.7,3.1-16,12.5-15.1,22.7l2.1,25.9
		c0.5,5.6,3.1,10.8,7.2,14.5l0,0c5.8,5.2,13.9,6.9,21.3,4.5l8.6-2.8l8.6-2.8c7.4-2.4,13-8.5,14.7-16.1l0,0c1.2-5.5,0.3-11.2-2.6-16
		L80.6,45.4z"/>
	<g>
		<polygon fill="#C3C4B8" points="46.7,94.7 46.7,94.6 46.6,94.6 		"/>
		<path fill="#C3C4B8" d="M46.4,94.4C46.3,94.4,46.3,94.4,46.4,94.4l0.3,0.1C46.9,94.4,46.2,94.5,46.4,94.4z"/>
		<path fill="#C3C4B8" d="M46.4,94.3c0.1-0.1-0.1-0.1-0.2-0.1C46.4,94.2,46.2,94.4,46.4,94.3z"/>
		<path fill="#C3C4B8" d="M45.1,88.1C45.1,88.1,45.1,88.1,45.1,88.1C45.1,88.1,45.1,88.1,45.1,88.1z"/>
		<path fill="#C3C4B8" d="M44.2,86.5l-0.1,0c0.3,0.3,0.1,0.7,0.3,1l-0.1,0c0.1,0.8,0.5,1.5,0.7,2.3c0,0-0.1,0-0.1,0
			c0.1,0,0.1,0.1,0.1,0.1c0,0-0.1,0-0.1,0c-0.2,0.2,0.2,0.5,0.1,0.6c0,0,0.1,0,0.2,0c0.2,0.6,0.3,1.3,0.6,1.9c0,0-0.1,0.1-0.2,0.1
			c0.5,0.5,0.4,1.1,0.5,1.7c0.1,0,0.1-0.1,0.2,0c0.1-0.2-0.3-0.3-0.2-0.5l0.1,0c0-0.1-0.2,0-0.1-0.1c0.1-0.1,0.1,0,0.1,0
			c-0.1-0.2-0.1-0.5-0.3-0.7c0.2-0.1,0-0.3,0.1-0.4c-0.1-0.1-0.1-0.1-0.2-0.1c-0.1-0.9-0.4-1.8-0.6-2.7c-0.5-0.4-0.1-1-0.3-1.4
			c0,0,0,0,0,0c-0.1-0.1-0.2-0.4-0.2-0.6l-0.2-0.1c0.1-1.3-0.4-2.4-0.4-3.7c-0.2-1.4-0.1-2.7-0.8-3.9c0,0,0.1,0,0.1,0
			c-0.1-0.4-0.1-0.8-0.2-1.1l0,0c-0.5-0.9-0.3-1.9-0.7-2.7c-0.1-1.1-0.3-2.3-0.6-3.4l0.1,0c-0.3-0.9,0-1.8-0.2-2.7
			c0.1-1-0.7-1.9-0.5-2.8c0.3-0.6-0.6-1.3-0.2-1.9c0.5-1.2,0-2.2-0.4-3.3c0.1-1.1-0.5-2.1-0.1-3.1c-0.3-0.5,0.3-1,0.2-1.6l-0.1,0
			c0.3-0.2-0.4-0.4,0-0.5l0,0c0.2-0.1-0.5-0.2-0.3-0.3l-0.1,0c0-0.1,0.1,0,0.2-0.1c0,0-0.2,0-0.1-0.1c0.4,0-0.1-0.3,0.4-0.3
			c0,0.1,0.2-0.1,0.3,0c0,0,0-0.2-0.2-0.2c-0.2,0-0.4-0.1-0.6,0l0.2,0c-0.2,0-0.1,0-0.2,0.1c0,0.2-0.2,0.2-0.3,0.3c0,0,0,0,0,0
			c0.2,0.1,0.1,0.2,0.1,0.3l-0.1,0c-0.2,0,0.4,0.2,0.1,0.1c0.1,0.3,0.1,0.7,0.1,1.1c0.1,0,0,0.3,0.2,0.2c-0.3,0.1-0.3,0.4-0.3,0.5
			c0,0-0.1,0,0,0c-0.3,0.2,0.3,0.2-0.1,0.4c0.3,0-0.1,0.3,0.3,0.4c-0.1,0-0.1,0-0.2,0c0,0.3-0.1,0.7-0.1,1c0.3,0.2-0.1,0.6,0.3,0.8
			c-0.1,0.2-0.2,0.5,0,0.7l0,0c0,0.3,0.1,0.6,0.3,0.8c-0.3,0.1-0.3,0.2-0.4,0.3c0.2,0.2,0.2,0.5,0.3,0.8c-0.2,0.1,0.1,0.2-0.1,0.3
			c0.5,0.7,0.5,1.7,0.2,2.6l0,0c0.1,0.1,0.4,0.2,0.6,0.3c0,0-0.1,0-0.1,0c0.1,0.1-0.2,0.3-0.1,0.5c0,0,0,0-0.1,0
			c0.1,0.1-0.2,0.3,0,0.5l-0.1,0l0.1,0.1c-0.1,0-0.2,0-0.2,0c0.1,1.3,0.6,2.6,0.8,3.9l-0.1,0l0.2,0.2c0,0-0.1,0-0.1,0
			c-0.1,0.3,0.2,0.7,0.2,1c0,0-0.1,0-0.2,0c0.2,0.2-0.2,0.4,0.2,0.5c0,0-0.1,0-0.2,0c0.2,0.6,0.3,1.3,0.4,2c0.5,0.5,0.2,1.2,0.6,1.7
			l-0.1,0c0.4,0.7,0.2,1.5,0.4,2.3c0,0.3,0.1,0.5,0.2,0.8l-0.1,0c0.5,0.5-0.1,1.2,0.4,1.7l-0.1,0c0.2,0.1,0,0.4,0.3,0.3L43.5,82
			c0.5,0.3-0.1,0.7,0.3,1.1l-0.1,0c0.1,0.1,0.2,0.2,0.1,0.4c0,0,0,0-0.1,0c-0.3,0.4,0.2,0.8,0.2,1.2l-0.2,0c0.2,0.2,0.1,0.6,0.2,0.8
			l-0.1,0l0.1,0.1l-0.1,0C44,85.9,44.2,86.2,44.2,86.5z"/>
		<path fill="#C3C4B8" d="M45,89.9L45,89.9C45,89.9,45,89.9,45,89.9z"/>
		<path fill="#C3C4B8" d="M39.8,56.1C39.8,56,39.8,56,39.8,56.1C39.8,56,39.8,56.1,39.8,56.1z"/>
	</g>
	<g>
		<polygon fill="#C3C4B8" points="59.5,96.8 59.5,96.8 59.4,96.8 		"/>
		<path fill="#C3C4B8" d="M59.2,96.6C59.1,96.6,59.1,96.6,59.2,96.6l0.3,0.2C59.6,96.6,59,96.6,59.2,96.6z"/>
		<path fill="#C3C4B8" d="M59.2,96.5c0.1-0.1-0.1-0.1-0.2-0.1C59.1,96.4,59,96.5,59.2,96.5z"/>
		<path fill="#C3C4B8" d="M57.6,89.7C57.6,89.7,57.6,89.7,57.6,89.7C57.6,89.7,57.6,89.7,57.6,89.7z"/>
		<path fill="#C3C4B8" d="M56.6,88.1l-0.1,0c0.3,0.3,0.2,0.7,0.3,1l-0.1,0c0.2,0.9,0.6,1.7,0.9,2.5c0,0-0.1,0-0.1,0
			c0.1,0,0.1,0.1,0.1,0.1c0,0-0.1,0-0.1,0c-0.2,0.2,0.3,0.5,0.1,0.7c0,0,0.1,0,0.2,0c0.2,0.7,0.4,1.4,0.7,2.1c0,0-0.1,0.1-0.2,0.1
			c0.5,0.5,0.5,1.2,0.6,1.8c0.1,0,0.1-0.1,0.2,0c0.1-0.2-0.3-0.3-0.2-0.5l0.1,0c0-0.1-0.2,0-0.1-0.1c0.1-0.1,0.1,0,0.1,0
			c-0.1-0.3-0.1-0.6-0.4-0.8c0.2-0.1-0.1-0.3,0.1-0.4c-0.1-0.1-0.1-0.1-0.2-0.1c-0.1-1-0.5-1.9-0.7-2.9c-0.5-0.4-0.2-1-0.4-1.6
			c0,0,0,0,0,0c-0.1-0.2-0.2-0.4-0.2-0.6l-0.2-0.1c0-1.4-0.5-2.6-0.7-4c-0.3-1.5-0.3-2.9-1.1-4.2c0,0,0.1,0,0.1,0
			c-0.2-0.4-0.1-0.8-0.3-1.2l0,0c-0.5-0.9-0.5-2-1-2.9c-0.2-1.2-0.6-2.4-1-3.6l0.1,0c-0.4-0.9-0.2-2-0.6-2.9c-0.1-1-0.9-1.9-1-3
			c0.2-0.7-0.8-1.3-0.6-2c0.2-1.3-0.4-2.4-1.1-3.5c-0.1-1.2-0.9-2.1-0.8-3.3c-0.4-0.4,0-1.1-0.2-1.7l-0.1,0c0.2-0.3-0.5-0.3-0.1-0.6
			l0,0c0.2-0.2-0.6-0.1-0.3-0.2l-0.1,0c-0.1-0.1,0.1,0,0.1-0.2c0,0-0.2,0-0.2-0.1c0.4-0.1-0.2-0.3,0.3-0.4c0,0.1,0.2-0.2,0.3,0
			c0-0.1,0-0.3-0.2-0.2c-0.2,0-0.4,0-0.6,0.2l0.2,0c-0.1,0.1-0.1,0.1-0.2,0.1c0,0.2-0.2,0.3-0.3,0.4c0,0,0,0,0,0
			c0.2,0,0.1,0.2,0.1,0.3l-0.1,0.1c-0.2,0.1,0.4,0.1,0.1,0.1c0.2,0.3,0.3,0.7,0.4,1.1c0.1,0,0.1,0.3,0.3,0.2
			c-0.2,0.2-0.2,0.5-0.2,0.6c0,0-0.1,0,0,0c-0.3,0.3,0.4,0.2,0,0.5c0.3,0,0,0.4,0.4,0.4c-0.1,0-0.1,0.1-0.2,0.1
			c0.1,0.4,0.1,0.8,0.2,1.1c0.3,0.2,0.1,0.6,0.5,0.8c0,0.2-0.1,0.5,0.1,0.7l0,0c0.1,0.3,0.2,0.6,0.5,0.8c-0.3,0.2-0.2,0.3-0.3,0.4
			c0.2,0.1,0.3,0.5,0.5,0.8c-0.1,0.1,0.1,0.2-0.1,0.3c0.6,0.7,0.8,1.8,0.7,2.7l0,0c0.2,0.1,0.5,0.1,0.6,0.2c0,0-0.1,0-0.1,0
			c0.1,0.1-0.1,0.4,0,0.5c0,0,0,0-0.1,0c0.1,0.1-0.1,0.4,0.1,0.5l-0.1,0l0.1,0.1c-0.1,0-0.2,0-0.2,0c0.3,1.4,1,2.7,1.3,4.1l-0.1,0
			l0.2,0.2c0,0-0.1,0-0.1,0c0,0.4,0.3,0.7,0.3,1c0,0-0.1,0-0.2,0c0.3,0.2-0.2,0.5,0.3,0.5c0,0-0.1,0-0.2,0c0.3,0.7,0.5,1.4,0.6,2.1
			c0.5,0.5,0.3,1.2,0.8,1.8l-0.1,0c0.5,0.7,0.4,1.6,0.6,2.4c0.1,0.3,0.2,0.6,0.3,0.9l-0.1,0c0.5,0.5,0,1.3,0.5,1.8l-0.1,0
			c0.2,0,0,0.4,0.4,0.3l-0.1,0.1c0.6,0.3,0,0.8,0.4,1.2l-0.1,0c0.1,0.1,0.2,0.3,0.1,0.4c0,0,0,0-0.1,0c-0.2,0.5,0.2,0.9,0.3,1.3
			L56,86c0.2,0.2,0.2,0.6,0.3,0.9l-0.1,0l0.1,0.1l-0.1,0C56.3,87.4,56.5,87.7,56.6,88.1z"/>
		<path fill="#C3C4B8" d="M57.6,91.7L57.6,91.7C57.6,91.7,57.6,91.7,57.6,91.7z"/>
		<path fill="#C3C4B8" d="M47.8,55.8L47.8,55.8C47.8,55.8,47.8,55.8,47.8,55.8z"/>
	</g>
	<g>
		<polygon fill="#C3C4B8" points="72.5,91.2 72.6,91.2 72.4,91.2 		"/>
		<path fill="#C3C4B8" d="M72.1,91C72.1,91.1,72.1,91.1,72.1,91l0.3,0.1C72.6,91,72,91.1,72.1,91z"/>
		<path fill="#C3C4B8" d="M72.2,91c0-0.1-0.1-0.1-0.2-0.1C72.1,90.9,72,91.1,72.2,91z"/>
		<path fill="#C3C4B8" d="M69.3,84.7C69.3,84.7,69.3,84.7,69.3,84.7C69.3,84.7,69.3,84.7,69.3,84.7z"/>
		<path fill="#C3C4B8" d="M68.1,83.2l-0.1,0c0.4,0.2,0.3,0.7,0.5,0.9l-0.1,0c0.3,0.9,0.8,1.5,1.3,2.3c0,0-0.1,0-0.1,0
			c0.1,0,0.2,0,0.2,0.1c0,0-0.1,0-0.1,0c-0.1,0.3,0.4,0.5,0.2,0.6c0,0,0.1,0,0.2,0c0.3,0.6,0.7,1.3,1.1,1.9c0,0-0.1,0.1-0.1,0.1
			c0.6,0.4,0.7,1.1,0.9,1.7c0.1,0,0.1-0.1,0.2-0.1c0-0.2-0.4-0.2-0.3-0.5l0.1,0c0-0.1-0.2,0.1-0.2-0.1c0-0.1,0.1,0,0.1-0.1
			c-0.1-0.2-0.2-0.5-0.5-0.7c0.2-0.1-0.1-0.3,0-0.5c-0.1,0-0.1-0.1-0.2-0.1c-0.3-0.9-0.9-1.8-1.3-2.7c-0.5-0.3-0.3-1-0.7-1.4
			c0,0,0,0,0,0c-0.2-0.1-0.3-0.4-0.3-0.6L68.7,84c-0.2-1.3-1-2.5-1.3-3.8c-0.5-1.4-0.8-2.8-1.8-3.9c0,0,0,0,0.1,0
			c-0.2-0.4-0.3-0.8-0.5-1.1l0,0c-0.7-0.8-0.8-1.9-1.4-2.7c-0.4-1.1-0.9-2.3-1.5-3.4l0.1,0c-0.5-0.9-0.5-1.9-1-2.8
			c-0.2-1-1.2-1.8-1.3-2.8c0.1-0.7-0.9-1.2-0.8-1.9c0.1-1.4-0.7-2.3-1.5-3.3c-0.2-1.1-1.1-2-1.1-3.2c-0.4-0.4-0.1-1.1-0.4-1.6
			l-0.1,0.1c0.2-0.3-0.5-0.3-0.2-0.6l0,0c0.2-0.2-0.6-0.1-0.3-0.2l-0.1,0c-0.1-0.1,0.1-0.1,0.1-0.2c0,0-0.2,0.1-0.2,0
			c0.4-0.2-0.2-0.3,0.2-0.5c0,0.1,0.1-0.2,0.3-0.1c0-0.1-0.1-0.3-0.3-0.2c-0.2,0.1-0.4,0-0.5,0.2l0.2,0c-0.1,0.1-0.1,0.1-0.2,0.1
			c0,0.2-0.2,0.3-0.2,0.4c0,0,0,0,0,0c0.2,0,0.1,0.2,0.1,0.2l-0.1,0.1c-0.2,0.1,0.4,0.1,0.1,0.1c0.2,0.3,0.3,0.7,0.5,1.1
			c0.1,0,0.1,0.3,0.3,0.1c-0.2,0.2-0.2,0.5-0.1,0.6c0,0-0.1,0-0.1,0c-0.2,0.3,0.4,0.1,0.1,0.5c0.3-0.1,0,0.4,0.4,0.4
			c-0.1,0-0.1,0.1-0.2,0.1c0.1,0.3,0.2,0.8,0.3,1c0.3,0.2,0.1,0.6,0.5,0.7c0,0.2,0,0.5,0.2,0.7l-0.1,0c0.1,0.3,0.3,0.6,0.6,0.7
			c-0.3,0.2-0.2,0.3-0.2,0.5c0.2,0.1,0.3,0.5,0.6,0.7c-0.1,0.1,0.2,0.2-0.1,0.3c0.7,0.6,1,1.6,1,2.6l0,0c0.2,0.1,0.5,0.1,0.7,0.1
			c0,0-0.1,0-0.1,0c0.1,0.1-0.1,0.4,0,0.5c0,0,0,0-0.1,0c0.2,0.1-0.1,0.4,0.2,0.5l-0.1,0l0.1,0.1c-0.1,0-0.2,0.1-0.2,0
			c0.5,1.3,1.4,2.5,1.8,3.9l-0.1,0l0.2,0.2c0,0-0.1,0-0.1,0c0,0.4,0.4,0.6,0.5,1c0,0-0.1,0-0.1,0.1c0.3,0.2-0.1,0.5,0.4,0.4
			c0,0-0.1,0.1-0.1,0.1c0.4,0.6,0.7,1.3,0.9,2c0.6,0.4,0.5,1.2,1,1.6l-0.1,0c0.6,0.6,0.6,1.5,1,2.3c0.1,0.3,0.3,0.5,0.4,0.8l-0.1,0
			c0.6,0.4,0.2,1.3,0.8,1.7l-0.1,0c0.2,0,0.1,0.4,0.4,0.2l-0.1,0.1c0.6,0.2,0.1,0.8,0.6,1.1l-0.1,0c0.1,0.1,0.2,0.2,0.2,0.3
			c0,0,0,0-0.1,0c-0.1,0.5,0.4,0.8,0.5,1.2l-0.2,0c0.3,0.1,0.3,0.6,0.4,0.8l-0.1,0l0.2,0.1l-0.1,0.1C67.7,82.6,67.9,82.9,68.1,83.2z
			"/>
		<path fill="#C3C4B8" d="M69.7,86.6L69.7,86.6C69.7,86.6,69.7,86.6,69.7,86.6z"/>
		<path fill="#C3C4B8" d="M55.1,52.6C55.1,52.6,55.1,52.5,55.1,52.6C55.1,52.5,55.1,52.6,55.1,52.6z"/>
	</g>
	<g>
		<polygon fill="#C3C4B8" points="82.5,88.6 82.5,88.6 82.4,88.6 		"/>
		<path fill="#C3C4B8" d="M82.1,88.4C82.1,88.4,82,88.4,82.1,88.4l0.3,0.1C82.6,88.4,82,88.5,82.1,88.4z"/>
		<path fill="#C3C4B8" d="M82.1,88.3c0.1-0.1-0.1-0.1-0.2-0.1C82.1,88.2,81.9,88.4,82.1,88.3z"/>
		<path fill="#C3C4B8" d="M79.9,81.9C79.9,81.9,79.9,81.9,79.9,81.9C79.9,81.9,79.9,81.9,79.9,81.9z"/>
		<path fill="#C3C4B8" d="M78.8,80.5l-0.1,0c0.3,0.2,0.2,0.7,0.5,0.9l-0.1,0c0.2,0.8,0.7,1.5,1.1,2.3c0,0-0.1,0-0.1,0
			c0.1,0,0.2,0,0.2,0.1c0,0-0.1,0-0.1,0c-0.2,0.2,0.3,0.5,0.2,0.6c0,0,0.1,0,0.2,0c0.3,0.6,0.5,1.3,0.9,1.9c0,0-0.1,0.1-0.1,0.1
			c0.5,0.5,0.6,1.1,0.7,1.7c0.1,0,0.1-0.1,0.2-0.1c0.1-0.2-0.3-0.3-0.2-0.5l0.1,0c0-0.1-0.2,0-0.2-0.1c0.1-0.1,0.1,0,0.1,0
			c-0.1-0.3-0.1-0.6-0.4-0.7c0.2-0.1-0.1-0.3,0.1-0.4c-0.1,0-0.1-0.1-0.2-0.1c-0.2-0.9-0.7-1.8-1-2.8c-0.5-0.3-0.3-1-0.6-1.5
			c0,0,0,0,0,0c-0.1-0.1-0.3-0.4-0.3-0.6l-0.2-0.1c-0.1-1.3-0.8-2.5-1.2-3.7c-0.4-1.4-0.7-2.7-1.7-3.9c0,0,0,0,0.1,0
			c-0.2-0.4-0.3-0.8-0.5-1.1l0,0c-0.7-0.8-0.8-1.9-1.5-2.6c-0.4-1.1-1-2.2-1.6-3.3l0.1,0c-0.6-0.8-0.6-1.8-1.2-2.6
			c-0.3-1-1.3-1.6-1.6-2.6c0-0.7-1-1.1-1-1.8c-0.1-1.3-1-2.2-1.9-3c-0.4-1.1-1.4-1.7-1.6-2.9c-0.5-0.3-0.3-1.1-0.6-1.5l-0.1,0.1
			c0.1-0.3-0.6-0.2-0.3-0.5l0,0c0.1-0.2-0.6,0.1-0.4-0.1l-0.1,0c-0.1-0.1,0.1-0.1,0.1-0.2c0,0-0.2,0.1-0.2,0
			c0.4-0.2-0.2-0.2,0.2-0.5c0,0.1,0.1-0.2,0.3-0.1c0-0.1-0.1-0.2-0.3-0.1C64.2,51,64,51,64,51.2l0.1-0.1c-0.1,0.1,0,0.1-0.1,0.2
			c0.1,0.2-0.1,0.3-0.1,0.5c0,0,0,0,0,0c0.2,0,0.2,0.1,0.2,0.2L64,52c-0.1,0.1,0.4,0,0.1,0.1c0.3,0.3,0.5,0.6,0.7,0.9
			c0.1,0,0.2,0.3,0.3,0.1c-0.2,0.2-0.1,0.5,0,0.6c0,0,0,0-0.1,0c-0.2,0.4,0.4,0,0.1,0.4c0.3-0.1,0.1,0.4,0.5,0.3
			c0,0.1-0.1,0.1-0.1,0.1c0.2,0.3,0.3,0.7,0.4,1c0.4,0.1,0.2,0.6,0.6,0.6c0,0.2,0,0.5,0.3,0.7l-0.1,0c0.2,0.2,0.4,0.5,0.7,0.6
			c-0.3,0.2-0.1,0.3-0.2,0.5c0.2,0.1,0.4,0.4,0.7,0.6c-0.1,0.1,0.2,0.2,0,0.3c0.8,0.5,1.2,1.4,1.3,2.4l0,0c0.2,0,0.5,0,0.7,0
			c0,0,0,0-0.1,0c0.1,0.1,0,0.4,0.1,0.5c0,0,0,0-0.1,0c0.2,0.1,0,0.4,0.2,0.4l0,0l0.1,0.1c-0.1,0-0.2,0.1-0.2,0
			c0.6,1.2,1.6,2.3,2.1,3.6l-0.1,0l0.2,0.2c0,0-0.1,0-0.1,0c0,0.4,0.4,0.6,0.5,0.9c0,0-0.1,0-0.1,0.1c0.3,0.1-0.1,0.5,0.4,0.4
			c0,0-0.1,0.1-0.1,0.1c0.4,0.6,0.7,1.2,1,1.9c0.6,0.4,0.5,1.1,1.1,1.5l-0.1,0c0.6,0.6,0.6,1.5,1,2.2c0.1,0.3,0.3,0.5,0.4,0.8
			l-0.1,0c0.6,0.4,0.2,1.2,0.8,1.6l-0.1,0c0.2,0,0.1,0.4,0.4,0.2L77,75.9c0.6,0.2,0.1,0.8,0.5,1.1l-0.1,0c0.1,0.1,0.2,0.2,0.2,0.3
			c0,0,0,0-0.1,0c-0.2,0.5,0.4,0.8,0.5,1.2l-0.2,0c0.2,0.1,0.2,0.6,0.4,0.8l-0.1,0l0.1,0.1l-0.1,0.1C78.4,79.9,78.6,80.1,78.8,80.5z
			"/>
		<path fill="#C3C4B8" d="M80.2,83.8L80.2,83.8C80.1,83.8,80.1,83.8,80.2,83.8z"/>
		<path fill="#C3C4B8" d="M63.8,51.8C63.8,51.8,63.8,51.8,63.8,51.8C63.8,51.8,63.8,51.8,63.8,51.8z"/>
	</g>
	<g>
		<polygon fill="#C3C4B8" points="93.5,79.3 93.5,79.3 93.4,79.3 		"/>
		<path fill="#C3C4B8" d="M93.1,79.1C93.1,79.1,93.1,79.1,93.1,79.1l0.3,0.1C93.6,79,93,79.2,93.1,79.1z"/>
		<path fill="#C3C4B8" d="M93.1,79C93.2,78.9,93,79,93,79C93.1,79,93,79.1,93.1,79z"/>
		<path fill="#C3C4B8" d="M90.6,73.2C90.6,73.2,90.6,73.2,90.6,73.2C90.6,73.2,90.6,73.2,90.6,73.2z"/>
		<path fill="#C3C4B8" d="M89.3,71.9l-0.1,0c0.4,0.2,0.3,0.6,0.5,0.8l-0.1,0c0.3,0.8,0.8,1.4,1.3,2.1c0,0-0.1,0-0.1,0
			c0.1,0,0.2,0,0.2,0.1c0,0-0.1,0-0.1,0c-0.1,0.2,0.3,0.4,0.2,0.6c0,0,0.1,0,0.2,0c0.3,0.6,0.6,1.2,1,1.7c0,0-0.1,0.1-0.1,0.1
			c0.5,0.4,0.6,1,0.8,1.6c0.1,0,0.1-0.1,0.2-0.1c0-0.2-0.3-0.2-0.2-0.5l0.1,0c0-0.1-0.2,0.1-0.2-0.1c0.1-0.1,0.1,0,0.1-0.1
			c-0.1-0.2-0.2-0.5-0.4-0.7c0.2-0.1-0.1-0.3,0-0.4c-0.1,0-0.1-0.1-0.2-0.1c-0.3-0.9-0.8-1.7-1.2-2.5c-0.5-0.2-0.3-0.9-0.7-1.3
			c0,0,0,0,0,0c-0.2-0.1-0.3-0.3-0.3-0.5L90,72.6c-0.2-1.2-1-2.3-1.4-3.4c-0.6-1.3-0.9-2.5-2-3.4c0,0,0,0,0.1,0
			c-0.3-0.3-0.3-0.7-0.6-1l0,0c-0.7-0.6-1-1.7-1.7-2.2c-0.5-0.9-1.3-1.9-2-2.8l0.1,0c-0.7-0.6-0.8-1.6-1.5-2.3
			c-0.4-0.9-1.5-1.3-1.9-2.2c-0.1-0.7-1.2-0.8-1.2-1.5c-0.3-1.2-1.3-1.8-2.3-2.4c-0.5-0.9-1.6-1.3-2-2.3c-0.5-0.2-0.5-1-0.9-1.3
			l-0.1,0.1c0.1-0.3-0.6,0-0.4-0.4l0,0c0.1-0.2-0.5,0.2-0.4,0l-0.1,0.1c-0.1-0.1,0.1-0.1,0-0.2c0,0-0.1,0.1-0.2,0
			c0.3-0.3-0.3-0.1,0.1-0.5c0,0,0.1-0.2,0.2-0.2c0-0.1-0.2-0.2-0.3,0c-0.2,0.1-0.4,0.2-0.4,0.4l0.1-0.1c-0.1,0.1,0,0.1-0.1,0.2
			c0.1,0.1,0,0.3,0,0.5c0,0,0,0,0,0c0.2-0.1,0.2,0.1,0.2,0.1l0,0.1c-0.1,0.2,0.4-0.1,0.1,0.1c0.3,0.2,0.6,0.4,0.8,0.7
			c0.1,0,0.2,0.2,0.3,0c-0.1,0.3,0,0.5,0.1,0.6c0,0,0,0,0,0c-0.1,0.4,0.4-0.1,0.2,0.4c0.2-0.2,0.2,0.3,0.5,0.1
			c0,0.1-0.1,0.1-0.1,0.1c0.2,0.2,0.4,0.6,0.6,0.8c0.4,0,0.3,0.5,0.7,0.4c0.1,0.2,0.1,0.5,0.4,0.6l0,0c0.2,0.2,0.4,0.4,0.7,0.4
			c-0.2,0.3-0.1,0.3-0.1,0.5c0.2,0,0.4,0.3,0.7,0.4c-0.1,0.1,0.2,0.1,0,0.3c0.8,0.3,1.3,1.1,1.6,2l0,0c0.2,0,0.5-0.1,0.7-0.1
			c0,0,0,0-0.1,0c0.1,0.1,0,0.3,0.2,0.4c0,0,0,0-0.1,0c0.2,0,0,0.3,0.3,0.4l0,0l0.1,0c-0.1,0-0.2,0.1-0.2,0.1c0.7,1.1,1.8,1.9,2.6,3
			l-0.1,0l0.3,0.1c0,0-0.1,0-0.1,0c0.1,0.3,0.5,0.5,0.6,0.8c0,0-0.1,0-0.1,0.1c0.3,0.1,0,0.5,0.4,0.3c0,0-0.1,0.1-0.1,0.1
			c0.5,0.5,0.9,1,1.2,1.6c0.6,0.2,0.7,1,1.2,1.3l-0.1,0c0.6,0.5,0.8,1.3,1.2,1.9c0.1,0.3,0.3,0.4,0.5,0.7l-0.1,0.1
			c0.6,0.3,0.3,1.2,0.9,1.4l-0.1,0c0.2,0,0.1,0.3,0.4,0.1l0,0.1c0.6,0.1,0.2,0.7,0.6,1l-0.1,0c0.1,0.1,0.2,0.2,0.2,0.3
			c0,0,0,0-0.1,0c-0.1,0.5,0.4,0.7,0.6,1.1l-0.2,0c0.3,0.1,0.3,0.5,0.5,0.7l-0.1,0l0.2,0.1l-0.1,0.1C88.9,71.4,89.2,71.6,89.3,71.9z
			"/>
		<path fill="#C3C4B8" d="M90.9,75L90.9,75C90.9,75,90.9,75,90.9,75z"/>
		<path fill="#C3C4B8" d="M71.2,47.6C71.2,47.6,71.2,47.6,71.2,47.6C71.2,47.6,71.2,47.6,71.2,47.6z"/>
	</g>
	
		<rect x="52.3" y="29.9" transform="matrix(0.9519 -0.3064 0.3064 0.9519 -9.1096 25.3577)" fill="#B89C97" width="47.9" height="23.6"/>
	<path fill="#8E6365" d="M79.9,38.8c6.3-2,13,1.4,15,7.7c0.2,0.5,0.3,1,0.4,1.5l11.3-3.7c5.4-1.8,7.9-8,5.2-13.1
		C98.5,6.5,69-6.1,41.3,2.9C13.5,11.8-3.1,39.2,0.5,67.1c0.7,5.7,6.4,9.3,11.9,7.5l60.4-19.4c-0.2-0.5-0.4-0.9-0.6-1.4
		C70.2,47.5,73.6,40.8,79.9,38.8z"/>
	<circle fill="#795354" cx="22.4" cy="28.7" r="4.3"/>
	<circle fill="#795354" cx="17.5" cy="40.3" r="4"/>
	<circle fill="#795354" cx="31" cy="37.4" r="4"/>
</g>
<g>
</g>
<g>
</g>
<g>
</g>
<g>
</g>
<g>
</g>
<g>
</g>
<g>
</g>
<g>
</g>
<g>
</g>
<g>
</g>
<g>
</g>
<g>
</g>
<g>
</g>
<g>
</g>
<g>
</g>
</svg>
