<?xml version="1.0" encoding="utf-8"?>
<!-- Generator: Adobe Illustrator 18.0.0, SVG Export Plug-In . SVG Version: 6.00 Build 0)  -->
<!DOCTYPE svg PUBLIC "-//W3C//DTD SVG 1.1//EN" "http://www.w3.org/Graphics/SVG/1.1/DTD/svg11.dtd">
<svg version="1.1" id="Layer_1" xmlns="http://www.w3.org/2000/svg" xmlns:xlink="http://www.w3.org/1999/xlink" x="0px" y="0px"
	 viewBox="0 0 490.3 188.2" enable-background="new 0 0 490.3 188.2" xml:space="preserve">
<g>
	<path fill="#FFFFFF" d="M435.5,152.8H54.8C24.5,152.8,0,128.2,0,98l0-43.2C0,24.5,24.5,0,54.8,0l380.7,0
		c30.3,0,54.8,24.5,54.8,54.8V98C490.3,128.2,465.8,152.8,435.5,152.8z"/>
	<g>
		<path fill="#616264" d="M74.8,52.2c0.1-0.9,0.2-1.8,0.3-2.7l4.2,0.6c-0.1,0.7-0.2,1.4-0.3,2.1h13.6v3.6H78.4
			c-0.1,0.6-0.2,1.2-0.4,1.8h11.1v18.6h5v3.7h-9.5c3.3,1.1,6.3,2.4,9.1,3.9L91.7,87c-3.7-2.2-7.4-4-11.3-5.2l1.3-2h-11l1.7,1.9
			c-3.1,2.1-7,3.9-11.4,5.3l-1.7-3.5c3.6-1,6.7-2.2,9.2-3.7h-10v-3.7h5.6V57.5h9.7c0.2-0.6,0.3-1.2,0.4-1.8H60v-3.6H74.8z
			 M85.2,62.3v-1.5H68.1v1.5H85.2z M85.2,66.9v-1.5H68.1v1.5H85.2z M85.2,71.4v-1.5H68.1v1.5H85.2z M85.2,76.1v-1.6H68.1v1.6H85.2z"
			/>
		<path fill="#616264" d="M100.8,69.8l-1.4-4.5c3-4.5,5.1-9.9,6.5-16l3.9,1.8c-0.7,2.6-1.5,5.2-2.6,7.6v28h-4.2V66.5
			C102.4,67.6,101.6,68.7,100.8,69.8z M114.6,75.4h6.8v3.9h-6.8v7.4h-4V50.9h11.7v12.8h-7.7v3.8h6.8v3.9h-6.8V75.4z M118.4,59.8v-5
			h-3.8v5H118.4z M135.6,66.4V70c-0.8,3.6-2,6.7-3.7,9.2c1.7,1.8,3.5,3.2,5.4,4l-2,3.6c-2.4-1.1-4.4-2.6-6-4.5
			c-2,1.9-4.2,3.4-6.8,4.6l-2.2-3.5c2.6-1.2,4.8-2.6,6.6-4.5c-1.6-2.8-2.7-5.8-3.1-8.8h-1.2v-3.8H135.6z M123.8,63.6v-3.8h7.2v-5
			h-7.1v-3.8h11.2v12.7H123.8z M129.2,75.8c1.1-1.7,1.9-3.6,2.6-5.6h-4.5C127.6,72.3,128.3,74.2,129.2,75.8z"/>
		<path fill="#616264" d="M158.6,64.9c1.4,0.8,2.8,1.6,4.2,2.5c1.6,0.9,3.2,1.3,4.6,1.3c1.5,0,3.3-1.5,5.6-4.5l3,2.5
			c-2.8,4-5.7,6-8.5,6c-1.9,0-3.7-0.4-5.4-1.3c-1.4-0.8-2.8-1.7-4.1-2.5c-1.6-0.9-3.2-1.3-4.6-1.3c-1.5,0-3.4,1.5-5.6,4.5l-3-2.5
			c2.8-4,5.6-6,8.5-6C155.1,63.6,156.9,64,158.6,64.9z"/>
		<path fill="#616264" d="M202.8,72.1c-2.1,0.7-4.3,1.4-6.6,2v8.1c0,2.6-1.4,4-4.2,4h-4.5l-0.9-4c1.4,0.2,2.7,0.2,4,0.2
			c0.9,0,1.4-0.5,1.4-1.4v-6c-2.3,0.5-4.7,0.9-7.2,1.3l-0.6-4.2c2.7-0.4,5.3-0.9,7.8-1.4v-6.9h-7.8v-4h7.8v-3.7
			c-1.9,0.4-3.9,0.7-6,1l-0.9-4c5.5-0.6,10.5-1.8,14.8-3.5l1.4,3.9c-1.6,0.6-3.4,1.1-5.2,1.6v4.7h8.2c-0.2-3.1-0.3-6.5-0.3-10.2h4.2
			c0,3.8,0.2,7.2,0.4,10.2h12v4h-11.6c0.2,2.6,0.6,4.7,1,6.4c0.2,0.6,0.3,1.2,0.5,1.8c1.6-2,3.1-4.3,4.3-6.8l3.6,1.9
			c-1.8,3.6-3.9,6.8-6.3,9.4c0.4,1,0.8,1.8,1.3,2.4c1.1,1.8,2,2.6,2.6,2.6c0.4,0,0.9-2,1.4-6l3.7,2c-1,5.7-2.5,8.6-4.5,8.6
			c-1.8,0-3.6-1.2-5.5-3.6c-0.7-0.9-1.4-2-2-3.2c-2.7,2.2-5.8,4-9.1,5.3l-2.3-3.6c3.7-1.4,6.9-3.3,9.7-5.8c-0.4-1.3-0.8-2.6-1.2-4
			c-0.6-2.2-1-4.7-1.4-7.6h-8.6v5.9c2.3-0.6,4.6-1.2,6.6-2V72.1z M219.8,55.4l-3,3c-1.6-1.8-4-3.6-7-5.6l2.8-2.7
			C215.4,51.8,217.8,53.6,219.8,55.4z"/>
		<path fill="#616264" d="M236,59.3v3.2c-1.2,2-2.5,4-4.1,6h4.5v2.8c-0.5,2.8-1.1,5.2-1.8,7c0.3,0.2,0.6,0.4,0.9,0.8
			c1.3,1.2,2.6,2,3.7,2.6c1.1,0.4,2.8,0.7,5,0.8c2.2,0,4.7,0,7.5,0c3,0,6.8-0.1,11.6-0.3l-1,3.9h-10.2c-2.8,0-5.5-0.1-8.2-0.2
			s-4.8-0.4-6.2-1c-1.7-0.6-3.2-1.6-4.6-3.1c-0.2-0.3-0.6-0.4-0.9-0.4c-0.7,0-1.9,1.8-3.5,5.3l-3-2.8c1.8-3.5,3.4-5.6,5.1-6.2
			c0.7-1.8,1.2-3.6,1.6-5.6H227v-3.1c1.8-2.1,3.2-4,4.4-5.8h-5.1v-3.8H236z M235.8,55.5l-2.7,2.7c-1.4-1.8-3.4-3.7-6.1-5.8l2.7-2.6
			C232.1,51.7,234.1,53.6,235.8,55.5z M258.9,63.9v7.5h-0.6l2.6,1.6c-0.7,1-1.6,2-2.6,3.1c1.2,0.8,2.3,1.6,3.4,2.4l-2.7,2.7
			c-2.4-2.2-5.7-4.5-10-7l2.4-2.3c1.4,0.8,2.8,1.6,4.1,2.4c1-1.2,1.8-2.1,2.3-2.9h-8.8c-0.8,0.9-1.7,1.7-2.8,2.5v3.8
			c1.8-0.4,3.7-0.8,5.5-1.2l0.7,3.2c-3.2,0.7-6.5,1.2-9.8,1.7l-1.1-2.8c0.7-0.2,1.1-0.6,1.1-1.1v-1.4c-1.2,0.6-2.5,1.2-4,1.7
			l-1.9-3.2c3.2-0.9,5.6-1.9,7.4-3.1h-3.9v-7.5H258.9z M261.7,59.3v3.3h-24.4v-3.3H261.7z M259.8,50.6v7.6h-20.6v-7.6H259.8z
			 M245.2,53.3h-2.4v2.2h2.4V53.3z M255.2,66.8h-11.4v1.7h11.4V66.8z M250.7,53.3h-2.4v2.2h2.4V53.3z M256.3,53.3h-2.4v2.2h2.4V53.3
			z"/>
		<path fill="#616264" d="M277,65.2l-3,3c-1.5-1.8-3.7-3.7-6.5-5.8l3-2.9C273,61.4,275.2,63.2,277,65.2z M278,72.1
			c-1.8,5-3.7,9.8-5.9,14.2l-4.2-1.8c2.4-4.5,4.6-9.2,6.3-13.9L278,72.1z M278.2,55.5l-3,3c-1.6-1.8-3.8-3.6-6.8-5.6l3-2.9
			C274.1,51.8,276.3,53.7,278.2,55.5z M301.4,66.6v3.8c-1.2,3.3-3.2,6.2-6.1,8.6c2.8,1.4,6.1,2.7,9.9,3.8l-2.3,3.7
			c-4.4-1.5-8-3.2-11-5.1c-3.6,2.2-8,4-13.2,5.3l-2.3-3.6c4.6-1.1,8.6-2.6,11.8-4.4c-3-2.5-5-5.2-6.1-8.3h-2.4v-4H301.4z
			 M289.6,50.2c-0.2,1-0.5,1.9-0.8,2.8h12.6c-0.2,5.6-0.6,9.1-1.2,10.4c-0.7,1.2-2.2,1.8-4.6,1.9c-1.2,0-2.7-0.1-4.3-0.2l-1.2-3.8
			c2,0.2,3.7,0.2,5.1,0.2c0.9,0,1.5-0.2,1.7-0.6c0.2-0.5,0.3-1.8,0.4-4h-10c-1.7,3.6-4,6.5-6.7,8.8l-2.7-3.4c3.8-3.2,6.4-7.6,7.8-13
			L289.6,50.2z M291.5,76.7c2.4-1.8,4.3-3.9,5.6-6.2h-10.9C287.2,72.9,288.9,74.9,291.5,76.7z"/>
		<path fill="#616264" d="M341.6,62.7v18.1h-7c3.8,0.7,7.6,1.6,11.1,2.8l-1.4,3.4c-4.1-1.6-8.3-2.8-12.7-3.6l1.3-2.5h-9.4l1.6,2.2
			c-2.9,1.7-7,3-12.4,4.1l-1.9-3.3c4.6-0.8,8.3-1.8,11-3h-6.8V62.7H341.6z M343.7,50.9v10.2h-31V50.9H343.7z M321.9,54.3h-5.1v3.6
			h5.1V54.3z M337.6,67.8v-1.9h-18.5v1.9H337.6z M337.6,72.6v-1.9h-18.5v1.9H337.6z M337.6,75.5h-18.5v2h18.5V75.5z M331,54.3h-5.3
			v3.6h5.3V54.3z M339.8,54.3h-5v3.6h5V54.3z"/>
		<path fill="#616264" d="M357,83.5h-4v-31h10.7v30.1h-4v-2.1H357V83.5z M359.8,56.4H357v20.2h2.7V56.4z M385.4,70.8V79h-2.5l-1,3
			h6.6v3.4h-23.9V82h6.8l-0.8-3h-2.8v-8.3H385.4z M388.1,67.2h-3.4v-2.6h-16.4v2.7h-3.4v-6h23.2V67.2z M374.7,51.7v-2h3.8v2h9.3V55
			h-9.3v1.5h7.8v3.2h-19v-3.2h7.4V55h-9.1v-3.3H374.7z M383.8,66.1v3.1h-14.5v-3.1H383.8z M381.7,73.8h-10.4v2.3h10.4V73.8z
			 M378.2,82l1-3H374l0.8,3H378.2z"/>
		<path fill="#616264" d="M414.6,77.3c0.6,0.6,0.9,1.3,0.9,2.2s-0.3,1.6-0.9,2.2c-0.6,0.6-1.4,0.8-2.2,0.8s-1.6-0.3-2.2-0.9
			c-0.6-0.6-0.9-1.3-0.9-2.2s0.3-1.6,0.9-2.2c0.6-0.6,1.3-0.8,2.2-0.8S414,76.7,414.6,77.3z M415,54l-1,20.4h-3.4l-1-20.4H415z"/>
	</g>
	<path fill="#B3B5B8" d="M58.3,93.4c123.9-1.4,247.9,0.4,371.6,5.5c-0.1,0,0.1-2.5,0-2.5c-123.7-5-247.6-6.9-371.6-5.5
		C58.2,90.9,58.3,93.4,58.3,93.4L58.3,93.4z"/>
	<path fill="#FFFFFF" d="M78.1,141.2c0,0,2.3,36.1-13.8,47c0,0,40.7-7.6,49.2-47H78.1z"/>
</g>
<g>
</g>
<g>
</g>
<g>
</g>
<g>
</g>
<g>
</g>
<g>
</g>
<g>
</g>
<g>
</g>
<g>
</g>
<g>
</g>
<g>
</g>
<g>
</g>
<g>
</g>
<g>
</g>
<g>
</g>
</svg>
