<?xml version="1.0" encoding="utf-8"?>
<!-- Generator: Adobe Illustrator 18.0.0, SVG Export Plug-In . SVG Version: 6.00 Build 0)  -->
<!DOCTYPE svg PUBLIC "-//W3C//DTD SVG 1.1//EN" "http://www.w3.org/Graphics/SVG/1.1/DTD/svg11.dtd">
<svg version="1.1" id="Layer_1" xmlns="http://www.w3.org/2000/svg" xmlns:xlink="http://www.w3.org/1999/xlink" x="0px" y="0px"
	 viewBox="0 0 355.6 228.3" enable-background="new 0 0 355.6 228.3" xml:space="preserve">
<g>
	<path fill="#FFD25C" d="M288.6,195.6H66.9c-37,0-66.9-30-66.9-66.9l0-61.7C0,30,30,0,66.9,0l221.7,0c37,0,66.9,30,66.9,66.9v61.7
		C355.6,165.6,325.6,195.6,288.6,195.6z"/>
	<g>
		<path fill="#414042" d="M68,77.6h-3.4v-2.4h-2.2v3.2H59V47.8H68V77.6z M64.6,71.8V51.1h-2.2v20.7H64.6z M79.6,46.5v2.8
			c-0.6,3.5-1.4,7.2-2.3,11.2c1.4,3.6,2.2,6.6,2.3,9.2c0,2-0.3,3.4-0.8,4.2c-0.9,1-2.3,1.6-4.4,1.6l-1-3.2v9.8h-3.4V46.5H79.6z
			 M75.1,72.1c0.3-0.1,0.6-0.3,0.7-0.6c0.1-0.3,0.2-0.9,0.2-1.8c0-2.6-0.8-5.5-2.2-8.7c1-4.2,1.7-7.9,2.3-11.2h-2.8v22
			C74,72,74.6,72.1,75.1,72.1z M88.4,54.1v18h-8v-18H88.4z M95,46.6v3.8h-1.4V78c0,2.6-1.4,4-4.2,4h-4.2l-0.8-3.5
			c1.3,0.2,2.6,0.2,3.8,0.2s1.8-0.5,1.8-1.6V50.5h-9.1v-3.8H95z M85.4,56.9h-2v12.4h2V56.9z"/>
		<path fill="#414042" d="M120.6,72.8c0.6,0.6,0.9,1.3,0.9,2.2s-0.3,1.6-0.9,2.2c-0.6,0.6-1.4,0.8-2.2,0.8s-1.6-0.3-2.2-0.9
			c-0.6-0.6-0.9-1.3-0.9-2.2s0.3-1.6,0.9-2.2c0.6-0.6,1.3-0.8,2.2-0.8S120,72.3,120.6,72.8z M121,49.5l-1,20.4h-3.4l-1-20.4H121z"/>
		<path fill="#414042" d="M147.3,52.8l-3.1,1.4c-0.8-2.3-1.6-4.4-2.4-6.2l3.2-1.1C145.8,48.6,146.6,50.6,147.3,52.8z M151.5,45.4
			v9.4h2v-9.4h3.8v9.4h4.6v3.9h-2.7l-1.2,3.9h3.6v3.6h-6.9v3.2h6.2v3.6h-6.2v3.7c2.7-0.2,5.1-0.5,7.1-0.8v3.7
			c-3.6,0.6-9.7,1.2-18.5,1.6l-0.6-3.9c2.8-0.1,5.5-0.2,7.9-0.3v-4h-6.2v-3.6h6.2v-3.2h-7.2v-3.6h3.6l-1-3.9h-3.4v-3.9h5.4v-9.4
			H151.5z M154,62.6l1.3-3.9h-5.7l1,3.9H154z M163.1,47.6c-0.6,2.4-1.4,4.6-2.4,6.5l-3.2-1.2c0.8-1.6,1.6-3.7,2.2-6.3L163.1,47.6z
			 M169.6,70.2l-3.5,1.6c-1.1-3.8-2.4-7.1-3.8-10l3.6-1.2C167.3,63.6,168.6,66.8,169.6,70.2z M171.4,53v-7.8h4.1V53h3.2v4h-3.2v20.8
			c0,2.8-1.4,4.2-4.2,4.2h-5l-0.9-4c1.6,0.2,3.1,0.3,4.5,0.3c1,0,1.5-0.6,1.5-1.6V57h-8.6v-4H171.4z"/>
		<path fill="#414042" d="M211.6,51.2h-25.2v-4h31v4c-3.7,3.3-7.8,6.4-12.4,9.4v16.9c0,3-1.5,4.4-4.4,4.4c-2.4,0-4.6-0.1-6.4-0.3
			l-1.1-4c2,0.2,4.1,0.4,6.4,0.4c0.8,0,1.3-0.4,1.3-1.3V58.4C204.6,56.3,208.2,53.9,211.6,51.2z"/>
		<path fill="#414042" d="M236.7,78.3H233V76h-2.2v3.2H227V48.1h9.8V78.3z M233,72.4V51.7h-2.2v20.8H233z M237.8,81.6L237,78
			c0.7,0.1,1.4,0.2,2.1,0.2c1,0,1.4-0.4,1.4-1.3v-8.6c-0.8,0.3-1.6,0.6-2.4,0.8l-1-3.9c1.2-0.2,2.3-0.6,3.4-0.9v-8.2h-2.9v-3.8h2.9
			v-6.7h3.8v6.7h2.5v3.8h-2.5v6.8c0.9-0.4,1.8-0.8,2.7-1.3v4c-0.9,0.4-1.8,0.8-2.7,1.2v11.1c0,2.5-1.4,3.8-4,3.8H237.8z M254,76.7
			c1.4-5.3,2.7-11.9,3.8-19.7l3.7,1c-1,7-2.2,13.2-3.7,18.7h5v4H246v-4H254z M253.3,51.2c-0.8-1.3-1.8-2.7-3-4.2l3.1-2
			c1.5,1.9,2.7,3.5,3.5,5l-1.7,1.2h7v3.8h-14.5v-3.8H253.3z M253.6,73.7l-3.5,0.4c-0.6-6-1.4-11.4-2.1-16l3.6-0.4
			C252.4,62.4,253,67.7,253.6,73.7z"/>
		<path fill="#414042" d="M288.6,72.8c0.6,0.6,0.9,1.3,0.9,2.2s-0.3,1.6-0.9,2.2c-0.6,0.6-1.4,0.8-2.2,0.8s-1.6-0.3-2.2-0.9
			c-0.6-0.6-0.9-1.3-0.9-2.2s0.3-1.6,0.9-2.2c0.6-0.6,1.3-0.8,2.2-0.8S288,72.3,288.6,72.8z M289,49.5l-1,20.4h-3.4l-1-20.4H289z"/>
		<path fill="#414042" d="M58.9,120.4l-1.4-4.5c4.1-4.5,7.2-9.8,9.2-16l3.9,1.8c-1,3.1-2.4,6.1-4.1,8.9v26.6h-4.2v-20.6
			C61.2,117.8,60.1,119.1,58.9,120.4z M71.3,116.6l-3.6-2.2c3-4.4,5-9.2,6.2-14.2l3.9,0.8c-0.3,1.2-0.7,2.4-1,3.6h16.7v2.7
			c-0.6,2.4-1.4,4.8-2.3,7.1l-4-1.2c0.8-1.4,1.4-2.9,2-4.7H75.4C74.2,111.6,72.8,114.2,71.3,116.6z M77.1,117.6
			c-1.4,5.5-3.2,10.3-5.4,14.4l-3.9-1.4c2.1-3.7,3.9-8.4,5.5-14L77.1,117.6z M74.8,136.9l-0.9-3.9c1.6,0.2,3.2,0.3,4.6,0.3
			c1,0,1.4-0.5,1.4-1.5v-20.4h4v21.4c0,2.8-1.4,4.2-4.1,4.2H74.8z M94.5,131l-3.7,1.6c-1.4-5.8-3.1-10.9-4.9-15.3l3.7-1.2
			C91.5,120.8,93.2,125.8,94.5,131z"/>
		<path fill="#414042" d="M104,108.3c-0.1,4-0.5,7.8-1.2,11.4l-3.4-1c0.8-3.4,1.3-6.9,1.4-10.7L104,108.3z M114.8,115.9l-3.3,0.8
			c-0.6-2.8-1.4-5.5-2.3-8.1v28.5H105v-36.8h4.1v7.7l2.8-0.9C113,109.6,114,112.6,114.8,115.9z M120.9,105.9v-5.6h4.1v5.6h8.5v12
			h2.6v4.1h-12.2c-1.7,6.9-5.4,11.9-11,15.1l-2.6-3.4c4.7-2.4,7.8-6.3,9.4-11.6h-7v-4.1h7.9c0.2-1.6,0.4-3.3,0.4-5v-3h-6.6v-3.9
			H120.9z M125,111.9c0,2.1-0.2,4.1-0.4,6h4.9v-8.1H125V111.9z M124.7,125.8l2.7-2.6c2.6,2.5,5.8,6.2,9.6,11.2l-3,3
			C131.3,133.3,128.2,129.4,124.7,125.8z"/>
		<path fill="#414042" d="M159.1,115.6h-11.4v21.6h-4v-35.7h15.4V115.6z M155.1,104.9h-7.4v2h7.4V104.9z M147.7,112h7.4v-2h-7.4V112
			z M162.2,119.7v-3h3.9v3h5.3v3.8h-5.3v8.8c0,2.8-1.4,4.3-4.3,4.3h-4.6l-0.9-3.7c1.4,0.2,2.8,0.2,4.2,0.2c1.1,0,1.7-0.6,1.7-1.8v-6
			c-3.1,3.9-7,7-11.6,9.4l-2.1-3.4c4.7-2,8.6-4.6,11.4-7.8H150v-3.8H162.2z M161.5,115.6v-14.2h15.4v30.8c0,3-1.4,4.4-4.3,4.4
			c-1.2,0-2.4-0.1-3.6-0.2l-1.1-3.8c1.1,0.1,2.2,0.1,3.2,0.1c1.1,0,1.7-0.6,1.7-1.9v-15.3H161.5z M172.9,105h-7.4v1.9h7.4V105z
			 M165.5,112.1h7.4v-2h-7.4V112.1z"/>
		<path fill="#414042" d="M202.6,100.2v11.9h14.8v4h-14.8v15.6h17.8v4.1h-36v-4.1h13.9v-31.6H202.6z"/>
		<path fill="#414042" d="M239.5,134.5h-4v-2.6H231v3.5h-4v-33.5h12.5V134.5z M235.5,110.6v-4.8H231v4.8H235.5z M235.5,119.3v-4.9
			H231v4.9H235.5z M235.5,128v-5H231v5H235.5z M246.3,131.4c1.9-0.6,3.7-1.2,5.5-2l1,3.6c-2.9,1.2-6.4,2.4-10.8,3.5l-0.9-3.4
			c0.7-0.2,1.1-0.7,1.1-1.4v-30.3H260v18.1h-13.7V131.4z M255.9,105.2h-9.6v3.6h9.6V105.2z M246.3,115.8h9.6v-3.4h-9.6V115.8z
			 M262.3,123.2c-1.6,2-3.4,3.6-5.4,4.7c1.7,2.3,3.7,4.1,6,5.5l-2.4,3.6c-4.7-3-8.1-7.8-10.3-14.2l3-1.8c0.5,1.4,1.1,2.8,1.8,4
			c1.6-1,3.2-2.4,4.7-4.3L262.3,123.2z"/>
		<path fill="#414042" d="M281,132.8h-7.8v2.7h-3.9v-33.8H281V132.8z M277.2,105.5h-4v5.5h4V105.5z M273.2,119.9h4v-5.5h-4V119.9z
			 M273.2,129h4v-5.6h-4V129z M284.5,137.2l-3-2.6c2.2-2.9,3.3-6.6,3.4-11v-6h16.8v16c0,2.2-1.3,3.4-3.8,3.4h-4.1l-1-3.6
			c1.4,0.1,2.7,0.2,3.9,0.2c0.7,0,1.1-0.4,1.1-1.3v-1.3h-10.2C287,133.3,285.9,135.4,284.5,137.2z M295.1,100.2v2.2h8.4v3.4h-8.4
			v1.6h7v3.4h-7v1.8h9.3v3.4h-22.3v-3.4h9v-1.8h-6.9v-3.4h6.9v-1.6H283v-3.4h8.1v-2.2H295.1z M288.4,127.8h9.5v-2h-9.3L288.4,127.8z
			 M297.9,120.8h-9.2v1.9h9.2V120.8z"/>
	</g>
	<path fill="#FCB457" d="M58.2,87.3c90.7-1.1,181.4,0.3,272,4.2c0,0,0.1-1.9,0-1.9c-90.5-3.8-181.3-5.2-272-4.2
		C58.1,85.4,58.2,87.3,58.2,87.3L58.2,87.3z"/>
	<path fill="#FCB457" d="M58,141.3c82.7,3.9,165.5,5,248.3,3.1c0.1,0,0-2.5,0-2.5c-82.8,1.9-165.7,0.9-248.3-3.1
		C58,138.8,57.9,141.3,58,141.3L58,141.3z"/>
	<path fill="#FFD25C" d="M134.1,181.4c0,0,2.3,36.1-13.8,47c0,0,40.7-7.6,49.2-47H134.1z"/>
</g>
<g>
</g>
<g>
</g>
<g>
</g>
<g>
</g>
<g>
</g>
<g>
</g>
<g>
</g>
<g>
</g>
<g>
</g>
<g>
</g>
<g>
</g>
<g>
</g>
<g>
</g>
<g>
</g>
<g>
</g>
</svg>
