<?xml version="1.0" encoding="utf-8"?>
<!-- Generator: Adobe Illustrator 18.0.0, SVG Export Plug-In . SVG Version: 6.00 Build 0)  -->
<!DOCTYPE svg PUBLIC "-//W3C//DTD SVG 1.1//EN" "http://www.w3.org/Graphics/SVG/1.1/DTD/svg11.dtd">
<svg version="1.1" id="Layer_1" xmlns="http://www.w3.org/2000/svg" xmlns:xlink="http://www.w3.org/1999/xlink" x="0px" y="0px"
	 viewBox="0 0 6235.3 812" enable-background="new 0 0 6235.3 812" xml:space="preserve">
<g>
	<g>
		<g>
			<g>
				
					<linearGradient id="SVGID_1_" gradientUnits="userSpaceOnUse" x1="-5557.8408" y1="-1088.2928" x2="-5466.7705" y2="-1088.2928" gradientTransform="matrix(-1.0233 0.2464 0.2341 0.9722 448.6001 2756.9441)">
					<stop  offset="0" style="stop-color:#BEC0C2"/>
					<stop  offset="1" style="stop-color:#B1B3B6"/>
				</linearGradient>
				<path fill="url(#SVGID_1_)" d="M5875.4,306l-93.7,20.2l7.3,21.7c3.9,11.6,14.1,19.8,26.1,21l5.5,0.6c3.4,0.3,6.8,0.1,10.2-0.7
					l26.7-6.4c5.7-1.4,10.9-4.4,14.9-8.6v0c7.2-7.6,10.1-18.4,7.6-28.6L5875.4,306z"/>
			</g>
			<g>
				
					<linearGradient id="SVGID_2_" gradientUnits="userSpaceOnUse" x1="-2064.7246" y1="-615.532" x2="-1973.6543" y2="-615.532" gradientTransform="matrix(-1.243276e-002 -1.0525 -0.9999 1.181229e-002 4887.6211 -1825.9379)">
					<stop  offset="0" style="stop-color:#BEC0C2"/>
					<stop  offset="1" style="stop-color:#B1B3B6"/>
				</linearGradient>
				<path fill="url(#SVGID_2_)" d="M5552.9,339.5l1.2-95.9l-22.7,2.3c-12.1,1.2-22.4,9.3-26.3,20.8l-1.8,5.2
					c-1.1,3.2-1.6,6.6-1.6,10.1l0.3,27.5c0.1,5.9,1.8,11.6,5.1,16.5v0c5.8,8.7,15.7,13.9,26.2,13.8L5552.9,339.5z"/>
			</g>
			<g>
				<linearGradient id="SVGID_3_" gradientUnits="userSpaceOnUse" x1="5512.835" y1="403.9199" x2="5618.6069" y2="403.9199">
					<stop  offset="0" style="stop-color:#BEC0C2"/>
					<stop  offset="1" style="stop-color:#B1B3B6"/>
				</linearGradient>
				<path fill="url(#SVGID_3_)" d="M5611.2,375.9c0,0-38,49.1-98.4,44v11.9c0,0,70.3,4.5,105.8-38.5L5611.2,375.9z"/>
			</g>
			<path fill="#B1B3B6" d="M5858.6,349.5c3.3-0.1,3.9,20.8,3.8,23.2c-1,29.3-16.8,51.2-27.9,76.3c-2.7,6.1-8.2,10.1-14.3,10.5
				l-51.1,3.4c-10.2,0.7-18.8-8.5-18.7-19.8l0.2-14.4c0-2-2.5-2.3-2.9-0.4l-3.3,17.3c-2.1,11.4-10.9,19.7-21.4,20.4l-66.5,4.4
				c-9.4,0.6-18.2-4.9-22.6-14.2c-8.4-17.6-20.7-47.1-21.1-68.7l92.4-25.9C5705.2,361.6,5857.2,349.6,5858.6,349.5z"/>
			<path fill="#E4E5E6" d="M5822.6,454.5c-5-3.8-15.4-8.7-27.9,1.7c-1.3,1.1-0.5,3.4,1.2,3.3l25.8-1.7
				C5823.3,457.7,5823.9,455.5,5822.6,454.5z"/>
			<path fill="#E4E5E6" d="M5795.4,456.3c-5.1-3.8-15.6-8.7-28.2,1.8c-1.3,1.1-0.5,3.4,1.2,3.3l26.1-1.7
				C5796.1,459.5,5796.7,457.3,5795.4,456.3z"/>
			<path fill="#E4E5E6" d="M5723.8,461.1c-6.2-3.7-18.9-8.5-34.4,2.2c-1.7,1.1-0.7,3.4,1.4,3.3l31.8-2.1
				C5724.7,464.3,5725.4,462.1,5723.8,461.1z"/>
			<path fill="#E4E5E6" d="M5690.3,463.3c-6.2-3.7-19.1-8.5-34.7,2.2c-1.7,1.1-0.7,3.4,1.4,3.3l32.2-2.2
				C5691.1,466.5,5691.9,464.3,5690.3,463.3z"/>
			
				<path fill="#B1B3B6" stroke="#797A7D" stroke-width="2.5" stroke-linecap="round" stroke-linejoin="round" stroke-miterlimit="10" d="
				M5775.3,404.3c0,0-12.1,17.9-26.6,23"/>
			<g>
				<path fill="#F58258" d="M5877.6,314.2c0,0-20.3-84.3-59.4-101.5l-193.2,2.5c0,0-45.9-31.2-61.9,23.9
					c-7.3,12.9-0.9-7.5-10.1,15.2l0,85.2c-0.1,0.8,57-0.5,56.9,0.4l2.8,47.7c0,0,194.4-7,248-33.9l-3.4-31.1L5877.6,314.2z"/>
			</g>
			<path fill="#D54849" d="M5815.4,232.3l-20.2,40.2c-3.4,7.8-13.4,10-19.8,4.3l-17.3-15.4l-15.6,23.1c-3.7,5.5-11,7.1-16.7,3.8
				l-53.7-31.3L5815.4,232.3z"/>
			<g>
				<circle fill="#D54849" cx="5771.1" cy="318.7" r="32.2"/>
				<polygon fill="#FBDBAE" points="5760.9,308.3 5762.7,294.4 5788.7,316.3 5767.6,343.2 5772.4,323.4 				"/>
			</g>
			<g>
				<path fill="#D4A26B" d="M5563.2,295.8l-0.1-35.5c0-3,2.4-5.4,5.4-5.4l35.5-0.1c3,0,5.4,2.4,5.4,5.4l0.1,35.5
					c0,3-2.4,5.4-5.4,5.4l-35.5,0.1C5565.6,301.2,5563.2,298.8,5563.2,295.8z"/>
				<path fill="#E5BF7A" d="M5588.2,301.2l-0.1-46.3l15.8,0c3,0,5.4,2.4,5.4,5.4l0.1,35.5c0,3-2.4,5.4-5.4,5.4L5588.2,301.2z"/>
				<path fill="#BA8F64" d="M5579.9,281.8l0-5.9c0-1.7,1.3-3,3-3l8.8,0c1.7,0,3,1.3,3,3l0,5.9c0,1.7-1.3,3-3,3l-8.8,0
					C5581.3,284.7,5579.9,283.4,5579.9,281.8z"/>
			</g>
			<path fill="#797A7D" d="M5512.8,419.9c0,0-12.1-19.5-45,0c0,0,18.5,31.1,45,11.9V419.9z"/>
			<path fill="#ABADB0" d="M5742.3,19l88.6-8c30.3-2.7,60.2,7.7,82.2,28.7v0c31.2,29.8,41,75.7,24.8,115.7l-7.3,18.1
				c-17.4,43-60.9,69.5-107.1,65.2l-23.7-2.2"/>
			<path fill="#939598" d="M5813.7,212.8L5813.7,212.8c35.3,3.2,68.6-17,82-49.9l5.6-13.8c13.4-33.1,3.5-71.5-25.3-93.9
				c-16.4-12.7-37.1-18.3-57.8-16.5l-50.2,4.5c-8.6,0.8-14.4,9.1-12.2,17.4l35.1,132.9C5793.7,204.1,5802.8,211.8,5813.7,212.8z"/>
			
				<linearGradient id="SVGID_4_" gradientUnits="userSpaceOnUse" x1="-6772.4087" y1="1379.2909" x2="-6840.4219" y2="1563.2352" gradientTransform="matrix(-0.9829 0.184 0.184 0.9829 -1202.9966 12.2401)">
				<stop  offset="0" style="stop-color:#BCBEC0"/>
				<stop  offset="1" style="stop-color:#A3A5A8"/>
			</linearGradient>
			<path fill="url(#SVGID_4_)" d="M5625.3,249.8c57.6,27.5,120.9,28,177.7-2.3c27.4-14.6,50.4-38.4,49.8-71.1
				c-0.2-9.3-2.3-18.3-5.2-27.1c-7.8-23.7-4.8-48.2-11.4-72c-4.9-17.4-15.4-32.8-28.8-44.8c-26.1-23.5-60.3-31-98.7-32.5
				c-28.2-1.1-70,10.4-90.9,30.9"/>
			<path fill="#ABADB0" d="M5814.3,112.1c4.2,6,2.7,14.3-3.3,18.4c-6,4.1-14.3,2.6-18.5-3.4c-4.2-6-2.7-14.3,3.3-18.4
				C5801.9,104.5,5810.2,106,5814.3,112.1z"/>
			<path fill="#797A7D" d="M5809.5,114.6c2.3,3.8,1.1,8.7-2.7,11c-3.8,2.3-8.7,1.1-11.1-2.8c-2.3-3.8-1.1-8.7,2.7-11
				C5802.2,109.5,5807.1,110.8,5809.5,114.6z"/>
			<path fill="#ABADB0" d="M5720.5,128.3c4.3,6.1,2.7,14.6-3.4,18.8s-14.5,2.6-18.8-3.5c-4.3-6.1-2.7-14.6,3.4-18.8
				S5716.3,122.2,5720.5,128.3z"/>
			<path fill="#797A7D" d="M5718.2,131.5c2.4,3.9,1.1,9-2.8,11.3c-3.9,2.3-9,1.1-11.4-2.8c-2.4-3.9-1.1-9,2.8-11.3
				C5710.7,126.3,5715.8,127.6,5718.2,131.5z"/>
			
				<linearGradient id="SVGID_5_" gradientUnits="userSpaceOnUse" x1="-6664.2476" y1="1091.3517" x2="-6664.2476" y2="1143.4392" gradientTransform="matrix(-0.9907 0.1358 0.1358 0.9907 -1188.3311 42.5985)">
				<stop  offset="0" style="stop-color:#BEC0C2"/>
				<stop  offset="1" style="stop-color:#B1B3B6"/>
			</linearGradient>
			<path fill="url(#SVGID_5_)" d="M5631.4,28.2l-86.5,17.6c-29.9,5.5-55.9,23.7-71.4,49.8l0,0c-22,37.1-19.2,83.9,7.2,118.1
				l11.9,15.4c28.4,36.7,77.4,50.5,120.7,34l22.2-8.5"/>
			<path fill="#A1A3A6" d="M5619.3,233.9L5619.3,233.9c-32.6,14.1-70.5,5.1-93.4-22l-9.6-11.4c-23.1-27.3-25.6-66.9-5.2-97.1
				c11.6-17.2,29.6-29,49.8-33.6l49.2-11.3c8.4-1.9,16.5,4.2,17,12.8l8,137.2C5635.6,219.4,5629.3,229.6,5619.3,233.9z"/>
			<path fill="#797A7D" d="M5695.3,195.2c3-1.7,5.5-3.3,7.6-5.1c2.2-1.8,4-3.8,5.5-5.9c0.4-0.6,0.8-1.1,1.1-1.7
				c0.4-0.6,0.7-1.2,1-1.8c0.6-1.2,1.2-2.5,1.8-3.9c1.1-2.7,2.1-5.7,3.4-8.9l0-0.1c0-0.1,0.1-0.1,0.2-0.1c0.1,0,0.1,0.1,0.1,0.2
				l0,2.4l-0.1,2.4c-0.1,1.6-0.3,3.2-0.7,4.8c-0.3,1.6-0.8,3.1-1.4,4.6c-0.6,1.5-1.4,2.9-2.3,4.3c-1.9,2.7-4.3,4.9-7.2,6.4
				c-2.8,1.6-5.9,2.6-9.2,2.8c-0.1,0-0.2-0.1-0.2-0.2C5695.2,195.3,5695.2,195.3,5695.3,195.2L5695.3,195.2z"/>
			<g>
				<path fill="#797A7D" d="M5693.2,117.2c2.6-0.9,5-1.6,7.3-2.3c2.3-0.8,4.5-1.5,6.6-2.5c2-1,4-2,5.8-3.4c1.8-1.4,3.4-3.1,5.2-5.2
					l0,0c0.1-0.1,0.1-0.1,0.2,0c0,0,0.1,0.1,0,0.2c-0.7,2.5-2,4.8-3.7,6.7c-1.7,1.9-3.9,3.4-6.3,4.5c-2.4,1.1-4.9,1.7-7.4,2.1
					c-2.5,0.4-5.1,0.5-7.7,0.2c-0.1,0-0.1-0.1-0.1-0.2C5693.1,117.3,5693.1,117.3,5693.2,117.2L5693.2,117.2z"/>
			</g>
			<g>
				<path fill="#797A7D" d="M5787.2,97.2c2.4,1.2,4.6,2.4,6.8,3.6c2.2,1.1,4.3,2.1,6.4,2.9c2.1,0.8,4.2,1.4,6.5,1.7
					c2.3,0.3,4.6,0.2,7.4,0l0.1,0c0.1,0,0.1,0.1,0.2,0.1c0,0.1,0,0.1-0.1,0.1c-2.3,1.2-4.8,2-7.4,2.1c-2.6,0.1-5.2-0.4-7.6-1.3
					c-2.4-0.9-4.7-2.3-6.7-3.8c-2.1-1.5-4-3.3-5.6-5.3c0-0.1,0-0.2,0-0.2C5787,97.1,5787.1,97.1,5787.2,97.2L5787.2,97.2z"/>
			</g>
			<path fill="#797A7D" d="M5709.6,182.4c0,0,31.6,1.4,48.9-4.5l17.1,17.3C5775.6,195.2,5722.6,211.7,5709.6,182.4z"/>
			<path fill="#ED85A9" d="M5722.9,195.6c0,0,25.4-12.1,49-4.1l3.7,3.7C5775.6,195.2,5744.4,205.8,5722.9,195.6z"/>
			<path fill="#FFFFFF" d="M5795,137.7c5.7,0.4,22.2,1.1,32.6-5.6c1.1-0.7,2.3,0.5,1.8,1.7c-3.3,6.2-11.3,16.9-29.2,19.7
				c-0.6,0.1-1.2-0.2-1.4-0.8l-5.1-13.3C5793.4,138.6,5794.1,137.7,5795,137.7z"/>
			<path fill="#C9CACC" d="M5783.8,119.7c10,2.8,19.3,9.4,28.4,14.3c9.9,5.3,19.4,11.3,29.1,16.9c19.5,11.2,38.9,23,55,38.9
				c6.7,6.7,12.8,14,17.9,21.9c21.8,33.4,26.3,77.3,12.6,114.8s-45.3,67.8-83.1,80.6c-16.2,5.5-33.6,8-48.4,16.7
				c-1.4,0.8-3,1.3-4.6,1.3c-5.7-0.2-6.5-6.2-5.1-10.5c1.1-3.6,3.2-6.9,3.1-10.7c-0.1-4.8-3.9-8.7-6.3-12.9
				c-2.9-5-3.1-13.5,4.7-13.5c1.1,0,2.3,0.3,3.3,0.7c15.3,5.7,32.2,1,46.6-6.3c17.5-8.9,33.2-22.1,43.1-39s13.6-37.9,8.1-56.7
				c-7.4-25.2-29.8-43.2-53.2-55.1s-49-19.5-71.5-33c-10-6-19.8-13.8-23.9-24.7c-5-12.9-0.5-28.4,9.6-37.6c4.4-3.9,9.9-7.1,15.8-8.4
				C5771.8,115.9,5777.3,117.9,5783.8,119.7z"/>
			<path fill="#A9ABAE" d="M5767.6,154.9c3.4-5.3,11.6-15.6,26.2-22.5c1.1-0.5,0.7-2.1-0.5-2.1c-9.1,0.6-26.4,4.3-27.6,23.9
				C5765.6,155.3,5767,155.9,5767.6,154.9z"/>
			<path fill="#A9ABAE" d="M5784,160.4c3.4-5.3,11.5-15.5,26-22.4c1.1-0.5,0.7-2.1-0.5-2c-9,0.6-26.2,4.3-27.4,23.7
				C5782,160.8,5783.4,161.3,5784,160.4z"/>
			<path fill="#A9ABAE" d="M5799.2,168.4c3.4-5.3,11.5-15.5,26-22.4c1.1-0.5,0.7-2.1-0.5-2c-9,0.6-26.2,4.3-27.4,23.7
				C5797.2,168.8,5798.6,169.3,5799.2,168.4z"/>
			<path fill="#FFFFFF" d="M5723.7,153.4c5.7,0.4,22.3,1,32.8-5.8c1.1-0.7,2.4,0.5,1.8,1.7c-3.2,6.3-11.3,17.1-29.3,20
				c-0.6,0.1-1.2-0.2-1.4-0.8l-5.2-13.3C5722.1,154.3,5722.8,153.4,5723.7,153.4z"/>
		</g>
		<g>
			<path fill="#9CA1A5" d="M6154.1,452.9h-134.2v-89.6h205.3v18.5C6225.2,421.1,6193.4,452.9,6154.1,452.9z"/>
			<linearGradient id="SVGID_6_" gradientUnits="userSpaceOnUse" x1="5941.2783" y1="299.971" x2="6235.2529" y2="299.971">
				<stop  offset="0" style="stop-color:#C0C2C4"/>
				<stop  offset="1" style="stop-color:#BCBEC0"/>
			</linearGradient>
			<path fill="url(#SVGID_6_)" d="M5996,237.3c-3.3,0.6-11.5,15.2-13.8,18.5c-5.7,7.8-11.3,15.6-16.4,23.8
				c-13.1,20.8-28.9,47-23.3,73.2c4.9,23,21.9,38,45.3,39.7c57.8,4.2,117.2,0.5,175.3,0c0,0,74.7,1,72.2-57.6
				c-3.1-74.4-74.6-129.2-74.6-129.2S5996.1,237.2,5996,237.3z"/>
			<path fill="#F5C15D" d="M5965.7,279.9l75.8,114.2l60.1,0l20.8-26.7l97.4-88.8c0,0-23.7-53.3-63.6-73.2l-160.3,32L5965.7,279.9z"
				/>
			<g>
				<path fill="#AAAFB4" d="M6008.4,369.1L6008.4,369.1c-28,0-50.7,22.7-50.7,50.7V462h-2.1c-5.4,0-9.9,4.4-9.9,9.9
					c0,5.4,4.4,9.9,9.9,9.9h92.5c6,0,10.9-4.9,10.9-10.9v-1.2V462v-42.2C6059,391.8,6036.3,369.1,6008.4,369.1z"/>
				<path fill="#AAAFB4" d="M6128.6,370.3L6128.6,370.3c-28,0-50.7,22.7-50.7,50.7V462h-2.1c-5.4,0-9.9,4.4-9.9,9.9
					c0,5.4,4.4,9.9,9.9,9.9h92.5c6,0,10.9-4.9,10.9-10.9v-0.1V462v-41.1C6179.3,392.9,6156.6,370.3,6128.6,370.3z"/>
			</g>
			<linearGradient id="SVGID_7_" gradientUnits="userSpaceOnUse" x1="5968.7729" y1="379.4047" x2="6043.1675" y2="379.4047">
				<stop  offset="0" style="stop-color:#C0C2C4"/>
				<stop  offset="1" style="stop-color:#BCBEC0"/>
			</linearGradient>
			<path fill="url(#SVGID_7_)" d="M6032,365.9c-8.9-2.8-18-5.5-27.4-5.6c-9.1-0.1-18.7,3.3-27.1,6.7c-5,2-8.8,4.8-8.8,10.6v9.6
				c0,6.2,5.1,11.3,11.3,11.3h51.8c6.2,0,11.3-5.1,11.3-11.3v-9.6c0-6.7-5.1-9.8-10.8-11.7C6032.3,366,6032.1,365.9,6032,365.9z"/>
			<linearGradient id="SVGID_8_" gradientUnits="userSpaceOnUse" x1="6096.5527" y1="379.4047" x2="6170.9468" y2="379.4047">
				<stop  offset="0" style="stop-color:#C0C2C4"/>
				<stop  offset="1" style="stop-color:#BCBEC0"/>
			</linearGradient>
			<path fill="url(#SVGID_8_)" d="M6159.8,365.9c-8.9-2.8-18-5.5-27.4-5.6c-9.1-0.1-18.7,3.3-27.1,6.7c-5,2-8.8,4.8-8.8,10.6v9.6
				c0,6.2,5.1,11.3,11.3,11.3h51.8c6.2,0,11.3-5.1,11.3-11.3v-9.6c0-6.7-5.1-9.8-10.8-11.7C6160,366,6159.9,365.9,6159.8,365.9z"/>
			<ellipse fill="#2F8F6D" cx="6078.8" cy="274.3" rx="81.7" ry="55.3"/>
			<ellipse fill="#9A9FA3" cx="6078.8" cy="271" rx="66.8" ry="43.5"/>
			<path fill="none" d="M6139.7,124.8c3.2,3.2,6.9,6.1,10.2,9C6146.9,130.7,6143.4,127.6,6139.7,124.8z"/>
			<polygon fill="#91929D" points="6149.9,133.8 6149.9,133.8 6149.9,133.8 			"/>
			
				<linearGradient id="SVGID_9_" gradientUnits="userSpaceOnUse" x1="5641.3179" y1="-96.1389" x2="5701.4658" y2="-12.5185" gradientTransform="matrix(0.9768 0.2144 -0.2144 0.9768 560.722 -875.4032)">
				<stop  offset="0" style="stop-color:#C0C2C4"/>
				<stop  offset="1" style="stop-color:#B1B3B6"/>
			</linearGradient>
			<path fill="url(#SVGID_9_)" d="M6197,214c0.5-4,0.7-8.1,0.7-12.1c-0.2-15.9-4.1-32.5-11.3-46.6c-0.9-1.7-1.9-3.4-2.9-5.1v0
				c-2.5-4-5.3-8-7.7-12.2c-2-2.7-4.1-5.3-6.3-7.8l5.5-20.5c1.9-7.2,2.1-14.8,0.4-22.1l-6.9-30.1c0.3-6.2-3-12.1-8.5-14.9
				c-7.7-4-17.2-1.1-21.2,6.5c-7.9,14.9-3.6,29.8,0.5,38.7c2.4,5.3,3.5,11.1,3,16.9c-7-5.5-12-8.9-12-8.9
				c-14.1-6.2-24.8-7.6-24.8-7.6c-12.8-3.1-26.3-3.7-40-1.2c-20.2,3.8-39.5,14-54.5,27.9c-17.6,16.2-37.6,31.1-59.6,40.6
				c-2.3,1-4.5,2.3-6.6,3.8c-10.5-3-20.7,5.6-23.9,16.1c-1.4,4.6-1,8.4,0.6,11.7c2,4.4,3.1,9.1,2.8,13.9
				c-0.6,10.5,1.6,21.1,6.1,30.5c10.8,22.2,35.4,40.6,58,49.5c15.1,6,31.1,9.6,47.1,12.1c15.3,2.4,30.7,3.6,46.1,4.2
				C6193.9,301.6,6197,214,6197,214z"/>
			<g>
				<path fill="#797A7D" d="M5953,177c1.4,1.1,2.3,2.7,2.9,4.4c0.6,1.7,0.7,3.6,0.5,5.4c-0.1,1.8-0.6,3.7-1.5,5.2
					c-0.5,0.8-1,1.5-1.7,2.1c-0.7,0.6-1.3,1.2-2.1,1.7c-0.1,0-0.1,0-0.2,0c0,0,0-0.1,0-0.1l0,0c0.2-0.9,0.5-1.7,0.8-2.5
					c0.3-0.8,0.6-1.6,0.9-2.3c0.1-0.4,0.3-0.8,0.4-1.1c0.2-0.4,0.4-0.7,0.5-1.1l0.5-1.1l0.3-1.1c0.4-1.5,0.5-3.2,0.2-4.8
					c-0.2-1.6-0.9-3.2-1.9-4.5l0,0c0-0.1,0-0.1,0-0.2C5952.9,177,5952.9,177,5953,177z"/>
			</g>
			<path fill="#808285" d="M5928.9,187.2c0.2-0.8,0.8-1.5,2.3-2.1c2.4-1,8.4-1,7.8,3.8c-0.5,3.5-2.2,4.4-4.5,3.7
				C5932.3,192.1,5928.4,189.5,5928.9,187.2z"/>
			<circle fill="#9A9FA3" cx="6006.6" cy="168.9" r="13"/>
			<circle fill="#FFFFFF" cx="6006.6" cy="168.9" r="8.2"/>
			<circle fill="#808285" cx="6007.3" cy="165.7" r="5.6"/>
			<path fill="#9CA1A5" d="M6023.1,160.9c-22.9,8.3-27.8-9.2-27.8-9.2"/>
			<path fill="#939598" d="M5950,154.9c-1.1,0.7-2.2,1.5-3.2,2.4c-1,0.8-2,1.7-2.9,2.6c-0.2,0.2-0.4,0.2-0.7,0.2l-0.2,0
				c-1.8-0.2-3.6-0.2-5.4,0.2c-1.7,0.4-3.4,1-4.9,1.9c-3.1,1.7-5.6,4.4-7.5,7.3c-2,2.9-3.2,6.4-3.8,9.7c-0.3,1.7-0.3,3.3,0,4.9
				c0.2,0.8,0.4,1.5,0.7,2.3c0.1,0.4,0.3,0.7,0.5,1.1l0.6,1.3c1.8,3.8,3,8,3.1,12.2c0,0.5,0,1.1,0,1.6l0,1.5c0,0.9,0,1.9,0,2.8
				c0,1.9,0.1,3.8,0.3,5.6c0.7,7.5,2.5,15,5.3,22.3l0,0c0,0.1,0,0.2-0.1,0.2c-0.1,0-0.2,0-0.2-0.1c-3.8-6.9-6.2-14.4-7.4-22.1
				c-0.3-1.9-0.5-3.9-0.6-5.8c-0.1-2,0-3.9-0.2-5.8c-0.3-3.9-1.4-7.6-3.1-11.1c-0.9-1.7-1.8-3.6-2.1-5.5c-0.3-2-0.3-4,0-5.9
				c0.7-3.9,2.3-7.6,4.5-10.8c0.5-0.8,1.2-1.6,1.8-2.3c0.3-0.4,0.7-0.7,1-1.1c0.3-0.4,0.7-0.7,1.1-1c1.4-1.3,3.1-2.4,4.9-3.3
				c1.8-0.9,3.7-1.4,5.6-1.7c2-0.3,3.9-0.1,5.9,0.3l-0.2,0c2.1-1.6,4.3-3.1,6.7-4.3c0.1,0,0.2,0,0.2,0.1
				C5950.1,154.8,5950.1,154.9,5950,154.9L5950,154.9z"/>
			<path fill="#FFFFFF" d="M5981.1,140.1l-48.7-85.7c-1.6-3-6.4-2.4-6.8,0.8c-2.5,19.7,3.2,73.5,18.7,105.7
				C5944.3,160.9,5956.4,154.5,5981.1,140.1z"/>
			<rect x="6062.1" y="320.5" fill="#2F8F6D" width="20.4" height="73.9"/>
			<g>
				<path fill="#797A7D" d="M5924.4,212.9c4-0.6,7.8-0.6,11.7-0.5c1.9,0,3.9,0.2,5.8,0.3c1.9,0.2,3.8,0.4,5.7,0.6
					c1.9,0.3,3.8,0.6,5.7,0.9c1.9,0.4,3.8,0.7,5.7,1.2c3.8,0.9,7.5,1.9,11.2,3.5l0,0.3l-22.9-2.8l-22.9-3.1L5924.4,212.9z"/>
			</g>
			<g>
				<g>
					<path fill="#797A7D" d="M6035.6,167.8c0.8,5.1,1,10.2,0.7,15.3c-0.1,1.5,2.8,1,2.9-0.2c0.3-5.3,0.1-10.6-0.7-15.8
						C6038.3,165.7,6035.4,166.4,6035.6,167.8L6035.6,167.8z"/>
				</g>
			</g>
			<g>
				<g>
					<path fill="#797A7D" d="M6044.1,162.4c0.1,8.3,0.4,16.5,1.1,24.8c0.1,1.3,3,0.6,2.9-0.8c-0.6-8.1-0.9-16.1-1-24.2
						C6047,160.6,6044.1,161.1,6044.1,162.4L6044.1,162.4z"/>
				</g>
			</g>
			<g>
				<g>
					<path fill="#797A7D" d="M6053.1,161.3c0.5,11.1,1,22.1,1.3,33.2c0,0.8,2.9,0.2,2.9-0.8c-0.3-11.1-0.8-22.1-1.3-33.2
						C6056,159.7,6053.1,160.3,6053.1,161.3L6053.1,161.3z"/>
				</g>
			</g>
		</g>
	</g>
	<g>
		<path fill="#F58258" d="M497.3,466.1c0,0-39-67.4-43.3-76.8l-236.7,35.3c0,0-15.6,7.9-29.1,43.8c-6.7,9.7-14.9,23.9-24.2,44.7
			c-8.4,18.8-4.2,60.5,11,74.3c5.4,4.9,12.4,9,21.4,11c0,0,24.9,1.9,59.1,3.2l24.5,1.3h-0.2c60.1,1.6,135.3-7.7,162.7-21.4
			l-4.6-71.3L497.3,466.1z"/>
		<path fill="#F58258" d="M427.6,487.4c0,0,18.3,52.9,14.8,94.1l-13.1-36.3L427.6,487.4z"/>
		<path fill="#D65B51" d="M388.9,440l-18.2,36.2c-3.1,7-12.1,9-17.8,3.9l-15.6-13.9l-14,20.8c-3.3,4.9-9.9,6.4-15,3.4l-41.3-24
			L388.9,440z"/>
		<g>
			<circle fill="#D65B51" cx="349" cy="517.9" r="29.1"/>
			<polygon fill="#EBE5C9" points="339.8,508.5 341.4,496 364.8,515.7 345.9,540 350.2,522.1 			"/>
		</g>
		<path fill="#A3A5A8" d="M447.1,394.2l49.3,71l15.5-13.5c8.3-7.2,11.6-18.6,8.4-29l-1.4-4.8c-0.9-3-2.3-5.7-4.1-8.2l-14.6-20
			c-3.1-4.3-7.4-7.5-12.4-9.4v0c-8.8-3.4-18.8-2-26.5,3.6L447.1,394.2z"/>
		<path fill="#ABADB0" d="M329.6,249.8l78.5-7.1c26.8-2.4,53.4,6.9,72.9,25.5l0,0c27.7,26.4,36.4,67.1,22,102.5l-6.5,16
			c-15.5,38.1-54,61.6-94.9,57.8l-21-1.9"/>
		<path fill="#939598" d="M392.9,421.5L392.9,421.5c31.3,2.9,60.8-15.1,72.7-44.3l5-12.3c11.9-29.4,3.1-63.4-22.4-83.3
			c-14.5-11.3-32.9-16.3-51.2-14.6l-44.5,4c-7.6,0.7-12.8,8.1-10.8,15.4l31.1,117.8C375.2,413.8,383.2,420.6,392.9,421.5z"/>
		
			<linearGradient id="SVGID_10_" gradientUnits="userSpaceOnUse" x1="-1415.6851" y1="599.3758" x2="-1475.9749" y2="762.4321" gradientTransform="matrix(-0.9829 0.184 0.184 0.9829 -1202.9966 12.2401)">
			<stop  offset="0" style="stop-color:#BCBEC0"/>
			<stop  offset="1" style="stop-color:#A3A5A8"/>
		</linearGradient>
		<path fill="url(#SVGID_10_)" d="M225.9,454.3c51.1,24.4,107.1,24.8,157.5-2c24.3-12.9,44.7-34,44.2-63c-0.1-8.3-2-16.2-4.6-24.1
			c-6.9-21-4.2-42.8-10.1-63.8c-4.3-15.5-13.7-29-25.5-39.7c-23.2-20.9-53.5-27.5-87.5-28.8c-25-1-62,9.2-80.6,27.4"/>
		<path fill="#A1A3A6" d="M393.4,332.3c3.7,5.4,2.4,12.7-3,16.3c-5.3,3.7-12.7,2.3-16.4-3c-3.7-5.4-2.4-12.7,3-16.3
			C382.4,325.5,389.7,326.9,393.4,332.3z"/>
		<path fill="#67686B" d="M389.1,334.5c2,3.4,1,7.8-2.4,9.8c-3.4,2-7.8,0.9-9.8-2.4s-1-7.8,2.4-9.8
			C382.7,330,387.1,331.1,389.1,334.5z"/>
		<path fill="#A1A3A6" d="M310.3,346.7c3.8,5.5,2.4,12.9-3,16.6c-5.4,3.7-12.9,2.3-16.7-3.1c-3.8-5.5-2.4-12.9,3-16.6
			C299.1,339.8,306.5,341.2,310.3,346.7z"/>
		<path fill="#67686B" d="M308.2,349.5c2.1,3.5,1,8-2.4,10s-8,1-10.1-2.5s-1-8,2.4-10C301.6,344.9,306.1,346,308.2,349.5z"/>
		
			<linearGradient id="SVGID_11_" gradientUnits="userSpaceOnUse" x1="-1293.6775" y1="565.0729" x2="-1293.6775" y2="611.2456" gradientTransform="matrix(-0.9907 0.1358 0.1358 0.9907 -1188.3311 42.5985)">
			<stop  offset="0" style="stop-color:#BEC0C2"/>
			<stop  offset="1" style="stop-color:#B1B3B6"/>
		</linearGradient>
		<path fill="url(#SVGID_11_)" d="M231.3,257.9l-76.7,15.6c-26.5,4.9-49.6,21-63.3,44.1l0,0c-19.5,32.9-17,74.4,6.4,104.7l10.6,13.7
			c25.1,32.5,68.6,44.8,107,30.1l19.7-7.5"/>
		<path fill="#A1A3A6" d="M220.5,440.2L220.5,440.2c-28.9,12.5-62.5,4.6-82.8-19.5l-8.5-10.1c-20.5-24.2-22.7-59.3-4.6-86.1
			c10.3-15.2,26.2-25.7,44.1-29.8l43.6-10c7.4-1.7,14.6,3.7,15.1,11.3l7.1,121.6C235,427.4,229.4,436.4,220.5,440.2z"/>
		<path fill="#797A7D" d="M294.2,409.2c1.5-2.2,2.7-4.2,3.5-6.1c0.8-2,1.3-3.9,1.5-5.8c0-0.5,0.1-1,0.1-1.5c0-0.5,0-1,0-1.5
			c-0.1-1-0.2-2.1-0.4-3.1c-0.4-2.1-1-4.4-1.4-6.9l0-0.1c0-0.1,0-0.1,0.1-0.2c0.1,0,0.1,0,0.2,0.1l1.1,1.5l1,1.5
			c0.6,1.1,1.2,2.1,1.6,3.3c0.5,1.1,0.8,2.3,1,3.4c0.2,1.2,0.3,2.4,0.2,3.6c-0.2,2.4-1.1,4.7-2.5,6.8c-1.4,2.1-3.4,3.9-5.7,5.2
			c-0.1,0-0.2,0-0.2,0C294.1,409.3,294.1,409.3,294.2,409.2L294.2,409.2z"/>
		<g>
			<path fill="#797A7D" d="M308.6,328.8c-2.2,1.2-4.2,2.1-6.1,3.1c-1.9,1-3.7,1.9-5.4,2.9c-1.7,1.1-3.2,2.2-4.6,3.5
				c-1.4,1.4-2.7,3-4.2,5l0,0.1c0,0.1-0.1,0.1-0.2,0c0,0-0.1-0.1-0.1-0.1c0.4-2.3,1.2-4.5,2.5-6.4c1.3-1.9,3.1-3.5,5-4.7
				c2-1.2,4.1-2.1,6.3-2.7c2.2-0.6,4.5-1,6.8-1.1c0.1,0,0.1,0.1,0.1,0.1C308.8,328.7,308.7,328.8,308.6,328.8L308.6,328.8z"/>
		</g>
		<g>
			<path fill="#797A7D" d="M393.4,326c-2.3-0.9-4.3-1.8-6.3-2.7c-2-0.9-3.8-1.6-5.7-2.3c-1.9-0.6-3.7-1.1-5.7-1.3
				c-2-0.2-4.1-0.2-6.5,0l-0.1,0c-0.1,0-0.1-0.1-0.2-0.1c0-0.1,0-0.1,0.1-0.1c2-1.2,4.2-2,6.5-2.1c2.3-0.2,4.6,0.1,6.8,0.8
				c2.2,0.8,4.2,1.8,6.1,3.1c1.9,1.3,3.6,2.8,5.1,4.5c0.1,0.1,0,0.1,0,0.2C393.5,326.1,393.5,326.1,393.4,326L393.4,326z"/>
		</g>
		<g>
			<path fill="#CE5C45" d="M238,462.9c-1,1.8-1.9,3.5-2.9,5.1c-0.1,0.2-0.3,0.3-0.5,0.4c-0.2,0.1-0.4,0.3-0.5,0.4l-1,0.8
				c-0.7,0.5-1.4,1.1-2,1.7c-2.7,2.3-5.3,4.7-7.8,7.3c-2.5,2.6-4.9,5.2-7.1,7.9c-1.2,1.3-2.2,2.8-3.3,4.2c-1.7,0.9-3.3,2-5.2,2.8
				c0.3-2,0.7-4,1.2-5.9c1.1-1.4,2.2-2.9,3.5-4.3c2.3-2.9,4.8-5.6,7.4-8.2c2.6-2.6,5.3-5.2,8.1-7.6c1.4-1.2,2.9-2.4,4.3-3.5
				c1-0.3,1.9-0.5,2.9-0.7C236,463.1,237,462.9,238,462.9z"/>
		</g>
		
			<linearGradient id="SVGID_12_" gradientUnits="userSpaceOnUse" x1="982.484" y1="-2929.1072" x2="1064.5906" y2="-2929.1072" gradientTransform="matrix(0.6522 0.8261 0.7849 -0.6197 1914.8408 -2180.4656)">
			<stop  offset="0" style="stop-color:#BEC0C2"/>
			<stop  offset="1" style="stop-color:#B1B3B6"/>
		</linearGradient>
		<path fill="url(#SVGID_12_)" d="M239.6,459.7l51.9,69.1l15-14.1c8-7.5,10.9-19,7.3-29.3l-1.6-4.7c-1-2.9-2.5-5.6-4.4-8.1
			l-15.4-19.5c-3.3-4.1-7.7-7.3-12.7-9h0c-8.9-3-18.9-1.3-26.3,4.6L239.6,459.7z"/>
		<path fill="#797A7D" d="M301.3,397.7c0,0,16.1-12.7,33.9-2.3l4.5,4.7h-38.4V397.7z"/>
		<path fill="#FFFFFF" d="M376.3,355c5,0.4,19.6,0.9,28.9-4.9c0.9-0.6,2.1,0.5,1.6,1.5c-2.9,5.5-10,15-25.9,17.4
			c-0.5,0.1-1-0.2-1.2-0.7l-4.5-11.8C374.9,355.7,375.5,354.9,376.3,355z"/>
		
			<linearGradient id="SVGID_13_" gradientUnits="userSpaceOnUse" x1="-970.0014" y1="778.5251" x2="-1190.783" y2="778.5251" gradientTransform="matrix(1.635437e-002 -0.9999 0.9999 1.635437e-002 -370.8809 -619.066)">
			<stop  offset="0" style="stop-color:#C7C8CA"/>
			<stop  offset="1" style="stop-color:#B1B3B6"/>
		</linearGradient>
		<path fill="url(#SVGID_13_)" d="M363.8,339.1c4.4,2.3,8.2,5.5,11.5,9.3c2.7,3.1,7.3,5.2,10.3,8c28.2,26.5,60,48.8,74.6,86.4
			c12.8,33,8.7,71.9-10.1,101.8c-18.8,30-51.7,50.5-86.8,54.7c-15.1,1.8-30.6,0.8-45,5.7c-1.4,0.5-2.8,0.6-4.3,0.3
			c-4.9-1.2-4.5-6.6-2.5-10.1c1.6-2.9,4.1-5.4,4.7-8.7c0.8-4.2-1.8-8.2-3.1-12.3c-1.6-4.9-0.2-12.3,6.6-10.9c1,0.2,1.9,0.6,2.8,1.2
			c12.2,7.7,27.8,6.8,41.6,3.1c16.8-4.5,32.8-13.1,44.5-26s18.7-30.4,17.4-47.7c-1.9-23.2-18-42.9-36.1-57.5
			c-18.1-14.6-38.9-25.8-55.9-41.7c-7.6-7.1-14.6-15.5-16.3-25.8c-1.9-12.1,4.7-24.8,15.2-30.8c4.5-2.6,9.9-4.4,15.2-4.4
			C354.1,333.6,358.5,336.4,363.8,339.1z"/>
		<path fill="#A9ABAE" d="M352.1,370.2c3.1-4.7,10.3-13.8,23.2-20c1-0.5,0.6-1.9-0.5-1.8c-8,0.5-23.4,3.8-24.5,21.2
			C350.2,370.6,351.5,371.1,352.1,370.2z"/>
		<path fill="#A9ABAE" d="M364.6,381.6c3-4.7,10.2-13.7,23-19.8c1-0.5,0.6-1.9-0.5-1.8c-8,0.5-23.3,3.8-24.3,21
			C362.8,382,364.1,382.4,364.6,381.6z"/>
		<path fill="#A9ABAE" d="M376.8,393.5c3-4.7,10.2-13.7,23-19.8c1-0.5,0.6-1.9-0.5-1.8c-8,0.5-23.3,3.8-24.3,21
			C375,393.8,376.3,394.3,376.8,393.5z"/>
		<path fill="#FFFFFF" d="M313.1,368.9c5.1,0.4,19.8,0.8,29.1-5.1c1-0.6,2.1,0.5,1.6,1.5c-2.9,5.6-10,15.1-26,17.7
			c-0.5,0.1-1-0.2-1.2-0.7l-4.6-11.8C311.7,369.7,312.3,368.9,313.1,368.9z"/>
		<path fill="#E38A81" d="M966.8,743.4l-24.2-10.9c-6.8-3.1-5.2-10.9,2.6-12.2l18-3c7.8-1.3,9.5-9.1,2.7-12.2l-35.5-16.2
			c-5.9-2.7-5.6-9.3,0.6-11.6l21.2-8c6.3-2.4,6.5-9.1,0.3-11.8l-28-11.8c-5.9-2.5-6-8.9-0.3-11.5l23.1-10.6
			c5.7-2.6,5.7-8.9-0.2-11.5l-22.3-9.7c-5.3-2.3-5.9-7.9-1.2-10.9l42.2-26.5c6.3-4,2.6-11.8-5.7-11.8h-50.5h-4.7h-839H52.4H43
			c-8.4,0-12.1,8-5.5,11.9l6.6,3.9c5.6,3.4,3.9,10.1-3,11.6l-4.5,1c-6.9,1.5-8.7,8.3-3,11.6c5.7,3.4,3.8,10.3-3.2,11.7l-23.9,4.8
			c-7.5,1.5-9,9.1-2.3,12.1l24.2,10.9c6.8,3.1,5.2,10.9-2.6,12.2l-18,3c-7.8,1.3-9.5,9.1-2.7,12.2l35.5,16.2
			c5.9,2.7,5.6,9.3-0.6,11.6l-21.2,8c-6.3,2.4-6.5,9.1-0.3,11.8l28,11.8c5.9,2.5,6,8.9,0.3,11.5l-23.1,10.6
			c-5.7,2.6-5.7,8.9,0.2,11.5l22.3,9.7c5.3,2.3,5.9,7.9,1.2,10.9L5.1,800.2c-6.3,4-2.6,11.8,5.7,11.8h41.6h13.7h839h4.7h18.3
			c8.4,0,12.1-8,5.5-11.9l-6.6-3.9c-5.6-3.4-3.9-10.1,3-11.6l4.5-1c6.9-1.5,8.7-8.3,3-11.6c-5.7-3.4-3.8-10.3,3.2-11.7l23.9-4.8
			C972.1,754,973.5,746.4,966.8,743.4z"/>
		<path fill="#D97F7A" d="M40.6,647c71-0.6,142-0.9,213-1.1c70.8-0.2,141.6-0.1,212.3,0.1c40,0.1-2.6,0.4,37.4,0.6
			c8.9,0.1,4.1-7.6-2.4-7.7c-71.2-0.5-59.8-0.8-131-0.9c-71.3-0.1-142.6,0.1-213.9,0.4c-40.3,0.2-80.6,0.5-120.9,0.8
			c-3.2,0-4.2,2.4-3,4.3C33.6,645.9,37.4,647,40.6,647L40.6,647z"/>
		<path fill="#D97F7A" d="M317.3,685.8c111,5.1,222.3,7.3,333.5,6.4c31.3-0.2,235.3-0.7,266.6-1.5c8.4-0.2,6.6-10.1-1-9.9
			c-111.2,2.6-395.3,2.1-506.4-1.3c-31.2-1-62.5-2.2-93.7-3.6C308,675.5,309.8,685.4,317.3,685.8L317.3,685.8z"/>
		<path fill="#D97F7A" d="M481.4,718.6c72.5-1.4,317.9-1.7,390.5-0.7c20.4,0.3,40.8,0.7,61.2,1.1c8.4,0.2,8.8-9.1,0.1-9.3
			c-72.5-1.7-317.9-2.2-390.5-1.4c-20.4,0.2-40.8,0.5-61.2,0.9C473.1,709.5,472.6,718.7,481.4,718.6L481.4,718.6z"/>
		<path fill="#D97F7A" d="M159,737.6c97.3,3.2,194.5,6.3,291.8,9.5c27.6,0.9,55.2,1.8,82.8,2.7c3.3,0.1,7.1-1.2,7.7-3.9
			c0.6-2.5-2.5-4.6-5.7-4.7c-97.3-3.2-194.5-6.3-291.8-9.5c-27.6-0.9-55.2-1.8-82.8-2.7c-3.3-0.1-7.1,1.2-7.7,3.9
			C152.7,735.4,155.8,737.5,159,737.6L159,737.6z"/>
		<path fill="#D97F7A" d="M295.3,605.7c72.9-1.6,145.9-2.2,218.8-2c36.6,0.1,73.2,0.5,109.8,1.1c35.8,0.6,71.7,1.6,107.6,1.8
			c40.5,0.2,81.1-0.8,121.3-4.8c2.2-0.2,8.9-1.4,9.4-3.5c0.5-2.3-5-1.6-6.5-1.4c-70.9,7-142.7,4-214,2.8
			c-72.3-1.2-144.5-1.5-216.8-1c-40.9,0.3-81.8,0.9-122.7,1.8c-3.2,0.1-8.7,0.9-10.7,3C289.2,605.5,293.3,605.7,295.3,605.7
			L295.3,605.7z"/>
		<path fill="#B1B3B6" d="M597.6,440.8c-0.1,0.1-0.3,0.2-0.4,0.3c-2.3,1.3-22.5,13.1-35.1,24.8c-6,5.5-14.9,6.1-21.7,1.6
			c-0.3-0.2-0.5-0.4-0.8-0.6l-21.6-19.5c-10.1-9.1-25.7-8.7-35.3,1l-17.6,17.8c-8.3,8.3-9.8,21.3-3.6,31.3
			c15.1,24.4,50.5,64.5,120.7,64.5h121.3c0,0-12.4,24.8-10.8,43.7c1.5,17.4,21.7,15.7,24.7,15.3c0.3,0,0.5,0,0.8,0h18.5
			c0.7,0,1.4-0.1,2-0.3c1.9-0.6,6.2-2.2,12.5-6.3c8.6-5.6,81.4-26.6,89-69s-26.6-121.3-82.2-149
			C703.8,369.2,602.8,437.3,597.6,440.8z"/>
		<path fill="#F5C15D" d="M567.9,460.9l67.3,101h68.3l20.6-19l100.8-73.5c0,0-28.6-64.4-76.3-78.5l-135,30.4L567.9,460.9z"/>
		<g>
			<path fill="#797A7D" d="M527.9,467.8c-1,2.9-2.6,5.7-4.5,8.1c-0.9,1.3-2,2.4-3,3.6c-0.5,0.6-1.1,1.1-1.7,1.6
				c-0.6,0.5-1.2,1-1.8,1.5c-0.6,0.5-1.2,1-1.9,1.4c-0.6,0.4-1.2,0.9-1.9,1.3c-1.3,0.8-2.7,1.6-4.1,2.2c-2.8,1.4-5.8,2.3-8.8,2.8
				c2.7-1.5,5.4-2.9,7.9-4.5c2.5-1.6,5-3.3,7.3-5.2c2.3-1.8,4.5-3.9,6.6-6C524,472.5,526,470.3,527.9,467.8z"/>
		</g>
		<path fill="#2F8F6D" d="M603.9,462.3c0,0,8.6,23.6,47.3,35c38,11.2,111.3,9.9,154.6-60.5l-10.2-13L603.9,462.3z"/>
		<path fill="#9CA1A5" d="M763.6,385.6l32.1,38.3c0,0-76.6,107.6-191.8,29.5L763.6,385.6z"/>
		
			<linearGradient id="SVGID_14_" gradientUnits="userSpaceOnUse" x1="913.3428" y1="-9.1767" x2="970.2905" y2="69.9944" gradientTransform="matrix(0.9918 -0.1276 0.1276 0.9918 -210.2541 532.499)">
			<stop  offset="0" style="stop-color:#C0C2C4"/>
			<stop  offset="1" style="stop-color:#B1B3B6"/>
		</linearGradient>
		<path fill="url(#SVGID_14_)" d="M780.1,349.9c-0.8-3.7-1.9-7.4-3.2-11c-5.2-14.1-14-27.6-25-37.9c-1.3-1.2-2.7-2.4-4.2-3.6l0,0
			c-3.5-2.7-7.3-5.5-10.7-8.5c-2.6-1.7-5.3-3.4-8.1-4.9l-1.7-20c-0.6-7.1-2.9-13.9-6.7-19.8l-15.7-24.6c-1.7-5.6-6.5-9.8-12.3-10.6
			c-8.1-1.1-15.7,4.5-16.9,12.6c-2.3,15.8,6.3,27.8,12.8,34.4c3.9,3.9,6.7,8.8,8.1,14.1c-8-2.7-13.5-4.1-13.5-4.1
			c-14.6-1-24.5,1.2-24.5,1.2c-12.4,1.3-24.6,5.1-36,11.7c-16.8,9.8-30.7,25.1-39.7,42.3c-10.5,20.1-23.6,39.7-40.2,55.3
			c-1.7,1.6-3.3,3.5-4.7,5.5c-10.3,0.6-16.7,11.6-16.2,21.9c0.2,4.5,1.8,7.8,4.2,10.2c3.2,3.3,5.7,7.1,7,11.5
			c2.8,9.5,8.1,18.3,15.2,25.3c16.7,16.4,44.5,24.9,67.5,25.6c15.4,0.5,30.8-1.4,45.8-4.3c14.3-2.8,28.5-6.5,42.4-10.9
			C805.4,429,780.1,349.9,780.1,349.9z"/>
		<g>
			<path fill="#797A7D" d="M550.5,395.1c1.6,0.6,2.9,1.6,4,3c1.1,1.3,1.8,3,2.2,4.7c0.5,1.7,0.7,3.5,0.3,5.2
				c-0.2,0.8-0.5,1.7-0.8,2.4c-0.4,0.8-0.8,1.5-1.4,2.2c0,0.1-0.1,0.1-0.2,0c0,0,0-0.1,0-0.1l0,0c-0.1-0.9-0.1-1.7-0.1-2.5
				c0-0.8,0-1.6,0-2.3c0-0.4,0-0.8,0-1.1c0-0.4,0.1-0.8,0.1-1.1l0.1-1.1l-0.1-1.1c-0.2-1.5-0.6-3-1.3-4.3c-0.7-1.3-1.8-2.6-3.1-3.4
				l0,0c-0.1,0-0.1-0.1,0-0.2C550.4,395.1,550.4,395.1,550.5,395.1z"/>
		</g>
		<circle fill="#9A9FA3" cx="595.7" cy="370.8" r="12.3"/>
		<circle fill="#6B6C6F" cx="595.7" cy="370.8" r="7.8"/>
		<path fill="#FFFFFF" d="M563.5,352.8l-72-61.9c-2.3-2.2-6.5-0.1-5.8,2.9c4,18.3,28.4,65.2,52.5,89
			C538.1,382.7,546,373.5,563.5,352.8z"/>
		<path fill="none" d="M737.2,289.8c3.4,3,7.3,5.7,10.7,8.5C744.8,295.2,741.1,292.4,737.2,289.8z"/>
		<polygon fill="#91929D" points="748,298.2 748,298.2 748,298.2 		"/>
		<path fill="#797A7D" d="M534,430.1c0,0,29.8-8.6,45.5-20.3c1.3-1,3.1,0.2,2.6,1.8c-2.5,9.1-10.8,28.6-36.2,37.2
			C546,448.7,535.9,440.3,534,430.1z"/>
		<rect x="662.2" y="496.2" fill="#2F8F6D" width="24.6" height="65.7"/>
		<path fill="#808285" d="M532.2,411.9c-0.1-0.7,0.3-1.6,1.4-2.6c1.8-1.7,7.2-3.5,8.1,0.9c0.7,3.2-0.5,4.6-2.8,4.8
			C536.8,415.1,532.5,414,532.2,411.9z"/>
	</g>
	<g>
		<g>
			<g>
				<linearGradient id="SVGID_15_" gradientUnits="userSpaceOnUse" x1="1695.1108" y1="409.4652" x2="1800.2297" y2="409.4652">
					<stop  offset="0" style="stop-color:#BEC0C2"/>
					<stop  offset="1" style="stop-color:#B1B3B6"/>
				</linearGradient>
				<path fill="url(#SVGID_15_)" d="M1792.9,381.6c0,0-37.8,48.7-97.7,43.7v11.8c0,0,69.9,4.5,105.1-38.3L1792.9,381.6z"/>
			</g>
			<path fill="#B1B3B6" d="M2038.7,355.4c3.3-0.1,3.8,20.7,3.7,23.1c-1,29.1-16.6,50.8-27.8,75.8c-2.7,6-8.1,10-14.2,10.4l-50.8,3.4
				c-10.1,0.7-18.7-8.5-18.5-19.7l0.2-14.3c0-2-2.5-2.3-2.9-0.4l-3.2,17.2c-2.1,11.3-10.8,19.6-21.3,20.3l-66.1,4.4
				c-9.3,0.6-18.1-4.9-22.5-14.1c-8.3-17.5-20.5-46.8-21-68.2l91.9-25.8C1886.2,367.4,2037.3,355.5,2038.7,355.4z"/>
			<path fill="#E4E5E6" d="M2003,459.7c-5-3.8-15.3-8.7-27.7,1.7c-1.3,1.1-0.5,3.4,1.2,3.3l25.7-1.7
				C2003.7,462.9,2004.3,460.7,2003,459.7z"/>
			<path fill="#E4E5E6" d="M1975.9,461.5c-5.1-3.8-15.5-8.7-28,1.8c-1.3,1.1-0.5,3.4,1.2,3.3l26-1.7
				C1976.6,464.7,1977.2,462.5,1975.9,461.5z"/>
			<path fill="#E4E5E6" d="M1904.8,466.3c-6.1-3.7-18.7-8.4-34.2,2.2c-1.6,1.1-0.7,3.4,1.4,3.2l31.6-2.1
				C1905.6,469.5,1906.4,467.3,1904.8,466.3z"/>
			<path fill="#E4E5E6" d="M1871.4,468.5c-6.2-3.7-18.9-8.4-34.5,2.2c-1.7,1.1-0.7,3.4,1.4,3.2l32-2.1
				C1872.3,471.7,1873.1,469.5,1871.4,468.5z"/>
			
				<path fill="#B1B3B6" stroke="#797A7D" stroke-width="2.5" stroke-linecap="round" stroke-linejoin="round" stroke-miterlimit="10" d="
				M1956,409.8c0,0-12,17.8-26.4,22.9"/>
			<g>
				<path fill="#F58258" d="M2075.5,303.6c0,0-15.9-81.6-61.2-88.5l-207.7,6.8c0,0-22.1,11.3-37.9,66c-7.3,12.8-15.6,29.8-24.7,52.3
					l13.5,4.5c-0.1,0.8-0.2,1.6-0.3,2.4l26.4,44.9c0,0,204.1-5.8,257.3-32.5l-2.4-21.2L2075.5,303.6z"/>
			</g>
			<path fill="#D54849" d="M1995.8,238.9l-20.1,39.9c-3.4,7.7-13.4,9.9-19.7,4.3l-17.2-15.3l-15.5,22.9c-3.7,5.4-10.9,7.1-16.6,3.8
				l-53.4-31.1L1995.8,238.9z"/>
			<g>
				<circle fill="#D54849" cx="1951.8" cy="324.7" r="32"/>
				<polygon fill="#FBDBAE" points="1941.7,314.4 1943.4,300.6 1969.2,322.4 1948.3,349.2 1953.1,329.4 				"/>
			</g>
			<path fill="#CB7639" d="M1834.4,370.1l17-34.5c0.6-1.2-1.1-2.1-1.8-1l-21.9,33.3L1834.4,370.1z"/>
			<g>
				<path fill="#D4A26B" d="M1810.9,334.3l-33.8-9.6c-2.9-0.8-4.5-3.8-3.7-6.7l9.6-33.8c0.8-2.9,3.8-4.5,6.7-3.7l33.8,9.6
					c2.9,0.8,4.5,3.8,3.7,6.7l-9.6,33.8C1816.8,333.4,1813.8,335.1,1810.9,334.3z"/>
				<path fill="#E5BF7A" d="M1822.9,311.8l-44.3-12.5l4.3-15.1c0.8-2.9,3.8-4.5,6.7-3.7l33.8,9.6c2.9,0.8,4.5,3.8,3.7,6.7
					L1822.9,311.8z"/>
				<path fill="#BA8F64" d="M1802,314.4l-5.6-1.6c-1.6-0.4-2.5-2.1-2.1-3.7l2.4-8.4c0.4-1.6,2.1-2.5,3.7-2.1l5.6,1.6
					c1.6,0.4,2.5,2.1,2.1,3.7l-2.4,8.4C1805.3,313.9,1803.6,314.9,1802,314.4z"/>
			</g>
			<path fill="#797A7D" d="M1695.1,425.3c0,0-12-19.4-44.7,0c0,0,18.4,31,44.7,11.8V425.3z"/>
			<g>
				
					<linearGradient id="SVGID_16_" gradientUnits="userSpaceOnUse" x1="-1938.4022" y1="-399.0866" x2="-1847.8943" y2="-399.0866" gradientTransform="matrix(-1.0063 -0.3086 -0.2932 0.9561 -240.2067 176.6084)">
					<stop  offset="0" style="stop-color:#BEC0C2"/>
					<stop  offset="1" style="stop-color:#B1B3B6"/>
				</linearGradient>
				<path fill="url(#SVGID_16_)" d="M1834.4,370.4l-90.4-30.1l-4.7,22.2c-2.5,11.8,2.1,24,11.7,31.2l4.4,3.3c2.7,2,5.8,3.6,9,4.6
					l26.1,8c5.6,1.7,11.5,1.8,17.1,0.2l0,0c10-2.8,17.9-10.6,21-20.7L1834.4,370.4z"/>
			</g>
			<g>
				
					<linearGradient id="SVGID_17_" gradientUnits="userSpaceOnUse" x1="-6641.6069" y1="362.5105" x2="-6551.0991" y2="362.5105" gradientTransform="matrix(0.5795 0.8786 0.8348 -0.5506 5590.4668 6244.8296)">
					<stop  offset="0" style="stop-color:#BEC0C2"/>
					<stop  offset="1" style="stop-color:#B1B3B6"/>
				</linearGradient>
				<path fill="url(#SVGID_17_)" d="M2024.5,222.8l50.5,80.8l17.8-14.1c9.5-7.5,13.7-19.9,10.8-31.5l-1.3-5.3
					c-0.8-3.3-2.2-6.4-4.1-9.3l-15.1-22.8c-3.2-4.9-7.8-8.7-13.1-11l0,0c-9.5-4.2-20.6-3.2-29.3,2.6L2024.5,222.8z"/>
			</g>
			<path fill="#ABADB0" d="M1927.6,26.9l88-8c30.1-2.7,59.9,7.7,81.7,28.6v0c31,29.6,40.8,75.2,24.7,114.9l-7.3,18
				c-17.3,42.7-60.6,69-106.4,64.8l-23.5-2.2"/>
			<path fill="#939598" d="M1998.6,219.5L1998.6,219.5c35.1,3.2,68.2-16.9,81.5-49.6l5.6-13.7c13.4-32.9,3.5-71.1-25.1-93.3
				c-16.3-12.6-36.9-18.2-57.4-16.4l-49.9,4.5c-8.5,0.8-14.3,9-12.1,17.3l34.9,132.1C1978.7,210.8,1987.8,218.5,1998.6,219.5z"/>
			
				<linearGradient id="SVGID_18_" gradientUnits="userSpaceOnUse" x1="-3021.7419" y1="684.5339" x2="-3089.335" y2="867.3422" gradientTransform="matrix(-0.9829 0.184 0.184 0.9829 -1202.9966 12.2401)">
				<stop  offset="0" style="stop-color:#BCBEC0"/>
				<stop  offset="1" style="stop-color:#A3A5A8"/>
			</linearGradient>
			<path fill="url(#SVGID_18_)" d="M1811.4,256.3c57.3,27.4,120.1,27.8,176.6-2.2c27.2-14.5,50.1-38.1,49.5-70.6
				c-0.2-9.3-2.2-18.2-5.1-27c-7.8-23.5-4.7-47.9-11.3-71.5c-4.8-17.3-15.3-32.6-28.6-44.5c-26-23.4-60-30.8-98.1-32.3
				c-28-1.1-69.6,10.4-90.3,30.7"/>
			<path fill="#ABADB0" d="M1999.2,119.4c4.1,6,2.7,14.2-3.3,18.3c-6,4.1-14.2,2.6-18.3-3.4c-4.1-6-2.7-14.2,3.3-18.3
				C1986.8,111.9,1995.1,113.4,1999.2,119.4z"/>
			<path fill="#737577" d="M1994.4,121.9c2.3,3.8,1.1,8.7-2.7,11c-3.8,2.3-8.7,1.1-11-2.7s-1.1-8.7,2.7-11
				C1987.2,116.8,1992.1,118.1,1994.4,121.9z"/>
			<path fill="#ABADB0" d="M1906,135.6c4.2,6.1,2.7,14.5-3.4,18.7c-6.1,4.2-14.5,2.6-18.7-3.5c-4.2-6.1-2.7-14.5,3.4-18.7
				C1893.4,127.9,1901.8,129.4,1906,135.6z"/>
			<path fill="#737577" d="M1903.6,138.7c2.4,3.9,1.1,8.9-2.7,11.3c-3.9,2.3-8.9,1.1-11.3-2.8c-2.4-3.9-1.1-8.9,2.7-11.3
				C1896.2,133.5,1901.3,134.8,1903.6,138.7z"/>
			
				<linearGradient id="SVGID_19_" gradientUnits="userSpaceOnUse" x1="-2885.1191" y1="579.9511" x2="-2885.1191" y2="631.717" gradientTransform="matrix(-0.9907 0.1358 0.1358 0.9907 -1188.3311 42.5985)">
				<stop  offset="0" style="stop-color:#BEC0C2"/>
				<stop  offset="1" style="stop-color:#B1B3B6"/>
			</linearGradient>
			<path fill="url(#SVGID_19_)" d="M1817.4,36.1l-85.9,17.4c-29.7,5.5-55.6,23.5-71,49.5v0c-21.9,36.9-19,83.4,7.2,117.3l11.9,15.3
				c28.2,36.5,76.9,50.2,120,33.8l22.1-8.4"/>
			<path fill="#A1A3A6" d="M1805.4,240.4L1805.4,240.4c-32.4,14-70.1,5.1-92.8-21.8l-9.6-11.3c-22.9-27.2-25.4-66.5-5.2-96.5
				c11.5-17.1,29.4-28.8,49.5-33.4l48.8-11.2c8.3-1.9,16.4,4.1,16.9,12.7l7.9,136.4C1821.6,226.1,1815.3,236.1,1805.4,240.4z"/>
			<path fill="#797A7D" d="M1881,202c2.9-1.7,5.4-3.3,7.6-5.1c2.2-1.8,3.9-3.7,5.5-5.9c0.4-0.5,0.8-1.1,1.1-1.7
				c0.4-0.6,0.7-1.2,1-1.8c0.6-1.2,1.2-2.5,1.8-3.9c1.1-2.7,2.1-5.6,3.4-8.8l0-0.1c0-0.1,0.1-0.1,0.2-0.1c0.1,0,0.1,0.1,0.1,0.2
				l0,2.4l-0.1,2.4c-0.1,1.6-0.3,3.2-0.7,4.7c-0.3,1.6-0.8,3.1-1.4,4.6c-0.6,1.5-1.4,2.9-2.3,4.2c-1.8,2.6-4.3,4.8-7.1,6.4
				c-2.8,1.6-5.9,2.6-9.1,2.8c-0.1,0-0.2-0.1-0.2-0.2C1880.8,202.1,1880.8,202.1,1881,202L1881,202z"/>
			<g>
				<path fill="#797A7D" d="M1878.8,124.5c2.6-0.9,5-1.6,7.3-2.3c2.3-0.8,4.5-1.5,6.5-2.5c2-0.9,3.9-2,5.7-3.4
					c1.8-1.4,3.4-3.1,5.2-5.2l0,0c0.1-0.1,0.1-0.1,0.2,0c0,0,0.1,0.1,0,0.2c-0.7,2.4-2,4.8-3.7,6.7c-1.7,1.9-3.9,3.4-6.2,4.5
					c-2.4,1-4.9,1.7-7.4,2.1c-2.5,0.4-5.1,0.5-7.7,0.2c-0.1,0-0.1-0.1-0.1-0.2C1878.7,124.6,1878.7,124.5,1878.8,124.5L1878.8,124.5
					z"/>
			</g>
			<g>
				<path fill="#797A7D" d="M1972.2,104.6c2.4,1.2,4.6,2.4,6.7,3.5c2.2,1.1,4.2,2.1,6.3,2.9c2.1,0.8,4.2,1.4,6.4,1.7
					c2.2,0.3,4.6,0.2,7.3,0l0.1,0c0.1,0,0.1,0.1,0.2,0.1c0,0.1,0,0.1-0.1,0.1c-2.3,1.2-4.8,2-7.4,2.1c-2.6,0.1-5.2-0.4-7.6-1.3
					c-2.4-0.9-4.6-2.2-6.7-3.8c-2.1-1.5-3.9-3.3-5.6-5.3c0-0.1,0-0.2,0-0.2C1972.1,104.5,1972.1,104.5,1972.2,104.6L1972.2,104.6z"
					/>
			</g>
			<path fill="#797A7D" d="M1934.7,194.8c-0.4-2.9-2.7-6.4-4-8.1c-2.1-2.7-4.9-4.7-8.2-5.5c-6.7-1.6-13.9,1.2-19.8,4.4
				c-1,0.5-1.9,1-2.8,1.6c-4.6,2.7-4.2,10.3,0.9,12.2c3.6,1.4,8.5,1.2,12.3,1.4c3.1,0.2,6.1,0.3,9.2,0.3c3.5-0.1,8.6-0.1,11.3-2.6
				C1934.7,197.5,1934.9,196.2,1934.7,194.8z"/>
			<path fill="#ED85A9" d="M1900.8,199.4c0,0,14.6-11.3,31.6,0c0,0-2.4,2.1-12.5,1.7C1909.9,200.6,1903.2,200.9,1900.8,199.4z"/>
			<path fill="#FFFFFF" d="M1980,144.9c5.6,0.4,22,1,32.4-5.5c1.1-0.7,2.3,0.5,1.7,1.6c-3.2,6.2-11.3,16.8-29,19.6
				c-0.6,0.1-1.2-0.2-1.4-0.8l-5-13.2C1978.4,145.7,1979.1,144.8,1980,144.9z"/>
			
				<linearGradient id="SVGID_20_" gradientUnits="userSpaceOnUse" x1="-2069.355" y1="1550.0056" x2="-2316.8811" y2="1550.0056" gradientTransform="matrix(-0.8856 0.4645 0.4645 0.8856 -582.0714 -206.9731)">
				<stop  offset="0" style="stop-color:#C7C8CA"/>
				<stop  offset="1" style="stop-color:#B1B3B6"/>
			</linearGradient>
			<path fill="url(#SVGID_20_)" d="M1932,188.8c8.3,6.1,19.3,9.1,28.7,13.2c10.2,4.4,20.8,8.1,31.2,12.1c20.8,8.2,42,15.9,64.3,18.5
				c9.3,1.1,18.8,1.2,28.2,0.3c39.5-3.9,76.4-27.5,96.9-61.5s24.4-77.2,11-114.5c-5.8-16-14.6-31-17-47.9c-0.2-1.6-0.8-3.2-1.9-4.4
				c-3.7-4.3-8.8-1.2-11.3,2.6c-2.1,3.1-3.4,6.8-6.3,9c-3.8,2.9-9.1,2.4-13.9,3.1c-5.7,0.9-12.4,5.9-7.6,12.1
				c0.7,0.9,1.6,1.6,2.6,2.2c13.9,8.3,20.8,24.4,24.1,40.1c3.9,19.1,3.5,39.4-3.6,57.6s-21,34.1-39,41.4c-24.2,9.9-52,3.7-75.8-7.1
				c-23.8-10.8-45.5-25.9-70-35c-10.9-4-22.9-6.8-34-3.3c-13.1,4.2-22.4,17.2-23.2,30.8c-0.3,5.8,0.6,12.1,3.2,17.5
				C1921.5,181.8,1926.6,184.8,1932,188.8z"/>
			<path fill="#A9ABAE" d="M1952.8,162c3.4-5.3,11.5-15.5,26-22.4c1.1-0.5,0.7-2.1-0.5-2c-9,0.6-26.3,4.3-27.5,23.7
				C1950.8,162.4,1952.2,162.9,1952.8,162z"/>
			<path fill="#A9ABAE" d="M1969.1,167.4c3.4-5.2,11.4-15.4,25.8-22.2c1.1-0.5,0.7-2.1-0.5-2c-8.9,0.6-26.1,4.2-27.3,23.6
				C1967.1,167.8,1968.5,168.3,1969.1,167.4z"/>
			<path fill="#A9ABAE" d="M1984.2,175.4c3.4-5.2,11.4-15.4,25.8-22.2c1.1-0.5,0.7-2.1-0.5-2c-8.9,0.6-26.1,4.2-27.3,23.6
				C1982.2,175.8,1983.6,176.3,1984.2,175.4z"/>
			<path fill="#FFFFFF" d="M1909.1,160.5c5.7,0.4,22.2,1,32.6-5.7c1.1-0.7,2.3,0.5,1.8,1.6c-3.2,6.2-11.3,17-29.1,19.8
				c-0.6,0.1-1.2-0.2-1.4-0.8l-5.1-13.3C1907.5,161.3,1908.2,160.4,1909.1,160.5z"/>
		</g>
		<path fill="#959A9E" d="M2372.5,460h-132.9v-89.1h204v18C2443.6,428.2,2411.7,460,2372.5,460z"/>
		<linearGradient id="SVGID_21_" gradientUnits="userSpaceOnUse" x1="2161.3767" y1="308.0059" x2="2453.5354" y2="308.0059">
			<stop  offset="0" style="stop-color:#C0C2C4"/>
			<stop  offset="1" style="stop-color:#BCBEC0"/>
		</linearGradient>
		<path fill="url(#SVGID_21_)" d="M2215.7,245.7c-3.3,0.6-11.4,15.1-13.8,18.3c-5.7,7.7-11.2,15.5-16.3,23.6
			c-13.1,20.7-28.7,46.7-23.1,72.8c4.9,22.9,21.8,37.8,45,39.4c57.4,4.1,116.5,0.5,174.2,0c0,0,74.2,1,71.8-57.3
			c-3.1-73.9-74.1-128.4-74.1-128.4S2215.8,245.7,2215.7,245.7z"/>
		<path fill="#F5C15D" d="M2185.7,288.1l75.4,113.5l59.7,0l20.7-26.5l96.8-88.3c0,0-23.6-53-63.2-72.8l-159.3,31.8L2185.7,288.1z"/>
		<g>
			<path fill="#AAAFB4" d="M2228,376.7L2228,376.7c-27.8,0-50.4,22.5-50.4,50.4v42h-2.1c-5.4,0-9.8,4.4-9.8,9.8
				c0,5.4,4.4,9.8,9.8,9.8h92c6,0,10.9-4.9,10.9-10.9v-1.2V469v-42C2278.4,399.3,2255.9,376.7,2228,376.7z"/>
			<path fill="#AAAFB4" d="M2347.5,377.9L2347.5,377.9c-27.8,0-50.4,22.5-50.4,50.4V469h-2.1c-5.4,0-9.8,4.4-9.8,9.8
				c0,5.4,4.4,9.8,9.8,9.8h92c6,0,10.9-4.9,10.9-10.9v-0.1V469v-40.8C2397.9,400.4,2375.3,377.9,2347.5,377.9z"/>
		</g>
		<linearGradient id="SVGID_22_" gradientUnits="userSpaceOnUse" x1="2188.7014" y1="386.949" x2="2262.6362" y2="386.949">
			<stop  offset="0" style="stop-color:#C0C2C4"/>
			<stop  offset="1" style="stop-color:#BCBEC0"/>
		</linearGradient>
		<path fill="url(#SVGID_22_)" d="M2251.6,373.5c-8.8-2.8-17.8-5.5-27.2-5.6c-9-0.1-18.6,3.3-26.9,6.7c-4.9,2-8.8,4.8-8.8,10.6v9.5
			c0,6.2,5.1,11.2,11.2,11.2h51.5c6.2,0,11.2-5.1,11.2-11.2v-9.5c0-6.7-5-9.8-10.7-11.6C2251.8,373.6,2251.7,373.5,2251.6,373.5z"/>
		<linearGradient id="SVGID_23_" gradientUnits="userSpaceOnUse" x1="2315.6919" y1="386.949" x2="2389.6267" y2="386.949">
			<stop  offset="0" style="stop-color:#C0C2C4"/>
			<stop  offset="1" style="stop-color:#BCBEC0"/>
		</linearGradient>
		<path fill="url(#SVGID_23_)" d="M2378.5,373.5c-8.8-2.8-17.8-5.5-27.2-5.6c-9-0.1-18.6,3.3-26.9,6.7c-4.9,2-8.8,4.8-8.8,10.6v9.5
			c0,6.2,5.1,11.2,11.2,11.2h51.5c6.2,0,11.2-5.1,11.2-11.2v-9.5c0-6.7-5-9.8-10.7-11.6C2378.8,373.6,2378.7,373.5,2378.5,373.5z"/>
		<ellipse fill="#2F8F6D" cx="2298.1" cy="282.5" rx="81.2" ry="54.9"/>
		<ellipse fill="#9A9FA3" cx="2298.1" cy="279.2" rx="66.4" ry="43.2"/>
		<g>
			<path fill="none" d="M2358.5,134c3.2,3.2,6.9,6,10.1,8.9C2365.7,139.7,2362.3,136.7,2358.5,134z"/>
			<polygon fill="#91929D" points="2368.7,142.9 2368.7,142.9 2368.7,142.9 			"/>
			
				<linearGradient id="SVGID_24_" gradientUnits="userSpaceOnUse" x1="1950.1885" y1="722.5831" x2="2009.9651" y2="805.6871" gradientTransform="matrix(0.9768 0.2144 -0.2144 0.9768 560.722 -875.4032)">
				<stop  offset="0" style="stop-color:#C0C2C4"/>
				<stop  offset="1" style="stop-color:#B1B3B6"/>
			</linearGradient>
			<path fill="url(#SVGID_24_)" d="M2415.5,222.5c0.5-4,0.7-8,0.7-12c-0.1-15.8-4.1-32.3-11.3-46.3c-0.8-1.7-1.8-3.3-2.9-5v0
				c-2.5-3.9-5.3-8-7.6-12.2c-2-2.6-4.1-5.2-6.3-7.8l5.4-20.4c1.9-7.2,2-14.7,0.4-22l-6.8-29.9c0.3-6.2-3-12-8.5-14.8
				c-7.6-4-17.1-1.1-21.1,6.5c-7.8,14.8-3.6,29.7,0.5,38.5c2.4,5.3,3.5,11.1,3,16.8c-7-5.5-11.9-8.8-11.9-8.8
				c-14-6.2-24.7-7.5-24.7-7.5c-12.8-3.1-26.2-3.7-39.7-1.1c-20,3.7-39.2,14-54.2,27.7c-17.5,16.1-37.4,30.9-59.3,40.4
				c-2.3,1-4.5,2.3-6.6,3.8c-10.4-3-20.6,5.5-23.7,16c-1.4,4.6-1,8.3,0.6,11.6c2,4.4,3.1,9.1,2.8,13.9c-0.6,10.4,1.5,21,6.1,30.3
				c10.7,22.1,35.2,40.3,57.6,49.2c15,5.9,30.9,9.5,46.8,12c15.2,2.4,30.5,3.6,45.8,4.2C2412.4,309.7,2415.5,222.5,2415.5,222.5z"/>
			<g>
				<path fill="#797A7D" d="M2173,185.8c1.4,1.1,2.3,2.7,2.9,4.4c0.6,1.7,0.7,3.6,0.5,5.4c-0.1,1.8-0.6,3.6-1.5,5.2
					c-0.5,0.7-1,1.5-1.6,2.1c-0.6,0.6-1.3,1.2-2.1,1.7c-0.1,0-0.1,0-0.2,0c0,0,0-0.1,0-0.1l0,0c0.2-0.9,0.5-1.7,0.8-2.5
					c0.3-0.8,0.6-1.6,0.9-2.3c0.1-0.4,0.3-0.8,0.4-1.1c0.2-0.4,0.4-0.7,0.5-1.1l0.5-1.1l0.3-1.1c0.4-1.5,0.5-3.1,0.2-4.7
					c-0.2-1.6-0.9-3.2-1.9-4.5l0,0c0-0.1,0-0.1,0-0.2C2172.9,185.8,2173,185.8,2173,185.8z"/>
			</g>
			<path fill="#808285" d="M2149,196c0.2-0.8,0.8-1.5,2.2-2.1c2.4-1,8.4-0.9,7.7,3.7c-0.5,3.5-2.1,4.4-4.5,3.7
				C2152.5,200.8,2148.6,198.2,2149,196z"/>
			<circle fill="#9A9FA3" cx="2226.3" cy="177.8" r="12.9"/>
			<circle fill="#6B6C6F" cx="2226.3" cy="177.8" r="8.2"/>
			<path fill="#797A7D" d="M2144.4,214.6c0,0,32.5,2,52.2-4c1.6-0.5,3,1.3,2,2.7c-5.7,8.1-20.8,24.4-48.9,23.9
				C2149.6,237.3,2142.6,225.3,2144.4,214.6z"/>
			<path fill="#9CA1A5" d="M2214.8,150.9c0,0-2.4,17.9,21.8,19.3"/>
			<path fill="#939598" d="M2146.9,221.3c0.6,7.5,2.5,14.9,5.3,22.2l0,0c0,0.1,0,0.2-0.1,0.2c-0.1,0-0.2,0-0.2-0.1
				c-3.7-6.8-6.2-14.3-7.3-22c-0.3-1.9-0.5-3.9-0.6-5.8c-0.1-1.9,0-3.9-0.2-5.8c-0.3-3.8-1.4-7.6-3.1-11c-0.9-1.7-1.7-3.5-2-5.5
				c-0.3-1.9-0.3-3.9,0-5.9c0.7-3.9,2.2-7.6,4.5-10.7c0.5-0.8,1.2-1.5,1.8-2.3c0.3-0.4,0.7-0.7,1-1.1c0.3-0.4,0.7-0.7,1.1-1
				c1.4-1.3,3.1-2.4,4.8-3.3c1.7-0.9,3.7-1.4,5.6-1.7c2-0.3,3.9-0.1,5.8,0.3l-0.2,0c2.1-1.6,4.3-3.1,6.7-4.2c0.1,0,0.2,0,0.2,0.1
				c0,0.1,0,0.2-0.1,0.2l0,0c-1.1,0.7-2.2,1.5-3.2,2.3c-1,0.8-2,1.7-2.9,2.6c-0.2,0.2-0.4,0.2-0.7,0.2l-0.2,0
				c-1.8-0.2-3.6-0.2-5.3,0.2c-1.7,0.4-3.4,1-4.9,1.9c-3,1.7-5.5,4.3-7.5,7.3c-2,2.9-3.2,6.3-3.8,9.7c-0.3,1.7-0.3,3.3,0,4.9
				c0.2,0.8,0.4,1.5,0.6,2.3c0.1,0.4,0.3,0.7,0.5,1.1l0.6,1.3c1.8,3.8,3,7.9,3.1,12.1c0,0.5,0,1.1,0,1.6l0,1.5"/>
			<path fill="#FFFFFF" d="M2201,149.1l-48.4-85.2c-1.5-3-6.4-2.4-6.8,0.8c-2.5,19.6,3.2,73,18.6,105
				C2164.4,169.8,2176.4,163.4,2201,149.1z"/>
			<path fill="#FFFFFF" d="M2149,218.7L2149,218.7c0.1,2.2,2,3.8,4.1,3.8l15.4-0.4c2.1-0.1,3.8-1.7,3.9-3.8l0,0
				c0-0.7-0.5-1.3-1.2-1.2c-3.6,0.3-13.9,1-20.9,0.4C2149.5,217.4,2149,218,2149,218.7z"/>
		</g>
		<rect x="2281.4" y="328.4" fill="#2F8F6D" width="20.3" height="73.4"/>
	</g>
	<g>
		<path fill="#F58258" d="M4168.1,448.3c0,0-37.9-65.5-42.1-74.6l-230,34.3c0,0-15.1,7.7-28.3,42.6c-6.5,9.4-14.5,23.2-23.5,43.4
			c-8.1,18.2-4.1,58.8,10.7,72.2c5.3,4.8,12,8.7,20.8,10.7c0,0,24.2,1.8,57.4,3.1l23.8,1.3h-0.2c58.4,1.5,131.5-7.5,158.1-20.8
			l-4.4-69.3L4168.1,448.3z"/>
		<path fill="#F58258" d="M4100.3,469c0,0,17.7,51.4,14.3,91.5l-12.7-35.3L4100.3,469z"/>
		<path fill="#D65B51" d="M4062.7,423l-17.7,35.2c-3,6.8-11.8,8.7-17.3,3.8l-15.2-13.5l-13.6,20.2c-3.2,4.8-9.6,6.3-14.6,3.4
			l-40.1-23.3L4062.7,423z"/>
		<g>
			<circle fill="#D65B51" cx="4023.9" cy="498.7" r="28.2"/>
			<polygon fill="#EBE5C9" points="4015,489.6 4016.5,477.4 4039.3,496.6 4020.9,520.2 4025.1,502.8 			"/>
		</g>
		<path fill="#A3A5A8" d="M4119.3,378.5l47.9,69l15.1-13.2c8-7,11.3-18.1,8.2-28.2l-1.4-4.6c-0.9-2.9-2.2-5.6-4-8l-14.2-19.5
			c-3-4.1-7.2-7.3-12-9.2l0,0c-8.6-3.3-18.3-2-25.7,3.5L4119.3,378.5z"/>
		<path fill="#ABADB0" d="M4005,238.1l76.3-6.9c26.1-2.4,51.9,6.7,70.8,24.7v0c26.9,25.7,35.4,65.2,21.4,99.6l-6.3,15.6
			c-15,37-52.5,59.8-92.3,56.2l-20.4-1.9"/>
		<path fill="#939598" d="M4066.6,405L4066.6,405c30.4,2.8,59.1-14.7,70.6-43l4.8-11.9c11.6-28.6,3-61.6-21.8-80.9
			c-14.1-11-32-15.8-49.8-14.2l-43.3,3.9c-7.4,0.7-12.4,7.8-10.5,15l30.2,114.5C4049.3,397.5,4057.2,404.1,4066.6,405z"/>
		
			<linearGradient id="SVGID_25_" gradientUnits="userSpaceOnUse" x1="-5031.8564" y1="1261.825" x2="-5090.4517" y2="1420.2988" gradientTransform="matrix(-0.9829 0.184 0.184 0.9829 -1202.9966 12.2401)">
			<stop  offset="0" style="stop-color:#BCBEC0"/>
			<stop  offset="1" style="stop-color:#A3A5A8"/>
		</linearGradient>
		<path fill="url(#SVGID_25_)" d="M3904.3,436.9c49.7,23.7,104.1,24.1,153.1-1.9c23.6-12.5,43.4-33,42.9-61.2
			c-0.1-8-1.9-15.8-4.4-23.4c-6.7-20.4-4.1-41.6-9.8-62c-4.2-15-13.3-28.2-24.8-38.6c-22.5-20.3-52-26.7-85.1-28
			c-24.3-0.9-60.3,9-78.3,26.6"/>
		<path fill="#A1A3A6" d="M4067.1,318.2c3.6,5.2,2.3,12.3-2.9,15.9c-5.2,3.6-12.3,2.2-15.9-3c-3.6-5.2-2.3-12.3,2.9-15.9
			C4056.4,311.7,4063.5,313,4067.1,318.2z"/>
		<path fill="#67686B" d="M4062.9,320.4c2,3.3,1,7.5-2.3,9.5s-7.5,0.9-9.5-2.4c-2-3.3-1-7.5,2.3-9.5S4060.9,317.1,4062.9,320.4z"/>
		<path fill="#A1A3A6" d="M3986.3,332.3c3.7,5.3,2.4,12.5-2.9,16.2c-5.3,3.6-12.5,2.3-16.2-3c-3.7-5.3-2.4-12.5,2.9-16.2
			C3975.4,325.6,3982.6,327,3986.3,332.3z"/>
		<path fill="#67686B" d="M3984.3,335c2,3.4,1,7.7-2.4,9.8s-7.7,0.9-9.8-2.4c-2-3.4-1-7.7,2.4-9.8
			C3977.8,330.5,3982.2,331.6,3984.3,335z"/>
		
			<linearGradient id="SVGID_26_" gradientUnits="userSpaceOnUse" x1="-4941.7749" y1="1048.3971" x2="-4941.7749" y2="1093.2722" gradientTransform="matrix(-0.9907 0.1358 0.1358 0.9907 -1188.3311 42.5985)">
			<stop  offset="0" style="stop-color:#BEC0C2"/>
			<stop  offset="1" style="stop-color:#B1B3B6"/>
		</linearGradient>
		<path fill="url(#SVGID_26_)" d="M3909.5,246l-74.5,15.1c-25.7,4.7-48.2,20.4-61.5,42.9v0c-19,32-16.5,72.3,6.2,101.7L3790,419
			c24.4,31.6,66.7,43.5,104,29.3l19.2-7.3"/>
		<path fill="#A1A3A6" d="M3899.1,423.2L3899.1,423.2c-28.1,12.1-60.8,4.4-80.5-18.9l-8.3-9.8c-19.9-23.5-22-57.6-4.5-83.7
			c10-14.8,25.5-25,42.9-29l42.3-9.7c7.2-1.7,14.2,3.6,14.7,11l6.9,118.2C3913.1,410.7,3907.7,419.4,3899.1,423.2z"/>
		<path fill="#797A7D" d="M3970.7,393c1.4-2.1,2.6-4,3.4-6c0.8-1.9,1.3-3.8,1.4-5.7c0-0.5,0.1-1,0.1-1.4c0-0.5,0-1,0-1.5
			c-0.1-1-0.2-2-0.4-3c-0.3-2.1-0.9-4.2-1.4-6.7l0-0.1c0-0.1,0-0.1,0.1-0.2c0.1,0,0.1,0,0.2,0.1l1.1,1.5l1,1.5
			c0.6,1,1.2,2.1,1.6,3.2c0.5,1.1,0.7,2.2,1,3.4c0.2,1.1,0.3,2.3,0.2,3.5c-0.2,2.3-1.1,4.6-2.4,6.6c-1.4,2-3.3,3.8-5.5,5.1
			c-0.1,0-0.2,0-0.2,0C3970.6,393.2,3970.6,393.1,3970.7,393L3970.7,393z"/>
		<g>
			<path fill="#797A7D" d="M3984.7,314.9c-2.1,1.2-4,2.1-5.9,3c-1.8,1-3.6,1.9-5.2,2.9c-1.6,1-3.1,2.1-4.5,3.4
				c-1.4,1.3-2.6,2.9-4.1,4.9l0,0.1c0,0.1-0.1,0.1-0.2,0c0,0-0.1-0.1-0.1-0.1c0.4-2.2,1.1-4.4,2.4-6.2c1.3-1.9,3-3.4,4.8-4.6
				c1.9-1.2,4-2,6.1-2.6c2.1-0.6,4.3-1,6.6-1c0.1,0,0.1,0.1,0.1,0.1C3984.8,314.8,3984.8,314.8,3984.7,314.9L3984.7,314.9z"/>
		</g>
		<g>
			<path fill="#797A7D" d="M4067,312.2c-2.3-0.9-4.2-1.8-6.1-2.6c-1.9-0.8-3.7-1.6-5.5-2.2c-1.8-0.6-3.6-1.1-5.5-1.3
				c-1.9-0.2-3.9-0.2-6.4-0.1l-0.1,0c-0.1,0-0.1-0.1-0.1-0.1c0-0.1,0-0.1,0.1-0.1c1.9-1.1,4.1-1.9,6.3-2.1c2.2-0.2,4.5,0.1,6.6,0.8
				c2.1,0.7,4.1,1.8,5.9,3.1c1.8,1.3,3.5,2.7,5,4.4c0.1,0.1,0,0.1,0,0.2C4067.2,312.2,4067.1,312.2,4067,312.2L4067,312.2z"/>
		</g>
		<g>
			<path fill="#CE5C45" d="M3893.4,466.7c-0.9,1.8-1.9,3.4-2.8,5c-0.1,0.2-0.3,0.3-0.5,0.4c-0.2,0.1-0.3,0.2-0.5,0.4l-1,0.8
				c-0.7,0.5-1.3,1.1-2,1.6c-2.6,2.2-5.1,4.6-7.5,7c-2.4,2.5-4.7,5-6.9,7.7c-1.1,1.3-2.2,2.7-3.2,4c-1.7,0.9-3.3,1.9-5.1,2.7
				c0.2-2,0.7-3.9,1.2-5.8c1.1-1.4,2.2-2.8,3.4-4.2c2.3-2.8,4.7-5.4,7.2-8c2.5-2.6,5.1-5,7.9-7.4c1.4-1.2,2.8-2.3,4.2-3.4
				c0.9-0.3,1.9-0.5,2.9-0.7C3891.4,466.9,3892.4,466.7,3893.4,466.7z"/>
		</g>
		
			<linearGradient id="SVGID_27_" gradientUnits="userSpaceOnUse" x1="3138.8318" y1="-68.75" x2="3218.6309" y2="-68.75" gradientTransform="matrix(0.6522 0.8261 0.7849 -0.6197 1914.8408 -2180.4656)">
			<stop  offset="0" style="stop-color:#BEC0C2"/>
			<stop  offset="1" style="stop-color:#B1B3B6"/>
		</linearGradient>
		<path fill="url(#SVGID_27_)" d="M3891.5,468.2l50.5,67.2l14.6-13.7c7.8-7.3,10.6-18.5,7.1-28.5l-1.6-4.6c-1-2.8-2.4-5.5-4.3-7.8
			l-14.9-18.9c-3.2-4-7.5-7.1-12.3-8.7l0,0c-8.7-3-18.3-1.3-25.6,4.5L3891.5,468.2z"/>
		<path fill="#797A7D" d="M4014.5,375.8c0,0-14.1,14.1-32.5,6l-4.9-4l37.1-4.3L4014.5,375.8z"/>
		<path fill="#E38A81" d="M4624.4,727.7l-23.5-10.6c-6.7-3-5-10.6,2.6-11.9l17.5-2.9c7.6-1.3,9.2-8.8,2.6-11.9l-34.5-15.8
			c-5.8-2.6-5.4-9,0.6-11.3l20.6-7.8c6.1-2.3,6.3-8.9,0.3-11.4l-27.2-11.5c-5.7-2.4-5.9-8.6-0.3-11.2l22.5-10.3
			c5.6-2.5,5.5-8.7-0.1-11.1l-21.7-9.5c-5.2-2.3-5.8-7.7-1.2-10.6l41-25.8c6.2-3.9,2.5-11.4-5.5-11.4H4569h-4.6h-815.4h-13.3h-9.1
			c-8.1,0-11.7,7.7-5.3,11.5l6.4,3.8c5.5,3.3,3.8,9.8-2.9,11.3l-4.3,0.9c-6.7,1.5-8.4,8-2.9,11.3c5.6,3.3,3.7,10-3.1,11.3l-23.2,4.7
			c-7.3,1.5-8.7,8.9-2.2,11.8l23.5,10.6c6.7,3,5,10.6-2.6,11.9l-17.5,2.9c-7.6,1.3-9.2,8.8-2.6,11.9l34.5,15.8
			c5.8,2.6,5.4,9-0.6,11.3l-20.6,7.8c-6.1,2.3-6.3,8.9-0.3,11.4l27.2,11.5c5.7,2.4,5.9,8.6,0.3,11.2l-22.5,10.3
			c-5.6,2.5-5.5,8.7,0.1,11.1l21.7,9.5c5.2,2.3,5.8,7.7,1.2,10.6l-41,25.8c-6.2,3.9-2.5,11.4,5.5,11.4h40.4h13.3h815.4h4.6h17.8
			c8.1,0,11.7-7.7,5.3-11.5l-6.4-3.8c-5.5-3.3-3.8-9.8,2.9-11.3l4.3-0.9c6.7-1.5,8.4-8,2.9-11.3c-5.6-3.3-3.7-10,3.1-11.3l23.2-4.7
			C4629.5,738,4630.9,730.6,4624.4,727.7z"/>
		<path fill="#D7807A" d="M3724.2,634c69-0.6,138-0.9,207-1.1c68.8-0.2,137.6-0.1,206.4,0.1c38.9,0.1-2.5,0.3,36.3,0.6
			c8.6,0.1,4-7.4-2.3-7.5c-69.2-0.5-58.1-0.8-127.3-0.8c-69.3-0.1-138.6,0-207.9,0.4c-39.2,0.2-78.4,0.4-117.5,0.8
			c-3.1,0-4.1,2.4-2.9,4.2C3717.4,633,3721,634,3724.2,634L3724.2,634z"/>
		<path fill="#D7807A" d="M3993.1,671.7c107.9,5,216.1,7.1,324.2,6.2c30.4-0.2,228.7-0.7,259.1-1.4c8.1-0.2,6.4-9.8-0.9-9.6
			c-108.1,2.5-384.2,2.1-492.2-1.3c-30.4-0.9-60.7-2.1-91-3.5C3984,661.7,3985.8,671.4,3993.1,671.7L3993.1,671.7z"/>
		<path fill="#D7807A" d="M4152.6,703.6c70.5-1.4,309-1.6,379.5-0.7c19.8,0.3,39.6,0.6,59.4,1.1c8.2,0.2,8.6-8.8,0.1-9
			c-70.5-1.6-309-2.1-379.5-1.3c-19.8,0.2-39.6,0.5-59.4,0.9C4144.6,694.7,4144.1,703.7,4152.6,703.6L4152.6,703.6z"/>
		<path fill="#D7807A" d="M3839.2,722.1c94.5,3.1,189,6.1,283.6,9.2c26.8,0.9,53.7,1.7,80.5,2.6c3.2,0.1,6.9-1.2,7.5-3.8
			c0.6-2.5-2.5-4.5-5.6-4.6c-94.5-3.1-189-6.1-283.6-9.2c-26.8-0.9-53.7-1.7-80.5-2.6c-3.2-0.1-6.9,1.2-7.5,3.8
			C3833.1,720,3836.1,722,3839.2,722.1L3839.2,722.1z"/>
		<path fill="#D7807A" d="M3760.4,779.2c61.1-1.6,122.3-1.4,183.4,0.7c17.5,0.6,34.9,1.3,52.3,2.2c3.2,0.2,6.4-1.7,6.3-4.2
			c-0.1-2.7-3.6-4.3-6.8-4.5c-61-3.1-122.2-4.4-183.4-3.9c-17.5,0.2-34.9,0.5-52.4,0.9C3751.4,770.7,3752.3,779.4,3760.4,779.2
			L3760.4,779.2z"/>
		<path fill="#D7807A" d="M3971.7,593.9c70.9-1.5,141.8-2.2,212.7-1.9c35.6,0.1,71.2,0.5,106.7,1c34.8,0.6,69.7,1.5,104.5,1.7
			c39.4,0.2,78.8-0.8,117.9-4.6c2.1-0.2,8.7-1.3,9.1-3.4c0.5-2.2-4.9-1.5-6.4-1.4c-68.9,6.8-138.7,3.9-208,2.7
			c-70.2-1.2-140.5-1.5-210.7-1c-39.8,0.3-79.5,0.9-119.3,1.7c-3.1,0.1-8.4,0.9-10.4,2.9C3965.8,593.7,3969.8,593.9,3971.7,593.9
			L3971.7,593.9z"/>
		<path fill="#B1B3B6" d="M4265.5,423.8c-0.1,0.1-0.3,0.2-0.4,0.3c-2.2,1.3-21.8,12.8-34.1,24.1c-5.8,5.4-14.5,5.9-21,1.6
			c-0.3-0.2-0.5-0.4-0.8-0.6l-21-19c-9.8-8.9-24.9-8.5-34.3,0.9l-17.1,17.3c-8,8.1-9.5,20.7-3.5,30.4
			c14.6,23.7,49.1,62.7,117.4,62.7h117.9c0,0-12.1,24.1-10.5,42.4c1.4,16.9,21.1,15.2,24,14.9c0.3,0,0.5,0,0.8,0h18
			c0.7,0,1.3-0.1,2-0.3c1.9-0.6,6.1-2.2,12.1-6.1c8.4-5.4,79.1-25.9,86.5-67.1s-25.8-117.9-79.9-144.8
			C4368.8,354.2,4270.6,420.3,4265.5,423.8z"/>
		<path fill="#F5C15D" d="M4236.7,443.3l65.4,98.2h66.4l20.1-18.4l97.9-71.4c0,0-27.8-62.6-74.1-76.2l-131.2,29.5L4236.7,443.3z"/>
		<g>
			<path fill="#797A7D" d="M4197.8,450c-0.9,2.9-2.5,5.5-4.3,7.9c-0.9,1.2-1.9,2.3-2.9,3.5c-0.5,0.5-1.1,1.1-1.6,1.6
				c-0.6,0.5-1.1,1-1.7,1.5c-0.6,0.5-1.2,0.9-1.8,1.4c-0.6,0.4-1.2,0.9-1.9,1.3c-1.3,0.8-2.6,1.6-4,2.2c-2.7,1.3-5.6,2.2-8.6,2.7
				c2.6-1.5,5.2-2.8,7.7-4.4c2.5-1.5,4.8-3.2,7-5.1c2.3-1.8,4.4-3.8,6.4-5.9C4194,454.6,4195.9,452.4,4197.8,450z"/>
		</g>
		<path fill="#2F8F6D" d="M4271.7,444.6c0,0,8.4,22.9,46,34c36.9,10.9,108.2,9.6,150.3-58.8l-9.9-12.6L4271.7,444.6z"/>
		<path fill="#9CA1A5" d="M4426.8,370.1l31.2,37.2c0,0-74.4,104.6-186.4,28.7L4426.8,370.1z"/>
		
			<linearGradient id="SVGID_28_" gradientUnits="userSpaceOnUse" x1="4550.2104" y1="442.8417" x2="4605.5581" y2="519.7879" gradientTransform="matrix(0.9918 -0.1276 0.1276 0.9918 -210.2541 532.499)">
			<stop  offset="0" style="stop-color:#C0C2C4"/>
			<stop  offset="1" style="stop-color:#B1B3B6"/>
		</linearGradient>
		<path fill="url(#SVGID_28_)" d="M4442.5,335.6c-0.8-3.6-1.9-7.2-3.2-10.7c-5.1-13.7-13.6-26.8-24.3-36.9c-1.3-1.2-2.6-2.3-4.1-3.5
			v0c-3.4-2.7-7.1-5.3-10.4-8.2c-2.5-1.7-5.2-3.3-7.9-4.8L4391,252c-0.6-6.9-2.8-13.5-6.5-19.3l-15.3-23.9c-1.6-5.5-6.3-9.5-12-10.3
			c-7.9-1.1-15.2,4.4-16.4,12.2c-2.2,15.3,6.1,27,12.4,33.4c3.8,3.8,6.5,8.6,7.8,13.7c-7.8-2.6-13.1-4-13.1-4
			c-14.2-1-23.8,1.1-23.8,1.1c-12.1,1.3-24,5-35,11.4c-16.3,9.5-29.8,24.4-38.6,41.1c-10.2,19.5-22.9,38.6-39.1,53.7
			c-1.7,1.6-3.2,3.4-4.6,5.3c-10,0.6-16.2,11.3-15.7,21.3c0.2,4.4,1.8,7.5,4.1,9.9c3.1,3.2,5.5,6.9,6.8,11.2
			c2.8,9.2,7.9,17.8,14.8,24.5c16.3,15.9,43.3,24.2,65.6,24.9c14.9,0.5,29.9-1.3,44.5-4.1c13.9-2.7,27.7-6.4,41.2-10.6
			C4467.1,412.5,4442.5,335.6,4442.5,335.6z"/>
		<g>
			<path fill="#797A7D" d="M4219.7,379.3c1.5,0.5,2.9,1.6,3.9,2.9c1.1,1.3,1.8,2.9,2.2,4.5c0.4,1.6,0.7,3.4,0.3,5
				c-0.2,0.8-0.5,1.6-0.8,2.4c-0.4,0.7-0.8,1.5-1.4,2.1c0,0.1-0.1,0.1-0.2,0c0,0,0-0.1,0-0.1l0,0c-0.1-0.9-0.1-1.7-0.1-2.4
				c0-0.8,0-1.5,0-2.3c0-0.4,0-0.7,0-1.1c0-0.4,0.1-0.7,0.1-1.1l0.1-1.1l-0.1-1.1c-0.2-1.4-0.5-2.9-1.3-4.2c-0.7-1.3-1.7-2.5-3-3.3
				l0,0c-0.1,0-0.1-0.1,0-0.2C4219.6,379.3,4219.7,379.3,4219.7,379.3z"/>
		</g>
		<path fill="#808285" d="M4202,395.7c-0.1-0.7,0.3-1.5,1.3-2.5c1.8-1.6,7-3.4,7.9,0.8c0.7,3.2-0.5,4.5-2.8,4.6
			C4206.5,398.8,4202.3,397.7,4202,395.7z"/>
		<path fill="#9A9FA3" d="M4275.2,352.9c1.5,6.4-2.4,12.8-8.9,14.4s-12.8-2.4-14.4-8.9s2.6-11.8,9-13.4
			C4267.4,343.6,4273.7,346.5,4275.2,352.9z"/>
		<circle fill="#6B6C6F" cx="4263.2" cy="354.9" r="7.6"/>
		<path fill="#FFFFFF" d="M4232.4,338.2l-70-60.2c-2.3-2.1-6.3-0.1-5.7,2.8c3.9,17.8,27.6,63.4,51,86.5
			C4207.7,367.3,4215.4,358.3,4232.4,338.2z"/>
		<path fill="none" d="M4401.2,276.9c3.3,2.9,7.1,5.6,10.4,8.2C4408.6,282.2,4405,279.5,4401.2,276.9z"/>
		<polygon fill="#91929D" points="4411.7,285.2 4411.7,285.2 4411.7,285.2 		"/>
		<rect x="4328.4" y="477.6" fill="#2F8F6D" width="23.9" height="63.9"/>
		<path fill="#797A7D" d="M4206.7,419.9c0,0,9.1-17.1,32.8-14.7c2.8,0.3,3.1,4.2,0.5,5L4206.7,419.9z"/>
		<g>
			<path fill="#797A7D" d="M4240.3,393.4c0.3,2.1,0.6,4,0.9,5.9c0.1,0.5,0.2,0.9,0.3,1.4c0.1,0.5,0.2,0.9,0.3,1.3
				c0.2,0.9,0.5,1.7,0.8,2.6l0.5,1.2c0.2,0.4,0.4,0.8,0.6,1.2c0.2,0.4,0.4,0.8,0.6,1.1c0.3,0.4,0.4,0.8,0.7,1.1
				c0.3,0.4,0.6,0.7,0.8,1.1l1,1c0.2,0.2,0.3,0.4,0.5,0.5c0.2,0.2,0.4,0.3,0.6,0.5c0.4,0.3,0.8,0.7,1.1,1l-0.1,0.2l-1.4-0.6
				l-0.7-0.3c-0.2-0.1-0.4-0.3-0.6-0.4l-1.3-0.8l-1.1-1c-1.4-1.4-2.5-3.2-3.2-5.1c-0.6-1.9-1-3.9-1-5.9c-0.1-2,0-4,0.4-6
				L4240.3,393.4z"/>
		</g>
		<path fill="#91969A" d="M4245.8,350.6c0,0,3.4,8.4,14.5,1.4c10-6.3,11.8-10.7,11.8-10.7"/>
		<path fill="#FFFFFF" d="M4050.4,340.3c4.9,0.4,19.1,0.9,28.1-4.8c0.9-0.6,2,0.5,1.5,1.4c-2.8,5.4-9.8,14.6-25.1,17
			c-0.5,0.1-1-0.2-1.2-0.7l-4.4-11.4C4049.1,341.1,4049.6,340.3,4050.4,340.3z"/>
		
			<linearGradient id="SVGID_29_" gradientUnits="userSpaceOnUse" x1="-895.0263" y1="4451.5005" x2="-1109.6029" y2="4451.5005" gradientTransform="matrix(1.635437e-002 -0.9999 0.9999 1.635437e-002 -370.8809 -619.066)">
			<stop  offset="0" style="stop-color:#C7C8CA"/>
			<stop  offset="1" style="stop-color:#B1B3B6"/>
		</linearGradient>
		<path fill="url(#SVGID_29_)" d="M4038.3,324.9c4.3,2.2,8,5.4,11.1,9c2.6,3,7.1,5.1,10,7.8c27.4,25.7,58.3,47.4,72.5,83.9
			c12.4,32.1,8.5,69.8-9.8,99c-18.3,29.1-50.3,49.1-84.4,53.2c-14.6,1.8-29.7,0.8-43.8,5.5c-1.3,0.4-2.8,0.6-4.1,0.3
			c-4.8-1.2-4.4-6.4-2.4-9.8c1.6-2.8,4-5.3,4.5-8.4c0.7-4.1-1.7-8-3-12c-1.6-4.8-0.2-11.9,6.4-10.6c1,0.2,1.9,0.6,2.7,1.2
			c11.9,7.5,27,6.6,40.4,3c16.3-4.4,31.9-12.7,43.2-25.2c11.4-12.5,18.2-29.5,16.9-46.4c-1.8-22.6-17.5-41.7-35.1-55.9
			c-17.6-14.2-37.8-25.1-54.4-40.5c-7.4-6.9-14.2-15.1-15.8-25c-1.9-11.8,4.6-24.1,14.8-29.9c4.4-2.5,9.6-4.2,14.8-4.3
			C4028.8,319.5,4033.1,322.3,4038.3,324.9z"/>
		<path fill="#A9ABAE" d="M4026.9,355.1c3-4.6,10-13.4,22.5-19.4c0.9-0.4,0.6-1.8-0.5-1.8c-7.8,0.5-22.8,3.7-23.8,20.6
			C4025.1,355.5,4026.4,356,4026.9,355.1z"/>
		<path fill="#A9ABAE" d="M4039.1,366.2c2.9-4.5,9.9-13.4,22.4-19.3c0.9-0.4,0.6-1.8-0.4-1.8c-7.8,0.5-22.6,3.7-23.6,20.4
			C4037.3,366.6,4038.5,367,4039.1,366.2z"/>
		<path fill="#A9ABAE" d="M4051,377.7c2.9-4.5,9.9-13.4,22.4-19.3c0.9-0.4,0.6-1.8-0.4-1.8c-7.8,0.5-22.6,3.7-23.6,20.4
			C4049.2,378.1,4050.4,378.5,4051,377.7z"/>
		<path fill="#FFFFFF" d="M3989,353.9c4.9,0.4,19.2,0.8,28.3-5c0.9-0.6,2,0.5,1.5,1.4c-2.8,5.4-9.8,14.7-25.2,17.2
			c-0.5,0.1-1-0.2-1.2-0.7l-4.5-11.5C3987.6,354.6,3988.2,353.8,3989,353.9z"/>
	</g>
</g>
<g>
</g>
<g>
</g>
<g>
</g>
<g>
</g>
<g>
</g>
<g>
</g>
<g>
</g>
<g>
</g>
<g>
</g>
<g>
</g>
<g>
</g>
<g>
</g>
<g>
</g>
<g>
</g>
<g>
</g>
</svg>
