<?xml version="1.0" encoding="utf-8"?>
<!-- Generator: Adobe Illustrator 18.0.0, SVG Export Plug-In . SVG Version: 6.00 Build 0)  -->
<!DOCTYPE svg PUBLIC "-//W3C//DTD SVG 1.1//EN" "http://www.w3.org/Graphics/SVG/1.1/DTD/svg11.dtd">
<svg version="1.1" xmlns="http://www.w3.org/2000/svg" xmlns:xlink="http://www.w3.org/1999/xlink" x="0px" y="0px"
	 viewBox="0 0 612 792" enable-background="new 0 0 612 792" xml:space="preserve">
<g id="Layer_3">
</g>
<g id="wheel.svg">
	<path fill="#F7F3EA" d="M505,699.5c-57.8,0-104.9-47-104.9-104.9s47-104.9,104.9-104.9s104.9,47,104.9,104.9S562.8,699.5,505,699.5
		z"/>
	<path fill="#F7F3EA" d="M172.8,699.5c-57.8,0-104.9-47-104.9-104.9s47-104.9,104.9-104.9s104.9,47,104.9,104.9
		S230.6,699.5,172.8,699.5z"/>
	<g>
		<circle fill="#938A8B" cx="505" cy="594.6" r="88.9"/>
		<circle fill="#545456" cx="505" cy="594.6" r="78.3"/>
		<circle fill="#2F302F" cx="503.3" cy="594.6" r="54.6"/>
		<circle fill="#7A7B7E" cx="503.3" cy="594.6" r="42"/>
	</g>
	<g>
		<circle fill="#938A8B" cx="172.8" cy="594.6" r="88.9"/>
		<circle fill="#545456" cx="172.8" cy="594.6" r="78.3"/>
		<circle fill="#2F302F" cx="171.1" cy="594.6" r="54.6"/>
		<circle fill="#7A7B7E" cx="171.1" cy="594.6" r="42"/>
	</g>
</g>
</svg>
