<?xml version="1.0" encoding="utf-8"?>
<!-- Generator: Adobe Illustrator 18.0.0, SVG Export Plug-In . SVG Version: 6.00 Build 0)  -->
<!DOCTYPE svg PUBLIC "-//W3C//DTD SVG 1.1//EN" "http://www.w3.org/Graphics/SVG/1.1/DTD/svg11.dtd">
<svg version="1.1" id="Layer_1" xmlns="http://www.w3.org/2000/svg" xmlns:xlink="http://www.w3.org/1999/xlink" x="0px" y="0px"
	 viewBox="0 0 277.1 160.9" enable-background="new 0 0 277.1 160.9" xml:space="preserve">
<g>
	<path fill="#FFFFFF" d="M222.3,130.6H54.8C24.5,130.6,0,106.1,0,75.8l0-21C0,24.5,24.5,0,54.8,0l167.5,0
		c30.3,0,54.8,24.5,54.8,54.8v21C277.1,106.1,252.5,130.6,222.3,130.6z"/>
	<g>
		<path fill="#616264" d="M65.6,61.6c-1.8,0.6-3.7,1.2-5.7,1.7v6.9c0,2.3-1.2,3.4-3.6,3.4h-3.9l-0.8-3.4c1.2,0.1,2.3,0.2,3.4,0.2
			c0.8,0,1.2-0.4,1.2-1.2v-5.2c-2,0.4-4,0.8-6.1,1.1l-0.5-3.6c2.3-0.3,4.5-0.8,6.6-1.2v-5.9h-6.7v-3.4h6.7V48
			c-1.6,0.3-3.3,0.6-5.1,0.9l-0.8-3.4c4.7-0.5,9-1.5,12.7-3l1.2,3.4c-1.4,0.5-2.9,1-4.4,1.4v4h7c-0.2-2.6-0.3-5.5-0.3-8.7h3.6
			c0,3.3,0.1,6.2,0.3,8.7h10.2v3.4h-10c0.2,2.2,0.5,4,0.9,5.5c0.1,0.5,0.3,1,0.4,1.5c1.4-1.7,2.6-3.7,3.7-5.8l3.1,1.6
			c-1.5,3.1-3.3,5.8-5.4,8c0.3,0.8,0.7,1.5,1.1,2.1c1,1.5,1.7,2.3,2.2,2.3c0.4,0,0.8-1.7,1.2-5.2l3.2,1.7c-0.9,4.9-2.2,7.4-3.8,7.4
			c-1.5,0-3.1-1-4.7-3c-0.6-0.8-1.2-1.7-1.7-2.7c-2.3,1.9-4.9,3.4-7.8,4.5l-2-3c3.1-1.2,5.9-2.8,8.3-4.9c-0.4-1.1-0.7-2.2-1-3.4
			c-0.5-1.8-0.9-4-1.2-6.5h-7.3v5.1c2-0.5,3.9-1.1,5.7-1.7V61.6z M80.2,47.3l-2.6,2.6c-1.4-1.5-3.4-3.1-6-4.8l2.4-2.3
			C76.4,44.3,78.5,45.8,80.2,47.3z"/>
		<path fill="#616264" d="M103.6,42.3v7.6l10.2-2.3c-0.1,5.2-0.8,10.7-2.1,16.5l-3.5-1.1c0.9-3,1.5-6.7,2-10.9l-6.7,1.4v12.3h-3.5
			V54.3l-6.2,1.3v11.8c0,1.5,0.8,2.3,2.3,2.3h14.5c1.1,0,1.9-0.2,2.4-0.7c0.5-0.5,0.8-2.1,0.9-4.8l3.3,1.1c-0.3,3.6-0.8,5.8-1.6,6.6
			c-0.8,0.8-2.3,1.1-4.4,1.1h-16c-3.3,0-4.9-1.7-4.9-5.2V56.4l-5,1.1V54l5-1.1V45h3.5v7l6.2-1.4v-8.4H103.6z"/>
		<path fill="#616264" d="M121.8,61v-3.2h30.5V61h-13.1v2.9h9.4V67h-9.4v3.3c1.5,0.1,3.3,0.2,5.3,0.2c3,0,5.6-0.1,7.7-0.1l-1,3.4
			c-2.4,0-4.5,0-6.5-0.1c-5.7,0-9.5-0.5-11.7-1.3c-1.6-0.7-3.1-2-4.4-3.9c-1.3,2.3-2.9,4.2-4.9,5.7l-2.3-3c3.1-2.4,5.1-5.5,6.2-9.5
			l3.4,0.6c-0.3,1.2-0.7,2.3-1.1,3.4c1.3,2,2.8,3.3,4.5,3.8c0.3,0.1,0.7,0.2,1.1,0.3V61H121.8z M147.8,43.5v12.5h-21.4V43.5H147.8z
			 M144.3,48.3v-1.8H130v1.8H144.3z M144.3,51.1H130v1.8h14.3V51.1z"/>
		<path fill="#616264" d="M165.9,70.1H163v-2h-1.9v2.8h-2.9V44.7h7.8V70.1z M163,65.2V47.5h-1.9v17.7H163z M175.7,43.6V46
			c-0.5,3-1.2,6.2-2,9.5c1.2,3,1.8,5.7,2,7.9c0,1.7-0.3,2.9-0.7,3.6c-0.8,0.9-2,1.4-3.8,1.4l-0.9-2.8v8.4h-2.9V43.6H175.7z
			 M172,65.4c0.3-0.1,0.5-0.2,0.6-0.5c0.1-0.3,0.1-0.8,0.1-1.5c0-2.2-0.6-4.7-1.9-7.4c0.8-3.6,1.5-6.7,1.9-9.6h-2.4v18.8
			C171,65.4,171.5,65.4,172,65.4z M183.3,50.1v15.4h-6.8V50.1H183.3z M188.9,43.7V47h-1.2v23.5c0,2.3-1.2,3.4-3.6,3.4h-3.6l-0.7-3
			c1.1,0.1,2.2,0.2,3.2,0.2c1,0,1.6-0.4,1.6-1.3V47h-7.8v-3.3H188.9z M180.8,52.5H179v10.6h1.7V52.5z"/>
		<path fill="#616264" d="M210.8,66.1c0.5,0.5,0.8,1.1,0.8,1.8c0,0.8-0.3,1.4-0.8,1.9c-0.5,0.5-1.2,0.7-1.9,0.7s-1.4-0.3-1.8-0.8
			c-0.5-0.5-0.8-1.1-0.8-1.8c0-0.8,0.2-1.4,0.8-1.8c0.5-0.5,1.1-0.7,1.8-0.7S210.3,65.6,210.8,66.1z M211.2,46.1l-0.9,17.4h-2.9
			l-0.9-17.4H211.2z"/>
	</g>
	<path fill="#B3B5B8" d="M49.8,79.8c60-1.2,120,0.4,179.9,4.7c0,0,0.1-2.1,0-2.1c-59.9-4.3-119.9-5.9-179.9-4.7
		C49.8,77.7,49.8,79.8,49.8,79.8L49.8,79.8z"/>
	<path fill="#FFFFFF" d="M204,120.7c0,0-1.9,30.9,11.8,40.2c0,0-34.8-6.5-42.1-40.2H204z"/>
</g>
<g>
</g>
<g>
</g>
<g>
</g>
<g>
</g>
<g>
</g>
<g>
</g>
<g>
</g>
<g>
</g>
<g>
</g>
<g>
</g>
<g>
</g>
<g>
</g>
<g>
</g>
<g>
</g>
<g>
</g>
</svg>
