<?xml version="1.0" encoding="utf-8"?>
<!-- Generator: Adobe Illustrator 18.0.0, SVG Export Plug-In . SVG Version: 6.00 Build 0)  -->
<!DOCTYPE svg PUBLIC "-//W3C//DTD SVG 1.1//EN" "http://www.w3.org/Graphics/SVG/1.1/DTD/svg11.dtd">
<svg version="1.1" id="Layer_1" xmlns="http://www.w3.org/2000/svg" xmlns:xlink="http://www.w3.org/1999/xlink" x="0px" y="0px"
	 viewBox="0 0 554 228.3" enable-background="new 0 0 554 228.3" xml:space="preserve">
<g>
	<path fill="#FFD25C" d="M487,195.6H66.9c-37,0-66.9-30-66.9-66.9l0-61.7C0,30,30,0,66.9,0L487,0C524,0,554,30,554,66.9v61.7
		C554,165.6,524,195.6,487,195.6z"/>
	<g>
		<path fill="#414042" d="M66.5,74.7c-1.4,3-3.2,5.6-5.1,7.8L58,80c2-1.9,3.7-4.2,5.1-7L66.5,74.7z M75.5,69.3c0,2-1.4,3-4,3H68
			l-0.9-3.5c1.2,0.1,2.2,0.2,3.3,0.2c0.8,0,1.3-0.4,1.3-1.1v-1.4c-2.2,0.6-4.5,1.2-7,1.7L64,66.1c-0.4,2.7-1.2,5-2.5,7l-3-2.6
			c1.2-1.9,1.9-4.3,1.9-7.3v-8h15.1V69.3z M77.5,52.6l-3,2.1c-0.4-0.6-0.7-1.2-1.1-1.7c-3.8,0.5-8.4,0.9-13.7,1.2l-1-3
			c0.6-0.2,1.2-0.5,1.7-1c2.1-2,3.6-3.8,4.6-5.6l3.8,1.2c-1.3,2-2.7,3.7-4.3,5.1c2.2-0.2,4.5-0.4,7-0.7c-0.6-0.7-1.1-1.4-1.6-2.1
			l3-1.9C74.8,48.7,76.4,50.8,77.5,52.6z M71.6,63.2v-4.8h-7.4v1c2.3,0.2,4.5,0.6,6.7,1.1l-1.1,2.7c-1.8-0.4-3.7-0.8-5.6-1.1v0.7
			c0,0.7,0,1.4-0.1,2.2C66.8,64.4,69.3,63.9,71.6,63.2z M75,81.2l-4.1,1c-0.5-3-1-5.5-1.7-7.7l3.9-0.8C73.8,76,74.5,78.5,75,81.2z
			 M83.9,81.3l-4,1c-0.7-3-1.6-5.7-2.5-8l3.9-0.8C82.2,75.9,83.1,78.5,83.9,81.3z M82,45.4v3.1l11-0.6v3.4l-11,0.6v1.4
			c0,0.9,0.3,1.4,0.9,1.4h11v3.6H81.8c-2.4,0-3.6-1.4-3.6-4v-9H82z M82.1,72.1c-2.7,0-4-1.4-4-4.1v-8.6H82v1.7l11-0.6v3.4l-11,0.6
			v2.6c0,0.7,0.4,1.1,1.2,1.1h5.2c0.6,0,1.1-0.2,1.4-0.5c0.4-0.3,0.6-1.2,0.7-2.8l3.8,1.2c-0.3,2.9-0.9,4.6-1.7,5.2
			c-0.8,0.5-1.9,0.8-3.4,0.8H82.1z M94.4,80.1l-3.3,2.4c-1.4-2.3-3.2-4.8-5.5-7.7l3.2-2C91.2,75.6,93.1,78,94.4,80.1z"/>
		<path fill="#414042" d="M102.8,54.2v-3.8h8.4c-0.9-1.6-1.8-3-2.8-4.2l4-1.3c1.1,1.4,2.1,3,2.9,4.6l-1.9,0.8h7.4
			c1-1.6,1.9-3.4,2.7-5.6l4.1,1.2c-0.7,1.6-1.5,3-2.4,4.4h7.2v11.9h-12v3.8h14.4c0,5.3-0.4,8.7-1.1,10.2s-2.4,2.2-5,2.3
			c-1.2,0-2.4,0-3.6-0.1l-1-3.8c1.4,0.1,2.8,0.2,4,0.2c1.2,0,1.9-0.4,2.2-1.3c0.2-0.9,0.4-2.1,0.4-3.7h-10.2v12.3h-4.2V71.5
			c-2.8,3.8-7.4,7.2-13.8,10.1l-2.3-3.8c6.4-2.4,10.8-5,13.2-8h-11.1l1.9-11.2h12.1v-4.4H102.8z M107.8,62.4l-0.8,3.8h9.3v-3.8
			H107.8z M128.4,58.6v-4.4h-8v4.4H128.4z"/>
		<path fill="#414042" d="M163.8,62.6c0,3.9-1.8,6.9-5.5,8.8l-1.4-2.3c2.4-1.5,3.7-3.3,3.9-5.6c-0.2,0-0.5,0.1-0.8,0.1
			c-0.9,0-1.6-0.3-2.2-0.8c-0.6-0.6-0.9-1.3-0.9-2.1c0-0.9,0.3-1.6,0.9-2.2c0.6-0.6,1.3-0.8,2.2-0.8
			C162.5,57.6,163.8,59.3,163.8,62.6z"/>
		<path fill="#414042" d="M202.8,67.6c-2.1,0.7-4.3,1.4-6.6,2v8.1c0,2.6-1.4,4-4.2,4h-4.5l-0.9-4c1.4,0.2,2.7,0.2,4,0.2
			c0.9,0,1.4-0.5,1.4-1.4v-6c-2.3,0.5-4.7,0.9-7.2,1.3l-0.6-4.2c2.7-0.4,5.3-0.9,7.8-1.4v-6.9h-7.8v-4h7.8v-3.7
			c-1.9,0.4-3.9,0.7-6,1l-0.9-4c5.5-0.6,10.5-1.8,14.8-3.5l1.4,3.9c-1.6,0.6-3.4,1.1-5.2,1.6v4.7h8.2c-0.2-3.1-0.3-6.5-0.3-10.2h4.2
			c0,3.8,0.2,7.2,0.4,10.2h12v4h-11.6c0.2,2.6,0.6,4.7,1,6.4c0.2,0.6,0.3,1.2,0.5,1.8c1.6-2,3.1-4.3,4.3-6.8l3.6,1.9
			c-1.8,3.6-3.9,6.8-6.3,9.4c0.4,1,0.8,1.8,1.3,2.4c1.1,1.8,2,2.6,2.6,2.6c0.4,0,0.9-2,1.4-6l3.7,2c-1,5.7-2.5,8.6-4.5,8.6
			c-1.8,0-3.6-1.2-5.5-3.6c-0.7-0.9-1.4-2-2-3.2c-2.7,2.2-5.8,4-9.1,5.3l-2.3-3.6c3.7-1.4,6.9-3.3,9.7-5.8c-0.4-1.3-0.8-2.6-1.2-4
			c-0.6-2.2-1-4.7-1.4-7.6h-8.6v5.9c2.3-0.6,4.6-1.2,6.6-2V67.6z M219.8,50.9l-3,3c-1.6-1.8-4-3.6-7-5.6l2.8-2.7
			C215.4,47.4,217.8,49.1,219.8,50.9z"/>
		<path fill="#414042" d="M261,59.3h-4v-4.6h-25.4v4.6h-4v-8.2h6.8c-0.8-1.6-1.7-3-2.7-4.2l3.3-1.6c1,1.4,2,3.1,3,4.8l-2.1,1h6.4v-6
			h4.1v6h6.3l-2.2-1.2c1.3-1.6,2.3-3.2,3.1-4.7l3.4,1.6c-0.8,1.4-1.7,2.8-2.8,4.2h6.9V59.3z M258.5,82.3h-4v-1.5h-20.2v1.5h-4.1
			V66.8h28.3V82.3z M254.6,56.6v8.6H234v-8.6H254.6z M242.4,72.3v-2.2h-8.1v2.2H242.4z M242.4,77.5v-2.3h-8.1v2.3H242.4z
			 M250.8,59.8h-13v2.5h13V59.8z M246.4,72.3h8v-2.2h-8V72.3z M254.4,77.5v-2.3h-8v2.3H254.4z"/>
		<path fill="#414042" d="M295.7,45.4v5.4c0,0.9-0.1,1.8-0.2,2.6h8.2v4H295c-0.5,2.6-1.2,4.8-2.2,6.7c-1.8,3-4.6,5.4-8.5,7.1
			l-2.1-3.2c3.6-1.7,6.1-3.8,7.4-6.4c0.6-1.2,1-2.6,1.3-4.1h-4.6v-2.7c-2.8,7.6-8,13.3-15.8,17l-2-3.7c7.6-3,12.5-8.6,14.8-16.9
			h-5.5c-0.4,0.6-0.8,1.3-1.3,1.9c1.6,0.5,3.1,1,4.4,1.6l-2,3c-1.6-0.8-3.1-1.5-4.6-2c-1.2,1.3-2.6,2.4-4,3.6l-2.4-3.1
			c4-3,6.7-6.6,8.1-10.8l4.1,0.5l-0.6,1.6h7.8v3.4c-0.2,0.8-0.4,1.7-0.7,2.5h4.7c0.1-0.8,0.1-1.7,0.2-2.6v-5.4H295.7z M269.3,60.6
			c2.6-0.7,5-1.7,7.4-2.8l1,3.1c-2.2,1.2-4.6,2.2-7.2,3.1L269.3,60.6z M276.8,72.5c-0.8,3.8-1.9,7.2-3.2,10l-4.1-1.5
			c1.4-2.5,2.6-5.7,3.6-9.6L276.8,72.5z M284.9,81.2l-4.1,1c-0.2-3.5-0.6-6.6-1-9.3l3.9-0.8C284.2,74.9,284.6,77.9,284.9,81.2z
			 M294.4,81.3l-4.2,1c-0.6-3.7-1.4-7-2.2-9.8l4-0.8C292.9,74.6,293.7,77.8,294.4,81.3z M304.5,68.3l-3.2,2.4
			c-2.3-3.7-4.6-6.9-6.9-9.6l2.9-2.2C299.9,61.8,302.3,64.9,304.5,68.3z M304.4,80.3l-3.8,1.9c-1.4-3.6-2.9-6.8-4.5-9.6l3.5-1.7
			C301.3,73.7,302.9,76.9,304.4,80.3z M303.6,50.7l-3,2.1c-1-1.6-2.3-3.5-4-5.5l2.9-1.8C301.3,47.5,302.6,49.2,303.6,50.7z"/>
		<path fill="#414042" d="M320.8,67.6h-4.2v-9.1c-1.5,2.6-3.3,5-5.4,7.3l-1.5-4c2.8-2.4,5.1-5.2,6.8-8.3h-6v-3.8h6.1v-4h4.2v4h4.7
			v3.8h-4.7v1.2c2,1.2,3.9,2.6,5.9,4.2l-2.4,3.5c-1.4-1.6-2.6-3-3.6-4V67.6z M317.5,70.4c-1,3.8-2.3,7.2-4,10l-3.6-2.3
			c1.6-2.7,2.8-5.6,3.4-8.7L317.5,70.4z M323.8,81.4c-3,0-4.5-1.6-4.5-4.6v-7.6h4.2v6.7c0,1,0.5,1.4,1.6,1.4h8.4
			c0.6,0,1-0.2,1.3-0.6c0.3-0.4,0.6-1.7,0.7-3.8l4,1.4c-0.3,3.4-0.9,5.5-1.7,6.2c-0.8,0.6-1.9,0.9-3.5,0.9H323.8z M332.9,73.2
			l-3.3,2.3c-1-1.6-2.4-3.4-4.1-5.3l3.2-2C330.5,70.1,331.9,71.8,332.9,73.2z M344.1,46.4v20.9h-16.6V46.4H344.1z M340.1,52.4v-2.3
			h-8.5v2.3H340.1z M340.1,58v-2.2h-8.5V58H340.1z M340.1,61.4h-8.5v2.4h8.5V61.4z M347.1,77l-3.6,2.5c-1.4-2.7-3.4-5.7-5.8-9.1
			l3.4-2.1C343.7,71.6,345.7,74.5,347.1,77z"/>
		<path fill="#414042" d="M352.9,61.8l-0.4-2.9c2.4-0.1,4.8-0.2,7-0.2v-1.5h-5.8v-2.7h5.8v-1.2h3.9v1.2h5.9v2.7h-5.9v1.3
			c2.5-0.1,4.8-0.2,7-0.4v2.8l-3.8,0.2l3.8,0.5c-0.1,0.4-0.2,0.7-0.4,1h13.4v10h-11.2v1.2h13.4v4.7c0,2.2-1.4,3.3-4.1,3.3h-4.4
			l-0.9-3.2l4.2,0.1c0.8,0,1.2-0.4,1.2-1.1v-1h-9.4v5.6h-4v-5.6H359v5.2h-4v-8h13.3v-1.2h-11v-10h8.5c0.2-0.5,0.4-1,0.5-1.5
			C362.1,61.4,357.7,61.6,352.9,61.8z M359.5,46.4v-1.2h3.9v1.2h5.9v2.7h-5.9v1.2h7V53h-17.6v-2.7h6.7v-1.2h-5.7v-2.7H359.5z
			 M379.5,65.2h-18.4v1.2h18.4V65.2z M361.1,70h18.4v-1.2h-18.4V70z M380.9,47.8v-2.6h3.9v2.6h2.8V51h-2.8v6.7c0,2.6-1.4,4-4.3,4
			h-5.2l-0.8-3.7c1.6,0.2,3.2,0.2,4.7,0.2c1.1,0,1.7-0.5,1.7-1.5V51h-9.6v-3.1H380.9z M378.2,56l-3,1.6c-0.8-1.8-1.8-3.4-2.8-4.8
			l2.9-1.4C376.4,52.8,377.4,54.3,378.2,56z"/>
		<path fill="#414042" d="M394.9,65.4l-1.4-4.5c4.1-4.5,7.2-9.8,9.2-16l3.9,1.8c-1,3.1-2.4,6.1-4.1,8.9v26.6h-4.2V61.6
			C397.2,62.8,396.1,64.1,394.9,65.4z M407.3,61.6l-3.6-2.2c3-4.4,5-9.2,6.2-14.2l3.9,0.8c-0.3,1.2-0.7,2.4-1,3.6h16.7v2.7
			c-0.6,2.4-1.4,4.8-2.3,7.1l-4-1.2c0.8-1.4,1.4-2.9,2-4.7h-13.8C410.2,56.6,408.8,59.2,407.3,61.6z M413.1,62.6
			c-1.4,5.5-3.2,10.3-5.4,14.4l-3.9-1.4c2.1-3.7,3.9-8.4,5.5-14L413.1,62.6z M410.8,81.9l-0.9-3.9c1.6,0.2,3.2,0.3,4.6,0.3
			c1,0,1.4-0.5,1.4-1.5V56.4h4v21.4c0,2.8-1.4,4.2-4.1,4.2H410.8z M430.5,76l-3.7,1.6c-1.4-5.8-3.1-10.9-4.9-15.3l3.7-1.2
			C427.5,65.8,429.2,70.8,430.5,76z"/>
		<path fill="#414042" d="M457.8,62.6c0,3.9-1.8,6.9-5.5,8.8l-1.4-2.3c2.4-1.5,3.7-3.3,3.9-5.6c-0.2,0-0.5,0.1-0.8,0.1
			c-0.9,0-1.6-0.3-2.2-0.8c-0.6-0.6-0.9-1.3-0.9-2.1c0-0.9,0.3-1.6,0.9-2.2c0.6-0.6,1.3-0.8,2.2-0.8
			C456.5,57.6,457.8,59.3,457.8,62.6z"/>
		<path fill="#414042" d="M490.4,46.6c-1,3.1-2.4,6-4,8.8v26.8h-4.2V61.5c-1.1,1.3-2.2,2.6-3.4,3.8l-1.4-4.5c4.1-4.5,7.1-9.9,9-16
			L490.4,46.6z M514.7,76.8v4.1h-25.4v-4.1H514.7z M511.9,47.5v24.4h-19.8V47.5H511.9z M507.7,57.8v-6.4h-11.4v6.4H507.7z
			 M507.7,61.7h-11.4V68h11.4V61.7z"/>
		<path fill="#414042" d="M76.8,122.6c-2.1,0.7-4.3,1.4-6.6,2v8.1c0,2.6-1.4,4-4.2,4h-4.5l-0.9-4c1.4,0.2,2.7,0.2,4,0.2
			c0.9,0,1.4-0.5,1.4-1.4v-6c-2.3,0.5-4.7,0.9-7.2,1.3l-0.6-4.2c2.7-0.4,5.3-0.9,7.8-1.4v-6.9h-7.8v-4h7.8v-3.7
			c-1.9,0.4-3.9,0.7-6,1l-0.9-4c5.5-0.6,10.5-1.8,14.8-3.5l1.4,3.9c-1.6,0.6-3.4,1.1-5.2,1.6v4.7h8.2c-0.2-3.1-0.3-6.5-0.3-10.2h4.2
			c0,3.8,0.2,7.2,0.4,10.2h12v4H82.9c0.2,2.6,0.6,4.7,1,6.4c0.2,0.6,0.3,1.2,0.5,1.8c1.6-2,3.1-4.3,4.3-6.8l3.6,1.9
			c-1.8,3.6-3.9,6.8-6.3,9.4c0.4,1,0.8,1.8,1.3,2.4c1.1,1.8,2,2.6,2.6,2.6c0.4,0,0.9-2,1.4-6l3.7,2c-1,5.7-2.5,8.6-4.5,8.6
			c-1.8,0-3.6-1.2-5.5-3.6c-0.7-0.9-1.4-2-2-3.2c-2.7,2.2-5.8,4-9.1,5.3l-2.3-3.6c3.7-1.4,6.9-3.3,9.7-5.8c-0.4-1.3-0.8-2.6-1.2-4
			c-0.6-2.2-1-4.7-1.4-7.6h-8.6v5.9c2.3-0.6,4.6-1.2,6.6-2V122.6z M93.8,105.9l-3,3c-1.6-1.8-4-3.6-7-5.6l2.8-2.7
			C89.4,102.4,91.8,104.1,93.8,105.9z"/>
		<path fill="#414042" d="M100.9,120.8l-1.4-4.6c3.2-4.6,5.6-10,7.2-16.3l3.8,1.8c-0.6,2.4-1.4,4.6-2.3,6.8V137h-4v-20.8
			C103.2,117.8,102.1,119.3,100.9,120.8z M122.3,118h-7V137h-4v-35.6h11V118z M118.4,105h-3v3h3V105z M115.3,114.4h3v-3.2h-3V114.4z
			 M124.3,118v-16.6h11.2V133c0,2.5-1.2,3.8-3.5,3.8c-1.6,0-3.2,0-4.7-0.1l-1-3.8c1.6,0.1,3,0.2,4.4,0.2c0.7,0,1-0.4,1-1.3V118
			H124.3z M131.7,105h-3.4v2.9h3.4V105z M128.3,114.5h3.4v-3.2h-3.4V114.5z"/>
		<path fill="#414042" d="M156.1,124.6c-2.7,5-6,9.3-9.7,13l-3.7-2.7c3.8-3.3,7-7.3,9.7-12L156.1,124.6z M173.5,102.1v19.2h-26.4
			v-19.2H173.5z M169.4,106.1h-18.2v11.2h18.2V106.1z M178.1,135l-3.6,2.5c-2.3-3.8-5.5-8-9.6-12.6l3.4-2.1
			C172.6,127.4,175.8,131.5,178.1,135z"/>
		<path fill="#414042" d="M192.4,137.3l-3-2.8c2.4-2.5,3.7-5.6,3.8-9.4v-7.5c-2,2.3-4.2,4.4-6.6,6.4l-2.7-3.6
			c4.5-3.6,8.1-7.6,10.7-12.2h-9.6v-4h11.6c0.6-1.4,1.1-2.8,1.6-4.2l4.3,0.5c-0.4,1.3-0.8,2.5-1.2,3.7h19.1v4h-20.9
			c-0.6,1.2-1.3,2.4-2,3.5h18.1v21.5c0,2.5-1.4,3.7-4.2,3.7h-4l-1-3.8c1.4,0.1,2.6,0.2,3.8,0.2c1,0,1.4-0.5,1.4-1.6v-3h-14.9
			C196,132.2,194.5,135,192.4,137.3z M197,124.8c0,0.2,0,0.3,0,0.4h14.6v-3.1H197V124.8z M211.5,115.3H197v3.2h14.5V115.3z"/>
		<path fill="#414042" d="M240.4,112h1.4v6.8H240v14.9c0,2.1-1.3,3.1-3.8,3.1h-2.2l-0.9-3.4c0.7,0.1,1.4,0.2,2.1,0.2
			c1,0,1.4-0.4,1.4-1.1v-2.5c-1.3,0.5-2.7,1-4.2,1.4l-0.5-1.7c-0.5,2.9-1.4,5.3-2.9,7.3l-2.7-2.5c1.6-2.3,2.5-5.2,2.5-8.7v-7h-2.2
			V112h1.5v-10.7h12.4V112z M238.4,117.4v-2.3H230v2.3H238.4z M232.8,112v-5.3h4.3v-2.3h-5.6v7.6H232.8z M236.5,126.8v-6.4h-4.3v1.9
			c1.4,0.3,2.6,0.7,3.9,1.2l-1.1,2.7c-1-0.4-1.9-0.7-2.8-1v0.5c0,0.9-0.1,1.7-0.2,2.6C233.7,127.8,235.2,127.3,236.5,126.8z
			 M237.1,112v-2.5h-1.6v2.5H237.1z M260.6,121.8v8.3h-2.4l-0.7,2.5h5.1v3.5h-21.3v-3.5h5.5l-0.8-2.5h-2.3v-8.3H260.6z M262.3,117.1
			v3.2h-20.2v-3.2H262.3z M247.7,102.9v-2.6h3.5v2.6h2.2v-2.6h3.5v2.6h4.6v12.7h-18.4v-12.7H247.7z M248.5,108.1v-2.2h-2.2v2.2
			H248.5z M248.5,110.7h-2.2v2.2h2.2V110.7z M257,124.7h-9.7v2.4h9.7V124.7z M253.9,132.6l0.7-2.5h-4.8l0.8,2.5H253.9z M251.2,108.1
			h2.2v-2.2h-2.2V108.1z M253.4,110.7h-2.2v2.2h2.2V110.7z M256,108.1h2.3v-2.2H256V108.1z M258.3,110.7H256v2.2h2.3V110.7z"/>
		<path fill="#414042" d="M284.4,125.4v-2.7h4.2v2.7h13.3v3.8h-13.3v3.3H304v3.8h-35.4v-3.8h15.8v-3.3h-13.6v-3.8H284.4z
			 M289.1,101.6v3.7h-3.7v4.8h4.6v3.8h-4.6v8.4h-4V114h-4.2c-0.5,3.9-2,6.8-4.4,8.8l-3.2-2.8c1.8-1.4,3-3.4,3.4-6.1h-4.4v-3.8h4.6
			v-4.8h-3.6v-3.7H289.1z M277.4,110.1h4v-4.8h-4V110.1z M295.4,102.9v13.7h-4v-13.7H295.4z M293.6,122.8l-0.9-3.9
			c1.7,0.2,3.4,0.3,4.9,0.3c0.8,0,1.2-0.6,1.2-1.9v-16.6h4v17.6c0,3-1.3,4.6-3.8,4.6H293.6z"/>
		<path fill="#414042" d="M330.7,119.8c-2.2,1.7-5.2,3.3-8.8,4.7l-2-3.3c3.8-1.1,6.6-2.3,8.6-3.6h-6.6v-6.8
			c-0.2,0.2-0.5,0.3-0.7,0.4l-2.4-3c-0.2,0.4-0.4,0.8-0.6,1.2v27.7h-4.2v-20.7c-1,1.3-2,2.6-3,3.8l-1.4-4.5c3.4-4.5,6-9.8,7.7-16
			l3.9,1.8c-0.6,2.2-1.4,4.3-2.3,6.4c3.6-2,6.7-4.7,9.4-8.2l4.2,1c-0.4,0.6-0.9,1.2-1.4,1.8h9.4v2.6c-0.7,1-1.5,2-2.2,2.8h6.7v9.7
			h-11.4c1.4,1.5,2.5,3.1,3.3,4.7c2.4-1.2,4.4-2.5,6.1-4.1l2.6,3c-1.8,1.4-3.8,2.7-6,3.8c1.7,2.8,4.2,5.2,7.7,7.4l-2.6,3.2
			c-2.4-2-4.4-4.2-5.9-6.4v0.2c0,2.9-0.5,4.9-1.5,6c-0.8,0.9-2.4,1.5-4.6,1.8c-0.7,0.1-1.5,0.1-2.3,0.1l-1.3-3.8c1.2,0,2.2,0,3-0.1
			c0.8-0.1,1.4-0.4,2-0.9c0.4-0.6,0.7-1.6,0.7-3.2v-0.4c-3.3,2.8-7.5,5.2-12.7,7l-2.1-3.6c6.1-1.9,10.8-4.3,14.1-7.2
			c-0.2-0.6-0.4-1-0.6-1.5c-2.9,2.6-6.7,4.6-11.4,6.2l-2-3.4c5.1-1.4,9-3.3,11.9-5.6C331.4,120.6,331,120.2,330.7,119.8z M333,107.9
			c0.8-0.7,1.6-1.4,2.4-2.2h-7.2c-0.8,0.8-1.7,1.6-2.5,2.2H333z M325.8,111.3v3h5.4v-3H325.8z M340.8,114.2v-3h-5.6v3H340.8z"/>
		<path fill="#414042" d="M388.3,102.4v4h-16c-0.4,1.5-0.9,3-1.4,4.4h15.4v21.3c0,3.2-1.4,4.8-4,4.8h-3.6l-1.1-4.2l3.3,0.2
			c0.8,0,1.2-0.6,1.2-1.7v-16.3h-5.3v20.8h-4v-20.8h-5v20.8h-4v-20.8H359v22h-4.2v-26.1h11.1c0.6-1.4,1.1-2.9,1.4-4.4h-15v-4H388.3z
			"/>
		<path fill="#414042" d="M401.6,119.1v10.7c0,1.4,0.7,2.2,2.1,2.2h19.9c0.6,0,1.2-0.2,1.8-0.7c0.6-0.6,0.9-2.9,1.2-7l4.1,1.3
			c-0.5,5.1-1.2,8.1-2,9c-1,0.9-2.2,1.4-3.8,1.4h-22.3c-3.4,0-5.1-1.8-5.1-5.4v-20.8h4.2v5.3H422V106h-26.3v-4h30.6v17.1H401.6z"/>
		<path fill="#414042" d="M446,132.6h-3.4v-2.4h-2.2v3.2H437v-30.7h9.1V132.6z M442.6,126.8v-20.7h-2.2v20.7H442.6z M457.6,101.5
			v2.8c-0.6,3.5-1.4,7.2-2.3,11.2c1.4,3.6,2.2,6.6,2.3,9.2c0,2-0.3,3.4-0.8,4.2c-0.9,1-2.3,1.6-4.4,1.6l-1-3.2v9.8h-3.4v-35.7H457.6
			z M453.1,127.1c0.3-0.1,0.6-0.3,0.7-0.6c0.1-0.3,0.2-0.9,0.2-1.8c0-2.6-0.8-5.5-2.2-8.7c1-4.2,1.7-7.9,2.3-11.2h-2.8v22
			C452,127,452.6,127.1,453.1,127.1z M466.4,109.1v18h-8v-18H466.4z M473,101.6v3.8h-1.4V133c0,2.6-1.4,4-4.2,4h-4.2l-0.8-3.5
			c1.3,0.2,2.6,0.2,3.8,0.2c1.2,0,1.8-0.5,1.8-1.6v-26.6h-9.1v-3.8H473z M463.4,111.9h-2v12.4h2V111.9z"/>
		<path fill="#414042" d="M498.6,127.8c0.6,0.6,0.9,1.3,0.9,2.2s-0.3,1.6-0.9,2.2c-0.6,0.6-1.4,0.8-2.2,0.8s-1.6-0.3-2.2-0.9
			c-0.6-0.6-0.9-1.3-0.9-2.2s0.3-1.6,0.9-2.2c0.6-0.6,1.3-0.8,2.2-0.8S498,127.3,498.6,127.8z M499,104.5l-1,20.4h-3.4l-1-20.4H499z
			"/>
	</g>
	<path fill="#FCB457" d="M58.3,87.3c153.3-1.1,306.6,0.3,459.6,4.2c-0.1,0,0.1-1.9,0-1.9c-153-3.8-306.3-5.2-459.6-4.2
		C58.2,85.4,58.3,87.3,58.3,87.3L58.3,87.3z"/>
	<path fill="#FCB457" d="M58,141.3c139.7,3.9,279.8,5,419.7,3.1c0.1,0,0-2.5,0-2.5c-139.9,1.9-280,0.9-419.7-3.1
		C58.1,138.8,57.8,141.3,58,141.3L58,141.3z"/>
	<path fill="#FFD25C" d="M183.3,181.4c0,0,2.3,36.1-13.8,47c0,0,40.7-7.6,49.2-47H183.3z"/>
</g>
<g>
</g>
<g>
</g>
<g>
</g>
<g>
</g>
<g>
</g>
<g>
</g>
<g>
</g>
<g>
</g>
<g>
</g>
<g>
</g>
<g>
</g>
<g>
</g>
<g>
</g>
<g>
</g>
<g>
</g>
</svg>
