<?xml version="1.0" encoding="utf-8"?>
<!-- Generator: Adobe Illustrator 21.0.2, SVG Export Plug-In . SVG Version: 6.00 Build 0)  -->
<!DOCTYPE svg PUBLIC "-//W3C//DTD SVG 1.1//EN" "http://www.w3.org/Graphics/SVG/1.1/DTD/svg11.dtd">
<svg version="1.1" id="Layer_1" xmlns="http://www.w3.org/2000/svg" xmlns:xlink="http://www.w3.org/1999/xlink" x="0px" y="0px"
	 viewBox="0 0 200 200" style="enable-background:new 0 0 200 200;" xml:space="preserve">
<style type="text/css">
	.st0{fill:#B1B1B1;}
	.st1{fill:#737373;}
	.st2{fill:#DCDCDC;}
	.st3{fill:#A8A8A8;}
	.st4{fill:#D0D0D0;}
	.st5{fill:#EBEBEB;}
	.st6{fill:#A4A4A4;}
	.st7{fill:#AFAFAF;}
</style>
<title>bond</title>
<rect x="54.8" y="90" transform="matrix(1 -1.047197e-03 1.047197e-03 1 -0.1295 0.1048)" class="st0" width="90.4" height="67.5"/>
<path class="st1" d="M108.6,157.4v-37c-0.1-2.6-2.4-4.7-5-4.5h-5.9c-2.6-0.1-4.9,1.9-5,4.6v37L108.6,157.4z"/>
<rect x="69" y="87.3" transform="matrix(1 -1.047197e-03 1.047197e-03 1 -0.1281 8.037991e-02)" class="st2" width="15.4" height="70.2"/>
<polygon class="st3" points="118.3,94.4 69,94.4 69,92.1 117.1,92 "/>
<rect x="117.1" y="87.2" transform="matrix(1 -1.047197e-03 1.047197e-03 1 -0.128 0.1308)" class="st2" width="15.4" height="70.2"/>
<rect x="117.1" y="92" transform="matrix(1 -1.047197e-03 1.047197e-03 1 -9.752534e-02 0.1368)" class="st3" width="26.9" height="2.4"/>
<rect x="142.9" y="87.2" transform="matrix(1 -1.047197e-03 1.047197e-03 1 -0.128 0.1578)" class="st2" width="15.4" height="70.2"/>
<rect x="142.9" y="92" transform="matrix(1 -1.047197e-03 1.047197e-03 1 -9.749244e-02 0.1577)" class="st3" width="15.4" height="2.4"/>
<rect x="44.2" y="87.3" class="st2" width="15.4" height="70.2"/>
<rect x="44.3" y="92.1" transform="matrix(1 -1.047197e-03 1.047197e-03 1 -9.764696e-02 5.935147e-02)" class="st3" width="24.7" height="2.4"/>
<path class="st4" d="M38.5,89.7c-1.1,0-2.1-0.6-2.5-1.7c-0.4-1,0-2.1,0.9-2.7l62.4-42c1-0.6,2.2-0.6,3.1,0l61.8,41.8
	c0.9,0.6,1.3,1.7,0.9,2.7c-0.4,1-1.4,1.7-2.5,1.7L38.5,89.7z"/>
<path class="st5" d="M100.9,45.3l61.8,41.8L38.5,87.3L100.9,45.3 M100.9,40.5c-1.1,0-2.2,0.3-3.1,0.9l-62.4,42
	c-1.8,1.1-2.6,3.4-1.9,5.4c0.8,2,2.8,3.4,5,3.3L162.7,92c2.2,0,4.2-1.3,5-3.3c0.7-2-0.1-4.2-1.9-5.4L104,41.5
	C103.1,40.8,102,40.5,100.9,40.5L100.9,40.5z"/>
<polygon class="st6" points="100.8,52 53,84.1 148.1,84 "/>
<polygon class="st7" points="101.2,45.3 103.2,46.7 43.4,87.3 38.8,87.3 "/>
</svg>
