<?xml version="1.0" encoding="utf-8"?>
<!-- Generator: Adobe Illustrator 18.0.0, SVG Export Plug-In . SVG Version: 6.00 Build 0)  -->
<!DOCTYPE svg PUBLIC "-//W3C//DTD SVG 1.1//EN" "http://www.w3.org/Graphics/SVG/1.1/DTD/svg11.dtd">
<svg version="1.1" id="Layer_1" xmlns="http://www.w3.org/2000/svg" xmlns:xlink="http://www.w3.org/1999/xlink" x="0px" y="0px"
	 viewBox="0 0 283.9 206.6" enable-background="new 0 0 283.9 206.6" xml:space="preserve">
<g>
	<path fill="#FFFFFF" d="M218.6,155.3H65.2C29.3,155.3,0,126,0,90.1V65.2C0,29.3,29.3,0,65.2,0h153.4c35.9,0,65.2,29.3,65.2,65.2
		v24.9C283.9,126,254.5,155.3,218.6,155.3z"/>
	<g>
		<g>
			<path fill="#EA8C38" d="M68.3,61.7c0.3-0.9,0.5-1.8,0.7-2.8H56.8v11.5c-0.2,8.4-1.5,15.1-4,20.2l-3.2-2.8
				c1.9-4.2,2.8-10,2.9-17.3V54.8h33.3v4.1H73.1c-0.2,1-0.4,1.9-0.7,2.8h10.7v16.2h-8.8v8.8c0,2.6-1.4,3.8-4,3.8h-4l-0.9-4.1
				c1.2,0.2,2.4,0.3,3.5,0.3c0.8,0,1.2-0.4,1.2-1.1v-7.8h-9.8V61.7H68.3z M66.3,80.6c-1.8,3.4-3.8,6.4-6.2,8.9l-3.4-2.4
				c2.3-2.3,4.3-5.1,6-8.3L66.3,80.6z M79,67.9v-2.5H64.2v2.5H79z M79,71.5H64.2v2.6H79V71.5z M86.3,87.3l-3.5,2.4
				c-1.4-2.6-3.4-5.6-6-8.8l3.4-2.1C82.9,82,84.9,84.9,86.3,87.3z"/>
			<path fill="#EA8C38" d="M108.2,61.5H93.9v-4h14.2v-3.8h4.2v3.8h14.3v4h-14.3V72c4,5.4,9.5,9.7,16.4,12.9l-2.3,3.9
				c-5.4-2.7-10.1-6.3-14.1-10.8v12.5h-4.2V78c-3.7,4.3-8.4,8-14,10.9l-2.2-3.8c7-3.4,12.4-7.6,16.2-12.9V61.5z M95.8,76.1L93.2,73
				c3.2-2.6,5.3-6.2,6.4-10.6l3.8,0.7c-0.5,1.9-1.1,3.7-1.8,5.3c1.8,0.9,3.4,1.9,4.9,3.1l-2.2,3.5c-1.5-1.3-3-2.4-4.5-3.3
				C98.7,73.3,97.3,74.9,95.8,76.1z M116.9,75l-2.6-3.3c2.6-2.3,4.4-5.4,5.3-9.3l3.9,0.7c-0.4,1.8-0.9,3.4-1.6,4.9
				c2,1.1,3.9,2.3,5.6,3.8l-2.3,3.6c-1.7-1.6-3.4-3-5.1-4C119.1,72.7,118.1,73.9,116.9,75z"/>
			<path fill="#EA8C38" d="M144.7,53.7c-0.4,2.4-0.8,4.6-1.2,6.6h8.1v2.3c-0.3,6.4-1.7,12-4.3,16.7c2.2,1.6,3.9,3,5.3,4.3l-2.9,3.5
				c-1.3-1.3-2.9-2.7-4.7-4.2c-2.1,2.9-4.7,5.4-7.8,7.5l-2.8-3.5c3-1.9,5.4-4.1,7.4-6.6c-2-1.6-4.2-3.2-6.6-4.9
				c1.2-3.4,2.2-7.1,3.1-11h-4.1v-4.1h5c0.4-2.3,0.8-4.6,1.2-7L144.7,53.7z M147.7,64.4h-5c-0.9,3.9-1.8,7.1-2.8,9.8
				c1.5,1,2.9,1.9,4.2,2.8C146.2,73.3,147.4,69.1,147.7,64.4z M168.6,88.8h-4v-2.4h-6.5v2.4H154V56.7h14.6V88.8z M164.5,82.4V60.8
				h-6.5v21.6H164.5z"/>
			<path fill="#EA8C38" d="M190.4,54v12h5.5v4h-5.5v12.3c2.1-0.6,4-1.1,5.9-1.7v4.2c-5.8,1.9-12.5,3.5-19.9,4.7l-0.6-4.2
				c0.9-0.2,1.8-0.3,2.7-0.4V61.4h4.1v22.7c1.3-0.3,2.5-0.6,3.7-0.8V54H190.4z M201.8,89.4c-3,0-4.5-1.7-4.5-5V53.6h4.2v12.7
				l9.8-0.7v4l-9.8,0.7v13.2c0,1.3,0.5,1.9,1.6,1.9h3.8c0.6,0,1-0.4,1.2-1.1c0.3-0.8,0.5-3.2,0.6-7.1l4,1.3
				c-0.3,5.3-0.9,8.4-1.6,9.4c-0.7,1-1.8,1.5-3.3,1.5H201.8z"/>
			<path fill="#EA8C38" d="M238.5,81.2c0.6,0.6,0.9,1.3,0.9,2.2s-0.3,1.6-0.9,2.2c-0.6,0.6-1.4,0.8-2.2,0.8s-1.6-0.3-2.2-0.9
				c-0.6-0.6-0.9-1.3-0.9-2.2s0.3-1.6,0.9-2.2c0.6-0.6,1.3-0.8,2.2-0.8S237.9,80.7,238.5,81.2z M239,57.9l-1,20.4h-3.4l-1-20.4H239z
				"/>
		</g>
	</g>
	<path fill="#EA8C38" d="M36.4,103.9c66,3.9,132.1,5,198.2,3.1c0,0,0-2.5,0-2.5c-66.1,1.9-132.3,0.9-198.2-3.1
		C36.5,101.4,36.3,103.9,36.4,103.9L36.4,103.9z"/>
	<path fill="#FFFFFF" d="M117.6,155.9c0,0-29.2,43.7-74.6,50.7c0,0,20.9-21,12.7-62L117.6,155.9z"/>
</g>
<g>
</g>
<g>
</g>
<g>
</g>
<g>
</g>
<g>
</g>
<g>
</g>
<g>
</g>
<g>
</g>
<g>
</g>
<g>
</g>
<g>
</g>
<g>
</g>
<g>
</g>
<g>
</g>
<g>
</g>
</svg>
