<?xml version="1.0" encoding="utf-8"?>
<!-- Generator: Adobe Illustrator 18.0.0, SVG Export Plug-In . SVG Version: 6.00 Build 0)  -->
<!DOCTYPE svg PUBLIC "-//W3C//DTD SVG 1.1//EN" "http://www.w3.org/Graphics/SVG/1.1/DTD/svg11.dtd">
<svg version="1.1" id="Layer_1" xmlns="http://www.w3.org/2000/svg" xmlns:xlink="http://www.w3.org/1999/xlink" x="0px" y="0px"
	 viewBox="0 0 86 162.6" enable-background="new 0 0 86 162.6" xml:space="preserve">
<g>
	<g>
		<path fill="#448577" d="M79.2,0C-29,48.3,5.1,162.6,5.1,162.6S113.8,113.4,79.2,0z"/>
	</g>
	<path fill="#80B493" d="M23.9,127.8c2-3.4,4-6.9,5.9-10.4c0,0,0.1,0,0.1,0c0,0,0,0,0,0c1.1-1.9,2.1-3.9,3.2-5.8
		c5.7,3.3,12.3,1.8,18.4-0.7c-1.2,0.5-2.4,0.7-3.6,1.1c-0.1,0-0.2,0-0.4,0c-0.6,0-1.1,0.1-1.7,0.1c-1.3,0-2.5-0.1-3.7-0.4
		c-2.3-0.6-4.4-1.7-6.3-3.2c-0.2-0.2-0.6-0.1-1.1,0.1c2.5-4.8,5-9.7,7.3-14.6c0,0,0.1,0,0.1,0c0,0,0,0,0-0.1
		c0.9-1.9,1.8-3.8,2.7-5.8C51.1,90.7,60,88,64,82.7c-0.8,1.1-4.1,0.4-4.9,1.6c-0.9,1.2-2.1,2-3,3c-0.4,0.2-0.7,0.4-0.9,0.5
		c-0.4,0-0.7,0-1.1,0c-2.7-0.1-5-1.1-7.1-2.7c-0.2-0.1-0.5-0.1-1,0c2.1-4.6,4.1-9.3,6.1-14c0.1,0,0.1,0,0.2,0c0-0.1-0.1-0.1-0.1-0.2
		c0.5-1.1,0.9-2.3,1.4-3.4c0.2-0.1,0.5-0.2,0.7-0.4c7.2-6.6,14-13.8,20.2-21.3c-0.9,1.1-4,0.4-4.9,1.6c-4.4,5.4-9.2,10.5-14.1,15.5
		c4.5-11.5,8.5-23.1,12.1-35c-0.3,0.9-4.6,0.6-4.9,1.6C58.8,42,54.5,54.3,49.7,66.5c-2.8-7-2.7-16.2-3.6-23.1c0,0.3-5,1.2-4.9,1.6
		c1.1,8.5,0.6,20.5,6,27.6c-2.3,5.6-4.8,11.2-7.3,16.7c-3.4-8.2-5.7-16.9-6.9-25.6c0,0.3-5,1.2-4.9,1.6c1.4,10.4,4.4,20.7,8.9,30.2
		c-2.7,5.7-5.6,11.4-8.6,17c-1.5-5.3-2.9-10.6-4.4-15.9c0,0-5,1.5-4.9,1.6c1.9,6.9,3.8,13.9,5.8,20.8c-1.9,3.5-3.9,7-5.9,10.4
		C19.6,128.3,23.2,128.9,23.9,127.8z M46.7,112.4c-0.1,0-0.1,0-0.2,0.1C46.5,112.4,46.6,112.4,46.7,112.4z"/>
</g>
<g>
</g>
<g>
</g>
<g>
</g>
<g>
</g>
<g>
</g>
<g>
</g>
<g>
</g>
<g>
</g>
<g>
</g>
<g>
</g>
<g>
</g>
<g>
</g>
<g>
</g>
<g>
</g>
<g>
</g>
</svg>
