<?xml version="1.0" encoding="utf-8"?>
<!-- Generator: Adobe Illustrator 18.0.0, SVG Export Plug-In . SVG Version: 6.00 Build 0)  -->
<!DOCTYPE svg PUBLIC "-//W3C//DTD SVG 1.1//EN" "http://www.w3.org/Graphics/SVG/1.1/DTD/svg11.dtd">
<svg version="1.1" id="Layer_1" xmlns="http://www.w3.org/2000/svg" xmlns:xlink="http://www.w3.org/1999/xlink" x="0px" y="0px"
	 viewBox="0 0 1280 860.9" enable-background="new 0 0 1280 860.9" xml:space="preserve">
<path fill="#AADCD5" d="M1138.7,470.6c19.4-42.3,4.9-91.4-32.1-116.9c0.9-28.6-15-56.3-42.7-69c-7.6-3.5-15.4-5.5-23.2-6.3
	c-2.3-30.1-20.4-58.1-49.8-71.6c-27-12.4-57.1-9.6-80.7,4.9C900,194.4,884.6,180,865.1,171c-51.1-23.4-111.4-1-134.9,50.1
	c-2,4.3-3.6,8.7-5,13.1c-36.7-14-78.4,2.7-95,38.9c-0.6,1.3-1.1,2.6-1.7,3.9c0,0-0.1,0-0.1-0.1c-32-14.7-69.9-0.6-84.6,31.4
	c-6.7,14.6-7.4,30.3-3.2,44.6c-7.2,6.9-13.2,15.2-17.6,24.8c-18.7,40.9-0.8,89.2,40.1,107.9c11.7,5.4,24.1,7.7,36.2,7.4
	c1.8,13.9,7.6,27,16.7,37.7c-0.7,1.4-1.4,2.7-2.1,4.2c-19,41.4-0.8,90.4,40.6,109.4c15.1,6.9,31.2,8.9,46.5,6.6
	c9.5,17.9,24.7,32.9,44.5,42c34.9,16,74.5,9.1,101.8-14.4c8.3,8.7,18.4,16.1,30,21.4c48.5,22.2,105.8,1.4,128.8-46.6
	c50.2,13.4,104.3-10.9,126.7-59.8c15.8-34.5,12.1-73-6.7-103C1131.1,484.6,1135.3,477.9,1138.7,470.6z"/>
<g>
	<path fill="#F8CA32" d="M1280,320.4c-0.7-0.1-4.6-1.3-11-3.1c-6.4-1.9-15.2-4.5-25.8-7.5c-21.1-6-49.4-13.4-79.1-17.9
		c-7.4-1.1-14.9-2-22.3-2.7c-7.4-0.7-14.8-1.1-21.9-1.3c-14.3-0.3-27.8,0.3-39.3,1.6c-11.5,1.3-21.1,3.2-27.7,4.6
		c-3.3,0.8-5.9,1.3-7.7,1.8c-1.8,0.5-2.7,0.7-2.7,0.7l4.5-3.9l4.6-3.7l2.3-1.9c0.8-0.6,1.6-1.2,2.4-1.8l4.8-3.6
		c20-2.8,40.1-3.2,59.5-1.9c19.4,1.4,38.3,4.5,56.4,8.5c18.2,4.1,35.7,9.2,52.8,14.6C1247,308.6,1263.6,314.5,1280,320.4z"/>
	<path fill="#F8CA32" d="M1198.9,311.5c-0.9-0.1-10.4-2.3-24.4-4.8c-7-1.2-15.1-2.5-23.9-3.5c-8.7-1-18.1-1.8-27.5-2.1
		c-9.4-0.3-18.8-0.2-27.6,0.3c-8.8,0.5-17,1.5-24,2.6c-1.7,0.3-3.4,0.6-5,0.8c-1.6,0.3-3.1,0.6-4.5,0.9c-1.4,0.3-2.7,0.5-4,0.8
		c-1.2,0.3-2.3,0.5-3.3,0.8c-4,0.9-6.3,1.5-6.3,1.5c1.8-1.6,3.6-3.2,5.5-4.8c1.9-1.6,3.7-3.2,5.7-4.6c12-1.9,24.1-2.8,36-3
		c12-0.2,23.8,0.5,35.5,1.7C1154.5,300.4,1177.1,305.4,1198.9,311.5z"/>
	<path fill="#F8CA32" d="M1275.5,351.9c-0.7-0.1-4.6-1.3-10.9-3.1c-6.3-1.9-15-4.5-25.3-7.4c-10.3-2.9-22.2-6.2-35-9.4
		c-12.8-3.1-26.4-6-40-8.2c-6.8-1.1-13.7-2.1-20.4-2.7c-3.4-0.4-6.7-0.6-10-0.9c-1.7-0.1-3.3-0.2-4.9-0.3c-0.8-0.1-1.6-0.1-2.4-0.1
		c-0.8,0-1.6-0.1-2.4-0.1c-1.6-0.1-3.2-0.1-4.8-0.2c-1.6,0-3.1,0-4.7-0.1c-0.8,0-1.5,0-2.3,0c-0.8,0-1.5,0-2.3,0c-1.5,0-3,0-4.5,0.1
		c-2.9,0.1-5.8,0.2-8.6,0.4c-1.4,0.1-2.7,0.2-4.1,0.3c-0.7,0-1.3,0.1-2,0.1c-0.7,0.1-1.3,0.1-1.9,0.2c-5.1,0.5-9.8,1.1-13.9,1.7
		c-2.1,0.3-4,0.6-5.7,0.9c-1.8,0.3-3.4,0.7-4.8,0.9c-0.7,0.1-1.4,0.3-2.1,0.4c-0.6,0.1-1.3,0.3-1.8,0.4c-1.1,0.3-2.1,0.5-2.9,0.7
		c-1.6,0.4-2.4,0.5-2.4,0.5c5.1-4.8,10.6-9.5,16.4-13.9c17.7-2,35.6-2,53.1-0.4c17.5,1.6,34.7,4.7,51.6,8.8
		C1210.3,328.5,1242.9,340.2,1275.5,351.9z"/>
	<path fill="#F8CA32" d="M1192.4,344.1c-0.9-0.1-9.9-2.2-22.8-4.5c-13-2.4-30-4.7-46.7-5.3c-8.4-0.3-16.7-0.3-24.4,0.2
		c-7.7,0.4-14.9,1.3-20.9,2.2c-3,0.5-5.8,0.9-8.2,1.4c-1.2,0.2-2.4,0.5-3.4,0.7c-1.1,0.2-2,0.5-2.9,0.6c-1.7,0.4-3.1,0.7-4,0.9
		c-0.9,0.2-1.4,0.4-1.4,0.4l1.1-1.2l1.2-1.1l2.3-2.2l2.4-2.3l2.4-2.2c10.4-1.5,20.9-2.3,31.5-2.3c10.5,0,21,0.6,31.5,1.8
		C1150.9,333.6,1171.7,338.3,1192.4,344.1z"/>
	<path fill="#F8CA32" d="M1258.2,383c-0.7-0.1-4.6-1.3-10.8-3.1c-6.2-1.8-14.8-4.3-24.7-7.1c-10-2.8-21.4-5.8-33.5-8.6
		c-12-2.8-24.7-5.3-37.2-7.1c-6.2-0.9-12.4-1.6-18.4-2.1c-3-0.3-6-0.4-8.9-0.6c-2.9-0.1-5.8-0.3-8.6-0.3c-5.6-0.1-11,0.1-16.1,0.3
		c-1.3,0.1-2.5,0.2-3.7,0.3c-1.2,0.1-2.4,0.1-3.6,0.3c-2.3,0.3-4.6,0.4-6.8,0.7c-2.2,0.3-4.2,0.5-6.2,0.9c-1.9,0.3-3.8,0.6-5.5,0.9
		c-1.7,0.3-3.3,0.7-4.8,0.9c-1.5,0.3-2.8,0.6-4.1,0.9c-0.6,0.1-1.2,0.3-1.7,0.4c-0.5,0.1-1,0.3-1.5,0.4c-0.9,0.2-1.7,0.5-2.4,0.6
		c-1.3,0.3-2,0.5-2,0.5c4.1-4.7,8.4-9.4,13.1-13.8c7.6-1,15.2-1.7,22.8-1.9c7.6-0.2,15.3,0,23.1,0.6c15.4,1.1,31,3.6,46.6,7.1
		c15.6,3.5,31.3,8,47.1,13.1C1226.1,371.6,1242,377.2,1258.2,383z"/>
</g>
<path fill="#FFD25C" d="M1096.8,677.7c0,0-130.1-128.3-299.2-49.4c-139.1,64.9-108.2,232.7-108.2,232.7S604,657.4,484.8,648.3
	c-119.2-9.2-291.6,160.2-291.6,160.2s96.2-131.2,32.2-279C178.3,420.6,0,383.4,0,383.4s300.2,0,258.6-252.6
	c0,0,248.1,251.1,327.4-130.8c0,0,122.3,376.3,356.2,53.5c0,0-117.7,309.1,303.6,187.3C1245.8,240.8,835.2,394.2,1096.8,677.7z"/>
<path fill="#EDE8E0" d="M1063.7,390.8c0-37.6-24.6-69.4-58.5-80.3C994,236,929.7,178.9,852,178.9c-17.3,0-34,2.9-49.5,8.1
	c-9-37.7-42.8-65.7-83.2-65.7c-46.3,0-84,36.8-85.5,82.7c-10.6-13.4-27-22.1-45.4-22.1c-7.8,0-15.2,1.5-21.9,4.3
	c-8.2-37.1-41.3-64.9-80.9-64.9c-37.3,0-68.8,24.6-79.2,58.4c-14.2-5.2-29.5-8-45.5-8c-73.7,0-133.4,59.7-133.4,133.4
	c0,2.5,0.1,5,0.2,7.5c-45.4,16.5-77.9,60.1-77.9,111.2c0,63.2,49.5,114.8,111.9,118.1c-3.5,9.3-5.4,19.4-5.4,29.9
	c0,47.1,38.1,85.2,85.2,85.2c12.3,0,24-2.6,34.6-7.3c34.7,45.5,89.5,74.9,151.1,74.9c42.3,0,81.4-13.8,113-37.2
	c12.6,30.7,42.8,52.2,78,52.2c24.9,0,47.2-10.8,62.7-27.9c19.2,10.3,41.1,16.1,64.5,16.1c73.7,0,133.8-58.4,136.6-131.4
	c29.6-20.3,49-54.3,49-92.9c0-14.3-2.7-28-7.5-40.5C1047.5,448.1,1063.7,421.3,1063.7,390.8z"/>
<g>
	<path d="M630.1,210.9c0,0-0.9-0.8-2.5-2.2c-0.8-0.7-1.8-1.5-2.9-2.4c-1.1-0.9-2.4-1.9-3.8-2.9c-0.7-0.5-1.5-1-2.3-1.5
		c-0.4-0.3-0.8-0.5-1.2-0.8c-0.4-0.3-0.8-0.5-1.3-0.8c-0.9-0.5-1.7-1.1-2.6-1.5c-0.9-0.5-1.8-1-2.8-1.5c-1-0.5-1.9-1-3-1.4
		c-1-0.4-2-0.9-3.1-1.2c-0.5-0.2-1.1-0.4-1.6-0.6l-1.6-0.5c-0.5-0.2-1.1-0.4-1.6-0.5l-1.7-0.4c-1.1-0.3-2.2-0.6-3.3-0.8
		c-1.1-0.3-2.2-0.4-3.3-0.6c-2.2-0.3-4.4-0.6-6.6-0.7l-0.8-0.1l-0.4,0l-0.4,0c-0.5,0-1.1,0-1.6,0c-1,0-2,0-3,0c-2,0-3.9,0.2-5.6,0.3
		c-1.7,0.2-3.3,0.4-4.8,0.6c-1.4,0.3-2.7,0.5-3.7,0.7c-2.1,0.4-3.2,0.7-3.2,0.7s0.3-0.2,0.7-0.4c0.5-0.3,1.2-0.7,2.2-1.2
		c0.9-0.5,2.1-1,3.5-1.6c1.4-0.5,3-1.1,4.7-1.6c1.8-0.5,3.7-0.9,5.8-1.3c1.1-0.2,2.1-0.3,3.3-0.4c0.6-0.1,1.1-0.1,1.7-0.1l0.4,0
		l0.5,0l0.9,0c1.2,0,2.3,0,3.5,0c1.2,0.1,2.4,0.1,3.6,0.3c1.2,0.2,2.4,0.3,3.6,0.6c1.2,0.2,2.4,0.5,3.6,0.8l1.8,0.5
		c0.6,0.2,1.2,0.4,1.8,0.6l1.7,0.6c0.6,0.2,1.1,0.5,1.7,0.7c0.6,0.2,1.1,0.5,1.7,0.7c0.5,0.3,1.1,0.5,1.6,0.8
		c1.1,0.5,2.1,1.1,3.1,1.7c1,0.6,2,1.2,2.9,1.8c0.9,0.6,1.8,1.3,2.6,1.9c0.8,0.6,1.6,1.3,2.4,2c0.7,0.7,1.4,1.3,2.1,2
		c0.6,0.7,1.3,1.3,1.8,1.9c0.5,0.6,1,1.2,1.5,1.8c0.9,1.1,1.7,2.2,2.3,3.1C629.5,209.8,630.1,210.9,630.1,210.9z"/>
</g>
<g>
	<path fill="#A7A9AC" d="M806.7,204c0,0-0.3-1.1-0.8-3.2c-0.2-1-0.6-2.3-1.1-3.8c-0.2-0.7-0.5-1.5-0.7-2.3c-0.3-0.8-0.6-1.7-0.9-2.6
		c-1.4-3.7-3.2-8.1-5.7-12.8c-0.6-1.2-1.3-2.4-2-3.6c-0.7-1.2-1.5-2.4-2.3-3.7c-0.8-1.2-1.4-2.6-2.1-4c-0.4-0.7-0.8-1.3-1.2-2
		s-0.8-1.4-1.3-2c-3.6-5.4-8-10.8-13.5-15.8c-1.3-1.3-2.8-2.4-4.3-3.7c-1.5-1.1-3-2.4-4.6-3.4c-3.2-2.2-6.6-4.3-10.2-6.1
		c-3.6-1.8-7.4-3.5-11.3-4.8c-3.9-1.3-8-2.4-12.2-3.1c-4.2-0.7-8.4-1.2-12.6-1.2c-0.9,0-2.3,0-3.3,0c-1,0-2.1,0.1-3.2,0.1
		c-2.2,0.1-4.3,0.4-6.4,0.6c-8.6,1.2-16.9,3.6-24.5,7.2c-7.6,3.6-14.5,8.4-20.2,14.1c-5.7,5.6-10.2,12-13.7,18.5
		c-3.4,6.5-5.8,13.2-7.4,19.5c-0.9,3.1-1.1,6.3-2.1,9.1c-0.8,2.9-1.5,5.7-2,8.3c-1.1,5.3-1.8,10-2.2,14c-0.2,2-0.4,3.7-0.5,5.3
		c-0.1,1.5-0.2,2.9-0.3,3.9c-0.1,2.1-0.2,3.3-0.2,3.3s-0.2-1.1-0.7-3.2c-0.4-2.1-1.1-5.2-1.6-9.2c-0.5-4-1.1-8.9-1.1-14.6
		c0-2.8,0-5.9,0.2-9.1c0-3.3,1.2-6.5,1.9-10c1.7-6.9,4.3-14.2,8.1-21.5c3.8-7.3,8.9-14.4,15.3-20.7c6.4-6.3,14.1-11.8,22.6-15.8
		c8.5-4,17.8-6.7,27.2-8c2.4-0.3,4.7-0.5,7.1-0.7c1.2-0.1,2.4-0.1,3.6-0.2c1.3,0,2.2-0.1,3.5,0c4.8,0,9.5,0.5,14.2,1.3
		c4.6,0.8,9.1,2,13.5,3.5c4.4,1.5,8.5,3.3,12.5,5.3c4,2,7.7,4.3,11.2,6.8c1.8,1.2,3.4,2.5,5.1,3.8c1.6,1.4,3.2,2.7,4.7,4.1
		c6.1,5.5,11,11.5,14.9,17.5c1,1.5,1.9,3,2.8,4.4c0.9,1.5,1.8,2.9,2.4,4.4c0.6,1.5,1.1,3,1.6,4.5c0.4,1.5,0.9,2.9,1.3,4.3
		c1.5,5.6,2.2,10.6,2.5,14.6c0.1,1,0.2,2,0.2,2.9c0.1,0.9,0,1.8,0.1,2.6c0,1.6,0,2.9,0,4C806.8,202.9,806.7,204,806.7,204z"/>
</g>
<path fill="#A7A9AC" d="M1006.2,475.5c1-0.7,2-1.5,3-2.2l3-2.2l2.9-2.3l2.8-2.4c3.6-3.2,7.1-6.6,10.2-10.2
	c7.1-6.4,13.2-13.7,18.2-21.8c10-16.1,15.6-35.2,12.8-53.9c-1.2-9.3-4.2-18.4-8.7-26.7c-4.5-8.3-10.4-15.8-17.4-22.1
	c-7-6.3-15.1-11.6-23.7-15.6c-4.1-2.5-8.3-4.8-12.7-7c-2.2-1-4.4-2.1-6.7-3c-2.3-1-4.6-1.8-6.9-2.8c2.5,0.2,5,0.4,7.5,0.7
	c2.5,0.3,5,0.7,7.5,1.2c5,1,9.9,2.3,14.7,3.9c9.2,4.4,17.9,10,25.5,16.9c7.6,6.9,14.1,15.1,19,24.2c4.9,9.1,8.1,19.1,9.5,29.3
	c0.7,5.1,0.9,10.3,0.6,15.5c-0.3,5.2-1.1,10.3-2.4,15.3c-2.5,10-6.7,19.5-12.1,28.2c-5.4,8.7-12,16.6-19.6,23.5
	c-4.2,3-8.5,5.7-13.1,8l-3.4,1.6l-3.5,1.5l-3.5,1.3C1008.6,474.8,1007.4,475.2,1006.2,475.5z"/>
<g>
	<path fill="#A7A9AC" d="M755.8,705.2c0,0,1.2,0.5,3.4,1.3c2.2,0.9,5.6,2,9.8,3.4c4.2,1.4,9.4,2.9,15.4,4.5c3,0.8,6.2,1.5,9.5,2.3
		c1.7,0.4,3.4,0.7,5.2,1.1c1.8,0.3,3.6,0.8,5.3,1.3c3.6,1.1,7.4,2,11.3,2.8c3.9,0.8,8,1.6,12.2,2.2c4.2,0.6,8.5,1,12.9,1.1l1.6,0
		l1.7,0l1.7,0l1.7-0.1c1.1,0,2.2-0.1,3.4-0.2c1.1-0.1,2.3-0.2,3.4-0.3c9.2-0.8,18.6-2.7,27.9-5.5c9.3-2.9,18.4-6.8,27-11.6
		c8.6-4.8,16.7-10.6,23.9-17c7.2-6.4,13.7-13.6,19-21.1c5.4-7.5,9.7-15.3,13.1-23.1c3.4-7.8,5.7-15.4,7.3-22.6
		c0.4-1.8,0.7-3.6,1.1-5.3c0.1-0.9,0.3-1.7,0.4-2.6c0.1-0.9,0.2-1.7,0.3-2.5c0.8-3.3,1.4-6.4,2-9.4c0.2-1.5,0.5-3,0.7-4.4
		c0.2-1.4,0.4-2.8,0.5-4.1c0.1-1.3,0.3-2.6,0.4-3.8c0.1-1.2,0.2-2.4,0.3-3.5c0.3-4.4,0.5-7.9,0.5-10.3c0-2.4,0.1-3.7,0.1-3.7
		s0.3,1.2,0.9,3.6c0.6,2.3,1.4,5.8,2.1,10.3c0.7,4.5,1.4,10,1.6,16.4c0.1,3.2,0.2,6.6,0,10.2c-0.1,1.8-0.6,3.6-0.9,5.5
		c-0.3,1.9-0.7,3.8-1.1,5.7c-1.7,7.7-4.2,15.9-7.8,24.3c-3.6,8.3-8.3,16.7-14,24.7c-5.8,8-12.6,15.7-20.4,22.6
		c-7.7,6.9-16.4,13-25.5,18.1c-9.2,5.1-18.9,9.3-28.8,12.3c-9.9,3-19.9,5-29.8,5.9c-1.2,0.1-2.5,0.2-3.7,0.3
		c-1.2,0.1-2.4,0.2-3.7,0.2l-1.8,0.1l-1.7,0l-1.7,0c-0.6,0-1.3,0-1.9,0c-4.8-0.1-9.5-0.6-13.9-1.2c-4.5-0.6-8.8-1.4-12.9-2.3
		c-4.1-0.8-8-1.9-11.8-2.8c-1.9-0.4-3.7-1-5.5-1.7c-1.7-0.7-3.4-1.3-5.1-2c-3.3-1.3-6.4-2.7-9.2-4c-5.7-2.7-10.6-5.3-14.5-7.5
		c-3.9-2.2-6.9-4.1-8.9-5.5c-1-0.7-1.8-1.2-2.3-1.5C756,705.4,755.8,705.2,755.8,705.2z"/>
</g>
<g>
	<path fill="#EDE8E0" d="M947.9,567.7c-7.6-19.9-23.2-43.4-36-54.4c-40.5-34.8-110.6-37.1-148.5,20.9"/>
	<path fill="#A7A9AC" d="M947.9,567.7c0,0-0.4-0.8-1.2-2.4c-0.4-0.8-0.9-1.7-1.5-2.8c-0.6-1.1-1.3-2.4-2.1-3.8
		c-1.5-2.8-3.6-6.1-6-9.9c-2.4-3.8-5.3-7.9-8.6-12.3c-3.3-4.4-7-9-11.3-13.4c-2.1-2.2-4.4-4.5-6.8-6.4l-0.9-0.7l-1-0.8l-1-0.8
		l-1-0.7c-1.3-1-2.7-1.9-4-2.8c-5.5-3.7-11.6-7-18-9.7c-6.4-2.7-13.2-4.7-20.2-6.1c-3.5-0.7-7-1.2-10.5-1.5c-3.5-0.3-7-0.5-10.5-0.5
		c-6.9,0-13.8,0.8-20.2,2.2c-6.5,1.4-12.6,3.4-18.2,5.9c-2.8,1.2-5.5,2.5-8,4c-2.5,1.4-4.9,2.8-7.2,4.4c-2.2,1.5-4.3,3-6.3,4.5
		c-2,1.5-3.8,3-5.4,4.5c-3.3,3-6,5.7-8.2,8.1c-2.2,2.4-3.8,4.3-4.9,5.6c-1.1,1.3-1.7,2-1.7,2s0.4-0.8,1.3-2.4
		c0.9-1.5,2.1-3.7,3.9-6.5c1.8-2.7,4.1-6,7.1-9.4c3-3.5,6.6-7.2,11-10.8c4.4-3.6,9.5-7.2,15.3-10.3c2.9-1.5,6-3,9.2-4.2
		c3.2-1.3,6.6-2.4,10.1-3.3c7-1.8,14.4-2.9,22-3.1c7.6-0.2,15.3,0.5,22.9,2.1c7.5,1.5,14.9,4,21.8,7.1c6.9,3.1,13.3,7,19,11.3
		c1.4,1.1,2.8,2.2,4.2,3.4l1,0.9l0.9,0.8l0.9,0.8l1,0.9c2.6,2.4,4.8,5,6.9,7.5c4.1,5.1,7.6,10.1,10.5,14.9c2.9,4.8,5.4,9.3,7.4,13.4
		c2,4.1,3.6,7.7,4.7,10.8c0.6,1.5,1.1,2.9,1.5,4.1c0.4,1.2,0.8,2.2,1,3C947.7,566.8,947.9,567.7,947.9,567.7z"/>
</g>
<g>
	<path fill="#EDE8E0" d="M377.1,557.2c-3.8,24.1,6.9,49.2,29,62.6c15.6,9.5,33.8,11.3,50,6.4"/>
	<path fill="#A7A9AC" d="M377.1,557.2c0,0,0.1,0.5,0.3,1.5c0.2,0.9,0.4,2.4,0.9,4.1c0.5,1.7,0.9,3.6,1.7,5.9
		c0.2,0.6,0.3,1.1,0.5,1.7c0.2,0.6,0.4,1.2,0.7,1.8c0.3,0.6,0.3,1.2,0.3,1.9c0,0.7,0.1,1.3,0.2,2c0.2,1.3,0.4,2.7,0.8,4.2
		c0.4,1.4,0.7,2.9,1.2,4.4c0.2,0.7,0.5,1.5,0.7,2.3c0.3,0.7,0.6,1.5,0.9,2.2c0.6,1.5,1.4,3,2.1,4.5c0.4,0.8,0.8,1.5,1.2,2.2
		c0.4,0.7,0.9,1.5,1.3,2.2c0.5,0.7,1,1.4,1.5,2.2c0.5,0.7,1,1.5,1.6,2.1c0.6,0.7,1.1,1.4,1.7,2.1c0.6,0.7,1.2,1.3,1.8,2
		c0.6,0.6,1.2,1.4,1.9,1.9l2,1.8c0.6,0.6,1.4,1.2,2.1,1.7l2.1,1.7c0.8,0.5,1.5,1,2.3,1.5l1.1,0.7l0.3,0.2c0.1,0.1-0.1-0.1-0.1,0l0,0
		l0.1,0l0.2,0.1l0.6,0.4l1.2,0.7c0.4,0.2,0.8,0.5,1.2,0.7c0.8,0.4,1.5,0.8,2.3,1.1c0.8,0.4,1.6,0.7,2.4,1c0.8,0.4,1.6,0.6,2.4,0.9
		c3.2,1.1,6.4,2,9.4,2.6c3.1,0.5,6,0.8,8.7,0.9c0.7,0,1.3,0,2,0c0.3,0,0.6-0.1,1-0.1c0.3,0,0.6,0.1,0.9,0.1c1.3,0.3,2.5,0.5,3.6,0.7
		c1.2,0.2,2.2,0.4,3.3,0.5c1,0.1,2,0.3,2.8,0.3c0.9,0.1,1.6,0.1,2.3,0.2c0.7,0,1.3,0.1,1.7,0.1c1,0.1,1.5,0.1,1.5,0.1
		s-0.4,0.3-1.2,0.8c-0.4,0.3-0.9,0.6-1.5,1c-0.6,0.4-1.3,0.7-2.1,1.2c-0.8,0.4-1.7,0.9-2.7,1.3c-1,0.5-2.1,0.9-3.3,1.4
		c-1.2,0.5-2.5,0.8-3.9,1.3c-0.7,0.3-1.4,0.3-2.2,0.2c-0.8-0.1-1.5,0-2.3,0c-3.1-0.1-6.5-0.4-10.1-1c-3.5-0.6-7.2-1.6-10.9-3
		c-0.9-0.4-1.9-0.7-2.8-1.1c-0.9-0.4-1.8-0.8-2.8-1.2c-0.9-0.5-1.9-0.9-2.8-1.4c-0.5-0.2-0.9-0.5-1.3-0.7l-1.2-0.7l-0.6-0.4
		l-0.4-0.2l-0.3-0.2l-1.3-0.9c-0.9-0.6-1.7-1.2-2.6-1.7l-2.5-1.9c-0.8-0.6-1.7-1.3-2.4-2l-2.3-2.1c-0.8-0.7-1.5-1.5-2.2-2.2
		c-0.7-0.8-1.5-1.5-2.1-2.3c-0.7-0.8-1.3-1.6-2-2.4c-0.7-0.8-1.3-1.6-1.8-2.5c-0.6-0.8-1.2-1.7-1.7-2.5c-0.5-0.9-1-1.7-1.5-2.6
		c-0.5-0.9-1-1.7-1.4-2.6c-0.9-1.8-1.8-3.5-2.4-5.2c-0.4-0.9-0.7-1.7-1.1-2.6c-0.3-0.9-0.6-1.7-0.9-2.6c-0.6-1.7-1-3.4-1.4-5.1
		c-0.5-1.6-0.7-3.3-1-4.8c-0.1-0.8-0.3-1.5-0.4-2.3c-0.2-0.7-0.3-1.5-0.2-2.2c0.1-0.7,0.2-1.4,0.3-2.1c0.1-0.7,0.3-1.3,0.4-2
		c0.5-2.5,1.3-4.7,1.9-6.4c0.3-0.9,0.6-1.6,0.9-2.2c0.3-0.6,0.5-1.2,0.8-1.6C376.9,557.7,377.1,557.2,377.1,557.2z"/>
</g>
<g>
	<path fill="#EDE8E0" d="M710.3,674.4c21.5,11.4,48.7,9.5,68.6-7c14.1-11.7,21.7-28.3,22.4-45.2"/>
	<path fill="#A7A9AC" d="M710.3,674.4c0,0,0.5,0,1.5,0.2c0.9,0.1,2.4,0.4,4.1,0.5c1.8,0.1,3.7,0.3,6.1,0.4c0.6,0,1.2,0,1.8,0.1
		c0.6,0,1.3,0,1.9-0.1c0.6,0,1.3,0.1,1.9,0.4c0.6,0.3,1.3,0.3,2,0.4c1.3,0.2,2.7,0.5,4.2,0.6c1.5,0.1,3,0.3,4.5,0.3
		c0.8,0,1.6,0,2.4,0c0.8,0,1.6-0.1,2.4-0.1c1.6,0,3.3-0.3,5-0.5c0.8-0.1,1.7-0.3,2.5-0.4c0.8-0.2,1.7-0.3,2.6-0.5
		c0.8-0.2,1.7-0.5,2.5-0.7c0.9-0.2,1.7-0.5,2.5-0.8c0.8-0.3,1.7-0.6,2.5-0.9c0.8-0.3,1.6-0.7,2.5-1.1c0.8-0.4,1.7-0.7,2.4-1.2
		l2.4-1.3c0.8-0.4,1.6-0.9,2.3-1.4l2.3-1.5c0.7-0.6,1.4-1.1,2.1-1.6l1.1-0.8l0.3-0.2c0.1-0.1-0.1,0.1-0.1,0.1l0,0l0.1-0.1l0.1-0.1
		l0.5-0.5l1.1-0.9c0.4-0.3,0.7-0.6,1-0.9c0.6-0.6,1.2-1.2,1.8-1.8c0.6-0.6,1.2-1.3,1.8-1.9c0.6-0.6,1.1-1.3,1.7-2
		c2.1-2.6,4-5.4,5.5-8.1c1.5-2.7,2.7-5.4,3.7-8c0.2-0.6,0.5-1.3,0.6-1.9c0.1-0.3,0.1-0.6,0.2-0.9c0.1-0.3,0.3-0.6,0.4-0.8
		c0.7-1.1,1.3-2.2,1.8-3.2c0.6-1,1.1-2,1.5-2.9c0.5-0.9,0.9-1.8,1.2-2.6c0.3-0.8,0.7-1.5,0.9-2.1c0.3-0.6,0.5-1.2,0.6-1.6
		c0.4-0.9,0.6-1.4,0.6-1.4s0.1,0.5,0.4,1.4c0.1,0.5,0.3,1.1,0.4,1.7c0.1,0.7,0.3,1.5,0.4,2.4c0.2,0.9,0.3,1.9,0.4,3
		c0.1,1.1,0.2,2.3,0.2,3.6c0.1,1.3,0,2.7-0.1,4.2c0,0.8-0.2,1.5-0.6,2.1c-0.3,0.7-0.5,1.4-0.8,2.2c-1.1,3-2.5,6.1-4.2,9.2
		c-1.8,3.1-3.9,6.3-6.4,9.4c-0.6,0.8-1.2,1.5-1.9,2.3c-0.7,0.7-1.4,1.5-2,2.2c-0.7,0.7-1.5,1.5-2.3,2.2c-0.4,0.4-0.7,0.7-1.1,1
		l-1.1,0.9l-0.5,0.5l-0.4,0.3l-0.3,0.2l-1.2,0.9c-0.8,0.6-1.7,1.3-2.5,1.9l-2.6,1.7c-0.9,0.6-1.7,1.2-2.7,1.6l-2.8,1.5
		c-0.9,0.5-1.9,0.9-2.8,1.3c-1,0.4-1.9,0.9-2.9,1.2c-1,0.4-1.9,0.7-2.9,1.1c-1,0.4-2,0.7-2.9,0.9c-1,0.3-2,0.6-2.9,0.8
		c-1,0.2-2,0.4-3,0.6c-1,0.2-1.9,0.4-2.9,0.5c-1.9,0.3-3.9,0.5-5.8,0.6c-0.9,0.1-1.9,0.1-2.8,0.2c-0.9,0-1.8,0-2.7,0
		c-1.8,0-3.5-0.2-5.2-0.3c-1.7-0.1-3.3-0.4-4.9-0.7c-0.8-0.1-1.5-0.3-2.3-0.4c-0.8-0.1-1.5-0.2-2.1-0.6c-0.7-0.3-1.3-0.6-1.9-1
		c-0.6-0.4-1.2-0.7-1.7-1c-2.2-1.3-4.1-2.7-5.5-3.9c-0.7-0.5-1.3-1.1-1.8-1.6c-0.5-0.5-0.9-0.9-1.3-1.2
		C710.6,674.8,710.3,674.4,710.3,674.4z"/>
</g>
<g>
	<path fill="#FFFFFF" d="M713,294.4l-12.9,8.3c-12-0.2-48.4-0.9-56.6-1.1c0-0.1,0-0.1,0-0.1c0,0-2.7,0.1-3,0.1c-0.3,0-3-0.1-3-0.1
		c0,0,0,0,0,0.1c-9.8,0.2-60.4,1.1-60.4,1.1s-27.3,34.6-25,78.8c2.5,47.9,36.4,43.7,77.3,42c28.1,1.2,46.2-2.7,63-23.7h31.6
		C762.4,356.4,713,294.4,713,294.4z"/>
</g>
<g>
	<path fill="#3BB7A3" d="M722.2,358.4c0,0-22.2-11.3-9.9-34C712.2,324.4,734.5,329,722.2,358.4z"/>
	<g>
		<path fill="#797A7D" d="M723.5,357.9c-13.1-6.7-16.4-21.1-9.9-33.8c-0.9,0.3-1.7,0.5-2.6,0.8c3.6,0.8,7,3.1,9.3,5.8
			c6.8,7.8,3.8,19.4,0.4,27.9c-0.2,0.4,2.6,0.2,2.8-0.5c3.6-8.9,6.2-19.9-0.3-28.1c-2.4-3-6.1-5.3-9.8-6.1c-0.6-0.1-2.3,0.2-2.6,0.8
			c-4.4,8.5-5.2,17.5,0.3,25.6c2.4,3.5,5.9,6.6,9.7,8.6C721.5,359.2,723.8,358,723.5,357.9z"/>
	</g>
</g>
<polygon fill="#ABADB0" points="483.5,415 500.8,455.6 450.8,450.6 447.8,421.6 "/>
<path fill="#E57C39" d="M292.3,358.8c0,0-25.9,13.2-34.9,88.5L276,479c0,0,144.1-4.1,181.7-23l-6.9-27.1l35.3-7.8
	c0,0-20.3-57.9-70.2-58.1L292.3,358.8z"/>
<path fill="#D54849" d="M425.9,370.8L411.7,399c-2.4,5.5-9.4,7-13.9,3l-12.2-10.8l-10.9,16.2c-2.6,3.8-7.7,5-11.7,2.7l-32.1-18.7
	L425.9,370.8z"/>
<path fill="#CB7639" d="M312.8,463.6l7.5-25.1c0.2-0.8-0.2-1.4-0.5-0.6l-8.9,24.6L312.8,463.6z"/>
<g>
	<linearGradient id="SVGID_1_" gradientUnits="userSpaceOnUse" x1="746.7532" y1="447.8936" x2="966.522" y2="447.8936">
		<stop  offset="0" style="stop-color:#C0C2C4"/>
		<stop  offset="1" style="stop-color:#ADAFB2"/>
	</linearGradient>
	<path fill="url(#SVGID_1_)" d="M905.9,365.1c0,0,37.3,22.7,52.9,63.8s6.7,61.2-17.8,75.1c-22.1,12.5-33.3,16-42.6,23.9
		c-2.1,1.8-4.7,2.8-7.4,2.8h-21.4c-6.3,0-11.6-5-11.8-11.3c-0.2-8,1.1-19.6,8-32.2h-25.2c0,0,5.9,8.5,9,16.6
		c1.5,3.9-0.6,8.2-4.5,9.5l-29.7,9.9c-2,0.7-4.2,0.4-6-0.6c-6.7-3.9-24-13.7-37.8-19.6c-17.6-7.5-30.1-31.3-22.6-51.4
		c7.5-20.1,50.5-68,50.5-68L905.9,365.1z"/>
	<path fill="#F5B949" d="M770.9,417.9l69.7,69.4h25.2l15.2-14l73.8-53.8c0,0-24.5-46.7-57.7-56.5l-97.5,20.6L770.9,417.9z"/>
	<ellipse fill="#2F8F6D" cx="855.2" cy="399" rx="56.1" ry="39.3"/>
	<ellipse fill="#91929D" cx="853" cy="392.8" rx="49.6" ry="34.8"/>
	<path fill="#ABADB0" d="M782.3,221c0,0-1-3.9,7.8-5.2s21.1-0.3,27.7,8.8c6.7,9.1,9.7,13.4,9.7,13.4l-25.7,18.5
		c0,0-6.3-19-11.6-24.8C785,225.8,782.2,225.1,782.3,221z"/>
	
		<linearGradient id="SVGID_2_" gradientUnits="userSpaceOnUse" x1="530.3088" y1="687.9197" x2="575.2357" y2="789.6658" gradientTransform="matrix(0.9706 0.2409 -0.2409 0.9706 500.1178 -529.1759)">
		<stop  offset="0" style="stop-color:#C7C8CA"/>
		<stop  offset="1" style="stop-color:#B1B3B6"/>
	</linearGradient>
	<path fill="url(#SVGID_2_)" d="M951.4,255c0.7-3.8-1.5-7.6-5.2-8.9c-28.6-10-46.3,12.3-46.3,12.3l0,0c-2.7-2.4-5.6-4.6-8.7-6.6
		c-22.8-14.6-54.8-22.1-79.6-7.8c-4.3,2.5-8.3,5.6-11.9,9.5c-21.2,22.7-20.4,48-28.8,76.5c-5.6,19.1-14.6,35.1-3.4,54.2
		c8.7,14.8,24.5,25.3,40.7,30c77.7,22.7,104.7-34.2,107.7-46.3c4-16.2,7.4-32.8,7.8-49.6c0.2-9.2-0.8-18.1-3.1-26.4
		c-2.2-7.9,2.6-16,10.6-17.9c0.1,0,0.1,0,0.2,0C945.9,270.5,950.2,261.4,951.4,255z"/>
	<path fill="#5F6062" d="M785.5,348.6c-0.6,1-1.2,2.1-1.5,3.2c-0.4,1.1-0.5,2.2-0.5,3.3c0,1.1,0.6,2,0.8,2.9c0.1,0.5,0.4,1,0.5,1.5
		c0.2,0.5,0.5,1.1,0.6,1.8l0,0c0,0.1,0,0.1-0.1,0.2c0,0,0,0-0.1,0c-1.3-0.3-2.5-1.2-3.2-2.4c-0.4-0.6-0.6-1.3-0.7-2l0-1.1
		c0-0.3,0.1-0.7,0.1-1c0.2-1.4,0.7-2.6,1.3-3.7c0.7-1.1,1.5-2.1,2.4-2.9c0.1,0,0.1,0,0.2,0C785.5,348.4,785.6,348.5,785.5,348.6
		L785.5,348.6z"/>
	<path fill="#5F6062" d="M831.9,356.8c1,0.9,1.7,2.2,2.1,3.6c0.4,1.4,0.4,2.9,0.1,4.3c-0.3,1.4-0.8,2.9-1.7,4c-0.5,0.5-1,1-1.6,1.4
		c-0.6,0.4-1.2,0.7-2,0.9c-0.1,0-0.1,0-0.2-0.1c0,0,0-0.1,0-0.1l0,0c0.2-0.7,0.5-1.3,0.8-1.9c0.3-0.6,0.6-1.2,0.9-1.7
		c0.2-0.6,0.6-1,0.9-1.5l0.5-0.8l0.4-0.8c0.4-1.1,0.7-2.3,0.6-3.5c0-1.2-0.4-2.5-1.1-3.6l0,0c0-0.1,0-0.1,0-0.2
		C831.8,356.8,831.9,356.8,831.9,356.8z"/>
	<path fill="#5F6062" d="M799.2,358.2c0.1-0.5-0.3-1.2-1.4-2c-1.9-1.4-7.5-3.4-8.5-0.5c-0.7,2.2,0.5,3.3,2.9,3.7
		C794.4,359.8,798.9,359.6,799.2,358.2z"/>
	<path fill="#5F6062" d="M813.4,360.6c0.1-0.5,0.8-0.9,2.3-1.1c2.6-0.4,9.1,0.3,8.8,3.3c-0.2,2.2-2,2.7-4.6,2
		C817.6,364.2,813,362,813.4,360.6z"/>
	<g>
		<path fill="#797A7D" d="M791,457.9c4.5,0,9.1,0.8,13.4,2.1c2.2,0.6,4.3,1.4,6.5,2.3c1,0.5,2.1,0.9,3.1,1.4c1,0.5,2,1,3,1.6
			c1,0.5,2,1.1,3,1.7c1,0.6,2,1.2,2.9,1.9c1.8,1.4,3.7,2.7,5.4,4.3l1.3,1.1c0.4,0.4,0.8,0.8,1.2,1.2l2.3,2.5
			c0.8,0.8,1.5,1.7,2.2,2.6c0.7,0.9,1.4,1.8,2,2.7c-0.9-0.7-1.7-1.5-2.5-2.3c-0.8-0.7-1.6-1.6-2.5-2.2c-1.7-1.4-3.4-2.9-5.2-4.2
			c-3.5-2.7-7.3-5.1-11.2-7.2c-3.8-2.2-7.9-4-12.1-5.6C799.7,460.3,795.4,458.9,791,457.9z"/>
	</g>
	<path fill="#F5B949" d="M891,207.5c-2.4-0.6-4.8-1-7.3-1.1c-3.3-0.3-11.4,0.8-11.4,0.8c-8.2,1.7-15.8,5.9-21.8,12.2l-16.4,17.3
		l63.2,21.7c-1.5-17.1,7.5-33.4,22.9-41.1l3.4-1.7L891,207.5z"/>
	<path fill="#2F8F6D" d="M892.8,263.1l-61.6-17.7c-2.9-0.8-4.6-3.9-3.8-6.8l0,0c0.8-2.9,3.9-4.6,6.8-3.8l61.6,17.7
		c2.9,0.8,4.6,3.9,3.8,6.8l0,0C898.8,262.3,895.7,264,892.8,263.1z"/>
	<circle fill="#2F8F6D" cx="925.7" cy="217.2" r="9.5"/>
	<rect x="845.2" y="433.4" fill="#2F8F6D" width="12.4" height="53.9"/>
	<circle fill="#9A9FA3" cx="788.3" cy="325" r="9.1"/>
	<circle fill="#5F6062" cx="788.3" cy="325" r="4.9"/>
	<circle fill="#9A9FA3" cx="846.6" cy="336.7" r="9.1"/>
	<circle fill="#5F6062" cx="845.9" cy="336.4" r="4.9"/>
	<path fill="#FFFFFF" d="M822.6,291.5l2.6,52.6c0.3,5.1-3.9,9.4-9,9.1c-9.8-0.5-23.9-3.1-25.3-13.2c-1.9-13.5,10.8-35,24.3-50.9
		C817.6,286,822.4,287.7,822.6,291.5z"/>
	<path fill="#5F6062" d="M794.2,378.4c3.9-1.2,10.3-0.8,12.2-0.6c8.3,0.8,16.6,3.7,22.8,9.3c6.2,5.6-5,5.8-8.4,5.6
		c-8.3-0.5-17.7-2.1-25.2-6.1c-1.4-0.7-3.2-1.7-4-3.1C790,380.7,791.5,379.2,794.2,378.4z"/>
	<g>
		<path fill="#5F6062" d="M805.1,364c0.4,1.3,0.5,2.4,0.6,3.6c0.1,1.1,0.1,2.2,0.1,3.3c0,1.1-0.1,2.2-0.2,3.3
			c-0.1,1.1-0.2,2.2-0.6,3.6l-0.2,0.1c-0.4-1.1-0.7-2.2-0.8-3.4c-0.2-1.2-0.3-2.3-0.2-3.5c0.1-2.3,0.3-4.7,1-6.9L805.1,364z"/>
	</g>
	<path fill="#FFFFFF" d="M799,379c0,0-1.1,3,1.2,3.9c2.3,0.9,17.4,3.7,20.1,3.6c0,0,1.1,0,1.5-2.1v-0.8
		C821.8,383.6,809.1,378.4,799,379z"/>
</g>
<g>
	<path fill="#EDE8E0" d="M516.9,470.3c-17.5-15.1-45.5-30.4-64.6-35.5c-60.6-16.2-138.8,8.1-154,74.5"/>
	<path fill="#A7A9AC" d="M516.9,470.3c0,0-0.9-0.5-2.6-1.6c-0.8-0.5-1.9-1.1-3.1-1.8c-1.2-0.7-2.6-1.5-4.2-2.4
		c-3.1-1.8-7-3.8-11.5-6c-1.1-0.5-2.3-1.1-3.5-1.7c-1.2-0.6-2.4-1.1-3.7-1.7c-1.3-0.6-2.6-1.1-3.9-1.7c-1.3-0.6-2.7-1.2-4-2
		c-0.7-0.4-1.3-0.8-2-1.2c-0.7-0.4-1.4-0.7-2.1-1.1c-1.4-0.7-2.9-1.4-4.3-2.1c-2.9-1.4-6-2.7-9.2-4c-3.2-1.3-6.5-2.5-9.9-3.4
		l-1.3-0.4l-0.3-0.1c0,0-0.2,0-0.1,0l-0.2,0l-0.7-0.2c-0.9-0.2-1.9-0.5-2.7-0.7c-1.7-0.4-3.6-0.8-5.4-1.2c-14.7-2.9-31-3.5-46.9-1.4
		c-15.9,2.1-31.4,6.9-44.6,13.9c-6.6,3.5-12.6,7.5-17.8,11.9c-5.2,4.3-9.7,9-13.4,13.6c-0.9,1.2-1.8,2.3-2.6,3.4
		c-0.8,1.1-1.5,2.4-2.3,3.5c-1.7,2.1-3.3,4.1-4.8,6.1c-1.4,2-2.7,3.9-3.8,5.7c-0.6,0.9-1.1,1.8-1.6,2.6c-0.5,0.9-1,1.7-1.4,2.5
		c-1.7,3.2-2.9,5.8-3.7,7.5c-0.8,1.8-1.2,2.8-1.2,2.8s0.1-1,0.2-3c0.2-2,0.5-4.9,1.3-8.5c0.2-0.9,0.4-1.9,0.6-2.9
		c0.2-1,0.5-2.1,0.8-3.1c0.6-2.2,1.4-4.5,2.3-7c0.5-1.2,1-2.5,1.5-3.8c0.6-1.3,1.1-2.6,1.9-3.9c0.4-0.7,0.8-1.3,1.3-1.9
		c0.5-0.6,0.9-1.2,1.4-1.9c0.9-1.3,1.9-2.5,2.9-3.8c4.1-5.1,8.9-10.2,14.7-14.9c5.7-4.7,12.2-9.1,19.3-12.9
		c14.2-7.6,30.7-12.7,47.6-14.9c16.9-2.2,34.1-1.6,49.8,1.4c2,0.4,3.9,0.8,5.8,1.3c1,0.2,1.9,0.5,2.8,0.7l0.7,0.2l0.4,0.1l0.4,0.1
		l1.4,0.4c3.8,1.1,7.3,2.4,10.7,3.7c3.4,1.4,6.6,2.8,9.7,4.3c3.1,1.4,6,3,8.9,4.3c1.4,0.7,2.8,1.5,4,2.4c1.2,0.9,2.5,1.7,3.6,2.6
		c1.2,0.9,2.3,1.7,3.4,2.5c1.1,0.8,2.1,1.7,3.1,2.5c4,3.2,7.4,6.2,10,8.7c1.4,1.2,2.5,2.4,3.5,3.4c1,1,1.8,1.9,2.5,2.6
		C516.2,469.5,516.9,470.3,516.9,470.3z"/>
</g>
<path fill="#E57C39" d="M287.2,378.6c0,0-16.3,6.9-39.2,63.8l63.8,21.3l21.2-42L287.2,378.6z"/>
<linearGradient id="SVGID_3_" gradientUnits="userSpaceOnUse" x1="-1137.2382" y1="44.1478" x2="-1073.3217" y2="44.1478" gradientTransform="matrix(-1.0063 -0.3086 -0.2932 0.9561 -824.4926 86.6532)">
	<stop  offset="0" style="stop-color:#BEC0C2"/>
	<stop  offset="1" style="stop-color:#B1B3B6"/>
</linearGradient>
<path fill="url(#SVGID_3_)" d="M311.9,463.6L248,442.4l-3.3,15.7c-1.8,8.4,1.5,17,8.3,22l3.1,2.3c1.9,1.4,4.1,2.5,6.4,3.2l18.5,5.7
	c3.9,1.2,8.1,1.2,12.1,0.1h0c7.1-2,12.7-7.5,14.8-14.6L311.9,463.6z"/>
<path fill="#ABADB0" d="M389.4,222.7l61.1-5.5c20.9-1.9,41.6,5.3,56.7,19.8l0,0c21.5,20.6,28.3,52.2,17.1,79.8l-5.1,12.5
	c-12,29.6-42,47.9-73.9,45l-16.4-1.5"/>
<path fill="#939598" d="M438.7,356.4L438.7,356.4c24.4,2.2,47.4-11.8,56.6-34.4l3.9-9.5c9.3-22.9,2.4-49.4-17.4-64.8
	c-11.3-8.8-25.6-12.7-39.9-11.4l-34.7,3.1c-5.9,0.5-9.9,6.3-8.4,12l24.2,91.7C424.9,350.4,431.2,355.7,438.7,356.4z"/>
<linearGradient id="SVGID_4_" gradientUnits="userSpaceOnUse" x1="-2091.0872" y1="620.0853" x2="-2138.0203" y2="747.0176" gradientTransform="matrix(-0.9829 0.184 0.184 0.9829 -1813.7507 68.9152)">
	<stop  offset="0" style="stop-color:#BCBEC0"/>
	<stop  offset="1" style="stop-color:#A3A5A8"/>
</linearGradient>
<path fill="url(#SVGID_4_)" d="M299,382c39.8,19,83.4,19.3,122.6-1.6c18.9-10,34.8-26.5,34.4-49c-0.1-6.4-1.6-12.6-3.6-18.7
	c-5.4-16.3-3.3-33.3-7.8-49.7c-3.4-12-10.6-22.6-19.9-30.9c-18-16.2-41.6-21.4-68.1-22.4c-19.5-0.7-48.3,7.2-62.7,21.3"/>
<path fill="#A7A9AC" d="M429.3,286.4c3.4,4.9,2.2,11.6-2.7,14.9c-4.9,3.3-11.5,2.1-14.9-2.8c-3.4-4.9-2.2-11.6,2.7-14.9
	C419.2,280.3,425.9,281.5,429.3,286.4z"/>
<path fill="#737577" d="M426,288.6c1.6,2.6,0.8,6-1.9,7.6c-2.6,1.6-6,0.7-7.6-1.9s-0.8-6,1.9-7.6C421,285.2,424.4,286,426,288.6z"/>
<g>
	<path fill="#797A7D" d="M358.5,278.9c0,0-0.3,0.2-0.8,0.5c-0.2,0.1-0.5,0.3-0.8,0.5c-0.2,0.1-0.3,0.2-0.5,0.3
		c-0.2,0.1-0.4,0-0.6,0.1c-0.8,0.2-1.8,0.3-2.8,0.6c-1,0.3-2.1,0.6-3.1,1c-0.5,0.2-1,0.4-1.5,0.7c-0.5,0.3-1,0.5-1.4,0.7
		c-0.4,0.3-0.9,0.5-1.2,0.8c-0.4,0.3-0.8,0.5-1,0.8c-0.2,0.1-0.2,0.3-0.4,0.4c-0.2,0.1-0.4,0.1-0.5,0.2c-0.3,0.1-0.6,0.3-0.9,0.4
		c-0.5,0.2-0.8,0.3-0.8,0.3s0.1-0.3,0.2-0.8c0.1-0.3,0.2-0.6,0.4-1c0.1-0.2,0.2-0.4,0.3-0.6c0.1-0.2,0.3-0.3,0.5-0.5
		c0.3-0.3,0.8-0.6,1.2-0.9c0.4-0.3,0.9-0.6,1.4-0.9c0.5-0.3,1-0.5,1.5-0.8c0.5-0.3,1.1-0.5,1.6-0.7c1.1-0.4,2.3-0.8,3.3-1.1
		c1.1-0.3,2.1-0.5,3-0.7c0.2,0,0.4-0.1,0.6-0.1c0.2,0,0.4,0.1,0.6,0.1c0.4,0.1,0.7,0.2,1,0.3C358.2,278.7,358.5,278.9,358.5,278.9z"
		/>
</g>
<g>
	<path fill="#797A7D" d="M407.6,268.2c0,0,0.3-0.2,0.8-0.4c0.3-0.1,0.6-0.3,0.9-0.4c0.2-0.1,0.4-0.1,0.6-0.2c0.2-0.1,0.4,0,0.6,0
		c0.9,0.1,1.9,0.1,3,0.3c1.1,0.2,2.3,0.4,3.4,0.7c0.6,0.2,1.2,0.3,1.7,0.5c0.6,0.2,1.1,0.4,1.6,0.6c0.5,0.2,1,0.4,1.5,0.7
		c0.4,0.3,0.9,0.5,1.3,0.8c0.2,0.2,0.4,0.2,0.5,0.4c0.1,0.2,0.2,0.4,0.3,0.5c0.2,0.3,0.3,0.7,0.5,0.9c0.2,0.5,0.3,0.8,0.3,0.8
		s-0.3-0.1-0.8-0.2c-0.3-0.1-0.6-0.2-0.9-0.3c-0.2,0-0.4-0.1-0.6-0.1c-0.2,0-0.3-0.2-0.5-0.3c-0.3-0.2-0.7-0.4-1.1-0.7
		c-0.4-0.3-0.9-0.4-1.3-0.7c-0.5-0.2-1-0.4-1.5-0.6c-0.5-0.2-1-0.3-1.6-0.5c-1.1-0.3-2.2-0.5-3.2-0.7c-1-0.2-2-0.2-2.9-0.3
		c-0.2,0-0.4,0.1-0.6,0c-0.2-0.1-0.4-0.2-0.5-0.2c-0.3-0.2-0.6-0.3-0.9-0.4C407.9,268.3,407.6,268.2,407.6,268.2z"/>
</g>
<path fill="#797A7D" d="M389.3,334.3c0,0-21.1,5.9-36.1,2.9l-0.1,4.6c0,0,24.8,24.2,47.1-1.9L389.3,334.3z"/>
<path fill="#A7A9AC" d="M364.7,298.1c2.9,4.2,1.9,10-2.3,12.9c-4.2,2.9-10,1.8-13-2.4s-1.9-10,2.3-12.9
	C355.9,292.8,361.7,293.9,364.7,298.1z"/>
<path fill="#737577" d="M363.1,300.3c1.6,2.7,0.8,6.2-1.9,7.8s-6.2,0.7-7.8-1.9c-1.6-2.7-0.8-6.2,1.9-7.8S361.4,297.6,363.1,300.3z"
	/>
<linearGradient id="SVGID_5_" gradientUnits="userSpaceOnUse" x1="-1997.049" y1="552.6319" x2="-1997.049" y2="588.5754" gradientTransform="matrix(-0.9907 0.1358 0.1358 0.9907 -1798.0563 84.2003)">
	<stop  offset="0" style="stop-color:#BEC0C2"/>
	<stop  offset="1" style="stop-color:#B1B3B6"/>
</linearGradient>
<path fill="url(#SVGID_5_)" d="M303.2,229.1l-59.7,12.1c-20.6,3.8-38.6,16.3-49.3,34.4l0,0c-15.2,25.6-13.2,57.9,5,81.5l8.2,10.7
	c19.6,25.3,53.4,34.8,83.3,23.5l15.3-5.8"/>
<path fill="#A1A3A6" d="M294.8,371L294.8,371c-22.5,9.7-48.7,3.5-64.5-15.2l-6.6-7.9c-15.9-18.9-17.6-46.2-3.6-67
	c8-11.9,20.4-20,34.4-23.2l33.9-7.8c5.8-1.3,11.4,2.9,11.7,8.8l5.5,94.7C306,361,301.7,368,294.8,371z"/>
<path fill="#ED85A9" d="M395.2,344.7c0,0-15.5-8.5-33.5,3.1C361.8,347.9,378.8,359.4,395.2,344.7z"/>
<path fill="none" stroke="#797A7D" stroke-width="2.5" stroke-linecap="round" stroke-linejoin="round" stroke-miterlimit="10" d="
	M345.2,348.6c0,0,13.1-5.1,7.2-21.5"/>
<path fill="#FFFFFF" d="M412.3,307.1c3.9-0.7,15-3,20.9-9.2c0.6-0.6,1.7,0,1.5,0.8c-1.1,4.7-4.7,13.2-16.2,18.1
	c-0.4,0.2-0.8,0-1.1-0.3l-5.6-8C411.3,307.9,411.6,307.2,412.3,307.1z"/>
<linearGradient id="SVGID_6_" gradientUnits="userSpaceOnUse" x1="-803.7643" y1="977.421" x2="-977.4044" y2="977.421" gradientTransform="matrix(0.4395 -0.8983 0.8983 0.4395 -97.8639 -834.2867)">
	<stop  offset="0" style="stop-color:#C7C8CA"/>
	<stop  offset="1" style="stop-color:#B1B3B6"/>
</linearGradient>
<path fill="url(#SVGID_6_)" d="M419.8,297c0.9,2.1,1.7,4.4,2.4,6.6c3.4,11.1,7.9,21.6,12.4,32.2c5.8,13.5,11.3,27.2,13.3,41.8
	c4.1,29.9-7.8,61.5-30.7,81.1s-55.9,26.7-84.8,18.2c-13.9-4.1-26.9-11.6-41.2-13.6c-0.5-0.1-1-0.1-1.4-0.4c-0.9-0.7-0.7-2-0.3-3
	c1.3-3.2,3.8-5.9,6.9-7.5c1.2-0.6,2.5-1.1,3.2-2.1c1-1.4,0.6-3.3,0.5-5c-0.2-3.9,1.3-7.9,4-10.8c0.6-0.6,1.3-1.2,2.1-1.2
	c1.2,0,2,1.3,2.6,2.3c4.7,8.1,13.5,12.8,22.4,15.5c15.2,4.7,32,4.8,46.7-1.3c14.7-6.2,26.8-18.9,30.5-34.4
	c4.1-17-1.8-34.8-10.1-50.3s-18.8-29.7-24.9-46.1c-1.9-5.1-3.4-10.4-3.1-15.8c0.6-9.8,7.7-19,17.1-21.9c5.2-1.6,10.1-2.5,15.5-1
	C411.9,283,416.6,289.4,419.8,297z"/>
<path fill="#A9ABAE" d="M398.3,316.4c3.1-3.1,10-8.8,20.7-11.4c0.8-0.2,0.8-1.3-0.1-1.5c-6.2-0.9-18.3-0.8-21.9,12.1
	C396.9,316.4,397.8,316.9,398.3,316.4z"/>
<path fill="#A9ABAE" d="M403.7,328.7c3.1-3.1,10-8.8,20.7-11.4c0.8-0.2,0.8-1.3-0.1-1.5c-6.2-0.9-18.3-0.8-21.9,12.1
	C402.2,328.7,403.1,329.2,403.7,328.7z"/>
<path fill="#A9ABAE" d="M408.9,340.4c3.1-3.1,10-8.8,20.7-11.4c0.8-0.2,0.8-1.3-0.1-1.5c-6.2-0.9-18.3-0.8-21.9,12.1
	C407.5,340.4,408.4,340.9,408.9,340.4z"/>
<path fill="#FFFFFF" d="M366.3,314c3.9-0.3,15.2-1.6,21.7-7.2c0.7-0.6,1.7,0.1,1.4,0.9c-1.6,4.6-6,12.7-17.8,16.5
	c-0.4,0.1-0.8,0-1-0.4l-4.8-8.5C365.3,314.7,365.7,314,366.3,314z"/>
<ellipse fill="#EDE8E0" cx="638.7" cy="442.2" rx="101.8" ry="64.2"/>
<g>
	<path fill="#EDE8E0" d="M691,408.2c-15.9-21.4-45.6-32.7-76.4-26.3c-21.7,4.5-39.5,16.8-50.2,32.8"/>
	<path fill="#A7A9AC" d="M691,408.2c0,0-0.5-0.3-1.4-1c-0.5-0.3-1-0.7-1.7-1.2c-0.3-0.2-0.7-0.5-1.1-0.8c-0.4-0.3-0.8-0.5-1.2-0.8
		c-0.8-0.5-1.8-1.1-2.8-1.7c-1-0.6-2.2-1.2-3.4-1.9c-1.2-0.7-2.5-1.3-3.9-1.9c-0.7-0.3-1.2-0.8-1.8-1.3c-0.6-0.5-1.3-0.9-1.9-1.4
		c-0.7-0.4-1.3-0.9-2.1-1.3c-0.7-0.4-1.5-0.8-2.2-1.3c-1.5-0.9-3.1-1.6-4.8-2.4c-0.4-0.2-0.8-0.4-1.3-0.6c-0.4-0.2-0.9-0.3-1.3-0.5
		c-0.9-0.3-1.8-0.7-2.7-1.1c-0.9-0.4-1.9-0.6-2.8-0.9c-1-0.3-1.9-0.6-2.9-0.9c-3.9-1-8-1.9-12.3-2.2c-4.2-0.5-8.6-0.5-12.9-0.3
		c-1.1,0.1-2.2,0.2-3.2,0.3c-1.1,0.1-2.2,0.2-3.2,0.4c-1.1,0.2-2.1,0.4-3.2,0.5l-1.5,0.3l-1.7,0.4c-2.3,0.5-4.2,1.1-6.1,1.6
		c-1,0.3-2,0.7-3,1c-1,0.3-1.9,0.7-2.9,1.1c-3.8,1.5-7.3,3.3-10.5,5.1c-3.2,1.9-6.1,3.9-8.6,5.9c-0.6,0.5-1.3,1-1.8,1.5
		c-0.3,0.3-0.5,0.6-0.8,0.8c-0.3,0.2-0.6,0.4-1,0.6c-1.3,0.8-2.6,1.5-3.7,2.2c-1.2,0.7-2.3,1.4-3.2,2.1c-1,0.7-1.9,1.3-2.7,1.9
		c-0.8,0.6-1.5,1.2-2.2,1.6c-0.6,0.5-1.1,0.9-1.6,1.3c-0.9,0.7-1.3,1.1-1.3,1.1s0.2-0.6,0.6-1.6c0.2-0.5,0.4-1.2,0.7-1.9
		c0.3-0.8,0.7-1.6,1.1-2.6c0.9-1.9,2.1-4.2,3.7-6.7c0.8-1.3,1.7-2.5,2.7-4c0.5-0.7,1.1-1.3,1.8-1.8c0.7-0.5,1.3-1.1,2.1-1.7
		c2.8-2.3,6.1-4.5,9.7-6.6c3.6-2.1,7.5-4,11.7-5.7c1.1-0.4,2.1-0.8,3.2-1.2c1.1-0.4,2.2-0.7,3.3-1.1c2.3-0.7,4.7-1.4,6.8-1.8
		l1.7-0.4l0.1,0l0.2,0l0.2,0l0.4-0.1l0.9-0.2c1.2-0.2,2.4-0.4,3.5-0.6c1.2-0.2,2.4-0.3,3.6-0.4c1.2-0.1,2.4-0.3,3.6-0.3
		c4.8-0.2,9.7-0.3,14.4,0.3c4.8,0.4,9.4,1.4,13.8,2.5c1.1,0.3,2.2,0.7,3.2,1c1.1,0.4,2.1,0.6,3.1,1.1c1,0.4,2,0.8,3,1.2
		c0.5,0.2,1,0.4,1.5,0.6c0.5,0.2,1,0.5,1.4,0.7c1.9,0.9,3.7,1.7,5.4,2.8c0.9,0.5,1.7,1,2.5,1.4c0.8,0.5,1.6,1,2.3,1.5
		c0.8,0.5,1.5,1,2.3,1.4c0.8,0.4,1.5,1,2,1.6c1.1,1.3,2.2,2.5,3,3.7c0.9,1.2,1.7,2.3,2.4,3.4c0.7,1.1,1.3,2.2,1.8,3.1
		c0.3,0.5,0.5,0.9,0.7,1.3c0.2,0.4,0.4,0.8,0.5,1.2c0.3,0.7,0.6,1.4,0.8,1.9C690.7,407.6,691,408.2,691,408.2z"/>
</g>
<g>
	<path fill="#58595B" d="M573.4,324.9c0,0,21.7,39.4,71.8,36.6c50.2-2.8,70.1-44.1,70.1-44.1L573.4,324.9z"/>
	<path fill="#58595B" d="M556.3,323.4c0,0-20.6,18.8-28.1,48.2c-7.5,29.3,35.5,48.7,75.3,43.5c39.8-5.2,26.1-36.4,13-45.4
		c-13-9-34.3-39-34.3-39L556.3,323.4z"/>
	<path fill="#58595B" d="M722.2,323.4c0,0,20.6,18.8,28.1,48.2s-35.5,48.7-75.3,43.5c-39.8-5.2-26.1-36.4-13-45.4
		c13-9,34.3-39,34.3-39L722.2,323.4z"/>
	<path fill="#F1625B" d="M704,202.1l61.1,19c6.6,2.1,9.2,10.1,4.9,15.6l-10.7,13.7c-3.3,4.2-9.2,5-13.5,2l-45.4-31.7L704,202.1z"/>
	<path fill="#F1625B" d="M701.9,196.7l63.7-6.5c6.9-0.7,12.4,5.7,10.6,12.4l-4.5,16.8c-1.4,5.1-6.5,8.3-11.6,7.2l-54.2-11.3
		L701.9,196.7z"/>
	<path fill="#58595B" d="M604.2,181.1c-2.7,12.1-14.3,19.6-25.9,16.8c-11.6-2.8-18.9-14.8-16.2-26.9c2.7-12.1,14.3-19.6,25.9-16.8
		C599.6,157,606.8,169.1,604.2,181.1z"/>
	<ellipse fill="#58595B" cx="689.8" cy="179.7" rx="21.6" ry="22.4"/>
	<g>
		<path fill="#FFFFFF" d="M737.3,268.9c-4-16.5-11.6-31.8-16.4-48.1c-4.9-16.4-11.5-33.2-26.6-42.8c-20.8-13.2-47.5-14.2-71.2-12.4
			c-4.8,0.4-9.5,0.9-14.3,1.5c-17.2,2.4-34.6,9.2-44.9,24.5c-13.3,19.7-16,44.1-23.7,66.1c-7.3,20.6-9,42.9,6.9,60.2
			c7.2,7.8,16.5,12.8,26.6,15.8c2.1,0.6,4.2,1.1,6.4,1.6l28.1,7c17.8,4.4,36.4,4.5,54.3,0.2l27.2-6.5c3.2-0.6,6.5-1.3,9.6-2.3
			c0,0,0.1,0,0.1,0c11.5-3.5,22.1-9.6,29.5-19.2c8.6-11.1,12.2-26.8,9.5-40.6C738.1,272.2,737.8,270.5,737.3,268.9z"/>
	</g>
	<path fill="#58595B" d="M627.6,242.8H643c6.1,0,11,5.1,11,11.5v0.1c0,3.5-1.5,6.7-4.1,8.9l-7.6,6.3c-4,3.4-9.7,3.4-13.8,0.1
		l-7.9-6.4c-2.7-2.2-4.2-5.5-4.2-9v0C616.6,247.9,621.5,242.8,627.6,242.8z"/>
	<path fill="#58595B" d="M561.6,253.2c5.4-9.9,14.5-20.9,25.8-23.3c13.7-3,23.9,10.1,25.5,23.1c1.7,14.2-5.1,28.1-18.2,34
		c-11.3,5.1-33.8,4-37.8-10.8C555.2,269.5,557.3,261,561.6,253.2z"/>
	<ellipse fill="#FFFFFF" cx="597.7" cy="257.3" rx="5.9" ry="6.1"/>
	<path fill="#58595B" d="M711.4,253.4c-5.4-9.9-14.5-20.9-25.8-23.3c-13.7-3-23.9,10.1-25.5,23.1c-1.7,14.2,5.1,28.1,18.2,34
		c11.3,5.1,33.8,4,37.8-10.8C717.9,269.8,715.7,261.3,711.4,253.4z"/>
	<ellipse fill="#FFFFFF" cx="675.4" cy="257.5" rx="5.9" ry="6.1"/>
	<rect x="633.9" y="266.5" fill="#58595B" width="2.9" height="17.4"/>
	<g>
		<path fill="#F1625B" d="M577.7,178.1c0,0-15.9,7.2-23.5,32.4l163.4-0.2c0,0-6.2-22.7-20.7-30.6L577.7,178.1z"/>
	</g>
	<polygon fill="#FFFFFF" points="582,189.9 584.6,184.2 587.6,189.7 593.9,190.4 589.6,194.9 590.9,201.1 585.2,198.4 579.7,201.5 
		580.5,195.3 575.8,191.1 	"/>
	<polygon fill="#FFFFFF" points="594.2,184.2 594.9,182.6 595.7,184.1 597.4,184.3 596.2,185.5 596.5,187.1 595,186.4 593.6,187.3 
		593.8,185.6 592.6,184.5 	"/>
	<polygon fill="#FFFFFF" points="600.5,189.8 601.2,188.2 602,189.7 603.6,189.9 602.5,191.1 602.8,192.7 601.3,192 599.9,192.8 
		600.1,191.2 598.8,190.1 	"/>
	<polygon fill="#FFFFFF" points="600.5,198.5 601.2,197 602,198.4 603.6,198.6 602.5,199.8 602.8,201.5 601.3,200.7 599.9,201.6 
		600.1,199.9 598.8,198.8 	"/>
	<polygon fill="#FFFFFF" points="594.2,202.9 594.9,201.4 595.7,202.9 597.4,203 596.2,204.3 596.5,205.9 595,205.2 593.6,206 
		593.8,204.3 592.6,203.2 	"/>
	<path fill="#58595B" d="M613.2,278.2c2,0.7,4,1.3,6,1.8c1.8,0.8,3.7,1.6,5.6,2.1c1.9,0.6,3.9,1,5.8,1.3l3,0.3l3,0l0.7,0l0.7-0.1
		l1.5-0.1l1.5-0.1c0.5,0,1-0.2,1.5-0.2l2.9-0.5l2.9-0.8l1.4-0.4c0.5-0.2,0.9-0.4,1.4-0.6c0.9-0.4,1.8-0.8,2.8-1.1c1-0.2,2-0.5,3-0.8
		c1-0.3,2-0.5,3.1-0.7c-1.5,1.4-3.2,2.9-4.9,4.2c-1,0.4-2,0.8-2.9,1.2c-0.5,0.2-1,0.4-1.5,0.6l-1.5,0.4l-3.1,0.9l-3.1,0.6
		c-0.5,0.1-1,0.2-1.6,0.3l-1.6,0.1l-1.6,0.1l-0.8,0.1l-0.8,0l-3.2,0l-3.2-0.3c-2.1-0.3-4.2-0.7-6.2-1.4c-1-0.3-2-0.7-3-1
		c-0.5-0.2-1-0.4-1.5-0.6c-0.2-0.1-0.5-0.2-0.7-0.3c-0.3-0.1-0.5-0.2-0.7-0.3C616.1,281.4,614.5,280,613.2,278.2z"/>
	<circle fill="#58595B" cx="598.3" cy="257.3" r="4.4"/>
	<circle fill="#58595B" cx="675.9" cy="257.3" r="4.4"/>
</g>
<g>
	<path fill="#A7A9AC" d="M472.6,651.3c-0.8,6.6,0.6,13,3.4,19c1.5,3.1,6,3.9,8.8,2.3c3.2-1.9,3.8-5.6,2.3-8.8
		c-1.8-4-2.1-8.2-1.6-12.5c0.4-3.4-3.2-6.4-6.4-6.4C475.2,644.9,473,647.8,472.6,651.3L472.6,651.3z"/>
	<path fill="#A7A9AC" d="M503.1,649.6c-0.9,3.5-1.8,7-2.7,10.4c-0.8,3.2,1.1,7.1,4.5,7.9c3.3,0.8,7-1,7.9-4.5
		c0.9-3.5,1.8-7,2.7-10.4c0.8-3.2-1.1-7.1-4.5-7.9C507.7,644.4,504,646.2,503.1,649.6L503.1,649.6z"/>
	<path fill="#A7A9AC" d="M480.4,617.7c0.8,4.4,1.7,8.7,2.5,13.1c0.7,3.4,4.7,5.3,7.9,4.5c3.6-1,5.1-4.5,4.5-7.9
		c-0.8-4.4-1.7-8.7-2.5-13.1c-0.7-3.4-4.7-5.3-7.9-4.5C481.3,610.8,479.7,614.3,480.4,617.7L480.4,617.7z"/>
	<path fill="#A7A9AC" d="M839.9,606.1c3.6,1.5,7.1,3.1,10.7,4.6c3.2,1.4,6.9,0.9,8.8-2.3c1.6-2.7,0.9-7.4-2.3-8.8
		c-3.6-1.5-7.1-3.1-10.7-4.6c-3.2-1.4-6.9-0.9-8.8,2.3C836,600.1,836.7,604.7,839.9,606.1L839.9,606.1z"/>
	<path fill="#A7A9AC" d="M852.3,584.6c4.1,3.5,8.1,7,12.2,10.5c2.6,2.3,6.5,2.6,9.1,0c2.3-2.3,2.6-6.8,0-9.1
		c-4.1-3.5-8.1-7-12.2-10.5c-2.6-2.3-6.5-2.6-9.1,0C850,577.8,849.7,582.3,852.3,584.6L852.3,584.6z"/>
	<path fill="#A7A9AC" d="M864.3,616.5c-1.2,4.8,0.1,9.5,3.3,13.2c2.2,2.6,6.9,2.4,9.1,0c2.5-2.7,2.3-6.3,0-9.1
		c1.5,1.8-0.4-0.3-0.1-0.4c0,0,0.6,1.5,0.1,0c-0.1-0.6-0.1-0.5,0,0c0.1,0.6,0.1,0.6,0.1,0c0-0.3,0-0.6,0-0.8c-0.2,1-0.1,1.2,0,0.5
		c0.8-3.2-1.1-7.1-4.5-7.9C868.9,611.3,865.2,613.1,864.3,616.5L864.3,616.5z"/>
</g>
<g>
</g>
<g>
</g>
<g>
</g>
<g>
</g>
<g>
</g>
<g>
</g>
<g>
</g>
<g>
</g>
<g>
</g>
<g>
</g>
<g>
</g>
<g>
</g>
<g>
</g>
<g>
</g>
<g>
</g>
</svg>
