<?xml version="1.0" encoding="utf-8"?>
<!-- Generator: Adobe Illustrator 18.0.0, SVG Export Plug-In . SVG Version: 6.00 Build 0)  -->
<!DOCTYPE svg PUBLIC "-//W3C//DTD SVG 1.1//EN" "http://www.w3.org/Graphics/SVG/1.1/DTD/svg11.dtd">
<svg version="1.1" id="Layer_1" xmlns="http://www.w3.org/2000/svg" xmlns:xlink="http://www.w3.org/1999/xlink" x="0px" y="0px"
	 viewBox="0 0 397.2 195.2" enable-background="new 0 0 397.2 195.2" xml:space="preserve">
<g>
	<path fill="#FFFFFF" d="M312.9,168.6H84.3C37.7,168.6,0,130.9,0,84.3v0C0,37.7,37.7,0,84.3,0l228.5,0c46.6,0,84.3,37.7,84.3,84.3v0
		C397.2,130.9,359.4,168.6,312.9,168.6z"/>
	<g>
		<path fill="#616264" d="M55.2,50v2.6c-1,1.6-2.1,3.2-3.4,4.8h3.8v2.2c-0.4,2.3-0.9,4.3-1.5,5.8c0.3,0.2,0.5,0.4,0.7,0.6
			c1,1,2,1.7,2.9,2.1c0.9,0.4,2.3,0.6,4,0.6c1.7,0,3.8,0,6,0c2.3,0,5.3-0.1,9.1-0.2l-0.8,3.2h-7.9c-2.2,0-4.4-0.1-6.5-0.1
			c-2.2-0.1-3.9-0.3-5-0.8c-1.4-0.6-2.6-1.4-3.7-2.5c-0.2-0.3-0.5-0.4-0.7-0.4c-0.6,0-1.6,1.4-3,4.2l-2.4-2.3c1.5-2.8,2.9-4.4,4.2-5
			c0.6-1.4,1-3,1.4-4.7h-4.6v-2.5c1.5-1.7,2.8-3.2,3.7-4.7h-4.2v-3H55.2z M55.2,47L53,49.1c-1.2-1.4-2.8-3-5-4.7l2.2-2.1
			C52.2,43.9,53.8,45.4,55.2,47z M64.3,45.1c-0.4-0.9-0.7-1.7-1.2-2.4l3.6-0.6c0.4,0.9,0.7,1.9,1.1,3h8v3H56.7v-3H64.3z M74.2,58.9
			v8.5H58.5v-8.5H74.2z M73.4,49.9v2.7H59.2v-2.7H73.4z M73.4,54.4V57H59.2v-2.7H73.4z M70.9,61.6h-9.1v3h9.1V61.6z"/>
		<path fill="#616264" d="M87.9,72.2h-3.2V58.1c-0.7,2.3-1.6,4.5-2.5,6.4l-1.6-2.9c1.7-3,2.9-6.4,3.8-10.2h-2.9v-3.1h3.3v-6h3.2v6
			h2.7v3.1h-2.7v1.7c1.1,1.3,2.2,2.8,3.3,4.4l-1.8,2.7c-0.6-1.2-1-2.2-1.5-3.1V72.2z M98.5,62.5v2.1c-1.1,3.2-3.4,5.7-7,7.4
			l-1.9-2.6c2.6-1.1,4.5-2.5,5.6-4.4h-4.2v-2.6H98.5z M95.6,45.1c-0.4-0.9-0.7-1.7-1.1-2.4l3.3-0.5c0.4,0.8,0.7,1.8,1,2.9h3.8
			c0.4-1,0.7-2,0.9-3l3.3,0.5c-0.3,0.9-0.6,1.8-1,2.6h4v2.5h-7.5v1.3h6.4v2.4h-6.4v1.4h8.1v2.6H91v-2.6h8.1v-1.4h-6.4v-2.4h6.4v-1.3
			h-7.6v-2.5H95.6z M96.3,69.3l2.4,0.1c0.5,0,0.7-0.3,0.7-1v-7.2h-6.3v-2.5h9.5v2.8c0.2,0.4,0.4,0.7,0.6,1.1c1.7-0.8,3.4-2,4.9-3.6
			l2.1,2.1c-1.6,1.6-3.3,2.8-5.2,3.7c1.6,1.7,3.6,3.1,6.1,4.3l-2.1,2.5c-2.6-1.7-4.7-3.6-6.3-5.8v3.5c0,1.8-1.1,2.8-3.3,2.8h-2.3
			L96.3,69.3z M105.9,57.1l-0.9,2.2c-2.8-0.8-5.6-1.4-8.6-1.8l1.1-2C100.5,55.8,103.3,56.4,105.9,57.1z"/>
		<path fill="#616264" d="M123.7,42.3c-0.3,1.9-0.6,3.7-0.9,5.3h6.6v1.9c-0.2,5.2-1.4,9.7-3.5,13.5c1.7,1.3,3.2,2.4,4.3,3.5
			l-2.3,2.8c-1.1-1-2.3-2.2-3.8-3.4c-1.7,2.3-3.8,4.4-6.3,6.1l-2.3-2.8c2.4-1.5,4.4-3.3,6-5.3c-1.6-1.3-3.4-2.6-5.4-4
			c0.9-2.8,1.8-5.7,2.5-8.9h-3.3v-3.3h4.1c0.4-1.8,0.7-3.7,1-5.7L123.7,42.3z M126.2,51h-4.1c-0.7,3.1-1.5,5.8-2.2,7.9
			c1.2,0.8,2.4,1.6,3.4,2.3C124.9,58.2,125.9,54.8,126.2,51z M143,70.8h-3.3v-1.9h-5.2v1.9h-3.3v-26H143V70.8z M139.8,65.5V48.1
			h-5.2v17.5H139.8z"/>
		<path fill="#616264" d="M158.5,43.4c-0.7,2.4-1.7,4.7-2.8,6.8v22.1h-3.3V55.3c-0.8,1.1-1.7,2.1-2.7,3.2l-1.1-3.6
			c3.1-3.7,5.4-8,6.9-13L158.5,43.4z M178.8,43.9v3.3h-2.2v21.3c0,2.4-1.2,3.6-3.5,3.6h-5.5l-0.7-3.3c1.8,0.1,3.5,0.2,5.1,0.2
			c0.8,0,1.2-0.5,1.2-1.4V47.2h-14.5v-3.3H178.8z M170.1,51.1v12.7h-11V51.1H170.1z M166.8,54.1h-4.4v6.6h4.4V54.1z"/>
		<path fill="#616264" d="M203.6,47c1.3,1.1,1.9,2.7,1.9,4.7c0,1.6-0.4,2.9-1.2,4c-0.3,0.3-1.2,1.2-2.8,2.6c-0.6,0.5-1,1-1.3,1.6
			c-0.3,0.6-0.5,1.4-0.5,2.1v0.5H196v-0.5c0-1.2,0.2-2.3,0.6-3.2c0.4-0.9,1.2-1.8,2.2-2.7c1-0.9,1.7-1.6,1.9-1.8
			c0.6-0.7,0.9-1.5,0.9-2.3c0-1.1-0.3-1.9-0.9-2.5c-0.6-0.6-1.5-0.9-2.6-0.9c-1.4,0-2.4,0.4-3,1.3c-0.6,0.7-0.8,1.8-0.8,3.2h-3.7
			c0-2.4,0.7-4.3,2.1-5.6c1.4-1.4,3.3-2,5.7-2C200.6,45.2,202.3,45.8,203.6,47z M199.7,64.6c0.5,0.5,0.7,1,0.7,1.7s-0.3,1.3-0.7,1.8
			c-0.5,0.5-1.1,0.7-1.8,0.7s-1.3-0.3-1.7-0.7c-0.5-0.5-0.7-1-0.7-1.7s0.2-1.3,0.7-1.7c0.5-0.5,1-0.7,1.7-0.7S199.2,64.2,199.7,64.6
			z"/>
		<path fill="#616264" d="M238.3,42.4c1.9,3.8,4.9,7,8.9,9.6l-1.9,2.9c-1-0.7-2-1.4-2.9-2.2v2.7H231v-2.6c-0.9,0.8-1.8,1.6-2.8,2.3
			l-1-1.5v14.9h-3.1V67h-3v2.1h-3.2V44.6h9.3v6.8c3.3-2.4,6-5.4,8-9H238.3z M224.1,63.8V47.7h-3v16.1H224.1z M244,72.2h-3.2v-1.7h-8
			v1.7h-3.2V58.6H244V72.2z M241.9,52.2c-2.1-1.9-3.8-4.1-5.2-6.7c-1.6,2.6-3.3,4.8-5.2,6.7H241.9z M240.8,67.4v-5.7h-8v5.7H240.8z"
			/>
		<path fill="#616264" d="M272.3,42.4c1.9,3.8,4.9,7,8.9,9.6l-1.9,2.9c-1-0.7-2-1.4-2.9-2.2v2.7H265v-2.6c-0.9,0.8-1.8,1.6-2.8,2.3
			l-1-1.5v14.9h-3.1V67h-3v2.1h-3.2V44.6h9.3v6.8c3.3-2.4,6-5.4,8-9H272.3z M258.1,63.8V47.7h-3v16.1H258.1z M278,72.2h-3.2v-1.7h-8
			v1.7h-3.2V58.6H278V72.2z M275.9,52.2c-2.1-1.9-3.8-4.1-5.2-6.7c-1.6,2.6-3.3,4.8-5.2,6.7H275.9z M274.8,67.4v-5.7h-8v5.7H274.8z"
			/>
		<path fill="#616264" d="M306.4,42.4c1.9,3.8,4.9,7,8.9,9.6l-1.9,2.9c-1-0.7-2-1.4-2.9-2.2v2.7H299v-2.6c-0.9,0.8-1.8,1.6-2.8,2.3
			l-1-1.5v14.9h-3.1V67h-3v2.1h-3.2V44.6h9.3v6.8c3.3-2.4,6-5.4,8-9H306.4z M292.1,63.8V47.7h-3v16.1H292.1z M312.1,72.2h-3.2v-1.7
			h-8v1.7h-3.2V58.6h14.4V72.2z M310,52.2c-2.1-1.9-3.8-4.1-5.2-6.7c-1.6,2.6-3.3,4.8-5.2,6.7H310z M308.8,67.4v-5.7h-8v5.7H308.8z"
			/>
		<path fill="#616264" d="M336.8,56.3c0,3.2-1.5,5.6-4.4,7.2l-1.1-1.8c1.9-1.2,3-2.7,3.2-4.5c-0.2,0-0.4,0.1-0.6,0.1
			c-0.7,0-1.3-0.2-1.8-0.7c-0.5-0.5-0.7-1-0.7-1.7c0-0.7,0.2-1.3,0.7-1.8c0.5-0.5,1.1-0.7,1.8-0.7C335.8,52.3,336.8,53.6,336.8,56.3
			z"/>
		<path fill="#616264" d="M55.3,86.8c-0.4,2.1-0.7,4-1,5.8h5.3v1.8c-0.2,5.1-1.2,9.4-2.9,13.2c1.7,1.4,3.1,2.6,4.2,3.7l-2.3,2.7
			c-1-1-2.2-2.1-3.6-3.3c-1.6,2.5-3.5,4.6-5.8,6.4l-2.3-2.9c2.2-1.6,4-3.5,5.5-5.7c-1.5-1.2-3-2.4-4.8-3.7c0.9-2.7,1.8-5.7,2.6-8.8
			h-3v-3.3H51c0.4-2,0.7-4,1.1-6.1L55.3,86.8z M56.3,95.8h-2.7c-0.7,3.1-1.5,5.7-2.2,7.8c0.9,0.6,1.8,1.3,2.6,1.9
			C55.3,102.7,56,99.4,56.3,95.8z M67.2,100v-3.6c1.6-1.4,3.1-3.1,4.6-5.1H61.2v-3.3h14.4v3.3c-1.5,2.1-3.2,4.2-5.1,6.1v2.5h6.2v3.3
			h-6.2v9.3c0,2.5-1,3.8-2.9,3.8h-4.9l-0.9-3.2c1.3,0,2.8,0.1,4.3,0.1c0.6,0,0.8-0.6,0.8-1.7v-8.3h-6.9V100H67.2z"/>
		<path fill="#616264" d="M97.7,102.6c-1.8,1.4-4.2,2.7-7.2,3.8l-1.7-2.7c3-0.9,5.4-1.8,6.9-2.9h-5.3v-5.5c-0.2,0.1-0.4,0.2-0.6,0.4
			l-2-2.4c-0.2,0.3-0.3,0.7-0.5,1v22.4h-3.4V100c-0.8,1-1.6,2.1-2.4,3.1l-1.1-3.6c2.8-3.7,4.9-8,6.2-13l3.1,1.5
			c-0.5,1.8-1.2,3.5-1.9,5.2c2.9-1.6,5.4-3.8,7.6-6.7l3.4,0.8c-0.4,0.5-0.7,1-1.1,1.5h7.6v2.1c-0.6,0.8-1.2,1.6-1.8,2.2h5.4v7.8
			h-9.3c1.1,1.2,2,2.5,2.7,3.8c1.9-0.9,3.6-2,4.9-3.3l2.1,2.4c-1.4,1.2-3,2.2-4.9,3.1c1.4,2.2,3.4,4.2,6.2,6l-2.1,2.6
			c-2-1.7-3.6-3.4-4.8-5.2v0.2c0,2.3-0.4,4-1.2,4.9c-0.7,0.7-1.9,1.2-3.7,1.5c-0.6,0.1-1.2,0.1-1.8,0.1l-1-3.1c1,0,1.8,0,2.5-0.1
			c0.6-0.1,1.2-0.3,1.6-0.7c0.4-0.5,0.6-1.3,0.6-2.6v-0.3c-2.7,2.3-6.1,4.2-10.3,5.7l-1.7-2.9c4.9-1.5,8.7-3.5,11.4-5.8
			c-0.1-0.5-0.3-0.8-0.5-1.2c-2.3,2.1-5.4,3.8-9.3,5.1l-1.6-2.8c4.1-1.2,7.3-2.7,9.6-4.5C98.3,103.3,98,102.9,97.7,102.6z M99.7,93
			c0.6-0.6,1.3-1.2,2-1.8h-5.9c-0.7,0.6-1.4,1.3-2,1.8H99.7z M93.8,95.7v2.4h4.4v-2.4H93.8z M105.9,98.1v-2.4h-4.5v2.4H105.9z"/>
		<path fill="#616264" d="M123.1,94.6v2.6c-0.9,1.6-2,3.2-3.3,4.8h3.7v2.2c-0.4,2.3-0.9,4.2-1.5,5.7c0.3,0.2,0.5,0.4,0.7,0.6
			c1.1,1,2.1,1.7,3,2.1c0.9,0.4,2.3,0.6,4,0.6c1.8,0,3.8,0,6.1,0c2.4,0,5.5-0.1,9.4-0.2l-0.8,3.2h-8.2c-2.2,0-4.4-0.1-6.6-0.1
			c-2.2-0.1-3.9-0.3-5-0.8c-1.4-0.5-2.6-1.3-3.7-2.5c-0.2-0.3-0.5-0.4-0.7-0.4c-0.6,0-1.5,1.4-2.9,4.3l-2.4-2.3
			c1.4-2.9,2.8-4.5,4.1-5.1c0.6-1.4,1-2.9,1.3-4.6h-4.4v-2.5c1.4-1.7,2.6-3.2,3.6-4.7h-4.1v-3H123.1z M122.9,91.5l-2.2,2.2
			c-1.2-1.4-2.8-3-4.9-4.7l2.2-2.1C120,88.4,121.6,89.9,122.9,91.5z M141.6,98.3v6.1h-0.5l2.1,1.3c-0.6,0.8-1.3,1.6-2.1,2.5
			c1,0.6,1.9,1.3,2.7,1.9l-2.2,2.2c-1.9-1.7-4.6-3.6-8.1-5.6l1.9-1.8c1.2,0.6,2.3,1.3,3.3,1.9c0.8-0.9,1.5-1.7,1.9-2.4h-7.1
			c-0.6,0.7-1.4,1.4-2.2,2v3.1c1.5-0.3,3-0.6,4.5-1l0.6,2.6c-2.6,0.6-5.2,1-7.9,1.4l-0.9-2.3c0.6-0.2,0.9-0.5,0.9-0.9v-1.1
			c-1,0.5-2,0.9-3.2,1.4l-1.6-2.6c2.6-0.7,4.5-1.6,6-2.5h-3.1v-6.1H141.6z M143.9,94.6v2.7h-19.8v-2.7H143.9z M142.4,87.5v6.2h-16.7
			v-6.2H142.4z M130.5,89.7h-1.9v1.7h1.9V89.7z M138.7,100.7h-9.3v1.4h9.3V100.7z M135,89.7h-2v1.7h2V89.7z M139.5,89.7h-2v1.7h2
			V89.7z"/>
		<path fill="#616264" d="M157.5,89.9c-0.4-1-0.8-1.9-1.2-2.8l3.5-0.6c0.4,1,0.7,2.1,1.1,3.3h6.3c0.5-1.1,0.9-2.3,1.1-3.4l3.6,0.5
			c-0.3,1-0.7,2-1.2,2.9h6.5v3.1h-11.6V95h9.8v3.1h-9.8v1.8h12.5v3.2h-18.4c-0.3,0.8-0.7,1.7-1.1,2.4h17.4v3.2h-8.6v4h10.7v3.3
			h-25.2v-3.3H164v-4h-6.4v-1.5c-1.7,2.5-4,4.4-6.8,5.9l-2.2-2.6c3.7-1.6,6.3-4,7.8-7.4h-6.7v-3.2h12.4v-1.8h-9.6V95h9.6v-1.9h-11.5
			v-3.1H157.5z"/>
		<path fill="#616264" d="M205.4,91.6H185v-3.3h25.1v3.3c-3,2.7-6.3,5.2-10,7.6v13.7c0,2.4-1.2,3.6-3.5,3.6c-2,0-3.7-0.1-5.2-0.2
			l-0.9-3.3c1.6,0.2,3.3,0.3,5.2,0.3c0.7,0,1-0.4,1-1.1V97.5C199.7,95.7,202.7,93.8,205.4,91.6z"/>
		<path fill="#616264" d="M246.6,99.8v3.4h-29.4v-3.4H246.6z"/>
		<path fill="#616264" d="M254.5,110.3c-0.1,2.4-0.4,4.6-0.9,6.4l-2.8-0.8c0.6-1.7,1-3.7,1.1-5.9L254.5,110.3z M257.1,101.5V100
			h-5.2V87.7h13.4V100H260v1.6h4.8v2.7H260v1.6h5.5v3h-14.1v-3h5.6v-1.6h-4.9v-2.7H257.1z M257.3,90.3h-2.8v2l1.6-0.6
			c0.4,1.3,0.8,2.8,1.1,4.4l-1.7,0.5c-0.3-1.3-0.6-2.6-0.9-3.8v4.7h2.8V90.3z M258.3,116l-2.7,0.4c0-2.5-0.1-4.5-0.2-5.9l2.4-0.3
			C258,111.6,258.2,113.6,258.3,116z M262.3,115.3l-2.7,0.6c-0.2-2.1-0.5-3.9-0.8-5.5l2.4-0.5C261.6,111.6,262,113.4,262.3,115.3z
			 M262.6,90.3h-2.9v7.2h2.9V90.3z M262.5,91.9c-0.2,1.6-0.5,3.2-0.9,4.8l-1.7-0.6c0.4-1.4,0.7-3,0.8-4.6L262.5,91.9z M266,114.5
			l-2.4,0.9c-0.4-1.8-0.8-3.5-1.3-5.2l2.4-0.7C265.2,111.4,265.6,113,266,114.5z M274.4,86.9v5.6h6.3v3.1h-6.3v4.9h5.2v16.2h-3.2
			v-1.5h-6.5v1.5h-3.2v-16.2h4.3V86.9H274.4z M276.4,112.2v-8.6h-6.5v8.6H276.4z"/>
	</g>
	<path fill="#B3B5B8" d="M47.2,77.6C147.6,76.5,248,78,348.2,82c0,0,0.1-2,0-2c-100.2-4.1-200.6-5.5-301-4.4
		C47.2,75.6,47.2,77.6,47.2,77.6L47.2,77.6z"/>
	<path fill="#B3B5B8" d="M47,120c69.6,3.2,139.5,4,209.2,2.5c0.1,0,0-2,0-2C186.4,122,116.6,121.2,47,118C47,118,46.9,120,47,120
		L47,120z"/>
	<path fill="#FFFFFF" d="M208,157.1c0,0-1.8,29.3,11.1,38c0,0-33-6.2-39.9-38H208z"/>
</g>
<g>
</g>
<g>
</g>
<g>
</g>
<g>
</g>
<g>
</g>
<g>
</g>
<g>
</g>
<g>
</g>
<g>
</g>
<g>
</g>
<g>
</g>
<g>
</g>
<g>
</g>
<g>
</g>
<g>
</g>
</svg>
