<?xml version="1.0" encoding="utf-8"?>
<!-- Generator: Adobe Illustrator 18.0.0, SVG Export Plug-In . SVG Version: 6.00 Build 0)  -->
<!DOCTYPE svg PUBLIC "-//W3C//DTD SVG 1.1//EN" "http://www.w3.org/Graphics/SVG/1.1/DTD/svg11.dtd">
<svg version="1.1" id="Layer_1" xmlns="http://www.w3.org/2000/svg" xmlns:xlink="http://www.w3.org/1999/xlink" x="0px" y="0px"
	 viewBox="0 0 9398.9 1207" enable-background="new 0 0 9398.9 1207" xml:space="preserve">
<pattern  x="4409.1" y="626.6" width="402.8" height="402.8" patternUnits="userSpaceOnUse" id="新增圖樣色票_4" viewBox="0 -402.8 402.8 402.8" overflow="visible">
	<g>
		<polygon fill="none" points="0,0 402.8,0 402.8,-402.8 0,-402.8 		"/>
		<polygon fill="#FCCEB8" points="402.8,0 0,0 0,-402.8 402.8,-402.8 		"/>
		<path fill="#F9B5AC" d="M61.2-342.1c-0.1,16.6,6.2,30.1,16.5,42.8c8.6,10.6,14.5,19.3,13.7,33.6c-0.6,11.2,16.8,11.2,17.4,0
			c0.8-14.2-3.4-26.4-12-37.6c-9.4-12.2-18.3-22.3-18.1-38.8C78.7-353.3,61.3-353.3,61.2-342.1L61.2-342.1z"/>
		<g>
			<g>
				<path fill="#F9B5AC" d="M162.1-294.4c7.7,0,7.7-11.9,0-11.9C154.4-306.3,154.4-294.4,162.1-294.4L162.1-294.4z"/>
			</g>
		</g>
		<g>
			<g>
				<path fill="#F9B5AC" d="M64.4-227c7.7,0,7.7-11.9,0-11.9C56.8-238.9,56.8-227,64.4-227L64.4-227z"/>
			</g>
		</g>
		<g>
			<g>
				<path fill="#F9B5AC" d="M103.5-229c7.7,0,7.7-11.9,0-11.9C95.8-240.9,95.8-229,103.5-229L103.5-229z"/>
			</g>
		</g>
		<g>
			<g>
				<path fill="#F9B5AC" d="M154.3-202.6c7.7,0,7.7-11.9,0-11.9C146.6-214.5,146.6-202.6,154.3-202.6L154.3-202.6z"/>
			</g>
		</g>
		<path fill="#F9B5AC" d="M147.7-234.6c8.6-4.5,17.5-8.6,26.5-12.2c4.4-1.7,7.5-5.8,6.1-10.7c-1.2-4.1-6.3-7.9-10.7-6.1
			c-10.4,4.2-20.7,8.8-30.7,14C129-244.5,137.8-229.4,147.7-234.6L147.7-234.6z"/>
		<path fill="#F9B5AC" d="M131.3-362.1c6.1,3.8,11.3,8.6,15.9,14.2c3,3.6,9.2,3.1,12.3,0c3.6-3.6,3-8.7,0-12.3
			c-5.5-6.7-12.1-12.3-19.4-16.9C130.5-383.1,121.8-368,131.3-362.1L131.3-362.1z"/>
		<path fill="#F9B5AC" d="M244.8-363c-3.7,3.5-7.3,7-11,10.5c-3.3,3.2-3.4,9.2,0,12.3c3.5,3.2,8.8,3.4,12.3,0c3.7-3.5,7.3-7,11-10.5
			c3.3-3.2,3.4-9.2,0-12.3C253.6-366.2,248.4-366.3,244.8-363L244.8-363z"/>
		<path fill="#F9B5AC" d="M230.3-249.9c4.6-10.5,16.6-13.1,25.8-18.3c10.8-6.1,17-15.4,22.3-26.3c4.9-10-10.1-18.9-15.1-8.8
			c-2.8,5.7-5.5,11.9-10.3,16.2c-4,3.6-9.2,5.7-14,7.9c-9.7,4.6-19.3,10.2-23.7,20.4C210.8-248.6,225.8-239.7,230.3-249.9
			L230.3-249.9z"/>
		<path fill="#F9B5AC" d="M204.3-303.7c2,4.2,3.9,8.5,5.9,12.7c1.9,4.2,8.2,5.5,11.9,3.1c4.3-2.8,5.2-7.5,3.1-11.9
			c-2-4.2-3.9-8.5-5.9-12.7c-1.9-4.2-8.2-5.5-11.9-3.1C203.2-312.9,202.3-308.2,204.3-303.7L204.3-303.7z"/>
		<path fill="#F9B5AC" d="M192-209.8c-2.1,11.4-3.4,22.9-3.7,34.5c-0.3,11.2,17.2,11.2,17.4,0c0.2-10,1.2-20,3.1-29.8
			C210.9-216.2,194.1-220.9,192-209.8L192-209.8z"/>
		<path fill="#F9B5AC" d="M82.7-198.1c-7.2,9.1-14.4,18.4-17.6,29.7c-2.2,7.7-0.8,24.3-10.7,26.6c-10.9,2.6-6.3,19.4,4.6,16.8
			c11.6-2.7,18-13.2,20.2-24.3c1.4-6.6,1.7-13.3,4.4-19.5c2.8-6.2,7.2-11.7,11.4-17.1C101.9-194.5,89.7-206.9,82.7-198.1L82.7-198.1
			z"/>
		<path fill="#F9B5AC" d="M108.5-143.2c11.9,7.6,17.4,21.9,29.5,29.6c9.5,6,18.3-9.1,8.8-15.1c-11.9-7.5-17.4-21.9-29.5-29.6
			C107.8-164.3,99.1-149.2,108.5-143.2L108.5-143.2z"/>
		<path fill="#F9B5AC" d="M87.2-95.8c-4.4,6.7-9.9,12.7-16.4,17.4c-3.8,2.8-5.7,7.6-3.1,11.9c2.2,3.8,8.1,5.9,11.9,3.1
			c9-6.5,16.6-14.3,22.6-23.7C108.3-96.5,93.3-105.2,87.2-95.8L87.2-95.8z"/>
		<path fill="#F9B5AC" d="M55.2-28.4c5.9,2.6,11,6.1,15.5,10.8c7.8,8.1,20.1-4.2,12.3-12.3c-5.4-5.7-11.9-10.3-19-13.5
			c-4.3-1.9-9.4-1.3-11.9,3.1C49.9-36.6,50.9-30.3,55.2-28.4L55.2-28.4z"/>
		<path fill="#F9B5AC" d="M139.9-39.5c10.1-2.4,20.3-4.7,30.4-7.1c10.9-2.5,6.3-19.3-4.6-16.8c-10.1,2.4-20.3,4.7-30.4,7.1
			C124.3-53.8,128.9-37,139.9-39.5L139.9-39.5z"/>
		<path fill="#F9B5AC" d="M20.3-292.7c-2.9,5.3-5.7,9-10.2,13.2c-3.4,3.2-3.2,9.1,0,12.3c3.4,3.4,8.9,3.2,12.3,0
			c5.2-4.8,9.6-10.5,13-16.7c2.3-4.1,1-9.5-3.1-11.9C28.3-298.2,22.6-296.9,20.3-292.7L20.3-292.7z"/>
		<path fill="#F9B5AC" d="M22-203c-1.3,5.2-2.7,10.4-4,15.6c-1.2,4.6,1.5,9.5,6.1,10.7c4.5,1.2,9.5-1.5,10.7-6.1
			c1.3-5.2,2.7-10.4,4-15.6c1.2-4.6-1.5-9.5-6.1-10.7C28.2-210.3,23.2-207.6,22-203L22-203z"/>
		<g>
			<g>
				<path fill="#F9B5AC" d="M30.3-367.6c7.7,0,7.7-11.9,0-11.9C22.6-379.5,22.6-367.6,30.3-367.6L30.3-367.6z"/>
			</g>
		</g>
		<g>
			<g>
				<path fill="#F9B5AC" d="M372.9-374.4c7.7,0,7.7-11.9,0-11.9C365.2-386.3,365.2-374.4,372.9-374.4L372.9-374.4z"/>
			</g>
		</g>
		<path fill="#F9B5AC" d="M318.6-335.7c6.5-2.7,11.6-3.8,17.4,0.6c4.8,3.6,8.7,8.2,13.6,11.7c10.7,7.7,24.7,7.8,35.9,1.1
			c9.6-5.8,0.9-20.9-8.8-15.1c-12.1,7.3-19.8-3-28.5-10.2c-10.4-8.6-21.7-10.1-34.2-4.9C303.8-348.3,308.3-331.5,318.6-335.7
			L318.6-335.7z"/>
		<path fill="#F9B5AC" d="M318.6-287.2c4.4,6.3,7.6,13,9.7,20.5c2.9,10.8,19.7,6.2,16.8-4.6c-2.4-8.8-6.2-17.2-11.4-24.6
			c-2.7-3.9-7.6-5.6-11.9-3.1C317.9-296.9,315.9-291.1,318.6-287.2L318.6-287.2z"/>
		<g>
			<g>
				<path fill="#F9B5AC" d="M294.8-231.9c7.7,0,7.7-11.9,0-11.9C287.2-243.8,287.1-231.9,294.8-231.9L294.8-231.9z"/>
			</g>
		</g>
		<g>
			<g>
				<path fill="#F9B5AC" d="M260.7-181.1c7.7,0,7.7-11.9,0-11.9C253-193,253-181.1,260.7-181.1L260.7-181.1z"/>
			</g>
		</g>
		<g>
			<g>
				<path fill="#F9B5AC" d="M347.5-178.2c7.7,0,7.7-11.9,0-11.9C339.9-190.1,339.9-178.2,347.5-178.2L347.5-178.2z"/>
			</g>
		</g>
		<path fill="#F9B5AC" d="M374.4-252.2c-9.2,4.2-17.5,10.4-24,18.1c-3,3.6-3.5,8.8,0,12.3c3.1,3.1,9.3,3.6,12.3,0
			c5.7-6.7,12.4-11.8,20.5-15.4c4.3-1.9,5.3-8.2,3.1-11.9C383.7-253.5,378.7-254.2,374.4-252.2L374.4-252.2z"/>
		<path fill="#F9B5AC" d="M295-186.1c-0.4,8.5-0.7,16.9-1.1,25.4c-0.5,11.2,16.9,11.2,17.4,0c0.4-8.5,0.7-16.9,1.1-25.4
			C312.9-197.3,295.5-197.3,295-186.1L295-186.1z"/>
		<path fill="#F9B5AC" d="M256.8-123.2c18.1,9.3,35.5,19.7,52.3,31.2c9.3,6.3,18-8.8,8.8-15.1c-16.8-11.4-34.3-21.8-52.3-31.2
			C255.7-143.4,246.9-128.3,256.8-123.2L256.8-123.2z"/>
		<path fill="#F9B5AC" d="M365.9-101.3c-16.2,15.1-31.6,30.9-46.4,47.4c-7.5,8.3,4.8,20.7,12.3,12.3c14.7-16.5,30.2-32.3,46.4-47.4
			C386.5-96.6,374.1-108.9,365.9-101.3L365.9-101.3z"/>
		<path fill="#F9B5AC" d="M202-120.8c-0.5,16.9,7.2,31.3,13.5,46.5c5.2,12.6,9.7,29.2-1.9,39.6c-8.4,7.5,4,19.8,12.3,12.3
			c12.5-11.2,14.5-29,10.5-44.5c-4.6-18.3-17.6-34.4-17-53.9C219.8-132,202.4-132,202-120.8L202-120.8z"/>
		<g>
			<g>
				<path fill="#F9B5AC" d="M34.2-50.3c7.7,0,7.7-11.9,0-11.9C26.5-62.2,26.5-50.3,34.2-50.3L34.2-50.3z"/>
			</g>
		</g>
		<g>
			<g>
				<path fill="#F9B5AC" d="M47.9-87.4c7.7,0,7.7-11.9,0-11.9C40.2-99.3,40.2-87.4,47.9-87.4L47.9-87.4z"/>
			</g>
		</g>
		<g>
			<g>
				<path fill="#F9B5AC" d="M262.4-39.5c7.7,0,7.7-11.9,0-11.9C254.8-51.4,254.8-39.5,262.4-39.5L262.4-39.5z"/>
			</g>
		</g>
		<g>
			<g>
				<path fill="#F9B5AC" d="M372.2-17.6c7.7,0,7.7-11.9,0-11.9C364.6-29.5,364.6-17.6,372.2-17.6L372.2-17.6z"/>
			</g>
		</g>
		<g>
			<g>
				<path fill="#F9B5AC" d="M356.9-116.4c7.7,0,7.7-11.9,0-11.9C349.2-128.3,349.2-116.4,356.9-116.4L356.9-116.4z"/>
			</g>
		</g>
		<g>
			<g>
				<path fill="#F9B5AC" d="M203.1-366.8c7.7,0,7.7-11.9,0-11.9C195.5-378.7,195.5-366.8,203.1-366.8L203.1-366.8z"/>
			</g>
		</g>
		<g>
			<g>
				<path fill="#F9B5AC" d="M88.9-371.2c7.7,0,7.7-11.9,0-11.9C81.3-383.1,81.3-371.2,88.9-371.2L88.9-371.2z"/>
			</g>
		</g>
		<g>
			<g>
				<path fill="#F9B5AC" d="M293.2-373.4c7.7,0,7.7-11.9,0-11.9C285.5-385.3,285.5-373.4,293.2-373.4L293.2-373.4z"/>
			</g>
		</g>
		<g>
			<g>
				<path fill="#F9B5AC" d="M178.7-118.6c7.7,0,7.7-11.9,0-11.9C171-130.6,171-118.6,178.7-118.6L178.7-118.6z"/>
			</g>
		</g>
	</g>
</pattern>
<g>
	<pattern  id="SVGID_1_" xlink:href="#æ–°å¢žåœ–æ¨£è‰²ç¥¨_4" patternTransform="matrix(1 0 0 1 -764.2016 0)">
	</pattern>
	<rect x="72.8" y="0" fill="url(#SVGID_1_)" width="9308.3" height="1207"/>
</g>
<path fill="#F8A79E" d="M2665.2,560.9c-8.2,1.9-16.5,1.9-24.8,0c-14.5-3.3-26.9-12.1-34.8-24.7c-1.9-3-3.5-6.2-4.8-9.5l-57.8-13.1
	c-7.1,6.6-15.9,11.5-25.7,13.7c-8.2,1.9-16.5,1.9-24.8,0c-30-6.8-48.9-36.8-42-66.8c1.5-6.6,4.1-12.7,7.6-18.1
	c-0.8-6.5-0.5-13.1,0.9-19.7c4.7-20.8,21.2-37.3,42-42c8.2-1.9,16.5-1.9,24.8,0c18.4,4.2,32.6,16.9,39.3,33.1l59,13.4
	c6.9-6.2,15.5-10.7,24.9-12.9c8.2-1.9,16.5-1.9,24.8,0c30,6.8,48.9,36.8,42,66.8c-1.5,6.6-4.1,12.7-7.6,18.1
	c0.8,6.5,0.5,13.1-0.9,19.7C2702.5,539.7,2686,556.2,2665.2,560.9C2665.2,560.9,2665.2,560.9,2665.2,560.9z"/>
<path fill="#F2EAE2" d="M2649.2,486.2c5-2.3,8.9-6.9,10.2-12.6c2.3-10-4-19.9-13.9-22.1c-9.7-2.2-19.4,3.7-21.9,13.2l-75.4-17.1
	c1.8-9.7-4.3-19.2-14.1-21.4c-10-2.3-19.9,4-22.1,13.9c-1.3,5.8,0.2,11.5,3.7,15.8c-5,2.3-8.9,6.9-10.2,12.6
	c-2.3,10,4,19.9,13.9,22.1c10,2.3,19.9-4,22.1-13.9l75.3,17.1c-2.3,10,4,19.9,13.9,22.1c10,2.3,19.9-4,22.1-13.9
	C2654.3,496.2,2652.7,490.4,2649.2,486.2z"/>
<path fill="#F8A79E" d="M790.3,813.4c-6.3,5.2-13.5,8.7-21.4,10.7c-14,3.4-28.5,1.2-40.8-6.3c-3-1.8-5.7-3.9-8.3-6.2L664,825.1
	c-3.3,8.8-8.8,16.8-16.3,23c-6.3,5.2-13.5,8.7-21.4,10.7c-28.9,7-58.2-10.8-65.2-39.7c-1.5-6.3-1.9-12.7-1.2-19
	c-3.5-5.2-6.1-11.1-7.7-17.4c-4.9-20,2.3-41.5,18.3-54.5c6.3-5.2,13.5-8.7,21.4-10.7c17.7-4.3,35.5,0.6,48.3,11.7l56.9-13.8
	c3.3-8.4,8.8-16,16-21.9c6.3-5.2,13.5-8.7,21.4-10.7c28.9-7,58.2,10.8,65.2,39.7c1.5,6.3,1.9,12.7,1.2,19c3.5,5.2,6.1,11.1,7.7,17.4
	C813.4,778.9,806.2,800.3,790.3,813.4C790.3,813.4,790.3,813.4,790.3,813.4z"/>
<path fill="#F2EAE2" d="M744.2,755.5c3.3-4.2,4.7-9.8,3.4-15.3c-2.3-9.6-12-15.5-21.6-13.2c-9.4,2.3-15.2,11.6-13.3,20.9l-72.7,17.7
	c-2.6-9.2-12.1-14.8-21.4-12.5c-9.6,2.3-15.5,12-13.2,21.6c1.4,5.6,5.2,9.9,10,12.1c-3.3,4.2-4.7,9.8-3.4,15.3
	c2.3,9.6,12,15.5,21.6,13.2s15.5-12,13.2-21.6l72.7-17.7c2.3,9.6,12,15.5,21.6,13.2c9.6-2.3,15.5-12,13.2-21.6
	C752.9,762,749,757.7,744.2,755.5z"/>
<path fill="#F8A79E" d="M4227.6,825.7c-7-0.3-13.7-2.2-19.9-5.5c-10.9-5.9-18.9-15.7-22.5-27.6c-0.9-2.9-1.4-5.8-1.7-8.7l-43.5-23.5
	c-7.2,3.8-15.4,5.7-23.7,5.3c-7-0.3-13.7-2.2-19.9-5.5c-22.6-12.2-31-40.5-18.8-63c2.7-4.9,6.1-9.3,10.2-12.9
	c0.8-5.4,2.5-10.6,5.2-15.6c8.4-15.6,25.4-25.2,43.1-24.4c7,0.3,13.7,2.2,19.9,5.5c13.8,7.5,22.4,20.9,24.1,35.4l44.4,23.9
	c7-3.5,14.8-5.2,22.9-4.8c7,0.3,13.7,2.2,19.9,5.5c22.6,12.2,31,40.5,18.8,63c-2.7,4.9-6.1,9.3-10.2,12.8
	c-0.8,5.4-2.5,10.6-5.2,15.6C4262.3,817,4245.4,826.5,4227.6,825.7L4227.6,825.7z"/>
<path fill="#F2EAE2" d="M4231.5,762.1c4.5-0.8,8.7-3.5,11-7.9c4-7.5,1.2-16.8-6.2-20.9c-7.3-3.9-16.4-1.4-20.6,5.7l-56.7-30.6
	c3.6-7.4,0.8-16.4-6.5-20.3c-7.5-4-16.8-1.2-20.9,6.2c-2.3,4.4-2.4,9.3-0.5,13.5c-4.5,0.8-8.7,3.5-11,7.9c-4,7.5-1.2,16.8,6.2,20.9
	c7.5,4,16.8,1.2,20.9-6.2l56.7,30.6c-4,7.5-1.2,16.8,6.2,20.9c7.5,4,16.8,1.2,20.9-6.2C4233.3,771.2,4233.3,766.3,4231.5,762.1z"/>
<path fill="#F8A79E" d="M5842.5,483.7c-6.1,4.3-12.9,7.1-20.2,8.4c-13,2.2-26.1-0.8-36.8-8.4c-2.6-1.8-5-3.9-7.1-6.1l-51.7,8.8
	c-3.6,7.8-9.1,14.8-16.4,19.9c-6.1,4.3-12.9,7.1-20.2,8.4c-26.8,4.6-52.4-13.5-57-40.3c-1-5.9-0.9-11.7,0.1-17.4
	c-2.9-5-4.9-10.5-5.9-16.4c-3.2-18.6,4.7-37.7,20.1-48.6c6.1-4.3,12.9-7.1,20.2-8.4c16.5-2.8,32.4,2.8,43.3,13.8l52.7-9
	c3.6-7.4,9-14,16-19c6.1-4.3,12.9-7.1,20.2-8.4c26.8-4.6,52.4,13.5,56.9,40.3c1,5.9,0.9,11.7-0.1,17.4c2.9,5,4.9,10.5,5.9,16.4
	C5865.8,453.8,5857.9,472.8,5842.5,483.7L5842.5,483.7z"/>
<path fill="#F2EAE2" d="M5804.2,428c3.3-3.6,4.9-8.6,4.1-13.8c-1.5-8.9-10-14.9-18.9-13.4c-8.7,1.5-14.6,9.6-13.5,18.2l-67.4,11.5
	c-1.8-8.6-10.1-14.2-18.7-12.7c-8.9,1.5-14.9,10-13.4,18.9c0.9,5.2,4.1,9.4,8.4,11.7c-3.3,3.6-4.9,8.6-4.1,13.8
	c1.5,8.9,10,14.9,18.9,13.4c8.9-1.5,14.9-10,13.4-18.9l67.4-11.5c1.5,8.9,10,14.9,18.9,13.4c8.9-1.5,14.9-10,13.4-18.9
	C5811.7,434.5,5808.5,430.3,5804.2,428z"/>
<path fill="#F8A79E" d="M7894.1,819.5c-6.1,4.3-12.9,7.1-20.2,8.4c-13,2.2-26.1-0.8-36.8-8.4c-2.6-1.8-5-3.9-7.1-6.1l-51.7,8.8
	c-3.6,7.8-9.1,14.8-16.4,19.9c-6.1,4.3-12.9,7.1-20.2,8.4c-26.8,4.6-52.4-13.5-57-40.3c-1-5.9-0.9-11.7,0.1-17.4
	c-2.9-5-4.9-10.5-5.9-16.4c-3.2-18.6,4.7-37.7,20.1-48.6c6.1-4.3,12.9-7.1,20.2-8.4c16.5-2.8,32.4,2.8,43.3,13.8l52.7-9
	c3.6-7.4,9-14,16-19c6.1-4.3,12.9-7.1,20.2-8.4c26.8-4.6,52.4,13.5,56.9,40.3c1,5.9,0.9,11.7-0.1,17.4c2.9,5,4.9,10.5,5.9,16.4
	C7917.4,789.5,7909.5,808.5,7894.1,819.5C7894.1,819.5,7894.1,819.5,7894.1,819.5z"/>
<path fill="#F2EAE2" d="M7855.7,763.7c3.3-3.6,4.9-8.6,4.1-13.8c-1.5-8.9-10-14.9-18.9-13.4c-8.7,1.5-14.6,9.6-13.5,18.2l-67.4,11.5
	c-1.8-8.6-10.1-14.2-18.7-12.7c-8.9,1.5-14.9,10-13.4,18.9c0.9,5.2,4.1,9.4,8.4,11.7c-3.3,3.6-4.9,8.6-4.1,13.8
	c1.5,8.9,10,14.9,18.9,13.4s14.9-10,13.4-18.9l67.4-11.5c1.5,8.9,10,14.9,18.9,13.4c8.9-1.5,14.9-10,13.4-18.9
	C7863.2,770.2,7860,766,7855.7,763.7z"/>
<path fill="#F59295" d="M9390.7,61.6c19.7-24.8,2-61.3-29.6-61.3h-105.7h-6.1h-178.3h-6.2H8887h-6.7h-169.6h-14.3h-170.1h-6.2
	h-177.7h-6.7h-157.9h-26h-158.4h-6.2h-177.7h-6.7h-177.8h-6.1h-178.3h-6.2h-177.7h-6.7h-169.6H7066h-170.1h-6.2H6712h-6.7h-157.9
	h-26H6363h-6.2h-177.7h-6.7h-177.8h-6.1h-178.3h-6.2h-177.7h-6.7H5450h-14.3h-170.1h-6.2h-177.7h-6.7h-157.9h-26h-158.4h-6.2h-177.7
	h-6.7h-177.8h-6.1h-178.3h-6.2h-177.7h-6.7h-169.6h-14.3h-170.1h-6.2h-177.7h-6.7h-157.9h-26h-158.4h-6.2h-177.7h-6.7h-177.8h-6.1
	h-178.3h-6.2h-177.7h-6.7h-169.6H2175h-170.1h-6.2H1821h-6.7h-157.9h-26H1472h-6.2h-177.7h-6.7h-177.8h-6.1H919.1h-6.2H735.2h-6.7
	H558.9h-14.3H374.5h-6.2H190.6h-6.7H0l50.3,67.6c21,28.2,62.9,28.9,84.9,1.5l0,0c24.8-31,68.1-33.4,96.2-5.3l0,0
	c25.3,25.3,66.3,25.3,91.6,0l6.3-6.3c25.8-25.8,64.7-23,86.5,6.3l0,0c22.4,30.1,67.2,30.9,90.7,1.6l4.2-5.2
	c20.7-25.8,60.1-25.1,79.8,1.4l1.6,2.2c22.4,30.1,67.2,30.9,90.7,1.6l2.6-3.2c23.5-29.3,68.3-28.5,90.7,1.6l0,0
	c22.4,30.1,67.2,30.9,90.7,1.6l2.8-3.6c23.5-29.3,68.3-28.5,90.7,1.6l0.2,0.3c22.4,30.1,67.2,30.9,90.7,1.6l8.5-10.6
	c20.7-25.8,60.1-25.1,79.8,1.4l5.6,7.5c22.4,30.1,67.2,30.9,90.7,1.6l2.6-3.2c23.5-29.3,68.3-28.5,90.7,1.6v0
	c22.4,30.1,67.2,30.9,90.7,1.6l2.8-3.6c23.5-29.3,68.3-28.5,90.7,1.6l0.2,0.3c22.4,30.1,67.2,30.9,90.7,1.6l3.2-4
	c18.1-22.6,52.6-21.9,69.8,1.2l0,0c21.4,28.7,63.3,31.8,88.6,6.5l2.3-2.3c26.8-26.8,70.2-26.8,97,0v0c26.4,26.4,67.1,24.2,90.5-5
	l0,0c23.5-29.3,68.3-28.5,90.7,1.6l0.2,0.3c22.4,30.1,67.2,30.9,90.7,1.6l4.2-5.2c20.7-25.8,60.1-25.1,79.8,1.4l1.6,2.2
	c22.4,30.1,67.2,30.9,90.7,1.6l2.6-3.2c23.5-29.3,68.3-28.5,90.7,1.6v0c22.4,30.1,67.2,30.9,90.7,1.6l2.8-3.6
	c23.5-29.3,68.3-28.5,90.7,1.6l0.2,0.3c22.4,30.1,67.2,30.9,90.7,1.6l8.5-10.6c20.7-25.8,60.1-25.1,79.8,1.4l8.4,11.3
	c21,28.2,62.9,28.9,84.9,1.5l0,0c24.8-31,68.1-33.4,96.2-5.3l3,3c26.4,26.4,67.1,24.2,90.5-5v0c23.5-29.3,68.3-28.5,90.7,1.6
	l0.2,0.3c22.4,30.1,67.2,30.9,90.7,1.6v0c19.7-24.6,57.3-23.9,76.2,1.4l0.6,0.8c21,28.2,62.9,28.9,84.9,1.5v0
	c24.8-31,68.1-33.4,96.2-5.3l3,3c26.4,26.4,67.1,24.2,90.5-5v0c23.5-29.3,68.3-28.5,90.7,1.6l0.2,0.3c22.4,30.1,67.2,30.9,90.6,1.6
	l4.2-5.2c20.7-25.8,60.1-25.1,79.8,1.4l1.6,2.2c22.4,30.1,67.2,30.9,90.7,1.6l2.6-3.2c23.5-29.3,68.3-28.5,90.7,1.6l0,0
	c22.4,30.1,67.2,30.9,90.7,1.6l2.8-3.6c23.5-29.3,68.3-28.5,90.7,1.6l0.2,0.3c22.4,30.1,67.2,30.9,90.7,1.6l8.5-10.6
	c20.7-25.8,60.1-25.1,79.8,1.4l5.6,7.5c22.4,30.1,67.2,30.9,90.7,1.6l2.6-3.2c23.5-29.3,68.3-28.5,90.7,1.6v0
	c22.4,30.1,67.2,30.9,90.7,1.6l2.8-3.6c23.5-29.3,68.3-28.5,90.7,1.6l0.2,0.3c22.4,30.1,67.2,30.9,90.7,1.6v0
	c19.7-24.6,57.3-23.9,76.2,1.4l0.6,0.8c21,28.2,62.9,28.9,84.9,1.5l0,0c24.8-31,68.1-33.4,96.2-5.3l3,3c26.4,26.4,67.1,24.2,90.5-5
	v0c23.5-29.3,68.3-28.5,90.7,1.6l0.2,0.3c22.4,30.1,67.2,30.9,90.6,1.6l4.2-5.2c20.7-25.8,60.1-25.1,79.8,1.4l1.6,2.2
	c22.4,30.1,67.2,30.9,90.7,1.6l2.6-3.2c23.5-29.3,68.3-28.5,90.7,1.6l0,0c22.4,30.1,67.2,30.9,90.7,1.6l2.8-3.6
	c23.4-29.3,68.2-28.5,90.6,1.6l0.3,0.3c22.4,30.1,67.2,30.9,90.7,1.6l8.4-10.5c20.7-25.8,60.1-25.1,79.8,1.4l5.6,7.5
	c22.4,30.1,67.2,30.9,90.7,1.6l2.6-3.2c23.5-29.3,68.3-28.5,90.7,1.6v0c22.4,30.1,67.2,30.9,90.7,1.6l2.8-3.5
	c23.5-29.3,68.3-28.5,90.7,1.6l0.3,0.3c22.4,30.1,67.2,30.9,90.6,1.6v0c19.7-24.6,57.3-23.9,76.2,1.4l0.6,0.8
	c21,28.2,62.9,28.9,84.9,1.5v0c24.8-31,68.1-33.4,96.2-5.3l3,3c26.4,26.4,67.1,24.2,90.5-5v0c23.5-29.3,68.3-28.5,90.7,1.6l0.2,0.3
	c22.4,30.1,67.2,30.9,90.7,1.6l4.2-5.2c20.7-25.8,60.1-25.1,79.8,1.4l1.6,2.2c22.4,30.1,67.2,30.9,90.7,1.6l2.6-3.2
	c23.5-29.3,68.3-28.5,90.7,1.6v0c22.4,30.1,67.2,30.9,90.7,1.6l2.8-3.6c23.5-29.3,68.3-28.5,90.7,1.6l0.2,0.3
	c22.4,30.1,67.2,30.9,90.6,1.6l8.5-10.6c20.7-25.8,60.1-25.1,79.8,1.4l5.6,7.5c22.4,30.1,67.2,30.9,90.7,1.6l2.6-3.2
	c23.5-29.3,68.3-28.5,90.7,1.6v0c22.4,30.1,67.2,30.9,90.7,1.6l2.8-3.5c23.5-29.3,68.3-28.5,90.7,1.6l0.3,0.3
	c22.4,30.1,67.2,30.9,90.6,1.6v0c19.7-24.6,57.3-23.9,76.2,1.4l0.6,0.8c21,28.2,62.9,28.9,84.9,1.5v0c24.8-31,68.1-33.4,96.2-5.3
	l3,3c26.4,26.4,67.1,24.2,90.5-5v0c23.5-29.3,68.3-28.5,90.7,1.6l0.2,0.3c22.4,30.1,67.2,30.9,90.6,1.6l4.2-5.2
	c20.7-25.8,60.1-25.1,79.8,1.4l1.6,2.2c22.4,30.1,67.2,30.9,90.7,1.6l2.6-3.2c23.5-29.3,68.3-28.5,90.7,1.6v0
	c22.4,30.1,67.2,30.9,90.7,1.6l2.8-3.6c23.5-29.3,68.3-28.5,90.7,1.6l0.2,0.3c22.4,30.1,67.2,30.9,90.7,1.6l8.5-10.6
	c20.7-25.8,60.1-25.1,79.8,1.4l5.6,7.5c22.4,30.1,67.2,30.9,90.7,1.6l2.6-3.2C9390.2,62.2,9390.4,61.9,9390.7,61.6z"/>
<g>
</g>
<g>
</g>
<g>
</g>
<g>
</g>
<g>
</g>
<g>
</g>
<g>
</g>
<g>
</g>
<g>
</g>
<g>
</g>
<g>
</g>
<g>
</g>
<g>
</g>
<g>
</g>
<g>
</g>
</svg>
