<?xml version="1.0" encoding="utf-8"?>
<!-- Generator: Adobe Illustrator 18.0.0, SVG Export Plug-In . SVG Version: 6.00 Build 0)  -->
<!DOCTYPE svg PUBLIC "-//W3C//DTD SVG 1.1//EN" "http://www.w3.org/Graphics/SVG/1.1/DTD/svg11.dtd">
<svg version="1.1" id="Layer_1" xmlns="http://www.w3.org/2000/svg" xmlns:xlink="http://www.w3.org/1999/xlink" x="0px" y="0px"
	 viewBox="0 0 776.5 481.7" enable-background="new 0 0 776.5 481.7" xml:space="preserve">
<g>
	<g>
		<g>
			
				<linearGradient id="SVGID_1_" gradientUnits="userSpaceOnUse" x1="-11016.5957" y1="-1088.2928" x2="-10925.5254" y2="-1088.2928" gradientTransform="matrix(-1.0233 0.2464 0.2341 0.9722 -10595.9727 4101.9922)">
				<stop  offset="0" style="stop-color:#BEC0C2"/>
				<stop  offset="1" style="stop-color:#B1B3B6"/>
			</linearGradient>
			<path fill="url(#SVGID_1_)" d="M416.6,306l-93.7,20.2l7.3,21.7c3.9,11.6,14.1,19.8,26.1,21l5.5,0.6c3.4,0.3,6.8,0.1,10.2-0.7
				l26.7-6.4c5.7-1.4,10.9-4.4,14.9-8.6l0,0c7.2-7.6,10.1-18.4,7.6-28.6L416.6,306z"/>
		</g>
		<g>
			
				<linearGradient id="SVGID_2_" gradientUnits="userSpaceOnUse" x1="-7523.479" y1="-615.532" x2="-7432.4087" y2="-615.532" gradientTransform="matrix(-1.243276e-002 -1.0525 -0.9999 1.181229e-002 -639.0011 -7571.0146)">
				<stop  offset="0" style="stop-color:#BEC0C2"/>
				<stop  offset="1" style="stop-color:#B1B3B6"/>
			</linearGradient>
			<path fill="url(#SVGID_2_)" d="M94.1,339.5l1.2-95.9l-22.7,2.3c-12.1,1.2-22.4,9.3-26.3,20.8l-1.8,5.2c-1.1,3.2-1.6,6.6-1.6,10.1
				l0.3,27.5c0.1,5.9,1.8,11.6,5.1,16.5l0,0c5.8,8.7,15.7,13.9,26.2,13.8L94.1,339.5z"/>
		</g>
		<g>
			<linearGradient id="SVGID_3_" gradientUnits="userSpaceOnUse" x1="54.0802" y1="403.9199" x2="159.8525" y2="403.9199">
				<stop  offset="0" style="stop-color:#BEC0C2"/>
				<stop  offset="1" style="stop-color:#B1B3B6"/>
			</linearGradient>
			<path fill="url(#SVGID_3_)" d="M152.4,375.9c0,0-38,49.1-98.4,44v11.9c0,0,70.3,4.5,105.8-38.5L152.4,375.9z"/>
		</g>
		<path fill="#B1B3B6" d="M399.8,349.5c3.3-0.1,3.9,20.8,3.8,23.2c-1,29.3-16.8,51.2-27.9,76.3c-2.7,6.1-8.2,10.1-14.3,10.5
			l-51.1,3.4c-10.2,0.7-18.8-8.5-18.7-19.8l0.2-14.4c0-2-2.5-2.3-2.9-0.4l-3.3,17.3c-2.1,11.4-10.9,19.7-21.4,20.4l-66.5,4.4
			c-9.4,0.6-18.2-4.9-22.6-14.2c-8.4-17.6-20.7-47.1-21.1-68.7l92.4-25.9C246.4,361.6,398.4,349.6,399.8,349.5z"/>
		<path fill="#E4E5E6" d="M363.8,454.5c-5-3.8-15.4-8.7-27.9,1.7c-1.3,1.1-0.5,3.4,1.2,3.3l25.8-1.7
			C364.6,457.7,365.2,455.5,363.8,454.5z"/>
		<path fill="#E4E5E6" d="M336.6,456.3c-5.1-3.8-15.6-8.7-28.2,1.8c-1.3,1.1-0.5,3.4,1.2,3.3l26.1-1.7
			C337.3,459.5,337.9,457.3,336.6,456.3z"/>
		<path fill="#E4E5E6" d="M265.1,461.1c-6.2-3.7-18.9-8.5-34.4,2.2c-1.7,1.1-0.7,3.4,1.4,3.3l31.8-2.1
			C265.9,464.3,266.7,462.1,265.1,461.1z"/>
		<path fill="#E4E5E6" d="M231.5,463.3c-6.2-3.7-19.1-8.5-34.7,2.2c-1.7,1.1-0.7,3.4,1.4,3.3l32.2-2.2
			C232.4,466.5,233.1,464.3,231.5,463.3z"/>
		
			<path fill="#B1B3B6" stroke="#797A7D" stroke-width="2.5" stroke-linecap="round" stroke-linejoin="round" stroke-miterlimit="10" d="
			M316.6,404.3c0,0-12.1,17.9-26.6,23"/>
		<g>
			<path fill="#F58258" d="M418.9,314.2c0,0-20.3-84.3-59.4-101.5l-193.2,2.5c0,0-45.9-31.2-61.9,23.9c-7.3,12.9-0.9-7.5-10.1,15.2
				l0,85.2c-0.1,0.8,57-0.5,56.9,0.4l2.8,47.7c0,0,194.4-7,248-33.9l-3.4-31.1L418.9,314.2z"/>
		</g>
		<path fill="#D54849" d="M356.6,232.3l-20.2,40.2c-3.4,7.8-13.4,10-19.8,4.3l-17.3-15.4l-15.6,23.1c-3.7,5.5-11,7.1-16.7,3.8
			L213.3,257L356.6,232.3z"/>
		<g>
			<circle fill="#D54849" cx="312.4" cy="318.7" r="32.2"/>
			<polygon fill="#FBDBAE" points="302.2,308.3 303.9,294.4 329.9,316.3 308.9,343.2 313.7,323.4 			"/>
		</g>
		<g>
			<path fill="#D4A26B" d="M104.4,295.8l-0.1-35.5c0-3,2.4-5.4,5.4-5.4l35.5-0.1c3,0,5.4,2.4,5.4,5.4l0.1,35.5c0,3-2.4,5.4-5.4,5.4
				l-35.5,0.1C106.8,301.2,104.4,298.8,104.4,295.8z"/>
			<path fill="#E5BF7A" d="M129.5,301.2l-0.1-46.3l15.8,0c3,0,5.4,2.4,5.4,5.4l0.1,35.5c0,3-2.4,5.4-5.4,5.4L129.5,301.2z"/>
			<path fill="#BA8F64" d="M121.2,281.8l0-5.9c0-1.7,1.3-3,3-3l8.8,0c1.7,0,3,1.3,3,3l0,5.9c0,1.7-1.3,3-3,3l-8.8,0
				C122.5,284.7,121.2,283.4,121.2,281.8z"/>
		</g>
		<path fill="#797A7D" d="M54.1,419.9c0,0-12.1-19.5-45,0c0,0,18.5,31.1,45,11.9V419.9z"/>
		<path fill="#ABADB0" d="M283.5,19l88.6-8c30.3-2.7,60.2,7.7,82.2,28.7l0,0c31.2,29.8,41,75.7,24.8,115.7l-7.3,18.1
			c-17.4,43-60.9,69.5-107.1,65.2l-23.7-2.2"/>
		<path fill="#939598" d="M355,212.8L355,212.8c35.3,3.2,68.6-17,82-49.9l5.6-13.8c13.4-33.1,3.5-71.5-25.3-93.9
			c-16.4-12.7-37.1-18.3-57.8-16.5l-50.2,4.5c-8.6,0.8-14.4,9.1-12.2,17.4l35.1,132.9C335,204.1,344.1,211.8,355,212.8z"/>
		
			<linearGradient id="SVGID_4_" gradientUnits="userSpaceOnUse" x1="-12231.1631" y1="1379.2909" x2="-12299.1768" y2="1563.2352" gradientTransform="matrix(-0.9829 0.184 0.184 0.9829 -12027.2979 1016.6837)">
			<stop  offset="0" style="stop-color:#BCBEC0"/>
			<stop  offset="1" style="stop-color:#A3A5A8"/>
		</linearGradient>
		<path fill="url(#SVGID_4_)" d="M166.6,249.8c57.6,27.5,120.9,28,177.7-2.3c27.4-14.6,50.4-38.4,49.8-71.1
			c-0.2-9.3-2.3-18.3-5.2-27.1c-7.8-23.7-4.8-48.2-11.4-72c-4.9-17.4-15.4-32.8-28.8-44.8C322.6,9,288.4,1.6,250,0.1
			c-28.2-1.1-70,10.4-90.9,30.9"/>
		<path fill="#ABADB0" d="M355.6,112.1c4.2,6,2.7,14.3-3.3,18.4c-6,4.1-14.3,2.6-18.5-3.4c-4.2-6-2.7-14.3,3.3-18.4
			S351.4,106,355.6,112.1z"/>
		<path fill="#797A7D" d="M350.7,114.6c2.3,3.8,1.1,8.7-2.7,11c-3.8,2.3-8.7,1.1-11.1-2.8c-2.3-3.8-1.1-8.7,2.7-11
			C343.4,109.5,348.4,110.8,350.7,114.6z"/>
		<path fill="#ABADB0" d="M261.8,128.3c4.3,6.1,2.7,14.6-3.4,18.8c-6.1,4.2-14.5,2.6-18.8-3.5c-4.3-6.1-2.7-14.6,3.4-18.8
			S257.5,122.2,261.8,128.3z"/>
		<path fill="#797A7D" d="M259.4,131.5c2.4,3.9,1.1,9-2.8,11.3c-3.9,2.3-9,1.1-11.4-2.8c-2.4-3.9-1.1-9,2.8-11.3
			C252,126.3,257.1,127.6,259.4,131.5z"/>
		
			<linearGradient id="SVGID_5_" gradientUnits="userSpaceOnUse" x1="-12123.002" y1="1091.3517" x2="-12123.002" y2="1143.4392" gradientTransform="matrix(-0.9907 0.1358 0.1358 0.9907 -12055.25 784.0541)">
			<stop  offset="0" style="stop-color:#BEC0C2"/>
			<stop  offset="1" style="stop-color:#B1B3B6"/>
		</linearGradient>
		<path fill="url(#SVGID_5_)" d="M172.6,28.2L86.2,45.8c-29.9,5.5-55.9,23.7-71.4,49.8l0,0c-22,37.1-19.2,83.9,7.2,118.1l11.9,15.4
			c28.4,36.7,77.4,50.5,120.7,34l22.2-8.5"/>
		<path fill="#A1A3A6" d="M160.5,233.9L160.5,233.9c-32.6,14.1-70.5,5.1-93.4-22l-9.6-11.4c-23.1-27.3-25.6-66.9-5.2-97.1
			c11.6-17.2,29.6-29,49.8-33.6l49.2-11.3c8.4-1.9,16.5,4.2,17,12.8l8,137.2C176.8,219.4,170.6,229.6,160.5,233.9z"/>
		<path fill="#797A7D" d="M236.6,195.2c3-1.7,5.5-3.3,7.6-5.1c2.2-1.8,4-3.8,5.5-5.9c0.4-0.6,0.8-1.1,1.1-1.7c0.4-0.6,0.7-1.2,1-1.8
			c0.6-1.2,1.2-2.5,1.8-3.9c1.1-2.7,2.1-5.7,3.4-8.9l0-0.1c0-0.1,0.1-0.1,0.2-0.1c0.1,0,0.1,0.1,0.1,0.2l0,2.4l-0.1,2.4
			c-0.1,1.6-0.3,3.2-0.7,4.8c-0.3,1.6-0.8,3.1-1.4,4.6c-0.6,1.5-1.4,2.9-2.3,4.3c-1.9,2.7-4.3,4.9-7.2,6.4c-2.8,1.6-5.9,2.6-9.2,2.8
			c-0.1,0-0.2-0.1-0.2-0.2C236.4,195.3,236.4,195.3,236.6,195.2L236.6,195.2z"/>
		<g>
			<path fill="#797A7D" d="M234.5,117.2c2.6-0.9,5-1.6,7.3-2.3c2.3-0.8,4.5-1.5,6.6-2.5c2-1,4-2,5.8-3.4c1.8-1.4,3.4-3.1,5.2-5.2
				l0,0c0.1-0.1,0.1-0.1,0.2,0c0,0,0.1,0.1,0,0.2c-0.7,2.5-2,4.8-3.7,6.7c-1.7,1.9-3.9,3.4-6.3,4.5c-2.4,1.1-4.9,1.7-7.4,2.1
				c-2.5,0.4-5.1,0.5-7.7,0.2c-0.1,0-0.1-0.1-0.1-0.2C234.3,117.3,234.3,117.3,234.5,117.2L234.5,117.2z"/>
		</g>
		<g>
			<path fill="#797A7D" d="M328.4,97.2c2.4,1.2,4.6,2.4,6.8,3.6c2.2,1.1,4.3,2.1,6.4,2.9c2.1,0.8,4.2,1.4,6.5,1.7
				c2.3,0.3,4.6,0.2,7.4,0l0.1,0c0.1,0,0.1,0.1,0.2,0.1c0,0.1,0,0.1-0.1,0.1c-2.3,1.2-4.8,2-7.4,2.1c-2.6,0.1-5.2-0.4-7.6-1.3
				c-2.4-0.9-4.7-2.3-6.7-3.8c-2.1-1.5-4-3.3-5.6-5.3c0-0.1,0-0.2,0-0.2C328.3,97.1,328.3,97.1,328.4,97.2L328.4,97.2z"/>
		</g>
		<path fill="#797A7D" d="M250.8,182.4c0,0,31.6,1.4,48.9-4.5l17.1,17.3C316.8,195.2,263.8,211.7,250.8,182.4z"/>
		<path fill="#ED85A9" d="M264.2,195.6c0,0,25.4-12.1,49-4.1l3.7,3.7C316.8,195.2,285.6,205.8,264.2,195.6z"/>
		<path fill="#FFFFFF" d="M336.2,137.7c5.7,0.4,22.2,1.1,32.6-5.6c1.1-0.7,2.3,0.5,1.8,1.7c-3.3,6.2-11.3,16.9-29.2,19.7
			c-0.6,0.1-1.2-0.2-1.4-0.8l-5.1-13.3C334.6,138.6,335.3,137.7,336.2,137.7z"/>
		<path fill="#C9CACC" d="M325.1,119.7c10,2.8,19.3,9.4,28.4,14.3c9.9,5.3,19.4,11.3,29.1,16.9c19.5,11.2,38.9,23,55,38.9
			c6.7,6.7,12.8,14,17.9,21.9c21.8,33.4,26.3,77.3,12.6,114.8s-45.3,67.8-83.1,80.6c-16.2,5.5-33.6,8-48.4,16.7
			c-1.4,0.8-3,1.3-4.6,1.3c-5.7-0.2-6.5-6.2-5.1-10.5c1.1-3.6,3.2-6.9,3.1-10.7c-0.1-4.8-3.9-8.7-6.3-12.9c-2.9-5-3.1-13.5,4.7-13.5
			c1.1,0,2.3,0.3,3.3,0.7c15.3,5.7,32.2,1,46.6-6.3c17.5-8.9,33.2-22.1,43.1-39c9.9-17,13.6-37.9,8.1-56.7
			c-7.4-25.2-29.8-43.2-53.2-55.1c-23.4-11.9-49-19.5-71.5-33c-10-6-19.8-13.8-23.9-24.7c-5-12.9-0.5-28.4,9.6-37.6
			c4.4-3.9,9.9-7.1,15.8-8.4C313,115.9,318.6,117.9,325.1,119.7z"/>
		<path fill="#A9ABAE" d="M308.9,154.9c3.4-5.3,11.6-15.6,26.2-22.5c1.1-0.5,0.7-2.1-0.5-2.1c-9.1,0.6-26.4,4.3-27.6,23.9
			C306.8,155.3,308.3,155.9,308.9,154.9z"/>
		<path fill="#A9ABAE" d="M325.3,160.4c3.4-5.3,11.5-15.5,26-22.4c1.1-0.5,0.7-2.1-0.5-2c-9,0.6-26.2,4.3-27.4,23.7
			C323.2,160.8,324.7,161.3,325.3,160.4z"/>
		<path fill="#A9ABAE" d="M340.5,168.4c3.4-5.3,11.5-15.5,26-22.4c1.1-0.5,0.7-2.1-0.5-2c-9,0.6-26.2,4.3-27.4,23.7
			C338.5,168.8,339.9,169.3,340.5,168.4z"/>
		<path fill="#FFFFFF" d="M264.9,153.4c5.7,0.4,22.3,1,32.8-5.8c1.1-0.7,2.4,0.5,1.8,1.7c-3.2,6.3-11.3,17.1-29.3,20
			c-0.6,0.1-1.2-0.2-1.4-0.8l-5.2-13.3C263.3,154.3,264,153.4,264.9,153.4z"/>
	</g>
	<g>
		<path fill="#9CA1A5" d="M695.4,452.9H561.2v-89.6h205.3v18.5C766.5,421.1,734.6,452.9,695.4,452.9z"/>
		<linearGradient id="SVGID_6_" gradientUnits="userSpaceOnUse" x1="482.5237" y1="299.971" x2="776.4983" y2="299.971">
			<stop  offset="0" style="stop-color:#C0C2C4"/>
			<stop  offset="1" style="stop-color:#BCBEC0"/>
		</linearGradient>
		<path fill="url(#SVGID_6_)" d="M537.2,237.3c-3.3,0.6-11.5,15.2-13.8,18.5c-5.7,7.8-11.3,15.6-16.4,23.8
			c-13.1,20.8-28.9,47-23.3,73.2c4.9,23,21.9,38,45.3,39.7c57.8,4.2,117.2,0.5,175.3,0c0,0,74.7,1,72.2-57.6
			c-3.1-74.4-74.6-129.2-74.6-129.2S537.3,237.2,537.2,237.3z"/>
		<path fill="#F5C15D" d="M507,279.9l75.8,114.2l60.1,0l20.8-26.7l97.4-88.8c0,0-23.7-53.3-63.6-73.2l-160.3,32L507,279.9z"/>
		<g>
			<path fill="#AAAFB4" d="M549.6,369.1L549.6,369.1c-28,0-50.7,22.7-50.7,50.7V462h-2.1c-5.4,0-9.9,4.4-9.9,9.9
				c0,5.4,4.4,9.9,9.9,9.9h92.5c6,0,10.9-4.9,10.9-10.9v-1.2V462v-42.2C600.3,391.8,577.6,369.1,549.6,369.1z"/>
			<path fill="#AAAFB4" d="M669.8,370.3L669.8,370.3c-28,0-50.7,22.7-50.7,50.7V462H617c-5.4,0-9.9,4.4-9.9,9.9
				c0,5.4,4.4,9.9,9.9,9.9h92.5c6,0,10.9-4.9,10.9-10.9v-0.1V462v-41.1C720.5,392.9,697.8,370.3,669.8,370.3z"/>
		</g>
		<linearGradient id="SVGID_7_" gradientUnits="userSpaceOnUse" x1="510.0182" y1="379.4047" x2="584.4127" y2="379.4047">
			<stop  offset="0" style="stop-color:#C0C2C4"/>
			<stop  offset="1" style="stop-color:#BCBEC0"/>
		</linearGradient>
		<path fill="url(#SVGID_7_)" d="M573.3,365.9c-8.9-2.8-18-5.5-27.4-5.6c-9.1-0.1-18.7,3.3-27.1,6.7c-5,2-8.8,4.8-8.8,10.6v9.6
			c0,6.2,5.1,11.3,11.3,11.3h51.8c6.2,0,11.3-5.1,11.3-11.3v-9.6c0-6.7-5.1-9.8-10.8-11.7C573.5,366,573.4,365.9,573.3,365.9z"/>
		<linearGradient id="SVGID_8_" gradientUnits="userSpaceOnUse" x1="637.7979" y1="379.4047" x2="712.1924" y2="379.4047">
			<stop  offset="0" style="stop-color:#C0C2C4"/>
			<stop  offset="1" style="stop-color:#BCBEC0"/>
		</linearGradient>
		<path fill="url(#SVGID_8_)" d="M701,365.9c-8.9-2.8-18-5.5-27.4-5.6c-9.1-0.1-18.7,3.3-27.1,6.7c-5,2-8.8,4.8-8.8,10.6v9.6
			c0,6.2,5.1,11.3,11.3,11.3h51.8c6.2,0,11.3-5.1,11.3-11.3v-9.6c0-6.7-5.1-9.8-10.8-11.7C701.3,366,701.2,365.9,701,365.9z"/>
		<ellipse fill="#2F8F6D" cx="620.1" cy="274.3" rx="81.7" ry="55.3"/>
		<ellipse fill="#9A9FA3" cx="620.1" cy="271" rx="66.8" ry="43.5"/>
		<path fill="none" d="M680.9,124.8c3.2,3.2,6.9,6.1,10.2,9C688.1,130.7,684.7,127.6,680.9,124.8z"/>
		<polygon fill="#91929D" points="691.1,133.8 691.1,133.8 691.1,133.8 		"/>
		
			<linearGradient id="SVGID_9_" gradientUnits="userSpaceOnUse" x1="182.5634" y1="-96.1389" x2="242.7114" y2="-12.5185" gradientTransform="matrix(0.9768 0.2144 -0.2144 0.9768 433.8147 294.8132)">
			<stop  offset="0" style="stop-color:#C0C2C4"/>
			<stop  offset="1" style="stop-color:#B1B3B6"/>
		</linearGradient>
		<path fill="url(#SVGID_9_)" d="M738.2,214c0.5-4,0.7-8.1,0.7-12.1c-0.2-15.9-4.1-32.5-11.3-46.6c-0.9-1.7-1.8-3.4-2.9-5.1l0,0
			c-2.5-4-5.3-8-7.7-12.2c-2-2.7-4.1-5.3-6.3-7.8l5.5-20.5c1.9-7.2,2.1-14.8,0.4-22.1l-6.9-30.1c0.3-6.2-3-12.1-8.5-14.9
			c-7.7-4-17.2-1.1-21.2,6.5c-7.9,14.9-3.6,29.8,0.5,38.7c2.4,5.3,3.5,11.1,3,16.9c-7-5.5-12-8.9-12-8.9
			c-14.1-6.2-24.8-7.6-24.8-7.6c-12.8-3.1-26.3-3.7-40-1.2c-20.2,3.8-39.5,14-54.5,27.9c-17.6,16.2-37.6,31.1-59.6,40.6
			c-2.3,1-4.5,2.3-6.6,3.8c-10.5-3-20.7,5.6-23.9,16.1c-1.4,4.6-1,8.4,0.6,11.7c2,4.4,3.1,9.1,2.8,13.9c-0.6,10.5,1.6,21.1,6.1,30.5
			c10.8,22.2,35.4,40.6,58,49.5c15.1,6,31.1,9.6,47.1,12.1c15.3,2.4,30.7,3.6,46.1,4.2C735.1,301.6,738.2,214,738.2,214z"/>
		<g>
			<path fill="#797A7D" d="M494.2,177c1.4,1.1,2.3,2.7,2.9,4.4c0.6,1.7,0.7,3.6,0.5,5.4c-0.1,1.8-0.6,3.7-1.5,5.2
				c-0.5,0.8-1,1.5-1.7,2.1c-0.7,0.6-1.3,1.2-2.1,1.7c-0.1,0-0.1,0-0.2,0c0,0,0-0.1,0-0.1l0,0c0.2-0.9,0.5-1.7,0.8-2.5
				c0.3-0.8,0.6-1.6,0.9-2.3c0.1-0.4,0.3-0.8,0.4-1.1c0.2-0.4,0.4-0.7,0.5-1.1l0.5-1.1l0.3-1.1c0.4-1.5,0.5-3.2,0.2-4.8
				c-0.2-1.6-0.9-3.2-1.9-4.5l0,0c0-0.1,0-0.1,0-0.2C494.1,177,494.2,177,494.2,177z"/>
		</g>
		<path fill="#808285" d="M470.1,187.2c0.2-0.8,0.8-1.5,2.3-2.1c2.4-1,8.4-1,7.8,3.8c-0.5,3.5-2.2,4.4-4.5,3.7
			C473.6,192.1,469.6,189.5,470.1,187.2z"/>
		<circle fill="#9A9FA3" cx="547.8" cy="168.9" r="13"/>
		<circle fill="#FFFFFF" cx="547.8" cy="168.9" r="8.2"/>
		<circle fill="#808285" cx="548.5" cy="165.7" r="5.6"/>
		<path fill="#9CA1A5" d="M564.3,160.9c-22.9,8.3-27.8-9.2-27.8-9.2"/>
		<path fill="#939598" d="M491.3,154.9c-1.1,0.7-2.2,1.5-3.2,2.4c-1,0.8-2,1.7-2.9,2.6c-0.2,0.2-0.4,0.2-0.7,0.2l-0.2,0
			c-1.8-0.2-3.6-0.2-5.4,0.2c-1.7,0.4-3.4,1-4.9,1.9c-3.1,1.7-5.6,4.4-7.5,7.3c-2,2.9-3.2,6.4-3.8,9.7c-0.3,1.7-0.3,3.3,0,4.9
			c0.2,0.8,0.4,1.5,0.7,2.3c0.1,0.4,0.3,0.7,0.5,1.1l0.6,1.3c1.8,3.8,3,8,3.1,12.2c0,0.5,0,1.1,0,1.6l0,1.5c0,0.9,0,1.9,0,2.8
			c0,1.9,0.1,3.8,0.3,5.6c0.7,7.5,2.5,15,5.3,22.3l0,0c0,0.1,0,0.2-0.1,0.2c-0.1,0-0.2,0-0.2-0.1c-3.8-6.9-6.2-14.4-7.4-22.1
			c-0.3-1.9-0.5-3.9-0.6-5.8c-0.1-2,0-3.9-0.2-5.8c-0.3-3.9-1.4-7.6-3.1-11.1c-0.9-1.7-1.8-3.6-2.1-5.5c-0.3-2-0.3-4,0-5.9
			c0.7-3.9,2.3-7.6,4.5-10.8c0.5-0.8,1.2-1.6,1.8-2.3c0.3-0.4,0.7-0.7,1-1.1c0.3-0.4,0.7-0.7,1.1-1c1.4-1.3,3.1-2.4,4.9-3.3
			c1.8-0.9,3.7-1.4,5.6-1.7c2-0.3,3.9-0.1,5.9,0.3l-0.2,0c2.1-1.6,4.3-3.1,6.7-4.3c0.1,0,0.2,0,0.2,0.1
			C491.4,154.8,491.4,154.9,491.3,154.9L491.3,154.9z"/>
		<path fill="#FFFFFF" d="M522.4,140.1l-48.7-85.7c-1.6-3-6.4-2.4-6.8,0.8c-2.5,19.7,3.2,73.5,18.7,105.7
			C485.5,160.9,497.6,154.5,522.4,140.1z"/>
		<rect x="603.3" y="320.5" fill="#2F8F6D" width="20.4" height="73.9"/>
		<g>
			<path fill="#797A7D" d="M465.6,212.9c4-0.6,7.8-0.6,11.7-0.5c1.9,0,3.9,0.2,5.8,0.3c1.9,0.2,3.8,0.4,5.7,0.6
				c1.9,0.3,3.8,0.6,5.7,0.9c1.9,0.4,3.8,0.7,5.7,1.2c3.8,0.9,7.5,1.9,11.2,3.5l0,0.3l-22.9-2.8l-22.9-3.1L465.6,212.9z"/>
		</g>
		<g>
			<g>
				<path fill="#797A7D" d="M576.8,167.8c0.8,5.1,1,10.2,0.7,15.3c-0.1,1.5,2.8,1,2.9-0.2c0.3-5.3,0.1-10.6-0.7-15.8
					C579.5,165.7,576.6,166.4,576.8,167.8L576.8,167.8z"/>
			</g>
		</g>
		<g>
			<g>
				<path fill="#797A7D" d="M585.3,162.4c0.1,8.3,0.4,16.5,1.1,24.8c0.1,1.3,3,0.6,2.9-0.8c-0.6-8.1-0.9-16.1-1-24.2
					C588.3,160.6,585.3,161.1,585.3,162.4L585.3,162.4z"/>
			</g>
		</g>
		<g>
			<g>
				<path fill="#797A7D" d="M594.4,161.3c0.5,11.1,1,22.1,1.3,33.2c0,0.8,2.9,0.2,2.9-0.8c-0.3-11.1-0.8-22.1-1.3-33.2
					C597.2,159.7,594.3,160.3,594.4,161.3L594.4,161.3z"/>
			</g>
		</g>
	</g>
</g>
<g>
</g>
<g>
</g>
<g>
</g>
<g>
</g>
<g>
</g>
<g>
</g>
<g>
</g>
<g>
</g>
<g>
</g>
<g>
</g>
<g>
</g>
<g>
</g>
<g>
</g>
<g>
</g>
<g>
</g>
</svg>
