<?xml version="1.0" encoding="utf-8"?>
<!-- Generator: Adobe Illustrator 18.0.0, SVG Export Plug-In . SVG Version: 6.00 Build 0)  -->
<!DOCTYPE svg PUBLIC "-//W3C//DTD SVG 1.1//EN" "http://www.w3.org/Graphics/SVG/1.1/DTD/svg11.dtd">
<svg version="1.1" id="Layer_1" xmlns="http://www.w3.org/2000/svg" xmlns:xlink="http://www.w3.org/1999/xlink" x="0px" y="0px"
	 viewBox="0 0 483 271.2" enable-background="new 0 0 483 271.2" xml:space="preserve">
<g>
	<path fill="#D65B51" d="M164.1,204.1c0,0,24.9,52.2,73.3,67c0,0-19.4-26.1-4.1-69.5L164.1,204.1z"/>
	<path fill="#D65B51" d="M408.7,233.5H74.3C33.4,233.5,0,200.1,0,159.2V74.3C0,33.4,33.4,0,74.3,0h334.4C449.6,0,483,33.4,483,74.3
		v84.9C483,200.1,449.6,233.5,408.7,233.5z"/>
	<g>
		<path fill="#FFFFFF" d="M57.6,58.4v-5.9h-6.2v-4.8h21.1c0,18.9-0.2,30.6-0.7,35.1c-0.5,4.4-2.8,6.6-6.9,6.6
			c-0.9,0-2.3-0.1-4.3-0.3l-1.2-4.5c1.8,0.2,3.4,0.3,4.7,0.3c1.9,0,2.9-1.4,3.2-4.1c0.1-1.1,0.2-3.4,0.3-6.9h-6.2
			C60,80.7,57.5,86,53.7,89.8L50,86.6c3.2-3.1,5.4-7.3,6.6-12.7h-5v-4.7h5.8c0.2-1.9,0.3-3.8,0.3-5.8v-0.4h-6.1v-4.7H57.6z
			 M67.6,63.1h-5.4v0.4c0,2-0.1,4-0.3,5.8h5.6C67.6,67.3,67.6,65.3,67.6,63.1z M67.7,52.5h-5.5v5.9h5.4
			C67.7,56.5,67.7,54.6,67.7,52.5z M93.1,47.8v3.8c-1.5,4.8-3.2,9.4-5,13.5c3.7,4.3,5.5,7.7,5.6,10.5c0,3.3-0.7,5.6-1.9,6.8
			c-1.4,1.3-4.1,2-8.2,2L82,79.1c1.9,0.2,3.4,0.3,4.7,0.3c0.9,0,1.4-0.3,1.6-0.9c0.2-0.4,0.4-1.4,0.4-3c0-2.7-2-6.2-5.9-10.5
			c1.6-3.5,3.2-7.7,4.8-12.6h-7.1v37.7h-4.8V47.8H93.1z"/>
		<path fill="#FFFFFF" d="M129.6,72.8c-2.5,0.9-5.1,1.6-7.9,2.3v9.6c0,3.1-1.7,4.8-5,4.8h-5.4l-1.1-4.7c1.7,0.2,3.2,0.3,4.8,0.3
			c1.1,0,1.7-0.6,1.7-1.6v-7.2c-2.8,0.6-5.6,1.1-8.5,1.6l-0.7-5c3.2-0.5,6.3-1,9.2-1.7V63h-9.3v-4.8h9.3v-4.4
			c-2.3,0.5-4.6,0.9-7.1,1.2l-1-4.7c6.6-0.7,12.5-2.1,17.6-4.2l1.7,4.7c-1.9,0.7-4,1.3-6.1,1.9v5.6h9.7c-0.3-3.7-0.4-7.7-0.4-12.1h5
			c0,4.6,0.2,8.6,0.5,12.1h14.2V63h-13.8c0.3,3.1,0.7,5.6,1.2,7.6c0.2,0.8,0.4,1.4,0.6,2.1c1.9-2.4,3.7-5.1,5.1-8.1l4.3,2.3
			c-2.1,4.3-4.6,8-7.5,11.2c0.5,1.1,1,2.1,1.5,2.9c1.3,2.1,2.4,3.1,3,3.1c0.5,0,1-2.4,1.6-7.2l4.4,2.3c-1.2,6.8-3,10.2-5.3,10.2
			c-2.1,0-4.3-1.4-6.5-4.2c-0.9-1.1-1.7-2.3-2.4-3.8c-3.2,2.7-6.8,4.8-10.8,6.3l-2.8-4.2c4.4-1.6,8.2-3.9,11.5-6.8
			c-0.5-1.5-1-3.1-1.4-4.7c-0.7-2.6-1.2-5.6-1.6-9h-10.2v7c2.8-0.7,5.4-1.5,7.9-2.3V72.8z M149.8,52.9l-3.6,3.6
			c-1.9-2.1-4.7-4.3-8.3-6.7l3.3-3.2C144.6,48.7,147.5,50.8,149.8,52.9z"/>
		<path fill="#FFFFFF" d="M189.5,45.9v10.6l14.2-3.2c-0.1,7.2-1.1,14.9-2.9,22.9l-4.8-1.5c1.2-4.2,2.1-9.3,2.8-15.2l-9.3,1.9v17.2
			h-4.9V62.5l-8.7,1.9v16.4c0,2.1,1,3.1,3.1,3.1h20.2c1.5,0,2.7-0.3,3.4-0.9c0.7-0.7,1.1-2.9,1.3-6.7l4.6,1.6
			c-0.4,5-1.1,8.1-2.2,9.2c-1.1,1-3.2,1.6-6.2,1.6h-22.2c-4.6,0-6.8-2.4-6.8-7.2v-16l-7,1.5v-4.8l7-1.6V49.7h4.9v9.8l8.7-1.9V45.9
			H189.5z"/>
		<path fill="#FFFFFF" d="M264.4,47.6v4.5h-13.5v3.1h10.7v12.8h-19.3l-1.7,3h24.4v4.6h-9.8c-0.9,2.4-2.4,4.4-4.4,6.2
			c4.5,1.3,9,2.9,13.6,4.6l-3.1,4.1c-5-2.1-10-4-15-5.6c-4.5,2.3-11.7,4.1-21.9,5.5l-1.9-4.5c7.2-0.8,12.9-1.8,17.1-3.1
			c-3.6-1-7.1-1.9-10.6-2.8c1-1.5,2-3,3-4.5h-10.6v-4.6h13.5c0.6-1,1.2-2,1.8-3h-11.8V55.2h10.7v-3.1H222v-4.5H264.4z M235.5,59.4
			h-5.9v4.5h5.9V59.4z M250,75.6h-12.3c-0.6,0.9-1.2,1.7-1.7,2.5c3,0.6,6.2,1.4,9.4,2.2C247.5,79,249,77.4,250,75.6z M246.2,52.1h-6
			v3.1h6V52.1z M246.2,59.4h-6v4.5h6V59.4z M256.8,59.4h-5.9v4.5h5.9V59.4z"/>
		<path fill="#FFFFFF" d="M301.7,89.9h-4.9V64.1c-1,1.2-1.9,2.5-2.9,3.7l-0.8-2.4v4.9c-1.3,0.6-2.6,1.1-3.8,1.7v12.6
			c0,3.2-1.7,4.9-5,4.9h-4.3l-1.1-4.8c1.3,0.2,2.5,0.3,3.7,0.3s1.8-0.6,1.8-1.7v-9.5c-1.7,0.6-3.5,1.1-5.2,1.6l-1.2-5
			c2.2-0.4,4.3-1,6.5-1.6v-9.6h-5.6v-4.8h5.6v-8.2h5v8.2h4.2v4.8h-4.2V67c1.3-0.6,2.6-1.1,3.8-1.8l-0.9-2.7
			c3.7-4.9,6.3-10.4,7.8-16.4l4.8,1c-0.7,2.3-1.4,4.5-2.3,6.6h6.7c-0.7-2.2-1.5-4.4-2.5-6.5l4.8-1.3c1,2.8,1.8,5.4,2.4,7.7h7.1v4.8
			h-7.5v5h6.6v4.7h-6.6V73h6.6v4.6h-6.6V83h8v4.8h-19.9V89.9z M301.7,58.5v5h6.9v-5H301.7z M301.7,73h6.9v-4.8h-6.9V73z M301.7,83
			h6.9v-5.4h-6.9V83z"/>
		<path fill="#FFFFFF" d="M377.3,87.5l-4.2,2.9c-0.7-1.3-1.5-2.6-2.2-3.8c-10.9,1-21.3,1.7-31.1,2.2l-0.8-4c3.8-2,7.7-6.9,11.7-14.5
			h-14.7v-4.8h18.8v-7.4h-15.9v-4.8h15.9v-7h5v7h15.8v4.8h-15.8v7.4h18.8v4.8h-22.3c-2.9,6.1-5.9,10.7-8.9,13.9
			c9.6-0.7,16.6-1.2,20.9-1.7c-1.8-2.7-3.8-5.5-6-8.5l4-2.6C371,77.7,374.7,83,377.3,87.5z"/>
		<path fill="#FFFFFF" d="M394.4,89.6l-1.1-4.8c1.2,0.2,2.4,0.3,3.5,0.3c0.9,0,1.3-0.6,1.3-1.6v-9.9c-1.5,0.6-3,1.1-4.6,1.6
			l-1.2-4.8c1.9-0.5,3.9-1,5.8-1.7v-9.6h-4.8v-4.7h4.8v-8.2h4.8v8.2h3.7v2.3c3.5-2.6,6.6-6.2,9.2-10.7l4.5,1c-0.3,0.6-0.7,1.2-1,1.8
			h10.6V52c-1.2,1.7-2.4,3.2-3.6,4.5h7.5v17.7h2.8v4.4h-13.7c-0.8,1.9-1.8,3.5-3,4.9c-2.3,2.6-6.4,4.7-12.2,6.2l-1.8-4.2
			c4.8-1.2,8.3-2.9,10.4-4.9c0.6-0.7,1.1-1.3,1.6-2h-10.7v-4.4h3V59.8l-0.9,0.7l-2.6-3.1v1.7h-3.7v7.7c1.4-0.7,2.8-1.3,4.2-2.1v4.8
			c-1.4,0.7-2.8,1.4-4.2,2v13.1c0,3.2-1.5,4.9-4.3,4.9H394.4z M423.9,52.7h-7.4c-1,1.3-2.1,2.6-3.1,3.8h7.1
			C421.6,55.4,422.7,54.1,423.9,52.7z M419.4,74.2c0.2-1,0.4-1.9,0.5-2.9l4.4,0.5c-0.1,0.9-0.2,1.7-0.4,2.4h5.2V60.5h-14.9v13.7
			H419.4z M417.5,71.9l-2.3-3c2.9-1.8,4.7-4.4,5.5-7.7l3.6,0.5c-0.3,1-0.6,2-1,2.9c2,1.2,3.8,2.6,5.3,4.1l-2.4,2.9
			c-1.2-1.4-2.7-2.7-4.4-3.9C420.6,69.4,419.1,70.9,417.5,71.9z M436.6,86.2l-2.6,3.9c-3.8-3-7.7-5.4-11.6-7.1l2.4-3.5
			C429.1,81.4,433,83.6,436.6,86.2z"/>
		<path fill="#FFFFFF" d="M61.5,136.1l-3.5,3.5c-1.9-2.1-4.5-4.4-8-6.9l3.5-3.4C56.7,131.6,59.3,133.8,61.5,136.1z M61.7,143.8
			c-1.9,6.1-4.1,11.8-6.6,17.1l-4.6-2c2.6-5.5,4.9-11.1,6.8-16.8L61.7,143.8z M62.8,124.6l-3.6,3.6c-1.9-2.1-4.6-4.4-8-6.8l3.5-3.4
			C57.9,120.1,60.6,122.4,62.8,124.6z M75.1,147.1c0.3-1,0.5-1.9,0.7-3h4.7c-0.1,1-0.3,2-0.6,3h14v4.2H78.3
			c-0.8,1.6-1.8,2.9-2.9,4.2c-2.5,2.5-6.9,4.5-13.1,6l-1.9-4.5c5.2-1,8.9-2.6,11.2-4.5c0.4-0.4,0.8-0.8,1.2-1.2h-11v-4.2H75.1z
			 M80.2,117.7c-0.3,1-0.7,2-1.1,2.9h13.3v21.1c0,2.5-1.4,3.7-4.2,3.7h-2.2l-1-3.8l2,0.1c0.5,0,0.8-0.4,0.8-1.1v-16H68.1v20.8h-4.8
			v-24.9h10.7c0.6-1.2,1-2.4,1.3-3.6L80.2,117.7z M86.3,128.3c-1.9,0.5-3.9,0.9-6.3,1.2v4.1h0.8c0.9-1.3,1.5-2.7,2-3.9l3.2,1.3
			c-0.5,1-1,1.9-1.6,2.6h2.2v3.4h-6.4c2,0.9,4,1.8,6,2.8l-2.2,3.3c-1.5-1.3-2.9-2.4-3.9-3.2v3.5h-4v-3.8c-1.6,1.7-3.3,3.1-5.2,4.4
			l-2-3.6c2.5-1,4.6-2.1,6.4-3.4h-6v-3.4h2.4c-0.4-0.8-0.8-1.5-1.1-2.1l3-1.2c0.6,1,1,2.2,1.5,3.3H76v-3.8c-1.8,0.1-3.6,0.1-5.6,0.1
			l-1.2-3.4c6,0,11-0.5,15.2-1.5L86.3,128.3z M94.4,157.7l-2.7,4.1c-4.3-2.5-8.7-4.5-13.2-5.9l2.3-3.5
			C85.8,153.8,90.3,155.6,94.4,157.7z"/>
		<path fill="#FFFFFF" d="M130.7,158.6l-1.2-4.6l3.6,0.2c1,0,1.6-0.6,1.6-1.8v-3.8h-10.3v12.7h-4.9v-12.7h-10.3v9.3h-4.9v-13.7h15.2
			v-2.8h-2.3l-1-3.7l2.1,0.2c0.7,0,1-0.4,1-1.3v-1.3l-3,0.8c-0.4-2.3-0.9-4.5-1.5-6.6l2.7-0.9c0.7,1.9,1.3,4.1,1.8,6.5v-7.6h-4.7
			V141h-3.7v-13.4h-4.9v13.9h-4v-17.8h3.9c-0.9-1.6-1.8-3-2.8-4.3l3.5-1.7c1,1.4,1.9,3,2.8,4.8l-2.5,1.2h3.9v-6.2h4.1v6.2h3.8
			l-2.4-1.3c1.1-1.6,2-3.2,2.7-4.7l3.6,1.8c-0.7,1.4-1.6,2.9-2.6,4.2h3.4v4.6c2.9-3,4.8-6.6,5.7-10.8l4.5,0.6
			c-0.3,1.3-0.7,2.5-1.1,3.7h10.2v4.2h-1.8c-1,3.4-2.4,6.3-4.1,8.7c2.1,1.4,4.5,2.7,7.2,3.8l-2.3,4c-3-1.4-5.6-2.9-7.8-4.7
			c-2.2,1.9-4.8,3.3-7.6,4.3l-2.3-3.8c2.6-0.8,4.8-1.9,6.6-3.4c-1-1-1.9-2-2.7-3.1l2.1-3.2c1,1.2,2.1,2.4,3.4,3.4
			c1.3-1.8,2.3-3.8,3.1-6.1h-5.9c-1.3,2.2-2.9,4.3-4.7,6.1l-2.4-3.1v8.7c0,1.9-0.7,3-1.9,3.6h3v3.1h15.2v9.2c0,3.3-1.7,5-4.9,5
			H130.7z M110.4,129.7c-0.2,3.1-0.6,5.8-1.2,8.3l-3.1-1c0.7-2.2,1.2-4.8,1.4-7.6L110.4,129.7z"/>
		<path fill="#FFFFFF" d="M187.6,132.9v21.5h-8.3c4.6,0.8,9,1.9,13.2,3.3l-1.7,4c-4.8-1.9-9.9-3.3-15.1-4.3l1.6-3h-11.2l1.9,2.6
			c-3.4,2-8.4,3.6-14.7,4.8l-2.2-3.9c5.5-1,9.9-2.1,13.1-3.5h-8.1v-21.5H187.6z M190.2,118.9V131h-36.8v-12.1H190.2z M164.2,122.9
			h-6v4.2h6V122.9z M182.8,139v-2.3h-22v2.3H182.8z M182.8,144.6v-2.2h-22v2.2H182.8z M182.8,148.1h-22v2.3h22V148.1z M175,122.9
			h-6.3v4.2h6.3V122.9z M185.4,122.9h-6v4.2h6V122.9z"/>
		<path fill="#FFFFFF" d="M217.1,128.3c0.1-1.5,0.2-3.1,0.2-4.6v-6.2h5v6.2c0,1.6-0.1,3.1-0.2,4.6h20.2v4.8h-20.8
			c-2,12.5-7.8,22-17.3,28.4l-4-3.5c8.8-5.7,14.2-14,16.2-25h-15.3v-4.8H217.1z M228.2,160.6c-3.5,0-5.2-1.8-5.2-5.3v-19.9h4.8v19.2
			c0,1,0.5,1.4,1.4,1.4h6.6c1,0,1.8-0.4,2.2-1c0.4-0.8,0.7-3.3,0.8-7.7l4.6,1.5c-0.3,5.5-0.9,8.9-1.8,10.1c-1,1.1-2.6,1.7-5,1.7
			H228.2z M236.5,124.9l-3.9,2.8c-1.6-2.3-3.8-4.9-6.5-7.7l3.9-2.4C232.8,120.3,235,122.8,236.5,124.9z"/>
		<path fill="#FFFFFF" d="M262.4,117.5v7.9h9.4c0,16.4-0.2,26.5-0.7,30.4c-0.5,3.5-2.9,5.2-7,5.2c-0.8,0-2-0.1-3.8-0.3l-1.2-4.5
			c1.6,0.2,3,0.3,4.2,0.3c1.8,0,2.9-1,3.2-3c0.2-2.2,0.4-10,0.5-23.2h-4.6v1.4c-0.1,13.7-3.2,23.7-9.1,30.1l-4-3.6
			c5.3-5.5,8-14.4,8.1-26.5v-1.4h-7v-4.8h7v-7.9H262.4z M291.6,160.7h-4.8v-2.9H280v2.9h-4.8v-38.1h16.5V160.7z M286.8,153v-25.6
			H280V153H286.8z"/>
		<path fill="#FFFFFF" d="M309,129.7v-4.8c-2.3,0.4-4.6,0.6-6.9,0.8l-1.5-4.6c7.9-0.7,14.3-1.9,19-3.8l2.4,4.1
			c-2.6,1-5.2,1.8-7.9,2.5v5.8h8.4v4.8h-8.4v1.2c2.9,2.4,5.8,5,8.8,7.9l-2.9,4.5c-2.3-3-4.3-5.4-5.9-7.2v20.5h-5v-18.6
			c-2.1,3.8-4.6,7.3-7.7,10.5l-2.3-5.8c4.5-3.8,7.8-8.1,9.9-12.8v-0.1h-8.7v-4.8H309z M330.4,121.9v29h-4.9v-29H330.4z M329.4,161
			l-1-4.8c2.2,0.2,4.4,0.3,6.4,0.3c1.1,0,1.7-0.7,1.7-2v-36.9h5v38.2c0,3.5-1.7,5.2-5,5.2H329.4z"/>
		<path fill="#FFFFFF" d="M366.5,155.9c-3.6,2.1-8.1,3.9-13.4,5.5l-3-3.9c5.2-1.2,9.6-2.7,13.2-4.4L366.5,155.9z M360.6,119.8v-2.5
			h4.7v2.5h5.2v4.4h-5.2v2.4h-4.7v-2.4h-9.8v-4.4H360.6z M369.3,148v-2.2h-12.8v-12.3h-5.2v-4.3h5.2v-2h4.9v2h5.4V127h4.8v2.2h7.8
			v-2.3h4.8v2.3h6.9v4.3h-6.9v6.2h-17.3v-6.2h-5.4v8.1h28.1v4.2h-15.3v2.2h18.1v4.3h-18.1v8.7h-4.8v-8.7h-18.5V148H369.3z
			 M371.5,136.1h7.8v-2.6h-7.8V136.1z M382.4,117.3v2.5h9.3v4.4h-9.3v2.2h-4.7v-2.2h-5.2v-4.4h5.2v-2.5H382.4z M392.6,158.1
			l-3.3,3.6c-3.9-2.2-8-4-12.2-5.6l2.8-3.2C384.6,154.6,388.8,156.3,392.6,158.1z"/>
	</g>
	<path fill="#FFFFFF" d="M48.3,178.7c114.2-1.7,228.5,0.5,342.5,6.5c0,0,0.1-3,0-3c-114-6-228.3-8.1-342.5-6.5
		C48.2,175.7,48.3,178.7,48.3,178.7L48.3,178.7z"/>
	<path fill="#FFFFFF" d="M48.3,100.1c128.5-1.7,257.1,0.5,385.3,6.5c-0.1,0,0.1-3,0-3c-128.3-6-256.8-8.1-385.3-6.5
		C48.2,97.1,48.3,100.1,48.3,100.1L48.3,100.1z"/>
</g>
<g>
</g>
<g>
</g>
<g>
</g>
<g>
</g>
<g>
</g>
<g>
</g>
<g>
</g>
<g>
</g>
<g>
</g>
<g>
</g>
<g>
</g>
<g>
</g>
<g>
</g>
<g>
</g>
<g>
</g>
</svg>
