<?xml version="1.0" encoding="utf-8"?>
<!-- Generator: Adobe Illustrator 18.0.0, SVG Export Plug-In . SVG Version: 6.00 Build 0)  -->
<!DOCTYPE svg PUBLIC "-//W3C//DTD SVG 1.1//EN" "http://www.w3.org/Graphics/SVG/1.1/DTD/svg11.dtd">
<svg version="1.1" id="Layer_1" xmlns="http://www.w3.org/2000/svg" xmlns:xlink="http://www.w3.org/1999/xlink" x="0px" y="0px"
	 viewBox="0 0 4153.4 366.6" enable-background="new 0 0 4153.4 366.6" xml:space="preserve">
<g>
	<path fill="none" stroke="#3A867D" stroke-miterlimit="10" d="M3289.5,132.9"/>
	
		<ellipse transform="matrix(0.9548 0.2973 -0.2973 0.9548 194.161 -977.8312)" fill="#FFD25C" cx="3311.3" cy="149.3" rx="44.3" ry="38.5"/>
	<path fill="#F0596F" d="M3369.2,146.1c0.4-5-3.4-9.3-8.3-9.6c-5-0.4-9.3,3.4-9.6,8.3c-0.7,9.5-3.8,16.4-9.6,21
		c-1.4,1.1-2.9,2-4.4,2.8c4.7-7.8,8.4-18.1,8.8-31.6c0.2-5-3.7-9.1-8.7-9.3c-5-0.2-9.1,3.7-9.3,8.7c-0.4,11.7-4,19.9-8,25.5
		l0.5-28.3c0.1-5-3.8-9.1-8.8-9.2c-5-0.1-9.1,3.9-9.2,8.8l-0.6,32.7c-11.9-12.3-5.3-27.2-4.4-29.1c2.2-4.4,0.5-9.8-3.9-12.1
		c-4.5-2.3-9.8-0.5-12.1,3.9c-3.4,6.7-6.2,17.8-3.8,29.3c-1.9-1.8-3.4-3.5-4.3-5.1c-3.4-5.8-1.8-10.8-1.8-10.8
		c1.8-4.6-0.5-9.8-5.1-11.6c-4.6-1.8-9.9,0.5-11.6,5.1c-0.5,1.3-4.6,12.7,2.6,25.7c6,10.9,18,19.2,35.7,24.7c3,0.9,6.2,1.7,9.5,2.5
		c0,0,0.1,0,0.1,0c0.5,0.2,1.1,0.3,1.6,0.3c1.5,0.3,3,0.7,4.5,1c0,0,0.1,0,0.1,0c0.1,0,0.1,0,0.2,0c1.1,0.2,25.9,3.9,43.6-10
		C3362.6,172.2,3368.1,160.8,3369.2,146.1z"/>
	<path fill="#F0596F" d="M3277.3,276.3c0-0.9,0.5-21.8,15-52.3c11.8-24.8,6.5-39.3,6.5-39.4l16.7-6.8c0.9,2.2,8.2,22.1-6.9,53.9
		c-12.8,27-13.2,44.8-13.2,44.9L3277.3,276.3z"/>
</g>
<path fill="#55C0A2" d="M2679.3,182.5c-26.2-48.8-73.9-52.3-102.9-7.6l0,0c-29,44.8-76.8,41.3-102.9-7.6l-2.2-4.1
	c-25.1-46.9-72.8-40.9-92.7,11.6l-19,50.3c-13.7,36.2-46.6,40.3-63.9,8l-53.8-100.6c-25.7-48-76.2-20-76.2,42.3v0
	c0,62.2-50.5,90.3-76.2,42.3l-28.9-53.9c-25.1-46.9-72.8-40.9-92.7,11.6L1909.5,329h197.8h41.9h171.1h26.7h171.1h41.9h197.8
	L2679.3,182.5z"/>
<g>
	<path fill="#FCCEB8" d="M161.6,214.6L193.4,354c2,8.7,10.6,14.1,19.3,12.1c8.7-2,14.1-10.6,12.1-19.3L193,207.5l-15.7,3.6
		L161.6,214.6z"/>
	<path fill="#FCCEB8" d="M160.1,135.7l8.5-1.9c2.4-0.6,4.8-1.3,7.1-2.1l-2.5-10.9c-4.7,2.5-9.8,4.5-15.2,5.7s-10.9,1.7-16.2,1.4
		l2.5,10.9c2.4-0.2,4.9-0.6,7.3-1.2L160.1,135.7z"/>
	<path fill="#FCCEB8" d="M185.8,176.1l-2.9-12.9c-2.3,0.7-4.7,1.4-7.1,2l-8.5,1.9l-8.5,1.9c-2.4,0.6-4.8,1-7.3,1.3l2.9,12.9
		l15.7-3.6L185.8,176.1z"/>
	<path fill="#FCCEB8" d="M165.4,86.5L154,36.8c-2-8.7-10.6-14.1-19.3-12.1S120.7,35.3,122.6,44L134,93.7c5.2,2.1,11,2.7,16.8,1.4
		S161.6,90.7,165.4,86.5z"/>
	<path fill="#FCCEB8" d="M134,93.7c-8.2-3.3-14.7-10.5-16.8-19.8l-5.4-23.4c-2-8.7-10.6-14.1-19.3-12.1S78.4,49,80.4,57.6l5.4,23.4
		c6.2,27,29.7,45.6,56.1,46.8l-3.1-13.6L134,93.7z"/>
	<path fill="#FCCEB8" d="M138.7,114.4l3.1,13.6c5.3,0.2,10.8-0.2,16.2-1.4C149.3,128.4,140.7,123,138.7,114.4z"/>
	<path fill="#FCCEB8" d="M150.8,95.1c-5.8,1.3-11.7,0.7-16.8-1.4l4.7,20.7C136.7,105.7,142.1,97,150.8,95.1z"/>
	<path fill="#FCCEB8" d="M144.3,138.8c-29.3,3-57-16.4-63.8-45.8l-7.7-33.6c-2-8.7-10.6-14.1-19.3-12.1S39.5,57.8,41.4,66.5
		l7.7,33.6c10.7,46.8,55.7,77,102.4,70.2L148,155L144.3,138.8z"/>
	<path fill="#FCCEB8" d="M160.1,135.7l-8.5,1.9c-2.4,0.6-4.9,0.9-7.3,1.2L148,155C146,146.3,151.4,137.7,160.1,135.7z"/>
	<path fill="#FCCEB8" d="M167.2,167.1c-8.7,2-17.3-3.4-19.3-12.1l3.5,15.4c2.4-0.4,4.8-0.8,7.3-1.3L167.2,167.1z"/>
	<path fill="#FCCEB8" d="M154.4,183.2l-5,1.1c-47.8,10.9-95.5-19.1-106.4-66.9L31.8,68.7c-2-8.7-10.6-14.1-19.3-12.1
		c-8.7,2-14.1,10.6-12.1,19.3l11.1,48.8c14.9,65.1,79.9,106,145,91.1l5-1.1l-3.6-15.7L154.4,183.2z"/>
	<path fill="#FCCEB8" d="M158,198.9l3.6,15.7l15.7-3.6C168.6,213,160,207.6,158,198.9z"/>
	<path fill="#FCCEB8" d="M170.1,179.6l-15.7,3.6l3.6,15.7C156,190.2,161.4,181.6,170.1,179.6z"/>
	<path fill="#FCCEB8" d="M173.2,120.7c23.3-12.6,36.3-39.5,30.2-66.5L198,30.8c-2-8.7-10.6-14.1-19.3-12.1s-14.1,10.6-12.1,19.3
		l5.4,23.4c2.1,9.3-0.6,18.6-6.6,25.1l4.7,20.7L173.2,120.7z"/>
	<path fill="#FCCEB8" d="M158,126.5c5.4-1.2,10.5-3.2,15.2-5.7l-3.1-13.6C172.1,115.9,166.6,124.5,158,126.5z"/>
	<path fill="#FCCEB8" d="M170.1,107.2l-4.7-20.7c-3.7,4.1-8.7,7.2-14.6,8.5C159.5,93.1,168.1,98.5,170.1,107.2z"/>
	<circle fill="#FCCEB8" cx="154.4" cy="110.8" r="16.1"/>
	<path fill="#FCCEB8" d="M182.9,163.2c45-14.1,72.4-60.9,61.8-107.7L237,21.9c-2-8.7-10.6-14.1-19.3-12.1s-14.1,10.6-12.1,19.3
		l7.7,33.6c6.7,29.5-9.9,58.9-37.6,68.9l3.7,16.2L182.9,163.2z"/>
	<path fill="#FCCEB8" d="M167.2,167.1l8.5-1.9c2.4-0.6,4.8-1.2,7.1-2l-3.5-15.4C181.3,156.5,175.9,165.1,167.2,167.1z"/>
	<path fill="#FCCEB8" d="M160.1,135.7c8.7-2,17.3,3.4,19.3,12.1l-3.7-16.2c-2.3,0.8-4.6,1.5-7.1,2.1L160.1,135.7z"/>
	<circle fill="#FCCEB8" cx="163.7" cy="151.4" r="16.1"/>
	<path fill="#FCCEB8" d="M258.7,0.4c-8.7,2-14.1,10.6-12.1,19.3l11.1,48.8c10.9,47.8-19.1,95.5-66.9,106.4l-5,1.1l3.6,15.7l3.6,15.7
		l5-1.1c65.1-14.9,106-79.9,91.1-145L278,12.5C276,3.9,267.4-1.6,258.7,0.4z"/>
	<path fill="#FCCEB8" d="M189.4,191.8l-3.6-15.7l-15.7,3.6C178.8,177.7,187.4,183.1,189.4,191.8z"/>
	<path fill="#FCCEB8" d="M177.3,211l15.7-3.6l-3.6-15.7C191.4,200.4,185.9,209.1,177.3,211z"/>
	<circle fill="#FCCEB8" cx="173.7" cy="195.3" r="16.1"/>
</g>
<g>
	<g>
		<path fill="#89B79C" d="M3887.9,223.2c0,17.4,2.8,34.2,8.1,49.8c20.6-61.5,78.2-106,146.3-107c28.4-28.5,67.7-46.2,111.2-46.2
			v-9.7c-28.2-27.1-66.5-43.8-108.7-43.8C3958.1,66.3,3887.9,136.5,3887.9,223.2z"/>
	</g>
	<g>
		
			<rect x="4055.8" y="78.8" transform="matrix(-0.7915 -0.6112 0.6112 -0.7915 7239.6187 2660.21)" fill="none" width="35.5" height="32.7"/>
		<path fill-rule="evenodd" clip-rule="evenodd" fill="#649981" d="M4079.8,85.5c-0.1,0.2-1-0.4-0.5-0.6c0.2,0.1,0.1,0.3,0.3,0.4
			c0.2-0.2-0.2-0.4,0.1-0.7C4080,84.9,4079.7,85.2,4079.8,85.5z"/>
		<path fill-rule="evenodd" clip-rule="evenodd" fill="#649981" d="M4093.3,96.2c-0.1-0.2-0.2-0.5,0-0.8
			C4093.6,95.7,4093.5,95.9,4093.3,96.2z"/>
		<path fill-rule="evenodd" clip-rule="evenodd" fill="#649981" d="M4077.8,100.8c0.1,0.6-0.9-0.2-1.2-0.2
			C4077.1,100.4,4077.7,100.9,4077.8,100.8z"/>
		<path fill-rule="evenodd" clip-rule="evenodd" fill="#649981" d="M4069.2,99.8c0.3,0.4-0.5,0.3-0.6,0.7
			C4068.4,99.9,4068.8,100.1,4069.2,99.8z"/>
		<path fill-rule="evenodd" clip-rule="evenodd" fill="#649981" d="M4056.1,95.7c0.1,0.2,0.1,0.3,0.2,0.2c0.2,0.4-0.4,0.5-0.6,0.1
			C4055.9,96,4056,95.9,4056.1,95.7z"/>
		<path fill-rule="evenodd" clip-rule="evenodd" fill="#649981" d="M4051.8,96.1c0.3-0.2,0.8,0.5,0.4,0.7
			C4051.8,96.6,4052,96.3,4051.8,96.1z"/>
		<path fill-rule="evenodd" clip-rule="evenodd" fill="#649981" d="M4072.9,75.3c-0.5-0.6-0.4-1-0.4-1.7c-0.5,0.8-0.2-0.3-0.8-0.4
			c-1.2,0.3-1.2,0-2.3,1.5c0.3,0.4,0.5-0.3,0.8,0c-0.2,0.2-0.3,0.4-0.5,0.6c0.4,0.5,0.8,0.9,1.4,0.9c-0.1-0.2-0.1-0.3,0-0.6
			c0.2,0.2,0.1,0.4,0.2,0.5C4072.3,76,4071.7,76,4072.9,75.3z M4071.2,74.2c0.7,0.3-0.3,0.8-0.1,1.1
			C4070.7,75.3,4070.6,74.3,4071.2,74.2z"/>
		<path fill-rule="evenodd" clip-rule="evenodd" fill="#649981" d="M4082.6,82.6c0,0.2,0.4,0.4,0.1,0.6c-0.2-0.1-0.1-0.3-0.3-0.4
			c-0.4,0.3,0.2,0.5-0.2,0.8c-0.3-0.5-0.6-0.1-1,0.2c-0.1,0.2,0,0.4,0.3,0.6c-0.3,0-0.4,0.3-0.3,0.6c-0.1,0.1-0.2,0-0.1-0.1
			c-0.4,0-0.7,0.8-1.1,0.7c-0.2-0.4,0.1-0.9-0.2-1.3c-0.5,0-0.6,0.4-1.3,0c0.3-0.2,0.5-0.8,0-0.6c-0.4-0.4,0.9-0.1,0.4,0.3
			c0.5,0.1,0.1-0.5,0.1-0.7c-0.2-0.2-0.4-0.2-0.6,0c-0.1-1.1,0.3-0.5,0.6-1.3c0.3,0.3,0.4,0,0.5,0.4c0-0.7,0.8-0.4,1.2-0.8
			c0.7,0.5,0.2,0.8,0.9,0.5c0.1,0.3-0.2,0.2-0.3,0.4C4082.1,82.4,4082.1,83.1,4082.6,82.6z"/>
		<path fill-rule="evenodd" clip-rule="evenodd" fill="#649981" d="M4084.9,88.2c-0.1-0.5-0.6-0.2-0.6-0.7c0.7,0.3,1.4,0.1,1.9,0.3
			c0.2-0.3,0.4-0.6,0.7-0.9c-0.2-0.2-0.2-0.3,0.1-0.3c-0.5-0.4,0-0.3,0-0.8c-0.7,0.4-0.6-0.3-0.9-0.3c0,0.1-1.2,0-1.4-0.1
			c-0.2,0.2,0,0.4,0,0.6c-0.4-0.3-0.5,0.8-1.1,0.5c0.1,0.3,0.4,0.5,0,0.6c0.3,0.5,0.3,0.1,0.1,0.6c-0.1-0.1-0.1-0.4-0.3-0.1
			c-0.2,0.2,0.7,0.2,0.1,0.4c0.2,0.1,0.2,0.4,0.4,0.3c-0.4-0.2,0.9-0.4,0.3,0.1c0.2,0.2,0.4,0.1,0.6,0.3
			C4084.5,88.4,4084.7,88.2,4084.9,88.2z M4085.1,86.4c0.3-0.1-0.3,0.5-0.5,0.6c0-0.1-0.1-0.3-0.3-0.4
			C4084.6,86.6,4084.9,86.6,4085.1,86.4z"/>
		<path fill-rule="evenodd" clip-rule="evenodd" fill="#649981" d="M4074.8,81.2c-0.4-0.2,0.1-0.6,0.1-0.9c-0.3-0.1-0.7,0.1-0.5-0.4
			c-0.4,0.1-0.6-0.1-0.7,0.4c-0.1-0.9,0.3-1,0.4-1.8c0.2-0.3,0.4-0.3,0.6-0.1c-0.5-0.3-0.1-0.8,0.5-0.9c0.8,0.5,1.1,1.5,0.8,1.8
			c0.2,0.1,0.4,0.1,0.7,0.1c0.1-0.2-0.9-0.4-0.2-1c-0.1,0.4,0.2,0.7,0.6,0c0.4,0.2-0.2,0.5,0.4,0.7c-0.3,0.2-0.6,0.6-1,0.6
			c-0.1,0.3,0.3,0,0.3,0.4c-0.2,0.4-1,0.4-0.9,0.9C4075.5,81.1,4074.8,80.4,4074.8,81.2z"/>
		<path fill-rule="evenodd" clip-rule="evenodd" fill="#649981" d="M4093.1,94.4c0.1-0.1,0.2,0,0.1,0.1c0.4,0.2,0.5-0.6,0.3-0.7
			c0.7,0,1.3-0.3,2,0.2c-0.3,0.5,0.1,0.9,0.6,1c-0.8,0.5-2.4,0.2-2.4,1.1c-0.3-0.3,0-1.1-0.6-0.7C4093.2,95,4093.4,94.9,4093.1,94.4
			z"/>
		<path fill-rule="evenodd" clip-rule="evenodd" fill="#649981" d="M4089.1,91.5c-0.5,0,0,1.1-0.8,1c-0.4-0.4,0.7-0.2,0.3-0.6
			c-0.3,0-0.1,0.2-0.5,0.4c-0.1-0.2,0-0.5-0.2-0.7c0.3-0.1,0.2,0.2,0.4,0.3c0.1-0.1,0.1-0.2,0.2-0.2c0.1-0.3-0.3,0-0.3-0.4
			c0.6-0.3,0-0.3,0.4-0.8c0.2,0.1,0.1,0.3,0.3,0.4c0.1-0.4,0-0.6,0.4-0.8c0.4,0.5,1.2,0.4,1.7,0.5c0.2,0.2-0.2,0.5,0,0.8
			c-0.4,0-0.4,0.1-0.6,0.5c-0.2-0.2-0.1-0.3-0.4-0.5c-0.3,0.3,0.1,0.4,0.1,0.6c-0.1,0-0.3,0.1-0.4,0.3c0-0.2-0.2-0.3-0.4-0.5
			c-0.3,0.2,0,0.4,0.2,0.5C4089.1,92.4,4088.9,91.7,4089.1,91.5z"/>
		<path fill-rule="evenodd" clip-rule="evenodd" fill="#649981" d="M4081.4,84.2c0.2-0.1,0.4,0.1,0.6,0.3c-0.5,0.4,0.2,0.6-0.3,0.9
			C4081.5,85,4082,84.5,4081.4,84.2z"/>
		<path fill-rule="evenodd" clip-rule="evenodd" fill="#649981" d="M4069.2,80.1c-0.4,0.3,0.1,0.5,0,0.8c-0.8-0.4-0.7,0.4-1.4,0.5
			c0.5,0.4,0.2,0.3-0.1,0.3c0.3,0.2,0.5,0.4,0.5,0.6c0.4,0,0.1-0.4,0.4-0.3c0.1,0.1,0.2,0.1,0.2,0.2c-0.1,0.2-0.3,0.2-0.4,0.3
			c0.5,0.4,0.8,0.3,1,0.4c-0.2-0.4-0.5-0.8-0.2-1.3c0.2,0.4-0.1,0.8,0.5,1.1c0.6-0.2,0.5-0.5,1.1-0.7c0-0.4-0.5-0.5-0.9-0.7
			c0.1-0.1,0-0.2,0.1-0.3c0.2,0,0.4-0.1,0.6-0.1c-0.1-0.1,0-0.2,0.2-0.2C4070,80.9,4070.1,80.3,4069.2,80.1z M4070,81.8
			c0.3,0.2-0.3,0.5-0.3,0.7C4069.4,82.2,4069.7,81.8,4070,81.8z"/>
		<path fill-rule="evenodd" clip-rule="evenodd" fill="#649981" d="M4079.4,88c0.3,0.3-0.4,0.2-0.5,0.4c-0.1,0.2,0.2,0.8,0.5,0.6
			c0.1-0.4-0.5-0.1-0.4-0.5c0.2-0.1,0.4,0.1,0.5-0.2c0.1,0.2,0,0.4,0.2,0.5c0.3-0.1,0.7,0.1,0.9-0.4c0.1,0.2-0.1,0.4,0.2,0.5
			c-1,1.1-0.5,0.9-1.3,1.7c-0.1-0.1,0.1-0.3,0.2-0.5c-0.4-0.1-0.5,0.6-0.7,0.9c0.1-0.7-1.1-0.3-1.2-0.9c0.4,0.1,0.2,0.1,0.2-0.5
			c-0.4-0.2-0.3,0.1-0.5,0.4c-0.2-0.3-0.1-0.8,0.2-0.8c-0.2-0.1-0.4,0-0.5,0.2c-0.2-0.2,0.1-0.5-0.3-0.6c0.2-0.1,0.5,0.1,0.3-0.1
			c0.1-0.1,0.7,0.2,0.4-0.3c0.2-0.1,0.1,0.1,0.2,0.2c0,0,0.7-0.4,0.6-0.7c0.4-0.4,0.2,0.7,0.6,0C4079,88.1,4079.1,88.2,4079.4,88z"
			/>
		<path fill-rule="evenodd" clip-rule="evenodd" fill="#649981" d="M4077.3,89.7c-0.1,0.2-0.4,0.4-0.3,0.6c0.2,0.2-0.4-0.3-0.6-0.7
			C4076.7,89.4,4076.9,89.3,4077.3,89.7z"/>
		<path fill-rule="evenodd" clip-rule="evenodd" fill="#649981" d="M4075.4,84.9c-0.1,0.3,0.1,0.9-0.3,0.9c0.1,0.2,0.7,0,0.4-0.3
			c0.9,0.3-0.7,0.6-0.2,1.2c-0.3,0.1-0.2-0.2-0.4-0.3c0,0.5-0.1,0.8-0.7,0.6c0,0.2-0.2,0.4,0,0.6c0,0.5-0.3-0.4-0.5-0.6
			c-0.5,0.2,0.1-0.4,0.3,0.1c0.1-0.2-0.2-0.4-0.4-0.3c0.7-0.4,0-1-0.1-1.8c0.3-0.3,0.6,0,0.8-0.3c0,0.2,0.4,0.4,0.1,0.6
			c0.4,0.2,0.1-0.4,0.4-0.5c0.5,0.2-0.2,0.5,0.3,0.6C4075.1,85.3,4075.2,85.1,4075.4,84.9z"/>
		<path fill-rule="evenodd" clip-rule="evenodd" fill="#649981" d="M4073.4,85.4c0.1,0.1,0,0.2-0.1,0.1c-0.2,0.2,0.4,0.4,0.3,0.6
			c-0.2,0.3-0.5,0-0.8-0.2c0.1-0.1,0.2,0,0.3,0.1c0.1-0.2-0.1-0.3-0.3-0.4C4073.1,85.4,4073.3,85.5,4073.4,85.4z"/>
		<path fill-rule="evenodd" clip-rule="evenodd" fill="#649981" d="M4088.3,98.6c-0.2-0.1-0.3,0.6-0.7,0.2c0.2-0.3,0.5-0.2,0.7-0.6
			c-0.2-0.2-0.4,0-0.6-0.3c-0.4,0.3-0.1,0.4-0.3,0.7c-0.3-0.2-0.1-0.5,0-0.8c0.3-0.1,0.6,0,0.8-0.3c-0.1-0.1-0.2,0.1-0.3,0.1
			c-0.1-0.1,0-0.2,0.1-0.3c-0.1,0-0.3,0-0.5-0.2c0.1-0.2,0.3-0.1,0.4-0.3c0.2-0.3-0.3,0-0.5-0.4c-0.5,0.1,0.4-0.2,0.6,0
			c0.1-0.3-0.5-0.4,0-0.8c0.1,0.1,0.1,0.1,0,0.2c0.8-0.5,1,0.7,1.5-0.2c0.1,0.2-0.1,0.4,0.2,0.5c-0.2,0.2-0.5-0.1-0.6,0.3
			c0.2,0.8,1.7,0.1,1.7,1.1c-0.2,0.3-0.5-0.1-0.6,0.1c-0.1,0.2,0.2,0.1,0.4,0.3c-0.2,0.8-0.6,0.3-1.1,1.1c0.1-0.6-0.7,0.2-0.3-0.4
			c-0.2-0.2-0.6,0.4-0.2,0.5c-0.1,0.1-0.3-0.1-0.4,0.1C4088.6,98.9,4088.1,99.1,4088.3,98.6z"/>
		<path fill-rule="evenodd" clip-rule="evenodd" fill="#649981" d="M4087.5,97.6c-0.2,0.2-0.4,0.5-0.7,0.2c0.5-0.4,0-0.6,0.3-0.9
			C4087.8,96.9,4086.5,97.2,4087.5,97.6z"/>
		<path fill-rule="evenodd" clip-rule="evenodd" fill="#649981" d="M4065.1,82.4c-0.1-0.3,0.3-0.6,0.3-0.9c0.1,0.1,0.2,0,0.1-0.1
			c-0.3,0.3-0.7,0.2-1.1,0.1c-0.1,0.4-0.2,0.4-0.3,0.9c-0.2-0.2-0.1-0.4-0.2-0.5c-0.2,0.9-0.9,0.5-0.7,1.2c-0.8-0.6-0.1,0-0.9,0.1
			c0.3,0.4-0.3,0.3-0.1,0.7c0.3,0.5,1.1,0.6,1.6,1.2c0.5-0.3-0.3-0.4,0.1-0.7c0.3,0.3,0.4,0,0.5,0.4c0.2-0.2,0-0.4,0-0.6
			c0.2,0.1,0.2,0.3,0.3,0.4c0.2-0.5,0.5-0.9,0.3-1.3c0.3,0.2,0.1,0.4,0.5,0.4c0.2-0.8,0.4-0.7,0.6-1.5c0.3,0.3,0.2,0.5,0.6,0.3
			c-0.2-0.2-0.1-0.4-0.2-0.5c-0.2,0.1-0.9,0.3-0.8,0c0.1,0.1,0.2,0,0.1-0.1C4065.2,81.7,4065.5,82.6,4065.1,82.4z M4063,84.3
			c0.1-0.2,0.3-0.2,0.4-0.1c0.1-0.1,0-0.2,0-0.2C4064.1,83.8,4063.3,84.9,4063,84.3z"/>
		<path fill-rule="evenodd" clip-rule="evenodd" fill="#649981" d="M4075.3,90.1c-0.1,0.1-0.2,0-0.3-0.1c-0.1,0.4,0.5,0.3,0.6-0.1
			c0.5-0.4-0.4,0.8,0.3,0.4c0.1,0.2-0.1,0.4,0.2,0.5c-0.2,0.1-0.3,0.1-0.2,0.2c-0.1,0.1-0.2,0-0.1-0.1c-0.3,0.3-0.7,0-1.1,0.1
			c0.1,0.1,0.1,0.5,0.3,0.4c-0.3,0.9-1,0.9-1.7,1.2c-0.1-0.3-0.2-0.6-0.7-0.9c0.2-0.1,0.4,0.1,0.5-0.2c-0.4-0.4-0.6,0.4-1-0.2
			c0.3-0.2,1.1,0.1,0.5-0.6c0.6,0.3,0.4,0.3,1.2,0c-0.3-0.4-0.5,0.4-0.9-0.1c0.4-0.4,0.9,0,1.3,0C4073.4,90.2,4074.7,90,4075.3,90.1
			z"/>
		<path fill-rule="evenodd" clip-rule="evenodd" fill="#649981" d="M4070.8,87.3c-0.4-0.3-0.7-0.1-1-0.2c0.2-0.7-1-1.4-1.6-1.2
			c0.1,0.1,0,0.2-0.2,0.2c0.1,0.1,0.4,0.2,0.3,0.4c-0.5-0.3-0.9,0.1-1.4,0.3c0.6,0.4,0.1,1.4,0.3,1.2c0.5-0.2,0.5,0.3,1,0
			c0,0.1,0,0.2,0.1,0.3c0.4-0.5-0.5-0.6-0.6-0.5c0.4-0.2,0.2-0.4,0.5-0.4c0.3,0.5,0.5,1.2,0.4,1.5c0.4-0.3,0.1,0.3,0.3,0.4
			c0.7-0.4,1.3,0.1,1.1-0.9c0.2,0.1,0.3,0,0.5,0.2c0.3-0.4-0.3-0.9,0.4-0.8C4070.8,87.6,4070.8,87.4,4070.8,87.3z M4068.7,86.8
			c0.3,0.1,0.1,0.7,0.5,0.4c0.3,0.4-0.4,0.2-0.5,0.4C4068.7,87.3,4068.4,87.1,4068.7,86.8z"/>
		<path fill-rule="evenodd" clip-rule="evenodd" fill="#649981" d="M4083.6,98.9c0,0.2,0.3,0.5,0.7,0.3c0.3,0.2-0.5,0.5,0.1,0.6
			c-0.2,0.1-0.3,0.1-0.2,0.2c-0.2,0.1-0.1-0.2-0.4-0.3c-0.1,0.6,0.1,0.5,0.4,0.9c-0.4,0.3-0.8,0.1-0.9,0.7c0-0.6-0.7,0-0.7-0.6
			c-0.4,0.5-0.3,0.2-0.3-0.1c-0.3,0-0.1,0.2-0.5,0.4c-0.1-0.4,0.1-0.3-0.4-0.5c0.3-0.3,0.1-1-0.3-0.8c0.4-0.4,1.1-0.6,1.2-1.4
			c0.6-0.1,1,0.2,1.2-0.6C4083.8,98.1,4084.3,98.9,4083.6,98.9z"/>
		<path fill-rule="evenodd" clip-rule="evenodd" fill="#649981" d="M4079.1,95.7c0.1-0.1,0.2,0,0.1,0.1c0.4,0.3,0.6-0.1,1,0.4
			c-0.7,0.5-0.3,0.1-0.4,0.8c-0.3-0.4-0.7-0.1-0.7-0.6c-0.3-0.1,0,0.3-0.4,0.3c0.3,0.4,0.4,0.1,0.7,0.3c-0.4,0.4-0.9-0.2-1.3,0.4
			c0.2,0,0.3-0.2,0.6,0c-0.2,0.7-0.7-0.3-0.9,0.4c-0.2-0.7-1.4-0.5-1.3-0.4c-0.4-0.3,0.6-0.8,0.3-1.7c0.3-0.6,1.3,0.2,1.3-0.4
			c0.2,0,1.2,0.1,0.7,0.6c0.1,0.1,0.2,0,0.3,0.1C4079.1,96,4079.2,95.9,4079.1,95.7z"/>
		<path fill-rule="evenodd" clip-rule="evenodd" fill="#649981" d="M4088.4,104c0.2,0.1,0.3-0.2,0.5-0.4c-0.2,1-0.7,0.9-0.9,1.4
			c-0.3,0.3-0.3-0.4,0-0.6c-0.4,0-0.3,0.2-0.4-0.3c-0.2,0-1,0.3-0.5,0.6c-0.4,0.3-0.2-0.3-0.5-0.4c0.2-0.3,0.5-0.2,0.7-0.4
			c0.1-0.3-0.4-0.6,0-1c-0.5,0.1,0.1,1.5-1,1c0.1-0.1,0.2,0,0.3,0.1c0.1-0.4-1-0.5-0.8,0c-0.3,0.2,0.1-0.5-0.5-0.6
			c0.1-0.1,0.1-0.2,0.1-0.3c0.2,0.2,0.5,0.4,0.7,0.6c0.3-0.2-0.1-0.4,0-0.6c-0.1-0.1-0.2,0.1-0.3,0.1c-0.3-0.3,0.1-0.7,0.3-0.7
			c0,0.7,0.5-0.3,1.2-0.3c0.2,0.1,0.4,0.4,0.6,0.3c0.2,0.1-0.2,0.8,0.2,0.5C4088.2,103.3,4088,103.6,4088.4,104z"/>
		<path fill-rule="evenodd" clip-rule="evenodd" fill="#649981" d="M4071.7,98.4c0.2-0.1,0.5,0,0.8,0.2c0-0.4,0.2-0.8,0.1-1.1
			c-0.4-0.2-0.6,0.5-1,0c0.2-0.3,0.2-0.1,0.3,0.1c0.1-0.6,0.4-0.7,0.8-0.5c0.1-0.2-0.2-0.1-0.4-0.3c0.2-0.3,1.2-0.1,0.8,0.4
			c0.5,0.2,0.2-0.3,0.6-0.3c-0.2,0-0.5-0.1-0.7-0.3c0.2-0.2,0.5,0.2,0.6-0.3c0,0.9,0.8-0.2,1.1,0.6c-0.2,0-0.4,0-0.6,0
			c0.1,0.6,0.5,0.6,0.9,1.1c-0.4,0-0.9,0.1-1.2,0.8c-0.6-0.4-1.6-0.3-1.1,0.5C4072.3,99.2,4072.3,98.9,4071.7,98.4z"/>
		<path fill-rule="evenodd" clip-rule="evenodd" fill="#649981" d="M4062,88.2c0-0.7,0.4,0.3,0.8,0.4c-0.3-0.6,0.3-0.1,0.2-0.5
			c0.3-0.3,0.4,0.3,0.1,0.4c0.6-0.1,0.9,0.4,0.7,0.9c0.4,0,0.1-0.4,0.6-0.3c-0.1,0.3-0.1,0.8,0.4,0.3c-0.4,1.2-1.3,1.2-2.1,1.7
			c-0.1-0.2-0.2-0.4-0.1-0.6c-0.4-0.2,0.1,0.4-0.3,0.6c-0.3-0.2-0.3-0.4-0.1-0.6c-0.3,0.3-0.6,0.3-1.2,0.3c-0.3-0.2,0-0.5,0.2-0.8
			c-0.2,0-0.3,0.2-0.6,0c0.3-0.1,0.4-0.2,0.2-0.5c0.1-0.2,0.9,0.9,1.6,0.9c0-0.2-0.2-0.8,0.3-0.4c-0.3-0.6-0.6-0.4-0.8-0.4
			c0-0.5-0.7-0.2-1.3-0.8c0.3-0.5,0.7,0,1.1,0.1c0-0.2,0.1-0.7,0.4-0.3C4062.2,88.3,4062.1,88,4062,88.2z"/>
		<path fill-rule="evenodd" clip-rule="evenodd" fill="#649981" d="M4068.4,92.7c0-0.3-0.5-0.5-0.8-0.4c0,0.2,0.3,0.9-0.2,0.8
			c0.2-0.7-0.4-0.8-1-1c0.2,0.1,0.2,0.4-0.1,0.1c-0.3,0.3-0.1,0.6-0.1,0.9c-0.2-0.2-0.4-0.3-0.6-0.5c-0.4,0.5,0.2,1-0.5,1.2
			c0.1,0.1,0.3,0.3,0.1,0.4c0.8,0.4,0.8,0.2,1.2,0.9c0.1-0.2,0.3,0.1,0.4-0.1c-0.2-0.2-0.2-0.3-0.2-0.5c0.4,0.4,0.6-0.1,1,0.2
			C4067.7,94,4067.4,92.6,4068.4,92.7z M4065.8,93.3c0.1,0.1,0,0.2-0.1,0.3c0.6,0.2,0.5,1.1,0.9,0.3c0.4,1.1-1,0.1-1.2,0
			C4065.4,93.8,4065.6,93.7,4065.8,93.3z"/>
		<path fill-rule="evenodd" clip-rule="evenodd" fill="#649981" d="M4079.3,103.7c-0.3-0.4-0.2-0.3-0.6-0.3c0.5-0.4,0.3-0.3,0.4-0.8
			c0.1,0.4,0.8,0.7,0.7,0.1c-0.6,0.1-0.1-0.2,0.2-0.2c-0.1-0.2-0.7-0.3-0.5-0.6c0.2,0.1,0.3-0.2,0.5-0.2c-0.4-0.9-1.2-0.4-1.8-0.4
			c0.2,0.2,0.3,0.4,0.3,0.6c-0.8-0.8-1.4-0.5-2.1-1.3c-0.3,0.2-0.6,0.5-0.5,0.9c0.2-0.1,0.3-0.1,0.3-0.4c0.2,0.4,0.8,0.2,0.6,0.5
			c-0.3,0-1.2-0.3-1.1,0.4c0.3-0.1-0.2,0.5-0.3,0.6c0.1-0.2,0.5,0.1,0.4,0.3c-0.2,0.1-0.9,0.2-0.7,0.6c0.2-0.3,0.4-0.3,0.6-0.1
			c0.2-0.1,0.3-0.7,0.6-0.5c-0.2,0.4-0.6,1-0.9,1.2c0.5,0.3,0.4-0.5,1.1-0.4c0,0.3,0.5,0.6,0.9,0.9c0.2-0.2,0-0.4,0-0.6
			C4078.3,104.7,4078.6,103.9,4079.3,103.7z M4077.7,104.2c-0.1-0.2,0.1-0.4,0.3-0.6c0.2,0.1,0.3,0.3,0.5,0.2
			C4078.7,104.4,4077.9,103.8,4077.7,104.2z M4077.5,102.3c0.2-0.3,0.5-0.3,0.8,0c-0.2,0.2,0,0.3-0.2,0.5c0.1,0.1,0.2-0.1,0.3-0.1
			c0.1,0.1,0,0.2,0.1,0.3c-0.1,0.1-0.1,0.2-0.2,0.2C4077.8,102.8,4078.1,102.4,4077.5,102.3z M4077.7,103.5
			c-0.2-0.1-0.3,0.2-0.5,0.4c-1-0.5,0.1-0.9-0.6-1.2c0.2-0.2,0.9,0.3,1.3,0.4c0.2,0.2-0.2,0.4,0,0.6
			C4077.7,103.7,4077.7,103.5,4077.7,103.5z"/>
		<path fill-rule="evenodd" clip-rule="evenodd" fill="#649981" d="M4080.5,106.2c0.1,0.1,0,0.3-0.2,0.5c0.4,0.4,1.2,0.8,1.2,0.2
			c0.5,0.1,0.5,0.3,0.6,0.7c0.1-0.1,0.1-0.2,0.2-0.2c0.1,0.1,0.2,0.1,0.2,0c-0.2-0.2-0.2-0.3-0.2-0.5c0.7,0.5,0.1,0.1,0.4-0.3
			c0.4,0,0.4,0.4,0.9,0.3c-0.1-0.1-0.2-0.2-0.1-0.3c0.1,0.1,0.2,0.1,0.2,0c-0.8-0.4,0.1-1,0-1.2c-0.4-0.2-0.8-0.2-1.1-0.6
			c-0.3,0.3-0.7,0.5-1,0.6c0.1-0.1-0.1-0.2-0.2,0c0.3,0.3,0.9,0.5,0.7,0.9c-0.5-0.6-0.5-0.4-0.8-0.2c-0.1-0.1-0.2-0.2-0.1-0.3
			c0.1,0.1,0.2-0.1,0-0.2c-0.2,0.2-0.3,0.4-0.5,0.6c0.2,0.2,0.5,0.1,0.4,0.3C4080.9,106.2,4080.7,106.1,4080.5,106.2z M4081.3,106.4
			c-0.2,0-0.4,0.2-0.3,0.4C4080.4,107,4080.8,105.8,4081.3,106.4z"/>
		<path fill-rule="evenodd" clip-rule="evenodd" fill="#649981" d="M4068.4,93.5c-0.1,0.2-0.3,0.2-0.4,0.1c-0.1,0.2,0.1,0.3,0.3,0.4
			c-0.1,0.1-0.3-0.1-0.4,0.1C4067.6,93.7,4067.9,93.1,4068.4,93.5z"/>
		<path fill-rule="evenodd" clip-rule="evenodd" fill="#649981" d="M4056.7,90.5c0.2-0.3,0.4,0.8,0.6,0.5c0.1,0.1-0.1,0.3-0.2,0.2
			c-0.1,0.2,0.2,0.3,0.4,0.5c0-0.4,0.2-0.3,0.5-0.6c-0.1-0.1-0.2,0.1-0.3,0.1c0-0.3-0.3-0.5-0.6-0.7c0.8-0.4,1.4-0.1,1.6,0.7
			c0.4,0.1-0.2-0.6,0.4-0.5c0.1,0.3,0,0.7-0.2,1c-0.4-0.4-0.1,0.1-0.4,0.3c-0.1-0.3,0-0.6-0.1-0.9c-0.4,0.1,0.2,0.9-0.7,0.6
			c-0.1,0.4,0.6,0.2,0.4,0.7c0.5,0,0.6-0.2,0.9-0.4c0,0.4-0.2,0.8-0.2,1.2c-0.3,0.1-0.6-0.9-1.1,0.1c-0.2-0.2-0.1-0.4,0.1-0.7
			c-0.3,0-0.5,0.2-0.6-0.3c-0.2,0.4,0.1,0.7,0.1,1.1c-0.3-0.4-0.7-1.1-1.7-1.3c0.2-0.2,0.5,0,0.7-0.2c-0.4-0.1-0.9,0-0.5-0.6
			c-0.3-0.4-0.5,0.3-0.8-0.2c0.3,0,0.3-0.2,0.1-0.3c0.2-0.3,0.6,0.3,0.8,0.4c0-0.3-0.7-0.7,0-0.8c-0.1,0.6,0.3,0.3,0.7,0.6
			C4056.7,90.9,4056.7,90.7,4056.7,90.5z"/>
		<path fill-rule="evenodd" clip-rule="evenodd" fill="#649981" d="M4068.5,98.9c0.2-0.2,0.3,0.5,0.6-0.1c0,0.3,0.3,0.5,0.6,0.7
			c-0.3,0.3-0.6-0.1-0.9-0.3c-0.5,0.7-1,1.1-1.5,0.7c-0.1-0.4,0.2-0.2,0.5-0.4c-0.4-0.4-0.6,0.3-1,0c-0.1,0.3-0.1,0.6,0.3,0.8
			c-0.1,0.3-0.4,0-0.5,0.2c-0.1-0.3,0.3-0.7-0.3-0.4c0-0.2,0.3-0.6,0.4-1c-0.3,0-0.6-0.3-0.9,0.1c-0.1-0.2,0-0.4,0.1-0.7
			c-0.3-0.1-0.5,0-0.8-0.2c0.1-1,1.3-0.1,1.1,0.1c-0.1,0.2,0.2,0.3,0.4,0.5c-0.2-0.3,0.2-0.6,0.1-0.9c0.1-0.2,0.6,0.5,0.4,0.7
			c0.5,0.1,0.4-0.5-0.1-0.6c0.3-0.2,0.6-0.1,1,0.2c-0.2,0.2-0.3,0.4-0.5,0.6c0.4,0.1,0.3,0.2,0.8,0.4
			C4068.6,99.1,4068.6,99,4068.5,98.9z"/>
		<path fill-rule="evenodd" clip-rule="evenodd" fill="#649981" d="M4073.3,103.5c-0.2,0.4-0.4,0.1-0.6,0.3c0.1-0.5-0.2-0.4-0.6-0.3
			c-0.1-0.7,0.8-0.3,0.9,0.1c0.3-0.4-0.2-0.7-0.1-1.1c-0.4-0.2,0.1,0.4-0.3,0.6c-0.2-0.6-0.1-0.4-0.7-0.1c-0.1-0.1,0-0.2,0.1-0.3
			c-0.2-0.2-0.4-0.2-0.6,0c0.3,0.4-0.1,0.9,0.6,1c-0.3,0.1-0.6,0.4-1,0.2c0.1-0.2,0.4-0.4,0.3-0.6c-0.3-0.1,0,0.3-0.4,0.3
			c0.1,0.4,0,0.7,0.5,0.8c-0.1,0.1-0.2,0.2-0.3,0.4c-0.4-0.3-0.3-0.8-1-1c0-0.5,0.3-0.4,0-0.8c0.6-0.1,0.5-1,1.5-0.6
			c0.5-0.3-0.3-0.4,0.1-0.7c0.4,0.5,0.8,0.5,1.1,0.1c0,0.7,0.5,0.2,0.6,0.7C4073.1,102.9,4073.1,102.8,4073.3,103.5z"/>
		<path fill-rule="evenodd" clip-rule="evenodd" fill="#649981" d="M4075.2,107.7c0.2,0.2,0.4,0.3,0.4,0.5c0.3,0.1,1.2-0.8,0.7-0.9
			c0.4,0.4-0.8,0.4-0.6,0c0.8,0.4,0-0.4,0-0.6c0.5,0.3,0.6-0.1,0.8,0.4c0-0.7-0.3-1.2-0.7-0.6c-0.3-0.6,0.8-0.8,0.5-1.4
			c-0.2,0.2-0.5,0-0.7,0.2c0.1,0.1,0.4,0.2,0.3,0.4c-0.4-0.5-0.7-0.2-1-0.2c0.5,0.4-0.1,0.3-0.3,0.4c0.3,0.4-0.2,0.3-0.1,0.7
			c-0.2-0.1-0.2-0.3-0.3-0.4c-0.1,0.4-0.7,0.4-0.5,0.6c0.1-0.1,0.3,0,0.2,0.2c-0.2-0.1-0.4-0.1-0.6,0c0.1,0.1,0.1,0.2-0.1,0.3
			c0.2,0.4,0.7-0.3,0.6,0.3c-0.3,0-1.1,0.2-0.9,0.4c0.4,0.1,0.6-0.1,0.7-0.2c0.1,0.1,0,0.3-0.2,0.5c0.5,0,0.6,0.3,0.9,0.3
			C4074,107.9,4075.7,108.6,4075.2,107.7z M4075.1,107.4c-0.1-0.2-0.2-0.4-0.3-0.6C4075.2,106.4,4075.4,107.1,4075.1,107.4z"/>
		<path fill-rule="evenodd" clip-rule="evenodd" fill="#649981" d="M4063.4,95.9c-0.3,0-0.6,0.2-0.8,0.3
			C4062.2,95.7,4063,95.6,4063.4,95.9z"/>
		<path fill-rule="evenodd" clip-rule="evenodd" fill="#649981" d="M4080.8,109.5c-0.1,0.2,0.1,0.2,0.1,0.1c0.3,0.4-0.4,0.2-0.5,0.4
			c0.3,0.3,0.4,0,0.7,0.3c-0.4,0.5-0.2,0.3,0.2,0.5c-0.2,0-0.4,0.2-0.3,0.4c-0.4,0.3-0.3-0.4-0.6-0.5c0.1,0.3-0.1,0.6,0.3,0.8
			c-0.8-0.1-1.2,0.3-1.3,0.2c-0.5,0.3,0-0.5-0.3-0.6c0.3-0.1,0.6,0.2,0.9,0.1c0.3-0.4-0.3-0.8-0.5-1.1c0.3-0.4,0.6-0.3,0.9-0.9
			c0.2,0.2,0.4,0,0.6,0.3C4081,109.6,4080.9,109.6,4080.8,109.5z"/>
		<path fill-rule="evenodd" clip-rule="evenodd" fill="#649981" d="M4061.1,95.6c0.3-0.3,0.3-0.6,0.2-0.8c-0.2,0.3-0.5,0.1-0.8,0
			c-0.2,0.2-0.4,0.9-0.7,0.4c-0.2,0.5,0.3,0.8-0.5,0.6c0.3,0.8,0.1,0.3,0.7,0.3c0,0.4-0.1,0.1-0.4,0.5c0.1,0.1,0.2,0.2,0.4,0.3
			c0.2-0.2,0.1-0.4,0.3-0.6c0.1,0.4,0.3,0.3,0.6,0.3c-0.5,0.1-0.6,0.7-0.5,0.4c0.4-0.3,0.4,0.4,0.4,0.5c0.4-0.6,0.7-0.5,0.9-0.4
			c-0.2-0.3,0.8-0.6,0.5-1.2c-0.6,0.7-0.2-0.8-0.8-0.4c0.3,0.1,0.2,0.8,0,0.6C4061.5,95.7,4061.3,95.6,4061.1,95.6z M4060.5,95.4
			c0.1,0.3,0.5,0.3,0.5,0.8C4060.7,96.4,4060.2,95.7,4060.5,95.4z"/>
		<path fill-rule="evenodd" clip-rule="evenodd" fill="#649981" d="M4064.8,98.3c0.2,0,0.4,0.2,0.8,0.4c-0.2,0.2,0.2,0.4-0.1,0.7
			c0.2,0,0.4-0.1,0.5-0.2c0.1,0.2,0.1,0.3,0.2,0.2c0.2,0.4-0.7-0.1-0.8,0.3c-0.2-0.2-0.4-0.3-0.6-0.5c0.3-0.1,0.5-0.4,0.6,0
			c0.3-0.3-0.2-0.4-0.1-0.6C4065,98.9,4064.9,98.9,4064.8,98.3z"/>
		<path fill-rule="evenodd" clip-rule="evenodd" fill="#649981" d="M4056.5,96.6c-0.1,0.1-0.2,0.4-0.4,0.3c-0.3-0.3-0.4-0.9-1.1-1.1
			c0.4-0.4,0.5-0.6,0.4-1c-0.1,0.1-0.2,0.4-0.4,0.3c0.4-0.6-0.3,0-0.5-0.4c0.1-0.2,0.3-0.3,0.4-0.5c-0.5,0.1-0.4,0-1,0
			c0.1,0.2,0.5,0.9,0,0.8c0-0.1,0.2-0.2,0.1-0.3c-0.1,0.1-0.3,0-0.5-0.2c0.1-0.2,0.3-0.3,0.2-0.5c-0.6-0.2-1.4,0-1.5,0.7
			c-0.1-0.3-0.2-0.4-0.5-0.2c0.2,0.2-0.1,0.4-0.3,0.6c0.8,0.6,1.3,1.2,1.5,2.1c0.4-0.8,0.8,0.4,0.8-0.3c0.1,0.2,0.2,0.4,0.5,0.6
			c-0.3,0-0.5,0.3-0.3,0.6c0.1-0.1,0.2,0,0.2,0.2c0.4-0.1,0.2-0.5,0.6-0.5c0.1,0.2,0.1,0.3,0,0.6c0.7,0.6,0.4-0.2,1.3,0.4
			c0.5-0.3,1.4-0.8,1.8-0.1c-0.2-0.3,0.3-1.2,0.7-1.2c-0.1,0.2-0.3,0.3-0.2,0.5c0.2-0.1,0.4-0.2,0.6-0.5c-0.5-0.4-0.9,0-1.3,0
			c-0.3-0.7,0-0.4-0.4-1.1c-0.2,0.4-0.7,0.1-0.7-0.1C4056.4,96.5,4055.9,96.5,4056.5,96.6z M4057.1,96.5c0,0.4,0.7,0.7,0,1.2
			c0.1-0.6-0.5-0.6-0.9-0.7C4056.5,96.5,4056.8,96.6,4057.1,96.5z M4054.3,95.6c-0.1,0.5-0.5,0.9-0.7-0.1c0,0.4-0.1,0.7,0.4,1.1
			c0.5,0.2-1-0.5-0.8,0.3c-0.1-0.5,0-1,0.2-1.6c0.5-0.1,0.5,0.4,1.1,0.1c0.1,0.1,0,0.2,0.1,0.3c-0.1,0.1-0.1,0.2-0.2,0.2
			C4054.3,95.9,4054.2,95.8,4054.3,95.6z"/>
		<path fill-rule="evenodd" clip-rule="evenodd" fill="#649981" d="M4076.3,112.4c-0.2,0.5-0.1,0.3-0.5,0.4
			c-0.2,0.2,0.4,0.4,0.5,0.6c0.2-1,1.5,0.3,2-0.4c0.3,0.3,0.4,0.5,0.5,0.8c-0.2-0.1-0.9,0.1-0.4,0.5c0.1-0.1,0-0.2,0-0.2
			c0.6,0.4-0.6,0.2-0.9-0.5c-0.1,0.2-0.3,0.3-0.2,0.5c0.2,0.1,0.1-0.3,0.3-0.1c0.4,0.3-0.5,0.5,0,1c-0.2-0.2-0.7-0.1-0.6,0.3
			c-0.5,0.4,0-0.7-0.4-0.3c-0.3-0.3,0.3,0,0.4-0.3c-0.3,0-1.3-0.2-1.2,0.3c-0.6,0.1-0.1-0.3,0.2-0.5c-0.3-0.1-0.6-0.1-0.8,0.3
			c-0.7-0.5-0.7-0.5-1.1-1.4c-0.2-0.6,0.2,0.5,0.5,0.2c0.1,0.2-0.3,0.3,0.3,0.6c0-0.6-0.1-0.7,0.5-0.9c-0.6,0-0.3-0.2-0.6-0.3
			c-0.1-0.1,0.1-0.3-0.1-0.4c0.4-0.3,0.3,0.1,0.7,0.3c-0.3-0.6,0.5,0,0.8-0.5c0.2,0.1,0.3,0.3,0.5,0.4
			C4076.7,112.8,4076.5,112.6,4076.3,112.4z"/>
		<path fill-rule="evenodd" clip-rule="evenodd" fill="#649981" d="M4069.1,108.6c-0.1-0.3,0.6,0.2,0.6-0.5c0.1,0.4,0.7,0.6,0.6,1
			C4070.5,109.6,4069.5,108.3,4069.1,108.6z"/>
		<path fill-rule="evenodd" clip-rule="evenodd" fill="#649981" d="M4071.5,109.3c-0.4-0.6,0.4-0.8-0.7-1.1c0.3,0.2,0.2,1-0.1,0.9
			c0-0.3,0.3-0.6-0.1-0.9c-0.5,0.5,0.3,0.5-0.2,1.2c-0.1-0.1-0.2,0-0.3-0.1c-0.2-0.7-1.3-0.8-1.3-0.4c0.1-0.1,0.4-0.1,0.3,0.1
			c-0.3-0.2-0.5,0.1-0.7,0.4c0.1,0.8,1.4,0.8,0.8,1.4c0.5,0.2,0.9-0.8,1.5-0.2c0.1-0.2,0.4-0.4,0.3-0.6c-0.1,0.2-0.4-0.4-0.4-0.5
			C4070.8,109.5,4071.1,109.4,4071.5,109.3z M4069.5,109.1c0.3,0.2,0.1,0.2-0.1,0.3c0.2,0.2,0.5,0.2,0.7,0.1c0.3,0.4,0,0.3-0.3,0.6
			c0.4,0.7-0.2-0.3-0.6-0.5C4069.4,109.5,4069.3,109.4,4069.5,109.1z"/>
		<path fill-rule="evenodd" clip-rule="evenodd" fill="#649981" d="M4071.5,109c0.4-0.1,0.4,0,0.7,0.3c-0.2,0.3-0.5,0.2-0.7,0.2
			c-0.1,0.1,0.1,0.7,0.3,0.4c0.3,0.3-0.3,0.1-0.4,0.5c-0.2,0.6,0.4-1.1-0.4-0.5C4070.8,109.2,4072.3,109.8,4071.5,109z"/>
		<path fill-rule="evenodd" clip-rule="evenodd" fill="#649981" d="M4065,103.9c-0.1-0.5,0.2,0.1,0.4,0.3c-0.4,0-0.1,0.6-0.5,0.2
			c-0.1,0.1,0.1,0.2,0.1,0.3c0.2,0.1,0.3-0.1,0.4-0.3c0.2,0.6,1,0.7,0.8,1.4c0.4,0.2-0.1-0.4,0.3-0.6c0.2,0.3,0.3,0.6,0,1
			c-0.2-0.2-0.5-0.2-0.7-0.1c0,0.7,0.6-0.1,0.9,0.3c-0.5-0.1-0.5,0.5-0.2,0.5c0.3,0.3-0.5,0.1,0.1,0.4c-0.7,0.1-0.7,0.5-1.6-0.7
			c0.2-0.1,0.4,0,0.5-0.2c0.2-0.9-1.2-0.3-1.6-1c-0.2,0.2,0.3,0.8,0.5,0.6c0.1-0.3-0.1,0.3-0.3,0.7c0.8,0-0.3,0.1,0,0.6
			c0.2,0.1,0.3-0.2,0.5-0.4c0.2,0.1,0.3,0.3,0.5,0.4c-0.1,0.3-0.7,0.6-0.4,0.8c-0.5-0.1-0.9-0.5-0.9-1.1c-0.3,0.3,0.2,0.6-0.3,0.9
			c0-0.4-0.4-0.4-0.7-0.6c0.1,0,0.3-0.1,0.4-0.3c0.2,0.1,0.1,0.3,0.3,0.4c0.1-0.1,0-0.2,0.1-0.3c-0.5-0.3-0.8-0.1-1.1-0.6
			c0.2-0.2,0.5,0.2,0.6-0.1c-0.2-0.2-0.5-0.1-0.4-0.7c0.2-0.1,0.3-0.1,0.6,0c0.2-0.4-0.1-0.3-0.4-0.5c0.5-0.4,0.8-0.5,0.6-1.3
			c0.3,0.3,0.7,0.6,0.2,1c0.4-0.2,0.6-0.6,0.8-1.1c0.3,0,0.4,0.1,0.5,0.4C4065,104.1,4065.1,104,4065,103.9z"/>
		<path fill-rule="evenodd" clip-rule="evenodd" fill="#649981" d="M4065.7,107.5c0.3,0.2-0.4,0.2-0.5,0.6c-0.5-0.2,0.1-0.5,0.2-0.8
			C4065.5,107.5,4065.5,107.7,4065.7,107.5z"/>
		<path fill-rule="evenodd" clip-rule="evenodd" fill="#649981" d="M4061.3,101.9c-0.1-0.1-0.2,0-0.3-0.1c-0.1-1.2-1,0.7-1.6,0.1
			c-0.1,0.2-0.3,0.3-0.4,0.5c0.3,1,1.5,1,2.5,0.8c-0.2-0.5-0.6,0.4-0.5-0.2c1.3,0.1,0.4-0.9,1.7-0.7c-0.5-0.5-0.9,0-1.3-0.3
			c0.2-0.2,0.3-0.9-0.1-0.6C4061.4,101.6,4061.3,101.7,4061.3,101.9z M4061,102.6c0.2,0.5-1,0.1-0.9-0.3
			C4060.4,102.1,4060.5,102.9,4061,102.6z"/>
		<path fill-rule="evenodd" clip-rule="evenodd" fill="#649981" d="M4084.8,88.3c0.5,0.3,0,0.9-0.3,0.9c-0.3-0.4-0.3-0.2-0.5-0.6
			C4084.2,88.5,4084.6,88.9,4084.8,88.3z"/>
		<path fill-rule="evenodd" clip-rule="evenodd" fill="#649981" d="M4083.3,93.2c0,0.5,0.8-0.4,1.2,0.2c-0.4,0.4-0.7,0.5-1,1
			c-0.3,0-0.5-0.3-0.7,0.2c-1.3-0.3-1.1-1-1.4-0.9c0-0.7,0.8-0.3,0.6-1.1c0.4,0.4,0.1-0.1,0.4-0.3c0.3,0.4,0.6,0.2,0.9,0.5
			c0-0.3,0.1-0.2,0.3-0.4c0.1,0.1,0,0.2-0.1,0.3c0.3,0.2,0.4-0.5,0.7-0.4C4084.7,93,4083.7,93,4083.3,93.2z"/>
	</g>
	<g>
		
			<rect x="4097" y="95.9" transform="matrix(-0.8723 -0.4891 0.4891 -0.8723 7648.8618 2222.6028)" fill="none" width="35.5" height="32.7"/>
		<path fill-rule="evenodd" clip-rule="evenodd" fill="#649981" d="M4119.4,101.8c-0.1,0.2-1-0.2-0.6-0.5c0.2,0.1,0.2,0.3,0.3,0.4
			c0.1-0.3-0.3-0.4,0-0.7C4119.5,101.2,4119.3,101.6,4119.4,101.8z"/>
		<path fill-rule="evenodd" clip-rule="evenodd" fill="#649981" d="M4134.3,110.5c-0.1-0.2-0.3-0.4-0.1-0.8
			C4134.6,109.9,4134.5,110.2,4134.3,110.5z"/>
		<path fill-rule="evenodd" clip-rule="evenodd" fill="#649981" d="M4119.7,117.3c0.2,0.5-0.9,0-1.2,0
			C4118.9,117,4119.6,117.4,4119.7,117.3z"/>
		<path fill-rule="evenodd" clip-rule="evenodd" fill="#649981" d="M4111,117.5c0.3,0.4-0.4,0.4-0.5,0.8
			C4110.2,117.8,4110.7,117.9,4111,117.5z"/>
		<path fill-rule="evenodd" clip-rule="evenodd" fill="#649981" d="M4097.5,115.5c0.1,0.1,0.1,0.3,0.3,0.2c0.3,0.3-0.4,0.5-0.6,0.2
			C4097.3,115.7,4097.4,115.6,4097.5,115.5z"/>
		<path fill-rule="evenodd" clip-rule="evenodd" fill="#649981" d="M4093.3,116.4c0.3-0.2,0.9,0.3,0.5,0.6
			C4093.3,116.9,4093.5,116.6,4093.3,116.4z"/>
		<path fill-rule="evenodd" clip-rule="evenodd" fill="#649981" d="M4111.1,92.8c-0.6-0.5-0.5-0.9-0.7-1.6c-0.4,0.9-0.2-0.3-0.9-0.3
			c-1.2,0.5-1.2,0.2-2.1,1.8c0.4,0.4,0.4-0.3,0.8-0.1c-0.1,0.2-0.3,0.4-0.4,0.7c0.5,0.4,1,0.7,1.6,0.7c-0.1-0.1-0.2-0.3,0-0.6
			c0.2,0.1,0.1,0.3,0.3,0.5C4110.7,93.6,4110,93.6,4111.1,92.8z M4109.3,91.9c0.7,0.2-0.2,0.8,0.1,1.1
			C4109,93.2,4108.7,92.2,4109.3,91.9z"/>
		<path fill-rule="evenodd" clip-rule="evenodd" fill="#649981" d="M4121.8,98.6c0,0.2,0.5,0.3,0.2,0.6c-0.2-0.1-0.2-0.3-0.3-0.4
			c-0.3,0.4,0.2,0.5-0.1,0.8c-0.3-0.4-0.6,0-0.9,0.4c-0.1,0.3,0.1,0.4,0.4,0.6c-0.3,0.1-0.3,0.4-0.2,0.6c-0.1,0.1-0.2,0-0.1-0.1
			c-0.4,0.1-0.6,0.9-1,0.8c-0.2-0.4-0.1-0.9-0.4-1.3c-0.4,0.1-0.6,0.5-1.3,0.1c0.3-0.2,0.4-0.9,0-0.6c-0.4-0.3,0.9-0.3,0.4,0.2
			c0.6,0,0-0.5,0-0.7c-0.2-0.1-0.4-0.1-0.6,0c-0.3-1.1,0.3-0.5,0.4-1.4c0.4,0.2,0.4-0.1,0.5,0.3c-0.1-0.7,0.8-0.6,1.1-1
			c0.7,0.4,0.3,0.7,1,0.4c0.2,0.2-0.1,0.3-0.2,0.4C4121.3,98.5,4121.4,99.2,4121.8,98.6z"/>
		<path fill-rule="evenodd" clip-rule="evenodd" fill="#649981" d="M4124.9,103.8c-0.2-0.4-0.7-0.1-0.7-0.6c0.7,0.2,1.4-0.1,1.9,0
			c0.2-0.3,0.4-0.6,0.5-0.9c-0.3-0.1-0.2-0.3,0-0.3c-0.6-0.3-0.1-0.3-0.1-0.8c-0.6,0.5-0.6-0.2-1-0.2c0.1,0.1-1.2,0.2-1.4,0.1
			c-0.2,0.2,0,0.4,0,0.6c-0.4-0.2-0.4,0.8-1.1,0.6c0.1,0.3,0.5,0.4,0,0.6c0.4,0.4,0.3,0.1,0.2,0.6c-0.2-0.1-0.2-0.4-0.3,0
			c-0.1,0.3,0.8,0.1,0.1,0.4c0.3,0.1,0.2,0.4,0.4,0.2c-0.4-0.2,0.8-0.5,0.3,0c0.2,0.2,0.4,0,0.6,0.2
			C4124.5,104,4124.7,103.9,4124.9,103.8z M4124.8,102c0.3-0.2-0.3,0.6-0.4,0.7c-0.1-0.1-0.1-0.3-0.3-0.4
			C4124.3,102.2,4124.6,102.3,4124.8,102z"/>
		<path fill-rule="evenodd" clip-rule="evenodd" fill="#649981" d="M4113.8,98.3c-0.4-0.2,0-0.6,0-0.9c-0.3,0-0.7,0.2-0.5-0.3
			c-0.4,0.2-0.6,0-0.6,0.5c-0.2-0.9,0.2-1,0.2-1.9c0.1-0.3,0.3-0.4,0.6-0.2c-0.6-0.2-0.2-0.8,0.4-1c0.9,0.4,1.3,1.3,1,1.6
			c0.2,0,0.4,0,0.7,0c0-0.2-0.9-0.3-0.4-0.9c0,0.5,0.3,0.6,0.6,0c0.5,0.1-0.1,0.6,0.5,0.6c-0.3,0.3-0.5,0.7-0.9,0.7
			c-0.1,0.3,0.3,0,0.3,0.4c-0.2,0.4-1,0.5-0.7,1C4114.6,98.2,4113.8,97.6,4113.8,98.3z"/>
		<path fill-rule="evenodd" clip-rule="evenodd" fill="#649981" d="M4133.9,108.7c0.1-0.1,0.2,0,0.1,0.1c0.4,0.1,0.4-0.6,0.2-0.7
			c0.7-0.1,1.2-0.5,2-0.1c-0.3,0.5,0.2,0.9,0.7,0.9c-0.7,0.6-2.3,0.5-2.2,1.4c-0.3-0.2-0.1-1.1-0.7-0.6
			C4134.1,109.3,4134.3,109.2,4133.9,108.7z"/>
		<path fill-rule="evenodd" clip-rule="evenodd" fill="#649981" d="M4129.6,106.4c-0.5,0.1,0.1,1.1-0.6,1.1
			c-0.4-0.3,0.6-0.3,0.2-0.6c-0.3,0-0.1,0.2-0.4,0.5c-0.1-0.2-0.1-0.5-0.3-0.7c0.2-0.2,0.3,0.1,0.4,0.2c0.1-0.1,0.1-0.2,0.2-0.3
			c0.1-0.3-0.3,0-0.3-0.4c0.6-0.4-0.1-0.3,0.3-0.9c0.2,0.1,0.2,0.3,0.3,0.4c0-0.4-0.1-0.6,0.3-0.9c0.5,0.5,1.3,0.2,1.8,0.3
			c0.3,0.2-0.2,0.6,0.1,0.8c-0.4,0-0.4,0.1-0.5,0.6c-0.3-0.1-0.2-0.3-0.5-0.4c-0.3,0.3,0.1,0.4,0.2,0.6c-0.1,0.1-0.3,0.1-0.4,0.3
			c-0.1-0.2-0.2-0.3-0.5-0.4c-0.2,0.3,0,0.4,0.3,0.5C4129.7,107.4,4129.4,106.7,4129.6,106.4z"/>
		<path fill-rule="evenodd" clip-rule="evenodd" fill="#649981" d="M4120.8,100.3c0.1-0.2,0.4,0.1,0.6,0.2c-0.5,0.4,0.3,0.5-0.2,1
			C4121,101.1,4121.5,100.5,4120.8,100.3z"/>
		<path fill-rule="evenodd" clip-rule="evenodd" fill="#649981" d="M4108.1,98.1c-0.4,0.4,0.2,0.5,0.1,0.8c-0.8-0.3-0.7,0.5-1.3,0.7
			c0.6,0.3,0.3,0.3,0,0.3c0.3,0.1,0.5,0.3,0.6,0.5c0.4,0,0-0.4,0.4-0.3c0.1,0.1,0.2,0.1,0.3,0.2c-0.1,0.2-0.2,0.3-0.4,0.3
			c0.6,0.4,0.9,0.2,1.1,0.3c-0.2-0.4-0.6-0.7-0.4-1.3c0.3,0.3,0,0.8,0.6,1.1c0.6-0.3,0.4-0.6,1-0.8c-0.1-0.4-0.6-0.4-0.9-0.5
			c0.1-0.1,0-0.2,0-0.3c0.2-0.1,0.4-0.1,0.6-0.2c-0.1-0.1,0-0.2,0.2-0.3C4109,98.8,4109.1,98.2,4108.1,98.1z M4109.2,99.6
			c0.3,0.1-0.2,0.5-0.2,0.7C4108.7,100.2,4108.9,99.7,4109.2,99.6z"/>
		<path fill-rule="evenodd" clip-rule="evenodd" fill="#649981" d="M4119.4,104.4c0.3,0.2-0.4,0.3-0.4,0.5c0,0.2,0.3,0.8,0.6,0.5
			c0.1-0.4-0.5,0-0.5-0.4c0.2-0.1,0.4,0,0.5-0.3c0.1,0.1,0.1,0.4,0.3,0.5c0.3-0.1,0.7,0,0.9-0.6c0.1,0.2,0,0.4,0.3,0.5
			c-0.9,1.2-0.4,1-1.1,1.9c-0.1-0.1,0-0.3,0.1-0.5c-0.5,0-0.4,0.7-0.5,0.9c0-0.7-1.1-0.1-1.3-0.8c0.4,0.1,0.2,0,0.1-0.5
			c-0.5-0.1-0.3,0.1-0.4,0.5c-0.2-0.3-0.2-0.7,0.1-0.8c-0.2,0-0.4,0-0.5,0.3c-0.3-0.2,0-0.5-0.4-0.6c0.1-0.1,0.5,0,0.3-0.2
			c0.1-0.1,0.7,0.1,0.4-0.3c0.2-0.2,0.1,0.1,0.3,0.2c0-0.1,0.6-0.5,0.5-0.8c0.3-0.4,0.3,0.6,0.6,0
			C4119,104.6,4119.2,104.7,4119.4,104.4z"/>
		<path fill-rule="evenodd" clip-rule="evenodd" fill="#649981" d="M4117.6,106.4c-0.1,0.2-0.4,0.5-0.2,0.6c0.3,0.1-0.5-0.2-0.7-0.6
			C4116.9,106.2,4117.2,106.1,4117.6,106.4z"/>
		<path fill-rule="evenodd" clip-rule="evenodd" fill="#649981" d="M4115,102c0,0.3,0.2,0.9-0.2,1c0.1,0.1,0.7-0.1,0.4-0.3
			c0.9,0.2-0.6,0.7,0,1.2c-0.2,0.2-0.3-0.1-0.4-0.2c0,0.5,0,0.8-0.6,0.7c0.1,0.2-0.1,0.4,0,0.6c0.1,0.5-0.3-0.4-0.6-0.5
			c-0.4,0.3,0.1-0.4,0.3,0c0.1-0.2-0.3-0.4-0.4-0.2c0.6-0.5-0.1-1-0.4-1.8c0.2-0.4,0.6-0.1,0.8-0.4c0,0.2,0.5,0.3,0.2,0.6
			c0.5,0.1,0-0.4,0.3-0.5c0.5,0.1-0.1,0.5,0.4,0.6C4114.8,102.4,4114.8,102.2,4115,102z"/>
		<path fill-rule="evenodd" clip-rule="evenodd" fill="#649981" d="M4113.1,102.7c0.1,0.1,0,0.2-0.1,0.1c-0.1,0.3,0.4,0.3,0.4,0.6
			c-0.2,0.3-0.5,0.1-0.8-0.1c0.1-0.1,0.2,0,0.3,0c0.1-0.2-0.2-0.2-0.3-0.4C4112.8,102.8,4113,102.9,4113.1,102.7z"/>
		<path fill-rule="evenodd" clip-rule="evenodd" fill="#649981" d="M4129.8,113.6c-0.2-0.1-0.2,0.7-0.7,0.3c0.2-0.3,0.5-0.3,0.6-0.7
			c-0.2-0.2-0.4,0-0.6-0.2c-0.3,0.3,0,0.5-0.2,0.7c-0.4-0.2-0.2-0.5-0.1-0.8c0.3-0.1,0.6-0.1,0.8-0.4c-0.1-0.1-0.2,0.1-0.3,0.2
			c-0.1-0.1,0-0.2,0-0.3c-0.1,0-0.3,0-0.5-0.1c0.1-0.2,0.3-0.2,0.4-0.3c0.2-0.4-0.3,0.1-0.5-0.3c-0.5,0.1,0.3-0.2,0.6,0
			c0.1-0.3-0.6-0.4-0.1-0.8c0.1,0,0.1,0.1,0.1,0.2c0.8-0.6,1.1,0.5,1.5-0.4c0.1,0.2,0,0.4,0.3,0.5c-0.2,0.3-0.5,0-0.6,0.4
			c0.3,0.7,1.7-0.2,1.8,0.8c-0.1,0.3-0.5-0.1-0.6,0.2c-0.1,0.2,0.2,0,0.4,0.2c-0.1,0.8-0.5,0.4-0.9,1.3c0-0.6-0.7,0.3-0.3-0.4
			c-0.2-0.2-0.5,0.5-0.1,0.5c-0.1,0.1-0.3-0.1-0.4,0.1C4130.1,113.8,4129.7,114.1,4129.8,113.6z"/>
		<path fill-rule="evenodd" clip-rule="evenodd" fill="#649981" d="M4128.8,112.7c-0.2,0.2-0.4,0.5-0.7,0.3c0.4-0.4-0.1-0.6,0.2-1
			C4129,112,4127.8,112.5,4128.8,112.7z"/>
		<path fill-rule="evenodd" clip-rule="evenodd" fill="#649981" d="M4104.4,101c-0.1-0.3,0.2-0.7,0.2-1c0.1,0,0.2,0,0.1-0.1
			c-0.3,0.4-0.7,0.3-1,0.3c0,0.4-0.2,0.4-0.2,1c-0.2-0.1-0.1-0.3-0.3-0.5c-0.1,0.9-0.8,0.7-0.5,1.3c-0.9-0.5-0.1,0.1-0.8,0.2
			c0.3,0.4-0.2,0.3,0,0.7c0.3,0.5,1.1,0.4,1.7,1c0.4-0.3-0.4-0.3,0-0.7c0.4,0.2,0.4-0.1,0.5,0.3c0.2-0.2,0-0.4,0-0.6
			c0.2,0.1,0.3,0.2,0.3,0.4c0.2-0.5,0.4-1,0.1-1.4c0.4,0.2,0.1,0.4,0.5,0.3c0.1-0.9,0.3-0.7,0.3-1.6c0.3,0.2,0.3,0.5,0.6,0.2
			c-0.2-0.1-0.1-0.3-0.3-0.5c-0.2,0.1-0.8,0.4-0.8,0.1c0.1,0,0.2,0,0.1-0.1C4104.5,100.3,4104.8,101.1,4104.4,101z M4102.7,103.2
			c0.1-0.3,0.2-0.2,0.4-0.1c0.1-0.1,0-0.2-0.1-0.2C4103.6,102.5,4103.1,103.7,4102.7,103.2z"/>
		<path fill-rule="evenodd" clip-rule="evenodd" fill="#649981" d="M4115.6,107.1c-0.1,0.1-0.2,0-0.3,0c-0.1,0.4,0.6,0.2,0.6-0.2
			c0.4-0.4-0.3,0.9,0.3,0.4c0.1,0.2,0,0.4,0.3,0.5c-0.1,0.1-0.3,0.1-0.2,0.3c-0.1,0.1-0.2,0-0.1-0.1c-0.3,0.3-0.7,0.1-1,0.3
			c0.1,0.1,0.2,0.5,0.3,0.4c-0.2,0.9-0.9,1-1.5,1.4c-0.1-0.3-0.3-0.6-0.8-0.8c0.2-0.1,0.4,0,0.5-0.3c-0.4-0.3-0.5,0.5-1,0
			c0.3-0.3,1.1-0.1,0.4-0.7c0.7,0.2,0.5,0.2,1.2-0.2c-0.4-0.4-0.5,0.4-0.9,0c0.3-0.4,0.9-0.1,1.3-0.1
			C4113.8,107.5,4115,107,4115.6,107.1z"/>
		<path fill-rule="evenodd" clip-rule="evenodd" fill="#649981" d="M4110.8,104.9c-0.4-0.2-0.7,0-1,0c0.1-0.7-1.2-1.3-1.7-1
			c0.1,0.1,0,0.2-0.2,0.3c0.1,0.1,0.4,0.2,0.3,0.4c-0.5-0.2-0.9,0.2-1.3,0.5c0.7,0.3,0.3,1.3,0.4,1.1c0.5-0.2,0.5,0.3,1-0.2
			c0,0.1,0,0.2,0.2,0.3c0.4-0.5-0.5-0.6-0.7-0.4c0.4-0.2,0.2-0.5,0.4-0.5c0.4,0.5,0.7,1.1,0.6,1.4c0.4-0.4,0.2,0.3,0.3,0.4
			c0.6-0.5,1.3-0.1,0.9-1.1c0.2,0.1,0.3-0.1,0.5,0.1c0.3-0.5-0.5-0.9,0.3-0.9C4110.8,105.2,4110.8,105.1,4110.8,104.9z
			 M4108.6,104.8c0.3,0,0.2,0.7,0.5,0.3c0.3,0.4-0.4,0.3-0.4,0.5C4108.8,105.3,4108.4,105.1,4108.6,104.8z"/>
		<path fill-rule="evenodd" clip-rule="evenodd" fill="#649981" d="M4125.2,114.6c0,0.2,0.4,0.4,0.7,0.2c0.4,0.1-0.4,0.6,0.2,0.6
			c-0.1,0.1-0.3,0.1-0.2,0.3c-0.2,0.2-0.1-0.1-0.4-0.2c0,0.6,0.2,0.5,0.6,0.9c-0.4,0.4-0.8,0.2-0.8,0.8c-0.1-0.6-0.7,0.1-0.8-0.5
			c-0.3,0.6-0.3,0.3-0.3,0c-0.3,0-0.1,0.2-0.4,0.5c-0.1-0.4,0-0.3-0.5-0.4c0.3-0.3,0-1-0.4-0.8c0.4-0.5,1-0.8,1-1.5
			c0.5-0.2,1,0,1.1-0.8C4125.2,113.8,4125.9,114.5,4125.2,114.6z"/>
		<path fill-rule="evenodd" clip-rule="evenodd" fill="#649981" d="M4120.2,112.1c0.1-0.1,0.2,0,0.1,0.1c0.4,0.2,0.6-0.2,1.1,0.3
			c-0.6,0.6-0.3,0.2-0.3,0.9c-0.4-0.3-0.7,0-0.8-0.5c-0.3-0.1,0,0.3-0.4,0.3c0.3,0.3,0.5,0,0.7,0.2c-0.3,0.5-0.9,0-1.2,0.6
			c0.2,0,0.3-0.2,0.6,0c-0.1,0.8-0.7-0.2-0.9,0.6c-0.3-0.7-1.5-0.3-1.3-0.2c-0.4-0.3,0.5-0.9,0.1-1.7c0.2-0.6,1.4,0,1.2-0.6
			c0.2-0.1,1.2-0.1,0.8,0.5c0.1,0,0.2-0.1,0.3,0C4120.3,112.4,4120.3,112.2,4120.2,112.1z"/>
		<path fill-rule="evenodd" clip-rule="evenodd" fill="#649981" d="M4130.7,118.9c0.2,0.1,0.3-0.3,0.4-0.5c-0.1,1-0.5,1-0.7,1.5
			c-0.2,0.3-0.3-0.3,0-0.6c-0.4,0.1-0.3,0.2-0.4-0.2c-0.2,0-1,0.5-0.4,0.7c-0.3,0.4-0.2-0.3-0.5-0.3c0.2-0.3,0.4-0.3,0.6-0.5
			c0-0.3-0.5-0.5-0.2-1c-0.5,0.2,0.3,1.5-0.8,1.1c0.1-0.1,0.2,0,0.3,0c0.1-0.4-1-0.4-0.8,0.1c-0.3,0.3,0-0.5-0.6-0.5
			c0.1-0.1,0.1-0.3,0-0.3c0.2,0.2,0.5,0.3,0.8,0.5c0.2-0.3-0.1-0.3,0-0.6c-0.1-0.1-0.2,0.1-0.3,0.2c-0.3-0.2,0-0.7,0.2-0.7
			c0.1,0.7,0.5-0.4,1.1-0.4c0.2,0.1,0.5,0.4,0.6,0.2c0.2,0.1-0.1,0.8,0.3,0.5C4130.4,118.3,4130.2,118.6,4130.7,118.9z"/>
		<path fill-rule="evenodd" clip-rule="evenodd" fill="#649981" d="M4113.3,115.9c0.2-0.1,0.5-0.1,0.8,0.1c-0.1-0.4,0.1-0.8-0.1-1.1
			c-0.4-0.2-0.5,0.5-1,0.2c0.2-0.3,0.2-0.1,0.3,0c0-0.6,0.3-0.7,0.7-0.7c0.1-0.2-0.2,0-0.4-0.2c0.1-0.3,1.2-0.3,0.9,0.3
			c0.5,0.1,0.2-0.3,0.6-0.4c-0.2,0-0.5,0-0.7-0.2c0.2-0.2,0.5,0.1,0.6-0.4c0.1,0.9,0.8-0.3,1.1,0.5c-0.2,0.1-0.4,0.1-0.6,0
			c0.2,0.6,0.6,0.5,1.1,0.9c-0.4,0.1-0.8,0.3-1.1,1c-0.7-0.3-1.6,0-1.1,0.6C4114.1,116.5,4114,116.2,4113.3,115.9z"/>
		<path fill-rule="evenodd" clip-rule="evenodd" fill="#649981" d="M4102.2,107.1c-0.1-0.7,0.4,0.2,0.9,0.3
			c-0.4-0.5,0.3-0.2,0.1-0.5c0.3-0.3,0.4,0.2,0.1,0.4c0.6-0.2,0.9,0.3,0.8,0.8c0.4,0,0.1-0.5,0.6-0.4c0,0.3,0,0.8,0.4,0.2
			c-0.2,1.3-1.1,1.3-1.8,2c-0.2-0.2-0.2-0.4-0.2-0.6c-0.5-0.1,0.2,0.4-0.2,0.6c-0.3-0.1-0.4-0.3-0.2-0.6c-0.2,0.4-0.5,0.4-1.1,0.4
			c-0.3-0.2-0.1-0.5,0.1-0.8c-0.2,0-0.3,0.2-0.6,0c0.3-0.1,0.3-0.2,0.1-0.5c0.1-0.2,1.1,0.8,1.8,0.6c0-0.2-0.3-0.7,0.2-0.4
			c-0.4-0.6-0.6-0.3-0.9-0.3c-0.1-0.5-0.7-0.1-1.4-0.6c0.2-0.5,0.7-0.1,1.1-0.1c0-0.2,0-0.7,0.4-0.3
			C4102.4,107.2,4102.3,107,4102.2,107.1z"/>
		<path fill-rule="evenodd" clip-rule="evenodd" fill="#649981" d="M4109.2,110.7c-0.1-0.3-0.6-0.4-0.9-0.3c0,0.2,0.4,0.8-0.1,0.8
			c0.1-0.7-0.5-0.7-1.1-0.8c0.2,0.1,0.2,0.3-0.1,0.1c-0.3,0.4,0,0.6,0,0.9c-0.2-0.1-0.4-0.3-0.7-0.4c-0.3,0.6,0.4,1-0.3,1.2
			c0.2,0.1,0.3,0.2,0.1,0.4c0.9,0.3,0.8,0.1,1.3,0.8c0.1-0.2,0.3,0,0.4-0.1c-0.2-0.1-0.3-0.3-0.3-0.5c0.4,0.4,0.6-0.2,1,0
			C4108.7,112,4108.2,110.7,4109.2,110.7z M4106.7,111.6c0.1,0.1,0,0.2,0,0.3c0.6,0.1,0.7,1,1,0.2c0.5,1-1,0.2-1.2,0.2
			C4106.4,112.2,4106.6,112.1,4106.7,111.6z"/>
		<path fill-rule="evenodd" clip-rule="evenodd" fill="#649981" d="M4121.6,120c-0.4-0.4-0.2-0.3-0.6-0.2c0.5-0.5,0.2-0.3,0.3-0.9
			c0.2,0.4,0.9,0.6,0.7,0c-0.5,0.2-0.1-0.2,0.2-0.3c-0.2-0.2-0.8-0.2-0.6-0.5c0.2,0.1,0.3-0.2,0.5-0.3c-0.5-0.9-1.2-0.2-1.9-0.2
			c0.2,0.2,0.4,0.3,0.4,0.6c-0.9-0.7-1.4-0.3-2.3-0.9c-0.3,0.3-0.5,0.6-0.4,1c0.2-0.2,0.3-0.1,0.2-0.4c0.2,0.4,0.8,0.1,0.7,0.4
			c-0.3,0.1-1.2-0.1-1,0.5c0.3-0.1-0.1,0.5-0.2,0.6c0.1-0.2,0.5,0,0.4,0.2c-0.2,0.1-0.9,0.3-0.6,0.7c0.1-0.3,0.3-0.4,0.6-0.2
			c0.2-0.2,0.2-0.8,0.5-0.6c-0.2,0.4-0.4,1.1-0.8,1.3c0.5,0.2,0.3-0.6,1-0.5c0.1,0.3,0.6,0.5,1,0.7c0.2-0.2,0-0.4,0-0.6
			C4120.8,121.1,4121,120.2,4121.6,120z M4120.1,120.7c-0.2-0.1,0.1-0.4,0.2-0.6c0.2,0.1,0.4,0.2,0.5,0.1
			C4121.1,120.8,4120.2,120.3,4120.1,120.7z M4119.6,118.8c0.2-0.4,0.4-0.3,0.8-0.1c-0.2,0.2,0,0.3-0.1,0.5c0.1,0.1,0.2-0.1,0.3-0.2
			c0.1,0.1,0.1,0.2,0.2,0.3c-0.1,0.1-0.1,0.2-0.2,0.3C4120,119.3,4120.2,118.8,4119.6,118.8z M4120,120c-0.2-0.1-0.3,0.3-0.4,0.5
			c-1.1-0.4-0.1-0.9-0.8-1.1c0.2-0.3,0.9,0.2,1.3,0.2c0.2,0.1-0.2,0.4,0,0.6C4120.1,120.2,4120,120,4120,120z"/>
		<path fill-rule="evenodd" clip-rule="evenodd" fill="#649981" d="M4123.2,122.2c0.1,0.1,0,0.3-0.1,0.5c0.5,0.4,1.3,0.6,1.2,0
			c0.5,0.1,0.6,0.2,0.7,0.6c0.1-0.1,0.1-0.2,0.2-0.3c0.1,0,0.2,0.1,0.2-0.1c-0.2-0.1-0.3-0.3-0.3-0.5c0.7,0.4,0.1,0,0.4-0.3
			c0.3-0.1,0.5,0.4,1,0.2c-0.1-0.1-0.3-0.2-0.2-0.3c0.1,0,0.2,0.1,0.2-0.1c-0.8-0.3-0.1-1-0.2-1.2c-0.4-0.2-0.8-0.1-1.1-0.5
			c-0.3,0.3-0.6,0.6-0.9,0.7c0.1-0.1-0.1-0.2-0.2,0.1c0.4,0.2,1,0.4,0.8,0.8c-0.5-0.5-0.6-0.3-0.8-0.1c-0.1-0.1-0.3-0.2-0.2-0.3
			c0.1,0.1,0.2-0.1-0.1-0.2c-0.1,0.2-0.3,0.4-0.4,0.7c0.2,0.2,0.5,0,0.4,0.2C4123.5,122.2,4123.3,122.2,4123.2,122.2z M4124,122.4
			c-0.2,0.1-0.4,0.3-0.2,0.4C4123.2,123.1,4123.4,121.8,4124,122.4z"/>
		<path fill-rule="evenodd" clip-rule="evenodd" fill="#649981" d="M4109.3,111.5c-0.1,0.3-0.2,0.2-0.4,0.1
			c-0.1,0.2,0.2,0.3,0.3,0.4c-0.1,0.1-0.3-0.1-0.4,0.1C4108.5,111.8,4108.8,111.1,4109.3,111.5z"/>
		<path fill-rule="evenodd" clip-rule="evenodd" fill="#649981" d="M4097.3,110.2c0.2-0.4,0.5,0.7,0.7,0.4c0.1,0.1,0,0.3-0.2,0.3
			c-0.1,0.2,0.3,0.3,0.5,0.4c-0.1-0.4,0.2-0.3,0.4-0.7c-0.1-0.1-0.2,0.1-0.3,0.2c-0.1-0.2-0.4-0.4-0.7-0.6c0.7-0.5,1.3-0.3,1.7,0.4
			c0.4,0.1-0.2-0.5,0.3-0.5c0.1,0.3,0.1,0.7,0,1c-0.5-0.3-0.1,0.1-0.4,0.3c-0.1-0.3-0.1-0.6-0.2-0.8c-0.4,0.2,0.3,0.9-0.6,0.7
			c0,0.4,0.6,0.1,0.5,0.6c0.5-0.1,0.6-0.3,0.9-0.6c0,0.4-0.1,0.9,0,1.2c-0.3,0.2-0.7-0.8-1,0.3c-0.2-0.2-0.2-0.4,0-0.7
			c-0.3,0.1-0.5,0.3-0.6-0.2c-0.2,0.4,0.2,0.7,0.3,1c-0.4-0.4-0.8-1-1.9-1.1c0.2-0.3,0.5-0.1,0.7-0.3c-0.4-0.1-0.9,0.2-0.6-0.5
			c-0.4-0.3-0.4,0.4-0.8-0.1c0.2-0.1,0.3-0.2,0-0.3c0.2-0.3,0.6,0.3,0.9,0.3c0-0.3-0.8-0.6-0.1-0.8c0,0.6,0.4,0.3,0.8,0.5
			C4097.4,110.6,4097.4,110.4,4097.3,110.2z"/>
		<path fill-rule="evenodd" clip-rule="evenodd" fill="#649981" d="M4110.2,116.7c0.2-0.2,0.4,0.4,0.6-0.2c0.1,0.2,0.4,0.4,0.7,0.6
			c-0.2,0.3-0.6,0-1-0.2c-0.3,0.8-0.8,1.2-1.4,1c-0.1-0.4,0.2-0.2,0.4-0.5c-0.4-0.4-0.6,0.3-1,0.2c0,0.3,0,0.6,0.4,0.8
			c-0.1,0.3-0.4,0-0.5,0.3c-0.1-0.3,0.2-0.8-0.3-0.4c0-0.2,0.2-0.6,0.3-1.1c-0.3,0-0.7-0.2-0.8,0.2c-0.1-0.2-0.1-0.4,0-0.7
			c-0.3-0.1-0.5,0.1-0.8-0.1c0-1,1.2-0.3,1.1-0.1c-0.1,0.2,0.3,0.3,0.5,0.4c-0.3-0.2,0.1-0.6,0-0.9c0.1-0.2,0.7,0.4,0.5,0.6
			c0.5,0.1,0.3-0.6-0.2-0.6c0.3-0.2,0.6-0.2,1,0c-0.1,0.2-0.3,0.4-0.4,0.7c0.4,0,0.3,0.1,0.9,0.3
			C4110.3,117,4110.3,116.9,4110.2,116.7z"/>
		<path fill-rule="evenodd" clip-rule="evenodd" fill="#649981" d="M4115.6,120.6c-0.1,0.4-0.4,0.1-0.6,0.4c0-0.5-0.3-0.4-0.6-0.2
			c-0.2-0.6,0.8-0.4,0.9,0c0.3-0.4-0.3-0.7-0.3-1c-0.5-0.1,0.2,0.4-0.2,0.6c-0.3-0.5-0.2-0.4-0.7,0c-0.1-0.1,0-0.2,0-0.3
			c-0.2-0.1-0.4-0.1-0.6,0c0.4,0.4,0.1,0.9,0.7,0.9c-0.3,0.2-0.5,0.5-0.9,0.4c0.1-0.2,0.4-0.5,0.2-0.6c-0.3-0.1,0,0.3-0.4,0.3
			c0.1,0.4,0.1,0.7,0.7,0.7c-0.1,0.1-0.2,0.3-0.2,0.4c-0.4-0.2-0.4-0.7-1.1-0.8c-0.1-0.5,0.2-0.5-0.1-0.8c0.6-0.2,0.3-1.1,1.3-0.8
			c0.4-0.3-0.4-0.3,0-0.7c0.5,0.4,0.9,0.4,1.1-0.1c0.1,0.7,0.5,0.1,0.7,0.6C4115.3,120.1,4115.3,120,4115.6,120.6z"/>
		<path fill-rule="evenodd" clip-rule="evenodd" fill="#649981" d="M4118.2,124.6c0.2,0.1,0.4,0.3,0.5,0.4c0.3,0,1.1-1,0.5-0.9
			c0.4,0.4-0.7,0.5-0.6,0c0.8,0.3-0.1-0.4,0-0.6c0.5,0.2,0.5-0.2,0.9,0.3c-0.1-0.7-0.4-1.2-0.8-0.5c-0.4-0.6,0.6-0.9,0.3-1.4
			c-0.2,0.3-0.5,0.1-0.7,0.3c0.1,0.1,0.4,0.2,0.3,0.4c-0.5-0.4-0.7-0.1-1,0c0.6,0.3-0.1,0.4-0.2,0.4c0.4,0.4-0.2,0.3,0,0.7
			c-0.2-0.1-0.3-0.2-0.3-0.4c0,0.4-0.7,0.5-0.4,0.7c0.1-0.1,0.3,0,0.3,0.2c-0.2,0-0.4,0-0.6,0c0.1,0.1,0.1,0.2,0,0.3
			c0.2,0.4,0.7-0.4,0.6,0.2c-0.3,0.1-1,0.3-0.9,0.6c0.4,0,0.5-0.2,0.7-0.3c0.1,0.1,0,0.3-0.1,0.5c0.5-0.1,0.6,0.2,1,0.2
			C4116.9,124.9,4118.8,125.3,4118.2,124.6z M4118,124.3c-0.2-0.2-0.2-0.4-0.4-0.6C4117.9,123.3,4118.2,123.9,4118,124.3z"/>
		<path fill-rule="evenodd" clip-rule="evenodd" fill="#649981" d="M4104.7,114.6c-0.3,0-0.5,0.3-0.8,0.4
			C4103.5,114.6,4104.3,114.4,4104.7,114.6z"/>
		<path fill-rule="evenodd" clip-rule="evenodd" fill="#649981" d="M4124,125.5c-0.1,0.2,0.1,0.1,0.1,0.1c0.3,0.4-0.4,0.3-0.4,0.5
			c0.3,0.2,0.4-0.1,0.7,0.2c-0.3,0.5-0.1,0.3,0.3,0.5c-0.2,0.1-0.4,0.3-0.2,0.4c-0.3,0.3-0.4-0.3-0.7-0.4c0.2,0.3-0.1,0.6,0.4,0.8
			c-0.8,0-1.2,0.4-1.3,0.4c-0.5,0.3-0.1-0.5-0.4-0.6c0.3-0.1,0.6,0.1,0.9,0c0.2-0.5-0.4-0.7-0.6-1.1c0.2-0.4,0.6-0.4,0.7-1
			c0.2,0.2,0.4,0,0.6,0.2C4124.1,125.6,4124.1,125.6,4124,125.5z"/>
		<path fill-rule="evenodd" clip-rule="evenodd" fill="#649981" d="M4102.4,114.7c0.2-0.3,0.2-0.6,0.1-0.8c-0.2,0.4-0.5,0.2-0.8,0.1
			c-0.2,0.2-0.3,0.9-0.6,0.5c-0.1,0.6,0.4,0.7-0.4,0.7c0.4,0.7,0.2,0.3,0.7,0.2c0.1,0.4-0.1,0.2-0.3,0.5c0.1,0.1,0.3,0.2,0.4,0.2
			c0.2-0.2,0-0.4,0.2-0.6c0.1,0.4,0.3,0.2,0.6,0.2c-0.5,0.2-0.5,0.8-0.4,0.5c0.4-0.3,0.4,0.3,0.5,0.4c0.3-0.7,0.7-0.6,0.9-0.6
			c-0.2-0.3,0.7-0.7,0.3-1.2c-0.4,0.8-0.3-0.8-0.9-0.3c0.3,0,0.3,0.7,0,0.6C4102.8,114.7,4102.7,114.6,4102.4,114.7z M4101.8,114.5
			c0.2,0.3,0.6,0.2,0.7,0.7C4102.2,115.4,4101.5,114.8,4101.8,114.5z"/>
		<path fill-rule="evenodd" clip-rule="evenodd" fill="#649981" d="M4106.5,116.8c0.2-0.1,0.4,0.1,0.9,0.3c-0.1,0.3,0.3,0.4,0,0.7
			c0.2,0,0.3-0.1,0.5-0.3c0.1,0.1,0.1,0.3,0.3,0.2c0.2,0.4-0.7,0-0.8,0.4c-0.2-0.1-0.4-0.3-0.7-0.4c0.3-0.1,0.4-0.5,0.6,0
			c0.2-0.3-0.3-0.4-0.2-0.6C4106.8,117.3,4106.7,117.3,4106.5,116.8z"/>
		<path fill-rule="evenodd" clip-rule="evenodd" fill="#649981" d="M4098,116.2c-0.1,0.1-0.2,0.4-0.4,0.3c-0.4-0.2-0.5-0.8-1.3-0.9
			c0.3-0.4,0.4-0.6,0.3-1.1c-0.1,0.1-0.2,0.4-0.4,0.3c0.3-0.6-0.3,0-0.5-0.3c0.1-0.2,0.2-0.4,0.3-0.5c-0.4,0.2-0.4,0.1-1,0.2
			c0.1,0.2,0.6,0.8,0.1,0.8c0-0.1,0.1-0.3,0-0.3c-0.1,0.1-0.3,0-0.5-0.1c0.1-0.2,0.2-0.4,0.1-0.5c-0.6-0.1-1.4,0.2-1.4,1
			c-0.1-0.3-0.2-0.3-0.5-0.1c0.2,0.1-0.1,0.4-0.2,0.6c0.9,0.5,1.5,1,1.8,1.9c0.3-0.8,0.8,0.2,0.8-0.4c0.1,0.2,0.3,0.4,0.6,0.5
			c-0.3,0.1-0.5,0.4-0.2,0.6c0.1-0.1,0.2,0,0.3,0.2c0.4-0.2,0.1-0.6,0.5-0.6c0.1,0.1,0.2,0.3,0,0.6c0.8,0.5,0.3-0.3,1.3,0.2
			c0.5-0.3,1.3-1,1.8-0.4c-0.2-0.2,0.1-1.2,0.5-1.3c-0.1,0.2-0.2,0.4-0.1,0.5c0.2-0.1,0.4-0.3,0.5-0.6c-0.5-0.3-0.9,0.1-1.3,0.1
			c-0.4-0.6,0-0.4-0.5-1c-0.2,0.4-0.6,0.2-0.7,0C4097.9,116.2,4097.4,116.2,4098,116.2z M4098.6,116.1c0,0.4,0.8,0.6,0.2,1.2
			c0-0.6-0.5-0.5-0.9-0.5C4098,116.2,4098.4,116.2,4098.6,116.1z M4095.7,115.6c-0.1,0.5-0.4,1-0.7,0c0.1,0.4,0,0.8,0.5,1
			c0.5,0.2-1-0.4-0.8,0.4c-0.2-0.5-0.2-1,0-1.6c0.5-0.2,0.6,0.3,1.1-0.1c0.1,0.1,0.1,0.2,0.2,0.3c0,0.1-0.1,0.2-0.2,0.3
			C4095.7,115.9,4095.6,115.8,4095.7,115.6z"/>
		<path fill-rule="evenodd" clip-rule="evenodd" fill="#649981" d="M4119.9,129c-0.1,0.5,0,0.3-0.4,0.5c-0.2,0.3,0.4,0.3,0.6,0.5
			c0-1,1.5,0,2-0.7c0.3,0.2,0.5,0.5,0.7,0.7c-0.2,0-0.9,0.3-0.3,0.5c0.1-0.1,0-0.2-0.1-0.2c0.6,0.4-0.6,0.3-1-0.4
			c-0.1,0.2-0.2,0.4-0.1,0.5c0.2,0.1,0-0.3,0.3-0.2c0.5,0.2-0.4,0.6,0.2,1c-0.2-0.1-0.7,0-0.6,0.4c-0.5,0.5-0.1-0.7-0.4-0.2
			c-0.3-0.3,0.3-0.1,0.4-0.3c-0.3,0.1-1.3,0-1.1,0.4c-0.5,0.2-0.2-0.3,0.1-0.5c-0.3,0-0.6,0-0.8,0.4c-0.8-0.3-0.7-0.4-1.2-1.2
			c-0.3-0.6,0.2,0.5,0.5,0.1c0.1,0.2-0.3,0.3,0.4,0.6c-0.1-0.6-0.2-0.6,0.4-1c-0.6,0.1-0.4-0.1-0.6-0.2c-0.1-0.1,0.1-0.3-0.1-0.4
			c0.4-0.4,0.3,0.1,0.7,0.2c-0.4-0.6,0.5-0.1,0.7-0.7c0.2,0.1,0.4,0.2,0.5,0.3C4120.3,129.4,4120.1,129.1,4119.9,129z"/>
		<path fill-rule="evenodd" clip-rule="evenodd" fill="#649981" d="M4112.2,126.3c-0.2-0.3,0.7,0.1,0.5-0.6c0.1,0.3,0.8,0.5,0.7,0.9
			C4113.7,127.1,4112.6,125.9,4112.2,126.3z"/>
		<path fill-rule="evenodd" clip-rule="evenodd" fill="#649981" d="M4114.7,126.7c-0.5-0.5,0.3-0.8-0.8-1c0.3,0.1,0.3,1,0,0.9
			c0-0.3,0.2-0.7-0.2-0.8c-0.4,0.6,0.4,0.5,0,1.2c-0.1-0.1-0.2,0-0.3,0c-0.2-0.6-1.4-0.6-1.3-0.2c0.1-0.1,0.4-0.2,0.3,0
			c-0.3-0.1-0.5,0.2-0.6,0.5c0.2,0.8,1.5,0.6,1,1.3c0.6,0.1,0.8-1,1.5-0.4c0.1-0.2,0.3-0.5,0.2-0.6c-0.1,0.3-0.5-0.3-0.5-0.4
			C4114.1,127,4114.3,126.8,4114.7,126.7z M4112.7,126.8c0.3,0.2,0.1,0.2,0,0.3c0.3,0.1,0.5,0.2,0.7,0c0.3,0.3,0,0.3-0.2,0.6
			c0.5,0.6-0.3-0.2-0.7-0.4C4112.7,127.2,4112.5,127,4112.7,126.8z"/>
		<path fill-rule="evenodd" clip-rule="evenodd" fill="#649981" d="M4114.7,126.3c0.4-0.2,0.4,0,0.7,0.2c-0.2,0.3-0.4,0.3-0.7,0.3
			c0,0.1,0.2,0.7,0.3,0.4c0.3,0.2-0.3,0.1-0.3,0.5c-0.1,0.6,0.2-1.2-0.5-0.4C4114,126.6,4115.5,127,4114.7,126.3z"/>
		<path fill-rule="evenodd" clip-rule="evenodd" fill="#649981" d="M4107.5,122.3c-0.2-0.4,0.2,0.1,0.4,0.2c-0.4,0,0,0.6-0.5,0.3
			c-0.1,0.1,0.1,0.2,0.2,0.3c0.2,0.1,0.3-0.2,0.4-0.3c0.2,0.6,1.1,0.5,1,1.3c0.5,0.1-0.2-0.4,0.2-0.6c0.3,0.3,0.4,0.6,0.2,1
			c-0.3-0.1-0.5-0.2-0.7,0c0.1,0.7,0.6-0.2,1,0.2c-0.5,0-0.5,0.6-0.1,0.5c0.4,0.2-0.5,0.2,0.1,0.4c-0.7,0.2-0.6,0.6-1.7-0.4
			c0.1-0.1,0.4-0.1,0.5-0.3c0.1-0.9-1.2-0.1-1.7-0.8c-0.2,0.2,0.4,0.8,0.6,0.5c0.1-0.3-0.1,0.3-0.2,0.7c0.8-0.1-0.3,0.2,0,0.6
			c0.2,0.1,0.3-0.3,0.4-0.5c0.2,0.1,0.4,0.2,0.5,0.3c-0.1,0.3-0.6,0.7-0.3,0.9c-0.5,0-0.9-0.4-1.1-0.9c-0.2,0.4,0.3,0.5-0.2,1
			c-0.1-0.4-0.5-0.3-0.8-0.5c0.1-0.1,0.3-0.1,0.4-0.3c0.2,0.1,0.2,0.3,0.3,0.4c0-0.1-0.1-0.2,0-0.3c-0.5-0.2-0.8,0-1.1-0.5
			c0.2-0.2,0.5,0.2,0.6-0.2c-0.2-0.2-0.5,0-0.5-0.6c0.2-0.1,0.3-0.2,0.6,0c0.1-0.5-0.1-0.3-0.5-0.4c0.5-0.4,0.7-0.6,0.4-1.4
			c0.4,0.2,0.7,0.5,0.4,0.9c0.4-0.3,0.5-0.7,0.7-1.2c0.3,0,0.4,0,0.5,0.3C4107.6,122.5,4107.6,122.3,4107.5,122.3z"/>
		<path fill-rule="evenodd" clip-rule="evenodd" fill="#649981" d="M4108.7,125.8c0.3,0.2-0.4,0.2-0.4,0.7c-0.5-0.1,0-0.5,0.1-0.8
			C4108.5,125.8,4108.6,125.9,4108.7,125.8z"/>
		<path fill-rule="evenodd" clip-rule="evenodd" fill="#649981" d="M4103.5,120.8c-0.1-0.1-0.2,0-0.3,0c-0.3-1.2-0.9,0.8-1.6,0.3
			c-0.1,0.2-0.2,0.4-0.3,0.5c0.4,0.9,1.7,0.8,2.6,0.4c-0.2-0.4-0.6,0.4-0.5-0.1c1.3,0,0.3-0.9,1.6-0.9c-0.6-0.4-0.9,0.1-1.4-0.1
			c0.2-0.2,0.2-0.9-0.2-0.6C4103.6,120.5,4103.6,120.6,4103.5,120.8z M4103.3,121.5c0.3,0.5-1,0.2-1-0.2
			C4102.7,121.1,4102.9,121.9,4103.3,121.5z"/>
		<path fill-rule="evenodd" clip-rule="evenodd" fill="#649981" d="M4124.8,103.9c0.6,0.2,0.1,0.9-0.2,1c-0.3-0.4-0.4-0.2-0.6-0.5
			C4124.3,104.2,4124.6,104.5,4124.8,103.9z"/>
		<path fill-rule="evenodd" clip-rule="evenodd" fill="#649981" d="M4124.1,109c0.1,0.5,0.8-0.5,1.2,0c-0.3,0.5-0.6,0.6-0.8,1.1
			c-0.3,0-0.6-0.2-0.7,0.3c-1.3-0.1-1.2-0.9-1.6-0.7c-0.1-0.7,0.8-0.4,0.5-1.1c0.5,0.3,0.1-0.1,0.4-0.3c0.4,0.4,0.6,0.1,1,0.4
			c-0.1-0.3,0.1-0.2,0.2-0.4c0.1,0.1,0,0.2,0,0.3c0.3,0.1,0.4-0.6,0.6-0.5C4125.4,108.6,4124.4,108.8,4124.1,109z"/>
	</g>
	<g>
		
			<rect x="4067.3" y="123.9" transform="matrix(-0.8723 -0.4891 0.4891 -0.8723 7579.5908 2260.3884)" fill="none" width="35.5" height="32.7"/>
		<path fill-rule="evenodd" clip-rule="evenodd" fill="#649981" d="M4089.7,129.8c-0.1,0.2-1-0.2-0.6-0.5c0.2,0.1,0.2,0.3,0.3,0.4
			c0.1-0.3-0.3-0.4,0-0.7C4089.8,129.2,4089.6,129.5,4089.7,129.8z"/>
		<path fill-rule="evenodd" clip-rule="evenodd" fill="#649981" d="M4104.6,138.5c-0.1-0.2-0.3-0.4-0.1-0.8
			C4104.9,137.9,4104.8,138.1,4104.6,138.5z"/>
		<path fill-rule="evenodd" clip-rule="evenodd" fill="#649981" d="M4090,145.3c0.2,0.5-0.9,0-1.2,0
			C4089.2,144.9,4089.9,145.3,4090,145.3z"/>
		<path fill-rule="evenodd" clip-rule="evenodd" fill="#649981" d="M4081.3,145.5c0.3,0.4-0.4,0.4-0.5,0.8
			C4080.5,145.7,4081,145.9,4081.3,145.5z"/>
		<path fill-rule="evenodd" clip-rule="evenodd" fill="#649981" d="M4067.8,143.4c0.1,0.1,0.1,0.3,0.3,0.2c0.3,0.3-0.4,0.5-0.6,0.2
			C4067.6,143.7,4067.7,143.6,4067.8,143.4z"/>
		<path fill-rule="evenodd" clip-rule="evenodd" fill="#649981" d="M4063.6,144.4c0.3-0.2,0.9,0.3,0.5,0.6
			C4063.6,144.9,4063.8,144.6,4063.6,144.4z"/>
		<path fill-rule="evenodd" clip-rule="evenodd" fill="#649981" d="M4081.4,120.7c-0.6-0.5-0.5-0.9-0.7-1.6
			c-0.4,0.9-0.2-0.3-0.9-0.3c-1.2,0.5-1.2,0.2-2.1,1.8c0.4,0.4,0.4-0.3,0.8-0.1c-0.1,0.2-0.3,0.4-0.4,0.7c0.5,0.4,1,0.7,1.6,0.7
			c-0.1-0.1-0.2-0.3,0-0.6c0.2,0.1,0.1,0.3,0.3,0.5C4081,121.6,4080.3,121.6,4081.4,120.7z M4079.6,119.9c0.7,0.2-0.2,0.8,0.1,1.1
			C4079.3,121.1,4079,120.1,4079.6,119.9z"/>
		<path fill-rule="evenodd" clip-rule="evenodd" fill="#649981" d="M4092.1,126.5c0,0.2,0.5,0.3,0.2,0.6c-0.2-0.1-0.2-0.3-0.3-0.4
			c-0.3,0.4,0.2,0.5-0.1,0.8c-0.3-0.4-0.6,0-0.9,0.4c-0.1,0.3,0.1,0.4,0.4,0.6c-0.3,0.1-0.3,0.4-0.2,0.6c-0.1,0.1-0.2,0-0.1-0.1
			c-0.4,0.1-0.6,0.9-1,0.8c-0.2-0.4-0.1-0.9-0.4-1.3c-0.4,0.1-0.6,0.5-1.3,0.1c0.3-0.2,0.4-0.9,0-0.6c-0.4-0.3,0.9-0.3,0.4,0.2
			c0.6,0,0-0.5,0-0.7c-0.2-0.1-0.4-0.1-0.6,0c-0.3-1.1,0.3-0.5,0.4-1.4c0.4,0.2,0.4-0.1,0.5,0.3c-0.1-0.7,0.8-0.6,1.1-1
			c0.7,0.4,0.3,0.7,1,0.4c0.2,0.2-0.1,0.3-0.2,0.4C4091.6,126.4,4091.7,127.1,4092.1,126.5z"/>
		<path fill-rule="evenodd" clip-rule="evenodd" fill="#649981" d="M4095.2,131.8c-0.2-0.4-0.7-0.1-0.7-0.6c0.7,0.2,1.4-0.1,1.9,0
			c0.2-0.3,0.4-0.6,0.5-0.9c-0.3-0.1-0.2-0.3,0-0.3c-0.6-0.3-0.1-0.3-0.1-0.8c-0.6,0.5-0.6-0.2-1-0.2c0.1,0.1-1.2,0.2-1.4,0.1
			c-0.2,0.2,0,0.4,0,0.6c-0.4-0.2-0.4,0.8-1.1,0.6c0.1,0.3,0.5,0.4,0,0.6c0.4,0.4,0.3,0.1,0.2,0.6c-0.2-0.1-0.2-0.4-0.3,0
			c-0.1,0.3,0.8,0.1,0.1,0.4c0.3,0.1,0.2,0.4,0.4,0.2c-0.4-0.2,0.8-0.5,0.3,0c0.2,0.2,0.4,0,0.6,0.2
			C4094.8,132,4095,131.8,4095.2,131.8z M4095.1,130c0.3-0.2-0.3,0.6-0.4,0.7c-0.1-0.1-0.1-0.3-0.3-0.4
			C4094.6,130.2,4094.9,130.2,4095.1,130z"/>
		<path fill-rule="evenodd" clip-rule="evenodd" fill="#649981" d="M4084.1,126.3c-0.4-0.2,0-0.6,0-0.9c-0.3,0-0.7,0.2-0.5-0.3
			c-0.4,0.2-0.6,0-0.6,0.5c-0.2-0.9,0.2-1,0.2-1.9c0.1-0.3,0.3-0.4,0.6-0.2c-0.6-0.2-0.2-0.8,0.4-1c0.9,0.4,1.3,1.3,1,1.6
			c0.2,0,0.4,0,0.7,0c0-0.2-0.9-0.3-0.4-0.9c0,0.5,0.3,0.6,0.6,0c0.5,0.1-0.1,0.6,0.5,0.6c-0.3,0.3-0.5,0.7-0.9,0.7
			c-0.1,0.3,0.3,0,0.3,0.4c-0.2,0.4-1,0.5-0.7,1C4084.9,126.1,4084.1,125.5,4084.1,126.3z"/>
		<path fill-rule="evenodd" clip-rule="evenodd" fill="#649981" d="M4104.2,136.7c0.1-0.1,0.2,0,0.1,0.1c0.4,0.1,0.4-0.6,0.2-0.7
			c0.7-0.1,1.2-0.5,2-0.1c-0.3,0.5,0.2,0.9,0.7,0.9c-0.7,0.6-2.3,0.5-2.2,1.4c-0.3-0.2-0.1-1.1-0.7-0.6
			C4104.4,137.3,4104.6,137.1,4104.2,136.7z"/>
		<path fill-rule="evenodd" clip-rule="evenodd" fill="#649981" d="M4099.9,134.4c-0.5,0.1,0.1,1.1-0.6,1.1
			c-0.4-0.3,0.6-0.3,0.2-0.6c-0.3,0-0.1,0.2-0.4,0.5c-0.1-0.2-0.1-0.5-0.3-0.7c0.2-0.2,0.3,0.1,0.4,0.2c0.1-0.1,0.1-0.2,0.2-0.3
			c0.1-0.3-0.3,0-0.3-0.4c0.6-0.4-0.1-0.3,0.3-0.9c0.2,0.1,0.2,0.3,0.3,0.4c0-0.4-0.1-0.6,0.3-0.9c0.5,0.5,1.3,0.2,1.8,0.3
			c0.3,0.2-0.2,0.6,0.1,0.8c-0.4,0-0.4,0.1-0.5,0.6c-0.3-0.1-0.2-0.3-0.5-0.4c-0.3,0.3,0.1,0.4,0.2,0.6c-0.1,0.1-0.3,0.1-0.4,0.3
			c-0.1-0.2-0.2-0.3-0.5-0.4c-0.2,0.3,0,0.4,0.3,0.5C4100,135.3,4099.7,134.6,4099.9,134.4z"/>
		<path fill-rule="evenodd" clip-rule="evenodd" fill="#649981" d="M4091.1,128.3c0.1-0.2,0.4,0.1,0.6,0.2c-0.5,0.4,0.3,0.5-0.2,1
			C4091.3,129,4091.8,128.5,4091.1,128.3z"/>
		<path fill-rule="evenodd" clip-rule="evenodd" fill="#649981" d="M4078.4,126.1c-0.4,0.4,0.2,0.5,0.1,0.8
			c-0.8-0.3-0.7,0.5-1.3,0.7c0.6,0.3,0.3,0.3,0,0.3c0.3,0.1,0.5,0.3,0.6,0.5c0.4,0,0-0.4,0.4-0.3c0.1,0.1,0.2,0.1,0.3,0.2
			c-0.1,0.2-0.2,0.3-0.4,0.3c0.6,0.4,0.9,0.2,1.1,0.3c-0.2-0.4-0.6-0.7-0.4-1.3c0.3,0.3,0,0.8,0.6,1.1c0.6-0.3,0.4-0.6,1-0.8
			c-0.1-0.4-0.6-0.4-0.9-0.5c0.1-0.1,0-0.2,0-0.3c0.2-0.1,0.4-0.1,0.6-0.2c-0.1-0.1,0-0.2,0.2-0.3
			C4079.3,126.7,4079.4,126.1,4078.4,126.1z M4079.5,127.6c0.3,0.1-0.2,0.5-0.2,0.7C4079,128.1,4079.2,127.6,4079.5,127.6z"/>
		<path fill-rule="evenodd" clip-rule="evenodd" fill="#649981" d="M4089.7,132.4c0.3,0.2-0.4,0.3-0.4,0.5c0,0.2,0.3,0.8,0.6,0.5
			c0.1-0.4-0.5,0-0.5-0.4c0.2-0.1,0.4,0,0.5-0.3c0.1,0.1,0.1,0.4,0.3,0.5c0.3-0.1,0.7,0,0.9-0.6c0.1,0.2,0,0.4,0.3,0.5
			c-0.9,1.2-0.4,1-1.1,1.9c-0.1-0.1,0-0.3,0.1-0.5c-0.4,0-0.4,0.7-0.5,0.9c0-0.7-1.1-0.1-1.3-0.8c0.4,0.1,0.2,0,0.1-0.5
			c-0.5-0.1-0.3,0.1-0.4,0.5c-0.2-0.3-0.2-0.7,0.1-0.8c-0.2,0-0.4,0-0.5,0.3c-0.3-0.2,0-0.5-0.4-0.6c0.1-0.1,0.5,0,0.3-0.2
			c0.1-0.1,0.7,0.1,0.4-0.3c0.2-0.2,0.1,0.1,0.3,0.2c0-0.1,0.6-0.5,0.5-0.8c0.3-0.4,0.3,0.6,0.6,0
			C4089.3,132.6,4089.5,132.6,4089.7,132.4z"/>
		<path fill-rule="evenodd" clip-rule="evenodd" fill="#649981" d="M4087.9,134.4c-0.1,0.2-0.4,0.5-0.2,0.6c0.3,0.1-0.5-0.2-0.7-0.6
			C4087.2,134.2,4087.5,134,4087.9,134.4z"/>
		<path fill-rule="evenodd" clip-rule="evenodd" fill="#649981" d="M4085.3,129.9c0,0.3,0.2,0.9-0.2,1c0.1,0.1,0.7-0.1,0.4-0.3
			c0.9,0.2-0.6,0.7,0,1.2c-0.2,0.2-0.3-0.1-0.4-0.2c0,0.5,0,0.8-0.6,0.7c0.1,0.2-0.1,0.4,0,0.6c0.1,0.5-0.3-0.4-0.6-0.5
			c-0.4,0.3,0.1-0.4,0.3,0c0.1-0.2-0.3-0.4-0.4-0.2c0.6-0.5-0.1-1-0.4-1.8c0.2-0.4,0.6-0.1,0.8-0.4c0,0.2,0.5,0.3,0.2,0.6
			c0.5,0.1,0-0.4,0.3-0.5c0.5,0.1-0.1,0.5,0.4,0.6C4085.1,130.3,4085.1,130.1,4085.3,129.9z"/>
		<path fill-rule="evenodd" clip-rule="evenodd" fill="#649981" d="M4083.4,130.6c0.1,0.1,0,0.2-0.1,0.1c-0.1,0.3,0.4,0.3,0.4,0.6
			c-0.2,0.3-0.5,0.1-0.8-0.1c0.1-0.1,0.2,0,0.3,0c0.1-0.2-0.2-0.2-0.3-0.4C4083.1,130.7,4083.3,130.8,4083.4,130.6z"/>
		<path fill-rule="evenodd" clip-rule="evenodd" fill="#649981" d="M4100.1,141.6c-0.2-0.1-0.2,0.7-0.7,0.3c0.2-0.3,0.5-0.3,0.6-0.7
			c-0.2-0.2-0.4,0-0.6-0.2c-0.3,0.3,0,0.5-0.2,0.7c-0.4-0.2-0.2-0.5-0.1-0.8c0.3-0.1,0.6-0.1,0.8-0.4c-0.1-0.1-0.2,0.1-0.3,0.2
			c-0.1-0.1,0-0.2,0-0.3c-0.1,0-0.3,0-0.5-0.1c0.1-0.2,0.3-0.2,0.4-0.3c0.2-0.4-0.3,0.1-0.5-0.3c-0.5,0.1,0.3-0.2,0.6,0
			c0.1-0.3-0.6-0.4-0.1-0.8c0.1,0,0.1,0.1,0.1,0.2c0.8-0.6,1.1,0.5,1.5-0.4c0.1,0.2,0,0.4,0.3,0.5c-0.2,0.3-0.5,0-0.6,0.4
			c0.3,0.7,1.7-0.2,1.8,0.8c-0.1,0.3-0.5-0.1-0.6,0.2c-0.1,0.2,0.2,0,0.4,0.2c-0.1,0.8-0.5,0.4-0.9,1.3c0-0.6-0.7,0.3-0.3-0.4
			c-0.2-0.2-0.5,0.5-0.1,0.5c-0.1,0.1-0.3-0.1-0.4,0.1C4100.4,141.7,4100,142.1,4100.1,141.6z"/>
		<path fill-rule="evenodd" clip-rule="evenodd" fill="#649981" d="M4099.1,140.7c-0.2,0.2-0.4,0.5-0.7,0.3c0.4-0.4-0.1-0.6,0.2-1
			C4099.3,139.9,4098.1,140.4,4099.1,140.7z"/>
		<path fill-rule="evenodd" clip-rule="evenodd" fill="#649981" d="M4074.7,128.9c-0.1-0.3,0.2-0.7,0.2-1c0.1,0,0.2,0,0.1-0.1
			c-0.3,0.4-0.7,0.3-1,0.3c0,0.4-0.2,0.4-0.2,1c-0.2-0.1-0.1-0.3-0.3-0.5c-0.1,0.9-0.8,0.7-0.5,1.3c-0.9-0.5-0.1,0.1-0.8,0.2
			c0.3,0.4-0.2,0.3,0,0.7c0.3,0.5,1.1,0.4,1.7,1c0.4-0.3-0.4-0.3,0-0.7c0.4,0.2,0.4-0.1,0.5,0.3c0.2-0.2,0-0.4,0-0.6
			c0.2,0.1,0.3,0.2,0.3,0.4c0.2-0.5,0.4-1,0.1-1.4c0.4,0.2,0.1,0.4,0.5,0.3c0.1-0.9,0.3-0.7,0.3-1.6c0.3,0.2,0.3,0.5,0.6,0.2
			c-0.2-0.1-0.1-0.3-0.3-0.5c-0.2,0.1-0.8,0.4-0.8,0.1c0.1,0,0.2,0,0.1-0.1C4074.8,128.2,4075.1,129,4074.7,128.9z M4073,131.1
			c0.1-0.3,0.2-0.2,0.4-0.1c0.1-0.1,0-0.2-0.1-0.2C4073.9,130.4,4073.4,131.7,4073,131.1z"/>
		<path fill-rule="evenodd" clip-rule="evenodd" fill="#649981" d="M4085.9,135c-0.1,0.1-0.2,0-0.3,0c-0.1,0.4,0.6,0.2,0.6-0.2
			c0.4-0.4-0.3,0.9,0.3,0.4c0.1,0.2,0,0.4,0.3,0.5c-0.1,0.1-0.3,0.1-0.2,0.3c-0.1,0.1-0.2,0-0.1-0.1c-0.3,0.3-0.7,0.1-1,0.3
			c0.1,0.1,0.2,0.5,0.3,0.4c-0.2,0.9-0.9,1-1.5,1.4c-0.1-0.3-0.3-0.6-0.8-0.8c0.2-0.1,0.4,0,0.5-0.3c-0.4-0.3-0.5,0.5-1,0
			c0.3-0.3,1.1-0.1,0.4-0.7c0.7,0.2,0.5,0.2,1.2-0.2c-0.4-0.4-0.5,0.4-0.9,0c0.3-0.4,0.9-0.1,1.3-0.1
			C4084.1,135.4,4085.3,135,4085.9,135z"/>
		<path fill-rule="evenodd" clip-rule="evenodd" fill="#649981" d="M4081.1,132.9c-0.4-0.2-0.7,0-1,0c0.1-0.7-1.2-1.3-1.7-1
			c0.1,0.1,0,0.2-0.2,0.3c0.1,0.1,0.4,0.2,0.3,0.4c-0.5-0.2-0.9,0.2-1.3,0.5c0.7,0.3,0.3,1.3,0.4,1.1c0.5-0.2,0.5,0.3,1-0.2
			c0,0.1,0,0.2,0.2,0.3c0.4-0.5-0.5-0.6-0.7-0.4c0.4-0.2,0.2-0.5,0.4-0.5c0.4,0.5,0.7,1.1,0.6,1.4c0.4-0.4,0.2,0.3,0.3,0.4
			c0.6-0.5,1.3-0.1,0.9-1.1c0.2,0.1,0.3-0.1,0.5,0.1c0.3-0.5-0.5-0.9,0.3-0.9C4081.1,133.2,4081.1,133,4081.1,132.9z M4078.9,132.7
			c0.3,0,0.2,0.7,0.5,0.3c0.3,0.4-0.4,0.3-0.4,0.5C4079.1,133.2,4078.7,133,4078.9,132.7z"/>
		<path fill-rule="evenodd" clip-rule="evenodd" fill="#649981" d="M4095.5,142.5c0,0.2,0.4,0.4,0.7,0.2c0.4,0.1-0.4,0.6,0.2,0.6
			c-0.1,0.1-0.3,0.1-0.2,0.3c-0.2,0.2-0.1-0.1-0.4-0.2c0,0.6,0.2,0.5,0.6,0.9c-0.4,0.4-0.8,0.2-0.8,0.8c-0.1-0.6-0.7,0.1-0.8-0.5
			c-0.3,0.6-0.3,0.3-0.3,0c-0.3,0-0.1,0.2-0.4,0.5c-0.1-0.4,0-0.3-0.5-0.4c0.3-0.3,0-1-0.4-0.8c0.4-0.5,1-0.8,1-1.5
			c0.5-0.2,1,0,1.1-0.8C4095.5,141.7,4096.2,142.4,4095.5,142.5z"/>
		<path fill-rule="evenodd" clip-rule="evenodd" fill="#649981" d="M4090.5,140.1c0.1-0.1,0.2,0,0.1,0.1c0.4,0.2,0.6-0.2,1.1,0.3
			c-0.6,0.6-0.3,0.2-0.3,0.9c-0.4-0.3-0.7,0-0.8-0.5c-0.3-0.1,0,0.3-0.4,0.3c0.3,0.3,0.5,0,0.7,0.2c-0.3,0.5-0.9,0-1.2,0.6
			c0.2,0,0.3-0.2,0.6,0c-0.1,0.8-0.7-0.2-0.9,0.6c-0.3-0.7-1.5-0.3-1.3-0.2c-0.4-0.3,0.5-0.9,0.1-1.7c0.2-0.6,1.4,0,1.2-0.6
			c0.2-0.1,1.2-0.1,0.8,0.5c0.1,0,0.2-0.1,0.3,0C4090.6,140.3,4090.6,140.2,4090.5,140.1z"/>
		<path fill-rule="evenodd" clip-rule="evenodd" fill="#649981" d="M4101,146.8c0.2,0.1,0.3-0.3,0.4-0.5c-0.1,1-0.5,1-0.7,1.6
			c-0.2,0.3-0.3-0.3,0-0.6c-0.4,0.1-0.3,0.2-0.4-0.2c-0.2,0-1,0.5-0.4,0.7c-0.3,0.4-0.2-0.3-0.5-0.3c0.2-0.3,0.4-0.3,0.6-0.5
			c0-0.3-0.5-0.5-0.2-1c-0.5,0.2,0.3,1.5-0.8,1.1c0.1-0.1,0.2,0,0.3,0c0.1-0.4-1-0.4-0.8,0.1c-0.3,0.3,0-0.5-0.6-0.5
			c0.1-0.1,0.1-0.3,0-0.3c0.2,0.2,0.5,0.3,0.8,0.5c0.2-0.3-0.1-0.3,0-0.6c-0.1-0.1-0.2,0.1-0.3,0.2c-0.3-0.2,0-0.7,0.2-0.7
			c0.1,0.7,0.5-0.4,1.1-0.4c0.2,0.1,0.5,0.4,0.6,0.2c0.2,0.1-0.1,0.8,0.3,0.5C4100.7,146.2,4100.5,146.5,4101,146.8z"/>
		<path fill-rule="evenodd" clip-rule="evenodd" fill="#649981" d="M4083.6,143.8c0.2-0.1,0.5-0.1,0.8,0.1c-0.1-0.4,0.1-0.8-0.1-1.1
			c-0.4-0.2-0.5,0.5-1,0.2c0.2-0.3,0.2-0.1,0.3,0c0-0.6,0.3-0.7,0.7-0.7c0.1-0.2-0.2,0-0.4-0.2c0.1-0.3,1.2-0.3,0.9,0.3
			c0.5,0.1,0.2-0.3,0.6-0.4c-0.2,0-0.5,0-0.7-0.2c0.2-0.2,0.5,0.1,0.6-0.4c0.1,0.9,0.8-0.3,1.1,0.5c-0.2,0.1-0.4,0.1-0.6,0
			c0.2,0.6,0.6,0.5,1.1,0.9c-0.4,0.1-0.8,0.3-1.1,1c-0.7-0.3-1.6,0-1.1,0.6C4084.4,144.5,4084.3,144.1,4083.6,143.8z"/>
		<path fill-rule="evenodd" clip-rule="evenodd" fill="#649981" d="M4072.5,135.1c-0.1-0.7,0.4,0.2,0.9,0.3
			c-0.4-0.5,0.2-0.2,0.1-0.5c0.3-0.3,0.4,0.2,0.1,0.4c0.6-0.2,0.9,0.3,0.8,0.8c0.4,0,0.1-0.5,0.6-0.4c0,0.3,0,0.8,0.4,0.2
			c-0.2,1.3-1.1,1.3-1.8,2c-0.2-0.2-0.2-0.4-0.2-0.6c-0.5-0.1,0.2,0.4-0.2,0.6c-0.3-0.1-0.4-0.3-0.2-0.6c-0.2,0.4-0.5,0.4-1.1,0.4
			c-0.3-0.2-0.1-0.5,0.1-0.8c-0.2,0-0.3,0.2-0.6,0c0.3-0.1,0.3-0.2,0.1-0.5c0.1-0.2,1.1,0.8,1.8,0.6c0-0.2-0.3-0.7,0.2-0.4
			c-0.4-0.6-0.6-0.3-0.9-0.3c-0.1-0.5-0.7-0.1-1.4-0.6c0.2-0.5,0.7-0.1,1.1-0.1c0-0.2,0-0.7,0.4-0.3
			C4072.7,135.2,4072.6,134.9,4072.5,135.1z"/>
		<path fill-rule="evenodd" clip-rule="evenodd" fill="#649981" d="M4079.5,138.6c-0.1-0.3-0.6-0.4-0.9-0.3c0,0.2,0.4,0.8-0.1,0.8
			c0.1-0.7-0.5-0.7-1.1-0.8c0.2,0.1,0.2,0.3-0.1,0.1c-0.3,0.4,0,0.6,0,0.9c-0.2-0.1-0.4-0.3-0.7-0.4c-0.3,0.6,0.4,1-0.3,1.2
			c0.2,0.1,0.3,0.2,0.1,0.4c0.9,0.3,0.8,0.1,1.3,0.8c0.1-0.2,0.3,0,0.4-0.1c-0.2-0.1-0.3-0.3-0.3-0.5c0.4,0.4,0.6-0.2,1,0
			C4079,140,4078.5,138.7,4079.5,138.6z M4077,139.6c0.1,0.1,0,0.2,0,0.3c0.6,0.1,0.7,1,1,0.2c0.5,1-1,0.2-1.2,0.2
			C4076.7,140.1,4076.9,140,4077,139.6z"/>
		<path fill-rule="evenodd" clip-rule="evenodd" fill="#649981" d="M4091.9,147.9c-0.4-0.4-0.2-0.3-0.6-0.2c0.5-0.5,0.2-0.3,0.3-0.9
			c0.2,0.4,0.9,0.6,0.7,0c-0.5,0.2-0.1-0.2,0.2-0.3c-0.2-0.2-0.8-0.2-0.6-0.5c0.2,0.1,0.3-0.2,0.5-0.3c-0.5-0.9-1.2-0.2-1.9-0.2
			c0.2,0.2,0.4,0.3,0.4,0.6c-0.9-0.7-1.4-0.3-2.3-0.9c-0.3,0.3-0.5,0.6-0.4,1c0.2-0.2,0.3-0.1,0.2-0.4c0.2,0.4,0.8,0.1,0.7,0.4
			c-0.3,0.1-1.2-0.1-1,0.5c0.3-0.1-0.1,0.5-0.2,0.6c0.1-0.2,0.5,0,0.4,0.2c-0.2,0.1-0.9,0.3-0.6,0.7c0.1-0.3,0.3-0.4,0.6-0.2
			c0.2-0.2,0.2-0.8,0.5-0.6c-0.2,0.4-0.4,1.1-0.8,1.3c0.5,0.2,0.3-0.6,1-0.5c0.1,0.3,0.6,0.5,1,0.7c0.2-0.2,0-0.4,0-0.6
			C4091.1,149.1,4091.3,148.2,4091.9,147.9z M4090.4,148.7c-0.2-0.1,0.1-0.4,0.2-0.6c0.2,0.1,0.4,0.2,0.5,0.1
			C4091.4,148.7,4090.5,148.2,4090.4,148.7z M4089.9,146.8c0.2-0.4,0.4-0.3,0.8-0.1c-0.2,0.2,0,0.3-0.1,0.5c0.1,0.1,0.2-0.1,0.3-0.2
			c0.1,0.1,0.1,0.2,0.2,0.3c-0.1,0.1-0.1,0.2-0.2,0.3C4090.3,147.2,4090.5,146.8,4089.9,146.8z M4090.3,147.9
			c-0.2-0.1-0.3,0.3-0.4,0.5c-1.1-0.4-0.1-0.9-0.8-1.1c0.2-0.3,0.9,0.2,1.3,0.2c0.2,0.1-0.2,0.4,0,0.6
			C4090.4,148.1,4090.3,148,4090.3,147.9z"/>
		<path fill-rule="evenodd" clip-rule="evenodd" fill="#649981" d="M4093.5,150.2c0.1,0.1,0,0.3-0.1,0.5c0.5,0.4,1.3,0.6,1.2,0
			c0.5,0.1,0.6,0.2,0.7,0.6c0.1-0.1,0.1-0.2,0.2-0.3c0.1,0,0.2,0.1,0.2-0.1c-0.2-0.1-0.3-0.3-0.3-0.5c0.7,0.4,0.1,0,0.4-0.3
			c0.3-0.1,0.5,0.4,1,0.2c-0.1-0.1-0.3-0.2-0.2-0.3c0.1,0,0.2,0.1,0.2-0.1c-0.8-0.3-0.1-1-0.2-1.2c-0.4-0.2-0.8-0.1-1.1-0.5
			c-0.3,0.3-0.6,0.6-0.9,0.7c0.1-0.1-0.1-0.2-0.2,0.1c0.4,0.2,1,0.4,0.8,0.8c-0.5-0.5-0.6-0.3-0.8-0.1c-0.1-0.1-0.3-0.2-0.2-0.3
			c0.1,0.1,0.2-0.1-0.1-0.2c-0.1,0.2-0.3,0.4-0.4,0.7c0.2,0.2,0.5,0,0.4,0.2C4093.8,150.1,4093.6,150.1,4093.5,150.2z M4094.3,150.3
			c-0.2,0.1-0.4,0.3-0.2,0.4C4093.5,151,4093.7,149.8,4094.3,150.3z"/>
		<path fill-rule="evenodd" clip-rule="evenodd" fill="#649981" d="M4079.6,139.4c-0.1,0.3-0.2,0.2-0.4,0.1
			c-0.1,0.2,0.2,0.3,0.3,0.4c-0.1,0.1-0.3-0.1-0.4,0.1C4078.8,139.7,4079.1,139,4079.6,139.4z"/>
		<path fill-rule="evenodd" clip-rule="evenodd" fill="#649981" d="M4067.6,138.2c0.2-0.4,0.5,0.7,0.7,0.4c0.2,0.1,0,0.3-0.2,0.3
			c-0.1,0.2,0.3,0.3,0.5,0.4c-0.1-0.4,0.2-0.3,0.4-0.7c-0.1-0.1-0.2,0.1-0.3,0.2c-0.1-0.2-0.4-0.4-0.7-0.6c0.7-0.5,1.3-0.3,1.7,0.4
			c0.4,0.1-0.2-0.5,0.3-0.5c0.1,0.3,0.1,0.7,0,1c-0.5-0.3-0.1,0.1-0.4,0.3c-0.1-0.3-0.1-0.6-0.2-0.8c-0.4,0.2,0.3,0.9-0.6,0.7
			c0,0.4,0.6,0.1,0.5,0.6c0.5-0.1,0.6-0.3,0.9-0.6c0,0.4-0.1,0.9,0,1.2c-0.3,0.2-0.7-0.8-1,0.3c-0.2-0.2-0.2-0.4,0-0.7
			c-0.3,0.1-0.5,0.3-0.6-0.2c-0.2,0.4,0.2,0.7,0.3,1c-0.4-0.4-0.8-1-1.9-1.1c0.2-0.3,0.5-0.1,0.7-0.3c-0.4-0.1-0.9,0.2-0.6-0.5
			c-0.4-0.3-0.4,0.4-0.8-0.1c0.2-0.1,0.3-0.2,0-0.3c0.2-0.3,0.6,0.3,0.9,0.3c0-0.3-0.8-0.6-0.1-0.8c0,0.6,0.4,0.3,0.8,0.5
			C4067.7,138.6,4067.7,138.4,4067.6,138.2z"/>
		<path fill-rule="evenodd" clip-rule="evenodd" fill="#649981" d="M4080.5,144.7c0.2-0.2,0.4,0.4,0.6-0.2c0.1,0.2,0.4,0.4,0.7,0.6
			c-0.2,0.3-0.6,0-1-0.2c-0.3,0.8-0.8,1.2-1.4,1c-0.1-0.4,0.2-0.2,0.4-0.5c-0.4-0.4-0.6,0.3-1,0.2c0,0.3,0,0.6,0.4,0.8
			c-0.1,0.3-0.4,0-0.5,0.3c-0.1-0.3,0.2-0.8-0.3-0.4c0-0.2,0.2-0.6,0.3-1.1c-0.3,0-0.7-0.2-0.8,0.2c-0.1-0.2-0.1-0.4,0-0.7
			c-0.3-0.1-0.5,0.1-0.8-0.1c0-1,1.2-0.3,1.1-0.1c-0.1,0.2,0.3,0.3,0.5,0.4c-0.3-0.2,0.1-0.6,0-0.9c0.1-0.2,0.7,0.4,0.5,0.6
			c0.5,0.1,0.3-0.6-0.2-0.6c0.3-0.2,0.6-0.2,1,0c-0.1,0.2-0.3,0.4-0.4,0.7c0.4,0,0.3,0.1,0.9,0.3
			C4080.6,145,4080.6,144.8,4080.5,144.7z"/>
		<path fill-rule="evenodd" clip-rule="evenodd" fill="#649981" d="M4085.9,148.6c-0.1,0.4-0.4,0.1-0.6,0.4c0-0.5-0.3-0.4-0.6-0.2
			c-0.2-0.6,0.8-0.4,0.9,0c0.3-0.4-0.3-0.7-0.3-1c-0.5-0.1,0.2,0.4-0.2,0.6c-0.3-0.5-0.2-0.4-0.7,0c-0.1-0.1,0-0.2,0-0.3
			c-0.2-0.1-0.4-0.1-0.6,0c0.4,0.4,0.1,0.9,0.7,0.9c-0.3,0.2-0.5,0.5-0.9,0.4c0.1-0.2,0.4-0.5,0.2-0.6c-0.3-0.1,0,0.3-0.4,0.3
			c0.1,0.4,0.1,0.7,0.7,0.7c-0.1,0.1-0.2,0.3-0.2,0.4c-0.4-0.2-0.4-0.7-1.1-0.8c-0.1-0.5,0.2-0.5-0.1-0.8c0.6-0.2,0.3-1.1,1.3-0.8
			c0.4-0.3-0.4-0.3,0-0.7c0.5,0.4,0.9,0.4,1.1-0.1c0.1,0.7,0.5,0.1,0.7,0.6C4085.6,148,4085.6,147.9,4085.9,148.6z"/>
		<path fill-rule="evenodd" clip-rule="evenodd" fill="#649981" d="M4088.5,152.5c0.2,0.1,0.4,0.3,0.5,0.4c0.3,0,1.1-1,0.5-0.9
			c0.4,0.4-0.7,0.5-0.6,0c0.8,0.3-0.1-0.4,0-0.6c0.5,0.2,0.5-0.2,0.9,0.3c-0.1-0.7-0.4-1.2-0.8-0.5c-0.4-0.6,0.6-0.9,0.3-1.4
			c-0.2,0.3-0.5,0.1-0.7,0.3c0.1,0.1,0.4,0.2,0.3,0.4c-0.5-0.4-0.7-0.1-1,0c0.6,0.3-0.1,0.4-0.2,0.4c0.4,0.4-0.2,0.3,0,0.7
			c-0.2-0.1-0.3-0.2-0.3-0.4c0,0.4-0.7,0.5-0.4,0.7c0.1-0.1,0.3,0,0.3,0.2c-0.2,0-0.4,0-0.6,0c0.1,0.1,0.1,0.2,0,0.3
			c0.2,0.4,0.7-0.4,0.6,0.2c-0.3,0.1-1,0.3-0.9,0.6c0.4,0,0.5-0.2,0.7-0.3c0.1,0.1,0,0.3-0.1,0.5c0.5-0.1,0.6,0.2,1,0.2
			C4087.2,152.8,4089.1,153.2,4088.5,152.5z M4088.3,152.2c-0.2-0.2-0.2-0.4-0.4-0.6C4088.2,151.2,4088.5,151.8,4088.3,152.2z"/>
		<path fill-rule="evenodd" clip-rule="evenodd" fill="#649981" d="M4075,142.5c-0.3,0-0.5,0.3-0.8,0.4
			C4073.8,142.5,4074.6,142.3,4075,142.5z"/>
		<path fill-rule="evenodd" clip-rule="evenodd" fill="#649981" d="M4094.3,153.5c-0.1,0.2,0.1,0.1,0.1,0.1c0.3,0.4-0.4,0.3-0.4,0.5
			c0.3,0.2,0.4-0.1,0.7,0.2c-0.3,0.5-0.1,0.3,0.3,0.5c-0.2,0.1-0.4,0.3-0.2,0.4c-0.3,0.3-0.4-0.3-0.7-0.4c0.2,0.3-0.1,0.6,0.4,0.8
			c-0.8,0-1.2,0.4-1.3,0.4c-0.5,0.3-0.1-0.5-0.4-0.6c0.3-0.1,0.6,0.1,0.9,0c0.2-0.5-0.4-0.7-0.6-1.1c0.2-0.4,0.6-0.4,0.7-1
			c0.2,0.2,0.4,0,0.6,0.2C4094.4,153.5,4094.4,153.5,4094.3,153.5z"/>
		<path fill-rule="evenodd" clip-rule="evenodd" fill="#649981" d="M4072.7,142.6c0.2-0.3,0.2-0.6,0.1-0.8c-0.2,0.4-0.5,0.2-0.8,0.1
			c-0.2,0.2-0.3,0.9-0.6,0.5c-0.1,0.6,0.4,0.7-0.4,0.7c0.4,0.7,0.2,0.3,0.7,0.2c0.1,0.4-0.1,0.2-0.3,0.5c0.1,0.1,0.3,0.2,0.4,0.2
			c0.2-0.2,0-0.4,0.2-0.6c0.1,0.4,0.3,0.2,0.6,0.2c-0.5,0.2-0.5,0.8-0.4,0.5c0.4-0.3,0.4,0.3,0.5,0.4c0.3-0.7,0.7-0.6,0.9-0.6
			c-0.2-0.3,0.7-0.7,0.3-1.2c-0.4,0.8-0.3-0.8-0.9-0.3c0.3,0,0.3,0.7,0,0.6C4073.1,142.6,4073,142.6,4072.7,142.6z M4072.1,142.4
			c0.2,0.3,0.6,0.2,0.7,0.7C4072.5,143.4,4071.8,142.7,4072.1,142.4z"/>
		<path fill-rule="evenodd" clip-rule="evenodd" fill="#649981" d="M4076.8,144.7c0.2-0.1,0.4,0.1,0.9,0.3c-0.1,0.3,0.3,0.4,0,0.7
			c0.2,0,0.3-0.1,0.5-0.3c0.1,0.1,0.1,0.3,0.3,0.2c0.2,0.4-0.7,0-0.8,0.4c-0.2-0.1-0.4-0.3-0.7-0.4c0.3-0.1,0.4-0.5,0.6,0
			c0.2-0.3-0.3-0.4-0.2-0.6C4077.1,145.3,4077,145.2,4076.8,144.7z"/>
		<path fill-rule="evenodd" clip-rule="evenodd" fill="#649981" d="M4068.3,144.2c-0.1,0.1-0.2,0.4-0.4,0.3
			c-0.4-0.2-0.5-0.8-1.3-0.9c0.3-0.4,0.4-0.6,0.3-1.1c-0.1,0.1-0.2,0.4-0.4,0.3c0.3-0.6-0.3,0-0.5-0.3c0.1-0.2,0.2-0.4,0.3-0.5
			c-0.4,0.2-0.4,0.1-1,0.2c0.1,0.2,0.6,0.8,0.1,0.8c0-0.1,0.1-0.3,0-0.3c-0.1,0.1-0.3,0-0.5-0.1c0.1-0.2,0.2-0.4,0.1-0.5
			c-0.6-0.1-1.4,0.2-1.4,1c-0.1-0.3-0.2-0.3-0.5-0.1c0.2,0.1-0.1,0.4-0.2,0.6c0.9,0.5,1.5,1,1.8,1.9c0.3-0.8,0.8,0.2,0.8-0.4
			c0.1,0.2,0.3,0.4,0.6,0.5c-0.3,0.1-0.5,0.4-0.2,0.6c0.1-0.1,0.2,0,0.3,0.2c0.4-0.2,0.1-0.6,0.5-0.6c0.1,0.1,0.2,0.3,0,0.6
			c0.8,0.5,0.3-0.3,1.3,0.2c0.5-0.3,1.3-1,1.8-0.4c-0.2-0.2,0.1-1.2,0.5-1.3c-0.1,0.2-0.2,0.4-0.1,0.5c0.2-0.1,0.4-0.3,0.5-0.6
			c-0.5-0.3-0.9,0.1-1.3,0.1c-0.4-0.6,0-0.4-0.5-1c-0.2,0.4-0.6,0.2-0.7,0C4068.2,144.2,4067.7,144.2,4068.3,144.2z M4068.9,144
			c0,0.4,0.8,0.6,0.2,1.2c0.1-0.6-0.5-0.5-0.9-0.5C4068.3,144.1,4068.7,144.2,4068.9,144z M4066,143.6c-0.1,0.5-0.4,1-0.7,0
			c0.1,0.4,0,0.8,0.5,1c0.5,0.2-1-0.4-0.8,0.4c-0.2-0.5-0.2-1,0-1.6c0.5-0.2,0.6,0.3,1.1-0.1c0.1,0.1,0.1,0.2,0.2,0.3
			c-0.1,0.1-0.1,0.2-0.2,0.3C4066,143.8,4065.9,143.7,4066,143.6z"/>
		<path fill-rule="evenodd" clip-rule="evenodd" fill="#649981" d="M4090.2,157c-0.1,0.5,0,0.3-0.4,0.5c-0.2,0.3,0.4,0.3,0.6,0.5
			c0-1,1.5,0,2-0.7c0.3,0.2,0.5,0.5,0.7,0.7c-0.2,0-0.9,0.3-0.3,0.5c0.1-0.1,0-0.2-0.1-0.2c0.6,0.4-0.6,0.3-1-0.4
			c-0.1,0.2-0.2,0.4-0.1,0.5c0.2,0.1,0-0.3,0.3-0.2c0.5,0.2-0.4,0.6,0.2,1c-0.2-0.1-0.7,0-0.6,0.4c-0.5,0.5-0.1-0.7-0.4-0.2
			c-0.3-0.3,0.3-0.1,0.4-0.3c-0.3,0.1-1.3,0-1.1,0.4c-0.5,0.2-0.2-0.3,0.1-0.5c-0.3,0-0.6,0-0.8,0.4c-0.8-0.3-0.7-0.4-1.2-1.2
			c-0.3-0.6,0.2,0.5,0.5,0.1c0.1,0.2-0.3,0.3,0.4,0.6c-0.1-0.6-0.2-0.6,0.4-1c-0.6,0.1-0.4-0.1-0.6-0.2c-0.1-0.1,0.1-0.3-0.1-0.4
			c0.4-0.4,0.3,0.1,0.7,0.2c-0.4-0.6,0.5-0.1,0.7-0.7c0.2,0.1,0.4,0.2,0.5,0.3C4090.6,157.3,4090.4,157.1,4090.2,157z"/>
		<path fill-rule="evenodd" clip-rule="evenodd" fill="#649981" d="M4082.5,154.3c-0.2-0.3,0.7,0.1,0.5-0.6c0.1,0.3,0.8,0.5,0.7,0.9
			C4084,155,4082.9,153.8,4082.5,154.3z"/>
		<path fill-rule="evenodd" clip-rule="evenodd" fill="#649981" d="M4085,154.6c-0.5-0.5,0.3-0.8-0.8-1c0.3,0.1,0.3,1,0,0.9
			c0-0.3,0.2-0.7-0.2-0.8c-0.4,0.6,0.4,0.5,0,1.2c-0.1-0.1-0.2,0-0.3,0c-0.2-0.6-1.4-0.6-1.3-0.2c0.1-0.1,0.4-0.2,0.3,0
			c-0.3-0.1-0.5,0.2-0.6,0.5c0.2,0.8,1.5,0.6,1,1.3c0.6,0.1,0.8-1,1.5-0.4c0.1-0.2,0.3-0.5,0.2-0.6c-0.1,0.3-0.5-0.3-0.5-0.4
			C4084.4,154.9,4084.6,154.7,4085,154.6z M4083,154.7c0.3,0.2,0.1,0.2,0,0.3c0.3,0.1,0.5,0.2,0.7,0c0.3,0.3,0,0.3-0.2,0.6
			c0.5,0.6-0.3-0.2-0.7-0.4C4083,155.1,4082.8,155,4083,154.7z"/>
		<path fill-rule="evenodd" clip-rule="evenodd" fill="#649981" d="M4085,154.3c0.4-0.2,0.4,0,0.7,0.2c-0.2,0.3-0.4,0.3-0.7,0.3
			c0,0.1,0.2,0.7,0.3,0.4c0.3,0.2-0.3,0.1-0.3,0.5c-0.1,0.6,0.2-1.2-0.5-0.4C4084.3,154.6,4085.8,154.9,4085,154.3z"/>
		<path fill-rule="evenodd" clip-rule="evenodd" fill="#649981" d="M4077.8,150.2c-0.2-0.4,0.2,0.1,0.4,0.2c-0.4,0,0,0.6-0.5,0.3
			c-0.1,0.1,0.1,0.2,0.2,0.3c0.2,0.1,0.3-0.2,0.4-0.3c0.2,0.6,1.1,0.5,1,1.3c0.5,0.1-0.2-0.4,0.2-0.6c0.3,0.3,0.4,0.6,0.2,1
			c-0.3-0.1-0.5-0.2-0.7,0c0.1,0.7,0.6-0.2,1,0.2c-0.5,0-0.5,0.6-0.1,0.5c0.4,0.2-0.5,0.2,0.1,0.4c-0.7,0.2-0.6,0.6-1.7-0.4
			c0.1-0.1,0.4-0.1,0.5-0.3c0.1-0.9-1.2-0.1-1.7-0.8c-0.2,0.2,0.4,0.8,0.6,0.5c0.1-0.3-0.1,0.3-0.2,0.7c0.8-0.1-0.3,0.2,0,0.6
			c0.2,0.1,0.3-0.3,0.4-0.5c0.2,0.1,0.4,0.2,0.5,0.3c-0.1,0.3-0.6,0.7-0.3,0.9c-0.5,0-0.9-0.4-1.1-0.9c-0.2,0.4,0.3,0.5-0.2,1
			c-0.1-0.4-0.5-0.3-0.8-0.5c0.1-0.1,0.3-0.1,0.4-0.3c0.2,0.1,0.2,0.3,0.3,0.4c0-0.1-0.1-0.2,0-0.3c-0.5-0.2-0.8,0-1.1-0.5
			c0.2-0.2,0.5,0.2,0.6-0.2c-0.2-0.2-0.5,0-0.5-0.6c0.2-0.1,0.3-0.2,0.6,0c0.1-0.5-0.1-0.3-0.5-0.4c0.5-0.4,0.7-0.6,0.4-1.4
			c0.4,0.2,0.7,0.5,0.4,0.9c0.4-0.3,0.5-0.7,0.7-1.2c0.3,0,0.4,0,0.5,0.3C4077.9,150.4,4077.9,150.3,4077.8,150.2z"/>
		<path fill-rule="evenodd" clip-rule="evenodd" fill="#649981" d="M4079,153.7c0.3,0.2-0.4,0.2-0.4,0.7c-0.5-0.1,0-0.5,0.1-0.8
			C4078.8,153.7,4078.9,153.8,4079,153.7z"/>
		<path fill-rule="evenodd" clip-rule="evenodd" fill="#649981" d="M4073.8,148.7c-0.1-0.1-0.2,0-0.3,0c-0.3-1.2-0.9,0.8-1.6,0.3
			c-0.1,0.2-0.2,0.4-0.3,0.5c0.4,0.9,1.7,0.8,2.6,0.4c-0.2-0.4-0.6,0.4-0.5-0.1c1.3,0,0.3-0.9,1.6-0.9c-0.6-0.4-0.9,0.1-1.4-0.1
			c0.2-0.2,0.2-0.9-0.2-0.6C4073.9,148.4,4073.9,148.6,4073.8,148.7z M4073.6,149.5c0.3,0.5-1,0.2-1-0.2
			C4073,149.1,4073.2,149.9,4073.6,149.5z"/>
		<path fill-rule="evenodd" clip-rule="evenodd" fill="#649981" d="M4095.1,131.9c0.6,0.2,0.1,0.9-0.2,1c-0.3-0.4-0.4-0.2-0.6-0.5
			C4094.6,132.2,4094.9,132.5,4095.1,131.9z"/>
		<path fill-rule="evenodd" clip-rule="evenodd" fill="#649981" d="M4094.4,136.9c0.1,0.5,0.8-0.5,1.2,0c-0.3,0.5-0.6,0.6-0.8,1.1
			c-0.3,0-0.6-0.2-0.7,0.3c-1.3-0.1-1.2-0.9-1.6-0.7c-0.1-0.7,0.8-0.4,0.5-1.1c0.5,0.3,0.1-0.1,0.4-0.3c0.4,0.4,0.6,0.1,1,0.4
			c-0.1-0.3,0.1-0.2,0.2-0.4c0.1,0.1,0,0.2,0,0.3c0.3,0.1,0.4-0.6,0.6-0.5C4095.7,136.5,4094.7,136.7,4094.4,136.9z"/>
	</g>
</g>
<path fill="#87BAB4" d="M4042.3,166c-68.1,1-125.8,45.5-146.3,107c-0.4,1.2-0.8,2.4-1.2,3.7h2.5h29c22.5-29.8,58.3-49.1,98.5-49.1
	c40.2,0,76,19.3,98.5,49.1h30.2V119.8C4110,119.8,4070.7,137.4,4042.3,166z"/>
<path fill="#B0D398" d="M3677.2,179.2c-62,0-117,29.7-151.7,75.5h303.4C3794.2,208.8,3739.2,179.2,3677.2,179.2z"/>
<path fill="#6EB09C" d="M4127.4,165.8L4127.4,165.8c8.9,5.2,9.9,17.6,2,24.2l-3.9,3.2c-7.9,6.6-6.9,19,2,24.2l26.1,15.2V181v-10.9
	v-51.6l-28,23.2C4117.5,148.2,4118.5,160.6,4127.4,165.8z"/>
<g>
	<circle fill="#4AAA8F" cx="1976.8" cy="220.8" r="9.3"/>
	<circle fill="#4AAA8F" cx="2010.9" cy="214.7" r="9.3"/>
	<circle fill="#4AAA8F" cx="2004.8" cy="242.2" r="12.6"/>
</g>
<g>
	<circle fill="#4AAA8F" cx="2404.6" cy="172.7" r="6.6"/>
	<circle fill="#4AAA8F" cx="2428.8" cy="168.4" r="6.6"/>
	<circle fill="#4AAA8F" cx="2424.4" cy="187.9" r="8.9"/>
</g>
<g>
</g>
<g>
</g>
<g>
</g>
<g>
</g>
<g>
</g>
<g>
</g>
<g>
</g>
<g>
</g>
<g>
</g>
<g>
</g>
<g>
</g>
<g>
</g>
<g>
</g>
<g>
</g>
<g>
</g>
</svg>
