<?xml version="1.0" encoding="utf-8"?>
<!-- Generator: Adobe Illustrator 18.0.0, SVG Export Plug-In . SVG Version: 6.00 Build 0)  -->
<!DOCTYPE svg PUBLIC "-//W3C//DTD SVG 1.1//EN" "http://www.w3.org/Graphics/SVG/1.1/DTD/svg11.dtd">
<svg version="1.1" id="Layer_1" xmlns="http://www.w3.org/2000/svg" xmlns:xlink="http://www.w3.org/1999/xlink" x="0px" y="0px"
	 viewBox="0 0 76.3 152.6" enable-background="new 0 0 76.3 152.6" xml:space="preserve">
<g>
	<g>
		<path fill="#448577" d="M8.1,152.6C105.8,103.8,69.8,0,69.8,0S-28.3,49.7,8.1,152.6z"/>
	</g>
	<path fill="#80B493" d="M53.9,32.8c-1.7,3.2-3.4,6.5-5,9.8c0,0-0.1,0,0,0c0,0,0,0,0,0c-0.9,1.8-1.8,3.6-2.7,5.5
		c-5.4-2.8-11.4-1.2-16.9,1.3c1-0.5,2.2-0.8,3.3-1.2c0.1,0,0.2,0,0.4,0c0.5,0,1-0.1,1.5-0.2c1.2-0.1,2.3,0,3.5,0.2
		c2.2,0.4,4.1,1.4,5.9,2.7c0.2,0.1,0.6,0.1,1-0.1c-2.1,4.6-4.2,9.1-6.2,13.8c0,0-0.1,0-0.1,0c0,0,0,0,0,0.1
		c-0.8,1.8-1.5,3.6-2.3,5.4c-6-2.1-14.1,0.7-17.6,5.8c0.7-1,3.7-0.5,4.5-1.6c0.8-1.1,1.8-1.9,2.7-2.9c0.4-0.2,0.7-0.4,0.8-0.5
		c0.3,0,0.7-0.1,1-0.1c2.4,0,4.7,0.8,6.7,2.2c0.2,0.1,0.5,0.1,0.9-0.1c-1.7,4.3-3.4,8.7-5,13.1c-0.1,0-0.1,0-0.2,0
		c0,0,0.1,0.1,0.1,0.2c-0.4,1.1-0.8,2.1-1.2,3.2c-0.2,0.1-0.4,0.2-0.6,0.4C22,96.2,16.1,103,10.6,110.3c0.8-1,3.7-0.6,4.5-1.6
		c3.9-5.1,8-10.1,12.4-14.8c-3.7,10.7-6.9,21.7-9.7,32.7c0.2-0.8,4.2-0.7,4.5-1.6c3-11.7,6.4-23.3,10.4-34.7
		c2.9,6.4,3.1,14.8,4.2,21.1c0-0.2,4.5-1.3,4.5-1.6c-1.4-7.8-1.4-18.8-6.7-25.2c1.9-5.3,3.9-10.5,6-15.7c3.4,7.4,6,15.3,7.4,23.3
		c0-0.2,4.5-1.3,4.5-1.6c-1.7-9.5-4.9-18.9-9.4-27.4c2.3-5.4,4.7-10.7,7.2-16c1.6,4.8,3.1,9.6,4.7,14.4c0,0,4.5-1.5,4.5-1.6
		c-2.1-6.3-4.1-12.6-6.2-19c1.6-3.3,3.3-6.6,5.1-9.8C57.8,32.2,54.4,31.7,53.9,32.8z M33.5,47.9c0.1,0,0.1,0,0.2-0.1
		C33.7,47.8,33.6,47.9,33.5,47.9z"/>
</g>
<g>
</g>
<g>
</g>
<g>
</g>
<g>
</g>
<g>
</g>
<g>
</g>
<g>
</g>
<g>
</g>
<g>
</g>
<g>
</g>
<g>
</g>
<g>
</g>
<g>
</g>
<g>
</g>
<g>
</g>
</svg>
