<?xml version="1.0" encoding="utf-8"?>
<!-- Generator: Adobe Illustrator 18.0.0, SVG Export Plug-In . SVG Version: 6.00 Build 0)  -->
<!DOCTYPE svg PUBLIC "-//W3C//DTD SVG 1.1//EN" "http://www.w3.org/Graphics/SVG/1.1/DTD/svg11.dtd">
<svg version="1.1" id="Layer_1" xmlns="http://www.w3.org/2000/svg" xmlns:xlink="http://www.w3.org/1999/xlink" x="0px" y="0px"
	 viewBox="0 0 776.1 572.7" enable-background="new 0 0 776.1 572.7" xml:space="preserve">
<g>
	<path fill="#FFD25C" d="M657.1,224.1C567.9,134,450.6,50.6,318.6,11.2C274.8-1.9,225.4-4.5,175.7,8.8
		C131.2,20.7,87.8,46.5,50.3,74.2C38.7,82.7,27.6,92,17.5,102.1c-1.5,1.5-21.8,25-16.7,24.7c5.7-0.5,11.5-1.4,17.4-2.5
		C158.7,97.5,230.6,242.4,283.8,346c61.6,120.1,138.2,243,294.4,224.9c25.7-3,50.9-10.1,74.8-19.9c7.9-3.3,15.6-6.9,23.4-10.6
		c31.8-15,59.2-40.1,75.6-73.2C800.2,369.9,713.7,281.4,657.1,224.1z"/>
	<g>
		<polygon fill="#FFC235" points="661.4,448.8 660.7,447.7 657.4,449.4 		"/>
		<path fill="#FFC235" d="M626.9,447c-3.2,0.9-9.2,0.4-9.8,2.7c2-0.3,4-0.6,6-0.9c0.5,1.8,4.3,2.2,7.6,2.1l-3.8-0.4
			c1-0.1,0.5-1.3,1.5-1.4c1.4,0.4,2.5,0.6,3.6,0.6c1,0.1,1.9-0.1,2.8-0.1c1.8-0.1,3.4-0.2,6,1l-0.3,0.2c1.4-0.2,2.8-0.7,4.2-1
			c1.3,0.3,0.8,1.1,0.4,1.4c1.9-0.5,3.5-0.9,5.3-1.3c0.4-0.1,0.9-0.2,1.4-0.2c0.5-0.1,1-0.2,1.5-0.3c1-0.2,2.1-0.3,3.4-0.4
			c-2-1.5-4.7-0.5-7.4,0c-2.7,0.6-5.5,1.3-7.4-0.3l0.3-0.2c-2.4,0.4-5,0-7.6-0.4l-1.9-0.3c-0.6-0.1-1.3-0.3-1.9-0.4
			C629.4,447.1,628.1,447,626.9,447z"/>
		<path fill="#FFC235" d="M645.1,451c-0.1,0-0.2,0.1-0.3,0.1C644.8,451.2,644.9,451.1,645.1,451z"/>
		<path fill="#FFC235" d="M478.8,347.4l-0.5,0.2C478.6,347.6,479,347.7,478.8,347.4z"/>
		<path fill="#FFC235" d="M517.2,396.9c-0.1-0.1-0.1-0.2-0.2-0.2C516.3,396.9,516.5,396.9,517.2,396.9z"/>
		<path fill="#FFC235" d="M229.8,114.9l-0.9-1.2C229,114.5,229.3,114.8,229.8,114.9z"/>
		<path fill="#FFC235" d="M147,91.7c0,0-0.1,0-0.1,0C146.9,91.7,147,91.7,147,91.7z"/>
		<path fill="#FFC235" d="M183.2,108.4l0,0.7C183.5,108.7,183.4,108.5,183.2,108.4z"/>
		<path fill="#FFC235" d="M156.7,104.1c-0.7-0.3-1.4-0.5-2.2-0.7C155,103.9,155.9,104.1,156.7,104.1z"/>
		<path fill="#FFC235" d="M147.9,91.5c-0.3,0.1-0.6,0.1-0.9,0.2C147.3,91.7,147.7,91.6,147.9,91.5z"/>
		<path fill="#FFC235" d="M221.2,122.5l0.3,1.9C221.7,124,221.4,123.2,221.2,122.5z"/>
		<path fill="#FFC235" d="M150,104.5c-0.3-0.4-0.8-0.6-1.3-0.8C148.9,104.1,149.3,104.4,150,104.5z"/>
		<path fill="#FFC235" d="M621.6,446.3c0.7,0.1,1.6,0.3,2.6,0.2C623.2,446.3,622.4,446.2,621.6,446.3z"/>
		<path fill="#FFC235" d="M345.5,208.4c-0.3,0-0.5,0-0.8,0.1C345.3,208.9,345.4,208.7,345.5,208.4z"/>
		<path fill="#FFC235" d="M276,153l-0.3-0.1c0,0.1,0.1,0.2,0.2,0.4L276,153z"/>
		<path fill="#FFC235" d="M297.5,167.5c-0.2,0-0.3,0-0.5,0.1C297.4,167.6,297.5,167.6,297.5,167.5z"/>
		<path fill="#FFC235" d="M258.4,144.3c-0.3,0-0.7,0-1.1,0L258.4,144.3z"/>
		<path fill="#FFC235" d="M242.8,133.9c0.5,0.9-0.6,1-1.6,1.1c1.9,1.4,3.4,1.8,4.9,2.3c1.5,0.5,3,1.2,4.8,2.9l-1.6-1.8
			c1.7,0.2,3.8,1,5.7,2c1.9,1,3.6,2.4,4.4,3.8l-1,0c3.2,0.4,6.1,4.8,7.7,4.5c-0.7-1.3,0.6-1-0.6-2.5l7.2,2.8l-0.7,2.2l3.8,1.5
			c-0.3-1.3,4.1,3.6,5.3,1.8c1.5,1.9-1.7,0.9-2.9,1.2c2.2,0.7,1.9,1.6,4.4,1.7l0.8,2.8l5.6,2.2c-0.3,0-0.1,0.3-0.5,0.3
			c3.2,0.2,5,4.7,9.4,4.4c-0.2,0-0.2,0.1-0.3,0.2c2.4-0.1,5.5,3.5,6.6,4.8c2.6,1.6,2.1-0.7,2.7-1.3c3.3,2.9,4.5,3.9,5.7,4.5
			c1.2,0.6,2.5,0.8,6.1,2.3c1.9,4.7-6.6-0.2-3.3,4.7c1.3-0.4,5,1.3,8.7,3.8c2.5,3.3,7.3,8.1,9,12l0.8-1.5l4.8,3.1l-4-0.4
			c1,0.2,3.9,1.3,5.8,2c5.3,3,0,4.9,5.1,6.2c0,0.2,0,0.5,0,0.7c1.9,0.1,4.4,3.1,7.9,5.9l-2.6,0.4l-1.8-2.3c-0.3,2.5,3.7,3.1,5.6,5.1
			c2.6,1.6,2.7-0.7,4.3,0c0.7,0.8,2.2,1.5,2.4,2.5c1.4,2.3-1.5,1.9-2.7,1.9c3.1,0.1,3.4,0.8,7.5,3.8c-0.5,0.9-1.1,0.9-1.7,0.6
			c0.9,0.6,1.9,0.9,2.9,0.7l0.3,2c2.7,5.3,6.7,1.4,10.8,6.9c-2.1-0.6,4.2,4.1,4.6,6.6c-1.8-1.5-1.5,2.9-3.4,2.6c3,4.5,3.3,0,6.5,3
			l-3.1,0.4c3.6,2.4,1.7-0.2,5.2,2.6c-1.3-0.4,0.7,1.9-1.6,0.5c3.5,4.4,2.7,3.2,5.7,7.1l2.2-1.3c1.3,1.1,0.9,2.3,0.8,2.9
			c-0.5-0.5-1.1-1.4-1.3-1.1c-0.4,2.8,3,1.7,2.9,4.6c0.3-0.9,0.7-2.1,2.1-0.6c-1.6,0.5,0.9,3.3,0.5,3.8c0-1.7,3.2,3.1,4.6,2.3
			c0.6,2.6-1.4,0.2-2.1,0.6c2.7,0.3,5.4,6.3,7.4,7c-0.1,0.1-0.1,0.3-0.2,0.3c2.5,1.2,5.3,4.3,9.7,7.3l-2.2-0.5
			c2.6,4.4,4.3,0.6,6.8,3.9c-2.1,0.5,4.4,5.4,1.4,5.3c2.4,1.3,4.5,3.1,6.9,3.3c0.5,2.6-5-1.9-3.4,1.1l3,2.2l-0.5,1.2
			c0.7-0.4,2.7,2.1,3.1,1.6c-0.7,1.2-0.6,2.9-1.5,3.4c1.7,1.6,2.6,4.9,4.7,5.7l-0.4,0.5c3.3,0.3,4.6,5.2,7.2,4.5l-0.2,1.9
			c2.3,2.6,3.9,0.5,5.4,1.4c0.9,1,2.2,2.2,2.9,3.5c-4-2.6-0.2,3-0.3,4.3c1,1.4,4.4,5.4,6.3,5.8c-2.3-0.9-2.3,0.8-4.8-2.1
			c-0.7,3.1,4.1,4.2,6.4,7.8l-0.9,0.7c4.4,4.3,6.1,3.2,9.3,4c-0.7,1.5-1.3,1.2-3.5,0.8c1.9,3.7,6.8,8.1,9.6,11.7
			c0.2,1.8-0.9,1.4-2.2,0.5c3.9,2.9,6.7,8.3,10.7,8.8c-1.5-0.2,0.8,1.9,1.6,3.5c0.4-0.3,1.1-0.5,1.2-0.3c2.7,1.5,7.8,5.5,9.4,8.6
			l-1.4-0.4c2.6,3,5.3,4.3,7.9,5.8c2.6,1.5,5.2,3.1,7.6,6.8c0.7,1.5-2.6,0.4-0.2,2.5c1.8,0.4,2.7-1.4,5.3,1.7l-1.3,1l3.1,0.6
			c-0.1-2-3.7-4.6-0.4-3.6c1.6,3.5,3.3,1,5.3,5.1c-0.9-0.5-2.7-0.4-3.7-0.4c2.8,3.7,5.4,5.5,8.2,7.2c1.4,0.8,2.7,1.7,4.1,2.8
			c1.4,1.1,2.8,2.5,4.3,4.2c2.2,0.8,4.6,2.1,6.7,3.2c2.2,1.1,4.3,2,5.9,2.4c-1.1,1.2-1.9,2.5-4.4,2.3c3.2,2.4,6.7,0.3,7.7,3.8
			c1.4-0.5,3.9,0.7,6.3,1.6c2.4,1,4.9,1.6,6.1,0.5c-0.2,0.6,3.6,2-0.8,1.6c5.1,1.7,4.8,5.8,7,6.9c1.3,0.5-0.5-2.5,2.3-1.1
			c0.3,0.3,0.2,0.6,0.5,0.9l1.4-0.1c0.8,1.2-1.9,0.8-2.4,1.5c1.8,1.3,3.6,1.7,5.6,2c2,0.3,4.1,0.4,6.5,1.4l-1,0.2
			c1.6,0.7,3.2,1.5,4.8,2.2l-0.3,0.1l4.4,0.5l-0.4,0.7c1,0.1,1.4-0.3,2.7,0.1l-0.8,0.8c1.8-0.9,6.8-0.2,9.1,0.5l0.3,0.6l3-0.1
			c1-0.1,2-0.2,3-0.3c2.6,1.8-4.4,1.4,1.6,2.1l-2,1.6c2.2,0.2,3.4,0.5,4.4,0.9c1,0.3,1.9,0.7,3.4,0.6c-1.1-1.2-3.1-1.7-1.4-2.2
			c2.8,3,5.4,0.5,8.7,0.1c-1.6-0.3-2.7-0.5-4,0.5c-1.7-0.4-0.4-1.2-1.4-1.5l-2.6,0.7l-0.4-1.6l-4.3,0c0.7-1.5-3.6-1.2-1.6-2.4
			c-3,0-4.2-1.7-7.2-0.9c-1.6-1.6,3.3-0.2,1.4-1c-11.4-2.1-22.5-7.1-33-13.3c0.5,0,0.9-0.1,1.4-0.1c-1.4,0.2-3-0.1-4.1,0
			c-0.6-1.1-2.4-3-4.5-4.5c-2.1-1.5-4.4-2.8-6.3-2.5c-0.3-0.3,0.5-0.3,0.8-0.3c-1.8-0.9-4-2.7-6.3-4.7c-2.3-2-4.8-4.1-7.2-5.7
			c-1.7,0.4-3.3-1.3-4.8-2.8c-1.6-1.5-3-2.9-5-2.2l1.4,0.2c0.9,2-3.7,0.2-4.9,0.4c0.2-2.8,1-1.5,0.9-4.3l1.3,2.1l0.8-1.8
			c-4.4-0.3-6.7-3-8.5-5.6c-1.9-2.5-3.2-5-6.1-5.3c0.3,0.1,0.5-0.2,0.8-0.2c-1.5-2.9-4.7-2.5-6.8-3.6c0.5-0.9,2-0.2,3.4,0.1
			c-1.7-2.1-4.5-4.3-7.4-6.6c-2.8-2.3-5.6-4.8-7.1-7.5c-2.4-0.6-0.7,1.8-2.9,0.9c-1-1.6-1.1-3.3,0.9-2.1c-1.7-5.3-12.6-11.4-16-18.9
			c-3.8-2.2-2.6,0.2-7.4-4.1c1.7,0.6,1.5-3.2,4-0.3l1.1-0.3c-3.9-4.9-8.9-11.7-13.3-12.6c1.5-1.5-0.4-1.2-1-3.7
			c-0.8-0.6-0.2,0.3-0.1,0.7c-2.9-0.7-2.1-2.8-3.4-3.9l0.7,0.2l-3.8-2.8c-0.2-0.8-0.6-1.9-0.2-2.4l-1.1,0.9
			c-1.5-1.9,0.8-2.1-1.4-4.3l-0.5,1.2c-0.6-1.9-3.7-3.5-2.7-4.8c0.2-0.3,0.3,0.1,0.8,0.6c-0.1-3.8-5.3-5.8-6.8-9.4l-1.3,2.2
			c-2.8-2.5-1-2.1-0.2-2.5c-1.5-1.9-1.2-2.8-2.9-5.6c-1.4-0.9-1.2-0.1-2.1-0.1l-1.5-3l2.3,0.9c-5.8-1.9-7.4-10.4-12-11.1
			c-0.6-1.9,2.2,0.5,1.8-0.7c-2.5-5.7-10-9.3-11.8-14.3c-1.9-3.7-4.7-7.2-7.5-10.7c-2.9-3.5-6-7-8.5-10.8l-0.4,0.5l-3.8-5.3
			c-2.2-0.4-4.6-4.2-7.7-5.1c0.5-0.2,0.7-1.1,1.4-0.9c-2-1.9-4.5-3.7-5-5.5l1,0.3c-1.9-2.4-4.3-5.2-6.6-7.5c-2.3-2.4-4.6-4.3-6.1-5
			c-1.6-1.4-0.7-2.2-0.5-3.1c-2.4-2.6-4.5-3.8-7.3-5.2c-0.3-0.7-0.7-1.5-0.9-2.5l-2.1,0.1c-0.9-1.2,0.7-1.2,0.1-2.3
			c-2.6-1.3-4.8-3.3-6.7-5.4c-1.9-2.1-3.5-4.1-4.9-5.4l-0.1,0.9c-1.6-0.7-3.1-3.6-1.2-2.8c-2.5-3-5-4.5-7.8-6.1
			c-2.9-1.6-5.9-3.5-9.7-7c0.7-3.1-7.6-5.5-6.8-8.8c-3.9-2.2-5.3-5-8.9-5.4c0.1-0.3-0.1-0.6,0.5-0.3c-0.6-2-5.8-4.9-9.7-6.9l0.4-0.9
			c-2.5,0.7-8.3-4.3-10.8-3.6c-0.1-0.7,1.2-0.2,1.9-0.1c-0.7-3-3.8-1.6-6-3.6c0.5-0.3,0.1-1.3,0.8-1.2c-1.7-1.9-3.8-3.6-6.3-5.2
			c-2.5-1.6-5.2-3.1-8-4.7c-5.7-3-11.7-6.1-16.9-10c-3-1.9,0,2.6-3.9,0.1c-0.6-1.6,3-0.7,0.7-2.6c-2.5,0.1-3.1-0.5-5.5-2
			c0.8-0.4,0.6-1,2.6-0.4c-0.5-0.8-2.3-1.3-4.2-1.9c-1.9-0.7-3.9-1.5-5-3c-0.1,0.6-0.9,0.7-1.6,0.8c-2.6-0.3-4.9-1.9-6.6-3.4
			c-1.8-1.5-3.1-2.8-3.5-2.4c0,0-1.7-0.5-0.4,0.4c-1.6-0.8-3.8-2.1-3-2.9c-1.1,0.1-2.2,0.6-3.5,0.1l1.2-0.8c-0.8-0.1-2,0.2-2.8,0
			l0.9,1.2c-1.5-1.7-6.1-1-5.1-3.1l0.7,0.2l-3.2-2.4c-0.9,0.1-1.8,0.3-2.7,0.2c-1,0-2-0.3-3.1-0.9c-0.1-2.5-6-2.9-9-4.1l0.4-0.7
			c-2.8,0.3-8.9-2.3-7.9-1.5c-0.6-0.2-1.2-0.4-1.8-0.7c-0.6-0.2-1.2-0.5-1.6-0.8c-0.9-0.5-1.3-1-0.6-1.2c-2.1-0.1-6.2-1.4-7.6-0.3
			c-1.1-1-2.3-2-3.4-3c-3.1,2.3-7.7-3-8.7,0c-2.1-1-1.5-1.5-2.9-2.4c-3.4,0.9-6.6-0.1-9.8-0.9l0-0.3c-1.6-0.4-3.4-0.4-5.4-0.3
			c-2,0.1-4.1,0.1-6.4-0.1l-0.7-2.5c-2.5,0-3.3,1.8-5.5,1c-0.5-0.4,0-0.5,0.7-0.5c-1.2,0.1-2.5-0.1-3.7-0.4c-1.2-0.3-2.4-0.6-3.2-1
			c-3.6,1.5-6.3,0.6-9.4,2.3c-1.3-1.1-0.3-1.3,0.8-1.5c1.1-0.2,2.2-0.3,1.1-1.3c-2.5-0.7-5-0.7-7.6-0.5c-2.6,0.2-5.2,0.7-8,1.3
			c-0.5-0.4,0.1-0.8,0.4-1.3c0,0-2.8,1.5-5.2,3.2c-2.5,1.8-4.6,3.8-3.5,4.9c-1.3,1.6-2.7,2.6,1.8,3.8c1.4-1,5.7-2.2,6.5-0.4L117,99
			c3-0.5,3.2,0.4,3.4,1.4c0.3,0.9,0.7,2,4.3,2.1l-1.5-0.6c1.4-0.1,2.5-1.1,4-0.5c0.4,0.5-0.5,0.7-1.1,1c2-0.7,4-1.4,6.1-2
			c0.2,1-0.1,1.5-1.3,2.1c5.5,0.3-0.9-3.1,5.7-2c1.2,0.8-0.5,1-1.4,1.5c1.5,0.8,2.8,0.9,4.1,0.8c1.3-0.2,2.7-0.6,4.3-0.9
			c-0.1,1.5-2.2,1,0.3,2.3c-0.4-0.8-0.6-2.2,1.4-2.1c-1.1,1.4,1.4,1,3.4,1.6c-0.3-0.6-0.1-1.2,0.7-1.4c1-0.1,1.7,0.6,3.1,0.6
			l-2.2-1.7c3.6-1,5.2,1.5,7.7,2.5c-0.3,0.2-0.7,0.3-1.3,0.4c1.3,0.5,2.6,1.2,4,1.6c1.4,0.4,3,0.6,4.8,0.4l-0.3,0.1
			c6.7-0.1-1.5-2.8,6.2-2.6c2.4,0.8-2.2,4.4,3.8,4c-2.4-1.9,4.3-2.1,7.7-1.8l-4,1.9c1.3,0.3,3.7,0.1,4.4,0.6l0-0.7
			c0.2-1.2,1.2-0.9,2.5-0.3c1.3,0.6,2.9,1.4,4.2,1c-3.8,2.4-3.7,1.7-5.1,4.7c2.7-1.1,5.7-1.9,9.7-0.4l-4.1,1.5
			c1.3,0.5,2.7,0.8,4.3,0.9c1.5,0.1,3.1,0.2,4.6,0.1c3.1-0.1,6.3-0.7,8.9-0.9c-1.8,1.3-0.3,2.6-2.7,3.5l5.2,1.5l-2.2,1.4
			c2.8-1.2,4.6,1,5.2-1.7c-0.7,0.1-0.7,0.5-1.7,0c0.4-0.7,1.9-2,4.5-0.9c1.5,1.3-1.4,0.6-1.2,1.5c2.1-0.4,1.5,1.3,3.6,1.3l-1.1-1.7
			c1.8-0.9,2.9,1.1,4.9,1.1c-2.3-0.2-2,0.9-1.6,2.1l0-0.2c1.3,0.4,3.4,0.1,3.9,1.3l-1.9,1.6l2.5-0.7c0.6,0.5,0.8,1.5-0.6,1.4
			c5.1,3.7,1.8-4.4,8.4,0.8c-0.5,0.7-1.5,0.8-3.3-0.5c-0.9,1.1-0.7,2,1.1,3.4c0,0.1-0.1,0.2-0.1,0.2c1.9,0.9,4.1,1.9,6.2,2.8
			C239.3,133.3,241.2,134,242.8,133.9z"/>
		<path fill="#FFC235" d="M231,129.7c-2-1-3.8-1.7-4.7-1.8C226.6,128.4,230.6,131,231,129.7z"/>
		<path fill="#FFC235" d="M472.1,357.1c-0.2-0.2-0.5-0.4-0.7-0.5C471.6,356.8,471.9,356.9,472.1,357.1z"/>
		<path fill="#FFC235" d="M484.6,370.5c0-0.3-0.1-0.7-0.3-1C484,369.7,484,370.1,484.6,370.5z"/>
		<path fill="#FFC235" d="M364.4,226.4C364.4,226.4,364.5,226.4,364.4,226.4C364.5,226.4,364.4,226.4,364.4,226.4z"/>
		<path fill="#FFC235" d="M429.9,305.5c1.5,0.8,2.4,1,2.9,0.7C432,305.5,431.1,305.1,429.9,305.5z"/>
		<path fill="#FFC235" d="M409.4,277.4c-0.2-0.1-0.4-0.2-0.7-0.3C409.1,277.4,409.3,277.5,409.4,277.4z"/>
		<path fill="#FFC235" d="M359.9,223.3c1.6,0.6,3.1,2.1,4.6,3.1C363.1,225.6,361.6,223.1,359.9,223.3z"/>
		<path fill="#FFC235" d="M501.7,385c-0.7-0.2-1.4-0.3-2.1-0.5c0.6,0.3,1.3,0.5,1.9,0.8L501.7,385z"/>
		<path fill="#FFC235" d="M489.4,373.2c-0.3-0.7-2.9-2.5-2.7-1.4C487.7,372,488.6,372.6,489.4,373.2z"/>
		<polygon fill="#FFC235" points="448.6,322.3 447.3,322.4 448.9,323 		"/>
	</g>
	<g>
		<polygon fill="#FFC235" points="542.8,459.4 542.4,458.3 540.5,459.7 		"/>
		<path fill="#FFC235" d="M523.1,457.8c-0.9,0.5-2.3,0.9-3.4,1.4c-1.2,0.5-2.1,1.1-2.3,2.2c0.6-0.2,1.2-0.5,1.8-0.7l1.8-0.9
			c0.2,1.8,2.4,1.9,4.4,1.5l-2.2-0.1c0.6-0.2,0.3-1.3,0.9-1.5c1.6,0.6,2.6,0.4,3.6,0.1c1-0.2,2-0.3,3.4,0.7l-0.2,0.2l2.4-1
			c0.7,0.3,0.4,1.1,0.2,1.4c0.5-0.2,1-0.4,1.5-0.6c0.5-0.2,1-0.5,1.5-0.7c1-0.4,2.1-0.6,3.5-0.7c-1.2-1.5-2.7-0.8-4.2-0.2
			c-1.5,0.7-3.1,1.2-4.2-0.4l0.2-0.2c-1.4,0.5-2.9,0.3-4.3,0C526,458,524.6,457.6,523.1,457.8z"/>
		<path fill="#FFC235" d="M533.5,461.1c-0.1,0-0.1,0.1-0.2,0.1C533.3,461.3,533.4,461.2,533.5,461.1z"/>
		<path fill="#FFC235" d="M433.6,409.7l-0.4,0.3C433.4,409.9,433.7,409.9,433.6,409.7z"/>
		<path fill="#FFC235" d="M457.1,437c0-0.1-0.1-0.1-0.1-0.1C456.4,437.3,456.6,437.2,457.1,437z"/>
		<path fill="#FFC235" d="M315.7,253.5l0-1C315.4,253.1,315.5,253.3,315.7,253.5z"/>
		<path fill="#FFC235" d="M278.9,219.9L278.9,219.9C278.9,219.9,278.9,219.9,278.9,219.9z"/>
		<path fill="#FFC235" d="M290.4,241.4l-0.4,0.5C290.3,241.7,290.4,241.5,290.4,241.4z"/>
		<path fill="#FFC235" d="M277.7,232.6c-0.2-0.4-0.5-0.7-0.8-1C276.9,232.1,277.2,232.5,277.7,232.6z"/>
		<path fill="#FFC235" d="M279.5,220c-0.2,0-0.4,0-0.6-0.1C279.1,219.9,279.3,220,279.5,220z"/>
		<path fill="#FFC235" d="M306.2,258.4l-0.8,1.6C305.8,259.6,306,259,306.2,258.4z"/>
		<path fill="#FFC235" d="M273.9,231.4c0-0.4-0.1-0.7-0.3-0.9C273.5,230.9,273.6,231.2,273.9,231.4z"/>
		<path fill="#FFC235" d="M520.1,457.6c0.4,0,0.9,0,1.5-0.1C521.1,457.4,520.6,457.5,520.1,457.6z"/>
		<path fill="#FFC235" d="M357.2,329.5c-0.2,0-0.4,0-0.7,0.1C356.8,329.8,357,329.7,357.2,329.5z"/>
		<path fill="#FFC235" d="M328.3,287l-0.1-0.1c0,0.1-0.1,0.2-0.1,0.3L328.3,287z"/>
		<path fill="#FFC235" d="M337.3,298.9c-0.1,0-0.3,0-0.4,0C337.1,299,337.2,298.9,337.3,298.9z"/>
		<path fill="#FFC235" d="M320,279.1c-0.2-0.1-0.5-0.1-0.8-0.1L320,279.1z"/>
		<path fill="#FFC235" d="M314.6,269.7c-0.1,0.7-0.9,0.7-1.7,0.7c1.1,2.5,3.2,1.9,3.9,5l-0.2-1.5c2.1,0.6,4.4,3,4.1,5.3l-0.7-0.1
			c2.1,0.5,1.8,4.2,3.2,4c0.1-1,0.9-0.7,0.8-2c1.3,0.9,2.5,1.7,3.8,2.6l-1.6,1.6l2,1.4c0.4-1,1.3,2.9,3,1.7c0.1,1.5-1.7,0.6-2.7,0.7
			c1.3,0.6,0.6,1.3,2.4,1.5L330,293l3.1,1.9c-0.3,0-0.2,0.2-0.5,0.2c2.3,0.3,1.5,3.8,5,3.7c-0.1,0-0.2,0.1-0.3,0.1
			c1.9,0,2.5,2.8,2.8,3.8c1.3,1.2,2-0.5,2.7-0.9c2.5,4.5,1.7,3.1,6,5.3c-0.6,3.5-5-0.3-4.6,3.4c1.2-0.3,3.3,1,5.1,2.9
			c0.6,2.4,2.2,6,2,8.8l1.2-1.1l2.6,2.2l-3-0.3c0.7,0.1,2.5,1,3.8,1.4c3,2.1-1.9,3.5,1.6,4.4c-0.1,0.2-0.2,0.4-0.3,0.5
			c1.5,0,2.4,2.2,4.2,4.1l-2.2,0.4l-0.5-1.6c-1.2,1.9,1.8,2.1,2.6,3.6c1.5,1,2.5-0.6,3.5-0.2c0.3,0.6,1.3,1,1,1.7
			c0.3,1.6-1.9,1.5-2.9,1.6c2.5-0.1,2.5,0.4,4.8,2.4c-0.8,0.7-1.2,0.7-1.6,0.5c0.6,0.4,1.2,0.6,2.1,0.3l-0.5,1.5
			c0.4,3.7,5,0.6,6.6,4.3c-1.5-0.3,2.1,2.7,1.7,4.4c-1-1-2.2,2.2-3.6,2.2c1.1,3,2.7-0.3,4.6,1.5l-2.7,0.6c2.3,1.4,1.5-0.3,3.6,1.4
			c-1-0.2,0.1,1.3-1.5,0.5c1.6,2.9,1.3,2,2.7,4.6l2.2-1.2c0.8,0.6,0.1,1.6-0.1,2c-0.3-0.3-0.5-0.9-0.8-0.6c-1.1,2.2,2,0.8,1.2,3
			c0.5-0.7,1.1-1.6,2-0.7c-1.5,0.6-0.1,2.3-0.6,2.8c0.4-1.2,1.9,1.8,3.3,1c-0.1,1.8-1.2,0.3-1.9,0.7c2.2-0.2,3.1,3.8,4.6,4
			c-0.1,0.1-0.2,0.2-0.2,0.3c1.8,0.5,3.5,2.3,6.6,3.6l-1.7,0.1c1.3,2.7,3.5-0.4,4.9,1.6c-1.9,0.8,2.5,3.1,0.1,3.6
			c1.8,0.4,3.2,1.3,5.1,1c0,1.8-3.8-0.4-3.1,1.5l2.1,1l-0.6,1c0.7-0.4,1.9,0.9,2.3,0.5c-0.8,1.1-1,2.3-1.9,2.8
			c1.1,0.8,1.3,3,2.9,3.1l-0.4,0.5c1.3-0.3,2.1,0.4,2.8,1c0.7,0.6,1.4,1.2,2.5,0.6l-0.5,1.5c1.5,1.4,3.2-0.6,4.2-0.3
			c0.6,0.5,1.4,1.1,1.8,1.9c-2.9-0.9-0.6,2.3-0.9,3.3c0.7,0.8,2.8,2.9,4.3,2.6c-1.8,0-2,1.2-3.6-0.3c-1,2.5,2.7,2.1,4.1,4.2
			l-0.9,0.8c3,2,4.5,0.7,7,0.4c-0.7,1.3-1.2,1.3-3,1.6c1,2.3,4.4,4.2,6.2,6.2c-0.1,1.3-0.9,1.4-1.8,1.1c2.7,1.2,4.4,4.4,7.4,3.7
			c-1.2,0.3,0.4,1.2,0.8,2.3c0.3-0.4,0.9-0.8,1-0.6c1.9,0.4,5.4,1.9,6.3,3.9l-1,0.1c0.8,0.8,1.7,1.3,2.6,1.6
			c0.9,0.3,1.8,0.4,2.8,0.6c1.8,0.4,3.5,0.9,5,3.1c0.4,0.9-2,1.2-0.4,2.1c1.3-0.3,2.1-2,3.7-0.3l-1.1,1.3l2.2-0.5
			c0.1-1.6-2.2-2.6,0.1-2.9c0.8,2.4,2.3-0.3,3.3,2.6c-0.6-0.2-1.9,0.4-2.6,0.8c0.4,0.6,0.8,1,1.2,1.4c0.4,0.4,0.9,0.7,1.3,0.9
			c0.9,0.5,1.8,0.8,2.6,1.2c1.8,0.6,3.5,1.3,5.3,3.5c2.9,0.1,6,1.6,8.1,1.3c-0.9,1.4-1.5,2.7-3.2,3.3c1.9,1.2,4.6-1.7,4.9,1.2
			c1-0.8,2.5-0.4,4.1-0.2c1.6,0.2,3.1,0.2,3.9-1.2c-0.2,0.6,2.2,1-0.7,1.7c3.2,0.2,2.6,4.2,3.9,4.6c0.8,0.2-0.1-2.2,1.6-1.6
			c0.2,0.2,0.1,0.5,0.2,0.7l0.9-0.5c0.4,0.9-1.3,1.2-1.6,1.9c1.1,0.8,2.2,0.7,3.4,0.5c1.2-0.2,2.5-0.4,4-0.1l-0.7,0.4l2.8,1
			l-0.2,0.1l2.6-0.4l-0.3,0.8c0.6-0.1,0.9-0.5,1.6-0.4l-0.5,0.9c1.2-1.3,4.1-1.5,5.5-1.2l0.2,0.5l3.6-1.2c1.5,1.4-2.6,2,0.9,1.8
			l-1.3,1.9c2.6-0.4,2.7,0.8,4.5,0.4c-0.6-1.2-1.7-1.2-0.7-2c1.5,2.6,3.1,0,5-0.8c-0.9,0-1.5-0.2-2.3,0.9c-1-0.2-0.2-1.1-0.8-1.3
			l-1.6,0.9l-0.1-1.5l-2.5,0.7c0.5-1.6-2.1-0.6-0.8-2.1c-1.7,0.3-2.4-1.1-4.2,0.2c-0.8-1.2,2-0.8,0.9-1.2
			c-6.7-0.1-13.2-2.6-19.4-5.6c0.3-0.1,0.6-0.3,0.9-0.4c-0.9,0.5-1.9,0.6-2.6,1c-0.6-1.7-4-5-6.5-3.5c-0.1-0.2,0.3-0.4,0.6-0.5
			c-1.1-0.4-2.4-1.4-3.7-2.5c-0.7-0.5-1.4-1.1-2.1-1.6c-0.7-0.5-1.4-1-2.2-1.4c-2.5,1.6-3.4-3.8-6.3-1.4l1-0.3
			c0.5,1.4-2.6,1.3-3.5,1.8c0.4-2.5,0.9-1.6,1.1-4l0.7,1.4l0.8-1.8c-3,1-4.4-0.5-5.5-2c-1-1.6-1.8-3.2-3.9-2.5
			c0.2-0.1,0.4-0.3,0.6-0.4c-0.8-1.9-3.2-0.5-4.6-0.8c0.4-0.9,1.5-0.8,2.5-1.1c-1-1.1-2.9-2-4.8-3c-1.9-0.9-3.7-2-4.5-3.7
			c-1.7,0.3-0.7,1.6-2.3,1.6c-0.6-0.9-0.5-2.2,0.9-1.9c-0.2-0.9-0.8-1.7-1.6-2.4c-0.4-0.3-0.9-0.7-1.4-1c-0.5-0.3-1-0.7-1.6-1
			c-2.2-1.4-4.6-2.9-5.4-5.3c-2.7-0.6-2.1,0.9-5.3-0.9c1.3-0.1,1.6-2.8,3.2-1.4l0.9-0.6c-2.4-2.5-5.4-6.2-8.8-5.7
			c1.5-1.5-0.2-0.7-0.2-2.5c-0.5-0.2-0.2,0.3-0.2,0.5c-2.2,0.3-1.3-1.5-2.1-2l0.5,0l-2.7-1c-0.1-0.5-0.2-1.2,0.2-1.7l-1.1,1
			c-0.9-1,0.9-1.7-0.5-2.8l-0.6,1c-0.2-1.3-2.5-1.6-1.4-2.8c0.2-0.2,0.2,0,0.5,0.3c0.6-2.8-3.5-2.9-4-5.2l-1.5,1.9
			c-1.9-1.1-0.4-1.3,0.3-1.8c-0.9-1.1-0.5-1.8-1.4-3.4c-1-0.3-1,0.2-1.7,0.4l-0.7-1.8l1.8,0.1c-4.5-0.1-4.1-5.9-7.8-5.5
			c-0.1-1.3,1.7-0.1,1.7-0.9c-0.8-3.6-6.4-4.7-6.6-8.1c-1.3-4.7-5.8-8.1-7.7-13l-0.5,0.4l-1.6-3.3c-1.7,0-2.6-2.4-4.8-2.8
			c0.5-0.2,1-0.9,1.5-0.8c-1-1.2-2.6-2.2-2.4-3.5l0.7,0.1c-1.6-3.1-4.2-7.1-6.2-8c-0.8-0.9,0.2-1.5,0.7-2.2c-1-1.7-2.3-2.5-4.1-3.3
			c0-0.5,0-1,0.2-1.8l-1.7,0.2c-0.3-0.8,1-0.9,0.9-1.6c-3.3-1.6-3.9-5.6-5.2-7.4l-0.5,0.7c-1-0.4-1.1-2.5,0.2-2
			c-1.6-4.2-5.6-4.1-8.5-9.3c1.9-2.3-3.7-4-1.5-6.5c-2.1-1.6-1.9-3.7-4.4-4.1c0.2-0.2,0.2-0.5,0.5-0.2c0.4-1.5-2.2-3.7-4.3-5.3
			l0.7-0.7c-2.2,0.4-4.2-3.5-6.5-3c0.2-0.5,1-0.1,1.5,0c0.8-2.2-2.1-1.3-2.7-3c0.5-0.2,0.7-0.9,1.2-0.9c-0.8-2.9-3.1-5.5-5.7-8.2
			c-1.3-1.3-2.6-2.7-3.9-4.1c-1.3-1.4-2.4-2.9-3.2-4.6c-1.2-1.7-1.3,1.9-2.8-0.2c0.3-1.3,2.5-0.3,1.8-1.9c-1.8-0.2-1.9-0.7-2.8-2
			c0.7-0.2,0.9-0.7,2-0.1c0.1-1.3-3.9-2.1-3.7-4.7c-0.4,0.5-0.9,0.5-1.4,0.4c-3.2-0.9-2.8-6.1-3.8-5.6c0,0-0.9-0.6-0.5,0.2
			c-0.6-0.8-1.4-2.1-0.5-2.6c-0.8,0-1.8,0.2-2.4-0.3l1.2-0.5c-0.5-0.2-1.4-0.1-1.9-0.3l0,1c-0.1-1.5-3.4-1.6-1.7-3.1l0.3,0.3
			l-0.7-2.3c-1.3,0-2.6,0-3.4-1.3c1.3-2.1-2.3-3.1-3.4-4.6l0.6-0.5c-1.9-0.2-4.3-3.2-4.1-2.4c-1-1-2.1-2.8-1-2.8
			c-1.1-0.5-3-2.1-4.4-1.5l-0.4-3.1c-1.5,0.6-2.2-0.4-2.8-1.2c-0.6-0.8-1.2-1.6-2.2-0.4c-0.7-1.2,0-1.6-0.4-2.6
			c-2.4,0-3.7-1.4-5-2.8l0.2-0.3c-1.4-1.4-4.1-1.5-6.3-2.9l0.9-2.3c-1.4-0.5-2.7,0.8-3.5-0.4c0-0.5,0.3-0.4,0.6-0.3
			c-1.4-0.4-2.5-1.9-3-2.9c-2.6,0.2-3.6-1-6.1-0.4c-0.2-2.6,2.5,0.4,2.4-1.9c-1.9-2.5-5-3.1-8.3-3.7c0-0.5,0.5-0.7,0.8-1.1
			c0,0-2.1,0.5-4.2,1.3c-2.1,0.8-4.1,2-4.1,3.3c-1.4,1-2.6,1.4-0.9,3.8c1.2-0.4,3.8-0.2,3.4,1.5l0.9-1.4c3.4,1-1.4,3,2.2,5.1
			l-0.5-0.9c0.7,0.3,1.8-0.3,2.2,0.7c0,0.5-0.6,0.4-1.1,0.6l4.1-0.1c-0.4,0.9-0.8,1.2-1.7,1.5c2.7,1.6,1.1-2.9,4-0.3
			c0.2,1-0.8,0.7-1.5,0.9c0.7,2.1,2.4,1.7,4.4,2c-0.8,1.2-1.7,0.4-1,2c0.2-0.8,0.8-2,1.8-1.4c-1.3,0.9,0.3,1.2,1,2.1
			c0.1-0.5,0.6-1.1,1.1-1c0.6,0.1,0.6,0.9,1.3,1.3c-0.1-0.7-0.2-1.4-0.3-2c2.4,0,2,2.5,2.8,3.9c-0.3,0.1-0.6,0.1-0.9,0
			c0.9,1.4,1.4,3.3,3.8,3.5l-0.2,0c3.8,1.2,0.6-2.7,4.9-0.9c0.9,1.2-3.6,3.3,0,4.1c-0.4-2,3.6-1,5.4-0.1l-3.3,0.9
			c0.6,0.5,2.1,0.8,2.2,1.3l0.4-0.5c1.5-1.9,1.6,1.9,3.6,1.7c-3.5,1.3-3.1,0.8-5.6,3c2.2-0.5,4.5-0.7,6,1.2l-3.2,0.5
			c1.9,2.6,7.3,2.5,10.7,2.9c-1.8,0.8-1.6,2.1-3.5,2.4l2.4,1.9l-2.1,0.8c2.4-0.6,2.3,1.4,4.2-0.6c-0.5,0-0.7,0.3-1.1-0.2
			c0.6-0.5,2.2-1.3,3.3-0.1c0.3,1.3-1.2,0.3-1.6,1c1.5,0,0.3,1.2,1.6,1.5l0.2-1.5c1.7-0.5,1.3,1.3,2.6,1.5c-1.4-0.5-1.7,0.5-2.1,1.5
			l0.1-0.2c0.6,0.5,2.1,0.5,1.8,1.5l-2.1,1l2-0.3c0.1,0.5-0.3,1.3-1.1,1c1.4,3.5,3.5-3.3,5.1,1.6c-0.7,0.5-1.4,0.5-1.9-0.8
			c-1.1,0.7-1.5,1.5-1,2.8c-0.1,0.1-0.1,0.1-0.2,0.2C310.4,267.1,312.4,269.5,314.6,269.7z"/>
		<path fill="#FFC235" d="M308.9,265.2c-0.8-1-1.6-1.8-2.1-1.9C306.6,263.7,307.9,266.2,308.9,265.2z"/>
		<path fill="#FFC235" d="M427,419.1c-0.2-0.1-0.3-0.1-0.5-0.2C426.7,419,426.8,419,427,419.1z"/>
		<path fill="#FFC235" d="M435.3,425.8c0.1-0.3,0-0.5-0.1-0.7C434.9,425.4,434.8,425.7,435.3,425.8z"/>
		<path fill="#FFC235" d="M365.9,341.8L365.9,341.8L365.9,341.8z"/>
		<path fill="#FFC235" d="M400,391.2c1.1,0.3,1.8,0.2,2.3-0.1C401.7,390.7,401,390.6,400,391.2z"/>
		<path fill="#FFC235" d="M388.4,374.4c-0.2,0-0.3-0.1-0.5-0.1C388.2,374.5,388.3,374.5,388.4,374.4z"/>
		<path fill="#FFC235" d="M363.3,339.8c1.1,0.3,1.7,1.4,2.6,2C365.1,341.3,364.8,339.6,363.3,339.8z"/>
		<polygon fill="#FFC235" points="446.9,432.1 445.3,432.3 446.7,432.3 		"/>
		<path fill="#FFC235" d="M438.7,426.5c-0.2-0.5-2-1.1-2-0.3C437.5,426.1,438.1,426.3,438.7,426.5z"/>
		<polygon fill="#FFC235" points="412.8,399.2 411.6,399.6 412.8,399.7 		"/>
	</g>
	<g>
		<polygon fill="#FFC235" points="703.4,529.9 704.3,530.6 705.1,528.5 		"/>
		<path fill="#FFC235" d="M719.2,519.9c0.5-2,2.4-4.6,0.9-6.4c-0.3,1.2-0.6,2.3-0.9,3.5c-1.5-1.1-2.8,0.3-3.8,1.8
			c0.5-0.4,1-0.9,1.4-1.3c-0.2,0.5,0.7,1.1,0.5,1.7c-2.9,1.2-2.1,3.5-5.4,3.7l0-0.2l-1.1,2.2c-0.7,0.2-1-0.6-1-1
			c-0.5,0.9-1,1.8-1.5,2.7c-0.6,0.8-1.4,1.6-2.5,2.2c1.7,0.7,2.7-0.5,3.5-1.9c0.9-1.4,1.7-2.7,3.5-2l0,0.2c0.7-1.2,1.9-1.9,3.2-2.6
			C717.2,521.8,718.5,521.1,719.2,519.9z"/>
		<path fill="#FFC235" d="M709.8,523.8c0-0.1,0.1-0.1,0.1-0.2C709.9,523.6,709.8,523.7,709.8,523.8z"/>
		<path fill="#FFC235" d="M770.9,438.4l-0.5-0.2C770.6,438.4,770.8,438.6,770.9,438.4z"/>
		<path fill="#FFC235" d="M754.2,466.9l0.1-0.1C753.8,466.3,753.9,466.5,754.2,466.9z"/>
		<path fill="#FFC235" d="M724.2,273l0.1-1C724,272.6,724,272.9,724.2,273z"/>
		<path fill="#FFC235" d="M692.5,242.9L692.5,242.9C692.4,242.8,692.4,242.9,692.5,242.9z"/>
		<path fill="#FFC235" d="M701.3,262.9l-0.4,0.5C701.2,263.2,701.3,263,701.3,262.9z"/>
		<path fill="#FFC235" d="M690.1,255.1c-0.2-0.4-0.4-0.7-0.7-0.9C689.4,254.6,689.8,254.9,690.1,255.1z"/>
		<path fill="#FFC235" d="M693,242.9c-0.2,0-0.3,0-0.5,0C692.6,242.9,692.8,242.9,693,242.9z"/>
		<path fill="#FFC235" d="M714.8,278.1l-0.9,1.5C714.4,279.2,714.6,278.7,714.8,278.1z"/>
		<path fill="#FFC235" d="M686.7,254c0-0.4-0.1-0.6-0.2-0.9C686.4,253.5,686.5,253.8,686.7,254z"/>
		<path fill="#FFC235" d="M721.4,518c-0.3,0.3-0.6,0.6-0.9,1.1C720.9,518.8,721.2,518.4,721.4,518z"/>
		<path fill="#FFC235" d="M753,342.9c-0.2,0-0.4,0-0.7,0C752.6,343.2,752.8,343.1,753,342.9z"/>
		<path fill="#FFC235" d="M733.2,303.6l-0.1-0.1c0,0.1-0.1,0.2-0.1,0.3L733.2,303.6z"/>
		<path fill="#FFC235" d="M740.3,314.4c-0.1,0-0.3,0-0.4,0C740.1,314.5,740.2,314.5,740.3,314.4z"/>
		<path fill="#FFC235" d="M726.2,296.6c-0.2,0-0.4-0.1-0.7,0L726.2,296.6z"/>
		<path fill="#FFC235" d="M721.9,288.2c-0.2,0.7-0.9,0.7-1.6,0.7c0.8,2.3,3,1.6,3.3,4.4c0-0.5,0-0.9,0-1.4c1.9,0.5,3.8,2.7,3.4,4.8
			l-0.7,0c2,0.4,1.3,3.7,2.6,3.6c0.2-0.9,1-0.6,0.9-1.8l1.7,1.1l1.6,1.2l-1.7,1.5l1.7,1.2c0.5-0.9,0.9,2.6,2.7,1.5
			c-0.1,1.4-1.7,0.5-2.6,0.7c1.2,0.6,0.4,1.2,2.1,1.4l-1,2c0.9,0.5,1.8,1.1,2.7,1.7c-0.2,0-0.3,0.2-0.5,0.2c2.1,0.3,0.9,3.4,4.2,3.4
			c-0.1,0-0.2,0-0.3,0.1c1.8,0,2,2.6,2.1,3.5c1,1.2,1.9-0.3,2.7-0.7c1.6,4.2,1,2.8,4.8,5.1c-1.2,3.1-4.7-0.6-5,2.7
			c0.6-0.1,1.4,0.2,2.1,0.7c0.4,0.3,0.8,0.6,1.2,1c0.4,0.4,0.7,0.8,1,1.3c0,2.2,0.8,5.5,0,7.9l1.4-0.8c0.7,0.7,1.3,1.5,1.9,2.3
			c-0.9-0.2-1.8-0.4-2.8-0.6c0.7,0.2,2.1,1.1,3.2,1.7c2.3,2.2-2.7,2.8,0.4,4.1c-0.1,0.1-0.3,0.3-0.4,0.4c1.4,0.3,1.7,2.2,2.8,4.1
			l-2.2-0.1l-0.1-1.5c-0.8,0.7-0.5,1.2,0,1.7c0.5,0.5,1.2,1.1,1.4,1.7c1.1,1.2,2.5,0,3.3,0.5c0.1,0.5,0.9,1.1,0.4,1.7
			c-0.2,1.4-2.3,0.8-3.2,0.7c2.4,0.4,2.2,0.9,3.8,3c-0.9,0.4-1.4,0.3-1.7,0.1c0.4,0.4,1,0.7,1.9,0.8c-0.3,0.4-0.6,0.7-0.9,1.1
			c-1,3.2,4.4,1.7,4.5,5.2c-1.3-0.6,0.9,2.8-0.1,4.1c-0.6-1.1-2.8,1.2-4.2,0.7c-0.3,2.8,2.6,0.6,3.4,2.6l-2.7-0.4
			c1.5,1.8,1.4,0.2,2.6,2.2c-0.8-0.4-0.5,1-1.5,0c0.2,2.8,0.3,2,0.5,4.5l2.5-0.2c0.4,0.8-0.6,1.2-1,1.5c-0.1-0.3-0.1-0.9-0.4-0.8
			c-1.9,1.2,1.4,1.4-0.4,2.7c0.7-0.4,1.8-0.8,2.1,0.2c-1.5-0.1-1.2,1.7-1.8,1.9c1-0.8,0.7,2.1,2.4,2.1c-1,1.3-1.2-0.3-2.1-0.2
			c2,0.8,0.6,4,1.8,4.8c-0.2,0-0.3,0.1-0.4,0.1c1.2,1.2,1.7,3.2,3.4,5.6l-1.4-0.8c-0.6,2.5,3,1.4,3,3.6c-1-0.2-1,0.7-0.9,1.5
			c0,0.8,0,1.6-1.1,1.1c1.1,1.3,1.6,2.6,3.4,3.5c-1.2,1.2-2.7-2.4-3.3-0.7l1,1.8l-1.1,0.3c0.8,0.1,0.8,1.7,1.5,1.6
			c-1.3,0.2-2.3,0.9-3.3,0.8c0.3,1.1-1,2.6,0.1,3.6l-0.6,0c2.3,1.3,0.2,3.4,2.7,4.2l-1.4,0.6c0,1.7,2.6,1.7,3.1,2.6
			c0,0.7,0.2,1.6-0.1,2.3c-1.4-2.5-2.1,0.9-3.1,1.2c-0.2,0.9-0.4,3.5,0.8,4.4c-1.1-1.3-2.3-0.8-2.1-2.7c-2.6,0.6,0.1,2.9-0.6,5
			l-1.1-0.2c0.2,3.1,2.1,3.6,3.8,5.3c-1.5,0.1-1.8-0.3-3-1.5c-1.3,1.8-1,5.1-1.8,7.3c-1.2,0.4-1.6-0.2-1.8-1
			c0.5,2.6-1.6,4.9,0.4,7.1c-0.8-0.8-0.9,0.7-1.6,1.4c0.5,0.2,1.1,0.5,1,0.6c0.5,1.7,0.5,5.1-1,6.4l-0.5-0.8
			c-0.9,1.8-0.4,3.4-0.2,5.1c0.2,1.6,0.2,3.3-1.5,4.9c-0.8,0.5-1.6-1.5-2.2-0.1c0.5,1.1,2.4,1.6,1.1,3.2l-1.5-0.8l1,1.9
			c1.5-0.1,2-2.3,2.8-0.3c-2.2,1,0.8,2.1-1.9,3.3c0.1-0.5-0.8-1.7-1.2-2.3c-1.9,1.6-2.2,3.3-2.6,4.9c-0.4,1.6-0.8,3.2-2.9,4.8
			c0,2.6-1.3,5.4-1.2,7.4c-1.3-1-2.6-1.8-3.1-3.3c-1.2,1.5,1.4,4.3-1.3,4.2c1.4,2-1.9,5.3,0.4,7.6c-0.6-0.3-1.3,1.7-1.5-1
			c-0.8,2.8-4.4,1.3-5.1,2.2c-0.3,0.6,2.1,0.6,1.2,1.9c-0.2,0.1-0.5-0.1-0.7,0l0.2,0.9c-1,0-0.8-1.5-1.4-2.1c-1.9,1.3-0.8,4-2.4,6.2
			l-0.1-0.7l-1.8,2l0-0.2c-0.2,0.8-0.4,1.6-0.6,2.4l-0.6-0.6c-0.2,0.5,0.1,1-0.3,1.5l-0.6-0.8c0.7,1.6-0.4,4.1-1.3,5l-0.5-0.1
			l-0.7,3.6c-1.9,0.3-0.2-3.2-2-0.4l-0.9-2.1c-1,2.2-2.1,1.5-2.7,3.1c1.2,0.3,1.9-0.5,1.9,0.7c-2.9-0.6-1.6,2.4-2.3,4.2
			c0.6-0.6,1.1-1,0.7-2.3c0.7-0.6,1,0.6,1.5,0.3l0.2-1.7l1.2,0.8c0.3-0.8,0.6-1.5,0.9-2.3c1,1.3,1.6-1.3,2.2,0.6
			c0.6-1.6,2.1-1.4,1.9-3.6c1.5-0.1-0.3,2,0.6,1.4c3.4-5.4,7.7-10.1,12.1-15l0.2,1c-0.2-1-0.2-2-0.4-2.7c1.7-0.1,5.6-2.7,4.4-5.3
			c0.2-0.1,0.4,0.4,0.4,0.6c0.5-1,1.6-2.1,2.8-3.2c1.2-1.2,2.4-2.5,3.1-3.9c-0.8-1.2,0.1-2,1-2.9c0.8-0.9,1.5-1.8,0.2-3.1l0.4,0.9
			c-1.4,0.4-1.5-2.5-2.1-3.3c2.5,0.3,1.6,0.8,4,0.9l-1.3,0.7l1.8,0.7c-1.2-2.9,0-4.2,1.4-5.4c1.4-1.1,2.8-2.1,1.7-4
			c0.1,0.2,0.4,0.3,0.5,0.5c1.7-1-0.1-3.1-0.2-4.4c0.9,0.3,1.2,1.3,1.6,2.1c0.9-1.2,1.2-3.1,1.6-5.1c0.4-1.9,0.8-3.9,2.1-5.1
			c-0.8-1.5-1.8-0.2-2.3-1.6c0.7-0.8,1.9-1.1,2.1,0.3c1.6-0.9,1.9-3.2,2.3-5.6c0.3-2.5,0.6-5,2.2-6.8c-0.9-2.5-1.8-1.3-1.9-4.8
			c0.7,1,3.3,0,2.9,1.9l0.9,0.5c1-3.2,2.3-7.6-0.2-9.9c2.1,0.3,0.5-0.5,1.9-1.6c-0.1-0.5-0.3,0-0.5,0.2c-1.5-1.5,0.4-1.8,0.3-2.7
			l0.3,0.4l-0.9-2.6c0.3-0.4,0.8-0.9,1.5-0.9l-1.5-0.2c0.2-1.3,2-0.4,1.8-2l-1.1,0.2c0.8-0.9-0.5-2.7,1.1-2.7c0.3,0,0.2,0.2,0.2,0.5
			c1.2-0.7,1.2-1.7,0.9-2.8c-0.2-1.1-0.6-2.3,0-3.2l-2.4,0.3c-0.6-2,0.6-1.1,1.4-1c0.1-1.3,0.9-1.5,1.2-3.2
			c-0.6-0.9-0.9-0.5-1.5-0.8l0.7-1.7l1.2,1.2c-1.7-1.4-1.5-3.1-1.3-4.6c0.2-1.5,0.4-3-1.2-3.9c0.7-1,1.4,0.9,1.8,0.3
			c0.7-1.6,0.1-3.4-0.4-5c-0.6-1.7-1.2-3.3-0.4-4.6c0.8-2.2,0.5-4.5,0.3-6.9c-0.3-2.3-0.7-4.7-0.5-7.2l-0.6,0.2l-0.1-3.4
			c-1.6-0.7-1.3-3-3.2-4.1c0.5,0,1.2-0.4,1.7-0.2c-0.4-1.4-1.4-2.8-0.8-3.8l0.6,0.4c-0.4-3.2-1.4-7.5-2.9-8.8
			c-0.4-1,0.7-1.3,1.4-1.8c-0.5-1.8-1.5-2.8-2.9-3.9c0.1-0.5,0.3-0.9,0.7-1.5l-1.7-0.2c0-0.8,1.2-0.6,1.4-1.3
			c-1.3-1.1-1.8-2.6-2.1-4c-0.3-1.4-0.5-2.8-0.9-3.7l-0.6,0.5c-0.9-0.6-0.4-2.5,0.7-1.8c-0.3-2-1.4-3.2-2.6-4.5
			c-1.3-1.3-2.7-2.6-3.6-5.1c2.3-1.8-2.7-4.1-0.2-6.1c-1.8-1.7-1.3-3.5-3.7-4.1c0.3-0.2,0.3-0.4,0.5-0.1c0.6-1.3-1.5-3.6-3.3-5.2
			l0.8-0.6c-2.2,0.3-3.7-3.4-5.9-3c0.3-0.4,1-0.1,1.5,0c1.1-2-1.9-1.3-2.2-2.8c0.5-0.2,0.8-0.9,1.3-0.8c-0.1-0.7-0.3-1.4-0.5-2
			c-0.3-0.7-0.6-1.3-1.1-1.9c-0.8-1.2-1.9-2.5-3-3.7c-1.1-1.2-2.2-2.5-3.3-3.8c-1.1-1.3-2-2.7-2.7-4.2c-1-1.5-1.4,1.8-2.7-0.2
			c0.4-1.2,2.4-0.3,1.8-1.8c-1.7-0.1-1.7-0.6-2.5-1.8c0.7-0.2,0.9-0.7,1.9-0.1c0.2-1.3-3.5-1.8-3.2-4.2c-0.4,0.5-0.9,0.5-1.4,0.4
			c-3-0.8-2.2-5.6-3.1-5.1c0,0-0.8-0.5-0.5,0.2c-0.5-0.7-1.2-1.9-0.3-2.4c-0.7,0-1.7,0.3-2.2-0.2l1.2-0.5c-0.5-0.1-1.4,0-1.7-0.2
			l-0.1,1c0-1.4-3.1-1.3-1.4-2.8l0.3,0.2l-0.6-2.2c-1.2,0-2.4,0.1-3.1-1.1c1.4-2-2-2.7-3-4.1l0.6-0.5c-1.8-0.1-3.8-2.8-3.6-2.1
			c-0.9-0.9-1.7-2.5-0.8-2.6c-1.1-0.4-2.7-1.9-4-1.2l-0.2-2.9c-2.9,1.4-2.4-3.6-4.6-1.3c-0.5-1.1,0.1-1.5-0.1-2.4
			c-2.3,0.1-3.4-1.1-4.5-2.4l0.2-0.3c-1.1-1.3-3.7-1.3-5.6-2.6l1.1-2.2c-1.2-0.5-2.6,0.8-3.2-0.3c0-0.5,0.3-0.4,0.6-0.3
			c-1.2-0.3-2.1-1.7-2.4-2.7c-2.4,0.3-3.2-1-5.5-0.4c0.1-2.5,2.2,0.5,2.4-1.8c-1.4-2.4-4.3-2.8-7.1-3.5c0.1-0.5,0.5-0.6,0.9-1
			c0,0-2,0.4-3.9,1.1c-2,0.7-4,1.8-4.2,3.1c-1.4,1-2.5,1.3-1.3,3.7c1.1-0.4,3.5-0.1,2.9,1.6l1-1.3c3,1.1-1.7,3,1.4,5l-0.3-0.9
			c0.6,0.3,1.7-0.3,2,0.6c-0.1,0.5-0.6,0.4-1.1,0.6c1.3-0.1,2.5-0.1,3.8-0.1c-0.5,0.9-0.8,1.2-1.8,1.5c2.3,1.6,1.3-2.8,3.6-0.2
			c0.1,1-0.8,0.7-1.5,0.9c0.4,2.1,2,1.6,3.9,1.9c-0.9,1.2-1.6,0.4-1.1,2c0.3-0.8,0.9-1.9,1.8-1.4c-1.3,0.9,0.1,1.1,0.7,2
			c0.2-0.5,0.6-1,1.1-1c0.5,0.1,0.5,0.8,1.1,1.2c0-0.6,0-1.3-0.1-1.9c2.2,0,1.6,2.3,2.3,3.6c-0.3,0.1-0.5,0.1-0.8,0
			c0.7,1.3,1,3.2,3.2,3.3l-0.2,0c3.5,1,0.8-2.5,4.7-1.1c0.8,1-3.6,3.2-0.3,3.9c-0.2-1.9,3.4-1,5-0.3l-3.2,1c0.5,0.5,1.9,0.7,2,1.1
			l0.4-0.5c1.5-1.9,1.4,1.7,3.3,1.4c-3.4,1.4-3,0.9-5.4,3.2c2.1-0.5,4.3-0.9,5.5,0.9c-1,0.2-2,0.4-3,0.6c1.6,2.3,6.6,2,9.8,2.2
			c-1.8,0.9-1.6,2-3.5,2.4l2.2,1.6l-2,0.9c2.3-0.7,2.1,1.2,4-0.8c-0.5,0-0.7,0.3-1-0.2c0.7-0.5,2.2-1.3,3.1-0.2
			c0.1,1.2-1.2,0.3-1.5,1c1.4-0.1,0.1,1.2,1.4,1.3l0.3-1.4c1.6-0.6,1.1,1.1,2.3,1.3c-1.3-0.4-1.7,0.5-2.1,1.5l0.1-0.2
			c0.5,0.4,2,0.4,1.6,1.3l-2,1l1.9-0.3c0.1,0.5-0.4,1.2-1.1,1c1.1,3.2,3.5-3.2,4.7,1.2c-0.7,0.5-1.4,0.5-1.8-0.6
			c-1.1,0.7-1.5,1.5-1.2,2.6c-0.1,0.1-0.1,0.1-0.2,0.2C718.2,285.9,719.9,288.1,721.9,288.2z"/>
		<path fill="#FFC235" d="M716.9,284.2c-0.7-0.8-1.4-1.5-1.9-1.7C714.8,283,715.9,285.2,716.9,284.2z"/>
		<path fill="#FFC235" d="M759.5,437.2c0-0.2-0.1-0.3-0.1-0.5C759.4,436.9,759.5,437,759.5,437.2z"/>
		<path fill="#FFC235" d="M757.7,446c0.3,0,0.4-0.1,0.6-0.3C757.9,445.5,757.5,445.6,757.7,446z"/>
		<path fill="#FFC235" d="M757.6,355L757.6,355L757.6,355z"/>
		<path fill="#FFC235" d="M763,404.9c0.7,0.8,1.2,1.1,1.8,1.2C764.6,405.6,764.1,405.2,763,404.9z"/>
		<path fill="#FFC235" d="M763.7,387.9c-0.1-0.1-0.2-0.2-0.3-0.3C763.5,387.9,763.6,387.9,763.7,387.9z"/>
		<path fill="#FFC235" d="M755.7,352.8c0.9,0.5,1.2,1.5,1.8,2.2C757,354.4,757.2,352.8,755.7,352.8z"/>
		<polygon fill="#FFC235" points="756.3,457.2 755.6,455.9 755.9,457.1 		"/>
		<path fill="#FFC235" d="M758.5,448.9c0.4-0.3,0.2-1.9-0.5-1.7C758.3,447.8,758.4,448.4,758.5,448.9z"/>
		<polygon fill="#FFC235" points="766.7,417.5 765.5,417 766.3,417.8 		"/>
	</g>
</g>
<g>
</g>
<g>
</g>
<g>
</g>
<g>
</g>
<g>
</g>
<g>
</g>
<g>
</g>
<g>
</g>
<g>
</g>
<g>
</g>
<g>
</g>
<g>
</g>
<g>
</g>
<g>
</g>
<g>
</g>
</svg>
