<svg xmlns="http://www.w3.org/2000/svg" viewBox="0 0 230 230"><title>usd</title><path d="M184.59,172.8c-.66-3.05-1.45-6.15-2.4-9.19-4.46-14.37-10.92-28-14.54-42.69-3.51-14.21-2.49-29.84-10.7-42.48a49.72,49.72,0,0,0-84.08,0c-7.84,12.06-9.11,26.73-11,40.72-2.57,18.78-11.7,35.78-16.41,54.08a3.67,3.67,0,0,0,6,3.69l.44-.39a3.66,3.66,0,0,1,4.83,0L64,183a3.66,3.66,0,0,0,4.83,0l7.37-6.46a3.66,3.66,0,0,1,4.83,0L88.43,183a3.66,3.66,0,0,0,4.83,0l7.36-6.46a3.66,3.66,0,0,1,4.83,0l7.9,6.93a2.85,2.85,0,0,0,3.76,0l7.9-6.93a3.64,3.64,0,0,1,1.93-.87A19.57,19.57,0,0,0,158.22,180l3.4,3a3.66,3.66,0,0,0,4.83,0l7.44-6.52a3.66,3.66,0,0,1,4.77-.05A3.67,3.67,0,0,0,184.59,172.8Z" style="fill:#fff"/><path d="M182.19,163.61c-4.46-14.37-10.92-28-14.54-42.69-3.51-14.21-2.49-29.84-10.7-42.48a49.72,49.72,0,0,0-84.08,0c-7.84,12.06-9.11,26.73-11,40.72-2.57,18.78-11.7,35.78-16.41,54.08a3.67,3.67,0,0,0,6,3.69l.44-.39a3.66,3.66,0,0,1,4.83,0L64,183a3.66,3.66,0,0,0,4.83,0l7.37-6.46a3.66,3.66,0,0,1,4.83,0L88.43,183a3.66,3.66,0,0,0,4.83,0l7.36-6.46a3.66,3.66,0,0,1,4.83,0l7.9,6.93a2.85,2.85,0,0,0,3.76,0l7.9-6.93a3.66,3.66,0,0,1,4.83,0l7.37,6.46a3.66,3.66,0,0,0,4.83,0l7.36-6.46a3.66,3.66,0,0,1,4.83,0l7.37,6.46a3.66,3.66,0,0,0,4.83,0l7.44-6.52a3.66,3.66,0,0,1,4.77-.05h0a3.67,3.67,0,0,0,5.93-3.6C183.93,169.75,183.14,166.65,182.19,163.61Z" style="fill:#f6f3db"/><path d="M101.37,93.54a9,9,0,1,1-9-9Z" style="fill:#fff"/><path d="M99.93,93.74C99.57,100.49,92,104.66,87,99a8.72,8.72,0,0,1-2.1-7.17,8.34,8.34,0,0,1,1.51-3.68c.75-1,3.29-3.55,4.63-3.1,1.53.51,3.6,3.6,4.73,4.73L100,94.08c.66.66,3.38-.41,2.7-1.09-2.74-2.74-5.44-6.38-8.6-8.6-3.42-2.4-9.29,1.76-11,4.8a9.54,9.54,0,0,0,7.35,14.05c6.17.71,12-3.59,12.36-9.91C102.87,92.27,100,92.87,99.93,93.74Z" style="fill:#fff"/><path d="M98.44,93.54a6.1,6.1,0,1,1-6.1-6.1Z" style="fill:#6f6f6f"/><circle cx="92.35" cy="93.45" r="3.45" style="fill:#545252"/><path d="M129.07,93.54a9,9,0,1,0,9-9Z" style="fill:#fff"/><path d="M127.62,93.92a10.16,10.16,0,0,0,12.65,9.31c6.26-1.43,10.27-8.24,7.29-14.23-1.73-3.47-7.51-7.44-11.07-4.42-3.06,2.59-5.76,5.76-8.6,8.6-1.25,1.25,1.57,1.51,2.38.69l9-9-1.72.61c6.47.35,10.51,7.7,6.5,13.15-4.9,6.64-13.18,1.25-13.54-5.46C130.45,92,127.55,92.65,127.62,93.92Z" style="fill:#fff"/><path d="M132,93.54a6.1,6.1,0,1,0,6.1-6.1Z" style="fill:#6f6f6f"/><circle cx="138.09" cy="93.45" r="3.45" style="fill:#545252"/><path d="M132.36,92.72c-1.18-2.11-13.53-7.88-17.6-7.88-4.89,0-16,5.14-17.61,7.88-2.37,4.16-3.13,9.27-.87,13.06l14.36,24.11c1.13,1.91,2.62,2.86,4.11,2.86s3-.95,4.11-2.86l14.36-24.11C135.5,102,135.21,97.78,132.36,92.72Z" style="fill:#f1d65c"/><circle cx="109.91" cy="92.17" r="2.47" style="fill:#ea9a32"/><circle cx="119.74" cy="92.17" r="2.47" style="fill:#ea9a32"/><path d="M57.53,170.84l7.88-20.51a.65.65,0,0,1,1.25.32l-3.11,22.19a2.27,2.27,0,0,1-3.31,1.69l-1.65-.87A2.27,2.27,0,0,1,57.53,170.84Z" style="fill:#e1e0c3"/><path d="M80.63,172.08l5.93-21.16a.65.65,0,0,1,1.28.2l-1,22.38a2.27,2.27,0,0,1-3.13,2L82,174.79A2.27,2.27,0,0,1,80.63,172.08Z" style="fill:#e1e0c3"/><path d="M172.3,170.84l-7.88-20.51a.65.65,0,0,0-1.25.32l3.11,22.19a2.27,2.27,0,0,0,3.31,1.69l1.65-.87A2.27,2.27,0,0,0,172.3,170.84Z" style="fill:#e1e0c3"/><path d="M149.19,172.08l-5.93-21.16a.65.65,0,0,0-1.28.2l1,22.38a2.27,2.27,0,0,0,3.13,2l1.73-.71A2.27,2.27,0,0,0,149.19,172.08Z" style="fill:#e1e0c3"/><path d="M117.2,171.81,114.47,150a.65.65,0,0,0-1.29,0l-2.3,22.29a2.27,2.27,0,0,0,2.81,2.44l1.82-.45A2.27,2.27,0,0,0,117.2,171.81Z" style="fill:#e1e0c3"/><circle cx="144.19" cy="166.34" r="19.58" style="fill:#d55644"/><path d="M139.57,180.38a14.68,14.68,0,0,0,2.2.53l-.76-1Z" style="fill:#2a629b"/><path d="M144.2,151.55h0a14.83,14.83,0,0,0-2.14.17v1.58l1.61.52-1.61.52V156l-1-1.37-1.63.52,1-1.37-1-1.37L141,153l.94-1.24A14.77,14.77,0,0,0,130.53,172l.95-1.34-1-1.37,1.71.52,1.09-1.37v1.7l1.61.52-1.61.52v1.7l-1.1-1.37-1.63.51a14.82,14.82,0,0,0,8.91,8.32l.91-1.27-1-1.37,1.66.52,1-1.37v1.7l1.61.52-1.61.52V181a14.83,14.83,0,0,0,2.14.17h0V151.55Zm-10.93,12.91-1.1-1.37-1.66.52,1-1.37-1-1.37,1.71.52,1.09-1.37v1.7l1.61.52-1.61.52Zm4.12,10.6v1.7l-1-1.37-1.6.52,1-1.37-1-1.37,1.59.52,1-1.37V174l1.61.52Zm0-8.41v1.7l-1-1.37-1.6.52,1-1.37-1-1.37,1.59.52,1-1.37v1.69l1.61.52Zm0-8.41v1.7l-1-1.37-1.6.52,1-1.37-1-1.37,1.59.52,1-1.37v1.7l1.61.52Zm4.66,12.94v1.7l-1-1.37-1.63.52,1-1.37-1-1.37,1.66.52,1-1.37v1.7l1.61.52Zm0-8.41v1.69l-1-1.37-1.63.52,1-1.37-1-1.37,1.66.52,1-1.37v1.7l1.61.52Z" style="fill:#2a629b"/><path d="M139.36,152.46l1,1.37-1,1.37,1.63-.52,1,1.37v-1.7l1.61-.52-1.61-.52v-1.58l-.1,0L141,153Z" style="fill:#fff"/><polygon points="142.05 160.02 141.01 161.39 139.36 160.87 140.36 162.24 139.38 163.61 141.01 163.09 142.05 164.46 142.05 162.76 143.66 162.24 142.05 161.72 142.05 160.02" style="fill:#fff"/><polygon points="142.05 168.44 141.01 169.81 139.36 169.28 140.36 170.65 139.38 172.03 141.01 171.5 142.05 172.87 142.05 171.18 143.66 170.65 142.05 170.13 142.05 168.44" style="fill:#fff"/><path d="M143.66,179.07l-1.61-.52v-1.7l-1,1.37-1.66-.52,1,1.37-.91,1.27.12,0,1.44-.46.76,1,.29,0v-1.36Z" style="fill:#fff"/><polygon points="137.39 155.49 136.41 156.86 134.82 156.34 135.81 157.71 134.81 159.08 136.41 158.56 137.39 159.93 137.39 158.24 139 157.71 137.39 157.19 137.39 155.49" style="fill:#fff"/><polygon points="137.39 163.91 136.41 165.28 134.82 164.75 135.81 166.12 134.81 167.5 136.41 166.97 137.39 168.34 137.39 166.65 139 166.12 137.39 165.6 137.39 163.91" style="fill:#fff"/><polygon points="137.39 172.32 136.41 173.69 134.82 173.16 135.81 174.54 134.81 175.91 136.41 175.38 137.39 176.75 137.39 175.06 139 174.54 137.39 174.01 137.39 172.32" style="fill:#fff"/><polygon points="133.27 161.72 133.27 160.02 132.18 161.39 130.47 160.87 131.48 162.24 130.51 163.61 132.17 163.09 133.27 164.46 133.27 162.76 134.88 162.24 133.27 161.72" style="fill:#fff"/><path d="M133.27,172.87v-1.7l1.61-.52-1.61-.52v-1.7l-1.09,1.37-1.71-.52,1,1.37-.95,1.34v0l1.63-.51Z" style="fill:#fff"/><path d="M154.78,156a14.73,14.73,0,0,0-10.58-4.48V156Z" style="fill:#fff"/><path d="M158.87,164.64a14.66,14.66,0,0,0-1.26-4.48H144.2v4.48Z" style="fill:#fff"/><path d="M157.52,172.7a14.66,14.66,0,0,0,1.32-4.48H144.2v4.48Z" style="fill:#fff"/><path d="M154.42,177H144.2v4.12A14.72,14.72,0,0,0,154.42,177Z" style="fill:#fff"/></svg>