<?xml version="1.0" encoding="utf-8"?>
<!-- Generator: Adobe Illustrator 18.0.0, SVG Export Plug-In . SVG Version: 6.00 Build 0)  -->
<!DOCTYPE svg PUBLIC "-//W3C//DTD SVG 1.1//EN" "http://www.w3.org/Graphics/SVG/1.1/DTD/svg11.dtd">
<svg version="1.1" id="Layer_1" xmlns="http://www.w3.org/2000/svg" xmlns:xlink="http://www.w3.org/1999/xlink" x="0px" y="0px"
	 viewBox="0 0 399.7 538" enable-background="new 0 0 399.7 538" xml:space="preserve">
<path fill="#568986" d="M278.8,0.1c-40.3-1.5-60,27.3-42.5,62l0,0c17.5,34.7-2.2,63.4-42.5,62l-3.4-0.1
	c-38.7-1.4-52.4,30.8-26.7,62.6l24.7,30.4c17.8,21.9,8.3,44.1-18.4,43.1l-83-3c-39.6-1.4-40.5,40.6-1.4,63.5l0,0
	c39.2,22.8,38.3,64.9-1.4,63.5l-44.5-1.6c-38.7-1.4-52.4,30.8-26.7,62.6L88.7,538l72.5-124.4l15.4-26.4l62.7-107.6l9.8-16.8
	l62.7-107.6l15.4-26.4L399.7,4.4L278.8,0.1z"/>
<g>
</g>
<g>
</g>
<g>
</g>
<g>
</g>
<g>
</g>
<g>
</g>
<g>
</g>
<g>
</g>
<g>
</g>
<g>
</g>
<g>
</g>
<g>
</g>
<g>
</g>
<g>
</g>
<g>
</g>
</svg>
