<?xml version="1.0" encoding="utf-8"?>
<!-- Generator: Adobe Illustrator 18.0.0, SVG Export Plug-In . SVG Version: 6.00 Build 0)  -->
<!DOCTYPE svg PUBLIC "-//W3C//DTD SVG 1.1//EN" "http://www.w3.org/Graphics/SVG/1.1/DTD/svg11.dtd">
<svg version="1.1" id="Layer_1" xmlns="http://www.w3.org/2000/svg" xmlns:xlink="http://www.w3.org/1999/xlink" x="0px" y="0px"
	 viewBox="0 0 1285.6 860.9" enable-background="new 0 0 1285.6 860.9" xml:space="preserve">
<path fill="#AADCD5" d="M87.7,473.5c-19.4-42.3-4.9-91.4,32.1-116.9c-0.9-28.6,15-56.3,42.7-69c7.6-3.5,15.4-5.5,23.2-6.3
	c2.3-30.1,20.4-58.1,49.8-71.6c27-12.4,57.1-9.6,80.7,4.9c10.2-17.2,25.5-31.6,45.1-40.6c51.1-23.4,111.4-1,134.9,50.1
	c2,4.3,3.6,8.7,5,13.1c36.7-14,78.4,2.7,95,38.9c0.6,1.3,1.1,2.6,1.7,3.9c0,0,0.1,0,0.1-0.1c32-14.7,69.9-0.6,84.6,31.4
	c6.7,14.6,7.4,30.3,3.2,44.6c7.2,6.9,13.2,15.2,17.6,24.8c18.7,40.9,0.8,89.2-40.1,107.9c-11.7,5.4-24.1,7.7-36.2,7.4
	c-1.8,13.9-7.6,27-16.7,37.7c0.7,1.4,1.4,2.7,2.1,4.2c19,41.4,0.8,90.4-40.6,109.4c-15.1,6.9-31.2,8.9-46.5,6.6
	c-9.5,17.9-24.7,32.9-44.5,42c-34.9,16-74.5,9.1-101.8-14.4c-8.3,8.7-18.4,16.1-30,21.4c-48.5,22.2-105.8,1.4-128.8-46.6
	c-50.2,13.4-104.3-10.9-126.7-59.8c-15.8-34.5-12.1-73,6.7-103C95.2,487.5,91.1,480.8,87.7,473.5z"/>
<g>
	<path fill="#FFD25C" d="M2.7,247.8c0.9,0,5.8-0.3,13.9-0.9c8.1-0.6,19.3-1.4,32.7-2.2c26.8-1.6,62.5-3.2,99.1-0.8
		c9.1,0.6,18.3,1.5,27.3,2.6c9,1.1,17.9,2.5,26.5,4.1c17.2,3.3,33.1,7.6,46.6,12.1c13.5,4.5,24.4,9.2,31.9,12.6
		c3.8,1.7,6.7,3.1,8.7,4.2c2,1,3,1.5,3,1.5l-4.3-5.7l-4.5-5.6l-2.3-2.8c-0.8-0.9-1.6-1.8-2.4-2.7l-4.9-5.5
		c-23.2-8.4-47.1-14.1-70.6-17.5c-23.6-3.4-46.9-4.6-69.6-4.4c-22.8,0.1-45,1.6-66.8,3.7C45.2,242.4,23.8,245.1,2.7,247.8z"/>
	<path fill="#FFD25C" d="M101.9,258.2c1.1,0.1,13-0.1,30.4,0.6c8.7,0.4,18.7,0.9,29.4,2c10.7,1,22.1,2.5,33.4,4.6
		c11.3,2,22.5,4.6,32.9,7.5c10.4,2.9,20,6.2,28.1,9.3c2,0.8,3.9,1.5,5.8,2.3c1.8,0.7,3.5,1.5,5.2,2.2c1.6,0.7,3.1,1.3,4.5,1.9
		c1.4,0.6,2.6,1.2,3.8,1.8c4.6,2.1,7.1,3.4,7.1,3.4c-1.7-2.4-3.5-4.7-5.3-7c-1.8-2.3-3.7-4.7-5.6-6.9c-13.9-5.3-28-9.6-42.3-12.9
		c-14.3-3.3-28.6-5.6-42.9-7.1C157.9,256.5,129.6,256.6,101.9,258.2z"/>
	<path fill="#FFD25C" d="M0,286.3c0.9,0,5.8-0.3,13.8-0.9c8-0.6,19.1-1.4,32.1-2.2c13.1-0.8,28.1-1.6,44.2-2.1
		c16-0.4,33.1-0.4,50,0.6c8.5,0.5,16.9,1.1,25.1,2c4.1,0.4,8.2,1,12.2,1.5c2,0.3,4,0.6,6,0.9c1,0.2,2,0.3,3,0.5c1,0.2,2,0.3,2.9,0.5
		c1.9,0.3,3.9,0.7,5.8,1c1.9,0.4,3.8,0.8,5.6,1.1c0.9,0.2,1.8,0.4,2.8,0.6c0.9,0.2,1.8,0.4,2.7,0.6c1.8,0.4,3.6,0.8,5.3,1.2
		c3.5,0.9,6.9,1.7,10.1,2.6c1.6,0.5,3.2,0.9,4.8,1.4c0.8,0.2,1.6,0.5,2.3,0.7c0.8,0.2,1.5,0.5,2.3,0.7c6,1.9,11.4,3.8,16.1,5.6
		c2.4,0.9,4.6,1.8,6.6,2.6c2,0.9,3.9,1.7,5.5,2.4c0.8,0.4,1.6,0.7,2.4,1c0.7,0.3,1.4,0.7,2.1,1c1.3,0.6,2.4,1.1,3.3,1.5
		c1.8,0.8,2.7,1.3,2.7,1.3c-4.9-7-10.2-14-16-20.7c-20.7-6.9-42-11.5-63.3-14.1c-21.3-2.6-42.7-3.4-64-3
		C83.9,275.4,42,280.8,0,286.3z"/>
	<path fill="#FFD25C" d="M101.4,298.5c1.1,0.1,12.3-0.1,28.5,0.5c16.1,0.5,37,2.2,57.2,5.8c10.1,1.8,20,4,29.2,6.5
		c9.1,2.5,17.4,5.4,24.5,8c3.5,1.4,6.7,2.6,9.5,3.8c1.4,0.6,2.7,1.1,3.9,1.7c1.2,0.5,2.3,1.1,3.3,1.5c2,0.9,3.5,1.6,4.6,2.1
		c1,0.5,1.6,0.8,1.6,0.8l-1.1-1.7l-1.1-1.6l-2.2-3.3l-2.3-3.3l-2.4-3.2c-12.1-4.5-24.4-8.1-37-10.9c-12.6-2.8-25.3-4.7-38.2-6
		C153.7,296.7,127.6,296.9,101.4,298.5z"/>
	<path fill="#FFD25C" d="M12.7,327.6c0.8,0,5.8-0.3,13.7-0.9c7.9-0.5,18.8-1.3,31.4-2.1c12.7-0.7,27.1-1.4,42.2-1.6
		c15.1-0.2,30.9,0.1,46.2,1.2c7.7,0.6,15.2,1.3,22.6,2.3c3.7,0.4,7.2,1.1,10.8,1.6c3.5,0.7,7,1.2,10.4,1.9
		c6.8,1.3,13.1,2.9,19.1,4.5c1.5,0.4,2.9,0.9,4.4,1.3c1.4,0.4,2.9,0.8,4.2,1.3c2.7,0.9,5.4,1.7,7.9,2.6c2.5,0.9,4.9,1.7,7.2,2.6
		c2.2,0.9,4.4,1.7,6.4,2.5c2,0.8,3.8,1.6,5.5,2.4c1.7,0.8,3.2,1.5,4.6,2.1c0.7,0.3,1.4,0.6,2,0.9c0.6,0.3,1.2,0.6,1.7,0.9
		c1.1,0.5,2,1,2.7,1.4c1.5,0.7,2.3,1.1,2.3,1.1c-3.6-6.6-7.6-13.3-12.1-19.7c-8.8-3.2-17.7-5.9-26.8-8.1c-9.1-2.2-18.3-3.9-27.7-5.3
		c-18.7-2.7-37.9-3.7-57.5-3.5c-19.6,0.2-39.5,1.5-59.6,3.4C54,322.3,33.5,324.9,12.7,327.6z"/>
</g>
<g>
	<path fill="#FFD25C" d="M1136.6,677.7c0,0-130.1-128.3-299.2-49.4c-139.1,64.9-108.2,232.7-108.2,232.7s-85.4-203.5-204.6-212.7
		C405.4,639.1,233,808.5,233,808.5s96.2-131.2,32.2-279C218.1,420.6,39.8,383.4,39.8,383.4s300.2,0,258.6-252.6
		c0,0,248.1,251.1,327.4-130.8c0,0,122.3,376.3,356.2,53.5c0,0-117.7,309.1,303.6,187.3C1285.6,240.8,875,394.2,1136.6,677.7z"/>
	<path fill="#EDE8E0" d="M1103.5,390.8c0-37.6-24.6-69.4-58.5-80.3c-11.2-74.5-75.5-131.6-153.2-131.6c-17.3,0-34,2.9-49.5,8.1
		c-9-37.7-42.8-65.7-83.2-65.7c-46.3,0-84,36.8-85.5,82.7c-10.6-13.4-27-22.1-45.4-22.1c-7.8,0-15.2,1.5-21.9,4.3
		c-8.2-37.1-41.3-64.9-80.9-64.9c-37.3,0-68.8,24.6-79.2,58.4c-14.2-5.2-29.5-8-45.5-8c-73.7,0-133.4,59.7-133.4,133.4
		c0,2.5,0.1,5,0.2,7.5c-45.4,16.5-77.9,60.1-77.9,111.2c0,63.2,49.5,114.8,111.9,118.1c-3.5,9.3-5.4,19.4-5.4,29.9
		c0,47.1,38.1,85.2,85.2,85.2c12.3,0,24-2.6,34.6-7.3c34.7,45.5,89.5,74.9,151.1,74.9c42.3,0,81.4-13.8,113-37.2
		c12.6,30.7,42.8,52.2,78,52.2c24.9,0,47.2-10.8,62.7-27.9c19.2,10.3,41.1,16.1,64.5,16.1c73.7,0,133.8-58.4,136.6-131.4
		c29.6-20.3,49-54.3,49-92.9c0-14.3-2.7-28-7.5-40.5C1087.3,448.1,1103.5,421.3,1103.5,390.8z"/>
	<g>
		<path fill="#A7A9AC" d="M846.5,204c-0.4-1.5-0.8-3-1.2-4.4l-1.3-4.3c-0.5-1.4-1-2.8-1.5-4.2c-0.5-1.4-1.1-2.8-1.7-4.1
			c-2.3-5.4-5.2-10.6-8.3-15.4c-0.8-1.2-1.3-2.6-2-3.8c-0.8-1.2-1.5-2.5-2.3-3.7c-1.6-2.4-3.3-4.7-5.1-6.9
			c-3.6-4.4-7.7-8.5-12.2-12.2c-8.9-7.3-19.3-12.7-30.3-16c-5.5-1.6-11.2-2.6-16.9-3c-5.6-0.4-11.5-0.1-17.2,0.7
			c-11.4,1.5-22.5,5.3-32.2,11.4c-9.7,6-17.9,14.3-23.8,24.1c-3,4.9-5.4,10.1-7.3,15.5c-1,2.7-1.8,5.5-2.5,8.3
			c-0.4,1.4-0.7,2.8-0.9,4.2c-0.2,1.4-0.5,2.9-0.9,4.3c-3.3,11.3-4.7,23.2-5.5,35.4c-2.8-11.9-4-24.3-3.2-36.9
			c1.9-12.4,6.1-24.6,12.7-35.5c6.6-10.9,15.8-20.3,26.7-27.1c10.9-6.8,23.2-11,35.7-12.7c6.3-0.8,12.6-1.1,19-0.7
			c6.4,0.4,12.7,1.5,18.8,3.3c12.2,3.6,23.6,9.6,33.4,17.7c4.9,4,9.4,8.5,13.4,13.4c2,2.4,3.9,5,5.7,7.7c0.9,1.3,1.7,2.7,2.5,4
			c0.8,1.3,1.7,2.7,2.4,4.1c2.4,5.9,4.1,12.1,5,18.3c0.2,1.6,0.4,3.1,0.6,4.6c0.1,1.6,0.3,3.1,0.4,4.6l0.1,4.6
			C846.6,201,846.6,202.5,846.5,204z"/>
	</g>
	<g>
		<path fill="#A7A9AC" d="M1046,475.5c1-0.8,2-1.5,3-2.2l2.9-2.3l2.8-2.4l2.7-2.4c3.6-3.3,6.9-6.8,10-10.4
			c7-6.3,13.1-13.7,18.1-21.7c10-16,15.5-35,12.7-53.5c-1.2-9.2-4.2-18.2-8.6-26.5c-4.4-8.2-10.3-15.6-17.3-21.9
			c-7-6.3-15-11.5-23.5-15.5c-4-2.6-8.2-5-12.6-7.3c-2.2-1.1-4.4-2.2-6.7-3.2c-2.2-1.1-4.6-2-6.9-3c10,0.3,20.1,2,30,5.2
			c9.2,4.5,18,10.1,25.7,17c7.7,6.9,14.2,15.2,19.2,24.3c4.9,9.2,8.2,19.2,9.6,29.5c0.7,5.2,0.9,10.3,0.6,15.6
			c-0.3,5.2-1.1,10.4-2.4,15.4c-2.6,10.1-6.8,19.6-12.2,28.3c-5.4,8.7-12.1,16.7-19.7,23.6c-4.3,3-8.7,5.6-13.3,7.8l-3.5,1.6
			l-3.5,1.4l-3.6,1.2C1048.4,474.8,1047.2,475.2,1046,475.5z"/>
	</g>
	<g>
		<path fill="#A7A9AC" d="M795.6,705.2c6.4,2.5,12.8,4.7,19.3,6.6c6.5,1.9,13,3.6,19.6,5c3.3,0.8,6.6,1.2,9.8,2.3
			c3.2,1,6.4,1.7,9.7,2.5c6.5,1.4,13,2.6,19.6,3.2c3.3,0.3,6.5,0.5,9.7,0.4c3.3,0,6.6-0.2,9.8-0.4c6.6-0.5,13.1-1.6,19.5-3
			c12.8-3,25.2-7.8,36.7-14.2c11.5-6.4,22-14.5,31.2-23.9c9.1-9.4,16.8-20.3,22.5-32.1c5.7-11.8,9.7-24.5,11.4-37.5
			c3.1-12.8,4.5-26.3,4.6-40c3.6,13.2,5.3,27.2,4.5,41.3c-0.6,3.5-1.2,6.9-2,10.3c-0.7,3.4-1.7,6.8-2.7,10.2
			c-2.1,6.7-4.6,13.3-7.7,19.6c-6.2,12.6-14.4,24.3-24.1,34.4c-9.8,10.1-21,18.7-33.2,25.5c-12.2,6.8-25.4,11.9-39.1,15.1
			c-6.8,1.6-13.8,2.7-20.8,3.2c-3.5,0.3-7,0.5-10.5,0.5c-3.6,0-7.1-0.1-10.6-0.5c-7-0.7-13.9-1.9-20.6-3.4
			c-3.4-0.7-6.7-1.6-10.1-2.4c-3.4-0.7-6.6-2.2-9.8-3.4c-3.2-1.3-6.4-2.7-9.5-4.1c-3.1-1.4-6.2-3-9.3-4.6
			C807.1,712.6,801.2,709.1,795.6,705.2z"/>
	</g>
	<g>
		<path fill="#EDE8E0" d="M994.4,567.7c-7.6-19.9-23.2-43.4-36-54.4c-40.5-34.8-110.6-37.1-148.5,20.9"/>
		<path fill="#A7A9AC" d="M994.4,567.7c-4.3-8.9-9.4-17.3-15-25.3c-5.6-7.9-11.7-15.6-18.5-22.3c-0.9-0.8-1.7-1.6-2.6-2.4
			c-0.9-0.7-1.8-1.5-2.7-2.2c-1.9-1.5-3.8-2.9-5.7-4.2c-3.9-2.7-8-5-12.2-7.2c-8.5-4.2-17.5-7.3-26.7-9.1
			c-18.5-3.7-37.9-2.4-55.5,4.5c-8.8,3.4-17.2,8.2-24.8,14.1c-7.7,5.8-14.5,12.9-20.7,20.6c4.5-8.8,10.5-16.9,17.7-24
			c3.6-3.5,7.5-6.8,11.7-9.7c4.2-2.9,8.6-5.5,13.2-7.6c4.6-2.2,9.5-3.9,14.4-5.3c5-1.3,10-2.3,15.1-2.9c10.2-1.1,20.6-0.5,30.7,1.6
			c2.5,0.5,5,1.1,7.5,1.8c2.5,0.7,4.9,1.5,7.3,2.4c2.4,0.9,4.8,1.9,7.1,2.9c2.3,1.1,4.6,2.2,6.9,3.5c4.5,2.5,8.8,5.3,12.8,8.4
			c2,1.6,4,3.2,5.9,4.9c1,0.8,1.9,1.8,2.8,2.7c0.9,0.9,1.8,1.9,2.6,2.8c6.8,7.6,12.3,16,17.1,24.7c2.4,4.4,4.6,8.8,6.6,13.4
			C991.3,558.3,993,563,994.4,567.7z"/>
	</g>
	<g>
		<path fill="#EDE8E0" d="M416.9,557.2c-3.8,24.1,6.9,49.2,29,62.6c15.6,9.5,33.8,11.3,50,6.4"/>
		<path fill="#A7A9AC" d="M416.9,557.2c1,5.4,2.4,10.5,4.1,15.2c0.2,2.4,0.6,4.8,1.1,7.2c0.3,1.2,0.6,2.4,0.9,3.5l1.1,3.4
			c1.7,4.5,3.9,8.9,6.6,12.9c2.7,4,5.9,7.7,9.6,10.8c7.3,6.3,16.2,10.9,25.6,12.9c4.7,1,9.6,1.5,14.4,1.3c2.4,0.5,5,1,7.6,1.3
			c1.3,0.2,2.6,0.3,3.9,0.4c1.3,0.2,2.7,0.1,4.1,0.3c-1.1,0.8-2.3,1.5-3.5,2.2c-1.2,0.7-2.4,1.3-3.7,1.9c-2.5,1.2-5.2,2.1-8,2.9
			c-5.6,0.2-11.2-0.3-16.7-1.5c-5.5-1.2-10.8-3.1-15.8-5.6c-2.5-1.2-4.9-2.7-7.2-4.2l-1.7-1.2l-1.7-1.3c-1.1-0.9-2.2-1.7-3.3-2.6
			c-8.5-7.3-14.9-16.9-18.7-27.4c-1.9-5.3-3.1-10.8-3.7-16.3C412.7,567.6,414.3,562.1,416.9,557.2z"/>
	</g>
	<g>
		<path fill="#EDE8E0" d="M750.1,674.4c21.5,11.4,48.7,9.5,68.6-7c14.1-11.7,21.7-28.3,22.4-45.2"/>
		<path fill="#A7A9AC" d="M750.1,674.4c5.5,0.8,10.7,1.2,15.7,1.1c2.3,0.6,4.7,1,7.1,1.3c1.2,0.1,2.4,0.2,3.6,0.3l3.6,0.1
			c4.8-0.1,9.7-0.8,14.3-2.1c4.7-1.3,9.2-3.1,13.3-5.5c8.4-4.8,15.6-11.7,20.6-20c2.5-4.1,4.5-8.6,5.9-13.2c1.3-2.1,2.6-4.4,3.7-6.7
			c0.6-1.2,1.1-2.4,1.6-3.6c0.6-1.2,1-2.5,1.6-3.8c0.4,1.3,0.7,2.7,1,4c0.2,1.4,0.5,2.7,0.6,4.1c0.3,2.8,0.3,5.6,0.2,8.5
			c-1.6,5.4-3.9,10.5-6.8,15.3c-2.9,4.8-6.4,9.2-10.4,13.1c-2,2-4.1,3.8-6.4,5.4l-1.7,1.3l-1.8,1.2c-1.2,0.7-2.3,1.6-3.6,2.2
			c-9.7,5.6-20.8,8.6-32,8.8c-5.6,0.1-11.2-0.6-16.6-1.8C758.5,681.7,753.8,678.4,750.1,674.4z"/>
	</g>
	<g>
		<path fill="#FFFFFF" d="M752.8,294.4l-12.9,8.3c-12-0.2-48.4-0.9-56.6-1.1c0-0.1,0-0.1,0-0.1c0,0-2.7,0.1-3,0.1
			c-0.3,0-3-0.1-3-0.1c0,0,0,0,0,0.1c-9.8,0.2-60.4,1.1-60.4,1.1s-27.3,34.6-25,78.8c2.5,47.9,36.4,43.7,77.3,42
			c28.1,1.2,46.2-2.7,63-23.7h31.6C802.2,356.4,752.8,294.4,752.8,294.4z"/>
	</g>
	<path fill="#B3B5B8" d="M650.2,57.9c48.6-1.2,97.1,0.4,145.6,4.7c0,0,0-2.1,0-2.1c-48.5-4.3-97.1-5.9-145.6-4.7
		C650.1,55.7,650.2,57.9,650.2,57.9L650.2,57.9z"/>
	<g>
		<linearGradient id="SVGID_1_" gradientUnits="userSpaceOnUse" x1="805.3858" y1="450.4424" x2="1017.874" y2="450.4424">
			<stop  offset="0" style="stop-color:#C0C2C4"/>
			<stop  offset="1" style="stop-color:#ADAFB2"/>
		</linearGradient>
		<path fill="url(#SVGID_1_)" d="M959.2,370.3c0,0,36,22,51.1,61.7s6.5,59.1-17.2,72.6c-21.3,12.1-32.2,15.5-41.2,23.1
			c-2,1.7-4.5,2.7-7.2,2.7h-20.6c-6.1,0-10.3-29.9-3.7-42h-24.3c0,0,5.7,8.3,8.7,16c1.5,3.7-0.6,8-4.4,9.2l-28.7,9.6
			c-1.9,0.6-4,0.4-5.8-0.6c-6.5-3.8-23.2-13.3-36.6-19c-17-7.3-29.1-30.3-21.8-49.7c7.3-19.4,48.8-65.7,48.8-65.7L959.2,370.3z"/>
		<path fill="#F5B949" d="M828.7,421.4l67.4,67.1h24.3l14.7-13.5l71.3-52c0,0-23.7-45.2-55.8-54.6l-94.3,19.9L828.7,421.4z"/>
		<ellipse fill="#2F8F6D" cx="910.2" cy="403.2" rx="54.3" ry="38"/>
		<ellipse fill="#91929D" cx="908.1" cy="397.2" rx="48" ry="33.6"/>
		<path fill="#ABADB0" d="M839.8,231c0,0-1-3.7,7.5-5c8.5-1.3,20.4-0.3,26.8,8.5s9.4,12.9,9.4,12.9l-24.8,17.9c0,0-6.1-18.4-11.2-24
			S839.7,235,839.8,231z"/>
		
			<linearGradient id="SVGID_2_" gradientUnits="userSpaceOnUse" x1="516.8286" y1="30.2308" x2="560.267" y2="128.6063" gradientTransform="matrix(0.9706 0.2409 -0.2409 0.9706 410.0179 120.9612)">
			<stop  offset="0" style="stop-color:#C7C8CA"/>
			<stop  offset="1" style="stop-color:#B1B3B6"/>
		</linearGradient>
		<path fill="url(#SVGID_2_)" d="M1003.3,263.9c0.7-3.7-1.5-7.4-5-8.6c-27.7-9.6-44.8,11.9-44.8,11.9l0,0c-2.6-2.3-5.4-4.4-8.4-6.4
			c-22-14.1-53-21.3-76.9-7.6c-4.1,2.4-8,5.4-11.5,9.2c-20.5,21.9-19.7,46.4-27.8,74c-5.4,18.5-14.2,33.9-3.3,52.4
			c8.4,14.3,23.7,24.5,39.4,29c75.1,22,101.2-33.1,104.1-44.7c3.9-15.7,7.2-31.7,7.6-47.9c0.2-8.9-0.8-17.5-3-25.6
			c-2.1-7.6,2.5-15.4,10.2-17.3c0.1,0,0.1,0,0.2,0C998,278.9,1002.1,270.1,1003.3,263.9z"/>
		<path fill="#5F6062" d="M887.7,362.4c1,0.9,1.7,2.1,2.1,3.4c0.4,1.3,0.4,2.8,0.1,4.2c-0.3,1.4-0.8,2.8-1.7,3.8
			c-0.5,0.5-1,1-1.6,1.4c-0.6,0.4-1.2,0.7-1.9,0.9c-0.1,0-0.1,0-0.2-0.1c0,0,0-0.1,0-0.1l0,0c0.2-0.7,0.5-1.3,0.8-1.8
			c0.3-0.6,0.6-1.1,0.9-1.6c0.2-0.5,0.6-1,0.9-1.5l0.5-0.7l0.4-0.8c0.4-1.1,0.7-2.2,0.6-3.4c0-1.2-0.4-2.4-1.1-3.5l0,0
			c0-0.1,0-0.1,0-0.2C887.6,362.4,887.7,362.4,887.7,362.4z"/>
		<path fill="#5F6062" d="M856.1,363.7c0.1-0.5-0.3-1.1-1.4-1.9c-1.9-1.4-7.3-3.3-8.2-0.4c-0.7,2.1,0.5,3.2,2.8,3.6
			C851.4,365.3,855.8,365.1,856.1,363.7z"/>
		<path fill="#5F6062" d="M869.8,366c0.1-0.5,0.8-0.9,2.2-1.1c2.5-0.4,8.8,0.3,8.5,3.2c-0.2,2.2-1.9,2.6-4.5,1.9
			C873.8,369.5,869.5,367.4,869.8,366z"/>
		<g>
			<path fill="#797A7D" d="M848.2,460.2c4.4-0.1,8.8,0.7,13,2c2.1,0.6,4.2,1.4,6.3,2.2c1,0.4,2,0.9,3,1.4c1,0.5,2,1,2.9,1.5
				c1,0.5,1.9,1.1,2.9,1.7c0.9,0.6,1.9,1.1,2.8,1.8c1.8,1.3,3.6,2.6,5.2,4.1l1.2,1.1c0.4,0.4,0.8,0.7,1.2,1.2l2.3,2.4
				c0.8,0.8,1.4,1.7,2.1,2.6c0.7,0.9,1.3,1.8,2,2.6c-0.8-0.7-1.7-1.4-2.5-2.2c-0.8-0.7-1.6-1.5-2.4-2.1c-1.7-1.4-3.3-2.8-5.1-4
				c-3.4-2.6-7-4.9-10.8-7c-3.7-2.1-7.6-3.9-11.6-5.4C856.6,462.4,852.5,461.1,848.2,460.2z"/>
		</g>
		<path fill="#F5B949" d="M944.9,218c-2.3-0.6-4.7-0.9-7-1.1c-3.2-0.3-11.1,0.8-11.1,0.8c-7.9,1.7-15.3,5.7-21,11.8l-15.9,16.8
			l61.1,21c-1.5-16.5,7.3-32.3,22.1-39.8l3.3-1.6L944.9,218z"/>
		<path fill="#2F8F6D" d="M946.6,271.8L887,254.7c-2.8-0.8-4.5-3.8-3.7-6.6v0c0.8-2.8,3.8-4.5,6.6-3.7l59.6,17.1
			c2.8,0.8,4.5,3.8,3.7,6.6l0,0C952.4,271,949.4,272.6,946.6,271.8z"/>
		<circle fill="#2F8F6D" cx="978.4" cy="227.4" r="9.2"/>
		<rect x="900.6" y="436.4" fill="#2F8F6D" width="12" height="52.1"/>
		<circle fill="#9A9FA3" cx="901.9" cy="343" r="8.8"/>
		<circle fill="#7B7C7F" cx="901.9" cy="343" r="6.3"/>
		<g>
			<path fill="#5F6062" d="M861.8,369.3c0.4,1.3,0.5,2.4,0.6,3.5c0.1,1.1,0.2,2.1,0.1,3.2c0,1-0.1,2.1-0.2,3.2
				c-0.1,1.1-0.2,2.2-0.6,3.4l-0.2,0.1c-0.3-1.1-0.6-2.2-0.8-3.3c-0.2-1.1-0.2-2.3-0.2-3.4c0.1-2.3,0.3-4.5,1-6.7L861.8,369.3z"/>
		</g>
		<g>
			<path fill="#5F6062" d="M853.2,389.9c1.6-2.3,4.1-3.7,6.7-4.5c2.6-0.8,5.5-0.9,8.2-0.5l2,0.4c0.7,0.2,1.3,0.4,1.9,0.6
				c1.3,0.5,2.5,1.1,3.6,1.7c1.2,0.7,2.2,1.5,3.2,2.4c0.9,1,1.9,1.9,2.6,3l-0.2,0.3l-3.2-1.9c-1.1-0.5-2.2-1.1-3.4-1.6
				c-1.2-0.4-2.3-0.9-3.5-1.2c-0.6-0.2-1.2-0.4-1.8-0.5l-1.8-0.3c-2.4-0.4-4.9-0.4-7.4-0.1c-2.4,0.4-4.8,1.1-6.9,2.4L853.2,389.9z"
				/>
		</g>
		<g>
			<path fill="#565759" d="M896.9,344.5c-0.1-0.6,0.1-1.2,0.3-1.7c0.4-0.3,0.8-0.6,1.3-0.8c0.9-0.5,1.9-0.8,2.9-1c1-0.2,2-0.2,3-0.2
				c0.5,0,1,0.1,1.4,0.2c0.4,0.4,0.8,0.8,1.2,1.3c-0.5,0.3-1,0.5-1.5,0.7c-0.4,0-0.8-0.1-1.3-0.1c-0.8,0-1.7,0-2.5,0.1
				c-0.8,0.2-1.6,0.4-2.3,0.8c-0.3,0.2-0.7,0.4-1,0.6C898,344.4,897.5,344.4,896.9,344.5z"/>
		</g>
		<circle fill="#9A9FA3" cx="844.8" cy="330.2" r="8.8"/>
		<circle fill="#7B7C7F" cx="844.8" cy="330.2" r="6.3"/>
		<g>
			<path fill="#565759" d="M849.1,333.3c-0.5-0.3-1-0.5-1.5-0.7c-0.2-0.3-0.5-0.6-0.7-0.9c-0.5-0.6-1.2-1.1-1.9-1.4
				c-0.7-0.4-1.5-0.7-2.3-0.9c-0.4-0.1-0.8-0.2-1.2-0.3c-0.4-0.4-0.8-0.7-1.2-1.1c0.5-0.3,1-0.6,1.5-0.8c0.5,0.1,1,0.2,1.4,0.3
				c0.9,0.3,1.9,0.6,2.8,1.1c0.9,0.5,1.7,1.1,2.4,1.8c0.4,0.4,0.7,0.8,1,1.2C849.4,332.1,849.3,332.7,849.1,333.3z"/>
		</g>
		<path fill="#FFFFFF" d="M878.7,299.2l2.6,50.8c0.2,4.9-3.8,9-8.7,8.8c-9.5-0.5-23.1-3-24.5-12.8c-1.8-13,10.4-33.8,23.5-49.3
			C873.9,294,878.5,295.5,878.7,299.2z"/>
	</g>
	<path fill="#E57C39" d="M360.9,355.5c0,0,3.1-5.8-5.1,63.4l-5.3,56.1c0,0,128-12.7,162.6-30.1l-1.6-6.2l23.4-22.9
		c0,0-14.3-56.3-60.3-56.5L360.9,355.5z"/>
	<path fill="#D54849" d="M483.9,366.5l-13.1,26c-2.2,5-8.7,6.4-12.8,2.8l-11.2-9.9l-10.1,14.9c-2.4,3.5-7.1,4.6-10.8,2.5l-29.6-17.2
		L483.9,366.5z"/>
	<path fill="#E57C39" d="M359.5,375.7c0,0-16.2-1-58.4,36.6l43.9,43.6l34.6-25.9L359.5,375.7z"/>
	
		<linearGradient id="SVGID_3_" gradientUnits="userSpaceOnUse" x1="-5712.4385" y1="-440.2278" x2="-5653.6089" y2="-440.2278" gradientTransform="matrix(-0.7218 -0.766 -0.7278 0.6858 -4111.5454 -3605.9075)">
		<stop  offset="0" style="stop-color:#BEC0C2"/>
		<stop  offset="1" style="stop-color:#B1B3B6"/>
	</linearGradient>
	<path fill="url(#SVGID_3_)" d="M345.1,455.9l-43.4-44.2l-9.8,11c-5.2,5.9-6.6,14.2-3.4,21.4l1.4,3.3c0.9,2,2.1,3.9,3.6,5.5
		l12.2,12.9c2.6,2.8,5.9,4.7,9.6,5.6l0,0c6.6,1.6,13.5-0.2,18.5-4.9L345.1,455.9z"/>
	<path fill="#ABADB0" d="M450.3,230.3l56.2-5.1c19.2-1.7,38.2,4.9,52.2,18.2l0,0c19.8,18.9,26.1,48,15.7,73.4l-4.7,11.5
		c-11.1,27.3-38.7,44.1-68,41.4l-15-1.4"/>
	<path fill="#939598" d="M495.6,353.3L495.6,353.3c22.4,2.1,43.6-10.8,52-31.7l3.6-8.8c8.5-21,2.2-45.4-16-59.6
		c-10.4-8.1-23.6-11.6-36.7-10.5l-31.9,2.9c-5.4,0.5-9.1,5.8-7.7,11.1l22.3,84.4C482.9,347.7,488.7,352.6,495.6,353.3z"/>
	
		<linearGradient id="SVGID_4_" gradientUnits="userSpaceOnUse" x1="-7507.6694" y1="1130.4933" x2="-7550.8486" y2="1247.2731" gradientTransform="matrix(-0.9829 0.184 0.184 0.9829 -7168.188 565.7815)">
		<stop  offset="0" style="stop-color:#BCBEC0"/>
		<stop  offset="1" style="stop-color:#A3A5A8"/>
	</linearGradient>
	<path fill="url(#SVGID_4_)" d="M367.1,376.8c36.6,17.5,76.7,17.7,112.8-1.4c17.4-9.2,32-24.4,31.6-45.1c-0.1-5.9-1.4-11.6-3.3-17.2
		c-5-15-3-30.6-7.2-45.7c-3.1-11.1-9.8-20.8-18.3-28.4c-16.6-14.9-38.3-19.7-62.7-20.6c-17.9-0.7-44.4,6.6-57.7,19.6"/>
	<path fill="#A7A9AC" d="M487,288.9c3.1,4.5,2,10.6-2.5,13.7c-4.5,3.1-10.6,1.9-13.7-2.6c-3.1-4.5-2-10.6,2.5-13.7
		C477.7,283.2,483.9,284.4,487,288.9z"/>
	<path fill="#7E8083" d="M484,291.3c1.7,2.9,0.8,6.6-2,8.3c-2.9,1.7-6.6,0.8-8.3-2.1s-0.8-6.6,2-8.3
		C478.6,287.5,482.3,288.5,484,291.3z"/>
	<g>
		<path fill="#797A7D" d="M407.7,290.2c0.5-0.6,1.1-1.1,1.6-1.7c0.6-0.2,1.3-0.5,1.9-0.9c1.2-0.6,2.4-1.3,3.5-2.1
			c1.1-0.8,2.1-1.7,3-2.7c0.4-0.5,0.9-1,1.2-1.6c0.7-0.4,1.2-0.8,1.9-1.3c0,0.8,0,1.6-0.2,2.4c-0.4,0.6-0.9,1.2-1.4,1.8
			c-1,1.1-2.1,2.1-3.3,3c-1.2,0.9-2.5,1.6-3.8,2.3c-0.7,0.3-1.3,0.6-2,0.9C409.3,290.4,408.5,290.4,407.7,290.2z"/>
	</g>
	<g>
		<path fill="#797A7D" d="M483,276.5c-0.7,0.5-1.4,0.8-2.1,1.1c-0.7,0-1.5,0-2.2-0.1c-1.5-0.1-2.9-0.3-4.4-0.6
			c-1.4-0.3-2.9-0.8-4.2-1.4c-0.7-0.3-1.4-0.7-2-1.1c-0.5-0.6-0.9-1.4-1.2-2.1c0.8,0.1,1.5,0.4,2.2,0.4c0.5,0.4,1.1,0.7,1.7,1
			c1.2,0.5,2.5,1,3.8,1.3c1.3,0.3,2.7,0.5,4.1,0.6c0.7,0,1.4,0.1,2.1,0C481.5,275.9,482.2,276.2,483,276.5z"/>
	</g>
	<path fill="#A7A9AC" d="M427.5,299.7c2.7,3.9,1.7,9.2-2.2,11.9c-3.9,2.7-9.2,1.7-11.9-2.2c-2.7-3.9-1.7-9.2,2.2-11.9
		C419.5,294.8,424.8,295.8,427.5,299.7z"/>
	<path fill="#7E8083" d="M425.8,302.1c1.6,2.6,0.7,5.9-1.8,7.4s-5.9,0.7-7.5-1.9c-1.6-2.6-0.7-5.9,1.8-7.4S424.2,299.5,425.8,302.1z
		"/>
	
		<linearGradient id="SVGID_5_" gradientUnits="userSpaceOnUse" x1="-7446.0894" y1="925.8387" x2="-7446.0894" y2="958.9073" gradientTransform="matrix(-0.9907 0.1358 0.1358 0.9907 -7175.7012 451.1199)">
		<stop  offset="0" style="stop-color:#BEC0C2"/>
		<stop  offset="1" style="stop-color:#B1B3B6"/>
	</linearGradient>
	<path fill="url(#SVGID_5_)" d="M370.9,236.1L316,247.2c-19,3.5-35.5,15-45.4,31.6l0,0c-14,23.6-12.2,53.3,4.6,75l7.6,9.8
		c18,23.3,49.1,32.1,76.6,21.6l14.1-5.4"/>
	<path fill="#A1A3A6" d="M363.3,366.7L363.3,366.7c-20.7,8.9-44.8,3.3-59.3-13.9l-6.1-7.2c-14.7-17.3-16.2-42.5-3.3-61.7
		c7.4-10.9,18.8-18.4,31.6-21.3l31.2-7.2c5.3-1.2,10.5,2.6,10.8,8.1l5,87.1C373.6,357.5,369.6,363.9,363.3,366.7z"/>
	<path fill="#797A7D" d="M454.6,325.9l-27.1,4.2c-3,0.5-5.6,2.9-6.8,6.2l0,0c-2.8,7.6,2.5,16,9.4,14.7l33-5.4L454.6,325.9z"/>
	<g>
		<path fill="#797A7D" d="M420,325.9c0.8,0.5,1.4,1.2,2,2c0.2,0.9,0.4,1.8,0.4,2.7c0.1,1.9-0.3,3.7-1.1,5.4c-0.8,1.7-2,3-3.3,4.3
			c-0.7,0.6-1.4,1.1-2.1,1.7c-0.9,0.2-1.8,0.4-2.7,0.5c0.5-0.8,1-1.5,1.6-2.2c0.6-0.5,1.3-1,1.9-1.5c1.1-1.1,2.2-2.3,2.9-3.7
			c0.7-1.4,1-2.9,0.9-4.4c0-0.8-0.2-1.5-0.4-2.3C420.1,327.7,420.1,326.9,420,325.9z"/>
	</g>
	<path fill="#ED85A9" d="M429.4,351.1c4.8,0,10-1.5,14.7-2.3c5.8-0.9,11.5-1.9,17.3-2.8c0.6-0.1,1.2-0.2,1.7-0.3c-0.3,0-2-1.8-2.3-2
		c-1.9-1.5-4-2.7-6.2-3.6c-7-2.7-15.8-0.8-21.5,3.9c-1.4,1.2-2.6,2.7-3,4.4C429.9,349.4,429.7,350.2,429.4,351.1z"/>
	<g>
		<path fill="#EDE8E0" d="M559.6,460.8c-17.5-15.1-45.5-30.4-64.6-35.5c-60.6-16.2-138.8,8.1-154,74.5"/>
		<path fill="#A7A9AC" d="M559.6,460.8c-9.4-5.9-19.2-10.9-29.1-15.4c-2.5-1.1-5.1-2-7.4-3.4c-1.2-0.7-2.3-1.4-3.5-1.9
			c-1.2-0.6-2.4-1.2-3.6-1.8c-4.9-2.3-9.8-4.5-14.8-6.3l-3.8-1.3l-3.8-1.1c-2.6-0.7-5.2-1.3-7.8-1.8c-5.2-1-10.5-1.8-15.9-2.3
			c-10.7-0.9-21.4-0.7-32,0.7c-10.6,1.4-21,4-31,7.8c-9.9,3.8-19.4,8.8-27.8,15.2c-4.2,3.2-8.2,6.7-11.8,10.5
			c-1.8,1.9-3.5,3.9-5.2,5.9c-1.6,2-3.2,4.2-4.5,6.4c-0.7,1.1-1.7,2-2.4,3.1c-0.8,1-1.6,2.1-2.4,3.2c-1.5,2.2-3,4.4-4.4,6.7
			c-1.4,2.3-2.7,4.7-3.9,7.2c-1.3,2.4-2.3,5-3.5,7.6c0.7-11.1,3.6-22.5,9-32.8c1.7-2.3,3.4-4.7,5.2-7c1.8-2.3,3.7-4.4,5.7-6.5
			c4-4.2,8.3-8,12.9-11.5c9.2-6.9,19.4-12.4,30-16.4c10.7-4.1,21.8-6.8,33-8.3c11.3-1.5,22.7-1.8,34-0.8c5.7,0.5,11.3,1.3,16.9,2.4
			c2.8,0.6,5.6,1.2,8.3,1.9l4.2,1.2l4.1,1.4c5.4,1.9,10.6,4.2,15.7,6.6c1.3,0.6,2.5,1.2,3.8,1.9c1.3,0.6,2.5,1.2,3.8,1.9
			c2.6,1.2,4.8,3,7.1,4.6c4.6,3.3,9,6.8,13.2,10.5C551.9,452.7,555.9,456.6,559.6,460.8z"/>
	</g>
	<path fill="#FFFFFF" d="M471.7,304.2c3.6-0.6,13.8-2.8,19.2-8.5c0.6-0.6,1.5,0,1.3,0.7c-1,4.3-4.4,12.2-14.9,16.6
		c-0.3,0.1-0.8,0-1-0.3l-5.2-7.4C470.8,304.9,471.1,304.3,471.7,304.2z"/>
	
		<linearGradient id="SVGID_6_" gradientUnits="userSpaceOnUse" x1="-2259.6777" y1="4213.4907" x2="-2419.4297" y2="4213.4907" gradientTransform="matrix(-5.939393e-002 -0.9982 0.9982 -5.939393e-002 -3856.6777 -1699.3597)">
		<stop  offset="0" style="stop-color:#C7C8CA"/>
		<stop  offset="1" style="stop-color:#B1B3B6"/>
	</linearGradient>
	<path fill="url(#SVGID_6_)" d="M468.7,293.1c1.7,1.3,3.3,2.8,4.9,4.3c7.8,7.3,16.1,13.7,24.6,20.2c10.7,8.2,21.4,16.7,29.6,27.5
		c16.8,22.1,21.6,52.8,12.2,78.9c-9.4,26.1-32.7,46.7-59.7,53c-13,3-26.8,2.9-39.2,7.8c-0.4,0.2-0.8,0.3-1.3,0.3
		c-1-0.1-1.4-1.3-1.6-2.3c-0.4-3.2,0.4-6.5,2.1-9.1c0.7-1,1.5-2,1.6-3.2c0.1-1.6-1-2.9-1.8-4.3c-1.9-3.1-2.6-6.9-1.7-10.5
		c0.2-0.7,0.5-1.5,1.1-1.9c1-0.5,2.2,0.1,3.2,0.7c7.4,4.3,16.6,4.1,25,2.3c14.3-3.1,27.8-10.6,36.8-22.2c9-11.6,12.9-27.3,8.9-41.3
		c-4.4-15.5-17.2-27.1-30.8-35.7s-28.5-15.3-40.8-25.6c-3.8-3.2-7.4-6.8-9.6-11.3c-4-8.1-2.4-18.7,3.8-25.3c3.4-3.6,7-6.6,12-7.8
		C456.1,285.4,462.8,288.4,468.7,293.1z"/>
	<path fill="#A9ABAE" d="M456.3,311.8c2.1-3.4,7.1-10,16.2-14.5c0.7-0.3,0.4-1.4-0.4-1.3c-5.7,0.5-16.6,3-17.1,15.4
		C455.1,312.1,456,312.4,456.3,311.8z"/>
	<path fill="#A9ABAE" d="M465.5,322.5c2.1-3.4,7.1-10,16.2-14.5c0.7-0.3,0.4-1.4-0.4-1.3c-5.7,0.5-16.6,3-17.1,15.4
		C464.2,322.8,465.1,323.1,465.5,322.5z"/>
	<path fill="#A9ABAE" d="M474,329.8c2.1-3.4,7.1-10,16.2-14.5c0.7-0.3,0.4-1.4-0.4-1.3c-5.7,0.5-16.6,3-17.1,15.4
		C472.7,330.1,473.6,330.4,474,329.8z"/>
	<path fill="#FFFFFF" d="M430.5,314c3.4-0.2,12.1-1.3,17.8-5.8c1.8-1.4,2.5-1,1.6,1.2c-1.7,4.3-5.8,10.9-15.8,14.2
		c-0.5-0.2-0.8-0.4-1.3-0.6l-3.2-7.5C429.4,314.7,429.8,314,430.5,314z"/>
	<g>
		<polygon fill="#ABADB0" points="608.8,340.9 621.6,370.7 577.3,375.3 574.4,347.2 		"/>
		<path fill="#58595B" d="M624.5,330.9c0,0,21.9,39.9,72.7,37.1c50.8-2.9,71-44.6,71-44.6L624.5,330.9z"/>
		<path fill="#58595B" d="M650.1,319.7c0,0-24.8-12.4-52.7,0.4c-27.9,12.8-32.3,74.3-2.9,102.3s58.8-9.8,57.6-25.8
			c-1.2-16,12.4-60.7,12.4-60.7L650.1,319.7z"/>
		<path fill="#58595B" d="M744.4,313.7c0,0,27.2-5.4,50.7,14.3s11.6,80.2-24.2,99.4c-35.8,19.2-54.1-25-48.7-40.1s4.1-61.8,4.1-61.8
			L744.4,313.7z"/>
		<path fill="#F1625B" d="M756.8,206.6l61.9,19.2c6.7,2.1,9.3,10.3,4.9,15.8l-10.9,13.9c-3.3,4.2-9.3,5.1-13.7,2l-46-32.1
			L756.8,206.6z"/>
		<path fill="#F1625B" d="M754.6,201.1l64.5-6.6c7-0.7,12.6,5.8,10.8,12.6l-4.5,17c-1.4,5.2-6.6,8.4-11.8,7.3l-54.9-11.5
			L754.6,201.1z"/>
		<path fill="#58595B" d="M655.6,185.3c-2.7,12.2-14.4,19.9-26.2,17.1c-11.8-2.8-19.1-15-16.4-27.2c2.7-12.2,14.4-19.9,26.2-17.1
			C651,160.9,658.3,173.1,655.6,185.3z"/>
		<ellipse fill="#58595B" cx="742.3" cy="183.9" rx="21.9" ry="22.7"/>
		<g>
			<path fill="#FFFFFF" d="M790.5,274.2c-4.1-16.7-11.7-32.2-16.6-48.7c-4.9-16.6-11.6-33.7-26.9-43.4c-21-13.4-48.2-14.4-72.1-12.6
				c-4.8,0.4-9.7,0.9-14.5,1.6c-17.4,2.4-35.1,9.3-45.5,24.8c-13.5,20-16.2,44.7-24,66.9c-7.4,20.8-9.1,43.4,7,61
				c7.2,7.9,16.7,13,27,16c2.1,0.6,4.3,1.2,6.4,1.6l28.4,7.1c18.1,4.5,36.9,4.6,55,0.3l27.5-6.6c3.3-0.6,6.5-1.4,9.7-2.3
				c0,0,0.1,0,0.1,0c11.6-3.5,22.4-9.7,29.9-19.4c8.7-11.3,12.4-27.2,9.6-41.1C791.3,277.5,790.9,275.9,790.5,274.2z"/>
		</g>
		<path fill="#58595B" d="M679.4,264.5H695c6.2,0,11.2,5.2,11.2,11.6v0.1c0,3.5-1.5,6.8-4.2,9l-7.7,6.4c-4.1,3.4-9.9,3.4-14,0.1
			l-8-6.5c-2.7-2.2-4.3-5.6-4.3-9.1l0,0C668.2,269.7,673.2,264.5,679.4,264.5z"/>
		<path fill="#58595B" d="M612.5,266.1c5.5-10,14.7-21.1,26.2-23.6c13.9-3,24.2,10.2,25.8,23.4c1.7,14.4-5.2,28.5-18.4,34.5
			c-11.5,5.2-34.2,4.1-38.3-10.9C606,282.6,608.2,274.1,612.5,266.1z"/>
		<ellipse fill="#FFFFFF" cx="649" cy="270.2" rx="5.9" ry="6.2"/>
		<path fill="#58595B" d="M764.3,265.8c-5.5-10-14.7-21.1-26.2-23.6c-13.9-3-24.2,10.2-25.8,23.4c-1.7,14.4,5.2,28.5,18.4,34.5
			c11.5,5.2,34.2,4.1,38.3-10.9C770.8,282.4,768.6,273.8,764.3,265.8z"/>
		<ellipse fill="#FFFFFF" cx="727.8" cy="270" rx="5.9" ry="6.2"/>
		<rect x="685.7" y="288.5" fill="#58595B" width="2.9" height="17.6"/>
		<g>
			<path fill="#F1625B" d="M628.8,182.3c0,0-16.1,7.3-23.8,32.9l165.5-0.2c0,0-6.2-23-20.9-31L628.8,182.3z"/>
		</g>
		<polygon fill="#FFFFFF" points="633.2,194.2 635.8,188.4 638.9,194 645.2,194.7 640.8,199.3 642.1,205.6 636.4,202.8 630.8,206 
			631.7,199.7 626.9,195.4 		"/>
		<polygon fill="#FFFFFF" points="645.5,188.4 646.2,186.9 647,188.4 648.7,188.5 647.5,189.8 647.9,191.4 646.4,190.7 644.9,191.6 
			645.1,189.9 643.8,188.7 		"/>
		<polygon fill="#FFFFFF" points="651.9,194.1 652.6,192.5 653.4,194 655.1,194.2 653.9,195.4 654.2,197.1 652.7,196.4 651.2,197.2 
			651.5,195.5 650.2,194.4 		"/>
		<polygon fill="#FFFFFF" points="651.9,202.9 652.6,201.4 653.4,202.9 655.1,203 653.9,204.3 654.2,205.9 652.7,205.2 651.2,206.1 
			651.5,204.4 650.2,203.2 		"/>
		<polygon fill="#FFFFFF" points="645.5,207.4 646.2,205.9 647,207.4 648.7,207.5 647.5,208.8 647.9,210.4 646.4,209.7 644.9,210.5 
			645.1,208.9 643.8,207.7 		"/>
		<circle fill="#58595B" cx="649" cy="271" r="4.5"/>
		<circle fill="#58595B" cx="727.8" cy="271" r="4.5"/>
		<path fill="#F37B7D" d="M693.2,303.8c0,0,1.2-15.3,12.9-15.4c0,0,7.3,1.2,6.2,7.4l-4.3,5.6C708,301.5,697,306,693.2,303.8z"/>
		<path fill="#58595B" d="M666.3,302.1c2.2,0.4,4.4,0.7,6.5,0.9c2,0.6,4.1,1,6.2,1.3c2.1,0.3,4.2,0.4,6.3,0.4l3.2-0.1l3.1-0.4
			l0.8-0.1l0.8-0.2l1.5-0.3l1.5-0.3c0.5-0.1,1-0.3,1.5-0.5l3-1l2.9-1.3l1.5-0.6c0.5-0.2,0.9-0.5,1.4-0.8c0.9-0.5,1.8-1.1,2.8-1.6
			c1.1-0.3,2-0.8,3-1.2c1-0.4,2.1-0.8,3.1-1.2c-1.4,1.7-2.9,3.4-4.6,4.9c-1,0.6-2,1.1-2.9,1.6c-0.5,0.3-1,0.6-1.5,0.8l-1.5,0.7
			l-3.1,1.4l-3.2,1.1c-0.5,0.2-1.1,0.4-1.6,0.5l-1.7,0.4l-1.7,0.4L693,307l-0.8,0.1l-3.4,0.4l-3.4,0.1c-2.3,0-4.5-0.1-6.8-0.4
			c-1.1-0.1-2.2-0.4-3.3-0.6c-0.6-0.1-1.1-0.3-1.6-0.4c-0.3-0.1-0.5-0.1-0.8-0.2c-0.3-0.1-0.6-0.1-0.8-0.2
			C669.9,304.8,668,303.7,666.3,302.1z"/>
		<g>
			<path fill="#FFFFFF" d="M705.4,292.6c0.2,0.7,0.3,1.4,0.2,2.1c0,0.7-0.1,1.3-0.2,2c-0.2,0.6-0.3,1.3-0.6,1.9
				c-0.3,0.6-0.6,1.2-1,1.8l-0.1,0l0.8-3.9L705.4,292.6L705.4,292.6z"/>
		</g>
	</g>
	<ellipse fill="#EDE8E0" cx="685.7" cy="447" rx="96.3" ry="64.2"/>
	<g>
		<path fill="#EDE8E0" d="M757.8,404.7c-12.5-17.7-36.9-23.7-56.6-24.8c-15.7-0.9-31.6,0.3-47,3.8c-13.3,3-31.6,7.2-39.7,20"/>
		<path fill="#A7A9AC" d="M757.8,404.7c-2.7-2.1-5.3-4-8.2-5.5c-0.7-0.4-1.4-0.8-2.1-1.1l-2.2-1c-1.4-0.7-2.9-1.2-4.3-1.7
			c-0.7-0.3-1.3-0.7-2-1.1c-0.6-0.4-1.3-0.8-2-1.1c-1.4-0.6-2.7-1.4-4.2-1.9l-2.1-0.9c-0.7-0.3-1.5-0.5-2.2-0.8
			c-1.4-0.5-2.9-1-4.4-1.4c-12-3.4-24.7-4.3-37.5-4c-6.4,0.2-12.7,0.7-19,1.6c-3.1,0.5-6.3,1-9.4,1.6c-3.1,0.6-6.3,1.4-9.4,2.2
			c-6.2,1.5-12.2,3.3-17.7,5.9c-6,1.4-11.8,3.7-16.9,8.2c0.3-0.8,0.6-1.6,0.9-2.4c0.3-0.8,0.8-1.5,1.2-2.3c0.4-0.8,0.9-1.5,1.4-2.2
			c0.3-0.4,0.5-0.7,0.8-1.1l0.8-1c2.3-2.8,5-5.2,7.9-7.3c6.4-3,12.9-5,19.4-6.5c3.2-0.8,6.4-1.5,9.7-2.2c3.3-0.7,6.6-1.3,9.9-1.7
			c6.6-1,13.3-1.5,20-1.7c3.4-0.1,6.7-0.1,10.1,0c3.3,0.1,6.7,0.3,10.1,0.6c6.7,0.7,13.5,1.8,20,3.7c6.6,1.9,13,4.5,19.1,8.1
			c0.7,0.6,1.3,1.2,1.9,1.8c0.3,0.3,0.6,0.6,1,0.9l0.9,1l1.7,2c0.6,0.7,1.1,1.4,1.6,2.1c1.1,1.4,1.9,2.9,2.8,4.4
			c0.4,0.7,0.8,1.6,1.1,2.3C757.1,403.1,757.5,403.9,757.8,404.7z"/>
	</g>
</g>
<path fill="#A7A9AC" d="M507.8,634.8c-0.8,6.6,0.6,13,3.4,19c1.5,3.1,6,3.9,8.8,2.3c3.2-1.9,3.8-5.6,2.3-8.8
	c-1.8-4-2.1-8.2-1.6-12.5c0.4-3.4-3.2-6.4-6.4-6.4C510.4,628.4,508.2,631.4,507.8,634.8L507.8,634.8z"/>
<path fill="#A7A9AC" d="M538.3,633.2c-0.9,3.5-1.8,7-2.7,10.4c-0.8,3.2,1.1,7.1,4.5,7.9c3.3,0.8,7-1,7.9-4.5c0.9-3.5,1.8-7,2.7-10.4
	c0.8-3.2-1.1-7.1-4.5-7.9C542.9,627.9,539.2,629.7,538.3,633.2L538.3,633.2z"/>
<path fill="#A7A9AC" d="M515.6,601.3c0.8,4.4,1.7,8.7,2.5,13.1c0.7,3.4,4.7,5.3,7.9,4.5c3.6-1,5.1-4.5,4.5-7.9
	c-0.8-4.4-1.7-8.7-2.5-13.1c-0.7-3.4-4.7-5.3-7.9-4.5C516.5,594.4,514.9,597.9,515.6,601.3L515.6,601.3z"/>
<g>
</g>
<g>
</g>
<g>
</g>
<g>
</g>
<g>
</g>
<g>
</g>
<g>
</g>
<g>
</g>
<g>
</g>
<g>
</g>
<g>
</g>
<g>
</g>
<g>
</g>
<g>
</g>
<g>
</g>
</svg>
