<?xml version="1.0" encoding="utf-8"?>
<!-- Generator: Adobe Illustrator 18.0.0, SVG Export Plug-In . SVG Version: 6.00 Build 0)  -->
<!DOCTYPE svg PUBLIC "-//W3C//DTD SVG 1.1//EN" "http://www.w3.org/Graphics/SVG/1.1/DTD/svg11.dtd">
<svg version="1.1" id="Layer_1" xmlns="http://www.w3.org/2000/svg" xmlns:xlink="http://www.w3.org/1999/xlink" x="0px" y="0px"
	 viewBox="0 0 106 261" enable-background="new 0 0 106 261" xml:space="preserve">
<g>
	<g>
		<path fill="#44A68D" d="M41.5,260.6c126.2-118.8,24-260.2,24-260.2S-60.9,120.7,41.5,260.6z"/>
		<g>
			<path fill="#63A483" d="M42.9,260.2c35.5-33.6,59.7-77,62.8-126.3c2.1-34.5-6.2-69.2-20.3-100.5C80.2,21.9,74.3,10.3,66.9,0
				c-0.1-0.1-2.7,0.6-2.9,0.8C51.6,12.6,41.3,27,32.3,41.4C12.9,72.6,0.5,108.5,0,145.5c-0.6,42.1,15.6,81.8,40,115.5
				C40.3,261.3,42.7,259.9,42.9,260.2C14,220.4-1.9,173,4.4,123.7c4.4-34.4,19.1-67,38.8-95.2c7-10,14.8-20,23.6-28.5
				c-1,0.3-1.9,0.5-2.9,0.8c9.9,13.7,17.3,29.5,23.5,45.1c13.4,33.9,19.1,70.9,13.3,107.1C94,195.1,70.7,231.9,40,261
				C40.7,260.4,42.3,260.8,42.9,260.2z"/>
		</g>
	</g>
	<path fill="#80B493" d="M56.3,57.5c-1.1,5.7-2.2,11.4-3.2,17.1c0,0-0.1,0.1-0.1,0.1c0,0,0,0,0,0.1c-0.5,3.2-1.1,6.4-1.6,9.5
		c-9.5-1.8-17.8,3.4-25.1,9.8c1.4-1.2,2.9-2.2,4.4-3.2c0.1,0,0.3-0.1,0.6-0.2c0.8-0.3,1.5-0.7,2.3-1c1.7-0.6,3.5-1,5.4-1.2
		c3.5-0.4,6.9,0.2,10.2,1.4c0.4,0.1,0.9-0.2,1.5-0.7c-1.2,7.9-2.2,15.8-3.1,23.7c0,0-0.1,0-0.1,0c0,0,0.1,0.1,0.1,0.1
		c-0.3,3.1-0.7,6.2-1,9.2c-10.1-0.5-21.1,7.5-24.1,16.8c0.6-1.9,5.4-2.5,6.1-4.5c0.7-2.1,1.9-3.7,2.7-5.6c0.5-0.5,0.8-0.9,0.9-1.1
		c0.5-0.2,1-0.4,1.5-0.6c3.7-1.2,7.5-0.9,11.1,0.3c0.3,0.1,0.8-0.1,1.3-0.5c-0.7,7.4-1.2,14.8-1.6,22.3c-0.1,0-0.2,0.1-0.3,0
		c0.1,0.1,0.2,0.1,0.2,0.2c-0.1,1.8-0.2,3.6-0.3,5.4c-0.3,0.3-0.5,0.5-0.7,0.9c-6.8,12.7-12.7,25.7-17.7,39.2c0.7-2,5.3-2.5,6.1-4.5
		c3.5-9.6,7.6-19,12-28.1c-0.7,18-0.6,36.1,0.2,54.1c-0.1-1.4,6.1-3.1,6.1-4.5c-0.9-19.2-0.9-38.3-0.1-57.4
		c7.2,8.4,11.5,21.1,16.1,30.2c-0.2-0.3,6.3-4.1,6.1-4.5c-5.6-11.2-10.8-28-21.6-35.2c0.5-8.9,1.2-17.7,2-26.6
		c8.6,9.6,16,20.5,21.8,32c-0.2-0.3,6.3-4.1,6.1-4.5c-6.9-13.7-16.1-26.5-26.8-37.4c1-9.2,2.3-18.4,3.7-27.6
		c4.6,6.6,9.1,13.2,13.7,19.8c0,0,6.1-4.4,6.1-4.5c-6-8.7-12-17.3-18-26c1-5.8,2-11.5,3.2-17.3C62,54.7,56.7,55.6,56.3,57.5z
		 M32.3,89.7c0.1-0.1,0.2-0.1,0.2-0.2C32.5,89.6,32.4,89.7,32.3,89.7z"/>
</g>
<g>
</g>
<g>
</g>
<g>
</g>
<g>
</g>
<g>
</g>
<g>
</g>
<g>
</g>
<g>
</g>
<g>
</g>
<g>
</g>
<g>
</g>
<g>
</g>
<g>
</g>
<g>
</g>
<g>
</g>
</svg>
