<?xml version="1.0" encoding="utf-8"?>
<!-- Generator: Adobe Illustrator 21.0.2, SVG Export Plug-In . SVG Version: 6.00 Build 0)  -->
<!DOCTYPE svg PUBLIC "-//W3C//DTD SVG 1.1//EN" "http://www.w3.org/Graphics/SVG/1.1/DTD/svg11.dtd">
<svg version="1.1" id="Layer_1" xmlns="http://www.w3.org/2000/svg" xmlns:xlink="http://www.w3.org/1999/xlink" x="0px" y="0px"
	 viewBox="0 0 918 1205" style="enable-background:new 0 0 918 1205;" xml:space="preserve">
<style type="text/css">
	.st0{fill:#F4ADA1;}
	.st1{fill:#F19A98;}
	.st2{fill:#7EAC96;}
	.st3{fill:#B8D5A0;}
	.st4{fill:#639580;}
	.st5{fill:#B9D895;}
	.st6{fill:#57BC9E;}
	.st7{fill:#49706B;}
	.st8{fill:#509F89;}
	.st9{fill:#4A8E81;}
	.st10{fill:#C7DF98;}
	.st11{fill:#B6DFD8;}
	.st12{fill:#8EBDB6;}
	.st13{fill:#AAC8C8;}
</style>
<title>deco-right</title>
<rect x="774.8" y="150.5" class="st0" width="175.2" height="1089.2"/>
<path class="st1" d="M875,174.2c-7.3,69.7-8.9,139.9-8.2,210c0.7,70.6,3.5,141.1,4.8,211.7c1.2,70,0.9,140.2-4.8,210
	c-5.5,68-18.7,134.8-27.7,202.3c-8.7,65.1-12.8,132.4,3.7,196.7c2.1,8.1,4.5,16.1,7.2,24.1c-0.2-0.6,4.2-5.2,4.8-5.8s4.9-5,4.6-5.9
	c-21.4-62.9-21.2-130-14-195.4c7.5-67.7,21.6-134.4,28.4-202.1c7-69.7,8.3-139.9,7.5-209.9c-0.8-70.3-3.7-140.5-4.8-210.7
	c-1.2-70.1-0.6-140.3,5.3-210.2c0.8-8.9,1.6-17.7,2.5-26.6c-0.2,1.4-3.8,4.6-4.8,5.8C878.6,169.6,875.2,172.4,875,174.2L875,174.2z"
	/>
<path class="st1" d="M918.5,174.2c-7.3,69.7-8.9,139.9-8.2,210c0.7,70.6,3.5,141.1,4.8,211.7c1.2,70,0.9,140.2-4.8,210
	c-5.5,68-18.7,134.8-27.7,202.3c-8.7,65.1-12.8,132.4,3.7,196.7c2.1,8.1,4.5,16.1,7.2,24.1c-0.2-0.6,4.2-5.2,4.8-5.8s4.9-5,4.6-5.9
	c-21.4-62.9-21.2-130-14-195.4c7.5-67.7,21.6-134.4,28.4-202.1c7-69.7,8.3-139.9,7.5-209.9c-0.8-70.3-3.7-140.4-4.8-210.7
	c-1.2-70.1-0.6-140.3,5.3-210.2c0.8-8.9,1.6-17.7,2.5-26.6c-0.2,1.4-3.8,4.6-4.8,5.8C922.1,169.6,918.7,172.4,918.5,174.2
	L918.5,174.2z"/>
<path class="st1" d="M839.9,174.2c-7.3,69.7-8.9,139.9-8.2,210c0.7,70.6,3.5,141.1,4.8,211.7c1.2,70,0.9,140.2-4.8,210
	c-5.5,68-18.7,134.8-27.7,202.3c-8.7,65.1-12.8,132.4,3.7,196.7c2.1,8.1,4.5,16.1,7.2,24.1c-0.2-0.6,4.2-5.2,4.8-5.8s4.9-5,4.6-5.9
	c-21.4-62.9-21.2-130-14-195.4c7.5-67.7,21.6-134.4,28.4-202.1c7-69.7,8.3-139.9,7.5-209.9c-0.8-70.3-3.7-140.5-4.8-210.7
	c-1.2-70.1-0.6-140.3,5.3-210.2c0.8-8.9,1.6-17.7,2.5-26.6c-0.2,1.4-3.8,4.6-4.8,5.8C843.5,169.6,840.1,172.4,839.9,174.2
	L839.9,174.2z"/>
<path class="st1" d="M796.7,359.3c1,23.9-3.8,47.3-6.2,71c-2.3,22.5-2.4,45.1-1.8,67.7c1.3,45.1,6,90.2,2.9,135.4
	c-1.7,25.2-6,50.1-14.5,73.9c1.6-4.6,5.5-8.5,7.2-13.2c30.5-86.4,5.6-178.9,12.5-267.9c2.1-26.7,8.1-53.1,7-80
	c0.1,1.5-2.9,5.2-3.6,6.6C799.3,354.3,796.6,357.5,796.7,359.3L796.7,359.3z"/>
<path class="st1" d="M816.1,478c9.8,91.3,4.8,183.6-15,273.2c-4.6,21-9.1,43.7-24.3,60c-0.7,0.7,0.7,6.4,0.8,7.5s1.7,6.7,1,7.4
	c13.6-14.6,18.4-34.4,22.8-53.4c5.2-22.8,9.5-45.8,12.8-69c6.6-46.4,9.4-93.2,8.3-140c-0.6-25.1-2.3-50.2-5-75.1
	c-0.4-3.5-0.8-7-1.3-10.5c-0.3-2.2-0.4-2.9-0.1,0L816.1,478z"/>
<path class="st2" d="M929.1,93.4c-4.6,5.8-6,13.6-3.7,20.7l6.5,20.2l-21.1-1.5c-7.4-0.5-14.6,2.7-19.2,8.5l0,0
	c-23.3,29.9-18,72.9,11.7,96.4l47.9,37.5c16.5,12.9,38.1,17.5,58.4,12.6l0,0l66.2-7.4c20.2-2.2,34.8-20.5,32.6-40.7
	c0-0.3-0.1-0.5-0.1-0.8l-8.7-66l0,0c-0.1-21-9.7-40.8-26.2-53.7l-48-37.5C995.5,58.3,952.5,63.6,929.1,93.4z"/>
<path class="st3" d="M1025.3,125.1c-19.6,8.6-38.3,19.2-55.8,31.6c-7-5.3-14.1-10.7-21-16.1c-5.2-4.1-11.9,8.6-7.6,12
	c3.4,2.7,6.9,5.3,10.4,8c-0.7,0.9-1.2,1.9-1.7,3c-5.5,13.4-9.8,27.2-12.9,41.3c-0.6,2.7,0.2,4.7,2.9,4.1s4.4-6.4,4.9-8.7
	c2.7-11.7,6.3-23.1,10.8-34.2c0.2-0.4,0.4-1.1,0.7-1.9c8.7,6.7,17.5,13.3,26.3,19.8c0,0.2-0.1,0.4-0.2,0.6
	c-3.9,18.8-7.2,37.8-9.7,56.8c-0.4,3,1.3,5.3,4.3,4.7c3.3-0.7,4.9-5.8,5.3-8.5c2.1-16,4.9-31.9,8.1-47.8c8,5.8,16.1,11.6,24.3,17.3
	c-0.4,0.7-0.6,1.5-0.8,2.3c-2.9,14.6-4.9,29.5-6.1,44.3c-0.2,2.9,1.3,5.6,4.5,4.7s5.1-5.6,5.3-8.5c1-12.5,2.7-25,5-37.3
	c7.5,5.2,15,10.3,22.6,15.4c4.6,3,10.7-10,5.7-13.3c-11.2-7.5-22.2-15.1-33.2-22.8l37.3-17.7c6-2.9,5.4-16.1-2.7-12.3l-46.2,21.9
	c-9-6.4-17.9-13-26.8-19.6c14.5-9.8,29.9-18.3,45.9-25.4C1030.7,136.1,1032.5,121.9,1025.3,125.1z"/>
<path class="st3" d="M876.6,4c-6.3,2.5-10.9,7.9-12.3,14.5l-4.1,18.7l-15.8-10.8c-5.6-3.8-12.6-4.6-18.9-2.1l0,0
	C793.6,37,778.1,73.1,790.6,105l20.3,51.2c7,17.6,21.8,31.1,40,36.5l0,0l55.1,24.5c16.9,7.5,36.6-0.1,44.1-17
	c0.1-0.2,0.2-0.4,0.3-0.6l23.3-55.6l0,0c9.5-16.4,11-36.3,4-54l-20.3-51.1C944.6,7,908.5-8.6,876.6,4z"/>
<path class="st2" d="M937.4,72.7c-19.3-2.2-38.7-2.5-58.1-0.7c-3.1-7.4-6.1-14.8-9.1-22.2c-2.2-5.6-13.2,1.3-11.4,5.9
	c1.5,3.7,3,7.3,4.5,11c-1,0.4-1.9,1-2.7,1.6c-10.4,8-20,16.8-28.9,26.4c-1.7,1.8-2,3.8,0.4,4.5s6.4-3,7.8-4.5
	c7.4-7.9,15.4-15.2,24-21.8c0.3-0.3,0.8-0.7,1.4-1.1c3.8,9.2,7.7,18.3,11.6,27.5c-0.1,0.1-0.3,0.2-0.4,0.4
	c-11.7,12.9-22.8,26.2-33.5,40c-1.7,2.2-1.4,4.8,1.3,5.6c2.9,1,6.5-2.3,8-4.3c9-11.6,18.4-22.7,28.1-33.7
	c3.6,8.2,7.3,16.4,11.1,24.6c-0.6,0.4-1.2,0.9-1.7,1.4c-9,10.1-17.3,20.8-25,31.9c-1.5,2.1-1.5,5,1.3,5.8s6.5-2,8-4.2
	c6.5-9.3,13.5-18.3,20.9-26.9c3.5,7.5,7,14.9,10.7,22.4c2.2,4.5,13-2.9,10.5-7.8c-5.3-10.9-10.5-21.9-15.6-33l37.3,3.2
	c6,0.5,11.6-10.1,3.5-10.8l-46-3.9c-4.1-9.1-8.1-18.3-12-27.5c15.8-1.1,31.7-0.7,47.5,1.1C936.6,83.8,944.4,73.5,937.4,72.7z"/>
<path class="st2" d="M847.9,107.6c-3.1-6-9-10.1-15.7-10.9l-19.1-2.3l9.3-16.9c3.2-5.9,3.3-13.1,0.3-19.1l0,0
	c-15.8-30.6-53.4-42.6-84.1-27l-49.2,25.2c-17,8.7-29,24.8-32.6,43.5l0,0l-19.2,57.5c-5.9,17.6,3.6,36.6,21.2,42.4
	c0.2,0.1,0.4,0.1,0.7,0.2l57.9,17.9l0,0c17.3,7.9,37.4,7.5,54.3-1.2l49.2-25.3C851.5,175.9,863.6,138.3,847.9,107.6z"/>
<path class="st3" d="M785,175c0.4-19.5-1.3-39-4.9-58.1c7.1-3.8,14.2-7.6,21.3-11.2c5.3-2.7-2.6-13.1-7-10.8
	c-3.5,1.8-7,3.7-10.5,5.5c-0.5-0.9-1.2-1.8-1.9-2.6c-9-9.6-18.7-18.4-29.1-26.4c-2-1.5-4-1.6-4.5,0.9s3.6,6.1,5.3,7.4
	c8.6,6.6,16.7,14,24.1,22c0.3,0.3,0.7,0.8,1.3,1.3c-8.8,4.7-17.6,9.4-26.3,14.2c-0.1-0.1-0.3-0.2-0.4-0.3
	c-14-10.4-28.5-20.3-43.2-29.7c-2.3-1.5-4.9-0.9-5.5,1.8c-0.7,3,2.9,6.3,5,7.6c12.4,7.9,24.5,16.2,36.4,24.8
	c-7.9,4.4-15.7,8.9-23.5,13.5c-0.5-0.6-1-1.1-1.6-1.5c-11-8-22.4-15.3-34.3-21.9c-2.3-1.3-5.1-1-5.6,1.9s2.7,6.3,5,7.6
	c10,5.6,19.7,11.7,29,18.3c-7.1,4.2-14.3,8.5-21.3,12.8c-4.3,2.6,4.1,12.7,8.8,9.8c10.4-6.4,20.9-12.6,31.5-18.8
	c0.1,12.5,0.3,25,0.4,37.6c0.1,6.1,11.3,10.6,11.2,2.5c-0.2-15.5-0.3-30.9-0.5-46.4c8.7-5,17.5-9.9,26.4-14.7
	c2.6,15.7,3.8,31.6,3.6,47.5C773.8,175.3,784.9,182.1,785,175z"/>
<path class="st4" d="M889.8,172c-6.6-2.5-14.1-1.5-19.8,2.6l-16.4,11.7l-4.7-19.7c-1.6-6.9-6.6-12.5-13.2-15l0,0
	c-33.8-12.6-71.3,4.5-84.1,38.2L731.2,244c-7,18.7-5,39.6,5.3,56.6l0,0l25.6,58c7.8,17.7,28.6,25.7,46.3,17.9
	c0.2-0.1,0.4-0.2,0.6-0.3l57.4-26.8l0,0c19-6,34.2-20.5,41.3-39.1l20.3-54.2C940.6,222.3,923.5,184.8,889.8,172z"/>
<path class="st3" d="M888.6,268.4c-13.4-15.4-28.4-29.3-44.7-41.6c2.8-7.9,5.7-15.8,8.6-23.7c2.2-5.9-11.2-8.3-13-3.5
	c-1.5,3.9-2.8,7.8-4.3,11.7c-1.1-0.3-2.1-0.5-3.2-0.7c-13.7-1.1-27.4-1.1-41.1,0.1c-2.6,0.2-4.2,1.6-2.9,3.8s7.1,2.2,9.3,2
	c11.4-0.9,22.8-0.9,34.1,0.1c0.4,0,1.1,0.1,1.9,0.1c-3.6,9.8-7,19.7-10.4,29.6c-0.2,0-0.4,0-0.6,0c-18.3,1.8-36.4,4.3-54.4,7.4
	c-2.9,0.5-4.4,2.7-3,5.3c1.5,2.8,6.7,2.8,9.3,2.4c15.1-2.6,30.4-4.7,45.6-6.3c-3,9-5.9,18-8.7,27c-0.8-0.1-1.5-0.1-2.3-0.1
	c-14.1,1.6-28.2,3.9-42,7.2c-2.7,0.6-4.7,2.8-3,5.4s6.5,3,9.2,2.4c11.6-2.7,23.4-4.8,35.3-6.2c-2.5,8.3-5.1,16.6-7.5,24.9
	c-1.5,5,12.1,6.9,13.7,1.3c3.6-12.3,7.3-24.5,11.2-36.7l26.7,28.8c4.3,4.7,16.2,0.3,10.4-6l-33-35.6c3.3-10,6.6-20,10.1-29.9
	c13.1,10.3,25.2,21.8,36.2,34.3C880.1,276.5,893.5,274,888.6,268.4z"/>
<path class="st4" d="M900.2,1080.3c17.5-21.1,35.2-44.3,52.5-69.5c0,0,20.8,99.1-48.7,176.1s-143.3,65.2-143.3,65.2l-11.8-25.9
	c0,0,37.3-26.3,87.3-75.9l26.3,11.6l-14.8-23.2c15-15.3,30.8-32.6,47-51.8l13.4,17.3L900.2,1080.3z"/>
<path class="st5" d="M828.6,951.4c10.9-35,21-72.9,29.5-113c0,0,76.5,112.1,29.8,243.2s-144.2,154-144.2,154l-27.9-26
	c0,0,32.8-51.6,69.3-138.8l38.5,0.9l-30.2-21.3c10.7-26.7,21.5-56.2,31.7-88.2l25.4,14.5L828.6,951.4z"/>
<path class="st6" d="M688.2,906.5c-3.6-41.6-9.1-85.9-17.3-132c0,0,128.8,85.5,135.8,243.9s-86.1,224.5-86.1,224.5l-40.6-15.5
	c0,0,12.4-68.5,13.6-176.2l41-15.5l-41-9.5c-0.2-32.7-1.5-68.5-4.4-106.7l33,4.4L688.2,906.5z"/>
<path class="st7" d="M605.3,1037.3c-12,7.8-32.3,16.2-32.3,16.2c12.7-0.3,26.7-5.3,35.7-9.1c5.1,11.8,9,25.8,10.8,42.7
	c-14.5,9.1-45.1,18-45.1,18c10.1,4.7,32.8-1.1,45.9-5.9c0.5,15.6-0.5,31.2-2.9,46.7c-0.2,5.3-0.9,10.7-2,15.9
	c-24.1,10.8-53.2,9.9-53.2,9.9c13.6,8.8,37.7,5,50.5,2.2c-2.9,10.8-6.7,21.3-11.2,31.5c-40,5-59.1-4.4-59.1-4.4
	c21.5,12.3,43.4,13.4,55.2,12.9c-4.8,10-10.3,19.7-16.3,29.1l-163.1,48.8l-4.7-15.7c0,0,190.7-91.9,129.9-289.3
	C543.3,986.7,582.9,994.3,605.3,1037.3z"/>
<path class="st8" d="M503.4,1051.6c93.3,116.4-10.8,224.6-10.8,224.6S399.4,1158.5,503.4,1051.6z"/>
<path class="st9" d="M496.8,1230.5c-0.3-5-0.5-10.1-0.6-15.1l18.5-20c0.1-0.1-4.6-4.6-4.6-4.6l-14.1,15.2c-0.1-8,0-16,0.2-24
	c10.5-8.1,19.8-17.7,27.4-28.6c0.2-0.3-4.8-4.3-4.6-4.6c-6.4,9.2-13.9,17.4-22.5,24.7c0.3-7.6,0.8-15.3,1.5-22.9
	c10.1-4.9,16.5-18.6,22.7-27.4c0.2-0.3-4.8-4.3-4.6-4.6c-5,7.2-10.1,17.6-17.3,23.8c1.6-16.4,3.9-32.7,7-48.9
	c0.2-1.2-4.8-3.4-4.6-4.6c-2.9,15.3-5.1,30.7-6.7,46.1c-2.7-8.4-5-16.8-6.9-25.4c-0.4-1.8-4.2-2.8-4.6-4.6
	c2.6,12.1,6.1,24,10.3,35.6c0.1,0.3,0.3,0.6,0.5,0.8c-0.1,1.6-0.3,3.1-0.4,4.7l-0.2,0.1c0.1,0,0.1,0,0.2,0c-0.5,6.4-1,12.8-1.3,19.2
	c-0.4-0.4-0.7-0.7-1-0.6c-3.2,0.6-6.5,0.3-9.5-1.1c-0.4-0.2-0.8-0.4-1.2-0.7c-0.2-0.4-0.4-0.7-0.7-1c-0.5-1.8-1.3-3.3-1.6-5.1
	s-4.3-2.9-4.6-4.6c1.4,8.3,9.9,16.4,18.5,17.2c-0.1,2.7-0.2,5.3-0.3,8l-0.1,0.1c0,0,0,0,0.1,0c-0.2,6.9-0.3,13.7-0.2,20.6
	c-0.4-0.5-0.8-0.8-1.2-0.8c-4.5,1.1-9.2,0.5-13.3-1.7c-0.6-0.3-1.2-0.8-1.8-1.1l-0.5-0.3c-1.1-1.1-2.4-2.1-3.4-3.3
	c5.4,6.3,11.9,11.7,20.2,11.3c0,2.8,0.1,5.5,0.2,8.3l0,0c0,0,0,0,0,0.1c0.2,5,0.4,10,0.6,15C492.3,1227.6,496.7,1228.9,496.8,1230.5
	z M475.8,1195.7l-0.2-0.2L475.8,1195.7z"/>
<path class="st10" d="M728.7,1206.1c-2.8-0.8-5.4-0.2-8.1,0.8l-29,11l-22.1,8.4c-0.5-3.4-0.9-6.8-1.3-10.2l51.1-19.5
	c4.2-1.6,8-3.3,9.6-8.3c1.9-5.8-0.9-12-6.4-14.6c-3-1.3-6-0.9-9,0.3l-27.1,10.4l-20.7,7.9c-0.3-3-0.5-5.9-0.8-8.9l56.2-21.2
	c4.2-1.6,8.7-2.8,11-7.2c4.9-9.4-4.1-20.1-13.5-16.6c-10.3,3.8-20.5,7.7-30.7,11.6l-24.6,9.3c-0.2-3.9-0.4-7.8-0.5-11.6l56.6-22.6
	c3.9-1.6,7.8-2.7,10-7c3.1-6.1,0.5-13.8-5.7-16.4c-3.1-1.3-6.1-0.8-9.1,0.4c-9.9,3.9-19.8,7.9-29.6,11.8l-22.7,9.1
	c0-6.5,0.1-13,0.2-19.4l50.8-15c4-1.2,8.1-2.2,10.5-6.4c5.2-9.1-3-19.7-12.5-17.3c-8.9,2.2-17.6,5.2-26.4,7.8l-21.5,6.3
	c0.2-3.2,0.4-6.3,0.6-9.5l47.1-13.7c3.7-1.1,7.5-2,9.9-5.7c5.7-8.9-2.2-20.3-11.9-18c-8,1.9-15.8,4.6-23.7,6.9l-19.1,5.6
	c0.5-4.2,1-8.4,1.5-12.6l43.8-8.7c3.8-0.8,7.4-1.7,9.8-5.3c5.9-8.8-1.7-19.8-11.3-18.3c-7.2,1.2-14.3,2.8-21.5,4.3l-17,3.4
	c0.5-2.8,1-5.6,1.6-8.4l34.6-10.1c3-0.9,5.8-1.8,8-4.3c5.3-6.3,2.5-16.6-5.2-19c-3.1-1-5.9-0.1-8.8,0.8l-10.8,3.2l-11.9,3.5
	c0.9-3.7,1.9-7.3,2.9-10.9l24.6-12c1.3-0.6,2.5-1.2,3.7-2c4.8-3.5,6.5-9.9,3.8-15.2c-2.5-5.2-8.7-7.6-14.1-5.3
	c-1.6,0.7-3.1,1.5-4.7,2.2l-3.5,1.7c1.4-3.8,3-7.6,4.6-11.3l0.8-1.8l0.5-1c0.3-0.5,0.5-1.1,0.8-1.6c1.2-2,1.9-4.3,2-6.7
	c0.3-10.7-12.7-16-19.4-8.1c-2.3,2.8-3.7,6.6-5.1,9.9c-2.3,5.2-4.4,10.5-6.4,15.8l-1.7-2.9c-3.2-5.4-6.1-12.3-13.1-12.7
	c-6-0.2-11.1,4.3-11.7,10.3c-0.3,2.9,0.4,5.8,2,8.3l8.6,14.6l6.6,11.1c-0.9,3.1-1.7,6.3-2.5,9.5l-5.4-6.5l-7.7-9.4
	c-1.4-2-3-3.8-4.8-5.4c-6.8-5.3-16.8-0.5-17.6,8.3c-0.4,4.2,1.5,7.4,4,10.4l14.4,17.4l10.9,13.2c-0.4,2.2-0.8,4.4-1.3,6.5
	c-8.9-8.3-17.8-16.5-26.8-24.8c-2.5-2.3-5.3-3.7-8.7-3.4c-4.8,0.4-8.8,3.9-9.9,8.6c-1.3,5.2,0.9,9.5,4.5,12.8l20.3,18.8l16.3,15.1
	c-0.5,3.8-1,7.6-1.5,11.4c-12.5-10.6-24.9-21.2-37.5-31.6c-4.7-4-11.7-3.4-15.6,1.2c-1.4,1.7-2.3,3.8-2.6,6
	c-0.9,6.1,2.8,9.8,6.9,13.2l26.2,22l20,16.9c-0.2,2.7-0.4,5.3-0.5,8l-42.4-29.2c-1.7-1.3-3.7-2.2-5.8-2.5c-6.2-0.6-11.7,4-12.3,10.2
	c0,0,0,0,0,0c-0.7,6.3,3.2,10,7.6,13.1l29,20l22.8,15.7c-0.1,6.3-0.2,12.6-0.2,18.9l-50.4-29.7c-1.3-0.9-2.7-1.6-4.2-2.2
	c-6.6-2.1-13.5,2.7-14.3,9.8c-0.8,6.8,3.8,10.4,8.6,13.3l33.8,20l26.9,15.8c0.1,3.9,0.3,7.8,0.5,11.7l-57.9-22
	c-0.8-0.3-1.7-0.7-2.5-0.9c-5.9-1.9-12.2,1.3-14.2,7.2c-0.2,0.7-0.4,1.4-0.5,2.1c-0.8,5.5,2.3,10.8,7.4,12.8c1,0.4,2,0.8,3,1.2
	l37.3,14.1l29,11c0.3,3.4,0.6,6.9,0.9,10.3l-61.8-10.8c-1.4-0.2-2.8-0.6-4.2-0.7c-5.7-0.7-11.1,3.2-12.3,8.8c0,0.2-0.1,0.3-0.1,0.5
	c-0.1,0.3-0.1,0.6-0.2,0.9c-0.7,6.3,3.6,12,9.8,12.9c1,0.2,2.1,0.4,3.1,0.6l16.9,2.9l44.7,7.8l6.5,1.1c0.5,3.9,1,7.9,1.5,11.8
	l-49.2-0.9c-0.7,0-1.3,0-2,0c-5.7,0-10.5,4.2-11.3,9.8c-1.2,7.8,4.8,13.4,11.8,13.6l30,0.6l24,0.4c0.9,5.7,1.8,11.4,2.9,17.2
	c1.2,6.5,6.4,11.4,13,10.2c6.3-1.2,9.8-7.4,9-13.8c-0.8-5.8-1.9-11.6-2.9-17.4l53.5-20.3c4.4-1.7,8.5-3.6,9.9-9
	C738.1,1214.3,734.6,1207.7,728.7,1206.1z"/>
<path class="st8" d="M342.8,1059.5c-176.9,34.2-165.6,215.3-165.6,215.3S355,1239.3,342.8,1059.5z"/>
<path class="st9" d="M216.8,1228.8c4.2-4.4,8.3-8.8,12.3-13.3h0.1v-0.1c2.2-2.5,4.5-5,6.7-7.5c7.4,6.8,17.6,6.9,27.4,5.3
	c-1.9,0.3-3.8,0.3-5.7,0.4l-0.6-0.1c-0.8-0.2-1.7-0.2-2.5-0.4c-5.4-1.2-10.3-4.4-13.6-8.8c-0.2-0.3-0.9-0.3-1.6-0.2
	c5.4-6.3,10.7-12.7,15.9-19.2c7.8-9.7,0.1,0,0.1,0v-0.1c2-2.5,4-5,6-7.6c8.6,6,22.7,5.2,30.5-1.4c-1.6,1.3-6.2-0.8-7.8,0.6
	s-3.7,2.2-5.5,3.4c-0.5,0.1-1,0.2-1.4,0.4c-0.6-0.1-1.1-0.2-1.7-0.3c-3.8-1.1-7.2-3.3-9.6-6.4c-0.2-0.3-0.8-0.3-1.4-0.3
	c4.7-6.1,9.3-12.3,13.8-18.7c0.1,0,0.2,0.1,0.2,0.1c0-0.1-0.1-0.2-0.1-0.3c1.1-1.5,2.2-3.1,3.3-4.6c0.4,0,0.8-0.2,1.1-0.3
	c13-7.3,25.5-15.6,37.3-24.6c-1.7,1.3-6.1-0.8-7.8,0.6c-8.4,6.5-17.2,12.5-26.2,18c10.6-15.5,20.6-31.3,29.9-47.7
	c-0.7,1.2-7.1-0.7-7.8,0.6c-9.9,17.3-20.5,34.2-31.9,50.5c-1.7-11.4,1.6-24.9,2.7-35.5c0,0.4-7.8,0.1-7.8,0.6
	c-1.3,13-6.1,30.6-0.6,43c-5.3,7.5-10.9,14.9-16.6,22.2c-2.2-13.3-2.7-26.8-1.4-40.2c0,0.4-7.8,0.1-7.8,0.6
	c-1.5,16-0.6,32.1,2.8,47.8c-6,7.5-12.2,14.9-18.6,22.2l-1-25c0,0-7.8,0.4-7.8,0.6l1.4,32.9c-4.1,4.5-8.2,9-12.4,13.4
	C210.3,1228.1,215.4,1230.3,216.8,1228.8z M255.8,1213.8h-0.3H255.8z"/>
<path class="st8" d="M332.1,1059.5c176.9,34.2,165.6,215.3,165.6,215.3S319.9,1239.3,332.1,1059.5z"/>
<path class="st9" d="M465.9,1229.4c-4.2-4.4-8.3-8.9-12.4-13.4l1.4-32.9c0-0.2-7.8-0.6-7.8-0.6l-1,25c-6.3-7.3-12.5-14.7-18.6-22.2
	c3.4-15.7,4.3-31.8,2.8-47.8c0-0.5-7.8-0.2-7.8-0.6c1.3,13.4,0.8,26.9-1.4,40.2c-5.7-7.3-11.2-14.7-16.5-22.2
	c5.5-12.4,0.7-30-0.6-43c0-0.5-7.8-0.2-7.8-0.6c1,10.5,4.4,24.1,2.7,35.5c-11.3-16.3-22-33.2-31.9-50.5c-0.8-1.3-7.1,0.6-7.8-0.6
	c9.3,16.3,19.3,32.2,29.9,47.7c-9-5.6-17.8-11.6-26.2-18c-1.8-1.3-6.1,0.7-7.8-0.6c11.9,9.1,24.3,17.3,37.3,24.6
	c0.3,0.2,0.7,0.3,1.1,0.3c1.1,1.5,2.2,3.1,3.3,4.6c0,0.1-0.1,0.2-0.1,0.3c0-0.1,0.1-0.1,0.2-0.1c4.5,6.3,9.1,12.5,13.8,18.7
	c-0.7-0.1-1.2,0-1.4,0.3c-2.5,3.1-5.8,5.3-9.6,6.4c-0.5,0.2-1.1,0.3-1.7,0.3c-0.5-0.2-0.9-0.3-1.4-0.4c-1.8-1.3-3.8-2-5.5-3.4
	s-6.2,0.7-7.8-0.6c7.8,6.6,22,7.4,30.5,1.4c2,2.5,4,5.1,6,7.6v0.1c0,0,0,0,0.1,0c5.2,6.5,10.5,12.9,15.9,19.2
	c-0.8-0.1-1.4-0.1-1.6,0.2c-3.3,4.5-8.1,7.6-13.6,8.8c-0.8,0.2-1.7,0.2-2.5,0.4l-0.6,0.1c-1.9-0.1-3.8-0.1-5.7-0.4
	c9.9,1.6,20.1,1.5,27.4-5.3c2.2,2.5,4.4,5,6.7,7.5v0.1h0.1c4,4.5,8.1,8.9,12.3,13.3C459.4,1230.3,464.6,1228.1,465.9,1229.4z
	 M419.3,1213.9H419H419.3z"/>
<path class="st11" d="M296.5,1340.3c-43-44.9-105.4-142.6-86.6-321.2c0.5-4.8,7.6-4.9,8.1,0c3.7,36.3,11.4,94.8,26.7,156.3
	c-2.5-49.2,3.8-108.3,25.9-177.7c1.5-4.7,8.4-3.2,7.9,1.6c-3.5,33.8-7.4,87.1-5.8,145.4c6.4-46.8,22.2-100.9,53.1-161.6
	c2.2-4.3,8.8-1.8,7.5,2.9c-11.3,42-28.6,115.3-34.6,192c13.4-50.1,39.9-107.9,88.2-171c3-3.9,9-0.2,6.9,4.2
	c-15.8,32.9-39.8,86.9-58.8,147.3c23.6-43.3,59.8-90.4,114.9-138c3.7-3.2,8.9,1.6,5.9,5.5c-20.6,27-51.8,70.5-80.9,121
	c29.9-36.6,71.6-74.4,129.6-110.1c4.1-2.6,8.5,3,4.9,6.4c-52.6,49.7-164.5,165.1-200.8,276.8c-0.4,1.4-1.6,2.5-3,2.7
	c0.3,1.4,0.6,2.8,1,4.2c0.5,1.6-0.2,3.4-1.7,4.3c0,0.1,0,0.1,0,0.2c3.2,5.3,6.6,10.5,10,15.6c2.7,3.9-2.5,8.5-6.1,5.3
	c-2.2-2-4.6-4.3-7-6.6c-2,0.4-4-0.9-4.5-2.8C297,1342,296.7,1341.2,296.5,1340.3z"/>
<path class="st12" d="M163,1188.4c-12.2-15.3-1.6-28.9,2.6-44.7c2.5-9.6,1.2-19.8-3.5-28.5c-5-9.2-9.6-14.4-9.6-25.4
	c0-4.1,1.2-8.1,3.4-11.6l1.7-2.6c2.1-3.3,3.4-7.1,3.6-11c0.5-9.9-5.7-18.9-15.2-21.9l-0.5-0.2c-7.2-2.3-14.9-2.4-22.1-0.2
	c-5.7,1.6-10.5,5.5-13.3,10.6c-3.7,6.9-3.5,15.2,0.6,21.9l1.9,3.1c2.1,3.5,3.3,7.5,3.2,11.6v6.5c0,6.4-4.8,10.5-8.3,15.3
	c-7.1,9.7-7.2,24.2-4.1,35.3c1.6,5.7,4.3,11,5.8,16.6c2.5,8.6,0.6,17.9-5.2,24.8c-5.2,6.4-8.1,14.4-8.2,22.7l-0.1,9
	c0,4.2,0.7,8.4,2.1,12.3l16.7,47.2l18.4,0.1l18.4,0.1l17.3-47c1.4-3.9,2.2-8.1,2.2-12.3l0.1-9C171,1203,168.2,1194.9,163,1188.4z"/>
<path class="st13" d="M133.5,1082.7l2,0c1,0,1.8,0.8,1.8,1.9l-1.1,158.6c0,1-0.8,1.8-1.9,1.8l-2,0c-1,0-1.8-0.8-1.8-1.9l1.1-158.6
	C131.7,1083.5,132.5,1082.7,133.5,1082.7z"/>
<path class="st13" d="M135.6,1122.8c-1.3,0-2.3-1.1-2.3-2.3c0-0.6,0.2-1.1,0.6-1.5l11.8-12.5c0.9-0.9,2.4-0.8,3.3,0.1
	c0.8,0.8,0.8,2.2,0.1,3l-11.8,12.5C136.8,1122.5,136.2,1122.8,135.6,1122.8z"/>
<path class="st13" d="M133.8,1147.7c-0.6,0-1.1-0.2-1.6-0.6l-16.9-16c-1-0.8-1.1-2.3-0.3-3.2c0.8-1,2.3-1.1,3.2-0.3
	c0.1,0.1,0.1,0.1,0.2,0.2l16.9,16c0.9,0.9,1,2.3,0.2,3.2C135.1,1147.5,134.5,1147.8,133.8,1147.7L133.8,1147.7z"/>
<path class="st13" d="M133.9,1181.2c-1.3,0-2.3-1.1-2.3-2.3c0-0.7,0.3-1.3,0.8-1.7l16.7-13.6c1-0.8,2.5-0.6,3.2,0.4
	c0.7,1,0.6,2.3-0.3,3.1l-16.7,13.6C134.9,1181,134.4,1181.2,133.9,1181.2z"/>
<path class="st13" d="M133.4,1214.3c-0.6,0-1.1-0.2-1.5-0.6l-14.9-13.1c-1-0.7-1.3-2.2-0.6-3.2s2.2-1.3,3.2-0.6
	c0.1,0.1,0.3,0.2,0.4,0.3l14.9,13.1c0.9,0.9,1,2.3,0.2,3.2C134.6,1214,134,1214.3,133.4,1214.3L133.4,1214.3z"/>
<path class="st12" d="M225.8,1209.6c-3.3-10.3-0.4-21.6,7.5-29l5.7-5.4c6.2-6.1,10.4-14,12-22.6c1.9-9.8-1.9-15.8-2.9-25.1
	c-0.5-4.9,1.4-9.3,3.2-13.8c1.5-3.8,4-7.1,7.3-9.6l2.5-1.9c3.2-2.3,5.7-5.4,7.3-9c4-9.1,1.4-19.7-6.4-25.8l-0.4-0.3
	c-5.9-4.7-13.1-7.5-20.6-8c-5.9-0.5-11.7,1.4-16.3,5.2c-5.9,5.1-8.7,13-7.2,20.7l0.7,3.5c0.8,4,0.4,8.2-1.1,12
	c-1.7,4.3-3.8,9.6-7.3,12.7c-3.9,3.5-9.2,5.2-13.1,8.8c-19.4,17.4-0.9,52.1-25.6,66.3c-7.2,4.1-12.8,10.6-15.8,18.3l-3.3,8.3
	c-1.5,3.9-2.4,8.1-2.5,12.3l-1.3,50.1l17.1,6.7l17.1,6.7l32.9-37.8c2.8-3.2,4.9-6.8,6.5-10.7l3.3-8.3
	C228,1226.1,228.3,1217.5,225.8,1209.6z"/>
<path class="st13" d="M235.9,1100.3l1.8,0.7c1,0.4,1.4,1.4,1.1,2.4l-57.5,147.8c-0.4,1-1.4,1.4-2.4,1.1l-1.8-0.7
	c-1-0.4-1.4-1.4-1.1-2.4l57.5-147.8C233.9,1100.4,234.9,1100,235.9,1100.3z"/>
<path class="st13" d="M223.6,1138.5c-1.2-0.5-1.8-1.8-1.3-3c0.2-0.5,0.6-1,1.1-1.2l15.5-7.5c1.2-0.5,2.5,0,3,1.2c0.5,1.1,0,2.4-1,3
	l-15.5,7.5C224.8,1138.7,224.1,1138.7,223.6,1138.5z"/>
<path class="st13" d="M213,1161.2c-0.5-0.2-1-0.6-1.2-1.1l-10.1-20.9c-0.6-1.1-0.3-2.5,0.9-3.1c1.1-0.6,2.5-0.3,3.1,0.9
	c0.1,0.1,0.1,0.2,0.1,0.3l10.1,20.9c0.5,1.1,0.1,2.5-1.1,3.1C214.2,1161.4,213.6,1161.4,213,1161.2L213,1161.2z"/>
<path class="st13" d="M201.1,1192.5c-1.2-0.5-1.8-1.8-1.3-3c0.2-0.6,0.8-1.1,1.4-1.3l20.5-6.8c1.2-0.5,2.5,0.1,3,1.3
	c0.5,1.2-0.1,2.5-1.3,3c-0.1,0-0.1,0-0.2,0.1l-20.5,6.8C202.2,1192.7,201.6,1192.7,201.1,1192.5z"/>
<path class="st13" d="M188.8,1223.3c-0.5-0.2-0.9-0.6-1.2-1.1l-9.3-17.6c-0.5-1.2,0-2.5,1.2-3c1.1-0.5,2.3-0.1,2.9,0.9l9.3,17.6
	c0.6,1.1,0.2,2.5-1,3.1C190.1,1223.4,189.4,1223.5,188.8,1223.3L188.8,1223.3z"/>
<path class="st12" d="M102.1,1189.5c-12.7-6.8-14.4-18.4-14.4-31.4c0-18.7-9.5-32.8-25.1-41.9c-8-4.7-11.8-16.3-10.4-25.2l0.5-3.1
	c0.7-3.9,0.3-7.9-1-11.6c-3.4-9.3-12.7-15.1-22.6-14.1l-0.5,0.1c-7.5,0.7-14.6,3.7-20.4,8.6c-4.6,3.7-7.5,9.1-8.1,15
	c-0.7,7.8,2.8,15.4,9.2,19.9l2.9,2.1c3.3,2.4,6,5.6,7.6,9.4c1.9,4.5,4.1,9.2,3.6,14.2c-0.9,9.3-4.8,14.9-2.3,24.6
	c3,11.5,9.8,19.9,18.5,27.6c8.1,7.2,11.3,18.4,8.3,28.8c-2.3,8-1.8,16.5,1.4,24.1l3.5,8.3c1.6,3.9,3.9,7.4,6.8,10.5l33.9,36.8
	l16.9-7.1l16.9-7.1l-2.6-50c-0.2-4.2-1.2-8.3-2.8-12.2l-3.5-8.3C115.1,1199.7,109.4,1193.4,102.1,1189.5z"/>
<path class="st13" d="M33.3,1104l1.8-0.8c0.9-0.4,2,0,2.4,1L99,1250.3c0.4,0.9,0,2-1,2.4l-1.8,0.8c-0.9,0.4-2,0-2.4-1l-61.5-146.2
	C31.9,1105.4,32.3,1104.4,33.3,1104z"/>
<path class="st13" d="M51,1139.9c-1.2,0.5-2.5-0.1-3-1.3c-0.2-0.5-0.2-1.1,0-1.6l5.9-16.2c0.5-1.2,1.9-1.7,3-1.2
	c1.1,0.5,1.6,1.6,1.3,2.8l-6,16.2C52,1139.2,51.6,1139.7,51,1139.9z"/>
<path class="st13" d="M59.2,1163.6c-0.5,0.2-1.1,0.2-1.7,0l-21.9-8c-1.2-0.4-1.9-1.6-1.6-2.9c0.4-1.2,1.6-1.9,2.9-1.6
	c0.1,0,0.2,0.1,0.3,0.1l21.8,8c1.2,0.4,1.8,1.8,1.4,3C60.3,1162.8,59.8,1163.3,59.2,1163.6L59.2,1163.6z"/>
<path class="st13" d="M72.5,1194.3c-1.2,0.5-2.5-0.1-3-1.2c-0.3-0.6-0.2-1.3,0.1-1.9l10-19.1c0.5-1.2,1.9-1.7,3-1.2
	c1.2,0.5,1.7,1.9,1.2,3c0,0.1-0.1,0.2-0.1,0.3l-10,19.1C73.4,1193.7,73,1194.1,72.5,1194.3z"/>
<path class="st13" d="M85.1,1225c-0.5,0.2-1.1,0.2-1.6,0.1l-18.9-6.2c-1.2-0.4-1.9-1.6-1.6-2.9c0.4-1.2,1.6-1.9,2.9-1.6
	c0,0,0.1,0,0.1,0l18.9,6.2c1.2,0.4,1.9,1.7,1.5,2.9C86.2,1224.2,85.7,1224.7,85.1,1225L85.1,1225z"/>
</svg>
