<?xml version="1.0" encoding="utf-8"?>
<!-- Generator: Adobe Illustrator 18.0.0, SVG Export Plug-In . SVG Version: 6.00 Build 0)  -->
<!DOCTYPE svg PUBLIC "-//W3C//DTD SVG 1.1//EN" "http://www.w3.org/Graphics/SVG/1.1/DTD/svg11.dtd">
<svg version="1.1" id="Layer_1" xmlns="http://www.w3.org/2000/svg" xmlns:xlink="http://www.w3.org/1999/xlink" x="0px" y="0px"
	 viewBox="0 0 530.3 223.1" enable-background="new 0 0 530.3 223.1" xml:space="preserve">
<g>
	<path fill="#FFFFFF" d="M460,179.1H70.3C31.6,179.1,0,147.4,0,108.8V70.3C0,31.6,31.6,0,70.3,0L460,0c38.7,0,70.3,31.6,70.3,70.3
		v38.5C530.3,147.4,498.6,179.1,460,179.1z"/>
	<g>
		<path fill="#757679" d="M64.4,36.6v12.4h-8.5c-0.1,1.1-0.1,2.2-0.2,3.2h9.8c0,6.6-0.2,10.7-0.5,12.3c-0.4,2.5-2.5,3.8-6.2,3.8
			c-0.6,0-1.6-0.1-3-0.2l-0.8-3.2c1.3,0.1,2.3,0.1,3.3,0.1c1.8,0,2.9-0.8,3.2-2.2c0.2-0.7,0.3-3.1,0.4-7.1h-6.4
			c-0.3,2.1-0.6,3.8-1,5.1c-0.9,3-2.5,5.5-4.7,7.7l-2.4-3.2c1.8-1.8,3.1-3.9,3.8-6.3c0.6-2.2,1-5.5,1.2-10.2h-3V36.6H64.4z
			 M60.8,40.1h-7.8v5.3h7.8V40.1z M71.9,38.5v22.1h-3.7V38.5H71.9z M70.3,68.3l-0.8-3.6c1.7,0.1,3.2,0.2,4.7,0.2
			c1,0,1.5-0.6,1.5-1.8V35.5h3.7v28.7c0,2.7-1.3,4.1-3.9,4.1H70.3z"/>
		<path fill="#757679" d="M118.5,36.7v3.5h-13.3V43h10.6v13.5h3.7V60h-3.7v4.2c0,2.9-1.3,4.4-3.8,4.4h-3.4l-1-3.6l3.2,0.2
			c0.9,0,1.3-0.6,1.3-1.8V60H94.5v8.7h-3.7V60h-3.7v-3.5h3.7V43h10.6v-2.7H88.2v-3.5H118.5z M101.5,49.7v-3.3h-6.9v3.3H101.5z
			 M101.5,56.4V53h-6.9v3.5H101.5z M105.2,49.7h6.9v-3.3h-6.9V49.7z M112.2,56.4V53h-6.9v3.5H112.2z"/>
		<path fill="#757679" d="M129.8,44.4l-3.3-2.1c2.1-2.2,3.5-4.6,4.4-7.2l3.6,0.8c-0.2,0.5-0.4,1.1-0.6,1.6h8.9v3.3h-5.1
			c0.6,0.8,1.1,1.6,1.5,2.4l-3.4,1.3c-0.6-1.3-1.3-2.5-2.1-3.7h-1.3C131.6,42.2,130.8,43.4,129.8,44.4z M158.4,52h-3.7v-3.9h-23.8
			V52h-3.7v-7.1H141c-0.3-0.6-0.6-1.2-0.9-1.8l3.2-0.5l-0.7-0.5c1.7-2.2,2.8-4.5,3.6-6.9l3.6,0.8c-0.2,0.5-0.4,1.1-0.5,1.6h9.9v3.3
			h-5.7c0.5,0.7,0.9,1.4,1.3,2.1l-3.3,1.3c-0.6-1.2-1.2-2.3-2-3.3h-1.6c-0.6,1.2-1.3,2.2-2,3.2l-1.7-1c0.2,0.6,0.5,1.2,0.7,1.8h13.5
			V52z M153.4,57.2H136v1.7h19v9.8h-3.7v-1.2H136v1.2h-3.8V49.5h21.1V57.2z M149.8,54.3v-1.8H136v1.8H149.8z M151.4,64.2v-2.3H136
			v2.3H151.4z"/>
		<path fill="#757679" d="M182.7,55.5c-1.9,0.6-3.9,1.2-6,1.8v7.3c0,2.4-1.3,3.6-3.8,3.6h-4.1l-0.8-3.6c1.3,0.1,2.4,0.2,3.6,0.2
			c0.8,0,1.3-0.4,1.3-1.2v-5.4c-2.1,0.4-4.2,0.8-6.4,1.2l-0.5-3.8c2.4-0.4,4.8-0.8,7-1.3v-6.2h-7v-3.6h7v-3.3
			c-1.7,0.4-3.5,0.6-5.4,0.9l-0.8-3.6c5-0.5,9.4-1.6,13.3-3.2l1.3,3.5c-1.5,0.5-3,1-4.6,1.4v4.2h7.4c-0.2-2.8-0.3-5.8-0.3-9.1h3.8
			c0,3.5,0.1,6.5,0.4,9.1h10.8v3.6h-10.5c0.2,2.3,0.5,4.2,0.9,5.8c0.1,0.6,0.3,1.1,0.4,1.6c1.5-1.8,2.8-3.9,3.9-6.1l3.2,1.7
			c-1.6,3.2-3.5,6.1-5.7,8.5c0.4,0.9,0.8,1.6,1.2,2.2c1,1.6,1.8,2.4,2.3,2.4c0.4,0,0.8-1.8,1.2-5.4l3.3,1.8c-0.9,5.1-2.3,7.7-4,7.7
			c-1.6,0-3.2-1.1-4.9-3.2c-0.6-0.8-1.3-1.8-1.8-2.8c-2.4,2-5.2,3.6-8.2,4.8l-2.1-3.2c3.3-1.2,6.2-3,8.7-5.2
			c-0.4-1.2-0.8-2.3-1.1-3.6c-0.5-1.9-0.9-4.2-1.2-6.8h-7.7v5.3c2.1-0.5,4.1-1.1,6-1.8V55.5z M198,40.5l-2.7,2.7
			c-1.5-1.6-3.6-3.2-6.3-5l2.5-2.4C194,37.3,196.2,38.9,198,40.5z"/>
		<path fill="#757679" d="M218.7,66.4h-3.6v-1.8h-5.3v2.8h-3.6V41.2h3.5c0.6-1.9,1.1-3.9,1.4-5.9l3.8,0.5c-0.4,1.9-0.9,3.8-1.6,5.4
			h5.5V66.4z M215.1,51v-6.3h-5.3V51H215.1z M215.1,61.2v-6.8h-5.3v6.8H215.1z M236.7,64.5c-0.4,2.5-2.1,3.8-5.2,3.8
			c-0.7,0-2-0.1-3.9-0.2l-0.9-3.4c1.6,0.1,3,0.2,4.2,0.2c1.3,0,2.1-0.7,2.3-2.1c0.2-1.7,0.3-7.7,0.4-17.9h-8.7
			c-1,2.2-2.1,4.1-3.5,5.8l-2.3-3c2.4-3.4,4-7.6,4.8-12.5l3.7,0.5c-0.4,1.9-0.8,3.8-1.4,5.5h10.9C237.3,53.8,237.1,61.6,236.7,64.5z
			 M230.6,57.7l-3,2.1c-1.3-2.4-3.1-5-5.4-7.9l3.1-1.9C227.6,52.9,229.3,55.4,230.6,57.7z"/>
		<path fill="#757679" d="M247.9,68.9l-2.9-2.6c2.6-3,4-6.9,4-11.7v-7.7c-0.7,0.5-1.3,0.9-2,1.3l-2.4-2.9c4.1-2.4,7.7-5.8,10.8-10.2
			l3.8,0.9c-0.4,0.6-0.9,1.3-1.3,1.9h12.8v2.7c-1.2,1.2-2.3,2.3-3.4,3.3h7.7v21.3c0,2.1-1.2,3.2-3.6,3.2h-4.8l-0.9-3.5
			c1.7,0.1,3.2,0.2,4.7,0.2c0.6,0,1-0.4,1-1.2v-3.3H252C251.2,63.8,249.8,66.5,247.9,68.9z M252.7,54.3c0,1.1-0.1,2.1-0.2,3.1h7.5
			V54h-7.3V54.3z M262.1,43.9c1.2-0.8,2.3-1.8,3.6-2.8h-10.3c-0.9,1-1.8,1.9-2.7,2.8H262.1z M252.7,47.3v3.4h7.3v-3.4H252.7z
			 M271.4,47.3h-7.7v3.4h7.7V47.3z M271.4,54h-7.7v3.3h7.7V54z"/>
		<path fill="#757679" d="M309,40.7h-22.7v-3.6h27.9v3.6c-3.3,3-7,5.8-11.2,8.5v15.2c0,2.7-1.3,4-3.9,4c-2.2,0-4.1-0.1-5.7-0.3
			l-1-3.6c1.8,0.2,3.7,0.4,5.7,0.4c0.8,0,1.2-0.4,1.2-1.2V47.3C302.7,45.3,305.9,43.2,309,40.7z"/>
		<path fill="#757679" d="M342.1,60.2c0.5,0.5,0.8,1.2,0.8,1.9c0,0.8-0.3,1.5-0.8,2c-0.6,0.5-1.2,0.8-2,0.8c-0.8,0-1.4-0.3-1.9-0.8
			c-0.6-0.5-0.8-1.2-0.8-1.9c0-0.8,0.3-1.4,0.8-1.9c0.5-0.5,1.2-0.8,1.9-0.8C340.9,59.5,341.6,59.7,342.1,60.2z M342.5,39.2
			l-0.9,18.3h-3.1l-0.9-18.3H342.5z"/>
		<path fill="#757679" d="M378,38.2c0.1-1.1,0.3-2.2,0.4-3.2l3.8,0.5l-0.3,2.7h13.8v3.5h-14.4c-0.2,0.9-0.4,1.9-0.6,2.8H394v19.8
			c0,2.7-1.3,4.1-3.8,4.1h-3.3l-1-3.6l3.1,0.1c0.9,0,1.3-0.5,1.3-1.4V48h-21.5v20.6h-3.7V44.5h11.7c0.2-0.9,0.4-1.9,0.6-2.8h-14
			v-3.5H378z M378,52.6h3.1c0.7-1.3,1.3-2.7,1.9-4.2l3.4,1.2c-0.5,1.1-1,2.1-1.6,3h3.3v3.3h-6.6v2.7h7.6v3.3h-7.6v6.2h-3.7v-6.2
			h-7.5v-3.3h7.5v-2.7h-6.5v-3.3h3.2c-0.5-1-1-2-1.7-2.9l3.3-1.2C376.8,49.7,377.4,51,378,52.6z"/>
		<path fill="#757679" d="M412.9,40.7v-5.3h3.7v17.7c-0.1,7.1-2.1,12.3-5.9,15.7l-2.9-2.6c1.9-1.6,3.3-3.8,4.2-6.5
			c-2.8,0.6-5.7,1.3-8.7,1.8l-0.9-3.7c3.5-0.3,7-0.9,10.4-1.7c0.1-1,0.2-2,0.2-3v-0.7h-8.7v-3.6h8.7v-4.5h-9.6v-3.6H412.9z
			 M425.1,35.4v5.3h9.5v3.6h-9.5v4.5h8.7v3.6h-8.7V57h10.1v3.6h-10.1v8.1h-3.8V35.4H425.1z"/>
		<path fill="#757679" d="M465.1,66.5l-0.9-3.5l2.7,0.2c0.8,0,1.2-0.5,1.2-1.3v-2.8h-7.8v9.6h-3.7v-9.6h-7.8v7.1h-3.7V55.8h11.5
			v-2.1h-1.8l-0.8-2.8l1.6,0.1c0.5,0,0.8-0.3,0.8-1v-1l-2.3,0.6c-0.3-1.8-0.7-3.4-1.1-5l2-0.7c0.5,1.4,1,3.1,1.4,4.9v-5.8h-3.6v10.1
			h-2.8V43.1h-3.7v10.5h-3.1V40.2h2.9c-0.6-1.2-1.4-2.3-2.1-3.3l2.7-1.3c0.7,1.1,1.4,2.3,2.1,3.6l-1.9,0.9h3v-4.7h3.1v4.7h2.9
			l-1.8-1c0.9-1.2,1.5-2.4,2.1-3.6l2.7,1.3c-0.5,1.1-1.2,2.2-2,3.2h2.6v3.5c2.2-2.3,3.6-5,4.3-8.2l3.4,0.4c-0.3,1-0.5,1.9-0.9,2.8
			h7.7v3.2h-1.4c-0.8,2.6-1.8,4.8-3.1,6.6c1.6,1.1,3.4,2,5.4,2.9l-1.8,3.1c-2.3-1.1-4.2-2.2-5.9-3.5c-1.7,1.4-3.6,2.5-5.8,3.2
			l-1.7-2.8c1.9-0.6,3.6-1.4,5-2.6c-0.8-0.8-1.5-1.5-2.1-2.3l1.6-2.4c0.8,0.9,1.6,1.8,2.6,2.6c1-1.4,1.8-2.9,2.3-4.6h-4.5
			c-1,1.7-2.2,3.2-3.6,4.6l-1.8-2.4v6.6c0,1.4-0.5,2.3-1.5,2.7h2.3v2.3h11.5v7c0,2.5-1.3,3.8-3.7,3.8H465.1z M449.7,44.7
			c-0.1,2.3-0.4,4.4-0.9,6.3l-2.4-0.8c0.5-1.7,0.9-3.6,1-5.8L449.7,44.7z"/>
		<path fill="#757679" d="M56.6,98.1v2.9c-1.1,1.8-2.4,3.6-3.8,5.4H57v2.4c-0.5,2.6-1,4.8-1.7,6.4c0.3,0.2,0.5,0.4,0.8,0.7
			c1.2,1.1,2.2,1.9,3.2,2.3c1,0.4,2.5,0.6,4.5,0.7c1.9,0,4.2,0,6.7,0c2.6,0,5.9-0.1,10.1-0.3l-0.9,3.5h-8.8c-2.4,0-4.9-0.1-7.3-0.1
			c-2.4-0.1-4.3-0.4-5.5-0.9c-1.5-0.6-2.8-1.5-4.1-2.8c-0.3-0.3-0.5-0.4-0.8-0.4c-0.7,0-1.8,1.5-3.3,4.6l-2.7-2.5
			c1.7-3.1,3.2-4.9,4.7-5.5c0.6-1.6,1.2-3.3,1.5-5.2h-5.1v-2.8c1.7-1.9,3.1-3.6,4.1-5.2h-4.7v-3.4H56.6z M56.6,94.6L54.1,97
			c-1.3-1.6-3.1-3.3-5.5-5.2l2.5-2.4C53.2,91.2,55,92.9,56.6,94.6z M66.6,92.6c-0.4-1-0.8-1.9-1.3-2.7l4-0.6c0.4,1,0.8,2.1,1.2,3.3
			h8.9V96H58.2v-3.4H66.6z M77.7,107.9v9.4H60.2v-9.4H77.7z M76.8,97.9v3H61v-3H76.8z M76.8,102.9v3H61v-3H76.8z M74,110.9H63.9v3.3
			H74V110.9z"/>
		<path fill="#757679" d="M104.5,91.5h12.8v3.2H91v10c-0.1,7.4-1.2,13.3-3.3,17.7l-2.8-2.5c1.7-3.6,2.5-8.7,2.6-15.2V91.5h13.4
			c-0.4-0.7-0.7-1.3-1.1-1.8l3.7-0.6C103.8,89.8,104.1,90.6,104.5,91.5z M95.2,101.1c-0.1,3-0.8,5.3-2.3,6.9l-1.8-1.5
			c1.2-1.2,1.8-3,1.9-5.3H95.2z M117.3,120.6l-3,2.1c-0.5-0.9-1.1-1.8-1.7-2.6c-5.1,0.9-11.7,1.5-19.8,2.1l-1-3.1
			c1.1-0.1,2.1-0.3,3-0.6c2-0.9,4.2-2.1,6.6-3.8c-2.4,0.1-5,0.2-7.7,0.3l-0.7-2.9c0.8-0.1,1.5-0.3,2.3-0.6c1.4-0.6,3.1-2,5.3-4.4
			l3.5,0.8c-1.5,1.7-3.1,3-4.7,4.2c2-0.1,4-0.2,6-0.3c1.2-1,2.3-2,3.6-3.1l3.3,1.6c-4.4,3.7-8.3,6.5-11.6,8.5
			c3.8-0.4,7.2-0.8,10.1-1.3c-0.6-0.8-1.2-1.7-1.9-2.4l2.8-1.8C114.2,115.9,116,118.4,117.3,120.6z M96.2,97.2v-1.9h3.2v1.9h3.9v2.8
			h-4.2v7.3h-2.6V100h-4.4v-2.8H96.2z M102.6,101.1v2.7c0,0.4,0.1,0.5,0.5,0.5h1.3v2.1h-2.1c-1.2,0-1.8-0.8-1.8-2.4v-3H102.6z
			 M109,97.2v-1.9h3.2v1.9h4.5v2.8h-4.8v7.3h-2.6V100h-4.8v-2.8H109z M108,101.1c0,2.9-0.5,5.1-1.5,6.6l-1.8-1.5
			c0.7-1.1,1.1-2.8,1.1-5H108z M115.5,101.1v3.4c0,0.4,0.3,0.6,0.9,0.6h1.4v2h-2.3c-1.5,0-2.2-0.8-2.2-2.4v-3.6H115.5z"/>
		<path fill="#757679" d="M131.2,122.5h-3.6v-15.4c-1,2.7-2.1,5.2-3.5,7.5l-1.6-4.1c2.3-3.2,3.9-6.8,5-10.9h-4.2V96h4.3v-6.6h3.6V96
			h3.3v3.6h-3.3v2.5c1.3,1.3,2.7,2.7,4,4.3l-2,3l-2.1-3.2V122.5z M143,91.6c0.1-0.9,0.3-1.7,0.3-2.6l3.8,0.4l-0.3,2.2h7.3v3.3h-8
			c-0.1,0.6-0.3,1.2-0.4,1.7h7.2v3.1h-8.1c-0.2,0.6-0.5,1.2-0.7,1.8h11.1v3.3h-3.9c1.2,1.9,2.8,3.5,5.1,5l-2.3,2.9
			c-1.1-0.9-2.1-1.8-3-2.8v2.3h-4.4v2.3h7.1v3.4h-7.1v4.6h-3.6v-4.6H136v-3.4h7.3v-2.3h-4.6v-1.9c-1,1-2.1,2-3.2,2.8l-2.1-3.2
			c2-1.3,3.7-3,5.1-5.1h-4.1v-3.3h6c0.3-0.6,0.5-1.2,0.7-1.8h-4.5v-3.1h5.5l0.4-1.7h-6.7v-3.3H143z M139.8,109h3.4v-3h3.6v3h3.6
			c-1.1-1.3-2-2.7-2.6-4.2h-5.1C141.8,106.3,140.8,107.7,139.8,109z"/>
		<path fill="#757679" d="M193.3,107.9c-0.1,7.1-0.5,11.3-1.4,12.7c-0.9,1.4-2.6,2.1-4.8,2.1c-1,0-2.2-0.1-3.6-0.2l-1-3.5
			c1.5,0.1,2.7,0.2,3.7,0.3c1.4,0,2.3-0.5,2.7-1.4c0.4-0.8,0.6-3.1,0.6-6.7h-21.5c-1.7,1.7-3.5,3.1-5.4,4.4l-1.9-3.3
			c5.2-3.5,9-8.2,11.5-14.1h-9v-3.3h5.3c-0.7-1-1.5-2.2-2.4-3.3l3-1.9c1.3,1.5,2.3,2.9,3,4l-1.7,1.2h3.1c0.5-1.7,0.9-3.5,1.3-5.4
			l3.7,0.5c-0.4,1.7-0.8,3.3-1.2,4.9h11l-1.3,6.4h4.3l-1.2,6.7H193.3z M170.7,113.9c-0.9,3-2.2,5.6-3.9,7.8l-3.3-2.1
			c1.8-2,3-4.2,3.8-6.4L170.7,113.9z M171,107.9h15.5l0.7-3.4h-13.9C172.5,105.6,171.8,106.8,171,107.9z M176.5,120.1l-3.6,0.4
			c-0.2-2.8-0.5-4.9-1.1-6.4l3.2-0.4C175.8,115.3,176.3,117.4,176.5,120.1z M176.2,98.1c-0.4,1.1-0.8,2.1-1.3,3.1h8.3l0.8-3.1H176.2
			z M182.4,118.4l-3.4,1.3c-0.5-2-1.2-4-1.9-5.8l2.9-0.8C181,114.9,181.8,116.7,182.4,118.4z M187.9,117.2l-3.4,0.9
			c-0.5-1.8-1.2-3.5-1.9-5.1l3-1C186.4,113.5,187.2,115.2,187.9,117.2z"/>
		<path fill="#757679" d="M199.3,107.5l-1.2-3.9c3.6-4.1,6.3-8.9,8.1-14.5l3.5,1.7c-0.8,2.5-1.9,4.9-3.2,7.2v24.8h-3.7v-19.2
			C201.7,104.9,200.6,106.2,199.3,107.5z M221.8,89.4v11.4h9.8v3.7h-9.8v18.1h-3.9v-18.1h-9v-3.7h9V89.4H221.8z"/>
		<path fill="#757679" d="M255.7,91.5h12.8v3.2h-26.3v10c-0.1,7.4-1.2,13.3-3.3,17.7l-2.8-2.5c1.7-3.6,2.5-8.7,2.6-15.2V91.5H252
			c-0.4-0.7-0.7-1.3-1.1-1.8l3.7-0.6C255,89.8,255.3,90.6,255.7,91.5z M246.4,101.1c-0.1,3-0.8,5.3-2.3,6.9l-1.8-1.5
			c1.2-1.2,1.8-3,1.9-5.3H246.4z M268.5,120.6l-3,2.1c-0.5-0.9-1.1-1.8-1.7-2.6c-5.1,0.9-11.7,1.5-19.8,2.1l-1-3.1
			c1.1-0.1,2.1-0.3,3-0.6c2-0.9,4.2-2.1,6.6-3.8c-2.4,0.1-5,0.2-7.7,0.3l-0.7-2.9c0.8-0.1,1.5-0.3,2.3-0.6c1.4-0.6,3.1-2,5.3-4.4
			l3.5,0.8c-1.5,1.7-3.1,3-4.7,4.2c2-0.1,4-0.2,6-0.3c1.2-1,2.3-2,3.6-3.1l3.3,1.6c-4.4,3.7-8.3,6.5-11.6,8.5
			c3.8-0.4,7.2-0.8,10.1-1.3c-0.6-0.8-1.2-1.7-1.9-2.4l2.8-1.8C265.4,115.9,267.2,118.4,268.5,120.6z M247.4,97.2v-1.9h3.2v1.9h3.9
			v2.8h-4.2v7.3h-2.6V100h-4.4v-2.8H247.4z M253.8,101.1v2.7c0,0.4,0.1,0.5,0.5,0.5h1.3v2.1h-2.1c-1.2,0-1.8-0.8-1.8-2.4v-3H253.8z
			 M260.2,97.2v-1.9h3.2v1.9h4.5v2.8h-4.8v7.3h-2.6V100h-4.8v-2.8H260.2z M259.2,101.1c0,2.9-0.5,5.1-1.5,6.6l-1.8-1.5
			c0.7-1.1,1.1-2.8,1.1-5H259.2z M266.7,101.1v3.4c0,0.4,0.3,0.6,0.9,0.6h1.4v2h-2.3c-1.5,0-2.2-0.8-2.2-2.4v-3.6H266.7z"/>
		<path fill="#757679" d="M306.3,90.9v3.7h-11.6c-0.6,1.3-1.3,2.6-2.1,3.9v1.5c5.7,3.2,10.5,6.7,14.6,10.5l-2.6,3.1
			c-3.2-3.4-7.2-6.7-12-9.7v18.8h-3.9v-19c-3.3,3.7-7.4,7-12.3,9.9l-2.5-3.3c7.8-4.4,13.2-9.6,16.4-15.8h-15.3v-3.7H306.3z"/>
		<path fill="#757679" d="M312.7,112.4l-0.8-2.7c3.4-0.1,5.9-0.4,7.6-1l0.8,2.4c-0.7,0.3-1.6,0.5-2.7,0.7v2.1h2.7v2.7h-2.7v1.9
			c1-0.1,1.9-0.3,2.7-0.5v2.6c-1.5,0.5-4.2,0.9-7.9,1.3l-0.4-2.9c0.9-0.1,1.8-0.1,2.7-0.2v-2.2h-2.6v-2.7h2.6v-1.7
			C313.9,112.3,313.3,112.4,312.7,112.4z M312.1,93.6v-3.2h13.4v3.2h-1.2v25.6c1.1-2.1,1.8-4.2,2.3-6.5l2.7,0.6
			c-0.6,3.2-1.6,5.9-2.8,8.2l-2.2-1.4v2.5H321v-14.8h-8.9v-3h1.7V93.6H312.1z M317.1,93.6v1.9h3.9v-1.9H317.1z M321,100v-2h-3.9v2
			H321z M321,104.8v-2.2h-3.9v2.2H321z M344.3,107.7v3.1h-18.6v-3.1H344.3z M333.3,96.8v-2h-7.2v-3.2h7.2v-2.2h3.5v2.2h7.8v3.2h-7.8
			v2h7.1v9.3h-17.6v-9.3H333.3z M331.4,99.7h-2.1v3.6h2.1V99.7z M333.1,122.1c-1.9,0-2.9-1-2.9-3.1v-6.7h3.2v6
			c0,0.4,0.2,0.6,0.7,0.6h2.9c0.3,0,0.5-0.1,0.7-0.4c0.2-0.3,0.3-1,0.4-2.4l3.2,1c-0.2,2.4-0.6,3.9-1.2,4.3
			c-0.5,0.4-1.3,0.6-2.4,0.6H333.1z M336.1,99.7h-2v3.6h2V99.7z M339.3,115.1l-2.4,1.7c-0.7-1.2-1.7-2.6-2.9-4.1l2.3-1.4
			C337.6,112.7,338.6,114,339.3,115.1z M340.8,99.7h-2v3.6h2V99.7z M345.4,119.1l-3,1.3c-0.8-2.9-1.7-5.4-2.7-7.6l3-1
			C343.7,114.1,344.6,116.6,345.4,119.1z"/>
		<path fill="#757679" d="M366.7,109.5c-1.9,0.6-3.9,1.2-6,1.8v7.3c0,2.4-1.3,3.6-3.8,3.6h-4.1l-0.8-3.6c1.3,0.1,2.4,0.2,3.6,0.2
			c0.8,0,1.3-0.4,1.3-1.2v-5.4c-2.1,0.4-4.2,0.8-6.4,1.2l-0.5-3.8c2.4-0.4,4.8-0.8,7-1.3v-6.2h-7v-3.6h7v-3.3
			c-1.7,0.4-3.5,0.6-5.4,0.9l-0.8-3.6c5-0.5,9.4-1.6,13.3-3.2l1.3,3.5c-1.5,0.5-3,1-4.6,1.4v4.2h7.4c-0.2-2.8-0.3-5.8-0.3-9.1h3.8
			c0,3.5,0.1,6.5,0.4,9.1h10.8v3.6h-10.5c0.2,2.3,0.5,4.2,0.9,5.8c0.1,0.6,0.3,1.1,0.4,1.6c1.5-1.8,2.8-3.9,3.9-6.1l3.2,1.7
			c-1.6,3.2-3.5,6.1-5.7,8.5c0.4,0.9,0.8,1.6,1.2,2.2c1,1.6,1.8,2.4,2.3,2.4c0.4,0,0.8-1.8,1.2-5.4l3.3,1.8c-0.9,5.1-2.3,7.7-4,7.7
			c-1.6,0-3.2-1.1-4.9-3.2c-0.6-0.8-1.3-1.8-1.8-2.8c-2.4,2-5.2,3.6-8.2,4.8l-2.1-3.2c3.3-1.2,6.2-3,8.7-5.2
			c-0.4-1.2-0.8-2.3-1.1-3.6c-0.5-1.9-0.9-4.2-1.2-6.8h-7.7v5.3c2.1-0.5,4.1-1.1,6-1.8V109.5z M382,94.5l-2.7,2.7
			c-1.5-1.6-3.6-3.2-6.3-5l2.5-2.4C378.1,91.3,380.2,92.9,382,94.5z"/>
		<path fill="#757679" d="M392.2,93.6c-0.5-1.1-1-2.2-1.6-3.3l3.6-1c0.7,1.6,1.3,3,1.6,4.3h3.7v3.4h-11.8v-3.4H392.2z M398.8,120.5
			H392v1.6h-3.5v-12.7h10.3V120.5z M398.4,99c2.8-2.4,4.8-5.4,6.2-9.2l3.3,1.3c-1.1,2.7-2.3,5-3.8,6.9h11.8c-1.6-2.6-3.2-4.9-5-7.1
			l3.1-1.4c2.7,3.1,5,6.5,7,10.2l-3.2,1.7c-0.3-0.6-0.6-1.1-0.9-1.6v9.8h-2.8v8.3c0,0.6,0.3,0.9,1,0.9h0.8c0.4,0,0.7-0.2,0.9-0.6
			c0.2-0.4,0.4-1.7,0.4-3.8l3.2,1.1c-0.3,3.2-0.7,5.1-1.3,5.8c-0.6,0.6-1.5,0.9-2.6,0.9h-2.6c-2.3,0-3.5-1.2-3.5-3.5v-9h-2.4
			c-0.5,6-2.9,10.4-7.2,13.1l-2-3.2c3.3-1.9,5.2-5.3,5.7-9.9h-2.7v-9.1l-1,0.9l-2.5-2.2v2.9h-9.5V99H398.4z M398.4,104.1v3.2h-9.5
			v-3.2H398.4z M395.4,117.3v-4.9H392v4.9H395.4z M413.5,101.4h-8.1v4.9h8.1V101.4z"/>
		<path fill="#757679" d="M443.9,114.2c0.5,0.5,0.8,1.2,0.8,1.9s-0.3,1.5-0.8,2c-0.6,0.5-1.2,0.8-2,0.8c-0.8,0-1.4-0.3-1.9-0.8
			c-0.6-0.5-0.8-1.2-0.8-1.9s0.3-1.4,0.8-1.9c0.5-0.5,1.2-0.8,1.9-0.8C442.7,113.5,443.4,113.7,443.9,114.2z M444.3,93.2l-0.9,18.3
			h-3.1l-0.9-18.3H444.3z"/>
	</g>
	<linearGradient id="SVGID_1_" gradientUnits="userSpaceOnUse" x1="47.8747" y1="73.2662" x2="483.3101" y2="73.2662">
		<stop  offset="0" style="stop-color:#B3B5B8"/>
		<stop  offset="1" style="stop-color:#A9ABAE"/>
	</linearGradient>
	<path fill="url(#SVGID_1_)" d="M47.9,72.1c145.2-1.3,290.4,0.4,435.4,4.9c-0.1,0,0.1-2.2,0-2.3c-144.9-4.5-290.2-6.2-435.4-4.9
		C47.8,69.9,47.9,72.1,47.9,72.1L47.9,72.1z"/>
	<linearGradient id="SVGID_2_" gradientUnits="userSpaceOnUse" x1="50.7173" y1="123.8701" x2="473.0867" y2="123.8701">
		<stop  offset="0" style="stop-color:#B3B5B8"/>
		<stop  offset="1" style="stop-color:#A9ABAE"/>
	</linearGradient>
	<path fill="url(#SVGID_2_)" d="M50.8,123.2c140.6,3.5,281.5,4.5,422.3,2.8c0.1,0,0-2.2,0-2.3c-140.8,1.7-281.7,0.8-422.3-2.8
		C50.9,121,50.6,123.2,50.8,123.2L50.8,123.2z"/>
	<path fill="#FFFFFF" d="M257.3,177.4c0,0-26.3,39.3-67.2,45.6c0,0,18.8-18.9,11.5-55.8L257.3,177.4z"/>
</g>
<g>
</g>
<g>
</g>
<g>
</g>
<g>
</g>
<g>
</g>
<g>
</g>
<g>
</g>
<g>
</g>
<g>
</g>
<g>
</g>
<g>
</g>
<g>
</g>
<g>
</g>
<g>
</g>
<g>
</g>
</svg>
