<?xml version="1.0" encoding="utf-8"?>
<!-- Generator: Adobe Illustrator 18.0.0, SVG Export Plug-In . SVG Version: 6.00 Build 0)  -->
<!DOCTYPE svg PUBLIC "-//W3C//DTD SVG 1.1//EN" "http://www.w3.org/Graphics/SVG/1.1/DTD/svg11.dtd">
<svg version="1.1" id="Layer_1" xmlns="http://www.w3.org/2000/svg" xmlns:xlink="http://www.w3.org/1999/xlink" x="0px" y="0px"
	 viewBox="0 0 4291 427.9" enable-background="new 0 0 4291 427.9" xml:space="preserve">
<g>
	<path fill="#ABC19B" d="M2698.8,409c0.9-56.6-18-160.5-141.1-268.1c-3.3-2.9-8.1,1.4-5.4,5c20,26.5,51.1,70.4,79,120.9
		c-28.8-34.4-69.6-69.9-127.3-102.6c-3.9-2.2-7.6,3-4.3,6c23.2,20.4,58.9,53.6,94,93.4c-33.3-27.3-77.3-53.6-135.5-75
		c-4.2-1.5-7,4.2-3.2,6.6c33.6,21,90.5,59.3,142,106.7c-40-25.2-93.5-47.3-164.8-59.5c-4.4-0.7-6.1,5.4-2,7.1
		c30.9,12.2,80.3,33.4,130.5,61.9c-42.5-14.3-95.9-23.3-162.2-21c-4.4,0.2-4.9,6.6-0.5,7.3c30.5,5.3,78.2,15,128.9,30.6
		c-42.6-5.9-93.9-5.3-154.8,6.8c-4.4,0.9-3.8,7.3,0.7,7.3c65.9,0.6,212.1,8.3,305.5,60.4c1.4,0.8,2.7,0.6,3.7-0.1
		c0.7,1.1,1.3,2.3,2,3.4c0.9,1.6,2.4,2.1,3.8,1.8c0,0,0.1,0.1,0.1,0.1c1.2,5.6,2.2,11.1,3,16.6c0.6,4.3,6.9,4.1,7.3-0.2
		c0.2-2.7,0.4-5.7,0.6-8.8c1.4-0.9,2.2-2.8,1.3-4.7C2699.6,410.4,2699.2,409.7,2698.8,409z"/>
	<path fill="#ABC19B" d="M2692.9,397.2c-14.3-49.6-63.6-152.6-232.5-214.7c-4.2-1.5-7,4.2-3.2,6.6c55.9,34.9,176.6,117.8,229,211
		C2688.3,403.9,2694.1,401.4,2692.9,397.2z"/>
	<path fill="#ABC19B" d="M2701,407.6c-6.1-51.2-38.1-160.9-194.8-249.5c-3.9-2.2-7.6,3-4.3,6c49.5,43.5,155.2,144.7,191.9,245.2
		C2695.4,413.4,2701.6,411.9,2701,407.6z"/>
	<path fill="#ABC19B" d="M2700.4,418.5c4.4-51.4-4.9-165.3-140.4-283.7c-3.3-2.9-8.1,1.4-5.4,5c39.7,52.6,122.8,173.1,138.4,278.9
		C2693.7,423,2700,422.8,2700.4,418.5z"/>
	<path fill="#ABC19B" d="M2684.8,390.8c-38-34.8-133.9-96.9-310.4-61.7c-4.4,0.9-3.8,7.3,0.7,7.3c65.9,0.6,212.1,8.3,305.5,60.4
		C2684.3,398.8,2688,393.7,2684.8,390.8z"/>
	<path fill="#ABC19B" d="M2697.1,395.4c-31.9-40.5-116.5-117.3-296.3-111.1c-4.4,0.2-4.9,6.6-0.5,7.3
		c64.9,11.3,207.9,42.4,291.7,108.9C2695.3,403.2,2699.8,398.8,2697.1,395.4z"/>
	<path fill="#ABC19B" d="M2702.2,405c-23.1-46.1-90.4-138.4-267.8-168.6c-4.4-0.7-6.1,5.4-2,7.1c61.3,24.1,195.1,83.6,263.7,165.6
		C2698.9,412.3,2704.2,408.9,2702.2,405z"/>
</g>
<g>
	<path fill="#ABC19B" d="M2737.4,389.2c38.5-41.5,94.1-131.3,74.6-293.6c-0.5-4.4-7-4.3-7.3,0.1c-2.9,33.1-9.1,86.5-22.2,142.7
		c1.6-44.8-4.9-98.5-26-161.4c-1.4-4.2-7.7-2.8-7.2,1.6c3.6,30.7,7.9,79.2,7.3,132.3c-6.5-42.5-21.6-91.5-50.5-146.4
		c-2.1-3.9-8-1.6-6.8,2.7c10.9,38,27.6,104.6,34.1,174.3c-12.9-45.5-37.8-97.7-82.6-154.5c-2.8-3.5-8.2-0.1-6.2,3.9
		c14.8,29.8,37.4,78.5,55.5,133.3c-22-39.1-55.6-81.5-106.4-124.1c-3.4-2.9-8,1.6-5.3,5.1c19.1,24.3,48.1,63.5,75.3,109
		c-27.7-32.9-66.2-66.8-119.5-98.5c-3.8-2.3-7.7,2.9-4.4,5.9c48.5,44.6,152,148.1,186.5,249.3c0.5,1.5,1.6,2.2,2.8,2.4
		c-0.3,1.3-0.5,2.6-0.8,3.9c-0.4,1.8,0.4,3.1,1.6,3.9c0,0.1,0,0.1,0,0.2c-2.9,4.9-5.8,9.7-8.9,14.4c-2.4,3.6,2.4,7.7,5.6,4.7
		c2-1.9,4.1-3.9,6.3-6.1c1.7,0.2,3.5-0.6,4.1-2.7C2737,390.7,2737.2,390,2737.4,389.2z"/>
	<path fill="#ABC19B" d="M2740.9,376.5c22.6-46.4,54.9-156-29-315.1c-2.1-3.9-8-1.6-6.8,2.7c18.1,63.3,52.4,205.7,29,310
		C2733,378.4,2739,380.5,2740.9,376.5z"/>
	<path fill="#ABC19B" d="M2740,389.7c29.8-42.1,79.4-145.1,22.3-315.7c-1.4-4.2-7.7-2.8-7.2,1.6c7.7,65.4,18.4,211.4-21.5,310.6
		C2731.9,390.2,2737.5,393.2,2740,389.7z"/>
	<path fill="#ABC19B" d="M2732.2,397.3c37.7-35.2,107-126,85.6-304.7c-0.5-4.4-7-4.3-7.3,0.1c-5.7,65.6-24.6,210.8-83.8,299.9
		C2724.2,396.2,2729,400.3,2732.2,397.3z"/>
	<path fill="#ABC19B" d="M2739.1,366.3c-5-51.3-34.6-161.7-189.3-253.6c-3.8-2.3-7.7,2.9-4.4,5.9c48.5,44.6,152,148.1,186.5,249.3
		C2733.4,372,2739.6,370.6,2739.1,366.3z"/>
	<path fill="#ABC19B" d="M2745.2,377.9c3.4-51.5-8.1-165.1-145.8-280.9c-3.4-2.9-8,1.6-5.3,5.1c40.7,51.8,126.1,170.7,143.8,276.2
		C2738.6,382.6,2744.9,382.3,2745.2,377.9z"/>
	<path fill="#ABC19B" d="M2742.6,388.5c13.7-49.7,25.5-163.4-86.1-304.5c-2.8-3.5-8.2-0.1-6.2,3.9c29.4,59,89,192.7,85.1,299.5
		C2735.2,391.7,2741.4,392.7,2742.6,388.5z"/>
</g>
<g>
	<g>
		<path fill="#3A867D" d="M2983.2,280.2L2983.2,280.2c-8,0-15,3.9-19.5,9.8v-19c0-13.4-10.9-24.3-24.3-24.3l0,0
			c-5.9,0-11.4,2.2-15.7,5.7v-18.6c0-13.4-10.9-24.3-24.3-24.3h0c-13.4,0-24.3,10.9-24.3,24.3v14.1c-2.4-0.8-5-1.3-7.7-1.3
			c-13.4,0-24.3,10.9-24.3,24.3v9.9c-1.9-0.5-3.8-0.7-5.8-0.7c-13.4,0-24.3,10.9-24.3,24.3v0.4v50.7V380h86.5h0h40l0,0h43.8l0,0
			h24.3v-24.3v-50.7v-0.4C3007.5,291.1,2996.6,280.2,2983.2,280.2z"/>
		<g>
			<path fill="#61958C" d="M2984.6,279.8c-8.5,0-17.1,4-22.4,10.6c1-0.3,1.9-0.5,2.9-0.8c0-11.3,2-24.1-5-33.8
				c-8.9-12.2-26.8-11.8-37.9-3c1-0.3,1.9-0.5,2.9-0.8c0-7.1,0.4-14.3-0.2-21.3c-1.1-13.5-14-22.5-26.9-21.4
				c-8.9,0.8-17.1,5.7-21.6,13.5c-4.3,7.5-2.9,17.3-2.9,25.6c1-0.3,1.9-0.5,2.9-0.8c-8.9-2.7-19.2-0.5-26.4,5.3
				c-9,7.3-8.6,18-8.6,28.4c1-0.3,1.9-0.5,2.9-0.8c-16.1-3.5-33,7.8-33,25c0,12.9,0,25.9,0,38.8c0,10.3,0,20.6,0,30.9
				c0,0.3,0,5.2,0,5.2c0.9,0,1.9,0,2.8,0c5.3,0,10.6,0,15.9,0c47.6,0,95.2,0,142.8,0c11,0,22.1,0,33.1,0c0.3,0,2.9-0.7,2.9-0.8
				c0-15.4,0-30.8,0-46.3c0-9.3,0-18.6,0-27.9C3009,291.4,2998.8,280.2,2984.6,279.8c-1,0-1.9,0.8-2.9,0.8
				c14,0.4,24.3,11.4,24.3,25.3c0,9.1,0,18.2,0,27.2c0,15.7,0,31.5,0,47.2c1-0.3,1.9-0.5,2.9-0.8c-40.9,0-81.9,0-122.8,0
				c-15.7,0-31.4,0-47,0c-6.3,0-12.5,0-18.8,0c-1.4,0-6,0.9-6-0.8c0-24,0-48,0-71.9c0-15.2,10.6-29.1,27.2-25.5
				c0.3,0.1,2.9-0.7,2.9-0.8c0-6.4-0.5-12.9,1.8-19c4.3-11.3,16.1-16.6,27.4-13.1c0.2,0.1,2.9-0.7,2.9-0.8c0-6.4-0.6-13.2,0.6-19.5
				c2.4-12.2,14.3-20,26.2-17.6c11,2.2,19,12.8,19,23.8c0,6.2,0,12.3,0,18.5c0-0.2,2.6-0.5,2.9-0.8c13.2-10.5,31.3-2.6,36.2,12.7
				c2.5,7.8,0.9,17.6,0.9,25.7c0-0.3,2.6-0.5,2.9-0.8c4.1-5.2,9.7-9,16.6-9C2982.7,280.6,2983.7,279.8,2984.6,279.8z"/>
		</g>
	</g>
	<g>
		<path fill="#61958C" d="M2950.3,269.1c0.1,0.5-2.4,8.9-3.9,17.4c-0.4,2.1-0.7,4.3-1,6.3c-0.1,0.8-0.2,1.6-0.3,2.4l0,0.2
			c0,0,0,0,0,0l-0.9,0l-1.1,0l-0.1,0l-0.1,0c4.6,0,1.3,0,2.3,0v0l0,0l0,0l0-0.1l0,0c-0.1,0.1-0.1,0.1-0.1,0.1
			c-2.6,0.8-5.6,1.4-8.6,1.4c0.1-0.3,0.2-0.6,0.4-0.9c0.1-0.1,0.2-0.3,0.3-0.4c0.1-0.1,0.2-0.1,0.3-0.3c0.2-0.3,0.4-0.6,0.7-1.1
			l0.8-2c1.1-2.7,2.2-5.3,3.4-7.9C2944.7,278.8,2947.4,273.8,2950.3,269.1z"/>
		<path fill="#61958C" d="M2938.5,270.2c0.1,0.4-1.9,7.7-3.1,15c-0.3,1.8-0.6,3.7-0.8,5.4c-0.2,1.7-0.5,3.5-0.5,4.2
			c0,0.4,0,0.6,0,0.9c0,0.3,0,0.5,0,0.7c0.1,0.4,0.1,0.6,0.1,0.6c-2.4,0-4.8-0.3-7.2-0.9c0.1-0.5,0.3-0.9,0.4-1.4l0.6-1.5l1.3-3.4
			c0.9-2.3,1.8-4.6,2.8-6.8C2934,278.7,2936.2,274.4,2938.5,270.2z"/>
		<path fill="#61958C" d="M2927.4,271.3c0.1,0.3-1.5,6.6-2.5,12.9c-0.5,3.1-1,6.3-1.2,8.6c-0.1,1.1-0.2,2-0.2,2.7c0,0.6,0,1,0,1
			c-1.9-0.5-3.8-1.3-5.6-2.2c0.3-1.1,0.6-2.2,1-3.1l1.1-2.9c0.7-1.9,1.5-3.9,2.3-5.8C2923.9,278.6,2925.6,274.9,2927.4,271.3z"/>
		<path fill="#61958C" d="M2918,271.7c0,0.3-1.1,5.6-2,10.8c-0.9,5.3-1.5,10.5-1.5,10.7c-1.4-0.8-2.9-1.7-4.3-2.4
			C2912.5,284.2,2915.1,277.8,2918,271.7z"/>
		<path fill="#61958C" d="M2909.7,272.1c0,0.2-0.9,4.7-1.6,9.1c-0.7,4.4-1.3,8.8-1.3,8.8l-3.4-1.9
			C2905.3,282.6,2907.4,277.3,2909.7,272.1z"/>
		<path fill="#61958C" d="M2903.2,272.2c0,0.2-0.7,3.9-1.3,7.5c-0.6,3.6-1.1,7.3-1.1,7.3l-2.7-1.6
			C2899.7,280.9,2901.4,276.5,2903.2,272.2z"/>
	</g>
	<g>
		<path fill="#61958C" d="M2874.2,284.7c0.2,0.2,0.8,4.4,2.2,8.3c0.2,0.5,0.4,1,0.6,1.5c0.3,0.8,0.6,1.5,1,2.3
			c0.4,1,0.9,2.2,1.4,3.6c0.2,0.6,0.5,1.5,0.7,2.2c0.2,0.7,0.4,1.3,0.5,1.9c0.6,2.4,0.8,4.5,0.9,6c0,0.7,0.1,1.3,0.1,1.7
			c0,0.4,0,0.6,0,0.6c-3-1.2-6-2.2-9-2.8c0.2-1.8,0.1-3.5-0.1-5.4c-0.3-2-0.6-3.6-0.7-5c-0.2-1.4-0.2-2.3-0.2-3.1
			c0.1-0.8,0.1-1.7,0.2-2.5C2872.3,290.6,2873.1,287.5,2874.2,284.7z"/>
		<path fill="#61958C" d="M2863.7,288.9c0.2,0.2,1,4.5,2.6,8.5c0.4,1.1,0.7,1.9,1.3,3.2c0.5,1.3,1.2,2.8,1.7,4.4
			c0.5,1.6,0.8,2.8,0.9,3.7c0.2,0.9,0.2,1.4,0.2,1.4c-2.4-0.5-4.9-0.8-7.3-0.9c0.1-1.1,0-2.2-0.1-3.3l-0.3-3
			c-0.1-0.9-0.1-1.8-0.1-2.5c0-0.8,0-1.6,0-2.4C2862.7,294.8,2863.1,291.7,2863.7,288.9z"/>
		<path fill="#61958C" d="M2854,293.4c0.2,0.2,1.1,4.3,2.7,8.2c0.7,1.9,1.7,3.9,2.3,5.5c0.3,0.8,0.5,1.6,0.7,2
			c0.1,0.5,0.2,0.8,0.2,0.8c-1.9,0-3.9,0.1-5.8,0.3c0.2-2.4-0.3-5.5-0.4-8.4C2853.6,299,2853.7,296.2,2854,293.4z"/>
		<path fill="#61958C" d="M2845.7,297.4c0.2,0.2,1.2,3.9,2.6,7.5c0.3,0.9,0.7,1.8,1.1,2.6c0.3,0.7,0.6,1.4,0.8,2
			c0.4,1.1,0.6,1.6,0.6,1.6c-1.5,0.3-3,0.6-4.5,0.9c0.1-0.8,0-1.9-0.1-3.1c-0.1-1.3-0.3-2.6-0.4-3.9
			C2845.6,302.5,2845.6,299.9,2845.7,297.4z"/>
		<path fill="#61958C" d="M2838.4,301.2c0.1,0.1,1.1,3.5,2.4,6.7c0.6,1.6,1.4,3.3,1.7,4.1c0.4,0.9,0.5,1.2,0.5,1.2l-3.5,0.9
			c0.1-1.3-0.5-4-0.7-6.2C2838.5,305.7,2838.4,303.4,2838.4,301.2z"/>
		<path fill="#61958C" d="M2832.6,304.1c0.1,0.1,1,3,2.1,5.8c0.5,1.4,1.1,2.8,1.5,3.7c0.3,0.8,0.5,1.3,0.5,1.3
			c-0.9,0.2-1.9,0.4-2.9,0.6c0-0.2,0-0.4-0.1-0.6c0-0.2,0-0.4-0.1-0.6l-0.2-1.5c-0.1-1-0.3-1.9-0.4-2.9
			C2832.9,307.9,2832.7,306,2832.6,304.1z"/>
	</g>
	<g>
		<path fill="#61958C" d="M2874.8,326.7c0.3,0.3,1.9,6.8,3,13.3c1.1,6.5,1.6,13,1.6,13c-3-0.4-6-0.7-9-1
			C2872.5,343.8,2873.9,335.3,2874.8,326.7z"/>
		<path fill="#61958C" d="M2864.8,332.3c0.2,0.2,1.4,5.1,2.1,10c0.8,4.9,1.3,9.8,1.3,9.8c-2.4-0.2-4.8-0.5-7.2-0.6
			C2862.6,345.2,2863.9,338.8,2864.8,332.3z"/>
		<path fill="#61958C" d="M2855.1,336.9c0.2,0.1,1,3.9,1.6,7.6c0.6,3.7,1,7.4,1,7.4l-5.7-0.4
			C2853.2,346.8,2854.3,341.9,2855.1,336.9z"/>
		<path fill="#61958C" d="M2846.6,340.3c0.1,0.1,0.7,2.9,1.2,5.8c0.5,2.8,0.8,5.6,0.8,5.6l-4.6-0.2
			C2844.9,347.8,2845.8,344.1,2846.6,340.3z"/>
		<path fill="#61958C" d="M2838.9,343.1c0.1,0.1,0.5,2.2,0.9,4.4c0.3,2.1,0.6,4.3,0.6,4.3l-3.7-0.1
			C2837.5,348.8,2838.3,346,2838.9,343.1z"/>
		<path fill="#61958C" d="M2832.9,345.1c0.1,0.1,0.4,1.7,0.7,3.4c0.3,1.6,0.5,3.3,0.5,3.3l-2.9-0.1
			C2831.7,349.5,2832.3,347.3,2832.9,345.1z"/>
	</g>
	<g>
		<path fill="#61958C" d="M2935.8,331.8c0.3,0.2,1.4,5.4,2,10.5c0.7,5.1,0.9,10.3,0.9,10.3c-3-0.3-5.9-0.6-8.9-0.8
			C2932.2,345.4,2934.2,338.7,2935.8,331.8z"/>
		<path fill="#61958C" d="M2925.4,336.4c0.2,0.2,1,4,1.4,7.8c0.5,3.8,0.7,7.6,0.7,7.6c-2.4-0.2-4.7-0.3-7.1-0.5
			C2922.4,346.6,2924,341.6,2925.4,336.4z"/>
		<path fill="#61958C" d="M2915.5,340.3c0.2,0.1,0.7,3,1,5.8c0.3,2.8,0.5,5.7,0.5,5.7l-5.7-0.3
			C2912.9,347.9,2914.3,344.1,2915.5,340.3z"/>
		<path fill="#61958C" d="M2906.8,343.1c0.1,0.1,0.5,2.2,0.7,4.3c0.3,2.1,0.4,4.2,0.4,4.2l-4.5-0.1
			C2904.6,348.8,2905.8,346,2906.8,343.1z"/>
		<path fill="#61958C" d="M2899,345.3c0.1,0.1,0.4,1.7,0.5,3.2c0.2,1.6,0.3,3.2,0.3,3.2l-3.6,0
			C2897.2,349.6,2898.2,347.5,2899,345.3z"/>
		<path fill="#61958C" d="M2892.9,346.9c0.1,0,0.3,1.3,0.4,2.5c0.1,1.2,0.2,2.4,0.2,2.4l-2.9,0
			C2891.4,350.2,2892.2,348.6,2892.9,346.9z"/>
	</g>
	<g>
		<path fill="#61958C" d="M2990.3,309.1c0.1,0.1,0.6,2,1.1,4.7c0.4,2.7,0.8,6.2,0.8,9.8c0,3.5-0.3,7-0.7,9.6
			c-0.4,2.6-0.8,4.3-0.8,4.3c-2.7-1.3-5.5-2.5-8.3-3.6C2986.5,326.8,2989.4,318.4,2990.3,309.1z"/>
		<path fill="#61958C" d="M2980.1,314.4c0.2,0.2,1.1,5,1,9.7c0,2.4-0.2,4.7-0.4,6.5c-0.2,1.8-0.4,2.9-0.4,2.9
			c-2.2-0.9-4.5-1.6-6.8-2.4C2976.5,326.3,2978.8,320.7,2980.1,314.4z"/>
		<path fill="#61958C" d="M2970.1,318.2c0.2,0.1,0.6,3.3,0.5,6.4c0,1.6-0.1,3.1-0.3,4.3c-0.1,1.1-0.3,1.9-0.3,1.9
			c-1.8-0.6-3.6-1.1-5.5-1.5C2966.8,326.1,2968.7,322.3,2970.1,318.2z"/>
		<path fill="#61958C" d="M2961.2,320.5c0.1,0.1,0.3,2.1,0.3,4.2c0,2-0.3,4-0.3,4c-1.5-0.4-2.9-0.7-4.4-1
			C2958.5,325.6,2960,323.2,2961.2,320.5z"/>
		<path fill="#61958C" d="M2953.3,322.1c0.1,0.1,0.2,1.4,0.1,2.7c0,1.3-0.2,2.5-0.2,2.5c-1.2-0.2-2.4-0.4-3.6-0.6
			C2951,325.4,2952.2,323.9,2953.3,322.1z"/>
		<path fill="#61958C" d="M2947,323.1c0.1,0,0.1,0.9,0.1,1.7c0,0.8-0.1,1.6-0.1,1.6l-2.9-0.4C2945.2,325.2,2946.1,324.2,2947,323.1z
			"/>
	</g>
</g>
<g>
	<g>
		<path fill="#299B8D" d="M3314.8,251L3314.8,251c-10.3,0-19.4,5-25.2,12.7v-24.6c0-17.3-14.2-31.5-31.5-31.5h0
			c-7.7,0-14.8,2.8-20.2,7.4v-24c0-17.3-14.2-31.5-31.5-31.5l0,0c-17.3,0-31.5,14.2-31.5,31.5v18.2c-3.1-1.1-6.5-1.7-10-1.7
			c-17.3,0-31.5,14.2-31.5,31.5v12.8c-2.4-0.6-4.9-0.9-7.5-0.9c-17.3,0-31.5,14.2-31.5,31.5v0.5v65.6V380h111.9l0,0h51.7h0h56.6h0
			h31.5v-31.5v-65.6v-0.5C3346.3,265.2,3332.1,251,3314.8,251z"/>
	</g>
	<g>
		<path fill="#89B79C" d="M3272.3,236.6c0.1,0.6-3.1,11.5-5,22.5c-0.5,2.8-0.9,5.5-1.2,8.1c-0.1,1.1-0.3,2.1-0.4,3.1l0,0.2
			c0,0,0,0,0,0l-1.2,0l-1.5,0l-0.2,0l-0.1,0c5.9,0.1,1.6,0,2.9,0l0,0l0,0l0,0l0-0.1l0,0c-0.1,0.1-0.1,0.2-0.1,0.2
			c-3.4,1.1-7.2,1.7-11.1,1.9c0.1-0.4,0.3-0.8,0.5-1.2c0.1-0.2,0.2-0.4,0.3-0.6c0.1-0.2,0.2-0.2,0.4-0.4c0.3-0.3,0.5-0.8,0.9-1.5
			l1-2.6c1.4-3.5,2.9-6.9,4.4-10.3C3265,249.2,3268.5,242.8,3272.3,236.6z"/>
		<path fill="#89B79C" d="M3257.1,238.1c0.1,0.5-2.4,9.9-4,19.4c-0.4,2.4-0.8,4.7-1.1,7c-0.3,2.2-0.6,4.6-0.7,5.4
			c0,0.5-0.1,0.7-0.1,1.2c0,0.4,0,0.7,0.1,1c0.1,0.5,0.2,0.8,0.2,0.8c-3.1,0-6.3-0.4-9.3-1.1c0.2-0.7,0.3-1.2,0.6-1.8l0.7-1.9
			l1.7-4.4c1.1-3,2.4-5.9,3.6-8.8C3251.3,249,3254.1,243.5,3257.1,238.1z"/>
		<path fill="#89B79C" d="M3242.8,239.5c0.1,0.4-1.9,8.5-3.2,16.6c-0.7,4-1.2,8.1-1.6,11.1c-0.2,1.5-0.2,2.6-0.3,3.4
			c0,0.8,0,1.3,0,1.3c-2.5-0.7-4.9-1.7-7.3-2.8c0.4-1.4,0.8-2.8,1.3-4l1.4-3.8c0.9-2.5,1.9-5,3-7.4
			C3238.2,248.9,3240.4,244.1,3242.8,239.5z"/>
		<path fill="#89B79C" d="M3230.6,240c0.1,0.4-1.5,7.2-2.6,14c-1.2,6.8-1.9,13.5-1.9,13.9c-1.9-1-3.7-2.2-5.6-3.1
			C3223.5,256.2,3226.8,248,3230.6,240z"/>
		<path fill="#89B79C" d="M3219.8,240.5c0,0.3-1.2,6-2.1,11.7c-1,5.7-1.7,11.4-1.7,11.4l-4.4-2.4
			C3214.1,254.1,3216.8,247.2,3219.8,240.5z"/>
		<path fill="#89B79C" d="M3211.5,240.6c0,0.3-0.9,5-1.7,9.7c-0.8,4.7-1.4,9.4-1.4,9.4l-3.5-2
			C3206.9,251.9,3209.1,246.2,3211.5,240.6z"/>
	</g>
	<g>
		<path fill="#89B79C" d="M3174,256.8c0.3,0.2,1,5.6,2.9,10.7c0.2,0.6,0.5,1.3,0.7,1.9c0.4,1,0.8,2,1.2,2.9c0.5,1.3,1.2,2.8,1.8,4.6
			c0.3,0.8,0.7,1.9,0.9,2.8c0.2,0.8,0.5,1.7,0.7,2.5c0.8,3.2,1.1,5.9,1.2,7.7c0.1,0.9,0.1,1.7,0.1,2.2c0,0.5,0,0.8,0,0.8
			c-3.8-1.6-7.7-2.8-11.6-3.7c0.2-2.3,0.2-4.6-0.1-6.9c-0.3-2.6-0.7-4.7-1-6.4c-0.3-1.8-0.3-3-0.2-4c0.1-1.1,0.2-2.1,0.3-3.2
			C3171.5,264.4,3172.6,260.4,3174,256.8z"/>
		<path fill="#89B79C" d="M3160.4,262.2c0.3,0.2,1.3,5.8,3.3,11c0.5,1.4,0.9,2.4,1.7,4.1c0.7,1.7,1.5,3.6,2.2,5.6
			c0.7,2.1,1,3.6,1.2,4.8c0.2,1.1,0.3,1.8,0.3,1.8c-3.1-0.6-6.3-1-9.4-1.1c0.1-1.4,0-2.9-0.2-4.3l-0.4-3.9c-0.1-1.2-0.2-2.3-0.2-3.3
			c0-1,0-2,0-3.1C3159,269.8,3159.6,265.9,3160.4,262.2z"/>
		<path fill="#89B79C" d="M3147.9,268.1c0.2,0.2,1.5,5.6,3.5,10.6c1,2.5,2.1,5,2.9,7.2c0.4,1.1,0.7,2,0.9,2.6c0.2,0.6,0.2,1,0.2,1
			c-2.5,0-5,0.1-7.4,0.4c0.3-3.2-0.4-7.1-0.5-10.8C3147.3,275.4,3147.4,271.7,3147.9,268.1z"/>
		<path fill="#89B79C" d="M3137.1,273.3c0.2,0.2,1.5,5.1,3.3,9.8c0.4,1.2,0.9,2.3,1.4,3.4c0.4,0.9,0.8,1.8,1.1,2.6
			c0.6,1.4,0.8,2.1,0.8,2.1c-1.9,0.3-3.9,0.7-5.8,1.2c0.1-1.1,0-2.4-0.1-4c-0.2-1.6-0.4-3.4-0.5-5
			C3137,279.8,3137,276.5,3137.1,273.3z"/>
		<path fill="#89B79C" d="M3127.6,278.1c0.2,0.2,1.4,4.5,3.1,8.7c0.8,2.1,1.8,4.3,2.2,5.3c0.5,1.1,0.6,1.6,0.6,1.6l-4.6,1.1
			c0.1-1.7-0.6-5.2-0.8-8C3127.8,283.9,3127.7,281,3127.6,278.1z"/>
		<path fill="#89B79C" d="M3120.2,281.9c0.2,0.2,1.3,3.9,2.7,7.5c0.7,1.8,1.5,3.7,2,4.8c0.4,1,0.7,1.6,0.7,1.6
			c-1.2,0.3-2.5,0.5-3.7,0.8c0-0.2,0-0.5-0.1-0.8c0-0.3-0.1-0.5-0.1-0.8l-0.3-1.9c-0.2-1.3-0.4-2.5-0.5-3.8
			C3120.6,286.9,3120.4,284.4,3120.2,281.9z"/>
	</g>
	<g>
		<path fill="#89B79C" d="M3174.8,311.1c0.4,0.3,2.5,8.7,3.8,17.1c1.4,8.4,2.1,16.8,2.1,16.8c-3.9-0.5-7.7-0.9-11.6-1.3
			C3171.7,333.2,3173.6,322.3,3174.8,311.1z"/>
		<path fill="#89B79C" d="M3161.8,318.3c0.3,0.3,1.8,6.6,2.8,13c1,6.3,1.6,12.7,1.6,12.7c-3.1-0.3-6.2-0.6-9.3-0.8
			C3159,335.1,3160.6,326.8,3161.8,318.3z"/>
		<path fill="#89B79C" d="M3149.3,324.4c0.2,0.2,1.3,5,2,9.8c0.8,4.8,1.3,9.6,1.3,9.6l-7.4-0.5
			C3146.8,337.1,3148.2,330.8,3149.3,324.4z"/>
		<path fill="#89B79C" d="M3138.3,328.7c0.2,0.1,0.9,3.8,1.5,7.4c0.6,3.6,1,7.3,1,7.3l-5.9-0.3
			C3136.1,338.4,3137.3,333.6,3138.3,328.7z"/>
		<path fill="#89B79C" d="M3128.4,332.3c0.1,0.1,0.7,2.9,1.1,5.7c0.4,2.8,0.8,5.5,0.8,5.5l-4.7-0.2
			C3126.6,339.7,3127.5,336.1,3128.4,332.3z"/>
		<path fill="#89B79C" d="M3120.5,334.8c0.1,0.1,0.5,2.2,0.9,4.4c0.3,2.1,0.6,4.2,0.6,4.2l-3.8-0.1
			C3119.1,340.6,3119.8,337.7,3120.5,334.8z"/>
	</g>
	<g>
		<path fill="#89B79C" d="M3253.6,317.7c0.4,0.3,1.8,6.9,2.6,13.6c0.9,6.7,1.2,13.3,1.2,13.3c-3.8-0.4-7.7-0.8-11.5-1.1
			C3249,335.3,3251.6,326.6,3253.6,317.7z"/>
		<path fill="#89B79C" d="M3240.2,323.7c0.3,0.2,1.2,5.2,1.8,10.1c0.6,4.9,0.9,9.9,0.9,9.9c-3.1-0.2-6.1-0.5-9.2-0.6
			C3236.2,336.8,3238.4,330.4,3240.2,323.7z"/>
		<path fill="#89B79C" d="M3227.4,328.7c0.2,0.1,0.9,3.8,1.3,7.5c0.4,3.7,0.7,7.3,0.7,7.3l-7.3-0.4
			C3224,338.5,3225.8,333.7,3227.4,328.7z"/>
		<path fill="#89B79C" d="M3216.1,332.3c0.2,0.1,0.6,2.9,0.9,5.6c0.3,2.7,0.5,5.5,0.5,5.5l-5.9-0.2
			C3213.3,339.6,3214.8,336,3216.1,332.3z"/>
		<path fill="#89B79C" d="M3206.1,335.2c0.1,0.1,0.5,2.1,0.7,4.2c0.2,2,0.4,4.1,0.4,4.1l-4.7-0.1
			C3203.7,340.8,3204.9,338,3206.1,335.2z"/>
		<path fill="#89B79C" d="M3198.1,337.3c0.1,0.1,0.3,1.6,0.5,3.2c0.2,1.5,0.3,3.1,0.3,3.1l-3.7,0
			C3196.2,341.5,3197.2,339.4,3198.1,337.3z"/>
	</g>
	<g>
		<path fill="#61958C" d="M3324,288.4c0.2,0.2,0.8,2.6,1.4,6c0.6,3.5,1,8.1,1,12.6c0,4.6-0.4,9.1-0.9,12.4c-0.5,3.4-1,5.6-1,5.6
			c-3.6-1.7-7.1-3.2-10.7-4.6C3319.2,311.3,3322.8,300.4,3324,288.4z"/>
		<path fill="#61958C" d="M3310.8,295.2c0.3,0.3,1.4,6.4,1.3,12.6c0,3.1-0.3,6.1-0.5,8.4c-0.3,2.3-0.6,3.7-0.6,3.7
			c-2.9-1.1-5.8-2.1-8.7-3.1C3306.1,310.6,3309.1,303.3,3310.8,295.2z"/>
		<path fill="#89B79C" d="M3297.9,300.2c0.2,0.2,0.7,4.3,0.6,8.3c0,2-0.2,4-0.4,5.5c-0.2,1.5-0.3,2.5-0.3,2.5
			c-2.4-0.7-4.7-1.4-7.1-2C3293.7,310.3,3296.1,305.5,3297.9,300.2z"/>
		<path fill="#89B79C" d="M3286.5,303.1c0.2,0.1,0.4,2.8,0.4,5.4c0,2.6-0.4,5.2-0.4,5.2c-1.9-0.5-3.8-0.9-5.7-1.3
			C3282.9,309.7,3284.9,306.6,3286.5,303.1z"/>
		<path fill="#89B79C" d="M3276.2,305.2c0.1,0.1,0.3,1.8,0.2,3.4c0,1.7-0.3,3.3-0.3,3.3c-1.5-0.3-3.1-0.5-4.6-0.8
			C3273.2,309.4,3274.8,307.4,3276.2,305.2z"/>
		<path fill="#89B79C" d="M3268.1,306.5c0.1,0,0.2,1.1,0.1,2.2c0,1.1-0.2,2.1-0.2,2.1l-3.7-0.5
			C3265.7,309.2,3266.9,307.9,3268.1,306.5z"/>
	</g>
</g>
<path fill="#75B191" d="M4250.9,282.1c-13.4-22.8-37.8-24.4-52.6-3.5l0,0c-14.8,20.9-39.2,19.3-52.6-3.5l-1.1-1.9
	c-12.8-21.9-37.2-19.1-47.4,5.4l-9.7,23.4c-7,16.9-23.8,18.8-32.6,3.7l-27.5-46.9c-13.1-22.4-39-9.3-39,19.7v0
	c0,29-25.8,42.1-39,19.7l-14.8-25.1c-12.8-21.9-37.2-19.1-47.4,5.4l-29.8,71.9h101.1h21.4h87.4h13.6h87.4h21.4H4291L4250.9,282.1z"
	/>
<g>
	<path fill="#ABC19B" d="M357.6,370.5c1-61.4-19.5-174-153-290.7c-3.6-3.2-8.7,1.6-5.8,5.4c21.7,28.8,55.4,76.3,85.7,131.1
		c-31.3-37.3-75.5-75.8-138.1-111.2c-4.2-2.4-8.2,3.3-4.6,6.5c25.2,22.1,63.8,58.1,101.9,101.3c-36.1-29.6-83.8-58.1-147-81.3
		c-4.5-1.7-7.6,4.6-3.5,7.1c36.4,22.7,98.1,64.3,154,115.7c-43.4-27.3-101.4-51.3-178.7-64.5c-4.7-0.8-6.6,5.9-2.2,7.7
		c33.5,13.2,87.1,36.2,141.5,67.1c-46.1-15.5-104-25.3-175.8-22.8c-4.8,0.2-5.3,7.1-0.6,7.9C64.3,255.5,116.1,266,171,283
		c-46.2-6.4-101.8-5.8-167.8,7.4c-4.7,0.9-4.1,7.9,0.7,7.9c71.4,0.7,229.9,9,331.2,65.5c1.5,0.8,2.9,0.6,4-0.1
		c0.7,1.2,1.4,2.5,2.1,3.7c1,1.7,2.6,2.2,4.1,2c0,0.1,0.1,0.1,0.1,0.2c1.3,6.1,2.4,12.1,3.2,18c0.7,4.7,7.5,4.5,7.9-0.2
		c0.3-3,0.5-6.2,0.6-9.5c1.5-1,2.4-3,1.4-5.1C358.3,372,357.9,371.2,357.6,370.5z"/>
	<path fill="#ABC19B" d="M351.1,357.7C335.7,304,282.2,192.3,99,124.9c-4.5-1.7-7.6,4.6-3.5,7.1c60.6,37.9,191.4,127.7,248.3,228.7
		C346.1,364.9,352.5,362.3,351.1,357.7z"/>
	<path fill="#ABC19B" d="M359.9,369c-6.6-55.5-41.4-174.5-211.2-270.5c-4.2-2.4-8.2,3.3-4.6,6.5c53.6,47.2,168.3,157,208.1,265.9
		C353.8,375.2,360.5,373.6,359.9,369z"/>
	<path fill="#ABC19B" d="M359.2,380.7C364,325,354,201.5,207,73.2c-3.6-3.2-8.7,1.6-5.8,5.4c43,57,133.1,187.7,150.1,302.4
		C352,385.7,358.8,385.4,359.2,380.7z"/>
	<path fill="#ABC19B" d="M342.3,350.7c-41.2-37.8-145.2-105.1-336.6-67c-4.7,0.9-4.1,7.9,0.7,7.9c71.4,0.7,229.9,9,331.2,65.5
		C341.8,359.5,345.8,353.9,342.3,350.7z"/>
	<path fill="#ABC19B" d="M355.7,355.7c-34.6-43.9-126.3-127.2-321.3-120.4c-4.8,0.2-5.3,7.1-0.6,7.9c70.4,12.2,225.5,46,316.3,118.1
		C353.7,364.2,358.6,359.4,355.7,355.7z"/>
	<path fill="#ABC19B" d="M361.2,366.1c-25-50-98.1-150.1-290.4-182.9c-4.7-0.8-6.6,5.9-2.2,7.7c66.5,26.2,211.5,90.6,285.9,179.6
		C357.6,374.1,363.3,370.3,361.2,366.1z"/>
</g>
<g>
	<path fill="#ABC19B" d="M364.9,387.1c56.5-36.2,146.8-122.8,172.5-314.9c0.7-5.2-6.7-7-8.5-2.1c-13.1,37.1-36.1,96.5-67.7,157.2
		c15.1-51,23.5-114.5,18-192.9c-0.4-5.2-8-5.5-8.7-0.3c-5,36.3-14.4,93.2-30.8,153.9c5.2-50.7,2.3-111.4-14.6-183
		c-1.2-5.1-8.8-4.2-8.6,1.1c1.2,46.9,0.7,128.2-12.4,210.1c-1.3-56-14.4-123.3-49.1-201.7c-2.1-4.8-9.4-2.5-8.3,2.7
		c8.2,38.5,19.6,101.2,24.3,169.4c-13.7-51.4-39.7-109.9-85.4-173.9c-3.1-4.3-9.7-0.5-7.6,4.3c14.7,33.6,36.4,87,54.1,147.4
		c-22.1-46-56.2-96.2-108-148.4c-3.7-3.7-9.7,1-6.8,5.4c42.5,65.5,130.6,214.9,140.3,341.2c0.1,1.8,1.2,3,2.5,3.6
		c-0.7,1.4-1.4,2.8-2.1,4.2c-1,1.9-0.5,3.7,0.7,4.9c0,0.1,0,0.1-0.1,0.2c-4.7,4.8-9.6,9.4-14.5,13.8c-3.8,3.4,0.5,9.5,5,7.1
		c2.9-1.6,5.9-3.3,9-5.2c1.9,0.8,4.2,0.4,5.5-1.8C364,388.7,364.4,387.9,364.9,387.1z"/>
	<path fill="#ABC19B" d="M372.6,373.6C412.2,327,481.7,210.8,432.5,3.4c-1.2-5.1-8.8-4.2-8.6,1.1c2.1,78-0.8,251.5-58.5,364.3
		C363,373.3,369.3,377.5,372.6,373.6z"/>
	<path fill="#ABC19B" d="M367.7,388.3c46.6-39.5,134-143,119-355.6c-0.4-5.2-8-5.5-8.7-0.3c-10.6,77.3-41.4,248-116.6,350
		C358.3,386.6,363.8,391.7,367.7,388.3z"/>
	<path fill="#ABC19B" d="M356.5,394.8c53.6-29.3,160.1-113,188.3-324.3c0.7-5.2-6.7-7-8.5-2.1c-26,73.6-90.7,234.6-184.9,319.3
		C347.7,391.2,352,397.3,356.5,394.8z"/>
	<path fill="#ABC19B" d="M373.7,361.3c9.5-60.4,8.1-195.8-142.1-347c-3.7-3.7-9.7,1-6.8,5.4C267.2,85.2,355.4,234.6,365,360.9
		C365.4,366.1,372.9,366.4,373.7,361.3z"/>
	<path fill="#ABC19B" d="M377.2,376.4c19.1-58,39.6-191.9-84.2-365.4c-3.1-4.3-9.7-0.5-7.6,4.3c31.4,71.5,94.2,233.2,83.3,359.4
		C368.3,379.8,375.6,381.3,377.2,376.4z"/>
	<path fill="#ABC19B" d="M371.1,387.8c30.5-53,77.6-179.9-8.7-374.9c-2.1-4.8-9.4-2.5-8.3,2.7c16.3,76.3,45.1,247.4,9,368.8
		C361.6,389.3,368.5,392.3,371.1,387.8z"/>
</g>
<g>
	<g>
		<path fill="#3A867D" d="M3857.9,294.1L3857.9,294.1c-6.7,0-12.7,3.3-16.5,8.3v-16.1c0-11.3-9.3-20.6-20.6-20.6l0,0
			c-5,0-9.7,1.8-13.3,4.9v-15.7c0-11.3-9.3-20.6-20.6-20.6h0c-11.3,0-20.6,9.3-20.6,20.6v11.9c-2.1-0.7-4.3-1.1-6.6-1.1
			c-11.3,0-20.6,9.3-20.6,20.6v8.4c-1.6-0.4-3.2-0.6-4.9-0.6c-11.3,0-20.6,9.3-20.6,20.6v0.3v43v20.6h73.3h0h33.9l0,0h37.1l0,0h20.6
			V358v-43v-0.3C3878.5,303.4,3869.3,294.1,3857.9,294.1z"/>
		<g>
			<path fill="#61958C" d="M3859.4,293.7c-7.4,0-14.8,3.4-19.4,9.1c1-0.3,1.9-0.5,2.9-0.8c0-9.9,1.7-20.9-4.8-29.2
				c-7.8-9.9-22.8-9-32-1.8c1-0.3,1.9-0.5,2.9-0.8c0-6.1,0.4-12.3-0.2-18.4c-1.1-11.4-12.3-18.8-23.1-17.8
				c-7,0.7-13.6,4.3-17.6,10.1c-4.5,6.6-3.3,15.5-3.3,23.1c1-0.3,1.9-0.5,2.9-0.8c-7.6-2.2-16.4-0.4-22.6,4.5
				c-7.8,6.1-7.5,15.4-7.5,24.2c1-0.3,1.9-0.5,2.9-0.8c-6.8-1.4-14.3,0.3-20,4.2c-6.5,4.4-8.5,11.8-8.5,19.2c0,13.2,0,26.5,0,39.7
				c0,4.9,0,9.8,0,14.8c0,2.3,0,4.6,0,6.9c0,0,2.7,0,2.8,0c13.9,0,27.8,0,41.8,0c40.1,0,80.2,0,120.3,0c0.3,0,2.9-0.7,2.9-0.8
				c0-13.2,0-26.4,0-39.6c0-7.7,0-15.5,0-23.2C3880,303.5,3871.4,294.1,3859.4,293.7c-1,0-1.9,0.8-2.9,0.8
				c11.8,0.4,20.6,9.6,20.6,21.4c0,7.8,0,15.7,0,23.5c0,13.2,0,26.4,0,39.6c1-0.3,1.9-0.5,2.9-0.8c-44.1,0-88.2,0-132.3,0
				c-10.5,0-21,0-31.6,0c-2.5,0-1.1-5.9-1.1-7.8c0-4.4,0-8.8,0-13.2c0-11.5,0-23,0-34.5c0-4.1-0.3-8.3,0.4-12.3
				c1.8-10.7,11.9-17.4,22.2-15.3c0.3,0.1,2.9-0.7,2.9-0.8c0-5.5-0.4-10.9,1.5-16.1c3.5-9.6,13.3-13.8,22.8-11
				c0.2,0.1,2.9-0.7,2.9-0.8c0-5.6-0.6-11.7,0.7-17.2c2.4-10.2,12.3-16.2,22.3-13.9c9,2.1,15.4,11,15.4,20c0,5.2,0,10.4,0,15.7
				c0-0.2,2.6-0.5,2.9-0.8c11.3-8.8,26.4-1.6,30.3,11.3c1.9,6.5,0.7,14.7,0.7,21.3c0-0.3,2.6-0.5,2.9-0.8c2.6-3.2,6.1-6.2,10.2-7.3
				c-0.4,0.1-0.7,0.2-1.1,0.3c1.5-0.3,3-0.5,4.5-0.5C3857.5,294.5,3858.4,293.7,3859.4,293.7z"/>
		</g>
	</g>
	<g>
		<path fill="#61958C" d="M3830.1,284.7c0.1,0.4-2,7.5-3.3,14.7c-0.3,1.8-0.6,3.6-0.8,5.3c-0.1,0.7-0.2,1.4-0.3,2l0,0.1c0,0,0,0,0,0
			l-0.8,0l-1,0l-0.1,0l-0.1,0c3.9,0,1.1,0,1.9,0l0,0l0,0l0,0l0-0.1l0,0c-0.1,0.1-0.1,0.1-0.1,0.1c-2.2,0.7-4.8,1.1-7.3,1.2
			c0.1-0.3,0.2-0.5,0.3-0.8c0.1-0.1,0.1-0.2,0.2-0.4c0.1-0.1,0.2-0.1,0.2-0.3c0.2-0.2,0.3-0.5,0.6-1l0.7-1.7
			c0.9-2.3,1.9-4.5,2.9-6.7C3825.3,293,3827.6,288.7,3830.1,284.7z"/>
		<path fill="#61958C" d="M3820.1,285.7c0.1,0.3-1.6,6.5-2.6,12.7c-0.3,1.6-0.5,3.1-0.7,4.6c-0.2,1.4-0.4,3-0.4,3.5
			c0,0.4,0,0.5,0,0.8c0,0.2,0,0.5,0,0.6c0,0.3,0.1,0.5,0.1,0.5c-2,0-4.1-0.3-6.1-0.7c0.1-0.4,0.2-0.8,0.4-1.2l0.5-1.2l1.1-2.9
			c0.8-1.9,1.5-3.9,2.4-5.7C3816.3,292.8,3818.1,289.2,3820.1,285.7z"/>
		<path fill="#61958C" d="M3810.7,286.6c0,0.3-1.2,5.6-2.1,10.9c-0.4,2.7-0.8,5.3-1,7.3c-0.1,1-0.2,1.7-0.2,2.3c0,0.5,0,0.8,0,0.8
			c-1.6-0.5-3.2-1.1-4.8-1.8c0.2-0.9,0.5-1.8,0.8-2.6l0.9-2.5c0.6-1.6,1.3-3.3,1.9-4.9C3807.7,292.8,3809.1,289.6,3810.7,286.6z"/>
		<path fill="#61958C" d="M3802.7,286.9c0,0.2-1,4.7-1.7,9.2c-0.8,4.5-1.3,8.9-1.2,9.1c-1.2-0.6-2.4-1.4-3.6-2
			C3798.1,297.6,3800.3,292.2,3802.7,286.9z"/>
		<path fill="#61958C" d="M3795.7,287.3c0,0.2-0.8,4-1.4,7.7c-0.6,3.7-1.1,7.5-1.1,7.5l-2.9-1.6
			C3791.9,296.2,3793.7,291.7,3795.7,287.3z"/>
		<path fill="#61958C" d="M3790.2,287.3c0,0.2-0.6,3.3-1.1,6.4c-0.5,3.1-0.9,6.2-0.9,6.2l-2.3-1.3
			C3787.2,294.7,3788.6,291,3790.2,287.3z"/>
	</g>
	<g>
		<path fill="#61958C" d="M3765.6,298c0.2,0.1,0.7,3.7,1.9,7c0.1,0.4,0.3,0.8,0.5,1.2c0.3,0.7,0.5,1.3,0.8,1.9
			c0.4,0.8,0.8,1.9,1.2,3c0.2,0.5,0.4,1.3,0.6,1.8c0.2,0.6,0.3,1.1,0.4,1.6c0.5,2.1,0.7,3.8,0.8,5.1c0,0.6,0.1,1.1,0.1,1.4
			c0,0.3,0,0.5,0,0.5c-2.5-1-5.1-1.8-7.6-2.4c0.1-1.5,0.1-3-0.1-4.5c-0.2-1.7-0.5-3.1-0.6-4.2c-0.2-1.2-0.2-2-0.1-2.7
			c0-0.7,0.1-1.4,0.2-2.1C3764,302.9,3764.7,300.3,3765.6,298z"/>
		<path fill="#61958C" d="M3756.7,301.5c0.2,0.1,0.9,3.8,2.2,7.2c0.3,0.9,0.6,1.6,1.1,2.7c0.5,1.1,1,2.4,1.4,3.7
			c0.4,1.3,0.7,2.3,0.8,3.1c0.1,0.8,0.2,1.2,0.2,1.2c-2-0.4-4.1-0.7-6.2-0.7c0-0.9,0-1.9-0.1-2.8l-0.3-2.6c-0.1-0.8-0.1-1.5-0.1-2.1
			c0-0.7,0-1.3,0-2C3755.8,306.5,3756.2,303.9,3756.7,301.5z"/>
		<path fill="#61958C" d="M3748.5,305.4c0.2,0.1,1,3.7,2.3,7c0.6,1.6,1.4,3.3,1.9,4.7c0.3,0.7,0.5,1.3,0.6,1.7
			c0.1,0.4,0.2,0.7,0.2,0.7c-1.6,0-3.3,0-4.9,0.2c0.2-2.1-0.3-4.7-0.3-7.1C3748.1,310.1,3748.2,307.7,3748.5,305.4z"/>
		<path fill="#61958C" d="M3741.4,308.7c0.1,0.1,1,3.3,2.2,6.4c0.3,0.8,0.6,1.5,0.9,2.2c0.3,0.6,0.5,1.2,0.7,1.7
			c0.4,0.9,0.5,1.4,0.5,1.4c-1.3,0.2-2.5,0.5-3.8,0.8c0.1-0.7,0-1.6-0.1-2.6c-0.1-1.1-0.3-2.2-0.3-3.3
			C3741.4,313,3741.4,310.9,3741.4,308.7z"/>
		<path fill="#61958C" d="M3735.2,311.9c0.1,0.1,0.9,3,2,5.7c0.5,1.3,1.1,2.8,1.4,3.5c0.3,0.7,0.4,1,0.4,1l-3,0.7
			c0.1-1.1-0.4-3.4-0.6-5.3C3735.4,315.7,3735.3,313.8,3735.2,311.9z"/>
		<path fill="#61958C" d="M3730.4,314.4c0.1,0.1,0.8,2.6,1.8,4.9c0.4,1.2,1,2.4,1.3,3.2c0.3,0.6,0.4,1.1,0.4,1.1
			c-0.8,0.2-1.6,0.4-2.4,0.5c0-0.1,0-0.3-0.1-0.5c0-0.2,0-0.3-0.1-0.6l-0.2-1.2c-0.1-0.8-0.2-1.7-0.3-2.5
			C3730.6,317.6,3730.5,316,3730.4,314.4z"/>
	</g>
	<g>
		<path fill="#61958C" d="M3766.1,333.5c0.3,0.2,1.6,5.7,2.5,11.2c0.9,5.5,1.4,11,1.4,11c-2.5-0.3-5.1-0.6-7.6-0.9
			C3764.1,348,3765.4,340.9,3766.1,333.5z"/>
		<path fill="#61958C" d="M3757.6,338.2c0.2,0.2,1.2,4.3,1.8,8.5c0.7,4.2,1.1,8.3,1.1,8.3c-2-0.2-4-0.4-6.1-0.5
			C3755.8,349.2,3756.9,343.8,3757.6,338.2z"/>
		<path fill="#61958C" d="M3749.4,342.2c0.2,0.1,0.8,3.3,1.3,6.4c0.5,3.1,0.8,6.3,0.8,6.3l-4.9-0.3
			C3747.8,350.6,3748.7,346.4,3749.4,342.2z"/>
		<path fill="#61958C" d="M3742.2,345.1c0.1,0.1,0.6,2.5,1,4.9c0.4,2.4,0.6,4.8,0.6,4.8l-3.9-0.2
			C3740.8,351.4,3741.6,348.3,3742.2,345.1z"/>
		<path fill="#61958C" d="M3735.7,347.4c0.1,0.1,0.5,1.9,0.7,3.7c0.3,1.8,0.5,3.6,0.5,3.6l-3.1-0.1
			C3734.5,352.3,3735.2,349.9,3735.7,347.4z"/>
		<path fill="#61958C" d="M3730.6,349.1c0.1,0.1,0.3,1.5,0.6,2.9c0.2,1.4,0.4,2.8,0.4,2.8l-2.5-0.1
			C3729.6,352.8,3730.1,351,3730.6,349.1z"/>
	</g>
	<g>
		<path fill="#61958C" d="M3817.8,337.8c0.2,0.2,1.2,4.5,1.7,8.9c0.6,4.4,0.8,8.7,0.8,8.7c-2.5-0.3-5-0.5-7.5-0.7
			C3814.8,349.4,3816.5,343.7,3817.8,337.8z"/>
		<path fill="#61958C" d="M3809,341.8c0.2,0.1,0.8,3.4,1.2,6.6c0.4,3.2,0.6,6.5,0.6,6.5c-2-0.2-4-0.3-6-0.4
			C3806.4,350.4,3807.8,346.2,3809,341.8z"/>
		<path fill="#61958C" d="M3800.6,345.1c0.1,0.1,0.6,2.5,0.9,4.9c0.3,2.4,0.4,4.8,0.4,4.8l-4.8-0.2
			C3798.4,351.5,3799.6,348.3,3800.6,345.1z"/>
		<path fill="#61958C" d="M3793.2,347.4c0.1,0.1,0.4,1.9,0.6,3.7c0.2,1.8,0.3,3.6,0.3,3.6l-3.8-0.1
			C3791.4,352.2,3792.4,349.9,3793.2,347.4z"/>
		<path fill="#61958C" d="M3786.6,349.3c0.1,0.1,0.3,1.4,0.5,2.7c0.2,1.3,0.2,2.7,0.2,2.7l-3.1,0
			C3785.1,353,3785.9,351.2,3786.6,349.3z"/>
		<path fill="#61958C" d="M3781.4,350.7c0.1,0,0.2,1.1,0.3,2.1c0.1,1,0.2,2,0.2,2l-2.5,0C3780.2,353.5,3780.8,352.1,3781.4,350.7z"
			/>
	</g>
	<g>
		<path fill="#61958C" d="M3864,318.7c0.1,0.1,0.5,1.7,0.9,4c0.4,2.3,0.7,5.3,0.7,8.3c0,3-0.2,6-0.6,8.2c-0.3,2.2-0.6,3.6-0.6,3.6
			c-2.3-1.1-4.7-2.1-7-3C3860.8,333.7,3863.2,326.5,3864,318.7z"/>
		<path fill="#61958C" d="M3855.3,323.1c0.2,0.2,0.9,4.2,0.8,8.3c0,2-0.2,4-0.4,5.5c-0.2,1.5-0.4,2.5-0.4,2.5
			c-1.9-0.7-3.8-1.4-5.7-2C3852.2,333.2,3854.2,328.4,3855.3,323.1z"/>
		<path fill="#61958C" d="M3846.8,326.4c0.1,0.1,0.5,2.8,0.4,5.4c0,1.3-0.1,2.6-0.2,3.6c-0.1,1-0.2,1.6-0.2,1.6
			c-1.5-0.5-3.1-0.9-4.6-1.3C3844.1,333,3845.7,329.8,3846.8,326.4z"/>
		<path fill="#61958C" d="M3839.3,328.3c0.1,0.1,0.3,1.8,0.2,3.5c0,1.7-0.3,3.4-0.3,3.4c-1.2-0.3-2.5-0.6-3.7-0.8
			C3837,332.6,3838.3,330.6,3839.3,328.3z"/>
		<path fill="#61958C" d="M3832.6,329.7c0.1,0,0.2,1.2,0.1,2.2c0,1.1-0.2,2.2-0.2,2.2c-1-0.2-2-0.4-3-0.5
			C3830.7,332.4,3831.7,331.1,3832.6,329.7z"/>
		<path fill="#61958C" d="M3827.3,330.5c0.1,0,0.1,0.7,0.1,1.4c0,0.7-0.1,1.4-0.1,1.4l-2.4-0.3
			C3825.7,332.3,3826.5,331.4,3827.3,330.5z"/>
	</g>
</g>
<g>
</g>
<g>
</g>
<g>
</g>
<g>
</g>
<g>
</g>
<g>
</g>
<g>
</g>
<g>
</g>
<g>
</g>
<g>
</g>
<g>
</g>
<g>
</g>
<g>
</g>
<g>
</g>
<g>
</g>
</svg>
