<?xml version="1.0" encoding="utf-8"?>
<!-- Generator: Adobe Illustrator 18.0.0, SVG Export Plug-In . SVG Version: 6.00 Build 0)  -->
<!DOCTYPE svg PUBLIC "-//W3C//DTD SVG 1.1//EN" "http://www.w3.org/Graphics/SVG/1.1/DTD/svg11.dtd">
<svg version="1.1" id="Layer_1" xmlns="http://www.w3.org/2000/svg" xmlns:xlink="http://www.w3.org/1999/xlink" x="0px" y="0px"
	 viewBox="0 0 547 437.8" enable-background="new 0 0 547 437.8" xml:space="preserve">
<g>
	<path fill="#D65B51" d="M454.5,395.6h-362C41.6,395.6,0,354,0,303.1V92.5C0,41.6,41.6,0,92.5,0h362C505.4,0,547,41.6,547,92.5
		v210.6C547,354,505.4,395.6,454.5,395.6z"/>
	<g>
		<path fill="#FFFFFF" d="M114.2,85.6h-4.3V84H83.8v1.5h-4.3v-37h34.8V85.6z M109.9,79.9V52.7H83.8v27.3H109.9z M94.8,59.4
			c0.2-1.7,0.3-3.4,0.3-5.2h4.2c0,1.8-0.1,3.6-0.3,5.2h9.1v4.1h-9.7c-0.2,0.7-0.3,1.3-0.5,2c4.2,3.2,7.7,6.5,10.5,9.7l-3.2,3.2
			c-2.2-2.9-5-5.9-8.6-9.2c-1.7,3.6-4.8,6.7-9.3,9.2l-2.7-3.2c4.4-2.5,7.3-5.6,8.7-9.2c0.2-0.8,0.5-1.6,0.7-2.5h-8.6v-4.1H94.8z"/>
		<path fill="#FFFFFF" d="M160.9,68.5c-0.1,8.2-0.6,13.1-1.7,14.7c-1.1,1.6-3,2.5-5.6,2.5c-1.2,0-2.5-0.1-4.1-0.2l-1.1-4.1
			c1.7,0.1,3.1,0.2,4.2,0.3c1.7,0,2.7-0.6,3.1-1.6c0.4-1,0.7-3.5,0.7-7.7h-24.8c-1.9,1.9-4,3.6-6.3,5l-2.2-3.9
			c6-4,10.4-9.4,13.3-16.3h-10.4v-3.8h6.1c-0.8-1.2-1.7-2.5-2.8-3.9l3.4-2.2c1.5,1.7,2.6,3.3,3.5,4.7l-2,1.4h3.6
			c0.6-2,1.1-4,1.5-6.2l4.3,0.5c-0.4,2-0.9,3.9-1.4,5.7H155l-1.5,7.4h5l-1.3,7.8H160.9z M134.8,75.5c-1.1,3.5-2.6,6.4-4.5,9
			l-3.8-2.4c2-2.3,3.5-4.8,4.4-7.4L134.8,75.5z M135.1,68.5H153l0.8-4h-16.1C136.9,65.9,136,67.3,135.1,68.5z M141.5,82.6l-4.1,0.5
			c-0.2-3.2-0.6-5.7-1.3-7.4l3.7-0.5C140.6,77,141.2,79.5,141.5,82.6z M141.1,57.2c-0.5,1.2-1,2.4-1.5,3.5h9.6l0.9-3.5H141.1z
			 M148.3,80.6l-3.9,1.5c-0.6-2.3-1.3-4.6-2.2-6.7l3.3-1C146.7,76.7,147.6,78.7,148.3,80.6z M154.6,79.2l-4,1c-0.6-2-1.3-4-2.2-5.9
			l3.5-1.1C152.9,75,153.8,76.9,154.6,79.2z"/>
		<path fill="#FFFFFF" d="M179.5,57.1v3.4c-1.2,2.1-2.7,4.1-4.4,6.2h4.8v2.8c-0.5,3-1.2,5.5-1.9,7.4c0.3,0.2,0.6,0.5,1,0.8
			c1.3,1.2,2.5,2.2,3.7,2.7c1.2,0.5,2.9,0.7,5.2,0.8c2.2,0,4.8,0,7.7,0c3,0,6.9-0.1,11.7-0.3l-1,4.1h-10.2c-2.8,0-5.6-0.1-8.4-0.2
			c-2.8-0.1-5-0.4-6.4-1c-1.7-0.7-3.3-1.8-4.7-3.2c-0.3-0.3-0.6-0.5-1-0.5c-0.8,0-2.1,1.8-3.9,5.4l-3.1-2.9c1.9-3.6,3.7-5.7,5.4-6.4
			c0.7-1.8,1.3-3.8,1.7-6H170v-3.2c1.9-2.2,3.5-4.2,4.8-6h-5.4v-3.9H179.5z M179.5,53.2l-2.8,2.8c-1.5-1.8-3.6-3.8-6.4-6l2.9-2.7
			C175.6,49.2,177.7,51.2,179.5,53.2z M191.1,50.9c-0.5-1.1-1-2.2-1.5-3.1l4.6-0.7c0.5,1.1,0.9,2.4,1.4,3.8h10.3v3.9h-24.6v-3.9
			H191.1z M203.8,68.5v10.9h-20.2V68.5H203.8z M202.8,57v3.4h-18.3V57H202.8z M202.8,62.7v3.4h-18.3v-3.4H202.8z M199.6,72h-11.7
			v3.8h11.7V72z"/>
		<path fill="#FFFFFF" d="M223.3,85.6h-4.2V67.5c-0.9,3-2,5.7-3.2,8.2l-2-3.7c2.2-3.8,3.8-8.2,4.8-13.1H215v-4h4.2v-7.7h4.2v7.7h3.5
			v4h-3.5v2.2c1.4,1.7,2.8,3.6,4.2,5.7l-2.3,3.5c-0.7-1.5-1.3-2.8-1.9-4V85.6z M236.9,73.2v2.7c-1.4,4.2-4.4,7.4-8.9,9.5l-2.5-3.3
			c3.3-1.4,5.7-3.2,7.2-5.7h-5.4v-3.3H236.9z M233.2,50.8c-0.5-1.1-1-2.2-1.5-3.1L236,47c0.5,1.1,0.9,2.4,1.3,3.8h4.9
			c0.5-1.2,0.9-2.5,1.2-3.9l4.2,0.6c-0.3,1.2-0.7,2.3-1.2,3.3h5.1v3.2h-9.6v1.7h8.2v3.1h-8.2v1.8h10.4v3.3h-25v-3.3h10.4v-1.8h-8.2
			v-3.1h8.2v-1.7h-9.7v-3.2H233.2z M234.1,81.9l3.1,0.2c0.6,0,1-0.4,1-1.2v-9.2h-8.1v-3.2h12.1v3.6c0.3,0.5,0.5,1,0.8,1.4
			c2.2-1,4.4-2.6,6.3-4.6l2.7,2.7c-2,2-4.2,3.6-6.7,4.8c2.1,2.2,4.7,4,7.8,5.6l-2.7,3.2c-3.4-2.1-6.1-4.6-8.2-7.4V82
			c0,2.3-1.4,3.5-4.2,3.5h-2.9L234.1,81.9z M246.5,66.2l-1.2,2.8c-3.5-1-7.2-1.8-11-2.3l1.4-2.6C239.5,64.6,243,65.3,246.5,66.2z"/>
		<path fill="#FFFFFF" d="M270.4,57.1v3.4c-1.2,2.1-2.6,4.1-4.3,6.2h4.7v2.8c-0.5,3-1.1,5.4-1.7,7.4c0.3,0.2,0.7,0.5,1,0.8
			c1.3,1.2,2.5,2.1,3.7,2.6c1.2,0.5,2.9,0.7,5.2,0.8c2.2,0,4.8,0,7.7,0c3,0,6.9-0.1,11.7-0.3l-1,4.1h-10.2c-2.8,0-5.6-0.1-8.4-0.2
			c-2.8-0.1-5-0.4-6.4-1c-1.7-0.7-3.3-1.7-4.7-3.2c-0.3-0.3-0.6-0.4-1-0.4c-0.8,0-2.1,1.8-3.9,5.4l-3.1-2.9c1.8-3.5,3.6-5.6,5.4-6.3
			c0.7-1.9,1.2-3.9,1.7-6h-5.7v-3.2c1.8-2.2,3.4-4.2,4.6-6h-5.3v-3.9H270.4z M270.2,53.2l-2.8,2.8c-1.5-1.8-3.6-3.9-6.3-6l2.8-2.7
			C266.4,49.2,268.5,51.2,270.2,53.2z M286.7,57.6H297v3.7c-1.1,1.2-2.2,2.4-3.4,3.5v1.4h4.3v3.7h-4.3v5.5c0,2.5-1.2,3.7-3.7,3.7
			H287l-1-3.8c0.7,0.1,1.6,0.1,2.5,0.1c0.7,0,1.1-0.5,1.1-1.4v-4.2h-4.9v-3.7h4.9v-1.8c1.2-1.2,2.1-2.2,2.9-3.1h-6v-3.4
			c-0.6,0.8-1.2,1.5-1.8,2.2l-2.5-3.1c0.3-0.3,0.5-0.7,0.8-1h-5.2v1.7c0,0.7,0,1.5,0,2.2h5.8c0,8.8-0.2,14.3-0.5,16.3
			c-0.4,1.7-2,2.6-5,2.6c-0.3,0-0.8-0.1-1.6-0.2l-1-3.6c0.7,0.1,1.4,0.2,1.9,0.2c1.1,0,1.7-0.3,2-0.8c0.2-1,0.3-4.7,0.4-10.9h-2.2
			c-0.6,6.5-2.1,11.5-4.6,14.9l-3-2.6c2.6-3.7,3.9-9.8,3.9-18.1V56h-2.6v-4h4.7c-0.5-1.3-1-2.7-1.5-3.9l4.1-1.1
			c0.7,1.8,1.2,3.5,1.6,5h3.4v3.1c1.4-2.3,2.3-5,2.9-8.1l4,0.7c-0.2,1.2-0.5,2.5-0.9,3.5h8.1v4h-9.7
			C287.6,56.1,287.2,56.9,286.7,57.6z"/>
		<path fill="#FFFFFF" d="M322.9,54.9c-0.5,0.7-0.9,1.4-1.4,2h14.7v3.5c-1.4,2-3.5,3.9-6.2,5.5c4.1,1.3,8.6,2.2,13.6,2.4l-1,3.9
			c-6.6-0.4-12.4-1.7-17.3-4c-4.8,2-10.9,3.6-18.3,4.8l-1.7-3.9c6.1-0.9,11.3-2,15.5-3.3c-1.6-1-3-2.1-4.4-3.2
			c-1.5,1.3-3.1,2.5-4.7,3.5l-2.7-3.3c3.7-2.1,6.9-5,9.7-8.8L322.9,54.9z M342.1,58.4h-4.4v-4.8h-26v4.8h-4.4v-8.7H322
			c-0.4-0.8-0.8-1.5-1.3-2.2l4.8-0.7c0.4,0.9,0.8,1.9,1.2,3h15.4V58.4z M337.4,85.7h-4.2v-1.5h-16.3v1.5h-4.2V72h24.7V85.7z
			 M333.1,80.3v-4.4h-16.3v4.4H333.1z M331,60.5h-11.3c1.8,1.3,3.7,2.5,5.7,3.5C327.6,62.9,329.5,61.8,331,60.5z"/>
		<path fill="#FFFFFF" d="M353.4,73.3l-2.8-3.6c4.7-3.9,8.4-8.3,11.2-13.2h-9.7v-4.2h11.8c0.8-1.8,1.5-3.7,2-5.6l4.5,0.5
			c-0.5,1.7-1.1,3.4-1.7,5.1h20.1v4.2h-22c-1.6,3.2-3.5,6.1-5.6,8.9v20.3h-4.3V70.2C355.8,71.2,354.6,72.3,353.4,73.3z M373.1,66
			v-7.2h4.4V66h9.5v4.2h-9.5V80h11.3v4.2h-26.2V80h10.4v-9.7h-8.9V66H373.1z"/>
		<path fill="#FFFFFF" d="M425.6,47.2v7.4h8.2c0,14.1-0.2,22.7-0.6,26c-0.4,3-2.3,4.6-5.6,4.6c-0.7,0-2.1-0.1-4-0.2l-1-3.8
			c1.7,0.1,3.1,0.2,4.4,0.2c1.3,0,2.1-0.9,2.3-2.7c0.2-1.9,0.4-8.6,0.5-20.1h-4.1V60c-0.1,11.6-2.6,20.1-7.5,25.5l-2.3-2
			c-5.5,0.7-11.8,1.2-18.8,1.6l-0.5-3.8c3-0.2,5.8-0.3,8.4-0.5v-2.6h-7v-3.5h7v-2h-7.2V59.2h7.2v-1.7h-8v-3.6h8v-1.8
			c-2.2,0.1-4.4,0.2-6.7,0.2l-1.2-3.4c7,0,12.9-0.6,17.7-1.7l1.9,3.2c-2.2,0.6-4.8,1-7.6,1.3v2.2h7.8v3.6H409v1.7h7.2v13.4H409v2
			h7.1v3.5H409v2.3c2.5-0.2,4.9-0.5,7-0.7v1.8c3.6-4.8,5.4-11.9,5.5-21.5v-1.4h-3.6v-4h3.6v-7.4H425.6z M405.1,64.5v-2.2h-3.5v2.2
			H405.1z M405.1,67.3h-3.5v2.2h3.5V67.3z M408.7,64.5h3.6v-2.2h-3.6V64.5z M412.3,67.3h-3.6v2.2h3.6V67.3z"/>
		<path fill="#FFFFFF" d="M445.7,65.2l-3.8-1.1c1.1-4.4,1.7-9,1.9-13.8l3.9,0.3c-0.1,1.6-0.2,3.2-0.3,4.7h1.8v-8.2h4.2v8.2h2.8v4.2
			h-2.8v8.3c0.9-0.4,1.7-0.8,2.7-1.2v4.1c-0.9,0.4-1.8,0.8-2.7,1.2v13.7h-4.2v-12c-1.9,0.7-3.8,1.3-5.7,1.9l-1-4.2
			c2.3-0.5,4.5-1.1,6.8-1.8v-9.9h-2.3C446.5,61.5,446.1,63.4,445.7,65.2z M464.9,48.1c-0.4,1.9-0.8,3.6-1.3,5.3h15.7
			c0,14.5-0.2,23.4-0.6,26.7c-0.5,3.6-2.9,5.4-7.1,5.4c-0.6,0-1.7-0.1-3.2-0.2l-1-3.9c1.3,0.1,2.5,0.2,3.5,0.2
			c2.2,0,3.5-1.2,3.8-3.5c0.3-2,0.4-8.8,0.5-20.6h-1.5c-0.9,6.7-2.1,12-3.7,15.9c-1.9,4.4-4.8,8.4-8.5,11.9l-2.7-3.5
			c3.4-3.1,5.9-6.5,7.7-10.3c1.5-3.5,2.6-8.2,3.4-14h-2.1c-1.7,8.8-4.9,15.3-9.4,19.4l-2.8-3.2c4-3.4,6.8-8.8,8.3-16.1h-1.7
			c-1,2.5-2.2,4.5-3.6,6.2l-3.2-2.7c2.6-3.2,4.4-7.9,5.5-14L464.9,48.1z"/>
		<path fill="#FFFFFF" d="M114.3,148h-4.2v-1.5H83.5v1.5h-4.2v-37.2h34.9V148z M91.3,142.7l-1-2.6c0.7-0.2,1-0.7,1-1.2v-1.1
			c-1.5,0.7-3.2,1.4-5,2.1l-2-3.2c3.7-0.9,6.5-1.9,8.3-3h-5.3v-7.4h19v6.9c0,0,0.1-0.1,0.1-0.1l2.5,2c-1.2,0.7-2.3,1.4-3.5,2
			c1.2,0.6,2.4,1.3,3.6,2l-2,3.1c-3.3-2.3-6.7-4.2-10.1-5.5l1.7-2.5c1.2,0.4,2.5,0.9,3.6,1.5c1.2-0.7,2.4-1.4,3.4-2h-8.8
			c-0.6,0.7-1.3,1.3-2.2,2v3.6c1.4-0.3,2.8-0.7,4.2-1.1l0.6,3c-2.4,0.6-4.7,1.2-7.1,1.6h17.7v-28H83.5v28H91.3z M94.9,117.2v-1.6
			h3.9v1.6h8v3.1h-8v1.5h10.1v3.2H84.9v-3.2h9.9v-1.5h-8v-3.1H94.9z M102.7,129.1H90.9v1.8h11.9V129.1z"/>
		<path fill="#FFFFFF" d="M139.5,116.7l0.8-1.7c-3.9,0.2-8,0.3-12.4,0.3l-1.2-3.5c11.7,0,21.6-0.8,29.7-2.3l2,3.4
			c-4,0.8-8.6,1.5-13.9,1.9c-0.3,0.7-0.5,1.4-0.7,2h14.8v3.7H142c-0.3,0.6-0.7,1.2-1,1.8h19.9v3.8h-22.5c-0.5,0.6-1,1.2-1.4,1.7h20
			v20.3H153v-1.5h-17.7v1.5h-4.1v-14.4c-1.8,1.5-3.7,3-5.7,4.4l-2.3-3.7c3.9-2.7,7.2-5.4,10-8.3h-8.9v-3.8h12
			c0.4-0.6,0.8-1.2,1.2-1.8h-11v-3.7H139.5z M153,131.2h-17.7v1.7H153V131.2z M135.3,137.9H153v-1.7h-17.7V137.9z M135.3,143.1H153
			v-1.9h-17.7V143.1z"/>
		<path fill="#FFFFFF" d="M190.7,110.9v4.1h-10.4c-1.7,3.4-3.2,6-4.5,7.8c3-0.3,6-0.7,9-1.2c-0.7-1.2-1.5-2.4-2.4-3.6l3.3-2.1
			c2.7,3.6,4.8,6.8,6.3,9.4l-3.6,2.5c-0.5-1-1-2-1.6-3c-5.2,0.9-10.9,1.7-16.9,2.3l-1-3.9c0.7-0.1,1.3-0.2,1.7-0.4
			c1.2-1,2.9-3.6,5-7.9h-6v-4.1H190.7z M190.8,144.1c-6.5,1.3-13.4,2.5-20.8,3.4l-1-4.2c3.2-0.3,6.4-0.7,9.4-1.2v-6.5h-7.5v-4.2h7.5
			v-4.2h4.4v4.2h6.9v4.2h-6.9v5.7c2.7-0.5,5.4-1.1,8.1-1.7V144.1z M197.6,113.4v25.4h-4.2v-25.4H197.6z M195.2,147.6l-1-4.2
			c2,0.2,3.9,0.2,5.7,0.2c1,0,1.5-0.5,1.5-1.5v-32.5h4.4v33.6c0,2.9-1.5,4.4-4.4,4.4H195.2z"/>
		<path fill="#FFFFFF" d="M234,132.8c-2.2,0.7-4.5,1.4-6.9,2v8.4c0,2.7-1.5,4.2-4.4,4.2H218l-1-4.1c1.5,0.2,2.8,0.3,4.2,0.3
			c1,0,1.5-0.5,1.5-1.4v-6.3c-2.4,0.5-4.9,1-7.4,1.4l-0.6-4.4c2.8-0.4,5.5-0.9,8.1-1.5v-7.2h-8.1v-4.2h8.1v-3.9c-2,0.4-4,0.7-6.2,1
			l-0.9-4.1c5.7-0.6,10.9-1.8,15.4-3.7l1.5,4.1c-1.7,0.6-3.5,1.2-5.4,1.7v4.9h8.5c-0.3-3.2-0.3-6.7-0.3-10.6h4.4
			c0,4,0.2,7.5,0.4,10.6h12.4v4.2h-12.1c0.2,2.7,0.6,4.9,1.1,6.7c0.2,0.7,0.3,1.2,0.5,1.8c1.7-2.1,3.2-4.5,4.5-7.1l3.7,2
			c-1.8,3.7-4,7-6.6,9.8c0.4,1,0.9,1.9,1.3,2.5c1.2,1.8,2.1,2.7,2.7,2.7c0.5,0,0.9-2.1,1.4-6.3l3.9,2c-1.1,5.9-2.6,8.9-4.7,8.9
			c-1.8,0-3.7-1.2-5.7-3.7c-0.7-1-1.5-2-2.1-3.3c-2.8,2.3-6,4.2-9.4,5.5l-2.4-3.7c3.8-1.4,7.2-3.4,10.1-6c-0.5-1.3-0.9-2.7-1.2-4.1
			c-0.6-2.2-1.1-4.9-1.4-7.9h-8.9v6.2c2.4-0.6,4.7-1.3,6.9-2V132.8z M251.7,115.4l-3.1,3.1c-1.7-1.8-4.1-3.7-7.3-5.8l2.9-2.8
			C247.1,111.8,249.6,113.6,251.7,115.4z"/>
		<path fill="#FFFFFF" d="M282.7,127.6c0,4.1-1.9,7.2-5.7,9.2l-1.5-2.4c2.5-1.5,3.8-3.5,4.1-5.8c-0.3,0-0.5,0.1-0.8,0.1
			c-0.9,0-1.7-0.3-2.3-0.9c-0.6-0.6-0.9-1.3-0.9-2.2c0-1,0.3-1.7,0.9-2.3c0.6-0.6,1.4-0.9,2.3-0.9
			C281.4,122.5,282.7,124.2,282.7,127.6z"/>
		<path fill="#FFFFFF" d="M321.8,147.7l-1-4.2c2.2,0.2,4.2,0.2,6.1,0.2c1,0,1.5-0.6,1.5-1.8v-21h-0.5c-4.1,8.5-10.9,15.5-20.4,21
			l-2.3-3.7c8.3-4.5,14.4-10.3,18.3-17.3H306v-4.2h22.3v-7.1h4.4v7.1h10v4.2h-10v22.2c0,3.1-1.5,4.6-4.3,4.6H321.8z"/>
		<path fill="#FFFFFF" d="M353.1,122.4l-2.3-3.7c6.7-2.7,12.7-5.7,18.1-9.2h2.6c5.4,3.5,11.4,6.6,18.1,9.2l-2.3,3.6
			c-0.7-0.3-1.4-0.6-2-1v11h-30.1v-10.9C354.5,121.8,353.8,122.1,353.1,122.4z M378.6,118.1v1.5h-16.8v-1.4c-1.8,1-3.7,1.9-5.7,2.8
			h28.3C382.3,120,380.4,119.1,378.6,118.1z M383.7,148.1h-4.1v-1.2h-18.7v1.3h-4.1v-14.3h26.9V148.1z M368.3,124.3h-9.2v5h9.2
			V124.3z M379.6,138.7v-1.7h-18.7v1.7H379.6z M379.6,143.5v-1.8h-18.7v1.8H379.6z M366.1,128.3l-2.8,0.7c-0.5-1.3-1.2-2.6-2-3.8
			l2.9-0.9C364.9,125.5,365.5,126.8,366.1,128.3z M370.2,113.2c-1.6,1.1-3.4,2.1-5.2,3.2h10.4C373.5,115.3,371.8,114.2,370.2,113.2z
			 M381.3,124.3h-9.2v5h9.2V124.3z M379.1,125.1c-0.5,1.5-1.2,2.8-2,3.9l-2.8-1c0.7-1,1.3-2.2,1.8-3.7L379.1,125.1z"/>
		<path fill="#FFFFFF" d="M428.2,127.8v14h-6.4v1.4c0,0.6,0.2,0.9,0.8,0.9h6.5c0.6,0,1-0.2,1.3-0.6c0.2-0.3,0.5-1.5,0.6-3.5l3.6,1.1
			c-0.3,3-0.8,4.9-1.5,5.4c-0.7,0.5-1.7,0.8-3.2,0.8h-8.2c-2.5,0-3.7-1.1-3.7-3.4v-2.2h-3.7c-2.2,3.4-7.2,5.6-15.1,6.5l-2-3.1
			c6-0.6,10.2-1.7,12.5-3.4h-6.5v-14H428.2z M404,119.3h5.6v2.5h-5.4l0.1,1.7h7.9l-1.4-2.2c1.1-0.3,2.2-0.8,3.2-1.4
			c-0.8-0.5-1.6-1-2.5-1.4l1.8-1.7c1,0.5,1.9,1.1,2.8,1.6c0.7-0.6,1.4-1.2,2-1.9l2.1,1.4c-0.7,0.7-1.3,1.4-2,2
			c0.9,0.6,1.7,1.2,2.5,1.8l-1.8,1.8h8.2l0.1-1.7h-5.6v-2.5h5.7l0.1-1.4h-5.7v-2.6h5.9l0.1-1.5h-6.2v-3h9.8l-0.7,12.8h2.8v6.9h-3.8
			v-4h-28.2v4h-3.8v-6.9h2.9l-0.9-12c2.8-0.2,5.8-0.8,8.9-1.8l1.2,3c-1.3,0.5-3.5,0.9-6.4,1.4l0.1,1.2h5.9v2.6h-5.7L404,119.3z
			 M424.3,131.7v-1.5h-17.1v1.5H424.3z M424.3,135.3v-1.4h-17.1v1.4H424.3z M424.3,137.6h-17.1v1.5h17.1V137.6z M416.3,111.8
			c0.7-0.6,1.4-1.2,2.1-1.8l2.3,1.5c-0.7,0.7-1.3,1.3-1.9,1.8c0.8,0.5,1.6,1.1,2.4,1.6l-1.9,1.9c-0.8-0.7-1.7-1.3-2.7-1.9
			c-1.2,0.7-2.7,1.4-4.4,2.2l-1.5-2.4c1.1-0.3,2.2-0.8,3.2-1.3c-0.9-0.5-1.7-1-2.7-1.4l1.9-1.9C414.3,110.7,415.3,111.2,416.3,111.8
			z M412.5,123.5h6.5c-0.8-0.7-1.7-1.4-2.7-2.1C415.2,122,414,122.7,412.5,123.5z"/>
		<path fill="#FFFFFF" d="M454.7,111.1c-2.2,4.5-6.1,8.6-11.5,12.3l-1.3-4.2c4.2-2.8,7.2-6.1,9.2-9.8L454.7,111.1z M443.4,134.9
			l-1.3-4.1c4.1-3.1,7.2-6.7,9.2-10.7l3.7,1.7c-0.9,2-2.1,3.9-3.5,5.6v20.7h-4.2v-16.3C446,132.9,444.8,133.9,443.4,134.9z
			 M479.6,127v3.7H475v2.3h5.6v3.8H475v6.9c0,2.7-1.4,4-4.2,4h-4.5l-0.9-4.1c1.4,0.2,2.7,0.3,4,0.3c1,0,1.5-0.5,1.5-1.3v-5.9h-16.9
			V133h16.9v-2.3h-15.4V127H479.6z M477.3,110.8v14.1h-20.5v-14.1H477.3z M465.6,143.2l-3.3,2.2c-1.2-1.8-2.9-3.8-5-6l3.1-2.2
			C462.7,139.4,464.4,141.5,465.6,143.2z M473.2,116.2v-2H461v2H473.2z M473.2,119.4H461v2h12.2V119.4z"/>
		<path fill="#FFFFFF" d="M97.3,195.2c-2.2,0.7-4.5,1.4-6.9,2v8.4c0,2.7-1.5,4.2-4.4,4.2h-4.7l-1-4.1c1.5,0.2,2.8,0.2,4.2,0.2
			c1,0,1.5-0.5,1.5-1.4v-6.3c-2.4,0.5-4.9,1-7.4,1.4l-0.6-4.4c2.8-0.4,5.5-0.9,8.1-1.5v-7.2h-8.1v-4.2H86v-3.9c-2,0.4-4,0.7-6.2,1
			l-0.9-4.1c5.7-0.6,10.9-1.8,15.4-3.7l1.5,4.1c-1.7,0.6-3.5,1.2-5.4,1.7v4.9h8.5c-0.3-3.2-0.3-6.7-0.3-10.6h4.4
			c0,4,0.2,7.5,0.4,10.6h12.4v4.2h-12.1c0.2,2.7,0.6,4.9,1.1,6.7c0.2,0.7,0.3,1.2,0.5,1.8c1.7-2.1,3.2-4.5,4.5-7.1l3.7,2
			c-1.8,3.7-4,7-6.6,9.8c0.4,1,0.9,1.9,1.3,2.5c1.2,1.8,2.1,2.7,2.7,2.7c0.5,0,0.9-2.1,1.4-6.3l3.9,2c-1.1,5.9-2.6,8.9-4.7,8.9
			c-1.8,0-3.7-1.2-5.7-3.7c-0.7-1-1.5-2-2.1-3.3c-2.8,2.3-6,4.2-9.4,5.5l-2.4-3.7c3.8-1.4,7.2-3.4,10.1-6c-0.5-1.3-0.9-2.7-1.2-4.1
			c-0.6-2.2-1.1-4.9-1.4-7.9h-8.9v6.2c2.4-0.6,4.7-1.3,6.9-2V195.2z M115,177.8l-3.1,3.1c-1.7-1.8-4.1-3.7-7.3-5.8l2.9-2.8
			C110.4,174.2,112.9,176,115,177.8z"/>
		<path fill="#FFFFFF" d="M138.6,189.6h-10.1v3.9h11v16.3h-4.1v-2.2h-6.9v2.2h-4.1V176h4c0.5-1.3,0.8-2.7,1-4.1l4.4,0.6
			c-0.2,1.2-0.6,2.4-1,3.5h5.7V189.6z M134.5,185.9v-6.3h-6v6.3H134.5z M135.4,204v-6.8h-6.9v6.8H135.4z M153.1,172v7h7.3v21.3
			c0,2.9-1.3,4.4-3.9,4.4h-2l-1.1-3.9l1.8,0.2c0.7,0,1-0.5,1-1.6V183h-3.2v27.8h-4.2V183h-3.2v22.3h-4.2V179h7.4v-7H153.1z"/>
		<path fill="#FFFFFF" d="M179.3,205.6h-3.6v-2.5h-2.3v3.4h-3.6v-31.9h9.4V205.6z M175.8,199.6v-21.5h-2.3v21.5H175.8z M191.3,173.3
			v3c-0.7,3.7-1.5,7.5-2.4,11.6c1.5,3.7,2.2,6.9,2.4,9.6c0,2.1-0.3,3.5-0.9,4.4c-0.9,1.1-2.4,1.7-4.6,1.7l-1.1-3.4v10.2h-3.6v-37.1
			H191.3z M186.7,199.9c0.3-0.1,0.6-0.3,0.7-0.6c0.1-0.3,0.2-1,0.2-1.8c0-2.7-0.8-5.7-2.3-9c1-4.3,1.8-8.2,2.4-11.6h-2.9v22.9
			C185.6,199.8,186.2,199.9,186.7,199.9z M200.6,181.2V200h-8.3v-18.8H200.6z M207.4,173.4v4h-1.5V206c0,2.7-1.5,4.1-4.3,4.1h-4.3
			l-0.8-3.6c1.3,0.2,2.7,0.2,3.9,0.2s1.9-0.5,1.9-1.6v-27.7h-9.5v-4H207.4z M197.4,184.1h-2.1v12.9h2.1V184.1z"/>
		<path fill="#FFFFFF" d="M237.1,190c0,4.1-1.9,7.2-5.7,9.2l-1.5-2.4c2.5-1.5,3.8-3.5,4.1-5.8c-0.3,0-0.5,0.1-0.8,0.1
			c-0.9,0-1.7-0.3-2.3-0.9c-0.6-0.6-0.9-1.3-0.9-2.2c0-1,0.3-1.7,0.9-2.3c0.6-0.6,1.4-0.9,2.3-0.9
			C235.8,184.9,237.1,186.6,237.1,190z"/>
		<path fill="#FFFFFF" d="M265.4,187.7l-4.2-2.6c3-3.9,5.1-8,6.4-12.4l4.4,0.9c-0.4,1.5-0.9,2.9-1.4,4.2h6.7v-5.7h4.4v5.7h13.2v4.2
			h-13.2v6.5h16.1v4.2h-10.9v10.5c0,1.6,0.5,2.4,1.7,2.4h3.5c0.4,0,0.7-0.2,1.2-0.7c0.3-0.5,0.5-2.5,0.7-6.2l4.2,1.3
			c-0.4,4.8-1,7.7-1.7,8.4c-0.8,0.8-1.9,1.2-3.2,1.3h-5.8c-3.3,0-4.9-2-4.9-5.8v-11.3H276c-0.5,4.6-1.5,8.1-3,10.4
			c-1.9,2.8-5.2,5.3-9.8,7.4l-3.1-3.9c4.1-1.6,7-3.5,8.7-5.7c1.3-1.7,2.2-4.5,2.7-8.1h-10.9v-4.2h16.6V182h-8.5
			C267.7,184,266.6,185.9,265.4,187.7z"/>
		<path fill="#FFFFFF" d="M325.3,173.3v14.3h-9.9c-0.1,1.3-0.1,2.5-0.2,3.7h11.3c0,7.7-0.2,12.4-0.6,14.2c-0.5,2.9-2.9,4.4-7.1,4.4
			c-0.7,0-1.8-0.1-3.5-0.2l-1-3.7c1.5,0.1,2.7,0.2,3.8,0.2c2.1,0,3.4-0.9,3.7-2.5c0.2-0.8,0.3-3.5,0.4-8.2h-7.4
			c-0.3,2.4-0.7,4.4-1.2,5.9c-1.1,3.4-2.9,6.4-5.4,8.9l-2.8-3.7c2.1-2,3.5-4.5,4.4-7.2c0.7-2.5,1.2-6.4,1.4-11.8h-3.5v-14.3H325.3z
			 M321,177.4H312v6.2h9.1V177.4z M333.9,175.6v25.6h-4.2v-25.6H333.9z M332.1,210l-1-4.1c1.9,0.2,3.7,0.2,5.4,0.2
			c1.1,0,1.7-0.7,1.7-2v-32.1h4.3v33.2c0,3.2-1.5,4.8-4.5,4.8H332.1z"/>
		<path fill="#FFFFFF" d="M355.2,182.4l-3.8-2.4c2.4-2.6,4.1-5.4,5-8.3l4.2,0.9c-0.2,0.6-0.5,1.2-0.7,1.9h10.2v3.8h-5.9
			c0.7,1,1.2,1.9,1.7,2.7l-4,1.5c-0.7-1.5-1.5-2.9-2.4-4.3h-1.5C357.2,179.8,356.3,181.2,355.2,182.4z M388.2,191.1h-4.2v-4.5h-27.5
			v4.5h-4.2V183h15.9c-0.3-0.7-0.7-1.4-1-2l3.7-0.6l-0.8-0.5c1.9-2.5,3.3-5.2,4.1-8l4.1,0.9c-0.2,0.6-0.4,1.2-0.6,1.8h11.4v3.8h-6.6
			c0.6,0.8,1.1,1.7,1.5,2.4l-3.8,1.5c-0.7-1.3-1.4-2.6-2.3-3.9H376c-0.7,1.3-1.5,2.6-2.3,3.7l-1.9-1.2c0.2,0.7,0.5,1.4,0.8,2.1h15.6
			V191.1z M382.4,197.2h-20v2h22v11.3h-4.3V209h-17.7v1.4H358v-22.2h24.4V197.2z M378.2,193.8v-2.1h-15.8v2.1H378.2z M380.1,205.2
			v-2.7h-17.7v2.7H380.1z"/>
		<path fill="#FFFFFF" d="M400.5,210.6l-3.4-3c3-3.5,4.6-8,4.7-13.5v-8.9c-0.8,0.5-1.5,1-2.3,1.5l-2.7-3.3
			c4.8-2.7,8.9-6.7,12.5-11.8l4.4,1c-0.5,0.7-1,1.5-1.5,2.2h14.8v3.2c-1.3,1.4-2.6,2.7-3.9,3.8h8.9v24.7c0,2.5-1.4,3.7-4.2,3.7h-5.6
			l-1.1-4c2,0.1,3.7,0.2,5.4,0.2c0.7,0,1.2-0.5,1.2-1.4v-3.9h-22.5C404.2,204.8,402.7,208,400.5,210.6z M406,193.8
			c0,1.2-0.1,2.4-0.2,3.5h8.7v-3.9H406V193.8z M416.9,181.8c1.3-1,2.7-2,4.1-3.2h-11.9c-1,1.1-2.1,2.2-3.2,3.2H416.9z M406,185.7v4
			h8.4v-4H406z M427.6,185.7h-8.9v4h8.9V185.7z M427.6,193.4h-8.9v3.9h8.9V193.4z"/>
		<path fill="#FFFFFF" d="M471,178.1h-26.2v-4.2h32.3v4.2c-3.8,3.4-8.1,6.7-12.9,9.8v17.6c0,3.1-1.5,4.6-4.5,4.6
			c-2.5,0-4.7-0.1-6.6-0.3l-1.2-4.2c2,0.2,4.2,0.4,6.6,0.4c0.9,0,1.3-0.5,1.3-1.4v-19C463.7,183.5,467.5,181,471,178.1z"/>
		<path fill="#FFFFFF" d="M78.7,255.3l-1.5-4.7c4.3-4.7,7.4-10.2,9.5-16.6l4,1.9c-1.1,3.2-2.5,6.3-4.2,9.2v27.6h-4.3v-21.5
			C81.1,252.7,79.9,254,78.7,255.3z M91.6,251.4l-3.7-2.3c3.1-4.6,5.2-9.5,6.5-14.7l4.1,0.9c-0.3,1.2-0.7,2.5-1.1,3.7h17.3v2.8
			c-0.6,2.5-1.4,4.9-2.4,7.4l-4.2-1.2c0.8-1.4,1.5-3,2.1-4.9H95.9C94.6,246.1,93.2,248.9,91.6,251.4z M97.6,252.4
			c-1.5,5.7-3.3,10.7-5.6,15l-4.1-1.5c2.2-3.8,4.1-8.7,5.7-14.6L97.6,252.4z M95.2,272.5l-1-4.1c1.7,0.2,3.3,0.3,4.8,0.3
			c1,0,1.5-0.5,1.5-1.6V246h4.2v22.2c0,2.9-1.4,4.3-4.2,4.3H95.2z M115.8,266.4l-3.8,1.7c-1.5-6-3.2-11.3-5.1-15.9l3.8-1.3
			C112.7,255.7,114.4,260.9,115.8,266.4z"/>
		<path fill="#FFFFFF" d="M127.2,249.1l-3.8-2.4c2.7-3.9,4.6-8,5.7-12.4l4.3,1c-0.4,1.5-0.8,2.9-1.3,4.2h11v4.1h-5.5
			c0,2.4-0.2,4.7-0.4,6.8h6.3v4.1h-6.9L136,257c2.5,2.5,5,5.3,7.6,8.4l-2.7,4c-2.5-3.6-4.5-6.4-6.2-8.4c-1.7,4.2-4.7,7.8-8.9,10.8
			l-2.8-3.5c4.3-3.2,7.1-7.1,8.4-11.6l0.5-2.2h-8v-4.1h8.7c0.2-2.1,0.3-4.4,0.4-6.8h-2.8C129.4,245.6,128.3,247.4,127.2,249.1z
			 M160.2,271H156v-2.3h-6.9v2.3h-4.2v-32.7h15.3V271z M156,264.7v-22.3h-6.9v22.3H156z"/>
		<path fill="#FFFFFF" d="M179.5,244.4v3.4c-1.2,2.1-2.7,4.1-4.4,6.2h4.8v2.8c-0.5,3-1.2,5.4-1.9,7.4c0.3,0.2,0.6,0.5,1,0.8
			c1.3,1.2,2.6,2.1,3.7,2.6c1.2,0.5,2.9,0.7,5.2,0.8c2.2,0,4.8,0,7.7,0c3,0,6.9-0.1,11.7-0.3l-1,4.1h-10.1c-2.8,0-5.7-0.1-8.4-0.2
			c-2.8-0.1-5-0.4-6.4-1c-1.7-0.7-3.3-1.7-4.7-3.2c-0.3-0.3-0.6-0.5-1-0.5c-0.8,0-2.1,1.8-3.9,5.4l-3.1-2.9c1.9-3.6,3.7-5.8,5.5-6.4
			c0.7-1.8,1.3-3.8,1.7-5.9H170v-3.2c1.9-2.2,3.5-4.2,4.8-6h-5.4v-3.9H179.5z M179.3,240.4l-2.8,2.8c-1.5-1.8-3.6-3.9-6.3-6l2.8-2.7
			C175.4,236.5,177.5,238.4,179.3,240.4z M186.8,238.6c-0.6-1-1.2-2-2-2.9l4-1.5c0.9,1.2,1.7,2.7,2.5,4.5h4.5c1-1.4,1.9-2.9,2.7-4.5
			l4.1,1.5c-0.6,1.1-1.3,2.1-2,3h6.2v3.9h-11.4c-0.2,0.8-0.5,1.6-0.8,2.4h9.4v21h-20.1v-21h6.1c0.3-0.8,0.5-1.6,0.7-2.4h-9.8v-3.9
			H186.8z M199.8,250.8v-2.2h-12.1v2.2H199.8z M199.8,256.3v-2.2h-12.1v2.2H199.8z M199.8,259.7h-12.1v2.4h12.1V259.7z"/>
		<path fill="#F5C15D" d="M231.8,237.6c0.2-1.2,0.3-2.5,0.5-3.7l4.4,0.6l-0.4,3.1h15.9v4.1h-16.6c-0.3,1.1-0.5,2.2-0.7,3.2h15.4
			v22.9c0,3.2-1.5,4.7-4.4,4.7H242l-1.1-4.2l3.6,0.1c1,0,1.5-0.6,1.5-1.7V249h-24.8v23.8h-4.3v-27.9h13.5c0.3-1.1,0.5-2.2,0.7-3.2
			h-16.2v-4.1H231.8z M231.8,254.3h3.5c0.8-1.5,1.5-3.2,2.2-4.9l3.9,1.4c-0.6,1.3-1.2,2.5-1.9,3.5h3.8v3.8h-7.7v3.2h8.7v3.8h-8.7
			v7.2h-4.2V265h-8.7v-3.8h8.7V258h-7.5v-3.8h3.7c-0.6-1.2-1.2-2.3-1.9-3.4l3.9-1.4C230.4,250.8,231.1,252.4,231.8,254.3z"/>
		<path fill="#F5C15D" d="M272,240.5v-6.2h4.3v20.5c-0.1,8.2-2.4,14.3-6.9,18.1l-3.4-3c2.2-1.9,3.9-4.4,4.8-7.5
			c-3.2,0.7-6.5,1.5-10,2l-1.1-4.3c4.1-0.4,8.1-1,12-1.9c0.1-1.1,0.2-2.3,0.2-3.5V254h-10.1v-4.2H272v-5.2H261v-4.1H272z
			 M286.2,234.3v6.2h11v4.1h-11v5.2h10.1v4.2h-10.1v5.4h11.7v4.1h-11.7v9.4h-4.4v-38.5H286.2z"/>
		<path fill="#F5C15D" d="M332.3,270.3l-1.1-4l3.2,0.2c0.9,0,1.4-0.5,1.4-1.5v-3.3h-9v11.1h-4.3v-11.1h-9v8.2h-4.3v-12h13.3v-2.4h-2
			l-0.9-3.2l1.9,0.2c0.6,0,0.9-0.4,0.9-1.1v-1.1l-2.6,0.7c-0.3-2-0.8-4-1.3-5.8l2.3-0.8c0.6,1.7,1.2,3.6,1.6,5.7v-6.7h-4.1V255H315
			v-11.7h-4.3v12.2h-3.5v-15.6h3.4c-0.7-1.4-1.6-2.7-2.4-3.8l3.1-1.5c0.8,1.2,1.7,2.6,2.5,4.2l-2.2,1.1h3.4v-5.4h3.6v5.4h3.3
			l-2.1-1.1c1-1.4,1.8-2.8,2.4-4.1l3.2,1.5c-0.6,1.2-1.4,2.5-2.3,3.7h3v4c2.5-2.7,4.2-5.8,5-9.4l3.9,0.5c-0.3,1.1-0.6,2.2-1,3.2h8.9
			v3.7h-1.6c-0.9,3-2.1,5.5-3.6,7.6c1.8,1.2,4,2.3,6.3,3.3l-2,3.5c-2.6-1.2-4.9-2.6-6.8-4.1c-1.9,1.7-4.2,2.9-6.7,3.7l-2-3.3
			c2.2-0.7,4.2-1.7,5.8-3c-0.9-0.9-1.7-1.8-2.4-2.7l1.8-2.8c0.9,1.1,1.9,2.1,3,3c1.2-1.6,2-3.4,2.7-5.4h-5.2c-1.1,2-2.5,3.7-4.1,5.4
			l-2.1-2.7v7.6c0,1.6-0.6,2.7-1.7,3.1h2.7v2.7h13.3v8.1c0,2.9-1.5,4.4-4.3,4.4H332.3z M314.5,245.1c-0.2,2.7-0.5,5.1-1,7.2
			l-2.7-0.9c0.6-1.9,1-4.2,1.2-6.7L314.5,245.1z"/>
		<path fill="#F5C15D" d="M360.8,261.1c-1.6,4-3.4,7.7-5.3,11.1l-4.2-1.9c2.2-3.5,4.2-7.1,5.9-10.8L360.8,261.1z M361.3,255l-3,3
			c-1.6-1.4-3.9-3-6.8-4.6l3-2.8C357.2,252,359.5,253.5,361.3,255z M360.7,236.7v-2.4h4.1v2.4h4.5v3.7h-4.5v2.4h-4.1v-2.4h-8.5v-3.7
			H360.7z M362.8,246.6l-3,3c-1.6-1.4-3.8-3-6.7-4.7l3-2.8C358.7,243.5,360.9,245,362.8,246.6z M389.7,257.5l-2.5,3.6
			c-0.9-0.2-1.7-0.4-2.6-0.7v12.4h-4v-1.5h-11.5v1.5h-4v-12.1c-0.7,0.3-1.5,0.5-2.2,0.7l-2.5-3.4c4.4-1.1,8.1-2.4,11.1-3.9
			c-1.3-1-2.4-2.1-3.4-3.2c-1.4,1.2-3,2.4-4.7,3.4l-2.5-3.2c4.5-2.5,7.6-5.6,9.2-9.3l4,0.7c-0.3,0.7-0.6,1.3-0.9,2h11.4v3
			c-1.4,2.4-3.3,4.6-5.9,6.6C382,255.6,385.7,256.7,389.7,257.5z M375.3,256.6c-2,1.1-4.1,2.1-6.5,3h13.1
			C379.4,258.7,377.2,257.8,375.3,256.6z M380.7,267.7v-4.3h-11.5v4.3H380.7z M375.3,252.2c1.9-1.2,3.4-2.5,4.6-4h-9l-0.2,0.2
			C372.1,249.8,373.6,251.1,375.3,252.2z M379.8,234.3v2.4h8.5v3.7h-8.5v2.4h-4.1v-2.4h-4.5v-3.7h4.5v-2.4H379.8z"/>
		<path fill="#F5C15D" d="M408.9,236c-2.2,4.5-5.9,8.6-11.1,12.3l-1.3-4.2c3.9-2.8,6.8-6.1,8.7-9.9L408.9,236z M409.8,246.6
			c-1,2.1-2.2,4-3.8,5.9v20.1h-4.2v-15.8c-1.2,1-2.5,2-3.8,3l-1.3-4.1c4.1-3.1,7.2-6.7,9.2-10.8L409.8,246.6z M434.3,253.1l-3.2,2.2
			c-0.5-0.9-1.1-1.9-1.7-2.9c-3.2,0.5-6.8,0.9-11,1.2l1.3,0.5c-0.3,0.6-0.5,1.2-0.8,1.7h11.5v3.5c-0.9,2.6-2.6,4.9-5,6.9
			c3,1.2,6.3,2.2,10.1,3l-2.5,3.6c-4.4-1-8.2-2.4-11.5-4c-3.2,1.7-7.1,3-11.9,4.1l-2-3.6c3.8-0.7,7-1.7,9.7-2.9
			c-1.3-0.9-2.6-1.8-3.7-2.8c-1,1.1-2.1,2-3.2,2.9l-3.1-2.7c1.3-1,2.5-2,3.5-3.1c-0.7-0.9-1.5-1.7-2-2.7l3.4-1.9
			c0.3,0.5,0.7,1,1.1,1.5c0.8-1.2,1.5-2.6,2.2-3.9l-5,0.3l-1.2-3.4c2.9-1,6.1-3,9.7-6c-2.2,0.2-4.9,0.4-7.9,0.7l-0.5-3.5
			c1.2-0.1,2.3-0.7,3.2-1.7c1-1.2,2.5-3.3,4.3-6.4l3.9,1.5c-1.6,2.2-3.2,4.3-5,6.2c2.2-0.2,4.2-0.4,6.1-0.6c1.1-1.1,2.1-2.2,3.2-3.4
			l3.8,1.9c-4.5,4.7-8.7,8.4-12.4,10.9c3.5-0.4,6.7-0.8,9.4-1.3c-0.7-1-1.4-1.9-2.2-2.9l3.1-2C430.8,247.6,432.9,250.6,434.3,253.1z
			 M426,259.7h-9.2l-0.7,1.1c1.5,1.3,3.2,2.6,5.2,3.7C423.4,263,424.9,261.5,426,259.7z"/>
		<path fill="#F5C15D" d="M474.5,261h5.5v4h-9.4c3.3,1.2,6.3,2.6,9.2,4.1l-2.4,3.8c-4-2.5-8.2-4.4-12.3-5.8l1.4-2.1h-10.9l2,1.8
			c-3.2,2.3-7.2,4.4-11.9,6.2l-2.7-3.5c3.7-1.3,7-2.8,9.7-4.5h-10.1v-4h5.5v-25.4h26.3V261z M470.1,242.3v-2.6h-17.6v2.6H470.1z
			 M470.1,248.5v-2.9h-17.6v2.9H470.1z M470.1,254.8v-2.8h-17.6v2.8H470.1z M470.1,261v-2.8h-17.6v2.8H470.1z"/>
		<path fill="#F5C15D" d="M78.6,324l-1.4-4.4c4.8-4.4,8-8.7,9.7-12.9h-8.8v-4h4.9c-0.6-1.7-1.2-3.4-1.9-5l4.2-1.1
			c0.8,2.2,1.5,4.3,1.9,6.1h3.9v3.5c-1,2.9-2.4,5.8-4.4,8.7v0.2l1,0.7c1-0.9,2-2.2,2.9-3.9l2.5,2.5c-0.9,1.4-1.9,2.5-2.9,3.5
			c0.9,0.8,1.7,1.7,2.6,2.6l-2.3,3.6c-1.2-1.7-2.5-3.3-3.7-4.7v15.7h-4.2v-15.1C81.3,321.4,80,322.7,78.6,324z M102,301.3v-4.4h4.1
			v4.4h4.3c-0.7-1-1.4-2-2.2-3l3-1.8c1.2,1.5,2.2,2.7,2.8,3.8l-1.5,1h3.6v4h-9.9v2.9h8.5v22.5c0,2.8-1.3,4.3-4,4.3H108l-1.1-3.9
			l2.5,0.2c0.8,0,1.2-0.5,1.2-1.5v-3.3h-4.5v8.5H102v-8.5h-4.4v8.7h-4v-27h8.4v-2.9h-9.7v-4H102z M97.7,312v3.4h4.4V312H97.7z
			 M97.7,322.7h4.4v-3.5h-4.4V322.7z M110.6,312h-4.5v3.4h4.5V312z M110.6,319.2h-4.5v3.5h4.5V319.2z"/>
		<path fill="#F5C15D" d="M129.6,313.4l-3,3c-1.3-1.9-3.2-3.9-5.7-6.1l3-3C126.2,309.3,128.1,311.4,129.6,313.4z M129.8,320.1
			c-1.3,5.3-2.8,10.3-4.4,15l-4-1.8c1.8-4.8,3.3-9.7,4.6-14.7L129.8,320.1z M130.9,303.6l-3,3c-1.4-1.9-3.3-4-5.9-6.2l3-3
			C127.4,299.5,129.3,301.5,130.9,303.6z M134.3,317.1h6.2c0,7-0.2,11.6-0.6,14c-0.4,2.4-2.1,3.7-5.2,3.9c-0.9,0-1.8,0-2.7-0.1
			l-1-3.7c0.9,0.1,1.8,0.2,2.8,0.2c1.5,0,2.3-0.7,2.5-2c0.2-1.4,0.3-4.2,0.3-8.5h-6.2l1.1-13.4h5v-5.7h-5.7V298h9.5v13.3h-5.5
			L134.3,317.1z M158,301.8h-10.5v2.3h9.2v3.7h-9.2v2.4h9.2v3.7h-9.2v2.3h11.6v3.9H147v10.6c1.4-0.4,2.8-1,4.2-1.6l0.7,3.6
			c-2.6,1.1-5.5,2.1-8.9,2.9l-1.6-3.3c1.2-0.5,1.7-1.2,1.7-2.2v-10h-2.1V316h2.3v-18.1H158V301.8z M153.4,323.4
			c1.2-0.8,2.2-1.9,3.3-3.2l2.6,2.5c-1.3,1.5-2.8,2.7-4.4,3.7c1.5,2.4,3.3,4.2,5.5,5.4l-2.3,3.4c-4.2-2.3-7.2-6.7-8.9-13.2l3.1-1.7
			C152.6,321.4,153,322.4,153.4,323.4z"/>
		<path fill="#F5C15D" d="M173.3,335.1h-4v-18c-0.8,2.5-1.8,4.7-2.9,6.9l-1.7-4.5c2-3.2,3.5-6.9,4.5-10.9h-3.5v-4h3.7v-7.8h4v7.8
			h2.8v4h-2.8v1.9c1.3,1.5,2.6,3.1,3.9,4.8l-2.2,3.2c-0.7-1.2-1.2-2.2-1.7-3.2V335.1z M193.5,331.4c-2.2,1.5-4.6,2.8-7.3,3.8
			l-1.7-3.7c2.6-0.9,4.9-2.1,6.9-3.5c-0.9-1.9-1.7-4-2.2-6.5v-0.1h-5.5c0,0.5,0,1,0,1.4c2.1,1,4,2.1,5.6,3.5l-2.2,3.3
			c-1.3-1.2-2.6-2.1-3.9-2.9c-0.7,3.3-2.6,6.2-5.9,8.5l-2.7-3.4c2.7-1.8,4.4-4.2,4.9-7.1c0.2-1,0.2-2,0.3-3.2h-3.9v-3.8h12.4
			c-0.5-3.3-0.7-7-0.7-11v-4c-1.5,2.6-2.8,4.7-4,6.4l2.1-0.7c0.6,2,1.2,4.4,1.7,6.9l-2.7,0.7c-0.1-0.6-0.2-1.1-0.3-1.6
			c-2.1,0.3-4.4,0.6-6.9,1l-0.6-2.9c1-0.3,2.5-2.1,4.5-5.2c-1.3,0.2-2.7,0.3-4.2,0.4l-0.6-2.7c0.8-0.4,2.1-3,4-8l3.3,1.2
			c-1.4,3-2.6,5.2-3.5,6.5c1-0.1,1.9-0.2,2.7-0.3c0.6-1.1,1.2-2.2,1.9-3.4l2.6,0.9v-4.9h4v9.8c0,4.1,0.2,7.8,0.7,11h3.5
			c-0.4-0.6-0.8-1.2-1.3-1.8l3.3-1.2c0.6,0.9,1.2,1.9,1.7,3h3.7v3.8h-5.1l2.6,2c-1.3,2.2-2.8,4.1-4.6,5.7c0.9,1.1,1.7,1.7,2.5,1.7
			c0.6,0,1.2-1.6,1.7-4.8l3.4,2.2c-1,4.4-2.6,6.7-4.7,6.7C197.1,334.8,195.2,333.7,193.5,331.4z M181.3,312.1l2.6-0.5
			c-0.2-0.8-0.4-1.5-0.5-2.2C182.6,310.5,181.9,311.5,181.3,312.1z M203.5,314.6l-2.8,0.7c-0.2-0.6-0.3-1.2-0.4-1.7
			c-2.2,0.3-4.6,0.6-7.3,1l-0.7-2.9c1-0.3,2.5-2,4.4-4.9c-1.3,0.2-2.8,0.3-4.3,0.4l-0.6-2.6c0.7-0.4,2.1-2.9,4.1-7.6l3.2,1.1
			c-1.4,2.7-2.5,4.8-3.5,6.1c1-0.1,2-0.2,2.8-0.3c0.6-1,1.2-2.1,1.8-3.2l3,1c-1.5,2.5-2.8,4.7-4,6.4l2-0.6
			C202.1,309.5,202.9,311.8,203.5,314.6z M193,321.4c0.3,1.5,0.7,2.9,1.2,4.1c1.3-1.3,2.4-2.7,3.3-4.1H193z M196.7,311.4
			c1-0.2,1.9-0.3,2.8-0.5c-0.3-0.8-0.5-1.6-0.7-2.2C198,309.8,197.3,310.8,196.7,311.4z"/>
		<path fill="#F5C15D" d="M210.8,309.6l-2.3-3.7c6.7-2.7,12.7-5.7,18.1-9.2h2.6c5.4,3.5,11.4,6.6,18.1,9.2l-2.3,3.6
			c-0.7-0.3-1.4-0.6-2-1v11h-30.1v-10.9C212.1,309,211.4,309.3,210.8,309.6z M236.2,305.3v1.5h-16.8v-1.4c-1.8,1-3.7,1.9-5.7,2.8
			h28.3C240,307.2,238.1,306.3,236.2,305.3z M241.3,335.3h-4.1V334h-18.7v1.3h-4.1v-14.3h26.9V335.3z M225.9,311.5h-9.2v5h9.2V311.5
			z M237.2,325.9v-1.7h-18.7v1.7H237.2z M237.2,330.7v-1.8h-18.7v1.8H237.2z M223.7,315.5l-2.8,0.7c-0.5-1.3-1.2-2.6-2-3.8l2.9-0.9
			C222.5,312.7,223.1,314,223.7,315.5z M227.9,300.4c-1.6,1.1-3.4,2.1-5.2,3.2h10.4C231.2,302.5,229.4,301.4,227.9,300.4z
			 M239,311.5h-9.2v5h9.2V311.5z M236.8,312.3c-0.5,1.5-1.2,2.8-2,3.9l-2.8-1c0.7-1,1.3-2.2,1.8-3.7L236.8,312.3z"/>
		<path fill="#FFFFFF" d="M264.7,326.4h-7.1v2.6h-4.1v-29.2h11.1V326.4z M260.7,322.4v-18.6h-3.1v18.6H260.7z M270.3,322
			c-0.6,4.4-1.3,8.2-2.1,11.4l-3.6-1.3c0.9-2.9,1.7-6.6,2.4-11L270.3,322z M289.9,316.4c0,9.3-0.5,14.8-1.6,16.3
			c-1.1,1.6-3.1,2.4-6.2,2.4c-1.1,0-2.3,0-3.5-0.1l-1-3.9c1.3,0.1,2.5,0.2,3.7,0.2c2.3,0,3.7-0.7,4-2.2c0.1-0.5,0.2-1.1,0.3-1.8
			l-2.8,1.1c-0.5-2.4-1.2-4.7-2-7l2.9-0.8c0.8,2.3,1.5,4.3,1.9,6.2c0.2-1.7,0.3-4,0.3-6.7h-18.6v-22.1h21.8v3.6h-7.9v2.6h7.2v3.5
			h-7.2v2.7h7.3v3.5h-7.3v2.6H289.9z M271.4,301.5v2.6h5.9v-2.6H271.4z M271.4,310.3h5.9v-2.7h-5.9V310.3z M271.4,316.4h5.9v-2.6
			h-5.9V316.4z M275.3,331.5l-3.4,0.5c-0.1-4.3-0.2-7.7-0.5-10l3.1-0.4C274.9,324,275.1,327.3,275.3,331.5z M280.5,329.4l-3.3,0.7
			c-0.3-3.2-0.7-5.9-1.2-8.3l3.1-0.7C279.7,323.7,280.1,326.5,280.5,329.4z"/>
		<path fill="#FFFFFF" d="M322.6,302.8c1.7,1.5,2.5,3.5,2.5,6c0,2.1-0.5,3.8-1.5,5.1c-0.4,0.4-1.6,1.5-3.6,3.3
			c-0.7,0.6-1.3,1.3-1.7,2c-0.4,0.8-0.6,1.7-0.6,2.7v0.6h-4.8V322c0-1.6,0.3-3,0.8-4.1c0.5-1.1,1.5-2.3,2.9-3.5
			c1.3-1.2,2.2-2,2.5-2.4c0.7-0.9,1.1-1.9,1.1-3c0-1.4-0.4-2.5-1.2-3.2c-0.8-0.8-1.9-1.2-3.3-1.2c-1.8,0-3.1,0.5-3.9,1.7
			c-0.7,1-1,2.3-1,4.1H306c0-3.1,0.9-5.5,2.7-7.2c1.8-1.7,4.2-2.6,7.3-2.6C318.7,300.6,320.9,301.3,322.6,302.8z M317.6,325.5
			c0.6,0.6,0.9,1.3,0.9,2.2s-0.3,1.7-0.9,2.3c-0.7,0.6-1.4,0.9-2.3,0.9s-1.7-0.3-2.2-0.9c-0.7-0.6-1-1.3-1-2.2s0.3-1.7,1-2.2
			c0.6-0.6,1.3-0.9,2.2-0.9S316.9,324.9,317.6,325.5z"/>
	</g>
	<path fill="#FFFFFF" d="M76,89.6c137.5-1.4,275.1,0.4,412.3,5.7c-0.1,0,0.1-2.6,0-2.6C351.1,87.5,213.6,85.6,76,87
		C76,87,76,89.6,76,89.6L76,89.6z"/>
	<path fill="#FFFFFF" d="M76.1,148.6c137.2,4.1,274.8,5.2,412.3,3.2c0.1,0,0-2.6,0-2.6c-137.5,2-275.1,0.9-412.3-3.2
		C76.2,146,75.9,148.6,76.1,148.6L76.1,148.6z"/>
	<path fill="#FFFFFF" d="M76.1,220.6c132.5,4.1,265.4,5.2,398.2,3.2c0.1,0,0-2.6,0-2.6c-132.8,2-265.6,0.9-398.2-3.2
		C76.2,218,75.9,220.6,76.1,220.6L76.1,220.6z"/>
	<path fill="#FFFFFF" d="M76.1,278.9c137.2,4.1,274.8,5.2,412.3,3.2c0.1,0,0-2.6,0-2.6c-137.5,2-275.1,0.9-412.3-3.2
		C76.2,276.3,75.9,278.9,76.1,278.9L76.1,278.9z"/>
	<path fill="#FFFFFF" d="M76.1,344.2c85.9,4.1,172.1,5.2,258.2,3.2c0.1,0,0-2.6,0-2.6c-86.1,2-172.3,0.9-258.2-3.2
		C76.1,341.6,76,344.2,76.1,344.2L76.1,344.2z"/>
	<path fill="#D65B51" d="M140.3,385.1c0,0-30.4,45.4-77.6,52.7c0,0,21.7-21.8,13.3-64.4L140.3,385.1z"/>
</g>
<g>
</g>
<g>
</g>
<g>
</g>
<g>
</g>
<g>
</g>
<g>
</g>
<g>
</g>
<g>
</g>
<g>
</g>
<g>
</g>
<g>
</g>
<g>
</g>
<g>
</g>
<g>
</g>
<g>
</g>
</svg>
