<?xml version="1.0" encoding="utf-8"?>
<!-- Generator: Adobe Illustrator 18.0.0, SVG Export Plug-In . SVG Version: 6.00 Build 0)  -->
<!DOCTYPE svg PUBLIC "-//W3C//DTD SVG 1.1//EN" "http://www.w3.org/Graphics/SVG/1.1/DTD/svg11.dtd">
<svg version="1.1" id="Layer_1" xmlns="http://www.w3.org/2000/svg" xmlns:xlink="http://www.w3.org/1999/xlink" x="0px" y="0px"
	 viewBox="0 0 345.1 192.5" enable-background="new 0 0 345.1 192.5" xml:space="preserve">
<path fill="#93C28F" d="M260.5,181.4c0.1-2.8,1.4-5,3-7.2c6-7.9,11.9-15.8,17.9-23.8c4.6-6,9.1-12.1,13.7-18.1
	c-2.9-1.3-5.7-2.7-8.6-4c-10.6,14-21.1,27.9-31.7,41.9c-2.6,3.4-5.2,6.5-10,6.6c-5.6,0.1-10.5-4.3-11-9.8c-0.3-3.2,1-5.8,2.8-8.2
	c5.6-7.4,11.2-14.8,16.8-22.3c4.3-5.7,8.6-11.3,12.9-17c-2.5-1.1-5-2.1-7.6-3.1c-11.5,15.4-23.1,30.8-34.6,46.2
	c-2.6,3.4-4.9,7.3-9.5,8.3c-9.7,2-16.5-9.2-10.7-17c6.2-8.5,12.6-16.8,18.9-25.3c5.1-6.7,10.1-13.5,15.2-20.2
	c-3.3-1.2-6.7-2.4-10.1-3.6c-12,15.4-24,30.8-36,46.2c-2.5,3.2-4.6,6.5-9,7.3c-6.2,1.2-12.3-3.3-12.8-9.7c-0.3-3.2,1-5.8,3-8.3
	c6.2-8.1,12.6-16.1,18.8-24.2c4.8-6.2,9.6-12.3,14.4-18.5c-5.7-1.8-11.4-3.5-17.1-5.1c-9.2,14.3-18.4,28.6-27.7,42.9
	c-2.2,3.4-4.3,6.9-8.6,8c-9.5,2.3-16.4-8.1-11.7-16.2c4.5-7.6,9.6-14.9,14.4-22.3c3.9-6,7.8-12.1,11.7-18.1c-2.8-0.7-5.7-1.4-8.5-2
	c-8.5,13.3-17,26.5-25.5,39.8c-2,3.2-3.9,6.4-7.8,7.6c-9.5,2.9-17.2-7.5-12.4-15.9c3.9-6.8,8.6-13.4,12.8-20
	c3.5-5.4,6.9-10.8,10.4-16.1c-3.8-0.7-7.7-1.4-11.5-2c-6.7,12.7-13.4,25.4-20.1,38.1c-1.7,3.3-3.6,6.4-7.4,7.7
	c-9.4,3.1-16.9-6.9-12.8-15.4c3.1-6.3,6.6-12.5,9.9-18.7c2.6-4.9,5.2-9.9,7.8-14.8c-2.6-0.3-5.2-0.6-7.8-0.8
	c-6.2,9.7-12.5,19.5-18.7,29.2c-1.6,2.5-3.2,4.9-6.1,6.2c-7.1,3.2-15.2-2.2-15.1-10c0-3.1,1.6-5.4,3.2-7.9c2-3,3.9-6.1,5.9-9.1
	c2.2-3.4,4.3-6.7,6.5-10.1c-3.5-0.1-6.9-0.2-10.4-0.3c-5.8,6.5-11.7,13-17.5,19.5c-0.9,1-1.8,2-2.8,2.9C35,98,28.6,97.9,24.7,94
	c-3.9-4-4.1-10.1-0.7-14.4c1-1.3,2.2-2.5,3.3-3.7c0.8-0.9,1.6-1.8,2.5-2.7c-3.7,0.3-7.5,0.7-11.2,1.2c-0.6,0.1-1.2,0.2-1.8,0.2
	c-0.2,0-0.7,0.1-1,0.2c-0.5,0.1-1.1,0.2-1.6,0.3c-2.2,0.4-4.2,0.7-6.4,0.1c-9.5-2.6-10.4-16-1.6-20.1c3.1-1.4,6.9-1.6,10.2-2.1
	c5.2-0.7,10.5-1.2,15.7-1.6c-0.7-0.8-1.4-1.6-2.1-2.4c-3.8-4.4-9.1-9-7.4-15.5c1.3-5.4,6.9-9,12.4-8c2.8,0.5,4.9,2.1,6.7,4.1
	c3.4,4,6.8,7.9,10.3,11.9c2.6,3,5.3,6.1,7.9,9.1c3,0,6,0.1,9,0.2c-1.4-2.2-2.8-4.5-4.2-6.7c-2-3.2-4-6.5-6-9.7
	c-1.2-1.9-2.6-3.8-3.4-5.9c-2.7-7.7,4.4-15.6,12.3-14c3.8,0.8,6.1,3.4,8,6.5c3.7,6,7.5,12,11.2,18c2.8,4.5,5.7,9.1,8.5,13.6
	c2,0.2,4.1,0.4,6.1,0.6c-4.7-10.5-9.5-20.9-14.2-31.4c-1.3-3-1.7-5.9-0.5-9c1.6-4.2,5.8-7,10.4-6.8c4.9,0.2,8.1,3.4,10,7.6
	c3.6,8,7.2,15.9,10.8,23.9c2.9,6.4,5.7,12.8,8.6,19.1c3.5,0.6,7,1.1,10.4,1.7c-5.7-14.4-11.5-28.7-17-43.2
	c-2.9-7.7,3.1-16.2,11.5-14.9c5.6,0.9,7.8,5.3,9.6,9.9c4,10.1,7.9,20.1,11.9,30.2c3,7.7,6.1,15.4,9.1,23.1c2.4,0.5,4.8,1.1,7.2,1.7
	c-4.5-15.7-9-31.4-13.6-47.1c-0.6-2-1-4-0.6-6.1C156,6,161.6,2,167.4,3.1c5.8,1.1,7.9,5.6,9.3,10.6c3.1,10.7,6.2,21.5,9.3,32.2
	c2.4,8.4,4.9,16.9,7.3,25.3c5.6,1.6,11.1,3.2,16.6,4.9c-3.9-18.2-7.8-36.4-11.7-54.6c-0.3-1.4-0.7-3-0.7-4.4
	c0.1-6.6,6.2-11.7,12.7-10.6c6.2,1.1,8.1,6.3,9.2,11.6c2.6,12.2,5.2,24.5,7.9,36.7c2.1,9.7,4.2,19.4,6.3,29.1
	c3.4,1.2,6.8,2.4,10.2,3.6c-0.9-19.8-1.8-39.7-2.8-59.5c0-0.8-0.1-1.7-0.1-2.6c0-6.7,5.7-12,12.4-11c5.3,0.8,8.7,5.2,9.1,10.3
	c0.1,1,0.1,2.1,0.1,3.1c0.6,12.8,1.2,25.5,1.8,38.3c0.5,9.9,0.9,19.8,1.4,29.7c3,1.2,5.9,2.4,8.8,3.6c2.7-20,5.4-40,8.1-60
	c0.2-1.4,0.3-2.7,0.6-4.1c0.9-5.3,5.8-9.4,11.2-8.9c0.2,0,0.3,0,0.5,0.1c0.3,0,0.6,0,0.9,0.1c6.1,1.2,9.3,6.8,8.6,12.6
	c-0.1,1-0.3,2-0.4,3c-0.7,5.5-1.5,10.9-2.2,16.4c-2,14.5-3.9,28.9-5.9,43.4c-0.3,2.1-0.6,4.2-0.9,6.3c3.3,1.5,6.6,3,9.9,4.6
	c4.4-15.2,8.8-30.5,13.2-45.7c0.2-0.6,0.3-1.2,0.5-1.8c1.7-5.1,6.4-8.6,11.9-7.8c7.2,1,10.4,8.1,8.5,14.6
	c-2.7,9.3-5.4,18.6-8.1,27.9c-2.2,7.4-4.3,14.9-6.5,22.3c4.8,2.4,9.5,4.8,14.2,7.3c5.4,2.9,8.2,9,5.3,14.8
	c-2.8,5.5-9.3,7.1-14.7,4.6c-4.9-2.3-9.7-4.9-14.5-7.4c-11,14.7-22.1,29.3-33.1,44c-2.7,3.6-5.6,6.9-10.7,6.7
	C265.1,192.3,260.3,187.3,260.5,181.4z"/>
<g>
</g>
<g>
</g>
<g>
</g>
<g>
</g>
<g>
</g>
<g>
</g>
<g>
</g>
<g>
</g>
<g>
</g>
<g>
</g>
<g>
</g>
<g>
</g>
<g>
</g>
<g>
</g>
<g>
</g>
</svg>
