<?xml version="1.0" encoding="utf-8"?>
<!-- Generator: Adobe Illustrator 18.0.0, SVG Export Plug-In . SVG Version: 6.00 Build 0)  -->
<!DOCTYPE svg PUBLIC "-//W3C//DTD SVG 1.1//EN" "http://www.w3.org/Graphics/SVG/1.1/DTD/svg11.dtd">
<svg version="1.1" id="Layer_1" xmlns="http://www.w3.org/2000/svg" xmlns:xlink="http://www.w3.org/1999/xlink" x="0px" y="0px"
	 viewBox="0 0 432.9 171.3" enable-background="new 0 0 432.9 171.3" xml:space="preserve">
<g>
	<path fill="#FFFFFF" d="M85,157.5c0,0-43.9,23.5-85,9.2c0,0,26.8-8.3,38.2-46.2L85,157.5z"/>
	<path fill="#FFFFFF" d="M372.9,161.5H78.6c-33,0-60-27-60-60V60c0-33,27-60,60-60h294.3c33,0,60,27,60,60v41.5
		C432.9,134.5,405.9,161.5,372.9,161.5z"/>
	<g>
		<path fill="#757679" d="M60.8,72.3V68h40.9v4.3H84.2v3.8h12.6v4.2H84.2v4.4c2.1,0.2,4.4,0.3,7.1,0.3c4.1,0,7.5-0.1,10.3-0.2
			l-1.3,4.5c-3.2,0-6.1,0-8.7-0.1c-7.6,0-12.8-0.6-15.6-1.7c-2.2-0.9-4.1-2.7-5.9-5.3c-1.7,3.1-3.9,5.6-6.6,7.7l-3.1-4
			c4.1-3.2,6.9-7.4,8.3-12.7l4.5,0.8c-0.4,1.6-0.9,3.1-1.5,4.5c1.7,2.7,3.8,4.4,6,5.1c0.5,0.1,1,0.3,1.5,0.4V72.3H60.8z M95.7,48.8
			v16.7H67V48.8H95.7z M91,55.3v-2.4H71.8v2.4H91z M91,59.1H71.8v2.5H91V59.1z"/>
		<path fill="#757679" d="M117.9,90l-3.4-3.2c2.8-2.8,4.2-6.4,4.3-10.8v-8.6c-2.3,2.7-4.8,5.1-7.6,7.3l-3.1-4.1
			c5.2-4.1,9.3-8.8,12.3-14h-11V52h13.3c0.7-1.6,1.3-3.2,1.8-4.9l4.9,0.6c-0.5,1.5-0.9,2.9-1.4,4.3h21.9v4.6h-23.9
			c-0.7,1.4-1.5,2.7-2.2,4h20.8v24.7c0,2.8-1.6,4.3-4.8,4.3H135l-1.1-4.3c1.6,0.1,3,0.2,4.4,0.2c1.1,0,1.6-0.6,1.6-1.8v-3.4h-17.1
			C122.1,84.1,120.4,87.3,117.9,90z M123.3,75.7c0,0.2,0,0.3,0,0.5h16.7v-3.6h-16.6V75.7z M139.9,64.8h-16.6v3.7h16.6V64.8z"/>
		<path fill="#757679" d="M180.9,49.5c-0.5,0.5-1,1.1-1.5,1.6h11.9v3.7c-4.9,8.8-14.1,13.8-27.5,14.9l-2-4.4c3.7-0.2,7-0.7,9.9-1.4
			c-1.2-1.5-2.5-2.8-3.8-4l4.1-2c1.5,1.4,2.8,2.9,4.2,4.5c4-1.7,7.2-4.1,9.6-7.1h-11.9c-3.5,2.1-7.7,3.6-12.5,4.7l-2.8-4.4
			c8.1-1.5,14.1-4.3,18.1-8.4L180.9,49.5z M180.8,81c4.3-1.9,7.7-4.4,10.3-7.7H179c-3.9,1.8-8.6,3.3-13.9,4.4l-2.8-4.3
			c10-0.9,17.3-3.8,21.9-8.8l4.1,2.2c-0.7,0.7-1.5,1.5-2.3,2.2h11.4v3.7c-6.6,10.7-18.8,16.3-36.7,16.7l-2-4.6
			c6.7,0,12.6-0.7,17.6-2.2c-1.4-1.7-2.7-3.3-4.2-4.7l4.2-2.1C177.9,77.4,179.4,79.1,180.8,81z"/>
		<path fill="#757679" d="M218.5,49.7c-1,3.1-2.2,6-3.8,8.9V90H210V65.7c-1.3,1.6-2.7,3.3-4.2,4.9l-1.6-4.9c4.4-5.1,7.7-11.1,9.9-18
			L218.5,49.7z M222.7,59.4v25h24v4.4h-28.6V59.4H222.7z M232.3,50.6c0.1-1.1,0.3-2.2,0.4-3.2l5,0.7c-0.1,0.8-0.2,1.6-0.4,2.5h8.9
			v4.2h-9.7l-0.5,2.4h7.6V82h-18.6V57.2h6.1c0.2-0.8,0.3-1.7,0.5-2.4h-13.1v-4.2H232.3z M239.1,64.4v-3.1h-9.8v3.1H239.1z
			 M239.1,70.9v-3h-9.8v3H239.1z M239.1,74.5h-9.8v3.3h9.8V74.5z"/>
		<path fill="#757679" d="M255.8,62.4v-1.8c-0.4,0.5-0.8,0.9-1.1,1.4l-2.5-3.5c2.7-3,5.1-6.6,7.3-10.8h3.2c2.9,2.8,5.6,5.7,8.2,8.7
			l-0.2-1.7l4.2-0.7c-0.5-1.7-1-3.6-1.4-5.6l4.5-0.5c0.3,2,0.7,3.8,1.2,5.4l4.4-0.8c-0.9-0.9-1.9-1.9-3.2-3l3-1.9
			c1.6,1.3,2.8,2.5,3.6,3.5l-1.6,1.1l7.2-1.2l0.6,4l-4.9,0.9l2.9,2.2c-1.8,1.7-3.9,3.3-6.3,4.7c0,0,0.1,0,0.1,0.1
			c1.5,1,2.7,1.5,3.8,1.5c0.6-0.1,1.3-1.2,1.9-3.4l3.7,2.4c-1.5,3.6-3.2,5.4-5.2,5.4c-1.9,0-3.8-0.6-5.9-1.9
			c-0.9-0.6-1.8-1.3-2.6-2.1c-2.8,1.2-6,2.2-9.4,3l-1.8-3.9c3.1-0.6,6-1.4,8.5-2.3c-0.1-0.2-0.2-0.3-0.3-0.4
			c-0.6-0.9-1.1-1.9-1.6-3.2l-4.9,0.9l-0.3-2.1l-2.9,3.1c-0.4-0.5-0.7-0.8-1-1.2v3.8h-3.4v3.8h5.3v4.4h-5.3v12.1
			c2.1-0.5,4.1-1,6.1-1.6v4.5c-5,1.4-10.3,2.6-16,3.6l-1.1-4.6c2.2-0.3,4.4-0.6,6.6-1v-13h-5.3v-4.4h5.3v-3.8H255.8z M258.4,81
			l-3.5,0.9c-0.5-3.1-1.2-6-2.1-8.8l3.5-1.2C257.1,74.5,257.8,77.5,258.4,81z M266.7,58.1c-2.1-2.6-3.8-4.5-5.2-5.9
			c-1.1,2-2.4,4-3.8,5.9H266.7z M269.7,72.5c-0.5,3.1-1.3,5.8-2.2,8.1l-3.4-1.2c0.7-2.1,1.4-4.7,2-7.8L269.7,72.5z M293.7,74.5
			l-4.5,1l2.7,2c-1.9,2.1-4.1,4-6.7,5.6l0.1,0.1c1.3,1.1,2.5,1.6,3.4,1.6c0.8,0,1.6-1.6,2.3-4.8l3.8,2.5c-1.6,4.4-3.5,6.7-5.6,6.7
			c-1.8,0-3.6-0.7-5.5-2.1c-0.8-0.6-1.6-1.3-2.3-2.1c-2.8,1.3-6,2.4-9.4,3.3l-1.7-3.9c3.2-0.8,6-1.7,8.6-2.8
			c-0.2-0.3-0.3-0.5-0.4-0.7c-0.5-0.8-0.9-1.8-1.3-2.9l-6.4,1.4l-0.7-4.2l5.8-1.3c-0.5-2-1-4.2-1.4-6.6L279,67
			c0.4,2.3,0.7,4.4,1.2,6.1l3.2-0.7c-0.8-1.1-1.9-2.3-3.2-3.6l2.8-1.8c1.5,1.4,2.6,2.6,3.3,3.6l-2.2,1.6l8.9-2L293.7,74.5z
			 M287.7,55.8l-7.3,1.2c0.1,0.4,0.3,0.7,0.5,1.1c0.3,0.5,0.6,1.1,1,1.6C284.2,58.5,286.1,57.2,287.7,55.8z M281.8,78.2
			c0.3,0.6,0.6,1.1,0.9,1.7c2.1-1.2,3.9-2.6,5.5-4.2l-6.8,1.5L281.8,78.2z"/>
		<path fill="#757679" d="M312.3,84.6h-3.9v-2.7h-2.5v3.7h-3.9V50.4h10.4V84.6z M308.4,78V54.3h-2.5V78H308.4z M325.5,49v3.3
			c-0.7,4-1.7,8.3-2.7,12.8c1.6,4.1,2.5,7.6,2.7,10.6c0,2.3-0.4,3.9-1,4.9c-1,1.2-2.7,1.8-5,1.9l-1.2-3.7v11.2h-3.9V49H325.5z
			 M320.4,78.3c0.4-0.1,0.6-0.3,0.8-0.7c0.1-0.4,0.2-1.1,0.2-2c0-2.9-0.9-6.3-2.6-9.9c1.1-4.8,2-9,2.6-12.8h-3.2v25.2
			C319.2,78.2,319.9,78.3,320.4,78.3z M335.7,57.7v20.7h-9.2V57.7H335.7z M343.2,49.2v4.4h-1.6V85c0,3-1.6,4.5-4.8,4.5H332l-0.9-4
			c1.5,0.2,2.9,0.3,4.3,0.3c1.4,0,2.1-0.6,2.1-1.8V53.6h-10.4v-4.4H343.2z M332.3,60.9h-2.3v14.3h2.3V60.9z"/>
		<path fill="#757679" d="M378,54.2c1.8,1.6,2.7,3.8,2.7,6.6c0,2.3-0.6,4.2-1.7,5.6c-0.4,0.5-1.7,1.7-3.9,3.6
			c-0.8,0.6-1.4,1.4-1.8,2.2c-0.5,0.9-0.7,1.9-0.7,3V76h-5.3v-0.6c0-1.7,0.3-3.3,0.9-4.5c0.6-1.2,1.6-2.5,3.2-3.8
			c1.5-1.3,2.4-2.2,2.8-2.6c0.8-1,1.2-2.1,1.2-3.3c0-1.5-0.5-2.7-1.3-3.6c-0.9-0.9-2.1-1.3-3.7-1.3c-2,0-3.4,0.6-4.3,1.8
			c-0.8,1.1-1.1,2.6-1.1,4.5h-5.2c0-3.4,1-6,3-8c2-1.9,4.6-2.9,8-2.9C373.7,51.8,376.2,52.5,378,54.2z M372.5,79.2
			c0.6,0.6,1,1.5,1,2.5s-0.4,1.9-1,2.5c-0.7,0.6-1.6,1-2.6,1s-1.8-0.4-2.5-1c-0.7-0.6-1.1-1.5-1.1-2.5s0.3-1.8,1.1-2.5
			c0.6-0.6,1.5-1,2.5-1S371.8,78.5,372.5,79.2z"/>
	</g>
	<linearGradient id="SVGID_1_" gradientUnits="userSpaceOnUse" x1="58.3299" y1="104.3073" x2="393.2321" y2="104.3073">
		<stop  offset="0" style="stop-color:#B3B5B8"/>
		<stop  offset="1" style="stop-color:#A9ABAE"/>
	</linearGradient>
	<path fill="url(#SVGID_1_)" d="M58.4,102.9c111.7-1.6,223.4,0.5,334.8,6.3c0,0,0.1-2.9,0-2.9c-111.5-5.8-223.2-8-334.8-6.3
		C58.3,99.9,58.3,102.9,58.4,102.9L58.4,102.9z"/>
</g>
<g>
</g>
<g>
</g>
<g>
</g>
<g>
</g>
<g>
</g>
<g>
</g>
<g>
</g>
<g>
</g>
<g>
</g>
<g>
</g>
<g>
</g>
<g>
</g>
<g>
</g>
<g>
</g>
<g>
</g>
</svg>
