<?xml version="1.0" encoding="utf-8"?>
<!-- Generator: Adobe Illustrator 18.0.0, SVG Export Plug-In . SVG Version: 6.00 Build 0)  -->
<!DOCTYPE svg PUBLIC "-//W3C//DTD SVG 1.1//EN" "http://www.w3.org/Graphics/SVG/1.1/DTD/svg11.dtd">
<svg version="1.1" id="Layer_1" xmlns="http://www.w3.org/2000/svg" xmlns:xlink="http://www.w3.org/1999/xlink" x="0px" y="0px"
	 viewBox="0 0 943.8 596.1" enable-background="new 0 0 943.8 596.1" xml:space="preserve">
<g>
	<path fill="#F58258" d="M483.3,249.9c0,0-37.9-65.5-42.1-74.6l-230,34.3c0,0-15.1,7.7-28.3,42.6c-6.5,9.4-14.5,23.2-23.5,43.4
		c-8.1,18.2-4.1,58.8,10.7,72.2c5.3,4.8,12,8.7,20.8,10.7c0,0,24.2,1.8,57.4,3.1l23.8,1.3h-0.2c58.4,1.5,131.5-7.5,158.1-20.8
		l-4.4-69.3L483.3,249.9z"/>
	<path fill="#F58258" d="M415.6,270.7c0,0,17.7,51.4,14.3,91.5l-12.7-35.3L415.6,270.7z"/>
	<path fill="#D65B51" d="M378,224.6l-17.7,35.2c-3,6.8-11.8,8.7-17.3,3.8l-15.2-13.5l-13.6,20.2c-3.2,4.8-9.6,6.3-14.6,3.4
		l-40.1-23.3L378,224.6z"/>
	<g>
		<circle fill="#D65B51" cx="339.2" cy="300.3" r="28.2"/>
		<polygon fill="#EBE5C9" points="330.3,291.2 331.8,279.1 354.6,298.2 336.1,321.8 340.3,304.4 		"/>
	</g>
	<path fill="#A3A5A8" d="M434.6,180.1l47.9,69l15.1-13.2c8-7,11.3-18.1,8.2-28.2l-1.4-4.6c-0.9-2.9-2.2-5.6-4-8l-14.2-19.5
		c-3-4.1-7.2-7.3-12-9.2l0,0c-8.6-3.3-18.3-2-25.7,3.5L434.6,180.1z"/>
	<path fill="#ABADB0" d="M320.3,39.7l76.3-6.9c26.1-2.4,51.9,6.7,70.8,24.7l0,0c26.9,25.7,35.4,65.2,21.4,99.6l-6.3,15.6
		c-15,37-52.5,59.8-92.3,56.2l-20.4-1.9"/>
	<path fill="#939598" d="M381.9,206.7L381.9,206.7c30.4,2.8,59.1-14.7,70.6-43l4.8-11.9c11.6-28.6,3-61.6-21.8-80.9
		c-14.1-11-32-15.8-49.8-14.2l-43.3,3.9c-7.4,0.7-12.4,7.8-10.5,15l30.2,114.5C364.6,199.2,372.5,205.8,381.9,206.7z"/>
	
		<linearGradient id="SVGID_1_" gradientUnits="userSpaceOnUse" x1="-8716.5742" y1="1063.4811" x2="-8775.1699" y2="1221.955" gradientTransform="matrix(-0.9829 0.184 0.184 0.9829 -8473.0195 686.8636)">
		<stop  offset="0" style="stop-color:#BCBEC0"/>
		<stop  offset="1" style="stop-color:#A3A5A8"/>
	</linearGradient>
	<path fill="url(#SVGID_1_)" d="M219.5,238.6c49.7,23.7,104.1,24.1,153.1-1.9c23.6-12.5,43.4-33,42.9-61.2c-0.1-8-1.9-15.8-4.4-23.4
		c-6.7-20.4-4.1-41.6-9.8-62c-4.2-15-13.3-28.2-24.8-38.6c-22.5-20.3-52-26.7-85.1-28c-24.3-0.9-60.3,9-78.3,26.6"/>
	<path fill="#A1A3A6" d="M382.4,119.9c3.6,5.2,2.3,12.3-2.9,15.9s-12.3,2.2-15.9-3c-3.6-5.2-2.3-12.3,2.9-15.9
		S378.8,114.7,382.4,119.9z"/>
	<path fill="#67686B" d="M378.2,122c2,3.3,1,7.5-2.3,9.5c-3.3,2-7.5,0.9-9.5-2.4c-2-3.3-1-7.5,2.3-9.5S376.2,118.8,378.2,122z"/>
	<path fill="#A1A3A6" d="M301.6,133.9c3.7,5.3,2.4,12.5-2.9,16.2s-12.5,2.3-16.2-3s-2.4-12.5,2.9-16.2
		C290.7,127.3,297.9,128.6,301.6,133.9z"/>
	<path fill="#67686B" d="M299.5,136.6c2,3.4,1,7.7-2.4,9.8c-3.4,2-7.7,0.9-9.8-2.4c-2-3.4-1-7.7,2.4-9.8S297.5,133.3,299.5,136.6z"
		/>
	
		<linearGradient id="SVGID_2_" gradientUnits="userSpaceOnUse" x1="-8626.4922" y1="850.0532" x2="-8626.4922" y2="894.9283" gradientTransform="matrix(-0.9907 0.1358 0.1358 0.9907 -8496.6777 541.2508)">
		<stop  offset="0" style="stop-color:#BEC0C2"/>
		<stop  offset="1" style="stop-color:#B1B3B6"/>
	</linearGradient>
	<path fill="url(#SVGID_2_)" d="M224.8,47.7l-74.5,15.1c-25.7,4.7-48.2,20.4-61.5,42.9l0,0c-19,32-16.5,72.3,6.2,101.7l10.3,13.3
		c24.4,31.6,66.7,43.5,104,29.3l19.2-7.3"/>
	<path fill="#A1A3A6" d="M214.3,224.8L214.3,224.8c-28.1,12.1-60.8,4.4-80.5-18.9l-8.3-9.8c-19.9-23.5-22-57.6-4.5-83.7
		c10-14.8,25.5-25,42.9-29l42.3-9.7c7.2-1.7,14.2,3.6,14.7,11l6.9,118.2C228.4,212.4,223,221.1,214.3,224.8z"/>
	<path fill="#797A7D" d="M285.9,194.7c1.4-2.1,2.6-4,3.4-6c0.8-1.9,1.3-3.8,1.4-5.7c0-0.5,0.1-1,0.1-1.4c0-0.5,0-1,0-1.5
		c-0.1-1-0.2-2-0.4-3c-0.3-2.1-0.9-4.2-1.4-6.7l0-0.1c0-0.1,0-0.1,0.1-0.2c0.1,0,0.1,0,0.2,0.1l1.1,1.5l1,1.5c0.6,1,1.2,2.1,1.6,3.2
		c0.5,1.1,0.7,2.2,1,3.4c0.2,1.1,0.3,2.3,0.2,3.5c-0.2,2.3-1.1,4.6-2.4,6.6c-1.4,2-3.3,3.8-5.5,5.1c-0.1,0-0.2,0-0.2,0
		C285.9,194.8,285.9,194.8,285.9,194.7L285.9,194.7z"/>
	<g>
		<path fill="#797A7D" d="M299.9,116.6c-2.1,1.2-4,2.1-5.9,3c-1.8,1-3.6,1.9-5.2,2.9c-1.6,1-3.1,2.1-4.5,3.4
			c-1.4,1.3-2.6,2.9-4.1,4.9l0,0.1c0,0.1-0.1,0.1-0.2,0c0,0-0.1-0.1-0.1-0.1c0.4-2.2,1.1-4.4,2.4-6.2c1.3-1.9,3-3.4,4.8-4.6
			c1.9-1.2,4-2,6.1-2.6c2.1-0.6,4.3-1,6.6-1c0.1,0,0.1,0.1,0.1,0.1C300.1,116.4,300,116.5,299.9,116.6L299.9,116.6z"/>
	</g>
	<g>
		<path fill="#797A7D" d="M382.3,113.9c-2.3-0.9-4.2-1.8-6.1-2.6c-1.9-0.8-3.7-1.6-5.5-2.2c-1.8-0.6-3.6-1.1-5.5-1.3
			c-1.9-0.2-3.9-0.2-6.4-0.1l-0.1,0c-0.1,0-0.1-0.1-0.1-0.1c0-0.1,0-0.1,0.1-0.1c1.9-1.1,4.1-1.9,6.3-2.1c2.2-0.2,4.5,0.1,6.6,0.8
			c2.1,0.7,4.1,1.8,5.9,3.1c1.8,1.3,3.5,2.7,5,4.4c0.1,0.1,0,0.1,0,0.2C382.5,113.9,382.4,113.9,382.3,113.9L382.3,113.9z"/>
	</g>
	<g>
		<path fill="#CE5C45" d="M208.7,268.3c-0.9,1.8-1.9,3.4-2.8,5c-0.1,0.2-0.3,0.3-0.5,0.4c-0.2,0.1-0.3,0.2-0.5,0.4l-1,0.8
			c-0.7,0.5-1.3,1.1-2,1.6c-2.6,2.2-5.1,4.6-7.5,7c-2.4,2.5-4.7,5-6.9,7.7c-1.1,1.3-2.2,2.7-3.2,4c-1.7,0.9-3.3,1.9-5.1,2.7
			c0.2-2,0.7-3.9,1.2-5.8c1.1-1.4,2.2-2.8,3.4-4.2c2.3-2.8,4.7-5.4,7.2-8c2.5-2.6,5.1-5,7.9-7.4c1.4-1.2,2.8-2.3,4.2-3.4
			c0.9-0.3,1.9-0.5,2.9-0.7C206.7,268.5,207.6,268.4,208.7,268.3z"/>
	</g>
	
		<linearGradient id="SVGID_3_" gradientUnits="userSpaceOnUse" x1="-545.8862" y1="-267.0939" x2="-466.0871" y2="-267.0939" gradientTransform="matrix(0.6522 0.8261 0.7849 -0.6197 789.0212 542.196)">
		<stop  offset="0" style="stop-color:#BEC0C2"/>
		<stop  offset="1" style="stop-color:#B1B3B6"/>
	</linearGradient>
	<path fill="url(#SVGID_3_)" d="M206.8,269.8l50.5,67.2l14.6-13.7c7.8-7.3,10.6-18.5,7.1-28.5l-1.6-4.6c-1-2.8-2.4-5.5-4.3-7.8
		l-14.9-18.9c-3.2-4-7.5-7.1-12.3-8.7l0,0c-8.7-3-18.3-1.3-25.6,4.5L206.8,269.8z"/>
	<path fill="#797A7D" d="M329.8,177.5c0,0-14.1,14.1-32.5,6l-4.9-4l37.1-4.3L329.8,177.5z"/>
	<path fill="#E38A81" d="M939.7,529.3l-23.5-10.6c-6.7-3-5-10.6,2.6-11.9l17.5-2.9c7.6-1.3,9.2-8.8,2.6-11.9l-34.5-15.8
		c-5.8-2.6-5.4-9,0.6-11.3l20.6-7.8c6.1-2.3,6.3-8.9,0.3-11.4l-27.2-11.5c-5.7-2.4-5.9-8.6-0.3-11.2l22.5-10.3
		c5.6-2.5,5.5-8.7-0.1-11.1l-21.7-9.5c-5.2-2.3-5.8-7.7-1.2-10.6l41-25.8c6.2-3.9,2.5-11.4-5.5-11.4h-49.1h-4.6H64.2H50.9h-9.1
		c-8.1,0-11.7,7.7-5.3,11.5l6.4,3.8c5.5,3.3,3.8,9.8-2.9,11.3l-4.3,0.9c-6.7,1.5-8.4,8-2.9,11.3c5.6,3.3,3.7,10-3.1,11.3l-23.2,4.7
		c-7.3,1.5-8.7,8.9-2.2,11.8l23.5,10.6c6.7,3,5,10.6-2.6,11.9l-17.5,2.9c-7.6,1.3-9.2,8.8-2.6,11.9l34.5,15.8
		c5.8,2.6,5.4,9-0.6,11.3l-20.6,7.8c-6.1,2.3-6.3,8.9-0.3,11.4l27.2,11.5c5.7,2.4,5.9,8.6,0.3,11.2L23,527.7
		c-5.6,2.5-5.5,8.7,0.1,11.1l21.7,9.5c5.2,2.3,5.8,7.7,1.2,10.6L5,584.6c-6.2,3.9-2.5,11.4,5.5,11.4h40.4h13.3h815.4h4.6H902
		c8.1,0,11.7-7.7,5.3-11.5l-6.4-3.8c-5.5-3.3-3.8-9.8,2.9-11.3l4.3-0.9c6.7-1.5,8.4-8,2.9-11.3c-5.6-3.3-3.7-10,3.1-11.3l23.2-4.7
		C944.8,539.7,946.2,532.3,939.7,529.3z"/>
	<path fill="#D7807A" d="M39.4,435.6c69-0.6,138-0.9,207-1.1c68.8-0.2,137.6-0.1,206.4,0.1c38.9,0.1-2.5,0.3,36.3,0.6
		c8.6,0.1,4-7.4-2.3-7.5c-69.2-0.5-58.1-0.8-127.3-0.8c-69.3-0.1-138.6,0-207.9,0.4c-39.2,0.2-78.4,0.4-117.5,0.8
		c-3.1,0-4.1,2.4-2.9,4.2C32.7,434.6,36.3,435.7,39.4,435.6L39.4,435.6z"/>
	<path fill="#D7807A" d="M308.4,473.4c107.9,5,216.1,7.1,324.2,6.2c30.4-0.2,228.7-0.7,259.1-1.4c8.1-0.2,6.4-9.8-0.9-9.6
		c-108.1,2.5-384.2,2.1-492.2-1.3c-30.4-0.9-60.7-2.1-91-3.5C299.3,463.4,301.1,473,308.4,473.4L308.4,473.4z"/>
	<path fill="#D7807A" d="M467.9,505.2c70.5-1.4,309-1.6,379.5-0.7c19.8,0.3,39.6,0.6,59.4,1.1c8.2,0.2,8.6-8.8,0.1-9
		c-70.5-1.6-309-2.1-379.5-1.3c-19.8,0.2-39.6,0.5-59.4,0.9C459.8,496.4,459.4,505.4,467.9,505.2L467.9,505.2z"/>
	<path fill="#D7807A" d="M154.5,523.8c94.5,3.1,189,6.1,283.6,9.2c26.8,0.9,53.7,1.7,80.5,2.6c3.2,0.1,6.9-1.2,7.5-3.8
		c0.6-2.5-2.5-4.5-5.6-4.6c-94.5-3.1-189-6.1-283.6-9.2c-26.8-0.9-53.7-1.7-80.5-2.6c-3.2-0.1-6.9,1.2-7.5,3.8
		C148.4,521.6,151.4,523.7,154.5,523.8L154.5,523.8z"/>
	<path fill="#D7807A" d="M75.7,580.9c61.1-1.6,122.3-1.4,183.4,0.7c17.5,0.6,34.9,1.3,52.3,2.2c3.2,0.2,6.4-1.7,6.3-4.2
		c-0.1-2.7-3.6-4.3-6.8-4.5c-61-3.1-122.2-4.4-183.4-3.9c-17.5,0.2-34.9,0.5-52.4,0.9C66.7,572.4,67.6,581.1,75.7,580.9L75.7,580.9z
		"/>
	<path fill="#D7807A" d="M287,395.5c70.9-1.5,141.8-2.2,212.7-1.9c35.6,0.1,71.2,0.5,106.7,1c34.8,0.6,69.7,1.5,104.5,1.7
		c39.4,0.2,78.8-0.8,117.9-4.6c2.1-0.2,8.7-1.3,9.1-3.4c0.5-2.2-4.9-1.5-6.4-1.4c-68.9,6.8-138.7,3.9-208,2.7
		c-70.2-1.2-140.5-1.5-210.7-1c-39.8,0.3-79.5,0.9-119.3,1.7c-3.1,0.1-8.4,0.9-10.4,2.9C281.1,395.4,285.1,395.6,287,395.5
		L287,395.5z"/>
	<path fill="#B1B3B6" d="M580.8,225.4c-0.1,0.1-0.3,0.2-0.4,0.3c-2.2,1.3-21.8,12.8-34.1,24.1c-5.8,5.4-14.5,5.9-21,1.6
		c-0.3-0.2-0.5-0.4-0.8-0.6l-21-19c-9.8-8.9-24.9-8.5-34.3,0.9L452.1,250c-8,8.1-9.5,20.7-3.5,30.4c14.6,23.7,49.1,62.7,117.4,62.7
		h117.9c0,0-12.1,24.1-10.5,42.4c1.4,16.9,21.1,15.2,24,14.9c0.3,0,0.5,0,0.8,0h18c0.7,0,1.3-0.1,2-0.3c1.9-0.6,6.1-2.2,12.1-6.1
		c8.4-5.4,79.1-25.9,86.5-67.1c7.3-41.2-25.8-117.9-79.9-144.8C684.1,155.8,585.9,222,580.8,225.4z"/>
	<path fill="#F5C15D" d="M552,244.9l65.4,98.2h66.4l20.1-18.4l97.9-71.4c0,0-27.8-62.6-74.1-76.2l-131.2,29.5L552,244.9z"/>
	<g>
		<path fill="#797A7D" d="M513,251.6c-0.9,2.9-2.5,5.5-4.3,7.9c-0.9,1.2-1.9,2.3-2.9,3.5c-0.5,0.5-1.1,1.1-1.6,1.6
			c-0.6,0.5-1.1,1-1.7,1.5c-0.6,0.5-1.2,0.9-1.8,1.4c-0.6,0.4-1.2,0.9-1.9,1.3c-1.3,0.8-2.6,1.6-4,2.2c-2.7,1.3-5.6,2.2-8.6,2.7
			c2.6-1.5,5.2-2.8,7.7-4.4c2.5-1.5,4.8-3.2,7-5.1c2.3-1.8,4.4-3.8,6.4-5.9C509.3,256.2,511.2,254,513,251.6z"/>
	</g>
	<path fill="#2F8F6D" d="M587,246.3c0,0,8.4,22.9,46,34c36.9,10.9,108.2,9.6,150.3-58.8l-9.9-12.6L587,246.3z"/>
	<path fill="#9CA1A5" d="M742.1,171.7l31.2,37.2c0,0-74.4,104.6-186.4,28.7L742.1,171.7z"/>
	
		<linearGradient id="SVGID_4_" gradientUnits="userSpaceOnUse" x1="865.4927" y1="244.4978" x2="920.8399" y2="321.444" gradientTransform="matrix(0.9918 -0.1276 0.1276 0.9918 -215.0774 60.5468)">
		<stop  offset="0" style="stop-color:#C0C2C4"/>
		<stop  offset="1" style="stop-color:#B1B3B6"/>
	</linearGradient>
	<path fill="url(#SVGID_4_)" d="M757.8,137.2c-0.8-3.6-1.9-7.2-3.2-10.7c-5.1-13.7-13.6-26.8-24.3-36.9c-1.3-1.2-2.6-2.3-4.1-3.5
		l0,0c-3.4-2.7-7.1-5.3-10.4-8.2c-2.5-1.7-5.2-3.3-7.9-4.8l-1.6-19.5c-0.6-6.9-2.8-13.5-6.5-19.3l-15.3-23.9
		c-1.6-5.5-6.3-9.5-12-10.3c-7.9-1.1-15.2,4.4-16.4,12.2c-2.2,15.3,6.1,27,12.4,33.4c3.8,3.8,6.5,8.6,7.8,13.7
		c-7.8-2.6-13.1-4-13.1-4c-14.2-1-23.8,1.1-23.8,1.1c-12.1,1.3-24,5-35,11.4c-16.3,9.5-29.8,24.4-38.6,41.1
		c-10.2,19.5-22.9,38.6-39.1,53.7c-1.7,1.6-3.2,3.4-4.6,5.3c-10,0.6-16.2,11.3-15.7,21.3c0.2,4.4,1.8,7.5,4.1,9.9
		c3.1,3.2,5.5,6.9,6.8,11.2c2.8,9.2,7.9,17.8,14.8,24.5c16.3,15.9,43.3,24.2,65.6,24.9c14.9,0.5,29.9-1.3,44.5-4.1
		c13.9-2.7,27.7-6.4,41.2-10.6C782.3,214.1,757.8,137.2,757.8,137.2z"/>
	<g>
		<path fill="#797A7D" d="M535,180.9c1.5,0.5,2.9,1.6,3.9,2.9c1.1,1.3,1.8,2.9,2.2,4.5c0.4,1.6,0.7,3.4,0.3,5
			c-0.2,0.8-0.5,1.6-0.8,2.4c-0.4,0.7-0.8,1.5-1.4,2.1c0,0.1-0.1,0.1-0.2,0c0,0,0-0.1,0-0.1l0,0c-0.1-0.9-0.1-1.7-0.1-2.4
			c0-0.8,0-1.5,0-2.3c0-0.4,0-0.7,0-1.1c0-0.4,0.1-0.7,0.1-1.1l0.1-1.1l-0.1-1.1c-0.2-1.4-0.5-2.9-1.3-4.2c-0.7-1.3-1.7-2.5-3-3.3
			l0,0c-0.1,0-0.1-0.1,0-0.2C534.9,180.9,534.9,180.9,535,180.9z"/>
	</g>
	<path fill="#808285" d="M517.3,197.3c-0.1-0.7,0.3-1.5,1.3-2.5c1.8-1.6,7-3.4,7.9,0.8c0.7,3.2-0.5,4.5-2.8,4.6
		C521.8,200.4,517.6,199.4,517.3,197.3z"/>
	<path fill="#9A9FA3" d="M590.5,154.6c1.5,6.4-2.4,12.8-8.9,14.4c-6.4,1.5-12.8-2.4-14.4-8.9c-1.5-6.4,2.6-11.8,9-13.4
		C582.7,145.2,589,148.2,590.5,154.6z"/>
	<circle fill="#6B6C6F" cx="578.5" cy="156.6" r="7.6"/>
	<path fill="#FFFFFF" d="M547.7,139.9l-70-60.2c-2.3-2.1-6.3-0.1-5.7,2.8c3.9,17.8,27.6,63.4,51,86.5
		C523,168.9,530.7,160,547.7,139.9z"/>
	<path fill="none" d="M716.5,78.6c3.3,2.9,7.1,5.6,10.4,8.2C723.9,83.9,720.3,81.1,716.5,78.6z"/>
	<polygon fill="#91929D" points="727,86.8 727,86.8 727,86.8 	"/>
	<rect x="643.6" y="279.2" fill="#2F8F6D" width="23.9" height="63.9"/>
	<path fill="#797A7D" d="M522,221.6c0,0,9.1-17.1,32.8-14.7c2.8,0.3,3.1,4.2,0.5,5L522,221.6z"/>
	<g>
		<path fill="#797A7D" d="M555.5,195.1c0.3,2.1,0.6,4,0.9,5.9c0.1,0.5,0.2,0.9,0.3,1.4c0.1,0.5,0.2,0.9,0.3,1.3
			c0.2,0.9,0.5,1.7,0.8,2.6l0.5,1.2c0.2,0.4,0.4,0.8,0.6,1.2c0.2,0.4,0.4,0.8,0.6,1.1c0.3,0.4,0.4,0.8,0.7,1.1
			c0.3,0.4,0.6,0.7,0.8,1.1l1,1c0.2,0.2,0.3,0.4,0.5,0.5c0.2,0.2,0.4,0.3,0.6,0.5c0.4,0.3,0.8,0.7,1.1,1l-0.1,0.2l-1.4-0.6l-0.7-0.3
			c-0.2-0.1-0.4-0.3-0.6-0.4l-1.3-0.8l-1.1-1c-1.4-1.4-2.5-3.2-3.2-5.1c-0.6-1.9-1-3.9-1-5.9c-0.1-2,0-4,0.4-6L555.5,195.1z"/>
	</g>
	<path fill="#91969A" d="M561.1,152.2c0,0,3.4,8.4,14.5,1.4c10-6.3,11.8-10.7,11.8-10.7"/>
	<path fill="#FFFFFF" d="M365.7,142c4.9,0.4,19.1,0.9,28.1-4.8c0.9-0.6,2,0.5,1.5,1.4c-2.8,5.4-9.8,14.6-25.1,17
		c-0.5,0.1-1-0.2-1.2-0.7l-4.4-11.4C364.3,142.7,364.9,141.9,365.7,142z"/>
	
		<linearGradient id="SVGID_5_" gradientUnits="userSpaceOnUse" x1="-4579.7441" y1="4253.1563" x2="-4794.3208" y2="4253.1563" gradientTransform="matrix(1.635437e-002 -0.9999 0.9999 1.635437e-002 -3797.0203 -4498.3916)">
		<stop  offset="0" style="stop-color:#C7C8CA"/>
		<stop  offset="1" style="stop-color:#B1B3B6"/>
	</linearGradient>
	<path fill="url(#SVGID_5_)" d="M353.6,126.6c4.3,2.2,8,5.4,11.1,9c2.6,3,7.1,5.1,10,7.8c27.4,25.7,58.3,47.4,72.5,83.9
		c12.4,32.1,8.5,69.8-9.8,99c-18.3,29.1-50.3,49.1-84.4,53.2c-14.6,1.8-29.7,0.8-43.8,5.5c-1.3,0.4-2.8,0.6-4.1,0.3
		c-4.8-1.2-4.4-6.4-2.4-9.8c1.6-2.8,4-5.3,4.5-8.4c0.7-4.1-1.7-8-3-12c-1.6-4.8-0.2-11.9,6.4-10.6c1,0.2,1.9,0.6,2.7,1.2
		c11.9,7.5,27,6.6,40.4,3c16.3-4.4,31.9-12.7,43.2-25.2s18.2-29.5,16.9-46.4c-1.8-22.6-17.5-41.7-35.1-55.9
		c-17.6-14.2-37.8-25.1-54.4-40.5c-7.4-6.9-14.2-15.1-15.8-25c-1.9-11.8,4.6-24.1,14.8-29.9c4.4-2.5,9.6-4.2,14.8-4.3
		C344.1,121.2,348.4,123.9,353.6,126.6z"/>
	<path fill="#A9ABAE" d="M342.2,156.8c3-4.6,10-13.4,22.5-19.4c0.9-0.4,0.6-1.8-0.5-1.8c-7.8,0.5-22.8,3.7-23.8,20.6
		C340.4,157.2,341.6,157.6,342.2,156.8z"/>
	<path fill="#A9ABAE" d="M354.3,167.9c2.9-4.5,9.9-13.4,22.4-19.3c0.9-0.4,0.6-1.8-0.4-1.8c-7.8,0.5-22.6,3.7-23.6,20.4
		C352.6,168.2,353.8,168.7,354.3,167.9z"/>
	<path fill="#A9ABAE" d="M366.2,179.4c2.9-4.5,9.9-13.4,22.4-19.3c0.9-0.4,0.6-1.8-0.4-1.8c-7.8,0.5-22.6,3.7-23.6,20.4
		C364.5,179.8,365.7,180.2,366.2,179.4z"/>
	<path fill="#FFFFFF" d="M304.3,155.5c4.9,0.4,19.2,0.8,28.3-5c0.9-0.6,2,0.5,1.5,1.4c-2.8,5.4-9.8,14.7-25.2,17.2
		c-0.5,0.1-1-0.2-1.2-0.7l-4.5-11.5C302.9,156.3,303.5,155.5,304.3,155.5z"/>
</g>
<g>
</g>
<g>
</g>
<g>
</g>
<g>
</g>
<g>
</g>
<g>
</g>
<g>
</g>
<g>
</g>
<g>
</g>
<g>
</g>
<g>
</g>
<g>
</g>
<g>
</g>
<g>
</g>
<g>
</g>
</svg>
