<?xml version="1.0" encoding="utf-8"?>
<!-- Generator: Adobe Illustrator 18.0.0, SVG Export Plug-In . SVG Version: 6.00 Build 0)  -->
<!DOCTYPE svg PUBLIC "-//W3C//DTD SVG 1.1//EN" "http://www.w3.org/Graphics/SVG/1.1/DTD/svg11.dtd">
<svg version="1.1" id="Layer_1" xmlns="http://www.w3.org/2000/svg" xmlns:xlink="http://www.w3.org/1999/xlink" x="0px" y="0px"
	 viewBox="0 0 486 276.7" enable-background="new 0 0 486 276.7" xml:space="preserve">
<g>
	<path fill="#D65B51" d="M389.6,244.4H96.4C43.4,244.4,0,201,0,148l0-51.6C0,43.4,43.4,0,96.4,0l293.2,0c53,0,96.4,43.4,96.4,96.4
		V148C486,201,442.6,244.4,389.6,244.4z"/>
	<g>
		<g>
			<path fill="#FFFFFF" d="M81,83.1l-1.4-4.5c4.1-4.5,7.2-9.8,9.2-16l3.9,1.8c-1,3.1-2.4,6.1-4.1,8.9v26.6h-4.2V79.3
				C83.3,80.5,82.2,81.8,81,83.1z M93.4,79.3l-3.6-2.2c3-4.4,5-9.2,6.2-14.2l3.9,0.8c-0.3,1.2-0.7,2.4-1,3.6h16.7v2.7
				c-0.6,2.4-1.4,4.8-2.3,7.1l-4-1.2c0.8-1.4,1.4-2.9,2-4.7H97.5C96.3,74.3,95,76.9,93.4,79.3z M99.2,80.3
				c-1.4,5.5-3.2,10.3-5.4,14.4l-3.9-1.4c2.1-3.7,3.9-8.4,5.5-14L99.2,80.3z M96.9,99.6L96,95.7c1.6,0.2,3.2,0.3,4.6,0.3
				c1,0,1.4-0.5,1.4-1.5V74.1h4v21.4c0,2.8-1.4,4.2-4.1,4.2H96.9z M116.7,93.7l-3.7,1.6c-1.4-5.8-3.1-10.9-4.9-15.3l3.7-1.2
				C113.7,83.5,115.3,88.4,116.7,93.7z"/>
			<path fill="#FFFFFF" d="M133.6,68.8v-5.9h4.2v19.7c-0.1,7.9-2.3,13.7-6.6,17.4l-3.2-2.8c2.2-1.8,3.7-4.2,4.6-7.2
				c-3.1,0.7-6.3,1.4-9.6,2l-1-4.2c3.9-0.4,7.8-1,11.5-1.8c0.1-1.1,0.2-2.2,0.2-3.3v-0.8h-9.7v-4h9.7v-5H123v-4H133.6z M147.2,62.9
				v5.9h10.6v4h-10.6v5h9.7v4h-9.7v5.2h11.2v4h-11.2v9H143v-37H147.2z"/>
			<path fill="#FFFFFF" d="M200.3,64.1v3.8h-11.4v2.6h9v10.8h-16.3l-1.4,2.5h20.6v3.8h-8.3c-0.8,2-2,3.7-3.7,5.2
				c3.8,1.1,7.6,2.4,11.5,3.9l-2.6,3.4c-4.2-1.8-8.4-3.4-12.6-4.7c-3.8,1.9-9.9,3.4-18.4,4.6l-1.6-3.8c6.1-0.6,10.8-1.5,14.4-2.6
				c-3-0.9-6-1.6-8.9-2.3c0.9-1.3,1.7-2.5,2.5-3.8h-9v-3.8h11.4c0.5-0.9,1-1.7,1.5-2.5h-10V70.5h9v-2.6h-11.4v-3.8H200.3z M176,74.1
				h-5v3.8h5V74.1z M188.2,87.7h-10.3c-0.5,0.8-1,1.4-1.4,2.1c2.6,0.5,5.2,1.2,7.9,1.9C186.1,90.5,187.4,89.2,188.2,87.7z M185,67.9
				h-5v2.6h5V67.9z M185,74.1h-5v3.8h5V74.1z M193.9,74.1h-5v3.8h5V74.1z"/>
			<path fill="#FFFFFF" d="M224.9,85.3c-2.1,0.7-4.3,1.4-6.6,2v8.1c0,2.6-1.4,4-4.2,4h-4.5l-0.9-4c1.4,0.2,2.7,0.2,4,0.2
				c0.9,0,1.4-0.5,1.4-1.4v-6c-2.3,0.5-4.7,0.9-7.2,1.3l-0.6-4.2c2.7-0.4,5.3-0.9,7.8-1.4v-6.9h-7.8v-4h7.8v-3.7
				c-1.9,0.4-3.9,0.7-6,1l-0.9-4c5.5-0.6,10.5-1.8,14.8-3.5l1.4,3.9c-1.6,0.6-3.4,1.1-5.2,1.6v4.7h8.2c-0.2-3.1-0.3-6.5-0.3-10.2
				h4.2c0,3.8,0.2,7.2,0.4,10.2h12v4H231c0.2,2.6,0.6,4.7,1,6.4c0.2,0.6,0.3,1.2,0.5,1.8c1.6-2,3.1-4.3,4.3-6.8l3.6,1.9
				c-1.8,3.6-3.9,6.8-6.3,9.4c0.4,1,0.8,1.8,1.3,2.4c1.1,1.8,2,2.6,2.6,2.6c0.4,0,0.9-2,1.4-6l3.7,2c-1,5.7-2.5,8.6-4.5,8.6
				c-1.8,0-3.6-1.2-5.5-3.6c-0.7-0.9-1.4-2-2-3.2c-2.7,2.2-5.8,4-9.1,5.3l-2.3-3.6c3.7-1.4,6.9-3.3,9.7-5.8c-0.4-1.3-0.8-2.6-1.2-4
				c-0.6-2.2-1-4.7-1.4-7.6h-8.6V83c2.3-0.6,4.6-1.2,6.6-2V85.3z M241.9,68.6l-3,3c-1.6-1.8-4-3.6-7-5.6l2.8-2.7
				C237.5,65.1,239.9,66.8,241.9,68.6z"/>
			<path fill="#FFFFFF" d="M251,99.6l-3.2-2.9c2.4-3.4,3.6-7.6,3.6-12.8V64.1h31v30.2c0,3.1-1.6,4.6-4.8,4.6h-4.6l-1.1-4.1
				c1.6,0.2,3,0.2,4.4,0.2c1.2,0,1.8-0.8,1.8-2.3v-5.6h-9.5v11.3h-4.2V87.2h-9C255,92.2,253.5,96.4,251,99.6z M255.7,68.2v5.6h8.8
				v-5.6H255.7z M255.7,83.4h8.8v-5.8h-8.8V83.4z M278.2,68.2h-9.5v5.6h9.5V68.2z M278.2,77.7h-9.5v5.8h9.5V77.7z"/>
			<path fill="#FFFFFF" d="M293.1,99.7l-2.8-2.5c1.2-2.8,1.8-6.3,1.8-10.6V75.3l-0.1,0.1l-2.4-2.9c2.3-2.3,4.3-5.6,6-9.8l3.7,0.8
				c-0.3,0.7-0.6,1.3-0.8,2h6.2v2.8c-0.7,1.4-1.4,2.6-2.2,3.6h3.4v7.7c2-1.5,3.6-3.3,4.8-5.4h-3.5V64.1h18.3v10.3h-11.1
				c-0.3,0.7-0.7,1.4-1.1,2.2h12.8c0,10.6-0.2,17.2-0.5,19.6c-0.3,2.4-1.8,3.7-4.6,3.7c-0.8,0-2.1-0.1-4-0.2l-0.8-3.2
				c1.3,0.1,2.4,0.1,3.4,0.2c-0.2-0.6-0.3-1-0.5-1.5c-2.6,0.7-6.6,1.3-12,1.9l-0.5-3.2c2.2-0.1,4.3-0.3,6.2-0.4v-3.1h-5.2V83
				l-0.6,0.4l-1.1-1.8v14.3c0,2.1-1.2,3.2-3.5,3.2H301l-0.8-3.2c0.4,0.1,0.8,0.2,1.2,0.2c0.8,0,1.2-0.4,1.2-1.3v-4.4h-7.2
				C295.1,94,294.3,97.2,293.1,99.7z M300.4,68.9h-3.6c-0.6,1.1-1.3,2.2-2,3.1h3.6C299.1,71.1,299.7,70.1,300.4,68.9z M295.6,75.6
				v3.7h1.9v-3.7H295.6z M295.6,86.7h1.9v-4h-1.9V86.7z M302.6,75.6h-2v3.7h2V75.6z M302.6,82.7h-2v4h2V82.7z M322.2,94.5
				c0.2-1.4,0.3-6.2,0.4-14.6h-11.7c-0.8,0.9-1.7,1.7-2.7,2.5h4.6v-1.7h3.3v1.7h5.2v7.8h-5.2V93c0.7-0.1,1.4-0.2,2.1-0.3l-0.6-1.5
				l2.4-0.8c0.7,1.5,1.4,3.2,2,5.2C322.1,95.3,322.2,94.9,322.2,94.5z M312.8,85.2h-2.4v2.4h2.4V85.2z M312.4,67.3h-1.9v3.9h1.9
				V67.3z M317.4,67.3h-2.1v3.9h2.1V67.3z M318.5,85.2h-2.4v2.4h2.4V85.2z M322.2,67.3h-1.9v3.9h1.9V67.3z"/>
			<path fill="#FFFFFF" d="M333.5,99.5l-0.9-4c1,0.2,2,0.2,3,0.2c0.9,0,1.3-0.5,1.3-1.4v-8.1c-1.4,0.5-2.8,1-4.2,1.4l-1-4.2
				c1.8-0.4,3.5-0.9,5.2-1.5v-7.9h-4.4v-4h4.4v-7.2h4.2v7.2h2.9v4h-2.9v6.2c1-0.5,2-1,3-1.5v4.2c-1,0.5-2,1-3,1.4v10.9
				c0,2.7-1.4,4.1-4.1,4.1H333.5z M345.9,87.5v-3.9h21.4v3.9h-8.6v7.3h10v4h-24.5v-4h10.3v-7.3H345.9z M356,71.5
				c-1,5.8-4,9.6-8.9,11.4l-2.1-3.3c4.1-1.4,6.6-4.4,7.4-9L356,71.5z M349.2,70.6v4.6h-3.9v-8.3h9.3c-0.5-1.4-1.1-2.6-1.8-3.8
				l4.3-0.7c0.6,1.4,1.2,2.8,1.7,4.5h9.2v8.3h-3.9v-4.6h-2.7V77c0,0.6,0.4,0.9,1.2,0.9h5.5v3.6h-7.4c-2,0-3-1-3-2.9v-8H349.2z"/>
			<path fill="#FFFFFF" d="M394.7,90.5c0.6,0.6,0.9,1.3,0.9,2.2s-0.3,1.6-0.9,2.2c-0.6,0.6-1.4,0.8-2.2,0.8c-0.9,0-1.6-0.3-2.2-0.9
				c-0.6-0.6-0.9-1.3-0.9-2.2s0.3-1.6,0.9-2.2c0.6-0.6,1.3-0.8,2.2-0.8C393.3,89.7,394.1,90,394.7,90.5z M395.2,67.2l-1,20.4h-3.4
				l-1-20.4H395.2z"/>
			<path fill="#FFFFFF" d="M81,143.1l-1.4-4.5c4.1-4.5,7.2-9.8,9.2-16l3.9,1.8c-1,3.1-2.4,6.1-4.1,8.9v26.6h-4.2v-20.6
				C83.3,140.5,82.2,141.8,81,143.1z M93.4,139.3l-3.6-2.2c3-4.4,5-9.2,6.2-14.2l3.9,0.8c-0.3,1.2-0.7,2.4-1,3.6h16.7v2.7
				c-0.6,2.4-1.4,4.8-2.3,7.1l-4-1.2c0.8-1.4,1.4-2.9,2-4.7H97.5C96.3,134.3,95,136.9,93.4,139.3z M99.2,140.3
				c-1.4,5.5-3.2,10.3-5.4,14.4l-3.9-1.4c2.1-3.7,3.9-8.4,5.5-14L99.2,140.3z M96.9,159.6l-0.9-3.9c1.6,0.2,3.2,0.3,4.6,0.3
				c1,0,1.4-0.5,1.4-1.5v-20.4h4v21.4c0,2.8-1.4,4.2-4.1,4.2H96.9z M116.7,153.7l-3.7,1.6c-1.4-5.8-3.1-10.9-4.9-15.3l3.7-1.2
				C113.7,143.5,115.3,148.4,116.7,153.7z"/>
			<path fill="#FFFFFF" d="M133.6,128.8v-5.9h4.2v19.7c-0.1,7.9-2.3,13.7-6.6,17.4l-3.2-2.8c2.2-1.8,3.7-4.2,4.6-7.2
				c-3.1,0.7-6.3,1.4-9.6,2l-1-4.2c3.9-0.4,7.8-1,11.5-1.8c0.1-1.1,0.2-2.2,0.2-3.3v-0.8h-9.7v-4h9.7v-5H123v-4H133.6z M147.2,122.9
				v5.9h10.6v4h-10.6v5h9.7v4h-9.7v5.2h11.2v4h-11.2v9H143v-37H147.2z"/>
			<path fill="#FFFFFF" d="M200.3,124.1v3.8h-11.4v2.6h9v10.8h-16.3l-1.4,2.5h20.6v3.8h-8.3c-0.8,2-2,3.7-3.7,5.2
				c3.8,1.1,7.6,2.4,11.5,3.9l-2.6,3.4c-4.2-1.8-8.4-3.4-12.6-4.7c-3.8,1.9-9.9,3.4-18.4,4.6l-1.6-3.8c6.1-0.6,10.8-1.5,14.4-2.6
				c-3-0.9-6-1.6-8.9-2.3c0.9-1.3,1.7-2.5,2.5-3.8h-9v-3.8h11.4c0.5-0.9,1-1.7,1.5-2.5h-10v-10.8h9v-2.6h-11.4v-3.8H200.3z
				 M176,134.1h-5v3.8h5V134.1z M188.2,147.7h-10.3c-0.5,0.8-1,1.4-1.4,2.1c2.6,0.5,5.2,1.2,7.9,1.9
				C186.1,150.5,187.4,149.2,188.2,147.7z M185,127.9h-5v2.6h5V127.9z M185,134.1h-5v3.8h5V134.1z M193.9,134.1h-5v3.8h5V134.1z"/>
			<path fill="#FFFFFF" d="M224.9,145.3c-2.1,0.7-4.3,1.4-6.6,2v8.1c0,2.6-1.4,4-4.2,4h-4.5l-0.9-4c1.4,0.2,2.7,0.2,4,0.2
				c0.9,0,1.4-0.5,1.4-1.4v-6c-2.3,0.5-4.7,0.9-7.2,1.3l-0.6-4.2c2.7-0.4,5.3-0.9,7.8-1.4v-6.9h-7.8v-4h7.8v-3.7
				c-1.9,0.4-3.9,0.7-6,1l-0.9-4c5.5-0.6,10.5-1.8,14.8-3.5l1.4,3.9c-1.6,0.6-3.4,1.1-5.2,1.6v4.7h8.2c-0.2-3.1-0.3-6.5-0.3-10.2
				h4.2c0,3.8,0.2,7.2,0.4,10.2h12v4H231c0.2,2.6,0.6,4.7,1,6.4c0.2,0.6,0.3,1.2,0.5,1.8c1.6-2,3.1-4.3,4.3-6.8l3.6,1.9
				c-1.8,3.6-3.9,6.8-6.3,9.4c0.4,1,0.8,1.8,1.3,2.4c1.1,1.8,2,2.6,2.6,2.6c0.4,0,0.9-2,1.4-6l3.7,2c-1,5.7-2.5,8.6-4.5,8.6
				c-1.8,0-3.6-1.2-5.5-3.6c-0.7-0.9-1.4-2-2-3.2c-2.7,2.2-5.8,4-9.1,5.3l-2.3-3.6c3.7-1.4,6.9-3.3,9.7-5.8c-0.4-1.3-0.8-2.6-1.2-4
				c-0.6-2.2-1-4.7-1.4-7.6h-8.6v5.9c2.3-0.6,4.6-1.2,6.6-2V145.3z M241.9,128.6l-3,3c-1.6-1.8-4-3.6-7-5.6l2.8-2.7
				C237.5,125.1,239.9,126.8,241.9,128.6z"/>
			<path fill="#FFFFFF" d="M251,159.6l-3.2-2.9c2.4-3.4,3.6-7.6,3.6-12.8v-19.8h31v30.2c0,3.1-1.6,4.6-4.8,4.6h-4.6l-1.1-4.1
				c1.6,0.2,3,0.2,4.4,0.2c1.2,0,1.8-0.8,1.8-2.3v-5.6h-9.5v11.3h-4.2v-11.3h-9C255,152.2,253.5,156.4,251,159.6z M255.7,128.2v5.6
				h8.8v-5.6H255.7z M255.7,143.4h8.8v-5.8h-8.8V143.4z M278.2,128.2h-9.5v5.6h9.5V128.2z M278.2,137.7h-9.5v5.8h9.5V137.7z"/>
			<path fill="#FFFFFF" d="M293.1,159.7l-2.8-2.5c1.2-2.8,1.8-6.3,1.8-10.6v-11.4l-0.1,0.1l-2.4-2.9c2.3-2.3,4.3-5.6,6-9.8l3.7,0.8
				c-0.3,0.7-0.6,1.3-0.8,2h6.2v2.8c-0.7,1.4-1.4,2.6-2.2,3.6h3.4v7.7c2-1.5,3.6-3.3,4.8-5.4h-3.5v-10.3h18.3v10.3h-11.1
				c-0.3,0.7-0.7,1.4-1.1,2.2h12.8c0,10.6-0.2,17.2-0.5,19.6c-0.3,2.4-1.8,3.7-4.6,3.7c-0.8,0-2.1-0.1-4-0.2l-0.8-3.2
				c1.3,0.1,2.4,0.1,3.4,0.2c-0.2-0.6-0.3-1-0.5-1.5c-2.6,0.7-6.6,1.3-12,1.9l-0.5-3.2c2.2-0.1,4.3-0.3,6.2-0.4v-3.1h-5.2V143
				l-0.6,0.4l-1.1-1.8v14.3c0,2.1-1.2,3.2-3.5,3.2H301l-0.8-3.2c0.4,0.1,0.8,0.2,1.2,0.2c0.8,0,1.2-0.4,1.2-1.3v-4.4h-7.2
				C295.1,154,294.3,157.2,293.1,159.7z M300.4,128.9h-3.6c-0.6,1.1-1.3,2.2-2,3.1h3.6C299.1,131.1,299.7,130.1,300.4,128.9z
				 M295.6,135.6v3.7h1.9v-3.7H295.6z M295.6,146.7h1.9v-4h-1.9V146.7z M302.6,135.6h-2v3.7h2V135.6z M302.6,142.7h-2v4h2V142.7z
				 M322.2,154.5c0.2-1.4,0.3-6.2,0.4-14.6h-11.7c-0.8,0.9-1.7,1.7-2.7,2.5h4.6v-1.7h3.3v1.7h5.2v7.8h-5.2v2.8
				c0.7-0.1,1.4-0.2,2.1-0.3l-0.6-1.5l2.4-0.8c0.7,1.5,1.4,3.2,2,5.2C322.1,155.3,322.2,154.9,322.2,154.5z M312.8,145.2h-2.4v2.4
				h2.4V145.2z M312.4,127.3h-1.9v3.9h1.9V127.3z M317.4,127.3h-2.1v3.9h2.1V127.3z M318.5,145.2h-2.4v2.4h2.4V145.2z M322.2,127.3
				h-1.9v3.9h1.9V127.3z"/>
			<path fill="#FFFFFF" d="M333.5,159.5l-0.9-4c1,0.2,2,0.2,3,0.2c0.9,0,1.3-0.5,1.3-1.4v-8.1c-1.4,0.5-2.8,1-4.2,1.4l-1-4.2
				c1.8-0.4,3.5-0.9,5.2-1.5v-7.9h-4.4v-4h4.4v-7.2h4.2v7.2h2.9v4h-2.9v6.2c1-0.5,2-1,3-1.5v4.2c-1,0.5-2,1-3,1.4v10.9
				c0,2.7-1.4,4.1-4.1,4.1H333.5z M345.9,147.5v-3.9h21.4v3.9h-8.6v7.3h10v4h-24.5v-4h10.3v-7.3H345.9z M356,131.5
				c-1,5.8-4,9.6-8.9,11.4l-2.1-3.3c4.1-1.4,6.6-4.4,7.4-9L356,131.5z M349.2,130.6v4.6h-3.9v-8.3h9.3c-0.5-1.4-1.1-2.6-1.8-3.8
				l4.3-0.7c0.6,1.4,1.2,2.8,1.7,4.5h9.2v8.3h-3.9v-4.6h-2.7v6.4c0,0.6,0.4,0.9,1.2,0.9h5.5v3.6h-7.4c-2,0-3-1-3-2.9v-8H349.2z"/>
			<path fill="#FFFFFF" d="M394.7,150.5c0.6,0.6,0.9,1.3,0.9,2.2s-0.3,1.6-0.9,2.2c-0.6,0.6-1.4,0.8-2.2,0.8c-0.9,0-1.6-0.3-2.2-0.9
				c-0.6-0.6-0.9-1.3-0.9-2.2s0.3-1.6,0.9-2.2c0.6-0.6,1.3-0.8,2.2-0.8C393.3,149.7,394.1,150,394.7,150.5z M395.2,127.2l-1,20.4
				h-3.4l-1-20.4H395.2z"/>
		</g>
	</g>
	<path fill="#FFFFFF" d="M75.2,110.3c109.1-1.4,218.3,0.4,327.3,5.5c0,0,0.1-2.5,0-2.5c-108.9-5-218.1-6.9-327.3-5.5
		C75.2,107.8,75.2,110.3,75.2,110.3L75.2,110.3z"/>
	<path fill="#FFFFFF" d="M75.3,167c108.9,3.9,218.1,5,327.3,3.1c0.1,0,0-2.5,0-2.5c-109.1,1.9-218.3,0.9-327.3-3.1
		C75.3,164.5,75.1,167,75.3,167L75.3,167z"/>
	<path fill="#D65B51" d="M221.6,232.6c0,0,13,31.2,65.5,44.1c0,0-9.5-27.2,0-49.2L221.6,232.6z"/>
</g>
<g>
</g>
<g>
</g>
<g>
</g>
<g>
</g>
<g>
</g>
<g>
</g>
<g>
</g>
<g>
</g>
<g>
</g>
<g>
</g>
<g>
</g>
<g>
</g>
<g>
</g>
<g>
</g>
<g>
</g>
</svg>
