<svg xmlns="http://www.w3.org/2000/svg" viewBox="0 0 230 230"><title>zar-bg</title><path d="M178.92,57.73c-1.5-3.89-4.76-6.82-9.68-8.7a32.62,32.62,0,0,0-11.46-2.19,23.38,23.38,0,0,0-15.44,5.42,60.16,60.16,0,0,0-25.21-5.56h-.29q-1.25-.05-2.52-.05a60.62,60.62,0,0,0-25.08,5.48,24.27,24.27,0,0,0-16-5.46,33.5,33.5,0,0,0-8.88,1.24c-5.07,1.42-8.59,4-10.44,7.76a12,12,0,0,0-1.06,7.67c.89,5.62,4.59,8.36,6.63,9.87.63.46,1.22.9,1.92,1.5a15.39,15.39,0,0,1,1.31,1.82c-.23.37-.42.71-.59,1.07a56.05,56.05,0,0,0-5.51,19.23c-1.15,11.19.12,22,1.35,32.37l.15,1.29c.34,2.86.54,5.82.76,9,.44,6.38.9,13,2.53,19.61,5.37,21.87,25.88,35.45,53.51,35.45h0a78.15,78.15,0,0,0,18-2.06c23-5.44,31.65-19,34.85-29.35,3.36-10.92,4.24-22.39,5.09-33.48.47-6.13.92-11.91,1.75-17.41A57.89,57.89,0,0,0,169,76.78a10.48,10.48,0,0,1,.73-.78c.75-.53,1.38-.92,2-1.32,2.17-1.31,6.11-3.69,7.52-9.21A12,12,0,0,0,178.92,57.73Z" style="fill:#f6bcb1"/></svg>