<?xml version="1.0" encoding="utf-8"?>
<!-- Generator: Adobe Illustrator 18.0.0, SVG Export Plug-In . SVG Version: 6.00 Build 0)  -->
<!DOCTYPE svg PUBLIC "-//W3C//DTD SVG 1.1//EN" "http://www.w3.org/Graphics/SVG/1.1/DTD/svg11.dtd">
<svg version="1.1" id="Layer_1" xmlns="http://www.w3.org/2000/svg" xmlns:xlink="http://www.w3.org/1999/xlink" x="0px" y="0px"
	 viewBox="0 0 539.4 290.1" enable-background="new 0 0 539.4 290.1" xml:space="preserve">
<g>
	<path fill="#FFFFFF" d="M444,258H95.3C42.9,258,0,215.1,0,162.7V95.3C0,42.9,42.9,0,95.3,0H444c52.4,0,95.3,42.9,95.3,95.3v67.4
		C539.4,215.1,496.5,258,444,258z"/>
	<g>
		<path fill="#757679" d="M81.4,59.4l-2.7-3.5c3.5-2.8,5.9-6.3,7.1-10.4l4.3,0.5c-0.4,1.6-1,3-1.6,4.4h6v-5h4.2v5h12.8v4.1H98.7v5.1
			h15.8v4.1H77.9v-4.1h16.5v-5.1H86C84.7,56.3,83.1,57.9,81.4,59.4z M109.9,82.3h-4.2v-1.9H87v1.9h-4.2V66.9h27.1V82.3z M105.7,76.5
			v-5.6H87v5.6H105.7z"/>
		<path fill="#757679" d="M130,50h5.4v3.7h-14.8V50h5.5c-0.6-1.2-1.2-2.4-1.8-3.6l4-1.1C129,47,129.6,48.6,130,50z M134.1,79.9h-8.4
			v1.8h-3.8V67.5h12.2V79.9z M133.8,56.1v3.4h-11.6v-3.4H133.8z M133.8,61.6v3.4h-11.6v-3.4H133.8z M130.4,76.4V71h-4.6v5.4H130.4z
			 M150.6,82.4h-3.9v-22h-5v2.4c-0.2,8-1.7,14.3-4.5,19.1l-2.8-3c2.2-3.9,3.3-9.2,3.5-16.1V48.3c6.2-0.2,11.7-1.2,16.6-3l2,3.6
			c-4.4,1.5-9.3,2.4-14.7,2.7v5h15.9v3.8h-6.9v5.2c2.2,1.6,4.4,3.3,6.8,5.3l-2.2,3.3c-1.8-1.9-3.3-3.4-4.6-4.5V82.4z"/>
		<path fill="#757679" d="M164.4,65.5L163,61c4.1-4.5,7.2-9.8,9.2-16l3.9,1.8c-1,3.1-2.4,6.1-4.1,8.9v26.6h-4.2V61.7
			C166.7,62.9,165.6,64.2,164.4,65.5z M176.9,61.7l-3.6-2.2c3-4.4,5-9.2,6.2-14.2l3.9,0.8c-0.3,1.2-0.7,2.4-1,3.6h16.7v2.7
			c-0.6,2.4-1.4,4.8-2.3,7.1l-4-1.2c0.8-1.4,1.4-2.9,2-4.7h-13.8C179.7,56.7,178.4,59.3,176.9,61.7z M182.6,62.7
			c-1.4,5.5-3.2,10.3-5.4,14.4l-3.9-1.4c2.1-3.7,3.9-8.4,5.5-14L182.6,62.7z M180.3,82l-0.9-3.9c1.6,0.2,3.2,0.3,4.6,0.3
			c1,0,1.4-0.5,1.4-1.5V56.5h4v21.4c0,2.8-1.4,4.2-4.1,4.2H180.3z M200.1,76.1l-3.7,1.6c-1.4-5.8-3.1-10.9-4.9-15.3l3.7-1.2
			C197.1,65.9,198.7,70.9,200.1,76.1z"/>
		<path fill="#757679" d="M218.2,77.6h-4v-1.7h-3v2.6h-4V48.1h11V77.6z M214.2,71.9V52.1h-3v19.8H214.2z M220,82l-0.9-3.9
			c1,0.2,1.8,0.3,2.7,0.3c1.1,0,1.7-0.5,1.7-1.6v-6.8c-1.4,0.3-2.7,0.7-4,1l-1-4.2c1.7-0.2,3.4-0.6,5.1-1v-6h-4.7v-4h4.7v-3.2
			c-1,0.4-2,0.7-3,1l-1.6-3.6c3.9-0.9,6.9-2.4,8.8-4.5l3,2.4c-0.9,1-1.9,1.9-3.1,2.7v5.2h4.1c-0.1-3.2-0.2-6.7-0.2-10.5h3.7v3
			l2.8-2.1c1.7,1.7,3.3,3.6,4.7,5.5l-3,2.4c-1.5-2.2-3-4.1-4.4-5.7c0,2.6,0,5.1,0.1,7.4h6.6v4h-6.4c0.1,3.1,0.3,5.9,0.6,8.2
			c1-1.9,1.9-4.1,2.7-6.6l3.2,1.7c-1.4,4.2-3,7.7-5,10.5c0.6,2.3,1.2,3.6,1.8,3.7c0.5-0.1,1.1-1.9,1.8-5.4l3,2.5
			c-1.4,5-3,7.6-4.8,7.6c-1.4,0-2.6-1.1-3.6-3.2c-0.3-0.6-0.6-1.3-0.8-2c-1.3,1.3-2.7,2.4-4.1,3.2l-2.2-3.4c1.9-1,3.6-2.5,5.1-4.2
			c-0.2-1.1-0.4-2.2-0.6-3.4c-0.3-2.6-0.6-5.6-0.7-9.1h-4.3v4.9c1-0.3,1.9-0.6,2.9-1v4.2l-2.9,1v9c0,2.8-1.5,4.2-4.4,4.2H220z"/>
		<path fill="#757679" d="M270.9,62.7c0,3.9-1.8,6.9-5.5,8.8l-1.4-2.3c2.4-1.5,3.7-3.3,3.9-5.6c-0.2,0-0.5,0.1-0.8,0.1
			c-0.9,0-1.6-0.3-2.2-0.8c-0.6-0.6-0.9-1.3-0.9-2.1c0-0.9,0.3-1.6,0.9-2.2c0.6-0.6,1.3-0.8,2.2-0.8
			C269.7,57.7,270.9,59.4,270.9,62.7z"/>
		<path fill="#757679" d="M296,53.4c-0.1,4-0.5,7.8-1.2,11.4l-3.4-1c0.8-3.4,1.3-6.9,1.4-10.7L296,53.4z M306.8,61l-3.3,0.8
			c-0.6-2.8-1.4-5.5-2.3-8.1v28.5H297V45.4h4.1v7.7l2.8-0.9C305,54.7,306,57.7,306.8,61z M312.9,51v-5.6h4.1V51h8.5v12h2.6V67h-12.2
			c-1.7,6.9-5.4,11.9-11,15.1l-2.6-3.4c4.7-2.4,7.8-6.3,9.4-11.6h-7v-4.1h7.9c0.2-1.6,0.4-3.3,0.4-5v-3h-6.6V51H312.9z M317,57
			c0,2.1-0.2,4.1-0.4,6h4.9v-8.1H317V57z M316.7,70.9l2.7-2.6c2.6,2.5,5.8,6.2,9.6,11.2l-3,3C323.3,78.4,320.2,74.5,316.7,70.9z"/>
		<path fill="#757679" d="M370,80.1l-3.6,2.5c-0.6-1.1-1.2-2.2-1.9-3.2c-9.2,0.8-17.9,1.4-26.2,1.9l-0.7-3.4
			c3.2-1.7,6.5-5.8,9.9-12.2h-12.4v-4.1H351v-6.2h-13.4v-4H351v-5.9h4.2v5.9h13.3v4h-13.3v6.2h15.8v4.1h-18.8c-2.5,5.1-5,9-7.5,11.7
			c8.1-0.6,14-1,17.6-1.4c-1.5-2.3-3.2-4.6-5.1-7.1l3.4-2.2C364.7,71.8,367.8,76.3,370,80.1z"/>
		<path fill="#757679" d="M378.6,61.9l-0.4-2.9c2.4-0.1,4.8-0.2,7-0.2v-1.5h-5.8v-2.7h5.8v-1.2h3.9v1.2h5.9v2.7h-5.9v1.3
			c2.5-0.1,4.8-0.2,7-0.4V61l-3.8,0.2l3.8,0.5c-0.1,0.4-0.2,0.7-0.4,1h13.4v10h-11.2V74h13.4v4.7c0,2.2-1.4,3.3-4.1,3.3h-4.4
			l-0.9-3.2l4.2,0.1c0.8,0,1.2-0.4,1.2-1.1v-1h-9.4v5.6h-4v-5.6h-9.3V82h-4v-8h13.3v-1.2h-11v-10h8.5c0.2-0.5,0.4-1,0.5-1.5
			C387.8,61.5,383.4,61.7,378.6,61.9z M385.2,46.5v-1.2h3.9v1.2h5.9v2.7h-5.9v1.2h7v2.7h-17.6v-2.7h6.7v-1.2h-5.7v-2.7H385.2z
			 M405.2,65.3h-18.4v1.2h18.4V65.3z M386.8,70.1h18.4V69h-18.4V70.1z M406.5,47.9v-2.6h3.9v2.6h2.8v3.1h-2.8v6.7c0,2.6-1.4,4-4.3,4
			H401l-0.8-3.7c1.6,0.2,3.2,0.2,4.7,0.2c1.1,0,1.7-0.5,1.7-1.5v-5.7h-9.6v-3.1H406.5z M403.8,56.1l-3,1.6c-0.8-1.8-1.8-3.4-2.8-4.8
			l2.9-1.4C402.1,52.9,403,54.4,403.8,56.1z"/>
		<path fill="#757679" d="M439.2,67.7c-2.1,0.7-4.3,1.4-6.6,2v8.1c0,2.6-1.4,4-4.2,4h-4.5l-0.9-4c1.4,0.2,2.7,0.2,4,0.2
			c0.9,0,1.4-0.5,1.4-1.4v-6c-2.3,0.5-4.7,0.9-7.2,1.3l-0.6-4.2c2.7-0.4,5.3-0.9,7.8-1.4v-6.9h-7.8v-4h7.8v-3.7
			c-1.9,0.4-3.9,0.7-6,1l-0.9-4c5.5-0.6,10.5-1.8,14.8-3.5l1.4,3.9c-1.6,0.6-3.4,1.1-5.2,1.6v4.7h8.2c-0.2-3.1-0.3-6.5-0.3-10.2h4.2
			c0,3.8,0.2,7.2,0.4,10.2h12v4h-11.6c0.2,2.6,0.6,4.7,1,6.4c0.2,0.6,0.3,1.2,0.5,1.8c1.6-2,3.1-4.3,4.3-6.8l3.6,1.9
			c-1.8,3.6-3.9,6.8-6.3,9.4c0.4,1,0.8,1.8,1.3,2.4c1.1,1.8,2,2.6,2.6,2.6c0.4,0,0.9-2,1.4-6l3.7,2c-1,5.7-2.5,8.6-4.5,8.6
			c-1.8,0-3.6-1.2-5.5-3.6c-0.7-0.9-1.4-2-2-3.2c-2.7,2.2-5.8,4-9.1,5.3l-2.3-3.6c3.7-1.4,6.9-3.3,9.7-5.8c-0.4-1.3-0.8-2.6-1.2-4
			c-0.6-2.2-1-4.7-1.4-7.6h-8.6v5.9c2.3-0.6,4.6-1.2,6.6-2V67.7z M456.3,51l-3,3c-1.6-1.8-4-3.6-7-5.6l2.8-2.7
			C451.9,47.5,454.3,49.2,456.3,51z"/>
		<path fill="#757679" d="M109.5,118.3v18.1h-7c3.8,0.7,7.6,1.6,11.1,2.8l-1.4,3.4c-4.1-1.6-8.3-2.8-12.7-3.6l1.3-2.5h-9.4l1.6,2.2
			c-2.9,1.7-7,3-12.4,4.1l-1.9-3.3c4.6-0.8,8.3-1.8,11-3H83v-18.1H109.5z M111.7,106.5v10.2h-31v-10.2H111.7z M89.8,109.9h-5.1v3.6
			h5.1V109.9z M105.5,123.4v-1.9H87v1.9H105.5z M105.5,128.2v-1.9H87v1.9H105.5z M105.5,131.1H87v2h18.5V131.1z M98.9,109.9h-5.3
			v3.6h5.3V109.9z M107.7,109.9h-5v3.6h5V109.9z"/>
		<path fill="#757679" d="M141.5,126.7c-0.1,0.7-0.2,1.4-0.4,2h14.7v3.8h-16.1c-0.9,1.7-2.1,3.2-3.6,4.5c-2.6,2.3-7.3,4.2-14,5.5
			l-1.7-4c5.7-1,9.8-2.4,12.4-4.3c0.7-0.6,1.3-1.1,1.8-1.7h-12.3v-3.8h14.5c0.2-0.8,0.4-1.6,0.6-2.4L141.5,126.7z M131,108.9
			c-0.5-1.1-1-2.1-1.6-3l4.4-0.7c0.5,1.1,1,2.4,1.5,3.8h7.6c0.6-1.3,1-2.6,1.3-3.9l4.4,0.6c-0.3,1.2-0.8,2.2-1.3,3.3h8.1v3.8h-14.2
			v2.8h12.1v3.5h-12.1v2.8h15.6v3.8h-35.3v-3.8H137V119h-12v-3.5h12v-2.8h-14.2v-3.8H131z M157.7,139l-2.4,3.7
			c-4.7-2.6-9.5-4.6-14.4-6.1l2.2-3.3C148.4,134.9,153.3,136.7,157.7,139z"/>
		<path fill="#757679" d="M165.9,120.3l-2.4-3.5c6.9-3,12.5-6.8,16.8-11.5h3.4c3.7,4.6,9.2,8.4,16.6,11.4l-2.4,3.5
			c-1.9-0.8-3.6-1.6-5.2-2.6v2H184v4.4h13.8v3.9H184v9.4h3.4c1.2-2.5,2.2-5.1,3.2-7.8l3.8,1.4c-0.8,2.4-1.8,4.5-2.7,6.4h7.6v4h-34.6
			v-4h7.7c-0.7-2.2-1.6-4.2-2.7-6.2l3.8-1.4c1.1,2.1,2.1,4.6,3,7.6h3.5v-9.4H166v-3.9h13.8v-4.4h-8.6v-2.2
			C169.5,118.6,167.7,119.5,165.9,120.3z M181.9,109.3c-2.5,2.6-5.2,4.8-8.2,6.8h16.1C186.7,114.1,184.1,111.8,181.9,109.3z"/>
		<path fill="#757679" d="M226.5,122.5c1.3,1.3,2.5,2.8,3.6,4.3l-2.8,2.3c-1.1-1.5-2.2-3-3.5-4.3c-1.4-1.5-3-2.9-4.6-4.2l2.4-2.2
			C223.4,119.5,225,120.9,226.5,122.5z"/>
		<path fill="#757679" d="M258.7,121l-3,3c-1.6-1.8-3.8-3.7-6.7-5.8l3-2.9C254.6,117.2,256.8,119.1,258.7,121z M258.8,127.5
			c-1.6,5.1-3.5,9.9-5.5,14.4l-3.9-1.7c2.2-4.6,4.1-9.3,5.7-14.1L258.8,127.5z M259.8,111.3l-3,3c-1.6-1.8-3.8-3.7-6.8-5.7l3-2.9
			C255.6,107.6,257.9,109.5,259.8,111.3z M270.1,130.3c0.2-0.8,0.4-1.6,0.6-2.5h3.9c-0.1,0.9-0.3,1.7-0.5,2.5h11.8v3.5h-13.1
			c-0.7,1.3-1.5,2.5-2.5,3.5c-2.1,2.1-5.8,3.8-11,5l-1.6-3.8c4.4-0.9,7.5-2.2,9.4-3.8c0.4-0.3,0.7-0.7,1-1h-9.3v-3.5H270.1z
			 M274.4,105.5c-0.3,0.9-0.6,1.7-1,2.5h11.2v17.8c0,2.1-1.2,3.1-3.5,3.1h-1.9l-0.9-3.2l1.7,0.1c0.4,0,0.7-0.3,0.7-0.9v-13.4h-16.5
			v17.5h-4V108h9c0.5-1,0.8-2,1.1-3L274.4,105.5z M279.5,114.4c-1.6,0.4-3.3,0.8-5.3,1v3.4h0.6c0.7-1.1,1.3-2.2,1.7-3.3l2.7,1.1
			c-0.4,0.8-0.9,1.6-1.4,2.2h1.8v2.9h-5.4c1.7,0.7,3.4,1.5,5,2.4l-1.8,2.8c-1.3-1.1-2.4-2-3.3-2.7v3h-3.4v-3.2
			c-1.4,1.4-2.8,2.6-4.4,3.7l-1.7-3c2.1-0.8,3.8-1.8,5.4-2.9h-5v-2.9h2c-0.3-0.6-0.6-1.2-1-1.8l2.6-1c0.5,0.9,0.9,1.8,1.2,2.8h1
			v-3.2c-1.5,0.1-3,0.1-4.7,0.1l-1-2.9c5,0,9.3-0.4,12.8-1.2L279.5,114.4z M286.3,139.2l-2.2,3.4c-3.6-2.1-7.4-3.8-11.1-5l2-3
			C279.1,135.9,282.9,137.4,286.3,139.2z"/>
		<path fill="#757679" d="M317.7,139.9l-1-3.8l3,0.2c0.9,0,1.4-0.5,1.4-1.5v-3.2h-8.6v10.7h-4.2v-10.7h-8.6v7.8h-4.1v-11.5h12.8
			v-2.3h-2l-0.8-3.1l1.8,0.2c0.6,0,0.9-0.4,0.9-1.1v-1.1l-2.5,0.7c-0.3-2-0.8-3.8-1.2-5.6l2.2-0.8c0.6,1.6,1.1,3.4,1.5,5.4v-6.4h-4
			v11.2H301v-11.2h-4.2v11.7h-3.4v-15h3.2c-0.7-1.4-1.5-2.6-2.3-3.6l3-1.4c0.8,1.2,1.6,2.5,2.4,4l-2.1,1h3.3v-5.2h3.4v5.2h3.2
			l-2-1.1c1-1.4,1.7-2.7,2.3-4l3,1.5c-0.6,1.2-1.3,2.4-2.2,3.6h2.8v3.8c2.4-2.6,4-5.6,4.8-9.1l3.8,0.5c-0.3,1.1-0.6,2.1-1,3.1h8.6
			v3.6h-1.5c-0.8,2.9-2,5.3-3.5,7.3c1.8,1.2,3.8,2.2,6,3.2l-2,3.4c-2.5-1.2-4.7-2.5-6.6-3.9c-1.8,1.6-4,2.8-6.4,3.6l-1.9-3.2
			c2.2-0.6,4-1.6,5.6-2.8c-0.9-0.8-1.6-1.7-2.3-2.6l1.8-2.7c0.8,1,1.8,2,2.9,2.9c1.1-1.5,2-3.2,2.6-5.2h-5c-1.1,1.9-2.4,3.6-4,5.2
			l-2-2.6v7.3c0,1.6-0.6,2.6-1.6,3h2.6v2.6h12.8v7.8c0,2.8-1.4,4.2-4.1,4.2H317.7z M300.6,115.7c-0.2,2.6-0.5,4.9-1,7l-2.6-0.9
			c0.6-1.8,1-4,1.2-6.4L300.6,115.7z"/>
		<path fill="#757679" d="M355,122.5c1.3,1.3,2.5,2.8,3.6,4.3l-2.8,2.3c-1.1-1.5-2.2-3-3.5-4.3c-1.4-1.5-3-2.9-4.6-4.2l2.4-2.2
			C351.9,119.5,353.5,120.9,355,122.5z"/>
		<path fill="#757679" d="M394.3,108.5c0.2-1.2,0.3-2.4,0.4-3.6l4.2,0.6l-0.4,3h15.3v3.9h-16c-0.2,1-0.4,2.1-0.7,3.1H412v22
			c0,3-1.4,4.6-4.2,4.6h-3.7l-1.1-4l3.4,0.1c1,0,1.4-0.6,1.4-1.6v-17.1h-23.8v22.9H380v-26.8h13c0.2-1,0.4-2.1,0.6-3.1H378v-3.9
			H394.3z M394.3,124.5h3.4c0.8-1.5,1.5-3,2.1-4.7l3.8,1.4c-0.6,1.2-1.2,2.4-1.8,3.4h3.6v3.6H398v3h8.4v3.6H398v6.9h-4.1v-6.9h-8.4
			v-3.6h8.4v-3h-7.2v-3.6h3.6c-0.6-1.2-1.2-2.2-1.8-3.2l3.7-1.4C392.9,121.2,393.6,122.7,394.3,124.5z"/>
		<path fill="#757679" d="M432,111.2v-5.9h4.2V125c-0.1,7.9-2.3,13.7-6.6,17.4l-3.2-2.8c2.2-1.8,3.7-4.2,4.6-7.2
			c-3.1,0.7-6.3,1.4-9.6,2l-1-4.2c3.9-0.4,7.8-1,11.5-1.8c0.1-1.1,0.2-2.2,0.2-3.3v-0.8h-9.7v-4h9.7v-5h-10.6v-4H432z M445.6,105.3
			v5.9h10.6v4h-10.6v5h9.7v4h-9.7v5.2h11.2v4h-11.2v9h-4.2v-37H445.6z"/>
		<path fill="#757679" d="M103.6,199.9l-1-3.8l3,0.2c0.9,0,1.4-0.5,1.4-1.5v-3.2h-8.6v10.7h-4.2v-10.7h-8.6v7.8h-4.1v-11.5h12.8
			v-2.3h-2l-0.8-3.1l1.8,0.2c0.6,0,0.9-0.4,0.9-1.1v-1.1l-2.5,0.7c-0.3-2-0.8-3.8-1.2-5.6l2.2-0.8c0.6,1.6,1.1,3.4,1.5,5.4v-6.4h-4
			v11.2h-3.1v-11.2h-4.2v11.7h-3.4v-15h3.2c-0.7-1.4-1.5-2.6-2.3-3.6l3-1.4c0.8,1.2,1.6,2.5,2.4,4l-2.1,1h3.3v-5.2h3.4v5.2h3.2
			l-2-1.1c1-1.4,1.7-2.7,2.3-4l3,1.5c-0.6,1.2-1.3,2.4-2.2,3.6h2.8v3.8c2.4-2.6,4-5.6,4.8-9.1l3.8,0.5c-0.3,1.1-0.6,2.1-1,3.1h8.6
			v3.6h-1.5c-0.8,2.9-2,5.3-3.5,7.3c1.8,1.2,3.8,2.2,6,3.2l-2,3.4c-2.5-1.2-4.7-2.5-6.6-3.9c-1.8,1.6-4,2.8-6.4,3.6l-1.9-3.2
			c2.2-0.6,4-1.6,5.6-2.8c-0.9-0.8-1.6-1.7-2.3-2.6l1.8-2.7c0.8,1,1.8,2,2.9,2.9c1.1-1.5,2-3.2,2.6-5.2h-5c-1.1,1.9-2.4,3.6-4,5.2
			l-2-2.6v7.3c0,1.6-0.6,2.6-1.6,3h2.6v2.6h12.8v7.8c0,2.8-1.4,4.2-4.1,4.2H103.6z M86.5,175.7c-0.2,2.6-0.5,4.9-1,7l-2.6-0.9
			c0.6-1.8,1-4,1.2-6.4L86.5,175.7z"/>
		<path fill="#757679" d="M140.1,182.5c1.3,1.3,2.5,2.8,3.6,4.3l-2.8,2.3c-1.1-1.5-2.2-3-3.5-4.3c-1.4-1.5-3-2.9-4.6-4.2l2.4-2.2
			C136.9,179.5,138.5,180.9,140.1,182.5z"/>
		<path fill="#757679" d="M171.9,197.7h-3.4v-2.4h-2.2v3.2h-3.4v-30.7h9.1V197.7z M168.5,191.9v-20.7h-2.2v20.7H168.5z M183.5,166.6
			v2.8c-0.6,3.5-1.4,7.2-2.3,11.2c1.4,3.6,2.2,6.6,2.3,9.2c0,2-0.3,3.4-0.8,4.2c-0.9,1-2.3,1.6-4.4,1.6l-1-3.2v9.8h-3.4v-35.7H183.5
			z M179,192.2c0.3-0.1,0.6-0.3,0.7-0.6c0.1-0.3,0.2-0.9,0.2-1.8c0-2.6-0.8-5.5-2.2-8.7c1-4.2,1.7-7.9,2.3-11.2h-2.8v22
			C177.9,192.1,178.5,192.2,179,192.2z M192.3,174.2v18h-8v-18H192.3z M198.9,166.7v3.8h-1.4v27.5c0,2.6-1.4,4-4.2,4h-4.2l-0.8-3.5
			c1.3,0.2,2.6,0.2,3.8,0.2c1.2,0,1.8-0.5,1.8-1.6v-26.6h-9.1v-3.8H198.9z M189.3,177h-2v12.4h2V177z"/>
		<path fill="#757679" d="M213.9,174.9v3.2c-1.2,2-2.5,4-4.1,6h4.5v2.8c-0.5,2.8-1.1,5.2-1.8,7c0.3,0.2,0.6,0.4,0.9,0.8
			c1.3,1.2,2.6,2,3.7,2.6c1.1,0.4,2.8,0.7,5,0.8c2.2,0,4.7,0,7.5,0c3,0,6.8-0.1,11.6-0.3l-1,3.9h-10.2c-2.8,0-5.5-0.1-8.2-0.2
			s-4.8-0.4-6.2-1c-1.7-0.6-3.2-1.6-4.6-3.1c-0.2-0.3-0.6-0.4-0.9-0.4c-0.7,0-1.9,1.8-3.5,5.3l-3-2.8c1.8-3.5,3.4-5.6,5.1-6.2
			c0.7-1.8,1.2-3.6,1.6-5.6h-5.4v-3.1c1.8-2.1,3.2-4,4.4-5.8h-5.1v-3.8H213.9z M213.7,171.1l-2.7,2.7c-1.4-1.8-3.4-3.7-6.1-5.8
			l2.7-2.6C210,167.3,212,169.2,213.7,171.1z M236.8,179.5v7.5h-0.6l2.6,1.6c-0.7,1-1.6,2-2.6,3.1c1.2,0.8,2.3,1.6,3.4,2.4l-2.7,2.7
			c-2.4-2.2-5.7-4.5-10-7l2.4-2.3c1.4,0.8,2.8,1.6,4.1,2.4c1-1.2,1.8-2.1,2.3-2.9h-8.8c-0.8,0.9-1.7,1.7-2.8,2.5v3.8
			c1.8-0.4,3.7-0.8,5.5-1.2l0.7,3.2c-3.2,0.7-6.5,1.2-9.8,1.7l-1.1-2.8c0.7-0.2,1.1-0.6,1.1-1.1v-1.4c-1.2,0.6-2.5,1.2-4,1.7
			l-1.9-3.2c3.2-0.9,5.6-1.9,7.4-3.1H218v-7.5H236.8z M239.6,174.9v3.3h-24.4v-3.3H239.6z M237.7,166.2v7.6h-20.6v-7.6H237.7z
			 M223.1,168.9h-2.4v2.2h2.4V168.9z M233.1,182.5h-11.4v1.7h11.4V182.5z M228.6,168.9h-2.4v2.2h2.4V168.9z M234.2,168.9h-2.4v2.2
			h2.4V168.9z"/>
		<path fill="#757679" d="M254.3,202.4l-3-2.8c2.4-2.5,3.7-5.6,3.8-9.4v-7.5c-2,2.3-4.2,4.4-6.6,6.4l-2.7-3.6
			c4.5-3.6,8.1-7.6,10.7-12.2h-9.6v-4h11.6c0.6-1.4,1.1-2.8,1.6-4.2l4.3,0.5c-0.4,1.3-0.8,2.5-1.2,3.7h19.1v4h-20.9
			c-0.6,1.2-1.3,2.4-2,3.5h18.1v21.5c0,2.5-1.4,3.7-4.2,3.7h-4l-1-3.8c1.4,0.1,2.6,0.2,3.8,0.2c1,0,1.4-0.5,1.4-1.6v-3h-14.9
			C257.9,197.3,256.4,200.1,254.3,202.4z M258.9,189.9c0,0.2,0,0.3,0,0.4h14.6v-3.1h-14.5V189.9z M273.4,180.4h-14.5v3.2h14.5V180.4
			z"/>
		<path fill="#757679" d="M307.9,174.3c2.3,10.5,8,18.6,17.1,24.1l-2.8,3.7c-7.5-5-12.8-11.8-15.8-20.2c-2.6,8.2-8.1,14.9-16.4,20.3
			l-2.6-3.8c10.7-6.4,16.2-15.4,16.5-26.8c0-2.7,0-4.8,0-6.3h4.2C308.2,168.9,308.1,171.9,307.9,174.3z"/>
		<path fill="#757679" d="M337.8,196.7c3.2-0.7,6.4-1.6,9.6-2.6l1,4c-3.9,1.2-8.8,2.4-14.7,3.6l-1.1-4c0.7-0.4,1.1-1,1.1-1.9v-29.2
			h29.4v12.9h-10.7c0.2,1.6,0.4,3.1,0.6,4.4h12.6v4h-11.6c0.2,0.6,0.4,1.2,0.6,1.8c1.2,2.8,2.4,4.8,3.7,6c1.2,1.2,2.4,1.8,3.5,1.8
			c0.3,0,0.6-0.4,0.9-1c0.2-0.6,0.4-2.2,0.7-4.8l3.7,2c-0.6,3.4-1.2,5.6-1.9,6.7c-0.7,1-1.5,1.5-2.5,1.6c-2,0-4-1-6-2.8
			c-2.1-1.8-3.9-4.5-5.5-8c-0.5-1-0.9-2.2-1.2-3.3h-12.1V196.7z M337.8,170.5v5h21.1v-5H337.8z M337.8,179.3v4.4h11.1
			c-0.3-1.4-0.5-2.9-0.7-4.4H337.8z"/>
		<path fill="#757679" d="M397.6,199.9l-1-3.8l3,0.2c0.9,0,1.4-0.5,1.4-1.5v-3.2h-8.6v10.7h-4.2v-10.7h-8.6v7.8h-4.1v-11.5h12.8
			v-2.3h-2l-0.8-3.1l1.8,0.2c0.6,0,0.9-0.4,0.9-1.1v-1.1l-2.5,0.7c-0.3-2-0.8-3.8-1.2-5.6l2.2-0.8c0.6,1.6,1.1,3.4,1.5,5.4v-6.4h-4
			v11.2h-3.1v-11.2h-4.2v11.7h-3.4v-15h3.2c-0.7-1.4-1.5-2.6-2.3-3.6l3-1.4c0.8,1.2,1.6,2.5,2.4,4l-2.1,1h3.3v-5.2h3.4v5.2h3.2
			l-2-1.1c1-1.4,1.7-2.7,2.3-4l3,1.5c-0.6,1.2-1.3,2.4-2.2,3.6h2.8v3.8c2.4-2.6,4-5.6,4.8-9.1l3.8,0.5c-0.3,1.1-0.6,2.1-1,3.1h8.6
			v3.6h-1.5c-0.8,2.9-2,5.3-3.5,7.3c1.8,1.2,3.8,2.2,6,3.2l-2,3.4c-2.5-1.2-4.7-2.5-6.6-3.9c-1.8,1.6-4,2.8-6.4,3.6l-1.9-3.2
			c2.2-0.6,4-1.6,5.6-2.8c-0.9-0.8-1.6-1.7-2.3-2.6l1.8-2.7c0.8,1,1.8,2,2.9,2.9c1.1-1.5,2-3.2,2.6-5.2h-5c-1.1,1.9-2.4,3.6-4,5.2
			l-2-2.6v7.3c0,1.6-0.6,2.6-1.6,3h2.6v2.6h12.8v7.8c0,2.8-1.4,4.2-4.1,4.2H397.6z M380.5,175.7c-0.2,2.6-0.5,4.9-1,7l-2.6-0.9
			c0.6-1.8,1-4,1.2-6.4L380.5,175.7z"/>
	</g>
	<linearGradient id="SVGID_1_" gradientUnits="userSpaceOnUse" x1="78.4123" y1="87.4069" x2="456.5895" y2="87.4069">
		<stop  offset="0" style="stop-color:#B3B5B8"/>
		<stop  offset="1" style="stop-color:#A9ABAE"/>
	</linearGradient>
	<path fill="url(#SVGID_1_)" d="M78.4,86.2c126.1-1.4,252.2,0.4,378.1,5.5c-0.1,0,0.1-2.5,0-2.5c-125.9-5-252-6.9-378.1-5.5
		C78.4,83.7,78.4,86.2,78.4,86.2L78.4,86.2z"/>
	<linearGradient id="SVGID_2_" gradientUnits="userSpaceOnUse" x1="80.6002" y1="209.8865" x2="403.7773" y2="209.8865">
		<stop  offset="0" style="stop-color:#B3B5B8"/>
		<stop  offset="1" style="stop-color:#A9ABAE"/>
	</linearGradient>
	<path fill="url(#SVGID_2_)" d="M80.6,208.6c107.8-1.4,215.6,0.4,323.1,5.5c0,0,0.1-2.5,0-2.5c-107.6-5-215.4-6.9-323.1-5.5
		C80.6,206.1,80.6,208.6,80.6,208.6L80.6,208.6z"/>
	<linearGradient id="SVGID_3_" gradientUnits="userSpaceOnUse" x1="80.6002" y1="143.6334" x2="458.7773" y2="143.6334">
		<stop  offset="0" style="stop-color:#B3B5B8"/>
		<stop  offset="1" style="stop-color:#A9ABAE"/>
	</linearGradient>
	<path fill="url(#SVGID_3_)" d="M80.7,142.9c125.8,3.9,252,5,378.1,3.1c0.1,0,0-2.5,0-2.5c-126.1,1.9-252.2,0.9-378.1-3.1
		C80.7,140.4,80.5,142.9,80.7,142.9L80.7,142.9z"/>
	<path fill="#FFFFFF" d="M368.2,239.4c0,0,29.2,43.7,74.6,50.7c0,0-20.9-21-12.7-62L368.2,239.4z"/>
</g>
<g>
</g>
<g>
</g>
<g>
</g>
<g>
</g>
<g>
</g>
<g>
</g>
<g>
</g>
<g>
</g>
<g>
</g>
<g>
</g>
<g>
</g>
<g>
</g>
<g>
</g>
<g>
</g>
<g>
</g>
</svg>
