<?xml version="1.0" encoding="utf-8"?>
<!-- Generator: Adobe Illustrator 18.0.0, SVG Export Plug-In . SVG Version: 6.00 Build 0)  -->
<!DOCTYPE svg PUBLIC "-//W3C//DTD SVG 1.1//EN" "http://www.w3.org/Graphics/SVG/1.1/DTD/svg11.dtd">
<svg version="1.1" id="Layer_1" xmlns="http://www.w3.org/2000/svg" xmlns:xlink="http://www.w3.org/1999/xlink" x="0px" y="0px"
	 viewBox="0 0 704.2 461.5" enable-background="new 0 0 704.2 461.5" xml:space="preserve">
<g>
	<g>
		<rect x="247.4" y="153.9" fill="#F69D9A" width="133.6" height="307.7"/>
		<path fill="#F58E93" d="M323.8,160.6c-5.6,19.7-6.8,39.5-6.3,59.3c0.5,19.9,2.7,39.9,3.6,59.8c0.9,19.8,0.7,39.6-3.6,59.3
			c-4.2,19.2-14.2,38.1-21.1,57.1c-6.6,18.4-9.8,37.4,2.8,55.6c1.6,2.3,3.4,4.6,5.5,6.8c-0.1-0.2,3.2-1.5,3.6-1.6
			c0.4-0.2,3.8-1.4,3.5-1.7c-16.4-17.8-16.2-36.7-10.7-55.2c5.7-19.1,16.5-38,21.7-57.1c5.4-19.7,6.3-39.5,5.7-59.3
			c-0.6-19.8-2.8-39.7-3.7-59.5c-0.9-19.8-0.5-39.6,4.1-59.4c0.6-2.5,1.2-5,1.9-7.5c-0.1,0.4-2.9,1.3-3.6,1.6
			C326.5,159.3,323.9,160.1,323.8,160.6L323.8,160.6z"/>
		<path fill="#F58E93" d="M356.9,160.6c-5.6,19.7-6.8,39.5-6.3,59.3c0.5,19.9,2.7,39.9,3.6,59.8c0.9,19.8,0.7,39.6-3.6,59.3
			c-4.2,19.2-14.2,38.1-21.1,57.1c-6.6,18.4-9.8,37.4,2.8,55.6c1.6,2.3,3.4,4.6,5.5,6.8c-0.1-0.2,3.2-1.5,3.6-1.6
			c0.4-0.2,3.8-1.4,3.5-1.7c-16.4-17.8-16.2-36.7-10.7-55.2c5.7-19.1,16.5-38,21.7-57.1c5.4-19.7,6.3-39.5,5.7-59.3
			c-0.6-19.8-2.8-39.7-3.7-59.5c-0.9-19.8-0.5-39.6,4.1-59.4c0.6-2.5,1.2-5,1.9-7.5c-0.1,0.4-2.9,1.3-3.6,1.6
			C359.7,159.3,357.1,160.1,356.9,160.6L356.9,160.6z"/>
		<path fill="#F58E93" d="M297,160.6c-5.6,19.7-6.8,39.5-6.3,59.3c0.5,19.9,2.7,39.9,3.6,59.8c0.9,19.8,0.7,39.6-3.6,59.3
			c-4.2,19.2-14.2,38.1-21.1,57.1c-6.6,18.4-9.8,37.4,2.8,55.6c1.6,2.3,3.4,4.6,5.5,6.8c-0.1-0.2,3.2-1.5,3.6-1.6
			c0.4-0.2,3.8-1.4,3.5-1.7c-16.4-17.8-16.2-36.7-10.7-55.2c5.7-19.1,16.5-38,21.7-57.1c5.4-19.7,6.3-39.5,5.7-59.3
			c-0.6-19.8-2.8-39.7-3.7-59.5c-0.9-19.8-0.5-39.6,4.1-59.4c0.6-2.5,1.2-5,1.9-7.5c-0.1,0.4-2.9,1.3-3.6,1.6
			C299.7,159.3,297.1,160.1,297,160.6L297,160.6z"/>
		<path fill="#F58E93" d="M264,212.8c0.7,6.7-2.9,13.4-4.7,20c-1.8,6.3-1.9,12.7-1.3,19.1c1,12.7,4.6,25.5,2.2,38.2
			c-1.3,7.1-4.6,14.2-11,20.9c1.2-1.3,4.2-2.4,5.5-3.7c23.3-24.4,4.2-50.5,9.5-75.7c1.6-7.5,6.2-15,5.4-22.6c0,0.4-2.2,1.5-2.8,1.9
			C266.1,211.4,264,212.3,264,212.8L264,212.8z"/>
		<path fill="#F58E93" d="M278.8,257.5c7.6,25.7,3.6,51.9-11.5,77.2c-3.5,5.9-6.9,12.3-18.5,16.9c-0.5,0.2,0.5,1.8,0.6,2.1
			c0.1,0.3,1.3,1.9,0.7,2.1c10.4-4.1,14.1-9.7,17.4-15.1c4-6.4,7.2-13,9.8-19.5c5-13.1,7.2-26.3,6.4-39.6
			c-0.4-7.1-1.8-14.2-3.8-21.2C279.6,259.5,279.3,258.5,278.8,257.5C278.7,256.9,278.6,256.7,278.8,257.5L278.8,257.5z"/>
		<path fill="#F58E93" d="M363.4,420.1c-7.6-12.5-1.9-25.8,15.8-36.8c-1.9,1.2-6.1,1.8-8,3c-17.7,11-23.4,24.3-15.8,36.8
			c-0.1-0.2,3.6-1.3,4-1.5C359.9,421.4,363.5,420.4,363.4,420.1L363.4,420.1z"/>
	</g>
	<g>
		<path fill="#F8A79E" d="M576.9,226.2c0.4-0.2,0.7-0.4,1-0.7L688,140.3c21.4-13.9,21.6-41,0.4-54L567.5,0.9l0,0
			c-1.2-0.7-2.7-1.1-4.4-0.9L28.5,46c-6.5,0.6-8.7,7.9-3.3,10.9l5.4,3c4.6,2.6,3.8,8.7-1.4,10.5l-3.4,1.2c-5.2,1.8-6.1,7.9-1.4,10.5
			c4.7,2.6,3.8,8.8-1.6,10.5L4.6,98.5c-5.7,1.9-6.3,8.7-0.8,10.9l19.7,8c5.6,2.3,4.9,9.3-1.1,11l-13.8,3.9c-5.9,1.7-6.7,8.7-1.1,11
			l28.8,11.9c4.8,2,5.1,7.8,0.4,10.3L20.9,174c-4.7,2.6-4.4,8.5,0.6,10.4l22.7,8.5c4.8,1.8,5.4,7.4,1.1,10.1l-17.1,10.9
			c-4.3,2.7-3.7,8.3,1,10.1l18.1,7.1c4.3,1.7,5.3,6.6,1.8,9.5l-30.7,26.4c-4.6,4-1.1,10.6,5.3,10l32.3-2.9l10.6-0.9l459.4-39
			l3.7-0.3l44.1-7C575,227,576,226.7,576.9,226.2L576.9,226.2L576.9,226.2z"/>
		<path fill="#F69696" d="M38,114c64.5-6.3,70.9-5.5,135.4-11.4c64.3-5.9,128.7-11.5,193.1-17c36.4-3.1-2.3,0.6,34.1-2.4
			c8.1-0.7,3.1-7.7-2.8-7.3c-64.8,5.3-54.4,4.1-119.2,9.7c-64.8,5.7-129.7,11.5-194.5,17.6c-36.6,3.4-15.1,0.1-51.7,3.6
			c-2.9,0.3-3.6,2.7-2.4,4.4C31.6,113.6,35.1,114.3,38,114L38,114z"/>
		<path fill="#F69696" d="M234.8,136.4c101.4-4,202.8-10.8,303.9-20.6c28.4-2.8,56.8-5.8,85.2-9c7.6-0.9,5.1-10.3-1.7-9.5
			c-100.9,11.4-202.1,20-303.5,25.6c-28.5,1.6-57,2.9-85.5,4C225.5,127.1,228,136.6,234.8,136.4L234.8,136.4z"/>
		<path fill="#F69696" d="M437.1,147.5c65.8-7.2,131.8-13.3,197.9-18.2c18.6-1.4,37.1-2.6,55.7-3.8c7.7-0.5,7.2-9.5-0.7-9
			c-66.1,4.2-132.2,9.6-198.1,16.2c-18.5,1.9-37,3.8-55.5,5.8C428.7,139.3,429.1,148.4,437.1,147.5L437.1,147.5z"/>
		<path fill="#F69696" d="M185.2,212c88.7-4.8,177.4-9.5,266.1-14.3c25.2-1.4,50.4-2.7,75.6-4.1c3-0.2,6.3-1.8,6.6-4.4
			c0.3-2.5-2.7-4.3-5.6-4.1c-88.7,4.8-177.4,9.5-266.1,14.3c-25.2,1.4-50.4,2.7-75.6,4.1c-3,0.2-6.3,1.8-6.6,4.4
			C179.3,210.4,182.3,212.1,185.2,212L185.2,212z"/>
		<path fill="#F69696" d="M62,256.7c57.1-6.7,114.3-11.5,171.7-14.5c16.4-0.9,32.8-1.5,49.2-2.1c3-0.1,5.8-2.3,5.5-4.8
			c-0.3-2.7-3.8-4-6.8-3.9c-57.4,1.9-114.7,5.7-171.9,11.3c-16.3,1.6-32.7,3.4-49,5.3C52.8,248.9,54.4,257.5,62,256.7L62,256.7z"/>
	</g>
	<g>
		<g>
			<path fill="#FFFFFF" d="M176.5,105.6c7.2,4.1,17.5,10.4,22.5,14.8l-5.7,6.3c-4.3-4.2-13.5-10.5-20.8-15l3.2,32.3l-8.1,0.8
				l-3-30.4c-5.1,6.6-11.2,12.7-18.3,17.3c-1.4-1.9-4-4.7-5.8-6.2c10.8-6.4,19.6-17.1,24.4-27.2l-24.9,2.5l-0.8-7.6l54.1-5.4
				l0.8,7.6l-19.4,1.9c-0.9,2-1.9,4.1-3,6.1l0.6,6.5L176.5,105.6z"/>
			<path fill="#FFFFFF" d="M228.3,113.4c-2.6,1-5.2,2-7.8,3l1.4,14.5c0.4,3.7-0.2,5.6-2.2,7c-2,1.4-5,1.9-9.5,2.3
				c-0.4-1.9-1.7-4.9-2.9-6.8c2.5-0.1,5.1-0.4,5.9-0.5c0.9-0.1,1.2-0.4,1.1-1.4l-1.2-12.4l-6.5,2.4l-2.8-7.2
				c2.4-0.7,5.4-1.7,8.5-2.9l-1.1-10.7l-8,0.8l-0.7-7l8-0.8L209.4,82l7.5-0.8l1.2,11.8l7-0.7l0.7,7l-7,0.7l0.9,8.9l6.9-2.5
				L228.3,113.4z M260,89.2l-9.9,1l3.6,36.4c0.4,4.4-0.3,6.7-3.1,8.2c-2.7,1.7-6.8,2.2-12.6,2.8c-0.5-2.3-2.3-5.8-3.7-7.8
				c3.9-0.1,8.6-0.7,9.8-0.8s1.7-0.5,1.6-1.7L242,91l-15.8,1.6l-0.7-7.4l33.8-3.4L260,89.2z"/>
			<path fill="#FFFFFF" d="M284.7,76.9c-1.2,4.5-2.8,9-4.6,13.4l4.3,42.9l-7.1,0.7L274,102c-1.2,2-2.5,3.8-3.7,5.5
				c-0.9-1.8-3.3-5.7-4.8-7.3c5.1-6.2,9.6-15.6,11.8-24.7L284.7,76.9z M308.3,90.3l3.2,31.9c0.4,3.6-0.1,5.7-2.2,7.1
				c-2.1,1.4-5,2-9,2.4c-0.5-2.2-2-5.3-3.3-7.2c2.6-0.2,5.2-0.5,6.1-0.5c0.8-0.1,1.1-0.4,1-1.2L300.9,91l-7.2,0.7
				c-1.4,3.8-3.1,7.3-4.9,10.1c-1.4-1.2-4.7-3.3-6.5-4.3c4.2-5.8,7.1-14.8,8.4-23.5l7.4,0.9c-0.5,3.3-1.2,6.4-2,9.6l21.5-2.1
				l1.2-0.4l5.3,0.5c-0.2,5.1-0.7,11-1.2,14.7l-6.4-0.4c0.1-2,0.2-4.6,0.3-7.4L308.3,90.3z M299.1,102.6c-1,8.1-3.4,16.3-6.4,21.7
				c-1.6-1-4.9-2.6-6.8-3.4c3.1-4.7,5-12,5.8-19.1L299.1,102.6z M318.1,98.5c3.9,6.1,7.4,14.1,8.8,19.7l-6.9,3.1
				c-1.2-5.5-4.7-13.8-8.4-19.9L318.1,98.5z"/>
			<path fill="#FFFFFF" d="M386.1,74c0,0,0.2,2.5,0.3,3.4c2,28,2.3,38,0.1,41.5c-1.5,2.5-3.2,3.3-5.6,4c-2.3,0.5-6.1,0.9-9.8,1.1
				c-0.3-2-1.6-5.1-3.2-7c4,0,7.7-0.4,9.3-0.6c1.2-0.1,1.9-0.4,2.6-1.3c1.6-2.2,1.5-11.6,0-33.7l-13.4,1.3
				c-1.2,3.9-2.8,7.5-4.5,10.4c-1.1-0.8-3.4-2.1-5.2-3l2.9,29.1l-16.7,1.7l0.5,4.6l-6.7,0.7l-4.6-46.4l7-0.7
				c0.5-3.2,0.8-7.3,0.8-10.2l8.2,0.3c-0.7,3.2-1.6,6.5-2.4,9.2l9.7-1l1,10.1c3.1-5.6,5.3-13.5,6.4-20.9l7.2,0.9
				c-0.4,2.7-1,5.5-1.6,8.2L386.1,74z M349.5,84.7l-9.9,1l1,10.1l9.9-1L349.5,84.7z M352.3,113.4l-1.2-12.2l-9.9,1l1.2,12.2
				L352.3,113.4z M372.7,108c-2.1-3.6-6.6-9.3-10.1-13.5l5.5-3.9c3.5,4,8.3,9.5,10.6,12.9L372.7,108z"/>
			<path fill="#FFFFFF" d="M405.6,91.5c-2.4-1.8-7.3-4-11.1-5.3l3.4-6c3.8,0.9,8.8,2.8,11.4,4.6L405.6,91.5z M407.4,74.7
				c-2.5-1.9-7.4-4.2-11.3-5.5l3.6-6c3.8,1.1,8.8,3.2,11.4,5L407.4,74.7z M412.9,99.6c-2.1,7-4.7,14.5-7.2,20.8l-7-3.7
				c2.4-5.1,5.6-13.4,8.1-21L412.9,99.6z M455.8,107.8l0.6,6.4l-44.2,4.4l-0.6-6.4l5.2-0.5l-1.9-18.8l35.2-3.5l1.9,18.8L455.8,107.8
				z M447.4,86.5l-30.7,3.1l-2.5-25.3l30.7-3.1L447.4,86.5z M438.4,67.3l-17,1.7l1,10.4c3.7-2.4,5.3-6.6,5.5-10.6l5,0.1
				c-0.1,1.3-0.4,2.7-0.8,4c2.4,1.6,5.3,3.7,6.9,5l-3.1,3.5c-1.3-1.2-3.3-2.9-5.4-4.4c-1.2,2.2-2.7,4.1-4.8,5.5
				c-0.7-0.9-2.2-2.3-3.3-2.9l0.4,3.8l17-1.7L438.4,67.3z M423.4,111.1l3.5-0.3l-1.3-12.5l-3.5,0.3L423.4,111.1z M431.1,97.6
				l1.3,12.5l3.5-0.3l-1.3-12.5L431.1,97.6z M440.2,96.7l1.3,12.5l3.6-0.4l-1.3-12.5L440.2,96.7z"/>
			<path fill="#FFFFFF" d="M484.6,75.8c-4.8,6.1-12.2,11.7-19.3,15.2c-1.2-1.6-3.5-3.9-5.2-5.2c5.4-2.2,10.9-5.4,15.2-9.1l-14.5,1.5
				l-0.6-5.9l23.2-2.3c-3.5-0.7-7.3-1.2-10.6-1.4l3.8-4.5c3.2,0.2,6.6,0.7,10,1.2c2-1.1,4.2-2.4,6.1-3.7l-27.8,2.8l-0.6-5.8l36-3.6
				l1.5-0.5l4.9,3.2c-3.2,3.2-7.5,6.5-12.1,9.2c1.5,0.4,3,0.8,4.2,1.2l-0.3,0.4l9.2-0.9l1.3-0.4l5.9,1.2c-2.4,5.2-5.5,10.7-8.5,14.4
				l-6.9-1.7c1.6-1.9,3.2-4.5,4.7-7.2L492.7,75l0.6,6.1c0.3,3.2-0.4,4.6-2.8,5.6c-2.4,1-5.8,1.3-10.2,1.8c-0.5-1.7-1.7-3.7-2.7-5.2
				c2.7-0.1,6.1-0.5,6.9-0.6c0.9-0.1,1.2-0.4,1.1-1.1l-0.6-5.8L484.6,75.8z M485.3,100.4c-4.1,5.8-11.5,11.2-18.7,14.2
				c-1.3-1.7-3.8-4.3-5.5-5.6c7-2.3,14.4-6.3,17.9-10.5L485.3,100.4z M493.5,96.3l1.6,16l-7.5,0.8l-1.6-16l-24,2.4l-0.6-6.4l24-2.4
				l-0.2-2.4l7.5-0.8l0.2,2.4l23.9-2.4l0.6,6.4L493.5,96.3z M500.1,96.1c6.5,2.4,15.4,6.4,20.3,9.3l-5.7,4.3
				c-4.3-2.8-13.1-7.1-19.9-9.8L500.1,96.1z"/>
			<path fill="#FFFFFF" d="M174.3,165.2c2.8,6.6,8.3,12.8,15.1,15.5c-1,1.3-2.7,3.9-3.4,5.5c-1.3-0.7-2.6-1.5-3.8-2.4
				c0.9,13.9,0.8,19.3-0.6,21.4c-1,1.7-2.2,2.3-4,2.7c-1.6,0.4-4.3,0.7-7.1,0.8c-0.3-1.7-1.2-3.9-2.4-5.4c2.6-0.1,5-0.3,6.2-0.4
				c0.8-0.1,1.4-0.2,1.8-0.8c0.8-1.1,0.9-5.3,0.4-15.1l-9.2,0.9c-0.3,9.1-2.5,17.4-14.2,23.2c-0.9-1.5-2.7-3.7-4.2-4.8
				c10.3-4.5,12.1-10.9,12.3-17.8l-7.9,0.8l-0.3-3.1c-1,1.3-2.1,2.6-3.2,3.7c-1.1-1-3.7-2.9-5.1-3.7c4.9-4.3,8.5-11,9.9-18.3l6,0.8
				c-1.2,5.4-3.3,10.6-6,14.8l24.3-2.4c-3.4-3-6.2-6.7-8.2-10.5l-7.5,0.7l-0.5-5.2L174.3,165.2z"/>
			<path fill="#FFFFFF" d="M233.8,172.4c-0.2,7-1.2,13.1-3.1,18.2c2.4,3.1,5.4,5.4,8.9,6.9c-1.1,1.2-2.6,3.5-3.2,5
				c-3.2-1.6-5.9-3.9-8.1-6.7c-1.9,3.2-4.4,5.9-7.6,8.3c-0.6-1.1-2.4-3.2-3.4-4.2c3.5-2.4,6.1-5.4,7.9-8.9c-1.7-3-3.1-6.3-4.4-10
				c-0.6,1.7-1.3,3.4-2.1,4.9c-0.7-1.1-2.6-3.2-3.8-4.3l1.8,17.8c0.2,2.3,0,3.6-1.4,4.5c-1.3,0.9-3.3,1.1-6,1.4
				c-0.3-1.3-1.2-3.2-2-4.4c1.5-0.1,3.1-0.3,3.6-0.3s0.7-0.3,0.6-0.8l-0.4-3.5c-2.5,1.5-5,2.9-7.2,4.3l-1.4-2.7
				c-0.2,3-0.8,6.1-2.2,8.5c-1-0.7-3.4-2-4.5-2.4c2.2-3.7,2-8.5,1.6-12.4l-0.9-8.9l18.3-1.8l0,0.5c0.4-0.8,0.8-1.7,1.2-2.6
				l-22.6,2.3l-0.5-4.6l4.9-0.5l-0.4-3.9l-4.2,0.4l-0.5-4.6l4.2-0.4l-0.5-4.6l5.1-0.5l0.5,4.6l4.1-0.4l-0.5-4.6l5.1-0.5l0.5,4.6
				l4.2-0.4l0.5,4.6l-4.2,0.4l0.4,3.9l4-0.4l0.3,3.4c1.6-4.9,2.2-11.2,2.2-17.5l5.3,0.2c-0.1,2.7-0.3,5.3-0.6,7.9l12.8-1.3l0.5,5.2
				L233.8,172.4z M202.2,191.3c0.1,1.5,0.3,3.1,0.3,4.7c2.2-0.9,5.1-2.2,8.1-3.5l-0.7-7.1l-8.2,0.8l0.3,3.1l1.8-2.5
				c2.3,0.8,5,1.9,6.5,2.8l-2.1,3.6c-1.4-0.8-3.9-2.2-6-3.1L202.2,191.3z M202.8,175.5l4.1-0.4l-0.4-3.9l-4.1,0.4L202.8,175.5z
				 M222.8,173.5c1.2,4.2,2.6,8.1,4.4,11.6c0.9-3.6,1.3-7.7,1.4-12.2L222.8,173.5z"/>
			<path fill="#FFFFFF" d="M278.3,156c1.6,18.5,3.3,35.8,5.5,35.6c0.4,0,0.4-2.9,0.1-6.6c1,1.5,2.4,3.2,3.5,4.2
				c0,5.6-0.7,8.4-3.6,8.6c-6.8,0.7-8.4-16.1-10.4-36l-23,2.3l1.1,11.1c0.8,7.8,1.1,18.9-3.4,26.3c-1-0.8-3.5-2.2-4.8-2.6
				c4.1-6.8,3.6-16.2,2.9-23.3l-1.6-16.3L278.3,156z M272.6,185.4c2.2,3,4.5,7.2,5.4,10l-4.4,2c-0.3-0.9-0.7-2-1.1-3.1
				c-6.8,1.3-13.8,2.6-18.9,3.5l-0.9-5c2.6-0.4,5.8-0.9,9.3-1.5l-0.5-4.9l-7.3,0.7l-1.4-13.6l7.3-0.7l-0.3-3.1l-7.5,0.7L252,166
				l19.9-2l0.4,4.4l-7.6,0.8l0.3,3.1l7.6-0.8l1.4,13.6l-7.6,0.8l0.5,4.6l3.4-0.6c-0.6-1-1.2-1.9-1.8-2.8L272.6,185.4z M261.1,182.2
				l-0.5-5.2l-3,0.3l0.5,5.2L261.1,182.2z M265.4,176.5l0.5,5.2l3-0.3l-0.5-5.2L265.4,176.5z"/>
			<path fill="#FFFFFF" d="M310,163c-1.4,1.2-2.8,2.3-4.4,3.3c-0.8-0.9-2.6-2.4-3.8-3.3c-0.3,1.8-0.6,3.5-0.9,5
				c2.8,3.4,3.6,6.7,3.8,9.4c0.3,3.1,0,5.2-1.3,6.4c-0.6,0.6-1.4,1-2.4,1.3c-0.7,0.2-1.8,0.3-2.7,0.4c-0.2-1.4-0.8-3.4-1.6-4.7
				c0.7,0,1.2,0,1.7-0.1c0.4,0,0.8-0.2,1-0.5c0.5-0.5,0.6-1.5,0.4-2.9c-0.2-2.2-0.9-5.2-3.5-8.2c0.5-2.9,0.9-6.8,1.3-10l-3.4,0.3
				l3.7,36.9l-4.6,0.5l-4.2-41.8l9.5-1l0.7-0.3l3.7,1.7c-0.4,2.3-0.8,4.8-1.3,7.3c5.1-3.3,9.6-8.2,11.8-12.7l5.5,1.3
				c-0.2,0.5-0.5,1-0.7,1.5c3.8,2.5,9.1,4.7,13.9,5.8c-0.7,1.5-1.4,4-1.6,5.5c-2.3-0.7-4.7-1.7-7-2.8l0.3,3l-13.8,1.4L310,163z
				 M314.9,181.1c-0.2,1-0.5,1.9-0.8,2.9c1.7,0.9,3.7,2,4.8,2.9l-2.4,4c-0.9-0.9-2.5-1.9-4-2.9c-1.5,3-3.6,5.6-6,7.7
				c-0.8-0.9-2.8-2.5-4-3.2c3.9-2.8,6.5-7.1,7.4-12L314.9,181.1z M305.1,168.6l11.3-1.1l1.2,11.8l-11.3,1.1L305.1,168.6z
				 M309.9,176.3l3.1-0.3l-0.4-4.3l-3.1,0.3L309.9,176.3z M321.9,160.4c-2.1-1.1-4.2-2.4-6-3.7c-1.3,1.6-2.6,3.2-4.1,4.7
				L321.9,160.4z M328,179.4c-0.2,1.3-0.4,2.6-0.7,3.9c2.8,1.6,6.1,3.5,7.8,4.9l-2.9,4.1c-1.5-1.3-3.9-3-6.5-4.5
				c-1.2,2.5-2.7,4.6-4.6,6.3c-0.8-0.9-2.8-2.6-3.9-3.2c3.4-2.8,5.3-6.9,5.7-11.8L328,179.4z M318.5,167.3l11.6-1.2l1.2,11.8
				l-11.6,1.2L318.5,167.3z M323.3,174.9l3.3-0.3l-0.4-4.3l-3.3,0.3L323.3,174.9z"/>
			<path fill="#FFFFFF" d="M368.3,146.4c-0.2,0.4-0.5,0.8-0.7,1.3c3.4,2.5,8.6,4.9,13.1,6c-0.7,1.3-1.4,3.7-1.7,5.1
				c-2.5-0.9-5.2-2.2-7.8-3.6l0.3,2.5l-11.2,1.1l-0.2-2.1c-2.2,1.9-4.4,3.7-6.7,5.1c-0.4-0.8-1.4-2.3-2.2-3.5l0.3,2.6l-3.7,0.4
				l0.7,7.1l3.9-1.4l1.2,5c-1.5,0.6-3,1.2-4.6,1.7L350,185c0.3,2.5,0,3.9-1.4,4.9c-1.3,1-3.3,1.4-6.3,1.7c-0.3-1.4-1.2-3.5-2-4.9
				c1.5-0.1,3.1-0.3,3.5-0.3c0.6-0.1,0.7-0.3,0.7-0.9l-1-9.6l-3.8,1.4l-2-5.2c1.6-0.5,3.3-1.1,5.3-1.8l-0.8-8.4l-4.9,0.5l-0.5-5.2
				l4.9-0.5l-0.9-8.9l5.5-0.5l0.9,8.9l3.7-0.4l0.1,1c5.1-2.9,10-7.3,12.6-11.9L368.3,146.4z M360.9,175.5c0,0.6-0.1,1.2-0.1,1.8
				l19.1-1.9l1.3,12.6l-4.9,0.5l-0.1-1.3l-10.3,1l0.1,1.4l-4.7,0.5l-0.9-9c-0.5,3.4-1.5,6.5-3.3,9.3c-1-0.8-3.5-2.2-4.8-2.6
				c3.8-5.7,3.5-13.3,3-18.6l-0.8-7.7l22.5-2.2l1.5,14.6L360.9,175.5z M360.2,164.8l0.2,1.7l12.2-1.2l-0.2-1.7L360.2,164.8z
				 M373.1,170.4l-0.2-1.9l-12.2,1.2c0.1,0.6,0.1,1.2,0.1,1.9L373.1,170.4z M369.3,154.1c-1.5-0.9-2.9-1.9-4.2-2.8
				c-1,1.2-2,2.4-3.2,3.6L369.3,154.1z M365.2,180.9l0.3,3.3l10.3-1l-0.3-3.3L365.2,180.9z"/>
			<path fill="#FFFFFF" d="M423.7,177.8c1.4-0.1,1.6-1.1,1.2-6.6c1.2,0.8,3.8,1.5,5.3,1.7c0.2,7.5-1.1,9.6-5.5,10.1l-5.4,0.5
				c-5.3,0.5-6.6-1.1-7.2-6.4l-1.1-11.4l-6.8,0.7c-0.2,8.4-1.9,15.7-12.3,20.8c-0.8-1.4-2.6-3.5-4-4.6c9-4,10.3-9.4,10.4-15.7
				l-11.1,1.1l-0.5-5.4l18-1.8l-0.8-7.6l-8.1,0.8c-0.8,2.5-1.8,4.9-3,6.7c-1.3-0.7-3.8-1.6-5.2-1.9c2.7-4.1,4.2-10.7,4.7-15.6
				l5.8,0.6c-0.3,1.5-0.6,3-1,4.7l6-0.6l-0.6-6.3l5.7-0.6l0.6,6.3l14.3-1.4l0.5,5.3l-14.3,1.4l0.8,7.6l18-1.8l0.5,5.4l-12.2,1.2
				l1.1,11.4c0.2,1.5,0.4,1.8,1.9,1.6L423.7,177.8z"/>
			<path fill="#FFFFFF" d="M441.2,156.4l2.5,25.4l-5.4,0.5l-4.2-42l18.1-1.8l1.7,16.6L441.2,156.4z M439.9,143.8l0.2,2.4l7.4-0.7
				l-0.2-2.4L439.9,143.8z M448.2,151.6l-0.3-2.6l-7.4,0.7l0.3,2.6L448.2,151.6z M463.8,169.1l1,9.7l-4.9,0.5l-1-9.7l-4.5,0.4
				c-0.1,3.3-1.2,8-5,11.1c-0.9-0.9-2.7-2.2-3.9-2.8c2.8-2.2,3.8-5.4,4.1-7.8l-4.7,0.5l-0.5-4.5l4.9-0.5l-0.4-3.5l-4.3,0.4l-0.4-4.4
				l22.6-2.3l0.4,4.4l-4.4,0.4l0.4,3.5l5.2-0.5l0.5,4.5L463.8,169.1z M458.5,165.1l-0.4-3.5l-4.4,0.4l0.4,3.5L458.5,165.1z
				 M477.2,171.9c0.3,2.9-0.1,4.5-1.7,5.5c-1.6,1.1-4,1.5-7.6,1.8c-0.3-1.5-1.3-4-2.2-5.4c2.1-0.1,4.4-0.3,5.1-0.5
				c0.8-0.1,1-0.4,0.9-1l-1.9-18.8l-12.9,1.3l-1.7-16.7l18.4-1.8L477.2,171.9z M461,141.7l0.2,2.4l7.6-0.8l-0.2-2.4L461,141.7z
				 M469.4,149.6l-0.3-2.7l-7.6,0.8l0.3,2.7L469.4,149.6z"/>
			<path fill="#FFFFFF" d="M498,146.3c0.4,4.8,0.4,10.6-1.3,16.5c2.3,1.7,4.3,3.3,5.7,4.6l-3,4.7c-1.2-1.2-2.8-2.6-4.7-4.1
				c-1.6,3.3-3.9,6.5-7.2,9.4c-0.9-1.1-2.9-2.7-4.1-3.4c3.3-2.9,5.5-6.1,7.1-9.3c-2.6-1.9-5.1-3.8-7.4-5.4c0.6-2.9,1.1-6.7,1.5-10.7
				l-3,0.5l-1-4.9c1.4-0.2,2.9-0.4,4.4-0.6c0.2-3.4,0.4-6.8,0.3-9.8l5.2-0.2c0,2.9-0.2,6.1-0.4,9.3l2.5-0.4l-0.3-3l5-0.5l0.3,2.7
				l2.1-0.3l0.4,4.6L498,146.3z M489.7,147.8c-0.3,3.3-0.8,6.5-1.2,9.4c1.2,0.8,2.4,1.7,3.7,2.5c1.1-4.4,1.2-8.8,0.9-12.4
				L489.7,147.8z M521.7,152.4c-0.4-0.9-0.9-1.9-1.5-3c-15.2,2.8-17.5,3.3-19.1,4.2c-0.4-1-1.5-3.6-2.3-5c1-0.4,1.7-1.4,2.7-3.2
				c1-1.7,3.7-8,5.1-14.1l6,1c-1.5,5-3.7,10.1-5.9,14.3l10.5-1.8c-1.4-1.9-2.8-3.7-4.2-5.3l4.2-2.6c3.6,3.8,7.4,8.8,9.1,12.4
				L521.7,152.4z M501.6,156.2l21.9-2.2l2,19.6l-5.3,0.5l-0.2-1.8l-11.5,1.1l0.2,1.9l-5.1,0.5L501.6,156.2z M507.2,160.6l0.8,7.9
				l11.5-1.1l-0.8-7.9L507.2,160.6z"/>
		</g>
	</g>
</g>
<g>
</g>
<g>
</g>
<g>
</g>
<g>
</g>
<g>
</g>
<g>
</g>
<g>
</g>
<g>
</g>
<g>
</g>
<g>
</g>
<g>
</g>
<g>
</g>
<g>
</g>
<g>
</g>
<g>
</g>
</svg>
