<?xml version="1.0" encoding="utf-8"?>
<!-- Generator: Adobe Illustrator 18.0.0, SVG Export Plug-In . SVG Version: 6.00 Build 0)  -->
<!DOCTYPE svg PUBLIC "-//W3C//DTD SVG 1.1//EN" "http://www.w3.org/Graphics/SVG/1.1/DTD/svg11.dtd">
<svg version="1.1" id="Layer_1" xmlns="http://www.w3.org/2000/svg" xmlns:xlink="http://www.w3.org/1999/xlink" x="0px" y="0px"
	 viewBox="0 0 1503.6 1006.9" enable-background="new 0 0 1503.6 1006.9" xml:space="preserve">
<path fill="#A7A9AC" d="M102.6,553.8c-22.7-49.4-5.7-106.9,37.6-136.8c-1.1-33.5,17.6-65.9,49.9-80.7c8.8-4.1,18-6.5,27.2-7.4
	c2.7-35.2,23.9-67.9,58.2-83.7c31.6-14.5,66.8-11.2,94.3,5.7c11.9-20.1,29.9-37,52.8-47.5c59.7-27.4,130.3-1.2,157.7,58.6
	c2.3,5,4.2,10.2,5.8,15.3c42.9-16.4,91.7,3.1,111.1,45.5c0.7,1.5,1.3,3,1.9,4.6c0,0,0.1,0,0.1-0.1c37.4-17.2,81.7-0.7,98.9,36.7
	c7.8,17,8.6,35.5,3.7,52.2c8.4,8,15.4,17.8,20.5,29c21.9,47.8,0.9,104.3-46.9,126.2c-13.7,6.3-28.2,9-42.3,8.6
	c-2.1,16.2-8.9,31.6-19.5,44.1c0.8,1.6,1.6,3.2,2.4,4.9c22.2,48.4,0.9,105.7-47.5,127.9c-17.7,8.1-36.5,10.4-54.4,7.7
	c-11.1,20.9-28.8,38.5-52,49.1c-40.9,18.7-87.1,10.7-119.1-16.8c-9.7,10.2-21.5,18.8-35.1,25c-56.7,26-123.7,1.6-150.6-54.5
	c-58.8,15.6-122-12.8-148.2-69.9c-18.5-40.4-14.1-85.4,7.8-120.5C111.4,570.2,106.5,562.4,102.6,553.8z"/>
<g>
	<path fill="#F8CA32" d="M3.2,289.8c1,0,6.8-0.4,16.3-1.1c9.5-0.7,22.6-1.6,38.3-2.6c31.3-1.9,73.2-3.7,115.9-0.9
		c10.7,0.6,21.4,1.7,31.9,3c10.6,1.3,20.9,3,31,4.8c20.1,3.9,38.7,8.9,54.5,14.1c15.7,5.2,28.5,10.7,37.3,14.8
		c4.4,2,7.9,3.6,10.2,4.9c2.3,1.2,3.6,1.8,3.6,1.8L337,322l-5.3-6.6l-2.7-3.3c-0.9-1.1-1.8-2.1-2.8-3.2l-5.7-6.4
		c-27.2-9.9-55-16.5-82.6-20.5c-27.6-4-54.8-5.3-81.4-5.2c-26.6,0.1-52.6,1.9-78.1,4.3C52.8,283.5,27.9,286.7,3.2,289.8z"/>
	<path fill="#F8CA32" d="M119.2,301.9c1.3,0.1,15.2-0.1,35.5,0.7c10.2,0.4,21.9,1,34.4,2.3c12.5,1.2,25.8,3,39.1,5.3
		c13.2,2.4,26.4,5.4,38.5,8.7c12.2,3.3,23.3,7.2,32.8,10.8c2.4,0.9,4.6,1.8,6.8,2.6c2.1,0.9,4.1,1.8,6,2.6c1.9,0.8,3.7,1.5,5.3,2.3
		c1.6,0.7,3.1,1.4,4.4,2.1c5.4,2.4,8.4,4,8.4,4c-2-2.8-4.1-5.5-6.2-8.2c-2.1-2.7-4.3-5.5-6.5-8.1c-16.2-6.2-32.8-11.2-49.4-15.1
		c-16.7-3.9-33.4-6.5-50.1-8.3C184.7,300,151.6,300.1,119.2,301.9z"/>
	<path fill="#F8CA32" d="M0,334.8c1,0,6.8-0.4,16.2-1.1c9.4-0.7,22.3-1.6,37.6-2.6c15.3-1,32.9-1.9,51.7-2.4
		c18.8-0.4,38.7-0.4,58.5,0.7c9.9,0.5,19.7,1.3,29.4,2.4c4.8,0.5,9.6,1.2,14.3,1.8c2.3,0.4,4.7,0.7,7,1.1c1.2,0.2,2.3,0.4,3.5,0.5
		c1.1,0.2,2.3,0.4,3.4,0.6c2.3,0.4,4.5,0.8,6.7,1.2c2.2,0.4,4.4,0.9,6.6,1.3c1.1,0.2,2.2,0.4,3.2,0.7c1.1,0.2,2.1,0.5,3.2,0.7
		c2.1,0.5,4.2,1,6.2,1.4c4.1,1,8,2,11.9,3.1c1.9,0.5,3.8,1.1,5.6,1.6c0.9,0.3,1.8,0.5,2.7,0.8c0.9,0.3,1.8,0.6,2.6,0.8
		c7,2.2,13.3,4.4,18.9,6.5c2.8,1.1,5.4,2.1,7.7,3c2.4,1,4.5,1.9,6.5,2.8c1,0.4,1.9,0.8,2.8,1.2c0.9,0.4,1.7,0.8,2.4,1.1
		c1.5,0.7,2.8,1.3,3.8,1.8c2.1,1,3.2,1.5,3.2,1.5c-5.8-8.1-11.9-16.4-18.7-24.2c-24.2-8.1-49.1-13.5-74-16.5c-25-3.1-50-4-74.8-3.5
		C98.1,322.1,49.1,328.5,0,334.8z"/>
	<path fill="#F8CA32" d="M118.5,349.1c1.2,0.1,14.4-0.1,33.3,0.6c18.8,0.6,43.3,2.6,66.9,6.7c11.8,2.1,23.4,4.7,34.1,7.6
		c10.7,2.9,20.4,6.3,28.6,9.3c4.1,1.6,7.8,3,11.1,4.5c1.6,0.7,3.2,1.3,4.6,1.9c1.4,0.6,2.7,1.2,3.8,1.8c2.3,1.1,4.1,1.9,5.4,2.5
		c1.2,0.6,1.9,0.9,1.9,0.9l-1.2-1.9l-1.3-1.9l-2.6-3.8l-2.6-3.8l-2.8-3.7c-14.1-5.2-28.6-9.5-43.3-12.7c-14.7-3.2-29.6-5.5-44.6-7
		C179.7,347,149.2,347.2,118.5,349.1z"/>
	<path fill="#F8CA32" d="M14.8,383.1c1,0,6.8-0.4,16-1c9.2-0.6,21.9-1.6,36.7-2.4c14.8-0.8,31.7-1.6,49.4-1.9
		c17.7-0.2,36.1,0.1,54.1,1.4c9,0.7,17.8,1.5,26.4,2.7c4.3,0.5,8.5,1.2,12.6,1.8c4.1,0.8,8.2,1.4,12.1,2.2
		c7.9,1.5,15.4,3.4,22.4,5.2c1.7,0.5,3.4,1,5.1,1.5c1.7,0.5,3.4,0.9,5,1.5c3.2,1.1,6.4,2,9.3,3.1c2.9,1.1,5.8,2,8.4,3.1
		c2.6,1,5.2,1.9,7.5,3c2.3,1,4.5,1.9,6.5,2.8c2,0.9,3.8,1.8,5.4,2.5c0.8,0.4,1.6,0.7,2.3,1.1c0.7,0.4,1.4,0.7,2,1
		c1.2,0.6,2.3,1.2,3.2,1.6c1.7,0.9,2.6,1.3,2.6,1.3c-4.3-7.7-8.9-15.5-14.2-23c-10.2-3.7-20.7-6.9-31.3-9.5
		c-10.6-2.6-21.4-4.6-32.4-6.2c-21.9-3.1-44.4-4.3-67.2-4.1c-22.9,0.2-46.1,1.7-69.7,4C63.2,377,39.2,380,14.8,383.1z"/>
</g>
<g>
	<path fill="#F8CA32" d="M1329.4,792.6c0,0-152.1-150.1-350-57.8c-162.7,75.9-126.5,272.1-126.5,272.1s-99.9-238-239.3-248.7
		c-139.4-10.7-341.1,187.4-341.1,187.4S385,792.2,310.2,619.3C255.1,491.9,46.5,448.4,46.5,448.4s351.1,0,302.5-295.4
		c0,0,290.2,293.7,383-153c0,0,143.1,440.1,416.6,62.6c0,0-137.7,361.6,355.1,219C1503.6,281.6,1023.4,461,1329.4,792.6z"/>
	<path fill="#EDE8E0" d="M1290.6,457.1c0-43.9-28.7-81.2-68.4-93.9c-13.2-87.1-88.4-153.9-179.2-153.9c-20.3,0-39.7,3.4-57.9,9.5
		c-10.5-44-50.1-76.8-97.4-76.8c-54.1,0-98.2,43-100,96.7c-12.4-15.7-31.6-25.8-53.1-25.8c-9.1,0-17.7,1.8-25.7,5.1
		c-9.6-43.4-48.3-75.9-94.6-75.9c-43.6,0-80.4,28.7-92.6,68.3c-16.6-6-34.6-9.3-53.3-9.3c-86.2,0-156,69.9-156,156
		c0,2.9,0.1,5.8,0.3,8.7c-53.1,19.3-91.1,70.2-91.1,130c0,73.9,57.9,134.2,130.9,138.1c-4.1,10.9-6.3,22.7-6.3,35
		c0,55,44.6,99.7,99.7,99.7c14.4,0,28.1-3.1,40.5-8.6c40.6,53.2,104.7,87.6,176.8,87.6c49.5,0,95.2-16.2,132.2-43.6
		c14.8,35.9,50,61.1,91.2,61.1c29.1,0,55.3-12.6,73.3-32.7c22.5,12,48.1,18.9,75.4,18.9c86.2,0,156.5-68.3,159.7-153.7
		c34.6-23.7,57.3-63.6,57.3-108.7c0-16.7-3.1-32.7-8.8-47.4C1271.7,524.1,1290.6,492.8,1290.6,457.1z"/>
	<g>
		<path fill="#A7A9AC" d="M990.1,238.6c-0.8-3.5-1.6-6.9-2.7-10.3c-1-3.4-2.2-6.7-3.5-9.9c-2.6-6.4-5.8-12.5-9.5-18.2
			c-0.9-1.5-1.5-3-2.4-4.5c-0.8-1.5-1.7-2.9-2.7-4.3c-1.9-2.8-3.9-5.5-6-8.2c-4.3-5.2-9.1-10-14.3-14.3c-10.5-8.6-22.7-15-35.7-18.8
			c-6.5-1.9-13.2-3.1-19.9-3.5c-6.7-0.4-13.6-0.1-20.3,0.8c-13.4,1.8-26.5,6.3-37.9,13.4c-11.4,7.1-21.1,16.9-28.1,28.4
			c-3.5,5.8-6.4,11.9-8.6,18.3c-1.1,3.2-2.1,6.5-2.9,9.8c-0.4,1.6-0.8,3.3-1.1,5c-0.3,1.7-0.6,3.4-1.1,5
			c-3.6,13.3-5.1,27.3-5.7,41.5c-2.9-13.9-4.1-28.4-3-43c2.3-14.4,7.1-28.6,14.8-41.3c7.7-12.7,18.4-23.6,31-31.4
			c12.6-7.9,26.9-12.7,41.5-14.7c7.3-1,14.6-1.3,22.1-0.9c7.4,0.5,14.7,1.8,21.8,3.9c14.2,4.1,27.4,11.2,38.8,20.5
			c5.7,4.7,11,9.9,15.6,15.6c2.3,2.9,4.5,5.8,6.6,8.9c1,1.5,2,3.1,2.9,4.7c1,1.6,2,3.1,2.8,4.8c2.9,6.8,4.9,13.9,6.2,21.1
			c0.6,3.6,1,7.2,1.3,10.8C990.2,231.5,990.2,235.1,990.1,238.6z"/>
	</g>
	<g>
		<path fill="#A7A9AC" d="M1223.4,556.2c1.2-0.9,2.4-1.7,3.6-2.5l3.5-2.6l3.4-2.7l3.3-2.8c4.3-3.8,8.3-7.8,12-12
			c8.3-7.4,15.4-16.1,21.3-25.5c11.7-18.8,18.2-41.2,15-63c-1.5-10.9-4.9-21.5-10.1-31.2c-5.2-9.7-12.2-18.4-20.4-25.9
			c-8.2-7.4-17.6-13.5-27.7-18.2c-4.8-3-9.7-5.7-14.9-8.2c-2.6-1.2-5.2-2.5-7.9-3.5c-2.6-1.2-5.4-2.2-8.1-3.3
			c2.9,0.2,5.8,0.4,8.7,0.8c2.9,0.3,5.8,0.9,8.7,1.4c5.8,1.2,11.5,2.7,17.2,4.6c10.7,5.2,20.9,11.7,29.9,19.8
			c8.9,8.1,16.5,17.6,22.2,28.3c5.7,10.6,9.5,22.3,11.1,34.3c0.8,6,1.1,12,0.7,18.1c-0.4,6.1-1.3,12.1-2.8,17.9
			c-3,11.7-7.9,22.8-14.2,32.9c-6.3,10.2-14.1,19.4-22.9,27.4c-4.9,3.5-10,6.7-15.3,9.3l-4,1.9l-4.1,1.8l-4.1,1.5
			C1226.2,555.3,1224.8,555.7,1223.4,556.2z"/>
	</g>
	<g>
		<path fill="#A7A9AC" d="M930.5,824.8c14.8,6.1,29.9,10.7,45.2,14.3c3.8,0.9,7.7,1.5,11.4,2.7c3.7,1.1,7.6,2,11.4,2.9
			c7.6,1.7,15.3,3,23,3.7c3.8,0.4,7.6,0.6,11.4,0.5c3.9,0,7.7-0.2,11.6-0.5c7.7-0.6,15.4-1.8,22.9-3.6c15.1-3.5,29.6-9.1,43.1-16.7
			c13.5-7.5,25.9-17,36.6-28.1c10.7-11.1,19.7-23.8,26.5-37.7c6.7-13.8,11.4-28.8,13.4-44.1c3.4-15.1,4.8-30.9,4.6-46.9
			c3.9,15.5,5.6,31.8,4.5,48.2c-0.7,4-1.4,8.1-2.3,12c-0.9,4-1.9,7.9-3.1,11.9c-2.4,7.8-5.4,15.5-9,22.8
			c-7.2,14.7-16.7,28.3-28.1,40c-11.4,11.8-24.5,21.8-38.7,29.7c-14.2,8-29.6,13.9-45.5,17.6c-8,1.8-16,3.1-24.2,3.8
			c-4.1,0.3-8.2,0.5-12.2,0.5c-4.1,0-8.3-0.2-12.4-0.6c-8.2-0.8-16.2-2.2-24.1-3.9c-4-0.9-7.9-1.9-11.8-2.8c-4-0.9-7.7-2.5-11.5-3.9
			c-7.5-3-14.9-6.2-22-9.9C944.1,833.3,937.1,829.3,930.5,824.8z"/>
	</g>
	<g>
		<path fill="#EDE8E0" d="M1163,664c-8.9-23.3-27.1-50.8-42.1-63.6c-47.3-40.7-129.4-43.3-173.7,24.5"/>
		<path fill="#A7A9AC" d="M1163,664c-5-10.4-10.8-20.3-17.3-29.7c-3.3-4.7-6.6-9.3-10.2-13.7c-3.6-4.4-7.3-8.6-11.3-12.6
			c-1-0.9-2-1.9-3-2.8c-1.1-0.9-2.1-1.8-3.2-2.7c-2.2-1.8-4.4-3.4-6.7-5c-4.6-3.2-9.4-6-14.4-8.5c-9.9-5-20.5-8.6-31.4-10.8
			c-21.7-4.4-44.7-2.7-65.4,5.5c-10.3,4.1-20.2,9.7-29,16.8c-8.9,6.9-16.8,15.3-24,24.3c5.4-10.2,12.5-19.6,21-27.8
			c4.2-4.1,8.8-7.8,13.7-11.2c4.9-3.3,10-6.3,15.5-8.8c5.4-2.5,11-4.5,16.8-6.1c5.8-1.5,11.6-2.7,17.6-3.3c11.9-1.2,24-0.6,35.6,1.8
			c2.9,0.6,5.8,1.3,8.7,2.1c2.9,0.8,5.7,1.8,8.5,2.8c2.8,1,5.6,2.2,8.3,3.4c2.7,1.3,5.4,2.6,8,4c5.2,2.9,10.2,6.1,14.9,9.7
			c2.3,1.8,4.6,3.7,6.8,5.7c1.1,1,2.2,2.1,3.3,3.1c1.1,1.1,2.1,2.2,3.1,3.2c4,4.4,7.5,9.1,10.9,13.9c3.3,4.8,6.4,9.7,9.3,14.8
			c2.9,5.1,5.5,10.2,7.8,15.6C1159.2,653.1,1161.3,658.5,1163,664z"/>
	</g>
	<g>
		<path fill="#EDE8E0" d="M487.6,651.7c-4.4,28.2,8,57.5,33.9,73.2c18.3,11.1,39.5,13.2,58.5,7.5"/>
		<path fill="#A7A9AC" d="M487.6,651.7c0.9,6.3,2.2,12.2,4,17.8c0.2,2.9,0.7,5.7,1.3,8.5c0.4,1.4,0.7,2.8,1.1,4.2l1.3,4.1
			c2,5.4,4.6,10.5,7.8,15.2c3.2,4.7,7,9.1,11.3,12.8l0.8,0.7c0.3,0.2,0.6,0.4,0.8,0.7l1.7,1.3l1.7,1.3l1.8,1.2
			c2.4,1.6,4.8,3.1,7.4,4.4c5.1,2.6,10.5,4.6,16.1,5.7c5.6,1.2,11.3,1.7,17,1.5c1.4,0.2,2.9,0.5,4.4,0.7l2.2,0.3l2.3,0.2
			c3,0.3,6.1,0.3,9.3,0.3c-0.7,0.4-1.4,0.8-2,1.2c-0.7,0.4-1.4,0.8-2.1,1.2c-1.4,0.7-2.9,1.4-4.4,2c-3,1.3-6.1,2.2-9.3,3.1
			c-6.5,0.3-13-0.3-19.3-1.7c-6.3-1.3-12.5-3.6-18.3-6.5c-2.9-1.4-5.7-3.1-8.4-4.9l-2-1.3l-1.9-1.5l-1.9-1.5c-0.3-0.3-0.6-0.5-1-0.8
			l-0.9-0.8c-4.9-4.2-9.2-9.1-12.9-14.5c-3.6-5.3-6.6-11.1-8.9-17.2c-2.2-6.1-3.5-12.5-4.3-18.9
			C483.3,663.8,484.9,657.5,487.6,651.7z"/>
	</g>
	<g>
		<path fill="#EDE8E0" d="M877.3,788.8c25.2,13.4,57,11.1,80.3-8.2c16.5-13.6,25.4-33,26.2-52.9"/>
		<path fill="#A7A9AC" d="M877.3,788.8c6.3,1.2,12.3,1.9,18.1,2c2.8,0.7,5.6,1.2,8.4,1.5c1.4,0.1,2.8,0.3,4.3,0.4l4.3,0.1
			c5.7-0.1,11.4-0.9,16.9-2.4c5.5-1.5,10.9-3.7,15.8-6.6l0.9-0.5c0.3-0.2,0.6-0.4,0.9-0.6l1.8-1.2l1.8-1.2l1.7-1.3
			c2.3-1.7,4.5-3.5,6.5-5.6c4.1-4,7.7-8.5,10.7-13.4c2.9-4.9,5.3-10.1,7-15.6c0.7-1.3,1.5-2.6,2.1-3.9l1-2l0.9-2.1
			c1.3-2.8,2.3-5.7,3.4-8.7c0.2,0.8,0.3,1.5,0.5,2.3c0.2,0.8,0.3,1.6,0.4,2.4c0.2,1.6,0.4,3.2,0.5,4.8c0.3,3.2,0.1,6.5-0.1,9.8
			c-1.9,6.2-4.5,12.2-7.9,17.7c-3.3,5.6-7.5,10.6-12.1,15.1c-2.3,2.3-4.8,4.4-7.4,6.3l-1.9,1.5l-2,1.3l-2,1.3
			c-0.3,0.2-0.7,0.4-1,0.7l-1.1,0.6c-5.6,3.3-11.6,5.7-17.9,7.4c-6.2,1.7-12.7,2.6-19.2,2.8c-6.5,0.1-12.9-0.7-19.3-2.1
			C887.3,796.8,881.8,793.2,877.3,788.8z"/>
	</g>
	<g>
		<path fill="#FFFFFF" d="M880.5,344.3l-15.1,9.8c-14-0.3-56.7-1.1-66.2-1.3c0-0.1,0-0.1,0.1-0.1c0,0-3.2,0.1-3.5,0.1
			c-0.3,0-3.5-0.1-3.5-0.1c0,0,0,0,0.1,0.1c-11.5,0.2-70.7,1.3-70.7,1.3s-31.9,40.5-29.2,92.2c2.9,56,42.6,51.1,90.4,49.2
			c32.9,1.3,54-3.2,73.7-27.7h36.9C938.3,416.9,880.5,344.3,880.5,344.3z"/>
	</g>
	<path fill="#B3B5B8" d="M760.4,67.7c56.8-1.4,113.6,0.4,170.3,5.5c0,0,0.1-2.5,0-2.5c-56.7-5-113.5-6.9-170.3-5.5
		C760.4,65.2,760.4,67.7,760.4,67.7L760.4,67.7z"/>
	<g>
		<linearGradient id="SVGID_1_" gradientUnits="userSpaceOnUse" x1="941.9717" y1="526.8332" x2="1190.4958" y2="526.8332">
			<stop  offset="0" style="stop-color:#C0C2C4"/>
			<stop  offset="1" style="stop-color:#ADAFB2"/>
		</linearGradient>
		<path fill="url(#SVGID_1_)" d="M1121.9,433.2c0,0,42.2,25.7,59.8,72.2c17.6,46.5,7.6,69.2-20.2,84.9c-25,14.2-37.7,18.1-48.2,27.1
			c-2.4,2-5.3,3.2-8.4,3.2h-24.1c-7.1,0-12.1-34.9-4.3-49.1H1048c0,0,6.7,9.7,10.2,18.7c1.7,4.4-0.7,9.3-5.1,10.8l-33.6,11.2
			c-2.3,0.8-4.7,0.5-6.8-0.7c-7.6-4.4-27.1-15.5-42.8-22.2c-19.8-8.5-34-35.4-25.5-58.1s57.1-76.9,57.1-76.9L1121.9,433.2z"/>
		<path fill="#F5B949" d="M969.2,492.9l78.8,78.4h28.5l17.2-15.8l83.4-60.8c0,0-27.8-52.8-65.3-63.9l-110.3,23.3L969.2,492.9z"/>
		<ellipse fill="#2F8F6D" cx="1064.6" cy="471.6" rx="63.5" ry="44.5"/>
		<ellipse fill="#91929D" cx="1062.1" cy="464.6" rx="56.1" ry="39.3"/>
		<path fill="#ABADB0" d="M982.2,270.2c0,0-1.1-4.4,8.8-5.9s23.8-0.3,31.4,9.9c7.5,10.2,11,15.1,11,15.1l-29.1,21
			c0,0-7.2-21.5-13.1-28.1S982.1,274.9,982.2,270.2z"/>
		
			<linearGradient id="SVGID_2_" gradientUnits="userSpaceOnUse" x1="656.8993" y1="67.6152" x2="707.7046" y2="182.6743" gradientTransform="matrix(0.9706 0.2409 -0.2409 0.9706 436.4454 97.54)">
			<stop  offset="0" style="stop-color:#C7C8CA"/>
			<stop  offset="1" style="stop-color:#B1B3B6"/>
		</linearGradient>
		<path fill="url(#SVGID_2_)" d="M1173.4,308.7c0.8-4.3-1.7-8.6-5.9-10.1c-32.4-11.3-52.4,13.9-52.4,13.9l0,0
			c-3-2.7-6.3-5.2-9.9-7.5c-25.8-16.5-62-25-90-8.9c-4.9,2.8-9.4,6.3-13.5,10.7c-23.9,25.6-23.1,54.3-32.5,86.5
			c-6.3,21.6-16.6,39.7-3.9,61.3c9.8,16.7,27.7,28.6,46.1,34c87.9,25.7,118.4-38.7,121.8-52.3c4.6-18.4,8.4-37.1,8.9-56.1
			c0.3-10.4-0.9-20.5-3.5-29.9c-2.5-8.9,3-18.1,11.9-20.2c0.1,0,0.2,0,0.2-0.1C1167.2,326.2,1172.1,315.9,1173.4,308.7z"/>
		<path fill="#5F6062" d="M1038.3,423.9c1.2,1.1,2,2.5,2.4,4c0.4,1.6,0.4,3.3,0.1,4.9c-0.3,1.6-0.9,3.2-2,4.5
			c-0.6,0.6-1.2,1.1-1.8,1.6c-0.7,0.4-1.4,0.8-2.2,1.1c-0.1,0-0.2,0-0.2-0.1c0,0,0-0.1,0-0.1l0,0c0.3-0.8,0.6-1.5,0.9-2.2
			c0.3-0.7,0.7-1.3,1-1.9c0.3-0.6,0.7-1.2,1.1-1.7l0.6-0.9l0.4-0.9c0.5-1.3,0.8-2.6,0.7-4c-0.1-1.4-0.5-2.8-1.3-4.1l0,0
			c0-0.1,0-0.2,0-0.2C1038.2,423.8,1038.2,423.8,1038.3,423.9z"/>
		<path fill="#5F6062" d="M1001.3,425.4c0.1-0.6-0.3-1.3-1.6-2.2c-2.2-1.6-8.5-3.9-9.6-0.5c-0.8,2.5,0.6,3.8,3.3,4.2
			C995.8,427.2,1001,427,1001.3,425.4z"/>
		<path fill="#5F6062" d="M1017.3,428.1c0.1-0.6,0.9-1,2.6-1.3c2.9-0.5,10.3,0.3,10,3.8c-0.2,2.5-2.2,3-5.2,2.2
			C1022,432.2,1016.9,429.7,1017.3,428.1z"/>
		<g>
			<path fill="#797A7D" d="M992,538.2c5.1,0,10.2,1,15.2,2.5c2.5,0.7,4.9,1.6,7.3,2.6l3.5,1.6c1.2,0.6,2.3,1.2,3.4,1.8
				c1.1,0.6,2.2,1.3,3.3,2l1.6,1c0.5,0.3,1.1,0.7,1.6,1.1l3.1,2.3c1.1,0.7,2,1.7,3,2.5l1.4,1.3l0.7,0.6l0.7,0.7l2.7,2.8
				c0.9,0.9,1.7,1.9,2.5,3c0.8,1,1.6,2,2.3,3.1c-1-0.9-1.9-1.7-2.8-2.6c-0.9-0.9-1.8-1.8-2.8-2.5c-1.9-1.6-3.8-3.3-5.9-4.8
				c-4-3.1-8.2-5.8-12.6-8.2c-4.4-2.5-9-4.5-13.7-6.3C1001.9,540.7,997,539.2,992,538.2z"/>
		</g>
		<path fill="#F5B949" d="M1105.1,255c-2.7-0.7-5.5-1.1-8.2-1.3c-3.7-0.4-12.9,0.9-12.9,0.9c-9.3,2-17.9,6.7-24.6,13.8l-18.6,19.6
			l71.4,24.6c-1.7-19.3,8.5-37.8,25.8-46.5l3.8-1.9L1105.1,255z"/>
		<path fill="#2F8F6D" d="M1107.7,318.1l-70.9-20.4c-3-0.9-4.7-4-3.8-7l0.3-1.2c0.9-3,4-4.7,7-3.8l70.9,20.4c3,0.9,4.7,4,3.8,7
			l-0.3,1.2C1113.8,317.2,1110.7,318.9,1107.7,318.1z"/>
		<circle fill="#2F8F6D" cx="1144.3" cy="266" r="10.8"/>
		<rect x="1053.3" y="510.4" fill="#2F8F6D" width="14" height="60.9"/>
		<circle fill="#9A9FA3" cx="1054.9" cy="401.1" r="10.3"/>
		<circle fill="#7B7C7F" cx="1054.9" cy="401.1" r="7.4"/>
		<g>
			<path fill="#5F6062" d="M1007.9,431.9c0.3,1.4,0.5,2.7,0.5,4c0.1,0.6,0,1.3,0.1,1.9c0,0.6,0,1.2,0,1.9c-0.1,1.2,0,2.5-0.2,3.7
				c-0.1,1.3-0.2,2.5-0.5,4l-0.2,0.1c-0.4-1.3-0.7-2.5-0.9-3.9c-0.2-1.3-0.3-2.6-0.3-4c0.1-2.6,0.4-5.3,1.2-7.8L1007.9,431.9z"/>
		</g>
		<g>
			<path fill="#5F6062" d="M997.9,456.1c2-2.5,4.9-4.1,7.9-4.9c0.4-0.1,0.8-0.2,1.2-0.3l1.2-0.2c0.8-0.1,1.6-0.2,2.4-0.3
				c0.8-0.1,1.6,0,2.4,0c0.8,0.1,1.6,0.1,2.4,0.2c3.1,0.5,6.1,1.6,8.8,3.1c1.4,0.7,2.6,1.7,3.8,2.6c1.1,1.1,2.2,2.1,3.2,3.3
				l-0.2,0.3l-3.8-2.2c-1.3-0.6-2.6-1.3-3.9-1.9c-1.4-0.5-2.7-1.1-4.1-1.4c-0.7-0.2-1.4-0.4-2.1-0.6l-2.1-0.4
				c-2.9-0.4-5.8-0.5-8.6-0.1c-2.8,0.5-5.7,1.3-8.1,2.8L997.9,456.1z"/>
		</g>
		<g>
			<path fill="#565759" d="M1049,402.9c0-0.7,0.2-1.3,0.5-1.9c0.5-0.4,1-0.7,1.5-1c1-0.6,2.2-0.9,3.3-1.1c1.1-0.2,2.3-0.2,3.4-0.2
				c0.6,0,1.1,0.1,1.7,0.2c0.5,0.4,1,0.8,1.4,1.3c-0.6,0.3-1.2,0.5-1.7,0.7c-0.5,0-1-0.1-1.5-0.2c-1,0-2,0-2.9,0.2
				c-1,0.2-1.9,0.5-2.7,0.9c-0.4,0.2-0.8,0.5-1.2,0.8C1050.2,402.7,1049.6,402.8,1049,402.9z"/>
		</g>
		<circle fill="#9A9FA3" cx="988.1" cy="386.2" r="10.3"/>
		<circle fill="#7B7C7F" cx="988.1" cy="386.2" r="7.4"/>
		<g>
			<path fill="#565759" d="M993.1,389.8c-0.6-0.4-1.1-0.6-1.6-0.9c-0.2-0.4-0.5-0.8-0.9-1.1c-0.7-0.7-1.4-1.3-2.3-1.7
				c-0.9-0.5-1.8-0.8-2.7-1.1c-0.5-0.1-1-0.2-1.5-0.3c-0.5-0.4-0.9-0.7-1.4-1.2c0.6-0.3,1.1-0.6,1.7-0.8c0.6,0.1,1.1,0.2,1.7,0.4
				c1.1,0.3,2.2,0.7,3.2,1.2c1,0.6,2,1.2,2.8,2.1c0.4,0.4,0.8,0.9,1.1,1.4C993.3,388.5,993.3,389.2,993.1,389.8z"/>
		</g>
		<path fill="#FFFFFF" d="M1027.7,349.9l3,59.5c0.3,5.8-4.4,10.6-10.2,10.3c-11.1-0.6-27-3.5-28.6-15c-2.1-15.2,12.2-39.5,27.5-57.6
			C1022.1,343.8,1027.5,345.6,1027.7,349.9z"/>
	</g>
	<path fill="#E57C39" d="M422.1,415.8c0,0,3.6-6.8-6,74.2l-6.2,65.6c0,0,149.7-14.9,190.2-35.2l-1.8-7.2l27.3-26.8
		c0,0-16.7-65.8-70.5-66.1L422.1,415.8z"/>
	<path fill="#D54849" d="M565.9,428.7L550.6,459c-2.6,5.9-10.1,7.5-14.9,3.3l-13.1-11.6l-11.8,17.4c-2.8,4.1-8.3,5.4-12.6,2.9
		l-34.6-20.1L565.9,428.7z"/>
	<path fill="#E57C39" d="M420.5,439.4c0,0-19-1.1-68.3,42.8l51.4,51l40.5-30.3L420.5,439.4z"/>
	
		<linearGradient id="SVGID_3_" gradientUnits="userSpaceOnUse" x1="-5557.3394" y1="-317.17" x2="-5488.5327" y2="-317.17" gradientTransform="matrix(-0.7218 -0.766 -0.7278 0.6858 -3853.6953 -3492.1162)">
		<stop  offset="0" style="stop-color:#BEC0C2"/>
		<stop  offset="1" style="stop-color:#B1B3B6"/>
	</linearGradient>
	<path fill="url(#SVGID_3_)" d="M403.6,533.2l-50.7-51.7l-11.5,12.9c-6.1,6.9-7.7,16.7-4,25l1.7,3.8c1.1,2.4,2.5,4.5,4.3,6.4
		l14.2,15.1c3,3.2,6.9,5.5,11.3,6.6h0c7.7,1.9,15.8-0.3,21.6-5.7L403.6,533.2z"/>
	<path fill="#ABADB0" d="M526.7,269.3l65.8-6c22.5-2,44.7,5.7,61,21.3l0,0c23.2,22.1,30.5,56.2,18.4,85.9l-5.4,13.4
		c-12.9,31.9-45.2,51.6-79.5,48.4l-17.6-1.6"/>
	<path fill="#939598" d="M579.7,413.2L579.7,413.2c26.2,2.4,51-12.7,60.9-37.1l4.2-10.3c10-24.6,2.6-53.1-18.8-69.7
		c-12.1-9.4-27.6-13.6-42.9-12.2l-37.3,3.4c-6.4,0.6-10.7,6.7-9.1,12.9l26.1,98.7C564.8,406.7,571.6,412.4,579.7,413.2z"/>
	
		<linearGradient id="SVGID_4_" gradientUnits="userSpaceOnUse" x1="-7369.9141" y1="1174.4255" x2="-7420.416" y2="1311.0101" gradientTransform="matrix(-0.9829 0.184 0.184 0.9829 -6969.7588 547.3681)">
		<stop  offset="0" style="stop-color:#BCBEC0"/>
		<stop  offset="1" style="stop-color:#A3A5A8"/>
	</linearGradient>
	<path fill="url(#SVGID_4_)" d="M429.3,440.7c42.8,20.4,89.7,20.8,131.9-1.7c20.3-10.8,37.4-28.5,37-52.8
		c-0.1-6.9-1.7-13.6-3.8-20.2c-5.8-17.6-3.5-35.8-8.4-53.4c-3.6-13-11.5-24.3-21.4-33.3c-19.4-17.5-44.8-23-73.3-24.1
		c-20.9-0.8-52,7.7-67.5,22.9"/>
	<path fill="#A7A9AC" d="M569.6,337.8c3.6,5.3,2.3,12.4-2.9,16c-5.2,3.6-12.4,2.3-16.1-3c-3.6-5.3-2.3-12.4,2.9-16
		C558.7,331.3,565.9,332.6,569.6,337.8z"/>
	<path fill="#7E8083" d="M566.1,340.7c2,3.3,1,7.7-2.4,9.7c-3.3,2-7.7,0.9-9.7-2.4c-2-3.3-1-7.7,2.4-9.7
		C559.7,336.3,564.1,337.4,566.1,340.7z"/>
	<g>
		<path fill="#797A7D" d="M476.8,339.4c0.7-0.6,1.3-1.2,1.9-1.8c0.8-0.3,1.5-0.6,2.2-1c1.4-0.7,2.8-1.6,4.1-2.5
			c1.3-0.9,2.5-2,3.6-3.1c0.5-0.6,1-1.2,1.4-1.9c0.7-0.5,1.3-1,2.1-1.6c0,0.9-0.1,1.8-0.4,2.7c-0.5,0.7-1,1.4-1.6,2.1
			c-1.2,1.3-2.5,2.4-3.9,3.4c-1.4,1-2.9,1.9-4.4,2.6c-0.8,0.4-1.5,0.7-2.3,1.1C478.6,339.5,477.7,339.6,476.8,339.4z"/>
	</g>
	<g>
		<path fill="#797A7D" d="M564.9,323.4c-0.8,0.5-1.6,0.8-2.5,1.1c-0.9,0-1.7,0-2.6-0.1c-1.7-0.1-3.4-0.3-5.1-0.7
			c-1.7-0.4-3.3-0.9-4.9-1.6c-0.8-0.4-1.6-0.8-2.3-1.3c-0.6-0.7-1.1-1.5-1.4-2.3c0.9,0.2,1.7,0.5,2.5,0.7c0.6,0.4,1.3,0.8,2,1.1
			c1.4,0.6,2.9,1.1,4.5,1.5c1.6,0.3,3.2,0.5,4.8,0.7c0.8,0,1.6,0.1,2.4,0.1C563.2,322.8,564,323.1,564.9,323.4z"/>
	</g>
	<path fill="#A7A9AC" d="M500,350.5c3.2,4.6,2,10.8-2.5,13.9c-4.6,3.1-10.8,2-14-2.6s-2-10.8,2.5-13.9
		C490.6,344.8,496.9,345.9,500,350.5z"/>
	<path fill="#7E8083" d="M498,353.3c1.8,3,0.9,6.9-2.1,8.7s-6.9,0.8-8.7-2.2c-1.8-3-0.9-6.9,2.1-8.7
		C492.3,349.3,496.2,350.3,498,353.3z"/>
	
		<linearGradient id="SVGID_5_" gradientUnits="userSpaceOnUse" x1="-7288.9072" y1="979.4408" x2="-7288.9072" y2="1018.1176" gradientTransform="matrix(-0.9907 0.1358 0.1358 0.9907 -6971.7769 437.206)">
		<stop  offset="0" style="stop-color:#BEC0C2"/>
		<stop  offset="1" style="stop-color:#B1B3B6"/>
	</linearGradient>
	<path fill="url(#SVGID_5_)" d="M433.9,276.1l-64.2,13c-22.2,4.1-41.5,17.6-53,37l0,0c-16.4,27.6-14.2,62.3,5.4,87.7l8.9,11.5
		c21.1,27.2,57.5,37.5,89.6,25.2l16.5-6.3"/>
	<path fill="#A1A3A6" d="M424.9,428.8L424.9,428.8c-24.2,10.4-52.4,3.8-69.4-16.3l-7.2-8.5c-17.1-20.3-19-49.7-3.9-72.1
		c8.6-12.8,22-21.5,37-25l36.5-8.4c6.2-1.4,12.3,3.1,12.6,9.5l5.9,101.9C437,418.1,432.3,425.6,424.9,428.8z"/>
	<path fill="#797A7D" d="M531.7,381.2l-31.7,4.9c-3.5,0.6-6.5,3.4-8,7.3v0c-3.3,8.9,2.9,18.7,10.9,17.2l38.6-6.3L531.7,381.2z"/>
	<g>
		<path fill="#797A7D" d="M491.2,381.2c0.9,0.6,1.5,1.5,2.1,2.4c0.3,1,0.5,2.1,0.5,3.2c0.1,2.1-0.4,4.3-1.3,6.2l-0.8,1.4
			c-0.3,0.4-0.6,0.8-0.9,1.3l-0.5,0.6c-0.2,0.2-0.4,0.4-0.5,0.6l-1.1,1.1c-0.8,0.7-1.6,1.3-2.4,1.9c-1,0.3-2,0.6-3.1,0.8
			c0.6-0.9,1.3-1.6,1.9-2.4c0.7-0.6,1.5-1.2,2.2-1.8l1-1c0.2-0.2,0.3-0.3,0.5-0.5l0.4-0.6c0.3-0.4,0.6-0.7,0.8-1.1l0.7-1.2
			c0.8-1.6,1.2-3.4,1.1-5.3c0-0.9-0.2-1.8-0.4-2.7C491.4,383.3,491.3,382.3,491.2,381.2z"/>
	</g>
	<path fill="#ED85A9" d="M502.2,410.6c5.6,0,11.7-1.8,17.2-2.7c6.7-1.1,13.5-2.2,20.2-3.3c0.7-0.1,1.4-0.2,2-0.3
		c-0.3,0.1-2.3-2.1-2.6-2.4c-2.2-1.7-4.6-3.2-7.3-4.2c-8.1-3.1-18.5-0.9-25.2,4.6c-1.6,1.4-3,3.1-3.5,5.2
		C502.8,408.6,502.6,409.6,502.2,410.6z"/>
	<g>
		<path fill="#EDE8E0" d="M654.5,539c-20.5-17.6-53.2-35.5-75.6-41.5c-70.8-18.9-162.4,9.5-180.1,87.1"/>
		<path fill="#A7A9AC" d="M654.5,539c-10.8-7.1-22.2-13.2-33.7-18.6c-2.9-1.4-5.9-2.5-8.6-4.1l-2.1-1.2L608,514
			c-1.4-0.7-2.8-1.4-4.3-2.1c-5.7-2.7-11.5-5.3-17.4-7.4L582,503l-4.4-1.3c-3-0.8-6.1-1.5-9.2-2.1c-6.1-1.2-12.4-2.1-18.6-2.7
			c-12.5-1.1-25.2-0.8-37.6,0.9c-12.5,1.6-24.7,4.7-36.4,9.1c-11.7,4.5-22.8,10.4-32.7,17.9c-2.5,1.9-4.9,3.8-7.2,5.9
			c-2.3,2-4.6,4.2-6.7,6.5c-2.1,2.2-4.2,4.6-6.1,7c-1.9,2.4-3.8,4.9-5.4,7.5c-0.8,1.3-1.9,2.4-2.8,3.7c-1,1.2-1.9,2.5-2.8,3.8
			c-1.8,2.6-3.5,5.2-5,8c-0.8,1.4-1.5,2.8-2.3,4.2c-0.7,1.4-1.5,2.8-2.1,4.3c-1.4,2.9-2.6,5.9-3.8,8.9c1.1-13,4.8-26,11.2-37.9
			c2-2.7,3.9-5.5,6-8.1c2.1-2.6,4.3-5.2,6.6-7.6c2.3-2.4,4.7-4.8,7.2-7c2.5-2.2,5.1-4.3,7.8-6.4c10.7-8.1,22.5-14.4,34.9-19.1
			c12.4-4.7,25.3-7.9,38.4-9.6c13.1-1.7,26.4-2,39.6-0.9c6.6,0.6,13.1,1.5,19.6,2.8c3.2,0.7,6.5,1.4,9.7,2.3l4.8,1.4l4.7,1.6
			c6.3,2.2,12.3,4.9,18.2,7.7c1.5,0.7,3,1.4,4.4,2.2l4.4,2.2c3,1.4,5.6,3.4,8.3,5.3c5.4,3.8,10.6,7.8,15.5,12
			C645.3,529.7,650.1,534.2,654.5,539z"/>
	</g>
	<path fill="#FFFFFF" d="M551.7,355.7c4.2-0.7,16.1-3.2,22.5-9.9c0.6-0.7,1.8,0,1.6,0.9c-1.2,5.1-5.1,14.2-17.5,19.5
		c-0.4,0.2-0.9,0-1.1-0.3l-6.1-8.6C550.7,356.6,551,355.9,551.7,355.7z"/>
	
		<linearGradient id="SVGID_6_" gradientUnits="userSpaceOnUse" x1="-2104.6606" y1="4285.564" x2="-2291.5046" y2="4285.564" gradientTransform="matrix(-5.939393e-002 -0.9982 0.9982 -5.939393e-002 -3837.4055 -1488.4283)">
		<stop  offset="0" style="stop-color:#C7C8CA"/>
		<stop  offset="1" style="stop-color:#B1B3B6"/>
	</linearGradient>
	<path fill="url(#SVGID_6_)" d="M548.2,342.8c2,1.5,3.9,3.2,5.7,5c9.1,8.6,18.8,16,28.7,23.6c12.5,9.6,25,19.5,34.6,32.1
		c19.7,25.8,25.2,61.7,14.2,92.3c-11,30.5-38.2,54.7-69.8,61.9c-15.2,3.5-31.3,3.4-45.8,9.1c-0.5,0.2-1,0.4-1.5,0.3
		c-1.2-0.2-1.7-1.5-1.8-2.7c-0.5-3.7,0.4-7.6,2.5-10.7c0.8-1.2,1.8-2.3,1.9-3.7c0.2-1.8-1.2-3.4-2.1-5c-2.3-3.6-3-8.1-2-12.2
		c0.2-0.9,0.6-1.8,1.3-2.2c1.2-0.6,2.6,0.1,3.7,0.8c8.6,5.1,19.4,4.8,29.2,2.6c16.7-3.6,32.6-12.5,43-26
		c10.5-13.5,15-31.9,10.4-48.4c-5.1-18.1-20.2-31.7-36-41.8s-33.3-17.9-47.7-29.9c-4.5-3.7-8.7-7.9-11.2-13.2
		c-4.7-9.5-2.8-21.8,4.5-29.6c4-4.2,8.1-7.7,14-9.1C533.5,333.8,541.3,337.4,548.2,342.8z"/>
	<path fill="#A9ABAE" d="M533.7,364.7c2.5-4,8.3-11.7,19-17c0.8-0.4,0.5-1.6-0.4-1.5c-6.7,0.6-19.4,3.5-20,18
		C532.2,365,533.3,365.4,533.7,364.7z"/>
	<path fill="#A9ABAE" d="M544.5,377.2c2.5-4,8.3-11.7,19-17c0.8-0.4,0.5-1.6-0.4-1.5c-6.7,0.6-19.4,3.5-20,18
		C543,377.5,544,377.9,544.5,377.2z"/>
	<path fill="#A9ABAE" d="M554.3,385.8c2.5-4,8.3-11.7,19-17c0.8-0.4,0.5-1.6-0.4-1.5c-6.7,0.6-19.4,3.5-20,18
		C552.8,386.1,553.9,386.5,554.3,385.8z"/>
	<path fill="#FFFFFF" d="M503.5,367.2c4-0.3,14.2-1.5,20.8-6.8c2.1-1.7,2.9-1.1,1.9,1.4c-2,5-6.8,12.7-18.5,16.6
		c-0.6-0.3-0.9-0.4-1.5-0.7l-3.7-8.8C502.2,368.1,502.7,367.3,503.5,367.2z"/>
	<g>
		<polygon fill="#ABADB0" points="712.1,398.7 727,433.6 675.2,438.9 671.8,406.1 		"/>
		<path fill="#58595B" d="M730.4,387.1c0,0,25.6,46.7,85.1,43.3s83.1-52.2,83.1-52.2L730.4,387.1z"/>
		<path fill="#58595B" d="M760.4,374c0,0-29-14.4-61.6,0.5c-32.6,15-37.8,86.9-3.4,119.6s68.8-11.5,67.4-30.2
			c-1.4-18.7,14.5-71,14.5-71L760.4,374z"/>
		<path fill="#58595B" d="M870.6,366.9c0,0,31.8-6.3,59.3,16.8s13.5,93.8-28.3,116.2s-63.3-29.2-57-46.9c6.3-17.7,4.8-72.3,4.8-72.3
			L870.6,366.9z"/>
		<path fill="#F1625B" d="M885.1,241.6l72.4,22.5c7.9,2.4,10.9,12,5.8,18.5l-12.7,16.2c-3.9,4.9-10.9,6-16,2.4l-53.8-37.6
			L885.1,241.6z"/>
		<path fill="#F1625B" d="M882.6,235.2l75.4-7.7c8.2-0.8,14.7,6.8,12.6,14.7l-5.3,19.9c-1.6,6-7.7,9.8-13.8,8.5l-64.2-13.4
			L882.6,235.2z"/>
		<path fill="#58595B" d="M766.8,216.8c-3.2,14.3-16.9,23.2-30.7,19.9s-22.4-17.5-19.2-31.8c3.2-14.3,16.9-23.2,30.7-19.9
			C761.4,188.2,770,202.5,766.8,216.8z"/>
		<ellipse fill="#58595B" cx="868.2" cy="215.1" rx="25.6" ry="26.6"/>
		<g>
			<path fill="#FFFFFF" d="M924.5,320.7c-4.8-19.5-13.7-37.7-19.4-57c-5.8-19.4-13.6-39.4-31.5-50.7c-24.6-15.6-56.3-16.9-84.3-14.7
				c-5.7,0.4-11.3,1-16.9,1.8c-20.4,2.8-41,10.9-53.2,29c-15.7,23.4-18.9,52.2-28.1,78.3c-8.6,24.3-10.7,50.8,8.2,71.3
				c8.5,9.3,19.6,15.2,31.5,18.7c2.5,0.7,5,1.4,7.5,1.9l33.2,8.3c21.1,5.3,43.2,5.4,64.4,0.3l32.2-7.7c3.8-0.7,7.6-1.6,11.4-2.7
				c0,0,0.1,0,0.1,0c13.6-4.1,26.2-11.4,35-22.7c10.2-13.2,14.5-31.8,11.3-48.1C925.5,324.6,925,322.7,924.5,320.7z"/>
		</g>
		<path fill="#58595B" d="M794.6,309.3h18.3c7.2,0,13.1,6.1,13.1,13.6v0.1c0,4.1-1.8,8-4.9,10.6l-9,7.5c-4.8,4-11.5,4-16.3,0.1
			l-9.3-7.6c-3.1-2.6-5-6.5-5-10.7v0C781.5,315.4,787.3,309.3,794.6,309.3z"/>
		<path fill="#58595B" d="M716.4,311.2c6.4-11.7,17.2-24.7,30.6-27.6c16.2-3.5,28.3,12,30.2,27.3c2,16.8-6.1,33.3-21.5,40.3
			c-13.4,6.1-40,4.8-44.7-12.8C708.8,330.5,711.3,320.5,716.4,311.2z"/>
		<ellipse fill="#FFFFFF" cx="759.1" cy="316.1" rx="7" ry="7.2"/>
		<path fill="#58595B" d="M893.9,310.9c-6.4-11.7-17.2-24.7-30.6-27.6c-16.2-3.5-28.3,12-30.2,27.3c-2,16.8,6.1,33.3,21.5,40.3
			c13.4,6.1,40,4.8,44.7-12.8C901.5,330.2,899,320.2,893.9,310.9z"/>
		<ellipse fill="#FFFFFF" cx="851.2" cy="315.8" rx="7" ry="7.2"/>
		<rect x="802" y="337.4" fill="#58595B" width="3.4" height="20.6"/>
		<g>
			<path fill="#F1625B" d="M735.4,213.2c0,0-18.9,8.5-27.9,38.4l193.6-0.3c0,0-7.3-26.9-24.5-36.3L735.4,213.2z"/>
		</g>
		<polygon fill="#FFFFFF" points="740.6,227.2 743.6,220.4 747.2,226.9 754.6,227.7 749.5,233.1 751,240.4 744.3,237.2 737.8,240.9 
			738.8,233.5 733.2,228.5 		"/>
		<polygon fill="#FFFFFF" points="755,220.4 755.8,218.6 756.7,220.3 758.7,220.5 757.4,222 757.8,223.9 756,223 754.3,224 
			754.5,222.1 753,220.7 		"/>
		<polygon fill="#FFFFFF" points="762.4,227 763.2,225.2 764.2,226.9 766.2,227.1 764.8,228.6 765.2,230.5 763.4,229.7 761.7,230.6 
			761.9,228.7 760.5,227.3 		"/>
		<polygon fill="#FFFFFF" points="762.4,237.3 763.2,235.5 764.2,237.3 766.2,237.5 764.8,238.9 765.2,240.9 763.4,240 761.7,241 
			761.9,239 760.5,237.7 		"/>
		<polygon fill="#FFFFFF" points="755,242.6 755.8,240.8 756.7,242.5 758.7,242.7 757.4,244.2 757.8,246.1 756,245.3 754.3,246.2 
			754.5,244.3 753,242.9 		"/>
		<circle fill="#58595B" cx="759.1" cy="316.9" r="5.2"/>
		<circle fill="#58595B" cx="851.2" cy="316.9" r="5.2"/>
		<path fill="#F37B7D" d="M810.8,355.4c0,0,1.4-17.9,15-18c0,0,8.5,1.4,7.3,8.7l-5,6.6C828.1,352.6,815.2,357.8,810.8,355.4z"/>
		<path fill="#58595B" d="M779.4,353.4c2.6,0.5,5.1,0.8,7.6,1c2.4,0.7,4.8,1.2,7.2,1.5c2.4,0.3,4.9,0.5,7.4,0.5l3.7-0.2l3.7-0.5
			l0.9-0.1l0.9-0.2l1.8-0.4l1.8-0.4c0.6-0.1,1.2-0.4,1.8-0.5l3.5-1.1l3.4-1.5l1.7-0.7c0.6-0.3,1.1-0.6,1.6-0.9
			c1.1-0.6,2.1-1.2,3.2-1.8c1.2-0.4,2.3-1,3.6-1.4c1.2-0.5,2.4-1,3.7-1.4c-1.7,2-3.4,3.9-5.3,5.7c-1.1,0.7-2.3,1.3-3.4,1.9
			c-0.6,0.3-1.1,0.7-1.7,0.9l-1.8,0.8l-3.6,1.6l-3.8,1.2c-0.6,0.2-1.2,0.4-1.9,0.6l-1.9,0.4l-1.9,0.4l-1,0.2l-1,0.1l-3.9,0.5l-4,0.2
			c-2.7,0-5.3-0.1-7.9-0.5c-1.3-0.1-2.6-0.4-3.9-0.7c-0.7-0.1-1.3-0.3-1.9-0.4c-0.3-0.1-0.6-0.2-1-0.2c-0.3-0.1-0.7-0.1-1-0.2
			C783.5,356.5,781.3,355.2,779.4,353.4z"/>
		<g>
			<path fill="#FFFFFF" d="M825,342.3c0.2,0.8,0.2,1.6,0.2,2.4c0,0.8-0.1,1.6-0.3,2.3c-0.2,0.8-0.4,1.5-0.7,2.3
				c-0.3,0.7-0.6,1.5-1.1,2.2l-0.1,0l0.9-4.6L825,342.3L825,342.3z"/>
		</g>
	</g>
	<ellipse fill="#EDE8E0" cx="802" cy="522.7" rx="112.7" ry="75.1"/>
	<g>
		<path fill="#EDE8E0" d="M886.3,473.4c-14.6-20.8-43.2-27.7-66.3-29c-18.4-1.1-37,0.3-55,4.5c-15.5,3.6-37,8.5-46.4,23.4"/>
		<path fill="#A7A9AC" d="M886.3,473.4c-3.1-2.5-6-4.9-9.3-6.7c-0.8-0.5-1.6-0.9-2.4-1.4l-2.5-1.2l-1.2-0.6
			c-0.4-0.2-0.8-0.4-1.3-0.5c-0.8-0.4-1.7-0.7-2.5-1.1c-0.8-0.4-1.6-0.8-2.3-1.3c-0.8-0.5-1.5-0.9-2.3-1.3L860,458l-1.2-0.6
			l-1.3-0.5l-2.5-1c-0.8-0.3-1.7-0.6-2.6-0.9c-1.7-0.6-3.5-1.1-5.2-1.7c-14.1-4.1-29.1-5.1-44-4.8c-7.5,0.2-14.9,0.8-22.3,1.9
			c-3.7,0.5-7.4,1.2-11,1.9c-3.6,0.8-7.4,1.6-11,2.5c-7.3,1.8-14.4,3.9-20.8,7c-7,1.9-13.7,4.9-19.4,10.3c0.4-0.9,0.7-1.8,1.1-2.7
			c0.4-0.9,0.9-1.7,1.4-2.6c0.5-0.9,1.1-1.7,1.7-2.5c0.3-0.4,0.6-0.8,0.9-1.2l1-1.2c2.7-3.1,5.9-5.8,9.3-8.2
			c7.4-3.5,15-5.8,22.6-7.6c3.8-0.9,7.5-1.8,11.3-2.6c3.8-0.8,7.7-1.5,11.6-2c7.7-1.1,15.5-1.8,23.4-2c3.9-0.1,7.8-0.1,11.7,0
			c3.9,0.1,7.8,0.3,11.7,0.7c7.8,0.8,15.7,2.1,23.3,4.3c7.6,2.2,15.2,5.2,22.2,9.4c0.8,0.7,1.5,1.4,2.3,2.1c0.4,0.3,0.8,0.7,1.1,1
			l1.1,1.1l2.1,2.3c0.7,0.8,1.3,1.6,1.9,2.4c1.3,1.6,2.3,3.3,3.4,5c0.5,0.8,0.9,1.8,1.4,2.7C885.5,471.6,885.9,472.5,886.3,473.4z"
			/>
	</g>
</g>
<path fill="#A7A9AC" d="M593.9,742.5c-0.9,7.7,0.7,15.2,3.9,22.2c1.7,3.7,7,4.6,10.3,2.7c3.8-2.2,4.4-6.6,2.7-10.3
	c-2.2-4.6-2.5-9.6-1.9-14.6c0.5-4-3.8-7.5-7.5-7.5C596.9,735,594.4,738.4,593.9,742.5L593.9,742.5z"/>
<path fill="#A7A9AC" d="M629.6,740.6c-1,4.1-2.1,8.1-3.1,12.2c-1,3.8,1.2,8.3,5.2,9.2c3.9,0.9,8.2-1.2,9.2-5.2
	c1-4.1,2.1-8.1,3.1-12.2c1-3.8-1.2-8.3-5.2-9.2C635,734.4,630.7,736.5,629.6,740.6L629.6,740.6z"/>
<path fill="#A7A9AC" d="M603,703.2c1,5.1,2,10.2,2.9,15.3c0.8,4,5.5,6.3,9.2,5.2c4.2-1.1,6-5.2,5.2-9.2c-1-5.1-2-10.2-2.9-15.3
	c-0.8-4-5.5-6.3-9.2-5.2C604.1,695.2,602.2,699.2,603,703.2L603,703.2z"/>
<g>
</g>
<g>
</g>
<g>
</g>
<g>
</g>
<g>
</g>
<g>
</g>
<g>
</g>
<g>
</g>
<g>
</g>
<g>
</g>
<g>
</g>
<g>
</g>
<g>
</g>
<g>
</g>
<g>
</g>
</svg>
