<?xml version="1.0" encoding="utf-8"?>
<!-- Generator: Adobe Illustrator 18.0.0, SVG Export Plug-In . SVG Version: 6.00 Build 0)  -->
<!DOCTYPE svg PUBLIC "-//W3C//DTD SVG 1.1//EN" "http://www.w3.org/Graphics/SVG/1.1/DTD/svg11.dtd">
<svg version="1.1" id="Layer_1" xmlns="http://www.w3.org/2000/svg" xmlns:xlink="http://www.w3.org/1999/xlink" x="0px" y="0px"
	 viewBox="0 0 1019.6 775" enable-background="new 0 0 1019.6 775" xml:space="preserve">
<path opacity="0.88" fill="#FFFFFF" d="M1019.6,757v-36.8c0,30.3-34.2,54.8-76.5,54.8H76.5C34.2,775,0,750.5,0,720.2V304.7h1019.6
	V757z"/>
<g>
	<path fill="#58595B" d="M122.6,369.8l-1.6,1.6c-1.3-2-3.1-4.2-5.4-6.5l1.6-1.4C119.4,365.5,121.2,367.6,122.6,369.8z M122.6,375.5
		c-1.4,5.5-2.9,10.8-4.6,15.6l-2-0.8c1.8-5.1,3.4-10.3,4.8-15.6L122.6,375.5z M123.5,359.3l-1.6,1.6c-1.4-2-3.2-4.1-5.6-6.4l1.6-1.5
		C120.1,355.1,122,357.2,123.5,359.3z M129.3,357v-4.3h2.1v4.3h5.4v2h-5.4v4.2h4.2v15h-4.2v4.6h5.3v2h-5.3v7h-2.1v-7h-5.8v-2h5.8
		v-4.6h-4.2v-15h4.2V359H124v-2H129.3z M133.5,369.8v-4.7h-6.4v4.7H133.5z M133.5,371.6h-6.4v4.7h6.4V371.6z M146.8,352.4
		c1.6,3.6,4.4,6.7,8.3,9.5l-1.2,1.9c-3.6-2.5-6.4-5.6-8.2-9.3c-2.2,4-4.9,7.1-8.2,9.3l-1.2-1.9c3.5-2.4,6.3-5.6,8.3-9.5H146.8z
		 M138.4,389.4l2.2,0.1c1.1,0,1.6-0.6,1.6-1.9v-6.4c-1.4,1.8-2.9,3.4-4.7,4.8l-0.8-1.9c2.1-1.6,3.9-3.5,5.5-5.7V367h-4.6v-2h6.6
		v23.3c0,2-1.1,3.1-3.2,3.1h-2.2L138.4,389.4z M140.9,376.9l-1.5,0.7c-0.6-2.8-1.3-5.2-2.1-7.3l1.5-0.5
		C139.6,372,140.3,374.4,140.9,376.9z M147.1,389.4l2.5,0.1c0.9,0,1.4-0.6,1.4-1.8v-7.2c-1.6,1.8-3.3,3.5-5.3,5l-0.8-1.9
		c2.3-1.6,4.4-3.5,6.1-5.7V367h-4.9v-2h6.9v23.3c0,2-1,3-3,3h-2.4L147.1,389.4z M149.5,376.6l-1.5,0.7c-0.6-2.9-1.3-5.3-2.1-7.4
		l1.5-0.5C148.1,371.7,148.9,374.1,149.5,376.6z"/>
	<path fill="#58595B" d="M201.1,354.2v2.2H189v8.4h9.6V379H189v8.9h12.7v2.2h-37.9v-2.2h12.6v-8.8h-9.6v-14.3h9.6v-8.3h-12.1v-2.2
		H201.1z M186.7,376.8h9.7v-9.7h-9.6v-10.6h-8v10.6h-9.6v9.8h9.6v11.1h7.9V376.8z"/>
	<path fill="#58595B" d="M212.1,391.2l-0.5-2.2c1.2,0.1,2.3,0.2,3.4,0.2c1.3,0,1.9-0.7,1.9-2v-11.5c-1.9,0.8-3.8,1.5-5.8,2.2
		l-0.6-2.3c2.2-0.6,4.3-1.3,6.4-2.2v-10.5h-5.5v-2.3h5.5v-8.1h2.3v8.1h5.2v2.3h-5.2v9.5c1.7-0.9,3.4-1.8,5.1-2.7v2.3
		c-1.6,1-3.3,1.9-5.1,2.7v13.2c0,2.3-1.2,3.5-3.5,3.5H212.1z M246.3,371v2.2c-1.4,4.2-3.8,7.9-7,10.8c3,2.2,6.7,4.1,11.1,5.7l-1.3,2
		c-4.6-1.8-8.4-3.9-11.5-6.3c-3.4,2.6-7.6,4.8-12.6,6.3l-1.3-1.9c4.8-1.5,8.8-3.5,12-5.9c-3.5-3.1-5.8-6.6-7-10.6H226V371H246.3z
		 M243.4,354.2v9.5c0,1.1,0.6,1.6,1.8,1.6h3.9v2.2h-4.4c-2.4,0-3.6-1.2-3.6-3.5v-7.7H232v2.9c0,4-2,7.1-5.9,9.3l-1.6-1.8
		c3.5-1.7,5.2-4.1,5.2-7.2v-5.4H243.4z M237.5,382.6c2.9-2.7,5.1-5.7,6.5-9.2h-13C232.2,376.8,234.3,379.9,237.5,382.6z"/>
	<path fill="#58595B" d="M271.4,362.8v2H259v-2H271.4z M274.3,387.5c-3.2,1.8-7.9,3.2-14,4.4l-1.1-1.9c6.1-1,10.7-2.4,13.9-4.1
		L274.3,387.5z M270.5,355v2.1H260V355H270.5z M291.8,368.7v16.5h-27.4v-16.5H291.8z M289.5,373.7v-3.2h-22.8v3.2H289.5z
		 M289.5,378.4v-3h-22.8v3H289.5z M289.5,380h-22.8v3.2h22.8V380z M272.9,361.8l-1.3-1.7c3.2-2.2,5.4-4.8,6.5-7.9l2.2,0.3
		c-0.3,0.9-0.7,1.7-1.1,2.5H295v1.7c-1.1,2.2-2.4,4.1-3.8,5.8l-1.6-1.3c1.1-1.2,2.1-2.6,3-4.1H278
		C276.6,358.8,274.9,360.4,272.9,361.8z M285.6,358.4c-0.2,0.7-0.4,1.4-0.7,2c3.2,3.4,7.3,5.4,12.3,6.1l-0.9,2
		c-4.9-0.8-9-2.9-12.3-6.5c-2,3-5.4,5.1-10.2,6l-1.1-1.7c6.1-1.1,9.8-3.9,10.9-8.4L285.6,358.4z M296.9,390l-0.7,1.9
		c-4.6-1.8-9.4-3.2-14.4-4.2l0.8-1.6C287.6,387,292.3,388.2,296.9,390z"/>
	<path fill="#58595B" d="M328.1,375.2v2.2h-21.8v-2.2H328.1z"/>
	<path fill="#58595B" d="M337.9,369.5l-1.3-2.2c8.3-2.9,14.2-6.7,17.8-11.3h-8.8v-2.2h12.1c3.4,5.3,9.4,9.5,18,12.7l-1.6,2.1
		c-7.8-3.2-13.7-7.3-17.5-12.5c-2.7,3.9-6.7,7.3-11.9,10.2h23.2v2.3h-10.3v8.4h12.7v2.3h-12.7v8.7h16.7v2.3h-35.6V388h16.5v-8.7
		h-12.9v-2.3h12.9v-8.4h-10.6v-2.2C342.5,367.5,340.3,368.5,337.9,369.5z"/>
	<path fill="#58595B" d="M398.2,355.5v2.2h-5.4v10.8h4.5v2.2h-4.5v9.8c1.9-0.8,3.8-1.6,5.6-2.6v2.3c-4.2,2.2-8.8,4-13.7,5.4
		l-0.6-2.3c2.2-0.6,4.3-1.2,6.4-1.9v-10.7h-5.3v-2.2h5.3v-10.8h-5.7v-2.2H398.2z M406.9,378.5c-2.5,3.3-5.5,6.2-9.2,8.7l-1-2.2
		c3.7-2.3,6.9-5.2,9.5-8.6L406.9,378.5z M409.1,360v-7.6h2.2v7.6h10.6v2.2h-10.6v4.1c0.7,2.4,1.6,4.8,2.6,6.9c2.1-2.2,4-4.8,5.7-7.6
		l1.8,1.3c-2.1,3.2-4.3,6-6.6,8.2c2.3,4.2,5.2,7.9,8.7,11l-1.6,1.9c-4.8-4.4-8.3-9.9-10.8-16.2v16.2c0,2.1-1,3.1-3.1,3.1h-5
		l-0.5-2.2c1.6,0.1,3.2,0.2,4.6,0.2c1.1,0,1.6-0.6,1.6-1.6v-25.3H399V360H409.1z M405.8,373.6l-1.7,1.2c-1.2-2.2-2.8-4.7-4.8-7.3
		l1.8-1.2C403.1,369.1,404.7,371.5,405.8,373.6z M421,358.2l-1.5,1.5c-1.4-1.7-3.2-3.5-5.6-5.4l1.4-1.3
		C417.7,354.7,419.5,356.5,421,358.2z"/>
	<path fill="#58595B" d="M443.6,353.3c-0.9,2.9-2,5.6-3.3,8.1v30.3H438v-26.3c-1.6,2.5-3.5,4.9-5.4,7.1l-0.7-2.3
		c4.5-5.3,7.8-11.2,9.8-17.9L443.6,353.3z M455,387.9c-2.5,1.5-6,2.7-10.6,3.7l-1-1.8c4.6-0.9,8.1-2,10.5-3.5L455,387.9z
		 M471.1,354.2v2h-8.7v3.2h7v7.9h-23.5v-7.9h7.2v-3.2h-7.8v-2H471.1z M468.1,369.9v16h-21v-16H468.1z M453.2,361.2h-5.4v4.3h5.4
		V361.2z M466,374.8v-3.1h-16.7v3.1H466z M466,379.3v-2.9h-16.7v2.9H466z M466,380.9h-16.7v3.1H466V380.9z M460.2,356.2H455v3.2h5.2
		V356.2z M460.2,361.2H455v4.3h5.2V361.2z M471.5,389.8l-0.7,1.8c-3.3-1.6-6.8-2.9-10.4-3.8l0.8-1.6
		C464.7,387.1,468.2,388.3,471.5,389.8z M467.2,361.2h-5.1v4.3h5.1V361.2z"/>
	<path fill="#58595B" d="M480.6,372.7l-0.7-2.5c4.3-5.3,7.3-11.3,9.2-18l2.2,1c-0.9,2.8-1.9,5.4-3.1,7.9v30.8h-2.3v-26.4
		C484.3,368,482.5,370.4,480.6,372.7z M503.2,356.6c0.3-1.4,0.5-2.9,0.6-4.3l2.3,0.3c-0.2,1.4-0.4,2.7-0.6,4h12.1v2.2h-12.5
		c-0.3,1.4-0.6,2.8-1,4.1h10.5v25.3h4.4v2.2h-28.4v-2.2h4.6v-25.3h6.7c0.4-1.4,0.7-2.7,1-4.1h-10.4v-2.2H503.2z M512.4,369.5V365
		h-15v4.5H512.4z M512.4,375.7v-4.2h-15v4.2H512.4z M512.4,381.9v-4.2h-15v4.2H512.4z M512.4,388.1v-4.2h-15v4.2H512.4z"/>
	<path fill="#58595B" d="M542.7,388c0,2.2-1.1,3.4-3.2,3.4h-3.7l-0.6-2.1c1.3,0,2.5,0.1,3.6,0.1c1.1,0,1.6-0.7,1.6-2.2v-10.8
		c-2.4,0.6-5,1-7.9,1.4c-0.3,5.6-1.6,10.3-3.6,14l-1.7-1.6c2.2-4.1,3.3-9.2,3.3-15.5v-20.6h12.1V388z M540.5,374.3v-6.4
		c-2.5-0.7-5.1-1.2-7.7-1.6v8.3c0,0.3,0,0.7,0,1.1C535.6,375.3,538.2,374.8,540.5,374.3z M540.5,365.8v-9.5h-7.7v7.9
		C535.4,364.6,537.9,365.1,540.5,365.8z M563.3,370.9v2.2c-1.3,4.3-3.3,7.9-6.1,10.9c2.6,2.2,5.9,4,9.8,5.6l-1.3,2
		c-4-1.8-7.4-3.8-10.1-6.1c-2.9,2.5-6.4,4.5-10.5,6l-1.3-1.9c4-1.5,7.3-3.3,10-5.6c-3.2-3.1-5.3-6.7-6.4-10.7h-2.2v-2.3H563.3z
		 M561.1,354.2v9.8c0,0.8,0.4,1.3,1.4,1.3h3.6v2.2H562c-2.2,0-3.2-1-3.2-3.1v-7.9h-8.2v3.1c0,4-1.4,7.1-4.3,9.3l-1.6-1.8
		c2.3-1.7,3.5-4.1,3.5-7.3v-5.6H561.1z M555.5,382.5c2.5-2.6,4.4-5.7,5.6-9.2h-11.4C550.7,376.7,552.7,379.8,555.5,382.5z"/>
	<path fill="#58595B" d="M613.8,354.2v2.1h-13.1v4h9.7v9.2H579v-9.2h9.7v-4h-13.1v-2.1H613.8z M613.1,378.9v2h-16.8v10.5H594v-10.5
		h-17.8v-2H613.1z M589,384.5c-2.9,2.5-6.6,4.7-10.9,6.6l-1.4-1.8c4.2-1.8,7.8-3.8,10.8-6.2L589,384.5z M609.1,373.1v2.1h-28.5v-2.1
		H609.1z M588.7,362.2h-7.5v5.2h7.5V362.2z M598.4,356.2h-7.5v4h7.5V356.2z M598.4,362.2h-7.5v5.2h7.5V362.2z M608.2,362.2h-7.5v5.2
		h7.5V362.2z M613.5,389.5l-1.6,1.6c-2.5-2.1-5.9-4.3-10.2-6.6l1.6-1.5C607.3,385.2,610.8,387.4,613.5,389.5z"/>
	<path fill="#58595B" d="M632.2,355.7v-3.5h2.3v3.5h15.6v-3.5h2.3v3.5h7.9v2h-7.9v14.9h8.6v2.1h-9.6c2.2,2.9,5.6,5.3,10.2,6.9l-1,2
		c-5.4-2.3-9.3-5.3-11.5-8.9h-13.8c-2.2,3.7-5.9,6.7-11.1,9.1l-1.2-1.9c4.6-1.9,7.9-4.3,10-7.2h-9.5v-2.1h8.6v-14.9h-7.9v-2H632.2z
		 M643.5,376.6v3.8h9v2.1h-9v5.5h15v2.2h-32.7V388h15.3v-5.5h-9.1v-2.1h9.1v-3.8H643.5z M650.1,361.5v-3.8h-15.6v3.8H650.1z
		 M650.1,367v-3.6h-15.6v3.6H650.1z M650.1,372.7v-3.8h-15.6v3.8H650.1z"/>
	<path fill="#58595B" d="M691,352.7c4.2,5.3,10.4,9.6,18.4,13l-1.3,1.9c-7.5-3.2-13.6-7.5-18.1-12.7c-5.1,5.4-11.1,9.6-18.2,12.8
		l-1.3-1.9c7.5-3.4,13.7-7.8,18.5-13.2H691z M701.3,364.6v2.1h-10.1v7h15.7v2.2h-15.7v12.3h5.4c1.6-2.9,3-6.1,4.2-9.5l2.1,0.8
		c-1.2,3.3-2.5,6.2-3.9,8.7h9.4v2.2h-36.8v-2.2h9.4c-1-2.9-2.2-5.7-3.8-8.4l2.1-0.8c1.5,2.5,2.8,5.6,4,9.2h5.6v-12.3h-15.7v-2.2
		h15.7v-7h-10.1v-2.1H701.3z"/>
	<path fill="#58595B" d="M731.6,356.6l12.4,30.8H741l-3.6-9.2h-14.9l-3.6,9.2h-2.9l12.4-30.8H731.6z M736.6,376l-6.5-16.5H730
		l-6.5,16.5H736.6z"/>
	<path fill="#58595B" d="M767.5,367.1c1.3,1.4,2,3.4,2,6v14.4h-2.5v-4.3c-0.9,1.3-2.1,2.4-3.6,3.3c-1.8,1-3.8,1.6-5.9,1.6
		c-2.2,0-3.9-0.6-5.2-1.6c-1.4-1.1-2.1-2.6-2.1-4.4c0-2.6,1-4.5,3.2-5.7c1.8-1.2,4.4-1.8,7.8-1.8l5.7-0.1v-1.3
		c0-4.2-2.2-6.4-6.5-6.4c-1.8,0-3.3,0.3-4.4,1.1c-1.3,0.8-2.1,2-2.5,3.5l-2.6-0.2c0.4-2.2,1.6-4,3.4-5.1c1.6-1.1,3.7-1.6,6.2-1.6
		C763.7,364.5,766,365.4,767.5,367.1z M761.4,376.5c-5.7,0-8.5,1.9-8.5,5.4c0,1.2,0.5,2.2,1.4,2.9c1,0.7,2.2,1.1,3.8,1.1
		c2.2,0,4.3-0.8,6.1-2.3c1.8-1.5,2.7-3.1,2.7-4.8v-2.3L761.4,376.5z"/>
	<path fill="#58595B" d="M798.9,356v31.5h-2.5v-4.4c-1.6,3.3-4.1,5-7.8,5c-3.2,0-5.7-1.2-7.6-3.5c-1.6-2.2-2.5-4.9-2.5-8.3
		c0-3.3,0.8-6,2.5-8.2c1.8-2.4,4.3-3.6,7.4-3.6c3.5,0,6.2,1.8,7.8,5.3V356H798.9z M783.1,369.6c-1.3,1.6-1.9,3.9-1.9,6.7
		c0,2.8,0.6,5.1,1.8,6.7c1.3,1.9,3.3,2.9,5.8,2.9c2.4,0,4.3-1,5.7-2.8c1.2-1.7,1.9-3.8,1.9-6.5v-0.5c0-2.8-0.7-5-2-6.7
		c-1.4-1.8-3.2-2.7-5.4-2.7C786.4,366.7,784.4,367.7,783.1,369.6z"/>
	<path fill="#58595B" d="M824.9,369.1c0.8-1.5,1.8-2.6,3-3.4c1.1-0.8,2.5-1.2,4.1-1.2c2.3,0,4.2,0.7,5.6,2.2c1.3,1.5,2,3.5,2,6.1
		v14.6H837v-14.3c0-2.1-0.4-3.7-1.3-4.8c-0.9-1.1-2.5-1.7-4.4-1.7c-1.6,0-3,0.6-4.1,1.9c-1.1,1.2-1.6,2.7-1.6,4.6v14.2h-2.6v-14.3
		c0-4.3-1.9-6.4-5.6-6.4c-1.7,0-3.1,0.6-4.2,2c-1.2,1.3-1.7,3-1.7,4.9v13.7h-2.6v-22.3h2.6v3.4c1.6-2.7,3.8-4,6.5-4
		C821.4,364.5,823.7,366,824.9,369.1z"/>
	<path fill="#58595B" d="M865.4,366.5c1.7,1.3,2.7,3.3,3.1,6h-2.6c-0.3-1.9-1-3.3-2.2-4.2c-1.2-1-2.8-1.4-4.8-1.4
		c-2.3,0-4.2,0.9-5.6,2.7c-1.4,1.7-2,4.1-2,7c0,2.9,0.6,5.1,1.9,6.8c1.3,1.7,3.2,2.5,5.7,2.5c4.1,0,6.5-2.1,7.2-6.4h2.5
		c-0.4,2.8-1.5,5-3.2,6.4c-1.6,1.4-3.8,2.2-6.5,2.2c-3.3,0-5.9-1.1-7.7-3.4c-1.7-2.1-2.5-4.8-2.5-8.3c0-3.4,0.9-6.2,2.6-8.4
		c1.9-2.4,4.4-3.5,7.6-3.5C861.6,364.5,863.7,365.2,865.4,366.5z"/>
	<path fill="#58595B" d="M886.5,356.6v30.8h-2.7v-27.6c-2,2.2-4.4,3.7-7.4,4.5v-2.7c1.4-0.4,2.9-1.1,4.2-1.9c1.4-0.9,2.6-2,3.7-3.2
		H886.5z"/>
	<path fill="#58595B" d="M907.5,351.7c-1.7,2.8-3.1,5.8-4.1,9c-1.3,3.8-1.9,7.5-1.9,11.2c0,3.6,0.6,7.4,1.9,11.2
		c1,3.2,2.4,6.1,4.1,9h-2.4c-1.8-2.8-3.2-5.7-4.3-8.9c-1.3-3.8-1.9-7.6-1.9-11.3c0-3.7,0.6-7.5,1.9-11.2c1-3.2,2.5-6.2,4.3-8.9
		H907.5z"/>
	<path fill="#58595B" d="M124.7,434.5l-1.6,1.7c-1.8-2-4.2-4.1-7.3-6.3l1.6-1.6C120.4,430.4,122.8,432.4,124.7,434.5z M124.9,440.5
		c-1.9,5.5-4,10.6-6.3,15.4l-2.2-0.9c2.5-5,4.6-10.1,6.4-15.3L124.9,440.5z M125.9,424.1l-1.6,1.7c-1.8-2-4.2-4.1-7.3-6.2l1.6-1.6
		C121.5,420,123.9,422,125.9,424.1z M138.6,444.7c0.3-1,0.6-2.2,0.8-3.3h2.2c-0.2,1.2-0.4,2.3-0.7,3.3h13.7v2.1h-14.4
		c-0.8,1.7-1.8,3.2-3.1,4.5c-2.3,2.2-6.2,4-11.5,5.2l-0.9-2.1c4.9-1,8.4-2.5,10.6-4.5c0.9-0.9,1.7-1.9,2.3-3.1h-12v-2.1H138.6z
		 M141.2,417c-0.3,1.3-0.9,2.5-1.5,3.6h13v18.8c0,1.6-0.9,2.5-2.5,2.5h-2.5l-0.5-1.9l2.4,0.1c0.6,0,1-0.4,1-1.2v-16.3h-20.4V442
		h-2.2v-21.4h9.5c0.7-1.3,1.2-2.5,1.5-3.9L141.2,417z M147.8,425.9c-1.9,0.6-4,1-6.4,1.3v5h1.9c0.9-1.4,1.7-2.8,2.2-4.1l1.6,0.7
		c-0.6,1.3-1.3,2.4-1.9,3.5h3.1v1.8h-6.8v0.6c2,1,4.1,2.2,6.2,3.6l-1.1,1.6c-2-1.6-3.7-2.8-5.1-3.8v4.5h-2v-5c-1.9,2-4,3.7-6.4,5.1
		l-1-1.8c2.7-1.2,5.1-2.8,7.2-4.9h-6.9v-1.8h3c-0.5-1-1.1-2-1.6-2.8l1.6-0.6c0.7,1,1.3,2.2,1.8,3.4h2.3v-4.8c-2,0.2-4.1,0.3-6.4,0.3
		l-0.6-1.8c5.8,0,10.6-0.6,14.3-1.6L147.8,425.9z M154.8,454.6l-1.3,1.9c-4.1-2.6-8.3-4.7-12.6-6.2l1.1-1.7
		C146.7,450.3,150.9,452.3,154.8,454.6z"/>
	<path fill="#58595B" d="M177.2,438.5l-0.5-1.9l2.2,0.1c0.8,0,1.3-0.5,1.3-1.4v-10h-6v12.9h-1.9v-12.9H166v13.2h-2v-15.2h8.2v-6.2h2
		v6.2h7.9v12.4c0,1.8-0.9,2.8-2.6,2.8H177.2z M169.5,422l-1.7,0.9c-1-1.7-1.9-3.3-2.9-4.6l1.8-0.9
		C167.7,418.8,168.6,420.3,169.5,422z M189.6,453.9l-0.6-2.2l3.8,0.1c1.1,0,1.6-0.5,1.6-1.6v-5.9h-11.8v12.2h-2.3v-12.2h-11.8v9.1
		h-2.3v-11.2h14.2v-3.5h2.3v3.5h14.2v8.6c0,2.1-1.1,3.2-3.2,3.2H189.6z M170.4,427.8c-0.2,2.8-0.6,5.3-1.4,7.5l-1.6-0.6
		c0.8-2.1,1.3-4.4,1.4-7.1L170.4,427.8z M178.7,433.3l-1.6,0.4c-0.4-2.1-0.9-4.1-1.6-5.9l1.5-0.5
		C177.6,429.1,178.2,431.1,178.7,433.3z M181.4,418.2c-0.7,1.6-1.6,3.1-2.8,4.6l-1.8-0.9c1.1-1.6,2-3.1,2.7-4.5L181.4,418.2z
		 M184.2,429.7l-1.3-1.7c2.8-3,4.7-6.6,5.7-10.9l2.1,0.3c-0.3,1.5-0.8,2.9-1.3,4.2H200v2.1h-2.1c-1,3.6-2.4,6.6-4.3,9
		c2.2,1.7,4.6,3.3,7.4,4.7l-1.1,1.9c-3-1.5-5.6-3.2-7.7-5.1c-2.1,2-4.5,3.5-7.4,4.5l-1.1-1.8c2.8-1,5.1-2.3,7-4.1
		c-1.4-1.4-2.6-2.8-3.6-4.3l1.1-1.6c1.1,1.6,2.4,3,3.9,4.4c1.7-2.1,3-4.7,3.8-7.6h-7.3C187.4,425.9,185.9,427.9,184.2,429.7z"/>
	<path fill="#58595B" d="M217.8,428.2v1.9c-1.4,2.6-3,5.2-4.8,7.6h5.1v1.6c-0.7,3.8-1.6,7-2.7,9.5c0.4,0.2,0.9,0.5,1.3,0.9
		c1.4,1.3,2.9,2.3,4.5,3.1c1.6,0.6,3.7,0.9,6.4,1c2.5,0,5.4,0,8.6,0c2.9,0,6.7-0.1,11.3-0.2l-0.5,2.2h-10.5c-3.6,0-6.7,0-9.1-0.1
		c-3.2-0.1-5.6-0.5-7.2-1.2c-1.9-0.8-3.6-1.9-5.1-3.5c-0.4-0.3-0.8-0.4-1.1-0.4c-1,0-2.3,1.9-3.9,5.8l-1.7-1.5
		c1.6-3.8,3.2-5.9,4.8-6.4c1.1-2.5,1.9-5.4,2.6-8.7h-5.6v-1.8c1.9-2.5,3.6-5,5-7.5h-6.4v-2.2H217.8z M217.9,423.6l-1.6,1.6
		c-1.6-1.8-3.7-3.7-6.4-5.7l1.6-1.5C214,419.8,216.2,421.7,217.9,423.6z M220.2,448.9l-1.6-1.4c2.1-4.6,3.2-10.5,3.2-17.8v-10.3
		h10.3v11.9h-8.3C223.7,438.1,222.4,444,220.2,448.9z M223.9,421.6v7.8h6.2v-7.8H223.9z M232.9,435.6v13.8h-8.2v-13.8H232.9z
		 M231,437.5h-4.5v10.1h4.5V437.5z M234.1,434.2v-2.1h7.6c1-2.2,1.8-4.6,2.3-7l1.9,0.2c-0.5,2.5-1.3,4.8-2.2,6.8h3.9v2.1h-5.7v5.5
		h4.9v2.1h-4.9v8.7h-2.2v-8.7h-5.1v-2.1h5.1v-5.5H234.1z M242,421.4h5.4v2.1h-13.2v-2.1h5.8c-0.5-1.5-1-2.8-1.6-4l2.1-0.3
		C241.1,418.4,241.5,419.8,242,421.4z M239.6,430.4l-1.7,0.7c-0.7-1.9-1.5-3.7-2.2-5.1l1.7-0.7C238.2,426.9,238.9,428.6,239.6,430.4
		z"/>
	<path fill="#58595B" d="M268.5,419.1v1.9c-1.2,4.1-2.6,8.3-4.2,12.6c2.5,3.5,3.8,6.9,4,10c0,1.7-0.5,3-1.3,3.8
		c-1,1-2.9,1.5-5.6,1.5l-0.7-2.3c0.5,0,0.9,0.1,1.3,0.1c1.6-0.1,2.7-0.4,3.2-0.8c0.5-0.4,0.8-1.2,0.8-2.3c0-2.9-1.3-6.1-4-9.6
		c1.8-4.7,3.2-8.9,4.2-12.6h-7.1v35.2h-2.3v-37.4H268.5z M268.8,456.3l-1.6-1.4c3.6-2.7,6.4-6.4,8.2-11l2,0.8
		c-0.5,1.2-1.1,2.3-1.6,3.4c1.8,1.2,3.3,2.4,4.6,3.6l-1.5,1.5c-1.1-1.1-2.4-2.3-4-3.5C273,452.4,271,454.6,268.8,456.3z M269,429.1
		l-1.2-1.9c5.2-2.5,9.2-5.7,12.1-9.7h2c2.3,3.6,6.4,6.8,12.1,9.5l-1.3,1.9c-5.4-2.5-9.3-5.6-11.9-9.3c-2.1,2.7-4.5,4.9-7.1,6.7h14.1
		v2.1h-14.3v-2C272.1,427.5,270.6,428.3,269,429.1z M279.4,432.2v10.2h-9.2v-10.2H279.4z M277.5,434.1h-5.3v6.4h5.3V434.1z
		 M280.4,456.3l-1.6-1.4c3.5-2.7,6.2-6.3,8-10.8l1.9,0.8c-0.6,1.3-1.2,2.6-1.9,3.7c2.8,1.9,5.1,3.8,7,5.7l-1.5,1.5
		c-1.6-1.8-3.8-3.7-6.4-5.6C284.3,452.7,282.4,454.7,280.4,456.3z M291.9,432.2v10.2h-9.2v-10.2H291.9z M290,434.1h-5.3v6.4h5.3
		V434.1z"/>
	<path fill="#58595B" d="M301.6,420.8c4.7-0.5,8.8-1.5,12.4-2.9l0.7,2c-1.6,0.6-3.4,1.2-5.3,1.6v7.7h4.4v2h-4.4v2.5
		c1.7,2,3.5,4.2,5.3,6.7l-1.3,1.9c-1.6-2.8-2.9-4.9-4-6.6v20.5h-2.2V436c-1.3,4.1-3.1,7.9-5.4,11.2l-1-2.4c3-4,5.1-8.5,6.3-13.5
		h-5.4v-2h5.5v-7.2c-1.6,0.3-3.4,0.6-5.2,0.9L301.6,420.8z M318.8,448.1c-0.8,3.1-1.9,5.7-3.4,8l-1.8-1.1c1.5-2.2,2.5-4.6,3.2-7.3
		L318.8,448.1z M320.3,425.9c-0.7-1.3-1.4-2.4-2.2-3.4l1.8-0.7c1,1.3,1.7,2.7,2.4,4.1h4.9c-0.7-1.3-1.4-2.5-2.2-3.6l1.9-0.7
		c0.9,1.4,1.6,2.8,2.3,4.4h3.2c0.9-1.4,1.6-3.1,2.3-5.1l2,0.5c-0.6,1.7-1.3,3.2-2.2,4.6h3.2v1.9h-9.3v3.1h10.5v1.9h-23.2v-1.9h10.5
		v-3.1h-9.2v-1.9H320.3z M317.4,445.9v-1.8h17.4v-2.7H316v-1.7h18.8V437h-17.1v-1.8H337v4.3h3.4v1.9H337v4.4H317.4z M338.7,419.2
		c-5.4,1.2-12.7,1.8-21.8,1.8l-0.6-1.9c8.7,0,15.9-0.6,21.4-1.7L338.7,419.2z M324.4,455.9c-2.1,0-3.1-0.9-3.1-2.7v-5.7h2.2v5.2
		c0,0.9,0.5,1.3,1.5,1.3h6c0.7,0,1.1-0.2,1.4-0.4c0.3-0.4,0.6-1.6,0.7-3.5l2,0.6c-0.2,2.4-0.6,4-1.3,4.6c-0.5,0.4-1.3,0.6-2.5,0.6
		H324.4z M330.6,450.5l-1.6,1.2c-0.8-1.4-1.9-2.9-3.2-4.6l1.5-0.9C328.8,447.8,329.8,449.2,330.6,450.5z M340.6,454.2l-1.6,1.2
		c-1-2.1-2.4-4.4-4.2-7l1.6-1C338.2,449.9,339.6,452.2,340.6,454.2z"/>
	<path fill="#58595B" d="M379.9,430.2v2.2h-11.2v8.4h13.2v2.2h-13.2v9.7c3,0.5,6.7,0.7,11.1,0.8c2.2,0,4.5-0.1,6.9-0.2l-0.5,2.3
		h-5.4c-8.5,0-14.6-0.8-18.2-2.3c-3-1.4-5.4-3.7-7.1-6.7c-1.7,3.9-3.8,7.2-6.4,9.9l-1.5-1.9c4.2-4.5,7.1-10.7,8.6-18.4l2.2,0.4
		c-0.6,2.7-1.3,5.2-2,7.5c2.1,4,4.8,6.5,8,7.6c0.6,0.2,1.3,0.3,1.9,0.5v-19.9h-11.6v-2.2H379.9z M384.6,430.5h-2.3v-6.6h-30.1v6.7
		h-2.3v-9h16.7c-0.7-1.7-1.5-3.2-2.2-4.6l2.5-0.4c0.7,1.5,1.5,3.1,2.2,5h15.6V430.5z"/>
	<path fill="#58595B" d="M400.1,456.5l-1.8-1.6c3-3.9,4.5-8.9,4.6-14.9v-21h23.9v33.7c0,2.2-1.1,3.3-3.2,3.3h-5.7l-0.6-2.2
		c2,0,3.8,0.1,5.5,0.1c1.1,0,1.7-0.7,1.7-2v-9.4H405C404.6,448.2,403,452.8,400.1,456.5z M424.5,421.3h-19.3v8.3h19.3V421.3z
		 M405.2,440.3h19.3v-8.5h-19.3V440.3z"/>
	<path fill="#58595B" d="M460.1,419.1v2.2h-5.8v5.8h5.1v28.8h-2.1v-2.1h-13.1v2.3h-2v-29.1h4.8v-5.8h-5.9v-2.2H460.1z M457.3,451.7
		v-11.5h-2.6c-1.6,0-2.5-0.8-2.5-2.4v-8.6H449v3.4c0,4.5-1.1,7.9-3.2,10l-1.3-1.1c1.8-1.9,2.8-4.8,2.8-8.9v-3.4h-3.3v22.5H457.3z
		 M455.2,444.8v2h-9.1v-2H455.2z M452.3,427.1v-5.8h-3.4v5.8H452.3z M457.3,429.2h-3.4v8.2c0,0.6,0.4,1,1.2,1h2.2V429.2z
		 M478.2,453.3c-0.6,1.3-1.9,1.9-3.8,1.9h-8c-2.4,0-3.6-1.3-3.6-3.8v-17.9h12.1v-12.3h-13v-2.2h15.2v16.7h-12v15
		c0,1.5,0.7,2.2,2.2,2.3h6.8c1.3,0,2.2-0.6,2.6-1.9c0.4-1.2,0.6-3.6,0.8-7.3l2.2,0.7C479.3,449.1,478.9,452,478.2,453.3z"/>
	<path fill="#58595B" d="M490.3,416.5c1.8,2.8,3.2,5.7,4.3,8.9c1.2,3.8,1.9,7.5,1.9,11.2c0,3.7-0.6,7.5-1.9,11.3
		c-1.1,3.2-2.5,6.1-4.3,8.9h-2.4c1.7-2.9,3.1-5.8,4.1-9c1.2-3.8,1.9-7.6,1.9-11.2c0-3.7-0.6-7.4-1.9-11.2c-1-3.2-2.4-6.2-4.1-9
		H490.3z"/>
	<path fill="#58595B" d="M535.9,416.5c-1.7,2.8-3.1,5.8-4.1,9c-1.3,3.8-1.9,7.5-1.9,11.2c0,3.6,0.6,7.4,1.9,11.2
		c1,3.2,2.4,6.1,4.1,9h-2.4c-1.8-2.8-3.2-5.7-4.3-8.9c-1.3-3.8-1.9-7.6-1.9-11.3c0-3.7,0.6-7.5,1.9-11.2c1-3.2,2.5-6.2,4.3-8.9
		H535.9z"/>
	<path fill="#58595B" d="M562.6,425.3v-8.1h2.3v8.1h17.2v2.3h-14.7c3,7.2,8.3,13.6,16,19.1l-1.6,2c-7.9-6.3-13.4-13.3-16.4-21.2
		h-0.6v17.5h9.6v2.3h-9.6v9.1h-2.3v-9.1h-9.2v-2.3h9.2v-17.5H562c-3.2,8.9-8.8,16.1-16.8,21.7l-1.3-2.1c7.6-5.1,13-11.6,16.2-19.6
		h-14.8v-2.3H562.6z"/>
	<path fill="#58595B" d="M600,420.5V417h2.3v3.5h15.6V417h2.3v3.5h7.9v2h-7.9v14.9h8.6v2.1h-9.6c2.2,2.9,5.6,5.3,10.2,6.9l-1,2
		c-5.4-2.3-9.3-5.3-11.5-8.9h-13.8c-2.2,3.7-5.9,6.7-11.1,9.1l-1.2-1.9c4.6-1.9,7.9-4.3,10-7.2h-9.5v-2.1h8.6v-14.9h-7.9v-2H600z
		 M611.3,441.4v3.8h9v2.1h-9v5.5h15v2.2h-32.7v-2.2H609v-5.5h-9.1v-2.1h9.1v-3.8H611.3z M617.9,426.3v-3.8h-15.6v3.8H617.9z
		 M617.9,431.8v-3.6h-15.6v3.6H617.9z M617.9,437.5v-3.8h-15.6v3.8H617.9z"/>
	<path fill="#58595B" d="M657.6,417.5c4.2,5.3,10.4,9.6,18.4,13l-1.3,1.9c-7.5-3.2-13.6-7.5-18.1-12.7c-5.1,5.4-11.1,9.6-18.2,12.8
		l-1.3-1.9c7.5-3.4,13.7-7.8,18.5-13.2H657.6z M667.9,429.4v2.1h-10.1v7h15.7v2.2h-15.7V453h5.4c1.6-2.9,3-6.1,4.2-9.5l2.1,0.8
		c-1.2,3.3-2.5,6.2-3.9,8.7h9.4v2.2h-36.8V453h9.4c-1-2.9-2.2-5.7-3.8-8.4l2.1-0.8c1.5,2.5,2.8,5.6,4,9.2h5.6v-12.3h-15.7v-2.2h15.7
		v-7h-10.1v-2.1H667.9z"/>
	<path fill="#58595B" d="M703,419.1v2.2h-5.8v5.8h5.1v28.8h-2.1v-2.1h-13.1v2.3h-2v-29.1h4.8v-5.8H684v-2.2H703z M700.2,451.7v-11.5
		h-2.6c-1.6,0-2.5-0.8-2.5-2.4v-8.6h-3.2v3.4c0,4.5-1.1,7.9-3.2,10l-1.3-1.1c1.8-1.9,2.8-4.8,2.8-8.9v-3.4h-3.3v22.5H700.2z
		 M698.1,444.8v2H689v-2H698.1z M695.2,427.1v-5.8h-3.4v5.8H695.2z M700.2,429.2h-3.4v8.2c0,0.6,0.4,1,1.2,1h2.2V429.2z
		 M721.1,453.3c-0.6,1.3-1.9,1.9-3.8,1.9h-8c-2.4,0-3.6-1.3-3.6-3.8v-17.9h12.1v-12.3h-13v-2.2H720v16.7h-12v15
		c0,1.5,0.7,2.2,2.2,2.3h6.8c1.3,0,2.2-0.6,2.6-1.9c0.4-1.2,0.6-3.6,0.8-7.3l2.2,0.7C722.2,449.1,721.8,452,721.1,453.3z"/>
	<path fill="#58595B" d="M736.6,444.8c-1.1,4-2.5,7.4-4.5,10.3l-1.9-1.3c1.9-2.8,3.3-5.9,4.1-9.4L736.6,444.8z M745.8,420.5
		c0.6-1.2,1.1-2.4,1.5-3.6l2.4,0.3c-0.3,1.2-0.8,2.2-1.4,3.3H763v20.6h-26.6v-20.6H745.8z M760.7,426.7v-4.2h-22v4.2H760.7z
		 M760.7,432.8v-4.1h-22v4.1H760.7z M760.7,434.7h-22v4.3h22V434.7z M743.4,455.8c-2.2,0-3.3-1.1-3.3-3.2v-8.5h2.4v8
		c0,1.1,0.5,1.7,1.6,1.7h10.1c1.1,0,1.9-0.3,2.3-0.7c0.6-0.6,1-2.5,1.2-5.5l2.2,0.7c-0.3,3.5-0.9,5.7-1.7,6.6c-0.7,0.6-1.9,1-3.5,1
		H743.4z M754.2,448.7l-1.8,1.3c-1.4-1.9-3.3-4-5.7-6.3l1.7-1.1C751,444.9,752.9,447,754.2,448.7z M769.2,453l-1.9,1.3
		c-1.6-2.9-3.8-6-6.7-9.5l1.8-1.2C765.4,447.2,767.7,450.3,769.2,453z"/>
	<path fill="#58595B" d="M794.8,424.3h-16.2V422h16.2v-4.8h2.3v4.8h16.2v2.3h-16.2v12.3c4.8,6.7,10.9,12,18.4,15.7l-1.3,2.1
		c-6.7-3.5-12.4-8.3-17.2-14.4v16.3h-2.3v-16.2c-4.2,5.8-9.9,10.6-17,14.3l-1.2-2.1c7.9-4.1,14-9.3,18.2-15.8V424.3z M779.4,440.6
		l-1.5-1.8c3.9-3.2,6.5-7.4,7.9-12.7l2.2,0.4c-0.6,2.3-1.4,4.4-2.4,6.4c2.2,1.3,4.1,2.7,6,4.4l-1.3,2c-1.9-1.9-3.8-3.4-5.7-4.5
		C783.1,437.1,781.4,439,779.4,440.6z M801.8,439.4l-1.5-1.8c3.3-2.8,5.6-6.6,6.8-11.4l2.2,0.4c-0.6,2.2-1.3,4.2-2.2,6
		c2.4,1.5,4.7,3.2,6.8,5.3l-1.3,2c-2.2-2.2-4.3-4.1-6.5-5.4C804.9,436.4,803.4,438.1,801.8,439.4z"/>
	<path fill="#58595B" d="M832,435.1l-1.6,1.6c-1.8-2-4.2-4.2-7.3-6.5l1.6-1.5C827.6,430.8,830,432.9,832,435.1z M832.4,441
		c-2,5.4-4.2,10.6-6.6,15.3l-2.2-1c2.6-4.9,4.9-10,6.8-15.2L832.4,441z M833.3,424.8l-1.6,1.6c-1.9-2.1-4.5-4.4-7.8-6.7l1.6-1.5
		C828.6,420.3,831.2,422.5,833.3,424.8z M848,425.8c0.6-1.5,1.1-3,1.3-4.6H838v13.6c-0.2,9-1.8,16.2-4.9,21.7l-1.8-1.6
		c2.8-4.8,4.3-11.6,4.4-20.1V419h25.5v2.1h-9.8c-0.3,1.6-0.8,3.2-1.4,4.6h8.8v14.7h-7.4v12.8c0,2.1-1,3.1-3,3.1h-3.6l-0.5-2.2
		c1.1,0.1,2.2,0.2,3.3,0.2c1,0,1.6-0.6,1.6-1.6v-12.3h-7.7v-14.7H848z M845.1,444.3c-1.1,3.8-2.8,7.2-4.9,9.9l-1.9-1.2
		c2.1-2.7,3.6-5.7,4.6-9.2L845.1,444.3z M856.8,432.2v-4.5h-13.1v4.5H856.8z M856.8,434.1h-13.1v4.4h13.1V434.1z M861.8,453.4
		l-2,0.9c-1.5-3.7-3.1-7-4.8-9.9l2-0.6C858.8,446.7,860.4,449.9,861.8,453.4z"/>
	<path fill="#58595B" d="M908,419.9v2.3h-5.9v30c0,2.7-1.3,4-4,4h-7.1l-0.5-2.2c2.4,0.1,4.7,0.2,6.8,0.2c1.6,0,2.4-0.9,2.4-2.5
		v-29.4h-30.1v-2.3H908z M891.1,444.8h-13.9v3.9h-2.2v-19.2h16.2V444.8z M888.9,442.6v-11h-11.7v11H888.9z"/>
	<path fill="#58595B" d="M129.3,507c-1.6-0.3-3.1-0.6-4.5-0.8c-1.3-0.2-2.6-0.4-3.9-0.5v2.6c-0.1,5.4-1.3,9.8-3.7,13.1l-1.7-1.6
		c2-3,3.1-6.8,3.1-11.4v-11h15.3v21c0,1.8-1,2.8-3,2.8h-4l-0.6-2.2c1.4,0,2.7,0.1,3.9,0.1c1,0,1.5-0.5,1.5-1.5V512
		c-3.1,0.6-6.4,1.2-9.9,1.6l-0.5-2c3.6-0.4,7.1-0.9,10.5-1.6v-10.5h-10.8v4.3c2,0.2,3.7,0.4,5,0.6c1,0.1,2.5,0.4,4.2,0.7L129.3,507z
		 M136.7,494.4l-1.9,1.3c-0.5-1-1-2-1.6-3c-4.6,0.7-10.1,1.3-16.6,1.7l-0.6-2c0.4-0.1,0.8-0.3,1.1-0.6c2.7-2.7,5.1-6,7.1-9.9
		l2.2,0.6c-2.2,4.2-4.5,7.5-7,9.7c4.1-0.2,8.3-0.6,12.8-1.3c-1-1.6-2-3.1-3.2-4.7l1.8-1.2C133.4,488.7,135.3,491.8,136.7,494.4z
		 M140.9,482.2v5.8l11.9-0.8v2.2l-11.9,0.8v6.5c0,1.1,0.6,1.6,1.7,1.6h10.9v2.2H142c-2.3,0-3.5-1.2-3.5-3.4v-14.9H140.9z
		 M141.8,520.6c-2.2,0-3.2-1.1-3.2-3.2v-14.9h2.3v5l12.1-0.7v2.2l-12.1,0.8v7.2c0,1,0.5,1.6,1.6,1.6h6.5c1,0,1.8-0.3,2.2-0.7
		c0.5-0.6,0.9-2.3,1-5.2l2.2,0.7c-0.3,3.4-0.8,5.5-1.6,6.4c-0.7,0.6-1.8,0.9-3.3,0.9H141.8z"/>
	<path fill="#58595B" d="M199.7,504.8c-0.1,7.9-0.6,12.6-1.5,14.1c-0.9,1.6-2.6,2.3-5.1,2.3c-1.2,0-2.6,0-4.2-0.1l-0.6-2.2
		c1.8,0.1,3.2,0.1,4.4,0.2c2,0,3.3-0.7,3.8-2s0.8-4.7,0.9-10.2h-27.3c-2.1,2.2-4.5,4.1-7,5.8l-1.1-2.1c6.9-4.7,11.9-11.1,14.9-19.4
		h-12.1V489h12.8c0.7-2.4,1.3-4.8,1.8-7.4l2.3,0.3c-0.5,2.5-1.1,4.9-1.8,7.1h13.6l-1.9,7.6h5.5l-1.7,8.1H199.7z M172.6,510.8
		c-1.2,3.5-2.9,6.6-5,9.2l-2-1.3c2.2-2.5,3.8-5.2,4.8-8.3L172.6,510.8z M174.2,487.3l-1.8,1.3c-1-1.6-2.2-3.2-3.7-5.1l1.8-1.2
		C172.2,484.3,173.4,485.9,174.2,487.3z M171.9,504.8h21.2l1.5-6H176C174.7,501,173.4,502.9,171.9,504.8z M179.5,518.8l-2.2,0.3
		c-0.3-3.5-0.8-6.1-1.6-7.9l2-0.3C178.7,512.7,179.3,515.4,179.5,518.8z M179.3,491.1c-0.7,1.9-1.4,3.8-2.2,5.5h12.4l1.5-5.5H179.3z
		 M186.8,516.9l-2.1,0.8c-0.8-2.5-1.7-4.8-2.7-7.2l1.9-0.6C185.2,512.5,186.1,514.8,186.8,516.9z M193.4,515.3l-2.2,0.5
		c-0.7-2.2-1.6-4.2-2.7-6.2l1.9-0.6C191.6,510.8,192.5,512.8,193.4,515.3z"/>
	<path fill="#58595B" d="M226.8,490.1V482h2.3v8.1h17.2v2.3h-14.7c3,7.2,8.3,13.6,16,19.1l-1.6,2c-7.9-6.3-13.4-13.3-16.4-21.2h-0.6
		v17.5h9.6v2.3h-9.6v9.1h-2.3v-9.1h-9.2v-2.3h9.2v-17.5h-0.6c-3.2,8.9-8.8,16.1-16.8,21.7l-1.3-2.1c7.6-5.1,13-11.6,16.2-19.6h-14.8
		v-2.3H226.8z"/>
	<path fill="#58595B" d="M275.4,482.3c4.2,5.3,10.4,9.6,18.4,13l-1.3,1.9c-7.5-3.2-13.6-7.5-18.1-12.7c-5.1,5.4-11.1,9.6-18.2,12.8
		l-1.3-1.9c7.5-3.4,13.7-7.8,18.5-13.2H275.4z M285.6,494.2v2.1h-10.1v7h15.7v2.2h-15.7v12.3h5.4c1.6-2.9,3-6.1,4.2-9.5l2.1,0.8
		c-1.2,3.3-2.5,6.2-3.9,8.7h9.4v2.2H256v-2.2h9.4c-1-2.9-2.2-5.7-3.8-8.4l2.1-0.8c1.5,2.5,2.8,5.6,4,9.2h5.6v-12.3h-15.7v-2.2h15.7
		v-7h-10.1v-2.1H285.6z"/>
	<path fill="#58595B" d="M304.5,481.3c1.8,2.8,3.2,5.7,4.3,8.9c1.2,3.8,1.9,7.5,1.9,11.2c0,3.7-0.6,7.5-1.9,11.3
		c-1.1,3.2-2.5,6.1-4.3,8.9h-2.4c1.7-2.9,3.1-5.8,4.1-9c1.2-3.8,1.9-7.6,1.9-11.2c0-3.7-0.6-7.4-1.9-11.2c-1-3.2-2.4-6.2-4.1-9
		H304.5z"/>
</g>
<path fill="#FFD25C" d="M1019.6,297.4H0v-236C0,27.5,27.5,0,61.4,0h896.8c33.9,0,61.4,27.5,61.4,61.4V297.4z"/>
<path fill="#FFD25C" d="M889.4,678.2h-755c-11.6,0-21-9.4-21-21v-73c0-11.6,9.4-21,21-21h755c11.6,0,21,9.4,21,21v73
	C910.4,668.8,901,678.2,889.4,678.2z"/>
<g>
	<g>
		<path fill="#58595B" d="M448.2,629.2c-0.2,3.2-0.6,6-1.3,8.6l-3.3-1c0.8-2.3,1.3-5,1.6-7.9L448.2,629.2z M451.9,617.7v-2.4h-7v-16
			h17.7v16h-7v2.4h6.6v3.2h-6.6v2.5h7.5v3.6h-18.7v-3.6h7.6V621h-6.7v-3.2H451.9z M452.1,602.4h-4v9.8h4V602.4z M451.8,610.4
			l-2.1,0.6c-0.4-2.1-0.9-4-1.5-5.8l2.1-0.7C450.8,606.2,451.4,608.2,451.8,610.4z M453.1,636.9l-3.3,0.4c0-3.4-0.1-6-0.3-7.9l3-0.4
			C452.8,631,453,633.6,453.1,636.9z M458.5,636.1l-3.3,0.7c-0.3-2.8-0.7-5.2-1.2-7.3l2.9-0.6C457.6,631.1,458.1,633.5,458.5,636.1z
			 M459.2,602.4h-4.1v9.8h4.1V602.4z M458.9,604.6c-0.2,2.2-0.6,4.4-1.3,6.4l-2.1-0.7c0.6-1.9,1-4,1.2-6.3L458.9,604.6z M463.4,635
			l-2.9,1.1c-0.5-2.4-1.1-4.7-1.7-7l2.9-0.8C462.4,630.7,463,633,463.4,635z M474.5,598.1v7.6h8.6v3.8h-8.6v6.9h7.1v21.3h-3.8v-2.1
			h-9.3v2.1h-3.8v-21.3h5.9v-18.3H474.5z M477.8,632v-11.8h-9.3V632H477.8z"/>
		<path fill="#58595B" d="M510.4,621.9c-2.3,0.8-4.8,1.5-7.4,2.2v9c0,2.8-1.5,4.2-4.4,4.2h-4.8l-0.9-3.9c1.5,0.2,2.9,0.3,4.3,0.3
			c1.1,0,1.6-0.5,1.6-1.6v-7c-2.6,0.6-5.2,1.1-8,1.5l-0.6-4.1c3-0.5,5.8-1,8.6-1.6v-7.7h-8.6v-3.9h8.6v-4.6
			c-2.2,0.4-4.4,0.8-6.7,1.1l-0.9-3.9c6-0.6,11.4-1.9,16.1-3.8l1.4,3.8c-1.9,0.6-3.8,1.3-5.8,1.8v5.5h9.3c-0.3-3.4-0.4-7.1-0.4-11.1
			h4.1c0,4.2,0.1,7.9,0.4,11.1h13v3.9h-12.7c0.3,2.9,0.6,5.2,1.2,7.1c0.2,0.8,0.4,1.6,0.6,2.2c1.9-2.2,3.5-4.8,4.9-7.6l3.5,1.9
			c-1.9,4-4.2,7.4-6.9,10.2c0.5,1.2,1,2.2,1.5,2.9c1.3,1.9,2.3,2.9,3,2.9c0.6,0,1.1-2.2,1.7-6.7l3.6,1.9c-1.1,6.1-2.7,9.2-4.8,9.2
			c-1.9,0-3.8-1.3-5.8-3.8c-0.8-1-1.6-2.2-2.2-3.6c-3,2.5-6.3,4.5-10,5.9l-2.3-3.5c4.1-1.5,7.6-3.6,10.6-6.4c-0.5-1.4-1-2.9-1.3-4.4
			c-0.6-2.3-1.1-5.1-1.4-8.3H503v6.8c2.6-0.7,5.1-1.4,7.4-2.2V621.9z M528.7,604.2l-3,2.9c-1.8-1.9-4.3-3.9-7.6-6.1l2.8-2.6
			C523.9,600.4,526.5,602.3,528.7,604.2z"/>
		<path fill="#58595B" d="M547.5,608.5v3.2c-1.3,2.2-2.8,4.5-4.4,6.7h5.7v2.7c-0.8,3.3-1.7,6-2.8,8c0.3,0.2,0.5,0.4,0.8,0.7
			c1.4,1.3,2.7,2.2,4,2.7c1.3,0.5,3.1,0.8,5.5,0.9c2.3,0,5.1,0,8.1,0c3.2,0,7.3-0.1,12.4-0.3l-0.9,3.9h-10.9c-3,0-6-0.1-8.8-0.2
			c-2.9-0.1-5.2-0.4-6.7-1c-1.8-0.7-3.5-1.8-4.9-3.3c-0.3-0.3-0.6-0.4-1-0.4c-0.9,0-2.2,1.9-4.1,5.7l-3-2.7c2.1-4,4-6.3,5.9-6.8
			c1-2,1.9-4.1,2.5-6.4h-6.6v-3.1c1.9-2.2,3.5-4.4,4.8-6.5h-5.9v-3.7H547.5z M547.4,604.3l-2.7,2.7c-1.6-1.9-3.8-4-6.6-6.2l2.7-2.6
			C543.5,600.2,545.6,602.3,547.4,604.3z M549.4,614.7l-1.2-3.9c3.1-3.8,5.2-7.9,6.5-12.4l3.8,0.6c-0.4,1.4-1,2.8-1.5,4.1h6.4
			c-0.6-1.4-1.3-2.8-2.2-4.1l3.7-1c1,1.9,1.7,3.6,2.3,5.1h7.4v3.7H567v4.1h6.4v3.6H567v4h6.4v3.5H567v4.2h8.1v3.7h-22.9v-18.6
			C551.3,612.4,550.4,613.6,549.4,614.7z M563.2,606.8h-7v4.1h7V606.8z M563.2,614.5h-7v4h7V614.5z M563.2,622h-7v4.2h7V622z"/>
		<path fill="#58595B" d="M595.3,603.3v-4h9.4c1.2,13.1,7.1,24.6,17.8,34.4l-2.3,3.5c-8.7-7.9-14.4-16.9-17.1-27.2
			c-3.1,11.7-8.9,20.7-17.7,27.1l-2.5-3.5c9.5-7,15.7-17.2,18.5-30.4H595.3z"/>
	</g>
</g>
<g>
	<path fill="#58595B" d="M310.6,132.7h-31v4.6h-10.8v-40c-1.3,1.8-2.7,3.4-4.1,4.9c-0.6-0.8-1.5-1.9-2.6-3l1,6.9l-6.9,1.9v16.6
		c0,5.1-0.8,8.1-3.5,9.9c-2.8,1.9-6.4,2.2-11.6,2.2c-0.2-3-1.5-7.8-2.9-11c2.4,0.2,5,0.2,6,0.1c0.9,0,1.2-0.2,1.2-1.3v-13.6
		l-6.6,1.7l-2.3-10.8c2.6-0.5,5.6-1.2,8.9-1.9V87.5h-7.9V77.2h7.9V63.6h10.8v13.6h7.1v8.7c4.5-6.3,8.3-14.1,10.7-21.9l10.6,2.9
		c-1.2,3.3-2.5,6.6-3.9,9.8h7.9c-0.9-2.7-2.4-6-3.8-8.7l9.7-3.9c2,3.2,4,7.5,5,10.5l-4.8,2.1h14v10.2h-11.2V92H308v9.8h-10.4v5.2
		h10.2v9.8h-10.2v5.6h12.9V132.7z M259.7,96.4c-1-1.1-2-2-2.9-2.7c1.9-1.8,3.7-3.9,5.4-6.1h-6v9.7L259.7,96.4z M287.2,86.9h-7.6V92
		h7.6V86.9z M287.2,101.9h-7.6v5.2h7.6V101.9z M279.6,122.5h7.6v-5.6h-7.6V122.5z"/>
	<path fill="#58595B" d="M342,99.5c-1.3,7.2-3.4,14.3-6,20.2c1.1,0.7,2.4,1.6,4,2.6c5.2,3.3,12.7,3.6,21.7,3.6
		c8.4,0,23-0.9,31.6-2.2c-1.2,3-3.1,8.5-3.3,11.5c-6.7,0.5-19.9,1-28.9,1c-10.4,0-16.8-0.9-22.4-3.9c-3.3-1.9-6-4.3-7.5-4.3
		c-1.9,0-4.6,5.5-6.4,9.7l-7.4-10.8c2.7-3,5.7-5.3,8.4-6.9c1.5-3.5,2.9-7.7,3.9-11.9h-9.7c1.7-4.6,3.6-10.5,5.2-16.5h-6.2v-10h19.5
		l-1.2,4.2C343,80.1,348,72,350.8,63.6l10.1,3c-1.1,3-2.4,6-3.8,9h9.3c-0.8-2.6-1.9-5.3-2.9-7.7l10.6-3c1.7,3.3,3.6,7.4,4.5,10.7
		h11.5V85h-15v2.6h11.5v9h-11.5v3.1h11.2v9h-11.2v3.2h15.6v9.4H356v2.6h-10.8V94c-0.9,1.1-1.9,2.1-2.9,3c-0.9-2.2-3.5-7-5.3-9.8
		c-1,3.7-2.2,7.4-3.2,10.9h1.9l1.6-0.4L342,99.5z M327.5,80.2c-0.9-3.6-3.1-9.4-4.4-13.8l9.9-3.1c1.5,4.3,3.6,9.6,4.7,13.2
		L327.5,80.2z M364.4,85H356v2.6h8.4V85z M364.4,96.6H356v3.1h8.4V96.6z M364.4,108.7H356v3.2h8.4V108.7z"/>
	<path fill="#58595B" d="M425.6,67.2c-1.9,5.1-4.3,10.5-7,15.6V137h-10.7V99.4c-1.2,1.5-2.6,3-3.8,4.4c-1-2.8-4-9.1-5.9-11.8
		c6.7-6.7,13.1-17.4,16.8-28.1L425.6,67.2z M453.5,87.2v37.6c0,5.1-0.8,8.2-3.9,10.1c-3.1,1.8-7,2.2-12.2,2.2
		c-0.5-3.3-2.2-8.3-3.8-11.3c3,0.1,6.3,0.1,7.4,0.1c1,0,1.4-0.2,1.4-1.2V87.2h-7.4c-2.2,4.3-4.7,8.1-7.2,11.1c-2-2-6.5-5.7-9.1-7.4
		c6-6.3,10.8-16.7,13.5-27.1l11.1,2.6c-1,3.6-2.2,7.1-3.6,10.5h24.2l1.7-0.3l8,1.4c-0.9,6.7-2.2,14.2-3.3,19l-9.6-1.7
		c0.3-2.2,0.7-5,1-8.1H453.5z M440.4,101.3c-2.1,9.7-6,19.6-10.1,25.8c-2.1-1.8-6.9-4.7-9.5-6c4.1-5.2,7.2-13.8,8.8-22L440.4,101.3z
		 M464.7,98.1c3.8,7.9,6.8,18,7.8,24.9l-10.8,3.8c-0.6-6.8-3.6-17.4-7-25.3L464.7,98.1z"/>
	<path fill="#58595B" d="M552.9,75.4c0,0,0,3.6-0.1,4.9c-0.9,34.5-1.7,47-5,51.3c-2.4,3.4-4.8,4.3-8.2,5c-3.1,0.5-7.9,0.5-12.5,0.3
		c-0.2-3-1.7-7.8-3.7-10.9c5,0.5,9.6,0.5,11.7,0.5c1.5,0,2.4-0.3,3.4-1.4c2.2-2.4,3.2-13.8,3.8-39.3h-14.7
		c-2.1,4.4-4.3,8.4-6.6,11.5c-1.4-1.2-4-3.3-6.4-4.8v36.9h-20.3v5.5h-10.1V76.1h8.8c0.8-3.9,1.5-8.8,1.7-12.6l12.3,1.7
		c-1.3,3.8-2.6,7.7-3.9,10.9h11.5v10.3c3.9-6.3,7.2-14.6,9.2-22.7l10.8,2.6c-0.9,3-1.9,6-2.9,9.1H552.9z M504.5,85.9h-10.1v10.5
		h10.1V85.9z M504.5,119.4V106h-10.1v13.3H504.5z M530.1,117c-2-4.7-6.7-12.3-10.1-18l8.8-5c3.5,5.3,8.5,12.6,10.8,17.2L530.1,117z"
		/>
	<path fill="#58595B" d="M599.6,91.6c-1.9,20.5-8.1,36.1-29.8,45.5c-1.5-3.2-5-7.6-7.8-9.9c18.7-7.5,24.2-19.2,25.9-35.5h-23.6V80.8
		h24.2c0.2-5.3,0.2-11.1,0.2-17.3h11.9c0,6-0.1,11.8-0.2,17.3h21.2c-3.7-3.1-10.2-7.1-15.1-9.8l6.6-7.5c5.3,2.6,12.9,6.9,16.7,10
		l-6.2,7.4h10.8v10.8H599.6z M621.2,124.5c2.8,0,3.2-1.9,3.6-13.2c2.5,2,7.7,3.9,10.8,4.7c-1.2,15.1-4.1,19.4-13.3,19.4h-9.4
		c-10.4,0-13.1-3.6-13.1-14.6V94h11.8v26.8c0,3.3,0.4,3.6,3,3.6H621.2z"/>
	<path fill="#58595B" d="M681.6,77c0,0-0.1,3.6-0.2,5c-1.1,32.3-2.1,44.8-4.8,48.6c-2,3-3.8,4-6.4,4.6c-2.3,0.5-5.5,0.6-9.1,0.5
		c-0.2-3.2-1.3-8-3-11.2c-1.8,4.6-3.9,8.9-6.7,12.7c-1.9-2.9-5.7-6.5-8.7-8.3c7.7-10.4,9.9-24.5,10.5-41H645V77h8.4
		c0-4.3,0-8.8,0-13.3h11.4c0,4.5-0.1,9-0.2,13.3H681.6z M664.4,88c-0.7,13.4-2.2,25.7-6,36.2c2.3,0.2,4.3,0.3,5.7,0.3
		c1.1,0,1.8-0.4,2.6-1.5c1.6-2.2,2.6-11.2,3.4-34.9H664.4z M714.6,72v62.7h-11.8V130h-7.7v5.3h-11.2V72H714.6z M702.8,119.2V82.8
		h-7.7v36.4H702.8z"/>
	<path fill="#58595B" d="M751.3,86.4h12.9v10.4h-12.9v3c3.9,2.9,10.8,8.6,12.7,10.1l-6.3,9.8c-1.6-2.2-3.9-4.9-6.4-7.5V137h-11.4
		v-24c-2.9,5.8-6.3,11.1-9.9,14.9c-1.1-3.3-3.9-8.1-5.7-11.2c5.2-5,10.2-12.9,13.6-20.1h-11.8V86.4h13.8v-7.5
		c-3.9,0.8-7.9,1.4-11.6,1.9c-0.5-2.6-2-6.4-3.3-8.8c11.2-1.8,23.1-4.8,30.7-8.3l7.9,8.6c-3.8,1.5-8,2.9-12.4,3.9V86.4z M779,117
		h-11.2V73H779V117z M795.5,65v58.7c0,6.3-1.2,9.3-4.7,11.2c-3.6,1.8-9.2,2.2-16.3,2.2c-0.5-3.3-2.2-8.5-3.9-11.7
		c4.9,0.2,10,0.2,11.7,0.2c1.5,0,2.1-0.5,2.1-1.9V65H795.5z"/>
	<path fill="#58595B" d="M187.6,200.4c0,0-0.1,2.9-0.2,4.1c-0.9,19.4-1.8,27.5-3.9,30.3c-1.6,2.3-3.3,3.2-5.7,3.6
		c-1.9,0.4-5,0.5-8.2,0.4c-0.1-1.3-0.3-2.9-0.7-4.6c-1.2,0.1-2.3,0.1-3.5,0.1h-9.1c-9.1,0-11.5-3-11.5-11.8v-4.6
		c-0.7,0.7-1.5,1.3-2.2,1.9c-1.1-2.1-3.7-6.4-5.7-8.9l-1.7,0.5v15.5c0,5.2-0.9,7.9-3.9,9.6c-3,1.6-7.1,1.9-12.9,1.9
		c-0.4-2.9-1.8-7.4-3.1-10.2c2.9,0.2,6.4,0.2,7.5,0.2c1.2,0,1.5-0.4,1.5-1.5v-12.8c-3,0.8-6,1.5-8.7,2.2l-1.3-11
		c2.9-0.5,6.3-1.2,10-2V190h-9.3v-10.4h9.3v-14.2h10.8v14.2h7V190h-7v10.6c2.2-0.5,4.5-1.1,6.7-1.6l0.7,5.7c2.2-2.2,4.3-4.7,6.1-7.3
		h-3.3v-28.7h37.2v28.7h-21.9c-0.5,1-1.1,2-1.7,3H187.6z M152.5,209.8l-1.3,1.5h2.8v8.2c3.8-2.2,6.2-5.9,7.1-9.8H152.5z
		 M157.8,225.5c-0.9-1.3-2.5-3.1-3.8-4.4v1.5c0,2.1,0.3,2.9,2.2,2.9H157.8z M155.3,179.2h17.3v-2.5h-17.3V179.2z M155.3,189.4h17.3
		v-2.6h-17.3V189.4z M165.2,225.5c1.2,0,2.9-0.1,4.3-0.2c-1.3-1.4-3.2-3.2-5.1-5c-1.6,2.1-3.6,3.9-5.8,5.2H165.2z M172.4,229
		c1,0,1.6-0.2,2.3-1.1c1-1.4,1.8-6.2,2.3-18.1h-14.6l6.7,1.2c-0.3,1.1-0.7,2.2-1.2,3.2c2.6,2.1,5.4,4.5,7,6.1l-4.8,4.9
		c0.5-0.1,0.9-0.2,1.3-0.3c0.1,1.2,0.2,2.7,0.3,4.2H172.4z"/>
	<path fill="#58595B" d="M211.2,196.5v42.4h-11v-70.8h31v28.3H211.2z M211.2,176v2.6h9.4V176H211.2z M220.7,188.6v-2.9h-9.4v2.9
		H220.7z M245.4,222.2v15.3h-9.8v-15.3h-5.4c-0.9,5.3-3.6,12.6-9.7,16.9c-1.5-1.9-4.9-4.9-7.1-6.4c4.2-2.6,6.3-6.9,7.1-10.5h-6.7
		v-9.1h7.1v-4.4h-6.1V200h37v8.8h-6.4v4.4h7.5v9.1H245.4z M235.5,213.1v-4.4h-5.1v4.4H235.5z M266.7,226.3c0,5.3-0.9,8.4-3.9,10.2
		c-3.2,1.9-7.3,2.2-13.2,2.1c-0.3-3-1.8-8.2-3.3-11.1c2.9,0.2,6.7,0.2,7.8,0.2c1.2,0,1.5-0.5,1.5-1.5v-29.4h-20.4v-28.6h31.5V226.3z
		 M245.9,176v2.6h9.8V176H245.9z M255.7,188.8v-3.1h-9.8v3.1H255.7z"/>
	<path fill="#58595B" d="M327.2,214.4v13.9c0,4.8-0.8,7.5-4.1,9c-3.3,1.5-7.4,1.6-12.6,1.6c-0.4-3-1.8-7.1-3-9.9
		c2.7,0.1,6.4,0.1,7.4,0.1c1.1,0,1.4-0.2,1.4-1.1v-13.6h-17.5v-31.7h13.1c0.8-1.5,1.4-2.9,1.9-4.2h-19v12.7c0,13.2-1.1,33.5-7.8,46
		c-2.2-1.7-7.1-4.5-9.9-5.5c6.2-11.5,6.7-28.6,6.7-40.5v-22.8h66.3v10.1h-32.6l10.2,1.2c-0.7,1.1-1.5,2.1-2.2,3H345v31.7H327.2z
		 M313.6,219.3c-3.6,6-8.9,12.9-12.9,17.1c-2.2-1.8-6.7-4.6-9.4-6c4.3-3.6,9-9.5,11.8-14.6L313.6,219.3z M333.4,190.9h-23.6v3.7
		h23.6V190.9z M309.8,206.1h23.6v-3.8h-23.6V206.1z M338.3,215.5c3.9,4.7,9.8,11.5,12.8,15.6l-9.7,5.5c-2.5-4.3-8.1-11.3-12.1-16.4
		L338.3,215.5z"/>
	<path fill="#58595B" d="M432.6,176.9c0,0-0.1,3.6-0.2,4.9c-1.3,34.5-2.6,47.5-5.4,51.4c-1.9,2.9-3.7,3.9-6.4,4.6
		c-2.2,0.5-5.4,0.5-8.8,0.5c-0.2-3.2-1.4-7.9-3.1-11c2.6,0.3,4.9,0.3,6.4,0.3c1.1,0,1.8-0.4,2.7-1.5c1.5-2.1,2.7-10.2,3.6-30.4
		c-4.3,16.4-11.5,32.4-22,41.3c-2.1-2.2-6-5-9.1-6.5c12.2-8.8,19.7-25.6,23.5-43.1h-2.1c-3.3,12.4-9.4,26-17,33.4
		c-2.1-2.1-5.7-4.7-8.6-6.3c7.4-5.8,13-16.4,16.4-27.1h-2.3c-2.2,5.2-4.9,9.8-7.7,13.4c-1.8-1.7-6.1-4.9-8.4-6.3
		c1-1.2,2-2.5,2.9-3.9h-4.3v10.6l6.1-1.6l1.5,9.9c-2.5,0.8-5,1.5-7.6,2.3v27.2h-10.3v-24.2c-3.9,1.2-7.6,2.2-10.9,3.2l-2.6-10.8
		c3.8-0.8,8.4-1.9,13.6-3.3v-13.4h-4c-0.8,3.4-1.6,6.4-2.6,9c-1.7-1.4-5.7-3.9-7.8-5.1c2.2-6,3.4-15.6,3.9-24.6l9.3,1.5
		c-0.2,2.8-0.5,5.7-0.9,8.5h2.2v-14.5h10.3v14.5h5.6v8.6c3.7-6.4,6.4-14.7,8.1-23.1l10.1,1.9c-0.7,3.3-1.5,6.5-2.5,9.6H432.6z"/>
	<path fill="#58595B" d="M505.8,218.2v20.6h-10.5v-18.7l-20.3,3.6l-1-6.3l-7.5,8.4c-0.9-2.8-2.2-6.3-3.7-9.8v22.8h-10.4v-21.6
		c-1.8,6-4.3,11.6-7.7,15.1c-0.9-3.9-3.2-9.8-4.9-13.6c3.3-3.6,6.3-9.9,7.4-15.3l5.3,1.9v-3.9H441v-10.5h11.3v-25.7h10.4v21.9
		c1.5-5,2.9-12.4,3.6-17.7l9.4,1.9c-2,6.4-4.3,13.8-6.1,18.4l-6.9-1.8v2.9h10.8v10.5h-10.8v4.2l2.5-1.9c1.6,1.9,7,10.2,8.6,13
		l-0.5-3.6l22-3.9v-44.1h10.5v42.2l7.3-1.3l1.6,10.5L505.8,218.2z M443.7,190.5c-0.1-5-1.4-12.7-3.2-18.5l7.7-1.9
		c2,5.8,3.5,13.3,3.7,18.4L443.7,190.5z M478.8,187.9c4.4,2.4,10.3,6.2,13.1,9.1l-5.7,9c-2.6-2.9-8.3-7.2-12.7-10L478.8,187.9z
		 M488.8,186.6c-2.3-3-7.7-7.3-12-10.1l5.4-7.6c4.3,2.6,9.8,6.4,12.4,9.3L488.8,186.6z"/>
	<path fill="#58595B" d="M593.6,177.2c0,0,0,3.6-0.1,4.9c-0.9,34.5-1.7,47-5,51.3c-2.4,3.4-4.8,4.3-8.2,5c-3.1,0.5-7.9,0.5-12.5,0.3
		c-0.2-3-1.7-7.8-3.7-10.9c5,0.5,9.6,0.5,11.7,0.5c1.5,0,2.4-0.3,3.4-1.4c2.2-2.4,3.2-13.8,3.8-39.3h-14.7
		c-2.1,4.4-4.3,8.4-6.6,11.5c-1.4-1.2-4-3.3-6.4-4.8V231H535v5.5h-10.1V178h8.8c0.8-3.9,1.5-8.8,1.7-12.6l12.3,1.7
		c-1.3,3.8-2.6,7.7-3.9,10.9h11.5v10.3c3.9-6.3,7.2-14.6,9.2-22.7l10.8,2.6c-0.9,3-1.9,6-2.9,9.1H593.6z M545.2,187.7H535v10.5h10.1
		V187.7z M545.2,221.2v-13.3H535v13.3H545.2z M570.7,218.9c-2-4.7-6.7-12.3-10.1-18l8.8-5c3.5,5.3,8.5,12.6,10.8,17.2L570.7,218.9z"
		/>
	<path fill="#58595B" d="M674.1,175.9v43.4h-10.6v-2.6h-4.7v22.1h-11v-22.1H643v3.4h-10.1v-12.2l-5.9,8.7c-1.1-1.8-2.5-3.9-4-6v28.3
		h-10.2v-26.9c-2.4,2.3-4.8,4.3-7.3,5.9c-0.5-3.3-2.5-9.5-3.7-11.8c6.7-3.8,13-10.5,17.2-17.8H604v-10.1h11.4
		c-1.3-2.6-3.2-5.8-4.8-8.3l8.8-4.6c2.2,3,4.8,7,6.1,9.8l-5.3,3.2h4.5l1.8-0.4l5.5,4.3c-2,5.7-4.7,11.1-7.9,16.1
		c2.6,2.4,7,6.8,8.8,8.7v-30.9h14.9v-10.6h11v10.6H674.1z M643,185.8v5.7h4.8v-5.7H643z M647.8,206.9v-5.7H643v5.7H647.8z
		 M658.8,185.8v5.7h4.7v-5.7H658.8z M663.5,206.9v-5.7h-4.7v5.7H663.5z"/>
	<path fill="#58595B" d="M707.3,218.3c-0.6-1.7-1.5-3.9-2.5-6.2v26.8h-10.4V217c-1.7,4-3.6,7.7-5.7,10.6c-1-3.3-3.5-8.2-5.2-11.2
		c3.7-4.7,7.3-12.1,9.7-18.8h-7.4v-10.5h8.6v-7.6c-2.1,0.3-4.2,0.6-6.2,0.9c-0.5-2.5-1.9-6.2-3-8.6c7.6-1.4,15.8-3.7,21.5-6.3
		l6.3,9.1c-2.6,1-5.4,1.9-8.3,2.6v9.8h7.8v10.5h-7.8v0.8c1.5,1.8,5.3,6.4,7.4,9.2c1.3-6.2,2.2-13.9,2.7-20.6l8.3,1.9
		c-0.5,8.2-1.6,19.1-3.4,25.6l-8.1-2.6L707.3,218.3z M742.4,227.9c2.1,0,2.5-1.8,2.9-10.2c2.2,1.8,6.6,3.6,9.5,4.3
		c-1.1,11.9-3.8,15.9-11.3,15.9h-8.1c-6.7,0-9.7-1.8-10.8-7.1c-2.2,2.2-4.6,4.3-7.1,6.2c-1.8-2.1-6.4-6-9-7.7
		c5.9-3.9,11.1-8.8,15.6-14.4v-30h10.7v12.9c3.9-8.3,7.1-17.4,9.5-27.3l10.8,2.2c-2,7.7-4.3,14.9-7.1,21.8l4.5-1.2
		c2.5,7,5,15.9,6.1,21.9l-10.1,3c-0.7-4.4-2.2-10.5-3.8-16.2c-2.9,6.1-6.2,11.8-9.8,17v5.3c0,3.5,0.2,3.9,2.4,3.9H742.4z
		 M735.3,184.4c-2.9-3.1-9.4-8.2-13.6-11.8l6.8-7.7c4.1,3.1,10.8,7.8,14,10.8L735.3,184.4z"/>
	<path fill="#58595B" d="M807.6,180l-1.7,5.4h28.7v53.5h-11.5v-3.9h-42v3.9h-10.8v-53.5H794c0.2-1.8,0.5-3.6,0.8-5.4h-27.6v-10.6
		H838V180H807.6z M781,224.8h6.1v-29H781V224.8z M806.5,195.7h-9.4v3.6h9.4V195.7z M806.5,208h-9.4v4.1h9.4V208z M797.2,224.8h9.4
		v-3.9h-9.4V224.8z M823.1,195.7h-6.5v29h6.5V195.7z"/>
	<path fill="#58595B" d="M871.3,213.7c-0.2-0.8-0.4-1.7-0.6-2.7c-15.5,2.6-18.5,3.4-20.5,4.4c-0.5-2-2.2-7-3.4-9.8
		c2.2-0.5,3.9-2.2,6.5-5c0.9-0.9,2.4-2.7,4.2-5.1c-5,0.6-6.7,1.1-7.9,1.6c-0.5-2-2.2-6.8-3.3-9.4c1.7-0.5,3-1.9,4.6-4.1
		c1.6-2.2,6.4-10.7,9.1-18.8l9.9,4.1c-2.7,6-6.4,12.3-10.2,17.7l4-0.2c2-3.2,3.9-6.6,5.4-9.9l9.1,5.8c-2.9,5.2-6.5,10.4-10.3,15.3
		l6.4-2.5c0.7,1.5,1.5,3.3,2.2,5c2.3-5.4,4.4-14,5.7-21.5l10.1,2.2c-1.5,8.4-4.3,18-6.6,24c-2-1.3-6.3-3.1-9-4.1
		c1.4,3.4,2.6,6.9,3.2,9.4L871.3,213.7z M858.9,218.7c-0.3,7.1-1.5,14.6-3.2,19.3c-2.1-1.2-6.6-2.6-8.9-3.2
		c1.7-4.4,2.5-11.3,2.8-17.6L858.9,218.7z M867.8,216.5c1,5.5,1.9,12.5,2.2,17.3l-9.1,1.9c-0.1-4.8-0.9-12-1.7-17.5L867.8,216.5z
		 M868.1,202.6c-0.4-1.3-0.9-2.6-1.4-3.8c-1.2,1.5-2.5,3-3.8,4.5L868.1,202.6z M876.3,213.4c1.5,3.9,3,9.2,3.7,12.6l-8.4,3
		c-0.5-3.5-2-8.9-3.3-13L876.3,213.4z M918,206.6c-6.4,18.8-18.4,27.2-38.2,32.4c-1.1-3.3-3.6-7.6-6.1-10.2
		c17.3-3.1,28.5-9.6,33.8-25.1L918,206.6z M903,212.1h-10.6v-46.7H903V212.1z M910.4,201.6c-0.9-5.9-3.7-15-6.6-21.8l9.8-3.3
		c3.2,6.8,6,15.5,7.3,21.4L910.4,201.6z"/>
</g>
<g>
</g>
<g>
</g>
<g>
</g>
<g>
</g>
<g>
</g>
<g>
</g>
<g>
</g>
<g>
</g>
<g>
</g>
<g>
</g>
<g>
</g>
<g>
</g>
<g>
</g>
<g>
</g>
<g>
</g>
</svg>
