<?xml version="1.0" encoding="utf-8"?>
<!-- Generator: Adobe Illustrator 18.0.0, SVG Export Plug-In . SVG Version: 6.00 Build 0)  -->
<!DOCTYPE svg PUBLIC "-//W3C//DTD SVG 1.1//EN" "http://www.w3.org/Graphics/SVG/1.1/DTD/svg11.dtd">
<svg version="1.1" id="Layer_1" xmlns="http://www.w3.org/2000/svg" xmlns:xlink="http://www.w3.org/1999/xlink" x="0px" y="0px"
	 viewBox="0 0 581.7 483.9" enable-background="new 0 0 581.7 483.9" xml:space="preserve">
<g>
	<path fill="#FFDC5D" d="M174.4,21.1l368,246.5c52.7,35.3,52.1,111-1,145.8c-99.5,65.2-259,125.4-403.9-14.6
		C33.8,298.3,2.5,196,0.1,112.8C-2.7,19.9,95.9-31.5,174.4,21.1z"/>
	<g>
		<polygon fill="#FFC235" points="486.7,437.2 486.9,436.2 484.9,436.5 		"/>
		<path fill="#FFC235" d="M473.3,428.9c-1.7,0.3-4.4-0.3-5.3,1.5l3-0.5c-0.3,1.5,1.2,2,2.7,2.3c-0.5-0.2-1-0.5-1.5-0.7
			c0.5,0,0.7-0.9,1.1-0.9c1.9,1.8,3.5,0.3,4.8,2.8l-0.2,0.1l2.1,0c0.4,0.5-0.1,1-0.4,1.1c1.8,0.1,3.3,0.1,5.3,1.2
			c-0.1-1.6-1.4-1.7-2.8-1.9c-1.3-0.2-2.7-0.3-2.8-1.9l0.2-0.1C477.1,431.9,475.7,429.2,473.3,428.9z"/>
		<path fill="#FFC235" d="M479.6,434.6c-0.1,0-0.1,0-0.2,0C479.4,434.7,479.5,434.7,479.6,434.6z"/>
		<path fill="#FFC235" d="M397.5,399.7l-0.2,0.4C397.5,400,397.6,399.9,397.5,399.7z"/>
		<path fill="#FFC235" d="M421.6,413.1l-0.1-0.1C421.2,413.5,421.3,413.4,421.6,413.1z"/>
		<path fill="#FFC235" d="M271.2,330.7l0-0.8C271,330.5,271,330.7,271.2,330.7z"/>
		<path fill="#FFC235" d="M245.8,306L245.8,306C245.8,305.9,245.8,305.9,245.8,306z"/>
		<path fill="#FFC235" d="M251.3,323.3l-0.3,0.4C251.2,323.5,251.3,323.4,251.3,323.3z"/>
		<path fill="#FFC235" d="M242.2,315.7c-0.1-0.3-0.3-0.6-0.5-0.9C241.6,315.2,241.8,315.6,242.2,315.7z"/>
		<path fill="#FFC235" d="M246.2,306.1c-0.1,0-0.3-0.1-0.4-0.1C246,306,246.1,306.1,246.2,306.1z"/>
		<path fill="#FFC235" d="M263.7,335.9l-0.6,1.3C263.4,336.9,263.6,336.4,263.7,335.9z"/>
		<path fill="#FFC235" d="M239.3,314.4c0.1-0.3,0-0.6-0.1-0.8C239.1,313.9,239.1,314.2,239.3,314.4z"/>
		<path fill="#FFC235" d="M471.1,427.9c0.3,0.1,0.7,0.3,1.2,0.3C471.9,428,471.5,427.9,471.1,427.9z"/>
		<path fill="#FFC235" d="M317.1,375.7c-0.2,0.1-0.3,0.2-0.5,0.3C316.9,376.1,317.1,375.9,317.1,375.7z"/>
		<path fill="#FFC235" d="M284.5,354l-0.1,0c0,0.1,0,0.2,0,0.3L284.5,354z"/>
		<path fill="#FFC235" d="M294,360.4c-0.1,0-0.2,0.1-0.3,0.2C293.8,360.5,293.9,360.5,294,360.4z"/>
		<path fill="#FFC235" d="M276.7,349.9c-0.2,0-0.4,0-0.6,0.1L276.7,349.9z"/>
		<path fill="#FFC235" d="M271.2,343.6c0,0.6-0.7,0.7-1.3,0.8c1.2,1.8,2.8,0.9,3.7,3.2l-0.3-1.2c1.7,0.1,3.9,1.5,4,3.3l-0.6,0.1
			c1.8-0.1,2.1,2.8,3.1,2.4c0-0.8,0.6-0.7,0.3-1.7l3.4,1.1l-1,1.6c0.6,0.2,1.2,0.4,1.8,0.6c0.1-0.9,1.5,1.9,2.7,0.5
			c0.4,1.1-1.2,0.9-2,1.3c1.1,0.1,0.7,0.9,2.2,0.5l-0.2,1.9l2.8,0.6c-0.2,0-0.1,0.2-0.3,0.3c1.8-0.4,1.9,2.4,4.6,1.3
			c-0.1,0-0.1,0.1-0.2,0.2c1.5-0.6,2.6,1.3,3,1.9c1.3,0.5,1.4-1,1.8-1.5c2.9,2.5,2,1.7,5.8,1.9c0.4,2.8-3.8,1.5-2.6,4.1
			c0.9-0.6,2.8-0.4,4.6,0.3c1.1,1.5,3.3,3.6,4,5.7l0.6-1.2c0.8,0.2,1.7,0.4,2.5,0.7l-2.3,1c0.6-0.2,2.1-0.3,3.2-0.4
			c2.9,0.3-0.3,3.3,2.5,2.5c0,0.2,0,0.3-0.1,0.5c1.1-0.6,2.4,0.6,4.3,1.3l-1.5,1.1l-0.9-1c-0.3,1.8,2,0.8,3,1.5
			c1.4,0.1,1.6-1.4,2.5-1.5c0.4,0.3,1.2,0.2,1.3,0.8c0.7,1-0.9,1.8-1.6,2.3c1.8-1.1,1.9-0.7,4.2-0.3c-0.3,0.8-0.6,1-1,1
			c0.5,0,1.1-0.1,1.6-0.6l0.2,1.2c1.5,2.5,3.7-1.6,6.1,0.2c-1.2,0.5,2.4,1,2.7,2.4c-1.1-0.2-0.8,2.5-1.8,3.1
			c1.8,1.6,1.8-1.4,3.7-0.9l-1.7,1.6c2.1,0,0.9-0.8,3-0.6c-0.8,0.3,0.5,0.9-0.8,1c2.1,1.3,1.6,0.8,3.5,2l1.1-1.8
			c0.8,0.1,0.6,1,0.6,1.5c-0.3-0.1-0.7-0.4-0.8-0.1c0,2,1.7-0.3,1.9,1.6c0.1-0.7,0.2-1.6,1.1-1.4c-0.8,1,0.7,1.7,0.6,2.2
			c-0.1-1,1.9,0.5,2.6-0.7c0.5,1.3-0.7,0.8-1.1,1.4c1.5-1.1,3.4,1.3,4.6,0.8c0,0.1,0,0.2-0.1,0.3c1.4-0.5,3.2,0,5.8-0.4l-1.2,0.8
			c1.8,1.4,2.3-1.8,3.9-1c-1,1.4,2.8,1,1.3,2.4c1.4-0.5,2.6-0.5,3.9-1.6c0.6,1.3-2.7,1.4-1.6,2.4l1.8-0.3l-0.1,1
			c0.3-0.6,1.6-0.2,1.8-0.7c-0.2,1.1,0.1,2.1-0.3,2.8c1,0.1,1.9,1.5,3.1,0.9l-0.1,0.5c1.6-1.6,3,0.6,4.2-1.2l0.2,1.3
			c1.5,0.3,2-1.8,2.8-2c0.6,0.1,1.4,0.2,1.9,0.5c-2.3,0.6,0.3,1.9,0.5,2.7c0.7,0.3,2.9,0.9,3.8,0.1c-1.2,0.7-1,1.7-2.6,1.3
			c0.1,2.2,2.6,0.4,4.2,1.3l-0.3,0.9c2.7,0.2,3.4-1.3,5-2.5c-0.1,1.2-0.5,1.4-1.6,2.3c1.4,1.2,4.3,1.4,6.2,2.1c0.3,1-0.2,1.3-1,1.5
			c2.3-0.2,4.3,1.6,6.2,0c-0.8,0.6,0.6,0.8,1.2,1.4c0.1-0.4,0.5-0.9,0.5-0.8c1.5-0.4,4.4-0.3,5.5,0.8l-0.7,0.4
			c3.1,1.4,5.7-1.6,8.7,0.9c0.5,0.6-1.2,1.4,0.1,1.8c0.9-0.5,1.2-2.1,2.7-1.2l-0.6,1.3l1.6-1c-0.2-1.3-2.2-1.5-0.5-2.3
			c1,1.7,1.7-0.8,3,1.2c-0.5,0-1.3,0.8-1.8,1.3c3.2,2.7,5.7,0.4,8.9,3.3c2.2-0.4,4.7,0.2,6.4-0.3c-0.6,1.3-1,2.4-2.2,3.2
			c1.5,0.7,3.4-2,3.8,0.3c1.4-1.5,4.8,0.4,6.2-1.9c-0.1,0.5,1.7,0.6-0.5,1.4c2.5,0,2,3.2,3,3.6c0.6,0.1,0-1.8,1.3-1.4
			c0.1,0.2,0,0.4,0.2,0.6l0.7-0.4c0.3,0.8-1,1-1.3,1.6c1.5,1.2,3.5-0.4,5.7,0.3l-0.5,0.3l2.1,0.9l-0.2,0.1l2.1-0.2l-0.3,0.6
			c0.5,0,0.7-0.4,1.3-0.2l-0.5,0.7c1.1-1,3.4-0.8,4.4-0.4l0,0.4l3-0.6c0.8,1.4-2.4,1.2,0.3,1.6l-1.4,1.3c2,0.1,1.9,1.1,3.3,1.1
			c-0.1-1-1-1.3-0.1-1.7c0.5,2.4,2.4,0.5,4,0.4c-0.7-0.3-1.1-0.5-2,0.2c-0.7-0.4,0.2-0.9-0.2-1.2l-1.4,0.4l0.2-1.2
			c-0.7,0-1.4,0.1-2.1,0.1c0.7-1.2-1.5-0.8-0.2-1.9c-1.4,0-1.7-1.2-3.4-0.4c-0.5-1.1,1.7-0.4,0.9-0.9c-5.3-1-10.2-3.2-15.1-5.5
			l0.7-0.4c-0.7,0.4-1.6,0.6-2.1,0.9c-0.5-1.4-3.3-3.9-5.2-2.3c-0.1-0.2,0.2-0.4,0.4-0.5c-1.8-0.4-4.4-2.8-6.9-3.4
			c-1.8,1.7-3.2-2.5-5.1,0l0.7-0.4c0.5,1.1-1.9,1.6-2.5,2.2c0-2.1,0.4-1.4,0.2-3.4l0.7,1l0.3-1.6c-4.4,2.9-5.1-3.7-8-1.4
			c0.2-0.1,0.2-0.4,0.4-0.5c-1-1.3-2.5,0.4-3.7,0.6c0.2-0.8,1-1.1,1.7-1.5c-2-1.3-6.5-0.4-8.6-2.4c-1.2,0.8-0.1,1.5-1.3,2
			c-0.7-0.5-0.9-1.5,0.2-1.8c-1.5-2.6-7.5-1-10.1-3.8c-2.1,0.6-1.2,1.4-4.1,1.3c0.9-0.5,0.3-2.7,1.8-2.3l0.5-0.7
			c-2.5-1-5.9-2.5-8.1-0.7c0.5-1.7-0.4-0.5-1-1.7c-0.5,0-0.1,0.3,0.1,0.4c-1.5,1.1-1.4-0.6-2.2-0.6l0.3-0.2l-2.2,0.4
			c-0.2-0.3-0.6-0.8-0.4-1.3l-0.4,1.2c-1-0.3,0.1-1.6-1.3-1.8l-0.1,1c-0.6-0.8-2.3-0.1-2-1.4c0.1-0.3,0.2-0.1,0.5,0
			c-0.5-2.2-3.4-0.6-4.5-1.9l-0.4,2c-1.7,0-0.7-0.7-0.4-1.3c-1-0.4-0.9-1.1-2.1-1.8c-0.8,0.2-0.6,0.6-1,1l-1.1-1l1.3-0.7
			c-3.1,1.9-4.9-2.3-7.3-0.4c-0.5-0.8,1.2-0.8,0.8-1.3c-1.8-2.2-6-0.5-7.4-2.7c-2.6-2.6-6.8-3.1-9.8-5.6L349,381l-2.3-1.5
			c-1.2,0.8-2.6-0.6-4.3,0.1c0.3-0.3,0.4-1,0.8-1.2c-1.1-0.4-2.5-0.4-2.8-1.4l0.6-0.2c-2.1-1.4-5.3-3.1-7-2.9
			c-0.8-0.3-0.3-1.1-0.2-1.8c-1.3-0.8-2.4-0.8-3.9-0.6c-0.2-0.4-0.3-0.7-0.4-1.3l-1.2,0.9c-0.5-0.5,0.4-1,0.2-1.5
			c-2.9,0.3-4.4-2.4-5.9-3.1l-0.1,0.7c-0.9,0.1-1.5-1.3-0.4-1.5c-2.3-2.3-5.2-0.6-8.7-3.3c0.8-2.3-3.7-1.5-2.8-4.1
			c-1.9-0.4-2.3-1.9-4.3-1.4c0.1-0.2,0.1-0.4,0.3-0.3c0-1.2-2.5-1.9-4.4-2.4l0.4-0.7c-1.6,1-3.9-1.1-5.5-0.1
			c0.1-0.4,0.7-0.4,1.1-0.5c0.2-1.9-1.8-0.3-2.6-1.4c0.3-0.3,0.3-0.9,0.7-1c-1.1-2-3.3-3.2-5.7-4.4c-2.4-1.3-4.9-2.7-6.6-4.8
			c-1.1-1-0.8,1.8-2.2,0.5c0.1-1,1.9-0.8,1.2-1.8c-1.4,0.3-1.5-0.1-2.4-0.9c0.5-0.3,0.6-0.7,1.5-0.5c-0.1-1-3.2-0.8-3.3-2.8
			c-0.3,0.5-0.7,0.5-1.1,0.6c-2.6-0.1-2.6-4.1-3.3-3.6c0,0-0.7-0.3-0.4,0.3c-0.6-0.5-1.2-1.4-0.5-1.9c-0.6,0.1-1.4,0.4-1.9,0.1
			l0.9-0.5c-0.4-0.1-1.1,0.2-1.5,0l0,0.8c-0.1-1.2-2.7-0.8-1.4-2.2l0.2,0.2l-0.6-1.7c-1,0.2-2,0.3-2.7-0.6c1.1-1.7-1.8-2.1-2.6-3.2
			l0.5-0.5c-1.5,0-3.1-2.2-3-1.6c-0.8-0.7-1.4-2-0.6-2.1c-0.9-0.3-2.2-1.5-3.3-1c0-0.8,0-1.6,0-2.3c-2.5,1-1.7-3-3.7-1.2
			c-0.4-0.9,0.2-1.2,0.1-2c-1.9,0-2.7-1.1-3.5-2.2l0.2-0.2c-0.8-1.1-2.9-1.3-4.3-2.6l1.2-1.7c-0.9-0.5-2.2,0.3-2.6-0.6
			c0.1-0.4,0.3-0.3,0.6-0.2c-0.9-0.4-1.4-1.7-1.5-2.5c-2.1-0.1-2.4-1.2-4.5-1.1c0.6-2,1.7,0.7,2.3-1.1c-0.6-2.1-2.8-3-4.9-4.1
			c0.2-0.4,0.6-0.4,1-0.6c0,0-1.7-0.1-3.5,0.1c-1.8,0.2-3.8,0.5-4.2,1.5c-1.4,0.4-2.5,0.4-2,2.6c1,0,3,0.7,2.1,1.9l1.2-0.8
			c2.2,1.5-2.1,2,0.1,4.4l-0.1-0.8c0.5,0.4,1.5,0.2,1.6,1c-0.2,0.4-0.6,0.2-1,0.2l3.2,0.7c-0.5,0.6-0.9,0.8-1.8,0.9
			c1.7,1.7,1.6-2,3.2,0.5c-0.1,0.8-0.8,0.4-1.4,0.5c0,1.8,1.5,1.7,3,2.2c-0.9,0.8-1.5,0.1-1.3,1.5c0.3-0.6,1-1.4,1.8-0.9
			c-1.2,0.5,0,0.9,0.3,1.8c0.2-0.4,0.7-0.8,1.1-0.7c0.4,0.2,0.3,0.8,0.8,1.2l0.2-1.6c1.9,0.3,1.1,2.1,1.5,3.3
			c-0.2,0.1-0.5,0.1-0.7-0.1c0.4,1.2,0.6,2.8,2.5,3.1l-0.2,0c2.9,1.2,0.9-2.1,4.1-0.5c0.6,0.9-3.3,2.5-0.5,3.2c-0.1-1.6,3-0.7,4.4,0
			l-2.8,0.7c0.4,0.4,1.6,0.7,1.6,1.1l0.3-0.4c1.4-1.5,1.1,1.5,2.8,1.3c-2.9,1.1-2.6,0.7-4.8,2.5c1.8-0.4,3.7-0.6,4.8,0.9l-2.6,0.5
			c1.5,2,5.9,1.7,8.6,1.8c-1.5,0.8-1.3,1.8-2.9,2.2c0.7,0.5,1.3,0.9,2,1.3l-1.7,0.8c2-0.7,1.9,0.9,3.4-0.9c-0.4,0.1-0.6,0.3-0.9-0.1
			c0.5-0.5,1.8-1.3,2.7-0.4c0.2,1-1,0.3-1.3,1c1.2-0.2,0.2,1,1.3,1l0.1-1.2c1.3-0.6,1.1,0.8,2.1,0.9c-1.1-0.2-1.4,0.6-1.7,1.4
			l0.1-0.2c0.5,0.3,1.7,0.1,1.5,1l-1.6,1.1l1.6-0.4c0.1,0.4-0.2,1-0.8,0.9c1.3,2.6,2.6-3,4.2,0.6c-0.5,0.5-1.1,0.6-1.6-0.3
			c-0.9,0.7-1.1,1.4-0.7,2.3c0,0.1-0.1,0.1-0.1,0.2C267.6,342.1,269.5,343.8,271.2,343.6z"/>
		<path fill="#FFC235" d="M266.2,340.9c-0.8-0.6-1.4-1.2-1.9-1.3C264.3,340.1,265.5,341.9,266.2,340.9z"/>
		<path fill="#FFC235" d="M395.7,409.2c-0.1,0-0.3,0-0.4,0.1C395.4,409.2,395.5,409.2,395.7,409.2z"/>
		<path fill="#FFC235" d="M403.3,411.1c0-0.2-0.1-0.4-0.3-0.5C403,410.9,403,411.2,403.3,411.1z"/>
		<path fill="#FFC235" d="M327.3,381L327.3,381L327.3,381z"/>
		<path fill="#FFC235" d="M368,400.5c0.9-0.3,1.3-0.7,1.5-1.1C369.1,399.4,368.6,399.7,368,400.5z"/>
		<path fill="#FFC235" d="M354.2,394c-0.1,0-0.3,0.1-0.4,0.1C354.1,394.1,354.2,394.1,354.2,394z"/>
		<path fill="#FFC235" d="M324.8,380.6c0.9-0.2,1.7,0.3,2.5,0.3C326.6,381,325.8,379.8,324.8,380.6z"/>
		<polygon fill="#FFC235" points="413.1,412.1 412.1,412.7 413.1,412.3 		"/>
		<path fill="#FFC235" d="M405.9,410.4c-0.2-0.3-1.7-0.2-1.5,0.4C405,410.5,405.5,410.5,405.9,410.4z"/>
		<polygon fill="#FFC235" points="379.5,400.7 378.9,401.5 379.8,401 		"/>
	</g>
	<g>
		<polygon fill="#FFC235" points="402,441.2 401.9,440.3 400.9,441.3 		"/>
		<path fill="#FFC235" d="M393.3,439.2c-0.9,0.9-2.5,1.4-2.8,3.3l1.7-1.5c0,1.5,0.9,1.5,1.8,1.1l-1,0c0.3-0.2,0.2-1.1,0.5-1.3
			c1.3,0.9,2-1,3.1,0.7l-0.1,0.1l1.2-0.8c0.3,0.3,0.1,0.9,0,1.2c1-0.7,1.8-1.4,3.1-1.1c-0.7-2.7-3,1.7-3.7-1l0.1-0.1
			C395.9,440.5,394.7,438.6,393.3,439.2z"/>
		<path fill="#FFC235" d="M397.7,441.9L397.7,441.9C397.6,442.1,397.6,442,397.7,441.9z"/>
		<path fill="#FFC235" d="M348.7,428.9l-0.2,0.4C348.7,429.2,348.8,429.1,348.7,428.9z"/>
		<path fill="#FFC235" d="M362.5,437.6L362.5,437.6C362.2,438.1,362.3,438,362.5,437.6z"/>
		<path fill="#FFC235" d="M270.7,399.6l0-0.7C270.5,399.5,270.6,399.6,270.7,399.6z"/>
		<path fill="#FFC235" d="M253,389.2L253,389.2C253,389.2,253,389.2,253,389.2z"/>
		<path fill="#FFC235" d="M256.9,400.9l-0.2,0.5C256.8,401.2,256.9,401,256.9,400.9z"/>
		<path fill="#FFC235" d="M250.4,398.5c-0.1-0.2-0.2-0.4-0.4-0.5C250,398.3,250.2,398.5,250.4,398.5z"/>
		<path fill="#FFC235" d="M253.3,389.1c-0.1,0-0.2,0.1-0.3,0.1C253.1,389.1,253.2,389.1,253.3,389.1z"/>
		<path fill="#FFC235" d="M265.4,406.7l-0.5,1.4C265.2,407.6,265.3,407.1,265.4,406.7z"/>
		<path fill="#FFC235" d="M248.4,398.6c0.1-0.3,0-0.5,0-0.6C248.3,398.2,248.2,398.5,248.4,398.6z"/>
		<path fill="#FFC235" d="M392,439.1c0.2,0,0.4,0,0.7-0.1C392.4,438.9,392.2,438.9,392,439.1z"/>
		<path fill="#FFC235" d="M299.8,424c-0.1,0.1-0.2,0.3-0.3,0.4C299.7,424.4,299.7,424.2,299.8,424z"/>
		<path fill="#FFC235" d="M279.2,414.7L279.2,414.7c-0.1,0.1-0.1,0.1-0.1,0.3L279.2,414.7z"/>
		<path fill="#FFC235" d="M285.2,417.3c-0.1,0.1-0.1,0.1-0.2,0.2C285.2,417.5,285.2,417.4,285.2,417.3z"/>
		<path fill="#FFC235" d="M274,413.9c-0.1,0.1-0.3,0.2-0.4,0.3L274,413.9z"/>
		<path fill="#FFC235" d="M270.4,410.5c0,0.5-0.5,0.8-0.9,1.2c0.8,1.1,1.9-0.2,2.5,1.4l-0.2-0.9c1.2-0.5,2.6-0.1,2.6,1.4l-0.4,0.3
			c1.2-0.7,1.3,1.7,2,1c0-0.7,0.5-0.9,0.3-1.6c0.7,0,1.5-0.1,2.3-0.2l-0.7,1.8l1.2-0.1c0.1-0.8,1,1.1,1.8-0.5
			c0.2,0.9-0.9,1.2-1.4,1.8c0.8-0.2,0.5,0.5,1.4-0.2l-0.2,1.7l1.9-0.4c-0.1,0.1-0.1,0.3-0.2,0.4c1.2-1,1.2,1.5,3.1-0.3
			c-0.1,0.1-0.1,0.1-0.2,0.2c1-1,1.6,0.4,1.9,0.8c0.8,0,1-1.3,1.3-1.9c1.9,1.3,1.3,0.9,3.8-0.2c0.2,2.3-2.6,2.5-1.9,4.4
			c0.6-0.8,1.8-1.2,3-1.1c0.6,1.1,2,2.2,2.3,3.9l0.4-1.3c0.5,0,1.1-0.1,1.6-0.1l-1.5,1.5c0.4-0.3,1.4-0.9,2.1-1.3
			c1.9-0.5-0.4,3,1.5,1.6c0,0.2,0,0.3-0.1,0.4c0.8-0.8,1.5-0.1,2.7-0.1l-1,1.5l-0.5-0.6c-0.3,1.7,1.2,0.2,1.9,0.5
			c0.9-0.3,1.1-1.7,1.7-2.1c0.2,0.2,0.8-0.2,0.8,0.4c0.4,0.7-0.7,1.9-1.2,2.5c1.2-1.4,1.3-1.2,2.7-1.4c-0.3,0.8-0.5,1.1-0.7,1.2
			c0.3-0.1,0.7-0.4,1.1-1l0,1.1c0.8,1.8,2.5-2.5,3.9-1.4c-0.8,0.7,1.5,0.3,1.6,1.5c-0.7,0.1-0.6,2.5-1.4,3.3
			c1.1,1.1,1.2-1.7,2.4-1.7l-1.2,1.9c1.3-0.5,0.7-1,1.9-1.3c-0.5,0.5,0.3,0.7-0.6,1.1c1.3,0.7,1,0.4,2.1,1l0.8-1.9
			c0.5-0.1,0.3,0.8,0.3,1.2c-0.2,0-0.4-0.2-0.5,0.1c-0.2,1.9,1.1-0.7,1.1,1c0.1-0.7,0.3-1.6,0.8-1.5c-0.6,1.1,0.4,1.4,0.2,1.9
			c0-0.9,1.2,0,1.7-1.3c0.3,1.1-0.5,0.9-0.8,1.5c1-1.4,2.1,0.4,2.8-0.3c0,0.1,0,0.2-0.1,0.3c0.9-0.7,2-0.6,3.7-1.6l-0.8,1
			c1,0.9,1.5-2.1,2.5-1.8c-0.8,1.6,1.7,0.4,0.7,2c0.9-0.7,1.7-1,2.5-2.3c0.3,1.1-1.8,1.9-1.2,2.6l1.1-0.6l-0.1,0.9
			c0.2-0.6,1-0.5,1.1-1c-0.2,1.1-0.1,1.9-0.4,2.7c0.6-0.2,1.1,1.1,1.8,0.3l-0.1,0.5c1.1-1.8,1.8,0.1,2.7-1.9l0,1.2
			c0.9,0.1,1.4-2.1,1.9-2.4c0.4,0,0.8-0.1,1.1,0.2c-1.5,1,0.1,1.7,0.1,2.5c0.4,0.1,1.7,0.3,2.4-0.6c-0.8,0.9-0.7,1.8-1.7,1.7
			c-0.1,2.1,1.5-0.1,2.5,0.5l-0.3,0.9c1.7-0.2,2.2-1.8,3.2-3.2c-0.1,1.2-0.4,1.5-1.1,2.5c0.8,0.9,2.6,0.6,3.6,1
			c0.1,0.9-0.2,1.3-0.7,1.6c1.4-0.6,2.5,0.8,3.8-1c-0.5,0.7,0.3,0.6,0.6,1.1c0.1-0.4,0.3-0.9,0.4-0.9c0.9-0.7,2.7-1.1,3.3-0.1
			l-0.4,0.5c1.8,0.8,3.5-2.5,5.2-0.6c0.3,0.5-0.8,1.6,0,1.7c0.5-0.7,0.8-2.3,1.7-1.6l-0.4,1.3l1-1.2c-0.1-1.2-1.2-1-0.2-2.1
			c0.6,1.4,1-1.1,1.7,0.6c-0.3,0.1-0.8,1.1-1.1,1.6c1.9,2.1,3.4-0.7,5.2,1.5c1.3-0.8,2.8-0.8,3.8-1.6c-0.3,1.3-0.6,2.6-1.3,3.5
			c0.9,0.3,2-2.6,2.3-0.5c0.8-1.8,2.9-0.7,3.6-3.3c-0.1,0.5,1,0.2-0.3,1.5c1.5-0.6,1.3,2.6,1.9,2.7c0.3,0-0.1-1.7,0.7-1.6
			c0.1,0.1,0,0.4,0.1,0.5l0.4-0.6c0.2,0.7-0.6,1.2-0.7,1.9c1,0.7,2-1.2,3.3-1.2l-0.3,0.4l1.3,0.3l-0.1,0.1l1.2-0.8l-0.1,0.7
			c0.3-0.2,0.4-0.6,0.7-0.6l-0.2,0.8c0.5-1.2,1.9-1.8,2.5-1.7l0.1,0.4l1.7-1.5c0.6,1-1.3,1.9,0.3,1.4l-0.6,1.7c1.2-0.5,1.2,0.4,2,0
			c-0.2-0.9-0.7-0.9-0.2-1.6c0.5,2.1,1.4-0.3,2.3-1c-0.4,0-0.7-0.1-1.1,0.9c-0.4-0.1,0-0.9-0.3-1.1l-0.7,0.9l0-1.2l-1.2,0.8
			c0.3-1.4-0.9-0.3-0.3-1.7c-0.8,0.5-1.1-0.6-2,0.7c-0.4-0.9,0.9-0.9,0.4-1.1c-3.1,0.7-6,0.1-9-1l0.4-0.6c-0.4,0.6-0.9,1-1.2,1.4
			c-0.3-1.2-2-2.9-3.1-1c-0.1-0.1,0.1-0.4,0.2-0.5c-1,0.1-2.6-1.7-4-1.8c-1.1,2-1.8-1.8-3,1l0.4-0.5c0.3,0.9-1.1,1.9-1.5,2.6
			c0-2,0.3-1.5,0.2-3.3l0.4,0.8l0.2-1.6c-2.7,3.7-2.9-2.5-4.7,0.2c0.1-0.1,0.1-0.4,0.3-0.5c-0.5-1-1.5,0.8-2.2,1.3
			c0.1-0.8,0.6-1.2,1.1-1.8c-1.2-0.9-3.8,0.7-5-0.9c-0.8,0.9-0.2,1.5-0.9,2.1c-0.4-0.4-0.5-1.3,0.2-1.7c-0.7-2.3-4.4,0.3-5.8-2
			c-1.3,0.9-0.8,1.6-2.6,1.9c0.6-0.7,0.3-2.7,1.3-2.5l0.3-0.8c-1.5-0.6-3.4-1.4-4.9,0.7c0.4-1.7-0.2-0.4-0.5-1.5
			c-0.3,0.1-0.1,0.3,0,0.4c-1,1.3-0.8-0.3-1.3-0.2l0.2-0.3l-1.4,0.8c-0.1-0.3-0.3-0.7-0.2-1.2l-0.3,1.2c-0.6-0.2,0.2-1.6-0.6-1.5
			l-0.1,0.9c-0.3-0.7-1.4,0.3-1.1-1c0.1-0.3,0.1-0.1,0.3-0.1c-0.2-2-2,0-2.6-1.1l-0.4,2c-1.1,0.3-0.4-0.6-0.2-1.2
			c-0.6-0.2-0.5-0.8-1.2-1.3c-0.5,0.4-0.4,0.6-0.7,1.2l-0.6-0.7l0.8-0.9c-2.1,2.4-2.9-1.2-4.5,1.1c-0.3-0.7,0.8-1,0.6-1.4
			c-1-1.7-3.7,0.8-4.4-1c-1.4-2-4.1-1.4-5.8-3l-0.1,0.5l-1.3-0.9c-0.8,1-1.6,0.1-2.8,1.2c0.2-0.4,0.3-1,0.6-1.3
			c-0.7-0.1-1.6,0.2-1.7-0.6l0.4-0.4c-1.3-0.8-3.2-1.5-4.3-0.9c-0.5-0.1-0.2-0.9,0-1.6c-0.8-0.4-1.5-0.1-2.5,0.5
			c-0.1-0.3-0.2-0.6-0.2-1.1l-0.8,1.1c-0.3-0.3,0.3-1,0.2-1.4c-1.8,1-2.8-0.9-3.7-1.2l-0.1,0.7c-0.6,0.3-0.9-0.8-0.2-1.2
			c-1.4-1.4-3.4,0.9-5.5-0.4c0.7-2.3-2.4-0.3-1.6-2.8c-1.3,0.2-1.4-1-2.8,0.1c0.1-0.3,0.1-0.4,0.2-0.4c0-1.1-1.6-0.9-2.8-0.7
			l0.3-0.8c-1.1,1.4-2.5,0.2-3.6,1.6c0.1-0.4,0.5-0.6,0.8-0.8c0.2-1.7-1.2,0.3-1.7-0.3c0.2-0.4,0.3-0.9,0.5-1.1
			c-0.7-1.3-2.1-1.7-3.7-2c-0.8-0.1-1.6-0.3-2.4-0.5c-0.8-0.3-1.4-0.7-2-1.3c-0.7-0.4-0.6,1.8-1.5,1.2c0.1-0.9,1.3-1.3,0.9-2
			c-1,0.7-1,0.5-1.6,0.1c0.4-0.5,0.5-0.9,1.1-1c0-0.8-2.2,0.5-2.2-1.2c-0.2,0.5-0.5,0.7-0.8,0.9c-1.8,0.8-1.7-2.5-2.2-1.8
			c0,0-0.5,0-0.3,0.4c-0.4-0.2-0.8-0.7-0.3-1.4c-0.4,0.3-1,0.9-1.3,0.8l0.6-0.8c-0.3,0.1-0.8,0.6-1,0.6l0,0.7c0-1-1.9,0.3-0.9-1.3
			l0.2,0l-0.4-1.2c-0.7,0.5-1.4,1-1.8,0.5c0.8-1.9-1.2-1.1-1.8-1.7l0.4-0.6c-1,0.6-2.2-0.6-2.1-0.1c-0.5-0.3-1-1.1-0.4-1.5
			c-0.6,0.1-1.5-0.4-2.3,0.5l0-1.9c-1.8,1.8-1.2-1.7-2.6,0.5c-0.3-0.6,0.2-1.1,0.1-1.6c-1.3,0.7-1.9,0.2-2.5-0.4l0.1-0.2
			c-0.6-0.6-2.1,0.1-3.1-0.3l0.9-1.8c-0.6-0.1-1.6,1.2-1.8,0.5c0.1-0.3,0.2-0.4,0.4-0.4c-0.7,0.1-1-0.8-1.1-1.4
			c-1.5,0.8-1.7,0-3.2,0.9c0.4-1.8,1.3-0.2,1.7-1.8c-0.5-1.4-2-1.2-3.6-1.2c0.1-0.4,0.4-0.6,0.7-0.9c0,0-1.2,0.7-2.5,1.6
			c-1.3,0.9-2.7,2-3,2.9c-1,0.9-1.8,1.4-1.4,2.9c0.8-0.5,2.2-0.7,1.5,0.6l0.8-1.1c1.6,0.3-1.5,2.5,0.1,3.4l-0.1-0.6
			c0.3,0.1,1.1-0.5,1.1,0.1c-0.1,0.4-0.4,0.4-0.7,0.6l2.3-0.8c-0.4,0.7-0.7,1-1.3,1.4c1.2,0.7,1.1-2.3,2.3-0.9
			c-0.1,0.7-0.6,0.7-1,0.9c0,1.4,1.1,0.8,2.2,0.6c-0.7,1.1-1,0.6-0.9,1.7c0.2-0.6,0.7-1.6,1.3-1.4c-0.9,0.9,0,0.8,0.2,1.3
			c0.1-0.4,0.5-0.9,0.8-1c0.3,0,0.2,0.5,0.6,0.6l0.1-1.4c1.4-0.6,0.8,1.2,1.1,2c-0.2,0.2-0.4,0.2-0.5,0.2c0.3,0.8,0.4,2,1.8,1.5
			l-0.1,0.1c2.1-0.2,0.6-2,2.9-2.1c0.4,0.5-2.4,3.3-0.4,2.8c0-1.3,2.1-1.7,3.1-1.7l-2,1.6c0.3,0.2,1.1-0.1,1.2,0.2l0.2-0.5
			c1-1.8,0.8,0.8,1.9,0c-2.1,2-1.8,1.6-3.4,3.9c1.3-1,2.6-1.9,3.4-1.1l-1.9,1.4c1,1.1,4.1-0.8,6-1.9c-1.1,1.2-0.9,2-2.1,2.9l1.4,0.4
			l-1.2,1.3c1.4-1.3,1.3,0.1,2.4-2c-0.3,0.2-0.4,0.4-0.6,0.3c0.4-0.6,1.3-1.7,1.9-1.3c0.1,0.7-0.7,0.6-0.9,1.3
			c0.9-0.6,0.1,0.7,0.9,0.4l0.1-1.1c0.9-1,0.7,0.3,1.5,0c-0.8,0.2-1,1-1.2,1.8l0.1-0.2c0.3,0.1,1.2-0.5,1,0.3l-1.2,1.5l1.1-1
			c0.1,0.3-0.1,0.9-0.6,1.1c0.8,1.7,1.9-3.5,2.9-1.1c-0.4,0.6-0.8,0.9-1.1,0.3c-0.6,0.9-0.8,1.6-0.5,2.2c0,0.1-0.1,0.1-0.1,0.2
			C268,410.5,269.2,411.2,270.4,410.5z"/>
		<path fill="#FFC235" d="M267,410c-0.5-0.3-0.9-0.5-1.3-0.4C265.7,410,266.5,411.1,267,410z"/>
		<path fill="#FFC235" d="M346.9,438.3c-0.1,0-0.2,0.1-0.3,0.1C346.8,438.4,346.9,438.4,346.9,438.3z"/>
		<path fill="#FFC235" d="M351.5,438.9c0-0.2-0.1-0.3-0.1-0.5C351.3,438.8,351.3,439.1,351.5,438.9z"/>
		<path fill="#FFC235" d="M306.1,426L306.1,426L306.1,426z"/>
		<path fill="#FFC235" d="M330.5,434.9c0.6-0.4,0.9-0.9,1-1.3C331.3,433.6,331,434,330.5,434.9z"/>
		<path fill="#FFC235" d="M322.4,431.5c-0.1,0.1-0.2,0.1-0.2,0.2C322.3,431.7,322.4,431.6,322.4,431.5z"/>
		<path fill="#FFC235" d="M304.5,426.4c0.6-0.4,1.1-0.2,1.6-0.3C305.6,426.2,305.2,425.4,304.5,426.4z"/>
		<polygon fill="#FFC235" points="357.4,438.2 356.7,439 357.4,438.5 		"/>
		<path fill="#FFC235" d="M353.1,437.8c-0.1-0.3-1,0.1-0.9,0.7C352.5,438.1,352.8,438,353.1,437.8z"/>
		<polygon fill="#FFC235" points="337.6,432.9 337.2,433.8 337.8,433.2 		"/>
	</g>
	<g>
		<polygon fill="#FFC235" points="458,365.2 458.3,364.2 455.5,363.5 		"/>
		<path fill="#FFC235" d="M438.5,347.9c-2.5-0.7-6.4-3-7.7-1.6l4.4,1.4c-0.5,1.5,1.7,3.2,3.9,4.4l-2.2-1.7c0.7,0.3,0.9-0.7,1.6-0.4
			c2.8,3.3,5,2.4,7,6.1l-0.3,0l3,1.2c0.6,0.8-0.1,1.1-0.6,1.1c2.7,1.2,4.8,1.9,7.7,4.3c-0.5-3.9-7.7-3.6-8.2-7.5l0.3,0
			C444,353.7,441.8,349.7,438.5,347.9z"/>
		<path fill="#FFC235" d="M447.7,358.4c-0.1,0-0.2-0.1-0.2-0.1C447.4,358.4,447.6,358.4,447.7,358.4z"/>
		<path fill="#FFC235" d="M333.3,261l-0.4,0.2C333.2,261.2,333.4,261.2,333.3,261z"/>
		<path fill="#FFC235" d="M365.7,293.8c0-0.1-0.1-0.1-0.1-0.2C364.9,293.9,365.1,293.9,365.7,293.8z"/>
		<path fill="#FFC235" d="M135.9,107.8l-0.3-1C135.4,107.3,135.6,107.6,135.9,107.8z"/>
		<path fill="#FFC235" d="M87,70.1L87,70.1C87,70,87,70.1,87,70.1z"/>
		<path fill="#FFC235" d="M104.3,93.5L104,94C104.3,93.8,104.4,93.7,104.3,93.5z"/>
		<path fill="#FFC235" d="M87.7,82.3c-0.4-0.4-0.7-0.9-1.2-1.2C86.7,81.6,87.2,82.1,87.7,82.3z"/>
		<path fill="#FFC235" d="M87.7,70.3c-0.2,0-0.4-0.1-0.6-0.2C87.2,70.2,87.5,70.2,87.7,70.3z"/>
		<path fill="#FFC235" d="M127.5,112.4l-0.3,1.6C127.5,113.6,127.5,113,127.5,112.4z"/>
		<path fill="#FFC235" d="M83.1,80.2c-0.1-0.4-0.3-0.7-0.5-1C82.6,79.5,82.7,79.9,83.1,80.2z"/>
		<path fill="#FFC235" d="M435.3,345.5c0.5,0.3,1,0.7,1.7,1.1C436.5,346,435.9,345.7,435.3,345.5z"/>
		<path fill="#FFC235" d="M215.7,182c-0.2,0-0.4,0.1-0.6,0.2C215.5,182.3,215.6,182.2,215.7,182z"/>
		<path fill="#FFC235" d="M163.8,141.5l-0.2-0.1c0,0.1,0,0.2,0.1,0.3L163.8,141.5z"/>
		<path fill="#FFC235" d="M179.1,153.1c-0.1,0-0.3,0-0.4,0.1C179,153.2,179.1,153.1,179.1,153.1z"/>
		<path fill="#FFC235" d="M151.3,133.8c-0.3,0-0.5-0.1-0.8,0L151.3,133.8z"/>
		<path fill="#FFC235" d="M141.2,124.3c0.2,0.8-0.6,0.7-1.5,0.7c2.3,2.6,4.3,2,6.4,5.1l-0.9-1.6c2.5,0.6,6,3.1,6.9,5.4l-0.8,0
			c2.5,0.5,3.9,4.2,5.3,4c-0.3-1,0.6-0.7-0.1-2l5.2,2.5l-0.9,1.7l2.7,1.3c-0.1-1,2.8,2.9,4,1.5c0.9,1.6-1.5,0.7-2.4,0.9
			c1.7,0.6,1.3,1.3,3.2,1.4l0.3,2.3l4.2,1.7c-0.3,0-0.1,0.2-0.4,0.2c2.5,0.1,3.5,3.7,7,3.4c-0.2,0-0.2,0.1-0.3,0.1
			c1.9-0.2,4,2.6,4.8,3.6c2,1.1,1.7-0.7,2.3-1.2c4.9,4.3,3.3,3,8.9,4.8c1.3,3.6-5.2,0.2-2.8,3.9c1.1-0.4,3.9,0.7,6.7,2.4
			c1.9,2.4,5.5,5.9,6.9,8.7l0.6-1.2l3.8,2l-3.1,0.1c0.8,0,3,0.7,4.6,1c4.2,1.7,0.1,3.8,4,4.3c0,0.2,0,0.4,0,0.5
			c1.5-0.1,3.5,1.9,6.4,3.6l-2,0.7l-1.4-1.6c-0.2,2,3,1.9,4.5,3.3c2.1,0.9,2.1-0.9,3.4-0.6c0.6,0.5,1.8,0.9,2,1.6
			c1.2,1.6-1.2,1.7-2.1,1.9c2.4-0.4,2.7,0.2,6.1,1.8c-0.4,0.8-0.8,0.9-1.3,0.7c0.8,0.3,1.5,0.4,2.3,0.1l0.3,1.5
			c2.4,3.7,5.3,0,8.9,3.5c-1.6-0.1,3.5,2.5,4,4.3c-1.5-0.8-1,2.5-2.5,2.7c2.7,2.9,2.6-0.6,5.4,1.1l-2.4,0.9c3.1,1.2,1.3-0.4,4.3,1
			c-1.1-0.1,0.7,1.3-1.2,0.7c3.1,2.7,2.4,1.9,5.1,4.3l1.6-1.4c1.1,0.6,0.9,1.6,0.9,2.1c-0.4-0.3-1-0.8-1.1-0.6c0,2.3,2.5,0.7,2.7,3
			c0.1-0.8,0.3-1.8,1.6-0.9c-1.2,0.7,1.1,2.3,0.8,2.8c-0.2-1.3,2.8,1.7,3.9,0.7c0.8,1.8-1.1,0.4-1.6,0.9c2.2-0.4,4.9,3.6,6.6,3.7
			c-0.1,0.1-0.1,0.2-0.1,0.3c2.1,0.4,4.7,2.1,8.5,3.2l-1.8,0.2c2.6,2.7,3.4-0.6,5.8,1.4c-1.6,0.9,4.1,3,1.8,3.7
			c2.1,0.4,3.9,1.3,5.8,0.9c0.8,1.8-4.1-0.3-2.5,1.6l2.6,0.9l-0.2,1c0.5-0.5,2.4,0.9,2.6,0.4c-0.4,1.1-0.1,2.4-0.7,2.9
			c1.5,0.8,2.6,3,4.4,3.1l-0.3,0.5c2.6-0.6,4.2,2.8,6.2,1.6l0.1,1.5c2.1,1.4,3.1-0.6,4.4-0.2c0.8,0.6,2,1.1,2.7,1.9
			c-3.5-1,0.2,2.3,0.3,3.3c1,0.8,4.1,3.1,5.6,2.9c-1.9-0.1-1.7,1.2-4-0.5c-0.2,2.5,3.6,2.3,5.9,4.4l-0.7,0.7c3.9,2.3,5.1,1.1,7.7,1
			c-0.4,1.2-0.9,1.2-2.7,1.4c1.9,2.4,6.1,4.7,8.6,6.9c0.3,1.3-0.6,1.3-1.7,0.9c3.3,1.4,5.9,5,9,4.7c-1.2,0.1,0.7,1.3,1.5,2.4
			c0.3-0.3,0.8-0.6,0.9-0.5c2.2,0.7,6.4,3,7.8,5.1l-1.1-0.1c4.2,3.8,8.6,2.6,12.4,7.7c0.6,1.1-2,0.6-0.2,2c1.4,0.1,2.1-1.4,4.1,0.8
			l-1.1,0.9l2.5,0.2c0-1.5-2.8-3.2-0.2-2.8c1.2,2.6,2.6,0.4,4.1,3.6c-0.7-0.3-2.1-0.1-2.9,0c4.1,5.4,8.1,4.8,12.2,10.3
			c3.3,1.3,6.8,3.8,9.3,4.5c-1.1,0.9-1.8,1.9-3.8,1.8c2.1,1.9,5.2,0.4,5.4,3.2c2.3-0.6,6.9,4.1,9.2,2.4c-0.3,0.5,2.4,1.9-0.9,1.2
			c3.6,1.8,2.5,5,3.9,6.1c0.8,0.6,0.2-2,2-0.6c0.1,0.3,0,0.5,0.2,0.8l1.1,0.1c0.3,1-1.6,0.4-2.2,0.9c2.1,2.4,5.1,2.1,8.2,4.4
			l-0.8-0.1l2.9,2.5l-0.3,0l3,1.2l-0.5,0.5c0.7,0.3,1.1,0.1,1.9,0.7l-0.8,0.4c1.6-0.4,5,1.4,6.3,2.5l0,0.5l4.4,1.3
			c1.1,2.1-3.6-0.3,0.3,2.1l-2,0.6c2.9,1.5,2.7,2.5,4.7,3.4c-0.2-1.3-1.4-2.1-0.1-2c0.6,3.1,3.4,2.1,5.8,3c-1-0.7-1.6-1.3-2.9-1
			c-1-0.8,0.2-1-0.3-1.6l-2.1-0.4l0.4-1.2l-3-1.2c1.1-0.9-2.1-1.9-0.2-2.3c-2.1-0.9-2.4-2.5-4.9-2.7c-0.6-1.6,2.5,0.7,1.4-0.4
			c-7.5-4.6-14.3-10.5-21.1-16.6l1.1,0.1c-1.1-0.1-2.3-0.4-3.2-0.5c-0.5-1.8-4.2-6.7-7.2-6.4c-0.1-0.3,0.4-0.2,0.7-0.2
			c-2.5-1.7-5.8-6.3-9.3-8.8c-2.9,0.6-4.1-5.1-7.4-3.8l1.1,0.1c0.6,1.6-3,0.3-3.9,0.5c0.3-2.3,0.9-1.2,1-3.5l0.9,1.6l0.8-1.5
			c-7-0.2-6.7-7.8-11.3-7.6c0.3,0,0.4-0.2,0.7-0.2c-1.2-2.1-3.7-1.5-5.4-2.2c0.4-0.7,1.6-0.4,2.7-0.3c-2.7-3-9.3-5.5-11.9-9.2
			c-1.9-0.1-0.5,1.5-2.3,1.1c-0.9-1.1-1-2.4,0.6-1.7c-1.6-3.9-10.6-6.8-13.9-11.9c-3.2-1-2,0.6-6.2-1.7c1.4,0.1,0.9-2.7,3.1-1.1
			l0.8-0.5c-3.5-3-8.2-7.1-11.7-6.9c1-1.5-0.4-0.8-1.2-2.6c-0.7-0.3-0.1,0.2,0,0.5c-2.3,0.1-2-1.7-3.1-2.2l0.5,0l-3.3-1.2
			c-0.3-0.5-0.7-1.3-0.5-1.8l-0.8,1c-1.4-1.1,0.3-1.8-1.6-2.9l-0.2,1c-0.7-1.3-3.4-1.7-2.7-3c0.1-0.2,0.3,0,0.7,0.3
			c-0.5-2.8-4.9-3.1-6.5-5.5l-0.7,2c-2.5-1.2-1-1.3-0.5-1.8c-1.4-1.1-1.3-1.9-3-3.5c-1.2-0.3-1,0.2-1.6,0.4l-1.6-1.9l1.9,0.1
			c-4.8,0-7.1-6-10.7-5.5c-0.7-1.3,1.8-0.1,1.3-0.9c-2.6-3.7-8.9-4.6-10.9-8c-3.8-4.8-10-8-14.6-12.8l-0.3,0.5l-3.4-3.2
			c-1.8,0.2-3.9-2.3-6.4-2.4c0.4-0.2,0.5-1,1-1c-1.7-1.1-3.8-2-4.2-3.3l0.8,0.1c-3.3-3-8.1-6.8-10.6-7.5c-1.3-0.8-0.6-1.6-0.5-2.3
			c-2-1.6-3.7-2.2-5.9-2.9c-0.3-0.5-0.6-1-0.8-1.8l-1.6,0.4c-0.7-0.8,0.5-1,0-1.8c-4.2-1.2-6.9-5.2-9.2-6.8l-0.1,0.8
			c-1.2-0.3-2.4-2.4-0.9-2.1c-3.9-4-7.8-3.5-13.5-8.3c0.7-2.5-5.8-3.6-5-6.3c-2.9-1.4-3.9-3.5-6.6-3.6c0.1-0.3,0-0.5,0.4-0.2
			c-0.4-1.5-4.1-3.5-7.1-4.9l0.4-0.7c-2,0.7-6-3.1-8.1-2.4c0-0.5,0.9-0.2,1.5-0.2c-0.3-2.3-2.8-1.2-4.3-2.7c0.4-0.2,0.2-1,0.8-1
			c-4.4-5.8-14.6-9.6-21.1-16.2c-2-1.6-0.4,2-3-0.1c-0.2-1.3,2.4-0.4,1-2c-1.9-0.1-2.2-0.6-3.8-1.9c0.7-0.2,0.6-0.7,2-0.2
			c-0.5-1.3-4.9-2-5.9-4.6c-0.2,0.5-0.8,0.5-1.3,0.4c-3.7-0.9-5.4-6.1-6.2-5.6c0,0-1.1-0.6-0.4,0.2c-1-0.8-2.3-2.1-1.5-2.6
			c-0.8,0-1.8,0.2-2.6-0.4l1.1-0.5c-0.6-0.2-1.5-0.1-2.1-0.3l0.3,1c-0.6-1.5-4.2-1.7-2.9-3.2l0.4,0.3l-1.6-2.4
			c-1.4-0.1-2.7-0.1-4-1.4c0.7-2-3.5-3.2-5.2-4.8l0.5-0.5c-2.1-0.4-5.6-3.5-5.1-2.8c-1.4-1.1-3-2.9-1.9-2.9c-1.4-0.6-3.8-2.4-5.2-2
			l-1.3-3.1c-3,0.9-4.1-4.2-5.9-2.3c-1-1.3-0.4-1.5-1-2.6c-2.6-0.4-4.4-1.9-6.1-3.5l0.1-0.3c-1.7-1.6-4.8-2.2-7.5-4.1l0.7-2
			c-1.6-0.8-2.9,0.1-3.9-1.2c-0.1-0.5,0.2-0.3,0.7-0.2c-1.5-0.7-3-2.4-3.6-3.5c-2.9-0.4-4.1-1.9-6.8-2C76,62,79.3,65.6,79,63.3
			c-2.2-2.9-5.8-4.3-9.4-5.9c0-0.5,0.5-0.5,0.9-0.7c0,0-9.3-1-9.4,1.4c-1.6,0.4-3,0.4-1,3.3c1.4,0.1,4.5,1.2,4,2.7l1-1
			c4,2.2-1.5,2.5,2.8,5.7l-0.6-1c0.9,0.5,2.1,0.3,2.7,1.4c0,0.5-0.7,0.2-1.2,0.2l4.7,1.2c-0.4,0.8-0.8,1-1.9,0.9
			c3.3,2.4,0.9-2.5,4.6,0.9c0.3,1-0.8,0.5-1.6,0.4c1.1,2.3,3,2.4,5.4,3.2c-0.8,1-1.9-0.1-0.8,1.7c0.1-0.7,0.6-1.7,1.9-0.9
			c-1.4,0.5,0.5,1.2,1.5,2.4c0-0.5,0.5-0.9,1.1-0.7c0.7,0.3,0.9,1,1.7,1.6L84.7,78c2.8,0.6,2.8,2.9,4,4.5c-0.3,0.1-0.6,0-1-0.2
			c1.3,1.6,2.3,3.7,5.1,4.4l-0.3,0c4.6,2,0.1-2.5,5.3,0c1.3,1.3-3.3,2.7,1.1,4.1c-0.9-2.1,3.8-0.3,6.1,0.8l-3.5,0.4
			c0.8,0.6,2.6,1.1,2.8,1.6l0.2-0.5c1.1-1.7,2.3,2.1,4.5,2.2c-3.5,0.9-3.3,0.4-5.3,2.3c2.3-0.2,4.8-0.1,7.1,2.1l-3.4,0.1
			c3,2.9,8.9,3.4,12.8,4.1c-1.7,0.7-1,2-3,2.1l3.4,2.2l-2,0.7c2.4-0.4,3.1,1.7,4.3-0.3c-0.5,0-0.7,0.2-1.2-0.3
			c0.5-0.5,2-1.2,3.6,0.2c0.8,1.3-1.2,0.2-1.3,0.9c1.7,0.1,0.8,1.3,2.3,1.6l-0.4-1.5c1.6-0.4,1.9,1.4,3.4,1.7
			c-1.7-0.6-1.7,0.4-1.7,1.4l0-0.2c0.8,0.5,2.5,0.6,2.6,1.6l-1.9,0.9l2-0.2c0.3,0.5,0.2,1.3-0.8,1c2.9,3.7,2.4-3.2,6.1,1.8
			c-0.5,0.5-1.3,0.5-2.4-0.9c-0.9,0.7-1,1.5,0,2.8c0,0.1-0.1,0.1-0.1,0.2C135.6,121.4,138.8,124,141.2,124.3z"/>
		<path fill="#FFC235" d="M133.2,119.5c-1.3-1-2.5-1.9-3.1-2.1C130.1,117.9,132.5,120.5,133.2,119.5z"/>
		<path fill="#FFC235" d="M328.9,269.8c-0.2-0.1-0.4-0.2-0.6-0.2C328.5,269.6,328.7,269.7,328.9,269.8z"/>
		<path fill="#FFC235" d="M339.6,277.6c0-0.2-0.1-0.5-0.3-0.8C339.1,277.2,339,277.5,339.6,277.6z"/>
		<path fill="#FFC235" d="M231.1,193.4C231.1,193.4,231.1,193.4,231.1,193.4C231.1,193.4,231.1,193.4,231.1,193.4z"/>
		<path fill="#FFC235" d="M290.2,240.5c1.3,0.3,2,0.1,2.3-0.2C291.8,240,291,239.9,290.2,240.5z"/>
		<path fill="#FFC235" d="M270.6,224.1c-0.2,0-0.4-0.1-0.6-0.1C270.4,224.2,270.6,224.2,270.6,224.1z"/>
		<path fill="#FFC235" d="M227.4,191.7c1.3,0.2,2.5,1.2,3.7,1.7C230,193,228.7,191.2,227.4,191.7z"/>
		<polygon fill="#FFC235" points="353.6,286.2 351.9,286.1 353.4,286.4 		"/>
		<path fill="#FFC235" d="M343.5,278.9c-0.3-0.5-2.4-1.4-2.2-0.7C342.1,278.3,342.8,278.6,343.5,278.9z"/>
		<polygon fill="#FFC235" points="306.9,248.6 305.8,249.1 307.2,249.1 		"/>
	</g>
	<g>
		<polygon fill="#FFC235" points="167.4,262.6 167.9,261.8 166.5,262.2 		"/>
		<path fill="#FFC235" d="M161,256.5c-1.3,0.3-2.9-0.1-4.1,1.4l2.2-0.5c-0.8,1.3,0.1,1.8,1,1.9l-0.8-0.5c0.3,0,0.8-0.8,1.1-0.8
			c0.7,1.5,2.3,0.1,2.3,2.2l-0.2,0.1l1.4-0.1c0.1,0.4-0.4,0.8-0.7,1c1.2,0,2.3-0.2,3.3,0.6c0.9-2.7-3.5-0.1-2.7-2.7l0.2-0.1
			C162.5,258.9,162.4,256.7,161,256.5z"/>
		<path fill="#FFC235" d="M163.3,261.1l-0.1,0C163.2,261.2,163.2,261.2,163.3,261.1z"/>
		<path fill="#FFC235" d="M126,226.2l-0.3,0.3C125.8,226.4,126,226.3,126,226.2z"/>
		<path fill="#FFC235" d="M134.4,240.2C134.4,240.2,134.4,240.2,134.4,240.2C133.9,240.5,134,240.4,134.4,240.2z"/>
		<path fill="#FFC235" d="M64.5,168.3l0.3-0.6C64.3,168.1,64.3,168.3,64.5,168.3z"/>
		<path fill="#FFC235" d="M50.8,152.6L50.8,152.6C50.7,152.6,50.7,152.6,50.8,152.6z"/>
		<path fill="#FFC235" d="M50.8,165.1l-0.4,0.4C50.7,165.3,50.8,165.2,50.8,165.1z"/>
		<path fill="#FFC235" d="M45.4,160.8c0-0.2-0.1-0.4-0.2-0.6C45.1,160.5,45.2,160.7,45.4,160.8z"/>
		<path fill="#FFC235" d="M51.1,152.6c-0.1,0-0.2,0-0.3,0C50.8,152.6,50.9,152.7,51.1,152.6z"/>
		<path fill="#FFC235" d="M57,173.3l-0.9,1.1C56.5,174.1,56.8,173.7,57,173.3z"/>
		<path fill="#FFC235" d="M43.4,160.2c0.1-0.2,0.2-0.4,0.1-0.6C43.4,159.9,43.3,160.1,43.4,160.2z"/>
		<path fill="#FFC235" d="M159.8,255.8c0.2,0.1,0.4,0.2,0.7,0.2C160.4,255.8,160.1,255.7,159.8,255.8z"/>
		<path fill="#FFC235" d="M83.1,201.5c-0.1,0.1-0.3,0.2-0.5,0.3C82.8,201.8,82.9,201.7,83.1,201.5z"/>
		<path fill="#FFC235" d="M67.2,185.5L67.2,185.5c-0.1,0-0.2,0.1-0.2,0.2L67.2,185.5z"/>
		<path fill="#FFC235" d="M72,190c-0.1,0-0.2,0.1-0.3,0.1C71.9,190.1,72,190,72,190z"/>
		<path fill="#FFC235" d="M62.7,182.9c-0.1,0-0.3,0.1-0.5,0.2L62.7,182.9z"/>
		<path fill="#FFC235" d="M60.5,178.5c-0.2,0.5-0.7,0.6-1.2,0.8c0.3,1.3,1.9,0.4,1.8,2.1l0.1-0.9c1.3-0.1,2.5,0.8,2,2.2l-0.5,0.2
			c1.4-0.2,0.6,2.1,1.6,1.7c0.2-0.6,0.7-0.6,0.8-1.4l2.2,0.6l-1.3,1.4l1.2,0.3c0.4-0.7,0.5,1.4,1.9,0.2c-0.1,0.9-1.2,0.8-1.9,1.2
			c0.8,0,0.3,0.6,1.4,0.3l-0.8,1.5l1.9,0.2c-0.2,0.1-0.2,0.2-0.4,0.3c1.5-0.5,0.6,1.8,3,0.8c-0.1,0-0.1,0.1-0.2,0.2
			c1.3-0.6,1.4,0.9,1.5,1.4c0.8,0.3,1.4-0.9,1.9-1.3c1.3,1.9,0.8,1.3,3.6,1.2c-0.7,2.2-3.4,1.4-3.4,3.4c0.9-0.6,2.2-0.4,3.2,0.1
			c0.2,1.2,1,2.8,0.7,4.5l0.9-1l1.6,0.5l-2,0.8c0.5-0.2,1.6-0.3,2.5-0.4c1.9,0.2-1.5,2.7,0.8,2c-0.1,0.1-0.2,0.3-0.2,0.4
			c1-0.5,1.5,0.5,2.5,1l-1.5,1l-0.3-0.8c-0.9,1.5,1.1,0.6,1.5,1.2c1,0.1,1.7-1.2,2.4-1.3c0.1,0.2,0.8,0.2,0.6,0.7
			c0.1,0.8-1.4,1.5-2.1,1.9c1.7-0.9,1.7-0.6,3.1-0.2c-0.6,0.6-0.9,0.8-1.1,0.8c0.3,0,0.8-0.1,1.4-0.5l-0.4,1c0,2,3.3-1.3,4.2,0.2
			c-1,0.4,1.2,0.8,0.8,2c-0.6-0.2-1.6,2-2.6,2.5c0.6,1.4,1.9-1.1,3-0.6l-1.9,1.3c1.4,0.1,1-0.7,2.3-0.4c-0.7,0.2-0.1,0.7-1,0.8
			c0.9,1.1,0.8,0.7,1.5,1.8l1.5-1.4c0.5,0.1-0.1,0.9-0.2,1.2c-0.2-0.1-0.3-0.3-0.5-0.1c-0.9,1.6,1.3-0.2,0.6,1.4
			c0.4-0.6,0.9-1.3,1.4-1.1c-1,0.8-0.2,1.4-0.6,1.8c0.4-0.9,1.1,0.5,2.1-0.5c-0.2,1.1-0.8,0.6-1.4,1.1c1.5-0.8,1.7,1.2,2.7,0.9
			c-0.1,0.1-0.1,0.2-0.2,0.2c1.2-0.3,2.1,0.2,4,0l-1.2,0.6c0.6,1.2,2.3-1.3,3.1-0.6c-1.4,1.1,1.4,1.1-0.3,2.1c1.1-0.3,1.9-0.2,3.3-1
			c-0.2,1.1-2.5,1-2.2,1.9l1.3-0.1l-0.5,0.8c0.5-0.5,1.1,0,1.5-0.4c-0.7,0.9-0.9,1.7-1.5,2.3c0.7,0.1,0.5,1.4,1.5,1l-0.3,0.4
			c1.8-1.2,1.6,0.8,3.2-0.6l-0.5,1.1c0.8,0.4,2.1-1.3,2.8-1.4c0.3,0.2,0.8,0.3,0.9,0.6c-1.8,0.3-0.7,1.6-1.1,2.3
			c0.3,0.3,1.4,1,2.4,0.5c-1.1,0.5-1.5,1.3-2.3,0.8c-1,1.9,1.4,0.6,2,1.5l-0.7,0.7c1.6,0.5,2.8-0.7,4.4-1.5c-0.7,1-1,1.1-2.2,1.8
			c0.3,1.2,2,1.6,2.8,2.5c-0.3,0.9-0.8,1.1-1.4,1.1c1.5,0.1,1.9,1.9,3.9,0.8c-0.8,0.4,0,0.7,0.1,1.3c0.3-0.3,0.7-0.7,0.7-0.6
			c1.1-0.2,2.9,0.2,3,1.4l-0.6,0.3c1.3,1.5,4.3-0.7,4.9,1.9c0,0.6-1.5,1.1-0.8,1.5c0.8-0.3,1.8-1.7,2.3-0.7l-1,1l1.5-0.6
			c0.5-1.1-0.6-1.5,0.8-2c-0.2,1.5,1.5-0.5,1.3,1.4c-0.3,0-1.2,0.6-1.8,0.9c0.7,2.7,3.3,1,4,3.8c1.6-0.1,2.9,0.6,4.2,0.4
			c-1,1-1.8,2-2.9,2.5c0.6,0.7,3.1-1.4,2.3,0.6c1.6-1.2,2.9,0.8,4.8-1.2c-0.3,0.4,0.8,0.7-1,1.2c1.6,0.2-0.1,2.9,0.3,3.3
			c0.3,0.2,0.8-1.6,1.4-1.1c0,0.1-0.2,0.4-0.2,0.5l0.6-0.3c-0.2,0.7-1.1,0.8-1.6,1.3c0.5,1.1,2.4-0.1,3.5,0.6l-0.5,0.2l1,0.9
			l-0.2,0.1l1.4-0.1l-0.5,0.5c0.3,0,0.6-0.3,1-0.2l-0.6,0.6c1.1-0.8,2.6-0.6,3-0.2l-0.2,0.4l2.2-0.5c0,1.2-2.1,1-0.5,1.4l-1.4,1.1
			c1.3,0.1,0.8,1,1.8,0.9c0.3-0.9-0.2-1.1,0.6-1.5c-0.6,2.1,1.4,0.4,2.6,0.3c-0.4-0.2-0.6-0.4-1.4,0.2c-0.3-0.3,0.5-0.8,0.3-1
			l-1.1,0.4l0.6-1l-1.4,0.1c0.9-1-0.7-0.7,0.6-1.6c-1,0-0.7-1-2.1-0.3c0.1-1,1.3-0.3,0.9-0.7c-3.1-0.9-5.4-3-7.4-5.3l0.6-0.3
			c-0.6,0.3-1.3,0.4-1.8,0.7c0.3-1.2-0.3-3.5-2.3-2.4c0-0.2,0.3-0.3,0.5-0.4c-1-0.5-1.5-2.7-2.7-3.5c-1.9,1.3-0.8-2.4-3.2-0.5
			l0.6-0.3c-0.2,1-1.9,1.1-2.6,1.6c1-1.8,1-1.2,1.8-2.9l0,0.9l1-1.3c-4.2,2-1.4-3.6-4.3-2.1c0.2-0.1,0.3-0.3,0.5-0.4
			c0-1.2-1.8,0-2.6,0.1c0.5-0.7,1.1-0.8,1.8-1.1c-0.6-1.3-3.8-1.1-4.1-3.1c-1.1,0.5-0.8,1.2-1.8,1.5c-0.1-0.5,0.2-1.4,1-1.4
			c0.4-2.3-4.1-1.7-4.4-4.4c-1.6,0.2-1.5,1-3.2,0.6c0.8-0.3,1.5-2.2,2.3-1.7l0.7-0.6c-1.1-1.2-2.5-2.8-4.7-1.5
			c1.2-1.4,0-0.4,0.2-1.5c-0.3,0-0.2,0.2-0.2,0.4c-1.5,0.7-0.6-0.6-1.1-0.7l0.3-0.1l-1.6,0.1c0-0.3,0-0.7,0.4-1.2l-0.8,0.9
			c-0.5-0.4,0.9-1.4,0.1-1.6l-0.5,0.8c0-0.7-1.4-0.3-0.6-1.4c0.2-0.2,0.2-0.1,0.3,0c0.7-1.9-1.9-0.8-2-2.1l-1.2,1.6
			c-1.1-0.1-0.1-0.7,0.4-1.2c-0.5-0.4-0.1-1-0.6-1.7c-0.6,0.1-0.7,0.4-1.2,0.7l-0.3-0.9l1.1-0.5c-3,1.3-2.1-2.3-4.6-0.9
			c0-0.7,1.2-0.6,1.2-1c-0.2-1.9-3.8-0.8-3.7-2.8c-0.5-2.4-3.2-2.9-4.1-5.2l-0.4,0.4l-0.9-1.4c-1.2,0.6-1.6-0.6-3,0
			c0.3-0.3,0.7-0.8,1-1c-0.6-0.3-1.6-0.4-1.3-1.2l0.5-0.2c-0.9-1.3-2.4-2.7-3.7-2.5c-0.5-0.3,0.2-0.9,0.6-1.5
			c-0.6-0.6-1.4-0.6-2.5-0.5c0-0.3,0.1-0.6,0.3-1.1l-1.2,0.7c-0.1-0.4,0.7-0.8,0.8-1.3c-2.1,0.2-2.2-1.9-3-2.5l-0.4,0.6
			c-0.7,0.1-0.5-1.1,0.3-1.2c-0.8-1.8-3.5-0.5-5.1-2.5c1.5-1.9-2.1-1.1-0.5-3.2c-1.3-0.3-1-1.5-2.6-0.9c0.2-0.2,0.2-0.3,0.4-0.3
			c0.4-1-1.1-1.5-2.4-1.7l0.5-0.6c-1.6,0.9-2.5-0.7-4,0.2c0.2-0.3,0.7-0.4,1-0.5c0.8-1.5-1.3-0.2-1.5-0.9c0.4-0.3,0.6-0.7,0.9-0.9
			c-0.3-3-5.1-3.3-6.3-6.4c-0.6-0.7-1.2,1.5-1.8,0.6c0.4-0.8,1.7-0.8,1.5-1.6c-1.2,0.4-1.1,0.1-1.5-0.5c0.5-0.3,0.7-0.6,1.4-0.6
			c0.3-0.8-2.2-0.3-1.7-1.9c-0.4,0.4-0.7,0.5-1,0.6c-2,0.2-0.7-3-1.4-2.5c0,0-0.5-0.1-0.4,0.2c-0.3-0.3-0.5-1,0.2-1.5
			c-0.5,0.2-1.2,0.5-1.5,0.3l0.9-0.5c-0.3,0-0.9,0.3-1.2,0.2l-0.3,0.6c0.3-0.9-1.9-0.3-0.4-1.6l0.1,0.1l0-1.3
			c-0.8,0.3-1.7,0.5-1.9-0.1c1.4-1.5-0.8-1.5-1.1-2.2l0.6-0.4c-1.2,0.2-1.9-1.3-2-0.8c-0.4-0.4-0.6-1.4,0.1-1.5
			c-0.6-0.1-1.3-0.9-2.4-0.3l0.6-1.8c-2.3,1.2-0.6-2.1-2.7-0.4c-0.1-0.7,0.5-1,0.6-1.6c-1.5,0.3-1.9-0.4-2.2-1.2l0.2-0.2
			c-0.4-0.7-2-0.6-2.9-1.3l1.4-1.5c-0.6-0.3-1.9,0.7-1.9,0c0.2-0.3,0.3-0.3,0.5-0.2c-0.7-0.1-0.8-1-0.7-1.7
			c-1.7,0.3-1.7-0.5-3.4-0.1c0.9-1.6,1.3,0.2,2.2-1.3c-0.1-1.5-1.6-1.8-3.2-2.2c0.2-0.3,0.6-0.4,0.9-0.7c0,0-5.5,1.1-6.7,2.7
			c-1.2,0.6-2.1,0.8-2.2,2.4c0.9-0.2,2.3,0,1.3,1.1l1.1-0.8c1.5,0.7-2.1,1.9-0.9,3.3l0.1-0.6c0.3,0.2,1.2-0.2,1.1,0.4
			c-0.2,0.3-0.5,0.3-0.9,0.4l2.5-0.1c-0.6,0.6-1,0.8-1.6,1c1,1,1.8-1.9,2.5-0.2c-0.3,0.6-0.7,0.5-1.2,0.6c-0.4,1.4,0.8,1.1,1.9,1.2
			c-1,0.8-1.2,0.3-1.4,1.3c0.4-0.5,1.2-1.3,1.6-1c-1.1,0.6-0.3,0.7-0.2,1.3c0.3-0.4,0.7-0.7,1-0.7c0.3,0.1,0.1,0.5,0.4,0.7l0.5-1.3
			c1.5-0.1,0.4,1.4,0.5,2.3c-0.2,0.1-0.4,0.1-0.6,0.1c0.1,0.8-0.2,2,1.2,2l-0.2,0c2.1,0.4,1.3-1.7,3.4-1.1c0.2,0.6-3.3,2.4-1.2,2.6
			c0.4-1.2,2.6-1,3.5-0.7l-2.4,1c0.2,0.3,1.1,0.3,1,0.6l0.4-0.4c1.5-1.4,0.5,1,1.9,0.6c-2.6,1.3-2.3,0.9-4.5,2.6
			c1.6-0.6,3.1-1,3.6,0l-2.2,0.8c0.6,1.4,4.2,0.5,6.3,0.2c-1.4,0.8-1.5,1.6-2.9,2.1l1.2,0.8l-1.6,0.9c1.7-0.8,1.2,0.5,2.9-1.1
			c-0.3,0.1-0.5,0.3-0.7,0c0.6-0.4,1.8-1.2,2.2-0.6c-0.1,0.7-0.9,0.4-1.3,0.9c1-0.3-0.1,0.7,0.7,0.6l0.5-1c1.2-0.6,0.6,0.5,1.4,0.4
			c-0.8,0-1.3,0.6-1.7,1.3l0.1-0.1c0.3,0.2,1.3-0.1,0.9,0.6l-1.6,1l1.4-0.5c0,0.3-0.4,0.8-0.9,0.8c0.2,1.9,3-2.7,3.1-0.1
			c-0.5,0.4-1.1,0.6-1.1-0.1c-0.9,0.7-1.3,1.2-1.2,1.9c-0.1,0.1-0.1,0.1-0.2,0.1C58.2,177.7,59.1,178.8,60.5,178.5z"/>
		<path fill="#FFC235" d="M57.4,176.9c-0.4-0.4-0.7-0.8-1.1-0.8C56.2,176.5,56.6,177.7,57.4,176.9z"/>
		<path fill="#FFC235" d="M120.1,233.8c-0.1,0-0.2,0-0.3,0C119.9,233.8,120,233.8,120.1,233.8z"/>
		<path fill="#FFC235" d="M124,236.3c0.1-0.2,0.1-0.3,0.1-0.5C123.8,236.2,123.7,236.4,124,236.3z"/>
		<path fill="#FFC235" d="M88.1,205.8L88.1,205.8L88.1,205.8z"/>
		<path fill="#FFC235" d="M106.8,223.7c0.7-0.2,1.2-0.4,1.5-0.8C108,222.9,107.6,223,106.8,223.7z"/>
		<path fill="#FFC235" d="M100.8,217.3c-0.1,0-0.2,0-0.3,0.1C100.7,217.4,100.8,217.4,100.8,217.3z"/>
		<path fill="#FFC235" d="M86.5,205.5c0.7-0.2,1.1,0.2,1.6,0.3C87.6,205.8,87.5,204.8,86.5,205.5z"/>
		<polygon fill="#FFC235" points="129.6,238.4 128.6,238.8 129.4,238.6 		"/>
		<path fill="#FFC235" d="M125.9,236.1c0-0.3-1-0.3-1.1,0.2C125.3,236.1,125.6,236.1,125.9,236.1z"/>
		<polygon fill="#FFC235" points="114.2,224.9 113.3,225.5 114.2,225.2 		"/>
	</g>
	<g>
		<polygon fill="#FFC235" points="230.8,417.5 231.6,418 230.7,417.2 		"/>
		<path fill="#FFC235" d="M232.8,416.6c-0.7-0.7-1.1-1.4-2.7-2.5l1.2,1.3c-1.2-0.8-1.3-0.6-1-0.2l0-0.2c0.1,0.2,0.9,0.7,1,0.8
			c-0.8-0.2,0.8,1.1-0.7,0.3l-0.1-0.1l0.6,0.7c-0.2-0.1-0.8-0.5-1-0.7c0.5,0.6,1.1,1.2,0.8,1.4c2.3,1.4-1.3-1.7,1-0.3l0.1,0.1
			C231.6,416.4,233.2,417.2,232.8,416.6z"/>
		<path fill="#FFC235" d="M230.3,416L230.3,416C230.2,415.9,230.3,416,230.3,416z"/>
		<path fill="#FFC235" d="M240.1,409.3l-0.4-0.2C239.9,409.1,240,409.2,240.1,409.3z"/>
		<path fill="#FFC235" d="M233.7,409C233.7,409,233.7,409,233.7,409C233.2,408.7,233.3,408.8,233.7,409z"/>
		<path fill="#FFC235" d="M249.5,393.3l0.6,0.2C249.5,393.2,249.4,393.2,249.5,393.3z"/>
		<path fill="#FFC235" d="M252.2,389.5L252.2,389.5L252.2,389.5z"/>
		<path fill="#FFC235" d="M243.8,387.4l-0.5-0.2C243.5,387.3,243.7,387.4,243.8,387.4z"/>
		<path fill="#FFC235" d="M243.5,385.6c0.1,0,0.3,0,0.3,0C243.5,385.5,243.4,385.6,243.5,385.6z"/>
		<path fill="#FFC235" d="M252.3,389.7c-0.1-0.1-0.1-0.1-0.2-0.1C252.2,389.5,252.3,389.6,252.3,389.7z"/>
		<path fill="#FFC235" d="M241.8,388.8l-1.3-0.6C240.9,388.4,241.4,388.6,241.8,388.8z"/>
		<path fill="#FFC235" d="M242.6,384.8c0.3,0.1,0.4,0.2,0.5,0.2C242.9,384.9,242.7,384.8,242.6,384.8z"/>
		<path fill="#FFC235" d="M232.9,416.3c0,0,0,0.1,0.1,0.2C233.1,416.5,233.1,416.4,232.9,416.3z"/>
		<path fill="#FFC235" d="M236.6,395c-0.1-0.1-0.3-0.2-0.5-0.3C236.2,394.8,236.4,394.9,236.6,395z"/>
		<path fill="#FFC235" d="M239.2,391.1L239.2,391.1c-0.1-0.1-0.2-0.1-0.2-0.1L239.2,391.1z"/>
		<path fill="#FFC235" d="M238.7,392.4c-0.1-0.1-0.2-0.1-0.3-0.2C238.6,392.3,238.6,392.4,238.7,392.4z"/>
		<path fill="#FFC235" d="M238.4,389.5c-0.1-0.1-0.2-0.2-0.4-0.3L238.4,389.5z"/>
		<path fill="#FFC235" d="M240.2,389.4c-0.5-0.2-0.9-0.5-1.3-0.7c-0.7-0.1,0.8,0.8-0.4,0.4l0.7,0.2c0.8,0.6,0.9,1-0.4,0.5l-0.4-0.3
			c0.9,0.7-1-0.1-0.2,0.4c0.6,0.2,0.9,0.5,1.4,0.7l0.8,0.9l-1.7-0.9l0.4,0.5c0.7,0.3-0.7-0.1,0.9,0.8c-0.7-0.2-1.2-0.8-1.9-1.2
			c0.4,0.4-0.3,0,0.6,0.6l-1.5-0.7l0.9,0.9c-0.1-0.1-0.2-0.1-0.4-0.2c1.2,0.8-0.9-0.1,1.1,1.3c-0.1-0.1-0.1-0.1-0.2-0.1
			c1.1,0.7,0.1,0.5-0.1,0.4c0.2,0.3,1.4,0.9,2,1.2c-0.6,0.2-0.4,0.1,1.1,1.4c-1.9-0.9-2.8-1.9-4.2-2.4c0.9,0.5,1.5,1.1,1.7,1.5
			c-0.7-0.2-1.4-0.2-2.8-0.7l1.2,0.7l0.5,0.6l-1.6-1.2c0.4,0.3,1.1,0.8,1.6,1.3c0.9,0.9-2.7-1.4-1-0.1c-0.1-0.1-0.3-0.1-0.4-0.2
			c0.9,0.6,0.4,0.6,0.6,1l-1.5-1l0.4,0.1c-1.5-0.8,0.1,0.4,0,0.4c0.4,0.4,1.7,1.1,2.1,1.5c-0.1,0,0.3,0.3-0.2,0.1
			c-0.5-0.2-1.8-1.1-2.4-1.5c1.5,1,1.3,0.9,1.8,1.5c-0.7-0.4-1.1-0.6-1.2-0.8c0.2,0.2,0.5,0.4,1.1,0.8l-0.9-0.4
			c-1.4-0.5,2.6,1.9,2,2c-0.8-0.6,0,0.4-1-0.1c-0.2-0.3-2.2-1.3-3.1-1.9c-0.7-0.1,1.7,1.2,2,1.6l-1.8-1.2c0.7,0.7,1,0.7,1.4,1.2
			c-0.5-0.4-0.6-0.2-1.1-0.7c-0.3,0.1-0.1,0.2-0.5,0.3l1.8,1.1c0.2,0.2-0.7-0.3-1-0.4c0-0.1,0.1-0.1-0.2-0.2
			c-1.6-0.9,0.8,0.7-0.7-0.1c0.6,0.3,1.4,0.8,1.4,0.9c-1.1-0.7-1.1-0.5-1.6-0.8c0.8,0.4,0.2,0.4,1.4,1.2c-0.9-0.4-0.8-0.6-1.4-1
			c1.4,1,0,0.5,0.7,1.1c-0.1-0.1-0.2-0.1-0.3-0.2c0.8,0.6,0.9,1,2,2l-1-0.7c-0.6-0.1,2.1,1.5,1.9,1.7c-1.4-1-0.1,0.4-1.7-0.7
			c0.8,0.6,1.1,1,2.3,1.9c-0.9-0.4-1.9-1.5-2.4-1.6l0.7,0.6l-0.8-0.5c0.6,0.4,0.5,0.6,1,0.8c-1-0.6-1.7-0.9-2.4-1.4
			c0.2,0.3-0.8-0.2,0,0.5l-0.5-0.3c1.7,1.2,0.2,0.5,1.9,1.7l-1-0.6c0.1,0.3,1.9,1.4,2.3,1.8c0,0.1,0.2,0.3,0,0.3
			c-1-1-1.5-0.8-2.2-1.2c-0.1,0.1-0.1,0.4,0.8,1c-0.9-0.7-1.7-1.1-1.6-1.3c-1.8-1.1,0.2,0.5-0.1,0.5l-0.8-0.5
			c0.4,0.6,1.8,1.6,3.1,2.6c-1-0.6-1.3-0.8-2.3-1.6c-0.7-0.2-0.2,0.5-0.5,0.6c-0.8-0.4-1.2-0.7-1.4-1c0.6,0.7-0.5,0.3,1.2,1.7
			c-0.7-0.5-0.5-0.2-0.9-0.4c0.4,0.2,0.8,0.6,0.8,0.6c0.6,0.6,1.1,1.3,0.4,1.1l-0.5-0.4c-0.5,0.1,2.4,2.3,0.9,1.8
			c-0.4-0.2-1.4-1.1-1.5-0.9c0.6,0.5,2,1.4,1.5,1.3l-1.2-0.8l1.1,0.9c1,0.6,0.8,0.2,1.8,1c-1.2-0.6,1,0.9-0.4,0.2
			c-0.1-0.1-0.9-0.8-1.4-1.1c-1.7-0.5,0.7,1.3-1,0.7c0.8,0.8,0.8,1.2,1.5,1.9c-1.2-0.8-2.2-1.5-3-2.2c-0.3,0.1,2.3,2,0.5,0.9
			c1.5,1.2,0.7,1.2,2.9,2.7c-0.5-0.3-0.2,0.2-1.3-0.9c0.6,0.7-2.2-1-2.2-0.9c0,0.1,1.5,0.9,1.4,1.1c-0.1,0-0.3-0.2-0.4-0.3l0.5,0.4
			c-0.5-0.3-1.1-0.8-1.6-1.2c-0.6-0.1,1.1,1.2,1,1.5l-0.4-0.3l-0.2,0.2l-0.1-0.1l0.6,0.7l-0.6-0.4c0.1,0.2,0.5,0.4,0.5,0.5l-0.7-0.5
			c1.1,0.8,1.5,1.5,1.4,1.6l-0.3-0.2l1.2,1.3c-0.9-0.4-1.5-1.4-1.2-0.7l-1.4-1.1c0.4,0.6-0.4,0.1,0,0.5c0.8,0.5,0.7,0.3,1.3,0.8
			c-1.8-1,0.2,0.5,0.8,1.2c0-0.1,0.1-0.1-0.7-0.8c0.1-0.1,0.8,0.5,0.9,0.5l-0.7-0.7l1,0.7l-0.6-0.7c1.1,0.8,0.3-0.1,1.4,0.9
			c-0.4-0.5,0.5,0-0.6-0.9c0.8,0.4,0.7,0.7,0.9,0.7c-0.5-1.2,0-1.6,0.8-1.8l0.5,0.4c-0.5-0.4-0.9-0.8-1.2-1.1c1,0.6,2.4,1,0.8-0.3
			c0.1,0.1,0.3,0.3,0.5,0.4c-0.1-0.3,1.4,0.2,1.4-0.2c-1.8-1.4,1.4,0.4-1-1.4l0.5,0.4c-0.8-0.4-1.7-1.3-2.3-1.8
			c1.7,1,1.3,0.9,2.8,1.8l-0.6-0.3l1.4,0.9c-3.3-2.7,2,0.5-0.4-1.5c0.1,0.1,0.3,0.3,0.5,0.4c0.9,0.4-0.8-0.9-1.2-1.3
			c0.7,0.4,1.1,0.8,1.6,1.2c0.7,0.1-0.9-1.5,0.4-1.1c-0.9-0.7-1.3-0.8-1.9-1.4c0.3,0.1,1.1,0.5,1.5,0.9c1.9,0.9-0.6-1.5,1.2-0.8
			c-0.9-0.9-1.4-1-1.9-1.8c0.6,0.5,2.3,1.4,2.3,1.6l0.7,0.5c0.3-0.2,0.9-0.4-1.1-1.9c1.5,1,0.3,0.1,1.2,0.6
			c-0.1-0.2-0.2-0.1-0.3-0.2c-1.2-0.9,0.2-0.1,0-0.3l0.2,0.2l-0.8-0.8c0.2,0.1,0.5,0.2,1,0.5l-1.1-0.7c0.1-0.1,1.4,0.8,1.2,0.5
			l-0.8-0.5c0.5,0.2-0.5-0.6,0.7,0.1c0.2,0.1,0.1,0.1,0.1,0.2c1.7,0.9-0.3-0.7,0.6-0.4l-1.7-1.1c-0.4-0.5,0.4,0.1,1,0.5
			c0.1-0.1,0.6,0.2,0.9,0.2c-0.4-0.3-0.6-0.4-1.1-0.8l0.5,0.1l0.9,0.7c-2.3-1.8,0.7-0.4-1.5-2c0.5,0.2,1,0.7,1.3,0.9
			c1.3,0.4-1.2-1.6,0.2-1.1c1.5,0.4,0.6-0.8,1.7-0.7l-0.5-0.3l0.6-0.1c-1-0.7-0.4-0.6-1.5-1.5c0.4,0.2,0.9,0.6,1.2,0.7
			c-0.1-0.2-0.5-0.7,0.2-0.4l0.4,0.3c0.5-0.1,0.7-0.5-0.1-1.2c0-0.2,0.8,0.3,1.4,0.7c0.2-0.1-0.3-0.5-0.9-1.1
			c0.2,0.1,0.4,0.2,0.9,0.4l-1.1-0.7c0.2,0,1,0.5,1.3,0.7c-1.2-1.1,0.2-0.6,0.2-0.9l-0.6-0.3c-0.4-0.3,0.5,0,1,0.4
			c0.9,0.1-1.5-1.6-0.9-1.9c2.1,1.2-0.4-0.8,2,0.5c-0.5-0.5,0.5-0.1-0.7-1.1c0.2,0.1,0.4,0.2,0.4,0.2c0.9,0.4,0.4-0.2-0.1-0.8
			l0.7,0.4c-1.5-1-0.8-1-2.3-2c0.4,0.2,0.6,0.4,0.9,0.6c1.5,0.7-0.6-0.6-0.2-0.5c0.4,0.2,0.8,0.4,1.1,0.6c1.9,0.5-0.5-1.8,1-1.7
			c0.2-0.1-1.7-0.9-1.4-1c0.8,0.4,1.5,1,1.9,1c-0.9-0.6-0.7-0.6-0.5-0.6c0.5,0.3,0.9,0.5,1.2,0.8c0.7,0.3-1-1,0.3-0.4
			c-0.5-0.3-0.7-0.4-1-0.6c-1.2-1,1.7,0.2,0.9-0.2c0,0-0.2-0.2-0.4-0.2c0.1-0.1,0.4-0.1,1.1,0.4c-0.4-0.3-1-0.7-1.1-0.8l0.9,0.5
			c-0.2-0.1-0.7-0.5-0.8-0.6l-0.6-0.2c0.8,0.3-0.9-0.9,0.8,0.1l0,0.1l0.9,0.2c-0.7-0.4-1.3-0.9-1-0.9c1.8,0.9,0.6-0.1,0.8-0.1
			l0.6,0.3c-0.8-0.6-0.2-0.7-0.6-0.8c0.1-0.1,0.6,0,1.1,0.3c-0.3-0.3-0.2-0.5-1.2-1.1l1.6,0.6c-2.2-1.3,1,0-1.3-1.2
			c0.4,0.1,0.9,0.4,1.4,0.5c-1.1-0.8-0.8-0.8-0.5-0.9l0.2,0.1c0.3-0.1-0.8-0.9-0.8-1.1l1.8,0.9c-0.2-0.2-1.6-1-1.1-0.9
			c0.3,0.1,0.4,0.2,0.5,0.3c-0.3-0.3,0.2-0.2,0.7,0c-1.2-0.8-0.7-0.7-2-1.6c1.7,0.7,0.6,0.6,2.2,1.2c1,0.2,0.2-0.5-0.4-1.1
			c0.4,0.2,0.6,0.3,1,0.5c0,0-4.1-2.7-5.9-3.5c-1.2-0.7-1.8-1.1-2.9-1.4c0.7,0.4,1.4,1.1,0.1,0.4l1.3,0.7c0.4,0.6-2.6-1.3-2.8-0.9
			l0.5,0.1c0,0.1,0.8,0.6,0.4,0.4c-0.4-0.2-0.5-0.3-0.8-0.5l1.6,1.2c-0.7-0.4-1.1-0.6-1.7-0.9c-0.1,0.3,2.3,1.1,1.7,1.2
			c-0.6-0.2-0.8-0.4-1.2-0.7c-1.1-0.4-0.2,0.2,0.4,0.7c-1.1-0.6-0.9-0.6-1.7-0.9c0.6,0.3,1.6,0.8,1.6,0.9c-1.1-0.6-0.6-0.2-1-0.3
			c0.4,0.2,0.9,0.5,1.1,0.6c0.2,0.1-0.3-0.1-0.3,0l1.2,0.5c1,0.7-0.7,0-1.3-0.2c-0.2-0.1-0.3-0.2-0.4-0.3c-0.5-0.1-1.5-0.5-0.6,0.2
			l-0.1-0.1c0.9,0.9,1.9,0.9,2.8,1.8c-0.3,0-3.6-2-2.5-1c1,0.4,2.2,1.4,2.6,1.8l-2.1-1.3c-0.1,0.1,0.5,0.5,0.2,0.4l0.5,0.3
			c1.8,1-0.4,0.1,0.7,0.8c-2.4-1.5-1.9-1.2-4.4-2.6c1.3,0.8,2.5,1.6,2.1,1.7l-1.8-1.2c-0.6,0,2.1,1.8,3.6,2.9
			c-1.4-0.8-1.9-1-3.1-1.8l0.2,0.4l-1.5-0.9c1.5,1,0.4,0.5,2.5,1.6c-0.3-0.2-0.5-0.3-0.4-0.3c0.6,0.3,1.9,1.1,1.7,1.2
			c-0.6-0.2-0.8-0.5-1.4-0.8c0.8,0.5-0.6-0.2,0,0.2l0.9,0.4c1.1,0.7,0,0.2,0.5,0.6c-0.5-0.4-1.2-0.7-1.9-1.1l0.2,0.1
			c0,0.1,0.8,0.6,0.1,0.3l-1.6-1l1.2,0.8c-0.2-0.1-0.8-0.4-1.1-0.6c-1.2-0.3,3.6,1.9,1.8,1.5c-0.6-0.3-1-0.6-0.6-0.5
			c-1-0.6-1.6-0.9-2-1c-0.1,0-0.1-0.1-0.2-0.1C239.4,388.4,239.2,388.6,240.2,389.4z"/>
		<path fill="#FFC235" d="M239.6,388.3c0.1-0.1,0.1-0.2-0.1-0.3C239.1,387.8,238.5,387.7,239.6,388.3z"/>
		<path fill="#FFC235" d="M231.9,404.1c0,0-0.1-0.1-0.1-0.1C231.8,404,231.8,404,231.9,404.1z"/>
		<path fill="#FFC235" d="M231.8,405.2c0.2,0.1,0.3,0.2,0.4,0.2C231.9,405.2,231.6,405,231.8,405.2z"/>
		<path fill="#FFC235" d="M236.2,396.4C236.2,396.4,236.2,396.4,236.2,396.4C236.2,396.4,236.2,396.4,236.2,396.4z"/>
		<path fill="#FFC235" d="M232.9,400.6c0.5,0.4,0.9,0.7,1.3,1C234,401.4,233.7,401.2,232.9,400.6z"/>
		<path fill="#FFC235" d="M234.5,399.5c-0.1-0.1-0.1-0.1-0.2-0.2C234.4,399.4,234.4,399.4,234.5,399.5z"/>
		<path fill="#FFC235" d="M235.6,395.7c0.5,0.4,0.4,0.5,0.6,0.7C236,396.1,236.6,396.3,235.6,395.7z"/>
		<polygon fill="#FFC235" points="232.9,407.3 232.1,406.7 232.6,407.1 		"/>
		<path fill="#FFC235" d="M232.9,406.2c0.2,0.1-0.2-0.4-0.6-0.6C232.6,405.9,232.7,406,232.9,406.2z"/>
		<polygon fill="#FFC235" points="235.5,403.8 234.7,403.3 235.3,403.8 		"/>
	</g>
	<g>
		<polygon fill="#FFC235" points="264.2,425.1 265.1,425.6 264.1,424.9 		"/>
		<path fill="#FFC235" d="M265.8,424.4c-0.8-0.6-1.3-1.1-3-2.1l1.4,1.1c-1.3-0.7-1.3-0.5-1-0.2l0-0.2c0.2,0.1,1,0.6,1.1,0.7
			c-0.8-0.2,1,0.9-0.5,0.3l-0.1-0.1l0.8,0.6c-0.2-0.1-0.8-0.4-1.1-0.6c0.6,0.5,1.3,1,1.1,1.1c2.4,1.1-1.6-1.4,0.8-0.2l0.1,0.1
			C264.7,424.3,266.4,424.9,265.8,424.4z"/>
		<path fill="#FFC235" d="M263.4,424L263.4,424C263.3,423.9,263.4,423.9,263.4,424z"/>
		<path fill="#FFC235" d="M271.1,419.2l-0.3-0.2C270.9,419.1,271,419.2,271.1,419.2z"/>
		<path fill="#FFC235" d="M265.2,418.3C265.2,418.3,265.2,418.3,265.2,418.3C264.7,418,264.8,418.1,265.2,418.3z"/>
		<path fill="#FFC235" d="M279,408.8l0.5,0.4C279.1,408.8,279,408.7,279,408.8z"/>
		<path fill="#FFC235" d="M281.7,406.8L281.7,406.8L281.7,406.8z"/>
		<path fill="#FFC235" d="M274.7,402l-0.4-0.4C274.5,401.9,274.6,402,274.7,402z"/>
		<path fill="#FFC235" d="M274.8,400.5c0.1,0.1,0.2,0.1,0.3,0.1C274.8,400.4,274.7,400.4,274.8,400.5z"/>
		<path fill="#FFC235" d="M281.9,407c-0.1-0.1-0.1-0.1-0.1-0.2C281.8,406.9,281.8,406.9,281.9,407z"/>
		<path fill="#FFC235" d="M272.7,402.6l-1.1-0.9C272,402,272.4,402.3,272.7,402.6z"/>
		<path fill="#FFC235" d="M274.2,399.5c0.2,0.2,0.3,0.3,0.4,0.3C274.4,399.6,274.2,399.5,274.2,399.5z"/>
		<path fill="#FFC235" d="M265.8,424.2c0,0,0,0.1,0.1,0.2C266.1,424.4,266,424.3,265.8,424.2z"/>
		<path fill="#FFC235" d="M267.3,406.6c-0.1-0.1-0.2-0.2-0.4-0.4C267,406.3,267.1,406.5,267.3,406.6z"/>
		<path fill="#FFC235" d="M270.1,403.8L270.1,403.8c-0.1-0.1-0.1-0.1-0.2-0.2L270.1,403.8z"/>
		<path fill="#FFC235" d="M269.5,404.8c-0.1-0.1-0.1-0.1-0.2-0.2C269.3,404.7,269.4,404.8,269.5,404.8z"/>
		<path fill="#FFC235" d="M269.5,402.2c-0.1-0.1-0.2-0.2-0.3-0.4L269.5,402.2z"/>
		<path fill="#FFC235" d="M271.2,402.6c-0.4-0.3-0.7-0.7-1-1c-0.6-0.3,0.6,0.9-0.4,0.3l0.6,0.4c0.7,0.8,0.7,1.1-0.4,0.3l-0.3-0.3
			c0.7,0.9-1-0.4-0.3,0.3c0.5,0.4,0.7,0.6,1.2,1l0.6,1l-1.4-1.2l0.4,0.6c0.6,0.5-0.6-0.2,0.7,1c-0.6-0.4-1.1-1-1.6-1.5
			c0.3,0.4-0.3-0.1,0.5,0.7l-1.3-1l0.7,1c-0.1-0.1-0.2-0.2-0.3-0.3c1,1-0.8-0.3,0.9,1.4c-0.1-0.1-0.1-0.1-0.2-0.2
			c0.9,0.9,0.1,0.4-0.2,0.3c0.2,0.3,1.2,1.1,1.7,1.5c-0.6,0-0.4,0,0.9,1.5c-1.7-1.2-2.4-2.3-3.7-3.1c0.8,0.7,1.3,1.3,1.4,1.7
			c-0.7-0.3-1.3-0.5-2.5-1.3l1.1,0.9l0.4,0.7l-1.5-1.4c0.3,0.3,0.9,1,1.4,1.5c0.8,1-2.4-1.8-0.9-0.3c-0.1-0.1-0.2-0.2-0.4-0.3
			c0.8,0.7,0.4,0.6,0.6,1l-1.3-1.2l0.4,0.1c-1.4-1,0.1,0.3-0.1,0.4c0.4,0.5,1.5,1.3,1.9,1.7c-0.1,0,0.3,0.4-0.1,0.1
			c-0.5-0.3-1.6-1.3-2.2-1.8c1.3,1.2,1.1,1.1,1.6,1.7c-0.7-0.5-1-0.8-1.1-0.9c0.1,0.2,0.4,0.4,1,0.9l-0.8-0.6
			c-1.3-0.7,2.4,2.2,1.8,2.1c-0.7-0.6,0,0.3-0.9-0.3c-0.2-0.3-2.1-1.5-2.9-2.2c-0.7-0.2,1.6,1.3,1.8,1.7l-1.7-1.4
			c0.6,0.7,0.9,0.8,1.3,1.3c-0.5-0.4-0.5-0.3-1-0.8c-0.3,0.1-0.1,0.1-0.5,0.1l1.7,1.3c0.1,0.2-0.6-0.3-0.9-0.6c0,0,0.1,0-0.1-0.2
			c-1.5-1,0.7,0.7-0.7-0.2c0.5,0.4,1.3,0.9,1.4,1.1c-1-0.8-1-0.6-1.5-0.9c0.7,0.5,0.2,0.4,1.3,1.3c-0.8-0.5-0.8-0.6-1.4-1.1
			c1.3,1.1,0,0.4,0.7,1c-0.1-0.1-0.2-0.1-0.2-0.2c0.7,0.7,0.8,1,1.9,2l-0.9-0.8c-0.6-0.1,2,1.6,1.9,1.7c-1.4-1-0.1,0.3-1.6-0.9
			c0.7,0.7,1,1,2.2,1.9c-0.8-0.5-1.8-1.5-2.3-1.7l0.7,0.7l-0.8-0.5c0.6,0.4,0.5,0.6,1,0.9c-0.9-0.6-1.6-1-2.3-1.5
			c0.2,0.3-0.7-0.2,0,0.4l-0.5-0.3c1.6,1.3,0.2,0.5,1.9,1.8l-1-0.6c0.1,0.2,1.9,1.5,2.3,1.8c0,0.1,0.2,0.3,0,0.2
			c-1-0.9-1.4-0.9-2.1-1.3c-0.1,0-0.1,0.3,0.8,1c-0.9-0.7-1.6-1.2-1.6-1.3c-1.8-1.1,0.3,0.5-0.1,0.5l-0.8-0.6
			c0.4,0.6,1.8,1.5,3.1,2.6c-1-0.7-1.3-0.9-2.2-1.6c-0.7-0.3-0.2,0.4-0.4,0.5c-0.8-0.4-1.1-0.7-1.4-1c0.7,0.7-0.4,0.3,1.3,1.6
			c-0.7-0.5-0.5-0.2-0.9-0.4c0.4,0.2,0.8,0.6,0.8,0.5c0.7,0.6,1.2,1.2,0.5,0.9l-0.5-0.4c-0.5,0.1,2.5,2.2,1,1.6
			c-0.4-0.2-1.5-1-1.5-0.9c0.6,0.5,2,1.3,1.6,1.2l-1.2-0.8l1.1,0.9c1,0.6,0.8,0.2,1.8,1c-1.2-0.6,1,0.8-0.4,0.1
			c-0.1-0.1-1-0.7-1.5-1.1c-1.6-0.6,0.9,1.2-0.8,0.5c0.9,0.7,0.9,1.1,1.7,1.7c-1.2-0.7-2.3-1.4-3.2-2c-0.2,0,2.4,1.8,0.6,0.8
			c1.6,1.1,0.8,1,3.1,2.4c-0.5-0.3-0.1,0.1-1.3-0.8c0.7,0.6-2.2-1-2.2-0.9c0,0.1,1.5,0.8,1.5,1c-0.1-0.1-0.3-0.2-0.5-0.2l0.5,0.4
			c-0.6-0.3-1.1-0.7-1.7-1.1c-0.6-0.1,1.2,1,1.2,1.3l-0.4-0.3l-0.2,0.1l-0.1-0.1l0.7,0.6l-0.6-0.4c0.2,0.1,0.5,0.4,0.6,0.4l-0.7-0.4
			c1.1,0.7,1.7,1.2,1.6,1.3l-0.3-0.2l1.4,1.1c-0.9-0.4-1.7-1.1-1.3-0.6l-1.5-0.9c0.5,0.5-0.3,0,0.1,0.4c0.8,0.4,0.7,0.3,1.4,0.7
			c-1.8-0.9,0.3,0.4,1,1c0-0.1,0-0.1-0.8-0.6c0.1,0,0.8,0.4,0.9,0.4l-0.8-0.6l1.1,0.6l-0.8-0.6c1.2,0.7,0.2,0,1.5,0.8
			c-0.5-0.4,0.5,0.1-0.7-0.7c0.8,0.4,0.8,0.6,1,0.6c-0.8-1-0.3-1.3,0.4-1.4l0.5,0.4c-0.5-0.4-0.9-0.7-1.3-1c1,0.5,2.4,1,0.7-0.2
			c0.1,0,0.4,0.2,0.5,0.3c-0.1-0.3,1.3,0.3,1.2,0c-1.9-1.3,1.4,0.5-1.2-1.2l0.5,0.4c-0.8-0.4-1.7-1.2-2.4-1.6c1.7,1,1.3,0.8,2.9,1.7
			l-0.6-0.3l1.4,0.9c-3.4-2.5,1.9,0.6-0.6-1.2c0.1,0.1,0.4,0.2,0.5,0.3c0.9,0.4-0.9-0.8-1.3-1.2c0.7,0.4,1.1,0.8,1.6,1.1
			c0.7,0.2-1-1.3,0.2-0.8c-0.9-0.7-1.3-0.8-1.9-1.3c0.3,0.1,1.1,0.6,1.5,0.9c1.8,1-0.7-1.3,1-0.5c-0.9-0.8-1.4-1-2-1.7
			c0.6,0.5,2.3,1.5,2.3,1.6l0.7,0.5c0.3-0.1,0.7-0.2-1.2-1.7c1.5,1,0.3,0.2,1.2,0.6c-0.1-0.1-0.2-0.2-0.3-0.2
			c-1.2-0.9,0.1-0.1,0-0.3l0.2,0.2l-0.8-0.8c0.2,0.1,0.5,0.3,1,0.6l-1-0.7c0-0.1,1.3,0.9,1.1,0.6l-0.8-0.5c0.5,0.3-0.5-0.6,0.7,0.2
			c0.2,0.2,0.1,0.1,0.1,0.1c1.6,1-0.3-0.6,0.5-0.2l-1.7-1.1c-0.4-0.5,0.4,0.2,1,0.6c0-0.1,0.6,0.3,0.9,0.3c-0.4-0.3-0.6-0.5-1.1-0.8
			l0.5,0.2l0.9,0.7c-2.3-1.9,0.6-0.2-1.6-1.9c0.5,0.3,0.9,0.8,1.3,0.9c1.2,0.6-1.2-1.6,0.1-0.8c1.4,0.6,0.4-0.5,1.4-0.2l-0.4-0.3
			l0.5,0.1c-0.9-0.8-0.4-0.6-1.4-1.5c0.3,0.3,0.9,0.7,1.1,0.9c-0.1-0.2-0.5-0.6,0.2-0.2l0.3,0.3c0.4,0,0.6-0.2-0.1-0.9
			c0-0.1,0.7,0.5,1.3,0.9c0.1-0.1-0.2-0.5-0.9-1.1c0.2,0.1,0.4,0.2,0.8,0.5l-1-0.9c0.2,0.1,0.9,0.7,1.2,0.9
			c-1.1-1.2,0.2-0.5,0.2-0.6l-0.5-0.4c-0.4-0.4,0.4,0.1,0.9,0.6c0.8,0.3-1.3-1.6-0.8-1.7c1.9,1.5-0.3-0.7,1.8,1
			c-0.4-0.6,0.5,0.1-0.6-1.1c0.2,0.2,0.3,0.2,0.3,0.3c0.8,0.6,0.4-0.1,0-0.6l0.6,0.5c-1.3-1.2-0.7-1.1-2-2.3
			c0.3,0.2,0.5,0.5,0.8,0.7c1.3,1-0.5-0.6-0.1-0.5c0.3,0.3,0.7,0.6,0.9,0.8c1.7,1-0.4-1.6,1-1c0.1-0.1-1.4-1.2-1.2-1.3
			c0.7,0.6,1.3,1.3,1.6,1.4c-0.8-0.8-0.6-0.7-0.4-0.7c0.4,0.4,0.7,0.7,1,1c0.6,0.4-0.9-1.1,0.3-0.2c-0.4-0.4-0.6-0.6-0.8-0.8
			c-1-1.2,1.4,0.7,0.8,0.1c0,0-0.1-0.2-0.3-0.3c0.1,0,0.3,0.1,1,0.7c-0.3-0.3-0.8-0.9-0.9-1l0.7,0.7c-0.1-0.2-0.6-0.6-0.7-0.7
			l-0.5-0.4c0.7,0.5-0.7-1,0.7,0.4l0,0l0.7,0.5c-0.5-0.6-1.1-1.2-0.8-1c1.5,1.4,0.5,0.1,0.7,0.2l0.5,0.5c-0.6-0.7-0.1-0.6-0.4-0.8
			c0.1-0.1,0.5,0.2,0.9,0.6c-0.2-0.3-0.1-0.4-0.9-1.3l1.3,1.1c-1.7-1.8,0.9,0.4-1-1.4c0.4,0.2,0.8,0.7,1.1,0.9
			c-0.8-1-0.6-0.9-0.4-0.9l0.2,0.2c0.2,0.1-0.6-1-0.6-1.2l1.5,1.4c-0.1-0.3-1.2-1.4-0.9-1.1c0.2,0.2,0.3,0.3,0.4,0.4
			c-0.2-0.3,0.2-0.1,0.6,0.3c-0.9-1.1-0.5-0.8-1.5-2c1.3,1.2,0.4,0.7,1.7,1.8c0.8,0.6,0.2-0.3-0.2-1.1c0.3,0.3,0.5,0.5,0.8,0.8
			c0,0-3.1-3.8-4.4-5.1c-0.9-1-1.4-1.6-2.3-2.3c0.5,0.6,1,1.4,0,0.4l1,1c0.3,0.6-2-2.1-2.2-1.8l0.4,0.3c0,0.1,0.6,0.8,0.2,0.5
			c-0.3-0.3-0.4-0.4-0.6-0.7l1.1,1.5c-0.6-0.6-0.9-0.9-1.3-1.4c-0.1,0.2,1.8,1.8,1.2,1.6c-0.5-0.4-0.6-0.6-0.9-1
			c-0.9-0.8-0.2,0.1,0.2,0.7c-0.9-0.9-0.7-0.8-1.4-1.3c0.5,0.5,1.3,1.2,1.3,1.4c-0.9-0.9-0.5-0.4-0.8-0.6c0.3,0.3,0.7,0.7,0.9,0.9
			c0.1,0.2-0.3-0.2-0.3-0.1l1,0.8c0.7,0.9-0.6-0.3-1.1-0.6c-0.2-0.2-0.3-0.3-0.3-0.4c-0.4-0.3-1.3-0.9-0.6,0l-0.1-0.1
			c0.7,1.1,1.6,1.4,2.1,2.5c-0.3-0.1-2.9-2.9-2-1.7c0.9,0.7,1.7,1.9,2,2.4l-1.6-1.8c-0.1,0,0.4,0.6,0.2,0.4l0.4,0.4
			c1.5,1.4-0.3-0.1,0.5,0.9c-1.9-2.1-1.5-1.7-3.5-3.7c1,1.1,2,2.2,1.6,2.1l-1.4-1.6c-0.5-0.2,1.6,2.3,2.7,3.6
			c-1.1-1.1-1.6-1.5-2.5-2.5l0.1,0.4l-1.2-1.3c1.2,1.3,0.3,0.5,2,2.1c-0.2-0.2-0.4-0.4-0.3-0.4c0.5,0.5,1.5,1.5,1.4,1.5
			c-0.5-0.3-0.6-0.7-1.1-1.1c0.6,0.7-0.5-0.3,0,0.2l0.8,0.6c0.9,1-0.1,0.1,0.4,0.6c-0.4-0.5-0.9-1-1.6-1.5l0.1,0.1
			c0,0.1,0.7,0.8,0.1,0.3l-1.3-1.3l0.9,1c-0.2-0.1-0.7-0.6-0.9-0.9c-1-0.6,2.9,2.7,1.4,1.8c-0.5-0.5-0.8-0.8-0.5-0.6
			c-0.8-0.8-1.3-1.2-1.7-1.4c-0.1-0.1-0.1-0.1-0.2-0.1C270.6,401.6,270.4,401.7,271.2,402.6z"/>
		<path fill="#FFC235" d="M270.8,401.5c0.1-0.1,0.1-0.1,0-0.3C270.5,400.9,269.9,400.7,270.8,401.5z"/>
		<path fill="#FFC235" d="M263,413.9c0,0-0.1-0.1-0.1-0.1C262.9,413.8,262.9,413.9,263,413.9z"/>
		<path fill="#FFC235" d="M263,414.8c0.2,0.1,0.3,0.2,0.4,0.2C263.1,414.8,262.8,414.7,263,414.8z"/>
		<path fill="#FFC235" d="M266.9,407.8C266.9,407.8,266.9,407.8,266.9,407.8C266.9,407.8,266.9,407.8,266.9,407.8z"/>
		<path fill="#FFC235" d="M263.7,410.9c0.4,0.4,0.8,0.7,1.2,1C264.8,411.8,264.5,411.5,263.7,410.9z"/>
		<path fill="#FFC235" d="M265.2,410.2c-0.1-0.1-0.1-0.1-0.2-0.2C265.1,410.1,265.2,410.1,265.2,410.2z"/>
		<path fill="#FFC235" d="M266.3,407c0.4,0.4,0.3,0.5,0.6,0.8C266.7,407.5,267.2,407.8,266.3,407z"/>
		<polygon fill="#FFC235" points="264.2,416.7 263.4,416.2 264,416.6 		"/>
		<path fill="#FFC235" d="M264.1,415.8c0.2,0.1-0.2-0.3-0.7-0.6C263.8,415.5,263.9,415.7,264.1,415.8z"/>
		<polygon fill="#FFC235" points="266.4,414.1 265.6,413.5 266.2,414 		"/>
	</g>
	<g>
		<polygon fill="#FFC235" points="292.3,448.5 293.1,448.9 292.2,448.2 		"/>
		<path fill="#FFC235" d="M294.3,447c-0.8-0.7-1.2-1.3-3-2.2l1.4,1.1c-1.3-0.6-1.4-0.4-1.1,0l0-0.3c0.1,0.1,1,0.5,1.1,0.7
			c-0.9,0,0.9,1-0.7,0.6l-0.1-0.1l0.7,0.7c-0.2,0-0.8-0.4-1.1-0.5c0.6,0.6,1.2,1.1,1,1.4c2.5,1-1.5-1.6,1-0.6l0.1,0.1
			C293.1,447.1,294.8,447.6,294.3,447z"/>
		<path fill="#FFC235" d="M291.7,447C291.7,447,291.6,447,291.7,447C291.6,446.9,291.6,446.9,291.7,447z"/>
		<path fill="#FFC235" d="M301.5,437.3l-0.4-0.2C301.2,437.2,301.4,437.3,301.5,437.3z"/>
		<path fill="#FFC235" d="M294.7,438.3C294.8,438.3,294.8,438.3,294.7,438.3C294.3,438,294.4,438.1,294.7,438.3z"/>
		<path fill="#FFC235" d="M311.5,417.9l0.6,0.2C311.5,417.9,311.4,417.9,311.5,417.9z"/>
		<path fill="#FFC235" d="M314.5,413.5C314.5,413.4,314.5,413.4,314.5,413.5C314.5,413.4,314.5,413.4,314.5,413.5z"/>
		<path fill="#FFC235" d="M305.9,411.7l-0.5-0.2C305.7,411.6,305.8,411.7,305.9,411.7z"/>
		<path fill="#FFC235" d="M305.8,409.7c0.1,0,0.3,0,0.3,0C305.8,409.6,305.7,409.6,305.8,409.7z"/>
		<path fill="#FFC235" d="M314.7,413.6c-0.1-0.1-0.1-0.1-0.2-0.2C314.5,413.5,314.6,413.5,314.7,413.6z"/>
		<path fill="#FFC235" d="M303.7,413.6l-1.3-0.6C302.8,413.2,303.3,413.4,303.7,413.6z"/>
		<path fill="#FFC235" d="M305,408.8c0.3,0.1,0.4,0.1,0.5,0.2C305.2,408.8,305,408.8,305,408.8z"/>
		<path fill="#FFC235" d="M294.4,446.6c0,0.1,0,0.1,0.1,0.2C294.6,446.9,294.5,446.8,294.4,446.6z"/>
		<path fill="#FFC235" d="M297.8,421.5c-0.1-0.1-0.3-0.2-0.5-0.3C297.5,421.3,297.6,421.4,297.8,421.5z"/>
		<path fill="#FFC235" d="M300.8,416.6L300.8,416.6c-0.1-0.1-0.2-0.1-0.2-0.1L300.8,416.6z"/>
		<path fill="#FFC235" d="M300.2,418.2c-0.1,0-0.2-0.1-0.3-0.2C300.1,418.1,300.1,418.1,300.2,418.2z"/>
		<path fill="#FFC235" d="M300.1,414.8c-0.1-0.1-0.2-0.2-0.4-0.3L300.1,414.8z"/>
		<path fill="#FFC235" d="M302,414.4c-0.5-0.2-0.9-0.5-1.3-0.7c-0.8-0.1,0.8,0.9-0.5,0.6l0.7,0.2c0.8,0.7,0.8,1.1-0.5,0.6l-0.4-0.3
			c0.9,0.7-1.1,0-0.3,0.5c0.6,0.2,0.9,0.5,1.4,0.6l0.8,1l-1.7-0.9l0.4,0.5c0.7,0.3-0.7,0,0.9,0.9c-0.7-0.2-1.3-0.7-1.9-1.1
			c0.4,0.4-0.3,0,0.6,0.6l-1.6-0.6l0.9,0.9c-0.1-0.1-0.2-0.1-0.4-0.2c1.2,0.8-1,0,1.1,1.3c-0.1-0.1-0.1-0.1-0.2-0.1
			c1.1,0.7,0.1,0.5-0.2,0.5c0.2,0.3,1.4,0.8,2,1.2c-0.7,0.3-0.5,0.2,1.1,1.5c-2-0.7-2.9-1.9-4.3-2.2c0.9,0.5,1.5,1.1,1.7,1.5
			c-0.8-0.1-1.5,0-2.9-0.4l1.2,0.6l0.5,0.7l-1.7-1.1c0.4,0.3,1.1,0.8,1.6,1.3c0.9,0.9-2.8-1.2-1,0c-0.1-0.1-0.3-0.1-0.4-0.2
			c0.9,0.6,0.4,0.6,0.6,1l-1.5-0.9l0.4,0c-1.6-0.7,0.1,0.4-0.1,0.5c0.4,0.4,1.8,1,2.2,1.4c-0.1,0,0.3,0.4-0.2,0.2
			c-0.6-0.1-1.9-0.9-2.5-1.3c1.5,1,1.3,0.9,1.8,1.5c-0.8-0.4-1.1-0.6-1.2-0.7c0.2,0.2,0.5,0.4,1.1,0.8l-1-0.4c-1.5-0.4,2.7,1.8,2,2
			c-0.8-0.5,0,0.4-1,0c-0.2-0.3-2.3-1.1-3.2-1.7c-0.7,0,1.8,1.1,2,1.5l-1.9-1.1c0.7,0.7,1,0.6,1.5,1.2c-0.5-0.4-0.6-0.2-1.1-0.6
			c-0.4,0.2-0.1,0.2-0.5,0.4l1.9,1c0.2,0.2-0.7-0.2-1-0.3c0-0.1,0.1-0.1-0.2-0.2c-1.7-0.7,0.8,0.7-0.7,0c0.6,0.3,1.5,0.7,1.5,0.9
			c-1.1-0.6-1.2-0.4-1.7-0.6c0.8,0.3,0.2,0.4,1.5,1.1c-0.9-0.3-0.9-0.5-1.5-0.9c1.4,0.9,0,0.6,0.7,1.1c-0.1-0.1-0.2-0.1-0.3-0.1
			c0.8,0.6,0.9,1,2,1.9l-1-0.7c-0.6,0,2.2,1.4,2,1.6c-1.5-0.9-0.1,0.5-1.7-0.5c0.8,0.6,1.1,1,2.4,1.7c-0.9-0.3-2-1.4-2.5-1.4
			l0.7,0.6l-0.9-0.4c0.6,0.3,0.6,0.5,1.1,0.8c-1-0.5-1.8-0.8-2.5-1.2c0.2,0.3-0.8,0,0,0.5l-0.5-0.2c1.8,1.1,0.2,0.6,2.1,1.6
			l-1.1-0.5c0.1,0.3,2,1.3,2.5,1.6c0,0.1,0.2,0.3,0,0.3c-1.1-0.9-1.6-0.7-2.3-1c-0.1,0.1-0.1,0.5,0.8,1c-0.9-0.6-1.8-1-1.7-1.2
			c-1.9-0.9,0.3,0.6-0.1,0.7l-0.9-0.5c0.4,0.6,1.9,1.4,3.3,2.4c-1.1-0.5-1.4-0.7-2.4-1.4c-0.8-0.1-0.2,0.6-0.5,0.8
			c-0.8-0.3-1.2-0.6-1.5-0.9c0.7,0.7-0.5,0.5,1.3,1.7c-0.7-0.5-0.6-0.2-1-0.2c0.4,0.2,0.9,0.5,0.8,0.5c0.7,0.6,1.2,1.3,0.4,1.1
			l-0.5-0.4c-0.6,0.3,2.6,2.2,1,1.9c-0.5-0.1-1.5-0.9-1.6-0.7c0.7,0.5,2.1,1.2,1.6,1.2l-1.2-0.7l1.2,0.8c1.1,0.5,0.9,0,1.9,0.8
			c-1.3-0.4,1.1,0.8-0.4,0.3c-0.1-0.1-1-0.7-1.5-1c-1.8-0.3,0.8,1.4-1,1c0.9,0.8,0.9,1.2,1.7,1.9c-1.2-0.7-2.4-1.2-3.3-1.9
			c-0.3,0.1,2.5,1.7,0.6,0.9c1.7,1,0.8,1.2,3.1,2.5c-0.5-0.2-0.1,0.2-1.4-0.7c0.6,0.7-2.3-0.7-2.4-0.6c0,0.1,1.6,0.7,1.5,0.9
			c-0.1,0-0.4-0.2-0.5-0.2l0.5,0.4c-0.6-0.2-1.1-0.7-1.8-1c-0.6,0,1.2,1.1,1.2,1.5l-0.4-0.3l-0.2,0.2l-0.1-0.1l0.7,0.7l-0.6-0.3
			c0.1,0.1,0.5,0.4,0.6,0.5l-0.8-0.4c1.1,0.7,1.6,1.3,1.6,1.5l-0.4-0.2l1.4,1.1c-0.9-0.3-1.7-1.2-1.3-0.5l-1.5-0.9
			c0.5,0.6-0.4,0.2,0.1,0.6c0.8,0.3,0.8,0.2,1.4,0.6c-1.9-0.7,0.3,0.5,0.9,1.1c0-0.1,0.1-0.2-0.8-0.7c0.1-0.1,0.9,0.4,1,0.4
			l-0.8-0.6l1.1,0.5l-0.7-0.7c1.2,0.7,0.3-0.1,1.6,0.7c-0.4-0.4,0.5-0.1-0.7-0.9c0.8,0.3,0.8,0.7,1,0.6c-0.7-1.2-0.1-1.8,0.7-2.2
			l0.5,0.4c-0.5-0.4-0.9-0.7-1.3-1c1.1,0.4,2.6,0.6,0.8-0.5c0.1,0,0.4,0.2,0.5,0.3c-0.1-0.3,1.5-0.1,1.4-0.5
			c-1.9-1.2,1.5,0.2-1.1-1.4l0.5,0.4c-0.8-0.3-1.8-1.1-2.4-1.5c1.8,0.8,1.4,0.7,3.1,1.4L298,441l1.5,0.7c-3.5-2.4,2.1,0.1-0.4-1.6
			c0.1,0.1,0.4,0.2,0.5,0.3c0.9,0.3-0.9-0.8-1.3-1.2c0.7,0.4,1.1,0.7,1.7,1.1c0.7,0-1-1.6,0.4-1.3c-0.9-0.6-1.3-0.6-2-1.2
			c0.3,0,1.2,0.4,1.6,0.8c2,0.7-0.7-1.6,1.3-1.1c-1-0.8-1.5-0.9-2-1.6c0.7,0.5,2.4,1.2,2.4,1.4l0.8,0.4c0.3-0.3,0.9-0.6-1.2-1.9
			c1.6,0.8,0.3,0.1,1.3,0.4c-0.1-0.1-0.2-0.1-0.4-0.2c-1.3-0.8,0.2-0.2,0-0.4l0.3,0.2l-0.9-0.8c0.2,0.1,0.6,0.2,1.1,0.4l-1.1-0.6
			c0.1-0.1,1.5,0.7,1.3,0.4l-0.9-0.4c0.6,0.2-0.5-0.6,0.7,0c0.2,0.1,0.1,0.1,0.1,0.1c1.8,0.7-0.3-0.7,0.6-0.5l-1.8-0.9
			c-0.5-0.5,0.4,0.1,1.1,0.4c0.1-0.1,0.7,0.1,1,0.1c-0.4-0.3-0.6-0.4-1.1-0.7l0.5,0l0.9,0.6c-2.5-1.7,0.7-0.6-1.6-2
			c0.6,0.2,1,0.7,1.4,0.8c1.3,0.3-1.3-1.7,0.2-1.2c1.5,0.2,0.6-1,1.7-1l-0.5-0.2l0.6-0.2c-1-0.7-0.4-0.6-1.6-1.5
			c0.4,0.2,1,0.5,1.2,0.7c-0.1-0.2-0.5-0.7,0.2-0.4l0.4,0.3c0.5-0.2,0.8-0.6,0-1.3c0-0.2,0.8,0.3,1.4,0.6c0.2-0.2-0.3-0.6-1-1.1
			c0.2,0.1,0.5,0.1,0.9,0.3L306,427c0.2,0,1,0.5,1.3,0.6c-1.2-1,0.2-0.7,0.2-1l-0.6-0.3c-0.4-0.3,0.5-0.1,1,0.3
			c0.9-0.1-1.5-1.6-0.9-2c2.2,1-0.3-0.8,2.1,0.3c-0.5-0.6,0.6-0.2-0.7-1.1c0.2,0.1,0.4,0.2,0.4,0.2c0.9,0.4,0.4-0.3,0-0.9l0.7,0.4
			c-1.5-0.9-0.8-1.1-2.4-2c0.4,0.2,0.6,0.4,0.9,0.6c1.6,0.6-0.6-0.6-0.2-0.6c0.4,0.2,0.9,0.4,1.1,0.6c2,0.3-0.4-1.9,1.1-2
			c0.2-0.2-1.7-0.8-1.4-1c0.8,0.3,1.5,1,2,1c-0.9-0.6-0.7-0.6-0.5-0.7c0.5,0.3,0.9,0.5,1.2,0.8c0.7,0.3-1-1,0.4-0.5
			c-0.5-0.2-0.8-0.4-1-0.6c-1.2-1,1.7,0.1,1-0.3c0,0-0.2-0.2-0.4-0.2c0.1-0.1,0.4-0.1,1.2,0.3c-0.4-0.3-1-0.7-1.1-0.8l0.9,0.5
			c-0.2-0.1-0.7-0.5-0.8-0.6l-0.6-0.2c0.8,0.3-0.9-0.9,0.9,0l0,0.1l0.9,0.2c-0.7-0.5-1.3-0.9-1-0.9c1.8,0.9,0.6-0.2,0.9-0.2l0.6,0.3
			c-0.8-0.6-0.2-0.8-0.6-0.9c0.1-0.1,0.6-0.1,1.1,0.3c-0.3-0.3-0.1-0.5-1.2-1.1l1.6,0.6c-2.2-1.3,1.1,0-1.3-1.3
			c0.4,0.1,1,0.4,1.4,0.5c-1.1-0.8-0.8-0.9-0.5-0.9l0.2,0.1c0.3-0.1-0.8-0.9-0.8-1.2l1.8,0.9c-0.2-0.3-1.6-1-1.1-1
			c0.3,0.1,0.4,0.2,0.5,0.3c-0.3-0.3,0.3-0.2,0.8-0.1c-1.2-0.9-0.6-0.8-1.9-1.7c1.7,0.7,0.6,0.6,2.1,1.2c1,0.2,0.3-0.6-0.4-1.3
			c0.4,0.2,0.6,0.3,1,0.5c0,0-4-2.9-5.8-3.7c-1.1-0.7-1.8-1.1-2.9-1.4c0.7,0.5,1.4,1.1,0,0.5l1.2,0.7c0.4,0.6-2.6-1.3-2.8-0.9
			l0.5,0.1c0,0.1,0.8,0.6,0.3,0.5c-0.4-0.2-0.5-0.3-0.8-0.5l1.5,1.2c-0.7-0.4-1.1-0.6-1.6-0.9c-0.1,0.3,2.3,1.1,1.6,1.3
			c-0.6-0.2-0.8-0.4-1.1-0.7c-1.2-0.4-0.2,0.2,0.3,0.8c-1.1-0.6-0.9-0.6-1.7-0.9c0.6,0.3,1.6,0.8,1.6,0.9c-1.1-0.6-0.6-0.2-1-0.3
			c0.4,0.2,0.9,0.5,1.1,0.6c0.1,0.1-0.3,0-0.3,0.1l1.2,0.4c1,0.7-0.7,0-1.3-0.1c-0.2-0.1-0.3-0.2-0.4-0.3c-0.5-0.1-1.5-0.4-0.7,0.3
			l-0.1-0.1c0.9,0.9,1.9,0.9,2.7,1.8c-0.3,0-3.6-2-2.5-1c1,0.3,2.2,1.4,2.5,1.8l-2.1-1.3c-0.1,0.1,0.5,0.5,0.2,0.4l0.5,0.2
			c1.9,0.9-0.4,0.1,0.7,0.8c-2.4-1.5-1.9-1.2-4.4-2.6c1.3,0.8,2.5,1.7,2.1,1.8l-1.8-1.2c-0.6,0.1,2,2,3.5,3.1c-1.4-0.8-2-1-3.1-1.7
			l0.1,0.5l-1.5-0.9c1.5,1,0.4,0.5,2.5,1.6c-0.3-0.2-0.5-0.3-0.4-0.3c0.6,0.3,1.9,1.1,1.7,1.2c-0.6-0.2-0.8-0.5-1.4-0.8
			c0.8,0.5-0.6-0.2,0,0.3l0.9,0.4c1.2,0.7,0,0.2,0.5,0.6c-0.4-0.4-1.2-0.7-1.9-1l0.2,0.1c0,0.1,0.8,0.7,0.1,0.3l-1.6-0.9l1.2,0.8
			c-0.2-0.1-0.8-0.3-1.1-0.6c-1.2-0.2,3.6,1.9,1.8,1.5c-0.6-0.3-1-0.6-0.6-0.5c-1-0.5-1.6-0.8-2-0.9c-0.1,0-0.1-0.1-0.2-0.1
			C301.2,413.4,301,413.7,302,414.4z"/>
		<path fill="#FFC235" d="M301.4,413.2c0.1-0.1,0.1-0.2-0.1-0.4C301,412.7,300.3,412.7,301.4,413.2z"/>
		<path fill="#FFC235" d="M292.8,433c0,0-0.1-0.1-0.1-0.1C292.7,432.9,292.7,432.9,292.8,433z"/>
		<path fill="#FFC235" d="M292.7,434.3c0.2,0.1,0.3,0.1,0.4,0.1C292.8,434.2,292.5,434.1,292.7,434.3z"/>
		<path fill="#FFC235" d="M297.4,423.2C297.4,423.2,297.4,423.2,297.4,423.2C297.4,423.2,297.4,423.2,297.4,423.2z"/>
		<path fill="#FFC235" d="M293.8,428.7c0.5,0.4,0.9,0.6,1.3,0.9C295,429.5,294.7,429.2,293.8,428.7z"/>
		<path fill="#FFC235" d="M295.5,427.1c-0.1-0.1-0.1-0.1-0.2-0.2C295.4,427.1,295.4,427.1,295.5,427.1z"/>
		<path fill="#FFC235" d="M296.8,422.5c0.5,0.4,0.4,0.5,0.7,0.7C297.2,423,297.8,423.1,296.8,422.5z"/>
		<polygon fill="#FFC235" points="293.8,436.5 293.1,435.9 293.6,436.3 		"/>
		<path fill="#FFC235" d="M293.8,435.2c0.2,0.1-0.2-0.4-0.7-0.6C293.5,434.9,293.7,435.1,293.8,435.2z"/>
		<polygon fill="#FFC235" points="296.6,432 295.7,431.5 296.4,431.9 		"/>
	</g>
	<g>
		<polygon fill="#FFC235" points="282,428.9 282.8,429.4 281.9,428.6 		"/>
		<path fill="#FFC235" d="M283.5,428.5c-0.8-0.7-1.2-1.2-2.8-2.3l1.3,1.1c-1.2-0.8-1.2-0.7-0.9-0.3l0-0.2c0.1,0.1,0.9,0.6,1.1,0.8
			c-0.7-0.3,0.9,0.9-0.5,0.2l-0.1-0.1l0.7,0.6c-0.2-0.1-0.8-0.5-1-0.6c0.6,0.5,1.2,1.1,1,1.2c2.3,1.4-1.5-1.5,0.8-0.1l0.1,0.1
			C282.5,428.2,284,429,283.5,428.5z"/>
		<path fill="#FFC235" d="M281.3,427.7L281.3,427.7C281.2,427.6,281.2,427.6,281.3,427.7z"/>
		<path fill="#FFC235" d="M288.5,424.6l-0.3-0.3C288.3,424.4,288.4,424.5,288.5,424.6z"/>
		<path fill="#FFC235" d="M282.9,423C282.9,423,282.9,423,282.9,423C282.5,422.6,282.6,422.7,282.9,423z"/>
		<path fill="#FFC235" d="M295.5,416.1l0.5,0.4C295.5,416.1,295.4,416,295.5,416.1z"/>
		<path fill="#FFC235" d="M297.8,414.5L297.8,414.5L297.8,414.5z"/>
		<path fill="#FFC235" d="M291.1,409.5l-0.4-0.4C290.9,409.3,291,409.4,291.1,409.5z"/>
		<path fill="#FFC235" d="M291,408.1c0.1,0.1,0.2,0.1,0.2,0.1C291,408,290.9,408,291,408.1z"/>
		<path fill="#FFC235" d="M297.9,414.7c-0.1-0.1-0.1-0.1-0.1-0.2C297.8,414.6,297.9,414.6,297.9,414.7z"/>
		<path fill="#FFC235" d="M289.3,409.8l-1-1C288.6,409.1,288.9,409.5,289.3,409.8z"/>
		<path fill="#FFC235" d="M290.4,407.1c0.2,0.2,0.3,0.3,0.4,0.3C290.6,407.2,290.4,407.1,290.4,407.1z"/>
		<path fill="#FFC235" d="M283.5,428.3c0,0,0,0.1,0.1,0.2C283.8,428.5,283.7,428.4,283.5,428.3z"/>
		<path fill="#FFC235" d="M284.5,412.8c-0.1-0.1-0.2-0.2-0.4-0.4C284.2,412.5,284.3,412.7,284.5,412.8z"/>
		<path fill="#FFC235" d="M286.9,410.6L286.9,410.6c-0.1-0.1-0.1-0.1-0.2-0.2L286.9,410.6z"/>
		<path fill="#FFC235" d="M286.4,411.5c-0.1-0.1-0.1-0.1-0.2-0.2C286.3,411.3,286.4,411.4,286.4,411.5z"/>
		<path fill="#FFC235" d="M286.3,409.1c-0.1-0.1-0.2-0.2-0.3-0.4L286.3,409.1z"/>
		<path fill="#FFC235" d="M287.9,409.6c-0.4-0.3-0.7-0.7-1-1c-0.6-0.3,0.6,0.9-0.4,0.2l0.6,0.4c0.7,0.8,0.7,1.1-0.4,0.2l-0.3-0.3
			c0.7,0.9-0.9-0.5-0.2,0.2c0.5,0.4,0.7,0.7,1.2,1l0.7,1l-1.4-1.3l0.4,0.5c0.6,0.5-0.6-0.3,0.7,1c-0.6-0.4-1-1-1.6-1.5
			c0.3,0.4-0.3-0.1,0.5,0.7l-1.3-1.1l0.7,1c-0.1-0.1-0.2-0.2-0.3-0.3c1,1-0.8-0.4,0.9,1.4c-0.1-0.1-0.1-0.1-0.2-0.2
			c0.9,0.9,0.1,0.4-0.1,0.3c0.2,0.3,1.2,1.1,1.7,1.6c-0.5-0.1-0.4-0.1,0.9,1.5c-1.7-1.3-2.4-2.4-3.6-3.2c0.7,0.7,1.2,1.3,1.4,1.7
			c-0.6-0.4-1.2-0.6-2.4-1.4l1,0.9l0.4,0.7l-1.4-1.4c0.3,0.3,0.9,1,1.4,1.5c0.8,0.9-2.3-1.9-0.9-0.4c-0.1-0.1-0.2-0.2-0.3-0.3
			c0.8,0.7,0.4,0.6,0.6,1l-1.3-1.2l0.4,0.2c-1.3-1.1,0.1,0.3,0,0.3c0.4,0.5,1.5,1.4,1.8,1.8c-0.1,0,0.3,0.4-0.1,0
			c-0.5-0.3-1.6-1.4-2.1-1.9c1.3,1.2,1.1,1.1,1.5,1.7c-0.6-0.5-0.9-0.8-1-0.9c0.1,0.2,0.4,0.4,1,1l-0.8-0.6
			c-1.2-0.8,2.3,2.3,1.8,2.1c-0.7-0.7,0,0.3-0.9-0.4c-0.2-0.2-2-1.6-2.8-2.4c-0.6-0.3,1.5,1.4,1.7,1.8l-1.6-1.5
			c0.6,0.7,0.9,0.8,1.3,1.3c-0.5-0.4-0.5-0.3-1-0.9c-0.3,0-0.1,0.1-0.4,0.1l1.6,1.4c0.1,0.2-0.6-0.4-0.9-0.6c0,0,0.1,0-0.1-0.2
			c-1.4-1.1,0.7,0.7-0.6-0.3c0.5,0.4,1.3,1,1.3,1.1c-1-0.8-1-0.7-1.4-1c0.7,0.5,0.2,0.4,1.3,1.3c-0.8-0.6-0.8-0.7-1.3-1.1
			c1.2,1.1,0,0.4,0.7,1c-0.1-0.1-0.2-0.1-0.2-0.2c0.7,0.7,0.8,1,1.8,2l-0.9-0.8c-0.5-0.2,1.9,1.7,1.8,1.8c-1.3-1.1,0,0.3-1.5-1
			c0.7,0.7,1,1,2.1,2c-0.8-0.5-1.7-1.6-2.2-1.8l0.6,0.7l-0.7-0.6c0.5,0.4,0.5,0.6,0.9,0.9c-0.9-0.7-1.5-1.1-2.2-1.7
			c0.2,0.3-0.7-0.3,0,0.4l-0.4-0.3c1.6,1.4,0.2,0.4,1.8,1.8l-0.9-0.7c0.1,0.2,1.8,1.6,2.2,1.9c0,0.1,0.2,0.3,0,0.2c-1-1-1.4-1-2-1.4
			c-0.1,0,0,0.3,0.8,1c-0.8-0.7-1.6-1.3-1.5-1.4c-1.7-1.2,0.3,0.5-0.1,0.4l-0.8-0.6c0.4,0.6,1.7,1.6,3,2.7c-1-0.7-1.2-0.9-2.1-1.7
			c-0.7-0.3-0.2,0.3-0.4,0.4c-0.7-0.5-1.1-0.8-1.4-1.1c0.6,0.7-0.4,0.2,1.2,1.6c-0.7-0.6-0.5-0.3-0.9-0.5c0.4,0.3,0.8,0.6,0.7,0.6
			c0.6,0.6,1.1,1.3,0.5,0.9l-0.5-0.4c-0.5,0,2.4,2.3,1,1.6c-0.4-0.2-1.4-1.1-1.4-1c0.6,0.5,1.9,1.5,1.5,1.3l-1.1-0.8l1.1,0.9
			c1,0.7,0.7,0.3,1.7,1.2c-1.1-0.7,1,0.9-0.3,0.1c-0.1-0.1-0.9-0.8-1.4-1.1c-1.5-0.7,0.8,1.2-0.8,0.4c0.8,0.8,0.9,1.1,1.6,1.8
			c-1.1-0.8-2.2-1.6-3-2.3c-0.2,0,2.3,1.9,0.6,0.8c1.5,1.2,0.8,1,3,2.6c-0.5-0.3-0.1,0.1-1.2-0.9c0.6,0.7-2.1-1.2-2.1-1.1
			c0,0.1,1.4,0.9,1.4,1.1c-0.1-0.1-0.3-0.2-0.4-0.3l0.5,0.4c-0.5-0.3-1.1-0.8-1.6-1.2c-0.6-0.2,1.1,1.1,1.2,1.3l-0.4-0.3l-0.2,0.1
			l-0.1-0.1l0.7,0.7l-0.6-0.4c0.1,0.1,0.5,0.4,0.5,0.5l-0.7-0.5c1.1,0.8,1.6,1.3,1.5,1.4l-0.3-0.2l1.3,1.1c-0.8-0.4-1.6-1.3-1.2-0.7
			l-1.4-1c0.5,0.5-0.3,0,0.1,0.4c0.8,0.5,0.7,0.3,1.3,0.8c-1.7-1,0.3,0.4,0.9,1c0-0.1,0-0.1-0.8-0.7c0.1,0,0.8,0.5,0.9,0.5l-0.8-0.6
			l1,0.7l-0.7-0.7c1.2,0.8,0.2,0,1.4,0.9c-0.4-0.4,0.4,0.1-0.7-0.8c0.7,0.4,0.8,0.7,1,0.7c-0.7-1-0.3-1.2,0.3-1.2l0.5,0.4
			c-0.5-0.4-0.9-0.7-1.3-1c1,0.6,2.3,1.2,0.6-0.1c0.1,0.1,0.3,0.3,0.5,0.4c-0.1-0.3,1.2,0.4,1.2,0.1c-1.8-1.4,1.3,0.6-1.1-1.3
			l0.5,0.4c-0.7-0.4-1.7-1.3-2.2-1.8c1.6,1.1,1.2,0.9,2.8,1.9l-0.6-0.3l1.3,1c-3.3-2.7,1.8,0.8-0.6-1.1c0.1,0.1,0.3,0.3,0.5,0.4
			c0.8,0.5-0.8-0.8-1.2-1.2c0.7,0.5,1,0.8,1.5,1.2c0.6,0.2-1-1.3,0.2-0.7c-0.8-0.7-1.2-0.9-1.8-1.4c0.3,0.1,1,0.6,1.4,1
			c1.7,1.1-0.7-1.2,0.9-0.3c-0.9-0.9-1.4-1.1-1.9-1.8c0.6,0.5,2.2,1.6,2.2,1.8l0.7,0.5c0.3-0.1,0.7-0.1-1.2-1.7
			c1.4,1.1,0.3,0.2,1.1,0.7c-0.1-0.1-0.2-0.2-0.3-0.2c-1.2-1,0.1,0,0-0.2l0.2,0.2l-0.8-0.8c0.2,0.1,0.5,0.3,0.9,0.6l-1-0.8
			c0-0.1,1.3,1,1.1,0.7l-0.7-0.6c0.5,0.3-0.5-0.6,0.6,0.3c0.2,0.2,0.1,0.1,0.1,0.1c1.6,1.1-0.3-0.6,0.4-0.1l-1.6-1.2
			c-0.4-0.5,0.4,0.2,0.9,0.7c0-0.1,0.6,0.3,0.8,0.4c-0.4-0.4-0.6-0.5-1-0.9l0.5,0.2l0.8,0.7c-2.2-2,0.5-0.1-1.5-1.9
			c0.5,0.3,0.9,0.8,1.2,1c1.1,0.7-1.2-1.6,0.1-0.7c1.3,0.7,0.4-0.4,1.3,0l-0.4-0.3l0.5,0.1c-0.9-0.8-0.4-0.6-1.4-1.6
			c0.3,0.3,0.8,0.7,1.1,0.9c-0.1-0.2-0.5-0.6,0.1-0.2l0.3,0.3c0.4,0.1,0.6-0.1-0.1-0.9c-0.1-0.1,0.7,0.5,1.2,0.9
			c0.1,0-0.2-0.5-0.8-1.1c0.2,0.1,0.4,0.3,0.8,0.6l-1-0.9c0.2,0.1,0.8,0.7,1.1,0.9c-1.1-1.2,0.1-0.4,0.1-0.5l-0.5-0.4
			c-0.4-0.4,0.4,0.2,0.9,0.6c0.8,0.3-1.3-1.6-0.8-1.7c1.8,1.6-0.3-0.7,1.7,1.1c-0.4-0.6,0.4,0.1-0.7-1c0.2,0.2,0.3,0.2,0.3,0.3
			c0.8,0.6,0.3,0-0.1-0.6l0.6,0.5c-1.3-1.2-0.7-1.1-2-2.3c0.3,0.3,0.5,0.5,0.7,0.8c1.3,1.1-0.5-0.6-0.2-0.4c0.3,0.3,0.7,0.6,0.9,0.8
			c1.6,1.1-0.4-1.5,0.8-0.8c0.1,0-1.4-1.3-1.2-1.3c0.7,0.6,1.3,1.3,1.6,1.5c-0.7-0.8-0.6-0.7-0.4-0.7c0.4,0.4,0.7,0.7,0.9,1
			c0.6,0.5-0.9-1.1,0.3-0.2c-0.4-0.4-0.6-0.6-0.8-0.8c-1-1.2,1.4,0.8,0.8,0.2c0,0-0.1-0.2-0.3-0.3c0.1,0,0.3,0.1,0.9,0.7
			c-0.3-0.4-0.8-0.9-0.9-1l0.7,0.7c-0.1-0.2-0.6-0.6-0.6-0.7l-0.5-0.4c0.7,0.5-0.7-1,0.7,0.4l0,0l0.7,0.5c-0.5-0.6-1.1-1.2-0.8-1
			c1.5,1.4,0.5,0.2,0.7,0.2l0.5,0.5c-0.6-0.7-0.2-0.6-0.5-0.8c0-0.1,0.5,0.2,0.9,0.7c-0.2-0.3-0.1-0.4-0.9-1.3l1.3,1.1
			c-1.7-1.8,0.8,0.5-1-1.4c0.3,0.2,0.7,0.7,1.1,1c-0.8-1-0.6-0.9-0.4-0.8l0.2,0.2c0.2,0.1-0.6-1-0.6-1.2l1.4,1.4
			c-0.1-0.3-1.2-1.4-0.9-1.1c0.2,0.2,0.3,0.3,0.4,0.4c-0.2-0.3,0.2,0,0.6,0.3c-0.9-1.1-0.5-0.8-1.5-2c1.3,1.2,0.5,0.7,1.7,1.8
			c0.8,0.6,0.2-0.2-0.3-1c0.3,0.3,0.5,0.5,0.8,0.8c0,0-3.1-3.8-4.4-5.1c-0.9-1-1.4-1.6-2.3-2.3c0.5,0.6,1,1.4,0,0.3l1,1
			c0.3,0.6-2-2.1-2.2-1.9l0.4,0.3c0,0.1,0.6,0.8,0.3,0.5c-0.3-0.3-0.4-0.4-0.6-0.7l1.2,1.5c-0.6-0.6-0.9-0.9-1.3-1.4
			c-0.1,0.2,1.8,1.8,1.2,1.6c-0.5-0.4-0.6-0.6-0.9-1c-0.9-0.8-0.2,0.1,0.2,0.7c-0.9-0.9-0.7-0.8-1.3-1.4c0.5,0.5,1.2,1.2,1.3,1.4
			c-0.9-0.9-0.5-0.4-0.8-0.6c0.3,0.3,0.7,0.7,0.9,0.9c0.1,0.2-0.3-0.2-0.2-0.1l0.9,0.8c0.7,0.9-0.6-0.3-1-0.6
			c-0.2-0.2-0.3-0.3-0.3-0.4c-0.4-0.3-1.2-1-0.5-0.1l-0.1-0.1c0.7,1,1.5,1.4,2.1,2.5c-0.2-0.1-2.8-2.9-2-1.8c0.8,0.7,1.7,1.9,2,2.4
			l-1.6-1.8c-0.1,0,0.4,0.6,0.2,0.4l0.4,0.4c1.5,1.5-0.3-0.1,0.5,0.8c-1.9-2.1-1.5-1.7-3.5-3.7c1,1.1,1.9,2.2,1.6,2.1l-1.4-1.6
			c-0.5-0.2,1.6,2.2,2.8,3.6c-1.1-1.2-1.6-1.5-2.5-2.5l0.1,0.4l-1.2-1.3c1.2,1.3,0.3,0.5,2,2.1c-0.2-0.2-0.4-0.4-0.3-0.4
			c0.5,0.5,1.5,1.5,1.4,1.5c-0.5-0.4-0.6-0.7-1.1-1.1c0.6,0.7-0.5-0.4,0,0.2l0.8,0.7c0.9,1,0,0.1,0.4,0.6c-0.4-0.5-0.9-1-1.5-1.5
			l0.1,0.1c0,0.1,0.7,0.8,0.1,0.3l-1.3-1.3l0.9,1c-0.2-0.1-0.7-0.6-0.9-0.9c-1-0.6,2.9,2.8,1.4,1.8c-0.5-0.5-0.8-0.8-0.5-0.6
			c-0.8-0.8-1.3-1.2-1.6-1.5c-0.1-0.1-0.1-0.1-0.2-0.1C287.3,408.6,287.1,408.7,287.9,409.6z"/>
		<path fill="#FFC235" d="M287.4,408.5c0.1,0,0.1-0.1,0-0.3C287.1,408,286.6,407.7,287.4,408.5z"/>
		<path fill="#FFC235" d="M280.8,418.8c0,0-0.1-0.1-0.1-0.1C280.7,418.7,280.7,418.7,280.8,418.8z"/>
		<path fill="#FFC235" d="M280.8,419.6c0.2,0.1,0.3,0.2,0.4,0.2C280.9,419.6,280.6,419.4,280.8,419.6z"/>
		<path fill="#FFC235" d="M284.2,413.8C284.2,413.8,284.2,413.8,284.2,413.8C284.2,413.8,284.2,413.8,284.2,413.8z"/>
		<path fill="#FFC235" d="M281.4,416.2c0.4,0.4,0.8,0.8,1.2,1.1C282.5,417.2,282.1,416.9,281.4,416.2z"/>
		<path fill="#FFC235" d="M282.8,415.8c-0.1-0.1-0.1-0.1-0.2-0.2C282.6,415.7,282.7,415.7,282.8,415.8z"/>
		<path fill="#FFC235" d="M283.6,413c0.4,0.4,0.3,0.5,0.6,0.8C284,413.5,284.5,413.9,283.6,413z"/>
		<polygon fill="#FFC235" points="282,421.5 281.2,420.8 281.7,421.3 		"/>
		<path fill="#FFC235" d="M281.8,420.6c0.2,0.1-0.2-0.3-0.6-0.6C281.6,420.3,281.7,420.5,281.8,420.6z"/>
		<polygon fill="#FFC235" points="283.9,419.4 283.2,418.8 283.7,419.3 		"/>
	</g>
	<g>
		<polygon fill="#FFC235" points="254.1,416.7 254.8,417.3 253.9,416.5 		"/>
		<path fill="#FFC235" d="M255.6,416.5c-0.7-0.7-1.1-1.3-2.6-2.5l1.2,1.2c-1.2-0.9-1.2-0.8-0.9-0.4l0-0.1c0.1,0.1,0.9,0.7,1,0.9
			c-0.7-0.3,0.8,1-0.5,0.1l-0.1-0.1l0.7,0.7c-0.2-0.1-0.7-0.6-0.9-0.7c0.5,0.6,1.1,1.2,0.9,1.2c2.2,1.6-1.4-1.6,0.8,0l0.1,0.1
			C254.6,416.2,256,417.1,255.6,416.5z"/>
		<path fill="#FFC235" d="M253.4,415.5L253.4,415.5C253.3,415.4,253.3,415.5,253.4,415.5z"/>
		<path fill="#FFC235" d="M260.6,413.2l-0.3-0.3C260.4,413,260.5,413.1,260.6,413.2z"/>
		<path fill="#FFC235" d="M255.1,411.3C255.1,411.3,255.1,411.3,255.1,411.3C254.7,410.9,254.8,411,255.1,411.3z"/>
		<path fill="#FFC235" d="M267.1,404.5l0.5,0.3C267.2,404.5,267.1,404.4,267.1,404.5z"/>
		<path fill="#FFC235" d="M269.6,401L269.6,401L269.6,401z"/>
		<path fill="#FFC235" d="M261.3,399.1l-0.5-0.2C261,399,261.2,399.1,261.3,399.1z"/>
		<path fill="#FFC235" d="M260.5,398.2c0.1,0,0.2,0.1,0.3,0.1C260.4,398.2,260.3,398.2,260.5,398.2z"/>
		<path fill="#FFC235" d="M269.8,401.1c-0.1,0-0.2-0.1-0.2-0.1C269.6,401,269.7,401,269.8,401.1z"/>
		<path fill="#FFC235" d="M259.9,399.3l-1.2-0.8C259.1,398.8,259.5,399.1,259.9,399.3z"/>
		<path fill="#FFC235" d="M259.4,397.8c0.3,0.1,0.4,0.1,0.5,0.2C259.6,397.9,259.4,397.8,259.4,397.8z"/>
		<path fill="#FFC235" d="M255.6,416.3c0,0,0,0.1,0.1,0.2C255.8,416.6,255.7,416.5,255.6,416.3z"/>
		<path fill="#FFC235" d="M256.1,401.9c-0.1-0.1-0.2-0.2-0.4-0.4C255.8,401.6,255.9,401.8,256.1,401.9z"/>
		<path fill="#FFC235" d="M258.1,399.9L258.1,399.9c-0.1-0.1-0.1-0.1-0.2-0.2L258.1,399.9z"/>
		<path fill="#FFC235" d="M257.7,400.7c-0.1-0.1-0.1-0.1-0.2-0.2C257.6,400.6,257.7,400.6,257.7,400.7z"/>
		<path fill="#FFC235" d="M257.2,398.6c-0.1-0.1-0.2-0.2-0.4-0.3L257.2,398.6z"/>
		<path fill="#FFC235" d="M258.7,399.2c-0.4-0.3-0.8-0.6-1.2-0.9c-0.6-0.3,0.8,0.8-0.3,0.1l0.6,0.4c0.8,0.7,0.8,0.9-0.3,0.2
			l-0.4-0.3c0.8,0.8-0.9-0.4-0.2,0.2c0.5,0.4,0.8,0.6,1.2,0.9l0.8,0.9l-1.5-1.2l0.4,0.5c0.6,0.5-0.6-0.3,0.8,0.9
			c-0.6-0.4-1.1-0.9-1.7-1.4c0.4,0.4-0.3-0.1,0.6,0.6l-1.3-1l0.8,0.9c-0.1-0.1-0.2-0.2-0.3-0.3c1,1-0.8-0.4,1,1.3
			c-0.1-0.1-0.1-0.1-0.2-0.2c1,0.9,0.2,0.4-0.1,0.2c0.2,0.3,1.2,1,1.8,1.5c-0.5-0.1-0.4-0.1,1,1.4c-1.7-1.2-2.5-2.3-3.8-3.1
			c0.8,0.7,1.3,1.3,1.5,1.6c-0.6-0.4-1.2-0.6-2.4-1.4l1.1,0.9l0.5,0.6l-1.5-1.3c0.3,0.3,1,0.9,1.4,1.4c0.8,0.9-2.4-1.8-0.9-0.4
			c-0.1-0.1-0.2-0.2-0.3-0.3c0.8,0.7,0.4,0.6,0.6,0.9l-1.3-1.1l0.3,0.2c-1.4-1,0.1,0.3,0,0.3c0.4,0.4,1.5,1.3,1.9,1.7
			c-0.1,0,0.3,0.3-0.1,0c-0.5-0.3-1.6-1.3-2.2-1.8c1.4,1.2,1.2,1.1,1.6,1.6c-0.7-0.5-0.9-0.8-1.1-0.9c0.2,0.2,0.4,0.4,1,0.9
			l-0.8-0.6c-1.2-0.8,2.4,2.2,1.9,2c-0.7-0.6,0.1,0.3-0.9-0.4c-0.2-0.2-2-1.6-2.8-2.3c-0.6-0.3,1.6,1.4,1.8,1.7l-1.7-1.4
			c0.7,0.7,0.9,0.8,1.3,1.3c-0.5-0.4-0.5-0.3-1-0.8c-0.3,0-0.1,0.1-0.4,0l1.6,1.3c0.2,0.2-0.6-0.4-0.9-0.6c0,0,0.1,0-0.2-0.2
			c-1.5-1.1,0.7,0.7-0.6-0.3c0.5,0.4,1.3,1,1.3,1.1c-1-0.8-1-0.7-1.4-1c0.7,0.5,0.2,0.4,1.3,1.3c-0.8-0.6-0.8-0.7-1.3-1.1
			c1.2,1.1,0,0.3,0.7,1c-0.1-0.1-0.2-0.1-0.2-0.2c0.7,0.7,0.8,0.9,1.9,2l-0.9-0.8c-0.5-0.2,1.9,1.7,1.8,1.8c-1.3-1.1,0,0.3-1.5-1
			c0.7,0.7,1,1,2.1,2c-0.8-0.6-1.7-1.6-2.2-1.8l0.6,0.7l-0.7-0.6c0.5,0.4,0.5,0.6,0.9,0.9c-0.9-0.7-1.5-1.2-2.2-1.7
			c0.2,0.3-0.7-0.3,0.1,0.3l-0.4-0.3c1.6,1.4,0.2,0.4,1.8,1.8l-0.9-0.7c0.1,0.2,1.8,1.6,2.2,1.9c0,0.1,0.2,0.3,0,0.2
			c-1-1-1.3-1-2-1.5c-0.1,0,0,0.3,0.8,1c-0.8-0.7-1.5-1.3-1.5-1.4c-1.7-1.3,0.3,0.4,0,0.4l-0.8-0.6c0.4,0.6,1.7,1.6,2.9,2.8
			c-1-0.7-1.2-1-2.1-1.8c-0.6-0.4-0.1,0.3-0.3,0.3c-0.7-0.5-1.1-0.8-1.3-1.1c0.6,0.7-0.4,0.1,1.2,1.5c-0.6-0.6-0.5-0.3-0.8-0.5
			c0.3,0.3,0.8,0.6,0.7,0.6c0.6,0.6,1.1,1.3,0.5,0.9l-0.5-0.4c-0.4,0,2.4,2.4,1,1.6c-0.4-0.3-1.3-1.2-1.4-1c0.6,0.5,1.9,1.6,1.4,1.4
			l-1.1-0.9l1,1c0.9,0.7,0.7,0.3,1.7,1.2c-1.1-0.7,0.9,0.9-0.3,0c-0.1-0.1-0.9-0.8-1.3-1.2c-1.5-0.8,0.8,1.2-0.7,0.3
			c0.8,0.8,0.8,1.1,1.6,1.8c-1.1-0.9-2.1-1.7-2.9-2.4c-0.2,0,2.2,2,0.6,0.8c1.5,1.3,0.7,1,2.8,2.8c-0.4-0.3-0.1,0.1-1.2-1
			c0.6,0.7-2-1.3-2-1.3c0,0.1,1.4,1,1.3,1.2c-0.1-0.1-0.3-0.2-0.4-0.3l0.5,0.4c-0.5-0.4-1-0.9-1.6-1.3c-0.5-0.3,1.1,1.2,1.1,1.4
			l-0.3-0.3l-0.2,0.1l-0.1-0.1l0.7,0.7l-0.5-0.4c0.1,0.1,0.5,0.4,0.5,0.5l-0.7-0.6c1,0.9,1.5,1.5,1.4,1.5l-0.3-0.2l1.2,1.2
			c-0.8-0.5-1.5-1.4-1.1-0.8l-1.3-1.2c0.4,0.5-0.3,0,0.1,0.4c0.7,0.5,0.7,0.4,1.2,0.9c-1.6-1.2,0.3,0.5,0.9,1c0-0.1,0-0.1-0.7-0.7
			c0.1,0,0.7,0.6,0.8,0.6l-0.7-0.7l1,0.7l-0.7-0.7c1.1,0.9,0.2,0,1.3,1c-0.4-0.4,0.4,0.2-0.6-0.8c0.7,0.5,0.7,0.7,0.9,0.8
			c-0.6-1-0.2-1.2,0.4-1.1l0.5,0.4c-0.5-0.4-0.8-0.8-1.2-1.1c0.9,0.7,2.2,1.4,0.6,0c0.1,0.1,0.3,0.3,0.4,0.4
			c-0.1-0.3,1.2,0.5,1.1,0.2c-1.7-1.5,1.3,0.7-1.1-1.3l0.5,0.4c-0.7-0.5-1.6-1.4-2.2-1.9c1.6,1.2,1.2,1,2.6,2.1l-0.6-0.4l1.3,1
			c-3.1-2.8,1.8,0.9-0.5-1.2c0.1,0.1,0.3,0.3,0.4,0.4c0.8,0.5-0.8-0.9-1.2-1.3c0.6,0.5,1,0.9,1.5,1.3c0.6,0.3-0.9-1.3,0.2-0.7
			c-0.8-0.7-1.2-0.9-1.8-1.5c0.3,0.2,1,0.7,1.4,1.1c1.7,1.2-0.7-1.2,0.9-0.2c-0.9-0.9-1.3-1.2-1.8-1.8c0.6,0.5,2.1,1.7,2.1,1.8
			l0.7,0.6c0.3,0,0.7,0-1.2-1.7c1.4,1.1,0.3,0.2,1.1,0.7c-0.1-0.1-0.2-0.2-0.3-0.2c-1.1-1,0.1,0,0-0.2l0.2,0.2l-0.8-0.8
			c0.2,0.1,0.5,0.3,0.9,0.7l-1-0.8c0-0.1,1.3,1,1.1,0.7l-0.7-0.6c0.5,0.3-0.5-0.6,0.6,0.3c0.2,0.2,0.1,0.1,0.1,0.1
			c1.5,1.1-0.3-0.6,0.4-0.1l-1.6-1.3c-0.4-0.5,0.4,0.2,0.9,0.7c0-0.1,0.6,0.3,0.8,0.4c-0.4-0.4-0.6-0.5-1-0.9l0.4,0.2l0.8,0.7
			c-2.2-2,0.5-0.1-1.5-1.9c0.5,0.3,0.9,0.8,1.2,1c1.1,0.7-1.2-1.5,0-0.7c1.3,0.7,0.4-0.4,1.3,0l-0.4-0.3l0.5,0.1
			c-0.9-0.8-0.4-0.6-1.4-1.5c0.3,0.3,0.9,0.7,1.1,0.9c-0.1-0.2-0.5-0.6,0.1-0.2l0.3,0.3c0.4,0.1,0.6-0.1-0.2-0.8
			c-0.1-0.1,0.7,0.5,1.2,0.9c0.1,0-0.3-0.4-0.9-1.1c0.2,0.1,0.4,0.3,0.8,0.6l-1-0.9c0.2,0.1,0.9,0.7,1.1,0.9
			c-1.1-1.1,0.1-0.4,0.1-0.5l-0.5-0.4c-0.4-0.4,0.4,0.2,0.9,0.6c0.8,0.3-1.4-1.6-0.9-1.6c1.9,1.5-0.4-0.7,1.8,1
			c-0.4-0.5,0.4,0.1-0.7-1c0.2,0.2,0.3,0.2,0.3,0.3c0.8,0.6,0.3,0-0.1-0.6l0.6,0.5c-1.3-1.2-0.8-1-2.1-2.2c0.3,0.2,0.6,0.5,0.8,0.7
			c1.3,1-0.5-0.6-0.2-0.4c0.3,0.3,0.7,0.6,1,0.8c1.7,1-0.5-1.4,0.8-0.9c0.1-0.1-1.5-1.1-1.3-1.2c0.7,0.5,1.4,1.2,1.7,1.3
			c-0.8-0.7-0.6-0.6-0.5-0.6c0.5,0.4,0.8,0.6,1,0.9c0.6,0.4-0.9-1.1,0.3-0.3c-0.4-0.3-0.7-0.5-0.9-0.7c-1.1-1.1,1.5,0.6,0.8,0
			c0,0-0.2-0.2-0.3-0.3c0.1,0,0.3,0,1,0.5c-0.4-0.3-1-0.8-1-0.9l0.8,0.6c-0.2-0.2-0.7-0.6-0.7-0.7l-0.5-0.3c0.7,0.4-0.9-0.9,0.8,0.2
			l0,0l0.8,0.4c-0.6-0.5-1.2-1-1-0.9c1.7,1.1,0.5,0,0.8,0l0.6,0.4c-0.8-0.6-0.2-0.6-0.6-0.8c0.1-0.1,0.6,0,1.1,0.4
			c-0.3-0.3-0.2-0.5-1.2-1.1l1.6,0.6c-2.2-1.2,1,0-1.4-1.2c0.4,0.1,1,0.3,1.4,0.5c-1.1-0.7-0.9-0.7-0.6-0.8l0.3,0.1
			c0.3-0.1-0.9-0.8-1-1l2,0.6c-0.2-0.2-1.7-0.8-1.3-0.7c0.3,0.1,0.4,0.1,0.5,0.2c-0.3-0.2,0.2-0.2,0.7-0.2c-1.4-0.6-0.8-0.6-2.3-1.1
			c1.8,0.3,0.7,0.4,2.4,0.7c1-0.1,0.1-0.6-0.7-1c0.4,0,0.7,0.1,1.1,0.2c0,0-1.2-0.4-2.6-0.7c-1.4-0.3-3.1-0.6-4.1-0.7
			c-1.3-0.2-2.1-0.3-3.2-0.4c0.8,0.1,1.7,0.4,0.2,0.1l1.4,0.2c0.6,0.2-2.9-0.5-2.9-0.4l0.5,0.1c0.1,0,1,0.2,0.5,0.2
			c-0.4-0.1-0.6-0.1-0.9-0.2c0.6,0.2,1.2,0.3,1.9,0.5c-0.8-0.2-1.2-0.3-1.8-0.5c0,0.1,2.5,0.6,2,0.6c-0.6-0.1-0.8-0.2-1.3-0.4
			c-1.2-0.3-0.1,0,0.6,0.3c-1.2-0.4-1.1-0.3-1.8-0.6c0.6,0.2,1.7,0.5,1.8,0.6c-1.2-0.4-0.7-0.2-1-0.3c0.4,0.1,1,0.3,1.2,0.4
			c0.2,0.1-0.3-0.1-0.2,0l1.2,0.4c1.1,0.5-0.6-0.1-1.2-0.3c-0.2-0.1-0.4-0.2-0.4-0.2c-0.5-0.1-1.5-0.5-0.4-0.1l-0.1-0.1
			c1.1,0.6,2,0.8,3,1.4c-0.3-0.1-3.8-1.7-2.4-1c1,0.4,2.3,1.2,2.7,1.5c-0.7-0.4-1.4-0.8-2.2-1.2c0,0,0.6,0.4,0.3,0.3l0.5,0.2
			c1.9,1-0.3,0,0.8,0.6c-2.5-1.4-2-1.1-4.5-2.5c1.4,0.7,2.6,1.5,2.3,1.4l-1.9-1.1c-0.4-0.2,2.3,1.5,3.7,2.6c-1.4-0.9-1.8-1.2-3-1.9
			l0.2,0.3l-1.5-1c1.5,1,0.4,0.4,2.4,1.6c-0.3-0.2-0.5-0.3-0.4-0.3c0.6,0.4,1.8,1.2,1.7,1.2c-0.5-0.3-0.7-0.5-1.3-0.9
			c0.8,0.6-0.5-0.3,0,0.1l0.9,0.5c1.1,0.8,0,0.1,0.5,0.5c-0.4-0.4-1.1-0.8-1.8-1.2l0.1,0.1c0.1,0.1,0.8,0.6,0.2,0.2l-1.5-1.1
			l1.1,0.8c-0.2-0.1-0.8-0.5-1-0.7c-1-0.6,3.3,2.3,1.8,1.5c-0.6-0.4-0.9-0.7-0.6-0.5c-0.9-0.7-1.5-1-1.8-1.2c-0.1,0-0.1-0.1-0.2-0.1
			C257.9,398.3,257.7,398.3,258.7,399.2z"/>
		<path fill="#FFC235" d="M258,398.3c0,0,0.1-0.1-0.1-0.2C257.5,397.8,257,397.6,258,398.3z"/>
		<path fill="#FFC235" d="M253,407.2c0,0-0.1-0.1-0.1-0.1C252.9,407.1,252.9,407.1,253,407.2z"/>
		<path fill="#FFC235" d="M253.1,407.9c0.2,0.1,0.3,0.2,0.3,0.2C253.1,407.9,252.9,407.8,253.1,407.9z"/>
		<path fill="#FFC235" d="M255.9,402.8C255.9,402.8,255.9,402.8,255.9,402.8C255.9,402.8,255.9,402.8,255.9,402.8z"/>
		<path fill="#FFC235" d="M253.4,404.9c0.4,0.4,0.8,0.7,1.2,1.1C254.5,405.8,254.2,405.5,253.4,404.9z"/>
		<path fill="#FFC235" d="M254.7,404.5c-0.1-0.1-0.1-0.1-0.2-0.2C254.6,404.4,254.6,404.5,254.7,404.5z"/>
		<path fill="#FFC235" d="M255.3,402.1c0.4,0.4,0.4,0.4,0.6,0.7C255.7,402.5,256.2,402.9,255.3,402.1z"/>
		<polygon fill="#FFC235" points="254.2,409.7 253.5,409.1 254,409.6 		"/>
		<path fill="#FFC235" d="M254.1,409c0.2,0.1-0.2-0.3-0.6-0.6C253.8,408.7,253.9,408.8,254.1,409z"/>
		<polygon fill="#FFC235" points="256.1,408 255.3,407.3 255.9,407.9 		"/>
	</g>
</g>
<g>
</g>
<g>
</g>
<g>
</g>
<g>
</g>
<g>
</g>
<g>
</g>
<g>
</g>
<g>
</g>
<g>
</g>
<g>
</g>
<g>
</g>
<g>
</g>
<g>
</g>
<g>
</g>
<g>
</g>
</svg>
