<?xml version="1.0" encoding="utf-8"?>
<!-- Generator: Adobe Illustrator 18.0.0, SVG Export Plug-In . SVG Version: 6.00 Build 0)  -->
<!DOCTYPE svg PUBLIC "-//W3C//DTD SVG 1.1//EN" "http://www.w3.org/Graphics/SVG/1.1/DTD/svg11.dtd">
<svg version="1.1" id="Layer_1" xmlns="http://www.w3.org/2000/svg" xmlns:xlink="http://www.w3.org/1999/xlink" x="0px" y="0px"
	 viewBox="0 0 852.4 472.7" enable-background="new 0 0 852.4 472.7" xml:space="preserve">
<g>
	<g>
		<rect x="312.9" y="165.1" fill="#F69998" width="133.6" height="307.7"/>
		<path fill="#EA888D" d="M389.4,171.7c-5.6,19.7-6.8,39.5-6.3,59.3c0.5,19.9,2.7,39.9,3.6,59.8c0.9,19.8,0.7,39.6-3.6,59.3
			c-4.2,19.2-14.2,38.1-21.1,57.1c-6.6,18.4-9.8,37.4,2.8,55.6c1.6,2.3,3.4,4.6,5.5,6.8c-0.1-0.2,3.2-1.5,3.6-1.6
			c0.4-0.2,3.8-1.4,3.5-1.7c-16.4-17.8-16.2-36.7-10.7-55.2c5.7-19.1,16.5-38,21.7-57.1c5.4-19.7,6.3-39.5,5.7-59.3
			c-0.6-19.8-2.8-39.7-3.7-59.5c-0.9-19.8-0.5-39.6,4.1-59.4c0.6-2.5,1.2-5,1.9-7.5c-0.1,0.4-2.9,1.3-3.6,1.6
			C392.1,170.4,389.5,171.2,389.4,171.7L389.4,171.7z"/>
		<path fill="#EA888D" d="M422.5,171.7c-5.6,19.7-6.8,39.5-6.3,59.3c0.5,19.9,2.7,39.9,3.6,59.8c0.9,19.8,0.7,39.6-3.6,59.3
			c-4.2,19.2-14.2,38.1-21.1,57.1c-6.6,18.4-9.8,37.4,2.8,55.6c1.6,2.3,3.4,4.6,5.5,6.8c-0.1-0.2,3.2-1.5,3.6-1.6
			c0.4-0.2,3.8-1.4,3.5-1.7c-16.4-17.8-16.2-36.7-10.7-55.2c5.7-19.1,16.5-38,21.7-57.1c5.4-19.7,6.3-39.5,5.7-59.3
			c-0.6-19.8-2.8-39.7-3.7-59.5c-0.9-19.8-0.5-39.6,4.1-59.4c0.6-2.5,1.2-5,1.9-7.5c-0.1,0.4-2.9,1.3-3.6,1.6
			C425.2,170.4,422.7,171.2,422.5,171.7L422.5,171.7z"/>
		<path fill="#EA888D" d="M362.6,171.7c-5.6,19.7-6.8,39.5-6.3,59.3c0.5,19.9,2.7,39.9,3.6,59.8c0.9,19.8,0.7,39.6-3.6,59.3
			c-4.2,19.2-14.2,38.1-21.1,57.1c-6.6,18.4-9.8,37.4,2.8,55.6c1.6,2.3,3.4,4.6,5.5,6.8c-0.1-0.2,3.2-1.5,3.6-1.6
			c0.4-0.2,3.8-1.4,3.5-1.7c-16.4-17.8-16.2-36.7-10.7-55.2c5.7-19.1,16.5-38,21.7-57.1c5.4-19.7,6.3-39.5,5.7-59.3
			c-0.6-19.8-2.8-39.7-3.7-59.5c-0.9-19.8-0.5-39.6,4.1-59.4c0.6-2.5,1.2-5,1.9-7.5c-0.1,0.4-2.9,1.3-3.6,1.6
			C365.3,170.4,362.7,171.2,362.6,171.7L362.6,171.7z"/>
		<path fill="#EA888D" d="M329.6,224c0.7,6.7-2.9,13.4-4.7,20c-1.8,6.3-1.9,12.7-1.3,19.1c1,12.7,4.6,25.5,2.2,38.2
			c-1.3,7.1-4.6,14.2-11,20.9c1.2-1.3,4.2-2.4,5.5-3.7c23.3-24.4,4.2-50.5,9.5-75.7c1.6-7.5,6.2-15,5.4-22.6c0,0.4-2.2,1.5-2.8,1.9
			C331.6,222.6,329.6,223.5,329.6,224L329.6,224z"/>
		<path fill="#EA888D" d="M344.4,268.7c7.6,25.7,3.6,51.9-11.5,77.2c-3.5,5.9-6.9,12.3-18.5,16.9c-0.5,0.2,0.5,1.8,0.6,2.1
			c0.1,0.3,1.3,1.9,0.7,2.1c10.4-4.1,14.1-9.7,17.4-15.1c4-6.4,7.2-13,9.8-19.5c5-13.1,7.2-26.3,6.4-39.6
			c-0.4-7.1-1.8-14.2-3.8-21.2C345.2,270.7,344.9,269.7,344.4,268.7C344.3,268.1,344.2,267.9,344.4,268.7L344.4,268.7z"/>
		<path fill="#EA888D" d="M429,431.3c-7.6-12.5-1.9-25.8,15.8-36.8c-1.9,1.2-6.1,1.8-8,3c-17.7,11-23.4,24.3-15.8,36.8
			c-0.1-0.2,3.6-1.3,4-1.5C425.5,432.6,429.1,431.5,429,431.3L429,431.3z"/>
	</g>
	<g>
		<path fill="#F7A19C" d="M723.6,225.8c0.4-0.2,0.9-0.4,1.2-0.7l107.5-86.5c26.1-14.3,26.9-41.4,1.5-54.1L707.2,0.9l0,0
			c-1.4-0.7-3.3-1-5.3-0.8L35.6,56.6c-7.9,0.7-10.7,8-4.2,11l6.5,2.9c5.6,2.5,4.4,8.6-1.9,10.5l-4.1,1.2c-6.4,1.9-7.5,8-1.9,10.5
			c5.7,2.5,4.4,8.7-2.1,10.6l-22.1,6.2c-7,2-7.7,8.8-1.2,10.9l23.7,7.7c6.7,2.2,5.7,9.2-1.5,11l-16.7,4.2c-7.2,1.8-8.2,8.8-1.6,11
			L43,165.7c5.8,1.9,6,7.7,0.3,10.3l-19.3,8.9c-5.8,2.7-5.5,8.6,0.6,10.4l27.3,8.1c5.8,1.7,6.4,7.3,1.2,10.1l-21,11.3
			c-5.2,2.8-4.7,8.3,1,10.1l21.7,6.8c5.2,1.6,6.2,6.5,2,9.5l-37.7,27c-5.7,4.1-1.5,10.6,6.3,9.9l39.2-3.5l12.9-1.1l557-47.6l4.5-0.4
			l80.9-8.8C721.3,226.6,722.5,226.3,723.6,225.8L723.6,225.8L723.6,225.8z"/>
		<path fill="#F69696" d="M45.9,124.5c78.2-7.5,85.9-6.8,164.1-13.9c78-7.1,156.1-13.9,234.1-20.6c44.1-3.8-2.8,0.6,41.3-3
			c9.8-0.8,3.9-7.8-3.3-7.2c-78.5,6.5-66,5.1-144.5,11.9c-78.6,6.9-157.2,14-235.8,21.3c-44.4,4.1-18.3,0.4-62.7,4.6
			c-3.5,0.3-4.4,2.8-2.9,4.5C38.1,124.2,42.3,124.8,45.9,124.5L45.9,124.5z"/>
		<path fill="#F69696" d="M283.7,143.2c122.9-5.9,245.7-14.6,368.3-26.3c34.5-3.3,68.9-6.8,103.3-10.6c9.2-1,6.4-10.4-1.9-9.5
			c-122.4,13.3-245.1,23.8-368,31.3c-34.5,2.1-69.1,4-103.6,5.6C272.6,134.1,275.4,143.6,283.7,143.2L283.7,143.2z"/>
		<path fill="#F69696" d="M528.4,150.6c79.9-8.5,159.9-15.8,240-21.9c22.5-1.7,45-3.3,67.5-4.9c9.3-0.6,8.9-9.7-0.7-9
			C755,120.3,675,126.9,595,134.7c-22.5,2.2-44.9,4.5-67.4,6.9C518.5,142.6,518.7,151.6,528.4,150.6L528.4,150.6z"/>
		<path fill="#F69696" d="M222.2,219.9c107.5-6.4,215-12.8,322.5-19.3c30.5-1.8,61-3.6,91.6-5.5c3.6-0.2,7.7-1.9,8.1-4.5
			c0.4-2.5-3.2-4.2-6.7-4c-107.5,6.4-215,12.8-322.5,19.3c-30.5,1.8-61,3.6-91.6,5.5c-3.6,0.2-7.7,1.9-8.1,4.5
			C215.1,218.4,218.7,220.1,222.2,219.9L222.2,219.9z"/>
		<path fill="#F69696" d="M72.2,266.9c69.2-7.7,138.7-13.7,208.2-17.7c19.9-1.2,39.7-2.2,59.6-3c3.7-0.2,7.1-2.4,6.8-4.9
			c-0.3-2.7-4.5-4-8.1-3.8c-69.5,3-139,7.8-208.4,14.5c-19.8,1.9-39.6,4-59.4,6.2C61.2,259.3,63,268,72.2,266.9L72.2,266.9z"/>
	</g>
	<g>
		<g>
			<path fill="#FFFFFF" d="M127.7,113.9l0.7,7.5l-47.3,4.7l-0.7-7.5L127.7,113.9z M135.2,154.5l0.8,7.6l-54.2,5.4l-0.8-7.6
				L135.2,154.5z M124.8,134.3l0.8,7.5l-38.1,3.8l-0.8-7.5L124.8,134.3z"/>
			<path fill="#FFFFFF" d="M148.8,125.5c-1.1,1.4-2.3,2.7-3.3,3.8c-1.3-1.3-4.3-3.7-6-4.8c5.5-4.7,10.5-12,12.9-19.3l7.2,1.5
				c-0.6,1.6-1.3,3.2-2,4.8l9.9-1c-0.8-1.6-1.6-3-2.5-4.4l6.7-2.6c1.3,1.9,2.7,4.3,3.7,6.2l16.7-1.7l0.6,5.6l-18.4,1.8l0.2,2.4
				l16.3-1.6l0.5,4.7l-16.3,1.6l0.2,2.5l16.3-1.6l0.5,4.7l-16.3,1.6l0.3,2.6l20-2l0.5,5.3l-39.3,3.9l0.1,1.4l-6.9,0.7L148.8,125.5z
				 M192.8,141.3c-2.3,4.4-5.8,7.9-10.1,11c5.6,0.5,11.6,0.5,18,0.3c-1.3,1.7-2.8,4.8-3.5,6.8c-8.5,0.2-16.4-0.5-23.6-2
				c-7.7,3.4-16.7,5.6-26,7.3c-0.6-1.8-2.1-4.6-3.3-6.2c6.8-1,13.5-2.4,19.4-4.1c-3.3-1.4-6.4-3.2-9.1-5.3l1.1-0.7l-9.2,0.9
				l-0.6-5.8l40.7-4.1l1.2-0.4L192.8,141.3z M167.1,116.1l-12.2,1.2l0.2,2.4l12.2-1.2L167.1,116.1z M167.8,123.3l-12.2,1.2l0.2,2.5
				l12.2-1.2L167.8,123.3z M168.5,130.4l-12.2,1.2l0.3,2.6l12.2-1.2L168.5,130.4z M163.7,147.6c2.6,1.4,5.7,2.4,9.2,3.2
				c3-1.4,5.7-3,7.8-4.9L163.7,147.6z"/>
			<path fill="#FFFFFF" d="M260.6,108.8c0,0,0.2,2.4,0.3,3.3c2,25.6,2.4,34.7,0.7,37.7c-1.2,2.2-2.6,3-4.6,3.6
				c-1.8,0.6-4.7,0.8-7.7,1c-0.3-2-1.4-5-2.9-6.9c2.8,0,5.1-0.2,6.3-0.3c0.9-0.1,1.5-0.4,2-1.3c1.1-1.8,1-9.5-0.6-29.7l-5.6,0.6
				c0.9,16.8-0.7,29.9-10.4,39.3c-1.1-1.4-3.1-3.3-4.9-4.5c-8.9,1.8-17.8,3.7-24.5,4.9l-1.5-6.2c3.5-0.6,7.8-1.3,12.6-2.1l-0.4-3.7
				l-11,1.1l-0.5-5.2l11-1.1l-0.2-2.4l-10.7,1.1l-1.9-19.3l10.7-1.1l-0.2-2.4l-12.3,1.2l-0.5-5.4l12.3-1.2l-0.2-2.5
				c-3.6,0.6-7.1,1.2-10.5,1.6c-0.4-1.5-1.3-3.7-2.1-5.1c9.2-1.4,19.9-3.6,26.6-5.7l3.8,5.2c-3.2,1-7.1,2-11.1,2.8l0.3,3.1l12-1.2
				l0.3,3.4l5.9-0.6c-0.3-4.1-0.8-8.4-1.2-13l7.1-0.7c0.5,4.6,0.9,8.9,1.2,13.1L260.6,108.8z M212.6,125.5l4.9-0.5l-0.3-2.7
				l-4.9,0.5L212.6,125.5z M218.2,132.2l-0.3-2.8l-4.9,0.5l0.3,2.8L218.2,132.2z M226.5,147c3.5-0.6,7.2-1.3,10.8-2
				c4.2-7.2,4.8-16.3,4.1-27.5l-5.7,0.6l-0.5-4.9l-12,1.2l0.2,2.4l11-1.1l1.9,19.3l-11,1.1l0.2,2.4l11.3-1.1l0.5,5.2l-11.3,1.1
				L226.5,147z M229.1,123.8l-0.3-2.7l-4.9,0.5l0.3,2.7L229.1,123.8z M224.6,128.7l0.3,2.8l4.9-0.5l-0.3-2.8L224.6,128.7z"/>
			<path fill="#FFFFFF" d="M294,125.6c-2.2,0.8-4.3,1.8-6.5,2.7l2.2,22.2l-6.8,0.7l-2-20.2c-3.3,1.3-6.3,2.6-9.1,3.7l-2.5-6.9
				c3.1-1,6.8-2.4,10.9-4L279,112l-4.2,0.4c-0.4,3.1-0.9,5.9-1.5,8.2c-1.2-0.8-4.1-2.2-5.6-2.9c1.4-5.1,1.7-13,1.5-20.4l6.3,0.4
				c0,2.5-0.1,5-0.2,7.5l2.9-0.3l-1.2-12l6.8-0.7l1.2,12l5.2-0.5l0.7,7l-5.2,0.5l1,10l5.6-2.2L294,125.6z M325.1,97.9
				c0,0,0.2,2.5,0.2,3.4c1.6,27.9,1.5,38.2-0.6,41.6c-1.2,2.3-2.5,3.1-4.5,3.7c-1.7,0.5-4.3,0.7-7,0.9c-0.4-2.1-1.5-5.1-2.8-7
				c2.3,0,4.4-0.2,5.6-0.3c0.9-0.1,1.5-0.4,2.2-1.4c1.4-2.2,1.6-10.7,0.4-33.2l-0.3,0c-1.5,16-6.3,32.9-15.5,42.2
				c-1.6-1.3-4.3-2.8-6.5-3.7c9.3-8.2,14.1-23,15.8-37.9l-2.9,0.3c-1.7,10.4-5.9,22.1-11.6,28.8c-1.5-1.3-4.1-2.7-6.1-3.6
				c5.7-5.5,9.6-15.2,11.5-24.5l-3.2,0.3c-1.4,4.5-3.2,8.6-5.3,11.8c-1.3-1.1-4.4-2.8-6-3.6c4.4-5.9,6.9-15.2,7.9-24.5l6.9,0.6
				c-0.3,2.9-0.9,5.8-1.5,8.7L325.1,97.9z"/>
			<path fill="#FFFFFF" d="M369.9,104c7.2,4.1,17.5,10.4,22.5,14.8l-5.7,6.3c-4.3-4.2-13.5-10.5-20.8-15l3.2,32.3l-8.1,0.8l-3-30.4
				c-5.1,6.6-11.2,12.7-18.3,17.3c-1.4-1.9-4-4.7-5.8-6.2c10.8-6.4,19.6-17.1,24.4-27.2l-24.9,2.5l-0.8-7.6l54.1-5.4l0.8,7.6
				l-19.4,1.9c-0.9,2-1.9,4.1-3,6.1l0.6,6.5L369.9,104z"/>
			<path fill="#FFFFFF" d="M432.6,128.1c1.6,0,3.3-0.1,5-0.3c3.5-0.3,15.5-1.5,19.9-2.2c-0.8,1.8-1.6,5.1-1.8,7.4l-17.8,1.8
				c-11.4,1.1-19.3,0.3-25.3-6.4c-1.8,4.3-4.4,7.9-7.7,10.8c-1.2-1.3-4.3-3.7-6.1-4.6c6-4.6,9.1-11.6,9.7-20.1l7.5,0.4
				c-0.2,2-0.5,4-0.9,5.8c2.4,4,5.6,6.1,9.8,6.9l-1.6-15.8l-24.3,2.4l-0.7-6.6l55-5.5l0.7,6.6l-23.1,2.3l0.5,4.7l19.2-1.9l0.6,6.4
				l-19.2,1.9L432.6,128.1z M447.2,99.9l-43.4,4.3l-2.2-21.6l43.4-4.3L447.2,99.9z M438,84.2l-28.6,2.9l0.3,3.2l28.6-2.9L438,84.2z
				 M438.8,92.3l-28.6,2.9l0.3,3.2l28.6-2.9L438.8,92.3z"/>
			<path fill="#FFFFFF" d="M511.4,75.6l0.7,7.5l-47.3,4.7l-0.7-7.5L511.4,75.6z M518.8,116.2l0.8,7.6l-54.2,5.4l-0.8-7.6
				L518.8,116.2z M508.4,96l0.8,7.5l-38.1,3.8l-0.8-7.5L508.4,96z"/>
			<path fill="#FFFFFF" d="M532.4,87.1c-1.1,1.4-2.3,2.7-3.3,3.8c-1.3-1.3-4.3-3.7-6-4.8c5.5-4.7,10.5-12,12.9-19.3l7.2,1.5
				c-0.6,1.6-1.3,3.2-2,4.8l9.9-1c-0.8-1.6-1.6-3-2.5-4.4l6.7-2.6c1.3,1.9,2.7,4.3,3.7,6.2l16.7-1.7l0.6,5.6l-18.4,1.8l0.2,2.4
				l16.3-1.6l0.5,4.7l-16.3,1.6l0.2,2.5l16.3-1.6l0.5,4.7l-16.3,1.6l0.3,2.6l20-2l0.5,5.3l-39.3,3.9l0.1,1.4l-6.9,0.7L532.4,87.1z
				 M576.4,103c-2.3,4.4-5.8,7.9-10.1,11c5.6,0.5,11.6,0.5,18,0.3c-1.3,1.7-2.8,4.8-3.5,6.8c-8.5,0.2-16.4-0.5-23.6-2
				c-7.7,3.3-16.7,5.6-26,7.3c-0.6-1.8-2.1-4.6-3.3-6.2c6.8-1,13.5-2.4,19.4-4.1c-3.3-1.4-6.4-3.2-9.1-5.3l1.1-0.7l-9.2,0.9
				l-0.6-5.8l40.7-4.1l1.2-0.4L576.4,103z M550.7,77.8L538.5,79l0.2,2.4l12.2-1.2L550.7,77.8z M551.4,84.9l-12.2,1.2l0.2,2.5
				l12.2-1.2L551.4,84.9z M552.1,92.1L540,93.3l0.3,2.6l12.2-1.2L552.1,92.1z M547.4,109.3c2.6,1.4,5.7,2.4,9.2,3.2
				c3-1.4,5.7-3,7.8-4.9L547.4,109.3z"/>
			<path fill="#FFFFFF" d="M605,76.9c-1.2,9.5-3.4,21.4-7.9,28.8c-2-1.1-5.6-2.5-7.6-3.1c4.4-6.8,6.4-18,6.9-26.3L605,76.9z
				 M619.3,59.6l4.8,48.1c0.5,4.6-0.4,6.7-3,8.2c-2.8,1.5-7,2.2-13.1,2.8c-0.7-2.1-2.4-5.5-3.7-7.4c4.1-0.2,8.7-0.7,10.1-0.9
				c1.4-0.1,1.8-0.6,1.7-1.8l-4.8-48.1L619.3,59.6z M634.8,71.7c5.9,8.4,12.2,19.1,14.5,26.8l-7.8,4c-2-7.4-7.9-18.7-13.8-27.3
				L634.8,71.7z"/>
			<path fill="#FFFFFF" d="M696.8,76.3c-1.6,2.1-3.4,3.9-5.3,5.8l16-1.6l2.8,27.8l-7.5,0.7l-0.2-2.5l-11.7,1.2l0.3,2.7l-7,0.7
				L682,90.1c-1.1,0.8-2.3,1.6-3.5,2.4c-0.8-1.6-3-4.7-4.3-6.1c4.4-2.5,8.5-5.6,12.3-9l-8.9,0.9l-0.5-4.7c-0.8,1.2-1.6,2.3-2.4,3.4
				c1.8,1.3,3.6,2.9,4.5,4.1l-3.6,3.9c-0.7-1.2-2.2-2.7-3.8-4l-0.2,0.2c3.6,10.7,3.9,22.9,1.4,27c-1.4,2.7-3.7,3.9-6.7,4.3
				c-1.2,0.1-2.9,0.3-4.4,0.4c-0.3-1.9-1-4.5-2.1-6.2c1.6,0,3.4-0.1,4.3-0.2c1.4-0.1,2.2-0.5,2.9-2.3c0.7-1.3,1-5,0.6-9.4
				c-3,4.1-6.8,8-10.5,10.7c-0.7-1.6-2.4-4.6-3.6-6.1c4.9-2.8,10-8,12.8-13c-0.3-1.4-0.7-2.6-1.1-3.9c-2.5,3.5-5.9,7-8.8,9.4
				c-0.8-1.6-2.4-4.3-3.7-5.6c3.7-2.3,7.9-6.2,10.1-9.7c-0.5-1-1.1-1.8-1.7-2.7c-1.9,1.8-3.9,3.4-5.8,4.8c-0.6-1.3-2.6-4.7-3.7-6.2
				c3.5-2,6.9-4.8,9.5-7.9l-9.5,0.9l-0.6-6.4l25.2-2.5l0.6,6.4l-7.9,0.8c-1,1.9-2.3,3.8-3.7,5.6c1.5,1.7,2.8,3.8,3.9,6
				c1.5-2.6,3-5.6,3.9-8l6.5,2.9l-1.2,1.7l8-0.8l-0.5-5.4l-6.7,0.7l-0.7-6.4l6.7-0.7l-0.7-6.9l7.1-0.7l0.7,6.9l6.6-0.7l0.3,2.9
				c1-1.8,1.8-3.6,2.4-5.5l6.8,1.7c-1.8,4.3-3.9,8.5-6.5,12.4l7.9-0.8l0.6,6.3L696.8,76.3z M700.6,86.9L689,88.1l0.4,3.9l11.7-1.2
				L700.6,86.9z M702,100.6l-0.4-4.3l-11.7,1.2l0.4,4.3L702,100.6z M692.9,64.8l0.5,4.9c1.3-1.8,2.6-3.5,3.7-5.3L692.9,64.8z"/>
			<path fill="#FFFFFF" d="M278.3,190.4l0.6,6l-43.1,4.3l-0.6-6L278.3,190.4z"/>
			<path fill="#FFFFFF" d="M297.7,194.8c-1.2,0.6-2.4,1.2-3.7,1.8l1.1,11.3c0.3,2.6,0,4-1.3,5.1c-1.3,1-3.3,1.4-6.2,1.7
				c-0.3-1.4-1.2-3.6-2-5.1c1.7-0.1,3.2-0.2,3.8-0.3c0.6-0.1,0.7-0.3,0.7-0.9l-1-9.5c-1.3,0.6-2.5,1.1-3.7,1.7l-1.8-5.2
				c1.4-0.5,3.1-1.2,5-2l-0.8-8.4l-4.5,0.4l-0.5-5.2l4.5-0.4l-0.9-8.9l5.1-0.5l0.9,8.9l3.2-0.3l0.5,5.2l-3.2,0.3l0.7,6.7l2.9-1.3
				L297.7,194.8z M302,181.3l-5.2,0.5l-1-9.6l27.7-2.8l0.9,9.3l-5.4,0.5l-0.5-4.5l-17.1,1.7L302,181.3z M309.1,177
				c0.3,6.6-1,10.6-9.7,13.4c-0.6-1.3-2-3.2-3.1-4c7.3-1.9,8-4.2,7.8-8.8L309.1,177z M317.6,196.4c3,3.2,7.1,6,11.1,7.4
				c-1.1,1.2-2.6,3.3-3.4,4.7c-3.7-1.8-7.4-4.8-10.5-8.2l1.2,12l-5.5,0.5l-1.1-11.5c-2.2,4-5.1,7.6-8.6,10c-0.9-1.2-2.8-2.9-4-3.9
				c3.8-2.3,7.2-5.9,9.3-9.9l-7.5,0.7l-0.5-5l10.4-1l-0.5-4.6l5.5-0.5l0.5,4.6l12.2-1.2l0.5,5L317.6,196.4z M322,182.2
				c0.8-0.1,2.1-0.4,2.9-0.6c0.3,1.3,0.6,3.4,0.9,4.6c-0.7,0.4-2,0.5-3.2,0.6l-4.2,0.4c-4.8,0.5-6.1-1-6.6-5.6l-0.5-4.9l4.9-0.5
				l0.5,4.9c0.1,1.1,0.3,1.5,1.1,1.5L322,182.2z"/>
			<path fill="#FFFFFF" d="M349.6,192.8l-4.4,1.6l1.5,14.8l-5.3,0.5l-1.3-13.5l-6,2.2l-1.9-5.5c2-0.6,4.6-1.4,7.4-2.3l-1-10.3
				l-2.7,0.3c-0.2,2.4-0.6,4.7-1.1,6.4c-1-0.3-3-0.9-4.1-1.1c1.1-3.9,1.4-10.1,1.3-15.8l4.3,0.2c0,1.7,0,3.3-0.1,4.9l1.9-0.2
				l-0.9-9.1l5.3-0.5l0.9,9.1l4-0.4l0.5,5.3l-4,0.4l0.9,9.1l3.8-1.3L349.6,192.8z M357.4,173.3l-8.8,0.9l-0.5-5.1l8.8-0.9l-0.4-4.2
				l5.5-0.6l0.4,4.2l9.4-0.9l0.5,5.1l-9.4,0.9l0.4,4l7.8-0.8l0.5,5.2l-20.4,2l-0.5-5.2l7.1-0.7L357.4,173.3z M375.2,190.2l-4.5,0.5
				l1,9.8c0.3,2.8-0.1,4.3-1.9,5.3c-1.7,1-4.3,1.4-7.7,1.8c-0.4-1.6-1.4-3.8-2.2-5.4c2.2-0.1,4.7-0.4,5.5-0.5
				c0.7-0.1,0.9-0.3,0.8-0.9l-1-9.7l-14.9,1.5l-0.5-5.1l14.9-1.5l-0.3-3.3l5.5-0.6l0.3,3.3l4.5-0.5L375.2,190.2z M356.6,192.2
				c2.2,1.9,5,4.6,6.3,6.5l-4.1,3.3c-1.2-1.9-3.8-4.8-6.1-6.8L356.6,192.2z"/>
			<path fill="#FFFFFF" d="M401.5,182.1c0,0,0.1,1.4,0.2,2c0.7,11.3,0.6,15.9-0.5,17.6c-0.8,1.2-1.9,1.7-3.3,2.1
				c-1.2,0.3-3.4,0.6-5.7,0.7c-0.2-1.5-1-3.4-1.9-4.7c1.9,0,3.8-0.1,4.6-0.2c0.7-0.1,1.1-0.2,1.5-0.8c0.6-0.9,0.7-3.9,0.3-11.4
				l-5.2,0.5c-0.4,6.5-2,12.8-6.6,17.5c-0.9-1.3-2.7-2.9-4.1-3.7c5.6-5.7,5.7-14.2,5.3-22l-4.7,0.5l-1.6-16.3l19.3-1.9l1.6,16.3
				l-9.1,0.9c0,1.3,0.1,2.6,0.1,3.9L401.5,182.1z M386,174.7l8.8-0.9l-0.6-6.4l-8.8,0.9L386,174.7z M411,191l-5.4,0.5l-2.6-26.4
				l5.4-0.5L411,191z M419,158.7l3.6,36.1c0.3,3.3-0.2,4.9-2,6c-1.8,1.1-5,1.6-9.2,2c-0.4-1.6-1.5-4.1-2.5-5.6
				c3.1-0.2,6.1-0.5,7-0.6c0.9-0.1,1.2-0.4,1.2-1.3l-3.6-36.1L419,158.7z"/>
			<path fill="#FFFFFF" d="M438.1,182.5l1.1,10.9c0.3,2.6,0,4-1.4,5c-1.3,1.1-3.4,1.5-6.4,1.7c-0.3-1.3-1.1-3.6-2-5
				c1.7-0.1,3.3-0.3,3.9-0.4c0.6-0.1,0.8-0.3,0.7-0.9l-0.9-9.4c-1.5,0.6-2.9,1.1-4.2,1.6l-1.8-5.3c1.6-0.5,3.4-1.2,5.4-1.9l-0.8-8.3
				l-5.1,0.5l-0.5-5.2l5.1-0.5l-0.9-8.9l5.1-0.5l0.9,8.9l4.7-0.5l0.5,5.2l-4.7,0.5l0.7,6.9l4.1-1.5l1.3,4.9L438.1,182.5z
				 M460.6,192.2c1.1,0,2.1-0.1,3.3-0.2c1.6-0.2,7.4-0.7,9.4-1c-0.5,1.2-1,3.6-1,5l-8.2,0.8c-6.1,0.6-11,0-14.7-5.4
				c-0.9,3.1-2.3,5.7-4.2,7.9c-0.9-0.8-3.2-2.3-4.4-2.9c3.6-3.5,5-8.9,5.1-15.3l5.1,0.1c-0.1,1.7-0.2,3.3-0.4,4.8
				c1.3,2.6,2.8,4.2,4.6,5.1l-1.2-12.2l-11,1.1l-0.4-4.5l27.7-2.8l0.4,4.5l-11.4,1.1l0.4,4.1l9-0.9l0.4,4.4l-9,0.9L460.6,192.2z
				 M467.6,170.7l-23.1,2.3l-1.6-16.2l23.1-2.3L467.6,170.7z M461.1,159l-12.6,1.3l0.2,2.3l12.6-1.3L461.1,159z M461.7,164.9
				l-12.6,1.3l0.2,2.4l12.6-1.3L461.7,164.9z"/>
			<path fill="#FFFFFF" d="M483.1,159.8l-8.4,0.8l-0.5-4.5l8.4-0.8l-0.3-3.4l5.2-0.5l0.3,3.4l8.3-0.8l0.5,4.5l-8.3,0.8l0.2,2.4
				l7.2-0.7l0.4,4.5l-19.6,2l-0.4-4.5l7.2-0.7L483.1,159.8z M490.4,179.6l1.5,15.1l-5.3,0.5l-1.5-15.1l-9,0.9l-0.5-4.6l23-2.3
				l0.5,4.6L490.4,179.6z M483.8,182.3c-0.5,3.5-1.7,7.7-2.8,10.3c-1.1-0.5-3.2-1.1-4.4-1.4c1.2-2.6,2-6.3,2.6-9.5L483.8,182.3z
				 M496.2,167.9c2-4.7,2.8-11.4,2.8-18l5.5,0.2c-0.1,2.6-0.2,5.2-0.5,7.7l9.3-0.9l0.8-0.3l4,0.6c-0.5,4.7-1.3,10.2-2.1,13.7
				l-4.6-0.9c0.4-2.1,0.8-5,1-7.9l-9.1,0.9c-0.7,3.7-1.7,6.9-3,9.6c-0.8-0.6-2.4-1.7-3.8-2.4l0.2,1.9l-19.1,1.9l-0.4-4.5l19.1-1.9
				L496.2,167.9z M495.9,179.9c1.4,2.1,3,5,3.8,6.9l-4.2,2.3c-0.7-1.9-2.2-4.9-3.6-7.2L495.9,179.9z M509.6,167.8
				c0.1,1.3,0.2,2.8,0.3,4.4c2.2,6.8,5.9,12.5,11.5,14.8c-1.1,1.2-2.6,3.5-3.2,5.1c-4-2-7-5.5-9.3-10c-1,4-2.9,8.1-6.3,11.8
				c-1.1-1.1-3.2-2.7-4.6-3.4c7.1-7.5,6.9-16.5,6.3-22.3l-0.2-2.2l5.3-0.5L509.6,167.8z"/>
			<path fill="#FFFFFF" d="M537.1,172.6c-0.5-1-1.4-2.5-2.4-3.9l2.1,21.5l-4.8,0.5l-2-19.6c-0.8,4.3-1.9,8.4-3.3,11.3
				c-0.6-1.6-2.1-4.1-3-5.4c2.1-3.9,3.9-10.6,4.6-16l-5,0.5l-0.5-5.2l5.7-0.6l-0.9-8.7l4.8-0.5l0.9,8.7l4.4-0.4l0.5,5.2l-4.4,0.4
				l0.2,2.1c1.3,1.2,4.8,5.2,5.6,6.3L537.1,172.6z M544.6,152.5l-7.5,0.8l-0.4-4l7.5-0.8l-0.3-3.1l4.8-0.5l0.9,9l-4.8,0.5
				L544.6,152.5z M557.9,182.7l10.8-1.1l0.4,3.9l-20.8,2.1l0.2,1.5l-4.9,0.5l-1.4-13.6c-0.5,0.7-1.1,1.2-1.6,1.8
				c-0.5-1-2.1-3.4-3-4.4c2.3-2.3,4.4-5.5,5.8-8.8l-3.5,0.3l-0.9-9.3l11.6-1.2l0.9,9.3l-5.2,0.5l1.9,0.5c-0.3,0.8-0.6,1.7-0.9,2.5
				l4.1-0.4c-0.2-0.6-0.5-1.2-0.8-1.7l4.4-1.7l-1.7,0.2l-0.9-9.3l11.8-1.2l0.9,9.3l-9.9,1c0.5,0.9,1,1.9,1.4,2.9l9.4-0.9l0.3,3.5
				l-9.6,1l0.2,1.8l8-0.8l0.4,3.6l-8,0.8l0.2,1.9l8-0.8l0.4,3.6l-8,0.8L557.9,182.7z M543.4,161.2l3.5-0.3l-0.3-2.5l-3.5,0.3
				L543.4,161.2z M551.9,172.2l-0.2-1.8l-5.2,0.5l0.2,1.8L551.9,172.2z M552.3,175.8l-5.2,0.5l0.2,1.9l5.2-0.5L552.3,175.8z
				 M547.9,183.7l5.2-0.5l-0.2-1.9l-5.2,0.5L547.9,183.7z M565.4,146.3l0.4,4l-8.2,0.8l0.2,1.7l-4.8,0.5l-0.9-8.9l4.8-0.5l0.3,3.1
				L565.4,146.3z M556.9,159.9l3.6-0.4l-0.3-2.5l-3.6,0.4L556.9,159.9z"/>
		</g>
	</g>
</g>
<g>
</g>
<g>
</g>
<g>
</g>
<g>
</g>
<g>
</g>
<g>
</g>
<g>
</g>
<g>
</g>
<g>
</g>
<g>
</g>
<g>
</g>
<g>
</g>
<g>
</g>
<g>
</g>
<g>
</g>
</svg>
