<?xml version="1.0" encoding="utf-8"?>
<!-- Generator: Adobe Illustrator 18.0.0, SVG Export Plug-In . SVG Version: 6.00 Build 0)  -->
<!DOCTYPE svg PUBLIC "-//W3C//DTD SVG 1.1//EN" "http://www.w3.org/Graphics/SVG/1.1/DTD/svg11.dtd">
<svg version="1.1" id="Layer_1" xmlns="http://www.w3.org/2000/svg" xmlns:xlink="http://www.w3.org/1999/xlink" x="0px" y="0px"
	 viewBox="0 0 701.6 235.8" enable-background="new 0 0 701.6 235.8" xml:space="preserve">
<g>
	<path fill="#F59295" d="M566.1,226.6c0.4-0.2,0.7-0.4,1.1-0.6l116.2-76.7c22.3-12.2,24.6-39.2,4.5-53.8L573.7,1.2l0,0
		C572.5,0.5,571,0,569.3,0L32.8,5.7c-6.5,0.1-9.3,7.2-4.1,10.6l5.2,3.4c4.4,2.9,3.1,8.9-2.2,10.3l-3.5,0.9
		c-5.4,1.4-6.7,7.4-2.2,10.3c4.5,3,3.1,9.1-2.4,10.4L5,56.2c-5.9,1.4-6.9,8.2-1.6,10.8l19,9.5c5.4,2.7,4.2,9.6-1.9,10.9l-14,2.9
		c-6,1.2-7.3,8.2-1.9,10.8l27.9,14c4.7,2.4,4.5,8.2-0.3,10.3l-16.4,7.3c-4.9,2.2-5,8.2-0.1,10.4l22,10.2c4.7,2.2,4.8,7.8,0.3,10.2
		l-17.9,9.6c-4.5,2.4-4.3,8,0.3,10.2l17.5,8.4c4.2,2,4.7,6.9,1.1,9.6l-32.6,24c-4.9,3.6-1.9,10.5,4.6,10.4l32.4-0.4l10.7-0.1
		l461-4.3l3.7,0l44.5-3.7C564.1,227.2,565.2,227,566.1,226.6L566.1,226.6L566.1,226.6z"/>
	<path fill="#F58B8D" d="M37.2,74.2C102,72.8,108.3,74,173.1,73c64.6-1,129.2-1.8,193.8-2.4c36.5-0.3-2.4,0.4,34.1,0.2
		c8.1,0,3.7-7.5-2.3-7.5c-65,0.4-54.6-0.1-119.6,0.7C214.1,64.8,149,65.8,83.9,67c-36.8,0.7-15.1-1.1-51.8-0.3
		c-2.9,0.1-3.8,2.4-2.7,4.2C30.8,73.3,34.3,74.2,37.2,74.2L37.2,74.2z"/>
	<path fill="#F58B8D" d="M231.8,111.3c101.4,3.7,203,4.5,304.6,2.3c28.5-0.6,57.1-1.5,85.6-2.5c7.6-0.3,5.9-9.9-1-9.6
		c-101.5,3.8-203.1,4.7-304.6,2.7c-28.5-0.6-57.1-1.4-85.6-2.4C223.1,101.3,224.9,111,231.8,111.3L231.8,111.3z"/>
	<path fill="#F58B8D" d="M432.6,137.6c66.2-2.3,132.5-3.4,198.7-3.3c18.6,0,37.2,0.2,55.8,0.4c7.7,0.1,7.9-9,0-9.1
		c-66.2-0.8-132.5-0.4-198.7,1.2c-18.6,0.5-37.2,1-55.8,1.6C424.9,128.8,424.6,137.9,432.6,137.6L432.6,137.6z"/>
	<path fill="#F58B8D" d="M176.6,182.9c88.8,1.9,177.6,3.9,266.5,5.8c25.2,0.5,50.4,1.1,75.7,1.6c3,0.1,6.4-1.3,7-3.9
		c0.5-2.5-2.4-4.5-5.3-4.5c-88.8-1.9-177.6-3.9-266.5-5.8c-25.2-0.5-50.4-1.1-75.7-1.6c-3-0.1-6.4,1.3-7,3.9
		C170.8,180.9,173.7,182.9,176.6,182.9L176.6,182.9z"/>
	<path fill="#F58B8D" d="M50.3,218.2c57.4-2.4,114.9-2.9,172.3-1.5c16.4,0.4,32.8,0.9,49.2,1.6c3,0.1,5.9-1.8,5.8-4.3
		c-0.1-2.7-3.5-4.3-6.4-4.4c-57.4-2.4-114.8-3-172.3-1.6c-16.4,0.4-32.8,0.9-49.2,1.6C41.7,209.8,42.8,218.5,50.3,218.2L50.3,218.2z
		"/>
</g>
<g>
	<g>
		<path fill="#FFFFFF" d="M117.9,100.7c-1.8,4.2-4.5,9.3-6.5,12.5c-1.2-1-3.7-2.5-5.2-3.3c2.2-2.9,4.5-7.3,5.9-10.9L117.9,100.7z
			 M128.1,97.8L109.1,98L108.6,58l18.9-0.3L128.1,97.8z M121.2,63.7l-6.4,0.1l0.1,5.6l6.4-0.1L121.2,63.7z M121.4,74.8l-6.4,0.1
			l0.1,5.8l6.4-0.1L121.4,74.8z M121.5,86.1l-6.4,0.1l0.1,5.8l6.4-0.1L121.5,86.1z M124.4,98.7c2.2,3,4.8,7.1,6.1,9.6l-5,3.3
			c-1.2-2.7-3.8-7-5.9-10.1L124.4,98.7z M152.1,79.9c-1.5,1.7-3.1,3.2-4.8,4.8l13.8-0.2l0.4,28.2l-6.7,0.1l0-2.7l-11.7,0.2l0,2.9
			l-6.5,0.1l-0.3-20.8c-1.2,0.7-2.4,1.3-3.6,1.9c-0.8-1.4-2.8-4.4-4-5.7c5.2-2.3,10-5.2,14.2-8.7l-13.2,0.2l-0.1-6.3l11.2-0.2
			l-0.1-6.1l-8.5,0.1l-0.1-6.2l8.5-0.1l-0.1-6.5l6.8-0.1l0.1,6.5l7.1-0.1l0.1,4.4c1.2-2,2.1-4.2,3-6.5l6.2,1.9
			c-1.8,4.5-4.1,8.7-6.7,12.5l7.6-0.1l0.1,6.3L152.1,79.9z M154.4,90.2l-11.7,0.2l0.1,4.1l11.7-0.2L154.4,90.2z M154.6,104.4
			l-0.1-4.6l-11.7,0.2l0.1,4.6L154.6,104.4z M147.7,73.7l1.5,0c1.6-2,3.1-3.9,4.4-6.1l-6,0.1L147.7,73.7z"/>
		<path fill="#FFFFFF" d="M228.8,101.5l0.1,7.5l-57,0.8l-0.1-7.5l22.4-0.3l-0.6-47.2l8-0.1l0.2,17.9l22.1-0.3l0.1,7.6L202,80.2
			l0.3,21.7L228.8,101.5z"/>
		<path fill="#FFFFFF" d="M252.5,56.9c-1.5,3-3.2,5.9-5.2,8.7c2.7,6.7,3.2,13.7,3.3,21.4c0.1,8.6-0.2,17.7-2.7,21.5
			c-0.7,1.1-1.9,2-3.4,2.2c-1.7,0.5-3.9,0.6-6.1,0.6c-0.1-2.3-0.6-4.8-1.7-6.7c2,0.2,3.4,0.1,4.4-0.1c0.8-0.1,1.2-0.3,1.6-0.9
			c1.1-1.3,1.4-7.4,1.4-13.9c-1.7,2.8-3.6,5.3-5.4,7.3c-0.9-1.7-2.7-4.4-4.1-5.7c3.4-2.9,7-8.6,9-13.6c-0.3-2.1-0.6-4.1-1-5.9
			c-1.2,1.3-2.5,2.5-3.8,3.7c-1.1-1.4-3.2-3.4-4.8-4.5c2.1-1.8,4.1-3.9,5.9-6.3c-1.2-2.5-2.9-4.9-4.9-7.3l5-3.6
			c1.5,1.7,2.8,3.4,4,5.1c1-1.8,2-3.6,2.8-5.4L252.5,56.9z M258.1,85.2l9.9-0.1l0.3,21.1l-9.9,0.1l0.1,4.3l-5.9,0.1l-0.7-49.3l2.9,0
			c0.7-2.6,1.4-5.7,1.8-8.1l6.7,1.1c-0.8,2.3-1.6,4.7-2.3,6.9l6.2-0.1l0.3,19.7l-9.5,0.1L258.1,85.2z M261.5,67.6l-3.6,0l0.1,7.1
			l3.6,0L261.5,67.6z M258.2,91.5l0.1,8.6l4-0.1l-0.1-8.6L258.2,91.5z M283.7,62l0.1,6.5l8.3-0.1l0.4,28.1c0,2.3-0.3,4-1.6,5
			c-1.3,1-2.9,1.2-5.1,1.3c-0.2-1.4-0.9-3.4-1.6-4.9l0.2,13.6l-6,0.1l-0.5-36.6l-2.8,0l0.4,28.1l-5.4,0.1l-0.5-34.4l8.1-0.1
			l-0.1-6.5l-8.8,0.1l-0.1-6.3l24.1-0.3l0.1,6.3L283.7,62z M283.9,74.7l0.3,22.3c1,0,1.8,0,2.3,0c0.4,0,0.5-0.1,0.5-0.6l-0.3-21.7
			L283.9,74.7z"/>
		<path fill="#FFFFFF" d="M357.1,86.4l-24.3,0.3l0.2,15.1c0.1,4.2-0.9,6.3-3.8,7.5c-3.1,1.2-7.3,1.5-13.1,1.5
			c-0.5-2.2-2-5.6-3.3-7.7c4.4,0.2,9.3,0.1,10.6,0c1.4-0.1,1.8-0.4,1.8-1.5L325,86.8l-24.8,0.3l-0.1-7.5l24.8-0.3l-0.1-8.7
			c3.9-1.9,8.4-4.8,12-7.6l-30.7,0.4l-0.1-7.4l39.1-0.5l1.8-0.4l5.7,4.2c-5.3,5.3-12.7,11.1-19.9,15.1l0.1,4.8l24.3-0.3L357.1,86.4z
			"/>
		<path fill="#FFFFFF" d="M420.3,60.6c0,0,0,2.5,0,3.4c-0.4,28-1,38-3.5,41.4c-1.7,2.3-3.5,3.1-6,3.5c-2.4,0.3-6.1,0.3-9.8,0.3
			c-0.2-2.1-1.2-5.2-2.5-7.2c4,0.3,7.7,0.3,9.3,0.2c1.3,0,1.9-0.3,2.7-1.1c1.8-2,2.5-11.4,2.9-33.6l-13.4,0.2
			c-1.6,3.8-3.5,7.3-5.4,10c-1-0.9-3.2-2.3-4.9-3.4l0.4,29.3l-16.7,0.2l0.1,4.6l-6.8,0.1L366,61.8l7.1-0.1c0.8-3.1,1.5-7.2,1.7-10.1
			l8.2,1c-1,3.1-2.1,6.3-3.1,9l9.7-0.1l0.1,10.2c3.6-5.3,6.5-12.9,8.2-20.3l7.1,1.5c-0.6,2.7-1.4,5.3-2.3,8L420.3,60.6z M382.8,68.1
			l-10,0.1l0.1,10.2l10-0.1L382.8,68.1z M383.2,97L383,84.7l-10,0.1l0.2,12.3L383.2,97z M404,93.3c-1.8-3.7-5.8-9.8-8.9-14.4
			l5.8-3.4c3.2,4.3,7.4,10.2,9.4,13.8L404,93.3z"/>
		<path fill="#FFFFFF" d="M485.9,96.4l-13.2,0.2l0.1,4.9c0,3.5-0.6,5.3-3.2,6.3c-2.4,1-5.9,1.1-10.5,1.1c-0.3-2-1.4-4.7-2.5-6.5
			c3.1,0.1,6.5,0,7.5,0c1-0.1,1.3-0.3,1.3-1l-0.1-4.7L447,96.9c2.9,1.7,6.1,3.6,8,5l-4.5,5.1c-2.3-2-7.3-5.2-10.9-7.3l2.6-2.8
			l-13.4,0.2l-0.1-6l36.5-0.5l0-2.8l-30.5,0.4l-0.3-23.3l13.9-0.2l0-2.4l-18.8,0.3l-0.1-5.7l13.6-0.2c-0.8-1.4-2-3-3.2-4.2l6-2.5
			c1.6,1.7,3.6,4.1,4.6,5.8l-1.9,0.8l14.9-0.2c1.2-2,2.4-4.5,3.2-6.3l7.9,1.8c-1.3,1.5-2.5,3-3.6,4.4l13-0.2l0.1,5.7l-19,0.3l0,2.4
			l14.9-0.2l0.3,23.3l-7.6,0.1l0,2.8l13.1-0.2L485.9,96.4z M441.2,69.4l0.1,4.3c4.8-0.8,6.4-2.5,6.9-4.4L441.2,69.4z M441.4,83.9
			l31.7-0.4l-0.1-8.2l-0.6,0l-6.5,0.1c-5.6,0.1-7-1-7.1-5.3l0-0.9l-4.3,0.1c-0.5,3.8-3.1,6.9-9.7,9c-0.6-1.2-2.2-3.3-3.4-4.3
			L441.4,83.9z M446.5,77.8l22.4-0.3l0.1,4l-22.4,0.3L446.5,77.8z M454.5,64.9l4.1-0.1l0-2.4l-4.1,0.1L454.5,64.9z M465.1,69l0,1
			c0,1.4,0.3,1.6,1.7,1.5l4.7-0.1c1,0,1.3-0.1,1.4-0.5l0-2.1L465.1,69z"/>
		<path fill="#FFFFFF" d="M503.1,78.8c0.1,8.7-0.6,21.6-5.7,29.9c-1.1-1.2-4.1-3.5-5.7-4.1c4.5-7.5,4.7-18.1,4.6-25.7l-0.2-14.4
			l53-0.7l0.1,6.1L503,70.4L503.1,78.8z M519.9,62.2l-20.5,0.3l-0.1-10.3l20.5-0.3L519.9,62.2z M547.3,81.2
			c-1.1,5.7-2.7,10.5-5.1,14.6c2.6,2.8,5.8,5.1,9.4,6.5c-1.5,1.4-3.5,4-4.4,5.8c-3.4-1.7-6.4-4.1-8.9-6.9c-2.5,2.8-5.6,5.1-9.2,7
			c-0.8-1.3-3-3.8-4.3-5l0.1,5l-6.1,0.1l-0.1-4.4c-5.8,0.8-11.4,1.5-15.9,2l-0.9-5.4l4.2-0.4l-0.2-16.2l-2,0l-0.1-4.7l8.2-0.1l0-2.3
			l-6.9,0.1l-0.1-4.5l20.6-0.3l0.1,4.5l-7.5,0.1l0,2.3l8.2-0.1l0.1,4.7l-2.1,0l0.1,3.7c3.4-4,5.6-10.2,6.5-16.6l6.3,1
			c-0.2,1.3-0.5,2.6-0.8,3.9l12.8-0.2l0.1,5.7L547.3,81.2z M512.9,55.7l-7.1,0.1l0,2.7l7.1-0.1L512.9,55.7z M511.9,83.8l0,2.6
			l6.6-0.1l0-2.6L511.9,83.8z M512,92.6l6.6-0.1l0-2.7l-6.6,0.1L512,92.6z M518.6,98.8l0-2.6l-6.6,0.1l0,3.3L518.6,98.8z
			 M544.9,61.8l-20.7,0.3l-0.1-10.3l20.7-0.3L544.9,61.8z M524.8,103.1c4-1.9,7.2-4.2,9.7-7.3c-1.2-2.1-2.3-4.3-3.3-6.7
			c-0.6,0.9-1.2,1.7-1.8,2.5c-1-1.1-3.4-3.3-4.8-4.2L524.8,103.1z M537.9,55.4l-7.3,0.1l0,2.7l7.3-0.1L537.9,55.4z M534.9,81.3
			l-0.4,0.9c0.9,2.7,2,5.4,3.4,7.8c1.2-2.6,2.1-5.5,2.6-8.8L534.9,81.3z"/>
		<path fill="#FFFFFF" d="M194.7,163.3l0.1,7.9c0,2.4-0.3,3.7-1.9,4.6c-1.5,0.9-3.5,0.9-6.3,1c-0.2-1.5-1-3.7-1.7-5
			c1.6,0,3.4,0,3.9,0c0.6-0.1,0.7-0.2,0.7-0.6l-0.1-7.8l-7.9,0.1l-0.1-9.9c-0.7,0.5-1.4,0.9-2.1,1.3c-0.3-0.7-1.2-1.9-1.9-2.9
			l0.2,17.2l-8.4,0.1l0.1,3.8l-4.9,0.1l-0.5-37.7l13.3-0.2l0.2,14.8c1.2-0.7,2.4-1.5,3.4-2.4c-0.9-1-1.9-2-2.9-2.8l3.2-2.4
			c0.9,0.6,1.8,1.4,2.6,2.2c0.7-0.9,1.3-1.8,1.8-2.8l-7.2,0.1l-0.1-4.4l9.1-0.1c0.5-1.5,0.9-3,1.2-4.7l5,0.6c-0.3,1.4-0.6,2.7-0.9,4
			l13.1-0.2l0.1,4.4l-7.9,0.1c0.7,1.1,1.4,2.2,2.4,3.2c0.8-1,1.6-2.1,2.2-3l3.8,2.1c-1.1,1.2-2.2,2.4-3.3,3.4c1.4,1.2,3,2.2,4.7,2.9
			c-1.2,1-2.7,2.9-3.4,4.2c-0.6-0.3-1.1-0.6-1.6-1l0.1,9.6L194.7,163.3z M168.8,140.3l0.1,4.9l3.5,0l-0.1-4.9L168.8,140.3z
			 M169,154.8l3.5,0l-0.1-4.9l-3.5,0L169,154.8z M172.6,164.4l-0.1-4.9l-3.5,0l0.1,4.9L172.6,164.4z M186.8,166
			c-1.6,3.7-4.3,7.4-6.9,9.7c-1-0.8-3-2.3-4.2-3c2.5-2,4.8-4.9,6.1-7.9L186.8,166z M197.1,151.6l-10.9,0.1l0,2.2l10.9-0.1
			L197.1,151.6z M186.4,159.6l10.9-0.1l0-2.2l-10.9,0.1L186.4,159.6z M190.9,141.9c-1,2.2-2.2,4.3-3.5,6.1l8.7-0.1
			c-1.4-1.8-2.6-3.9-3.7-6L190.9,141.9z M200.8,164.4c2.4,2.4,5.1,5.7,6.3,8.1l-4.3,2.5c-1.2-2.3-3.7-5.9-6.1-8.5L200.8,164.4z"/>
		<path fill="#FFFFFF" d="M255.2,167.9l-8,0.1l0.1,7.8l-5.3,0.1l-0.1-7.8l-8.7,0.1l-0.1-4.8l8.7-0.1l-0.1-4.2l-3.9,0.1
			c-0.5,1.4-1.1,2.6-1.8,3.7c-0.8-0.6-2.5-1.4-3.7-1.9l0.1,9.9c0,2.2-0.3,3.6-1.7,4.5c-1.5,0.8-3.4,1-6.3,1
			c-0.2-1.4-0.9-3.5-1.7-4.7c1.9,0.1,3.7,0,4.3,0s0.8-0.2,0.8-0.8l-0.1-6.8l-9.4,0.1c-0.4,4.4-1.4,9-3.6,12.4
			c-0.8-0.7-2.9-2-3.9-2.4c3.1-4.9,3.2-11.9,3.2-17.2l-0.1-7c-1-0.9-2.7-2.3-3.7-3c3.2-3.5,5.6-9,6.8-14.6l5,1
			c-0.3,1.1-0.6,2.3-0.9,3.4l4.3-0.1l0.7-0.2l3.2,1.9c-0.6,1.8-1.5,4-2.5,6l5.3-0.1l0,2.9c3.9-1.8,5.3-4.6,5.9-8l-5.3,0.1l-0.1-4.6
			l20.9-0.3c0,0,0,1.2-0.1,1.8c-0.1,7.5-0.5,10.8-1.5,12c-0.8,1-1.7,1.4-2.9,1.6c-1,0.2-2.9,0.2-4.8,0.2c-0.1-1.5-0.6-3.3-1.3-4.5
			c1.5,0.1,2.7,0.2,3.4,0.1c0.6,0,0.9-0.1,1.3-0.5c0.4-0.5,0.6-2.1,0.8-6l-5.5,0.1c-0.7,4.9-2.5,8.8-7.2,11.5l4.2,0.8
			c-0.2,1-0.3,2-0.6,3l2.3,0l-0.1-4.2l5.3-0.1l0.1,4.2l7.1-0.1l0.1,4.7l-7.1,0.1l0.1,4.2l8-0.1L255.2,167.9z M219.6,141
			c-0.5,1.2-1,2.4-1.6,3.5l4.1-0.1c0.5-1,0.9-2.3,1.3-3.5L219.6,141z M218.6,152l2.7,0l0-3.5l-2.7,0L218.6,152z M218.7,156.8
			c0,1,0,2,0,3.1l2.7,0l-0.1-3.9l-2.7,0L218.7,156.8z M224.9,152l2.7,0l0-3.5l-2.7,0L224.9,152z M227.7,159.8l-0.1-3.9l-2.7,0
			l0.1,3.9L227.7,159.8z M232.3,160c1.5-2.4,2.6-5.9,3.1-9.2c-0.3,0.1-0.7,0.3-1,0.5c-0.4-0.9-1.4-2.2-2.3-3.2L232.3,160z"/>
		<path fill="#FFFFFF" d="M301.7,135.6l0.1,4.7l-41.6,0.6l-0.1-4.7l18.1-0.2c-0.4-1.1-0.8-2.3-1.2-3.3l5.8-1.5
			c0.5,1.5,1.3,3.2,1.9,4.7L301.7,135.6z M301.1,170.1c0,2.4-0.6,3.4-2.3,4.2c-1.7,0.6-4.2,0.7-7.5,0.7c-0.3-1.2-1.1-2.8-1.7-3.9
			l-13.5,0.2l0,2l-5.2,0.1l-0.2-12.4l20.5-0.3l0.1,10.5l-0.7,0c1.6,0,3.3,0,3.8-0.1c0.7,0,0.9-0.2,0.9-0.8l-0.2-11.4l-28.1,0.4
			l0.2,16.5l-5.4,0.1l-0.3-21.1l39.2-0.5L301.1,170.1z M296.3,152.3l-29.7,0.4l-0.1-10.1l29.7-0.4L296.3,152.3z M290.4,146
			l-18.2,0.2l0,2.6l18.2-0.2L290.4,146z M286.4,164.5l-10.4,0.1l0,2.7l10.4-0.1L286.4,164.5z"/>
		<path fill="#FFFFFF" d="M307.8,170.4c1.6-2.7,3.3-6.7,4.3-10l5,2c-1.1,3.3-2.7,7.6-4.1,10.4L307.8,170.4z M328.2,158.1l-13.5,0.2
			l-0.3-23.1l10.8-0.1c0.5-1.6,0.9-3.3,1.2-4.6l6.8,0.8c-0.6,1.4-1.4,2.7-2,3.8l12.9-0.2l0.3,23.1l-13.6,0.2c2,1.9,4,4.3,5,6.2
			l-4.6,2.7c-1-2.1-3.5-5.2-5.7-7.4L328.2,158.1z M335,168.9c2.3,0,2.6-0.6,2.9-5.1c1.2,0.9,3.6,1.6,5.1,1.9
			c-0.6,6.6-2.2,8.2-7.5,8.3l-9,0.1c-6.6,0.1-8.4-1.4-8.4-6.5l-0.1-6.5l5.7-0.1l0.1,6.5c0,1.4,0.5,1.5,3.2,1.5L335,168.9z
			 M319.8,141.6l18.6-0.3l0-2.2l-18.6,0.3L319.8,141.6z M319.9,147.7l18.6-0.3l0-2.2l-18.6,0.3L319.9,147.7z M320,154l18.6-0.3
			l0-2.2l-18.6,0.3L320,154z M345.9,159.1c2.2,3.1,4.5,7.1,5.4,10l-5.3,2.3c-0.7-2.7-2.8-7-4.9-10.2L345.9,159.1z"/>
		<path fill="#FFFFFF" d="M398.4,137.2c0,0,0,1.9,0,2.5c-0.3,21.1-0.7,28.6-2.6,31.1c-1.3,1.8-2.6,2.3-4.5,2.7
			c-1.8,0.3-4.6,0.3-7.4,0.2c-0.1-1.6-0.9-3.9-1.9-5.4c3,0.2,5.8,0.2,7,0.2c0.9,0,1.5-0.2,2.1-0.8c1.3-1.5,1.9-8.6,2.2-25.2
			l-10.1,0.1c-1.2,2.8-2.6,5.5-4,7.5c-0.8-0.7-2.4-1.8-3.7-2.6l0.3,22l-12.6,0.2l0,3.4l-5.1,0.1l-0.5-35l5.3-0.1
			c0.6-2.4,1.1-5.4,1.3-7.6l6.1,0.8c-0.8,2.4-1.6,4.7-2.4,6.8l7.3-0.1l0.1,7.6c2.7-4,4.9-9.7,6.2-15.3l5.3,1.2c-0.4,2-1.1,4-1.8,6
			L398.4,137.2z M370.3,142.8l-7.5,0.1l0.1,7.6l7.5-0.1L370.3,142.8z M370.6,164.5l-0.1-9.2l-7.5,0.1l0.1,9.2L370.6,164.5z
			 M386.2,161.7c-1.4-2.8-4.3-7.4-6.7-10.8l4.3-2.6c2.4,3.2,5.6,7.7,7.1,10.4L386.2,161.7z"/>
		<path fill="#FFFFFF" d="M418.1,160.4c-0.5-1.3-1.4-3-2.2-4.9l0.2,18.2l-5.2,0.1l-0.2-15.5c-1.2,3.2-2.6,6.1-4.1,8.2
			c-0.6-1.6-1.9-4.1-2.8-5.5c2.4-3.1,4.7-8.2,6.2-12.7l-5.1,0.1l-0.1-5.2l5.7-0.1l-0.1-5.7c-1.4,0.3-2.8,0.6-4.1,0.8
			c-0.3-1.2-1-3-1.6-4.3c4.5-0.9,9.5-2.4,12.8-3.9l3.3,4.5c-1.6,0.7-3.3,1.3-5.2,1.7l0.1,6.9l5-0.1l0.1,5.2l-5,0.1l0,0.7
			c1,1.2,3.8,4.7,5,6.4c0.9-3.6,1.4-8,1.7-11.9l4.2,0.9c-0.3,5-1,11.5-2.3,15.3l-4.4-1.4c0.1-0.3,0.2-0.6,0.3-0.9L418.1,160.4z
			 M439.2,167.8c1.4,0,1.6-1.2,1.7-6.5c1.2,0.8,3.3,1.7,4.8,2.1c-0.5,7-1.9,9.3-6,9.4l-5.4,0.1c-4.1,0.1-5.7-1.1-6.1-4.7
			c-1.5,1.6-3.2,3-4.8,4.3c-1-1-3.3-2.9-4.6-3.8c3.5-2.4,6.4-5.4,9.1-8.7l-0.3-19.3l5.4-0.1l0.2,11.3c3-5.8,5.4-12.4,7.1-19.6
			l5.4,1.1c-1.2,4.7-2.7,9.2-4.2,13.3l2.8-0.8c1.8,4.3,3.5,9.8,4.2,13.5l-5.1,1.6c-0.5-3.1-1.8-7.5-3.1-11.4
			c-2,4.5-4.3,8.6-6.9,12.4l0,3.7c0,2,0.2,2.3,1.7,2.3L439.2,167.8z M435,140.2c-1.9-1.9-5.8-4.9-8.7-7l3.4-3.9
			c2.7,1.8,6.8,4.7,8.8,6.5L435,140.2z"/>
		<path fill="#FFFFFF" d="M472.1,156c-2.5,0-4.3-0.2-5.5-0.8c-3.7,1.7-7.4,3.1-11.1,4.2c-0.7-1.2-2.3-3.5-3.3-4.5
			c4.2-1,8.4-2.4,12.2-4.1l0-0.6l-0.1-8l5-0.1l0.1,6.2c5.2-2.8,9.6-6.1,12.7-10l4.7,2.2c-3.5,4.3-8,8-13.2,11l6.7-0.1
			c2.1,0,2.4-0.6,2.6-4.4c1.1,0.7,3.2,1.4,4.5,1.7c-0.5,5.6-1.9,7-6.6,7.1L472.1,156z M463.2,144.6c-1.4,3-3.3,6.4-5.9,8.6l-4.6-2.7
			c2.5-2,4.6-5.2,5.9-7.9L463.2,144.6z M459.6,142.5l-5.5,0.1l-0.1-9.9l17.3-0.2c-0.3-1.1-0.6-2.3-1-3.2l5.4-1
			c0.5,1.3,1.1,2.8,1.5,4.1l17.2-0.2l0.1,9.9l-5.7,0.1l-0.1-4.9l-18.1,0.2c2.5,1,5.3,2.3,6.8,3.5l-2.8,3.6c-1.7-1.4-5.3-3.3-8.2-4.4
			l2.1-2.7l-9.1,0.1L459.6,142.5z M485.6,158.4l5.6-0.1l0.2,14.1l-5.6,0.1l0-1.6l-27.6,0.4l-0.2-11.8l5.5-0.1l0.1,6.6l8-0.1
			l-0.1-8.9l5.7-0.1l0.1,8.9l8.3-0.1L485.6,158.4z M488.5,142.6c2.8,2.3,6.3,5.8,7.9,8.2l-4.2,3c-1.4-2.3-4.7-5.9-7.6-8.5
			L488.5,142.6z"/>
	</g>
</g>
<g>
</g>
<g>
</g>
<g>
</g>
<g>
</g>
<g>
</g>
<g>
</g>
<g>
</g>
<g>
</g>
<g>
</g>
<g>
</g>
<g>
</g>
<g>
</g>
<g>
</g>
<g>
</g>
<g>
</g>
</svg>
