<?xml version="1.0" encoding="utf-8"?>
<!-- Generator: Adobe Illustrator 18.0.0, SVG Export Plug-In . SVG Version: 6.00 Build 0)  -->
<!DOCTYPE svg PUBLIC "-//W3C//DTD SVG 1.1//EN" "http://www.w3.org/Graphics/SVG/1.1/DTD/svg11.dtd">
<svg version="1.1" id="Layer_1" xmlns="http://www.w3.org/2000/svg" xmlns:xlink="http://www.w3.org/1999/xlink" x="0px" y="0px"
	 viewBox="0 0 460.5 191.1" enable-background="new 0 0 460.5 191.1" xml:space="preserve">
<g>
	<path fill="#FFFFFF" d="M368.5,151.7c0,0,39.4,40.6,88.8,39.3c0,0-26.1-18.2-25.4-63.1L368.5,151.7z"/>
	<path fill="#FFFFFF" d="M400.5,161.5H60c-33,0-60-27-60-60V60C0,27,27,0,60,0h340.5c33,0,60,27,60,60v41.5
		C460.5,134.5,433.5,161.5,400.5,161.5z"/>
	<g>
		<path fill="#757679" d="M79.4,55.2v4.7h-5.8v30.3c0,3.4-1.7,5.2-4.9,5.2h-7.9l-1.1-4.7c2.5,0.2,5,0.3,7.3,0.3c1.1,0,1.7-0.7,1.7-2
			V59.8H37.5v-4.7H79.4z M61.7,83.6H47.1v3.7h-4.6V65.4h19.2V83.6z M57.1,79.3v-9.5h-9.9v9.5H57.1z"/>
		<path fill="#757679" d="M94.6,53.4v30.4c3.2-1.4,6.3-2.9,9.3-4.6l1.4,4.6c-5.3,3-11,5.6-17.2,7.8l-1.7-4.7
			c1.1-0.4,2.2-0.8,3.3-1.2V53.4H94.6z M111.5,70.3l-4.1,2.8c-2.2-3.9-5.3-8.4-9.1-13.2l4.1-2.6C106.3,62.4,109.3,66.7,111.5,70.3z
			 M103.6,95.2l-3.3-4c7.7-4.6,12.7-10.1,15.1-16.6c1.8-5.6,2.7-12.7,2.8-21.6h5c0,8.8-1,16.4-2.9,22.5l-0.6,1.7
			c3.6,4.6,6.6,9.2,9.2,13.6l-3.8,3.8c-1.9-4-4.4-8.3-7.5-12.8C114.6,87,109.9,91.4,103.6,95.2z"/>
		<path fill="#757679" d="M136.4,95.2l-1.1-4.7c1.2,0.2,2.3,0.3,3.4,0.3c0.8,0,1.3-0.6,1.3-1.6v-9.7c-1.5,0.6-3,1.1-4.5,1.5
			l-1.2-4.6c1.9-0.5,3.8-1,5.6-1.6v-9.4h-4.7v-4.6h4.7v-8h4.6v8h3.6V63c3.4-2.5,6.4-6,9-10.5l4.4,1c-0.3,0.6-0.7,1.2-1,1.8h10.3v3.3
			c-1.2,1.7-2.3,3.1-3.5,4.4h7.3v17.3h2.7v4.3h-13.4c-0.8,1.9-1.8,3.4-3,4.8c-2.2,2.6-6.2,4.6-11.9,6.1l-1.8-4.1
			c4.7-1.2,8.1-2.8,10.2-4.8c0.6-0.7,1.1-1.3,1.5-2h-10.5v-4.3h2.9V66l-0.8,0.7l-2.6-3v1.6h-3.6v7.6c1.4-0.7,2.7-1.3,4.1-2v4.7
			c-1.4,0.7-2.7,1.3-4.1,2v12.8c0,3.2-1.4,4.8-4.2,4.8H136.4z M165.3,59.1h-7.2c-1,1.3-2,2.6-3.1,3.7h6.9
			C163,61.7,164.2,60.5,165.3,59.1z M160.9,80.1c0.2-0.9,0.4-1.9,0.5-2.8l4.3,0.5c-0.1,0.8-0.2,1.6-0.4,2.4h5.1V66.7h-14.5v13.4
			H160.9z M159,77.9l-2.3-2.9c2.8-1.8,4.6-4.3,5.3-7.6l3.5,0.5c-0.3,1-0.6,2-0.9,2.8c2,1.2,3.7,2.6,5.2,4l-2.3,2.8
			c-1.2-1.4-2.6-2.6-4.3-3.8C162,75.5,160.6,76.8,159,77.9z M177.7,91.9l-2.5,3.9c-3.7-2.9-7.5-5.3-11.4-6.9l2.3-3.4
			C170.3,87.2,174.2,89.3,177.7,91.9z"/>
		<path fill="#757679" d="M194.5,70.9l-3.4,3.4c-1.8-2.1-4.4-4.3-7.8-6.7l3.4-3.3C189.7,66.5,192.3,68.7,194.5,70.9z M194.6,78.5
			c-1.9,5.9-4,11.5-6.4,16.7l-4.5-2c2.6-5.4,4.8-10.8,6.6-16.4L194.6,78.5z M195.8,59.7l-3.5,3.5c-1.9-2-4.5-4.3-7.9-6.6l3.4-3.3
			C190.9,55.3,193.6,57.5,195.8,59.7z M207.7,81.7c0.3-0.9,0.5-1.9,0.7-2.9h4.6c-0.1,1-0.3,2-0.6,2.9H226v4.1h-15.2
			c-0.8,1.5-1.8,2.9-2.9,4.1c-2.5,2.5-6.7,4.4-12.8,5.9l-1.9-4.4c5.1-1,8.7-2.5,11-4.4c0.4-0.4,0.8-0.8,1.2-1.2h-10.8v-4.1H207.7z
			 M212.8,52.9c-0.3,1-0.7,2-1.1,2.9h13v20.6c0,2.4-1.4,3.6-4.1,3.6h-2.2l-1-3.7l2,0.1c0.5,0,0.8-0.4,0.8-1.1V59.8h-19.2v20.3h-4.6
			V55.8h10.5c0.6-1.2,1-2.3,1.3-3.5L212.8,52.9z M218.7,63.3c-1.8,0.5-3.9,0.9-6.2,1.2v4h0.7c0.8-1.3,1.5-2.6,2-3.9l3.1,1.3
			c-0.5,0.9-1,1.8-1.6,2.6h2.1v3.3h-6.3c2,0.8,3.9,1.7,5.9,2.7l-2.1,3.2c-1.5-1.3-2.8-2.3-3.9-3.2V78h-3.9v-3.7
			c-1.6,1.6-3.3,3.1-5.1,4.3l-2-3.5c2.4-1,4.5-2.1,6.2-3.3h-5.9v-3.3h2.3c-0.4-0.7-0.7-1.4-1.1-2l3-1.2c0.6,1,1,2.1,1.4,3.3h1.1
			v-3.7c-1.7,0.1-3.5,0.1-5.4,0.1l-1.2-3.3c5.9,0,10.8-0.5,14.9-1.4L218.7,63.3z M226.6,92l-2.6,4c-4.2-2.4-8.5-4.4-12.9-5.8
			l2.3-3.4C218.2,88.3,222.6,90,226.6,92z"/>
		<path fill="#757679" d="M262.1,92.9l-1.2-4.5l3.5,0.2c1,0,1.6-0.6,1.6-1.7v-3.7h-10v12.5h-4.8V83.3h-10v9.1h-4.8V79h14.8v-2.7
			h-2.3l-1-3.6l2.1,0.2c0.7,0,1-0.4,1-1.3v-1.3l-2.9,0.8c-0.4-2.3-0.9-4.4-1.4-6.5l2.6-0.9c0.7,1.9,1.3,4,1.8,6.3v-7.4h-4.6v13.1
			h-3.6V62.7h-4.8v13.6h-3.9V58.9h3.8c-0.8-1.6-1.8-3-2.7-4.2l3.4-1.7c0.9,1.4,1.9,2.9,2.7,4.7l-2.4,1.2h3.8v-6.1h4v6.1h3.7
			l-2.4-1.3c1.1-1.6,2-3.1,2.6-4.6l3.5,1.7c-0.7,1.4-1.5,2.8-2.6,4.1h3.3v4.5c2.8-3,4.6-6.5,5.6-10.5l4.4,0.6
			c-0.3,1.3-0.7,2.5-1.1,3.6h10v4.1h-1.8c-1,3.3-2.3,6.1-4,8.5c2,1.4,4.4,2.6,7,3.7l-2.3,3.9c-2.9-1.4-5.5-2.9-7.6-4.6
			c-2.1,1.9-4.6,3.3-7.4,4.2l-2.2-3.7c2.5-0.7,4.6-1.9,6.5-3.3c-1-1-1.9-2-2.6-3l2-3.1c1,1.2,2.1,2.3,3.3,3.3c1.3-1.8,2.3-3.8,3-6
			h-5.8c-1.3,2.2-2.8,4.2-4.6,6l-2.3-3.1v8.5c0,1.8-0.7,3-1.9,3.5h3v3h14.8v9c0,3.3-1.6,4.9-4.8,4.9H262.1z M242.2,64.7
			c-0.2,3-0.6,5.7-1.2,8.1l-3.1-1c0.7-2.1,1.2-4.6,1.3-7.4L242.2,64.7z"/>
		<path fill="#757679" d="M317.7,67.8v21h-8.1c4.5,0.8,8.8,1.9,12.9,3.2l-1.6,3.9c-4.7-1.9-9.7-3.3-14.8-4.2l1.5-2.9h-11l1.9,2.5
			c-3.3,2-8.2,3.5-14.4,4.7l-2.2-3.8c5.4-0.9,9.7-2,12.8-3.4h-7.9v-21H317.7z M320.2,54.1V66h-36V54.1H320.2z M294.8,58h-5.9v4.1
			h5.9V58z M313,73.7v-2.2h-21.5v2.2H313z M313,79.3v-2.2h-21.5v2.2H313z M313,82.7h-21.5v2.3H313V82.7z M305.4,58h-6.2v4.1h6.2V58z
			 M315.6,58h-5.9v4.1h5.9V58z"/>
		<path fill="#757679" d="M346.3,64v3.8c-2.2,10.3-6.9,18.1-13.9,23.4l-3.1-4c5.9-4.4,10-10.6,12.2-18.6h-10.6V64H346.3z
			 M370.3,62.6c-3.5,4.3-7.2,7.9-10.9,10.9c3.6,5.6,8.1,10.2,13.6,13.8l-3,4.5c-7.2-6-12.6-12.5-16-19.6v18.1c0,3.4-1.6,5.2-4.7,5.2
			H343l-1.1-4.7c2,0.2,3.8,0.3,5.6,0.3c1,0,1.5-0.7,1.5-2V52.6h4.9v9.7c0.9,2.7,2,5.2,3.3,7.5c3.4-3,6.5-6.3,9.2-10.1L370.3,62.6z"
			/>
		<path fill="#757679" d="M416.1,54.1v19.1h-13.8v3.1h18.3v4.5h-14.5c3.3,3.6,8.4,6.8,15.5,9.7l-3.3,4.2c-7.4-4.1-12.7-8.6-16-13.6
			v14.4h-4.9V81.2c-3.5,5.4-9,9.9-16.4,13.6l-2.8-4.5c6.9-2.5,12-5.7,15.3-9.4h-14.4v-4.5h18.3v-3.1h-13.8V54.1H416.1z M397.4,61.7
			v-3.3h-9v3.3H397.4z M397.4,65.9h-9v3.2h9V65.9z M402.3,61.7h8.9v-3.3h-8.9V61.7z M411.2,65.9h-8.9v3.2h8.9V65.9z"/>
	</g>
	<linearGradient id="SVGID_1_" gradientUnits="userSpaceOnUse" x1="39.6725" y1="104.3073" x2="374.5746" y2="104.3073">
		<stop  offset="0" style="stop-color:#B3B5B8"/>
		<stop  offset="1" style="stop-color:#A9ABAE"/>
	</linearGradient>
	<path fill="url(#SVGID_1_)" d="M39.7,102.9c111.7-1.6,223.4,0.5,334.8,6.3c0,0,0.1-2.9,0-2.9c-111.5-5.8-223.2-8-334.8-6.3
		C39.6,99.9,39.7,102.9,39.7,102.9L39.7,102.9z"/>
</g>
<g>
</g>
<g>
</g>
<g>
</g>
<g>
</g>
<g>
</g>
<g>
</g>
<g>
</g>
<g>
</g>
<g>
</g>
<g>
</g>
<g>
</g>
<g>
</g>
<g>
</g>
<g>
</g>
<g>
</g>
</svg>
