<?xml version="1.0" encoding="utf-8"?>
<!-- Generator: Adobe Illustrator 18.0.0, SVG Export Plug-In . SVG Version: 6.00 Build 0)  -->
<!DOCTYPE svg PUBLIC "-//W3C//DTD SVG 1.1//EN" "http://www.w3.org/Graphics/SVG/1.1/DTD/svg11.dtd">
<svg version="1.1" id="Layer_1" xmlns="http://www.w3.org/2000/svg" xmlns:xlink="http://www.w3.org/1999/xlink" x="0px" y="0px"
	 viewBox="0 0 883.4 883.3" enable-background="new 0 0 883.4 883.3" xml:space="preserve">
<g>
	<path fill="#A7A9AC" d="M805.6,471.5c0,0,1-0.8,3-2.4c1-0.7,2.2-1.7,3.6-2.9c1.4-1.1,2.9-2.5,4.7-4c3.4-3.1,7.5-6.9,11.7-11.6
		c1-1.2,2.1-2.4,3.2-3.7c1.1-1.3,2.2-2.6,3.3-4c0.6-0.7,1.1-1.4,1.7-2.1c0.6-0.7,1.2-1.3,1.9-2c1.3-1.3,2.5-2.8,3.7-4.2
		c4.9-6,9.8-12.7,14.2-20.4c4.4-7.6,8.4-16.1,11.4-25.2c3.1-9.1,5.2-18.8,6.1-28.8c0.4-5,0.5-10,0.1-15l0-0.4l0-0.5l-0.1-1l-0.2-2
		c-0.1-1.3-0.3-2.6-0.5-3.8c-0.3-2.5-0.8-5-1.3-7.5c-1.1-5-2.5-9.9-4.1-14.7c-1.7-4.8-3.8-9.4-6-13.9c-2.3-4.5-4.9-8.7-7.7-12.8
		c-2.8-4-5.9-7.8-9-11.4c-6.4-7.1-13.5-13.2-20.6-18.3c-7.2-5.1-14.5-9.1-21.5-12.4c-0.9-0.4-1.7-0.8-2.6-1.2
		c-0.4-0.2-0.9-0.4-1.3-0.6c-0.4-0.2-0.9-0.3-1.3-0.5c-1.7-0.6-3.4-1.2-5-2.1c-1.6-0.8-3.2-1.5-4.7-2.2c-1.5-0.7-3-1.3-4.5-2
		c-2.9-1.3-5.7-2.3-8.3-3.3c-2.6-1-5-1.8-7.2-2.5c-2.2-0.7-4.2-1.3-5.9-1.8c-1.7-0.6-3.2-0.9-4.4-1.3c-2.4-0.7-3.7-1.1-3.7-1.1
		s1.3,0,3.8,0.1c1.2,0.1,2.8,0.1,4.6,0.2c1.8,0.1,3.9,0.3,6.2,0.5c2.3,0.3,4.9,0.6,7.7,1c1.4,0.2,2.9,0.5,4.4,0.7
		c1.5,0.2,3.1,0.6,4.7,0.9c1.6,0.4,3.3,0.7,5,1.1c1.7,0.4,3.5,0.9,5.3,1.3c1.8,0.5,3.5,1.3,5.3,2.1c1.8,0.8,3.6,1.6,5.5,2.5
		c7.4,3.4,15.2,7.8,22.9,13.2c7.7,5.4,15.2,12,22.1,19.6c3.4,3.9,6.7,7.9,9.7,12.3c3,4.4,5.8,8.9,8.3,13.8c2.4,4.8,4.7,9.8,6.5,15
		c1.8,5.2,3.3,10.5,4.5,15.8c0.5,2.7,1.1,5.4,1.4,8.2c0.2,1.4,0.4,2.8,0.5,4.1l0.2,2l0.1,1l0,0.5l0,0.4l0,0.3
		c0.4,5.5,0.3,11-0.1,16.4c-0.9,10.8-3.2,21.2-6.5,30.9c-3.3,9.7-7.5,18.7-12.2,26.8c-4.7,8.1-9.9,15.4-15,21.7
		c-2.7,3.1-5,6.3-7.9,8.7c-1.4,1.2-2.8,2.4-4.2,3.5c-1.4,1.1-2.7,2.2-4.1,3.1c-5.3,4-10.3,7-14.3,9.3c-1,0.6-2,1.1-2.9,1.6
		c-0.9,0.5-1.8,0.9-2.6,1.3c-1.6,0.8-3,1.5-4.2,2C806.8,471,805.6,471.5,805.6,471.5z"/>
</g>
<g>
	<path fill="#A7A9AC" d="M472.5,826c0,0,1.7,0.6,5,1.7c3.2,1.1,8,2.6,14.2,4.3c6.1,1.7,13.6,3.5,22.3,5.4c4.3,0.9,8.9,1.8,13.8,2.7
		c2.4,0.4,4.9,0.8,7.5,1.2c2.6,0.4,5.2,0.8,7.8,1.4c5.3,1.1,10.8,2,16.6,2.8c5.8,0.8,11.7,1.4,17.8,1.8c6.1,0.4,12.4,0.5,18.7,0.2
		c0.8,0,1.5-0.1,2.3-0.1c0.8-0.1,1.6-0.1,2.5-0.2c0.8-0.1,1.7-0.1,2.5-0.2c0.8-0.1,1.6-0.2,2.4-0.3c1.6-0.2,3.2-0.4,4.9-0.6
		c1.6-0.2,3.3-0.5,4.9-0.8c13.2-2.2,26.6-5.8,39.7-11c13.1-5.1,25.8-11.7,37.7-19.6c11.9-7.9,22.9-17,32.7-27.1
		c9.8-10.1,18.2-21.1,25.2-32.5c7-11.4,12.4-23.2,16.4-34.7c2-5.8,3.7-11.5,5-17.1c1.3-5.6,2.4-11.1,3.1-16.4
		c0.2-1.3,0.4-2.6,0.5-3.9c0.1-1.3,0.3-2.6,0.4-3.9c0.1-1.3,0.2-2.5,0.3-3.8c0.1-1.2,0.1-2.5,0.2-3.7c0.6-4.8,1.1-9.5,1.4-13.8
		c0.1-2.2,0.2-4.3,0.3-6.4c0-2.1,0.1-4,0.1-5.9c0-1.9,0-3.7,0-5.5c0-1.8-0.1-3.4-0.1-5c-0.3-6.3-0.6-11.4-0.9-14.8
		c-0.3-3.4-0.5-5.2-0.5-5.2s0.5,1.8,1.5,5.1c0.9,3.3,2.2,8.2,3.5,14.5c1.3,6.3,2.6,14.1,3.3,23.1c0.3,4.5,0.7,9.4,0.6,14.5
		c0,2.6-0.5,5.1-0.7,7.8c-0.1,1.3-0.3,2.7-0.5,4c-0.2,1.4-0.3,2.7-0.5,4.1c-0.8,5.5-1.9,11.3-3.3,17.2c-1.4,5.9-3.1,11.9-5.2,17.9
		c-4.2,12.1-9.9,24.5-17.2,36.4c-7.3,12-16.2,23.5-26.4,34C722,804.4,710.4,814,698,822.2c-12.4,8.2-25.7,15.1-39.4,20.5
		c-13.7,5.4-27.7,9.2-41.5,11.5c-1.7,0.3-3.4,0.6-5.2,0.8c-1.7,0.2-3.4,0.5-5.2,0.7c-0.9,0.1-1.7,0.2-2.6,0.3
		c-0.8,0.1-1.7,0.1-2.5,0.2c-0.8,0.1-1.7,0.1-2.5,0.2c-0.9,0.1-1.7,0.1-2.6,0.2c-6.8,0.3-13.4,0.2-19.8-0.2
		c-6.4-0.4-12.6-1.1-18.5-1.9c-5.9-0.8-11.6-1.8-17.1-2.7c-2.7-0.4-5.4-1-7.9-1.8c-2.6-0.7-5-1.4-7.5-2.2c-4.8-1.5-9.4-2.9-13.6-4.4
		c-4.2-1.5-8.2-2.9-11.8-4.4c-3.6-1.4-6.9-2.8-9.8-4.1c-5.9-2.6-10.4-4.8-13.5-6.4c-1.5-0.8-2.7-1.4-3.5-1.8
		C472.9,826.2,472.5,826,472.5,826z"/>
</g>
<g>
	<path fill="#FFFFFF" d="M878.9,348.4c-4-53.6-42.4-96.4-92.1-108.4c-24-105.2-121.8-179.9-232.6-171.6
		c-24.7,1.8-48.2,7.7-69.8,16.9C467.6,32.4,416.3-3.9,358.6,0.3c-38.9,2.9-72.1,23.6-92.4,53.6c-11.9-1.7-24.1-2.2-36.6-1.3
		C137.9,59.4,69.1,139.3,76,231c2.4,31.9,13.6,61,31.1,85.2C38.1,356.1-5.7,433.1,0.6,517.8c5.6,74.9,48.9,137.9,110,171.8
		c13,85.1,89.6,147.1,176.8,140.6c8.1-0.6,16.1-1.8,23.9-3.5c23,36.6,65,59.6,111.2,56.2c35.5-2.6,66.3-20.4,86.5-46.5
		c28.5,12.7,60.5,18.7,93.7,16.2c105.2-7.8,184.8-97.5,181-202.1c40.1-32.1,64.2-82.8,60.1-137.9c-1.5-20.4-6.8-39.6-15.1-57.1
		C861.9,431.9,882.2,392,878.9,348.4z"/>
	<g>
		<path fill="#FFFFFF" d="M738.5,543.8c-13.2-24.7-16.5-27.5-35.6-43.4c-60.2-50.3-163.3-52-217.7,34"/>
		<path fill="#A7A9AC" d="M738.5,543.8c0,0-0.7-1-1.9-2.9c-0.6-0.9-1.4-2.1-2.3-3.4c-0.9-1.4-2-2.9-3.1-4.6
			c-2.4-3.4-5.3-7.6-9.1-11.8c-1.9-2.1-4-4.2-6.5-6.3c-2.4-2.1-5.1-4.2-7.9-6.4c-2.8-2.2-5.8-4.5-8.8-6.8c-0.8-0.6-1.5-1.2-2.3-1.7
			c-0.8-0.6-1.5-1.1-2.3-1.7c-1.6-1.1-3.2-2.2-4.9-3.3c-6.7-4.4-14.2-8.4-22.2-11.9c-8-3.5-16.6-6.4-25.5-8.6
			c-8.9-2.2-18.2-3.6-27.4-4.1c-9.3-0.5-18.6-0.2-27.7,1.1c-9.1,1.2-17.9,3.3-26.2,6.1c-8.3,2.8-16.1,6.3-23.1,10.2
			c-7,3.9-13.4,8.2-19,12.5c-5.5,4.4-10.4,8.7-14.5,12.9c-4.1,4.1-7.5,7.9-10.2,11.1c-2.7,3.2-4.7,5.8-6.1,7.6
			c-1.4,1.8-2.1,2.8-2.1,2.8s0.6-1.1,1.7-3c0.5-1,1.3-2.2,2.1-3.6c0.8-1.4,1.9-3,3-4.8c2.4-3.5,5.3-7.7,9.1-12.3
			c3.8-4.5,8.3-9.5,13.7-14.4c2.7-2.5,5.6-4.9,8.8-7.3c1.6-1.2,3.2-2.4,4.9-3.6c1.7-1.1,3.4-2.3,5.2-3.4c7.1-4.5,15.1-8.6,23.8-11.9
			c8.6-3.3,17.9-5.8,27.6-7.3c9.6-1.5,19.5-2,29.4-1.5c9.9,0.5,19.7,2,29.1,4.4c9.4,2.4,18.5,5.6,26.8,9.5c8.4,3.9,16.1,8.5,23,13.3
			c1.7,1.2,3.4,2.5,5,3.7c0.8,0.6,1.6,1.3,2.4,1.9c0.8,0.6,1.6,1.3,2.3,1.9c0.7,0.6,1.5,1.3,2.2,1.9c0.7,0.6,1.4,1.3,2.1,1.9
			c1.4,1.3,2.8,2.5,4.1,3.7c5.3,4.9,10.1,9.8,13.7,14.7c3.5,4.9,5.9,9.5,7.8,13.3c1.9,3.8,3.2,6.8,4.1,8.9
			C738,542.6,738.5,543.8,738.5,543.8z"/>
	</g>
	<g>
		<path fill="#FFFFFF" d="M404.2,786.8c31.9,14,70.5,8.4,97.2-17.3c18.9-18.2,28-42.6,27.2-66.9"/>
		<path fill="#A7A9AC" d="M404.2,786.8c0,0,0.7,0.1,2.1,0.3c0.7,0.1,1.5,0.2,2.4,0.4c1,0.1,2.1,0.4,3.3,0.5c2.5,0.2,5.3,0.6,8.7,0.6
			c0.8,0,1.7,0.1,2.6,0.1c0.9,0,1.8,0,2.7-0.1c0.9,0,1.8,0.1,2.8,0.4c0.9,0.3,1.9,0.3,2.9,0.4c2,0.1,4,0.4,6.2,0.4
			c1.1,0,2.2,0,3.3,0c1.1,0.1,2.2-0.1,3.4-0.1c1.1-0.1,2.3-0.1,3.5-0.2c1.2-0.2,2.3-0.3,3.5-0.5c2.4-0.2,4.8-0.8,7.2-1.3
			c1.2-0.2,2.4-0.6,3.6-0.9c1.2-0.3,2.4-0.7,3.7-1c1.2-0.4,2.4-0.9,3.6-1.3l1.8-0.7c0.6-0.2,1.2-0.5,1.8-0.8
			c1.2-0.5,2.4-1.1,3.6-1.6c1.2-0.5,2.3-1.2,3.5-1.9l1.7-1l0.9-0.5l0.8-0.5l3.3-2.2c1.1-0.7,2.2-1.5,3.2-2.3
			c1.1-0.8,2.1-1.6,3.2-2.4c1-0.9,2-1.8,3-2.6l1.5-1.3l0.4-0.3c0.1-0.1-0.1,0.1,0,0l0,0l0.1-0.1l0.2-0.2l0.7-0.7l1.4-1.5
			c0.5-0.5,1-1,1.4-1.4c0.8-0.9,1.7-1.9,2.5-2.8c0.8-1,1.6-2,2.4-3c0.8-1,1.5-2,2.2-3c2.8-4.1,5.2-8.3,7.1-12.4
			c1.9-4.2,3.4-8.2,4.5-12c0.3-1,0.5-1.9,0.7-2.8c0.1-0.5,0.2-0.9,0.3-1.4c0.1-0.4,0.3-0.9,0.5-1.3c0.7-1.7,1.4-3.3,1.9-4.9
			c0.3-0.8,0.5-1.6,0.8-2.3c0.3-0.7,0.4-1.5,0.7-2.2c0.4-1.4,0.9-2.7,1.1-3.9c0.3-1.2,0.6-2.3,0.8-3.2c0.2-0.9,0.4-1.7,0.5-2.4
			c0.3-1.3,0.5-2,0.5-2s0.2,0.7,0.5,2c0.2,0.7,0.3,1.5,0.6,2.4c0.2,1,0.4,2.1,0.6,3.3c0.2,1.3,0.3,2.7,0.5,4.2
			c0.2,1.5,0.2,3.2,0.3,5c0.1,1.8,0,3.7-0.1,5.8c0,1-0.3,2-0.6,3c-0.3,1-0.5,2.1-0.9,3.1c-1.2,4.2-2.9,8.7-5,13.3
			c-2.1,4.6-4.8,9.2-7.9,13.8c-0.8,1.1-1.6,2.3-2.4,3.4c-0.9,1.1-1.7,2.2-2.6,3.3c-1,1.1-1.9,2.2-2.9,3.3c-0.5,0.6-1,1-1.4,1.5
			l-1.4,1.5l-0.7,0.7l-0.5,0.5l-0.4,0.4l-1.6,1.5c-1.1,1-2.2,1.9-3.3,2.9c-1.2,0.9-2.3,1.8-3.5,2.7c-1.2,0.9-2.3,1.8-3.6,2.6
			l-3.7,2.4l-0.9,0.6l-1,0.5l-1.9,1.1c-1.3,0.7-2.5,1.5-3.9,2c-1.3,0.6-2.7,1.2-4,1.8c-0.7,0.3-1.3,0.6-2,0.9l-2,0.7
			c-1.3,0.5-2.7,1-4,1.5c-1.4,0.4-2.7,0.8-4.1,1.2c-1.3,0.4-2.7,0.8-4,1c-2.7,0.6-5.3,1.2-8,1.4c-1.3,0.2-2.6,0.3-3.9,0.5
			c-1.3,0.1-2.6,0.2-3.8,0.2c-1.3,0-2.5,0.2-3.7,0.2c-1.2,0-2.4,0-3.6,0c-2.4,0-4.7-0.3-6.9-0.4c-1.1-0.1-2.2-0.2-3.2-0.3
			c-1.1-0.1-2.1-0.2-3-0.6c-1-0.3-1.9-0.6-2.8-1c-0.9-0.4-1.7-0.7-2.6-1.1c-0.8-0.4-1.6-0.7-2.4-1c-0.8-0.3-1.5-0.7-2.2-1.1
			c-1.4-0.7-2.6-1.4-3.7-2.1c-1.1-0.6-2-1.2-2.8-1.8c-0.8-0.6-1.5-1-2-1.4C404.8,787.2,404.2,786.8,404.2,786.8z"/>
	</g>
</g>
<g>
</g>
<g>
</g>
<g>
</g>
<g>
</g>
<g>
</g>
<g>
</g>
<g>
</g>
<g>
</g>
<g>
</g>
<g>
</g>
<g>
</g>
<g>
</g>
<g>
</g>
<g>
</g>
<g>
</g>
</svg>
