<?xml version="1.0" encoding="utf-8"?>
<!-- Generator: Adobe Illustrator 18.0.0, SVG Export Plug-In . SVG Version: 6.00 Build 0)  -->
<!DOCTYPE svg PUBLIC "-//W3C//DTD SVG 1.1//EN" "http://www.w3.org/Graphics/SVG/1.1/DTD/svg11.dtd">
<svg version="1.1" id="Layer_1" xmlns="http://www.w3.org/2000/svg" xmlns:xlink="http://www.w3.org/1999/xlink" x="0px" y="0px"
	 viewBox="0 0 160.5 136.8" enable-background="new 0 0 160.5 136.8" xml:space="preserve">
<g>
	<path fill="#97BB8C" d="M0.9,61.7c1,4.8,4.2,8.7,8.7,10.6l12.8,5.3l-9.7,9.9c-3.4,3.5-4.9,8.4-3.9,13.2l0,0
		c4.9,24.2,28.7,40,52.9,35.2l39-7.9c13.9-2.8,25.1-11.9,31.1-23.7l0,0l24.5-36.1c7.6-11.2,4.5-26.4-6.8-33.8l-36.6-23.7l0,0
		C102.8,2.1,89-1.9,75.1,0.9L36,8.8C11.8,13.7-4,37.5,0.9,61.7z"/>
	<path fill="#78B18C" d="M57.6,27.3c-4.1,13.5-6.8,27.2-8,41.2c-5.7,1.2-11.3,2.5-17,3.6c-4.2,0.9-0.8,9.6,2.7,8.9
		c2.8-0.6,5.6-1.2,8.4-1.8c0.2,0.9,0.6,1.7,0.8,2.1c4.3,8.4,9.4,16.4,15,24c1.1,1.4,2.4,1.9,3.3,0.3c0.9-1.7-1.3-4.9-2.2-6.1
		c-4.7-6.3-8.8-13-12.4-19.9c-0.1-0.3-0.4-0.7-0.6-1.1c7-1.5,14-3.1,21-4.7c0.1,0.1,0.1,0.2,0.2,0.3c7.7,10,15.7,19.6,24.1,29
		c1.3,1.5,3.2,1.6,4.2-0.2c1.1-1.9-0.8-4.9-2-6.3c-7.1-7.9-13.8-16-20.3-24.3c6.3-1.5,12.6-3.1,18.9-4.7c0.2,0.5,0.5,0.9,0.8,1.4
		c6.1,7.7,12.5,15,19.5,21.9c1.3,1.3,3.4,1.7,4.3-0.2c0.9-2-0.6-4.9-2-6.3c-5.8-5.8-11.3-11.9-16.5-18.3c5.8-1.5,11.5-3.1,17.3-4.7
		c3.5-1-0.4-9.6-4.2-8.5c-8.5,2.4-17,4.6-25.5,6.8c2.4-8.7,4.7-17.4,7.1-26.1c1.1-4.2-5.7-9.5-7.3-3.9c-2.9,10.7-5.8,21.5-8.7,32.2
		c-7,1.7-14.1,3.4-21.1,5c1.3-11.4,3.5-22.6,6.9-33.6C65.4,29.3,59.1,22.4,57.6,27.3z"/>
</g>
<g>
</g>
<g>
</g>
<g>
</g>
<g>
</g>
<g>
</g>
<g>
</g>
<g>
</g>
<g>
</g>
<g>
</g>
<g>
</g>
<g>
</g>
<g>
</g>
<g>
</g>
<g>
</g>
<g>
</g>
</svg>
