<?xml version="1.0" encoding="utf-8"?>
<!-- Generator: Adobe Illustrator 18.0.0, SVG Export Plug-In . SVG Version: 6.00 Build 0)  -->
<!DOCTYPE svg PUBLIC "-//W3C//DTD SVG 1.1//EN" "http://www.w3.org/Graphics/SVG/1.1/DTD/svg11.dtd">
<svg version="1.1" id="Layer_1" xmlns="http://www.w3.org/2000/svg" xmlns:xlink="http://www.w3.org/1999/xlink" x="0px" y="0px"
	 viewBox="0 0 815.1 429.7" enable-background="new 0 0 815.1 429.7" xml:space="preserve">
<path opacity="0.88" fill="#FFFFFF" d="M758.1,429.7h-701C25.5,429.7,0,404.1,0,372.6V57.1C0,25.5,25.5,0,57.1,0h701
	c31.5,0,57.1,25.5,57.1,57.1v315.6C815.1,404.1,789.6,429.7,758.1,429.7z"/>
<g>
	<path fill="#58595B" d="M116.5,70.5L115,72c-1.2-1.9-3-4-5.1-6.2l1.5-1.4C113.4,66.5,115.1,68.5,116.5,70.5z M116.4,75.9
		c-1.3,5.3-2.8,10.2-4.4,14.9l-1.9-0.8c1.7-4.8,3.2-9.8,4.6-14.8L116.4,75.9z M117.3,60.6l-1.5,1.5c-1.3-1.9-3.1-3.9-5.3-6.1
		l1.5-1.4C114.1,56.6,115.9,58.6,117.3,60.6z M122.8,58.3v-4.1h2v4.1h5.1v1.9h-5.1v4h4v14.2h-4v4.4h5v1.9h-5v6.6h-2v-6.6h-5.5v-1.9
		h5.5v-4.4h-4V64.3h4v-4h-5v-1.9H122.8z M126.9,70.5v-4.5h-6.1v4.5H126.9z M126.9,72.3h-6.1v4.4h6.1V72.3z M139.4,54
		c1.5,3.4,4.1,6.4,7.9,9l-1.1,1.8c-3.4-2.4-6-5.3-7.8-8.8c-2.1,3.8-4.7,6.8-7.8,8.8l-1.1-1.8c3.4-2.3,6-5.3,7.8-9H139.4z
		 M131.5,89.2l2.1,0.1c1,0,1.6-0.6,1.6-1.8v-6.1c-1.3,1.7-2.8,3.2-4.4,4.6l-0.8-1.8c2-1.6,3.7-3.4,5.2-5.5V67.9h-4.4V66h6.2v22.1
		c0,1.9-1,2.9-3,2.9H132L131.5,89.2z M133.9,77.3l-1.4,0.7c-0.6-2.6-1.3-4.9-2-6.9l1.4-0.5C132.6,72.6,133.3,74.9,133.9,77.3z
		 M139.7,89.2l2.4,0.1c0.9,0,1.3-0.6,1.3-1.7v-6.9c-1.5,1.7-3.1,3.3-5,4.7l-0.8-1.8c2.2-1.5,4.1-3.3,5.8-5.5V67.9h-4.6V66h6.6v22.2
		c0,1.9-1,2.9-2.9,2.9h-2.3L139.7,89.2z M142,77l-1.4,0.7c-0.6-2.7-1.2-5-2-7.1l1.4-0.5C140.7,72.3,141.4,74.6,142,77z"/>
	<path fill="#58595B" d="M190.7,55.8v2.1h-11.5v8h9.2v13.5h-9.2v8.4h12.1v2.1h-36v-2.1h12v-8.4h-9.1V65.8h9.1v-7.9h-11.5v-2.1H190.7
		z M177,77.2h9.2V68H177V57.9h-7.6v10.1h-9.1v9.3h9.1v10.5h7.5V77.2z"/>
	<path fill="#58595B" d="M200.8,90.8l-0.5-2.1c1.1,0.1,2.2,0.2,3.2,0.2c1.2,0,1.8-0.7,1.8-1.9V76c-1.8,0.7-3.7,1.4-5.5,2.1l-0.6-2.2
		c2.1-0.6,4.1-1.3,6.1-2.1v-9.9h-5.3v-2.2h5.3v-7.7h2.2v7.7h5v2.2h-5v9c1.6-0.8,3.2-1.7,4.8-2.6v2.2c-1.6,0.9-3.2,1.8-4.8,2.5v12.5
		c0,2.2-1.1,3.3-3.3,3.3H200.8z M233.4,71.7v2.1c-1.4,4-3.6,7.5-6.6,10.3c2.8,2.1,6.4,3.9,10.5,5.4l-1.2,1.9c-4.4-1.7-8-3.7-10.9-6
		c-3.2,2.5-7.2,4.5-12,6l-1.2-1.8c4.6-1.4,8.4-3.3,11.4-5.6c-3.3-3-5.5-6.3-6.6-10.1h-2.7v-2.2H233.4z M230.6,55.7v9.1
		c0,1,0.6,1.6,1.7,1.6h3.7v2.1h-4.1c-2.3,0-3.4-1.1-3.4-3.3v-7.3h-8.7v2.7c0,3.8-1.9,6.7-5.6,8.8l-1.5-1.7c3.3-1.6,4.9-3.9,4.9-6.9
		v-5.1H230.6z M224.9,82.7c2.8-2.5,4.9-5.5,6.2-8.8h-12.4C219.9,77.2,221.9,80.1,224.9,82.7z"/>
	<path fill="#58595B" d="M256.8,63.9v1.9h-11.7v-1.9H256.8z M259.6,87.3c-3.1,1.7-7.5,3.1-13.3,4.1l-1-1.8c5.8-1,10.2-2.3,13.2-3.9
		L259.6,87.3z M255.9,56.5v2H246v-2H255.9z M276.2,69.5v15.7h-26V69.5H276.2z M274,74.2v-3h-21.7v3H274z M274,78.7v-2.8h-21.7v2.8
		H274z M274,80.3h-21.7v3H274V80.3z M258.3,62.9l-1.2-1.6c3-2.1,5.1-4.6,6.2-7.5l2.1,0.2c-0.3,0.8-0.7,1.6-1,2.3h15V58
		c-1.1,2.1-2.3,3.9-3.7,5.5l-1.6-1.2c1-1.1,2-2.5,2.8-3.9h-13.8C261.8,60.1,260.2,61.6,258.3,62.9z M270.3,59.7
		c-0.2,0.7-0.4,1.3-0.7,1.9c3,3.2,6.9,5.2,11.7,5.8l-0.9,1.9c-4.7-0.7-8.5-2.8-11.7-6.2c-1.9,2.9-5.1,4.8-9.7,5.7l-1.1-1.6
		c5.8-1.1,9.3-3.7,10.4-8L270.3,59.7z M281.1,89.7l-0.7,1.8c-4.4-1.7-8.9-3-13.7-4l0.8-1.6C272.2,86.8,276.7,88.1,281.1,89.7z"/>
	<path fill="#58595B" d="M310.4,75.6v2.1h-20.7v-2.1H310.4z"/>
	<path fill="#58595B" d="M338.4,75.2c-0.2,1.2-0.5,2.3-0.8,3.4h16.1v2.1h-17c-0.9,2-2.2,3.7-3.8,5.1c-2.7,2.4-7.3,4.3-14,5.7
		l-0.9-2.1c6.1-1.1,10.4-2.8,13.1-5c1.2-1.1,2.3-2.3,3.1-3.7H320v-2.1h15.3c0.4-1.1,0.7-2.3,0.9-3.6L338.4,75.2z M330.1,58.3
		c-0.7-1.6-1.4-3-2.2-4.2l2.3-0.4c0.7,1.4,1.4,2.9,2.1,4.6h9.2c0.8-1.6,1.5-3.1,1.9-4.8l2.3,0.3c-0.4,1.6-1.1,3.1-1.9,4.4h9.6v2.1
		H338v4.6h13.3v2H338v4.6h16.7v2.1H319v-2.1h16.7v-4.6h-13.1v-2h13.1v-4.6h-15.4v-2.1H330.1z M355.7,89.7l-1.3,2
		c-5.4-3-10.9-5.5-16.6-7.2l1.2-1.8C345.1,84.6,350.7,86.9,355.7,89.7z"/>
	<path fill="#58595B" d="M398.6,91.3h-2.2v-2h-29.1v2H365V55.7h33.6V91.3z M396.4,87.2V57.8h-29.1v29.4H396.4z M383.3,62.9
		c0-1.2,0-2.5,0-3.9h2c0,1.4,0,2.6,0,3.9h4.4c-0.5-1.2-1.1-2.3-1.6-3.2l1.8-0.3c0.5,1,1.1,2.2,1.6,3.5h2.7v2h-8.8
		c0.1,3.7,0.4,6.7,0.8,9c0.2,1.1,0.4,2.1,0.6,3c1.5-2.6,2.7-5.7,3.7-9.3l1.7,0.9c-1.3,4.4-2.8,8-4.7,10.9c0.2,0.7,0.5,1.3,0.7,1.8
		c0.8,1.5,1.5,2.3,2.2,2.3c0.8,0,1.6-1.9,2.5-5.7l1.7,0.9c-1.1,4.6-2.5,6.9-4,6.9c-1.2,0-2.3-0.9-3.5-2.7c-0.3-0.6-0.6-1.1-0.9-1.8
		c-1.5,2-3.2,3.5-4.9,4.7l-1.1-1.7c1.9-1.3,3.7-3,5.2-5.2c-0.4-1.2-0.8-2.6-1.1-4.1c-0.5-2.6-0.8-6-0.9-10h-13.5v-2H383.3z
		 M381.1,81.2c-3.2,0.7-6.9,1.4-10.9,1.8l-0.3-1.9c4.3-0.5,8-1,11.2-1.7V81.2z M380.7,68.3v8.5h-9.6v-8.5H380.7z M378.8,70H373v5.1
		h5.8V70z"/>
	<path fill="#58595B" d="M428.3,57.5h16.5v2.1h-36.1v-2.1h17.2c-0.5-1.3-0.9-2.4-1.5-3.4l2.4-0.4C427.4,54.8,427.8,56.1,428.3,57.5z
		 M434.8,91.2l-0.5-2l3.3,0.1c1.8,0,2.8-0.7,2.8-2.2V75.3h-27.3v16h-2.1v-18h31.4v14.2c0,2.5-1.4,3.7-4.2,3.7H434.8z M438,62.8v7.6
		h-22.3v-7.6H438z M435.8,64.6h-18v3.9h18V64.6z M434.7,78.4v7.9H419v-7.9H434.7z M432.6,80.2H421v4.4h11.6V80.2z"/>
	<path fill="#58595B" d="M454.4,81.1c0.5-0.2,0.8-0.5,0.8-0.9V57.6h2.2v22.7c2.3-0.7,4.6-1.4,6.8-2.3v-24h2.2v37.1h-2.2V80.2
		c-2.9,1.1-6,2-9.1,2.8L454.4,81.1z M469.2,72.2l-1.4-1.6c3.5-4.2,5.8-9.8,7.1-16.8l2.2,0.4c-0.4,2.3-0.9,4.4-1.5,6.3h14.1v2.2H486
		c-0.2,7-2,12.9-5.1,17.8c2.6,3.5,5.8,6.6,9.6,9.4l-1.5,1.8c-3.7-2.7-6.9-5.8-9.4-9.2c-2.7,3.5-6.3,6.5-10.6,8.9l-1.3-2
		c4.5-2.3,8-5.2,10.6-8.7c-2.3-3.4-4.2-7.1-5.5-11.1l1.8-1c1.3,3.7,3,7,5.1,10.1c2.7-4.5,4.2-9.9,4.4-16h-9.1
		C473.3,66.4,471.5,69.6,469.2,72.2z"/>
	<path fill="#58595B" d="M512.6,66.9c-3.5,3.4-8,6.3-13.4,8.6l-1-2.1c5.2-2.1,9.5-4.8,13-8.1L512.6,66.9z M529.5,87.7h5.3v2.1h-36.1
		v-2.1h5.6V74.4h25.2V87.7z M521,61.4c1.8-2.4,3.4-4.9,4.7-7.6l2.2,0.8c-1.3,2.6-2.8,4.9-4.5,6.9h10.5v2.1h-34.4v-2.1H521z
		 M512.2,59.9l-1.8,1.2c-1.3-1.9-3.1-3.9-5.4-6.2l1.8-1.1C509.2,56.1,511,58.2,512.2,59.9z M511.9,87.7V76.5h-5.5v11.2H511.9z
		 M519.7,87.7V76.5H514v11.2H519.7z M535,73.6l-1.3,1.9c-4.1-3.4-8.4-6.1-12.8-8.1l1.2-1.8C526.8,67.8,531.2,70.5,535,73.6z
		 M527.3,87.7V76.5h-5.5v11.2H527.3z"/>
	<path fill="#58595B" d="M553.9,54.8c-0.9,2.9-2,5.7-3.3,8.2v28.4h-2.2V66.9c-1.5,2.3-3.1,4.4-4.8,6.4l-0.7-2.3
		c4.2-5,7.2-10.8,9.1-17.1L553.9,54.8z M564.5,87.2c-2.8,1.7-6.3,3.1-10.5,4.2l-0.9-1.8c4.1-1,7.5-2.2,10.2-3.8L564.5,87.2z
		 M567.9,53.8v2.5h11v1.8h-11v2.8h9.6v1.8h-9.6v2.9H580v1.8h-25.8v-1.8h11.6v-2.9h-9.3v-1.8h9.3v-2.8h-10.7v-1.8h10.7v-2.5H567.9z
		 M576.8,69.9v15.3h-20V69.9H576.8z M574.7,74.5v-2.8h-15.9v2.8H574.7z M574.7,79v-2.8h-15.9V79H574.7z M574.7,80.6h-15.9v2.7h15.9
		V80.6z M580.4,89.4l-0.7,1.8c-3.4-1.6-6.9-2.8-10.6-3.7l0.9-1.7C573.6,86.7,577.1,87.9,580.4,89.4z"/>
	<path fill="#58595B" d="M604.4,60.7c0.8-2.3,1.4-4.7,1.8-7.3l2.2,0.2c-0.4,2.5-1,4.8-1.7,7h15.3v2h-16c-0.7,1.8-1.6,3.6-2.6,5.1
		h20.8v2.1h-9.6c2.1,3.1,5.7,5.9,10.8,8.4l-1.4,1.8c-5.5-3-9.4-6.4-11.7-10.1h-10.3c-3.2,4.4-7.5,7.8-12.8,10.3l-1.2-1.9
		c4.7-2.1,8.5-4.8,11.4-8.4h-10.2v-2.1h11.7c1.1-1.6,2.1-3.3,2.8-5.1h-12.3v-2H604.4z M596.1,78.2v-2.1h21.2
		c-0.1,3.7-0.3,6.6-0.7,8.9c-0.3,2.2-0.9,3.8-1.7,4.7c-0.8,0.8-2,1.3-3.7,1.4h-5.8l-0.6-2.1c1.8,0.1,3.6,0.1,5.3,0.1
		c1.9,0,3.2-0.7,3.7-2c0.7-1.4,1.1-4.4,1.2-8.9h-10.7c-0.8,3.2-2,5.7-3.4,7.6c-1.8,2.1-4.4,3.9-7.9,5.6l-1.4-1.8
		c3.2-1.4,5.7-3,7.3-4.8c1.5-1.7,2.6-3.9,3.4-6.6H596.1z M599.9,59.4l-1.8,0.8c-1-2.2-2.1-4.1-3.2-5.7l2-0.7
		C598,55.6,599,57.5,599.9,59.4z M618.8,54.3c-0.9,2.3-2.1,4.4-3.6,6.1l-1.6-0.9c1.3-1.6,2.4-3.6,3.3-5.8L618.8,54.3z"/>
	<path fill="#58595B" d="M641.9,57.2v-3.3h2.2v3.3H659v-3.3h2.2v3.3h7.5v1.9h-7.5v14.2h8.2v2h-9.1c2.1,2.8,5.3,5,9.7,6.6l-0.9,1.9
		c-5.2-2.2-8.8-5-10.9-8.5H645c-2.1,3.5-5.6,6.4-10.5,8.7l-1.1-1.8c4.4-1.8,7.5-4.1,9.5-6.8h-9.1v-2h8.2V59.1h-7.5v-1.9H641.9z
		 M652.7,77v3.6h8.5v2h-8.5v5.2H667v2.1h-31.1v-2.1h14.6v-5.2h-8.6v-2h8.6V77H652.7z M659,62.7v-3.6h-14.8v3.6H659z M659,67.9v-3.4
		h-14.8v3.4H659z M659,73.3v-3.6h-14.8v3.6H659z"/>
	<path fill="#58595B" d="M697.5,54.3c4,5,9.9,9.1,17.5,12.4l-1.2,1.8c-7.1-3-12.9-7.1-17.2-12.1c-4.8,5.1-10.5,9.2-17.3,12.2
		l-1.2-1.8c7.1-3.2,13-7.4,17.6-12.5H697.5z M707.2,65.6v2h-9.6v6.6h14.9v2.1h-14.9V88h5.1c1.6-2.8,2.9-5.8,4-9l2,0.8
		c-1.1,3.1-2.3,5.9-3.7,8.3h8.9v2.1h-34.9V88h8.9c-0.9-2.8-2.1-5.5-3.6-8l2-0.7c1.4,2.4,2.7,5.3,3.8,8.7h5.3V76.3h-14.9v-2.1h14.9
		v-6.6h-9.6v-2H707.2z"/>
	<path fill="#58595B" d="M118.7,114.9c-1.6,2.7-3,5.5-3.9,8.5c-1.2,3.6-1.8,7.1-1.8,10.6c0,3.4,0.6,7,1.8,10.6
		c0.9,3,2.3,5.8,3.9,8.5h-2.3c-1.7-2.6-3.1-5.5-4.1-8.5c-1.2-3.6-1.8-7.2-1.8-10.7c0-3.5,0.6-7.1,1.8-10.7c1-3,2.3-5.9,4.1-8.5
		H118.7z"/>
	<path fill="#58595B" d="M145.6,123.2v-7.7h2.2v7.7h16.3v2.2h-14c2.8,6.8,7.9,12.9,15.2,18.2l-1.5,1.9c-7.5-6-12.7-12.6-15.6-20.1
		h-0.5v16.7h9.1v2.2h-9.1v8.7h-2.2v-8.7h-8.8v-2.2h8.8v-16.7h-0.6c-3,8.4-8.4,15.3-15.9,20.6l-1.3-2c7.2-4.8,12.4-11,15.4-18.6h-14
		v-2.2H145.6z"/>
	<path fill="#58595B" d="M182.9,118.7v-3.3h2.2v3.3h14.8v-3.3h2.2v3.3h7.5v1.9h-7.5v14.2h8.2v2h-9.1c2.1,2.8,5.3,5,9.7,6.6l-0.9,1.9
		c-5.2-2.2-8.8-5-10.9-8.5h-13.1c-2.1,3.5-5.6,6.4-10.5,8.7l-1.1-1.8c4.4-1.8,7.5-4.1,9.5-6.8h-9.1v-2h8.2v-14.2h-7.5v-1.9H182.9z
		 M193.7,138.6v3.6h8.5v2h-8.5v5.2h14.3v2.1h-31.1v-2.1h14.6v-5.2h-8.6v-2h8.6v-3.6H193.7z M199.9,124.2v-3.6h-14.8v3.6H199.9z
		 M199.9,129.4V126h-14.8v3.4H199.9z M199.9,134.8v-3.6h-14.8v3.6H199.9z"/>
	<path fill="#58595B" d="M239.3,115.9c4,5,9.9,9.1,17.5,12.4l-1.2,1.8c-7.1-3-12.9-7.1-17.2-12.1c-4.8,5.1-10.5,9.2-17.3,12.2
		l-1.2-1.8c7.1-3.2,13-7.4,17.6-12.5H239.3z M249.1,127.1v2h-9.6v6.6h14.9v2.1h-14.9v11.7h5.1c1.6-2.8,2.9-5.8,4-9l2,0.8
		c-1.1,3.1-2.3,5.9-3.7,8.3h8.9v2.1h-34.9v-2.1h8.9c-0.9-2.8-2.1-5.5-3.6-8l2-0.7c1.4,2.4,2.7,5.3,3.8,8.7h5.3v-11.7h-14.9v-2.1
		h14.9v-6.6h-9.6v-2H249.1z"/>
	<path fill="#58595B" d="M267.5,124.9v-2.2h33.4v2.2h-15.6v10.5h13.5v2.1h-13.5v11.7h17v2.2h-36.2v-2.2h17v-11.7h-13.6v-2.1h13.6
		v-10.5H267.5z M285.4,121.6l-2,0.7c-0.7-2.2-1.6-4.3-2.6-6.4l2.2-0.6C284,117.7,284.8,119.7,285.4,121.6z"/>
	<path fill="#58595B" d="M348.1,117.2v2.1h-12.4v4.2h9.8v9.9h-17.3c-0.8,1.5-1.6,2.9-2.3,4.2h22.7v2.1h-9c-0.9,2.7-2.5,5-4.9,6.8
		c4.4,1.4,8.8,3,13.3,4.8l-1.4,1.8c-4.7-2-9.4-3.7-14-5.2c-0.1,0-0.2,0.1-0.2,0.1c-3.9,2.1-10.3,3.8-19.1,4.9l-0.9-2
		c7.9-0.9,13.7-2.2,17.4-3.9c-3.5-1.1-7.1-2-10.7-2.8c1-1.5,1.9-3,2.8-4.4h-10.5v-2.1h11.8c0.8-1.4,1.6-2.8,2.4-4.2h-11.2v-9.9h9.8
		v-4.2h-12.4v-2.1H348.1z M324.3,125.4h-7.7v6h7.7V125.4z M337.3,139.7h-12.7c-0.8,1.3-1.6,2.5-2.3,3.5c3.2,0.7,6.6,1.6,9.9,2.5
		C334.7,144.2,336.4,142.1,337.3,139.7z M333.6,119.3h-7.1v4.2h7.1V119.3z M333.6,125.4h-7.1v6h7.1V125.4z M343.3,125.4h-7.7v6h7.7
		V125.4z"/>
	<path fill="#58595B" d="M368.6,116.2c-1.1,3.2-2.3,6.2-3.9,8.9V153h-2.2v-24.3c-1.5,2.1-3.1,4.2-4.9,6.1l-0.7-2.4
		c4.5-5.1,7.8-10.8,9.7-17.2L368.6,116.2z M375.6,142.6c-1.8,3.2-3.9,6-6.3,8.4l-1.7-1.2c2.4-2.3,4.4-5,6.2-8.1L375.6,142.6z
		 M389,116.7c-2.5,1.3-5,2.4-7.6,3.3c-2.9,0.9-6.5,1.8-10.8,2.7l-1.1-1.8c3.9-0.6,7.4-1.4,10.3-2.3c2.8-0.8,5.3-1.8,7.4-2.9
		L389,116.7z M375.9,152.7l-0.5-2.1c1.1,0.1,2.1,0.2,3.1,0.2c1.1,0,1.7-0.5,1.7-1.5v-10.4c-3.2,0.2-6.5,0.3-9.9,0.4l-0.4-1.9
		c0.2-0.1,0.5-0.2,0.8-0.2c3.4-1.3,7.5-3.5,12.1-6.8c-3.7,0.2-7.5,0.3-11.5,0.4L371,129c0.3-0.1,0.6-0.2,0.8-0.2
		c3-1.1,6.8-3.7,11.4-7.5l2,0.8c-3.8,3.1-7.1,5.5-9.9,7c3.5-0.2,6.9-0.3,10.1-0.5c1.5-1.1,3-2.3,4.5-3.5l2,0.9
		c-6.5,5.3-12.2,9.1-17.1,11.5c5-0.2,9.9-0.5,14.6-0.9c-1-1.4-2-2.7-3-3.9l1.8-0.8c2.1,2.4,4,5,5.6,7.9l-1.8,0.9
		c-0.5-0.9-1-1.7-1.5-2.4l-8,0.5v11c0,1.9-1.1,2.9-3.1,2.9H375.9z M394.2,149.7l-1.6,1.2c-1.6-2.5-3.8-5.2-6.5-8.2l1.6-1.1
		C390.6,144.8,392.7,147.4,394.2,149.7z"/>
	<path fill="#58595B" d="M404.2,152.4l-0.5-2.1c1.1,0.1,2.2,0.2,3.2,0.2c1.2,0,1.8-0.7,1.8-1.9v-10.9c-1.8,0.7-3.7,1.4-5.5,2.1
		l-0.6-2.2c2.1-0.6,4.1-1.3,6.1-2.1v-9.9h-5.3v-2.2h5.3v-7.7h2.2v7.7h5v2.2h-5v9c1.6-0.8,3.2-1.7,4.8-2.6v2.2
		c-1.6,0.9-3.2,1.8-4.8,2.5v12.5c0,2.2-1.1,3.3-3.3,3.3H404.2z M436.8,133.2v2.1c-1.4,4-3.6,7.5-6.6,10.3c2.8,2.1,6.4,3.9,10.5,5.4
		l-1.2,1.9c-4.4-1.7-8-3.7-10.9-6c-3.2,2.5-7.2,4.5-12,6l-1.2-1.8c4.6-1.4,8.4-3.3,11.4-5.6c-3.3-3-5.5-6.3-6.6-10.1h-2.7v-2.2
		H436.8z M434,117.3v9.1c0,1,0.6,1.6,1.7,1.6h3.7v2.1h-4.1c-2.3,0-3.4-1.1-3.4-3.3v-7.3h-8.7v2.7c0,3.8-1.9,6.7-5.6,8.8l-1.5-1.7
		c3.3-1.6,4.9-3.9,4.9-6.9v-5.1H434z M428.4,144.2c2.8-2.5,4.9-5.5,6.2-8.8h-12.4C423.3,138.7,425.4,141.7,428.4,144.2z"/>
	<path fill="#58595B" d="M461.1,125.4v1.9h-11.7v-1.9H461.1z M463.8,148.9c-3.1,1.7-7.5,3.1-13.3,4.1l-1-1.8
		c5.8-1,10.2-2.3,13.2-3.9L463.8,148.9z M460.2,118v2h-9.9v-2H460.2z M480.5,131v15.7h-26V131H480.5z M478.3,135.8v-3h-21.7v3H478.3
		z M478.3,140.2v-2.8h-21.7v2.8H478.3z M478.3,141.8h-21.7v3h21.7V141.8z M462.6,124.5l-1.2-1.6c3-2.1,5.1-4.6,6.2-7.5l2.1,0.2
		c-0.3,0.8-0.7,1.6-1,2.3h15v1.6c-1.1,2.1-2.3,3.9-3.7,5.5l-1.6-1.2c1-1.1,2-2.5,2.8-3.9h-13.8C466.1,121.6,464.5,123.1,462.6,124.5
		z M474.6,121.3c-0.2,0.7-0.4,1.3-0.7,1.9c3,3.2,6.9,5.2,11.7,5.8l-0.9,1.9c-4.7-0.7-8.5-2.8-11.7-6.2c-1.9,2.9-5.1,4.8-9.7,5.7
		l-1.1-1.6c5.8-1.1,9.3-3.7,10.4-8L474.6,121.3z M485.3,151.3l-0.7,1.8c-4.4-1.7-8.9-3-13.7-4l0.8-1.6
		C476.5,148.4,481,149.6,485.3,151.3z"/>
	<path fill="#58595B" d="M511.7,121.6v2.2h-10.3v6.4h7.8c0,9.9-0.2,16-0.6,18.4c-0.3,2.5-1.9,3.9-4.8,3.9c-0.4,0-1.1,0-2-0.1
		l-0.5-1.9c0.9,0.1,1.6,0.1,2.3,0.1c1.8,0,2.8-0.9,3.1-2.6c0.2-1.8,0.4-7,0.5-15.6h-5.7c-0.2,9.3-1.9,16.2-5,20.5l-1.6-1.4
		c3-4.2,4.5-10.8,4.6-20v-7.5h-4v-2.2H511.7z M505.1,120.8l-1.9,0.7c-0.7-1.9-1.6-3.7-2.5-5.5l2.2-0.6
		C503.7,117.4,504.5,119.2,505.1,120.8z M521.9,115.8c2,5.8,5.4,10.9,10.3,15.3l-1.3,1.8c-4.5-4-7.8-8.9-10-14.8
		c-2.5,6.5-5.5,11.6-9.2,15.1l-1.2-1.8c4.1-4,7.2-9.2,9.4-15.6H521.9z M529.7,151.3l-1.4,1.7c-3.9-3.4-8.9-6.6-15-9.5l1.3-1.6
		C520.5,144.7,525.5,147.9,529.7,151.3z M526.7,138.9l-1.3,1.6c-2.3-2.8-5.1-5.4-8.6-7.8l1.3-1.5
		C521.4,133.5,524.3,136.1,526.7,138.9z"/>
	<path fill="#58595B" d="M553.3,122.2v-6.8h2.2v19.9c-0.1,8-2.4,13.8-7,17.5l-1.7-1.5c3-2.3,4.9-5.5,5.8-9.7
		c-3.6,0.9-7.4,1.7-11.5,2.4l-0.6-2.2c4.4-0.6,8.5-1.4,12.4-2.4c0.2-1.3,0.2-2.7,0.3-4.1v-1.8h-10.9v-2.1h10.9v-7.1h-11.8v-2.1
		H553.3z M564.9,115.5v6.8h11.8v2.1h-11.8v7.1h10.9v2.1h-10.9v7.3h12.5v2.1h-12.5v10h-2.2v-37.4H564.9z"/>
	<path fill="#58595B" d="M587.5,152.4l-0.5-2.1c1.1,0.1,2.2,0.2,3.2,0.2c1.2,0,1.8-0.7,1.8-1.9v-10.9c-1.8,0.7-3.7,1.4-5.5,2.1
		l-0.6-2.2c2.1-0.6,4.1-1.3,6.1-2.1v-9.9h-5.3v-2.2h5.3v-7.7h2.2v7.7h5v2.2h-5v9c1.6-0.8,3.2-1.7,4.8-2.6v2.2
		c-1.6,0.9-3.2,1.8-4.8,2.5v12.5c0,2.2-1.1,3.3-3.3,3.3H587.5z M620,133.2v2.1c-1.4,4-3.6,7.5-6.6,10.3c2.8,2.1,6.4,3.9,10.5,5.4
		l-1.2,1.9c-4.4-1.7-8-3.7-10.9-6c-3.2,2.5-7.2,4.5-12,6l-1.2-1.8c4.6-1.4,8.4-3.3,11.4-5.6c-3.3-3-5.5-6.3-6.6-10.1h-2.7v-2.2H620z
		 M617.3,117.3v9.1c0,1,0.6,1.6,1.7,1.6h3.7v2.1h-4.1c-2.3,0-3.4-1.1-3.4-3.3v-7.3h-8.7v2.7c0,3.8-1.9,6.7-5.6,8.8l-1.5-1.7
		c3.3-1.6,4.9-3.9,4.9-6.9v-5.1H617.3z M611.6,144.2c2.8-2.5,4.9-5.5,6.2-8.8h-12.4C606.6,138.7,608.6,141.7,611.6,144.2z"/>
	<path fill="#58595B" d="M644.4,125.4v1.9h-11.7v-1.9H644.4z M647.1,148.9c-3.1,1.7-7.5,3.1-13.3,4.1l-1-1.8
		c5.8-1,10.2-2.3,13.2-3.9L647.1,148.9z M643.5,118v2h-9.9v-2H643.5z M663.8,131v15.7h-26V131H663.8z M661.6,135.8v-3h-21.7v3H661.6
		z M661.6,140.2v-2.8h-21.7v2.8H661.6z M661.6,141.8h-21.7v3h21.7V141.8z M645.8,124.5l-1.2-1.6c3-2.1,5.1-4.6,6.2-7.5l2.1,0.2
		c-0.3,0.8-0.7,1.6-1,2.3h15v1.6c-1.1,2.1-2.3,3.9-3.7,5.5l-1.6-1.2c1-1.1,2-2.5,2.8-3.9h-13.8C649.4,121.6,647.8,123.1,645.8,124.5
		z M657.9,121.3c-0.2,0.7-0.4,1.3-0.7,1.9c3,3.2,6.9,5.2,11.7,5.8l-0.9,1.9c-4.7-0.7-8.5-2.8-11.7-6.2c-1.9,2.9-5.1,4.8-9.7,5.7
		l-1.1-1.6c5.8-1.1,9.3-3.7,10.4-8L657.9,121.3z M668.6,151.3l-0.7,1.8c-4.4-1.7-8.9-3-13.7-4l0.8-1.6
		C659.7,148.4,664.3,149.6,668.6,151.3z"/>
	<path fill="#58595B" d="M680.4,125.9l-1.9-1.2c2.5-2.8,4.3-6,5.5-9.4l2.1,0.5c-0.4,1-0.7,2-1.1,3h11v1.9h-7.4
		c1.2,1.6,2.1,3,2.8,4.4l-2,0.7c-0.9-1.7-2-3.4-3.2-5.1H684C682.9,122.5,681.7,124.3,680.4,125.9z M695.4,134.3v-4.6h-14.8v-2h14.8
		v-3h2.2v3h14.9v2h-14.9v4.6h13.1v2h-4.2v4.5h8v2h-8v6.9c0,2.1-1.1,3.1-3.3,3.1h-6l-0.5-2.1c2,0.1,3.9,0.2,5.7,0.2
		c1.2,0,1.8-0.6,1.8-1.7v-6.4h-25.7v-2h25.7v-4.5h-21.7v-2H695.4z M692.6,150.1l-1.7,1.3c-1.3-1.8-3.1-3.8-5.3-5.9l1.8-1.1
		C689.6,146.5,691.4,148.5,692.6,150.1z M698.2,124.3l-1.8-1.1c1.8-2.3,3.2-5,4-7.9l2.1,0.5c-0.3,1-0.7,2-1,2.9h12.1v1.9h-7.8
		c1.2,1.6,2.2,3.1,2.9,4.4l-2,0.7c-0.9-1.8-2-3.5-3.2-5.2h-2.9C699.9,121.8,699.1,123.1,698.2,124.3z"/>
	<path fill="#58595B" d="M113.9,204.3c-0.3,3.5-0.9,6.7-1.9,9.4l-2-0.6c1.1-2.6,1.7-5.7,2-9.1L113.9,204.3z M125.1,201.3l-1.8,0.4
		c-0.2-0.9-0.5-1.7-0.7-2.5c-4,1.2-7.9,2.1-11.6,2.6l-0.6-2c0.4-0.2,0.7-0.4,0.9-0.6c1.8-1.7,4-4.5,6.6-8.5
		c-2.5,0.5-4.8,0.8-7.2,1.1l-0.5-1.9c0.3-0.2,0.7-0.4,0.9-0.8c2.3-3.3,4.2-7.2,5.9-11.6l2.1,0.8c-2.1,4.8-4.2,8.6-6.3,11.4
		c2.1-0.2,4.2-0.6,6.4-1.1c1-1.6,2-3.3,3-5.1l2,0.7c-4.3,7.3-7.8,12.4-10.5,15.1c2.8-0.5,5.7-1.1,8.5-2c-0.5-1.4-0.9-2.7-1.5-3.9
		l1.8-0.6C123.4,195.4,124.3,198.2,125.1,201.3z M119.6,211.8l-1.9,0.4c-0.3-3.2-0.7-6-1.2-8.4l1.8-0.4
		C118.7,206,119.1,208.8,119.6,211.8z M124.7,208.3l-1.7,0.7c-0.7-2.3-1.5-4.4-2.3-6.1l1.7-0.5C123.2,204.3,124,206.3,124.7,208.3z
		 M125,181V179h17.7v1.1c-0.7,4.2-1.5,7.7-2.5,10.5h5v2.1c-1,5.2-2.9,9.6-5.7,13.4c2.2,2.5,4.8,4.7,7.7,6.6l-1.5,1.7
		c-2.8-2.1-5.3-4.3-7.5-6.8c-2.4,2.7-5.4,5-8.9,6.9l-1.4-1.7c3.5-1.9,6.5-4.2,8.9-6.9c-2.7-3.3-4.8-7-6.5-11
		c-0.9,8.5-3,14.9-6.1,19.4l-1.6-1.4c4-5.7,6-14.9,6.1-27.7V181H125z M138.1,190.6c0.9-2.7,1.7-5.9,2.4-9.6h-9.6v4.2
		c0,1.8-0.1,3.7-0.2,5.4H138.1z M138.1,204.3c2.5-3.3,4.2-7.2,5-11.6h-11.6C133.1,197.1,135.3,200.9,138.1,204.3z"/>
	<path fill="#58595B" d="M174.1,184.4H187v1.7c-4.8,9.1-12,16.1-21.4,21c0.2,0.2,0.3,0.3,0.5,0.5c1.8,2.2,4.2,3.4,7.2,3.7
		c1.9,0.1,4.6,0.1,8.2,0.1c2.2,0,5.2,0,9-0.1l-0.5,2.2h-8.1c-3.6,0-6.2,0-7.7-0.1c-4.4-0.1-7.7-1.7-10-5c-0.7-0.9-1.4-1.4-2-1.4
		c-1.3,0-3.1,2.4-5.5,7.2l-1.8-1.2c2.6-5.5,5.1-8.2,7.4-8.2c0.5,0,1,0.1,1.4,0.4l0.4,0.2c8.9-4.6,15.7-10.9,20.3-18.9h-27.1v-2.2
		h14.5c-1.1-2.6-2.5-5-4-7.1l2.5-0.4C171.6,179,172.8,181.5,174.1,184.4z"/>
	<path fill="#58595B" d="M218,180.6h16.5v2.1h-36.1v-2.1h17.2c-0.5-1.3-0.9-2.4-1.5-3.4l2.4-0.4C217.1,177.9,217.6,179.2,218,180.6z
		 M224.6,214.3l-0.5-2l3.3,0.1c1.8,0,2.8-0.7,2.8-2.2v-11.8h-27.3v16h-2.1v-18h31.4v14.2c0,2.5-1.4,3.7-4.2,3.7H224.6z M227.7,185.9
		v7.6h-22.3v-7.6H227.7z M225.6,187.7h-18v3.9h18V187.7z M224.4,201.5v7.9h-15.7v-7.9H224.4z M222.4,203.3h-11.6v4.4h11.6V203.3z"/>
	<path fill="#58595B" d="M273.5,178.6v17.6c0,6.6,0.2,10.8,0.6,12.7c0.4,1.8,0.9,2.8,1.6,2.8c0.7,0,1.4-2.3,1.9-6.7l1.8,0.9
		c-0.5,3.2-1,5.4-1.6,6.7c-0.5,1-1.2,1.5-1.9,1.5c-1.6,0-2.7-1.2-3.4-3.6c-0.8-2.4-1.1-7.1-1.1-14.2v-15.5h-24.2v14.5
		c-0.1,7.6-1.2,14-3.4,19.2L242,213c1.9-4.7,2.9-10.6,3-17.8v-16.6H273.5z M269,185v2h-8.7v4.4h7.5v11.7h-7.5v6.9
		c2.2-0.3,4.1-0.7,5.6-1.2c-0.6-1.2-1.2-2.3-1.8-3.4l1.8-0.7c1.6,2.6,3,5.3,4.2,8.3l-2,0.9c-0.5-1.1-0.9-2.3-1.4-3.2
		c-4,1.1-9.9,2-17.5,2.5l-0.6-2.1c3.6-0.2,6.7-0.5,9.5-0.8v-7.2h-7.5v-11.7h7.5V187h-8.6v-2H269z M258.1,193.4h-5.5v7.8h5.5V193.4z
		 M265.8,193.4h-5.5v7.8h5.5V193.4z"/>
	<path fill="#58595B" d="M299.1,178.9v1.8c-1.1,3.9-2.5,7.9-4,12c2.3,3.4,3.6,6.5,3.8,9.5c0,1.6-0.5,2.9-1.2,3.6
		c-1,0.9-2.8,1.4-5.3,1.4l-0.7-2.2c0.5,0,0.9,0.1,1.2,0.1c1.5-0.1,2.5-0.4,3.1-0.8c0.5-0.4,0.7-1.1,0.7-2.2c0-2.7-1.3-5.8-3.8-9.2
		c1.7-4.4,3-8.4,4-11.9h-6.8v33.4h-2.2v-35.5H299.1z M299.4,214.3l-1.6-1.4c3.4-2.5,6-6,7.8-10.4l1.9,0.7c-0.5,1.1-1,2.2-1.6,3.2
		c1.7,1.1,3.1,2.3,4.4,3.4l-1.4,1.4c-1-1.1-2.3-2.2-3.8-3.3C303.5,210.5,301.6,212.6,299.4,214.3z M299.6,188.4l-1.1-1.8
		c5-2.3,8.8-5.4,11.5-9.2h1.9c2.2,3.4,6.1,6.4,11.5,9.1l-1.2,1.8c-5.1-2.4-8.9-5.3-11.3-8.8c-2,2.5-4.2,4.7-6.8,6.4h13.4v2H304V186
		C302.6,186.9,301.2,187.7,299.6,188.4z M309.6,191.4v9.6h-8.8v-9.6H309.6z M307.7,193.2h-5v6h5V193.2z M310.5,214.3l-1.5-1.4
		c3.3-2.5,5.9-6,7.6-10.3l1.8,0.7c-0.6,1.3-1.1,2.5-1.8,3.5c2.6,1.8,4.8,3.6,6.6,5.4l-1.4,1.4c-1.6-1.7-3.6-3.5-6.1-5.3
		C314.2,210.8,312.4,212.7,310.5,214.3z M321.4,191.4v9.6h-8.7v-9.6H321.4z M319.6,193.2h-5v6h5V193.2z"/>
	<path fill="#58595B" d="M341.2,177.9c-0.9,2.9-2,5.7-3.3,8.2v28.4h-2.2V190c-1.5,2.3-3.1,4.4-4.8,6.4l-0.7-2.3
		c4.2-5,7.2-10.8,9.1-17.1L341.2,177.9z M351.8,210.3c-2.8,1.7-6.3,3.1-10.5,4.2l-0.9-1.8c4.1-1,7.5-2.2,10.2-3.8L351.8,210.3z
		 M355.1,176.9v2.5h11v1.8h-11v2.8h9.6v1.8h-9.6v2.9h12.1v1.8h-25.8v-1.8H353v-2.9h-9.3V184h9.3v-2.8h-10.7v-1.8H353v-2.5H355.1z
		 M364,193v15.3h-20V193H364z M361.9,197.6v-2.8h-15.9v2.8H361.9z M361.9,202.1v-2.8h-15.9v2.8H361.9z M361.9,203.7h-15.9v2.7h15.9
		V203.7z M367.6,212.5l-0.7,1.8c-3.4-1.6-6.9-2.8-10.6-3.7l0.9-1.7C360.8,209.8,364.3,211,367.6,212.5z"/>
	<path fill="#58595B" d="M390.8,183.8c0.8-2.3,1.4-4.7,1.8-7.3l2.2,0.2c-0.4,2.5-1,4.8-1.7,7h15.3v2h-16c-0.7,1.8-1.6,3.6-2.6,5.1
		h20.8v2.1h-9.6c2.1,3.1,5.7,5.9,10.8,8.4l-1.4,1.8c-5.5-3-9.4-6.4-11.7-10.1h-10.3c-3.2,4.4-7.5,7.8-12.8,10.3l-1.2-1.9
		c4.7-2.1,8.5-4.8,11.4-8.4h-10.2V191h11.7c1.1-1.6,2.1-3.3,2.8-5.1h-12.3v-2H390.8z M382.5,201.3v-2.1h21.2
		c-0.1,3.7-0.3,6.6-0.7,8.9c-0.3,2.2-0.9,3.8-1.7,4.7c-0.8,0.8-2,1.3-3.7,1.4h-5.8l-0.6-2.1c1.8,0.1,3.6,0.1,5.3,0.1
		c1.9,0,3.2-0.7,3.7-2c0.7-1.4,1.1-4.4,1.2-8.9h-10.7c-0.8,3.2-2,5.7-3.4,7.6c-1.8,2.1-4.4,3.9-7.9,5.6l-1.4-1.8
		c3.2-1.4,5.7-3,7.3-4.8c1.5-1.7,2.6-3.9,3.4-6.6H382.5z M386.3,182.6l-1.8,0.8c-1-2.2-2.1-4.1-3.2-5.7l2-0.7
		C384.3,178.7,385.4,180.6,386.3,182.6z M405.2,177.4c-0.9,2.3-2.1,4.4-3.6,6.1l-1.6-0.9c1.3-1.6,2.4-3.6,3.3-5.8L405.2,177.4z"/>
	<path fill="#58595B" d="M421.6,176.5c1.7,2.6,3,5.5,4.1,8.5c1.1,3.6,1.8,7.1,1.8,10.7c0,3.5-0.6,7.1-1.8,10.7c-1,3-2.4,5.8-4.1,8.5
		h-2.3c1.6-2.7,2.9-5.5,3.9-8.5c1.1-3.6,1.8-7.2,1.8-10.6c0-3.5-0.6-7-1.8-10.6c-1-3-2.3-5.9-3.9-8.5H421.6z"/>
</g>
<path fill="#FFD65C" d="M694.2,368.7H128.8c-11.6,0-21-9.4-21-21v-67.2c0-11.6,9.4-21,21-21h565.4c11.6,0,21,9.4,21,21v67.2
	C715.2,359.3,705.8,368.7,694.2,368.7z"/>
<g>
	<g>
		<path fill="#58595B" d="M343.4,322.2c-0.2,3-0.6,5.7-1.3,8.1l-3.2-0.9c0.8-2.2,1.3-4.7,1.5-7.6L343.4,322.2z M347,311.3V309h-6.7
			v-15.2h16.8V309h-6.7v2.3h6.2v3.1h-6.2v2.4h7.1v3.4h-17.8v-3.4h7.2v-2.4h-6.3v-3.1H347z M347.2,296.8h-3.8v9.3h3.8V296.8z
			 M346.9,304.4l-2,0.5c-0.4-2-0.8-3.8-1.4-5.5l2-0.7C346,300.3,346.5,302.2,346.9,304.4z M348.2,329.6l-3.2,0.4
			c0-3.2-0.1-5.7-0.3-7.5l2.8-0.4C347.8,323.9,348,326.4,348.2,329.6z M353.3,328.8l-3.1,0.7c-0.3-2.6-0.7-5-1.1-7l2.8-0.6
			C352.4,324,352.9,326.3,353.3,328.8z M353.9,296.8H350v9.3h3.9V296.8z M353.6,298.8c-0.2,2.1-0.6,4.1-1.2,6.1l-2-0.7
			c0.5-1.8,0.9-3.8,1.1-6L353.6,298.8z M357.9,327.7l-2.8,1c-0.5-2.3-1-4.5-1.6-6.6l2.7-0.8C356.9,323.7,357.5,325.8,357.9,327.7z
			 M368.5,292.7v7.3h8.2v3.6h-8.2v6.6h6.8v20.3h-3.7v-2h-8.9v2h-3.7v-20.3h5.6v-17.4H368.5z M371.6,324.9v-11.2h-8.9v11.2H371.6z"/>
		<path fill="#58595B" d="M402.6,315.2c-2.2,0.7-4.6,1.4-7,2.1v8.6c0,2.6-1.4,4-4.1,4h-4.6l-0.9-3.7c1.4,0.2,2.8,0.2,4.1,0.2
			c1,0,1.6-0.5,1.6-1.5v-6.7c-2.5,0.5-5,1-7.6,1.4l-0.5-3.9c2.8-0.5,5.5-0.9,8.1-1.5v-7.3h-8.1v-3.7h8.1v-4.4
			c-2.1,0.4-4.1,0.7-6.3,1.1l-0.8-3.7c5.7-0.6,10.8-1.8,15.3-3.6l1.4,3.7c-1.8,0.6-3.6,1.2-5.5,1.7v5.2h8.9
			c-0.2-3.2-0.4-6.7-0.4-10.6h3.9c0,4,0.1,7.6,0.4,10.6h12.4v3.7h-12.1c0.2,2.7,0.6,5,1.1,6.8c0.2,0.8,0.4,1.5,0.6,2.1
			c1.8-2.1,3.3-4.6,4.6-7.3l3.4,1.8c-1.8,3.8-4,7-6.6,9.7c0.5,1.1,0.9,2.1,1.4,2.8c1.2,1.8,2.2,2.8,2.8,2.8c0.5,0,1.1-2.1,1.6-6.4
			l3.4,1.8c-1,5.8-2.5,8.8-4.5,8.8c-1.8,0-3.6-1.2-5.5-3.7c-0.8-1-1.5-2.1-2.1-3.4c-2.8,2.4-6,4.3-9.5,5.6l-2.2-3.4
			c3.9-1.4,7.2-3.4,10.1-6c-0.5-1.4-0.9-2.8-1.3-4.2c-0.6-2.2-1-4.8-1.4-7.8h-9.2v6.4c2.5-0.7,4.8-1.4,7-2.1V315.2z M419.9,298.5
			l-2.8,2.8c-1.7-1.8-4.1-3.7-7.2-5.8l2.6-2.5C415.4,294.8,417.9,296.7,419.9,298.5z"/>
		<path fill="#58595B" d="M437.8,302.5v3c-1.2,2.1-2.6,4.3-4.2,6.4h5.4v2.6c-0.7,3.1-1.6,5.7-2.6,7.6c0.2,0.2,0.5,0.4,0.8,0.7
			c1.3,1.2,2.5,2.1,3.8,2.6c1.2,0.5,3,0.7,5.2,0.8c2.2,0,4.8,0,7.7,0c3,0,6.9-0.1,11.7-0.3l-0.9,3.7h-10.4c-2.9,0-5.7-0.1-8.3-0.2
			c-2.8-0.1-4.9-0.4-6.4-1c-1.7-0.7-3.3-1.7-4.7-3.1c-0.3-0.3-0.6-0.4-0.9-0.4c-0.8,0-2.1,1.8-3.9,5.4l-2.8-2.6c2-3.8,3.8-6,5.6-6.4
			c1-1.9,1.8-3.9,2.3-6.1H429v-3c1.8-2.1,3.3-4.2,4.5-6.2h-5.6v-3.5H437.8z M437.7,298.6l-2.5,2.5c-1.5-1.8-3.6-3.8-6.2-5.9l2.6-2.5
			C434,294.7,436,296.6,437.7,298.6z M439.6,308.4l-1.1-3.7c2.9-3.6,5-7.5,6.2-11.8l3.6,0.6c-0.4,1.4-0.9,2.7-1.4,3.9h6
			c-0.6-1.4-1.3-2.7-2.1-3.9l3.5-1c0.9,1.8,1.6,3.4,2.2,4.9h7v3.5h-7.2v3.9h6.1v3.4h-6.1v3.8h6.1v3.4h-6.1v4h7.7v3.5h-21.8v-17.7
			C441.4,306.3,440.5,307.4,439.6,308.4z M452.7,300.9H446v3.9h6.7V300.9z M452.7,308.2H446v3.8h6.7V308.2z M452.7,315.4H446v4h6.7
			V315.4z"/>
		<path fill="#58595B" d="M483.2,297.6v-3.8h8.9c1.1,12.4,6.7,23.4,16.9,32.7l-2.2,3.4c-8.3-7.5-13.7-16.1-16.3-25.9
			c-2.9,11.1-8.5,19.7-16.8,25.8l-2.4-3.3c9-6.6,14.9-16.3,17.6-28.9H483.2z"/>
	</g>
</g>
<g>
</g>
<g>
</g>
<g>
</g>
<g>
</g>
<g>
</g>
<g>
</g>
<g>
</g>
<g>
</g>
<g>
</g>
<g>
</g>
<g>
</g>
<g>
</g>
<g>
</g>
<g>
</g>
<g>
</g>
</svg>
