<?xml version="1.0" encoding="utf-8"?>
<!-- Generator: Adobe Illustrator 18.0.0, SVG Export Plug-In . SVG Version: 6.00 Build 0)  -->
<!DOCTYPE svg PUBLIC "-//W3C//DTD SVG 1.1//EN" "http://www.w3.org/Graphics/SVG/1.1/DTD/svg11.dtd">
<svg version="1.1" id="Layer_1" xmlns="http://www.w3.org/2000/svg" xmlns:xlink="http://www.w3.org/1999/xlink" x="0px" y="0px"
	 viewBox="0 0 785.8 817.9" enable-background="new 0 0 785.8 817.9" xml:space="preserve">
<path opacity="0.88" fill="#FFFFFF" d="M785.8,690.8v72.3c0,30.3-26.4,54.8-59,54.8H59c-32.6,0-59-24.5-59-54.8V309.8h785.8V690.8z"
	/>
<g>
	<path fill="#58595B" d="M114.5,384.1l-1.6,1.6c-1.3-2-3.1-4.2-5.4-6.5l1.6-1.4C111.2,379.8,113,382,114.5,384.1z M114.4,389.8
		c-1.4,5.5-2.9,10.8-4.6,15.6l-2-0.8c1.8-5.1,3.4-10.3,4.8-15.6L114.4,389.8z M115.3,373.7l-1.6,1.6c-1.4-2-3.2-4.1-5.6-6.4l1.6-1.5
		C112,369.4,113.8,371.5,115.3,373.7z M121.1,371.3V367h2.1v4.3h5.4v2h-5.4v4.2h4.2v15h-4.2v4.6h5.3v2h-5.3v7h-2.1v-7h-5.8v-2h5.8
		v-4.6h-4.2v-15h4.2v-4.2h-5.3v-2H121.1z M125.4,384.1v-4.7H119v4.7H125.4z M125.4,385.9H119v4.7h6.4V385.9z M138.6,366.7
		c1.6,3.6,4.4,6.7,8.3,9.5l-1.2,1.9c-3.6-2.5-6.4-5.6-8.2-9.3c-2.2,4-4.9,7.1-8.2,9.3l-1.2-1.9c3.5-2.4,6.3-5.6,8.3-9.5H138.6z
		 M130.2,403.7l2.2,0.1c1.1,0,1.6-0.6,1.6-1.9v-6.4c-1.4,1.8-2.9,3.4-4.7,4.8l-0.8-1.9c2.1-1.6,3.9-3.5,5.5-5.7v-11.4h-4.6v-2h6.6
		v23.3c0,2-1.1,3.1-3.2,3.1h-2.2L130.2,403.7z M132.7,391.2l-1.5,0.7c-0.6-2.8-1.3-5.2-2.1-7.3l1.5-0.5
		C131.4,386.3,132.1,388.7,132.7,391.2z M138.9,403.7l2.5,0.1c0.9,0,1.4-0.6,1.4-1.8v-7.2c-1.6,1.8-3.3,3.5-5.3,5l-0.8-1.9
		c2.3-1.6,4.4-3.5,6.1-5.7v-10.8h-4.9v-2h6.9v23.3c0,2-1,3-3,3h-2.4L138.9,403.7z M141.3,390.9l-1.5,0.7c-0.6-2.9-1.3-5.3-2.1-7.4
		l1.5-0.5C140,386,140.7,388.4,141.3,390.9z"/>
	<path fill="#58595B" d="M194.7,368.6v2.2h-12.1v8.4h9.6v14.2h-9.7v8.9h12.7v2.2h-37.9v-2.2H170v-8.8h-9.6v-14.3h9.6v-8.3h-12.1
		v-2.2H194.7z M180.2,391.1h9.7v-9.7h-9.6v-10.6h-7.9v10.6h-9.6v9.8h9.6v11.1h7.9V391.1z"/>
	<path fill="#58595B" d="M207.3,383.8l-1.3-2.2c8.3-2.9,14.2-6.7,17.8-11.3H215v-2.2h12.1c3.4,5.3,9.4,9.5,18,12.7l-1.6,2.1
		c-7.8-3.2-13.7-7.3-17.5-12.5c-2.7,3.9-6.7,7.3-11.9,10.2h23.2v2.3H227v8.4h12.7v2.3H227v8.7h16.7v2.3H208v-2.3h16.5v-8.7h-12.9
		v-2.3h12.9V383H214v-2.2C211.9,381.8,209.7,382.9,207.3,383.8z"/>
	<path fill="#58595B" d="M269.3,369.8v2.2h-5.4v10.8h4.5v2.2h-4.5v9.8c1.9-0.8,3.8-1.6,5.6-2.6v2.3c-4.2,2.2-8.8,4-13.7,5.4
		l-0.6-2.3c2.2-0.6,4.3-1.2,6.4-1.9V385h-5.3v-2.2h5.3V372h-5.7v-2.2H269.3z M278,392.8c-2.5,3.3-5.5,6.2-9.2,8.7l-1-2.2
		c3.7-2.3,6.9-5.2,9.5-8.6L278,392.8z M280.2,374.4v-7.6h2.2v7.6h10.6v2.2h-10.6v4.1c0.7,2.4,1.6,4.8,2.6,6.9c2.1-2.2,4-4.8,5.7-7.6
		l1.8,1.3c-2.1,3.2-4.3,6-6.6,8.2c2.3,4.2,5.2,7.9,8.7,11l-1.6,1.9c-4.8-4.4-8.3-9.9-10.8-16.2v16.2c0,2.1-1,3.1-3.1,3.1h-5
		l-0.5-2.2c1.6,0.1,3.2,0.2,4.6,0.2c1.1,0,1.6-0.6,1.6-1.6v-25.3h-10.1v-2.2H280.2z M277,387.9l-1.7,1.2c-1.2-2.2-2.8-4.7-4.8-7.3
		l1.8-1.2C274.3,383.4,275.8,385.8,277,387.9z M292.2,372.5l-1.5,1.5c-1.4-1.7-3.2-3.5-5.6-5.4l1.4-1.3
		C288.8,369,290.7,370.8,292.2,372.5z"/>
	<path fill="#58595B" d="M326.1,370.4h17.4v2.2h-38v-2.2h18.1c-0.5-1.3-1-2.5-1.6-3.6l2.5-0.4C325.2,367.6,325.6,368.9,326.1,370.4z
		 M333,405.9l-0.6-2.1l3.5,0.1c1.9,0,2.9-0.8,2.9-2.3v-12.4h-28.7V406H308v-19h33.1v15c0,2.6-1.5,3.9-4.4,3.9H333z M336.3,376v7.9
		h-23.5V376H336.3z M334.1,377.9h-19v4.1h19V377.9z M332.9,392.4v8.3h-16.5v-8.3H332.9z M330.7,394.3h-12.2v4.6h12.2V394.3z"/>
	<path fill="#58595B" d="M355.8,395.2c0.5-0.2,0.8-0.5,0.8-0.9v-23.8h2.3v23.9c2.4-0.7,4.8-1.5,7.1-2.5v-25.2h2.3v39H366v-11.5
		c-3.1,1.1-6.3,2.1-9.6,2.9L355.8,395.2z M371.3,385.8l-1.5-1.7c3.7-4.4,6.1-10.3,7.4-17.7l2.3,0.4c-0.4,2.4-1,4.6-1.6,6.6h14.8v2.3
		H389c-0.3,7.3-2.1,13.6-5.4,18.8c2.8,3.7,6.1,7,10.1,9.8l-1.6,1.9c-3.9-2.9-7.3-6.1-9.9-9.7c-2.9,3.7-6.6,6.8-11.2,9.3l-1.3-2.1
		c4.7-2.4,8.4-5.4,11.1-9.1c-2.5-3.5-4.4-7.4-5.8-11.7l1.9-1.1c1.3,3.8,3.1,7.4,5.4,10.6c2.9-4.8,4.4-10.4,4.6-16.8h-9.5
		C375.7,379.8,373.7,383.2,371.3,385.8z"/>
	<path fill="#58595B" d="M419.1,380.3c-3.7,3.6-8.4,6.6-14.1,9l-1-2.2c5.5-2.2,10-5,13.7-8.6L419.1,380.3z M436.9,402.2h5.6v2.2h-38
		v-2.2h5.9v-14h26.5V402.2z M427.9,374.5c1.9-2.5,3.6-5.2,5-8l2.3,0.8c-1.4,2.7-3,5.1-4.7,7.2h11.1v2.2h-36.2v-2.2H427.9z
		 M418.7,373l-1.9,1.3c-1.4-2-3.3-4.1-5.7-6.5l1.9-1.2C415.5,369,417.4,371.1,418.7,373z M418.4,402.2v-11.8h-5.7v11.8H418.4z
		 M426.5,402.2v-11.8h-5.9v11.8H426.5z M442.7,387.4l-1.3,2c-4.4-3.6-8.9-6.4-13.5-8.6l1.3-1.9C434.1,381.3,438.6,384.1,442.7,387.4
		z M434.5,402.2v-11.8h-5.8v11.8H434.5z"/>
	<path fill="#58595B" d="M464.7,367.6c-1,3.1-2.1,6-3.5,8.6v29.9h-2.3v-25.8c-1.6,2.4-3.2,4.7-5.1,6.7l-0.7-2.4
		c4.4-5.3,7.6-11.3,9.5-18L464.7,367.6z M475.9,401.6c-2.9,1.8-6.6,3.2-11.1,4.4l-1-1.9c4.3-1,7.9-2.3,10.8-4L475.9,401.6z
		 M479.4,366.5v2.6H491v1.9h-11.6v3h10.1v1.9h-10.1v3.1h12.7v1.9H465V379h12.2v-3.1h-9.8V374h9.8v-3h-11.3v-1.9h11.3v-2.6H479.4z
		 M488.7,383.5v16.1h-21v-16.1H488.7z M486.6,388.3v-2.9h-16.7v2.9H486.6z M486.6,393v-3h-16.7v3H486.6z M486.6,394.7h-16.7v2.9
		h16.7V394.7z M492.6,404l-0.8,1.9c-3.5-1.7-7.3-3-11.1-3.9l0.9-1.8C485.4,401.1,489,402.3,492.6,404z"/>
	<path fill="#58595B" d="M519.9,373.8c0.8-2.4,1.4-5,1.9-7.6l2.3,0.3c-0.4,2.6-1,5.1-1.8,7.4h16.1v2.1h-16.8
		c-0.8,1.9-1.7,3.8-2.7,5.4h21.9v2.2h-10.1c2.2,3.3,6,6.2,11.4,8.8l-1.5,1.9c-5.8-3.2-9.9-6.7-12.3-10.7h-10.9
		c-3.4,4.6-7.9,8.2-13.5,10.8l-1.3-2c4.9-2.2,8.9-5.1,12-8.8h-10.7v-2.2h12.3c1.2-1.7,2.2-3.5,3-5.4h-13v-2.1H519.9z M511.2,392.2
		V390h22.3c-0.1,3.8-0.3,7-0.7,9.4c-0.3,2.3-1,4-1.8,4.9c-0.8,0.9-2.1,1.4-3.9,1.5h-6.1l-0.6-2.2c1.9,0.1,3.8,0.1,5.6,0.1
		c2,0,3.3-0.7,3.9-2.1c0.7-1.5,1.1-4.6,1.3-9.4H520c-0.9,3.4-2.1,6-3.6,8c-1.9,2.2-4.7,4.1-8.3,5.9l-1.5-1.9c3.4-1.5,6-3.2,7.7-5
		c1.6-1.8,2.8-4.1,3.5-7H511.2z M515.2,372.5l-1.9,0.9c-1-2.3-2.2-4.3-3.4-6l2.1-0.7C513.2,368.4,514.2,370.4,515.2,372.5z
		 M535.1,367c-1,2.4-2.2,4.6-3.8,6.4l-1.7-1c1.4-1.7,2.5-3.8,3.5-6.1L535.1,367z"/>
	<path fill="#58595B" d="M561.5,370v-3.5h2.3v3.5h15.6v-3.5h2.3v3.5h7.9v2h-7.9V387h8.6v2.1h-9.6c2.2,2.9,5.6,5.3,10.2,6.9l-1,2
		c-5.4-2.3-9.3-5.3-11.5-8.9h-13.8c-2.2,3.7-5.9,6.7-11.1,9.1l-1.2-1.9c4.6-1.9,7.9-4.3,10-7.2h-9.5V387h8.6v-14.9h-7.9v-2H561.5z
		 M572.9,390.9v3.8h9v2.1h-9v5.5h15v2.2h-32.7v-2.2h15.3v-5.5h-9.1v-2.1h9.1v-3.8H572.9z M579.5,375.8v-3.8h-15.6v3.8H579.5z
		 M579.5,381.3v-3.6h-15.6v3.6H579.5z M579.5,387v-3.8h-15.6v3.8H579.5z"/>
	<path fill="#58595B" d="M622.1,367.1c4.2,5.3,10.4,9.6,18.4,13l-1.3,1.9c-7.5-3.2-13.6-7.5-18.1-12.7c-5.1,5.4-11.1,9.6-18.2,12.8
		l-1.3-1.9c7.5-3.4,13.7-7.8,18.5-13.2H622.1z M632.4,378.9v2.1h-10.1v7H638v2.2h-15.7v12.3h5.4c1.6-2.9,3-6.1,4.2-9.5l2.1,0.8
		c-1.2,3.3-2.5,6.2-3.9,8.7h9.4v2.2h-36.8v-2.2h9.4c-1-2.9-2.2-5.7-3.8-8.4l2.1-0.8c1.5,2.5,2.8,5.6,4,9.2h5.6v-12.3h-15.7V388H620
		v-7h-10.1v-2.1H632.4z"/>
	<path fill="#58595B" d="M665.7,370.9c2.8,0,5,0.6,6.7,2c1.6,1.4,2.5,3.3,2.5,5.7c0,1.8-0.5,3.3-1.5,4.5c-1,1.2-2.3,2-3.8,2.5
		c2,0.3,3.6,1.2,4.8,2.5c1.2,1.3,1.8,3,1.8,5.1c0,2.9-1.1,5.1-3.2,6.6c-1.8,1.3-4.3,1.9-7.3,1.9h-13.4v-30.8H665.7z M654.7,384.7
		h10.4c2.2,0,3.9-0.5,5.1-1.5c1.3-1,1.9-2.4,1.9-4.3c0-1.9-0.6-3.4-1.9-4.3c-1.3-1-3-1.4-5.1-1.4h-10.4V384.7z M654.7,399.5h10.7
		c2.3,0,4.1-0.5,5.5-1.4c1.6-1.1,2.4-2.7,2.4-4.9c0-2.1-0.8-3.7-2.2-4.8c-1.4-1-3.3-1.5-5.7-1.5h-10.7V399.5z"/>
	<path fill="#58595B" d="M115.7,457.6c0.1-0.6,0.1-1.1,0.1-1.6v-3.8h2.2v3.8c0,0.6,0,1.1-0.1,1.6h8.4v2.1h-8.7l-0.3,1.2
		c3.4,2.6,6.2,5.1,8.5,7.7l-1.6,1.6c-1.9-2.4-4.4-4.8-7.6-7.4c-1.4,3.5-4,6.3-7.7,8.3l-1.7-1.6c4.4-2.2,7.1-5.5,8.1-9.8h-7.3v-2.1
		H115.7z M114.5,445.5c-1.6,2.5-3.5,4.6-5.8,6.5l-1.2-1.6c2.2-1.7,4.1-3.8,5.6-6.1L114.5,445.5z M116.4,440.1v-8.5h2.2v8.5h7.6v2
		h-7.6v8.6h-2.2v-8.6h-7.9v-2H116.4z M114.1,437.8l-1.7,0.8c-1-2-1.9-3.8-3-5.4l1.9-0.6C112.3,434.2,113.3,435.9,114.1,437.8z
		 M125.4,455.9l-1.6,1.1c-0.9-1.3-2-2.8-3.4-4.3l1.5-1C123.4,453.3,124.5,454.7,125.4,455.9z M127,449.7l-1.3,1.5
		c-1.7-2.2-3.4-4.1-5.2-5.8l1.3-1.3C123.7,445.7,125.4,447.6,127,449.7z M125.4,433c-0.8,2-1.8,3.8-2.9,5.2l-1.6-1.1
		c1.1-1.4,2-3,2.8-4.9L125.4,433z M135.5,464.1c-2,2.7-4.4,5-7.3,7l-1.3-1.7c2.8-1.9,5.1-4.1,7.1-6.7L135.5,464.1z M146.1,433.3v2.1
		h-8.2c-0.1,1.5-0.2,2.9-0.3,4.1h7v22.5h-15.5v-22.5h6.1c0.2-1.3,0.3-2.7,0.4-4.1h-8.4v-2.1H146.1z M142.4,446.4v-4.8h-11v4.8H142.4
		z M142.4,453.1v-4.7h-11v4.7H142.4z M142.4,455h-11v5h11V455z M146.7,469.2l-1.6,1.6c-1.7-2.1-4-4.3-7-6.7l1.5-1.4
		C142.4,464.9,144.8,467.1,146.7,469.2z"/>
	<path fill="#58595B" d="M173.8,459.4v-4.2h2.3v4.2h15.1v2.2h-15.1v5.8h17.5v2.2h-37.8v-2.2h17.9v-5.8h-15.4v-2.2H173.8z
		 M177.4,433.5v2.2h-4.6v7.1h5.5v2.2h-5.5v9.7h-2.2V445h-6.4c-0.5,4.6-2.2,8-5.1,10.3l-1.7-1.6c2.6-1.9,4.1-4.8,4.5-8.7h-5.7v-2.2
		h5.8v-7.1h-4.7v-2.2H177.4z M164.3,442.8h6.2v-7.1h-6.2V442.8z M183.6,434.4v14.8h-2.2v-14.8H183.6z M182.6,455.1l-0.5-2.2
		c1.9,0.1,3.8,0.2,5.5,0.2c1.1,0,1.6-0.7,1.6-2v-19.1h2.3v19.7c0,2.3-1.1,3.5-3.2,3.5H182.6z"/>
	<path fill="#58595B" d="M225.1,454.3v2.2h-21.8v-2.2H225.1z"/>
	<path fill="#58595B" d="M254.5,440.9c2.4,12,8.8,21.2,19,27.5l-1.6,2c-9.3-6-15.4-14.1-18.2-24.3c-2.4,9.8-8.6,17.9-18.6,24.4
		l-1.4-2.1c12.1-7.5,18.3-17.5,18.7-29.9c0-3,0-5.4,0-7h2.4C254.8,435.1,254.7,438.3,254.5,440.9z"/>
	<path fill="#58595B" d="M289.1,467.3c4-0.8,8-1.9,11.9-3.2l0.5,2.2c-4,1.3-9,2.6-15,3.8L286,468c0.5-0.3,0.8-0.7,0.8-1.2v-33.5
		h30.5v12h-12.6c0.2,2.5,0.5,4.8,0.9,6.8H320v2.2h-13.9c0.4,1.5,0.8,2.8,1.3,4c1.5,3.4,3.1,5.9,4.8,7.5c1.6,1.4,3,2.1,4.3,2.1
		c0.6,0,1.1-0.4,1.5-1.3c0.5-1,0.9-3,1.2-6l2.1,1.1c-0.5,3.6-1.1,6-1.9,7c-0.7,1-1.5,1.6-2.5,1.6c-2,0-4-1-6.1-2.9
		c-2.1-2-3.9-4.8-5.5-8.5c-0.6-1.4-1.1-2.9-1.5-4.6h-14.8V467.3z M289.1,435.5v7.5h25.8v-7.5H289.1z M289.1,445.2v6.8h14.3
		c-0.5-2.1-0.8-4.4-1-6.8H289.1z"/>
	<path fill="#58595B" d="M345.2,452.8l-0.5-1.9l2.2,0.1c0.8,0,1.3-0.5,1.3-1.4v-10h-6v12.9h-1.9v-12.9H334v13.2h-2v-15.2h8.2v-6.2h2
		v6.2h7.9v12.4c0,1.8-0.9,2.8-2.6,2.8H345.2z M337.5,436.3l-1.7,0.9c-1-1.7-1.9-3.3-2.9-4.6l1.8-0.9
		C335.7,433.1,336.6,434.6,337.5,436.3z M357.6,468.2L357,466l3.8,0.1c1.1,0,1.6-0.5,1.6-1.6v-5.9h-11.8v12.2h-2.3v-12.2h-11.8v9.1
		h-2.3v-11.2h14.2v-3.5h2.3v3.5h14.2v8.6c0,2.1-1.1,3.2-3.2,3.2H357.6z M338.5,442.1c-0.2,2.8-0.6,5.3-1.4,7.5l-1.6-0.6
		c0.8-2.1,1.3-4.4,1.4-7.1L338.5,442.1z M346.7,447.6l-1.6,0.4c-0.4-2.1-1-4.1-1.6-5.9l1.5-0.5C345.6,443.4,346.2,445.4,346.7,447.6
		z M349.4,432.5c-0.7,1.6-1.6,3.1-2.8,4.6l-1.8-0.9c1.1-1.6,2-3.1,2.7-4.5L349.4,432.5z M352.2,444l-1.3-1.7c2.8-3,4.7-6.6,5.7-10.9
		l2.1,0.3c-0.3,1.5-0.8,2.9-1.3,4.2H368v2.1h-2.1c-1,3.6-2.4,6.6-4.3,9c2.2,1.7,4.6,3.3,7.4,4.7l-1.1,1.9c-3-1.5-5.6-3.2-7.7-5.1
		c-2.1,2-4.5,3.5-7.4,4.5l-1.1-1.8c2.8-1,5.1-2.3,7-4.1c-1.4-1.4-2.6-2.8-3.6-4.3l1.1-1.6c1.1,1.6,2.4,3,3.9,4.4
		c1.7-2.1,3-4.7,3.8-7.6h-7.3C355.4,440.2,354,442.3,352.2,444z"/>
	<path fill="#58595B" d="M387.3,430.9c-1.7,2.8-3.1,5.8-4.1,9c-1.3,3.8-1.9,7.5-1.9,11.2c0,3.6,0.6,7.4,1.9,11.2
		c1,3.2,2.4,6.1,4.1,9h-2.4c-1.8-2.8-3.2-5.7-4.3-8.9c-1.3-3.8-1.9-7.6-1.9-11.3c0-3.7,0.6-7.5,1.9-11.2c1-3.2,2.5-6.2,4.3-8.9
		H387.3z"/>
	<path fill="#58595B" d="M415.4,439.6v-8.1h2.3v8.1h17.2v2.3h-14.7c3,7.2,8.3,13.6,16,19.1l-1.6,2c-7.9-6.3-13.4-13.3-16.4-21.2
		h-0.6v17.5h9.6v2.3h-9.6v9.1h-2.3v-9.1h-9.2v-2.3h9.2v-17.5h-0.6c-3.2,8.9-8.8,16.1-16.8,21.7l-1.3-2.1c7.6-5.1,13-11.6,16.2-19.6
		h-14.8v-2.3H415.4z"/>
	<path fill="#58595B" d="M454.4,434.8v-3.5h2.3v3.5h15.6v-3.5h2.3v3.5h7.9v2h-7.9v14.9h8.6v2.1h-9.6c2.2,2.9,5.6,5.3,10.2,6.9l-1,2
		c-5.4-2.3-9.3-5.3-11.5-8.9h-13.8c-2.2,3.7-5.9,6.7-11.1,9.1l-1.2-1.9c4.6-1.9,7.9-4.3,10-7.2h-9.5v-2.1h8.6v-14.9h-7.9v-2H454.4z
		 M465.7,455.7v3.8h9v2.1h-9v5.5h15v2.2H448v-2.2h15.3v-5.5h-9.1v-2.1h9.1v-3.8H465.7z M472.3,440.6v-3.8h-15.6v3.8H472.3z
		 M472.3,446.1v-3.6h-15.6v3.6H472.3z M472.3,451.8v-3.8h-15.6v3.8H472.3z"/>
	<path fill="#58595B" d="M513.5,431.9c4.2,5.3,10.4,9.6,18.4,13l-1.3,1.9c-7.5-3.2-13.6-7.5-18.1-12.7c-5.1,5.4-11.1,9.6-18.2,12.8
		L493,445c7.5-3.4,13.7-7.8,18.5-13.2H513.5z M523.7,443.7v2.1h-10.1v7h15.7v2.2h-15.7v12.3h5.4c1.6-2.9,3-6.1,4.2-9.5l2.1,0.8
		c-1.2,3.3-2.5,6.2-3.9,8.7h9.4v2.2h-36.8v-2.2h9.4c-1-2.9-2.2-5.7-3.8-8.4l2.1-0.8c1.5,2.5,2.8,5.6,4,9.2h5.6V455h-15.7v-2.2h15.7
		v-7h-10.1v-2.1H523.7z"/>
	<path fill="#58595B" d="M542.9,441.3V439H578v2.3h-16.4v11.1h14.3v2.2h-14.3V467h17.8v2.3h-38.1V467h17.8v-12.4h-14.3v-2.2h14.3
		v-11.1H542.9z M561.7,437.9l-2.1,0.8c-0.7-2.3-1.6-4.5-2.7-6.7l2.3-0.6C560.2,433.8,561.1,435.9,561.7,437.9z"/>
	<path fill="#58595B" d="M627.4,433.3v2.2h-13v4.4h10.3v10.4h-18.2c-0.9,1.6-1.7,3.1-2.5,4.4h23.9v2.2h-9.5
		c-0.9,2.9-2.6,5.2-5.1,7.1c4.6,1.4,9.3,3.1,14,5l-1.4,1.9c-4.9-2.1-9.8-3.9-14.8-5.5c-0.1,0-0.2,0.1-0.2,0.1
		c-4.1,2.2-10.8,4-20.1,5.2l-0.9-2.1c8.3-1,14.4-2.3,18.3-4.1c-3.7-1.1-7.5-2.1-11.2-3c1-1.6,2-3.1,3-4.7h-11.1v-2.2h12.4
		c0.9-1.5,1.7-3,2.5-4.4h-11.8v-10.4h10.3v-4.4h-13v-2.2H627.4z M602.4,441.9h-8.1v6.3h8.1V441.9z M616,457h-13.4
		c-0.9,1.4-1.6,2.6-2.4,3.7c3.4,0.7,6.9,1.6,10.5,2.7C613.3,461.6,615.1,459.5,616,457z M612.1,435.4h-7.5v4.4h7.5V435.4z
		 M612.1,441.9h-7.5v6.3h7.5V441.9z M622.4,441.9h-8.1v6.3h8.1V441.9z"/>
	<path fill="#58595B" d="M648.7,432.2c-1.1,3.3-2.5,6.5-4.1,9.4V471h-2.3v-25.5c-1.6,2.2-3.3,4.4-5.2,6.4l-0.8-2.5
		c4.8-5.4,8.2-11.4,10.2-18.1L648.7,432.2z M656,460c-1.9,3.4-4.1,6.3-6.6,8.8l-1.8-1.3c2.5-2.4,4.7-5.2,6.5-8.5L656,460z
		 M670.2,432.8c-2.6,1.4-5.3,2.5-8,3.5c-3,1-6.8,1.9-11.4,2.9l-1.2-1.9c4.1-0.6,7.8-1.5,10.9-2.5c2.9-0.9,5.5-1.9,7.8-3.1
		L670.2,432.8z M656.4,470.6l-0.5-2.2c1.1,0.1,2.2,0.2,3.3,0.2c1.2,0,1.8-0.5,1.8-1.6v-11c-3.4,0.2-6.8,0.3-10.4,0.4l-0.4-2
		c0.3-0.1,0.6-0.2,0.9-0.3c3.6-1.3,7.9-3.7,12.7-7.2c-3.8,0.2-7.9,0.3-12.1,0.4l-0.5-1.9c0.3-0.1,0.6-0.2,0.9-0.3
		c3.2-1.2,7.1-3.8,12-7.9l2.1,0.9c-4,3.3-7.5,5.7-10.5,7.3c3.7-0.2,7.2-0.3,10.7-0.5c1.6-1.2,3.1-2.4,4.7-3.7l2.1,0.9
		c-6.8,5.5-12.8,9.6-18,12.1c5.3-0.2,10.4-0.5,15.3-0.9c-1-1.5-2.1-2.8-3.2-4.1l1.9-0.8c2.2,2.5,4.2,5.3,5.9,8.3l-1.9,1
		c-0.5-0.9-1-1.8-1.6-2.5l-8.4,0.5v11.6c0,2-1.1,3-3.3,3H656.4z M675.6,467.5l-1.7,1.3c-1.7-2.6-4-5.5-6.9-8.6l1.7-1.1
		C671.8,462.3,674.1,465.1,675.6,467.5z"/>
	<path fill="#58595B" d="M108.5,535.1l-0.5-2.2c1.2,0.1,2.3,0.2,3.4,0.2c1.3,0,1.9-0.7,1.9-2v-11.5c-1.9,0.8-3.8,1.5-5.8,2.2
		l-0.6-2.3c2.2-0.6,4.3-1.3,6.4-2.2v-10.5h-5.5v-2.3h5.5v-8.1h2.3v8.1h5.2v2.3h-5.2v9.5c1.7-0.9,3.4-1.8,5.1-2.7v2.3
		c-1.6,1-3.3,1.9-5.1,2.7v13.2c0,2.3-1.2,3.5-3.5,3.5H108.5z M142.8,514.9v2.2c-1.4,4.2-3.8,7.9-7,10.8c3,2.2,6.7,4.1,11.1,5.7
		l-1.3,2c-4.6-1.8-8.4-3.9-11.5-6.3c-3.4,2.6-7.6,4.8-12.6,6.3l-1.3-1.9c4.8-1.5,8.8-3.5,12-5.9c-3.5-3.1-5.8-6.6-7-10.6h-2.8v-2.3
		H142.8z M139.9,498.1v9.5c0,1.1,0.6,1.6,1.8,1.6h3.9v2.2h-4.4c-2.4,0-3.6-1.2-3.6-3.5v-7.7h-9.1v2.9c0,4-2,7.1-5.9,9.3l-1.6-1.8
		c3.5-1.7,5.2-4.1,5.2-7.2v-5.4H139.9z M134,526.5c2.9-2.7,5.1-5.7,6.5-9.2h-13C128.6,520.7,130.8,523.8,134,526.5z"/>
	<path fill="#58595B" d="M168.3,506.7v2H156v-2H168.3z M171.2,531.4c-3.2,1.8-7.9,3.2-14,4.4l-1.1-1.9c6.1-1,10.7-2.4,13.9-4.1
		L171.2,531.4z M167.4,498.9v2.1h-10.5v-2.1H167.4z M188.7,512.6v16.5h-27.4v-16.5H188.7z M186.4,517.6v-3.2h-22.8v3.2H186.4z
		 M186.4,522.3v-3h-22.8v3H186.4z M186.4,524h-22.8v3.2h22.8V524z M169.9,505.7l-1.3-1.7c3.2-2.2,5.4-4.8,6.5-7.9l2.2,0.3
		c-0.3,0.9-0.7,1.7-1.1,2.5H192v1.7c-1.1,2.2-2.4,4.1-3.8,5.8l-1.6-1.3c1.1-1.2,2.1-2.6,3-4.1h-14.6
		C173.6,502.7,171.9,504.3,169.9,505.7z M182.5,502.4c-0.2,0.7-0.4,1.4-0.7,2c3.2,3.4,7.3,5.4,12.3,6.1l-1,2
		c-4.9-0.8-9-2.9-12.3-6.5c-2,3-5.4,5.1-10.2,6l-1.1-1.7c6.1-1.1,9.8-3.9,10.9-8.4L182.5,502.4z M193.8,533.9l-0.7,1.9
		c-4.6-1.8-9.4-3.2-14.4-4.2l0.8-1.6C184.5,530.9,189.3,532.2,193.8,533.9z"/>
	<path fill="#58595B" d="M221.4,502.7v2.3h-10.9v6.7h8.3c0,10.5-0.2,16.9-0.6,19.4c-0.3,2.7-2,4.1-5.1,4.1c-0.4,0-1.1,0-2.1-0.1
		l-0.5-2c0.9,0.1,1.7,0.1,2.4,0.1c1.9,0,2.9-0.9,3.2-2.7c0.3-1.9,0.4-7.4,0.5-16.5h-6c-0.2,9.8-2,17-5.3,21.6l-1.7-1.5
		c3.1-4.4,4.7-11.4,4.8-21.1V505h-4.2v-2.3H221.4z M214.5,501.8l-2,0.7c-0.7-2-1.6-3.9-2.7-5.8l2.3-0.6
		C213.1,498.2,213.9,500.1,214.5,501.8z M232.2,496.6c2.1,6.1,5.7,11.4,10.8,16.1l-1.3,1.9c-4.7-4.2-8.2-9.4-10.5-15.6
		c-2.6,6.9-5.8,12.2-9.7,15.9l-1.3-1.9c4.3-4.2,7.6-9.7,9.9-16.4H232.2z M240.4,533.9l-1.5,1.8c-4.1-3.6-9.4-6.9-15.8-10l1.4-1.7
		C230.7,527,236,530.3,240.4,533.9z M237.3,520.9l-1.4,1.6c-2.4-2.9-5.4-5.7-9.1-8.3l1.3-1.6C231.7,515.2,234.7,517.9,237.3,520.9z"
		/>
	<path fill="#58595B" d="M265.1,503.3v-7.1h2.3v21c-0.1,8.4-2.5,14.5-7.4,18.4l-1.8-1.6c3.1-2.4,5.1-5.8,6.1-10.2
		c-3.8,1-7.8,1.8-12.1,2.5l-0.6-2.3c4.6-0.6,8.9-1.4,13.1-2.5c0.2-1.4,0.3-2.8,0.3-4.3v-1.9h-11.4V513h11.4v-7.5h-12.4v-2.2H265.1z
		 M277.3,496.2v7.1h12.4v2.2h-12.4v7.5h11.5v2.2h-11.5v7.6h13.1v2.2h-13.1v10.5H275v-39.4H277.3z"/>
	<path fill="#58595B" d="M301.1,535.1l-0.5-2.2c1.2,0.1,2.3,0.2,3.4,0.2c1.3,0,1.9-0.7,1.9-2v-11.5c-1.9,0.8-3.8,1.5-5.8,2.2
		l-0.6-2.3c2.2-0.6,4.3-1.3,6.4-2.2v-10.5h-5.5v-2.3h5.5v-8.1h2.3v8.1h5.2v2.3h-5.2v9.5c1.7-0.9,3.4-1.8,5.1-2.7v2.3
		c-1.6,1-3.3,1.9-5.1,2.7v13.2c0,2.3-1.2,3.5-3.5,3.5H301.1z M335.3,514.9v2.2c-1.4,4.2-3.8,7.9-7,10.8c3,2.2,6.7,4.1,11.1,5.7
		l-1.3,2c-4.6-1.8-8.4-3.9-11.5-6.3c-3.4,2.6-7.6,4.8-12.6,6.3l-1.3-1.9c4.8-1.5,8.8-3.5,12-5.9c-3.5-3.1-5.8-6.6-7-10.6H315v-2.3
		H335.3z M332.4,498.1v9.5c0,1.1,0.6,1.6,1.8,1.6h3.9v2.2h-4.4c-2.4,0-3.6-1.2-3.6-3.5v-7.7H321v2.9c0,4-2,7.1-5.9,9.3l-1.6-1.8
		c3.5-1.7,5.2-4.1,5.2-7.2v-5.4H332.4z M326.5,526.5c2.9-2.7,5.1-5.7,6.5-9.2h-13C321.2,520.7,323.3,523.8,326.5,526.5z"/>
	<path fill="#58595B" d="M360.9,506.7v2h-12.4v-2H360.9z M363.7,531.4c-3.2,1.8-7.9,3.2-14,4.4l-1.1-1.9c6.1-1,10.7-2.4,13.9-4.1
		L363.7,531.4z M359.9,498.9v2.1h-10.5v-2.1H359.9z M381.3,512.6v16.5h-27.4v-16.5H381.3z M379,517.6v-3.2h-22.8v3.2H379z
		 M379,522.3v-3h-22.8v3H379z M379,524h-22.8v3.2H379V524z M362.4,505.7l-1.3-1.7c3.2-2.2,5.4-4.8,6.5-7.9l2.2,0.3
		c-0.3,0.9-0.7,1.7-1.1,2.5h15.8v1.7c-1.1,2.2-2.4,4.1-3.8,5.8L379,505c1.1-1.2,2.1-2.6,3-4.1h-14.6
		C366.1,502.7,364.4,504.3,362.4,505.7z M375,502.4c-0.2,0.7-0.4,1.4-0.7,2c3.2,3.4,7.3,5.4,12.3,6.1l-1,2c-4.9-0.8-9-2.9-12.3-6.5
		c-2,3-5.4,5.1-10.2,6l-1.1-1.7c6.1-1.1,9.8-3.9,10.9-8.4L375,502.4z M386.3,533.9l-0.7,1.9c-4.6-1.8-9.4-3.2-14.4-4.2l0.8-1.6
		C377,530.9,381.8,532.2,386.3,533.9z"/>
	<path fill="#58595B" d="M398.6,507.2l-2-1.3c2.6-2.9,4.5-6.3,5.7-9.9l2.2,0.5c-0.4,1.1-0.8,2.1-1.2,3.1H415v2h-7.8
		c1.3,1.6,2.2,3.2,3,4.6l-2.1,0.8c-1-1.8-2.1-3.6-3.4-5.4h-2.3C401.3,503.7,400,505.5,398.6,507.2z M414.5,516.1v-4.9h-15.6v-2.1
		h15.6v-3.2h2.3v3.2h15.6v2.1h-15.6v4.9h13.7v2.1h-4.4v4.8h8.4v2.1h-8.4v7.3c0,2.2-1.2,3.3-3.5,3.3h-6.3l-0.5-2.2
		c2.1,0.1,4.1,0.2,6,0.2c1.3,0,1.9-0.6,1.9-1.8V525h-27v-2.1h27v-4.8h-22.9v-2.1H414.5z M411.5,532.7l-1.8,1.3
		c-1.4-1.9-3.2-4-5.6-6.2l1.9-1.2C408.4,528.9,410.2,531,411.5,532.7z M417.4,505.5l-1.9-1.2c1.9-2.5,3.3-5.2,4.2-8.3l2.2,0.5
		c-0.3,1-0.7,2.1-1.1,3h12.8v2h-8.2c1.3,1.7,2.3,3.2,3,4.7l-2.1,0.8c-1-1.9-2.1-3.7-3.4-5.4h-3.1
		C419.1,502.9,418.3,504.3,417.4,505.5z"/>
	<path fill="#58595B" d="M448.6,524.9c-0.3,3.7-1,7-2,9.9l-2.1-0.6c1.1-2.8,1.8-6,2.1-9.5L448.6,524.9z M460.4,521.8l-1.9,0.4
		c-0.3-1-0.5-1.8-0.7-2.7c-4.2,1.3-8.3,2.2-12.2,2.8l-0.6-2.1c0.4-0.2,0.7-0.4,1-0.6c1.9-1.8,4.2-4.8,6.9-8.9
		c-2.6,0.5-5.1,0.9-7.6,1.2l-0.6-2c0.3-0.2,0.7-0.4,1-0.9c2.4-3.5,4.4-7.6,6.2-12.2l2.2,0.9c-2.2,5.1-4.4,9.1-6.7,12
		c2.2-0.3,4.4-0.6,6.7-1.1c1-1.7,2.1-3.5,3.2-5.4l2.1,0.8c-4.5,7.7-8.2,13-11.1,15.9c3-0.5,6-1.2,8.9-2.1c-0.5-1.4-1-2.8-1.6-4.1
		l1.9-0.6C458.6,515.6,459.5,518.5,460.4,521.8z M454.6,532.9l-2,0.4c-0.3-3.4-0.8-6.3-1.3-8.8l1.9-0.4
		C453.7,526.7,454.1,529.7,454.6,532.9z M460,529.2l-1.8,0.8c-0.7-2.4-1.6-4.6-2.4-6.4l1.8-0.6C458.5,524.9,459.3,527,460,529.2z
		 M460.3,500.4v-2.2H479v1.2c-0.7,4.4-1.6,8.1-2.6,11.1h5.3v2.2c-1,5.4-3.1,10.2-6,14.1c2.3,2.6,5.1,4.9,8.1,7l-1.6,1.8
		c-3-2.2-5.6-4.5-7.9-7.1c-2.5,2.9-5.7,5.3-9.3,7.3l-1.5-1.8c3.7-2,6.8-4.4,9.3-7.3c-2.9-3.5-5.1-7.3-6.8-11.6
		c-1,8.9-3.1,15.7-6.4,20.4l-1.7-1.5c4.2-6,6.3-15.7,6.4-29.1v-4.4H460.3z M474.1,510.5c1-2.8,1.8-6.2,2.5-10.1h-10.2v4.4
		c0,1.9-0.1,3.8-0.2,5.7H474.1z M474.1,525c2.6-3.5,4.4-7.6,5.3-12.2h-12.2C468.9,517.3,471.2,521.4,474.1,525z"/>
	<path fill="#58595B" d="M513.6,504h13.6v1.8c-5.1,9.6-12.6,16.9-22.6,22.1c0.2,0.2,0.3,0.3,0.5,0.6c1.9,2.3,4.4,3.6,7.6,3.9
		c2,0.1,4.9,0.1,8.6,0.1c2.3,0,5.4,0,9.5-0.1l-0.6,2.3h-8.6c-3.8,0-6.5,0-8.1-0.1c-4.6-0.1-8.1-1.8-10.5-5.2c-0.8-1-1.5-1.4-2.1-1.4
		c-1.4,0-3.3,2.5-5.8,7.6l-1.9-1.3c2.8-5.8,5.4-8.6,7.8-8.6c0.6,0,1,0.1,1.4,0.4l0.4,0.3c9.4-4.8,16.5-11.4,21.4-19.9h-28.5V504
		h15.3c-1.2-2.7-2.6-5.2-4.2-7.5l2.6-0.4C511,498.3,512.3,501,513.6,504z"/>
	<path fill="#58595B" d="M561.6,500H579v2.2h-38V500h18.1c-0.5-1.3-1-2.5-1.6-3.6l2.5-0.4C560.6,497.2,561.1,498.5,561.6,500z
		 M568.5,535.5l-0.6-2.1l3.5,0.1c1.9,0,2.9-0.8,2.9-2.3v-12.4h-28.7v16.8h-2.2v-19h33.1v15c0,2.6-1.5,3.9-4.4,3.9H568.5z
		 M571.8,505.6v7.9h-23.5v-7.9H571.8z M569.5,507.5h-19v4.1h19V507.5z M568.3,522v8.3h-16.5V522H568.3z M566.2,523.9h-12.2v4.6h12.2
		V523.9z"/>
	<path fill="#58595B" d="M621.7,497.9v18.5c0,6.9,0.2,11.4,0.6,13.3c0.4,1.9,1,2.9,1.6,2.9c0.8,0,1.5-2.4,2-7l1.9,0.9
		c-0.5,3.4-1,5.7-1.6,7c-0.6,1-1.3,1.6-2,1.6c-1.7,0-2.9-1.3-3.6-3.8c-0.8-2.5-1.2-7.5-1.2-14.9v-16.3h-25.5v15.3
		c-0.1,8-1.3,14.8-3.6,20.2l-1.8-1.5c2-4.9,3.1-11.2,3.2-18.7v-17.5H621.7z M616.9,504.6v2.1h-9.1v4.7h7.9v12.3h-7.9v7.2
		c2.3-0.3,4.3-0.8,5.9-1.3c-0.6-1.3-1.3-2.5-1.9-3.5l1.9-0.7c1.7,2.7,3.2,5.6,4.4,8.7L616,535c-0.5-1.2-1-2.4-1.4-3.4
		c-4.2,1.2-10.4,2.1-18.4,2.7l-0.6-2.2c3.8-0.2,7.1-0.5,10-0.8v-7.6h-7.9v-12.3h7.9v-4.7h-9.1v-2.1H616.9z M605.5,513.5h-5.7v8.2
		h5.7V513.5z M613.6,513.5h-5.8v8.2h5.8V513.5z"/>
	<path fill="#58595B" d="M650.4,498.2v1.9c-1.2,4.1-2.6,8.3-4.2,12.6c2.5,3.5,3.8,6.9,4,10c0,1.7-0.5,3-1.3,3.8
		c-1,1-2.9,1.5-5.6,1.5l-0.7-2.3c0.5,0,0.9,0.1,1.3,0.1c1.6-0.1,2.7-0.4,3.2-0.8c0.5-0.4,0.8-1.2,0.8-2.3c0-2.9-1.3-6.1-4-9.6
		c1.8-4.7,3.2-8.9,4.2-12.6h-7.1v35.2h-2.3v-37.4H650.4z M650.7,535.4L649,534c3.6-2.7,6.4-6.4,8.2-11l2,0.8
		c-0.5,1.2-1.1,2.3-1.6,3.4c1.8,1.2,3.3,2.4,4.6,3.6l-1.5,1.5c-1.1-1.1-2.4-2.3-4-3.5C654.9,531.5,652.9,533.7,650.7,535.4z
		 M650.9,508.2l-1.2-1.9c5.2-2.5,9.2-5.7,12.1-9.7h2c2.3,3.6,6.4,6.8,12.1,9.5l-1.3,1.9c-5.4-2.5-9.3-5.6-11.9-9.3
		c-2.1,2.7-4.5,4.9-7.1,6.7h14.1v2.1h-14.3v-2C654,506.6,652.5,507.5,650.9,508.2z M661.3,511.3v10.2h-9.2v-10.2H661.3z
		 M659.4,513.2h-5.3v6.4h5.3V513.2z M662.3,535.4l-1.6-1.4c3.5-2.7,6.2-6.3,8-10.8l1.9,0.8c-0.6,1.3-1.2,2.6-1.9,3.7
		c2.8,1.9,5.1,3.8,7,5.7l-1.5,1.5c-1.6-1.8-3.8-3.7-6.4-5.6C666.2,531.8,664.4,533.8,662.3,535.4z M673.8,511.3v10.2h-9.2v-10.2
		H673.8z M671.9,513.2h-5.3v6.4h5.3V513.2z"/>
	<path fill="#58595B" d="M118.7,562c-1,3.1-2.1,6-3.5,8.6v29.9h-2.3v-25.8c-1.6,2.4-3.2,4.7-5.1,6.7l-0.7-2.4
		c4.4-5.3,7.6-11.3,9.5-18L118.7,562z M129.9,596c-2.9,1.8-6.6,3.2-11.1,4.4l-1-1.9c4.3-1,7.9-2.3,10.8-4L129.9,596z M133.4,560.9
		v2.6H145v1.9h-11.6v3h10.1v1.9h-10.1v3.1h12.7v1.9H119v-1.9h12.2v-3.1h-9.8v-1.9h9.8v-3h-11.3v-1.9h11.3v-2.6H133.4z M142.8,577.9
		v16.1h-21v-16.1H142.8z M140.6,582.7v-2.9h-16.7v2.9H140.6z M140.6,587.4v-3h-16.7v3H140.6z M140.6,589.1h-16.7v2.9h16.7V589.1z
		 M146.6,598.4l-0.8,1.9c-3.5-1.7-7.3-3-11.1-3.9l0.9-1.8C139.4,595.5,143.1,596.7,146.6,598.4z"/>
	<path fill="#58595B" d="M171,568.2c0.8-2.4,1.4-5,1.9-7.6l2.3,0.3c-0.4,2.6-1,5.1-1.8,7.4h16.1v2.1h-16.8c-0.8,1.9-1.7,3.8-2.7,5.4
		h21.9v2.2h-10.1c2.2,3.3,6,6.2,11.4,8.8l-1.5,1.9c-5.8-3.2-9.9-6.7-12.3-10.7h-10.9c-3.4,4.6-7.9,8.2-13.5,10.8l-1.3-2
		c4.9-2.2,8.9-5.1,12-8.8h-10.7v-2.2h12.3c1.2-1.7,2.2-3.5,3-5.4h-13v-2.1H171z M162.2,586.6v-2.2h22.3c-0.1,3.8-0.3,7-0.7,9.4
		c-0.3,2.3-1,4-1.8,4.9c-0.8,0.9-2.1,1.4-3.9,1.5h-6.1l-0.6-2.2c1.9,0.1,3.8,0.1,5.6,0.1c2,0,3.3-0.7,3.9-2.1
		c0.7-1.5,1.1-4.6,1.3-9.4H171c-0.9,3.4-2.1,6-3.6,8c-1.9,2.2-4.7,4.1-8.3,5.9l-1.5-1.9c3.4-1.5,6-3.2,7.7-5c1.6-1.8,2.8-4.1,3.5-7
		H162.2z M166.2,566.9l-1.9,0.9c-1-2.3-2.2-4.3-3.4-6l2.1-0.7C164.2,562.8,165.3,564.8,166.2,566.9z M186.1,561.4
		c-1,2.4-2.2,4.6-3.8,6.4l-1.7-1c1.4-1.7,2.5-3.8,3.5-6.1L186.1,561.4z"/>
	<path fill="#58595B" d="M207.5,596.6v-33.7h24.6v33.7h6.8v2.3h-38.1v-2.3H207.5z M229.7,565.1h-19.8v8.7h19.8V565.1z M209.9,585
		h19.8v-9h-19.8V585z M209.9,596.6h19.8v-9.3h-19.8V596.6z"/>
	<path fill="#58595B" d="M266.2,563v2.2h-5.8v5.8h5.1v28.8h-2.1v-2.1h-13.1v2.3h-2V571h4.8v-5.8h-5.9V563H266.2z M263.3,595.6V584
		h-2.6c-1.6,0-2.5-0.8-2.5-2.4v-8.6h-3.2v3.4c0,4.5-1.1,7.9-3.2,10l-1.3-1.1c1.8-1.9,2.8-4.8,2.8-8.9v-3.4h-3.3v22.5H263.3z
		 M261.3,588.7v2h-9.1v-2H261.3z M258.4,571v-5.8H255v5.8H258.4z M263.3,573.1h-3.4v8.2c0,0.6,0.4,1,1.2,1h2.2V573.1z M284.2,597.2
		c-0.6,1.3-1.9,1.9-3.8,1.9h-7.9c-2.4,0-3.6-1.3-3.6-3.8v-17.9h12.1v-12.3h-13V563h15.2v16.7h-12v15c0,1.5,0.7,2.2,2.2,2.3h6.8
		c1.3,0,2.2-0.6,2.6-1.9c0.4-1.2,0.6-3.6,0.8-7.3l2.2,0.7C285.4,593,284.9,595.9,284.2,597.2z"/>
	<path fill="#58595B" d="M299.7,588.7c-1.1,4-2.5,7.4-4.4,10.3l-1.9-1.3c1.9-2.8,3.3-5.9,4.1-9.4L299.7,588.7z M309,564.4
		c0.6-1.2,1.1-2.4,1.5-3.6l2.4,0.3c-0.3,1.2-0.8,2.2-1.4,3.3h14.6V585h-26.6v-20.6H309z M323.8,570.7v-4.2h-22v4.2H323.8z
		 M323.8,576.7v-4.1h-22v4.1H323.8z M323.8,578.6h-22v4.3h22V578.6z M306.6,599.7c-2.2,0-3.3-1.1-3.3-3.2V588h2.4v8
		c0,1.1,0.5,1.7,1.6,1.7h10.1c1.1,0,1.9-0.3,2.3-0.7c0.6-0.6,1-2.5,1.2-5.5l2.2,0.7c-0.3,3.5-0.9,5.7-1.7,6.6c-0.7,0.6-1.9,1-3.5,1
		H306.6z M317.3,592.6l-1.8,1.3c-1.4-1.9-3.3-4-5.7-6.3l1.7-1.1C314.1,588.8,316,590.9,317.3,592.6z M332.4,596.9l-1.9,1.3
		c-1.6-2.9-3.8-6-6.7-9.5l1.8-1.2C328.6,591.1,330.8,594.2,332.4,596.9z"/>
	<path fill="#58595B" d="M357.9,568.2h-16.2v-2.3h16.2v-4.8h2.3v4.8h16.2v2.3h-16.2v12.3c4.8,6.7,10.9,12,18.4,15.7l-1.3,2.1
		c-6.7-3.5-12.4-8.3-17.2-14.4v16.3h-2.3v-16.2c-4.2,5.8-9.9,10.6-17,14.3l-1.2-2.1c7.9-4.1,14-9.3,18.2-15.8V568.2z M342.6,584.6
		l-1.5-1.8c3.9-3.2,6.5-7.4,7.9-12.7l2.2,0.4c-0.6,2.3-1.4,4.4-2.4,6.4c2.2,1.3,4.1,2.7,6,4.4l-1.3,2c-1.9-1.9-3.8-3.4-5.7-4.5
		C346.3,581,344.6,582.9,342.6,584.6z M364.9,583.4l-1.5-1.8c3.3-2.8,5.6-6.6,6.8-11.4l2.2,0.4c-0.6,2.2-1.3,4.2-2.2,6
		c2.4,1.5,4.7,3.2,6.8,5.3l-1.3,2c-2.2-2.2-4.3-4.1-6.5-5.4C368.1,580.3,366.6,582,364.9,583.4z"/>
	<path fill="#58595B" d="M395.1,579l-1.6,1.6c-1.8-2-4.2-4.2-7.3-6.5l1.6-1.5C390.7,574.7,393.2,576.8,395.1,579z M395.5,584.9
		c-2,5.4-4.2,10.6-6.6,15.3l-2.2-1c2.6-4.9,4.9-10,6.8-15.2L395.5,584.9z M396.4,568.7l-1.6,1.6c-1.9-2.1-4.5-4.4-7.8-6.7l1.6-1.5
		C391.7,564.2,394.3,566.4,396.4,568.7z M411.1,569.7c0.6-1.5,1.1-3,1.3-4.6h-11.3v13.6c-0.2,9-1.8,16.2-4.9,21.7l-1.8-1.6
		c2.8-4.8,4.3-11.6,4.4-20.1V563h25.5v2.1h-9.8c-0.3,1.6-0.8,3.2-1.4,4.6h8.8v14.7h-7.4v12.8c0,2.1-1,3.1-3,3.1H408l-0.5-2.2
		c1.1,0.1,2.2,0.2,3.3,0.2c1,0,1.6-0.6,1.6-1.6v-12.3h-7.7v-14.7H411.1z M408.3,588.2c-1.1,3.8-2.8,7.2-4.9,9.9l-1.9-1.2
		c2.1-2.7,3.6-5.7,4.6-9.2L408.3,588.2z M419.9,576.1v-4.5h-13.1v4.5H419.9z M419.9,578h-13.1v4.4h13.1V578z M424.9,597.3l-2,0.9
		c-1.5-3.7-3.1-7-4.8-9.9l2-0.6C421.9,590.7,423.5,593.9,424.9,597.3z"/>
	<path fill="#58595B" d="M471.2,563.8v2.3h-5.9v30c0,2.7-1.3,4-4,4h-7.1l-0.5-2.2c2.4,0.1,4.7,0.2,6.8,0.2c1.6,0,2.4-0.9,2.4-2.5
		v-29.4h-30.1v-2.3H471.2z M454.2,588.7h-13.9v3.9h-2.2v-19.2h16.2V588.7z M452,586.6v-11h-11.7v11H452z"/>
	<path fill="#58595B" d="M492.6,586.1c-1.6-0.3-3.1-0.6-4.5-0.8c-1.3-0.2-2.6-0.4-3.9-0.5v2.6c-0.1,5.4-1.3,9.8-3.7,13.1l-1.7-1.6
		c2-3,3.1-6.8,3.1-11.4v-11h15.3v21c0,1.8-1,2.8-3,2.8h-4l-0.6-2.2c1.4,0,2.7,0.1,3.9,0.1c1,0,1.5-0.5,1.5-1.5v-5.6
		c-3.1,0.6-6.4,1.2-9.9,1.6l-0.5-2c3.6-0.4,7.1-0.9,10.5-1.6v-10.5h-10.8v4.3c2,0.2,3.7,0.4,5,0.6c1,0.1,2.5,0.4,4.2,0.7
		L492.6,586.1z M500,573.5l-1.9,1.3c-0.5-1-1-2-1.6-3c-4.6,0.7-10.1,1.3-16.6,1.7l-0.6-2c0.4-0.1,0.8-0.3,1.1-0.6
		c2.7-2.7,5.1-6,7.1-9.9l2.2,0.6c-2.2,4.2-4.5,7.5-7,9.7c4.1-0.2,8.3-0.6,12.8-1.3c-1-1.6-2-3.1-3.2-4.7l1.8-1.2
		C496.7,567.8,498.6,570.9,500,573.5z M504.2,561.4v5.8l11.9-0.8v2.2l-11.9,0.8v6.5c0,1.1,0.6,1.6,1.7,1.6h10.9v2.2h-11.5
		c-2.3,0-3.5-1.2-3.5-3.4v-14.9H504.2z M505.2,599.7c-2.2,0-3.2-1.1-3.2-3.2v-14.9h2.3v5l12.1-0.7v2.2l-12.1,0.8v7.2
		c0,1,0.5,1.6,1.6,1.6h6.5c1,0,1.8-0.3,2.2-0.7c0.5-0.6,0.9-2.3,1-5.2l2.2,0.7c-0.3,3.4-0.8,5.5-1.6,6.4c-0.7,0.6-1.8,0.9-3.3,0.9
		H505.2z"/>
	<path fill="#58595B" d="M563,583.9c-0.1,7.9-0.6,12.6-1.5,14.1c-1,1.6-2.6,2.3-5.1,2.3c-1.2,0-2.6,0-4.2-0.1l-0.6-2.2
		c1.8,0.1,3.2,0.1,4.4,0.2c2,0,3.3-0.7,3.8-2s0.8-4.7,0.9-10.2h-27.3c-2.1,2.2-4.4,4.1-7,5.8l-1.1-2.1c6.9-4.7,11.9-11.1,14.9-19.4
		h-12.1v-2.1H541c0.7-2.4,1.3-4.8,1.8-7.4l2.3,0.3c-0.5,2.5-1.1,4.9-1.8,7.1h13.6l-1.9,7.6h5.5l-1.7,8.1H563z M536,590
		c-1.2,3.5-2.9,6.6-5,9.2l-2-1.3c2.2-2.5,3.8-5.2,4.8-8.3L536,590z M537.6,566.4l-1.8,1.3c-1-1.6-2.2-3.2-3.7-5.1l1.8-1.2
		C535.5,563.4,536.7,565,537.6,566.4z M535.3,583.9h21.2l1.5-6h-18.7C538.1,580.1,536.7,582.1,535.3,583.9z M542.9,597.9l-2.2,0.3
		c-0.3-3.5-0.8-6.1-1.6-7.9l2-0.3C542,591.8,542.6,594.5,542.9,597.9z M542.7,570.3c-0.7,1.9-1.4,3.8-2.2,5.5h12.4l1.5-5.5H542.7z
		 M550.1,596.1l-2.1,0.8c-0.8-2.5-1.7-4.8-2.7-7.2l1.9-0.6C548.5,591.6,549.5,593.9,550.1,596.1z M556.8,594.4l-2.2,0.5
		c-0.7-2.2-1.6-4.2-2.7-6.2l1.9-0.6C554.9,589.9,555.9,592,556.8,594.4z"/>
	<path fill="#58595B" d="M590.1,569.2v-8.1h2.3v8.1h17.2v2.3h-14.7c3,7.2,8.3,13.6,16,19.1l-1.6,2c-7.9-6.3-13.4-13.3-16.4-21.2
		h-0.6V589h9.6v2.3h-9.6v9.1h-2.3v-9.1h-9.2V589h9.2v-17.5h-0.6c-3.2,8.9-8.8,16.1-16.8,21.7l-1.3-2.1c7.6-5.1,13-11.6,16.2-19.6
		h-14.8v-2.3H590.1z"/>
	<path fill="#58595B" d="M638.7,561.5c4.2,5.3,10.4,9.6,18.4,13l-1.3,1.9c-7.5-3.2-13.6-7.5-18.1-12.7c-5.1,5.4-11.1,9.6-18.2,12.8
		l-1.3-1.9c7.5-3.4,13.7-7.8,18.5-13.2H638.7z M649,573.3v2.1h-10.1v7h15.7v2.2h-15.7v12.3h5.4c1.6-2.9,3-6.1,4.2-9.5l2.1,0.8
		c-1.2,3.3-2.5,6.2-3.9,8.7h9.4v2.2h-36.8v-2.2h9.4c-1-2.9-2.2-5.7-3.8-8.4l2.1-0.8c1.5,2.5,2.8,5.6,4,9.2h5.6v-12.3h-15.7v-2.2
		h15.7v-7h-10.1v-2.1H649z"/>
	<path fill="#58595B" d="M667.9,560.5c1.8,2.8,3.2,5.7,4.3,8.9c1.2,3.8,1.9,7.5,1.9,11.2c0,3.7-0.6,7.5-1.9,11.3
		c-1.1,3.2-2.5,6.1-4.3,8.9h-2.4c1.7-2.9,3.1-5.8,4.1-9c1.2-3.8,1.9-7.6,1.9-11.2c0-3.7-0.6-7.4-1.9-11.2c-1-3.2-2.4-6.2-4.1-9
		H667.9z"/>
</g>
<path fill="#FFD25C" d="M785.8,297.4H0v-236C0,27.5,27.5,0,61.4,0h663c33.9,0,61.4,27.5,61.4,61.4V297.4z"/>
<path fill="#FFD25C" d="M651.4,755.9h-517c-11.6,0-21-9.4-21-21v-73c0-11.6,9.4-21,21-21h517c11.6,0,21,9.4,21,21v73
	C672.4,746.5,663,755.9,651.4,755.9z"/>
<g>
	<g>
		<path fill="#58595B" d="M318.6,706.9c-0.2,3.2-0.6,6-1.3,8.6l-3.3-1c0.8-2.3,1.3-5,1.6-7.9L318.6,706.9z M322.3,695.5v-2.4h-7v-16
			h17.7v16h-7v2.4h6.6v3.2h-6.6v2.5h7.5v3.6h-18.7v-3.6h7.6v-2.5h-6.7v-3.2H322.3z M322.5,680.2h-4v9.8h4V680.2z M322.2,688.2
			l-2.1,0.6c-0.4-2.1-0.9-4-1.5-5.8l2.1-0.7C321.2,683.9,321.8,685.9,322.2,688.2z M323.5,714.7l-3.3,0.4c0-3.4-0.1-6-0.3-7.9l3-0.4
			C323.2,708.7,323.4,711.4,323.5,714.7z M328.9,713.8l-3.3,0.7c-0.3-2.8-0.7-5.2-1.2-7.3l2.9-0.6
			C328,708.8,328.5,711.2,328.9,713.8z M329.6,680.2h-4.1v9.8h4.1V680.2z M329.3,682.3c-0.2,2.2-0.6,4.4-1.3,6.4l-2.1-0.7
			c0.6-1.9,1-4,1.2-6.3L329.3,682.3z M333.8,712.7l-2.9,1.1c-0.5-2.4-1.1-4.7-1.7-7l2.9-0.8C332.8,708.5,333.4,710.7,333.8,712.7z
			 M344.9,675.9v7.6h8.6v3.8h-8.6v6.9h7.1v21.3h-3.8v-2.1h-9.3v2.1H335v-21.3h5.9v-18.3H344.9z M348.2,709.7v-11.8h-9.3v11.8H348.2z
			"/>
		<path fill="#58595B" d="M380.8,699.6c-2.3,0.8-4.8,1.5-7.4,2.2v9c0,2.8-1.5,4.2-4.4,4.2h-4.8l-0.9-3.9c1.5,0.2,2.9,0.3,4.3,0.3
			c1.1,0,1.6-0.5,1.6-1.6v-7c-2.6,0.6-5.2,1.1-8,1.5l-0.6-4.1c3-0.5,5.8-1,8.6-1.6v-7.7h-8.6v-3.9h8.6v-4.6
			c-2.2,0.4-4.4,0.8-6.7,1.1l-0.9-3.9c6-0.6,11.4-1.9,16.1-3.8l1.4,3.8c-1.9,0.6-3.8,1.3-5.8,1.8v5.5h9.3c-0.3-3.4-0.4-7.1-0.4-11.1
			h4.1c0,4.2,0.1,7.9,0.4,11.1h13v3.9h-12.7c0.3,2.9,0.6,5.2,1.2,7.1c0.2,0.8,0.4,1.6,0.6,2.2c1.9-2.2,3.5-4.8,4.9-7.6l3.5,1.9
			c-1.9,4-4.2,7.4-6.9,10.2c0.5,1.2,1,2.2,1.5,2.9c1.3,1.9,2.3,2.9,3,2.9c0.6,0,1.1-2.2,1.7-6.7l3.6,1.9c-1.1,6.1-2.7,9.2-4.8,9.2
			c-1.9,0-3.8-1.3-5.8-3.8c-0.8-1-1.6-2.2-2.2-3.6c-3,2.5-6.3,4.5-10,5.9l-2.3-3.5c4.1-1.5,7.6-3.6,10.6-6.4c-0.5-1.4-1-2.9-1.3-4.4
			c-0.6-2.3-1.1-5.1-1.4-8.3h-9.7v6.8c2.6-0.7,5.1-1.4,7.4-2.2V699.6z M399.1,682l-3,2.9c-1.8-1.9-4.3-3.9-7.6-6.1l2.8-2.6
			C394.3,678.1,396.9,680,399.1,682z"/>
		<path fill="#58595B" d="M417.9,686.2v3.2c-1.3,2.2-2.8,4.5-4.4,6.7h5.7v2.7c-0.8,3.3-1.7,6-2.8,8c0.3,0.2,0.5,0.4,0.8,0.7
			c1.4,1.3,2.7,2.2,4,2.7c1.3,0.5,3.1,0.8,5.5,0.9c2.3,0,5.1,0,8.1,0c3.2,0,7.3-0.1,12.4-0.3l-0.9,3.9h-10.9c-3,0-6-0.1-8.8-0.2
			c-2.9-0.1-5.2-0.4-6.7-1c-1.8-0.7-3.5-1.8-4.9-3.3c-0.3-0.3-0.6-0.4-1-0.4c-0.9,0-2.2,1.9-4.1,5.7l-3-2.7c2.1-4,4-6.3,5.9-6.8
			c1-2,1.9-4.1,2.5-6.4h-6.6v-3.1c1.9-2.2,3.5-4.4,4.8-6.5h-5.9v-3.7H417.9z M417.8,682.1l-2.7,2.7c-1.6-1.9-3.8-4-6.6-6.2l2.7-2.6
			C413.9,678,416,680,417.8,682.1z M419.8,692.4l-1.2-3.9c3.1-3.8,5.2-7.9,6.5-12.4l3.8,0.6c-0.4,1.4-1,2.8-1.5,4.1h6.4
			c-0.6-1.4-1.3-2.8-2.2-4.1l3.7-1c1,1.9,1.7,3.6,2.3,5.1h7.4v3.7h-7.6v4.1h6.4v3.6h-6.4v4h6.4v3.5h-6.4v4.2h8.1v3.7h-22.9v-18.6
			C421.7,690.2,420.8,691.3,419.8,692.4z M433.6,684.5h-7v4.1h7V684.5z M433.6,692.2h-7v4h7V692.2z M433.6,699.8h-7v4.2h7V699.8z"/>
		<path fill="#58595B" d="M465.7,681.1v-4h9.4c1.2,13.1,7.1,24.6,17.8,34.4l-2.3,3.5c-8.7-7.9-14.4-16.9-17.1-27.2
			c-3.1,11.7-8.9,20.7-17.7,27.1l-2.5-3.5c9.5-7,15.7-17.2,18.5-30.4H465.7z"/>
	</g>
</g>
<g>
	<path fill="#58595B" d="M218.5,106.4c-2,0.7-4,1.4-6,2.1v17.4c0,5-0.8,7.8-3.5,9.7c-2.7,1.7-6.4,2.2-11.6,2.1
		c-0.2-2.9-1.5-7.6-2.9-10.7c2.5,0.2,5.1,0.2,6.1,0.2c1,0,1.3-0.3,1.3-1.3v-13.8l-5.6,1.9l-2.5-11c2.4-0.6,5.1-1.3,8.2-2.2V88.2h-7
		V77.7h7V63.2h10.5v14.5h4.7v10.5h-4.7v9.3l4.2-1.3L218.5,106.4z M253.2,112.9c4.3,4.9,10.1,9.3,15.8,12.2c-2.5,2.1-6,6.2-7.7,9
		c-5.2-3.2-10.3-8.1-14.5-13.5v17.9h-11.3v-16.7c-4,5.3-8.7,9.9-14.2,13c-1.6-2.6-4.9-6.6-7.3-8.6c6.2-2.9,11.8-7.7,15.8-13.2h-11
		v-10.2h16.7v-7.4h11.3v7.4h19.8v10.2H253.2z M241.3,78.2c-0.6,11.1-3,17.6-19.4,20.8c-0.9-2.6-3.4-6.8-5.5-8.9
		c13-1.7,14.1-4.8,14.5-11.9H241.3z M229.1,83.8h-10.6V66.4h48.1v16.9h-11.2v-7.2h-26.3V83.8z M253.6,78.1V85c0,1.8,0.2,2.5,1.5,2.5
		h5.9c1.7,0,4-0.2,5.3-0.6c0.2,2.6,0.5,7.1,0.8,9.5c-1.4,0.6-3.6,0.6-5.9,0.6h-5.9c-9.7,0-11.9-3.1-11.9-12.1v-6.8H253.6z"/>
	<path fill="#58595B" d="M301.7,127.2c-8.2,2-17,3.9-24.2,5.5l-1.9-10.6c2.5-0.4,5.3-0.9,8.4-1.5v-16.7H278V93.6h6.1V78.1h-6.7V67.7
		h24.3v10.4h-7.1v15.5h5.2v10.2h-5.2v14.6l6.1-1.3L301.7,127.2z M321.8,98.1c0,16.4-1.9,31.2-17,40.5c-1.4-2.5-4.8-6.5-7.1-8.2
		c11.2-6.7,13.5-16.8,13.9-28.3l-4,1.8c-1.7-5.3-5.7-13.6-9-19.8l8.3-3.2c1.5,2.7,3.2,5.7,4.7,8.7V63.2h10.1V98.1z M351.8,125.5
		v10.6h-32.9v-10.6h13.6v-19.8h-8.6V95.4h8.6V78.1h-9.3V67.7h27.5v10.4h-7.2v17.4h6.5v10.2h-6.5v19.8H351.8z"/>
	<path fill="#58595B" d="M433.5,75.3c0,0,0,3.6-0.1,5c-1,35.3-1.7,48.1-5.1,52.4c-2.5,3.5-4.9,4.4-8.4,5.1
		c-3.2,0.6-8.1,0.5-12.8,0.3c-0.2-3.1-1.7-8-3.8-11.2c5.1,0.5,9.8,0.5,12,0.5c1.6,0,2.5-0.3,3.5-1.4c2.3-2.5,3.2-14.1,3.9-40.2
		h-15.1c-2.1,4.5-4.4,8.6-6.7,11.8c-1.4-1.3-4.1-3.3-6.5-4.9v37.7h-20.8v5.6h-10.4V76.1h9c0.8-4,1.5-9,1.7-12.9l12.6,1.7
		c-1.3,3.9-2.7,7.8-4,11.2h11.7v10.5c4-6.4,7.4-15,9.4-23.2l11.1,2.6c-0.9,3.1-1.9,6.2-3,9.3H433.5z M384,86.1h-10.4v10.7H384V86.1z
		 M384,120.3v-13.6h-10.4v13.6H384z M410.1,117.9c-2.1-4.8-6.8-12.6-10.4-18.5l9-5.1c3.6,5.4,8.7,12.9,11.1,17.6L410.1,117.9z"/>
	<path fill="#58595B" d="M469.4,130.1c-1.9-3.2-4.8-7.4-7.7-11.3c-2.1,7.3-5.5,14.2-11.2,20c-1.6-2.5-5.2-6.7-7.6-8.4
		c7.9-8.4,10.3-19.5,10.9-30.4l-7.1,2.9c-0.6-6.1-2.3-16.2-4-23.9l8.3-2.9c1,4.2,2.1,9.1,3,13.6V64.2h10.5v26.5
		c1.2-5.1,2.3-11.5,2.9-16.3l10,3.6c-2.5,6.3-4.8,13.9-6.7,18.5l-6.1-2.6c-0.1,4.3-0.2,8.6-0.7,13c3.6,3.6,11,12.8,13,15.1
		L469.4,130.1z M504.9,122.3c4.6,2.8,10.9,6.9,14.3,9.7l-9.1,6.5c-3-2.9-9.4-7.5-14.1-10.6l8.2-5.6h-17.3l7.7,5.5
		c-4.5,4.1-11.8,8.6-17.8,11.1c-1.7-2.2-4.8-5.6-7.1-7.8c5.1-2,10.9-5.6,14.7-8.8h-7.2V79.8h12.2c0.2-1.4,0.5-2.9,0.6-4.2h-15.3V66
		h42.9v9.6h-14.6c-0.6,1.4-1.1,2.9-1.6,4.2H515v42.5H504.9z M503.8,88.1h-16v3.6h16V88.1z M503.8,99.2h-16v3.6h16V99.2z
		 M503.8,110.5h-16v3.6h16V110.5z"/>
	<path fill="#58595B" d="M546.6,95.4c-0.4-2.5-1.1-5.9-1.9-9.4v52.5h-9.3V86.9c-0.5,5.4-1.3,11.2-2.5,15.4l-6.5-2.2
		c1.6-5.5,2.8-14.6,3.2-21l5.8,0.7V63.2h9.3v15.1l4.7-1.3c1.6,5.2,3.4,12,4.1,16L546.6,95.4z M561,96.5c-1.7-4.5-5.2-10.9-9.3-16.7
		c2.9-5.1,5.7-11.2,7.2-15.4l10.1,2.1c-2.2,5.3-4.4,9.1-6.7,13.2c3.4,4.5,6.7,9.7,8.5,13.5L561,96.5z M583,94.5
		c-0.7,1.7-1.4,3.2-2.1,4.7h17.7V138h-11v-2.4h-23.7v2.8h-10.5V99.2h16.1c0.7-2,1.3-4.1,1.7-5.8l4.3,0.4c-2.1-4.2-5.6-9.6-9.6-14.7
		c3-5,6.2-10.9,7.8-15.1l10.1,2.1c-2.4,5.2-4.8,9-7.1,12.8c3.6,4.3,7.3,9.4,9.2,13.1l-6,2.1L583,94.5z M587.6,108.1H579l7.4,2.3
		c-1.2,2-2.7,3.9-4.3,5.7c2,1.3,3.8,2.6,5.1,3.7l-5.5,6.2c-1.3-1.2-3.2-2.6-5.3-4.1c-2,1.7-4,3.3-5.9,4.6c-1.4-1.4-4.7-3.9-6.7-5.1
		v5.2h23.7V108.1z M563.9,108.1V121c1.8-1,3.7-2.3,5.4-3.6c-1.7-1-3.5-2.1-5.1-2.9l5.2-5.5c1.7,0.9,3.7,1.9,5.7,3
		c1.1-1.3,2.1-2.5,3-3.9H563.9z M592,96.7c-2.1-4.6-6.7-11.1-11.7-17c3.5-5.2,7.2-11.4,9.2-15.7l10.2,2.4c-2.7,5.3-5.5,9.2-8.2,13.2
		c4,4.5,8.2,9.8,10.3,13.6L592,96.7z"/>
	<path fill="#58595B" d="M303.4,223.5v13.3h-71v-13.3H303.4z M296.8,178.1v12.8H239v-12.8H296.8z"/>
	<path fill="#58595B" d="M338.3,210.6c-2,0.7-4,1.4-6,2.1v17.4c0,5-0.8,7.8-3.5,9.7c-2.7,1.7-6.4,2.2-11.6,2.1
		c-0.2-2.9-1.5-7.6-2.9-10.7c2.5,0.2,5.1,0.2,6.1,0.2c1,0,1.3-0.3,1.3-1.3v-13.8l-5.6,1.9l-2.5-11c2.4-0.6,5.1-1.3,8.2-2.2v-12.5h-7
		v-10.5h7v-14.5h10.5v14.5h4.7v10.5h-4.7v9.3l4.2-1.3L338.3,210.6z M373,217.1c4.3,4.9,10.1,9.3,15.8,12.2c-2.5,2.1-6,6.2-7.7,9
		c-5.2-3.2-10.3-8.1-14.5-13.5v17.9h-11.3v-16.7c-4,5.3-8.7,9.9-14.2,13c-1.6-2.6-4.9-6.6-7.3-8.6c6.2-2.9,11.8-7.7,15.8-13.2h-11
		v-10.2h16.7v-7.4h11.3v7.4h19.8v10.2H373z M361.1,182.4c-0.6,11.1-3,17.6-19.4,20.8c-0.9-2.6-3.4-6.8-5.5-8.9
		c13-1.7,14.1-4.8,14.5-11.9H361.1z M348.9,188h-10.6v-17.4h48.1v16.9h-11.2v-7.2h-26.3V188z M373.4,182.3v6.9
		c0,1.8,0.2,2.5,1.5,2.5h5.9c1.7,0,4-0.2,5.3-0.6c0.2,2.6,0.5,7.1,0.8,9.5c-1.4,0.6-3.6,0.6-5.9,0.6h-5.9c-9.7,0-11.9-3.1-11.9-12.1
		v-6.8H373.4z"/>
	<path fill="#58595B" d="M397.7,227.8l8-9.7c4.2,3.6,9.7,6,14.3,6c5.2,0,7.7-2,7.7-5.1c0-3.4-3.2-4.5-8.3-6.7l-7.5-3.2
		c-6.2-2.5-12-7.6-12-16.2c0-9.9,8.9-17.8,21.4-17.8c6.8,0,14,2.6,19.2,7.8l-7.1,8.9c-3.9-2.9-7.5-4.5-12.1-4.5
		c-4.4,0-7.1,1.7-7.1,4.9c0,3.2,3.7,4.5,9,6.6l7.4,2.9c7.3,2.9,11.6,7.8,11.6,16.2c0,9.8-8.2,18.5-22.5,18.5
		C412,236.2,403.8,233.4,397.7,227.8z"/>
	<path fill="#58595B" d="M456,176.2h17c18,0,29.9,8.6,29.9,29.2c0,20.5-11.9,29.8-29.1,29.8H456V176.2z M472.1,223.7
		c9.5,0,16.2-4.4,16.2-18.4c0-14-6.7-17.9-16.2-17.9h-1.9v36.3H472.1z"/>
	<path fill="#58595B" d="M549.6,235.1l-10.9-20.8h-6.8v20.8h-14.2v-58.9h21.6c12.6,0,23.1,4.3,23.1,18.5c0,8.6-4,14.2-10.1,17
		l13.2,23.4H549.6z M531.9,203.2h6.3c6.7,0,10.3-2.9,10.3-8.5c0-5.5-3.6-7.4-10.3-7.4h-6.3V203.2z"/>
</g>
<g>
</g>
<g>
</g>
<g>
</g>
<g>
</g>
<g>
</g>
<g>
</g>
<g>
</g>
<g>
</g>
<g>
</g>
<g>
</g>
<g>
</g>
<g>
</g>
<g>
</g>
<g>
</g>
<g>
</g>
</svg>
