<?xml version="1.0" encoding="utf-8"?>
<!-- Generator: Adobe Illustrator 18.0.0, SVG Export Plug-In . SVG Version: 6.00 Build 0)  -->
<!DOCTYPE svg PUBLIC "-//W3C//DTD SVG 1.1//EN" "http://www.w3.org/Graphics/SVG/1.1/DTD/svg11.dtd">
<svg version="1.1" id="Layer_1" xmlns="http://www.w3.org/2000/svg" xmlns:xlink="http://www.w3.org/1999/xlink" x="0px" y="0px"
	 viewBox="0 0 671.9 434.4" enable-background="new 0 0 671.9 434.4" xml:space="preserve">
<path opacity="0.88" fill="#FFFFFF" d="M610.9,434.4H61c-33.7,0-61-27.3-61-61V61C0,27.3,27.3,0,61,0h549.9c33.7,0,61,27.3,61,61
	v312.4C671.9,407.1,644.6,434.4,610.9,434.4z"/>
<g>
	<path fill="#58595B" d="M97.9,63.5l-1.4,1.3c-1.1-1.7-2.7-3.6-4.6-5.6l1.3-1.2C95.1,59.8,96.6,61.7,97.9,63.5z M97.8,68.4
		c-1.2,4.7-2.5,9.2-4,13.4l-1.7-0.7c1.6-4.4,2.9-8.8,4.1-13.3L97.8,68.4z M98.6,54.6l-1.3,1.3c-1.2-1.7-2.8-3.5-4.8-5.5l1.3-1.3
		C95.7,50.9,97.3,52.8,98.6,54.6z M103.6,52.5v-3.7h1.8v3.7h4.6v1.7h-4.6v3.6h3.6v12.8h-3.6v4h4.5v1.7h-4.5v6h-1.8v-6h-4.9v-1.7h4.9
		v-4h-3.6V57.9h3.6v-3.6H99v-1.7H103.6z M107.2,63.5v-4h-5.5v4H107.2z M107.2,65.1h-5.5v4h5.5V65.1z M118.5,48.7
		c1.4,3.1,3.7,5.8,7.1,8.1l-1,1.6c-3.1-2.1-5.4-4.8-7-7.9c-1.8,3.4-4.2,6.1-7,7.9l-1-1.6c3-2.1,5.4-4.8,7.1-8.1H118.5z M111.4,80.3
		l1.9,0.1c0.9,0,1.4-0.6,1.4-1.6v-5.5c-1.2,1.5-2.5,2.9-4,4.1l-0.7-1.6c1.8-1.4,3.4-3,4.7-4.9v-9.7h-3.9v-1.7h5.6v19.9
		c0,1.7-0.9,2.6-2.7,2.6h-1.8L111.4,80.3z M113.5,69.6l-1.3,0.6c-0.6-2.4-1.1-4.4-1.8-6.2l1.3-0.4C112.4,65.4,113,67.4,113.5,69.6z
		 M118.7,80.3l2.1,0.1c0.8,0,1.2-0.5,1.2-1.5v-6.2c-1.3,1.6-2.8,3-4.5,4.2l-0.7-1.6c2-1.4,3.7-3,5.2-4.9v-9.2h-4.2v-1.7h5.9v19.9
		c0,1.7-0.9,2.6-2.6,2.6h-2L118.7,80.3z M120.8,69.3l-1.3,0.6c-0.5-2.4-1.1-4.5-1.8-6.4l1.3-0.4C119.7,65.1,120.3,67.2,120.8,69.3z"
		/>
	<path fill="#58595B" d="M166.4,50.2v1.9h-10.3v7.2h8.2v12.1h-8.3V79H167v1.9h-32.4V79h10.8v-7.5h-8.2V59.3h8.2v-7.1H135v-1.9H166.4
		z M154.1,69.5h8.3v-8.3h-8.2v-9.1h-6.8v9h-8.2v8.3h8.2V79h6.8V69.5z"/>
	<path fill="#58595B" d="M177.2,63.2l-1.1-1.8c7.1-2.5,12.2-5.7,15.3-9.6h-7.5v-1.9h10.4c2.9,4.5,8.1,8.2,15.4,10.9l-1.4,1.8
		c-6.7-2.7-11.7-6.2-15-10.7c-2.3,3.3-5.7,6.2-10.2,8.7h19.8v2h-8.8v7.2H205v2h-10.9v7.4h14.3v2h-30.4v-2H192v-7.4h-11v-2h11v-7.2
		h-9.1v-1.9C181.2,61.5,179.3,62.4,177.2,63.2z"/>
	<path fill="#58595B" d="M230.3,51.2v1.9h-4.6v9.3h3.8v1.9h-3.8v8.3c1.6-0.7,3.2-1.4,4.8-2.2v2c-3.6,1.9-7.5,3.4-11.7,4.7l-0.5-2
		c1.8-0.5,3.7-1,5.4-1.7v-9.1h-4.5v-1.9h4.5v-9.3h-4.9v-1.9H230.3z M237.7,70.9c-2.1,2.8-4.7,5.3-7.8,7.5l-0.8-1.9
		c3.2-2,5.9-4.4,8.2-7.3L237.7,70.9z M239.6,55.2v-6.5h1.9v6.5h9v1.9h-9v3.5c0.6,2.1,1.4,4.1,2.3,5.9c1.8-1.9,3.4-4.1,4.9-6.5
		l1.6,1.1c-1.8,2.8-3.7,5.1-5.6,7c2,3.6,4.4,6.8,7.4,9.4l-1.3,1.6c-4.1-3.8-7.1-8.4-9.2-13.9v13.9c0,1.8-0.9,2.7-2.6,2.7h-4.2
		l-0.4-1.9c1.4,0.1,2.7,0.1,4,0.1c0.9,0,1.4-0.5,1.4-1.4V57.1H231v-1.9H239.6z M236.8,66.8l-1.4,1c-1-1.9-2.4-4-4.1-6.3l1.6-1
		C234.5,62.9,235.8,65,236.8,66.8z M249.8,53.6l-1.3,1.3c-1.2-1.5-2.8-3-4.8-4.6l1.2-1.1C246.9,50.6,248.5,52.1,249.8,53.6z"/>
	<path fill="#58595B" d="M278.8,51.8h14.9v1.9h-32.5v-1.9h15.5c-0.4-1.1-0.8-2.2-1.3-3.1l2.2-0.4C278,49.4,278.4,50.5,278.8,51.8z
		 M284.7,82.1l-0.5-1.8l3,0.1c1.7,0,2.5-0.7,2.5-2V67.8h-24.5v14.4h-1.9V66h28.3v12.8c0,2.2-1.3,3.3-3.8,3.3H284.7z M287.6,56.6v6.8
		h-20.1v-6.8H287.6z M285.6,58.2h-16.2v3.5h16.2V58.2z M284.6,70.6v7.1h-14.1v-7.1H284.6z M282.8,72.2h-10.5v3.9h10.5V72.2z"/>
	<path fill="#58595B" d="M304.2,73c0.4-0.1,0.7-0.4,0.7-0.8V51.9h2v20.5c2.1-0.6,4.1-1.3,6.1-2.1V48.7h2V82h-2v-9.8
		c-2.6,1-5.4,1.8-8.2,2.5L304.2,73z M317.5,65l-1.3-1.5c3.1-3.8,5.2-8.8,6.4-15.1l2,0.4c-0.4,2-0.8,3.9-1.4,5.7h12.7v2h-3.3
		c-0.2,6.3-1.8,11.6-4.6,16c2.4,3.2,5.2,6,8.6,8.4l-1.4,1.6c-3.4-2.4-6.2-5.2-8.5-8.3c-2.4,3.2-5.7,5.8-9.6,8l-1.1-1.8
		c4-2.1,7.2-4.7,9.5-7.8c-2.1-3-3.8-6.4-5-10l1.6-0.9c1.1,3.3,2.7,6.3,4.6,9.1c2.4-4.1,3.8-8.9,3.9-14.4h-8.2
		C321.2,59.8,319.5,62.7,317.5,65z"/>
	<path fill="#58595B" d="M358.3,60.3c-3.2,3.1-7.2,5.7-12,7.7l-0.9-1.8c4.7-1.8,8.6-4.3,11.7-7.3L358.3,60.3z M373.5,78.9h4.8v1.9
		h-32.5v-1.9h5V67h22.7V78.9z M365.9,55.3c1.6-2.1,3.1-4.4,4.2-6.9l2,0.7c-1.2,2.3-2.5,4.4-4,6.2h9.5v1.9h-31v-1.9H365.9z M358,54
		l-1.6,1.1c-1.2-1.7-2.8-3.5-4.8-5.6l1.6-1C355.3,50.5,356.9,52.4,358,54z M357.7,78.9v-10h-4.9v10H357.7z M364.7,78.9v-10h-5.1v10
		H364.7z M378.5,66.3l-1.1,1.7c-3.7-3.1-7.6-5.5-11.5-7.3l1.1-1.6C371.1,61.1,375,63.5,378.5,66.3z M371.5,78.9v-10h-4.9v10H371.5z"
		/>
	<path fill="#58595B" d="M397.3,49.4c-0.8,2.6-1.8,5.1-3,7.4v25.6h-2V60.2c-1.3,2.1-2.8,4-4.4,5.8l-0.6-2.1
		c3.8-4.5,6.5-9.7,8.2-15.4L397.3,49.4z M406.9,78.5c-2.5,1.5-5.7,2.8-9.5,3.8l-0.8-1.7c3.7-0.9,6.8-2,9.2-3.4L406.9,78.5z
		 M409.9,48.5v2.2h9.9v1.6h-9.9v2.5h8.6v1.6h-8.6v2.6h10.9v1.7h-23.2v-1.7H408v-2.6h-8.4v-1.6h8.4v-2.5h-9.6v-1.6h9.6v-2.2H409.9z
		 M417.9,63v13.7h-18V63H417.9z M416,67.1v-2.5h-14.3v2.5H416z M416,71.1v-2.5h-14.3v2.5H416z M416,72.6h-14.3v2.5H416V72.6z
		 M421.2,80.5l-0.7,1.7c-3-1.4-6.2-2.5-9.5-3.3l0.8-1.5C415,78.1,418.1,79.1,421.2,80.5z"/>
	<path fill="#58595B" d="M444.5,54.7c0.7-2.1,1.2-4.2,1.6-6.5l2,0.2c-0.4,2.3-0.9,4.4-1.6,6.3h13.7v1.8h-14.4
		c-0.7,1.7-1.4,3.2-2.3,4.6h18.7V63h-8.6c1.9,2.8,5.2,5.3,9.8,7.5l-1.3,1.6c-5-2.7-8.5-5.8-10.5-9.1h-9.3c-2.9,3.9-6.8,7-11.6,9.2
		l-1.1-1.7c4.2-1.8,7.6-4.4,10.3-7.5h-9.2v-1.8h10.5c1-1.5,1.8-3,2.5-4.6h-11.1v-1.8H444.5z M437.1,70.4v-1.9h19.1
		c-0.1,3.3-0.3,6-0.6,8.1c-0.3,2-0.8,3.4-1.5,4.2c-0.7,0.7-1.8,1.2-3.4,1.3h-5.2l-0.5-1.9c1.7,0.1,3.3,0.1,4.8,0.1
		c1.7,0,2.8-0.6,3.4-1.8c0.6-1.3,1-4,1.1-8h-9.6c-0.7,2.9-1.8,5.1-3.1,6.8c-1.6,1.9-4,3.5-7.1,5l-1.3-1.6c2.9-1.3,5.1-2.7,6.6-4.3
		c1.3-1.5,2.4-3.5,3-6H437.1z M440.5,53.5l-1.7,0.7c-0.9-2-1.8-3.7-2.9-5.2l1.8-0.6C438.7,50.1,439.7,51.8,440.5,53.5z M457.5,48.9
		c-0.8,2.1-1.9,3.9-3.2,5.5l-1.5-0.8c1.2-1.5,2.2-3.3,3-5.2L457.5,48.9z"/>
	<path fill="#58595B" d="M480.1,51.5v-3h2v3h13.3v-3h2v3h6.8v1.7h-6.8V66h7.4v1.8h-8.2c1.8,2.5,4.8,4.5,8.7,5.9l-0.8,1.7
		c-4.7-2-7.9-4.5-9.8-7.6h-11.8c-1.9,3.1-5,5.7-9.5,7.8l-1-1.7c3.9-1.6,6.8-3.7,8.5-6.1h-8.2V66h7.4V53.2h-6.8v-1.7H480.1z
		 M489.8,69.3v3.2h7.7v1.8h-7.7v4.7h12.9v1.9h-28v-1.9h13.1v-4.7H480v-1.8h7.8v-3.2H489.8z M495.4,56.4v-3.2h-13.3v3.2H495.4z
		 M495.4,61.1V58h-13.3v3.1H495.4z M495.4,66v-3.2h-13.3V66H495.4z"/>
	<path fill="#58595B" d="M531.9,48.9c3.6,4.5,8.9,8.2,15.8,11.2l-1.1,1.7c-6.4-2.7-11.6-6.4-15.5-10.9c-4.3,4.6-9.5,8.2-15.6,11
		l-1.1-1.6c6.4-2.9,11.7-6.7,15.8-11.3H531.9z M540.7,59v1.8h-8.6v6h13.4v1.9h-13.4v10.5h4.6c1.4-2.5,2.6-5.2,3.6-8.1l1.8,0.7
		c-1,2.8-2.1,5.3-3.4,7.4h8.1v1.9h-31.4v-1.9h8c-0.8-2.5-1.9-4.9-3.3-7.2l1.8-0.7c1.3,2.1,2.4,4.8,3.4,7.8h4.8V68.7h-13.4v-1.9h13.4
		v-6h-8.6V59H540.7z"/>
	<path fill="#58595B" d="M569.1,52.2c2.4,0,4.3,0.6,5.7,1.7c1.4,1.2,2.1,2.8,2.1,4.9c0,1.5-0.4,2.8-1.3,3.9c-0.8,1-2,1.7-3.3,2.1
		c1.7,0.3,3.1,1,4.1,2.1c1,1.1,1.5,2.6,1.5,4.4c0,2.5-0.9,4.4-2.7,5.7c-1.6,1.1-3.7,1.6-6.3,1.6h-11.5V52.2H569.1z M559.8,64h8.9
		c1.9,0,3.4-0.4,4.4-1.3c1.1-0.8,1.6-2.1,1.6-3.7c0-1.6-0.6-2.9-1.6-3.7c-1.1-0.8-2.5-1.2-4.4-1.2h-8.9V64z M559.8,76.7h9.2
		c2,0,3.5-0.4,4.7-1.2c1.4-1,2.1-2.3,2.1-4.2c0-1.8-0.7-3.2-1.9-4.1c-1.2-0.9-2.8-1.3-4.9-1.3h-9.1V76.7z"/>
	<path fill="#58595B" d="M98.9,126.3c0.1-0.5,0.1-1,0.1-1.4v-3.3h1.9v3.3c0,0.5,0,1-0.1,1.4h7.2v1.8h-7.5l-0.2,1
		c2.9,2.2,5.3,4.4,7.2,6.6l-1.3,1.3c-1.7-2-3.8-4.1-6.5-6.3c-1.2,3-3.4,5.4-6.6,7.1l-1.5-1.3c3.8-1.9,6.1-4.7,6.9-8.4h-6.2v-1.8
		H98.9z M97.9,116c-1.4,2.1-3,4-5,5.5l-1-1.4c1.9-1.5,3.5-3.2,4.8-5.2L97.9,116z M99.5,111.4v-7.2h1.9v7.2h6.5v1.7h-6.5v7.4h-1.9
		v-7.4h-6.8v-1.7H99.5z M97.5,109.4l-1.5,0.7c-0.8-1.7-1.7-3.3-2.6-4.6l1.6-0.5C96,106.3,96.8,107.8,97.5,109.4z M107.2,124.9
		l-1.4,1c-0.7-1.1-1.7-2.4-2.9-3.7l1.3-0.8C105.5,122.6,106.5,123.8,107.2,124.9z M108.6,119.5l-1.1,1.3c-1.4-1.9-2.9-3.5-4.5-4.9
		l1.1-1.1C105.7,116.2,107.3,117.8,108.6,119.5z M107.3,105.3c-0.7,1.7-1.6,3.2-2.5,4.5l-1.3-1c0.9-1.2,1.7-2.6,2.4-4.2L107.3,105.3
		z M115.8,131.9c-1.7,2.3-3.8,4.3-6.2,6l-1.1-1.5c2.4-1.6,4.4-3.5,6.1-5.7L115.8,131.9z M124.9,105.5v1.8h-7
		c-0.1,1.3-0.1,2.4-0.3,3.5h6v19.2h-13.2v-19.2h5.2c0.1-1.1,0.3-2.3,0.3-3.5h-7.2v-1.8H124.9z M121.7,116.7v-4.1h-9.4v4.1H121.7z
		 M121.7,122.5v-4h-9.4v4H121.7z M121.7,124.1h-9.4v4.2h9.4V124.1z M125.4,136.3l-1.3,1.3c-1.5-1.8-3.4-3.7-5.9-5.7l1.3-1.2
		C121.8,132.6,123.8,134.4,125.4,136.3z"/>
	<path fill="#58595B" d="M148.6,127.9v-3.6h2v3.6h12.9v1.9h-12.9v4.9h15v1.9h-32.3v-1.9h15.3v-4.9h-13.2v-1.9H148.6z M151.7,105.8
		v1.8h-4v6.1h4.7v1.9h-4.7v8.3h-1.9v-8.3h-5.4c-0.4,3.9-1.8,6.9-4.4,8.8l-1.5-1.3c2.3-1.7,3.5-4.1,3.9-7.5h-4.8v-1.9h4.9v-6.1h-4
		v-1.8H151.7z M140.5,113.7h5.3v-6.1h-5.3V113.7z M157,106.5v12.7h-1.9v-12.7H157z M156.1,124.2l-0.4-1.9c1.6,0.1,3.2,0.1,4.7,0.1
		c0.9,0,1.4-0.6,1.4-1.7v-16.3h2v16.8c0,2-0.9,3-2.7,3H156.1z"/>
	<path fill="#58595B" d="M192.5,123.5v1.9h-18.7v-1.9H192.5z"/>
	<path fill="#58595B" d="M217.6,112.1c2.1,10.3,7.5,18.1,16.2,23.5l-1.3,1.7c-7.9-5.1-13.1-12.1-15.6-20.8
		c-2,8.4-7.3,15.3-15.9,20.8l-1.2-1.8c10.3-6.4,15.6-14.9,16-25.6c0-2.6,0-4.6,0-6h2C217.9,107.1,217.8,109.8,217.6,112.1z"/>
	<path fill="#58595B" d="M247.2,134.6c3.4-0.7,6.8-1.6,10.2-2.8l0.4,1.9c-3.4,1.1-7.7,2.2-12.9,3.3l-0.5-1.8c0.4-0.2,0.7-0.6,0.7-1
		v-28.6h26v10.2h-10.7c0.1,2.1,0.4,4.1,0.8,5.8h12.3v1.9h-11.9c0.3,1.3,0.7,2.4,1.1,3.4c1.3,2.9,2.6,5,4.1,6.4
		c1.3,1.2,2.6,1.8,3.7,1.8c0.5,0,0.9-0.4,1.3-1.1c0.4-0.8,0.7-2.5,1-5.1l1.8,1c-0.4,3.1-1,5.1-1.6,6c-0.6,0.9-1.3,1.4-2.1,1.4
		c-1.7,0-3.4-0.9-5.2-2.5c-1.8-1.7-3.4-4.1-4.7-7.3c-0.5-1.2-0.9-2.5-1.3-3.9h-12.6V134.6z M247.2,107.5v6.4h22.1v-6.4H247.2z
		 M247.2,115.8v5.8h12.2c-0.4-1.8-0.7-3.8-0.9-5.8H247.2z"/>
	<path fill="#58595B" d="M295.1,122.3l-0.4-1.6l1.8,0.1c0.7,0,1.1-0.4,1.1-1.2V111h-5.1v11h-1.6v-11h-5.3v11.3h-1.7v-13h7V104h1.7
		v5.3h6.8v10.6c0,1.6-0.8,2.4-2.3,2.4H295.1z M288.6,108.1l-1.5,0.7c-0.8-1.5-1.6-2.8-2.5-3.9l1.5-0.7
		C287,105.4,287.8,106.7,288.6,108.1z M305.8,135.4l-0.5-1.9l3.3,0.1c0.9,0,1.4-0.4,1.4-1.3v-5.1h-10.1v10.4h-2v-10.4h-10.1v7.8h-2
		v-9.6h12.1v-3h2v3h12.1v7.3c0,1.8-0.9,2.7-2.7,2.7H305.8z M289.4,113.1c-0.1,2.4-0.6,4.5-1.2,6.4l-1.4-0.5c0.7-1.8,1.1-3.8,1.2-6.1
		L289.4,113.1z M296.5,117.8l-1.4,0.4c-0.4-1.8-0.8-3.5-1.4-5.1l1.3-0.4C295.5,114.2,296,115.9,296.5,117.8z M298.8,104.9
		c-0.6,1.3-1.4,2.7-2.4,4l-1.5-0.8c1-1.3,1.7-2.6,2.3-3.9L298.8,104.9z M301.2,114.7l-1.1-1.4c2.4-2.5,4-5.7,4.9-9.3l1.8,0.2
		c-0.3,1.3-0.7,2.5-1.1,3.6h9v1.8h-1.8c-0.8,3.1-2.1,5.7-3.7,7.7c1.8,1.5,4,2.8,6.4,4l-0.9,1.7c-2.6-1.3-4.8-2.7-6.6-4.3
		c-1.8,1.7-3.9,3-6.4,3.8l-0.9-1.6c2.4-0.8,4.4-2,5.9-3.5c-1.2-1.2-2.2-2.4-3.1-3.7l0.9-1.4c1,1.3,2.1,2.5,3.3,3.7
		c1.5-1.8,2.5-4,3.2-6.5h-6.2C303.9,111.5,302.6,113.2,301.2,114.7z"/>
	<path fill="#58595B" d="M331.1,103.5c-1.5,2.4-2.7,4.9-3.5,7.7c-1.1,3.3-1.6,6.4-1.6,9.6c0,3.1,0.5,6.3,1.6,9.6
		c0.8,2.7,2,5.2,3.5,7.7h-2c-1.6-2.4-2.8-4.9-3.7-7.6c-1.1-3.3-1.6-6.5-1.6-9.6c0-3.2,0.5-6.4,1.6-9.6c0.9-2.7,2.1-5.3,3.7-7.6
		H331.1z"/>
	<path fill="#58595B" d="M355.2,110.9V104h2v6.9h14.7v2h-12.6c2.5,6.1,7.1,11.6,13.7,16.4l-1.3,1.7c-6.7-5.4-11.4-11.4-14-18.1h-0.5
		v15h8.2v2h-8.2v7.8h-2v-7.8h-7.9v-2h7.9v-15h-0.5c-2.7,7.6-7.5,13.7-14.3,18.5l-1.1-1.8c6.5-4.3,11.2-9.9,13.9-16.7h-12.6v-2H355.2
		z"/>
	<path fill="#58595B" d="M388.5,106.9v-3h2v3h13.3v-3h2v3h6.8v1.7h-6.8v12.8h7.4v1.8H405c1.8,2.5,4.8,4.5,8.7,5.9l-0.8,1.7
		c-4.7-2-7.9-4.5-9.8-7.6h-11.8c-1.9,3.1-5,5.7-9.5,7.8l-1-1.7c3.9-1.6,6.8-3.7,8.5-6.1h-8.2v-1.8h7.4v-12.8h-6.8v-1.7H388.5z
		 M398.2,124.7v3.2h7.7v1.8h-7.7v4.7H411v1.9h-28v-1.9h13.1v-4.7h-7.8V128h7.8v-3.2H398.2z M403.8,111.8v-3.2h-13.3v3.2H403.8z
		 M403.8,116.5v-3.1h-13.3v3.1H403.8z M403.8,121.4v-3.2h-13.3v3.2H403.8z"/>
	<path fill="#58595B" d="M439,104.3c3.6,4.5,8.9,8.2,15.8,11.2l-1.1,1.7c-6.4-2.7-11.6-6.4-15.5-10.9c-4.3,4.6-9.5,8.2-15.6,11
		l-1.1-1.6c6.4-2.9,11.7-6.7,15.8-11.3H439z M447.8,114.4v1.8h-8.6v6h13.4v1.9h-13.4v10.5h4.6c1.4-2.5,2.6-5.2,3.6-8.1l1.8,0.7
		c-1,2.8-2.1,5.3-3.4,7.4h8.1v1.9h-31.4v-1.9h8c-0.8-2.5-1.9-4.9-3.3-7.2l1.8-0.7c1.3,2.1,2.4,4.8,3.4,7.8h4.8v-10.5h-13.4v-1.9
		h13.4v-6h-8.6v-1.8H447.8z"/>
	<path fill="#58595B" d="M464.1,112.4v-2h30v2h-14v9.5h12.2v1.9h-12.2v10.6h15.3v2h-32.5v-2h15.3v-10.6h-12.2v-1.9h12.2v-9.5H464.1z
		 M480.3,109.5l-1.8,0.7c-0.6-2-1.4-3.9-2.3-5.7l2-0.6C479,105.9,479.7,107.8,480.3,109.5z"/>
	<path fill="#58595B" d="M536.4,105.5v1.8h-11.2v3.8h8.8v8.9h-15.6c-0.7,1.4-1.4,2.6-2.1,3.8h20.4v1.9h-8.1
		c-0.8,2.4-2.3,4.5-4.4,6.1c3.9,1.2,7.9,2.7,12,4.3l-1.2,1.6c-4.2-1.8-8.4-3.3-12.6-4.7c-0.1,0-0.1,0.1-0.1,0.1
		c-3.5,1.9-9.3,3.4-17.2,4.4l-0.8-1.8c7.1-0.8,12.3-2,15.7-3.5c-3.2-1-6.4-1.8-9.6-2.5c0.9-1.3,1.7-2.7,2.5-4h-9.5v-1.9h10.6
		c0.7-1.3,1.5-2.5,2.2-3.8h-10v-8.9h8.8v-3.8h-11.2v-1.8H536.4z M515,112.9h-6.9v5.4h6.9V112.9z M526.7,125.8h-11.5
		c-0.7,1.2-1.4,2.2-2,3.1c2.9,0.6,5.9,1.4,8.9,2.3C524.4,129.8,525.9,128,526.7,125.8z M523.3,107.4h-6.4v3.8h6.4V107.4z
		 M523.3,112.9h-6.4v5.4h6.4V112.9z M532.1,112.9h-6.9v5.4h6.9V112.9z"/>
	<path fill="#58595B" d="M554.7,104.7c-1,2.8-2.1,5.5-3.5,8.1v25h-2v-21.8c-1.3,1.9-2.8,3.8-4.4,5.5l-0.7-2.1
		c4.1-4.6,7-9.7,8.8-15.5L554.7,104.7z M560.9,128.4c-1.6,2.9-3.5,5.4-5.7,7.5l-1.5-1.1c2.1-2,4-4.5,5.5-7.3L560.9,128.4z
		 M573,105.1c-2.3,1.2-4.5,2.2-6.9,3c-2.6,0.8-5.8,1.7-9.7,2.4l-1-1.6c3.5-0.6,6.6-1.3,9.3-2.1c2.5-0.7,4.7-1.6,6.7-2.6L573,105.1z
		 M561.2,137.5l-0.4-1.8c1,0.1,1.9,0.1,2.8,0.1c1,0,1.6-0.4,1.6-1.3V125c-2.9,0.1-5.8,0.3-8.9,0.4l-0.4-1.7c0.2-0.1,0.5-0.1,0.7-0.2
		c3.1-1.1,6.7-3.2,10.9-6.1c-3.3,0.1-6.7,0.3-10.3,0.4l-0.4-1.6c0.3-0.1,0.5-0.1,0.7-0.2c2.7-1,6.1-3.3,10.2-6.8l1.8,0.7
		c-3.4,2.8-6.4,4.9-8.9,6.3c3.1-0.1,6.2-0.3,9.1-0.4c1.3-1,2.7-2.1,4-3.2l1.8,0.8c-5.8,4.7-11,8.2-15.4,10.3
		c4.5-0.2,8.9-0.4,13.1-0.8c-0.9-1.3-1.8-2.4-2.7-3.5l1.6-0.7c1.9,2.1,3.6,4.5,5.1,7.1l-1.6,0.8c-0.4-0.8-0.9-1.5-1.3-2.2l-7.2,0.4
		v9.9c0,1.7-1,2.6-2.8,2.6H561.2z M577.7,134.8l-1.5,1.1c-1.4-2.2-3.4-4.7-5.9-7.4l1.5-1C574.4,130.3,576.3,132.7,577.7,134.8z"/>
	<path fill="#58595B" d="M92.8,192.6l-0.4-1.9c1,0.1,2,0.1,2.9,0.1c1.1,0,1.7-0.6,1.7-1.7v-9.8c-1.6,0.7-3.3,1.3-4.9,1.8l-0.5-2
		c1.8-0.5,3.7-1.1,5.5-1.9v-8.9h-4.7v-2h4.7v-6.9h2v6.9h4.5v2h-4.5v8.1c1.5-0.7,2.9-1.5,4.3-2.3v2c-1.4,0.8-2.8,1.6-4.3,2.3v11.3
		c0,2-1,3-3,3H92.8z M122.1,175.3v1.9c-1.2,3.6-3.2,6.7-6,9.3c2.5,1.8,5.7,3.5,9.5,4.9l-1.1,1.7c-3.9-1.6-7.2-3.4-9.8-5.4
		c-2.9,2.3-6.5,4.1-10.8,5.4l-1.1-1.7c4.1-1.3,7.5-3,10.3-5.1c-3-2.7-4.9-5.7-6-9h-2.4v-2H122.1z M119.6,161v8.2
		c0,0.9,0.5,1.4,1.6,1.4h3.3v1.9h-3.7c-2.1,0-3.1-1-3.1-3v-6.6h-7.8v2.5c0,3.4-1.7,6.1-5.1,7.9l-1.4-1.6c3-1.4,4.4-3.5,4.4-6.2V161
		H119.6z M114.5,185.2c2.5-2.3,4.4-4.9,5.6-7.9H109C110,180.3,111.8,183,114.5,185.2z"/>
	<path fill="#58595B" d="M143.9,168.3v1.7h-10.6v-1.7H143.9z M146.4,189.4c-2.8,1.6-6.8,2.8-11.9,3.7l-0.9-1.6
		c5.2-0.9,9.2-2.1,11.9-3.5L146.4,189.4z M143.1,161.6v1.8h-8.9v-1.8H143.1z M161.4,173.4v14.1h-23.4v-14.1H161.4z M159.4,177.6
		v-2.7h-19.5v2.7H159.4z M159.4,181.6v-2.5h-19.5v2.5H159.4z M159.4,183.1h-19.5v2.7h19.5V183.1z M145.2,167.5l-1.1-1.5
		c2.7-1.8,4.6-4.1,5.6-6.8l1.9,0.2c-0.3,0.7-0.6,1.4-0.9,2.1h13.5v1.5c-1,1.9-2.1,3.5-3.3,4.9l-1.4-1.1c0.9-1,1.8-2.2,2.5-3.5h-12.4
		C148.4,164.9,147,166.3,145.2,167.5z M156,164.6c-0.1,0.6-0.4,1.2-0.6,1.7c2.7,2.9,6.2,4.7,10.5,5.2l-0.8,1.7
		c-4.2-0.7-7.7-2.5-10.5-5.5c-1.7,2.6-4.6,4.3-8.7,5.1l-1-1.5c5.2-1,8.4-3.4,9.3-7.2L156,164.6z M165.7,191.6l-0.6,1.6
		c-3.9-1.6-8.1-2.7-12.3-3.6l0.7-1.4C157.7,189,161.8,190.1,165.7,191.6z"/>
	<path fill="#58595B" d="M189.3,164.9v2H180v5.7h7.1c0,8.9-0.2,14.4-0.6,16.5c-0.3,2.3-1.7,3.5-4.4,3.5c-0.4,0-1,0-1.8-0.1l-0.4-1.7
		c0.8,0.1,1.5,0.1,2.1,0.1c1.6,0,2.5-0.8,2.8-2.3c0.2-1.6,0.4-6.3,0.4-14.1H180c-0.2,8.4-1.7,14.6-4.5,18.5l-1.5-1.3
		c2.7-3.8,4-9.8,4.1-18v-6.8h-3.6v-2H189.3z M183.4,164.2l-1.7,0.6c-0.6-1.7-1.4-3.4-2.3-4.9l2-0.5
		C182.2,161.1,182.9,162.7,183.4,164.2z M198.5,159.6c1.8,5.2,4.9,9.8,9.2,13.7l-1.1,1.7c-4-3.6-7-8-9-13.3
		c-2.2,5.9-4.9,10.4-8.3,13.6l-1.1-1.7c3.7-3.6,6.5-8.3,8.5-14H198.5z M205.5,191.6l-1.3,1.5c-3.5-3.1-8.1-5.9-13.5-8.6l1.2-1.4
		C197.2,185.7,201.8,188.5,205.5,191.6z M202.9,180.5l-1.2,1.4c-2-2.5-4.6-4.8-7.8-7.1l1.1-1.4C198.1,175.6,200.7,177.9,202.9,180.5
		z"/>
	<path fill="#58595B" d="M226.7,165.4v-6.1h2v17.9c-0.1,7.2-2.2,12.4-6.3,15.7l-1.6-1.3c2.7-2.1,4.4-5,5.2-8.8
		c-3.3,0.8-6.7,1.6-10.3,2.1l-0.5-2c3.9-0.5,7.6-1.2,11.2-2.1c0.1-1.2,0.2-2.4,0.3-3.7v-1.6h-9.8v-1.9h9.8v-6.4H216v-1.9H226.7z
		 M237.1,159.4v6.1h10.6v1.9h-10.6v6.4h9.8v1.9h-9.8v6.5h11.2v1.9h-11.2v9h-2v-33.7H237.1z"/>
	<path fill="#58595B" d="M257.4,192.6l-0.4-1.9c1,0.1,2,0.1,2.9,0.1c1.1,0,1.7-0.6,1.7-1.7v-9.8c-1.6,0.7-3.3,1.3-4.9,1.8l-0.5-2
		c1.8-0.5,3.7-1.1,5.5-1.9v-8.9h-4.7v-2h4.7v-6.9h2v6.9h4.5v2h-4.5v8.1c1.5-0.7,2.9-1.5,4.3-2.3v2c-1.4,0.8-2.8,1.6-4.3,2.3v11.3
		c0,2-1,3-3,3H257.4z M286.7,175.3v1.9c-1.2,3.6-3.2,6.7-6,9.3c2.5,1.8,5.7,3.5,9.5,4.9l-1.1,1.7c-3.9-1.6-7.2-3.4-9.8-5.4
		c-2.9,2.3-6.5,4.1-10.8,5.4l-1.1-1.7c4.1-1.3,7.5-3,10.3-5.1c-3-2.7-4.9-5.7-6-9h-2.4v-2H286.7z M284.2,161v8.2
		c0,0.9,0.5,1.4,1.6,1.4h3.3v1.9h-3.7c-2.1,0-3.1-1-3.1-3v-6.6h-7.8v2.5c0,3.4-1.7,6.1-5.1,7.9l-1.4-1.6c3-1.4,4.4-3.5,4.4-6.2V161
		H284.2z M279.1,185.2c2.5-2.3,4.4-4.9,5.6-7.9h-11.1C274.6,180.3,276.4,183,279.1,185.2z"/>
	<path fill="#58595B" d="M308.5,168.3v1.7H298v-1.7H308.5z M311,189.4c-2.8,1.6-6.8,2.8-11.9,3.7l-0.9-1.6c5.2-0.9,9.2-2.1,11.9-3.5
		L311,189.4z M307.7,161.6v1.8h-8.9v-1.8H307.7z M326,173.4v14.1h-23.4v-14.1H326z M324,177.6v-2.7h-19.5v2.7H324z M324,181.6v-2.5
		h-19.5v2.5H324z M324,183.1h-19.5v2.7H324V183.1z M309.8,167.5l-1.1-1.5c2.7-1.8,4.6-4.1,5.6-6.8l1.9,0.2c-0.3,0.7-0.6,1.4-0.9,2.1
		h13.5v1.5c-1,1.9-2.1,3.5-3.3,4.9l-1.4-1.1c0.9-1,1.8-2.2,2.5-3.5h-12.4C313,164.9,311.6,166.3,309.8,167.5z M320.7,164.6
		c-0.1,0.6-0.4,1.2-0.6,1.7c2.7,2.9,6.2,4.7,10.5,5.2l-0.8,1.7c-4.2-0.7-7.7-2.5-10.5-5.5c-1.7,2.6-4.6,4.3-8.7,5.1l-1-1.5
		c5.2-1,8.4-3.4,9.3-7.2L320.7,164.6z M330.3,191.6l-0.6,1.6c-3.9-1.6-8.1-2.7-12.3-3.6l0.7-1.4C322.3,189,326.4,190.1,330.3,191.6z
		"/>
	<path fill="#58595B" d="M340.8,168.7l-1.7-1.1c2.2-2.5,3.8-5.4,4.9-8.5l1.9,0.4c-0.3,0.9-0.7,1.8-1,2.7h9.9v1.7h-6.6
		c1.1,1.4,1.9,2.7,2.5,3.9l-1.8,0.7c-0.8-1.6-1.8-3.1-2.9-4.6h-2C343.1,165.7,342,167.3,340.8,168.7z M354.4,176.3v-4.2H341v-1.8
		h13.3v-2.7h2v2.7h13.4v1.8h-13.4v4.2h11.7v1.8h-3.8v4.1h7.2v1.8h-7.2v6.2c0,1.8-1,2.8-3,2.8H356l-0.4-1.9c1.8,0.1,3.5,0.1,5.1,0.1
		c1.1,0,1.7-0.5,1.7-1.6V184h-23.1v-1.8h23.1v-4.1h-19.5v-1.8H354.4z M351.8,190.5l-1.6,1.1c-1.2-1.6-2.8-3.4-4.8-5.3l1.6-1
		C349.2,187.3,350.7,189.1,351.8,190.5z M356.9,167.3l-1.6-1c1.6-2.1,2.8-4.5,3.6-7.1l1.9,0.4c-0.3,0.9-0.6,1.8-0.9,2.6h10.9v1.7h-7
		c1.1,1.4,2,2.8,2.6,4l-1.8,0.7c-0.8-1.6-1.8-3.2-2.9-4.7H359C358.4,165.1,357.7,166.2,356.9,167.3z"/>
	<path fill="#58595B" d="M383.6,183.9c-0.3,3.2-0.8,6-1.7,8.5l-1.8-0.6c1-2.4,1.6-5.1,1.8-8.2L383.6,183.9z M393.6,181.2l-1.6,0.4
		c-0.2-0.8-0.4-1.6-0.6-2.3c-3.6,1.1-7.1,1.9-10.5,2.4l-0.5-1.8c0.3-0.1,0.6-0.3,0.8-0.6c1.7-1.6,3.6-4.1,5.9-7.6
		c-2.2,0.4-4.4,0.7-6.5,1l-0.5-1.7c0.3-0.1,0.6-0.4,0.8-0.7c2-3,3.8-6.5,5.3-10.5l1.9,0.7c-1.9,4.3-3.8,7.8-5.7,10.3
		c1.9-0.2,3.8-0.6,5.7-1c0.9-1.4,1.8-3,2.7-4.6l1.8,0.7c-3.8,6.6-7,11.1-9.5,13.6c2.5-0.4,5.1-1,7.6-1.8c-0.4-1.2-0.8-2.4-1.3-3.5
		l1.6-0.5C392.1,175.9,392.9,178.4,393.6,181.2z M388.7,190.7l-1.7,0.4c-0.3-2.9-0.7-5.4-1.1-7.5l1.6-0.4
		C387.9,185.4,388.3,187.9,388.7,190.7z M393.3,187.5l-1.5,0.7c-0.6-2.1-1.3-3.9-2.1-5.5l1.5-0.5C392,183.9,392.7,185.7,393.3,187.5
		z M393.6,162.9v-1.8h16v1c-0.6,3.8-1.4,6.9-2.3,9.5h4.5v1.8c-0.9,4.7-2.6,8.7-5.1,12c2,2.2,4.3,4.2,6.9,5.9l-1.3,1.6
		c-2.5-1.8-4.8-3.9-6.8-6.1c-2.2,2.4-4.8,4.5-8,6.2l-1.3-1.5c3.2-1.7,5.8-3.8,8-6.2c-2.4-3-4.4-6.3-5.8-9.9
		c-0.8,7.6-2.7,13.4-5.5,17.4l-1.4-1.3c3.6-5.2,5.4-13.4,5.5-24.9v-3.8H393.6z M405.4,171.6c0.8-2.4,1.6-5.3,2.1-8.6h-8.7v3.8
		c0,1.7-0.1,3.3-0.1,4.8H405.4z M405.4,183.9c2.3-3,3.8-6.5,4.5-10.5h-10.5C400.9,177.4,402.8,180.9,405.4,183.9z"/>
	<path fill="#58595B" d="M439.2,166h11.6v1.6c-4.4,8.2-10.8,14.5-19.3,18.9c0.1,0.1,0.3,0.3,0.4,0.5c1.6,2,3.8,3.1,6.5,3.3
		c1.7,0.1,4.2,0.1,7.4,0.1c2,0,4.7,0,8.1-0.1l-0.5,2h-7.3c-3.3,0-5.5,0-6.9-0.1c-3.9-0.1-6.9-1.6-9-4.5c-0.7-0.8-1.3-1.2-1.8-1.2
		c-1.2,0-2.8,2.1-4.9,6.5l-1.7-1.1c2.4-4.9,4.6-7.4,6.7-7.4c0.5,0,0.9,0.1,1.2,0.4l0.3,0.2c8.1-4.1,14.1-9.8,18.3-17h-24.4v-2H437
		c-1-2.3-2.3-4.5-3.6-6.4l2.3-0.4C436.9,161.2,438,163.4,439.2,166z"/>
	<path fill="#58595B" d="M480.2,162.6H495v1.9h-32.5v-1.9H478c-0.4-1.1-0.8-2.2-1.3-3.1l2.2-0.4
		C479.3,160.2,479.7,161.3,480.2,162.6z M486.1,192.9l-0.5-1.8l3,0.1c1.7,0,2.5-0.7,2.5-2v-10.6h-24.5V193h-1.9v-16.2H493v12.8
		c0,2.2-1.3,3.3-3.8,3.3H486.1z M488.9,167.4v6.8h-20.1v-6.8H488.9z M487,169h-16.2v3.5H487V169z M485.9,181.4v7.1h-14.1v-7.1H485.9
		z M484.1,183h-10.5v3.9h10.5V183z"/>
	<path fill="#58595B" d="M531.6,160.8v15.8c0,5.9,0.2,9.7,0.6,11.4c0.4,1.6,0.8,2.5,1.4,2.5c0.7,0,1.3-2,1.7-6l1.6,0.8
		c-0.4,2.9-0.9,4.9-1.4,6c-0.5,0.9-1.1,1.4-1.7,1.4c-1.4,0-2.5-1.1-3.1-3.3c-0.7-2.1-1-6.4-1-12.8v-13.9h-21.8v13.1
		c-0.1,6.9-1.1,12.6-3.1,17.3l-1.6-1.3c1.7-4.2,2.6-9.6,2.7-16v-15H531.6z M527.5,166.5v1.8h-7.8v4h6.7v10.5h-6.7v6.2
		c2-0.3,3.7-0.7,5-1.1c-0.5-1.1-1.1-2.1-1.6-3l1.6-0.6c1.5,2.3,2.7,4.8,3.8,7.5l-1.8,0.8c-0.4-1-0.8-2-1.2-2.9
		c-3.6,1-8.9,1.8-15.8,2.3l-0.6-1.9c3.2-0.2,6.1-0.4,8.5-0.7v-6.5H511v-10.5h6.7v-4h-7.8v-1.8H527.5z M517.7,174.1h-4.9v7h4.9V174.1
		z M524.6,174.1h-4.9v7h4.9V174.1z"/>
	<path fill="#58595B" d="M556.1,161.1v1.6c-1,3.5-2.2,7.1-3.6,10.8c2.1,3,3.3,5.9,3.4,8.5c0,1.5-0.4,2.6-1.1,3.3
		c-0.9,0.8-2.5,1.3-4.8,1.3l-0.6-2c0.4,0,0.8,0.1,1.1,0.1c1.4-0.1,2.3-0.3,2.8-0.7c0.4-0.4,0.7-1,0.7-2c0-2.5-1.1-5.2-3.4-8.2
		c1.6-4,2.7-7.6,3.6-10.7h-6.1V193h-2v-32H556.1z M556.3,192.9l-1.4-1.2c3.1-2.3,5.4-5.4,7-9.4l1.7,0.7c-0.4,1-0.9,2-1.4,2.9
		c1.5,1,2.8,2,3.9,3.1l-1.3,1.3c-0.9-1-2.1-2-3.4-3C560,189.5,558.2,191.4,556.3,192.9z M556.5,169.6l-1-1.6
		c4.5-2.1,7.9-4.9,10.3-8.3h1.7c2,3.1,5.5,5.8,10.4,8.2l-1.1,1.6c-4.6-2.1-8-4.8-10.2-7.9c-1.8,2.3-3.8,4.2-6.1,5.8h12.1v1.8h-12.2
		v-1.7C559.2,168.2,557.9,169,556.5,169.6z M565.4,172.3v8.7h-7.9v-8.7H565.4z M563.8,173.9h-4.5v5.4h4.5V173.9z M566.3,192.9
		l-1.4-1.2c3-2.3,5.3-5.4,6.9-9.2l1.7,0.7c-0.5,1.1-1,2.2-1.6,3.2c2.4,1.6,4.4,3.3,6,4.9l-1.3,1.3c-1.4-1.6-3.3-3.1-5.5-4.8
		C569.6,189.8,568,191.5,566.3,192.9z M576.1,172.3v8.7h-7.9v-8.7H576.1z M574.5,173.9H570v5.4h4.5V173.9z"/>
	<path fill="#58595B" d="M101.5,215.6c-0.8,2.6-1.8,5.1-3,7.4v25.6h-2v-22.1c-1.3,2.1-2.8,4-4.4,5.8l-0.6-2.1
		c3.8-4.5,6.5-9.7,8.2-15.4L101.5,215.6z M111.1,244.7c-2.5,1.5-5.7,2.8-9.5,3.8l-0.8-1.7c3.7-0.9,6.8-2,9.2-3.4L111.1,244.7z
		 M114.1,214.7v2.2h9.9v1.6h-9.9v2.5h8.6v1.6h-8.6v2.6h10.9v1.7h-23.2v-1.7h10.4v-2.6h-8.4v-1.6h8.4v-2.5h-9.6v-1.6h9.6v-2.2H114.1z
		 M122.1,229.2v13.7h-18v-13.7H122.1z M120.2,233.3v-2.5h-14.3v2.5H120.2z M120.2,237.3v-2.5h-14.3v2.5H120.2z M120.2,238.8h-14.3
		v2.5h14.3V238.8z M125.4,246.7l-0.7,1.7c-3-1.4-6.2-2.5-9.5-3.3l0.8-1.5C119.2,244.3,122.3,245.3,125.4,246.7z"/>
	<path fill="#58595B" d="M146.2,220.9c0.7-2.1,1.2-4.2,1.6-6.5l2,0.2c-0.4,2.3-0.9,4.4-1.6,6.3H162v1.8h-14.4
		c-0.7,1.7-1.4,3.2-2.3,4.6H164v1.8h-8.6c1.9,2.8,5.2,5.3,9.8,7.5l-1.3,1.6c-5-2.7-8.5-5.8-10.5-9.1H144c-2.9,3.9-6.8,7-11.6,9.2
		l-1.1-1.7c4.2-1.8,7.6-4.4,10.3-7.5h-9.2v-1.8h10.5c1-1.5,1.8-3,2.5-4.6h-11.1v-1.8H146.2z M138.7,236.6v-1.9h19.1
		c-0.1,3.3-0.3,6-0.6,8.1c-0.3,2-0.8,3.4-1.5,4.2c-0.7,0.7-1.8,1.2-3.4,1.3h-5.2l-0.5-1.9c1.7,0.1,3.3,0.1,4.8,0.1
		c1.7,0,2.8-0.6,3.4-1.8c0.6-1.3,1-4,1.1-8h-9.6c-0.7,2.9-1.8,5.1-3.1,6.8c-1.6,1.9-4,3.5-7.1,5l-1.3-1.6c2.9-1.3,5.1-2.7,6.6-4.3
		c1.3-1.5,2.4-3.5,3-6H138.7z M142.1,219.7l-1.7,0.7c-0.9-2-1.8-3.7-2.9-5.2l1.8-0.6C140.4,216.3,141.3,218,142.1,219.7z
		 M159.1,215.1c-0.8,2.1-1.9,3.9-3.2,5.5l-1.5-0.8c1.2-1.5,2.2-3.3,3-5.2L159.1,215.1z"/>
	<path fill="#58595B" d="M177.4,245.2v-28.8h21v28.8h5.8v2h-32.6v-2H177.4z M196.4,218.3h-17v7.4h17V218.3z M179.5,235.3h17v-7.7
		h-17V235.3z M179.5,245.2h17v-8h-17V245.2z"/>
	<path fill="#58595B" d="M227.6,216.5v1.8h-5v5h4.3v24.6h-1.8v-1.8h-11.2v2h-1.7v-24.9h4.1v-5h-5v-1.8H227.6z M225.2,244.3v-9.9
		h-2.2c-1.4,0-2.1-0.7-2.1-2v-7.4h-2.7v2.9c0,3.9-0.9,6.7-2.7,8.6l-1.1-1c1.6-1.6,2.4-4.1,2.4-7.6v-2.9h-2.8v19.2H225.2z
		 M223.4,238.4v1.7h-7.8v-1.7H223.4z M220.9,223.3v-5H218v5H220.9z M225.2,225.1h-2.9v7c0,0.5,0.3,0.8,1,0.8h1.9V225.1z M243,245.7
		c-0.6,1.1-1.6,1.7-3.3,1.7H233c-2.1,0-3.1-1.1-3.1-3.2v-15.3h10.3v-10.5h-11.1v-1.8h13v14.3h-10.3v12.8c0,1.3,0.6,1.9,1.8,2h5.8
		c1.1,0,1.8-0.6,2.2-1.6c0.3-1,0.6-3.1,0.7-6.2l1.8,0.6C244,242.1,243.6,244.6,243,245.7z"/>
	<path fill="#58595B" d="M256.3,238.4c-0.9,3.4-2.2,6.3-3.8,8.8l-1.7-1.1c1.6-2.4,2.8-5.1,3.5-8.1L256.3,238.4z M264.2,217.7
		c0.6-1,1-2,1.3-3.1l2.1,0.3c-0.3,1-0.7,1.9-1.2,2.8h12.5v17.6h-22.8v-17.6H264.2z M276.9,223v-3.6H258v3.6H276.9z M276.9,228.2
		v-3.5H258v3.5H276.9z M276.9,229.8H258v3.7h18.8V229.8z M262.1,247.9c-1.9,0-2.8-0.9-2.8-2.8v-7.3h2v6.8c0,1,0.4,1.4,1.3,1.4h8.6
		c0.9,0,1.6-0.2,2-0.6c0.5-0.6,0.8-2.1,1-4.7l1.9,0.6c-0.2,3-0.7,4.9-1.5,5.7c-0.6,0.6-1.6,0.8-3,0.8H262.1z M271.3,241.8l-1.5,1.1
		c-1.2-1.6-2.8-3.4-4.8-5.4l1.5-0.9C268.6,238.5,270.2,240.3,271.3,241.8z M284.2,245.4l-1.6,1.1c-1.4-2.4-3.3-5.2-5.7-8.1l1.6-1
		C280.9,240.5,282.8,243.1,284.2,245.4z"/>
	<path fill="#58595B" d="M306,220.9h-13.9v-2H306v-4.1h2v4.1h13.9v2H308v10.5c4.1,5.8,9.3,10.3,15.8,13.4l-1.1,1.8
		c-5.8-3-10.6-7.1-14.7-12.3v14h-2v-13.8c-3.6,5-8.5,9.1-14.6,12.3l-1-1.8c6.8-3.5,12-7.9,15.6-13.5V220.9z M292.9,234.9l-1.3-1.5
		c3.3-2.7,5.5-6.3,6.7-10.9l1.9,0.3c-0.5,2-1.2,3.8-2,5.4c1.8,1.1,3.5,2.3,5.1,3.8l-1.1,1.7c-1.6-1.6-3.3-2.9-4.9-3.9
		C296.1,231.8,294.6,233.5,292.9,234.9z M312,233.9l-1.3-1.6c2.8-2.4,4.8-5.7,5.8-9.7l1.9,0.3c-0.5,1.9-1.1,3.6-1.8,5.1
		c2.1,1.3,4,2.8,5.8,4.5l-1.1,1.7c-1.8-1.9-3.7-3.5-5.5-4.7C314.7,231.2,313.4,232.7,312,233.9z"/>
	<path fill="#58595B" d="M337.8,230.1l-1.4,1.4c-1.5-1.7-3.6-3.6-6.2-5.5l1.4-1.3C334.1,226.5,336.1,228.3,337.8,230.1z
		 M338.2,235.2c-1.7,4.7-3.6,9-5.7,13.1l-1.9-0.8c2.2-4.2,4.2-8.6,5.8-13L338.2,235.2z M338.9,221.3l-1.4,1.4
		c-1.6-1.8-3.8-3.7-6.6-5.8l1.4-1.3C334.9,217.5,337.1,219.4,338.9,221.3z M351.5,222.2c0.5-1.3,0.9-2.6,1.1-4H343v11.6
		c-0.1,7.7-1.5,13.9-4.2,18.5l-1.5-1.3c2.4-4.1,3.7-9.9,3.8-17.2v-13.4h21.8v1.8h-8.3c-0.3,1.4-0.7,2.7-1.2,4h7.5v12.6h-6.4v10.9
		c0,1.8-0.9,2.7-2.6,2.7h-3.1l-0.4-1.8c1,0.1,1.9,0.1,2.8,0.1c0.9,0,1.4-0.5,1.4-1.4v-10.5H346v-12.6H351.5z M349.1,238
		c-1,3.3-2.4,6.1-4.2,8.5l-1.6-1c1.8-2.3,3.1-4.9,4-7.8L349.1,238z M359,227.7v-3.9h-11.2v3.9H359z M359,229.3h-11.2v3.8H359V229.3z
		 M363.3,245.7l-1.7,0.7c-1.3-3.2-2.7-6-4.1-8.4l1.7-0.6C360.7,240.1,362.1,242.8,363.3,245.7z"/>
	<path fill="#58595B" d="M402.9,217.1v2h-5v25.6c0,2.3-1.1,3.4-3.4,3.4h-6.1l-0.4-1.9c2,0.1,4,0.1,5.8,0.1c1.4,0,2.1-0.7,2.1-2.2
		v-25.1h-25.7v-2H402.9z M388.4,238.4h-11.9v3.4h-1.9v-16.4h13.8V238.4z M386.5,236.6v-9.4h-10v9.4H386.5z"/>
	<path fill="#58595B" d="M421.2,236.2c-1.3-0.3-2.6-0.6-3.9-0.7c-1.1-0.2-2.3-0.3-3.4-0.4v2.2c-0.1,4.6-1.1,8.3-3.1,11.2l-1.5-1.4
		c1.7-2.5,2.6-5.8,2.7-9.7V228H425v17.9c0,1.6-0.9,2.4-2.6,2.4h-3.4l-0.5-1.8c1.2,0,2.3,0.1,3.3,0.1c0.8,0,1.3-0.4,1.3-1.3v-4.8
		c-2.7,0.5-5.5,1-8.5,1.4l-0.4-1.7c3.1-0.3,6.1-0.8,8.9-1.3v-9h-9.2v3.7c1.7,0.2,3.2,0.4,4.3,0.6c0.9,0.1,2.1,0.3,3.6,0.6
		L421.2,236.2z M427.5,225.4l-1.6,1.1c-0.4-0.8-0.9-1.7-1.4-2.5c-3.9,0.6-8.6,1.1-14.2,1.4l-0.6-1.7c0.4-0.1,0.7-0.3,0.9-0.5
		c2.3-2.3,4.4-5.1,6.1-8.4l1.9,0.6c-1.8,3.6-3.9,6.4-6,8.3c3.5-0.1,7.1-0.5,11-1.1c-0.8-1.3-1.7-2.7-2.7-4l1.6-1
		C424.7,220.6,426.3,223.2,427.5,225.4z M431.1,215.1v4.9l10.2-0.7v1.9l-10.2,0.7v5.5c0,0.9,0.5,1.4,1.5,1.4h9.3v1.9h-9.8
		c-2,0-3-1-3-2.9v-12.7H431.1z M431.9,247.9c-1.8,0-2.8-0.9-2.8-2.7v-12.7h2v4.2l10.4-0.6v1.8l-10.4,0.7v6.2c0,0.9,0.4,1.4,1.4,1.4
		h5.5c0.9,0,1.5-0.2,1.8-0.6c0.4-0.5,0.7-2,0.9-4.4l1.8,0.6c-0.2,2.9-0.7,4.7-1.4,5.4c-0.6,0.5-1.5,0.8-2.8,0.8H431.9z"/>
	<path fill="#58595B" d="M481.4,234.3c-0.1,6.7-0.5,10.7-1.3,12.1c-0.8,1.3-2.3,2-4.3,2c-1,0-2.2,0-3.6-0.1l-0.6-1.9
		c1.5,0.1,2.8,0.1,3.7,0.1c1.7,0,2.8-0.6,3.3-1.7c0.4-1.1,0.7-4,0.8-8.7h-23.3c-1.8,1.9-3.8,3.5-5.9,4.9l-1-1.8
		c5.9-4,10.2-9.5,12.8-16.6h-10.3v-1.8h10.9c0.6-2,1.1-4.1,1.6-6.3l2,0.2c-0.4,2.1-0.9,4.2-1.5,6.1h11.6l-1.6,6.5h4.7l-1.5,6.9
		H481.4z M458.3,239.5c-1,3-2.4,5.6-4.3,7.8l-1.7-1.1c1.8-2.1,3.2-4.5,4.1-7.1L458.3,239.5z M459.6,219.4l-1.6,1.1
		c-0.8-1.3-1.8-2.8-3.2-4.4l1.6-1C457.8,216.8,458.9,218.2,459.6,219.4z M457.7,234.3h18.1l1.3-5.1h-16
		C460.1,231,458.9,232.7,457.7,234.3z M464.2,246.3l-1.9,0.2c-0.2-3-0.7-5.2-1.4-6.8l1.7-0.2C463.4,241.1,463.9,243.4,464.2,246.3z
		 M464,222.7c-0.6,1.7-1.2,3.2-1.9,4.7h10.6l1.3-4.7H464z M470.4,244.7l-1.8,0.7c-0.7-2.1-1.4-4.1-2.3-6.1l1.6-0.5
		C469,240.9,469.8,242.9,470.4,244.7z M476,243.3l-1.8,0.4c-0.6-1.8-1.4-3.6-2.3-5.3l1.6-0.5C474.4,239.4,475.3,241.2,476,243.3z"/>
	<path fill="#58595B" d="M504.5,221.7v-6.9h2v6.9h14.7v2h-12.6c2.5,6.1,7.1,11.6,13.7,16.4l-1.3,1.7c-6.7-5.4-11.4-11.4-14-18.1
		h-0.5v15h8.2v2h-8.2v7.8h-2v-7.8h-7.9v-2h7.9v-15H504c-2.7,7.6-7.5,13.7-14.3,18.5l-1.1-1.8c6.5-4.3,11.2-9.9,13.9-16.7h-12.6v-2
		H504.5z"/>
	<path fill="#58595B" d="M546.1,215.1c3.6,4.5,8.9,8.2,15.8,11.2l-1.1,1.7c-6.4-2.7-11.6-6.4-15.5-10.9c-4.3,4.6-9.5,8.2-15.6,11
		l-1.1-1.6c6.4-2.9,11.7-6.7,15.8-11.3H546.1z M554.9,225.2v1.8h-8.6v6h13.4v1.9h-13.4v10.5h4.6c1.4-2.5,2.6-5.2,3.6-8.1l1.8,0.7
		c-1,2.8-2.1,5.3-3.4,7.4h8.1v1.9h-31.4v-1.9h8c-0.8-2.5-1.9-4.9-3.3-7.2l1.8-0.7c1.3,2.1,2.4,4.8,3.4,7.8h4.8v-10.5h-13.4V233h13.4
		v-6h-8.6v-1.8H554.9z"/>
	<path fill="#58595B" d="M571,214.3c1.5,2.4,2.7,4.9,3.7,7.6c1,3.2,1.6,6.4,1.6,9.6c0,3.2-0.6,6.4-1.6,9.6c-0.9,2.7-2.1,5.2-3.7,7.6
		h-2c1.5-2.4,2.6-5,3.5-7.7c1-3.3,1.6-6.5,1.6-9.6c0-3.1-0.6-6.3-1.6-9.6c-0.9-2.7-2-5.3-3.5-7.7H571z"/>
</g>
<path fill="#FFD25C" d="M553.9,381.4H118c-11.6,0-21-9.4-21-21v-56.3c0-11.6,9.4-21,21-21h435.9c11.6,0,21,9.4,21,21v56.3
	C574.9,372,565.5,381.4,553.9,381.4z"/>
<g>
	<g>
		<path fill="#58595B" d="M272.4,339.5c-0.1,2.7-0.5,5.2-1.1,7.3l-2.8-0.8c0.7-2,1.1-4.2,1.3-6.8L272.4,339.5z M275.6,329.7v-2h-6
			V314h15.1v13.7h-6v2h5.6v2.8h-5.6v2.1h6.4v3.1h-16v-3.1h6.5v-2.1h-5.7v-2.8H275.6z M275.8,316.6h-3.4v8.4h3.4V316.6z M275.5,323.5
			l-1.8,0.5c-0.3-1.8-0.7-3.4-1.3-5l1.8-0.6C274.7,319.8,275.1,321.5,275.5,323.5z M276.6,346.1l-2.8,0.3c0-2.9-0.1-5.1-0.3-6.7
			l2.5-0.3C276.3,341,276.5,343.3,276.6,346.1z M281.2,345.4l-2.8,0.6c-0.3-2.4-0.6-4.5-1-6.3l2.5-0.5
			C280.4,341.1,280.9,343.2,281.2,345.4z M281.8,316.6h-3.5v8.4h3.5V316.6z M281.5,318.5c-0.2,1.9-0.6,3.7-1.1,5.5l-1.8-0.6
			c0.5-1.7,0.8-3.4,1-5.4L281.5,318.5z M285.4,344.5l-2.5,0.9c-0.4-2-0.9-4-1.5-5.9l2.4-0.7C284.5,340.8,285,342.7,285.4,344.5z
			 M294.9,313v6.5h7.4v3.2h-7.4v5.9h6.1v18.2h-3.3v-1.8h-8v1.8h-3.3v-18.2h5.1V313H294.9z M297.7,341.9v-10.1h-8v10.1H297.7z"/>
		<path fill="#58595B" d="M325.6,333.2c-2,0.7-4.1,1.3-6.3,1.8v7.7c0,2.4-1.3,3.6-3.7,3.6h-4.1l-0.8-3.4c1.3,0.1,2.5,0.2,3.7,0.2
			c0.9,0,1.4-0.4,1.4-1.3v-6c-2.2,0.5-4.5,0.9-6.8,1.3l-0.5-3.5c2.5-0.4,5-0.8,7.3-1.3v-6.6h-7.3v-3.4h7.3v-3.9
			c-1.8,0.4-3.7,0.7-5.7,1l-0.7-3.3c5.2-0.6,9.8-1.6,13.7-3.3l1.2,3.3c-1.6,0.6-3.3,1.1-5,1.6v4.7h8c-0.2-2.9-0.3-6.1-0.3-9.5h3.5
			c0,3.6,0.1,6.8,0.3,9.5H342v3.4h-10.9c0.2,2.4,0.6,4.5,1,6.1c0.1,0.7,0.3,1.3,0.5,1.9c1.6-1.9,3-4.1,4.2-6.5l3,1.6
			c-1.7,3.4-3.6,6.3-5.9,8.8c0.4,1,0.8,1.8,1.3,2.5c1.1,1.7,2,2.5,2.5,2.5c0.5,0,1-1.9,1.4-5.8l3.1,1.6c-0.9,5.2-2.3,7.9-4.1,7.9
			c-1.6,0-3.3-1.1-5-3.3c-0.7-0.9-1.3-1.9-1.9-3.1c-2.5,2.1-5.4,3.8-8.6,5.1l-2-3c3.5-1.3,6.5-3.1,9.1-5.4c-0.4-1.2-0.8-2.5-1.1-3.8
			c-0.5-2-0.9-4.4-1.2-7.1h-8.3v5.8c2.2-0.6,4.3-1.2,6.3-1.9V333.2z M341.2,318.2l-2.5,2.5c-1.6-1.6-3.7-3.4-6.5-5.2l2.4-2.3
			C337.2,314.8,339.4,316.5,341.2,318.2z"/>
		<path fill="#58595B" d="M357.3,321.8v2.7c-1.1,1.9-2.4,3.8-3.8,5.7h4.9v2.3c-0.7,2.8-1.4,5.1-2.4,6.9c0.2,0.1,0.4,0.4,0.7,0.6
			c1.2,1.1,2.3,1.8,3.4,2.3c1.1,0.4,2.7,0.7,4.7,0.7c2,0,4.3,0,6.9,0c2.7,0,6.2-0.1,10.6-0.3l-0.8,3.3h-9.3c-2.6,0-5.1-0.1-7.5-0.1
			c-2.5-0.1-4.4-0.4-5.7-0.9c-1.6-0.6-3-1.6-4.2-2.8c-0.3-0.3-0.6-0.4-0.8-0.4c-0.7,0-1.9,1.6-3.5,4.8l-2.5-2.3
			c1.8-3.4,3.4-5.4,5.1-5.8c0.9-1.7,1.6-3.5,2.1-5.5h-5.6v-2.7c1.6-1.9,3-3.8,4.1-5.6h-5.1v-3.2H357.3z M357.3,318.2l-2.3,2.3
			c-1.3-1.7-3.2-3.4-5.6-5.3l2.3-2.3C353.9,314.7,355.7,316.5,357.3,318.2z M359,327.1l-1-3.4c2.6-3.3,4.5-6.8,5.5-10.6l3.3,0.6
			c-0.4,1.2-0.8,2.4-1.3,3.5h5.4c-0.5-1.2-1.1-2.4-1.8-3.5l3.2-0.9c0.8,1.6,1.5,3.1,2,4.4h6.3v3.2H374v3.5h5.5v3.1H374v3.4h5.5v3
			H374v3.6h6.9v3.1h-19.6v-15.9C360.6,325.2,359.8,326.2,359,327.1z M370.7,320.4h-6v3.5h6V320.4z M370.7,326.9h-6v3.4h6V326.9z
			 M370.7,333.4h-6v3.6h6V333.4z"/>
		<path fill="#58595B" d="M398.1,317.4V314h8.1c1,11.2,6.1,21,15.2,29.4l-2,3c-7.5-6.7-12.3-14.5-14.6-23.3
			c-2.6,10-7.6,17.7-15.1,23.2l-2.1-3c8.1-6,13.4-14.7,15.8-26H398.1z"/>
	</g>
</g>
<g>
</g>
<g>
</g>
<g>
</g>
<g>
</g>
<g>
</g>
<g>
</g>
<g>
</g>
<g>
</g>
<g>
</g>
<g>
</g>
<g>
</g>
<g>
</g>
<g>
</g>
<g>
</g>
<g>
</g>
</svg>
