<?xml version="1.0" encoding="utf-8"?>
<!-- Generator: Adobe Illustrator 18.0.0, SVG Export Plug-In . SVG Version: 6.00 Build 0)  -->
<!DOCTYPE svg PUBLIC "-//W3C//DTD SVG 1.1//EN" "http://www.w3.org/Graphics/SVG/1.1/DTD/svg11.dtd">
<svg version="1.1" id="Layer_1" xmlns="http://www.w3.org/2000/svg" xmlns:xlink="http://www.w3.org/1999/xlink" x="0px" y="0px"
	 viewBox="0 0 292 290.7" enable-background="new 0 0 292 290.7" xml:space="preserve">
<g>
	<path fill="#EAE6D8" d="M285.6,215.6c2-2.3,3.2-5.3,3.2-8.6c0-4.2-1.9-7.9-5-10.3v-5.4c0-8.8-3.4-17.2-9.5-23.5
		c-6.1-6.3-14.4-10-23.2-10.3l-40.6-1.3c-2.2-3.2-5.7-5.4-9.8-5.7l-0.8-3.2c1,0,2,0.1,3,0.1c30.4,0,55.5-19.2,62.6-47.9
		c2-8.1,2.9-17,2.8-26.4c0-1-0.2-2.2-0.4-3.7c-0.1-0.8-0.3-2.1-0.4-3.1l0.5-0.7c2.2-3,2.5-7,0.8-10.3c-1.7-3.3-5.1-5.4-8.8-5.4
		c-0.5,0-1,0-1.5,0.1l-3.9,0.6c-1.9,0.3-3.6,0.9-5.1,1.9c-1.1-0.3-2.3-0.5-3.5-0.5c-0.6,0-1.3,0-1.9,0.1l-4.5,0.7
		c-4.1,0.6-7.3,3.6-8.2,7.6c-0.9,4,0.7,8.1,4.1,10.4l0.1,0.1c0.8,4.7,0.6,11-0.5,18c-1.7,11-12.9,19.2-22.9,20.9
		c4.4-5.6,7.8-12,9.7-19l2.3-8.1c2.9-10.4,2.6-21.3-0.8-31.5c-3.4-10.2-9.8-19.1-18.4-25.6c-9.3-7.1-20.8-11-32.5-11
		c-3.6,0-7.3,0.4-10.8,1.1l-18,3.7c-7.1-2.5-14.6-3.9-22-3.9c-0.4,0-0.8,0-1.2,0c-1.5-1.4-3.4-2.5-5.4-3.1C109,4.7,99.1,0,88.5,0
		C84,0,79.6,0.8,75.4,2.4C60.4,8,51.1,22.1,52.1,36.8c-0.8,1.4-1.3,3-1.6,4.6L40,44.8C25.2,49.3,13.1,59.9,6.7,74.1
		c-4.4,9.8-5.8,20.7-3.9,31.3s6.8,20.3,14.3,28.1l5.9,6c3.5,3.6,7.4,6.6,11.6,9.1c-0.7,1.2-1.3,2.6-1.7,4c-0.2,0.5-0.3,1.1-0.4,1.6
		c-1.1-0.2-2.1-0.3-3.2-0.3H18.6C8.3,153.9,0,162.2,0,172.5v48.6c0,10.2,8.3,18.6,18.6,18.6h10.7c1,0,2-0.1,3-0.2c0,0.2,0,0.5,0,0.7
		c0,27.9,22.7,50.6,50.6,50.6c20.7,0,38.8-12.5,46.6-30.8c0.8,0.2,1.6,0.2,2.4,0.2h52.8c3.4,0,6.6-1.3,9-3.5
		c6.9,19.8,25.7,34,47.8,34c27.9,0,50.6-22.7,50.6-50.6C292,231.5,289.8,223,285.6,215.6z"/>
	<g>
		<g>
			
				<path fill="#ABADB0" stroke="#797A7D" stroke-width="2.5" stroke-linecap="round" stroke-linejoin="round" stroke-miterlimit="10" d="
				M182,153.5l3.2,9.9c1.5,4.5-0.2,9.4-4,12.2l-5.4,3.8l-6.7-22.7L182,153.5z"/>
			<g>
				<path fill="#E68843" d="M75.6,118.6c0,0-16.2,8.3-21.8,55.3l11.6,19.8c0,0,90.2-2.6,113.7-14.4l-6.2-21.5l9.2-4.4
					c0,0-9.1-29.2-29.1-32.3L75.6,118.6z"/>
				<path fill="#E4E5E6" d="M160.2,217.8c-2.3-1.4-6.9-3.1-12.2,1.3c-0.6,0.5-0.2,1.4,0.6,1.3l11.3-1.3
					C160.6,219,160.8,218.1,160.2,217.8z"/>
				<path fill="#E4E5E6" d="M148.3,219.1c-2.3-1.4-7-3.1-12.3,1.4c-0.6,0.5-0.2,1.4,0.6,1.3l11.4-1.3
					C148.7,220.4,148.9,219.5,148.3,219.1z"/>
				<path fill="#D54849" d="M159.2,126.1l-8.9,17.6c-1.5,3.4-5.9,4.4-8.7,1.9l-7.6-6.8l-6.8,10.1c-1.6,2.4-4.8,3.1-7.3,1.7L99.7,139
					L159.2,126.1z"/>
				
					<linearGradient id="SVGID_1_" gradientUnits="userSpaceOnUse" x1="1183.2262" y1="9.1537" x2="1223.2146" y2="9.1537" gradientTransform="matrix(-0.9997 -2.251806e-002 -2.251806e-002 0.9997 1276.5916 203.931)">
					<stop  offset="0" style="stop-color:#C7C8CA"/>
					<stop  offset="1" style="stop-color:#BCBEC0"/>
				</linearGradient>
				
					<path fill="url(#SVGID_1_)" stroke="#797A7D" stroke-width="2.5" stroke-linecap="round" stroke-linejoin="round" stroke-miterlimit="10" d="
					M93.7,175.9l-40-1.9l0.6,10c0.3,5.3,3.6,10,8.3,11.8l2.2,0.8c1.3,0.5,2.7,0.8,4.2,0.8l11.5,0.3c2.4,0.1,4.9-0.6,6.9-2h0
					c3.7-2.4,6-6.7,6.1-11.3L93.7,175.9z"/>
				
					<path fill="#B1B3B6" stroke="#797A7D" stroke-width="2.5" stroke-linecap="round" stroke-linejoin="round" stroke-miterlimit="10" d="
					M138.7,199c0,0-5,7.4-11.3,9.7"/>
			</g>
		</g>
		<g>
			<circle fill="#D54849" cx="139.7" cy="164" r="14.2"/>
			<polygon fill="#FBDBAE" points="135.3,159.5 136,153.4 147.4,163 138.2,174.8 140.3,166.1 			"/>
		</g>
		<rect x="114.4" y="181.3" fill="#6E7668" width="55.7" height="35.7"/>
		<g>
			<circle fill="#938A8B" cx="241" cy="240.1" r="42.4"/>
			<circle fill="#545456" cx="241" cy="240.1" r="37.3"/>
			<circle fill="#2F302F" cx="240.1" cy="240.1" r="26.1"/>
			<circle fill="#7A7B7E" cx="240.1" cy="240.1" r="20.1"/>
		</g>
		<g>
			<circle fill="#938A8B" cx="82.4" cy="240.1" r="42.4"/>
			<circle fill="#545456" cx="82.4" cy="240.1" r="37.3"/>
			<circle fill="#2F302F" cx="81.6" cy="240.1" r="26.1"/>
			<circle fill="#7A7B7E" cx="81.6" cy="240.1" r="20.1"/>
		</g>
		<path fill="#6E7668" d="M78,176.9l-19.7-25.6c-2.5-3.2-6.8-4.5-10.6-3.2l-1,0.3c-6.4,2.1-8.6,10.1-4.3,15.2l14.2,17L78,176.9z"/>
		<path fill="#747578" d="M22.4,231.4h2.3c8,0,14.6-6.6,14.6-14.6v-40.2c0-8-6.6-14.6-14.6-14.6h-2.3c-8,0-14.6,6.6-14.6,14.6v40.2
			C7.8,224.9,14.4,231.4,22.4,231.4z"/>
		<path fill="#545456" d="M22.3,231.3h1.3c4.5,0,8.2-3.7,8.2-8.2v-52.8c0-4.5-3.7-8.2-8.2-8.2h-1.3c-4.5,0-8.2,3.7-8.2,8.2v52.8
			C14.1,227.6,17.8,231.3,22.3,231.3z"/>
		<path fill="#AFA387" d="M194.7,164.1l-8.5-36.2c-0.3-1.5-1.3-2.7-2.6-3.4l-7.3-3.9c-0.8-0.4-1.6-0.6-2.4-0.6l0,0
			c-2.9,0-5.2,2.3-5.2,5.2v76.7c0,6-4.9,10.9-10.9,10.9h-19.9c-6,0-10.9-4.9-10.9-10.9v-15.7c0-6.2-5-11.3-11.3-11.3H48.6
			c-6.2,0-11.3,5-11.3,11.3v32.5h4.7c3.6,0,6.5-2.9,6.5-6.5V205h55.9l23.6,37.6h59.5l17.4-34.3h70.4v-16.9c0-13.8-11-25.1-24.8-25.6
			L194.7,164.1z"/>
		<path fill="#6E7668" d="M131.4,252h52.8c1.8,0,3.5-1,4.4-2.6l20-37.4h66.7c2.7,0,5-2.2,5-5c0-2.7-2.2-5-5-5h-69.6
			c-1.8,0-3.5,1-4.4,2.6l-20,37.4h-47l-21.8-35.8c-0.9-1.5-2.5-2.4-4.2-2.4H48.5c-1.5,0-3,0.7-3.9,1.9l-11.2,14.3
			c-1.7,2.2-1.3,5.3,0.9,7c2.2,1.7,5.3,1.3,7-0.8l9.7-12.4h54.4l21.8,35.8C128.1,251.1,129.7,252,131.4,252z"/>
		<path fill="#B1E0E1" d="M179.9,122.5l7.8,43.3h7.7l-9.2-38.8c-0.2-0.9-0.8-1.6-1.6-2L179.9,122.5z"/>
		<path fill="#6E7668" d="M199,183h0.7c2.4,0,4.3-1.9,4.3-4.3v-15.6c0-2.4-1.9-4.3-4.3-4.3H199c-2.4,0-4.3,1.9-4.3,4.3v15.6
			C194.7,181.1,196.6,183,199,183z"/>
		<path fill="#E68843" d="M72.4,131c0,0-10.2,4.3-24.5,39.9l39.9,13.3l13.2-26.3L72.4,131z"/>
		
			<linearGradient id="SVGID_2_" gradientUnits="userSpaceOnUse" x1="1771.3376" y1="240.1103" x2="1811.3262" y2="240.1103" gradientTransform="matrix(-1.0063 -0.3086 -0.2932 0.9561 1937.5938 511.3895)">
			<stop  offset="0" style="stop-color:#BEC0C2"/>
			<stop  offset="1" style="stop-color:#B1B3B6"/>
		</linearGradient>
		<path fill="url(#SVGID_2_)" d="M87.9,184.2l-39.9-13.3l-2.1,9.8c-1.1,5.2,0.9,10.6,5.2,13.8l1.9,1.4c1.2,0.9,2.6,1.6,4,2l11.5,3.5
			c2.5,0.8,5.1,0.8,7.6,0.1h0c4.4-1.3,7.9-4.7,9.3-9.1L87.9,184.2z"/>
		<path fill="#CB7639" d="M87.9,184.1l7.5-15.2c0.3-0.5-0.5-0.9-0.8-0.4l-9.7,14.7L87.9,184.1z"/>
		<g>
			<path fill="#C89E6B" d="M74.6,167.4l-9.1-2.6c-2.9-0.8-4.5-3.8-3.7-6.7l2.6-9.1c0.8-2.9,3.8-4.5,6.7-3.7l9.1,2.6
				c2.9,0.8,4.5,3.8,3.7,6.7l-2.6,9.1C80.4,166.6,77.5,168.2,74.6,167.4z"/>
			<path fill="#D9AF77" d="M82.8,158.3l-19.6-5.5l1.1-3.8c0.8-2.9,3.8-4.5,6.7-3.7l9.1,2.6c2.9,0.8,4.5,3.8,3.7,6.7L82.8,158.3z"/>
			<path fill="#BA8F64" d="M72.5,159.2l-0.4-0.1c-1.3-0.4-2-1.7-1.7-3l0.4-1.6c0.4-1.3,1.7-2,3-1.7l0.4,0.1c1.3,0.4,2,1.7,1.7,3
				l-0.4,1.6C75.1,158.8,73.8,159.5,72.5,159.2z"/>
		</g>
		<g>
			<path fill="#ABADB0" d="M125.4,31.6l37.6-7.7c12.8-2.6,26.2,0.4,36.7,8.3l0,0c14.8,11.3,21.3,30.5,16.2,48.4l-2.3,8.1
				c-5.4,19.3-22.8,32.7-42.8,33.2l-10.3,0.2"/>
			<path fill="#939598" d="M165.4,111.2L165.4,111.2c15.3-0.3,28.6-10.6,32.7-25.4l1.7-6.2c4.2-14.9-2-30.9-15.4-39.1
				c-7.6-4.7-16.8-6.1-25.6-4.3l-21.3,4.4c-3.6,0.7-5.7,4.6-4.4,8.1l21.5,55.3C156.4,108.5,160.7,111.3,165.4,111.2z"/>
			
				<linearGradient id="SVGID_3_" gradientUnits="userSpaceOnUse" x1="773.8936" y1="-40.1494" x2="745.1282" y2="37.6481" gradientTransform="matrix(-0.9561 0.293 0.293 0.9561 868.0238 -109.9473)">
				<stop  offset="0" style="stop-color:#BCBEC0"/>
				<stop  offset="1" style="stop-color:#A3A5A8"/>
			</linearGradient>
			<path fill="url(#SVGID_3_)" d="M86.4,136.2c26.1,9,53.2,6.1,76.1-9.6c11-7.6,19.8-18.9,17.9-32.9c-0.5-4-1.9-7.8-3.5-11.4
				c-4.5-9.8-4.4-20.5-8.4-30.3c-2.9-7.2-8.2-13.3-14.5-17.8c-12.4-8.8-29.1-12.5-43.9-9.2c-11.9,2.7-26.3,8.7-34.3,18.5"/>
			<path fill="#B6B8BA" d="M160.7,67.7c2.4,2.8,2.2,7-0.6,9.5c-2.8,2.4-7,2.1-9.5-0.7c-2.4-2.8-2.2-7,0.6-9.5
				C154,64.6,158.3,64.9,160.7,67.7z"/>
			<path fill="#808285" d="M158.9,69.3c1.2,1.5,0.9,3.7-0.6,4.9s-3.7,0.9-4.9-0.6c-1.2-1.5-0.9-3.7,0.6-4.9S157.7,67.8,158.9,69.3z"
				/>
			<g>
				<path fill="#797A7D" d="M116.2,68c-0.4,0.5-0.8,0.9-1.1,1.3c-0.4,0.1-0.9,0.3-1.3,0.4c-0.9,0.3-1.7,0.7-2.5,1.1
					c-0.8,0.4-1.5,0.9-2.2,1.5c-0.3,0.3-0.7,0.6-0.9,0.9c-0.5,0.1-1,0.3-1.6,0.5c-0.1-0.6,0-1.2,0.1-1.8c0.3-0.4,0.7-0.8,1.1-1.1
					c0.8-0.7,1.7-1.2,2.6-1.7c0.9-0.5,1.8-0.9,2.8-1.2c0.5-0.2,1-0.3,1.4-0.5C115.1,67.5,115.6,67.7,116.2,68z"/>
			</g>
			<g>
				<path fill="#797A7D" d="M146,57.9c0.4-0.5,0.9-0.8,1.4-1.2c0.5,0,1,0,1.5,0c1,0,2,0.1,3,0.2c1,0.2,2,0.4,3,0.8
					c0.5,0.2,1,0.4,1.4,0.7c0.3,0.5,0.6,1.1,0.7,1.7c-0.6,0-1.2,0-1.7,0.1c-0.4-0.2-0.8-0.4-1.2-0.6c-0.8-0.3-1.7-0.5-2.6-0.7
					c-0.9-0.1-1.8-0.2-2.7-0.2c-0.5,0-0.9,0-1.4,0.1C147,58.5,146.5,58.2,146,57.9z"/>
			</g>
			<path fill="#797A7D" d="M139.2,100.3c0,0-12.7,5.2-22.3,4.3l0.3,2.9c0,0,17.1,13.3,29.1-4.5L139.2,100.3z"/>
			<path fill="#B6B8BA" d="M121.4,79.5c2.1,2.4,1.9,6.1-0.6,8.2c-2.4,2.1-6.1,1.8-8.2-0.6s-1.9-6.1,0.6-8.2
				C115.6,76.8,119.3,77.1,121.4,79.5z"/>
			<path fill="#808285" d="M120.5,81c1.2,1.6,0.9,3.8-0.6,5c-1.6,1.2-3.8,0.9-5-0.7s-0.9-3.8,0.6-5C117.1,79.1,119.3,79.4,120.5,81z
				"/>
			<path fill="#FFFFFF" d="M161.8,85.6c1.8-1.7,6.7-6.9,7.5-12.2c0.1-0.5,0.8-0.6,1-0.1c1.1,2.8,2.2,8.5-2,15.1
				c-0.1,0.2-0.4,0.3-0.7,0.2l-5.7-2.1C161.6,86.3,161.5,85.9,161.8,85.6z"/>
			<g>
				
					<linearGradient id="SVGID_4_" gradientUnits="userSpaceOnUse" x1="852.3722" y1="-268.2136" x2="743.4752" y2="-268.2136" gradientTransform="matrix(-0.9958 9.162994e-002 9.162994e-002 0.9958 1018.4372 295.7745)">
					<stop  offset="0" style="stop-color:#C7C8CA"/>
					<stop  offset="1" style="stop-color:#B1B3B6"/>
				</linearGradient>
				<path fill="url(#SVGID_4_)" d="M133.9,98.7l-3.5-6.4c-2.1-3.9-2.3-8.5-0.6-12.6l0,0c1.5-3.5,4.3-6.3,7.9-7.7l2.6-1
					c4.2-1.7,9-1.3,12.9,1c1.1,0.7,2,1.3,2.7,1.9c1,0.9,1.9,1.9,2.7,3c0.5,0.6,1.3,2.9,1.9,3.2c0,0,6.7,3.5,9.1,11.1
					c0.1,0.4,2.8,1.7,3.3,2c3,2.2,5.5,5.1,7.6,8.2c7.3,10.6,19.1,18.8,32.5,16.7c14-2.3,27.8-13.4,30-27.9
					c1.1-7.4,1.7-16.9-0.4-24.2l-2.9-1.9c-1.3-0.8-0.8-2.8,0.7-3l4.5-0.7c1.5-0.2,3.1,0.3,4.2,1.3l0.5,0.5c0.6,0.6,1.6,0.4,1.9-0.4
					c0.7-1.6,2.2-2.7,3.9-3l3.9-0.6c1.4-0.2,2.4,1.4,1.6,2.6l-1.9,2.6c-0.9,1.2,0.6,8.3,0.7,9.9c0.1,8.1-0.6,16.4-2.5,24.3
					c-9.6,38.9-54.5,52.6-87.5,32.2c-6.6-4.1-11.4-9.3-16.2-15.2C148,108.1,141.6,102.2,133.9,98.7"/>
				<path fill="#A9ABAE" d="M158.8,80.3c-2.7,0.5-8.1,1.9-13.3,6.5c-0.4,0.3-1-0.1-0.7-0.6c1.8-3.5,6.2-9.7,14.1-6.8
					C159.3,79.6,159.3,80.2,158.8,80.3z"/>
				<path fill="#A9ABAE" d="M164.1,86.2c-2.7,0.5-8.1,1.9-13.3,6.5c-0.4,0.3-1-0.1-0.7-0.6c1.8-3.5,6.2-9.7,14.1-6.8
					C164.6,85.4,164.5,86.1,164.1,86.2z"/>
				<path fill="#A9ABAE" d="M168.7,92.3c-2.7,0.5-8.1,1.9-13.3,6.5c-0.4,0.3-1-0.1-0.7-0.6c1.8-3.5,6.2-9.7,14.1-6.8
					C169.2,91.5,169.2,92.2,168.7,92.3z"/>
			</g>
			<path fill="#FFFFFF" d="M130.4,96.6c1.9-1.5,7.3-6.2,8.6-11.4c0.1-0.5,0.9-0.5,1,0c0.8,2.9,1.4,8.7-3.4,14.8
				c-0.2,0.2-0.4,0.3-0.7,0.2l-5.5-2.7C130.2,97.4,130.1,96.9,130.4,96.6z"/>
			
				<linearGradient id="SVGID_5_" gradientUnits="userSpaceOnUse" x1="863.6733" y1="-54.2494" x2="863.6733" y2="-31.7618" gradientTransform="matrix(-0.9693 0.246 0.246 0.9693 908.3762 -34.0031)">
				<stop  offset="0" style="stop-color:#BEC0C2"/>
				<stop  offset="1" style="stop-color:#B1B3B6"/>
			</linearGradient>
			<path fill="url(#SVGID_5_)" d="M78.3,40.9L42,52.6c-12.6,3.8-22.8,12.9-28.2,24.8l0,0c-7.7,17-4.2,36.9,8.8,50.3l5.9,6
				c13.9,14.4,35.6,17.9,53.4,8.7l9.1-4.7"/>
			<path fill="#A1A3A6" d="M83,129.7L83,129.7c-13.3,7.6-30,5.6-41.1-4.9l-4.7-4.4C26,109.8,23,92.9,30.3,79
				C34.4,71,41.6,65.1,50,62.1l20.5-7.2c3.5-1.2,7.3,1,7.9,4.7l10.1,58.5C89.3,122.7,87.1,127.4,83,129.7z"/>
			<path fill="#ED85A9" d="M143.7,106.4c0,0-10.3-4.2-20.6,4.3C123.1,110.6,134.5,116.6,143.7,106.4z"/>
			
				<path fill="none" stroke="#797A7D" stroke-width="2.5" stroke-linecap="round" stroke-linejoin="round" stroke-miterlimit="10" d="
				M112.8,112.3c0,0,7.8-4.1,2.9-13.9"/>
		</g>
		<g>
			<path fill="#D9AF77" d="M111.9,23.8c-4.8-12.8-20-18.9-34-13.7S56.5,30,61.3,42.8L111.9,23.8z"/>
			<path fill="#E68843" d="M113.2,30.4L65.1,48.5c-2.6,1-5.4-0.3-6.4-2.9l-0.3-0.7c-1-2.6,0.3-5.4,2.9-6.4l48.1-18.1
				c2.6-1,5.4,0.3,6.4,2.9l0.3,0.7C117.1,26.6,115.7,29.4,113.2,30.4z"/>
		</g>
	</g>
</g>
<g>
</g>
<g>
</g>
<g>
</g>
<g>
</g>
<g>
</g>
<g>
</g>
<g>
</g>
<g>
</g>
<g>
</g>
<g>
</g>
<g>
</g>
<g>
</g>
<g>
</g>
<g>
</g>
<g>
</g>
</svg>
