<?xml version="1.0" encoding="utf-8"?>
<!-- Generator: Adobe Illustrator 18.0.0, SVG Export Plug-In . SVG Version: 6.00 Build 0)  -->
<!DOCTYPE svg PUBLIC "-//W3C//DTD SVG 1.1//EN" "http://www.w3.org/Graphics/SVG/1.1/DTD/svg11.dtd">
<svg version="1.1" id="Layer_1" xmlns="http://www.w3.org/2000/svg" xmlns:xlink="http://www.w3.org/1999/xlink" x="0px" y="0px"
	 viewBox="0 0 788 503.2" enable-background="new 0 0 788 503.2" xml:space="preserve">
<g>
	<path fill="#ACB2B6" d="M381.5,214.2c0,0,63.3,53.4,53.4,163.6l-210.2,11.8l-6-145.4L381.5,214.2z"/>
	<polygon fill="#FCCEB8" points="0,354.8 788,354.8 767.7,385.6 444.2,503.2 44.9,473.1 	"/>
	<circle fill="#976C5A" cx="453.6" cy="299.4" r="107"/>
	<g>
		<polygon fill="#464547" stroke="#464547" stroke-width="4" stroke-miterlimit="10" points="608.8,379.5 591.6,379.8 591.6,376.2 
			605.2,376 604.8,348.8 608.3,348.7 		"/>
		<path fill="#464547" stroke="#464547" stroke-width="4" stroke-miterlimit="10" d="M664.5,378.7l-18.8,0.3l-0.1-3.5l15.3-0.2
			l-0.1-4.1c-5.4-1.3-10.1-5.1-13.5-10.9c-2.7-4.7-3.7-9.1-3.8-9.2l3.4-0.8c0,0.2,3.7,15.8,15.8,17.7l1.5,0.2L664.5,378.7z"/>
		<path fill="#464547" d="M584.5,304.1l-26-0.6l0.2-7.6c0-1.7-1.2-3.2-2.8-3.4c-1.9-0.2-3.6,1.2-3.6,3.1L552,304
			c0,2,1.5,3.7,3.5,3.7l2.9,0.1l0,0l26,0.6L584.5,304.1z"/>
		<path fill="#58595B" d="M633.3,364.8L633.3,364.8c-23.5,4.4-46.2-11.2-50.6-34.7l-3.6-19.1c-4.4-23.5,11.2-46.2,34.7-50.6l0,0
			c23.5-4.4,46.2,11.2,50.6,34.7l3.6,19.1C672.4,337.7,656.8,360.4,633.3,364.8z"/>
		<path fill="#464547" d="M606.7,308.7L595.8,319c-2.4,2.2-5.5,3.4-8.8,3.4l-34-0.8l0.2-7c0-1.6-1.2-3.2-2.8-3.3
			c-1.8-0.1-3.2,1.2-3.3,3l-0.2,7.6c0,2,1.5,3.7,3.5,3.7l2.5,0.1l0-0.1l34,0.8c4.3,0.1,8.5-1.5,11.6-4.4l10.9-10.3L606.7,308.7z"/>
		<g>
			<path fill="#464547" d="M657.3,325.5c0,0,0-0.1-0.1,0l0,0.1L657.3,325.5z"/>
			<path fill="#464547" d="M656.7,325.8c-0.1,0.1-0.1,0.3,0,0.3c0-0.1,0.1-0.1,0.1-0.3c0.1-0.1,0.2-0.1,0.2,0c0,0,0.1-0.1,0.1-0.2
				C657,325.6,656.8,325.7,656.7,325.8C656.7,325.8,656.7,325.8,656.7,325.8z"/>
			<path fill="#464547" d="M649,331.2L649,331.2C649.1,331.2,649,331.2,649,331.2z"/>
			<path fill="#464547" d="M644,334.2C644.1,334.2,644.1,334.2,644,334.2C644.1,334.2,644,334.2,644,334.2z"/>
			<path fill="#464547" d="M643.1,334.6C643.2,334.6,643.2,334.6,643.1,334.6C643.2,334.6,643.1,334.6,643.1,334.6z"/>
			<path fill="#464547" d="M649,331.2l-0.1,0.1C648.9,331.3,648.9,331.2,649,331.2z"/>
			<path fill="#464547" d="M655.8,326.7C655.8,326.7,655.9,326.7,655.8,326.7L655.8,326.7C655.8,326.7,655.8,326.7,655.8,326.7z"/>
			<path fill="#464547" d="M651.1,329.7L651.1,329.7C651.1,329.6,651.1,329.6,651.1,329.7L651.1,329.7z"/>
			<path fill="#464547" d="M652.7,328.5c0,0,0,0.1,0,0.1C652.7,328.6,652.7,328.6,652.7,328.5C652.7,328.5,652.7,328.5,652.7,328.5z
				"/>
			<path fill="#464547" d="M655.3,326.7L655.3,326.7C655.3,326.7,655.3,326.7,655.3,326.7z"/>
			<path fill="#464547" d="M649.9,330.5C649.9,330.4,649.9,330.4,649.9,330.5C649.9,330.4,649.9,330.5,649.9,330.5z"/>
			<path fill="#464547" d="M597.2,340.9C597.2,340.9,597.2,340.9,597.2,340.9C597.1,340.9,597.1,340.9,597.2,340.9z"/>
			<path fill="#464547" d="M595,340.1L595,340.1C595,340.1,595,340,595,340.1L595,340.1z"/>
			<path fill="#464547" d="M641.5,335.4C641.5,335.4,641.5,335.4,641.5,335.4C641.5,335.3,641.5,335.4,641.5,335.4z"/>
			<path fill="#464547" d="M625.8,340.5c0.2,0-0.3,0.1,0,0.2C625.7,340.6,626,340.5,625.8,340.5z"/>
			<path fill="#464547" d="M655.8,326.8L655.8,326.8C655.7,326.8,655.8,326.8,655.8,326.8z"/>
			<path fill="#464547" d="M625.8,340.6L625.8,340.6L625.8,340.6C625.8,340.7,625.8,340.6,625.8,340.6z"/>
			<path fill="#464547" d="M637.7,337.2C637.7,337.2,637.8,337.2,637.7,337.2C637.8,337.2,637.8,337.2,637.7,337.2z"/>
			<path fill="#464547" d="M640.6,336L640.6,336C640.6,336,640.6,336,640.6,336z"/>
			<path fill="#464547" d="M636.3,337.9c0,0-0.1,0-0.1,0C636.2,337.9,636.2,338,636.3,337.9C636.2,337.9,636.2,337.9,636.3,337.9z"
				/>
			<path fill="#464547" d="M634.7,338.5C634.7,338.5,634.7,338.5,634.7,338.5C634.7,338.5,634.8,338.5,634.7,338.5L634.7,338.5z"/>
			<path fill="#464547" d="M602.3,341.4C602.3,341.4,602.2,341.3,602.3,341.4C602.2,341.4,602,341.4,602.3,341.4z"/>
			<path fill="#464547" d="M655.8,326.7C655.8,326.7,655.8,326.7,655.8,326.7L655.8,326.7C655.8,326.7,655.8,326.7,655.8,326.7z"/>
			<path fill="#464547" d="M636.4,338.5l-0.3,0.1C636.3,338.6,636.4,338.6,636.4,338.5z"/>
			<path fill="#464547" d="M614.4,341.7L614.4,341.7C614.4,341.8,614.4,341.8,614.4,341.7z"/>
			<path fill="#464547" d="M635.4,338.9c-0.1,0-0.1,0-0.2,0c0,0,0,0,0,0L635.4,338.9z"/>
			<path fill="#464547" d="M602.2,341.3L602.2,341.3L602.2,341.3z"/>
			<path fill="#464547" d="M600.4,341.3c0.3,0,0.1-0.1,0.2-0.1c0.3,0,0.1,0.1,0.2,0.2c0.2,0,0.3-0.1,0.5-0.1c0,0,0,0,0,0
				c0.2-0.1,0.6,0,0.8,0c0,0,0,0,0,0c0-0.1,0-0.1,0-0.2c0.1,0,0.2-0.1,0.3,0c-0.1,0-0.1,0-0.1,0l0.1,0c0.1,0.1-0.2,0-0.2,0.1
				c0.2,0,0.5-0.1,0.7,0c0,0.1-0.4,0-0.2,0.1l-0.3-0.1c0.2,0.2-0.2,0,0,0.2c0.4,0.1,0.4,0,0.8,0c0.1,0,0-0.1,0.1-0.1
				c0.5-0.1,0.4,0.3,0.8,0.2c0.1-0.1,0.1-0.2,0.4-0.1l-0.1,0.1c0.4,0,0.2-0.1,0.6-0.1c-0.1,0-0.3,0-0.2,0c0.2,0.1,0.2-0.1,0.4,0
				l0,0.1c0.4,0,0.8-0.1,1.2-0.1c0,0-0.1,0.1,0,0.1c0.5,0,1.1,0,1.6,0.1l0.2-0.1c0,0,0.1,0,0,0.1c0.2,0,0-0.1,0.1-0.1
				c0.1,0,0.1,0.1,0.1,0.1c0.4-0.1,1-0.1,1.4,0l-0.1,0c0.3,0,0.3-0.2,0.6-0.1l-0.1,0c0.6,0,1.3,0,1.8,0.1c0.1-0.1,0.6,0.1,0.7-0.1
				c0.4,0.1,0.3,0.1,0.8,0.2c0.1,0,0.2-0.1,0.4-0.1l0,0.1l0.2-0.1l0.1,0.1l0.2,0c-0.1,0-0.1,0-0.1-0.1c0.2,0,0.6,0.1,0.6,0.1
				l0.6-0.1c0,0-0.1,0-0.2,0.1c0.3-0.1,0.1,0.1,0.3,0c0,0,0-0.1,0-0.1c0.1,0.1,0.5,0.1,0.7,0l0,0.1c0.4,0,0.9,0,1.4-0.1
				c-0.2,0-0.1-0.1,0-0.1l0.1,0.1c0.1-0.1-0.1,0,0-0.1c0.2,0,0.1,0.1,0,0.1l0.2,0c0,0,0,0,0,0.1c0.1-0.1,0.4,0.1,0.5,0l0,0
				c0.5,0,0.7-0.1,1.1-0.1c0-0.1,0.2-0.1,0.3-0.1c0.3,0,0.6,0.1,1,0c0.2-0.1,0.1-0.1,0.2-0.1c0,0.1,0.4,0,0.2,0.1
				c0.4,0,0.5-0.1,1-0.1c-0.1,0-0.1,0-0.1-0.1c0.1,0,0.2,0,0.2,0.1l0,0c0.6-0.2,1.4,0.1,1.8-0.1l0,0l0.5-0.1c0.2,0-0.1,0.1,0,0.1
				c0.5-0.2,0.8-0.1,1.2-0.2c0.4,0.2,1.2-0.2,1.6-0.1l0,0c0.1-0.1,0.1,0,0.2,0c0,0-0.1,0-0.1-0.1c0.5-0.1,1-0.2,1.5-0.3
				c0.5-0.1,1-0.1,1.5-0.2c0.4-0.1,0.1-0.3,0.6-0.3l-0.1,0.1c0.7-0.3,1.5-0.4,2.2-0.7c0,0,0,0.1-0.1,0.1c0.2,0,0.5-0.2,0.5-0.2
				c0.1,0,0,0,0.1,0c0.2,0,0.3-0.2,0.4-0.2c0,0,0,0-0.1,0c0.1-0.1,0.5-0.1,0.3-0.2c0.3-0.1,0.5-0.2,0.7-0.2c0.1-0.1,0.5-0.1,0.5-0.3
				c0,0.1,0.5-0.1,0.6-0.2c0,0.1,0.2,0,0.1,0.1c0.2-0.1,0.3-0.2,0.3-0.2c0.4,0,0.6-0.4,0.9-0.3c0.3-0.1,0.5-0.3,0.8-0.4
				c0.2-0.1,0.5-0.3,0.7-0.4c0,0.1-0.5,0.3-0.4,0.4c0.4-0.3,0.7-0.5,1.1-0.7c0.1,0,0,0.1-0.1,0.1c0.4-0.3,0.9-0.4,1.3-0.7
				c0,0,0,0-0.1,0.1c0.1,0,0.2-0.1,0.2-0.1l-0.1,0.1c-0.2,0,0.2-0.3,0.2-0.4c-0.1,0.2,0.4-0.2,0.3,0.1c0,0,0.1-0.1,0.1-0.1
				c0.1,0,0.1,0,0.1,0.1c0.3-0.2,0.1-0.2,0.4-0.3c0,0,0,0.1,0,0.1c0.1-0.1,0.2-0.2,0.4-0.3c0,0,0,0,0,0.1c0.4-0.2,0.5-0.5,1-0.6
				c-0.1,0.2,0.2,0,0.2,0l0.2-0.1l-0.1,0c0.2-0.1,0.3-0.3,0.5-0.3l-0.1,0.1l0.3-0.2l-0.2,0.1c0.2-0.2-0.1-0.1,0.2-0.2
				c0,0,0.2-0.1,0.3-0.1l0,0c0.1-0.1,0.1-0.2,0.3-0.2c0.1,0,0,0.1,0.1,0.1c0-0.1,0.4-0.3,0.5-0.4c0,0,0,0.1,0,0.1l0-0.1
				c0.1,0,0.1,0,0.1,0c0.3-0.1-0.2-0.1,0.2-0.2c0,0,0,0,0,0.1c0.3-0.2,0.6-0.4,0.9-0.5c0.1,0-0.2,0.2-0.1,0.2
				c0.4-0.3,0.8-0.6,1.1-0.9l-0.1,0c0-0.2,0.3-0.1,0.5-0.3c0,0,0,0.1,0,0.1c0.3-0.1,0.5-0.4,0.9-0.7l0,0.1c0.2-0.1,0.4-0.3,0.6-0.3
				c0-0.1,0.1-0.1,0-0.1c0.6-0.2,0.9-0.8,1.4-0.9c-0.1,0-0.1,0.1-0.1,0.1l0.4-0.3c-0.1,0-0.1,0-0.2,0c0-0.1,0.1-0.2,0.2-0.2
				c-0.1,0.2,0.1,0.1,0.2,0.1c0,0,0,0,0-0.1c0.3,0,0-0.1,0.3-0.3l0,0c0.1-0.1,0.2-0.2,0.3-0.3c0.1,0-0.1,0.1-0.1,0.2
				c0.1-0.1,0.2-0.3,0.4-0.4c-0.1,0.1-0.1,0.1-0.2,0.2c0.2,0,0.2-0.1,0.3-0.1l0,0l0.3-0.2l-0.1,0c0.1-0.3,0.4-0.3,0.5-0.6
				c-0.2,0.3,0,0.1,0,0.2c0.1,0,0.2-0.1,0.2,0c0.1-0.1,0.2-0.1,0.3-0.3c0,0,0.1-0.1,0.1,0c0.1-0.1-0.1,0-0.1-0.1
				c0.2-0.3,0.6-0.3,0.9-0.7c0.3-0.3,0.3-0.4,0.5-0.6c0.1,0,0,0.1,0,0.1c0.2-0.1,0.3-0.2,0.4-0.3c0,0,0,0,0.1,0
				c0.1-0.1,0-0.1,0.2-0.2c0,0,0,0.1,0,0.2c0.1-0.1,0.2-0.3,0.3-0.4c0.1,0,0,0.1-0.1,0.2c0.1-0.1,0.4-0.3,0.4-0.4l-0.1,0.1
				c0.1,0,0.1,0,0,0.1c-0.1,0.2-0.2,0.1-0.2,0.1l0.1-0.1c-0.2-0.1-0.4,0.3-0.6,0.5l0-0.2l-0.1,0.2c-0.1,0-0.1,0,0-0.1
				c-0.2,0.1-0.1,0.1-0.3,0.2c0,0,0,0,0,0l-0.1,0.1c0,0-0.1-0.1,0-0.1c-0.3,0.1-0.3,0.4-0.5,0.4l0,0c-0.3,0.3,0,0.1-0.2,0.4l-0.3,0
				l0,0.1c0,0-0.1,0.1-0.1,0c-0.1,0.1,0,0,0,0.1c-0.2,0.1-0.5,0.4-0.6,0.3c0,0.1,0.2-0.1,0,0.1c-0.1-0.1-0.2,0.2-0.4,0.2
				c0-0.1,0.2-0.2,0-0.1c0,0.2-0.3,0.2-0.4,0.3c0.1,0.1-0.3,0.2-0.5,0.4c0,0-0.5,0.3-0.7,0.4l0,0c0,0.1-0.2,0.3-0.3,0.4
				c0-0.1,0-0.1,0.1-0.2l-0.1,0.1c0,0.1-0.1,0.1-0.1,0.2l0-0.1c-0.2,0.1-0.3,0.4-0.6,0.5c0,0.1,0.3,0,0.1,0.3c0,0-0.1-0.1,0-0.1
				c0,0-0.1,0.1-0.1,0.1l0.1-0.1c-0.1,0.1,0,0.1-0.1,0.1c0,0-0.1,0-0.1,0c0,0,0.1,0,0.1-0.1c-0.1,0.1-0.3,0.1-0.3,0.1
				c0,0,0,0.1,0,0.1c-0.2,0.1-0.1,0-0.2,0c0,0.1-0.2,0.1-0.1,0.2c-0.1,0-0.1,0-0.1,0c-0.1,0.1-0.5,0.3-0.3,0.3l0,0l0,0l0,0l0,0
				c-0.3,0.3-0.7,0.4-1.1,0.7l0,0c-0.2,0.2-0.4,0.3-0.6,0.5c-0.1,0-0.2,0-0.2,0c-0.1,0.1-0.1,0.2-0.4,0.3c0.1-0.1-0.1,0,0.1-0.1
				c-0.2,0.1-0.3,0.1-0.5,0.3c0-0.1-0.2,0-0.3,0.1l0.2,0c-0.1,0.1-0.2,0.1-0.3,0.2l0-0.1c-0.5,0.2-0.7,0.6-1.1,0.7
				c-0.1,0.1,0.3-0.1,0.2,0c-0.2,0.1-0.5,0.1-0.5,0.1c-0.3,0.1-0.2,0.3-0.5,0.4c0.1,0,0.1,0.1-0.1,0.2c-0.2,0.1-0.3,0-0.2-0.1
				c0,0,0.1,0,0.1,0c0.1,0,0.1-0.1,0-0.1l0,0c-0.1,0-0.4,0.2-0.3,0.1c-0.1,0.1,0,0.1,0.1,0c-0.3,0.1-0.4,0.2-0.7,0.3
				c0.1,0,0.1,0,0.1,0c-0.4,0.2-0.1,0.1-0.4,0.3c-0.2,0,0-0.1-0.2,0c-0.2,0.1-0.1-0.1,0-0.1c-0.2,0.2-0.5,0.2-0.6,0.3l0.1-0.1
				c-0.1,0.1-0.1,0.1-0.2,0.1l0.1,0c-0.1,0-0.1,0.1-0.2,0c-0.1,0.1,0.1,0.1,0,0.2c-0.1,0-0.3,0.2-0.4,0.1c0.3-0.1-0.1-0.1,0.2-0.2
				c0,0-0.1,0.1-0.2,0.1c0,0,0,0,0,0c-0.3,0.1-0.1,0.2-0.4,0.3c0-0.1-0.1-0.1-0.2,0c0.1-0.1,0.1,0,0,0.1c-0.2,0.1-0.2,0.1-0.3,0.2
				l0.1,0c0,0.1-0.1,0.1-0.3,0.2c0,0,0.1-0.1,0.1-0.1c-0.1,0.2-0.4,0.1-0.6,0.3c-0.1,0-0.1-0.1-0.2-0.1c-0.2,0.2-0.3,0.1-0.5,0.2
				c0.1,0,0.1,0,0,0.2l0.4-0.2l-0.2,0.2c0.1-0.1,0.3-0.2,0.3-0.2c-0.1,0.1-0.1,0.1,0,0.1c-0.2,0-0.3,0.2-0.6,0.2l-0.1-0.2
				c-0.3,0.1-0.5,0.3-0.9,0.5l0.1,0c0,0.1-0.2,0.1-0.4,0.2c0-0.1-0.1,0-0.2-0.1c0,0-0.3,0.1-0.3,0.2l-0.2,0
				c-0.3,0.1-0.3,0.3-0.6,0.4c0.1-0.1-0.1-0.1,0.1-0.2c-0.1,0-0.2,0.1-0.2,0.1c-0.1,0-0.3,0.2-0.4,0.2c0,0,0,0.1-0.1,0.1
				c0,0,0,0,0,0c0,0-0.2,0.1,0,0.1c-0.4,0-0.9,0.4-1.3,0.3c-0.2,0.1-0.5,0.2-0.7,0.3c0,0,0,0,0,0c-0.3,0-0.1,0.2-0.5,0.3
				c-0.2,0,0.2-0.1,0-0.1c-0.1-0.2-0.4,0.2-0.7,0.1l0.1,0c-0.2,0-0.4,0.2-0.7,0.3c0,0,0,0,0,0c-0.2,0.1-0.5,0.3-0.8,0.4
				c0.1-0.1,0.1-0.1,0-0.1c-0.1,0,0.1,0.1-0.2,0.2c-0.1,0-0.3,0-0.3-0.1l0.2-0.1c-0.1-0.1-0.3,0.1-0.4,0.1l0,0
				c-0.4,0.1-0.3,0.2-0.7,0.3l0,0c-0.2,0.2-0.2,0-0.4,0.1l-0.1-0.1c-0.1,0.1-0.5,0.2-0.7,0.3c0.1-0.1,0.4-0.2,0.6-0.3
				c-0.1,0-0.5,0.1-0.5,0.2c0.1,0,0.1-0.1,0.2-0.1c-0.2,0.1-0.4,0.2-0.6,0.3c0-0.2-0.7,0.1-1-0.1c-0.5,0.2-1,0.1-1.6,0.2
				c0.2,0.1-0.2,0-0.1,0.2c-0.1,0-0.2,0-0.2,0l-0.4-0.1c-0.1,0,0.1-0.1,0.1-0.1c-0.3,0-0.1-0.1-0.3-0.1c0,0.1-0.1,0.1-0.3,0.1
				l0.2,0.1c-0.4,0.1-0.4-0.1-0.8,0l0.1-0.1c-0.2,0.1-0.8,0.1-1,0.2c0,0-0.1-0.1,0-0.1c-0.5,0-1.1,0.3-1.5,0.2l0,0
				c-0.1,0-0.2,0.1-0.3,0.1c0,0,0,0,0,0c0,0-0.2,0.1-0.4,0.1l0.1-0.1c-0.5,0-0.8,0.2-1.2,0.2c0-0.1-0.4-0.1-0.6-0.2l0,0
				c-0.6,0-1,0.1-1.5,0.2c-0.3-0.1-1.1,0-1.7-0.1c0.1,0,0,0.1-0.1,0.1c-0.1,0-0.3,0.1-0.3,0l0,0c-0.1-0.1-0.4-0.1-0.6-0.1l0,0.2
				c-0.5-0.2-1.4,0.1-1.7-0.1c-0.1,0-0.3,0-0.4,0.1l0-0.1c-0.4,0-0.5,0-1,0l0.1-0.1c-0.2,0-0.3,0.2-0.5,0.2l-0.1-0.1
				c-0.4,0-0.9-0.1-1.3,0c0,0,0-0.1,0.1-0.1c-0.2,0-0.8-0.1-0.7,0.1c0-0.1-0.4,0-0.7,0l0-0.1c-0.2,0.1-0.2,0.1-0.5,0.2
				c-0.1,0-0.1-0.1,0,0c-0.2,0-0.2,0.1-0.4,0l0.1,0c-0.2,0-0.2,0-0.3,0.1c-0.1,0-0.4,0-0.5-0.1c0,0-0.2,0.1-0.3,0.1c0,0,0,0,0.1-0.1
				c-0.4-0.1-0.6,0.1-0.8,0c0,0,0,0,0-0.1c0.3,0,0.5,0,0.5,0c0-0.1-0.2-0.1,0-0.2c-0.2,0.1-0.5,0.2-0.8,0.1c0,0,0,0,0,0l0,0
				c-0.1,0-0.1,0-0.1,0c-0.1,0-0.1,0-0.2,0c0-0.1-0.3,0-0.4-0.1c0,0.1-0.1,0.1,0,0.1c0,0,0,0,0.1,0c0,0,0,0,0.1,0l0,0
				c0.1,0,0.2,0,0.3,0c-0.1,0-0.2,0.1-0.3,0c-0.1,0.1-0.1,0.1-0.2,0.1c-0.2-0.1-0.5-0.2-0.5-0.3c-0.4,0-0.9,0-1.1,0.1
				c-0.1,0-0.1-0.1-0.2-0.1c0.1,0,0.1,0,0.2,0c-0.2,0-0.6,0-0.7,0.1c-0.3-0.1,0.2-0.1-0.2-0.1l0.1,0c-0.7-0.2-1.2,0.2-1.9-0.1
				c0.1,0,0.1,0,0.1,0c-0.9-0.2-1.8-0.1-2.7-0.4c-0.2-0.1-0.3,0-0.4,0l0-0.1l-0.3,0.1c-0.4,0-0.6-0.3-1.1-0.2l0.1,0.1
				c-0.2,0-0.5-0.1-0.5-0.1c0,0-0.1,0.1-0.1,0l0,0l-0.4,0c-0.3-0.1,0.1-0.2-0.4-0.3c-0.2,0-0.5,0-0.5,0.1c0.1,0,0.2,0.1,0.2,0.1
				l-0.2,0c-0.1,0.1-0.2,0.2,0.2,0.4l0.3,0l0.1,0.1l-0.2,0c0.1,0.1,0.2,0,0.3,0c0,0,0,0.1,0.1,0.1l0.3-0.1c0,0.1-0.1,0.1,0,0.1
				c0.1,0-0.1-0.1,0.1-0.1c0.1,0.1,0.1,0.1,0.2,0.1c0,0,0,0.1-0.1,0.1c0.1,0,0.4,0,0.4,0c0.1,0.1,0.5,0,0.4,0.2c0,0,0.3-0.1,0.4-0.1
				c-0.2,0.1,0.5,0.1,0.4,0.2c0.2-0.1,0.6,0,0.9,0c0,0-0.1,0-0.1,0c0.2,0,0.2,0.1,0.3,0.1c0-0.1,0.3-0.1,0.4-0.2
				c0.2,0.1-0.1,0.1-0.1,0.2c0-0.1,0.4-0.1,0.3-0.1c0.2,0.1,0.1,0,0.2,0.2c0-0.1,0.1,0,0.3-0.1c0.2,0.1,0,0.1,0.3,0.1
				C600.7,341.3,600.4,341.3,600.4,341.3z M606.4,341.5L606.4,341.5c-0.1,0-0.1,0-0.1,0C606.3,341.5,606.4,341.5,606.4,341.5z
				 M606.9,341.5c-0.1,0-0.1,0-0.2,0c0,0,0-0.1,0.1-0.1C606.8,341.5,606.9,341.5,606.9,341.5z M605.9,340.9c0.1,0,0.1,0,0.1,0
				C606,340.9,605.9,340.9,605.9,340.9C605.9,340.9,605.9,340.9,605.9,340.9C605.9,340.9,605.9,340.9,605.9,340.9z"/>
			<path fill="#464547" d="M605.8,341C605.7,341,605.7,341,605.8,341C605.7,341,605.8,341,605.8,341C605.8,341,605.8,341,605.8,341
				C605.8,341,605.8,341,605.8,341z"/>
			<path fill="#464547" d="M649.1,331.2L649.1,331.2C649.1,331.2,649.1,331.2,649.1,331.2C649.1,331.2,649.1,331.2,649.1,331.2z"/>
			<polygon fill="#464547" points="613.9,341.8 613.9,341.8 613.8,341.8 			"/>
			<path fill="#464547" d="M651.5,329.8C651.5,329.8,651.5,329.8,651.5,329.8C651.6,329.8,651.5,329.8,651.5,329.8z"/>
			<path fill="#464547" d="M652.5,329.1l0.2-0.1C652.6,329.1,652.5,329.1,652.5,329.1z"/>
			<path fill="#464547" d="M653.3,328.6C653.3,328.6,653.3,328.6,653.3,328.6L653.3,328.6L653.3,328.6z"/>
			<path fill="#464547" d="M640.9,336.5C640.9,336.5,640.9,336.5,640.9,336.5C640.8,336.5,640.9,336.5,640.9,336.5z"/>
			<path fill="#464547" d="M644.7,334.2c0,0-0.1,0.1-0.1,0.1C644.6,334.3,644.7,334.3,644.7,334.2z"/>
			<polygon fill="#464547" points="636.5,338.5 636.5,338.5 636.4,338.5 			"/>
			<path fill="#464547" d="M644.4,334.4c0.1,0,0.1-0.1,0.2-0.1C644.5,334.4,644.4,334.4,644.4,334.4z"/>
			<polygon fill="#464547" points="656.5,326.3 656.5,326.2 656.5,326.2 			"/>
			<path fill="#464547" d="M656.5,326.2L656.5,326.2C656.5,326.2,656.5,326.2,656.5,326.2z"/>
			<path fill="#464547" d="M656.6,326.1L656.6,326.1C656.6,326.2,656.6,326.1,656.6,326.1z"/>
			<path fill="#464547" d="M655.5,327L655.5,327C655.5,327,655.5,327,655.5,327z"/>
			<path fill="#464547" d="M655.2,327.2c0.1,0,0.2-0.1,0.3-0.2l0,0C655.5,327.1,655.2,327.1,655.2,327.2z"/>
			<path fill="#464547" d="M653.7,327.8l0.3-0.2c-0.1,0-0.1,0,0-0.1C653.6,327.7,654.1,327.6,653.7,327.8z"/>
			<path fill="#464547" d="M652.9,328.4C653.1,328.2,652.9,328.3,652.9,328.4C652.8,328.4,652.8,328.4,652.9,328.4z"/>
			<path fill="#464547" d="M647.2,332.3L647.2,332.3C647.1,332.3,647.2,332.2,647.2,332.3z"/>
			<polygon fill="#464547" points="646.3,333.3 646.4,333.3 646.5,333.2 			"/>
			<polygon fill="#464547" points="645.4,333.3 645.4,333.2 645.2,333.4 			"/>
			<path fill="#464547" d="M635,338.3L635,338.3C635.1,338.4,635.1,338.3,635,338.3z"/>
			<path fill="#464547" d="M630.2,339.8c-0.1,0-0.2,0-0.3,0C630,339.8,630.1,339.8,630.2,339.8z"/>
			<polygon fill="#464547" points="615.2,341 615.3,341 615.1,341 			"/>
		</g>
		<g>
			<path fill="#464547" d="M658.8,333.2C658.8,333.2,658.7,333.2,658.8,333.2l0,0.1L658.8,333.2z"/>
			<path fill="#464547" d="M658.4,333.8c0,0.1,0,0.3,0.1,0.2C658.5,333.9,658.6,333.9,658.4,333.8c0.1-0.2,0.2-0.2,0.2-0.2
				c0,0,0.1-0.1,0-0.2C658.5,333.5,658.5,333.6,658.4,333.8C658.5,333.8,658.4,333.8,658.4,333.8z"/>
			<path fill="#464547" d="M651.7,339.5L651.7,339.5C651.8,339.5,651.8,339.5,651.7,339.5z"/>
			<path fill="#464547" d="M646.6,341.7C646.7,341.6,646.7,341.6,646.6,341.7C646.6,341.6,646.6,341.7,646.6,341.7z"/>
			<path fill="#464547" d="M645.7,341.9C645.7,341.9,645.7,341.9,645.7,341.9C645.7,341.9,645.7,341.9,645.7,341.9z"/>
			<path fill="#464547" d="M651.7,339.5l-0.1,0C651.6,339.5,651.7,339.5,651.7,339.5z"/>
			<path fill="#464547" d="M658.1,335C658.1,335,658.1,335,658.1,335C658.1,335,658.1,335,658.1,335L658.1,335z"/>
			<path fill="#464547" d="M653.8,338.2L653.8,338.2C653.9,338.2,653.9,338.1,653.8,338.2L653.8,338.2z"/>
			<path fill="#464547" d="M655.3,337.1c0,0,0,0.1,0,0.1C655.4,337.2,655.4,337.2,655.3,337.1C655.4,337.2,655.4,337.1,655.3,337.1z
				"/>
			<path fill="#464547" d="M657.5,335.2L657.5,335.2C657.6,335.1,657.5,335.2,657.5,335.2z"/>
			<path fill="#464547" d="M652.7,338.9C652.6,338.9,652.6,338.8,652.7,338.9C652.6,338.9,652.6,338.9,652.7,338.9z"/>
			<path fill="#464547" d="M601.6,348.8C601.6,348.8,601.6,348.8,601.6,348.8C601.6,348.8,601.6,348.8,601.6,348.8z"/>
			<path fill="#464547" d="M599.4,348.2L599.4,348.2C599.5,348.2,599.5,348.1,599.4,348.2L599.4,348.2z"/>
			<path fill="#464547" d="M644,342.4C644.1,342.4,644.1,342.4,644,342.4C644.1,342.4,644.1,342.4,644,342.4z"/>
			<path fill="#464547" d="M628.8,346.9c0.2,0-0.3,0.2,0,0.2C628.8,347,629,346.9,628.8,346.9z"/>
			<path fill="#464547" d="M658,335.1L658,335.1C658,335.1,658,335.1,658,335.1z"/>
			<path fill="#464547" d="M628.8,347L628.8,347L628.8,347C628.8,347,628.8,347,628.8,347z"/>
			<path fill="#464547" d="M640.3,343.8C640.3,343.8,640.3,343.8,640.3,343.8C640.3,343.8,640.3,343.8,640.3,343.8z"/>
			<path fill="#464547" d="M643.1,342.9L643.1,342.9C643.1,343,643.1,342.9,643.1,342.9z"/>
			<path fill="#464547" d="M638.9,344.4c0,0-0.1,0-0.1,0C638.8,344.4,638.8,344.4,638.9,344.4C638.8,344.4,638.8,344.4,638.9,344.4z
				"/>
			<path fill="#464547" d="M637.3,344.9C637.3,344.9,637.3,344.9,637.3,344.9C637.4,344.9,637.4,344.9,637.3,344.9L637.3,344.9z"/>
			<path fill="#464547" d="M606.5,349.1C606.5,349.1,606.4,349.1,606.5,349.1C606.4,349.1,606.2,349.1,606.5,349.1z"/>
			<path fill="#464547" d="M658,335C658,335,658,335,658,335C658,335,658,335,658,335C658,335,658,335,658,335z"/>
			<path fill="#464547" d="M639,345.1l-0.3,0.1C638.8,345.1,638.9,345.1,639,345.1z"/>
			<path fill="#464547" d="M618.1,349L618.1,349C618.1,349,618.1,349,618.1,349z"/>
			<path fill="#464547" d="M638,345.3c-0.1,0-0.1,0-0.2,0c0,0,0,0,0,0L638,345.3z"/>
			<path fill="#464547" d="M606.4,349.1L606.4,349.1L606.4,349.1z"/>
			<path fill="#464547" d="M604.7,349.2c0.2,0,0.1-0.1,0.2-0.2c0.3,0,0.1,0.1,0.2,0.2c0.2,0,0.3-0.1,0.5-0.1c0,0,0,0,0,0
				c0.2-0.1,0.6,0,0.8-0.1c0,0,0,0,0,0c0-0.1,0-0.1,0-0.1c0.1,0,0.2-0.1,0.2,0c-0.1,0-0.1,0-0.1,0l0.1,0c0.1,0.1-0.2,0-0.2,0.1
				c0.2,0,0.5-0.1,0.7-0.1c0,0.1-0.4,0-0.2,0.1l-0.3-0.1c0.2,0.2-0.2,0,0,0.2c0.3,0,0.4,0,0.7,0c0.1-0.1,0-0.1,0.1-0.1
				c0.5-0.1,0.4,0.3,0.8,0.1c0.1-0.1,0.1-0.2,0.4-0.1l-0.1,0.1c0.3,0,0.2-0.2,0.6-0.1c-0.1,0-0.3,0-0.2,0c0.2,0.1,0.2-0.1,0.3-0.1
				l0,0.1c0.4,0,0.8-0.1,1.2-0.1c0,0-0.1,0.1,0,0.1c0.5,0,1.1,0,1.6,0.1l0.2-0.1c0,0,0.1,0,0,0.1c0.2,0,0-0.1,0.1-0.1
				c0.1,0,0.1,0,0.1,0.1c0.3-0.1,0.9-0.2,1.3-0.1l-0.1,0c0.3,0,0.3-0.2,0.6-0.1l0,0c0.6,0,1.3-0.1,1.7,0c0.1-0.1,0.6,0,0.6-0.1
				c0.3,0.1,0.2,0.1,0.7,0.1c0.1,0,0.2-0.1,0.3-0.2l0,0.1l0.2-0.1l0.1,0.1l0.1,0c-0.1,0-0.1,0-0.1-0.1c0.2-0.1,0.6,0,0.6,0.1
				l0.5-0.1c0,0-0.1,0.1-0.2,0.1c0.3-0.1,0.1,0.1,0.3,0c0,0,0-0.1,0-0.1c0.1,0,0.4,0,0.7,0l0,0.1c0.4,0,0.9-0.1,1.3-0.2
				c-0.2,0-0.1-0.1,0-0.1l0.1,0.1c0.1-0.1-0.1,0,0-0.1c0.2,0,0.1,0.1,0,0.1l0.2-0.1c0,0,0,0,0,0.1c0.1-0.1,0.4,0.1,0.5-0.1l0,0
				c0.5,0,0.7-0.1,1-0.2c0-0.1,0.1-0.1,0.2-0.2c0.3,0,0.6,0,0.9,0c0.2-0.1,0.1-0.1,0.2-0.1c0,0.1,0.4,0,0.2,0.1
				c0.4-0.1,0.5-0.1,1-0.2c-0.1,0-0.1,0-0.1-0.1c0.1,0,0.2,0,0.2,0l0,0c0.5-0.2,1.3,0,1.7-0.2l0,0l0.4-0.2c0.2,0-0.1,0.1,0,0.1
				c0.5-0.2,0.8-0.1,1.2-0.3c0.4,0.2,1.1-0.2,1.6-0.2l0,0c0.1-0.1,0.1,0,0.2,0c0,0-0.1,0-0.1-0.1c0.9-0.3,1.9-0.4,2.9-0.5
				c0.3-0.1,0.1-0.3,0.6-0.3l-0.1,0.1c0.7-0.3,1.4-0.4,2.1-0.6c0,0,0,0.1-0.1,0.1c0.2,0,0.5-0.1,0.5-0.2c0.1,0,0,0,0.1,0.1
				c0.2,0,0.3-0.2,0.4-0.1c0,0,0,0-0.1,0c0.1-0.1,0.4-0.1,0.3-0.2c0.3,0,0.5-0.2,0.7-0.2c0.1-0.1,0.4-0.1,0.4-0.2
				c0,0.1,0.5,0,0.6-0.1c0,0.1,0.2,0,0.1,0.1c0.2-0.1,0.3-0.1,0.3-0.2c0.4,0,0.6-0.3,0.9-0.2c0.5-0.2,1-0.5,1.5-0.6
				c0,0.1-0.5,0.2-0.5,0.3c0.4-0.2,0.7-0.4,1.1-0.5c0.1,0,0,0.1-0.1,0.1c0.4-0.2,0.9-0.3,1.2-0.5c0,0,0,0-0.1,0.1
				c0.1,0,0.2,0,0.2-0.1l-0.1,0c-0.2,0,0.2-0.3,0.2-0.3c-0.1,0.2,0.4-0.1,0.3,0.2c0,0,0.1-0.1,0.1-0.1c0.1,0,0.1,0,0.1,0.1
				c0.3-0.1,0.1-0.2,0.4-0.3c0,0,0,0.1-0.1,0.1c0.1-0.1,0.2-0.2,0.4-0.3c0,0,0,0,0,0.1c0.4-0.2,0.6-0.4,1-0.5
				c-0.1,0.2,0.2,0,0.2,0.1l0.2-0.1l-0.1,0c0.2-0.1,0.3-0.2,0.5-0.2l-0.1,0.1l0.3-0.2l-0.2,0c0.2-0.1-0.1-0.1,0.2-0.2
				c0,0,0.2-0.1,0.3-0.1l0,0c0.1-0.1,0.2-0.1,0.3-0.2c0,0,0,0.1,0,0.1c0.1-0.1,0.4-0.2,0.5-0.3c0,0,0,0.1,0,0.1l0-0.1
				c0.1,0,0.1,0,0.1,0c0.3-0.1-0.1-0.1,0.2-0.2c0,0,0,0-0.1,0.1c0.3-0.1,0.6-0.3,0.9-0.4c0.1,0.1-0.2,0.1-0.1,0.2
				c0.4-0.2,0.8-0.5,1.2-0.7l-0.1,0c0-0.2,0.3-0.1,0.5-0.2c0,0,0,0.1,0,0.1c0.3-0.1,0.5-0.3,0.9-0.5l0,0.1c0.2,0,0.4-0.2,0.6-0.3
				c0-0.1,0.1-0.1,0-0.1c0.6-0.1,0.9-0.6,1.5-0.7c-0.1,0-0.1,0.1-0.1,0.1c0.1-0.1,0.2-0.2,0.4-0.3c-0.1,0-0.1,0-0.2,0
				c0-0.1,0.1-0.2,0.2-0.2c-0.1,0.1,0.1,0.1,0.2,0.1c0,0,0,0,0-0.1c0.3,0,0-0.1,0.3-0.2l0,0c0.1-0.1,0.2-0.2,0.3-0.2
				c0.1,0-0.1,0.1-0.1,0.2c0.1-0.1,0.2-0.3,0.4-0.4c0,0.1-0.1,0.1-0.2,0.2c0.2,0,0.2-0.1,0.3-0.1l0,0l0.3-0.1l-0.1,0
				c0.1-0.3,0.3-0.3,0.5-0.6c-0.1,0.3,0,0.1,0,0.2c0.1,0,0.2-0.1,0.2,0c0.1-0.1,0.2-0.1,0.3-0.3c0,0,0.1-0.1,0.1,0
				c0.1-0.1-0.1,0-0.1,0c0.1-0.3,0.6-0.4,0.8-0.8c0.2-0.3,0.2-0.4,0.3-0.7c0.1-0.1,0,0.1,0,0.1c0.1-0.1,0.2-0.2,0.3-0.4
				c0,0,0,0,0.1,0c0.1-0.1,0-0.1,0.1-0.3c0,0,0,0.1,0,0.2c0.1-0.2,0.1-0.3,0.2-0.5c0.1,0,0,0.1,0,0.2c0.1-0.2,0.2-0.5,0.1-0.5
				l-0.1,0.1c0-0.1,0.1,0,0.1,0c0,0.2-0.1,0.2-0.2,0.2l0-0.1c-0.2,0-0.2,0.4-0.3,0.6c0,0,0-0.1,0-0.1c0,0.1,0,0.2-0.1,0.3
				c-0.1,0-0.1,0-0.1-0.1c-0.1,0.1-0.1,0.1-0.2,0.2c0,0,0,0,0,0c0,0.1,0,0.1-0.1,0.2c0,0-0.1,0,0-0.1c-0.2,0.2-0.2,0.4-0.4,0.4l0,0
				c-0.2,0.3,0,0.1-0.1,0.4c-0.1,0-0.2,0-0.3,0l0,0.1c0,0-0.1,0.1-0.1,0c-0.1,0.2,0,0,0,0.1c-0.2,0.1-0.4,0.4-0.5,0.3
				c0,0.1,0.2-0.1,0,0.1c-0.1-0.1-0.2,0.2-0.4,0.2c0-0.1,0.2-0.2,0-0.1c0,0.2-0.3,0.2-0.4,0.3c0.1,0.1-0.2,0.2-0.4,0.4
				c0,0-0.4,0.2-0.7,0.3l0,0c0,0.1-0.2,0.2-0.3,0.4c0-0.1,0-0.1,0.1-0.2l-0.1,0.1c0,0.1-0.1,0.1-0.1,0.2l0-0.1
				c-0.2,0.1-0.3,0.3-0.6,0.4c0,0.1,0.3,0.1,0.1,0.3c0,0-0.1-0.1,0-0.1c0,0-0.1,0.1-0.1,0.1l0.1-0.1c-0.1,0,0,0.1-0.1,0.1
				c0-0.1-0.1,0-0.1,0c0,0,0.1,0,0.1-0.1c-0.1,0.1-0.3,0.1-0.3,0.1c0,0,0,0.1,0,0.1c-0.2,0.1-0.1,0-0.2,0c0,0.1-0.2,0.1-0.1,0.2
				c-0.1,0-0.1,0-0.1,0c-0.1,0.1-0.5,0.3-0.3,0.3l0,0c0,0,0,0,0,0l0,0l0,0c-0.3,0.3-0.7,0.3-1.1,0.5l0,0c-0.2,0.1-0.5,0.2-0.6,0.4
				c-0.1,0-0.2,0-0.2,0c-0.2,0.1-0.2,0.1-0.4,0.2c0.1-0.1-0.1,0,0.2-0.1c-0.2,0.1-0.3,0-0.5,0.2c0-0.1-0.2,0-0.3,0l0.2,0
				c-0.1,0.1-0.2,0.1-0.3,0.1l0-0.1c-0.5,0.1-0.7,0.5-1.1,0.5c-0.1,0.1,0.3-0.1,0.2,0.1c-0.2,0.1-0.5,0-0.5,0.1
				c-0.3,0.1-0.2,0.2-0.5,0.3c0,0,0.1,0.1-0.1,0.2c-0.2,0.1-0.3,0-0.2-0.1c0,0,0.1,0,0.1,0c0.1,0,0.1-0.1,0-0.1l0,0
				c-0.1,0-0.4,0.1-0.3,0c-0.1,0.1,0,0.1,0.1,0.1c-0.3,0.1-0.4,0.2-0.7,0.2c0,0,0.1,0,0.1,0c-0.4,0.1-0.1,0.1-0.4,0.2
				c-0.2,0,0-0.1-0.2,0c-0.2,0-0.1-0.1,0-0.1c-0.2,0.2-0.5,0.1-0.6,0.2l0.1-0.1c-0.1,0-0.1,0.1-0.2,0.1l0.1,0c-0.1,0-0.1,0-0.2,0
				c-0.1,0.1,0.1,0.1,0,0.2c-0.1,0-0.3,0.1-0.4,0.1c0.3-0.1-0.1-0.1,0.2-0.2c0,0-0.1,0.1-0.2,0.1c0,0,0,0,0,0
				c-0.3,0-0.1,0.1-0.4,0.3c0-0.1-0.1-0.1-0.2,0c0.1,0,0.1,0.1,0,0.1c-0.2,0-0.2,0.1-0.3,0.1l0.1,0c0,0.1-0.1,0.1-0.3,0.2
				c0,0,0.1-0.1,0.1-0.1c-0.1,0.1-0.4,0-0.6,0.2c-0.1,0,0-0.1-0.1-0.1c-0.2,0.2-0.3,0-0.5,0.2c0.1,0,0.1,0-0.1,0.1l0.4-0.2l-0.2,0.2
				c0.1,0,0.3-0.1,0.3-0.2c-0.1,0.1-0.1,0.1,0,0.1c-0.2,0-0.3,0.2-0.6,0.2l-0.1-0.2c-0.3,0-0.5,0.3-0.9,0.4l0.1,0
				c0,0.1-0.2,0.1-0.4,0.2c0-0.1-0.1-0.1-0.2-0.1c0,0-0.3,0.1-0.3,0.2l-0.2,0c-0.3,0.1-0.3,0.3-0.6,0.4c0.1-0.1-0.1-0.1,0.1-0.2
				c-0.1,0-0.2,0.1-0.2,0.1c-0.1,0-0.3,0.2-0.4,0.1c0,0,0,0.1-0.2,0.1c0,0,0,0,0,0c0,0-0.2,0.1-0.1,0.1c-0.4-0.1-0.9,0.3-1.2,0.2
				c-0.2,0.1-0.5,0.2-0.7,0.3c0,0,0,0,0,0c-0.3,0-0.1,0.2-0.5,0.2c-0.2,0,0.2-0.1,0-0.1c-0.1-0.2-0.4,0.1-0.6,0.1l0,0
				c-0.2,0-0.4,0.2-0.7,0.2c0,0,0,0,0,0c-0.2,0.1-0.5,0.3-0.8,0.4c0.1-0.1,0.1-0.1,0-0.1c-0.1,0,0.1,0.1-0.2,0.2
				c-0.1,0-0.3,0-0.3-0.1l0.2-0.1c-0.1-0.1-0.3,0.1-0.4,0.1l0,0c-0.3,0.1-0.3,0.2-0.7,0.3l0,0c-0.2,0.2-0.2,0-0.4,0.1l-0.1-0.1
				c-0.1,0.1-0.4,0.2-0.7,0.3c0.1-0.1,0.4-0.2,0.5-0.3c-0.1,0-0.4,0.1-0.5,0.2c0.1,0,0.1-0.1,0.2-0.1c-0.1,0.1-0.3,0.2-0.6,0.3
				c0-0.2-0.7,0.1-0.9,0c-0.5,0.2-0.9,0.2-1.5,0.3c0.2,0.1-0.2,0-0.1,0.2c-0.1,0-0.2,0-0.2,0l-0.4,0c-0.1,0,0.1-0.1,0.1-0.1
				c-0.3,0-0.1-0.1-0.3-0.1c0,0.1-0.1,0.1-0.2,0.1l0.2,0c-0.4,0.2-0.4-0.1-0.7,0.1l0.1-0.1c-0.2,0.1-0.7,0.1-0.9,0.3
				c0,0-0.1-0.1,0-0.1c-0.5,0.1-1,0.3-1.4,0.3l0,0c-0.1,0-0.1,0.1-0.3,0.1c0,0,0,0,0,0c0,0-0.2,0.1-0.4,0.1l0.1-0.1
				c-0.5,0-0.7,0.2-1.1,0.3c0-0.1-0.4-0.1-0.6-0.1l0,0c-0.6,0.1-0.9,0.2-1.4,0.3c-0.3-0.1-1.1,0.1-1.6,0c0.1,0,0,0.1-0.1,0.1
				c-0.1,0-0.3,0.1-0.3,0l0,0c-0.1-0.1-0.3-0.1-0.5,0l0,0.2c-0.5-0.2-1.3,0.2-1.6,0c-0.1,0-0.3,0.1-0.4,0.1l0-0.1
				c-0.3,0-0.5,0-0.9,0l0.1-0.1c-0.2,0-0.3,0.3-0.5,0.3l-0.1-0.1c-0.4,0-0.8-0.1-1.2,0.1c0,0,0-0.1,0.1-0.1c-0.2,0-0.8-0.1-0.7,0.1
				c0-0.1-0.4,0-0.6,0l0-0.1c-0.2,0.1-0.2,0.1-0.5,0.2c-0.1,0-0.1-0.1,0,0c-0.2,0-0.2,0.1-0.4,0l0.1-0.1c-0.2,0-0.2,0-0.3,0.1
				c-0.1,0-0.4,0-0.4-0.1c0,0-0.1,0.1-0.3,0.1c0,0,0,0,0.1-0.1c-0.4-0.1-0.5,0.1-0.8,0c0,0,0,0,0,0c0.3,0,0.5,0,0.5,0
				c0-0.1-0.2-0.1,0-0.2c-0.2,0.1-0.5,0.2-0.7,0.1c0,0,0,0,0,0l0,0c-0.1,0-0.1,0-0.1,0c-0.1,0-0.1,0-0.2,0c0-0.1-0.3,0-0.4,0
				c0,0.1-0.1,0.1,0,0.1c0,0,0,0,0.1,0c0,0,0,0,0,0l0,0c0.1,0,0.2,0,0.3,0c-0.1,0-0.2,0.1-0.3,0c-0.1,0.1-0.1,0.1-0.2,0.1
				c-0.2-0.1-0.5-0.2-0.5-0.3c-0.3,0-0.8,0-1,0.2c-0.1,0-0.1,0-0.1-0.1c0.1,0,0.1,0,0.2,0c-0.2,0-0.6,0-0.6,0.1
				c-0.2-0.1,0.1-0.1-0.2-0.1l0,0c-0.7-0.2-1.1,0.2-1.8,0c0.1,0,0.1,0,0.1,0c-0.8-0.1-1.8,0-2.6-0.3c-0.2-0.1-0.3,0-0.4,0.1l0-0.1
				l-0.3,0.1c-0.4,0-0.6-0.3-1-0.2l0.1,0.1c-0.2,0-0.5,0-0.5-0.1c0,0-0.1,0.1-0.1,0l0,0l-0.4,0c-0.3-0.1,0.1-0.2-0.4-0.2
				c-0.2,0-0.5,0.1-0.4,0.1c0.1,0,0.2,0,0.2,0.1l-0.2,0c0,0.1-0.2,0.3,0.2,0.4l0.3-0.1l0.1,0.1l-0.2,0c0.1,0.1,0.2,0,0.3,0
				c0,0,0.1,0.1,0.1,0.1l0.3-0.1c0,0.1-0.1,0.1,0,0.1c0.1,0-0.1-0.1,0.1-0.1c0.1,0.1,0.1,0.1,0.2,0.1c0,0,0,0.1-0.1,0.1
				c0.1,0,0.3,0,0.4,0c0.1,0.1,0.4,0,0.4,0.2c0,0,0.2-0.1,0.4-0.1c-0.2,0.1,0.4,0.1,0.4,0.2c0.2-0.1,0.6,0,0.9-0.1c0,0-0.1,0-0.1,0
				c0.2,0,0.2,0.1,0.3,0.1c0-0.1,0.3-0.1,0.4-0.2c0.2,0.1-0.1,0.1-0.1,0.2c0-0.1,0.4-0.1,0.3-0.1c0.1,0.1,0.1,0,0.2,0.1
				c0-0.1,0.1,0,0.3-0.1c0.2,0.1,0,0.1,0.3,0.1C604.9,349.1,604.7,349.2,604.7,349.2z M610.4,349.1L610.4,349.1c0,0-0.1,0-0.1,0
				C610.4,349.1,610.4,349.1,610.4,349.1z M610.9,349.1c-0.1,0-0.1,0-0.2,0c0,0,0-0.1,0-0.1C610.7,349.1,610.9,349.1,610.9,349.1z
				 M609.9,348.6c0.1,0,0.1,0,0.1,0C610,348.6,610,348.6,609.9,348.6C609.9,348.6,609.9,348.6,609.9,348.6
				C609.9,348.6,609.9,348.6,609.9,348.6z"/>
			<path fill="#464547" d="M609.8,348.7C609.8,348.7,609.8,348.7,609.8,348.7C609.8,348.7,609.8,348.7,609.8,348.7L609.8,348.7
				C609.8,348.7,609.8,348.7,609.8,348.7z"/>
			<path fill="#464547" d="M651.8,339.4L651.8,339.4C651.8,339.4,651.8,339.4,651.8,339.4C651.8,339.5,651.8,339.4,651.8,339.4z"/>
			<polygon fill="#464547" points="617.6,349.1 617.6,349 617.5,349.1 			"/>
			<path fill="#464547" d="M654.2,338.4C654.2,338.4,654.3,338.4,654.2,338.4C654.3,338.4,654.3,338.4,654.2,338.4z"/>
			<path fill="#464547" d="M655.2,337.8l0.1-0.1C655.3,337.7,655.2,337.7,655.2,337.8z"/>
			<path fill="#464547" d="M655.9,337.2C655.9,337.2,655.9,337.2,655.9,337.2L655.9,337.2L655.9,337.2z"/>
			<path fill="#464547" d="M643.4,343.4C643.4,343.4,643.4,343.4,643.4,343.4C643.3,343.5,643.3,343.5,643.4,343.4z"/>
			<path fill="#464547" d="M647.2,341.8c0,0-0.1,0.1-0.1,0.1C647.2,341.8,647.2,341.8,647.2,341.8z"/>
			<polygon fill="#464547" points="639,345 639,345 639,345.1 			"/>
			<path fill="#464547" d="M646.9,341.9c0.1,0,0.1,0,0.2-0.1C647,341.9,647,341.9,646.9,341.9z"/>
			<path fill="#464547" d="M658.5,334.3L658.5,334.3C658.5,334.3,658.5,334.3,658.5,334.3L658.5,334.3z"/>
			<path fill="#464547" d="M658.5,334.3L658.5,334.3C658.5,334.2,658.5,334.3,658.5,334.3z"/>
			<path fill="#464547" d="M658.5,334.1c0,0,0,0.1,0,0.1C658.5,334.2,658.5,334.1,658.5,334.1z"/>
			<path fill="#464547" d="M657.8,335.3L657.8,335.3C657.8,335.3,657.8,335.3,657.8,335.3z"/>
			<path fill="#464547" d="M657.6,335.6c0.1-0.1,0.2-0.1,0.2-0.2l0,0C657.8,335.4,657.6,335.5,657.6,335.6z"/>
			<path fill="#464547" d="M656.3,336.4c0.1-0.1,0.2-0.1,0.2-0.2c-0.1,0-0.1,0,0-0.1C656.2,336.4,656.6,336.2,656.3,336.4z"/>
			<path fill="#464547" d="M655.6,337C655.7,336.9,655.6,337,655.6,337C655.5,337,655.5,337,655.6,337z"/>
			<path fill="#464547" d="M649.9,340.3L649.9,340.3C649.8,340.3,649.9,340.2,649.9,340.3z"/>
			<polygon fill="#464547" points="648.9,341.1 649,341.1 649.1,341.1 			"/>
			<polygon fill="#464547" points="648,340.9 648.1,340.9 647.9,341 			"/>
			<path fill="#464547" d="M637.6,344.7L637.6,344.7C637.7,344.8,637.7,344.7,637.6,344.7z"/>
			<path fill="#464547" d="M633,346.1c-0.1,0-0.2,0-0.3,0C632.8,346.1,632.9,346.1,633,346.1z"/>
			<polygon fill="#464547" points="618.8,348.2 618.9,348.2 618.7,348.2 			"/>
		</g>
		<g>
			<path fill="#464547" d="M636.4,352.2C636.4,352.2,636.3,352.2,636.4,352.2L636.4,352.2L636.4,352.2z"/>
			<path fill="#464547" d="M636.1,352.1c0,0.1,0,0.1,0,0.2C636.1,352.3,636.2,352.3,636.1,352.1c0.1,0,0.1,0.1,0.1,0.1
				c0,0,0.1,0,0-0.1C636.2,352.1,636.2,352.1,636.1,352.1C636.1,352.2,636.1,352.2,636.1,352.1z"/>
			<path fill="#464547" d="M633.2,352.9L633.2,352.9C633.2,352.9,633.2,352.9,633.2,352.9z"/>
			<path fill="#464547" d="M631.3,353.3C631.3,353.2,631.3,353.2,631.3,353.3C631.3,353.2,631.3,353.2,631.3,353.3z"/>
			<path fill="#464547" d="M631,353.2C631,353.2,631,353.2,631,353.2C631,353.2,631,353.2,631,353.2z"/>
			<path fill="#464547" d="M633.2,352.9L633.2,352.9C633.1,352.9,633.1,352.9,633.2,352.9z"/>
			<path fill="#464547" d="M635.8,352.5C635.8,352.5,635.8,352.5,635.8,352.5C635.8,352.5,635.8,352.5,635.8,352.5L635.8,352.5z"/>
			<path fill="#464547" d="M633.9,352.6L633.9,352.6C633.9,352.5,633.9,352.5,633.9,352.6L633.9,352.6z"/>
			<path fill="#464547" d="M634.5,352.4c0,0,0,0.1,0,0.1C634.5,352.5,634.6,352.4,634.5,352.4C634.6,352.4,634.5,352.4,634.5,352.4z
				"/>
			<path fill="#464547" d="M635.5,352.2L635.5,352.2C635.6,352.2,635.5,352.2,635.5,352.2z"/>
			<path fill="#464547" d="M633.5,352.7C633.5,352.7,633.5,352.6,633.5,352.7C633.5,352.6,633.5,352.7,633.5,352.7z"/>
			<path fill="#464547" d="M615.9,355.2C615.9,355.1,615.9,355.1,615.9,355.2C615.9,355.1,615.9,355.2,615.9,355.2z"/>
			<polygon fill="#464547" points="615.2,354.7 615.2,354.7 615.2,354.7 			"/>
			<path fill="#464547" d="M630.4,353.2C630.4,353.2,630.4,353.2,630.4,353.2C630.4,353.2,630.4,353.2,630.4,353.2z"/>
			<path fill="#464547" d="M625.1,354.2c0.1,0.1-0.1,0.1,0,0.2C625.1,354.3,625.2,354.2,625.1,354.2z"/>
			<path fill="#464547" d="M635.8,352.5C635.8,352.5,635.7,352.5,635.8,352.5C635.7,352.5,635.8,352.5,635.8,352.5z"/>
			<polygon fill="#464547" points="625.1,354.3 625.1,354.3 625.1,354.3 			"/>
			<path fill="#464547" d="M629.1,353.5C629.1,353.6,629.1,353.6,629.1,353.5C629.1,353.6,629.1,353.6,629.1,353.5z"/>
			<path fill="#464547" d="M630.1,353.5L630.1,353.5C630.1,353.5,630.1,353.5,630.1,353.5z"/>
			<path fill="#464547" d="M628.6,353.8C628.6,353.8,628.6,353.7,628.6,353.8C628.5,353.8,628.5,353.8,628.6,353.8
				C628.6,353.8,628.6,353.7,628.6,353.8z"/>
			<path fill="#464547" d="M628,353.8C628,353.9,628.1,353.9,628,353.8L628,353.8L628,353.8z"/>
			<path fill="#464547" d="M617.5,355.2C617.5,355.2,617.5,355.1,617.5,355.2C617.5,355.2,617.4,355.2,617.5,355.2z"/>
			<path fill="#464547" d="M635.8,352.4C635.8,352.5,635.8,352.5,635.8,352.4L635.8,352.4C635.8,352.5,635.8,352.5,635.8,352.4z"/>
			<path fill="#464547" d="M628.7,354.4L628.7,354.4C628.6,354.4,628.6,354.4,628.7,354.4z"/>
			<path fill="#464547" d="M621.5,355.1L621.5,355.1C621.5,355.1,621.5,355.1,621.5,355.1z"/>
			<path fill="#464547" d="M628.3,354.5C628.3,354.4,628.3,354.4,628.3,354.5C628.3,354.4,628.3,354.4,628.3,354.5L628.3,354.5z"/>
			<path fill="#464547" d="M617.5,355.1L617.5,355.1L617.5,355.1z"/>
			<path fill="#464547" d="M616.9,355.3c0.1,0,0-0.1,0.1-0.2c0.1,0,0,0.1,0.1,0.1c0.1,0,0.1-0.1,0.2-0.1c0,0,0,0,0,0
				c0.1-0.1,0.2,0,0.3-0.1c0,0,0,0,0,0c0-0.1,0-0.1,0-0.1c0,0,0.1-0.1,0.1,0c0,0,0,0,0,0l0,0c0,0.1-0.1,0-0.1,0.1
				c0.1,0,0.2-0.1,0.2-0.1c0,0.1-0.1,0-0.1,0.1l-0.1,0c0.1,0.2-0.1,0,0,0.2c0.1,0,0.1,0,0.3,0c0-0.1,0-0.1,0-0.1
				c0.2-0.1,0.1,0.3,0.3,0.1c0-0.1,0-0.2,0.1-0.1l0,0.1c0.1,0,0.1-0.2,0.2-0.1c0,0-0.1,0-0.1,0.1c0.1,0.1,0.1-0.1,0.1-0.1l0,0.1
				c0.1,0,0.3-0.1,0.4-0.1c0,0,0,0.1,0,0.1c0.2,0,0.4,0,0.5,0.1l0.1-0.1c0,0,0,0,0,0.1c0.1,0,0-0.1,0-0.1c0,0,0,0,0,0.1
				c0.1-0.1,0.3-0.2,0.4-0.1l0,0c0.1,0,0.1-0.2,0.2-0.1l0,0c0.2,0,0.4,0,0.6,0.1c0-0.1,0.2,0,0.2-0.1c0.1,0.1,0.1,0.1,0.3,0.2
				c0,0,0.1-0.1,0.1-0.1l0,0.1l0.1-0.1l0,0.1l0,0c0,0,0,0,0-0.1c0.1,0,0.2,0.1,0.2,0.1l0.2-0.1c0,0,0,0.1-0.1,0.1
				c0.1-0.1,0,0.1,0.1,0c0,0,0-0.1,0-0.1c0,0.1,0.2,0,0.2,0l0,0.1c0.1,0,0.3,0,0.4-0.1c-0.1,0-0.1-0.1,0-0.1l0,0.1c0-0.1,0,0,0-0.1
				c0.1,0,0,0.1,0,0.1l0.1,0c0,0,0,0,0,0.1c0-0.1,0.1,0.1,0.2,0l0,0c0.2,0,0.2,0,0.3-0.1c0-0.1,0-0.1,0.1-0.1c0.1,0,0.2,0.1,0.3,0.1
				c0.1,0,0-0.1,0-0.1c0,0.1,0.1,0.1,0.1,0.1c0.1,0,0.2,0,0.3-0.1c0,0,0,0,0-0.1c0,0,0.1,0,0.1,0.1l0,0c0.2-0.1,0.5,0.2,0.6,0l0,0
				l0.1-0.1c0.1,0,0,0.1,0,0.1c0.2-0.1,0.3,0,0.4-0.1c0.1,0.2,0.4-0.1,0.5,0.1l0-0.1c0-0.1,0,0,0.1,0c0,0,0,0,0-0.1
				c0.3-0.1,0.7,0,1,0c0.1,0,0-0.3,0.2-0.2l0,0.1c0.2-0.1,0.5-0.1,0.7-0.2c0,0,0,0.1,0,0.1c0.1,0.1,0.2,0,0.2-0.1c0,0,0,0,0,0.1
				c0.1,0,0.1-0.1,0.1,0c0,0,0,0,0,0c0,0,0.2,0,0.1-0.1c0.1,0,0.2-0.1,0.2,0c0-0.1,0.2,0,0.2-0.1c0,0.1,0.2,0.1,0.2,0
				c0,0,0.1,0,0,0.1c0.1,0,0.1,0,0.1-0.1c0.1,0.1,0.2-0.2,0.3,0c0.2-0.1,0.3-0.2,0.5-0.2c0,0.1-0.2,0-0.2,0.2
				c0.1-0.1,0.2-0.2,0.4-0.2c0,0,0,0.1,0,0.1c0.1-0.1,0.3-0.1,0.4-0.2c0,0,0,0,0,0c0,0,0.1,0,0.1-0.1l0,0c-0.1-0.1,0.1-0.2,0.1-0.2
				c0,0.2,0.1,0,0.1,0.2c0,0,0,0,0-0.1c0,0,0,0,0,0.1c0.1-0.1,0-0.1,0.1-0.1c0,0,0,0,0,0.1c0-0.1,0.1-0.1,0.1-0.1c0,0,0,0,0,0
				c0.1,0,0.2-0.2,0.3-0.2c0,0.1,0.1,0,0.1,0.1l0.1,0l0,0c0.1,0,0.1-0.1,0.2-0.1l0,0.1l0.1-0.1l-0.1,0c0.1-0.1,0-0.1,0.1-0.1
				c0,0,0.1,0,0.1,0l0,0c0,0,0.1-0.1,0.1-0.1c0,0,0,0.1,0,0.1c0-0.1,0.2-0.1,0.2-0.2c0,0,0,0.1,0,0.1l0-0.1c0,0,0,0,0,0.1
				c0.1,0-0.1-0.1,0.1-0.1c0,0,0,0,0,0c0.1,0,0.2-0.1,0.3-0.1c0.1,0.1-0.1,0,0,0.1c0.1-0.1,0.3-0.2,0.4-0.2l0,0c0-0.2,0.1,0,0.2,0
				c0,0,0,0.1,0,0.1c0.1,0,0.2-0.1,0.3-0.2l0,0c0.1,0,0.2,0,0.2,0c0,0,0,0,0-0.1c0.3,0.2,0.3-0.2,0.6-0.1c0,0,0,0,0,0l0.1-0.1
				c0-0.1,0,0-0.1-0.1c0,0,0-0.1,0.1-0.1c-0.1,0.1,0,0.1,0.1,0.1c0,0,0,0,0-0.1c0.1,0.1,0-0.1,0.1-0.1l0,0c0,0,0.1-0.1,0.1-0.1
				c0,0.1,0,0,0,0.1c0.1,0,0.1-0.2,0.1-0.1c0,0-0.1,0-0.1,0.1c0.1,0.1,0.1,0,0.1,0l0,0l0.1,0l0,0c0-0.2,0.1-0.1,0.2-0.2
				c-0.1,0.1,0,0.1,0,0.2c0,0,0.1,0,0.1,0.1c0-0.1,0.1,0,0.1-0.1c0,0,0.1,0,0.1,0.1c0.1,0,0,0,0-0.1c0.1-0.1,0.3,0,0.3-0.1
				c0.1-0.1,0.1-0.2,0.2-0.3c0,0,0,0.1,0,0.1c0.1,0,0.1,0,0.2,0c0,0,0,0,0,0.1c0,0,0-0.1,0.1-0.1c0,0,0,0.1,0,0.1
				c0,0,0.1-0.1,0.1-0.1c0,0,0,0.1,0,0.1c0.1,0,0.1-0.1,0.1-0.2l0,0c0,0,0,0.1,0,0.1c0,0.1-0.1,0-0.1,0l0,0
				c-0.1-0.1-0.1,0.1-0.2,0.1l0-0.1l0,0.1c0,0-0.1-0.1,0-0.1c-0.1,0,0,0.1-0.1,0c0,0,0,0,0,0l0,0.1c0,0,0-0.1,0-0.1
				c-0.1,0-0.1,0.1-0.2,0.1l0,0c-0.1,0.1,0,0.1-0.1,0.2l-0.1-0.2l0,0.1c0,0,0,0,0,0c0,0.1,0,0,0,0.1c-0.1-0.1-0.2,0.1-0.2,0
				c0,0.1,0.1,0,0,0.1c-0.1-0.1-0.1,0-0.2,0c0-0.1,0.1-0.1,0-0.1c0,0.1-0.1,0-0.2,0c0,0.1-0.1,0.1-0.2,0.1c0,0-0.2,0-0.3,0l0,0
				c0,0.1-0.1,0.1-0.1,0.2c0-0.1,0-0.1,0-0.1l-0.1,0c0,0,0,0.1,0,0.1l0-0.1c-0.1,0-0.1,0.1-0.2,0.1c0,0.1,0.1,0.2,0,0.3
				c0,0,0-0.1,0-0.1c0,0,0,0,0,0l0-0.1c-0.1,0,0,0.1,0,0.1c0-0.1,0,0,0-0.1c0,0,0,0,0,0c0,0-0.1,0-0.1-0.1c0,0,0,0.1,0,0.1
				c-0.1,0,0-0.1-0.1-0.1c0,0-0.1,0,0,0.1c0,0,0,0-0.1-0.1c0,0-0.2,0.1-0.1,0.1l0,0l0,0l0,0l0,0c-0.1,0.1-0.3,0-0.4,0.1l0,0
				c-0.1,0.1-0.2,0.1-0.2,0.1c0,0-0.1,0-0.1-0.1c-0.1,0-0.1,0.1-0.1,0c0-0.1,0,0,0.1-0.1c-0.1,0-0.1,0-0.2,0c0-0.1-0.1-0.1-0.1,0
				l0.1,0c0,0-0.1,0-0.1,0l0-0.1c-0.2-0.1-0.2,0.3-0.4,0.1c0,0.1,0.1,0,0.1,0.1c-0.1,0-0.2-0.1-0.2-0.1c-0.1,0-0.1,0.2-0.2,0.1
				c0,0,0.1,0.1,0,0.2c-0.1,0-0.1-0.1-0.1-0.2c0,0,0,0,0,0c0,0,0,0,0-0.1l0,0c0,0-0.1,0-0.1-0.1c0,0,0,0.1,0,0.1c-0.1,0-0.1,0-0.2,0
				c0,0,0,0.1,0,0.1c-0.1,0,0,0.1-0.1,0.1c-0.1,0,0-0.1-0.1-0.1c-0.1,0,0-0.1,0-0.1c-0.1,0.1-0.2,0-0.2,0l0,0c0,0,0,0-0.1,0l0,0.1
				c0,0-0.1,0-0.1,0c0,0.1,0,0.1,0,0.2c0,0-0.1,0.1-0.1,0c0.1,0,0-0.1,0.1-0.1c0,0,0,0-0.1,0c0,0,0,0,0,0c-0.1-0.1,0,0.1-0.1,0.1
				c0-0.1,0-0.1-0.1-0.1c0,0,0,0.1,0,0.1c-0.1,0-0.1,0-0.1,0l0,0c0,0.1,0,0.1-0.1,0.1c0,0,0,0,0-0.1c0,0.1-0.1-0.1-0.2,0
				c0,0,0-0.1-0.1-0.1c-0.1,0.1-0.1-0.1-0.2,0c0,0.1,0,0,0,0.1l0.1-0.1l-0.1,0.1c0,0,0.1-0.1,0.1-0.1c0,0.1,0,0,0,0.1
				c-0.1-0.1-0.1,0.1-0.2,0l0-0.2c-0.1-0.1-0.2,0.1-0.3,0.1l0.1,0c0,0.1-0.1,0-0.1,0.1c0-0.1,0-0.1-0.1-0.1c0,0-0.1,0-0.1,0.1
				l-0.1-0.1c-0.1,0-0.1,0.2-0.2,0.2c0-0.1,0-0.1,0-0.2c0,0-0.1,0-0.1,0c0,0-0.1,0.1-0.1,0c0,0,0,0.1,0,0.1c0,0,0,0,0,0
				c0,0-0.1,0,0,0.1c-0.1-0.2-0.3,0.1-0.4-0.1c-0.1,0-0.2,0.1-0.2,0.1c0,0,0,0,0,0c-0.1,0,0,0.2-0.2,0.1c-0.1-0.1,0.1-0.1,0-0.1
				c0-0.2-0.1,0-0.2,0l0,0c-0.1-0.1-0.1,0.1-0.2,0.1c0,0,0,0,0,0c0,0.1-0.2,0.2-0.3,0.2c0-0.1,0,0,0-0.1c0,0,0,0.1,0,0.2
				c0,0-0.1-0.1-0.1-0.1l0.1,0c-0.1-0.1-0.1,0-0.1,0l0,0c-0.1,0-0.1,0.1-0.2,0.2l0,0c-0.1,0.1-0.1-0.1-0.1,0l0-0.1
				c0,0-0.1,0.1-0.2,0.2c0-0.1,0.1-0.1,0.2-0.2c0,0-0.2,0-0.2,0.1c0,0,0,0,0.1,0c0,0.1-0.1,0.2-0.2,0.2c0-0.2-0.2,0-0.3-0.2
				c-0.1,0.1-0.3,0-0.5,0c0.1,0.2-0.1,0,0,0.2c0,0-0.1,0-0.1,0l-0.1-0.1c0,0,0,0,0-0.1c-0.1,0,0-0.1-0.1-0.1c0,0.1,0,0.1-0.1,0.1
				l0.1,0.1c-0.1,0.1-0.1-0.1-0.3,0l0-0.1c-0.1,0-0.3,0-0.3,0.2c0,0,0-0.1,0-0.1c-0.2,0-0.4,0.2-0.5,0.1l0,0c0,0,0,0.1-0.1,0
				c0,0,0,0,0,0c0,0-0.1,0.1-0.1,0.1l0-0.1c-0.2,0-0.2,0.1-0.4,0.2c0-0.1-0.1-0.2-0.2-0.2l0,0c-0.2,0-0.3,0.1-0.5,0.2
				c-0.1-0.1-0.4,0-0.5-0.1c0,0,0,0.1,0,0.1c0,0-0.1,0.1-0.1,0l0,0c0-0.1-0.1-0.1-0.2-0.1l0,0.2c-0.2-0.2-0.4,0.1-0.5-0.1
				c0,0-0.1,0-0.1,0.1l0-0.1c-0.1,0-0.2,0-0.3,0l0-0.1c-0.1,0-0.1,0.2-0.2,0.3l0-0.1c-0.1,0-0.3-0.1-0.4,0c0,0,0-0.1,0-0.1
				c-0.1,0-0.3-0.1-0.2,0.1c0-0.1-0.1,0-0.2,0l0-0.1c-0.1,0.1-0.1,0.1-0.2,0.2c0,0,0-0.1,0,0c-0.1,0-0.1,0.1-0.1,0l0-0.1
				c-0.1,0-0.1,0-0.1,0.1c0,0-0.1,0-0.1-0.1c0,0,0,0.1-0.1,0.1c0,0,0,0,0-0.1c-0.1-0.1-0.2,0.1-0.3,0c0,0,0,0,0,0c0.1,0,0.2,0,0.2,0
				c0-0.1-0.1-0.1,0-0.2c-0.1,0.1-0.2,0.2-0.2,0.1c0,0,0,0,0,0l0,0c0,0,0,0,0,0c0,0,0,0-0.1,0c0-0.1-0.1,0-0.1,0c0,0.1,0,0.1,0,0.1
				c0,0,0,0,0,0c0,0,0,0,0,0l0,0c0,0,0.1,0,0.1,0c0,0-0.1,0.1-0.1,0c0,0.1,0,0.1-0.1,0.1c-0.1-0.1-0.2-0.2-0.2-0.2
				c-0.1,0-0.3,0-0.4,0.2c0,0,0,0,0-0.1c0,0,0,0,0.1,0c-0.1,0-0.2,0-0.2,0.1c-0.1,0,0-0.1-0.1-0.1l0,0c-0.2-0.2-0.4,0.3-0.6,0
				c0,0,0,0,0,0c-0.3-0.1-0.6,0.1-0.9-0.1c-0.1,0-0.1,0-0.1,0.1l0-0.1l-0.1,0.1c-0.1,0.1-0.2-0.2-0.4-0.1l0,0.1c-0.1,0-0.2,0-0.2,0
				c0,0,0,0.1,0,0l0,0l-0.1,0.1c-0.1,0,0-0.2-0.1-0.2c-0.1,0-0.2,0.1-0.1,0.2c0,0,0.1,0,0.1,0.1l-0.1,0c0,0.1-0.1,0.3,0.1,0.4
				l0.1-0.1l0,0.1l-0.1,0c0,0.1,0.1,0,0.1,0c0,0,0,0.1,0,0.1l0.1-0.1c0,0.1,0,0.1,0,0.1c0-0.1,0-0.1,0-0.2c0,0.1,0,0.1,0.1,0.1
				c0,0,0,0.1,0,0.1c0,0,0.1,0,0.1-0.1c0,0.1,0.2,0,0.1,0.1c0,0,0.1-0.1,0.1-0.1c-0.1,0.2,0.2,0,0.1,0.2c0.1-0.1,0.2-0.1,0.3-0.1
				c0,0,0,0,0,0c0.1,0,0.1,0.1,0.1,0.1c0-0.1,0.1-0.1,0.1-0.2c0.1,0.1,0,0.1,0,0.2c0-0.1,0.1-0.1,0.1-0.2c0,0.1,0,0,0.1,0.1
				c0-0.1,0,0,0.1-0.1C616.9,355.2,616.9,355.2,616.9,355.3C617,355.2,616.9,355.3,616.9,355.3z M618.9,355.1L618.9,355.1
				C618.9,355.1,618.9,355.1,618.9,355.1C618.8,355.1,618.9,355.1,618.9,355.1z M619,355.1C619,355.1,619,355.1,619,355.1
				C619,355,619,355,619,355.1C619,355,619,355,619,355.1z M618.7,354.5C618.7,354.5,618.7,354.5,618.7,354.5
				C618.7,354.5,618.7,354.5,618.7,354.5L618.7,354.5C618.7,354.5,618.7,354.5,618.7,354.5z"/>
			<path fill="#464547" d="M618.7,354.6C618.7,354.6,618.6,354.6,618.7,354.6C618.6,354.6,618.7,354.6,618.7,354.6L618.7,354.6
				L618.7,354.6z"/>
			<polygon fill="#464547" points="633.2,352.9 633.2,352.9 633.2,352.9 			"/>
			<polygon fill="#464547" points="621.3,355.2 621.3,355.1 621.3,355.2 			"/>
			<path fill="#464547" d="M634.1,352.9C634.1,352.9,634.1,352.9,634.1,352.9C634.1,352.9,634.1,352.9,634.1,352.9z"/>
			<path fill="#464547" d="M634.5,352.8L634.5,352.8C634.5,352.8,634.5,352.8,634.5,352.8z"/>
			<path fill="#464547" d="M634.8,352.8C634.8,352.7,634.8,352.7,634.8,352.8L634.8,352.8L634.8,352.8z"/>
			<path fill="#464547" d="M630.2,354C630.2,354,630.2,354,630.2,354C630.2,354,630.2,354,630.2,354z"/>
			<path fill="#464547" d="M631.5,353.5C631.5,353.5,631.5,353.6,631.5,353.5C631.5,353.6,631.6,353.6,631.5,353.5z"/>
			<polygon fill="#464547" points="628.7,354.4 628.7,354.4 628.7,354.4 			"/>
			<path fill="#464547" d="M631.5,353.6C631.5,353.6,631.5,353.6,631.5,353.6C631.5,353.6,631.5,353.6,631.5,353.6z"/>
			<path fill="#464547" d="M636,352.4L636,352.4C636.1,352.4,636,352.4,636,352.4L636,352.4z"/>
			<path fill="#464547" d="M636,352.4L636,352.4C636.1,352.4,636,352.4,636,352.4z"/>
			<path fill="#464547" d="M636.1,352.4L636.1,352.4C636.1,352.4,636.1,352.4,636.1,352.4z"/>
			<path fill="#464547" d="M635.6,352.5L635.6,352.5C635.7,352.5,635.7,352.5,635.6,352.5z"/>
			<path fill="#464547" d="M635.5,352.5c0,0,0.1,0,0.1,0l0,0C635.6,352.6,635.5,352.5,635.5,352.5z"/>
			<path fill="#464547" d="M635,352.3l0.1,0C635,352.3,635,352.3,635,352.3C634.9,352.2,635.1,352.3,635,352.3z"/>
			<path fill="#464547" d="M634.6,352.4C634.7,352.4,634.6,352.3,634.6,352.4C634.6,352.4,634.6,352.4,634.6,352.4z"/>
			<path fill="#464547" d="M632.5,353L632.5,353C632.4,352.9,632.5,352.9,632.5,353z"/>
			<polygon fill="#464547" points="632.2,353.4 632.2,353.5 632.2,353.4 			"/>
			<polygon fill="#464547" points="631.8,353 631.8,353 631.7,353 			"/>
			<path fill="#464547" d="M628.1,353.8L628.1,353.8C628.2,353.8,628.2,353.7,628.1,353.8z"/>
			<path fill="#464547" d="M626.5,354.1C626.5,354.1,626.5,354,626.5,354.1C626.5,354.1,626.5,354.1,626.5,354.1z"/>
			<polygon fill="#464547" points="621.7,354.4 621.7,354.4 621.7,354.4 			"/>
		</g>
		<path fill="#464547" d="M610.3,381.1l-21.9,0.3v0c-0.1-5.8,4.5-10.6,10.3-10.7l11.4-0.2L610.3,381.1z"/>
		<path fill="#464547" d="M665.8,380.2l-24.8,0.4l0,0c-0.1-5.8,4.5-10.6,10.3-10.7l14.3-0.2L665.8,380.2z"/>
		<path fill="#48484A" d="M648.6,311.3l-55.1,3.6c-10.2,0.7-19.1-7.1-19.7-17.3v0c-1.2-19.1,13.3-35.7,32.4-36.9l22.9-1.5
			c19.1-1.2,35.7,13.3,36.9,32.4v0C666.6,301.8,658.9,310.7,648.6,311.3z"/>
		<path fill="#58595B" d="M582.8,220.1l0.2-1.6c10.6,1.4,15.6,8.2,18,13.6c2.5,5.9,2.6,11.3,2.6,11.5l-1.6,0c0-0.1-0.1-5.4-2.5-10.9
			C596.3,225.4,590.7,221.2,582.8,220.1z"/>
		<circle fill="#58595B" cx="582.4" cy="219.6" r="2.3"/>
		<path fill="#58595B" d="M634,243.5c0-0.1,1.4-5.1,5.3-9.7c5.3-6.1,12.4-8.5,21.2-7.1l0.3-1.8c-11.8-1.8-19,3.3-22.9,7.8
			c-4.2,4.9-5.6,10.1-5.7,10.3L634,243.5z"/>
		<circle fill="#58595B" cx="661.9" cy="225.5" r="2.6"/>
		<path fill="#6B6C6F" d="M644.5,292.9c13.3,1.1,22.9-13.5,16.8-25.9c-7.5-15.4-22.2-26.4-39.8-27.8s-34,7-43.9,20.9
			c-8,11.3-1,27.2,12.3,28.3L644.5,292.9z"/>
		<circle fill="#FFFFFF" cx="594.8" cy="254.1" r="10.4"/>
		<circle fill="#282829" cx="594.4" cy="254.7" r="7.3"/>
		<path fill="#464547" d="M606.3,264.4c0.7,0,1.3,0.1,1.9,0.1c0.2,0.1,0.5,0.3,0.7,0.4l0.7,0.3c1,0.4,2,0.7,3.1,0.7
			c1.1,0.1,2.1,0,3.2-0.2c0.5-0.1,1-0.3,1.5-0.5c0.3,0.1,0.6,0.1,0.9,0.1c0.3,0,0.7,0.1,1,0.1c-0.3,0.6-0.8,1.1-1.2,1.6
			c-0.6,0.2-1.2,0.4-1.8,0.5c-1.2,0.3-2.5,0.4-3.8,0.3c-1.3-0.1-2.5-0.4-3.7-0.9l-0.9-0.4c-0.3-0.2-0.6-0.3-0.8-0.4
			C606.9,265.6,606.5,265,606.3,264.4z"/>
		<path fill="#464547" d="M619.7,262.5c0.3,0.4,0.5,0.7,0.7,1c-0.1,0.2-0.1,0.4-0.1,0.6c0,0.4,0.1,0.8,0.2,1.1
			c0.2,0.3,0.4,0.7,0.7,0.9c0.2,0.1,0.4,0.3,0.5,0.4c0,0.4,0.1,0.7,0.2,1.2c-0.4,0.2-0.8,0.4-1.2,0.5c-0.3-0.2-0.5-0.3-0.8-0.6
			c-0.5-0.4-0.9-0.9-1.2-1.6c-0.3-0.6-0.4-1.3-0.4-2c0-0.2,0-0.3,0-0.5c0-0.2,0-0.3,0.1-0.5C618.8,262.8,619.2,262.6,619.7,262.5z"
			/>
		<path fill="#464547" d="M609.8,256.8c-0.2,0.3-0.3,0.5-0.5,0.8c-0.1,0.3-0.2,0.5-0.3,0.8c-0.1,0.3,0,0.6-0.2,0.7
			c-0.1,0.1-0.2,0.2-0.4,0.2c-0.2,0.1-0.4,0.1-0.7,0.2l-0.2-0.1c-0.2-0.2-0.3-0.4-0.4-0.7c-0.1-0.2-0.1-0.4,0-0.6
			c0-0.2,0.1-0.4,0.3-0.5l0.5-0.3c0.1-0.1,0.3-0.2,0.4-0.3c0.2-0.1,0.3-0.2,0.5-0.2c0.3-0.1,0.7-0.2,1-0.2L609.8,256.8z"/>
		<path fill="#464547" d="M612.6,257.3c0.3,0,0.6,0.1,0.9,0.3c0.3,0.1,0.6,0.3,0.8,0.6c0.2,0.2,0.6,0.4,0.6,0.8c0,0.2,0,0.4-0.1,0.6
			c-0.1,0.2-0.2,0.4-0.5,0.6l-0.2,0c-0.3-0.1-0.5-0.1-0.7-0.2c-0.2-0.1-0.3-0.1-0.4-0.2c-0.1-0.1-0.1-0.2-0.1-0.3c0-0.1,0-0.3,0-0.4
			c0-0.1-0.1-0.2-0.1-0.4c0-0.1-0.1-0.3-0.1-0.4c-0.1-0.3-0.2-0.5-0.3-0.8L612.6,257.3z"/>
		<path fill="#464547" d="M605.1,255c0.5-5.7-3.8-10.7-9.5-11.2s-10.7,3.8-11.2,9.5L605.1,255z"/>
		<circle fill="#FFFFFF" cx="635.8" cy="258.1" r="11"/>
		<circle fill="#282829" cx="635.7" cy="259.4" r="7.3"/>
		<path fill="#464547" d="M646.8,259c0.5-6.1-4-11.4-10.1-11.9s-11.4,4-11.9,10.1L646.8,259z"/>
		<g>
			<circle fill="#464547" cx="650.3" cy="268.6" r="1.1"/>
			<circle fill="#464547" cx="652.1" cy="271.4" r="1.1"/>
			<circle fill="#464547" cx="648.9" cy="272" r="1.1"/>
		</g>
		<g>
			<circle fill="#464547" cx="582" cy="262.6" r="1.1"/>
			<circle fill="#464547" cx="583.7" cy="265.4" r="1.1"/>
			<circle fill="#464547" cx="580.5" cy="266" r="1.1"/>
		</g>
		<g>
			<path fill="#6B6C6F" d="M605.2,311.4c0,0,0.1,0,0.1,0C605.3,311.4,605.1,311.4,605.2,311.4z"/>
			<polygon fill="#6B6C6F" points="604.8,311 604.9,311 604.7,310.9 			"/>
			<path fill="#6B6C6F" d="M604.8,310.5c-0.2,0.1,0.1,0.2,0,0.3l0,0l0.2,0C604.8,310.7,604.7,310.6,604.8,310.5z"/>
			<path fill="#6B6C6F" d="M605.2,310.1C605.1,310.2,605.1,310.1,605.2,310.1C605.2,310.2,605.2,310.2,605.2,310.1
				C605.2,310.2,605.2,310.2,605.2,310.1z"/>
			<path fill="#6B6C6F" d="M605.2,310.2C605.2,310.2,605.2,310.1,605.2,310.2L605.2,310.2z"/>
			<path fill="#6B6C6F" d="M605.1,310L605.1,310c0.1,0,0.1,0,0.2,0C605.2,309.9,605.2,309.9,605.1,310z"/>
			<path fill="#6B6C6F" d="M604.9,310L604.9,310C605,310,605,310,604.9,310z"/>
			<path fill="#6B6C6F" d="M605,310L605,310C604.9,310,604.9,310,605,310C604.9,310,605,310,605,310z"/>
			<path fill="#6B6C6F" d="M605,310.1c0,0-0.1,0.1-0.1,0.1C604.9,310.3,605.1,310.2,605,310.1z"/>
			<path fill="#6B6C6F" d="M604.5,310.6L604.5,310.6L604.5,310.6C604.5,310.6,604.6,310.5,604.5,310.6z"/>
			<path fill="#6B6C6F" d="M605.1,309.5c0,0-0.1,0.1-0.2,0.1l0.1,0C605.1,309.6,605.1,309.6,605.1,309.5z"/>
			<path fill="#6B6C6F" d="M605,309.6L605,309.6C604.9,309.6,604.9,309.6,605,309.6z"/>
			<polygon fill="#6B6C6F" points="604.7,310 604.9,310.1 604.7,310 			"/>
			<polygon fill="#6B6C6F" points="605.1,309.3 605.2,309.3 605,309.3 			"/>
			<path fill="#6B6C6F" d="M605.1,309.1c0.1,0,0.1-0.1,0.2-0.1c0,0-0.1-0.1-0.2-0.1C605.1,309,605.1,309,605.1,309.1z"/>
			<path fill="#6B6C6F" d="M605,308.9c0,0,0.1,0,0.1,0C605.1,308.9,605,308.9,605,308.9z"/>
			<path fill="#6B6C6F" d="M604.9,309.4c0,0,0.1,0,0.1-0.1L604.9,309.4C604.9,309.4,604.9,309.4,604.9,309.4z"/>
			<path fill="#6B6C6F" d="M604.9,309.4L604.9,309.4C604.9,309.4,604.9,309.4,604.9,309.4C604.9,309.4,604.9,309.4,604.9,309.4z"/>
			<path fill="#6B6C6F" d="M604.9,309.5L604.9,309.5C604.9,309.5,604.9,309.5,604.9,309.5z"/>
			<path fill="#6B6C6F" d="M604.8,309.8c-0.1,0-0.2-0.1-0.3,0C604.6,309.8,604.7,309.8,604.8,309.8z"/>
			<path fill="#6B6C6F" d="M604.7,309.5L604.7,309.5C604.8,309.6,604.8,309.6,604.7,309.5L604.7,309.5z"/>
			<polygon fill="#6B6C6F" points="604.7,309.5 604.7,309.5 604.7,309.5 			"/>
			<path fill="#6B6C6F" d="M604.9,309.1C604.8,309.1,604.8,309,604.9,309.1c-0.1,0-0.1,0-0.1,0.1
				C604.8,309.1,604.9,309.1,604.9,309.1z"/>
			<path fill="#6B6C6F" d="M604.9,309.2L604.9,309.2C604.9,309.2,604.8,309.2,604.9,309.2z"/>
			<path fill="#6B6C6F" d="M604.7,308.6C604.7,308.6,604.7,308.6,604.7,308.6L604.7,308.6L604.7,308.6z"/>
			<path fill="#6B6C6F" d="M604.8,309.1C604.7,309.2,604.8,309.2,604.8,309.1C604.8,309.2,604.8,309.1,604.8,309.1
				C604.8,309.1,604.8,309.1,604.8,309.1z"/>
			<path fill="#6B6C6F" d="M604.9,308.8C604.9,308.8,604.9,308.9,604.9,308.8C604.9,308.9,604.9,308.8,604.9,308.8z"/>
			<path fill="#6B6C6F" d="M604.9,309.2L604.9,309.2C604.9,309.2,604.9,309.2,604.9,309.2z"/>
			<path fill="#6B6C6F" d="M604.9,309.2C604.9,309.2,604.8,309.2,604.9,309.2C604.8,309.2,604.8,309.2,604.9,309.2
				C604.9,309.2,604.9,309.2,604.9,309.2z"/>
			<path fill="#6B6C6F" d="M603.9,308.7c0.1,0,0.2,0,0.1,0.1c0.1,0.1,0.5-0.1,0.7-0.2c-0.1,0-0.1,0-0.2,0c-0.1,0-0.1,0.2-0.2,0.2
				c-0.1-0.1,0-0.1,0.1-0.2C604.3,308.6,604.2,308.5,603.9,308.7l0.1,0C604,308.7,604,308.6,603.9,308.7z"/>
			<path fill="#6B6C6F" d="M604.7,308.7L604.7,308.7c0,0,0.1-0.1,0.2-0.1c-0.1,0-0.1,0-0.1,0L604.7,308.7L604.7,308.7z"/>
			<path fill="#6B6C6F" d="M604.8,308.9c-0.1,0-0.2-0.1-0.3,0c0,0.1,0.1,0,0.2,0.1C604.6,308.9,604.7,309,604.8,308.9
				C604.8,308.9,604.8,309,604.8,308.9C604.8,308.9,604.8,308.9,604.8,308.9L604.8,308.9L604.8,308.9L604.8,308.9
				C604.8,308.9,604.8,308.9,604.8,308.9C604.8,308.9,604.8,308.9,604.8,308.9C604.8,308.9,604.8,308.9,604.8,308.9
				C604.8,308.9,604.8,308.9,604.8,308.9L604.8,308.9L604.8,308.9l0-0.1C604.7,308.8,604.7,308.8,604.8,308.9z"/>
			<path fill="#6B6C6F" d="M604.3,309.8C604.3,309.8,604.3,309.8,604.3,309.8C604.3,309.8,604.3,309.8,604.3,309.8z"/>
			<path fill="#6B6C6F" d="M604.3,309.7C604.3,309.7,604.4,309.7,604.3,309.7C604.3,309.8,604.3,309.8,604.3,309.7
				c0,0.1,0.1,0.1,0.1,0L604.3,309.7c0.1,0,0.3-0.2,0.3-0.2C604.5,309.6,604.4,309.7,604.3,309.7z"/>
			<path fill="#6B6C6F" d="M604.5,309.3l-0.1-0.1l-0.1,0.1l0.1,0C604.4,309.4,604.5,309.3,604.5,309.3z"/>
			<polygon fill="#6B6C6F" points="604.8,308.5 604.9,308.5 604.7,308.5 			"/>
			<polygon fill="#6B6C6F" points="604.8,308.4 604.9,308.4 604.8,308.3 			"/>
			<path fill="#6B6C6F" d="M602.3,299.6L602.3,299.6C602.3,299.6,602.3,299.6,602.3,299.6z"/>
			<path fill="#6B6C6F" d="M602.3,299.8L602.3,299.8C602.4,299.8,602.3,299.8,602.3,299.8z"/>
			<path fill="#6B6C6F" d="M604.3,304.5c0.1-0.1,0.3-0.2,0.1-0.1L604.3,304.5C604.3,304.4,604.3,304.4,604.3,304.5z"/>
			<path fill="#6B6C6F" d="M603.2,301.9C603.2,301.9,603.2,301.9,603.2,301.9C603.2,301.9,603.3,301.9,603.2,301.9
				C603.3,301.9,603.2,301.9,603.2,301.9z"/>
			<path fill="#6B6C6F" d="M602.7,302L602.7,302C602.7,301.9,602.7,301.9,602.7,302z"/>
			<path fill="#6B6C6F" d="M602.1,298.1l-0.1,0C602,298.2,602,298.1,602.1,298.1z"/>
			<path fill="#6B6C6F" d="M604.5,306.8c0-0.1,0.1-0.1,0.1-0.1C604.5,306.7,604.4,306.8,604.5,306.8z"/>
			<path fill="#6B6C6F" d="M603.7,299.5C603.7,299.4,603.6,299.4,603.7,299.5C603.6,299.5,603.6,299.5,603.7,299.5z"/>
			<path fill="#6B6C6F" d="M604.5,306.5C604.5,306.5,604.5,306.5,604.5,306.5c0,0.1,0,0.1,0,0.1
				C604.6,306.6,604.6,306.5,604.5,306.5z"/>
			<path fill="#6B6C6F" d="M601.9,292.8C601.9,292.8,601.9,292.8,601.9,292.8C601.9,292.8,601.9,292.8,601.9,292.8z"/>
			<path fill="#6B6C6F" d="M603.1,291.1C603.1,291.1,603.1,291.2,603.1,291.1C603.1,291.2,603.1,291.2,603.1,291.1z"/>
			<path fill="#6B6C6F" d="M604.7,307.7C604.7,307.8,604.7,307.7,604.7,307.7L604.7,307.7z"/>
			<path fill="#6B6C6F" d="M604.3,308C604.2,308,604.2,308,604.3,308C604.2,308,604.2,308,604.3,308z"/>
			<path fill="#6B6C6F" d="M603.7,306.4L603.7,306.4C603.7,306.4,603.7,306.4,603.7,306.4z"/>
			<path fill="#6B6C6F" d="M604.7,307.8C604.7,307.8,604.7,307.8,604.7,307.8C604.7,307.8,604.7,307.8,604.7,307.8z"/>
			<path fill="#6B6C6F" d="M604.7,307.8C604.7,307.8,604.7,307.8,604.7,307.8C604.8,307.8,604.8,307.8,604.7,307.8z"/>
			<path fill="#6B6C6F" d="M604.7,307.7C604.7,307.7,604.7,307.7,604.7,307.7C604.7,307.7,604.7,307.7,604.7,307.7
				C604.7,307.7,604.7,307.7,604.7,307.7z"/>
			<path fill="#6B6C6F" d="M602.4,295.6C602.4,295.6,602.4,295.6,602.4,295.6C602.3,295.6,602.3,295.6,602.4,295.6z"/>
			<polygon fill="#6B6C6F" points="602.8,303.9 602.9,303.9 602.9,303.9 			"/>
			<path fill="#6B6C6F" d="M602.7,303.8c0.2,0,0.1,0.1,0.1,0.1l0.4-0.1L602.7,303.8z"/>
			<path fill="#6B6C6F" d="M602.2,298.9l-0.1,0.1c-0.2-0.1-0.1-0.2-0.3-0.1c0.4-0.1,0.1,0.3,0.5,0.3l-0.1,0.1c0,0,0,0,0,0
				c-0.2,0.1,0.3,0,0.2,0.2c0,0.1-0.1,0.1-0.1,0.1l0.1,0.1c0,0-0.1,0-0.1,0l0,0.2l0,0c0.1,0,0.2,0.1,0.2,0.1c-0.1,0.1,0,0-0.1,0
				l0.1,0.1c-0.1,0.1-0.2,0-0.2-0.1c-0.4,0.2,0.1,0.1-0.1,0.3l-0.1-0.1c-0.2,0.1-0.1,0.2-0.3,0.3c0.1,0,0.3-0.3,0.4-0.2
				c0,0,0,0.1,0,0.1c-0.1,0-0.1,0.1-0.1,0.1l-0.2,0c0.1,0.1,0.2,0,0.2,0.1c0,0.1-0.2,0.1-0.3,0.2c0,0.1,0.2-0.1,0.3,0
				c-0.1,0.1,0,0.2,0.1,0.3c-0.1,0.1-0.1,0-0.2,0l0.2,0c0,0,0,0-0.1,0c0.1,0,0.2,0,0.2,0.1c0.2,0-0.3,0.2,0,0.3c-0.1,0-0.1,0-0.2,0
				c0.2,0.1,0.1,0.1,0.3,0.2l-0.1,0.1c0.1-0.1,0.3,0,0.5,0c0.1,0,0.1-0.1,0.1-0.1l0.1,0.1c0,0-0.1,0-0.2,0c0,0,0,0,0,0
				c-0.1,0.1-0.2,0.1-0.3,0c0,0,0.1,0,0.1-0.1c-0.1,0-0.2,0-0.4,0c0,0,0,0,0.1,0c0,0-0.1,0-0.1,0c0,0,0,0,0.1,0l-0.2,0.1l0.1,0
				l-0.1,0.2c0.2,0.1,0.5,0.1,0.6,0.3c-0.2,0-0.2,0-0.4,0.1c0.2-0.1-0.1-0.1-0.1-0.3c0,0.1-0.1,0.1-0.1,0.1l0.2,0.2
				c-0.1,0-0.1,0.1-0.2,0.1c0.3-0.1,0.2,0.1,0.3,0.2c-0.1,0-0.2,0-0.2-0.1c-0.2,0.1,0.4,0.1,0.2,0.2c0,0,0,0,0,0
				c0.1,0,0,0.2-0.1,0.2l0,0c0,0.2,0,0.5,0.3,0.4c0,0-0.3,0-0.4,0l0.9,0.1c-0.2,0-0.7,0.2-0.8,0.1c0,0-0.1,0.1,0,0.2
				c0,0,0.3-0.1,0.3-0.1c-0.2,0.1-0.1,0.1-0.3,0.2c0,0,0.4-0.1,0.4,0c-0.1,0-0.3,0.1-0.4,0.1l0.3,0.1c-0.1,0-0.3,0.1-0.4,0.1
				c0.1,0,0,0.1,0,0.2l0.1-0.1c0,0.2,0.5,0.1,0.5,0.2c-0.1,0-0.4,0-0.5,0.1c0.2,0,0.8,0,1,0.1l-0.1,0l0.1,0.1c-0.3,0-0.8-0.1-1-0.1
				c-0.1,0.1-0.1,0-0.1,0.1c-0.1,0.1-0.1,0-0.1,0l0,0.2c0.2-0.1,0.2,0.1,0.4,0.1l-0.2-0.2c0.2-0.1,0.6,0,0.6,0.2
				c-0.1,0.1-0.3,0.1-0.4,0.1c0.1,0,0.1,0.1,0.1,0.1l-0.1,0c-0.1,0.1,0.3,0.1,0.1,0.2c0,0-0.2,0.2-0.1,0.1c0.2-0.1,0.9-0.3,1.1-0.3
				c0,0-0.2,0.2-0.3,0.3c-0.2,0.1-0.4,0-0.6,0.1c0.1,0,0.1,0,0.1,0c0,0-0.2,0-0.1,0.1c0.2,0,0,0.2,0.2,0c0.1,0.1,0,0.1,0,0.2
				c0.1-0.1,0.4,0,0.5,0c-0.1,0-0.1,0-0.1,0.1c0,0.2-0.1,0.3-0.1,0.4c0,0-0.1,0.1-0.2,0.1c0,0,0.1,0,0.1,0.1c-0.2,0.1,0-0.1-0.2,0
				c0.1,0,0.2,0.1,0.3,0.1c0.2-0.1,0-0.2-0.1-0.2c0.2-0.1,0.5,0,0.6,0.1c0.1,0.1-0.2,0.1-0.1,0.1c0,0.2,0.5,0.1,0.3,0.3
				c-0.1,0.1-0.3,0.1-0.4,0.1c-0.1-0.1,0.1-0.2,0.1-0.2l-0.1,0.1c-0.1,0-0.1-0.1-0.1-0.1c-0.1,0.1,0,0.4-0.1,0.6
				c0.1,0,0.1,0.1,0.2,0l0-0.1c0.1-0.1,0.2,0.1,0.2,0c0.1,0.1,0.2,0.1,0.2,0.2l-0.2,0.1c0.1,0,0.1-0.1,0-0.1c0.1,0-0.2,0.2,0,0.2
				l0.1-0.1c0.1,0.1,0.3,0.1,0.3,0.2c0.2-0.1,0,0,0.2-0.1c-0.2,0.1,0-0.2-0.3-0.1c0.2-0.1,0.1-0.1,0.3-0.3c-0.1,0-0.1,0.1-0.1,0
				c0,0,0,0-0.1,0l0,0l0,0c0,0,0,0,0,0c0,0-0.1,0-0.1,0.1c-0.1,0-0.2-0.1-0.2-0.2c0-0.1,0.1,0,0.1,0l-0.1,0c0.1,0,0.2-0.2,0.3-0.1
				l0-0.1c0.1-0.1,0.1-0.2,0-0.2c0-0.1-0.2-0.1-0.1-0.1l-0.1-0.1l0,0c0-0.2-0.3-0.3,0-0.5c0,0-0.1-0.1-0.1-0.2l0.1,0
				c0-0.1,0.1-0.2,0-0.2c0.3-0.1,0-0.3,0.1-0.5l-0.1,0c0-0.1-0.1-0.2-0.1-0.2l-0.1,0c-0.1-0.1,0.1-0.2,0-0.4c0.1,0,0,0,0,0.1
				c0.3-0.2-0.3-0.3-0.1-0.5c-0.1,0,0-0.1,0-0.1c0,0,0,0,0,0c0,0,0,0,0,0c0,0,0,0,0.1-0.1c0,0-0.1,0-0.1,0.1c0,0,0-0.1-0.1-0.1
				l0.1,0c0,0,0,0,0,0c0-0.1-0.1,0-0.2,0c0,0-0.1,0-0.1,0c0.2-0.1-0.1-0.1,0.1-0.2c-0.1,0-0.1-0.2-0.4-0.2c0,0,0,0,0.1,0
				c0-0.1,0-0.1,0-0.1l0.2-0.1l-0.3-0.1c0.1-0.1,0.2-0.1,0.3-0.1c-0.2-0.1-0.1-0.1-0.3-0.2l0.1,0c0,0-0.2-0.1-0.1-0.1
				c0.2-0.1,0-0.5,0.2-0.8c-0.3,0.1,0.1-0.2-0.1-0.1c0.1,0,0.1-0.1,0.2,0c-0.1-0.1,0.1-0.2-0.1-0.3c0.1,0,0.1,0,0.2,0
				c0,0-0.1,0,0-0.1c0,0,0.1,0,0.1,0c0-0.1-0.3-0.1-0.5-0.1c0.1-0.1,0.1-0.1-0.1-0.1c0.1,0,0.1-0.1,0.2,0c0-0.1,0.1-0.3-0.1-0.3
				c0,0,0-0.1,0-0.1c0-0.1,0-0.1,0-0.2l0,0c-0.2,0-0.1-0.1-0.1-0.2l0,0c0.1-0.2-0.1-0.1,0.1-0.3l-0.1,0c-0.3,0,0.2-0.2,0-0.3
				l-0.1,0.1c-0.1,0,0.4-0.2,0.4-0.3c0,0,0,0,0.1,0c0.2-0.2-0.2,0-0.2-0.1c0.1,0,0.3,0,0.3-0.1c0.1-0.1-0.3-0.2-0.2-0.3
				c-0.1,0-0.1,0.1-0.2,0c0-0.1,0.3-0.3,0-0.3c0,0,0,0,0.1,0c-0.1-0.1-0.1-0.2-0.3-0.2c0.5-0.1-0.3-0.4,0.2-0.4l0-0.2l0,0
				c0-0.1-0.1-0.2-0.2-0.2c0,0,0.1,0,0.1,0c0.1-0.2,0.1-0.2-0.2-0.3l0.1,0c-0.1,0,0.2-0.3,0-0.5c0,0,0,0,0.1,0
				c-0.2-0.2,0.4-0.6-0.2-0.6l-0.1-0.1c0,0.2-0.2,0-0.3,0.1c0-0.1,0.1-0.2,0.2-0.1l0,0c0.3,0,0.1-0.2,0.3-0.3c0-0.3,0.1-0.7,0.1-1
				l-0.2,0.1l0-0.1c0,0,0.2-0.1,0.2,0c0.1-0.1-0.1-0.1-0.2-0.1c0.1-0.2,0.3,0,0.3,0l0-0.1l0,0c-0.1,0-0.2,0-0.2-0.1
				c0-0.1,0.1,0,0.1-0.1c0,0,0,0,0,0l0-0.1l-0.2,0.1c-0.1-0.1,0-0.1-0.2,0c0.3-0.1,0.1-0.6,0.2-0.6c-0.1-0.1-0.1-0.2-0.1-0.3
				c0,0-0.2,0.1-0.2,0c0.4,0,0.2-0.2,0.4-0.3c-0.2,0.1-0.1-0.3-0.3-0.1c0-0.1,0.1,0,0.2-0.1c-0.2-0.2,0.1-0.4,0-0.7
				c-0.1,0-0.1,0-0.2,0l0.3-0.1c0,0-0.3,0-0.1-0.1c0,0-0.1,0-0.1,0c0.2-0.5-0.2-0.9,0.2-1.4c-0.1,0.1-0.1,0-0.1,0c0,0-0.1,0-0.2,0
				l0.2-0.2c-0.2,0,0-0.2-0.2-0.2l0,0.1c-0.2-0.1-0.5,0.2-0.8,0.2c0.3,0.1-0.4,0.3,0,0.4c-0.1,0-0.1,0-0.2,0c0.1,0,0.1,0.1,0.1,0.2
				l0,0c0,0.2-0.1,0.4-0.1,0.6l0.1,0c0,0.1-0.1,0.1-0.1,0.1c0.2,0,0-0.2,0.2-0.1c-0.3,0.1,0,0.4-0.3,0.5c0,0.1,0.2,0,0.2,0l-0.1,0
				l0.1,0c0,0.1-0.1,0.1-0.2,0.1c0,0,0,0,0-0.1c-0.1,0.1,0,0.2,0,0.2l0-0.1c0.1,0.2,0,0.5,0.2,0.8l0.1,0c0.1,0.2-0.1,0.2,0,0.3l0,0
				c0.1,0,0.1,0.1,0.1,0.1c-0.1,0-0.1,0.1-0.2,0.1c0.1,0.2,0.1,0.1,0.4,0.2l-0.1,0c0.1,0,0.2,0,0.2,0.1c-0.1-0.1-0.2,0.1-0.3,0
				c-0.2,0.2,0.3,0.3-0.1,0.4c0.3,0.1,0.2-0.2,0.2-0.2c0.1-0.1,0.2,0.1,0.2,0.1c0,0.1-0.4,0.2-0.4,0.3c0,0,0,0,0,0
				c-0.1,0.1,0.1,0.1,0,0.2c0.2,0,0,0.1,0.2,0.1l-0.1-0.1c0.1,0.1,0.3,0.1,0.2,0.3c0,0-0.1,0-0.1-0.1c-0.1,0.1,0.1,0.1,0,0.1
				c-0.2,0-0.1-0.2-0.2-0.2c-0.1,0.1,0.2,0.2-0.1,0.1c0.3,0,0,0.2,0.2,0.3l-0.1,0c0,0,0.1,0,0.1,0.1l-0.2,0c0.2,0.1-0.1,0.2,0,0.3
				c0-0.2,0.2-0.1,0.3-0.2c0.2,0.2-0.4,0.2-0.3,0.4c0,0,0.1-0.1,0.1-0.1c0,0.1-0.1,0.1-0.1,0.2c0,0.2,0.1,0,0.2,0
				c-0.2,0.1,0.1,0.1,0.1,0.1l-0.1,0c-0.1,0.2,0.3,0,0.2,0.2l-0.2,0l0.1,0.1l-0.2,0c0.1,0.1,0.1,0.1,0.1,0.2c0.1,0,0.3,0,0.3,0.1
				c-0.1,0.1-0.1,0-0.1,0.1c-0.1,0-0.2,0-0.1-0.1c0,0-0.1,0-0.1,0c-0.1,0.1,0,0.2,0,0.2c0,0,0,0,0-0.1l0.2,0.1c-0.1,0-0.1,0-0.1,0
				c0,0,0.1,0,0.1,0.1c-0.1,0-0.2,0-0.3,0l0.1,0.1c0,0-0.1,0.1-0.2,0.1c-0.1,0.1,0.2,0.2,0.2,0.3c0,0,0,0,0.1,0c0,0.1-0.1,0.2,0,0.4
				l-0.2,0.1c0.1,0.1,0.3-0.1,0.3,0c0.1,0.1-0.2,0.1-0.2,0.1C602.2,298.8,602.4,298.9,602.2,298.9C602.2,299,602.3,299,602.2,298.9z
				 M602.4,300.2C602.4,300.2,602.3,300.2,602.4,300.2C602.6,300.2,602.5,300.2,602.4,300.2z M603,302.2
				C602.9,302.1,602.9,302.1,603,302.2C603,302.1,603,302.1,603,302.2z M604.6,307.4C604.6,307.4,604.6,307.4,604.6,307.4
				C604.6,307.3,604.6,307.3,604.6,307.4z M604.5,307.5C604.5,307.5,604.6,307.5,604.5,307.5C604.5,307.5,604.5,307.5,604.5,307.5
				C604.5,307.5,604.5,307.5,604.5,307.5z M603.3,295.1L603.3,295.1C603.2,295.1,603.2,295.1,603.3,295.1z"/>
			<path fill="#6B6C6F" d="M602.8,302C602.8,302,602.8,302,602.8,302C602.8,301.9,602.8,301.9,602.8,302z"/>
			<polygon fill="#6B6C6F" points="602.1,298.1 602.1,298.1 602.1,298.1 			"/>
			<path fill="#6B6C6F" d="M603.1,306C603.1,306,603.2,306,603.1,306C603.1,306,603.1,306,603.1,306z"/>
			<path fill="#6B6C6F" d="M604.8,308.1L604.8,308.1C604.8,308,604.8,308.1,604.8,308.1C604.8,308.1,604.8,308,604.8,308.1z"/>
			<path fill="#6B6C6F" d="M604.1,308.9C604.1,308.9,604.1,309,604.1,308.9L604.1,308.9C604.1,308.9,604.1,308.9,604.1,308.9z"/>
			<path fill="#6B6C6F" d="M604.4,308.3c-0.1,0-0.1,0.1,0,0.1c0,0,0,0,0,0C604.5,308.3,604.5,308.3,604.4,308.3z"/>
			<path fill="#6B6C6F" d="M604.4,308.4C604.4,308.4,604.4,308.4,604.4,308.4C604.4,308.4,604.4,308.4,604.4,308.4z"/>
			<path fill="#6B6C6F" d="M604.6,307.7c0,0,0.2,0,0.1,0C604.9,307.6,604.5,307.5,604.6,307.7z"/>
			<polygon fill="#6B6C6F" points="604,308.4 604.2,308.3 604,308.3 			"/>
			<path fill="#6B6C6F" d="M604.1,308L604.1,308c0,0.1,0,0.1,0,0.1C604.1,308,604.1,308,604.1,308z"/>
			<path fill="#6B6C6F" d="M604.1,308.1C604.1,308.1,604.1,308.1,604.1,308.1C604.1,308.1,604.1,308.1,604.1,308.1z"/>
			<polygon fill="#6B6C6F" points="604,308.3 604,308.3 604,308.2 			"/>
			<path fill="#6B6C6F" d="M604,307.1L604,307.1c-0.1-0.1-0.1,0-0.1,0C603.9,307.1,603.9,307.1,604,307.1z"/>
			<path fill="#6B6C6F" d="M603.6,307.4c0,0,0.1,0,0.1-0.1L603.6,307.4L603.6,307.4z"/>
			<path fill="#6B6C6F" d="M603.5,307.2c-0.1,0-0.2-0.1-0.1,0C603.5,307.2,603.5,307.3,603.5,307.2z"/>
			<polygon fill="#6B6C6F" points="603.6,305.8 603.6,305.8 603.9,305.7 			"/>
			<path fill="#6B6C6F" d="M602.7,304.7c-0.1,0.1,0.2,0,0.1,0.1c0.1,0,0.1-0.1,0.1-0.1C602.9,304.7,602.9,304.6,602.7,304.7z"/>
			<path fill="#6B6C6F" d="M603,304.7C603,304.7,603,304.8,603,304.7C603,304.7,603,304.7,603,304.7z"/>
			<polygon fill="#6B6C6F" points="603.2,290.9 603.3,290.8 603.2,290.8 			"/>
			<path fill="#6B6C6F" d="M603,290.8l0.2,0L603,290.8C603,290.7,603.1,290.7,603,290.8z"/>
			<path fill="#6B6C6F" d="M602.1,300.5L602.1,300.5c0.1,0,0.1,0,0.1-0.1L602.1,300.5z"/>
			<polygon fill="#6B6C6F" points="602.1,299.5 602.1,299.5 602.3,299.5 			"/>
			<path fill="#6B6C6F" d="M601.9,298.8c0,0,0,0.1,0,0.1C601.8,298.8,602.1,298.7,601.9,298.8z"/>
		</g>
	</g>
	<path fill="#866050" d="M413.2,239.8c-0.3-1.6-0.1-13.1-0.1-18.6c0-1.9,0.6-3.7,1.6-5.4l5.4-8.8l0,0c0.8-1.5,3-0.9,3,0.7v5
		c0,0.2,0,0.4-0.1,0.5l-1.8,5.4c-0.5,1.6-0.7,3.3-0.5,5l2.4,16.2H413.2z"/>
	<path fill="#866050" d="M439.3,206.1c-0.2-1-0.1-8.3,0-11.8c0-1.2,0.4-2.4,1-3.4l3.4-5.6l0,0c0.5-0.9,1.9-0.6,1.9,0.5v3.2
		c0,0.1,0,0.2-0.1,0.3l-1.2,3.4c-0.3,1-0.4,2.1-0.3,3.2l1.5,10.2H439.3z"/>
	<path fill="#866050" d="M469.7,211c0.5-0.7,4.4-5.5,6.3-7.7c0.6-0.8,1.4-1.5,2.1-2l4-2.8l0,0c0.6-0.5,0.9,0.1,0.3,0.8l-1.7,2.1
		c-0.1,0.1-0.1,0.1-0.2,0.2l-2.2,2c-0.6,0.6-1.2,1.3-1.8,2l-5,7L469.7,211z"/>
	<path fill="#866050" d="M490.4,227.5c1.2-1.1,10.9-7.3,15.6-10.2c1.6-1,3.4-1.6,5.3-1.6l10.3-0.3l0,0c1.7-0.2,2.5,2,1,2.9l-4.2,2.7
		c-0.1,0.1-0.3,0.2-0.5,0.2l-5.5,1.4c-1.6,0.4-3.2,1.2-4.4,2.3l-12.2,10.8L490.4,227.5z"/>
	<path fill="#866050" d="M436.5,264.1c0.9-0.9,8.6-5.8,12.3-8.1c1.3-0.8,2.7-1.2,4.2-1.3l8.1-0.2l0,0c1.3-0.1,1.9,1.6,0.8,2.3
		l-3.3,2.1c-0.1,0.1-0.2,0.1-0.4,0.2l-4.4,1.1c-1.3,0.3-2.5,1-3.5,1.8l-9.6,8.5L436.5,264.1z"/>
	<g>
		<g>
			<path fill="#866050" d="M378.2,258.2c-0.3,1-0.6,1.8-1.1,2.7c-0.1,0.1-0.8,1.3-0.4,0.8c-0.4,0.5-0.8,0.9-1.2,1.4
				c-0.6,0.6-1.1,1.5-0.2,2.1c1,0.7,2.6,0.6,3.7,0.6c3.2-0.2,7.3-1.2,9.7-3.5c1.8-1.8,3.2-3.9,3.9-6.4c0.7-2.6-4.7-1.8-5.9-1.6
				c-1.9,0.3-3.8,0.9-5.5,1.7C380.3,256.3,378.5,257.1,378.2,258.2L378.2,258.2z"/>
		</g>
	</g>
	<g>
		<g>
			<path fill="#866050" d="M379.2,279.2c1.6,3.8,2.8,7.7,3.6,11.7c0.8,4,15.4,0.5,14.5-3.9c-0.8-4-2-7.9-3.6-11.7
				C391.9,271,377.7,275.6,379.2,279.2L379.2,279.2z"/>
		</g>
	</g>
	<g>
		<g>
			<path fill="#866050" d="M397.1,276.3c1.3,0.8,2.7,1.6,4,2.4c3.2,1.9,7.4,1.6,10.4-0.8c1.3-1,2.3-2.4,2.5-4
				c0.1-1.4-0.5-3.1-1.8-3.9c-1.3-0.8-2.7-1.6-4-2.4c-3.2-1.9-7.4-1.6-10.4,0.8c-1.3,1-2.3,2.4-2.5,4
				C395.1,273.9,395.8,275.5,397.1,276.3L397.1,276.3z"/>
		</g>
	</g>
	<g>
		<g>
			<path fill="#866050" d="M378.2,335.1c4.8,9,10.8,17.1,17.8,24.5c2.4,2.5,15.6-2.8,13.7-4.8c-6.8-7.1-12.4-14.9-17-23.6
				C390.9,327.9,377.2,333.3,378.2,335.1L378.2,335.1z"/>
		</g>
	</g>
	<g>
		<g>
			<path fill="#866050" d="M450.7,297.7c2.2,1.8,4.3,3.6,6.5,5.4c1,0.8,2.6,0.8,3.8,0.8c1.9-0.1,3.9-0.5,5.7-1.2
				c1.1-0.4,6.4-2.9,4.1-4.8c-2.2-1.8-4.3-3.6-6.5-5.4c-1-0.8-2.6-0.8-3.8-0.8c-1.9,0.1-3.9,0.5-5.7,1.2
				C453.7,293.3,448.4,295.7,450.7,297.7L450.7,297.7z"/>
		</g>
	</g>
	<g>
		<g>
			<path fill="#866050" d="M470.6,289.8c3.1,0,7.5-1.3,9.7-3.6c2.4-2.5-2-2.9-3.6-2.9c-3.1,0-7.5,1.3-9.7,3.6
				C464.7,289.4,469.1,289.8,470.6,289.8L470.6,289.8z"/>
		</g>
	</g>
	<g>
		<g>
			<path fill="none" stroke="#BFA89F" stroke-miterlimit="10" d="M433.4,326.6"/>
		</g>
	</g>
	<g>
		<g>
			<path fill="none" stroke="#BFA89F" stroke-miterlimit="10" d="M451.7,323"/>
		</g>
	</g>
	<circle fill="#866050" cx="368.3" cy="277.8" r="5.4"/>
	<circle fill="#866050" cx="359.6" cy="292.4" r="5.4"/>
	<circle fill="#866050" cx="373.7" cy="292.4" r="3.4"/>
	<circle fill="#866050" cx="427.7" cy="334.5" r="5.4"/>
	<circle fill="#866050" cx="419" cy="349.1" r="5.4"/>
	<circle fill="#866050" cx="433.1" cy="349.1" r="3.4"/>
	<g>
		<path fill="#B4BABE" d="M162.1,201.5c0,0-51.9,98.3-24.3,142.8c36.4,58.7,131.9,41,157.8,26.3c22.9-13,22.4-64.9-25.7-76.6
			c-12-2.9-19.7-14.8-17.5-27l5.4-29.7L162.1,201.5z"/>
		<g>
			
				<linearGradient id="SVGID_1_" gradientUnits="userSpaceOnUse" x1="5005.9204" y1="98.5841" x2="5199.375" y2="98.5841" gradientTransform="matrix(-0.9998 1.960037e-002 1.960037e-002 0.9998 5224.7744 -63.4286)">
				<stop  offset="0" style="stop-color:#BCBEC0"/>
				<stop  offset="1" style="stop-color:#B1B3B6"/>
			</linearGradient>
			<path fill="url(#SVGID_1_)" d="M31.2,73.6l4.2-1.8c4.1-1.8,5.3-7,2.4-10.4c-3.4-4-1-10.2,4.3-10.9l111.5-9.7
				c21.5-0.4,40,13.6,46.1,33.4c11.4,13.5,19.2,30.4,21.5,49.3c6.2,51.5-30.5,98.3-82,104.6c-51.5,6.2-98.3-30.5-104.6-82
				c-2.3-18.7,1.2-36.8,8.9-52.5l-13.1-8.3C25.8,82.5,26.3,75.7,31.2,73.6z"/>
			<circle fill="#9A9FA3" cx="129.7" cy="134.6" r="66.9"/>
			<path fill="#AAAFB4" d="M274.8,111.3c7,48.9,52.2,82.8,101.1,75.8c48.9-7,82.8-52.2,75.8-101.1c-2.5-17.7-10.1-33.5-21.1-46
				l10-10.8c3.4-3.7,1.3-9.8-3.8-10.5l-4.3-0.6c-4.2-0.6-6.6-5.1-4.8-9c2.2-4.5-1.6-9.7-6.6-9l-70.6,10.1
				C301.8,17.1,267.9,62.4,274.8,111.3z"/>
			<circle fill="#959A9E" cx="364.6" cy="98" r="63.6"/>
			<g>
				
					<linearGradient id="SVGID_2_" gradientUnits="userSpaceOnUse" x1="4926.6528" y1="-6.7193" x2="4926.6528" y2="47.9362" gradientTransform="matrix(-0.999 4.540619e-002 4.540619e-002 0.999 5193.2446 -86.4533)">
					<stop  offset="0" style="stop-color:#CBCCCE"/>
					<stop  offset="1" style="stop-color:#C2C4C6"/>
				</linearGradient>
				<path fill="url(#SVGID_2_)" d="M167.2,212c30.8,58.4,120.7,54.1,171.7,34.5c26.9-10.3,51.7-34.8,56-64.5
					c2.3-16.4-3.9-29.1-9.1-44c-6.5-18.6-9.6-38.3-17-56.6c-7.1-17.7-19.8-32.9-35.5-43.6c-20.4-14-55.6-17-79.6-14.3
					c-53,5.9-79.9,28-97,80.3C144.8,140,149.5,178.5,167.2,212z"/>
			</g>
			<circle fill="#ACB2B6" cx="249.6" cy="138.7" r="13"/>
			<circle fill="#616264" cx="249.6" cy="138.7" r="7.7"/>
			<circle fill="#ACB2B6" cx="349.8" cy="123.6" r="12.9"/>
			<circle fill="#616264" cx="349.8" cy="123.6" r="7.7"/>
			<g>
				<path fill="#DEDFE0" d="M311.3,167.6c14.9-1.1,26.5,12.7,22.9,27.2c-2.7,11.1-8.5,21.6-20.8,24c-15.5,3.1-25.2-6.4-31.6-18.7
					c-7.2-13.9,2.5-30.6,18.1-31.8L311.3,167.6z"/>
				<path fill="#616264" d="M333.2,121.3c-3.1-8.6-8.9-16-18.5-19.5c-10.9-3.9-24.2-1.5-33.2,5.3c-11.5,8.7-13.7,22.5-11.9,35
					c2,14.8,14.1,52.4,39.7,46.3c15.5-3.7,24-15,26.3-28.8C337.3,148.9,337.6,133.6,333.2,121.3z"/>
				<path fill="#FFFFFF" d="M292,114.6c0.5-0.3-1.3,0.9-1.9,1.3c-1.9,1.4-3.5,3.2-4.8,5.1c-5.3,7.6-5,17.3-2.8,25.9
					c0.8,3.2-4,5-4.8,1.8c-3.5-13.8-1.8-31.8,12.6-38.9C293.2,108.3,295,113.2,292,114.6L292,114.6z"/>
			</g>
		</g>
		<g>
			<path fill="#878C90" d="M252.7,267l0.5,4c0.1,1.4,0.3,2.6,0.6,3.9c0.6,2.5,1.5,4.8,2.9,6.9c2.6,4.2,6.7,7.1,11.2,8.4
				c0.6,0.1,1.1,0.3,1.7,0.4l0.9,0.2l1,0.2l4.2,0.7c2.8,0.7,5.5,1.7,8.1,2.9c5.2,2.5,9.9,5.9,14,9.9c2,2,3.9,4.2,5.5,6.5
				c1.7,2.3,3.2,4.7,4.5,7.3c2.6,5.1,4.3,10.8,4.6,16.5c0,1.4,0.1,2.9,0,4.3c0,0.7,0,1.4-0.1,2.1c-0.1,0.7-0.2,1.4-0.3,2.1
				c-0.5,2.8-1.1,5.5-2.1,8.2c-1.9,5.2-4.6,10-7.9,14.3l-0.3-0.2c2.6-4.7,4.9-9.5,6.2-14.7c0.7-2.6,1.1-5.2,1.4-7.8
				c0.2-2.6,0.2-5.3-0.1-8c-0.6-5.3-2.3-10.4-4.8-15.1c-1.2-2.4-2.7-4.6-4.3-6.7c-1.6-2.1-3.3-4.2-5.2-6c-3.7-3.8-8.1-6.9-12.8-9.3
				c-2.4-1.2-4.9-2.2-7.4-2.9l-3.9-0.8c-1.3-0.3-2.6-0.6-3.9-1c-2.6-0.9-4.9-2.3-7-4.1c-2-1.8-3.7-3.9-5-6.3c-1.3-2.4-2.1-5-2.4-7.7
				c-0.1-1.3-0.1-2.7-0.1-4l0-4H252.7z"/>
		</g>
		<g>
			<path fill="#9A9FA3" d="M232.2,118.3c-0.8-1-1.2-2.2-1.5-3.4c0.3-1.1,0.7-2.1,1.2-3.1c1-2,2.3-3.8,3.9-5.3c0.8-0.7,1.7-1.5,2.6-2
				c0.5-0.3,0.9-0.6,1.4-0.8l1.5-0.7c0.5-0.3,1-0.4,1.5-0.6c0.5-0.2,1-0.4,1.5-0.5c1.2,0.3,2.3,0.7,3.4,1.2c-0.8,1-1.6,1.8-2.3,2.6
				c-0.4,0.2-0.9,0.3-1.3,0.4c-0.4,0.1-0.9,0.3-1.2,0.5l-1.2,0.6c-0.4,0.2-0.7,0.5-1.1,0.7c-0.8,0.4-1.4,1-2.1,1.6
				c-1.3,1.2-2.3,2.6-3,4.1c-0.4,0.8-0.7,1.6-0.9,2.4C233.8,116.6,233.1,117.3,232.2,118.3z"/>
		</g>
		<g>
			<path fill="#9A9FA3" d="M353.3,103c-1.1-0.7-2-1.2-3-1.6c-0.4-0.7-0.9-1.4-1.5-2.1c-1.1-1.3-2.5-2.4-4.1-3.1
				c-0.8-0.3-1.6-0.7-2.4-0.9c-0.4-0.1-0.8-0.3-1.3-0.3l-1.3-0.2c-0.4-0.1-0.9-0.1-1.3-0.1c-0.4,0-0.9,0-1.3-0.1
				c-0.9-0.6-1.9-1.1-2.9-1.9c0.9-0.8,1.9-1.5,3-2.1c0.5,0,1.1,0.1,1.6,0.1c0.5,0,1.1,0.1,1.6,0.2l1.6,0.3c0.5,0.1,1.1,0.3,1.6,0.4
				c1.1,0.3,2.1,0.8,3.1,1.2c2,1,3.8,2.4,5.2,4c0.8,0.8,1.4,1.7,2,2.7C353.8,100.5,353.8,101.7,353.3,103z"/>
		</g>
		<g>
			<path fill="#6B6C6F" d="M279.7,196.8c1.6-1.9,3.5-3,5.6-3.8c2.1-0.7,4.2-1.1,6.4-1c2.2,0.1,4.4,0.7,6.5,1.7
				c2,1.1,3.8,2.7,4.8,4.9l-0.2,0.3c-0.9-0.4-1.7-0.9-2.7-1.2c-0.5-0.2-0.9-0.4-1.4-0.5l-1.4-0.4c-1.9-0.5-3.8-0.7-5.8-0.8
				c-2-0.1-3.9,0-5.9,0.2c-1,0.1-2,0.2-2.9,0.4c-1,0.1-1.9,0.3-2.9,0.6L279.7,196.8z"/>
		</g>
	</g>
	<path fill="#F8A79E" d="M54.7,382.9c23.4-1.7,46.9-2,70.4-0.7c2.7,0.1,7.5-3.8,2.7-4.1c-24.1-1.3-48.1-1-72.2,0.8
		C52.1,379.2,49.8,383.2,54.7,382.9L54.7,382.9z"/>
	<path fill="#F8A79E" d="M53.7,403.5c14.7-0.2,29.4,0,44.1,0.5c1.5,0.1,3.8-0.3,5-1.3c0.8-0.8,1.2-1.6-0.4-1.7
		c-15.2-0.6-30.4-0.7-45.6-0.5C54.7,400.5,49,403.5,53.7,403.5L53.7,403.5z"/>
	<path fill="#F8A79E" d="M73.2,427.9c49,0.6,97.9,1.1,146.9,1.7c1.3,0,4.1-0.5,4.7-1.9c0.6-1.4-0.5-2-1.9-2
		c-49-0.6-97.9-1.1-146.9-1.7c-1.3,0-4.1,0.5-4.7,1.9C70.8,427.3,71.8,427.9,73.2,427.9L73.2,427.9z"/>
	<path fill="#F8A79E" d="M255.9,411c15.4,0.6,30.8,0.2,46.2-1.1c1.2-0.1,4.2-0.4,4.7-1.8c0.5-1.3-0.4-1.7-1.8-1.6
		c-15.4,1.3-30.8,1.6-46.2,1.1C256.5,407.5,251.2,410.8,255.9,411L255.9,411z"/>
	<path fill="#F8A79E" d="M264.5,455.1c45.3,1.5,90.7,0,135.8-4.4c3.4-0.3,5.9-4.2,1-3.7c-44.5,4.4-89.3,5.8-134,4.2
		C264.7,451.2,259.7,454.9,264.5,455.1L264.5,455.1z"/>
	<g>
		<path fill="#878C90" d="M169.9,219c4.3,5.8,9.1,10.8,14.4,15c2.8,2,5.4,4,8.4,5.6c1.4,0.9,2.9,1.6,4.4,2.5l2.3,1.1l1.1,0.5
			l1.2,0.5c3.1,1.5,6.3,2.6,9.5,3.8c3.2,1.2,6.6,2.2,9.9,3.3c6.7,2.1,13.5,4,20.3,6.6l-0.1,0.4c-7-1.1-14-2.3-21-3.9
			c-3.5-0.8-6.9-1.7-10.3-2.8c-3.4-1.1-6.8-2.3-10-3.7l-1.2-0.5l-1.2-0.6l-2.4-1.2c-1.5-0.9-3.1-1.7-4.6-2.7
			c-3.1-1.9-5.8-4.1-8.5-6.5c-5.3-4.8-9.6-10.7-12.6-17.1L169.9,219z"/>
	</g>
</g>
<g>
</g>
<g>
</g>
<g>
</g>
<g>
</g>
<g>
</g>
<g>
</g>
<g>
</g>
<g>
</g>
<g>
</g>
<g>
</g>
<g>
</g>
<g>
</g>
<g>
</g>
<g>
</g>
<g>
</g>
</svg>
