<?xml version="1.0" encoding="utf-8"?>
<!-- Generator: Adobe Illustrator 18.0.0, SVG Export Plug-In . SVG Version: 6.00 Build 0)  -->
<!DOCTYPE svg PUBLIC "-//W3C//DTD SVG 1.1//EN" "http://www.w3.org/Graphics/SVG/1.1/DTD/svg11.dtd">
<svg version="1.1" id="Layer_1" xmlns="http://www.w3.org/2000/svg" xmlns:xlink="http://www.w3.org/1999/xlink" x="0px" y="0px"
	 viewBox="0 0 972.9 621.2" enable-background="new 0 0 972.9 621.2" xml:space="preserve">
<g>
	<path fill="#ACB2B6" d="M471,264.4c0,0,78.1,66,65.9,202L277.4,481L270,301.5L471,264.4z"/>
	<polygon fill="#F6B992" points="0,438.1 972.9,438.1 947.7,476 548.4,621.2 55.5,584 	"/>
	<circle fill="#976C5A" cx="560" cy="369.6" r="132.1"/>
	<g>
		<polygon fill="#464547" stroke="#464547" stroke-width="4" stroke-miterlimit="10" points="751.6,468.5 730.4,468.8 730.3,464.5 
			747.2,464.2 746.7,430.6 751,430.5 		"/>
		<path fill="#464547" stroke="#464547" stroke-width="4" stroke-miterlimit="10" d="M820.4,467.5l-23.3,0.4l-0.1-4.3l18.9-0.3
			l-0.1-5.1c-6.7-1.6-12.4-6.2-16.7-13.5c-3.4-5.8-4.6-11.2-4.7-11.4l4.2-0.9c0,0.2,4.6,19.5,19.6,21.9l1.8,0.3L820.4,467.5z"/>
		<path fill="#464547" d="M721.7,375.5l-32.1-0.8l0.2-9.4c0.1-2.1-1.4-4-3.5-4.3c-2.4-0.3-4.4,1.5-4.5,3.9l-0.3,10.3
			c-0.1,2.5,1.9,4.5,4.4,4.6l3.5,0.1l0,0l32.1,0.8L721.7,375.5z"/>
		<path fill="#58595B" d="M781.9,450.4L781.9,450.4c-29,5.4-57.1-13.8-62.5-42.8l-4.4-23.6c-5.4-29,13.8-57.1,42.8-62.5l0,0
			c29-5.4,57.1,13.8,62.5,42.8l4.4,23.6C830.1,416.9,810.9,445,781.9,450.4z"/>
		<path fill="#464547" d="M749,381.1l-13.5,12.7c-2.9,2.8-6.8,4.2-10.8,4.1l-42-1l0.2-8.7c0-2-1.4-3.9-3.5-4.1
			c-2.2-0.2-4,1.5-4.1,3.7l-0.2,9.4c-0.1,2.5,1.9,4.5,4.4,4.6l3,0.1l0-0.1l42,1c5.3,0.1,10.5-1.8,14.3-5.5l13.5-12.7L749,381.1z"/>
		<g>
			<path fill="#464547" d="M811.5,401.9c0-0.1,0-0.1-0.1,0l0,0.1L811.5,401.9z"/>
			<path fill="#464547" d="M810.8,402.2c-0.1,0.1-0.1,0.3,0,0.3c0-0.2,0.1-0.2,0.1-0.4c0.1-0.1,0.2-0.1,0.2,0c0,0,0.2-0.1,0.2-0.2
				C811.1,401.9,810.9,402.1,810.8,402.2C810.7,402.3,810.8,402.2,810.8,402.2z"/>
			<path fill="#464547" d="M801.3,408.9L801.3,408.9C801.3,408.8,801.3,408.9,801.3,408.9z"/>
			<path fill="#464547" d="M795.1,412.6C795.2,412.6,795.2,412.6,795.1,412.6C795.1,412.6,795.1,412.6,795.1,412.6z"/>
			<path fill="#464547" d="M794,413.1C794,413.1,794,413.1,794,413.1C794,413.1,794,413.1,794,413.1z"/>
			<path fill="#464547" d="M801.3,408.9l-0.2,0.1C801.1,409,801.2,408.9,801.3,408.9z"/>
			<path fill="#464547" d="M809.7,403.4C809.7,403.4,809.7,403.3,809.7,403.4L809.7,403.4C809.7,403.4,809.7,403.4,809.7,403.4z"/>
			<path fill="#464547" d="M803.8,407L803.8,407c0.1-0.1,0.1-0.1,0.1-0.1L803.8,407z"/>
			<path fill="#464547" d="M805.8,405.6c0,0,0,0.1,0,0.2C805.8,405.7,805.8,405.6,805.8,405.6C805.8,405.6,805.8,405.6,805.8,405.6z
				"/>
			<path fill="#464547" d="M809,403.4L809,403.4C809,403.4,809,403.4,809,403.4z"/>
			<path fill="#464547" d="M802.4,408C802.4,408,802.3,408,802.4,408C802.3,408,802.4,408,802.4,408z"/>
			<path fill="#464547" d="M737.2,420.8C737.2,420.8,737.2,420.8,737.2,420.8C737.2,420.8,737.2,420.8,737.2,420.8z"/>
			<path fill="#464547" d="M734.5,419.8L734.5,419.8C734.6,419.8,734.6,419.8,734.5,419.8L734.5,419.8z"/>
			<path fill="#464547" d="M792,414C792,414,792,414,792,414C792,414,792,414,792,414z"/>
			<path fill="#464547" d="M772.6,420.3c0.2,0.1-0.4,0.2,0,0.2C772.5,420.5,772.8,420.4,772.6,420.3z"/>
			<path fill="#464547" d="M809.6,403.4L809.6,403.4C809.6,403.5,809.6,403.4,809.6,403.4z"/>
			<path fill="#464547" d="M772.6,420.6L772.6,420.6L772.6,420.6C772.6,420.6,772.6,420.6,772.6,420.6z"/>
			<path fill="#464547" d="M787.3,416.3C787.3,416.3,787.4,416.3,787.3,416.3C787.4,416.3,787.4,416.3,787.3,416.3z"/>
			<path fill="#464547" d="M790.9,414.8L790.9,414.8C790.8,414.8,790.8,414.8,790.9,414.8z"/>
			<path fill="#464547" d="M785.5,417.2c-0.1,0-0.1,0-0.1,0c0,0,0,0,0,0C785.4,417.2,785.5,417.2,785.5,417.2z"/>
			<path fill="#464547" d="M783.6,417.9C783.6,417.9,783.6,417.9,783.6,417.9c0.1,0,0.1,0,0.1,0L783.6,417.9z"/>
			<path fill="#464547" d="M743.6,421.5C743.5,421.4,743.5,421.4,743.6,421.5C743.5,421.4,743.2,421.4,743.6,421.5z"/>
			<path fill="#464547" d="M809.6,403.3C809.6,403.4,809.6,403.4,809.6,403.3L809.6,403.3C809.6,403.4,809.6,403.3,809.6,403.3z"/>
			<path fill="#464547" d="M785.7,418l-0.3,0.1C785.5,418,785.6,418,785.7,418z"/>
			<path fill="#464547" d="M758.6,421.9L758.6,421.9C758.5,421.9,758.6,421.9,758.6,421.9z"/>
			<path fill="#464547" d="M784.5,418.4c-0.1,0-0.1,0-0.2,0c0,0,0,0,0,0L784.5,418.4z"/>
			<path fill="#464547" d="M743.5,421.4L743.5,421.4L743.5,421.4z"/>
			<path fill="#464547" d="M741.3,421.4c0.3,0,0.2-0.1,0.2-0.2c0.4,0,0.2,0.1,0.3,0.2c0.2,0,0.4-0.1,0.6-0.1c0,0,0,0,0,0.1
				c0.3-0.1,0.7,0.1,1-0.1c0,0,0,0,0,0c0-0.1,0-0.1,0-0.2c0.1,0,0.3-0.1,0.3,0c-0.1,0-0.1,0-0.1,0l0.2,0c0.1,0.1-0.2,0-0.2,0.1
				c0.3,0,0.6-0.1,0.9,0c0,0.1-0.5,0-0.2,0.1l-0.3-0.1c0.2,0.2-0.2,0,0,0.2c0.5,0.1,0.5,0,1,0c0.1-0.1,0-0.1,0.1-0.2
				c0.6-0.1,0.5,0.3,1,0.2c0.1-0.1,0.2-0.2,0.5-0.1l-0.1,0.1c0.4,0,0.3-0.2,0.7-0.1c-0.1,0.1-0.3,0-0.3,0c0.3,0.1,0.2-0.1,0.4-0.1
				l0,0.1c0.5,0,1-0.1,1.5-0.1c0,0-0.1,0.1,0,0.1c0.7,0,1.4,0.1,2,0.2l0.2-0.1c0.1,0,0.1,0.1,0,0.1c0.2,0,0-0.1,0.1-0.1
				c0.1,0,0.2,0.1,0.1,0.1c0.4-0.1,1.2-0.2,1.7,0l-0.1,0c0.4,0.1,0.4-0.2,0.7-0.1l-0.1,0c0.8,0.1,1.6,0,2.2,0.1
				c0.1-0.2,0.8,0.1,0.8-0.1c0.4,0.1,0.3,0.1,0.9,0.2c0.2,0,0.2-0.1,0.5-0.2l0,0.1l0.3-0.1l0.1,0.1l0.2,0c-0.1,0-0.2-0.1-0.2-0.1
				c0.3,0,0.7,0.1,0.7,0.1l0.7-0.1c0,0-0.1,0.1-0.2,0.1c0.4-0.1,0.1,0.1,0.4,0c0,0,0-0.1,0-0.1c0.2,0.1,0.6,0.1,0.9,0l-0.1,0.1
				c0.5,0,1.1,0,1.7-0.1c-0.2,0-0.2-0.2,0-0.2l0.1,0.1c0.1-0.1-0.2,0,0-0.1c0.2,0,0.2,0.1,0,0.2l0.3,0c0,0,0,0.1-0.1,0.1
				c0.1-0.1,0.5,0.1,0.6,0l0,0c0.6,0,0.9-0.1,1.3-0.1c0-0.1,0.2-0.1,0.3-0.2c0.4,0,0.8,0.1,1.2,0c0.3-0.1,0.1-0.1,0.2-0.2
				c0,0.1,0.5,0.1,0.2,0.1c0.5,0,0.7-0.1,1.3-0.2c-0.1,0-0.2,0-0.1-0.1c0.1,0,0.3,0,0.3,0.1l0,0c0.7-0.2,1.7,0.1,2.3-0.1l0,0
				l0.6-0.2c0.3,0-0.2,0.1,0.1,0.1c0.6-0.2,1-0.1,1.5-0.3c0.4,0.2,1.4-0.2,2-0.1l0-0.1c0.1-0.1,0.2,0,0.3,0c0,0-0.2,0-0.1-0.1
				c0.6-0.1,1.2-0.2,1.9-0.3c0.6-0.1,1.3-0.2,1.9-0.3c0.5-0.1,0.2-0.4,0.8-0.4l-0.1,0.2c0.9-0.4,1.8-0.5,2.7-0.9c0,0,0,0.1-0.1,0.1
				c0.2,0,0.7-0.2,0.7-0.3c0.1,0,0.1,0.1,0.1,0.1c0.2,0,0.4-0.3,0.5-0.2c0,0,0,0-0.1,0.1c0.1-0.1,0.6-0.2,0.4-0.2
				c0.3-0.1,0.6-0.2,0.9-0.3c0.1-0.2,0.6-0.2,0.6-0.3c0,0.2,0.6-0.1,0.8-0.2c0,0.1,0.2,0,0.1,0.1c0.2-0.1,0.4-0.2,0.4-0.3
				c0.5,0,0.8-0.5,1.1-0.4c0.3-0.2,0.6-0.3,0.9-0.5c0.3-0.2,0.6-0.3,0.9-0.5c0,0.2-0.7,0.3-0.6,0.5c0.5-0.3,0.8-0.6,1.4-0.8
				c0.2,0-0.1,0.1-0.1,0.1c0.5-0.3,1.1-0.5,1.5-0.8c0,0,0,0.1-0.1,0.1c0.1-0.1,0.2-0.1,0.2-0.2l-0.1,0.1c-0.2,0,0.3-0.4,0.3-0.5
				c-0.1,0.3,0.5-0.2,0.4,0.2c0.1,0,0.1-0.1,0.1-0.2c0.1,0,0.1,0,0.1,0.1c0.3-0.2,0.2-0.2,0.5-0.4c0,0,0,0.1-0.1,0.1
				c0.1-0.1,0.2-0.3,0.5-0.4c0,0,0,0,0,0.1c0.4-0.3,0.7-0.6,1.2-0.8c-0.1,0.2,0.2,0,0.3,0.1l0.2-0.2l-0.1,0c0.2-0.1,0.4-0.3,0.6-0.4
				l-0.1,0.1l0.4-0.3l-0.3,0.1c0.2-0.2-0.1-0.1,0.2-0.3c-0.1,0,0.2-0.1,0.4-0.1l0,0c0.1-0.1,0.2-0.2,0.4-0.3c0.1,0,0,0.1,0.1,0.2
				c0.1-0.2,0.5-0.3,0.6-0.5c0,0.1,0,0.1,0,0.1l0-0.1c0.1,0,0.1,0,0.2,0c0.3-0.2-0.2-0.1,0.2-0.2c0,0,0,0-0.1,0.1
				c0.4-0.2,0.7-0.5,1.1-0.7c0.2,0.1-0.3,0.2-0.1,0.2c0.5-0.3,0.9-0.8,1.4-1.1l-0.1,0c0-0.2,0.4-0.1,0.6-0.4c-0.1,0,0,0.1,0,0.1
				c0.3-0.2,0.6-0.5,1.1-0.8l0,0.1c0.2-0.1,0.5-0.3,0.7-0.4c0-0.1,0.2-0.2,0-0.2c0.8-0.2,1.1-0.9,1.8-1.1c-0.1,0-0.1,0.1-0.1,0.1
				l0.4-0.4c-0.1,0-0.1,0-0.2,0c0-0.1,0.1-0.2,0.3-0.3c-0.2,0.2,0.1,0.1,0.2,0.1c0,0,0-0.1,0-0.1c0.3-0.1-0.1-0.2,0.3-0.3l0,0
				c0.1-0.1,0.2-0.2,0.3-0.3c0.1,0-0.1,0.1-0.1,0.2c0.2-0.1,0.3-0.4,0.5-0.5c-0.1,0.1-0.2,0.2-0.2,0.2c0.3,0,0.3-0.1,0.4-0.2l0,0
				l0.3-0.2l-0.1,0c0.1-0.4,0.4-0.4,0.7-0.7c-0.2,0.4,0,0.1,0,0.2c0.1,0,0.2-0.1,0.2,0c0.1-0.2,0.3-0.1,0.4-0.4c0,0,0.2-0.1,0.2,0
				c0.2-0.2-0.1,0-0.1-0.1c0.2-0.3,0.8-0.4,1.1-0.8c0.3-0.3,0.3-0.5,0.6-0.8c0.1,0,0,0.2,0,0.2c0.2-0.1,0.3-0.2,0.5-0.4
				c0,0.1,0,0,0.1,0c0.1-0.1,0-0.2,0.2-0.3c0,0.1,0,0.1-0.1,0.2c0.1-0.2,0.3-0.3,0.4-0.5c0.1,0,0,0.2-0.1,0.2
				c0.2-0.2,0.5-0.4,0.5-0.5l-0.1,0.1c0.1-0.1,0.1,0,0,0.1c-0.1,0.2-0.3,0.2-0.3,0.1l0.1-0.1c-0.2-0.1-0.5,0.4-0.7,0.6l0-0.2
				l-0.2,0.3c-0.1,0-0.2,0-0.1-0.1c-0.2,0.1-0.1,0.2-0.3,0.2c0,0,0,0,0,0l-0.1,0.2c0-0.1-0.1-0.1,0-0.1c-0.4,0.2-0.4,0.5-0.6,0.5
				l0,0c-0.4,0.4,0,0.1-0.2,0.5l-0.4-0.1l0,0.1c0,0-0.1,0.1-0.1,0c-0.1,0.2,0.1,0,0,0.1c-0.3,0.1-0.6,0.5-0.7,0.4
				c0,0.1,0.2-0.1,0,0.1c-0.2-0.1-0.2,0.2-0.5,0.3c0-0.1,0.2-0.2,0-0.1c0,0.2-0.4,0.2-0.5,0.4c0.1,0.1-0.3,0.3-0.6,0.5
				c0,0-0.6,0.3-0.8,0.5l0,0c0,0.1-0.3,0.3-0.4,0.5c0-0.1,0-0.1,0.1-0.2l-0.2,0.1c0,0.1-0.1,0.1-0.2,0.2l0-0.1
				c-0.2,0.2-0.4,0.4-0.8,0.6c0,0.1,0.4,0,0.1,0.3c0,0-0.1-0.1,0-0.2c0,0-0.1,0.1-0.1,0.1l0.1-0.2c-0.2,0.1,0,0.1-0.2,0.2
				c0-0.1-0.1,0-0.1,0c0,0,0.1,0,0.1-0.1c-0.1,0.1-0.3,0.2-0.4,0.1c0,0,0.1,0.1,0,0.2c-0.2,0.2-0.1,0-0.3,0.1c0,0.1-0.2,0.1-0.2,0.2
				c-0.1,0-0.1,0-0.2,0c-0.1,0.1-0.6,0.4-0.4,0.4l0,0l0,0l0,0l0,0c-0.4,0.4-0.9,0.5-1.3,0.8l0,0c-0.2,0.2-0.5,0.4-0.7,0.6
				c-0.1,0-0.2,0.1-0.2,0c-0.2,0.1-0.2,0.2-0.5,0.3c0.2-0.2-0.1,0,0.2-0.2c-0.3,0.1-0.4,0.1-0.6,0.4c0-0.1-0.2,0-0.4,0.1l0.2-0.1
				c-0.1,0.1-0.3,0.2-0.4,0.2l0-0.1c-0.6,0.2-0.8,0.8-1.3,0.8c-0.1,0.2,0.3-0.1,0.2,0c-0.2,0.1-0.6,0.1-0.7,0.2
				c-0.4,0.1-0.2,0.3-0.6,0.5c0.1,0,0.2,0.1-0.1,0.3c-0.3,0.1-0.4,0-0.3-0.1c0.1,0,0.1,0,0.1,0c0.1-0.1,0.2-0.1,0-0.1l0,0.1
				c-0.1,0-0.5,0.2-0.4,0.1c-0.2,0.1,0,0.1,0.1,0c-0.3,0.1-0.5,0.3-0.8,0.4c0.1,0,0.1,0,0.1,0c-0.5,0.2-0.2,0.2-0.5,0.4
				c-0.2,0,0-0.2-0.3,0.1c-0.2,0.1-0.1-0.1,0-0.2c-0.3,0.2-0.6,0.2-0.8,0.3l0.1-0.1c-0.1,0.1-0.2,0.1-0.2,0.1l0.1,0
				c-0.1,0-0.2,0.1-0.2,0c-0.1,0.1,0.1,0.1,0,0.3c-0.1,0-0.4,0.2-0.4,0.2c0.4-0.2-0.1-0.1,0.2-0.3c-0.1,0-0.1,0.1-0.2,0.1
				c0,0,0,0,0,0c-0.4,0.1-0.1,0.2-0.5,0.4c0-0.1-0.1-0.1-0.2,0c0.2-0.1,0.1,0.1,0,0.2c-0.3,0.1-0.3,0.2-0.4,0.2l0.2-0.1
				c0,0.1-0.1,0.1-0.3,0.2c0,0,0.1-0.1,0.1-0.1c-0.1,0.2-0.5,0.1-0.7,0.3c-0.1,0-0.1-0.1-0.2-0.1c-0.3,0.2-0.4,0.1-0.7,0.3
				c0.1,0,0.1,0-0.1,0.2l0.5-0.3l-0.3,0.3c0.2-0.1,0.3-0.2,0.4-0.2c-0.1,0.1-0.1,0.1,0,0.1c-0.3,0-0.4,0.3-0.7,0.3l-0.1-0.2
				c-0.4,0.1-0.6,0.4-1.1,0.6l0.2,0c0,0.1-0.3,0.1-0.4,0.2c0-0.1-0.1-0.1-0.2-0.1c0,0-0.4,0.1-0.4,0.3l-0.3,0
				c-0.4,0.1-0.4,0.4-0.8,0.5c0.1-0.1-0.1-0.1,0.1-0.3c-0.1,0.1-0.2,0.1-0.2,0.1c-0.1,0-0.3,0.2-0.5,0.2c0,0,0,0.1-0.2,0.2
				c0,0,0,0,0,0c0,0-0.2,0.1-0.1,0.2c-0.5-0.1-1.1,0.4-1.5,0.4c-0.3,0.1-0.6,0.3-0.9,0.3c0,0,0,0,0,0c-0.4,0.1-0.2,0.3-0.6,0.3
				c-0.2,0,0.2-0.1,0.1-0.1c-0.1-0.2-0.5,0.2-0.8,0.1l0.1,0c-0.2,0-0.5,0.2-0.9,0.3c0,0,0,0,0,0c-0.2,0.2-0.7,0.3-1,0.5
				c0.1-0.1,0.1-0.1,0.1-0.2c-0.1,0.1,0.1,0.1-0.2,0.2c-0.1,0-0.3,0-0.4-0.1l0.3-0.1c-0.2-0.1-0.4,0.1-0.5,0.1l0-0.1
				c-0.4,0.1-0.4,0.3-0.9,0.4l0.1,0c-0.2,0.2-0.2,0-0.5,0.1l-0.1-0.1c-0.2,0.1-0.6,0.3-0.9,0.4c0.2-0.1,0.5-0.3,0.7-0.4
				c-0.2,0-0.6,0.1-0.7,0.2c0.1,0,0.1-0.1,0.2-0.1c-0.2,0.2-0.5,0.3-0.8,0.3c0-0.3-0.9,0.1-1.2-0.1c-0.6,0.2-1.2,0.2-1.9,0.3
				c0.3,0.2-0.2,0-0.1,0.2c-0.2,0-0.2,0-0.2,0l-0.5-0.1c-0.1,0,0.2-0.1,0.1-0.1c-0.4,0-0.2-0.1-0.4-0.1c0.1,0.1-0.1,0.1-0.3,0.1
				l0.3,0.1c-0.5,0.2-0.5-0.1-1,0l0.2-0.1c-0.3,0.1-1,0.1-1.2,0.3c0,0-0.1-0.1,0-0.1c-0.6,0-1.4,0.3-1.9,0.2l0-0.1
				c-0.1,0-0.2,0.1-0.3,0.1c0,0,0-0.1,0-0.1c-0.1,0-0.3,0.1-0.5,0.1l0.1-0.1c-0.6,0-0.9,0.2-1.5,0.3c0-0.2-0.5-0.2-0.7-0.2l0,0
				c-0.7,0-1.2,0.2-1.9,0.3c-0.4-0.2-1.4,0-2.1-0.1c0.1,0,0,0.1-0.1,0.1c-0.2,0-0.4,0.1-0.4,0l0.1,0c-0.1-0.1-0.4-0.1-0.7-0.1l0,0.2
				c-0.7-0.3-1.7,0.1-2.1-0.1c-0.2,0-0.4,0-0.5,0.1l0-0.1c-0.4,0-0.7,0-1.2,0l0.1-0.1c-0.3,0-0.4,0.3-0.7,0.3l-0.1-0.2
				c-0.5,0-1.1-0.1-1.6,0c0,0,0-0.1,0.1-0.1c-0.3,0-1-0.1-0.9,0.1c0-0.1-0.5,0-0.8,0l0-0.1c-0.2,0.1-0.3,0.2-0.6,0.2
				c-0.1,0-0.1-0.1,0-0.1c-0.3-0.1-0.2,0.1-0.5,0l0.1-0.1c-0.3,0-0.3,0-0.4,0.1c-0.2,0-0.5,0-0.6-0.1c0,0.1-0.2,0.1-0.4,0.1
				c0,0,0-0.1,0.1-0.1c-0.5-0.1-0.7,0.1-1,0c0,0,0-0.1-0.1-0.1c0.4,0,0.7,0,0.6,0c0-0.1-0.3-0.1-0.1-0.2c-0.2,0.1-0.6,0.2-0.9,0.1
				c0,0,0,0,0,0l0,0c-0.1,0-0.1,0-0.2,0c-0.1,0-0.1,0-0.2,0c0-0.1-0.3-0.1-0.5-0.1c0,0.1-0.2,0.1,0,0.2c0,0,0,0,0.1,0c0,0,0,0,0.1,0
				l0,0c0.1,0,0.2,0,0.4,0c-0.1,0-0.2,0.1-0.4,0c-0.1,0.1-0.2,0.1-0.2,0.2c-0.2-0.2-0.6-0.2-0.6-0.3c-0.5,0-1.1,0-1.4,0.2
				c-0.1,0-0.1-0.1-0.2-0.1c0.1,0,0.2,0,0.2,0c-0.3,0-0.8,0-0.8,0.1c-0.3-0.1,0.2-0.1-0.3-0.1l0.1,0c-0.9-0.3-1.4,0.2-2.4-0.1
				c0.1,0,0.1,0,0.1,0.1c-1.1-0.2-2.3-0.1-3.3-0.4c-0.3-0.1-0.3,0-0.5,0l-0.1-0.1l-0.3,0.1c-0.5,0-0.7-0.4-1.3-0.3l0.1,0.1
				c-0.2,0-0.7-0.1-0.6-0.1c0,0-0.1,0.1-0.2,0l0-0.1l-0.5,0c-0.4-0.1,0.1-0.2-0.5-0.3c-0.2,0-0.6,0.1-0.6,0.1c0.1,0,0.2,0.1,0.2,0.1
				l-0.2,0c-0.1,0.2-0.3,0.3,0.2,0.5l0.4,0l0.1,0.1l-0.3,0c0.1,0.1,0.3,0.1,0.4,0c0,0,0.1,0.1,0.1,0.1l0.4-0.1c0,0.1-0.2,0.1,0,0.2
				c0.2,0-0.1-0.2,0.1-0.2c0.1,0.1,0.1,0.2,0.3,0.1c0,0,0,0.1-0.1,0.1c0.2,0,0.4,0.1,0.5,0c0.2,0.1,0.6,0.1,0.5,0.2
				c0.1,0,0.3-0.1,0.5-0.1c-0.3,0.1,0.6,0.1,0.5,0.3c0.2-0.1,0.8,0,1.1,0c0,0-0.1,0-0.1,0c0.2,0,0.3,0.1,0.4,0.1
				c0-0.1,0.4-0.1,0.6-0.2c0.2,0.2-0.2,0.1-0.1,0.3c0-0.1,0.5-0.1,0.4-0.2c0.2,0.1,0.2,0.1,0.3,0.2c0.1-0.2,0.2,0,0.4-0.1
				c0.3,0.1,0.1,0.2,0.4,0.1C741.6,421.4,741.3,421.4,741.3,421.4z M748.7,421.6L748.7,421.6c-0.1,0-0.1,0-0.2,0
				C748.6,421.6,748.6,421.6,748.7,421.6z M749.3,421.6c-0.1,0-0.2,0-0.3,0c0,0,0-0.1,0.1-0.1C749.1,421.5,749.2,421.6,749.3,421.6z
				 M748,420.9c0.1,0,0.1,0,0.1,0C748.1,420.9,748.1,420.9,748,420.9C748,420.9,748,420.9,748,420.9C748,420.9,748,420.9,748,420.9z
				"/>
			<path fill="#464547" d="M747.8,421C747.8,421,747.8,421,747.8,421C747.8,421,747.8,421,747.8,421C747.9,421,747.9,421,747.8,421
				C747.9,421,747.9,421,747.8,421z"/>
			<path fill="#464547" d="M801.3,408.8L801.3,408.8C801.3,408.8,801.3,408.8,801.3,408.8C801.3,408.8,801.3,408.8,801.3,408.8z"/>
			<polygon fill="#464547" points="757.9,422 757.9,421.9 757.8,422 			"/>
			<path fill="#464547" d="M804.3,407.2C804.4,407.2,804.4,407.2,804.3,407.2C804.4,407.2,804.4,407.2,804.3,407.2z"/>
			<path fill="#464547" d="M805.6,406.3l0.2-0.1C805.7,406.3,805.6,406.3,805.6,406.3z"/>
			<path fill="#464547" d="M806.5,405.7C806.5,405.7,806.5,405.7,806.5,405.7L806.5,405.7L806.5,405.7z"/>
			<path fill="#464547" d="M791.2,415.4C791.2,415.4,791.2,415.4,791.2,415.4C791.1,415.5,791.2,415.4,791.2,415.4z"/>
			<path fill="#464547" d="M795.9,412.6c0,0-0.1,0.1-0.1,0.1C795.8,412.7,795.9,412.7,795.9,412.6z"/>
			<polygon fill="#464547" points="785.8,417.9 785.8,417.9 785.7,418 			"/>
			<path fill="#464547" d="M795.5,412.9c0.1,0,0.2-0.1,0.2-0.1C795.7,412.8,795.6,412.8,795.5,412.9z"/>
			<path fill="#464547" d="M810.5,402.8L810.5,402.8C810.5,402.7,810.5,402.7,810.5,402.8L810.5,402.8z"/>
			<path fill="#464547" d="M810.5,402.7L810.5,402.7C810.5,402.7,810.5,402.7,810.5,402.7z"/>
			<path fill="#464547" d="M810.6,402.6L810.6,402.6C810.6,402.7,810.6,402.6,810.6,402.6z"/>
			<path fill="#464547" d="M809.2,403.7L809.2,403.7C809.3,403.7,809.3,403.7,809.2,403.7z"/>
			<path fill="#464547" d="M808.9,403.9c0.1-0.1,0.3-0.1,0.4-0.2l0,0C809.2,403.8,808.9,403.8,808.9,403.9z"/>
			<path fill="#464547" d="M807.1,404.7l0.3-0.2c-0.1,0-0.2,0,0-0.1C806.9,404.6,807.5,404.4,807.1,404.7z"/>
			<path fill="#464547" d="M806.1,405.4C806.3,405.2,806.1,405.3,806.1,405.4C806,405.4,806,405.4,806.1,405.4z"/>
			<path fill="#464547" d="M799.1,410.2L799.1,410.2C798.9,410.2,799,410.2,799.1,410.2z"/>
			<polygon fill="#464547" points="797.9,411.5 798.1,411.5 798.1,411.4 			"/>
			<polygon fill="#464547" points="796.8,411.4 796.8,411.4 796.6,411.6 			"/>
			<path fill="#464547" d="M783.9,417.7L783.9,417.7C784.1,417.7,784.1,417.6,783.9,417.7z"/>
			<path fill="#464547" d="M778,419.5c-0.1,0-0.3,0-0.3,0C777.8,419.5,777.9,419.6,778,419.5z"/>
			<polygon fill="#464547" points="759.5,421 759.7,421 759.4,421 			"/>
		</g>
		<g>
			<path fill="#464547" d="M813.3,411.4c0,0-0.1,0-0.1,0.1l0.1,0.1L813.3,411.4z"/>
			<path fill="#464547" d="M812.9,412.1c0,0.1,0,0.3,0.2,0.3c-0.1-0.2,0-0.2-0.1-0.4c0-0.1,0.1-0.2,0.1-0.1c0,0,0.1-0.2,0-0.2
				C813,411.7,813,411.9,812.9,412.1C812.9,412.2,812.9,412.1,812.9,412.1z"/>
			<path fill="#464547" d="M804.6,419.1L804.6,419.1C804.7,419.1,804.6,419.1,804.6,419.1z"/>
			<path fill="#464547" d="M798.3,421.8C798.4,421.8,798.4,421.8,798.3,421.8C798.3,421.8,798.3,421.8,798.3,421.8z"/>
			<path fill="#464547" d="M797.2,422.1C797.2,422.1,797.2,422.1,797.2,422.1C797.2,422.1,797.2,422.1,797.2,422.1z"/>
			<path fill="#464547" d="M804.6,419.1l-0.2,0C804.4,419.2,804.5,419.1,804.6,419.1z"/>
			<path fill="#464547" d="M812.4,413.6c0,0,0-0.1,0-0.1C812.4,413.5,812.4,413.6,812.4,413.6L812.4,413.6z"/>
			<path fill="#464547" d="M807.2,417.5L807.2,417.5C807.2,417.5,807.2,417.5,807.2,417.5L807.2,417.5z"/>
			<path fill="#464547" d="M809.1,416.2c0,0,0,0.1,0,0.2C809.1,416.3,809.1,416.3,809.1,416.2C809.1,416.2,809.1,416.2,809.1,416.2z
				"/>
			<path fill="#464547" d="M811.8,413.8L811.8,413.8C811.8,413.8,811.8,413.8,811.8,413.8z"/>
			<path fill="#464547" d="M805.7,418.4C805.7,418.3,805.7,418.3,805.7,418.4C805.7,418.3,805.7,418.3,805.7,418.4z"/>
			<path fill="#464547" d="M742.7,430.6C742.7,430.6,742.7,430.6,742.7,430.6C742.7,430.6,742.7,430.6,742.7,430.6z"/>
			<path fill="#464547" d="M740.1,429.8L740.1,429.8C740.1,429.8,740.1,429.8,740.1,429.8L740.1,429.8z"/>
			<path fill="#464547" d="M795.1,422.8C795.1,422.8,795.1,422.8,795.1,422.8C795.2,422.7,795.1,422.7,795.1,422.8z"/>
			<path fill="#464547" d="M776.3,428.2c0.2,0-0.3,0.2,0,0.2C776.3,428.4,776.6,428.2,776.3,428.2z"/>
			<path fill="#464547" d="M812.4,413.6L812.4,413.6C812.3,413.7,812.4,413.7,812.4,413.6z"/>
			<path fill="#464547" d="M776.3,428.4L776.3,428.4L776.3,428.4C776.3,428.4,776.3,428.4,776.3,428.4z"/>
			<path fill="#464547" d="M790.5,424.5C790.5,424.5,790.5,424.5,790.5,424.5C790.6,424.5,790.5,424.5,790.5,424.5z"/>
			<path fill="#464547" d="M794,423.4L794,423.4C794,423.4,794,423.4,794,423.4z"/>
			<path fill="#464547" d="M788.7,425.2c0,0-0.1,0-0.1,0c0,0,0,0,0,0C788.6,425.2,788.7,425.2,788.7,425.2z"/>
			<path fill="#464547" d="M786.8,425.8C786.8,425.8,786.9,425.8,786.8,425.8C786.9,425.8,786.9,425.8,786.8,425.8L786.8,425.8z"/>
			<path fill="#464547" d="M748.8,431C748.7,431,748.7,431,748.8,431C748.7,431,748.4,431,748.8,431z"/>
			<path fill="#464547" d="M812.4,413.6C812.4,413.6,812.4,413.6,812.4,413.6C812.4,413.6,812.4,413.6,812.4,413.6
				C812.4,413.6,812.4,413.6,812.4,413.6z"/>
			<path fill="#464547" d="M788.9,426l-0.3,0.1C788.7,426.1,788.8,426,788.9,426z"/>
			<path fill="#464547" d="M763.1,430.8L763.1,430.8C763.1,430.9,763.1,430.8,763.1,430.8z"/>
			<path fill="#464547" d="M787.7,426.4c-0.1,0-0.1,0-0.2,0c0,0,0,0,0,0L787.7,426.4z"/>
			<path fill="#464547" d="M748.7,430.9L748.7,430.9L748.7,430.9z"/>
			<path fill="#464547" d="M746.6,431.1c0.3,0,0.2-0.1,0.2-0.2c0.4,0,0.2,0.1,0.3,0.2c0.2,0,0.4-0.1,0.6-0.1c0,0,0,0,0,0.1
				c0.2-0.1,0.7,0,1-0.1c0,0,0,0,0,0c0-0.1,0-0.1,0-0.2c0.1,0,0.3-0.1,0.3,0c-0.1,0-0.1,0-0.1,0.1l0.1,0c0.1,0.1-0.2,0-0.2,0.1
				c0.3,0,0.6-0.1,0.8-0.1c0,0.1-0.5,0-0.2,0.1l-0.3-0.1c0.2,0.2-0.2,0,0,0.2c0.4,0.1,0.5,0,0.9,0c0.1-0.1,0-0.1,0.1-0.2
				c0.6-0.1,0.5,0.3,0.9,0.2c0.1-0.1,0.2-0.2,0.5-0.1l-0.1,0.1c0.4,0,0.2-0.2,0.7-0.1c-0.1,0.1-0.3,0-0.3,0.1
				c0.3,0.1,0.2-0.1,0.4-0.1l0,0.1c0.4,0,0.9-0.1,1.4-0.1c0,0-0.1,0.1,0,0.1c0.6,0,1.3,0,1.9,0.1l0.2-0.1c0.1,0,0.1,0,0,0.1
				c0.2,0,0-0.1,0.1-0.1c0.1,0,0.2,0.1,0.1,0.1c0.4-0.1,1.2-0.2,1.6-0.1l-0.1,0c0.3,0,0.4-0.2,0.7-0.1l-0.1,0c0.7,0,1.5-0.1,2.1,0
				c0.1-0.2,0.7,0,0.8-0.2c0.4,0.1,0.3,0.1,0.9,0.2c0.2,0,0.2-0.2,0.4-0.2l0,0.1l0.3-0.1l0.2,0.1l0.2,0c-0.1,0-0.2,0-0.1-0.1
				c0.3-0.1,0.7,0,0.7,0.1l0.7-0.1c0,0-0.1,0.1-0.2,0.1c0.4-0.1,0.1,0.1,0.4,0c0,0,0-0.1,0-0.1c0.2,0.1,0.5,0,0.8,0l0,0.1
				c0.5,0,1.1-0.1,1.6-0.2c-0.2,0-0.2-0.2,0-0.2l0.1,0.1c0.1-0.1-0.2,0,0-0.1c0.2,0,0.2,0.1,0,0.2l0.3-0.1c0,0,0,0.1,0,0.1
				c0.1-0.1,0.5,0.1,0.6-0.1l0,0c0.6-0.1,0.8-0.1,1.3-0.2c0-0.1,0.2-0.1,0.3-0.2c0.3,0,0.7,0,1.1-0.1c0.3-0.1,0.1-0.1,0.2-0.2
				c0,0.1,0.4,0,0.2,0.1c0.5-0.1,0.6-0.1,1.2-0.3c-0.1,0-0.1,0-0.1-0.1c0.1,0,0.3,0,0.2,0l0,0c0.7-0.3,1.6,0,2.1-0.3l0,0l0.5-0.2
				c0.3,0-0.1,0.1,0.1,0.1c0.6-0.2,1-0.2,1.4-0.4c0.4,0.2,1.4-0.3,1.9-0.2l0-0.1c0.1-0.1,0.2,0,0.3,0c0,0-0.2,0-0.1-0.1
				c1.1-0.3,2.4-0.4,3.5-0.7c0.4-0.1,0.2-0.4,0.7-0.4l-0.1,0.2c0.8-0.4,1.7-0.5,2.5-0.8c0,0,0,0.1-0.1,0.1c0.2,0,0.7-0.2,0.6-0.2
				c0.1,0,0,0.1,0.1,0.1c0.2,0,0.4-0.2,0.5-0.2c0,0,0,0-0.1,0.1c0.1-0.1,0.5-0.1,0.4-0.2c0.3,0,0.6-0.2,0.8-0.2
				c0.1-0.2,0.5-0.1,0.6-0.3c0,0.2,0.6,0,0.8-0.2c-0.1,0.1,0.2,0,0.1,0.1c0.2-0.1,0.4-0.2,0.4-0.2c0.5,0,0.8-0.4,1.1-0.3
				c0.6-0.3,1.2-0.6,1.8-0.8c0,0.2-0.6,0.2-0.6,0.4c0.5-0.3,0.8-0.5,1.4-0.7c0.1,0-0.1,0.1-0.1,0.1c0.5-0.3,1.1-0.4,1.5-0.6
				c0,0,0,0-0.1,0.1c0.1,0,0.2-0.1,0.2-0.1l-0.1,0.1c-0.2,0,0.3-0.4,0.3-0.4c-0.1,0.3,0.5-0.1,0.3,0.2c0.1,0,0.1-0.1,0.1-0.1
				c0.1,0,0.1,0,0.1,0.1c0.3-0.2,0.2-0.2,0.5-0.3c0,0,0,0.1-0.1,0.1c0.1-0.1,0.3-0.2,0.5-0.3c0,0,0,0,0,0.1c0.4-0.2,0.7-0.5,1.2-0.6
				c-0.1,0.2,0.2,0,0.3,0.1l0.3-0.1l-0.1,0c0.2-0.1,0.4-0.3,0.6-0.3l-0.2,0.1l0.4-0.2l-0.3,0.1c0.2-0.2-0.1-0.1,0.2-0.2
				c-0.1,0,0.2-0.1,0.4-0.1l0,0c0.1-0.1,0.2-0.2,0.4-0.2c0.1,0,0,0.2,0.1,0.2c0.1-0.2,0.5-0.3,0.6-0.4c0,0,0,0.1,0,0.1l0.1-0.1
				c0.1,0,0.1,0,0.1,0c0.3-0.1-0.2-0.1,0.2-0.2c0,0,0,0-0.1,0.1c0.4-0.1,0.7-0.4,1.1-0.5c0.2,0.1-0.3,0.2-0.1,0.2
				c0.5-0.2,1-0.6,1.5-0.8l-0.1,0c0-0.2,0.4-0.1,0.6-0.3c-0.1,0,0,0.1,0,0.1c0.3-0.1,0.7-0.4,1.1-0.7l0,0.1c0.2-0.1,0.5-0.2,0.7-0.3
				c0-0.1,0.2-0.1,0.1-0.2c0.8-0.1,1.1-0.8,1.8-0.9c-0.1,0-0.1,0.1-0.1,0.1c0.1-0.1,0.3-0.2,0.4-0.3c-0.1,0-0.1,0-0.2,0
				c0-0.1,0.1-0.2,0.3-0.3c-0.2,0.2,0.1,0.1,0.2,0.1c0,0,0-0.1,0-0.1c0.3,0,0-0.2,0.3-0.3l0,0c0.1-0.1,0.2-0.2,0.3-0.3
				c0.1,0-0.1,0.1-0.1,0.2c0.2-0.1,0.3-0.4,0.5-0.4c-0.1,0.1-0.2,0.2-0.2,0.2c0.2,0,0.2-0.1,0.4-0.2l0,0l0.3-0.2l-0.1,0
				c0.1-0.4,0.4-0.4,0.6-0.7c-0.2,0.4,0,0.1,0.1,0.2c0.1,0,0.2-0.1,0.2-0.1c0.1-0.2,0.3-0.1,0.4-0.4c0,0,0.1-0.1,0.2,0
				c0.2-0.2-0.1,0-0.1-0.1c0.2-0.3,0.7-0.5,0.9-1c0.3-0.4,0.2-0.5,0.4-0.9c0.1-0.1,0,0.2,0,0.2c0.2-0.1,0.3-0.3,0.4-0.5
				c0,0.1,0,0,0.1,0c0.1-0.1,0-0.2,0.1-0.3c0,0.1,0,0.1,0,0.2c0.1-0.2,0.1-0.4,0.2-0.6c0.1,0,0,0.2,0,0.2c0.1-0.2,0.2-0.6,0.2-0.7
				l-0.1,0.1c0-0.1,0.1,0,0.1,0.1c0,0.2-0.2,0.2-0.2,0.2l0-0.1c-0.2,0-0.3,0.5-0.4,0.8c0-0.1,0-0.1-0.1-0.2c0,0.1,0,0.2-0.1,0.3
				c-0.1,0-0.2,0-0.1-0.1c-0.2,0.1-0.1,0.2-0.2,0.3c0,0,0,0,0,0c0,0.1-0.1,0.1-0.1,0.2c0-0.1-0.1,0,0-0.1c-0.3,0.2-0.3,0.5-0.5,0.6
				l0,0c-0.3,0.4,0.1,0.1-0.1,0.5c-0.1,0-0.3,0-0.4,0l0,0.1c0,0-0.1,0.1-0.1,0.1c-0.1,0.2,0.1,0,0,0.1c-0.2,0.1-0.5,0.5-0.6,0.4
				c0,0.1,0.2-0.1,0.1,0.1c-0.2-0.1-0.2,0.2-0.4,0.3c0-0.1,0.2-0.2,0-0.1c0,0.2-0.4,0.3-0.5,0.4c0.1,0.1-0.3,0.3-0.5,0.5
				c0,0-0.5,0.3-0.8,0.4l0,0c0,0.1-0.3,0.3-0.4,0.4c0-0.1,0-0.1,0.1-0.2l-0.2,0.1c0,0.1-0.1,0.1-0.2,0.2l0-0.1
				c-0.2,0.1-0.4,0.4-0.8,0.5c0,0.1,0.4,0.1,0.1,0.3c0,0-0.1-0.1,0-0.2c0,0-0.1,0.1-0.2,0.1l0.1-0.1c-0.2,0.1,0,0.1-0.2,0.2
				c0-0.1-0.1,0-0.1-0.1c0,0,0.1,0,0.1-0.1c-0.1,0.1-0.3,0.1-0.4,0.1c0,0,0,0.1,0,0.1c-0.2,0.1-0.1,0-0.3,0c0,0.1-0.2,0.1-0.2,0.2
				c-0.1,0-0.1,0-0.2,0c-0.1,0.1-0.6,0.3-0.4,0.4l0,0c0,0,0,0,0,0l0,0l0,0c-0.4,0.3-0.9,0.4-1.3,0.6l0,0c-0.2,0.2-0.6,0.3-0.7,0.4
				c-0.1,0-0.2,0-0.2,0c-0.2,0.1-0.2,0.2-0.5,0.2c0.2-0.1-0.1,0,0.2-0.1c-0.3,0.1-0.4,0.1-0.6,0.3c0.1-0.1-0.2,0-0.4,0.1l0.2,0
				c-0.1,0.1-0.3,0.1-0.4,0.2l0-0.1c-0.6,0.1-0.9,0.6-1.4,0.6c-0.1,0.1,0.3-0.1,0.2,0.1c-0.3,0.1-0.6,0-0.7,0.1
				c-0.4,0.1-0.3,0.3-0.6,0.4c0.1,0,0.1,0.1-0.1,0.3c-0.3,0.1-0.4,0-0.2-0.1c0.1,0,0.1,0,0.1,0c0.1,0,0.2-0.1,0.1-0.1l0,0.1
				c-0.1,0-0.5,0.1-0.4,0c-0.2,0.1-0.1,0.1,0.1,0.1c-0.3,0.1-0.5,0.2-0.8,0.3c0.1,0,0.1,0,0.1,0c-0.5,0.1-0.2,0.2-0.5,0.3
				c-0.2,0,0-0.2-0.3,0c-0.2,0-0.1-0.1,0-0.2c-0.3,0.2-0.6,0.2-0.8,0.2l0.1-0.1c-0.1,0.1-0.2,0.1-0.2,0.1l0.1,0
				c-0.1,0-0.2,0.1-0.2,0c-0.1,0.1,0.1,0.1,0,0.2c-0.1,0-0.4,0.2-0.4,0.1c0.4-0.1-0.1-0.1,0.2-0.2c-0.1,0-0.1,0.1-0.2,0.1
				c0,0,0,0,0,0c-0.4,0-0.1,0.2-0.5,0.3c0-0.1-0.1-0.1-0.2,0c0.2-0.1,0.1,0.1,0,0.2c-0.3,0-0.3,0.1-0.4,0.2l0.2,0
				c0,0.1-0.2,0.1-0.3,0.2c0,0,0.1-0.1,0.1-0.1c-0.2,0.2-0.5,0.1-0.7,0.2c-0.1,0-0.1-0.1-0.2-0.1c-0.3,0.2-0.4,0-0.6,0.2
				c0.1,0,0.1,0-0.1,0.2l0.5-0.2l-0.3,0.2c0.2-0.1,0.3-0.2,0.4-0.2c-0.1,0.1-0.1,0.1,0,0.1c-0.3,0-0.4,0.2-0.7,0.2l-0.1-0.2
				c-0.4,0-0.6,0.3-1.1,0.4l0.2,0c0,0.1-0.3,0.1-0.4,0.2c0-0.1-0.1-0.1-0.2-0.1c0,0-0.4,0.1-0.4,0.3l-0.2,0
				c-0.4,0.1-0.4,0.3-0.8,0.4c0.1-0.1-0.1-0.1,0.1-0.2c-0.1,0-0.2,0.1-0.2,0.1c-0.1,0-0.3,0.2-0.5,0.2c0,0,0,0.1-0.2,0.2
				c0,0,0,0,0,0c0,0-0.2,0.1-0.1,0.2c-0.5-0.1-1.1,0.3-1.5,0.3c-0.3,0.1-0.6,0.2-0.9,0.3c0,0,0,0,0,0c-0.4,0-0.2,0.3-0.6,0.3
				c-0.2-0.1,0.2-0.1,0.1-0.1c-0.1-0.2-0.5,0.2-0.8,0.1l0.1,0c-0.2,0-0.5,0.2-0.8,0.3c0,0,0,0,0,0c-0.2,0.2-0.6,0.3-0.9,0.5
				c0.1-0.1,0.1-0.1,0.1-0.2c-0.1,0.1,0.1,0.1-0.2,0.2c-0.1,0-0.3,0-0.4-0.1l0.3-0.1c-0.2-0.1-0.4,0.1-0.5,0.1l0-0.1
				c-0.4,0.1-0.4,0.3-0.8,0.4l0.1,0c-0.2,0.2-0.2,0-0.5,0.1l-0.1-0.1c-0.2,0.1-0.5,0.3-0.8,0.4c0.1-0.1,0.5-0.3,0.7-0.4
				c-0.2,0-0.6,0.1-0.6,0.2c0.1,0,0.1-0.1,0.2-0.1c-0.2,0.2-0.4,0.3-0.8,0.3c0-0.3-0.9,0.1-1.1,0c-0.6,0.2-1.2,0.2-1.8,0.3
				c0.3,0.2-0.2,0-0.1,0.3c-0.2,0-0.2,0.1-0.2,0l-0.5,0c-0.1,0,0.1-0.1,0.1-0.1c-0.3,0.1-0.2-0.1-0.4-0.1c0.1,0.1-0.1,0.1-0.3,0.1
				l0.3,0c-0.5,0.2-0.4-0.1-0.9,0.1l0.1-0.1c-0.2,0.1-0.9,0.2-1.1,0.4c0,0-0.1-0.1,0-0.1c-0.6,0.1-1.3,0.4-1.8,0.4l0-0.1
				c-0.1,0-0.2,0.1-0.3,0.1c0,0,0-0.1,0-0.1c-0.1,0-0.3,0.1-0.4,0.1l0.1-0.1c-0.6,0-0.9,0.3-1.4,0.4c0-0.2-0.5-0.1-0.7-0.1l0,0
				c-0.7,0.1-1.1,0.3-1.8,0.4c-0.4-0.1-1.3,0.1-2,0c0.1,0,0,0.1-0.1,0.2c-0.2,0-0.4,0.2-0.4,0l0.1,0c-0.1-0.1-0.4-0.1-0.7-0.1l0,0.2
				c-0.6-0.2-1.6,0.2-2,0c-0.1,0.1-0.3,0.1-0.5,0.1l0-0.1c-0.4,0-0.6,0-1.1,0.1l0.1-0.1c-0.3,0-0.4,0.3-0.6,0.3l-0.1-0.1
				c-0.5,0-1-0.1-1.5,0.1c0,0,0-0.1,0.1-0.1c-0.2,0-0.9-0.1-0.8,0.1c0-0.1-0.5,0-0.8,0.1l0-0.1c-0.2,0.1-0.2,0.2-0.6,0.2
				c-0.1,0-0.1-0.1,0-0.1c-0.3,0-0.2,0.1-0.5,0l0.1-0.1c-0.3,0-0.2,0-0.4,0.1c-0.2,0-0.5,0-0.5-0.1c0,0.1-0.2,0.1-0.3,0.1
				c0,0,0-0.1,0.1-0.1c-0.4-0.1-0.7,0.1-1,0c0,0,0-0.1-0.1-0.1c0.3,0,0.6,0,0.6,0c0-0.1-0.3-0.1-0.1-0.2c-0.2,0.1-0.6,0.2-0.9,0.2
				c0,0,0,0,0,0l0,0c-0.1,0-0.1,0-0.2,0c-0.1,0-0.1,0-0.2,0c0-0.1-0.3,0-0.5-0.1c0,0.1-0.2,0.1,0,0.2c0,0,0,0,0.1,0c0,0,0,0,0.1,0
				l0,0c0.1,0,0.2,0,0.3,0c-0.1,0-0.2,0.1-0.4,0c-0.1,0.1-0.2,0.1-0.2,0.2c-0.2-0.1-0.6-0.2-0.6-0.3c-0.4,0-1,0-1.3,0.2
				c-0.1,0-0.1-0.1-0.2-0.1c0.1,0,0.2,0,0.2,0c-0.2,0-0.7,0-0.8,0.1c-0.3-0.1,0.2-0.1-0.2-0.1l0.1,0c-0.8-0.3-1.4,0.3-2.3,0
				c0.1,0,0.1,0,0.1,0.1c-1-0.2-2.2-0.1-3.2-0.3c-0.3-0.1-0.3,0-0.5,0.1l-0.1-0.1l-0.3,0.1c-0.4,0-0.7-0.4-1.3-0.2l0.1,0.1
				c-0.2,0-0.6,0-0.6-0.1c0,0-0.1,0.1-0.1,0l0-0.1l-0.5,0c-0.4-0.1,0.1-0.2-0.5-0.3c-0.2,0-0.6,0.1-0.5,0.1c0.1,0,0.2,0.1,0.2,0.1
				l-0.2,0c-0.1,0.2-0.2,0.3,0.2,0.5l0.3-0.1l0.1,0.1l-0.3,0c0.1,0.1,0.2,0,0.4,0c0,0,0.1,0.1,0.1,0.1l0.3-0.1
				c0,0.1-0.2,0.1,0.1,0.2c0.2-0.1-0.1-0.2,0.1-0.2c0.1,0.1,0.1,0.2,0.3,0.1c0,0,0,0.1-0.1,0.1c0.2,0,0.4,0,0.5-0.1
				c0.1,0.1,0.5,0,0.5,0.2c0.1,0,0.3-0.1,0.4-0.1c-0.3,0.2,0.5,0.1,0.5,0.3c0.2-0.2,0.7,0,1.1-0.1c0,0-0.1,0-0.1,0
				c0.2,0,0.3,0.1,0.4,0.1c0-0.1,0.3-0.1,0.5-0.2c0.2,0.2-0.2,0.2-0.1,0.3c0-0.1,0.4-0.1,0.4-0.2c0.2,0.1,0.2,0.1,0.2,0.2
				c0-0.2,0.2,0,0.3-0.1c0.3,0.1,0.1,0.2,0.4,0.1C746.8,431,746.6,431.1,746.6,431.1z M753.6,431L753.6,431c-0.1,0-0.1,0-0.1,0
				C753.5,431,753.6,431,753.6,431z M754.2,431c-0.1,0-0.2,0-0.3,0c0,0,0-0.1,0.1-0.1C754,431,754.1,431,754.2,431z M753,430.3
				c0.1,0,0.1,0,0.1,0C753.1,430.3,753,430.3,753,430.3C753,430.4,753,430.4,753,430.3C753,430.3,753,430.3,753,430.3z"/>
			<path fill="#464547" d="M752.8,430.4C752.8,430.4,752.8,430.4,752.8,430.4C752.8,430.5,752.8,430.5,752.8,430.4L752.8,430.4
				C752.8,430.4,752.8,430.4,752.8,430.4z"/>
			<path fill="#464547" d="M804.7,419.1L804.7,419.1C804.7,419.1,804.7,419.1,804.7,419.1C804.7,419.1,804.7,419.1,804.7,419.1z"/>
			<polygon fill="#464547" points="762.4,430.9 762.4,430.9 762.4,430.9 			"/>
			<path fill="#464547" d="M807.7,417.8C807.7,417.8,807.7,417.8,807.7,417.8C807.7,417.7,807.7,417.8,807.7,417.8z"/>
			<path fill="#464547" d="M808.9,417l0.2-0.1C809,416.9,808.9,417,808.9,417z"/>
			<path fill="#464547" d="M809.8,416.4C809.8,416.3,809.8,416.3,809.8,416.4L809.8,416.4L809.8,416.4z"/>
			<path fill="#464547" d="M794.3,424C794.3,424,794.3,424,794.3,424C794.2,424.1,794.3,424,794.3,424z"/>
			<path fill="#464547" d="M799,421.9c0,0-0.1,0.1-0.1,0.1C799,422,799,422,799,421.9z"/>
			<polygon fill="#464547" points="788.9,426 788.9,426 788.9,426 			"/>
			<path fill="#464547" d="M798.7,422.1c0.1,0,0.2,0,0.2-0.1C798.8,422.1,798.7,422.1,798.7,422.1z"/>
			<path fill="#464547" d="M812.9,412.7L812.9,412.7C812.9,412.7,812.9,412.7,812.9,412.7L812.9,412.7z"/>
			<path fill="#464547" d="M812.9,412.7L812.9,412.7C812.9,412.6,812.9,412.7,812.9,412.7z"/>
			<path fill="#464547" d="M813,412.5c0,0,0,0.1,0,0.1C813,412.6,813,412.5,813,412.5z"/>
			<path fill="#464547" d="M812.1,414L812.1,414C812.1,414,812.1,414,812.1,414z"/>
			<path fill="#464547" d="M811.8,414.3c0.1-0.1,0.2-0.2,0.3-0.3l0,0C812.1,414.1,811.9,414.2,811.8,414.3z"/>
			<path fill="#464547" d="M810.3,415.4c0.1-0.1,0.2-0.1,0.3-0.2c-0.1,0-0.2,0-0.1-0.1C810.1,415.3,810.6,415,810.3,415.4z"/>
			<path fill="#464547" d="M809.4,416C809.5,415.9,809.3,416,809.4,416C809.3,416.1,809.2,416.1,809.4,416z"/>
			<path fill="#464547" d="M802.4,420.1L802.4,420.1C802.2,420.1,802.4,420,802.4,420.1z"/>
			<polygon fill="#464547" points="801.1,421.2 801.3,421.2 801.3,421.1 			"/>
			<polygon fill="#464547" points="800,420.9 800.1,420.9 799.9,421 			"/>
			<path fill="#464547" d="M787.1,425.6L787.1,425.6C787.3,425.6,787.3,425.5,787.1,425.6z"/>
			<path fill="#464547" d="M781.5,427.2c-0.1,0-0.2,0-0.3,0C781.3,427.3,781.4,427.3,781.5,427.2z"/>
			<polygon fill="#464547" points="763.9,429.9 764.1,429.9 763.8,429.9 			"/>
		</g>
		<g>
			<path fill="#464547" d="M785.6,434.9C785.6,434.8,785.6,434.8,785.6,434.9L785.6,434.9L785.6,434.9z"/>
			<path fill="#464547" d="M785.3,434.7c0,0.1,0,0.2,0,0.3C785.3,434.9,785.4,434.9,785.3,434.7c0.1,0,0.1,0.1,0.1,0.1
				c0,0,0.1,0,0.1-0.1C785.4,434.7,785.4,434.7,785.3,434.7C785.3,434.8,785.3,434.8,785.3,434.7z"/>
			<path fill="#464547" d="M781.7,435.6L781.7,435.6C781.7,435.6,781.7,435.6,781.7,435.6z"/>
			<path fill="#464547" d="M779.4,436.1C779.4,436.1,779.4,436.1,779.4,436.1C779.4,436.1,779.4,436.1,779.4,436.1z"/>
			<path fill="#464547" d="M779,436.1C779,436.1,779,436.1,779,436.1C779,436.1,779,436.1,779,436.1z"/>
			<path fill="#464547" d="M781.7,435.6L781.7,435.6C781.6,435.6,781.6,435.6,781.7,435.6z"/>
			<path fill="#464547" d="M784.9,435.2C784.9,435.2,784.9,435.1,784.9,435.2C784.9,435.1,784.9,435.1,784.9,435.2L784.9,435.2z"/>
			<path fill="#464547" d="M782.6,435.3L782.6,435.3C782.7,435.2,782.7,435.2,782.6,435.3L782.6,435.3z"/>
			<path fill="#464547" d="M783.4,435c0,0,0,0.1,0,0.1C783.4,435.1,783.4,435.1,783.4,435C783.4,435.1,783.4,435,783.4,435z"/>
			<path fill="#464547" d="M784.6,434.8L784.6,434.8C784.6,434.8,784.6,434.8,784.6,434.8z"/>
			<path fill="#464547" d="M782.1,435.4C782.1,435.4,782.1,435.4,782.1,435.4C782.1,435.4,782.1,435.4,782.1,435.4z"/>
			<path fill="#464547" d="M760.3,438.5C760.3,438.5,760.3,438.4,760.3,438.5C760.3,438.5,760.3,438.5,760.3,438.5z"/>
			<polygon fill="#464547" points="759.4,437.9 759.5,437.9 759.5,437.8 			"/>
			<path fill="#464547" d="M778.3,436.1C778.3,436.1,778.3,436.1,778.3,436.1C778.3,436.1,778.3,436.1,778.3,436.1z"/>
			<path fill="#464547" d="M771.7,437.2c0.1,0.1-0.1,0.1,0,0.2C771.7,437.4,771.8,437.3,771.7,437.2z"/>
			<path fill="#464547" d="M784.9,435.2C784.9,435.2,784.9,435.2,784.9,435.2C784.9,435.2,784.9,435.2,784.9,435.2z"/>
			<path fill="#464547" d="M771.7,437.4L771.7,437.4L771.7,437.4C771.7,437.4,771.7,437.4,771.7,437.4z"/>
			<path fill="#464547" d="M776.6,436.5C776.6,436.5,776.6,436.5,776.6,436.5C776.7,436.5,776.6,436.5,776.6,436.5z"/>
			<path fill="#464547" d="M777.9,436.4L777.9,436.4C777.9,436.4,777.9,436.4,777.9,436.4z"/>
			<path fill="#464547" d="M776,436.7C776,436.7,776,436.7,776,436.7C776,436.7,776,436.7,776,436.7C776,436.7,776,436.7,776,436.7z
				"/>
			<path fill="#464547" d="M775.4,436.9C775.4,436.9,775.4,436.9,775.4,436.9L775.4,436.9L775.4,436.9z"/>
			<path fill="#464547" d="M762.4,438.5C762.4,438.5,762.4,438.4,762.4,438.5C762.4,438.5,762.3,438.5,762.4,438.5z"/>
			<path fill="#464547" d="M784.9,435.1C784.9,435.1,784.9,435.2,784.9,435.1L784.9,435.1C784.9,435.1,784.9,435.1,784.9,435.1z"/>
			<path fill="#464547" d="M776.1,437.5l-0.1,0C776.1,437.5,776.1,437.5,776.1,437.5z"/>
			<path fill="#464547" d="M767.3,438.4L767.3,438.4C767.2,438.4,767.3,438.4,767.3,438.4z"/>
			<path fill="#464547" d="M775.7,437.6C775.7,437.6,775.7,437.6,775.7,437.6C775.6,437.6,775.6,437.6,775.7,437.6L775.7,437.6z"/>
			<path fill="#464547" d="M762.4,438.4L762.4,438.4L762.4,438.4z"/>
			<path fill="#464547" d="M761.6,438.6c0.1,0,0.1-0.1,0.1-0.2c0.1,0,0.1,0.1,0.1,0.2c0.1,0,0.1-0.2,0.2-0.1c0,0,0,0,0,0.1
				c0.1-0.1,0.2,0,0.3-0.1c0,0,0,0,0,0c0-0.1,0-0.1,0-0.2c0,0,0.1-0.1,0.1,0c0,0,0,0,0,0.1l0,0c0,0.1-0.1,0-0.1,0.1
				c0.1,0,0.2-0.1,0.3-0.1c0,0.1-0.2,0-0.1,0.1l-0.1-0.1c0.1,0.2-0.1,0,0,0.2c0.1,0,0.2-0.1,0.3,0c0-0.1,0-0.1,0-0.2
				c0.2-0.1,0.2,0.3,0.3,0.1c0-0.1,0.1-0.2,0.2-0.2l0,0.1c0.1,0,0.1-0.2,0.2-0.1c0,0.1-0.1,0-0.1,0.1c0.1,0.1,0.1-0.1,0.1-0.1l0,0.1
				c0.2,0,0.3-0.1,0.5-0.1c0,0,0,0.1,0,0.1c0.2-0.1,0.5,0,0.7,0.1l0.1-0.1c0,0,0,0,0,0.1c0.1,0,0-0.1,0-0.1c0,0,0.1,0.1,0,0.1
				c0.1-0.1,0.4-0.2,0.5-0.1l0,0c0.1,0,0.1-0.2,0.2-0.1l0,0c0.3,0,0.5-0.1,0.7,0.1c0-0.2,0.2,0.1,0.3-0.2c0.1,0.1,0.1,0.1,0.3,0.2
				c0.1,0,0.1-0.1,0.1-0.2l0,0.1l0.1-0.1l0.1,0.1l0.1,0c0,0-0.1,0-0.1-0.1c0.1-0.1,0.2,0.1,0.2,0.1l0.2-0.1c0,0,0,0.1-0.1,0.1
				c0.1-0.1,0,0.1,0.1,0c0,0,0-0.1,0-0.1c0.1,0.1,0.2,0.1,0.3,0l0,0.1c0.2,0,0.4-0.1,0.5-0.1c-0.1,0-0.1-0.2,0-0.2l0,0.1
				c0-0.1-0.1,0,0-0.1c0.1,0,0.1,0.1,0,0.2l0.1,0c0,0,0,0.1,0,0.1c0-0.1,0.2,0.1,0.2,0l0,0c0.2,0,0.3-0.1,0.4-0.1
				c0-0.1,0.1-0.1,0.1-0.2c0.1,0,0.2,0.1,0.4,0.1c0.1-0.1,0-0.1,0.1-0.2c0,0.1,0.2,0.1,0.1,0.1c0.2,0,0.2,0,0.4-0.1c0,0-0.1,0,0-0.1
				c0,0,0.1,0,0.1,0.1l0,0c0.2-0.2,0.6,0.2,0.7,0l0,0l0.2-0.1c0.1,0,0,0.1,0,0.1c0.2-0.2,0.3,0,0.5-0.1c0.2,0.3,0.5-0.1,0.7,0.1
				l0-0.1c0-0.1,0.1,0,0.1,0c0,0-0.1-0.1,0-0.1c0.4-0.1,0.8,0,1.2,0c0.1,0,0-0.3,0.2-0.2l0,0.1c0.3-0.2,0.6-0.1,0.9-0.2
				c0,0,0,0.1,0,0.1c0.1,0.1,0.2,0,0.2-0.1c0,0,0,0.1,0.1,0.1c0.1,0,0.1-0.1,0.2-0.1c0,0,0,0,0,0c0,0,0.2,0,0.1-0.1
				c0.1,0,0.2-0.1,0.3,0c0-0.1,0.2,0,0.2-0.1c0,0.2,0.2,0.1,0.3,0c0,0.1,0.1,0,0.1,0.1c0.1,0,0.1-0.1,0.1-0.1c0.2,0.2,0.3-0.2,0.4,0
				c0.2-0.1,0.4-0.2,0.6-0.3c0,0.2-0.2,0.1-0.2,0.2c0.2-0.1,0.3-0.3,0.5-0.3c0.1,0,0,0.1,0,0.1c0.2-0.1,0.4-0.1,0.5-0.2
				c0,0,0,0,0,0.1c0,0,0.1,0,0.1-0.1l0,0c-0.1-0.1,0.1-0.2,0.1-0.3c0,0.2,0.2,0,0.1,0.3c0,0,0-0.1,0-0.1c0,0,0.1,0,0,0.1
				c0.1-0.1,0.1-0.1,0.2-0.2c0,0,0,0.1,0,0.1c0-0.1,0.1-0.2,0.2-0.2c0,0,0,0,0,0.1c0.2,0,0.2-0.2,0.4-0.2c0,0.2,0.1,0,0.1,0.2
				l0.1-0.1l-0.1-0.1c0.1,0,0.1-0.1,0.2-0.1l0,0.1l0.1-0.1l-0.1,0c0.1-0.1,0-0.2,0.1-0.2c0,0,0.1,0,0.1,0l0,0c0-0.1,0.1-0.1,0.1-0.1
				c0,0,0,0.1,0,0.2c0-0.1,0.2-0.1,0.2-0.2c0,0,0,0.1,0,0.1l0-0.1c0,0,0.1,0,0.1,0.1c0.1,0-0.1-0.2,0.1-0.1c0,0,0,0,0,0
				c0.1,0,0.3-0.1,0.4-0.1c0.1,0.1-0.1,0.1,0,0.2c0.2-0.1,0.3-0.2,0.5-0.3l0,0c0-0.2,0.2,0.1,0.2-0.1c0,0,0,0.1,0,0.1
				c0.1,0,0.2-0.1,0.4-0.2l0,0.1c0.1,0,0.2,0,0.3,0c0-0.1,0.1-0.1,0-0.1c0.3,0.2,0.4-0.3,0.7-0.1c0,0,0,0.1,0,0.1l0.2-0.1
				c0-0.1,0,0-0.1-0.1c0-0.1,0-0.1,0.1-0.1c-0.1,0.1,0,0.1,0.1,0.2c0,0,0-0.1,0-0.1c0.1,0.1,0-0.2,0.1-0.1l0,0c0,0,0.1-0.1,0.1-0.1
				c0,0.1,0,0.1,0,0.1c0.1,0,0.1-0.2,0.2-0.1c0,0-0.1,0-0.1,0.1c0.1,0.1,0.1,0.1,0.2,0.1l0,0l0.1,0l0,0c0-0.3,0.2-0.1,0.2-0.3
				c-0.1,0.2,0,0.1,0,0.2c0,0,0.1,0,0.1,0.1c0-0.1,0.1,0,0.2-0.1c0,0,0.1,0,0.1,0.1c0.1,0,0-0.1,0-0.1c0.1-0.1,0.3,0.1,0.4-0.2
				c0.1-0.1,0.1-0.2,0.2-0.3c0.1,0,0,0.1,0,0.1c0.1,0,0.1,0,0.2-0.1c0,0,0,0.1,0,0.1c0.1,0,0-0.1,0.1-0.1c0,0,0,0.1,0,0.2
				c0.1-0.1,0.1-0.1,0.2-0.2c0,0.1,0,0.1,0,0.1c0.1,0,0.2-0.1,0.2-0.2l-0.1,0c0,0,0,0.1,0,0.1c0,0.1-0.1,0-0.1,0l0,0
				c-0.1-0.2-0.2,0.1-0.3,0.1l0-0.2l-0.1,0.1c0,0-0.1-0.1,0-0.1c-0.1,0,0,0.1-0.1,0c0,0,0,0,0,0l-0.1,0.1c0,0,0-0.1,0-0.1
				c-0.1,0-0.2,0.2-0.2,0.1l0,0c-0.1,0.1,0,0.1-0.1,0.3l-0.2-0.2l0,0.1c0,0-0.1,0-0.1,0c0,0.1,0,0,0,0.1c-0.1-0.1-0.2,0.1-0.3-0.1
				c0,0.1,0.1,0,0,0.1c-0.1-0.2-0.1,0.1-0.2,0c0-0.1,0.1-0.1,0-0.1c0,0.2-0.2,0-0.2,0.1c0,0.1-0.1,0.1-0.2,0.2c0,0-0.2,0-0.3,0l0,0
				c0,0.1-0.1,0.1-0.2,0.2c0-0.1,0-0.1,0-0.2l-0.1,0c0,0,0,0.1-0.1,0.1l0-0.1c-0.1,0-0.2,0.2-0.3,0.1c0,0.1,0.2,0.2,0.1,0.3
				c0,0,0-0.1,0-0.2c0,0,0,0.1-0.1,0l0-0.1c-0.1,0,0,0.1-0.1,0.1c0-0.1,0,0-0.1-0.1c0,0,0,0,0.1,0c-0.1,0-0.1,0-0.2-0.1
				c0,0,0,0.1,0,0.1c-0.1,0-0.1-0.1-0.1-0.1c0,0.1-0.1,0-0.1,0.1c0,0,0,0-0.1-0.1c0,0.1-0.2,0.1-0.1,0.2l0,0l0,0l0,0l0,0
				c-0.1,0.1-0.3,0-0.5,0.1l0,0c-0.1,0.1-0.2,0.1-0.2,0.2c0,0-0.1,0-0.1-0.1c-0.1,0-0.1,0.1-0.2,0.1c0.1-0.1,0,0,0.1-0.1
				c-0.1,0-0.1-0.1-0.2,0.1c0-0.1-0.1-0.1-0.1-0.1l0.1,0c0,0-0.1,0-0.1,0l0-0.1c-0.2-0.1-0.3,0.3-0.5,0.1c0,0.1,0.1,0,0.1,0.1
				c-0.1,0-0.2-0.1-0.3-0.1c-0.1,0-0.1,0.2-0.2,0.2c0,0,0.1,0.1,0,0.2c-0.1,0-0.1-0.1-0.1-0.2c0,0,0,0,0,0c0,0,0.1,0,0-0.1l0,0
				c-0.1,0-0.2,0-0.2-0.1c-0.1,0.1,0,0.1,0,0.1c-0.1,0-0.2,0-0.3,0c0,0,0.1,0.1,0,0.1c-0.2,0-0.1,0.1-0.2,0.1c-0.1,0,0-0.2-0.1-0.1
				c-0.1,0,0-0.1,0-0.1c-0.1,0.1-0.2,0-0.3,0l0,0c0,0-0.1,0-0.1,0l0,0.1c0,0-0.1,0-0.1,0c0,0.1,0.1,0.1,0,0.2c-0.1,0-0.1,0.1-0.2,0
				c0.1,0,0-0.1,0.1-0.2c0,0,0,0-0.1,0c0,0,0,0,0,0c-0.2-0.1,0,0.1-0.2,0.2c0-0.1-0.1-0.1-0.1-0.1c0.1,0,0,0.1,0,0.2
				c-0.1,0-0.1,0.1-0.1,0.1l0.1,0c0,0.1-0.1,0.1-0.1,0.1c0,0,0,0,0-0.1c0,0.1-0.2-0.1-0.3,0c-0.1,0,0-0.1-0.1-0.1
				c-0.1,0.1-0.1-0.1-0.2,0c0,0.1,0.1,0.1,0,0.2l0.2-0.1l-0.1,0.1c0.1,0,0.1-0.1,0.1-0.1c0,0.1,0,0.1,0,0.1c-0.1-0.1-0.1,0.1-0.2,0
				l0-0.2c-0.1-0.1-0.2,0.2-0.4,0.1l0.1,0c0,0.1-0.1,0-0.2,0.1c0-0.1,0-0.1-0.1-0.1c0,0.1-0.1,0-0.1,0.2l-0.1-0.1
				c-0.1,0-0.1,0.2-0.3,0.2c0-0.1,0-0.1,0-0.2c0,0-0.1,0-0.1,0.1c0,0-0.1,0.1-0.2,0.1c0,0,0,0.1-0.1,0.1c0,0,0,0,0,0
				c0,0-0.1,0.1,0,0.1c-0.2-0.2-0.4,0.1-0.5-0.1c-0.1,0-0.2,0.1-0.3,0.1c0,0,0,0,0,0c-0.1,0,0,0.2-0.2,0.2c-0.1-0.1,0.1-0.1,0-0.1
				c-0.1-0.2-0.2,0.1-0.3-0.1l0,0c-0.1-0.1-0.2,0.1-0.3,0.1c0,0,0,0,0,0c-0.1,0.1-0.2,0.2-0.3,0.2c0-0.1,0-0.1,0-0.1
				c0,0,0,0.1-0.1,0.2c0,0-0.1-0.1-0.1-0.2l0.1,0c-0.1-0.1-0.1,0-0.2,0l0-0.1c-0.1,0-0.1,0.2-0.3,0.2l0,0c-0.1,0.2-0.1-0.1-0.2,0
				l0-0.1c-0.1,0-0.2,0.2-0.3,0.2c0-0.1,0.2-0.2,0.2-0.3c-0.1,0-0.2,0-0.2,0.1c0,0,0-0.1,0.1,0c-0.1,0.1-0.1,0.2-0.2,0.2
				c0-0.3-0.3,0-0.4-0.2c-0.2,0.1-0.4,0-0.6,0c0.1,0.2-0.1,0,0,0.2c-0.1,0-0.1,0-0.1,0l-0.2-0.1c0-0.1,0-0.1,0-0.1
				c-0.1,0-0.1-0.1-0.1-0.1c0,0.1,0,0.1-0.1,0.1l0.1,0.1c-0.2,0.1-0.2-0.2-0.3,0l0-0.1c-0.1,0.1-0.3,0-0.4,0.2c0,0,0-0.1,0-0.1
				c-0.2,0-0.4,0.2-0.6,0.1l0-0.1c0,0-0.1,0.1-0.1,0.1c0,0,0-0.1,0-0.1c0,0-0.1,0.1-0.1,0.1l0-0.1c-0.2-0.1-0.3,0.2-0.5,0.2
				c0-0.2-0.2-0.2-0.3-0.2l0,0c-0.2,0-0.4,0.2-0.6,0.2c-0.1-0.2-0.5,0-0.7-0.1c0,0,0,0.1,0,0.1c-0.1,0-0.1,0.1-0.1,0l0,0
				c0-0.1-0.1-0.1-0.2-0.1l0,0.2c-0.2-0.3-0.5,0.1-0.7-0.1c0,0-0.1,0.1-0.2,0.1l0-0.1c-0.1,0-0.2,0-0.4,0l0-0.1
				c-0.1,0-0.1,0.3-0.2,0.3l0-0.2c-0.2,0-0.3-0.1-0.5,0c0,0,0-0.1,0-0.1c-0.1,0-0.3-0.1-0.3,0.1c0-0.1-0.2,0-0.3,0.1l0-0.1
				c-0.1,0.1-0.1,0.2-0.2,0.2c0,0,0-0.1,0-0.1c-0.1-0.1-0.1,0.1-0.2,0l0-0.1c-0.1,0-0.1,0-0.1,0.1c-0.1,0-0.2,0-0.2-0.1
				c0,0.1-0.1,0.1-0.1,0.1c0,0,0-0.1,0-0.1c-0.1-0.1-0.2,0.1-0.3,0c0,0,0-0.1,0-0.1c0.1,0,0.2,0,0.2,0c0-0.1-0.1-0.1,0-0.2
				c-0.1,0.1-0.2,0.2-0.3,0.2c0,0,0,0,0,0l0,0c0,0,0,0-0.1,0c0,0,0,0-0.1,0c0-0.1-0.1,0-0.2,0c0,0.1-0.1,0.1,0,0.2c0,0,0,0,0,0
				c0,0,0,0,0,0l0,0c0,0,0.1,0,0.1,0c0,0.1-0.1,0.1-0.1,0c0,0.1-0.1,0.1-0.1,0.2c-0.1-0.1-0.2-0.2-0.2-0.3c-0.1,0.1-0.3,0-0.4,0.2
				c0,0,0-0.1-0.1-0.1c0,0,0.1,0,0.1,0c-0.1,0-0.2,0-0.3,0.2c-0.1-0.1,0.1-0.1-0.1-0.1l0,0c-0.3-0.2-0.5,0.3-0.8,0c0,0,0,0,0,0
				c-0.4-0.1-0.7,0.1-1.1-0.1c-0.1,0-0.1,0-0.2,0.1l0-0.1l-0.1,0.1c-0.2,0.1-0.2-0.3-0.4-0.1l0,0.1c-0.1,0-0.2,0-0.2-0.1
				c0,0,0,0.1-0.1,0l0-0.1l-0.2,0.1c-0.1,0,0-0.2-0.2-0.2c-0.1,0-0.2,0.2-0.2,0.2c0,0,0.1,0,0.1,0.1l-0.1,0c0,0.2-0.1,0.3,0.1,0.5
				l0.1-0.1l0,0.1l-0.1,0c0,0.1,0.1,0,0.1,0c0,0,0,0.1,0,0.1l0.1-0.2c0,0.1-0.1,0.1,0,0.2c0.1-0.1,0-0.2,0-0.2c0,0.1,0,0.1,0.1,0.1
				c0,0,0,0.1,0,0.1c0.1,0,0.1,0,0.2-0.1c0,0.1,0.2,0,0.2,0.1c0,0,0.1-0.1,0.2-0.1c-0.1,0.2,0.2,0,0.2,0.2c0.1-0.2,0.2-0.1,0.4-0.2
				c0,0,0,0,0,0c0.1,0,0.1,0.1,0.1,0.1c0-0.1,0.1-0.2,0.2-0.3c0.1,0.1-0.1,0.2,0,0.3c0-0.1,0.1-0.1,0.1-0.2c0.1,0.1,0.1,0,0.1,0.2
				c0-0.2,0.1,0,0.1-0.1c0.1,0.1,0,0.2,0.1,0.1C761.7,438.6,761.6,438.6,761.6,438.6z M764.1,438.4L764.1,438.4
				C764,438.4,764,438.4,764.1,438.4C764,438.4,764,438.4,764.1,438.4z M764.3,438.4C764.2,438.4,764.2,438.3,764.3,438.4
				C764.2,438.3,764.2,438.3,764.3,438.4C764.2,438.3,764.2,438.3,764.3,438.4z M763.8,437.6C763.9,437.6,763.9,437.7,763.8,437.6
				C763.9,437.7,763.8,437.7,763.8,437.6L763.8,437.6C763.8,437.7,763.8,437.7,763.8,437.6z"/>
			<path fill="#464547" d="M763.8,437.8C763.8,437.8,763.8,437.8,763.8,437.8C763.8,437.8,763.8,437.8,763.8,437.8L763.8,437.8
				L763.8,437.8z"/>
			<path fill="#464547" d="M781.7,435.6L781.7,435.6C781.7,435.6,781.7,435.6,781.7,435.6C781.7,435.6,781.7,435.6,781.7,435.6z"/>
			<polygon fill="#464547" points="767,438.5 767,438.5 767,438.5 			"/>
			<path fill="#464547" d="M782.9,435.7C782.9,435.7,782.9,435.7,782.9,435.7C782.9,435.7,782.9,435.7,782.9,435.7z"/>
			<path fill="#464547" d="M783.3,435.6L783.3,435.6C783.4,435.6,783.3,435.6,783.3,435.6z"/>
			<path fill="#464547" d="M783.7,435.5C783.7,435.5,783.7,435.5,783.7,435.5L783.7,435.5L783.7,435.5z"/>
			<path fill="#464547" d="M778,437C778,437,778,437,778,437C778,437.1,778,437.1,778,437z"/>
			<path fill="#464547" d="M779.7,436.4C779.7,436.5,779.7,436.5,779.7,436.4C779.7,436.5,779.7,436.5,779.7,436.4z"/>
			<polygon fill="#464547" points="776.1,437.5 776.1,437.5 776.1,437.5 			"/>
			<path fill="#464547" d="M779.6,436.5C779.6,436.5,779.6,436.5,779.6,436.5C779.6,436.5,779.6,436.5,779.6,436.5z"/>
			<path fill="#464547" d="M785.2,435.1L785.2,435.1C785.2,435.1,785.2,435.1,785.2,435.1L785.2,435.1z"/>
			<path fill="#464547" d="M785.2,435.1L785.2,435.1C785.3,435.1,785.2,435.1,785.2,435.1z"/>
			<path fill="#464547" d="M785.3,435L785.3,435C785.3,435,785.3,435,785.3,435z"/>
			<path fill="#464547" d="M784.8,435.2L784.8,435.2C784.8,435.2,784.8,435.2,784.8,435.2z"/>
			<path fill="#464547" d="M784.6,435.2c0,0,0.1,0,0.1,0l0,0C784.8,435.3,784.6,435.2,784.6,435.2z"/>
			<path fill="#464547" d="M783.9,435l0.1,0c0,0-0.1-0.1,0-0.1C783.8,434.8,784.1,435,783.9,435z"/>
			<path fill="#464547" d="M783.5,435C783.6,435,783.5,435,783.5,435C783.5,435,783.5,435,783.5,435z"/>
			<path fill="#464547" d="M780.8,435.8L780.8,435.8C780.8,435.7,780.8,435.7,780.8,435.8z"/>
			<polygon fill="#464547" points="780.4,436.4 780.5,436.4 780.5,436.3 			"/>
			<polygon fill="#464547" points="780,435.8 780,435.8 779.9,435.8 			"/>
			<path fill="#464547" d="M775.5,436.7l0,0.1C775.5,436.8,775.5,436.7,775.5,436.7z"/>
			<path fill="#464547" d="M773.5,437.2c0-0.1-0.1-0.1-0.1,0C773.4,437.1,773.5,437.2,773.5,437.2z"/>
			<polygon fill="#464547" points="767.5,437.5 767.6,437.5 767.5,437.5 			"/>
		</g>
		<path fill="#464547" d="M753.4,470.5l-27,0.4l0-1.7c-0.1-6.2,4.9-11.4,11.1-11.4l15.7-0.2L753.4,470.5z"/>
		<path fill="#464547" d="M822,469.4l-30.6,0.5l0-1.7c-0.1-6.2,4.9-11.4,11.1-11.4l19.3-0.3L822,469.4z"/>
		<path fill="#48484A" d="M800.8,384.4l-68,4.4c-12.6,0.8-23.6-8.8-24.4-21.4v0c-1.5-23.6,16.4-44,40-45.6l28.2-1.8
			c23.6-1.5,44,16.4,45.6,40l0,0C823,372.6,813.4,383.5,800.8,384.4z"/>
		<path fill="#58595B" d="M719.5,271.8l0.3-2c13.1,1.7,19.3,10.1,22.2,16.8c3.1,7.2,3.2,14,3.2,14.2l-2,0c0-0.1-0.1-6.7-3.1-13.5
			C736.1,278.3,729.2,273,719.5,271.8z"/>
		<circle fill="#58595B" cx="719" cy="271.1" r="2.8"/>
		<path fill="#58595B" d="M782.7,300.6c0-0.1,1.7-6.3,6.6-11.9c6.5-7.5,15.3-10.4,26.2-8.8l0.3-2.3c-14.6-2.2-23.5,4-28.3,9.6
			c-5.2,6-7,12.5-7,12.8L782.7,300.6z"/>
		<circle fill="#58595B" cx="817.2" cy="278.5" r="3.2"/>
		<path fill="#6B6C6F" d="M795.7,361.6c16.4,1.4,28.2-16.7,20.8-32c-9.2-19-27.4-32.6-49.2-34.4c-21.8-1.8-41.9,8.6-54.1,25.8
			c-9.9,13.9-1.2,33.6,15.2,35L795.7,361.6z"/>
		<circle fill="#FFFFFF" cx="734.3" cy="313.7" r="12.8"/>
		<circle fill="#282829" cx="733.9" cy="314.5" r="9"/>
		<path fill="#464547" d="M748.5,326.4c0.9,0.1,1.6,0.1,2.4,0.1c0.3,0.2,0.6,0.3,0.9,0.5l0.9,0.4c1.2,0.5,2.5,0.8,3.8,0.9
			c1.3,0.1,2.6,0.1,3.9-0.3c0.6-0.1,1.3-0.4,1.9-0.6c0.4,0.1,0.7,0.1,1.1,0.1c0.4,0,0.8,0.1,1.2,0.1c-0.4,0.7-0.9,1.4-1.5,2
			c-0.7,0.2-1.5,0.5-2.2,0.7c-1.5,0.4-3.1,0.4-4.6,0.3c-1.6-0.1-3.1-0.5-4.5-1.1l-1.1-0.5c-0.3-0.2-0.7-0.3-1-0.5
			C749.2,327.9,748.8,327.2,748.5,326.4z"/>
		<path fill="#464547" d="M765,324c0.3,0.5,0.6,0.9,0.9,1.2c-0.1,0.2-0.1,0.5-0.1,0.7c0,0.5,0.1,1,0.3,1.4c0.2,0.4,0.5,0.8,0.9,1.1
			c0.2,0.2,0.4,0.3,0.7,0.5c0.1,0.4,0.2,0.9,0.2,1.5c-0.5,0.3-1,0.4-1.5,0.6c-0.3-0.2-0.7-0.4-1-0.7c-0.6-0.5-1.2-1.2-1.5-1.9
			c-0.4-0.8-0.5-1.6-0.5-2.5c0-0.2,0-0.4,0-0.6c0-0.2,0.1-0.4,0.1-0.6C764,324.4,764.4,324.1,765,324z"/>
		<path fill="#464547" d="M752.9,317.1c-0.2,0.3-0.4,0.7-0.6,1c-0.2,0.3-0.3,0.7-0.4,1c-0.1,0.3,0,0.7-0.3,0.9
			c-0.1,0.1-0.3,0.2-0.5,0.3c-0.2,0.1-0.5,0.2-0.9,0.3l-0.2-0.1c-0.3-0.3-0.4-0.6-0.5-0.8c-0.1-0.3-0.1-0.5,0-0.8
			c0-0.2,0.2-0.4,0.4-0.6l0.6-0.4c0.2-0.1,0.4-0.3,0.5-0.4c0.2-0.1,0.4-0.2,0.6-0.3c0.4-0.2,0.8-0.3,1.3-0.3L752.9,317.1z"/>
		<path fill="#464547" d="M756.3,317.7c0.4,0,0.8,0.2,1.2,0.3c0.4,0.2,0.7,0.4,1,0.7c0.3,0.3,0.8,0.5,0.8,1c0,0.2,0,0.4-0.1,0.7
			c-0.1,0.2-0.3,0.5-0.6,0.7l-0.2,0.1c-0.4-0.1-0.6-0.2-0.8-0.3c-0.2-0.1-0.4-0.2-0.5-0.3c-0.1-0.1-0.2-0.2-0.2-0.4
			c0-0.2,0-0.3,0-0.5c0-0.1-0.1-0.3-0.1-0.4c0-0.2-0.1-0.3-0.1-0.5c-0.1-0.3-0.2-0.6-0.4-1L756.3,317.7z"/>
		<path fill="#464547" d="M747.1,314.8c0.6-7.1-4.7-13.3-11.7-13.8c-7.1-0.6-13.3,4.7-13.8,11.7L747.1,314.8z"/>
		<circle fill="#FFFFFF" cx="784.9" cy="318.7" r="13.6"/>
		<circle fill="#282829" cx="784.8" cy="320.2" r="9"/>
		<path fill="#464547" d="M798.5,319.8c0.6-7.5-4.9-14-12.4-14.7c-7.5-0.6-14,4.9-14.7,12.4L798.5,319.8z"/>
		<g>
			<circle fill="#464547" cx="802.8" cy="331.6" r="1.4"/>
			<circle fill="#464547" cx="805" cy="335.1" r="1.4"/>
			<circle fill="#464547" cx="801.1" cy="335.8" r="1.4"/>
		</g>
		<g>
			<circle fill="#464547" cx="718.5" cy="324.1" r="1.4"/>
			<circle fill="#464547" cx="720.7" cy="327.7" r="1.4"/>
			<circle fill="#464547" cx="716.7" cy="328.4" r="1.4"/>
		</g>
		<g>
			<path fill="#6B6C6F" d="M747.1,384.5c0,0,0.1,0,0.2,0C747.3,384.4,747.1,384.5,747.1,384.5z"/>
			<polygon fill="#6B6C6F" points="746.7,383.9 746.8,383.9 746.6,383.9 			"/>
			<path fill="#6B6C6F" d="M746.6,383.4c-0.2,0.1,0.1,0.2,0,0.3l-0.1,0l0.2,0C746.7,383.6,746.6,383.5,746.6,383.4z"/>
			<path fill="#6B6C6F" d="M747.1,382.9C747,382.9,747,382.9,747.1,382.9C747.1,383,747.1,383,747.1,382.9
				C747.1,382.9,747.1,382.9,747.1,382.9z"/>
			<path fill="#6B6C6F" d="M747.1,383C747.1,383,747.2,382.9,747.1,383L747.1,383z"/>
			<path fill="#6B6C6F" d="M747,382.7L747,382.7c0.2,0,0.2-0.1,0.2,0C747.2,382.6,747.1,382.6,747,382.7z"/>
			<path fill="#6B6C6F" d="M746.8,382.7L746.8,382.7C746.9,382.7,746.9,382.7,746.8,382.7z"/>
			<path fill="#6B6C6F" d="M747,382.8L747,382.8C746.8,382.7,746.8,382.7,747,382.8C746.8,382.7,746.9,382.7,747,382.8z"/>
			<path fill="#6B6C6F" d="M746.9,382.8c0,0.1-0.1,0.1-0.2,0.1C746.8,383,747,383,746.9,382.8z"/>
			<path fill="#6B6C6F" d="M746.4,383.4L746.4,383.4l0,0.1C746.3,383.5,746.4,383.4,746.4,383.4z"/>
			<path fill="#6B6C6F" d="M747.1,382.2c-0.1,0-0.1,0.1-0.2,0.1l0.1,0C747,382.3,747,382.2,747.1,382.2z"/>
			<path fill="#6B6C6F" d="M746.9,382.3l-0.1-0.1C746.8,382.3,746.8,382.3,746.9,382.3z"/>
			<polygon fill="#6B6C6F" points="746.5,382.7 746.8,382.8 746.5,382.7 			"/>
			<polygon fill="#6B6C6F" points="747,381.8 747.2,381.8 747,381.8 			"/>
			<path fill="#6B6C6F" d="M747,381.6c0.1,0,0.2-0.1,0.2-0.1c0-0.1-0.1-0.1-0.2-0.1C747.1,381.5,747.1,381.5,747,381.6z"/>
			<path fill="#6B6C6F" d="M746.9,381.4c0,0,0.1,0,0.1,0C747,381.4,746.9,381.4,746.9,381.4z"/>
			<path fill="#6B6C6F" d="M746.8,382c0,0,0.1-0.1,0.1-0.1L746.8,382C746.8,382,746.8,382,746.8,382z"/>
			<path fill="#6B6C6F" d="M746.8,382L746.8,382C746.8,382,746.8,381.9,746.8,382C746.8,381.9,746.8,382,746.8,382z"/>
			<path fill="#6B6C6F" d="M746.8,382L746.8,382C746.8,382,746.8,382,746.8,382z"/>
			<path fill="#6B6C6F" d="M746.6,382.5c-0.1,0-0.2-0.1-0.3,0C746.4,382.5,746.5,382.4,746.6,382.5z"/>
			<path fill="#6B6C6F" d="M746.6,382.1l0,0.1c0,0,0.1,0,0.1,0L746.6,382.1z"/>
			<polygon fill="#6B6C6F" points="746.5,382.1 746.6,382.1 746.6,382.1 			"/>
			<path fill="#6B6C6F" d="M746.8,381.6c-0.1,0-0.1-0.1-0.1-0.1c0,0.1,0,0.1,0,0.2C746.7,381.6,746.8,381.6,746.8,381.6z"/>
			<path fill="#6B6C6F" d="M746.8,381.8L746.8,381.8C746.7,381.8,746.7,381.8,746.8,381.8z"/>
			<path fill="#6B6C6F" d="M746.6,381C746.6,381,746.6,381,746.6,381L746.6,381L746.6,381z"/>
			<path fill="#6B6C6F" d="M746.6,381.6C746.6,381.7,746.6,381.7,746.6,381.6C746.7,381.7,746.6,381.7,746.6,381.6
				C746.6,381.6,746.6,381.6,746.6,381.6z"/>
			<path fill="#6B6C6F" d="M746.8,381.3C746.8,381.3,746.7,381.3,746.8,381.3C746.8,381.3,746.8,381.2,746.8,381.3z"/>
			<path fill="#6B6C6F" d="M746.8,381.7L746.8,381.7C746.8,381.7,746.8,381.7,746.8,381.7z"/>
			<path fill="#6B6C6F" d="M746.8,381.7c0,0-0.1,0-0.1,0C746.7,381.7,746.7,381.8,746.8,381.7C746.8,381.8,746.8,381.8,746.8,381.7z
				"/>
			<path fill="#6B6C6F" d="M745.6,381.1c0.1,0,0.3,0,0.1,0.2c0.1,0.1,0.6-0.1,0.8-0.3c-0.1,0-0.1,0-0.2,0c-0.1,0.1-0.2,0.3-0.3,0.2
				c-0.1-0.1,0-0.1,0.1-0.2c-0.2,0.1-0.3-0.1-0.5,0l0.1,0.1C745.7,381.1,745.6,381,745.6,381.1z"/>
			<path fill="#6B6C6F" d="M746.6,381.2L746.6,381.2c0,0,0.1-0.1,0.2-0.2c-0.1,0-0.1,0-0.2,0L746.6,381.2L746.6,381.2z"/>
			<path fill="#6B6C6F" d="M746.6,381.4c-0.2,0-0.2-0.1-0.4,0c0,0.1,0.1,0,0.2,0.1C746.4,381.3,746.5,381.5,746.6,381.4
				C746.6,381.4,746.7,381.4,746.6,381.4C746.7,381.4,746.7,381.4,746.6,381.4L746.6,381.4L746.6,381.4L746.6,381.4
				C746.7,381.4,746.7,381.4,746.6,381.4C746.7,381.4,746.7,381.4,746.6,381.4C746.7,381.4,746.6,381.4,746.6,381.4
				C746.7,381.3,746.7,381.3,746.6,381.4L746.6,381.4L746.6,381.4l0-0.2C746.6,381.2,746.6,381.3,746.6,381.4z"/>
			<path fill="#6B6C6F" d="M746,382.5C746,382.5,746,382.5,746,382.5C746,382.5,746,382.5,746,382.5z"/>
			<path fill="#6B6C6F" d="M746.1,382.4C746.1,382.4,746.2,382.4,746.1,382.4C746.1,382.5,746.1,382.5,746.1,382.4
				c0,0.1,0.1,0.1,0.1,0l0,0c0-0.1,0.2-0.2,0.2-0.2C746.3,382.3,746.2,382.3,746.1,382.4z"/>
			<path fill="#6B6C6F" d="M746.3,381.9l-0.1-0.1l-0.1,0.1l0.1,0C746.2,381.9,746.2,381.9,746.3,381.9z"/>
			<polygon fill="#6B6C6F" points="746.7,380.9 746.8,380.9 746.6,380.9 			"/>
			<polygon fill="#6B6C6F" points="746.6,380.7 746.8,380.7 746.7,380.7 			"/>
			<path fill="#6B6C6F" d="M743.6,369.9L743.6,369.9C743.6,369.8,743.6,369.8,743.6,369.9z"/>
			<path fill="#6B6C6F" d="M743.6,370.2L743.6,370.2C743.7,370.2,743.6,370.2,743.6,370.2z"/>
			<path fill="#6B6C6F" d="M746,375.9c0.1-0.1,0.3-0.2,0.2-0.2l-0.2,0.1C746,375.8,746,375.9,746,375.9z"/>
			<path fill="#6B6C6F" d="M744.7,372.7C744.7,372.7,744.7,372.8,744.7,372.7c0,0,0.1,0,0.1,0C744.8,372.8,744.7,372.7,744.7,372.7z
				"/>
			<path fill="#6B6C6F" d="M744.1,372.8l0.1-0.1C744.1,372.7,744.1,372.8,744.1,372.8z"/>
			<path fill="#6B6C6F" d="M743.3,368.1l-0.2,0C743.2,368.1,743.2,368.1,743.3,368.1z"/>
			<path fill="#6B6C6F" d="M746.3,378.7c0.1-0.1,0.1-0.1,0.1-0.2C746.3,378.7,746.2,378.7,746.3,378.7z"/>
			<path fill="#6B6C6F" d="M745.3,369.7C745.3,369.7,745.2,369.7,745.3,369.7C745.2,369.7,745.2,369.7,745.3,369.7z"/>
			<path fill="#6B6C6F" d="M746.4,378.4C746.3,378.4,746.3,378.4,746.4,378.4c0,0.1,0,0.1,0,0.2
				C746.4,378.5,746.5,378.4,746.4,378.4z"/>
			<path fill="#6B6C6F" d="M743,361.5C743,361.5,743.1,361.5,743,361.5C743,361.5,743,361.5,743,361.5z"/>
			<path fill="#6B6C6F" d="M744.5,359.4C744.6,359.4,744.6,359.5,744.5,359.4C744.6,359.5,744.6,359.5,744.5,359.4z"/>
			<path fill="#6B6C6F" d="M746.6,379.9C746.6,380,746.6,379.9,746.6,379.9L746.6,379.9z"/>
			<path fill="#6B6C6F" d="M746,380.3C746,380.3,746,380.3,746,380.3C746,380.3,746,380.3,746,380.3z"/>
			<path fill="#6B6C6F" d="M745.3,378.2L745.3,378.2C745.3,378.2,745.3,378.2,745.3,378.2z"/>
			<path fill="#6B6C6F" d="M746.5,380C746.5,380,746.5,380,746.5,380C746.5,379.9,746.5,380,746.5,380z"/>
			<path fill="#6B6C6F" d="M746.6,380C746.6,380,746.6,380,746.6,380C746.6,380,746.6,380,746.6,380z"/>
			<path fill="#6B6C6F" d="M746.6,379.9C746.6,379.9,746.6,379.9,746.6,379.9C746.6,379.9,746.6,379.9,746.6,379.9
				C746.6,379.9,746.6,379.9,746.6,379.9z"/>
			<path fill="#6B6C6F" d="M743.6,364.9C743.7,364.9,743.7,364.9,743.6,364.9C743.6,364.9,743.6,364.9,743.6,364.9z"/>
			<polygon fill="#6B6C6F" points="744.3,375.1 744.3,375.1 744.3,375.1 			"/>
			<path fill="#6B6C6F" d="M744.1,375c0.2,0,0.2,0.1,0.1,0.1l0.4-0.1L744.1,375z"/>
			<path fill="#6B6C6F" d="M743.5,369.1l-0.1,0.1c-0.2-0.1-0.2-0.2-0.4-0.1c0.5-0.1,0.1,0.4,0.6,0.3l-0.1,0.1c0,0,0,0,0,0
				c-0.2,0.2,0.4,0,0.3,0.2c0,0.1-0.1,0.1-0.2,0.1l0.1,0.1c0,0-0.1,0-0.1,0l0.1,0.2l0,0c0.1,0,0.2,0.1,0.3,0.1c-0.1,0.1-0.1,0-0.1,0
				l0.1,0.1c-0.1,0.1-0.3,0-0.2-0.1c-0.5,0.2,0.1,0.1-0.1,0.4l-0.1-0.1c-0.3,0.1-0.2,0.2-0.3,0.3c0.1,0,0.4-0.3,0.5-0.2
				c0,0,0,0.1,0.1,0.1c-0.2,0-0.1,0.1-0.1,0.2l-0.2,0c0.1,0.1,0.2,0.1,0.3,0.1c0,0.1-0.2,0.2-0.3,0.2c0,0.2,0.3-0.2,0.3,0
				c-0.1,0.2,0,0.2,0.2,0.4c-0.1,0.1-0.1,0-0.2,0.1l0.2,0c0,0-0.1,0-0.1,0c0.1,0.1,0.2,0,0.3,0.1c0.3,0-0.3,0.3,0,0.4
				c-0.1,0-0.1,0-0.2,0c0.2,0.2,0.2,0.1,0.4,0.2l-0.1,0.2c0.2-0.1,0.4,0,0.6,0c0.1,0,0.1-0.1,0.2-0.1l0.1,0.1c0,0-0.1,0-0.2,0
				c0,0,0,0,0.1,0c-0.1,0.1-0.2,0.1-0.3,0.1c0,0,0.1-0.1,0.1-0.1c-0.1,0-0.3,0-0.4,0c0,0,0.1,0,0.1,0c0,0-0.1,0-0.1,0c0,0,0,0,0.1,0
				l-0.3,0.1l0.1,0l-0.1,0.3c0.3,0.1,0.7,0.2,0.8,0.4c-0.2,0-0.3,0-0.5,0.1c0.2-0.1-0.1-0.2-0.1-0.3c0,0.1-0.1,0.1-0.2,0.1l0.2,0.2
				c-0.2,0-0.1,0.1-0.2,0.2c0.4-0.1,0.3,0.1,0.4,0.2c-0.1,0-0.2,0-0.2-0.1c-0.3,0.2,0.4,0.1,0.2,0.3c0,0,0,0-0.1,0
				c0.1,0,0,0.2-0.1,0.2l0,0c0,0.2,0.1,0.6,0.4,0.5c0,0-0.4,0.1-0.4,0.1l1.1,0.1c-0.3,0-0.9,0.3-1,0.1c0,0.1-0.1,0.1,0,0.2
				c0,0,0.4-0.2,0.4-0.1c-0.3,0.2-0.1,0.1-0.4,0.3c0.1-0.1,0.5-0.1,0.5,0c-0.1,0-0.4,0.1-0.4,0.1l0.4,0.1c-0.1,0-0.3,0.1-0.5,0.1
				c0.1,0,0,0.2,0.1,0.2l0.1-0.1c0,0.2,0.6,0.1,0.6,0.3c-0.1,0-0.5,0.1-0.6,0.2c0.2,0,1,0,1.2,0.1l-0.1,0.1l0.1,0.1
				c-0.3,0-1-0.1-1.3-0.2c-0.1,0.1-0.1,0.1-0.1,0.2c-0.1,0.1-0.2,0-0.2-0.1l0,0.3c0.2-0.1,0.3,0.1,0.5,0.1l-0.3-0.2
				c0.2-0.1,0.7,0,0.7,0.2c-0.1,0.1-0.4,0.1-0.5,0.1c0.1,0,0.2,0.1,0.1,0.2l-0.1-0.1c-0.1,0.1,0.3,0.1,0.1,0.3c0,0-0.3,0.2-0.2,0.2
				c0.3-0.1,1.1-0.3,1.3-0.3c0,0-0.2,0.3-0.4,0.4c-0.2,0.1-0.5,0-0.7,0.1c0.1,0,0.2,0,0.2,0c-0.1,0.1-0.2,0-0.2,0.1
				c0.2,0,0,0.2,0.2,0c0.1,0.1,0,0.1,0,0.2c0.2-0.1,0.5,0,0.6,0.1c-0.1,0-0.1,0.1-0.2,0.1c0,0.2-0.1,0.3-0.1,0.5
				c-0.1,0-0.1,0.1-0.2,0.1c0,0,0.1,0,0.1,0.1c-0.2,0.2,0-0.1-0.3,0c0.1,0,0.2,0.1,0.3,0.2c0.2-0.1,0-0.2-0.1-0.3
				c0.3-0.1,0.6,0,0.8,0.1c0.1,0.1-0.2,0.1-0.1,0.1c0,0.3,0.6,0.1,0.4,0.4c-0.2,0.1-0.4,0.1-0.5,0.2c-0.1-0.1,0.1-0.2,0.1-0.3
				l-0.1,0.1c-0.1,0-0.1-0.1-0.1-0.2c-0.2,0.1,0,0.5-0.1,0.8c0.1,0,0.1,0.1,0.2,0l0-0.1c0.1-0.1,0.2,0.1,0.3,0
				c0.1,0.1,0.3,0.1,0.2,0.3l-0.2,0.1c0.1,0,0.1-0.1,0-0.1c0.1,0-0.3,0.3,0,0.3l0.1-0.1c0.1,0.1,0.4,0.1,0.3,0.3
				c0.2-0.1,0,0,0.2-0.2c-0.3,0.2,0-0.3-0.3-0.1c0.3-0.2,0.1-0.2,0.3-0.4c-0.1,0-0.1,0.1-0.1,0c0,0,0,0-0.1,0l0,0l0,0c0,0,0,0,0,0
				c0,0-0.1,0.1-0.1,0.1c-0.2,0-0.2-0.2-0.3-0.2c0-0.1,0.1,0,0.2,0l-0.1,0c0.2,0,0.2-0.2,0.4-0.1l0-0.1c0.1-0.1,0.1-0.2,0-0.2
				c0-0.1-0.2-0.1-0.1-0.1l-0.1-0.2l0,0c0-0.2-0.3-0.3-0.1-0.6c0-0.1-0.1-0.1-0.1-0.2l0.1-0.1c-0.1-0.1,0.1-0.3,0-0.3
				c0.4-0.2,0-0.4,0.1-0.6l-0.2,0c0-0.1-0.1-0.2-0.2-0.3l-0.2,0c-0.1-0.1,0.1-0.3,0-0.5c0.1,0,0.1,0,0,0.1c0.3-0.3-0.3-0.4-0.1-0.6
				c-0.1,0,0-0.1,0-0.1c0,0,0,0,0,0c0,0,0,0,0,0c0,0,0.1-0.1,0.1-0.1c0,0-0.1,0.1-0.1,0.1c0,0,0-0.1-0.1-0.1l0.2-0.1c0,0,0,0,0,0
				c0.1-0.1-0.1,0-0.2,0c0,0-0.1,0-0.1,0c0.3-0.1-0.1-0.1,0.2-0.2c-0.1,0-0.1-0.2-0.4-0.2c0,0,0.1,0,0.1,0c0-0.1,0.1-0.1,0-0.2
				l0.2-0.1l-0.3-0.1c0.1-0.1,0.2-0.2,0.4-0.1c-0.3-0.1-0.1-0.1-0.4-0.2l0.1,0c0-0.1-0.2-0.1-0.1-0.2c0.3-0.2,0-0.6,0.2-1
				c-0.4,0.1,0.2-0.2-0.2-0.1c0.1,0,0.1-0.1,0.2-0.1c-0.1-0.1,0.1-0.3-0.2-0.3c0.1,0,0.1,0,0.2,0c0,0-0.1,0,0-0.1c0.1,0,0.1,0,0.1,0
				c0-0.2-0.3-0.1-0.6-0.1c0.1-0.1,0.1-0.2-0.1-0.2c0.1,0,0.2-0.1,0.2,0c0-0.1,0.1-0.4-0.1-0.4c0.1,0,0-0.1,0-0.1c0-0.1,0-0.2,0-0.3
				l0,0c-0.3,0-0.1-0.1-0.1-0.2l0,0c0.2-0.3-0.1-0.1,0.1-0.4l-0.2,0c-0.4,0,0.2-0.3,0-0.4l-0.1,0.1c-0.1-0.1,0.5-0.3,0.5-0.4
				c0,0,0.1,0,0.1,0c0.2-0.2-0.2,0-0.3-0.1c0.1,0,0.3,0,0.3-0.1c0.1-0.1-0.4-0.2-0.2-0.4c-0.1,0-0.2,0.1-0.3,0c0-0.1,0.3-0.3,0-0.4
				c0,0,0,0,0.1,0c-0.1-0.1-0.1-0.2-0.3-0.3c0.6-0.2-0.3-0.5,0.2-0.5l0-0.2l0.1,0c0-0.2-0.1-0.2-0.2-0.2c0,0,0.1,0,0.1,0
				c0.1-0.3,0.1-0.3-0.2-0.4l0.2,0c-0.1,0,0.3-0.4,0-0.6c0,0,0.1,0,0.1,0c-0.2-0.2,0.5-0.7-0.2-0.7l-0.2-0.1c0,0.2-0.3,0-0.4,0.1
				c0-0.1,0.2-0.3,0.2-0.2l0,0c0.3,0,0.1-0.3,0.3-0.3c0-0.4,0.1-0.9,0.1-1.3l-0.3,0.1l0-0.1c0.1,0,0.2-0.1,0.2,0
				c0.1-0.1-0.1-0.2-0.2-0.1c0.1-0.2,0.3,0,0.3,0l0-0.1l0,0c-0.1-0.1-0.2,0-0.2-0.2c0-0.1,0.2-0.1,0.2-0.1c0,0,0,0,0,0l0-0.2
				l-0.2,0.1c-0.1-0.1,0-0.2-0.2-0.1c0.4-0.2,0.1-0.7,0.2-0.8c-0.2-0.1-0.2-0.2-0.1-0.3c0,0-0.3,0.1-0.3,0c0.5,0,0.2-0.2,0.5-0.4
				c-0.2,0.1-0.1-0.3-0.4-0.2c0-0.1,0.2,0,0.3-0.1c-0.2-0.2,0.1-0.5,0-0.8c-0.1,0-0.2,0.1-0.3,0l0.3-0.2c0-0.1-0.4,0-0.2-0.1
				c-0.1,0-0.1,0-0.2,0c0.3-0.6-0.3-1.1,0.3-1.7c-0.1,0.1-0.1,0-0.1,0c0,0-0.2,0-0.2,0l0.2-0.3c-0.2,0,0-0.3-0.3-0.3l0,0.1
				c-0.3-0.1-0.6,0.2-0.9,0.2c0.3,0.1-0.4,0.3,0,0.5c-0.1,0-0.1,0-0.2,0c0.2,0,0.2,0.1,0.1,0.2l0,0c0,0.3-0.1,0.4-0.2,0.8l0.2,0
				c0,0.1-0.1,0.1-0.1,0.1c0.3,0.1,0-0.2,0.3-0.2c-0.3,0.1,0,0.5-0.4,0.6c0,0.1,0.2-0.1,0.2,0.1l-0.1,0l0.1,0c0,0.1-0.2,0.1-0.2,0.1
				c0,0,0,0,0-0.1c-0.1,0.1,0.1,0.3,0,0.3l0.1-0.1c0.1,0.3,0,0.7,0.2,0.9l0.1,0c0.2,0.2-0.1,0.2,0,0.4l0,0c0.1,0,0.1,0.1,0.1,0.2
				c-0.1-0.1-0.2,0.1-0.3,0.1c0.2,0.2,0.1,0.1,0.4,0.2l-0.1,0.1c0.1,0,0.2,0,0.2,0.2c-0.1-0.1-0.2,0.1-0.4,0
				c-0.3,0.3,0.3,0.3-0.1,0.5c0.4,0.1,0.2-0.2,0.3-0.2c0.1-0.1,0.3,0.1,0.3,0.1c0,0.1-0.5,0.2-0.4,0.4c0,0,0,0,0,0
				c-0.1,0.1,0.1,0.1,0,0.2c0.2,0,0,0.1,0.3,0.1l-0.1-0.2c0.1,0.1,0.4,0.2,0.3,0.4c-0.1,0-0.1,0-0.2-0.1c-0.1,0.1,0.1,0.1,0,0.2
				c-0.3,0-0.1-0.2-0.3-0.3c-0.1,0.1,0.2,0.2-0.1,0.2c0.4,0,0,0.2,0.3,0.3l-0.2,0c0,0,0.1,0.1,0.1,0.1l-0.2,0c0.2,0.1-0.2,0.2,0,0.3
				c0-0.2,0.2-0.1,0.3-0.2c0.2,0.2-0.4,0.2-0.3,0.5c0,0,0.1-0.2,0.2-0.1c0,0.1-0.1,0.2-0.2,0.2c0,0.2,0.2-0.1,0.3,0
				c-0.2,0.1,0.1,0.1,0.2,0.2l-0.2,0c-0.1,0.3,0.4,0,0.2,0.2l-0.2-0.1l0.1,0.1l-0.2,0c0.2,0.1,0.1,0.1,0.1,0.3c0.1,0,0.3,0,0.3,0.1
				c-0.1,0.1-0.2,0-0.1,0.1c-0.1,0-0.2,0-0.1-0.1c-0.1,0-0.1,0-0.2,0c-0.1,0.1,0,0.2,0,0.3c0,0,0,0,0-0.1l0.3,0.2
				c-0.1,0-0.1,0-0.2,0c0,0,0.1,0.1,0.1,0.1c-0.1,0-0.3,0-0.4-0.1l0.2,0.2c-0.1,0-0.2,0.1-0.2,0.1c-0.1,0.1,0.3,0.2,0.2,0.4
				c0,0,0.1,0,0.1,0c0,0.1-0.2,0.3,0,0.4l-0.2,0.1c0.1,0.1,0.3-0.2,0.4,0c0.1,0.1-0.2,0.1-0.3,0.2c0.1,0.1,0.4,0.1,0.2,0.3
				C743.5,369.2,743.5,369.1,743.5,369.1z M743.8,370.7c0,0-0.2-0.1-0.1-0.1C743.9,370.6,743.8,370.6,743.8,370.7z M744.4,373
				c-0.1,0,0-0.1,0-0.1C744.4,373,744.4,373,744.4,373z M746.4,379.5C746.4,379.5,746.4,379.5,746.4,379.5
				C746.4,379.4,746.4,379.4,746.4,379.5z M746.3,379.7C746.4,379.7,746.4,379.7,746.3,379.7C746.4,379.7,746.3,379.6,746.3,379.7
				C746.3,379.6,746.3,379.6,746.3,379.7z M744.8,364.3L744.8,364.3C744.7,364.3,744.7,364.3,744.8,364.3z"/>
			<path fill="#6B6C6F" d="M744.1,372.8C744.2,372.8,744.2,372.8,744.1,372.8C744.2,372.8,744.2,372.8,744.1,372.8z"/>
			<polygon fill="#6B6C6F" points="743.3,368.1 743.3,368.1 743.3,368.1 			"/>
			<path fill="#6B6C6F" d="M744.6,377.8C744.6,377.8,744.6,377.7,744.6,377.8C744.6,377.7,744.6,377.8,744.6,377.8z"/>
			<path fill="#6B6C6F" d="M746.7,380.3L746.7,380.3c0,0-0.1,0-0.1,0C746.7,380.3,746.7,380.3,746.7,380.3z"/>
			<path fill="#6B6C6F" d="M745.8,381.4C745.8,381.4,745.8,381.4,745.8,381.4l0.1,0C745.9,381.4,745.8,381.3,745.8,381.4z"/>
			<path fill="#6B6C6F" d="M746.2,380.6c-0.1,0-0.1,0.1-0.1,0.1c0,0,0,0,0,0C746.3,380.7,746.2,380.6,746.2,380.6z"/>
			<path fill="#6B6C6F" d="M746.1,380.7C746.1,380.7,746.1,380.8,746.1,380.7C746.2,380.8,746.1,380.8,746.1,380.7z"/>
			<path fill="#6B6C6F" d="M746.4,379.8c0,0,0.2,0,0.1,0C746.8,379.8,746.3,379.7,746.4,379.8z"/>
			<polygon fill="#6B6C6F" points="745.7,380.7 745.9,380.7 745.7,380.7 			"/>
			<path fill="#6B6C6F" d="M745.8,380.2l0,0.1c0,0,0,0,0.1,0C745.8,380.3,745.8,380.2,745.8,380.2z"/>
			<path fill="#6B6C6F" d="M745.8,380.3C745.8,380.4,745.8,380.4,745.8,380.3C745.8,380.4,745.8,380.4,745.8,380.3z"/>
			<polygon fill="#6B6C6F" points="745.6,380.6 745.7,380.6 745.7,380.5 			"/>
			<path fill="#6B6C6F" d="M745.6,379.1L745.6,379.1c-0.1-0.1-0.2-0.1-0.1,0C745.6,379.1,745.6,379.1,745.6,379.1z"/>
			<path fill="#6B6C6F" d="M745.2,379.6c0,0,0.1-0.1,0.1-0.1L745.2,379.6L745.2,379.6z"/>
			<path fill="#6B6C6F" d="M745.1,379.2c-0.1,0-0.2-0.1-0.2,0C745,379.3,745.1,379.4,745.1,379.2z"/>
			<polygon fill="#6B6C6F" points="745.2,377.5 745.2,377.5 745.5,377.4 			"/>
			<path fill="#6B6C6F" d="M744.1,376.2c-0.1,0.2,0.2,0,0.1,0.1c0.1,0,0.1-0.1,0.2-0.1C744.3,376.2,744.4,376.1,744.1,376.2z"/>
			<path fill="#6B6C6F" d="M744.4,376.2C744.4,376.2,744.4,376.2,744.4,376.2C744.4,376.2,744.4,376.2,744.4,376.2z"/>
			<polygon fill="#6B6C6F" points="744.7,359.1 744.8,359 744.7,359.1 			"/>
			<path fill="#6B6C6F" d="M744.5,359l0.2,0L744.5,359C744.5,358.9,744.5,358.9,744.5,359z"/>
			<path fill="#6B6C6F" d="M743.3,371L743.3,371c0.1,0,0.1,0,0.1-0.1L743.3,371z"/>
			<polygon fill="#6B6C6F" points="743.4,369.8 743.4,369.8 743.6,369.7 			"/>
			<path fill="#6B6C6F" d="M743,368.8c0,0,0,0.1,0,0.1C743,368.9,743.3,368.8,743,368.8z"/>
		</g>
	</g>
	<path fill="#866050" d="M510.1,296.1c-0.4-2-0.2-16.2-0.1-23c0-2.3,0.7-4.6,1.9-6.6l6.6-10.9v0c1-1.8,3.7-1.2,3.7,0.9v6.2
		c0,0.2,0,0.4-0.1,0.6l-2.3,6.7c-0.7,2-0.9,4.1-0.6,6.2l2.9,19.9H510.1z"/>
	<path fill="#866050" d="M542.4,254.5c-0.2-1.2-0.1-10.3,0-14.6c0-1.5,0.4-2.9,1.2-4.2l4.2-6.9l0,0c0.6-1.2,2.4-0.7,2.4,0.6v3.9
		c0,0.1,0,0.3-0.1,0.4l-1.4,4.2c-0.4,1.3-0.5,2.6-0.4,3.9l1.9,12.6H542.4z"/>
	<path fill="#866050" d="M579.9,260.5c0.6-0.9,5.5-6.7,7.8-9.5c0.8-1,1.7-1.8,2.6-2.4l4.9-3.5l0,0c0.8-0.6,1.1,0.1,0.4,0.9l-2.1,2.5
		c-0.1,0.1-0.2,0.2-0.2,0.2l-2.7,2.4c-0.8,0.7-1.5,1.6-2.2,2.5l-6.2,8.7L579.9,260.5z"/>
	<path fill="#866050" d="M605.4,280.8c1.4-1.4,13.5-9,19.2-12.6c2-1.2,4.3-1.9,6.6-2l12.7-0.4h0c2.1-0.2,3,2.5,1.3,3.6l-5.2,3.4
		c-0.2,0.1-0.4,0.2-0.6,0.3l-6.8,1.7c-2,0.5-3.9,1.5-5.5,2.9l-15.1,13.4L605.4,280.8z"/>
	<path fill="#866050" d="M538.9,326c1.1-1.1,10.6-7.1,15.2-10c1.6-1,3.4-1.5,5.2-1.6l10-0.3l0,0c1.6-0.2,2.4,2,1,2.9l-4.1,2.7
		c-0.1,0.1-0.3,0.2-0.5,0.2l-5.4,1.4c-1.6,0.4-3.1,1.2-4.3,2.3l-11.9,10.5L538.9,326z"/>
	<g>
		<g>
			<path fill="#866050" d="M468.6,318.5c-0.7,2.5-1.8,4.4-3.6,6.2c-2.4,2.3,2.1,2.7,3.5,2.6c3.2-0.2,7.3-1.2,9.7-3.5
				c2.2-2.1,3.9-4.8,4.7-7.7c0.7-2.6-4.7-1.8-5.9-1.6c-1.9,0.3-3.8,0.9-5.5,1.7C470.7,316.6,468.9,317.4,468.6,318.5L468.6,318.5z"
				/>
		</g>
	</g>
	<g>
		<g>
			<path fill="#866050" d="M469.9,344.2c2,4.7,3.5,9.5,4.5,14.5c0.8,4,15.4,0.5,14.5-3.9c-1-5-2.5-9.8-4.5-14.5
				C482.6,336,468.4,340.6,469.9,344.2L469.9,344.2z"/>
		</g>
	</g>
	<g>
		<g>
			<path fill="#866050" d="M491.5,340.1c1.7,1,3.3,2,5,3c3.2,1.9,7.4,1.6,10.4-0.8c1.3-1,2.3-2.4,2.5-4c0.1-1.4-0.5-3.1-1.8-3.9
				c-1.7-1-3.3-2-5-3c-3.2-1.9-7.4-1.6-10.4,0.8c-1.3,1-2.3,2.4-2.5,4C489.6,337.7,490.3,339.3,491.5,340.1L491.5,340.1z"/>
		</g>
	</g>
	<g>
		<g>
			<path fill="#866050" d="M468.6,413.3c5.9,11,13.2,21.1,21.9,30.1c2.4,2.5,15.6-2.8,13.7-4.8c-8.4-8.7-15.4-18.5-21.1-29.2
				C481.3,406.1,467.6,411.4,468.6,413.3L468.6,413.3z"/>
		</g>
	</g>
	<g>
		<g>
			<path fill="#866050" d="M558,366.9c2.7,2.2,5.3,4.4,8,6.7c2.3,1.9,7.1,0.5,9.4-0.4c1.1-0.4,6.4-2.9,4.1-4.8
				c-2.7-2.2-5.3-4.4-8-6.7c-2.3-1.9-7.1-0.5-9.4,0.4C561,362.5,555.7,365,558,366.9L558,366.9z"/>
		</g>
	</g>
	<g>
		<g>
			<path fill="#866050" d="M581.7,357c3.1,0,7.5-1.3,9.7-3.6c2.4-2.5-2-2.9-3.6-2.9c-3.1,0-7.5,1.3-9.7,3.6
				C575.8,356.7,580.2,357,581.7,357L581.7,357z"/>
		</g>
	</g>
	<g>
		<g>
			<path fill="none" stroke="#BFA89F" stroke-miterlimit="10" d="M535.1,403.2"/>
		</g>
	</g>
	<g>
		<g>
			<path fill="none" stroke="#BFA89F" stroke-miterlimit="10" d="M557.6,398.7"/>
		</g>
	</g>
	<circle fill="#866050" cx="454.7" cy="343" r="6.7"/>
	<circle fill="#866050" cx="443.9" cy="361" r="6.7"/>
	<circle fill="#866050" cx="461.4" cy="361" r="4.2"/>
	<circle fill="#866050" cx="528" cy="413" r="6.7"/>
	<circle fill="#866050" cx="517.2" cy="431" r="6.7"/>
	<circle fill="#866050" cx="534.7" cy="431" r="4.2"/>
	<g>
		<path fill="#B4BABE" d="M200.2,248.8c0,0-64.1,121.4-30.1,176.3C215,497.5,333,475.7,365,457.5c28.2-16.1,27.7-80.2-31.7-94.6
			c-14.9-3.6-24.3-18.2-21.6-33.3l6.7-36.7L200.2,248.8z"/>
		<g>
			
				<linearGradient id="SVGID_1_" gradientUnits="userSpaceOnUse" x1="345.5045" y1="176.0284" x2="584.3376" y2="176.0284" gradientTransform="matrix(-0.9998 1.960037e-002 1.960037e-002 0.9998 615.7513 -18.255)">
				<stop  offset="0" style="stop-color:#BCBEC0"/>
				<stop  offset="1" style="stop-color:#B1B3B6"/>
			</linearGradient>
			<path fill="url(#SVGID_1_)" d="M38.6,90.9l5.1-2.2c5.1-2.2,6.6-8.6,3-12.8c-4.2-5-1.2-12.7,5.3-13.4l137.6-12
				c26.5-0.5,49.4,16.8,56.9,41.2c14.1,16.7,23.7,37.6,26.5,60.9c7.7,63.6-37.6,121.4-101.2,129.1C108.1,289.3,50.3,244,42.6,180.4
				c-2.8-23.1,1.4-45.4,10.9-64.8l-16.2-10.2C31.8,101.8,32.5,93.5,38.6,90.9z"/>
			<circle fill="#9A9FA3" cx="160.2" cy="166.2" r="82.5"/>
			<path fill="#AAAFB4" d="M339.3,137.4c8.6,60.3,64.5,102.2,124.8,93.6c60.3-8.6,102.2-64.5,93.6-124.8
				c-3.1-21.9-12.5-41.3-26-56.8L544,35.9c4.2-4.6,1.6-12.1-4.6-13l-5.3-0.7c-5.2-0.7-8.2-6.3-5.9-11c2.7-5.6-2-11.9-8.1-11
				l-87.1,12.4C372.6,21.1,330.7,77,339.3,137.4z"/>
			<circle fill="#959A9E" cx="450.2" cy="121" r="78.5"/>
			<g>
				
					<linearGradient id="SVGID_2_" gradientUnits="userSpaceOnUse" x1="256.0881" y1="131.4369" x2="256.0881" y2="198.9128" gradientTransform="matrix(-0.999 4.540619e-002 4.540619e-002 0.999 584.878 18.2249)">
					<stop  offset="0" style="stop-color:#CBCCCE"/>
					<stop  offset="1" style="stop-color:#C2C4C6"/>
				</linearGradient>
				<path fill="url(#SVGID_2_)" d="M206.4,261.8c38.1,72.1,149,66.8,212,42.6c33.2-12.8,63.8-42.9,69.1-79.7
					c2.9-20.3-4.8-35.9-11.3-54.4c-8.1-23-11.8-47.2-21-69.8c-8.8-21.8-24.5-40.6-43.8-53.8c-25.1-17.2-68.6-20.9-98.3-17.6
					c-65.5,7.3-98.6,34.6-119.8,99.1C178.7,172.9,184.6,220.4,206.4,261.8z"/>
			</g>
			<circle fill="#ACB2B6" cx="308.1" cy="171.3" r="16.1"/>
			<circle fill="#616264" cx="308.1" cy="171.3" r="9.6"/>
			<circle fill="#ACB2B6" cx="431.8" cy="152.6" r="16"/>
			<circle fill="#616264" cx="431.8" cy="152.6" r="9.6"/>
			<g>
				<path fill="#DEDFE0" d="M384.3,206.9c18.4-1.3,32.7,15.7,28.3,33.6c-3.3,13.6-10.5,26.7-25.6,29.7c-19.1,3.8-31.1-7.9-39-23.1
					c-8.9-17.2,3.1-37.8,22.4-39.2L384.3,206.9z"/>
				<path fill="#616264" d="M411.4,149.7c-3.8-10.6-11-19.8-22.9-24c-13.4-4.8-29.9-1.9-41,6.5c-14.2,10.7-16.9,27.8-14.7,43.2
					c2.5,18.3,17.5,64.7,49,57.1c19.2-4.6,29.6-18.5,32.5-35.5C416.4,183.8,416.8,164.9,411.4,149.7z"/>
				<path fill="#FFFFFF" d="M360.5,141.5c0.7-0.3-1.7,1.1-2.3,1.6c-2.3,1.7-4.3,3.9-6,6.3c-6.5,9.4-6.2,21.3-3.5,32
					c1,3.9-5,6.2-6,2.2c-4.3-17-2.2-39.3,15.6-48C362,133.8,364.2,139.7,360.5,141.5L360.5,141.5z"/>
			</g>
		</g>
		<g>
			<path fill="#878C90" d="M311.9,329.6c0,0,0.1,0.6,0.2,1.8c0.1,1.2,0.3,2.9,0.5,5c0.1,1,0.2,2.3,0.5,3.5c0.1,0.6,0.2,1.2,0.5,1.9
				c0.2,0.6,0.4,1.3,0.7,2c1,2.7,2.7,5.4,4.9,8c0.6,0.7,1.2,1.2,1.8,1.9c0.7,0.5,1.3,1.2,2.1,1.7c1.4,1.1,3.1,2,4.9,2.8
				c1.8,0.7,3.7,1.3,5.6,1.6c1.1,0.2,2.3,0.4,3.5,0.6c0.6,0.1,1.1,0.2,1.7,0.3l0.9,0.2l0.4,0.1l0.2,0l0.1,0
				c-0.2-0.1,0.3,0.1,0.3,0.1l0.1,0c1.1,0.4,2.2,0.6,3.4,1.1c1.2,0.5,2.5,0.9,3.6,1.4c2.3,1,4.6,2.1,6.8,3.5
				c4.4,2.6,8.6,5.8,12.3,9.5c3.7,3.7,6.9,7.8,9.7,12.2c0.6,1.1,1.3,2.2,1.9,3.3l0.9,1.7l0.2,0.4l0.1,0.2l0.1,0.2l0,0.1l0.4,0.8
				c0.2,0.5,0.5,1.1,0.7,1.6c0.2,0.5,0.5,1.1,0.7,1.7c0.4,1.2,0.9,2.4,1.3,3.6c1.5,4.7,2.1,9.5,2.2,14c0.1,4.5-0.6,8.7-1.5,12.5
				c-0.8,3.8-2.2,7-3.4,9.9c-1.3,2.8-2.5,5.2-3.6,7.1c-0.6,0.9-1.1,1.8-1.5,2.5c-0.5,0.7-0.9,1.3-1.2,1.8c-0.7,1-1,1.5-1,1.5
				l-0.3-0.2c0,0,0.3-0.5,0.9-1.6c0.3-0.5,0.6-1.1,1-1.9c0.4-0.8,0.8-1.6,1.3-2.6c0.9-2,2-4.4,3-7.2c1-2.8,2-6.1,2.6-9.7
				c0.6-3.6,1-7.6,0.8-11.9c-0.2-4.2-1-8.7-2.5-13c-0.4-1.1-0.8-2.2-1.2-3.3c-0.4-1.1-1-2.2-1.5-3.2c-1-2.1-2.2-4.2-3.5-6.3
				c-2.6-4.1-5.7-7.9-9.2-11.4c-3.5-3.5-7.4-6.6-11.5-9.1c-4.2-2.5-8.5-4.5-12.9-5.9c-2.3-0.5-4.5-0.9-6.7-1.4
				c-2.2-0.5-4.3-1.2-6.3-2.1c-3.9-1.9-7.1-4.5-9.4-7.5c-2.3-3-3.8-6.1-4.7-9c-0.9-2.9-1.1-5.6-1.1-7.8c0-4.3,0-6.8,0-6.8H311.9z"/>
		</g>
		<g>
			<path fill="#9A9FA3" d="M286.7,146c0,0-0.3-0.5-0.7-1.3c-0.2-0.4-0.4-1-0.5-1.6c-0.1-0.3-0.1-0.7-0.2-1c0-0.2,0-0.4,0.1-0.5
				c0.1-0.2,0.1-0.3,0.2-0.5c0.2-0.7,0.5-1.5,0.9-2.3c0.4-0.8,0.7-1.6,1.3-2.4c0.3-0.4,0.5-0.8,0.8-1.2c0.3-0.4,0.6-0.8,0.9-1.2
				l0.5-0.6l0.5-0.5l1.1-1.1c0.8-0.7,1.5-1.3,2.3-1.9c0.8-0.5,1.6-1.1,2.4-1.5c0.8-0.4,1.6-0.8,2.4-1.2c0.8-0.3,1.5-0.6,2.2-0.8
				c0.2-0.1,0.3-0.1,0.5-0.2c0.2-0.1,0.3-0.2,0.5-0.1c0.4,0,0.7,0.1,1,0.2c0.6,0.1,1.2,0.3,1.6,0.4c0.9,0.3,1.4,0.5,1.4,0.5
				s-0.4,0.4-1.1,1c-0.3,0.3-0.7,0.7-1.2,1.1c-0.2,0.2-0.5,0.4-0.7,0.6c-0.1,0.1-0.2,0.2-0.4,0.2c-0.2,0-0.3,0.1-0.4,0.1
				c-0.6,0.2-1.3,0.4-1.9,0.7c-0.6,0.3-1.3,0.6-2,1c-0.7,0.4-1.3,0.8-2,1.3c-0.6,0.5-1.3,1-1.9,1.5l-0.9,0.9l-0.4,0.4l-0.4,0.5
				c-0.2,0.3-0.5,0.6-0.7,0.9c-0.2,0.3-0.4,0.7-0.6,1c-0.4,0.6-0.7,1.3-1,1.9c-0.2,0.7-0.5,1.3-0.7,1.9c0,0.1-0.1,0.3-0.1,0.4
				c0,0.2,0,0.3-0.2,0.4c-0.2,0.2-0.4,0.5-0.6,0.7c-0.4,0.4-0.7,0.8-1,1.2c-0.3,0.4-0.5,0.6-0.6,0.8
				C286.7,145.9,286.7,146,286.7,146z"/>
		</g>
		<g>
			<path fill="#9A9FA3" d="M436.2,127.1c0,0-0.1-0.1-0.3-0.2c-0.2-0.1-0.5-0.4-0.8-0.6c-0.4-0.3-0.8-0.5-1.3-0.9
				c-0.2-0.2-0.5-0.3-0.8-0.5c-0.1-0.1-0.2-0.2-0.3-0.3c-0.1-0.1-0.1-0.3-0.2-0.4c-0.3-0.5-0.8-1-1.2-1.6c-0.5-0.5-0.9-1.1-1.5-1.6
				c-0.3-0.3-0.6-0.5-0.9-0.8c-0.3-0.2-0.6-0.5-1-0.7l-0.5-0.4l-0.5-0.3l-1.1-0.6c-0.7-0.3-1.5-0.7-2.3-1c-0.8-0.2-1.5-0.5-2.3-0.7
				c-0.8-0.1-1.5-0.3-2.2-0.4c-0.7-0.1-1.4-0.1-2-0.1c-0.2,0-0.3,0-0.5,0c-0.2,0-0.3,0-0.4-0.1c-0.3-0.2-0.6-0.3-0.8-0.4
				c-0.5-0.2-1-0.5-1.4-0.7c-0.8-0.4-1.3-0.7-1.3-0.7s0.4-0.3,1.2-0.8c0.4-0.2,0.9-0.5,1.5-0.8c0.3-0.1,0.6-0.3,0.9-0.5
				c0.2-0.1,0.3-0.1,0.5,0c0.2,0,0.4,0,0.5,0c0.7,0.1,1.5,0.1,2.4,0.2c0.8,0.1,1.7,0.3,2.6,0.4c0.9,0.2,1.8,0.5,2.8,0.8
				c0.9,0.4,1.8,0.7,2.7,1.2l1.3,0.7l0.6,0.4l0.6,0.4c0.4,0.3,0.8,0.6,1.2,0.9c0.4,0.3,0.7,0.6,1.1,1c0.7,0.6,1.3,1.3,1.9,1.9
				c0.5,0.7,1.1,1.3,1.4,2c0.1,0.2,0.2,0.3,0.3,0.4c0.1,0.1,0.2,0.3,0.3,0.5c0,0.4,0.1,0.7,0.1,1.1c0,0.7,0,1.2,0,1.7
				C436.4,126.6,436.2,127.1,436.2,127.1z"/>
		</g>
		<g>
			<path fill="#6B6C6F" d="M345.3,243c0,0,0.1-0.1,0.3-0.3c0.2-0.2,0.4-0.4,0.8-0.7c0.7-0.6,1.8-1.3,3.1-2c1.3-0.7,3-1.3,4.8-1.7
				c0.5-0.1,0.9-0.2,1.4-0.3c0.5-0.1,1-0.1,1.4-0.2c1-0.1,2-0.1,3-0.1c1,0.1,2,0.1,3,0.4c1,0.2,1.9,0.4,2.8,0.7
				c0.9,0.3,1.8,0.6,2.5,1.1c0.8,0.4,1.5,0.8,2.1,1.3c0.6,0.5,1.2,1,1.6,1.4c0.5,0.4,0.8,0.9,1.1,1.3c0.3,0.3,0.5,0.7,0.6,0.9
				c0.1,0.2,0.2,0.3,0.2,0.3l-0.2,0.3c0,0-0.4-0.2-1.1-0.6c-0.4-0.2-0.8-0.4-1.3-0.6c-0.5-0.2-1.1-0.4-1.7-0.7
				c-0.6-0.3-1.4-0.4-2.1-0.7c-0.7-0.2-1.6-0.4-2.4-0.6c-0.8-0.2-1.7-0.3-2.6-0.4c-0.9-0.1-1.8-0.1-2.7-0.2c-0.9,0-1.8-0.1-2.7-0.1
				c-0.9,0-1.8,0-2.6,0.1c-1.7,0.1-3.3,0.3-4.6,0.5c-1.3,0.2-2.5,0.4-3.3,0.6c-0.8,0.2-1.2,0.3-1.2,0.3L345.3,243z"/>
		</g>
	</g>
	<path fill="#F8CFA5" d="M67.5,472.7c28.9-2.2,57.9-2.4,86.9-0.9c3.4,0.2,9.2-4.7,3.4-5c-29.7-1.6-59.4-1.2-89.1,1
		C64.4,468.1,61.5,473.1,67.5,472.7L67.5,472.7z"/>
	<path fill="#F8CFA5" d="M66.2,498.1c18.1-0.3,36.3-0.1,54.4,0.6c1.8,0.1,4.7-0.3,6.1-1.6c1-1,1.4-2-0.5-2
		c-18.8-0.7-37.5-0.9-56.3-0.6C67.5,494.5,60.5,498.2,66.2,498.1L66.2,498.1z"/>
	<path fill="#F8CFA5" d="M90.4,528.3c60.4,0.7,120.9,1.4,181.3,2.1c1.6,0,5.1-0.6,5.7-2.4c0.7-1.8-0.6-2.5-2.3-2.5
		c-60.4-0.7-120.9-1.4-181.3-2.1c-1.6,0-5.1,0.6-5.7,2.4C87.4,527.6,88.6,528.3,90.4,528.3L90.4,528.3z"/>
	<path fill="#F8CFA5" d="M316,507.4c19,0.7,38,0.3,57-1.3c1.5-0.1,5.1-0.6,5.8-2.2c0.6-1.6-0.5-2.1-2.2-2c-19,1.6-38,2-57,1.3
		C316.7,503,310.2,507.1,316,507.4L316,507.4z"/>
	<path fill="#F8CFA5" d="M326.5,561.8c55.9,1.9,112,0.1,167.7-5.4c4.1-0.4,7.3-5.1,1.3-4.6c-55,5.4-110.3,7.1-165.5,5.2
		C326.8,557,320.7,561.6,326.5,561.8L326.5,561.8z"/>
	<g>
		<path fill="#878C90" d="M209.7,270.4c0,0,0.2,0.3,0.7,1c0.4,0.6,1.1,1.5,2,2.7c0.9,1.1,1.9,2.5,3.2,4c1.3,1.5,2.8,3.1,4.4,4.9
			c1.7,1.7,3.6,3.5,5.6,5.3c0.5,0.4,1.1,0.9,1.6,1.3c0.6,0.4,1.1,0.8,1.7,1.3c0.6,0.4,1.2,0.9,1.8,1.4c0.6,0.5,1.2,0.8,1.8,1.3
			c2.3,1.7,5,3.2,7.7,4.7c1.4,0.7,2.7,1.5,4.2,2.2c1.4,0.7,2.8,1.4,4.3,2c1.5,0.6,2.9,1.3,4.4,1.9c1.5,0.6,2.9,1.2,4.4,1.7
			c3,1.1,5.9,2.1,8.8,3c2.9,0.9,5.7,1.8,8.4,2.6c2.7,0.8,5.3,1.5,7.6,2.2c2.4,0.7,4.5,1.3,6.5,1.9c1.9,0.5,3.6,1.1,5,1.5
			c1.4,0.4,2.5,0.8,3.2,1c0.7,0.2,1.1,0.4,1.1,0.4l-0.1,0.4c0,0-1.6-0.3-4.5-0.7c-1.4-0.2-3.1-0.5-5.1-0.9c-2-0.4-4.2-0.7-6.6-1.2
			c-2.4-0.5-5-1-7.8-1.6c-2.8-0.6-5.7-1.3-8.6-2.1c-3-0.8-6-1.7-9.1-2.8c-1.5-0.5-3.1-1.1-4.6-1.7c-1.5-0.6-3.1-1.2-4.6-1.9
			c-1.5-0.6-3-1.4-4.5-2.1c-1.5-0.7-2.9-1.6-4.3-2.3c-1.4-0.8-2.8-1.7-4.1-2.6c-1.4-0.8-2.6-1.8-3.9-2.7c-1.3-0.9-2.4-1.9-3.5-2.9
			c-0.6-0.5-1.1-1-1.7-1.4c-0.5-0.5-1.1-1-1.6-1.5c-2-2-3.8-4-5.4-5.9c-3.1-3.8-5.3-7.4-6.7-9.9c-0.7-1.3-1.2-2.3-1.6-3
			c-0.3-0.7-0.5-1.1-0.5-1.1L209.7,270.4z"/>
	</g>
</g>
<g>
</g>
<g>
</g>
<g>
</g>
<g>
</g>
<g>
</g>
<g>
</g>
<g>
</g>
<g>
</g>
<g>
</g>
<g>
</g>
<g>
</g>
<g>
</g>
<g>
</g>
<g>
</g>
<g>
</g>
</svg>
