<?xml version="1.0" encoding="utf-8"?>
<!-- Generator: Adobe Illustrator 18.0.0, SVG Export Plug-In . SVG Version: 6.00 Build 0)  -->
<!DOCTYPE svg PUBLIC "-//W3C//DTD SVG 1.1//EN" "http://www.w3.org/Graphics/SVG/1.1/DTD/svg11.dtd">
<svg version="1.1" id="Layer_1" xmlns="http://www.w3.org/2000/svg" xmlns:xlink="http://www.w3.org/1999/xlink" x="0px" y="0px"
	 viewBox="0 0 536.9 219.9" enable-background="new 0 0 536.9 219.9" xml:space="preserve">
<g>
	<path fill="#FFFFFF" d="M394.7,219.9H95.1C42.8,219.9,0,177.1,0,124.8l0-29.7C0,42.8,42.8,0,95.1,0l299.6,0
		c52.3,0,95.1,42.8,95.1,95.1v29.7C489.8,177.1,447,219.9,394.7,219.9z"/>
	<g>
		<path fill="#757679" d="M64,80.7l-1.4-4.5c4.1-4.5,7.2-9.8,9.2-16l3.9,1.8c-1,3.1-2.4,6.1-4.1,8.9v26.6h-4.2V76.9
			C66.3,78.2,65.2,79.5,64,80.7z M76.5,77l-3.6-2.2c3-4.4,5-9.2,6.2-14.2l3.9,0.8c-0.3,1.2-0.7,2.4-1,3.6h16.7v2.7
			c-0.6,2.4-1.4,4.8-2.3,7.1l-4-1.2c0.8-1.4,1.4-2.9,2-4.7H80.5C79.3,71.9,78,74.6,76.5,77z M82.2,78c-1.4,5.5-3.2,10.3-5.4,14.4
			l-3.9-1.4c2.1-3.7,3.9-8.4,5.5-14L82.2,78z M79.9,97.3L79,93.3c1.6,0.2,3.2,0.3,4.6,0.3c1,0,1.4-0.5,1.4-1.5V71.8h4v21.4
			c0,2.8-1.4,4.2-4.1,4.2H79.9z M99.7,91.4L96,93c-1.4-5.8-3.1-10.9-4.9-15.3l3.7-1.2C96.7,81.1,98.3,86.1,99.7,91.4z"/>
		<path fill="#757679" d="M110.2,81.1l-1.4-4.6c3.2-4.6,5.6-10,7.2-16.3l3.8,1.8c-0.6,2.4-1.4,4.6-2.3,6.8v28.6h-4V76.6
			C112.5,78.1,111.4,79.6,110.2,81.1z M131.6,78.3h-7v19.1h-4V61.8h11V78.3z M127.7,65.3h-3v3h3V65.3z M124.6,74.8h3v-3.2h-3V74.8z
			 M133.6,78.4V61.8h11.2v31.6c0,2.5-1.2,3.8-3.5,3.8c-1.6,0-3.2,0-4.7-0.1l-1-3.8c1.6,0.1,3,0.2,4.4,0.2c0.7,0,1-0.4,1-1.3V78.4
			H133.6z M141,65.4h-3.4v2.9h3.4V65.4z M137.6,74.8h3.4v-3.2h-3.4V74.8z"/>
		<path fill="#757679" d="M191.9,76.6v4.2h-36.4v-4.2H191.9z"/>
		<path fill="#757679" d="M217,74.2c0.4-2.4,0.7-5,0.9-7.9H204v-4h31.9v4h-13.8c-0.2,2.9-0.5,5.6-0.9,7.9h15.8v4h-14
			c2.8,7,7.9,12.3,15.4,16.1l-2.6,3.4c-7.6-4.2-12.9-10-15.9-17.6c-0.6,2-1.3,3.7-2.1,5.2c-2.7,4.8-7.2,8.9-13.6,12.4l-2.7-3.4
			c5.8-3,10-6.6,12.4-10.6c0.9-1.5,1.6-3.3,2.2-5.5h-13.2v-4H217z"/>
		<path fill="#757679" d="M268.7,61.9v3.9h-10c-1.6,3.2-3,5.8-4.3,7.5c2.9-0.3,5.8-0.7,8.6-1.2c-0.7-1.1-1.5-2.3-2.3-3.4l3.2-2
			c2.6,3.5,4.6,6.5,6,9.1l-3.5,2.4c-0.5-1-1-1.9-1.6-2.9c-5,0.9-10.4,1.6-16.3,2.2l-0.9-3.7c0.7-0.1,1.2-0.2,1.6-0.4
			c1.1-0.9,2.8-3.4,4.8-7.6h-5.8v-3.9H268.7z M268.8,93.8c-6.2,1.3-12.9,2.4-20,3.3l-1-4c3.1-0.3,6.1-0.7,9.1-1.1v-6.2h-7.2v-4h7.2
			v-4h4.2v4h6.6v4h-6.6v5.5c2.6-0.5,5.2-1,7.8-1.6V93.8z M275.4,64.3v24.4h-4V64.3H275.4z M273.1,97.2l-0.9-4
			c1.9,0.2,3.7,0.2,5.4,0.2c0.9,0,1.4-0.5,1.4-1.5V60.7h4.2V93c0,2.8-1.4,4.2-4.2,4.2H273.1z"/>
		<path fill="#757679" d="M306,70.5v21.2h-7v2.8h-4V63.2h11v6.7c2.9-2.3,5.4-5.6,7.6-9.6l4.2,0.9c-0.4,0.8-0.8,1.6-1.3,2.4h9.6v3
			c-1.1,1.6-2.2,3.1-3.3,4.3h5.9v12.8h-5.8v8.6c0,0.6,0.3,0.9,0.9,0.9h1.8c0.6,0,1-0.3,1.2-0.8c0.3-0.6,0.5-2.3,0.6-5.1l3.6,1.1
			c-0.3,4.2-0.8,6.6-1.5,7.4c-0.7,0.7-1.8,1.1-3.2,1.1h-3.7c-2.4,0-3.6-1.3-3.6-3.8v-8.2c-0.1,0.4-0.2,0.7-0.3,1
			c-1.5,4.7-5.2,8.6-11,11.7l-2.7-3.3c5-2.6,8.3-5.8,9.8-9.5c0.1-0.4,0.2-0.8,0.4-1.2h-6.9V73.2L306,70.5z M302,75.2V67H299v8.2H302
			z M302,87.8V79H299v8.8H302z M321.1,67.1h-7c-1,1.4-2,2.6-3.2,3.7h7C319,69.8,320,68.5,321.1,67.1z M316.5,74.5H312V80h4
			C316.2,78.3,316.4,76.5,316.5,74.5z M324.9,74.5h-4.4c-0.1,1.9-0.2,3.8-0.5,5.4h4.9V74.5z"/>
		<path fill="#757679" d="M359.7,97.3h-4.1V75.6c-0.8,1-1.6,2.1-2.4,3.1l-0.6-2v4.2c-1.1,0.5-2.2,1-3.2,1.4v10.6
			c0,2.7-1.4,4.1-4.2,4.1h-3.6l-0.9-4c1.1,0.2,2.1,0.3,3.1,0.3s1.5-0.5,1.5-1.4v-8c-1.4,0.5-2.9,1-4.4,1.4l-1-4.2
			c1.8-0.4,3.6-0.8,5.4-1.4v-8.1h-4.7v-4h4.7v-6.9h4.2v6.9h3.6v4h-3.6v6.6c1.1-0.5,2.2-1,3.2-1.5l-0.7-2.2c3.1-4.2,5.3-8.8,6.6-13.8
			l4.1,0.8c-0.6,1.9-1.2,3.8-2,5.6h5.6c-0.6-1.8-1.3-3.7-2.1-5.4l4-1.1c0.8,2.4,1.5,4.5,2,6.5h6v4h-6.3v4.2h5.5v3.9h-5.5v4h5.5V87
			h-5.5v4.6h6.8v4h-16.7V97.3z M359.7,71v4.2h5.8V71H359.7z M359.7,83.1h5.8v-4h-5.8V83.1z M359.7,91.5h5.8V87h-5.8V91.5z"/>
		<path fill="#757679" d="M396.4,70.2v3.2c-1.2,2-2.6,4-4.2,6h4.6v2.7c-0.5,2.9-1.1,5.3-1.8,7.2c0.3,0.2,0.6,0.4,0.9,0.8
			c1.3,1.2,2.4,2.1,3.6,2.6c1.2,0.4,2.8,0.7,5,0.8c2.2,0,4.6,0,7.4,0c2.9,0,6.6-0.1,11.2-0.3l-1,3.9h-9.8c-2.7,0-5.4-0.1-8.1-0.2
			c-2.7-0.1-4.8-0.4-6.1-1c-1.7-0.7-3.2-1.7-4.5-3.1c-0.3-0.3-0.6-0.4-0.9-0.4c-0.8,0-2,1.7-3.7,5.2l-3-2.8c1.8-3.4,3.6-5.5,5.2-6.1
			c0.7-1.8,1.3-3.7,1.7-5.8h-5.6v-3.1c1.8-2.1,3.4-4,4.6-5.8h-5.2v-3.8H396.4z M396.4,66.4l-2.7,2.7c-1.4-1.8-3.5-3.7-6.1-5.8
			l2.8-2.6C392.7,62.6,394.7,64.5,396.4,66.4z M407.6,64.2c-0.4-1.1-0.9-2.1-1.4-3l4.4-0.7c0.4,1.1,0.9,2.3,1.3,3.7h9.9v3.8h-23.6
			v-3.8H407.6z M419.8,81.1v10.5h-19.4V81.1H419.8z M418.9,70.1v3.3h-17.6v-3.3H418.9z M418.9,75.6v3.3h-17.6v-3.3H418.9z
			 M415.7,84.5h-11.2v3.7h11.2V84.5z"/>
		<path fill="#757679" d="M75.2,122.2c-1,3-2.2,5.8-3.6,8.4v27h-4.2v-20.8c-1,1.3-2.1,2.6-3.3,3.8l-1.4-4.4
			c3.9-4.5,6.8-9.8,8.7-15.8L75.2,122.2z M98.9,157.5h-3.8v-2.2H79.1v2.2h-3.7v-35.8h23.6V157.5z M95.2,151.5v-26.2H79.1v26.2H95.2z
			 M85.4,130.8v-4H89v4h5.1v3.5H89v3.8h3.9v11.8H81.7v-11.8h3.8v-3.8h-5.1v-3.5H85.4z M89.6,141.3h-4.7v5.5h4.7V141.3z"/>
		<path fill="#757679" d="M105.6,142.2v-3.8h35.7v3.8H126v3.4h11v3.7h-11v3.8c1.8,0.2,3.9,0.2,6.2,0.2c3.6,0,6.6-0.1,9-0.2l-1.2,3.9
			c-2.8,0-5.3,0-7.6-0.1c-6.6,0-11.2-0.6-13.6-1.5c-1.9-0.8-3.6-2.4-5.1-4.6c-1.5,2.7-3.4,4.9-5.7,6.7l-2.7-3.5
			c3.6-2.8,6-6.5,7.3-11.1l4,0.7c-0.4,1.4-0.8,2.7-1.3,4c1.5,2.4,3.3,3.8,5.2,4.5c0.4,0.1,0.8,0.2,1.3,0.4v-10.3H105.6z
			 M136.1,121.7v14.6h-25v-14.6H136.1z M131.9,127.4v-2.1h-16.8v2.1H131.9z M131.9,130.6h-16.8v2.2h16.8V130.6z"/>
		<path fill="#757679" d="M183.3,121.8v3.8h-11.4v2.6h9V139h-16.3l-1.4,2.5h20.6v3.8h-8.3c-0.8,2-2,3.7-3.7,5.2
			c3.8,1.1,7.6,2.4,11.5,3.9l-2.6,3.4c-4.2-1.8-8.4-3.4-12.6-4.7c-3.8,1.9-9.9,3.4-18.4,4.6l-1.6-3.8c6.1-0.6,10.8-1.5,14.4-2.6
			c-3-0.9-6-1.6-8.9-2.3c0.9-1.3,1.7-2.5,2.5-3.8h-9v-3.8h11.4c0.5-0.9,1-1.7,1.5-2.5h-10v-10.8h9v-2.6h-11.4v-3.8H183.3z
			 M159,131.7h-5v3.8h5V131.7z M171.2,145.3h-10.3c-0.5,0.8-1,1.4-1.4,2.1c2.6,0.5,5.2,1.2,7.9,1.9
			C169.1,148.2,170.4,146.9,171.2,145.3z M168,125.6h-5v2.6h5V125.6z M168,131.7h-5v3.8h5V131.7z M176.9,131.7h-5v3.8h5V131.7z"/>
		<path fill="#757679" d="M195.2,124v-3.4h4.2v3.4h6.1v3.7h-6.1v2.5h5.2v15.2h-5.2v2.6h6.3v3.6h-6.3v6h-4.2v-6h-6.1v-3.6h6.1v-2.6
			h-5v-15.2h5v-2.5h-5.7V124H195.2z M200.7,136.2v-2.7H194v2.7H200.7z M200.7,139.4H194v2.6h6.7V139.4z M217.3,120.8
			c1.7,3.9,4.5,7.4,8.6,10.4l-2.3,3.4c-0.6-0.4-1.1-0.9-1.6-1.3v2.7h-5v6h7.4v3.8h-7.4v11.8h-4v-11.8h-7.3V142h7.3v-6h-4.9v-2.4
			c-0.5,0.4-0.9,0.7-1.3,1l-2.2-3.5c3.9-2.6,6.9-6.1,9-10.4H217.3z M221,132.3c-2.4-2.3-4.2-4.9-5.5-7.8c-1.6,3.1-3.5,5.7-5.7,7.8
			H221z"/>
		<path fill="#757679" d="M241.1,148.7h-5.4v2.7h-3.5v-27.1h8.9V148.7z M237.6,145.3v-17.5h-1.9v17.5H237.6z M257.9,123.5h9.4v3.7
			h-20.9v9.3c-0.2,8.7-1.6,15.7-4.3,20.9l-2.9-2.5c2.3-4.4,3.6-10.6,3.7-18.4v-13h11c-0.4-0.9-0.8-1.8-1.2-2.5l4.2-0.7
			C257.2,121.2,257.6,122.3,257.9,123.5z M249.4,137.9c-0.1,7-0.8,12.3-2.2,15.8l-1.5-1.4c1.3-3.1,2-7.9,2.1-14.4H249.4z
			 M250.1,132.9v-4.7h3.6v4.7h2.5v3.4h-3.2v21.2h-2.6v-21.2h-3.2v-3.4H250.1z M255.9,137.8v8.7c0,0.5,0.2,0.7,0.8,0.7h0.4
			c0.3-2.7,0.4-5.8,0.5-9.3h1.7c-0.1,7.6-0.7,13.3-1.9,17l-1.5-1.4c0.4-1.1,0.7-2.4,0.9-3.9H256c-1.2,0-1.8-1-1.8-3v-9H255.9z
			 M259.8,132.9v-4.7h3.7v4.7h3v3.4H263v21.2h-2.6v-21.2h-3.2v-3.4H259.8z M265.9,137.9v12.3c0,0.6,0.2,0.9,0.8,0.9h1.3v2.5h-2
			c-1.2,0-1.8-1-1.8-3v-12.6H265.9z"/>
		<path fill="#757679" d="M298.5,126.4c1.6,1.4,2.4,3.3,2.4,5.8c0,2-0.5,3.6-1.5,4.9c-0.4,0.4-1.5,1.5-3.4,3.2
			c-0.7,0.6-1.2,1.2-1.6,2c-0.4,0.8-0.6,1.7-0.6,2.6v0.6h-4.6v-0.6c0-1.5,0.2-2.8,0.8-3.9c0.5-1.1,1.4-2.2,2.8-3.4
			c1.3-1.2,2.1-1.9,2.4-2.3c0.7-0.9,1.1-1.8,1.1-2.8c0-1.3-0.4-2.4-1.1-3.1c-0.8-0.8-1.8-1.1-3.2-1.1c-1.7,0-3,0.5-3.8,1.6
			c-0.7,0.9-1,2.2-1,4h-4.6c0-3,0.8-5.3,2.6-7c1.7-1.7,4-2.5,7-2.5C294.8,124.3,296.9,125,298.5,126.4z M293.7,148.2
			c0.6,0.6,0.9,1.3,0.9,2.2s-0.3,1.6-0.9,2.2c-0.6,0.6-1.4,0.8-2.2,0.8s-1.6-0.3-2.2-0.9c-0.6-0.6-0.9-1.3-0.9-2.2s0.3-1.6,0.9-2.2
			c0.6-0.6,1.3-0.8,2.2-0.8S293.1,147.6,293.7,148.2z"/>
	</g>
	<linearGradient id="SVGID_1_" gradientUnits="userSpaceOnUse" x1="61.4646" y1="102.6515" x2="439.6418" y2="102.6515">
		<stop  offset="0" style="stop-color:#B3B5B8"/>
		<stop  offset="1" style="stop-color:#A9ABAE"/>
	</linearGradient>
	<path fill="url(#SVGID_1_)" d="M61.5,101.4c126.1-1.4,252.2,0.4,378.1,5.5c-0.1,0,0.1-2.5,0-2.5c-125.9-5-252-6.9-378.1-5.5
		C61.4,98.9,61.5,101.4,61.5,101.4L61.5,101.4z"/>
	<linearGradient id="SVGID_2_" gradientUnits="userSpaceOnUse" x1="61.4646" y1="168.861" x2="308.6379" y2="168.861">
		<stop  offset="0" style="stop-color:#B3B5B8"/>
		<stop  offset="1" style="stop-color:#A9ABAE"/>
	</linearGradient>
	<path fill="url(#SVGID_2_)" d="M61.5,167.6c82.4-1.4,164.9,0.4,247.1,5.5c0,0,0.1-2.5,0-2.5c-82.3-5-164.7-6.9-247.1-5.5
		C61.4,165.1,61.5,167.6,61.5,167.6L61.5,167.6z"/>
	<path fill="#FFFFFF" d="M452.4,187.4c0,0,52.5,1.3,84.5-31.8c0,0-29.2,5-58-25.3L452.4,187.4z"/>
</g>
<g>
</g>
<g>
</g>
<g>
</g>
<g>
</g>
<g>
</g>
<g>
</g>
<g>
</g>
<g>
</g>
<g>
</g>
<g>
</g>
<g>
</g>
<g>
</g>
<g>
</g>
<g>
</g>
<g>
</g>
</svg>
