<?xml version="1.0" encoding="utf-8"?>
<!-- Generator: Adobe Illustrator 18.0.0, SVG Export Plug-In . SVG Version: 6.00 Build 0)  -->
<!DOCTYPE svg PUBLIC "-//W3C//DTD SVG 1.1//EN" "http://www.w3.org/Graphics/SVG/1.1/DTD/svg11.dtd">
<svg version="1.1" id="Layer_1" xmlns="http://www.w3.org/2000/svg" xmlns:xlink="http://www.w3.org/1999/xlink" x="0px" y="0px"
	 viewBox="0 0 885.2 405.5" enable-background="new 0 0 885.2 405.5" xml:space="preserve">
<path opacity="0.88" fill="#FFFFFF" d="M835.4,405.5H49.8C22.3,405.5,0,383.2,0,355.7v-306C0,22.3,22.3,0,49.8,0h785.6
	c27.5,0,49.8,22.3,49.8,49.8v306C885.2,383.2,862.9,405.5,835.4,405.5z"/>
<g>
	<path fill="#58595B" d="M104,73.6l-1.4,1.3c-1.1-1.7-2.7-3.6-4.6-5.6l1.3-1.2C101.2,70,102.8,71.8,104,73.6z M104,78.5
		c-1.2,4.7-2.5,9.2-4,13.4l-1.7-0.7c1.6-4.4,2.9-8.8,4.1-13.3L104,78.5z M104.8,64.7l-1.3,1.3c-1.2-1.7-2.8-3.5-4.8-5.5l1.3-1.3
		C101.9,61.1,103.5,62.9,104.8,64.7z M109.7,62.7V59h1.8v3.7h4.6v1.7h-4.6V68h3.6v12.8h-3.6v4h4.5v1.7h-4.5v6h-1.8v-6h-4.9v-1.7h4.9
		v-4h-3.6V68h3.6v-3.6h-4.5v-1.7H109.7z M113.4,73.6v-4h-5.5v4H113.4z M113.4,75.2h-5.5v4h5.5V75.2z M124.7,58.8
		c1.4,3.1,3.7,5.8,7.1,8.1l-1,1.6c-3.1-2.1-5.4-4.8-7-7.9c-1.8,3.4-4.2,6.1-7,7.9l-1-1.6c3-2.1,5.4-4.8,7.1-8.1H124.7z M117.5,90.4
		l1.9,0.1c0.9,0,1.4-0.6,1.4-1.6v-5.5c-1.2,1.5-2.5,2.9-4,4.1l-0.7-1.6c1.8-1.4,3.4-3,4.7-4.9v-9.7h-3.9v-1.7h5.6v19.9
		c0,1.7-0.9,2.6-2.7,2.6H118L117.5,90.4z M119.7,79.7l-1.3,0.6c-0.6-2.4-1.1-4.4-1.8-6.2l1.3-0.4C118.6,75.5,119.2,77.6,119.7,79.7z
		 M124.9,90.4l2.1,0.1c0.8,0,1.2-0.5,1.2-1.5v-6.2c-1.3,1.6-2.8,3-4.5,4.2l-0.7-1.6c2-1.4,3.7-3,5.2-4.9v-9.2h-4.2v-1.7h5.9v19.9
		c0,1.7-0.9,2.6-2.6,2.6h-2L124.9,90.4z M127,79.5l-1.3,0.6c-0.5-2.4-1.1-4.5-1.8-6.4l1.3-0.4C125.8,75.2,126.5,77.3,127,79.5z"/>
	<path fill="#58595B" d="M171.3,60.3v1.9H161v7.2h8.2v12.1h-8.3v7.6h10.9V91h-32.4v-1.9h10.8v-7.5H142V69.4h8.2v-7.1h-10.3v-1.9
		H171.3z M158.9,79.6h8.3v-8.3H159v-9.1h-6.8v9H144v8.3h8.2v9.5h6.8V79.6z"/>
	<path fill="#58595B" d="M180.7,73.4l-1.1-1.8c7.1-2.5,12.2-5.7,15.3-9.6h-7.5V60h10.4c2.9,4.5,8.1,8.2,15.4,10.9l-1.4,1.8
		C205,70,200,66.5,196.7,62c-2.3,3.3-5.7,6.2-10.2,8.7h19.8v2h-8.8v7.2h10.9v2h-10.9v7.4h14.3v2h-30.4v-2h14.1v-7.4h-11v-2h11v-7.2
		h-9.1v-1.9C184.7,71.7,182.8,72.6,180.7,73.4z"/>
	<path fill="#58595B" d="M232.4,61.4v1.9h-4.6v9.3h3.8v1.9h-3.8v8.3c1.6-0.7,3.2-1.4,4.8-2.2v2c-3.6,1.9-7.5,3.4-11.7,4.7l-0.5-2
		c1.8-0.5,3.7-1,5.4-1.7v-9.1h-4.5v-1.9h4.5v-9.3h-4.9v-1.9H232.4z M239.9,81.1c-2.1,2.8-4.7,5.3-7.8,7.5l-0.8-1.9
		c3.2-2,5.9-4.4,8.2-7.3L239.9,81.1z M241.8,65.3v-6.5h1.9v6.5h9v1.9h-9v3.5c0.6,2.1,1.4,4.1,2.3,5.9c1.8-1.9,3.4-4.1,4.9-6.5
		l1.6,1.1c-1.8,2.8-3.7,5.1-5.6,7c2,3.6,4.4,6.8,7.4,9.4l-1.3,1.6c-4.1-3.8-7.1-8.4-9.2-13.9v13.9c0,1.8-0.9,2.7-2.6,2.7h-4.2
		l-0.4-1.9c1.4,0.1,2.7,0.1,4,0.1c0.9,0,1.4-0.5,1.4-1.4V67.2h-8.6v-1.9H241.8z M239,76.9l-1.4,1c-1-1.9-2.4-4-4.1-6.3l1.6-1
		C236.7,73,238,75.1,239,76.9z M252,63.7l-1.3,1.3c-1.2-1.5-2.8-3-4.8-4.6l1.2-1.1C249.1,60.7,250.7,62.3,252,63.7z"/>
	<path fill="#58595B" d="M279.7,61.9h14.9v1.9h-32.5v-1.9h15.5c-0.4-1.1-0.8-2.2-1.3-3.1l2.2-0.4C278.9,59.5,279.3,60.6,279.7,61.9z
		 M285.6,92.3l-0.5-1.8l3,0.1c1.7,0,2.5-0.7,2.5-2V77.9h-24.5v14.4h-1.9V76.1h28.3v12.8c0,2.2-1.3,3.3-3.8,3.3H285.6z M288.4,66.7
		v6.8h-20.1v-6.8H288.4z M286.5,68.3h-16.2v3.5h16.2V68.3z M285.4,80.7v7.1h-14.1v-7.1H285.4z M283.6,82.3h-10.5v3.9h10.5V82.3z"/>
	<path fill="#58595B" d="M303.7,83.1c0.4-0.1,0.7-0.4,0.7-0.8V62h2v20.5c2.1-0.6,4.1-1.3,6.1-2.1V58.8h2v33.4h-2v-9.8
		c-2.6,1-5.4,1.8-8.2,2.5L303.7,83.1z M317,75.1l-1.3-1.5c3.1-3.8,5.2-8.8,6.4-15.1l2,0.4c-0.4,2-0.8,3.9-1.4,5.7h12.7v2h-3.3
		c-0.2,6.3-1.8,11.6-4.6,16c2.4,3.2,5.2,6,8.6,8.4l-1.4,1.6c-3.4-2.4-6.2-5.2-8.5-8.3c-2.4,3.2-5.7,5.8-9.6,8l-1.1-1.8
		c4-2.1,7.2-4.7,9.5-7.8c-2.1-3-3.8-6.4-5-10l1.6-0.9c1.1,3.3,2.7,6.3,4.6,9.1c2.4-4.1,3.8-8.9,3.9-14.4H322
		C320.7,69.9,319.1,72.8,317,75.1z"/>
	<path fill="#58595B" d="M356.5,70.4c-3.2,3.1-7.2,5.7-12,7.7l-0.9-1.8c4.7-1.8,8.6-4.3,11.7-7.3L356.5,70.4z M371.7,89.1h4.8V91
		H344v-1.9h5V77.1h22.7V89.1z M364,65.4c1.6-2.1,3.1-4.4,4.2-6.9l2,0.7c-1.2,2.3-2.5,4.4-4,6.2h9.5v1.9h-31v-1.9H364z M356.2,64.1
		l-1.6,1.1c-1.2-1.7-2.8-3.5-4.8-5.6l1.6-1C353.4,60.7,355.1,62.5,356.2,64.1z M355.9,89.1V79H351v10H355.9z M362.9,89.1V79h-5.1v10
		H362.9z M376.7,76.4l-1.1,1.7c-3.7-3.1-7.6-5.5-11.5-7.3l1.1-1.6C369.3,71.2,373.2,73.6,376.7,76.4z M369.7,89.1V79h-4.9v10H369.7z
		"/>
	<path fill="#58595B" d="M394.2,59.5c-0.8,2.6-1.8,5.1-3,7.4v25.6h-2V70.4c-1.3,2.1-2.8,4-4.4,5.8l-0.6-2.1
		c3.8-4.5,6.5-9.7,8.2-15.4L394.2,59.5z M403.7,88.6c-2.5,1.5-5.7,2.8-9.5,3.8l-0.8-1.7c3.7-0.9,6.8-2,9.2-3.4L403.7,88.6z
		 M406.7,58.6v2.2h9.9v1.6h-9.9V65h8.6v1.6h-8.6v2.6h10.9v1.7h-23.2v-1.7h10.4v-2.6h-8.4V65h8.4v-2.5h-9.6v-1.6h9.6v-2.2H406.7z
		 M414.7,73.1v13.7h-18V73.1H414.7z M412.9,77.2v-2.5h-14.3v2.5H412.9z M412.9,81.2v-2.5h-14.3v2.5H412.9z M412.9,82.7h-14.3v2.5
		h14.3V82.7z M418,90.6l-0.7,1.7c-3-1.4-6.2-2.5-9.5-3.3l0.8-1.5C411.8,88.2,415,89.2,418,90.6z"/>
	<path fill="#58595B" d="M440.1,64.8c0.7-2.1,1.2-4.2,1.6-6.5l2,0.2c-0.4,2.3-0.9,4.4-1.6,6.3h13.7v1.8h-14.4
		c-0.7,1.7-1.4,3.2-2.3,4.6h18.7v1.8h-8.6c1.9,2.8,5.2,5.3,9.8,7.5l-1.3,1.6c-5-2.7-8.5-5.8-10.5-9.1h-9.3c-2.9,3.9-6.8,7-11.6,9.2
		l-1.1-1.7c4.2-1.8,7.6-4.4,10.3-7.5h-9.2v-1.8h10.5c1-1.5,1.8-3,2.5-4.6h-11.1v-1.8H440.1z M432.6,80.5v-1.9h19.1
		c-0.1,3.3-0.3,6-0.6,8.1c-0.3,2-0.8,3.4-1.5,4.2c-0.7,0.7-1.8,1.2-3.4,1.3H441l-0.5-1.9c1.7,0.1,3.3,0.1,4.8,0.1
		c1.7,0,2.8-0.6,3.4-1.8c0.6-1.3,1-4,1.1-8h-9.6c-0.7,2.9-1.8,5.1-3.1,6.8c-1.6,1.9-4,3.5-7.1,5l-1.3-1.6c2.9-1.3,5.1-2.7,6.6-4.3
		c1.3-1.5,2.4-3.5,3-6H432.6z M436,63.7l-1.7,0.7c-0.9-2-1.8-3.7-2.9-5.2l1.8-0.6C434.3,60.2,435.2,61.9,436,63.7z M453,59
		c-0.8,2.1-1.9,3.9-3.2,5.5l-1.5-0.8c1.2-1.5,2.2-3.3,3-5.2L453,59z"/>
	<path fill="#58595B" d="M474.3,61.6v-3h2v3h13.3v-3h2v3h6.8v1.7h-6.8v12.8h7.4v1.8h-8.2c1.8,2.5,4.8,4.5,8.7,5.9l-0.8,1.7
		c-4.7-2-7.9-4.5-9.8-7.6H477c-1.9,3.1-5,5.7-9.5,7.8l-1-1.7c3.9-1.6,6.8-3.7,8.5-6.1h-8.2v-1.8h7.4V63.3h-6.8v-1.7H474.3z
		 M484,79.5v3.2h7.7v1.8H484v4.7h12.9v1.9h-28v-1.9H482v-4.7h-7.8v-1.8h7.8v-3.2H484z M489.6,66.5v-3.2h-13.3v3.2H489.6z
		 M489.6,71.2v-3.1h-13.3v3.1H489.6z M489.6,76.1v-3.2h-13.3v3.2H489.6z"/>
	<path fill="#58595B" d="M524.8,59c3.6,4.5,8.9,8.2,15.8,11.2l-1.1,1.7c-6.4-2.7-11.6-6.4-15.5-10.9c-4.3,4.6-9.5,8.2-15.6,11
		l-1.1-1.6c6.4-2.9,11.7-6.7,15.8-11.3H524.8z M533.5,69.2V71h-8.6v6h13.4v1.9h-13.4v10.5h4.6c1.4-2.5,2.6-5.2,3.6-8.1l1.8,0.7
		c-1,2.8-2.1,5.3-3.4,7.4h8.1v1.9h-31.4v-1.9h8c-0.8-2.5-1.9-4.9-3.3-7.2l1.8-0.7c1.3,2.1,2.4,4.8,3.4,7.8h4.8V78.8h-13.4V77h13.4
		v-6h-8.6v-1.8H533.5z"/>
	<path fill="#58595B" d="M560.7,62.4c2.4,0,4.3,0.6,5.7,1.7c1.4,1.2,2.1,2.8,2.1,4.9c0,1.5-0.4,2.8-1.3,3.9c-0.8,1-2,1.7-3.3,2.1
		c1.7,0.3,3.1,1,4.1,2.1c1,1.1,1.5,2.6,1.5,4.4c0,2.5-0.9,4.4-2.7,5.7c-1.6,1.1-3.7,1.6-6.3,1.6h-11.5V62.4H560.7z M551.3,74.2h8.9
		c1.9,0,3.4-0.4,4.4-1.3c1.1-0.8,1.6-2.1,1.6-3.7c0-1.6-0.6-2.9-1.6-3.7c-1.1-0.8-2.5-1.2-4.4-1.2h-8.9V74.2z M551.3,86.8h9.2
		c2,0,3.5-0.4,4.7-1.2c1.4-1,2.1-2.3,2.1-4.2c0-1.8-0.7-3.2-1.9-4.1c-1.2-0.9-2.8-1.3-4.9-1.3h-9.1V86.8z"/>
	<path fill="#58595B" d="M584,81.1c0.1-0.5,0.1-1,0.1-1.4v-3.3h1.9v3.3c0,0.5,0,1-0.1,1.4h7.2v1.8h-7.5l-0.2,1
		c2.9,2.2,5.3,4.4,7.2,6.6l-1.3,1.3c-1.7-2-3.8-4.1-6.5-6.3c-1.2,3-3.4,5.4-6.6,7.1l-1.5-1.3c3.8-1.9,6.1-4.7,6.9-8.4h-6.2v-1.8H584
		z M583,70.7c-1.4,2.1-3,4-5,5.5l-1-1.4c1.9-1.5,3.5-3.2,4.8-5.2L583,70.7z M584.6,66.1v-7.2h1.9v7.2h6.5v1.7h-6.5v7.4h-1.9v-7.4
		h-6.8v-1.7H584.6z M582.6,64.1l-1.5,0.7c-0.8-1.7-1.7-3.3-2.6-4.6l1.6-0.5C581.1,61,581.9,62.5,582.6,64.1z M592.3,79.6l-1.4,1
		c-0.7-1.1-1.7-2.4-2.9-3.7l1.3-0.8C590.6,77.4,591.6,78.6,592.3,79.6z M593.7,74.3l-1.1,1.3c-1.4-1.9-2.9-3.5-4.5-4.9l1.1-1.1
		C590.8,70.9,592.3,72.5,593.7,74.3z M592.3,60c-0.7,1.7-1.6,3.2-2.5,4.5l-1.3-1c0.9-1.2,1.7-2.6,2.4-4.2L592.3,60z M600.9,86.6
		c-1.7,2.3-3.8,4.3-6.2,6l-1.1-1.5c2.4-1.6,4.4-3.5,6.1-5.7L600.9,86.6z M610,60.3v1.8h-7c-0.1,1.3-0.1,2.4-0.3,3.5h6v19.2h-13.2
		V65.6h5.2c0.1-1.1,0.3-2.3,0.3-3.5h-7.2v-1.8H610z M606.8,71.5v-4.1h-9.4v4.1H606.8z M606.8,77.2v-4h-9.4v4H606.8z M606.8,78.8
		h-9.4v4.2h9.4V78.8z M610.5,91l-1.3,1.3c-1.5-1.8-3.4-3.7-5.9-5.7l1.3-1.2C606.9,87.3,608.9,89.2,610.5,91z"/>
	<path fill="#58595B" d="M633.6,82.6V79h2v3.6h12.9v1.9h-12.9v4.9h15v1.9h-32.3v-1.9h15.3v-4.9h-13.2v-1.9H633.6z M636.7,60.5v1.8
		h-4v6.1h4.7v1.9h-4.7v8.3h-1.9v-8.3h-5.4c-0.4,3.9-1.8,6.9-4.4,8.8l-1.5-1.3c2.3-1.7,3.5-4.1,3.9-7.5h-4.8v-1.9h4.9v-6.1h-4v-1.8
		H636.7z M625.5,68.4h5.3v-6.1h-5.3V68.4z M642,61.2v12.7h-1.9V61.2H642z M641.1,78.9l-0.4-1.9c1.6,0.1,3.2,0.1,4.7,0.1
		c0.9,0,1.4-0.6,1.4-1.7V59.1h2v16.8c0,2-0.9,3-2.7,3H641.1z"/>
	<path fill="#58595B" d="M677.4,78.2v1.9h-18.7v-1.9H677.4z"/>
	<path fill="#58595B" d="M702.5,66.8c2.1,10.3,7.5,18.1,16.2,23.5l-1.3,1.7c-7.9-5.1-13.1-12.1-15.6-20.8c-2,8.4-7.3,15.3-15.9,20.8
		l-1.2-1.8c10.3-6.4,15.6-14.9,16-25.6c0-2.6,0-4.6,0-6h2C702.8,61.9,702.7,64.6,702.5,66.8z"/>
	<path fill="#58595B" d="M732,89.4c3.4-0.7,6.8-1.6,10.2-2.8l0.4,1.9c-3.4,1.1-7.7,2.2-12.9,3.3l-0.5-1.8c0.4-0.2,0.7-0.6,0.7-1
		V60.3h26v10.2h-10.7c0.1,2.1,0.4,4.1,0.8,5.8h12.3v1.9h-11.9c0.3,1.3,0.7,2.4,1.1,3.4c1.3,2.9,2.6,5,4.1,6.4
		c1.3,1.2,2.6,1.8,3.7,1.8c0.5,0,0.9-0.4,1.3-1.1c0.4-0.8,0.7-2.5,1-5.1l1.8,1c-0.4,3.1-1,5.1-1.6,6c-0.6,0.9-1.3,1.4-2.1,1.4
		c-1.7,0-3.4-0.9-5.2-2.5c-1.8-1.7-3.4-4.1-4.7-7.3c-0.5-1.2-0.9-2.5-1.3-3.9H732V89.4z M732,62.2v6.4h22.1v-6.4H732z M732,70.5v5.8
		h12.2c-0.4-1.8-0.7-3.8-0.9-5.8H732z"/>
	<path fill="#58595B" d="M779.9,77l-0.4-1.6l1.8,0.1c0.7,0,1.1-0.4,1.1-1.2v-8.6h-5.1v11h-1.6v-11h-5.3V77h-1.7V64h7v-5.3h1.7V64
		h6.8v10.6c0,1.6-0.8,2.4-2.3,2.4H779.9z M773.4,62.9l-1.5,0.7c-0.8-1.5-1.6-2.8-2.5-3.9l1.5-0.7C771.8,60.1,772.6,61.4,773.4,62.9z
		 M790.5,90.2l-0.5-1.9l3.3,0.1c0.9,0,1.4-0.4,1.4-1.3V82h-10.1v10.4h-2V82h-10.1v7.8h-2v-9.6h12.1v-3h2v3h12.1v7.3
		c0,1.8-0.9,2.7-2.7,2.7H790.5z M774.1,67.8c-0.1,2.4-0.6,4.5-1.2,6.4l-1.4-0.5c0.7-1.8,1.1-3.8,1.2-6.1L774.1,67.8z M781.2,72.5
		l-1.4,0.4c-0.4-1.8-0.8-3.5-1.4-5.1l1.3-0.4C780.3,68.9,780.8,70.6,781.2,72.5z M783.5,59.6c-0.6,1.3-1.4,2.7-2.4,4l-1.5-0.8
		c1-1.3,1.7-2.6,2.3-3.9L783.5,59.6z M785.9,69.5l-1.1-1.4c2.4-2.5,4-5.7,4.9-9.3l1.8,0.2c-0.3,1.3-0.7,2.5-1.1,3.6h9v1.8h-1.8
		c-0.8,3.1-2.1,5.7-3.7,7.7c1.8,1.5,4,2.8,6.4,4l-0.9,1.7c-2.6-1.3-4.8-2.7-6.6-4.3c-1.8,1.7-3.9,3-6.4,3.8l-0.9-1.6
		c2.4-0.8,4.4-2,5.9-3.5c-1.2-1.2-2.2-2.4-3.1-3.7l0.9-1.4c1,1.3,2.1,2.5,3.3,3.7c1.5-1.8,2.5-4,3.2-6.5h-6.2
		C788.6,66.2,787.4,68,785.9,69.5z"/>
	<path fill="#58595B" d="M106,113.6c-1.5,2.4-2.7,4.9-3.5,7.7c-1.1,3.3-1.6,6.4-1.6,9.6c0,3.1,0.5,6.3,1.6,9.6
		c0.8,2.7,2,5.2,3.5,7.7h-2c-1.6-2.4-2.8-4.9-3.7-7.6c-1.1-3.3-1.6-6.5-1.6-9.6c0-3.2,0.5-6.4,1.6-9.6c0.9-2.7,2.1-5.3,3.7-7.6H106z
		"/>
	<path fill="#58595B" d="M129.8,121.1v-6.9h2v6.9h14.7v2h-12.6c2.5,6.1,7.1,11.6,13.7,16.4l-1.3,1.7c-6.7-5.4-11.4-11.4-14-18.1
		h-0.5v15h8.2v2h-8.2v7.8h-2V140h-7.9v-2h7.9v-15h-0.5c-2.7,7.6-7.5,13.7-14.3,18.5l-1.1-1.8c6.5-4.3,11.2-9.9,13.9-16.7h-12.6v-2
		H129.8z"/>
	<path fill="#58595B" d="M162.9,117v-3h2v3h13.3v-3h2v3h6.8v1.7h-6.8v12.8h7.4v1.8h-8.2c1.8,2.5,4.8,4.5,8.7,5.9l-0.8,1.7
		c-4.7-2-7.9-4.5-9.8-7.6h-11.8c-1.9,3.1-5,5.7-9.5,7.8l-1-1.7c3.9-1.6,6.8-3.7,8.5-6.1h-8.2v-1.8h7.4v-12.8h-6.8V117H162.9z
		 M172.6,134.9v3.2h7.7v1.8h-7.7v4.7h12.9v1.9h-28v-1.9h13.1v-4.7h-7.8v-1.8h7.8v-3.2H172.6z M178.3,122v-3.2h-13.3v3.2H178.3z
		 M178.3,126.6v-3.1h-13.3v3.1H178.3z M178.3,131.5v-3.2h-13.3v3.2H178.3z"/>
	<path fill="#58595B" d="M213.3,114.5c3.6,4.5,8.9,8.2,15.8,11.2l-1.1,1.7c-6.4-2.7-11.6-6.4-15.5-10.9c-4.3,4.6-9.5,8.2-15.6,11
		l-1.1-1.6c6.4-2.9,11.7-6.7,15.8-11.3H213.3z M222,124.6v1.8h-8.6v6h13.4v1.9h-13.4v10.5h4.6c1.4-2.5,2.6-5.2,3.6-8.1l1.8,0.7
		c-1,2.8-2.1,5.3-3.4,7.4h8.1v1.9h-31.4v-1.9h8c-0.8-2.5-1.9-4.9-3.3-7.2l1.8-0.7c1.3,2.1,2.4,4.8,3.4,7.8h4.8v-10.5H198v-1.9h13.4
		v-6h-8.6v-1.8H222z"/>
	<path fill="#58595B" d="M238.2,122.5v-2h30v2h-14v9.5h12.2v1.9h-12.2v10.6h15.3v2H237v-2h15.3V134H240V132h12.2v-9.5H238.2z
		 M254.3,119.6l-1.8,0.7c-0.6-2-1.4-3.9-2.3-5.7l2-0.6C253.1,116.1,253.8,117.9,254.3,119.6z"/>
	<path fill="#58595B" d="M310.3,115.7v1.8h-11.2v3.8h8.8v8.9h-15.6c-0.7,1.4-1.4,2.6-2.1,3.8h20.4v1.9h-8.1
		c-0.8,2.4-2.3,4.5-4.4,6.1c3.9,1.2,7.9,2.7,12,4.3l-1.2,1.6c-4.2-1.8-8.4-3.3-12.6-4.7c-0.1,0-0.1,0.1-0.1,0.1
		c-3.5,1.9-9.3,3.4-17.2,4.4l-0.8-1.8c7.1-0.8,12.3-2,15.7-3.5c-3.2-1-6.4-1.8-9.6-2.5c0.9-1.3,1.7-2.7,2.5-4h-9.5V134H288
		c0.7-1.3,1.5-2.5,2.2-3.8h-10v-8.9h8.8v-3.8h-11.2v-1.8H310.3z M288.9,123.1H282v5.4h6.9V123.1z M300.5,135.9h-11.5
		c-0.7,1.2-1.4,2.2-2,3.1c2.9,0.6,5.9,1.4,8.9,2.3C298.3,139.9,299.8,138.1,300.5,135.9z M297.2,117.5h-6.4v3.8h6.4V117.5z
		 M297.2,123.1h-6.4v5.4h6.4V123.1z M306,123.1h-6.9v5.4h6.9V123.1z"/>
	<path fill="#58595B" d="M328.3,114.8c-1,2.8-2.1,5.5-3.5,8.1v25h-2v-21.8c-1.3,1.9-2.8,3.8-4.4,5.5l-0.7-2.1
		c4.1-4.6,7-9.7,8.8-15.5L328.3,114.8z M334.6,138.5c-1.6,2.9-3.5,5.4-5.7,7.5l-1.5-1.1c2.1-2,4-4.5,5.5-7.3L334.6,138.5z
		 M346.7,115.2c-2.3,1.2-4.5,2.2-6.9,3c-2.6,0.8-5.8,1.7-9.7,2.4l-1-1.6c3.5-0.6,6.6-1.3,9.3-2.1c2.5-0.7,4.7-1.6,6.7-2.6
		L346.7,115.2z M334.9,147.6l-0.4-1.8c1,0.1,1.9,0.1,2.8,0.1c1,0,1.6-0.4,1.6-1.3v-9.4c-2.9,0.1-5.8,0.3-8.9,0.4l-0.4-1.7
		c0.2-0.1,0.5-0.1,0.7-0.2c3.1-1.1,6.7-3.2,10.9-6.1c-3.3,0.1-6.7,0.3-10.3,0.4l-0.4-1.6c0.3-0.1,0.5-0.1,0.7-0.2
		c2.7-1,6.1-3.3,10.2-6.8l1.8,0.7c-3.4,2.8-6.4,4.9-8.9,6.3c3.1-0.1,6.2-0.3,9.1-0.4c1.3-1,2.7-2.1,4-3.2l1.8,0.8
		c-5.8,4.7-11,8.2-15.4,10.3c4.5-0.2,8.9-0.4,13.1-0.8c-0.9-1.3-1.8-2.4-2.7-3.5l1.6-0.7c1.9,2.1,3.6,4.5,5.1,7.1l-1.6,0.8
		c-0.4-0.8-0.9-1.5-1.3-2.2l-7.2,0.4v9.9c0,1.7-1,2.6-2.8,2.6H334.9z M351.4,144.9l-1.5,1.1c-1.4-2.2-3.4-4.7-5.9-7.4l1.5-1
		C348.1,140.5,350,142.9,351.4,144.9z"/>
	<path fill="#58595B" d="M359.9,147.3l-0.4-1.9c1,0.1,2,0.1,2.9,0.1c1.1,0,1.7-0.6,1.7-1.7V134c-1.6,0.7-3.3,1.3-4.9,1.8l-0.5-2
		c1.8-0.5,3.7-1.1,5.5-1.9V123h-4.7v-2h4.7v-6.9h2v6.9h4.5v2H366v8.1c1.5-0.7,2.9-1.5,4.3-2.3v2c-1.4,0.8-2.8,1.6-4.3,2.3v11.3
		c0,2-1,3-3,3H359.9z M389.2,130.1v1.9c-1.2,3.6-3.2,6.7-6,9.3c2.5,1.8,5.7,3.5,9.5,4.9l-1.1,1.7c-3.9-1.6-7.2-3.4-9.8-5.4
		c-2.9,2.3-6.5,4.1-10.8,5.4l-1.1-1.7c4.1-1.3,7.5-3,10.3-5.1c-3-2.7-4.9-5.7-6-9h-2.4v-2H389.2z M386.7,115.7v8.2
		c0,0.9,0.5,1.4,1.6,1.4h3.3v1.9h-3.7c-2.1,0-3.1-1-3.1-3v-6.6H377v2.5c0,3.4-1.7,6.1-5.1,7.9l-1.4-1.6c3-1.4,4.4-3.5,4.4-6.2v-4.6
		H386.7z M381.7,140c2.5-2.3,4.4-4.9,5.6-7.9h-11.1C377.1,135,379,137.7,381.7,140z"/>
	<path fill="#58595B" d="M410.7,123.1v1.7h-10.6v-1.7H410.7z M413.2,144.2c-2.8,1.6-6.8,2.8-11.9,3.7l-0.9-1.6
		c5.2-0.9,9.2-2.1,11.9-3.5L413.2,144.2z M409.9,116.4v1.8H401v-1.8H409.9z M428.2,128.1v14.1h-23.4v-14.1H428.2z M426.2,132.4v-2.7
		h-19.5v2.7H426.2z M426.2,136.4v-2.5h-19.5v2.5H426.2z M426.2,137.8h-19.5v2.7h19.5V137.8z M412,122.2l-1.1-1.5
		c2.7-1.8,4.6-4.1,5.6-6.8l1.9,0.2c-0.3,0.7-0.6,1.4-0.9,2.1h13.5v1.5c-1,1.9-2.1,3.5-3.3,4.9l-1.4-1.1c0.9-1,1.8-2.2,2.5-3.5h-12.4
		C415.2,119.6,413.7,121,412,122.2z M422.8,119.3c-0.1,0.6-0.4,1.2-0.6,1.7c2.7,2.9,6.2,4.7,10.5,5.2l-0.8,1.7
		c-4.2-0.7-7.7-2.5-10.5-5.5c-1.7,2.6-4.6,4.3-8.7,5.1l-1-1.5c5.2-1,8.4-3.4,9.3-7.2L422.8,119.3z M432.5,146.3l-0.6,1.6
		c-3.9-1.6-8.1-2.7-12.3-3.6l0.7-1.4C424.5,143.7,428.6,144.8,432.5,146.3z"/>
	<path fill="#58595B" d="M455.8,119.6v2h-9.3v5.7h7.1c0,8.9-0.2,14.4-0.6,16.5c-0.3,2.3-1.7,3.5-4.4,3.5c-0.4,0-1,0-1.8-0.1
		l-0.4-1.7c0.8,0.1,1.5,0.1,2.1,0.1c1.6,0,2.5-0.8,2.8-2.3c0.2-1.6,0.4-6.3,0.4-14.1h-5.2c-0.2,8.4-1.7,14.6-4.5,18.5l-1.5-1.3
		c2.7-3.8,4-9.8,4.1-18v-6.8H441v-2H455.8z M449.8,118.9l-1.7,0.6c-0.6-1.7-1.4-3.4-2.3-4.9l2-0.5
		C448.6,115.8,449.3,117.4,449.8,118.9z M465,114.4c1.8,5.2,4.9,9.8,9.2,13.7l-1.1,1.7c-4-3.6-7-8-9-13.3
		c-2.2,5.9-4.9,10.4-8.3,13.6l-1.1-1.7c3.7-3.6,6.5-8.3,8.5-14H465z M472,146.3l-1.3,1.5c-3.5-3.1-8.1-5.9-13.5-8.6l1.2-1.4
		C463.7,140.4,468.2,143.2,472,146.3z M469.3,135.2l-1.2,1.4c-2-2.5-4.6-4.8-7.8-7.1l1.1-1.4C464.6,130.3,467.1,132.6,469.3,135.2z"
		/>
	<path fill="#58595B" d="M492.8,120.2v-6.1h2V132c-0.1,7.2-2.2,12.4-6.3,15.7l-1.6-1.3c2.7-2.1,4.4-5,5.2-8.8
		c-3.3,0.8-6.7,1.6-10.3,2.1l-0.5-2c3.9-0.5,7.6-1.2,11.2-2.1c0.1-1.2,0.2-2.4,0.3-3.7v-1.6H483v-1.9h9.8v-6.4h-10.6v-1.9H492.8z
		 M503.2,114.1v6.1h10.6v1.9h-10.6v6.4h9.8v1.9h-9.8v6.5h11.2v1.9h-11.2v9h-2v-33.7H503.2z"/>
	<path fill="#58595B" d="M523.1,147.3l-0.4-1.9c1,0.1,2,0.1,2.9,0.1c1.1,0,1.7-0.6,1.7-1.7V134c-1.6,0.7-3.3,1.3-4.9,1.8l-0.5-2
		c1.8-0.5,3.7-1.1,5.5-1.9V123h-4.7v-2h4.7v-6.9h2v6.9h4.5v2h-4.5v8.1c1.5-0.7,2.9-1.5,4.3-2.3v2c-1.4,0.8-2.8,1.6-4.3,2.3v11.3
		c0,2-1,3-3,3H523.1z M552.4,130.1v1.9c-1.2,3.6-3.2,6.7-6,9.3c2.5,1.8,5.7,3.5,9.5,4.9l-1.1,1.7c-3.9-1.6-7.2-3.4-9.8-5.4
		c-2.9,2.3-6.5,4.1-10.8,5.4l-1.1-1.7c4.1-1.3,7.5-3,10.3-5.1c-3-2.7-4.9-5.7-6-9h-2.4v-2H552.4z M549.9,115.7v8.2
		c0,0.9,0.5,1.4,1.6,1.4h3.3v1.9h-3.7c-2.1,0-3.1-1-3.1-3v-6.6h-7.8v2.5c0,3.4-1.7,6.1-5.1,7.9l-1.4-1.6c3-1.4,4.4-3.5,4.4-6.2v-4.6
		H549.9z M544.9,140c2.5-2.3,4.4-4.9,5.6-7.9h-11.1C540.3,135,542.2,137.7,544.9,140z"/>
	<path fill="#58595B" d="M573.9,123.1v1.7h-10.6v-1.7H573.9z M576.4,144.2c-2.8,1.6-6.8,2.8-11.9,3.7l-0.9-1.6
		c5.2-0.9,9.2-2.1,11.9-3.5L576.4,144.2z M573.1,116.4v1.8h-8.9v-1.8H573.1z M591.4,128.1v14.1h-23.4v-14.1H591.4z M589.4,132.4
		v-2.7h-19.5v2.7H589.4z M589.4,136.4v-2.5h-19.5v2.5H589.4z M589.4,137.8h-19.5v2.7h19.5V137.8z M575.2,122.2l-1.1-1.5
		c2.7-1.8,4.6-4.1,5.6-6.8l1.9,0.2c-0.3,0.7-0.6,1.4-0.9,2.1h13.5v1.5c-1,1.9-2.1,3.5-3.3,4.9l-1.4-1.1c0.9-1,1.8-2.2,2.5-3.5h-12.4
		C578.4,119.6,576.9,121,575.2,122.2z M586,119.3c-0.1,0.6-0.4,1.2-0.6,1.7c2.7,2.9,6.2,4.7,10.5,5.2l-0.8,1.7
		c-4.2-0.7-7.7-2.5-10.5-5.5c-1.7,2.6-4.6,4.3-8.7,5.1l-1-1.5c5.2-1,8.4-3.4,9.3-7.2L586,119.3z M595.7,146.3l-0.6,1.6
		c-3.9-1.6-8.1-2.7-12.3-3.6l0.7-1.4C587.7,143.7,591.8,144.8,595.7,146.3z"/>
	<path fill="#58595B" d="M605.9,123.5l-1.7-1.1c2.2-2.5,3.8-5.4,4.9-8.5l1.9,0.4c-0.3,0.9-0.7,1.8-1,2.7h9.9v1.7h-6.6
		c1.1,1.4,1.9,2.7,2.5,3.9l-1.8,0.7c-0.8-1.6-1.8-3.1-2.9-4.6h-2C608.1,120.4,607.1,122,605.9,123.5z M619.4,131v-4.2h-13.3v-1.8
		h13.3v-2.7h2v2.7h13.4v1.8h-13.4v4.2h11.7v1.8h-3.8v4.1h7.2v1.8h-7.2v6.2c0,1.8-1,2.8-3,2.8H621l-0.4-1.9c1.8,0.1,3.5,0.1,5.1,0.1
		c1.1,0,1.7-0.5,1.7-1.6v-5.8h-23.1v-1.8h23.1v-4.1h-19.5V131H619.4z M616.8,145.3l-1.6,1.1c-1.2-1.6-2.8-3.4-4.8-5.3l1.6-1
		C614.2,142,615.7,143.8,616.8,145.3z M621.9,122l-1.6-1c1.6-2.1,2.8-4.5,3.6-7.1l1.9,0.4c-0.3,0.9-0.6,1.8-0.9,2.6h10.9v1.7h-7
		c1.1,1.4,2,2.8,2.6,4l-1.8,0.7c-0.8-1.6-1.8-3.2-2.9-4.7h-2.6C623.4,119.8,622.7,121,621.9,122z"/>
	<path fill="#58595B" d="M648.2,138.6c-0.3,3.2-0.8,6-1.7,8.5l-1.8-0.6c1-2.4,1.6-5.1,1.8-8.2L648.2,138.6z M658.3,135.9l-1.6,0.4
		c-0.2-0.8-0.4-1.6-0.6-2.3c-3.6,1.1-7.1,1.9-10.5,2.4l-0.5-1.8c0.3-0.1,0.6-0.3,0.8-0.6c1.7-1.6,3.6-4.1,5.9-7.6
		c-2.2,0.4-4.4,0.7-6.5,1l-0.5-1.7c0.3-0.1,0.6-0.4,0.8-0.7c2-3,3.8-6.5,5.3-10.5l1.9,0.7c-1.9,4.3-3.8,7.8-5.7,10.3
		c1.9-0.2,3.8-0.6,5.7-1c0.9-1.4,1.8-3,2.7-4.6l1.8,0.7c-3.8,6.6-7,11.1-9.5,13.6c2.5-0.4,5.1-1,7.6-1.8c-0.4-1.2-0.8-2.4-1.3-3.5
		l1.6-0.5C656.8,130.6,657.6,133.1,658.3,135.9z M653.3,145.4l-1.7,0.4c-0.3-2.9-0.7-5.4-1.1-7.5l1.6-0.4
		C652.6,140.2,653,142.7,653.3,145.4z M658,142.3l-1.5,0.7c-0.6-2.1-1.3-3.9-2.1-5.5l1.5-0.5C656.7,138.6,657.4,140.4,658,142.3z
		 M658.2,117.7v-1.8h16v1c-0.6,3.8-1.4,6.9-2.3,9.5h4.5v1.8c-0.9,4.7-2.6,8.7-5.1,12c2,2.2,4.3,4.2,6.9,5.9l-1.3,1.6
		c-2.5-1.8-4.8-3.9-6.8-6.1c-2.2,2.4-4.8,4.5-8,6.2l-1.3-1.5c3.2-1.7,5.8-3.8,8-6.2c-2.4-3-4.4-6.3-5.8-9.9
		c-0.8,7.6-2.7,13.4-5.5,17.4l-1.4-1.3c3.6-5.2,5.4-13.4,5.5-24.9v-3.8H658.2z M670,126.3c0.8-2.4,1.6-5.3,2.1-8.6h-8.7v3.8
		c0,1.7-0.1,3.3-0.1,4.8H670z M670,138.6c2.3-3,3.8-6.5,4.5-10.5h-10.5C665.6,132.1,667.5,135.6,670,138.6z"/>
	<path fill="#58595B" d="M703.5,120.7h11.6v1.6c-4.4,8.2-10.8,14.5-19.3,18.9c0.1,0.1,0.3,0.3,0.4,0.5c1.6,2,3.8,3.1,6.5,3.3
		c1.7,0.1,4.2,0.1,7.4,0.1c2,0,4.7,0,8.1-0.1l-0.5,2h-7.3c-3.3,0-5.5,0-6.9-0.1c-3.9-0.1-6.9-1.6-9-4.5c-0.7-0.8-1.3-1.2-1.8-1.2
		c-1.2,0-2.8,2.1-4.9,6.5l-1.7-1.1c2.4-4.9,4.6-7.4,6.7-7.4c0.5,0,0.9,0.1,1.2,0.4l0.3,0.2c8.1-4.1,14.1-9.8,18.3-17h-24.4v-2h13.1
		c-1-2.3-2.3-4.5-3.6-6.4l2.3-0.4C701.2,115.9,702.4,118.1,703.5,120.7z"/>
	<path fill="#58595B" d="M744.1,117.3H759v1.9h-32.5v-1.9H742c-0.4-1.1-0.8-2.2-1.3-3.1l2.2-0.4C743.3,114.9,743.7,116,744.1,117.3z
		 M750,147.7l-0.5-1.8l3,0.1c1.7,0,2.5-0.7,2.5-2v-10.6h-24.5v14.4h-1.9v-16.2H757v12.8c0,2.2-1.3,3.3-3.8,3.3H750z M752.9,122.1
		v6.8h-20.1v-6.8H752.9z M750.9,123.7h-16.2v3.5h16.2V123.7z M749.9,136.1v7.1h-14.1v-7.1H749.9z M748,137.7h-10.5v3.9H748V137.7z"
		/>
	<path fill="#58595B" d="M795.2,115.5v15.8c0,5.9,0.2,9.7,0.6,11.4c0.4,1.6,0.8,2.5,1.4,2.5c0.7,0,1.3-2,1.7-6l1.6,0.8
		c-0.4,2.9-0.9,4.9-1.4,6c-0.5,0.9-1.1,1.4-1.7,1.4c-1.4,0-2.5-1.1-3.1-3.3c-0.7-2.1-1-6.4-1-12.8v-13.9h-21.8v13.1
		c-0.1,6.9-1.1,12.6-3.1,17.3l-1.6-1.3c1.7-4.2,2.6-9.6,2.7-16v-15H795.2z M791.1,121.2v1.8h-7.8v4h6.7v10.5h-6.7v6.2
		c2-0.3,3.7-0.7,5-1.1c-0.5-1.1-1.1-2.1-1.6-3l1.6-0.6c1.5,2.3,2.7,4.8,3.8,7.5l-1.8,0.8c-0.4-1-0.8-2-1.2-2.9
		c-3.6,1-8.9,1.8-15.8,2.3l-0.6-1.9c3.2-0.2,6.1-0.4,8.5-0.7v-6.5h-6.7V127h6.7v-4h-7.8v-1.8H791.1z M781.3,128.8h-4.9v7h4.9V128.8z
		 M788.2,128.8h-4.9v7h4.9V128.8z"/>
	<path fill="#58595B" d="M109.6,171.2v1.6c-1,3.5-2.2,7.1-3.6,10.8c2.1,3,3.3,5.9,3.4,8.5c0,1.5-0.4,2.6-1.1,3.3
		c-0.9,0.8-2.5,1.3-4.8,1.3l-0.6-2c0.4,0,0.8,0.1,1.1,0.1c1.4-0.1,2.3-0.3,2.8-0.7c0.4-0.4,0.7-1,0.7-2c0-2.5-1.1-5.2-3.4-8.2
		c1.6-4,2.7-7.6,3.6-10.7h-6.1v30.1h-2v-32H109.6z M109.8,203l-1.4-1.2c3.1-2.3,5.4-5.4,7-9.4l1.7,0.7c-0.4,1-0.9,2-1.4,2.9
		c1.5,1,2.8,2,3.9,3.1l-1.3,1.3c-0.9-1-2.1-2-3.4-3C113.5,199.6,111.8,201.5,109.8,203z M110,179.8l-1-1.6c4.5-2.1,7.9-4.9,10.3-8.3
		h1.7c2,3.1,5.5,5.8,10.4,8.2l-1.1,1.6c-4.6-2.1-8-4.8-10.2-7.9c-1.8,2.3-3.8,4.2-6.1,5.8h12.1v1.8H114v-1.7
		C112.7,178.4,111.4,179.1,110,179.8z M119,182.4v8.7h-7.9v-8.7H119z M117.3,184h-4.5v5.4h4.5V184z M119.8,203l-1.4-1.2
		c3-2.3,5.3-5.4,6.9-9.2l1.7,0.7c-0.5,1.1-1,2.2-1.6,3.2c2.4,1.6,4.4,3.3,6,4.9l-1.3,1.3c-1.4-1.6-3.3-3.1-5.5-4.8
		C123.1,199.9,121.6,201.6,119.8,203z M129.6,182.4v8.7h-7.9v-8.7H129.6z M128,184h-4.5v5.4h4.5V184z"/>
	<path fill="#58595B" d="M147.4,170.3c-0.8,2.6-1.8,5.1-3,7.4v25.6h-2v-22.1c-1.3,2.1-2.8,4-4.4,5.8l-0.6-2.1
		c3.8-4.5,6.5-9.7,8.2-15.4L147.4,170.3z M156.9,199.4c-2.5,1.5-5.7,2.8-9.5,3.8l-0.8-1.7c3.7-0.9,6.8-2,9.2-3.4L156.9,199.4z
		 M160,169.4v2.2h9.9v1.6H160v2.5h8.6v1.6H160v2.6h10.9v1.7h-23.2v-1.7H158v-2.6h-8.4v-1.6h8.4v-2.5h-9.6v-1.6h9.6v-2.2H160z
		 M167.9,183.9v13.7h-18v-13.7H167.9z M166.1,188v-2.5h-14.3v2.5H166.1z M166.1,192.1v-2.5h-14.3v2.5H166.1z M166.1,193.5h-14.3v2.5
		h14.3V193.5z M171.2,201.4l-0.7,1.7c-3-1.4-6.2-2.5-9.5-3.3l0.8-1.5C165.1,199,168.2,200,171.2,201.4z"/>
	<path fill="#58595B" d="M192.1,175.6c0.7-2.1,1.2-4.2,1.6-6.5l2,0.2c-0.4,2.3-0.9,4.4-1.6,6.3h13.7v1.8h-14.4
		c-0.7,1.7-1.4,3.2-2.3,4.6h18.7v1.8h-8.6c1.9,2.8,5.2,5.3,9.8,7.5l-1.3,1.6c-5-2.7-8.5-5.8-10.5-9.1h-9.3c-2.9,3.9-6.8,7-11.6,9.2
		l-1.1-1.7c4.2-1.8,7.6-4.4,10.3-7.5h-9.2V182h10.5c1-1.5,1.8-3,2.5-4.6h-11.1v-1.8H192.1z M184.6,191.3v-1.9h19.1
		c-0.1,3.3-0.3,6-0.6,8.1c-0.3,2-0.8,3.4-1.5,4.2c-0.7,0.7-1.8,1.2-3.4,1.3H193l-0.5-1.9c1.7,0.1,3.3,0.1,4.8,0.1
		c1.7,0,2.8-0.6,3.4-1.8c0.6-1.3,1-4,1.1-8h-9.6c-0.7,2.9-1.8,5.1-3.1,6.8c-1.6,1.9-4,3.5-7.1,5l-1.3-1.6c2.9-1.3,5.1-2.7,6.6-4.3
		c1.3-1.5,2.4-3.5,3-6H184.6z M188,174.5l-1.7,0.7c-0.9-2-1.8-3.7-2.9-5.2l1.8-0.6C186.3,171,187.2,172.7,188,174.5z M205,169.8
		c-0.8,2.1-1.9,3.9-3.2,5.5l-1.5-0.8c1.2-1.5,2.2-3.3,3-5.2L205,169.8z"/>
	<path fill="#58595B" d="M223.3,199.9v-28.8h21v28.8h5.8v2h-32.6v-2H223.3z M242.3,173h-17v7.4h17V173z M225.3,190h17v-7.7h-17V190z
		 M225.3,199.9h17v-8h-17V199.9z"/>
	<path fill="#58595B" d="M273.5,171.2v1.8h-5v5h4.3v24.6H271v-1.8h-11.2v2h-1.7V178h4.1v-5h-5v-1.8H273.5z M271,199v-9.9h-2.2
		c-1.4,0-2.1-0.7-2.1-2v-7.4H264v2.9c0,3.9-0.9,6.7-2.7,8.6l-1.1-1c1.6-1.6,2.4-4.1,2.4-7.6v-2.9h-2.8V199H271z M269.3,193.1v1.7
		h-7.8v-1.7H269.3z M266.8,178v-5h-2.9v5H266.8z M271,179.8h-2.9v7c0,0.5,0.3,0.8,1,0.8h1.9V179.8z M288.9,200.4
		c-0.6,1.1-1.6,1.7-3.3,1.7h-6.8c-2.1,0-3.1-1.1-3.1-3.2v-15.3h10.3V173h-11.1v-1.8h13v14.3h-10.3v12.8c0,1.3,0.6,1.9,1.8,2h5.8
		c1.1,0,1.8-0.6,2.2-1.6c0.3-1,0.6-3.1,0.7-6.2l1.8,0.6C289.9,196.8,289.5,199.3,288.9,200.4z"/>
	<path fill="#58595B" d="M302.1,193.1c-0.9,3.4-2.2,6.3-3.8,8.8l-1.7-1.1c1.6-2.4,2.8-5.1,3.5-8.1L302.1,193.1z M310,172.4
		c0.6-1,1-2,1.3-3.1l2.1,0.3c-0.3,1-0.7,1.9-1.2,2.8h12.5V190h-22.8v-17.6H310z M322.7,177.7v-3.6h-18.8v3.6H322.7z M322.7,182.9
		v-3.5h-18.8v3.5H322.7z M322.7,184.6h-18.8v3.7h18.8V184.6z M308,202.6c-1.9,0-2.8-0.9-2.8-2.8v-7.3h2v6.8c0,1,0.4,1.4,1.3,1.4h8.6
		c0.9,0,1.6-0.2,2-0.6c0.5-0.6,0.8-2.1,1-4.7l1.9,0.6c-0.2,3-0.7,4.9-1.5,5.7c-0.6,0.6-1.6,0.8-3,0.8H308z M317.2,196.5l-1.5,1.1
		c-1.2-1.6-2.8-3.4-4.8-5.4l1.5-0.9C314.4,193.3,316.1,195,317.2,196.5z M330.1,200.1l-1.6,1.1c-1.4-2.4-3.3-5.2-5.7-8.1l1.6-1
		C326.8,195.2,328.7,197.9,330.1,200.1z"/>
	<path fill="#58595B" d="M351.9,175.7H338v-2h13.9v-4.1h2v4.1h13.9v2h-13.9v10.5c4.1,5.8,9.3,10.3,15.8,13.4l-1.1,1.8
		c-5.8-3-10.6-7.1-14.7-12.3v14h-2v-13.8c-3.6,5-8.5,9.1-14.6,12.3l-1-1.8c6.8-3.5,12-7.9,15.6-13.5V175.7z M338.8,189.6l-1.3-1.5
		c3.3-2.7,5.5-6.3,6.7-10.9l1.9,0.3c-0.5,2-1.2,3.8-2,5.4c1.8,1.1,3.5,2.3,5.1,3.8l-1.1,1.7c-1.6-1.6-3.3-2.9-4.9-3.9
		C341.9,186.6,340.5,188.2,338.8,189.6z M357.9,188.6l-1.3-1.6c2.8-2.4,4.8-5.7,5.8-9.7l1.9,0.3c-0.5,1.9-1.1,3.6-1.8,5.1
		c2.1,1.3,4,2.8,5.8,4.5l-1.1,1.7c-1.8-1.9-3.7-3.5-5.5-4.7C360.6,186,359.3,187.4,357.9,188.6z"/>
	<path fill="#58595B" d="M383.7,184.9l-1.4,1.4c-1.5-1.7-3.6-3.6-6.2-5.5l1.4-1.3C380,181.2,382,183,383.7,184.9z M384.1,189.9
		c-1.7,4.7-3.6,9-5.7,13.1l-1.9-0.8c2.2-4.2,4.2-8.6,5.8-13L384.1,189.9z M384.8,176l-1.4,1.4c-1.6-1.8-3.8-3.7-6.6-5.8l1.4-1.3
		C380.8,172.2,383,174.1,384.8,176z M397.4,176.9c0.5-1.3,0.9-2.6,1.1-4h-9.7v11.6c-0.1,7.7-1.5,13.9-4.2,18.5l-1.5-1.3
		c2.4-4.1,3.7-9.9,3.8-17.2v-13.4h21.8v1.8h-8.3c-0.3,1.4-0.7,2.7-1.2,4h7.5v12.6h-6.4v10.9c0,1.8-0.9,2.7-2.6,2.7h-3.1l-0.4-1.8
		c1,0.1,1.9,0.1,2.8,0.1c0.9,0,1.4-0.5,1.4-1.4v-10.5h-6.6v-12.6H397.4z M395,192.8c-1,3.3-2.4,6.1-4.2,8.5l-1.6-1
		c1.8-2.3,3.1-4.9,4-7.8L395,192.8z M404.9,182.4v-3.9h-11.2v3.9H404.9z M404.9,184h-11.2v3.8h11.2V184z M409.2,200.5l-1.7,0.7
		c-1.3-3.2-2.7-6-4.1-8.4l1.7-0.6C406.6,194.8,408,197.6,409.2,200.5z"/>
	<path fill="#58595B" d="M448.7,171.9v2h-5v25.6c0,2.3-1.1,3.4-3.4,3.4h-6.1l-0.4-1.9c2,0.1,4,0.1,5.8,0.1c1.4,0,2.1-0.7,2.1-2.2
		v-25.1H416v-2H448.7z M434.3,193.2h-11.9v3.4h-1.9v-16.4h13.8V193.2z M432.3,191.3v-9.4h-10v9.4H432.3z"/>
	<path fill="#58595B" d="M467.1,190.9c-1.3-0.3-2.6-0.6-3.9-0.7c-1.1-0.2-2.3-0.3-3.4-0.4v2.2c-0.1,4.6-1.1,8.3-3.1,11.2l-1.5-1.4
		c1.7-2.5,2.6-5.8,2.7-9.7v-9.4h13.1v17.9c0,1.6-0.9,2.4-2.6,2.4h-3.4l-0.5-1.8c1.2,0,2.3,0.1,3.3,0.1c0.8,0,1.3-0.4,1.3-1.3v-4.8
		c-2.7,0.5-5.5,1-8.5,1.4l-0.4-1.7c3.1-0.3,6.1-0.8,8.9-1.3v-9h-9.2v3.7c1.7,0.2,3.2,0.4,4.3,0.6c0.9,0.1,2.1,0.3,3.6,0.6
		L467.1,190.9z M473.4,180.2l-1.6,1.1c-0.4-0.8-0.9-1.7-1.4-2.5c-3.9,0.6-8.6,1.1-14.2,1.4l-0.6-1.7c0.4-0.1,0.7-0.3,0.9-0.5
		c2.3-2.3,4.4-5.1,6.1-8.4l1.9,0.6c-1.8,3.6-3.9,6.4-6,8.3c3.5-0.1,7.1-0.5,11-1.1c-0.8-1.3-1.7-2.7-2.7-4l1.6-1
		C470.6,175.3,472.2,177.9,473.4,180.2z M477,169.8v4.9l10.2-0.7v1.9l-10.2,0.7v5.5c0,0.9,0.5,1.4,1.5,1.4h9.3v1.9H478
		c-2,0-3-1-3-2.9v-12.7H477z M477.8,202.6c-1.8,0-2.8-0.9-2.8-2.7v-12.7h2v4.2l10.4-0.6v1.8l-10.4,0.7v6.2c0,0.9,0.4,1.4,1.4,1.4
		h5.5c0.9,0,1.5-0.2,1.8-0.6c0.4-0.5,0.7-2,0.9-4.4l1.8,0.6c-0.2,2.9-0.7,4.7-1.4,5.4c-0.6,0.5-1.5,0.8-2.8,0.8H477.8z"/>
	<path fill="#58595B" d="M527.3,189c-0.1,6.7-0.5,10.7-1.3,12.1c-0.8,1.3-2.3,2-4.3,2c-1,0-2.2,0-3.6-0.1l-0.6-1.9
		c1.5,0.1,2.8,0.1,3.7,0.1c1.7,0,2.8-0.6,3.3-1.7s0.7-4,0.8-8.7H502c-1.8,1.9-3.8,3.5-5.9,4.9l-1-1.8c5.9-4,10.2-9.5,12.8-16.6
		h-10.3v-1.8h10.9c0.6-2,1.1-4.1,1.6-6.3l2,0.2c-0.4,2.1-0.9,4.2-1.5,6.1h11.6l-1.6,6.5h4.7l-1.5,6.9H527.3z M504.1,194.2
		c-1,3-2.4,5.6-4.3,7.8l-1.7-1.1c1.8-2.1,3.2-4.5,4.1-7.1L504.1,194.2z M505.5,174.1l-1.6,1.1c-0.8-1.3-1.8-2.8-3.2-4.4l1.6-1
		C503.7,171.5,504.8,172.9,505.5,174.1z M503.5,189h18.1l1.3-5.1h-16C505.9,185.8,504.8,187.5,503.5,189z M510,201l-1.9,0.2
		c-0.2-3-0.7-5.2-1.4-6.8l1.7-0.2C509.3,195.8,509.8,198.1,510,201z M509.9,177.4c-0.6,1.7-1.2,3.2-1.9,4.7h10.6l1.3-4.7H509.9z
		 M516.3,199.4l-1.8,0.7c-0.7-2.1-1.4-4.1-2.3-6.1l1.6-0.5C514.8,195.6,515.7,197.6,516.3,199.4z M521.9,198l-1.8,0.4
		c-0.6-1.8-1.4-3.6-2.3-5.3l1.6-0.5C520.3,194.2,521.2,195.9,521.9,198z"/>
	<path fill="#58595B" d="M550.4,176.5v-6.9h2v6.9h14.7v2h-12.6c2.5,6.1,7.1,11.6,13.7,16.4l-1.3,1.7c-6.7-5.4-11.4-11.4-14-18.1
		h-0.5v15h8.2v2h-8.2v7.8h-2v-7.8h-7.9v-2h7.9v-15h-0.5c-2.7,7.6-7.5,13.7-14.3,18.5l-1.1-1.8c6.5-4.3,11.2-9.9,13.9-16.7h-12.6v-2
		H550.4z"/>
	<path fill="#58595B" d="M592,169.9c3.6,4.5,8.9,8.2,15.8,11.2l-1.1,1.7c-6.4-2.7-11.6-6.4-15.5-10.9c-4.3,4.6-9.5,8.2-15.6,11
		l-1.1-1.6c6.4-2.9,11.7-6.7,15.8-11.3H592z M600.8,180v1.8h-8.6v6h13.4v1.9h-13.4v10.5h4.6c1.4-2.5,2.6-5.2,3.6-8.1l1.8,0.7
		c-1,2.8-2.1,5.3-3.4,7.4h8.1v1.9h-31.4v-1.9h8c-0.8-2.5-1.9-4.9-3.3-7.2l1.8-0.7c1.3,2.1,2.4,4.8,3.4,7.8h4.8v-10.5h-13.4v-1.9
		h13.4v-6h-8.6V180H600.8z"/>
	<path fill="#58595B" d="M616.9,169c1.5,2.4,2.7,4.9,3.7,7.6c1,3.2,1.6,6.4,1.6,9.6c0,3.2-0.6,6.4-1.6,9.6c-0.9,2.7-2.1,5.2-3.7,7.6
		h-2c1.5-2.4,2.6-5,3.5-7.7c1-3.3,1.6-6.5,1.6-9.6c0-3.1-0.6-6.3-1.6-9.6c-0.9-2.7-2-5.3-3.5-7.7H616.9z"/>
</g>
<path fill="#FFD65C" d="M781.1,347.3H117.2c-11.6,0-21-9.4-21-21V270c0-11.6,9.4-21,21-21h663.9c11.6,0,21,9.4,21,21v56.3
	C802.1,337.9,792.7,347.3,781.1,347.3z"/>
<g>
	<g>
		<path fill="#58595B" d="M373.4,305.4c-0.1,2.7-0.5,5.2-1.1,7.3l-2.8-0.8c0.7-2,1.1-4.2,1.3-6.8L373.4,305.4z M376.6,295.6v-2h-6
			v-13.7h15.1v13.7h-6v2h5.6v2.8h-5.6v2.1h6.4v3.1h-16v-3.1h6.5v-2.1h-5.7v-2.8H376.6z M376.8,282.5h-3.4v8.4h3.4V282.5z
			 M376.5,289.3l-1.8,0.5c-0.3-1.8-0.7-3.4-1.3-5l1.8-0.6C375.7,285.7,376.1,287.4,376.5,289.3z M377.6,312l-2.8,0.3
			c0-2.9-0.1-5.1-0.3-6.7l2.5-0.3C377.3,306.9,377.5,309.2,377.6,312z M382.2,311.3l-2.8,0.6c-0.3-2.4-0.6-4.5-1-6.3l2.5-0.5
			C381.4,307,381.9,309.1,382.2,311.3z M382.8,282.5h-3.5v8.4h3.5V282.5z M382.5,284.3c-0.2,1.9-0.6,3.7-1.1,5.5l-1.8-0.6
			c0.5-1.7,0.8-3.4,1-5.4L382.5,284.3z M386.4,310.4l-2.5,0.9c-0.4-2-0.9-4-1.5-5.9l2.4-0.7C385.5,306.7,386.1,308.6,386.4,310.4z
			 M395.9,278.8v6.5h7.4v3.2h-7.4v5.9h6.1v18.2h-3.3v-1.8h-8v1.8h-3.3v-18.2h5.1v-15.7H395.9z M398.7,307.8v-10.1h-8v10.1H398.7z"/>
		<path fill="#58595B" d="M426.6,299.1c-2,0.7-4.1,1.3-6.3,1.8v7.7c0,2.4-1.3,3.6-3.7,3.6h-4.1l-0.8-3.4c1.3,0.1,2.5,0.2,3.7,0.2
			c0.9,0,1.4-0.4,1.4-1.3v-6c-2.2,0.5-4.5,0.9-6.8,1.3l-0.5-3.5c2.5-0.4,5-0.8,7.3-1.3v-6.6h-7.3v-3.4h7.3v-3.9
			c-1.8,0.4-3.7,0.7-5.7,1l-0.7-3.3c5.2-0.6,9.8-1.6,13.7-3.3l1.2,3.3c-1.6,0.6-3.3,1.1-5,1.6v4.7h8c-0.2-2.9-0.3-6.1-0.3-9.5h3.5
			c0,3.6,0.1,6.8,0.3,9.5H443v3.4h-10.9c0.2,2.4,0.6,4.5,1,6.1c0.1,0.7,0.3,1.3,0.5,1.9c1.6-1.9,3-4.1,4.2-6.5l3,1.6
			c-1.7,3.4-3.6,6.3-5.9,8.8c0.4,1,0.8,1.8,1.3,2.5c1.1,1.7,2,2.5,2.5,2.5c0.5,0,1-1.9,1.4-5.8l3.1,1.6c-0.9,5.2-2.3,7.9-4.1,7.9
			c-1.6,0-3.2-1.1-5-3.3c-0.7-0.9-1.3-1.9-1.9-3.1c-2.5,2.1-5.4,3.8-8.6,5.1l-2-3c3.5-1.3,6.5-3.1,9.1-5.4c-0.4-1.2-0.8-2.5-1.1-3.8
			c-0.5-2-0.9-4.4-1.2-7.1h-8.3v5.8c2.2-0.6,4.3-1.2,6.3-1.9V299.1z M442.2,284.1l-2.5,2.5c-1.6-1.6-3.7-3.4-6.5-5.2l2.4-2.3
			C438.2,280.7,440.4,282.4,442.2,284.1z"/>
		<path fill="#58595B" d="M458.3,287.7v2.7c-1.1,1.9-2.4,3.8-3.8,5.7h4.9v2.3c-0.7,2.8-1.4,5.1-2.4,6.9c0.2,0.1,0.4,0.4,0.7,0.6
			c1.2,1.1,2.3,1.8,3.4,2.3c1.1,0.4,2.7,0.7,4.7,0.7c2,0,4.3,0,6.9,0c2.7,0,6.2-0.1,10.6-0.3l-0.8,3.3h-9.3c-2.6,0-5.1-0.1-7.5-0.1
			c-2.5-0.1-4.4-0.4-5.7-0.9c-1.6-0.6-3-1.6-4.2-2.8c-0.3-0.3-0.6-0.4-0.8-0.4c-0.7,0-1.9,1.6-3.5,4.8l-2.5-2.3
			c1.8-3.4,3.4-5.4,5.1-5.8c0.9-1.7,1.6-3.5,2.1-5.5h-5.6v-2.7c1.6-1.9,3-3.8,4.1-5.6h-5.1v-3.2H458.3z M458.3,284.1l-2.3,2.3
			c-1.3-1.7-3.2-3.4-5.6-5.3l2.3-2.3C454.9,280.6,456.7,282.4,458.3,284.1z M460,293l-1-3.4c2.6-3.3,4.5-6.8,5.5-10.6l3.3,0.6
			c-0.4,1.2-0.8,2.4-1.3,3.5h5.4c-0.5-1.2-1.1-2.4-1.8-3.5l3.2-0.9c0.8,1.6,1.5,3.1,2,4.4h6.3v3.2H475v3.5h5.5v3.1H475v3.4h5.5v3
			H475v3.6h6.9v3.1h-19.6v-15.9C461.6,291.1,460.8,292,460,293z M471.7,286.2h-6v3.5h6V286.2z M471.7,292.8h-6v3.4h6V292.8z
			 M471.7,299.3h-6v3.6h6V299.3z"/>
		<path fill="#58595B" d="M499.2,283.3v-3.4h8.1c1,11.2,6.1,21,15.2,29.4l-2,3c-7.5-6.7-12.3-14.5-14.6-23.3
			c-2.6,10-7.6,17.7-15.1,23.2l-2.1-3c8.1-6,13.4-14.7,15.8-26H499.2z"/>
	</g>
</g>
<g>
</g>
<g>
</g>
<g>
</g>
<g>
</g>
<g>
</g>
<g>
</g>
<g>
</g>
<g>
</g>
<g>
</g>
<g>
</g>
<g>
</g>
<g>
</g>
<g>
</g>
<g>
</g>
<g>
</g>
</svg>
