<?xml version="1.0" encoding="utf-8"?>
<!-- Generator: Adobe Illustrator 18.0.0, SVG Export Plug-In . SVG Version: 6.00 Build 0)  -->
<!DOCTYPE svg PUBLIC "-//W3C//DTD SVG 1.1//EN" "http://www.w3.org/Graphics/SVG/1.1/DTD/svg11.dtd">
<svg version="1.1" id="Layer_1" xmlns="http://www.w3.org/2000/svg" xmlns:xlink="http://www.w3.org/1999/xlink" x="0px" y="0px"
	 viewBox="0 142.6 612 506.9" enable-background="new 0 142.6 612 506.9" xml:space="preserve">
<title>zar</title>
<path fill="#C7C8C8" d="M163.3,253.5c0,0-2.2-5.6,10.8-9.3c13-3.6,31.9-4.2,43.5,8.3c11.6,12.5,17.1,18.6,17.1,18.6l-35.5,32.6
	c0,0-13-27.6-22-35.4S163.9,259.8,163.3,253.5z"/>
<path fill="#C7C8C8" d="M445.6,256.6c0,0,2.7-5.3-9.9-10.2c-12.5-4.9-31.3-7.2-44.1,4.2c-12.8,11.4-18.8,16.8-18.8,16.8l32.4,35.8
	c0,0,15.5-26.3,25.2-33.3C440.1,263,444.4,262.8,445.6,256.6z"/>
<path fill="#DCDCDD" d="M408.3,288.2c0.2-0.7-14.2-14.8-14.2-14.8c-30.9-23.8-61.2-31.7-88.4-31.4c-27.1-1.3-57.8,5.6-89.5,28.2
	c0,0-14.9,13.6-14.7,14.3c0.6,2.4-14.3,20.9-16,24.3c-6.4,13.1-10.5,27.2-11.9,41.7c-2.9,27.9,0.7,55.9,4,83.5
	c2.8,23.9,2.4,49.2,8.1,72.6c16.6,67.6,98.2,82.4,157,68.5c33.2-8,62.1-24.9,72.6-59.3c12.7-41.3,10.8-88.8,17.3-131.4
	C438.1,350.4,429.3,315.6,408.3,288.2z"/>
<path fill="#FFFFFF" d="M261.3,443.9l24.7-114.9c0.8-3.9,4.7-6.4,8.6-5.5c2.7,0.6,4.8,2.7,5.5,5.3l28,115.6c1.7,6.7-2.4,13.6-9,15.4
	c-16.1,4.5-33.2,4.1-49.1-1C263.7,456.7,260,450.3,261.3,443.9z"/>
<circle fill="#AAACAD" cx="236.8" cy="425.9" r="13.8"/>
<circle fill="#6F6F6F" cx="236.8" cy="425.9" r="8.8"/>
<circle fill="#AAACAD" cx="355.6" cy="425.9" r="13.8"/>
<circle fill="#6F6F6F" cx="355.6" cy="425.9" r="8.8"/>
<path fill="#807F80" d="M253.7,464.4c-1.2,2-2.1,4.1-2.7,6.3c-0.6,2.1-0.8,4.3-0.7,6.5c0.3,2,1,4,2,5.8c0.4,1,0.9,1.9,1.5,2.8
	c0.5,1,1.3,1.8,1.8,3l0,0c0.1,0.1,0.1,0.2,0,0.2c0,0,0,0,0,0l0,0c-2.4-0.7-4.5-2.3-6-4.4l-0.5-0.8c-0.2-0.3-0.3-0.6-0.4-0.9
	c-0.2-0.6-0.4-1.2-0.6-1.9l-0.2-1.9c0-0.6,0-1.3,0-1.9c0.1-2.5,0.7-4.9,1.8-7.1c1-2.2,2.3-4.2,3.9-5.9c0.1-0.1,0.2-0.1,0.2,0
	c0.1,0.1,0.1,0.2,0,0.2L253.7,464.4z"/>
<path fill="#807F80" d="M340.4,462.8c2.2,1.4,4.1,3.3,5.3,5.6c1.3,2.4,2,5.1,2,7.8c0.2,2.7-0.3,5.5-1.3,8c-0.6,1.2-1.3,2.3-2,3.4
	c-0.8,1-1.7,2-2.7,2.9c-0.1,0.1-0.2,0-0.3,0c0,0,0-0.1,0-0.1l0,0c0.2-1.3,0.5-2.5,1-3.8c0.3-1.2,0.7-2.4,1-3.5
	c0.1-0.6,0.3-1.1,0.5-1.7c0.2-0.5,0.4-1.1,0.5-1.7l0.5-1.7l0.3-1.8c0.2-2.4-0.1-4.7-0.9-7c-0.8-2.3-2.2-4.4-4.1-6l0,0
	c-0.1-0.1-0.1-0.2,0-0.2C340.3,462.9,340.4,462.9,340.4,462.8L340.4,462.8L340.4,462.8z"/>
<path fill="#898989" d="M282.5,479.9c0.2-1-0.6-2.2-2.7-3.7c-3.8-2.7-14.5-6.1-16.2-0.3c-1.3,4.2,1.2,6.3,5.8,6.9
	C273.3,483.3,282.1,482.7,282.5,479.9z"/>
<path fill="#898989" d="M308.2,478.9c0-1,1-2,3.6-3.2c4.5-2,16.9-4,17.9,1.8c0.7,4.2-2.3,5.9-7.5,5.9
	C317.7,483.4,308.3,481.7,308.2,478.9z"/>
<path fill="#807F80" d="M297.7,516.6c-0.7-2.1-1.2-4.3-1.5-6.5c-0.3-2.2-0.4-4.4-0.4-6.5c0-2.2,0.1-4.4,0.4-6.5
	c0.2-2.2,0.7-4.4,1.5-6.5h0.3c0,4.4,0,8.7,0,13.1s0,8.7,0,13.1L297.7,516.6z"/>
<path fill="#807F80" d="M281.9,516.8c6.1-1.4,12.2-2.3,18.5-2.7c3.1-0.2,6.3-0.2,9.4-0.3c3.2,0,6.2,0.2,9.1,0.2c2.9,0,5.8,0,8.6,0
	c2.8-0.1,5.6-0.3,8.3-0.7c5.5-0.9,10.8-2.7,15.6-5.3l0.4,0.2c-4.2,3.8-9.3,6.4-14.8,7.7c-6,1.3-12.2,1.9-18.3,1.6
	c-3.1,0-6.1-0.3-9.2-0.5c-3.1-0.1-6.1-0.2-9.2-0.2c-6.1,0-12.3,0-18.4,0.3L281.9,516.8z"/>
<path fill="#807F80" d="M318.8,516.8c-6.1-1.4-12.2-2.3-18.5-2.7c-3.1-0.2-6.3-0.2-9.4-0.3c-3.2,0-6.2,0.2-9.1,0.2
	c-2.9,0-5.8,0-8.6,0c-2.8-0.1-5.6-0.3-8.3-0.7c-5.5-0.9-10.8-2.7-15.6-5.3l-0.4,0.2c4.2,3.8,9.3,6.4,14.8,7.7
	c6,1.3,12.2,1.9,18.3,1.6c3.1,0,6.1-0.3,9.2-0.5c3.1-0.1,6.1-0.2,9.2-0.2c6.1,0,12.3,0,18.4,0.3L318.8,516.8z"/>
</svg>
