<?xml version="1.0" encoding="utf-8"?>
<!-- Generator: Adobe Illustrator 18.0.0, SVG Export Plug-In . SVG Version: 6.00 Build 0)  -->
<!DOCTYPE svg PUBLIC "-//W3C//DTD SVG 1.1//EN" "http://www.w3.org/Graphics/SVG/1.1/DTD/svg11.dtd">
<svg version="1.1" id="Layer_1" xmlns="http://www.w3.org/2000/svg" xmlns:xlink="http://www.w3.org/1999/xlink" x="0px" y="0px"
	 viewBox="0 0 2370 756.2" enable-background="new 0 0 2370 756.2" xml:space="preserve">
<path fill="#AFD0A1" d="M194.5,700.4l84.4-249.6l-87.2,105.8c0,0-7.8-189.9,72.5-310.2c0,0-75.9,22.5-103.8,179.6
	c0,0-30.7-173.1,106.9-320c0,0-117.9,41.3-153.8,232.7c0,0-34.4-85.8-87.3-125.9c0,0,98.9,190.3,89.8,318.1
	c0,0-48.4-119.7-116-128.4c0,0,120.7,154.6,74.6,268.4L194.5,700.4z"/>
<path fill="#9BCAA1" d="M254.7,756.2l157.4-220.7L295.9,617c0,0,50.4-184.8,164.5-281.9c0,0-80,3.8-154.7,148.7
	c0,0,23.3-174,200.5-283.2c0,0-126.2,12.1-219.2,188.1c0,0-7-90.8-45.7-141.8c0,0,37.3,206.6-10.5,327.5c0,0-10.1-126.7-72.6-150.9
	c0,0,69.2,177.4-10,276.2L254.7,756.2z"/>
<g>
	<path fill="#AFD0A1" d="M1910.5,449.6l77.2-183.5l-79.8,77.8c0,0-7.1-139.6,66.4-228.1c0,0-69.5,16.5-95,132.1
		c0,0-28.1-127.3,97.8-235.3c0,0-107.9,30.4-140.8,171.1c0,0-31.5-63.1-79.9-92.5c0,0,90.5,139.9,82.2,233.8c0,0-44.3-88-106.2-94.4
		c0,0,110.5,113.7,68.3,197.4L1910.5,449.6z"/>
	<path fill="#AFD0A1" d="M2012.6,508.7l179.4-202.1l-132.5,74.6c0,0,57.4-169.1,187.5-258.1c0,0-91.2,3.5-176.4,136.1
		c0,0,26.5-159.3,228.6-259.3c0,0-143.8,11.1-249.8,172.2c0,0-8-83.1-52.1-129.8c0,0,42.5,189.1-11.9,299.9c0,0-11.6-116-82.8-138.2
		c0,0,78.8,162.4-11.4,252.8L2012.6,508.7z"/>
	<path fill="#A7A9AC" d="M1571.7,525.1L1856,391.3c99.7-46.9,215.4-45.5,313.8,3.9l3.5,1.7c111.9,56.2,186.5,166.6,196.7,291.4v0
		h-805.5L1571.7,525.1"/>
	<g>
		<g>
			<path fill="#669585" d="M1439.8,357c100.3,277.9,390.6,213.8,390.6,213.8S1727.9,291.7,1439.8,357z"/>
		</g>
		<path fill="#7CB397" d="M1747.4,517.8c-8.2-5.6-16.4-11.2-24.7-16.6c0-0.1-0.1-0.1-0.1-0.1c0,0-0.1,0-0.1,0c-4.6-3-9.2-6-13.9-8.9
			c9.2-13.7,6.8-30.2,1.7-45.8c1,2.9,1.4,6.1,2.1,9.1c0,0.3,0,0.6-0.1,1.1c-0.1,1.4,0.1,2.8,0,4.2c-0.2,3.1-0.8,6.2-1.8,9.2
			c-1.8,5.7-5,10.7-9.1,15c-0.4,0.5-0.3,1.5,0.1,2.7c-11.6-7.2-23.2-14.2-35-20.9c0-0.1,0-0.1,0-0.2c-0.1,0-0.1,0-0.2,0.1
			c-4.6-2.6-9.2-5.2-13.8-7.8c7.6-15.4,2.7-38.1-10-49.1c2.6,2.3,0.3,10.2,3,12.5c2.8,2.5,4.5,5.5,7,8.1c0.5,1.2,0.8,1.9,1,2.2
			c0,0.9,0,1.9-0.1,2.8c-0.7,6.6-3.6,12.3-7.9,17.2c-0.4,0.5-0.3,1.3-0.1,2.4c-11.1-6.1-22.4-11.9-33.7-17.6c0-0.2,0.1-0.4,0.1-0.4
			c-0.1,0.1-0.3,0.2-0.4,0.3c-2.8-1.4-5.5-2.8-8.3-4.1c-0.2-0.6-0.5-1.2-0.8-1.7c-15.2-19.2-31.7-37.3-49.4-54.2
			c2.6,2.4,0.3,10,3,12.5c12.6,12,24.5,24.7,35.9,37.9c-27.7-13.2-56-25.4-84.8-36.4c2.2,0.8,0.6,11.6,3,12.5
			c30.5,11.6,60.5,24.6,89.8,38.8c-18,5.7-40.8,3.6-58.1,4.6c0.7,0,2.1,12.6,3,12.5c21.4-1.2,51.1,2.1,69.8-10
			c13.5,6.8,26.9,13.9,40.2,21.2c-20.9,6.9-43,11.2-64.8,12.5c0.6,0,2.1,12.6,3,12.5c26-1.5,52.3-7.2,76.6-16.7
			c13.7,7.9,27.3,16,40.6,24.4c-13.4,2.7-26.8,5.4-40.3,8c0.1,0,2.7,12.6,3,12.5c17.6-3.5,35.3-7,52.9-10.5
			c8.4,5.5,16.6,11,24.9,16.7C1747.8,528.6,1750.1,519.7,1747.4,517.8z M1713.2,458.4c0.1,0.2,0.1,0.3,0.1,0.5
			C1713.3,458.8,1713.2,458.6,1713.2,458.4z"/>
	</g>
	<g>
		<g>
			<path fill="#669585" d="M1642.9,189c-82.1,283.8,190.6,402.5,190.6,402.5S1914.4,305.4,1642.9,189z"/>
		</g>
		<path fill="#7CB397" d="M1797.4,499.8c-3.3-9.4-6.7-18.6-10.2-27.9c0-0.1,0-0.2,0-0.2c0,0-0.1,0-0.1,0c-2-5.1-4-10.3-6-15.4
			c15.5-5.7,23.2-20.4,28.3-36.1c-1,2.9-2.4,5.7-3.7,8.6c-0.2,0.2-0.4,0.5-0.7,0.8c-0.9,1.1-1.6,2.3-2.5,3.4c-2,2.4-4.3,4.6-6.8,6.4
			c-4.9,3.6-10.3,5.7-16.2,6.8c-0.6,0.1-1.1,1-1.6,2.2c-5.1-12.6-10.5-25.1-16.1-37.5c0-0.1,0.1-0.1,0.1-0.1c-0.1,0-0.1,0-0.2-0.1
			c-2.2-4.8-4.4-9.6-6.6-14.4c15.2-8,24.5-29.3,20.8-45.6c0.8,3.3-5.7,8.4-5,11.9c0.8,3.6,0.4,7,0.9,10.6c-0.3,1.2-0.4,2-0.5,2.4
			c-0.5,0.7-1.1,1.5-1.7,2.2c-4.4,4.9-10.1,7.8-16.5,9.3c-0.6,0.1-1.1,0.9-1.4,1.9c-5.4-11.4-11.1-22.8-16.9-34.1
			c0.1-0.1,0.2-0.3,0.4-0.2c-0.2,0-0.3,0-0.5,0c-1.4-2.7-2.8-5.5-4.3-8.2c0.2-0.6,0.3-1.3,0.3-1.9c-1-24.5-3.7-48.8-8.1-72.9
			c0.6,3.5-5.6,8.3-5,11.9c3.1,17.1,5.4,34.4,6.8,51.7c-14.7-27-30.4-53.4-47.2-79.2c1.3,2-6.3,9.8-5,11.9
			c17.9,27.4,34.5,55.4,49.9,84.2c-17.9-6-35.2-21-49.8-30.4c0.6,0.4-5.7,11.4-5,11.9c18,11.6,40.1,31.7,62.3,32.9
			c7,13.4,13.6,27,20.1,40.7c-21-6.7-41.3-16.2-59.8-28c0.5,0.3-5.7,11.4-5,11.9c22,14.1,46.6,24.9,71.8,31.5
			c6.5,14.4,12.7,29,18.5,43.7c-12.4-5.7-24.9-11.4-37.3-17.2c0.1,0-5.2,11.8-5,11.9c16.3,7.5,32.7,15,49,22.5
			c3.6,9.3,7,18.7,10.3,28.1C1791.4,508.7,1798.5,502.9,1797.4,499.8z M1804.6,431.7c-0.1,0.2-0.1,0.3-0.2,0.5
			C1804.5,432,1804.5,431.8,1804.6,431.7z"/>
	</g>
	<circle fill="#939598" cx="2040.2" cy="402.2" r="16.8"/>
	<circle fill="#939598" cx="2099.9" cy="419" r="16.8"/>
	<circle fill="#939598" cx="2061.6" cy="449.6" r="16.8"/>
</g>
<g>
</g>
<g>
</g>
<g>
</g>
<g>
</g>
<g>
</g>
<g>
</g>
<g>
</g>
<g>
</g>
<g>
</g>
<g>
</g>
<g>
</g>
<g>
</g>
<g>
</g>
<g>
</g>
<g>
</g>
</svg>
