<?xml version="1.0" encoding="utf-8"?>
<!-- Generator: Adobe Illustrator 18.0.0, SVG Export Plug-In . SVG Version: 6.00 Build 0)  -->
<!DOCTYPE svg PUBLIC "-//W3C//DTD SVG 1.1//EN" "http://www.w3.org/Graphics/SVG/1.1/DTD/svg11.dtd">
<svg version="1.1" id="Layer_1" xmlns="http://www.w3.org/2000/svg" xmlns:xlink="http://www.w3.org/1999/xlink" x="0px" y="0px"
	 viewBox="0 0 683 273.3" enable-background="new 0 0 683 273.3" xml:space="preserve">
<g>
	<path fill="#FFD25C" d="M595.4,231.7H87.6C39.2,231.7,0,192.4,0,144l0-56.4C0,39.2,39.2,0,87.6,0l507.8,0
		C643.8,0,683,39.2,683,87.6V144C683,192.4,643.8,231.7,595.4,231.7z"/>
	<g>
		<path fill="#4F4F51" d="M54.3,64l-2.6-2.3c1.6-1.7,2.8-3.9,3.6-6.6l-1.8,0.1l-0.9-2.9c0.6-0.2,1.2-0.5,1.6-0.9
			c1.4-2.3,2.4-4.4,3.1-6.4l3.3,1c-1,2.4-2.2,4.4-3.5,6c2-0.2,4.1-0.6,6.4-1.1c-0.5-0.9-1.1-1.8-1.6-2.6l2.7-1.7
			c2,2.9,3.5,5.4,4.6,7.6l-2.8,2c-0.4-0.8-0.8-1.7-1.3-2.5c-2.6,0.6-5.7,1-9.1,1.4l2.5,1c-0.2,0.6-0.3,1.1-0.5,1.6h9.7v3.2h-5
			c-0.1,1.4-0.2,2.7-0.3,3.9h6.3V68h-7.1c-0.1,0.1-0.1,0.3-0.1,0.4c2,1.4,4,3,6,4.7l-2.1,3.2c-2.1-2.2-3.8-3.8-5.2-4.9
			c-1.5,2.6-3.5,4.6-6.1,6.1l-2.1-2.8c2.9-1.5,5-3.7,6.2-6.7h-5.4v-3.2h6.3c0.2-1.2,0.3-2.5,0.3-3.9v0h-2.8
			C55.8,62.1,55,63.1,54.3,64z M77,61.9c-0.1,0.3-0.1,0.7-0.1,1c1.2,5,3.7,8.9,7.4,11.7l-2.2,2.8c-3-2.4-5.1-5.6-6.4-9.4
			c-1.4,3.8-3.8,7-7,9.7l-2-3c4.6-3.6,7-8.7,7.1-15.3c0-1.5,0-2.7,0-3.5h3.3C77.2,58.3,77.1,60.3,77,61.9z M70.6,60.5l-2.9-2
			c1.8-3.2,3-7.6,3.6-13.3l3.4,0.6c-0.2,1.7-0.4,3.2-0.6,4.6h9.4v2.2c-0.5,3-1,6-1.8,9l-3.4-1c0.7-2,1.3-4.3,1.7-6.9h-6.6
			C72.6,56.5,71.7,58.8,70.6,60.5z"/>
		<path fill="#4F4F51" d="M90.9,64l-2.6-2.3c1.6-1.7,2.8-3.9,3.6-6.6L90,55.3L89,52.4c0.6-0.2,1.2-0.5,1.6-0.9
			c1.4-2.3,2.4-4.4,3.1-6.4l3.3,1c-1,2.4-2.2,4.4-3.5,6c2-0.2,4.1-0.6,6.4-1.1c-0.5-0.9-1.1-1.8-1.6-2.6l2.7-1.7
			c2,2.9,3.5,5.4,4.6,7.6l-2.8,2c-0.4-0.8-0.8-1.7-1.3-2.5c-2.6,0.6-5.7,1-9.1,1.4l2.5,1c-0.2,0.6-0.3,1.1-0.5,1.6h9.7v3.2h-5
			c-0.1,1.4-0.2,2.7-0.3,3.9h6.3V68h-7.1c-0.1,0.1-0.1,0.3-0.1,0.4c2,1.4,4,3,6,4.7l-2.1,3.2c-2.1-2.2-3.8-3.8-5.2-4.9
			c-1.5,2.6-3.5,4.6-6.1,6.1l-2.1-2.8c2.9-1.5,5-3.7,6.2-6.7h-5.4v-3.2h6.3c0.2-1.2,0.3-2.5,0.3-3.9v0H93
			C92.4,62.1,91.6,63.1,90.9,64z M113.6,61.9c-0.1,0.3-0.1,0.7-0.1,1c1.2,5,3.7,8.9,7.4,11.7l-2.2,2.8c-3-2.4-5.1-5.6-6.4-9.4
			c-1.4,3.8-3.8,7-7,9.7l-2-3c4.6-3.6,7-8.7,7.1-15.3c0-1.5,0-2.7,0-3.5h3.3C113.8,58.3,113.7,60.3,113.6,61.9z M107.2,60.5l-2.9-2
			c1.8-3.2,3-7.6,3.6-13.3l3.4,0.6c-0.2,1.7-0.4,3.2-0.6,4.6h9.4v2.2c-0.5,3-1,6-1.8,9l-3.4-1c0.7-2,1.3-4.3,1.7-6.9H110
			C109.2,56.5,108.3,58.8,107.2,60.5z"/>
		<path fill="#4F4F51" d="M139.7,58.5c1.2,0.7,2.4,1.4,3.7,2.2c1.4,0.8,2.8,1.2,4,1.2c1.3,0,2.9-1.3,4.8-3.9l2.6,2.2
			c-2.5,3.5-5,5.2-7.4,5.2c-1.7,0-3.2-0.4-4.7-1.2c-1.2-0.7-2.4-1.5-3.6-2.2c-1.4-0.8-2.8-1.2-4-1.2c-1.3,0-2.9,1.3-4.8,3.9
			l-2.6-2.2c2.4-3.5,4.9-5.2,7.4-5.2C136.6,57.3,138.1,57.7,139.7,58.5z"/>
		<path fill="#4F4F51" d="M162.4,67.5l-0.8-2.6c3.3-0.1,5.7-0.4,7.3-1l0.8,2.3c-0.7,0.2-1.6,0.5-2.6,0.7v2h2.6v2.6h-2.6v1.9
			c1-0.1,1.8-0.3,2.6-0.5v2.5c-1.5,0.5-4,0.9-7.7,1.3l-0.4-2.8c0.9-0.1,1.8-0.1,2.6-0.2v-2.2h-2.5v-2.6h2.5v-1.6
			C163.6,67.4,163,67.4,162.4,67.5z M161.9,49.2v-3.1h13v3.1h-1.2V74c1-2,1.8-4.1,2.3-6.3l2.6,0.6c-0.6,3.1-1.6,5.7-2.8,7.9
			l-2.2-1.4v2.4h-3.2V63h-8.6v-2.9h1.7V49.2H161.9z M166.7,49.2v1.8h3.8v-1.8H166.7z M170.5,55.5v-1.9h-3.8v1.9H170.5z M170.5,60.1
			V58h-3.8v2.1H170.5z M193.1,62.9v3H175v-3H193.1z M182.3,52.4v-1.9h-7v-3.1h7v-2.1h3.4v2.1h7.5v3.1h-7.5v1.9h6.9v9h-17v-9H182.3z
			 M180.6,55.2h-2v3.5h2V55.2z M182.2,76.9c-1.9,0-2.8-1-2.8-3v-6.4h3.1v5.8c0,0.3,0.2,0.6,0.7,0.6h2.8c0.3,0,0.5-0.1,0.7-0.3
			c0.2-0.2,0.3-1,0.3-2.3l3.1,1c-0.2,2.3-0.6,3.7-1.2,4.2c-0.5,0.4-1.3,0.6-2.3,0.6H182.2z M185.1,55.2h-1.9v3.5h1.9V55.2z
			 M188.2,70.1l-2.3,1.6c-0.7-1.2-1.6-2.5-2.8-4l2.2-1.4C186.6,67.7,187.5,69,188.2,70.1z M189.6,55.2h-2v3.5h2V55.2z M194.1,74
			l-2.9,1.3c-0.8-2.8-1.6-5.2-2.6-7.4l2.9-0.9C192.5,69.2,193.4,71.5,194.1,74z"/>
		<path fill="#4F4F51" d="M202.8,49.2c-0.5-1.1-1-2.2-1.5-3.2l3.5-0.9c0.7,1.5,1.2,2.9,1.6,4.1h3.6v3.3h-11.5v-3.3H202.8z
			 M209.2,75.3h-6.6v1.6h-3.4V64.6h9.9V75.3z M208.8,54.5c2.7-2.3,4.7-5.3,6-8.9l3.2,1.3c-1,2.6-2.3,4.8-3.7,6.7h11.4
			c-1.5-2.5-3.1-4.8-4.8-6.8l3-1.4c2.6,3,4.8,6.3,6.8,9.9l-3.1,1.6c-0.3-0.6-0.6-1.1-0.9-1.6v9.4H224v8c0,0.6,0.3,0.8,1,0.8h0.8
			c0.4,0,0.7-0.2,0.9-0.6c0.2-0.4,0.3-1.6,0.4-3.7l3.1,1c-0.2,3.1-0.7,5-1.3,5.6c-0.6,0.6-1.4,0.8-2.5,0.8H224
			c-2.2,0-3.3-1.1-3.3-3.3v-8.7h-2.3c-0.5,5.8-2.8,10-7,12.7l-1.9-3.1c3.2-1.9,5.1-5.1,5.5-9.6h-2.6v-8.9l-1,0.9l-2.4-2.1v2.8h-9.2
			v-3.1H208.8z M208.8,59.4v3.1h-9.2v-3.1H208.8z M205.9,72.3v-4.7h-3.2v4.7H205.9z M223.5,56.8h-7.8v4.8h7.8V56.8z"/>
		<path fill="#4F4F51" d="M239.2,58v-7.6h-4.1V47h11.8v3.5h-4V58h3.4v3.5h-3.4v7.1c1.4-0.6,2.7-1.2,4-1.8v3.5
			c-3.5,1.6-7.2,3-11.2,4.1l-0.8-3.5c1.5-0.3,2.9-0.6,4.3-1v-8.4h-3.6V58H239.2z M264.7,46.2v20.1h-3.7v6.3c0,0.5,0.2,0.8,0.6,0.9
			h1.3c0.4-0.1,0.6-0.6,0.7-1.5c0.1-0.9,0.1-2.2,0.1-3.9l3.2,1.2c0,3.4-0.2,5.5-0.7,6.2c-0.5,0.7-1.5,1.1-3.1,1.3h-1.6
			c-2.6,0-3.9-1.2-3.9-3.4v-7.1h-2.4c-0.4,5-2.9,8.6-7.4,10.9l-1.9-3.1c3.5-1.5,5.4-4.1,5.9-7.8H248V46.2H264.7z M261.2,51.9v-2.6
			h-9.7v2.6H261.2z M261.2,57.5v-2.8h-9.7v2.8H261.2z M261.2,60.4h-9.7v2.9h9.7V60.4z"/>
		<path fill="#4F4F51" d="M273.4,67.1l-2.3-3c3.9-3.2,7-6.9,9.4-11.1h-8.1v-3.6h9.9c0.7-1.5,1.2-3.1,1.7-4.7l3.8,0.5
			c-0.4,1.5-0.9,2.9-1.4,4.3h16.9v3.6h-18.5c-1.3,2.6-2.9,5.1-4.7,7.4v17h-3.6v-13C275.4,65.4,274.5,66.3,273.4,67.1z M290,61v-6
			h3.7v6h8v3.6h-8v8.2h9.5v3.6h-21.9v-3.6h8.7v-8.2h-7.5V61H290z"/>
		<path fill="#4F4F51" d="M325.6,53.1c2,9.2,7,16.2,14.9,21l-2.4,3.2c-6.5-4.4-11.1-10.2-13.8-17.6c-2.3,7.1-7.1,13-14.3,17.7
			l-2.2-3.3c9.3-5.6,14.1-13.4,14.4-23.4c0-2.3,0-4.1,0-5.5h3.7C325.8,48.3,325.7,50.9,325.6,53.1z"/>
		<path fill="#4F4F51" d="M351.7,72.5c2.8-0.6,5.6-1.4,8.3-2.3l0.9,3.5c-3.4,1.1-7.7,2.1-12.8,3.1l-1-3.5c0.6-0.3,0.9-0.9,0.9-1.7
			V46.2h25.7v11.2h-9.3c0.1,1.4,0.3,2.7,0.5,3.8h10.9v3.5h-10.1c0.2,0.6,0.3,1,0.6,1.5c1,2.4,2.1,4.2,3.2,5.2c1.1,1,2.1,1.5,3,1.6
			c0.3,0,0.6-0.3,0.8-0.9c0.2-0.6,0.4-1.9,0.6-4.1l3.2,1.7c-0.5,3-1,4.9-1.6,5.8c-0.6,0.9-1.3,1.3-2.2,1.4c-1.7,0-3.5-0.8-5.3-2.4
			c-1.8-1.6-3.4-3.9-4.8-6.9c-0.4-0.9-0.8-1.9-1-2.9h-10.5V72.5z M351.7,49.7V54h18.4v-4.3H351.7z M351.7,57.4v3.8h9.7
			c-0.2-1.3-0.5-2.5-0.6-3.8H351.7z"/>
		<path fill="#4F4F51" d="M403.7,75.3l-0.9-3.3l2.6,0.2c0.8,0,1.2-0.5,1.2-1.3v-2.8h-7.5v9.3h-3.6v-9.3H388v6.8h-3.6v-10h11.1v-2
			h-1.7l-0.7-2.7l1.6,0.1c0.5,0,0.8-0.3,0.8-0.9v-0.9l-2.2,0.6c-0.3-1.7-0.7-3.3-1.1-4.8l2-0.7c0.5,1.4,1,3,1.3,4.7v-5.6H392v9.8
			h-2.7v-9.8h-3.6v10.2h-3V49.8h2.8c-0.6-1.2-1.3-2.2-2-3.2l2.6-1.3c0.7,1,1.4,2.2,2.1,3.5l-1.8,0.9h2.9v-4.6h3v4.6h2.8l-1.8-0.9
			c0.8-1.2,1.5-2.3,2-3.5l2.6,1.3c-0.5,1-1.2,2.1-1.9,3.1h2.5v3.3c2.1-2.2,3.5-4.8,4.2-7.9l3.3,0.4c-0.2,0.9-0.5,1.8-0.8,2.7h7.5
			v3.1h-1.3c-0.7,2.5-1.7,4.6-3,6.3c1.5,1,3.3,2,5.3,2.8l-1.7,3c-2.2-1-4.1-2.2-5.7-3.4c-1.6,1.4-3.5,2.4-5.6,3.1l-1.7-2.8
			c1.9-0.6,3.5-1.4,4.8-2.5c-0.8-0.7-1.4-1.5-2-2.3l1.5-2.3c0.7,0.9,1.6,1.7,2.5,2.5c1-1.3,1.7-2.8,2.3-4.5h-4.3
			c-0.9,1.6-2.1,3.1-3.5,4.5l-1.7-2.3V60c0,1.4-0.5,2.2-1.4,2.6h2.2v2.3h11.1v6.8c0,2.4-1.2,3.7-3.6,3.7H403.7z M388.9,54.2
			c-0.1,2.3-0.4,4.3-0.9,6.1l-2.3-0.8c0.5-1.6,0.9-3.5,1-5.6L388.9,54.2z"/>
		<path fill="#4F4F51" d="M427.1,45.2v5.8h6.9c0,12-0.2,19.5-0.5,22.3c-0.3,2.5-2.1,3.8-5.2,3.8c-0.6,0-1.5-0.1-2.8-0.2l-0.9-3.3
			c1.2,0.1,2.2,0.2,3.1,0.2c1.3,0,2.1-0.8,2.4-2.2c0.2-1.6,0.3-7.3,0.3-17h-3.3v1c-0.1,10-2.3,17.4-6.7,22.1l-3-2.6
			c3.9-4,5.9-10.5,6-19.5v-1h-5.1v-3.6h5.1v-5.8H427.1z M448.6,76.9H445v-2.1h-5v2.1h-3.6v-28h12.1V76.9z M445,71.2V52.5h-5v18.8
			H445z"/>
		<path fill="#4F4F51" d="M464.4,49.7v-3.6h7.8c0.9,10.5,5.7,19.8,14.3,27.7l-2.1,3.1c-6.9-6.3-11.4-13.5-13.7-21.6
			c-2.5,9.2-7.2,16.4-14.1,21.5l-2.2-3.1c7.6-5.6,12.5-13.7,14.9-24.1H464.4z"/>
		<path fill="#F1625B" d="M494,60.4l-3.2-0.9c1-3.7,1.6-7.5,1.8-11.6l3.3,0.2c-0.1,1.3-0.1,2.6-0.3,3.9h1.7v-6.9h3.5v6.9h2.6v3.5
			h-2.6v7.1c1-0.4,1.9-0.8,2.8-1.2v3.4c-0.9,0.4-1.9,0.8-2.8,1.1v11.4h-3.5V67.3c-1.8,0.6-3.6,1.2-5.5,1.6l-0.9-3.5
			c2.2-0.4,4.3-0.9,6.3-1.5v-8.3h-2.2C494.8,57.2,494.4,58.8,494,60.4z M515,45.1v3.4h7.9v3.4H515v3h6.9v3.4H505v-3.4h6.4v-3h-7.8
			v-3.4h7.8v-3.4H515z M515.6,61.3v-1.9h3.6v1.9h3.8v3.4h-3.8v8.9c0,2.3-1.3,3.5-3.7,3.5h-4.1l-0.7-3.4c1.3,0.1,2.4,0.2,3.6,0.2
			c0.9,0,1.4-0.4,1.4-1.2v-8h-11.1v-3.4H515.6z M511.8,70.8l-2.9,2c-1-1.6-2.3-3.5-4-5.4l2.8-1.8C509.6,67.6,510.9,69.3,511.8,70.8z
			"/>
		<path fill="#F1625B" d="M544.2,46.3v12H536c-0.1,1.1-0.1,2.1-0.2,3.1h9.4c0,6.4-0.2,10.4-0.5,11.9c-0.4,2.4-2.4,3.7-6,3.7
			c-0.6,0-1.5-0.1-2.9-0.2l-0.8-3.1c1.2,0.1,2.3,0.1,3.2,0.1c1.8,0,2.8-0.7,3.1-2.1c0.2-0.7,0.3-3,0.3-6.9h-6.2c-0.3,2-0.6,3.7-1,5
			c-0.9,2.9-2.4,5.3-4.6,7.5l-2.4-3.1c1.7-1.7,3-3.7,3.7-6.1c0.6-2.1,1-5.4,1.2-9.9h-2.9v-12H544.2z M540.7,49.7h-7.6v5.2h7.6V49.7z
			 M551.5,48.2v21.4h-3.6V48.2H551.5z M549.9,77.1l-0.8-3.5c1.6,0.1,3.1,0.2,4.6,0.2c0.9,0,1.4-0.6,1.4-1.7V45.3h3.6v27.8
			c0,2.6-1.3,4-3.8,4H549.9z"/>
		<path fill="#F1625B" d="M565.5,77.1l-0.8-3.5c0.9,0.1,1.8,0.2,2.6,0.2c0.8,0,1.2-0.4,1.2-1.2v-7c-1.1,0.4-2.3,0.8-3.5,1.2
			l-0.9-3.7c1.5-0.3,2.9-0.8,4.4-1.3V55h-3.8v-3.5h3.8v-6.2h3.7v6.2h3.1V55h-3.1v5.4c0.8-0.4,1.7-0.9,2.5-1.3v3.7l-2.5,1.3v9.6
			c0,2.4-1.2,3.6-3.6,3.6H565.5z M595.5,60.5v3.2h-8.2v2.9h6.7v3.2h-6.7v3.4c1.3,0.1,2.7,0.2,4.3,0.2c1.9,0,3.6-0.1,4.9-0.2l-1,3.5
			c-1.3,0-2.5,0-3.6-0.1c-4.7,0-7.8-0.5-9.6-1.3c-1.2-0.6-2.2-1.6-3.2-3.1c-0.8,1.8-1.7,3.5-3,5.1l-2.7-2.4
			c2.4-3.1,3.8-6.5,4.1-10.2l3.2,0.4c-0.1,1.3-0.2,2.4-0.5,3.6c1,1.9,2.2,3.1,3.5,3.7c0,0,0,0,0.1,0v-8.6h-8.4v-3.2H595.5z
			 M593.4,46.2v12.7h-15.8V46.2H593.4z M589.8,51.2v-2.1h-8.8v2.1H589.8z M589.8,53.9h-8.8V56h8.8V53.9z"/>
		<path fill="#F1625B" d="M606.5,68.2c-0.7,2.7-1.6,5.1-2.9,7.1l-2.7-1.7c1.3-1.9,2.2-3.9,2.7-6L606.5,68.2z M608.1,48v-2.9h3.4V48
			h6v3.1h-6v2.1h5.2v3h-14.4v-3h5.8v-2.1h-7V48H608.1z M617.9,63.2v3.1h-6.7v11h-3.4v-11h-6.5v-3.1H617.9z M615.6,58.2v3.1h-12.2
			v-3.1H615.6z M617.3,72.3l-2.8,1.3c-0.7-2-1.4-3.8-2.1-5.3l2.8-0.9C616,68.8,616.7,70.5,617.3,72.3z M626.1,55.9
			c0,2.3-0.1,4.4-0.3,6.4c1.4,5.2,3.9,9.3,7.5,12.4l-2.4,2.8c-2.6-2.6-4.7-5.8-6.1-9.4c-1.1,3.8-3.5,7-7.1,9.6l-2.2-2.6
			c3.2-2.3,5.3-5.1,6.3-8.3c0.8-2.8,1.2-6.3,1.2-10.7H626.1z M623.7,45.9c-0.2,1.6-0.4,3.1-0.7,4.4h9v2.2c-0.5,2.9-1,5.8-1.7,8.7
			l-3.3-0.9c0.6-1.9,1.2-4.2,1.6-6.8h-6.2c-0.8,2.9-1.8,5.2-3,6.8l-2.8-2c2-3.1,3.3-7.5,3.9-13.1L623.7,45.9z"/>
		<path fill="#F1625B" d="M59.9,125.2h-3.6v-15.3c-0.9,2.6-2,5-3.2,7.2l-1.5-3.7c2.1-3.1,3.6-6.5,4.6-10.4h-3.6v-3.5h3.8v-6.4h3.6
			v6.4h2.9v3.5h-2.9v1.7c1.4,1.5,2.7,3.2,4,5l-2,2.9c-0.8-1.5-1.5-2.8-2.1-3.9V125.2z M62.4,117.8l-1-3.2c2.4-2.4,4-5,5-7.8l3.3,0.6
			c-0.1,0.4-0.3,0.8-0.5,1.2H73c-0.2-0.5-0.5-0.9-0.8-1.3l3.6-0.5c0.2,0.6,0.5,1.2,0.7,1.8h6.7v2.9h-6.4v1.6h5.4v2.6h-5.4v1.6h5.6
			v2.6h-5.6v1.7h7.1v2.9h-16v0.8h-3.1v-9.8C64,116.2,63.2,117,62.4,117.8z M68.6,94.7V93h3.3v6.2h-3.3v-1.5h-5.8v-2.9H68.6z
			 M72.6,99.8v6.6H64v-6.6H72.6z M70,102.2h-3.3v1.8H70V102.2z M73.6,111.3h-5.7v1.6h5.7V111.3z M73.6,115.6h-5.7v1.6h5.7V115.6z
			 M73.6,121.4v-1.7h-5.7v1.7H73.6z M82.9,99.8v6.5H74v-6.5H82.9z M77.9,92.9v1.8h5.9v2.9h-5.9v1.5h-3.3v-6.3H77.9z M80.2,102.2
			h-3.5v1.7h3.5V102.2z"/>
		<path fill="#F1625B" d="M119.2,92.9c-1.5,2.4-2.6,4.8-3.3,7.2c-1,3-1.5,6-1.5,9.1c0,3,0.5,6,1.5,9.1c0.8,2.4,1.9,4.8,3.3,7.2h-3.3
			c-1.7-2.3-2.9-4.7-3.8-7.1c-1.1-2.9-1.6-6-1.6-9.1c0-3.2,0.5-6.2,1.6-9.2c0.9-2.5,2.2-4.9,3.8-7.1H119.2z"/>
		<path fill="#F1625B" d="M141.8,98.2c1.7,1.3,2.8,3.3,3,6h-4c-0.3-1.5-1-2.6-1.9-3.3c-0.9-0.7-2.3-1-4.1-1c-1.6,0-2.8,0.2-3.6,0.7
			c-1,0.5-1.5,1.4-1.5,2.6c0,1,0.6,1.9,1.7,2.5c0.5,0.3,2,0.8,4.3,1.5c3.4,1,5.5,1.9,6.5,2.4c2.2,1.3,3.2,3.1,3.2,5.4
			c0,2.2-0.9,4-2.6,5.3c-1.7,1.3-4.2,1.9-7.4,1.9c-3.1,0-5.5-0.6-7.2-1.8c-2.1-1.5-3.2-3.8-3.4-6.9h4c0.3,1.9,0.9,3.2,2,4
			c1,0.7,2.5,1.1,4.5,1.1c1.8,0,3.3-0.3,4.3-0.9c1-0.6,1.6-1.4,1.6-2.5c0-1.3-0.8-2.4-2.3-3.1c-0.5-0.2-2.1-0.8-4.8-1.6
			c-3.1-1-5-1.7-5.7-2.1c-1.9-1.2-2.9-2.8-2.9-5c0-2.2,0.9-3.9,2.8-5.2c1.7-1.2,3.9-1.8,6.6-1.8C137.9,96.3,140.2,96.9,141.8,98.2z"
			/>
		<path fill="#F1625B" d="M159.7,96.8c4,0,7.1,1.1,9.2,3.3c2,2.1,3,5.1,3,9.1c0,3.9-1,7-3,9.1c-2.1,2.2-5.1,3.3-9.2,3.3h-9.1V96.8
			H159.7z M154.7,118.2h4.3c3.1,0,5.4-0.7,6.8-2.2c1.4-1.5,2.1-3.7,2.1-6.8c0-3.1-0.7-5.4-2.1-6.8c-1.4-1.4-3.7-2.1-6.8-2.1h-4.3
			V118.2z"/>
		<path fill="#F1625B" d="M188.5,96.8c2.5,0,4.6,0.6,6,1.7c1.5,1.3,2.3,3.1,2.3,5.4c0,1.3-0.3,2.4-1,3.5c-0.8,1.1-1.8,1.8-3.2,2.2
			v0.1c2.2,0.5,3.4,1.9,3.7,4.4l0.4,4c0.1,1.5,0.7,2.8,1.5,3.7h-4.4c-0.6-0.8-0.9-1.8-1.1-3.2l-0.3-3.1c-0.1-1.4-0.6-2.3-1.3-2.9
			c-0.7-0.6-1.8-0.9-3.2-0.9h-6.4v10.1h-4.1V96.8H188.5z M181.5,108.1h6.4c1.6,0,2.8-0.3,3.7-1c0.8-0.7,1.2-1.7,1.2-2.9
			c0-1.4-0.4-2.3-1.2-2.9c-0.8-0.6-2-0.9-3.7-0.9h-6.4V108.1z"/>
		<path fill="#F1625B" d="M207.1,92.9c1.6,2.3,2.9,4.6,3.8,7.1c1,2.9,1.6,6,1.6,9.2c0,3.1-0.6,6.2-1.6,9.1c-0.9,2.4-2.2,4.8-3.8,7.1
			h-3.3c1.4-2.4,2.5-4.8,3.3-7.2c1-3,1.5-6.1,1.5-9.1c0-3-0.5-6.1-1.5-9.1c-0.8-2.4-1.9-4.8-3.3-7.2H207.1z"/>
		<path fill="#4F4F51" d="M249.3,94.5c-1.8,3.8-4.9,7.2-9.3,10.3l-1.1-3.5c3.3-2.4,5.7-5.1,7.3-8.3L249.3,94.5z M250,103.4
			c-0.8,1.7-1.9,3.4-3.2,4.9v16.8h-3.5v-13.3c-1,0.8-2.1,1.7-3.2,2.5l-1.1-3.5c3.5-2.6,6-5.6,7.7-9L250,103.4z M270.6,108.8
			l-2.7,1.9c-0.5-0.8-0.9-1.6-1.4-2.4c-2.6,0.4-5.7,0.7-9.2,1l1.1,0.5c-0.2,0.5-0.5,1-0.7,1.5h9.7v2.9c-0.8,2.2-2.2,4.1-4.2,5.8
			c2.5,1,5.3,1.8,8.4,2.5l-2.1,3c-3.7-0.9-6.9-2-9.6-3.4c-2.6,1.4-6,2.5-9.9,3.4l-1.6-3c3.2-0.6,5.9-1.4,8.2-2.4
			c-1.1-0.7-2.2-1.5-3.1-2.3c-0.8,0.9-1.7,1.7-2.6,2.4l-2.6-2.2c1.1-0.8,2.1-1.7,2.9-2.6c-0.6-0.7-1.2-1.5-1.7-2.2l2.8-1.6
			c0.3,0.4,0.6,0.8,0.9,1.3c0.7-1,1.3-2.2,1.8-3.3l-4.2,0.3l-1-2.8c2.4-0.8,5.1-2.5,8.1-5c-1.9,0.2-4.1,0.3-6.7,0.6l-0.5-2.9
			c1-0.1,2-0.6,2.7-1.4c0.9-1,2.1-2.8,3.6-5.3l3.2,1.3c-1.3,1.9-2.7,3.6-4.2,5.2c1.8-0.2,3.5-0.3,5.1-0.5c0.9-0.9,1.8-1.8,2.7-2.8
			l3.2,1.6c-3.8,4-7.3,7-10.4,9.2c2.9-0.3,5.6-0.7,7.9-1.1c-0.6-0.8-1.2-1.6-1.8-2.4l2.6-1.7C267.6,104.3,269.4,106.7,270.6,108.8z
			 M263.6,114.3h-7.7l-0.6,0.9c1.3,1.1,2.7,2.2,4.4,3.1C261.4,117.2,262.7,115.8,263.6,114.3z"/>
		<path fill="#4F4F51" d="M279.5,109.1h25.2v2.6h-2.9v8.6h4.6v2.9h-4.6v2.1h-3.6v-2.1H277v-2.9h4.4v-8.6h-2.2v-2.1
			c-0.3,0.6-0.8,1.2-1.2,1.7l-2.4-2.1c1.3-1.3,1.9-2.9,2-4.9v-3.1h13.9v5.9h-11.2C280.1,107.9,279.9,108.5,279.5,109.1z M282.9,94.6
			v-1.4h3.5v1.4h5.9V97h-5.9v1.1h4.7v2.3h-13.2v-2.3h5V97h-6.5v-2.4H282.9z M280.7,103.4v0.9c0,0.2,0,0.5,0,0.7h2.7v-1.6H280.7z
			 M298.4,111.8H285v1.5h13.4V111.8z M298.4,115.4H285v1.4h13.4V115.4z M298.4,118.9H285v1.5h13.4V118.9z M288.4,105v-1.6H286v1.6
			H288.4z M303.9,93.9v3c0,0.4,0.2,0.6,0.7,0.6h2.6v2.4h-3.4c-1.8,0-2.8-0.8-2.8-2.4v-1h-3.6c0,0.9-0.2,1.7-0.7,2.4
			c-0.3,0.6-0.9,1.1-1.7,1.6h10.6v2.2c-0.6,1.1-1.6,2.1-2.9,2.9c1.4,0.3,3,0.6,4.7,0.9l-1.6,2.6c-2.5-0.5-4.7-1.1-6.5-1.9
			c-1.8,0.7-3.9,1.2-6.2,1.6l-1.4-2.5c1.7-0.2,3.3-0.5,4.7-0.9c-1-0.8-1.9-1.7-2.5-2.6h-0.9v-2.4h0.8l-1.5-1.4c1-0.8,1.6-1.5,2-2.1
			c0.3-0.7,0.5-1.7,0.5-3.1H303.9z M299.5,104.5c1.2-0.5,2.2-1.1,2.9-1.7h-5.5C297.6,103.5,298.4,104,299.5,104.5z"/>
		<path fill="#4F4F51" d="M319.6,94.5V93h3.4v1.5h4.6V97H323v1.4h5.6v2.8h-2.5v0.3c0,0.6,0.2,0.8,0.6,0.8h1.8v2h-2.9
			c-1.7,0-2.5-0.5-2.5-1.5v-1.6h-3.4c-0.6,1.5-1.7,2.8-3.2,3.9h2.8v-2h3.4v2h3.7v2.5h-3.7v1.4l4.9-0.3v2.6
			c-4.3,0.5-8.9,0.9-13.8,1.3l-0.8-3.2c2.1-0.1,4.3-0.2,6.3-0.2v-1.6H316v-2.1c-0.6,0.3-1.2,0.7-1.9,1l-1.5-2.9
			c2-0.6,3.3-1.5,4.1-2.5H313v-2.8h6.7V97h-5v-2.6H319.6z M330.3,112.1c-0.1,0.6-0.2,1.3-0.3,1.8h11.9c0,4.8-0.4,7.8-1.3,9.1
			c-0.8,1.3-2.3,2-4.4,2c-1.7,0-3.1-0.1-4.2-0.2l-0.9-3.5c1.8,0.2,3.4,0.3,4.9,0.3c1.2-0.1,1.8-0.5,2-1.4s0.2-1.9,0.2-3h-9.4
			c-0.7,1.3-1.6,2.5-2.6,3.5c-2.1,2-5.7,3.5-11,4.6l-1.6-3.7c4.4-0.8,7.6-2,9.6-3.5c0.3-0.3,0.7-0.6,1-0.9h-9.8v-3.4h11.8
			c0.2-0.7,0.4-1.4,0.5-2.2L330.3,112.1z M338.6,111.4c-0.7-1-1-2.9-1-5.8v-5.9h-2c-0.1,2.1-0.3,3.9-0.7,5.5
			c0.9,0.6,1.7,1.2,2.5,1.8l-1.7,2.6c-0.7-0.5-1.3-1-1.9-1.4c-0.8,1.6-1.8,2.9-3.1,4l-2.5-2.2c1.2-1,2.1-2.2,2.8-3.6
			c-0.8-0.5-1.7-0.9-2.5-1.3l1.7-2.5c0.6,0.3,1.2,0.6,1.8,0.9c0.2-1.2,0.4-2.5,0.5-3.8h-2.8v-3.2h2.9v-3.3h3.3v3.3h5.1v9.2
			c0,2.5,0.2,3.7,0.6,3.7c0.3,0,0.5-1.4,0.8-4.1l2.6,1.4c-0.3,2.3-0.7,4-1.3,5c-0.6,0.9-1.4,1.4-2.3,1.4
			C340.1,112.9,339.3,112.4,338.6,111.4z"/>
		<path fill="#4F4F51" d="M362.4,99.1l0.7-1.5c-3.2,0.1-6.7,0.2-10.4,0.2l-1-3c9.8,0,18.1-0.7,24.9-2l1.7,2.9
			c-3.3,0.7-7.2,1.2-11.6,1.6c-0.2,0.6-0.4,1.2-0.6,1.7h12.4v3.1h-13.8c-0.3,0.5-0.6,1-0.8,1.5h16.7v3.2h-18.9
			c-0.4,0.5-0.8,1-1.2,1.5h16.8v17h-3.5v-1.3h-14.8v1.3h-3.5v-12.1c-1.5,1.3-3.1,2.5-4.8,3.7l-2-3.1c3.3-2.2,6.1-4.5,8.4-7h-7.5
			v-3.2h10.1c0.3-0.5,0.7-1,1-1.5h-9.2v-3.1H362.4z M373.7,111.3h-14.8v1.5h14.8V111.3z M358.9,116.9h14.8v-1.4h-14.8V116.9z
			 M358.9,121.2h14.8v-1.6h-14.8V121.2z"/>
		<path fill="#4F4F51" d="M392.3,107l-2.5,2.5c-1.1-1.6-2.7-3.3-4.8-5.1l2.5-2.5C389.5,103.7,391.1,105.4,392.3,107z M392.5,112.7
			c-1.1,4.5-2.4,8.6-3.7,12.5l-3.4-1.5c1.5-4,2.8-8.1,3.9-12.3L392.5,112.7z M393.4,98.8l-2.5,2.5c-1.2-1.6-2.8-3.3-4.9-5.2l2.5-2.5
			C390.4,95.4,392.1,97.1,393.4,98.8z M396.2,110.2h5.2c0,5.9-0.2,9.8-0.5,11.7c-0.3,2-1.7,3.1-4.3,3.3c-0.8,0-1.5,0-2.3-0.1
			l-0.8-3.1c0.8,0.1,1.5,0.1,2.3,0.1c1.2,0,1.9-0.6,2.1-1.7c0.2-1.2,0.3-3.5,0.3-7.1H393l0.9-11.3h4.1v-4.8h-4.7v-3.2h8v11.1h-4.6
			L396.2,110.2z M416.1,97.3h-8.8v1.9h7.7v3.1h-7.7v2h7.7v3.1h-7.7v1.9h9.7v3.3h-10.1v8.9c1.2-0.3,2.3-0.8,3.5-1.4l0.6,3
			c-2.2,0.9-4.6,1.7-7.5,2.4l-1.3-2.8c1-0.4,1.5-1,1.5-1.8v-8.4H402v-3.3h2V94.1h12.2V97.3z M412.2,115.5c1-0.7,1.9-1.6,2.8-2.7
			l2.2,2.1c-1.1,1.3-2.3,2.3-3.7,3.1c1.2,2,2.8,3.5,4.6,4.5l-1.9,2.8c-3.6-2-6-5.6-7.5-11.1l2.6-1.5
			C411.6,113.7,411.9,114.6,412.2,115.5z"/>
		<path fill="#4F4F51" d="M441,108.2c0,3.4-1.6,6-4.8,7.7l-1.2-2c2.1-1.3,3.2-2.9,3.4-4.8c-0.2,0-0.4,0.1-0.7,0.1
			c-0.8,0-1.4-0.2-1.9-0.7c-0.5-0.5-0.8-1.1-0.8-1.8c0-0.8,0.2-1.4,0.8-1.9c0.5-0.5,1.2-0.7,1.9-0.7C440,103.9,441,105.4,441,108.2z
			"/>
		<path fill="#4F4F51" d="M465,101.4h22l-0.2,7.8h4.1v3.4h-4.3c-0.1,1.8-0.1,3.3-0.2,4.6h3.5v3.3h-3.7c-0.1,0.8-0.2,1.3-0.2,1.6
			c-0.3,1.1-0.9,1.9-1.8,2.4c-0.9,0.5-2.2,0.8-3.8,0.8c-1.3,0-2.8,0-4.4,0l-1.1-3.3c1.8,0.1,3.5,0.1,5,0.1c0.6,0,1.2-0.1,1.6-0.2
			c0.5-0.2,0.9-0.6,1.1-1.3c0-0.1,0-0.1,0-0.1h-20.1c0.5-2.6,0.9-5.3,1.2-7.9h-5.3v-3.4h5.6c0.2-2.4,0.3-4.8,0.4-7.2
			c-1.1,1.4-2.3,2.7-3.5,3.8l-2.3-2.8c2.7-2.4,5.1-5.8,7.1-10.3l3.7,0.8c-0.3,0.8-0.7,1.5-1.1,2.3h20.8v3.5h-22.8
			C465.9,100,465.5,100.7,465,101.4z M467.4,112.6c-0.2,1.6-0.4,3.2-0.7,4.6h9.3c-1.8-1-3.7-1.7-5.5-2.3l1.6-2.3H467.4z
			 M475.9,109.2c-1.7-0.9-3.4-1.6-5.1-2.2l1.5-2.3H468c-0.1,1.6-0.2,3.1-0.2,4.5H475.9z M472.5,112.6c2.4,0.8,4.7,1.7,6.8,2.8
			l-1.2,1.8h4.8c0.1-1.3,0.1-2.8,0.2-4.6H472.5z M483.2,109.2l0.1-4.5h-10.6c2.4,0.8,4.7,1.7,6.8,2.9l-1,1.6H483.2z"/>
		<path fill="#4F4F51" d="M527.1,120.2v3.6h-31.7v-3.6H527.1z M524.6,95.4V99h-26.7v-3.6H524.6z M522.2,107.3v3.6h-21.9v-3.6H522.2z
			"/>
		<path fill="#4F4F51" d="M533,105.9l-1.2-3.9c2.7-2.8,4.7-5.9,5.8-9.2l3.5,0.7c-0.2,0.7-0.5,1.4-0.8,2.1h7.1
			c-0.4-0.8-0.8-1.5-1.3-2.2l3.8-0.6c0.4,0.8,0.8,1.8,1.2,2.8h10.4v2.9h-10.6v1.4h9.3v2.9h-9.3v1.4h9.3v2.9h-9.3v1.4h11.4v3h-26.8
			v-8.1C534.7,104.1,533.9,105,533,105.9z M534.6,115.7v-3.1h25.6v2.6c-2,1.9-4.5,3.6-7.3,5c3.2,0.8,7,1.5,11.3,2.1l-2,3.1
			c-5.5-0.9-10.1-2-13.8-3.3c-4.1,1.5-9,2.6-14.4,3.3l-1.6-3.3c4.2-0.4,8-1.1,11.4-2c-2.6-1.4-4.6-2.9-5.9-4.5H534.6z M547.4,98.5
			h-8.4v1.4h8.4V98.5z M547.4,102.7h-8.4v1.4h8.4V102.7z M547.4,106.9h-8.4v1.4h8.4V106.9z M554.5,115.7H542
			c1.5,1.2,3.6,2.2,6.1,3.1C550.5,117.9,552.6,116.8,554.5,115.7z"/>
		<path fill="#4F4F51" d="M592.6,93.2v6.2h6.9c0,11.8-0.2,19-0.5,21.8c-0.3,2.5-1.9,3.8-4.7,3.8c-0.6,0-1.7-0.1-3.3-0.2l-0.9-3.2
			c1.4,0.1,2.6,0.1,3.7,0.1c1.1,0,1.7-0.8,2-2.3c0.2-1.6,0.3-7.2,0.4-16.8h-3.5v1.2c-0.1,9.7-2.2,16.8-6.3,21.3l-2-1.7
			c-4.6,0.6-9.9,1-15.7,1.4l-0.5-3.2c2.5-0.1,4.8-0.3,7.1-0.4v-2.2h-5.9v-2.9h5.9v-1.7h-6v-11.3h6v-1.5h-6.7v-3h6.7v-1.5
			c-1.8,0.1-3.7,0.1-5.6,0.1l-1-2.8c5.9,0,10.8-0.5,14.8-1.4l1.6,2.7c-1.9,0.5-4,0.8-6.4,1.1v1.8h6.6v3h-6.6v1.5h6.1v11.3h-6.1v1.7
			h5.9v2.9h-5.9v1.9c2.1-0.2,4.1-0.4,5.9-0.6v1.5c3-4,4.6-10,4.6-18v-1.2h-3v-3.3h3v-6.2H592.6z M575.5,107.7v-1.8h-3v1.8H575.5z
			 M575.5,110h-3v1.8h3V110z M578.5,107.7h3v-1.8h-3V107.7z M581.5,110h-3v1.8h3V110z"/>
		<path fill="#4F4F51" d="M607.9,108.3l-3.2-0.9c0.9-3.7,1.5-7.5,1.6-11.6l3.2,0.2c-0.1,1.3-0.1,2.6-0.2,4h1.5v-6.9h3.6v6.9h2.4v3.5
			h-2.4v7c0.7-0.3,1.5-0.7,2.2-1v3.4c-0.8,0.3-1.5,0.7-2.2,1v11.5h-3.6v-10.1c-1.6,0.6-3.2,1.1-4.8,1.6l-0.9-3.5
			c1.9-0.4,3.8-0.9,5.7-1.5v-8.3h-1.9C608.6,105.1,608.3,106.7,607.9,108.3z M624,93.9c-0.3,1.6-0.7,3-1.1,4.4h13.2
			c0,12.1-0.2,19.6-0.5,22.4c-0.4,3-2.4,4.5-6,4.5c-0.5,0-1.4-0.1-2.6-0.2l-0.8-3.2c1.1,0.1,2.1,0.2,2.9,0.2c1.8,0,2.9-1,3.2-2.9
			c0.2-1.6,0.3-7.4,0.4-17.3h-1.3c-0.7,5.6-1.7,10-3.1,13.3c-1.6,3.7-4,7-7.1,10l-2.3-2.9c2.9-2.6,5-5.4,6.4-8.6
			c1.2-3,2.2-6.9,2.8-11.7h-1.7c-1.5,7.4-4.1,12.8-7.9,16.2l-2.3-2.7c3.3-2.9,5.7-7.4,7-13.5h-1.5c-0.9,2.1-1.9,3.8-3,5.2l-2.6-2.3
			c2.2-2.7,3.7-6.7,4.6-11.7L624,93.9z"/>
		<path fill="#4F4F51" d="M57.3,161.2c-0.7,3.1-1.7,5.9-2.8,8.3l-3-1.1c1-2.1,2-4.8,2.8-8L57.3,161.2z M58.7,144.2
			c-0.4-0.9-0.9-1.8-1.4-2.6l3.9-0.6c0.4,1,0.8,2,1.2,3.2h6.1v3.3H52.4v-3.3H58.7z M66.9,149.5v9.4h-4.8v10.7c0,2.2-1.1,3.3-3.2,3.3
			h-2.6l-0.7-3.3c0.8,0.1,1.5,0.2,2.2,0.2c0.6,0,0.9-0.4,0.9-1.1v-9.9h-5v-9.4H66.9z M63.5,152.6H57v3.3h6.5V152.6z M68,166.7
			l-2.9,1.1c-0.6-2.3-1.3-4.5-2.2-6.7l2.9-0.8C66.7,162.6,67.4,164.7,68,166.7z M74.6,141.1v7.8H83v3.4h-8.5
			c-0.3,9.3-2.4,16.2-6.2,20.6l-2.6-2.3c3.3-3.9,5.2-10.1,5.4-18.4h-3v-3.4h3v-7.8H74.6z M78.2,172.7c-2,0-2.9-1.1-2.9-3.2v-15.7
			h3.4v15c0,0.4,0.2,0.7,0.6,0.7h1c0.3,0,0.5-0.2,0.7-0.7c0.2-0.5,0.3-2.1,0.3-4.7l3.2,1c-0.2,3.8-0.6,6-1.2,6.7
			c-0.6,0.7-1.4,1-2.4,1H78.2z M82.4,146.4l-2.6,1.8c-0.9-1.5-2.2-3.2-3.8-5.1l2.7-1.7C80.2,143.4,81.5,145,82.4,146.4z"/>
		<path fill="#4F4F51" d="M90.2,151.8l-2-3.1c5.6-2.2,10.7-4.8,15.2-7.7h2.2c4.5,2.9,9.6,5.5,15.2,7.7l-2,3
			c-0.6-0.3-1.2-0.5-1.7-0.8v9.2H91.9V151C91.4,151.3,90.8,151.6,90.2,151.8z M111.5,148.2v1.2h-14v-1.2c-1.5,0.8-3.1,1.6-4.8,2.4
			h23.7C114.7,149.8,113.1,149,111.5,148.2z M115.8,173.3h-3.5v-1H96.7v1.1h-3.5v-12h22.6V173.3z M102.9,153.4h-7.7v4.2h7.7V153.4z
			 M112.4,165.5v-1.4H96.7v1.4H112.4z M112.4,169.5v-1.5H96.7v1.5H112.4z M101.1,156.7l-2.4,0.6c-0.5-1.1-1-2.2-1.7-3.2l2.4-0.7
			C100,154.4,100.6,155.5,101.1,156.7z M104.5,144.1c-1.4,0.9-2.8,1.8-4.4,2.7h8.7C107.3,145.9,105.9,145,104.5,144.1z M113.8,153.4
			h-7.7v4.2h7.7V153.4z M112,154.1c-0.5,1.3-1,2.3-1.6,3.3l-2.3-0.8c0.6-0.8,1.1-1.8,1.5-3.1L112,154.1z"/>
		<path fill="#4F4F51" d="M132.5,173.3l-2.6-2.4c2.1-2.2,3.2-4.9,3.3-8.2v-6.6c-1.7,2-3.7,3.9-5.8,5.6l-2.4-3.1
			c3.9-3.1,7-6.7,9.3-10.6h-8.4v-3.5h10.1c0.5-1.2,1-2.4,1.4-3.7l3.7,0.5c-0.3,1.1-0.7,2.2-1.1,3.2h16.6v3.5h-18.2
			c-0.6,1-1.1,2.1-1.7,3.1h15.8v18.8c0,2.2-1.2,3.2-3.7,3.2h-3.5l-0.9-3.3c1.2,0.1,2.3,0.2,3.3,0.2c0.8,0,1.3-0.5,1.3-1.4V166h-13
			C135.6,168.9,134.3,171.3,132.5,173.3z M136.5,162.5c0,0.1,0,0.2,0,0.4h12.7v-2.7h-12.7V162.5z M149.2,154.2h-12.7v2.8h12.7V154.2
			z"/>
		<path fill="#4F4F51" d="M193.6,155v3.6h-31.7V155H193.6z"/>
		<path fill="#4F4F51" d="M199.5,153.8l-1.2-3.9c2.7-2.8,4.7-5.9,5.8-9.2l3.5,0.7c-0.2,0.7-0.5,1.4-0.8,2.1h7.1
			c-0.4-0.8-0.8-1.5-1.3-2.2l3.8-0.6c0.4,0.8,0.8,1.8,1.2,2.8H228v2.9h-10.6v1.4h9.3v2.9h-9.3v1.4h9.3v2.9h-9.3v1.4h11.4v3H202v-8.1
			C201.2,152,200.4,153,199.5,153.8z M201.1,163.6v-3.1h25.6v2.6c-2,1.9-4.5,3.6-7.3,5c3.2,0.8,7,1.5,11.3,2.1l-2,3.1
			c-5.5-0.9-10.1-2-13.8-3.3c-4.1,1.5-9,2.6-14.4,3.3l-1.6-3.3c4.2-0.4,8-1.1,11.4-2c-2.6-1.4-4.6-2.9-5.9-4.5H201.1z M213.9,146.4
			h-8.4v1.4h8.4V146.4z M213.9,150.6h-8.4v1.4h8.4V150.6z M213.9,154.9h-8.4v1.4h8.4V154.9z M221,163.6h-12.4
			c1.5,1.2,3.6,2.2,6.1,3.1C217,165.8,219.1,164.8,221,163.6z"/>
		<path fill="#4F4F51" d="M241.6,157.5v9.3c0,1.3,0.6,1.9,1.8,1.9h17.4c0.6,0,1.1-0.2,1.6-0.6c0.5-0.5,0.8-2.5,1-6.1l3.6,1.1
			c-0.5,4.5-1,7.1-1.7,7.8c-0.8,0.8-2,1.2-3.3,1.3h-19.4c-3,0-4.5-1.6-4.5-4.7v-18.1h3.7v4.6h17.8V146h-22.9v-3.5H263v14.9H241.6z"
			/>
		<path fill="#4F4F51" d="M275.6,164.7c-0.2,3-0.6,5.7-1.1,8l-3.2-1c0.7-2.2,1.1-4.6,1.3-7.4L275.6,164.7z M284.6,161.9l-2.9,0.7
			c-0.1-0.6-0.2-1.2-0.4-1.7c-3.2,1-6.2,1.7-9,2.1l-0.9-3.1c0.6-0.3,1.1-0.6,1.5-1c1-1,2.2-2.6,3.6-5c-1.4,0.2-2.9,0.5-4.4,0.7
			l-0.9-3.2c0.6-0.2,1-0.7,1.5-1.3c1.4-2.8,2.5-5.9,3.6-9.3l3.3,1.3c-1.5,3.6-2.9,6.7-4.5,9c1.1-0.1,2.1-0.3,3.2-0.5
			c0.8-1.4,1.6-3,2.4-4.7l3.2,1.2c-3,5.5-5.6,9.5-7.6,12c1.4-0.3,2.8-0.7,4.1-1.1c-0.3-0.8-0.5-1.7-0.8-2.4l2.8-0.9
			C283.3,156.8,284,159.2,284.6,161.9z M280.6,170.8l-3.2,0.7c-0.3-2.6-0.6-5-0.9-7l3-0.7C279.8,166,280.2,168.3,280.6,170.8z
			 M284.8,168.8l-3,0.8c-0.3-2-0.7-3.9-1.2-5.7l2.8-0.9C283.9,164.7,284.4,166.6,284.8,168.8z M290.5,147.2
			c-0.9,2.1-1.9,3.9-2.9,5.3c1,1.2,2.1,2.9,3.2,5.1l-2.9,1.7c-1.1-2.5-2.4-4.8-3.8-6.7c1.4-2.1,2.5-4.3,3.4-6.6L290.5,147.2z
			 M285.9,163.1v-3.3h16.5v3.3h-6.5v6.3h7.8v3.3h-19.1v-3.3h7.9v-6.3H285.9z M303.1,142v3.3h-17.9V142H303.1z M296.8,147.2
			c-0.9,2.1-1.9,3.8-2.9,5.2c1,1.2,2.1,2.9,3.2,5l-2.9,1.7c-1.1-2.5-2.4-4.7-3.8-6.6c1.4-2.1,2.5-4.3,3.3-6.6L296.8,147.2z
			 M303.3,147.3c-0.9,2.1-1.9,3.8-2.9,5.2c1,1.2,2.1,2.9,3.2,5l-2.9,1.7c-1.1-2.5-2.4-4.7-3.8-6.6c1.4-2.1,2.5-4.3,3.3-6.5
			L303.3,147.3z"/>
		<path fill="#4F4F51" d="M335.7,152.4v15.8h-6.1c3.3,0.6,6.6,1.4,9.7,2.4l-1.2,3c-3.6-1.4-7.3-2.4-11.1-3.2l1.2-2.2h-8.2l1.4,1.9
			c-2.5,1.5-6.1,2.6-10.8,3.6l-1.6-2.9c4-0.7,7.3-1.5,9.6-2.6h-5.9v-15.8H335.7z M337.6,142.1v8.9h-27v-8.9H337.6z M318.5,145h-4.4
			v3.1h4.4V145z M332.2,156.8v-1.7h-16.1v1.7H332.2z M332.2,161v-1.6h-16.1v1.6H332.2z M332.2,163.5h-16.1v1.7h16.1V163.5z
			 M326.4,145h-4.6v3.1h4.6V145z M334.1,145h-4.4v3.1h4.4V145z"/>
		<path fill="#4F4F51" d="M358.9,147.9h-12.4v-3.5h12.4v-3.3h3.7v3.3H375v3.5h-12.4v9.1c3.5,4.7,8.3,8.4,14.3,11.2l-2,3.4
			c-4.7-2.3-8.8-5.5-12.3-9.4v10.9h-3.7v-10.9c-3.2,3.8-7.3,6.9-12.2,9.5l-1.9-3.3c6.1-2.9,10.8-6.7,14.2-11.2V147.9z M348.1,160.7
			l-2.3-2.8c2.8-2.3,4.6-5.4,5.6-9.3l3.3,0.6c-0.4,1.7-0.9,3.2-1.6,4.6c1.5,0.8,2.9,1.7,4.3,2.7l-2,3c-1.3-1.1-2.6-2.1-3.9-2.9
			C350.6,158.2,349.4,159.6,348.1,160.7z M366.5,159.7l-2.3-2.9c2.3-2,3.8-4.7,4.6-8.1l3.4,0.6c-0.3,1.5-0.8,3-1.4,4.3
			c1.7,0.9,3.4,2,4.9,3.3l-2,3.1c-1.5-1.4-3-2.6-4.4-3.5C368.4,157.7,367.5,158.8,366.5,159.7z"/>
		<path fill="#4F4F51" d="M411.9,153.3h-3.5v-4h-22.2v4h-3.5v-7.1h5.9c-0.7-1.4-1.5-2.6-2.3-3.7l2.9-1.4c0.9,1.3,1.8,2.7,2.6,4.2
			l-1.8,0.9h5.6v-5.2h3.6v5.2h5.5l-1.9-1c1.1-1.4,2-2.8,2.7-4.1l2.9,1.4c-0.7,1.3-1.5,2.5-2.4,3.7h6V153.3z M409.7,173.4h-3.5v-1.3
			h-17.6v1.3H385v-13.5h24.6V173.4z M406.3,151v7.5h-18V151H406.3z M395.7,164.6v-1.9h-7.1v1.9H395.7z M395.7,169.2v-2h-7.1v2H395.7
			z M403,153.7h-11.3v2.2H403V153.7z M399.1,164.6h7v-1.9h-7V164.6z M406.1,169.2v-2h-7v2H406.1z"/>
		<path fill="#4F4F51" d="M427.1,142.5c-0.3,0.9-0.5,1.8-0.8,2.6h3.6c-0.5-1-0.9-2.1-1.5-3.1l3.4-0.9c0.7,1.5,1.2,2.8,1.6,4h2.7v3.3
			h-9.8v-3.2c-0.5,1.3-0.9,2.5-1.5,3.7v24.5h-3.5v-18.1c-0.8,1.2-1.6,2.3-2.4,3.3l-1.2-3.9c2.8-3.9,4.8-8.4,6.1-13.7L427.1,142.5z
			 M429.8,173h-3.1v-12.6h8.8v12.3h-3.1v-1.6h-2.5V173z M435.1,150.3v3.1h-7.9v-3.1H435.1z M435.1,155.3v3.1h-7.9v-3.1H435.1z
			 M432.3,163.4h-2.5v4.7h2.5V163.4z M439.7,144.8V141h3.2v3.8h2.4v2.9c0.7-1.4,1.3-2.9,1.8-4.4l2.7,1.4c-0.9,2.4-1.9,4.7-3,6.7h2.7
			v3.3h-4.8c-0.6,0.8-1.2,1.5-1.8,2.2h5.8v16.5h-3.2v-1.4h-4.5v1.4h-3.2V161c-0.4,0.2-0.8,0.5-1.2,0.7l-1.8-2.6
			c2.2-1.1,4.2-2.6,6-4.5h-4.5v-3.3h3.5v-3.5h-2.8v-3.1H439.7z M445.4,159.9h-4.5v3.1h4.5V159.9z M440.9,168.8h4.5v-3h-4.5V168.8z
			 M445.2,147.9h-2.3v3.5h0.3C443.9,150.3,444.6,149.1,445.2,147.9z"/>
		<path fill="#4F4F51" d="M464.5,142.4c-0.7,2.2-1.5,4.2-2.4,6.2v24.8h-3.6v-18.7c-1,1.3-2,2.6-3.1,3.9l-1.1-3.6
			c3.1-4,5.4-8.7,6.9-14.1L464.5,142.4z M484.7,170.4c0,1.7-1,2.6-3.1,2.6H479l-0.8-3l2.5,0.1c0.6,0,0.8-0.3,0.8-0.8v-1.6h-4v5.1
			h-3.1v-5.1h-4.4c-0.6,2.4-1.6,4.3-3,5.7l-2.6-2.4c2-2,3-4.7,3-8.4v-2.3c-0.9,1.4-1.9,2.6-2.9,3.7l-2.2-2.6c2.1-2.2,4-5.1,5.6-8.7
			h-4.2v-3.2h5.8v-2.5h-4.2v-3.1h4.2v-2.7h3.4v2.7h4.9v-2.7h3.4v2.7h4.1v3.1h-4.1v2.5h5.2v3.2h-15.2c-0.2,0.6-0.5,1.2-0.7,1.7h14.1
			V170.4z M474.4,164.8v-2.4h-3.8c0,0.8-0.1,1.7-0.1,2.4H474.4z M474.4,159.6v-2.5h-3.8v2.5H474.4z M477.9,146.9H473v2.5h4.9V146.9z
			 M477.4,159.6h4v-2.5h-4V159.6z M477.4,164.8h4v-2.4h-4V164.8z"/>
		<path fill="#4F4F51" d="M518.8,154.7v13.9h-5.3c3.3,0.5,6.4,1,9.4,1.8l-1.2,2.9c-3.8-1-7.7-1.9-11.9-2.5l1.2-2.2h-8.2l1.4,1.9
			c-2.6,1.1-6.4,2.1-11.3,2.8l-1.6-2.8c4.1-0.5,7.4-1.2,9.8-1.9h-5.7v-13.9H518.8z M492.6,150.6l-1.1-3.5c4.1-1.7,7.1-3.8,9.1-6.2
			l3,1.4c-0.9,1.3-2.1,2.5-3.5,3.7v7.7h-3.6v-5.2C495.3,149.2,494,149.9,492.6,150.6z M515.2,158.8v-1.4H499v1.4H515.2z
			 M515.2,162.4V161H499v1.4H515.2z M515.2,164.6H499v1.4h16.2V164.6z M510.2,153.5c-2.4,0-3.6-1.2-3.6-3.5v-8.9h3.6v3.1l10.7-0.6
			v3.2l-10.7,0.6v1.8c0,0.7,0.3,1.1,1,1.1h6.2c0.6,0,0.9-0.1,1.2-0.3c0.3-0.2,0.5-0.9,0.6-2.1l3.3,1.1c-0.3,2.1-0.7,3.4-1.4,3.8
			c-0.7,0.4-1.7,0.6-3,0.6H510.2z"/>
		<path fill="#4F4F51" d="M550.1,171.2l-0.9-3.3l2.6,0.2c0.8,0,1.2-0.5,1.2-1.3V164h-7.5v9.3h-3.6V164h-7.5v6.8h-3.6v-10h11.1v-2
			h-1.7l-0.7-2.7l1.6,0.1c0.5,0,0.8-0.3,0.8-0.9v-0.9l-2.2,0.6c-0.3-1.7-0.7-3.3-1.1-4.8l2-0.7c0.5,1.4,1,3,1.3,4.7v-5.6h-3.5v9.8
			h-2.7v-9.8H532v10.2h-3v-13.1h2.8c-0.6-1.2-1.3-2.2-2-3.2l2.6-1.3c0.7,1,1.4,2.2,2.1,3.5l-1.8,0.9h2.9v-4.6h3v4.6h2.8l-1.8-0.9
			c0.8-1.2,1.5-2.3,2-3.5l2.6,1.3c-0.5,1-1.2,2.1-1.9,3.1h2.5v3.3c2.1-2.2,3.5-4.8,4.2-7.9l3.3,0.4c-0.2,0.9-0.5,1.8-0.8,2.7h7.5
			v3.1h-1.3c-0.7,2.5-1.7,4.6-3,6.3c1.5,1,3.3,2,5.3,2.8l-1.7,3c-2.2-1-4.1-2.2-5.7-3.4c-1.6,1.4-3.5,2.4-5.6,3.1l-1.7-2.8
			c1.9-0.6,3.5-1.4,4.8-2.5c-0.8-0.7-1.4-1.5-2-2.3l1.5-2.3c0.7,0.9,1.6,1.7,2.5,2.5c1-1.3,1.7-2.8,2.3-4.5h-4.3
			c-0.9,1.6-2.1,3.1-3.5,4.5l-1.7-2.3v6.4c0,1.4-0.5,2.2-1.4,2.6h2.2v2.3h11.1v6.8c0,2.4-1.2,3.7-3.6,3.7H550.1z M535.3,150.1
			c-0.1,2.3-0.4,4.3-0.9,6.1l-2.3-0.8c0.5-1.6,0.9-3.5,1-5.6L535.3,150.1z"/>
		<path fill="#4F4F51" d="M588.4,146.2h-22v-3.5h27.1v3.5c-3.2,2.9-6.8,5.6-10.8,8.2v14.7c0,2.6-1.3,3.9-3.8,3.9
			c-2.1,0-4-0.1-5.5-0.2l-1-3.5c1.7,0.2,3.6,0.3,5.5,0.3c0.7,0,1.1-0.4,1.1-1.2v-15.9C582.3,150.7,585.4,148.6,588.4,146.2z"/>
		<path fill="#4F4F51" d="M618.9,165.1c0.5,0.5,0.8,1.1,0.8,1.9c0,0.8-0.3,1.4-0.8,1.9c-0.6,0.5-1.2,0.7-2,0.7s-1.4-0.3-1.9-0.8
			c-0.6-0.5-0.8-1.1-0.8-1.9c0-0.8,0.2-1.4,0.8-1.9c0.5-0.5,1.1-0.7,1.9-0.7S618.4,164.6,618.9,165.1z M619.3,144.8l-0.9,17.7h-3
			l-0.9-17.7H619.3z"/>
	</g>
	<path fill="#F4B133" d="M52.1,132.1c195.2-1.2,390.6,0.4,585.4,4.8c-0.1,0,0.2-2.2,0-2.2c-194.9-4.4-390.2-6-585.4-4.8
		C52,129.9,52,132.1,52.1,132.1L52.1,132.1z"/>
	<path fill="#F4B133" d="M52.1,179.4c195.2-1.2,390.6,0.4,585.4,4.8c-0.1,0,0.2-2.2,0-2.2c-194.9-4.4-390.2-6-585.4-4.8
		C52,177.2,52,179.4,52.1,179.4L52.1,179.4z"/>
	<path fill="#FFD25C" d="M487.2,209.6c0,0-3.1,49.1,18.7,63.8c0,0-55.2-10.4-66.8-63.8H487.2z"/>
</g>
<g>
</g>
<g>
</g>
<g>
</g>
<g>
</g>
<g>
</g>
<g>
</g>
<g>
</g>
<g>
</g>
<g>
</g>
<g>
</g>
<g>
</g>
<g>
</g>
<g>
</g>
<g>
</g>
<g>
</g>
</svg>
