<?xml version="1.0" encoding="utf-8"?>
<!-- Generator: Adobe Illustrator 18.0.0, SVG Export Plug-In . SVG Version: 6.00 Build 0)  -->
<!DOCTYPE svg PUBLIC "-//W3C//DTD SVG 1.1//EN" "http://www.w3.org/Graphics/SVG/1.1/DTD/svg11.dtd">
<svg version="1.1" id="Layer_1" xmlns="http://www.w3.org/2000/svg" xmlns:xlink="http://www.w3.org/1999/xlink" x="0px" y="0px"
	 viewBox="0 0 746.6 552.9" enable-background="new 0 0 746.6 552.9" xml:space="preserve">
<path opacity="0.88" fill="#FFFFFF" d="M682,552.9H64.5C28.9,552.9,0,524,0,488.4V64.5C0,28.9,28.9,0,64.5,0H682
	c35.6,0,64.5,28.9,64.5,64.5v423.8C746.6,524,717.7,552.9,682,552.9z"/>
<g>
	<path fill="#58595B" d="M116.5,77l-1.5,1.5c-1.2-1.9-3-4-5.1-6.2l1.5-1.4C113.4,72.9,115.1,74.9,116.5,77z M116.4,82.4
		c-1.3,5.3-2.8,10.2-4.4,14.9l-1.9-0.8c1.7-4.8,3.2-9.8,4.6-14.8L116.4,82.4z M117.3,67l-1.5,1.5c-1.3-1.9-3.1-3.9-5.3-6.1L112,61
		C114.1,63,115.9,65,117.3,67z M122.8,64.8v-4.1h2v4.1h5.1v1.9h-5.1v4h4v14.2h-4v4.4h5v1.9h-5v6.6h-2v-6.6h-5.5v-1.9h5.5v-4.4h-4
		V70.7h4v-4h-5v-1.9H122.8z M126.9,77v-4.5h-6.1V77H126.9z M126.9,78.7h-6.1v4.4h6.1V78.7z M139.4,60.5c1.5,3.4,4.1,6.4,7.9,9
		l-1.1,1.8c-3.4-2.4-6-5.3-7.8-8.8c-2.1,3.8-4.7,6.8-7.8,8.8l-1.1-1.8c3.4-2.3,6-5.3,7.8-9H139.4z M131.5,95.6l2.1,0.1
		c1,0,1.6-0.6,1.6-1.8v-6.1c-1.3,1.7-2.8,3.2-4.4,4.6l-0.8-1.8c2-1.6,3.7-3.4,5.2-5.5V74.3h-4.4v-1.9h6.2v22.1c0,1.9-1,2.9-3,2.9
		H132L131.5,95.6z M133.9,83.7l-1.4,0.7c-0.6-2.6-1.3-4.9-2-6.9l1.4-0.5C132.6,79,133.3,81.3,133.9,83.7z M139.7,95.6l2.4,0.1
		c0.9,0,1.3-0.6,1.3-1.7v-6.9c-1.5,1.7-3.1,3.3-5,4.7l-0.8-1.8c2.2-1.5,4.1-3.3,5.8-5.5V74.3h-4.6v-1.9h6.6v22.2
		c0,1.9-1,2.9-2.9,2.9h-2.3L139.7,95.6z M142,83.4l-1.4,0.7c-0.6-2.7-1.2-5-2-7.1l1.4-0.5C140.7,78.7,141.4,81,142,83.4z"/>
	<path fill="#58595B" d="M191.8,62.2v2.1h-11.5v8h9.2v13.5h-9.2v8.4h12.1v2.1h-36v-2.1h12v-8.4h-9.1V72.2h9.1v-7.9h-11.5v-2.1H191.8
		z M178,83.6h9.2v-9.2h-9.2V64.3h-7.6v10.1h-9.1v9.3h9.1v10.5h7.5V83.6z"/>
	<path fill="#58595B" d="M202.9,97.3l-0.5-2.1c1.1,0.1,2.2,0.2,3.2,0.2c1.2,0,1.8-0.7,1.8-1.9V82.5c-1.8,0.7-3.7,1.4-5.5,2.1
		l-0.6-2.2c2.1-0.6,4.1-1.3,6.1-2.1v-9.9h-5.3v-2.2h5.3v-7.7h2.2v7.7h5v2.2h-5v9c1.6-0.8,3.2-1.7,4.8-2.6v2.2
		c-1.6,0.9-3.2,1.8-4.8,2.5v12.5c0,2.2-1.1,3.3-3.3,3.3H202.9z M235.5,78.1v2.1c-1.4,4-3.6,7.5-6.6,10.3c2.8,2.1,6.4,3.9,10.5,5.4
		l-1.2,1.9c-4.4-1.7-8-3.7-10.9-6c-3.2,2.5-7.2,4.5-12,6l-1.2-1.8c4.6-1.4,8.4-3.3,11.4-5.6c-3.3-3-5.5-6.3-6.6-10.1h-2.7v-2.2
		H235.5z M232.7,62.1v9.1c0,1,0.6,1.6,1.7,1.6h3.7v2.1H234c-2.3,0-3.4-1.1-3.4-3.3v-7.3h-8.7V67c0,3.8-1.9,6.7-5.6,8.8l-1.5-1.7
		c3.3-1.6,4.9-3.9,4.9-6.9v-5.1H232.7z M227.1,89.1c2.8-2.5,4.9-5.5,6.2-8.8h-12.4C222,83.6,224.1,86.6,227.1,89.1z"/>
	<path fill="#58595B" d="M260,70.3v1.9h-11.7v-1.9H260z M262.7,93.7c-3.1,1.7-7.5,3.1-13.3,4.1l-1-1.8c5.8-1,10.2-2.3,13.2-3.9
		L262.7,93.7z M259.1,62.9v2h-9.9v-2H259.1z M279.4,75.9v15.7h-26V75.9H279.4z M277.2,80.6v-3h-21.7v3H277.2z M277.2,85.1v-2.8
		h-21.7v2.8H277.2z M277.2,86.7h-21.7v3h21.7V86.7z M261.5,69.4l-1.2-1.6c3-2.1,5.1-4.6,6.2-7.5l2.1,0.2c-0.3,0.8-0.7,1.6-1,2.3h15
		v1.6c-1.1,2.1-2.3,3.9-3.7,5.5l-1.6-1.2c1-1.1,2-2.5,2.8-3.9h-13.8C265,66.5,263.4,68,261.5,69.4z M273.5,66.2
		c-0.2,0.7-0.4,1.3-0.7,1.9c3,3.2,6.9,5.2,11.7,5.8l-0.9,1.9c-4.7-0.7-8.5-2.8-11.7-6.2c-1.9,2.9-5.1,4.8-9.7,5.7l-1.1-1.6
		c5.8-1.1,9.3-3.7,10.4-8L273.5,66.2z M284.2,96.1l-0.7,1.8c-4.4-1.7-8.9-3-13.7-4l0.8-1.6C275.4,93.2,279.9,94.5,284.2,96.1z"/>
	<path fill="#58595B" d="M314.6,82v2.1h-20.7V82H314.6z"/>
	<path fill="#58595B" d="M343.7,81.6c-0.2,1.2-0.5,2.3-0.8,3.4h16.1v2.1h-17c-0.9,2-2.2,3.7-3.8,5.1c-2.7,2.4-7.3,4.3-14,5.7
		l-0.9-2.1c6.1-1.1,10.4-2.8,13.1-5c1.2-1.1,2.3-2.3,3.1-3.7h-14.3V85h15.3c0.4-1.1,0.7-2.3,0.9-3.6L343.7,81.6z M335.4,64.7
		c-0.7-1.6-1.4-3-2.2-4.2l2.3-0.4c0.7,1.4,1.4,2.9,2.1,4.6h9.2c0.8-1.6,1.5-3.1,1.9-4.8l2.3,0.3c-0.4,1.6-1.1,3.1-1.9,4.4h9.6v2.1
		h-15.4v4.6h13.3v2h-13.3v4.6H360V80h-35.7v-2.1h16.7v-4.6H328v-2h13.1v-4.6h-15.4v-2.1H335.4z M361,96.1l-1.3,2
		c-5.4-3-10.9-5.5-16.6-7.2l1.2-1.8C350.4,91,356,93.3,361,96.1z"/>
	<path fill="#58595B" d="M405,97.8h-2.2v-2h-29.1v2h-2.2V62.1H405V97.8z M402.8,93.7V64.2h-29.1v29.4H402.8z M389.6,69.3
		c0-1.2,0-2.5,0-3.9h2c0,1.4,0,2.6,0,3.9h4.4c-0.5-1.2-1.1-2.3-1.6-3.2l1.8-0.3c0.5,1,1.1,2.2,1.6,3.5h2.7v2h-8.8
		c0.1,3.7,0.4,6.7,0.8,9c0.2,1.1,0.4,2.1,0.6,3c1.5-2.6,2.7-5.7,3.7-9.3l1.7,0.9c-1.3,4.4-2.8,8-4.7,10.9c0.2,0.7,0.5,1.3,0.7,1.8
		c0.8,1.5,1.5,2.3,2.2,2.3c0.8,0,1.6-1.9,2.5-5.7l1.7,0.9c-1.1,4.6-2.5,6.9-4,6.9c-1.2,0-2.3-0.9-3.5-2.7c-0.3-0.6-0.6-1.1-0.9-1.8
		c-1.5,2-3.2,3.5-4.9,4.7l-1.1-1.7c1.9-1.3,3.7-3,5.2-5.2c-0.4-1.2-0.8-2.6-1.1-4.1c-0.5-2.6-0.8-6-0.9-10h-13.5v-2H389.6z
		 M387.4,87.7c-3.2,0.7-6.9,1.4-10.9,1.8l-0.3-1.9c4.3-0.5,8-1,11.2-1.7V87.7z M387.1,74.7v8.5h-9.6v-8.5H387.1z M385.2,76.4h-5.8
		v5.1h5.8V76.4z"/>
	<path fill="#58595B" d="M435.7,63.9h16.5v2.1h-36.1v-2.1h17.2c-0.5-1.3-0.9-2.4-1.5-3.4l2.4-0.4C434.8,61.2,435.2,62.5,435.7,63.9z
		 M442.2,97.6l-0.5-2l3.3,0.1c1.8,0,2.8-0.7,2.8-2.2V81.7h-27.3v16h-2.1v-18h31.4v14.2c0,2.5-1.4,3.7-4.2,3.7H442.2z M445.4,69.2
		v7.6h-22.3v-7.6H445.4z M443.2,71h-18V75h18V71z M442.1,84.8v7.9h-15.7v-7.9H442.1z M440,86.6h-11.6v4.4H440V86.6z"/>
	<path fill="#58595B" d="M462.9,87.5c0.5-0.2,0.8-0.5,0.8-0.9V64.1h2.2v22.7c2.3-0.7,4.6-1.4,6.8-2.3v-24h2.2v37.1h-2.2V86.6
		c-2.9,1.1-6,2-9.1,2.8L462.9,87.5z M477.7,78.6l-1.4-1.6c3.5-4.2,5.8-9.8,7.1-16.8l2.2,0.4c-0.4,2.3-0.9,4.4-1.5,6.3h14.1V69h-3.6
		c-0.2,7-2,12.9-5.1,17.8c2.6,3.5,5.8,6.6,9.6,9.4l-1.5,1.8c-3.7-2.7-6.9-5.8-9.4-9.2c-2.7,3.5-6.3,6.5-10.6,8.9l-1.3-2
		c4.5-2.3,8-5.2,10.6-8.7c-2.3-3.4-4.2-7.1-5.5-11.1l1.8-1c1.3,3.7,3,7,5.1,10.1c2.7-4.5,4.2-9.9,4.4-16h-9.1
		C481.8,72.8,480,76.1,477.7,78.6z"/>
	<path fill="#58595B" d="M522.1,73.3c-3.5,3.4-8,6.3-13.4,8.6l-1-2.1c5.2-2.1,9.5-4.8,13-8.1L522.1,73.3z M539,94.1h5.3v2.1h-36.1
		v-2.1h5.6V80.9H539V94.1z M530.5,67.8c1.8-2.4,3.4-4.9,4.7-7.6l2.2,0.8c-1.3,2.6-2.8,4.9-4.5,6.9h10.5v2.1H509v-2.1H530.5z
		 M521.8,66.4l-1.8,1.2c-1.3-1.9-3.1-3.9-5.4-6.2l1.8-1.1C518.7,62.5,520.5,64.6,521.8,66.4z M521.4,94.1V82.9H516v11.2H521.4z
		 M529.2,94.1V82.9h-5.6v11.2H529.2z M544.6,80l-1.3,1.9c-4.1-3.4-8.4-6.1-12.8-8.1l1.2-1.8C536.4,74.2,540.7,76.9,544.6,80z
		 M536.8,94.1V82.9h-5.5v11.2H536.8z"/>
	<path fill="#58595B" d="M564.5,61.2c-0.9,2.9-2,5.7-3.3,8.2v28.4H559V73.3c-1.5,2.3-3.1,4.4-4.8,6.4l-0.7-2.3
		c4.2-5,7.2-10.8,9.1-17.1L564.5,61.2z M575.1,93.6c-2.8,1.7-6.3,3.1-10.5,4.2l-0.9-1.8c4.1-1,7.5-2.2,10.2-3.8L575.1,93.6z
		 M578.5,60.2v2.5h11v1.8h-11v2.8h9.6v1.8h-9.6v2.9h12.1v1.8h-25.8v-1.8h11.6v-2.9H567v-1.8h9.3v-2.8h-10.7v-1.8h10.7v-2.5H578.5z
		 M587.4,76.3v15.3h-20V76.3H587.4z M585.3,80.9v-2.8h-15.9v2.8H585.3z M585.3,85.4v-2.8h-15.9v2.8H585.3z M585.3,87.1h-15.9v2.7
		h15.9V87.1z M591,95.8l-0.7,1.8c-3.4-1.6-6.9-2.8-10.6-3.7l0.9-1.7C584.2,93.1,587.6,94.3,591,95.8z"/>
	<path fill="#58595B" d="M616,67.1c0.8-2.3,1.4-4.7,1.8-7.3l2.2,0.2c-0.4,2.5-1,4.8-1.7,7h15.3v2h-16c-0.7,1.8-1.6,3.6-2.6,5.1h20.8
		v2.1h-9.6c2.1,3.1,5.7,5.9,10.8,8.4l-1.4,1.8c-5.5-3-9.4-6.4-11.7-10.1h-10.3c-3.2,4.4-7.5,7.8-12.8,10.3l-1.2-1.9
		c4.7-2.1,8.5-4.8,11.4-8.4h-10.2v-2.1h11.7c1.1-1.6,2.1-3.3,2.8-5.1H603v-2H616z M607.8,84.6v-2.1H629c-0.1,3.7-0.3,6.6-0.7,8.9
		c-0.3,2.2-0.9,3.8-1.7,4.7c-0.8,0.8-2,1.3-3.7,1.4h-5.8l-0.6-2.1c1.8,0.1,3.6,0.1,5.3,0.1c1.9,0,3.2-0.7,3.7-2
		c0.7-1.4,1.1-4.4,1.2-8.9h-10.7c-0.8,3.2-2,5.7-3.4,7.6c-1.8,2.1-4.4,3.9-7.9,5.6l-1.4-1.8c3.2-1.4,5.7-3,7.3-4.8
		c1.5-1.7,2.6-3.9,3.4-6.6H607.8z M611.5,65.9l-1.8,0.8c-1-2.2-2.1-4.1-3.2-5.7l2-0.7C609.6,62,610.6,63.9,611.5,65.9z M630.4,60.7
		c-0.9,2.3-2.1,4.4-3.6,6.1l-1.6-0.9c1.3-1.6,2.4-3.6,3.3-5.8L630.4,60.7z"/>
	<path fill="#58595B" d="M118.7,125.1v-3.3h2.2v3.3h14.8v-3.3h2.2v3.3h7.5v1.9h-7.5v14.2h8.2v2H137c2.1,2.8,5.3,5,9.7,6.6l-0.9,1.9
		c-5.2-2.2-8.8-5-10.9-8.5h-13.1c-2.1,3.5-5.6,6.4-10.5,8.7l-1.1-1.8c4.4-1.8,7.5-4.1,9.5-6.8h-9.1v-2h8.2v-14.2h-7.5v-1.9H118.7z
		 M129.4,145v3.6h8.5v2h-8.5v5.2h14.3v2.1h-31.1v-2.1h14.6v-5.2h-8.6v-2h8.6V145H129.4z M135.7,130.6v-3.6h-14.8v3.6H135.7z
		 M135.7,135.8v-3.4h-14.8v3.4H135.7z M135.7,141.3v-3.6h-14.8v3.6H135.7z"/>
	<path fill="#58595B" d="M173.6,122.3c4,5,9.9,9.1,17.5,12.4l-1.2,1.8c-7.1-3-12.9-7.1-17.2-12.1c-4.8,5.1-10.5,9.2-17.3,12.2
		l-1.2-1.8c7.1-3.2,13-7.4,17.6-12.5H173.6z M183.4,133.5v2h-9.6v6.6h14.9v2.1h-14.9V156h5.1c1.6-2.8,2.9-5.8,4-9l2,0.8
		c-1.1,3.1-2.3,5.9-3.7,8.3h8.9v2.1h-34.9V156h8.9c-0.9-2.8-2.1-5.5-3.6-8l2-0.7c1.4,2.4,2.7,5.3,3.8,8.7h5.3v-11.7h-14.9v-2.1h14.9
		v-6.6H162v-2H183.4z"/>
	<path fill="#58595B" d="M211.2,126l11.7,29.3h-2.8l-3.4-8.7h-14.1l-3.4,8.7h-2.7l11.7-29.3H211.2z M216,144.4l-6.2-15.7h-0.1
		l-6.2,15.7H216z"/>
	<path fill="#58595B" d="M244.2,134.1v1.9l-13.7,17.2h14.4v2.1h-17.5v-1.9l13.7-17.2h-13.3v-2.1H244.2z"/>
	<path fill="#58595B" d="M270.2,125.4v29.9h-2.3v-4.2c-1.5,3.2-3.9,4.8-7.4,4.8c-3.1,0-5.5-1.1-7.2-3.4c-1.6-2.1-2.3-4.7-2.3-7.8
		c0-3.1,0.8-5.7,2.3-7.8c1.7-2.3,4.1-3.4,7.1-3.4c3.4,0,5.9,1.7,7.4,5v-13.1H270.2z M255.2,138.3c-1.2,1.6-1.8,3.7-1.8,6.4
		c0,2.7,0.6,4.8,1.7,6.4c1.3,1.8,3.1,2.7,5.5,2.7c2.3,0,4.1-0.9,5.4-2.6c1.1-1.6,1.8-3.7,1.8-6.2v-0.5c0-2.6-0.7-4.7-1.9-6.4
		c-1.3-1.7-3-2.5-5.2-2.5C258.4,135.6,256.5,136.5,255.2,138.3z"/>
	<path fill="#58595B" d="M294,137.9c0.7-1.4,1.7-2.5,2.8-3.2c1.1-0.7,2.4-1.1,3.9-1.1c2.2,0,4,0.7,5.3,2.1c1.3,1.4,1.9,3.3,1.9,5.8
		v13.9h-2.5v-13.5c0-2-0.4-3.5-1.2-4.5c-0.9-1.1-2.3-1.6-4.2-1.6c-1.6,0-2.8,0.6-3.9,1.8c-1.1,1.1-1.6,2.6-1.6,4.4v13.5h-2.5v-13.5
		c0-4.1-1.8-6.1-5.3-6.1c-1.6,0-2.9,0.6-4,1.9c-1.1,1.3-1.6,2.8-1.6,4.7v13.1h-2.5v-21.2h2.5v3.2c1.5-2.5,3.6-3.8,6.2-3.8
		C290.7,133.5,292.9,134.9,294,137.9z"/>
	<path fill="#58595B" d="M331.6,135.4c1.6,1.2,2.6,3.1,2.9,5.7h-2.5c-0.3-1.8-1-3.1-2.1-4c-1.1-0.9-2.7-1.4-4.5-1.4
		c-2.2,0-4,0.9-5.3,2.6c-1.3,1.6-1.9,3.9-1.9,6.6c0,2.7,0.6,4.9,1.8,6.5c1.2,1.6,3,2.4,5.4,2.4c3.9,0,6.2-2,6.8-6h2.4
		c-0.4,2.7-1.4,4.7-3,6.1c-1.6,1.4-3.7,2.1-6.2,2.1c-3.1,0-5.6-1.1-7.3-3.2c-1.6-2-2.4-4.6-2.4-7.8c0-3.2,0.8-5.9,2.5-8
		c1.8-2.3,4.2-3.4,7.3-3.4C328,133.5,330,134.1,331.6,135.4z"/>
	<path fill="#58595B" d="M350.7,126v29.3h-2.5v-26.2c-1.9,2.1-4.2,3.5-7,4.3v-2.5c1.4-0.4,2.7-1,4-1.8c1.3-0.9,2.5-1.9,3.5-3H350.7z
		"/>
	<path fill="#58595B" d="M369.8,121.4c-1.6,2.7-3,5.5-3.9,8.5c-1.2,3.6-1.8,7.1-1.8,10.6c0,3.4,0.6,7,1.8,10.6
		c0.9,3,2.3,5.8,3.9,8.5h-2.3c-1.7-2.6-3.1-5.5-4.1-8.5c-1.2-3.6-1.8-7.2-1.8-10.7c0-3.5,0.6-7.1,1.8-10.7c1-3,2.3-5.9,4.1-8.5
		H369.8z"/>
	<path fill="#58595B" d="M395.4,126.1l0.5-4.4l2.3,0.3c-0.2,1.4-0.3,2.8-0.5,4.1h16.8v2.1h-17.2c-0.3,1.6-0.6,3.2-0.9,4.6h15.8v22.7
		c0,2.3-1.1,3.4-3.3,3.4h-4.1l-0.6-2.2l4,0.1c1.2,0,1.8-0.6,1.8-1.8V135h-27.2v24.3h-2.2v-26.4h13.6c0.3-1.6,0.6-3.1,0.9-4.6h-16.9
		v-2.1H395.4z M394,142.1h4.7c1.1-1.8,2-3.7,2.7-5.6l2,0.7c-0.8,1.8-1.6,3.4-2.6,4.9h5.3v2h-8.5v4.9h9.8v2h-9.8v7.7h-2.2V151h-9.8
		v-2h9.8v-4.9h-8.4v-2h4.9c-0.6-1.6-1.4-3.2-2.4-4.6l2-0.7C392.3,138.2,393.2,140,394,142.1z"/>
	<path fill="#58595B" d="M434.9,128.7v-6.8h2.2v19.9c-0.1,8-2.4,13.8-7,17.5l-1.7-1.5c3-2.3,4.9-5.5,5.8-9.7
		c-3.6,0.9-7.4,1.7-11.5,2.4l-0.6-2.2c4.4-0.6,8.5-1.4,12.4-2.4c0.2-1.3,0.2-2.7,0.3-4.1V140h-10.9v-2.1h10.9v-7.1h-11.8v-2.1H434.9
		z M446.6,121.9v6.8h11.8v2.1h-11.8v7.1h10.9v2.1h-10.9v7.3H459v2.1h-12.5v10h-2.2v-37.4H446.6z"/>
	<path fill="#58595B" d="M481,142.2l-0.5-1.8l2.1,0.1c0.8,0,1.2-0.5,1.2-1.4v-9.5h-5.7V142h-1.8v-12.3h-5.9v12.6h-1.9v-14.4h7.8
		v-5.9h1.9v5.9h7.5v11.8c0,1.7-0.9,2.6-2.5,2.6H481z M473.8,126.5l-1.6,0.8c-0.9-1.6-1.8-3.1-2.8-4.4l1.7-0.8
		C472,123.5,472.9,124.9,473.8,126.5z M492.9,156.9l-0.6-2.1l3.7,0.1c1,0,1.6-0.5,1.6-1.5v-5.6h-11.2v11.6H484v-11.6h-11.2v8.6h-2.2
		v-10.6H484v-3.3h2.2v3.3h13.5v8.1c0,2-1,3-3,3H492.9z M474.6,132.1c-0.2,2.7-0.6,5-1.3,7.1l-1.6-0.5c0.7-2,1.2-4.2,1.4-6.7
		L474.6,132.1z M482.5,137.3l-1.6,0.4c-0.4-2-0.9-3.9-1.5-5.6l1.4-0.5C481.5,133.3,482,135.1,482.5,137.3z M485.1,123
		c-0.7,1.5-1.6,3-2.6,4.4l-1.7-0.9c1.1-1.5,1.9-2.9,2.6-4.3L485.1,123z M487.7,133.9l-1.2-1.6c2.7-2.8,4.5-6.3,5.4-10.3l2,0.2
		c-0.3,1.4-0.7,2.7-1.2,4h10v2h-2c-0.9,3.4-2.3,6.3-4.1,8.5c2.1,1.6,4.4,3.1,7.1,4.4l-1,1.8c-2.9-1.4-5.3-3-7.3-4.8
		c-2,1.9-4.3,3.3-7.1,4.3l-1-1.7c2.6-0.9,4.8-2.2,6.6-3.9c-1.3-1.3-2.5-2.7-3.4-4.1l1-1.5c1.1,1.5,2.3,2.8,3.7,4.1
		c1.6-2,2.8-4.4,3.6-7.3h-6.9C490.7,130.3,489.4,132.2,487.7,133.9z"/>
	<path fill="#58595B" d="M519.9,132.4v1.8c-1.3,2.5-2.8,4.9-4.6,7.2h4.8v1.5c-0.7,3.6-1.5,6.6-2.5,9c0.4,0.2,0.8,0.5,1.3,0.9
		c1.3,1.2,2.7,2.2,4.3,2.9c1.5,0.6,3.5,0.9,6.1,0.9c2.4,0,5.1,0,8.2,0c2.8,0,6.3-0.1,10.8-0.2l-0.5,2.1h-10c-3.4,0-6.3,0-8.7-0.1
		c-3-0.1-5.3-0.5-6.9-1.1c-1.8-0.7-3.4-1.8-4.9-3.3c-0.4-0.3-0.7-0.4-1.1-0.4c-0.9,0-2.2,1.8-3.7,5.5l-1.6-1.4
		c1.6-3.6,3.1-5.6,4.6-6.1c1-2.4,1.8-5.1,2.5-8.3h-5.3v-1.7c1.8-2.4,3.4-4.8,4.8-7.1h-6.1v-2.1H519.9z M520,128l-1.5,1.5
		c-1.5-1.7-3.5-3.5-6.1-5.5l1.5-1.4C516.3,124.5,518.4,126.2,520,128z M522.2,152.1l-1.5-1.3c2-4.4,3-10,3.1-16.9v-9.8h9.8v11.3
		h-7.9C525.5,141.9,524.3,147.5,522.2,152.1z M525.7,126.2v7.4h5.9v-7.4H525.7z M534.2,139.5v13.1h-7.8v-13.1H534.2z M532.5,141.2
		h-4.3v9.6h4.3V141.2z M535.3,138.1v-2h7.2c1-2.1,1.7-4.4,2.2-6.6l1.8,0.2c-0.5,2.4-1.2,4.5-2.1,6.4h3.7v2h-5.4v5.2h4.7v2h-4.7v8.3
		h-2.1v-8.3h-4.8v-2h4.8v-5.2H535.3z M542.9,126h5.1v2h-12.5v-2h5.5c-0.5-1.4-0.9-2.7-1.5-3.8l2-0.3
		C542,123.1,542.4,124.5,542.9,126z M540.6,134.5l-1.6,0.7c-0.7-1.8-1.4-3.5-2.1-4.9l1.6-0.7C539.3,131.2,540,132.8,540.6,134.5z"/>
	<path fill="#58595B" d="M568.3,123.8v1.8c-1.1,3.9-2.5,7.9-4,12c2.3,3.4,3.6,6.5,3.8,9.5c0,1.6-0.5,2.9-1.2,3.6
		c-1,0.9-2.8,1.4-5.3,1.4l-0.7-2.2c0.5,0,0.9,0.1,1.2,0.1c1.5-0.1,2.5-0.4,3.1-0.8c0.5-0.4,0.7-1.1,0.7-2.2c0-2.7-1.3-5.8-3.8-9.2
		c1.7-4.4,3-8.4,4-11.9h-6.8v33.4H557v-35.5H568.3z M568.6,159.1l-1.6-1.4c3.4-2.5,6-6,7.8-10.4l1.9,0.7c-0.5,1.1-1,2.2-1.6,3.2
		c1.7,1.1,3.1,2.3,4.4,3.4l-1.4,1.4c-1-1.1-2.3-2.2-3.8-3.3C572.6,155.4,570.7,157.5,568.6,159.1z M568.8,133.3l-1.1-1.8
		c5-2.3,8.8-5.4,11.5-9.2h1.9c2.2,3.4,6.1,6.4,11.5,9.1l-1.2,1.8c-5.1-2.4-8.9-5.3-11.3-8.8c-2,2.5-4.2,4.7-6.8,6.4h13.4v2h-13.5
		v-1.9C571.8,131.7,570.3,132.6,568.8,133.3z M578.7,136.3v9.6h-8.8v-9.6H578.7z M576.8,138.1h-5v6h5V138.1z M579.6,159.1l-1.5-1.4
		c3.3-2.5,5.9-6,7.6-10.3l1.8,0.7c-0.6,1.3-1.1,2.5-1.8,3.5c2.6,1.8,4.8,3.6,6.6,5.4l-1.4,1.4c-1.6-1.7-3.6-3.5-6.1-5.3
		C583.3,155.7,581.6,157.6,579.6,159.1z M590.6,136.3v9.6h-8.7v-9.6H590.6z M588.7,138.1h-5v6h5V138.1z"/>
	<path fill="#58595B" d="M600,125.4c4.4-0.5,8.3-1.4,11.7-2.7l0.7,1.9c-1.6,0.6-3.2,1.1-5,1.6v7.3h4.2v1.9h-4.2v2.4
		c1.6,1.9,3.3,4,5,6.4l-1.2,1.8c-1.5-2.6-2.8-4.7-3.8-6.2v19.5h-2.1v-19.3c-1.2,3.9-3,7.5-5.1,10.6l-0.9-2.3c2.8-3.8,4.8-8.1,6-12.8
		h-5.2v-1.9h5.3v-6.8c-1.6,0.3-3.2,0.6-5,0.8L600,125.4z M616.3,151.3c-0.8,2.9-1.8,5.5-3.2,7.6l-1.7-1.1c1.4-2.1,2.4-4.4,3-6.9
		L616.3,151.3z M617.8,130.2c-0.7-1.2-1.3-2.3-2.1-3.2l1.7-0.7c0.9,1.2,1.6,2.5,2.3,3.9h4.7c-0.7-1.3-1.3-2.4-2.1-3.4l1.8-0.7
		c0.8,1.3,1.6,2.7,2.2,4.1h3.1c0.8-1.4,1.6-3,2.2-4.8l1.9,0.5c-0.6,1.6-1.3,3-2.1,4.4h3v1.8h-8.9v2.9h10v1.8h-22.1v-1.8h9.9V132
		h-8.7v-1.8H617.8z M615,149.2v-1.7h16.5v-2.6h-17.9v-1.6h17.9v-2.5h-16.2v-1.7h18.3v4.1h3.2v1.8h-3.2v4.2H615z M635.3,123.9
		c-5.2,1.1-12.1,1.7-20.7,1.7l-0.6-1.8c8.3,0,15.1-0.6,20.3-1.6L635.3,123.9z M621.6,158.8c-2,0-3-0.9-3-2.5v-5.4h2.1v4.9
		c0,0.8,0.5,1.2,1.4,1.2h5.7c0.7,0,1.1-0.2,1.3-0.4c0.3-0.4,0.6-1.5,0.7-3.4l1.9,0.6c-0.2,2.3-0.6,3.8-1.2,4.4
		c-0.5,0.4-1.3,0.6-2.3,0.6H621.6z M627.6,153.6l-1.5,1.1c-0.7-1.3-1.8-2.8-3.1-4.4l1.4-0.9C625.8,151,626.8,152.4,627.6,153.6z
		 M637.1,157.1l-1.5,1.1c-1-2-2.3-4.2-4-6.7l1.5-0.9C634.8,153.1,636.1,155.3,637.1,157.1z"/>
	<path fill="#58595B" d="M140.3,195.8v2.1h-10.7v8h12.6v2.1h-12.6v9.2c2.9,0.5,6.4,0.7,10.6,0.7c2.1,0,4.3-0.1,6.5-0.2l-0.5,2.2
		h-5.1c-8,0-13.8-0.7-17.3-2.2c-2.8-1.4-5.1-3.5-6.8-6.4c-1.6,3.7-3.6,6.9-6,9.4l-1.4-1.8c4-4.3,6.7-10.1,8.1-17.4l2.1,0.4
		c-0.5,2.6-1.2,5-1.9,7.1c2,3.8,4.5,6.2,7.6,7.2c0.6,0.2,1.2,0.3,1.8,0.5V198h-11v-2.1H140.3z M144.8,196.2h-2.2v-6.2H114v6.4h-2.2
		v-8.5h15.9c-0.7-1.6-1.4-3.1-2.1-4.4l2.3-0.4c0.7,1.4,1.4,3,2.1,4.8h14.9V196.2z"/>
	<path fill="#58595B" d="M159.5,220.9l-1.7-1.6c2.8-3.7,4.3-8.4,4.4-14.2v-19.9h22.7v32.1c0,2.1-1,3.2-3.1,3.2h-5.4l-0.6-2.1
		c1.9,0,3.6,0.1,5.2,0.1c1.1,0,1.6-0.7,1.6-1.9v-8.9h-18.5C163.8,213,162.2,217.4,159.5,220.9z M182.7,187.4h-18.3v7.9h18.3V187.4z
		 M164.3,205.5h18.3v-8.1h-18.3V205.5z"/>
	<path fill="#58595B" d="M216.5,185.3v2.1H211v5.5h4.8v27.4h-2v-2h-12.5v2.2h-1.9v-27.6h4.6v-5.5h-5.6v-2.1H216.5z M213.8,216.3v-11
		h-2.5c-1.6,0-2.3-0.8-2.3-2.3v-8.2h-3v3.2c0,4.3-1,7.5-3,9.5l-1.2-1.1c1.7-1.8,2.6-4.6,2.7-8.5v-3.2h-3.1v21.4H213.8z M211.9,209.7
		v1.9h-8.7v-1.9H211.9z M209.1,192.9v-5.5h-3.2v5.5H209.1z M213.8,194.9h-3.2v7.8c0,0.6,0.4,0.9,1.1,0.9h2.1V194.9z M233.7,217.8
		c-0.6,1.2-1.8,1.8-3.6,1.8h-7.6c-2.3,0-3.4-1.2-3.4-3.6v-17h11.5v-11.7h-12.4v-2.1h14.4v15.8h-11.4v14.2c0,1.4,0.7,2.1,2.1,2.2h6.4
		c1.2,0,2.1-0.6,2.5-1.8c0.4-1.1,0.6-3.4,0.8-6.9l2.1,0.7C234.8,213.8,234.3,216.6,233.7,217.8z"/>
	<path fill="#58595B" d="M245.2,182.9c1.7,2.6,3,5.5,4.1,8.5c1.1,3.6,1.8,7.1,1.8,10.7c0,3.5-0.6,7.1-1.8,10.7c-1,3-2.4,5.8-4.1,8.5
		h-2.3c1.6-2.7,2.9-5.5,3.9-8.5c1.1-3.6,1.8-7.2,1.8-10.6c0-3.5-0.6-7-1.8-10.6c-1-3-2.3-5.9-3.9-8.5H245.2z"/>
	<path fill="#58595B" d="M283,182.9c-1.6,2.7-3,5.5-3.9,8.5c-1.2,3.6-1.8,7.1-1.8,10.6c0,3.4,0.6,7,1.8,10.6c0.9,3,2.3,5.8,3.9,8.5
		h-2.3c-1.7-2.6-3.1-5.5-4.1-8.5c-1.2-3.6-1.8-7.2-1.8-10.7c0-3.5,0.6-7.1,1.8-10.7c1-3,2.3-5.9,4.1-8.5H283z"/>
	<path fill="#58595B" d="M308.3,191.2v-7.7h2.2v7.7h16.3v2.2h-14c2.8,6.8,7.9,12.9,15.2,18.2l-1.5,1.9c-7.5-6-12.7-12.6-15.6-20.1
		h-0.5V210h9.1v2.2h-9.1v8.7h-2.2v-8.7h-8.8V210h8.8v-16.7h-0.6c-3,8.4-8.4,15.3-15.9,20.6l-1.3-2c7.2-4.8,12.4-11,15.4-18.6h-14
		v-2.2H308.3z"/>
	<path fill="#58595B" d="M343.9,186.7v-3.3h2.2v3.3h14.8v-3.3h2.2v3.3h7.5v1.9h-7.5v14.2h8.2v2h-9.1c2.1,2.8,5.3,5,9.7,6.6l-0.9,1.9
		c-5.2-2.2-8.8-5-10.9-8.5h-13.1c-2.1,3.5-5.6,6.4-10.5,8.7l-1.1-1.8c4.4-1.8,7.5-4.1,9.5-6.8h-9.1v-2h8.2v-14.2h-7.5v-1.9H343.9z
		 M354.7,206.6v3.6h8.5v2h-8.5v5.2h14.3v2.1h-31.1v-2.1h14.6v-5.2h-8.6v-2h8.6v-3.6H354.7z M360.9,192.2v-3.6h-14.8v3.6H360.9z
		 M360.9,197.4V194h-14.8v3.4H360.9z M360.9,202.8v-3.6h-14.8v3.6H360.9z"/>
	<path fill="#58595B" d="M398.6,183.9c4,5,9.9,9.1,17.5,12.4l-1.2,1.8c-7.1-3-12.9-7.1-17.2-12.1c-4.8,5.1-10.5,9.2-17.3,12.2
		l-1.2-1.8c7.1-3.2,13-7.4,17.6-12.5H398.6z M408.4,195.1v2h-9.6v6.6h14.9v2.1h-14.9v11.7h5.1c1.6-2.8,2.9-5.8,4-9l2,0.8
		c-1.1,3.1-2.3,5.9-3.7,8.3h8.9v2.1h-34.9v-2.1h8.9c-0.9-2.8-2.1-5.5-3.6-8l2-0.7c1.4,2.4,2.7,5.3,3.8,8.7h5.3v-11.7h-14.9v-2.1
		h14.9v-6.6H387v-2H408.4z"/>
	<path fill="#58595B" d="M425.1,192.8v-2.2h33.4v2.2h-15.6v10.5h13.5v2.1h-13.5v11.7h17v2.2h-36.2v-2.2h17v-11.7h-13.6v-2.1h13.6
		v-10.5H425.1z M443,189.6l-2,0.7c-0.7-2.2-1.6-4.3-2.6-6.4l2.2-0.6C441.6,185.7,442.4,187.7,443,189.6z"/>
	<path fill="#58595B" d="M504,185.2v2.1h-12.4v4.2h9.8v9.9h-17.3c-0.8,1.5-1.6,2.9-2.3,4.2h22.7v2.1h-9c-0.9,2.7-2.5,5-4.9,6.8
		c4.4,1.4,8.8,3,13.3,4.8l-1.4,1.8c-4.7-2-9.4-3.7-14-5.2c-0.1,0-0.2,0.1-0.2,0.1c-3.9,2.1-10.3,3.8-19.1,4.9l-0.9-2
		c7.9-0.9,13.7-2.2,17.4-3.9c-3.5-1.1-7.1-2-10.7-2.8c1-1.5,1.9-3,2.8-4.4h-10.5v-2.1h11.8c0.8-1.4,1.6-2.8,2.4-4.2h-11.2v-9.9h9.8
		v-4.2h-12.4v-2.1H504z M480.2,193.4h-7.7v6h7.7V193.4z M493.2,207.7h-12.7c-0.8,1.3-1.6,2.5-2.3,3.5c3.2,0.7,6.6,1.6,9.9,2.5
		C490.6,212.1,492.3,210.1,493.2,207.7z M489.5,187.3h-7.1v4.2h7.1V187.3z M489.5,193.4h-7.1v6h7.1V193.4z M499.2,193.4h-7.7v6h7.7
		V193.4z"/>
	<path fill="#58595B" d="M522.8,184.2c-1.1,3.2-2.3,6.2-3.9,8.9V221h-2.2v-24.3c-1.5,2.1-3.1,4.2-4.9,6.1l-0.7-2.4
		c4.5-5.1,7.8-10.8,9.7-17.2L522.8,184.2z M529.8,210.6c-1.8,3.2-3.9,6-6.3,8.4l-1.7-1.2c2.4-2.3,4.4-5,6.2-8.1L529.8,210.6z
		 M543.2,184.7c-2.5,1.3-5,2.4-7.6,3.3c-2.9,0.9-6.5,1.8-10.8,2.7l-1.1-1.8c3.9-0.6,7.4-1.4,10.3-2.3c2.8-0.8,5.3-1.8,7.4-2.9
		L543.2,184.7z M530.1,220.7l-0.5-2.1c1.1,0.1,2.1,0.2,3.1,0.2c1.1,0,1.7-0.5,1.7-1.5v-10.4c-3.2,0.2-6.5,0.3-9.9,0.4l-0.4-1.9
		c0.2-0.1,0.5-0.2,0.8-0.2c3.4-1.3,7.5-3.5,12.1-6.8c-3.7,0.2-7.5,0.3-11.5,0.4l-0.5-1.8c0.3-0.1,0.6-0.2,0.8-0.2
		c3-1.1,6.8-3.7,11.4-7.5l2,0.8c-3.8,3.1-7.1,5.5-9.9,7c3.5-0.2,6.9-0.3,10.1-0.5c1.5-1.1,3-2.3,4.5-3.5l2,0.9
		c-6.5,5.3-12.2,9.1-17.1,11.5c5-0.2,9.9-0.5,14.6-0.9c-1-1.4-2-2.7-3-3.9l1.8-0.8c2.1,2.4,4,5,5.6,7.9l-1.8,0.9
		c-0.5-0.9-1-1.7-1.5-2.4l-8,0.5v11c0,1.9-1.1,2.9-3.1,2.9H530.1z M548.4,217.7l-1.6,1.2c-1.6-2.5-3.8-5.2-6.5-8.2l1.6-1.1
		C544.8,212.8,546.9,215.4,548.4,217.7z"/>
	<path fill="#58595B" d="M556.7,220.4l-0.5-2.1c1.1,0.1,2.2,0.2,3.2,0.2c1.2,0,1.8-0.7,1.8-1.9v-10.9c-1.8,0.7-3.7,1.4-5.5,2.1
		l-0.6-2.2c2.1-0.6,4.1-1.3,6.1-2.1v-9.9H556v-2.2h5.3v-7.7h2.2v7.7h5v2.2h-5v9c1.6-0.8,3.2-1.7,4.8-2.6v2.2
		c-1.6,0.9-3.2,1.8-4.8,2.5v12.5c0,2.2-1.1,3.3-3.3,3.3H556.7z M589.3,201.2v2.1c-1.4,4-3.6,7.5-6.6,10.3c2.8,2.1,6.4,3.9,10.5,5.4
		l-1.2,1.9c-4.4-1.7-8-3.7-10.9-6c-3.2,2.5-7.2,4.5-12,6l-1.2-1.8c4.6-1.4,8.4-3.3,11.4-5.6c-3.3-3-5.5-6.3-6.6-10.1H570v-2.2H589.3
		z M586.5,185.3v9.1c0,1,0.6,1.6,1.7,1.6h3.7v2.1h-4.1c-2.3,0-3.4-1.1-3.4-3.3v-7.3h-8.7v2.7c0,3.8-1.9,6.7-5.6,8.8l-1.5-1.7
		c3.3-1.6,4.9-3.9,4.9-6.9v-5.1H586.5z M580.9,212.2c2.8-2.5,4.9-5.5,6.2-8.8h-12.4C575.8,206.7,577.9,209.7,580.9,212.2z"/>
	<path fill="#58595B" d="M611.9,193.4v1.9h-11.7v-1.9H611.9z M614.7,216.9c-3.1,1.7-7.5,3.1-13.3,4.1l-1-1.8
		c5.8-1,10.2-2.3,13.2-3.9L614.7,216.9z M611,186v2h-9.9v-2H611z M631.3,199v15.7h-26V199H631.3z M629.1,203.8v-3h-21.7v3H629.1z
		 M629.1,208.2v-2.8h-21.7v2.8H629.1z M629.1,209.8h-21.7v3h21.7V209.8z M613.4,192.5l-1.2-1.6c3-2.1,5.1-4.6,6.2-7.5l2.1,0.2
		c-0.3,0.8-0.7,1.6-1,2.3h15v1.6c-1.1,2.1-2.3,3.9-3.7,5.5l-1.6-1.2c1-1.1,2-2.5,2.8-3.9h-13.8C616.9,189.6,615.3,191.1,613.4,192.5
		z M625.4,189.3c-0.2,0.7-0.4,1.3-0.7,1.9c3,3.2,6.9,5.2,11.7,5.8l-0.9,1.9c-4.7-0.7-8.5-2.8-11.7-6.2c-1.9,2.9-5.1,4.8-9.7,5.7
		l-1.1-1.6c5.8-1.1,9.3-3.7,10.4-8L625.4,189.3z M636.2,219.2l-0.7,1.8c-4.4-1.7-8.9-3-13.7-4l0.8-1.6
		C627.3,216.4,631.8,217.6,636.2,219.2z"/>
	<path fill="#58595B" d="M126.7,251.2v2.2h-10.3v6.4h7.8c0,9.9-0.2,16-0.6,18.4c-0.3,2.5-1.9,3.9-4.8,3.9c-0.4,0-1.1,0-2-0.1
		l-0.5-1.9c0.9,0.1,1.6,0.1,2.3,0.1c1.8,0,2.8-0.9,3.1-2.6c0.2-1.8,0.4-7,0.5-15.6h-5.7c-0.2,9.3-1.9,16.2-5,20.5l-1.6-1.4
		c3-4.2,4.5-10.8,4.6-20v-7.5h-4v-2.2H126.7z M120.1,250.3l-1.9,0.7c-0.7-1.9-1.6-3.7-2.5-5.5l2.2-0.6
		C118.8,246.9,119.6,248.7,120.1,250.3z M136.9,245.3c2,5.8,5.4,10.9,10.3,15.3l-1.3,1.8c-4.5-4-7.8-8.9-10-14.8
		c-2.5,6.5-5.5,11.6-9.2,15.1l-1.2-1.8c4.1-4,7.2-9.2,9.4-15.6H136.9z M144.7,280.8l-1.4,1.7c-3.9-3.4-8.9-6.6-15-9.5l1.3-1.6
		C135.5,274.3,140.5,277.4,144.7,280.8z M141.8,268.5l-1.3,1.6c-2.3-2.8-5.1-5.4-8.6-7.8l1.3-1.5C136.5,263,139.3,265.6,141.8,268.5
		z"/>
	<path fill="#58595B" d="M167,251.8V245h2.2v19.9c-0.1,8-2.4,13.8-7,17.5l-1.7-1.5c3-2.3,4.9-5.5,5.8-9.7c-3.6,0.9-7.4,1.7-11.5,2.4
		l-0.6-2.2c4.4-0.6,8.5-1.4,12.4-2.4c0.2-1.3,0.2-2.7,0.3-4.1v-1.8h-10.9V261H167v-7.1h-11.8v-2.1H167z M178.6,245v6.8h11.8v2.1
		h-11.8v7.1h10.9v2.1h-10.9v7.3h12.5v2.1h-12.5v10h-2.2V245H178.6z"/>
	<path fill="#58595B" d="M200,281.9l-0.5-2.1c1.1,0.1,2.2,0.2,3.2,0.2c1.2,0,1.8-0.7,1.8-1.9v-10.9c-1.8,0.7-3.7,1.4-5.5,2.1
		l-0.6-2.2c2.1-0.6,4.1-1.3,6.1-2.1v-9.9h-5.3v-2.2h5.3v-7.7h2.2v7.7h5v2.2h-5v9c1.6-0.8,3.2-1.7,4.8-2.6v2.2
		c-1.6,0.9-3.2,1.8-4.8,2.5v12.5c0,2.2-1.1,3.3-3.3,3.3H200z M232.5,262.8v2.1c-1.4,4-3.6,7.5-6.6,10.3c2.8,2.1,6.4,3.9,10.5,5.4
		l-1.2,1.9c-4.4-1.7-8-3.7-10.9-6c-3.2,2.5-7.2,4.5-12,6l-1.2-1.8c4.6-1.4,8.4-3.3,11.4-5.6c-3.3-3-5.5-6.3-6.6-10.1h-2.7v-2.2
		H232.5z M229.7,246.8v9.1c0,1,0.6,1.6,1.7,1.6h3.7v2.1H231c-2.3,0-3.4-1.1-3.4-3.3V249h-8.7v2.7c0,3.8-1.9,6.7-5.6,8.8l-1.5-1.7
		c3.3-1.6,4.9-3.9,4.9-6.9v-5.1H229.7z M224.1,273.8c2.8-2.5,4.9-5.5,6.2-8.8H218C219.1,268.3,221.1,271.2,224.1,273.8z"/>
	<path fill="#58595B" d="M255.6,255v1.9h-11.7V255H255.6z M258.3,278.4c-3.1,1.7-7.5,3.1-13.3,4.1l-1-1.8c5.8-1,10.2-2.3,13.2-3.9
		L258.3,278.4z M254.7,247.6v2h-9.9v-2H254.7z M275,260.6v15.7h-26v-15.7H275z M272.8,265.3v-3h-21.7v3H272.8z M272.8,269.8v-2.8
		h-21.7v2.8H272.8z M272.8,271.4h-21.7v3h21.7V271.4z M257,254l-1.2-1.6c3-2.1,5.1-4.6,6.2-7.5l2.1,0.2c-0.3,0.8-0.7,1.6-1,2.3h15
		v1.6c-1.1,2.1-2.3,3.9-3.7,5.5l-1.6-1.2c1-1.1,2-2.5,2.8-3.9h-13.8C260.6,251.2,259,252.7,257,254z M269.1,250.8
		c-0.2,0.7-0.4,1.3-0.7,1.9c3,3.2,6.9,5.2,11.7,5.8l-0.9,1.9c-4.7-0.7-8.5-2.8-11.7-6.2c-1.9,2.9-5.1,4.8-9.7,5.7l-1.1-1.6
		c5.8-1.1,9.3-3.7,10.4-8L269.1,250.8z M279.8,280.8l-0.7,1.8c-4.4-1.7-8.9-3-13.7-4l0.8-1.6C271,277.9,275.5,279.2,279.8,280.8z"/>
	<path fill="#58595B" d="M290.3,255.4l-1.9-1.2c2.5-2.8,4.3-6,5.5-9.4l2.1,0.5c-0.4,1-0.7,2-1.1,3h11v1.9h-7.4
		c1.2,1.6,2.1,3,2.8,4.4l-2,0.7c-0.9-1.7-2-3.4-3.2-5.1h-2.2C292.8,252.1,291.6,253.8,290.3,255.4z M305.4,263.8v-4.6h-14.8v-2h14.8
		v-3h2.2v3h14.9v2h-14.9v4.6h13.1v2h-4.2v4.5h8v2h-8v6.9c0,2.1-1.1,3.1-3.3,3.1h-6l-0.5-2.1c2,0.1,3.9,0.2,5.7,0.2
		c1.2,0,1.8-0.6,1.8-1.7v-6.4h-25.7v-2h25.7v-4.5h-21.7v-2H305.4z M302.5,279.7l-1.7,1.3c-1.3-1.8-3.1-3.8-5.3-5.9l1.8-1.1
		C299.6,276.1,301.3,278,302.5,279.7z M308.1,253.8l-1.8-1.1c1.8-2.3,3.2-5,4-7.9l2.1,0.5c-0.3,1-0.7,2-1,2.9h12.1v1.9h-7.8
		c1.2,1.6,2.2,3.1,2.9,4.4l-2,0.7c-0.9-1.8-2-3.5-3.2-5.2h-2.9C309.8,251.4,309,252.6,308.1,253.8z"/>
	<path fill="#58595B" d="M336.6,272.3c-0.3,3.5-0.9,6.7-1.9,9.4l-2-0.6c1.1-2.6,1.7-5.7,2-9.1L336.6,272.3z M347.8,269.3l-1.8,0.4
		c-0.2-0.9-0.5-1.7-0.7-2.5c-4,1.2-7.9,2.1-11.6,2.6l-0.6-2c0.4-0.2,0.7-0.4,0.9-0.6c1.8-1.7,4-4.5,6.6-8.5
		c-2.5,0.5-4.8,0.8-7.2,1.1l-0.5-1.9c0.3-0.2,0.7-0.4,0.9-0.8c2.3-3.3,4.2-7.2,5.9-11.6l2.1,0.8c-2.1,4.8-4.2,8.6-6.3,11.4
		c2.1-0.2,4.2-0.6,6.4-1.1c1-1.6,2-3.3,3-5.1l2,0.7c-4.3,7.3-7.8,12.4-10.5,15.1c2.8-0.5,5.7-1.1,8.5-2c-0.5-1.4-0.9-2.7-1.5-3.9
		l1.8-0.6C346.1,263.4,347,266.1,347.8,269.3z M342.3,279.8l-1.9,0.4c-0.3-3.2-0.7-6-1.2-8.4l1.8-0.4
		C341.4,274,341.9,276.8,342.3,279.8z M347.4,276.3l-1.7,0.7c-0.7-2.3-1.5-4.4-2.3-6.1l1.7-0.5C346,272.3,346.7,274.2,347.4,276.3z
		 M347.7,249v-2.1h17.7v1.1c-0.7,4.2-1.5,7.7-2.5,10.5h5v2.1c-1,5.2-2.9,9.6-5.7,13.4c2.2,2.5,4.8,4.7,7.7,6.6l-1.5,1.7
		c-2.8-2.1-5.3-4.3-7.5-6.8c-2.4,2.7-5.4,5-8.9,6.9l-1.4-1.7c3.5-1.9,6.5-4.2,8.9-6.9c-2.7-3.3-4.8-7-6.5-11
		c-0.9,8.5-3,14.9-6.1,19.4l-1.6-1.4c4-5.7,6-14.9,6.1-27.7V249H347.7z M360.8,258.6c0.9-2.7,1.7-5.9,2.4-9.6h-9.6v4.2
		c0,1.8-0.1,3.7-0.2,5.4H360.8z M360.8,272.3c2.5-3.3,4.2-7.2,5-11.6h-11.6C355.9,265,358,268.9,360.8,272.3z"/>
	<path fill="#58595B" d="M397.2,252.4h12.9v1.7c-4.8,9.1-12,16.1-21.4,21c0.2,0.2,0.3,0.3,0.5,0.5c1.8,2.2,4.2,3.4,7.2,3.7
		c1.9,0.1,4.6,0.1,8.2,0.1c2.2,0,5.2,0,9-0.1l-0.5,2.2H405c-3.6,0-6.2,0-7.7-0.1c-4.4-0.1-7.7-1.7-10-5c-0.7-0.9-1.4-1.4-2-1.4
		c-1.3,0-3.1,2.4-5.5,7.2l-1.8-1.2c2.6-5.5,5.1-8.2,7.4-8.2c0.5,0,1,0.1,1.4,0.4l0.4,0.2c8.9-4.6,15.7-10.9,20.3-18.9h-27.1v-2.2
		h14.5c-1.1-2.6-2.5-5-4-7.1l2.5-0.4C394.7,247,396,249.5,397.2,252.4z"/>
	<path fill="#58595B" d="M441.6,248.6h16.5v2.1H422v-2.1h17.2c-0.5-1.3-0.9-2.4-1.5-3.4l2.4-0.4
		C440.7,245.9,441.1,247.2,441.6,248.6z M448.1,282.3l-0.5-2l3.3,0.1c1.8,0,2.8-0.7,2.8-2.2v-11.8h-27.3v16h-2.1v-18h31.4v14.2
		c0,2.5-1.4,3.7-4.2,3.7H448.1z M451.3,253.9v7.6H429v-7.6H451.3z M449.1,255.7h-18v3.9h18V255.7z M448,269.5v7.9h-15.7v-7.9H448z
		 M445.9,271.3h-11.6v4.4h11.6V271.3z"/>
	<path fill="#58595B" d="M497.5,246.6v17.6c0,6.6,0.2,10.8,0.6,12.7c0.4,1.8,0.9,2.8,1.6,2.8c0.7,0,1.4-2.3,1.9-6.7l1.8,0.9
		c-0.5,3.2-1,5.4-1.6,6.7c-0.5,1-1.2,1.5-1.9,1.5c-1.6,0-2.7-1.2-3.4-3.6c-0.8-2.4-1.1-7.1-1.1-14.2v-15.5h-24.2v14.5
		c-0.1,7.6-1.2,14-3.4,19.2L466,281c1.9-4.7,2.9-10.6,3-17.8v-16.6H497.5z M493,253v2h-8.7v4.4h7.5v11.7h-7.5v6.9
		c2.2-0.3,4.1-0.7,5.6-1.2c-0.6-1.2-1.2-2.3-1.8-3.4l1.8-0.7c1.6,2.6,3,5.3,4.2,8.3l-2,0.9c-0.5-1.1-0.9-2.3-1.4-3.2
		c-4,1.1-9.9,2-17.5,2.5l-0.6-2.1c3.6-0.2,6.7-0.5,9.5-0.8v-7.2h-7.5v-11.7h7.5V255h-8.6v-2H493z M482.1,261.4h-5.5v7.8h5.5V261.4z
		 M489.8,261.4h-5.5v7.8h5.5V261.4z"/>
	<path fill="#58595B" d="M523.6,246.9v1.8c-1.1,3.9-2.5,7.9-4,12c2.3,3.4,3.6,6.5,3.8,9.5c0,1.6-0.5,2.9-1.2,3.6
		c-1,0.9-2.8,1.4-5.3,1.4l-0.7-2.2c0.5,0,0.9,0.1,1.2,0.1c1.5-0.1,2.5-0.4,3.1-0.8c0.5-0.4,0.7-1.1,0.7-2.2c0-2.7-1.3-5.8-3.8-9.2
		c1.7-4.4,3-8.4,4-11.9h-6.8v33.4h-2.2v-35.5H523.6z M523.8,282.2l-1.6-1.4c3.4-2.5,6-6,7.8-10.4l1.9,0.7c-0.5,1.1-1,2.2-1.6,3.2
		c1.7,1.1,3.1,2.3,4.4,3.4l-1.4,1.4c-1-1.1-2.3-2.2-3.8-3.3C527.9,278.5,526,280.6,523.8,282.2z M524,256.4l-1.1-1.8
		c5-2.3,8.8-5.4,11.5-9.2h1.9c2.2,3.4,6.1,6.4,11.5,9.1l-1.2,1.8c-5.1-2.4-8.9-5.3-11.3-8.8c-2,2.5-4.2,4.7-6.8,6.4H542v2h-13.5V254
		C527,254.9,525.6,255.7,524,256.4z M534,259.4v9.6h-8.8v-9.6H534z M532.1,261.2h-5v6h5V261.2z M534.9,282.2l-1.5-1.4
		c3.3-2.5,5.9-6,7.6-10.3l1.8,0.7c-0.6,1.3-1.1,2.5-1.8,3.5c2.6,1.8,4.8,3.6,6.6,5.4l-1.4,1.4c-1.6-1.7-3.6-3.5-6.1-5.3
		C538.6,278.8,536.9,280.7,534.9,282.2z M545.8,259.4v9.6h-8.7v-9.6H545.8z M544,261.2h-5v6h5V261.2z"/>
	<path fill="#58595B" d="M566,245.9c-0.9,2.9-2,5.7-3.3,8.2v28.4h-2.2V258c-1.5,2.3-3.1,4.4-4.8,6.4l-0.7-2.3
		c4.2-5,7.2-10.8,9.1-17.1L566,245.9z M576.6,278.3c-2.8,1.7-6.3,3.1-10.5,4.2l-0.9-1.8c4.1-1,7.5-2.2,10.2-3.8L576.6,278.3z
		 M580,244.9v2.5h11v1.8h-11v2.8h9.6v1.8H580v2.9H592v1.8h-25.8v-1.8h11.6v-2.9h-9.3V252h9.3v-2.8h-10.7v-1.8h10.7v-2.5H580z
		 M588.8,261v15.3h-20V261H588.8z M586.8,265.6v-2.8h-15.9v2.8H586.8z M586.8,270.1v-2.8h-15.9v2.8H586.8z M586.8,271.7h-15.9v2.7
		h15.9V271.7z M592.5,280.5l-0.7,1.8c-3.4-1.6-6.9-2.8-10.6-3.7l0.9-1.7C585.6,277.8,589.1,279,592.5,280.5z"/>
	<path fill="#58595B" d="M616,251.8c0.8-2.3,1.4-4.7,1.8-7.3l2.2,0.2c-0.4,2.5-1,4.8-1.7,7h15.3v2h-16c-0.7,1.8-1.6,3.6-2.6,5.1
		h20.8v2.1h-9.6c2.1,3.1,5.7,5.9,10.8,8.4l-1.4,1.8c-5.5-3-9.4-6.4-11.7-10.1h-10.3c-3.2,4.4-7.5,7.8-12.8,10.3l-1.2-1.9
		c4.7-2.1,8.5-4.8,11.4-8.4h-10.2V259h11.7c1.1-1.6,2.1-3.3,2.8-5.1H603v-2H616z M607.8,269.3v-2.1H629c-0.1,3.7-0.3,6.6-0.7,8.9
		c-0.3,2.2-0.9,3.8-1.7,4.7c-0.8,0.8-2,1.3-3.7,1.4h-5.8l-0.6-2.1c1.8,0.1,3.6,0.1,5.3,0.1c1.9,0,3.2-0.7,3.7-2
		c0.7-1.4,1.1-4.4,1.2-8.9h-10.7c-0.8,3.2-2,5.7-3.4,7.6c-1.8,2.1-4.4,3.9-7.9,5.6l-1.4-1.8c3.2-1.4,5.7-3,7.3-4.8
		c1.5-1.7,2.6-3.9,3.4-6.6H607.8z M611.5,250.6l-1.8,0.8c-1-2.2-2.1-4.1-3.2-5.7l2-0.7C609.6,246.7,610.6,248.6,611.5,250.6z
		 M630.4,245.4c-0.9,2.3-2.1,4.4-3.6,6.1l-1.6-0.9c1.3-1.6,2.4-3.6,3.3-5.8L630.4,245.4z"/>
	<path fill="#58595B" d="M116.6,340.4v-32.1H140v32.1h6.4v2.2h-36.2v-2.2H116.6z M137.8,310.5h-18.8v8.2h18.8V310.5z M118.9,329.4
		h18.8v-8.6h-18.8V329.4z M118.9,340.4h18.8v-8.9h-18.8V340.4z"/>
	<path fill="#58595B" d="M172.4,308.5v2.1h-5.5v5.5h4.8v27.4h-2v-2h-12.5v2.2h-1.9v-27.6h4.6v-5.5h-5.6v-2.1H172.4z M169.7,339.4
		v-11h-2.5c-1.6,0-2.3-0.8-2.3-2.3V318h-3v3.2c0,4.3-1,7.5-3,9.5l-1.2-1.1c1.7-1.8,2.6-4.6,2.7-8.5V318h-3.1v21.4H169.7z
		 M167.7,332.8v1.9h-8.7v-1.9H167.7z M165,316.1v-5.5h-3.2v5.5H165z M169.7,318h-3.2v7.8c0,0.6,0.4,0.9,1.1,0.9h2.1V318z
		 M189.6,340.9c-0.6,1.2-1.8,1.8-3.6,1.8h-7.6c-2.3,0-3.4-1.2-3.4-3.6v-17h11.5v-11.7h-12.4v-2.1h14.4v15.8h-11.4v14.2
		c0,1.4,0.7,2.1,2.1,2.2h6.4c1.2,0,2.1-0.6,2.5-1.8c0.4-1.1,0.6-3.4,0.8-6.9l2.1,0.7C190.6,336.9,190.2,339.7,189.6,340.9z"/>
	<path fill="#58595B" d="M204.3,332.8c-1,3.8-2.4,7-4.2,9.8l-1.8-1.2c1.8-2.6,3.1-5.6,3.9-8.9L204.3,332.8z M213,309.8
		c0.6-1.1,1.1-2.3,1.4-3.4l2.3,0.3c-0.3,1.1-0.7,2.1-1.3,3.1h13.9v19.5h-25.3v-19.5H213z M227.2,315.7v-4h-20.9v4H227.2z
		 M227.2,321.5v-3.9h-20.9v3.9H227.2z M227.2,323.3h-20.9v4.1h20.9V323.3z M210.8,343.3c-2.1,0-3.1-1-3.1-3.1v-8.1h2.3v7.6
		c0,1.1,0.5,1.6,1.5,1.6h9.6c1,0,1.8-0.2,2.2-0.7c0.6-0.6,0.9-2.4,1.1-5.3l2.1,0.7c-0.2,3.4-0.8,5.5-1.6,6.3
		c-0.7,0.6-1.8,0.9-3.4,0.9H210.8z M221,336.6l-1.7,1.2c-1.3-1.8-3.1-3.8-5.4-6l1.6-1C217.9,333,219.7,334.9,221,336.6z
		 M235.3,340.6l-1.8,1.2c-1.6-2.7-3.7-5.7-6.4-9l1.7-1.1C231.7,335.1,233.8,338.1,235.3,340.6z"/>
	<path fill="#58595B" d="M259.5,313.4h-15.4v-2.2h15.4v-4.6h2.2v4.6h15.4v2.2h-15.4v11.7c4.5,6.4,10.3,11.4,17.5,14.9l-1.2,2
		c-6.4-3.3-11.8-7.8-16.3-13.7v15.5h-2.2v-15.4c-4,5.5-9.4,10.1-16.2,13.6l-1.1-2c7.6-3.9,13.3-8.8,17.3-15V313.4z M245,328.9
		l-1.4-1.7c3.7-3,6.2-7,7.5-12.1l2.1,0.4c-0.6,2.2-1.4,4.2-2.3,6c2.1,1.2,3.9,2.6,5.7,4.2l-1.2,1.9c-1.8-1.8-3.6-3.2-5.4-4.3
		C248.5,325.5,246.9,327.4,245,328.9z M266.2,327.8l-1.4-1.7c3.2-2.7,5.3-6.3,6.4-10.8l2.1,0.4c-0.5,2.1-1.2,4-2.1,5.7
		c2.3,1.4,4.5,3.1,6.4,5l-1.3,1.9c-2.1-2.1-4.1-3.9-6.2-5.2C269.2,324.9,267.8,326.5,266.2,327.8z"/>
	<path fill="#58595B" d="M294.9,323.6l-1.5,1.5c-1.7-1.9-4-4-6.9-6.2l1.5-1.4C290.7,319.6,293,321.6,294.9,323.6z M295.3,329.3
		c-1.9,5.2-4,10.1-6.3,14.6l-2.1-0.9c2.5-4.7,4.6-9.5,6.4-14.4L295.3,329.3z M296.1,313.8l-1.5,1.5c-1.8-2-4.3-4.1-7.4-6.4l1.5-1.4
		C291.7,309.6,294.1,311.7,296.1,313.8z M310.1,314.8c0.6-1.4,1-2.9,1.3-4.4h-10.8v12.9c-0.2,8.5-1.7,15.4-4.6,20.6l-1.7-1.5
		c2.7-4.6,4.1-11,4.2-19.1v-14.9h24.3v2h-9.3c-0.3,1.5-0.7,3-1.3,4.4h8.3v14h-7.1v12.1c0,2-1,3-2.9,3h-3.4l-0.5-2.1
		c1.1,0.1,2.1,0.2,3.2,0.2c1,0,1.5-0.5,1.5-1.6v-11.7H304v-14H310.1z M307.4,332.4c-1.1,3.7-2.6,6.8-4.6,9.4l-1.8-1.1
		c2-2.5,3.4-5.5,4.4-8.7L307.4,332.4z M318.5,320.9v-4.3H306v4.3H318.5z M318.5,322.7H306v4.2h12.4V322.7z M323.2,341l-1.9,0.8
		c-1.4-3.5-3-6.6-4.6-9.4l1.9-0.6C320.4,334.7,321.9,337.8,323.2,341z"/>
	<path fill="#58595B" d="M367.2,309.2v2.2h-5.6v28.5c0,2.5-1.3,3.8-3.8,3.8H351l-0.5-2.1c2.3,0.1,4.4,0.2,6.5,0.2
		c1.5,0,2.3-0.8,2.3-2.4v-27.9h-28.6v-2.2H367.2z M351.1,332.9h-13.2v3.7h-2.1v-18.3h15.3V332.9z M348.9,330.8v-10.5h-11.1v10.5
		H348.9z"/>
	<path fill="#58595B" d="M387.5,330.4c-1.5-0.3-2.9-0.6-4.3-0.8c-1.2-0.2-2.5-0.4-3.7-0.5v2.5c-0.1,5.1-1.2,9.3-3.5,12.4l-1.6-1.5
		c1.9-2.8,2.9-6.4,3-10.8v-10.4h14.5v19.9c0,1.7-1,2.6-2.9,2.6h-3.8l-0.6-2.1c1.3,0,2.5,0.1,3.7,0.1c0.9,0,1.4-0.5,1.4-1.4v-5.3
		c-3,0.6-6.1,1.1-9.4,1.6l-0.5-1.9c3.4-0.4,6.8-0.9,9.9-1.5v-10h-10.2v4.1c1.9,0.2,3.5,0.4,4.8,0.6c1,0.1,2.3,0.4,4,0.7L387.5,330.4
		z M394.6,318.4l-1.8,1.3c-0.5-0.9-1-1.9-1.6-2.8c-4.4,0.7-9.6,1.2-15.8,1.6l-0.6-1.9c0.4-0.1,0.7-0.3,1-0.6
		c2.6-2.5,4.8-5.7,6.7-9.4l2.1,0.6c-2.1,4-4.3,7.1-6.7,9.2c3.9-0.2,7.9-0.6,12.2-1.2c-0.9-1.5-1.9-3-3-4.4l1.7-1.1
		C391.4,313.1,393.3,316,394.6,318.4z M398.5,306.9v5.5l11.3-0.7v2.1l-11.3,0.7v6.2c0,1,0.5,1.6,1.6,1.6h10.4v2.1h-10.9
		c-2.2,0-3.3-1.1-3.3-3.2v-14.2H398.5z M399.4,343.3c-2.1,0-3.1-1-3.1-3v-14.2h2.2v4.7l11.5-0.7v2.1l-11.5,0.7v6.9
		c0,1,0.5,1.5,1.6,1.5h6.2c1,0,1.7-0.2,2.1-0.7c0.5-0.6,0.8-2.2,1-4.9l2.1,0.7c-0.2,3.2-0.8,5.3-1.5,6c-0.7,0.6-1.7,0.9-3.1,0.9
		H399.4z"/>
	<path fill="#58595B" d="M454.4,328.3c-0.1,7.5-0.5,11.9-1.4,13.4c-0.9,1.5-2.5,2.2-4.8,2.2c-1.1,0-2.5,0-4-0.1l-0.6-2.1
		c1.7,0.1,3.1,0.1,4.1,0.2c1.9,0,3.2-0.7,3.7-1.9s0.8-4.4,0.9-9.6h-25.9c-2,2.1-4.2,3.9-6.6,5.5l-1.1-2c6.6-4.4,11.3-10.6,14.2-18.5
		h-11.5v-2h12.1c0.7-2.3,1.3-4.6,1.7-7l2.2,0.2c-0.5,2.4-1,4.6-1.7,6.8h12.9l-1.8,7.2h5.2l-1.6,7.7H454.4z M428.7,334.1
		c-1.1,3.4-2.7,6.2-4.8,8.7l-1.9-1.2c2.1-2.3,3.6-5,4.6-7.9L428.7,334.1z M430.2,311.7l-1.7,1.3c-0.9-1.5-2.1-3.1-3.5-4.8l1.7-1.1
		C428.3,308.8,429.4,310.4,430.2,311.7z M428.1,328.3h20.2l1.4-5.7h-17.7C430.7,324.7,429.4,326.6,428.1,328.3z M435.3,341.6
		l-2.1,0.2c-0.2-3.3-0.8-5.8-1.5-7.6l1.9-0.2C434.5,335.8,435,338.4,435.3,341.6z M435.1,315.4c-0.7,1.8-1.4,3.6-2.1,5.2h11.7
		l1.4-5.2H435.1z M442.2,339.9l-2,0.7c-0.7-2.3-1.6-4.6-2.6-6.8l1.8-0.5C440.6,335.6,441.5,337.8,442.2,339.9z M448.5,338.3
		l-2.1,0.5c-0.7-2.1-1.5-4-2.6-5.9l1.8-0.6C446.7,334,447.6,336,448.5,338.3z"/>
	<path fill="#58595B" d="M480.1,314.3v-7.7h2.2v7.7h16.3v2.2h-14c2.8,6.8,7.9,12.9,15.2,18.2l-1.5,1.9c-7.5-6-12.7-12.6-15.6-20.1
		h-0.5v16.7h9.1v2.2h-9.1v8.7h-2.2v-8.7h-8.8v-2.2h8.8v-16.7h-0.6c-3,8.4-8.4,15.3-15.9,20.6l-1.3-2c7.2-4.8,12.4-11,15.4-18.6h-14
		v-2.2H480.1z"/>
	<path fill="#58595B" d="M526.3,307c4,5,9.8,9.1,17.5,12.4l-1.2,1.8c-7.1-3-12.9-7.1-17.2-12.1c-4.8,5.1-10.5,9.2-17.3,12.2
		l-1.2-1.8c7.1-3.2,13-7.4,17.6-12.5H526.3z M536.1,318.2v2h-9.6v6.6h14.9v2.1h-14.9v11.7h5.1c1.6-2.8,2.9-5.8,4-9l2,0.8
		c-1.1,3.1-2.3,5.9-3.7,8.3h8.9v2.1h-34.9v-2.1h8.9c-0.9-2.8-2.1-5.5-3.6-8l2-0.7c1.4,2.4,2.7,5.3,3.8,8.7h5.3V329h-14.9v-2.1h14.9
		v-6.6h-9.6v-2H536.1z"/>
	<path fill="#58595B" d="M554,306c1.7,2.6,3,5.5,4.1,8.5c1.1,3.6,1.8,7.1,1.8,10.7c0,3.5-0.6,7.1-1.8,10.7c-1,3-2.4,5.8-4.1,8.5
		h-2.3c1.6-2.7,2.9-5.5,3.9-8.5c1.1-3.6,1.8-7.2,1.8-10.6c0-3.5-0.6-7-1.8-10.6c-1-3-2.3-5.9-3.9-8.5H554z"/>
</g>
<path fill="#FFD65C" d="M617.8,494.9h-489c-11.6,0-21-9.4-21-21v-67.2c0-11.6,9.4-21,21-21h489c11.6,0,21,9.4,21,21v67.2
	C638.8,485.5,629.4,494.9,617.8,494.9z"/>
<g>
	<g>
		<path fill="#58595B" d="M302.6,448.4c-0.2,3-0.6,5.7-1.3,8.1l-3.2-0.9c0.8-2.2,1.3-4.7,1.5-7.6L302.6,448.4z M306.2,437.5v-2.3
			h-6.7V420h16.8v15.2h-6.7v2.3h6.2v3.1h-6.2v2.4h7.1v3.4h-17.8v-3.4h7.2v-2.4h-6.3v-3.1H306.2z M306.4,423h-3.8v9.3h3.8V423z
			 M306.1,430.5l-2,0.5c-0.4-2-0.8-3.8-1.4-5.5l2-0.7C305.2,426.5,305.7,428.4,306.1,430.5z M307.4,455.7l-3.2,0.4
			c0-3.2-0.1-5.7-0.3-7.5l2.8-0.4C307,450.1,307.2,452.6,307.4,455.7z M312.5,454.9l-3.1,0.7c-0.3-2.6-0.7-5-1.1-7l2.8-0.6
			C311.6,450.2,312.1,452.5,312.5,454.9z M313.1,423h-3.9v9.3h3.9V423z M312.8,425c-0.2,2.1-0.6,4.1-1.2,6.1l-2-0.7
			c0.5-1.8,0.9-3.8,1.1-6L312.8,425z M317.1,453.9l-2.8,1c-0.5-2.3-1-4.5-1.6-6.6l2.7-0.8C316.1,449.8,316.7,452,317.1,453.9z
			 M327.7,418.9v7.3h8.2v3.6h-8.2v6.6h6.8v20.3h-3.7v-2h-8.9v2h-3.7v-20.3h5.6v-17.4H327.7z M330.8,451v-11.2h-8.9V451H330.8z"/>
		<path fill="#58595B" d="M361.8,441.4c-2.2,0.7-4.6,1.4-7,2.1v8.6c0,2.6-1.4,4-4.1,4H346l-0.9-3.7c1.4,0.2,2.8,0.2,4.1,0.2
			c1,0,1.6-0.5,1.6-1.5v-6.7c-2.5,0.5-5,1-7.6,1.4l-0.5-3.9c2.8-0.5,5.5-0.9,8.1-1.5v-7.3h-8.1v-3.7h8.1V425
			c-2.1,0.4-4.1,0.7-6.3,1.1l-0.8-3.7c5.7-0.6,10.8-1.8,15.3-3.6l1.4,3.7c-1.8,0.6-3.6,1.2-5.5,1.7v5.2h8.9
			c-0.2-3.2-0.4-6.7-0.4-10.6h3.9c0,4,0.1,7.6,0.4,10.6H380v3.7h-12.1c0.2,2.7,0.6,5,1.1,6.8c0.2,0.8,0.4,1.5,0.6,2.1
			c1.8-2.1,3.3-4.6,4.6-7.3l3.4,1.8c-1.8,3.8-4,7-6.6,9.7c0.5,1.1,0.9,2.1,1.4,2.8c1.2,1.8,2.2,2.8,2.8,2.8c0.5,0,1.1-2.1,1.6-6.4
			l3.4,1.8c-1,5.8-2.5,8.8-4.5,8.8c-1.8,0-3.6-1.2-5.5-3.7c-0.8-1-1.5-2.1-2.1-3.4c-2.8,2.4-6,4.3-9.5,5.6l-2.2-3.4
			c3.9-1.4,7.2-3.4,10.1-6c-0.5-1.4-0.9-2.8-1.3-4.2c-0.6-2.2-1-4.8-1.4-7.8h-9.2v6.4c2.5-0.7,4.8-1.4,7-2.1V441.4z M379.1,424.7
			l-2.8,2.8c-1.7-1.8-4.1-3.7-7.2-5.8l2.6-2.5C374.6,421,377.1,422.8,379.1,424.7z"/>
		<path fill="#58595B" d="M397,428.7v3c-1.2,2.1-2.6,4.3-4.2,6.4h5.4v2.6c-0.7,3.1-1.6,5.7-2.6,7.6c0.2,0.2,0.5,0.4,0.8,0.7
			c1.3,1.2,2.5,2.1,3.8,2.6c1.2,0.5,3,0.7,5.2,0.8c2.2,0,4.8,0,7.7,0c3,0,6.9-0.1,11.7-0.3l-0.9,3.7h-10.4c-2.9,0-5.7-0.1-8.3-0.2
			c-2.8-0.1-4.9-0.4-6.4-1c-1.7-0.7-3.3-1.7-4.7-3.1c-0.3-0.3-0.6-0.4-0.9-0.4c-0.8,0-2.1,1.8-3.9,5.4l-2.8-2.6c2-3.8,3.8-6,5.6-6.4
			c1-1.9,1.8-3.9,2.3-6.1h-6.2v-3c1.8-2.1,3.3-4.2,4.5-6.2h-5.6v-3.5H397z M397,424.8l-2.5,2.5c-1.5-1.8-3.6-3.8-6.2-5.9l2.6-2.5
			C393.2,420.9,395.2,422.8,397,424.8z M398.8,434.6l-1.1-3.7c2.9-3.6,5-7.5,6.2-11.8l3.6,0.6c-0.4,1.4-0.9,2.7-1.4,3.9h6
			c-0.6-1.4-1.3-2.7-2.1-3.9l3.5-1c0.9,1.8,1.6,3.4,2.2,4.9h7v3.5h-7.2v3.9h6.1v3.4h-6.1v3.8h6.1v3.4h-6.1v4h7.7v3.5h-21.8v-17.7
			C400.6,432.5,399.7,433.5,398.8,434.6z M411.9,427.1h-6.7v3.9h6.7V427.1z M411.9,434.4h-6.7v3.8h6.7V434.4z M411.9,441.6h-6.7v4
			h6.7V441.6z"/>
		<path fill="#58595B" d="M442.4,423.8V420h8.9c1.1,12.4,6.7,23.4,16.9,32.7l-2.2,3.4c-8.3-7.5-13.7-16.1-16.3-25.9
			c-2.9,11.1-8.5,19.7-16.8,25.8l-2.4-3.3c9-6.6,14.9-16.3,17.6-28.9H442.4z"/>
	</g>
</g>
<g>
</g>
<g>
</g>
<g>
</g>
<g>
</g>
<g>
</g>
<g>
</g>
<g>
</g>
<g>
</g>
<g>
</g>
<g>
</g>
<g>
</g>
<g>
</g>
<g>
</g>
<g>
</g>
<g>
</g>
</svg>
