<?xml version="1.0" encoding="utf-8"?>
<!-- Generator: Adobe Illustrator 18.0.0, SVG Export Plug-In . SVG Version: 6.00 Build 0)  -->
<!DOCTYPE svg PUBLIC "-//W3C//DTD SVG 1.1//EN" "http://www.w3.org/Graphics/SVG/1.1/DTD/svg11.dtd">
<svg version="1.1" id="Layer_1" xmlns="http://www.w3.org/2000/svg" xmlns:xlink="http://www.w3.org/1999/xlink" x="0px" y="0px"
	 viewBox="0 0 685.6 243.2" enable-background="new 0 0 685.6 243.2" xml:space="preserve">
<g>
	<path fill="#FFFFFF" d="M615.3,201.6h-545C31.6,201.6,0,169.9,0,131.3l0-61C0,31.6,31.6,0,70.3,0l545,0c38.7,0,70.3,31.6,70.3,70.3
		v61C685.6,169.9,654,201.6,615.3,201.6z"/>
	<g>
		<path fill="#757679" d="M82.2,70.9c-2.2,0.8-4.5,1.4-6.9,2.1v8.5c0,2.8-1.5,4.2-4.4,4.2h-4.7l-1-4.1c1.5,0.2,2.8,0.3,4.2,0.3
			c1,0,1.5-0.5,1.5-1.4V74c-2.4,0.5-4.9,1-7.5,1.4l-0.6-4.4c2.8-0.4,5.6-0.9,8.1-1.5v-7.2h-8.2v-4.2h8.2v-3.9c-2,0.4-4.1,0.8-6.2,1
			l-0.9-4.1c5.8-0.6,11-1.8,15.5-3.7l1.5,4.1c-1.7,0.6-3.5,1.2-5.4,1.7v4.9h8.6c-0.3-3.2-0.3-6.8-0.3-10.6h4.4c0,4,0.2,7.5,0.4,10.6
			h12.5v4.2H88.6c0.3,2.7,0.6,4.9,1.1,6.7c0.2,0.7,0.3,1.3,0.5,1.8c1.7-2.1,3.2-4.5,4.5-7.1l3.8,2c-1.8,3.8-4.1,7.1-6.6,9.8
			c0.4,1,0.9,1.9,1.3,2.6c1.2,1.8,2.1,2.8,2.7,2.8c0.5,0,0.9-2.1,1.4-6.3l3.9,2.1c-1.1,6-2.6,9-4.7,9c-1.8,0-3.8-1.3-5.7-3.7
			c-0.8-1-1.5-2.1-2.1-3.3c-2.8,2.3-6,4.2-9.5,5.5l-2.4-3.7c3.9-1.4,7.2-3.4,10.1-6c-0.5-1.3-0.9-2.7-1.3-4.1
			c-0.6-2.3-1.1-4.9-1.4-7.9h-9v6.2c2.4-0.6,4.8-1.3,6.9-2.1V70.9z M100,53.4l-3.1,3.1c-1.7-1.8-4.1-3.8-7.3-5.9l2.9-2.8
			C95.4,49.7,97.9,51.5,100,53.4z"/>
		<path fill="#757679" d="M111.3,62.3l-3.9-2.4c2.7-3.9,4.6-8.1,5.7-12.5l4.3,1c-0.4,1.5-0.8,2.9-1.3,4.2h11.1v4.1h-5.6
			c0,2.4-0.2,4.7-0.4,6.8h6.4v4.1h-6.9l-0.5,2.5c2.5,2.5,5.1,5.4,7.7,8.5l-2.7,4.1c-2.5-3.6-4.5-6.4-6.2-8.5
			c-1.8,4.2-4.7,7.9-9,10.9l-2.8-3.5c4.3-3.2,7.1-7.1,8.5-11.7l0.5-2.2h-8v-4.1h8.7c0.2-2.1,0.3-4.4,0.4-6.8h-2.8
			C113.5,58.7,112.5,60.6,111.3,62.3z M144.6,84.3h-4.3V82h-6.9v2.3h-4.2V51.4h15.4V84.3z M140.3,77.9V55.5h-6.9v22.5H140.3z"/>
		<path fill="#757679" d="M163,57.5v3.4c-1.3,2.1-2.8,4.1-4.4,6.2h4.9V70c-0.5,3-1.2,5.5-1.9,7.4c0.3,0.2,0.6,0.5,1,0.8
			c1.3,1.3,2.6,2.1,3.8,2.6c1.2,0.5,2.9,0.7,5.2,0.8c2.3,0,4.8,0,7.7,0c3,0,6.9-0.1,11.8-0.3l-1,4.1h-10.2c-2.8,0-5.7-0.1-8.5-0.2
			c-2.8-0.1-5-0.4-6.4-1c-1.8-0.7-3.3-1.8-4.7-3.2c-0.3-0.3-0.6-0.5-1-0.5c-0.8,0-2.1,1.8-3.9,5.5l-3.1-2.9c1.9-3.6,3.8-5.8,5.5-6.5
			c0.7-1.8,1.3-3.9,1.7-5.9h-5.9v-3.3c1.9-2.2,3.6-4.2,4.8-6.1h-5.5v-3.9H163z M162.7,53.5l-2.8,2.8c-1.5-1.8-3.6-3.9-6.4-6.1
			l2.8-2.7C158.9,49.6,161,51.5,162.7,53.5z M170.3,51.7c-0.6-1-1.3-2-2-2.9l4-1.5c0.9,1.3,1.7,2.8,2.5,4.5h4.5
			c1-1.4,1.9-2.9,2.7-4.5l4.1,1.5c-0.6,1.1-1.3,2.1-2,3h6.2v3.9h-11.5c-0.3,0.8-0.5,1.6-0.8,2.4h9.5v21.1h-20.2V58h6.1
			c0.3-0.8,0.5-1.6,0.8-2.4h-9.9v-3.9H170.3z M183.4,64v-2.3h-12.2V64H183.4z M183.4,69.5v-2.2h-12.2v2.2H183.4z M183.4,72.9h-12.2
			v2.4h12.2V72.9z"/>
		<path fill="#757679" d="M214.6,50.7c0.2-1.3,0.3-2.5,0.5-3.7l4.4,0.6l-0.4,3.1h16v4.1h-16.7c-0.3,1.1-0.5,2.2-0.7,3.2h15.5v23
			c0,3.2-1.5,4.8-4.4,4.8h-3.9l-1.1-4.2l3.6,0.1c1,0,1.5-0.6,1.5-1.7V62.1h-24.9v24h-4.3V58h13.6c0.3-1.1,0.5-2.2,0.7-3.2h-16.3
			v-4.1H214.6z M214.6,67.5h3.6c0.8-1.5,1.5-3.2,2.2-4.9l3.9,1.4c-0.6,1.3-1.2,2.5-1.9,3.5h3.8v3.8h-7.7v3.2h8.8v3.8h-8.8v7.2h-4.3
			v-7.2h-8.7v-3.8h8.7v-3.2h-7.6v-3.8h3.8c-0.6-1.2-1.2-2.3-1.9-3.4l3.9-1.4C213.2,64,214,65.6,214.6,67.5z"/>
		<path fill="#757679" d="M254.1,53.6v-6.2h4.4V68c-0.1,8.3-2.4,14.4-6.9,18.2l-3.4-3c2.3-1.9,3.9-4.4,4.9-7.5
			c-3.2,0.8-6.6,1.5-10.1,2.1l-1.1-4.4c4.1-0.4,8.1-1,12.1-1.9c0.1-1.1,0.2-2.3,0.2-3.5v-0.8H244V63h10.2v-5.2H243v-4.1H254.1z
			 M268.4,47.4v6.2h11.1v4.1h-11.1V63h10.2v4.2h-10.2v5.4h11.8v4.1h-11.8v9.5h-4.4V47.4H268.4z"/>
		<path fill="#757679" d="M313.8,83.6l-1.1-4l3.2,0.2c0.9,0,1.4-0.5,1.4-1.5V75h-9v11.2H304V75h-9v8.2h-4.3V71.1H304v-2.4h-2.1
			l-0.9-3.3l1.9,0.2c0.6,0,0.9-0.4,0.9-1.1v-1.1l-2.6,0.7c-0.3-2.1-0.8-4-1.3-5.8l2.3-0.8c0.6,1.7,1.2,3.6,1.6,5.7v-6.7h-4.1v11.8
			h-3.3V56.4h-4.4v12.3h-3.6V53h3.4c-0.8-1.4-1.6-2.7-2.4-3.8l3.1-1.5c0.8,1.3,1.7,2.6,2.5,4.2l-2.2,1.1h3.4v-5.5h3.6V53h3.3
			l-2.1-1.1c1-1.4,1.8-2.8,2.4-4.1l3.2,1.5c-0.6,1.3-1.4,2.5-2.3,3.7h3v4c2.5-2.7,4.2-5.8,5-9.5l3.9,0.5c-0.3,1.1-0.6,2.2-1,3.2h9
			v3.7h-1.6c-0.9,3-2.1,5.5-3.6,7.6c1.8,1.3,4,2.3,6.3,3.3l-2.1,3.6c-2.6-1.3-4.9-2.6-6.9-4.1c-1.9,1.7-4.2,2.9-6.7,3.8l-2-3.3
			c2.3-0.7,4.2-1.7,5.8-3c-0.9-0.9-1.7-1.8-2.4-2.7l1.8-2.8c0.9,1.1,1.9,2.1,3,3c1.2-1.6,2.1-3.4,2.7-5.4h-5.2
			c-1.1,2-2.5,3.8-4.1,5.4l-2.1-2.8v7.7c0,1.6-0.6,2.7-1.7,3.1h2.7v2.7h13.4v8.1c0,2.9-1.5,4.4-4.3,4.4H313.8z M296,58.3
			c-0.2,2.7-0.5,5.1-1,7.3l-2.8-0.9c0.6-1.9,1-4.2,1.2-6.7L296,58.3z"/>
		<path fill="#757679" d="M343.4,48.9c-2.1,4.6-5.6,8.7-10.6,12.5l-1.3-4.2c3.7-2.8,6.4-6.2,8.2-10.1L343.4,48.9z M344.7,59.7
			c-0.9,2-2.1,3.9-3.6,5.7v20.8h-4.3V69.9c-1.2,1-2.4,2-3.7,3l-1.3-4.1c4.1-3.1,7.1-6.7,9.1-10.8L344.7,59.7z M350.1,80.1
			c2.3-0.7,4.6-1.5,7-2.5l1,3.9c-3.4,1.4-7.7,2.7-12.8,4l-0.9-3.7c1-0.3,1.6-0.8,1.6-1.5V48.7h21v19h-16.8V80.1z M362.6,52.7h-12.5
			v3.5h12.5V52.7z M350.1,63.7h12.5v-3.6h-12.5V63.7z M369.8,71.3c-1.9,2.2-4.1,4-6.4,5.3c2,2.4,4.4,4.3,7.2,5.7l-2.4,3.6
			c-5.9-3.3-10.1-8.3-12.8-15.2l3.3-1.9c0.7,1.8,1.5,3.3,2.5,4.8c2.1-1.2,4-2.9,5.9-5.1L369.8,71.3z"/>
		<path fill="#757679" d="M386.2,86h-4.2V68c-1.1,3.1-2.5,6.1-4,8.7l-1.9-4.8c2.6-3.7,4.6-7.9,5.8-12.7H377v-4.1h5v-7.7h4.2v7.7h3.8
			v4.1h-3.8v2.9c1.5,1.5,3.1,3.2,4.7,5l-2.3,3.4l-2.4-3.8V86z M400,50c0.2-1,0.3-2,0.4-3l4.4,0.5l-0.3,2.5h8.5v3.8h-9.3
			c-0.2,0.7-0.3,1.4-0.5,2h8.4v3.6h-9.4c-0.3,0.7-0.5,1.4-0.8,2.1h12.8v3.9h-4.5c1.3,2.2,3.3,4.1,5.9,5.9l-2.7,3.4
			c-1.3-1-2.4-2.1-3.4-3.3V74h-5.1v2.7h8.2v3.9h-8.2V86h-4.1v-5.4h-8.5v-3.9h8.5V74h-5.4v-2.2c-1.2,1.2-2.4,2.3-3.7,3.2l-2.4-3.7
			c2.3-1.5,4.3-3.5,6-5.9h-4.8v-3.9h6.9c0.3-0.7,0.6-1.4,0.8-2.1h-5.2v-3.6h6.4l0.5-2h-7.8V50H400z M396.3,70.2h4v-3.5h4.1v3.5h4.2
			c-1.3-1.5-2.3-3.2-3.1-4.9h-6C398.5,67.1,397.5,68.7,396.3,70.2z"/>
		<path fill="#757679" d="M444.4,65.6c0,4.1-1.9,7.2-5.7,9.3l-1.5-2.4c2.5-1.5,3.9-3.5,4.1-5.8c-0.3,0-0.5,0.1-0.8,0.1
			c-0.9,0-1.7-0.3-2.3-0.9c-0.6-0.6-0.9-1.3-0.9-2.2c0-1,0.3-1.7,0.9-2.3c0.6-0.6,1.4-0.9,2.3-0.9C443.1,60.4,444.4,62.1,444.4,65.6
			z"/>
		<path fill="#757679" d="M486.1,70.9c-2.2,0.8-4.5,1.4-6.9,2.1v8.5c0,2.8-1.5,4.2-4.4,4.2h-4.7l-1-4.1c1.5,0.2,2.8,0.3,4.2,0.3
			c1,0,1.5-0.5,1.5-1.4V74c-2.4,0.5-4.9,1-7.5,1.4l-0.6-4.4c2.8-0.4,5.6-0.9,8.1-1.5v-7.2h-8.2v-4.2h8.2v-3.9c-2,0.4-4.1,0.8-6.2,1
			l-0.9-4.1c5.8-0.6,11-1.8,15.5-3.7l1.5,4.1c-1.7,0.6-3.5,1.2-5.4,1.7v4.9h8.6c-0.3-3.2-0.3-6.8-0.3-10.6h4.4c0,4,0.2,7.5,0.4,10.6
			h12.5v4.2h-12.2c0.3,2.7,0.6,4.9,1.1,6.7c0.2,0.7,0.3,1.3,0.5,1.8c1.7-2.1,3.2-4.5,4.5-7.1l3.8,2c-1.8,3.8-4.1,7.1-6.6,9.8
			c0.4,1,0.9,1.9,1.3,2.6c1.2,1.8,2.1,2.8,2.7,2.8c0.5,0,0.9-2.1,1.4-6.3l3.9,2.1c-1.1,6-2.6,9-4.7,9c-1.8,0-3.8-1.3-5.7-3.7
			c-0.8-1-1.5-2.1-2.1-3.3c-2.8,2.3-6,4.2-9.5,5.5l-2.4-3.7c3.9-1.4,7.2-3.4,10.1-6c-0.5-1.3-0.9-2.7-1.3-4.1
			c-0.6-2.3-1.1-4.9-1.4-7.9h-9v6.2c2.4-0.6,4.8-1.3,6.9-2.1V70.9z M504,53.4l-3.1,3.1c-1.7-1.8-4.1-3.8-7.3-5.9l2.9-2.8
			C499.4,49.7,501.9,51.5,504,53.4z"/>
		<path fill="#757679" d="M526.1,72.9c-2.8,5.2-6.2,9.7-10.1,13.6l-3.9-2.8c3.9-3.5,7.3-7.7,10.2-12.6L526.1,72.9z M544.4,49.4v20.1
			h-27.6V49.4H544.4z M540.1,53.6h-19v11.8h19V53.6z M549.2,83.8l-3.8,2.6c-2.4-4-5.8-8.4-10-13.2l3.6-2.2
			C543.4,75.9,546.8,80.1,549.2,83.8z"/>
		<path fill="#757679" d="M556.8,70.1v-3.9h37.4v3.9h-16v3.5h11.6v3.9h-11.6v4c1.9,0.2,4.1,0.3,6.5,0.3c3.7,0,6.9-0.1,9.4-0.2
			l-1.2,4.1c-2.9,0-5.6,0-7.9-0.1c-6.9,0-11.7-0.6-14.3-1.6c-2-0.8-3.8-2.5-5.4-4.8c-1.6,2.8-3.6,5.1-6,7l-2.8-3.6
			c3.8-2.9,6.3-6.8,7.6-11.6l4.1,0.7c-0.4,1.5-0.8,2.8-1.3,4.1c1.6,2.5,3.4,4,5.5,4.7c0.4,0.1,0.9,0.3,1.4,0.4V70.1H556.8z
			 M588.6,48.6v15.3h-26.2V48.6H588.6z M584.3,54.5v-2.2h-17.5v2.2H584.3z M584.3,58h-17.5v2.3h17.5V58z"/>
		<path fill="#757679" d="M612.4,70.9H608v-9.5c-1.6,2.7-3.5,5.3-5.7,7.6l-1.6-4.1c2.9-2.5,5.3-5.4,7.1-8.7h-6.2v-4h6.4v-4.2h4.4
			v4.2h4.9v4h-4.9v1.3c2.1,1.3,4.1,2.8,6.2,4.4l-2.5,3.7c-1.4-1.7-2.7-3.1-3.7-4.2V70.9z M609,73.8c-1,4-2.4,7.5-4.1,10.5l-3.8-2.4
			c1.7-2.8,2.9-5.9,3.6-9.1L609,73.8z M615.6,85.3c-3.2,0-4.7-1.6-4.7-4.8v-8h4.4v7c0,1,0.5,1.5,1.6,1.5h8.7c0.6,0,1-0.2,1.3-0.6
			s0.6-1.8,0.7-4l4.1,1.4c-0.3,3.6-0.9,5.8-1.8,6.4c-0.8,0.6-2,1-3.6,1H615.6z M625.1,76.7l-3.5,2.4c-1.1-1.7-2.5-3.5-4.3-5.5
			l3.4-2.1C622.6,73.4,624.1,75.2,625.1,76.7z M636.9,48.7v21.9h-17.4V48.7H636.9z M632.6,54.9v-2.4h-8.9v2.4H632.6z M632.6,60.8
			v-2.3h-8.9v2.3H632.6z M632.6,64.3h-8.9v2.5h8.9V64.3z M640,80.6l-3.7,2.6c-1.5-2.8-3.6-6-6.1-9.5l3.6-2.2
			C636.4,75,638.5,78.1,640,80.6z"/>
		<path fill="#757679" d="M80.3,128.5H68.8v20.4h-4.3v-37.4h15.8V128.5z M75.9,115.3h-7.2v2.9h7.2V115.3z M68.8,124.6h7.2v-2.8h-7.2
			V124.6z M90.1,130.7v13.4H73.2v-13.4H90.1z M85.9,134.6h-8.4v5.7h8.4V134.6z M82.9,128.5v-17H99v33c0,2.8-1.5,4.3-4.3,4.3
			c-1.3,0-2.7-0.1-4-0.2l-1.1-4.2c1.3,0.2,2.4,0.3,3.5,0.3c1,0,1.6-0.5,1.6-1.6v-14.6H82.9z M94.7,115.4h-7.4v2.8h7.4V115.4z
			 M87.3,124.6h7.4v-2.8h-7.4V124.6z"/>
		<path fill="#757679" d="M129.3,128.4c0,4.1-1.9,7.2-5.7,9.3l-1.5-2.4c2.5-1.5,3.9-3.5,4.1-5.8c-0.3,0-0.5,0.1-0.8,0.1
			c-0.9,0-1.7-0.3-2.3-0.9c-0.6-0.6-0.9-1.3-0.9-2.2c0-1,0.3-1.7,0.9-2.3c0.6-0.6,1.4-0.9,2.3-0.9
			C128,123.2,129.3,124.9,129.3,128.4z"/>
		<path fill="#757679" d="M188.3,131.7c-0.1,8.2-0.6,13.2-1.7,14.8c-1.1,1.6-3,2.5-5.6,2.5c-1.2,0-2.6-0.1-4.1-0.2l-1.1-4.1
			c1.7,0.1,3.1,0.2,4.3,0.3c1.7,0,2.7-0.6,3.1-1.6c0.4-1,0.7-3.6,0.8-7.7h-25c-1.9,1.9-4.1,3.6-6.3,5.1l-2.2-3.9
			c6-4,10.5-9.5,13.4-16.4h-10.5v-3.9h6.2c-0.8-1.2-1.8-2.5-2.8-3.9l3.4-2.2c1.5,1.8,2.6,3.3,3.5,4.7l-2,1.4h3.6
			c0.6-2,1.1-4.1,1.5-6.2l4.3,0.5c-0.4,2-0.9,3.9-1.4,5.7h12.8l-1.5,7.4h5l-1.3,7.8H188.3z M162,138.7c-1.1,3.5-2.6,6.5-4.6,9
			l-3.8-2.4c2.1-2.3,3.5-4.9,4.4-7.5L162,138.7z M162.3,131.7h18l0.8-4h-16.2C164.1,129.1,163.2,130.5,162.3,131.7z M168.8,146
			l-4.1,0.5c-0.2-3.3-0.6-5.7-1.3-7.5l3.7-0.5C167.9,140.3,168.5,142.8,168.8,146z M168.4,120.3c-0.5,1.3-1,2.4-1.5,3.6h9.7l0.9-3.6
			H168.4z M175.6,143.9l-3.9,1.5c-0.6-2.3-1.3-4.6-2.2-6.8l3.3-1C174,139.9,174.9,142,175.6,143.9z M181.9,142.5l-4,1
			c-0.6-2.1-1.3-4-2.3-5.9l3.5-1.1C180.2,138.2,181.1,140.2,181.9,142.5z"/>
		<path fill="#757679" d="M195.3,131.3l-1.4-4.6c4.2-4.8,7.4-10.4,9.4-16.8l4.1,1.9c-1,2.9-2.2,5.7-3.7,8.4V149h-4.4v-22.3
			C198.1,128.3,196.7,129.8,195.3,131.3z M221.3,110.2v13.2h11.4v4.4h-11.4v21.1h-4.5v-21.1h-10.5v-4.4h10.5v-13.2H221.3z"/>
		<path fill="#757679" d="M260.8,112.6h14.9v3.7h-30.6v11.6c-0.1,8.6-1.4,15.4-3.9,20.6l-3.3-2.9c1.9-4.2,2.9-10.1,3-17.7v-15.3
			h15.6c-0.4-0.8-0.8-1.5-1.3-2.1l4.3-0.7C259.9,110.7,260.3,111.6,260.8,112.6z M250,123.8c-0.1,3.5-1,6.2-2.6,8l-2.1-1.8
			c1.3-1.3,2.1-3.4,2.2-6.2H250z M275.7,146.5l-3.4,2.4c-0.6-1-1.3-2.1-1.9-3.1c-5.9,1-13.6,1.8-23,2.4l-1.1-3.6
			c1.3-0.1,2.5-0.4,3.5-0.7c2.3-1,4.9-2.5,7.7-4.4c-2.8,0.1-5.9,0.3-9,0.3l-0.8-3.4c0.9-0.1,1.8-0.4,2.6-0.8
			c1.6-0.7,3.6-2.3,6.1-5.1l4,1c-1.7,1.9-3.6,3.5-5.5,4.9c2.3-0.1,4.6-0.2,6.9-0.3c1.3-1.1,2.7-2.3,4.1-3.6l3.9,1.9
			c-5.1,4.3-9.6,7.6-13.5,9.8c4.4-0.4,8.3-0.9,11.7-1.5c-0.7-1-1.4-1.9-2.2-2.8l3.3-2.1C272,141.1,274.2,144,275.7,146.5z
			 M251.1,119.3v-2.2h3.8v2.2h4.5v3.3h-4.9v8.5h-3v-8.5h-5.1v-3.3H251.1z M258.5,123.8v3.2c0,0.4,0.2,0.6,0.5,0.6h1.5v2.4h-2.5
			c-1.4,0-2.1-0.9-2.1-2.8v-3.4H258.5z M266,119.3v-2.2h3.8v2.2h5.2v3.3h-5.6v8.5h-3v-8.5h-5.5v-3.3H266z M264.8,123.8
			c0,3.3-0.6,5.9-1.8,7.6l-2.1-1.8c0.8-1.3,1.3-3.2,1.3-5.8H264.8z M273.6,123.9v3.9c0,0.5,0.3,0.7,1,0.7h1.7v2.3h-2.6
			c-1.8,0-2.6-1-2.6-2.8v-4.2H273.6z"/>
		<path fill="#757679" d="M283.2,131.3l-1.5-4.7c4.3-4.7,7.5-10.3,9.6-16.7l4.1,1.9c-1.1,3.3-2.5,6.4-4.3,9.3v27.8h-4.4v-21.6
			C285.7,128.7,284.5,130,283.2,131.3z M296.3,127.4l-3.8-2.3c3.1-4.6,5.3-9.6,6.5-14.8l4.1,0.9c-0.3,1.3-0.7,2.5-1.1,3.7h17.5v2.8
			c-0.6,2.5-1.4,5-2.4,7.4l-4.2-1.2c0.8-1.4,1.5-3.1,2.1-4.9h-14.5C299.3,122.1,297.9,124.9,296.3,127.4z M302.3,128.4
			c-1.5,5.7-3.3,10.8-5.6,15.1l-4.1-1.5c2.2-3.9,4.1-8.7,5.8-14.7L302.3,128.4z M299.9,148.6l-1-4.1c1.7,0.2,3.3,0.3,4.8,0.3
			c1,0,1.5-0.5,1.5-1.6v-21.3h4.2v22.4c0,2.9-1.4,4.4-4.3,4.4H299.9z M320.6,142.5l-3.9,1.7c-1.5-6-3.2-11.4-5.1-16l3.9-1.3
			C317.4,131.7,319.2,137,320.6,142.5z"/>
		<path fill="#757679" d="M363.6,112v4.3h-13.5c-0.7,1.5-1.5,3.1-2.4,4.5v1.8c6.6,3.7,12.2,7.8,17,12.2l-3.1,3.6
			c-3.8-4-8.4-7.7-13.9-11.3V149h-4.5v-22.1c-3.8,4.3-8.6,8.1-14.3,11.6l-2.9-3.8c9-5.1,15.4-11.2,19.1-18.4h-17.8V112H363.6z"/>
		<path fill="#757679" d="M372.5,136.6l-2.8-3.6c4.7-3.9,8.5-8.3,11.3-13.3h-9.8v-4.3H383c0.8-1.8,1.5-3.7,2.1-5.7l4.5,0.5
			c-0.5,1.8-1.1,3.4-1.7,5.1h20.3v4.3H386c-1.6,3.2-3.5,6.2-5.7,8.9V149H376v-15.7C374.9,134.5,373.7,135.5,372.5,136.6z
			 M392.3,129.2V122h4.4v7.2h9.6v4.3h-9.6v9.8h11.4v4.3h-26.3v-4.3h10.5v-9.8h-9v-4.3H392.3z"/>
		<path fill="#757679" d="M443.2,110.3v7.5h8.2c0,14.1-0.2,22.9-0.6,26.2c-0.4,3.1-2.3,4.6-5.7,4.6c-0.8,0-2.1-0.1-4-0.2l-1-3.8
			c1.7,0.1,3.1,0.2,4.4,0.2c1.3,0,2.1-0.9,2.3-2.7c0.3-1.9,0.4-8.7,0.5-20.2h-4.1v1.4c-0.1,11.7-2.6,20.2-7.5,25.6l-2.3-2
			c-5.5,0.7-11.8,1.2-18.9,1.6l-0.5-3.9c3-0.2,5.8-0.3,8.5-0.5v-2.6h-7.1v-3.5h7.1v-2h-7.2v-13.5h7.2v-1.8h-8.1V117h8.1v-1.8
			c-2.2,0.1-4.4,0.2-6.8,0.2l-1.2-3.4c7,0,12.9-0.6,17.8-1.7l1.9,3.3c-2.3,0.6-4.8,1-7.7,1.3v2.2h7.9v3.6h-7.9v1.8h7.3v13.5h-7.3v2
			h7.1v3.5h-7.1v2.3c2.5-0.3,4.9-0.5,7.1-0.8v1.8c3.6-4.8,5.5-12,5.6-21.6v-1.4h-3.6v-4h3.6v-7.5H443.2z M422.6,127.7v-2.2h-3.6v2.2
			H422.6z M422.6,130.5h-3.6v2.2h3.6V130.5z M426.2,127.7h3.6v-2.2h-3.6V127.7z M429.8,130.5h-3.6v2.2h3.6V130.5z"/>
		<path fill="#757679" d="M461.5,128.4l-3.9-1.1c1.1-4.4,1.8-9,1.9-13.9l3.9,0.3c-0.1,1.6-0.2,3.2-0.3,4.8h1.8v-8.2h4.3v8.2h2.8v4.2
			h-2.8v8.4c0.9-0.4,1.8-0.8,2.7-1.3v4.1c-0.9,0.4-1.8,0.8-2.7,1.2v13.8H465v-12.1c-1.9,0.7-3.8,1.3-5.8,1.9l-1-4.2
			c2.3-0.5,4.6-1.1,6.8-1.8v-10h-2.3C462.4,124.6,462,126.6,461.5,128.4z M480.9,111.2c-0.4,1.9-0.8,3.6-1.3,5.3h15.8
			c0,14.6-0.2,23.5-0.6,26.9c-0.5,3.6-2.9,5.4-7.2,5.4c-0.6,0-1.7-0.1-3.2-0.2l-1-3.9c1.3,0.1,2.5,0.2,3.5,0.2
			c2.2,0,3.5-1.2,3.9-3.5c0.3-2,0.4-8.9,0.5-20.7h-1.5c-0.9,6.7-2.1,12.1-3.7,16c-1.9,4.4-4.8,8.5-8.6,12l-2.7-3.5
			c3.4-3.1,6-6.5,7.7-10.4c1.5-3.6,2.6-8.2,3.4-14.1h-2.1c-1.8,8.9-4.9,15.4-9.5,19.5l-2.8-3.3c4-3.4,6.8-8.8,8.4-16.2h-1.8
			c-1,2.5-2.3,4.6-3.6,6.2l-3.2-2.7c2.6-3.3,4.4-8,5.5-14.1L480.9,111.2z"/>
		<path fill="#757679" d="M538.8,149h-4.2v-1.5h-26.8v1.5h-4.2v-37.5h35.2V149z M515.7,143.6l-1-2.6c0.7-0.3,1-0.7,1-1.3v-1.1
			c-1.5,0.8-3.2,1.4-5,2.1l-2-3.2c3.8-0.9,6.5-1.9,8.3-3h-5.4v-7.4h19.1v7c0,0,0.1-0.1,0.1-0.1l2.6,2c-1.2,0.8-2.3,1.4-3.5,2.1
			c1.3,0.6,2.4,1.3,3.6,2l-2,3.1c-3.3-2.3-6.7-4.2-10.2-5.5l1.8-2.6c1.3,0.4,2.5,0.9,3.6,1.5c1.3-0.7,2.4-1.4,3.4-2.1h-8.9
			c-0.6,0.7-1.3,1.3-2.2,2v3.6c1.4-0.3,2.8-0.7,4.2-1.1l0.6,3c-2.4,0.6-4.8,1.2-7.2,1.6h17.8v-28.1h-26.8v28.1H515.7z M519.3,117.9
			v-1.6h3.9v1.6h8.1v3.1h-8.1v1.5h10.1v3.2h-24.1v-3.2h10V121h-8.1v-3.1H519.3z M527.2,129.9h-11.9v1.8h11.9V129.9z"/>
		<path fill="#757679" d="M572.6,116.3c1.7,1.5,2.5,3.5,2.5,6c0,2.1-0.5,3.8-1.5,5.1c-0.4,0.4-1.6,1.5-3.6,3.3
			c-0.8,0.6-1.3,1.3-1.7,2.1c-0.4,0.8-0.6,1.8-0.6,2.8v0.6h-4.8v-0.6c0-1.6,0.3-3,0.8-4.1c0.5-1.1,1.5-2.3,2.9-3.5
			c1.3-1.2,2.2-2,2.5-2.4c0.8-0.9,1.1-1.9,1.1-3c0-1.4-0.4-2.5-1.2-3.3c-0.8-0.8-1.9-1.2-3.3-1.2c-1.8,0-3.1,0.5-3.9,1.7
			c-0.7,1-1,2.3-1,4.1h-4.8c0-3.1,0.9-5.5,2.7-7.3c1.8-1.8,4.2-2.6,7.3-2.6C568.7,114.1,570.9,114.8,572.6,116.3z M567.6,139.1
			c0.6,0.6,0.9,1.3,0.9,2.3c0,0.9-0.3,1.7-0.9,2.3c-0.7,0.6-1.4,0.9-2.3,0.9s-1.7-0.3-2.3-0.9c-0.7-0.6-1-1.3-1-2.3
			c0-0.9,0.3-1.7,1-2.3c0.6-0.6,1.3-0.9,2.3-0.9S566.9,138.5,567.6,139.1z"/>
	</g>
	<linearGradient id="SVGID_1_" gradientUnits="userSpaceOnUse" x1="63.0914" y1="91.4727" x2="641.264" y2="91.4727">
		<stop  offset="0" style="stop-color:#B3B5B8"/>
		<stop  offset="1" style="stop-color:#A9ABAE"/>
	</linearGradient>
	<path fill="url(#SVGID_1_)" d="M63.1,90.2c192.8-1.5,385.6,0.4,578.1,5.7c-0.1,0,0.2-2.6,0-2.6C448.8,88,255.9,86.1,63.1,87.5
		C63.1,87.5,63.1,90.2,63.1,90.2L63.1,90.2z"/>
	<linearGradient id="SVGID_2_" gradientUnits="userSpaceOnUse" x1="66.7132" y1="150.3147" x2="581.581" y2="150.3147">
		<stop  offset="0" style="stop-color:#B3B5B8"/>
		<stop  offset="1" style="stop-color:#A9ABAE"/>
	</linearGradient>
	<path fill="url(#SVGID_2_)" d="M66.8,149.5c171.3,4.1,343.1,5.2,514.7,3.2c0.1,0,0-2.6,0-2.6c-171.6,2-343.4,0.9-514.7-3.2
		C66.9,146.9,66.6,149.5,66.8,149.5L66.8,149.5z"/>
	<path fill="#FFFFFF" d="M344.3,190.2c0,0,30.6,45.7,78.1,53.1c0,0-21.9-21.9-13.3-64.8L344.3,190.2z"/>
</g>
<g>
</g>
<g>
</g>
<g>
</g>
<g>
</g>
<g>
</g>
<g>
</g>
<g>
</g>
<g>
</g>
<g>
</g>
<g>
</g>
<g>
</g>
<g>
</g>
<g>
</g>
<g>
</g>
<g>
</g>
</svg>
