<?xml version="1.0" encoding="utf-8"?>
<!-- Generator: Adobe Illustrator 18.0.0, SVG Export Plug-In . SVG Version: 6.00 Build 0)  -->
<!DOCTYPE svg PUBLIC "-//W3C//DTD SVG 1.1//EN" "http://www.w3.org/Graphics/SVG/1.1/DTD/svg11.dtd">
<svg version="1.1" id="Layer_1" xmlns="http://www.w3.org/2000/svg" xmlns:xlink="http://www.w3.org/1999/xlink" x="0px" y="0px"
	 viewBox="0 0 329.6 223.3" enable-background="new 0 0 329.6 223.3" xml:space="preserve">
<path fill="#78B18C" d="M103.7,209.7c-0.8-2.7-2.5-4.6-4.7-6.3c-7.7-6.3-15.3-12.6-23-18.9c-5.9-4.8-11.7-9.6-17.6-14.4
	c2.5-2,4.9-3.9,7.4-5.9c13.6,11.1,27.1,22.1,40.7,33.2c3.3,2.7,6.6,5.1,11.3,4.1c5.5-1.2,9.2-6.6,8.3-12.2c-0.5-3.1-2.3-5.4-4.7-7.3
	c-7.2-5.9-14.4-11.8-21.6-17.6c-5.5-4.5-11-9-16.5-13.5c2.2-1.6,4.4-3.2,6.6-4.8c14.9,12.2,29.7,24.4,44.6,36.7
	c3.3,2.7,6.5,5.9,11.2,5.8c9.9-0.3,13.8-12.8,6.4-19c-8.1-6.8-16.3-13.4-24.4-20.1c-6.5-5.3-13-10.7-19.5-16c3-2,5.9-4,8.9-5.9
	c15.3,12.1,30.6,24.2,45.9,36.3c3.2,2.5,6,5.2,10.5,5c6.4-0.3,11.2-6.1,10.2-12.4c-0.5-3.2-2.4-5.4-4.8-7.4c-8-6.4-16-12.7-24-19
	c-6.1-4.9-12.3-9.7-18.4-14.6c5.1-3.1,10.2-6.1,15.4-9c12.3,11.7,24.7,23.4,37,35.2c3,2.8,5.8,5.7,10.2,5.7c9.8,0,14-11.8,7.5-18.5
	c-6.2-6.3-12.8-12.2-19.2-18.2c-5.2-4.9-10.4-9.9-15.6-14.8c2.6-1.3,5.2-2.7,7.8-4c11.4,10.9,22.8,21.7,34.2,32.6
	c2.7,2.6,5.3,5.3,9.4,5.5c9.9,0.5,15-11.4,8.3-18.4c-5.4-5.7-11.5-10.9-17.2-16.4c-4.6-4.4-9.3-8.8-13.9-13.2
	c3.5-1.6,7.1-3.1,10.7-4.7c9.5,10.7,19,21.5,28.5,32.2c2.5,2.8,5,5.4,9,5.7c9.8,0.7,14.8-10.7,8.8-18c-4.5-5.4-9.4-10.6-14-15.8
	c-3.7-4.2-7.4-8.4-11.1-12.5c2.5-0.9,4.9-1.8,7.4-2.6c8.4,8,16.7,16,25.1,24c2.2,2.1,4.3,4,7.4,4.6c7.7,1.4,14.3-5.8,12.4-13.3
	c-0.8-3-2.8-4.9-5-6.9c-2.6-2.5-5.2-5-7.8-7.5c-2.9-2.8-5.8-5.5-8.7-8.3c3.3-1,6.7-1.9,10.1-2.7c7.2,4.9,14.4,9.9,21.6,14.8
	c1.1,0.8,2.2,1.6,3.4,2.2c4.9,2.4,11.1,0.7,13.9-4c2.8-4.8,1.6-10.8-2.7-14.2c-1.3-1-2.7-1.9-4.1-2.8c-1-0.7-2-1.4-3-2.1
	c3.7-0.6,7.4-1.1,11.2-1.5c0.6-0.1,1.2-0.1,1.8-0.2c0.2,0,0.7-0.1,1-0.1c0.6,0,1.1-0.1,1.7-0.1c2.2-0.1,4.3-0.3,6.3-1.4
	c8.6-4.8,6.3-18.1-3.2-19.9c-3.3-0.6-7.1,0.1-10.4,0.4c-5.2,0.5-10.5,1.3-15.7,2.2c0.5-0.9,1-1.9,1.4-2.8c2.7-5.2,6.7-10.9,3.6-16.9
	c-2.6-5-8.8-7.2-13.9-4.8c-2.6,1.2-4.3,3.2-5.5,5.6c-2.4,4.7-4.8,9.3-7.2,14c-1.8,3.6-3.7,7.2-5.5,10.7c-2.9,0.8-5.8,1.5-8.7,2.4
	c0.8-2.5,1.7-5,2.5-7.5c1.2-3.6,2.4-7.2,3.6-10.9c0.7-2.1,1.6-4.3,1.9-6.6c0.8-8.2-8-14.1-15.3-10.7c-3.5,1.6-5.1,4.8-6.2,8.2
	c-2.2,6.7-4.4,13.4-6.6,20.1c-1.7,5.1-3.4,10.2-5,15.2c-1.9,0.7-3.9,1.3-5.8,2c2.1-11.3,4.2-22.6,6.3-33.9c0.6-3.2,0.3-6.1-1.6-8.9
	c-2.6-3.7-7.3-5.4-11.7-4.2c-4.7,1.3-7,5.2-7.9,9.7c-1.6,8.6-3.2,17.2-4.8,25.7c-1.3,6.9-2.6,13.8-3.8,20.6
	c-3.3,1.4-6.5,2.7-9.7,4.2c2.1-15.3,4.3-30.6,6.3-46c1-8.2-6.8-15-14.7-11.7c-5.2,2.2-6.3,7-7,11.9c-1.5,10.7-2.9,21.4-4.4,32.1
	c-1.1,8.2-2.3,16.4-3.4,24.6c-2.2,1.1-4.4,2.2-6.6,3.3c0.7-16.3,1.4-32.7,2-49c0.1-2.1,0-4.1-0.9-6c-2.4-5.3-8.8-7.9-14.2-5.5
	c-5.3,2.4-6.3,7.3-6.5,12.5c-0.5,11.2-0.9,22.3-1.4,33.5c-0.4,8.8-0.7,17.6-1.1,26.3c-5,2.8-10,5.7-15,8.7
	c-0.5-18.6-1-37.2-1.5-55.8c0-1.5,0-3.1-0.3-4.5c-1.6-6.4-8.8-9.9-14.9-7.2c-5.8,2.6-6.4,8-6.2,13.4c0.3,12.5,0.7,25,1,37.5
	c0.3,9.9,0.5,19.9,0.8,29.8c-3,2-6,3.9-9,5.9C94.1,95,90.3,75.5,86.5,56c-0.2-0.8-0.3-1.7-0.5-2.5c-1.6-6.5-8.3-10.3-14.6-7.7
	c-4.9,2-7.2,7.1-6.4,12.2c0.2,1,0.4,2,0.6,3.1c2.4,12.5,4.9,25.1,7.3,37.6c1.9,9.7,3.8,19.5,5.7,29.2c-2.6,1.9-5.2,3.7-7.7,5.6
	c-7.4-18.8-14.7-37.6-22.1-56.4c-0.5-1.3-1-2.6-1.5-3.8c-2.2-4.9-7.8-7.7-13-6c-0.2,0-0.3,0.1-0.4,0.2c-0.3,0.1-0.5,0.2-0.8,0.3
	c-5.6,2.6-7.4,8.8-5.3,14.3c0.4,1,0.7,1.9,1.1,2.8c2,5.1,4,10.3,6,15.4c5.3,13.6,10.7,27.2,16,40.8c0.8,2,1.5,3.9,2.3,5.9
	c-2.9,2.2-5.7,4.5-8.6,6.8c-7.9-13.8-15.8-27.5-23.6-41.3c-0.3-0.6-0.6-1.1-1-1.7c-2.9-4.6-8.2-6.8-13.4-4.8
	c-6.8,2.7-8.2,10.3-4.8,16.2c4.8,8.4,9.6,16.8,14.4,25.2c3.9,6.7,7.7,13.4,11.6,20.2c-4.1,3.4-8.1,6.9-12.1,10.5
	c-4.5,4.1-5.8,10.7-1.6,15.6c4,4.7,10.7,4.7,15.4,1c4.2-3.4,8.2-7,12.3-10.6c14.2,11.6,28.4,23.2,42.6,34.9c3.5,2.9,7,5.4,12,4
	C101.9,221.3,105.3,215.3,103.7,209.7z"/>
<g>
</g>
<g>
</g>
<g>
</g>
<g>
</g>
<g>
</g>
<g>
</g>
<g>
</g>
<g>
</g>
<g>
</g>
<g>
</g>
<g>
</g>
<g>
</g>
<g>
</g>
<g>
</g>
<g>
</g>
</svg>
