<?xml version="1.0" encoding="utf-8"?>
<!-- Generator: Adobe Illustrator 18.0.0, SVG Export Plug-In . SVG Version: 6.00 Build 0)  -->
<!DOCTYPE svg PUBLIC "-//W3C//DTD SVG 1.1//EN" "http://www.w3.org/Graphics/SVG/1.1/DTD/svg11.dtd">
<svg version="1.1" id="Layer_1" xmlns="http://www.w3.org/2000/svg" xmlns:xlink="http://www.w3.org/1999/xlink" x="0px" y="0px"
	 viewBox="0 0 936.8 347.1" enable-background="new 0 0 936.8 347.1" xml:space="preserve">
<path opacity="0.88" fill="#FFFFFF" d="M864.5,347.1H72.2C32.3,347.1,0,314.8,0,274.9V72.2C0,32.3,32.3,0,72.2,0h792.3
	c39.9,0,72.2,32.3,72.2,72.2v202.7C936.8,314.8,904.4,347.1,864.5,347.1z"/>
<g>
	<path fill="#58595B" d="M72.3,91.7L71,93c-1.1-1.7-2.6-3.5-4.5-5.5l1.3-1.2C69.5,88.2,71.1,89.9,72.3,91.7z M72.2,96.5
		c-1.2,4.6-2.5,9-3.9,13.1l-1.7-0.7c1.5-4.3,2.9-8.6,4-13L72.2,96.5z M73,83l-1.3,1.3c-1.2-1.7-2.7-3.5-4.7-5.3l1.3-1.2
		C70.2,79.5,71.7,81.2,73,83z M77.8,81v-3.6h1.8V81h4.5v1.7h-4.5v3.5h3.5v12.5h-3.5v3.9H84v1.7h-4.4v5.8h-1.8v-5.8H73v-1.7h4.8v-3.9
		h-3.5V86.2h3.5v-3.5h-4.4V81H77.8z M81.4,91.7v-3.9H76v3.9H81.4z M81.4,93.2H76v3.9h5.3V93.2z M92.4,77.2c1.3,3,3.6,5.6,6.9,7.9
		l-1,1.6c-3-2.1-5.3-4.7-6.8-7.8c-1.8,3.4-4.1,6-6.9,7.8l-1-1.6c3-2,5.3-4.7,6.9-7.9H92.4z M85.5,108.1l1.9,0.1
		c0.9,0,1.4-0.5,1.4-1.6v-5.4c-1.2,1.5-2.5,2.8-3.9,4l-0.7-1.6c1.8-1.4,3.3-3,4.6-4.8v-9.5h-3.8v-1.7h5.5v19.5
		c0,1.7-0.9,2.6-2.7,2.6h-1.8L85.5,108.1z M87.6,97.7l-1.2,0.6c-0.5-2.3-1.1-4.3-1.8-6.1l1.2-0.4C86.5,93.6,87.1,95.6,87.6,97.7z
		 M92.7,108.1l2.1,0.1c0.8,0,1.2-0.5,1.2-1.5v-6c-1.3,1.5-2.7,2.9-4.4,4.2l-0.7-1.6c1.9-1.3,3.6-2.9,5.1-4.8v-9h-4.1v-1.7h5.8v19.5
		c0,1.7-0.9,2.5-2.5,2.5h-2L92.7,108.1z M94.7,97.4L93.4,98c-0.5-2.4-1.1-4.4-1.7-6.2l1.2-0.4C93.6,93.3,94.2,95.3,94.7,97.4z"/>
	<path fill="#58595B" d="M137.6,78.7v1.9h-10.1v7h8.1v11.8h-8.1v7.4h10.7v1.9h-31.7v-1.9H117v-7.4h-8V87.6h8v-7h-10.1v-1.9H137.6z
		 M125.6,97.6h8.1v-8.1h-8.1v-8.9H119v8.8h-8v8.2h8v9.2h6.6V97.6z"/>
	<path fill="#58595B" d="M146.6,109.6l-0.4-1.9c1,0.1,2,0.1,2.8,0.1c1.1,0,1.6-0.6,1.6-1.7v-9.6c-1.6,0.7-3.2,1.3-4.8,1.8l-0.5-2
		c1.8-0.5,3.6-1.1,5.3-1.8v-8.7H146v-1.9h4.6v-6.8h1.9v6.8h4.4v1.9h-4.4v7.9c1.4-0.7,2.9-1.5,4.2-2.3v1.9c-1.4,0.8-2.8,1.6-4.2,2.2
		v11c0,2-1,2.9-2.9,2.9H146.6z M175.2,92.7v1.8c-1.2,3.5-3.1,6.6-5.8,9.1c2.5,1.8,5.6,3.4,9.3,4.8l-1,1.7c-3.8-1.5-7-3.3-9.6-5.2
		c-2.8,2.2-6.4,4-10.5,5.3l-1-1.6c4-1.3,7.4-2.9,10-4.9c-2.9-2.6-4.8-5.5-5.8-8.8h-2.3v-1.9H175.2z M172.8,78.7v8
		c0,0.9,0.5,1.4,1.5,1.4h3.2v1.8h-3.6c-2,0-3-1-3-2.9v-6.4h-7.6V83c0,3.3-1.7,5.9-4.9,7.8l-1.3-1.5c2.9-1.4,4.3-3.4,4.3-6v-4.5
		H172.8z M167.8,102.4c2.5-2.2,4.3-4.8,5.5-7.7h-10.9C163.4,97.6,165.2,100.2,167.8,102.4z"/>
	<path fill="#58595B" d="M196,85.9v1.7h-10.3v-1.7H196z M198.3,106.5c-2.7,1.5-6.6,2.7-11.7,3.6l-0.9-1.6c5.1-0.9,9-2,11.6-3.4
		L198.3,106.5z M195.2,79.3v1.7h-8.7v-1.7H195.2z M213,90.8v13.8h-22.9V90.8H213z M211.1,95v-2.6H192V95H211.1z M211.1,98.9v-2.5
		H192v2.5H211.1z M211.1,100.3H192v2.7h19.1V100.3z M197.2,85.1l-1.1-1.4c2.7-1.8,4.5-4,5.5-6.6l1.8,0.2c-0.3,0.7-0.6,1.4-0.9,2.1
		h13.2v1.4c-0.9,1.9-2,3.5-3.2,4.8l-1.4-1.1c0.9-1,1.7-2.2,2.5-3.5h-12.2C200.3,82.5,198.9,83.9,197.2,85.1z M207.8,82.2
		c-0.1,0.6-0.4,1.2-0.6,1.7c2.7,2.9,6.1,4.5,10.3,5.1l-0.8,1.7c-4.1-0.7-7.5-2.5-10.3-5.4c-1.7,2.5-4.5,4.2-8.5,5l-0.9-1.4
		c5.1-0.9,8.2-3.3,9.1-7L207.8,82.2z M217.3,108.6l-0.6,1.6c-3.8-1.5-7.9-2.7-12.1-3.5l0.7-1.4C209.5,106.1,213.4,107.2,217.3,108.6
		z"/>
	<path fill="#58595B" d="M243.1,96.2v1.9h-18.2v-1.9H243.1z"/>
	<path fill="#58595B" d="M251.1,91.5l-1.1-1.8c6.9-2.5,11.9-5.6,14.9-9.4h-7.3v-1.8h10.1c2.9,4.4,7.9,8,15,10.7l-1.3,1.8
		c-6.5-2.6-11.4-6.1-14.7-10.4c-2.3,3.3-5.6,6.1-10,8.5h19.4v1.9h-8.6v7h10.7v1.9h-10.7v7.3h13.9v1.9h-29.8V107h13.8v-7.3h-10.8
		v-1.9h10.8v-7h-8.9v-1.9C254.9,89.8,253.1,90.7,251.1,91.5z"/>
	<path fill="#58595B" d="M301.3,79.7v1.8h-4.5v9.1h3.8v1.8h-3.8v8.2c1.6-0.6,3.1-1.4,4.7-2.2v1.9c-3.5,1.8-7.3,3.4-11.4,4.5
		l-0.5-1.9c1.8-0.5,3.6-1,5.3-1.6v-8.9h-4.4v-1.8h4.4v-9.1H290v-1.8H301.3z M308.5,99c-2.1,2.7-4.6,5.2-7.7,7.3l-0.8-1.8
		c3.1-2,5.7-4.3,8-7.2L308.5,99z M310.4,83.6v-6.4h1.9v6.4h8.8v1.9h-8.8v3.5c0.6,2,1.3,4,2.2,5.8c1.8-1.9,3.4-4,4.8-6.3l1.5,1.1
		c-1.8,2.7-3.6,5-5.5,6.9c1.9,3.5,4.3,6.6,7.3,9.2l-1.3,1.6c-4-3.7-7-8.2-9-13.6v13.5c0,1.7-0.9,2.6-2.6,2.6h-4.2l-0.4-1.8
		c1.4,0.1,2.6,0.1,3.9,0.1c0.9,0,1.4-0.5,1.4-1.4V85.4H302v-1.9H310.4z M307.6,94.9l-1.4,1c-1-1.9-2.3-3.9-4-6.1l1.5-1
		C305.4,91.1,306.7,93.2,307.6,94.9z M320.4,82.1l-1.2,1.2c-1.2-1.4-2.7-2.9-4.7-4.5l1.2-1.1C317.5,79.1,319.1,80.6,320.4,82.1z"/>
	<path fill="#58595B" d="M339,78c-0.8,2.4-1.7,4.7-2.7,6.8v25.4h-1.9v-22c-1.4,2.1-2.9,4.1-4.5,5.9l-0.6-1.9c3.8-4.4,6.5-9.4,8.2-15
		L339,78z M348.5,106.8c-2.1,1.3-5.1,2.3-8.9,3.1l-0.9-1.5c3.9-0.7,6.8-1.7,8.8-2.9L348.5,106.8z M362,78.7v1.7h-7.3v2.7h5.8v6.6
		h-19.6v-6.6h6v-2.7h-6.5v-1.7H362z M359.5,91.8v13.4h-17.6V91.8H359.5z M347.1,84.6h-4.5v3.6h4.5V84.6z M357.7,95.9v-2.6h-14v2.6
		H357.7z M357.7,99.7v-2.5h-14v2.5H357.7z M357.7,101h-14v2.6h14V101z M352.9,80.4h-4.3v2.7h4.3V80.4z M352.9,84.6h-4.3v3.6h4.3
		V84.6z M362.3,108.5l-0.6,1.5c-2.8-1.4-5.7-2.4-8.7-3.1l0.7-1.3C356.7,106.2,359.5,107.2,362.3,108.5z M358.8,84.6h-4.3v3.6h4.3
		V84.6z"/>
	<path fill="#58595B" d="M369.7,94.2l-0.6-2.1c3.6-4.4,6.1-9.5,7.7-15.1l1.8,0.8c-0.7,2.3-1.6,4.5-2.6,6.6v25.7h-1.9v-22
		C372.8,90.3,371.3,92.3,369.7,94.2z M388.6,80.7c0.2-1.2,0.4-2.4,0.5-3.6l1.9,0.3c-0.1,1.2-0.3,2.3-0.5,3.4h10.1v1.8h-10.4
		c-0.3,1.2-0.5,2.3-0.8,3.4h8.8V107h3.6v1.8H378V107h3.8V85.9h5.6c0.3-1.2,0.6-2.3,0.8-3.4h-8.7v-1.8H388.6z M396.2,91.5v-3.8h-12.5
		v3.8H396.2z M396.2,96.7v-3.5h-12.5v3.5H396.2z M396.2,101.9v-3.5h-12.5v3.5H396.2z M396.2,107v-3.5h-12.5v3.5H396.2z"/>
	<path fill="#58595B" d="M421.4,107c0,1.9-0.9,2.9-2.6,2.9h-3.1l-0.5-1.7c1.1,0,2.1,0.1,3,0.1c0.9,0,1.4-0.6,1.4-1.8v-9.1
		c-2,0.5-4.2,0.9-6.6,1.2c-0.3,4.7-1.3,8.6-3,11.7l-1.4-1.3c1.8-3.4,2.7-7.7,2.8-12.9V78.6h10.1V107z M419.5,95.5v-5.4
		c-2.1-0.6-4.2-1-6.5-1.4v7c0,0.3,0,0.6,0,0.9C415.4,96.3,417.6,95.9,419.5,95.5z M419.5,88.4v-8H413V87
		C415.3,87.4,417.4,87.8,419.5,88.4z M438.7,92.7v1.8c-1,3.6-2.7,6.6-5.1,9.1c2.2,1.8,4.9,3.4,8.2,4.7l-1,1.7
		c-3.4-1.5-6.2-3.2-8.5-5.1c-2.4,2.1-5.3,3.8-8.7,5l-1-1.6c3.3-1.2,6.1-2.8,8.3-4.7c-2.6-2.6-4.4-5.6-5.3-8.9h-1.9v-2H438.7z
		 M436.8,78.7v8.2c0,0.7,0.4,1,1.2,1h3v1.9h-3.5c-1.8,0-2.7-0.9-2.7-2.6v-6.6H428v2.6c0,3.4-1.2,6-3.6,7.8l-1.3-1.5
		c1.9-1.4,3-3.5,3-6.1v-4.7H436.8z M432.1,102.3c2.1-2.2,3.7-4.8,4.7-7.7h-9.5C428.1,97.5,429.7,100.1,432.1,102.3z"/>
	<path fill="#58595B" d="M480.6,78.7v1.7h-10.9v3.4h8.1v7.7h-26.3v-7.7h8.1v-3.4h-10.9v-1.7H480.6z M480,99.4v1.7h-14v8.8h-1.9V101
		h-14.8v-1.7H480z M459.9,104c-2.5,2.1-5.5,3.9-9.1,5.5l-1.2-1.5c3.5-1.5,6.5-3.2,9-5.2L459.9,104z M476.7,94.5v1.7h-23.8v-1.7
		H476.7z M459.6,85.4h-6.2v4.3h6.2V85.4z M467.8,80.4h-6.3v3.4h6.3V80.4z M467.8,85.4h-6.3v4.3h6.3V85.4z M475.9,85.4h-6.2v4.3h6.2
		V85.4z M480.4,108.2l-1.4,1.3c-2.1-1.7-4.9-3.6-8.5-5.5l1.3-1.2C475.2,104.6,478.1,106.4,480.4,108.2z"/>
	<path fill="#58595B" d="M495.8,80V77h2V80h13V77h1.9V80h6.6v1.7h-6.6v12.5h7.2v1.7h-8c1.8,2.5,4.7,4.4,8.5,5.8l-0.8,1.7
		c-4.5-1.9-7.8-4.4-9.6-7.5h-11.6c-1.8,3.1-4.9,5.6-9.2,7.6l-1-1.6c3.8-1.6,6.6-3.6,8.3-6h-8v-1.7h7.2V81.7h-6.6V80H495.8z
		 M505.2,97.4v3.1h7.5v1.8h-7.5v4.6h12.6v1.8h-27.3v-1.8h12.8v-4.6h-7.6v-1.8h7.6v-3.1H505.2z M510.8,84.8v-3.1h-13v3.1H510.8z
		 M510.8,89.4v-3h-13v3H510.8z M510.8,94.2V91h-13v3.1H510.8z"/>
	<path fill="#58595B" d="M544.7,77.5c3.5,4.4,8.7,8,15.4,10.9L559,90c-6.3-2.7-11.3-6.2-15.1-10.7c-4.2,4.5-9.3,8.1-15.2,10.7
		l-1.1-1.6c6.3-2.9,11.4-6.5,15.5-11H544.7z M553.3,87.4v1.8h-8.4V95H558v1.8h-13.1v10.3h4.5c1.4-2.5,2.5-5.1,3.5-7.9l1.8,0.7
		c-1,2.7-2.1,5.2-3.3,7.3h7.9v1.9h-30.7v-1.9h7.8c-0.8-2.5-1.9-4.8-3.2-7l1.8-0.7c1.2,2.1,2.3,4.7,3.3,7.7h4.7V96.8h-13.1V95h13.1
		v-5.8h-8.4v-1.8H553.3z"/>
	<path fill="#58595B" d="M578.4,80.7l10.3,25.8h-2.4l-3-7.7h-12.4l-3,7.7h-2.4l10.3-25.8H578.4z M582.6,96.9l-5.4-13.8H577
		l-5.5,13.8H582.6z"/>
	<path fill="#58595B" d="M608,87.8v1.7l-12.1,15.1h12.6v1.9h-15.4v-1.7l12-15.1h-11.7v-1.9H608z"/>
	<path fill="#58595B" d="M631.5,80.2v26.3h-2.1v-3.7c-1.3,2.8-3.5,4.2-6.5,4.2c-2.7,0-4.8-1-6.3-3c-1.4-1.8-2.1-4.1-2.1-6.9
		c0-2.7,0.7-5,2.1-6.8c1.5-2,3.6-3,6.2-3c3,0,5.2,1.5,6.5,4.4V80.2H631.5z M618.3,91.6c-1,1.4-1.6,3.2-1.6,5.6s0.5,4.2,1.5,5.6
		c1.1,1.6,2.7,2.4,4.9,2.4c2,0,3.6-0.8,4.7-2.3c1-1.4,1.6-3.2,1.6-5.4V97c0-2.3-0.6-4.2-1.7-5.6c-1.2-1.5-2.7-2.2-4.5-2.2
		C621,89.2,619.4,90,618.3,91.6z"/>
	<path fill="#58595B" d="M653,91.2c0.6-1.3,1.5-2.2,2.5-2.9c0.9-0.7,2.1-1,3.4-1c2,0,3.5,0.6,4.7,1.8c1.1,1.2,1.7,2.9,1.7,5.1v12.2
		h-2.2V94.6c0-1.8-0.4-3.1-1.1-4c-0.8-0.9-2.1-1.4-3.7-1.4c-1.4,0-2.5,0.5-3.4,1.6c-0.9,1-1.4,2.3-1.4,3.9v11.9h-2.2V94.6
		c0-3.6-1.6-5.4-4.7-5.4c-1.4,0-2.6,0.5-3.5,1.7c-1,1.1-1.4,2.5-1.4,4.1v11.5h-2.2V87.8h2.2v2.8c1.3-2.2,3.1-3.3,5.4-3.3
		C650.1,87.3,652,88.6,653,91.2z"/>
	<path fill="#58595B" d="M686.6,89c1.4,1.1,2.3,2.7,2.6,5H687c-0.3-1.6-0.9-2.7-1.9-3.5c-1-0.8-2.3-1.2-4-1.2
		c-1.9,0-3.5,0.8-4.7,2.3c-1.2,1.4-1.7,3.4-1.7,5.8c0,2.4,0.5,4.3,1.6,5.7c1.1,1.4,2.7,2.1,4.7,2.1c3.5,0,5.5-1.8,6-5.3h2.1
		c-0.4,2.3-1.3,4.2-2.7,5.4c-1.4,1.2-3.2,1.8-5.5,1.8c-2.7,0-4.9-0.9-6.4-2.8c-1.4-1.7-2.1-4-2.1-6.9c0-2.8,0.7-5.2,2.2-7
		c1.6-2,3.7-3,6.4-3C683.4,87.3,685.2,87.9,686.6,89z"/>
	<path fill="#58595B" d="M704,80.7v25.8h-2.2v-23c-1.7,1.8-3.7,3.1-6.2,3.8V85c1.2-0.4,2.4-0.9,3.5-1.6c1.2-0.8,2.2-1.7,3.1-2.7H704
		z"/>
	<path fill="#58595B" d="M721.3,76.6c-1.4,2.3-2.6,4.8-3.4,7.5c-1,3.2-1.6,6.3-1.6,9.4c0,3,0.5,6.2,1.6,9.4c0.8,2.6,2,5.1,3.4,7.5
		h-2c-1.5-2.3-2.7-4.8-3.6-7.4c-1-3.2-1.6-6.3-1.6-9.4c0-3.1,0.5-6.2,1.6-9.4c0.9-2.7,2.1-5.2,3.6-7.5H721.3z"/>
	<path fill="#58595B" d="M744.5,80.8l0.4-3.9l2,0.3c-0.1,1.3-0.3,2.5-0.4,3.6h14.8v1.9h-15.1c-0.3,1.4-0.5,2.8-0.8,4.1h13.9v20
		c0,2-1,3-2.9,3h-3.6l-0.5-1.9l3.5,0.1c1.1,0,1.6-0.5,1.6-1.6V88.6h-23.9V110h-1.9V86.7h12c0.3-1.4,0.5-2.7,0.8-4.1h-14.8v-1.9
		H744.5z M743.2,94.9h4.1c0.9-1.6,1.7-3.2,2.4-4.9l1.8,0.7c-0.7,1.6-1.4,3-2.3,4.3h4.6v1.8h-7.5v4.3h8.6v1.7h-8.6v6.8h-2v-6.8h-8.6
		V101h8.6v-4.3H737v-1.8h4.3c-0.5-1.4-1.2-2.8-2.1-4.1l1.8-0.6C741.8,91.4,742.6,93,743.2,94.9z"/>
	<path fill="#58595B" d="M779.9,83.1v-6h2v17.5c-0.1,7-2.1,12.1-6.2,15.4l-1.5-1.3c2.6-2,4.3-4.9,5.1-8.6c-3.2,0.8-6.5,1.5-10.1,2.1
		l-0.5-1.9c3.8-0.5,7.5-1.2,10.9-2.1c0.1-1.2,0.2-2.3,0.3-3.6V93h-9.6v-1.9h9.6v-6.2h-10.4v-1.8H779.9z M790.1,77.1v6h10.4v1.8
		h-10.4v6.2h9.6V93h-9.6v6.4h11v1.8h-11v8.8h-1.9V77.1H790.1z"/>
	<path fill="#58595B" d="M821,95l-0.4-1.6l1.8,0.1c0.7,0,1-0.4,1-1.2V84h-5v10.8h-1.6V84h-5.2V95H810V82.3h6.8v-5.2h1.7v5.2h6.6
		v10.4c0,1.5-0.8,2.3-2.2,2.3H821z M814.6,81.2l-1.4,0.7c-0.8-1.4-1.6-2.7-2.5-3.8l1.5-0.7C813.1,78.5,813.9,79.8,814.6,81.2z
		 M831.4,107.9l-0.5-1.9l3.2,0.1c0.9,0,1.4-0.4,1.4-1.3v-4.9h-9.9V110h-2V99.9h-9.9v7.6h-2v-9.4h11.8v-2.9h2v2.9h11.8v7.1
		c0,1.7-0.9,2.6-2.7,2.6H831.4z M815.4,86.1c-0.1,2.3-0.5,4.4-1.2,6.2l-1.4-0.5c0.7-1.7,1-3.7,1.2-5.9L815.4,86.1z M822.3,90.6
		l-1.4,0.4c-0.4-1.7-0.8-3.4-1.3-4.9l1.2-0.4C821.4,87.1,821.9,88.8,822.3,90.6z M824.5,78c-0.6,1.3-1.4,2.6-2.3,3.9l-1.5-0.8
		c0.9-1.3,1.7-2.6,2.3-3.8L824.5,78z M826.9,87.7l-1.1-1.4c2.3-2.5,3.9-5.5,4.8-9.1l1.8,0.2c-0.3,1.2-0.7,2.4-1.1,3.5h8.8v1.7h-1.7
		c-0.8,3-2,5.5-3.6,7.5c1.8,1.4,3.9,2.7,6.2,3.9l-0.9,1.6c-2.5-1.3-4.7-2.7-6.5-4.2c-1.7,1.7-3.8,2.9-6.2,3.8l-0.9-1.5
		c2.3-0.8,4.3-1.9,5.8-3.4c-1.2-1.2-2.2-2.3-3-3.6l0.9-1.3c0.9,1.3,2,2.5,3.3,3.6c1.4-1.8,2.5-3.9,3.1-6.4h-6.1
		C829.5,84.5,828.3,86.2,826.9,87.7z"/>
	<path fill="#58595B" d="M855.8,86.4v1.6c-1.2,2.2-2.5,4.3-4,6.4h4.3v1.3c-0.6,3.2-1.3,5.8-2.2,7.9c0.4,0.1,0.7,0.4,1.1,0.8
		c1.2,1.1,2.4,1.9,3.8,2.6c1.3,0.5,3.1,0.8,5.3,0.8c2.1,0,4.5,0,7.2,0c2.4,0,5.6-0.1,9.5-0.1l-0.4,1.9h-8.8c-3,0-5.6,0-7.6-0.1
		c-2.6-0.1-4.7-0.4-6-1c-1.6-0.7-3-1.6-4.3-2.9c-0.3-0.3-0.7-0.4-0.9-0.4c-0.8,0-1.9,1.6-3.2,4.8l-1.4-1.3c1.4-3.2,2.7-4.9,4-5.4
		c0.9-2.1,1.6-4.5,2.2-7.3h-4.7v-1.5c1.6-2.1,3-4.2,4.2-6.3h-5.4v-1.8H855.8z M855.9,82.5l-1.3,1.3c-1.3-1.5-3.1-3.1-5.4-4.8
		l1.3-1.2C852.6,79.4,854.4,80.9,855.9,82.5z M857.8,103.7l-1.3-1.2c1.8-3.8,2.7-8.8,2.7-14.8v-8.6h8.6V89h-6.9
		C860.7,94.7,859.7,99.6,857.8,103.7z M860.8,80.9v6.5h5.2v-6.5H860.8z M868.4,92.6v11.5h-6.9V92.6H868.4z M866.8,94.1h-3.8v8.4h3.8
		V94.1z M869.4,91.4v-1.7h6.4c0.9-1.9,1.5-3.8,1.9-5.8l1.6,0.2c-0.4,2.1-1,4-1.8,5.7h3.3v1.7h-4.7V96h4.1v1.7h-4.1v7.3h-1.8v-7.3
		h-4.2V96h4.2v-4.6H869.4z M876,80.7h4.5v1.7h-11v-1.7h4.8c-0.4-1.2-0.8-2.3-1.3-3.3l1.8-0.3C875.2,78.2,875.6,79.4,876,80.7z
		 M874,88.2l-1.4,0.6c-0.6-1.6-1.2-3.1-1.9-4.3l1.4-0.6C872.8,85.3,873.5,86.7,874,88.2z"/>
	<path fill="#58595B" d="M77.7,132.9v1.6c-1,3.4-2.2,6.9-3.5,10.5c2.1,3,3.2,5.7,3.3,8.3c0,1.4-0.4,2.5-1,3.2
		c-0.9,0.8-2.5,1.2-4.7,1.3l-0.6-1.9c0.4,0,0.8,0.1,1,0.1c1.3-0.1,2.2-0.3,2.7-0.7c0.4-0.4,0.7-1,0.7-1.9c0-2.4-1.1-5.1-3.3-8.1
		c1.5-3.9,2.7-7.4,3.5-10.5h-6v29.4h-2v-31.3H77.7z M78,164l-1.4-1.2c3-2.2,5.3-5.3,6.9-9.2l1.7,0.6c-0.4,1-0.9,2-1.4,2.8
		c1.5,1,2.7,2,3.8,3l-1.2,1.2c-0.9-0.9-2-1.9-3.4-2.9C81.5,160.7,79.8,162.6,78,164z M78.1,141.3l-1-1.6c4.4-2.1,7.7-4.8,10.1-8.1
		h1.7c1.9,3,5.3,5.7,10.1,8l-1,1.6c-4.5-2.1-7.8-4.7-10-7.8c-1.7,2.2-3.7,4.1-6,5.6h11.8v1.7H82v-1.7
		C80.8,139.9,79.5,140.7,78.1,141.3z M86.9,143.9v8.5h-7.7v-8.5H86.9z M85.3,145.5h-4.4v5.3h4.4V145.5z M87.7,164l-1.3-1.2
		c2.9-2.2,5.2-5.2,6.7-9l1.6,0.7c-0.5,1.1-1,2.2-1.6,3.1c2.3,1.6,4.3,3.2,5.9,4.8l-1.3,1.3c-1.4-1.5-3.2-3.1-5.4-4.7
		C91,161,89.4,162.7,87.7,164z M97.3,143.9v8.5h-7.7v-8.5H97.3z M95.7,145.5h-4.4v5.3h4.4V145.5z"/>
	<path fill="#58595B" d="M105.4,134.4c3.9-0.4,7.3-1.3,10.3-2.4l0.6,1.7c-1.4,0.5-2.9,1-4.4,1.4v6.4h3.7v1.7H112v2.1
		c1.4,1.7,2.9,3.5,4.4,5.6l-1,1.6c-1.3-2.3-2.4-4.1-3.4-5.5v17.1h-1.8v-17c-1.1,3.5-2.6,6.6-4.5,9.4l-0.8-2
		c2.5-3.3,4.2-7.1,5.2-11.3h-4.5v-1.7h4.6v-6c-1.4,0.3-2.9,0.5-4.4,0.7L105.4,134.4z M119.8,157.2c-0.7,2.6-1.6,4.8-2.9,6.7
		l-1.5-0.9c1.2-1.8,2.1-3.9,2.7-6.1L119.8,157.2z M121,138.6c-0.6-1.1-1.2-2-1.8-2.9l1.5-0.6c0.8,1.1,1.4,2.2,2,3.5h4.1
		c-0.6-1.1-1.2-2.1-1.8-3l1.6-0.6c0.7,1.2,1.4,2.3,1.9,3.6h2.7c0.7-1.2,1.4-2.6,1.9-4.3l1.7,0.4c-0.5,1.4-1.1,2.7-1.8,3.8h2.7v1.6
		h-7.8v2.6h8.8v1.6h-19.4v-1.6h8.7v-2.6h-7.7v-1.6H121z M118.6,155.3v-1.5h14.6v-2.3h-15.7v-1.4h15.7v-2.2h-14.3v-1.5H135v3.6h2.8
		v1.6H135v3.7H118.6z M136.5,133.1c-4.6,1-10.7,1.5-18.2,1.5l-0.5-1.6c7.3,0,13.3-0.5,17.9-1.4L136.5,133.1z M124.4,163.7
		c-1.7,0-2.6-0.8-2.6-2.2v-4.7h1.8v4.3c0,0.7,0.4,1.1,1.2,1.1h5c0.6,0,0.9-0.1,1.2-0.4c0.3-0.4,0.5-1.3,0.6-3l1.7,0.5
		c-0.1,2-0.5,3.3-1,3.8c-0.4,0.4-1.1,0.5-2.1,0.5H124.4z M129.7,159.2l-1.3,1c-0.7-1.2-1.6-2.5-2.7-3.9l1.3-0.8
		C128.1,156.9,129,158.1,129.7,159.2z M138.1,162.3l-1.3,1c-0.9-1.8-2-3.7-3.5-5.9l1.3-0.8C136,158.7,137.2,160.6,138.1,162.3z"/>
	<path fill="#58595B" d="M170.8,142.2v1.9h-9.4v7h11v1.9h-11v8.1c2.5,0.4,5.6,0.6,9.3,0.6c1.8,0,3.8-0.1,5.7-0.1l-0.4,1.9h-4.5
		c-7.1,0-12.2-0.7-15.2-2c-2.5-1.2-4.5-3.1-6-5.6c-1.4,3.3-3.2,6-5.3,8.3l-1.3-1.6c3.5-3.8,5.9-8.9,7.2-15.3l1.9,0.4
		c-0.5,2.3-1,4.4-1.7,6.3c1.7,3.4,4,5.5,6.6,6.3c0.5,0.1,1,0.3,1.6,0.4v-16.6h-9.7v-1.9H170.8z M174.8,142.5h-1.9V137h-25.1v5.6
		h-1.9v-7.5h14c-0.6-1.4-1.2-2.7-1.9-3.8l2.1-0.4c0.6,1.2,1.2,2.6,1.8,4.2h13.1V142.5z"/>
	<path fill="#58595B" d="M187.8,164.2l-1.5-1.4c2.5-3.3,3.8-7.4,3.8-12.5v-17.5h20v28.2c0,1.8-0.9,2.8-2.7,2.8h-4.7l-0.5-1.9
		c1.7,0,3.2,0.1,4.6,0.1c0.9,0,1.4-0.6,1.4-1.7v-7.8h-16.3C191.5,157.2,190.2,161.1,187.8,164.2z M208.2,134.7H192v7h16.1V134.7z
		 M192,150.7h16.1v-7.1H192V150.7z"/>
	<path fill="#58595B" d="M237.9,132.9v1.8h-4.9v4.9h4.2v24.1h-1.7V162h-11v1.9h-1.7v-24.3h4v-4.9H222v-1.8H237.9z M235.6,160.2v-9.6
		h-2.2c-1.4,0-2.1-0.7-2.1-2v-7.2h-2.7v2.8c0,3.8-0.9,6.6-2.6,8.4l-1-0.9c1.5-1.6,2.3-4,2.3-7.4v-2.8h-2.7v18.8H235.6z M233.8,154.4
		v1.7h-7.6v-1.7H233.8z M231.4,139.6v-4.9h-2.8v4.9H231.4z M235.6,141.4h-2.9v6.9c0,0.5,0.3,0.8,1,0.8h1.9V141.4z M253,161.5
		c-0.5,1.1-1.6,1.6-3.2,1.6h-6.6c-2,0-3-1-3-3.1V145h10.1v-10.3h-10.9v-1.8h12.7v13.9h-10v12.5c0,1.2,0.6,1.9,1.8,1.9h5.7
		c1.1,0,1.8-0.5,2.2-1.6c0.3-1,0.5-3,0.7-6.1l1.8,0.6C254,158,253.6,160.4,253,161.5z"/>
	<path fill="#58595B" d="M263.2,130.8c1.5,2.3,2.7,4.8,3.6,7.5c1,3.1,1.6,6.3,1.6,9.4c0,3.1-0.5,6.2-1.6,9.4
		c-0.9,2.6-2.1,5.1-3.6,7.4h-2c1.4-2.4,2.6-4.9,3.4-7.5c1-3.2,1.6-6.3,1.6-9.4c0-3.1-0.5-6.2-1.6-9.4c-0.9-2.7-2-5.2-3.4-7.5H263.2z
		"/>
	<path fill="#58595B" d="M297.8,130.8c-1.4,2.3-2.6,4.8-3.4,7.5c-1,3.2-1.6,6.3-1.6,9.4c0,3,0.5,6.2,1.6,9.4c0.8,2.6,2,5.1,3.4,7.5
		h-2c-1.5-2.3-2.7-4.8-3.6-7.4c-1-3.2-1.6-6.3-1.6-9.4c0-3.1,0.5-6.2,1.6-9.4c0.9-2.7,2.1-5.2,3.6-7.5H297.8z"/>
	<path fill="#58595B" d="M320,138.1v-6.8h2v6.8h14.4v1.9H324c2.5,6,7,11.3,13.4,16l-1.3,1.7c-6.6-5.2-11.2-11.1-13.7-17.7h-0.5v14.7
		h8v1.9h-8v7.6h-2v-7.6h-7.7v-1.9h7.7V140h-0.5c-2.7,7.4-7.4,13.4-14,18.1l-1.1-1.8c6.4-4.2,10.9-9.7,13.6-16.4h-12.4v-1.9H320z"/>
	<path fill="#58595B" d="M351.3,134.1v-2.9h2v2.9h13v-2.9h2v2.9h6.6v1.7h-6.6v12.5h7.2v1.7h-8c1.8,2.5,4.7,4.4,8.5,5.8l-0.8,1.7
		c-4.5-1.9-7.8-4.4-9.6-7.5H354c-1.8,3.1-4.9,5.6-9.2,7.6l-1-1.6c3.8-1.6,6.6-3.6,8.3-6h-8v-1.7h7.2v-12.5h-6.6v-1.7H351.3z
		 M360.8,151.6v3.1h7.5v1.8h-7.5v4.6h12.6v1.8H346v-1.8h12.8v-4.6h-7.6v-1.8h7.6v-3.1H360.8z M366.3,139v-3.1h-13v3.1H366.3z
		 M366.3,143.6v-3h-13v3H366.3z M366.3,148.3v-3.1h-13v3.1H366.3z"/>
	<path fill="#58595B" d="M399.5,131.6c3.5,4.4,8.7,8,15.4,10.9l-1.1,1.6c-6.3-2.7-11.3-6.2-15.1-10.7c-4.2,4.5-9.3,8.1-15.2,10.7
		l-1.1-1.6c6.3-2.9,11.4-6.5,15.5-11H399.5z M408,141.5v1.8h-8.4v5.8h13.1v1.8h-13.1v10.3h4.5c1.4-2.5,2.5-5.1,3.5-7.9l1.8,0.7
		c-1,2.7-2.1,5.2-3.3,7.3h7.9v1.9h-30.7v-1.9h7.8c-0.8-2.5-1.9-4.8-3.2-7l1.8-0.7c1.2,2.1,2.3,4.7,3.3,7.7h4.7V151h-13.1v-1.8h13.1
		v-5.8h-8.4v-1.8H408z"/>
	<path fill="#58595B" d="M437.4,132.9v1.8h-4.9v4.9h4.2v24.1h-1.7V162h-11v1.9h-1.7v-24.3h4v-4.9h-4.9v-1.8H437.4z M435.1,160.2
		v-9.6h-2.2c-1.4,0-2.1-0.7-2.1-2v-7.2h-2.7v2.8c0,3.8-0.9,6.6-2.6,8.4l-1-0.9c1.5-1.6,2.3-4,2.3-7.4v-2.8h-2.7v18.8H435.1z
		 M433.3,154.4v1.7h-7.6v-1.7H433.3z M430.9,139.6v-4.9h-2.8v4.9H430.9z M435.1,141.4h-2.9v6.9c0,0.5,0.3,0.8,1,0.8h1.9V141.4z
		 M452.5,161.5c-0.5,1.1-1.6,1.6-3.2,1.6h-6.6c-2,0-3-1-3-3.1V145h10.1v-10.3h-10.9v-1.8h12.7v13.9h-10v12.5c0,1.2,0.6,1.9,1.8,1.9
		h5.7c1.1,0,1.8-0.5,2.2-1.6c0.3-1,0.5-3,0.7-6.1l1.8,0.6C453.5,158,453.1,160.4,452.5,161.5z"/>
	<path fill="#58595B" d="M465.5,154.4c-0.9,3.3-2.1,6.2-3.7,8.6l-1.6-1.1c1.6-2.3,2.7-4.9,3.5-7.9L465.5,154.4z M473.2,134.1
		c0.5-1,0.9-2,1.2-3l2,0.3c-0.3,1-0.6,1.9-1.2,2.7h12.2v17.2h-22.2v-17.2H473.2z M485.6,139.3v-3.5h-18.4v3.5H485.6z M485.6,144.4
		V141h-18.4v3.4H485.6z M485.6,146h-18.4v3.6h18.4V146z M471.2,163.6c-1.8,0-2.7-0.9-2.7-2.7v-7.1h2v6.7c0,0.9,0.4,1.4,1.3,1.4h8.4
		c0.9,0,1.6-0.2,1.9-0.6c0.5-0.5,0.8-2.1,1-4.6l1.9,0.6c-0.2,3-0.7,4.8-1.4,5.5c-0.6,0.5-1.6,0.8-3,0.8H471.2z M480.2,157.7l-1.5,1
		c-1.2-1.6-2.7-3.3-4.7-5.2l1.4-0.9C477.5,154.5,479.1,156.2,480.2,157.7z M492.8,161.3l-1.6,1.1c-1.4-2.4-3.2-5.1-5.6-7.9l1.5-1
		C489.6,156.4,491.5,159,492.8,161.3z"/>
	<path fill="#58595B" d="M514.1,137.3h-13.5v-1.9h13.5v-4h2v4h13.6v1.9h-13.6v10.3c4,5.6,9.1,10,15.4,13.1l-1,1.8
		c-5.6-2.9-10.4-6.9-14.4-12v13.7h-2v-13.5c-3.5,4.9-8.3,8.9-14.2,12l-1-1.8c6.6-3.4,11.7-7.8,15.2-13.2V137.3z M501.3,151l-1.2-1.5
		c3.3-2.6,5.4-6.2,6.6-10.6l1.8,0.3c-0.5,2-1.2,3.7-2,5.3c1.8,1,3.5,2.3,5,3.7l-1.1,1.7c-1.6-1.6-3.2-2.8-4.8-3.8
		C504.4,148,503,149.6,501.3,151z M520,150l-1.2-1.5c2.8-2.3,4.7-5.5,5.7-9.5l1.8,0.3c-0.5,1.9-1.1,3.5-1.8,5c2,1.2,3.9,2.7,5.7,4.4
		l-1.1,1.7c-1.8-1.9-3.6-3.4-5.4-4.5C522.6,147.4,521.4,148.8,520,150z"/>
	<path fill="#58595B" d="M545.2,146.3l-1.3,1.3c-1.5-1.7-3.5-3.5-6.1-5.4l1.3-1.3C541.6,142.7,543.6,144.5,545.2,146.3z
		 M545.6,151.3c-1.7,4.5-3.5,8.8-5.5,12.8l-1.8-0.8c2.2-4.1,4.1-8.4,5.7-12.7L545.6,151.3z M546.3,137.7L545,139
		c-1.6-1.8-3.8-3.6-6.5-5.6l1.3-1.3C542.4,134,544.6,135.8,546.3,137.7z M558.6,138.5c0.5-1.2,0.9-2.5,1.1-3.9h-9.5V146
		c-0.1,7.5-1.5,13.6-4.1,18.1l-1.5-1.3c2.3-4,3.6-9.7,3.7-16.8v-13.1h21.3v1.8h-8.2c-0.3,1.3-0.6,2.6-1.2,3.9h7.3v12.3h-6.2v10.7
		c0,1.7-0.9,2.6-2.5,2.6h-3l-0.4-1.8c0.9,0.1,1.9,0.1,2.8,0.1c0.9,0,1.3-0.5,1.3-1.4v-10.3h-6.4v-12.3H558.6z M556.2,154
		c-0.9,3.2-2.3,6-4.1,8.3l-1.6-1c1.7-2.2,3-4.8,3.9-7.7L556.2,154z M566,143.9v-3.8H555v3.8H566z M566,145.5H555v3.7H566V145.5z
		 M570.1,161.6l-1.7,0.7c-1.2-3.1-2.6-5.8-4-8.2l1.7-0.5C567.6,156.1,569,158.7,570.1,161.6z"/>
	<path fill="#58595B" d="M608.8,133.6v1.9h-4.9v25.1c0,2.2-1.1,3.4-3.3,3.4h-6l-0.4-1.9c2,0.1,3.9,0.1,5.7,0.1c1.3,0,2-0.7,2-2.1
		v-24.6h-25.1v-1.9H608.8z M594.7,154.4H583v3.3h-1.9v-16.1h13.5V154.4z M592.8,152.6v-9.2H583v9.2H592.8z"/>
	<path fill="#58595B" d="M626.7,152.3c-1.3-0.3-2.6-0.5-3.8-0.7c-1.1-0.2-2.2-0.3-3.3-0.4v2.2c-0.1,4.5-1.1,8.2-3.1,10.9l-1.4-1.3
		c1.7-2.5,2.6-5.7,2.6-9.5v-9.2h12.8v17.5c0,1.5-0.9,2.3-2.5,2.3h-3.3l-0.5-1.8c1.2,0,2.2,0.1,3.2,0.1c0.8,0,1.2-0.4,1.2-1.3v-4.7
		c-2.6,0.5-5.3,1-8.3,1.4l-0.4-1.7c3-0.3,6-0.8,8.7-1.3V146h-9v3.6c1.7,0.2,3.1,0.4,4.2,0.5c0.9,0.1,2.1,0.3,3.5,0.6L626.7,152.3z
		 M632.9,141.7l-1.6,1.1c-0.4-0.8-0.9-1.7-1.4-2.5c-3.8,0.6-8.4,1.1-13.9,1.4l-0.5-1.7c0.4-0.1,0.7-0.3,0.9-0.5
		c2.3-2.2,4.3-5,5.9-8.2l1.8,0.5c-1.8,3.5-3.8,6.2-5.9,8.1c3.4-0.1,7-0.5,10.7-1c-0.8-1.3-1.7-2.6-2.6-3.9l1.5-1
		C630.2,137,631.8,139.6,632.9,141.7z M636.4,131.6v4.8l10-0.6v1.8l-10,0.7v5.4c0,0.9,0.5,1.4,1.4,1.4h9.1v1.8h-9.6
		c-2,0-2.9-1-2.9-2.9v-12.5H636.4z M637.2,163.6c-1.8,0-2.7-0.9-2.7-2.6v-12.5h1.9v4.2l10.1-0.6v1.8l-10.1,0.7v6
		c0,0.9,0.4,1.3,1.4,1.3h5.4c0.9,0,1.5-0.2,1.8-0.6c0.4-0.5,0.7-1.9,0.9-4.3l1.8,0.6c-0.2,2.9-0.7,4.6-1.3,5.3
		c-0.6,0.5-1.5,0.8-2.7,0.8H637.2z"/>
	<path fill="#58595B" d="M685.6,150.4c-0.1,6.6-0.5,10.5-1.3,11.8c-0.8,1.3-2.2,2-4.2,2c-1,0-2.2,0-3.5-0.1l-0.5-1.8
		c1.5,0.1,2.7,0.1,3.6,0.1c1.7,0,2.8-0.6,3.2-1.7c0.4-1.1,0.7-3.9,0.8-8.5h-22.8c-1.8,1.8-3.7,3.5-5.8,4.8l-0.9-1.7
		c5.8-3.9,10-9.3,12.5-16.3h-10.1v-1.8h10.7c0.6-2,1.1-4,1.5-6.2l1.9,0.2c-0.4,2.1-0.9,4.1-1.5,6h11.3l-1.6,6.4h4.6l-1.4,6.8H685.6z
		 M663,155.5c-1,3-2.4,5.5-4.2,7.7l-1.7-1.1c1.8-2.1,3.1-4.4,4-7L663,155.5z M664.3,135.8l-1.5,1.1c-0.8-1.3-1.8-2.7-3.1-4.3l1.5-1
		C662.6,133.3,663.6,134.6,664.3,135.8z M662.4,150.4h17.7l1.2-5h-15.6C664.8,147.2,663.6,148.9,662.4,150.4z M668.8,162.1l-1.8,0.2
		c-0.2-2.9-0.7-5.1-1.3-6.6l1.7-0.2C668,157,668.5,159.3,668.8,162.1z M668.6,139c-0.6,1.6-1.2,3.1-1.9,4.6H677l1.3-4.6H668.6z
		 M674.8,160.6l-1.8,0.7c-0.6-2.1-1.4-4-2.3-6l1.6-0.5C673.5,156.8,674.3,158.8,674.8,160.6z M680.4,159.2l-1.8,0.4
		c-0.6-1.8-1.3-3.5-2.3-5.2l1.6-0.5C678.8,155.4,679.6,157.1,680.4,159.2z"/>
	<path fill="#58595B" d="M708.2,138.1v-6.8h2v6.8h14.4v1.9h-12.3c2.5,6,7,11.3,13.4,16l-1.3,1.7c-6.6-5.2-11.2-11.1-13.7-17.7h-0.5
		v14.7h8v1.9h-8v7.6h-2v-7.6h-7.7v-1.9h7.7V140h-0.5c-2.7,7.4-7.4,13.4-14,18.1l-1.1-1.8c6.4-4.2,10.9-9.7,13.6-16.4h-12.3v-1.9
		H708.2z"/>
	<path fill="#58595B" d="M748.9,131.6c3.5,4.4,8.7,8,15.4,10.9l-1.1,1.6c-6.3-2.7-11.3-6.2-15.1-10.7c-4.2,4.5-9.3,8.1-15.2,10.7
		l-1.1-1.6c6.3-2.9,11.4-6.5,15.5-11H748.9z M757.5,141.5v1.8h-8.4v5.8h13.1v1.8h-13.1v10.3h4.5c1.4-2.5,2.5-5.1,3.5-7.9l1.8,0.7
		c-1,2.7-2.1,5.2-3.3,7.3h7.9v1.9h-30.7v-1.9h7.8c-0.8-2.5-1.9-4.8-3.2-7l1.8-0.7c1.2,2.1,2.3,4.7,3.3,7.7h4.7V151H734v-1.8h13.1
		v-5.8h-8.4v-1.8H757.5z"/>
	<path fill="#58595B" d="M773.2,130.8c1.5,2.3,2.7,4.8,3.6,7.5c1,3.1,1.6,6.3,1.6,9.4c0,3.1-0.5,6.2-1.6,9.4
		c-0.9,2.6-2.1,5.1-3.6,7.4h-2c1.4-2.4,2.6-4.9,3.4-7.5c1-3.2,1.6-6.3,1.6-9.4c0-3.1-0.5-6.2-1.6-9.4c-0.9-2.7-2-5.2-3.4-7.5H773.2z
		"/>
</g>
<path fill="#FFD25C" d="M860.6,292.6h-775c-11.6,0-21-9.4-21-21v-54.1c0-11.6,9.4-21,21-21h775c11.6,0,21,9.4,21,21v54.1
	C881.6,283.2,872.2,292.6,860.6,292.6z"/>
<g>
	<g>
		<path fill="#58595B" d="M408.9,251.7c-0.1,2.7-0.5,5.1-1.1,7.2L405,258c0.7-2,1.1-4.2,1.3-6.6L408.9,251.7z M412,242.1v-2h-5.9
			v-13.4h14.8v13.4H415v2h5.5v2.7H415v2.1h6.3v3h-15.6v-3h6.4v-2.1h-5.6v-2.7H412z M412.2,229.3h-3.4v8.2h3.4V229.3z M411.9,236
			l-1.8,0.5c-0.3-1.7-0.7-3.4-1.2-4.9l1.7-0.6C411.1,232.4,411.6,234.1,411.9,236z M413.1,258.1l-2.8,0.3c0-2.8-0.1-5-0.3-6.6
			l2.5-0.3C412.8,253.2,413,255.4,413.1,258.1z M417.6,257.4l-2.7,0.6c-0.3-2.3-0.6-4.4-1-6.1l2.5-0.5
			C416.8,253.2,417.2,255.2,417.6,257.4z M418.2,229.3h-3.5v8.2h3.5V229.3z M417.9,231.1c-0.2,1.8-0.5,3.6-1.1,5.4l-1.7-0.6
			c0.5-1.6,0.8-3.4,1-5.2L417.9,231.1z M421.7,256.5l-2.5,0.9c-0.4-2-0.9-3.9-1.4-5.8l2.4-0.7C420.8,252.9,421.3,254.8,421.7,256.5z
			 M430.9,225.7v6.4h7.2v3.1h-7.2v5.8h6v17.8h-3.2v-1.8h-7.8v1.8h-3.2V241h4.9v-15.3H430.9z M433.7,254v-9.9h-7.8v9.9H433.7z"/>
		<path fill="#58595B" d="M460.9,245.5c-2,0.6-4,1.2-6.2,1.8v7.5c0,2.3-1.2,3.5-3.6,3.5h-4l-0.8-3.3c1.3,0.1,2.5,0.2,3.6,0.2
			c0.9,0,1.4-0.4,1.4-1.3v-5.9c-2.2,0.5-4.4,0.9-6.7,1.3l-0.5-3.4c2.5-0.4,4.9-0.8,7.2-1.3v-6.5h-7.2v-3.3h7.2v-3.8
			c-1.8,0.4-3.6,0.6-5.6,0.9l-0.7-3.2c5.1-0.5,9.5-1.6,13.4-3.2l1.2,3.2c-1.6,0.5-3.2,1-4.9,1.5v4.6h7.8c-0.2-2.8-0.3-5.9-0.3-9.3
			h3.5c0,3.5,0.1,6.6,0.3,9.3h10.9v3.3h-10.6c0.2,2.4,0.5,4.4,1,6c0.1,0.7,0.3,1.3,0.5,1.9c1.6-1.9,2.9-4,4.1-6.4l3,1.6
			c-1.6,3.3-3.5,6.2-5.8,8.6c0.4,1,0.8,1.8,1.3,2.5c1.1,1.6,1.9,2.5,2.5,2.5c0.5,0,0.9-1.9,1.4-5.6l3,1.6c-0.9,5.1-2.2,7.7-4,7.7
			c-1.6,0-3.2-1.1-4.9-3.2c-0.7-0.9-1.3-1.8-1.8-3c-2.5,2.1-5.3,3.8-8.4,4.9l-1.9-3c3.4-1.2,6.4-3,8.9-5.3c-0.4-1.2-0.8-2.4-1.1-3.7
			c-0.5-1.9-0.9-4.3-1.2-6.9h-8.1v5.7c2.2-0.6,4.2-1.2,6.2-1.8V245.5z M476.2,230.8l-2.5,2.5c-1.5-1.6-3.6-3.3-6.4-5.1l2.3-2.2
			C472.3,227.5,474.4,229.2,476.2,230.8z"/>
		<path fill="#58595B" d="M491.9,234.3v2.7c-1.1,1.9-2.3,3.8-3.7,5.6h4.8v2.3c-0.7,2.7-1.4,5-2.3,6.7c0.2,0.1,0.4,0.4,0.7,0.6
			c1.2,1,2.2,1.8,3.3,2.3c1.1,0.4,2.6,0.7,4.6,0.7c2,0,4.2,0,6.8,0c2.6,0,6.1-0.1,10.3-0.3l-0.8,3.2h-9.1c-2.5,0-5-0.1-7.3-0.1
			c-2.5-0.1-4.3-0.4-5.6-0.9c-1.5-0.6-2.9-1.5-4.1-2.7c-0.3-0.3-0.5-0.4-0.8-0.4c-0.7,0-1.8,1.6-3.4,4.7l-2.5-2.3
			c1.7-3.3,3.4-5.2,4.9-5.7c0.9-1.7,1.6-3.4,2.1-5.4h-5.5v-2.6c1.6-1.9,2.9-3.7,4-5.5h-4.9v-3.1H491.9z M491.9,230.9l-2.2,2.2
			c-1.3-1.6-3.1-3.4-5.5-5.2l2.3-2.2C488.6,227.4,490.4,229.1,491.9,230.9z M493.6,239.5l-1-3.3c2.6-3.2,4.4-6.6,5.4-10.4l3.2,0.5
			c-0.4,1.2-0.8,2.3-1.2,3.4h5.3c-0.5-1.2-1.1-2.3-1.8-3.4l3.1-0.9c0.8,1.6,1.4,3,1.9,4.3h6.2v3.1h-6.4v3.4h5.3v3h-5.3v3.4h5.4v3
			h-5.4v3.5h6.8v3.1h-19.1v-15.6C495.2,237.7,494.4,238.6,493.6,239.5z M505,232.9h-5.9v3.4h5.9V232.9z M505,239.4h-5.9v3.4h5.9
			V239.4z M505,245.7h-5.9v3.5h5.9V245.7z"/>
		<path fill="#58595B" d="M531.9,230v-3.3h7.9c1,10.9,5.9,20.5,14.9,28.8l-2,3c-7.3-6.6-12.1-14.2-14.3-22.8
			c-2.6,9.7-7.5,17.3-14.8,22.7l-2.1-2.9c7.9-5.8,13.1-14.3,15.5-25.4H531.9z"/>
	</g>
</g>
<g>
</g>
<g>
</g>
<g>
</g>
<g>
</g>
<g>
</g>
<g>
</g>
<g>
</g>
<g>
</g>
<g>
</g>
<g>
</g>
<g>
</g>
<g>
</g>
<g>
</g>
<g>
</g>
<g>
</g>
</svg>
