<?xml version="1.0" encoding="utf-8"?>
<!-- Generator: Adobe Illustrator 18.0.0, SVG Export Plug-In . SVG Version: 6.00 Build 0)  -->
<!DOCTYPE svg PUBLIC "-//W3C//DTD SVG 1.1//EN" "http://www.w3.org/Graphics/SVG/1.1/DTD/svg11.dtd">
<svg version="1.1" id="Layer_1" xmlns="http://www.w3.org/2000/svg" xmlns:xlink="http://www.w3.org/1999/xlink" x="0px" y="0px"
	 viewBox="0 0 1020.6 550.8" enable-background="new 0 0 1020.6 550.8" xml:space="preserve">
<g>
	<path fill="#75B191" d="M33.1,477.7c3.3-37.1,10.3-89.9,42.7-113.7c30-22-8,34,0,122c2,21.6,3,43.7,3.4,64.9h98.6
		c7.4-40.4,6.3-82.3,10.3-127.1c3.3-37.1,10.3-89.9,42.7-113.7c30-22-8,34,0,122c3.7,41.2,4,84.4,3.2,118.8h111.7
		c7.4-40.4,6.3-82.3,10.3-127.1c3.3-37.1,10.3-89.9,42.7-113.7c30-22-8,34,0,122c3.7,41.2,4,84.4,3.2,118.8h134.2
		c1-19.4,1.8-39.2,3.6-59.7c3.3-37.1,10.3-89.9,42.7-113.7c30-22-8,34,0,122c1.5,17,2.5,34.4,3,51.4h139.2
		c3.3-31.9,3.4-64.9,6.5-99.7c3.3-37.1,10.3-89.9,42.7-113.7c30-22-8,34,0,122c2.8,30.8,3.6,62.8,3.5,91.4h138.5
		c3.5-32.6,3.6-66.2,6.7-101.8c3.3-37.1,10.3-89.9,42.7-113.7c30-22-8,34,0,122c2.9,31.6,3.7,64.4,3.5,93.5h51.4V251
		c-38.7,0-77.3,0-116,0c-1.1,19.9-1.8,40.2-3.7,61.2c-3.3,37.1-10.3,89.9-42.7,113.7c-30,22,8-34,0-122c-1.6-17.6-2.6-35.5-3.1-53
		c-1.5,0-3.1,0-4.6,0c-49,0-99.8-10.4-146.8-28.6c-0.3,3.5-0.5,7-0.9,10.5c-3.3,37.1-10.3,89.9-42.7,113.7c-30,22,8-34,0-122
		c-0.7-7.6-1.3-15.2-1.7-22.9c-8.2-4.3-16.3-8.9-24.1-13.8c-43.3-26.7-75.6-52.2-110.1-76.3c-6.3,38.6-5.5,78.5-9.3,121.2
		c-3.3,37.1-10.3,89.9-42.7,113.7c-30,22,8-34,0-122c-4.9-53.7-3.8-110.9-2.2-147.4c-12.9-7.3-26.7-14.4-41.8-21.3
		c-26.5-12.1-53.9-21.9-81.9-29.7c-6,38.1-5.3,77.6-9.1,119.7c-3.3,37.1-10.3,89.9-42.7,113.7c-30,22,8-34,0-122
		c-3.9-43.3-4-89-3-124.2c-37.3-7-75.3-11-113.1-12.6c-9.3,43.2-7.8,87.9-12.1,136.1c-3.3,37.1-10.3,89.9-42.7,113.7
		c-30,22,8-34,0-122c-4.1-45.2-4-92.9-2.9-128.6C82,0,0,0,0,0v550.8h28.7C30.2,527.2,30.8,502.9,33.1,477.7z"/>
	<path fill="#448965" d="M123.4,128.6c8,88-30,144,0,122c32.5-23.8,39.4-76.6,42.7-113.7c4.3-48.1,2.8-92.8,12.1-136.1
		C165.5,0.3,152.7,0,140,0c0,0-7.7,0-19.5,0C119.4,35.7,119.3,83.4,123.4,128.6z"/>
	<path fill="#448965" d="M294.4,137.6c8,88-30,144,0,122c32.5-23.8,39.4-76.6,42.7-113.7c3.8-42.1,3.1-81.5,9.1-119.7
		c-18.1-5.1-36.4-9.3-54.9-12.8C290.4,48.6,290.4,94.2,294.4,137.6z"/>
	<path fill="#448965" d="M472.2,224.6c8,88-30,144,0,122c32.5-23.8,39.4-76.6,42.7-113.7c3.8-42.6,3.1-82.6,9.3-121.2
		c-17-11.9-34.6-23.4-54.3-34.5C468.3,113.7,467.3,170.9,472.2,224.6z"/>
	<path fill="#448965" d="M660.2,346.6c32.5-23.8,39.4-76.6,42.7-113.7c0.3-3.5,0.6-7,0.9-10.5c-15.6-6.1-30.8-13-45.3-20.7
		c0.5,7.6,1,15.3,1.7,22.9C668.2,312.6,630.2,368.6,660.2,346.6z"/>
	<path fill="#448965" d="M858.2,426c32.5-23.8,39.4-76.6,42.7-113.7c1.9-21,2.6-41.4,3.7-61.2c-16.5,0-33,0-49.5,0
		c0.5,17.5,1.5,35.4,3.1,53C866.2,392,828.2,448,858.2,426z"/>
	<path fill="#448965" d="M965.7,457.3c-8-88,30-144,0-122c-32.5,23.8-39.4,76.6-42.7,113.7c-3.2,35.5-3.2,69.2-6.7,101.8h53
		C969.4,521.7,968.6,488.9,965.7,457.3z"/>
	<path fill="#448965" d="M774.2,459.4c-8-88,30-144,0-122c-32.5,23.8-39.4,76.6-42.7,113.7c-3.1,34.8-3.2,67.7-6.5,99.7h52.8
		C777.8,522.2,777,490.2,774.2,459.4z"/>
	<path fill="#448965" d="M582.7,377.4c-32.5,23.8-39.4,76.6-42.7,113.7c-1.8,20.5-2.6,40.3-3.6,59.7h49.4c-0.5-17-1.5-34.4-3-51.4
		C574.7,411.4,612.7,355.4,582.7,377.4z"/>
	<path fill="#448965" d="M398.9,432c-8-88,30-144,0-122c-32.5,23.8-39.4,76.6-42.7,113.7c-4,44.8-3,86.6-10.3,127.1h56.3
		C402.9,516.4,402.6,473.1,398.9,432z"/>
	<path fill="#448965" d="M230.9,432c-8-88,30-144,0-122c-32.5,23.8-39.4,76.6-42.7,113.7c-4,44.8-3,86.6-10.3,127.1h56.3
		C234.9,516.4,234.6,473.1,230.9,432z"/>
	<path fill="#448965" d="M75.8,363.9c-32.5,23.8-39.4,76.6-42.7,113.7c-2.3,25.2-2.9,49.5-4.4,73.1h50.5
		c-0.4-21.1-1.4-43.3-3.4-64.9C67.8,397.9,105.8,341.9,75.8,363.9z"/>
</g>
<g>
</g>
<g>
</g>
<g>
</g>
<g>
</g>
<g>
</g>
<g>
</g>
<g>
</g>
<g>
</g>
<g>
</g>
<g>
</g>
<g>
</g>
<g>
</g>
<g>
</g>
<g>
</g>
<g>
</g>
</svg>
