<?xml version="1.0" encoding="utf-8"?>
<!-- Generator: Adobe Illustrator 18.0.0, SVG Export Plug-In . SVG Version: 6.00 Build 0)  -->
<!DOCTYPE svg PUBLIC "-//W3C//DTD SVG 1.1//EN" "http://www.w3.org/Graphics/SVG/1.1/DTD/svg11.dtd">
<svg version="1.1" id="Layer_1" xmlns="http://www.w3.org/2000/svg" xmlns:xlink="http://www.w3.org/1999/xlink" x="0px" y="0px"
	 viewBox="0 0 370.3 201.5" enable-background="new 0 0 370.3 201.5" xml:space="preserve">
<path fill="#568986" d="M367.7,72.1l2.6,93.1c0.5,19.2-22.3,29.6-36.4,16.5l-7.3-6.8c-11.6-10.7-30.4-5.9-35.3,9l0,0
	c-5.8,17.4-29.1,20.2-38.9,4.7l-4.1-6.4c-9.7-15.3-32.6-12.7-38.7,4.3l-0.3,0.7c-6.6,18.2-31.9,19.4-40.1,1.8l-8.7-18.6
	c-6.9-14.8-27.1-16.9-37-3.9l-4.8,6.3c-11.1,14.8-34.5,9.7-38.5-8.4l-2.8-12.7c-3.2-14.5-19.6-21.5-32.4-13.9l-5.1,3
	c-13.6,8.2-31-0.5-32.7-16.2l-7.1-65C-1.2,47.7,7.4,37,19.3,35.7L343.4,0.1c12.8-1.4,24,8.6,24.1,21.5L367.7,72.1z"/>
<g>
</g>
<g>
</g>
<g>
</g>
<g>
</g>
<g>
</g>
<g>
</g>
<g>
</g>
<g>
</g>
<g>
</g>
<g>
</g>
<g>
</g>
<g>
</g>
<g>
</g>
<g>
</g>
<g>
</g>
</svg>
