<?xml version="1.0" encoding="utf-8"?>
<!-- Generator: Adobe Illustrator 18.0.0, SVG Export Plug-In . SVG Version: 6.00 Build 0)  -->
<!DOCTYPE svg PUBLIC "-//W3C//DTD SVG 1.1//EN" "http://www.w3.org/Graphics/SVG/1.1/DTD/svg11.dtd">
<svg version="1.1" id="Layer_1" xmlns="http://www.w3.org/2000/svg" xmlns:xlink="http://www.w3.org/1999/xlink" x="0px" y="0px"
	 viewBox="0 0 8381.4 679.6" enable-background="new 0 0 8381.4 679.6" xml:space="preserve">
<polygon fill="#25334F" points="5174.4,571.9 5225.1,492.5 5350.5,425.5 5378.5,571.9 "/>
<polygon fill="#357EA4" points="5021.9,534.4 5031.3,286.2 5127,100.4 5222.6,8.3 5275.6,8.3 5381.5,415.2 5306.5,571.9 
	5015.1,571.9 "/>
<polygon fill="#679DC4" points="5031.3,286.2 5147.6,203.3 5188.8,88.1 5257.9,69.7 5282.8,35.9 5275.6,8.3 5222.6,8.3 5127,100.4 
	"/>
<polygon fill="#0F7499" points="5307.5,130.8 5282.8,218.6 5327.1,383 5216.7,509.4 5022.6,515.2 5015.1,571.9 5306.5,571.9 
	5381.5,415.2 "/>
<polygon fill="#679DC4" points="4982.1,571.9 5157.6,507.6 5302.7,371.4 5278.9,510.5 5210.5,537.1 5289.9,571.9 5016.2,571.9 "/>
<polygon fill="#357EA4" points="5302.7,371.4 5391.2,434.3 5364.7,540.9 5405.8,571.9 5289.9,571.9 5210.5,537.1 5278.9,510.5 "/>
<polygon fill="#4688AD" points="5391.2,434.3 5479.7,397.6 5621.3,554 5621.3,571.9 5394.1,571.9 5364.7,540.9 "/>
<polygon fill="#25334F" points="6789.8,571.9 6840.5,492.5 6966,425.5 6994,571.9 "/>
<polygon fill="#357EA4" points="6634.8,533.9 6644.3,282 6741.4,93.5 6838.4,0 6892.2,0 6999.6,412.9 6923.5,571.9 6627.9,571.9 "/>
<polygon fill="#679DC4" points="6644.3,282 6762.3,197.9 6804.1,81 6874.2,62.3 6899.5,28.1 6892.2,0 6838.4,0 6741.4,93.5 "/>
<polygon fill="#0F7499" points="6924.5,124.4 6899.5,213.5 6944.4,380.2 6832.4,508.5 6635.5,514.3 6627.9,571.9 6923.5,571.9 
	6999.6,412.9 "/>
<polygon fill="#679DC4" points="6636.6,571.9 6812.1,507.6 6957.1,371.4 6933.4,510.5 6865,537.1 6944.4,571.9 6670.7,571.9 "/>
<polygon fill="#357EA4" points="6957.1,371.4 7045.6,434.3 7019.2,540.9 7060.2,571.9 6944.4,571.9 6865,537.1 6933.4,510.5 "/>
<polygon fill="#4688AD" points="7045.6,434.3 7134.1,397.6 7275.8,554 7275.8,571.9 7048.6,571.9 7019.2,540.9 "/>
<g>
	<g>
		<rect x="922.2" y="349.5" fill="#357EA4" width="879.1" height="251.6"/>
		<path fill="#679DC4" d="M1502.3,292l-580.1,57.5v45.9h796.7h82.4v-60.3c0-23.9-18.6-43.3-41.4-43.3h-253.6
			C1505,291.8,1503.6,291.9,1502.3,292z"/>
		<polygon fill="#4688AD" points="1213.4,395.4 1169.4,395.4 1169.4,599.5 1315.1,601.1 1315.1,395.4 		"/>
	</g>
	<polygon fill="#4688AD" points="1543.4,395.4 1801.3,578.3 1801.3,395.4 	"/>
</g>
<g>
	<g>
		<rect x="5544.7" y="349.5" fill="#357EA4" width="879.1" height="251.6"/>
		<path fill="#679DC4" d="M6124.8,292l-580.1,57.5v45.9h796.7h82.4v-60.3c0-23.9-18.6-43.3-41.4-43.3h-253.6
			C6127.4,291.8,6126.1,291.9,6124.8,292z"/>
		<polygon fill="#4688AD" points="5835.9,395.4 5791.9,395.4 5791.9,599.5 5937.6,601.1 5937.6,395.4 		"/>
	</g>
	<polygon fill="#4688AD" points="6165.9,395.4 6423.8,578.3 6423.8,395.4 	"/>
</g>
<g>
	<g>
		<rect x="2460.6" y="349.5" fill="#357EA4" width="879.1" height="251.6"/>
		<path fill="#679DC4" d="M2759.6,292l580.1,57.5v45.9H2543h-82.4v-60.3c0-23.9,18.6-43.3,41.4-43.3h253.6
			C2757,291.8,2758.3,291.9,2759.6,292z"/>
		<polygon fill="#4688AD" points="3048.5,395.4 3092.5,395.4 3092.5,599.5 2946.8,601.1 2946.8,395.4 		"/>
	</g>
	<polygon fill="#4688AD" points="2718.5,395.4 2460.6,578.3 2460.6,395.4 	"/>
</g>
<g>
	<g>
		<rect x="3954.7" y="319" fill="#357EA4" width="879.1" height="251.6"/>
		<path fill="#679DC4" d="M4253.6,261.4l580.1,57.5v45.9h-796.7h-82.4v-60.3c0-23.9,18.6-43.3,41.4-43.3h253.6
			C4251,261.2,4252.3,261.3,4253.6,261.4z"/>
		<polygon fill="#4688AD" points="4542.6,364.8 4586.6,364.8 4586.6,568.9 4440.9,570.5 4440.9,364.8 		"/>
	</g>
	<polygon fill="#4688AD" points="4212.6,364.8 3954.7,547.7 3954.7,364.8 	"/>
</g>
<path fill="#0F7499" d="M4347.5,571.9l169.7-179.6c39.4-41.6,99.2-35.3,132,14l0,0c31.2,46.8,87.2,55.3,126.9,19.1l50.3-45.9
	c39-35.6,93.9-28.1,125.5,17.1l122.6,175.4H4347.5z"/>
<g>
	<path fill="#357EA4" d="M396.7,366.7l81.2-248.1c7.6-23.4,27.3-40,50.5-42.6l79.7-9c9.9-1.1,20,0.4,29.2,4.4l100,43.5l-32.3,87.8
		l23.8,40.6l-37.5,8.6l-18.2,85.3l92,84.3V534H393.4V387.7C393.4,380.5,394.5,373.4,396.7,366.7z"/>
	<polygon fill="#498EB5" points="737.4,114.9 765.3,251.9 765.3,421.6 673.3,337.2 691.5,251.9 728.9,243.4 705.1,202.7 	"/>
</g>
<polygon fill="#161934" points="432.7,478.3 594.8,403.4 576.9,478.3 622.9,550.8 588.1,571.9 432.7,571.9 "/>
<polygon fill="#357EA4" points="641.6,571.9 699.3,481.6 842,405.3 873.9,571.9 "/>
<path fill="#498EB5" d="M842,405.3L959.8,425l76.4-25.7c18.1-6.1,37.6,2.8,45.7,20.7l68.5,151.9H873.9L842,405.3z"/>
<polygon fill="#357EA4" points="0,478.3 162.2,403.4 144.2,478.3 190.2,550.8 155.4,571.9 0,571.9 "/>
<polygon fill="#498EB5" points="162.2,403.4 259.7,459.6 304.5,516.9 304.5,571.9 155.4,571.9 113.4,502.3 "/>
<polygon fill="#357EA4" points="159,571.9 229.8,475.6 404.9,394.3 444.1,571.9 "/>
<polygon fill="#498EB5" points="404.9,394.3 549.5,415.2 682,376.5 783.4,571.9 444.1,571.9 "/>
<path fill="#0F7499" d="M1539.3,571.9l99.8-105.6c23.1-24.5,58.3-20.8,77.6,8.2v0c18.4,27.5,51.3,32.5,74.6,11.2l29.6-27
	c22.9-20.9,55.2-16.5,73.8,10l72.1,103.1H1539.3z"/>
<g>
	<polygon fill="#0F7499" points="2427.9,640.7 2598.7,607.7 2766.4,455.3 2739,610.9 2659.9,640.7 2751.6,679.6 2435.3,679.6 	"/>
	<polygon fill="#4688AD" points="2766.4,455.3 2868.7,525.7 2838.1,645 2885.6,679.6 2751.6,679.6 2659.9,640.7 2739,610.9 	"/>
	<polygon fill="#4688AD" points="2868.7,525.7 2971,484.6 3134.7,659.6 3134.7,679.6 2872.1,679.6 2838.1,645 	"/>
	<path fill="#0F7499" d="M3042.6,613.8l121.5-124.5c28.2-28.9,71-24.5,94.6,9.7l0,0c22.4,32.5,62.5,38.3,90.9,13.2l36-31.8
		c27.9-24.7,67.2-19.5,89.9,11.8l87.8,121.6H3042.6z"/>
</g>
<g>
	<polygon fill="#0F7499" points="5598.1,620.9 5769,587.9 5936.7,435.6 5909.2,591.1 5830.2,620.9 5921.9,659.8 5605.5,659.8 	"/>
	<polygon fill="#4688AD" points="5936.7,435.6 6039,505.9 6008.4,625.2 6055.8,659.8 5921.9,659.8 5830.2,620.9 5909.2,591.1 	"/>
	<polygon fill="#4688AD" points="6039,505.9 6141.3,464.9 6305,639.9 6305,659.8 6042.4,659.8 6008.4,625.2 	"/>
	<path fill="#0F7499" d="M6212.9,594l121.5-124.5c28.2-28.9,71-24.5,94.6,9.7v0c22.4,32.5,62.5,38.3,90.9,13.2l36-31.8
		c27.9-24.7,67.2-19.5,89.9,11.8l87.8,121.6H6212.9z"/>
</g>
<polygon fill="#0F7499" points="7246,544.9 7416.8,511.9 7584.5,359.5 7557.1,515.1 7478,544.9 7569.8,583.8 7253.4,583.8 "/>
<polygon fill="#4688AD" points="7584.5,359.5 7686.8,429.8 7656.2,549.2 7703.7,583.8 7569.8,583.8 7478,544.9 7557.1,515.1 "/>
<polygon fill="#4688AD" points="7686.8,429.8 7789.1,388.8 7952.8,563.8 7952.8,583.8 7690.2,583.8 7656.2,549.2 "/>
<path fill="#0F7499" d="M7860.8,570.3l121.5-124.5c28.2-28.9,71-24.5,94.6,9.7v0c22.4,32.5,62.5,38.3,90.9,13.2l36-31.8
	c27.9-24.7,67.2-19.5,89.9,11.8l87.8,121.6H7860.8z"/>
<polygon fill="#25334F" points="2059.7,571.9 2110.4,492.5 2235.8,425.5 2263.9,571.9 "/>
<polygon fill="#357EA4" points="1924.3,535.5 1933.7,288.4 2028.9,103.4 2124.1,11.7 2176.8,11.7 2282.3,416.8 2207.6,572.7 
	1917.6,572.7 "/>
<polygon fill="#679DC4" points="1933.7,288.4 2049.4,205.9 2090.4,91.2 2159.3,72.9 2184,39.3 2176.8,11.7 2124.1,11.7 
	2028.9,103.4 "/>
<polygon fill="#0F7499" points="2208.6,133.7 2184,221.1 2228.1,384.7 2118.3,510.6 1925.1,516.3 1917.6,572.7 2207.6,572.7 
	2282.3,416.8 "/>
<polygon fill="#679DC4" points="1906.5,571.9 2082,507.6 2227,371.4 2203.3,510.5 2134.9,537.1 2214.2,571.9 1940.6,571.9 "/>
<polygon fill="#357EA4" points="2227,371.4 2315.5,434.3 2289.1,540.9 2330.1,571.9 2214.2,571.9 2134.9,537.1 2203.3,510.5 "/>
<polygon fill="#357EA4" points="2315.5,434.3 2404,397.6 2545.6,554 2545.6,571.9 2318.5,571.9 2289.1,540.9 "/>
<polygon fill="#25334F" points="3650.1,571.9 3700.8,492.5 3826.2,425.5 3854.3,571.9 "/>
<polygon fill="#357EA4" points="3497.6,534.4 3507.1,286.2 3602.7,100.4 3698.3,8.3 3751.3,8.3 3857.2,415.2 3782.2,571.9 
	3490.9,571.9 "/>
<polygon fill="#679DC4" points="3507.1,286.2 3623.3,203.3 3664.5,88.1 3733.6,69.7 3758.5,35.9 3751.3,8.3 3698.3,8.3 
	3602.7,100.4 "/>
<polygon fill="#0F7499" points="3783.2,130.8 3758.5,218.6 3802.8,383 3692.4,509.4 3498.4,515.2 3490.9,571.9 3782.2,571.9 
	3857.2,415.2 "/>
<polygon fill="#679DC4" points="3496.9,571.9 3672.4,507.6 3817.4,371.4 3793.7,510.5 3725.3,537.1 3804.6,571.9 3530.9,571.9 "/>
<polygon fill="#357EA4" points="3817.4,371.4 3905.9,434.3 3879.4,540.9 3920.5,571.9 3804.6,571.9 3725.3,537.1 3793.7,510.5 "/>
<polygon fill="#0F7499" points="3905.9,434.3 3994.4,397.6 4136,554 4136,571.9 3908.9,571.9 3879.4,540.9 "/>
<g>
</g>
<g>
</g>
<g>
</g>
<g>
</g>
<g>
</g>
<g>
</g>
<g>
</g>
<g>
</g>
<g>
</g>
<g>
</g>
<g>
</g>
<g>
</g>
<g>
</g>
<g>
</g>
<g>
</g>
</svg>
