<?xml version="1.0" encoding="utf-8"?>
<!-- Generator: Adobe Illustrator 18.0.0, SVG Export Plug-In . SVG Version: 6.00 Build 0)  -->
<!DOCTYPE svg PUBLIC "-//W3C//DTD SVG 1.1//EN" "http://www.w3.org/Graphics/SVG/1.1/DTD/svg11.dtd">
<svg version="1.1" id="Layer_1" xmlns="http://www.w3.org/2000/svg" xmlns:xlink="http://www.w3.org/1999/xlink" x="0px" y="0px"
	 viewBox="0 0 118.2 172.3" enable-background="new 0 0 118.2 172.3" xml:space="preserve">
<g>
	<path fill="#A0A0BF" d="M110.6,122.1c-14.1-21.3-28.5-40-33.7-59.5l-17.1,5l-17.1,5.1c6.2,19.2,4.3,42.8,4,68.3
		c-0.3,25.5,15.1,31.2,15.1,31.2l26.5-7.8l26.5-7.8C114.9,156.6,124.7,143.4,110.6,122.1z"/>
	<path fill="#8A89A5" d="M62.6,128.8l-1.9,0.6c-1.3,0.4-2.6-0.4-3-1.6L53.3,113c-0.4-1.3,0.4-2.6,1.6-3l1.9-0.6
		c1.3-0.4,2.6,0.4,3,1.6l4.3,14.7C64.6,127,63.8,128.4,62.6,128.8z"/>
	<circle fill="#8A89A5" cx="63" cy="134.7" r="3.1"/>
	<circle fill="#8A89A5" cx="103.8" cy="143.8" r="4.2"/>
	<circle fill="#8A89A5" cx="105.3" cy="152.6" r="3.1"/>
	<circle fill="#8A89A5" cx="111.7" cy="146.9" r="2.6"/>
	<path fill="#787C9E" d="M110.4,29.9c-5.7-12.1-18.2-19.8-30.3-24.4c-5.5-2.1-11.4-3.8-17.2-5c-0.2,0-0.5-0.1-1-0.1
		c-13.3-1.6-26.7,2.4-37,10.9c-0.4,0.3-0.6,0.5-0.8,0.7c-4.2,4.2-8.2,8.7-11.7,13.6C4.9,36-1.5,49.2,0.3,62.5
		C1.2,68.8,4,74.7,8,79.6l105.1-31.1C113.9,42.2,113.1,35.7,110.4,29.9z"/>
	<path fill="#B5B3BB" d="M15.5,86.5c0.1,0,47.6-14.1,47.6-14.1s47.5-14,47.6-14.1c1.3-0.4,2.2-7.5,2.3-8.6c0.1-0.4,0.1-0.9,0.2-1.3
		L8,79.6c0.3,0.3,0.6,0.7,0.9,1C9.6,81.4,14.2,86.9,15.5,86.5z"/>
	<circle fill="#B5B3BB" cx="24.7" cy="26.2" r="2.9"/>
	<circle fill="#B5B3BB" cx="31.2" cy="18.9" r="2.9"/>
	<circle fill="#B5B3BB" cx="34.6" cy="27.9" r="3.1"/>
</g>
<g>
</g>
<g>
</g>
<g>
</g>
<g>
</g>
<g>
</g>
<g>
</g>
<g>
</g>
<g>
</g>
<g>
</g>
<g>
</g>
<g>
</g>
<g>
</g>
<g>
</g>
<g>
</g>
<g>
</g>
</svg>
