<?xml version="1.0" encoding="utf-8"?>
<!-- Generator: Adobe Illustrator 18.0.0, SVG Export Plug-In . SVG Version: 6.00 Build 0)  -->
<!DOCTYPE svg PUBLIC "-//W3C//DTD SVG 1.1//EN" "http://www.w3.org/Graphics/SVG/1.1/DTD/svg11.dtd">
<svg version="1.1" id="Layer_1" xmlns="http://www.w3.org/2000/svg" xmlns:xlink="http://www.w3.org/1999/xlink" x="0px" y="0px"
	 viewBox="0 0 393.2 254.4" enable-background="new 0 0 393.2 254.4" xml:space="preserve">
<g>
	<path fill="#FFFFFF" d="M311.6,230.1H81.5C36.7,230.1,0,193.4,0,148.5l0-67C0,36.7,36.7,0,81.5,0l230.1,0
		c44.8,0,81.5,36.7,81.5,81.5v67C393.2,193.4,356.5,230.1,311.6,230.1z"/>
	<g>
		<path fill="#EA8C38" d="M92.1,39.6v3.6h-4.5v23.5c0,2.7-1.3,4-3.8,4h-6.1l-0.9-3.6c1.9,0.1,3.9,0.2,5.7,0.2c0.9,0,1.3-0.5,1.3-1.5
			V43.2H59.7v-3.6H92.1z M78.4,61.7H67.1v2.9h-3.6v-17h14.9V61.7z M74.8,58.3v-7.4h-7.7v7.4H74.8z"/>
		<path fill="#EA8C38" d="M100,57.2v-3.4h32.1v3.4h-13.8v3h9.9v3.3h-9.9V67c1.6,0.1,3.5,0.2,5.6,0.2c3.2,0,5.9-0.1,8.1-0.1l-1,3.5
			c-2.5,0-4.8,0-6.8-0.1c-6,0-10-0.5-12.3-1.4c-1.7-0.7-3.2-2.1-4.6-4.1c-1.4,2.4-3.1,4.4-5.1,6l-2.4-3.1c3.2-2.5,5.4-5.8,6.6-10
			l3.6,0.6c-0.3,1.3-0.7,2.4-1.2,3.6c1.4,2.1,3,3.5,4.7,4c0.4,0.1,0.8,0.2,1.2,0.3v-9.3H100z M127.4,38.7v13.1h-22.5V38.7H127.4z
			 M123.7,43.8v-1.9h-15.1v1.9H123.7z M123.7,46.8h-15.1v1.9h15.1V46.8z"/>
		<path fill="#EA8C38" d="M172.4,56.2c-0.1,7.1-0.5,11.3-1.4,12.7c-0.9,1.4-2.6,2.1-4.8,2.1c-1,0-2.2-0.1-3.6-0.2l-1-3.5
			c1.5,0.1,2.7,0.2,3.7,0.3c1.4,0,2.3-0.5,2.7-1.4c0.4-0.8,0.6-3.1,0.6-6.7h-21.5c-1.7,1.7-3.5,3.1-5.4,4.4l-1.9-3.3
			c5.2-3.5,9-8.2,11.5-14.1h-9v-3.3h5.3c-0.7-1-1.5-2.2-2.4-3.3l3-1.9c1.3,1.5,2.3,2.9,3,4l-1.7,1.2h3.1c0.5-1.7,0.9-3.5,1.3-5.4
			l3.7,0.5c-0.4,1.7-0.8,3.3-1.2,4.9h11l-1.3,6.4h4.3l-1.2,6.7H172.4z M149.8,62.2c-0.9,3-2.2,5.6-3.9,7.8l-3.3-2.1
			c1.8-2,3-4.2,3.8-6.4L149.8,62.2z M150,56.2h15.5l0.7-3.4h-13.9C151.6,54,150.8,55.1,150,56.2z M155.6,68.4l-3.6,0.4
			c-0.2-2.8-0.5-4.9-1.1-6.4l3.2-0.4C154.8,63.6,155.3,65.7,155.6,68.4z M155.3,46.4c-0.4,1.1-0.8,2.1-1.3,3.1h8.3l0.8-3.1H155.3z
			 M161.5,66.7l-3.4,1.3c-0.5-2-1.2-4-1.9-5.8l2.9-0.8C160.1,63.2,160.9,65,161.5,66.7z M166.9,65.5l-3.4,0.9
			c-0.5-1.8-1.2-3.5-1.9-5.1l3-1C165.4,61.8,166.2,63.5,166.9,65.5z"/>
		<path fill="#EA8C38" d="M180.8,55.8l-1.2-3.9c3.6-4.1,6.3-8.9,8.1-14.5l3.5,1.7c-0.8,2.5-1.9,4.9-3.2,7.2v24.8h-3.7V51.9
			C183.3,53.2,182.1,54.5,180.8,55.8z M203.3,37.7v11.4h9.8v3.7h-9.8V71h-3.9V52.8h-9v-3.7h9V37.7H203.3z"/>
		<path fill="#EA8C38" d="M239.6,39.8h12.8v3.2h-26.3v10c-0.1,7.4-1.2,13.3-3.3,17.7l-2.8-2.5c1.7-3.6,2.5-8.7,2.6-15.2V39.8H236
			c-0.4-0.7-0.7-1.3-1.1-1.8l3.7-0.6C238.9,38.1,239.3,38.9,239.6,39.8z M230.4,49.4c-0.1,3-0.8,5.3-2.3,6.9l-1.8-1.5
			c1.2-1.2,1.8-3,1.9-5.3H230.4z M252.5,68.9l-3,2.1c-0.5-0.9-1.1-1.8-1.7-2.6c-5.1,0.9-11.7,1.5-19.8,2.1l-1-3.1
			c1.1-0.1,2.1-0.3,3-0.6c2-0.9,4.2-2.1,6.6-3.8c-2.4,0.1-5,0.2-7.7,0.3l-0.7-2.9c0.8-0.1,1.5-0.3,2.3-0.6c1.4-0.6,3.1-2,5.3-4.4
			l3.5,0.8c-1.5,1.7-3.1,3-4.7,4.2c2-0.1,4-0.2,6-0.3c1.2-1,2.3-2,3.6-3.1l3.3,1.6c-4.4,3.7-8.3,6.5-11.6,8.5
			c3.8-0.4,7.2-0.8,10.1-1.3c-0.6-0.8-1.2-1.7-1.9-2.4l2.8-1.8C249.3,64.3,251.2,66.7,252.5,68.9z M231.3,45.5v-1.9h3.2v1.9h3.9v2.8
			h-4.2v7.3h-2.6v-7.3h-4.4v-2.8H231.3z M237.7,49.4v2.7c0,0.4,0.1,0.5,0.5,0.5h1.3v2.1h-2.1c-1.2,0-1.8-0.8-1.8-2.4v-3H237.7z
			 M244.1,45.5v-1.9h3.2v1.9h4.5v2.8h-4.8v7.3h-2.6v-7.3h-4.8v-2.8H244.1z M243.1,49.4c0,2.9-0.5,5.1-1.5,6.6l-1.8-1.5
			c0.7-1.1,1.1-2.8,1.1-5H243.1z M250.7,49.4v3.4c0,0.4,0.3,0.6,0.9,0.6h1.4v2h-2.3c-1.5,0-2.2-0.8-2.2-2.4v-3.6H250.7z"/>
		<path fill="#EA8C38" d="M293.2,38.8v3.4H283v2.4h8.1v9.7h-14.6l-1.3,2.3h18.5V60h-7.4c-0.7,1.8-1.8,3.3-3.3,4.7
			c3.4,1,6.8,2.2,10.3,3.5l-2.3,3.1c-3.8-1.6-7.6-3-11.3-4.2c-3.4,1.7-8.9,3.1-16.6,4.1l-1.4-3.4c5.5-0.6,9.8-1.4,12.9-2.3
			c-2.7-0.8-5.4-1.5-8-2.1c0.8-1.2,1.5-2.3,2.3-3.4h-8.1v-3.5h10.2c0.4-0.8,0.9-1.5,1.3-2.3h-9v-9.7h8.1v-2.4h-10.2v-3.4H293.2z
			 M271.3,47.7h-4.5v3.4h4.5V47.7z M282.3,60H273c-0.5,0.7-0.9,1.3-1.3,1.9c2.3,0.5,4.7,1,7.1,1.7C280.4,62.6,281.6,61.4,282.3,60z
			 M279.4,42.2h-4.5v2.4h4.5V42.2z M279.4,47.7h-4.5v3.4h4.5V47.7z M287.5,47.7H283v3.4h4.5V47.7z"/>
		<path fill="#EA8C38" d="M317.8,57.9c-1.9,0.6-3.9,1.2-6,1.8v7.3c0,2.4-1.3,3.6-3.8,3.6H304l-0.8-3.6c1.3,0.1,2.4,0.2,3.6,0.2
			c0.8,0,1.3-0.4,1.3-1.2v-5.4c-2.1,0.4-4.2,0.8-6.4,1.2l-0.5-3.8c2.4-0.4,4.8-0.8,7-1.3v-6.2h-7v-3.6h7v-3.3
			c-1.7,0.4-3.5,0.6-5.4,0.9l-0.8-3.6c5-0.5,9.4-1.6,13.3-3.2l1.3,3.5c-1.5,0.5-3,1-4.6,1.4v4.2h7.4c-0.2-2.8-0.3-5.8-0.3-9.1h3.8
			c0,3.5,0.1,6.5,0.4,9.1h10.8v3.6h-10.5c0.2,2.3,0.5,4.2,0.9,5.8c0.1,0.6,0.3,1.1,0.4,1.6c1.5-1.8,2.8-3.9,3.9-6.1l3.2,1.7
			c-1.6,3.2-3.5,6.1-5.7,8.5c0.4,0.9,0.8,1.6,1.2,2.2c1,1.6,1.8,2.4,2.3,2.4c0.4,0,0.8-1.8,1.2-5.4l3.3,1.8c-0.9,5.1-2.3,7.7-4,7.7
			c-1.6,0-3.2-1.1-4.9-3.2c-0.6-0.8-1.3-1.8-1.8-2.8c-2.4,2-5.2,3.6-8.2,4.8l-2.1-3.2c3.3-1.2,6.2-3,8.7-5.2
			c-0.4-1.2-0.8-2.3-1.1-3.6c-0.5-1.9-0.9-4.2-1.2-6.8h-7.7v5.3c2.1-0.5,4.1-1.1,6-1.8V57.9z M333.1,42.8l-2.7,2.7
			c-1.5-1.6-3.6-3.2-6.3-5l2.5-2.4C329.2,39.6,331.3,41.2,333.1,42.8z"/>
		<path fill="#EA8C38" d="M91,123l-3.2,2.2c-0.5-1-1.1-1.9-1.7-2.9c-8.3,0.7-16.1,1.3-23.5,1.7l-0.6-3.1c2.9-1.5,5.9-5.2,8.9-11
			H59.7v-3.7h14.3v-5.6h-12v-3.6h12v-5.3h3.8v5.3h12v3.6h-12v5.6h14.2v3.7H75c-2.2,4.6-4.5,8.1-6.7,10.5c7.3-0.5,12.6-0.9,15.8-1.3
			c-1.4-2.1-2.9-4.2-4.6-6.4l3-1.9C86.2,115.6,89,119.6,91,123z"/>
		<path fill="#EA8C38" d="M128,103.4v16.3h-6.3c3.5,0.6,6.8,1.4,10,2.5l-1.3,3.1c-3.7-1.4-7.5-2.5-11.4-3.3l1.2-2.3h-8.5l1.5,1.9
			c-2.6,1.5-6.3,2.7-11.2,3.7l-1.7-3c4.2-0.7,7.5-1.6,9.9-2.7h-6.1v-16.3H128z M130,92.8v9.2h-27.9v-9.2H130z M110.3,95.8h-4.6V99
			h4.6V95.8z M124.4,108v-1.7h-16.6v1.7H124.4z M124.4,112.3v-1.7h-16.6v1.7H124.4z M124.4,114.9h-16.6v1.8h16.6V114.9z M118.5,95.8
			h-4.8V99h4.8V95.8z M126.4,95.8h-4.5V99h4.5V95.8z"/>
		<path fill="#EA8C38" d="M159.4,107.3c0,3.5-1.7,6.2-4.9,8l-1.3-2.1c2.2-1.3,3.3-3,3.5-5c-0.2,0-0.4,0.1-0.7,0.1
			c-0.8,0-1.4-0.3-2-0.8c-0.5-0.5-0.8-1.2-0.8-1.9c0-0.8,0.3-1.5,0.8-2c0.5-0.5,1.2-0.8,2-0.8C158.3,102.9,159.4,104.4,159.4,107.3z
			"/>
		<path fill="#EA8C38" d="M180.9,109.8l-1.3-4c3.7-4.1,6.4-8.9,8.2-14.4l3.5,1.7c-0.9,2.8-2.2,5.5-3.7,8V125H184v-18.6
			C183,107.6,182,108.7,180.9,109.8z M192.1,106.5l-3.2-2c2.7-4,4.5-8.2,5.6-12.7l3.5,0.8c-0.3,1.1-0.6,2.2-0.9,3.2h15v2.4
			c-0.5,2.2-1.2,4.3-2.1,6.4l-3.6-1c0.7-1.2,1.3-2.6,1.8-4.2h-12.5C194.7,101.9,193.5,104.3,192.1,106.5z M197.3,107.4
			c-1.3,4.9-2.9,9.3-4.8,13l-3.5-1.3c1.9-3.3,3.5-7.5,5-12.6L197.3,107.4z M195.2,124.7l-0.8-3.5c1.4,0.1,2.8,0.3,4.1,0.3
			c0.9,0,1.3-0.5,1.3-1.4v-18.3h3.6V121c0,2.5-1.2,3.7-3.7,3.7H195.2z M213,119.4l-3.3,1.5c-1.3-5.2-2.8-9.8-4.4-13.8l3.3-1.1
			C210.3,110.2,211.8,114.7,213,119.4z"/>
		<path fill="#EA8C38" d="M251.9,104.4h-3.6v-4.1h-22.9v4.1h-3.6V97h6.1c-0.8-1.4-1.5-2.7-2.4-3.8l3-1.5c0.9,1.3,1.8,2.8,2.7,4.4
			l-1.9,0.9h5.8v-5.4h3.7V97h5.7l-2-1c1.2-1.4,2.1-2.8,2.8-4.2l3,1.5c-0.7,1.3-1.5,2.6-2.5,3.8h6.2V104.4z M249.6,125.1H246v-1.3
			h-18.1v1.3h-3.7v-14h25.4V125.1z M246.2,102v7.7h-18.6V102H246.2z M235.1,116.1v-1.9h-7.3v1.9H235.1z M235.1,120.7v-2.1h-7.3v2.1
			H235.1z M242.7,104.8H231v2.2h11.7V104.8z M238.7,116.1h7.2v-1.9h-7.2V116.1z M246,120.7v-2.1h-7.2v2.1H246z"/>
		<path fill="#EA8C38" d="M277.5,111.9c-1.9,0.6-3.9,1.2-6,1.8v7.3c0,2.4-1.3,3.6-3.8,3.6h-4.1l-0.8-3.6c1.3,0.1,2.4,0.2,3.6,0.2
			c0.8,0,1.3-0.4,1.3-1.2v-5.4c-2.1,0.4-4.2,0.8-6.4,1.2l-0.5-3.8c2.4-0.4,4.8-0.8,7-1.3v-6.2h-7v-3.6h7v-3.3
			c-1.7,0.4-3.5,0.6-5.4,0.9l-0.8-3.6c5-0.5,9.4-1.6,13.3-3.2l1.3,3.5c-1.5,0.5-3,1-4.6,1.4v4.2h7.4c-0.2-2.8-0.3-5.8-0.3-9.1h3.8
			c0,3.5,0.1,6.5,0.4,9.1h10.8v3.6h-10.5c0.2,2.3,0.5,4.2,0.9,5.8c0.1,0.6,0.3,1.1,0.4,1.6c1.5-1.8,2.8-3.9,3.9-6.1l3.2,1.7
			c-1.6,3.2-3.5,6.1-5.7,8.5c0.4,0.9,0.8,1.6,1.2,2.2c1,1.6,1.8,2.4,2.3,2.4c0.4,0,0.8-1.8,1.2-5.4l3.3,1.8c-0.9,5.1-2.3,7.7-4,7.7
			c-1.6,0-3.2-1.1-4.9-3.2c-0.6-0.8-1.3-1.8-1.8-2.8c-2.4,2-5.2,3.6-8.2,4.8l-2.1-3.2c3.3-1.2,6.2-3,8.7-5.2
			c-0.4-1.2-0.8-2.3-1.1-3.6c-0.5-1.9-0.9-4.2-1.2-6.8h-7.7v5.3c2.1-0.5,4.1-1.1,6-1.8V111.9z M292.9,96.8l-2.7,2.7
			c-1.5-1.6-3.6-3.2-6.3-5l2.5-2.4C288.9,93.6,291.1,95.2,292.9,96.8z"/>
		<path fill="#EA8C38" d="M301.3,111.2v-3.4h32.1v3.4h-13.8v3h9.9v3.3h-9.9v3.5c1.6,0.1,3.5,0.2,5.6,0.2c3.2,0,5.9-0.1,8.1-0.1
			l-1,3.5c-2.5,0-4.8,0-6.8-0.1c-6,0-10-0.5-12.3-1.4c-1.7-0.7-3.2-2.1-4.6-4.1c-1.4,2.4-3.1,4.4-5.1,6l-2.4-3.1
			c3.2-2.5,5.4-5.8,6.6-10l3.6,0.6c-0.3,1.3-0.7,2.4-1.2,3.6c1.4,2.1,3,3.5,4.7,4c0.4,0.1,0.8,0.2,1.2,0.3v-9.3H301.3z M328.7,92.7
			v13.1h-22.5V92.7H328.7z M325,97.8v-1.9h-15.1v1.9H325z M325,100.8h-15.1v1.9H325V100.8z"/>
		<path fill="#EA8C38" d="M63.3,162.3h26.1v2.7h-3v8.9h4.8v3h-4.8v2.2h-3.7v-2.2H60.7v-3h4.6V165H63v-2.1c-0.4,0.6-0.8,1.2-1.2,1.7
			l-2.4-2.2c1.3-1.3,2-3,2-5.1v-3.2h14.3v6.1H64.1C63.9,161,63.7,161.6,63.3,162.3z M66.8,147.2v-1.5h3.6v1.5h6.1v2.5h-6.1v1.2h4.9
			v2.4H61.7v-2.4h5.1v-1.2h-6.7v-2.5H66.8z M64.5,156.3v0.9c0,0.2,0,0.5,0,0.7h2.8v-1.6H64.5z M82.8,165H68.9v1.5h13.8V165z
			 M82.8,168.7H68.9v1.5h13.8V168.7z M82.8,172.4H68.9v1.5h13.8V172.4z M72.5,158v-1.6H70v1.6H72.5z M88.5,146.5v3.1
			c0,0.4,0.2,0.6,0.7,0.6h2.7v2.5h-3.5c-1.9,0-2.8-0.8-2.8-2.4v-1.1h-3.7c0,0.9-0.3,1.8-0.7,2.5c-0.4,0.6-1,1.1-1.8,1.7h10.9v2.3
			c-0.6,1.1-1.6,2.1-3,3c1.4,0.4,3.1,0.6,4.9,0.9l-1.7,2.7c-2.6-0.5-4.9-1.1-6.7-1.9c-1.8,0.7-4,1.3-6.4,1.7l-1.4-2.6
			c1.8-0.3,3.4-0.5,4.8-0.9c-1.1-0.8-2-1.7-2.6-2.7h-0.9v-2.4H78l-1.6-1.4c1-0.8,1.7-1.5,2-2.2c0.3-0.7,0.5-1.8,0.5-3.2H88.5z
			 M83.9,157.5c1.3-0.5,2.3-1.1,3-1.7h-5.7C81.9,156.4,82.8,157,83.9,157.5z"/>
		<path fill="#EA8C38" d="M98.4,178.7l-0.8-3.6c0.9,0.1,1.8,0.2,2.7,0.2c0.8,0,1.2-0.4,1.2-1.2v-7.3c-1.3,0.5-2.5,0.9-3.8,1.3
			l-0.9-3.8c1.6-0.4,3.2-0.8,4.7-1.3v-7.1h-4v-3.6h4v-6.4h3.8v6.4h2.6v3.6h-2.6v5.6c0.9-0.4,1.8-0.9,2.7-1.4v3.8
			c-0.9,0.4-1.8,0.9-2.7,1.3v9.8c0,2.4-1.3,3.7-3.7,3.7H98.4z M109.6,167.8v-3.5h19.3v3.5h-7.7v6.6h9v3.6h-22.1v-3.6h9.3v-6.6H109.6
			z M118.6,153.5c-0.9,5.2-3.6,8.6-8,10.3l-1.9-3c3.7-1.3,5.9-4,6.7-8.1L118.6,153.5z M112.5,152.6v4.1H109v-7.5h8.4
			c-0.5-1.2-1-2.3-1.6-3.4l3.9-0.6c0.5,1.2,1,2.6,1.5,4h8.3v7.5h-3.5v-4.1h-2.4v5.7c0,0.5,0.3,0.8,1,0.8h5v3.2h-6.7
			c-1.8,0-2.7-0.9-2.7-2.6v-7.2H112.5z"/>
		<path fill="#EA8C38" d="M148.4,176.8h-3.6V175h-5.3v2.8h-3.6v-26.3h3.5c0.6-1.9,1.1-3.9,1.4-5.9l3.8,0.5c-0.4,1.9-0.9,3.8-1.6,5.4
			h5.5V176.8z M144.8,161.4v-6.3h-5.3v6.3H144.8z M144.8,171.5v-6.8h-5.3v6.8H144.8z M166.4,174.8c-0.4,2.5-2.1,3.8-5.2,3.8
			c-0.7,0-2-0.1-3.9-0.2l-0.9-3.4c1.6,0.1,3,0.2,4.2,0.2c1.3,0,2.1-0.7,2.3-2.1c0.2-1.7,0.3-7.7,0.4-17.9h-8.7
			c-1,2.2-2.1,4.1-3.5,5.8l-2.3-3c2.4-3.4,4-7.6,4.8-12.5l3.7,0.5c-0.4,1.9-0.8,3.8-1.4,5.5H167C167,164.1,166.8,171.9,166.4,174.8z
			 M160.3,168l-3,2.1c-1.3-2.4-3.1-5-5.4-7.9l3.1-1.9C157.3,163.2,159.1,165.7,160.3,168z"/>
		<path fill="#EA8C38" d="M183.3,171.4h-6.1v2.3h-3.5v-25.3h9.6V171.4z M179.9,167.9v-16.1h-2.7v16.1H179.9z M188.1,167.5
			c-0.5,3.8-1.1,7.1-1.8,9.9l-3.1-1.1c0.8-2.5,1.5-5.7,2.1-9.5L188.1,167.5z M205.1,162.7c0,8.1-0.5,12.8-1.4,14.1
			c-0.9,1.4-2.7,2.1-5.4,2.1c-1,0-2,0-3-0.1l-0.8-3.3c1.2,0.1,2.2,0.2,3.2,0.2c2,0,3.2-0.6,3.5-1.9c0.1-0.4,0.2-0.9,0.3-1.5l-2.4,1
			c-0.5-2.1-1-4.1-1.7-6l2.5-0.7c0.7,2,1.3,3.7,1.7,5.3c0.1-1.5,0.2-3.4,0.2-5.8h-16.1v-19.1h18.9v3.1h-6.9v2.3h6.2v3h-6.2v2.3h6.3
			v3h-6.3v2.3H205.1z M189.1,149.8v2.3h5.1v-2.3H189.1z M189.1,157.4h5.1v-2.3h-5.1V157.4z M189.1,162.7h5.1v-2.3h-5.1V162.7z
			 M192.4,175.8l-3,0.4c-0.1-3.7-0.2-6.6-0.4-8.6l2.7-0.4C192.1,169.3,192.3,172.1,192.4,175.8z M197,174l-2.8,0.6
			c-0.3-2.7-0.6-5.1-1-7.2l2.7-0.6C196.3,169.1,196.6,171.4,197,174z"/>
		<path fill="#EA8C38" d="M233.4,150.9c1.4,1.3,2.2,3,2.2,5.2c0,1.8-0.5,3.3-1.3,4.4c-0.3,0.4-1.4,1.3-3.1,2.8
			c-0.6,0.5-1.1,1.1-1.4,1.8c-0.4,0.7-0.5,1.5-0.5,2.4v0.5H225v-0.5c0-1.4,0.2-2.6,0.7-3.5c0.5-1,1.3-2,2.5-3c1.2-1,1.9-1.7,2.2-2.1
			c0.6-0.8,1-1.7,1-2.6c0-1.2-0.4-2.1-1-2.8c-0.7-0.7-1.7-1-2.9-1c-1.5,0-2.7,0.5-3.4,1.4c-0.6,0.8-0.9,2-0.9,3.6H219
			c0-2.7,0.8-4.8,2.3-6.3c1.5-1.5,3.6-2.3,6.3-2.3C230,149,231.9,149.7,233.4,150.9z M229,170.6c0.5,0.5,0.8,1.2,0.8,1.9
			c0,0.8-0.3,1.5-0.8,2c-0.6,0.5-1.2,0.8-2,0.8c-0.8,0-1.4-0.3-1.9-0.8c-0.6-0.5-0.8-1.2-0.8-1.9c0-0.8,0.3-1.4,0.8-1.9
			c0.5-0.5,1.2-0.8,1.9-0.8C227.8,169.8,228.5,170.1,229,170.6z"/>
	</g>
	<path fill="#FFFFFF" d="M138.9,208.8c0,0-26.3,39.3-67.2,45.6c0,0,18.8-18.9,11.5-55.8L138.9,208.8z"/>
	<path fill="#EA8C38" d="M59.3,79.4c92.1-1.3,184.1,0.4,276,4.9c0,0,0.1-2.2,0-2.3c-91.9-4.5-184-6.2-276-4.9
		C59.3,77.2,59.3,79.4,59.3,79.4L59.3,79.4z"/>
	<path fill="#EA8C38" d="M59.4,129.5c91.9,3.5,184,4.5,276,2.8c0.1,0,0-2.2,0-2.3c-92,1.7-184.1,0.8-276-2.8
		C59.4,127.2,59.3,129.5,59.4,129.5L59.4,129.5z"/>
	<path fill="#EA8C38" d="M59.4,186.5c62.4,3.5,124.9,4.5,187.4,2.8c0,0,0-2.2,0-2.2c-62.5,1.7-125,0.8-187.4-2.8
		C59.4,184.3,59.3,186.5,59.4,186.5L59.4,186.5z"/>
</g>
<g>
</g>
<g>
</g>
<g>
</g>
<g>
</g>
<g>
</g>
<g>
</g>
<g>
</g>
<g>
</g>
<g>
</g>
<g>
</g>
<g>
</g>
<g>
</g>
<g>
</g>
<g>
</g>
<g>
</g>
</svg>
