<?xml version="1.0" encoding="utf-8"?>
<!-- Generator: Adobe Illustrator 18.0.0, SVG Export Plug-In . SVG Version: 6.00 Build 0)  -->
<!DOCTYPE svg PUBLIC "-//W3C//DTD SVG 1.1//EN" "http://www.w3.org/Graphics/SVG/1.1/DTD/svg11.dtd">
<svg version="1.1" id="Layer_1" xmlns="http://www.w3.org/2000/svg" xmlns:xlink="http://www.w3.org/1999/xlink" x="0px" y="0px"
	 viewBox="0 0 895.4 1237.1" enable-background="new 0 0 895.4 1237.1" xml:space="preserve">
<rect x="402.7" y="800.8" fill="#67AE92" stroke="#65A68A" stroke-miterlimit="10" width="97.5" height="435.9"/>
<path fill="#FFC235" d="M57.9,93.5c-24.6-9.8-60.6,15.9-57.7,41.2C12.8,246.2,69,479.3,313.8,621.7c0,0,119.3,69.5,225.9,109.7
	c25.8,9.7,62-19.1,54.9-43.7C555.5,551.8,428,240.4,57.9,93.5z"/>
<path fill="#FFC235" d="M435.5,17.5c15-22.6,62.2-23.6,75.7-1.6C570.9,112.8,670,333,549.6,593.8c0,0-58.6,127.2-124.9,223.3
	c-16,23.2-65.4,21.9-74.8-2C297.6,682.9,210.1,357.1,435.5,17.5z"/>
<path fill="#FFC235" d="M820.2,71.2c22.3-15.1,65,2,68.6,27.5c15.9,112,19.3,352.8-190.1,547.1c0,0-102,94.8-198.9,158
	c-23.4,15.3-67.2-4.8-66.4-30.5C437.9,631.6,486,298,820.2,71.2z"/>
<g>
	<polygon fill="#AADBCD" points="433.3,993.9 433.7,993.6 432.7,993.5 	"/>
	<path fill="#AADBCD" d="M436.7,992.3l-0.4-0.6c-2.7,0.4-2-0.1-3.9,0.8c0.4,0.3,1.4,1,2.5,0.9c-0.1-0.2-1.2-0.5-0.8-0.9
		c0.8,0.1,0.7,0.5,1.7,0.6c0.8-0.6-0.7-0.3-0.3-0.9L436.7,992.3z"/>
	<path fill="#AADBCD" d="M434,991.6c0.5,0,0.9,0.1,1.3,0.1C434.8,991.7,434.3,991.4,434,991.6z"/>
	<path fill="#AADBCD" d="M433.7,991.3c0.1-0.4,1,0,1.2,0l-1.8-0.4L433.7,991.3z"/>
	<path fill="#AADBCD" d="M433.8,989.8c0-0.1-0.1-0.1-0.2-0.2C433.3,989.7,433.6,989.7,433.8,989.8z"/>
	<path fill="#AADBCD" d="M433.6,989.1c-0.6,0.2-0.2,0.3,0.1,0.6c0,0,0.1,0,0.1,0c0.5-0.2,1.8,0,1.4,0.3c0.3,0.3-1,0.3-0.1,0.6l1-0.4
		C435.9,989.5,434.1,989.3,433.6,989.1z"/>
	<path fill="#AADBCD" d="M433.8,989.8c0,0.1,0.1,0.1,0.1,0.2C434.1,989.9,434,989.8,433.8,989.8z"/>
	<polygon fill="#AADBCD" points="433.7,990.5 433.9,990.7 434.5,990.7 	"/>
	<path fill="#AADBCD" d="M433.5,987.8c1.7,0.1-0.2,0.9,1.2,1c-0.1-0.5,1.2-0.9,2.1-0.8l-0.5-0.5
		C435.5,987.3,434.3,987.5,433.5,987.8z"/>
	<path fill="#AADBCD" d="M437.8,986.7c-0.1,0-0.2-0.1-0.3-0.1C437.6,986.7,437.7,986.7,437.8,986.7z"/>
	<path fill="#AADBCD" d="M434.8,984.1l1.8,1.2c-0.6-0.1-1.1-0.1-1.3-0.3c-0.2,0.6,0.9,0.6,0.7,1.1c-1.6,0.2-0.1-0.8-1.6-0.5
		c0.1,0.3,0.1,0.8,1.5,1l-1.1,0.5l1.8-0.2c0.5-0.2-1.4-0.4-0.2-0.5c0.8-0.1,0.9,0.1,1.1,0.3c-0.4-0.3,1.4-0.9,1.1-1.6
		C438.4,984.3,435.6,984.5,434.8,984.1z"/>
	<polygon fill="#AADBCD" points="436.7,984 437.4,983.9 436.5,984 	"/>
	<path fill="#AADBCD" d="M434.4,982.7l1.1,0.6c-0.1,0.1-0.5,0.1-0.8,0.2c0.4,0,1.1,0.1,1.4,0.1c1.6-0.3-0.5-0.8-0.8-1.1
		c0.7-0.9,0.9,0,2.4-0.4c0,0.3-0.4,0.3-0.5,0.6c1.8-0.6,0.1-1.3-0.3-1.6c-0.2,0.1-0.7,0.1-0.5,0.3l-0.5-0.4
		C434.5,981.5,434.2,981.8,434.4,982.7z"/>
	<path fill="#AADBCD" d="M434.4,983.8c-0.1-0.2,0-0.3,0.2-0.4C434.2,983.5,433.9,983.6,434.4,983.8z"/>
	<path fill="#AADBCD" d="M436.8,980.9c-0.1,0-0.1,0.1,0.1,0.2C436.9,981,436.9,981,436.8,980.9z"/>
	<path fill="#AADBCD" d="M434.9,981.3l0.2-0.5l-0.7,0.2C434.4,981.1,434.5,981.3,434.9,981.3z"/>
	<path fill="#AADBCD" d="M437,963.8c-0.7,0.1-1,0.2-0.8,0.6c-0.9,0-0.7-0.5-1.2-0.7c-0.6,0.5-1,0-1.8,0.1c-0.1,0.5,1.1,0.7,0.8,1.3
		c-0.2,0-0.6,0-0.9,0.1c0.6,0.7,1.4,1.8,0.6,2.4c-0.3,0.6,0.1,1.1,0.5,1.8c-0.4,2.3,0.5,4.6-0.3,7.1l1.7,0.3c-0.8,0.1,0,0.6-1.1,0.5
		c0.2-0.1,0-0.3,0-0.4c-1.5,0.5,0.1,1.4-0.4,2c0.3-0.1,1.8-0.2,2,0c-1.9,0,0,0.7-2.1,1c-0.5,0.6,1.6,0,1.3,0.7
		c1.1,0.1,0.5-0.6,1.4-0.8c0.9,0.2-0.4,0.6,0.8,0.5c0.5-1.1-1.8-3-2.4-4.6l1,0.2c-0.8-0.8-0.8-2.1,0.9-2.8c-1,0.2,0.5-1.2-1.7-1.1
		c0.5-0.2,0.4-0.3,0.6-0.6l-0.7-0.1c0-0.4,1.1-0.4,1-0.9c-1,0.3-1.2,0-2-0.1c1.1-0.6,2-1.2,2.9-1.7c-0.3,0-0.7,0.1-1.1,0.3
		c0.3-0.3-0.6-0.3-0.9-0.4c-0.1-0.3,1.2-0.3,1.8-0.3c0.4-0.6-2-0.8-1.2-1.3l-1,0.2c-0.3-0.6,0.8-1.1,0.5-1.8
		c1.3-0.3,1.2,0.5,1.8,0.8c0.3-0.1,0.4-0.4,0.8-0.5c-0.7-0.3-1.7-0.7-2.3-1.1C437,964.9,436.9,964,437,963.8z"/>
	<path fill="#AADBCD" d="M437.8,965.6c0.2,0.1,0.4,0.1,0.5,0.2c-0.1-0.1-0.2-0.1-0.1-0.2C438,965.6,437.9,965.6,437.8,965.6z"/>
	<path fill="#AADBCD" d="M437,963.8c0.1,0,0.1,0,0.2,0C437.1,963.7,437.1,963.7,437,963.8z"/>
	<path fill="#AADBCD" d="M433.6,967.7C433.7,967.7,433.7,967.6,433.6,967.7c0.1-0.1,0.1-0.2,0.1-0.2L433.6,967.7z"/>
	<path fill="#AADBCD" d="M438.1,968.1c-0.3,0.1-0.7,0.3-1.1,0.5C437.5,968.6,437.9,968.5,438.1,968.1z"/>
	<path fill="#AADBCD" d="M437.1,972.3c0.2,0.1,0.5,0,0.8,0.1C437.9,972.1,437.6,972,437.1,972.3z"/>
	<polygon fill="#AADBCD" points="438,964.9 437.7,964.4 437.4,964.2 	"/>
	<path fill="#AADBCD" d="M432.7,954.6c-1.2,0.5-0.4,1.1-0.7,1.7c0.6,1,2.6,0.1,2.7,1l-2.4-0.1c0.2,1-0.3,2.3,1.8,3.1
		c-0.3,0.1-0.7,0.3-1,0c0.1,0.6,3.5,0.3,2.7,1.2c-1.5-0.8-1.4,0.3-2.9,0.1l-0.2-0.1c0.2,0.5,1,1.3,0.9,1.6c0.6,0,1.6-0.3,1.7,0.2
		c0.1-0.2,0.8-0.1,1.5-0.1c-0.7-0.5-0.3-0.8-1.1-1.1c0.8-0.3,0.3,0.2,1.1-0.1l-0.8-0.4c0.2-0.3,0.8,0.3,1-0.2c-0.5,0-1-0.4-0.9-0.8
		l0.3,0.1c-0.3-0.3,0.1-0.7-1.3-0.5l1.3-0.3l-0.9,0.1c0.3-0.8,2.6-1.1,1.4-2c-0.3,0.2-0.8,0-1-0.1c-0.6,0.4,0.7,0.5,0.8,0.9
		c-0.9,0.1-2-0.6-2.6-0.1c1.1-0.5-0.2-1,2.1-1.2c0.1-0.6-1-0.8-0.5-1.5l0.3,0c-1.5-0.1,0.7-0.5-0.9-1l-0.3,0.3
		c-0.6,0-0.6-0.2-0.8-0.4c0.2,0,0.2,0,0.5-0.1c-1.1,0-1.3-0.8-1.6-0.8c-0.2,0.3,0.7,0.6,1,1C433.4,954.9,432.5,954.9,432.7,954.6z"
		/>
	<path fill="#AADBCD" d="M436.8,960.9l-0.5-0.2C436.4,960.8,436.5,960.9,436.8,960.9z"/>
	<path fill="#AADBCD" d="M434.6,951.8c0.2-0.4,0.9,0.1,1.4-0.3c-0.8-0.4-1.6,0.5-2.7,0.1c0.7-0.3-0.5-0.6-0.5-0.8
		c0.7,0.2,2.1,0,2.4,0c-0.4-0.1,0.3-0.5,0.3-0.8c-0.9,0.7-0.6-0.5-1.5,0.1c-0.9,0-1.5-0.6-0.8-0.9c0.6,0,0.5,0.2,0.5,0.4
		c1.2,0.1,0.6-0.4,1.7-0.5c-1.7-0.6-1.6-2.5-4.2-1.9c-0.5,0.2,0.1,0.4,0.3,0.6c0.5-0.6,1.4,0,1.9,0c-0.4,0.3,0.4,0.7-0.5,0.6l-1-0.4
		c-0.5,1.4-0.3,3.2,0.2,4.8l0-0.7c0.7,0.1,0.8,0.4,1.1,0.6l1.7-0.4c-0.1,0.2,0.1,0.4-0.5,0.4c0.7,0.2,1.2,0.1,1.8,0
		c0.3,0.5-0.4,0.6,0.8,1c1.4-0.9-1.2-0.7,0-1.7L434.6,951.8z"/>
	<polygon fill="#AADBCD" points="435.6,953.6 434.7,953.5 435.1,953.8 	"/>
	<path fill="#AADBCD" d="M431.7,953.4c0.4,0,0.6,0.1,0.9,0.1C432.9,953.1,432.4,953.1,431.7,953.4z"/>
	<path fill="#AADBCD" d="M435.4,948.6l-0.3-0.5l-0.3,0.3C435.2,948.4,435.3,948.5,435.4,948.6z"/>
	<path fill="#AADBCD" d="M430.8,945.1c0.2,0.7,1,1,0.1,1.8c1.2,0.4,2.1-0.2,3.2-0.1c0.2-0.4-1.7-0.3-2.1-0.7c1-0.2-0.2-0.6,0-1
		C431.7,945.2,431.2,945.2,430.8,945.1z"/>
	<path fill="#AADBCD" d="M434.6,942.6c0-0.3-0.8-0.6-0.3-0.9c0.6,0,0.8,0.2,0.7,0.4c1.4-0.1-0.2-0.4,0.7-0.7c-0.2,0-0.4,0.2-0.7,0.1
		c0.3-0.9-1.2-0.5-0.4-1.6c-0.4-0.2-0.4-0.3-1.3-0.3c1.2-0.7,1.2-0.3,2.2-1.1c-0.5,0-1.8,0.3-3,0.3c1.6-1.1-0.2-1.1,1-1.8
		c0.1,0.1,0.4,0.2,0.2,0.4c1.6-0.1-0.3-0.6,0-1l1.4,0c-0.2-0.4-1.2-1-0.1-1.4l0.7,0.1c-1.1-0.9-0.6-2-1.1-2.7l0.9-0.4
		c-1.1-1.1-0.5,1.1-2.6,0.3c2.6-0.2-0.8-0.5,0.2-1.2c1-0.3,0.5,0.6,1.7,0.3c-1.3-0.1-0.4-0.3-0.8-0.6c1.2,0,0.2-0.7,1.6-0.5
		l-2.3-1.1c0.7-0.2,0.6-0.5,0.4-0.8c0,0.6-1.8-0.1-2.4,0.6c0.6,1,1.1,2.7,0.4,3.9c1.7,0.1,0,0.8,1.4,1c-0.5,0-1,0.1-1.6,0.2
		c0.4,0.8,0.9-0.2,1.6,0c0.2,0.4-0.8,0.7-1.4,0.6c-0.1,0.6,0.5,0.1,1.4,0.3l-1.9,0.4c0.6,1.8,1.9,4.2,0.9,6.3l1.2-0.2
		c-0.6,0.9,2.6,1.5,0.1,2.4l1,0.3c-0.6-0.1-1.8,0.2-2.6,0c0.4,0.2,0,0.5,0.3,0.8l0.5-0.5c1,0.3,0.4,0.7-0.5,0.8c1.2,0.7,2-0.4,3-0.6
		c-2.2-0.9,2.1-1,1.2-1.9C435.6,942,435.2,942.6,434.6,942.6z"/>
	<path fill="#AADBCD" d="M431.4,943.8c0.1,0.1,0.2,0.1,0.3,0.1C431.6,943.9,431.5,943.9,431.4,943.8z"/>
	<path fill="#AADBCD" d="M433.5,928.3c0-0.1,0-0.2-0.1-0.3C433.2,927.9,433.4,928.1,433.5,928.3z"/>
	<path fill="#AADBCD" d="M432.1,945.1C432.1,945.1,432.1,945.1,432.1,945.1C432.1,945.1,432.1,945.1,432.1,945.1
		C432.1,945.1,432.1,945.1,432.1,945.1z"/>
	<polygon fill="#AADBCD" points="434.9,945.5 435,945.3 434.4,945.3 	"/>
	<path fill="#AADBCD" d="M434.9,925.5l-0.6,0C434.5,925.5,434.7,925.5,434.9,925.5z"/>
	<path fill="#AADBCD" d="M435.2,918l0,0.2C435.3,918.1,435.3,918.1,435.2,918z"/>
	<path fill="#AADBCD" d="M433.6,900.2c-0.4-0.5-0.8-1.1-1.8-1.5l0.6,0c-0.3-0.3-1.3-1.1-2.4-0.5l0.5,0.1c0.9,0.6-1,0.5-1.4,1
		c0.3,0.6,2.6,0.9,2.1,1.4c0.1,0.2-0.5,0.2-1,0.1c-0.2,0.5,1.6,0.7,1.8,1c-4.6,0.2,1.3,1.6-1.6,2.4c0.4,0.5,0,1.1,0.9,1.7
		c-1.2-0.3-0.1,0.6-1.4,0.5c2.7,0.1-1.2,1.8,2.2,1.8c-0.9,0.9,0.2,0-0.6,1c-0.4,0-0.4-0.2-0.5-0.2c-0.7,0.4,1.5,0.6-0.1,0.9
		c-0.2,0.8,0.9,0.1,1.8,0.6c-0.4,0.8-0.9,0.6-2.3,1.1c1.6,0,0.9,0.5,1.7,0.9c0.1-0.1,0.4-0.7,1-0.3c-0.2,0.9,1.1,0.7,1.5,1.6
		c-1.8,0.5-0.1-0.9-1.5-0.1c-0.8-0.5-0.8-1-2.1-1.2c-0.1,0.7,0.2,1.6,1,2.4c-0.2,0.5-0.8-0.2-1,0.1c-0.8,0.8,1.9,1.2,1.1,1.9
		l-0.9-0.1c1.2,0.4-0.2,1.4,0.4,2.2c0.5-0.1,0.8-0.2,1.1-0.1c-2.3,0,1.2,1-0.4,1.8c1.5-0.1,2.3,0.6,2.5,1.1c-0.4,0.2-1,0.1-1.4,0.1
		c0.9-0.8-1.6-0.7-2.3-1.3c0.8,0.5,0,1.3,1.1,1.7l-1.2-0.1c-0.2,0.7,2.6,0.5,1.5,1.3l-0.8-0.1c0.1,1.4-1.3,3.1,0.6,4.2
		c0.7,0.1,2.3-0.5,2.9-0.6c-0.6-0.7-1.8-1-2.5-1.6l1.3,0c-0.9-0.1-1.5-0.7-2.2-0.4c-0.7-0.4,1.2-0.3,0.4-0.8c1.4,0,1.5,0.3,2.7,0.3
		l-0.7-0.4c0.5,0.1,0.5-0.3,1-0.1c-1.7-0.8,0.6-1.1-0.1-1.9l-0.2,0.5c-0.8,0-0.7-0.3-0.9-0.4c1.1-0.2,0.9-0.4,1.4-0.8
		c-0.6-0.3-2-0.5-2-1c1.5,0.1,0.8-0.8,2-0.9c-1.5-0.1-0.5-0.9-1.4-1c-0.3-0.3-0.1-0.6,0.6-0.6c0,0,0.2,0.1,0.3,0.2l0.1-0.3
		c0.2,0,0.3,0,0.3,0c0-0.2-1-0.2-0.3-0.5c0.4,0,0.4,0.2,0.5,0.3c0.2-0.6-2.2-1-0.9-1.6c-0.7-0.1-0.8-0.8-2.3-0.6
		c0.5-0.2,1.8-0.1,1.6-0.7c-1.3-0.3,0.5-0.6-0.4-1c1.4,0.5,0.4,0,1.7,0.4c0.5-0.4-1.2-0.9-1-1.5c0.3-0.1,0.7-0.1,1-0.1
		c-0.5-0.2-1.5-0.5-0.5-0.7l-0.9,0c0.5-0.4,0.2-1,1.2-1.5l-1.8-0.5c1.9-0.7,0.2-1.6-1.5-2.2c0.1-0.3,0.4-0.6,0.8-0.7
		c0.1,0.1,0.4,0.2,0.6,0.3c0.1-0.4,1.1-0.9-0.4-1c-0.5-0.4,1-0.3,1.2-0.6c-2.1-0.8,1.5-2.3-1.7-2.5c0,0.3-0.6,0.9-0.5,1.6
		c-0.4-0.2-1,0-1.1-0.2c-0.2-0.6,1-0.9,0.5-1.6l2,0C435.6,901.9,430.8,901,433.6,900.2z"/>
	<path fill="#AADBCD" d="M433.7,908l1-0.5l-0.9,0.1C434,907.8,434,907.9,433.7,908z"/>
	<path fill="#AADBCD" d="M433.9,907.6c-0.1-0.1-0.2-0.2-0.4-0.3c0,0.1,0,0.2,0.2,0.3L433.9,907.6z"/>
	<path fill="#AADBCD" d="M433.3,898.4c0.1-0.1,0.2-0.3,0-0.5C433,898,433,898.3,433.3,898.4z"/>
	<polygon fill="#AADBCD" points="432.6,897.9 432.3,898.1 432.6,898.2 	"/>
	<path fill="#AADBCD" d="M430.7,884.9l-1.2-0.7c0.6-0.1-0.1-0.9,0.9-0.7c-1.5-0.4-0.1-1.4-2.2-1c0.8,2.1-0.4,5,1.5,7.4l-0.8-0.4
		c1.7,1.2-1.8,1.8,1.5,2.7l-1.7-0.1c-0.5,0.6,2.5,1.1,0.7,1.7l0.7-0.1c0,0.2-0.3,0.2-0.3,0.4l0.3-0.1c0.7,0.4,0.6,0.7,0.1,1.1
		c-0.5,0-0.2-0.2-0.4-0.3c-0.5,0.2,0.6,0.5,0.6,0.8c-0.5,0.3-0.8,0-1,0c0.8,1-1,1.4,1.5,2.1c0.5,0.1,0.9-0.3,1.1,0.1
		c0.8-0.7-0.2-1.2-0.9-1.7l0,0.2c-2.5-0.4,0.6-0.4-0.5-1.1c1,0.2,1,0.5,1.5,0.6c1.9-0.9-1.5-1.2,0.9-1.8l0.1,0.1
		c0.2-0.1-0.2-0.4-0.5-0.5c-0.3,0.1-0.5,0.3-0.7,0.4c-0.2-0.2-1.3-0.3-1.8-0.3c1.1-0.2-0.5-0.3,0-0.6c1-0.1,0.9,0.3,1.5,0.4
		l-0.7-0.4c-0.1-0.4,1.1-0.4,1.6-0.6c-0.8-0.3-0.5,0.2-1.6,0c1.2-0.4,0.9-2.2-0.1-3c0.2,0.3,1.1,0.1,0.9,0.4
		c0.2-0.1-0.3-0.6-1.1-0.6c-0.7-0.6-0.2-1.3,0.5-1.9l-0.8,0.2c-1.3-0.4,0.9-1.2,0.2-2l0,0c-0.2-0.3-2.1-0.4-1.7-0.9
		C429.8,884.7,429.7,884.9,430.7,884.9z"/>
	<path fill="#AADBCD" d="M428.8,882.1l1.1,0.2c0.2-0.3-1.2-0.6-1.9-0.6c0.2,0.2-0.2,0.5,0.4,0.5C428.6,882.2,429,882.2,428.8,882.1z
		"/>
	<path fill="#AADBCD" d="M428.6,876.6c-0.3-0.1-0.7-0.1-1-0.1c0.2,1.1,0.6,2.6-0.2,3c-0.3,0.4,1.3,0.4,1.7,0.9l-1.1,0.2
		c0.7,0.3-0.5,1.1,1.3,0.8c0.2,0-0.8-0.2-0.5-0.4l0.6,0l-0.2-0.5l0.8,0.2c1.1-0.7-2.3-0.5-1.6-1.3l1.6,0c0.1-0.6-0.5-0.9,0.5-1.4
		c0,0-0.8,0-0.5,0.1c-0.1,0.1-0.7,0.2-1.2,0.2c-1.2-0.9,0.9,0.1,1.6-0.5c-1.1-0.7-2-2.1-0.8-2.6c-0.9,0.4-1.9-0.1-1.9-0.6
		c0.5-0.2,0.9,0.1,1.4,0.2c0.2-0.2,0.5-0.4,0.3-0.6c-0.9,0.3-2,0.1-2.5-0.3C425.9,874.9,428.7,875.6,428.6,876.6z"/>
	<path fill="#AADBCD" d="M427.3,876.4c0.1,0.1,0.2,0.1,0.4,0.2c0-0.1,0-0.3,0-0.4L427.3,876.4z"/>
</g>
<g>
	<polygon fill="#AADBCD" points="444,1034.8 444.5,1034.4 443.6,1034 	"/>
	<path fill="#AADBCD" d="M447.9,1033.2l-0.2-1c-2.8-0.1-1.9-0.6-4.1,0.3c0.3,0.6,1,1.8,2.1,1.9c0-0.4-0.9-1.1-0.5-1.5
		c0.7,0.4,0.5,0.9,1.5,1.4c1-0.6-0.5-0.7,0-1.5L447.9,1033.2z"/>
	<path fill="#AADBCD" d="M445.4,1031.6c0.4,0.2,0.9,0.4,1.3,0.4C446.3,1031.8,445.8,1031.3,445.4,1031.6z"/>
	<path fill="#AADBCD" d="M445.3,1031c0.2-0.5,1,0.2,1.1,0.2l-1.6-1L445.3,1031z"/>
	<path fill="#AADBCD" d="M445.9,1028.7c0-0.1-0.1-0.2-0.1-0.3C445.5,1028.5,445.7,1028.6,445.9,1028.7z"/>
	<path fill="#AADBCD" d="M445.9,1027.6c-0.6,0.1-0.3,0.5-0.1,0.9c0,0,0.1,0,0.1,0c0.6-0.2,1.8,0.3,1.3,0.8c0.2,0.6-1,0.3-0.3,0.9
		l1.1-0.4C448,1028.8,446.3,1028,445.9,1027.6z"/>
	<path fill="#AADBCD" d="M445.9,1028.7c0,0.1,0,0.2,0,0.3C446.1,1028.9,446,1028.8,445.9,1028.7z"/>
	<polygon fill="#AADBCD" points="445.5,1029.8 445.7,1030.2 446.2,1030.2 	"/>
	<path fill="#AADBCD" d="M446.2,1025.7c1.7,0.5-0.4,1.3,0.8,1.7c0.1-0.8,1.4-1.1,2.3-0.8l-0.4-0.9
		C448.4,1025.3,447.1,1025.4,446.2,1025.7z"/>
	<path fill="#AADBCD" d="M450.8,1024.9c-0.1-0.1-0.2-0.2-0.3-0.2C450.6,1024.7,450.6,1024.8,450.8,1024.9z"/>
	<path fill="#AADBCD" d="M448.6,1020.2l1.4,2.2c-0.5-0.3-1.1-0.3-1.2-0.8c-0.4,0.8,0.7,1.1,0.4,1.8c-1.6-0.1,0.1-1.3-1.4-1.1
		c0,0.5-0.1,1.3,1.2,1.9l-1.2,0.6l1.8,0.1c0.6-0.2-1.2-0.9,0-0.9c0.8,0,0.8,0.4,1,0.6c-0.3-0.6,1.6-1.2,1.6-2.2
		C452.1,1021.2,449.3,1021,448.6,1020.2z"/>
	<polygon fill="#AADBCD" points="450.5,1020.4 451.2,1020.4 450.3,1020.3 	"/>
	<path fill="#AADBCD" d="M448.6,1017.9l0.9,1.2c-0.2,0.1-0.5,0.1-0.9,0.1c0.4,0,1,0.4,1.4,0.4c1.6-0.2-0.3-1.3-0.5-1.9
		c0.9-1.3,0.8,0.2,2.4-0.1c-0.1,0.4-0.5,0.4-0.7,0.9c1.9-0.6,0.5-2,0.1-2.6c-0.2,0.1-0.7,0.1-0.6,0.4l-0.4-0.7
		C449,1016.1,448.6,1016.6,448.6,1017.9z"/>
	<path fill="#AADBCD" d="M448.3,1019.7c-0.1-0.4,0.1-0.5,0.3-0.5C448.2,1019.2,447.8,1019.3,448.3,1019.7z"/>
	<path fill="#AADBCD" d="M451.4,1015.6c-0.1,0-0.1,0.2,0,0.3C451.4,1015.9,451.5,1015.8,451.4,1015.6z"/>
	<path fill="#AADBCD" d="M449.4,1015.9l0.3-0.7l-0.8,0.2C449,1015.5,449,1015.9,449.4,1015.9z"/>
	<path fill="#AADBCD" d="M455,989.1c-0.7,0-1,0.2-0.9,0.8c-0.9-0.1-0.6-0.8-1.1-1.2c-0.6,0.7-1-0.1-1.9,0c-0.2,0.8,0.9,1.3,0.6,2.1
		c-0.2-0.1-0.6-0.1-0.9,0c0.4,1.1,1.1,2.9,0.2,3.9c-0.4,0.9-0.1,1.7,0.2,2.8c-0.8,3.5-0.3,7.2-1.6,10.9l1.6,0.8
		c-0.8,0.1-0.1,0.9-1.2,0.6c0.2-0.2,0.1-0.4,0.1-0.6c-1.6,0.6-0.2,2.2-0.8,3.1c0.3-0.1,1.8,0,2,0.3c-1.8-0.3-0.1,1.2-2.3,1.1
		c-0.7,0.9,1.6,0.3,1.2,1.2c1.1,0.3,0.7-0.9,1.5-1c0.8,0.4-0.5,0.9,0.6,1c0.8-1.6-1.1-4.9-1.4-7.5l1,0.4c-0.6-1.4-0.4-3.4,1.4-4.3
		c-1,0.1,0.7-1.8-1.5-1.9c0.5-0.3,0.5-0.4,0.7-0.8l-0.7-0.2c0.1-0.6,1.2-0.4,1.2-1.2c-1,0.4-1.2-0.2-2-0.5c1.2-0.7,2.2-1.6,3.1-2.3
		c-0.3,0-0.7,0.1-1.1,0.3c0.4-0.5-0.5-0.5-0.8-0.7c0-0.5,1.2-0.3,1.9-0.2c0.5-0.9-1.8-1.5-1-2.1l-1,0.1c-0.2-1,1-1.7,0.8-2.7
		c1.4-0.4,1.1,1,1.6,1.5c0.3-0.2,0.4-0.6,0.9-0.7c-0.6-0.5-1.5-1.3-2.1-2C454.8,990.8,454.8,989.4,455,989.1z"/>
	<path fill="#AADBCD" d="M455.4,992.1c0.2,0.1,0.4,0.3,0.5,0.3c-0.1-0.1-0.2-0.2-0.1-0.4C455.7,992,455.5,992,455.4,992.1z"/>
	<path fill="#AADBCD" d="M455,989.1c0.1,0,0.1,0,0.2,0C455,989,455,989,455,989.1z"/>
	<path fill="#AADBCD" d="M451,994.8c0,0,0.1-0.1,0.1-0.1c0-0.1,0-0.1,0.1-0.2L451,994.8z"/>
	<path fill="#AADBCD" d="M455.4,996c-0.4,0.2-0.7,0.4-1.1,0.7C454.7,996.6,455,996.6,455.4,996z"/>
	<path fill="#AADBCD" d="M453.6,1002.3c0.2,0.2,0.5,0.1,0.8,0.3C454.4,1002.2,454.1,1002,453.6,1002.3z"/>
	<polygon fill="#AADBCD" points="455.8,990.9 455.5,990.1 455.3,989.8 	"/>
	<path fill="#AADBCD" d="M451.9,974.4c-1.2,0.6-0.6,1.7-0.9,2.5c0.5,1.6,2.6,0.4,2.6,1.9l-2.4-0.4c0,1.5-0.6,3.6,1.4,5
		c-0.3,0.1-0.7,0.3-1-0.1c0,1,3.4,0.8,2.5,2.1c-1.4-1.4-1.5,0.3-2.9-0.2l-0.2-0.2c0.1,0.9,0.8,2,0.6,2.6c0.6,0.1,1.6-0.3,1.6,0.4
		c0.2-0.3,0.8-0.1,1.5,0c-0.6-0.8-0.2-1.2-0.9-1.8c0.8-0.4,0.2,0.3,1.1-0.1l-0.7-0.7c0.2-0.4,0.8,0.5,1-0.2
		c-0.5-0.1-0.9-0.7-0.8-1.3l0.3,0.2c-0.3-0.5,0.2-1-1.2-0.9l1.4-0.4l-0.9,0c0.5-1.1,2.7-1.4,1.7-3c-0.3,0.3-0.8,0-0.9-0.2
		c-0.7,0.6,0.6,0.8,0.7,1.4c-0.9,0-1.9-1.1-2.6-0.4c1.2-0.7,0-1.5,2.3-1.7c0.2-0.9-0.9-1.4-0.3-2.3l0.3,0.1
		c-1.5-0.3,0.7-0.7-0.8-1.6l-0.4,0.5c-0.6-0.1-0.6-0.3-0.7-0.7c0.2,0.1,0.2,0.1,0.5,0c-1.1-0.2-1.2-1.3-1.5-1.5
		c-0.2,0.4,0.6,1.1,0.9,1.6C452.6,974.9,451.7,974.9,451.9,974.4z"/>
	<path fill="#AADBCD" d="M455.2,984.6l-0.5-0.4C454.7,984.4,454.9,984.5,455.2,984.6z"/>
	<path fill="#AADBCD" d="M454.2,970.3c0.3-0.6,0.9,0.2,1.5-0.3c-0.7-0.7-1.6,0.6-2.7-0.1c0.7-0.3-0.4-1-0.4-1.3
		c0.6,0.3,2.1,0.3,2.4,0.2c-0.4-0.3,0.4-0.7,0.4-1.1c-1,0.9-0.5-0.9-1.5,0c-0.9-0.1-1.4-1.1-0.7-1.4c0.6,0.1,0.5,0.4,0.5,0.6
		c1.2,0.3,0.7-0.6,1.8-0.6c-1.6-1.1-1.2-4.1-3.9-3.4c-0.5,0.3,0.1,0.6,0.2,1c0.6-0.9,1.4,0.1,1.9,0.2c-0.5,0.4,0.3,1.2-0.6,0.9
		l-0.9-0.7c-0.6,2.1-0.7,5-0.5,7.5l0.1-1.1c0.7,0.2,0.7,0.7,1,1.1l1.8-0.4c-0.2,0.3,0.1,0.6-0.5,0.5c0.7,0.4,1.2,0.3,1.8,0.1
		c0.2,0.8-0.4,0.9,0.6,1.6c1.5-1.2-1.1-1.2,0.3-2.6L454.2,970.3z"/>
	<polygon fill="#AADBCD" points="454.9,973.2 454.1,972.8 454.5,973.3 	"/>
	<path fill="#AADBCD" d="M451.1,972.4c0.4,0,0.5,0.2,0.9,0.2C452.3,972.1,451.8,972.1,451.1,972.4z"/>
	<path fill="#AADBCD" d="M455.5,965.3l-0.2-0.8l-0.4,0.5C455.2,965,455.4,965.2,455.5,965.3z"/>
	<path fill="#AADBCD" d="M451.3,959.5c0.1,1.1,0.9,1.6-0.1,2.8c1.1,0.7,2.2-0.1,3.2,0.2c0.3-0.6-1.6-0.7-2-1.3
		c1-0.2-0.2-0.9,0.1-1.5C452.1,959.7,451.7,959.6,451.3,959.5z"/>
	<path fill="#AADBCD" d="M455.3,955.9c0-0.5-0.7-1.1-0.2-1.4c0.6,0.1,0.8,0.4,0.6,0.7c1.4-0.1-0.2-0.6,0.8-1c-0.2,0-0.4,0.2-0.7,0
		c0.4-1.3-1.1-0.8-0.2-2.5c-0.4-0.3-0.3-0.5-1.3-0.5c1.2-0.9,1.2-0.4,2.3-1.5c-0.5,0-1.8,0.3-3,0.2c1.7-1.6-0.1-1.7,1.2-2.7
		c0.1,0.1,0.3,0.3,0.2,0.6c1.6,0-0.2-0.9,0.1-1.5l1.4,0.1c-0.2-0.6-1-1.6,0-2.2l0.7,0.2c-1-1.5-0.4-3.1-0.8-4.3l0.9-0.6
		c-1-1.7-0.6,1.6-2.6,0.3c2.6,0-0.8-0.9,0.3-1.8c1-0.4,0.5,1,1.7,0.6c-1.3-0.3-0.3-0.5-0.7-1c1.2,0.2,0.2-1,1.6-0.7l-2.2-1.9
		c0.7-0.2,0.6-0.8,0.5-1.2c-0.1,1-1.8-0.4-2.5,0.7c0.5,1.6,0.8,4.2,0,6.1c1.7,0.3-0.1,1.2,1.3,1.6c-0.5,0-1,0.1-1.6,0.1
		c0.3,1.3,0.9-0.2,1.5,0.1c0.2,0.6-0.9,0.9-1.5,0.9c-0.1,0.9,0.5,0.1,1.4,0.6l-1.9,0.5c0.4,2.8,1.4,6.6,0.2,9.8l1.2-0.2
		c-0.7,1.4,2.4,2.6-0.2,3.7l1,0.5c-0.6-0.3-1.8,0.1-2.5-0.3c0.4,0.4-0.1,0.8,0.2,1.2l0.6-0.7c1,0.6,0.3,1.1-0.6,1.2
		c1.1,1.2,2.1-0.5,3.1-0.7c-2.1-1.7,2.2-1.4,1.4-2.9C456.4,955.1,455.9,956,455.3,955.9z"/>
	<path fill="#AADBCD" d="M452,957.6c0.1,0.1,0.2,0.2,0.3,0.2C452.2,957.8,452.1,957.7,452,957.6z"/>
	<path fill="#AADBCD" d="M455.9,933.7c0-0.1,0-0.2,0-0.4C455.6,933.1,455.8,933.3,455.9,933.7z"/>
	<path fill="#AADBCD" d="M452.5,959.6C452.5,959.6,452.6,959.6,452.5,959.6C452.6,959.6,452.5,959.6,452.5,959.6L452.5,959.6z"/>
	<polygon fill="#AADBCD" points="455.4,960.5 455.4,960.1 454.9,960.2 	"/>
	<path fill="#AADBCD" d="M457.6,929.5l-0.6,0C457.2,929.5,457.4,929.5,457.6,929.5z"/>
	<path fill="#AADBCD" d="M458.6,917.9l0,0.3C458.6,918.1,458.6,918,458.6,917.9z"/>
	<path fill="#AADBCD" d="M458.5,890.1c-0.3-0.8-0.7-1.8-1.7-2.4l0.6,0.1c-0.3-0.4-1.2-1.8-2.4-1l0.5,0.2c0.9,1-1,0.7-1.5,1.4
		c0.3,0.9,2.6,1.5,2,2.3c0.1,0.4-0.6,0.3-1,0.2c-0.2,0.8,1.6,1.2,1.8,1.7c-4.7,0,1.2,2.5-1.8,3.6c0.3,0.8-0.1,1.8,0.8,2.7
		c-1.1-0.6-0.1,0.9-1.4,0.6c2.7,0.4-1.3,2.7,2.1,3c-1,1.3,0.2,0.1-0.6,1.5c-0.4,0-0.4-0.3-0.4-0.4c-0.7,0.6,1.4,1-0.2,1.4
		c-0.3,1.2,0.9,0.2,1.8,1c-0.5,1.2-0.9,0.9-2.3,1.5c1.6,0.2,0.8,0.9,1.6,1.5c0.1-0.1,0.4-1,1-0.4c-0.3,1.4,1,1.2,1.4,2.6
		c-1.8,0.6,0-1.4-1.5-0.2c-0.8-0.9-0.7-1.5-2-2.1c-0.1,1.1,0.1,2.6,0.8,3.9c-0.3,0.7-0.8-0.4-1,0.1c-0.8,1.2,1.7,2,0.9,3l-0.9-0.3
		c1.2,0.7-0.4,2.2,0.2,3.4c0.5-0.1,0.8-0.2,1.1,0c-2.3-0.1,1.1,1.7-0.6,2.7c1.5,0,2.2,1.1,2.4,1.8c-0.4,0.2-1,0.1-1.4,0.1
		c0.9-1.1-1.6-1.2-2.2-2.1c0.7,0.8-0.1,2,0.9,2.7l-1.1-0.3c-0.2,1,2.6,1.1,1.4,2.1l-0.8-0.2c0,2.2-1.7,4.7,0.1,6.6
		c0.7,0.2,2.4-0.6,2.9-0.6c-0.5-1.1-1.7-1.8-2.3-2.6l1.3,0.1c-0.9-0.2-1.4-1.2-2.1-0.7c-0.6-0.7,1.2-0.4,0.5-1.2
		c1.4,0.1,1.5,0.6,2.7,0.7l-0.7-0.7c0.5,0.2,0.5-0.4,1-0.1c-1.6-1.3,0.7-1.7,0-3l-0.3,0.7c-0.8,0-0.7-0.4-0.9-0.8
		c1.1-0.3,1-0.5,1.5-1.1c-0.6-0.6-2-1-1.9-1.7c1.5,0.2,0.9-1.2,2.1-1.3c-1.5-0.2-0.4-1.5-1.3-1.6c-0.3-0.4-0.1-1,0.7-0.9
		c0,0.1,0.2,0.2,0.2,0.3l0.1-0.4c0.2,0,0.3,0,0.3,0.1c0.1-0.4-1-0.4-0.3-0.8c0.4,0,0.4,0.3,0.5,0.5c0.3-0.9-2.1-1.8-0.8-2.5
		c-0.7-0.2-0.7-1.3-2.3-1.1c0.6-0.3,1.8-0.1,1.6-0.9c-1.3-0.5,0.5-0.9-0.3-1.5c1.3,0.9,0.4,0,1.7,0.8c0.6-0.5-1.2-1.4-0.9-2.4
		c0.3-0.1,0.7-0.1,1-0.1c-0.4-0.4-1.5-0.8-0.4-1.1l-0.9,0c0.5-0.6,0.2-1.5,1.3-2.2l-1.7-0.9c1.9-1,0.3-2.5-1.3-3.5
		c0.1-0.4,0.4-1,0.8-1c0.1,0.1,0.4,0.3,0.6,0.5c0.1-0.6,1.1-1.3-0.3-1.7c-0.4-0.6,1-0.4,1.3-0.8c-2-1.3,1.7-3.5-1.5-4
		c0,0.5-0.7,1.4-0.6,2.4c-0.4-0.3-1-0.1-1.1-0.4c-0.1-1,1.1-1.4,0.6-2.4l2,0.2C460.2,892.9,455.5,891.2,458.5,890.1z"/>
	<path fill="#AADBCD" d="M457.9,902.3l1-0.7l-0.9,0C458.2,901.9,458.2,902.1,457.9,902.3z"/>
	<path fill="#AADBCD" d="M458.1,901.7c-0.1-0.1-0.2-0.3-0.4-0.4c0,0.2,0,0.3,0.2,0.4L458.1,901.7z"/>
	<path fill="#AADBCD" d="M458.2,887.3c0.1-0.1,0.3-0.4,0-0.8C458,886.7,457.9,887.1,458.2,887.3z"/>
	<polygon fill="#AADBCD" points="457.6,886.5 457.3,886.8 457.5,886.8 	"/>
	<path fill="#AADBCD" d="M456.5,866.1l-1.2-1.1c0.6-0.2-0.1-1.5,1-1c-1.4-0.7,0-2.1-2.1-1.6c0.7,3.3-0.7,7.7,1.1,11.6l-0.8-0.6
		c1.6,2-1.9,2.6,1.4,4.3l-1.7-0.3c-0.5,0.9,2.4,1.8,0.6,2.7l0.7-0.1c0,0.2-0.3,0.3-0.3,0.6l0.3-0.1c0.7,0.7,0.6,1.1,0.1,1.7
		c-0.5,0-0.2-0.3-0.4-0.5c-0.6,0.3,0.6,0.8,0.6,1.3c-0.5,0.4-0.8,0-1-0.1c0.7,1.5-1.1,2.2,1.4,3.3c0.5,0.1,0.9-0.4,1.1,0.2
		c0.8-1-0.1-1.8-0.8-2.7l0,0.3c-2.4-0.8,0.6-0.5-0.5-1.7c1,0.3,1,0.8,1.5,1.1c1.9-1.3-1.4-2,1.1-2.8l0.1,0.1
		c0.2-0.2-0.2-0.6-0.4-0.9c-0.3,0.1-0.5,0.4-0.7,0.6c-0.2-0.3-1.3-0.5-1.8-0.6c1.1-0.3-0.5-0.5,0-1c1-0.2,0.9,0.5,1.4,0.7l-0.7-0.7
		c-0.1-0.6,1.1-0.6,1.7-0.8c-0.8-0.5-0.6,0.3-1.6-0.2c1.3-0.6,1-3.4,0.1-4.7c0.1,0.5,1.1,0.2,0.9,0.7c0.2-0.2-0.3-0.9-1-0.9
		c-0.7-0.9-0.1-2.1,0.6-2.9l-0.8,0.2c-1.3-0.7,1-1.8,0.3-3l0,0c-0.2-0.4-2-0.8-1.6-1.5C455.6,865.8,455.5,866.2,456.5,866.1z"/>
	<path fill="#AADBCD" d="M454.8,861.7l1.1,0.4c0.3-0.4-1.1-1-1.8-1c0.2,0.3-0.3,0.7,0.4,0.8C454.5,861.9,454.9,861.9,454.8,861.7z"
		/>
	<path fill="#AADBCD" d="M454.8,853.2c-0.2-0.2-0.7-0.1-1-0.2c0.1,1.8,0.5,4-0.4,4.7c-0.3,0.6,1.3,0.7,1.7,1.5l-1.1,0.3
		c0.7,0.4-0.5,1.6,1.3,1.2c0.2,0-0.8-0.4-0.5-0.7l0.6,0.1l-0.2-0.8l0.8,0.3c1.1-1.1-2.3-0.8-1.6-2.2l1.6,0c0.1-0.9-0.4-1.4,0.5-2.1
		c0,0-0.8,0-0.5,0.1c-0.1,0.1-0.7,0.3-1.2,0.2c-1.2-1.4,0.9,0.2,1.6-0.7c-1-1.2-1.9-3.4-0.6-4c-0.9,0.5-1.9-0.3-1.8-0.9
		c0.6-0.3,0.9,0.2,1.4,0.3c0.2-0.3,0.6-0.5,0.3-0.8c-0.9,0.4-2,0.1-2.5-0.6C452.2,850.4,455,851.7,454.8,853.2z"/>
	<path fill="#AADBCD" d="M453.5,852.8c0,0.2,0.2,0.2,0.3,0.3c0-0.2,0-0.4,0-0.6L453.5,852.8z"/>
</g>
<g>
	<polygon fill="#AADBCD" points="476,950 476.3,949.8 475.4,949.6 	"/>
	<path fill="#AADBCD" d="M479.5,949.4l-0.3-0.4c-2.8-0.1-1.9-0.3-4,0c0.4,0.3,1.3,0.8,2.4,0.9c-0.1-0.2-1.1-0.5-0.7-0.7
		c0.8,0.2,0.6,0.4,1.7,0.7c0.9-0.3-0.6-0.3-0.2-0.7L479.5,949.4z"/>
	<path fill="#AADBCD" d="M476.8,948.6c0.5,0.1,0.9,0.2,1.3,0.2C477.7,948.7,477.1,948.4,476.8,948.6z"/>
	<path fill="#AADBCD" d="M476.6,948.3c0.1-0.2,1,0.1,1.2,0.1l-1.7-0.5L476.6,948.3z"/>
	<path fill="#AADBCD" d="M476.8,947.3c0,0-0.1-0.1-0.1-0.1C476.4,947.2,476.6,947.2,476.8,947.3z"/>
	<path fill="#AADBCD" d="M476.7,946.8c-0.6,0-0.3,0.2,0,0.4c0,0,0.1,0,0.1,0c0.5-0.1,1.8,0.2,1.4,0.4c0.3,0.3-1,0.1-0.2,0.4l1.1-0.2
		C478.9,947.4,477.1,947,476.7,946.8z"/>
	<path fill="#AADBCD" d="M476.8,947.3c0,0,0.1,0.1,0.1,0.1C477.1,947.4,477,947.4,476.8,947.3z"/>
	<polygon fill="#AADBCD" points="476.6,947.8 476.9,947.9 477.4,948 	"/>
	<path fill="#AADBCD" d="M476.7,945.9c1.7,0.3-0.3,0.6,1.1,0.8c0-0.3,1.3-0.4,2.2-0.3l-0.5-0.4C478.8,945.8,477.5,945.8,476.7,945.9
		z"/>
	<path fill="#AADBCD" d="M481.1,945.7c-0.1,0-0.2-0.1-0.3-0.1C480.9,945.7,480.9,945.7,481.1,945.7z"/>
	<path fill="#AADBCD" d="M478.3,943.6l1.6,1c-0.5-0.1-1.1-0.2-1.3-0.4c-0.3,0.3,0.8,0.5,0.6,0.8c-1.6-0.1-0.1-0.6-1.5-0.5
		c0,0.2,0.1,0.6,1.4,0.9l-1.1,0.2l1.8,0.1c0.5-0.1-1.3-0.4-0.1-0.4c0.8,0,0.9,0.2,1,0.3c-0.3-0.3,1.4-0.5,1.3-0.9
		C481.9,944.2,479.1,944,478.3,943.6z"/>
	<polygon fill="#AADBCD" points="480.3,943.7 481,943.8 480,943.7 	"/>
	<path fill="#AADBCD" d="M478.1,942.6l1,0.6c-0.2,0-0.5,0-0.8,0c0.4,0,1.1,0.2,1.4,0.2c1.6,0-0.4-0.6-0.7-0.9c0.8-0.5,0.8,0.1,2.4,0
		c-0.1,0.2-0.4,0.1-0.6,0.4c1.8-0.2,0.2-0.9-0.2-1.1c-0.2,0.1-0.7,0-0.5,0.2l-0.5-0.3C478.3,941.8,478,942,478.1,942.6z"/>
	<path fill="#AADBCD" d="M478,943.4c-0.1-0.2,0-0.2,0.2-0.2C477.8,943.1,477.5,943.2,478,943.4z"/>
	<path fill="#AADBCD" d="M480.6,941.7c-0.1,0-0.1,0.1,0,0.1C480.7,941.8,480.7,941.7,480.6,941.7z"/>
	<path fill="#AADBCD" d="M478.7,941.7l0.2-0.3l-0.8,0C478.2,941.5,478.3,941.7,478.7,941.7z"/>
	<path fill="#AADBCD" d="M482.3,930.1c-0.7,0-1,0.1-0.9,0.3c-0.9-0.1-0.7-0.4-1.1-0.6c-0.6,0.3-1-0.1-1.8-0.1c-0.1,0.3,1,0.6,0.7,1
		c-0.2,0-0.6-0.1-0.9-0.1c0.5,0.5,1.2,1.3,0.4,1.7c-0.4,0.4,0,0.7,0.4,1.3c-0.6,1.5,0.1,3.2-0.9,4.8l1.6,0.4c-0.8,0,0,0.4-1.1,0.2
		c0.2-0.1,0.1-0.2,0-0.3c-1.5,0.2,0,1-0.5,1.3c0.3,0,1.8,0.1,2,0.2c-1.9-0.2,0,0.5-2.2,0.4c-0.6,0.4,1.6,0.2,1.3,0.6
		c1.1,0.2,0.6-0.4,1.4-0.4c0.9,0.2-0.4,0.4,0.7,0.5c0.6-0.7-1.5-2.2-2-3.4l1,0.2c-0.7-0.6-0.6-1.5,1.1-1.8c-1,0,0.6-0.8-1.6-0.9
		c0.5-0.1,0.4-0.1,0.7-0.3l-0.7-0.1c0-0.3,1.1-0.1,1.1-0.5c-1,0.1-1.2-0.1-2-0.3c1.1-0.3,2.1-0.6,3-0.9c-0.3,0-0.7,0-1.1,0.1
		c0.4-0.2-0.6-0.2-0.9-0.3c0-0.2,1.2-0.1,1.8,0c0.4-0.4-1.9-0.8-1.1-1l-1,0c-0.2-0.4,0.9-0.7,0.6-1.2c1.4-0.1,1.1,0.5,1.7,0.7
		c0.3-0.1,0.4-0.3,0.8-0.3c-0.7-0.3-1.6-0.7-2.2-1C482.3,930.8,482.2,930.2,482.3,930.1z"/>
	<path fill="#AADBCD" d="M482.9,931.4c0.2,0.1,0.4,0.1,0.5,0.2c-0.1-0.1-0.2-0.1-0.1-0.2C483.2,931.4,483,931.4,482.9,931.4z"/>
	<path fill="#AADBCD" d="M482.3,930.1c0.1,0,0.1,0,0.2,0C482.4,930,482.4,930.1,482.3,930.1z"/>
	<path fill="#AADBCD" d="M478.6,932.4C478.7,932.4,478.7,932.4,478.6,932.4c0.1-0.1,0.1-0.1,0.1-0.1L478.6,932.4z"/>
	<path fill="#AADBCD" d="M483.1,933.2c-0.3,0.1-0.7,0.1-1.1,0.2C482.4,933.4,482.8,933.4,483.1,933.2z"/>
	<path fill="#AADBCD" d="M481.7,935.8c0.2,0.1,0.5,0.1,0.8,0.2C482.5,935.9,482.2,935.8,481.7,935.8z"/>
	<polygon fill="#AADBCD" points="483.2,931 482.9,930.6 482.7,930.4 	"/>
	<path fill="#AADBCD" d="M478.7,923.5c-1.2,0.2-0.5,0.7-0.8,1.1c0.6,0.7,2.6,0.3,2.6,1l-2.4-0.3c0.1,0.7-0.5,1.5,1.6,2.3
		c-0.3,0-0.7,0.1-1-0.1c0.1,0.4,3.4,0.5,2.6,1c-1.5-0.7-1.4,0-2.9-0.2l-0.2-0.1c0.1,0.4,0.9,0.9,0.8,1.2c0.6,0.1,1.6-0.1,1.6,0.3
		c0.1-0.1,0.8,0,1.5,0.1c-0.7-0.4-0.2-0.5-1-0.8c0.8-0.1,0.2,0.2,1.1,0l-0.7-0.3c0.2-0.2,0.8,0.3,1,0c-0.5-0.1-1-0.4-0.8-0.6
		l0.3,0.1c-0.3-0.2,0.1-0.4-1.2-0.5l1.4-0.1l-0.9,0c0.4-0.5,2.6-0.5,1.5-1.2c-0.3,0.1-0.8-0.1-0.9-0.2c-0.7,0.2,0.7,0.4,0.8,0.7
		c-0.9,0-2-0.6-2.6-0.3c1.1-0.3-0.1-0.7,2.2-0.6c0.2-0.4-0.9-0.7-0.4-1l0.3,0c-1.5-0.2,0.7-0.3-0.8-0.7l-0.4,0.2
		c-0.6-0.1-0.6-0.2-0.7-0.3c0.2,0,0.2,0,0.5,0c-1.1-0.1-1.2-0.6-1.5-0.7c-0.2,0.2,0.7,0.5,0.9,0.8
		C479.4,923.7,478.5,923.7,478.7,923.5z"/>
	<path fill="#AADBCD" d="M482.3,928.1l-0.5-0.2C481.9,928,482.1,928.1,482.3,928.1z"/>
	<path fill="#AADBCD" d="M480.8,921.7c0.3-0.2,0.9,0.1,1.4-0.1c-0.7-0.3-1.6,0.2-2.7-0.2c0.7-0.1-0.4-0.5-0.5-0.6
		c0.6,0.2,2.1,0.2,2.4,0.2c-0.4-0.1,0.3-0.3,0.4-0.5c-0.9,0.4-0.5-0.4-1.5-0.1c-0.9-0.1-1.5-0.6-0.8-0.7c0.6,0.1,0.5,0.2,0.5,0.3
		c1.2,0.2,0.7-0.2,1.7-0.2c-1.6-0.5-1.4-1.8-4.1-1.7c-0.5,0.1,0.1,0.3,0.2,0.4c0.6-0.4,1.4,0.1,1.9,0.2c-0.4,0.1,0.4,0.5-0.6,0.4
		l-1-0.4c-0.6,0.9-0.5,2.2-0.2,3.3l0.1-0.5c0.7,0.1,0.7,0.3,1.1,0.5l1.8-0.1c-0.1,0.1,0.1,0.3-0.5,0.2c0.7,0.2,1.2,0.2,1.8,0.1
		c0.3,0.4-0.4,0.4,0.7,0.7c1.5-0.5-1.1-0.6,0.2-1.1L480.8,921.7z"/>
	<polygon fill="#AADBCD" points="481.6,923.1 480.8,922.9 481.2,923.1 	"/>
	<path fill="#AADBCD" d="M477.8,922.5c0.4,0,0.5,0.1,0.9,0.1C479,922.4,478.5,922.4,477.8,922.5z"/>
	<path fill="#AADBCD" d="M481.9,919.6l-0.3-0.4l-0.4,0.2C481.6,919.5,481.8,919.6,481.9,919.6z"/>
	<path fill="#AADBCD" d="M477.5,916.8c0.1,0.5,0.9,0.8,0,1.2c1.1,0.4,2.1,0,3.2,0.2c0.3-0.3-1.7-0.4-2-0.7c1,0-0.2-0.4,0.1-0.7
		C478.3,917,477.9,916.9,477.5,916.8z"/>
	<path fill="#AADBCD" d="M481.4,915.5c0-0.2-0.7-0.5-0.2-0.6c0.6,0.1,0.8,0.2,0.7,0.3c1.4,0-0.2-0.3,0.8-0.4c-0.2,0-0.4,0.1-0.7,0
		c0.4-0.6-1.1-0.4-0.3-1.1c-0.4-0.1-0.4-0.2-1.3-0.3c1.2-0.4,1.2-0.1,2.2-0.6c-0.5,0-1.8,0.1-3,0c1.7-0.6-0.2-0.8,1.1-1.2
		c0.1,0.1,0.3,0.1,0.2,0.3c1.6,0-0.3-0.4,0.1-0.7l1.4,0.1c-0.2-0.3-1.1-0.7-0.1-1l0.7,0.1c-1-0.7-0.5-1.4-1-1.9l0.9-0.2
		c-1-0.8-0.5,0.7-2.6,0c2.6,0.1-0.8-0.4,0.2-0.8c1-0.1,0.5,0.4,1.7,0.3c-1.3-0.2-0.4-0.2-0.7-0.5c1.2,0.1,0.2-0.5,1.6-0.2l-2.2-0.9
		c0.7-0.1,0.6-0.3,0.4-0.5c0,0.4-1.8-0.2-2.4,0.2c0.6,0.7,0.9,1.9,0.2,2.7c1.7,0.2-0.1,0.5,1.3,0.8c-0.5,0-1,0-1.6,0
		c0.3,0.6,0.9-0.1,1.5,0.1c0.2,0.3-0.8,0.4-1.4,0.3c-0.1,0.4,0.5,0.1,1.4,0.3l-1.9,0.1c0.5,1.3,1.6,3,0.5,4.3l1.2,0
		c-0.7,0.6,2.5,1.2,0,1.6l1,0.3c-0.6-0.1-1.8,0-2.5-0.2c0.4,0.2-0.1,0.4,0.3,0.6l0.6-0.3c1,0.3,0.3,0.5-0.5,0.5c1.1,0.6,2-0.1,3-0.2
		c-2.1-0.8,2.2-0.5,1.3-1.2C482.4,915.1,482,915.5,481.4,915.5z"/>
	<path fill="#AADBCD" d="M478.1,916.1c0.1,0,0.2,0.1,0.3,0.1C478.4,916.1,478.3,916.1,478.1,916.1z"/>
	<path fill="#AADBCD" d="M481.2,905.7c0,0,0-0.1-0.1-0.2C480.9,905.4,481.1,905.5,481.2,905.7z"/>
	<path fill="#AADBCD" d="M478.8,917C478.8,917,478.8,917,478.8,917C478.8,917,478.8,917,478.8,917L478.8,917z"/>
	<polygon fill="#AADBCD" points="481.6,917.5 481.6,917.3 481.1,917.3 	"/>
	<path fill="#AADBCD" d="M482.8,903.9l-0.6,0C482.4,903.9,482.6,903.9,482.8,903.9z"/>
	<path fill="#AADBCD" d="M483.4,898.8l0,0.1C483.5,898.9,483.5,898.9,483.4,898.8z"/>
	<path fill="#AADBCD" d="M482.6,886.6c-0.4-0.3-0.7-0.8-1.7-1.1l0.6,0c-0.3-0.2-1.3-0.8-2.4-0.4l0.5,0.1c0.9,0.4-1,0.3-1.4,0.6
		c0.3,0.4,2.6,0.7,2,1c0.1,0.2-0.6,0.1-1,0.1c-0.2,0.3,1.6,0.5,1.8,0.8c-4.6,0,1.3,1.1-1.7,1.5c0.4,0.3-0.1,0.8,0.8,1.2
		c-1.1-0.3-0.1,0.4-1.4,0.3c2.7,0.2-1.3,1.2,2.2,1.4c-1,0.5,0.2,0-0.6,0.7c-0.4,0-0.4-0.1-0.4-0.2c-0.7,0.2,1.4,0.5-0.1,0.6
		c-0.3,0.5,0.9,0.1,1.8,0.5c-0.4,0.5-0.9,0.4-2.3,0.6c1.6,0.1,0.8,0.4,1.7,0.7c0.1-0.1,0.4-0.4,1-0.2c-0.3,0.6,1,0.6,1.5,1.2
		c-1.8,0.2,0-0.6-1.5-0.1c-0.8-0.4-0.7-0.7-2-0.9c-0.1,0.5,0.1,1.1,0.9,1.7c-0.3,0.3-0.8-0.2-1,0c-0.8,0.5,1.8,0.9,1,1.3l-0.9-0.1
		c1.2,0.3-0.3,1,0.3,1.5c0.5,0,0.8-0.1,1.1,0c-2.3-0.1,1.2,0.8-0.5,1.2c1.5,0,2.3,0.6,2.4,0.9c-0.4,0.1-1,0-1.4,0
		c0.9-0.5-1.6-0.6-2.2-1c0.7,0.4-0.1,0.9,1,1.2l-1.1-0.2c-0.2,0.4,2.6,0.5,1.5,1l-0.8-0.1c0.1,1-1.5,2,0.4,2.9
		c0.7,0.1,2.4-0.2,2.9-0.2c-0.6-0.5-1.8-0.8-2.4-1.2l1.3,0.1c-0.9-0.1-1.4-0.6-2.2-0.4c-0.7-0.3,1.2-0.2,0.4-0.5
		c1.4,0.1,1.5,0.3,2.7,0.4l-0.7-0.3c0.5,0.1,0.5-0.1,1,0c-1.7-0.6,0.7-0.7,0-1.3l-0.3,0.3c-0.8,0-0.7-0.2-0.9-0.4
		c1.1-0.1,0.9-0.2,1.4-0.5c-0.6-0.3-2-0.5-2-0.8c1.5,0.1,0.8-0.5,2.1-0.5c-1.5-0.1-0.5-0.7-1.3-0.7c-0.3-0.2-0.1-0.4,0.7-0.4
		c0,0,0.2,0.1,0.2,0.1l0.1-0.2c0.2,0,0.3,0,0.3,0c0-0.2-1-0.2-0.3-0.4c0.4,0,0.4,0.1,0.5,0.2c0.3-0.4-2.2-0.8-0.8-1.1
		c-0.7-0.1-0.7-0.6-2.3-0.5c0.5-0.1,1.8,0,1.6-0.4c-1.3-0.3,0.5-0.4-0.3-0.7c1.4,0.4,0.4,0,1.7,0.4c0.6-0.2-1.2-0.6-0.9-1.1
		c0.3,0,0.7,0,1,0c-0.5-0.2-1.5-0.4-0.4-0.5l-0.9,0c0.5-0.3,0.2-0.7,1.2-0.9l-1.8-0.4c1.9-0.4,0.2-1.1-1.4-1.5
		c0.1-0.2,0.4-0.4,0.8-0.4c0.1,0,0.4,0.1,0.6,0.2c0.1-0.3,1.1-0.5-0.4-0.7c-0.4-0.3,1-0.2,1.3-0.3c-2.1-0.6,1.6-1.5-1.6-1.8
		c0,0.2-0.7,0.6-0.5,1c-0.4-0.1-1-0.1-1.1-0.2c-0.1-0.4,1-0.6,0.5-1l2,0.1C484.4,887.9,479.7,887.1,482.6,886.6z"/>
	<path fill="#AADBCD" d="M482.4,892l1-0.3l-0.9,0C482.7,891.8,482.7,891.9,482.4,892z"/>
	<path fill="#AADBCD" d="M482.5,891.7c-0.1-0.1-0.2-0.1-0.4-0.2c0,0.1,0,0.1,0.2,0.2L482.5,891.7z"/>
	<path fill="#AADBCD" d="M482.3,885.4c0.1-0.1,0.2-0.2,0-0.3C482.1,885.1,482,885.3,482.3,885.4z"/>
	<polygon fill="#AADBCD" points="481.7,885 481.3,885.1 481.6,885.2 	"/>
	<path fill="#AADBCD" d="M480.1,876.1l-1.2-0.5c0.6-0.1-0.1-0.6,0.9-0.4c-1.5-0.3,0-0.9-2.1-0.7c0.7,1.4-0.5,3.4,1.3,5l-0.8-0.3
		c1.7,0.9-1.9,1.1,1.4,1.9l-1.7-0.1c-0.5,0.4,2.4,0.8,0.6,1.2l0.7,0c0,0.1-0.3,0.1-0.3,0.3l0.3,0c0.7,0.3,0.6,0.5,0.1,0.7
		c-0.5,0-0.2-0.1-0.4-0.2c-0.6,0.1,0.6,0.4,0.6,0.6c-0.5,0.2-0.8,0-1,0c0.7,0.7-1.1,0.9,1.5,1.5c0.5,0.1,0.9-0.2,1.1,0.1
		c0.8-0.4-0.2-0.8-0.9-1.2l0,0.1c-2.5-0.4,0.6-0.2-0.5-0.8c1,0.2,1,0.4,1.5,0.5c1.9-0.5-1.4-0.9,1-1.2l0.1,0
		c0.2-0.1-0.2-0.2-0.4-0.4c-0.3,0-0.5,0.2-0.7,0.2c-0.2-0.1-1.3-0.2-1.8-0.3c1.1-0.1-0.5-0.2,0-0.4c1-0.1,0.9,0.2,1.5,0.3l-0.7-0.3
		c-0.1-0.3,1.1-0.2,1.6-0.4c-0.8-0.2-0.5,0.1-1.6-0.1c1.3-0.3,0.9-1.5,0-2.1c0.1,0.2,1.1,0.1,0.9,0.3c0.2-0.1-0.3-0.4-1.1-0.4
		c-0.7-0.4-0.2-0.9,0.5-1.3l-0.8,0.1c-1.3-0.3,1-0.8,0.2-1.3l0,0c-0.2-0.2-2.1-0.4-1.7-0.7C479.2,875.9,479.1,876.1,480.1,876.1z"/>
	<path fill="#AADBCD" d="M478.3,874.2l1.1,0.2c0.2-0.2-1.1-0.5-1.8-0.4c0.2,0.1-0.3,0.3,0.4,0.3
		C478.1,874.2,478.5,874.3,478.3,874.2z"/>
	<path fill="#AADBCD" d="M478.1,870.5c-0.2-0.1-0.7-0.1-1-0.1c0.1,0.8,0.6,1.7-0.3,2c-0.3,0.3,1.3,0.3,1.7,0.6l-1.1,0.1
		c0.7,0.2-0.5,0.7,1.3,0.5c0.2,0-0.8-0.2-0.5-0.3l0.6,0l-0.2-0.4l0.8,0.1c1.1-0.5-2.3-0.4-1.6-0.9l1.6,0c0.1-0.4-0.4-0.6,0.5-0.9
		c0,0-0.8,0-0.5,0.1c-0.1,0.1-0.7,0.1-1.2,0.1c-1.2-0.6,0.9,0.1,1.6-0.3c-1.1-0.5-2-1.5-0.7-1.8c-0.9,0.2-1.9-0.1-1.8-0.4
		c0.5-0.1,0.9,0.1,1.4,0.1c0.2-0.1,0.6-0.2,0.3-0.4c-0.9,0.2-2,0.1-2.5-0.2C475.5,869.3,478.3,869.8,478.1,870.5z"/>
	<path fill="#AADBCD" d="M476.8,870.3c0.1,0.1,0.2,0.1,0.4,0.1c0-0.1,0-0.2,0-0.3L476.8,870.3z"/>
</g>
<g>
	<polygon fill="#AADBCD" points="472.6,1060.8 472.9,1060.7 472,1060.6 	"/>
	<path fill="#AADBCD" d="M476.1,1060.4l-0.4-0.3c-2.8-0.1-1.9-0.2-3.9,0c0.4,0.2,1.3,0.6,2.4,0.6c-0.1-0.1-1.1-0.3-0.8-0.5
		c0.8,0.1,0.7,0.3,1.7,0.4c0.9-0.2-0.7-0.2-0.3-0.4L476.1,1060.4z"/>
	<path fill="#AADBCD" d="M473.3,1059.9c0.5,0.1,0.9,0.1,1.3,0.2C474.2,1060,473.6,1059.8,473.3,1059.9z"/>
	<path fill="#AADBCD" d="M473.1,1059.7c0.1-0.1,1,0.1,1.2,0.1l-1.8-0.3L473.1,1059.7z"/>
	<path fill="#AADBCD" d="M473.2,1059.1c0,0-0.1-0.1-0.2-0.1C472.8,1059,473,1059,473.2,1059.1z"/>
	<path fill="#AADBCD" d="M473.1,1058.7c-0.6,0-0.3,0.1,0,0.3c0,0,0.1,0,0.1,0c0.5,0,1.8,0.1,1.4,0.3c0.3,0.2-1,0.1-0.2,0.3l1-0.1
		C475.4,1059.1,473.6,1058.9,473.1,1058.7z"/>
	<path fill="#AADBCD" d="M473.2,1059.1C473.3,1059.1,473.3,1059.1,473.2,1059.1C473.5,1059.1,473.4,1059.1,473.2,1059.1z"/>
	<polygon fill="#AADBCD" points="473.1,1059.4 473.3,1059.5 473.9,1059.5 	"/>
	<path fill="#AADBCD" d="M473,1058.2c1.7,0.2-0.2,0.4,1.1,0.5c-0.1-0.2,1.2-0.3,2.2-0.2l-0.5-0.3
		C475.1,1058.1,473.8,1058.1,473,1058.2z"/>
	<path fill="#AADBCD" d="M477.4,1058.1c-0.1,0-0.2-0.1-0.3-0.1C477.2,1058,477.3,1058.1,477.4,1058.1z"/>
	<path fill="#AADBCD" d="M474.5,1056.7l1.7,0.7c-0.6-0.1-1.1-0.1-1.3-0.3c-0.3,0.2,0.8,0.3,0.7,0.5c-1.6-0.1-0.1-0.4-1.5-0.4
		c0,0.1,0.1,0.4,1.4,0.6l-1.1,0.1l1.8,0.1c0.5,0-1.4-0.3-0.1-0.3c0.8,0,0.9,0.1,1.1,0.2c-0.3-0.2,1.4-0.3,1.2-0.6
		C478.1,1057.1,475.4,1056.9,474.5,1056.7z"/>
	<polygon fill="#AADBCD" points="476.5,1056.8 477.2,1056.8 476.2,1056.8 	"/>
	<path fill="#AADBCD" d="M474.2,1056l1.1,0.4c-0.2,0-0.5,0-0.8,0c0.4,0,1.1,0.2,1.4,0.2c1.6,0-0.5-0.4-0.7-0.6
		c0.7-0.3,0.9,0.1,2.4,0.1c-0.1,0.1-0.4,0.1-0.5,0.2c1.8-0.1,0.2-0.5-0.2-0.7c-0.2,0-0.7,0-0.5,0.1l-0.5-0.2
		C474.4,1055.5,474.1,1055.6,474.2,1056z"/>
	<path fill="#AADBCD" d="M474.2,1056.5c-0.1-0.1,0-0.1,0.2-0.1C474,1056.4,473.7,1056.4,474.2,1056.5z"/>
	<path fill="#AADBCD" d="M476.7,1055.4C476.6,1055.5,476.6,1055.5,476.7,1055.4C476.8,1055.5,476.8,1055.5,476.7,1055.4z"/>
	<path fill="#AADBCD" d="M474.8,1055.5l0.2-0.2l-0.8,0C474.3,1055.3,474.4,1055.4,474.8,1055.5z"/>
	<path fill="#AADBCD" d="M477.8,1048c-0.7,0-1,0-0.9,0.2c-0.9-0.1-0.7-0.3-1.2-0.4c-0.6,0.2-1-0.1-1.8-0.1c-0.1,0.2,1,0.4,0.8,0.6
		c-0.2,0-0.6-0.1-0.9-0.1c0.5,0.3,1.3,0.9,0.5,1.1c-0.3,0.2,0,0.5,0.4,0.8c-0.5,1,0.3,2.1-0.6,3.1l1.7,0.3c-0.8,0,0,0.3-1.1,0.1
		c0.2,0,0-0.1,0-0.2c-1.5,0.1,0.1,0.6-0.5,0.8c0.3,0,1.8,0.1,2,0.2c-1.9-0.2,0,0.3-2.1,0.2c-0.6,0.2,1.6,0.1,1.3,0.4
		c1.1,0.1,0.6-0.2,1.4-0.2c0.9,0.2-0.4,0.2,0.8,0.3c0.6-0.4-1.6-1.5-2.2-2.2l1,0.2c-0.7-0.4-0.7-1,1-1.2c-1,0,0.6-0.5-1.7-0.6
		c0.5,0,0.4-0.1,0.6-0.2l-0.7-0.1c0-0.2,1.1-0.1,1.1-0.3c-1,0.1-1.2-0.1-2-0.2c1.1-0.2,2.1-0.4,2.9-0.5c-0.3,0-0.7,0-1.1,0
		c0.4-0.1-0.6-0.2-0.9-0.2c0-0.1,1.2,0,1.8,0c0.4-0.2-2-0.5-1.1-0.7l-1,0c-0.2-0.3,0.9-0.4,0.6-0.7c1.4,0,1.1,0.3,1.7,0.5
		c0.3,0,0.4-0.2,0.8-0.2c-0.7-0.2-1.6-0.5-2.2-0.7C477.8,1048.5,477.7,1048.1,477.8,1048z"/>
	<path fill="#AADBCD" d="M478.5,1048.9c0.2,0.1,0.4,0.1,0.5,0.1c-0.1,0-0.2-0.1-0.1-0.1C478.7,1048.9,478.6,1048.9,478.5,1048.9z"/>
	<path fill="#AADBCD" d="M477.8,1048c0.1,0,0.1,0,0.2,0C477.9,1048,477.9,1048,477.8,1048z"/>
	<path fill="#AADBCD" d="M474.2,1049.4C474.3,1049.4,474.3,1049.4,474.2,1049.4c0.1,0,0.1-0.1,0.1-0.1L474.2,1049.4z"/>
	<path fill="#AADBCD" d="M478.7,1050c-0.3,0-0.7,0.1-1.1,0.1C478.1,1050.2,478.4,1050.2,478.7,1050z"/>
	<path fill="#AADBCD" d="M477.4,1051.7c0.2,0.1,0.5,0.1,0.8,0.1C478.3,1051.7,478,1051.7,477.4,1051.7z"/>
	<polygon fill="#AADBCD" points="478.7,1048.6 478.4,1048.3 478.2,1048.2 	"/>
	<path fill="#AADBCD" d="M474,1043.6c-1.2,0.1-0.5,0.4-0.7,0.7c0.6,0.5,2.6,0.3,2.7,0.7l-2.4-0.3c0.1,0.4-0.4,1,1.7,1.5
		c-0.3,0-0.7,0.1-1-0.1c0.1,0.3,3.4,0.4,2.6,0.7c-1.5-0.5-1.4,0-2.9-0.2l-0.2-0.1c0.1,0.3,0.9,0.6,0.8,0.8c0.6,0.1,1.6,0,1.6,0.2
		c0.1-0.1,0.8,0,1.5,0.1c-0.7-0.3-0.2-0.4-1-0.6c0.8-0.1,0.3,0.1,1.1,0l-0.7-0.2c0.2-0.1,0.8,0.2,1,0c-0.5-0.1-1-0.3-0.9-0.4
		l0.3,0.1c-0.3-0.1,0.1-0.3-1.3-0.3l1.4,0l-0.9-0.1c0.4-0.3,2.6-0.2,1.5-0.8c-0.3,0.1-0.8-0.1-0.9-0.1c-0.6,0.1,0.7,0.3,0.8,0.5
		c-0.9-0.1-2-0.4-2.6-0.3c1.1-0.1-0.1-0.4,2.2-0.3c0.2-0.3-0.9-0.5-0.4-0.7l0.3,0c-1.5-0.2,0.7-0.2-0.8-0.5l-0.3,0.1
		c-0.6-0.1-0.6-0.1-0.7-0.2c0.2,0,0.2,0,0.5,0c-1.1-0.1-1.2-0.4-1.6-0.5c-0.2,0.1,0.7,0.3,1,0.5
		C474.7,1043.8,473.8,1043.8,474,1043.6z"/>
	<path fill="#AADBCD" d="M477.8,1046.8l-0.5-0.1C477.3,1046.7,477.5,1046.7,477.8,1046.8z"/>
	<path fill="#AADBCD" d="M476,1042.6c0.3-0.2,0.9,0.1,1.4,0c-0.7-0.2-1.6,0.1-2.7-0.2c0.7-0.1-0.5-0.3-0.5-0.4
		c0.6,0.1,2.1,0.2,2.4,0.2c-0.4-0.1,0.3-0.2,0.4-0.3c-0.9,0.2-0.5-0.3-1.5-0.1c-0.9-0.1-1.5-0.4-0.8-0.5c0.6,0.1,0.5,0.1,0.5,0.2
		c1.2,0.2,0.7-0.1,1.7-0.1c-1.6-0.4-1.4-1.2-4.1-1.2c-0.5,0,0.1,0.2,0.2,0.3c0.5-0.2,1.4,0.1,1.9,0.2c-0.4,0.1,0.4,0.4-0.6,0.2
		l-1-0.3c-0.6,0.6-0.4,1.4-0.1,2.1l0.1-0.3c0.7,0.1,0.7,0.2,1.1,0.4l1.7,0c-0.1,0.1,0.1,0.2-0.5,0.1c0.7,0.2,1.2,0.2,1.8,0.1
		c0.3,0.2-0.4,0.2,0.7,0.5c1.5-0.3-1.2-0.4,0.1-0.7L476,1042.6z"/>
	<polygon fill="#AADBCD" points="476.9,1043.5 476,1043.3 476.4,1043.5 	"/>
	<path fill="#AADBCD" d="M473.1,1043c0.4,0,0.6,0.1,0.9,0.1C474.3,1043,473.7,1043,473.1,1043z"/>
	<path fill="#AADBCD" d="M477,1041.2l-0.3-0.2l-0.3,0.1C476.8,1041.1,477,1041.2,477,1041.2z"/>
	<path fill="#AADBCD" d="M472.6,1039.3c0.1,0.3,1,0.5,0,0.8c1.1,0.3,2.1,0.1,3.2,0.3c0.3-0.2-1.7-0.3-2-0.5c1,0-0.2-0.3,0-0.4
		C473.5,1039.4,473,1039.4,472.6,1039.3z"/>
	<path fill="#AADBCD" d="M476.5,1038.6c0-0.1-0.7-0.3-0.3-0.4c0.6,0.1,0.8,0.2,0.7,0.2c1.4,0.1-0.2-0.2,0.7-0.3c-0.2,0-0.4,0-0.7,0
		c0.4-0.4-1.1-0.3-0.3-0.7c-0.4-0.1-0.4-0.2-1.3-0.2c1.2-0.2,1.2,0,2.2-0.3c-0.5,0-1.8,0-3-0.1c1.7-0.3-0.2-0.5,1.1-0.7
		c0.1,0,0.3,0.1,0.2,0.2c1.6,0.1-0.3-0.3,0.1-0.4l1.4,0.1c-0.2-0.2-1.1-0.5-0.1-0.6l0.7,0.1c-1-0.5-0.5-0.9-1-1.3l0.9-0.1
		c-1-0.6-0.5,0.4-2.6-0.1c2.6,0.2-0.8-0.3,0.2-0.5c1,0,0.5,0.3,1.7,0.3c-1.3-0.2-0.4-0.2-0.7-0.3c1.2,0.1,0.2-0.3,1.6-0.1l-2.2-0.7
		c0.7,0,0.6-0.2,0.4-0.3c0,0.3-1.8-0.2-2.4,0c0.6,0.5,0.9,1.3,0.2,1.8c1.7,0.2-0.1,0.4,1.3,0.6c-0.5,0-1,0-1.6-0.1
		c0.3,0.4,0.9,0,1.5,0.1c0.2,0.2-0.8,0.2-1.4,0.2c-0.1,0.2,0.5,0.1,1.4,0.3l-1.9,0c0.5,0.8,1.7,2,0.5,2.8l1.2,0
		c-0.7,0.4,2.5,0.9,0,1.1l1,0.2c-0.6-0.1-1.8-0.1-2.5-0.2c0.4,0.1-0.1,0.2,0.3,0.4l0.6-0.2c1,0.2,0.4,0.3-0.5,0.3c1.2,0.4,2,0,3,0
		c-2.1-0.6,2.1-0.3,1.3-0.7C477.5,1038.4,477.1,1038.6,476.5,1038.6z"/>
	<path fill="#AADBCD" d="M473.2,1038.8c0.1,0,0.2,0.1,0.3,0.1C473.5,1038.9,473.4,1038.9,473.2,1038.8z"/>
	<path fill="#AADBCD" d="M476.2,1032.2c0,0,0-0.1-0.1-0.1C475.9,1032,476.1,1032.1,476.2,1032.2z"/>
	<path fill="#AADBCD" d="M473.9,1039.4C473.9,1039.4,473.9,1039.4,473.9,1039.4C473.9,1039.4,473.9,1039.4,473.9,1039.4
		C473.9,1039.4,473.9,1039.4,473.9,1039.4z"/>
	<polygon fill="#AADBCD" points="476.7,1039.9 476.8,1039.8 476.2,1039.7 	"/>
	<path fill="#AADBCD" d="M477.8,1031.1l-0.6-0.1C477.3,1031.1,477.5,1031.1,477.8,1031.1z"/>
	<path fill="#AADBCD" d="M478.4,1027.9L478.4,1027.9C478.5,1028,478.4,1027.9,478.4,1027.9z"/>
	<path fill="#AADBCD" d="M477.8,1020c-0.4-0.2-0.7-0.6-1.7-0.8l0.6,0.1c-0.3-0.1-1.2-0.6-2.4-0.4l0.5,0.1c0.9,0.3-1,0.1-1.4,0.3
		c0.3,0.3,2.6,0.6,2,0.8c0.1,0.1-0.6,0-1,0c-0.2,0.2,1.6,0.4,1.8,0.6c-4.6-0.3,1.2,0.8-1.8,0.9c0.4,0.2-0.1,0.5,0.8,0.8
		c-1.1-0.2-0.1,0.2-1.4,0.1c2.7,0.3-1.3,0.7,2.1,1c-1,0.3,0.2,0-0.6,0.4c-0.4,0-0.4-0.1-0.4-0.1c-0.7,0.1,1.4,0.4-0.1,0.4
		c-0.3,0.3,0.9,0.1,1.8,0.4c-0.4,0.3-0.9,0.2-2.3,0.3c1.6,0.2,0.8,0.3,1.6,0.6c0.1,0,0.4-0.2,1,0c-0.3,0.4,1,0.4,1.4,0.8
		c-1.8,0,0-0.4-1.5-0.2c-0.8-0.3-0.7-0.5-2-0.7c-0.1,0.3,0.1,0.7,0.9,1.2c-0.3,0.2-0.8-0.2-1,0c-0.8,0.3,1.8,0.7,1,0.9l-0.9-0.1
		c1.2,0.3-0.3,0.6,0.3,1c0.5,0,0.8,0,1.1,0.1c-2.3-0.2,1.2,0.6-0.5,0.7c1.5,0.1,2.3,0.5,2.4,0.7c-0.4,0-1,0-1.4-0.1
		c0.9-0.3-1.6-0.4-2.2-0.8c0.7,0.3-0.1,0.6,1,0.8l-1.1-0.2c-0.2,0.3,2.6,0.5,1.5,0.7l-0.8-0.1c0.1,0.6-1.5,1.2,0.3,1.9
		c0.7,0.1,2.4,0,2.9,0c-0.6-0.3-1.8-0.6-2.4-0.9l1.3,0.1c-0.9-0.1-1.4-0.4-2.1-0.4c-0.7-0.2,1.2,0,0.4-0.3c1.4,0.1,1.5,0.3,2.7,0.4
		l-0.7-0.2c0.5,0.1,0.5-0.1,1,0c-1.6-0.5,0.7-0.4,0-0.8l-0.3,0.2c-0.8-0.1-0.7-0.2-0.9-0.3c1.1,0,0.9-0.1,1.4-0.2
		c-0.6-0.2-2-0.4-1.9-0.6c1.5,0.2,0.8-0.3,2.1-0.2c-1.5-0.2-0.5-0.5-1.3-0.6c-0.3-0.1-0.1-0.3,0.7-0.2c0,0,0.2,0.1,0.2,0.1l0.1-0.1
		c0.2,0,0.3,0,0.3,0c0-0.1-1-0.2-0.3-0.3c0.4,0,0.4,0.1,0.5,0.2c0.3-0.2-2.2-0.7-0.8-0.8c-0.7-0.1-0.7-0.4-2.3-0.5
		c0.5,0,1.8,0.1,1.6-0.1c-1.3-0.2,0.5-0.2-0.3-0.5c1.3,0.3,0.4,0,1.7,0.3c0.6-0.1-1.2-0.5-0.9-0.7c0.3,0,0.7,0,1,0
		c-0.5-0.1-1.5-0.3-0.4-0.3l-0.9-0.1c0.5-0.1,0.2-0.4,1.2-0.5l-1.7-0.4c1.9-0.2,0.3-0.7-1.3-1.1c0.1-0.1,0.4-0.2,0.8-0.2
		c0.1,0,0.4,0.1,0.6,0.2c0.1-0.2,1.1-0.3-0.4-0.5c-0.4-0.2,1,0,1.3-0.1c-2-0.5,1.6-0.9-1.5-1.3c0,0.1-0.7,0.4-0.6,0.6
		c-0.4-0.1-1-0.1-1.1-0.2c-0.1-0.3,1.1-0.3,0.6-0.6l2,0.2C479.6,1020.9,474.9,1020.1,477.8,1020z"/>
	<path fill="#AADBCD" d="M477.4,1023.4l1-0.1l-0.9-0.1C477.7,1023.3,477.7,1023.4,477.4,1023.4z"/>
	<path fill="#AADBCD" d="M477.6,1023.3c-0.1,0-0.2-0.1-0.4-0.1c0,0,0,0.1,0.2,0.1L477.6,1023.3z"/>
	<path fill="#AADBCD" d="M477.5,1019.2c0.1,0,0.3-0.1,0-0.2C477.3,1019,477.2,1019.1,477.5,1019.2z"/>
	<polygon fill="#AADBCD" points="476.9,1018.9 476.6,1019 476.8,1019 	"/>
	<path fill="#AADBCD" d="M475.6,1013.1l-1.2-0.4c0.6,0-0.1-0.4,1-0.2c-1.4-0.3,0-0.6-2.1-0.6c0.6,1-0.7,2.1,1.1,3.4l-0.8-0.2
		c1.6,0.7-1.9,0.6,1.4,1.3l-1.7-0.2c-0.5,0.2,2.4,0.7,0.6,0.8l0.7,0c0,0.1-0.3,0.1-0.3,0.1l0.3,0c0.7,0.2,0.6,0.3,0.1,0.5
		c-0.5,0-0.2-0.1-0.4-0.2c-0.6,0,0.6,0.3,0.6,0.4c-0.5,0.1-0.8-0.1-1-0.1c0.7,0.5-1.1,0.5,1.4,1c0.5,0.1,0.9,0,1.1,0.1
		c0.8-0.2-0.2-0.5-0.8-0.8l0,0.1c-2.4-0.4,0.6-0.1-0.5-0.5c1,0.2,1,0.3,1.5,0.4c1.9-0.2-1.4-0.7,1-0.7l0.1,0c0.2,0-0.2-0.2-0.4-0.3
		c-0.3,0-0.5,0.1-0.7,0.1c-0.2-0.1-1.3-0.2-1.8-0.3c1.1,0-0.5-0.2,0-0.3c1,0,0.9,0.2,1.4,0.3l-0.7-0.2c-0.1-0.2,1.1-0.1,1.7-0.1
		c-0.8-0.2-0.5,0-1.6-0.2c1.3-0.1,1-0.9,0-1.3c0.1,0.1,1.1,0.1,0.9,0.3c0.2,0-0.3-0.3-1-0.3c-0.7-0.3-0.1-0.6,0.6-0.8l-0.8,0
		c-1.3-0.3,1-0.4,0.3-0.8l0,0c-0.2-0.1-2-0.4-1.6-0.6C474.8,1012.9,474.7,1013,475.6,1013.1z"/>
	<path fill="#AADBCD" d="M474,1011.7l1.1,0.2c0.2-0.1-1.1-0.4-1.8-0.4c0.2,0.1-0.3,0.2,0.4,0.2
		C473.7,1011.7,474.1,1011.7,474,1011.7z"/>
	<path fill="#AADBCD" d="M474,1009.3c-0.2-0.1-0.6-0.1-1-0.1c0.1,0.5,0.5,1.2-0.4,1.3c-0.3,0.1,1.3,0.3,1.6,0.6l-1.1,0
		c0.7,0.2-0.5,0.4,1.3,0.4c0.2,0-0.8-0.2-0.5-0.2l0.6,0.1l-0.2-0.2l0.8,0.1c1.1-0.2-2.3-0.4-1.5-0.7l1.5,0.1
		c0.1-0.2-0.4-0.4,0.6-0.6c0,0-0.8-0.1-0.5,0c-0.1,0-0.7,0-1.2,0c-1.2-0.5,0.9,0.1,1.6-0.1c-1-0.4-1.9-1.1-0.6-1.2
		c-0.9,0.1-1.9-0.2-1.8-0.4c0.6,0,0.9,0.1,1.4,0.2c0.2-0.1,0.6-0.1,0.3-0.2c-0.9,0-2-0.1-2.5-0.4
		C471.4,1008.3,474.2,1008.9,474,1009.3z"/>
	<path fill="#AADBCD" d="M472.7,1009c0,0,0.2,0.1,0.3,0.1c0-0.1,0-0.1,0-0.2L472.7,1009z"/>
</g>
<g>
	<polygon fill="#FFC235" points="479.3,318.5 480.4,318.4 479.2,316.8 	"/>
	<path fill="#FFC235" d="M482.3,304.2c-1-1.4-1.5-4-3.8-4.3l1.8,2.6c-1.8,0.1-1.9,1.7-1.5,3.1l0.1-1.5c0.2,0.4,1.3,0.3,1.5,0.7
		c-1.2,2.2,1.1,3.1-1.1,5.1l-0.2-0.1l0.9,1.9c-0.3,0.5-1.1,0.2-1.4,0c0.7,1.6,1.5,2.9,1.1,5c3.3-1.2-1.8-4.9,1.5-6.1l0.2,0.1
		C480.6,308.5,482.9,306.4,482.3,304.2z"/>
	<path fill="#FFC235" d="M478.7,311.5l-0.1-0.1C478.5,311.4,478.6,311.4,478.7,311.5z"/>
	<path fill="#FFC235" d="M490.9,228.7l-0.5-0.1C490.6,228.7,490.8,228.8,490.9,228.7z"/>
	<path fill="#FFC235" d="M482.9,253.7l0.1-0.1C482.3,253.4,482.5,253.5,482.9,253.7z"/>
	<path fill="#FFC235" d="M488.9,89.6l0.7-0.6C488.9,89.3,488.8,89.4,488.9,89.6z"/>
	<path fill="#FFC235" d="M486.5,55.3L486.5,55.3C486.4,55.3,486.4,55.3,486.5,55.3z"/>
	<path fill="#FFC235" d="M478.2,71.8l-0.6,0.1C478,72,478.1,71.9,478.2,71.8z"/>
	<path fill="#FFC235" d="M475.9,61c0.1-0.3,0.2-0.6,0.2-0.9C475.8,60.3,475.8,60.7,475.9,61z"/>
	<path fill="#FFC235" d="M486.8,55.6c-0.1-0.1-0.2-0.2-0.3-0.3C486.5,55.5,486.6,55.6,486.8,55.6z"/>
	<path fill="#FFC235" d="M478.4,88.4l-1.6,0.5C477.3,88.9,477.9,88.6,478.4,88.4z"/>
	<path fill="#FFC235" d="M474.3,58.4c0.3-0.2,0.4-0.4,0.5-0.6C474.6,57.9,474.3,58.1,474.3,58.4z"/>
	<path fill="#FFC235" d="M482.5,302c0,0.3,0,0.7,0.1,1.1C482.8,302.7,482.7,302.4,482.5,302z"/>
	<path fill="#FFC235" d="M479.7,150.3c-0.2-0.1-0.4-0.1-0.6-0.2C479.2,150.4,479.5,150.4,479.7,150.3z"/>
	<path fill="#FFC235" d="M478.8,114.1l-0.1-0.1c-0.1,0-0.2,0.1-0.3,0.2L478.8,114.1z"/>
	<path fill="#FFC235" d="M479.5,124.6c-0.1,0-0.2-0.1-0.4-0.1C479.3,124.6,479.4,124.6,479.5,124.6z"/>
	<path fill="#FFC235" d="M476.6,106.2c-0.2-0.1-0.3-0.2-0.6-0.3L476.6,106.2z"/>
	<path fill="#FBAE36" d="M477.8,98.4c-0.6,0.4-1.1,0-1.7-0.3c-0.7,2,1.4,2.5,0.1,4.5l0.8-1c1.3,1.2,1.7,3.6,0.2,4.8l-0.6-0.3
		c1.4,1.1-0.9,3.2,0.2,3.7c0.7-0.5,1.1,0,1.8-0.9c0.5,1,1,2,1.5,3l-2.2,0.4l0.8,1.6c0.9-0.4-0.6,2.2,1.5,2.2c-0.8,1-1.7-0.3-2.6-0.6
		c0.7,0.9-0.3,1,1.1,1.8l-1.9,1l1.5,2.3c-0.2-0.1-0.3,0-0.5-0.1c1.7,1-0.8,2.8,2.1,4.1c-0.1-0.1-0.2,0-0.3-0.1
		c1.6,0.7,0.6,2.6,0.2,3.3c0.4,1.2,1.9,0.4,2.7,0.5c-0.4,3.6-0.3,2.5,2.1,5.4c-2.4,1.9-4-2-5.7,0.3c1.2,0.3,2.2,1.8,2.7,3.6
		c-0.8,1.7-1.4,4.4-3,6.1l1.6-0.2l0.9,2.3l-2.4-1.3c0.6,0.4,1.6,1.5,2.4,2.2c1.4,2.4-3.5,1.4-1,3.2c-0.2,0.1-0.3,0.1-0.5,0.2
		c1.2,0.6,0.8,2.2,1.3,4l-2.1-0.6l0.4-1.2c-2,0.7,0.4,1.9,0.3,3.1c0.7,1.2,2.4,0.6,3,1.2c-0.1,0.4,0.5,1.1-0.1,1.4
		c-0.6,1.1-2.4,0.1-3.3-0.2c2.1,0.9,1.9,1.2,2.8,3.2c-1,0.1-1.4,0-1.6-0.3c0.3,0.4,0.7,0.8,1.6,1l-1.2,0.7c-1.7,2.3,3.8,2.3,3.2,5
		c-1.1-0.7,0.3,2.4-1.1,3.2c-0.3-1-3,0.5-4.3-0.1c-0.8,2.2,2.4,0.9,2.9,2.7l-2.6-0.7c1.1,1.7,1.4,0.4,2.2,2.2
		c-0.7-0.5-0.7,0.8-1.5-0.3c-0.3,2.3,0,1.7-0.3,3.7l2.5,0.2c0.3,0.7-0.8,0.9-1.3,1.1c0-0.3,0-0.7-0.3-0.7c-2.1,0.8,1.2,1.3-0.8,2.2
		c0.8-0.2,1.9-0.5,2,0.4c-1.5-0.3-1.4,1.3-2.1,1.3c1.1-0.5,0.5,1.8,2.1,1.9c-1.2,0.9-1.2-0.3-2-0.4c1.9,0.8,0.2,3.4,1.3,4.1
		c-0.2,0-0.3,0.1-0.4,0c1.2,1,1.4,2.7,3.1,4.8l-1.4-0.7c-0.7,2,3,1.3,2.9,3c-2-0.4,0.1,2.8-2.1,2c1.1,1,1.6,2.1,3.3,2.9
		c-1.2,0.9-2.7-1.9-3.3-0.6l1,1.5l-1.1,0.2c0.8,0.1,0.8,1.3,1.5,1.3c-1.3,0.2-2.3,0.7-3.3,0.6c0.4,0.9-0.9,2.2,0.2,3l-0.6,0
		c2.4,1,0.4,2.8,2.9,3.3l-1.4,0.5c0.2,1.4,2.8,1.2,3.4,1.9c0.1,0.6,0.3,1.3,0.1,1.8c-1.6-1.9-2,0.8-2.9,1.2c-0.1,0.7,0,2.8,1.2,3.5
		c-1.3-0.9-2.3-0.4-2.4-2c-2.5,0.7,0.5,2.4,0,4.1l-1.1-0.1c0.6,2.5,2.6,2.7,4.6,3.8c-1.4,0.2-1.8,0-3.2-0.8
		c-0.9,1.6-0.1,4.2-0.4,6.1c-1,0.5-1.6,0.1-2-0.5c1,2-0.5,4.2,2,5.6c-1-0.5-0.7,0.7-1.2,1.4c0.5,0,1.2,0.2,1.1,0.3
		c0.9,1.2,1.7,3.9,0.7,5.2l-0.7-0.5c-0.6,3.1,3.6,4.8,1.5,8.1c-0.6,0.6-2-0.8-2.1,0.5c0.9,0.7,2.8,0.6,2.2,2.2l-1.6-0.2l1.6,1.2
		c1.4-0.5,1.1-2.3,2.5-0.9c-1.7,1.3,1.4,1.4-0.5,3c-0.1-0.4-1.4-1-2-1.4c-2.2,3.5,1.2,5.3-1.2,8.8c1.2,2,1.2,4.4,2.3,5.8
		c-1.6-0.3-3.1-0.4-4.3-1.3c-0.4,1.6,3.3,2.6,0.8,3.5c2.2,1,1,4.5,4.1,5.2c-0.6,0-0.2,1.7-1.8-0.1c0.8,2.3-3,2.6-3.1,3.5
		c0,0.6,2.1-0.4,2,0.8c-0.1,0.1-0.5,0.1-0.6,0.3l0.7,0.6c-0.8,0.4-1.5-0.7-2.3-0.8c-0.8,1.7,1.6,3.1,1.5,5.2l-0.5-0.4l-0.4,2.1
		l-0.2-0.1l0.9,1.8l-0.8-0.1c0.2,0.4,0.7,0.6,0.7,1.1l-1-0.3c1.5,0.7,2.1,2.8,2,3.8l-0.5,0.1l1.8,2.6c-1.2,1.1-2.2-1.9-1.7,0.7
		l-2-0.9c0.6,1.8-0.5,2,0,3.3c1.1-0.4,1.1-1.3,1.9-0.5c-2.5,1.1,0.4,2.3,1.2,3.7c0-0.7,0.1-1.1-1-1.7c0.1-0.7,1.1-0.1,1.3-0.5
		l-1-1.1l1.4-0.1l-0.9-1.9c1.6,0.3,0.4-1.6,2.1-0.7c-0.6-1.3,0.7-1.8-0.8-3.1c1.1-0.7,1.1,1.4,1.3,0.6c-0.8-5,0.1-9.9,1.1-14.9
		l0.7,0.6c-0.7-0.6-1.2-1.3-1.8-1.7c1.4-0.7,3.4-3.9,1-5.3c0.2-0.1,0.5,0.1,0.7,0.3c-0.1-1.7,1.9-4.6,1.9-7
		c-2.5-1.2,1.9-3.5-1.6-4.7l0.7,0.6c-1.1,0.7-2.4-1.4-3.2-1.8c2.4-0.5,1.8,0.1,4-0.5l-0.9,0.9l1.9,0c-4.7-3.4,2.7-5.5-0.7-7.6
		c0.2,0.1,0.5,0.1,0.7,0.3c1.2-1.2-1.2-2.2-1.8-3.2c1,0,1.5,0.7,2.2,1.2c0.9-2.2-1.5-6.1,0.2-8.4c-1.2-0.9-1.8,0.2-2.7-0.7
		c0.4-0.7,1.5-1.2,2.1-0.2c2.5-2-1.1-7,1.3-10.1c-1.4-1.8-2-0.8-2.9-3.4c0.9,0.7,3.2-0.4,3.2,1.1l1,0.2c0.3-2.6,0.9-6-1.9-7.6
		c2.1,0,0.4-0.5,1.6-1.4c-0.2-0.4-0.3,0-0.5,0.2c-1.8-1,0.1-1.4-0.1-2.1l0.4,0.3l-1.2-1.9c0.3-0.3,0.7-0.7,1.4-0.8l-1.5-0.1
		c0-1,1.9-0.4,1.6-1.7l-1.1,0.2c0.7-0.8-0.8-2.1,0.8-2.2c0.3,0,0.2,0.1,0.2,0.4c2.3-1.2-0.6-3.2,0.5-4.7l-2.4,0.3
		c-0.7-1.5,0.5-0.9,1.4-0.8c0-1,0.8-1.2,1.1-2.5c-0.6-0.7-0.9-0.4-1.5-0.6l0.6-1.3l1.3,0.9c-3.4-2.2,0.6-5.2-2.6-6.6
		c0.7-0.8,1.4,0.7,1.8,0.3c1.6-2.4-2.2-5.5-0.4-7.5c1.8-3.3,0.2-7.1,1.4-10.8l-0.6,0.1l0.5-2.6c-1.4-0.7-0.8-2.5-2.4-3.6
		c0.5,0.1,1.3-0.1,1.7,0.1c-0.2-1.1-0.9-2.3,0-3l0.5,0.4c0.4-2.5,0.4-5.9-0.8-7.2c-0.1-0.8,1-0.8,1.8-1.1c0-1.4-0.6-2.4-1.7-3.5
		c0.3-0.3,0.5-0.6,1.1-1l-1.6-0.5c0.2-0.6,1.3-0.2,1.7-0.6c-1.9-2.2-0.3-4.8-0.4-6.4l-0.8,0.2c-0.6-0.6,0.5-1.9,1.3-1.2
		c0.9-3.1-2.5-4.5-2.2-8.7c2.8-0.7-0.9-3.7,2.2-4.4c-0.9-1.7,0.4-2.9-1.5-4.1c0.3,0,0.4-0.2,0.5,0.1c1.2-0.7,0.2-3-0.7-4.8l1-0.1
		c-2.1-0.6-1.6-3.6-3.7-4.2c0.4-0.2,0.9,0.3,1.3,0.5c1.9-1-1-1.6-0.6-2.8c0.5,0.1,1.1-0.3,1.5-0.1c2-4.1-1.9-9.6-0.8-14.8
		c0-1.4-2.2,0.6-2.1-1.2c1-0.6,2.2,0.8,2.5-0.4c-1.3-0.8-1.1-1.1-1-2.3c0.7,0.2,1.1,0,1.7,0.7c0.8-0.7-1.8-2.7-0.2-4.1
		c-0.6,0.1-1-0.1-1.4-0.3c-1.9-1.8,1.5-4.6,0.5-4.7c0,0-0.3-0.7-0.5-0.1c0-0.7,0.2-1.8,1.2-1.7c-0.6-0.3-1.5-0.6-1.6-1.2l1.2,0.2
		c-0.3-0.3-1.1-0.6-1.2-0.9l-0.7,0.6c0.9-0.9-1.6-2.3,0.7-2.4L489,88l0.9-1.6c-1-0.5-1.9-1.1-1.7-2.1c2.3-0.6,0.3-2.7,0.5-4l0.8,0
		c-1.2-0.9-0.9-3.6-1.3-3.1c-0.1-1,0.4-2.4,1.2-2c-0.5-0.8-0.7-2.5-2.1-2.8l1.8-1.8c-3-0.7,0.8-3.3-2.4-3.2c0.4-0.9,1.1-0.8,1.6-1.5
		c-1.6-1.1-1.5-2.4-1.4-3.8l0.3-0.1c0.1-1.3-1.6-2.7-1.9-4.5l2.3-0.6c-0.4-0.9-2.3-1-1.9-1.9c0.3-0.2,0.5-0.1,0.6,0.2
		c-0.6-0.8-0.1-2.1,0.4-2.9c-1.9-1.2-1.3-2.3-3.3-3.3c2-1.3,1.1,1.5,3,0.4c0.9-2.1-0.5-4-1.8-6c0.4-0.2,0.8,0,1.3,0
		c0,0-6.2-3.7-8.3-2.6c-1.6-0.4-2.6-0.9-3.7,1.1c1,0.5,2.3,2.1,0.6,2.6l1.7-0.1c1,2.4-3.3,0.6-3,3.5l0.5-0.7
		c0.2,0.5,1.3,0.9,0.8,1.6c-0.4,0.2-0.7-0.1-1.1-0.3l2.5,2.2c-0.9,0.2-1.5,0.2-2.2-0.2c0.3,2.2,3-0.8,2.6,2c-0.7,0.6-1-0.1-1.6-0.4
		c-1.3,1.4,0.1,2.1,1.2,3.3c-1.5,0.2-1.4-0.7-2.2,0.5c0.7-0.3,2-0.6,2.2,0.2c-1.5-0.2-0.7,0.7-1,1.6c0.5-0.2,1.2-0.2,1.5,0.1
		c0.3,0.4-0.3,0.8-0.1,1.3l1.4-1.1c1.5,1.3-0.5,2.3-1.1,3.4c-0.3-0.1-0.5-0.2-0.6-0.4c-0.5,1.2-1.6,2.4-0.2,3.7l-0.2-0.1
		c1.7,2.5,2.4-1.1,4,1.9c-0.2,1-4.8,0-2.9,2.2c1.2-1.2,3.2,1.2,3.9,2.5l-3-1.1c0,0.5,0.9,1.4,0.6,1.7l0.6-0.1
		c2.4-0.3-0.2,1.8,1.4,2.6c-3.4-0.9-2.8-1-6.1-1c1.9,0.8,3.7,1.7,3.5,3.5l-2.7-1.2c-0.4,2.3,3.6,4.7,5.9,6.5
		c-1.9-0.4-2.5,0.5-4.2-0.2l0.6,2.2l-2.1-0.5c2.2,0.7,0.8,1.8,3.5,1.5c-0.4-0.2-0.7-0.2-0.7-0.6c0.8,0,2.6,0.2,2.5,1.4
		c-0.6,0.8-1.1-0.4-1.9-0.1c1.2,0.7-0.6,0.8,0.2,1.5l1.1-0.8c1.6,0.4,0.2,1.3,1,2c-0.7-0.9-1.6-0.5-2.6-0.1l0.2-0.1
		c0.1,0.5,1.3,1.2,0.4,1.6l-2.2-0.3l1.7,0.7c-0.2,0.3-1,0.6-1.5,0.1c-1.1,2.6,4.7-0.4,2.9,3c-0.8,0-1.4-0.3-1-1.3
		c-1.3-0.1-2.1,0.2-2.5,1.2c-0.1,0-0.2,0-0.2,0C476.3,95.2,476.3,97.4,477.8,98.4z"/>
	<path fill="#FFC235" d="M476.2,93.4c0-0.9-0.1-1.7-0.4-2C475.3,91.6,474.8,93.6,476.2,93.4z"/>
	<path fill="#FFC235" d="M479.5,229.3c-0.1-0.1-0.1-0.2-0.2-0.4C479.4,229.1,479.4,229.2,479.5,229.3z"/>
	<path fill="#FFC235" d="M479.7,236.7c0.2-0.1,0.4-0.2,0.5-0.4C479.8,236.3,479.5,236.4,479.7,236.7z"/>
	<path fill="#FFC235" d="M480.4,160.9L480.4,160.9L480.4,160.9z"/>
	<path fill="#FFC235" d="M479.3,202.5c0.7,0.7,1.3,0.9,1.8,1C481,203.1,480.5,202.8,479.3,202.5z"/>
	<path fill="#FFC235" d="M480.5,188.5c-0.1-0.1-0.2-0.2-0.3-0.3C480.3,188.5,480.4,188.5,480.5,188.5z"/>
	<path fill="#FFC235" d="M479.3,158.7c0.7,0.6,0.7,1.5,1.1,2.2C480,160.3,480.7,159.1,479.3,158.7z"/>
	<polygon fill="#FFC235" points="481.6,245.8 480.5,245 481.2,245.8 	"/>
	<path fill="#FFC235" d="M481.3,238.9c0.3-0.3-0.3-1.5-0.9-1.2C480.9,238,481.1,238.5,481.3,238.9z"/>
	<polygon fill="#FFC235" points="483.7,212.7 482.5,212.3 483.4,213 	"/>
</g>
<g>
	<polygon fill="#FFC235" points="687.6,346.2 688.5,346.8 688.4,344.9 	"/>
	<path fill="#FFC235" d="M697,337.9c-0.1-1.6,0.8-3.7-0.9-5.3l0.1,2.9c-1.5-1-2.3,0.1-2.7,1.3l0.8-1c-0.1,0.4,0.9,1,0.8,1.4
		c-2,0.9-0.7,2.9-3.3,3l-0.1-0.2l-0.2,1.9c-0.5,0.2-1-0.5-1.1-0.9c-0.2,1.6-0.2,3-1.5,4.2c3.2,1.2,0.9-4.6,4.2-3.4l0.1,0.2
		C693.6,339.9,696.4,339.8,697,337.9z"/>
	<path fill="#FFC235" d="M690.5,340.9l0-0.1C690.5,340.7,690.5,340.8,690.5,340.9z"/>
	<path fill="#FFC235" d="M740.1,288.5l-0.4-0.4C739.8,288.3,739.9,288.5,740.1,288.5z"/>
	<path fill="#FFC235" d="M721.8,302.1l0.1,0C721.4,301.6,721.5,301.7,721.8,302.1z"/>
	<path fill="#FFC235" d="M799.5,184.4l0.8-0.1C799.7,184.1,799.5,184.2,799.5,184.4z"/>
	<path fill="#FFC235" d="M811.3,157.2L811.3,157.2C811.3,157.2,811.3,157.2,811.3,157.2z"/>
	<path fill="#FFC235" d="M797.3,166l-0.6-0.2C797,166,797.2,166.1,797.3,166z"/>
	<path fill="#FFC235" d="M799.6,156.8c0.3-0.2,0.5-0.4,0.6-0.6C799.8,156.3,799.6,156.5,799.6,156.8z"/>
	<path fill="#FFC235" d="M811.5,157.6c-0.1-0.1-0.1-0.2-0.1-0.4C811.4,157.3,811.4,157.4,811.5,157.6z"/>
	<path fill="#FFC235" d="M790.7,178.6l-1.7-0.3C789.5,178.5,790.1,178.5,790.7,178.6z"/>
	<path fill="#FFC235" d="M799.2,154.2c0.3,0,0.6-0.1,0.7-0.2C799.6,153.9,799.3,154,799.2,154.2z"/>
	<path fill="#FFC235" d="M698.3,336.4c-0.2,0.2-0.4,0.5-0.5,0.9C698.1,337.1,698.2,336.8,698.3,336.4z"/>
	<path fill="#FFC235" d="M765.7,225.2c-0.1-0.2-0.3-0.3-0.5-0.5C765.2,225,765.4,225.1,765.7,225.2z"/>
	<path fill="#FFC235" d="M780.3,197.9l0-0.1c-0.1,0-0.2,0-0.3,0L780.3,197.9z"/>
	<path fill="#FFC235" d="M776.5,206.1c-0.1-0.1-0.2-0.2-0.3-0.3C776.3,206,776.4,206.1,776.5,206.1z"/>
	<path fill="#FFC235" d="M781.7,191c-0.1-0.2-0.2-0.3-0.4-0.5L781.7,191z"/>
	<path fill="#FBAE36" d="M786,185.8c-0.7,0-1-0.5-1.4-1c-1.4,1.1,0.2,2.5-1.8,3.4l1.1-0.4c0.6,1.5,0,3.5-1.8,3.7l-0.4-0.5
		c0.8,1.5-2.2,1.9-1.3,2.8c0.8-0.1,1,0.5,1.9,0.2c0,1,0.1,2,0.1,3l-2.1-0.8l0.1,1.6c1,0.1-1.5,1.4,0.4,2.3c-1.1,0.4-1.4-1-2-1.7
		c0.2,1-0.7,0.6,0.2,1.9l-2.1-0.2l0.3,2.5c-0.1-0.2-0.3-0.1-0.4-0.3c1.1,1.6-1.9,1.7,0.1,4c-0.1-0.1-0.2-0.1-0.3-0.2
		c1.1,1.3-0.6,2.2-1.2,2.6c-0.2,1.1,1.5,1.3,2.2,1.7c-1.9,2.5-1.3,1.7-0.5,5c-2.9,0.2-2.7-3.5-5.1-2.5c0.9,0.8,1.1,2.4,0.8,4
		c-1.4,0.8-3.1,2.6-5.2,3l1.5,0.6c0,0.7-0.1,1.4-0.2,2.2l-1.5-2.1c0.3,0.5,0.7,1.9,1.1,2.8c0.2,2.5-3.6-0.7-2.3,1.9
		c-0.2,0-0.4-0.1-0.5-0.1c0.8,1.1-0.2,2-0.6,3.6l-1.5-1.5l0.9-0.7c-2-0.5-0.5,1.6-1.1,2.4c0.1,1.2,1.8,1.6,2.1,2.4
		c-0.3,0.3,0,1.1-0.7,1c-1,0.5-2.2-1.1-2.8-1.8c1.5,1.7,1.1,1.8,1,3.8c-0.9-0.4-1.2-0.8-1.3-1.1c0,0.4,0.3,0.9,1,1.6l-1.3-0.1
		c-2.5,0.8,2.3,3.6,0.5,5.3c-0.6-1.1-0.8,1.9-2.3,1.8c0.1-0.9-2.8-1.2-3.6-2.3c-1.6,1.2,1.7,1.9,1.3,3.5l-1.9-1.9
		c0.2,1.8,1,1,0.9,2.7c-0.4-0.7-0.9,0.2-1.2-1c-1.2,1.5-0.8,1.2-1.9,2.5l2,1.4c-0.1,0.6-1.1,0.3-1.6,0.1c0.1-0.2,0.3-0.5,0.1-0.6
		c-2.2-0.6,0.4,1.6-1.6,1.2c0.8,0.3,1.8,0.7,1.6,1.3c-1.2-1-1.8,0.2-2.4-0.1c1.1,0.2-0.4,1.5,0.9,2.5c-1.4,0.1-0.9-0.9-1.5-1.3
		c1.3,1.6-1.3,2.6-0.7,3.7c-0.1-0.1-0.2-0.1-0.3-0.2c0.5,1.4,0,2.7,0.5,5.1l-0.9-1.3c-1.5,1.1,1.9,2.5,1.1,3.8
		c-1.5-1.4-1.2,2.1-2.7,0.3c0.5,1.4,0.4,2.4,1.5,3.9c-1.4,0.1-1.4-2.8-2.6-2.2l0.2,1.6l-1-0.4c0.7,0.5,0.1,1.4,0.7,1.7
		c-1.2-0.6-2.2-0.7-3-1.3c-0.1,0.9-1.8,1.1-1.2,2.3l-0.6-0.3c1.6,2-0.9,2.2,1,4l-1.4-0.4c-0.5,1.1,1.8,2.4,2,3.2
		c-0.2,0.5-0.3,1.1-0.7,1.4c-0.5-2.2-2.1-0.5-3-0.7c-0.4,0.5-1.3,2.1-0.5,3.2c-0.6-1.3-1.8-1.6-1.1-2.7c-2.4-0.8-0.7,2-1.8,3
		l-0.9-0.7c-0.6,2.2,1,3.4,2,5.3c-1.3-0.6-1.5-1-2.3-2.3c-1.5,0.6-2,3-3.1,4.2c-1.1-0.2-1.4-0.8-1.4-1.5c-0.1,2-2.4,2.8-1,5.1
		c-0.6-0.9-0.9,0.1-1.7,0.3c0.4,0.3,0.9,0.8,0.8,0.8c0.2,1.4-0.4,3.8-1.8,4.2l-0.3-0.8c-2,1.9,0.8,5.5-2.5,6.7
		c-0.8,0.1-1.3-1.7-1.9-0.8c0.4,1,2,2,0.7,2.8l-1.2-1.1l0.7,1.8c1.4,0.5,2-1,2.5,0.8c-2,0,0.5,1.8-1.8,1.9c0.1-0.4-0.6-1.5-1-2.1
		c-3.5,1.2-1.5,4.5-5.1,5.6c0,2.1-1.1,3.8-0.8,5.4c-1.2-1.1-2.4-2.1-2.9-3.4c-1,0.9,1.4,3.8-1.1,2.9c1.3,1.9-1.3,3.8,0.9,6.1
		c-0.5-0.4-1,1.1-1.4-1.1c-0.4,2.1-3.7,0.1-4.2,0.7c-0.2,0.4,1.9,0.9,1.2,1.8c-0.2,0-0.5-0.2-0.6-0.2l0.3,0.8
		c-0.8-0.1-0.9-1.4-1.5-2c-1.5,0.7-0.2,3.1-1.3,4.6l-0.2-0.6l-1.3,1.3l-0.1-0.2l-0.1,1.8l-0.6-0.6c-0.1,0.4,0.3,0.8,0,1.2l-0.7-0.8
		c0.9,1.4,0.3,3.3-0.2,3.9l-0.4-0.2l0.2,2.9c-1.5,0.1-0.9-2.6-1.7-0.5l-1.2-1.8c-0.4,1.7-1.4,1.1-1.5,2.3c1.1,0.4,1.5-0.3,1.8,0.7
		c-2.5-0.7-0.8,1.8-0.9,3.3c0.4-0.5,0.6-0.7,0-1.8c0.4-0.4,1,0.6,1.3,0.4l-0.3-1.4l1.2,0.8l0.2-1.9c1.2,1.2,1.1-0.9,2,0.7
		c0.2-1.3,1.5-0.9,0.8-2.7c1.2,0.1,0.2,1.6,0.8,1.2c1.8-4,4.9-7,8.1-10l0.3,0.8c-0.3-0.8-0.4-1.6-0.6-2.2c1.5,0.3,4.6-0.8,3.4-3.2
		c0.2,0,0.3,0.4,0.4,0.6c0.7-1.3,3.8-2.2,4.9-3.9c-1.5-2.3,3.2-1.4,0.9-4.3l0.3,0.8c-1.2-0.1-1.3-2.3-1.8-3.1c2.2,1,1.4,1.1,3.5,1.9
		l-1.1,0.1l1.6,1.1c-2.2-5.1,4.8-2.4,3-5.9c0.1,0.2,0.3,0.4,0.4,0.6c1.5-0.2,0.1-2.3,0.1-3.3c0.8,0.5,0.9,1.3,1.3,2.1
		c1.8-1,1.6-5.2,4.1-6c-0.6-1.4-1.6-0.8-1.9-2c0.7-0.3,1.8,0,1.8,1c3,0,2.4-5.7,5.8-6.6c-0.3-2-1.3-1.7-0.8-4.1
		c0.4,1,2.9,1.4,2.2,2.6l0.7,0.7c1.5-1.7,3.5-3.9,1.9-6.6c1.8,1.2,0.6-0.1,2-0.1c0-0.4-0.3-0.2-0.5-0.1c-1-1.7,0.8-1,0.9-1.6
		l0.2,0.4l-0.1-2.1c0.4-0.1,0.9-0.2,1.5,0.2l-1.2-0.8c0.5-0.7,1.8,0.7,2.1-0.4l-1-0.4c0.9-0.2,0.3-2,1.7-1.2c0.3,0.2,0.1,0.2,0,0.4
		c2.4,0.4,1-2.7,2.5-3.2l-2.2-1.1c0.1-1.5,0.8-0.4,1.5,0.1c0.5-0.7,1.2-0.4,2.1-1.2c-0.2-0.8-0.6-0.7-1-1.3l1.1-0.6l0.7,1.3
		c-1.9-3.4,2.8-3.5,0.8-6.2c0.9-0.2,0.9,1.3,1.4,1.2c2.4-0.9,0.6-5.2,3.1-5.7c3-1.5,3.4-5.2,6-7.2l-0.6-0.3l1.6-1.7
		c-0.9-1.3,0.5-2.2-0.5-3.9c0.4,0.3,1.2,0.6,1.4,0.9c0.3-0.9,0.3-2.2,1.3-2.2l0.3,0.6c1.4-1.6,3-4.1,2.5-5.7c0.2-0.7,1.2-0.1,2,0.1
		c0.7-1,0.5-2.1,0.1-3.5c0.4-0.1,0.7-0.2,1.4-0.2l-1.1-1.2c0.4-0.3,1.2,0.5,1.7,0.4c-0.7-2.6,1.9-3.7,2.4-5l-0.8-0.2
		c-0.3-0.8,1.2-1.2,1.6-0.2c2.1-1.9-0.2-4.6,1.9-7.6c2.7,0.9,0.8-3.3,3.8-2.2c0-1.7,1.6-2,0.4-3.8c0.3,0.1,0.5,0.1,0.4,0.3
		c1.3,0,1.5-2.2,1.5-3.9l0.9,0.4c-1.6-1.4,0.1-3.5-1.5-5c0.5,0.1,0.7,0.7,0.9,1c2.1,0.2-0.2-1.7,0.6-2.4c0.4,0.3,1.1,0.3,1.3,0.7
		c1.8-1,2.3-3.1,2.9-5.3c0.3-1.1,0.6-2.2,1-3.3c0.4-1.1,0.9-2.1,1.7-2.9c0.6-1.1-2.2-0.5-1.3-1.9c1.1,0,1.6,1.6,2.4,0.9
		c-0.9-1.2-0.5-1.4,0-2.2c0.5,0.5,1,0.5,1.2,1.3c1-0.2-0.5-2.9,1.6-3.2c-0.6-0.2-0.9-0.6-1.1-0.9c-0.9-2.3,3.3-2.7,2.4-3.3
		c0,0,0-0.7-0.4-0.3c0.3-0.5,0.9-1.2,1.8-0.7c-0.4-0.5-1.1-1.1-1-1.6l1,0.7c-0.1-0.4-0.7-1-0.7-1.3l-0.8,0.1
		c1.2-0.2-0.5-2.5,1.6-1.5l0,0.2l1.5-0.8c-0.6-0.9-1.3-1.7-0.6-2.4c2.3,0.6,1.4-1.9,2.1-2.8l0.7,0.4c-0.7-1.3,0.7-3.1,0.1-2.9
		c0.3-0.8,1.3-1.6,1.8-1c-0.1-0.8,0.4-2.2-0.7-3.1l2.4-0.5c-2.4-1.9,2-2.2-0.8-3.5c0.7-0.5,1.3-0.1,2-0.4c-1-1.6-0.4-2.5,0.3-3.5
		l0.3,0.1c0.7-1-0.3-2.8,0.1-4.3l2.3,0.5c0-0.9-1.7-1.8-0.9-2.3c0.4,0,0.5,0.2,0.5,0.4c-0.2-0.9,0.8-1.7,1.5-2
		c-1.2-1.7-0.3-2.4-1.6-4c2.3-0.1,0.4,1.6,2.5,1.6c1.6-1.2,1.2-3.3,0.8-5.4c0.5,0,0.8,0.3,1.2,0.6c0,0-1-1.4-2.3-2.8
		c-1.3-1.4-2.9-2.8-4.1-2.8c-1.3-1-2-1.8-3.8-0.7c0.7,0.8,1.2,2.6-0.5,2.2l1.5,0.6c0,2.2-3.3-1-4.1,1.4l0.7-0.3
		c-0.1,0.5,0.8,1.2,0.1,1.5c-0.5,0-0.6-0.4-0.9-0.7l1.4,2.7c-0.9-0.3-1.4-0.5-1.9-1.2c-0.6,1.8,3,0.7,1.5,2.7
		c-0.8,0.1-0.9-0.5-1.3-1c-1.7,0.5-0.7,1.7-0.3,3c-1.4-0.5-1-1.1-2.2-0.6c0.8,0.1,2,0.5,1.9,1.2c-1.3-0.9-0.9,0.2-1.5,0.7
		c0.5,0.1,1.2,0.4,1.3,0.7c0.1,0.4-0.6,0.5-0.6,0.9l1.7-0.3c0.9,1.6-1.4,1.5-2.3,2.1c-0.2-0.2-0.3-0.4-0.4-0.6
		c-0.9,0.7-2.4,1.1-1.7,2.7l-0.1-0.2c0.5,2.7,2.6,0.3,2.8,3.2c-0.6,0.7-4.3-2.2-3.5,0.3c1.5-0.4,2.3,2.4,2.4,3.6l-2.2-2.2
		c-0.2,0.4,0.2,1.5-0.1,1.6l0.6,0.2c2.3,0.8-0.9,1.3,0.2,2.6c-2.7-2.2-2.1-2-5.1-3.5c1.4,1.4,2.6,3,1.7,4.2l-1.9-2.1
		c-1.3,1.6,1.2,5.2,2.6,7.5c-1.6-1.1-2.4-0.8-3.7-2.1l-0.4,1.9l-1.7-1.3c1.6,1.6,0,1.8,2.5,2.7c-0.3-0.3-0.6-0.4-0.3-0.7
		c0.7,0.4,2.2,1.4,1.7,2.2c-0.9,0.3-0.8-0.8-1.6-0.9c0.8,1-0.9,0.3-0.4,1.3l1.3-0.1c1.3,1.1-0.4,1,0.1,1.9c-0.3-1-1.3-1.1-2.2-1.2
		l0.2,0c-0.1,0.5,0.7,1.5-0.3,1.4l-1.9-1.3l1.2,1.3c-0.4,0.1-1.1,0-1.3-0.6c-2.1,1.4,4.4,1.9,1.4,3.6c-0.7-0.4-1.1-0.9-0.4-1.4
		c-1.2-0.7-1.9-0.8-2.7-0.3c-0.1,0-0.2-0.1-0.2-0.1C786,182.7,785.1,184.4,786,185.8z"/>
	<path fill="#FFC235" d="M786.6,181.3c0.3-0.7,0.6-1.3,0.4-1.7C786.6,179.6,785.4,180.8,786.6,181.3z"/>
	<path fill="#FFC235" d="M730.3,282.6c0-0.1,0-0.2,0-0.4C730.3,282.4,730.3,282.5,730.3,282.6z"/>
	<path fill="#FFC235" d="M727.1,288.1c0.2,0.1,0.4,0.1,0.6,0C727.3,287.8,727,287.7,727.1,288.1z"/>
	<path fill="#FFC235" d="M761.7,233.4L761.7,233.4L761.7,233.4z"/>
	<path fill="#FFC235" d="M742.3,263.1c0.3,0.8,0.7,1.3,1.1,1.7C743.4,264.5,743.2,263.9,742.3,263.1z"/>
	<path fill="#FFC235" d="M749.6,253.6c0-0.1-0.1-0.2-0.2-0.4C749.4,253.4,749.5,253.5,749.6,253.6z"/>
	<path fill="#FFC235" d="M761.7,231.2c0.4,0.8,0,1.4,0,2.2C761.6,232.7,762.7,232.2,761.7,231.2z"/>
	<polygon fill="#FFC235" points="724.4,295.6 723.9,294.5 724.1,295.5 	"/>
	<path fill="#FFC235" d="M727.3,290.5c0.4,0,0.4-1.3-0.2-1.4C727.4,289.7,727.3,290.1,727.3,290.5z"/>
	<polygon fill="#FFC235" points="741.4,272.9 740.6,272 741,272.9 	"/>
</g>
<g>
	<polygon fill="#FFC235" points="302,368.4 302.6,367.5 300.6,367.2 	"/>
	<path fill="#FFC235" d="M293.2,355.8c-1.8-0.3-4-1.8-5.8-0.4l3.2,0.6c-1.1,1.4,0,2.6,1.3,3.3l-1.1-1.2c0.4,0.2,1.1-0.7,1.6-0.5
		c0.9,2.5,3.1,1.5,3.1,4.5l-0.2,0l2,0.7c0.2,0.6-0.6,0.9-1,1c1.7,0.7,3.3,1,4.6,2.8c1.4-3.3-4.9-2.2-3.6-5.5l0.2,0
		C295.2,360.2,295.3,357,293.2,355.8z"/>
	<path fill="#FFC235" d="M296.3,363.8l-0.2-0.1C296.1,363.8,296.1,363.8,296.3,363.8z"/>
	<path fill="#FFC235" d="M242.5,294l-0.4,0.3C242.3,294.3,242.5,294.2,242.5,294z"/>
	<path fill="#FFC235" d="M255.6,318.3c0,0,0-0.1,0-0.1C254.9,318.5,255.1,318.5,255.6,318.3z"/>
	<path fill="#FFC235" d="M138.9,190.7l0.1-0.9C138.7,190.4,138.7,190.7,138.9,190.7z"/>
	<path fill="#FFC235" d="M112.4,166.1L112.4,166.1C112.4,166.1,112.4,166.1,112.4,166.1z"/>
	<path fill="#FFC235" d="M118.2,184.3l-0.4,0.5C118.1,184.6,118.2,184.5,118.2,184.3z"/>
	<path fill="#FFC235" d="M108.7,177.6c-0.1-0.3-0.3-0.6-0.5-0.9C108.1,177.1,108.4,177.4,108.7,177.6z"/>
	<path fill="#FFC235" d="M112.9,166.1c-0.2,0-0.3,0-0.4,0C112.6,166.2,112.7,166.2,112.9,166.1z"/>
	<path fill="#FFC235" d="M130.3,196.9l-0.8,1.5C129.9,198.1,130.1,197.5,130.3,196.9z"/>
	<path fill="#FFC235" d="M105.7,176.7c0.1-0.3,0-0.6-0.1-0.8C105.5,176.1,105.5,176.5,105.7,176.7z"/>
	<path fill="#FFC235" d="M291.7,354.1c0.2,0.2,0.5,0.5,0.9,0.7C292.4,354.4,292.1,354.2,291.7,354.1z"/>
	<path fill="#FFC235" d="M176.5,243.2c-0.2,0.1-0.4,0.2-0.6,0.3C176.2,243.6,176.4,243.4,176.5,243.2z"/>
	<path fill="#FFC235" d="M149.3,216.3l-0.1,0c0,0.1-0.1,0.2-0.1,0.3L149.3,216.3z"/>
	<path fill="#FFC235" d="M157.5,223.9c-0.1,0-0.2,0.1-0.4,0.2C157.4,224,157.4,223.9,157.5,223.9z"/>
	<path fill="#FFC235" d="M141.9,211.8c-0.2,0-0.4,0-0.7,0.1L141.9,211.8z"/>
	<path fill="#FBAE36" d="M137.2,205c-0.1,0.7-0.8,0.8-1.5,1c0.9,2,2.8,0.9,3.4,3.4l-0.2-1.3c1.8,0,3.8,1.6,3.6,3.5l-0.6,0.1
		c1.9-0.1,1.6,3.1,2.8,2.6c0.1-0.9,0.8-0.8,0.7-1.9l3.3,1.3l-1.4,1.8l1.8,0.6c0.3-0.9,1.2,2.1,2.7,0.6c0.1,1.3-1.5,1-2.3,1.3
		c1.2,0.2,0.6,1,2.1,0.7l-0.7,2.1l2.8,0.7c-0.2,0-0.2,0.3-0.4,0.3c2-0.4,1.4,2.7,4.5,1.7c-0.1,0-0.2,0.1-0.3,0.2
		c1.7-0.6,2.3,1.6,2.6,2.4c1.2,0.6,1.7-1,2.3-1.5c2.4,3,1.6,2.1,5.5,2.6c-0.4,3.1-4.4,1.3-3.9,4.2c1.1-0.6,2.9-0.1,4.6,0.8
		c0.6,1.8,2.3,4.3,2.3,6.7l1-1.3l2.4,1.1l-2.6,0.7c0.7-0.1,2.2,0,3.4,0c2.8,0.8-1.5,3.5,1.7,3.2c-0.1,0.2-0.1,0.3-0.2,0.5
		c1.3-0.4,2.2,1.1,3.9,2.1l-1.9,1l-0.6-1.2c-1,1.9,1.7,1.2,2.5,2.1c1.4,0.4,2.1-1.2,3.1-1.2c0.3,0.4,1.2,0.4,1,1.1
		c0.3,1.2-1.6,1.8-2.5,2.2c2.2-0.8,2.2-0.4,4.3,0.5c-0.6,0.8-1.1,1-1.4,0.9c0.5,0.1,1.1,0.1,1.9-0.4l-0.3,1.4c0.5,2.9,4.4-1,6,1.6
		c-1.3,0.2,1.9,1.6,1.6,3.2c-0.9-0.5-1.8,2.5-3.1,2.9c1.1,2.2,2.4-1,4.1,0l-2.4,1.3c2.1,0.5,1.3-0.7,3.2,0.1
		c-0.9,0.2,0.1,1.1-1.3,0.9c1.5,1.9,1.2,1.3,2.5,3l1.9-1.6c0.7,0.3,0.1,1.3-0.1,1.7c-0.2-0.2-0.5-0.6-0.7-0.3
		c-1,2.1,1.8,0.1,1.1,2.2c0.4-0.7,1-1.7,1.7-1.1c-1.3,0.9-0.1,2-0.5,2.4c0.4-1.1,1.6,1,2.9,0c-0.1,1.5-1.1,0.6-1.7,1.1
		c2-0.7,2.7,2.4,4,2.2c-0.1,0.1-0.1,0.2-0.2,0.3c1.6,0,3,1.1,5.8,1.4l-1.5,0.5c1,2,3.1-1.1,4.3,0.2c-1.7,1.1,2.2,2,0,3
		c1.6,0,2.7,0.5,4.5-0.2c-0.1,1.5-3.3,0.5-2.8,1.9l1.8,0.4l-0.6,0.9c0.6-0.5,1.6,0.4,2-0.1c-0.8,1.1-1.1,2.2-1.8,2.8
		c0.9,0.4,1,2.3,2.3,2.1l-0.4,0.5c2.4-1,2.4,1.8,4.5,0.4l-0.6,1.4c1.2,0.9,2.9-1,3.8-1c0.5,0.4,1.2,0.7,1.4,1.3
		c-2.5-0.3-0.8,2-1.2,3c0.5,0.6,2.1,2.1,3.5,1.7c-1.6,0.2-2,1.3-3.1,0.2c-1.2,2.3,2.1,1.4,3.1,3l-0.9,0.8c2.3,1.4,3.8,0.1,6.1-0.4
		c-0.8,1.2-1.3,1.2-2.9,1.7c0.5,1.8,3.1,3.2,4.3,4.8c-0.3,1.1-1,1.2-1.8,1c2.2,0.7,2.8,3.5,5.6,2.8c-1.1,0.3,0.1,1,0.2,1.9
		c0.4-0.3,1-0.7,1-0.6c1.6,0.2,4.1,1.6,4.4,3.3l-0.9,0.1c1.9,2.8,6.1,1,7.2,4.9c0,0.8-2,0.9-1.1,1.8c1.1-0.1,2.4-1.6,3.1,0.1l-1.3,1
		l2-0.2c0.6-1.4-1-2.5,1.1-2.5c-0.2,2.2,2,0,1.9,2.6c-0.4-0.2-1.7,0.2-2.4,0.4c1.1,4.2,4.8,3,5.8,7.3c2.3,0.6,4.1,2.3,5.9,2.6
		c-1.3,1-2.4,2-4,2.1c0.9,1.4,4.3-0.4,3.2,2c2.2-0.9,4.1,2.6,6.8,0.8c-0.4,0.5,1.1,1.4-1.3,1.2c2.3,1.1-0.2,4.1,0.5,4.9
		c0.5,0.4,1.1-1.8,2-0.8c0,0.2-0.2,0.4-0.2,0.7l0.9-0.1c-0.2,0.9-1.6,0.6-2.2,1.1c0.7,1.9,3.4,1.2,5,2.7l-0.7,0.1l1.4,1.8l-0.2,0
		l2,0.7l-0.7,0.5c0.4,0.2,0.9-0.1,1.4,0.3l-0.9,0.5c1.6-0.6,3.6,0.5,4.3,1.3l-0.2,0.4l3.2,0.6c0,1.7-2.9,0.2-0.7,1.8l-2,0.8
		c1.8,0.9,1.1,1.8,2.5,2.4c0.4-1.1-0.2-1.7,0.9-1.8c-0.9,2.6,2,1.4,3.6,1.9c-0.5-0.5-0.8-0.9-2-0.5c-0.5-0.6,0.7-0.9,0.5-1.3
		l-1.6-0.1l0.9-1.1l-2-0.7c1.3-1-0.9-1.4,0.9-2c-1.4-0.5-0.9-1.9-2.9-1.7c0.2-1.3,1.8,0.3,1.3-0.5c-4.3-3.1-7.5-7.3-10.5-11.7
		l0.9-0.1c-0.9,0.1-1.8,0-2.5,0c0.4-1.5-0.5-5.3-3.2-4.6c0-0.2,0.4-0.3,0.7-0.3c-1.4-1.1-2.1-4.7-4-6.5c-2.7,0.9-1.2-3.9-4.6-2.3
		l0.9-0.1c-0.2,1.3-2.7,0.7-3.6,1c1.3-2.1,1.3-1.2,2.4-3.3l0,1.3l1.3-1.4c-5.8,0.8-2.2-6-6.2-5.1c0.2,0,0.4-0.3,0.7-0.3
		c-0.1-1.7-2.5-0.8-3.6-1.1c0.6-0.7,1.6-0.6,2.4-0.7c-1-2.3-5.5-3.4-6.1-6.4c-1.6,0.2-1.1,1.4-2.4,1.4c-0.3-0.8,0.1-1.9,1.3-1.7
		c0.3-3.3-6-4.4-6.7-8.4c-2.3-0.4-2,0.9-4.5-0.5c1.1-0.1,1.9-2.6,3.1-1.5l0.9-0.5c-1.7-2.1-3.9-5.1-7-4.2c1.5-1.5,0-0.6,0.1-2.2
		c-0.5-0.2-0.2,0.2-0.2,0.5c-2,0.5-1-1.2-1.7-1.5l0.4-0.1l-2.3-0.6c0-0.4-0.1-1.1,0.4-1.6l-1.1,1c-0.7-0.8,1-1.7-0.1-2.4l-0.6,0.9
		c-0.1-1.1-2.1-1-1-2.2c0.2-0.2,0.2,0,0.5,0.2c0.8-2.5-2.8-2-3.2-3.8l-1.5,1.9c-1.6-0.6-0.3-1,0.4-1.6c-0.7-0.8-0.3-1.5-1.1-2.6
		c-0.9-0.1-0.9,0.3-1.5,0.6l-0.5-1.4l1.6-0.2c-4,0.8-3.4-4.2-6.7-3.1c-0.1-1.1,1.5-0.4,1.5-1.1c-0.7-2.9-5.6-2.6-5.8-5.4
		c-1.2-3.7-5.1-5.5-7-9l-0.4,0.5l-1.6-2.3c-1.5,0.5-2.4-1.3-4.4-1c0.4-0.3,0.8-1,1.3-1.1c-1-0.7-2.4-1.1-2.2-2.2l0.7-0.1
		c-1.5-2.1-4-4.7-5.8-4.9c-0.7-0.5,0.1-1.3,0.5-2c-1-1.1-2.2-1.3-3.8-1.5c0-0.4-0.1-0.8,0.1-1.5l-1.5,0.7c-0.3-0.6,0.8-1,0.7-1.6
		c-3-0.3-3.7-3.4-5-4.5l-0.4,0.7c-0.9-0.1-1.1-1.8,0.1-1.7c-1.6-3-5.1-1.7-8-5c1.6-2.5-3.4-2.2-1.7-4.9c-1.9-0.7-1.9-2.5-4.1-2
		c0.2-0.3,0.2-0.5,0.4-0.3c0.3-1.4-2.1-2.4-4-3.2l0.6-0.8c-1.9,1-3.8-1.6-5.8-0.6c0.2-0.5,0.9-0.4,1.3-0.5c0.7-2.1-1.9-0.5-2.5-1.7
		c0.4-0.3,0.6-1,1-1.1c-1.5-4.5-8.4-5.9-11.3-10.7c-1-1.1-1.1,2-2.4,0.5c0.3-1.2,2.2-0.9,1.5-2.1c-1.5,0.3-1.6-0.1-2.4-1
		c0.6-0.4,0.8-0.8,1.7-0.6c0.1-1.1-3.3-0.8-3.1-3c-0.4,0.5-0.8,0.6-1.3,0.7c-2.7-0.1-2.2-4.5-3-3.9c0,0-0.7-0.3-0.4,0.3
		c-0.5-0.5-1.1-1.5-0.3-2.1c-0.7,0.1-1.5,0.6-2,0.2l1.1-0.7c-0.4,0-1.2,0.2-1.6,0.1l-0.1,0.9c0-1.3-2.8-0.7-1.2-2.3l0.3,0.2
		l-0.5-1.8c-1.1,0.2-2.2,0.5-2.8-0.5c1.3-2-1.7-2.2-2.5-3.4l0.6-0.6c-1.6,0.1-3.3-2.1-3.2-1.5c-0.8-0.7-1.4-2.1-0.6-2.3
		c-0.9-0.2-2.3-1.4-3.5-0.7l0.1-2.6c-2.7,1.5-1.8-3.1-4-0.8c-0.4-1,0.2-1.4,0.1-2.2c-2,0.3-2.9-0.8-3.7-2l0.2-0.3
		c-0.9-1.1-3.1-1-4.7-2.2l1.3-2.1c-1-0.4-2.4,0.8-2.8-0.2c0.1-0.4,0.3-0.4,0.6-0.3c-1-0.3-1.6-1.6-1.7-2.5c-2.2,0.3-2.7-0.9-4.8-0.3
		c0.5-2.3,1.9,0.4,2.5-1.7c-0.8-2.2-3.2-2.7-5.6-3.4c0.1-0.5,0.6-0.6,1-0.9c0,0-7.2,1.3-8.1,3.6c-1.5,0.8-2.5,1.1-1.9,3.3
		c1.1-0.3,3.2,0.1,2.3,1.6l1.2-1.2c2.5,1.1-2.1,2.7,0.3,4.7l-0.1-0.8c0.5,0.3,1.6-0.2,1.7,0.7c-0.2,0.5-0.6,0.4-1.1,0.5l3.4,0
		c-0.6,0.8-1,1.1-1.8,1.3c1.8,1.5,1.6-2.6,3.4-0.2c-0.1,0.9-0.8,0.6-1.5,0.8c0.1,1.9,1.6,1.6,3.3,1.8c-1,1.1-1.5,0.4-1.3,1.8
		c0.3-0.7,1.1-1.8,1.8-1.3c-1.3,0.8,0,1,0.4,1.9c0.2-0.5,0.7-1,1.1-1c0.5,0.1,0.4,0.8,0.9,1.1l0.2-1.8c2-0.1,1.2,2.1,1.7,3.3
		c-0.2,0.1-0.5,0.2-0.7,0.1c0.5,1.2,0.6,2.9,2.6,3l-0.2,0.1c3.1,0.8,1-2.4,4.4-1.3c0.6,0.9-3.6,3.3-0.6,3.6c0-1.7,3.2-1.2,4.7-0.7
		l-3,1.2c0.4,0.4,1.7,0.5,1.7,0.9l0.4-0.5c1.5-1.9,1.1,1.5,2.9,1.1c-3.2,1.6-2.8,1.1-5.2,3.4c1.9-0.7,3.9-1.2,5.1,0.3l-2.8,0.9
		c1.4,2.1,6.1,1.2,9,1c-1.7,1-1.5,2.1-3.3,2.7l2,1.3l-1.9,1.1c2.1-0.9,1.9,0.9,3.7-1.3c-0.4,0.1-0.6,0.4-0.9,0
		c0.6-0.6,2.1-1.6,2.9-0.6c0.1,1.1-1.1,0.5-1.4,1.2c1.3-0.3,0.2,1.1,1.3,1l0.3-1.4c1.5-0.8,1,0.9,2.2,0.8c-1.2-0.1-1.6,0.7-1.9,1.7
		l0.1-0.2c0.5,0.3,1.8,0,1.5,1l-1.9,1.3l1.7-0.6c0.1,0.4-0.3,1.1-1,1.1c1.1,2.8,3.2-3.5,4.4,0.3c-0.6,0.6-1.3,0.7-1.6-0.3
		c-1,0.9-1.4,1.6-1,2.6c-0.1,0.1-0.1,0.1-0.2,0.2C133.7,203.6,135.3,205.3,137.2,205z"/>
	<path fill="#FFC235" d="M132.4,202.3c-0.7-0.7-1.3-1.2-1.8-1.3C130.4,201.5,131.5,203.4,132.4,202.3z"/>
	<path fill="#FFC235" d="M234.9,302.7c-0.1,0-0.3-0.1-0.4-0.1C234.7,302.6,234.8,302.6,234.9,302.7z"/>
	<path fill="#FFC235" d="M240.6,308c0.1-0.2,0.1-0.4,0.1-0.6C240.4,307.6,240.2,307.9,240.6,308z"/>
	<path fill="#FFC235" d="M184.8,250.7L184.8,250.7L184.8,250.7z"/>
	<path fill="#FFC235" d="M214.8,282.8c1,0,1.6-0.2,2-0.6C216.4,282.1,215.8,282.1,214.8,282.8z"/>
	<path fill="#FFC235" d="M205.3,271.4c-0.1,0-0.3,0-0.4,0C205.1,271.5,205.2,271.5,205.3,271.4z"/>
	<path fill="#FFC235" d="M182.4,249.9c1,0,1.6,0.6,2.4,0.9C184,250.6,183.7,249.2,182.4,249.9z"/>
	<polygon fill="#FFC235" points="248.7,313.4 247.3,313.6 248.5,313.6 	"/>
	<path fill="#FFC235" d="M243.3,308.5c0-0.4-1.4-0.9-1.6-0.2C242.4,308.2,242.9,308.3,243.3,308.5z"/>
	<polygon fill="#FFC235" points="225.4,287.3 224.3,287.9 225.5,287.7 	"/>
</g>
<g>
</g>
<g>
</g>
<g>
</g>
<g>
</g>
<g>
</g>
<g>
</g>
<g>
</g>
<g>
</g>
<g>
</g>
<g>
</g>
<g>
</g>
<g>
</g>
<g>
</g>
<g>
</g>
<g>
</g>
</svg>
