<?xml version="1.0" encoding="utf-8"?>
<!-- Generator: Adobe Illustrator 18.0.0, SVG Export Plug-In . SVG Version: 6.00 Build 0)  -->
<!DOCTYPE svg PUBLIC "-//W3C//DTD SVG 1.1//EN" "http://www.w3.org/Graphics/SVG/1.1/DTD/svg11.dtd">
<svg version="1.1" id="Layer_1" xmlns="http://www.w3.org/2000/svg" xmlns:xlink="http://www.w3.org/1999/xlink" x="0px" y="0px"
	 viewBox="0 0 261.8 271.3" enable-background="new 0 0 261.8 271.3" xml:space="preserve">
<g>
	<path fill="#B3C69A" d="M233.7,257.5c21.8-44.3,45.6-131.5-11.2-251.8c-1.5-3.3-6.9-1.2-6.1,2.4c5.9,26.7,14,70.2,17.1,118
		c-9.9-35.4-28.7-75.1-62-117.5c-2.2-2.8-7.1,0.2-5.6,3.5c10.7,22.8,26.4,59.2,39.1,100.7c-16-31.1-40.9-64.5-78.7-98.2
		c-2.7-2.4-7.1,1.3-5,4.2c18.6,26.2,49.2,72.8,72,125c-22.1-31.4-56-64.2-107.5-94.4c-3.2-1.9-6.8,2.5-4.2,5
		c19.8,18.5,50.8,49.4,79.7,86.4c-28.2-23.5-66.8-46-119.8-63.3c-3.6-1.2-6.3,3.8-3.1,5.6c22,13,56,34.3,90,61.3
		C97,127.4,56.4,113.1,4,105.1c-3.8-0.6-5.7,4.6-2.2,5.9c51.6,19.5,163.8,67.7,217.9,135.7c0.8,1,1.9,1.2,2.9,1
		c0.1,1.1,0.2,2.2,0.3,3.3c0.1,1.5,1.1,2.3,2.3,2.5c0,0.1,0,0.1,0,0.2c-1.2,4.7-2.4,9.4-3.8,14c-1.1,3.6,3.9,5.2,5.8,1.9
		c1.2-2.1,2.5-4.3,3.7-6.7c1.5-0.3,2.8-1.5,2.7-3.3C233.7,258.8,233.7,258.2,233.7,257.5z"/>
	<path fill="#B3C69A" d="M233.4,246.6c7.2-43.1,6.8-138.5-103-236.1c-2.7-2.4-7.1,1.3-5,4.2c31,43.6,95.1,143.7,101.7,232.2
		C227.3,250.5,232.8,250.2,233.4,246.6z"/>
	<path fill="#B3C69A" d="M235.9,257.1c14.3-42.1,29.9-137.7-60.4-252.6c-2.2-2.8-7.1,0.2-5.6,3.5c22.7,48.5,68.2,158.7,59.7,248.4
		C229.3,260,234.7,260.6,235.9,257.1z"/>
	<path fill="#B3C69A" d="M231.4,265.4c22.6-39.2,57.7-131.5-4.8-263.8c-1.5-3.3-6.9-1.2-6.1,2.4c11.6,52.8,32.1,171.7,5.1,259.5
		C224.4,267.1,229.5,268.7,231.4,265.4z"/>
	<path fill="#B3C69A" d="M229.4,239.1c-17-38.4-69.3-115-221.3-138.2c-3.8-0.6-5.7,4.6-2.2,5.9c51.6,19.5,163.8,67.7,217.9,135.7
		C226,245.4,230.8,242.4,229.4,239.1z"/>
	<path fill="#B3C69A" d="M237.4,246.3c-10-41.1-48-126-191.8-173c-3.6-1.2-6.3,3.8-3.1,5.6c46.9,27.6,147.8,93.4,189,169.9
		C233.1,252,238.2,249.8,237.4,246.3z"/>
	<path fill="#B3C69A" d="M237.8,255.3c-1-43-19.6-135.1-147.9-210c-3.2-1.9-6.8,2.5-4.2,5C124.9,87,208.1,172.4,231.5,256.7
		C232.5,260.2,237.9,259,237.8,255.3z"/>
</g>
<g>
</g>
<g>
</g>
<g>
</g>
<g>
</g>
<g>
</g>
<g>
</g>
<g>
</g>
<g>
</g>
<g>
</g>
<g>
</g>
<g>
</g>
<g>
</g>
<g>
</g>
<g>
</g>
<g>
</g>
</svg>
