<?xml version="1.0" encoding="utf-8"?>
<!-- Generator: Adobe Illustrator 21.0.2, SVG Export Plug-In . SVG Version: 6.00 Build 0)  -->
<!DOCTYPE svg PUBLIC "-//W3C//DTD SVG 1.1//EN" "http://www.w3.org/Graphics/SVG/1.1/DTD/svg11.dtd">
<svg version="1.1" id="Layer_1" xmlns="http://www.w3.org/2000/svg" xmlns:xlink="http://www.w3.org/1999/xlink" x="0px" y="0px"
	 viewBox="0 0 200 200" style="enable-background:new 0 0 200 200;" xml:space="preserve">
<style type="text/css">
	.st0{fill:#B9B9B9;}
	.st1{fill:#ECECEC;}
	.st2{fill:#C7C7C7;}
	.st3{fill:#C6C6C6;}
	.st4{fill:#A4A4A4;}
</style>
<title>stock</title>
<path class="st0" d="M88.6,46c-0.1,2.4,1.7,4.5,4.2,4.6h15.5c2.4-0.2,4.3-2.2,4.1-4.6l0,0c0.1-2.4-1.7-4.5-4.2-4.6H92.7
	C90.3,41.5,88.5,43.6,88.6,46z"/>
<path class="st0" d="M32.9,155.1c0,4.3,3.2,7.9,7,7.9l121.8-0.1c3.9,0,7-3.5,7-7.9l-0.1-99.2c0-4.3-3.1-7.8-7-7.8L39.8,48.1
	c-3.9,0-7,3.5-7,7.9L32.9,155.1z"/>
<path class="st1" d="M38.1,151.3c0,4,2.9,7.3,6.5,7.3l112.5-0.1c3.6,0,6.5-3.3,6.5-7.3l-0.1-91.6c0-4-2.9-7.3-6.5-7.3L44.4,52.5
	c-3.6,0-6.5,3.3-6.5,7.3L38.1,151.3z"/>
<rect x="135.4" y="92.4" transform="matrix(1 -1.047197e-03 1.047197e-03 1 -0.1243 0.1484)" class="st2" width="12.4" height="52.7"/>
<rect x="119.2" y="103.2" transform="matrix(1 -1.047197e-03 1.047197e-03 1 -0.13 0.1314)" class="st2" width="12.4" height="41.9"/>
<rect x="102.9" y="118.8" transform="matrix(1 -1.047197e-03 1.047197e-03 1 -0.1381 0.1144)" class="st2" width="12.4" height="26.3"/>
<rect x="86.7" y="125" transform="matrix(1 -1.047197e-03 1.047197e-03 1 -0.1414 9.735494e-02)" class="st2" width="12.4" height="20.1"/>
<rect x="70.5" y="132.8" transform="matrix(1 -1.047197e-03 1.047197e-03 1 -0.1455 8.036536e-02)" class="st2" width="12.4" height="12.3"/>
<rect x="54.2" y="139" transform="matrix(1 -1.047197e-03 1.047197e-03 1 -0.1488 6.335351e-02)" class="st2" width="12.4" height="6.1"/>
<rect x="48.5" y="149.6" transform="matrix(1 -1.047197e-03 1.047197e-03 1 -0.1581 0.1075)" class="st3" width="108.1" height="2.9"/>
<path class="st4" d="M48,127.6c-1.1,0-2-0.9-2.2-1.9c-0.3-1.3,0.4-2.6,1.7-3.1c49.7-13.5,84.5-34,95.6-56.3c0.2-0.4,0.4-0.7,0.6-1.1
	c0.6-1,1.9-1.3,2.9-0.6c0.1,0.1,0.2,0.1,0.3,0.2c1,0.9,1.1,2.4,0.4,3.5c-0.1,0.1-0.1,0.3-0.2,0.5c-6.9,13.8-28.8,39.8-98.5,58.8
	C48.4,127.6,48.2,127.6,48,127.6z"/>
<rect x="154.2" y="58.8" transform="matrix(1 -1.047197e-03 1.047197e-03 1 -0.1098 0.1629)" class="st3" width="2.6" height="92.2"/>
<path class="st4" d="M149,78.6c-0.8,0-1.5-0.6-1.6-1.4l-1.8-10.1l-9.9,3c-0.8,0.2-1.7-0.3-2-1.1c0-0.1,0-0.1,0-0.2
	c-0.3-0.9,0.2-1.9,1.1-2.2l11.6-3.5c0.4-0.1,0.9,0,1.3,0.2c0.4,0.3,0.6,0.7,0.7,1.2l2.1,12c0.2,0.9-0.4,1.8-1.3,2.1
	C149.2,78.6,149.1,78.6,149,78.6z"/>
</svg>
