<?xml version="1.0" encoding="utf-8"?>
<!-- Generator: Adobe Illustrator 18.0.0, SVG Export Plug-In . SVG Version: 6.00 Build 0)  -->
<!DOCTYPE svg PUBLIC "-//W3C//DTD SVG 1.1//EN" "http://www.w3.org/Graphics/SVG/1.1/DTD/svg11.dtd">
<svg version="1.1" id="Layer_1" xmlns="http://www.w3.org/2000/svg" xmlns:xlink="http://www.w3.org/1999/xlink" x="0px" y="0px"
	 viewBox="0 0 240 237.2" enable-background="new 0 0 240 237.2" xml:space="preserve">
<g>
	<g>
		<path fill="#009688" d="M115.4,224.7L115.4,224.7c4.7-7.6,4.9-16.8,1.5-24.7l19.3,11.8c13.6,8.3,31.1,4.7,38.9-8.1l0,0
			c3.5-5.7,4.5-12.2,3.4-18.5l18.8,11.6c13.6,8.3,31.1,4.7,38.9-8.1l0,0c7.8-12.8,3.2-30-10.4-38.4l-14.3-8.8c2.3-1.8,4.2-4,5.8-6.6
			c7.8-12.8,3.2-30-10.4-38.4l-10-6.2c1.6-1.5,2.9-3.2,4.1-5.1c7.8-12.8,3.2-30-10.4-38.4l-0.4-0.2l-51.4-31.6L114.1,0L63.4,82.6
			l0,0L40,120.7l0,0l-25.7,41.8l0,0L0,185.7l24.7,15.2l51.4,31.6l0.4,0.2C90,241.1,107.6,237.4,115.4,224.7z"/>
	</g>
	<g>
		<path fill="#8EB999" d="M145.9,200.2c-0.5-0.2-7.6-7.8-15.4-14.5c-1.9-1.7-3.9-3.3-5.8-4.8c-0.8-0.6-1.5-1.2-2.3-1.8l-0.1-0.1
			c0,0,0,0,0,0l0.6-0.9l0.7-1.1l0.1-0.1l0-0.1c-2.7,4.3-0.8,1.2-1.4,2.2l0,0l0,0l0,0l0.1,0l0,0c0-0.1-0.1-0.2-0.1-0.2
			c0.7-3,1.9-6.2,3.6-9.1c0.3,0.3,0.5,0.6,0.7,0.9c0.1,0.2,0.2,0.3,0.3,0.5c0.1,0.2,0,0.3,0.1,0.5c0.1,0.3,0.4,0.8,0.8,1.3l1.6,2
			c2.1,2.7,4.1,5.4,6,8.2C139.4,188.8,142.9,194.5,145.9,200.2z"/>
		<path fill="#8EB999" d="M151.7,188.3c-0.4-0.2-6.7-6.6-13.4-12.3c-1.7-1.4-3.4-2.8-5-4.1c-1.6-1.3-3.3-2.7-3.9-3.1
			c-0.4-0.3-0.5-0.4-0.9-0.6c-0.3-0.2-0.6-0.3-0.8-0.4c-0.4-0.2-0.7-0.3-0.7-0.3c1.4-2.3,3.2-4.4,5.1-6.3c0.4,0.4,0.8,0.8,1.1,1.3
			l1.2,1.4l2.7,3.4c1.8,2.3,3.5,4.6,5.2,6.9C145.8,178.7,148.9,183.4,151.7,188.3z"/>
		<path fill="#8EB999" d="M157.1,177c-0.4-0.2-5.8-5.5-11.6-10.4c-2.9-2.4-5.8-4.8-8-6.5c-1.1-0.8-2-1.4-2.6-1.8
			c-0.6-0.4-1-0.6-1-0.6c1.7-1.5,3.5-2.8,5.5-4c1,1,1.8,2,2.6,2.9l2.3,2.8c1.5,1.9,3,3.8,4.5,5.8C151.8,169.1,154.5,173,157.1,177z"
			/>
		<path fill="#8EB999" d="M162.2,167.8c-0.3-0.1-5-4.6-9.8-8.7c-4.8-4.1-9.7-7.9-10-8.1c1.6-0.9,3.4-1.7,5-2.6
			C152.7,154.7,157.7,161.2,162.2,167.8z"/>
		<path fill="#8EB999" d="M166.7,159.6c-0.3-0.1-4.2-3.8-8.2-7.2c-4-3.5-8.2-6.7-8.2-6.7l3.9-2.1
			C158.6,148.8,162.8,154.2,166.7,159.6z"/>
		<path fill="#8EB999" d="M170.4,153.4c-0.2-0.1-3.5-3.1-6.8-6c-3.3-2.9-6.7-5.6-6.7-5.6l3.2-1.6
			C163.7,144.5,167.1,148.9,170.4,153.4z"/>
	</g>
	<g>
		<path fill="#8EB999" d="M174.7,117.9c-0.3,0.1-4.9-2-9.7-3c-0.6-0.1-1.2-0.3-1.8-0.4c-1-0.2-1.9-0.3-2.8-0.5
			c-1.2-0.2-2.8-0.5-4.4-0.9c-0.8-0.2-1.8-0.4-2.6-0.7c-0.8-0.2-1.5-0.4-2.2-0.7c-2.8-0.9-5.1-2-6.6-2.8c-0.8-0.4-1.3-0.7-1.7-1
			c-0.4-0.2-0.6-0.4-0.6-0.4c3-2.1,5.7-4.4,8.1-6.8c1.7,1.2,3.5,2.3,5.5,3.3c2.2,1,4,1.7,5.5,2.4c1.5,0.7,2.5,1.2,3.3,1.8
			c0.8,0.6,1.6,1.2,2.4,1.8C169.9,112.4,172.5,115.1,174.7,117.9z"/>
		<path fill="#8EB999" d="M176.6,105.3c-0.3,0.1-5.1-1.8-10.2-2.9c-1.3-0.3-2.3-0.5-4-0.7c-1.6-0.3-3.5-0.6-5.4-1.1
			c-1.9-0.5-3.3-1-4.3-1.4c-1-0.4-1.5-0.7-1.5-0.7c1.9-2,3.6-4.2,5.2-6.4c1,0.7,2.3,1.4,3.5,2l3.3,1.6c1,0.5,1.9,1,2.7,1.4
			c0.8,0.5,1.6,1,2.4,1.5C171.3,100.6,174.1,102.9,176.6,105.3z"/>
		<path fill="#8EB999" d="M177.7,93.2c-0.3,0.1-5-1.6-9.9-2.6c-2.4-0.5-4.9-0.8-7-1.3c-1-0.2-1.9-0.5-2.5-0.6
			c-0.6-0.2-0.9-0.3-0.9-0.3c1.1-1.8,2.2-3.7,3.1-5.7c2.4,1.7,5.8,3.1,8.7,4.8C172.3,89.3,175.1,91.1,177.7,93.2z"/>
		<path fill="#8EB999" d="M178.5,82.7c-0.3,0.1-4.7-1.4-9.2-2.2c-1.1-0.2-2.3-0.4-3.3-0.6c-0.9-0.2-1.8-0.3-2.5-0.4
			c-1.3-0.2-2-0.4-2-0.4c0.6-1.6,1.2-3.2,1.7-4.8c0.8,0.6,1.9,1.2,3.2,1.8c1.4,0.7,2.8,1.3,4.2,2.1C173.4,79.5,176,81.1,178.5,82.7z
			"/>
		<path fill="#8EB999" d="M179,73.4c-0.2,0-4.2-1.1-8.2-1.9c-2-0.4-4.1-0.8-5.2-0.9c-1.1-0.2-1.5-0.3-1.5-0.3l1.2-3.9
			c1.3,0.9,4.3,2,6.7,3.2C174.4,70.8,176.7,72,179,73.4z"/>
		<path fill="#8EB999" d="M179.4,66.2c-0.2,0-3.6-0.9-7.1-1.6c-1.7-0.4-3.5-0.7-4.7-0.9c-0.9-0.2-1.6-0.3-1.6-0.3
			c0.3-1,0.7-2.1,1.1-3.1c0.2,0.1,0.4,0.2,0.6,0.3c0.2,0.1,0.4,0.2,0.7,0.3l1.6,0.7c1.1,0.5,2.1,0.9,3.2,1.4
			C175.4,64,177.4,65,179.4,66.2z"/>
	</g>
	<g>
		<path fill="#8EB999" d="M131.8,92.3c-0.4,0.1-8-2.4-15.2-5.4c-7.2-3-14.1-6.5-14.1-6.5c2.1-2.6,4.2-5.3,6.3-7.9
			C115.9,79.4,123.5,86.1,131.8,92.3z"/>
		<path fill="#8EB999" d="M132,79.3c-0.3,0.1-6-1.9-11.4-4.2c-5.5-2.3-10.7-4.9-10.7-4.9c1.6-2.1,3.3-4.3,4.9-6.4
			C120.1,69.1,125.9,74.3,132,79.3z"/>
		<path fill="#8EB999" d="M132.9,67.1c-0.3,0.1-4.5-1.5-8.6-3.2c-4.1-1.7-8.1-3.7-8.1-3.7L120,55C124.1,59.2,128.4,63.2,132.9,67.1z
			"/>
		<path fill="#8EB999" d="M134.5,56.9c-0.2,0.1-3.4-1.1-6.5-2.5c-3.1-1.3-6.1-2.8-6.1-2.8l2.9-4.2C127.9,50.6,131.1,53.8,134.5,56.9
			z"/>
		<path fill="#8EB999" d="M136.2,47.8c-0.2,0-2.6-0.9-5-1.9c-2.4-1-4.7-2.1-4.7-2.1l2.3-3.4C131.2,42.9,133.6,45.4,136.2,47.8z"/>
		<path fill="#8EB999" d="M137.7,40.9c-0.1,0-2-0.7-3.8-1.5c-1.8-0.8-3.6-1.6-3.6-1.6l1.8-2.8C133.9,37,135.8,38.9,137.7,40.9z"/>
	</g>
	<g>
		<path fill="#8EB999" d="M90.9,147.3c-0.4,0.1-6.2-2-11.8-4.6c-5.6-2.6-10.9-5.5-10.9-5.5c2-2.6,4.1-5.3,6-8
			C79.2,135.4,84.8,141.5,90.9,147.3z"/>
		<path fill="#8EB999" d="M92.2,134.6c-0.3,0.1-4.6-1.6-8.8-3.5c-4.2-1.9-8.1-4.1-8.1-4.1c1.6-2.1,3.1-4.3,4.7-6.5
			C83.7,125.3,87.8,130,92.2,134.6z"/>
		<path fill="#8EB999" d="M94.1,122.7c-0.2,0.1-3.4-1.2-6.5-2.7c-3.1-1.4-6-3-6-3l3.6-5.2C88,115.5,90.9,119.1,94.1,122.7z"/>
		<path fill="#8EB999" d="M96.4,112.7c-0.2,0.1-2.5-0.9-4.8-2c-2.3-1.1-4.5-2.3-4.5-2.3l2.8-4.2C91.9,107,94.1,109.9,96.4,112.7z"/>
		<path fill="#8EB999" d="M98.7,103.8c-0.1,0.1-1.9-0.7-3.6-1.5c-1.7-0.8-3.4-1.7-3.4-1.7l2.2-3.4C95.4,99.4,97,101.6,98.7,103.8z"
			/>
		<path fill="#8EB999" d="M100.6,96.9c-0.1,0.1-1.4-0.5-2.7-1.1c-1.3-0.6-2.6-1.3-2.6-1.3l1.7-2.8C98.2,93.5,99.4,95.2,100.6,96.9z"
			/>
	</g>
	<g>
		<path fill="#5D9389" d="M81.9,213.4c-0.2,0-2.4-0.6-5.4-1.9c-3-1.3-6.8-3.2-10.4-5.4c-3.6-2.2-7-4.7-9.4-6.6
			c-2.4-2-3.9-3.4-3.9-3.4c2.9-1.8,5.7-3.7,8.5-5.7C66.1,198.8,73,206.8,81.9,213.4z"/>
		<path fill="#5D9389" d="M82.5,200.4c-0.3,0.1-5.7-2.1-10.5-5.1c-2.4-1.5-4.7-3.1-6.3-4.4c-1.6-1.3-2.7-2.2-2.7-2.2
			c2.2-1.6,4.3-3.3,6.4-5C72.6,189.5,76.9,195.3,82.5,200.4z"/>
		<path fill="#8EB999" d="M84.5,188.5c-0.2,0.1-3.7-1.5-6.8-3.5c-1.6-1-3.1-2.1-4.2-2.9c-1.1-0.8-1.8-1.4-1.8-1.4
			c1.6-1.4,3.2-2.8,4.8-4.3C78.5,180.5,81.2,184.6,84.5,188.5z"/>
		<path fill="#8EB999" d="M87.4,178.6c-0.2,0.1-2.4-1-4.4-2.3c-2-1.3-3.9-2.8-3.9-2.8c1.2-1.2,2.4-2.4,3.6-3.6
			C83.8,172.8,85.4,175.8,87.4,178.6z"/>
		<path fill="#8EB999" d="M90.4,170c-0.1,0.1-1.5-0.7-2.8-1.5c-1.3-0.8-2.5-1.8-2.5-1.8c0.9-1,1.8-2,2.7-3
			C88.4,165.8,89.3,167.9,90.4,170z"/>
		<path fill="#8EB999" d="M93.1,163.5c-0.1,0.1-0.9-0.4-1.8-1c-0.8-0.5-1.6-1.1-1.6-1.1l2-2.5C92.1,160.4,92.5,161.9,93.1,163.5z"/>
	</g>
</g>
<g>
</g>
<g>
</g>
<g>
</g>
<g>
</g>
<g>
</g>
<g>
</g>
<g>
</g>
<g>
</g>
<g>
</g>
<g>
</g>
<g>
</g>
<g>
</g>
<g>
</g>
<g>
</g>
<g>
</g>
</svg>
