<?xml version="1.0" encoding="utf-8"?>
<!-- Generator: Adobe Illustrator 18.0.0, SVG Export Plug-In . SVG Version: 6.00 Build 0)  -->
<!DOCTYPE svg PUBLIC "-//W3C//DTD SVG 1.1//EN" "http://www.w3.org/Graphics/SVG/1.1/DTD/svg11.dtd">
<svg version="1.1" id="Layer_1" xmlns="http://www.w3.org/2000/svg" xmlns:xlink="http://www.w3.org/1999/xlink" x="0px" y="0px"
	 viewBox="0 0 522.6 325.4" enable-background="new 0 0 522.6 325.4" xml:space="preserve">
<g>
	<path fill="#FFFFFF" d="M434.9,291.1H87.6C39.2,291.1,0,251.8,0,203.4L0,87.6C0,39.2,39.2,0,87.6,0l347.3,0
		c48.4,0,87.6,39.2,87.6,87.6v115.8C522.6,251.8,483.3,291.1,434.9,291.1z"/>
	<g>
		<path fill="#616264" d="M73.5,64.7l-2.7-2.3c1.7-1.7,2.9-4,3.7-6.8l-1.9,0.1l-1-3c0.6-0.2,1.2-0.5,1.6-0.9
			c1.4-2.4,2.5-4.6,3.2-6.7l3.5,1c-1.1,2.5-2.3,4.6-3.6,6.2c2.1-0.2,4.3-0.6,6.7-1.1c-0.5-0.9-1.1-1.8-1.7-2.7l2.8-1.7
			c2.1,3,3.6,5.6,4.8,7.8l-2.9,2c-0.4-0.9-0.9-1.8-1.3-2.6c-2.7,0.6-5.9,1-9.4,1.4l2.6,1c-0.2,0.6-0.4,1.2-0.5,1.7h10v3.3h-5.1
			c-0.1,1.4-0.2,2.8-0.4,4h6.5v3.3H81c-0.1,0.1-0.1,0.3-0.1,0.4c2.1,1.4,4.1,3.1,6.2,4.8l-2.2,3.3c-2.2-2.2-3.9-3.9-5.4-5.1
			c-1.5,2.7-3.6,4.8-6.3,6.3L71,75.8c3-1.5,5.1-3.8,6.4-6.9h-5.6v-3.3h6.5c0.2-1.3,0.3-2.6,0.4-4v0h-2.9
			C75.1,62.8,74.3,63.8,73.5,64.7z M97,62.6c-0.1,0.4-0.1,0.7-0.1,1c1.2,5.2,3.8,9.2,7.6,12.1l-2.2,2.9c-3.1-2.5-5.3-5.8-6.7-9.7
			c-1.5,3.9-3.9,7.2-7.2,10l-2-3.1c4.8-3.7,7.2-9,7.3-15.8c0-1.5,0-2.8,0-3.6h3.5C97.2,58.8,97.1,60.9,97,62.6z M90.4,61.2l-3-2.1
			c1.9-3.3,3.1-7.8,3.7-13.8l3.5,0.6c-0.2,1.7-0.4,3.3-0.6,4.8h9.7V53c-0.5,3.1-1.1,6.2-1.9,9.3l-3.5-1c0.7-2,1.3-4.4,1.8-7.2h-6.8
			C92.5,57,91.6,59.4,90.4,61.2z"/>
		<path fill="#616264" d="M111.3,64.7l-2.7-2.3c1.7-1.7,2.9-4,3.7-6.8l-1.9,0.1l-1-3c0.6-0.2,1.2-0.5,1.6-0.9
			c1.4-2.4,2.5-4.6,3.2-6.7l3.5,1c-1.1,2.5-2.3,4.6-3.6,6.2c2.1-0.2,4.3-0.6,6.7-1.1c-0.5-0.9-1.1-1.8-1.7-2.7l2.8-1.7
			c2.1,3,3.6,5.6,4.8,7.8l-2.9,2c-0.4-0.9-0.9-1.8-1.3-2.6c-2.7,0.6-5.9,1-9.4,1.4l2.6,1c-0.2,0.6-0.4,1.2-0.5,1.7h10v3.3h-5.1
			c-0.1,1.4-0.2,2.8-0.4,4h6.5v3.3h-7.3c-0.1,0.1-0.1,0.3-0.1,0.4c2.1,1.4,4.1,3.1,6.2,4.8l-2.2,3.3c-2.2-2.2-3.9-3.9-5.4-5.1
			c-1.5,2.7-3.6,4.8-6.3,6.3l-2.2-2.8c3-1.5,5.1-3.8,6.4-6.9h-5.6v-3.3h6.5c0.2-1.3,0.3-2.6,0.4-4v0h-2.9
			C112.9,62.8,112.1,63.8,111.3,64.7z M134.8,62.6c-0.1,0.4-0.1,0.7-0.1,1c1.2,5.2,3.8,9.2,7.6,12.1l-2.2,2.9
			c-3.1-2.5-5.3-5.8-6.7-9.7c-1.5,3.9-3.9,7.2-7.2,10l-2-3.1c4.8-3.7,7.2-9,7.3-15.8c0-1.5,0-2.8,0-3.6h3.5
			C135,58.8,134.9,60.9,134.8,62.6z M128.2,61.2l-3-2.1c1.9-3.3,3.1-7.8,3.7-13.8l3.5,0.6c-0.2,1.7-0.4,3.3-0.6,4.8h9.7V53
			c-0.5,3.1-1.1,6.2-1.9,9.3l-3.5-1c0.7-2,1.3-4.4,1.8-7.2h-6.8C130.3,57,129.4,59.4,128.2,61.2z"/>
		<path fill="#616264" d="M161.7,59c1.3,0.7,2.5,1.5,3.8,2.2c1.4,0.8,2.8,1.2,4.1,1.2c1.3,0,3-1.4,5-4l2.7,2.2
			c-2.6,3.6-5.1,5.4-7.7,5.4c-1.7,0-3.3-0.4-4.9-1.2c-1.2-0.8-2.5-1.5-3.7-2.2c-1.4-0.8-2.8-1.2-4.2-1.2c-1.4,0-3,1.3-5,4l-2.7-2.2
			c2.5-3.6,5.1-5.4,7.7-5.4C158.5,57.8,160.1,58.2,161.7,59z"/>
		<path fill="#616264" d="M198.1,45.4v26.4c0.8-0.2,1.6-0.4,2.4-0.6v3.6c-4.7,1.3-9.6,2.3-15,3.2l-0.9-3.6c3.3-0.4,6.5-0.9,9.7-1.7
			V58.5h-8.8V55h8.8v-9.6H198.1z M207.5,77.4c-2.8,0-4.2-1.3-4.2-4v-28h3.8v9.8l9.5-0.6v3.6l-9.5,0.7v14.1c0,0.6,0.4,1,1.2,1h3.1
			c0.9,0,1.5-0.3,1.9-0.7c0.4-0.5,0.6-2.3,0.7-5.2l3.5,1.2c-0.3,3.9-0.7,6.3-1.4,7.1c-0.7,0.8-2.1,1.2-4,1.2H207.5z"/>
		<path fill="#616264" d="M254,46.4v3.5h-3.6v11h4.4v3.5h-4.4v10.2c0,2.6-1.4,3.9-4.1,3.9h-4.2l-0.8-3.5c1.3,0.1,2.6,0.3,3.8,0.3
			c1,0,1.5-0.5,1.5-1.6v-9.3h-24v-3.5h23.9v-11h-22.5v-3.5H254z M242.2,66v8.3h-14.7V66H242.2z M242.1,51.4v7.8h-14.3v-7.8H242.1z
			 M238.7,68.8H231v2.8h7.7V68.8z M238.7,54.1h-7.4v2.5h7.4V54.1z"/>
		<path fill="#616264" d="M279.7,60.9c0,3.5-1.7,6.2-4.9,8l-1.3-2.1c2.2-1.3,3.3-3,3.5-5c-0.2,0-0.4,0.1-0.7,0.1
			c-0.8,0-1.4-0.3-2-0.8s-0.8-1.2-0.8-1.9c0-0.8,0.3-1.5,0.8-2c0.5-0.5,1.2-0.8,2-0.8C278.6,56.5,279.7,58,279.7,60.9z"/>
		<path fill="#616264" d="M330.5,58.9v3.2h-15.8v16.6H311v-2.9c-2.8,0.4-6.8,0.8-12,1.2l-0.5-3.2l3-0.1V62.1h-3v-3.2H330.5z
			 M326.4,57.5h-3.7v-8.4h-16.3v8.5h-3.6V46.3h23.6V57.5z M311,63.9v-1.8h-6v1.8H311z M311,68.6v-2h-6v2H311z M311,72.8v-1.6h-6v2.2
			C307.3,73.2,309.3,73,311,72.8z M321.7,54.7v2.4h-14.2v-2.4H321.7z M321.6,50.8v2.5h-14.1v-2.5H321.6z M315.9,66.6v-3.1h12.7v2.9
			c-0.6,2.4-1.7,4.6-3.2,6.5c1.5,1,3.2,1.9,5.2,2.7l-1.9,3.1c-2.2-1.1-4.1-2.2-5.7-3.5c-1.7,1.4-3.8,2.5-6.2,3.5l-1.9-2.9
			c2.2-0.8,4-1.8,5.6-3c-1.7-1.9-2.8-4-3.4-6.3H315.9z M325.2,66.6h-4.9c0.5,1.5,1.4,2.8,2.5,4.1C323.9,69.5,324.7,68.1,325.2,66.6z
			"/>
		<path fill="#616264" d="M345.3,54v2.9c-1.1,1.8-2.3,3.6-3.8,5.4h4.3v2.4c-0.5,2.6-1.2,4.8-1.9,6.5l0.5,0.5c1.1,1,2.1,1.8,3,2.2
			c0.9,0.4,2.3,0.6,4.1,0.7c1.8,0,3.9,0.1,6.2,0.1c2.9,0,6.6-0.1,11.2-0.4l-0.9,3.7h-9.8c-2.3,0-4.6-0.1-6.8-0.1
			c-2.3-0.1-4-0.4-5.1-0.8c-1.4-0.6-2.7-1.5-3.8-2.7c-0.2-0.3-0.5-0.4-0.8-0.4c-0.6,0-1.8,1.5-3.3,4.7l-2.7-2.5
			c1.7-3.2,3.2-5.1,4.8-5.7c0.7-1.5,1.3-3.2,1.7-5h-5.1v-2.8c1.7-1.9,3-3.6,4.1-5.2h-5.1V54H345.3z M344.9,50.5l-2.4,2.4
			c-1.2-1.6-3-3.3-5.3-5.1l2.5-2.4C341.7,47.1,343.5,48.8,344.9,50.5z M352.7,58.5c-0.4,5.7-1.7,10.3-4,13.7l-2.6-2.7
			c1.9-3.1,3-7.3,3.2-12.7v-9.6c5.7-0.1,10.7-0.8,15.1-1.9l1.8,3.2c-4,1-8.5,1.6-13.5,1.8V55h15v3.6h-5.5v14.7h-3.6V58.5H352.7z"/>
		<path fill="#616264" d="M382.1,59.4l-2.7,2.7c-1.4-1.6-3.4-3.3-6-5.2l2.7-2.6C378.4,56,380.4,57.7,382.1,59.4z M382.2,65.3
			c-1.5,4.6-3.1,8.9-5,13l-3.5-1.5c2-4.2,3.7-8.4,5.1-12.7L382.2,65.3z M383.1,50.7l-2.7,2.7c-1.4-1.6-3.5-3.3-6.1-5.1l2.7-2.6
			C379.3,47.4,381.4,49,383.1,50.7z M392.3,67.8c0.2-0.7,0.4-1.5,0.5-2.3h3.5c-0.1,0.8-0.3,1.5-0.4,2.3h10.6V71h-11.8
			c-0.6,1.2-1.4,2.2-2.2,3.2c-1.9,1.9-5.2,3.4-9.9,4.5l-1.4-3.4c3.9-0.8,6.8-1.9,8.5-3.4c0.3-0.3,0.6-0.6,0.9-0.9h-8.4v-3.2H392.3z
			 M396.3,45.5c-0.3,0.8-0.5,1.5-0.9,2.2h10v16c0,1.9-1.1,2.8-3.2,2.8h-1.7l-0.8-2.9l1.5,0.1c0.4,0,0.6-0.3,0.6-0.8V50.8h-14.9v15.7
			h-3.6V47.7h8.1c0.4-0.9,0.8-1.8,1-2.7L396.3,45.5z M400.8,53.5c-1.4,0.4-3,0.7-4.8,0.9v3.1h0.6c0.6-1,1.2-2,1.5-3l2.4,1
			c-0.4,0.7-0.8,1.4-1.2,2h1.7v2.6h-4.9c1.5,0.6,3,1.3,4.5,2.1l-1.7,2.5c-1.2-1-2.2-1.8-3-2.4v2.7h-3v-2.8c-1.2,1.3-2.5,2.4-4,3.3
			l-1.5-2.7c1.9-0.8,3.5-1.6,4.8-2.6h-4.5v-2.6h1.8c-0.3-0.6-0.6-1.1-0.9-1.6L391,55c0.4,0.8,0.8,1.7,1.1,2.5h0.9v-2.8
			c-1.3,0.1-2.7,0.1-4.2,0.1l-0.9-2.6c4.5,0,8.4-0.4,11.5-1.1L400.8,53.5z M407,75.8l-2,3.1c-3.3-1.9-6.6-3.4-10-4.5l1.8-2.7
			C400.5,72.9,403.9,74.2,407,75.8z"/>
		<path fill="#616264" d="M434.5,76.4l-0.9-3.5l2.7,0.2c0.8,0,1.2-0.5,1.2-1.3V69h-7.8v9.6H426V69h-7.8V76h-3.7V65.7H426v-2.1h-1.8
			l-0.8-2.8l1.6,0.1c0.5,0,0.8-0.3,0.8-1v-1l-2.3,0.6c-0.3-1.8-0.7-3.4-1.1-5l2-0.7c0.5,1.4,1,3.1,1.4,4.9V53h-3.6v10.1h-2.8V53
			h-3.7v10.5h-3.1V50.1h2.9c-0.6-1.2-1.4-2.3-2.1-3.3l2.7-1.3c0.7,1.1,1.4,2.3,2.1,3.6l-1.9,0.9h3v-4.7h3.1v4.7h2.9l-1.8-1
			c0.9-1.2,1.5-2.4,2.1-3.6l2.7,1.3c-0.5,1.1-1.2,2.2-2,3.2h2.6v3.5c2.2-2.3,3.6-5,4.3-8.2l3.4,0.4c-0.3,1-0.5,1.9-0.9,2.8h7.7v3.2
			h-1.4c-0.8,2.6-1.8,4.8-3.1,6.6c1.6,1.1,3.4,2,5.4,2.9l-1.8,3.1c-2.3-1.1-4.2-2.2-5.9-3.5c-1.7,1.4-3.6,2.5-5.8,3.2l-1.7-2.8
			c1.9-0.6,3.6-1.4,5-2.6c-0.8-0.8-1.5-1.5-2.1-2.3l1.6-2.4c0.8,0.9,1.6,1.8,2.6,2.6c1-1.4,1.8-2.9,2.3-4.6h-4.5
			c-1,1.7-2.2,3.2-3.6,4.6l-1.8-2.4v6.6c0,1.4-0.5,2.3-1.5,2.7h2.3v2.3h11.5v7c0,2.5-1.3,3.8-3.7,3.8H434.5z M419.1,54.6
			c-0.1,2.3-0.4,4.4-0.9,6.3l-2.4-0.8c0.5-1.7,0.9-3.6,1-5.8L419.1,54.6z"/>
		<path fill="#616264" d="M84.7,131.4h-3.6v-1.8h-5.3v2.8h-3.6v-26.3h3.5c0.6-1.9,1.1-3.9,1.4-5.9l3.8,0.5c-0.4,1.9-0.9,3.8-1.6,5.4
			h5.5V131.4z M81.1,116v-6.3h-5.3v6.3H81.1z M81.1,126.1v-6.8h-5.3v6.8H81.1z M102.6,129.5c-0.4,2.5-2.1,3.8-5.2,3.8
			c-0.7,0-2-0.1-3.9-0.2l-0.9-3.4c1.6,0.1,3,0.2,4.2,0.2c1.3,0,2.1-0.7,2.3-2.1c0.2-1.7,0.3-7.7,0.4-17.9h-8.7
			c-1,2.2-2.1,4.1-3.5,5.8l-2.3-3c2.4-3.4,4-7.6,4.8-12.5l3.7,0.5c-0.4,1.9-0.8,3.8-1.4,5.5h10.9C103.2,118.7,103,126.5,102.6,129.5
			z M96.5,122.6l-3,2.1c-1.3-2.4-3.1-5-5.4-7.9l3.1-1.9C93.5,117.8,95.3,120.3,96.5,122.6z"/>
		<path fill="#616264" d="M116,109.6V106c-1.7,0.3-3.5,0.5-5.2,0.6l-1.2-3.5c6-0.5,10.8-1.5,14.4-2.9l1.8,3.1c-1.9,0.7-4,1.4-6,1.9
			v4.4h6.4v3.6h-6.4v0.9c2.2,1.8,4.4,3.8,6.7,6l-2.2,3.4c-1.8-2.3-3.3-4.1-4.5-5.4v15.5H116v-14.1c-1.6,2.9-3.5,5.5-5.8,8l-1.7-4.4
			c3.4-2.9,5.9-6.1,7.5-9.7v-0.1h-6.6v-3.6H116z M132.1,103.6v22h-3.7v-22H132.1z M131.4,133.3l-0.8-3.6c1.7,0.1,3.3,0.2,4.9,0.2
			c0.8,0,1.3-0.5,1.3-1.5v-27.9h3.8v28.9c0,2.6-1.3,4-3.8,4H131.4z"/>
		<path fill="#616264" d="M156.1,103.8c-0.4-1.1-0.9-2.1-1.4-3.1l3.9-0.6c0.4,1.1,0.8,2.3,1.3,3.7h7.1c0.5-1.2,1-2.5,1.3-3.8l4,0.5
			c-0.4,1.2-0.8,2.3-1.4,3.3h7.2v3.5h-12.9v2.1h10.9v3.5h-10.9v2.1h13.9v3.5h-20.4c-0.4,0.9-0.8,1.8-1.2,2.7h19.3v3.6h-9.6v4.5H179
			v3.6h-28v-3.6h12.3v-4.5h-7.1V123c-1.9,2.8-4.4,4.9-7.5,6.5l-2.5-2.9c4.1-1.8,7-4.5,8.7-8.2h-7.5v-3.5h13.8v-2.1h-10.7v-3.5h10.7
			v-2.1h-12.8v-3.5H156.1z"/>
		<path fill="#616264" d="M194.5,101.6c-1.8,4-4.8,7.5-9.1,10.8l-1.1-3.6c3.2-2.4,5.5-5.4,7-8.7L194.5,101.6z M195.6,110.9
			c-0.8,1.7-1.8,3.4-3.1,4.9v17.9h-3.7v-14c-1,0.9-2.1,1.7-3.2,2.6l-1.1-3.6c3.5-2.7,6.1-5.8,7.8-9.3L195.6,110.9z M200.2,128.4
			c2-0.6,4-1.3,6-2.2l0.8,3.4c-3,1.2-6.6,2.3-11.1,3.4l-0.8-3.2c0.9-0.3,1.4-0.7,1.4-1.3v-27.1h18.1v16.3h-14.4V128.4z M211,104.9
			h-10.8v3H211V104.9z M200.2,114.3H211v-3.1h-10.8V114.3z M217.2,120.8c-1.7,1.9-3.5,3.4-5.5,4.5c1.7,2.1,3.8,3.7,6.2,4.9l-2.1,3.1
			c-5-2.8-8.7-7.2-11-13l2.8-1.6c0.6,1.5,1.3,2.9,2.1,4.1c1.8-1,3.5-2.5,5.1-4.4L217.2,120.8z"/>
		<path fill="#616264" d="M254.4,101.8v3.7h-11.6c-0.6,1.3-1.3,2.6-2.1,3.9v1.5c5.7,3.2,10.5,6.7,14.6,10.5l-2.6,3.1
			c-3.2-3.4-7.2-6.7-12-9.7v18.8h-3.9v-19c-3.3,3.7-7.4,7-12.3,9.9l-2.5-3.3c7.8-4.4,13.2-9.6,16.4-15.8h-15.3v-3.7H254.4z"/>
		<path fill="#616264" d="M262.8,111.9v-1.4c-0.4,0.4-0.8,0.9-1.1,1.3l-2-2.8c2.2-2.4,4.2-5.3,6.1-8.6h2.5c2,2.2,3.9,4.4,5.6,6.7
			l-2,2.1v2.7h-2.8v3h4.1v3.5h-4.1v9.4c1.5-0.4,3.1-0.8,4.6-1.2v3.5c-3.9,1.2-8.1,2.2-12.6,3.1l-0.9-3.7c1.8-0.2,3.5-0.5,5.3-0.9
			v-10.2h-4.4v-3.5h4.4v-3H262.8z M264.9,126.7l-2.7,0.7c-0.4-2.3-1-4.5-1.6-6.6l2.7-0.9C263.9,121.9,264.4,124.2,264.9,126.7z
			 M271,108.7c-1.4-2.1-2.6-3.6-3.6-4.6c-0.9,1.6-2,3.2-3.1,4.6H271z M273.7,120.1c-0.4,2.4-0.9,4.5-1.4,6.3l-2.6-0.9
			c0.5-1.6,0.9-3.7,1.3-6.2L273.7,120.1z M277.2,104.2v-3.5h3.6v3.5h4.4v-3.5h3.7v3.5h3.1v3.3h-3.1v3.6h4.3v3.5h-20v-3.5h4.1v-3.6
			h-3v-3.3H277.2z M290.9,133.6h-3.6v-1.3h-8.1v1.3h-3.6v-16.9h15.3V133.6z M287.3,122.7V120h-8.1v2.7H287.3z M287.3,128.8V126h-8.1
			v2.9H287.3z M285.2,111.1v-3.6h-4.4v3.6H285.2z"/>
		<path fill="#616264" d="M317.5,115.9c0,3.5-1.7,6.2-4.9,8l-1.3-2.1c2.2-1.3,3.3-3,3.5-5c-0.2,0-0.4,0.1-0.7,0.1
			c-0.8,0-1.4-0.3-2-0.8s-0.8-1.2-0.8-1.9c0-0.8,0.3-1.5,0.8-2c0.5-0.5,1.2-0.8,2-0.8C316.4,111.5,317.5,113,317.5,115.9z"/>
		<path fill="#616264" d="M352.6,120.5c-1.9,0.6-3.9,1.2-6,1.8v7.3c0,2.4-1.3,3.6-3.8,3.6h-4.1l-0.8-3.6c1.3,0.1,2.4,0.2,3.6,0.2
			c0.8,0,1.3-0.4,1.3-1.2v-5.4c-2.1,0.4-4.2,0.8-6.4,1.2l-0.5-3.8c2.4-0.4,4.8-0.8,7-1.3v-6.2h-7v-3.6h7v-3.3
			c-1.7,0.4-3.5,0.6-5.4,0.9l-0.8-3.6c5-0.5,9.4-1.6,13.3-3.2l1.3,3.5c-1.5,0.5-3,1-4.6,1.4v4.2h7.4c-0.2-2.8-0.3-5.8-0.3-9.1h3.8
			c0,3.5,0.1,6.5,0.4,9.1h10.8v3.6h-10.5c0.2,2.3,0.5,4.2,0.9,5.8c0.1,0.6,0.3,1.1,0.4,1.6c1.5-1.8,2.8-3.9,3.9-6.1l3.2,1.7
			c-1.6,3.2-3.5,6.1-5.7,8.5c0.4,0.9,0.8,1.6,1.2,2.2c1,1.6,1.8,2.4,2.3,2.4c0.4,0,0.8-1.8,1.2-5.4l3.3,1.8c-0.9,5.1-2.3,7.7-4,7.7
			c-1.6,0-3.2-1.1-4.9-3.2c-0.6-0.8-1.3-1.8-1.8-2.8c-2.4,2-5.2,3.6-8.2,4.8l-2.1-3.2c3.3-1.2,6.2-3,8.7-5.2
			c-0.4-1.2-0.8-2.3-1.1-3.6c-0.5-1.9-0.9-4.2-1.2-6.8h-7.7v5.3c2.1-0.5,4.1-1.1,6-1.8V120.5z M368,105.4l-2.7,2.7
			c-1.5-1.6-3.6-3.2-6.3-5l2.5-2.4C364,102.2,366.2,103.8,368,105.4z"/>
		<path fill="#616264" d="M384.3,101.7c-1.9,3.9-5.3,7.5-10,10.6l-1.2-3.6c3.6-2.4,6.3-5.3,8-8.5L384.3,101.7z M374.5,122.2
			l-1.1-3.6c3.6-2.7,6.2-5.8,7.9-9.3l3.2,1.5c-0.8,1.7-1.8,3.3-3,4.9v17.9h-3.6v-14.1C376.8,120.5,375.7,121.4,374.5,122.2z
			 M405.8,115.4v3.2h-4v2h4.8v3.3h-4.8v6c0,2.3-1.2,3.5-3.7,3.5h-3.9l-0.8-3.5c1.2,0.1,2.3,0.3,3.4,0.3c0.8,0,1.3-0.4,1.3-1.1v-5.1
			h-14.6v-3.3h14.6v-2h-13.4v-3.2H405.8z M403.9,101.4v12.2h-17.7v-12.2H403.9z M393.7,129.5l-2.8,1.9c-1-1.6-2.5-3.3-4.3-5.2
			l2.7-1.9C391.2,126.2,392.7,127.9,393.7,129.5z M400.3,106.1v-1.7h-10.5v1.7H400.3z M400.3,108.8h-10.5v1.8h10.5V108.8z"/>
		<path fill="#616264" d="M424.2,133c-2.3,0-3.4-1.2-3.4-3.5v-5h-2.1c-0.2,2.2-0.6,3.9-1.2,5.1c-0.8,1.5-2.2,2.8-4.2,4l-2.1-2.6
			c1.6-0.9,2.7-1.8,3.3-2.9c0.4-0.8,0.8-2,1-3.6h-3.2v-3h15.5v3H424v4.3c0,0.7,0.4,1,1.2,1h13.9c0.6,0,1.1-0.1,1.4-0.4
			c0.3-0.3,0.5-1,0.6-2.3c-0.5,0.1-1,0.3-1.6,0.3h-2.1l-0.8-3l2.2,0.1c0.7,0,1.1-0.5,1.1-1.4v-4.9c-0.9,1.1-1.8,2.2-2.8,3.1l-1.3-3
			c1.5-1.3,2.9-2.8,4.1-4.5v-9.4h-3.6v-3h6.7v22.7c0,1.2-0.4,2-1,2.6l2.2,0.7c-0.3,2.7-0.8,4.4-1.4,4.9c-0.6,0.5-1.7,0.7-3,0.7
			H424.2z M418.2,103v-2.7h3.3v2.7h5.2v2.8h-5.2v1.7h6.2v2.9h-2.2v2.1h2v2.7h-2v2.2h2.7v2.8h-8.1v-2.8h2.3v-2.2h-2.1v-2.7h2.1v-2.1
			h-5.2v2.1h2.1v2.7h-2.1v2.2c0.8-0.2,1.6-0.4,2.2-0.5v2.7c-1.4,0.5-3.9,0.9-7.4,1.3l-0.4-2.9c0.9-0.1,1.7-0.1,2.5-0.2v-2.6h-2.3
			v-2.7h2.3v-2.1h-2.3v-2.9h6.3v-1.7h-5.7V103H418.2z M432.2,113l-2.2,1c-0.5-2.6-1.1-4.9-1.7-6.9l2.3-0.8
			C431.2,108.5,431.7,110.7,432.2,113z M429,124.6l2.3,0.1c0.7,0,1.1-0.5,1.1-1.5v-3.6c-0.8,0.9-1.7,1.8-2.7,2.6l-1.3-3
			c1.4-1.1,2.8-2.3,4-3.7v-11h-3.9v-3h7v22.8c0,2.2-1.2,3.4-3.5,3.4h-2.2L429,124.6z M439.6,112.5l-2.2,1c-0.5-2.6-1.1-4.8-1.7-6.8
			l2.3-0.8C438.7,107.9,439.2,110.1,439.6,112.5z"/>
		<path fill="#616264" d="M71.5,161.1v-3.5h11.2v3.5h-3.7v8h3.3v3.5h-3.3v8c1.3-0.5,2.6-1.1,3.9-1.7v3.7c-3.4,1.5-7,2.8-10.9,3.9
			l-0.9-3.6c1.4-0.3,2.9-0.6,4.3-1.1v-9.3h-3.4v-3.5h3.4v-8H71.5z M90.6,155.3v10.5c-0.1,10.4-2.2,18.1-6.4,22.9l-2.8-2.5
			c3-3.5,4.7-8.6,5.3-15.4c-1.6-1.7-3.2-3.1-4.8-4.1l1.6-3c1.2,0.8,2.3,1.7,3.4,2.8v-11.3H90.6z M91.9,160.8v-3.4h11.8v3.4h-4.1v8.9
			h3.6v3.5h-3.6v10.7h4.7v3.5H90.7v-3.5h5.3v-10.7h-3.6v-3.5h3.6v-8.9H91.9z"/>
		<path fill="#616264" d="M140.6,186.7l-3.2,2.2c-0.5-1-1.1-1.9-1.7-2.9c-8.3,0.7-16.1,1.3-23.5,1.7l-0.6-3.1
			c2.9-1.5,5.9-5.2,8.9-11h-11.2v-3.7h14.3v-5.6h-12v-3.6h12v-5.3h3.8v5.3h12v3.6h-12v5.6h14.2v3.7h-16.9c-2.2,4.6-4.5,8.1-6.7,10.5
			c7.3-0.5,12.6-0.9,15.8-1.3c-1.4-2.1-2.9-4.2-4.6-6.4l3-1.9C135.8,179.2,138.6,183.2,140.6,186.7z"/>
		<path fill="#616264" d="M175.2,167v16.3h-6.3c3.5,0.6,6.8,1.4,10,2.5l-1.3,3.1c-3.7-1.4-7.5-2.5-11.4-3.3l1.2-2.3h-8.5l1.5,1.9
			c-2.6,1.5-6.3,2.7-11.2,3.7l-1.7-3c4.2-0.7,7.5-1.6,9.9-2.7h-6.1V167H175.2z M177.1,156.4v9.2h-27.9v-9.2H177.1z M157.4,159.4
			h-4.6v3.2h4.6V159.4z M171.6,171.6v-1.7h-16.6v1.7H171.6z M171.6,175.9v-1.7h-16.6v1.7H171.6z M171.6,178.5h-16.6v1.8h16.6V178.5z
			 M165.6,159.4h-4.8v3.2h4.8V159.4z M173.5,159.4H169v3.2h4.5V159.4z"/>
		<path fill="#616264" d="M217.4,169.8v3.7h-32.7v-3.7H217.4z"/>
		<path fill="#616264" d="M255,156.8v3.7h-15.2v4.4c4.4,2.1,8.8,4.5,13.3,7.2l-2.3,3.4c-4.4-2.8-8.1-5-11.1-6.5v19.7H236v-28.1
			h-13.3v-3.7H255z"/>
		<path fill="#616264" d="M279.7,170.9c0,3.5-1.7,6.2-4.9,8l-1.3-2.1c2.2-1.3,3.3-3,3.5-5c-0.2,0-0.4,0.1-0.7,0.1
			c-0.8,0-1.4-0.3-2-0.8s-0.8-1.2-0.8-1.9c0-0.8,0.3-1.5,0.8-2c0.5-0.5,1.2-0.8,2-0.8C278.6,166.5,279.7,168,279.7,170.9z"/>
		<path fill="#616264" d="M298.7,173.4l-1.3-4c3.7-4.1,6.4-8.9,8.2-14.4l3.5,1.7c-0.9,2.8-2.2,5.5-3.7,8v23.9h-3.7V170
			C300.8,171.2,299.8,172.3,298.7,173.4z M309.9,170.1l-3.2-2c2.7-4,4.5-8.2,5.6-12.7l3.5,0.8c-0.3,1.1-0.6,2.2-0.9,3.2h15v2.4
			c-0.5,2.2-1.2,4.3-2.1,6.4l-3.6-1c0.7-1.2,1.3-2.6,1.8-4.2h-12.5C312.5,165.5,311.3,167.9,309.9,170.1z M315.1,171
			c-1.3,4.9-2.9,9.3-4.8,13l-3.5-1.3c1.9-3.3,3.5-7.5,5-12.6L315.1,171z M313,188.3l-0.8-3.5c1.4,0.1,2.8,0.3,4.1,0.3
			c0.9,0,1.3-0.5,1.3-1.4v-18.3h3.6v19.2c0,2.5-1.2,3.7-3.7,3.7H313z M330.9,183.1l-3.3,1.5c-1.3-5.2-2.8-9.8-4.4-13.8l3.3-1.1
			C328.2,173.8,329.6,178.3,330.9,183.1z"/>
		<path fill="#616264" d="M340.4,168.9l-3.6-2.3c2.6-3.4,4.4-6.9,5.5-10.7l3.8,0.8c-0.4,1.3-0.8,2.5-1.2,3.6h5.8v-5h3.8v5h11.4v3.6
			h-11.4v5.7h13.9v3.6H359v9.1c0,1.4,0.5,2.1,1.5,2.1h3c0.3,0,0.6-0.2,1-0.6c0.3-0.4,0.5-2.2,0.6-5.4l3.6,1.2
			c-0.4,4.2-0.9,6.6-1.4,7.3c-0.7,0.7-1.6,1.1-2.8,1.2h-5c-2.8,0-4.2-1.7-4.2-5v-9.8h-5.6c-0.4,4-1.3,7-2.6,9
			c-1.7,2.4-4.5,4.6-8.5,6.4l-2.7-3.4c3.5-1.4,6-3.1,7.6-5c1.2-1.5,1.9-3.9,2.3-7h-9.4v-3.6h14.4V164h-7.4
			C342.4,165.8,341.4,167.4,340.4,168.9z"/>
		<path fill="#616264" d="M380.4,157.6v-2.2h3.4v2.2h5.4v3.2h-5.5c-0.1,0.8-0.1,1.5-0.3,2.2h6v3.3h-6.6c2.2,1.2,4.4,2.6,6.6,4.2
			l-1.5,2.3h14.1v15.8h-3.8v-1.4h-16.2v1.4h-3.8v-15.5c-0.9,0.7-1.9,1.3-3,1.8l-1.9-3c2.7-1.3,4.5-2.9,5.4-4.8
			c0.1-0.3,0.2-0.5,0.3-0.8h-5.4V163h6.3c0.1-0.7,0.2-1.5,0.3-2.2H375v-3.2H380.4z M386.8,172.9c-2-1.7-3.7-3-5-3.9
			c-0.1,0.1-0.1,0.2-0.2,0.4c-0.8,1.4-1.8,2.5-3,3.5H386.8z M398.3,178.5v-2.4h-16.2v2.4H398.3z M398.3,184v-2.3h-16.2v2.3H398.3z
			 M391.2,172.8l-1.9-3c2.6-0.9,4.3-2.1,5.3-3.5h-4.1V163h5.3c0.1-0.8,0.3-1.5,0.3-2.2h-5.3v-3.2h5.3v-2.2h3.4v2.2h5.8v3.2h-5.8
			c-0.1,0.8-0.1,1.5-0.3,2.2h7.1v3.3h-6.9c2.6,1.6,5,3.2,7.2,5l-2.4,2.6c-2.3-2.1-4.6-3.9-7-5.4C396,170.3,394,171.8,391.2,172.8z"
			/>
		<path fill="#616264" d="M428.2,175.5c-1.9,0.6-3.9,1.2-6,1.8v7.3c0,2.4-1.3,3.6-3.8,3.6h-4.1l-0.8-3.6c1.3,0.1,2.4,0.2,3.6,0.2
			c0.8,0,1.3-0.4,1.3-1.2v-5.4c-2.1,0.4-4.2,0.8-6.4,1.2l-0.5-3.8c2.4-0.4,4.8-0.8,7-1.3v-6.2h-7v-3.6h7v-3.3
			c-1.7,0.4-3.5,0.6-5.4,0.9l-0.8-3.6c5-0.5,9.4-1.6,13.3-3.2l1.3,3.5c-1.5,0.5-3,1-4.6,1.4v4.2h7.4c-0.2-2.8-0.3-5.8-0.3-9.1h3.8
			c0,3.5,0.1,6.5,0.4,9.1h10.8v3.6h-10.5c0.2,2.3,0.5,4.2,0.9,5.8c0.1,0.6,0.3,1.1,0.4,1.6c1.5-1.8,2.8-3.9,3.9-6.1l3.2,1.7
			c-1.6,3.2-3.5,6.1-5.7,8.5c0.4,0.9,0.8,1.6,1.2,2.2c1,1.6,1.8,2.4,2.3,2.4c0.4,0,0.8-1.8,1.2-5.4l3.3,1.8c-0.9,5.1-2.3,7.7-4,7.7
			c-1.6,0-3.2-1.1-4.9-3.2c-0.6-0.8-1.3-1.8-1.8-2.8c-2.4,2-5.2,3.6-8.2,4.8l-2.1-3.2c3.3-1.2,6.2-3,8.7-5.2
			c-0.4-1.2-0.8-2.3-1.1-3.6c-0.5-1.9-0.9-4.2-1.2-6.8h-7.7v5.3c2.1-0.5,4.1-1.1,6-1.8V175.5z M443.6,160.4l-2.7,2.7
			c-1.5-1.6-3.6-3.2-6.3-5l2.5-2.4C439.6,157.2,441.8,158.8,443.6,160.4z"/>
		<path fill="#616264" d="M72.3,243.3l-0.8-3.5c0.9,0.1,1.7,0.3,2.4,0.3c0.9,0,1.3-0.5,1.3-1.4v-7.4c-1.2,0.5-2.4,1-3.6,1.4
			l-0.9-3.6c1.5-0.4,3-0.9,4.5-1.5v-7.5h-3.8v-3.5h3.8v-6.2H79v6.2h3.1v3.5H79v5.9c1.1-0.6,2.2-1.3,3.3-1.9v3.7
			c-1.1,0.6-2.2,1.2-3.3,1.8v10c0,2.4-1.3,3.7-3.7,3.7H72.3z M89.5,214.5l-2.5,1.3h4.1v-5.5h3.6v5.5h4.3l-2.3-1.2
			c1.2-1.3,2.1-2.6,2.8-3.9l2.8,1.3c-0.7,1.3-1.6,2.5-2.7,3.7h3.5v7.6h-3.3v5H86.1v-5h-3.4v-7.6h4c-0.9-1.4-1.8-2.6-2.7-3.7l2.8-1.4
			C87.8,211.8,88.7,213.1,89.5,214.5z M102.7,243.6h-3.6v-1.1H87v1h-3.6v-13.8h19.3V243.6z M99.8,220.7v-1.8H86.1v1.8H99.8z
			 M91.4,234.9v-2.2H87v2.2H91.4z M91.4,239.6v-2.1H87v2.1H91.4z M96.7,223.4h-7.4v2.3h7.4V223.4z M94.7,234.9h4.4v-2.2h-4.4V234.9z
			 M99.1,239.6v-2.1h-4.4v2.1H99.1z"/>
		<path fill="#616264" d="M122.6,218.8v-2.2h3.6v2.2h7v2.6c1.6-1.2,3-2.5,4.2-3.8l2.7,2.1c-1.5,1.6-3.1,3-4.8,4.3h5.6v3.3h-10.6
			c-0.5,0.3-0.9,0.5-1.3,0.7c-0.8,0.4-1.7,0.9-2.7,1.3h10.7v14.4h-3.6v-1.3h-14.3v1.3h-3.6v-10.3c-1.7,0.5-3.5,1.1-5.3,1.7l-1.5-3.3
			c5-1,9.8-2.6,14.3-4.6H110v-3.3h12.6v-2h-9.3v-3.2H122.6z M117.1,212.1v-1.7h3.7v1.7h3.9v3.3h-3.9v2.2h-3.7v-2.2h-7.3v-3.3H117.1z
			 M133.6,232.3h-14.3v2.1h14.3V232.3z M119.2,239.3h14.3v-2.1h-14.3V239.3z M133.8,210.4v1.7h7.3v3.3h-7.3v2.2h-3.7v-2.2h-3.9v-3.3
			h3.9v-1.7H133.8z M132.4,222h-6.2v2h3.2C130.5,223.3,131.4,222.6,132.4,222z"/>
		<path fill="#616264" d="M156,210.3c-0.4,2.3-0.8,4.4-1.2,6.4h5.9v2.1c-0.2,5.6-1.3,10.5-3.2,14.6c1.9,1.5,3.5,2.8,4.7,4.1l-2.6,3
			c-1.1-1.2-2.4-2.4-4-3.7c-1.7,2.7-3.9,5.1-6.4,7.1l-2.6-3.2c2.4-1.8,4.5-3.9,6.1-6.3c-1.6-1.3-3.4-2.7-5.3-4.1c1-3,2-6.3,2.8-9.8
			h-3.3v-3.6h4.1c0.4-2.2,0.8-4.5,1.2-6.8L156,210.3z M157.1,220.4h-3c-0.8,3.5-1.6,6.3-2.5,8.7c1,0.7,2,1.4,2.9,2.1
			C156,228,156.8,224.4,157.1,220.4z M169.2,225v-4c1.7-1.6,3.4-3.5,5.1-5.6h-11.7v-3.7h16.1v3.7c-1.7,2.4-3.5,4.6-5.6,6.8v2.8h6.9
			v3.7H173V239c0,2.8-1.1,4.2-3.2,4.2h-5.4l-1-3.6c1.4,0,3.1,0.1,4.8,0.1c0.6,0,0.9-0.6,0.9-1.8v-9.2h-7.7V225H169.2z"/>
		<path fill="#616264" d="M195.1,236H189v2.3h-3.5V213h9.6V236z M191.7,232.5v-16.1H189v16.1H191.7z M199.9,232.1
			c-0.5,3.8-1.1,7.1-1.8,9.9l-3.1-1.1c0.8-2.5,1.5-5.7,2.1-9.5L199.9,232.1z M216.9,227.3c0,8.1-0.5,12.8-1.4,14.1
			c-0.9,1.4-2.7,2.1-5.4,2.1c-1,0-2,0-3-0.1l-0.8-3.3c1.2,0.1,2.2,0.2,3.2,0.2c2,0,3.2-0.6,3.5-1.9c0.1-0.4,0.2-0.9,0.3-1.5l-2.4,1
			c-0.5-2.1-1-4.1-1.7-6l2.5-0.7c0.7,2,1.3,3.7,1.7,5.3c0.1-1.5,0.2-3.4,0.2-5.8h-16.1v-19.1h18.9v3.1h-6.9v2.3h6.2v3h-6.2v2.3h6.3
			v3h-6.3v2.3H216.9z M200.9,214.4v2.3h5.1v-2.3H200.9z M200.9,222h5.1v-2.3h-5.1V222z M200.9,227.3h5.1v-2.3h-5.1V227.3z
			 M204.2,240.4l-3,0.4c-0.1-3.7-0.2-6.6-0.4-8.6l2.7-0.4C203.9,233.9,204.1,236.8,204.2,240.4z M208.8,238.6l-2.8,0.6
			c-0.3-2.7-0.6-5.1-1-7.2l2.7-0.6C208.1,233.7,208.5,236,208.8,238.6z"/>
		<path fill="#616264" d="M245.2,215.6c1.4,1.3,2.2,3,2.2,5.2c0,1.8-0.5,3.3-1.3,4.4c-0.3,0.4-1.4,1.3-3.1,2.8
			c-0.6,0.5-1.1,1.1-1.4,1.8c-0.4,0.7-0.5,1.5-0.5,2.4v0.5h-4.1v-0.5c0-1.4,0.2-2.6,0.7-3.5c0.5-1,1.3-2,2.5-3
			c1.2-1,1.9-1.7,2.2-2.1c0.6-0.8,1-1.7,1-2.6c0-1.2-0.4-2.1-1-2.8c-0.7-0.7-1.7-1-2.9-1c-1.5,0-2.7,0.5-3.4,1.4
			c-0.6,0.8-0.9,2-0.9,3.6h-4.1c0-2.7,0.8-4.8,2.3-6.3c1.5-1.5,3.6-2.3,6.3-2.3C241.8,213.6,243.7,214.3,245.2,215.6z M240.9,235.2
			c0.5,0.5,0.8,1.2,0.8,1.9c0,0.8-0.3,1.5-0.8,2c-0.6,0.5-1.2,0.8-2,0.8c-0.8,0-1.4-0.3-1.9-0.8c-0.6-0.5-0.8-1.2-0.8-1.9
			c0-0.8,0.3-1.4,0.8-1.9c0.5-0.5,1.2-0.8,1.9-0.8C239.6,234.4,240.3,234.7,240.9,235.2z"/>
	</g>
	<path fill="#B3B5B8" d="M71.6,89.2c128.7-1.4,257.5,0.4,386,5.5c-0.1,0,0.1-2.5,0-2.5c-128.5-5-257.3-6.9-386-5.5
		C71.5,86.7,71.6,89.2,71.6,89.2L71.6,89.2z"/>
	<path fill="#B3B5B8" d="M71.6,199.7c128.7-1.4,257.5,0.4,386,5.5c-0.1,0,0.1-2.5,0-2.5c-128.5-5-257.3-6.9-386-5.5
		C71.5,197.2,71.6,199.7,71.6,199.7L71.6,199.7z"/>
	<path fill="#B3B5B8" d="M71.3,141.5c129.4,3.9,259.2,5,388.8,3.1c0.1,0,0-2.5,0-2.5C330.5,144,200.7,143,71.3,139
		C71.4,139,71.2,141.5,71.3,141.5L71.3,141.5z"/>
	<path fill="#B3B5B8" d="M71.3,252.6c59.5,3.9,119.2,5,178.8,3.1c0,0,0-2.5,0-2.5c-59.6,1.9-119.3,0.9-178.8-3.1
		C71.3,250.1,71.2,252.6,71.3,252.6L71.3,252.6z"/>
	<path fill="#FFFFFF" d="M238.2,278.4c0,0-2.3,36.1,13.8,47c0,0-40.7-7.6-49.2-47H238.2z"/>
</g>
<g>
</g>
<g>
</g>
<g>
</g>
<g>
</g>
<g>
</g>
<g>
</g>
<g>
</g>
<g>
</g>
<g>
</g>
<g>
</g>
<g>
</g>
<g>
</g>
<g>
</g>
<g>
</g>
<g>
</g>
</svg>
