<?xml version="1.0" encoding="utf-8"?>
<!-- Generator: Adobe Illustrator 18.0.0, SVG Export Plug-In . SVG Version: 6.00 Build 0)  -->
<!DOCTYPE svg PUBLIC "-//W3C//DTD SVG 1.1//EN" "http://www.w3.org/Graphics/SVG/1.1/DTD/svg11.dtd">
<svg version="1.1" id="Layer_1" xmlns="http://www.w3.org/2000/svg" xmlns:xlink="http://www.w3.org/1999/xlink" x="0px" y="0px"
	 viewBox="0 0 642.4 562.3" enable-background="new 0 0 642.4 562.3" xml:space="preserve">
<g>
	<path fill="#FFD25C" d="M433,33.4L27.9,383.8C-5.9,413-0.5,465,38.5,487.4c113.1,64.9,333.3,149.8,492.5-48
		c99.8-123.9,118.9-239.8,109.1-330.7C629,7.1,512-34.9,433,33.4z"/>
	<g>
		<polygon fill="#FFC235" points="110.2,447.9 110.8,448.8 112.5,447.1 		"/>
		<path fill="#FFC235" d="M130.7,444.2c1.5-1.6,4.6-3.3,3.9-5.4l-2.5,2.8c-0.5-0.7-1.2-0.8-2.1-0.7c-0.8,0.1-1.8,0.5-2.6,1l2.1-0.7
			c-0.5,0.3,0.2,1.2-0.3,1.6c-3.5,0.1-3.7,2.4-7.2,1.5l0.1-0.2c-0.7,0.5-1.4,1.1-2.1,1.6c-0.8-0.1-0.7-0.9-0.5-1.2
			c-1.9,1.3-3.4,2.5-6.3,3c1.4,1.2,2.9,0.3,4.4-0.6c1.5-0.9,2.9-1.7,4.4-0.7l-0.1,0.2C124.3,444.7,128,445.7,130.7,444.2z"/>
		<path fill="#FFC235" d="M119.4,444.5l0.2-0.1C119.5,444.4,119.5,444.4,119.4,444.5z"/>
		<path fill="#FFC235" d="M226.7,397.2l-0.2-0.4C226.5,397,226.4,397.2,226.7,397.2z"/>
		<path fill="#FFC235" d="M193.4,411.7c0.1,0,0.1,0,0.2,0C193.4,411,193.4,411.2,193.4,411.7z"/>
		<path fill="#FFC235" d="M375.1,275.7l1,0C375.6,275.4,375.3,275.4,375.1,275.7z"/>
		<path fill="#FFC235" d="M410.2,244L410.2,244C410.2,243.9,410.2,243.9,410.2,244z"/>
		<path fill="#FFC235" d="M388,252.2l-0.5-0.4C387.6,252.2,387.8,252.3,388,252.2z"/>
		<path fill="#FFC235" d="M398.2,241c0.4-0.2,0.8-0.4,1.1-0.7C398.9,240.3,398.4,240.6,398.2,241z"/>
		<path fill="#FFC235" d="M410,244.5c0-0.2,0.1-0.3,0.2-0.5C410.1,244.1,410,244.3,410,244.5z"/>
		<path fill="#FFC235" d="M370.3,266.9l-1.5-0.7C369.2,266.5,369.8,266.7,370.3,266.9z"/>
		<path fill="#FFC235" d="M400,237.6c0.4,0.1,0.7,0,1-0.2C400.7,237.3,400.3,237.3,400,237.6z"/>
		<path fill="#FFC235" d="M133.7,443.1c-0.4,0.2-0.9,0.3-1.4,0.7C132.9,443.7,133.3,443.5,133.7,443.1z"/>
		<path fill="#FFC235" d="M304.6,321.9c0-0.2-0.1-0.4-0.2-0.6C304.2,321.6,304.3,321.8,304.6,321.9z"/>
		<path fill="#FFC235" d="M343,289.6l0.1-0.1c-0.1,0-0.2,0-0.3,0L343,289.6z"/>
		<path fill="#FFC235" d="M332.1,299.4c0-0.1,0-0.2-0.1-0.4C332,299.2,332,299.3,332.1,299.4z"/>
		<path fill="#FFC235" d="M350.2,281.1c0-0.2,0.1-0.5,0-0.7L350.2,281.1z"/>
		<path fill="#FFC235" d="M359.2,275.3c-0.7-0.1-0.7-0.8-0.7-1.5c-2.5,1.2-1.8,3.2-4.8,4l1.5-0.3c-0.5,2-2.8,4.3-5.1,4.3l0-0.7
			c-0.4,2-4,2.1-3.8,3.3c1,0,0.7,0.8,2,0.5l-2.3,3.8l-1.7-1.3l-1.2,2c1,0.2-2.7,1.5-1.4,3c-1.5,0.3-0.7-1.5-0.9-2.4
			c-0.5,1.3-1.3,0.7-1.3,2.4l-2.2-0.5l-1.6,3.1c0-0.2-0.2-0.2-0.2-0.4c-0.1,2.1-3.5,1.8-3.2,5.1c0-0.1-0.1-0.2-0.1-0.3
			c0.2,1.7-2.5,2.7-3.4,3.1c-1.1,1.4,0.7,1.8,1.1,2.4c-4.1,2.9-2.8,1.9-4.5,6.2c-3.5-0.1-0.3-4.6-3.8-3.8c0.4,1.1-0.6,3.2-2.2,5.1
			c-2.3,0.9-5.6,2.9-8.4,3.1l1.2,1l-1.9,2.7l-0.1-2.8c0,0.7-0.6,2.4-0.9,3.7c-1.7,3.1-3.7-1.2-4.1,2.1c-0.2-0.1-0.4-0.1-0.5-0.2
			c0.1,1.4-1.8,2.5-3.5,4.4l-0.6-2l1.5-0.7c-1.9-0.8-1.9,1.9-3.2,2.9c-0.8,1.5,0.9,2.2,0.6,3.2c-0.5,0.3-0.8,1.3-1.6,1.2
			c-1.5,0.5-1.6-1.6-1.8-2.5c0.4,2.3-0.1,2.4-1.8,4.7c-0.7-0.6-0.9-1-0.7-1.4c-0.3,0.6-0.4,1.2-0.1,2l-1.5-0.2
			c-3.5,0.8-0.1,4.7-3.4,6.6c0.1-1.4-2.4,2.3-4.1,2.1c0.8-1.1-2.4-1.7-2.5-3.1c-2.8,1.4,0.6,2.5-1.1,4.4l-0.8-2.4
			c-1.2,2.3,0.4,1.3-1,3.4c0.1-0.9-1.3,0.2-0.7-1.3c-2.6,1.8-1.8,1.4-4.2,3l1.3,1.9c-0.6,0.8-1.5,0.2-2,0.1c0.3-0.3,0.8-0.6,0.6-0.8
			c-2.2-0.8-0.7,2-2.9,1.3c0.7,0.4,1.7,0.9,0.9,1.7c-0.6-1.3-2.3,0.1-2.7-0.3c1.2,0.3-1.6,1.9-0.8,3.1c-1.7,0-0.4-1.1-0.8-1.7
			c0.3,2.1-3.5,3.1-3.6,4.5c-0.1-0.1-0.2-0.1-0.3-0.2c-0.4,1.7-2.1,3.3-3.3,6.3l-0.1-1.6c-2.6,1.3,0.5,3.2-1.4,4.6
			c-0.8-1.8-3,2.5-3.5,0.2c-0.4,1.7-1.3,3-1,4.8c-1.7,0,0.3-3.5-1.5-2.8l-0.9,2l-0.9-0.6c0.4,0.6-0.9,1.8-0.5,2.2
			c-1-0.8-2.2-0.9-2.8-1.7c-0.8,1.1-2.9,1.2-3.1,2.7l-0.5-0.4c0.5,2.5-2.8,2.7-1.8,4.9l-1.4-0.5c-1.4,1.3,0.4,3,0.1,4
			c-0.6,0.5-1.1,1.3-1.9,1.6c1.1-2.7-2.2-0.7-3.1-1c-0.8,0.6-3,2.4-3,3.8c0.2-1.6-1-2,0.7-3.3c-2.4-1.1-2.3,2.3-4.4,3.5l-0.6-0.9
			c-2.3,2.5-1.3,4.1-1.3,6.4c-1.1-0.8-1.1-1.3-1.1-2.9c-2.3,0.7-4.7,3.5-6.9,4.8c-1.2-0.3-1.1-1-0.7-1.8c-1.6,2.3-5,3.1-5,6
			c0-1.1-1.2,0.1-2.3,0.3c0.3,0.4,0.5,1,0.4,1c-0.8,1.7-3.3,4.3-5.4,4.7l0.2-0.9c-3.9,2.1-3.3,6.4-8.3,7.5c-1,0-0.3-2.1-1.8-1.1
			c-0.3,1.2,1,2.5-1.2,3.3l-0.7-1.4l-0.5,2.1c1.4,0.7,3.3-1,2.6,1.1c-2.5-0.2-0.7,2.1-3.8,1.9c0.4-0.4,0.4-1.8,0.4-2.5
			c-5.4,1-5.4,4.9-11,5.7c-1.6,2.3-4.4,4.1-5.5,5.9c-0.6-1.4-1.3-2.6-0.8-4.2c-2,0.8-1.3,4.3-3.8,3c0.1,2.3-4.8,3.9-4,6.7
			c-0.4-0.5-2.2,1-0.8-1.5c-2.3,2.1-4.8-0.6-6,0c-0.7,0.4,1.6,1.3,0,2.1c-0.3,0-0.4-0.3-0.7-0.3l-0.3,0.9c-0.9-0.3,0.1-1.6-0.2-2.3
			c-1.3,0.3-2,1-2.8,1.9c-0.8,0.9-1.6,1.9-2.9,2.5l0.3-0.7l-2.8,1.1l0.1-0.2l-1.8,1.9l-0.2-0.7c-0.4,0.4-0.4,0.9-1.1,1.2l-0.1-1
			c-0.2,1.6-2.6,3.3-3.9,3.8l-0.4-0.3l-2.4,2.9c-2-0.3,1.3-2.9-1.7-1l0.2-2.1c-2.1,1.5-2.8,0.6-4.2,1.8c1.1,0.7,2.1,0.2,1.6,1.3
			c-2.6-1.5-2.8,1.5-4.3,2.9c0.9-0.3,1.5-0.5,1.8-1.8c1-0.3,0.7,0.8,1.3,0.7l1-1.5l0.8,1.1l2-1.7c0.4,1.5,2.2-0.6,1.9,1.3
			c1.4-1.2,2.7-0.5,3.6-2.5c1.4,0.5-1.3,1.7-0.1,1.4c1.5-0.9,3.1-1.7,4.7-2.4c1.6-0.7,3.2-1.5,4.8-2.2c1.6-0.7,3.3-1.3,5-1.9
			c1.7-0.6,3.3-1.3,5-1.9l-0.3,0.9c0.3-0.9,0.9-1.8,1.1-2.5c0.8,0.3,2.5,0.3,4-0.1c1.5-0.4,2.8-1.3,3-2.7c0.3,0,0.1,0.5,0,0.7
			c1-0.7,2.6-1.1,4.4-1.6c1.8-0.5,3.7-1.1,5.1-2c0-2.8,5.3-1.1,4.6-4.6l-0.3,0.9c-1.5-0.2,0.2-2.8,0.2-3.7c2,1.4,0.9,1.4,3,2.5
			c-0.5,0-1,0-1.6,0l1.2,1.4c1.3-6,8-2.2,8.5-6.4c0,0.2,0.2,0.5,0.1,0.7c2.1-0.1,1.9-2.6,2.6-3.8c0.6,0.7,0.2,1.6,0,2.6
			c3-1.1,6.1-5.8,9.8-6.5c0.3-1.6-1.3-1.1-0.8-2.5c1.1-0.3,2.3,0.1,1.5,1.3c1.9,0.1,3.7-1.5,5.7-3.3c1.9-1.8,4-3.7,6.5-4.1
			c1.1-2.4-0.4-2,2-4.8c-0.2,1.2,2.5,1.8,0.8,3.2l0.4,0.9c3.1-1.9,7.2-4.5,7.2-7.7c1.3,1.5,0.8-0.1,2.5-0.1c0.3-0.5-0.2-0.2-0.5-0.2
			c0-2.1,1.7-1.1,2.3-1.9l-0.1,0.5l1.3-2.5c0.5-0.1,1.3-0.1,1.7,0.3l-0.9-1.1c1.1-0.8,1.7,1,2.8-0.3l-0.9-0.6
			c1.3-0.2,1.8-2.3,2.9-1.3c0.2,0.2,0,0.2-0.3,0.5c2.7,0.6,3.1-3.2,5.4-3.7l-1.9-1.4c1.2-1.8,1.3-0.4,1.7,0.2
			c1.1-0.8,1.8-0.5,3.4-1.4c0.4-1-0.2-0.9-0.3-1.6l1.8-0.7l-0.2,1.7c0.2-4.2,5.9-4.1,5.5-7.5c1.3-0.2,0.1,1.6,0.9,1.5
			c3.6-1,4.6-6.2,7.9-6.7c4.6-1.6,7.8-6,12.5-8.4l-0.5-0.4l3.1-1.9c-0.1-1.6,2.2-2.7,2.4-4.8c0.2,0.4,0.9,0.8,0.9,1.3
			c1.1-1.1,1.9-2.6,3.2-2.6l-0.1,0.7c2.9-1.9,6.6-4.8,7.2-6.8c0.8-0.8,1.5,0,2.2,0.3c1.6-1.2,2.2-2.5,2.8-4.2c0.5-0.1,1-0.2,1.7-0.1
			l-0.4-1.6c0.8-0.4,1,0.8,1.7,0.6c1.2-3.3,5-4.4,6.6-5.8l-0.7-0.3c0.3-1,2.3-1.3,2-0.1c3.9-2.1,3.3-5.7,8-9.1
			c2.4,1.5,3.4-3.9,6.1-2.3c1.3-2.1,3.3-2.3,3.5-4.6c0.2,0.2,0.5,0.1,0.2,0.4c1.5,0.2,3.4-2.5,4.7-4.6l0.7,0.6
			c-0.7-2,2.9-4.3,2.3-6.3c0.5,0.1,0.2,0.9,0.2,1.4c2.2,0.5,1.1-2.1,2.6-2.9c0.2,0.4,1,0.5,1,1c5.6-2,9.1-9.8,15.4-13.4
			c1.5-1.3-2-1,0.1-2.6c1.2,0.2,0.4,2.3,2,1.5c0-1.7,0.5-1.8,1.8-2.7c0.2,0.7,0.7,0.8,0.2,1.8c1.2,0,1.8-3.7,4.3-3.7
			c-0.5-0.4-0.5-0.8-0.5-1.3c0.8-3,5.8-2.9,5.3-3.7c0,0,0.5-0.8-0.2-0.4c0.8-0.6,2-1.4,2.5-0.5c0-0.7-0.2-1.6,0.3-2.2l0.5,1.1
			c0.2-0.5,0-1.3,0.3-1.7l-1,0c1.5-0.1,1.5-3.2,3-1.6l-0.2,0.3l2.2-0.7c0-1.2,0-2.4,1.3-3.1c2,1.2,3-2.1,4.5-3.1l0.5,0.6
			c0.3-1.7,3.3-3.8,2.5-3.7c1-0.9,2.7-1.8,2.7-0.9c0.5-1.1,2.3-2.6,1.8-4l3-0.2c-1-2.9,4-2.4,2-4.5c1.2-0.5,1.5,0.1,2.5-0.1
			c0.2-2.2,1.7-3.3,3.2-4.3l0.3,0.2c1.5-1.1,2-3.5,3.7-5.4l2,1.2c0.7-1.1-0.3-2.6,1-3.1c0.5,0,0.3,0.3,0.2,0.6
			c0.6-1.2,2.2-1.9,3.3-2.2c0.2-2.4,1.7-3,1.7-5.4c2.5,0.3-1,2.1,1.3,2.5c2.7-1.2,3.9-3.8,5.4-6.6c0.5,0.1,0.5,0.6,0.8,1
			c0,0,0.4-7.9-1.9-8.6c-0.5-1.5-0.6-2.7-3.3-1.8c0,1.2-0.9,3.6-2.4,2.7l1,1.2c-1.9,2.9-2.5-2-5.4,0.9l1-0.2c-0.5,0.6-0.2,1.7-1.2,2
			c-0.5-0.1-0.3-0.7-0.3-1.1l-0.9,3.8c-0.8-0.5-1-0.9-1-1.9c-2.2,2.2,2.5,1.5-0.7,3.7c-1,0-0.5-0.8-0.5-1.5
			c-2.2,0.3-2.2,1.9-2.9,3.8c-1-0.9,0-1.7-1.8-1.2c0.7,0.3,1.8,1,1,1.9c-0.6-1.4-1.2,0.1-2.2,0.6c0.5,0.2,0.9,0.7,0.8,1.2
			c-0.2,0.5-1,0.5-1.5,1.1l2,0c-0.5,2.2-2.7,1.6-4.2,2.2c-0.1-0.3,0-0.6,0.1-0.8c-1.5,0.7-3.5,1-4.1,3.1l0-0.2
			c-1.7,3.5,2.5,0.8,0.3,4.7c-1.2,0.8-2.8-3.6-4-0.3c2-0.2,0.5,3.5-0.5,5.1l-0.5-3.2c-0.6,0.5-1,1.9-1.5,2l0.5,0.4
			c1.7,1.5-2,1.4-2,3.3c-1-3.3-0.5-3-2.5-5.4c0.2,2.1,0.3,4.2-1.7,5.6l-0.3-3c-2.7,1.8-3,6.8-3.5,10c-0.7-1.7-2-1.5-2.2-3.3l-2,2.3
			l-0.7-2c0.5,2.3-1.5,2.2,0.5,3.9c0-0.5-0.2-0.7,0.3-1c0.5,0.6,1.2,2.1,0,3.1c-1.2,0.3-0.2-1.1-1-1.4c0,1.4-1.2,0.3-1.5,1.5
			l1.5,0.2c0.5,1.6-1.3,1.2-1.5,2.5c0.5-1.3-0.4-1.6-1.4-2l0.2,0.1c-0.5,0.6-0.5,2-1.5,1.7l-1-1.9l0.2,1.8c-0.5,0.1-1.2-0.2-1-1
			c-3.5,1.4,3.2,3.1-1.6,4.8c-0.5-0.6-0.5-1.3,0.8-1.8c-0.7-1-1.5-1.3-2.7-0.8c-0.1-0.1-0.1-0.1-0.2-0.2
			C361.8,271.2,359.4,273.2,359.2,275.3z"/>
		<path fill="#FFC235" d="M363.6,269.7c1-0.8,1.8-1.6,1.9-2.1C365.1,267.4,362.7,268.8,363.6,269.7z"/>
		<path fill="#FFC235" d="M218.8,389.8c0.1-0.1,0.2-0.3,0.3-0.4C219,389.5,218.9,389.6,218.8,389.8z"/>
		<path fill="#FFC235" d="M210.8,396c0.2,0.1,0.5,0.1,0.7,0.1C211.3,395.7,211,395.5,210.8,396z"/>
		<path fill="#FFC235" d="M293.5,331.6C293.5,331.6,293.5,331.6,293.5,331.6C293.5,331.6,293.5,331.6,293.5,331.6z"/>
		<path fill="#FFC235" d="M247.9,366.9c-0.3,1-0.2,1.7,0.1,2.1C248.3,368.5,248.4,367.9,247.9,366.9z"/>
		<path fill="#FFC235" d="M263.8,355.6c0-0.2,0.1-0.3,0.1-0.5C263.7,355.4,263.7,355.5,263.8,355.6z"/>
		<path fill="#FFC235" d="M295.2,328.9c-0.2,1-1.2,1.8-1.7,2.7C294,330.8,295.7,330.3,295.2,328.9z"/>
		<polygon fill="#FFC235" points="201.7,404.5 201.9,403.1 201.5,404.3 		"/>
		<path fill="#FFC235" d="M209.3,398.8c0.5,0,1.5-1.5,0.8-1.7C209.9,397.8,209.6,398.3,209.3,398.8z"/>
		<polygon fill="#FFC235" points="239.7,378.6 239.3,377.5 239.2,378.7 		"/>
	</g>
	<g>
		<polygon fill="#FFC235" points="205.6,508 206.2,508.8 206.9,507.2 		"/>
		<path fill="#FFC235" d="M218.6,504.2c0.7-1.5,2.6-2.9,1.8-4.9l-1.3,2.5c-0.9-1.4-2.2-0.8-3.2,0.2l1.3-0.6
			c-0.3,0.3,0.3,1.2,0.1,1.5c-2.4,0-2,2.3-4.6,1.4l0-0.2l-1.1,1.5c-0.6,0-0.7-0.8-0.6-1.1c-1,1.3-1.7,2.5-3.5,3.1
			c2.5,2.2,3.1-3.6,5.6-1.4l0,0.2C214.4,504.7,217.1,505.6,218.6,504.2z"/>
		<path fill="#FFC235" d="M211,504.5l0.1-0.1C211,504.3,211,504.4,211,504.5z"/>
		<path fill="#FFC235" d="M285.2,480.9l-0.1-0.5C285,480.6,285,480.8,285.2,480.9z"/>
		<path fill="#FFC235" d="M260.7,483.8c0,0,0.1,0,0.1,0C260.8,483.2,260.8,483.4,260.7,483.8z"/>
		<path fill="#FFC235" d="M400.5,421.3l0.8,0.2C400.8,421.1,400.6,421.1,400.5,421.3z"/>
		<path fill="#FFC235" d="M423.8,399.1L423.8,399.1C423.8,399,423.8,399.1,423.8,399.1z"/>
		<path fill="#FFC235" d="M407,403.6l-0.5-0.4C406.7,403.5,406.9,403.6,407,403.6z"/>
		<path fill="#FFC235" d="M412.9,395.6c0.3-0.1,0.6-0.2,0.8-0.4C413.3,395.1,413,395.3,412.9,395.6z"/>
		<path fill="#FFC235" d="M423.8,399.5c0-0.1,0-0.3,0-0.4C423.8,399.2,423.8,399.3,423.8,399.5z"/>
		<path fill="#FFC235" d="M395.2,413l-1.4-0.9C394.2,412.5,394.7,412.8,395.2,413z"/>
		<path fill="#FFC235" d="M413.6,393c0.3,0.1,0.6,0.1,0.8,0C414.1,392.8,413.8,392.8,413.6,393z"/>
		<path fill="#FFC235" d="M220.5,503.4c-0.3,0.1-0.6,0.3-0.9,0.6C220,503.9,220.3,503.7,220.5,503.4z"/>
		<path fill="#FFC235" d="M347.5,442.7c0-0.2,0-0.4-0.1-0.6C347.2,442.3,347.3,442.5,347.5,442.7z"/>
		<path fill="#FFC235" d="M376.1,426.3l0.1-0.1c-0.1,0-0.1-0.1-0.3-0.1L376.1,426.3z"/>
		<path fill="#FFC235" d="M368.2,431.8c0-0.1,0-0.2-0.1-0.3C368.1,431.6,368.2,431.7,368.2,431.8z"/>
		<path fill="#FFC235" d="M381,420.8c0-0.2,0-0.4-0.1-0.6L381,420.8z"/>
		<path fill="#FFC235" d="M387.5,417.9c-0.6-0.2-0.7-0.8-0.8-1.4c-1.8,0.5-1,2.3-3.3,2.4l1.2,0.1c-0.2,1.6-1.8,3.1-3.5,2.5l-0.1-0.6
			c-0.1,1.6-2.9,0.8-2.7,1.9c0.8,0.3,0.6,0.9,1.6,1l-1.5,2.6l-1.4-1.5l-0.8,1.4c0.8,0.5-2,0.6-0.9,2.2c-1.2-0.1-0.7-1.5-0.9-2.3
			c-0.3,1-0.9,0.3-0.9,1.7l-1.8-1c-0.3,0.8-0.7,1.5-1,2.2c0-0.2-0.2-0.2-0.2-0.4c0.1,1.8-2.6,0.6-2.2,3.5c0-0.1-0.1-0.2-0.1-0.3
			c0.2,1.6-1.8,1.6-2.5,1.6c-0.8,0.9,0.6,1.7,0.9,2.4c-3.1,1.3-2.1,0.8-3.4,4.1c-2.6-1.1-0.3-4.1-2.9-4.4c0.4,1.1-0.4,2.6-1.7,3.7
			c-1.7,0.1-4.2,0.7-6.3,0l0.9,1.2l-1.5,1.7l0-2.5c0,0.6-0.5,1.9-0.8,2.9c-1.3,2.1-2.7-2.3-3.1,0.5c-0.1-0.1-0.3-0.2-0.4-0.3
			c0.1,1.3-1.4,1.5-2.7,2.6l-0.4-1.9l1.2-0.1c-1.4-1.4-1.5,1-2.5,1.4c-0.7,1.1,0.5,2.2,0.3,3c-0.4,0.1-0.7,0.9-1.2,0.5
			c-1.2-0.1-1.1-2-1.2-2.8c0.1,2.1-0.2,2-1.6,3.5c-0.5-0.8-0.6-1.2-0.4-1.5c-0.2,0.4-0.4,0.9-0.2,1.7l-1.1-0.7
			c-2.6-0.5-0.4,4.1-3,4.6c0.2-1.2-1.9,1.1-3.2,0.3c0.7-0.6-1.6-2.4-1.6-3.6c-2.2,0.2,0.2,2.4-1.1,3.4l-0.4-2.4
			c-1,1.6,0.2,1.3-1,2.6c0.1-0.8-0.9-0.3-0.4-1.4c-2,0.6-1.5,0.6-3.3,1l0.8,2.2c-0.5,0.5-1.1-0.4-1.4-0.7c0.2-0.1,0.6-0.2,0.5-0.5
			c-1.5-1.5-0.6,1.5-2.2,0.1c0.5,0.6,1.1,1.4,0.5,1.8c-0.3-1.4-1.6-0.7-1.9-1.3c0.8,0.7-1.4,1-0.8,2.5c-1.3-0.6-0.2-1.1-0.5-1.8
			c0,1.9-2.8,1.4-3,2.6c-0.1-0.1-0.1-0.2-0.2-0.3c-0.4,1.3-1.8,2.2-2.9,4.3l0.1-1.5c-2,0.2,0,3-1.5,3.5c-0.4-1.8-2.4,1.1-2.5-1.1
			c-0.5,1.3-1.2,2.1-1.2,3.9c-1.3-0.6,0.6-3-0.8-3l-0.9,1.4l-0.6-0.8c0.2,0.7-0.8,1.2-0.5,1.7c-0.7-1-1.5-1.6-1.8-2.5
			c-0.7,0.6-2.2,0-2.5,1.2l-0.3-0.5c0.1,2.4-2.2,1.3-1.7,3.7l-1-1c-1.1,0.7,0,2.8-0.3,3.5c-0.5,0.3-0.9,0.7-1.5,0.7
			c1-2-1.5-1.4-2.1-2c-0.6,0.2-2.4,1.1-2.5,2.3c0.3-1.4-0.5-2.1,0.8-2.7c-1.6-1.8-1.8,1.3-3.5,1.6l-0.4-1c-1.9,1.5-1.2,3.2-1.5,5.2
			c-0.8-1.1-0.7-1.5-0.6-3c-1.7-0.2-3.7,1.5-5.3,2c-0.9-0.7-0.7-1.3-0.4-1.9c-1.3,1.6-3.8,1.2-4,3.8c0.1-1-0.9-0.3-1.7-0.5
			c0.2,0.4,0.3,1.1,0.2,1c-0.7,1.3-2.6,2.9-4.1,2.6l0.2-0.8c-2.9,0.7-2.6,4.9-6.2,4.4c-0.7-0.3-0.2-2-1.3-1.5
			c-0.2,1,0.7,2.6-0.9,2.7l-0.5-1.5l-0.4,1.8c1,1,2.4,0,1.8,1.7c-1.8-0.8-0.6,1.7-2.7,0.8c0.3-0.3,0.3-1.5,0.3-2.2
			c-3.9-0.5-3.9,3.1-7.9,2.5c-1.1,1.7-3.1,2.7-3.8,4.2c-0.5-1.4-1-2.7-0.7-4.1c-1.5,0.3-0.8,3.8-2.6,2.1c0.1,2.2-3.3,2.7-2.5,5.5
			c-0.3-0.5-1.5,0.5-0.7-1.5c-1.5,1.6-3.5-1.4-4.3-1.1c-0.5,0.3,1.3,1.5,0.2,2c-0.2-0.1-0.3-0.3-0.5-0.4l-0.2,0.8
			c-0.7-0.5-0.1-1.5-0.3-2.2c-1.8,0-1.9,2.5-3.7,3.4l0.1-0.6l-1.9,0.6l0-0.2l-1.1,1.5l-0.2-0.7c-0.3,0.3-0.2,0.8-0.6,1.1l-0.2-0.9
			c0.1,1.5-1.4,2.9-2.3,3.3l-0.3-0.3l-1.3,2.5c-1.5-0.5,0.5-2.6-1.4-1.1l-0.2-2c-1.2,1.3-1.9,0.4-2.7,1.4c0.8,0.7,1.5,0.3,1.3,1.3
			c-2-1.6-1.7,1.2-2.5,2.5c0.6-0.3,1-0.4,0.9-1.6c0.6-0.2,0.6,0.9,1,0.8l0.5-1.3l0.8,1.1l1.1-1.5c0.5,1.5,1.5-0.3,1.5,1.4
			c0.8-1,1.8-0.2,2.2-2c1.1,0.6-0.7,1.5,0.1,1.3c3.7-2.7,8.2-4.2,12.7-5.3l-0.2,0.8c0.2-0.8,0.5-1.5,0.6-2.1
			c1.2,0.9,4.7,1.2,4.8-1.3c0.2,0.1,0.1,0.5,0.1,0.7c1.4-0.8,4.6-0.3,6.6-1.3c-0.1-2.6,3.7,0.2,3.2-3.1l-0.2,0.8
			c-1.1-0.6,0.1-2.5,0.1-3.4c1.4,1.8,0.7,1.5,2.1,3.1l-1.1-0.4l0.9,1.6c0.9-5.2,5.7,0.1,6.1-3.6c0,0.2,0.1,0.5,0.1,0.7
			c1.5,0.5,1.4-1.9,1.9-2.7c0.4,0.8,0.1,1.5-0.1,2.3c2.2-0.1,4.5-3.5,7.1-3c0.3-1.4-0.9-1.4-0.5-2.5c0.8,0.1,1.6,0.8,1,1.6
			c2.7,1.4,5.5-3.6,9.1-2.8c1-1.8-0.2-2,1.7-3.7c-0.2,1,1.7,2.5,0.3,3.1l0.2,0.9c2.3-0.7,5.4-1.5,5.7-4.4c0.8,1.8,0.6,0.2,1.8,0.8
			c0.3-0.3-0.1-0.3-0.3-0.3c0.2-1.9,1.3-0.4,1.8-0.9l-0.1,0.4l1.1-1.7c0.4,0.1,0.9,0.3,1.2,0.9l-0.5-1.3c0.9-0.3,1.1,1.4,2,0.7
			l-0.6-0.9c0.9,0.3,1.5-1.4,2.2-0.1c0.1,0.3,0,0.2-0.3,0.3c1.9,1.5,2.5-1.7,4.2-1.3l-1.2-1.9c1-1.1,1,0.1,1.2,0.8
			c0.9-0.3,1.3,0.2,2.6,0c0.3-0.7,0-0.9-0.1-1.5l1.4,0l-0.3,1.4c0.5-3.6,4.6-1.4,4.7-4.6c0.9,0.3-0.1,1.5,0.5,1.6
			c2.7,0.5,3.9-3.8,6.3-3c3.5,0.3,6.2-2.4,9.8-2.8l-0.3-0.5l2.5-0.5c0.1-1.5,1.9-1.6,2.2-3.4c0.1,0.5,0.6,1,0.6,1.4
			c0.9-0.6,1.6-1.6,2.6-1.1l-0.1,0.6c2.3-0.6,5.3-1.9,5.9-3.4c0.7-0.5,1.1,0.5,1.6,1.1c1.3-0.5,1.8-1.4,2.4-2.7
			c0.4,0.1,0.8,0.2,1.3,0.5l-0.2-1.5c0.6-0.1,0.7,1,1.2,1.1c1.1-2.4,4-2.1,5.3-2.9l-0.5-0.5c0.3-0.8,1.8-0.4,1.5,0.6
			c3-0.5,2.8-4,6.4-5.4c1.8,2,2.7-2.4,4.8-0.1c1.1-1.5,2.6-1,2.7-3c0.2,0.2,0.4,0.3,0.2,0.4c1.2,0.6,2.6-1.2,3.6-2.7l0.6,0.7
			c-0.5-1.9,2.2-2.9,1.6-4.9c0.4,0.3,0.2,0.8,0.2,1.3c1.8,1,0.8-1.5,2-1.8c0.2,0.4,0.8,0.7,0.8,1.1c2.2-0.1,3.9-1.7,5.6-3.4
			c1.7-1.8,3.5-3.6,5.9-4.5c1.1-0.7-1.7-1.3-0.2-2.2c1,0.5,0.6,2.1,1.7,1.7c-0.1-1.4,0.3-1.4,1.2-2c0.3,0.6,0.7,0.8,0.4,1.6
			c1,0.2,1.1-2.8,3.2-2.3c-0.4-0.4-0.5-0.8-0.5-1.2c0.3-2.4,4.4-1.4,3.9-2.2c0,0,0.3-0.6-0.3-0.4c0.6-0.4,1.5-0.8,2,0
			c-0.1-0.6-0.4-1.4-0.1-1.8l0.5,1c0.1-0.4-0.1-1.1,0-1.4l-0.8-0.2c1.2,0.2,0.8-2.4,2.3-0.8l-0.2,0.2l1.8-0.2c-0.2-1-0.3-2,0.6-2.5
			c1.8,1.3,2.2-1.3,3.2-2l0.5,0.6c-0.1-1.4,2.1-2.8,1.5-2.7c0.7-0.6,2-1.2,2.1-0.4c0.2-0.8,1.4-1.9,0.7-3.1l2.5,0.2
			c-1.4-2.5,2.9-1.5,0.8-3.5c0.9-0.3,1.3,0.3,2.1,0.2c-0.3-1.8,0.7-2.5,1.8-3.3l0.3,0.2c1-0.7,0.8-2.8,1.9-4.1l2,1.1
			c0.4-0.9-0.8-2.1,0.1-2.5c0.4,0.1,0.4,0.3,0.3,0.5c0.2-0.9,1.4-1.4,2.2-1.6c-0.4-2,0.7-2.4,0-4.3c2.2,0.4-0.2,1.7,1.8,2.1
			c2-0.8,2.3-2.9,2.8-5.1c0.5,0.1,0.6,0.5,0.9,0.8c0,0-0.5-1.6-1.2-3.3c-0.8-1.7-1.8-3.4-2.9-3.7c-0.9-1.2-1.3-2.2-3.3-1.6
			c0.4,0.9,0.3,2.8-1.2,2.1l1.2,1c-0.8,2.2-2.7-1.7-4.3,0.4l0.8-0.1c-0.2,0.4,0.3,1.3-0.5,1.5c-0.5-0.1-0.4-0.5-0.6-0.9l0.3,3
			c-0.8-0.5-1.1-0.8-1.4-1.6c-1.2,1.6,2.6,1.4,0.5,2.9c-0.8-0.1-0.7-0.7-0.9-1.3c-1.8,0.1-1.3,1.4-1.4,2.8c-1.1-0.9-0.5-1.3-1.8-1.2
			c0.7,0.3,1.7,1,1.4,1.6c-0.9-1.2-1,0-1.7,0.3c0.5,0.2,1,0.6,1,1c-0.1,0.4-0.7,0.3-1,0.7l1.7,0.2c0.2,1.8-1.9,1-3,1.4
			c-0.1-0.2-0.2-0.5-0.1-0.7c-1.1,0.4-2.7,0.4-2.6,2.1l-0.1-0.2c-0.6,2.7,2.3,1,1.3,3.9c-0.9,0.5-3.1-3.3-3.4-0.7
			c1.6,0.1,1.2,2.9,0.7,4.1l-1.1-2.7c-0.4,0.3-0.4,1.4-0.8,1.5l0.5,0.4c1.8,1.5-1.4,0.9-1,2.5c-1.5-2.9-1-2.5-3.2-4.8
			c0.6,1.7,1.1,3.5-0.3,4.4l-0.8-2.5c-1.8,1.1-1.1,5.2-1,7.8c-0.9-1.6-1.9-1.5-2.4-3.1c-0.4,0.5-0.8,1.1-1.2,1.6l-0.9-1.8
			c0.8,2-0.8,1.6,1.1,3.3c-0.1-0.4-0.3-0.6,0-0.8c0.5,0.6,1.4,2,0.5,2.6c-1,0-0.4-1-1-1.4c0.2,1.2-1,0-1,1l1.2,0.4
			c0.7,1.4-0.8,0.8-0.8,1.8c0.2-1-0.6-1.4-1.5-1.9l0.2,0.1c-0.3,0.4-0.1,1.6-1,1.2l-1.1-1.8l0.5,1.6c-0.4,0-1-0.4-0.9-1
			c-2.6,0.5,3.1,3.2-0.5,3.8c-0.5-0.6-0.6-1.2,0.4-1.4c-0.7-1-1.4-1.4-2.3-1.2c-0.1-0.1-0.1-0.1-0.2-0.2
			C389,415,387.4,416.2,387.5,417.9z"/>
		<path fill="#FFC235" d="M390.2,414.1c0.6-0.5,1.2-1,1.2-1.4C391.1,412.5,389.3,413.2,390.2,414.1z"/>
		<path fill="#FFC235" d="M280,471.5c0.1-0.1,0.2-0.2,0.2-0.3C280.2,471.3,280.1,471.4,280,471.5z"/>
		<path fill="#FFC235" d="M273.9,474.5c0.2,0.2,0.3,0.2,0.5,0.3C274.2,474.5,274,474.2,273.9,474.5z"/>
		<path fill="#FFC235" d="M338.9,447.3L338.9,447.3L338.9,447.3z"/>
		<path fill="#FFC235" d="M303,461.5c-0.3,0.8-0.3,1.4-0.1,1.9C303.1,463.1,303.2,462.6,303,461.5z"/>
		<path fill="#FFC235" d="M315.5,457.5c0-0.1,0.1-0.2,0.1-0.4C315.5,457.3,315.4,457.4,315.5,457.5z"/>
		<path fill="#FFC235" d="M340.3,445.5c-0.2,0.8-1,1.1-1.4,1.7C339.2,446.7,340.5,446.9,340.3,445.5z"/>
		<polygon fill="#FFC235" points="266.9,479.6 267.1,478.4 266.7,479.3 		"/>
		<path fill="#FFC235" d="M272.6,476.7c0.4,0.1,1.2-0.9,0.7-1.3C273.2,476,272.9,476.3,272.6,476.7z"/>
		<polygon fill="#FFC235" points="296,468.8 295.8,467.7 295.6,468.7 		"/>
	</g>
	<g>
		<polygon fill="#FFC235" points="468.2,347.1 468.7,348 468.7,346.6 		"/>
		<path fill="#FFC235" d="M474.4,345.6c0-1.2,0.7-2.3-0.3-4.2l-0.1,2.1c-0.8-1.4-1.4-1-1.7-0.3l0.6-0.3c-0.1,0.3,0.5,1.1,0.4,1.4
			c-1.3-0.3-0.6,1.8-2.2,0.5l0-0.2l-0.2,1.2c-0.3-0.1-0.5-0.9-0.6-1.1c-0.2,1-0.3,2-1.2,2.3c1.8,2.4,0.9-2.8,2.7-0.5l0,0.2
			C472.2,345.4,473.9,346.7,474.4,345.6z"/>
		<path fill="#FFC235" d="M470.3,344.7L470.3,344.7C470.3,344.5,470.3,344.6,470.3,344.7z"/>
		<path fill="#FFC235" d="M503.5,330.5l-0.3-0.4C503.3,330.3,503.4,330.5,503.5,330.5z"/>
		<path fill="#FFC235" d="M491.1,332C491.1,332,491.1,332,491.1,332C490.8,331.4,490.9,331.6,491.1,332z"/>
		<path fill="#FFC235" d="M542.3,286.2l0.7,0.1C542.4,286.1,542.3,286.1,542.3,286.2z"/>
		<path fill="#FFC235" d="M549.4,273.5L549.4,273.5L549.4,273.5z"/>
		<path fill="#FFC235" d="M538.1,275.6l-0.6-0.2C537.8,275.5,538,275.6,538.1,275.6z"/>
		<path fill="#FFC235" d="M538.9,271.2c0.2,0,0.4-0.1,0.4-0.2C539,270.9,538.8,271,538.9,271.2z"/>
		<path fill="#FFC235" d="M549.6,273.8c-0.1-0.1-0.1-0.2-0.2-0.2C549.5,273.6,549.5,273.7,549.6,273.8z"/>
		<path fill="#FFC235" d="M534,280.9l-1.5-0.6C532.9,280.5,533.5,280.7,534,280.9z"/>
		<path fill="#FFC235" d="M538.2,269.7c0.3,0.1,0.5,0.1,0.6,0C538.5,269.6,538.3,269.6,538.2,269.7z"/>
		<path fill="#FFC235" d="M475.2,345.2c-0.1,0.1-0.2,0.2-0.3,0.4C475.1,345.6,475.2,345.4,475.2,345.2z"/>
		<path fill="#FFC235" d="M518.6,300.2c-0.1-0.1-0.2-0.3-0.4-0.4C518.2,299.9,518.4,300.1,518.6,300.2z"/>
		<path fill="#FFC235" d="M527.5,288.9L527.5,288.9c-0.1-0.1-0.2-0.1-0.3-0.2L527.5,288.9z"/>
		<path fill="#FFC235" d="M525.4,292.5c-0.1-0.1-0.2-0.2-0.3-0.2C525.2,292.4,525.3,292.4,525.4,292.5z"/>
		<path fill="#FFC235" d="M527.9,285.4c-0.1-0.1-0.2-0.2-0.4-0.4L527.9,285.4z"/>
		<path fill="#FFC235" d="M530.9,283.7c-0.6-0.2-0.9-0.5-1.3-0.9c-1.1,0.3,0.5,1.4-1.1,1.4l0.9,0.1c0.7,1,0.4,1.9-1.1,1.5l-0.4-0.4
			c0.8,1.1-1.6,0.5-0.8,1.2c0.7,0.2,0.9,0.6,1.6,0.6c0.2,0.6,0.3,1.1,0.4,1.7l-1.9-1l0.2,0.9c0.8,0.3-1.1,0.3,0.6,1.4
			c-0.9-0.1-1.3-1-1.9-1.5c0.3,0.6-0.5,0.2,0.4,1.1l-1.8-0.7l0.6,1.5c-0.1-0.1-0.3-0.2-0.4-0.3c1.1,1.2-1.4,0.4,0.6,2.3
			c-0.1-0.1-0.1-0.1-0.2-0.2c1,1.1-0.3,1.1-0.7,1.1c0,0.6,1.4,1.2,2,1.6c-1.3,0.9-0.9,0.6,0.2,2.8c-2.4-0.8-2.6-2.8-4.4-3.1
			c0.9,0.7,1.2,1.8,1.1,2.6c-1.1,0-2.2,0.6-3.9,0.1l1.3,0.9c0,0.4,0.1,0.8,0.1,1.2l-1.4-1.7c0.3,0.4,0.8,1.4,1.2,2
			c0.4,1.5-3-1.6-1.6,0.4c-0.2-0.1-0.3-0.2-0.4-0.2c0.8,0.9,0,1.1-0.1,1.9l-1.4-1.4l0.6-0.1c-1.7-1-0.2,0.8-0.6,1.1
			c0.2,0.8,1.6,1.6,1.9,2.2c-0.2,0.1,0.1,0.6-0.4,0.4c-0.7-0.1-1.8-1.4-2.4-2c1.3,1.5,1,1.5,1.1,2.6c-0.8-0.6-1-0.9-1.1-1.1
			c0.1,0.3,0.3,0.7,0.9,1.3l-1-0.5c-1.9-0.4,2.1,3,0.9,3.4c-0.6-0.9-0.5,0.9-1.7,0.3c0-0.5-2.3-1.7-3-2.7c-1.1,0.2,1.5,1.8,1.3,2.6
			l-1.6-1.8c0.3,1.2,0.9,1,0.9,2c-0.4-0.6-0.7-0.2-1-1c-0.8,0.5-0.5,0.5-1.2,0.9l1.7,1.6c0,0.4-0.8-0.2-1.2-0.5
			c0.1-0.1,0.2-0.2,0-0.4c-1.7-1.1,0.5,1.1-1.2,0.1c0.6,0.4,1.4,1.1,1.3,1.4c-1-1-1.3-0.6-1.8-0.9c0.9,0.5-0.2,0.8,0.9,1.9
			c-1.1-0.5-0.7-0.9-1.3-1.4c1.1,1.5-0.8,1.1-0.3,2c-0.1-0.1-0.2-0.2-0.3-0.2c0.5,1.1,0.2,1.7,0.7,3.4l-0.7-1.1
			c-1,0.2,1.6,2.3,1.1,2.8c-1.2-1.4-0.7,0.9-2-0.8c0.4,1,0.4,1.7,1.4,3.1c-1-0.5-1.2-2.4-2-2.4l0.2,1.1l-0.8-0.7
			c0.5,0.6,0.2,1,0.6,1.4c-0.9-0.8-1.7-1.3-2.3-2c0,0.5-1.2,0-0.7,1l-0.4-0.4c1.3,1.9-0.5,1.1,0.9,2.9l-1-0.8
			c-0.3,0.5,1.4,2.3,1.6,2.9c-0.1,0.2-0.2,0.6-0.5,0.6c-0.4-1.6-1.5-1.1-2.2-1.7c-0.3,0.2-0.8,0.8-0.2,1.9c-0.5-1.1-1.3-1.7-0.9-2.2
			c-1.8-1.5-0.4,1-1.2,1.2l-0.7-0.8c-0.3,1.2,0.8,2.6,1.7,4.3c-0.9-0.9-1.1-1.3-1.7-2.5c-1-0.2-1.3,1.1-2,1.5
			c-0.8-0.6-1-1.1-1.1-1.6c0,1.3-1.5,0.8-0.5,3c-0.4-0.9-0.6-0.3-1.2-0.5c0.3,0.4,0.6,0.9,0.6,0.9c0.2,1-0.2,2.4-1.1,2l-0.2-0.7
			c-1.3,0.4,0.6,4-1.6,3.4c-0.5-0.3-0.9-1.7-1.3-1.4c0.3,0.8,1.4,2.3,0.5,2.2l-0.9-1.3l0.5,1.5c0.9,0.9,1.3,0.2,1.7,1.6
			c-1.3-0.9,0.4,1.5-1.2,0.5c0.1-0.2-0.4-1.3-0.7-1.9c-2.3-0.7-1,2.4-3.4,1.6c0,1.4-0.7,2.2-0.6,3.4c-0.8-1.3-1.5-2.5-1.9-3.7
			c-0.7,0.1,0.9,3.2-0.7,1.6c0.8,1.9-0.9,2,0.5,4.6c-0.3-0.5-0.6,0.3-0.9-1.4c-0.3,1.3-2.4-1.6-2.7-1.4c-0.2,0.2,1.2,1.5,0.7,1.8
			c-0.1-0.1-0.3-0.3-0.4-0.4l0.2,0.7c-0.5-0.5-0.5-1.4-0.9-2c-1-0.2-0.2,2.1-0.9,2.6l-0.1-0.5l-0.9,0.3l0-0.2l-0.1,1.2l-0.3-0.7
			c0,0.3,0.1,0.7,0,0.9l-0.4-0.9c0.5,1.4,0.1,2.5-0.3,2.7l-0.3-0.3l0,2.1c-0.9-0.7-0.4-2.3-1-1.2l-0.6-1.8c-0.3,1-0.9,0.1-1,0.9
			c0.6,0.8,0.9,0.5,1.1,1.4c-1.5-1.7-0.6,0.9-0.7,2c0.3-0.1,0.4-0.2,0.1-1.3c0.3-0.1,0.6,0.9,0.8,0.9l-0.1-1.2l0.7,1.1l0.2-1.3
			c0.7,1.4,0.7-0.1,1.2,1.4c0.2-0.8,1,0,0.7-1.5c0.8,0.7,0,1.2,0.4,1.2c1.3-2,3.3-2.7,5.5-3.4l0.2,0.7c-0.2-0.7-0.2-1.3-0.3-1.8
			c0.9,0.9,3,1.5,2.3-0.7c0.1,0.1,0.2,0.4,0.3,0.6c0.5-0.6,2.5,0.2,3.3-0.6c-1-2.3,2.2,0.5,0.6-2.5l0.2,0.7
			c-0.8-0.6-0.9-2.2-1.2-2.9c1.5,1.7,0.9,1.4,2.4,2.9l-0.8-0.4l1.1,1.4c-1.5-4.5,3.3,0.4,2.1-2.8c0.1,0.2,0.2,0.4,0.3,0.6
			c1.1,0.5,0.1-1.5,0-2.2c0.6,0.7,0.7,1.3,0.9,2c1.2,0.1,1.1-2.9,2.8-2.3c-0.4-1.2-1.1-1.2-1.3-2.2c0.5,0.1,1.2,0.7,1.3,1.5
			c2.1,1.3,1.6-2.8,4-2c-0.3-1.5-1-1.7-0.7-3c0.3,0.8,2.1,2.1,1.6,2.6l0.5,0.8c1-0.5,2.4-1.2,1.2-3.6c1.3,1.5,0.4,0.2,1.4,0.7
			c0-0.3-0.2-0.2-0.3-0.3c-0.8-1.5,0.5-0.3,0.6-0.7l0.1,0.3l-0.2-1.4c0.3,0.1,0.7,0.3,1.1,0.7l-0.9-1c0.3-0.3,1.3,1.2,1.5,0.6
			l-0.8-0.7c0.7,0.3,0.1-1.2,1.2-0.1c0.2,0.2,0.1,0.2,0,0.3c1.8,1.2,0.6-1.4,1.7-1.1l-1.6-1.5c0-0.9,0.6,0.1,1.1,0.7
			c0.3-0.3,0.9,0.2,1.5,0c-0.2-0.6-0.5-0.7-0.8-1.2l0.8,0l0.6,1.1c-1.6-2.9,1.9-1.2,0.3-3.7c0.7,0.2,0.7,1.2,1.1,1.3
			c1.8,0.3,0.2-3.1,2-2.5c2.2,0.1,2.3-2.1,4.2-2.4l-0.5-0.4l1.1-0.5c-0.8-1.1,0.2-1.3-0.7-2.6c0.3,0.3,1,0.8,1.1,1.1
			c0.2-0.5,0-1.3,0.9-0.9l0.3,0.5c1-0.5,2.1-1.6,1.6-2.7c0.1-0.3,1,0.4,1.6,0.8c0.5-0.4,0.2-1.1-0.2-2.1c0.3,0.1,0.6,0.1,1.1,0.4
			l-1-1.1c0.3-0.1,1,0.7,1.4,0.8c-0.8-1.8,1.2-1.7,1.6-2.2l-0.6-0.4c-0.3-0.6,0.9-0.3,1.3,0.4c1.6-0.5-0.5-2.9,0.8-4
			c2.3,1.4,0.3-1.7,2.9-0.2c-0.2-1,1.1-0.7,0-2.1c0.3,0.2,0.4,0.2,0.4,0.3c1.1,0.4,1-0.9,0.8-1.9l0.8,0.5c-1.5-1.3-0.3-2.1-1.7-3.4
			c0.4,0.2,0.6,0.6,0.8,0.9c1.8,0.7-0.4-1,0.3-1.2c0.4,0.3,0.9,0.5,1.2,0.8c1.4-0.1,1.7-1.2,1.9-2.3c0.1-0.6,0.2-1.2,0.5-1.7
			c0.2-0.5,0.5-1,1.2-1.2c0.4-0.5-1.9-0.9-1.4-1.5c1,0.3,1.5,1.3,2.2,1.1c-0.9-0.9-0.6-0.9-0.2-1.3c0.5,0.4,0.9,0.6,1.1,1.1
			c0.9,0.2-0.7-1.8,1-1.5c-0.5-0.3-0.8-0.5-1-0.8c-1.1-1.5,2.5-0.8,1.7-1.3c0,0-0.1-0.4-0.4-0.3c0.2-0.2,0.7-0.5,1.5,0
			c-0.4-0.4-1.1-0.9-1-1.2l0.9,0.7c-0.1-0.2-0.7-0.7-0.8-0.9l-0.7-0.1c1,0.1-0.7-1.5,1.2-0.5l0,0.1l1.2-0.1
			c-0.7-0.6-1.3-1.3-0.8-1.5c2.1,0.9,1-0.7,1.5-1.1l0.7,0.4c-0.8-0.9,0.2-1.6-0.2-1.6c0.2-0.4,1-0.6,1.5-0.1c-0.2-0.5,0.1-1.1-1-1.9
			l2,0.2c-2.4-1.5,1.5-0.8-1.2-2.1c0.6-0.2,1.2,0.2,1.8,0.2c-1.1-1.1-0.6-1.5-0.2-1.9l0.3,0.1c0.5-0.4-0.6-1.6-0.4-2.3l2.2,0.7
			c-0.1-0.5-1.7-1.3-1.1-1.4c0.4,0,0.4,0.2,0.5,0.3c-0.3-0.5,0.5-0.8,1.1-0.8c-1.3-1.1-0.6-1.3-2-2.4c2,0.3,0.6,0.9,2.5,1.3
			c1.3-0.4,0.6-1.6,0-2.8c0.4,0.1,0.7,0.3,1.2,0.5c0,0-1.1-0.9-2.5-1.8c-1.4-0.9-3-1.9-4.1-2.1c-1.3-0.7-2.1-1.2-3.5-1
			c0.7,0.5,1.5,1.5-0.1,1.1l1.5,0.6c0.3,1.2-3.1-1-3.5,0l0.6,0c0,0.2,0.9,0.8,0.3,0.8c-0.4-0.1-0.6-0.3-0.9-0.5l1.6,1.7
			c-0.9-0.3-1.3-0.5-1.9-0.9c-0.3,0.8,2.8,0.9,1.8,1.7c-0.7-0.1-0.9-0.4-1.3-0.7c-1.4,0-0.4,0.7,0.2,1.5c-1.3-0.5-1-0.8-2-0.7
			c0.7,0.2,1.9,0.6,1.9,1c-1.3-0.7-0.8-0.1-1.3,0.1c0.5,0.1,1.1,0.4,1.3,0.6c0.1,0.2-0.4,0.1-0.4,0.4l1.5,0.2c1,1-1,0.5-1.8,0.7
			c-0.2-0.1-0.4-0.3-0.4-0.4c-0.7,0.2-2,0.1-1.1,1.1l-0.1-0.1c0.8,1.5,2.3,0.6,3,2.3c-0.4,0.3-4.1-2.1-3-0.5
			c1.3,0.1,2.4,1.7,2.6,2.5l-2.2-1.6c-0.1,0.2,0.4,0.8,0.1,0.8l0.6,0.2c2.1,0.9-0.6,0.5,0.5,1.4c-2.7-1.8-2.1-1.5-4.9-3
			c1.4,1.1,2.7,2.1,2,2.6l-1.9-1.5c-0.9,0.6,1.8,3,3.2,4.6c-1.5-1-2.2-1-3.5-2l-0.1,0.9l-1.6-1.1c1.6,1.2,0.2,0.9,2.6,2.1
			c-0.3-0.2-0.5-0.4-0.4-0.5c0.7,0.4,2.1,1.2,1.7,1.6c-0.7,0-0.8-0.6-1.5-0.9c0.8,0.7-0.7,0-0.2,0.6l1.1,0.3
			c1.2,0.9-0.2,0.5,0.3,1.1c-0.4-0.6-1.2-0.9-2.1-1.2l0.2,0.1c0,0.2,0.8,1-0.1,0.7l-1.8-1.1l1.2,1c-0.3,0-1-0.3-1.2-0.7
			c-1.6,0.3,4,2.1,1.6,2.3c-0.7-0.4-1.1-0.8-0.5-0.9c-1.1-0.7-1.8-0.9-2.4-0.8c-0.1,0-0.1-0.1-0.2-0.1
			C530.5,281.9,529.9,282.6,530.9,283.7z"/>
		<path fill="#FFC235" d="M530.8,281.4c0.2-0.3,0.3-0.6,0.2-0.8C530.6,280.4,529.7,280.8,530.8,281.4z"/>
		<path fill="#FFC235" d="M496.4,322.6c0-0.1,0-0.2,0-0.2L496.4,322.6z"/>
		<path fill="#FFC235" d="M494.4,324.8c0.2,0.2,0.3,0.2,0.4,0.3C494.5,324.8,494.3,324.5,494.4,324.8z"/>
		<path fill="#FFC235" d="M516.2,303.7L516.2,303.7L516.2,303.7z"/>
		<path fill="#FFC235" d="M503.9,314.9c0.3,0.6,0.6,1.1,0.9,1.5C504.9,316.2,504.6,315.7,503.9,314.9z"/>
		<path fill="#FFC235" d="M508.7,311.7c0-0.1-0.1-0.2-0.1-0.3C508.6,311.6,508.6,311.6,508.7,311.7z"/>
		<path fill="#FFC235" d="M516,302.4c0.4,0.6,0.1,0.8,0.2,1.3C516.1,303.3,516.9,303.3,516,302.4z"/>
		<polygon fill="#FFC235" points="492.7,328.7 492.3,327.7 492.5,328.5 		"/>
		<path fill="#FFC235" d="M494.6,326.5c0.3,0.1,0.3-0.7-0.2-1C494.6,326,494.6,326.3,494.6,326.5z"/>
		<polygon fill="#FFC235" points="503.9,320.8 503.2,319.9 503.6,320.7 		"/>
	</g>
	<g>
		<polygon fill="#FFC235" points="26.8,474.9 27.4,474 25.7,474.3 		"/>
		<path fill="#FFC235" d="M20.4,466.9c-1.5,0-3.2-1-5,0.2c0.9,0.1,1.8,0.2,2.7,0.3c-1.2,1.1-0.4,2,0.7,2.5c-0.3-0.2-0.5-0.5-0.8-0.8
			c0.4,0.1,1.1-0.7,1.4-0.6c0.5,1.8,2.5,0.7,2.2,3l-0.2,0l1.6,0.2c0.1,0.5-0.6,0.9-0.9,1c1.5,0.2,2.7,0.1,3.8,1.2
			c0.6-1.5-0.4-1.6-1.4-1.7c-0.5-0.1-1-0.1-1.3-0.4c-0.3-0.3-0.3-0.7,0-1.4l0.2-0.1c-0.9-0.2-1.3-0.9-1.6-1.6
			C21.5,467.9,21.2,467.2,20.4,466.9z"/>
		<path fill="#FFC235" d="M22.2,472.6l-0.1,0C22,472.6,22.1,472.6,22.2,472.6z"/>
		<path fill="#FFC235" d="M11.5,417.7l-0.5-0.2C11.2,417.6,11.3,417.7,11.5,417.7z"/>
		<path fill="#FFC235" d="M3.7,434.9L3.7,434.9C3.1,434.8,3.2,434.8,3.7,434.9z"/>
		<path fill="#FFC235" d="M80,343.6l0.8,0.2C80.2,343.5,80,343.4,80,343.6z"/>
		<path fill="#FFC235" d="M100.1,326.7L100.1,326.7C100.1,326.7,100.1,326.7,100.1,326.7z"/>
		<path fill="#FFC235" d="M84.7,328l-0.5-0.4C84.5,327.8,84.6,327.9,84.7,328z"/>
		<path fill="#FFC235" d="M90.3,321.5c0.3,0,0.5-0.1,0.7-0.3C90.7,321.1,90.4,321.2,90.3,321.5z"/>
		<path fill="#FFC235" d="M100.1,327.1c0-0.1,0-0.2,0-0.4C100.1,326.8,100,326.9,100.1,327.1z"/>
		<path fill="#FFC235" d="M74.4,335.6l-1.3-0.9C73.4,335,73.9,335.3,74.4,335.6z"/>
		<path fill="#FFC235" d="M91,319.2c0.3,0.1,0.5,0.2,0.7,0.1C91.4,319.2,91.2,319.1,91,319.2z"/>
		<path fill="#FFC235" d="M19.4,465.7c0.2,0.2,0.3,0.3,0.7,0.5C20,465.9,19.7,465.7,19.4,465.7z"/>
		<path fill="#FFC235" d="M37.5,366c-0.1-0.2-0.2-0.3-0.3-0.5C37.1,365.7,37.2,365.9,37.5,366z"/>
		<path fill="#FFC235" d="M58.7,347.8L58.7,347.8c0-0.1-0.1-0.2-0.2-0.2L58.7,347.8z"/>
		<path fill="#FFC235" d="M52.7,353.3c0-0.1-0.1-0.2-0.2-0.3C52.6,353.2,52.7,353.3,52.7,353.3z"/>
		<path fill="#FFC235" d="M62.2,342.5c0-0.2-0.1-0.4-0.2-0.6L62.2,342.5z"/>
		<path fill="#FFC235" d="M67.8,339.8c-0.6-0.2-0.7-0.8-0.9-1.4c-1.6,0.4-0.7,2.2-2.7,2.2l1.1,0.1c0,1.5-1.2,2.9-2.9,2.4l-0.1-0.6
			c0.2,1.5-2.6,0.8-2.1,1.9c0.8,0.2,0.7,0.8,1.6,0.9l-0.9,2.5l-1.6-1.4l-0.5,1.3c0.8,0.4-1.7,0.6-0.4,2.1c-1.1-0.1-0.9-1.4-1.3-2.1
			c-0.1,0.9-0.8,0.3-0.4,1.6l-1.8-0.9l-0.5,2.2c-0.1-0.2-0.2-0.2-0.3-0.4c0.4,1.7-2.2,0.8-1.2,3.4c0-0.1-0.1-0.2-0.2-0.3
			c0.6,1.4-1.3,1.6-1.9,1.8c-0.5,0.9,0.9,1.5,1.4,2.1c-2.4,1.5-1.7,1-1.9,4.1c-2.6-0.8-1.3-3.8-3.8-3.8c0.6,1,0.3,2.4-0.4,3.6
			c-1.5,0.3-3.5,1.2-5.5,0.9l1.1,1l-0.8,1.8l-0.8-2.3c0.1,0.6,0.1,1.8,0.2,2.8c-0.5,2.2-3.1-1.7-2.6,0.9c-0.2-0.1-0.3-0.2-0.4-0.3
			c0.5,1.1-0.7,1.6-1.5,2.9l-1-1.7l1-0.3c-1.7-1-0.9,1.2-1.6,1.7c-0.2,1.1,1.2,1.9,1.2,2.7c-0.3,0.2-0.3,0.9-0.9,0.7
			c-1,0.1-1.7-1.6-2-2.4c0.9,1.9,0.5,1.9-0.1,3.5c-0.7-0.6-0.9-1-0.9-1.3c-0.1,0.4,0,0.9,0.5,1.6l-1.2-0.4c-2.5,0,1.2,3.8-0.8,4.8
			c-0.3-1.1-1.2,1.4-2.5,1c0.3-0.7-2.3-1.7-2.8-2.9c-1.8,0.7,1.1,2.1,0.4,3.4l-1.3-2.1c-0.2,1.7,0.7,1.1,0.2,2.6
			c-0.2-0.7-0.9,0-0.9-1.1c-1.5,1.1-1,0.9-2.3,1.9l1.6,1.7c-0.2,0.6-1.1,0-1.5-0.2c0.1-0.2,0.4-0.4,0.2-0.6
			c-1.9-0.9,0.1,1.5-1.8,0.8c0.7,0.4,1.6,0.9,1.2,1.5c-0.9-1.1-1.7-0.1-2.2-0.5c1,0.3-0.6,1.3,0.5,2.4c-1.3-0.1-0.7-0.9-1.3-1.5
			c1,1.7-1.6,2.1-1.2,3.3c-0.1-0.1-0.2-0.1-0.3-0.2c0.3,1.3-0.4,2.5-0.1,4.7l-0.7-1.2c-1.5,0.9,1.6,2.4,0.8,3.5
			c-1.4-1.3-1.2,1.8-2.6,0.1c0.4,1.2,0.4,2.2,1.4,3.5c-1.3,0-1.4-2.6-2.4-2.1l0.2,1.5l-1-0.4c0.6,0.5,0.1,1.3,0.7,1.6
			c-1.2-0.5-2.2-0.6-2.9-1.1c-0.1,0.8-1.7,1-1,2.1L8,399.1c1.7,1.7-0.7,2.1,1.2,3.6l-1.4-0.2c-0.3,1.1,2,2,2.3,2.7
			c-0.1,0.4-0.1,1-0.5,1.3c-0.8-1.9-2-0.2-2.9-0.2c-0.3,0.5-0.8,2.1,0.2,2.9c-0.9-1-2-1-1.6-2.2c-1.2-0.2-1.3,0.3-1.2,1
			c0.1,0.7,0.5,1.5,0.1,2.1l-1-0.4c0,2.1,1.8,2.7,3.4,4c-1.4-0.2-1.7-0.4-2.8-1.4c-0.6,0.5-0.9,1.3-1,2.1c-0.1,0.9-0.1,1.7-0.4,2.4
			c-1.1,0.2-1.5-0.2-1.8-0.8c0.3,0.9,0.1,1.7,0,2.5c-0.1,0.8,0.1,1.5,1.3,2.2c-0.9-0.5-0.7,0.5-1.3,1c0.5,0.1,1.1,0.3,1,0.3
			c0.4,0.5,0.8,1.3,0.9,2c0.2,0.8,0.1,1.5-0.3,2l-0.7-0.4c-0.3,1.2,0.6,2.1,1.3,3.1c0.7,0.9,1.4,1.8,0.5,3.1c-0.5,0.5-2-0.5-1.9,0.5
			c0.9,0.5,2.7,0.3,2.2,1.5l-1.6,0c0.5,0.3,1.1,0.5,1.6,0.8c1.3-0.5,0.8-1.8,2.3-0.9c-1.5,1.1,1.5,0.8-0.1,2.2
			c-0.2-0.3-1.4-0.6-2.1-0.8c-0.8,1.4-0.3,2.4,0.1,3.3c0.4,0.9,1,1.8,0.2,3.3c0.7,0.6,1.2,1.3,1.7,1.9c0.5,0.6,1,1.2,1.7,1.5
			c-1.6,0.3-2.9,0.6-4.3,0.2c0.1,1.2,3.7,0.9,1.7,2.3c1.1,0,1.6,0.7,2.3,1.3c0.7,0.6,1.5,1.1,3,0.8c-0.6,0.2,0.4,1.2-1.6,0.5
			c1.5,1.2-1.9,2.8-1.6,3.5c0.3,0.4,1.6-1.1,2.1-0.2c-0.1,0.1-0.4,0.3-0.4,0.4l0.8,0.1c-0.5,0.6-1.6,0.2-2.3,0.4
			c-0.1,1.5,2.5,1.4,3.3,2.7l-0.6,0c0.2,0.5,0.4,1,0.6,1.5l-0.2,0l1.6,0.7l-0.7,0.3c0.3,0.2,0.8,0,1.1,0.3l-0.9,0.3
			c1.6-0.3,2.9,0.6,3.3,1.2l-0.3,0.3c0.9,0.2,1.7,0.3,2.6,0.4c-0.4,1.3-2.6,0.2-1,1.3l-1.9,0.6c1.4,0.7,0.6,1.4,1.6,1.8
			c0.6-0.9,0.2-1.3,1.1-1.4c-1.3,2.1,1.5,1,2.8,1.2c-0.3-0.4-0.5-0.6-1.6-0.2c-0.3-0.4,0.8-0.7,0.6-1c-0.4,0-0.9,0-1.4,0l1-0.9
			l-1.6-0.5c1.4-0.8-0.4-1,1.3-1.5c-1-0.4-0.3-1.3-2.1-1.2c0.5-0.9,1.5,0.2,1.3-0.4c-1.4-1.1-2.4-2.6-3.3-4.1
			c-0.7-1.6-1.3-3.2-1.6-5l0.8,0.1c-0.8-0.1-1.5-0.3-2.1-0.4c1-1,1.8-3.5-0.7-3.7c0.1-0.1,0.5-0.1,0.7,0c-0.5-1.1,0.5-3.4,0-4.9
			c-1.3-0.1-1-0.8-0.8-1.4c0.2-0.6,0.2-1.2-1.5-1.3l0.8,0.2c-0.9,0.7-2.5-0.5-3.4-0.6c2.2-0.7,1.7-0.2,3.7-1
			c-0.2,0.2-0.5,0.5-0.7,0.7l1.8-0.4c-2.5-0.7-2-1.8-1.4-2.7c0.6-0.9,1.4-1.7-0.3-2.3c0.2,0.1,0.5,0,0.7,0.1c1-0.9-1.3-1.4-1.9-2.1
			c0.9-0.1,1.5,0.4,2.2,0.7c0.4-0.7-0.1-1.7-0.5-2.8c-0.3-1-0.5-2.1,0.3-2.9c-1.2-0.7-1.7,0.1-2.6-0.6c0.4-0.5,1.4-0.8,2-0.1
			c1.2-0.6,1-1.8,0.8-3.1c-0.1-0.7-0.2-1.3-0.1-2c0.1-0.6,0.4-1.2,1.1-1.6c-1.1-1.4-1.8-0.8-2.3-2.8c0.8,0.6,3,0.4,2.9,1.4l0.9,0.4
			c0.1-0.4,0.3-0.8,0.4-1.3c0.2-0.4,0.3-0.9,0.3-1.3c0.1-0.9-0.2-1.8-1.4-2.8c1.9,0.6,0.5-0.2,1.7-0.4c-0.1-0.3-0.3-0.1-0.5,0
			c-1.3-1.2,0.5-0.9,0.4-1.4l0.3,0.3l-0.6-1.6c0.3-0.1,0.8-0.2,1.4,0l-1.3-0.6c0.3-0.6,1.8,0.4,1.8-0.5l-1-0.3
			c0.8-0.2-0.1-1.6,1.3-1c0.3,0.1,0.1,0.2,0.1,0.3c1.2,0.1,1.3-0.4,1.2-1.1c0-0.6-0.1-1.4,0.6-1.6l-2.1-0.9
			c-0.1-1.3,0.7-0.3,1.4,0.1c0.3-0.6,1.1-0.4,1.8-1c-0.2-0.7-0.6-0.6-1.1-1.1l1-0.5l0.7,1.1c-1-1.5-0.4-2.2,0.2-2.8
			c0.6-0.6,1.2-1.2,0.3-2.4c0.9-0.1,0.8,1.2,1.3,1.1c1.1-0.3,1.3-1.3,1.5-2.4c0.2-1,0.4-2,1.5-2.1c2.8-0.8,3.5-3.8,6.2-5l-0.5-0.4
			l1.7-1c-0.6-1.3,0.8-1.8,0.3-3.4c0.3,0.4,0.9,0.8,1.1,1.1c0.5-0.7,0.7-1.8,1.6-1.5l0.2,0.6c1.6-1,3.5-2.7,3.5-4.1
			c0.4-0.5,1.1,0.3,1.8,0.7c0.8-0.7,1-1.6,0.9-2.9c0.4,0,0.7,0.1,1.3,0.3l-0.7-1.3c0.5-0.2,0.9,0.8,1.4,0.8c0.1-2.4,2.6-2.6,3.5-3.4
			l-0.6-0.4c0-0.7,1.4-0.6,1.5,0.3c2.4-0.9,1-4,3.7-5.8c2.2,1.6,1.6-2.5,4-0.6c0.5-1.4,2-1.1,1.5-3c0.2,0.2,0.4,0.2,0.3,0.4
			c1.2,0.4,1.9-1.3,2.4-2.8l0.7,0.6c-1-1.7,1.2-2.9,0.2-4.6c0.4,0.2,0.4,0.8,0.5,1.1c1.8,0.9,0.3-1.5,1.3-1.7c0.3,0.4,0.9,0.6,1,1
			c3.7-0.5,4.6-5.9,8.5-7.5c0.9-0.7-1.7-1.2-0.5-2.1c1,0.4,0.9,1.9,1.8,1.6c-0.3-1.3,0-1.3,0.8-1.8c0.3,0.6,0.7,0.8,0.6,1.5
			c0.9,0.3,0.6-2.5,2.4-2c-0.5-0.4-0.6-0.8-0.7-1.1c-0.1-2.2,3.8-1,3.2-1.8c0,0,0.2-0.5-0.3-0.4c0.4-0.3,1.2-0.6,1.8,0.1
			c-0.1-0.6-0.5-1.3-0.3-1.7l0.6,1c0-0.3-0.3-1-0.2-1.3l-0.8-0.2c1.1,0.3,0.5-2.2,1.9-0.6L81,343l1.6-0.1c-0.3-0.9-0.5-1.9,0.3-2.2
			c1.8,1.4,1.8-1,2.8-1.5l0.5,0.6c-0.2-1.3,1.7-2.3,1.1-2.3c0.6-0.5,1.7-0.8,1.9,0c0.2-0.7,1.2-1.6,0.5-2.7l2.2,0.5
			c-1.4-2.5,2.6-0.9,0.6-3.1c0.8-0.1,1.2,0.5,1.9,0.5c-0.3-1.7,0.6-2.2,1.6-2.6l0.2,0.2c0.9-0.5,0.8-2.3,1.7-3.4l1.8,1.4
			c0.3-0.7-0.7-2.1,0.1-2.2c0.4,0.1,0.3,0.3,0.3,0.5c0.2-0.8,1.3-1,2.1-0.9c-0.3-1.9,0.7-2,0.2-3.8c2,0.9-0.3,1.4,1.5,2.3
			c1.9-0.2,2.3-2,2.8-3.8c0.4,0.2,0.5,0.6,0.8,1c0,0-1.2-6.1-3.1-7.2c-0.7-1.3-1-2.3-2.9-2.2c0.2,0.9,0,2.6-1.3,1.6l1,1.2
			c-0.9,1.8-2.3-2.2-4-0.7l0.7,0.1c-0.3,0.4,0.2,1.3-0.5,1.2c-0.4-0.2-0.3-0.6-0.4-1l0,2.8c-0.7-0.6-1-1-1.2-1.7
			c-1.3,1.2,2.2,1.8,0.2,2.8c-0.8-0.2-0.6-0.8-0.7-1.3c-1.7-0.3-1.3,1-1.5,2.3c-1-1-0.4-1.3-1.6-1.4c0.6,0.4,1.5,1.2,1.2,1.7
			c-0.7-1.2-0.9-0.2-1.6-0.1c0.4,0.3,0.8,0.8,0.8,1.1c-0.1,0.4-0.7,0.1-0.9,0.5l1.5,0.5c0.1,1.7-1.8,0.6-2.8,0.7
			c-0.1-0.2-0.1-0.4-0.1-0.6c-1,0.2-2.5-0.1-2.5,1.5l0-0.2c-0.6,2.3,2.1,1.3,1.2,3.8c-0.8,0.3-2.9-3.5-3.1-1.1
			c1.5,0.3,1.1,2.8,0.7,3.9l-1.1-2.6c-0.3,0.3-0.4,1.3-0.7,1.2l0.5,0.4c1.6,1.6-1.2,0.7-0.8,2.2c-1.5-2.9-1-2.5-3-4.8
			c0.6,1.7,1.1,3.4-0.2,4l-0.8-2.5c-1.7,0.8-0.8,4.7-0.6,7.1c-0.9-1.5-1.8-1.6-2.4-3.1l-1,1.4l-1-1.7c0.9,1.9-0.7,1.4,1.2,3.2
			c-0.1-0.4-0.3-0.6,0-0.7c0.5,0.6,1.4,1.9,0.6,2.4c-0.9-0.1-0.4-1-1.1-1.4c0.3,1.1-0.9-0.1-0.8,0.9l1.2,0.5
			c0.7,1.3-0.7,0.7-0.6,1.6c0.1-0.9-0.7-1.4-1.5-1.9l0.2,0.1c-0.3,0.3,0,1.5-0.8,1l-1.2-1.7l0.6,1.5c-0.4,0-1-0.4-1-1
			c-2.3,0.4,3.1,3.2-0.1,3.5c-0.5-0.6-0.7-1.2,0.2-1.3c-0.8-1-1.4-1.4-2.3-1.3c-0.1-0.1-0.1-0.1-0.2-0.2
			C68.8,337.1,67.5,338.2,67.8,339.8z"/>
		<path fill="#FFC235" d="M69.9,336.3c0.5-0.5,1-0.9,1-1.2C70.5,334.8,68.9,335.4,69.9,336.3z"/>
		<path fill="#FFC235" d="M0.6,416c0-0.1-0.1-0.2-0.1-0.3C0.5,415.8,0.6,415.9,0.6,416z"/>
		<path fill="#FFC235" d="M0.1,421.9c0.2,0,0.4-0.1,0.5-0.2C0.2,421.6-0.2,421.6,0.1,421.9z"/>
		<path fill="#FFC235" d="M31.6,371.8L31.6,371.8L31.6,371.8z"/>
		<path fill="#FFC235" d="M8.5,395.7c0.3,0.8,0.7,1.2,1.1,1.5C9.6,396.9,9.4,396.4,8.5,395.7z"/>
		<path fill="#FFC235" d="M16.2,387.2c0-0.1-0.1-0.2-0.1-0.4C16.1,387.1,16.1,387.1,16.2,387.2z"/>
		<path fill="#FFC235" d="M32.2,369.9c0.1,0.8-0.4,1.2-0.6,1.9C31.7,371.2,32.9,371.1,32.2,369.9z"/>
		<polygon fill="#FFC235" points="1.7,429 0.7,428.4 1.4,429.1 		"/>
		<path fill="#FFC235" d="M1.4,423.7c0.3-0.2-0.2-1.2-0.8-1C1.1,423.1,1.2,423.4,1.4,423.7z"/>
		<polygon fill="#FFC235" points="8.3,404.6 7.4,404 8,404.7 		"/>
	</g>
	<g>
		<polygon fill="#FFC235" points="382,459.7 382.9,459.2 381.5,459.4 		"/>
		<path fill="#FFC235" d="M380.8,455.4c-1.2,0.2-2.2-0.1-4.2,0.9l2.1-0.3c-1.4,0.9-1.1,1.2-0.4,1.3L378,457c0.3,0,1.1-0.6,1.4-0.6
			c-0.4,1,1.7,0.1,0.5,1.5l-0.2,0.1l1.2-0.1c-0.1,0.3-0.9,0.6-1.1,0.7c1,0,2-0.1,2.2,0.4c2.4-1.8-2.8-0.1-0.4-1.9l0.2-0.1
			C380.5,457.1,381.9,455.6,380.8,455.4z"/>
		<path fill="#FFC235" d="M379.8,458.6L379.8,458.6C379.6,458.7,379.7,458.7,379.8,458.6z"/>
		<path fill="#FFC235" d="M370.5,435.1l-0.4,0.2C370.3,435.2,370.5,435.2,370.5,435.1z"/>
		<path fill="#FFC235" d="M369.3,444.6C369.4,444.5,369.4,444.5,369.3,444.6C368.8,444.8,368.9,444.7,369.3,444.6z"/>
		<path fill="#FFC235" d="M346.8,400.6l0.5-0.5C346.8,400.5,346.7,400.6,346.8,400.6z"/>
		<path fill="#FFC235" d="M341.2,391.9L341.2,391.9L341.2,391.9z"/>
		<path fill="#FFC235" d="M336.2,400.8l-0.5,0.3C336,401,336.1,400.9,336.2,400.8z"/>
		<path fill="#FFC235" d="M333.3,398.8c0.1-0.2,0.1-0.3,0.1-0.4C333.1,398.6,333.1,398.8,333.3,398.8z"/>
		<path fill="#FFC235" d="M341.5,391.8c-0.1,0-0.2,0-0.3,0.1C341.3,391.9,341.4,391.9,341.5,391.8z"/>
		<path fill="#FFC235" d="M338.1,405.4l-1.3,1C337.3,406.1,337.7,405.8,338.1,405.4z"/>
		<path fill="#FFC235" d="M331.7,398.8c0.2-0.2,0.3-0.3,0.4-0.4C331.9,398.5,331.7,398.7,331.7,398.8z"/>
		<path fill="#FFC235" d="M380.4,454.9c0.1,0.1,0.1,0.1,0.4,0.2C380.8,454.9,380.6,454.9,380.4,454.9z"/>
		<path fill="#FFC235" d="M347.4,421.5c-0.2,0.1-0.3,0.2-0.5,0.3C347,421.8,347.2,421.7,347.4,421.5z"/>
		<path fill="#FFC235" d="M341.5,412.4L341.5,412.4c-0.1,0-0.2,0.1-0.3,0.2L341.5,412.4z"/>
		<path fill="#FFC235" d="M343.6,414.9c-0.1,0-0.2,0.1-0.3,0.1C343.4,415,343.5,414.9,343.6,414.9z"/>
		<path fill="#FFC235" d="M338.8,411.3c-0.1,0-0.3,0.1-0.5,0.2L338.8,411.3z"/>
		<path fill="#FFC235" d="M338.8,408.5c-0.4,0.4-0.9,0.6-1.4,0.8c-0.3,0.9,1.5,0,0.6,1.2l0.5-0.6c1.2-0.3,1.8,0.2,0.7,1.2l-0.5,0.2
			c1.3-0.4-0.4,1.3,0.6,0.9c0.5-0.5,0.9-0.6,1.3-1.1l1.6,0.1l-1.8,1.2l0.9,0c0.7-0.6-0.2,0.9,1.5-0.2c-0.5,0.6-1.4,0.8-2.2,1.1
			c0.7-0.1-0.1,0.4,1.1,0l-1.4,1.2l1.5-0.1c-0.2,0.1-0.3,0.2-0.4,0.2c1.5-0.6-0.3,1.2,2.2,0.1c-0.1,0-0.2,0.1-0.3,0.1
			c1.4-0.6,0.8,0.4,0.6,0.8c0.5,0.1,1.6-0.8,2.3-1.2c0.2,1.1,0.1,0.8,2.5,0.4c-1.7,1.7-3.6,1.5-4.6,2.9c1-0.5,2-0.6,2.7-0.4
			c-0.4,0.8-0.5,1.8-1.6,3.1l1.3-0.8l1.1,0.1l-2.1,0.8c0.5-0.2,1.5-0.4,2.3-0.6c1.5-0.1-2.6,2.1-0.3,1.3c-0.1,0.1-0.3,0.2-0.4,0.3
			c1.1-0.5,1,0.2,1.7,0.4l-1.8,0.9l0.2-0.5c-1.5,1.2,0.6,0.3,0.7,0.7c0.8-0.1,2-1,2.6-1.2c0,0.2,0.6,0,0.2,0.4
			c-0.3,0.6-2,1.2-2.7,1.6c1.9-0.8,1.7-0.6,2.7-0.5c-0.8,0.5-1.2,0.7-1.4,0.7c0.3,0,0.7-0.1,1.5-0.5l-0.9,0.8
			c-1,1.4,3.5-1.3,3.4-0.3c-1,0.4,0.6,0.5-0.3,1.3c-0.4-0.1-2.4,1.6-3.5,2.1c-0.2,0.9,2.1-1,2.8-0.8l-2.2,1.1
			c1.2-0.1,1.2-0.6,2.1-0.5c-0.7,0.2-0.4,0.5-1.3,0.7c0.2,0.7,0.3,0.4,0.3,1.1l2.1-1.2c0.3,0-0.5,0.6-0.9,0.9c-0.1,0-0.1-0.2-0.3,0
			c-1.6,1.2,1.2-0.3-0.3,0.9c0.6-0.4,1.5-1,1.7-0.9c-1.3,0.7-0.9,1-1.5,1.3c0.8-0.6,0.7,0.2,2.1-0.6c-0.8,0.8-1,0.5-1.7,0.9
			c1.7-0.7,0.8,0.7,1.8,0.4c-0.1,0.1-0.2,0.1-0.3,0.2c1.1-0.3,1.6,0,3.4-0.3l-1.3,0.5c-0.2,0.8,2.7-1.1,2.9-0.7
			c-1.7,0.9,0.6,0.6-1.4,1.5c1.1-0.3,1.7-0.3,3.3-1c-0.8,0.8-2.6,0.9-2.8,1.5l1.1-0.2l-0.9,0.6c0.7-0.4,0.9-0.1,1.5-0.4
			c-1,0.7-1.7,1.3-2.5,1.7c0.5,0-0.4,1,0.7,0.6l-0.5,0.3c2.1-1,0.9,0.5,3-0.6l-1,0.8c0.4,0.2,2.5-1.1,3.1-1.2
			c0.2,0.1,0.5,0.1,0.4,0.4c-1.6,0.3-1.5,1.2-2.2,1.7c0.1,0.2,0.6,0.6,1.7,0.2c-1.2,0.4-2,1-2.3,0.7c-1.9,1.4,0.9,0.3,0.8,0.9
			l-1,0.5c1,0.3,2.7-0.7,4.5-1.3c-1.1,0.7-1.5,0.9-2.8,1.4c-0.4,0.8,0.8,1,0.9,1.6c-0.7,0.6-1.3,0.8-1.7,0.9c1.2,0,0.5,1.2,2.8,0.3
			c-0.9,0.4-0.4,0.5-0.7,0.9c0.4-0.2,1-0.5,1-0.5c1-0.2,2.2,0,1.7,0.8l-0.7,0.2c0.2,1,4-0.7,3,1.1c-0.3,0.4-1.8,0.8-1.6,1.1
			c0.9-0.3,2.4-1.2,2.2-0.6l-1.4,0.7l1.6-0.5c1-0.8,0.4-1,1.8-1.4c-1.1,1.1,1.5-0.4,0.2,0.9c-0.2,0-1.3,0.4-1.9,0.7
			c-1,1.8,2.1,0.6,1,2.5c1.4-0.1,2,0.4,3.2,0.1c-1.4,0.7-2.6,1.4-3.8,1.8c0.1,0.5,3.3-1,1.4,0.4c2-0.8,1.9,0.5,4.6-0.9
			c-0.5,0.3,0.2,0.4-1.5,0.8c1.2,0.1-1.9,2-1.7,2.2c0.2,0.1,1.6-1.1,1.8-0.8c-0.1,0.1-0.4,0.3-0.4,0.4l0.7-0.2
			c-0.5,0.5-1.4,0.6-2.1,0.9c-0.3,0.8,2-0.1,2.5,0.4l-0.5,0.2l0.2,0.6l-0.2,0.1l1.2-0.1l-0.7,0.4c0.3,0,0.7-0.2,0.9-0.1l-0.9,0.4
			c1.4-0.6,2.4-0.4,2.6-0.2l-0.4,0.3l2.1-0.3c-0.7,0.8-2.3,0.7-1.2,1l-1.8,0.8c0.9,0.1,0.1,0.7,0.8,0.6c0.8-0.6,0.5-0.8,1.4-1
			c-1.8,1.4,0.8,0.3,1.9,0.2c-0.1-0.2-0.2-0.3-1.3,0.1c-0.1-0.2,0.9-0.6,0.9-0.7l-1.1,0.3l1.1-0.7l-1.2,0.1c1.4-0.7-0.1-0.5,1.5-1.1
			c-0.8,0,0.1-0.7-1.5-0.2c0.7-0.7,1.2-0.2,1.2-0.5c-1.9-0.6-2.4-2-2.7-3.6l0.7-0.2c-0.7,0.2-1.3,0.3-1.8,0.5c1-0.8,1.9-2.5-0.4-1.6
			c0.1-0.1,0.4-0.2,0.6-0.3c-0.5-0.3,0.5-1.9-0.1-2.4c-2.3,1,0.8-1.7-2.3-0.3l0.7-0.2c-0.7,0.7-2.2,0.9-3,1.2c1.8-1.3,1.5-0.8,3.1-2
			l-0.5,0.6l1.6-0.9c-4.6,1.5,1-2.5-2.3-1.3c0.2-0.1,0.4-0.2,0.6-0.3c0.7-0.8-1.5,0.1-2.1,0.2c0.8-0.5,1.4-0.6,2.1-0.8
			c0.3-0.9-2.5-0.6-1.6-2c-1.2,0.4-1.4,0.9-2.3,1.1c0.2-0.4,1-1,1.7-1.1c1.7-1.7-2.4-1-1.1-2.9c-1.5,0.3-1.8,0.8-3,0.6
			c0.9-0.3,2.5-1.7,2.8-1.3l0.9-0.4c-0.3-0.8-0.5-1.8-3.1-0.8c1.7-1,0.3-0.3,1-1.1c-0.3,0-0.3,0.2-0.3,0.3c-1.6,0.6-0.2-0.4-0.5-0.4
			l0.3-0.1l-1.4,0.2c0.2-0.2,0.4-0.5,1-0.8l-1.2,0.7c-0.2-0.2,1.5-1,0.9-1.2l-0.9,0.6c0.4-0.5-1-0.1,0.3-0.9c0.3-0.2,0.2-0.1,0.3,0
			c1.6-1.4-1.1-0.5-0.5-1.3l-1.9,1.2c-0.9,0,0.3-0.5,0.9-0.9c-0.2-0.2,0.4-0.7,0.4-1.1c-0.6,0.1-0.8,0.3-1.4,0.6l0.3-0.6l1.2-0.4
			c-3.2,1.1-0.5-1.5-3.4-0.3c0.4-0.5,1.3-0.5,1.5-0.8c0.9-1.4-2.8-0.3-1.6-1.6c0.8-1.7-1.1-1.8-0.8-3.3l-0.5,0.3l0-0.9
			c-1.3,0.5-1-0.2-2.6,0.3c0.4-0.2,1-0.7,1.4-0.8c-0.3-0.2-1.1-0.1-0.5-0.7l0.5-0.2c-0.1-0.8-0.6-1.7-1.8-1.4
			c-0.3-0.1,0.7-0.7,1.3-1.1c-0.2-0.4-0.9-0.3-1.9-0.1c0.2-0.2,0.3-0.4,0.8-0.8l-1.4,0.6c0.1-0.3,1-0.7,1.3-1
			c-1.9,0.4-1-1.1-1.3-1.4l-0.6,0.4c-0.6,0.1,0.1-0.7,0.8-0.9c0.2-1.2-2.7,0.1-3.1-1.2c2.2-1.6-1.3-0.5,1.1-2.3c-1,0-0.1-1-1.8-0.3
			c0.3-0.2,0.3-0.3,0.4-0.2c0.8-0.8-0.3-0.9-1.2-0.9l0.8-0.5c-1.8,0.9-1.8-0.2-3.6,0.7c0.3-0.3,0.8-0.4,1.1-0.5
			c1.4-1.2-1,0.1-0.9-0.4c0.4-0.2,0.8-0.6,1.2-0.7c1.1-2.1-2.9-1.6-2.5-3.7c-0.2-0.4-1.7,1.2-1.9,0.7c0.8-0.7,1.9-0.9,2-1.4
			c-1.2,0.4-1,0.2-1.1-0.1c0.6-0.3,0.9-0.6,1.4-0.6c0.6-0.6-1.8,0.1-0.7-1.1c-0.5,0.3-0.8,0.5-1.2,0.6c-1.8,0.4,0.7-2-0.2-1.6
			c0,0-0.3,0-0.4,0.2c-0.1-0.2,0-0.6,0.8-1.1c-0.5,0.2-1.3,0.6-1.4,0.5l1-0.5c-0.3,0.1-0.9,0.3-1.1,0.3l-0.5,0.5
			c0.7-0.7-1.5,0.1,0.3-1l0.1,0l0.6-0.9c-0.8,0.3-1.7,0.6-1.6,0.2c1.8-1.3,0-0.9-0.1-1.4l0.7-0.4c-1.1,0.3-1.1-0.6-1.4-0.2
			c-0.2-0.2,0-0.9,0.7-1.1c-0.5,0-0.8-0.4-2,0.2l1.3-1.4c-2.5,1.3,0.3-1.4-2.2,0.2c0.2-0.5,0.8-0.8,1.1-1.2c-1.4,0.5-1.5,0-1.5-0.4
			l0.3-0.2c0-0.5-1.5,0-2-0.4l1.8-1.3c-0.4-0.1-1.9,0.8-1.7,0.4c0.3-0.2,0.4-0.3,0.5-0.3c-0.5,0-0.3-0.6,0.1-1.1
			c-1.6,0.6-1.3,0-3,0.6c1.5-1.4,1-0.1,2.4-1.4c0.5-1.1-0.7-0.9-1.9-0.9c0.3-0.3,0.7-0.4,1.1-0.7c0,0-5.3,1.9-6.9,3.3
			c-1.3,0.7-2.2,1-2.9,2.2c0.8-0.3,2-0.5,0.7,0.5l1.3-0.8c1,0.2-2.6,1.8-2.1,2.5l0.3-0.4c0.2,0.1,1.1-0.4,0.8,0.1
			c-0.3,0.3-0.6,0.3-0.9,0.4l2.2-0.6c-0.7,0.5-1.2,0.8-1.8,1c0.5,0.5,2.3-1.7,2.3-0.7c-0.5,0.5-0.8,0.5-1.3,0.7
			c-0.9,1,0.3,0.6,1.2,0.4c-1.2,0.8-1.2,0.5-1.7,1.2c0.6-0.5,1.6-1.2,1.8-1c-1.3,0.7-0.5,0.6-0.7,1c0.4-0.3,0.9-0.7,1.2-0.7
			c0.3,0-0.2,0.4,0,0.5l1-1c1.4-0.4-0.2,0.9-0.5,1.5c-0.2,0.1-0.4,0.2-0.5,0.2c-0.3,0.6-1,1.5,0.2,1.2l-0.2,0.1
			c1.6-0.1,1.8-1.5,3.4-1.4c-0.1,0.4-3.9,2.4-2.1,2.1c0.8-0.9,2.7-1.2,3.4-1.2l-2.5,1.1c0.1,0.1,0.9,0,0.7,0.2l0.5-0.3
			c1.9-1.3,0,0.6,1.4,0.1c-2.9,1.4-2.4,1.1-5,2.7c1.6-0.7,3.1-1.3,3.1-0.7l-2.3,1c0,0.9,3.4-0.4,5.4-1c-1.6,0.8-2,1.4-3.4,2l0.7,0.3
			l-1.8,0.9c1.9-0.9,0.9,0.1,3-1.3c-0.3,0.1-0.6,0.3-0.6,0.2c0.7-0.4,2.1-1.2,2.2-0.8c-0.4,0.5-0.9,0.4-1.5,0.9
			c1-0.4-0.4,0.5,0.4,0.3l0.8-0.8c1.3-0.7,0.3,0.3,1,0.1c-0.7,0.1-1.4,0.7-2.1,1.2l0.2-0.1c0.2,0.1,1.2-0.3,0.5,0.3l-1.8,1l1.4-0.6
			c-0.2,0.2-0.7,0.7-1.2,0.8c-0.6,1.3,3.8-2.4,2.7-0.6c-0.7,0.4-1.2,0.6-0.9,0.1c-1.1,0.6-1.7,1.1-1.9,1.6c-0.1,0.1-0.1,0.1-0.2,0.1
			C337.2,408.4,337.5,409,338.8,408.5z"/>
		<path fill="#FFC235" d="M336.9,408c-0.1-0.2-0.3-0.4-0.6-0.4C336,407.9,335.8,408.7,336.9,408z"/>
		<path fill="#FFC235" d="M361.4,440.8c-0.1,0-0.1,0-0.2,0L361.4,440.8z"/>
		<path fill="#FFC235" d="M363.1,442.3c0.2-0.1,0.3-0.2,0.3-0.3C363.1,442.2,362.8,442.4,363.1,442.3z"/>
		<path fill="#FFC235" d="M349.6,423.9L349.6,423.9L349.6,423.9z"/>
		<path fill="#FFC235" d="M355.9,434.7c0.7-0.2,1.2-0.4,1.7-0.7C357.4,434,356.9,434.1,355.9,434.7z"/>
		<path fill="#FFC235" d="M354.4,430.7c-0.1,0-0.2,0.1-0.3,0.1C354.2,430.8,354.3,430.8,354.4,430.7z"/>
		<path fill="#FFC235" d="M348.4,423.9c0.7-0.2,0.8,0,1.2,0C349.2,424,349.6,423.3,348.4,423.9z"/>
		<polygon fill="#FFC235" points="366.5,443.5 365.4,443.8 366.2,443.6 		"/>
		<path fill="#FFC235" d="M364.8,442.1c0.2-0.2-0.6-0.2-1,0.2C364.3,442.1,364.5,442.1,364.8,442.1z"/>
		<polygon fill="#FFC235" points="361.4,434.9 360.4,435.4 361.3,435.1 		"/>
	</g>
	<g>
		<polygon fill="#FFC235" points="401.8,439.2 402.8,438.8 401.4,438.8 		"/>
		<path fill="#FFC235" d="M401.4,434.7c-1.2,0-2.2-0.5-4.3,0.2l2.1,0c-1.5,0.6-1.3,1-0.6,1.2l-0.3-0.4c0.3,0,1.2-0.4,1.5-0.3
			c-0.6,0.9,1.7,0.4,0.2,1.6l-0.2,0l1.2,0.2c-0.2,0.2-0.9,0.4-1.2,0.5c1,0.2,2,0.2,2.1,0.8c2.7-1.4-2.7-0.6,0-2l0.2,0
			C400.8,436.3,402.4,435.1,401.4,434.7z"/>
		<path fill="#FFC235" d="M399.8,437.7L399.8,437.7C399.6,437.7,399.7,437.7,399.8,437.7z"/>
		<path fill="#FFC235" d="M395.1,412.6l-0.5,0.1C394.8,412.7,395,412.7,395.1,412.6z"/>
		<path fill="#FFC235" d="M392.1,421.8C392.1,421.8,392.1,421.8,392.1,421.8C391.5,421.9,391.7,421.9,392.1,421.8z"/>
		<path fill="#FFC235" d="M378.8,373.8l0.6-0.4C378.8,373.7,378.7,373.8,378.8,373.8z"/>
		<path fill="#FFC235" d="M375.3,364.1L375.3,364.1L375.3,364.1z"/>
		<path fill="#FFC235" d="M368.4,371.8l-0.6,0.2C368.2,371.9,368.4,371.8,368.4,371.8z"/>
		<path fill="#FFC235" d="M366,369.2c0.1-0.1,0.2-0.3,0.2-0.4C365.9,369,365.8,369.1,366,369.2z"/>
		<path fill="#FFC235" d="M375.6,364.1c-0.1,0-0.2,0-0.3,0C375.4,364.1,375.5,364.1,375.6,364.1z"/>
		<path fill="#FFC235" d="M369.3,376.8l-1.4,0.7C368.4,377.3,368.8,377.1,369.3,376.8z"/>
		<path fill="#FFC235" d="M364.5,368.9c0.3-0.2,0.4-0.3,0.5-0.4C364.7,368.6,364.5,368.8,364.5,368.9z"/>
		<path fill="#FFC235" d="M401.1,434.1c0.1,0.1,0.1,0.2,0.3,0.2C401.5,434.2,401.3,434.1,401.1,434.1z"/>
		<path fill="#FFC235" d="M375.1,394.7c-0.2,0-0.4,0.1-0.6,0.2C374.7,394.9,374.9,394.8,375.1,394.7z"/>
		<path fill="#FFC235" d="M371.2,384.4L371.2,384.4c-0.1,0-0.2,0.1-0.3,0.1L371.2,384.4z"/>
		<path fill="#FFC235" d="M372.6,387.3c-0.1,0-0.2,0.1-0.3,0.1C372.5,387.4,372.6,387.3,372.6,387.3z"/>
		<path fill="#FFC235" d="M368.7,382.8c-0.1,0-0.3,0-0.6,0.1L368.7,382.8z"/>
		<path fill="#FFC235" d="M369.4,380c-0.5,0.3-1,0.4-1.6,0.5c-0.5,0.8,1.4,0.3,0.4,1.3l0.6-0.5c1.2-0.1,1.7,0.5,0.4,1.4l-0.5,0.1
			c1.3-0.1-0.6,1.3,0.4,1c0.6-0.4,1-0.4,1.5-0.8l1.6,0.4l-2,0.8l0.9,0.2c0.8-0.4-0.4,0.9,1.5,0.1c-0.6,0.5-1.6,0.5-2.4,0.7
			c0.7,0-0.2,0.4,1.1,0.2l-1.6,0.9l1.5,0.2c-0.2,0-0.3,0.1-0.5,0.1c1.6-0.3-0.6,1.1,2.2,0.5c-0.1,0-0.2,0.1-0.3,0.1
			c1.5-0.3,0.7,0.6,0.5,0.9c0.5,0.2,1.8-0.5,2.5-0.7c0,1.2-0.1,0.8,2.4,0.9c-2,1.3-3.8,0.7-5.1,1.9c1.1-0.3,2.1-0.2,2.8,0.2
			c-0.6,0.7-0.8,1.7-2.2,2.7l1.4-0.6l1.1,0.4l-2.3,0.4c0.5-0.1,1.6-0.1,2.4-0.1c1.5,0.2-3,1.5-0.6,1.3c-0.2,0.1-0.3,0.1-0.4,0.2
			c1.2-0.2,1,0.4,1.6,0.7l-1.9,0.5l0.3-0.5c-1.7,0.8,0.5,0.4,0.6,0.8c0.8,0.1,2.2-0.6,2.8-0.6c0,0.2,0.6,0.1,0.1,0.4
			c-0.5,0.5-2.2,0.8-3,1c2-0.4,1.8-0.3,2.8,0c-0.9,0.4-1.3,0.5-1.5,0.5c0.3,0,0.7,0,1.6-0.2l-1,0.6c-1.3,1.2,3.7-0.6,3.4,0.4
			c-1.1,0.2,0.5,0.6-0.6,1.3c-0.4-0.2-2.7,1.1-3.9,1.4c-0.4,0.9,2.3-0.6,2.9-0.2l-2.4,0.6c1.2,0.1,1.3-0.3,2.2-0.1
			c-0.7,0.1-0.5,0.4-1.4,0.4c0,0.7,0.2,0.5,0.1,1.1l2.3-0.8c0.3,0.1-0.6,0.5-1,0.7c-0.1-0.1,0-0.2-0.3-0.1c-1.8,0.9,1.2,0-0.4,0.9
			c0.7-0.3,1.6-0.7,1.9-0.6c-1.4,0.4-1.1,0.8-1.7,1c0.9-0.5,0.6,0.3,2.1-0.2c-0.9,0.6-1.1,0.3-1.9,0.6c1.8-0.4,0.6,0.9,1.7,0.7
			c-0.1,0.1-0.2,0.1-0.3,0.1c1.2-0.1,1.6,0.3,3.4,0.3l-1.4,0.3c-0.3,0.8,2.8-0.6,3-0.1c-1.9,0.6,0.5,0.7-1.7,1.3
			c1.2-0.1,1.7,0.1,3.4-0.3c-0.9,0.6-2.7,0.4-3.1,0.9l1.1,0.1l-1,0.4c0.7-0.2,0.9,0.1,1.5-0.1c-1.2,0.5-1.9,0.9-2.8,1.2
			c0.5,0.1-0.5,0.9,0.6,0.7l-0.6,0.2c2.3-0.5,0.8,0.6,3.1-0.1l-1.2,0.6c0.4,0.3,2.7-0.6,3.3-0.6c0.1,0.1,0.5,0.2,0.3,0.5
			c-1.7,0-1.7,0.9-2.5,1.3c0,0.2,0.5,0.7,1.6,0.5c-1.3,0.2-2.2,0.7-2.4,0.3c-2.1,1,0.8,0.5,0.7,1.1l-1,0.4c1,0.5,2.8-0.2,4.7-0.5
			c-1.3,0.5-1.6,0.6-3,0.8c-0.6,0.7,0.6,1.2,0.6,1.7c-0.9,0.5-1.4,0.6-1.9,0.5c1.2,0.2,0.2,1.3,2.7,0.8c-1,0.2-0.5,0.4-0.9,0.8
			c0.5-0.2,1.1-0.3,1-0.3c1.1,0,2.2,0.4,1.5,1.1l-0.7,0.1c0,1,4,0.1,2.7,1.6c-0.4,0.3-1.9,0.5-1.8,0.8c0.9-0.1,2.6-0.8,2.3-0.1
			l-1.5,0.5l1.6-0.2c1.2-0.6,0.6-0.9,2.1-1.1c-1.2,0.9,1.5-0.1,0.1,0.9c-0.2-0.1-1.4,0.2-2,0.3c-1.4,1.6,2,1,0.5,2.7
			c1.4,0.1,1.9,0.7,3.1,0.7c-1.5,0.5-2.8,0.9-4.1,1.1c0,0.5,3.4-0.4,1.4,0.6c2.1-0.5,1.8,0.8,4.7-0.1c-0.6,0.2,0.2,0.5-1.6,0.6
			c1.2,0.3-2.2,1.7-2.1,1.9c0.1,0.1,1.8-0.8,1.9-0.5c-0.1,0.1-0.4,0.2-0.5,0.3l0.7-0.1c-0.6,0.4-1.5,0.3-2.2,0.6
			c-0.4,0.7,2,0.3,2.4,0.8l-0.5,0.1l0.1,0.6l-0.2,0l1.2,0.1l-0.8,0.2c0.3,0,0.7-0.1,0.9,0l-0.9,0.3c1.5-0.3,2.5,0,2.6,0.3l-0.4,0.2
			l2.1,0c-0.9,0.7-2.4,0.3-1.4,0.7l-1.9,0.4c0.9,0.3-0.1,0.7,0.7,0.8c0.9-0.5,0.7-0.7,1.6-0.8c-2,1.1,0.8,0.4,1.8,0.5
			c-0.1-0.2-0.1-0.3-1.3-0.1c0-0.2,1-0.4,1-0.6l-1.2,0.1l1.3-0.5l-1.2-0.2c1.5-0.5,0-0.5,1.7-0.9c-0.8-0.1,0.2-0.7-1.4-0.5
			c0.8-0.5,1.2,0,1.3-0.3c-1.7-1-2-2.5-2-4.1l0.7-0.1c-0.7,0.1-1.3,0.1-1.9,0.2c1.1-0.6,2.3-2.1-0.1-1.7c0.1-0.1,0.5-0.1,0.7-0.2
			c-0.4-0.4,0.8-1.8,0.3-2.4c-2.5,0.5,1.1-1.5-2.2-0.7l0.7-0.1c-0.8,0.5-2.4,0.4-3.2,0.6c2-0.9,1.6-0.6,3.5-1.5l-0.6,0.5l1.7-0.7
			c-4.8,0.7,1.5-2.3-2-1.7c0.2,0,0.5-0.1,0.6-0.2c0.9-0.7-1.5-0.2-2.1-0.2c0.9-0.3,1.5-0.3,2.2-0.4c0.4-0.9-2.3-1.1-1.2-2.3
			c-1.3,0.2-1.5,0.6-2.5,0.7c0.2-0.3,1.1-0.8,1.8-0.7c1.9-1.3-2.2-1.5-0.5-3.1c-1.5,0-1.9,0.5-3.1,0c0.9-0.1,2.8-1.2,3.1-0.8
			l0.9-0.3c-0.1-0.8-0.1-1.9-2.9-1.4c1.9-0.7,0.3-0.3,1.2-0.9c-0.3,0-0.3,0.1-0.4,0.2c-1.7,0.3-0.1-0.4-0.4-0.5l0.4,0l-1.4-0.1
			c0.2-0.2,0.5-0.4,1.1-0.7l-1.3,0.5c-0.1-0.3,1.6-0.7,1.2-1l-1,0.4c0.5-0.4-1-0.3,0.4-0.9c0.3-0.1,0.2,0,0.3,0
			c1.9-1.1-1-0.7-0.2-1.4l-2.1,0.9c-0.8-0.2,0.3-0.4,1.1-0.7c-0.1-0.3,0.6-0.6,0.6-1c-0.6,0-0.8,0.2-1.5,0.3l0.4-0.6l1.3-0.2
			c-3.4,0.5-0.2-1.6-3.2-0.9c0.5-0.4,1.4-0.3,1.7-0.5c1.1-1.2-2.7-0.8-1.3-1.9c1.2-1.5-0.7-2-0.1-3.4l-0.6,0.2l0.2-0.9
			c-1.4,0.3-1-0.4-2.6-0.2c0.5-0.1,1.1-0.5,1.5-0.5c-0.3-0.2-1.1-0.4-0.4-0.8l0.5-0.1c0.1-0.8-0.3-1.8-1.5-1.8
			c-0.2-0.2,0.8-0.6,1.5-0.9c-0.1-0.4-0.8-0.5-1.8-0.5c0.2-0.2,0.4-0.4,0.9-0.6l-1.5,0.4c0.1-0.2,1.1-0.5,1.4-0.7
			c-1.9,0-0.7-1.3-1-1.7l-0.7,0.3c-0.6,0,0.2-0.7,1-0.7c0.5-1.2-2.7-0.5-2.8-1.8c2.5-1.1-1.2-0.8,1.6-2c-0.9-0.2,0.1-1-1.7-0.7
			c0.3-0.1,0.4-0.2,0.5-0.1c1-0.6-0.1-0.9-1-1.2l0.8-0.3c-1.9,0.5-1.7-0.5-3.7,0c0.4-0.2,0.8-0.2,1.2-0.3c1.6-0.9-1-0.1-0.8-0.6
			c0.5-0.1,1-0.4,1.3-0.5c1.6-1.9-2.5-2.2-1.7-4.1c-0.1-0.4-1.9,0.9-2,0.3c0.9-0.5,2-0.5,2.3-0.9c-1.3,0.2-1.1,0-1.1-0.3
			c0.6-0.2,1-0.4,1.5-0.3c0.7-0.5-1.8-0.2-0.4-1.2c-0.6,0.2-0.9,0.3-1.3,0.3c-1.9,0.1,1.1-1.9,0.2-1.6c0,0-0.3-0.1-0.5,0.1
			c0-0.2,0.1-0.6,1-0.9c-0.5,0.1-1.4,0.3-1.5,0.2l1.1-0.3c-0.3,0-1,0.2-1.2,0.1l-0.6,0.4c0.8-0.6-1.5-0.2,0.5-1l0.1,0.1l0.7-0.8
			c-0.9,0.1-1.8,0.3-1.6-0.1c2.1-0.9,0.2-0.9,0.2-1.4l0.7-0.3c-1.2,0.1-1-0.8-1.3-0.5c-0.1-0.3,0.2-0.8,1-1c-0.5-0.1-0.7-0.5-2-0.2
			l1.6-1.1c-2.7,0.7,0.6-1.3-2.2-0.2c0.3-0.4,1-0.6,1.4-1c-1.5,0.2-1.4-0.3-1.4-0.7l0.3-0.1c0.1-0.5-1.5-0.3-1.9-0.8l2.1-0.9
			c-0.4-0.2-2.1,0.4-1.7,0c0.3-0.2,0.4-0.2,0.6-0.2c-0.5-0.1-0.1-0.6,0.3-1c-1.7,0.2-1.3-0.3-3.1,0c1.7-1,1,0.1,2.7-0.8
			c0.8-0.9-0.5-1.1-1.7-1.3c0.4-0.2,0.7-0.3,1.2-0.4c0,0-5.6,0.8-7.5,1.8c-1.5,0.4-2.4,0.6-3.3,1.5c0.9-0.2,2.1-0.1,0.6,0.6l1.5-0.5
			c1,0.4-3,1.2-2.6,2.1l0.4-0.4c0.2,0.1,1.2-0.1,0.7,0.2c-0.4,0.2-0.6,0.2-1,0.2l2.3-0.1c-0.8,0.4-1.3,0.5-2,0.6
			c0.3,0.6,2.6-1.2,2.4-0.2c-0.6,0.4-0.9,0.3-1.5,0.4c-1.1,0.8,0.2,0.6,1.1,0.7c-1.3,0.5-1.3,0.2-2,0.8c0.7-0.3,1.8-0.8,2-0.6
			c-1.4,0.4-0.6,0.5-0.9,0.8c0.4-0.2,1.1-0.4,1.3-0.4c0.3,0-0.2,0.3-0.1,0.5l1.2-0.8c1.4-0.1-0.4,0.9-0.8,1.4
			c-0.3,0.1-0.4,0.1-0.5,0.1c-0.4,0.5-1.3,1.3,0,1.2l-0.2,0c1.6,0.2,2.1-1.1,3.7-0.7c-0.2,0.4-4.4,1.5-2.5,1.6
			c1-0.8,2.9-0.6,3.6-0.4l-2.7,0.6c0,0.2,0.9,0.2,0.6,0.3l0.6-0.2c2.2-0.9-0.1,0.6,1.3,0.4c-3.1,0.8-2.5,0.6-5.5,1.6
			c1.7-0.4,3.3-0.6,3.2,0l-2.4,0.5c-0.2,0.8,3.4,0.3,5.6,0.1c-1.7,0.5-2.3,1-3.8,1.3l0.6,0.5l-1.9,0.5c2-0.5,0.8,0.3,3.3-0.7
			c-0.4,0.1-0.6,0.2-0.6,0c0.7-0.3,2.3-0.7,2.3-0.4c-0.5,0.4-1,0.2-1.7,0.6c1.1-0.2-0.5,0.5,0.3,0.4l1-0.6c1.5-0.4,0.2,0.3,1,0.3
			c-0.7,0-1.5,0.4-2.3,0.8l0.2-0.1c0.2,0.1,1.2-0.1,0.5,0.4l-2,0.6l1.5-0.3c-0.2,0.2-0.9,0.5-1.3,0.5c-0.9,1.2,4.2-1.6,2.8,0
			c-0.7,0.3-1.3,0.4-1-0.1c-1.2,0.4-1.9,0.7-2.2,1.2c-0.1,0-0.1,0.1-0.2,0.1C367.7,379.6,367.9,380.2,369.4,380z"/>
		<path fill="#FFC235" d="M367.6,379.1c-0.1-0.3-0.2-0.5-0.5-0.5C366.7,378.8,366.3,379.5,367.6,379.1z"/>
		<path fill="#FFC235" d="M385,416.6c-0.1,0-0.1,0-0.2,0L385,416.6z"/>
		<path fill="#FFC235" d="M386.4,418.4c0.2-0.1,0.3-0.2,0.4-0.3C386.4,418.3,386.1,418.4,386.4,418.4z"/>
		<path fill="#FFC235" d="M376.8,397.5L376.8,397.5L376.8,397.5z"/>
		<path fill="#FFC235" d="M380.8,409.4c0.7,0,1.3-0.2,1.8-0.3C382.4,409,381.9,409.1,380.8,409.4z"/>
		<path fill="#FFC235" d="M380.1,405.2c-0.1,0-0.2,0-0.3,0C379.9,405.2,380,405.2,380.1,405.2z"/>
		<path fill="#FFC235" d="M375.5,397.2c0.7-0.1,0.8,0.2,1.2,0.3C376.3,397.5,376.8,396.9,375.5,397.2z"/>
		<polygon fill="#FFC235" points="389.5,420.2 388.4,420.4 389.2,420.3 		"/>
		<path fill="#FFC235" d="M388.1,418.5c0.2-0.2-0.6-0.3-1,0C387.6,418.4,387.8,418.5,388.1,418.5z"/>
		<polygon fill="#FFC235" points="386.2,410.7 385.1,411 386,410.9 		"/>
	</g>
	<g>
		<polygon fill="#FFC235" points="435.6,413.4 436.5,412.9 435.3,413.3 		"/>
		<path fill="#FFC235" d="M435.6,410.9c-1.1,0.3-2,0.3-3.9,1.3l1.9-0.6c-1.5,0.8-1.3,0.9-0.7,0.9l-0.2-0.2c0.2,0,1.1-0.5,1.4-0.6
			c-0.6,0.7,1.5-0.2,0,0.9l-0.2,0.1l1.1-0.3c-0.2,0.2-0.9,0.5-1.2,0.6c0.9-0.2,1.8-0.4,1.9-0.1c2.6-1.6-2.4,0.4,0.1-1.1l0.2-0.1
			C434.9,412,436.5,410.9,435.6,410.9z"/>
		<path fill="#FFC235" d="M433.9,413.1L433.9,413.1C433.7,413.2,433.8,413.1,433.9,413.1z"/>
		<path fill="#FFC235" d="M432.1,400.1l-0.4,0.2C431.8,400.2,432,400.2,432.1,400.1z"/>
		<path fill="#FFC235" d="M428.3,406C428.3,406,428.3,406,428.3,406C427.7,406.2,427.8,406.2,428.3,406z"/>
		<path fill="#FFC235" d="M423.5,381.4l0.6-0.3C423.5,381.4,423.4,381.4,423.5,381.4z"/>
		<path fill="#FFC235" d="M422.3,376.5L422.3,376.5L422.3,376.5z"/>
		<path fill="#FFC235" d="M414.1,381.5l-0.6,0.2C413.9,381.6,414.1,381.5,414.1,381.5z"/>
		<path fill="#FFC235" d="M412.4,380.3c0.1-0.1,0.2-0.2,0.2-0.2C412.3,380.2,412.3,380.3,412.4,380.3z"/>
		<path fill="#FFC235" d="M422.6,376.4c-0.1,0-0.2,0-0.3,0C422.4,376.5,422.5,376.5,422.6,376.4z"/>
		<path fill="#FFC235" d="M413.9,384.3l-1.5,0.6C412.9,384.7,413.4,384.5,413.9,384.3z"/>
		<path fill="#FFC235" d="M411.1,380.2c0.3-0.1,0.4-0.2,0.5-0.3C411.3,380.1,411.1,380.2,411.1,380.2z"/>
		<path fill="#FFC235" d="M435.3,410.7c0,0,0.1,0.1,0.3,0C435.7,410.6,435.6,410.6,435.3,410.7z"/>
		<path fill="#FFC235" d="M416.1,393.8c-0.2,0.1-0.4,0.1-0.6,0.2C415.6,394,415.8,393.9,416.1,393.8z"/>
		<path fill="#FFC235" d="M414.2,388.4L414.2,388.4c-0.1,0-0.2,0.1-0.3,0.1L414.2,388.4z"/>
		<path fill="#FFC235" d="M415,389.9c-0.1,0-0.2,0.1-0.3,0.1C414.9,389.9,415,389.9,415,389.9z"/>
		<path fill="#FFC235" d="M412.2,387.8c-0.1,0-0.3,0.1-0.5,0.1L412.2,387.8z"/>
		<path fill="#FFC235" d="M413.3,386.1c-0.5,0.2-1,0.3-1.6,0.5c-0.6,0.5,1.3,0,0.1,0.7l0.7-0.4c1.2-0.2,1.5,0.1,0.2,0.7l-0.5,0.1
			c1.3-0.2-0.9,0.8,0.2,0.5c0.6-0.3,1-0.4,1.6-0.7l1.4,0l-2,0.7l0.8,0c0.8-0.3-0.5,0.5,1.4-0.1c-0.7,0.4-1.6,0.5-2.4,0.7
			c0.6-0.1-0.2,0.2,1,0l-1.7,0.8l1.4-0.1c-0.2,0-0.3,0.1-0.5,0.1c1.6-0.4-0.7,0.7,1.9,0c-0.1,0-0.2,0.1-0.3,0.1
			c1.4-0.4,0.5,0.2,0.3,0.5c0.4,0.1,1.7-0.5,2.5-0.8c-0.2,0.7-0.2,0.5,2.1,0.1c-2.1,1.1-3.7,1-5.1,1.9c1.1-0.3,2-0.4,2.6-0.3
			c-0.7,0.5-1.1,1.1-2.5,1.9l1.4-0.6l0.9,0l-2.2,0.6c0.5-0.1,1.5-0.3,2.3-0.5c1.4-0.1-3.1,1.4-0.8,0.8c-0.2,0.1-0.3,0.1-0.4,0.2
			c1.1-0.3,0.8,0,1.4,0.2l-1.9,0.6l0.3-0.3c-1.8,0.8,0.4,0.2,0.4,0.4c0.7-0.1,2.2-0.7,2.8-0.8c-0.1,0.1,0.5,0,0,0.2
			c-0.5,0.4-2.2,0.8-3,1.1c1.9-0.6,1.7-0.5,2.6-0.5c-0.9,0.4-1.3,0.5-1.5,0.5c0.3,0,0.7-0.1,1.5-0.4l-1,0.5c-1.4,0.9,3.6-1,3.2-0.4
			c-1,0.3,0.4,0.2-0.7,0.8c-0.4,0-2.7,1.1-3.8,1.5c-0.5,0.6,2.2-0.7,2.8-0.6l-2.3,0.8c1.1-0.1,1.3-0.4,2.1-0.5
			c-0.7,0.2-0.6,0.4-1.4,0.5c-0.1,0.4,0.1,0.3-0.1,0.6l2.2-0.9c0.3,0-0.7,0.4-1.1,0.6c-0.1,0,0-0.1-0.3,0c-1.9,0.9,1.2-0.2-0.5,0.6
			c0.7-0.3,1.6-0.7,1.8-0.7c-1.4,0.5-1.2,0.7-1.7,0.9c0.9-0.4,0.5,0.1,2-0.5c-0.9,0.5-1.1,0.4-1.8,0.7c1.8-0.6,0.5,0.4,1.5,0.1
			c-0.1,0.1-0.2,0.1-0.3,0.1c1.1-0.3,1.5-0.1,3.1-0.5l-1.3,0.4c-0.4,0.5,2.7-0.9,2.8-0.7c-1.8,0.7,0.3,0.3-1.7,1
			c1.1-0.3,1.6-0.3,3.2-0.9c-0.9,0.6-2.6,0.8-3,1.2l1-0.2l-0.9,0.4c0.7-0.3,0.9-0.1,1.4-0.4c-1.1,0.5-1.9,0.9-2.8,1.3
			c0.4,0-0.6,0.6,0.5,0.3l-0.6,0.2c2.2-0.8,0.6,0.2,2.9-0.7l-1.2,0.6c0.3,0.1,2.5-0.9,3.1-1c0.1,0,0.4,0,0.3,0.2
			c-1.6,0.4-1.7,0.9-2.4,1.3c0,0.1,0.3,0.3,1.5-0.1c-1.2,0.4-2.1,0.8-2.3,0.7c-2.1,1,0.7,0.1,0.5,0.5l-1,0.4
			c0.8,0.1,2.6-0.7,4.4-1.3c-1.2,0.6-1.6,0.7-2.9,1.1c-0.6,0.6,0.4,0.6,0.4,0.9c-0.8,0.5-1.4,0.6-1.8,0.7c1.1-0.1,0.1,0.7,2.4-0.1
			c-0.9,0.3-0.5,0.4-0.9,0.6c0.5-0.2,1-0.4,1-0.4c1-0.2,2-0.2,1.3,0.3l-0.7,0.2c-0.1,0.6,3.7-0.9,2.3,0.3c-0.4,0.3-1.8,0.7-1.7,0.9
			c0.8-0.3,2.5-1.1,2.2-0.6l-1.4,0.6l1.5-0.5c1.2-0.6,0.6-0.7,2-1.1c-1.2,0.8,1.4-0.4,0,0.5c-0.2,0-1.3,0.4-1.9,0.7
			c-1.4,1.3,1.8,0.1,0.2,1.4c1.3-0.3,1.6-0.1,2.8-0.4c-1.4,0.7-2.7,1.2-3.9,1.7c-0.1,0.3,3.2-1.1,1.2,0c2-0.8,1.5,0,4.3-1.2
			c-0.6,0.3,0.1,0.2-1.5,0.7c1-0.1-2.2,1.5-2.1,1.6c0.1,0,1.7-0.9,1.8-0.8c-0.1,0.1-0.4,0.2-0.5,0.3l0.7-0.2
			c-0.6,0.4-1.4,0.6-2.1,0.9c-0.4,0.5,1.8-0.4,2.1-0.2l-0.5,0.2l0.1,0.3l-0.2,0.1l1.1-0.2l-0.7,0.3c0.2,0,0.7-0.2,0.8-0.2l-0.9,0.4
			c1.4-0.6,2.3-0.7,2.3-0.5l-0.4,0.2l1.9-0.5c-0.8,0.6-2.2,0.8-1.3,0.8l-1.8,0.8c0.8-0.1-0.1,0.4,0.6,0.3c0.9-0.5,0.7-0.6,1.5-0.9
			c-1.9,1.2,0.7,0,1.6-0.2c-0.1-0.1-0.1-0.1-1.2,0.3c0-0.1,0.9-0.5,1-0.6l-1.1,0.4l1.2-0.6l-1.1,0.2c1.4-0.7,0.1-0.3,1.6-0.9
			c-0.7,0.1,0.3-0.5-1.2,0.1c0.8-0.5,1.1-0.3,1.2-0.5c-1.5-0.1-1.6-0.8-1.5-1.7l0.7-0.2c-0.7,0.2-1.2,0.4-1.7,0.6
			c1.1-0.7,2.3-1.8,0.1-0.9c0.1-0.1,0.4-0.2,0.6-0.3c-0.4-0.1,0.9-1.2,0.6-1.4c-2.3,0.9,1.2-1.1-2,0.2l0.7-0.2
			c-0.8,0.5-2.2,0.8-3,1.1c2-1,1.5-0.7,3.4-1.7l-0.6,0.5l1.7-0.8c-4.5,1.6,1.6-1.6-1.7-0.5c0.2-0.1,0.4-0.2,0.6-0.2
			c0.9-0.6-1.3,0.3-2,0.4c0.8-0.4,1.4-0.5,2.1-0.8c0.5-0.6-2-0.1-0.8-1c-1.2,0.4-1.5,0.7-2.4,1c0.3-0.2,1.1-0.7,1.8-0.9
			c2-1.2-1.8-0.3-0.1-1.6c-1.4,0.3-1.9,0.7-2.9,0.7c0.8-0.3,2.7-1.3,2.9-1.1l0.9-0.4c0-0.4,0.1-1-2.5-0.1c1.8-0.8,0.3-0.2,1.3-0.8
			c-0.2,0-0.3,0.1-0.4,0.2c-1.6,0.6,0-0.2-0.3-0.2l0.3-0.1l-1.3,0.2c0.2-0.1,0.5-0.4,1.1-0.6l-1.3,0.6c-0.1-0.1,1.6-0.8,1.2-0.8
			l-1,0.4c0.6-0.4-0.9,0,0.5-0.6c0.3-0.1,0.2-0.1,0.2,0c1.9-1-0.8-0.2,0-0.8l-2.1,0.9c-0.8,0.1,0.4-0.3,1.1-0.6
			c-0.1-0.1,0.6-0.4,0.7-0.7c-0.6,0.1-0.8,0.3-1.4,0.5l0.4-0.4l1.2-0.4c-3.2,1,0-0.8-2.9,0.1c0.6-0.4,1.3-0.4,1.6-0.6
			c1.2-0.9-2.3,0.1-0.9-0.8c1.3-1.1-0.4-1,0.4-1.9l-0.6,0.2l0.3-0.5c-1.3,0.4-0.8-0.1-2.4,0.4c0.5-0.2,1.1-0.5,1.5-0.6
			c-0.2-0.1-0.9,0-0.2-0.4l0.5-0.1c0.2-0.5,0-0.9-1.1-0.7c-0.2-0.1,0.8-0.5,1.5-0.8c0-0.2-0.7-0.1-1.6,0.1c0.2-0.1,0.4-0.3,1-0.5
			l-1.4,0.5c0.2-0.2,1.1-0.5,1.5-0.7c-1.8,0.3-0.5-0.6-0.6-0.8l-0.7,0.3c-0.6,0.1,0.3-0.4,1.1-0.6c0.7-0.7-2.5,0.2-2.3-0.5
			c2.5-1-1-0.2,1.9-1.4c-0.8,0,0.3-0.5-1.5-0.1c0.3-0.1,0.4-0.2,0.5-0.2c1-0.5,0.1-0.5-0.7-0.5l0.9-0.3c-1.9,0.6-1.5,0-3.4,0.5
			c0.4-0.2,0.8-0.2,1.2-0.3c1.7-0.8-0.9,0.1-0.6-0.2c0.5-0.2,1-0.4,1.3-0.5c1.8-1.3-1.9-0.8-0.8-2c0-0.2-2,0.8-1.9,0.4
			c0.9-0.4,2-0.5,2.3-0.8c-1.2,0.3-1,0.2-0.9,0c0.6-0.2,1-0.4,1.5-0.4c0.7-0.4-1.6,0.1-0.1-0.6c-0.6,0.2-0.9,0.3-1.3,0.4
			c-1.8,0.3,1.4-1.2,0.5-0.9c0,0-0.3,0-0.5,0.1c0-0.1,0.2-0.3,1.2-0.6c-0.5,0.1-1.3,0.3-1.5,0.3l1.1-0.3c-0.2,0-1,0.2-1.1,0.2
			l-0.6,0.3c0.9-0.4-1.4,0.1,0.7-0.6l0.1,0l0.9-0.5c-0.9,0.2-1.7,0.4-1.5,0.1c2.1-0.8,0.3-0.5,0.5-0.8l0.8-0.2
			c-1.1,0.2-0.8-0.3-1.1-0.1c-0.1-0.1,0.4-0.5,1.1-0.6c-0.5,0-0.5-0.2-1.8,0.1l1.7-0.8c-2.7,0.7,0.8-0.8-2,0.1
			c0.4-0.3,1-0.4,1.5-0.7c-1.5,0.3-1.3,0-1.1-0.2l0.3-0.1c0.2-0.3-1.3,0-1.6-0.2l2.2-0.7c-0.4,0-2,0.4-1.6,0.2
			c0.3-0.1,0.4-0.1,0.6-0.1c-0.5,0,0-0.3,0.5-0.6c-1.6,0.3-1.1,0-2.9,0.3c1.9-0.7,0.9,0,2.7-0.7c0.9-0.6-0.2-0.5-1.3-0.6
			c0.4-0.2,0.8-0.2,1.2-0.3c0,0-5.5,1-7.5,1.7c-1.5,0.3-2.3,0.5-3.5,1.1c0.9-0.2,2-0.2,0.4,0.3l1.5-0.4c0.8,0.1-3.1,1-2.9,1.4
			l0.5-0.2c0.1,0.1,1.1-0.2,0.6,0.1c-0.4,0.2-0.6,0.2-1,0.2l2.2-0.3c-0.9,0.3-1.3,0.4-2,0.5c0.2,0.3,2.7-0.9,2.3-0.3
			c-0.6,0.3-0.9,0.3-1.5,0.4c-1.2,0.6,0,0.3,0.9,0.3c-1.3,0.4-1.2,0.2-2,0.7c0.7-0.3,1.9-0.6,2-0.6c-1.4,0.4-0.7,0.3-1,0.5
			c0.5-0.2,1.1-0.4,1.4-0.4c0.2,0-0.3,0.2-0.2,0.3l1.3-0.6c1.3-0.2-0.6,0.5-1.1,0.9c-0.3,0.1-0.4,0.1-0.5,0.1
			c-0.5,0.3-1.5,0.8-0.3,0.7l-0.2,0c1.5,0,2.2-0.8,3.6-0.8c-0.2,0.2-4.4,1.3-2.7,1.2c1.1-0.5,2.9-0.7,3.4-0.6l-2.7,0.6
			c0,0.1,0.8,0,0.5,0.1l0.6-0.2c2.2-0.7-0.2,0.4,1.2,0.1c-3.1,0.8-2.5,0.6-5.5,1.5c1.7-0.4,3.3-0.7,3-0.4l-2.4,0.5
			c-0.4,0.5,3.2-0.2,5.2-0.6c-1.7,0.5-2.3,0.8-3.8,1.2l0.5,0.2l-1.9,0.5c2-0.5,0.7,0.1,3.2-0.8c-0.3,0.1-0.6,0.2-0.6,0.1
			c0.8-0.2,2.3-0.7,2.3-0.5c-0.6,0.3-1,0.3-1.7,0.5c1.1-0.2-0.6,0.3,0.2,0.2l1-0.5c1.5-0.4,0.1,0.2,0.9,0c-0.7,0.1-1.5,0.4-2.3,0.7
			l0.2-0.1c0.1,0.1,1.2-0.2,0.4,0.2l-2,0.6l1.5-0.4c-0.2,0.1-0.9,0.4-1.3,0.4c-1.1,0.8,4.3-1.4,2.6-0.3c-0.8,0.2-1.3,0.4-0.9,0.1
			c-1.2,0.4-1.9,0.7-2.3,0.9c-0.1,0-0.2,0.1-0.2,0.1C411.9,386,411.9,386.4,413.3,386.1z"/>
		<path fill="#FFC235" d="M411.8,385.8c0-0.1-0.1-0.3-0.4-0.2C411.1,385.7,410.6,386.2,411.8,385.8z"/>
		<path fill="#FFC235" d="M422.2,404.6c-0.1,0-0.1,0-0.2,0C422.1,404.7,422.2,404.7,422.2,404.6z"/>
		<path fill="#FFC235" d="M423.3,405.4c0.2-0.1,0.3-0.2,0.4-0.2C423.3,405.3,423,405.5,423.3,405.4z"/>
		<path fill="#FFC235" d="M417.2,395.1C417.2,395.1,417.2,395.1,417.2,395.1C417.2,395.1,417.2,395.1,417.2,395.1z"/>
		<path fill="#FFC235" d="M419.3,401.3c0.7-0.2,1.2-0.4,1.7-0.6C420.8,400.8,420.3,400.9,419.3,401.3z"/>
		<path fill="#FFC235" d="M419.1,399c-0.1,0-0.2,0.1-0.3,0.1C419,399.1,419,399.1,419.1,399z"/>
		<path fill="#FFC235" d="M416.1,395.2c0.7-0.2,0.7,0,1.1-0.1C416.8,395.2,417.4,394.8,416.1,395.2z"/>
		<polygon fill="#FFC235" points="426,405.7 425,406.1 425.7,405.9 		"/>
		<path fill="#FFC235" d="M424.9,405.1c0.2-0.1-0.5,0-1,0.2C424.4,405.1,424.7,405.1,424.9,405.1z"/>
		<polygon fill="#FFC235" points="424.1,401 423,401.4 423.9,401.2 		"/>
	</g>
</g>
<g>
</g>
<g>
</g>
<g>
</g>
<g>
</g>
<g>
</g>
<g>
</g>
<g>
</g>
<g>
</g>
<g>
</g>
<g>
</g>
<g>
</g>
<g>
</g>
<g>
</g>
<g>
</g>
<g>
</g>
</svg>
