<svg xmlns="http://www.w3.org/2000/svg" viewBox="0 0 230 230"><title>usd-bg</title><path d="M144.19,195.92a29.55,29.55,0,0,1-18.62-6.59L123.72,191a12.85,12.85,0,0,1-17,0L103,187.69l-3.19,2.79a13.66,13.66,0,0,1-18,0l-3.18-2.79-3.19,2.8a13.66,13.66,0,0,1-18,0L53.52,187a13.48,13.48,0,0,1-4.51.78,13.83,13.83,0,0,1-10.85-5.34,13.56,13.56,0,0,1-2.4-11.77c2-7.88,4.78-15.42,7.45-22.71,3.78-10.34,7.35-20.12,8.74-30.24q.27-2,.53-4c1.73-13.13,3.7-28,12-40.81,11.11-17.09,30.43-27.71,50.42-27.71S154.24,55.89,165.34,73c6.72,10.35,8.32,22,9.73,32.23a129.64,129.64,0,0,0,2.28,13.29c2,8,4.89,15.78,8,24,2.2,5.86,4.48,11.92,6.41,18.14,1,3.15,1.86,6.53,2.62,10a13.58,13.58,0,0,1-2.69,11.46A13.86,13.86,0,0,1,181,187.27h0a13.49,13.49,0,0,1-3.68-.51L173,190.49a13.66,13.66,0,0,1-15,2A29.38,29.38,0,0,1,144.19,195.92Z" style="fill:#f6bcb1"/></svg>