<?xml version="1.0" encoding="utf-8"?>
<!-- Generator: Adobe Illustrator 18.0.0, SVG Export Plug-In . SVG Version: 6.00 Build 0)  -->
<!DOCTYPE svg PUBLIC "-//W3C//DTD SVG 1.1//EN" "http://www.w3.org/Graphics/SVG/1.1/DTD/svg11.dtd">
<svg version="1.1" id="Layer_1" xmlns="http://www.w3.org/2000/svg" xmlns:xlink="http://www.w3.org/1999/xlink" x="0px" y="0px"
	 viewBox="0 0 146.1 69.9" enable-background="new 0 0 146.1 69.9" xml:space="preserve">
<g>
	<g>
		<g>
			<g>
				<g>
					<g>
						<path fill="#FFC235" d="M146,69c0.2-0.4-0.1-0.1-0.4,0L146,69z"/>
						<path fill="#FFC235" d="M145.6,68.9l-0.3,0C145.4,68.9,145.5,68.9,145.6,68.9z"/>
						<path fill="#FFC235" d="M142.7,68.7c0.7-0.3,1.4,0.1,1.8-0.3C143.9,68.2,142.9,68.3,142.7,68.7z"/>
						<polygon fill="#FFC235" points="143.7,69 143.8,68.8 143.2,69.1 						"/>
						<polygon fill="#FFC235" points="144.1,69.2 144,69.1 143.1,69.4 						"/>
						<path fill="#FFC235" d="M140.5,68.3l0.7,0c0.6,0.4-0.5,0.4-0.1,0.6c0.8,0.1,0.4-0.6,1.4-0.5c-0.1-0.3-1.6-0.1-1.4-0.6
							C140.2,67.7,141,68.2,140.5,68.3z"/>
						<path fill="#FFC235" d="M118.3,38.9C118.3,38.9,118.3,38.9,118.3,38.9C118.3,38.9,118.3,38.9,118.3,38.9z"/>
						<path fill="#FFC235" d="M114.7,37.2c-0.2-0.1-0.3-0.1-0.5-0.1c0,0.1,0.1,0.1,0.2,0.1L114.7,37.2z"/>
						<path fill="#FFC235" d="M118.5,46.2c0,0.2-0.1,0.3-0.1,0.5C118.5,46.5,118.5,46.4,118.5,46.2z"/>
						<path fill="#FFC235" d="M78,1.9c0-0.1,0.1-0.1,0.1-0.2c0,0,0,0,0,0L78,1.9L78,1.9z"/>
						<path fill="#FFC235" d="M101.6,34.7c-0.2-0.1-0.3-0.1-0.5-0.2C101.4,34.7,101.6,34.7,101.6,34.7z"/>
						<path fill="#FFC235" d="M119.1,50.3c0-0.1,0-0.1,0-0.2C119,50.2,119,50.3,119.1,50.3L119.1,50.3
							C119.1,50.3,119.1,50.3,119.1,50.3z"/>
						<path fill="#FFC235" d="M117.1,38C117.1,37.9,117.1,37.9,117.1,38C117.1,38,117.1,38,117.1,38z"/>
						<path fill="#FFC235" d="M131.4,64.5c-0.1-0.1-0.3-0.2-0.4-0.2C131,64.4,131.2,64.5,131.4,64.5z"/>
						<path fill="#FFC235" d="M128.3,62.3L128.3,62.3C128.4,62.2,128.3,62.2,128.3,62.3z"/>
						<path fill="#FFC235" d="M126.6,60.6L126.6,60.6C126.7,60.6,126.6,60.5,126.6,60.6z"/>
						<path fill="#FFC235" d="M131,64.3c-0.2-0.3,0.1-0.9-0.6-0.6l0,0.1c-0.1-0.2-0.5-0.3-0.8-0.4c0,0.1,0,0.1,0,0.2
							c0.1,0.1,0.2,0.2,0.5,0.4C130.3,64.4,130.6,64.2,131,64.3z"/>
						<path fill="#FFC235" d="M118.4,39C118.3,39,118.3,39.1,118.4,39L118.4,39z"/>
						<path fill="#FFC235" d="M118.3,42.5c0-0.1,0-0.2,0.1-0.4C118.3,42.3,118.3,42.4,118.3,42.5z"/>
						<path fill="#FFC235" d="M120.4,55.8C120.3,55.8,120.3,55.8,120.4,55.8C120.3,55.8,120.3,55.8,120.4,55.8z"/>
						<path fill="#FFC235" d="M118.4,41.8l0,0.3C118.4,42.1,118.4,42,118.4,41.8z"/>
						<path fill="#FFC235" d="M119.3,51.9C119.3,51.9,119.3,51.8,119.3,51.9C119.3,51.8,119.3,51.9,119.3,51.9z"/>
						<path fill="#FFC235" d="M25.8,10.3c0.3,0,0.4,0.1,0.6,0.2c0.6-0.4-1.1-0.1-0.3-0.4c-0.2,0-0.4,0-0.6,0.1l0.3,0.4
							C26.4,10.5,25.6,10.5,25.8,10.3z"/>
						<path fill="#FFC235" d="M74,2.4l0.1,0C74,2.2,74,2.1,73.6,2.2c-0.3,0.4,0.4,0.6-0.1,1.1c0.1-0.1,0.3-0.1,0.5-0.1
							C73.7,3,73.8,2.7,74,2.4z"/>
						<path fill="#FFC235" d="M74,3.1C74,3.1,74,3.2,74,3.1c0.1,0,0.1,0.1,0.1,0.1c0.1,0,0.2,0,0.3,0C74.3,3.1,74.1,3.1,74,3.1z"/>
						<path fill="#FFC235" d="M34.2,10.5c0.1,0,0.2,0,0.3,0C34.3,10.5,34.2,10.5,34.2,10.5z"/>
						<path fill="#FFC235" d="M104.4,30.2c0.1,0,0.3,0,0.4,0C104.5,30.2,104.4,30.2,104.4,30.2z"/>
						<path fill="#FFC235" d="M79.7,4.2c0,0.1,0,0.3,0,0.4c0,0.1,0,0.1,0.1,0.2L79.7,4.2z"/>
						<path fill="#FFC235" d="M61.6,10.9c0.1-0.5-0.2,0.1-0.7-0.1l-0.3,0.4C61,11.2,61.3,11,61.6,10.9z"/>
						<path fill="#FFC235" d="M25.5,10.2C25.5,10.2,25.5,10.2,25.5,10.2C25.6,10.2,25.6,10.2,25.5,10.2L25.5,10.2z"/>
						<path fill="#FFC235" d="M49.7,14c-0.1,0-0.1,0-0.2,0C49.6,14,49.6,14,49.7,14z"/>
						<path fill="#FFC235" d="M76.7,2.4l1.7-0.6l-0.4,0C77.7,2.3,77.1,2,76.7,2.4z"/>
						<path fill="#FFC235" d="M68.1,9.2l0.2,0.2c1.3-1,3.3-0.8,4.2-2c2.1,0.3,0.9-1.2,2.8-0.9l-0.1-0.1l0.3-0.1c0.1,0,0.1,0,0.1,0
							l0.1,0l0.2,0l0.2,0c0.1,0,0.1,0,0.1,0.1l0,0.5l0,0.2l0.3,1.1c0.5,1.5,0.9,3,1.6,4.3c0.3,0.7,0.7,1.3,1,2
							c0.4,0.6,0.8,1.2,1.2,1.8l-0.2,0.1c2.2,4,5.2,7.6,8.6,10.5c3.4,2.9,7.2,5.4,11.3,7.4c0.8,0.2,0.6-0.4,1.3-0.3
							c0.3,0.1,0.9,0.4,0.8,0.6c-0.6-0.1-0.4,0.2-0.6,0.2c0.2,0.1,0.5,0.2,0.7,0.4c0.3,0.1,0.5,0.2,0.8,0.3c0.5,0.2,1.1,0.4,1.5,0.4
							l-0.6-0.5c0.4,0,0.9,0.3,1.2,0.4c-0.2,0.1,0.2,0.6-0.1,0.6c1,0,1.4,0.1,1.6,0.3c0.3,0.2,0.5,0.5,1.4,0.5
							c0.2-0.3,0.9-0.4,1.6-0.5c0.7-0.1,1.6-0.3,2.3-0.4l0.6,0.3c-0.9-0.1-0.1,0.5-1.2,0.3c0.9,0.3,1.8,0.2,2.7,0.4
							c-0.2-0.2-0.1-0.4,0.3-0.5c0.5,0.1,0.6,0.5,1.2,0.5l-0.6,0.2c0.4,0.3,0.8,0,1.2-0.1c0.1,0.3,1.1,0.4,0.8,0.7
							c0-0.1,0-0.2,0.1-0.2c0,0,0.1-0.1,0.1-0.1c0.1,0,0.1,0,0.3-0.2c-0.1-0.3,0.3-0.4,0.5-0.6l-0.5,0.1c0.5,0.2-0.2,0.1-0.3,0.5
							c-0.1-0.1,0-0.3,0.2-0.5c0.1-0.2,0.2-0.3-0.1-0.2c0.4-0.1,0.6-0.2,0.8-0.2c0.2,0,0.5-0.1,1.1-0.3c-0.6,0.1,0.4-0.3,0.3-0.5
							c0.8-0.1,0,0.2-0.1,0.5c0.1,0,0.2,0,0.2,0l0.1,0c0,0,0,0.1,0,0.1c0,0.1,0,0.1,0.1,0.1c-0.4,0.6-0.4,0.2-0.8,0.6
							c-0.1,0-0.1-0.1,0.1-0.3c0,0,0,0,0-0.1l-0.1,0l-0.1,0c-0.1,0-0.2,0-0.3,0.1c-0.2,0.1-0.4,0.2-0.7,0.6c-0.2,0-0.6,0.4-0.7,0.4
							c0.1,0.1-0.2,0.5,0.1,0.2l0.7-0.6c0.1,0,0.2-0.1,0.4-0.2c0.1-0.1,0.4-0.2,0.3-0.2c0,0,0,0,0,0.1c-0.2,0.1-0.6,0.5-0.6,0.5
							c0.1-0.1,0.1-0.1,0.3-0.2c0,0.2,0.4,0,0.4,0.4c0.3-0.4,0.5-0.6,1.1-1.3c0.5-0.2-0.1,0.3-0.1,0.6c-0.1,0,0-0.1-0.2,0.1
							c0,0,0.1,0.2,0.1,0.2c-0.2,0.4-0.4,0.4-0.5,0.4c-0.2,0-0.3,0-0.5,0.2c-0.5,0.3,0.1,0.4-0.2,0.7c0,0,0.1,0,0.1,0
							c0,0.1,0,0.1-0.1,0.1c0,0,0,0,0,0c0,0.1-0.1,0.5-0.1,0.7c0,0.3,0,0.5,0.2,0.6c-0.1,0-0.1,0.5,0,0.7c0.1,0.3,0.3,1.1-0.2,1.6
							c0,0,0,0,0,0c-0.1,0.7-0.3,1.3-0.5,1.1c0,0,0,0.3-0.1,0.6c0,0.3-0.1,0.6-0.1,0.6l-0.4-0.1c0.1,1.1,0.3,1,0.8,1.7
							c-0.2,0.8,0.1,2.1,0.4,2.6c0,0.1,0,0.2,0.1,0.4c0,0,0-0.1,0-0.2c0-0.1,0.1-0.2,0.1-0.2c0.1,0.8,0.3,0.7,0.4,1.2
							c0-0.1,0-0.1,0,0.2c0,0.1,0,0.2,0,0.3c0,0-0.1-0.1-0.1-0.3l-0.1,0.1c-0.3,0.7,0.5,0.9,0.5,1.6c0-0.1-0.1-0.2-0.1-0.2
							c0,0.4-0.4,1.1,0,1.2c0,0.1,0.1,0.2,0.2,0.3l0,0.3c0-0.1,0-0.2,0-0.3c0.2,0.1,0.4,0.3,0.3,0.3c0,0,0.1,0.3,0.1,0.5
							c0.1,0.2,0.2,0.5,0.2,0.5c0,0.2,0.2,0.4,0.3,0.6l-0.1,0.2c0.2,0.3,0.1,0.4,0,0.4c0,1.4,1.1,1.7,1.4,3.1
							c0.4,0.1,0.2-0.5,0.3-0.6c0.3,0.1,0.9,0.6,1.2,0.9c0,0.7,0.9,2.4,0.3,2.5c0.7,0.9,0-0.5,0.6-0.2l0.1,0.1
							c-0.2-0.3-0.3-0.7-0.2-1c0.2-0.2,0.9,0.5,1,0.7l-0.5,0.1c0.8,0.7,1.1,0.1,1.9,0.2c0.4,0.7-0.1,0.6-0.3,1c0,0,0.2,0.1,0.3,0.3
							c0.2,0.1,0.4,0.3,0.4,0.3l-0.2,0.2c0.5,0.3,0.8,0.2,1.3,0.8c-0.6-0.1,0.8,0.9-0.1,0.8c0.3,0.4,0.8-0.1,0.7,0.4
							c0.4-0.1-0.2-0.4-0.3-0.6c0.2-0.5,0.9,0.4,1.4,0.6c-0.1,0.2-0.5,0.1,0,0.5c0.2-0.1,0.6,0,0.8,0.4c0.2-0.3,0.6,0.3,0.9,0.5
							c-0.3-0.3-0.7-0.7-0.3-0.8c0.3,0,0.6,0.1,1.1,0.5l-0.3-0.4c0.7-0.1,0.7,0.7,1.5,1c-0.4,0-0.6-0.1-1,0c0.4,0,1.2,0.2,1.8,0.2
							l0.5,0.7c0.2-0.2,0.7,0.3,0.8,0c0.7,0.5-0.8,0.2-0.9,0.3c1,0.6,1-0.2,1.8,0.6l-0.4,0.2c0.3,0.1,1.1,0.2,1.1,0.3
							c0-0.1-0.2-0.1-0.4-0.2c0.4-0.6,1.7,0,1.7-0.7l-0.4-0.2c0.7,0.1,1.3-0.3,1.8,0c0.4,0.3-0.4,0.4-0.6,0.5
							c0.7,0.2,0.7-0.6,1.4-0.4c-0.4-0.2-0.3-0.4,0-0.5c-0.4-0.1-1.3-0.4-1.2-0.1l0.1,0.1c-0.1,0.2-0.3,0.2-0.5,0.2
							c-0.6-0.1-0.2-0.4-0.3-0.5c-1-0.3-0.2,0.6-1.2,0.4l-0.1-0.2c-0.5,0.1-1.2-0.2-1.4,0.2c-0.3-0.5-1.1-0.2-1.4-0.6
							c0.1-0.5,0.5-0.3,0.9,0c0.4,0.2,0.9,0.5,1.3,0.4c-0.4-0.3,0.4-0.3,0.7-0.5c0,0-0.4,0-0.8,0c-0.4,0-0.8-0.1-0.8-0.1
							c-0.1-0.2-0.3-0.8-0.7-0.5l0.1,0.1c-0.6-0.1-0.6,0.3-1.1,0c0-0.1,0.2-0.2,0.2-0.2c-0.4-0.3-0.5,0-0.8,0
							c-0.4-0.3,0.4-0.2,0.1-0.5c-0.7,0.1-0.8-0.5-1.2-0.7c-0.1,0.6-2.1-0.4-1.4,0.6c0,0-0.3-0.1-0.6-0.2c-0.3-0.1-0.6-0.2-0.6-0.2
							c-0.2-0.4,1.1-0.2,1.1-0.7c0,0,0.2,0.1,0.4,0.3c0.2,0.1,0.4,0.2,0.4,0.2c0.1-0.3-0.4-0.5-0.9-0.7c-0.5-0.2-1.1-0.5-1.1-1
							c-0.4-0.3-0.4-0.2-0.9-1l-0.3,0.6c-0.3-0.4-0.2-0.8-0.1-0.9c-0.2-0.2-0.4-0.3-0.6-0.5c0.1,0,0.2,0,0.4,0.1
							c0-0.5-0.2-0.5-0.4-0.4c-0.2,0-0.4-0.3-0.7-0.5l0.4,0c-0.2-0.1-0.4-0.2-0.5-0.1c-0.1-0.1-0.2-0.2-0.3-0.2
							c0,0.1-0.1,0.5,0.1,0.9c-0.6-1-1.3-1.6-1.5-2.7c0.2-0.1,0.6,0.1,0.5,0c-0.2-0.4-0.8-0.6-1-0.5c-0.1-0.1-0.1-0.1-0.2-0.2
							c0.1-0.2,0.1-0.3,0-0.5c0-0.1,0-0.2-0.1-0.3c-0.5,0.1-0.8-0.8-1-0.9c0.1,0.2,0.2,0.4,0.3,0.7c-0.5-0.2-1-0.3-0.9-0.7
							c0.6,0.5,0.1-0.9,0.7,0c0.2-0.9-0.6-0.1-0.8-1l0-0.6c0.3-0.1,0.5,0.7,0.6,0.5l-0.2-0.3c0.4,0.2,0.9,1.5,1.6,1.9
							c0,0-0.6-1.5-0.6-1.5c-1.4-1.6-1.7-4.2-2.8-5.7l0,0.1c0,0-0.1,0-0.2,0l0.1-0.1l-0.3-0.3c0.2-0.5,0.2-1.2,0.4-1.9
							c-0.2,0.4-0.2,0.4-0.4,0.5c-0.4,0-0.5-0.1-0.5-0.7c0.2,0,0.3,0.3,0.4-0.1c-0.1,0.2-0.3,0.1-0.3-0.2c0.1-0.4,0.1-0.9,0.4-0.9
							c0.1,0.2,0,0.3,0,0.4c0.1,0.1,0.2-0.6,0.4-0.2l-0.1-0.6c0.2-0.4,0.3,0.2,0.5,0.1c-0.2-1-0.8-1.5-0.8-2.4
							c0.1,0.1,0.7,0.1,0.5,0.1c0.2-0.7-0.4-1.5-0.4-2.4c0.1,0.1,0,0.4,0.1,0.7c0.1-0.6,0.3-1.1,0.4-1.6c0-0.1,0.1-0.2,0.1-0.4
							l0.2-0.6c0.1-0.4,0.3-0.8,0.4-1.1c0.1-0.4,0.3-0.8,0.5-1.2c0.2-0.4,0.4-0.9,0.6-1.3c0.4-0.9,0.9-1.8,1.4-2.8
							c-0.1-0.1-0.3-0.1-0.5-0.1c0,0-0.4,0.2-0.9,0.3c-0.4,0.2-0.8,0.3-0.8,0.3c0,0-0.6-0.3-0.6-0.3c-1,0-1.9,0-2.9,0
							c-0.5,0-1,0-1.5,0l-0.6,0l-0.4,0c-1.1,0-2.1,0.2-3.3,0c-0.7-0.1-0.4-0.5-0.7-0.7c-0.8-0.2-1.3-0.1-1.8,0c-0.5,0-1,0.1-1.8,0
							c0.2-0.1,0.7-0.5,0.1-0.7c-0.2,0.1-0.3,0.4-0.7,0.2l0.2-0.1c-0.3-0.3-0.7-0.2-1.4-0.5c-0.6-0.2-1.3-0.3-2-0.4
							c-0.7,0-1.3,0-2,0c-1.1-0.6,0.4-0.5,0.2-0.7c0.7,0.5,0.6,0.2,0.8,0c-0.5,0-1-0.2-1.1-0.6c-0.6-0.2-0.8-0.4-1.5-0.4
							c0.3,0,0.5,0.3,0.2,0.4c-0.2-0.2-0.6-0.4-1-0.6c-0.3-0.2-0.5-0.5-0.4-0.7c-0.7-0.4-1.3-0.7-2-1.1c-0.7-0.4-1.3-0.9-2-1.3
							c-1.4-0.9-2.6-2-3.8-2.9c-0.6-0.1,0.3,0.3-0.1,0.3c-0.8-0.2-0.3-0.5-1-0.8l0.4,0c-0.6-0.7-1.7-1-2.5-1.5
							c0.3-0.1-0.3-0.7,0.3-0.3c-0.4-0.3,0.3-1.6-0.1-1.7l-0.6,1.2c-0.1,0.1-0.5-0.5-0.5-0.4c-0.1-0.5-0.1-1-0.3-1.2
							c0.2-0.3,0.5,0.2,0.8,0.5c0.4-0.3-0.5-1.1,0.2-1.1c-0.6-0.5-0.1,0.3-0.6,0l-0.4-0.6l0.2,0.5c-0.5-0.3-1-0.2-1.2-1l-0.9-0.3
							c0.3-0.3-0.3-0.5-0.4-0.9l0.4,0c-0.3-0.4-0.4-0.6-0.5-1c0.5,0,0.2,0.4,0.6,0.3l-0.2-0.5c-0.2,0.1-0.6-0.1-0.5,0.4
							c-0.7-0.2-1.1-0.3-1.8-1.5c0-0.8,0.7,0.4,0.9,0c-0.6-1.3-1.9-1-2.2-1.8c-0.3-1.1-0.6-0.8-1.1-1.8c0.4,0.2-0.1-0.8,0.1-1.1
							c0,0,0.4,0.3,0.4,0.3c-0.2-0.3-0.2-0.6,0-0.6c-0.3,0.2-0.8-1.2-1.2-1.8l-0.3,0.2c-0.2-0.3-0.3-0.6-0.5-0.9
							c-0.2-0.4-0.3-0.9-0.4-1.3c-0.4-1.2-0.6-0.7-1.1-1.2c0.1-0.7,0.4-1.1,0.7-1.3c0,0.5,0.2,1,0.2,1.7c0.2,0.4,0.3,0.7,0.5,1
							c0.1,0.2,0.2,0.3,0.3,0.5c0.1,0.2,0.2,0.4,0.3,0.5c0.4,0.4,0.7,0.9,0.8,1.5c0.9,0.2-0.3-0.7-0.3-1.3c0.1,0,0.1,0,0.1,0.1
							c0,0,0-0.1,0-0.1c0.2,0.4,0.6,1,1,0.9c-0.3-0.6-0.9-0.2-0.9-1.1c-0.1-0.1-0.2-0.4-0.2-0.7c0-0.3,0-0.5,0-0.8
							c0-0.5,0.1-1.1,0-1.4c-0.5-0.6-1-0.1-1.3-1.9c0,0,0.5,0.3,0.5,0.3c-0.3-1.1-0.4-1.1-0.6-1.1c0,0-0.1,0-0.1,0c0,0,0,0-0.1,0
							c0,0,0-0.1-0.1,0c-0.2,0.1-0.5,0.3-1,0.4c0.6-0.1-0.8,0.7,0.3,0.4c-0.7,0.5-1.8,0.9-2.6,1C76,2,76.2,2.1,76.1,2.2
							c0.4,0,0.8-0.2,1.1-0.4c0.3-0.2,0.7-0.3,0.9-0.2c0,0,0.2-0.2,0.4-0.4c0.2-0.2,0.5-0.4,0.5-0.4c0.1,1.1-0.2,1.6-0.4,1.3
							c0.1,0.2,0.2,0.3,0.1,0.5c-0.3,0.4-0.3,0.2-0.3-0.2c0-0.2,0-0.4,0-0.5c0-0.1-0.1,0-0.2,0c-0.1,0.1-0.1,0.1-0.2,0.2
							c0,0,0.1-0.1,0.2-0.1c0,0.1,0.1,0.2,0.1,0.2c-0.1,0.2-0.1,0.3-0.2,0.2c0,0,0-0.1-0.1-0.1c-0.1,0-0.2,0.1-0.3,0.1
							C77.4,3,77,3.1,76.7,3.2c-0.6,0-1.2,0.1-1.3-0.2l1-0.5c-0.5-0.1-1.4,0.6-1.9,0.8c-0.1,0-0.1,0-0.2,0c0,0,0.1,0,0.1,0.1
							c-0.1,0-0.2,0-0.3,0c-0.4,0.1-1,0.5-1.5,0.6l0.1,0.3l0-0.2c0.4-0.1,1-0.1,0.8,0.2c-0.8,0.5-1.2,0-1.5-0.2
							c0.1-0.5,0.9-0.3,1.3-0.6c-0.4-0.3-0.9,0.3-2,0.3c0.2-0.6,1.1-0.4,1.1-0.9c-0.8,0.2-0.9,0.6-1.7,0.7c0-0.3,0.8-0.5,0.6-0.8
							l-0.6,0c1.2-0.4-0.4-0.5,0.5-1c-0.5,0-0.5,0.6-1.3,0.5c0.3,0.1,0.9,0.4,0.3,0.8l-0.8,0.1c-0.4-0.1,0.6-0.8,0-0.8l-0.7,0.4
							c0.1,0.1,0.4,0.1,0.3,0.4c-0.5,0-0.5,0.8-0.9,1.2c-0.4,0.1-0.7,0.2-0.9,0.1c-0.9,0.7-2.2,1.1-3,1.8c0.5-0.5-0.2-0.5-0.6-0.6
							c0.7-0.3,0.6-0.7,0.4-1c-0.4,0.2-0.6,0.7-0.3,0.8c-0.8,0-0.4,0.5-1.2,0.4c-0.5,0,0.1-0.5-0.1-0.6c-0.8,0.2-0.1,0.6-1,0.8
							c0-0.1,0.1-0.1,0-0.2c-0.5,0-0.9,0.4-1,0.7c-0.7-0.4-1.4,0.5-1.5-0.1c-1.1,0.5,0.3,0.3,0.1,0.5c-0.4,0.4-1.3,0.4-1.6,0.4
							c0.3-0.1,0.5-0.3,0.8-0.3l-0.4-0.3c-1.5,0.1-0.7,1.2-2.1,1.2c0.7-0.4,0.2-0.4,0.4-0.7c-0.2,0.2-1.3,0.3-0.6,0.5
							c-0.5,0.1-0.9,0.1-1.3,0.1c-0.4,0.3-0.9,0.5-1.1,0.8c-0.7,0.1-1.3,0-1.7-0.1c-1.5,0.7-3,0.5-4.5,1.1l0.1,0
							C46.3,9.5,48.3,9.8,47,10c0.1-0.5-0.8-0.2-1.3-0.4c-1.6,0-2.7,0.8-4.3,0.7c0-0.1,0.1-0.2,0.4-0.3c-1.1,0-2,0.2-3.1,0.3l0-0.1
							c-1.7-0.2-3.1,0.4-4.8,0.6c0.1-0.1,0.2-0.3,0.3-0.3c-0.9-0.1-2.2-0.1-2.8,0.4c-1-0.5-0.7,0.2-2-0.3c-0.1-0.1,0.1-0.1,0.2-0.1
							c-0.6-0.2-1.1-0.1-1.7-0.2c-1.4,0.3-1.8,0.9-3.5,0.6c0-0.7,1-0.1,1.1-0.6c-0.3,0.1-0.6,0.2-1.1,0c0.3-0.2,0.1-0.2,0.3-0.4
							c-0.3-0.2-1.5,0.6-1.4,0.5c0,0.1,0.1,0.2,0.4,0.2c-0.4,0.4-1.6-0.1-2.4-0.1c0.3,0,1.1,0.3,0.7,0.6c-1.1-0.3-1.5,0.3-2.3,0.5
							c-0.9-0.5,0.8-0.5,0.7-1c-0.1-0.2-0.5-0.6,0-0.8c-0.9-0.2-1.6,0.1-2.3,0l0-0.1c-0.5-0.1-1.1,0-1.7,0c-0.6,0-1.1-0.1-1.5-0.3
							l0.4,0.3c-0.2,0-0.7-0.1-1.1,0.1c0.1-0.2-0.6-0.6-0.2-0.7c-0.7,0.6-2.5-0.2-3.3,0.2c-0.2-0.3,0.1-0.5,0.2-0.6
							C11.5,9,11.7,9.2,12.2,9c-0.6-0.1-0.9-0.5-0.8-0.6c-0.7,0.2-2.1,0-2.5,0.3C8.6,8.3,8.2,8.1,8.5,7.8C6.7,7.3,8.9,9.2,7,8.4
							C6.3,7.7,8,8.3,6.9,7.7l0.2,0C6.7,6.5,6.3,8.1,5.3,7.7c0.1-0.5,0.8,0,0.3-0.7C4.7,6.7,4,7.2,3.2,6.6l0.2-0.1
							C2.9,6.3,1.9,5.6,1.3,5.3c0-0.1,0.1,0,0.2,0C0.6,4.6,1,5.3,0.4,4.5L0,4.6C0.3,5,1,5.7,1.6,5.7C1,5.7,2.1,6.8,1.6,7l0.2-0.1
							c1,1.4,2.9,2.4,4.7,3.5c0.7,0,1.2,0.2,1.7,0.5c0.5,0.3,1,0.5,1.7,0.6c0.4-0.5,0.3,0,1.4,0.2c-0.6-0.1-0.2,0.4,0.2,0.6
							c0.3-0.1,0.6-0.1,0.8,0c0.2,0.3,1.5,1.1,2.1,0.8c0.7,0.4-0.2,0.2-0.4,0.2c0.2,0.4,0.6-0.1,0.8,0.2c0,0,0,0.1-0.1,0.1
							c1.1,0.2,1.7,0.5,2.8,0.8c0.2-0.6,1.2,0,1.7-0.2c-0.2,0.2,0.6,0.3,0.9,0.5l0.7-0.4c0.7-0.3,0.8,0.4,1.6,0.2l-0.2-0.1
							c0.6-0.1,2.1,0.4,2.6,0.7c2.7-0.4,4.7-0.2,6.8,0c2.1,0.2,4.3,0.5,7.1,0.1c0.3-0.2-0.3-0.3,0-0.6c0.6-0.1,0.7-0.1,1.2-0.2
							c-0.5-0.1-0.4,0.1-0.3-0.1L39,14.6c0,0,0-0.1,0-0.1c-0.3,0.1-0.6,0.2-0.9,0.2c0.5-0.2,0.6-0.7,1.2-0.6c0,0.1-0.1,0.1-0.3,0.2
							c0.6,0,0.6-0.2,1-0.2c0.5,0,0.4-0.1,0.5,0.1l1.6,0c0.7-0.6,1.7-0.3,2-0.3c-0.1,0.4-1,0.3-1.3,0.7l0.6,0.2l0-0.3l0.8,0l0,0.1
							c0.1-0.1,0.2-0.3,0.4-0.2c0,0,0.1,0.1,0,0.1l0.5-0.3c-0.3,0.4,0.5,0,0.5,0.4c1.9-0.1,2.3-0.9,4-0.7c-0.3-0.1,0.4-0.7,0.9-0.7
							c0.3,0,0.4,0.1,0.2,0.3l0.6-0.3c1,0.4,1.7-0.2,2.9-0.2l0,0.2c0.4-0.3,0.8-0.6,1.5-0.7l0,0.4c0.9,0,0.4-0.8,1.4-0.9
							c-0.1-0.3-0.7-0.4-0.9-0.7c0.3,0.3,1.3,0.1,1-0.1c0.8-0.4,0.6-0.2,0.7-0.1l0.5-0.4c0.6-0.2,0.3,0.4,0.2,0.7
							c0.5-0.5,1.2-0.4,1.8-0.6L60.1,11l0.9-0.2c0.5-0.4,1.3-0.7,2-0.8l-0.4,0.6c0.6,0.1,0.2-0.2,0.3-0.4c0.7-0.5,1-0.2,1.5-0.1
							C65.6,9.4,67.2,10.2,68.1,9.2z M120.4,55.5l0-0.1C120.6,55.5,120.8,55.7,120.4,55.5z M118.6,48.1c0.3,0.9,0,0.6-0.1,0.7
							c0-0.9-0.2-1.4-0.1-2.2c-0.1,0.1-0.2,0.2-0.3,0.2c0-0.3,0.1-0.6,0.3-0.8c0.3,0.2,0.2,0.8,0.1,1.3
							C118.5,47.9,118.5,48.3,118.6,48.1z M127.6,61.4c0,0-0.1,0-0.1,0l0,0L127.6,61.4z M124.6,58.6c0.1-0.1,0-0.2,0-0.4
							C124.5,58.4,124.5,58.5,124.6,58.6z M121.7,51c0.2-0.2,0-0.6-0.1-0.9C121.6,50.2,121.6,50.5,121.7,51z M88.8,20.6
							c0.2,0.1,0.7,0.4,0.5-0.1c-0.3,0-0.3-0.5-0.6-0.5c0,0,0,0,0,0C88.7,20.3,88.7,20.6,88.8,20.6z M74.3,4.3
							c0-0.2,0.1-0.5-0.1-0.6c0,0,0.1,0,0.1,0c-0.1,0-0.2-0.1-0.1-0.1c-0.2,0-0.4,0.1-0.6,0.2C73.8,4.4,73.4,4.6,74.3,4.3z"/>
						<path fill="#FFC235" d="M81.4,6.3c0-0.1-0.1-0.2-0.1-0.2C81.3,6.1,81.4,6.2,81.4,6.3z"/>
						<path fill="#FFC235" d="M73.7,3.7c0,0,0.2,0,0.6,0C74.2,3.7,74,3.7,73.7,3.7z"/>
						<path fill="#FFC235" d="M138.8,69.6l-0.3,0l0.5,0.3c0.9,0,1-0.3,1.2-0.6c-0.8,0.2-1.2-0.1-2.2-0.2L138.8,69.6z"/>
						<path fill="#FFC235" d="M138.9,67.4c-0.1-0.1-0.2-0.3-0.3-0.4l-0.2,0.2L138.9,67.4z"/>
						<path fill="#FFC235" d="M130.8,62.9l0.5,0.5C131.6,63.4,131,62.7,130.8,62.9z"/>
						<path fill="#FFC235" d="M132,67.6l0.5,0c-0.3-0.3-0.8-0.5-0.9-0.4C132.1,67.3,131.6,67.4,132,67.6z"/>
						<path fill="#FFC235" d="M129.3,61.6c-0.4,0.1-0.4-0.6-0.8-0.4C128.7,61.3,129,61.9,129.3,61.6z"/>
						<path fill="#FFC235" d="M127.3,64.8c0,0.5,0.5,0.5,0.9,0.9C127.9,65.4,127.6,64.7,127.3,64.8z"/>
						<path fill="#FFC235" d="M125.7,59.6c0.2-0.1,0.4,0.1,0.6,0.4c-0.1,0-0.3,0-0.4-0.1c0.6,0.3,0.6,0.4,1,0.6
							c-0.2-0.5-0.5-1.1-0.2-1.3C126.2,59.2,125.6,59.1,125.7,59.6z"/>
						<path fill="#FFC235" d="M126.3,64c0.3,0.4,0.3,0.7,0.7,1.1c0-0.2,0.1-0.5-0.4-0.9l0.4-0.1C126.7,63.5,126.9,64.6,126.3,64z"/>
						<path fill="#FFC235" d="M125,57.4l0,0.3c0.5,0.3,0.8,0.9,1.3,0.9c-0.2-0.2-0.5-0.5-0.7-0.7C125.4,57.6,125.2,57.5,125,57.4z"
							/>
						<path fill="#FFC235" d="M125.2,62.1l-0.4,0.2c0.4,0.5,0.1-0.1,0.3,0c0.1,0.2,0.2,0.4,0.4,0.4
							C124.9,62.2,125.7,62.4,125.2,62.1z"/>
						<path fill="#FFC235" d="M123.5,60.9l-0.6-0.5l0,0.8C123.6,61.8,123.1,61,123.5,60.9z"/>
						<path fill="#FFC235" d="M123.1,59.9l0-0.1l-1.2-0.6C122.6,59.6,122.5,59.7,123.1,59.9z"/>
						<path fill="#FFC235" d="M121.4,46.4c-0.2-0.1-0.4,0.5-0.2,0.2C121.3,46.7,121.5,45.9,121.4,46.4z"/>
						<path fill="#FFC235" d="M118.1,49.4c0.1-0.4-0.3-1.4-0.5-1.9C117.7,48.1,117.8,49.6,118.1,49.4z"/>
						<path fill="#FFC235" d="M117.5,47.3c0,0,0,0.1,0.1,0.2C117.6,47.4,117.5,47.4,117.5,47.3z"/>
						<path fill="#FFC235" d="M114.2,38c-0.1,0-0.1,0-0.2,0C114.1,38.1,114.2,38,114.2,38z"/>
						<path fill="#FFC235" d="M114.7,37.9c0.3,0.1,1,0,1.1-0.2c-0.5,0.1-1,0.1-1.7,0.3C114.5,38,114.7,38.2,114.7,37.9z"/>
						<path fill="#FFC235" d="M110,37.2c0.3-0.1,0.6,0,0.5-0.2C110.4,36.9,109.8,37.1,110,37.2z"/>
						<path fill="#FFC235" d="M87.7,17c-0.2-0.4-0.4-0.5-0.5-0.3C87.5,17.1,87.4,16.8,87.7,17z"/>
						<polygon fill="#FFC235" points="86.8,16.3 86.9,16.2 86.9,15.9 						"/>
						<path fill="#FFC235" d="M85.6,13.8c0,0,0.1,0,0.2,0.1C85.7,13.8,85.6,13.7,85.6,13.8z"/>
						<path fill="#FFC235" d="M85.9,14C85.9,13.9,85.8,13.9,85.9,14L85.9,14z"/>
						<path fill="#FFC235" d="M85.9,14.2l0.1-0.1c0,0-0.1-0.1-0.2-0.1C85.9,14,85.9,14.1,85.9,14.2z"/>
						<path fill="#FFC235" d="M85.2,13.1l-0.1,0.7c0.5,0.4-0.1-0.7,0.5-0.4L85.2,13.1z"/>
						<path fill="#FFC235" d="M84.2,11.6c-0.1-0.5-1-0.9-0.7-1.4C82.7,9,82.9,10.9,82,9.5c0.4,1.5,1.2,0.3,1.6,1.7
							C83.6,10.4,84,11.4,84.2,11.6z"/>
						<path fill="#FFC235" d="M83.6,12.2c0.2,0,0-0.6-0.2-0.7C83.4,11.6,83.2,12.1,83.6,12.2z"/>
						<path fill="#FFC235" d="M82.8,9.1l0-0.5l-0.2,0C82.6,8.6,82.8,9.1,82.8,9.1z"/>
						<path fill="#FFC235" d="M82.3,7.6l0.4,0.3C82.6,7.8,82.4,7.2,82.3,7.6z"/>
						<path fill="#FFC235" d="M81.9,5.2c-0.1-0.8-0.9-1.2-0.4,0.3l-0.1-0.4C81.6,5.2,81.6,4.3,81.9,5.2z"/>
						<path fill="#FFC235" d="M76.3,1.1c0.4-0.1,1-0.4,1-0.5L76,1.2L76.3,1.1z"/>
						<path fill="#FFC235" d="M76.3,2.9c0.2,0.4,0.8-0.3,1.3-0.3C77,2.7,77.1,2.6,76.3,2.9z"/>
						<path fill="#FFC235" d="M74.8,1c0.4-0.3,1-0.4,1.3-0.5C76,0.3,74.9,0.7,74.8,1z"/>
						<path fill="#FFC235" d="M73.2,1.7c-0.3-0.1,0-0.2-0.2-0.3c-0.6,0-1.2,0.2-1.4,0.5c0.2,0.1,0.5,0.5,0.4,0.8
							c0.8-0.4,1-1.3,1.6-0.9c0,0,0.1-0.2,0.2-0.5c0.1-0.1,0.3-0.3,0.4-0.4c0.1-0.1,0.2-0.2,0.2-0.2C74,0.9,73.7,1,73.7,1.1
							c-0.1,0.1-0.1,0.2-0.1,0.2C73.5,1.5,73.4,1.6,73.2,1.7z"/>
						<path fill="#FFC235" d="M75.7,2.3l-0.6,0c0.2,0.2-0.3,0.4-0.6,0.6C74.8,3.3,75.3,2.5,75.7,2.3z"/>
						<polygon fill="#FFC235" points="68.5,3.6 67.6,4 67.9,4 						"/>
						<polygon fill="#FFC235" points="67.9,3.6 67.8,3.5 67.1,4 						"/>
						<polygon fill="#FFC235" points="66.8,3.8 66.9,3.8 67.5,3.5 						"/>
						<path fill="#FFC235" d="M64.7,4.3L65,4.5c0.2-0.1,0.8-0.1,0.7-0.3C65.5,4.3,64.9,4.5,64.7,4.3z"/>
						<path fill="#FFC235" d="M59.5,11.8c0.1-0.2,0-0.3-0.1-0.4l-0.2,0.4C59.3,11.8,59.4,11.7,59.5,11.8z"/>
						<path fill="#FFC235" d="M58.1,11.5l-0.6,0.6c0.9-0.2,0.9-0.5,1.6-0.8c-0.4,0-0.7,0.4-1.2,0.4L58.1,11.5z"/>
						<path fill="#FFC235" d="M42.8,14.5c0-0.3-0.1-0.2,0.4-0.5c-0.8,0.3-1.4,0.3-2.3,0.5c0.2,0.2-0.5,0.5-0.1,0.4l1-0.3l-0.1,0.2
							C42.4,14.9,42.1,14.4,42.8,14.5z"/>
						<path fill="#FFC235" d="M3.8,6.8c0.1-0.1,0.1-0.2,0-0.4C3.2,6.2,3.9,6.8,3.8,6.8z"/>
					</g>
				</g>
			</g>
		</g>
	</g>
</g>
<g>
</g>
<g>
</g>
<g>
</g>
<g>
</g>
<g>
</g>
<g>
</g>
<g>
</g>
<g>
</g>
<g>
</g>
<g>
</g>
<g>
</g>
<g>
</g>
<g>
</g>
<g>
</g>
<g>
</g>
</svg>
