<?xml version="1.0" encoding="utf-8"?>
<!-- Generator: Adobe Illustrator 18.0.0, SVG Export Plug-In . SVG Version: 6.00 Build 0)  -->
<!DOCTYPE svg PUBLIC "-//W3C//DTD SVG 1.1//EN" "http://www.w3.org/Graphics/SVG/1.1/DTD/svg11.dtd">
<svg version="1.1" id="Layer_1" xmlns="http://www.w3.org/2000/svg" xmlns:xlink="http://www.w3.org/1999/xlink" x="0px" y="0px"
	 viewBox="0 0 622.6 241.7" enable-background="new 0 0 622.6 241.7" xml:space="preserve">
<g>
	<path fill="#FFFFFF" d="M552.3,200.3h-482C31.6,200.3,0,168.7,0,130l0-59.8C0,31.6,31.6,0,70.3,0l482,0c38.7,0,70.3,31.6,70.3,70.3
		V130C622.6,168.7,590.9,200.3,552.3,200.3z"/>
	<g>
		<path fill="#757679" d="M66.2,58.4l-3.7-2.4c2.4-2.9,4.1-6,5.1-9.3l4.1,0.9c-0.3,0.7-0.5,1.4-0.7,2.1h9.7v3.6h-6.2
			c0.8,1.1,1.5,2.2,2.1,3.2l-3.9,1.5c-0.8-1.6-1.7-3.2-2.7-4.7h-0.5C68.5,55.2,67.4,56.9,66.2,58.4z M79.1,65.6v-3H64.8v-3.7h14.2
			v-2.2h4.3v2.2h14.3v3.7H83.4v3h12.6v3.7h-3.6v3h7.2v3.8h-7.2v5.4c0,2.7-1.5,4.1-4.6,4.1H82l-1-4.1c1.9,0.2,3.6,0.3,5.3,0.3
			c1.1,0,1.7-0.5,1.7-1.4v-4.3H62.9v-3.8H88v-3H66.7v-3.7H79.1z M77.6,82.1l-3.4,2.4c-1.2-1.7-2.8-3.6-4.9-5.7l3.5-2.2
			C74.9,78.6,76.4,80.5,77.6,82.1z M84.1,56.8l-3.5-2.2c1.7-2.5,3-5.1,3.7-7.9l4.1,0.9c-0.2,0.7-0.4,1.4-0.7,2h11.1v3.6h-6.3
			c0.8,1.2,1.5,2.2,2.1,3.3L90.8,58C90,56.4,89,54.8,88,53.3h-1.8C85.5,54.5,84.8,55.7,84.1,56.8z"/>
		<path fill="#757679" d="M110.3,58.4l-3.7-2.4c2.4-2.9,4.1-6,5.1-9.3l4.1,0.9c-0.3,0.7-0.5,1.4-0.7,2.1h9.7v3.6h-6.2
			c0.8,1.1,1.5,2.2,2.1,3.2l-3.9,1.5c-0.8-1.6-1.7-3.2-2.7-4.7h-0.5C112.6,55.2,111.5,56.9,110.3,58.4z M123.2,65.6v-3H109v-3.7
			h14.2v-2.2h4.3v2.2h14.3v3.7h-14.3v3h12.6v3.7h-3.6v3h7.2v3.8h-7.2v5.4c0,2.7-1.5,4.1-4.6,4.1h-5.8l-1-4.1
			c1.9,0.2,3.6,0.3,5.3,0.3c1.1,0,1.7-0.5,1.7-1.4v-4.3h-25.1v-3.8h25.1v-3h-21.3v-3.7H123.2z M121.7,82.1l-3.4,2.4
			c-1.2-1.7-2.8-3.6-4.9-5.7l3.5-2.2C119,78.6,120.6,80.5,121.7,82.1z M128.2,56.8l-3.5-2.2c1.7-2.5,3-5.1,3.7-7.9l4.1,0.9
			c-0.2,0.7-0.4,1.4-0.7,2H143v3.6h-6.3c0.8,1.2,1.5,2.2,2.1,3.3l-3.8,1.5c-0.8-1.7-1.7-3.2-2.8-4.7h-1.8
			C129.7,54.5,129,55.7,128.2,56.8z"/>
		<path fill="#757679" d="M173.1,65.2c0,4.1-1.9,7.2-5.7,9.2l-1.5-2.4c2.5-1.5,3.8-3.5,4.1-5.8c-0.3,0-0.5,0.1-0.8,0.1
			c-0.9,0-1.7-0.3-2.3-0.9c-0.6-0.6-0.9-1.3-0.9-2.2c0-1,0.3-1.7,0.9-2.3c0.6-0.6,1.4-0.9,2.3-0.9C171.8,60.1,173.1,61.8,173.1,65.2
			z"/>
		<path fill="#757679" d="M202.4,61.6c0,9.1-1.7,16.8-4.8,23.3l-3.2-3c2.5-5.2,3.8-12,3.9-20.3V48.3h32.8v9.5h-28.6V61.6z
			 M204.6,76.5l-2.8-2.5c1.8-1.5,3.2-3.3,4.1-5.5c-0.5,0.1-1,0.2-1.5,0.3l-1-3.3c3.6-0.5,6.8-1.1,9.6-1.7v3c-1.8,0.5-3.9,1-6.1,1.5
			l2.5,1c-0.2,0.5-0.4,0.9-0.6,1.4h6.1v-2.2h4.3v2.2h11.1v3.5h-11.1v2.7h13.3v3.7h-13.3v5.3h-4.3v-5.3h-13.1v-3.7h13.1v-2.7h-8.1
			C206.1,75.1,205.4,75.8,204.6,76.5z M202.4,52v2.2h24.3V52H202.4z M213.2,60.5l-1.2,3c-2.7-1-5.4-1.7-8.2-2.2l1.5-2.8
			C207.9,58.9,210.6,59.6,213.2,60.5z M219.1,58.6v8.9h-4.2v-8.9H219.1z M230.7,66l-1.3,3.3c-2.8-1.2-5.7-2-8.8-2.6l1.5-2.9
			C225.1,64.3,228,65.1,230.7,66z M220.7,60.3c3.1-0.5,6.1-1.2,8.9-2l1,3.2c-2.7,0.7-5.6,1.4-8.9,2L220.7,60.3z"/>
		<path fill="#757679" d="M241.6,66.8l-3-3.6c2.9-3.5,5.4-8.4,7.6-14.8l4.1,1c-0.7,2.1-1.5,4.1-2.2,5.9h8.4V47h4.4v8.4h13.5v4.2
			h-13.5v9.1h15.8V73h-15.8v12.4h-4.4V73h-17.3v-4.3h17.3v-9.1h-10.4C244.8,62.4,243.2,64.8,241.6,66.8z"/>
		<path fill="#757679" d="M305.5,65.2c0,4.1-1.9,7.2-5.7,9.2l-1.5-2.4c2.5-1.5,3.8-3.5,4.1-5.8c-0.3,0-0.5,0.1-0.8,0.1
			c-0.9,0-1.7-0.3-2.3-0.9c-0.6-0.6-0.9-1.3-0.9-2.2c0-1,0.3-1.7,0.9-2.3c0.6-0.6,1.4-0.9,2.3-0.9C304.2,60.1,305.5,61.8,305.5,65.2
			z"/>
		<path fill="#757679" d="M346.5,70.4c-2.2,0.7-4.5,1.4-6.9,2v8.4c0,2.7-1.5,4.2-4.4,4.2h-4.7l-1-4.1c1.5,0.2,2.8,0.3,4.2,0.3
			c1,0,1.5-0.5,1.5-1.4v-6.3c-2.4,0.5-4.9,1-7.4,1.4l-0.6-4.4c2.8-0.4,5.5-0.9,8.1-1.5v-7.2h-8.1v-4.2h8.1v-3.9c-2,0.4-4,0.7-6.2,1
			l-0.9-4.1c5.7-0.6,10.9-1.8,15.4-3.7l1.5,4.1c-1.7,0.6-3.5,1.2-5.4,1.7v4.9h8.5c-0.3-3.2-0.3-6.7-0.3-10.6h4.4
			c0,4,0.2,7.5,0.4,10.6H365v4.2h-12.1c0.2,2.7,0.6,4.9,1.1,6.7c0.2,0.7,0.3,1.2,0.5,1.8c1.7-2.1,3.2-4.5,4.5-7.1l3.7,2
			c-1.8,3.7-4,7-6.6,9.8c0.4,1,0.9,1.9,1.3,2.5c1.2,1.8,2.1,2.7,2.7,2.7c0.5,0,0.9-2.1,1.4-6.3l3.9,2c-1.1,5.9-2.6,8.9-4.7,8.9
			c-1.8,0-3.7-1.2-5.7-3.7c-0.7-1-1.5-2-2.1-3.3c-2.8,2.3-6,4.2-9.4,5.5l-2.4-3.7c3.8-1.4,7.2-3.4,10.1-6c-0.5-1.3-0.9-2.7-1.2-4.1
			c-0.6-2.2-1.1-4.9-1.4-7.9h-8.9V68c2.4-0.6,4.7-1.3,6.9-2V70.4z M364.2,53l-3.1,3.1c-1.7-1.8-4.1-3.7-7.3-5.8l2.9-2.8
			C359.7,49.4,362.2,51.2,364.2,53z"/>
		<path fill="#757679" d="M381.5,57.1v3.4c-1.2,2.1-2.6,4.1-4.3,6.2h4.7v2.9c-0.5,3-1.2,5.4-1.9,7.3c0.3,0.2,0.6,0.5,1,0.8
			c1.4,1.2,2.7,2.1,3.8,2.7c1.2,0.5,2.9,0.7,5.2,0.8c2.3,0,4.9,0,7.8,0c3.1,0,7.1-0.1,12.1-0.3l-1,4.1h-10.6c-2.9,0-5.7-0.1-8.5-0.2
			c-2.8-0.1-5-0.4-6.4-1c-1.7-0.7-3.3-1.7-4.7-3.2c-0.3-0.3-0.6-0.5-1-0.5c-0.7,0-2,1.8-3.7,5.5l-3.1-2.9c1.8-3.7,3.6-5.8,5.3-6.5
			c0.7-1.8,1.3-3.8,1.7-5.9h-5.7v-3.2c1.8-2.2,3.4-4.2,4.6-6h-5.3v-3.9H381.5z M381.3,53.2l-2.8,2.8c-1.5-1.8-3.6-3.9-6.3-6l2.8-2.7
			C377.5,49.2,379.6,51.2,381.3,53.2z M405.3,61.9v7.8h-0.6l2.7,1.7c-0.7,1-1.6,2.1-2.7,3.2c1.2,0.8,2.4,1.6,3.5,2.5l-2.8,2.8
			c-2.5-2.2-5.9-4.7-10.4-7.2l2.5-2.4c1.5,0.8,3,1.6,4.3,2.5c1.1-1.2,1.9-2.2,2.4-3H395c-0.8,0.9-1.8,1.8-2.9,2.6v4
			c1.9-0.4,3.8-0.8,5.7-1.3l0.7,3.3c-3.3,0.7-6.7,1.3-10.2,1.8l-1.2-3c0.7-0.3,1.1-0.7,1.1-1.2v-1.5c-1.2,0.6-2.6,1.2-4.1,1.7
			l-2-3.3c3.3-0.9,5.8-2,7.7-3.2h-4v-7.8H405.3z M408.3,57.1v3.4h-25.4v-3.4H408.3z M406.3,48.1V56h-21.4v-7.9H406.3z M391.1,50.9
			h-2.5v2.2h2.5V50.9z M401.5,65h-11.9v1.8h11.9V65z M396.9,50.9h-2.5v2.2h2.5V50.9z M402.6,50.9h-2.5v2.2h2.5V50.9z"/>
		<path fill="#757679" d="M415.8,69.6v-3.9h37.1v3.9H437v3.5h11.5v3.8H437v4c1.9,0.2,4,0.3,6.4,0.3c3.7,0,6.8-0.1,9.4-0.2l-1.2,4.1
			c-2.9,0-5.5,0-7.9-0.1c-6.9,0-11.6-0.6-14.2-1.6c-2-0.8-3.7-2.5-5.3-4.8c-1.6,2.8-3.6,5.1-5.9,7l-2.8-3.6
			c3.7-2.9,6.2-6.7,7.6-11.6l4.1,0.7c-0.4,1.5-0.8,2.8-1.3,4.1c1.6,2.5,3.4,4,5.4,4.7c0.4,0.1,0.9,0.2,1.4,0.4V69.6H415.8z
			 M447.4,48.3v15.2h-26V48.3H447.4z M443.2,54.2V52h-17.4v2.2H443.2z M443.2,57.6h-17.4v2.2h17.4V57.6z"/>
		<path fill="#757679" d="M470.6,70.4h-4.4V61c-1.6,2.7-3.5,5.2-5.6,7.6l-1.6-4.1c2.9-2.5,5.3-5.4,7-8.7h-6.2v-4h6.4v-4.2h4.4v4.2
			h4.9v4h-4.9V57c2,1.3,4.1,2.7,6.2,4.4l-2.5,3.7c-1.4-1.7-2.7-3.1-3.7-4.2V70.4z M467.2,73.4c-1,4-2.4,7.5-4.1,10.4l-3.7-2.4
			c1.7-2.8,2.9-5.8,3.6-9L467.2,73.4z M473.7,84.7c-3.2,0-4.7-1.6-4.7-4.8V72h4.4v7c0,1,0.5,1.5,1.6,1.5h8.7c0.6,0,1-0.2,1.3-0.6
			c0.3-0.4,0.6-1.7,0.7-4l4.1,1.4c-0.3,3.6-0.9,5.7-1.8,6.4c-0.8,0.6-2,1-3.6,1H473.7z M483.2,76.2l-3.5,2.4
			c-1.1-1.7-2.5-3.5-4.2-5.5l3.4-2.1C480.8,73,482.2,74.7,483.2,76.2z M494.9,48.4v21.8h-17.3V48.4H494.9z M490.7,54.6v-2.4h-8.8
			v2.4H490.7z M490.7,60.4v-2.3h-8.8v2.3H490.7z M490.7,63.9h-8.8v2.5h8.8V63.9z M498,80.1l-3.7,2.6c-1.5-2.8-3.5-5.9-6.1-9.4
			l3.5-2.2C494.5,74.5,496.6,77.6,498,80.1z"/>
		<path fill="#757679" d="M521.2,65.3h-11.4v20.3h-4.3V48.4h15.7V65.3z M516.8,52.2h-7.1v2.9h7.1V52.2z M509.7,61.5h7.1v-2.8h-7.1
			V61.5z M530.9,67.5v13.4h-16.8V67.5H530.9z M526.7,71.3h-8.4V77h8.4V71.3z M523.8,65.3V48.4h16v32.8c0,2.8-1.5,4.2-4.3,4.2
			c-1.3,0-2.7-0.1-4-0.2l-1.1-4.2c1.2,0.2,2.4,0.2,3.5,0.2c1,0,1.6-0.5,1.6-1.6V65.3H523.8z M535.5,52.3h-7.4v2.8h7.4V52.3z
			 M528.1,61.4h7.4v-2.7h-7.4V61.4z"/>
		<path fill="#757679" d="M570.3,65.2c0,4.1-1.9,7.2-5.7,9.2l-1.5-2.4c2.5-1.5,3.8-3.5,4.1-5.8c-0.3,0-0.5,0.1-0.8,0.1
			c-0.9,0-1.7-0.3-2.3-0.9c-0.6-0.6-0.9-1.3-0.9-2.2c0-1,0.3-1.7,0.9-2.3c0.6-0.6,1.4-0.9,2.3-0.9C569,60.1,570.3,61.8,570.3,65.2z"
			/>
		<path fill="#757679" d="M99.7,130.9c-0.1,8.2-0.6,13.1-1.7,14.7c-1.1,1.6-3,2.5-5.6,2.5c-1.2,0-2.5-0.1-4.1-0.2l-1.1-4.1
			c1.7,0.1,3.1,0.2,4.2,0.3c1.7,0,2.7-0.6,3.1-1.6c0.4-1,0.7-3.5,0.7-7.7H70.5c-1.9,1.9-4,3.6-6.3,5l-2.2-3.9
			c6-4,10.4-9.4,13.3-16.3H65v-3.8h6.1c-0.8-1.2-1.7-2.5-2.8-3.9l3.4-2.2c1.5,1.7,2.6,3.3,3.5,4.7l-2,1.4h3.6c0.6-2,1.1-4,1.5-6.2
			l4.3,0.5c-0.4,2-0.9,3.9-1.4,5.7h12.7l-1.5,7.4h5l-1.3,7.8H99.7z M73.6,137.9c-1.1,3.5-2.6,6.4-4.5,9l-3.8-2.4
			c2-2.3,3.5-4.8,4.4-7.4L73.6,137.9z M73.9,130.9h17.9l0.8-4H76.5C75.7,128.3,74.8,129.7,73.9,130.9z M80.3,145l-4.1,0.5
			c-0.2-3.2-0.6-5.7-1.3-7.4l3.7-0.5C79.5,139.4,80.1,141.9,80.3,145z M80,119.6c-0.5,1.2-1,2.4-1.5,3.5h9.6l0.9-3.5H80z
			 M87.1,143.1l-3.9,1.5c-0.6-2.3-1.3-4.6-2.2-6.7l3.3-1C85.5,139.1,86.5,141.1,87.1,143.1z M93.5,141.6l-4,1c-0.6-2-1.3-4-2.2-5.9
			l3.5-1.1C91.7,137.4,92.6,139.4,93.5,141.6z"/>
		<path fill="#757679" d="M106.7,130.5l-1.4-4.5c4.2-4.7,7.3-10.3,9.4-16.7l4.1,1.9c-1,2.9-2.2,5.7-3.7,8.3v28.6h-4.3v-22.2
			C109.5,127.5,108.1,129,106.7,130.5z M132.6,109.6v13.1h11.3v4.3h-11.3v21h-4.5v-21h-10.4v-4.3h10.4v-13.1H132.6z"/>
		<path fill="#757679" d="M171.8,111.9h14.8v3.7h-30.4v11.5c-0.1,8.5-1.4,15.3-3.8,20.5l-3.3-2.9c1.9-4.2,2.9-10.1,3-17.6v-15.2
			h15.5c-0.4-0.8-0.8-1.5-1.2-2.1l4.2-0.7C171,110,171.4,110.9,171.8,111.9z M161.1,123c-0.1,3.5-1,6.2-2.6,7.9l-2-1.8
			c1.3-1.3,2.1-3.4,2.2-6.2H161.1z M186.6,145.6l-3.4,2.4c-0.6-1-1.2-2-1.9-3c-5.9,1-13.5,1.8-22.8,2.4l-1.1-3.6
			c1.3-0.1,2.5-0.4,3.5-0.7c2.3-1,4.9-2.5,7.6-4.4c-2.8,0.1-5.8,0.2-8.9,0.3l-0.8-3.4c0.9-0.1,1.8-0.4,2.6-0.7
			c1.6-0.7,3.6-2.3,6.1-5.1l4,1c-1.7,1.9-3.5,3.5-5.4,4.8c2.3-0.1,4.6-0.2,6.9-0.3c1.3-1.1,2.7-2.3,4.1-3.6l3.9,1.9
			c-5.1,4.3-9.6,7.5-13.4,9.8c4.4-0.4,8.3-0.9,11.6-1.5c-0.7-1-1.4-1.9-2.2-2.8l3.3-2.1C183,140.2,185.1,143.1,186.6,145.6z
			 M162.2,118.6v-2.2h3.7v2.2h4.5v3.2h-4.9v8.4h-3v-8.4h-5.1v-3.2H162.2z M169.6,123v3.2c0,0.4,0.2,0.6,0.5,0.6h1.5v2.4h-2.5
			c-1.4,0-2.1-0.9-2.1-2.7V123H169.6z M177,118.6v-2.2h3.7v2.2h5.2v3.2h-5.5v8.4h-3v-8.4h-5.5v-3.2H177z M175.8,123
			c0,3.3-0.6,5.9-1.8,7.6l-2-1.8c0.8-1.2,1.2-3.2,1.3-5.8H175.8z M184.5,123.1v3.9c0,0.5,0.3,0.7,1,0.7h1.7v2.3h-2.6
			c-1.7,0-2.6-1-2.6-2.8v-4.2H184.5z"/>
		<path fill="#757679" d="M194.1,130.5l-1.5-4.7c4.3-4.7,7.4-10.2,9.5-16.6l4,1.9c-1.1,3.2-2.5,6.3-4.2,9.2V148h-4.3v-21.5
			C196.5,127.9,195.4,129.2,194.1,130.5z M207.1,126.6l-3.7-2.3c3.1-4.6,5.2-9.5,6.5-14.7l4.1,0.9c-0.3,1.2-0.7,2.5-1.1,3.7h17.3
			v2.8c-0.6,2.5-1.4,4.9-2.4,7.4l-4.2-1.2c0.8-1.4,1.5-3,2.1-4.9h-14.4C210.1,121.3,208.7,124.1,207.1,126.6z M213.1,127.6
			c-1.5,5.7-3.3,10.7-5.6,15l-4.1-1.5c2.2-3.8,4.1-8.7,5.7-14.6L213.1,127.6z M210.6,147.7l-1-4.1c1.7,0.2,3.3,0.3,4.8,0.3
			c1,0,1.5-0.5,1.5-1.6v-21.2h4.2v22.2c0,2.9-1.4,4.3-4.2,4.3H210.6z M231.2,141.6l-3.8,1.7c-1.5-6-3.2-11.3-5.1-15.9l3.8-1.3
			C228.1,130.9,229.8,136.1,231.2,141.6z"/>
		<path fill="#757679" d="M252.5,145.4h-4.2v-2.1h-6.2v3.3H238v-30.4h4c0.7-2.2,1.3-4.5,1.6-6.9l4.4,0.6c-0.5,2.2-1.1,4.4-1.8,6.3
			h6.3V145.4z M248.3,127.6v-7.3h-6.2v7.3H248.3z M248.3,139.4v-7.9h-6.2v7.9H248.3z M273.3,143.2c-0.4,2.9-2.4,4.4-6,4.4
			c-0.8,0-2.3-0.1-4.5-0.3l-1-4c1.8,0.1,3.5,0.2,4.8,0.2c1.5,0,2.4-0.8,2.6-2.5c0.3-2,0.4-8.9,0.5-20.6h-10.1
			c-1.1,2.5-2.5,4.7-4,6.7l-2.6-3.5c2.7-3.9,4.6-8.7,5.6-14.4l4.3,0.5c-0.4,2.2-1,4.4-1.6,6.4h12.6
			C273.9,130.8,273.7,139.8,273.3,143.2z M266.2,135.3l-3.5,2.4c-1.5-2.7-3.6-5.8-6.2-9.1l3.5-2.2
			C262.7,129.7,264.8,132.7,266.2,135.3z"/>
		<path fill="#757679" d="M284.3,148.2l-3.4-3c3-3.5,4.6-8,4.7-13.5v-8.9c-0.8,0.5-1.5,1-2.3,1.5l-2.7-3.3
			c4.8-2.7,8.9-6.7,12.5-11.8l4.4,1c-0.5,0.7-1,1.5-1.5,2.2h14.8v3.2c-1.3,1.4-2.6,2.7-3.9,3.8h8.9v24.7c0,2.5-1.4,3.7-4.2,3.7H306
			l-1.1-4c2,0.1,3.7,0.2,5.4,0.2c0.7,0,1.2-0.5,1.2-1.4v-3.9H289C288.1,142.4,286.5,145.5,284.3,148.2z M289.9,131.4
			c0,1.2-0.1,2.4-0.2,3.5h8.7V131h-8.4V131.4z M300.7,119.4c1.3-1,2.7-2,4.1-3.2h-11.9c-1,1.1-2.1,2.2-3.2,3.2H300.7z M289.9,123.3
			v4h8.4v-4H289.9z M311.4,123.3h-8.9v4h8.9V123.3z M311.4,131h-8.9v3.9h8.9V131z"/>
		<path fill="#757679" d="M330.7,120.3v-5.2h-5.4v-4.2h18.4c0,16.6-0.2,26.8-0.6,30.7c-0.4,3.8-2.5,5.7-6,5.7c-0.7,0-2-0.1-3.8-0.2
			l-1.1-4c1.6,0.2,3,0.2,4.1,0.2c1.6,0,2.5-1.2,2.8-3.6c0.1-1,0.2-3,0.2-6H334c-1.2,6-3.4,10.6-6.7,13.9l-3.2-2.8
			c2.8-2.7,4.7-6.4,5.8-11.1h-4.4v-4.1h5c0.2-1.6,0.2-3.3,0.3-5.1v-0.3h-5.3v-4.1H330.7z M339.5,124.3h-4.7v0.3
			c0,1.8-0.1,3.5-0.2,5.1h4.9C339.5,128.1,339.5,126.3,339.5,124.3z M339.6,115.1h-4.8v5.2h4.7C339.5,118.6,339.5,116.9,339.6,115.1
			z M361.7,110.9v3.3c-1.3,4.2-2.8,8.2-4.4,11.8c3.2,3.7,4.8,6.8,4.9,9.2c0,2.9-0.6,4.9-1.7,5.9c-1.2,1.2-3.6,1.7-7.2,1.7l-1.3-4.6
			c1.6,0.2,3,0.3,4.1,0.3c0.7,0,1.2-0.3,1.4-0.7c0.2-0.4,0.3-1.2,0.4-2.7c0-2.3-1.7-5.4-5.2-9.2c1.4-3.1,2.8-6.7,4.2-11h-6.2v33
			h-4.2v-37.1H361.7z"/>
		<path fill="#757679" d="M390.2,111.9H405v3.7h-30.4v11.5c-0.1,8.5-1.4,15.3-3.8,20.5l-3.3-2.9c1.9-4.2,2.9-10.1,3-17.6v-15.2H386
			c-0.4-0.8-0.8-1.5-1.2-2.1l4.2-0.7C389.4,110,389.8,110.9,390.2,111.9z M379.5,123c-0.1,3.5-1,6.2-2.6,7.9l-2-1.8
			c1.3-1.3,2.1-3.4,2.2-6.2H379.5z M405.1,145.6l-3.4,2.4c-0.6-1-1.2-2-1.9-3c-5.9,1-13.5,1.8-22.8,2.4l-1.1-3.6
			c1.3-0.1,2.5-0.4,3.5-0.7c2.3-1,4.9-2.5,7.6-4.4c-2.8,0.1-5.8,0.2-8.9,0.3l-0.8-3.4c0.9-0.1,1.8-0.4,2.6-0.7
			c1.6-0.7,3.6-2.3,6.1-5.1l4,1c-1.7,1.9-3.5,3.5-5.4,4.8c2.3-0.1,4.6-0.2,6.9-0.3c1.3-1.1,2.7-2.3,4.1-3.6l3.9,1.9
			c-5.1,4.3-9.6,7.5-13.4,9.8c4.4-0.4,8.3-0.9,11.6-1.5c-0.7-1-1.4-1.9-2.2-2.8l3.3-2.1C401.4,140.2,403.6,143.1,405.1,145.6z
			 M380.6,118.6v-2.2h3.7v2.2h4.5v3.2H384v8.4h-3v-8.4h-5.1v-3.2H380.6z M388,123v3.2c0,0.4,0.2,0.6,0.5,0.6h1.5v2.4h-2.5
			c-1.4,0-2.1-0.9-2.1-2.7V123H388z M395.4,118.6v-2.2h3.7v2.2h5.2v3.2h-5.5v8.4h-3v-8.4h-5.5v-3.2H395.4z M394.2,123
			c0,3.3-0.6,5.9-1.8,7.6l-2-1.8c0.8-1.2,1.2-3.2,1.3-5.8H394.2z M402.9,123.1v3.9c0,0.5,0.3,0.7,1,0.7h1.7v2.3H403
			c-1.7,0-2.6-1-2.6-2.8v-4.2H402.9z"/>
		<path fill="#757679" d="M428,120c0.2-2.2,0.4-4.4,0.5-6.7v-3.7h4.4v2.7c0,2.7-0.2,5.3-0.5,7.7h16.7v4.2h-15.7
			c3,8.7,8.5,15.4,16.6,20.1l-2.7,3.6c-7.8-4.8-13.4-11.5-16.5-20.1c-2.8,9.3-8.4,16.1-16.7,20.5l-2.8-3.7
			c8.4-4.1,13.7-10.9,16-20.4h-15V120H428z"/>
		<path fill="#757679" d="M472.2,115.6c1.7,1.5,2.5,3.5,2.5,6c0,2.1-0.5,3.8-1.5,5.1c-0.4,0.4-1.6,1.5-3.6,3.3
			c-0.7,0.6-1.3,1.3-1.7,2c-0.4,0.8-0.6,1.7-0.6,2.7v0.6h-4.8v-0.6c0-1.6,0.2-3,0.8-4.1c0.5-1.1,2.2-2.9,4.9-5.3l0.5-0.6
			c0.7-0.9,1.1-1.9,1.1-3c0-1.4-0.4-2.5-1.2-3.2c-0.8-0.8-1.9-1.2-3.3-1.2c-1.8,0-3.1,0.5-3.9,1.7c-0.7,1-1,2.3-1,4.1h-4.7
			c0-3.1,0.9-5.5,2.7-7.2c1.8-1.7,4.2-2.6,7.3-2.6C468.3,113.4,470.5,114.1,472.2,115.6z M467.2,138.3c0.6,0.6,0.9,1.3,0.9,2.2
			s-0.3,1.7-0.9,2.3c-0.7,0.6-1.4,0.9-2.3,0.9c-0.9,0-1.7-0.3-2.2-0.9c-0.7-0.6-1-1.3-1-2.2s0.3-1.7,1-2.2c0.6-0.6,1.3-0.9,2.2-0.9
			C465.8,137.4,466.6,137.7,467.2,138.3z"/>
	</g>
	<linearGradient id="SVGID_1_" gradientUnits="userSpaceOnUse" x1="66.4118" y1="92.0797" x2="585.2117" y2="92.0797">
		<stop  offset="0" style="stop-color:#B3B5B8"/>
		<stop  offset="1" style="stop-color:#A9ABAE"/>
	</linearGradient>
	<path fill="url(#SVGID_1_)" d="M66.4,90.8c173-1.4,346,0.4,518.7,5.6c-0.1,0,0.2-2.6,0-2.6c-172.7-5.2-345.7-7-518.7-5.6
		C66.4,88.2,66.4,90.8,66.4,90.8L66.4,90.8z"/>
	<linearGradient id="SVGID_2_" gradientUnits="userSpaceOnUse" x1="66.4118" y1="155.69" x2="478.3405" y2="155.69">
		<stop  offset="0" style="stop-color:#B3B5B8"/>
		<stop  offset="1" style="stop-color:#A9ABAE"/>
	</linearGradient>
	<path fill="url(#SVGID_2_)" d="M66.4,154.4c137.3-1.4,274.8,0.4,411.9,5.6c-0.1,0,0.1-2.6,0-2.6c-137.1-5.2-274.5-7-411.9-5.6
		C66.4,151.8,66.4,154.4,66.4,154.4L66.4,154.4z"/>
	<path fill="#FFFFFF" d="M342.1,189c0,0,30.4,45.4,77.6,52.7c0,0-21.7-21.8-13.3-64.4L342.1,189z"/>
</g>
<g>
</g>
<g>
</g>
<g>
</g>
<g>
</g>
<g>
</g>
<g>
</g>
<g>
</g>
<g>
</g>
<g>
</g>
<g>
</g>
<g>
</g>
<g>
</g>
<g>
</g>
<g>
</g>
<g>
</g>
</svg>
