<?xml version="1.0" encoding="utf-8"?>
<!-- Generator: Adobe Illustrator 18.0.0, SVG Export Plug-In . SVG Version: 6.00 Build 0)  -->
<!DOCTYPE svg PUBLIC "-//W3C//DTD SVG 1.1//EN" "http://www.w3.org/Graphics/SVG/1.1/DTD/svg11.dtd">
<svg version="1.1" id="Layer_1" xmlns="http://www.w3.org/2000/svg" xmlns:xlink="http://www.w3.org/1999/xlink" x="0px" y="0px"
	 viewBox="0 0 4016.2 415.7" enable-background="new 0 0 4016.2 415.7" xml:space="preserve">
<g>
	<path fill="#225746" d="M0.8,399.7l60.4-262.3c4.5-10.6,24.4-11.8,31.2-1.9l22.5,32.8c6.9,10,27.1,8.6,31.3-2.1l26.6-68.3
		c4.9-12.5,29.4-11.7,32.8,1l16.3,61.3c3.5,13.2,29.4,13.3,33.1,0.1l27.2-97.7c3.7-13.3,29.7-13.1,33.1,0.2l22.6,89.4
		c3.4,13.5,30,13.4,33.2-0.1l33.4-141.8c3.2-13.7,30.3-13.6,33.3,0.2l42.2,194.3c0.1,0.6,0.2,1.3,0.2,1.9v196.8
		c0,6.8-7.5,12.3-16.9,12.3l-446.4,0C5.5,415.6-2.6,407.6,0.8,399.7z"/>
	<path fill="#006C59" d="M67.9,399.7l60.4-262.3c4.5-10.6,24.4-11.8,31.2-1.9l22.5,32.8c6.9,10,27.1,8.6,31.3-2.1l26.6-68.3
		c4.9-12.5,29.4-11.7,32.8,1l16.3,61.3c3.5,13.2,29.4,13.3,33.1,0.1l27.2-97.7c3.7-13.3,29.7-13.1,33.1,0.2l22.6,89.4
		c3.4,13.5,30,13.4,33.2-0.1l33.4-141.8c3.2-13.7,30.3-13.6,33.3,0.2L547,204.7c0.1,0.6,0.2,1.3,0.2,1.9v196.8
		c0,6.8-7.5,12.3-16.9,12.3l-446.4,0C72.6,415.6,64.5,407.6,67.9,399.7z"/>
</g>
<g>
	<path fill="#89B79C" d="M3128.9,249l-25.5,85.2c-1.6,5.3,1.4,10.9,6.7,12.5c5.3,1.6,10.9-1.4,12.5-6.7l25.5-85.2l-9.6-2.9
		L3128.9,249z"/>
	<path fill="#89B79C" d="M3152.3,205.8l5.2,1.6c1.5,0.4,3,0.8,4.5,1l2-6.7c-3.3-0.1-6.7-0.6-10-1.6c-3.3-1-6.4-2.4-9.2-4.2l-2,6.7
		c1.4,0.6,2.8,1.2,4.3,1.6L3152.3,205.8z"/>
	<path fill="#89B79C" d="M3153.9,235.6l2.4-7.9c-1.5-0.3-3-0.7-4.5-1.1l-5.2-1.6l-5.2-1.6c-1.5-0.4-2.9-1-4.3-1.5l-2.4,7.9l9.6,2.9
		L3153.9,235.6z"/>
	<path fill="#89B79C" d="M3170.2,180.8l9.1-30.4c1.6-5.3-1.4-10.9-6.7-12.5s-10.9,1.4-12.5,6.7l-9.1,30.4c2.2,2.7,5.1,4.8,8.7,5.9
		C3163.3,182.1,3166.9,181.9,3170.2,180.8z"/>
	<path fill="#89B79C" d="M3151,175.1c-3.4-4.3-4.8-10.2-3.1-15.9l4.3-14.3c1.6-5.3-1.4-10.9-6.7-12.5c-5.3-1.6-10.9,1.4-12.5,6.7
		l-4.3,14.3c-4.9,16.5,2.1,33.8,16,42.5l2.5-8.3L3151,175.1z"/>
	<path fill="#68AF9C" d="M3147.2,187.7l-2.5,8.3c2.8,1.8,5.9,3.2,9.2,4.2C3148.7,198.6,3145.7,193,3147.2,187.7z"/>
	<path fill="#68AF9C" d="M3159.7,181c-3.6-1.1-6.5-3.2-8.7-5.9l-3.8,12.6C3148.8,182.4,3154.4,179.4,3159.7,181z"/>
	<path fill="#89B79C" d="M3142.8,202.7c-16.8-7.4-25.9-26.3-20.5-44.3l6.1-20.6c1.6-5.3-1.4-10.9-6.7-12.5
		c-5.3-1.6-10.9,1.4-12.5,6.7l-6.1,20.6c-8.5,28.6,6.6,58.7,33.9,69.4l2.8-9.4L3142.8,202.7z"/>
	<path fill="#68AF9C" d="M3152.3,205.8l-5.2-1.6c-1.5-0.4-2.9-1-4.3-1.6l-3,9.9C3141.4,207.2,3147,204.2,3152.3,205.8z"/>
	<path fill="#68AF9C" d="M3146.6,225c-5.3-1.6-8.3-7.2-6.7-12.5l-2.8,9.4c1.4,0.5,2.9,1.1,4.3,1.5L3146.6,225z"/>
	<path fill="#89B79C" d="M3134.7,229.8l-3.1-0.9c-29.2-8.7-45.9-39.6-37.1-68.8l8.9-29.8c1.6-5.3-1.4-10.9-6.7-12.5
		c-5.3-1.6-10.9,1.4-12.5,6.7l-8.9,29.8c-11.9,39.8,10.8,81.8,50.6,93.7l3.1,0.9l2.9-9.6L3134.7,229.8z"/>
	<path fill="#68AF9C" d="M3131.8,239.4l-2.9,9.6l9.6,2.9C3133.2,250.3,3130.2,244.7,3131.8,239.4z"/>
	<path fill="#68AF9C" d="M3144.3,232.7l-9.6-2.9l-2.9,9.6C3133.4,234.1,3139,231.1,3144.3,232.7z"/>
	<path fill="#89B79C" d="M3164,201.7c16.4,0.3,31.8-10.3,36.7-26.8l4.3-14.3c1.6-5.3-1.4-10.9-6.7-12.5c-5.3-1.6-10.9,1.4-12.5,6.7
		l-4.3,14.3c-1.7,5.7-6,9.9-11.3,11.6l-3.8,12.6L3164,201.7z"/>
	<path fill="#68AF9C" d="M3154,200.2c3.3,1,6.7,1.5,10,1.6l2.5-8.3C3164.9,198.8,3159.3,201.8,3154,200.2z"/>
	<path fill="#68AF9C" d="M3166.4,193.5l3.8-12.6c-3.3,1.1-6.9,1.2-10.5,0.2C3165,182.6,3168,188.2,3166.4,193.5z"/>
	<circle fill="#9DBC9B" cx="3156.8" cy="190.6" r="10"/>
	<path fill="#89B79C" d="M3156.2,227.7c28.7,6.1,57.9-10.8,66.4-39.4l6.1-20.6c1.6-5.3-1.4-10.9-6.7-12.5
		c-5.3-1.6-10.9,1.4-12.5,6.7l-6.1,20.6c-5.4,18-23.4,28.9-41.4,25.8l-3,9.9L3156.2,227.7z"/>
	<path fill="#68AF9C" d="M3146.6,225l5.2,1.6c1.5,0.4,3,0.8,4.5,1.1l2.8-9.4C3157.4,223.6,3151.9,226.6,3146.6,225z"/>
	<path fill="#68AF9C" d="M3152.3,205.8c5.3,1.6,8.3,7.2,6.7,12.5l3-9.9c-1.5-0.3-3-0.6-4.5-1L3152.3,205.8z"/>
	<circle fill="#9DBC9B" cx="3149.4" cy="215.4" r="10"/>
	<path fill="#89B79C" d="M3247.1,162.8c-5.3-1.6-10.9,1.4-12.5,6.7l-8.9,29.8c-8.7,29.2-39.6,45.9-68.8,37.1l-3.1-0.9l-2.9,9.6
		l-2.9,9.6l3.1,0.9c39.8,11.9,81.8-10.8,93.7-50.6l8.9-29.8C3255.4,169.9,3252.4,164.4,3247.1,162.8z"/>
	<path fill="#68AF9C" d="M3151,245.2l2.9-9.6l-9.6-2.9C3149.6,234.3,3152.6,239.9,3151,245.2z"/>
	<path fill="#68AF9C" d="M3138.5,251.9l9.6,2.9l2.9-9.6C3149.4,250.5,3143.8,253.5,3138.5,251.9z"/>
	<circle fill="#9DBC9B" cx="3141.4" cy="242.3" r="10"/>
</g>
<g>
	<path fill="#89B79C" d="M2963.2,178.5l25.5,77c1.6,4.8,6.8,7.4,11.5,5.8c4.8-1.6,7.4-6.8,5.8-11.5l-25.5-77l-8.7,2.9L2963.2,178.5z
		"/>
	<path fill="#89B79C" d="M2958.1,134.1l4.7-1.6c1.3-0.4,2.6-1,3.9-1.6l-2-6c-2.5,1.7-5.3,3.1-8.3,4.1s-6,1.5-9.1,1.7l2,6
		c1.4-0.3,2.7-0.6,4.1-1.1L2958.1,134.1z"/>
	<path fill="#89B79C" d="M2974.8,155.5l-2.4-7.1c-1.3,0.5-2.6,1-3.9,1.5l-4.7,1.6l-4.7,1.6c-1.3,0.4-2.7,0.8-4,1.1l2.4,7.1l8.7-2.9
		L2974.8,155.5z"/>
	<path fill="#89B79C" d="M2958.5,106l-9.1-27.4c-1.6-4.8-6.8-7.4-11.5-5.8c-4.8,1.6-7.4,6.8-5.8,11.5l9.1,27.4
		c3,0.9,6.4,0.9,9.6-0.1C2953.9,110.6,2956.6,108.6,2958.5,106z"/>
	<path fill="#89B79C" d="M2941.1,111.8c-4.8-1.4-8.9-5.1-10.6-10.3l-4.3-12.9c-1.6-4.8-6.8-7.4-11.5-5.8s-7.4,6.8-5.8,11.5l4.3,12.9
		c4.9,14.9,19.2,24.2,34.2,23.4l-2.5-7.5L2941.1,111.8z"/>
	<path fill="#68AF9C" d="M2944.9,123.2l2.5,7.5c3-0.1,6.1-0.7,9.1-1.7C2951.7,130.6,2946.5,128,2944.9,123.2z"/>
	<path fill="#68AF9C" d="M2950.7,111.6c-3.2,1.1-6.5,1-9.6,0.1l3.8,11.4C2943.3,118.4,2945.9,113.2,2950.7,111.6z"/>
	<path fill="#89B79C" d="M2949.4,136.7c-16.4,3.2-33.1-6.2-38.5-22.4l-6.1-18.6c-1.6-4.8-6.8-7.4-11.5-5.8
		c-4.8,1.6-7.4,6.8-5.8,11.5l6.1,18.6c8.5,25.8,35.6,40.5,61.6,34.1l-2.8-8.5L2949.4,136.7z"/>
	<path fill="#68AF9C" d="M2958.1,134.1l-4.7,1.6c-1.3,0.4-2.7,0.8-4.1,1.1l3,8.9C2950.7,140.8,2953.3,135.6,2958.1,134.1z"/>
	<path fill="#68AF9C" d="M2963.9,151.4c-4.8,1.6-10-1-11.5-5.8l2.8,8.5c1.3-0.3,2.7-0.7,4-1.1L2963.9,151.4z"/>
	<path fill="#89B79C" d="M2957.5,161.2l-2.8,0.9c-26.4,8.7-55-5.6-63.7-32l-8.9-26.9c-1.6-4.8-6.8-7.4-11.5-5.8s-7.4,6.8-5.8,11.5
		l8.9,26.9c11.9,36,50.8,55.5,86.8,43.6l2.8-0.9l-2.9-8.7L2957.5,161.2z"/>
	<path fill="#68AF9C" d="M2960.4,169.9l2.9,8.7l8.7-2.9C2967.1,177.3,2961.9,174.7,2960.4,169.9z"/>
	<path fill="#68AF9C" d="M2966.2,158.3l-8.7,2.9l2.9,8.7C2958.8,165.1,2961.4,159.9,2966.2,158.3z"/>
	<path fill="#89B79C" d="M2964.7,124.9c12.5-8.3,18.4-24.3,13.5-39.2l-4.3-12.9c-1.6-4.8-6.8-7.4-11.5-5.8
		c-4.8,1.6-7.4,6.8-5.8,11.5l4.3,12.9c1.7,5.1,0.6,10.5-2.4,14.5l3.8,11.4L2964.7,124.9z"/>
	<path fill="#68AF9C" d="M2956.4,129c3-1,5.8-2.4,8.3-4.1l-2.5-7.5C2963.8,122.2,2961.2,127.4,2956.4,129z"/>
	<path fill="#68AF9C" d="M2962.2,117.4l-3.8-11.4c-1.9,2.5-4.5,4.5-7.8,5.6C2955.5,110,2960.7,112.6,2962.2,117.4z"/>
	<circle fill="#9DBC9B" cx="2953.6" cy="120.3" r="9.1"/>
	<path fill="#89B79C" d="M2972.5,148.4c24.7-10.4,37.6-38.3,29.1-64.1l-6.1-18.6c-1.6-4.8-6.8-7.4-11.5-5.8
		c-4.8,1.6-7.4,6.8-5.8,11.5l6.1,18.6c5.4,16.3-2.4,33.8-17.5,40.9l3,8.9L2972.5,148.4z"/>
	<path fill="#68AF9C" d="M2963.9,151.4l4.7-1.6c1.3-0.4,2.6-0.9,3.9-1.5l-2.8-8.5C2971.2,144.7,2968.6,149.8,2963.9,151.4z"/>
	<path fill="#68AF9C" d="M2958.1,134.1c4.8-1.6,10,1,11.5,5.8l-3-8.9c-1.2,0.6-2.5,1.1-3.9,1.6L2958.1,134.1z"/>
	<circle fill="#9DBC9B" cx="2961" cy="142.7" r="9.1"/>
	<path fill="#89B79C" d="M3006.5,52.4c-4.8,1.6-7.4,6.8-5.8,11.5l8.9,26.9c8.7,26.4-5.6,55-32,63.7l-2.8,0.9l2.9,8.7l2.9,8.7
		l2.8-0.9c35.9-11.9,55.5-50.8,43.6-86.8l-8.9-26.9C3016.5,53.4,3011.3,50.8,3006.5,52.4z"/>
	<path fill="#68AF9C" d="M2977.7,164.1l-2.9-8.7l-8.7,2.9C2970.9,156.8,2976.1,159.4,2977.7,164.1z"/>
	<path fill="#68AF9C" d="M2971.9,175.7l8.7-2.9l-2.9-8.7C2979.3,168.9,2976.7,174.1,2971.9,175.7z"/>
	<circle fill="#9DBC9B" cx="2969" cy="167" r="9.1"/>
</g>
<g>
	<path fill="none" stroke="#3A867D" stroke-miterlimit="10" d="M1963.6,136.8"/>
	
		<ellipse transform="matrix(0.8853 0.465 -0.465 0.8853 304.4853 -905.9196)" fill="#EDA939" cx="1988.9" cy="164.3" rx="60.7" ry="52.7"/>
	<path fill="#D54F51" d="M2067.6,174.4c1.7-6.6-2.2-13.3-8.8-15c-6.6-1.7-13.3,2.2-15,8.8c-3.3,12.7-9.2,21.1-18.1,25.9
		c-2.1,1.1-4.4,2-6.7,2.7c8.3-9.3,15.7-22.3,19.7-40.4c1.4-6.6-2.8-13.2-9.4-14.6c-6.6-1.4-13.2,2.8-14.6,9.4
		c-3.4,15.7-10.3,25.8-17.1,32.4l7.7-38c1.4-6.7-2.9-13.2-9.6-14.5c-6.7-1.4-13.2,2.9-14.5,9.6l-8.9,43.9
		c-13-19.6-0.4-37.9,1.3-40.2c4.1-5.4,3.1-13.1-2.3-17.2c-5.4-4.2-13.1-3.1-17.3,2.3c-6.3,8.2-12.7,22.4-12.3,38.5
		c-2.2-2.9-3.6-5.6-4.5-7.9c-3.1-8.7,0.3-15,0.3-15c3.6-5.8,1.8-13.4-4-16.9c-5.7-3.5-13.4-1.8-16.9,4c-1,1.6-9.3,16-2.9,35.2
		c5.4,16.2,19.5,30.3,42,42.1c3.8,2,7.9,3.9,12.1,5.7c0,0,0.1,0,0.1,0.1c0.7,0.4,1.4,0.6,2.1,0.8c1.9,0.8,3.8,1.7,5.8,2.4
		c0,0,0.1,0,0.1,0c0.1,0,0.2,0.1,0.2,0.1c1.4,0.5,33.9,11.7,61.1-2.7C2052.2,207.8,2062.5,193.8,2067.6,174.4z"/>
	<path fill="#D54F51" d="M1911.7,326.8c0.2-1.2,6.1-29.3,33.1-66.7c22-30.5,18.5-51.2,18.4-51.4l24.1-5c0.6,3.1,5.5,31.8-22.6,70.8
		c-23.9,33.2-28.9,57-28.9,57.2L1911.7,326.8z"/>
</g>
<g>
	<path fill="none" stroke="#3A867D" stroke-miterlimit="10" d="M1798.5,123"/>
	
		<ellipse transform="matrix(0.9924 0.123 -0.123 0.9924 31.0956 -224.1672)" fill="#EDA939" cx="1831.8" cy="139.9" rx="60.7" ry="52.7"/>
	<path fill="#D54F51" d="M1909,121.5c-0.7-6.8-6.8-11.7-13.5-11c-6.8,0.7-11.7,6.8-11,13.5c1.4,13-1.2,23-7.8,30.6
		c-1.6,1.8-3.4,3.4-5.3,4.9c4.5-11.6,6.9-26.4,4.1-44.8c-1-6.7-7.3-11.4-14-10.4c-6.7,1-11.4,7.3-10.4,14
		c2.4,15.9-0.5,27.8-4.6,36.3l-6.2-38.3c-1.1-6.7-7.4-11.3-14.1-10.2c-6.7,1.1-11.3,7.4-10.2,14.1l7.1,44.2
		c-19.1-13.7-13.8-35.3-12.9-38.1c1.9-6.5-1.7-13.3-8.2-15.3c-6.6-2-13.4,1.7-15.4,8.2c-3,9.8-4,25.4,2.1,40.3c-3-1.9-5.4-3.9-7-5.8
		c-6-7-5-14.1-5-14.2c1.3-6.7-3.1-13.1-9.7-14.4c-6.6-1.3-13.1,3.1-14.4,9.7c-0.4,1.8-3.1,18.3,9.8,34c10.8,13.3,29,21.5,54.1,24.6
		c4.2,0.5,8.7,0.9,13.4,1.1c0,0,0.1,0,0.1,0c0.8,0.1,1.5,0.1,2.2,0.1c2.1,0.1,4.1,0.2,6.3,0.2c0,0,0.1,0,0.1,0c0.1,0,0.2,0,0.3,0
		c1.5,0,35.9-1,56.2-24.1C1906.4,158.2,1911.1,141.5,1909,121.5z"/>
	<path fill="#D54F51" d="M1816.9,319.1c-0.2-1.2-4.6-29.5,7.4-74.1c9.8-36.3-0.8-54.4-0.9-54.6l20.8-13.2
		c1.7,2.7,16.4,27.8,3.8,74.2c-10.7,39.5-6.9,63.5-6.9,63.7L1816.9,319.1z"/>
</g>
<path fill="#75B191" d="M1279.3,243.7c-25.2-42.9-71.2-46-99.2-6.6l0,0c-28,39.4-74,36.3-99.2-6.6l-2.1-3.6
	c-24.2-41.2-70.1-36-89.3,10.2l-18.3,44.2c-13.2,31.8-44.9,35.4-61.5,7l-51.9-88.4c-24.8-42.2-73.4-17.6-73.4,37.2v0
	c0,54.7-48.7,79.4-73.4,37.2l-27.8-47.4c-24.2-41.2-70.1-36-89.3,10.2l-56.1,135.4h190.5h40.3h164.8h25.7H1124h40.3h190.5
	L1279.3,243.7z"/>
<g>
	<g>
		<path fill="#3A867D" d="M3990.4,271L3990.4,271c-8,0-15,3.9-19.5,9.8v-19c0-13.4-10.9-24.3-24.3-24.3l0,0
			c-5.9,0-11.4,2.2-15.7,5.7v-18.6c0-13.4-10.9-24.3-24.3-24.3h0c-13.4,0-24.3,10.9-24.3,24.3v14.1c-2.4-0.8-5-1.3-7.7-1.3
			c-13.4,0-24.3,10.9-24.3,24.3v9.9c-1.9-0.5-3.8-0.7-5.8-0.7c-13.4,0-24.3,10.9-24.3,24.3v0.4v50.7v24.3h86.5h0h40l0,0h43.8l0,0
			h24.3v-24.3v-50.7v-0.4C4014.7,282,4003.8,271,3990.4,271z"/>
		<g>
			<path fill="#61958C" d="M3991.8,270.7c-8.5,0-17.1,4-22.4,10.6c1-0.3,1.9-0.5,2.9-0.8c0-11.3,2-24.1-5-33.8
				c-8.9-12.2-26.8-11.8-37.9-3c1-0.3,1.9-0.5,2.9-0.8c0-7.1,0.4-14.3-0.2-21.3c-1.1-13.5-14-22.5-26.9-21.4
				c-8.9,0.8-17.1,5.7-21.6,13.5c-4.3,7.5-2.9,17.3-2.9,25.6c1-0.3,1.9-0.5,2.9-0.8c-8.9-2.7-19.2-0.5-26.4,5.3
				c-9,7.3-8.6,18-8.6,28.4c1-0.3,1.9-0.5,2.9-0.8c-16.1-3.5-33,7.8-33,25c0,12.9,0,25.9,0,38.8c0,10.3,0,20.6,0,30.9
				c0,0.3,0,5.2,0,5.2c0.9,0,1.9,0,2.8,0c5.3,0,10.6,0,15.9,0c47.6,0,95.2,0,142.8,0c11,0,22.1,0,33.1,0c0.3,0,2.9-0.7,2.9-0.8
				c0-15.4,0-30.8,0-46.3c0-9.3,0-18.6,0-27.9C4016.2,282.3,4006,271.1,3991.8,270.7c-1,0-1.9,0.8-2.9,0.8
				c14,0.4,24.3,11.4,24.3,25.3c0,9.1,0,18.2,0,27.2c0,15.7,0,31.5,0,47.2c1-0.3,1.9-0.5,2.9-0.8c-40.9,0-81.9,0-122.8,0
				c-15.7,0-31.4,0-47,0c-6.3,0-12.5,0-18.8,0c-1.4,0-6,0.9-6-0.8c0-24,0-48,0-71.9c0-15.2,10.6-29.1,27.2-25.5
				c0.3,0.1,2.9-0.7,2.9-0.8c0-6.4-0.5-12.9,1.8-19c4.3-11.3,16.1-16.6,27.4-13.1c0.2,0.1,2.9-0.7,2.9-0.8c0-6.4-0.6-13.2,0.6-19.5
				c2.4-12.2,14.3-20,26.2-17.6c11,2.2,19,12.8,19,23.8c0,6.2,0,12.3,0,18.5c0-0.2,2.6-0.5,2.9-0.8c13.2-10.5,31.3-2.6,36.2,12.7
				c2.5,7.8,0.9,17.6,0.9,25.7c0-0.3,2.6-0.5,2.9-0.8c4.1-5.2,9.7-9,16.6-9C3989.9,271.4,3990.9,270.7,3991.8,270.7z"/>
		</g>
	</g>
	<g>
		<path fill="#61958C" d="M3957.5,259.9c0.1,0.5-2.4,8.9-3.9,17.4c-0.4,2.1-0.7,4.3-1,6.3c-0.1,0.8-0.2,1.6-0.3,2.4l0,0.2
			c0,0,0,0,0,0l-0.9,0l-1.1,0l-0.1,0l-0.1,0c4.6,0,1.3,0,2.3,0v0l0,0l0,0l0-0.1l0,0c-0.1,0.1-0.1,0.1-0.1,0.1
			c-2.6,0.8-5.6,1.4-8.6,1.4c0.1-0.3,0.2-0.6,0.4-0.9c0.1-0.1,0.2-0.3,0.3-0.4c0.1-0.1,0.2-0.1,0.3-0.3c0.2-0.3,0.4-0.6,0.7-1.1
			l0.8-2c1.1-2.7,2.2-5.3,3.4-7.9C3951.9,269.6,3954.6,264.7,3957.5,259.9z"/>
		<path fill="#61958C" d="M3945.7,261c0.1,0.4-1.9,7.7-3.1,15c-0.3,1.8-0.6,3.7-0.8,5.4c-0.2,1.7-0.5,3.5-0.5,4.2c0,0.4,0,0.6,0,0.9
			c0,0.3,0,0.5,0,0.7c0.1,0.4,0.1,0.6,0.1,0.6c-2.4,0-4.8-0.3-7.2-0.9c0.1-0.5,0.3-0.9,0.4-1.4l0.6-1.5l1.3-3.4
			c0.9-2.3,1.8-4.6,2.8-6.8C3941.2,269.5,3943.4,265.2,3945.7,261z"/>
		<path fill="#61958C" d="M3934.6,262.1c0.1,0.3-1.5,6.6-2.5,12.9c-0.5,3.1-1,6.3-1.2,8.6c-0.1,1.1-0.2,2-0.2,2.7c0,0.6,0,1,0,1
			c-1.9-0.5-3.8-1.3-5.6-2.2c0.3-1.1,0.6-2.2,1-3.1l1.1-2.9c0.7-1.9,1.5-3.9,2.3-5.8C3931.1,269.4,3932.8,265.7,3934.6,262.1z"/>
		<path fill="#61958C" d="M3925.3,262.6c0,0.3-1.1,5.6-2,10.8c-0.9,5.3-1.5,10.5-1.5,10.7c-1.4-0.8-2.9-1.7-4.3-2.4
			C3919.7,275.1,3922.3,268.7,3925.3,262.6z"/>
		<path fill="#61958C" d="M3916.9,262.9c0,0.2-0.9,4.7-1.6,9.1c-0.7,4.4-1.3,8.8-1.3,8.8l-3.4-1.9
			C3912.5,273.5,3914.6,268.1,3916.9,262.9z"/>
		<path fill="#61958C" d="M3910.5,263c0,0.2-0.7,3.9-1.3,7.5c-0.6,3.6-1.1,7.3-1.1,7.3l-2.7-1.6
			C3906.9,271.7,3908.6,267.3,3910.5,263z"/>
	</g>
	<g>
		<path fill="#61958C" d="M3881.5,275.6c0.2,0.2,0.8,4.4,2.2,8.3c0.2,0.5,0.4,1,0.6,1.5c0.3,0.8,0.6,1.5,1,2.3
			c0.4,1,0.9,2.2,1.4,3.6c0.2,0.6,0.5,1.5,0.7,2.2c0.2,0.7,0.4,1.3,0.5,1.9c0.6,2.4,0.8,4.5,0.9,6c0,0.7,0.1,1.3,0.1,1.7
			c0,0.4,0,0.6,0,0.6c-3-1.2-6-2.2-9-2.8c0.2-1.8,0.1-3.5-0.1-5.4c-0.3-2-0.6-3.6-0.7-5c-0.2-1.4-0.2-2.3-0.2-3.1
			c0.1-0.8,0.1-1.7,0.2-2.5C3879.6,281.4,3880.4,278.3,3881.5,275.6z"/>
		<path fill="#61958C" d="M3870.9,279.7c0.2,0.2,1,4.5,2.6,8.5c0.4,1.1,0.7,1.9,1.3,3.2c0.5,1.3,1.2,2.8,1.7,4.4
			c0.5,1.6,0.8,2.8,0.9,3.7c0.2,0.9,0.2,1.4,0.2,1.4c-2.4-0.5-4.9-0.8-7.3-0.9c0.1-1.1,0-2.2-0.1-3.3l-0.3-3
			c-0.1-0.9-0.1-1.8-0.1-2.5c0-0.8,0-1.6,0-2.4C3869.9,285.6,3870.3,282.6,3870.9,279.7z"/>
		<path fill="#61958C" d="M3861.2,284.3c0.2,0.2,1.1,4.3,2.7,8.2c0.7,1.9,1.7,3.9,2.3,5.5c0.3,0.8,0.5,1.6,0.7,2
			c0.1,0.5,0.2,0.8,0.2,0.8c-1.9,0-3.9,0.1-5.8,0.3c0.2-2.4-0.3-5.5-0.4-8.4C3860.8,289.9,3860.9,287.1,3861.2,284.3z"/>
		<path fill="#61958C" d="M3852.9,288.3c0.2,0.2,1.2,3.9,2.6,7.5c0.3,0.9,0.7,1.8,1.1,2.6c0.3,0.7,0.6,1.4,0.8,2
			c0.4,1.1,0.6,1.6,0.6,1.6c-1.5,0.3-3,0.6-4.5,0.9c0.1-0.8,0-1.9-0.1-3.1c-0.1-1.3-0.3-2.6-0.4-3.9
			C3852.8,293.4,3852.8,290.8,3852.9,288.3z"/>
		<path fill="#61958C" d="M3845.6,292c0.1,0.1,1.1,3.5,2.4,6.7c0.6,1.6,1.4,3.3,1.7,4.1c0.4,0.9,0.5,1.2,0.5,1.2l-3.5,0.9
			c0.1-1.3-0.5-4-0.7-6.2C3845.7,296.5,3845.6,294.3,3845.6,292z"/>
		<path fill="#61958C" d="M3839.9,294.9c0.1,0.1,1,3,2.1,5.8c0.5,1.4,1.1,2.8,1.5,3.7c0.3,0.8,0.5,1.3,0.5,1.3
			c-0.9,0.2-1.9,0.4-2.9,0.6c0-0.2,0-0.4-0.1-0.6c0-0.2,0-0.4-0.1-0.6l-0.2-1.5c-0.1-1-0.3-1.9-0.4-2.9
			C3840.1,298.8,3839.9,296.9,3839.9,294.9z"/>
	</g>
	<g>
		<path fill="#61958C" d="M3882,317.5c0.3,0.3,1.9,6.8,3,13.3c1.1,6.5,1.6,13,1.6,13c-3-0.4-6-0.7-9-1
			C3879.7,334.6,3881.2,326.2,3882,317.5z"/>
		<path fill="#61958C" d="M3872,323.1c0.2,0.2,1.4,5.1,2.1,10c0.8,4.9,1.3,9.8,1.3,9.8c-2.4-0.2-4.8-0.5-7.2-0.6
			C3869.8,336.1,3871.1,329.7,3872,323.1z"/>
		<path fill="#61958C" d="M3862.3,327.8c0.2,0.1,1,3.9,1.6,7.6c0.6,3.7,1,7.4,1,7.4l-5.7-0.4
			C3860.4,337.6,3861.5,332.8,3862.3,327.8z"/>
		<path fill="#61958C" d="M3853.8,331.2c0.1,0.1,0.7,2.9,1.2,5.8c0.5,2.8,0.8,5.6,0.8,5.6l-4.6-0.2
			C3852.2,338.7,3853,335,3853.8,331.2z"/>
		<path fill="#61958C" d="M3846.1,334c0.1,0.1,0.5,2.2,0.9,4.4c0.3,2.1,0.6,4.3,0.6,4.3l-3.7-0.1
			C3844.8,339.7,3845.5,336.8,3846.1,334z"/>
		<path fill="#61958C" d="M3840.1,335.9c0.1,0.1,0.4,1.7,0.7,3.4c0.3,1.6,0.5,3.3,0.5,3.3l-2.9-0.1
			C3838.9,340.3,3839.5,338.1,3840.1,335.9z"/>
	</g>
	<g>
		<path fill="#61958C" d="M3943,322.6c0.3,0.2,1.4,5.4,2,10.5c0.7,5.1,0.9,10.3,0.9,10.3c-3-0.3-5.9-0.6-8.9-0.8
			C3939.4,336.2,3941.5,329.6,3943,322.6z"/>
		<path fill="#61958C" d="M3932.7,327.3c0.2,0.2,1,4,1.4,7.8c0.5,3.8,0.7,7.6,0.7,7.6c-2.4-0.2-4.7-0.4-7.1-0.5
			C3929.6,337.4,3931.3,332.5,3932.7,327.3z"/>
		<path fill="#61958C" d="M3922.7,331.1c0.2,0.1,0.7,3,1,5.8c0.3,2.8,0.5,5.7,0.5,5.7l-5.7-0.3
			C3920.1,338.7,3921.5,335,3922.7,331.1z"/>
		<path fill="#61958C" d="M3914,333.9c0.1,0.1,0.5,2.2,0.7,4.3c0.3,2.1,0.4,4.2,0.4,4.2l-4.5-0.1
			C3911.9,339.6,3913,336.8,3914,333.9z"/>
		<path fill="#61958C" d="M3906.3,336.2c0.1,0.1,0.4,1.7,0.5,3.2c0.2,1.6,0.3,3.2,0.3,3.2l-3.6,0
			C3904.4,340.5,3905.4,338.4,3906.3,336.2z"/>
		<path fill="#61958C" d="M3900.1,337.8c0.1,0,0.3,1.3,0.4,2.5c0.1,1.2,0.2,2.4,0.2,2.4l-2.9,0
			C3898.6,341.1,3899.4,339.5,3900.1,337.8z"/>
	</g>
	<g>
		<path fill="#61958C" d="M3997.5,300c0.1,0.1,0.6,2,1.1,4.7c0.4,2.7,0.8,6.2,0.8,9.8c0,3.5-0.3,7-0.7,9.6c-0.4,2.6-0.8,4.3-0.8,4.3
			c-2.7-1.3-5.5-2.5-8.3-3.6C3993.8,317.7,3996.6,309.3,3997.5,300z"/>
		<path fill="#61958C" d="M3987.3,305.3c0.2,0.2,1.1,5,1,9.7c0,2.4-0.2,4.7-0.4,6.5c-0.2,1.8-0.4,2.9-0.4,2.9
			c-2.2-0.9-4.5-1.6-6.8-2.4C3983.7,317.2,3986,311.5,3987.3,305.3z"/>
		<path fill="#61958C" d="M3977.3,309.1c0.2,0.1,0.6,3.3,0.5,6.4c0,1.6-0.1,3.1-0.3,4.3c-0.1,1.1-0.3,1.9-0.3,1.9
			c-1.8-0.6-3.6-1.1-5.5-1.5C3974,316.9,3975.9,313.2,3977.3,309.1z"/>
		<path fill="#61958C" d="M3968.5,311.4c0.1,0.1,0.3,2.1,0.3,4.2c0,2-0.3,4-0.3,4c-1.5-0.4-2.9-0.7-4.4-1
			C3965.7,316.5,3967.2,314.1,3968.5,311.4z"/>
		<path fill="#61958C" d="M3960.5,313c0.1,0.1,0.2,1.4,0.1,2.7c0,1.3-0.2,2.5-0.2,2.5c-1.2-0.2-2.4-0.4-3.6-0.6
			C3958.2,316.2,3959.4,314.7,3960.5,313z"/>
		<path fill="#61958C" d="M3954.3,314c0.1,0,0.1,0.9,0.1,1.7c0,0.8-0.1,1.6-0.1,1.6l-2.9-0.4C3952.4,316.1,3953.4,315.1,3954.3,314z
			"/>
	</g>
</g>
<g>
	<circle fill="#1D7D72" cx="1202.1" cy="263.7" r="9.3"/>
	<circle fill="#1D7D72" cx="1236.2" cy="257.6" r="9.3"/>
	<circle fill="#1D7D72" cx="1230.1" cy="285.1" r="12.6"/>
</g>
<circle fill="#1D7D72" cx="658.6" cy="288.3" r="9.3"/>
<circle fill="#1D7D72" cx="688.3" cy="270.3" r="9.3"/>
<circle fill="#1D7D72" cx="692.5" cy="298.2" r="12.6"/>
<g>
</g>
<g>
</g>
<g>
</g>
<g>
</g>
<g>
</g>
<g>
</g>
<g>
</g>
<g>
</g>
<g>
</g>
<g>
</g>
<g>
</g>
<g>
</g>
<g>
</g>
<g>
</g>
<g>
</g>
</svg>
