<?xml version="1.0" encoding="utf-8"?>
<!-- Generator: Adobe Illustrator 18.0.0, SVG Export Plug-In . SVG Version: 6.00 Build 0)  -->
<!DOCTYPE svg PUBLIC "-//W3C//DTD SVG 1.1//EN" "http://www.w3.org/Graphics/SVG/1.1/DTD/svg11.dtd">
<svg version="1.1" id="Layer_1" xmlns="http://www.w3.org/2000/svg" xmlns:xlink="http://www.w3.org/1999/xlink" x="0px" y="0px"
	 viewBox="0 0 1140.3 675.2" enable-background="new 0 0 1140.3 675.2" xml:space="preserve">
<path opacity="0.88" fill="#FFFFFF" d="M1140.3,666.8v-45.2c0,29.6-38.3,53.6-85.5,53.6H85.5c-47.2,0-85.5-24-85.5-53.6V298h1140.3
	V666.8z"/>
<g>
	<path fill="#58595B" d="M98.4,361.6l-1.6,1.5c-1.3-2-3-4.1-5.2-6.4l1.5-1.4C95.2,357.4,97,359.5,98.4,361.6z M98.3,367.2
		c-1.4,5.4-2.9,10.5-4.5,15.3l-2-0.8c1.8-5,3.3-10.1,4.7-15.2L98.3,367.2z M99.3,351.4l-1.5,1.5c-1.4-2-3.2-4.1-5.4-6.3l1.5-1.4
		C96,347.2,97.8,349.3,99.3,351.4z M104.9,349v-4.2h2.1v4.2h5.2v2H107v4.1h4.1v14.7H107v4.5h5.2v2H107v6.8h-2.1v-6.8h-5.7v-2h5.7
		v-4.5h-4.1v-14.7h4.1V351h-5.2v-2H104.9z M109.1,361.6V357h-6.3v4.6H109.1z M109.1,363.4h-6.3v4.6h6.3V363.4z M122,344.6
		c1.6,3.5,4.3,6.6,8.1,9.3l-1.2,1.8c-3.5-2.5-6.2-5.4-8-9.1c-2.1,3.9-4.8,7-8,9.1l-1.1-1.8c3.5-2.4,6.2-5.4,8.1-9.3H122z
		 M113.8,380.8l2.2,0.1c1.1,0,1.6-0.6,1.6-1.8v-6.3c-1.4,1.7-2.9,3.3-4.6,4.7l-0.8-1.9c2.1-1.6,3.8-3.5,5.4-5.6v-11.1h-4.5v-2h6.4
		v22.8c0,2-1.1,3-3.1,3h-2.1L113.8,380.8z M116.3,368.5l-1.4,0.7c-0.6-2.7-1.3-5.1-2.1-7.1l1.4-0.5
		C115,363.7,115.7,366.1,116.3,368.5z M122.3,380.8l2.4,0.1c0.9,0,1.4-0.6,1.4-1.7v-7.1c-1.5,1.8-3.2,3.4-5.2,4.9l-0.8-1.9
		c2.3-1.6,4.3-3.4,6-5.6v-10.6h-4.8v-2h6.8v22.8c0,1.9-1,3-3,3h-2.3L122.3,380.8z M124.6,368.3l-1.5,0.7c-0.6-2.8-1.3-5.2-2-7.3
		l1.4-0.5C123.3,363.4,124,365.8,124.6,368.3z"/>
	<path fill="#58595B" d="M174.8,346.4v2.2H163v8.2h9.4v13.9H163v8.7h12.5v2.2h-37.1v-2.2h12.3v-8.6h-9.4v-13.9h9.4v-8.2h-11.8v-2.2
		H174.8z M160.7,368.4h9.5V359h-9.4v-10.4H153v10.3h-9.4v9.5h9.4v10.8h7.7V368.4z"/>
	<path fill="#58595B" d="M185.3,382.5l-0.5-2.2c1.2,0.1,2.3,0.2,3.3,0.2c1.3,0,1.9-0.7,1.9-2v-11.2c-1.9,0.8-3.8,1.5-5.7,2.1
		l-0.6-2.3c2.1-0.6,4.2-1.3,6.3-2.2v-10.2h-5.4v-2.2h5.4v-7.9h2.3v7.9h5.1v2.2h-5.1v9.3c1.7-0.8,3.3-1.7,4.9-2.7v2.3
		c-1.6,0.9-3.3,1.8-4.9,2.6v12.9c0,2.3-1.1,3.4-3.4,3.4H185.3z M218.8,362.8v2.2c-1.4,4.1-3.7,7.7-6.8,10.6c2.9,2.1,6.5,4,10.9,5.6
		l-1.2,1.9c-4.5-1.8-8.2-3.8-11.2-6.1c-3.3,2.6-7.4,4.6-12.3,6.2l-1.2-1.9c4.7-1.5,8.6-3.4,11.7-5.8c-3.4-3-5.7-6.5-6.8-10.3H199
		v-2.3H218.8z M215.9,346.3v9.3c0,1.1,0.6,1.6,1.8,1.6h3.8v2.2h-4.3c-2.4,0-3.5-1.1-3.5-3.4v-7.5h-8.9v2.8c0,3.9-1.9,6.9-5.8,9.1
		l-1.6-1.8c3.4-1.6,5.1-4,5.1-7.1v-5.3H215.9z M210.1,374.1c2.9-2.6,5-5.6,6.4-9h-12.7C204.9,368.4,207.1,371.5,210.1,374.1z"/>
	<path fill="#58595B" d="M243.1,354.7v2H231v-2H243.1z M245.8,378.9c-3.2,1.8-7.7,3.2-13.6,4.3l-1.1-1.8c6-1,10.5-2.4,13.6-4
		L245.8,378.9z M242.1,347.1v2h-10.2v-2H242.1z M263,360.5v16.2h-26.8v-16.2H263z M260.8,365.4v-3.1h-22.3v3.1H260.8z M260.8,369.9
		V367h-22.3v2.9H260.8z M260.8,371.6h-22.3v3.1h22.3V371.6z M244.5,353.8l-1.3-1.7c3.1-2.1,5.3-4.7,6.4-7.7l2.2,0.3
		c-0.3,0.8-0.7,1.6-1.1,2.4h15.4v1.7c-1.1,2.2-2.4,4.1-3.8,5.7l-1.6-1.3c1.1-1.2,2-2.5,2.9-4.1h-14.2
		C248.2,350.8,246.5,352.4,244.5,353.8z M256.9,350.5c-0.2,0.7-0.4,1.4-0.7,2c3.1,3.3,7.1,5.3,12,6l-0.9,1.9
		c-4.8-0.8-8.8-2.9-12-6.3c-1.9,3-5.3,4.9-10,5.9l-1.1-1.7c6-1.1,9.6-3.8,10.7-8.2L256.9,350.5z M268,381.3l-0.7,1.9
		c-4.5-1.8-9.2-3.1-14.1-4.1l0.8-1.6C258.9,378.4,263.5,379.6,268,381.3z"/>
	<path fill="#58595B" d="M298.2,366.8v2.2h-21.3v-2.2H298.2z"/>
	<path fill="#58595B" d="M307.5,361.3l-1.3-2.1c8.1-2.9,13.9-6.5,17.4-11h-8.6V346H327c3.3,5.2,9.2,9.3,17.6,12.5l-1.6,2.1
		c-7.6-3.1-13.3-7.1-17.1-12.2c-2.7,3.8-6.5,7.1-11.7,9.9h22.7v2.2h-10.1v8.2h12.5v2.2h-12.5v8.5h16.3v2.2h-34.8v-2.2h16.2v-8.5
		h-12.6v-2.2h12.6v-8.2h-10.4v-2.2C312,359.3,309.9,360.4,307.5,361.3z"/>
	<path fill="#58595B" d="M366.2,347.6v2.2h-5.3v10.6h4.4v2.2h-4.4v9.5c1.9-0.8,3.7-1.6,5.4-2.5v2.2c-4.1,2.2-8.6,3.9-13.3,5.3
		l-0.6-2.2c2.1-0.5,4.2-1.2,6.2-1.9v-10.4h-5.2v-2.2h5.2v-10.6h-5.6v-2.2H366.2z M374.7,370.1c-2.4,3.2-5.4,6-9,8.5l-0.9-2.2
		c3.6-2.3,6.7-5.1,9.3-8.4L374.7,370.1z M376.9,352v-7.5h2.2v7.5h10.3v2.2h-10.3v4.1c0.7,2.4,1.6,4.6,2.6,6.8
		c2.1-2.2,3.9-4.6,5.6-7.4l1.8,1.3c-2.1,3.2-4.2,5.8-6.4,8c2.2,4.1,5.1,7.7,8.5,10.8l-1.5,1.8c-4.6-4.3-8.2-9.6-10.5-15.9v15.8
		c0,2-1,3-3,3h-4.9l-0.5-2.2c1.6,0.1,3.1,0.2,4.5,0.2c1.1,0,1.6-0.5,1.6-1.6v-24.8h-9.8V352H376.9z M373.7,365.3l-1.6,1.2
		c-1.1-2.2-2.7-4.6-4.7-7.2l1.8-1.1C371.1,360.9,372.6,363.3,373.7,365.3z M388.5,350.3l-1.4,1.4c-1.4-1.7-3.2-3.4-5.4-5.2l1.4-1.3
		C385.3,346.8,387.1,348.6,388.5,350.3z"/>
	<path fill="#58595B" d="M410.4,345.5c-0.9,2.8-1.9,5.4-3.2,7.9v29.7h-2.3v-25.7c-1.6,2.4-3.4,4.8-5.3,6.9l-0.7-2.3
		c4.4-5.2,7.6-11,9.5-17.5L410.4,345.5z M421.5,379.2c-2.4,1.5-5.9,2.7-10.4,3.6l-1-1.7c4.5-0.8,7.9-2,10.3-3.4L421.5,379.2z
		 M437.2,346.3v2h-8.5v3.2h6.8v7.8h-23v-7.8h7v-3.2h-7.6v-2H437.2z M434.3,361.7v15.6h-20.6v-15.6H434.3z M419.8,353.2h-5.2v4.2h5.2
		V353.2z M432.2,366.4v-3h-16.3v3H432.2z M432.2,370.9V368h-16.3v2.9H432.2z M432.2,372.4h-16.3v3h16.3V372.4z M426.6,348.3h-5.1
		v3.2h5.1V348.3z M426.6,353.2h-5.1v4.2h5.1V353.2z M437.6,381.1l-0.7,1.8c-3.3-1.6-6.6-2.8-10.2-3.7l0.8-1.5
		C431,378.5,434.4,379.7,437.6,381.1z M433.5,353.2h-5v4.2h5V353.2z"/>
	<path fill="#58595B" d="M446.2,364.4l-0.7-2.5c4.2-5.2,7.2-11.1,9-17.6l2.1,1c-0.8,2.7-1.8,5.2-3,7.7v30.1h-2.3v-25.8
		C449.9,359.9,448.1,362.2,446.2,364.4z M468.3,348.7c0.3-1.4,0.5-2.8,0.6-4.2l2.2,0.3c-0.2,1.4-0.4,2.7-0.6,3.9h11.8v2.1h-12.2
		c-0.3,1.4-0.6,2.7-1,4h10.3v24.7h4.3v2.2H456v-2.2h4.5v-24.7h6.5c0.4-1.4,0.7-2.7,1-4h-10.1v-2.1H468.3z M477.3,361.3v-4.4h-14.7
		v4.4H477.3z M477.3,367.4v-4.1h-14.7v4.1H477.3z M477.3,373.5v-4.1h-14.7v4.1H477.3z M477.3,379.5v-4.1h-14.7v4.1H477.3z"/>
	<path fill="#58595B" d="M506.7,379.4c0,2.2-1.1,3.3-3.1,3.3H500l-0.5-2c1.3,0,2.4,0.1,3.5,0.1c1.1,0,1.6-0.7,1.6-2.2V368
		c-2.4,0.5-4.9,1-7.7,1.4c-0.3,5.5-1.5,10.1-3.5,13.6l-1.7-1.6c2.1-4,3.2-9,3.3-15.1v-20.1h11.8V379.4z M504.5,366v-6.3
		c-2.5-0.7-4.9-1.2-7.6-1.6v8.2c0,0.3,0,0.7,0,1.1C499.7,366.9,502.3,366.5,504.5,366z M504.5,357.7v-9.3H497v7.7
		C499.6,356.5,502.1,357,504.5,357.7z M526.9,362.7v2.2c-1.2,4.2-3.2,7.7-6,10.6c2.6,2.1,5.7,3.9,9.5,5.5l-1.2,1.9
		c-3.9-1.8-7.2-3.8-9.9-6c-2.8,2.4-6.2,4.4-10.2,5.8l-1.2-1.9c3.9-1.4,7.1-3.3,9.8-5.5c-3.1-3-5.2-6.5-6.3-10.4h-2.2v-2.3H526.9z
		 M524.7,346.3v9.5c0,0.8,0.4,1.2,1.4,1.2h3.5v2.2h-4.1c-2.1,0-3.1-1-3.1-3v-7.8h-8v3c0,3.9-1.4,7-4.2,9.1l-1.6-1.7
		c2.3-1.7,3.5-4.1,3.5-7.1v-5.4H524.7z M519.2,374c2.5-2.6,4.3-5.6,5.4-9h-11.1C514.6,368.3,516.5,371.3,519.2,374z"/>
	<path fill="#58595B" d="M576,346.3v2h-12.8v3.9h9.5v9h-30.7v-9h9.5v-3.9h-12.8v-2H576z M575.3,370.5v2h-16.4v10.3h-2.2v-10.3h-17.4
		v-2H575.3z M551.7,376c-2.9,2.4-6.4,4.6-10.6,6.5l-1.4-1.8c4.1-1.8,7.6-3.8,10.5-6L551.7,376z M571.3,364.8v2h-27.8v-2H571.3z
		 M551.4,354.2h-7.3v5.1h7.3V354.2z M561,348.3h-7.3v3.9h7.3V348.3z M561,354.2h-7.3v5.1h7.3V354.2z M570.5,354.2h-7.3v5.1h7.3
		V354.2z M575.7,380.9l-1.6,1.6c-2.4-2-5.8-4.2-10-6.5l1.5-1.4C569.7,376.7,573,378.8,575.7,380.9z"/>
	<path fill="#58595B" d="M593.7,347.8v-3.4h2.3v3.4h15.2v-3.4h2.3v3.4h7.7v2h-7.7v14.6h8.4v2h-9.4c2.1,2.9,5.4,5.2,10,6.8l-0.9,2
		c-5.3-2.2-9.1-5.2-11.2-8.7h-13.5c-2.2,3.6-5.7,6.5-10.8,8.9l-1.1-1.9c4.5-1.9,7.7-4.2,9.8-7h-9.3v-2h8.4v-14.6H586v-2H593.7z
		 M604.8,368.3v3.7h8.8v2.1h-8.8v5.4h14.7v2.2h-32v-2.2h15V374h-8.9v-2.1h8.9v-3.7H604.8z M611.2,353.5v-3.7H596v3.7H611.2z
		 M611.2,358.8v-3.5H596v3.5H611.2z M611.2,364.4v-3.7H596v3.7H611.2z"/>
	<path fill="#58595B" d="M650.9,344.9c4.1,5.2,10.1,9.4,18,12.8l-1.3,1.9c-7.3-3.1-13.3-7.3-17.7-12.5c-4.9,5.2-10.9,9.4-17.8,12.5
		l-1.3-1.9c7.3-3.3,13.4-7.6,18.1-12.9H650.9z M661,356.5v2.1h-9.8v6.8h15.3v2.2h-15.3v12h5.3c1.6-2.9,3-6,4.1-9.3l2.1,0.8
		c-1.1,3.2-2.4,6-3.8,8.5h9.2v2.2H632v-2.2h9.2c-1-2.9-2.2-5.6-3.7-8.2l2.1-0.8c1.4,2.5,2.7,5.4,3.9,9h5.4v-12h-15.4v-2.2h15.4v-6.8
		H639v-2.1H661z"/>
	<path fill="#58595B" d="M690.3,348.7l12.1,30.2h-2.8l-3.5-9h-14.5l-3.5,9h-2.8l12.1-30.2H690.3z M695.2,367.7l-6.3-16.2h-0.1
		l-6.4,16.2H695.2z"/>
	<path fill="#58595B" d="M724.9,357v1.9l-14.1,17.7h14.8v2.2h-18v-2l14.1-17.7H708V357H724.9z"/>
	<path fill="#58595B" d="M752.4,348.1v30.7H750v-4.3c-1.5,3.3-4.1,4.9-7.6,4.9c-3.2,0-5.6-1.2-7.4-3.5c-1.6-2.1-2.4-4.8-2.4-8.1
		c0-3.2,0.8-5.9,2.4-8c1.8-2.4,4.2-3.5,7.3-3.5c3.5,0,6,1.7,7.6,5.2v-13.5H752.4z M737,361.4c-1.2,1.6-1.8,3.8-1.8,6.5
		s0.6,4.9,1.8,6.6c1.3,1.9,3.2,2.8,5.7,2.8c2.4,0,4.2-0.9,5.5-2.7c1.2-1.6,1.8-3.8,1.8-6.3v-0.5c0-2.7-0.7-4.9-1.9-6.5
		c-1.4-1.8-3.1-2.6-5.3-2.6C740.2,358.6,738.3,359.5,737,361.4z"/>
	<path fill="#58595B" d="M777.6,360.9c0.8-1.5,1.7-2.6,2.9-3.3c1.1-0.8,2.5-1.1,4-1.1c2.3,0,4.1,0.7,5.5,2.2c1.3,1.4,2,3.4,2,6v14.3
		h-2.5v-13.9c0-2.1-0.4-3.6-1.3-4.6c-0.9-1.1-2.4-1.6-4.4-1.6c-1.6,0-2.9,0.6-4,1.8c-1.1,1.2-1.6,2.7-1.6,4.5v13.9h-2.6v-13.9
		c0-4.2-1.8-6.3-5.4-6.3c-1.6,0-3,0.6-4.1,2c-1.1,1.3-1.7,2.9-1.7,4.8v13.4h-2.5V357h2.5v3.3c1.6-2.6,3.7-3.9,6.3-3.9
		C774.2,356.4,776.5,357.9,777.6,360.9z"/>
	<path fill="#58595B" d="M816.9,358.3c1.6,1.3,2.7,3.2,3,5.8h-2.5c-0.3-1.9-1-3.2-2.2-4.1c-1.2-0.9-2.7-1.4-4.6-1.4
		c-2.3,0-4.1,0.9-5.5,2.7c-1.4,1.7-2,4-2,6.8c0,2.8,0.6,5,1.9,6.7c1.3,1.6,3.1,2.5,5.5,2.5c4.1,0,6.4-2.1,7-6.2h2.5
		c-0.4,2.7-1.5,4.9-3.1,6.3c-1.6,1.4-3.8,2.1-6.4,2.1c-3.2,0-5.7-1.1-7.5-3.3c-1.7-2-2.5-4.7-2.5-8.1c0-3.3,0.8-6,2.6-8.2
		c1.8-2.3,4.3-3.5,7.5-3.5C813.2,356.4,815.3,357.1,816.9,358.3z"/>
	<path fill="#58595B" d="M837.3,348.7v30.2h-2.6v-26.9c-1.9,2.1-4.3,3.6-7.2,4.4v-2.6c1.4-0.4,2.8-1.1,4.1-1.9
		c1.4-0.9,2.6-1.9,3.6-3.1H837.3z"/>
	<path fill="#58595B" d="M857.5,343.9c-1.7,2.7-3,5.7-4,8.8c-1.2,3.7-1.8,7.3-1.8,10.9c0,3.5,0.6,7.2,1.8,10.9c1,3.1,2.3,6,4,8.8
		h-2.3c-1.8-2.7-3.2-5.6-4.2-8.7c-1.2-3.7-1.8-7.4-1.8-11s0.6-7.3,1.8-11c1-3.1,2.4-6,4.2-8.7H857.5z"/>
	<path fill="#58595B" d="M884.6,348.8l0.5-4.5l2.3,0.3c-0.2,1.5-0.3,2.9-0.5,4.2h17.3v2.2h-17.7c-0.3,1.7-0.6,3.3-0.9,4.8h16.2v23.4
		c0,2.3-1.1,3.5-3.4,3.5h-4.2l-0.6-2.2l4.1,0.1c1.3,0,1.9-0.6,1.9-1.9V358h-28v25h-2.2v-27.2h14c0.3-1.6,0.6-3.2,0.9-4.8H867v-2.2
		H884.6z M883.1,365.3h4.8c1.1-1.8,2-3.8,2.8-5.8l2.1,0.8c-0.8,1.9-1.7,3.5-2.7,5h5.4v2.1h-8.8v5.1h10.1v2h-10.1v7.9h-2.3v-7.9
		h-10.1v-2h10.1v-5.1h-8.7v-2.1h5.1c-0.6-1.7-1.4-3.3-2.4-4.8l2.1-0.8C881.5,361.2,882.3,363.1,883.1,365.3z"/>
	<path fill="#58595B" d="M926,351.4v-7h2.3V365c-0.1,8.2-2.5,14.2-7.2,18l-1.8-1.5c3-2.4,5-5.7,6-10c-3.7,1-7.6,1.8-11.8,2.5
		l-0.6-2.2c4.5-0.6,8.7-1.4,12.8-2.4c0.2-1.4,0.3-2.7,0.3-4.2v-1.9h-11.2v-2.2H926v-7.3h-12.2v-2.2H926z M937.9,344.5v7h12.2v2.2
		h-12.2v7.3h11.2v2.2h-11.2v7.5h12.8v2.2h-12.8V383h-2.3v-38.5H937.9z"/>
	<path fill="#58595B" d="M974.1,365.4l-0.5-1.8l2.1,0.1c0.8,0,1.2-0.5,1.2-1.4v-9.8h-5.9v12.6h-1.8v-12.6h-6v12.9h-2v-14.9h8v-6h1.9
		v6h7.7v12.2c0,1.8-0.9,2.7-2.6,2.7H974.1z M966.6,349.3l-1.7,0.8c-0.9-1.7-1.9-3.2-2.9-4.5l1.7-0.8
		C964.8,346.1,965.7,347.6,966.6,349.3z M986.3,380.5l-0.6-2.2l3.8,0.1c1.1,0,1.6-0.5,1.6-1.5v-5.8h-11.6V383h-2.3v-11.9h-11.6v8.9
		h-2.3V369h13.9v-3.4h2.3v3.4h13.9v8.4c0,2-1.1,3.1-3.1,3.1H986.3z M967.5,355c-0.2,2.7-0.6,5.2-1.4,7.3l-1.6-0.5
		c0.8-2,1.2-4.3,1.4-6.9L967.5,355z M975.6,360.3l-1.6,0.4c-0.4-2-0.9-4-1.6-5.8l1.4-0.5C974.5,356.2,975.1,358.1,975.6,360.3z
		 M978.2,345.6c-0.7,1.5-1.6,3-2.7,4.5l-1.7-0.9c1.1-1.5,2-3,2.7-4.4L978.2,345.6z M981,356.8l-1.3-1.6c2.7-2.9,4.6-6.5,5.6-10.6
		l2.1,0.3c-0.3,1.4-0.8,2.8-1.3,4.1h10.3v2h-2c-0.9,3.5-2.4,6.5-4.2,8.8c2.1,1.7,4.5,3.2,7.3,4.6l-1.1,1.9c-3-1.5-5.4-3.1-7.6-4.9
		c-2,1.9-4.4,3.4-7.3,4.4l-1.1-1.8c2.7-0.9,5-2.2,6.8-4c-1.4-1.4-2.5-2.7-3.5-4.2l1.1-1.6c1.1,1.5,2.4,2.9,3.8,4.3
		c1.7-2.1,2.9-4.6,3.7-7.5h-7.1C984.1,353.1,982.7,355.1,981,356.8z"/>
	<path fill="#58595B" d="M1014.8,355.3v1.8c-1.4,2.6-2.9,5.1-4.7,7.4h5v1.6c-0.7,3.7-1.6,6.8-2.6,9.2c0.4,0.2,0.8,0.5,1.3,0.9
		c1.4,1.3,2.8,2.3,4.4,3c1.5,0.6,3.6,0.9,6.3,0.9c2.4,0,5.2,0,8.4,0c2.8,0,6.5-0.1,11.1-0.2l-0.5,2.2h-10.3c-3.5,0-6.5,0-8.9-0.1
		c-3.1-0.1-5.4-0.5-7.1-1.2c-1.8-0.8-3.5-1.9-5-3.4c-0.4-0.3-0.8-0.4-1.1-0.4c-1,0-2.2,1.9-3.8,5.7l-1.6-1.5
		c1.6-3.7,3.2-5.8,4.7-6.3c1.1-2.5,1.9-5.3,2.6-8.5h-5.4v-1.8c1.9-2.5,3.5-4.9,4.9-7.3h-6.3v-2.1H1014.8z M1014.9,350.8l-1.5,1.5
		c-1.5-1.8-3.6-3.6-6.3-5.6l1.5-1.4C1011.1,347.1,1013.2,349,1014.9,350.8z M1017.1,375.6l-1.6-1.4c2.1-4.5,3.1-10.3,3.2-17.4v-10.1
		h10.1v11.6h-8.1C1020.5,365,1019.3,370.8,1017.1,375.6z M1020.7,348.9v7.6h6v-7.6H1020.7z M1029.5,362.6V376h-8v-13.5H1029.5z
		 M1027.7,364.4h-4.4v9.8h4.4V364.4z M1030.7,361.2v-2h7.4c1-2.2,1.8-4.5,2.2-6.8l1.9,0.2c-0.5,2.5-1.2,4.6-2.2,6.6h3.8v2h-5.5v5.4
		h4.8v2h-4.8v8.5h-2.2v-8.5h-4.9v-2h4.9v-5.4H1030.7z M1038.4,348.7h5.2v2h-12.9v-2h5.7c-0.5-1.4-1-2.7-1.5-3.9l2.1-0.3
		C1037.5,345.7,1038,347.1,1038.4,348.7z M1036.1,357.5l-1.7,0.7c-0.7-1.9-1.4-3.6-2.2-5l1.7-0.7
		C1034.7,354.1,1035.4,355.7,1036.1,357.5z"/>
	<path fill="#58595B" d="M104.7,409.8v1.8c-1.2,4-2.5,8.1-4.1,12.3c2.4,3.5,3.7,6.7,3.9,9.8c0,1.7-0.5,3-1.2,3.7
		c-1,0.9-2.9,1.4-5.5,1.5l-0.7-2.2c0.5,0,0.9,0.1,1.2,0.1c1.6-0.1,2.6-0.4,3.2-0.8c0.5-0.4,0.8-1.2,0.8-2.2c0-2.8-1.3-6-3.9-9.4
		c1.8-4.6,3.1-8.7,4.1-12.3h-7v34.4h-2.3v-36.6H104.7z M105,446.1l-1.6-1.4c3.5-2.6,6.2-6.2,8-10.7l1.9,0.8
		c-0.5,1.2-1.1,2.3-1.6,3.3c1.7,1.2,3.2,2.3,4.5,3.5l-1.4,1.4c-1.1-1.1-2.4-2.2-3.9-3.4C109.2,442.3,107.2,444.5,105,446.1z
		 M105.3,419.6l-1.2-1.9c5.1-2.4,9-5.6,11.8-9.5h2c2.3,3.5,6.3,6.6,11.9,9.3l-1.2,1.9c-5.2-2.4-9.1-5.4-11.7-9.1
		c-2,2.6-4.4,4.8-7,6.6h13.8v2h-13.9V417C108.3,418,106.8,418.8,105.3,419.6z M115.5,422.6v9.9h-9v-9.9H115.5z M113.6,424.5h-5.2
		v6.2h5.2V424.5z M116.4,446.1l-1.6-1.4c3.4-2.6,6-6.1,7.9-10.6l1.9,0.8c-0.6,1.3-1.2,2.5-1.8,3.6c2.7,1.9,5,3.7,6.8,5.6l-1.5,1.5
		c-1.6-1.8-3.7-3.6-6.3-5.5C120.2,442.6,118.4,444.6,116.4,446.1z M127.7,422.6v9.9h-9v-9.9H127.7z M125.8,424.5h-5.2v6.2h5.2V424.5
		z"/>
	<path fill="#58595B" d="M137.2,411.5c4.6-0.5,8.6-1.5,12.1-2.8l0.7,2c-1.6,0.6-3.3,1.1-5.2,1.6v7.5h4.3v2h-4.3v2.4
		c1.7,1.9,3.4,4.1,5.2,6.5l-1.2,1.9c-1.5-2.7-2.8-4.8-3.9-6.4v20h-2.1v-19.9c-1.3,4.1-3,7.7-5.3,10.9l-0.9-2.3
		c2.9-3.9,4.9-8.3,6.1-13.2h-5.3v-2h5.4v-7c-1.6,0.3-3.3,0.6-5.1,0.8L137.2,411.5z M154,438.1c-0.8,3-1.9,5.6-3.3,7.8l-1.7-1.1
		c1.4-2.1,2.5-4.5,3.1-7.1L154,438.1z M155.4,416.4c-0.7-1.3-1.4-2.4-2.1-3.3l1.7-0.7c0.9,1.3,1.7,2.6,2.4,4.1h4.8
		c-0.7-1.3-1.4-2.5-2.1-3.5l1.8-0.7c0.8,1.4,1.6,2.7,2.3,4.3h3.2c0.8-1.4,1.6-3,2.3-5l1.9,0.5c-0.6,1.6-1.3,3.1-2.1,4.5h3.1v1.8
		h-9.1v3h10.3v1.8h-22.7v-1.8h10.2v-3h-9v-1.8H155.4z M152.6,436v-1.8h17v-2.7h-18.4v-1.7h18.4v-2.6h-16.7v-1.7h18.8v4.2h3.3v1.9
		h-3.3v4.3H152.6z M173.5,409.9c-5.3,1.1-12.5,1.7-21.3,1.7l-0.6-1.9c8.5,0,15.5-0.6,20.9-1.6L173.5,409.9z M159.4,445.8
		c-2,0-3-0.9-3-2.6v-5.5h2.2v5.1c0,0.8,0.5,1.3,1.4,1.3h5.9c0.7,0,1.1-0.2,1.4-0.4c0.3-0.4,0.6-1.6,0.7-3.5l1.9,0.6
		c-0.2,2.4-0.6,3.9-1.2,4.5c-0.5,0.4-1.3,0.6-2.4,0.6H159.4z M165.5,440.5l-1.6,1.1c-0.8-1.4-1.8-2.9-3.2-4.5l1.5-0.9
		C163.7,437.8,164.8,439.3,165.5,440.5z M175.3,444.1l-1.6,1.1c-1-2.1-2.4-4.4-4.1-6.9l1.5-0.9C172.9,439.9,174.3,442.2,175.3,444.1
		z"/>
	<path fill="#58595B" d="M213.7,420.6v2.2h-11v8.2h12.9v2.2h-12.9v9.5c3,0.5,6.6,0.7,10.9,0.8c2.2,0,4.4-0.1,6.7-0.2l-0.5,2.2h-5.2
		c-8.3,0-14.2-0.8-17.8-2.3c-2.9-1.4-5.2-3.6-7-6.6c-1.6,3.8-3.7,7.1-6.2,9.7l-1.5-1.8c4.1-4.4,6.9-10.4,8.4-18l2.2,0.4
		c-0.5,2.7-1.2,5.1-2,7.3c2,3.9,4.6,6.4,7.8,7.4c0.6,0.2,1.2,0.3,1.9,0.5v-19.4h-11.3v-2.2H213.7z M218.3,420.9H216v-6.4h-29.4v6.6
		h-2.3v-8.8h16.3c-0.7-1.7-1.4-3.2-2.2-4.5l2.4-0.4c0.7,1.4,1.4,3,2.1,4.9h15.3V420.9z"/>
	<path fill="#58595B" d="M233.5,446.4l-1.8-1.6c2.9-3.8,4.4-8.7,4.5-14.6v-20.5h23.4v33c0,2.2-1.1,3.3-3.2,3.3h-5.5l-0.6-2.2
		c1.9,0,3.7,0.1,5.4,0.1c1.1,0,1.6-0.7,1.6-2v-9.2h-19C237.9,438.2,236.3,442.8,233.5,446.4z M257.3,411.9h-18.9v8.2h18.9V411.9z
		 M238.4,430.5h18.9v-8.3h-18.9V430.5z"/>
	<path fill="#58595B" d="M292.2,409.8v2.1h-5.7v5.7h4.9v28.2h-2v-2h-12.8v2.3h-2v-28.4h4.7v-5.7h-5.7v-2.1H292.2z M289.4,441.6
		v-11.3h-2.5c-1.6,0-2.4-0.8-2.4-2.3v-8.4h-3.1v3.3c0,4.4-1.1,7.7-3.1,9.8l-1.2-1.1c1.8-1.8,2.7-4.7,2.7-8.7v-3.3h-3.2v22H289.4z
		 M287.3,434.9v2h-8.9v-2H287.3z M284.5,417.6v-5.7h-3.3v5.7H284.5z M289.4,419.6H286v8c0,0.6,0.4,0.9,1.1,0.9h2.2V419.6z
		 M309.8,443.2c-0.6,1.3-1.9,1.9-3.7,1.9h-7.8c-2.4,0-3.5-1.2-3.5-3.7v-17.5h11.8v-12h-12.7v-2.1h14.9v16.3H297v14.7
		c0,1.4,0.7,2.2,2.1,2.2h6.6c1.3,0,2.1-0.6,2.5-1.8c0.4-1.2,0.6-3.5,0.8-7.1l2.1,0.7C310.9,439.1,310.5,441.9,309.8,443.2z"/>
	<path fill="#58595B" d="M321.6,407.3c1.7,2.7,3.1,5.6,4.2,8.7c1.2,3.7,1.8,7.3,1.8,11s-0.6,7.3-1.8,11c-1.1,3.1-2.4,6-4.2,8.7h-2.3
		c1.7-2.8,3-5.7,4-8.8c1.2-3.7,1.8-7.4,1.8-10.9c0-3.6-0.6-7.2-1.8-10.9c-1-3.1-2.3-6-4-8.8H321.6z"/>
	<path fill="#58595B" d="M362.1,407.3c-1.7,2.7-3,5.7-4,8.8c-1.2,3.7-1.8,7.3-1.8,10.9c0,3.5,0.6,7.2,1.8,10.9c1,3.1,2.3,6,4,8.8
		h-2.3c-1.8-2.7-3.2-5.6-4.2-8.7c-1.2-3.7-1.8-7.4-1.8-11s0.6-7.3,1.8-11c1-3.1,2.4-6,4.2-8.7H362.1z"/>
	<path fill="#58595B" d="M388.1,415.8v-7.9h2.3v7.9h16.8v2.2h-14.4c2.9,7,8.2,13.3,15.7,18.7l-1.5,2c-7.7-6.1-13.1-13-16-20.7h-0.5
		v17.1h9.4v2.2h-9.4v8.9h-2.3v-8.9h-9v-2.2h9v-17.1h-0.6c-3.1,8.7-8.6,15.7-16.4,21.2l-1.3-2.1c7.4-4.9,12.8-11.3,15.9-19.1h-14.4
		v-2.2H388.1z"/>
	<path fill="#58595B" d="M424.8,411.2v-3.4h2.3v3.4h15.2v-3.4h2.3v3.4h7.7v2h-7.7v14.6h8.4v2h-9.4c2.1,2.9,5.4,5.2,10,6.8l-0.9,2
		c-5.3-2.2-9.1-5.2-11.2-8.7h-13.5c-2.2,3.6-5.7,6.5-10.8,8.9l-1.1-1.9c4.5-1.9,7.7-4.2,9.8-7h-9.3v-2h8.4v-14.6H417v-2H424.8z
		 M435.8,431.6v3.7h8.8v2.1h-8.8v5.4h14.7v2.2h-32v-2.2h15v-5.4h-8.9v-2.1h8.9v-3.7H435.8z M442.3,416.8v-3.7H427v3.7H442.3z
		 M442.3,422.2v-3.5H427v3.5H442.3z M442.3,427.8v-3.7H427v3.7H442.3z"/>
	<path fill="#58595B" d="M481.1,408.3c4.1,5.2,10.1,9.4,18,12.8l-1.3,1.9c-7.3-3.1-13.3-7.3-17.7-12.5c-4.9,5.2-10.9,9.4-17.8,12.5
		l-1.3-1.9c7.3-3.3,13.4-7.6,18.1-12.9H481.1z M491.1,419.8v2.1h-9.8v6.8h15.3v2.2h-15.3v12h5.3c1.6-2.9,3-6,4.1-9.3l2.1,0.8
		c-1.1,3.2-2.4,6-3.8,8.5h9.2v2.2h-35.9v-2.2h9.2c-1-2.9-2.2-5.6-3.7-8.2l2.1-0.8c1.4,2.5,2.7,5.4,3.9,9h5.4v-12h-15.4v-2.2H479
		v-6.8h-9.8v-2.1H491.1z"/>
	<path fill="#58595B" d="M525.5,409.8v2.1h-5.7v5.7h4.9v28.2h-2v-2h-12.8v2.3h-2v-28.4h4.7v-5.7h-5.7v-2.1H525.5z M522.7,441.6
		v-11.3h-2.5c-1.6,0-2.4-0.8-2.4-2.3v-8.4h-3.1v3.3c0,4.4-1.1,7.7-3.1,9.8l-1.2-1.1c1.8-1.8,2.7-4.7,2.7-8.7v-3.3h-3.2v22H522.7z
		 M520.7,434.9v2h-8.9v-2H520.7z M517.9,417.6v-5.7h-3.3v5.7H517.9z M522.7,419.6h-3.3v8c0,0.6,0.4,0.9,1.1,0.9h2.2V419.6z
		 M543.2,443.2c-0.6,1.3-1.9,1.9-3.7,1.9h-7.8c-2.4,0-3.5-1.2-3.5-3.7v-17.5h11.8v-12h-12.7v-2.1h14.9v16.3h-11.7v14.7
		c0,1.4,0.7,2.2,2.1,2.2h6.6c1.3,0,2.1-0.6,2.5-1.8c0.4-1.2,0.6-3.5,0.8-7.1l2.1,0.7C544.2,439.1,543.8,441.9,543.2,443.2z"/>
	<path fill="#58595B" d="M558.3,434.9c-1.1,3.9-2.5,7.2-4.4,10.1l-1.9-1.3c1.9-2.7,3.2-5.8,4.1-9.2L558.3,434.9z M567.3,411.2
		c0.6-1.1,1.1-2.3,1.4-3.5l2.4,0.3c-0.3,1.1-0.8,2.2-1.4,3.2h14.3v20.1h-26v-20.1H567.3z M581.8,417.3v-4.1h-21.5v4.1H581.8z
		 M581.8,423.2v-4h-21.5v4H581.8z M581.8,425.1h-21.5v4.2h21.5V425.1z M565,445.7c-2.2,0-3.2-1.1-3.2-3.2v-8.3h2.3v7.8
		c0,1.1,0.5,1.6,1.5,1.6h9.9c1.1,0,1.8-0.3,2.2-0.7c0.6-0.6,1-2.4,1.1-5.4l2.2,0.7c-0.3,3.5-0.8,5.6-1.7,6.5c-0.7,0.6-1.9,1-3.5,1
		H565z M575.5,438.7l-1.7,1.2c-1.4-1.9-3.2-3.9-5.5-6.1l1.7-1.1C572.3,435,574.2,437,575.5,438.7z M590.2,442.9l-1.8,1.3
		c-1.6-2.8-3.8-5.9-6.5-9.3l1.8-1.1C586.5,437.2,588.7,440.3,590.2,442.9z"/>
	<path fill="#58595B" d="M615.2,414.9h-15.8v-2.2h15.8v-4.7h2.3v4.7h15.9v2.2h-15.9v12c4.6,6.6,10.6,11.7,18,15.4l-1.2,2.1
		c-6.6-3.4-12.2-8.1-16.8-14.1v16h-2.3v-15.8c-4.1,5.7-9.7,10.4-16.6,14l-1.2-2.1c7.8-4,13.7-9.1,17.8-15.4V414.9z M600.2,430.9
		l-1.4-1.7c3.8-3.1,6.3-7.2,7.7-12.4l2.2,0.4c-0.6,2.3-1.4,4.4-2.3,6.2c2.1,1.2,4.1,2.7,5.8,4.3l-1.3,1.9c-1.9-1.8-3.7-3.3-5.6-4.4
		C603.8,427.4,602.1,429.3,600.2,430.9z M622.1,429.7l-1.4-1.8c3.3-2.7,5.4-6.5,6.6-11.1l2.2,0.4c-0.5,2.2-1.3,4.1-2.1,5.8
		c2.4,1.4,4.6,3.2,6.6,5.2l-1.3,1.9c-2.1-2.2-4.2-4-6.3-5.3C625.1,426.7,623.7,428.3,622.1,429.7z"/>
	<path fill="#58595B" d="M651.5,425.4L650,427c-1.7-2-4.1-4.1-7.1-6.3l1.6-1.5C647.3,421.2,649.6,423.3,651.5,425.4z M652,431.2
		c-1.9,5.3-4.1,10.3-6.5,15l-2.2-0.9c2.5-4.8,4.8-9.8,6.6-14.9L652,431.2z M652.8,415.3l-1.6,1.6c-1.9-2.1-4.4-4.3-7.6-6.6l1.6-1.5
		C648.2,411,650.8,413.1,652.8,415.3z M667.2,416.3c0.6-1.4,1.1-3,1.3-4.5h-11.1v13.3c-0.2,8.8-1.7,15.9-4.8,21.2l-1.7-1.5
		c2.7-4.7,4.2-11.3,4.3-19.7v-15.3h25v2.1h-9.5c-0.3,1.6-0.8,3.1-1.4,4.5h8.6v14.4h-7.3v12.5c0,2-1,3-3,3h-3.5l-0.5-2.1
		c1.1,0.1,2.2,0.2,3.3,0.2c1,0,1.6-0.5,1.6-1.6v-12H661v-14.4H667.2z M664.4,434.4c-1.1,3.8-2.7,7-4.8,9.7l-1.9-1.2
		c2-2.6,3.5-5.6,4.5-9L664.4,434.4z M675.8,422.6v-4.4H663v4.4H675.8z M675.8,424.4H663v4.3h12.8V424.4z M680.7,443.3l-1.9,0.8
		c-1.4-3.6-3-6.8-4.7-9.6l1.9-0.6C677.8,436.8,679.3,439.9,680.7,443.3z"/>
	<path fill="#58595B" d="M725.9,410.5v2.2h-5.7v29.3c0,2.6-1.3,3.9-3.9,3.9h-7l-0.5-2.2c2.3,0.1,4.6,0.2,6.7,0.2
		c1.6,0,2.4-0.8,2.4-2.5v-28.7h-29.4v-2.2H725.9z M709.4,434.9h-13.6v3.8h-2.2V420h15.8V434.9z M707.2,432.8V422h-11.4v10.8H707.2z"
		/>
	<path fill="#58595B" d="M746.9,432.4c-1.5-0.3-3-0.6-4.4-0.8c-1.3-0.2-2.6-0.4-3.8-0.5v2.5c-0.1,5.3-1.3,9.5-3.6,12.8l-1.7-1.6
		c2-2.9,3-6.6,3-11.1V423h15v20.5c0,1.8-1,2.7-3,2.7h-3.9l-0.6-2.1c1.4,0,2.6,0.1,3.8,0.1c0.9,0,1.4-0.5,1.4-1.5v-5.4
		c-3,0.6-6.3,1.1-9.7,1.6l-0.5-2c3.5-0.4,7-0.9,10.2-1.5v-10.3h-10.5v4.2c2,0.2,3.6,0.4,4.9,0.6c1,0.1,2.4,0.4,4.1,0.7L746.9,432.4z
		 M754.1,420l-1.8,1.3c-0.5-1-1-1.9-1.6-2.9c-4.5,0.7-9.9,1.3-16.2,1.6l-0.6-2c0.4-0.1,0.8-0.3,1.1-0.6c2.7-2.6,5-5.8,6.9-9.6
		l2.2,0.6c-2.1,4.1-4.4,7.3-6.9,9.5c4-0.2,8.2-0.6,12.5-1.2c-0.9-1.5-2-3-3.1-4.6l1.8-1.1C750.9,414.5,752.8,417.5,754.1,420z
		 M758.2,408.2v5.7l11.7-0.8v2.2l-11.7,0.8v6.3c0,1.1,0.5,1.6,1.7,1.6h10.7v2.2h-11.2c-2.3,0-3.4-1.1-3.4-3.3v-14.6H758.2z
		 M759.2,445.7c-2.1,0-3.2-1.1-3.2-3.1V428h2.2v4.9l11.9-0.7v2.1l-11.9,0.8v7.1c0,1,0.5,1.6,1.6,1.6h6.3c1,0,1.7-0.3,2.1-0.7
		c0.5-0.6,0.8-2.3,1-5.1l2.1,0.7c-0.3,3.3-0.8,5.4-1.6,6.2c-0.7,0.6-1.7,0.9-3.2,0.9H759.2z"/>
	<path fill="#58595B" d="M815.7,430.2c-0.1,7.7-0.5,12.3-1.5,13.8c-0.9,1.5-2.6,2.3-4.9,2.3c-1.1,0-2.5,0-4.1-0.1l-0.6-2.2
		c1.7,0.1,3.2,0.1,4.3,0.2c2,0,3.3-0.7,3.8-2c0.5-1.3,0.8-4.6,0.9-9.9h-26.7c-2.1,2.2-4.4,4.1-6.8,5.7l-1.1-2
		c6.8-4.6,11.7-10.9,14.6-19h-11.8v-2.1h12.5c0.7-2.3,1.3-4.7,1.8-7.2l2.2,0.3c-0.5,2.5-1.1,4.8-1.7,7h13.3l-1.8,7.4h5.4l-1.7,7.9
		H815.7z M789.3,436.1c-1.2,3.5-2.8,6.4-4.9,9l-1.9-1.3c2.1-2.4,3.7-5.1,4.7-8.2L789.3,436.1z M790.8,413.1l-1.8,1.3
		c-0.9-1.5-2.1-3.2-3.6-5l1.8-1.1C788.8,410.2,790,411.8,790.8,413.1z M788.6,430.2h20.7l1.4-5.8h-18.2
		C791.4,426.5,790,428.4,788.6,430.2z M796,443.9l-2.2,0.3c-0.3-3.4-0.8-6-1.6-7.8l2-0.3C795.2,438,795.8,440.6,796,443.9z
		 M795.8,416.9c-0.7,1.9-1.4,3.7-2.2,5.4h12.1l1.5-5.4H795.8z M803.1,442.1l-2.1,0.8c-0.8-2.4-1.6-4.7-2.7-7l1.9-0.5
		C801.5,437.7,802.5,440,803.1,442.1z M809.6,440.4l-2.1,0.5c-0.7-2.1-1.6-4.1-2.7-6.1l1.9-0.6C807.8,436.1,808.8,438.1,809.6,440.4
		z"/>
	<path fill="#58595B" d="M842.2,415.8v-7.9h2.3v7.9h16.8v2.2h-14.4c2.9,7,8.2,13.3,15.7,18.7l-1.5,2c-7.7-6.1-13.1-13-16-20.7h-0.5
		v17.1h9.4v2.2h-9.4v8.9h-2.3v-8.9h-9v-2.2h9v-17.1h-0.6c-3.1,8.7-8.6,15.7-16.4,21.2l-1.3-2.1c7.4-4.9,12.8-11.3,15.9-19.1h-14.4
		v-2.2H842.2z"/>
	<path fill="#58595B" d="M889.7,408.3c4.1,5.2,10.1,9.4,18,12.8l-1.3,1.9c-7.3-3.1-13.3-7.3-17.7-12.5c-4.9,5.2-10.9,9.4-17.8,12.5
		l-1.3-1.9c7.3-3.3,13.4-7.6,18.1-12.9H889.7z M899.8,419.8v2.1h-9.8v6.8h15.3v2.2h-15.3v12h5.3c1.6-2.9,3-6,4.1-9.3l2.1,0.8
		c-1.1,3.2-2.4,6-3.8,8.5h9.2v2.2h-35.9v-2.2h9.2c-1-2.9-2.2-5.6-3.7-8.2l2.1-0.8c1.4,2.5,2.7,5.4,3.9,9h5.4v-12h-15.4v-2.2h15.4
		v-6.8h-9.8v-2.1H899.8z"/>
	<path fill="#58595B" d="M918.2,407.3c1.7,2.7,3.1,5.6,4.2,8.7c1.2,3.7,1.8,7.3,1.8,11s-0.6,7.3-1.8,11c-1.1,3.1-2.4,6-4.2,8.7h-2.3
		c1.7-2.8,3-5.7,4-8.8c1.2-3.7,1.8-7.4,1.8-10.9c0-3.6-0.6-7.2-1.8-10.9c-1-3.1-2.3-6-4-8.8H918.2z"/>
</g>
<path fill="#FFD25C" d="M1140.3,290.8H0V61.4C0,27.5,27.5,0,61.4,0h1017.4c33.9,0,61.4,27.5,61.4,61.4V290.8z"/>
<g>
	<path fill="#58595B" d="M378,101.8c5.2,14.5,14.5,26.3,29.3,32c-2.9,2.6-6.8,7.7-8.7,11.1c-14.1-6.5-23-17.2-29.1-31.4
		c-4.6,12.4-13.1,23.5-28.9,31.4c-1.8-3.2-5.4-7.4-8.8-10c17.6-7.9,25-20,28.2-33.1h-26.6V89.7h28.5c0.6-7.1,0.5-14.1,0.6-20.8h12.8
		c-0.1,6.7-0.2,13.7-0.8,20.8h30.8v12.1H378z"/>
	<path fill="#58595B" d="M482.6,113.2c-3.3,1.6-6.8,3.2-10.4,4.7c3.1,5.9,8.4,12,15.6,14.9c-2.5,2.2-6.2,7-7.8,10.1
		c-8.3-4.6-14-13.4-17.3-21.4l-1.4,0.4c3.3,8.7,0.9,16.9-5.1,20.5c-3.5,2.2-6,2.8-10.5,2.9c-2.1,0-4.5-0.1-7-0.2
		c-0.2-2.7-1-6.7-2.7-9.6c-5.8,2.5-11.8,4.6-17.4,6c-1.4-2.4-4.3-6.3-6.4-8.4c12.8-2.6,27.5-7.9,35.9-13.6c-0.2-0.4-0.6-0.7-0.9-1.1
		c-8.1,4.6-18.5,8.3-27.9,10.3c-1.3-2.3-4-5.9-6-7.9c9.6-1.4,20.4-4.3,27.9-7.9c-0.5-0.4-1-0.7-1.4-1c-6.2,2.4-12.8,4.4-18.6,5.6
		c-1.4-2.2-4-5.8-6-7.7c5.1-0.7,10.7-1.8,16-3.2h-9.4V94.7l-1.7,1c-1.7-2.6-5.3-6.6-7.8-8.3c10.2-5.3,17.4-12.4,21.5-18.9l12,2.5
		c-0.6,0.9-1.3,1.8-1.9,2.7h12.4l1.8-0.5l7.9,5.2c-1.4,2.2-3.2,4.7-5.1,7.1h18.1v21h-5.1L482.6,113.2z M443.9,98.2v-4.4h-11.3v4.4
		H443.9z M436.7,82.2c-1,1.1-2.2,2.2-3.3,3.3h13.9c0.9-1,1.7-2.2,2.4-3.3H436.7z M451.5,127.2c-4.2,2.8-8.9,5.4-13.9,7.5
		c2.2,0.2,4.4,0.2,6.1,0.2c2.1,0,3.9-0.2,5.2-1.3C450.8,132.6,451.8,130.2,451.5,127.2z M449.4,107.3c3.1,2.2,5.5,4.5,7.4,6.9
		c5.5-2.2,11.5-5.2,15.7-7.8H451L449.4,107.3z M454.2,98.2h13.1v-4.4h-13.1V98.2z"/>
	<path fill="#58595B" d="M566.2,81.2c0,0,0,3.7-0.1,5.1c-1,35.7-1.8,48.7-5.1,53.2c-2.5,3.5-5,4.5-8.5,5.1c-3.2,0.6-8.2,0.5-13,0.3
		c-0.2-3.1-1.8-8.1-3.9-11.3c5.1,0.5,10,0.5,12.1,0.5c1.6,0,2.5-0.3,3.5-1.4c2.3-2.5,3.3-14.3,3.9-40.8H540c-2.2,4.6-4.5,8.7-6.8,12
		c-1.4-1.3-4.2-3.4-6.6-5V137h-21v5.7H495V82h9.2c0.8-4.1,1.5-9.2,1.8-13.1l12.8,1.8c-1.4,3.9-2.7,7.9-4,11.3h11.9v10.7
		c4-6.5,7.5-15.2,9.6-23.5l11.2,2.6c-0.9,3.1-1.9,6.3-3.1,9.4H566.2z M516.1,92.1h-10.5v10.8h10.5V92.1z M516.1,126.8V113h-10.5
		v13.8H516.1z M542.5,124.4c-2.1-4.9-6.9-12.8-10.5-18.7l9.2-5.1c3.6,5.5,8.8,13.1,11.2,17.8L542.5,124.4z"/>
	<path fill="#58595B" d="M646.4,112.4c0,0-0.2,2.8-0.3,4.2c-1.2,15.2-2.6,22.1-5,24.7c-1.9,2.2-3.9,3-6.5,3.4
		c-2.2,0.3-5.7,0.4-9.5,0.3c-0.2-2.9-1.2-6.7-2.6-9.6l-1.7,0.6c-0.6-2.9-2.4-7.5-4.2-11l8-2.6c1.9,3.3,3.9,7.7,4.7,10.6l-5.2,1.8
		c2,0.2,3.8,0.2,4.9,0.2s1.8-0.2,2.6-1c1.1-1,2-4.4,2.7-11.7h-48.2c-1,0.6-1.9,1.2-2.9,1.8l8,2.6c-1.8,6.9-4.4,13.8-9.5,18.3
		l-9.2-5.9c3.9-3.3,6.7-8.4,8.4-13.8c-1.2,0.6-2.4,1.3-3.6,1.8c-1.4-3-4.2-7.6-6.1-10.2c12.4-5.5,21.9-14.2,29.1-24.4h-24.2V82.5
		h12.2c-1.1-3-2.8-6.5-4.4-9.4l10.1-3.9c2.3,3.6,4.9,8.4,5.9,11.7l-3.9,1.6h10.2c2.3-4.5,4.1-9.2,5.5-13.7l11.8,3.3
		c-1.3,3.5-2.7,7-4.3,10.4h15.4c-1,4.9-2.1,10.4-3.2,14.9h9.2c-0.9,4.9-2.1,10.4-3.2,14.9H646.4z M602,126.5
		c1.3,4.7,2.1,10.8,2,14.9l-10,1.3c0.2-4-0.4-10.3-1.4-15L602,126.5z M603.5,107.4c-1.5,1.7-3.1,3.4-4.7,5H627
		c0.4-1.5,0.8-3.2,1.2-5H603.5z M613.8,124.9c1.7,4.1,3.1,9.6,3.7,13.2l-9.3,2.3c-0.4-3.6-1.8-9.2-3.3-13.5L613.8,124.9z
		 M614.1,92.7c-1,1.6-1.9,3.2-3,4.8h10c0.3-1.5,0.7-3.1,1.1-4.8H614.1z"/>
	<path fill="#58595B" d="M680.3,72.7c-1.8,4.8-4,9.9-6.5,14.7v57.7h-11.4v-39.4c-1.4,1.9-3,3.7-4.5,5.3c-1-2.9-4.2-9.4-6.1-12.3
		c7-7.1,13.6-18.3,17.5-29.5L680.3,72.7z M727.8,106.4H709v38.8h-12.2v-38.8h-19.7V94.9h19.7V70.3H709v24.6h18.8V106.4z"/>
	<path fill="#58595B" d="M749.1,96.5c0,13.3-1.1,34.8-7.1,48c-1.9-2-6.8-5.8-9.2-6.9c5-11.8,5.3-29.2,5.3-41.1V74.6H768
		c-0.3-1.5-0.7-3.1-1.1-4.5l12-2.1c0.7,2,1.4,4.5,1.9,6.6h26.8v10h-58.5V96.5z M758.1,102.9c0,3.9-0.6,8.8-3.9,12.2
		c-1.1-1.4-3.8-3.5-5.4-4.3c2.7-2.1,3.1-5.7,3.1-8.2v-2.9h6.2V102.9z M794.9,124.2c4.1,4.6,10,11.2,13.2,15.3l-8.9,4.6
		c-0.6-1-1.5-2.2-2.6-3.5c-36.8,2.6-41.6,2.6-44.8,3.7c-0.4-1.8-1.7-6.6-2.6-9.2c2.9-0.4,5.5-1.4,9.6-3.5c1.5-0.6,4.1-1.8,7.2-3.5
		c-8.7,0.6-10.6,1-11.9,1.5c-0.4-1.8-1.7-6-2.6-8.4c1.6-0.2,3.3-1,5.4-2c1.6-0.8,5.8-2.9,9.8-5.7H759V97.6h-8.1V89h8.1v-3.1h8.6V89
		h9.4v8.6h-9.4v15.3c0.8-0.6,1.6-1.2,2.4-1.8c-1-1-1.3-2.6-1.3-4.9v-5.9h5.9v6c0,1,0.1,1.5,0.7,1.6c0.6,0,1.8-0.2,2.4-0.3
		c0,0.6,0.1,1.4,0.1,2c2.4-1.9,2.8-4.9,2.8-7.1v-2.8h6.1v3.1c0,3.8-0.6,8.5-4.3,11.6c-0.9-1.1-3-2.8-4.5-3.9c0,0.4,0,0.9,0.1,1.3
		c-0.6,0.2-1.9,0.3-3.1,0.3h-1l4.7,3c-3.5,2.4-7.4,4.8-11.4,6.8l10.2-0.5c3.5-2.3,7.1-4.8,10.3-7.5l8.5,5.8
		c-7.5,5.5-15.6,10.1-23.7,14.1l17.7-1.1c-1.3-1.5-2.6-3.1-3.8-4.4L794.9,124.2z M788.2,113.9V97.6h-9.2V89h9.2v-3.1h8.6V89h10.8
		v8.6h-10.8v16.4H788.2z M805.7,108.9c0.8,0,2.5-0.1,3.3-0.4c0.1,1.4,0.2,3.1,0.3,4.6c-0.7,0.3-2.2,0.4-3.5,0.4h-2.4
		c-4.7,0-5.5-2.2-5.5-6.4v-7.4h6.3v7.5c0,1.2,0.1,1.8,1,1.8H805.7z"/>
	<path fill="#58595B" d="M117.5,233.6l5,1.9c-1.3,5-3.3,10.9-6,14.8l-8.2-4.3c2.6-3.5,4.9-8.9,6.1-13.6l1.8,0.7v-23.3
		c-0.9,1.3-1.8,2.4-2.8,3.4c-0.6-1-1.6-2.7-2.6-4.3v29.7H97.2v5.8h-9.4v-61.3h23v16.4c3.9-5.7,7-13.1,9-20.5l9.6,2.5
		c-0.9,3.1-1.9,6.1-3.1,9.1h8.2c-1-2.5-2.6-5.7-4-8.2l9-3.6c1.9,3,4,7,5.1,9.6l-4.9,2.2h16.3v8.5h-12.9v2.5h11.1v7.9h-11.1v2.5h11.1
		v7.9h-11.1v2.6h13.5v8.8h-30.8v2.3H117.5z M97.2,192.6v6h4v-6H97.2z M97.2,213.8h4v-6.1h-4V213.8z M101.2,229.1v-6.3h-4v6.3H101.2z
		 M131.8,234.3c0.5,4.6,0.8,10.4,0.8,14.3l-8.6,1.3c0.2-4-0.1-9.9-0.4-14.4L131.8,234.3z M133,199.2h-7v2.5h7V199.2z M133,209.6h-7
		v2.5h7V209.6z M133,219.9h-7v2.6h7V219.9z M141.4,233c1.4,4.6,2.9,10.3,3.6,14.2l-8.5,2.2c-0.4-4-1.9-9.9-3.2-14.5L141.4,233z
		 M152,231.8c2.2,4.6,4.6,10.5,5.8,14.5l-9.1,3.4c-0.9-4-3.3-10.3-5.3-15L152,231.8z"/>
	<path fill="#58595B" d="M192.3,233.6l5,1.9c-1.3,5-3.3,10.9-6,14.8l-8.2-4.3c2.6-3.5,4.9-8.9,6.1-13.6l1.8,0.7v-23.3
		c-0.9,1.3-1.8,2.4-2.8,3.4c-0.6-1-1.6-2.7-2.6-4.3v29.7H172v5.8h-9.4v-61.3h23v16.4c3.9-5.7,7-13.1,9-20.5l9.6,2.5
		c-0.9,3.1-1.9,6.1-3.1,9.1h8.2c-1-2.5-2.6-5.7-4-8.2l9-3.6c1.9,3,4,7,5.1,9.6l-4.9,2.2h16.3v8.5H218v2.5h11.1v7.9H218v2.5h11.1v7.9
		H218v2.6h13.5v8.8h-30.8v2.3H192.3z M172,192.6v6h4v-6H172z M172,213.8h4v-6.1h-4V213.8z M176,229.1v-6.3h-4v6.3H176z M206.6,234.3
		c0.5,4.6,0.8,10.4,0.8,14.3l-8.6,1.3c0.2-4-0.1-9.9-0.4-14.4L206.6,234.3z M207.8,199.2h-7v2.5h7V199.2z M207.8,209.6h-7v2.5h7
		V209.6z M207.8,219.9h-7v2.6h7V219.9z M216.2,233c1.4,4.6,2.9,10.3,3.6,14.2l-8.5,2.2c-0.4-4-1.9-9.9-3.2-14.5L216.2,233z
		 M226.8,231.8c2.2,4.6,4.6,10.5,5.8,14.5l-9.1,3.4c-0.9-4-3.3-10.3-5.3-15L226.8,231.8z"/>
	<path fill="#58595B" d="M305.5,200.4v7.6h-14.3l-0.5,5.5h-43.1l0.7-5.5h-11.9v-7.6h12.9l0.7-5.4h42.6l-0.5,5.4H305.5z M289.1,240.1
		c5.4,1.5,10.5,3,14.1,4.2l-7.5,6.5c-5.2-2-14.1-5-22.7-7.3l3.2-3.4h-12l4.6,3.4c-6.4,3.4-17.1,6.2-26.2,7.4c-1.3-2-3.8-5.2-5.7-7.3
		c5.6-0.6,12-1.9,17.1-3.5h-7.9v-25h49.7v25H289.1z M248.2,198.8h-9.7v-13.8h26.6c-0.5-1.3-1.1-2.7-1.6-3.9l9.5-2.5
		c1.1,1.9,2.2,4.3,3,6.4h27.2v13.8H293v-5.5h-44.8V198.8z M256.6,221.8h28.2v-1.6h-28.2V221.8z M256.6,228.3h28.2v-1.6h-28.2V228.3z
		 M256.6,234.9h28.2v-1.7h-28.2V234.9z M257.9,208.4h7.5l0.2-1.6h-7.5L257.9,208.4z M258.9,200.2l-0.1,1.4h7.4l0.1-1.4H258.9z
		 M281.3,208.4l0.1-1.6h-7l-0.2,1.6H281.3z M282,200.2h-6.8l-0.1,1.4h6.8L282,200.2z"/>
	<path fill="#58595B" d="M359.7,205.4v-7.1h-4.6c-0.9,3-2.2,5.8-4.5,8.2h19.8v31H363c6.2,1.9,12.3,4,16.4,5.7l-4.9,7.6
		c-5.4-2.5-14.4-6-22.7-8.5l2.8-4.7h-18.3l4.9,2.9c-6.7,3.7-17,7.9-24.6,10.2c-0.9-1.9-3.4-7-5-9.1c5.2-1,11.6-2.5,16.8-4.1h-7.5
		v-31h27.6c-1.9-1.5-4.9-3.4-6.7-4.3c1.4-1.3,2.5-2.6,3.3-4h-6.3v6.9h-9.6v-6.9H324c-1.3,3.7-3.6,7.2-7.2,10c-1.3-1.9-5.2-5.6-7-6.8
		c6-4.4,6.7-9.9,6.7-14.3v-4.5c7.9-0.4,16.9-1.4,22.1-3.4l5.8,6.1c-5.2,1.9-12,3.1-18.7,3.6c-0.1,0.4-0.1,0.9-0.2,1.4h19.7v7.3
		c1.7-3.4,2-6.9,2-9.8v-5.5c8.4-0.4,17.9-1.4,23.1-3.4l6.6,5.8c-5.7,2.1-13.4,3.3-20.7,3.8c0,0.5,0,1.1-0.1,1.7h23.1v7.8h-10v7.1
		H359.7z M359.4,212.8h-28.1v2.2h28.1V212.8z M331.3,223.2h28.1v-2.2h-28.1V223.2z M331.3,231.3h28.1v-2.2h-28.1V231.3z"/>
	<path fill="#58595B" d="M414.1,198c-0.7,1.5-1.5,2.9-2.2,4.3H446V239c0,5-0.9,7.9-4.3,9.6c-3.3,1.6-7.6,1.8-13.5,1.8
		c-0.4-3-1.8-7.6-3.2-10.5c3.2,0.2,7.6,0.2,8.8,0.2c1.2,0,1.6-0.4,1.6-1.3v-2.7h-26c-1.3,5.7-4,11.1-8.7,14.8
		c-1.4-2.2-5.7-6.9-7.9-8.4c6.6-5.4,7-13.2,7-20.3v-3.4c-2.4,2.4-4.9,4.6-7.7,6.5c-1.6-2.5-5.1-6.4-7.3-8.5
		c7-4.6,12.6-11.4,16.8-18.8h-15v-10.2h19.7c1.1-2.9,2-5.9,2.8-8.8l11.3,2.5c-0.7,2.1-1.3,4.1-2.1,6.2h35.8V198H414.1z M435.4,227.1
		v-3.2h-24.5c0,1-0.1,2.1-0.1,3.2H435.4z M435.4,211.9h-24.5v3.1h24.5V211.9z"/>
	<path fill="#58595B" d="M526.7,202c-1.6,10.9-4.2,20-8.2,27.5c3.6,5,7.9,9.2,12.9,12.2c-2.5,2-5.8,6-7.5,8.8
		c-4.5-3.1-8.4-7-11.7-11.5c-4.1,4.8-9.2,8.7-15.4,11.7c-1.3-1.9-5.2-6.1-7.5-7.9c7.5-3.1,13.1-7.4,17.3-13.1
		c-1.7-3.4-3.2-7-4.6-10.8c-0.8,1.2-1.6,2.4-2.5,3.5c-1-1.7-3.3-5.1-5.2-7.4l-4.6,2.5c-0.2-0.8-0.6-1.7-1-2.7
		c-0.9,3.3-1.9,6.4-3.1,9.3c3.8,4.3,7.3,8.7,9.4,12.2l-8.7,6.8c-1.3-2.5-3.4-5.6-5.9-8.8c-3.8,6-8.5,11-14.2,14.7
		c-1.3-2.1-5.1-6.2-7.2-8c6.2-3.5,11.1-8.7,14.6-15c-1.9-2.4-4-4.6-6-6.7c-0.7,1-1.3,2-1.9,2.8c-1.6-1.8-5.2-5.3-7.3-6.9
		c3.5-4.1,7.1-10.4,9.4-16.3h-7.1v-9.6h14.1c-0.7-2.3-1.9-5.1-3.1-7.3l9.4-3.1c1.6,2.6,3.3,6.1,4,8.5l-5.2,1.9h17.5v9.6H490
		c2.3,3,4.6,6.4,6.4,9.5c4.2-7.8,6.7-18.3,8-29.2l10.1,1.6c-0.6,3.8-1.3,7.6-2.1,11.3h17.4v10H526.7z M486.9,210.7
		c-1.7-3.1-4-6.6-6.1-9.3l4.7-2.5h-14.4l6.4,2c-1.9,4.6-4.5,9.7-7.2,14.2l4-3c1.1,1.1,2.4,2.4,3.6,3.7c0.6-2,1.1-4.1,1.6-6.3
		L486.9,210.7z M509.7,202c-0.5,1.5-1,3-1.6,4.5c1.1,4.2,2.5,8.3,4.3,12.2c1.8-4.9,3.1-10.5,3.9-16.7H509.7z"/>
	<path fill="#58595B" d="M604.4,239v9h-66.7v-66.7h65.2v9h-11.5c1,2.2,2.1,4.7,2.7,6.9h7.6v8.2h-10v2.5h8.1v7.3h-8.1v2.6h8.1v7.3
		h-8.1v2.6h11v8.2h-26.6v2.1h-9.4v-24.2c-0.6,0.7-1.2,1.3-1.8,1.9c-0.7-1.1-1.9-3.1-3.2-4.9l-4.6,5.3c-1.8-2.1-5.5-5.1-8.8-7.2V239
		H604.4z M548.3,190.3v16.9l4.6-5.2c2.2,1.2,4.9,2.9,7.1,4.6c4.2-4.1,7.9-10.1,10.2-16.3H559c2.8,1.6,5.9,3.7,7.6,5.3l-6.1,6.9
		c-1.9-2.2-6.4-5.3-9.8-7.3l4.5-4.9H548.3z M549.4,231c2.8-3.7,6.7-9.6,10.1-15.4l6.1,6.5c-2.7,5.1-5.8,10.6-9,15.7L549.4,231z
		 M582.1,205.3h-6v2.5h6V205.3z M582.1,215.1h-6v2.6h6V215.1z M582.1,225h-6v2.6h6V225z M583.3,197.1c-0.5-1.6-1.1-3.2-1.7-4.6
		l7.8-2.2h-13.2l3.3,1c-0.7,1.9-1.5,4-2.4,5.9H583.3z"/>
	<path fill="#58595B" d="M655.3,224.8c-0.2-1-0.7-2.2-1.2-3.4c-16.8,1.6-20,2.2-22,3.1c-0.4-1.4-1.4-4.9-2.3-7.3
		c-4.9,2.6-10.3,5.2-14.9,7.4l-5.2-8.7c4.8-1.6,11.9-4.3,18.8-7l1.6,6.8c1.7-0.6,3.4-1.8,5.6-3.5c1-0.7,2.5-2.1,4.5-3.9
		c-4.2,0.3-5.8,0.7-6.8,1.1c-0.5-1.8-1.9-6-2.9-8.3c1.2-0.3,2.4-1.3,3.5-2.6c0.6-0.6,1.7-2.1,3-4h-24.6v-9.8h26.4
		c-0.7-1.2-1.3-2.4-2-3.4l11.2-2.5c1.3,1.8,2.8,4,3.9,5.9h26.2v9.8h-23.6l6.8,4.1c-3.3,3.9-7,7.7-11,11.3l5.8-2
		c1,1.5,2.1,3.1,3.1,4.9l5-4c4.8,2.5,11.5,6.4,15,9.3l-7.9,6.4c-2.1-1.9-5.8-4.6-9.6-7c0.8,1.6,1.4,3.1,1.8,4.3L655.3,224.8z
		 M650.6,227.6h28.7v10h-28.7v12.5H639v-12.5h-28.6v-10H639v-4.4h11.7V227.6z M622.8,209.5c-2.2-2.4-7.2-6-11-8.3l7.2-5.8
		c3.7,2,8.9,5.3,11.4,7.7L622.8,209.5z M647.5,194.5c-1.3,1.8-2.7,3.6-4.1,5.3l5.2-0.1c1.5-1.7,2.9-3.4,4.2-5.2H647.5z M650.3,213.8
		c-0.4-0.9-1-1.7-1.5-2.5c-1.1,1-2.2,1.9-3.4,2.8L650.3,213.8z M658.9,204.3c2.9-2.3,6.9-6.3,9.1-9.3l9.1,5.2
		c-3.3,3.4-7.2,6.8-10.2,9L658.9,204.3z"/>
	<path fill="#58595B" d="M753.5,190.6c0,0,0,3.4-0.1,4.7c-0.9,33.3-1.6,45.4-4.8,49.5c-2.3,3.3-4.6,4.2-7.9,4.8
		c-3,0.5-7.6,0.4-12.1,0.3c-0.1-2.9-1.6-7.6-3.6-10.5c4.8,0.4,9.3,0.4,11.3,0.4c1.5,0,2.3-0.3,3.3-1.3c2.2-2.3,3.1-13.3,3.7-38H729
		c-2,4.3-4.2,8.1-6.4,11.1c-1.3-1.2-3.9-3.1-6.1-4.6v35.6h-19.6v5.3h-9.8v-56.5h8.5c0.7-3.8,1.4-8.5,1.6-12.2l11.9,1.6
		c-1.3,3.7-2.5,7.4-3.7,10.5h11.1v9.9c3.7-6.1,7-14.1,8.9-21.9l10.5,2.5c-0.8,2.9-1.8,5.8-2.8,8.8H753.5z M706.7,200.8h-9.8v10.1
		h9.8V200.8z M706.7,233.1v-12.9h-9.8v12.9H706.7z M731.4,230.9c-1.9-4.6-6.4-11.9-9.8-17.4l8.5-4.8c3.4,5.1,8.2,12.2,10.5,16.6
		L731.4,230.9z"/>
	<path fill="#58595B" d="M811.7,197.8v3.9h16V240c0,4.1-0.6,6.7-3.1,8.3c-2.5,1.6-5.4,1.7-9.3,1.7c-0.3-2.7-1.6-6.8-2.8-9.4
		c1.5,0.1,3.4,0.1,4,0.1c0.7,0,0.9-0.2,0.9-1v-5.4h-5.8v15.3h-10.4v-15.3h-5.4v15.8h-10.1v-37.8c-1.6,1.8-3.1,3.7-4.3,5.2
		c1.6,2.1,3.1,4,3.7,4.7l-5.6,7.3c-0.7-1.5-1.8-3.4-3-5.4v25.7h-9.7v-23.3c-1.3,1.9-2.8,3.5-4.1,4.9c-0.9-2.5-3.5-7.6-5.1-9.3
		c5.2-5,10.3-13.2,13.8-21.2h-11.1v-9.4h8.5c-1.3-2.5-3.1-5.6-4.8-8l8.7-4c2.2,2.8,4.7,6.6,5.9,9.1l-5.6,2.8h3.1l1.8-0.4l5.5,3.4
		c-1.7,5.4-4,11-6.7,16.2v0.5l0.9,1c1.2-2,2.4-4.3,3.1-6.1l5.2,3.7v-8.4h15.5v-3.9h-16.8V188h16.8v-8.8h10.4v8.8h6.6
		c-1.7-1.3-3.7-2.5-5.5-3.5l6.1-5.7c3.4,1.7,7.8,4.5,9.9,6.7l-2.6,2.5h3.7v9.8H811.7z M795.9,210.7v3.5h5.4v-3.5H795.9z
		 M801.3,226.1v-3.5h-5.4v3.5H801.3z M811.7,210.7v3.5h5.8v-3.5H811.7z M817.4,226.1v-3.5h-5.8v3.5H817.4z"/>
	<path fill="#58595B" d="M843.6,214.8c-2.2-2.2-7.1-5.7-10.6-7.9l5.2-6.7c3.4,1.9,8.4,5.1,10.8,7.2L843.6,214.8z M834.3,244.4
		c2.5-5.7,5.9-14.8,8.5-23.3l7.5,5.3c-2.2,7.8-4.9,16-7.6,23.3L834.3,244.4z M841,180.2c3.2,2.8,7.6,7,9.6,9.7l-6.5,6.4
		c-1.8-2.9-6-7.3-9.2-10.5L841,180.2z M870.6,216c0,0-0.1,2.2-0.1,3.4c-0.9,16.8-1.8,23.9-3.9,26.2c-1.5,1.8-3,2.5-5.1,2.8
		c-1.7,0.3-4.3,0.4-7.1,0.3c-0.1-2.5-1-5.9-2.4-8.2c1.9,0.2,3.5,0.2,4.6,0.2c0.9,0,1.5-0.1,2.2-0.9c0.9-1.2,1.7-5.2,2.2-15.3h-9.8
		c0.7-6.9,1.1-17.7,1.1-26.3h9.6v-8.5h-10.5v-9.1h19.1v26.6h-9.6c-0.1,2.9-0.2,5.8-0.3,8.6H870.6z M905.6,228.1
		c-2.3,1.5-4.7,3-7,4.3c2.2,3.1,4.9,5.8,7.8,7.6c-1.9,1.9-4.8,5.5-6.1,8c-7.2-5.6-12.3-15.7-15.6-26.7h-3V237l7.6-2.5
		c0.2,2.5,0.7,6.2,1.3,8.2c-13.1,4.7-15.6,6.1-17.2,7.3V250l-0.1,0.1c-0.4-2.3-1.8-7.4-3.1-9.9c1.5-0.7,3-2,3-4.9v-14h-2.1v-8.7h3.5
		V182h28.9v8.4h-19.6v2.3h17.1v7.4h-17.1v2.5h17.2v7.5h-17.2v2.5h20.6v8.7h-11.9c0.6,1.4,1.2,2.8,1.9,4.3c1.6-1.3,3.2-2.8,4.3-4
		L905.6,228.1z"/>
	<path fill="#58595B" d="M927.2,223.2c-0.6-1.7-1.6-4.1-2.6-6.5v33.6h-9.2v-25.5c-1.2,4-2.6,7.5-4.1,10.2c-0.7-3.1-2.6-7.9-3.9-10.8
		c3.2-4.9,6-13.6,7.6-21.2h-5.5v-10h5.9v-13.7h9.2v13.7h4.6v10h-4.6v2.3c1.6,2.2,6.1,9.1,7.1,10.8L927.2,223.2z M975.6,228
		c-2,3.9-4.6,7.3-7.6,10.4c0.9,0.7,1.9,1.2,2.8,1.3c1.3,0.1,2.1-2.5,2.6-7.6c1.6,2.1,5.1,4.7,6.7,5.7c-2.2,10.1-5.7,12.6-9.1,12.3
		c-4.2-0.4-7.6-2.3-10.5-5.7c-3.4,2.3-7.2,4.2-11.2,5.7c-1.1-1.9-3.7-5.2-5.5-7c4.6-1.5,8.8-3.6,12.3-6.2c-1.4-3.1-2.5-6.9-3.5-11.1
		h-9l-0.2,1c2.8,2.3,7,5.5,9,7.6l-6.4,6.4c-1-1.2-2.8-2.9-4.6-4.6c-1.8,5-4.9,9.9-9.7,13.8c-1.4-1.7-5.3-5-7.3-6.1
		c7.4-5.5,9.5-12.3,10-18.1h-3.7v-8.2h20.3c-1.1-7.3-1.9-15.6-2.5-24.8c-1.9,3.7-4.2,7.4-6.6,10.8l5.8-1.5c1,3.4,2.1,7.9,2.5,10.6
		l-6.6,1.9c-0.1-0.7-0.1-1.4-0.3-2.2c-7.9,1.2-9.8,1.7-10.8,2.3c-0.4-1.5-1.6-5.2-2.5-7.2c1.3-0.4,2.5-1.6,3.7-3.4
		c0.6-0.7,1.6-2.5,2.9-4.6c-3.1,0.4-4.3,0.7-5,1.1c-0.4-1.6-1.6-5.2-2.5-7.1c1-0.3,1.9-1.2,2.6-2.6c0.7-1.3,3.1-6.5,4.3-11.6
		l7.7,1.9c-1.5,4-3.7,8.4-5.8,11.8l2.1-0.1c0.6-1.4,1.2-2.9,1.7-4.3l6.7,2.2c-0.1-3.6-0.3-7.3-0.4-11.2h8.9c0.1,9.9,0.7,19,1.5,27.1
		c1.3-0.4,2.4-1.6,3.7-3.4c0.6-0.7,1.6-2.5,2.9-4.6c-3.1,0.4-4.3,0.7-5.1,1.1c-0.4-1.6-1.6-5.1-2.5-7.1c1-0.2,1.9-1.2,2.6-2.5
		c0.7-1.3,3-6.2,4-11.1l7.7,1.9c-1.4,3.8-3.5,7.9-5.5,11.3l2.1-0.1c0.6-1.4,1.2-2.9,1.7-4.3l7.7,2.5c-2.2,4.4-4.9,8.9-7.7,12.8
		l5.8-1.6c1.2,3.4,2.6,8,3.2,10.7l-6.4,2.1c-0.1-0.8-0.3-1.8-0.6-2.8l-2.8,0.4c1.6,1.4,3.6,3,4.7,4.1l-1.9,1.6h5.8v8.2h-8L975.6,228
		z M941.9,204.2c-0.7,0.9-1.3,1.8-2,2.6l2.5-0.3L941.9,204.2z M965.9,212.6c-3.1,0.6-4.2,1-5,1.4c-0.4-1.4-1.4-4.8-2.2-6.8
		c0.4,3.8,0.9,7.3,1.5,10.5h4.9c-0.9-0.8-1.8-1.6-2.5-2.3L965.9,212.6z M961.9,225.9c0.4,1.6,0.9,3,1.3,4.3c1-1.3,2-2.8,2.8-4.3
		H961.9z M970,203.4c-0.6,0.8-1.2,1.6-1.8,2.4l2.5-0.2L970,203.4z"/>
	<path fill="#58595B" d="M1026.3,181.8c-0.4,0.4-0.7,0.9-1.1,1.3c6.7,5.6,18.8,10.2,30.7,12.3c-2.2,1.9-5.3,5.8-6.8,8.2
		c-1.2-0.3-2.5-0.7-3.7-1v19.5h-53.2v-19c-1.3,0.4-2.6,0.8-3.9,1.2c-1-2.1-3.8-6.4-5.6-8.5c14-3.1,27.3-9.1,34-17.6L1026.3,181.8z
		 M996.2,224h45.4v26h-11.2v-1.5h-23.5v1.8h-10.7V224z M1040.1,200.9c-2.8-1-5.5-2.2-8.1-3.6v1.7h-26.6v-1.2
		c-2.2,1.1-4.5,2.1-6.8,3.1H1040.1z M1004.4,215.8c-0.3-2.1-0.9-4.9-1.6-7.1l5-1.3h-6.6v8.4H1004.4z M1006.9,230.9v1.9h23.5v-1.9
		H1006.9z M1030.4,241.6v-1.9h-23.5v1.9H1030.4z M1014,207.4h-3.7c1,2.4,1.7,5.2,1.9,7.2l-4.3,1.2h6V207.4z M1023.7,192.1
		c-1.5-1-2.9-2.2-4.3-3.4c-1.4,1.2-2.8,2.3-4.4,3.4H1023.7z M1022.7,207.4v8.4h5l-3.8-1c0.8-2.1,1.7-5.1,2.2-7.4H1022.7z
		 M1035.9,207.4h-5.5l4.8,1c-1.3,2.8-2.5,5.4-3.5,7.3h4.2V207.4z"/>
</g>
<path fill="#FFD25C" d="M1024,596.5H110.4c-11.6,0-21-9.4-21-21v-70.4c0-11.6,9.4-21,21-21H1024c11.6,0,21,9.4,21,21v70.4
	C1045,587.1,1035.6,596.5,1024,596.5z"/>
<g>
	<g>
		<path fill="#58595B" d="M492.1,548.6c-0.2,3.1-0.6,5.9-1.3,8.4l-3.3-1c0.8-2.3,1.3-4.9,1.5-7.8L492.1,548.6z M495.8,537.4v-2.3
			h-6.9v-15.7h17.3v15.7h-6.9v2.3h6.4v3.2h-6.4v2.5h7.3v3.5h-18.3V543h7.4v-2.5h-6.5v-3.2H495.8z M496,522.5h-3.9v9.6h3.9V522.5z
			 M495.7,530.3l-2.1,0.5c-0.4-2-0.8-3.9-1.4-5.7l2-0.7C494.7,526.1,495.2,528.1,495.7,530.3z M497,556.2l-3.3,0.4
			c0-3.3-0.1-5.9-0.3-7.7l2.9-0.4C496.6,550.4,496.8,553,497,556.2z M502.3,555.4l-3.2,0.7c-0.3-2.7-0.7-5.1-1.1-7.2l2.9-0.6
			C501.3,550.5,501.8,552.8,502.3,555.4z M502.9,522.5h-4.1v9.6h4.1V522.5z M502.6,524.6c-0.2,2.2-0.6,4.3-1.3,6.3l-2-0.7
			c0.5-1.9,0.9-3.9,1.2-6.1L502.6,524.6z M507,554.3l-2.9,1.1c-0.5-2.3-1.1-4.6-1.7-6.8l2.8-0.8C506,550.1,506.6,552.3,507,554.3z
			 M517.9,518.3v7.5h8.4v3.7h-8.4v6.8h7v20.9h-3.8V555H512v2.1h-3.8v-20.9h5.8v-17.9H517.9z M521.1,551.3v-11.5H512v11.5H521.1z"/>
		<path fill="#58595B" d="M553,541.5c-2.3,0.8-4.7,1.4-7.2,2.1v8.8c0,2.7-1.4,4.1-4.3,4.1h-4.7l-0.9-3.8c1.5,0.2,2.9,0.3,4.2,0.3
			c1.1,0,1.6-0.5,1.6-1.5v-6.9c-2.5,0.5-5.1,1.1-7.8,1.5l-0.5-4c2.9-0.5,5.7-1,8.4-1.5v-7.6h-8.4V529h8.4v-4.5
			c-2.1,0.4-4.3,0.8-6.5,1.1l-0.8-3.8c5.9-0.6,11.2-1.9,15.7-3.7l1.4,3.8c-1.8,0.6-3.7,1.2-5.7,1.8v5.4h9.1
			c-0.3-3.3-0.4-6.9-0.4-10.9h4.1c0,4.1,0.1,7.8,0.4,10.9h12.8v3.8h-12.4c0.3,2.8,0.6,5.1,1.1,7c0.2,0.8,0.4,1.5,0.6,2.2
			c1.8-2.2,3.4-4.7,4.8-7.5l3.5,1.8c-1.9,3.9-4.1,7.2-6.8,10c0.5,1.1,1,2.1,1.5,2.9c1.3,1.9,2.2,2.9,2.9,2.9c0.5,0,1.1-2.2,1.6-6.6
			l3.5,1.9c-1.1,6-2.6,9-4.6,9c-1.8,0-3.7-1.3-5.7-3.8c-0.8-1-1.5-2.2-2.2-3.5c-2.9,2.5-6.2,4.4-9.8,5.8l-2.2-3.5
			c4-1.4,7.4-3.5,10.4-6.2c-0.5-1.4-0.9-2.8-1.3-4.4c-0.6-2.3-1.1-5-1.4-8.1h-9.5v6.6c2.5-0.7,4.9-1.4,7.2-2.2V541.5z M570.8,524.2
			l-2.9,2.9c-1.8-1.9-4.2-3.8-7.4-6l2.7-2.6C566.2,520.4,568.7,522.3,570.8,524.2z"/>
		<path fill="#58595B" d="M589.2,528.4v3.1c-1.3,2.2-2.7,4.4-4.3,6.5h5.6v2.7c-0.8,3.2-1.6,5.8-2.7,7.9c0.3,0.2,0.5,0.4,0.8,0.7
			c1.4,1.2,2.6,2.1,3.9,2.7c1.3,0.5,3,0.8,5.4,0.8c2.3,0,4.9,0,7.9,0c3.1,0,7.1-0.1,12.1-0.3l-0.9,3.8h-10.7c-3,0-5.8-0.1-8.6-0.2
			c-2.9-0.1-5.1-0.4-6.5-1c-1.8-0.7-3.4-1.8-4.8-3.2c-0.3-0.3-0.6-0.4-1-0.4c-0.8,0-2.2,1.8-4,5.5l-2.9-2.7c2-3.9,3.9-6.1,5.8-6.6
			c1-1.9,1.8-4,2.4-6.3h-6.4v-3c1.9-2.2,3.4-4.3,4.6-6.4H579v-3.6H589.2z M589.2,524.3l-2.6,2.6c-1.5-1.9-3.7-3.9-6.4-6.1l2.7-2.6
			C585.3,520.3,587.4,522.3,589.2,524.3z M591.1,534.4l-1.2-3.8c3-3.7,5.1-7.7,6.3-12.1l3.7,0.6c-0.4,1.4-0.9,2.7-1.4,4h6.2
			c-0.6-1.4-1.3-2.7-2.1-4l3.6-1c0.9,1.9,1.7,3.5,2.2,5h7.2v3.6h-7.4v4h6.3v3.5h-6.3v3.9h6.3v3.5h-6.3v4.1h7.9v3.6h-22.4v-18.2
			C593,532.3,592.1,533.4,591.1,534.4z M604.6,526.7h-6.9v4h6.9V526.7z M604.6,534.2h-6.9v3.9h6.9V534.2z M604.6,541.6h-6.9v4.1h6.9
			V541.6z"/>
		<path fill="#58595B" d="M635.9,523.3v-3.9h9.2c1.1,12.8,6.9,24,17.4,33.7l-2.3,3.5c-8.5-7.7-14.1-16.6-16.7-26.6
			c-3,11.4-8.7,20.2-17.3,26.5l-2.4-3.4c9.3-6.8,15.3-16.8,18.1-29.7H635.9z"/>
	</g>
</g>
<g>
</g>
<g>
</g>
<g>
</g>
<g>
</g>
<g>
</g>
<g>
</g>
<g>
</g>
<g>
</g>
<g>
</g>
<g>
</g>
<g>
</g>
<g>
</g>
<g>
</g>
<g>
</g>
<g>
</g>
</svg>
