<?xml version="1.0" encoding="utf-8"?>
<!-- Generator: Adobe Illustrator 18.0.0, SVG Export Plug-In . SVG Version: 6.00 Build 0)  -->
<!DOCTYPE svg PUBLIC "-//W3C//DTD SVG 1.1//EN" "http://www.w3.org/Graphics/SVG/1.1/DTD/svg11.dtd">
<svg version="1.1" id="Layer_1" xmlns="http://www.w3.org/2000/svg" xmlns:xlink="http://www.w3.org/1999/xlink" x="0px" y="0px"
	 viewBox="0 142.6 612 506.9" enable-background="new 0 142.6 612 506.9" xml:space="preserve">
<title>usd</title>
<path fill="#FFFFFF" d="M491.2,549.8c-1.8-8.1-3.9-16.4-6.4-24.5c-11.9-38.2-29.1-74.5-38.7-113.6c-9.3-37.8-6.6-79.4-28.5-113
	c-39-61.8-120.7-80.2-182.5-41.2c-16.6,10.5-30.7,24.6-41.2,41.2c-20.9,32.1-24.2,71.1-29.3,108.4c-6.8,50-31.1,95.2-43.7,143.9
	c-1.4,5.2,1.6,10.6,6.9,12c3.2,0.9,6.6,0.1,9.1-2.2l1.2-1c3.7-3.2,9.2-3.2,12.9,0l19.3,17.2c3.7,3.2,9.2,3.2,12.9,0l19.6-17.2
	c3.7-3.2,9.2-3.2,12.9,0l19.7,17.2c3.7,3.2,9.2,3.2,12.9,0l19.6-17.2c3.7-3.2,9.2-3.2,12.9,0l21,18.4c2.9,2.5,7.1,2.5,10,0l21-18.4
	c1.4-1.3,3.2-2.1,5.1-2.3c13.6,25.3,45.2,34.8,70.5,21.1c4.7-2.5,9-5.8,12.7-9.6l9,8c3.7,3.2,9.2,3.2,12.9,0l19.8-17.3
	c3.6-3.2,9-3.2,12.7-0.1c4.1,3.5,10.3,2.9,13.8-1.2C491.1,555.9,491.8,552.8,491.2,549.8z"/>
<path fill="#F6F3DB" d="M484.8,525.3c-11.9-38.2-29.1-74.5-38.7-113.6c-9.3-37.8-6.6-79.4-28.5-113c-39-61.8-120.7-80.2-182.5-41.2
	c-16.6,10.5-30.7,24.6-41.2,41.2c-20.9,32.1-24.2,71.1-29.3,108.4c-6.8,50-31.1,95.2-43.7,143.9c-1.4,5.2,1.6,10.6,6.9,12
	c3.2,0.9,6.6,0.1,9.1-2.2l1.2-1c3.7-3.2,9.2-3.2,12.9,0l19.3,17.2c3.7,3.2,9.2,3.2,12.9,0l19.6-17.2c3.7-3.2,9.2-3.2,12.9,0
	l19.7,17.2c3.7,3.2,9.2,3.2,12.9,0l19.6-17.2c3.7-3.2,9.2-3.2,12.9,0l21,18.4c2.9,2.5,7.1,2.5,10,0l21-18.4c3.7-3.2,9.2-3.2,12.9,0
	l19.6,17.2c3.7,3.2,9.2,3.2,12.9,0l19.6-17.2c3.7-3.2,9.2-3.2,12.9,0l19.6,17.2c3.7,3.2,9.2,3.2,12.9,0l19.8-17.3
	c3.6-3.2,9-3.2,12.7-0.1l0,0c4.2,3.4,10.3,2.9,13.8-1.3c1.9-2.3,2.7-5.4,2-8.3C489.4,541.7,487.3,533.4,484.8,525.3z"/>
<path fill="#FFFFFF" d="M269.7,338.9c0,13.2-10.7,23.9-23.9,23.9s-23.9-10.7-23.9-23.9c0-13.2,10.7-23.9,23.9-23.9l0,0L269.7,338.9z
	"/>
<path fill="#FFFFFF" d="M265.9,339.4c-1,18-21.1,29.1-34.4,14c-4.6-5.2-6.7-12.2-5.6-19.1c0.5-3.5,1.9-6.9,4-9.8
	c2-2.7,8.8-9.4,12.3-8.2c4.1,1.4,9.6,9.6,12.6,12.6l11.3,11.4c1.8,1.8,9-1.1,7.2-2.9c-7.3-7.3-14.5-17-22.9-22.9
	c-9.1-6.4-24.7,4.7-29.3,12.8c-6.7,12.3-2.2,27.7,10.1,34.4c2.9,1.6,6.1,2.6,9.4,2.9c16.4,1.9,31.9-9.6,32.9-26.4
	C273.7,335.5,266.1,337.1,265.9,339.4z"/>
<path fill="#6F6F6F" d="M261.9,338.9c0,9-7.3,16.2-16.2,16.2s-16.2-7.3-16.2-16.2c0-9,7.3-16.2,16.2-16.2l0,0L261.9,338.9z"/>
<circle fill="#545252" cx="245.7" cy="338.7" r="9.2"/>
<path fill="#FFFFFF" d="M343.4,338.9c0,13.2,10.7,23.9,23.9,23.9c13.2,0,23.9-10.7,23.9-23.9c0-13.2-10.7-23.9-23.9-23.9l0,0
	L343.4,338.9z"/>
<path fill="#FFFFFF" d="M339.6,339.9c0.8,14.9,13.5,26.4,28.4,25.6c1.8-0.1,3.5-0.4,5.2-0.8c16.7-3.8,27.3-21.9,19.4-37.9
	c-4.6-9.2-20-19.8-29.5-11.8c-8.1,6.9-15.3,15.3-22.9,22.9c-3.3,3.3,4.2,4,6.3,1.8l23.9-23.9l-4.6,1.6c17.2,0.9,28,20.5,17.3,35
	c-13,17.7-35.1,3.3-36-14.5C347.1,334.8,339.4,336.5,339.6,339.9z"/>
<path fill="#6F6F6F" d="M351.2,338.9c0,9,7.3,16.2,16.2,16.2s16.2-7.3,16.2-16.2c0-9-7.3-16.2-16.2-16.2L351.2,338.9z"/>
<circle fill="#545252" cx="367.4" cy="338.7" r="9.2"/>
<path fill="#F1D65C" d="M352.2,336.7c-3.1-5.6-36-21-46.8-21c-13,0-42.6,13.7-46.9,21c-6.3,11.1-8.3,24.7-2.3,34.8l38.2,64.2
	c3,5.1,7,7.6,10.9,7.6s8-2.5,10.9-7.6l38.2-64.2C360.5,361.4,359.8,350.2,352.2,336.7z"/>
<circle fill="#EA9A32" cx="292.5" cy="335.3" r="6.6"/>
<circle fill="#EA9A32" cx="318.6" cy="335.3" r="6.6"/>
<path fill="#E1E0C3" d="M153.1,544.6l21-54.6c0.3-0.9,1.4-1.3,2.2-1c0.7,0.3,1.2,1,1.1,1.8l-8.3,59c-0.5,3.3-3.5,5.6-6.8,5.1
	c-0.7-0.1-1.4-0.3-2-0.6l-4.4-2.3C153.2,550.7,152,547.4,153.1,544.6z"/>
<path fill="#E1E0C3" d="M214.5,547.9l15.8-56.3c0.2-0.9,1.2-1.5,2.1-1.3c0.8,0.2,1.4,1,1.3,1.8l-2.7,59.6c-0.1,3.3-3,5.9-6.3,5.8
	c-0.7,0-1.4-0.2-2-0.4l-4.6-1.9C215.3,554,213.7,550.9,214.5,547.9z"/>
<path fill="#E1E0C3" d="M458.5,544.6l-21-54.6c-0.3-0.9-1.4-1.3-2.2-1c-0.7,0.3-1.2,1-1.1,1.8l8.3,59c0.5,3.3,3.5,5.6,6.8,5.1
	c0.7-0.1,1.4-0.3,2-0.6l4.4-2.3C458.4,550.7,459.6,547.4,458.5,544.6z"/>
<path fill="#E1E0C3" d="M397,547.9l-15.8-56.3c-0.2-0.9-1.2-1.5-2.1-1.3c-0.8,0.2-1.4,1-1.3,1.8l2.7,59.6c0.1,3.3,3,5.9,6.3,5.8
	c0.7,0,1.4-0.2,2-0.4l4.6-1.9C396.2,554,397.8,550.9,397,547.9z"/>
<path fill="#E1E0C3" d="M311.9,547.2l-7.3-58c-0.1-0.9-1-1.6-1.9-1.5c-0.8,0.1-1.4,0.7-1.5,1.5l-6.1,59.3c-0.4,3.3,2.1,6.3,5.4,6.6
	c0.7,0.1,1.4,0,2.1-0.1l4.8-1.2C310.3,553,312.2,550.2,311.9,547.2z"/>
<circle fill="#D55644" cx="383.7" cy="532.6" r="52.1"/>
<path fill="#2A629B" d="M371.4,570c1.9,0.6,3.9,1.1,5.9,1.4l-2-2.7L371.4,570z"/>
<path fill="#2A629B" d="M383.7,493.3L383.7,493.3c-1.9,0-3.8,0.2-5.7,0.5v4.2l4.3,1.4l-4.3,1.4v4.4l-2.7-3.6l-4.3,1.4l2.7-3.6
	l-2.7-3.6l4.2,1.6l2.5-3.3c-21.5,3.3-36.2,23.4-32.9,44.8c0.5,3.1,1.3,6.1,2.5,9l2.5-3.6l-2.7-3.6l4.6,1.4l2.9-3.6v4.5l4.3,1.4
	l-4.3,1.4v4.5l-2.9-3.6l-4.3,1.4c4.4,10.4,13,18.5,23.7,22.1l2.4-3.4l-2.7-3.6l4.4,1.4l2.7-3.6v4.5l4.3,1.4l-4.3,1.4v3.8
	c1.9,0.3,3.8,0.4,5.7,0.5l0,0L383.7,493.3L383.7,493.3z M354.6,527.6l-2.9-3.6l-4.4,1.4l2.7-3.6l-2.7-3.6l4.6,1.4l2.9-3.6v4.5
	l4.3,1.4l-4.3,1.4L354.6,527.6z M365.6,555.8v4.5l-2.7-3.6l-4.3,1.4l2.7-3.6l-2.7-3.6l4.2,1.4l2.7-3.6v4.5l4.3,1.4L365.6,555.8z
	 M365.6,533.4v4.5l-2.7-3.6l-4.3,1.4l2.7-3.6l-2.7-3.6l4.2,1.4l2.7-3.6v4.5l4.3,1.4L365.6,533.4z M365.6,511.1v4.5l-2.7-3.6
	l-4.3,1.4l2.7-3.6l-2.7-3.6l4.2,1.4l2.7-3.6v4.5l4.3,1.4L365.6,511.1z M378,545.5v4.5l-2.7-3.6l-4.3,1.4l2.7-3.6l-2.7-3.6l4.4,1.4
	l2.7-3.6v4.5l4.3,1.4L378,545.5z M378,523.1v4.5l-2.7-3.6l-4.3,1.4l2.7-3.6l-2.7-3.6l4.4,1.4l2.7-3.6v4.5l4.3,1.4L378,523.1z"/>
<path fill="#FFFFFF" d="M370.8,495.7l2.7,3.6l-2.7,3.6l4.3-1.4l2.7,3.6v-4.5l4.3-1.4l-4.3-1.4v-4.2h-0.3l-2.4,3.4L370.8,495.7z"/>
<polygon fill="#FFFFFF" points="378,515.8 375.2,519.4 370.8,518.1 373.5,521.7 370.9,525.3 375.2,524 378,527.6 378,523.1 
	382.3,521.7 378,520.3 "/>
<polygon fill="#FFFFFF" points="378,538.2 375.2,541.8 370.8,540.4 373.5,544.1 370.9,547.7 375.2,546.3 378,550 378,545.5 
	382.3,544.1 378,542.7 "/>
<path fill="#FFFFFF" d="M382.3,566.5l-4.3-1.4v-4.5l-2.7,3.6l-4.4-1.4l2.7,3.6l-2.4,3.4h0.3l3.8-1.2l2,2.7h0.8v-3.6L382.3,566.5z"/>
<polygon fill="#FFFFFF" points="365.6,503.7 363,507.4 358.7,506 361.4,509.6 358.7,513.3 363,511.9 365.6,515.6 365.6,511.1 
	369.9,509.6 365.6,508.3 "/>
<polygon fill="#FFFFFF" points="365.6,526.1 363,529.8 358.7,528.4 361.4,532 358.7,535.7 363,534.3 365.6,537.9 365.6,533.4 
	369.9,532 365.6,530.6 "/>
<polygon fill="#FFFFFF" points="365.6,548.5 363,552.2 358.7,550.8 361.4,554.4 358.7,558.1 363,556.7 365.6,560.3 365.6,555.8 
	369.9,554.4 365.6,553 "/>
<polygon fill="#FFFFFF" points="354.6,520.3 354.6,515.8 351.7,519.4 347.2,518.1 349.9,521.7 347.3,525.3 351.7,524 354.6,527.6 
	354.6,523.1 358.9,521.7 "/>
<path fill="#FFFFFF" d="M354.6,550v-4.5l4.3-1.4l-4.3-1.4v-4.5l-2.9,3.6l-4.6-1.4l2.7,3.6l-2.5,3.6l0,0l4.3-1.4L354.6,550z"/>
<path fill="#FFFFFF" d="M411.8,505.1c-7.4-7.6-17.5-11.9-28.2-11.9v11.9H411.8z"/>
<path fill="#FFFFFF" d="M422.7,528.1c-0.5-4.1-1.6-8.2-3.4-11.9h-35.7v11.9H422.7z"/>
<path fill="#FFFFFF" d="M419.1,549.5c1.8-3.8,3-7.8,3.5-11.9h-39v11.9H419.1z"/>
<path fill="#FFFFFF" d="M410.9,561h-27.2v11C393.8,571.9,403.6,568,410.9,561z"/>
</svg>
