<?xml version="1.0" encoding="utf-8"?>
<!-- Generator: Adobe Illustrator 18.0.0, SVG Export Plug-In . SVG Version: 6.00 Build 0)  -->
<!DOCTYPE svg PUBLIC "-//W3C//DTD SVG 1.1//EN" "http://www.w3.org/Graphics/SVG/1.1/DTD/svg11.dtd">
<svg version="1.1" id="Layer_1" xmlns="http://www.w3.org/2000/svg" xmlns:xlink="http://www.w3.org/1999/xlink" x="0px" y="0px"
	 viewBox="0 0 578.1 506.1" enable-background="new 0 0 578.1 506.1" xml:space="preserve">
<g>
	<path fill="#FFDC5D" d="M389.7,30.1L25.1,345.5c-30.4,26.2-25.5,73,9.6,93.2c101.8,58.4,299.9,134.8,443.2-43.2
		c89.8-111.5,107-215.8,98.2-297.6C566.1,6.4,460.8-31.4,389.7,30.1z"/>
	<g>
		<polygon fill="#FFC235" points="99.2,403.1 99.7,403.9 101.3,402.4 		"/>
		<path fill="#FFC235" d="M117.6,399.7c1.3-1.4,4.1-3,3.5-4.8l-2.3,2.5c-0.4-0.6-1.1-0.8-1.8-0.6c-0.8,0.1-1.6,0.5-2.4,0.9l1.9-0.6
			c-0.4,0.3,0.2,1.1-0.3,1.4c-3.1,0.1-3.3,2.2-6.5,1.4l0.1-0.2c-0.6,0.5-1.3,1-1.9,1.4c-0.7-0.1-0.6-0.8-0.5-1.1
			c-1.7,1.1-3,2.2-5.7,2.7c1.3,1.1,2.6,0.3,4-0.5c1.3-0.8,2.6-1.6,4-0.6l-0.1,0.2C111.9,400.2,115.2,401.1,117.6,399.7z"/>
		<path fill="#FFC235" d="M107.5,400.1l0.2-0.1C107.6,399.9,107.5,400,107.5,400.1z"/>
		<path fill="#FFC235" d="M204,357.5l-0.2-0.4C203.8,357.3,203.8,357.5,204,357.5z"/>
		<path fill="#FFC235" d="M174,370.5c0.1,0,0.1,0,0.2,0C174.1,369.9,174,370.1,174,370.5z"/>
		<path fill="#FFC235" d="M337.6,248.1l0.9,0C338,247.8,337.8,247.9,337.6,248.1z"/>
		<path fill="#FFC235" d="M369.2,219.6L369.2,219.6C369.2,219.5,369.2,219.5,369.2,219.6z"/>
		<path fill="#FFC235" d="M349.2,227l-0.4-0.3C348.9,227,349,227,349.2,227z"/>
		<path fill="#FFC235" d="M358.4,216.9c0.4-0.2,0.7-0.4,1-0.6C359,216.3,358.6,216.6,358.4,216.9z"/>
		<path fill="#FFC235" d="M369,220c0-0.2,0.1-0.3,0.1-0.4C369.1,219.7,369,219.9,369,220z"/>
		<path fill="#FFC235" d="M333.3,240.2l-1.4-0.6C332.2,239.9,332.8,240,333.3,240.2z"/>
		<path fill="#FFC235" d="M360,213.8c0.3,0.1,0.6,0,0.9-0.1C360.6,213.6,360.3,213.6,360,213.8z"/>
		<path fill="#FFC235" d="M120.3,398.8c-0.4,0.1-0.8,0.3-1.3,0.6C119.6,399.3,120,399.1,120.3,398.8z"/>
		<path fill="#FFC235" d="M274.1,289.7c0-0.2-0.1-0.4-0.2-0.6C273.8,289.4,273.9,289.6,274.1,289.7z"/>
		<path fill="#FFC235" d="M308.7,260.6l0.1-0.1c-0.1,0-0.2,0-0.3,0L308.7,260.6z"/>
		<path fill="#FFC235" d="M298.9,269.4c0-0.1,0-0.2-0.1-0.3C298.8,269.3,298.8,269.4,298.9,269.4z"/>
		<path fill="#FFC235" d="M315.2,253c0-0.2,0.1-0.4,0-0.7L315.2,253z"/>
		<path fill="#FFC235" d="M323.3,247.7c-0.7-0.1-0.7-0.7-0.7-1.4c-2.2,1.1-1.6,2.9-4.3,3.6l1.4-0.3c-0.5,1.8-2.5,3.9-4.5,3.9l0-0.6
			c-0.4,1.8-3.6,1.9-3.4,3c0.9,0,0.6,0.7,1.8,0.5l-2.1,3.4l-1.5-1.2l-1.1,1.8c0.9,0.2-2.5,1.4-1.3,2.7c-1.3,0.3-0.6-1.4-0.8-2.2
			c-0.5,1.2-1.1,0.6-1.2,2.1l-2-0.5l-1.4,2.8c0-0.2-0.2-0.2-0.2-0.4c-0.1,1.9-3.2,1.7-2.9,4.5c0-0.1-0.1-0.2-0.1-0.3
			c0.2,1.6-2.3,2.4-3.1,2.8c-0.9,1.2,0.6,1.6,1,2.1c-3.7,2.6-2.5,1.7-4.1,5.6c-3.1-0.1-0.3-4.2-3.4-3.4c0.4,1-0.6,2.8-2,4.6
			c-2,0.8-5,2.6-7.5,2.8l1.1,0.9l-1.7,2.4l-0.1-2.5c0,0.6-0.6,2.2-0.9,3.3c-1.5,2.8-3.3-1.1-3.7,1.9c-0.2-0.1-0.3-0.1-0.5-0.2
			c0.1,1.3-1.6,2.2-3.1,3.9l-0.6-1.8l1.4-0.7c-1.7-0.8-1.7,1.8-2.8,2.6c-0.8,1.4,0.8,2,0.5,2.9c-0.5,0.3-0.7,1.2-1.4,1.1
			c-1.4,0.4-1.5-1.4-1.7-2.3c0.3,2.1-0.1,2.1-1.6,4.3c-0.7-0.5-0.8-0.9-0.6-1.3c-0.3,0.5-0.4,1.1-0.1,1.8l-1.3-0.2
			c-3.2,0.7-0.1,4.2-3.1,6c0.1-1.3-2.2,2-3.7,1.8c0.7-1-2.1-1.6-2.3-2.8c-2.6,1.2,0.5,2.2-1,3.9l-0.7-2.2c-1,2,0.4,1.2-0.9,3.1
			c0.1-0.8-1.1,0.2-0.6-1.2c-2.4,1.6-1.7,1.3-3.8,2.7l1.2,1.7c-0.5,0.7-1.4,0.2-1.8,0.1c0.2-0.2,0.7-0.5,0.5-0.7
			c-2-0.8-0.6,1.8-2.6,1.2c0.7,0.3,1.5,0.8,0.8,1.6c-0.6-1.2-2,0.1-2.4-0.3c1.1,0.3-1.5,1.7-0.7,2.8c-1.6,0-0.4-1-0.8-1.6
			c0.3,1.8-3.1,2.8-3.3,4c-0.1-0.1-0.2-0.1-0.2-0.2c-0.4,1.5-1.9,3-2.9,5.7l-0.1-1.5c-2.4,1.2,0.4,2.9-1.3,4.2
			c-0.8-1.6-2.7,2.3-3.2,0.2c-0.4,1.5-1.2,2.7-0.9,4.3c-1.6,0,0.3-3.2-1.3-2.5l-0.8,1.8l-0.8-0.5c0.4,0.6-0.8,1.6-0.4,1.9
			c-0.9-0.7-2-0.8-2.5-1.5c-0.7,0.9-2.6,1.1-2.8,2.4l-0.4-0.4c0.4,2.2-2.5,2.4-1.6,4.4l-1.3-0.5c-1.3,1.2,0.4,2.7,0.1,3.6
			c-0.5,0.5-1,1.2-1.7,1.5c1-2.4-2-0.6-2.8-0.9c-0.7,0.5-2.7,2.2-2.7,3.4c0.2-1.5-0.9-1.8,0.6-3c-2.1-1-2.1,2.1-4,3.2L206,345
			c-2.1,2.3-1.2,3.6-1.2,5.7c-1-0.7-1-1.2-1-2.6c-2.1,0.6-4.2,3.1-6.2,4.3c-1.1-0.3-1-0.9-0.6-1.7c-1.4,2.1-4.5,2.8-4.5,5.4
			c0-1-1.1,0.1-2.1,0.3c0.3,0.4,0.4,0.9,0.3,0.9c-0.7,1.5-3,3.9-4.8,4.2l0.2-0.8c-3.5,1.9-2.9,5.8-7.5,6.8c-0.9,0-0.3-1.9-1.6-1
			c-0.2,1,0.9,2.3-1.1,2.9l-0.6-1.2l-0.4,1.9c1.2,0.6,3-0.9,2.3,1c-2.3-0.2-0.7,1.9-3.4,1.7c0.4-0.4,0.4-1.6,0.4-2.3
			c-4.8,0.9-4.8,4.4-9.9,5.2c-1.5,2.1-4,3.7-5,5.3c-0.6-1.3-1.2-2.3-0.8-3.8c-1.8,0.7-1.2,3.9-3.4,2.7c0.1,2.1-4.4,3.5-3.6,6.1
			c-0.3-0.4-2,0.9-0.7-1.3c-2.1,1.9-4.3-0.6-5.4,0c-0.6,0.4,1.5,1.2,0,1.9c-0.2,0-0.4-0.2-0.6-0.3l-0.3,0.8
			c-0.8-0.3,0.1-1.5-0.2-2.1c-1.1,0.2-1.8,0.9-2.5,1.7c-0.7,0.8-1.4,1.7-2.6,2.3l0.2-0.6l-2.5,0.9l0.1-0.2l-1.6,1.7l-0.2-0.7
			c-0.4,0.4-0.3,0.8-1,1.1l-0.1-0.9c-0.1,1.4-2.3,3-3.5,3.4l-0.4-0.3l-2.2,2.6c-1.8-0.3,1.2-2.6-1.5-0.9l0.2-1.9
			c-1.9,1.3-2.5,0.6-3.8,1.6c0.9,0.6,1.9,0.2,1.4,1.1c-2.3-1.3-2.5,1.3-3.9,2.6c0.8-0.3,1.4-0.5,1.6-1.6c0.9-0.2,0.6,0.8,1.2,0.7
			l0.9-1.3l0.8,1l1.8-1.6c0.4,1.4,2-0.5,1.7,1.1c1.2-1.1,2.4-0.5,3.3-2.3c1.3,0.4-1.2,1.5-0.1,1.3c1.4-0.8,2.8-1.5,4.2-2.2
			c1.4-0.7,2.8-1.4,4.3-2c1.5-0.6,3-1.2,4.5-1.8c1.5-0.6,3-1.2,4.5-1.7l-0.3,0.8c0.3-0.8,0.8-1.6,1-2.2c0.7,0.3,2.2,0.3,3.6-0.1
			c1.4-0.4,2.5-1.2,2.7-2.4c0.2,0,0.1,0.4,0,0.6c0.9-0.6,2.4-1,4-1.5c1.6-0.5,3.3-1,4.6-1.8c0-2.5,4.7-1,4.2-4.1l-0.2,0.8
			c-1.3-0.2,0.2-2.5,0.2-3.3c1.8,1.3,0.8,1.3,2.7,2.3c-0.5,0-0.9,0-1.4,0l1.1,1.2c1.1-5.4,7.2-2,7.7-5.8c0,0.2,0.1,0.4,0.1,0.6
			c1.9,0,1.7-2.4,2.4-3.4c0.6,0.6,0.1,1.5,0,2.3c2.7-1,5.5-5.2,8.8-5.9c0.3-1.5-1.2-1-0.7-2.3c1-0.3,2,0.1,1.4,1.2
			c1.7,0.1,3.4-1.4,5.1-3c1.7-1.6,3.6-3.3,5.8-3.7c1-2.2-0.4-1.8,1.8-4.3c-0.2,1.1,2.2,1.7,0.7,2.9l0.3,0.8c2.7-1.8,6.5-4,6.4-6.9
			c1.2,1.3,0.7-0.1,2.3,0c0.3-0.4-0.2-0.2-0.4-0.2c0-1.9,1.5-1,2-1.7l0,0.4l1.2-2.2c0.5,0,1.1-0.1,1.5,0.2l-0.8-1
			c1-0.7,1.5,0.9,2.5-0.3l-0.8-0.5c1.1-0.1,1.6-2.1,2.6-1.2c0.2,0.2,0,0.2-0.3,0.5c2.4,0.5,2.8-2.9,4.9-3.3l-1.7-1.3
			c1.1-1.6,1.2-0.4,1.6,0.2c1-0.8,1.6-0.4,3.1-1.2c0.3-0.9-0.1-0.8-0.3-1.4l1.6-0.6l-0.2,1.5c0.2-3.8,5.3-3.7,5-6.8
			c1.1-0.2,0.1,1.5,0.8,1.4c3.2-0.9,4.1-5.6,7.1-6c4.2-1.5,7-5.4,11.2-7.5l-0.4-0.4l2.8-1.7c-0.1-1.5,2-2.4,2.1-4.3
			c0.2,0.4,0.9,0.7,0.8,1.1c1-1,1.8-2.4,2.9-2.3l-0.1,0.6c2.6-1.7,5.9-4.3,6.5-6.1c0.7-0.8,1.4,0,2,0.3c1.4-1.1,2-2.2,2.5-3.8
			c0.4-0.1,0.9-0.2,1.6-0.1l-0.4-1.4c0.7-0.3,0.9,0.7,1.5,0.6c1.1-2.9,4.5-3.9,5.9-5.2l-0.7-0.3c0.3-0.9,2.1-1.2,1.8-0.1
			c3.5-1.9,3-5.2,7.2-8.2c2.2,1.3,3.1-3.5,5.5-2.1c1.2-1.9,3-2,3.1-4.2c0.2,0.2,0.4,0.1,0.2,0.4c1.3,0.2,3-2.3,4.2-4.2l0.6,0.5
			c-0.6-1.8,2.6-3.9,2-5.7c0.4,0.1,0.2,0.8,0.2,1.2c2,0.5,1-1.9,2.3-2.6c0.2,0.4,0.9,0.5,0.9,0.9c5-1.8,8.2-8.8,13.8-12.1
			c1.4-1.1-1.8-0.9,0.1-2.3c1.1,0.2,0.4,2,1.8,1.3c0-1.5,0.5-1.6,1.6-2.5c0.2,0.6,0.7,0.7,0.2,1.7c1.1,0,1.7-3.3,3.9-3.4
			c-0.4-0.3-0.4-0.8-0.4-1.2c0.7-2.7,5.2-2.6,4.8-3.4c0,0,0.5-0.7-0.2-0.4c0.7-0.6,1.8-1.2,2.3-0.5c0-0.6-0.2-1.4,0.3-2l0.4,1
			c0.1-0.4,0-1.2,0.3-1.5l-0.9,0c1.3-0.1,1.4-2.9,2.7-1.4l-0.2,0.3l2-0.7c0-1.1,0-2.1,1.2-2.8c1.8,1.1,2.7-1.9,4.1-2.8l0.4,0.5
			c0.2-1.5,2.9-3.4,2.3-3.3c0.9-0.8,2.5-1.6,2.5-0.8c0.5-1,2-2.4,1.6-3.6l2.7-0.2c-0.9-2.6,3.6-2.1,1.8-4.1c1.1-0.5,1.3,0.1,2.2-0.1
			c0.2-2,1.5-2.9,2.9-3.9l0.2,0.2c1.3-1,1.8-3.2,3.3-4.9l1.8,1.1c0.7-1-0.3-2.3,0.9-2.8c0.4,0,0.3,0.3,0.2,0.6c0.5-1,2-1.7,2.9-2
			c0.2-2.2,1.5-2.7,1.5-4.9c2.2,0.3-0.9,1.9,1.2,2.3c2.4-1,3.5-3.5,4.8-5.9c0.4,0.1,0.5,0.5,0.7,0.9c0,0,0.4-7.1-1.7-7.7
			c-0.5-1.4-0.5-2.4-3-1.6c0,1.1-0.8,3.2-2.2,2.5l0.9,1.1c-1.7,2.6-2.3-1.8-4.9,0.8l0.9-0.2c-0.4,0.5-0.2,1.5-1.1,1.8
			c-0.4-0.1-0.2-0.6-0.2-1l-0.8,3.4c-0.7-0.5-0.9-0.9-0.9-1.7c-2,2,2.3,1.4-0.6,3.4c-0.9,0-0.5-0.7-0.5-1.4c-2,0.3-2,1.8-2.6,3.4
			c-0.9-0.8,0-1.5-1.6-1.1c0.7,0.3,1.6,0.9,0.9,1.7c-0.5-1.2-1.1,0.1-2,0.6c0.5,0.2,0.8,0.6,0.7,1c-0.2,0.5-0.9,0.4-1.3,1l1.8,0
			c-0.4,2-2.4,1.4-3.8,2c-0.1-0.2,0-0.5,0.1-0.7c-1.4,0.6-3.2,0.9-3.7,2.8l0-0.2c-1.5,3.1,2.2,0.8,0.3,4.2c-1.1,0.7-2.5-3.3-3.6-0.2
			c1.8-0.2,0.5,3.1-0.4,4.6l-0.5-2.9c-0.5,0.4-0.9,1.7-1.3,1.8l0.5,0.3c1.6,1.4-1.8,1.3-1.8,3c-0.9-3-0.4-2.7-2.2-4.8
			c0.2,1.9,0.2,3.8-1.6,5l-0.2-2.7c-2.5,1.6-2.7,6.1-3.2,9c-0.7-1.6-1.8-1.3-2-3l-1.8,2.1l-0.7-1.8c0.4,2-1.4,2,0.4,3.5
			c0-0.4-0.2-0.6,0.2-0.9c0.4,0.5,1.1,1.9,0,2.8c-1.1,0.2-0.2-1-0.9-1.3c0,1.3-1.1,0.2-1.4,1.4l1.3,0.1c0.4,1.4-1.1,1.1-1.4,2.2
			c0.4-1.2-0.4-1.5-1.3-1.8l0.2,0.1c-0.4,0.5-0.5,1.8-1.4,1.6l-0.9-1.7l0.2,1.7c-0.4,0.1-1.1-0.2-0.9-0.9c-3.1,1.3,2.9,2.8-1.4,4.3
			c-0.4-0.5-0.4-1.2,0.7-1.6c-0.7-0.9-1.3-1.2-2.4-0.8c-0.1,0-0.1-0.1-0.2-0.1C325.6,244.1,323.5,245.9,323.3,247.7z"/>
		<path fill="#FFC235" d="M327.3,242.7c0.9-0.8,1.6-1.4,1.7-1.9C328.6,240.7,326.4,241.9,327.3,242.7z"/>
		<path fill="#FFC235" d="M196.9,350.8c0.1-0.1,0.2-0.3,0.2-0.4C197.1,350.5,197,350.7,196.9,350.8z"/>
		<path fill="#FFC235" d="M189.7,356.4c0.2,0.1,0.4,0.1,0.6,0.1C190.1,356.1,189.9,356,189.7,356.4z"/>
		<path fill="#FFC235" d="M264.2,298.4C264.2,298.4,264.2,298.4,264.2,298.4C264.2,298.4,264.2,298.4,264.2,298.4z"/>
		<path fill="#FFC235" d="M223.1,330.2c-0.3,0.9-0.2,1.5,0.1,1.9C223.5,331.7,223.5,331.1,223.1,330.2z"/>
		<path fill="#FFC235" d="M237.4,320.1c0-0.1,0.1-0.3,0.1-0.4C237.4,319.9,237.4,320,237.4,320.1z"/>
		<path fill="#FFC235" d="M265.7,296c-0.2,0.9-1.1,1.6-1.5,2.4C264.6,297.7,266.1,297.2,265.7,296z"/>
		<polygon fill="#FFC235" points="181.5,364.1 181.8,362.8 181.3,363.9 		"/>
		<path fill="#FFC235" d="M188.3,358.9c0.5,0,1.4-1.3,0.7-1.5C189,358.1,188.6,358.5,188.3,358.9z"/>
		<polygon fill="#FFC235" points="215.7,340.8 215.4,339.8 215.2,340.8 		"/>
	</g>
	<g>
		<polygon fill="#FFC235" points="185,457.2 185.6,458 186.2,456.5 		"/>
		<path fill="#FFC235" d="M196.7,453.8c0.6-1.3,2.3-2.6,1.6-4.4l-1.2,2.3c-0.8-1.2-2-0.7-2.9,0.1l1.2-0.5c-0.2,0.3,0.3,1.1,0.1,1.4
			c-2.1,0-1.8,2-4.2,1.2l0-0.2l-1,1.4c-0.5,0-0.6-0.7-0.6-1c-0.9,1.2-1.5,2.2-3.2,2.8c2.3,1.9,2.8-3.2,5.1-1.3l0,0.2
			C192.9,454.2,195.4,455.1,196.7,453.8z"/>
		<path fill="#FFC235" d="M189.9,454l0.1-0.1C189.9,453.9,189.9,453.9,189.9,454z"/>
		<path fill="#FFC235" d="M256.7,432.8l-0.1-0.4C256.5,432.5,256.5,432.7,256.7,432.8z"/>
		<path fill="#FFC235" d="M234.7,435.5c0,0,0.1,0,0.1,0C234.7,434.9,234.7,435,234.7,435.5z"/>
		<path fill="#FFC235" d="M360.5,379.2l0.7,0.2C360.7,379,360.5,379,360.5,379.2z"/>
		<path fill="#FFC235" d="M381.4,359.2L381.4,359.2C381.4,359.1,381.4,359.2,381.4,359.2z"/>
		<path fill="#FFC235" d="M366.3,363.2l-0.4-0.3C366,363.2,366.2,363.2,366.3,363.2z"/>
		<path fill="#FFC235" d="M371.6,356c0.3-0.1,0.5-0.2,0.7-0.4C372,355.6,371.7,355.8,371.6,356z"/>
		<path fill="#FFC235" d="M381.4,359.5c0-0.1,0-0.2,0-0.4C381.4,359.3,381.4,359.4,381.4,359.5z"/>
		<path fill="#FFC235" d="M355.7,371.7l-1.2-0.8C354.8,371.3,355.3,371.5,355.7,371.7z"/>
		<path fill="#FFC235" d="M372.2,353.7c0.3,0.1,0.5,0,0.7,0C372.6,353.6,372.4,353.5,372.2,353.7z"/>
		<path fill="#FFC235" d="M198.5,453.1c-0.2,0.1-0.5,0.2-0.8,0.5C198,453.5,198.3,453.3,198.5,453.1z"/>
		<path fill="#FFC235" d="M312.7,398.4c0-0.2,0-0.3-0.1-0.5C312.5,398.1,312.6,398.2,312.7,398.4z"/>
		<path fill="#FFC235" d="M338.5,383.7L338.5,383.7c0-0.1-0.1-0.2-0.2-0.2L338.5,383.7z"/>
		<path fill="#FFC235" d="M331.4,388.6c0-0.1,0-0.2-0.1-0.3C331.3,388.4,331.4,388.5,331.4,388.6z"/>
		<path fill="#FFC235" d="M342.9,378.8c0-0.2,0-0.3-0.1-0.5L342.9,378.8z"/>
		<path fill="#FFC235" d="M348.7,376.1c-0.5-0.2-0.6-0.7-0.7-1.3c-1.6,0.4-0.9,2.1-3,2.1l1,0.1c-0.2,1.4-1.6,2.8-3.2,2.3l-0.1-0.5
			c-0.1,1.5-2.6,0.8-2.4,1.7c0.7,0.2,0.6,0.8,1.4,0.9l-1.4,2.4l-1.3-1.4l-0.7,1.3c0.7,0.4-1.8,0.5-0.8,2c-1-0.1-0.6-1.3-0.8-2.1
			c-0.3,0.9-0.8,0.2-0.8,1.5l-1.6-0.9c-0.3,0.7-0.6,1.4-0.9,2c0-0.2-0.2-0.2-0.2-0.4c0,1.6-2.4,0.5-2,3.1c0-0.1-0.1-0.2-0.1-0.3
			c0.2,1.4-1.7,1.4-2.3,1.5c-0.7,0.8,0.5,1.5,0.9,2.1c-2.8,1.2-1.9,0.7-3,3.7c-2.4-1-0.2-3.7-2.6-4c0.3,1-0.4,2.3-1.5,3.3
			c-1.6,0-3.8,0.7-5.7,0l0.8,1.1l-1.3,1.5l0-2.2c0,0.5-0.5,1.7-0.7,2.6c-1.2,1.9-2.4-2.1-2.8,0.4c-0.1-0.1-0.2-0.2-0.3-0.3
			c0.1,1.1-1.3,1.4-2.5,2.4l-0.3-1.8l1-0.1c-1.3-1.3-1.3,0.9-2.2,1.3c-0.6,0.9,0.5,2,0.2,2.7c-0.4,0.1-0.6,0.8-1.1,0.5
			c-1-0.1-1-1.8-1.1-2.5c0.1,1.9-0.2,1.8-1.4,3.1c-0.5-0.7-0.5-1.1-0.4-1.3c-0.2,0.3-0.3,0.8-0.2,1.5l-1-0.6
			c-2.4-0.5-0.3,3.7-2.7,4.1c0.2-1.1-1.7,1-2.8,0.3c0.6-0.6-1.4-2.1-1.4-3.3c-1.9,0.2,0.2,2.1-1,3.1l-0.4-2.2
			c-0.9,1.4,0.2,1.2-0.9,2.4c0.1-0.7-0.8-0.3-0.3-1.2c-1.8,0.5-1.3,0.5-3,0.9l0.7,1.9c-0.4,0.4-1-0.3-1.3-0.6
			c0.2-0.1,0.6-0.2,0.4-0.4c-1.3-1.4-0.6,1.3-1.9,0.1c0.4,0.5,1,1.3,0.4,1.7c-0.3-1.2-1.5-0.7-1.7-1.1c0.8,0.6-1.2,0.9-0.7,2.2
			c-1.1-0.6-0.2-1-0.4-1.7c0,1.7-2.5,1.3-2.7,2.3c-0.1-0.1-0.1-0.2-0.2-0.3c-0.4,1.2-1.6,2-2.6,3.9l0.1-1.3c-1.8,0.2,0,2.7-1.3,3.2
			c-0.4-1.7-2.1,1-2.3-1c-0.4,1.2-1.1,1.9-1,3.5c-1.1-0.6,0.5-2.7-0.7-2.7l-0.8,1.3l-0.6-0.8c0.2,0.7-0.7,1.1-0.5,1.6
			c-0.6-0.9-1.4-1.5-1.6-2.3c-0.6,0.6-2,0-2.2,1.1l-0.3-0.5c0.1,2.1-2,1.2-1.6,3.3l-0.9-0.9c-1,0.6,0,2.5-0.3,3.2
			c-0.4,0.2-0.8,0.7-1.4,0.7c0.9-1.8-1.3-1.2-1.9-1.8c-0.6,0.2-2.2,1-2.2,2.1c0.3-1.3-0.5-1.9,0.7-2.4c-1.4-1.7-1.7,1.1-3.1,1.4
			l-0.4-0.9c-1.7,1.3-1.1,2.9-1.3,4.7c-0.7-1-0.6-1.4-0.5-2.7c-1.6-0.2-3.3,1.3-4.8,1.8c-0.8-0.6-0.7-1.2-0.3-1.7
			c-1.2,1.4-3.4,1.1-3.6,3.4c0-0.9-0.8-0.3-1.5-0.4c0.2,0.4,0.3,1,0.2,0.9c-0.6,1.1-2.3,2.6-3.7,2.4l0.2-0.7c-2.6,0.6-2.3,4.4-5.6,4
			c-0.7-0.2-0.2-1.8-1.1-1.4c-0.2,0.9,0.6,2.3-0.8,2.4l-0.4-1.3l-0.3,1.6c0.9,0.9,2.1,0,1.6,1.5c-1.6-0.8-0.5,1.6-2.5,0.7
			c0.3-0.3,0.3-1.4,0.3-2c-3.5-0.4-3.5,2.8-7.1,2.3c-1,1.6-2.8,2.5-3.4,3.8c-0.4-1.3-0.9-2.4-0.7-3.7c-1.3,0.3-0.7,3.4-2.3,1.9
			c0.1,2-3,2.4-2.3,5c-0.3-0.5-1.3,0.5-0.6-1.4c-1.4,1.4-3.1-1.3-3.9-1c-0.4,0.2,1.1,1.4,0.2,1.8c-0.2-0.1-0.3-0.3-0.5-0.3l-0.1,0.7
			c-0.6-0.4-0.1-1.4-0.3-2c-1.6,0-1.7,2.3-3.3,3.1l0.1-0.5l-1.7,0.5l0-0.2l-1,1.4l-0.2-0.6c-0.2,0.3-0.1,0.7-0.6,1l-0.2-0.8
			c0.1,1.4-1.3,2.6-2,2.9l-0.3-0.3l-1.2,2.3c-1.3-0.5,0.5-2.3-1.2-1l-0.2-1.8c-1.1,1.1-1.7,0.4-2.4,1.3c0.8,0.6,1.4,0.3,1.2,1.2
			c-1.8-1.4-1.5,1.1-2.3,2.3c0.5-0.2,0.9-0.4,0.9-1.4c0.6-0.2,0.6,0.8,0.9,0.7l0.4-1.2l0.7,1l1-1.4c0.4,1.3,1.3-0.3,1.3,1.2
			c0.7-0.9,1.6-0.2,2-1.8c1,0.5-0.6,1.3,0.1,1.2c3.4-2.5,7.3-3.8,11.5-4.8l-0.1,0.7c0.1-0.7,0.5-1.4,0.6-1.9
			c1.1,0.8,4.2,1.1,4.3-1.2c0.2,0.1,0.1,0.4,0.1,0.6c1.2-0.7,4.1-0.3,5.9-1.2c-0.1-2.3,3.3,0.2,2.9-2.8l-0.2,0.7
			c-1-0.5,0.1-2.3,0.1-3c1.3,1.6,0.6,1.4,1.9,2.8l-1-0.3l0.8,1.4c0.8-4.7,5.1,0.1,5.5-3.3c0,0.2,0.1,0.4,0.1,0.6
			c1.3,0.5,1.2-1.7,1.8-2.5c0.4,0.7,0.1,1.4-0.1,2.1c2-0.1,4-3.2,6.4-2.7c0.3-1.3-0.8-1.2-0.4-2.3c0.7,0.1,1.5,0.7,0.9,1.5
			c2.4,1.2,4.9-3.3,8.2-2.5c0.9-1.6-0.2-1.8,1.6-3.3c-0.2,0.9,1.5,2.2,0.3,2.8l0.2,0.8c2.1-0.6,4.9-1.4,5.1-4
			c0.7,1.6,0.5,0.2,1.6,0.8c0.2-0.3-0.1-0.2-0.3-0.3c0.2-1.7,1.1-0.4,1.6-0.8l-0.1,0.4l1-1.6c0.3,0.1,0.8,0.3,1.1,0.8l-0.5-1.1
			c0.8-0.3,1,1.3,1.8,0.6l-0.6-0.8c0.8,0.3,1.3-1.3,2-0.1c0.1,0.2,0,0.2-0.2,0.3c1.7,1.4,2.3-1.5,3.8-1.2l-1.1-1.7
			c0.9-1,0.9,0.1,1.1,0.8c0.8-0.3,1.2,0.2,2.3,0c0.3-0.7,0-0.8-0.1-1.4l1.2,0l-0.3,1.3c0.5-3.3,4.2-1.3,4.2-4.1
			c0.8,0.3-0.1,1.3,0.4,1.5c2.4,0.4,3.5-3.4,5.7-2.7c3.2,0.3,5.6-2.2,8.8-2.5l-0.3-0.5l2.2-0.5c0.1-1.3,1.7-1.4,1.9-3
			c0.1,0.4,0.6,0.9,0.5,1.3c0.8-0.5,1.5-1.5,2.3-1l-0.1,0.5c2.1-0.5,4.7-1.7,5.3-3c0.6-0.4,1,0.5,1.5,1c1.1-0.5,1.6-1.3,2.1-2.4
			c0.3,0.1,0.7,0.2,1.2,0.5l-0.2-1.4c0.5-0.1,0.6,0.9,1.1,1c1-2.2,3.6-1.9,4.8-2.6l-0.5-0.5c0.2-0.7,1.6-0.4,1.4,0.5
			c2.7-0.5,2.5-3.6,5.8-4.9c1.6,1.8,2.4-2.1,4.3-0.1c1-1.3,2.4-0.9,2.4-2.7c0.2,0.2,0.3,0.2,0.2,0.4c1,0.5,2.4-1.1,3.3-2.4l0.5,0.6
			c-0.5-1.7,2-2.7,1.5-4.4c0.4,0.2,0.2,0.8,0.2,1.1c1.6,0.9,0.7-1.4,1.8-1.6c0.2,0.4,0.7,0.6,0.7,1c2-0.1,3.5-1.6,5.1-3.1
			c1.5-1.6,3.1-3.3,5.3-4.1c1-0.7-1.5-1.2-0.2-2c0.9,0.4,0.5,1.8,1.6,1.5c-0.1-1.3,0.3-1.3,1.1-1.8c0.2,0.6,0.6,0.8,0.3,1.5
			c0.9,0.2,1-2.5,2.8-2.1c-0.4-0.4-0.4-0.7-0.5-1.1c0.3-2.2,4-1.2,3.5-2c0,0,0.3-0.5-0.2-0.4c0.5-0.4,1.3-0.7,1.8,0
			c-0.1-0.6-0.4-1.3-0.1-1.7l0.5,0.9c0.1-0.3-0.1-1,0-1.3l-0.7-0.2c1.1,0.2,0.7-2.2,2-0.8l-0.1,0.2l1.6-0.2
			c-0.2-0.9-0.3-1.8,0.5-2.2c1.7,1.2,2-1.2,2.9-1.8l0.5,0.5c-0.1-1.3,1.9-2.5,1.3-2.5c0.6-0.6,1.8-1,1.9-0.3
			c0.2-0.8,1.3-1.8,0.7-2.8l2.2,0.2c-1.3-2.3,2.6-1.4,0.7-3.2c0.8-0.3,1.2,0.2,1.9,0.2c-0.3-1.6,0.7-2.3,1.6-3l0.2,0.2
			c0.9-0.7,0.8-2.5,1.7-3.7l1.8,1c0.3-0.8-0.8-1.9,0.1-2.2c0.4,0.1,0.3,0.3,0.3,0.5c0.2-0.8,1.2-1.3,2-1.4c-0.4-1.8,0.6-2.1,0-3.9
			c2,0.4-0.2,1.5,1.6,1.9c1.8-0.7,2.1-2.6,2.5-4.6c0.4,0.1,0.5,0.4,0.8,0.8c0,0-0.4-1.4-1.1-2.9c-0.7-1.5-1.6-3-2.6-3.3
			c-0.8-1.1-1.2-2-3-1.4c0.3,0.8,0.3,2.5-1.1,1.8l1.1,0.9c-0.7,2-2.4-1.5-3.9,0.3l0.7-0.1c-0.2,0.4,0.3,1.2-0.4,1.3
			c-0.4-0.1-0.4-0.5-0.5-0.8l0.3,2.7c-0.7-0.4-1-0.7-1.3-1.4c-1.1,1.4,2.3,1.3,0.4,2.6c-0.8-0.1-0.6-0.6-0.8-1.1
			c-1.6,0.1-1.2,1.2-1.3,2.5c-1-0.8-0.4-1.2-1.6-1c0.6,0.3,1.6,0.9,1.2,1.5c-0.8-1-0.9,0-1.5,0.3c0.4,0.2,0.9,0.6,0.9,0.9
			c-0.1,0.4-0.6,0.3-0.9,0.6l1.5,0.2c0.2,1.6-1.7,0.9-2.7,1.2c-0.1-0.2-0.2-0.4-0.1-0.6c-1,0.4-2.4,0.4-2.4,1.9l-0.1-0.2
			c-0.5,2.4,2.1,0.9,1.2,3.5c-0.8,0.4-2.8-3-3-0.6c1.4,0.1,1.1,2.6,0.6,3.7l-1-2.4c-0.3,0.3-0.4,1.3-0.7,1.3l0.4,0.3
			c1.6,1.3-1.2,0.8-0.9,2.2c-1.3-2.6-0.9-2.3-2.8-4.3c0.6,1.6,1,3.2-0.2,3.9l-0.7-2.3c-1.7,1-1,4.7-0.9,7c-0.8-1.4-1.7-1.4-2.2-2.8
			c-0.4,0.5-0.7,1-1.1,1.4l-0.9-1.6c0.7,1.8-0.8,1.4,1,3c-0.1-0.4-0.3-0.5,0-0.7c0.5,0.5,1.2,1.8,0.5,2.3c-0.9,0-0.3-0.9-0.9-1.2
			c0.2,1.1-0.9,0-0.9,0.9l1.1,0.3c0.6,1.3-0.7,0.7-0.8,1.6c0.2-0.9-0.5-1.3-1.3-1.7l0.2,0.1c-0.3,0.4-0.1,1.4-0.9,1.1l-1-1.6
			l0.4,1.4c-0.3,0-0.9-0.4-0.9-0.9c-2.3,0.5,2.8,2.9-0.5,3.4c-0.4-0.5-0.5-1.1,0.3-1.3c-0.7-0.9-1.3-1.3-2.1-1.1
			c-0.1-0.1-0.1-0.1-0.1-0.2C350.1,373.5,348.6,374.6,348.7,376.1z"/>
		<path fill="#FFC235" d="M351.2,372.7c0.6-0.5,1.1-0.9,1.1-1.3C352,371.2,350.4,371.8,351.2,372.7z"/>
		<path fill="#FFC235" d="M252,424.4c0.1-0.1,0.1-0.2,0.2-0.3C252.2,424.2,252.1,424.3,252,424.4z"/>
		<path fill="#FFC235" d="M246.5,427.1c0.1,0.2,0.3,0.2,0.5,0.3C246.8,427,246.6,426.8,246.5,427.1z"/>
		<path fill="#FFC235" d="M305,402.6L305,402.6L305,402.6z"/>
		<path fill="#FFC235" d="M272.7,415.4c-0.3,0.7-0.3,1.3-0.1,1.7C272.8,416.8,272.9,416.3,272.7,415.4z"/>
		<path fill="#FFC235" d="M283.9,411.7c0-0.1,0.1-0.2,0.1-0.3C283.9,411.6,283.9,411.7,283.9,411.7z"/>
		<path fill="#FFC235" d="M306.2,401c-0.2,0.7-0.9,1-1.2,1.6C305.3,402.1,306.5,402.2,306.2,401z"/>
		<polygon fill="#FFC235" points="240.2,431.6 240.4,430.5 240.1,431.4 		"/>
		<path fill="#FFC235" d="M245.4,429c0.3,0.1,1.1-0.8,0.6-1.1C245.8,428.4,245.6,428.7,245.4,429z"/>
		<polygon fill="#FFC235" points="266.4,422 266.2,421 266,421.8 		"/>
	</g>
	<g>
		<polygon fill="#FFC235" points="421.4,312.4 421.8,313.2 421.9,311.9 		"/>
		<path fill="#FFC235" d="M426.9,311.1c0-1.1,0.6-2.1-0.3-3.8l0,1.9c-0.8-1.3-1.3-0.9-1.5-0.3l0.5-0.3c-0.1,0.2,0.4,1,0.4,1.3
			c-1.2-0.3-0.5,1.6-2,0.5l0-0.2l-0.2,1.1c-0.3-0.1-0.5-0.8-0.5-1c-0.2,0.9-0.3,1.8-1.1,2.1c1.7,2.1,0.8-2.6,2.4-0.4l0,0.2
			C425,310.9,426.5,312,426.9,311.1z"/>
		<path fill="#FFC235" d="M423.3,310.2L423.3,310.2C423.3,310.1,423.3,310.1,423.3,310.2z"/>
		<path fill="#FFC235" d="M453.2,297.5l-0.2-0.3C453,297.3,453.1,297.4,453.2,297.5z"/>
		<path fill="#FFC235" d="M441.9,298.8C442,298.8,442,298.8,441.9,298.8C441.7,298.3,441.8,298.4,441.9,298.8z"/>
		<path fill="#FFC235" d="M488.1,257.6l0.6,0.1C488.2,257.5,488,257.5,488.1,257.6z"/>
		<path fill="#FFC235" d="M494.5,246.2L494.5,246.2L494.5,246.2z"/>
		<path fill="#FFC235" d="M484.3,248l-0.5-0.2C484.1,248,484.2,248,484.3,248z"/>
		<path fill="#FFC235" d="M485,244c0.2,0,0.3-0.1,0.4-0.2C485.1,243.8,485,243.9,485,244z"/>
		<path fill="#FFC235" d="M494.6,246.4c-0.1-0.1-0.1-0.1-0.2-0.2C494.5,246.2,494.6,246.3,494.6,246.4z"/>
		<path fill="#FFC235" d="M480.6,252.8l-1.3-0.5C479.6,252.5,480.1,252.6,480.6,252.8z"/>
		<path fill="#FFC235" d="M484.4,242.7c0.3,0.1,0.4,0,0.6,0C484.7,242.7,484.4,242.6,484.4,242.7z"/>
		<path fill="#FFC235" d="M427.7,310.6c-0.1,0.1-0.2,0.1-0.3,0.3C427.6,311,427.7,310.9,427.7,310.6z"/>
		<path fill="#FFC235" d="M466.8,270.2c-0.1-0.1-0.2-0.2-0.4-0.4C466.4,269.9,466.6,270,466.8,270.2z"/>
		<path fill="#FFC235" d="M474.8,260L474.8,260c-0.1-0.1-0.1-0.1-0.2-0.1L474.8,260z"/>
		<path fill="#FFC235" d="M472.8,263.2c-0.1-0.1-0.1-0.1-0.2-0.2C472.7,263.1,472.8,263.2,472.8,263.2z"/>
		<path fill="#FFC235" d="M475.1,256.9c-0.1-0.1-0.2-0.2-0.3-0.4L475.1,256.9z"/>
		<path fill="#FFC235" d="M477.8,255.3c-0.5-0.1-0.9-0.5-1.2-0.8c-1,0.2,0.5,1.3-1,1.3l0.8,0.1c0.7,0.9,0.4,1.7-1,1.4l-0.3-0.3
			c0.7,0.9-1.4,0.4-0.7,1.1c0.6,0.2,0.8,0.5,1.5,0.6c0.1,0.5,0.3,1,0.4,1.5l-1.7-0.9l0.2,0.8c0.7,0.3-1,0.3,0.6,1.3
			c-0.8-0.1-1.2-0.9-1.7-1.4c0.3,0.6-0.4,0.2,0.3,1l-1.6-0.6l0.5,1.3c-0.1-0.1-0.2-0.1-0.3-0.3c1,1.1-1.3,0.3,0.5,2.1
			c-0.1-0.1-0.1-0.1-0.2-0.2c0.9,1-0.2,1-0.6,1c0,0.5,1.2,1.1,1.8,1.5c-1.2,0.8-0.8,0.5,0.1,2.5c-2.1-0.7-2.3-2.6-4-2.8
			c0.8,0.7,1.1,1.6,1,2.3c-1,0-2,0.5-3.5,0.1l1.1,0.8c0,0.4,0.1,0.7,0.1,1.1l-1.3-1.6c0.3,0.4,0.7,1.2,1.1,1.8
			c0.4,1.4-2.7-1.5-1.5,0.3c-0.1-0.1-0.3-0.1-0.4-0.2c0.7,0.8,0,1-0.1,1.7l-1.2-1.3l0.6-0.1c-1.5-0.9-0.2,0.7-0.6,1
			c0.2,0.7,1.4,1.4,1.7,1.9c-0.2,0.1,0.1,0.6-0.4,0.4c-0.7-0.1-1.6-1.3-2.1-1.8c1.2,1.4,0.9,1.3,1,2.3c-0.7-0.5-0.9-0.8-1-1
			c0.1,0.3,0.3,0.6,0.8,1.1l-0.9-0.5c-1.7-0.3,1.9,2.7,0.8,3.1c-0.5-0.8-0.4,0.8-1.5,0.3c0-0.4-2-1.6-2.7-2.4
			c-1,0.1,1.3,1.6,1.2,2.3l-1.5-1.6c0.3,1.1,0.8,0.9,0.8,1.8c-0.3-0.5-0.6-0.2-0.9-0.9c-0.7,0.4-0.4,0.4-1.1,0.8l1.5,1.5
			c0,0.3-0.7-0.2-1.1-0.4c0-0.1,0.2-0.2,0-0.3c-1.5-1,0.4,1-1,0.1c0.5,0.4,1.3,1,1.2,1.3c-0.9-0.9-1.2-0.5-1.6-0.9
			c0.8,0.5-0.2,0.7,0.8,1.7c-1-0.4-0.7-0.8-1.2-1.3c1,1.3-0.7,1-0.2,1.8c-0.1-0.1-0.2-0.1-0.2-0.2c0.4,0.9,0.2,1.5,0.7,3.1l-0.7-1
			c-0.9,0.1,1.5,2.1,1,2.5c-1.1-1.3-0.7,0.8-1.8-0.8c0.4,0.9,0.4,1.5,1.2,2.8c-0.9-0.5-1.1-2.1-1.8-2.2l0.2,1l-0.7-0.6
			c0.5,0.5,0.1,0.9,0.5,1.2c-0.8-0.8-1.5-1.2-2.1-1.8c0,0.5-1.1,0-0.6,0.9l-0.4-0.4c1.2,1.7-0.5,1,0.8,2.6l-0.9-0.7
			c-0.2,0.5,1.3,2,1.4,2.6c-0.1,0.2-0.1,0.5-0.4,0.5c-0.4-1.5-1.4-1-2-1.5c-0.2,0.1-0.7,0.7-0.2,1.7c-0.5-1-1.2-1.6-0.8-2
			c-1.6-1.4-0.4,0.9-1.1,1.1l-0.6-0.7c-0.3,1,0.8,2.3,1.5,3.9c-0.9-0.9-1-1.1-1.6-2.2c-0.9-0.2-1.2,1-1.8,1.3c-0.7-0.5-0.9-1-1-1.4
			c0,1.2-1.4,0.8-0.4,2.7c-0.4-0.8-0.6-0.3-1-0.4c0.3,0.3,0.6,0.8,0.5,0.8c0.2,0.9-0.1,2.1-1,1.8l-0.2-0.6c-1.2,0.4,0.6,3.6-1.4,3.1
			c-0.5-0.2-0.8-1.5-1.2-1.2c0.3,0.8,1.3,2,0.5,2l-0.8-1.2l0.5,1.4c0.8,0.8,1.2,0.1,1.5,1.4c-1.2-0.8,0.3,1.3-1.1,0.4
			c0.1-0.2-0.4-1.2-0.6-1.7c-2.1-0.6-0.9,2.1-3,1.4c0,1.3-0.6,1.9-0.5,3c-0.7-1.2-1.4-2.2-1.7-3.3c-0.6,0.1,0.8,2.9-0.6,1.4
			c0.8,1.7-0.8,1.8,0.4,4.2c-0.3-0.4-0.6,0.3-0.8-1.3c-0.3,1.1-2.1-1.5-2.4-1.3c-0.1,0.2,1.1,1.3,0.7,1.6c-0.1-0.1-0.3-0.3-0.4-0.4
			l0.2,0.6c-0.5-0.4-0.5-1.2-0.8-1.8c-0.9-0.2-0.2,1.9-0.8,2.4l-0.1-0.5l-0.8,0.3l0-0.2l-0.1,1.1l-0.3-0.6c0,0.2,0.1,0.6,0,0.8
			l-0.3-0.8c0.4,1.2,0.1,2.2-0.3,2.4l-0.2-0.3l0,1.9c-0.9-0.6-0.4-2.1-0.9-1.1l-0.6-1.6c-0.3,0.9-0.8,0.1-0.9,0.8
			c0.6,0.7,0.8,0.4,1,1.2c-1.4-1.5-0.5,0.8-0.6,1.8c0.2-0.1,0.4-0.2,0.1-1.2c0.3-0.1,0.5,0.8,0.7,0.8l-0.1-1l0.6,1l0.2-1.1
			c0.6,1.2,0.6-0.1,1.1,1.3c0.1-0.7,0.9,0,0.6-1.4c0.7,0.6,0,1.1,0.4,1.1c1.2-1.8,3-2.5,4.9-3l0.2,0.6c-0.2-0.6-0.2-1.2-0.3-1.7
			c0.9,0.8,2.7,1.4,2-0.6c0.1,0.1,0.2,0.4,0.2,0.5c0.4-0.5,2.3,0.2,2.9-0.5c-0.9-2.1,2,0.4,0.6-2.3l0.2,0.6c-0.7-0.5-0.8-2-1.1-2.7
			c1.3,1.5,0.9,1.2,2.1,2.6l-0.7-0.4l1,1.3c-1.3-4.1,3,0.4,1.9-2.5c0.1,0.2,0.2,0.4,0.3,0.5c0.9,0.5,0-1.4,0-2
			c0.5,0.6,0.6,1.2,0.8,1.8c1.1,0,1-2.6,2.5-2.1c-0.4-1.1-1-1.1-1.2-2c0.4,0.1,1.1,0.7,1.2,1.3c1.9,1.1,1.4-2.6,3.6-1.8
			c-0.2-1.3-0.9-1.5-0.6-2.7c0.3,0.7,1.9,1.9,1.5,2.4l0.5,0.7c0.9-0.5,2.2-1.1,1-3.3c1.2,1.3,0.4,0.2,1.3,0.6c0-0.2-0.2-0.2-0.3-0.2
			c-0.7-1.4,0.5-0.3,0.5-0.6l0.1,0.3l-0.2-1.3c0.2,0.1,0.6,0.2,1,0.6l-0.8-0.9c0.3-0.2,1.2,1.1,1.4,0.5l-0.7-0.6
			c0.6,0.2,0.1-1,1.1-0.1c0.2,0.2,0.1,0.1,0,0.2c1.6,1.1,0.5-1.3,1.6-1l-1.5-1.4c0-0.8,0.5,0.1,1,0.6c0.3-0.3,0.8,0.2,1.3,0
			c-0.2-0.5-0.4-0.6-0.7-1.1l0.7,0l0.5,1c-1.4-2.6,1.8-1.1,0.3-3.3c0.6,0.2,0.6,1,1,1.2c1.6,0.3,0.2-2.8,1.8-2.3
			c2,0.1,2-1.8,3.8-2.2l-0.4-0.3l1-0.4c-0.7-1,0.2-1.1-0.6-2.4c0.3,0.3,0.9,0.7,1,1c0.2-0.4,0-1.1,0.8-0.8l0.3,0.4
			c0.9-0.5,1.9-1.4,1.4-2.4c0.1-0.3,0.9,0.3,1.4,0.7c0.4-0.4,0.2-1-0.2-1.9c0.3,0.1,0.5,0.1,1,0.3l-0.9-1c0.3-0.1,0.9,0.6,1.3,0.7
			c-0.7-1.6,1.1-1.5,1.4-2l-0.6-0.3c-0.2-0.5,0.8-0.3,1.1,0.3c1.4-0.4-0.5-2.6,0.7-3.6c2.1,1.3,0.3-1.5,2.6-0.2
			c-0.1-0.9,1-0.7,0-1.9c0.2,0.1,0.4,0.2,0.3,0.3c1,0.4,0.9-0.8,0.8-1.7l0.7,0.4c-1.3-1.2-0.2-1.9-1.6-3c0.4,0.2,0.6,0.5,0.8,0.8
			c1.6,0.6-0.3-0.9,0.3-1.1c0.3,0.3,0.8,0.4,1.1,0.7c1.2-0.1,1.5-1,1.7-2.1c0.1-0.5,0.2-1,0.4-1.5c0.2-0.5,0.5-0.9,1-1.1
			c0.3-0.4-1.7-0.8-1.2-1.3c0.9,0.3,1.4,1.2,2,1c-0.8-0.8-0.5-0.8-0.2-1.1c0.5,0.4,0.8,0.5,1,1c0.8,0.2-0.6-1.6,0.9-1.3
			c-0.5-0.2-0.7-0.5-0.9-0.7c-1-1.4,2.3-0.7,1.5-1.2c0,0-0.1-0.3-0.4-0.2c0.2-0.2,0.6-0.4,1.3,0c-0.4-0.4-1-0.8-0.9-1l0.9,0.6
			c-0.1-0.2-0.6-0.6-0.7-0.8l-0.6-0.1c0.9,0.1-0.6-1.4,1.1-0.4l0,0.1l1.1-0.1c-0.6-0.6-1.2-1.1-0.8-1.4c1.9,0.8,0.9-0.7,1.3-1
			l0.6,0.3c-0.7-0.8,0.2-1.5-0.2-1.5c0.2-0.3,0.9-0.6,1.4-0.1c-0.2-0.4,0.1-1-0.9-1.7l1.8,0.2c-2.1-1.4,1.4-0.7-1-1.9
			c0.5-0.1,1,0.2,1.6,0.2c-1-1-0.6-1.3-0.2-1.7l0.3,0.1c0.4-0.4-0.6-1.4-0.4-2.1l2,0.7c-0.1-0.5-1.6-1.1-1-1.3
			c0.3,0,0.4,0.2,0.5,0.3c-0.2-0.5,0.4-0.7,1-0.7c-1.2-1-0.5-1.2-1.8-2.2c1.8,0.3,0.5,0.9,2.2,1.1c1.2-0.3,0.6-1.4,0-2.5
			c0.4,0.1,0.7,0.3,1.1,0.4c0,0-1-0.8-2.2-1.7c-1.2-0.8-2.7-1.7-3.7-1.9c-1.2-0.6-1.9-1.1-3.2-0.9c0.7,0.5,1.3,1.4-0.1,1l1.3,0.5
			c0.3,1-2.8-0.9-3.1,0l0.5,0c0,0.2,0.8,0.7,0.3,0.7c-0.4-0.1-0.5-0.3-0.8-0.5l1.5,1.5c-0.8-0.3-1.2-0.5-1.7-0.8
			c-0.3,0.8,2.5,0.8,1.6,1.5c-0.7-0.1-0.8-0.4-1.2-0.7c-1.3,0-0.4,0.7,0.1,1.4c-1.2-0.5-0.9-0.7-1.8-0.6c0.6,0.2,1.7,0.6,1.7,0.9
			c-1.1-0.6-0.7,0-1.1,0.1c0.4,0.1,1,0.4,1.1,0.6c0.1,0.2-0.4,0.1-0.4,0.3l1.3,0.2c0.9,0.9-0.9,0.5-1.6,0.6
			c-0.2-0.1-0.3-0.2-0.4-0.3c-0.7,0.2-1.8,0.1-1,1l-0.1-0.1c0.7,1.4,2.1,0.6,2.7,2.1c-0.4,0.2-3.7-1.8-2.7-0.5
			c1.2,0.1,2.1,1.6,2.4,2.2l-2-1.5c-0.1,0.2,0.4,0.8,0.1,0.7l0.5,0.2c1.9,0.8-0.5,0.4,0.5,1.3c-2.4-1.6-1.9-1.4-4.4-2.7
			c1.3,0.9,2.4,1.9,1.8,2.3l-1.7-1.4c-0.8,0.5,1.6,2.7,2.9,4.2c-1.4-0.9-2-0.9-3.1-1.8l-0.1,0.8l-1.5-1c1.5,1.1,0.2,0.8,2.3,1.9
			c-0.2-0.2-0.5-0.3-0.4-0.4c0.6,0.3,1.9,1.1,1.6,1.4c-0.7,0-0.7-0.6-1.4-0.8c0.7,0.7-0.7,0-0.2,0.5l1,0.3c1.1,0.8-0.2,0.4,0.3,1
			c-0.4-0.6-1.1-0.8-1.9-1.1l0.2,0.1c0,0.2,0.7,0.9-0.1,0.6l-1.6-1l1.1,0.9c-0.3,0-0.9-0.3-1.1-0.6c-1.5,0.2,3.6,1.9,1.5,2.1
			c-0.6-0.4-1-0.7-0.4-0.8c-1-0.6-1.6-0.8-2.1-0.8c-0.1,0-0.1-0.1-0.2-0.1C477.4,253.8,476.9,254.4,477.8,255.3z"/>
		<path fill="#FFC235" d="M477.8,253.3c0.2-0.3,0.3-0.5,0.1-0.7C477.5,252.4,476.7,252.7,477.8,253.3z"/>
		<path fill="#FFC235" d="M446.8,290.3c0-0.1,0-0.1,0-0.2L446.8,290.3z"/>
		<path fill="#FFC235" d="M444.9,292.3c0.1,0.1,0.3,0.2,0.4,0.2C445.1,292.3,444.9,292.1,444.9,292.3z"/>
		<path fill="#FFC235" d="M464.6,273.3L464.6,273.3L464.6,273.3z"/>
		<path fill="#FFC235" d="M453.5,283.4c0.2,0.6,0.5,1,0.8,1.4C454.4,284.6,454.2,284.2,453.5,283.4z"/>
		<path fill="#FFC235" d="M457.8,280.5c0-0.1-0.1-0.2-0.1-0.3C457.7,280.4,457.7,280.5,457.8,280.5z"/>
		<path fill="#FFC235" d="M464.4,272.1c0.3,0.6,0.1,0.8,0.2,1.2C464.5,272.9,465.2,273,464.4,272.1z"/>
		<polygon fill="#FFC235" points="443.4,295.8 443.1,294.9 443.3,295.6 		"/>
		<path fill="#FFC235" d="M445.2,293.9c0.2,0.1,0.2-0.6-0.2-0.9C445.2,293.4,445.2,293.6,445.2,293.9z"/>
		<polygon fill="#FFC235" points="453.5,288.7 452.9,287.9 453.2,288.6 		"/>
	</g>
	<g>
		<polygon fill="#FFC235" points="24.1,427.4 24.6,426.6 23.2,426.9 		"/>
		<path fill="#FFC235" d="M18.4,420.2c-1.3,0-2.8-0.9-4.5,0.1c0.8,0.1,1.6,0.2,2.4,0.2c-1.1,1-0.4,1.8,0.6,2.2
			c-0.3-0.2-0.5-0.5-0.7-0.7c0.3,0.1,1-0.6,1.3-0.5c0.4,1.7,2.3,0.6,2,2.7l-0.2,0l1.5,0.2c0.1,0.4-0.5,0.8-0.8,0.9
			c1.3,0.2,2.5,0.1,3.4,1.1c0.5-1.3-0.3-1.4-1.3-1.5c-0.5-0.1-0.9-0.1-1.2-0.4c-0.3-0.2-0.3-0.6,0-1.2l0.2,0
			c-0.8-0.1-1.1-0.8-1.4-1.4C19.3,421.1,19.1,420.5,18.4,420.2z"/>
		<path fill="#FFC235" d="M20,425.3l-0.1,0C19.8,425.3,19.9,425.3,20,425.3z"/>
		<path fill="#FFC235" d="M10.3,375.9l-0.4-0.2C10,375.8,10.2,375.9,10.3,375.9z"/>
		<path fill="#FFC235" d="M3.3,391.4L3.3,391.4C2.8,391.3,2.9,391.3,3.3,391.4z"/>
		<path fill="#FFC235" d="M72,309.3l0.7,0.2C72.2,309.1,72,309.1,72,309.3z"/>
		<path fill="#FFC235" d="M90.1,294L90.1,294C90.1,294,90.1,294,90.1,294z"/>
		<path fill="#FFC235" d="M76.3,295.2l-0.4-0.4C76,295,76.2,295.1,76.3,295.2z"/>
		<path fill="#FFC235" d="M81.3,289.4c0.3,0,0.5-0.1,0.7-0.2C81.6,289,81.3,289.1,81.3,289.4z"/>
		<path fill="#FFC235" d="M90.1,294.3c0-0.1,0-0.2,0-0.3C90.1,294.1,90,294.2,90.1,294.3z"/>
		<path fill="#FFC235" d="M66.9,302l-1.2-0.8C66.1,301.5,66.5,301.8,66.9,302z"/>
		<path fill="#FFC235" d="M81.9,287.3c0.3,0.1,0.5,0.1,0.6,0.1C82.3,287.2,82,287.2,81.9,287.3z"/>
		<path fill="#FFC235" d="M17.5,419.1c0.1,0.1,0.3,0.3,0.6,0.4C18,419.3,17.8,419.2,17.5,419.1z"/>
		<path fill="#FFC235" d="M33.7,329.4c-0.1-0.1-0.1-0.3-0.3-0.5C33.4,329.1,33.5,329.3,33.7,329.4z"/>
		<path fill="#FFC235" d="M52.8,313L52.8,313c0-0.1-0.1-0.1-0.2-0.2L52.8,313z"/>
		<path fill="#FFC235" d="M47.4,318c0-0.1-0.1-0.2-0.1-0.3C47.3,317.9,47.4,317.9,47.4,318z"/>
		<path fill="#FFC235" d="M56,308.3c0-0.1-0.1-0.3-0.1-0.5L56,308.3z"/>
		<path fill="#FFC235" d="M61,305.8c-0.5-0.2-0.7-0.7-0.8-1.2c-1.5,0.4-0.6,1.9-2.5,2l1,0.1c0,1.3-1,2.6-2.6,2.1l-0.1-0.5
			c0.1,1.4-2.3,0.7-1.9,1.7c0.7,0.2,0.7,0.7,1.5,0.8l-0.8,2.3l-1.4-1.3l-0.4,1.2c0.7,0.4-1.6,0.6-0.3,1.9c-1-0.1-0.8-1.2-1.1-1.9
			c-0.1,0.8-0.7,0.3-0.4,1.5l-1.6-0.8l-0.4,2c0-0.2-0.2-0.2-0.3-0.4c0.4,1.5-2,0.7-1.1,3.1c0-0.1-0.1-0.1-0.2-0.2
			c0.5,1.3-1.1,1.5-1.7,1.6c-0.4,0.8,0.8,1.4,1.3,1.9c-2.2,1.3-1.5,0.9-1.7,3.7c-2.4-0.7-1.2-3.4-3.4-3.4c0.5,0.9,0.3,2.2-0.4,3.3
			c-1.4,0.2-3.2,1.1-5,0.8l1,0.9l-0.7,1.6l-0.7-2c0.1,0.5,0.1,1.7,0.2,2.5c-0.4,2-2.8-1.5-2.3,0.8c-0.1-0.1-0.3-0.2-0.4-0.2
			c0.4,1-0.7,1.5-1.3,2.6l-0.9-1.6l0.9-0.3c-1.5-0.9-0.8,1.1-1.5,1.6c-0.2,1,1.1,1.7,1.1,2.4c-0.3,0.1-0.3,0.8-0.8,0.6
			c-0.9,0.1-1.5-1.4-1.8-2.1c0.8,1.7,0.4,1.7-0.1,3.1c-0.6-0.6-0.8-0.9-0.8-1.1c-0.1,0.4,0,0.8,0.4,1.4l-1.1-0.4
			c-2.2,0,1.1,3.4-0.7,4.3c-0.3-1-1.1,1.3-2.3,0.9c0.3-0.7-2.1-1.6-2.5-2.6c-1.6,0.6,1,1.9,0.4,3l-1.2-1.9c-0.2,1.5,0.6,1,0.2,2.4
			c-0.2-0.7-0.8,0-0.8-1c-1.3,1-0.9,0.8-2.1,1.7l1.5,1.5c-0.2,0.5-1,0-1.4-0.2c0.1-0.2,0.4-0.3,0.2-0.5c-1.8-0.8,0.1,1.3-1.6,0.7
			c0.6,0.3,1.4,0.8,1.1,1.3c-0.8-1-1.5-0.1-2-0.5c0.9,0.3-0.6,1.2,0.4,2.2c-1.2-0.1-0.6-0.8-1.1-1.3c0.9,1.5-1.5,1.9-1.1,2.9
			c-0.1-0.1-0.2-0.1-0.3-0.2c0.3,1.2-0.3,2.2-0.1,4.2l-0.7-1.1c-1.3,0.8,1.5,2.2,0.7,3.1c-1.3-1.2-1.1,1.6-2.3,0.1
			c0.4,1.1,0.3,2,1.3,3.2c-1.2,0-1.2-2.3-2.2-1.9l0.2,1.3l-0.9-0.4c0.6,0.4,0.1,1.2,0.6,1.4c-1-0.5-1.9-0.5-2.6-1
			c-0.1,0.7-1.5,0.9-0.9,1.9l-0.5-0.2c1.5,1.6-0.7,1.9,1.1,3.2l-1.2-0.2c-0.3,1,1.8,1.8,2,2.4C9,365,9,365.5,8.7,365.7
			c-0.8-1.7-1.8-0.1-2.6-0.2c-0.2,0.4-0.7,1.9,0.1,2.6c-0.8-0.9-1.8-0.9-1.4-2c-1.1-0.1-1.2,0.3-1,0.9c0.1,0.6,0.4,1.3,0.1,1.9
			l-0.9-0.3c0,1.9,1.6,2.5,3.1,3.6c-1.2-0.2-1.5-0.4-2.5-1.2c-0.5,0.4-0.8,1.2-0.9,1.9c-0.1,0.8-0.1,1.6-0.3,2.2
			c-1,0.2-1.4-0.2-1.6-0.7c0.3,0.8,0.1,1.5,0,2.2c-0.1,0.7,0.1,1.4,1.1,2c-0.8-0.5-0.6,0.4-1.1,0.9c0.4,0.1,1,0.2,0.9,0.3
			c0.4,0.5,0.7,1.2,0.8,1.8c0.1,0.7,0.1,1.4-0.3,1.8L1.3,383c-0.3,1.1,0.5,1.9,1.2,2.8c0.6,0.8,1.2,1.6,0.4,2.8
			c-0.5,0.4-1.8-0.4-1.7,0.5c0.8,0.4,2.5,0.2,2,1.3l-1.4,0c0.5,0.2,1,0.5,1.5,0.7c1.1-0.4,0.7-1.6,2.1-0.8c-1.3,1,1.4,0.7-0.1,2
			c-0.2-0.2-1.3-0.5-1.9-0.7c-0.7,1.3-0.3,2.1,0.1,3c0.4,0.8,0.9,1.6,0.2,3c0.7,0.5,1.1,1.2,1.6,1.7c0.5,0.6,0.9,1.1,1.5,1.4
			c-1.4,0.2-2.6,0.5-3.9,0.2c0.1,1.1,3.4,0.8,1.5,2.1c1,0,1.5,0.7,2.1,1.2c0.6,0.5,1.3,1,2.7,0.7c-0.5,0.2,0.3,1-1.5,0.5
			c1.3,1-1.7,2.5-1.4,3.2c0.2,0.3,1.5-1,1.8-0.2c-0.1,0.1-0.3,0.3-0.4,0.4l0.7,0.1C8,409.1,7,408.7,6.3,409c-0.1,1.3,2.3,1.3,3,2.5
			l-0.5,0c0.1,0.5,0.4,0.9,0.6,1.3l-0.2,0l1.4,0.6l-0.7,0.3c0.3,0.1,0.7,0,1,0.3l-0.8,0.3c1.4-0.3,2.6,0.6,3,1.1l-0.3,0.3
			c0.8,0.1,1.6,0.3,2.3,0.4c-0.4,1.2-2.3,0.2-0.9,1.2l-1.7,0.6c1.2,0.6,0.5,1.3,1.5,1.6c0.5-0.8,0.2-1.2,1-1.3
			c-1.2,1.8,1.3,0.9,2.5,1.1c-0.3-0.3-0.5-0.5-1.5-0.2c-0.3-0.4,0.7-0.7,0.6-0.9c-0.4,0-0.8,0-1.2,0l0.9-0.8l-1.4-0.4
			c1.2-0.7-0.4-0.9,1.1-1.3c-0.9-0.3-0.3-1.2-1.9-1.1c0.5-0.8,1.4,0.2,1.2-0.3c-1.3-1-2.2-2.3-2.9-3.6c-0.6-1.4-1.2-2.9-1.5-4.5
			l0.7,0.1c-0.7-0.1-1.3-0.3-1.9-0.4c0.9-0.9,1.6-3.2-0.6-3.3c0.1-0.1,0.4-0.1,0.6,0c-0.5-1,0.5-3.1,0-4.5c-1.2-0.1-0.9-0.7-0.8-1.3
			c0.2-0.6,0.2-1.1-1.4-1.2l0.7,0.2c-0.8,0.6-2.3-0.4-3.1-0.6c1.9-0.7,1.5-0.2,3.3-0.9c-0.2,0.2-0.4,0.4-0.6,0.7l1.6-0.3
			c-2.2-0.7-1.8-1.6-1.2-2.4c0.6-0.8,1.3-1.5-0.3-2c0.2,0.1,0.4,0,0.6,0.1c0.9-0.8-1.2-1.3-1.8-1.9c0.8-0.1,1.4,0.3,2,0.6
			c0.3-0.7-0.1-1.6-0.4-2.5c-0.2-0.9-0.4-1.9,0.3-2.6c-1.1-0.6-1.5,0.1-2.3-0.6c0.3-0.5,1.3-0.7,1.8-0.1c1-0.5,0.9-1.6,0.7-2.8
			c-0.1-0.6-0.2-1.2-0.1-1.8c0.1-0.6,0.4-1.1,1-1.4c-1-1.3-1.7-0.8-2.1-2.6c0.7,0.6,2.7,0.3,2.6,1.3l0.8,0.3
			c0.1-0.4,0.3-0.7,0.4-1.1c0.2-0.4,0.3-0.8,0.3-1.2c0.1-0.8-0.2-1.7-1.2-2.5c1.7,0.6,0.4-0.2,1.5-0.4c-0.1-0.3-0.3-0.1-0.4,0
			c-1.2-1.1,0.4-0.8,0.4-1.2l0.2,0.2l-0.6-1.5c0.3-0.1,0.7-0.2,1.3,0l-1.2-0.5c0.2-0.6,1.6,0.4,1.6-0.4l-0.9-0.3
			c0.7-0.2-0.1-1.4,1.2-0.9c0.3,0.1,0.1,0.1,0.1,0.3c1,0.1,1.1-0.4,1.1-1c0-0.6-0.1-1.2,0.6-1.4l-1.9-0.8c-0.1-1.1,0.7-0.3,1.3,0.1
			c0.3-0.5,1-0.3,1.6-0.9c-0.2-0.6-0.5-0.6-1-1l0.9-0.4l0.6,1c-0.9-1.3-0.4-1.9,0.2-2.5c0.5-0.6,1.1-1,0.3-2.2
			c0.8-0.1,0.7,1.1,1.2,1c1-0.2,1.1-1.2,1.3-2.1c0.2-0.9,0.4-1.8,1.4-1.9c2.5-0.7,3.1-3.4,5.6-4.5l-0.4-0.3L28,349
			c-0.5-1.2,0.7-1.6,0.2-3.1c0.3,0.3,0.9,0.7,1,1c0.4-0.6,0.6-1.6,1.4-1.4l0.1,0.5c1.4-0.9,3.2-2.4,3.1-3.7c0.3-0.5,1,0.2,1.6,0.6
			c0.8-0.6,0.9-1.4,0.9-2.6c0.3,0,0.6,0,1.2,0.2l-0.6-1.2c0.4-0.1,0.8,0.7,1.3,0.8c0-2.1,2.4-2.3,3.1-3.1l-0.6-0.4
			c0-0.7,1.3-0.6,1.3,0.3c2.1-0.8,0.9-3.6,3.3-5.2c2,1.5,1.5-2.2,3.6-0.6c0.4-1.3,1.8-1,1.3-2.7c0.2,0.2,0.4,0.2,0.3,0.4
			c1.1,0.4,1.7-1.2,2.2-2.5l0.6,0.5c-0.9-1.6,1.1-2.6,0.2-4.1c0.4,0.2,0.3,0.7,0.4,1c1.6,0.8,0.3-1.3,1.2-1.6
			c0.3,0.4,0.8,0.6,0.9,0.9c3.4-0.4,4.1-5.3,7.7-6.7c0.8-0.6-1.6-1.1-0.5-1.9c0.9,0.4,0.8,1.7,1.6,1.4c-0.3-1.2,0-1.2,0.7-1.6
			c0.3,0.5,0.7,0.7,0.5,1.4c0.8,0.2,0.5-2.3,2.2-1.8c-0.4-0.4-0.5-0.7-0.6-1c-0.1-2,3.4-0.9,2.9-1.6c0,0,0.2-0.5-0.2-0.3
			c0.4-0.3,1.1-0.6,1.6,0.1c-0.1-0.5-0.5-1.2-0.2-1.5l0.5,0.9c0-0.3-0.2-0.9-0.2-1.2l-0.7-0.2c1,0.2,0.4-2,1.7-0.5l-0.1,0.2l1.4-0.1
			c-0.2-0.8-0.4-1.7,0.3-2c1.6,1.3,1.7-0.9,2.5-1.3l0.5,0.5c-0.1-1.2,1.5-2,1-2.1c0.5-0.5,1.5-0.7,1.7,0c0.1-0.7,1-1.4,0.5-2.5
			l2,0.5c-1.2-2.2,2.3-0.8,0.5-2.8c0.8-0.1,1.1,0.4,1.7,0.5c-0.2-1.5,0.6-1.9,1.4-2.4l0.2,0.2c0.8-0.4,0.7-2.1,1.6-3l1.6,1.3
			c0.3-0.6-0.7-1.9,0.1-2c0.3,0.1,0.3,0.3,0.2,0.5c0.2-0.7,1.2-0.9,1.9-0.8c-0.3-1.7,0.6-1.8,0.2-3.5c1.8,0.8-0.3,1.3,1.3,2.1
			c1.7-0.2,2-1.8,2.5-3.5c0.4,0.2,0.5,0.5,0.7,0.9c0,0-1.1-5.5-2.8-6.5c-0.6-1.2-0.9-2-2.6-2c0.2,0.8,0,2.3-1.2,1.4l0.9,1.1
			c-0.8,1.6-2.1-2-3.6-0.6l0.6,0c-0.2,0.3,0.2,1.2-0.5,1.1c-0.4-0.2-0.3-0.5-0.4-0.9l0,2.5c-0.6-0.5-0.9-0.9-1-1.6
			c-1.1,1.1,2,1.6,0.2,2.5c-0.7-0.2-0.5-0.7-0.6-1.2c-1.5-0.3-1.2,0.9-1.3,2.1c-0.9-0.9-0.3-1.2-1.4-1.3c0.6,0.4,1.4,1.1,1,1.6
			c-0.7-1.1-0.8-0.2-1.4-0.1c0.4,0.2,0.8,0.7,0.7,1c-0.1,0.3-0.6,0.1-0.8,0.4l1.4,0.4c0.1,1.5-1.6,0.5-2.5,0.6
			c-0.1-0.2-0.1-0.4-0.1-0.6c-0.9,0.1-2.2-0.1-2.2,1.4l0-0.2c-0.5,2.1,1.9,1.1,1.1,3.4c-0.7,0.3-2.6-3.2-2.8-1
			c1.3,0.3,1,2.6,0.6,3.5l-0.9-2.4c-0.3,0.2-0.3,1.1-0.7,1.1l0.4,0.4c1.5,1.4-1.1,0.6-0.8,1.9c-1.3-2.6-0.9-2.2-2.7-4.3
			c0.6,1.5,1,3.1-0.1,3.6l-0.7-2.2c-1.5,0.7-0.8,4.2-0.5,6.4c-0.8-1.4-1.6-1.4-2.2-2.8l-0.9,1.3l-0.9-1.6c0.8,1.7-0.6,1.3,1.1,2.9
			c-0.1-0.3-0.3-0.5,0-0.7c0.5,0.5,1.3,1.7,0.6,2.2c-0.8-0.1-0.4-0.9-1-1.2c0.3,1-0.8-0.1-0.7,0.8l1,0.4c0.6,1.2-0.6,0.6-0.6,1.4
			c0.1-0.8-0.6-1.3-1.4-1.7l0.1,0.1c-0.2,0.3,0,1.3-0.7,0.9l-1-1.6l0.5,1.4c-0.3,0-0.9-0.4-0.9-0.9c-2.1,0.3,2.8,2.9-0.1,3.1
			c-0.5-0.5-0.6-1,0.2-1.1c-0.7-0.9-1.3-1.3-2-1.1c-0.1-0.1-0.1-0.1-0.1-0.1C62,303.4,60.7,304.4,61,305.8z"/>
		<path fill="#FFC235" d="M62.9,302.7c0.5-0.4,0.9-0.8,0.9-1.1C63.4,301.4,62,301.8,62.9,302.7z"/>
		<path fill="#FFC235" d="M0.6,374.4c0-0.1-0.1-0.2-0.1-0.3C0.5,374.2,0.5,374.3,0.6,374.4z"/>
		<path fill="#FFC235" d="M0.1,379.7c0.2,0,0.3-0.1,0.5-0.2C0.2,379.4-0.1,379.5,0.1,379.7z"/>
		<path fill="#FFC235" d="M28.5,334.6L28.5,334.6L28.5,334.6z"/>
		<path fill="#FFC235" d="M7.7,356.1c0.3,0.7,0.6,1.1,1,1.4C8.7,357.2,8.4,356.8,7.7,356.1z"/>
		<path fill="#FFC235" d="M14.6,348.5c0-0.1,0-0.2-0.1-0.3C14.5,348.4,14.5,348.4,14.6,348.5z"/>
		<path fill="#FFC235" d="M29,332.9c0.1,0.7-0.4,1.1-0.5,1.7C28.5,334.1,29.6,334,29,332.9z"/>
		<polygon fill="#FFC235" points="1.5,386.1 0.6,385.6 1.2,386.2 		"/>
		<path fill="#FFC235" d="M1.3,381.3c0.3-0.2-0.2-1.1-0.7-0.9C1,380.7,1.1,381.1,1.3,381.3z"/>
		<polygon fill="#FFC235" points="7.5,364.2 6.7,363.6 7.2,364.3 		"/>
	</g>
	<g>
		<polygon fill="#FFC235" points="343.8,413.8 344.6,413.2 343.4,413.5 		"/>
		<path fill="#FFC235" d="M342.7,409.9c-1.1,0.2-2-0.1-3.7,0.9l1.9-0.3c-1.3,0.8-1,1.1-0.4,1.2l-0.3-0.3c0.2,0,1-0.5,1.3-0.5
			c-0.3,0.9,1.5,0.1,0.4,1.4l-0.2,0l1.1-0.1c-0.1,0.2-0.8,0.5-1,0.6c0.9,0,1.8-0.1,2,0.4c2.2-1.6-2.5-0.1-0.3-1.7l0.2,0
			C342.5,411.4,343.7,410,342.7,409.9z"/>
		<path fill="#FFC235" d="M341.8,412.8L341.8,412.8C341.6,412.8,341.7,412.8,341.8,412.8z"/>
		<path fill="#FFC235" d="M333.5,391.6l-0.4,0.2C333.3,391.7,333.4,391.7,333.5,391.6z"/>
		<path fill="#FFC235" d="M332.4,400.1C332.4,400.1,332.4,400.1,332.4,400.1C331.9,400.3,332,400.3,332.4,400.1z"/>
		<path fill="#FFC235" d="M312.1,360.6l0.4-0.4C312.1,360.4,312,360.6,312.1,360.6z"/>
		<path fill="#FFC235" d="M307.1,352.7L307.1,352.7L307.1,352.7z"/>
		<path fill="#FFC235" d="M302.6,360.7l-0.4,0.3C302.4,360.9,302.5,360.8,302.6,360.7z"/>
		<path fill="#FFC235" d="M299.9,358.9c0.1-0.1,0.1-0.3,0.1-0.3C299.8,358.8,299.8,358.9,299.9,358.9z"/>
		<path fill="#FFC235" d="M307.4,352.6c-0.1,0-0.2,0-0.2,0.1C307.2,352.7,307.3,352.7,307.4,352.6z"/>
		<path fill="#FFC235" d="M304.3,364.9l-1.1,0.9C303.6,365.5,304,365.2,304.3,364.9z"/>
		<path fill="#FFC235" d="M298.6,358.9c0.2-0.2,0.3-0.3,0.3-0.4C298.7,358.7,298.5,358.8,298.6,358.9z"/>
		<path fill="#FFC235" d="M342.4,409.4c0.1,0.1,0.1,0.1,0.3,0.2C342.7,409.4,342.6,409.4,342.4,409.4z"/>
		<path fill="#FFC235" d="M312.7,379.4c-0.1,0.1-0.3,0.1-0.5,0.2C312.3,379.6,312.5,379.5,312.7,379.4z"/>
		<path fill="#FFC235" d="M307.4,371.2L307.4,371.2c-0.1,0-0.2,0.1-0.2,0.2L307.4,371.2z"/>
		<path fill="#FFC235" d="M309.2,373.4c-0.1,0-0.2,0.1-0.3,0.1C309,373.5,309.1,373.4,309.2,373.4z"/>
		<path fill="#FFC235" d="M304.9,370.2c-0.1,0-0.3,0.1-0.5,0.2L304.9,370.2z"/>
		<path fill="#FFC235" d="M305,367.7c-0.4,0.3-0.8,0.5-1.3,0.7c-0.3,0.8,1.3,0,0.6,1.1l0.4-0.6c1.1-0.3,1.6,0.1,0.7,1.1l-0.4,0.2
			c1.1-0.3-0.3,1.2,0.6,0.8c0.4-0.4,0.8-0.5,1.2-1l1.5,0.1l-1.6,1.1l0.8,0c0.6-0.5-0.2,0.8,1.4-0.1c-0.4,0.6-1.3,0.7-2,1
			c0.6-0.1-0.1,0.4,1,0l-1.3,1.1l1.4-0.1c-0.2,0.1-0.2,0.2-0.4,0.2c1.4-0.5-0.3,1.1,2,0.1c-0.1,0-0.2,0.1-0.2,0.1
			c1.2-0.5,0.7,0.4,0.6,0.7c0.5,0.1,1.4-0.7,2.1-1.1c0.2,1,0.1,0.7,2.2,0.3c-1.5,1.5-3.2,1.3-4.1,2.6c0.9-0.5,1.8-0.5,2.5-0.4
			c-0.4,0.7-0.4,1.7-1.4,2.8l1.1-0.8l1,0.1l-1.9,0.8c0.5-0.2,1.4-0.4,2.1-0.5c1.4-0.1-2.4,1.9-0.3,1.2c-0.1,0.1-0.2,0.2-0.3,0.3
			c1-0.4,0.9,0.1,1.5,0.3l-1.6,0.8l0.1-0.5c-1.4,1,0.5,0.3,0.6,0.6c0.7,0,1.8-0.9,2.4-1.1c0,0.1,0.5,0,0.2,0.4
			c-0.3,0.5-1.8,1.1-2.5,1.4c1.7-0.7,1.5-0.5,2.5-0.5c-0.7,0.5-1.1,0.6-1.2,0.7c0.3,0,0.6-0.1,1.3-0.5l-0.8,0.7
			c-0.9,1.3,3.1-1.2,3.1-0.3c-0.9,0.3,0.5,0.4-0.3,1.2c-0.4-0.1-2.1,1.4-3.1,1.9c-0.2,0.8,1.9-0.9,2.5-0.7l-2,1
			c1.1-0.1,1.1-0.5,1.9-0.5c-0.6,0.2-0.4,0.5-1.2,0.6c0.2,0.6,0.2,0.4,0.3,1l1.8-1.1c0.3,0-0.5,0.6-0.8,0.8c-0.1,0-0.1-0.2-0.3,0
			c-1.5,1.1,1.1-0.2-0.2,0.8c0.5-0.4,1.3-0.9,1.5-0.8c-1.2,0.6-0.8,0.9-1.3,1.2c0.7-0.6,0.6,0.2,1.8-0.5c-0.7,0.7-0.9,0.5-1.5,0.8
			c1.5-0.7,0.7,0.6,1.6,0.3c-0.1,0.1-0.2,0.1-0.3,0.2c1-0.3,1.5,0,3-0.3l-1.2,0.5c-0.2,0.7,2.4-1,2.6-0.6c-1.5,0.8,0.5,0.6-1.2,1.4
			c1-0.3,1.5-0.3,2.9-0.9c-0.7,0.7-2.3,0.8-2.5,1.3l1-0.1l-0.8,0.5c0.6-0.3,0.8-0.1,1.3-0.4c-0.9,0.6-1.5,1.2-2.3,1.6
			c0.4,0-0.3,0.9,0.7,0.5l-0.5,0.3c1.9-0.9,0.8,0.4,2.7-0.6l-0.9,0.7c0.4,0.2,2.2-1,2.8-1.1c0.2,0.1,0.5,0.1,0.4,0.3
			c-1.5,0.3-1.3,1.1-1.9,1.5c0.1,0.2,0.5,0.6,1.5,0.2c-1.1,0.4-1.8,0.9-2.1,0.6c-1.7,1.2,0.8,0.3,0.8,0.8l-0.9,0.5
			c0.9,0.2,2.4-0.6,4-1.2c-1,0.7-1.3,0.8-2.5,1.2c-0.4,0.7,0.7,0.9,0.8,1.4c-0.7,0.6-1.2,0.7-1.6,0.8c1.1,0,0.4,1.1,2.5,0.3
			c-0.8,0.3-0.4,0.5-0.6,0.8c0.4-0.2,0.9-0.5,0.9-0.4c0.9-0.2,2,0,1.5,0.7l-0.6,0.2c0.1,0.9,3.6-0.6,2.7,1c-0.3,0.4-1.6,0.7-1.4,1
			c0.8-0.2,2.2-1.1,2-0.5l-1.2,0.7l1.4-0.4c0.9-0.7,0.3-0.9,1.6-1.3c-0.9,1,1.3-0.4,0.2,0.8c-0.2,0-1.2,0.4-1.7,0.6
			c-0.9,1.7,1.9,0.5,0.9,2.2c1.2-0.1,1.8,0.3,2.9,0.1c-1.3,0.7-2.3,1.3-3.4,1.6c0.1,0.5,3-0.9,1.3,0.3c1.8-0.8,1.7,0.4,4.1-0.8
			c-0.5,0.3,0.2,0.4-1.3,0.8c1.1,0.1-1.7,1.8-1.5,2c0.1,0.1,1.4-1,1.6-0.7c-0.1,0.1-0.3,0.2-0.4,0.3l0.6-0.2
			c-0.5,0.4-1.3,0.5-1.9,0.9c-0.3,0.7,1.8-0.1,2.2,0.3l-0.5,0.1l0.2,0.5l-0.2,0l1.1-0.1l-0.6,0.3c0.2,0,0.6-0.2,0.8-0.1l-0.8,0.4
			c1.3-0.5,2.2-0.4,2.3-0.2l-0.3,0.2l1.9-0.3c-0.6,0.7-2,0.6-1.1,0.9l-1.6,0.7c0.9,0.1,0.1,0.6,0.8,0.6c0.7-0.6,0.5-0.7,1.3-0.9
			c-1.6,1.3,0.8,0.3,1.7,0.2c-0.1-0.1-0.2-0.3-1.1,0.1c-0.1-0.2,0.8-0.5,0.8-0.6l-1,0.2l1-0.6l-1.1,0.1c1.3-0.7-0.1-0.5,1.4-1
			c-0.7,0,0.1-0.6-1.3-0.2c0.6-0.6,1.1-0.2,1.1-0.5c-1.7-0.6-2.2-1.8-2.5-3.2l0.6-0.2c-0.6,0.2-1.2,0.3-1.6,0.4
			c0.9-0.7,1.7-2.2-0.3-1.5c0.1-0.1,0.4-0.2,0.5-0.2c-0.5-0.3,0.4-1.7-0.1-2.1c-2.1,0.9,0.7-1.5-2.1-0.2l0.6-0.2
			c-0.6,0.6-2,0.8-2.7,1.1c1.6-1.1,1.3-0.8,2.8-1.8l-0.5,0.6l1.4-0.9c-4.1,1.4,0.9-2.3-2.1-1.2c0.2-0.1,0.4-0.2,0.5-0.2
			c0.6-0.7-1.3,0.1-1.9,0.1c0.7-0.4,1.2-0.5,1.9-0.7c0.2-0.8-2.2-0.6-1.4-1.8c-1.1,0.4-1.2,0.8-2.1,1c0.2-0.3,0.9-0.9,1.5-1
			c1.5-1.5-2.2-0.9-1-2.6c-1.3,0.2-1.6,0.7-2.7,0.5c0.8-0.3,2.3-1.5,2.6-1.2l0.8-0.4c-0.2-0.7-0.5-1.6-2.8-0.7
			c1.6-0.9,0.2-0.3,0.9-1c-0.2,0-0.2,0.1-0.3,0.2c-1.5,0.6-0.2-0.4-0.5-0.4l0.3-0.1l-1.2,0.1c0.2-0.2,0.4-0.5,0.9-0.8l-1.1,0.6
			c-0.2-0.2,1.3-0.9,0.9-1l-0.8,0.5c0.4-0.5-0.9-0.1,0.2-0.8c0.2-0.1,0.2-0.1,0.2,0c1.5-1.2-1-0.4-0.5-1.2l-1.7,1.1
			c-0.8,0,0.2-0.4,0.9-0.8c-0.2-0.2,0.4-0.6,0.4-1c-0.5,0.1-0.7,0.3-1.2,0.6l0.2-0.6l1.1-0.4c-2.9,1-0.5-1.3-3-0.3
			c0.4-0.5,1.2-0.5,1.4-0.7c0.8-1.2-2.5-0.3-1.5-1.5c0.8-1.5-1-1.6-0.7-3l-0.5,0.3l0-0.8c-1.2,0.5-0.9-0.2-2.3,0.3
			c0.4-0.2,0.9-0.6,1.2-0.7c-0.3-0.2-1-0.1-0.5-0.7l0.5-0.2c-0.1-0.7-0.6-1.5-1.6-1.3c-0.2-0.1,0.6-0.6,1.1-1
			c-0.2-0.4-0.8-0.3-1.7-0.1c0.2-0.2,0.3-0.4,0.7-0.7l-1.2,0.6c0.1-0.2,0.9-0.6,1.1-0.9c-1.7,0.3-0.9-1-1.2-1.3l-0.5,0.4
			c-0.5,0.1,0.1-0.6,0.8-0.8c0.2-1.1-2.5,0.1-2.8-1.1c2-1.4-1.2-0.5,1-2c-0.9,0-0.1-0.9-1.6-0.3c0.2-0.2,0.3-0.2,0.4-0.2
			c0.8-0.7-0.3-0.8-1.1-0.8l0.7-0.5c-1.6,0.8-1.6-0.2-3.2,0.6c0.3-0.2,0.7-0.3,1-0.4c1.3-1.1-0.9,0.1-0.8-0.4
			c0.4-0.2,0.8-0.6,1.1-0.7c1-1.9-2.6-1.5-2.3-3.3c-0.2-0.4-1.5,1.1-1.7,0.6c0.7-0.6,1.7-0.8,1.8-1.2c-1.1,0.4-0.9,0.2-1-0.1
			c0.5-0.3,0.8-0.5,1.3-0.6c0.5-0.5-1.6,0.1-0.6-1c-0.4,0.3-0.8,0.4-1.1,0.5c-1.6,0.4,0.6-1.8-0.1-1.4c0,0-0.3,0-0.4,0.2
			c-0.1-0.2,0-0.5,0.7-1c-0.5,0.2-1.1,0.5-1.3,0.4l0.9-0.5c-0.2,0-0.8,0.3-1,0.3l-0.4,0.4c0.6-0.6-1.4,0.1,0.3-0.9l0.1,0l0.5-0.8
			c-0.8,0.3-1.5,0.6-1.5,0.2c1.6-1.2,0-0.8-0.1-1.2l0.6-0.4c-1,0.3-1-0.5-1.2-0.2c-0.2-0.2,0-0.8,0.6-1c-0.5,0-0.7-0.3-1.8,0.2
			l1.2-1.3c-2.3,1.2,0.2-1.2-2,0.2c0.2-0.4,0.7-0.7,1-1.1c-1.3,0.4-1.3,0-1.3-0.4l0.2-0.2c0-0.4-1.4,0-1.8-0.3l1.6-1.2
			c-0.4-0.1-1.7,0.8-1.5,0.3c0.2-0.2,0.3-0.2,0.5-0.2c-0.5,0-0.2-0.5,0.1-1c-1.4,0.5-1.2,0-2.7,0.6c1.3-1.2,0.9-0.1,2.2-1.2
			c0.5-1-0.7-0.9-1.8-0.8c0.3-0.3,0.6-0.4,1-0.6c0,0-4.8,1.7-6.2,3c-1.2,0.6-2,0.9-2.6,1.9c0.8-0.3,1.8-0.5,0.6,0.4l1.2-0.8
			c0.9,0.2-2.4,1.7-1.9,2.3l0.3-0.4c0.2,0.1,1-0.3,0.7,0.1c-0.3,0.3-0.5,0.3-0.8,0.4l2-0.5c-0.7,0.5-1,0.7-1.6,0.9
			c0.4,0.5,2.1-1.5,2.1-0.6c-0.4,0.5-0.7,0.4-1.2,0.6c-0.8,0.9,0.3,0.5,1.1,0.4c-1,0.7-1.1,0.4-1.6,1.1c0.5-0.4,1.4-1,1.6-0.9
			c-1.1,0.6-0.5,0.5-0.6,0.9c0.3-0.3,0.8-0.6,1.1-0.6c0.2,0-0.1,0.3,0,0.4l0.9-0.9c1.2-0.3-0.2,0.8-0.5,1.4
			c-0.2,0.1-0.4,0.2-0.5,0.1c-0.3,0.5-0.9,1.3,0.2,1.1L300,360c1.5-0.1,1.6-1.3,3.1-1.3c-0.1,0.4-3.5,2.1-1.9,1.9
			c0.7-0.8,2.4-1.1,3-1.1l-2.3,1c0.1,0.1,0.8,0,0.6,0.2l0.5-0.3c1.7-1.2,0,0.5,1.2,0.1c-2.6,1.3-2.1,1-4.5,2.5
			c1.4-0.6,2.8-1.2,2.8-0.6l-2,0.9c0,0.8,3.1-0.4,4.9-0.9c-1.4,0.8-1.8,1.2-3.1,1.8l0.6,0.3l-1.6,0.8c1.7-0.8,0.8,0.1,2.7-1.2
			c-0.3,0.1-0.5,0.3-0.5,0.1c0.6-0.4,1.9-1.1,2-0.8c-0.4,0.5-0.8,0.4-1.4,0.8c0.9-0.4-0.4,0.5,0.3,0.3l0.7-0.7
			c1.2-0.6,0.2,0.3,0.9,0.1c-0.6,0.1-1.2,0.6-1.9,1.1l0.1-0.1c0.2,0.1,1.1-0.3,0.5,0.2l-1.7,0.9l1.3-0.6c-0.1,0.2-0.7,0.6-1.1,0.7
			c-0.6,1.2,3.4-2.2,2.5-0.5c-0.6,0.4-1.1,0.5-0.8,0.1c-1,0.6-1.5,1-1.7,1.4c-0.1,0-0.1,0.1-0.2,0.1
			C303.5,367.6,303.7,368.1,305,367.7z"/>
		<path fill="#FFC235" d="M303.2,367.2c-0.1-0.2-0.3-0.4-0.5-0.3C302.4,367.1,302.2,367.8,303.2,367.2z"/>
		<path fill="#FFC235" d="M325.2,396.7c-0.1,0-0.1,0-0.2,0L325.2,396.7z"/>
		<path fill="#FFC235" d="M326.8,398.1c0.2-0.1,0.2-0.2,0.3-0.3C326.7,398,326.5,398.2,326.8,398.1z"/>
		<path fill="#FFC235" d="M314.7,381.5L314.7,381.5L314.7,381.5z"/>
		<path fill="#FFC235" d="M320.4,391.2c0.6-0.2,1.1-0.4,1.5-0.6C321.7,390.6,321.3,390.7,320.4,391.2z"/>
		<path fill="#FFC235" d="M318.9,387.6c-0.1,0-0.2,0-0.3,0.1C318.8,387.7,318.9,387.7,318.9,387.6z"/>
		<path fill="#FFC235" d="M313.5,381.5c0.6-0.2,0.7,0,1.1,0C314.3,381.6,314.6,381,313.5,381.5z"/>
		<polygon fill="#FFC235" points="329.8,399.1 328.9,399.4 329.6,399.3 		"/>
		<path fill="#FFC235" d="M328.3,397.9c0.2-0.2-0.5-0.2-0.9,0.2C327.8,397.9,328.1,397.9,328.3,397.9z"/>
		<polygon fill="#FFC235" points="325.3,391.4 324.4,391.9 325.1,391.6 		"/>
	</g>
	<g>
		<polygon fill="#FFC235" points="361.6,395.3 362.5,394.9 361.2,394.9 		"/>
		<path fill="#FFC235" d="M361.3,391.3c-1.1,0-2-0.4-3.8,0.2l1.9,0c-1.4,0.6-1.2,0.9-0.6,1.1l-0.2-0.4c0.2,0,1.1-0.3,1.3-0.3
			c-0.5,0.8,1.5,0.4,0.2,1.4l-0.2,0l1.1,0.1c-0.2,0.2-0.8,0.4-1.1,0.4c0.9,0.1,1.8,0.2,1.9,0.7c2.4-1.3-2.4-0.5,0-1.8l0.2,0
			C360.7,392.7,362.2,391.5,361.3,391.3z"/>
		<path fill="#FFC235" d="M359.8,393.9L359.8,393.9C359.6,394,359.7,394,359.8,393.9z"/>
		<path fill="#FFC235" d="M355.6,371.4l-0.4,0.1C355.3,371.5,355.5,371.4,355.6,371.4z"/>
		<path fill="#FFC235" d="M352.9,379.6C352.9,379.6,352.9,379.6,352.9,379.6C352.4,379.7,352.5,379.7,352.9,379.6z"/>
		<path fill="#FFC235" d="M340.9,336.5l0.5-0.3C340.9,336.3,340.9,336.4,340.9,336.5z"/>
		<path fill="#FFC235" d="M337.8,327.7L337.8,327.7L337.8,327.7z"/>
		<path fill="#FFC235" d="M331.6,334.6l-0.5,0.2C331.4,334.7,331.5,334.7,331.6,334.6z"/>
		<path fill="#FFC235" d="M329.4,332.2c0.1-0.1,0.2-0.2,0.1-0.3C329.3,332.1,329.2,332.2,329.4,332.2z"/>
		<path fill="#FFC235" d="M338,327.7c-0.1,0-0.2,0-0.3,0C337.8,327.7,337.9,327.7,338,327.7z"/>
		<path fill="#FFC235" d="M332.4,339.1l-1.3,0.6C331.5,339.6,332,339.4,332.4,339.1z"/>
		<path fill="#FFC235" d="M328,332c0.2-0.1,0.4-0.2,0.4-0.3C328.2,331.8,328,331.9,328,332z"/>
		<path fill="#FFC235" d="M361,390.7c0,0.1,0.1,0.2,0.3,0.2C361.3,390.8,361.2,390.7,361,390.7z"/>
		<path fill="#FFC235" d="M337.6,355.2c-0.2,0-0.3,0.1-0.5,0.1C337.2,355.4,337.4,355.3,337.6,355.2z"/>
		<path fill="#FFC235" d="M334.1,346L334.1,346c-0.1,0-0.2,0.1-0.3,0.1L334.1,346z"/>
		<path fill="#FFC235" d="M335.4,348.6c-0.1,0-0.2,0-0.3,0.1C335.2,348.6,335.3,348.6,335.4,348.6z"/>
		<path fill="#FFC235" d="M331.8,344.5c-0.1,0-0.3,0-0.5,0.1L331.8,344.5z"/>
		<path fill="#FFC235" d="M332.4,342c-0.4,0.3-0.9,0.3-1.4,0.4c-0.4,0.7,1.3,0.3,0.3,1.2l0.6-0.5c1.1,0,1.6,0.5,0.4,1.2l-0.5,0.1
			c1.2-0.1-0.6,1.1,0.4,0.9c0.5-0.3,0.9-0.3,1.4-0.7l1.4,0.4l-1.8,0.7l0.8,0.2c0.7-0.4-0.3,0.8,1.4,0.1c-0.6,0.5-1.4,0.4-2.2,0.6
			c0.6,0-0.1,0.4,1,0.2l-1.5,0.8l1.4,0.2c-0.2,0-0.3,0.1-0.4,0.1c1.5-0.2-0.5,1,2,0.5c-0.1,0-0.2,0-0.3,0.1c1.3-0.3,0.6,0.5,0.4,0.8
			c0.4,0.2,1.6-0.4,2.2-0.7c0,1.1-0.1,0.7,2.1,0.8c-1.8,1.2-3.4,0.7-4.6,1.7c1-0.3,1.9-0.2,2.5,0.1c-0.5,0.7-0.8,1.6-2,2.5l1.3-0.5
			l1,0.3l-2,0.4c0.5-0.1,1.4-0.1,2.1-0.1c1.4,0.2-2.7,1.4-0.5,1.1c-0.1,0.1-0.3,0.1-0.4,0.2c1.1-0.2,0.9,0.3,1.4,0.6l-1.7,0.5
			l0.2-0.4c-1.6,0.8,0.5,0.4,0.5,0.7c0.7,0.1,2-0.6,2.6-0.6c0,0.1,0.5,0.1,0.1,0.4c-0.4,0.5-2,0.7-2.7,0.9c1.8-0.4,1.6-0.2,2.5,0
			c-0.8,0.3-1.2,0.4-1.4,0.4c0.3,0,0.6,0,1.4-0.2l-0.9,0.5c-1.2,1.1,3.3-0.6,3.1,0.3c-1,0.1,0.5,0.5-0.5,1.1c-0.4-0.1-2.4,1-3.5,1.2
			c-0.4,0.8,2.1-0.5,2.6-0.2l-2.2,0.6c1.1,0.1,1.2-0.3,2-0.1c-0.6,0.1-0.5,0.4-1.3,0.4c0,0.7,0.2,0.4,0.1,1l2-0.7
			c0.3,0.1-0.6,0.5-0.9,0.7c-0.1-0.1,0-0.2-0.3-0.1c-1.7,0.8,1.1,0-0.4,0.8c0.6-0.3,1.5-0.7,1.7-0.5c-1.3,0.4-1,0.7-1.5,0.9
			c0.8-0.4,0.6,0.3,1.9-0.1c-0.8,0.6-1,0.3-1.7,0.5c1.6-0.4,0.6,0.8,1.5,0.6c-0.1,0-0.2,0.1-0.3,0.1c1.1-0.1,1.5,0.3,3,0.3l-1.2,0.2
			c-0.3,0.7,2.6-0.6,2.7-0.1c-1.7,0.5,0.4,0.7-1.5,1.1c1-0.1,1.6,0,3.1-0.3c-0.8,0.6-2.4,0.3-2.8,0.8l1,0.1l-0.9,0.4
			c0.7-0.2,0.9,0.1,1.4-0.1c-1,0.4-1.7,0.9-2.6,1.1c0.4,0.1-0.5,0.8,0.5,0.7l-0.5,0.2c2.1-0.5,0.7,0.6,2.8-0.1l-1.1,0.5
			c0.3,0.3,2.4-0.5,3-0.5c0.1,0.1,0.4,0.2,0.3,0.4c-1.5,0-1.5,0.8-2.2,1.2c0,0.2,0.4,0.7,1.5,0.5c-1.1,0.2-1.9,0.6-2.2,0.2
			c-1.9,0.9,0.7,0.4,0.6,1l-0.9,0.3c0.9,0.4,2.5-0.1,4.2-0.4c-1.1,0.5-1.5,0.5-2.7,0.8c-0.5,0.7,0.5,1,0.5,1.6
			c-0.8,0.4-1.3,0.5-1.7,0.5c1.1,0.2,0.2,1.2,2.4,0.7c-0.9,0.2-0.5,0.4-0.8,0.7c0.4-0.1,1-0.3,0.9-0.3c0.9,0,2,0.4,1.4,1l-0.7,0.1
			c0,0.9,3.6,0.1,2.5,1.5c-0.4,0.3-1.8,0.4-1.6,0.7c0.8-0.1,2.4-0.7,2.1-0.1l-1.4,0.4l1.5-0.2c1.1-0.5,0.5-0.9,1.9-1
			c-1.1,0.8,1.4-0.1,0.1,0.8c-0.2-0.1-1.3,0.2-1.8,0.3c-1.2,1.5,1.8,0.9,0.5,2.4c1.2,0.1,1.7,0.6,2.8,0.6c-1.4,0.4-2.6,0.8-3.7,1
			c0,0.5,3.1-0.4,1.2,0.6c1.9-0.4,1.6,0.7,4.2-0.1c-0.5,0.2,0.1,0.4-1.5,0.5c1.1,0.3-2,1.5-1.9,1.7c0.1,0.1,1.6-0.7,1.8-0.4
			c-0.1,0.1-0.4,0.2-0.4,0.3l0.7-0.1c-0.5,0.3-1.3,0.3-2,0.5c-0.4,0.6,1.8,0.2,2.1,0.7l-0.5,0.1l0.1,0.6l-0.2,0l1.1,0.1l-0.7,0.2
			c0.2,0,0.7-0.1,0.8,0l-0.8,0.2c1.3-0.3,2.2,0,2.3,0.2l-0.4,0.2l1.9,0c-0.8,0.6-2.1,0.2-1.3,0.7l-1.8,0.4c0.8,0.2-0.1,0.6,0.6,0.7
			c0.8-0.4,0.6-0.6,1.4-0.7c-1.8,1,0.7,0.4,1.6,0.5c-0.1-0.2-0.1-0.3-1.1-0.1c0-0.2,0.9-0.4,0.9-0.5l-1,0.1l1.1-0.5l-1.1-0.1
			c1.4-0.4,0-0.5,1.5-0.8c-0.7-0.1,0.2-0.6-1.3-0.4c0.7-0.5,1.1,0,1.2-0.3c-1.6-0.9-1.8-2.2-1.8-3.7l0.7-0.1
			c-0.7,0.1-1.2,0.1-1.7,0.1c1-0.6,2.1-1.9-0.1-1.5c0.1-0.1,0.4-0.1,0.6-0.1c-0.4-0.3,0.7-1.6,0.3-2.1c-2.2,0.5,1-1.4-2-0.6l0.7-0.1
			c-0.7,0.5-2.1,0.4-2.9,0.6c1.8-0.8,1.5-0.5,3.1-1.3l-0.6,0.5l1.6-0.6c-4.3,0.6,1.3-2.1-1.8-1.6c0.2,0,0.4-0.1,0.6-0.1
			c0.8-0.6-1.3-0.2-1.9-0.2c0.8-0.3,1.3-0.3,2-0.4c0.4-0.8-2.1-1-1.1-2c-1.1,0.1-1.4,0.6-2.3,0.6c0.2-0.3,1-0.7,1.6-0.7
			c1.8-1.2-1.9-1.3-0.5-2.8c-1.3,0-1.7,0.4-2.8,0c0.8-0.1,2.5-1.1,2.8-0.7l0.8-0.2c-0.1-0.7-0.1-1.7-2.6-1.2
			c1.7-0.6,0.3-0.2,1.1-0.8c-0.2,0-0.3,0.1-0.4,0.2c-1.6,0.3-0.1-0.4-0.4-0.5l0.3,0l-1.2-0.1c0.2-0.2,0.5-0.4,1-0.6l-1.2,0.4
			c-0.1-0.3,1.5-0.7,1-0.9l-0.9,0.4c0.5-0.4-0.9-0.3,0.4-0.8c0.3-0.1,0.2,0,0.2,0c1.7-1-0.9-0.6-0.2-1.3l-1.9,0.8
			c-0.8-0.2,0.3-0.4,1-0.6c-0.1-0.2,0.5-0.5,0.6-0.9c-0.6,0-0.7,0.2-1.3,0.3l0.3-0.5l1.1-0.2c-3,0.5-0.2-1.4-2.9-0.9
			c0.5-0.4,1.2-0.2,1.5-0.5c1-1.1-2.4-0.7-1.2-1.8c1-1.3-0.7-1.8-0.1-3.1l-0.5,0.2l0.2-0.8c-1.2,0.2-0.9-0.4-2.3-0.2
			c0.4-0.1,1-0.4,1.4-0.5c-0.3-0.2-1-0.3-0.3-0.7l0.5-0.1c0.1-0.7-0.2-1.6-1.4-1.6c-0.2-0.2,0.7-0.5,1.3-0.8
			c-0.1-0.4-0.7-0.4-1.7-0.4c0.2-0.2,0.4-0.3,0.8-0.6l-1.3,0.3c0.1-0.2,1-0.4,1.3-0.7c-1.7,0-0.7-1.2-0.9-1.5l-0.6,0.3
			c-0.6,0,0.2-0.6,0.9-0.7c0.4-1.1-2.4-0.4-2.5-1.6c2.2-1-1.1-0.7,1.4-1.8c-0.8-0.2,0.1-0.9-1.5-0.6c0.3-0.1,0.3-0.2,0.4-0.1
			c0.9-0.5-0.1-0.8-0.9-1.1l0.8-0.3c-1.7,0.5-1.6-0.5-3.3,0c0.3-0.2,0.7-0.2,1.1-0.2c1.5-0.8-0.9-0.1-0.7-0.6
			c0.4-0.1,0.9-0.4,1.2-0.4c1.4-1.7-2.2-2-1.5-3.7c-0.1-0.4-1.7,0.8-1.8,0.3c0.8-0.5,1.8-0.4,2-0.9c-1.1,0.2-0.9,0-1-0.3
			c0.6-0.2,0.9-0.3,1.4-0.3c0.6-0.4-1.6-0.2-0.4-1.1c-0.5,0.2-0.8,0.3-1.2,0.3c-1.7,0.1,1-1.7,0.2-1.4c0,0-0.3-0.1-0.4,0.1
			c0-0.2,0.1-0.5,0.9-0.8c-0.5,0.1-1.2,0.3-1.4,0.2l1-0.3c-0.2,0-0.9,0.1-1,0.1l-0.5,0.4c0.7-0.5-1.4-0.2,0.5-0.9l0.1,0.1l0.7-0.7
			c-0.8,0.1-1.6,0.3-1.5-0.1c1.9-0.8,0.1-0.8,0.2-1.2l0.7-0.2c-1,0.1-0.9-0.7-1.2-0.5c-0.1-0.2,0.2-0.8,0.9-0.9
			c-0.5-0.1-0.6-0.5-1.8-0.2l1.4-1c-2.5,0.7,0.5-1.1-2-0.2c0.3-0.4,0.9-0.5,1.2-0.9c-1.4,0.2-1.3-0.2-1.2-0.7l0.3-0.1
			c0.1-0.4-1.4-0.3-1.7-0.7l1.9-0.8c-0.4-0.1-1.9,0.4-1.6,0c0.3-0.2,0.4-0.2,0.5-0.1c-0.5-0.1-0.1-0.6,0.3-0.9
			c-1.5,0.2-1.1-0.3-2.7,0c1.6-0.9,0.9,0.1,2.4-0.7c0.7-0.8-0.5-1-1.5-1.2c0.3-0.2,0.7-0.2,1.1-0.4c0,0-5.1,0.7-6.8,1.6
			c-1.3,0.4-2.1,0.5-3,1.4c0.8-0.1,1.9-0.1,0.5,0.6l1.3-0.5c0.9,0.4-2.7,1.1-2.3,1.9l0.4-0.3c0.1,0.1,1-0.1,0.7,0.2
			c-0.3,0.2-0.6,0.2-0.9,0.2l2.1-0.1c-0.8,0.3-1.2,0.5-1.8,0.6c0.3,0.5,2.4-1.1,2.1-0.2c-0.5,0.4-0.8,0.3-1.3,0.4
			c-1,0.8,0.1,0.6,1,0.6c-1.2,0.5-1.1,0.2-1.8,0.8c0.6-0.3,1.6-0.7,1.8-0.6c-1.2,0.4-0.6,0.4-0.8,0.7c0.4-0.2,1-0.4,1.2-0.4
			c0.2,0-0.2,0.3-0.1,0.4l1.1-0.7c1.3-0.1-0.4,0.8-0.8,1.3c-0.2,0.1-0.4,0.1-0.5,0c-0.4,0.5-1.2,1.1,0,1.1l-0.2,0
			c1.5,0.2,1.9-1,3.3-0.6c-0.1,0.4-3.9,1.4-2.3,1.4c0.9-0.7,2.6-0.6,3.2-0.4l-2.4,0.5c0,0.1,0.8,0.1,0.6,0.3l0.5-0.2
			c1.9-0.8-0.1,0.5,1.2,0.3c-2.8,0.7-2.3,0.5-5,1.5c1.5-0.3,3-0.6,2.9,0l-2.2,0.4c-0.2,0.8,3.1,0.3,5,0.1c-1.6,0.5-2,0.9-3.4,1.1
			l0.6,0.4l-1.7,0.5c1.8-0.4,0.7,0.3,2.9-0.6c-0.3,0.1-0.6,0.2-0.6,0c0.7-0.2,2.1-0.7,2.1-0.3c-0.5,0.4-0.9,0.2-1.5,0.5
			c1-0.2-0.5,0.4,0.3,0.4l0.9-0.5c1.3-0.3,0.2,0.3,0.9,0.2c-0.6,0-1.3,0.3-2.1,0.7l0.2-0.1c0.1,0.1,1.1,0,0.4,0.3l-1.8,0.6l1.4-0.3
			c-0.2,0.2-0.8,0.5-1.2,0.5c-0.8,1.1,3.8-1.5,2.5,0c-0.7,0.2-1.2,0.3-0.9-0.1c-1.1,0.4-1.7,0.7-2,1c-0.1,0-0.1,0.1-0.2,0.1
			C331,341.6,331.1,342.2,332.4,342z"/>
		<path fill="#FFC235" d="M330.8,341.2c-0.1-0.2-0.2-0.4-0.4-0.4C330,340.9,329.7,341.6,330.8,341.2z"/>
		<path fill="#FFC235" d="M346.5,374.9c-0.1,0-0.1,0-0.2,0L346.5,374.9z"/>
		<path fill="#FFC235" d="M347.7,376.6c0.2-0.1,0.3-0.2,0.4-0.2C347.7,376.5,347.5,376.6,347.7,376.6z"/>
		<path fill="#FFC235" d="M339.1,357.8L339.1,357.8L339.1,357.8z"/>
		<path fill="#FFC235" d="M342.8,368.5c0.6,0,1.1-0.1,1.6-0.3C344.2,368.1,343.7,368.2,342.8,368.5z"/>
		<path fill="#FFC235" d="M342.1,364.7c-0.1,0-0.2,0-0.3,0C341.9,364.7,342,364.7,342.1,364.7z"/>
		<path fill="#FFC235" d="M338,357.5c0.6-0.1,0.7,0.2,1.1,0.2C338.7,357.7,339.2,357.2,338,357.5z"/>
		<polygon fill="#FFC235" points="350.5,378.2 349.6,378.3 350.3,378.3 		"/>
		<path fill="#FFC235" d="M349.3,376.7c0.2-0.2-0.5-0.3-0.9,0C348.8,376.6,349.1,376.6,349.3,376.7z"/>
		<polygon fill="#FFC235" points="347.6,369.7 346.6,369.9 347.4,369.8 		"/>
	</g>
	<g>
		<polygon fill="#FFC235" points="392.1,372 392.9,371.6 391.7,371.9 		"/>
		<path fill="#FFC235" d="M392,369.9c-1,0.3-1.8,0.3-3.5,1.2l1.7-0.5c-1.3,0.7-1.1,0.8-0.6,0.8l-0.2-0.1c0.2,0,1-0.5,1.2-0.5
			c-0.5,0.6,1.3-0.2,0,0.8l-0.1,0.1l1-0.2c-0.2,0.2-0.8,0.5-1.1,0.6c0.8-0.2,1.6-0.4,1.7-0.1c2.3-1.4-2.2,0.4,0.1-1l0.1-0.1
			C391.4,370.8,392.8,369.8,392,369.9z"/>
		<path fill="#FFC235" d="M390.5,371.8L390.5,371.8C390.4,371.8,390.4,371.8,390.5,371.8z"/>
		<path fill="#FFC235" d="M388.9,360.1l-0.4,0.2C388.6,360.2,388.8,360.2,388.9,360.1z"/>
		<path fill="#FFC235" d="M385.4,365.4C385.5,365.4,385.5,365.4,385.4,365.4C384.9,365.6,385.1,365.6,385.4,365.4z"/>
		<path fill="#FFC235" d="M381.1,343.3l0.6-0.3C381.2,343.2,381,343.3,381.1,343.3z"/>
		<path fill="#FFC235" d="M380.1,338.8L380.1,338.8L380.1,338.8z"/>
		<path fill="#FFC235" d="M372.7,343.4l-0.5,0.2C372.5,343.4,372.7,343.4,372.7,343.4z"/>
		<path fill="#FFC235" d="M371.2,342.2c0.1-0.1,0.2-0.2,0.2-0.2C371.1,342.2,371,342.2,371.2,342.2z"/>
		<path fill="#FFC235" d="M380.3,338.8c-0.1,0-0.2,0-0.2,0C380.1,338.8,380.2,338.8,380.3,338.8z"/>
		<path fill="#FFC235" d="M372.5,345.8l-1.3,0.5C371.6,346.2,372.1,346,372.5,345.8z"/>
		<path fill="#FFC235" d="M370,342.2c0.3-0.1,0.4-0.2,0.5-0.2C370.2,342.1,370,342.2,370,342.2z"/>
		<path fill="#FFC235" d="M391.8,369.6c0,0,0.1,0.1,0.3,0C392.1,369.6,392,369.6,391.8,369.6z"/>
		<path fill="#FFC235" d="M374.5,354.4c-0.1,0-0.3,0.1-0.5,0.2C374.1,354.6,374.3,354.5,374.5,354.4z"/>
		<path fill="#FFC235" d="M372.8,349.6L372.8,349.6c-0.1,0-0.2,0.1-0.3,0.1L372.8,349.6z"/>
		<path fill="#FFC235" d="M373.5,350.9c-0.1,0-0.2,0.1-0.3,0.1C373.4,350.9,373.5,350.9,373.5,350.9z"/>
		<path fill="#FFC235" d="M371,349c-0.1,0-0.3,0.1-0.5,0.1L371,349z"/>
		<path fill="#FFC235" d="M372,347.5c-0.5,0.2-0.9,0.3-1.4,0.4c-0.6,0.5,1.2,0,0.1,0.6l0.6-0.4c1.1-0.2,1.4,0.1,0.1,0.7L371,349
			c1.1-0.2-0.8,0.7,0.2,0.5c0.6-0.3,0.9-0.3,1.4-0.6l1.3,0l-1.8,0.7l0.7,0c0.7-0.3-0.5,0.5,1.3-0.1c-0.6,0.4-1.4,0.4-2.1,0.6
			c0.6-0.1-0.2,0.2,0.9,0l-1.5,0.7l1.3-0.1c-0.2,0-0.3,0.1-0.4,0.1c1.4-0.3-0.6,0.7,1.7,0c-0.1,0-0.2,0.1-0.3,0.1
			c1.3-0.3,0.5,0.2,0.2,0.4c0.4,0,1.6-0.5,2.2-0.7c-0.2,0.6-0.2,0.4,1.9,0.1c-1.9,1-3.3,0.9-4.6,1.7c1-0.3,1.8-0.4,2.3-0.3
			c-0.6,0.5-1,1-2.3,1.7l1.3-0.5l0.8,0l-2,0.5c0.5-0.1,1.4-0.3,2-0.4c1.3-0.1-2.8,1.2-0.7,0.7c-0.1,0.1-0.3,0.1-0.4,0.2
			c1-0.3,0.8,0,1.2,0.1l-1.7,0.6l0.3-0.3c-1.6,0.7,0.4,0.1,0.3,0.3c0.6-0.1,2-0.7,2.5-0.8c0,0.1,0.5,0,0,0.2c-0.5,0.3-1.9,0.8-2.7,1
			c1.8-0.5,1.6-0.4,2.4-0.4c-0.8,0.3-1.2,0.4-1.3,0.5c0.2,0,0.6-0.1,1.3-0.4l-0.9,0.5c-1.2,0.8,3.2-0.9,2.8-0.3
			c-0.9,0.3,0.3,0.2-0.7,0.7c-0.3,0-2.4,1-3.4,1.3c-0.5,0.5,2-0.7,2.5-0.6l-2.1,0.7c1-0.1,1.1-0.4,1.9-0.4c-0.6,0.2-0.5,0.3-1.2,0.4
			c-0.1,0.4,0.1,0.2-0.1,0.6l2-0.8c0.3,0-0.6,0.4-1,0.5c-0.1,0,0-0.1-0.3,0c-1.7,0.8,1-0.2-0.5,0.5c0.6-0.3,1.5-0.7,1.6-0.6
			c-1.2,0.5-1.1,0.6-1.6,0.8c0.8-0.4,0.5,0.1,1.8-0.4c-0.9,0.5-1,0.3-1.6,0.6c1.6-0.5,0.4,0.3,1.3,0.1c-0.1,0.1-0.2,0.1-0.3,0.1
			c1-0.3,1.3-0.1,2.8-0.4l-1.2,0.4c-0.4,0.5,2.5-0.8,2.5-0.6c-1.6,0.6,0.3,0.3-1.5,0.9c1-0.3,1.5-0.3,2.9-0.8
			c-0.8,0.5-2.3,0.7-2.7,1l0.9-0.2l-0.9,0.4c0.7-0.3,0.8-0.1,1.3-0.3c-1,0.5-1.7,0.8-2.5,1.2c0.4,0-0.6,0.6,0.4,0.3l-0.5,0.2
			c2-0.7,0.6,0.2,2.6-0.6l-1,0.5c0.3,0.1,2.3-0.8,2.8-0.9c0.1,0,0.4,0,0.2,0.2c-1.4,0.3-1.5,0.8-2.2,1.1c0,0.1,0.3,0.3,1.3-0.1
			c-1.1,0.3-1.9,0.8-2.1,0.6c-1.9,0.9,0.6,0.1,0.4,0.4l-0.9,0.4c0.8,0.1,2.3-0.6,4-1.2c-1.1,0.5-1.4,0.6-2.6,1
			c-0.6,0.5,0.3,0.5,0.3,0.8c-0.8,0.4-1.2,0.6-1.6,0.6c1-0.1,0.1,0.6,2.1-0.1c-0.8,0.3-0.5,0.3-0.8,0.6c0.4-0.2,0.9-0.4,0.9-0.4
			c0.9-0.2,1.8-0.2,1.2,0.3l-0.6,0.2c-0.1,0.5,3.3-0.8,2.1,0.3c-0.4,0.3-1.7,0.7-1.5,0.8c0.8-0.3,2.3-1,1.9-0.6l-1.3,0.6l1.4-0.5
			c1-0.6,0.5-0.6,1.8-1c-1.1,0.7,1.3-0.4,0,0.5c-0.2,0-1.2,0.4-1.7,0.6c-1.3,1.2,1.6,0.1,0.2,1.3c1.1-0.2,1.5,0,2.5-0.3
			c-1.3,0.6-2.4,1.1-3.5,1.5c-0.1,0.3,2.9-1,1.1,0c1.8-0.7,1.4,0,3.9-1.1c-0.5,0.2,0.1,0.2-1.4,0.7c0.9-0.1-2,1.4-1.9,1.5
			c0.1,0,1.5-0.8,1.6-0.7c-0.1,0.1-0.3,0.2-0.4,0.3l0.6-0.2c-0.5,0.3-1.2,0.5-1.9,0.8c-0.4,0.5,1.6-0.3,1.9-0.1l-0.5,0.2l0.1,0.3
			l-0.1,0.1l1-0.2l-0.6,0.3c0.2,0,0.6-0.2,0.7-0.2l-0.8,0.4c1.2-0.5,2-0.6,2.1-0.5l-0.3,0.2l1.7-0.5c-0.8,0.6-2,0.7-1.2,0.7
			l-1.6,0.7c0.7-0.1-0.1,0.4,0.5,0.2c0.8-0.5,0.6-0.5,1.4-0.8c-1.7,1.1,0.6,0,1.4-0.2c-0.1-0.1-0.1-0.1-1,0.3c0-0.1,0.8-0.4,0.9-0.5
			l-1,0.3l1.1-0.6l-1,0.2c1.3-0.6,0.1-0.3,1.5-0.8c-0.6,0.1,0.3-0.4-1.1,0.1c0.7-0.5,1-0.3,1.1-0.5c-1.3-0.1-1.5-0.8-1.3-1.6
			l0.6-0.2c-0.6,0.2-1.1,0.4-1.6,0.5c1-0.6,2.1-1.6,0.1-0.8c0.1-0.1,0.4-0.2,0.6-0.2c-0.3-0.1,0.8-1.1,0.5-1.3
			c-2.1,0.8,1.1-1-1.8,0.2l0.6-0.2c-0.7,0.5-2,0.8-2.7,1c1.8-0.9,1.4-0.6,3-1.5l-0.6,0.4l1.5-0.7c-4.1,1.4,1.4-1.5-1.5-0.4
			c0.2-0.1,0.4-0.2,0.5-0.2c0.8-0.5-1.2,0.2-1.8,0.3c0.7-0.4,1.3-0.5,1.9-0.7c0.5-0.5-1.8-0.1-0.8-0.9c-1.1,0.4-1.3,0.6-2.2,0.9
			c0.2-0.2,1-0.6,1.6-0.8c1.8-1.1-1.6-0.3-0.1-1.4c-1.2,0.3-1.7,0.6-2.6,0.6c0.8-0.2,2.5-1.2,2.6-1l0.8-0.3c0-0.4,0.1-0.9-2.2-0.1
			c1.7-0.7,0.3-0.2,1.1-0.7c-0.2,0-0.3,0.1-0.4,0.2c-1.5,0.5,0-0.2-0.3-0.2l0.3-0.1l-1.1,0.2c0.2-0.1,0.5-0.3,1-0.5L387,359
			c-0.1-0.1,1.5-0.7,1.1-0.7l-0.9,0.4c0.5-0.3-0.8,0,0.5-0.5c0.2-0.1,0.2,0,0.2,0c1.7-0.9-0.8-0.1,0-0.7l-1.9,0.8
			c-0.7,0.1,0.3-0.3,1-0.5c-0.1-0.1,0.5-0.4,0.7-0.6c-0.5,0.1-0.7,0.2-1.3,0.5l0.4-0.4l1.1-0.3c-2.9,0.9,0-0.8-2.6,0.1
			c0.5-0.3,1.2-0.4,1.5-0.6c1.1-0.8-2.1,0.1-0.8-0.7c1.2-1-0.4-0.9,0.4-1.7l-0.5,0.2l0.3-0.5c-1.2,0.4-0.7-0.1-2.1,0.3
			c0.4-0.1,1-0.4,1.3-0.5c-0.2-0.1-0.8,0-0.2-0.4l0.5-0.1c0.2-0.4,0-0.9-1-0.6c-0.2-0.1,0.8-0.4,1.4-0.7c0-0.2-0.6-0.1-1.5,0.1
			c0.2-0.1,0.4-0.2,0.9-0.5l-1.3,0.4c0.1-0.1,1-0.4,1.3-0.6c-1.6,0.3-0.4-0.5-0.6-0.7l-0.6,0.3c-0.5,0.1,0.3-0.4,1-0.5
			c0.6-0.7-2.2,0.2-2.1-0.5c2.3-0.9-0.9-0.2,1.7-1.2c-0.7,0,0.2-0.5-1.3-0.1c0.3-0.1,0.4-0.2,0.4-0.1c0.9-0.4,0.1-0.5-0.7-0.4
			l0.8-0.3c-1.7,0.5-1.4,0-3.1,0.5c0.4-0.2,0.7-0.2,1-0.3c1.5-0.7-0.8,0.1-0.5-0.2c0.4-0.1,0.9-0.3,1.2-0.4c1.6-1.1-1.7-0.8-0.7-1.8
			c0-0.2-1.8,0.7-1.7,0.4c0.8-0.4,1.8-0.5,2.1-0.8c-1.1,0.3-0.9,0.1-0.8,0c0.6-0.2,0.9-0.3,1.4-0.3c0.7-0.3-1.5,0.1-0.1-0.5
			c-0.5,0.2-0.8,0.3-1.1,0.3c-1.6,0.3,1.3-1.1,0.4-0.8c0,0-0.3,0-0.4,0.1c0-0.1,0.2-0.3,1-0.6c-0.5,0.1-1.2,0.3-1.3,0.3l1-0.3
			c-0.2,0-0.9,0.2-1,0.2l-0.6,0.3c0.8-0.4-1.3,0.1,0.6-0.5l0.1,0l0.8-0.5c-0.8,0.2-1.6,0.3-1.4,0.1c1.9-0.7,0.3-0.5,0.5-0.7l0.7-0.2
			c-1,0.2-0.7-0.3-1-0.1c-0.1-0.1,0.4-0.4,1-0.6c-0.4,0-0.5-0.2-1.6,0.1l1.6-0.7c-2.5,0.7,0.7-0.7-1.8,0.1c0.4-0.2,0.9-0.4,1.4-0.6
			c-1.3,0.2-1.2,0-1-0.2l0.3-0.1c0.2-0.2-1.2,0-1.4-0.2l1.9-0.7c-0.3,0-1.8,0.4-1.5,0.2c0.3-0.1,0.4-0.1,0.5-0.1
			c-0.4,0,0-0.3,0.5-0.5c-1.5,0.3-1,0-2.6,0.3c1.7-0.7,0.8,0,2.4-0.6c0.8-0.5-0.2-0.5-1.2-0.5c0.4-0.1,0.7-0.2,1.1-0.3
			c0,0-4.9,0.9-6.8,1.5c-1.3,0.3-2.1,0.5-3.1,1c0.8-0.1,1.8-0.2,0.4,0.3l1.4-0.4c0.7,0.1-2.8,0.9-2.6,1.3l0.4-0.2
			c0.1,0,1-0.2,0.6,0.1c-0.4,0.1-0.6,0.1-0.9,0.2l2-0.2c-0.8,0.3-1.2,0.4-1.8,0.5c0.2,0.3,2.5-0.8,2.1-0.3c-0.6,0.2-0.8,0.2-1.3,0.3
			c-1.1,0.5,0,0.3,0.8,0.3c-1.2,0.4-1.1,0.2-1.8,0.6c0.6-0.2,1.7-0.6,1.8-0.5c-1.2,0.3-0.6,0.3-0.9,0.5c0.4-0.2,1-0.3,1.2-0.3
			c0.2,0-0.3,0.2-0.2,0.2l1.2-0.5c1.2-0.2-0.5,0.5-1,0.8c-0.2,0.1-0.4,0.1-0.5,0.1c-0.4,0.3-1.4,0.8-0.3,0.6l-0.2,0
			c1.3,0,2-0.7,3.3-0.7c-0.2,0.2-4,1.2-2.5,1.1c1-0.5,2.6-0.6,3.1-0.6l-2.4,0.6c0,0.1,0.7,0,0.5,0.1l0.5-0.2c2-0.7-0.2,0.3,1.1,0.1
			c-2.8,0.7-2.3,0.5-5,1.4c1.5-0.3,2.9-0.6,2.7-0.3l-2.2,0.5c-0.4,0.5,2.9-0.2,4.7-0.5c-1.6,0.4-2.1,0.7-3.5,1l0.4,0.2l-1.7,0.5
			c1.8-0.4,0.6,0.1,2.9-0.7c-0.3,0.1-0.6,0.2-0.5,0.1c0.7-0.2,2.1-0.6,2-0.4c-0.5,0.3-0.9,0.2-1.5,0.5c0.9-0.2-0.5,0.3,0.2,0.2
			l0.9-0.4c1.3-0.4,0.1,0.1,0.8,0c-0.6,0.1-1.3,0.4-2.1,0.7l0.2-0.1c0.1,0,1-0.2,0.3,0.1l-1.8,0.5l1.4-0.3c-0.2,0.1-0.8,0.4-1.2,0.4
			c-1,0.7,3.9-1.3,2.4-0.3c-0.7,0.2-1.2,0.3-0.8,0.1c-1.1,0.3-1.7,0.6-2.1,0.8c-0.1,0-0.1,0-0.2,0.1
			C370.7,347.4,370.7,347.8,372,347.5z"/>
		<path fill="#FFC235" d="M370.7,347.2c0-0.1-0.1-0.2-0.3-0.2C370,347.1,369.5,347.6,370.7,347.2z"/>
		<path fill="#FFC235" d="M380,364.2c-0.1,0-0.1,0-0.2,0C379.9,364.2,379.9,364.2,380,364.2z"/>
		<path fill="#FFC235" d="M381,364.9c0.2-0.1,0.3-0.2,0.4-0.2C381,364.8,380.7,364.9,381,364.9z"/>
		<path fill="#FFC235" d="M375.5,355.6C375.5,355.6,375.5,355.6,375.5,355.6C375.5,355.6,375.5,355.6,375.5,355.6z"/>
		<path fill="#FFC235" d="M377.3,361.2c0.6-0.2,1.1-0.3,1.5-0.5C378.7,360.7,378.3,360.8,377.3,361.2z"/>
		<path fill="#FFC235" d="M377.2,359.1c-0.1,0-0.2,0-0.3,0.1C377.1,359.2,377.1,359.2,377.2,359.1z"/>
		<path fill="#FFC235" d="M374.5,355.7c0.6-0.1,0.6,0,1,0C375.1,355.7,375.6,355.3,374.5,355.7z"/>
		<polygon fill="#FFC235" points="383.4,365.2 382.5,365.5 383.2,365.3 		"/>
		<path fill="#FFC235" d="M382.4,364.6c0.2-0.1-0.4,0-0.9,0.2C382,364.6,382.2,364.6,382.4,364.6z"/>
		<polygon fill="#FFC235" points="381.7,360.9 380.7,361.3 381.5,361 		"/>
	</g>
</g>
<g>
</g>
<g>
</g>
<g>
</g>
<g>
</g>
<g>
</g>
<g>
</g>
<g>
</g>
<g>
</g>
<g>
</g>
<g>
</g>
<g>
</g>
<g>
</g>
<g>
</g>
<g>
</g>
<g>
</g>
</svg>
