<?xml version="1.0" encoding="utf-8"?>
<!-- Generator: Adobe Illustrator 18.0.0, SVG Export Plug-In . SVG Version: 6.00 Build 0)  -->
<!DOCTYPE svg PUBLIC "-//W3C//DTD SVG 1.1//EN" "http://www.w3.org/Graphics/SVG/1.1/DTD/svg11.dtd">
<svg version="1.1" id="Layer_1" xmlns="http://www.w3.org/2000/svg" xmlns:xlink="http://www.w3.org/1999/xlink" x="0px" y="0px"
	 viewBox="0 0 871.8 402.1" enable-background="new 0 0 871.8 402.1" xml:space="preserve">
<g>
	<path opacity="0.88" fill="#FFFFFF" d="M828.5,402.1H43.3C19.4,402.1,0,382.7,0,358.8V43.3C0,19.4,19.4,0,43.3,0h785.1
		c23.9,0,43.3,19.4,43.3,43.3v315.4C871.8,382.7,852.4,402.1,828.5,402.1z"/>
	<g>
		<path fill="#58595B" d="M103.1,72.6l-1.4,1.3c-1.1-1.7-2.7-3.6-4.6-5.6l1.3-1.2C100.3,68.9,101.8,70.7,103.1,72.6z M103,77.5
			c-1.2,4.7-2.5,9.2-4,13.4l-1.7-0.7c1.6-4.4,2.9-8.8,4.1-13.3L103,77.5z M103.8,63.6l-1.3,1.3c-1.2-1.7-2.8-3.5-4.8-5.5l1.3-1.3
			C100.9,60,102.5,61.8,103.8,63.6z M108.8,61.6V58h1.8v3.7h4.6v1.7h-4.6v3.6h3.6v12.8h-3.6v4h4.5v1.7h-4.5v6h-1.8v-6h-4.9v-1.7h4.9
			v-4h-3.6V66.9h3.6v-3.6h-4.5v-1.7H108.8z M112.4,72.6v-4h-5.5v4H112.4z M112.4,74.1h-5.5v4h5.5V74.1z M123.7,57.7
			c1.4,3.1,3.7,5.8,7.1,8.1l-1,1.6c-3.1-2.1-5.4-4.8-7-7.9c-1.8,3.4-4.2,6.1-7,7.9l-1-1.6c3-2.1,5.4-4.8,7.1-8.1H123.7z M116.5,89.4
			l1.9,0.1c0.9,0,1.4-0.6,1.4-1.6v-5.5c-1.2,1.5-2.5,2.9-4,4.1l-0.7-1.6c1.8-1.4,3.4-3,4.7-4.9v-9.7H116v-1.7h5.6v19.9
			c0,1.7-0.9,2.6-2.7,2.6H117L116.5,89.4z M118.7,78.6l-1.3,0.6c-0.6-2.4-1.1-4.4-1.8-6.2l1.3-0.4C117.6,74.5,118.2,76.5,118.7,78.6
			z M123.9,89.4l2.1,0.1c0.8,0,1.2-0.5,1.2-1.5v-6.2c-1.3,1.6-2.8,3-4.5,4.2l-0.7-1.6c2-1.4,3.7-3,5.2-4.9v-9.2h-4.2v-1.7h5.9v19.9
			c0,1.7-0.9,2.6-2.6,2.6h-2L123.9,89.4z M126,78.4l-1.3,0.6c-0.5-2.4-1.1-4.5-1.8-6.4l1.3-0.4C124.9,74.2,125.5,76.2,126,78.4z"/>
		<path fill="#58595B" d="M170.1,59.3v1.9h-10.3v7.2h8.2v12.1h-8.3v7.6h10.9V90h-32.4v-1.9H149v-7.5h-8.2V68.3h8.2v-7.1h-10.3v-1.9
			H170.1z M157.8,78.6h8.3v-8.3h-8.2v-9.1H151v9h-8.2v8.3h8.2v9.5h6.8V78.6z"/>
		<path fill="#58595B" d="M179.5,90.9l-0.4-1.9c1,0.1,2,0.1,2.9,0.1c1.1,0,1.7-0.6,1.7-1.7v-9.8c-1.6,0.7-3.3,1.3-5,1.8l-0.5-2
			c1.8-0.5,3.7-1.1,5.5-1.9v-8.9h-4.7v-2h4.7v-6.9h2v6.9h4.5v2h-4.5v8.1c1.5-0.7,2.9-1.5,4.3-2.3v2c-1.4,0.8-2.8,1.6-4.3,2.3v11.3
			c0,2-1,3-3,3H179.5z M208.8,73.6v1.9c-1.2,3.6-3.2,6.7-6,9.3c2.5,1.8,5.7,3.5,9.5,4.9l-1.1,1.7c-3.9-1.6-7.2-3.4-9.8-5.4
			c-2.9,2.3-6.5,4.1-10.8,5.4l-1.1-1.7c4.1-1.3,7.5-3,10.3-5.1c-3-2.7-5-5.7-6-9h-2.4v-2H208.8z M206.3,59.2v8.2
			c0,0.9,0.5,1.4,1.6,1.4h3.3v1.9h-3.7c-2.1,0-3.1-1-3.1-3v-6.6h-7.8v2.5c0,3.4-1.7,6.1-5.1,7.9l-1.4-1.6c3-1.4,4.4-3.5,4.4-6.2
			v-4.6H206.3z M201.2,83.5c2.5-2.3,4.4-4.9,5.6-7.9h-11.1C196.7,78.6,198.5,81.2,201.2,83.5z"/>
		<path fill="#58595B" d="M230.3,66.6v1.7h-10.6v-1.7H230.3z M232.7,87.7c-2.8,1.6-6.8,2.8-11.9,3.7l-0.9-1.6
			c5.2-0.9,9.2-2.1,11.9-3.5L232.7,87.7z M229.4,59.9v1.8h-8.9v-1.8H229.4z M247.7,71.6v14.1h-23.4V71.6H247.7z M245.7,75.9v-2.7
			h-19.5v2.7H245.7z M245.7,79.9v-2.5h-19.5v2.5H245.7z M245.7,81.3h-19.5v2.7h19.5V81.3z M231.5,65.7l-1.1-1.5
			c2.7-1.8,4.6-4.1,5.6-6.8l1.9,0.2c-0.3,0.7-0.6,1.4-0.9,2.1h13.5v1.5c-1,1.9-2.1,3.5-3.3,4.9l-1.4-1.1c0.9-1,1.8-2.2,2.5-3.5
			h-12.4C234.7,63.2,233.3,64.5,231.5,65.7z M242.4,62.9c-0.1,0.6-0.4,1.2-0.6,1.7c2.7,2.9,6.2,4.7,10.5,5.2l-0.8,1.7
			c-4.2-0.7-7.7-2.5-10.5-5.5c-1.7,2.6-4.6,4.3-8.7,5.1l-1-1.5c5.2-1,8.4-3.4,9.3-7.2L242.4,62.9z M252,89.8l-0.6,1.6
			c-3.9-1.6-8.1-2.7-12.3-3.6l0.7-1.4C244.1,87.2,248.1,88.4,252,89.8z"/>
		<path fill="#58595B" d="M278.7,77.2v1.9h-18.7v-1.9H278.7z"/>
		<path fill="#58595B" d="M287.1,72.3l-1.1-1.8c7.1-2.5,12.2-5.7,15.3-9.6h-7.5v-1.9h10.4c2.9,4.5,8.1,8.2,15.4,10.9l-1.4,1.8
			c-6.7-2.7-11.7-6.2-15-10.7c-2.3,3.3-5.7,6.2-10.2,8.7h19.8v2h-8.8v7.2h10.9v2h-10.9v7.4h14.3v2h-30.4v-2h14.1v-7.4h-11v-2h11
			v-7.2h-9.1v-1.9C291,70.6,289.2,71.5,287.1,72.3z"/>
		<path fill="#58595B" d="M338.6,60.3v1.9H334v9.3h3.8v1.9H334v8.3c1.6-0.7,3.2-1.4,4.8-2.2v2c-3.6,1.9-7.5,3.4-11.7,4.7l-0.5-2
			c1.8-0.5,3.7-1,5.4-1.7v-9.1h-4.5v-1.9h4.5v-9.3h-4.9v-1.9H338.6z M346.1,80c-2.1,2.8-4.7,5.3-7.8,7.5l-0.8-1.9
			c3.2-2,5.9-4.4,8.2-7.3L346.1,80z M348,64.2v-6.5h1.9v6.5h9v1.9h-9v3.5c0.6,2.1,1.4,4.1,2.3,5.9c1.8-1.9,3.4-4.1,4.9-6.5l1.6,1.1
			c-1.8,2.8-3.7,5.1-5.6,7c2,3.6,4.4,6.8,7.4,9.4l-1.3,1.6c-4.1-3.8-7.1-8.4-9.2-13.9v13.9c0,1.8-0.9,2.7-2.6,2.7H343l-0.4-1.9
			c1.4,0.1,2.7,0.1,4,0.1c0.9,0,1.4-0.5,1.4-1.4V66.2h-8.6v-1.9H348z M345.2,75.8l-1.4,1c-1-1.9-2.4-4-4.1-6.3l1.6-1
			C342.9,72,344.2,74.1,345.2,75.8z M358.2,62.7l-1.3,1.3c-1.2-1.5-2.8-3-4.8-4.6l1.2-1.1C355.3,59.7,356.9,61.2,358.2,62.7z"/>
		<path fill="#58595B" d="M377.5,58.5c-0.8,2.4-1.7,4.8-2.8,6.9v25.9h-2V68.9c-1.4,2.1-3,4.2-4.7,6.1l-0.6-2
			c3.8-4.5,6.6-9.6,8.3-15.3L377.5,58.5z M387.2,88c-2.1,1.3-5.2,2.3-9.1,3.1l-0.9-1.5c4-0.7,6.9-1.7,9-3L387.2,88z M401,59.2v1.7
			h-7.5v2.8h5.9v6.8h-20.1v-6.8h6.1v-2.8h-6.6v-1.7H401z M398.5,72.7v13.7h-18V72.7H398.5z M385.7,65.3h-4.6V69h4.6V65.3z
			 M396.6,76.8v-2.7h-14.3v2.7H396.6z M396.6,80.7v-2.5h-14.3v2.5H396.6z M396.6,82.1h-14.3v2.7h14.3V82.1z M391.7,60.9h-4.4v2.8
			h4.4V60.9z M391.7,65.3h-4.4V69h4.4V65.3z M401.3,89.7l-0.6,1.6c-2.8-1.4-5.8-2.5-8.9-3.2l0.7-1.3
			C395.5,87.4,398.5,88.4,401.3,89.7z M397.7,65.3h-4.4V69h4.4V65.3z"/>
		<path fill="#58595B" d="M409.1,75.1l-0.6-2.1c3.7-4.5,6.3-9.7,7.9-15.4l1.8,0.8c-0.7,2.4-1.6,4.6-2.6,6.7v26.3h-2V68.8
			C412.3,71.1,410.7,73.1,409.1,75.1z M428.4,61.3c0.2-1.2,0.4-2.4,0.6-3.7l2,0.3c-0.1,1.2-0.3,2.3-0.5,3.4h10.3v1.8h-10.7
			c-0.3,1.2-0.6,2.4-0.9,3.5h9v21.6h3.7v1.9h-24.3v-1.9h3.9V66.6h5.7c0.3-1.2,0.6-2.3,0.8-3.5h-8.9v-1.8H428.4z M436.3,72.3v-3.8
			h-12.8v3.8H436.3z M436.3,77.6V74h-12.8v3.6H436.3z M436.3,83v-3.6h-12.8V83H436.3z M436.3,88.2v-3.6h-12.8v3.6H436.3z"/>
		<path fill="#58595B" d="M462.2,88.2c0,1.9-0.9,2.9-2.7,2.9h-3.2l-0.5-1.8c1.1,0,2.1,0.1,3.1,0.1c0.9,0,1.4-0.6,1.4-1.9v-9.3
			c-2.1,0.5-4.3,0.9-6.7,1.2c-0.3,4.8-1.3,8.8-3.1,11.9L449,90c1.8-3.5,2.8-7.9,2.8-13.2V59.2h10.3V88.2z M460.3,76.4v-5.5
			c-2.1-0.6-4.3-1-6.6-1.4v7.1c0,0.3,0,0.6,0,0.9C456.1,77.3,458.3,76.9,460.3,76.4z M460.3,69.2V61h-6.6v6.8
			C456,68.1,458.1,68.6,460.3,69.2z M479.9,73.5v1.9c-1.1,3.7-2.8,6.8-5.2,9.3c2.3,1.8,5,3.4,8.3,4.8l-1.1,1.7
			c-3.4-1.6-6.3-3.3-8.6-5.2c-2.4,2.1-5.4,3.8-8.9,5.1l-1.1-1.7c3.4-1.3,6.2-2.8,8.5-4.8c-2.7-2.7-4.5-5.7-5.5-9.1h-1.9v-2H479.9z
			 M477.9,59.2v8.3c0,0.7,0.4,1.1,1.2,1.1h3.1v1.9h-3.5c-1.8,0-2.7-0.9-2.7-2.6v-6.8h-7v2.6c0,3.4-1.2,6.1-3.7,8l-1.4-1.5
			c2-1.5,3-3.5,3-6.2v-4.8H477.9z M473.1,83.4c2.2-2.3,3.8-4.9,4.8-7.9h-9.7C469.1,78.5,470.7,81.1,473.1,83.4z"/>
		<path fill="#58595B" d="M523,59.2V61h-11.2v3.4h8.3v7.9h-26.9v-7.9h8.3V61h-11.2v-1.8H523z M522.4,80.4v1.7H508v9h-1.9v-9h-15.2
			v-1.7H522.4z M501.8,85.2c-2.5,2.1-5.6,4-9.3,5.7l-1.2-1.6c3.6-1.6,6.7-3.3,9.2-5.3L501.8,85.2z M519,75.4v1.8h-24.3v-1.8H519z
			 M501.5,66.1h-6.4v4.4h6.4V66.1z M509.9,61h-6.4v3.4h6.4V61z M509.9,66.1h-6.4v4.4h6.4V66.1z M518.2,66.1h-6.4v4.4h6.4V66.1z
			 M522.8,89.5l-1.4,1.4c-2.1-1.8-5.1-3.7-8.7-5.7l1.3-1.3C517.5,85.8,520.4,87.6,522.8,89.5z"/>
		<path fill="#58595B" d="M538.7,60.5v-3h2v3h13.3v-3h2v3h6.8v1.7h-6.8v12.8h7.4v1.8h-8.2c1.8,2.5,4.8,4.5,8.7,5.9l-0.8,1.7
			c-4.7-2-7.9-4.5-9.8-7.6h-11.8c-1.9,3.1-5,5.7-9.5,7.8l-1-1.7c3.9-1.6,6.8-3.7,8.5-6.1h-8.2v-1.8h7.4V62.3H532v-1.7H538.7z
			 M548.4,78.4v3.2h7.7v1.8h-7.7v4.7h12.9V90h-28v-1.9h13.1v-4.7h-7.8v-1.8h7.8v-3.2H548.4z M554.1,65.5v-3.2h-13.3v3.2H554.1z
			 M554.1,70.2v-3.1h-13.3v3.1H554.1z M554.1,75.1v-3.2h-13.3v3.2H554.1z"/>
		<path fill="#58595B" d="M589,58c3.6,4.5,8.9,8.2,15.8,11.2l-1.1,1.7c-6.4-2.7-11.6-6.4-15.5-10.9c-4.3,4.6-9.5,8.2-15.6,11
			l-1.1-1.6c6.4-2.9,11.7-6.7,15.8-11.3H589z M597.8,68.1v1.8h-8.6v6h13.4v1.9h-13.4v10.5h4.6c1.4-2.5,2.6-5.2,3.6-8.1l1.8,0.7
			c-1,2.8-2.1,5.3-3.4,7.4h8.1v1.9h-31.4v-1.9h8c-0.8-2.5-1.9-4.9-3.3-7.2l1.8-0.7c1.3,2.1,2.4,4.8,3.4,7.8h4.8V77.8h-13.4v-1.9
			h13.4v-6h-8.6v-1.8H597.8z"/>
		<path fill="#58595B" d="M623.7,61.3l10.6,26.4h-2.5l-3.1-7.9H616l-3.1,7.9h-2.5L621,61.3H623.7z M628,77.9l-5.5-14.1h-0.1
			l-5.6,14.1H628z"/>
		<path fill="#58595B" d="M654.4,70.3c1.1,1.2,1.7,2.9,1.7,5.1v12.3H654V84c-0.8,1.1-1.8,2.1-3.1,2.8c-1.6,0.9-3.2,1.4-5,1.4
			c-1.8,0-3.4-0.5-4.5-1.4c-1.2-1-1.8-2.3-1.8-3.8c0-2.2,0.9-3.8,2.7-4.9c1.6-1,3.8-1.5,6.7-1.5l4.9-0.1v-1.1c0-3.6-1.8-5.4-5.5-5.4
			c-1.6,0-2.8,0.3-3.8,1c-1.1,0.7-1.8,1.7-2.1,3l-2.2-0.1c0.4-1.9,1.3-3.4,2.9-4.4c1.4-0.9,3.1-1.4,5.3-1.4
			C651.1,68.1,653.1,68.8,654.4,70.3z M649.2,78.3c-4.8,0-7.2,1.6-7.2,4.6c0,1,0.4,1.8,1.2,2.5c0.8,0.6,1.9,1,3.3,1
			c1.9,0,3.7-0.7,5.2-2c1.5-1.3,2.3-2.7,2.3-4.1v-2L649.2,78.3z"/>
		<path fill="#58595B" d="M681.2,60.8v26.9h-2.1v-3.8c-1.3,2.8-3.5,4.3-6.7,4.3c-2.8,0-4.9-1-6.5-3c-1.4-1.8-2.1-4.2-2.1-7.1
			c0-2.8,0.7-5.1,2.1-7c1.6-2.1,3.7-3.1,6.4-3.1c3,0,5.3,1.5,6.7,4.5V60.8H681.2z M667.7,72.4c-1.1,1.4-1.6,3.3-1.6,5.7
			c0,2.4,0.5,4.3,1.6,5.8c1.1,1.6,2.8,2.4,5,2.4c2.1,0,3.7-0.8,4.8-2.4c1-1.4,1.6-3.3,1.6-5.5V78c0-2.4-0.6-4.2-1.7-5.7
			c-1.2-1.6-2.7-2.3-4.7-2.3C670.6,70,668.9,70.8,667.7,72.4z"/>
		<path fill="#58595B" d="M703.5,72c0.7-1.3,1.5-2.3,2.5-2.9c1-0.7,2.1-1,3.5-1c2,0,3.6,0.6,4.8,1.9c1.1,1.3,1.7,3,1.7,5.2v12.5
			h-2.2V75.5c0-1.8-0.4-3.2-1.1-4.1c-0.8-1-2.1-1.4-3.8-1.4c-1.4,0-2.5,0.5-3.5,1.6c-1,1-1.4,2.3-1.4,4v12.2h-2.3V75.5
			c0-3.7-1.6-5.5-4.8-5.5c-1.4,0-2.6,0.6-3.6,1.7c-1,1.1-1.5,2.5-1.5,4.2v11.7h-2.2V68.6h2.2v2.9c1.4-2.3,3.2-3.4,5.5-3.4
			C700.5,68.1,702.5,69.4,703.5,72z"/>
		<path fill="#58595B" d="M738.1,69.7c1.4,1.1,2.3,2.8,2.6,5.1h-2.2c-0.3-1.6-0.9-2.8-1.9-3.6c-1-0.8-2.4-1.2-4.1-1.2
			c-2,0-3.6,0.8-4.8,2.3c-1.2,1.5-1.7,3.5-1.7,5.9c0,2.4,0.6,4.4,1.7,5.8c1.1,1.4,2.7,2.2,4.8,2.2c3.5,0,5.6-1.8,6.1-5.4h2.2
			c-0.4,2.4-1.3,4.2-2.7,5.5c-1.4,1.2-3.3,1.8-5.6,1.8c-2.8,0-5-1-6.6-2.9c-1.5-1.8-2.2-4.1-2.2-7.1c0-2.9,0.7-5.3,2.3-7.2
			c1.6-2,3.8-3,6.5-3C734.8,68.1,736.7,68.6,738.1,69.7z"/>
		<path fill="#58595B" d="M756.2,61.3v26.4h-2.3V64.1c-1.7,1.8-3.8,3.1-6.3,3.9v-2.3c1.2-0.4,2.4-0.9,3.6-1.7
			c1.2-0.8,2.3-1.7,3.1-2.7H756.2z"/>
		<path fill="#58595B" d="M774.1,57.1c-1.5,2.4-2.7,4.9-3.5,7.7c-1.1,3.3-1.6,6.4-1.6,9.6c0,3.1,0.5,6.3,1.6,9.6
			c0.8,2.7,2,5.2,3.5,7.7h-2c-1.6-2.4-2.8-4.9-3.7-7.6c-1.1-3.3-1.6-6.5-1.6-9.6c0-3.2,0.5-6.4,1.6-9.6c0.9-2.7,2.1-5.3,3.7-7.6
			H774.1z"/>
		<path fill="#58595B" d="M104.8,127.9l-1.4,1.4c-1.5-1.7-3.6-3.5-6.2-5.4l1.4-1.4C101.1,124.4,103.2,126.1,104.8,127.9z M105,133
			c-1.6,4.7-3.4,9.1-5.4,13.2l-1.9-0.8c2.1-4.3,4-8.6,5.5-13.1L105,133z M105.8,119l-1.4,1.4c-1.6-1.7-3.6-3.5-6.2-5.3l1.4-1.4
			C102.1,115.5,104.2,117.2,105.8,119z M116.7,136.6c0.3-0.9,0.5-1.8,0.7-2.8h1.9c-0.1,1-0.3,2-0.6,2.8h11.7v1.8h-12.3
			c-0.7,1.5-1.6,2.8-2.6,3.8c-2,1.9-5.3,3.4-9.8,4.5l-0.7-1.8c4.2-0.9,7.2-2.2,9.1-3.9c0.8-0.8,1.5-1.7,2-2.6h-10.2v-1.8H116.7z
			 M118.9,112.9c-0.3,1.1-0.7,2.1-1.3,3.1h11.2v16.1c0,1.4-0.7,2.1-2.1,2.1h-2.2l-0.4-1.6l2.1,0.1c0.5,0,0.8-0.3,0.8-1v-14h-17.4
			v16.6h-1.9V116h8.1c0.6-1.1,1-2.2,1.3-3.3L118.9,112.9z M124.6,120.5c-1.6,0.5-3.4,0.8-5.4,1.1v4.2h1.6c0.8-1.2,1.4-2.4,1.9-3.5
			l1.4,0.6c-0.5,1.1-1.1,2.1-1.7,3h2.6v1.6h-5.8v0.5c1.7,0.9,3.5,1.9,5.3,3.1l-1,1.4c-1.7-1.3-3.1-2.4-4.4-3.2v3.8h-1.7v-4.2
			c-1.6,1.7-3.4,3.2-5.5,4.4l-0.8-1.5c2.3-1,4.3-2.4,6.2-4.2h-5.9v-1.6h2.6c-0.4-0.9-0.9-1.7-1.4-2.4l1.3-0.5
			c0.6,0.9,1.1,1.8,1.6,2.9h2v-4.1c-1.7,0.1-3.5,0.2-5.4,0.2l-0.5-1.5c5,0,9.1-0.5,12.3-1.4L124.6,120.5z M130.6,145.1l-1.1,1.6
			c-3.5-2.3-7.1-4-10.8-5.3l1-1.4C123.6,141.4,127.3,143.1,130.6,145.1z"/>
		<path fill="#58595B" d="M149.7,131.3l-0.4-1.6l1.8,0.1c0.7,0,1.1-0.4,1.1-1.2V120H147v11h-1.6v-11h-5.3v11.3h-1.7v-13h7v-5.3h1.7
			v5.3h6.8V129c0,1.6-0.8,2.4-2.3,2.4H149.7z M143.1,117.2l-1.5,0.7c-0.8-1.5-1.6-2.8-2.5-3.9l1.5-0.7
			C141.6,114.5,142.4,115.8,143.1,117.2z M160.3,144.5l-0.5-1.9l3.3,0.1c0.9,0,1.4-0.4,1.4-1.3v-5.1h-10.1v10.4h-2v-10.4h-10.1v7.8
			h-2v-9.6h12.1v-3h2v3h12.1v7.3c0,1.8-0.9,2.7-2.7,2.7H160.3z M143.9,122.2c-0.1,2.4-0.6,4.5-1.2,6.4l-1.4-0.5
			c0.7-1.8,1.1-3.8,1.2-6.1L143.9,122.2z M151,126.9l-1.4,0.4c-0.4-1.8-0.8-3.5-1.4-5.1l1.3-0.4C150,123.3,150.6,125,151,126.9z
			 M153.3,114c-0.6,1.3-1.4,2.7-2.4,4l-1.5-0.8c1-1.3,1.7-2.6,2.3-3.9L153.3,114z M155.7,123.8l-1.1-1.4c2.4-2.5,4-5.7,4.9-9.3
			l1.8,0.2c-0.3,1.3-0.7,2.5-1.1,3.6h9v1.8h-1.8c-0.8,3.1-2.1,5.7-3.7,7.7c1.8,1.5,4,2.8,6.4,4l-0.9,1.7c-2.6-1.3-4.8-2.7-6.6-4.3
			c-1.8,1.7-3.9,3-6.4,3.8l-0.9-1.6c2.4-0.8,4.4-2,5.9-3.5c-1.2-1.2-2.2-2.4-3.1-3.7l0.9-1.4c1,1.3,2.1,2.5,3.3,3.7
			c1.5-1.8,2.5-4,3.2-6.5h-6.2C158.4,120.6,157.2,122.3,155.7,123.8z"/>
		<path fill="#58595B" d="M184.4,122.5v1.6c-1.2,2.3-2.5,4.4-4.1,6.5h4.4v1.4c-0.6,3.3-1.4,5.9-2.3,8.1c0.4,0.1,0.7,0.4,1.1,0.8
			c1.2,1.1,2.5,2,3.9,2.6c1.3,0.5,3.1,0.8,5.5,0.8c2.1,0,4.6,0,7.4,0c2.5,0,5.7-0.1,9.7-0.1l-0.4,1.9h-9c-3.1,0-5.7,0-7.8-0.1
			c-2.7-0.1-4.8-0.4-6.2-1c-1.6-0.7-3.1-1.6-4.4-3c-0.3-0.3-0.7-0.4-1-0.4c-0.9,0-2,1.6-3.3,4.9l-1.4-1.3c1.4-3.3,2.8-5.1,4.1-5.5
			c0.9-2.1,1.7-4.6,2.3-7.5H178v-1.6c1.7-2.1,3.1-4.3,4.3-6.4h-5.5v-1.8H184.4z M184.5,118.6l-1.3,1.3c-1.3-1.6-3.2-3.2-5.5-4.9
			l1.3-1.3C181.2,115.4,183,116.9,184.5,118.6z M186.5,140.2l-1.4-1.2c1.8-3.9,2.7-9,2.8-15.2v-8.8h8.8v10.2h-7.1
			C189.4,131,188.4,136,186.5,140.2z M189.6,116.9v6.6h5.3v-6.6H189.6z M197.3,128.8v11.8h-7v-11.8H197.3z M195.7,130.4h-3.8v8.6
			h3.8V130.4z M198.3,127.6v-1.8h6.5c0.9-1.9,1.6-3.9,2-6l1.6,0.2c-0.4,2.1-1.1,4.1-1.9,5.8h3.4v1.8H205v4.7h4.2v1.8H205v7.5h-1.9
			v-7.5h-4.3v-1.8h4.3v-4.7H198.3z M205.1,116.7h4.6v1.8h-11.3v-1.8h4.9c-0.4-1.3-0.8-2.4-1.3-3.4l1.8-0.3
			C204.3,114.1,204.7,115.4,205.1,116.7z M203.1,124.4l-1.5,0.6c-0.6-1.7-1.3-3.1-1.9-4.4l1.5-0.6
			C201.9,121.4,202.5,122.8,203.1,124.4z"/>
		<path fill="#58595B" d="M227.7,114.7v1.6c-1,3.5-2.2,7.1-3.6,10.8c2.1,3,3.3,5.9,3.4,8.5c0,1.5-0.4,2.6-1.1,3.3
			c-0.9,0.8-2.5,1.3-4.8,1.3l-0.6-2c0.4,0,0.8,0.1,1.1,0.1c1.4-0.1,2.3-0.3,2.8-0.7c0.4-0.4,0.7-1,0.7-2c0-2.5-1.1-5.2-3.4-8.2
			c1.6-4,2.7-7.6,3.6-10.7h-6.1v30.1h-2v-32H227.7z M228,146.5l-1.4-1.2c3.1-2.3,5.4-5.4,7-9.4l1.7,0.7c-0.4,1-0.9,2-1.4,2.9
			c1.5,1,2.8,2,3.9,3.1l-1.3,1.3c-0.9-1-2.1-2-3.4-3C231.6,143.2,229.9,145,228,146.5z M228.2,123.3l-1-1.6
			c4.5-2.1,7.9-4.9,10.3-8.3h1.7c2,3.1,5.5,5.8,10.4,8.2l-1.1,1.6c-4.6-2.1-8-4.8-10.2-7.9c-1.8,2.3-3.8,4.2-6.1,5.8h12.1v1.8h-12.2
			v-1.7C230.9,121.9,229.5,122.6,228.2,123.3z M237.1,126v8.7h-7.9V126H237.1z M235.4,127.6h-4.5v5.4h4.5V127.6z M237.9,146.5
			l-1.4-1.2c3-2.3,5.3-5.4,6.9-9.2l1.7,0.7c-0.5,1.1-1,2.2-1.6,3.2c2.4,1.6,4.4,3.3,6,4.9l-1.3,1.3c-1.4-1.6-3.3-3.1-5.5-4.8
			C241.3,143.4,239.7,145.2,237.9,146.5z M247.8,126v8.7h-7.9V126H247.8z M246.1,127.6h-4.5v5.4h4.5V127.6z"/>
		<path fill="#58595B" d="M256.1,116.2c4-0.4,7.5-1.3,10.6-2.5l0.6,1.7c-1.4,0.5-2.9,1-4.5,1.4v6.6h3.8v1.7h-3.8v2.1
			c1.5,1.7,3,3.6,4.5,5.7l-1.1,1.6c-1.3-2.4-2.5-4.2-3.4-5.6v17.5h-1.8v-17.4c-1.1,3.5-2.7,6.7-4.6,9.6l-0.8-2
			c2.5-3.4,4.3-7.3,5.4-11.6h-4.7v-1.7h4.7v-6.1c-1.4,0.3-2.9,0.5-4.5,0.7L256.1,116.2z M270.8,139.5c-0.7,2.6-1.7,4.9-2.9,6.8
			l-1.5-1c1.3-1.8,2.1-4,2.7-6.2L270.8,139.5z M272,120.5c-0.6-1.1-1.2-2.1-1.8-2.9l1.5-0.6c0.8,1.1,1.5,2.3,2.1,3.5h4.2
			c-0.6-1.1-1.2-2.2-1.8-3.1l1.6-0.6c0.7,1.2,1.4,2.4,2,3.7h2.8c0.7-1.2,1.4-2.7,2-4.4l1.7,0.4c-0.5,1.4-1.1,2.7-1.8,3.9h2.7v1.6h-8
			v2.6h9v1.6h-19.9v-1.6h8.9v-2.6h-7.9v-1.6H272z M269.6,137.6v-1.6h14.9v-2.3h-16.1v-1.5h16.1V130h-14.6v-1.5h16.5v3.7h2.9v1.7
			h-2.9v3.8H269.6z M287.8,114.8c-4.7,1-10.9,1.5-18.7,1.5l-0.6-1.7c7.5,0,13.6-0.5,18.3-1.4L287.8,114.8z M275.5,146.2
			c-1.8,0-2.7-0.8-2.7-2.3v-4.8h1.9v4.4c0,0.7,0.4,1.1,1.3,1.1h5.1c0.6,0,1-0.1,1.2-0.4c0.3-0.4,0.5-1.4,0.6-3l1.7,0.5
			c-0.1,2.1-0.5,3.4-1.1,3.9c-0.4,0.4-1.1,0.6-2.1,0.6H275.5z M280.9,141.6l-1.4,1c-0.7-1.2-1.6-2.5-2.8-4l1.3-0.8
			C279.3,139.3,280.2,140.5,280.9,141.6z M289.4,144.7l-1.4,1c-0.9-1.8-2.1-3.8-3.6-6l1.3-0.8C287.3,141.1,288.6,143.1,289.4,144.7z
			"/>
		<path fill="#58595B" d="M323,124.2v1.9h-9.6v7.2h11.3v1.9h-11.3v8.3c2.6,0.4,5.8,0.6,9.5,0.7c1.9,0,3.8-0.1,5.9-0.1l-0.4,2h-4.6
			c-7.2,0-12.4-0.7-15.6-2c-2.5-1.2-4.6-3.1-6.1-5.8c-1.4,3.4-3.3,6.2-5.4,8.5l-1.3-1.6c3.6-3.9,6.1-9.1,7.3-15.7l1.9,0.4
			c-0.5,2.3-1.1,4.5-1.7,6.4c1.8,3.4,4.1,5.6,6.8,6.5c0.5,0.1,1.1,0.3,1.7,0.4v-17h-9.9v-1.9H323z M327,124.5h-2v-5.6h-25.7v5.8h-2
			v-7.7h14.3c-0.6-1.5-1.3-2.8-1.9-3.9l2.1-0.4c0.6,1.3,1.3,2.7,1.8,4.3H327V124.5z"/>
		<path fill="#58595B" d="M340.3,146.7l-1.6-1.4c2.5-3.3,3.8-7.6,3.9-12.7v-17.9h20.5v28.8c0,1.9-0.9,2.8-2.8,2.8h-4.8l-0.5-1.9
			c1.7,0,3.3,0.1,4.7,0.1c1,0,1.4-0.6,1.4-1.7v-8h-16.6C344.1,139.6,342.7,143.6,340.3,146.7z M361.1,116.6h-16.5v7.1h16.5V116.6z
			 M344.6,132.9h16.5v-7.3h-16.5V132.9z"/>
		<path fill="#58595B" d="M391.6,114.7v1.8h-5v5h4.3v24.6h-1.8v-1.8h-11.2v2h-1.7v-24.9h4.1v-5h-5v-1.8H391.6z M389.2,142.6v-9.9
			H387c-1.4,0-2.1-0.7-2.1-2v-7.4h-2.7v2.9c0,3.9-0.9,6.7-2.7,8.6l-1.1-1c1.6-1.6,2.4-4.1,2.4-7.6v-2.9h-2.8v19.2H389.2z
			 M387.4,136.7v1.7h-7.8v-1.7H387.4z M384.9,121.6v-5H382v5H384.9z M389.2,123.3h-2.9v7c0,0.5,0.3,0.8,1,0.8h1.9V123.3z
			 M407.1,143.9c-0.6,1.1-1.6,1.7-3.2,1.7H397c-2.1,0-3.1-1.1-3.1-3.2v-15.3h10.3v-10.5h-11.1v-1.8h13V129h-10.3v12.8
			c0,1.3,0.6,1.9,1.8,2h5.8c1.1,0,1.8-0.6,2.2-1.6c0.3-1,0.6-3.1,0.7-6.2l1.8,0.6C408,140.4,407.6,142.8,407.1,143.9z"/>
		<path fill="#58595B" d="M417.4,112.5c1.5,2.4,2.7,4.9,3.7,7.6c1,3.2,1.6,6.4,1.6,9.6c0,3.2-0.6,6.4-1.6,9.6
			c-0.9,2.7-2.1,5.2-3.7,7.6h-2c1.5-2.4,2.6-5,3.5-7.7c1-3.3,1.6-6.5,1.6-9.6c0-3.1-0.6-6.3-1.6-9.6c-0.9-2.7-2-5.3-3.5-7.7H417.4z"
			/>
		<path fill="#58595B" d="M456.4,112.5c-1.5,2.4-2.7,4.9-3.5,7.7c-1.1,3.3-1.6,6.4-1.6,9.6c0,3.1,0.5,6.3,1.6,9.6
			c0.8,2.7,2,5.2,3.5,7.7h-2c-1.6-2.4-2.8-4.9-3.7-7.6c-1.1-3.3-1.6-6.5-1.6-9.6c0-3.2,0.5-6.4,1.6-9.6c0.9-2.7,2.1-5.3,3.7-7.6
			H456.4z"/>
		<path fill="#58595B" d="M479.2,120v-6.9h2v6.9h14.7v2h-12.6c2.5,6.1,7.1,11.6,13.7,16.4l-1.3,1.7c-6.7-5.4-11.4-11.4-14-18.1h-0.5
			v15h8.2v2h-8.2v7.8h-2v-7.8h-7.9v-2h7.9v-15h-0.5c-2.7,7.6-7.5,13.7-14.3,18.5l-1.1-1.8c6.5-4.3,11.2-9.9,13.9-16.7h-12.6v-2
			H479.2z"/>
		<path fill="#58595B" d="M511.2,115.9v-3h2v3h13.3v-3h2v3h6.8v1.7h-6.8v12.8h7.4v1.8h-8.2c1.8,2.5,4.8,4.5,8.7,5.9l-0.8,1.7
			c-4.7-2-7.9-4.5-9.8-7.6h-11.8c-1.9,3.1-5,5.7-9.5,7.8l-1-1.7c3.9-1.6,6.8-3.7,8.5-6.1h-8.2v-1.8h7.4v-12.8h-6.8v-1.7H511.2z
			 M520.9,133.8v3.2h7.7v1.8h-7.7v4.7h12.9v1.9h-28v-1.9h13.1v-4.7h-7.8V137h7.8v-3.2H520.9z M526.5,120.9v-3.2h-13.3v3.2H526.5z
			 M526.5,125.6v-3.1h-13.3v3.1H526.5z M526.5,130.5v-3.2h-13.3v3.2H526.5z"/>
		<path fill="#58595B" d="M560.4,113.4c3.6,4.5,8.9,8.2,15.8,11.2l-1.1,1.7c-6.4-2.7-11.6-6.4-15.5-10.9c-4.3,4.6-9.5,8.2-15.6,11
			l-1.1-1.6c6.4-2.9,11.7-6.7,15.8-11.3H560.4z M569.2,123.5v1.8h-8.6v6H574v1.9h-13.4v10.5h4.6c1.4-2.5,2.6-5.2,3.6-8.1l1.8,0.7
			c-1,2.8-2.1,5.3-3.4,7.4h8.1v1.9h-31.4v-1.9h8c-0.9-2.5-1.9-4.9-3.3-7.2l1.8-0.7c1.3,2.1,2.4,4.8,3.4,7.8h4.8v-10.5h-13.4v-1.9
			h13.4v-6H550v-1.8H569.2z"/>
		<path fill="#58595B" d="M599.3,114.7v1.8h-5v5h4.3v24.6h-1.8v-1.8h-11.2v2h-1.7v-24.9h4.1v-5h-5v-1.8H599.3z M596.9,142.6v-9.9
			h-2.2c-1.4,0-2.1-0.7-2.1-2v-7.4h-2.7v2.9c0,3.9-0.9,6.7-2.7,8.6l-1.1-1c1.6-1.6,2.4-4.1,2.4-7.6v-2.9h-2.8v19.2H596.9z
			 M595.1,136.7v1.7h-7.8v-1.7H595.1z M592.6,121.6v-5h-2.9v5H592.6z M596.9,123.3h-2.9v7c0,0.5,0.3,0.8,1,0.8h1.9V123.3z
			 M614.7,143.9c-0.6,1.1-1.6,1.7-3.2,1.7h-6.8c-2.1,0-3.1-1.1-3.1-3.2v-15.3h10.3v-10.5h-11.1v-1.8h13V129h-10.3v12.8
			c0,1.3,0.6,1.9,1.8,2h5.8c1.1,0,1.8-0.6,2.2-1.6c0.3-1,0.6-3.1,0.7-6.2l1.8,0.6C615.7,140.4,615.3,142.8,614.7,143.9z"/>
		<path fill="#58595B" d="M628,136.7c-0.9,3.4-2.2,6.3-3.8,8.8l-1.7-1.1c1.6-2.4,2.8-5.1,3.5-8.1L628,136.7z M635.9,115.9
			c0.6-1,1-2,1.3-3.1l2.1,0.3c-0.3,1-0.7,1.9-1.2,2.8h12.5v17.6h-22.8v-17.6H635.9z M648.6,121.3v-3.6h-18.8v3.6H648.6z
			 M648.6,126.4V123h-18.8v3.5H648.6z M648.6,128.1h-18.8v3.7h18.8V128.1z M633.8,146.1c-1.9,0-2.8-0.9-2.8-2.8v-7.3h2v6.8
			c0,1,0.4,1.4,1.3,1.4h8.6c0.9,0,1.6-0.2,2-0.6c0.5-0.6,0.9-2.1,1-4.7l1.9,0.6c-0.2,3-0.7,4.9-1.5,5.7c-0.6,0.6-1.6,0.8-3,0.8
			H633.8z M643,140l-1.5,1.1c-1.2-1.6-2.8-3.4-4.8-5.4l1.5-0.9C640.3,136.8,641.9,138.5,643,140z M655.9,143.7l-1.6,1.1
			c-1.4-2.4-3.3-5.2-5.7-8.1l1.6-1C652.6,138.7,654.6,141.4,655.9,143.7z"/>
		<path fill="#58595B" d="M677.7,119.2h-13.9v-2h13.9v-4.1h2v4.1h13.9v2h-13.9v10.5c4.1,5.8,9.3,10.3,15.8,13.4l-1.1,1.8
			c-5.8-3-10.6-7.1-14.7-12.3v14h-2v-13.8c-3.6,5-8.5,9.1-14.6,12.3l-1-1.8c6.8-3.5,12-7.9,15.6-13.5V119.2z M664.6,133.2l-1.3-1.5
			c3.3-2.7,5.5-6.3,6.7-10.9l1.9,0.3c-0.5,2-1.2,3.8-2,5.4c1.8,1.1,3.5,2.3,5.1,3.8l-1.1,1.7c-1.6-1.6-3.3-2.9-4.9-3.9
			C667.8,130.1,666.3,131.8,664.6,133.2z M683.7,132.1l-1.3-1.6c2.8-2.4,4.8-5.7,5.8-9.7l1.9,0.3c-0.5,1.9-1.1,3.6-1.8,5.1
			c2.1,1.3,4,2.8,5.8,4.5l-1.1,1.7c-1.8-1.9-3.7-3.5-5.5-4.7C686.4,129.5,685.1,130.9,683.7,132.1z"/>
		<path fill="#58595B" d="M709.5,128.4l-1.4,1.4c-1.5-1.7-3.6-3.6-6.2-5.5l1.4-1.3C705.8,124.7,707.9,126.5,709.5,128.4z
			 M709.9,133.5c-1.7,4.7-3.6,9-5.7,13.1l-1.9-0.8c2.2-4.2,4.2-8.6,5.8-13L709.9,133.5z M710.6,119.6l-1.4,1.4
			c-1.6-1.8-3.8-3.7-6.6-5.8l1.4-1.3C706.6,115.8,708.9,117.6,710.6,119.6z M723.2,120.4c0.5-1.3,0.9-2.6,1.1-4h-9.7v11.6
			c-0.1,7.7-1.5,13.9-4.2,18.5l-1.5-1.3c2.4-4.1,3.7-9.9,3.8-17.2v-13.4h21.8v1.8h-8.3c-0.3,1.4-0.7,2.7-1.2,4h7.5V133h-6.4v10.9
			c0,1.8-0.9,2.7-2.6,2.7h-3.1l-0.4-1.8c1,0.1,1.9,0.1,2.8,0.1c0.9,0,1.4-0.5,1.4-1.4V133h-6.6v-12.6H723.2z M720.8,136.3
			c-1,3.3-2.4,6.1-4.2,8.5l-1.6-1c1.8-2.3,3.1-4.9,4-7.8L720.8,136.3z M730.8,126v-3.9h-11.2v3.9H730.8z M730.8,127.5h-11.2v3.8
			h11.2V127.5z M735,144l-1.7,0.7c-1.3-3.2-2.7-6-4.1-8.4l1.7-0.6C732.5,138.4,733.8,141.1,735,144z"/>
		<path fill="#58595B" d="M774.6,115.4v2h-5V143c0,2.3-1.1,3.4-3.4,3.4h-6.1l-0.4-1.9c2,0.1,4,0.1,5.8,0.1c1.4,0,2.1-0.7,2.1-2.2
			v-25.1h-25.7v-2H774.6z M760.1,136.7h-11.9v3.4h-1.9v-16.4h13.8V136.7z M758.2,134.9v-9.4h-10v9.4H758.2z"/>
		<path fill="#58595B" d="M108.7,189.9c-1.3-0.3-2.6-0.6-3.9-0.7c-1.1-0.2-2.3-0.3-3.4-0.4v2.2c-0.1,4.6-1.1,8.3-3.1,11.2l-1.5-1.4
			c1.7-2.5,2.6-5.8,2.7-9.7v-9.4h13.1v17.9c0,1.6-0.9,2.4-2.6,2.4h-3.4l-0.5-1.8c1.2,0,2.3,0.1,3.3,0.1c0.8,0,1.3-0.4,1.3-1.3v-4.8
			c-2.7,0.5-5.5,1-8.5,1.4l-0.4-1.7c3.1-0.3,6.1-0.8,8.9-1.3v-9h-9.2v3.7c1.7,0.2,3.2,0.4,4.3,0.6c0.9,0.1,2.1,0.3,3.6,0.6
			L108.7,189.9z M115.1,179.1l-1.6,1.1c-0.4-0.8-0.9-1.7-1.4-2.5c-3.9,0.6-8.6,1.1-14.2,1.4l-0.6-1.7c0.4-0.1,0.7-0.3,0.9-0.5
			c2.3-2.3,4.4-5.1,6.1-8.4l1.9,0.6c-1.8,3.6-3.9,6.4-6,8.3c3.5-0.1,7.1-0.5,11-1.1c-0.8-1.3-1.7-2.7-2.7-4l1.6-1
			C112.2,174.3,113.9,176.9,115.1,179.1z M118.7,168.7v4.9l10.2-0.7v1.9l-10.2,0.7v5.5c0,0.9,0.5,1.4,1.5,1.4h9.3v1.9h-9.8
			c-2,0-3-1-3-2.9v-12.7H118.7z M119.5,201.5c-1.8,0-2.8-0.9-2.8-2.7v-12.7h2v4.2l10.4-0.6v1.8l-10.4,0.7v6.2c0,0.9,0.4,1.4,1.4,1.4
			h5.5c0.9,0,1.5-0.2,1.8-0.6c0.4-0.5,0.7-2,0.9-4.4l1.8,0.6c-0.2,2.9-0.7,4.7-1.4,5.4c-0.6,0.5-1.5,0.8-2.8,0.8H119.5z"/>
		<path fill="#58595B" d="M168.9,188c-0.1,6.7-0.5,10.7-1.3,12.1c-0.8,1.3-2.3,2-4.3,2c-1,0-2.2,0-3.6-0.1l-0.6-1.9
			c1.5,0.1,2.8,0.1,3.7,0.1c1.7,0,2.8-0.6,3.3-1.7c0.4-1.1,0.7-4,0.8-8.7h-23.3c-1.8,1.9-3.8,3.5-5.9,4.9l-1-1.8
			c5.9-4,10.2-9.5,12.8-16.6h-10.3v-1.8h10.9c0.6-2,1.1-4.1,1.6-6.3l2,0.2c-0.4,2.1-0.9,4.2-1.5,6.1h11.6l-1.6,6.5h4.7l-1.5,6.9
			H168.9z M145.8,193.2c-1,3-2.4,5.6-4.3,7.8l-1.7-1.1c1.8-2.1,3.2-4.5,4.1-7.1L145.8,193.2z M147.2,173l-1.6,1.1
			c-0.8-1.3-1.8-2.8-3.2-4.4l1.6-1C145.4,170.5,146.4,171.9,147.2,173z M145.2,188h18.1l1.3-5.1h-16
			C147.6,184.7,146.5,186.4,145.2,188z M151.7,199.9l-1.9,0.2c-0.2-3-0.7-5.2-1.4-6.8l1.7-0.2C151,194.8,151.5,197.1,151.7,199.9z
			 M151.5,176.3c-0.6,1.7-1.2,3.2-1.9,4.7h10.6l1.3-4.7H151.5z M157.9,198.4l-1.8,0.7c-0.7-2.1-1.4-4.1-2.3-6.1l1.6-0.5
			C156.5,194.6,157.3,196.6,157.9,198.4z M163.6,196.9l-1.8,0.4c-0.6-1.8-1.4-3.6-2.3-5.3l1.6-0.5
			C162,193.1,162.8,194.9,163.6,196.9z"/>
		<path fill="#58595B" d="M192.1,175.4v-6.9h2v6.9h14.7v2h-12.6c2.5,6.1,7.1,11.6,13.7,16.4l-1.3,1.7c-6.7-5.4-11.4-11.4-14-18.1
			h-0.5v15h8.2v2h-8.2v7.8h-2v-7.8h-7.9v-2h7.9v-15h-0.5c-2.7,7.6-7.5,13.7-14.3,18.5l-1.1-1.8c6.5-4.3,11.2-9.9,13.9-16.7h-12.6v-2
			H192.1z"/>
		<path fill="#58595B" d="M233.6,168.8c3.6,4.5,8.9,8.2,15.8,11.2l-1.1,1.7c-6.4-2.7-11.6-6.4-15.5-10.9c-4.3,4.6-9.5,8.2-15.6,11
			l-1.1-1.6c6.4-2.9,11.7-6.7,15.8-11.3H233.6z M242.4,178.9v1.8h-8.6v6h13.4v1.9h-13.4v10.5h4.6c1.4-2.5,2.6-5.2,3.6-8.1l1.8,0.7
			c-1,2.8-2.1,5.3-3.4,7.4h8.1v1.9h-31.4v-1.9h8c-0.9-2.5-1.9-4.9-3.3-7.2l1.8-0.7c1.3,2.1,2.4,4.8,3.4,7.8h4.8v-10.5h-13.4v-1.9
			h13.4v-6h-8.6v-1.8H242.4z"/>
		<path fill="#58595B" d="M258.6,167.9c1.5,2.4,2.7,4.9,3.7,7.6c1,3.2,1.6,6.4,1.6,9.6c0,3.2-0.6,6.4-1.6,9.6
			c-0.9,2.7-2.1,5.2-3.7,7.6h-2c1.5-2.4,2.6-5,3.5-7.7c1-3.3,1.6-6.5,1.6-9.6c0-3.1-0.6-6.3-1.6-9.6c-0.9-2.7-2-5.3-3.5-7.7H258.6z"
			/>
	</g>
	<path fill="#FFD65C" d="M755.6,336.2H116.2c-11.6,0-21-9.4-21-21v-56.3c0-11.6,9.4-21,21-21h639.4c11.6,0,21,9.4,21,21v56.3
		C776.6,326.8,767.2,336.2,755.6,336.2z"/>
	<g>
		<g>
			<path fill="#58595B" d="M381.4,294.4c-0.1,2.7-0.5,5.2-1.1,7.3l-2.8-0.8c0.7-2,1.1-4.2,1.3-6.8L381.4,294.4z M384.6,284.5v-2h-6
				v-13.7h15.1v13.7h-6v2h5.6v2.8h-5.6v2.1h6.4v3.1h-16v-3.1h6.5v-2.1h-5.7v-2.8H384.6z M384.8,271.5h-3.4v8.4h3.4V271.5z
				 M384.5,278.3l-1.8,0.5c-0.3-1.8-0.7-3.4-1.3-5l1.8-0.6C383.7,274.7,384.1,276.4,384.5,278.3z M385.6,301l-2.8,0.3
				c0-2.9-0.1-5.1-0.3-6.7l2.5-0.3C385.3,295.9,385.5,298.1,385.6,301z M390.2,300.2l-2.8,0.6c-0.3-2.4-0.6-4.5-1-6.3l2.5-0.5
				C389.4,296,389.9,298,390.2,300.2z M390.8,271.5h-3.5v8.4h3.5V271.5z M390.5,273.3c-0.2,1.9-0.6,3.7-1.1,5.5l-1.8-0.6
				c0.5-1.7,0.8-3.4,1-5.4L390.5,273.3z M394.4,299.3l-2.5,0.9c-0.4-2-0.9-4-1.5-5.9l2.4-0.7C393.5,295.7,394.1,297.6,394.4,299.3z
				 M403.9,267.8v6.5h7.4v3.2h-7.4v5.9h6.1v18.2h-3.3v-1.8h-8v1.8h-3.3v-18.2h5.1v-15.7H403.9z M406.7,296.7v-10.1h-8v10.1H406.7z"
				/>
			<path fill="#58595B" d="M434.6,288.1c-2,0.7-4.1,1.3-6.3,1.8v7.7c0,2.4-1.3,3.6-3.7,3.6h-4.1l-0.8-3.4c1.3,0.1,2.5,0.2,3.7,0.2
				c0.9,0,1.4-0.4,1.4-1.3v-6c-2.2,0.5-4.5,0.9-6.8,1.3l-0.5-3.5c2.5-0.4,5-0.8,7.3-1.3v-6.6h-7.3v-3.4h7.3v-3.9
				c-1.8,0.4-3.7,0.7-5.7,1l-0.7-3.3c5.2-0.6,9.8-1.6,13.7-3.3l1.2,3.3c-1.6,0.6-3.3,1.1-5,1.6v4.7h8c-0.2-2.9-0.3-6.1-0.3-9.5h3.5
				c0,3.6,0.1,6.8,0.3,9.5H451v3.4h-10.9c0.2,2.4,0.6,4.5,1,6.1c0.1,0.7,0.3,1.3,0.5,1.9c1.6-1.9,3-4.1,4.2-6.5l3,1.6
				c-1.7,3.4-3.6,6.3-5.9,8.8c0.4,1,0.8,1.8,1.3,2.5c1.1,1.7,2,2.5,2.5,2.5c0.5,0,1-1.9,1.4-5.8l3.1,1.6c-0.9,5.2-2.3,7.9-4.1,7.9
				c-1.6,0-3.3-1.1-5-3.3c-0.7-0.9-1.3-1.9-1.9-3.1c-2.5,2.1-5.4,3.8-8.6,5.1l-2-3c3.5-1.3,6.5-3.1,9.1-5.4
				c-0.4-1.2-0.8-2.5-1.1-3.8c-0.5-2-0.9-4.4-1.2-7.1h-8.3v5.8c2.2-0.6,4.3-1.2,6.3-1.9V288.1z M450.2,273l-2.5,2.5
				c-1.6-1.6-3.7-3.4-6.5-5.2l2.4-2.3C446.2,269.7,448.4,271.4,450.2,273z"/>
			<path fill="#58595B" d="M466.3,276.6v2.7c-1.1,1.9-2.4,3.8-3.8,5.7h4.9v2.3c-0.7,2.8-1.4,5.1-2.4,6.9c0.2,0.1,0.4,0.4,0.7,0.6
				c1.2,1.1,2.3,1.8,3.4,2.3c1.1,0.4,2.7,0.7,4.7,0.7c2,0,4.3,0,6.9,0c2.7,0,6.2-0.1,10.6-0.3l-0.8,3.3h-9.3c-2.6,0-5.1-0.1-7.5-0.1
				c-2.5-0.1-4.4-0.4-5.7-0.9c-1.6-0.6-3-1.6-4.2-2.8c-0.3-0.3-0.6-0.4-0.8-0.4c-0.7,0-1.9,1.6-3.5,4.8l-2.5-2.3
				c1.8-3.4,3.4-5.4,5.1-5.8c0.9-1.7,1.6-3.5,2.1-5.5h-5.6v-2.7c1.6-1.9,3-3.8,4.1-5.6h-5.1v-3.2H466.3z M466.3,273.1l-2.3,2.3
				c-1.3-1.7-3.2-3.4-5.6-5.3l2.3-2.3C462.9,269.6,464.7,271.3,466.3,273.1z M468,281.9l-1-3.4c2.6-3.3,4.5-6.8,5.5-10.6l3.3,0.6
				c-0.4,1.2-0.8,2.4-1.3,3.5h5.4c-0.5-1.2-1.1-2.4-1.8-3.5l3.2-0.9c0.8,1.6,1.5,3.1,2,4.4h6.3v3.2H483v3.5h5.5v3.1H483v3.4h5.5v3
				H483v3.6h6.9v3.1h-19.6v-15.9C469.6,280,468.8,281,468,281.9z M479.7,275.2h-6v3.5h6V275.2z M479.7,281.8h-6v3.4h6V281.8z
				 M479.7,288.2h-6v3.6h6V288.2z"/>
			<path fill="#58595B" d="M507.2,272.2v-3.4h8.1c1,11.2,6.1,21,15.2,29.4l-2,3c-7.5-6.7-12.3-14.5-14.6-23.3
				c-2.6,10-7.6,17.7-15.1,23.2l-2.1-3c8.1-6,13.4-14.7,15.8-26H507.2z"/>
		</g>
	</g>
</g>
<g>
</g>
<g>
</g>
<g>
</g>
<g>
</g>
<g>
</g>
<g>
</g>
<g>
</g>
<g>
</g>
<g>
</g>
<g>
</g>
<g>
</g>
<g>
</g>
<g>
</g>
<g>
</g>
<g>
</g>
</svg>
