<?xml version="1.0" encoding="utf-8"?>
<!-- Generator: Adobe Illustrator 18.0.0, SVG Export Plug-In . SVG Version: 6.00 Build 0)  -->
<!DOCTYPE svg PUBLIC "-//W3C//DTD SVG 1.1//EN" "http://www.w3.org/Graphics/SVG/1.1/DTD/svg11.dtd">
<svg version="1.1" id="Layer_1" xmlns="http://www.w3.org/2000/svg" xmlns:xlink="http://www.w3.org/1999/xlink" x="0px" y="0px"
	 viewBox="0 0 623.9 302" enable-background="new 0 0 623.9 302" xml:space="preserve">
<g>
	<path fill="#FFFFFF" d="M553.6,260.3H70.3C31.6,260.3,0,228.7,0,190L0,70.3C0,31.6,31.6,0,70.3,0l483.3,0
		c38.7,0,70.3,31.6,70.3,70.3V190C623.9,228.7,592.3,260.3,553.6,260.3z"/>
	<g>
		<path fill="#757679" d="M90.3,78.5H86v-1.5H60.1v1.5h-4.3V41.9h34.4V78.5z M86,72.9v-27H60.1v27H86z M71.1,52.6
			c0.2-1.6,0.2-3.4,0.3-5.2h4.1c0,1.8-0.1,3.5-0.2,5.2h9v4h-9.5c-0.2,0.7-0.3,1.3-0.5,2c4.1,3.2,7.6,6.4,10.4,9.6l-3.1,3.2
			c-2.1-2.9-4.9-5.9-8.5-9.1c-1.7,3.6-4.8,6.6-9.2,9.1l-2.6-3.2c4.4-2.5,7.2-5.5,8.6-9.1c0.2-0.8,0.5-1.6,0.7-2.5h-8.5v-4H71.1z"/>
		<path fill="#757679" d="M135,61.6c-0.1,8.1-0.6,13-1.6,14.5c-1.1,1.6-2.9,2.4-5.5,2.4c-1.2,0-2.5-0.1-4.1-0.2l-1.1-4
			c1.7,0.1,3.1,0.2,4.2,0.3c1.6,0,2.7-0.6,3.1-1.6c0.4-0.9,0.7-3.5,0.7-7.6h-24.6c-1.9,1.9-4,3.5-6.2,5l-2.1-3.8
			c5.9-4,10.3-9.3,13.2-16.2h-10.3v-3.8h6c-0.8-1.2-1.7-2.5-2.8-3.8l3.4-2.1c1.5,1.7,2.6,3.3,3.4,4.6l-1.9,1.4h3.6
			c0.6-2,1.1-4,1.5-6.1L118,41c-0.4,2-0.9,3.8-1.4,5.6h12.6l-1.5,7.3h4.9l-1.3,7.7H135z M109.2,68.5c-1.1,3.4-2.6,6.4-4.5,8.9
			l-3.7-2.4c2-2.3,3.5-4.8,4.3-7.4L109.2,68.5z M109.4,61.6h17.7l0.8-3.9H112C111.2,59,110.3,60.4,109.4,61.6z M115.8,75.6l-4.1,0.5
			c-0.2-3.2-0.6-5.6-1.3-7.4l3.6-0.5C115,70,115.5,72.5,115.8,75.6z M115.4,50.4c-0.5,1.2-0.9,2.4-1.4,3.5h9.5l0.9-3.5H115.4z
			 M122.5,73.6l-3.9,1.4c-0.6-2.3-1.3-4.5-2.1-6.7l3.3-0.9C121,69.7,121.9,71.7,122.5,73.6z M128.8,72.2l-3.9,1
			c-0.6-2-1.3-4-2.2-5.8l3.4-1.1C127.1,68,128,69.9,128.8,72.2z"/>
		<path fill="#757679" d="M152,50.4v3.3c-1.2,2.1-2.7,4.1-4.4,6.1h4.8v2.8c-0.5,3-1.2,5.4-1.9,7.4c0.3,0.2,0.6,0.5,0.9,0.8
			c1.3,1.2,2.5,2.1,3.7,2.6c1.2,0.5,2.9,0.7,5.1,0.8c2.2,0,4.8,0,7.7,0c3,0,6.8-0.1,11.6-0.3l-1,4h-10.1c-2.8,0-5.6-0.1-8.3-0.2
			c-2.8-0.1-4.9-0.4-6.3-1c-1.7-0.7-3.3-1.8-4.7-3.2c-0.3-0.3-0.6-0.5-0.9-0.5c-0.8,0-2.1,1.8-3.8,5.3l-3.1-2.9
			c1.9-3.5,3.7-5.6,5.4-6.3c0.7-1.8,1.3-3.8,1.7-5.9h-5.8v-3.2c1.9-2.1,3.5-4.1,4.7-6h-5.4v-3.9H152z M151.9,46.5l-2.8,2.8
			c-1.5-1.8-3.6-3.8-6.3-5.9l2.8-2.7C148.1,42.5,150.2,44.5,151.9,46.5z M163.4,44.1c-0.5-1.1-0.9-2.1-1.5-3l4.6-0.7
			c0.5,1.1,0.9,2.4,1.4,3.8h10.2V48h-24.3v-3.9H163.4z M176,61.6v10.8h-20V61.6H176z M175,50.2v3.4H157v-3.4H175z M175,55.9v3.4H157
			v-3.4H175z M171.8,65.1h-11.6v3.8h11.6V65.1z"/>
		<path fill="#757679" d="M193.9,78.5h-4.1V60.6c-0.9,3-2,5.7-3.2,8.1l-2-3.7c2.1-3.8,3.7-8.1,4.8-13h-3.7v-4h4.2v-7.7h4.1v7.7h3.5
			v4h-3.5v2.2c1.4,1.7,2.8,3.5,4.2,5.6l-2.3,3.5c-0.7-1.5-1.3-2.8-1.9-3.9V78.5z M207.3,66.2v2.7c-1.4,4.1-4.4,7.3-8.8,9.4l-2.5-3.3
			c3.3-1.4,5.7-3.2,7.1-5.6h-5.4v-3.3H207.3z M203.7,44.1c-0.5-1.1-0.9-2.1-1.4-3.1l4.2-0.7c0.5,1.1,0.9,2.3,1.3,3.7h4.8
			c0.5-1.2,0.9-2.5,1.2-3.8l4.2,0.6c-0.3,1.2-0.7,2.3-1.2,3.3h5v3.2h-9.5V49h8.1v3h-8.1v1.8h10.2V57h-24.7v-3.3h10.3V52H200v-3h8.1
			v-1.6h-9.6v-3.2H203.7z M204.5,74.8l3,0.2c0.6,0,0.9-0.4,0.9-1.2v-9.1h-8v-3.2h12V65c0.2,0.5,0.5,0.9,0.8,1.4
			c2.2-1,4.3-2.6,6.3-4.5l2.7,2.6c-2,2-4.2,3.6-6.7,4.7c2.1,2.1,4.6,4,7.7,5.5l-2.7,3.2c-3.3-2.1-6-4.6-8.1-7.4V75
			c0,2.3-1.4,3.5-4.2,3.5h-2.9L204.5,74.8z M216.8,59.3l-1.2,2.8c-3.5-1-7.1-1.8-10.9-2.3l1.4-2.6C209.8,57.7,213.4,58.4,216.8,59.3
			z"/>
		<path fill="#757679" d="M248.2,41.8V56h-9.8c-0.1,1.3-0.1,2.5-0.2,3.7h11.2c0,7.6-0.2,12.2-0.6,14c-0.5,2.9-2.8,4.4-7,4.4
			c-0.7,0-1.8-0.1-3.5-0.2l-0.9-3.7c1.4,0.1,2.7,0.2,3.7,0.2c2.1,0,3.3-0.9,3.7-2.5c0.2-0.8,0.3-3.5,0.4-8.1h-7.3
			c-0.3,2.4-0.7,4.4-1.2,5.9c-1.1,3.4-2.8,6.3-5.4,8.8l-2.8-3.6c2.1-2,3.5-4.4,4.4-7.2c0.7-2.5,1.2-6.3,1.4-11.6h-3.4V41.8H248.2z
			 M244,45.8h-9v6.1h9V45.8z M256.7,44.1v25.3h-4.2V44.1H256.7z M254.9,78.1l-0.9-4.1c1.9,0.2,3.7,0.2,5.4,0.2c1.1,0,1.7-0.7,1.7-2
			V40.6h4.3v32.8c0,3.1-1.5,4.7-4.5,4.7H254.9z"/>
		<path fill="#757679" d="M292.9,49.7c2.4,10.8,8.3,19.1,17.6,24.8l-2.9,3.8c-7.7-5.2-13.1-12.1-16.3-20.8
			c-2.7,8.4-8.4,15.4-16.9,20.9l-2.6-3.9c11-6.6,16.7-15.8,17-27.6c0-2.8,0-4.9,0-6.5h4.4C293.2,44.1,293.1,47.2,292.9,49.7z"/>
		<path fill="#757679" d="M337.5,41.8v4h-10.2c-1.6,3.3-3.1,5.9-4.4,7.7c3-0.3,5.9-0.7,8.9-1.2c-0.7-1.2-1.5-2.3-2.3-3.5l3.3-2.1
			c2.7,3.6,4.8,6.7,6.2,9.3l-3.6,2.5c-0.5-1-1-2-1.6-3c-5.1,0.9-10.7,1.6-16.7,2.3L316,54c0.7-0.1,1.3-0.2,1.7-0.4
			c1.2-0.9,2.8-3.5,5-7.8h-5.9v-4H337.5z M337.7,74.6c-6.4,1.3-13.3,2.5-20.6,3.4l-1-4.1c3.2-0.3,6.3-0.7,9.3-1.2v-6.4h-7.4v-4.1
			h7.4v-4.2h4.3v4.2h6.8v4.1h-6.8V72c2.7-0.5,5.4-1.1,8-1.6V74.6z M344.4,44.3v25.1h-4.2V44.3H344.4z M342,78.1l-0.9-4.2
			c2,0.2,3.8,0.2,5.6,0.2c0.9,0,1.4-0.5,1.4-1.5V40.6h4.4v33.3c0,2.9-1.4,4.3-4.3,4.3H342z"/>
		<path fill="#757679" d="M388.1,40.6v7.4h8.1c0,13.9-0.2,22.5-0.6,25.7c-0.4,3-2.3,4.5-5.6,4.5c-0.7,0-2.1-0.1-4-0.2l-1-3.7
			c1.6,0.1,3.1,0.2,4.3,0.2c1.3,0,2.1-0.9,2.3-2.7c0.2-1.9,0.4-8.5,0.5-19.9h-4.1v1.4c-0.1,11.5-2.6,19.9-7.4,25.2l-2.3-2
			c-5.4,0.7-11.6,1.2-18.6,1.6l-0.5-3.8c3-0.2,5.7-0.3,8.4-0.5v-2.6h-7v-3.5h7v-2h-7.1V52.4h7.1v-1.7h-7.9v-3.5h7.9v-1.8
			c-2.1,0.1-4.4,0.2-6.7,0.2l-1.2-3.3c6.9,0,12.7-0.6,17.5-1.6l1.9,3.2c-2.2,0.6-4.7,1-7.5,1.3v2.1h7.7v3.5h-7.7v1.7h7.2v13.3h-7.2
			v2h7v3.5h-7v2.3c2.5-0.2,4.8-0.5,7-0.7v1.8c3.6-4.7,5.4-11.8,5.5-21.3v-1.4h-3.6v-3.9h3.6v-7.4H388.1z M367.9,57.6v-2.2h-3.5v2.2
			H367.9z M367.9,60.4h-3.5v2.1h3.5V60.4z M371.4,57.6h3.5v-2.2h-3.5V57.6z M375,60.4h-3.5v2.1h3.5V60.4z"/>
		<path fill="#757679" d="M406.6,58.3l-3.8-1.1c1.1-4.3,1.7-8.9,1.9-13.7l3.8,0.3c-0.1,1.6-0.2,3.1-0.3,4.7h1.8v-8.1h4.2v8.1h2.8
			v4.1h-2.8v8.2c0.9-0.4,1.7-0.8,2.6-1.2v4c-0.9,0.4-1.8,0.8-2.6,1.2v13.6H410V66.6c-1.9,0.7-3.7,1.3-5.7,1.9l-1-4.2
			c2.3-0.5,4.5-1.1,6.7-1.8v-9.8h-2.3C407.4,54.6,407,56.5,406.6,58.3z M425.6,41.4c-0.4,1.9-0.8,3.6-1.3,5.2h15.6
			c0,14.3-0.2,23.1-0.6,26.4c-0.5,3.5-2.8,5.3-7,5.3c-0.6,0-1.6-0.1-3.1-0.2l-1-3.8c1.3,0.1,2.4,0.2,3.4,0.2c2.2,0,3.5-1.2,3.8-3.4
			c0.2-1.9,0.4-8.7,0.5-20.4h-1.5c-0.9,6.6-2.1,11.9-3.6,15.7c-1.9,4.4-4.7,8.3-8.4,11.8l-2.7-3.4c3.4-3,5.9-6.4,7.6-10.2
			c1.4-3.5,2.6-8.1,3.3-13.9h-2.1c-1.7,8.7-4.8,15.1-9.3,19.2l-2.8-3.2c4-3.4,6.7-8.7,8.2-16h-1.7c-1,2.4-2.2,4.5-3.6,6.1l-3.1-2.7
			c2.6-3.2,4.4-7.9,5.4-13.9L425.6,41.4z"/>
		<path fill="#757679" d="M483,78.5h-4.1v-1.4h-26.3v1.4h-4.1V41.7H483V78.5z M460.3,73.2l-1-2.6c0.7-0.2,1-0.7,1-1.2v-1.1
			c-1.5,0.7-3.1,1.4-4.9,2.1l-1.9-3.2c3.7-0.9,6.4-1.9,8.2-3h-5.3V57h18.8v6.9c0,0,0.1-0.1,0.1-0.1l2.5,2c-1.2,0.7-2.3,1.4-3.5,2
			c1.2,0.6,2.4,1.3,3.5,2l-2,3c-3.3-2.3-6.6-4.1-10-5.4l1.7-2.5c1.2,0.4,2.4,0.9,3.6,1.4c1.2-0.7,2.4-1.4,3.4-2h-8.7
			c-0.6,0.7-1.3,1.3-2.1,2v3.5c1.4-0.3,2.8-0.7,4.2-1.1l0.6,2.9c-2.3,0.6-4.7,1.2-7,1.6h17.5V45.6h-26.3v27.7H460.3z M463.8,48v-1.6
			h3.9V48h7.9v3h-7.9v1.5h10v3.1h-23.7v-3.1h9.8v-1.5h-7.9v-3H463.8z M471.5,59.8h-11.7v1.8h11.7V59.8z"/>
		<path fill="#757679" d="M506.5,78.2l-1-4.2c2.1,0.2,4.2,0.2,6,0.2c0.9,0,1.4-0.6,1.4-1.8V51.7h-0.5c-4,8.4-10.8,15.4-20.2,20.8
			l-2.3-3.7c8.2-4.4,14.3-10.2,18.1-17.1h-17.2v-4.2H513v-7h4.3v7h9.9v4.2h-9.9v21.9c0,3-1.4,4.6-4.3,4.6H506.5z"/>
		<path fill="#757679" d="M536,53.2l-2.3-3.6c6.6-2.6,12.6-5.7,17.9-9.1h2.6c5.3,3.5,11.3,6.5,17.9,9.1l-2.3,3.6
			c-0.7-0.3-1.4-0.6-2-0.9v10.9h-29.8V52.3C537.4,52.6,536.7,52.9,536,53.2z M561.2,48.9v1.4h-16.6V49c-1.8,0.9-3.7,1.9-5.6,2.8h28
			C564.9,50.8,563,49.9,561.2,48.9z M566.3,78.6h-4.1v-1.2h-18.5v1.3h-4.1V64.5h26.6V78.6z M551,55H542v4.9h9.1V55z M562.2,69.3
			v-1.6h-18.5v1.6H562.2z M562.2,74v-1.8h-18.5V74H562.2z M548.8,59l-2.8,0.7c-0.5-1.3-1.2-2.6-2-3.8l2.8-0.9
			C547.6,56.2,548.3,57.5,548.8,59z M553,44.1c-1.6,1.1-3.3,2.1-5.1,3.2h10.3C556.2,46.2,554.5,45.1,553,44.1z M563.9,55h-9.1v4.9
			h9.1V55z M561.8,55.9c-0.5,1.5-1.2,2.8-1.9,3.9l-2.8-1c0.7-1,1.3-2.2,1.8-3.6L561.8,55.9z"/>
		<path fill="#757679" d="M65.3,125.2H61v-9.3c-1.6,2.7-3.4,5.2-5.6,7.5l-1.6-4.1c2.9-2.5,5.2-5.3,7-8.6h-6.1v-4H61v-4.1h4.3v4.1
			h4.9v4h-4.9v1.2c2,1.3,4,2.7,6.1,4.3l-2.4,3.6c-1.4-1.7-2.6-3.1-3.7-4.2V125.2z M61.9,128.1c-1,4-2.3,7.4-4.1,10.3l-3.7-2.3
			c1.7-2.8,2.9-5.8,3.5-8.9L61.9,128.1z M68.4,139.4c-3.1,0-4.7-1.6-4.7-4.7v-7.8h4.4v6.9c0,1,0.5,1.5,1.6,1.5h8.6
			c0.6,0,1-0.2,1.3-0.6c0.3-0.4,0.6-1.7,0.7-3.9l4.1,1.4c-0.3,3.5-0.9,5.7-1.8,6.3c-0.8,0.6-2,0.9-3.6,0.9H68.4z M77.7,130.9
			l-3.4,2.4c-1.1-1.6-2.5-3.5-4.2-5.4l3.3-2.1C75.3,127.8,76.8,129.5,77.7,130.9z M89.3,103.4v21.5H72.2v-21.5H89.3z M85.2,109.6
			v-2.4h-8.7v2.4H85.2z M85.2,115.3V113h-8.7v2.3H85.2z M85.2,118.8h-8.7v2.4h8.7V118.8z M92.4,134.9l-3.7,2.6
			c-1.5-2.8-3.5-5.9-6-9.3l3.5-2.2C88.9,129.3,91,132.3,92.4,134.9z"/>
		<path fill="#757679" d="M113.8,109.3l0.8-1.7c-3.8,0.2-7.9,0.3-12.3,0.3l-1.2-3.5c11.6,0,21.4-0.8,29.4-2.3l2,3.4
			c-4,0.8-8.5,1.4-13.7,1.9c-0.2,0.7-0.5,1.4-0.7,2h14.7v3.6h-16.3c-0.3,0.6-0.7,1.2-1,1.8H135v3.8h-22.3c-0.5,0.6-0.9,1.2-1.4,1.7
			h19.8v20.1h-4.1v-1.5h-17.5v1.5h-4.1V126c-1.8,1.5-3.7,3-5.7,4.4l-2.3-3.7c3.9-2.6,7.2-5.4,9.9-8.2h-8.8v-3.8h11.9
			c0.4-0.6,0.8-1.2,1.2-1.8h-10.9v-3.6H113.8z M127.1,123.7h-17.5v1.7h17.5V123.7z M109.6,130.3h17.5v-1.7h-17.5V130.3z
			 M109.6,135.3h17.5v-1.9h-17.5V135.3z"/>
		<path fill="#757679" d="M160.8,125.2c-2.2,0.7-4.4,1.4-6.8,2v8.4c0,2.7-1.4,4.1-4.3,4.1H145l-0.9-4.1c1.4,0.2,2.8,0.2,4.1,0.2
			c0.9,0,1.4-0.5,1.4-1.4v-6.2c-2.4,0.5-4.8,0.9-7.4,1.4l-0.6-4.3c2.8-0.4,5.5-0.9,8-1.4v-7.1h-8v-4.1h8v-3.8c-2,0.4-4,0.7-6.1,1
			l-0.9-4.1c5.7-0.6,10.8-1.8,15.2-3.6l1.5,4c-1.7,0.6-3.5,1.2-5.3,1.6v4.8h8.4c-0.2-3.2-0.3-6.7-0.3-10.5h4.3c0,4,0.2,7.4,0.4,10.5
			h12.3v4.1h-12c0.2,2.7,0.6,4.9,1.1,6.6c0.2,0.7,0.3,1.2,0.5,1.8c1.7-2.1,3.2-4.4,4.4-7l3.7,2c-1.8,3.7-4,7-6.5,9.7
			c0.4,1,0.9,1.9,1.3,2.5c1.2,1.8,2.1,2.7,2.6,2.7c0.5,0,0.9-2.1,1.4-6.2l3.8,2c-1.1,5.9-2.6,8.8-4.6,8.8c-1.8,0-3.7-1.2-5.6-3.7
			c-0.7-0.9-1.4-2-2.1-3.3c-2.8,2.3-5.9,4.1-9.3,5.4l-2.4-3.7c3.8-1.4,7.1-3.4,10-5.9c-0.5-1.3-0.9-2.7-1.2-4.1
			c-0.6-2.2-1.1-4.8-1.4-7.8h-8.8v6.1c2.4-0.6,4.7-1.3,6.8-2V125.2z M178.3,108l-3.1,3.1c-1.7-1.8-4.1-3.7-7.2-5.8l2.9-2.8
			C173.8,104.4,176.2,106.2,178.3,108z"/>
		<path fill="#757679" d="M195.4,135.5h-3.5V133h-2.3v3.3h-3.5v-31.6h9.3V135.5z M191.9,129.6v-21.3h-2.3v21.3H191.9z M207.3,103.5
			v2.9c-0.7,3.6-1.5,7.4-2.4,11.5c1.4,3.7,2.2,6.8,2.4,9.5c0,2.1-0.3,3.5-0.9,4.4c-0.9,1.1-2.4,1.6-4.5,1.7l-1.1-3.3v10.1h-3.5
			v-36.7H207.3z M202.7,129.8c0.3-0.1,0.6-0.3,0.7-0.6c0.1-0.3,0.2-0.9,0.2-1.8c0-2.6-0.8-5.6-2.3-8.9c1-4.3,1.8-8.1,2.3-11.5h-2.8
			v22.7C201.6,129.7,202.2,129.8,202.7,129.8z M216.4,111.4v18.6h-8.2v-18.6H216.4z M223.2,103.7v4h-1.5v28.3c0,2.7-1.4,4.1-4.3,4.1
			h-4.3l-0.8-3.6c1.3,0.2,2.6,0.2,3.9,0.2c1.2,0,1.9-0.5,1.9-1.6v-27.4h-9.4v-4H223.2z M213.3,114.2h-2.1V127h2.1V114.2z"/>
		<path fill="#757679" d="M251.1,120c0,4-1.9,7.1-5.6,9.1l-1.4-2.3c2.5-1.5,3.8-3.4,4-5.7c-0.2,0-0.5,0.1-0.8,0.1
			c-0.9,0-1.6-0.3-2.3-0.9s-0.9-1.3-0.9-2.2c0-0.9,0.3-1.7,0.9-2.3c0.6-0.6,1.4-0.9,2.3-0.9C249.8,115,251.1,116.7,251.1,120z"/>
		<path fill="#757679" d="M277.7,117.7l-4.2-2.6c3-3.9,5.1-7.9,6.3-12.2l4.3,0.9c-0.4,1.4-0.9,2.8-1.4,4.2h6.6v-5.7h4.3v5.7h13.1
			v4.2h-13.1v6.5h15.9v4.2h-10.7v10.4c0,1.6,0.5,2.4,1.7,2.4h3.5c0.4,0,0.7-0.2,1.2-0.7c0.3-0.5,0.5-2.5,0.7-6.1l4.1,1.3
			c-0.4,4.8-1,7.6-1.6,8.4c-0.8,0.8-1.9,1.2-3.2,1.3h-5.8c-3.3,0-4.9-1.9-4.9-5.8v-11.2h-6.4c-0.5,4.6-1.4,8-3,10.2
			c-1.9,2.8-5.1,5.2-9.7,7.3l-3-3.9c4-1.6,6.9-3.5,8.6-5.7c1.3-1.7,2.2-4.4,2.7-8H273v-4.2h16.4v-6.5h-8.4
			C280,114.2,278.8,116,277.7,117.7z"/>
		<path fill="#757679" d="M335.4,103.5v14.2h-9.8c-0.1,1.3-0.1,2.5-0.2,3.7h11.2c0,7.6-0.2,12.2-0.6,14c-0.5,2.9-2.8,4.4-7,4.4
			c-0.7,0-1.8-0.1-3.5-0.2l-0.9-3.7c1.4,0.1,2.7,0.2,3.7,0.2c2.1,0,3.3-0.9,3.7-2.5c0.2-0.8,0.3-3.5,0.4-8.1h-7.3
			c-0.3,2.4-0.7,4.4-1.2,5.9c-1.1,3.4-2.8,6.3-5.4,8.8l-2.8-3.6c2.1-2,3.5-4.4,4.4-7.2c0.7-2.5,1.2-6.3,1.4-11.6h-3.4v-14.2H335.4z
			 M331.2,107.6h-9v6.1h9V107.6z M344,105.8v25.3h-4.2v-25.3H344z M342.1,139.9l-0.9-4.1c1.9,0.2,3.7,0.2,5.4,0.2
			c1.1,0,1.7-0.7,1.7-2v-31.7h4.3v32.8c0,3.1-1.5,4.7-4.5,4.7H342.1z"/>
		<path fill="#757679" d="M363.6,112.5l-3.7-2.4c2.4-2.6,4-5.3,5-8.2l4.2,0.9c-0.2,0.6-0.5,1.2-0.7,1.9h10.1v3.7h-5.8
			c0.7,0.9,1.2,1.9,1.7,2.7l-3.9,1.5c-0.7-1.5-1.4-2.9-2.3-4.2h-1.5C365.6,110,364.7,111.3,363.6,112.5z M396.2,121.1H392v-4.4
			h-27.2v4.4h-4.2v-8.1h15.8c-0.3-0.7-0.7-1.4-1-2l3.6-0.6l-0.8-0.5c1.9-2.5,3.3-5.1,4.1-7.9l4.1,0.9c-0.2,0.6-0.4,1.2-0.6,1.8h11.3
			v3.7h-6.5c0.6,0.8,1.1,1.6,1.5,2.4l-3.8,1.4c-0.7-1.3-1.4-2.6-2.3-3.8h-1.9c-0.7,1.3-1.5,2.6-2.3,3.7L380,111
			c0.2,0.7,0.5,1.4,0.8,2.1h15.5V121.1z M390.5,127.2h-19.8v1.9h21.8v11.2h-4.2v-1.4h-17.5v1.4h-4.3v-21.9h24.2V127.2z M386.4,123.8
			v-2.1h-15.7v2.1H386.4z M388.2,135.1v-2.6h-17.5v2.6H388.2z"/>
		<path fill="#757679" d="M406.9,140.4l-3.3-3c3-3.5,4.5-7.9,4.6-13.3v-8.8c-0.8,0.5-1.5,1-2.3,1.5l-2.7-3.3
			c4.7-2.7,8.8-6.6,12.3-11.6l4.3,1c-0.5,0.7-1,1.5-1.5,2.2H433v3.1c-1.3,1.4-2.6,2.7-3.9,3.7h8.8v24.4c0,2.4-1.4,3.7-4.2,3.7h-5.5
			l-1.1-4c1.9,0.1,3.7,0.2,5.3,0.2c0.7,0,1.2-0.5,1.2-1.4v-3.8h-22.2C410.6,134.7,409.1,137.8,406.9,140.4z M412.4,123.8
			c0,1.2-0.1,2.4-0.2,3.5h8.6v-3.8h-8.3V123.8z M423.1,112c1.3-0.9,2.7-2,4.1-3.2h-11.8c-1,1.1-2.1,2.2-3.1,3.2H423.1z M412.4,115.8
			v3.9h8.3v-3.9H412.4z M433.8,115.8H425v3.9h8.8V115.8z M433.8,123.5H425v3.8h8.8V123.5z"/>
		<path fill="#757679" d="M475.3,108.3h-26v-4.2h31.9v4.2c-3.8,3.4-8,6.6-12.8,9.7v17.4c0,3-1.5,4.6-4.5,4.6c-2.5,0-4.7-0.1-6.5-0.3
			l-1.2-4.2c2,0.2,4.2,0.4,6.5,0.4c0.9,0,1.3-0.5,1.3-1.4v-18.8C468,113.6,471.7,111.1,475.3,108.3z"/>
		<path fill="#757679" d="M511.6,130.6c0.6,0.6,0.9,1.3,0.9,2.2c0,0.9-0.3,1.7-0.9,2.3c-0.7,0.6-1.4,0.9-2.3,0.9s-1.6-0.3-2.2-0.9
			c-0.7-0.6-0.9-1.3-0.9-2.2c0-0.9,0.3-1.6,0.9-2.2c0.6-0.6,1.3-0.9,2.2-0.9S511,130,511.6,130.6z M512.1,106.6l-1,20.9h-3.5
			l-1-20.9H512.1z"/>
		<path fill="#757679" d="M553.4,125.2c-2.2,0.7-4.4,1.4-6.8,2v8.4c0,2.7-1.4,4.1-4.3,4.1h-4.7l-0.9-4.1c1.4,0.2,2.8,0.2,4.1,0.2
			c0.9,0,1.4-0.5,1.4-1.4v-6.2c-2.4,0.5-4.8,0.9-7.4,1.4l-0.6-4.3c2.8-0.4,5.5-0.9,8-1.4v-7.1h-8v-4.1h8v-3.8c-2,0.4-4,0.7-6.1,1
			l-0.9-4.1c5.7-0.6,10.8-1.8,15.2-3.6l1.5,4c-1.7,0.6-3.5,1.2-5.3,1.6v4.8h8.4c-0.2-3.2-0.3-6.7-0.3-10.5h4.3c0,4,0.2,7.4,0.4,10.5
			h12.3v4.1h-12c0.2,2.7,0.6,4.9,1.1,6.6c0.2,0.7,0.3,1.2,0.5,1.8c1.7-2.1,3.2-4.4,4.4-7l3.7,2c-1.8,3.7-4,7-6.5,9.7
			c0.4,1,0.9,1.9,1.3,2.5c1.2,1.8,2.1,2.7,2.6,2.7c0.5,0,0.9-2.1,1.4-6.2l3.8,2c-1.1,5.9-2.6,8.8-4.6,8.8c-1.8,0-3.7-1.2-5.6-3.7
			c-0.7-0.9-1.4-2-2.1-3.3c-2.8,2.3-5.9,4.1-9.3,5.4l-2.4-3.7c3.8-1.4,7.1-3.4,10-5.9c-0.5-1.3-0.9-2.7-1.2-4.1
			c-0.6-2.2-1.1-4.8-1.4-7.8h-8.8v6.1c2.4-0.6,4.7-1.3,6.8-2V125.2z M570.9,108l-3.1,3.1c-1.7-1.8-4.1-3.7-7.2-5.8l2.9-2.8
			C566.4,104.4,568.9,106.2,570.9,108z"/>
		<path fill="#757679" d="M55.2,185.1l-1.5-4.7c3.3-4.7,5.8-10.3,7.4-16.7l3.9,1.8c-0.7,2.4-1.5,4.8-2.4,7v29.4h-4.2v-21.4
			C57.5,182,56.3,183.5,55.2,185.1z M77.1,182.2H70v19.6h-4.2v-36.6h11.3V182.2z M73.1,168.8H70v3.1h3.1V168.8z M70,178.6h3.1v-3.3
			H70V178.6z M79.2,182.2v-17h11.6v32.5c0,2.6-1.2,3.9-3.6,3.9c-1.6,0-3.3,0-4.8-0.1l-1.1-3.9c1.6,0.1,3.1,0.2,4.5,0.2
			c0.7,0,1.1-0.5,1.1-1.4v-14.2H79.2z M86.8,168.9h-3.5v3h3.5V168.9z M83.3,178.6h3.5v-3.3h-3.5V178.6z"/>
		<path fill="#757679" d="M114.1,172.1H99.4v-4.2h14.7V164h4.4v3.9h14.7v4.2h-14.7v10.8c4.2,5.6,9.8,10,16.9,13.3l-2.3,4
			c-5.6-2.8-10.4-6.5-14.5-11.1v12.9h-4.4v-12.8c-3.8,4.4-8.6,8.2-14.4,11.2l-2.3-3.9c7.2-3.5,12.7-7.9,16.7-13.3V172.1z
			 M101.4,187.1l-2.7-3.3c3.3-2.7,5.5-6.3,6.6-10.9l4,0.7c-0.5,2-1.1,3.8-1.9,5.5c1.8,0.9,3.5,2,5,3.2l-2.3,3.6
			c-1.5-1.3-3-2.5-4.6-3.4C104.3,184.2,102.9,185.8,101.4,187.1z M123.1,185.9l-2.7-3.4c2.7-2.4,4.5-5.6,5.4-9.5l4,0.7
			c-0.4,1.8-0.9,3.5-1.6,5.1c2.1,1.1,4,2.4,5.8,3.9l-2.4,3.7c-1.7-1.6-3.5-3-5.2-4.2C125.4,183.6,124.3,184.9,123.1,185.9z"/>
		<path fill="#757679" d="M155.2,165.2v4h-1.4v32.7h-3.8v-7.3c-2.8,1.2-5.6,2.2-8.7,3l-1-4c0.8-0.2,1.6-0.4,2.3-0.5v-24h-1.8v-4
			H155.2z M149.9,174v-4.9h-3.5v4.9H149.9z M149.9,182.6v-4.7h-3.5v4.7H149.9z M149.9,190.4v-4h-3.5v5.4
			C147.7,191.4,148.8,190.9,149.9,190.4z M165.6,171.4V185c-0.1,4.7-0.9,8.4-2.3,11.2c-1.4,2.6-3.7,4.6-6.8,6l-2.1-3.3
			c2.9-1.4,4.9-3.1,5.9-5.2c0.6-1.3,1-2.9,1.3-4.6c-1.8,1-3.7,2-5.7,3l-1.1-3.6c0.7-0.5,1.1-1.4,1.1-2.7v-18.1c3.3-1.1,6-2.4,8-3.9
			l2.3,3.3c-1.6,1.2-3.7,2.3-6.5,3.3v15.8c0.8-0.4,1.6-0.8,2.3-1.2v-13.5H165.6z M172,195.2l-0.8-3v9.6h-3.7v-35.5h10v24.2
			c0,3.2-1.2,4.8-3.5,4.8H172z M172.7,191.6c0.7,0,1.1-0.7,1.1-1.9V170h-2.6v21.5L172.7,191.6z"/>
		<path fill="#757679" d="M198.4,165.2v4H197v32.7h-3.8v-7.3c-2.8,1.2-5.6,2.2-8.7,3l-1-4c0.8-0.2,1.6-0.4,2.3-0.5v-24H184v-4H198.4
			z M193.2,174v-4.9h-3.5v4.9H193.2z M193.2,182.6v-4.7h-3.5v4.7H193.2z M193.2,190.4v-4h-3.5v5.4
			C190.9,191.4,192,190.9,193.2,190.4z M208.8,171.4V185c-0.1,4.7-0.9,8.4-2.3,11.2c-1.4,2.6-3.7,4.6-6.8,6l-2.1-3.3
			c2.9-1.4,4.9-3.1,5.9-5.2c0.6-1.3,1-2.9,1.3-4.6c-1.8,1-3.7,2-5.7,3l-1.1-3.6c0.7-0.5,1.1-1.4,1.1-2.7v-18.1c3.3-1.1,6-2.4,8-3.9
			l2.3,3.3c-1.6,1.2-3.7,2.3-6.5,3.3v15.8c0.8-0.4,1.6-0.8,2.3-1.2v-13.5H208.8z M215.2,195.2l-0.8-3v9.6h-3.7v-35.5h10v24.2
			c0,3.2-1.2,4.8-3.5,4.8H215.2z M215.9,191.6c0.7,0,1.1-0.7,1.1-1.9V170h-2.6v21.5L215.9,191.6z"/>
		<path fill="#757679" d="M244.2,167.2c0.2-1.2,0.3-2.5,0.5-3.7l4.4,0.6l-0.4,3h15.8v4h-16.5c-0.2,1.1-0.5,2.1-0.7,3.2h15.2V197
			c0,3.1-1.4,4.7-4.3,4.7h-3.8l-1.1-4.2l3.5,0.1c1,0,1.5-0.6,1.5-1.6v-17.6h-24.5V202h-4.2v-27.6h13.4c0.2-1.1,0.5-2.1,0.7-3.2h-16
			v-4H244.2z M244.2,183.6h3.5c0.8-1.5,1.5-3.1,2.1-4.9l3.9,1.4c-0.6,1.3-1.2,2.4-1.9,3.5h3.7v3.7H248v3.1h8.6v3.7H248v7.1h-4.2
			v-7.1h-8.6v-3.7h8.6v-3.1h-7.4v-3.7h3.7c-0.6-1.2-1.2-2.3-1.9-3.3l3.8-1.4C242.8,180.2,243.5,181.8,244.2,183.6z"/>
		<path fill="#757679" d="M282.1,170v-6.1h4.3v20.2c-0.1,8.1-2.3,14.1-6.8,17.9l-3.3-2.9c2.2-1.9,3.8-4.3,4.8-7.4
			c-3.2,0.7-6.5,1.4-9.9,2l-1.1-4.3c4-0.4,8-1,11.9-1.9c0.1-1.1,0.2-2.3,0.2-3.4v-0.8h-10v-4.1h10v-5.1h-10.9V170H282.1z
			 M296.1,163.9v6.1H307v4.1h-10.9v5.1h10v4.1h-10v5.3h11.6v4.1h-11.6v9.3h-4.4v-38.1H296.1z"/>
		<path fill="#757679" d="M339.9,199.5l-1.1-4l3.1,0.2c0.9,0,1.4-0.5,1.4-1.5V191h-8.9v11h-4.3v-11h-8.9v8.1h-4.2v-11.9h13.1v-2.4
			h-2l-0.9-3.2l1.9,0.2c0.6,0,0.9-0.4,0.9-1.1v-1.1l-2.6,0.7c-0.3-2-0.8-3.9-1.3-5.7l2.3-0.8c0.6,1.6,1.2,3.5,1.6,5.6v-6.6H326v11.6
			h-3.2v-11.6h-4.3v12.1H315v-15.4h3.3c-0.7-1.4-1.6-2.6-2.4-3.7l3-1.5c0.8,1.2,1.6,2.6,2.4,4.2l-2.1,1.1h3.4V164h3.5v5.4h3.3
			l-2.1-1.1c1-1.4,1.8-2.8,2.3-4.1l3.1,1.5c-0.6,1.2-1.4,2.5-2.3,3.7h2.9v4c2.5-2.6,4.1-5.7,4.9-9.3l3.9,0.5c-0.3,1.1-0.6,2.2-1,3.2
			h8.8v3.7h-1.6c-0.9,3-2.1,5.4-3.6,7.5c1.8,1.2,3.9,2.3,6.2,3.3l-2,3.5c-2.6-1.2-4.9-2.6-6.7-4c-1.9,1.6-4.1,2.9-6.6,3.7l-2-3.3
			c2.2-0.7,4.1-1.6,5.7-2.9c-0.9-0.9-1.7-1.8-2.3-2.7l1.8-2.8c0.9,1.1,1.9,2.1,3,3c1.2-1.6,2-3.3,2.7-5.3h-5.1
			c-1.1,1.9-2.5,3.7-4.1,5.3l-2.1-2.7v7.5c0,1.6-0.6,2.6-1.7,3.1h2.6v2.7h13.1v8c0,2.9-1.4,4.3-4.2,4.3H339.9z M322.3,174.6
			c-0.2,2.7-0.5,5.1-1,7.2l-2.7-0.9c0.6-1.9,1-4.1,1.2-6.6L322.3,174.6z"/>
	</g>
	<linearGradient id="SVGID_1_" gradientUnits="userSpaceOnUse" x1="54.7323" y1="83.7609" x2="573.5322" y2="83.7609">
		<stop  offset="0" style="stop-color:#B3B5B8"/>
		<stop  offset="1" style="stop-color:#A9ABAE"/>
	</linearGradient>
	<path fill="url(#SVGID_1_)" d="M54.8,82.5c173-1.4,346,0.4,518.7,5.6c-0.1,0,0.2-2.6,0-2.6c-172.7-5.2-345.7-7-518.7-5.6
		C54.7,79.9,54.8,82.5,54.8,82.5L54.8,82.5z"/>
	<linearGradient id="SVGID_2_" gradientUnits="userSpaceOnUse" x1="58.1191" y1="141.6133" x2="561.3515" y2="141.6133">
		<stop  offset="0" style="stop-color:#B3B5B8"/>
		<stop  offset="1" style="stop-color:#A9ABAE"/>
	</linearGradient>
	<path fill="url(#SVGID_2_)" d="M58.2,140.8c167.5,4.1,335.4,5.1,503.1,3.2c0.1,0,0-2.6,0-2.6c-167.7,1.9-335.6,0.9-503.1-3.2
		C58.3,138.3,58,140.8,58.2,140.8L58.2,140.8z"/>
	<linearGradient id="SVGID_3_" gradientUnits="userSpaceOnUse" x1="54.7323" y1="211.8251" x2="368.9391" y2="211.8251">
		<stop  offset="0" style="stop-color:#B3B5B8"/>
		<stop  offset="1" style="stop-color:#A9ABAE"/>
	</linearGradient>
	<path fill="url(#SVGID_3_)" d="M54.8,210.5c104.8-1.4,209.6,0.4,314.2,5.6c0,0,0.1-2.6,0-2.6c-104.6-5.2-209.4-7-314.2-5.6
		C54.7,208,54.7,210.5,54.8,210.5L54.8,210.5z"/>
	<path fill="#FFFFFF" d="M329.1,249.8c0,0-30.1,44.9-76.8,52.2c0,0,21.5-21.6,13.1-63.7L329.1,249.8z"/>
</g>
<g>
</g>
<g>
</g>
<g>
</g>
<g>
</g>
<g>
</g>
<g>
</g>
<g>
</g>
<g>
</g>
<g>
</g>
<g>
</g>
<g>
</g>
<g>
</g>
<g>
</g>
<g>
</g>
<g>
</g>
</svg>
