<?xml version="1.0" encoding="utf-8"?>
<!-- Generator: Adobe Illustrator 18.0.0, SVG Export Plug-In . SVG Version: 6.00 Build 0)  -->
<!DOCTYPE svg PUBLIC "-//W3C//DTD SVG 1.1//EN" "http://www.w3.org/Graphics/SVG/1.1/DTD/svg11.dtd">
<svg version="1.1" id="Layer_1" xmlns="http://www.w3.org/2000/svg" xmlns:xlink="http://www.w3.org/1999/xlink" x="0px" y="0px"
	 viewBox="0 0 11630.1 1506.8" enable-background="new 0 0 11630.1 1506.8" xml:space="preserve">
<pattern width="280" height="280" patternUnits="userSpaceOnUse" id="pat" viewBox="0 0 280 280" overflow="visible">
	<g>
		<rect width="280" height="280" style="fill:#8bbabb"/><path d="M137,52.71c9.58,0,9.6-14.89,0-14.89s-9.6,14.89,0,14.89Z" style="fill:#7ca6a7"/><path d="M50.25,97.1c9.58,0,9.6-14.89,0-14.89s-9.6,14.89,0,14.89Z" style="fill:#7ca6a7"/><path d="M223.72,101.38c9.58,0,9.6-14.89,0-14.89s-9.6,14.89,0,14.89Z" style="fill:#7ca6a7"/><path d="M137,153.13c9.58,0,9.6-14.89,0-14.89s-9.6,14.89,0,14.89Z" style="fill:#7ca6a7"/><path d="M137.15,247.36c9.58,0,9.6-14.89,0-14.89s-9.6,14.89,0,14.89Z" style="fill:#7ca6a7"/><path d="M50.25,197.51c9.58,0,9.6-14.89,0-14.89s-9.6,14.89,0,14.89Z" style="fill:#7ca6a7"/><path d="M223.72,201.79c9.58,0,9.6-14.89,0-14.89s-9.6,14.89,0,14.89Z" style="fill:#7ca6a7"/>
	</g>
</pattern>
<rect x="161.9" y="0" fill="#CCEAEA" width="11468.3" height="1506.8"/>
<path fill="#719EA0" d="M1396.8,1095c13.4,3,26.9,2.4,39.8-2.2c3.8-1.3,6.6-4.9,5.5-9.1c-0.9-3.6-5.3-6.9-9.1-5.5
	c-10.4,3.6-21,4.8-31.8,2.4C1391.8,1078.6,1387.3,1092.9,1396.8,1095L1396.8,1095z"/>
<path fill="#719EA0" d="M7304.2,1160.7c-13.7,3.3-27.7,3.8-41.2,1c-4-0.8-7-3.4-6.1-6.8c0.8-3,5.1-5.8,9.2-5
	c10.9,2.2,21.9,2.4,33-0.3C7308.7,1147.2,7313.9,1158.3,7304.2,1160.7L7304.2,1160.7z"/>
<path fill="#AADCD5" d="M1652.4,204.5l-6.7-19.3c-1.9-5.6-9.9-5.6-11.8,0l-6.7,19.3c-0.7,2.2-2.6,3.7-4.9,4.1l-14.5,2.3
	c-6.8,1.1-7,10.8-0.3,12.2l17.3,3.5c2.4,0.5,4.2,2.3,4.8,4.6l4.1,17c1.5,6.3,10.6,6.3,12.1,0l4.1-17c0.6-2.3,2.4-4.1,4.8-4.6
	l17.3-3.5c6.8-1.4,6.6-11.1-0.3-12.2l-14.5-2.3C1655.1,208.3,1653.2,206.7,1652.4,204.5z"/>
<path fill="#AADCD5" d="M2013.7,490.1l-6.7-19.3c-1.9-5.6-9.9-5.6-11.8,0l-6.7,19.3c-0.7,2.2-2.6,3.7-4.9,4.1l-14.5,2.3
	c-6.8,1.1-7,10.8-0.3,12.2l17.3,3.5c2.4,0.5,4.2,2.3,4.8,4.6l4.1,17c1.5,6.3,10.6,6.3,12.1,0l4.1-17c0.6-2.3,2.4-4.1,4.8-4.6
	l17.3-3.5c6.8-1.4,6.6-11.1-0.3-12.2l-14.5-2.3C2016.4,493.9,2014.5,492.3,2013.7,490.1z"/>
<path fill="#AADCD5" d="M2182.5,784.8l-6.7-19.3c-1.9-5.6-9.9-5.6-11.8,0l-6.7,19.3c-0.7,2.2-2.6,3.7-4.9,4.1l-14.5,2.3
	c-6.8,1.1-7,10.8-0.3,12.2l17.3,3.5c2.4,0.5,4.2,2.3,4.8,4.6l4.1,17c1.5,6.3,10.6,6.3,12.1,0l4.1-17c0.6-2.3,2.4-4.1,4.8-4.6
	l17.3-3.5c6.8-1.4,6.6-11.1-0.3-12.2l-14.5-2.3C2185.1,788.5,2183.2,787,2182.5,784.8z"/>
<path fill="#AADCD5" d="M3161.2,459.6l-6.7-19.3c-1.9-5.6-9.9-5.6-11.8,0l-6.7,19.3c-0.7,2.2-2.6,3.7-4.9,4.1l-14.5,2.3
	c-6.8,1.1-7,10.8-0.3,12.2l17.3,3.5c2.4,0.5,4.2,2.3,4.8,4.6l4.1,17c1.5,6.3,10.6,6.3,12.1,0l4.1-17c0.6-2.3,2.4-4.1,4.8-4.6
	l17.3-3.5c6.8-1.4,6.6-11.1-0.3-12.2l-14.5-2.3C3163.8,463.4,3161.9,461.8,3161.2,459.6z"/>
<path fill="#AADCD5" d="M2672.9,76.8l-6.7-19.3c-1.9-5.6-9.9-5.6-11.8,0l-6.7,19.3c-0.7,2.2-2.6,3.7-4.9,4.1l-14.5,2.3
	c-6.8,1.1-7,10.8-0.3,12.2l17.3,3.5c2.4,0.5,4.2,2.3,4.8,4.6l4.1,17c1.5,6.3,10.6,6.3,12.1,0l4.1-17c0.6-2.3,2.4-4.1,4.8-4.6
	l17.3-3.5c6.8-1.4,6.6-11.1-0.3-12.2l-14.5-2.3C2675.5,80.6,2673.7,79,2672.9,76.8z"/>
<path fill="#AADCD5" d="M3464.7,811.3l-6.7-19.3c-1.9-5.6-9.9-5.6-11.8,0l-6.7,19.3c-0.7,2.2-2.6,3.7-4.9,4.1l-14.5,2.3
	c-6.8,1.1-7,10.8-0.3,12.2l17.3,3.5c2.4,0.5,4.2,2.3,4.8,4.6l4.1,17c1.5,6.3,10.6,6.3,12.1,0l4.1-17c0.6-2.3,2.4-4.1,4.8-4.6
	l17.3-3.5c6.8-1.4,6.6-11.1-0.3-12.2l-14.5-2.3C3467.4,815,3465.5,813.5,3464.7,811.3z"/>
<path fill="#AADCD5" d="M3543.9,190.5l-6.7-19.3c-1.9-5.6-9.9-5.6-11.8,0l-6.7,19.3c-0.7,2.2-2.6,3.7-4.9,4.1l-14.5,2.3
	c-6.8,1.1-7,10.8-0.3,12.2l17.3,3.5c2.4,0.5,4.2,2.3,4.8,4.6l4.1,17c1.5,6.3,10.6,6.3,12.1,0l4.1-17c0.6-2.3,2.4-4.1,4.8-4.6
	l17.3-3.5c6.8-1.4,6.6-11.1-0.3-12.2l-14.5-2.3C3546.5,194.2,3544.6,192.6,3543.9,190.5z"/>
<path fill="#AADCD5" d="M4903,763.2l-6.7-19.3c-1.9-5.6-9.9-5.6-11.8,0l-6.7,19.3c-0.7,2.2-2.6,3.7-4.9,4.1l-14.5,2.3
	c-6.8,1.1-7,10.8-0.3,12.2l17.3,3.5c2.4,0.5,4.2,2.3,4.8,4.6l4.1,17c1.5,6.3,10.6,6.3,12.1,0l4.1-17c0.6-2.3,2.4-4.1,4.8-4.6
	l17.3-3.5c6.8-1.4,6.6-11.1-0.3-12.2l-14.5-2.3C4905.6,767,4903.7,765.4,4903,763.2z"/>
<path fill="#AADCD5" d="M1454,605.8l-9.5-27.6c-2.7-8-14.1-8-16.8,0l-9.5,27.6c-1.1,3.1-3.7,5.3-7,5.9l-20.7,3.3
	c-9.7,1.6-10,15.4-0.4,17.4l24.6,5.1c3.4,0.7,6,3.3,6.8,6.6l5.9,24.2c2.2,9,15.1,9,17.3,0l5.9-24.2c0.8-3.3,3.5-5.9,6.8-6.6
	l24.6-5.1c9.7-2,9.4-15.8-0.4-17.4l-20.7-3.3C1457.7,611.2,1455,608.9,1454,605.8z"/>
<path fill="#AADCD5" d="M2637.2,701.3l-9.5-27.6c-2.7-8-14.1-8-16.8,0l-9.5,27.6c-1.1,3.1-3.7,5.3-7,5.9l-20.7,3.3
	c-9.7,1.6-10,15.4-0.4,17.4l24.6,5.1c3.4,0.7,6,3.3,6.8,6.6l5.9,24.2c2.2,9,15.1,9,17.3,0l5.9-24.2c0.8-3.3,3.5-5.9,6.8-6.6
	l24.6-5.1c9.7-2,9.4-15.8-0.4-17.4l-20.7-3.3C2641,706.6,2638.3,704.4,2637.2,701.3z"/>
<path fill="#AADCD5" d="M4223.7,574.8l-9.5-27.6c-2.7-8-14.1-8-16.8,0l-9.5,27.6c-1.1,3.1-3.7,5.3-7,5.9l-20.7,3.3
	c-9.7,1.6-10,15.4-0.4,17.4l24.6,5.1c3.4,0.7,6,3.3,6.8,6.6l5.9,24.2c2.2,9,15.1,9,17.3,0l5.9-24.2c0.8-3.3,3.5-5.9,6.8-6.6
	l24.6-5.1c9.7-2,9.4-15.8-0.4-17.4l-20.7-3.3C4227.5,580.2,4224.8,577.9,4223.7,574.8z"/>
<path fill="#AADCD5" d="M4778.4,123.7l-6.7-19.3c-1.9-5.6-9.9-5.6-11.8,0l-6.7,19.3c-0.7,2.2-2.6,3.7-4.9,4.1l-14.5,2.3
	c-6.8,1.1-7,10.8-0.3,12.2l17.3,3.5c2.4,0.5,4.2,2.3,4.8,4.6l4.1,17c1.5,6.3,10.6,6.3,12.1,0l4.1-17c0.6-2.3,2.4-4.1,4.8-4.6
	l17.3-3.5c6.8-1.4,6.6-11.1-0.3-12.2l-14.5-2.3C4781,127.5,4779.1,125.9,4778.4,123.7z"/>
<path fill="#AADCD5" d="M9875.3,170.5l7-20.2c2-5.9,10.3-5.9,12.4,0l7,20.2c0.8,2.3,2.8,3.9,5.1,4.3l15.2,2.5
	c7.2,1.2,7.4,11.3,0.3,12.8l-18.1,3.7c-2.5,0.5-4.4,2.4-5,4.8l-4.3,17.8c-1.6,6.6-11.1,6.6-12.7,0l-4.3-17.8c-0.6-2.4-2.6-4.3-5-4.8
	l-18.1-3.7c-7.1-1.5-6.9-11.6,0.3-12.8l15.2-2.5C9872.6,174.4,9874.6,172.7,9875.3,170.5z"/>
<path fill="#AADCD5" d="M6963.8,123.7l6.7-19.3c1.9-5.6,9.9-5.6,11.8,0l6.7,19.3c0.7,2.2,2.6,3.7,4.9,4.1l14.5,2.3
	c6.8,1.1,7,10.8,0.3,12.2l-17.3,3.5c-2.4,0.5-4.2,2.3-4.8,4.6l-4.1,17c-1.5,6.3-10.6,6.3-12.1,0l-4.1-17c-0.6-2.3-2.4-4.1-4.8-4.6
	l-17.3-3.5c-6.8-1.4-6.6-11.1,0.3-12.2l14.5-2.3C6961.2,127.5,6963,125.9,6963.8,123.7z"/>
<path fill="#AADCD5" d="M8928.5,159.3l9.5-27.6c2.7-8,14.1-8,16.8,0l9.5,27.6c1.1,3.1,3.7,5.3,7,5.9l20.7,3.3
	c9.7,1.6,10,15.4,0.4,17.4l-24.6,5.1c-3.4,0.7-6,3.3-6.8,6.6l-5.9,24.2c-2.2,9-15.1,9-17.3,0l-5.9-24.2c-0.8-3.3-3.5-5.9-6.8-6.6
	l-24.6-5.1c-9.7-2-9.4-15.8,0.4-17.4l20.7-3.3C8924.7,164.6,8927.4,162.3,8928.5,159.3z"/>
<path fill="#AADCD5" d="M8316.7,725.6l9.5-27.6c2.7-8,14.1-8,16.8,0l9.5,27.6c1.1,3.1,3.7,5.3,7,5.9l20.7,3.3
	c9.7,1.6,10,15.4,0.4,17.4l-24.6,5.1c-3.4,0.7-6,3.3-6.8,6.6l-5.9,24.2c-2.2,9-15.1,9-17.3,0l-5.9-24.2c-0.8-3.3-3.5-5.9-6.8-6.6
	l-24.6-5.1c-9.7-2-9.4-15.8,0.4-17.4l20.7-3.3C8312.9,730.9,8315.6,728.7,8316.7,725.6z"/>
<path fill="#AADCD5" d="M7898.5,361.2l6.6-19.2c1.9-5.6,9.8-5.6,11.8,0l6.6,19.2c0.7,2.2,2.6,3.7,4.9,4.1l14.5,2.3
	c6.8,1.1,7,10.7,0.3,12.1l-17.2,3.5c-2.4,0.5-4.2,2.3-4.8,4.6l-4.1,16.9c-1.5,6.3-10.5,6.3-12.1,0l-4.1-16.9
	c-0.6-2.3-2.4-4.1-4.8-4.6l-17.2-3.5c-6.7-1.4-6.5-11,0.3-12.1l14.5-2.3C7895.9,364.9,7897.7,363.3,7898.5,361.2z"/>
<path fill="#AADCD5" d="M7247.4,679l6.6-19.2c1.9-5.6,9.8-5.6,11.8,0l6.6,19.2c0.7,2.2,2.6,3.7,4.9,4.1l14.5,2.3
	c6.8,1.1,7,10.7,0.3,12.1l-17.2,3.5c-2.4,0.5-4.2,2.3-4.8,4.6l-4.1,16.9c-1.5,6.3-10.5,6.3-12.1,0l-4.1-16.9
	c-0.6-2.3-2.4-4.1-4.8-4.6l-17.2-3.5c-6.7-1.4-6.5-11,0.3-12.1l14.5-2.3C7244.7,682.7,7246.6,681.1,7247.4,679z"/>
<path fill="#AADCD5" d="M7702.5,885l6.6-19.2c1.9-5.6,9.8-5.6,11.8,0l6.6,19.2c0.7,2.2,2.6,3.7,4.9,4.1l14.5,2.3
	c6.8,1.1,7,10.7,0.3,12.1l-17.2,3.5c-2.4,0.5-4.2,2.3-4.8,4.6l-4.1,16.9c-1.5,6.3-10.5,6.3-12.1,0l-4.1-16.9
	c-0.6-2.3-2.4-4.1-4.8-4.6l-17.2-3.5c-6.7-1.4-6.5-11,0.3-12.1l14.5-2.3C7699.9,888.7,7701.8,887.2,7702.5,885z"/>
<path fill="#AADCD5" d="M9629.6,637.7l9.5-27.6c2.7-8,14.1-8,16.8,0l9.5,27.6c1.1,3.1,3.7,5.3,7,5.9l20.7,3.3
	c9.7,1.6,10,15.4,0.4,17.4l-24.6,5.1c-3.4,0.7-6,3.3-6.8,6.6l-5.9,24.2c-2.2,9-15.1,9-17.3,0l-5.9-24.2c-0.8-3.3-3.5-5.9-6.8-6.6
	l-24.6-5.1c-9.7-2-9.4-15.8,0.4-17.4l20.7-3.3C9625.8,643.1,9628.5,640.8,9629.6,637.7z"/>
<path fill="#AADCD5" d="M11320.6,107.9l9.5-27.6c2.7-8,14.1-8,16.8,0l9.5,27.6c1.1,3.1,3.7,5.3,7,5.9l20.7,3.3
	c9.7,1.6,10,15.4,0.4,17.4l-24.6,5.1c-3.4,0.7-6,3.3-6.8,6.6l-5.9,24.2c-2.2,9-15.1,9-17.3,0l-5.9-24.2c-0.8-3.3-3.5-5.9-6.8-6.6
	l-24.6-5.1c-9.7-2-9.4-15.8,0.4-17.4l20.7-3.3C11316.9,113.2,11319.6,111,11320.6,107.9z"/>
<path fill="#AADCD5" d="M11162.3,729.8l7.3-21.1c2.1-6.1,10.8-6.1,12.9,0l7.3,21.1c0.8,2.4,2.9,4.1,5.4,4.5l15.9,2.6
	c7.5,1.2,7.7,11.8,0.3,13.3l-18.8,3.9c-2.6,0.5-4.6,2.5-5.2,5l-4.5,18.6c-1.7,6.9-11.6,6.9-13.2,0l-4.5-18.6c-0.6-2.5-2.7-4.5-5.2-5
	l-18.8-3.9c-7.4-1.5-7.2-12.1,0.3-13.3l15.9-2.6C11159.5,733.9,11161.5,732.1,11162.3,729.8z"/>
<path fill="#AAD7DB" d="M368,1267.2h523.6v-26.9l-164.3-53.7c-73.3-24-160.4-26.3-236.9-6.5l-49.8,12.9
	c-35.8,9.3-73.9,13.7-111.8,13.3l-4.2,60.8H368z"/>
<path fill="url(#pat)" d="M10929.8,1025.7l-10.6-9.6c-64.7-58.5-159.4-69.1-235.4-26.5v0
	c-59.2,33.2-131,34.6-191.5,3.8l-16.3-8.3c-78.2-39.9-173.1-25-235.4,36.9c-40.2,40-104.6,41.5-146.7,3.5l-10.3-9.3
	c-64.7-58.5-159.4-69.1-235.4-26.5v0c-59.2,33.2-131,34.6-191.5,3.8l-16.3-8.3c-78.2-39.9-173.1-25-235.4,36.9
	c-42.8,42.5-111.3,44.1-156.1,3.7l-10.6-9.6c-64.7-58.5-159.4-69.1-235.4-26.5v0c-59.2,33.2-131,34.6-191.5,3.8l-16.3-8.3
	c-78.2-39.9-173.1-25-235.4,36.9c-53.3,53-138.8,55-194.6,4.6l-11.6-10.5c-64.7-58.5-159.4-69.1-235.4-26.5v0
	c-59.2,33.2-131,34.6-191.5,3.8l-16.3-8.3c-78.2-39.9-173.1-25-235.4,36.9c-42.8,42.5-111.3,44.1-156.1,3.7l-10.6-9.6
	c-64.7-58.5-159.4-69.1-235.4-26.5v0c-59.2,33.2-131,34.6-191.5,3.8l-16.3-8.3c-78.2-39.9-173.1-25-235.4,36.9v0
	c-36.1,35.9-94,37.3-131.8,3.1l-10-9c-64.7-58.5-159.4-69.1-235.4-26.5l0,0c-59.2,33.2-131,34.6-191.5,3.8l-16.3-8.3
	c-78.2-39.9-173.1-25-235.4,36.9l0,0c-42.8,42.5-111.3,44.1-156.1,3.7l-10.6-9.6c-64.7-58.5-159.4-69.1-235.4-26.5l0,0
	c-59.2,33.2-131,34.6-191.5,3.8l-16.3-8.3c-78.2-39.9-173.1-25-235.4,36.9h0c-53.3,53-138.8,55-194.6,4.6l-11.6-10.5
	c-64.7-58.5-159.4-69.1-235.4-26.5l0,0c-59.2,33.2-131,34.6-191.5,3.8l-16.3-8.3c-78.2-39.9-173.1-25-235.4,36.9l0,0
	c-42.8,42.5-111.3,44.1-156.1,3.7l-10.6-9.6c-64.7-58.5-159.4-69.1-235.4-26.5l0,0c-59.2,33.2-131,34.6-191.5,3.8l-16.3-8.3
	c-78.2-39.9-173.1-25-235.4,36.9c-40.2,40-104.6,41.5-146.7,3.5l-10.3-9.3c-64.7-58.5-159.4-69.1-235.4-26.5v0
	c-59.2,33.2-131,34.6-191.5,3.8l-16.3-8.3c-78.2-39.9-173.1-25-235.4,36.9h0c-42.8,42.5-111.3,44.1-156.1,3.7l-10.6-9.6
	c-64.7-58.5-159.4-69.1-235.4-26.5l0,0c-59.2,33.2-131,34.6-191.5,3.8l-16.3-8.3c-78.2-39.9-173.1-25-235.4,36.9l0,0
	c-53.3,53-138.8,55-194.6,4.6l-11.6-10.5c-64.7-58.5-159.4-69.1-235.4-26.5l0,0c-59.2,33.2-131,34.6-191.5,3.8l-16.3-8.3
	c-78.2-39.9-173.1-25-235.4,36.9l0,0c-42.8,42.5-111.3,44.1-156.1,3.7l-10.6-9.6c-64.7-58.5-159.4-69.1-235.4-26.5l0,0
	c-59.2,33.2-131,34.6-191.5,3.8l-16.3-8.3c-78.2-39.9-173.1-25-235.4,36.9L0,1167.1h343.7h59.5h319.7h146.4h319.7h59.5h359.2h106.9
	h359.2h59.5h319.7h146.4h319.7h59.5h310h156h310h59.5h319.7H4280h319.7h59.5h359.2h106.9h359.2h59.5h319.7H6010h319.7h59.5h294.7
	h171.3h294.7h59.5h319.7h146.4h319.7h59.5h359.2h106.9h359.2h59.5h319.7h146.4h319.7h59.5h310h156h310h59.5h319.7h94.1v-113.9
	C10992.2,1059.1,10956.7,1050,10929.8,1025.7z"/>
<path fill="#84B8B9" d="M8886,755.2l6.2-18.2c1.8-5.3,9.2-5.3,11,0l6.2,18.2c0.7,2,2.5,3.5,4.6,3.9l13.6,2.2
	c6.4,1,6.6,10.2,0.2,11.5l-16.1,3.3c-2.2,0.5-4,2.2-4.5,4.3l-3.9,16c-1.4,6-9.9,6-11.4,0l-3.9-16c-0.5-2.2-2.3-3.9-4.5-4.3
	l-16.1-3.3c-6.3-1.3-6.1-10.4,0.2-11.5l13.6-2.2C8883.5,758.7,8885.3,757.2,8886,755.2z"/>
<path fill="#AADCD5" d="M10542.2,208.2l6.9-20.2c2-5.9,10.3-5.9,12.3,0l6.9,20.2c0.8,2.3,2.7,3.9,5.1,4.3l15.1,2.5
	c7.1,1.2,7.3,11.3,0.3,12.8l-17.9,3.7c-2.5,0.5-4.4,2.4-5,4.8l-4.3,17.8c-1.6,6.6-11,6.6-12.6,0l-4.3-17.8c-0.6-2.4-2.5-4.3-5-4.8
	l-17.9-3.7c-7-1.5-6.8-11.6,0.3-12.8l15.1-2.5C10539.5,212.1,10541.4,210.5,10542.2,208.2z"/>
<path fill="#AADCD5" d="M10736.8,874l6.9-20.2c2-5.9,10.3-5.9,12.3,0l6.9,20.2c0.8,2.3,2.7,3.9,5.1,4.3l15.1,2.5
	c7.1,1.2,7.3,11.3,0.3,12.8l-17.9,3.7c-2.5,0.5-4.4,2.4-5,4.8l-4.3,17.8c-1.6,6.6-11,6.6-12.6,0l-4.3-17.8c-0.6-2.4-2.5-4.3-5-4.8
	l-17.9-3.7c-7-1.5-6.8-11.6,0.3-12.8l15.1-2.5C10734,877.9,10736,876.3,10736.8,874z"/>
<path fill="#84B8B9" d="M8694.7,457.8l6-17.4c1.7-5,8.8-5,10.6,0l6,17.4c0.7,1.9,2.3,3.4,4.4,3.7l13,2.1c6.1,1,6.3,9.7,0.2,11
	l-15.4,3.2c-2.1,0.4-3.8,2.1-4.3,4.2l-3.7,15.3c-1.4,5.7-9.5,5.7-10.8,0l-3.7-15.3c-0.5-2.1-2.2-3.7-4.3-4.2l-15.4-3.2
	c-6.1-1.3-5.9-10,0.2-11l13-2.1C8692.3,461.1,8694,459.7,8694.7,457.8z"/>
<g>
</g>
<g>
</g>
<g>
</g>
<g>
</g>
<g>
</g>
<g>
</g>
<g>
</g>
<g>
</g>
<g>
</g>
<g>
</g>
<g>
</g>
<g>
</g>
<g>
</g>
<g>
</g>
<g>
</g>
</svg>
