<?xml version="1.0" encoding="utf-8"?>
<!-- Generator: Adobe Illustrator 18.0.0, SVG Export Plug-In . SVG Version: 6.00 Build 0)  -->
<!DOCTYPE svg PUBLIC "-//W3C//DTD SVG 1.1//EN" "http://www.w3.org/Graphics/SVG/1.1/DTD/svg11.dtd">
<svg version="1.1" id="Layer_1" xmlns="http://www.w3.org/2000/svg" xmlns:xlink="http://www.w3.org/1999/xlink" x="0px" y="0px"
	 viewBox="0 0 698.5 515.5" enable-background="new 0 0 698.5 515.5" xml:space="preserve">
<g>
	<path fill="#FFDC5D" d="M591.4,201.7C511.2,120.6,405.6,45.5,286.7,10.1C247.3-1.7,202.9-4.1,158.1,7.9
		C118.1,18.6,79,41.8,45.3,66.7c-10.4,7.7-20.4,16-29.5,25.1c-1.4,1.4-19.6,22.5-15,22.3c5.1-0.4,10.4-1.3,15.6-2.3
		c126.5-24.2,191.2,106.3,239.1,199.6c55.5,108.1,124.4,218.7,265,202.4c23.2-2.7,45.8-9.1,67.4-18c7.1-2.9,14.1-6.2,21-9.5
		c28.6-13.5,53.3-36.1,68-65.9C720.2,332.9,642.3,253.3,591.4,201.7z"/>
	<g>
		<polygon fill="#FFC235" points="595.3,403.9 594.6,403 591.7,404.5 		"/>
		<path fill="#FFC235" d="M564.2,402.3c-2.9,0.8-8.3,0.4-8.8,2.4c1.8-0.3,3.6-0.5,5.4-0.8c0.4,1.6,3.9,2,6.9,1.9l-3.4-0.3
			c0.9-0.1,0.5-1.1,1.4-1.2c1.2,0.4,2.3,0.5,3.2,0.6c0.9,0,1.7-0.1,2.5-0.1c1.6-0.1,3.1-0.1,5.4,0.9l-0.3,0.1
			c1.3-0.2,2.5-0.6,3.8-0.9c1.2,0.2,0.7,1,0.3,1.2c1.7-0.4,3.1-0.8,4.7-1.2c0.4-0.1,0.8-0.1,1.2-0.2c0.4-0.1,0.9-0.2,1.3-0.3
			c0.9-0.2,1.9-0.3,3-0.3c-1.8-1.3-4.2-0.5-6.7,0c-2.4,0.5-4.9,1.1-6.6-0.3l0.3-0.1c-2.2,0.4-4.5,0-6.8-0.3l-1.7-0.3
			c-0.6-0.1-1.1-0.2-1.7-0.3C566.4,402.4,565.3,402.3,564.2,402.3z"/>
		<path fill="#FFC235" d="M580.6,405.9c-0.1,0-0.2,0-0.3,0.1C580.3,406.1,580.4,406,580.6,405.9z"/>
		<path fill="#FFC235" d="M430.9,312.6l-0.5,0.1C430.8,312.9,431.1,313,430.9,312.6z"/>
		<path fill="#FFC235" d="M465.5,357.2c-0.1-0.1-0.1-0.1-0.2-0.2C464.6,357.2,464.9,357.3,465.5,357.2z"/>
		<path fill="#FFC235" d="M206.9,103.4l-0.8-1C206.1,103,206.4,103.3,206.9,103.4z"/>
		<path fill="#FFC235" d="M132.3,82.5c0,0-0.1,0-0.1,0C132.2,82.5,132.3,82.5,132.3,82.5z"/>
		<path fill="#FFC235" d="M164.9,97.5l0,0.6C165.1,97.8,165.1,97.7,164.9,97.5z"/>
		<path fill="#FFC235" d="M141,93.7c-0.6-0.3-1.3-0.5-1.9-0.6C139.5,93.5,140.3,93.7,141,93.7z"/>
		<path fill="#FFC235" d="M133.1,82.4c-0.2,0.1-0.5,0.1-0.8,0.1C132.6,82.5,132.9,82.5,133.1,82.4z"/>
		<path fill="#FFC235" d="M199.1,110.3l0.3,1.7C199.5,111.6,199.3,110.9,199.1,110.3z"/>
		<path fill="#FFC235" d="M135,94.1c-0.3-0.3-0.7-0.5-1.2-0.7C134,93.7,134.4,94,135,94.1z"/>
		<path fill="#FFC235" d="M559.4,401.7c0.7,0.1,1.4,0.3,2.4,0.2C560.9,401.7,560.2,401.6,559.4,401.7z"/>
		<path fill="#FFC235" d="M311,187.6c-0.2,0-0.5,0-0.7,0.1C310.7,188,310.9,187.8,311,187.6z"/>
		<path fill="#FFC235" d="M248.4,137.7l-0.2-0.1c0,0.1,0.1,0.2,0.1,0.4L248.4,137.7z"/>
		<path fill="#FFC235" d="M267.8,150.8c-0.1,0-0.3,0-0.4,0.1C267.6,150.9,267.7,150.8,267.8,150.8z"/>
		<path fill="#FFC235" d="M232.6,129.9c-0.3,0-0.6,0-1,0L232.6,129.9z"/>
		<path fill="#FFC235" d="M218.5,120.5c0.4,0.8-0.5,0.9-1.5,1c1.7,1.3,3.1,1.6,4.4,2.1c1.3,0.5,2.7,1,4.3,2.7l-1.4-1.6
			c1.5,0.2,3.4,0.9,5.2,1.8c1.7,0.9,3.3,2.2,4,3.4l-0.9,0c2.9,0.3,5.5,4.3,6.9,4.1c-0.6-1.1,0.6-0.9-0.6-2.3l6.5,2.6l-0.6,2l3.4,1.3
			c-0.3-1.2,3.7,3.2,4.8,1.7c1.3,1.7-1.6,0.8-2.6,1.1c2,0.6,1.7,1.5,3.9,1.5l0.7,2.6l5,2c-0.3,0-0.1,0.3-0.4,0.3
			c2.8,0.2,4.5,4.2,8.5,4c-0.2,0-0.2,0.1-0.3,0.1c2.2-0.1,4.9,3.2,6,4.3c2.4,1.4,1.9-0.7,2.5-1.2c3,2.6,4,3.5,5.1,4.1
			c1.1,0.5,2.3,0.7,5.5,2.1c1.7,4.2-5.9-0.2-3,4.2c1.2-0.4,4.5,1.1,7.8,3.4c2.3,3,6.5,7.3,8.1,10.8l0.7-1.3l4.3,2.8l-3.6-0.4
			c0.9,0.2,3.5,1.2,5.2,1.8c4.7,2.7,0,4.4,4.6,5.6c0,0.2,0,0.4,0,0.6c1.8,0.1,4,2.8,7.1,5.3l-2.3,0.4l-1.6-2.1
			c-0.3,2.3,3.3,2.8,5,4.6c2.3,1.4,2.5-0.6,3.8,0c0.6,0.7,2,1.4,2.2,2.3c1.2,2.1-1.4,1.7-2.5,1.8c2.8,0.1,3.1,0.7,6.8,3.4
			c-0.5,0.8-1,0.8-1.5,0.5c0.8,0.5,1.7,0.8,2.6,0.6l0.3,1.8c2.4,4.8,6,1.3,9.7,6.2c-1.9-0.5,3.8,3.7,4.1,5.9c-1.6-1.4-1.4,2.6-3,2.4
			c2.7,4.1,2.9,0,5.9,2.7l-2.8,0.3c3.3,2.2,1.5-0.1,4.7,2.3c-1.2-0.4,0.7,1.7-1.4,0.5c3.1,4,2.4,2.9,5.1,6.4l1.9-1.2
			c1.2,1,0.8,2,0.7,2.6c-0.4-0.4-1-1.2-1.2-1c-0.3,2.6,2.7,1.5,2.6,4.2c0.2-0.8,0.6-1.9,1.9-0.6c-1.4,0.4,0.8,3,0.5,3.5
			c0-1.5,2.9,2.8,4.2,2c0.5,2.3-1.3,0.2-1.9,0.5c2.5,0.3,4.9,5.7,6.7,6.3c-0.1,0.1-0.1,0.2-0.2,0.3c2.2,1.1,4.8,3.9,8.7,6.5l-2-0.4
			c2.4,3.9,3.8,0.5,6.1,3.5c-1.9,0.5,3.9,4.9,1.3,4.8c2.2,1.2,4,2.8,6.2,3c0.5,2.3-4.5-1.7-3.1,0.9l2.7,2l-0.4,1.1
			c0.7-0.3,2.4,1.9,2.8,1.4c-0.6,1.1-0.5,2.6-1.3,3.1c1.5,1.4,2.3,4.4,4.2,5.1l-0.4,0.5c2.9,0.2,4.1,4.7,6.5,4.1l-0.2,1.7
			c2.1,2.3,3.5,0.5,4.8,1.3c0.8,0.9,1.9,2,2.6,3.1c-3.6-2.3-0.2,2.7-0.3,3.9c0.9,1.3,4,4.9,5.7,5.2c-2.1-0.8-2.1,0.7-4.3-1.9
			c-0.6,2.8,3.7,3.8,5.8,7l-0.8,0.6c4,3.9,5.5,2.9,8.4,3.6c-0.6,1.3-1.2,1.1-3.2,0.7c1.7,3.4,6.1,7.3,8.6,10.5
			c0.2,1.6-0.8,1.3-2,0.5c3.5,2.6,6.1,7.5,9.6,8c-1.4-0.2,0.7,1.7,1.4,3.2c0.3-0.3,1-0.5,1.1-0.3c2.4,1.4,7,5,8.5,7.8l-1.2-0.3
			c2.3,2.7,4.7,3.9,7.1,5.3c2.4,1.3,4.7,2.8,6.9,6.1c0.7,1.3-2.3,0.4-0.2,2.3c1.6,0.3,2.4-1.2,4.7,1.5l-1.2,0.9l2.8,0.5
			c-0.1-1.8-3.3-4.1-0.3-3.3c1.4,3.2,2.9,0.9,4.8,4.6c-0.8-0.5-2.4-0.4-3.3-0.3c2.5,3.3,4.9,4.9,7.3,6.5c1.2,0.8,2.5,1.5,3.7,2.5
			c1.3,1,2.5,2.2,3.9,3.8c2,0.7,4.1,1.9,6.1,2.9c2,1,3.9,1.8,5.3,2.2c-1,1.1-1.7,2.2-4,2.1c2.9,2.1,6,0.3,6.9,3.4
			c1.3-0.4,3.5,0.6,5.7,1.4c2.2,0.9,4.4,1.4,5.5,0.4c-0.2,0.6,3.3,1.8-0.7,1.5c4.6,1.5,4.3,5.3,6.3,6.2c1.1,0.5-0.4-2.2,2.1-1
			c0.3,0.3,0.2,0.6,0.5,0.8l1.3-0.1c0.7,1.1-1.7,0.7-2.1,1.3c1.6,1.1,3.3,1.5,5,1.8c1.8,0.2,3.7,0.4,5.8,1.2l-0.9,0.1
			c1.4,0.7,2.8,1.4,4.3,1.9l-0.3,0.1l3.9,0.4l-0.4,0.7c0.9,0.1,1.2-0.2,2.4,0.1l-0.7,0.7c1.6-0.8,6.1-0.2,8.2,0.4l0.3,0.5l2.7-0.1
			c0.9-0.1,1.8-0.2,2.7-0.2c2.4,1.6-3.9,1.2,1.5,1.9l-1.8,1.5c2,0.1,3,0.5,3.9,0.8c0.9,0.3,1.7,0.6,3,0.6c-1-1.1-2.8-1.5-1.3-1.9
			c2.5,2.7,4.9,0.4,7.8,0.1c-1.4-0.2-2.4-0.4-3.6,0.4c-1.5-0.3-0.3-1.1-1.3-1.3l-2.4,0.6l-0.3-1.4l-3.9,0c0.6-1.4-3.3-1-1.5-2.2
			c-2.7,0-3.8-1.5-6.5-0.8c-1.4-1.4,3-0.2,1.2-0.9c-10.3-1.9-20.3-6.4-29.7-11.9c0.4,0,0.8-0.1,1.3-0.1c-1.3,0.1-2.7-0.1-3.7,0
			c-0.5-1-2.2-2.7-4.1-4c-1.9-1.4-4-2.5-5.7-2.2c-0.2-0.3,0.4-0.3,0.7-0.3c-1.6-0.8-3.6-2.4-5.7-4.3c-2.1-1.8-4.3-3.7-6.5-5.1
			c-1.6,0.3-2.9-1.1-4.3-2.5c-1.4-1.3-2.7-2.7-4.5-2l1.3,0.1c0.8,1.8-3.4,0.2-4.4,0.3c0.2-2.6,0.9-1.3,0.8-3.9l1.1,1.9l0.7-1.6
			c-4-0.3-6-2.7-7.6-5c-1.7-2.3-2.9-4.5-5.5-4.7c0.3,0,0.4-0.2,0.8-0.1c-1.3-2.6-4.3-2.2-6.1-3.2c0.4-0.8,1.8-0.2,3.1,0.1
			c-1.5-1.9-4.1-3.9-6.7-5.9c-2.6-2.1-5.1-4.4-6.4-6.7c-2.1-0.6-0.7,1.6-2.6,0.8c-0.9-1.4-1-2.9,0.8-1.9c-1.5-4.8-11.3-10.3-14.4-17
			c-3.4-2-2.3,0.2-6.7-3.7c1.5,0.5,1.3-2.9,3.6-0.3l1-0.3c-3.5-4.5-8-10.6-11.9-11.4c1.4-1.3-0.4-1-0.9-3.4
			c-0.7-0.6-0.2,0.2-0.1,0.6c-2.6-0.6-1.9-2.5-3-3.5l0.6,0.2l-3.4-2.5c-0.2-0.7-0.6-1.7-0.2-2.2l-1,0.8c-1.4-1.7,0.7-1.9-1.3-3.8
			l-0.4,1.1c-0.6-1.7-3.4-3.1-2.4-4.3c0.2-0.2,0.3,0.1,0.7,0.6c-0.1-3.4-4.8-5.2-6.1-8.5l-1.2,2c-2.5-2.2-0.9-1.9-0.2-2.2
			c-1.3-1.7-1.1-2.6-2.7-5c-1.3-0.8-1.1-0.1-1.9-0.1l-1.4-2.7l2.1,0.8c-5.2-1.7-6.7-9.3-10.8-10c-0.6-1.7,2,0.4,1.6-0.6
			c-2.2-5.2-9-8.3-10.6-12.9c-1.7-3.4-4.2-6.5-6.8-9.6c-2.7-3.1-5.4-6.3-7.7-9.7l-0.3,0.5l-3.5-4.7c-2-0.4-4.2-3.7-6.9-4.6
			c0.5-0.2,0.7-1,1.3-0.8c-1.8-1.7-4-3.3-4.5-5l0.9,0.3c-1.7-2.2-3.9-4.6-6-6.8c-2.1-2.1-4.1-3.8-5.5-4.5c-1.4-1.3-0.6-2-0.5-2.8
			c-2.1-2.4-4.1-3.4-6.6-4.7c-0.3-0.7-0.6-1.3-0.8-2.3l-1.8,0.1c-0.8-1.1,0.6-1,0.1-2c-2.3-1.2-4.3-3-6-4.9
			c-1.7-1.9-3.1-3.7-4.4-4.9l-0.1,0.8c-1.4-0.6-2.8-3.2-1.1-2.6c-2.2-2.7-4.5-4-7-5.5c-2.6-1.4-5.3-3.1-8.7-6.3
			c0.7-2.8-6.8-4.9-6.1-8c-3.5-1.9-4.8-4.5-8-4.9c0.1-0.3-0.1-0.6,0.4-0.2c-0.6-1.8-5.2-4.4-8.8-6.2l0.3-0.8
			c-2.3,0.6-7.5-3.9-9.7-3.2c-0.1-0.6,1.1-0.2,1.7-0.1c-0.6-2.7-3.4-1.4-5.4-3.3c0.4-0.3,0.1-1.1,0.7-1.1c-1.5-1.7-3.4-3.3-5.6-4.7
			c-2.2-1.4-4.7-2.8-7.2-4.2c-5.1-2.7-10.5-5.5-15.2-9c-2.7-1.7,0,2.3-3.5,0.1c-0.6-1.4,2.7-0.6,0.6-2.3c-2.3,0.1-2.8-0.5-5-1.8
			c0.7-0.3,0.5-0.9,2.3-0.4c-0.5-0.7-2.1-1.1-3.7-1.7c-1.7-0.6-3.5-1.4-4.5-2.7c-0.1,0.6-0.8,0.6-1.4,0.7c-2.3-0.3-4.4-1.7-6-3.1
			c-1.6-1.3-2.7-2.5-3.1-2.2c0,0-1.5-0.4-0.4,0.3c-1.4-0.7-3.4-1.9-2.7-2.6c-1,0.1-2,0.5-3.2,0.1l1.1-0.7c-0.8-0.1-1.8,0.2-2.5,0
			l0.8,1c-1.3-1.5-5.5-0.9-4.6-2.8l0.6,0.2l-2.8-2.2c-0.8,0.1-1.6,0.2-2.4,0.2c-0.9,0-1.8-0.2-2.8-0.8c-0.1-2.3-5.4-2.6-8.1-3.7
			l0.4-0.7c-2.5,0.2-8-2.1-7.1-1.4c-0.5-0.2-1.1-0.4-1.6-0.6c-0.5-0.2-1.1-0.5-1.5-0.7c-0.8-0.5-1.2-0.9-0.5-1
			c-1.9-0.1-5.6-1.2-6.9-0.3c-1-0.9-2.1-1.8-3.1-2.7c-2.8,2-7-2.7-7.8,0c-1.9-0.9-1.3-1.4-2.6-2.1c-3.1,0.8-5.9-0.1-8.8-0.8l0-0.3
			c-1.4-0.4-3.1-0.3-4.9-0.3c-1.8,0.1-3.7,0.1-5.8,0l-0.6-2.2c-2.2,0-2.9,1.6-4.9,0.9c-0.4-0.4,0-0.4,0.6-0.5
			c-1,0.1-2.2-0.1-3.3-0.4c-1.1-0.2-2.2-0.6-2.9-0.9c-3.3,1.3-5.6,0.5-8.5,2.1c-1.2-1-0.3-1.2,0.7-1.3c1-0.1,2-0.2,1-1.2
			c-2.2-0.6-4.5-0.6-6.8-0.5c-2.3,0.2-4.7,0.6-7.2,1.1c-0.4-0.4,0.1-0.7,0.3-1.2c0,0-2.5,1.3-4.7,2.9c-2.2,1.6-4.1,3.4-3.2,4.4
			c-1.2,1.5-2.5,2.3,1.6,3.4c1.3-0.9,5.1-1.9,5.8-0.4l0.2-1.5c2.7-0.4,2.8,0.4,3.1,1.2c0.3,0.9,0.6,1.8,3.9,1.9l-1.4-0.5
			c1.2-0.1,2.2-1,3.6-0.5c0.4,0.4-0.5,0.6-1,0.9c1.8-0.6,3.6-1.3,5.5-1.8c0.2,0.9-0.1,1.3-1.2,1.9c4.9,0.3-0.8-2.8,5.2-1.8
			c1,0.7-0.5,0.9-1.3,1.3c1.3,0.7,2.5,0.8,3.7,0.7c1.2-0.1,2.4-0.6,3.9-0.8c-0.1,1.3-2,0.9,0.3,2.1c-0.4-0.7-0.6-1.9,1.3-1.9
			c-1,1.2,1.3,0.9,3,1.4c-0.3-0.5-0.1-1.1,0.6-1.3c0.9-0.1,1.6,0.5,2.8,0.6l-2-1.6c3.3-0.9,4.7,1.4,6.9,2.3
			c-0.2,0.2-0.7,0.3-1.1,0.3c1.2,0.5,2.3,1.1,3.6,1.5c1.3,0.4,2.7,0.6,4.3,0.4l-0.3,0.1c6-0.1-1.4-2.6,5.6-2.4c2.2,0.7-2,4,3.4,3.6
			c-2.1-1.7,3.9-1.9,6.9-1.6L161,97c1.2,0.3,3.3,0.1,3.9,0.5l0-0.6c0.2-1.1,1.1-0.8,2.3-0.3c1.2,0.5,2.6,1.2,3.8,0.9
			c-3.4,2.1-3.4,1.5-4.6,4.3c2.4-1,5.1-1.7,8.7-0.4l-3.7,1.3c1.2,0.5,2.5,0.7,3.8,0.8c1.4,0.1,2.8,0.2,4.2,0.1
			c2.8-0.1,5.7-0.6,8-0.8c-1.6,1.2-0.2,2.4-2.4,3.1l4.7,1.4l-1.9,1.3c2.5-1.1,4.1,0.9,4.7-1.5c-0.6,0.1-0.7,0.4-1.5,0
			c0.4-0.7,1.7-1.8,4.1-0.8c1.4,1.2-1.3,0.5-1.1,1.4c1.9-0.4,1.4,1.2,3.2,1.2l-1-1.6c1.6-0.9,2.6,1,4.4,1c-2.1-0.2-1.8,0.8-1.4,1.9
			l0-0.2c1.2,0.4,3,0.1,3.5,1.2l-1.7,1.4l2.2-0.6c0.5,0.5,0.7,1.3-0.5,1.2c4.6,3.4,1.6-4,7.5,0.7c-0.4,0.6-1.4,0.7-3-0.5
			c-0.8,1-0.6,1.8,1,3c0,0.1-0.1,0.1-0.1,0.2c1.7,0.8,3.7,1.7,5.5,2.5C215.3,120,217.1,120.6,218.5,120.5z"/>
		<path fill="#FFC235" d="M207.9,116.7c-1.8-0.9-3.4-1.6-4.2-1.7C203.9,115.6,207.5,117.9,207.9,116.7z"/>
		<path fill="#FFC235" d="M424.9,321.4c-0.2-0.2-0.4-0.3-0.6-0.5C424.5,321.1,424.7,321.2,424.9,321.4z"/>
		<path fill="#FFC235" d="M436.2,333.4c0-0.3-0.1-0.6-0.2-0.9C435.6,332.7,435.6,333.1,436.2,333.4z"/>
		<path fill="#FFC235" d="M328,203.7C328,203.8,328,203.8,328,203.7C328,203.8,328,203.8,328,203.7z"/>
		<path fill="#FFC235" d="M386.9,274.9c1.4,0.8,2.1,0.9,2.6,0.6C388.8,274.9,388,274.6,386.9,274.9z"/>
		<path fill="#FFC235" d="M368.4,249.7c-0.2-0.1-0.4-0.2-0.6-0.3C368.2,249.7,368.3,249.7,368.4,249.7z"/>
		<path fill="#FFC235" d="M323.9,201c1.4,0.5,2.7,1.9,4.1,2.8C326.8,203,325.4,200.7,323.9,201z"/>
		<path fill="#FFC235" d="M451.6,346.5c-0.6-0.1-1.3-0.3-1.9-0.5c0.6,0.2,1.1,0.5,1.7,0.7L451.6,346.5z"/>
		<path fill="#FFC235" d="M440.5,335.9c-0.3-0.7-2.6-2.2-2.5-1.3C438.9,334.8,439.7,335.4,440.5,335.9z"/>
		<polygon fill="#FFC235" points="403.8,290 402.5,290.2 404,290.7 		"/>
	</g>
	<g>
		<polygon fill="#FFC235" points="488.5,413.4 488.1,412.4 486.5,413.8 		"/>
		<path fill="#FFC235" d="M470.8,412.1c-0.8,0.5-2,0.8-3.1,1.2c-1,0.5-1.9,1-2.1,2c0.5-0.2,1.1-0.4,1.6-0.7l1.6-0.8
			c0.2,1.6,2.2,1.7,3.9,1.4l-1.9-0.1c0.5-0.2,0.3-1.2,0.8-1.3c1.4,0.5,2.4,0.3,3.3,0.1c0.9-0.2,1.8-0.3,3.1,0.6l-0.2,0.2l2.2-0.9
			c0.7,0.3,0.4,1,0.2,1.3c0.5-0.2,0.9-0.4,1.4-0.6c0.4-0.2,0.9-0.4,1.3-0.6c0.9-0.3,1.9-0.6,3.2-0.6c-1.1-1.4-2.4-0.8-3.8-0.1
			c-1.4,0.6-2.8,1-3.8-0.4l0.2-0.2c-1.2,0.5-2.6,0.3-3.9,0C473.4,412.2,472.1,411.8,470.8,412.1z"/>
		<path fill="#FFC235" d="M480.1,415c-0.1,0-0.1,0-0.2,0.1C480,415.2,480.1,415.1,480.1,415z"/>
		<path fill="#FFC235" d="M390.2,368.7l-0.4,0.3C390.1,368.9,390.3,368.9,390.2,368.7z"/>
		<path fill="#FFC235" d="M411.4,393.3c0,0-0.1-0.1-0.1-0.1C410.7,393.5,410.9,393.5,411.4,393.3z"/>
		<path fill="#FFC235" d="M284.2,228.1l0-0.9C283.9,227.7,283.9,228,284.2,228.1z"/>
		<path fill="#FFC235" d="M251,197.9L251,197.9C251,197.9,251,197.9,251,197.9z"/>
		<path fill="#FFC235" d="M261.4,217.2l-0.3,0.5C261.3,217.5,261.4,217.4,261.4,217.2z"/>
		<path fill="#FFC235" d="M249.9,209.4c-0.2-0.3-0.5-0.7-0.8-0.9C249.2,208.9,249.5,209.2,249.9,209.4z"/>
		<path fill="#FFC235" d="M251.5,198c-0.2,0-0.3,0-0.5-0.1C251.2,197.9,251.4,198,251.5,198z"/>
		<path fill="#FFC235" d="M275.6,232.6l-0.7,1.4C275.2,233.7,275.4,233.1,275.6,232.6z"/>
		<path fill="#FFC235" d="M246.5,208.3c0-0.3-0.1-0.6-0.3-0.8C246.2,207.8,246.2,208.1,246.5,208.3z"/>
		<path fill="#FFC235" d="M468.1,411.9c0.4,0,0.8,0,1.4-0.1C469,411.6,468.5,411.7,468.1,411.9z"/>
		<path fill="#FFC235" d="M321.5,296.5c-0.2,0-0.4,0-0.6,0.1C321.1,296.8,321.3,296.7,321.5,296.5z"/>
		<path fill="#FFC235" d="M295.4,258.3l-0.1-0.1c0,0.1-0.1,0.2-0.1,0.3L295.4,258.3z"/>
		<path fill="#FFC235" d="M303.6,269c-0.1,0-0.2,0-0.4,0C303.4,269.1,303.5,269,303.6,269z"/>
		<path fill="#FFC235" d="M288,251.2c-0.2,0-0.4-0.1-0.7,0L288,251.2z"/>
		<path fill="#FFC235" d="M283.1,242.8c-0.1,0.7-0.8,0.6-1.5,0.6c1,2.3,2.9,1.7,3.5,4.5l-0.2-1.4c1.9,0.5,4,2.7,3.7,4.8l-0.7,0
			c1.9,0.5,1.7,3.7,2.9,3.6c0.1-0.9,0.8-0.6,0.7-1.8c1.1,0.8,2.3,1.6,3.4,2.4l-1.4,1.5l1.8,1.2c0.3-0.9,1.2,2.6,2.7,1.5
			c0.1,1.4-1.5,0.5-2.4,0.7c1.2,0.6,0.5,1.2,2.1,1.4l-0.7,2l2.8,1.7c-0.2,0-0.2,0.2-0.4,0.2c2,0.2,1.3,3.4,4.5,3.3
			c-0.1,0-0.2,0.1-0.3,0.1c1.7,0,2.3,2.5,2.5,3.4c1.2,1.1,1.8-0.4,2.4-0.8c2.2,4,1.5,2.8,5.4,4.8c-0.6,3.2-4.5-0.3-4.1,3
			c1.1-0.3,2.9,0.9,4.6,2.6c0.5,2.2,2,5.4,1.8,8l1.1-1l2.3,2l-2.7-0.2c0.7,0.1,2.3,0.9,3.4,1.3c2.7,1.9-1.7,3.2,1.5,4
			c-0.1,0.2-0.2,0.3-0.3,0.4c1.4,0,2.1,1.9,3.7,3.7l-2,0.3l-0.5-1.5c-1.1,1.7,1.6,1.9,2.3,3.2c1.4,0.9,2.2-0.5,3.1-0.1
			c0.2,0.5,1.1,0.9,0.9,1.6c0.3,1.4-1.8,1.3-2.6,1.4c2.2-0.1,2.3,0.4,4.3,2.2c-0.7,0.6-1.1,0.7-1.5,0.5c0.5,0.3,1.1,0.5,1.9,0.3
			l-0.4,1.3c0.3,3.3,4.5,0.6,6,3.8c-1.4-0.2,1.9,2.4,1.5,4c-0.9-0.9-1.9,2-3.3,2c1,2.7,2.5-0.3,4.1,1.4l-2.4,0.5
			c2.1,1.3,1.3-0.2,3.2,1.2c-0.9-0.1,0.1,1.2-1.3,0.5c1.5,2.6,1.2,1.8,2.5,4.1l2-1.1c0.7,0.6,0.1,1.4-0.1,1.8
			c-0.2-0.3-0.5-0.8-0.7-0.6c-1,1.9,1.8,0.7,1.1,2.7c0.4-0.6,1-1.5,1.8-0.7c-1.3,0.5-0.1,2.1-0.5,2.5c0.4-1.1,1.7,1.6,3,0.9
			c-0.1,1.6-1.1,0.3-1.8,0.7c2-0.2,2.7,3.4,4.1,3.6c-0.1,0.1-0.1,0.2-0.2,0.2c1.6,0.4,3.1,2.1,5.9,3.2l-1.6,0
			c1.1,2.5,3.1-0.3,4.4,1.4c-1.7,0.7,2.3,2.8,0.1,3.2c1.6,0.4,2.9,1.2,4.6,0.9c0,1.6-3.4-0.3-2.8,1.4l1.9,0.9l-0.6,0.9
			c0.6-0.4,1.7,0.8,2.1,0.4c-0.7,1-0.9,2.1-1.7,2.6c1,0.7,1.2,2.7,2.6,2.8l-0.4,0.4c1.2-0.3,1.9,0.4,2.5,0.9c0.6,0.6,1.2,1,2.3,0.5
			l-0.5,1.3c1.3,1.2,2.9-0.5,3.8-0.3c0.5,0.5,1.3,1,1.6,1.7c-2.6-0.8-0.6,2.1-0.8,2.9c0.6,0.7,2.6,2.6,3.9,2.4
			c-1.6,0-1.8,1.1-3.2-0.3c-0.9,2.3,2.4,1.9,3.7,3.7l-0.8,0.7c2.7,1.8,4.1,0.7,6.3,0.4c-0.7,1.2-1.1,1.2-2.7,1.4
			c0.9,2.1,4,3.8,5.6,5.6c-0.1,1.2-0.8,1.2-1.7,1c2.4,1.1,4,4,6.6,3.3c-1.1,0.3,0.4,1.1,0.8,2c0.3-0.4,0.8-0.7,0.9-0.6
			c1.7,0.3,4.9,1.7,5.7,3.5l-0.9,0.1c0.7,0.7,1.5,1.2,2.3,1.4c0.8,0.3,1.7,0.4,2.5,0.6c1.6,0.3,3.2,0.8,4.5,2.8
			c0.4,0.8-1.8,1-0.4,1.9c1.1-0.2,1.9-1.8,3.3-0.2l-1,1.1l2-0.4c0.1-1.4-2-2.4,0.1-2.6c0.7,2.2,2.1-0.2,3,2.4
			c-0.5-0.2-1.7,0.4-2.3,0.7c0.4,0.5,0.7,0.9,1.1,1.3c0.4,0.3,0.8,0.6,1.2,0.8c0.8,0.5,1.6,0.8,2.4,1c1.6,0.6,3.1,1.2,4.7,3.1
			c2.7,0.1,5.4,1.5,7.3,1.2c-0.8,1.3-1.4,2.4-2.9,3c1.8,1.1,4.1-1.5,4.4,1.1c0.9-0.7,2.3-0.3,3.7-0.2c1.4,0.1,2.8,0.2,3.6-1.1
			c-0.2,0.6,1.9,0.9-0.6,1.5c2.8,0.2,2.3,3.8,3.5,4.2c0.7,0.2-0.1-2,1.4-1.5c0.1,0.2,0.1,0.5,0.2,0.6l0.8-0.4
			c0.4,0.8-1.2,1.1-1.5,1.7c1,0.7,2,0.6,3.1,0.5c1.1-0.1,2.3-0.3,3.6-0.1l-0.6,0.3l2.6,0.9l-0.2,0.1l2.4-0.3l-0.3,0.7
			c0.5-0.1,0.8-0.5,1.5-0.3l-0.5,0.8c1-1.1,3.7-1.3,4.9-1l0.1,0.5l3.2-1.1c1.3,1.2-2.4,1.8,0.8,1.6l-1.2,1.7
			c2.3-0.3,2.5,0.7,4.1,0.3c-0.5-1-1.6-1.1-0.7-1.8c1.4,2.4,2.8,0,4.5-0.7c-0.8,0-1.4-0.2-2.1,0.8c-0.9-0.2-0.2-1-0.7-1.2l-1.4,0.8
			l-0.1-1.3l-2.3,0.6c0.4-1.4-1.9-0.5-0.8-1.9c-1.6,0.3-2.1-1-3.8,0.2c-0.8-1.1,1.8-0.7,0.8-1.1c-6-0.1-11.9-2.4-17.4-5.1
			c0.3-0.1,0.5-0.3,0.8-0.4c-0.8,0.4-1.7,0.6-2.4,0.9c-0.5-1.6-3.6-4.5-5.8-3.1c-0.1-0.2,0.3-0.4,0.5-0.4c-1-0.3-2.1-1.3-3.4-2.3
			c-0.6-0.5-1.3-1-1.9-1.4c-0.6-0.5-1.3-0.9-2-1.2c-2.2,1.4-3.1-3.4-5.7-1.2l0.9-0.2c0.4,1.3-2.4,1.2-3.1,1.6c0.4-2.2,0.8-1.4,1-3.6
			l0.6,1.2l0.7-1.6c-2.7,0.9-4-0.5-4.9-1.8c-0.9-1.4-1.6-2.9-3.5-2.2c0.2-0.1,0.3-0.3,0.6-0.4c-0.7-1.7-2.9-0.5-4.2-0.7
			c0.4-0.8,1.4-0.7,2.3-1c-0.9-1-2.6-1.8-4.3-2.7c-1.7-0.8-3.4-1.8-4.1-3.3c-1.6,0.2-0.7,1.5-2.1,1.4c-0.5-0.9-0.4-2,0.8-1.7
			c-0.2-0.8-0.7-1.5-1.5-2.1c-0.4-0.3-0.8-0.6-1.3-0.9c-0.5-0.3-0.9-0.6-1.4-0.9c-2-1.3-4.1-2.6-4.9-4.7c-2.4-0.5-1.8,0.8-4.8-0.8
			c1.1-0.1,1.4-2.6,2.9-1.3l0.8-0.5c-2.2-2.3-4.8-5.6-8-5.1c1.3-1.4-0.2-0.7-0.2-2.3c-0.5-0.2-0.2,0.2-0.1,0.5
			c-2,0.2-1.2-1.4-1.9-1.8l0.4,0l-2.4-0.9c-0.1-0.5-0.2-1.1,0.2-1.6l-1,0.9c-0.8-0.9,0.8-1.6-0.4-2.5l-0.5,0.9
			c-0.2-1.1-2.2-1.4-1.3-2.5c0.2-0.2,0.2,0,0.5,0.2c0.5-2.5-3.1-2.6-3.6-4.7l-1.3,1.7c-1.7-1-0.4-1.2,0.2-1.6c-0.8-1-0.4-1.6-1.3-3
			c-0.9-0.3-0.9,0.2-1.5,0.4l-0.6-1.6l1.6,0.1c-4.1-0.1-3.7-5.3-7-4.9c-0.1-1.2,1.6-0.1,1.5-0.8c-0.7-3.3-5.8-4.2-6-7.3
			c-1.2-4.3-5.2-7.3-7-11.7l-0.4,0.4l-1.5-3c-1.6,0-2.3-2.2-4.4-2.5c0.4-0.2,0.9-0.8,1.3-0.7c-0.9-1.1-2.3-2-2.1-3.1l0.7,0.1
			c-1.4-2.8-3.8-6.4-5.6-7.2c-0.7-0.8,0.2-1.4,0.6-2c-0.9-1.5-2.1-2.2-3.7-3c0-0.5,0-0.9,0.2-1.6l-1.6,0.2c-0.2-0.7,0.9-0.8,0.8-1.5
			c-3-1.5-3.5-5-4.7-6.6l-0.4,0.6c-0.9-0.4-1-2.3,0.2-1.8c-1.5-3.8-5-3.7-7.7-8.3c1.7-2-3.3-3.6-1.4-5.8c-1.9-1.5-1.7-3.3-4-3.7
			c0.2-0.2,0.2-0.4,0.4-0.2c0.4-1.3-2-3.3-3.9-4.8l0.6-0.6c-2,0.4-3.8-3.1-5.8-2.7c0.2-0.4,0.9-0.1,1.3,0c0.7-2-1.9-1.2-2.5-2.7
			c0.4-0.2,0.6-0.8,1.1-0.8c-0.7-2.6-2.8-5-5.1-7.4c-1.2-1.2-2.4-2.4-3.5-3.7c-1.1-1.3-2.2-2.7-2.9-4.2c-1.1-1.5-1.1,1.8-2.5-0.2
			c0.3-1.1,2.2-0.3,1.6-1.7c-1.6-0.1-1.7-0.6-2.5-1.8c0.7-0.2,0.8-0.6,1.8-0.1c0-1.2-3.5-1.9-3.4-4.2c-0.4,0.4-0.8,0.4-1.3,0.4
			c-2.9-0.8-2.6-5.4-3.4-5c0,0-0.8-0.5-0.4,0.2c-0.6-0.7-1.3-1.9-0.4-2.3c-0.7,0-1.6,0.2-2.1-0.3l1.1-0.4c-0.5-0.2-1.3-0.1-1.7-0.3
			l0,0.9c-0.1-1.4-3.1-1.5-1.5-2.8l0.3,0.2l-0.7-2.1c-1.1,0-2.3,0-3.1-1.2c1.2-1.9-2.1-2.8-3.1-4.1l0.6-0.5
			c-1.7-0.2-3.8-2.9-3.7-2.2c-0.9-0.9-1.9-2.5-0.9-2.5c-1-0.4-2.7-1.9-4-1.4l-0.4-2.8c-1.4,0.6-2-0.3-2.5-1.1c-0.6-0.8-1-1.4-2-0.4
			c-0.6-1.1,0-1.4-0.3-2.3c-2.2,0-3.3-1.3-4.5-2.5l0.1-0.3c-1.2-1.2-3.7-1.3-5.7-2.6l0.8-2c-1.2-0.5-2.4,0.7-3.2-0.4
			c0-0.4,0.2-0.4,0.6-0.3c-1.2-0.3-2.2-1.7-2.7-2.6c-2.3,0.2-3.3-0.9-5.5-0.4c-0.2-2.3,2.2,0.4,2.2-1.7c-1.7-2.2-4.5-2.8-7.5-3.3
			c0-0.5,0.4-0.6,0.8-0.9c0,0-1.9,0.4-3.8,1.1c-1.9,0.7-3.7,1.8-3.7,2.9c-1.3,0.9-2.3,1.3-0.8,3.4c1-0.4,3.4-0.2,3,1.4l0.8-1.2
			c3,0.9-1.2,2.7,1.9,4.6l-0.4-0.8c0.6,0.3,1.6-0.2,2,0.6c0,0.5-0.5,0.4-1,0.5l3.7-0.1c-0.4,0.8-0.7,1.1-1.6,1.4
			c2.4,1.4,1-2.6,3.6-0.3c0.2,0.9-0.7,0.6-1.3,0.8c0.7,1.9,2.1,1.6,4,1.8c-0.7,1.1-1.5,0.4-0.9,1.8c0.2-0.7,0.7-1.8,1.6-1.3
			c-1.2,0.8,0.2,1,0.9,1.9c0.1-0.5,0.5-1,1-0.9c0.5,0.1,0.6,0.8,1.2,1.2c-0.1-0.6-0.1-1.2-0.2-1.8c2.2,0,1.8,2.2,2.5,3.5
			c-0.2,0.1-0.5,0.1-0.8,0c0.8,1.3,1.3,3,3.4,3.2l-0.2,0c3.4,1.1,0.6-2.4,4.4-0.9c0.8,1-3.2,3,0,3.6c-0.4-1.8,3.3-0.9,4.9-0.1
			l-3,0.8c0.5,0.5,1.9,0.7,2,1.2l0.3-0.5c1.4-1.7,1.4,1.7,3.3,1.5c-3.2,1.2-2.8,0.7-5,2.7c1.9-0.4,4-0.7,5.4,1.1l-2.9,0.4
			c1.7,2.4,6.5,2.2,9.6,2.6c-1.7,0.7-1.4,1.9-3.2,2.2l2.2,1.7l-1.9,0.7c2.2-0.5,2.1,1.3,3.7-0.6c-0.5,0-0.6,0.2-1-0.2
			c0.6-0.5,2-1.2,3-0.1c0.2,1.1-1.1,0.2-1.4,0.9c1.4,0,0.3,1.1,1.4,1.3l0.2-1.4c1.5-0.5,1.1,1.1,2.3,1.4c-1.2-0.4-1.6,0.4-1.9,1.3
			l0.1-0.2c0.5,0.5,1.9,0.5,1.6,1.4l-1.9,0.9l1.8-0.2c0.1,0.5-0.2,1.1-1,0.9c1.3,3.2,3.1-2.9,4.6,1.4c-0.6,0.4-1.3,0.4-1.7-0.7
			c-1,0.7-1.3,1.3-0.9,2.5c-0.1,0.1-0.1,0.1-0.2,0.2C279.4,240.4,281.2,242.5,283.1,242.8z"/>
		<path fill="#FFC235" d="M278,238.7c-0.7-0.9-1.4-1.6-1.9-1.7C275.9,237.4,277.1,239.5,278,238.7z"/>
		<path fill="#FFC235" d="M384.3,377.2c-0.2-0.1-0.3-0.1-0.5-0.2C384,377.1,384.1,377.1,384.3,377.2z"/>
		<path fill="#FFC235" d="M391.8,383.2c0.1-0.2,0-0.4-0.1-0.7C391.4,382.9,391.3,383.2,391.8,383.2z"/>
		<path fill="#FFC235" d="M329.3,307.7L329.3,307.7L329.3,307.7z"/>
		<path fill="#FFC235" d="M360,352c1,0.3,1.6,0.2,2.1-0.1C361.6,351.6,360.9,351.6,360,352z"/>
		<path fill="#FFC235" d="M349.6,337c-0.1,0-0.3-0.1-0.4-0.1C349.4,337,349.5,337,349.6,337z"/>
		<path fill="#FFC235" d="M326.9,305.8c1,0.3,1.6,1.3,2.4,1.8C328.6,307.2,328.3,305.6,326.9,305.8z"/>
		<polygon fill="#FFC235" points="402.2,388.8 400.8,389.1 402,389.1 		"/>
		<path fill="#FFC235" d="M394.8,383.8c-0.1-0.4-1.8-1-1.8-0.3C393.8,383.5,394.3,383.7,394.8,383.8z"/>
		<polygon fill="#FFC235" points="371.5,359.3 370.4,359.7 371.6,359.7 		"/>
	</g>
	<g>
		<polygon fill="#FFC235" points="633.1,476.9 633.9,477.6 634.6,475.6 		"/>
		<path fill="#FFC235" d="M647.3,467.9c0.5-1.8,2.2-4.2,0.8-5.8c-0.2,1.1-0.5,2.1-0.8,3.1c-1.3-1-2.6,0.3-3.4,1.6
			c0.4-0.4,0.9-0.8,1.3-1.2c-0.2,0.5,0.6,1,0.4,1.5c-2.6,1.1-1.9,3.2-4.9,3.4l0-0.2l-1,2c-0.6,0.2-0.9-0.6-0.9-0.9
			c-0.5,0.8-0.9,1.6-1.4,2.4c-0.5,0.7-1.2,1.4-2.3,2c1.5,0.7,2.4-0.5,3.2-1.7c0.8-1.2,1.5-2.4,3.1-1.8l0,0.2
			c0.6-1.1,1.7-1.7,2.9-2.3C645.5,469.6,646.7,469,647.3,467.9z"/>
		<path fill="#FFC235" d="M638.8,471.4c0-0.1,0.1-0.1,0.1-0.1C638.9,471.2,638.8,471.3,638.8,471.4z"/>
		<path fill="#FFC235" d="M693.8,394.6l-0.4-0.2C693.6,394.5,693.7,394.7,693.8,394.6z"/>
		<path fill="#FFC235" d="M678.8,420.2l0.1-0.1C678.4,419.7,678.5,419.8,678.8,420.2z"/>
		<path fill="#FFC235" d="M651.8,245.7l0.1-0.9C651.6,245.4,651.6,245.6,651.8,245.7z"/>
		<path fill="#FFC235" d="M623.2,218.6L623.2,218.6C623.2,218.6,623.2,218.6,623.2,218.6z"/>
		<path fill="#FFC235" d="M631.1,236.6l-0.3,0.5C631.1,236.9,631.2,236.7,631.1,236.6z"/>
		<path fill="#FFC235" d="M621.1,229.6c-0.2-0.3-0.4-0.6-0.6-0.9C620.5,229.1,620.8,229.4,621.1,229.6z"/>
		<path fill="#FFC235" d="M623.7,218.6c-0.2,0-0.3,0-0.5,0C623.4,218.6,623.5,218.6,623.7,218.6z"/>
		<path fill="#FFC235" d="M643.4,250.3l-0.8,1.4C642.9,251.3,643.1,250.8,643.4,250.3z"/>
		<path fill="#FFC235" d="M618.1,228.6c0-0.3,0-0.6-0.2-0.8C617.8,228.1,617.8,228.4,618.1,228.6z"/>
		<path fill="#FFC235" d="M649.2,466.2c-0.3,0.3-0.6,0.5-0.8,1C648.8,466.9,649.1,466.6,649.2,466.2z"/>
		<path fill="#FFC235" d="M677.7,308.6c-0.2,0-0.4,0-0.6,0C677.3,308.8,677.5,308.8,677.7,308.6z"/>
		<path fill="#FFC235" d="M659.9,273.2l-0.1-0.1c0,0.1-0.1,0.1-0.1,0.3L659.9,273.2z"/>
		<path fill="#FFC235" d="M666.2,283c-0.1,0-0.2,0-0.4,0C666.1,283,666.2,283,666.2,283z"/>
		<path fill="#FFC235" d="M653.6,267c-0.2,0-0.4-0.1-0.7,0L653.6,267z"/>
		<path fill="#FFC235" d="M649.7,259.4c-0.2,0.6-0.8,0.6-1.5,0.6c0.7,2.1,2.7,1.4,3,3.9c0-0.4,0-0.9,0-1.3c1.7,0.4,3.4,2.4,3,4.3
			l-0.6,0c1.8,0.4,1.2,3.4,2.4,3.2c0.2-0.8,0.9-0.6,0.8-1.6l1.5,1l1.5,1.1l-1.5,1.4l1.5,1.1c0.4-0.8,0.8,2.4,2.4,1.4
			c0,1.3-1.5,0.5-2.4,0.6c1,0.5,0.4,1.1,1.9,1.2l-0.9,1.8c0.9,0.5,1.6,1,2.4,1.6c-0.2,0-0.2,0.2-0.4,0.2c1.9,0.3,0.8,3.1,3.8,3.1
			c-0.1,0-0.2,0-0.3,0.1c1.6,0,1.8,2.3,1.9,3.1c0.9,1,1.8-0.3,2.4-0.6c1.4,3.8,0.9,2.6,4.3,4.6c-1.1,2.8-4.3-0.5-4.5,2.4
			c0.6-0.1,1.2,0.2,1.9,0.6c0.3,0.2,0.7,0.5,1,0.9c0.3,0.3,0.6,0.7,0.9,1.1c0,2,0.7,5,0,7.2l1.3-0.7c0.6,0.7,1.2,1.3,1.7,2
			c-0.8-0.2-1.6-0.4-2.5-0.5c0.6,0.2,1.9,1,2.9,1.5c2.1,2-2.4,2.5,0.3,3.6c-0.1,0.1-0.2,0.2-0.4,0.3c1.3,0.2,1.5,2,2.6,3.7l-2-0.1
			l-0.1-1.3c-0.7,0.6-0.5,1.1,0,1.6c0.4,0.5,1.1,1,1.3,1.6c1,1,2.2,0,3,0.5c0.1,0.5,0.8,1,0.4,1.5c-0.2,1.3-2.1,0.7-2.9,0.6
			c2.1,0.4,2,0.8,3.4,2.7c-0.8,0.4-1.3,0.3-1.5,0.1c0.4,0.4,0.9,0.7,1.7,0.7c-0.3,0.3-0.5,0.7-0.8,1c-0.9,2.8,3.9,1.6,4.1,4.7
			c-1.2-0.6,0.9,2.5-0.1,3.7c-0.5-1-2.6,1-3.8,0.7c-0.2,2.5,2.3,0.5,3.1,2.3l-2.4-0.3c1.3,1.6,1.3,0.2,2.3,2c-0.7-0.4-0.5,0.9-1.4,0
			c0.2,2.5,0.3,1.8,0.4,4l2.2-0.2c0.4,0.7-0.5,1.1-0.9,1.4c-0.1-0.3-0.1-0.8-0.4-0.7c-1.7,1.1,1.3,1.2-0.4,2.5
			c0.7-0.3,1.6-0.7,1.9,0.2c-1.4-0.1-1.1,1.5-1.7,1.7c0.9-0.7,0.7,1.9,2.1,1.9c-0.9,1.2-1.1-0.2-1.8-0.2c1.8,0.7,0.6,3.6,1.6,4.3
			c-0.1,0-0.2,0.1-0.3,0.1c1.1,1,1.5,2.9,3.1,5.1l-1.3-0.7c-0.5,2.3,2.7,1.3,2.7,3.2c-0.9-0.2-0.9,0.6-0.8,1.3c0,0.7,0,1.4-1,1
			c1,1.1,1.5,2.3,3,3.1c-1,1.1-2.5-2.1-3-0.6l0.9,1.6l-1,0.3c0.7,0.1,0.7,1.5,1.3,1.5c-1.2,0.2-2.1,0.8-3,0.7c0.3,1-0.9,2.4,0.1,3.3
			l-0.6,0c2.1,1.1,0.2,3.1,2.4,3.8l-1.3,0.5c0,1.6,2.4,1.5,2.8,2.3c0,0.6,0.2,1.4-0.1,2.1c-1.2-2.2-1.9,0.8-2.8,1.1
			c-0.2,0.8-0.3,3.1,0.7,3.9c-1-1.1-2-0.7-1.9-2.4c-2.3,0.6,0.1,2.6-0.6,4.5l-1-0.2c0.2,2.8,1.9,3.2,3.4,4.8
			c-1.3,0.1-1.6-0.3-2.7-1.3c-1.1,1.6-0.9,4.6-1.6,6.6c-1,0.4-1.4-0.2-1.7-0.9c0.5,2.3-1.4,4.4,0.4,6.4c-0.7-0.8-0.8,0.7-1.5,1.3
			c0.4,0.1,1,0.5,0.9,0.5c0.5,1.5,0.4,4.6-0.9,5.7l-0.4-0.7c-0.8,1.6-0.4,3.1-0.2,4.6c0.2,1.5,0.2,3-1.3,4.5
			c-0.7,0.4-1.4-1.4-1.9-0.1c0.5,1,2.2,1.5,1,2.9l-1.3-0.7l0.9,1.7c1.4-0.1,1.8-2.1,2.5-0.2c-1.9,0.9,0.7,1.9-1.7,3
			c0.1-0.5-0.7-1.5-1.1-2.1c-1.7,1.5-2,2.9-2.3,4.4c-0.4,1.4-0.8,2.9-2.6,4.3c0,2.4-1.2,4.9-1,6.7c-1.2-0.9-2.3-1.6-2.8-3
			c-1.1,1.4,1.3,3.9-1.2,3.8c1.2,1.8-1.7,4.8,0.4,6.8c-0.5-0.3-1.2,1.6-1.3-0.9c-0.7,2.5-3.9,1.1-4.6,2c-0.3,0.6,1.9,0.5,1,1.7
			c-0.2,0.1-0.5-0.1-0.7,0l0.2,0.8c-0.9,0-0.7-1.4-1.3-1.9c-1.7,1.2-0.7,3.6-2.1,5.5l-0.1-0.6l-1.7,1.8l0-0.2
			c-0.2,0.7-0.3,1.4-0.5,2.1l-0.5-0.5c-0.2,0.5,0.1,0.9-0.2,1.4l-0.5-0.8c0.6,1.4-0.4,3.7-1.2,4.5l-0.4-0.1l-0.6,3.2
			c-1.7,0.3-0.2-2.8-1.8-0.3L652,459c-0.9,1.9-1.9,1.4-2.4,2.8c1.1,0.3,1.7-0.5,1.8,0.6c-2.6-0.5-1.5,2.1-2.1,3.8
			c0.6-0.5,1-0.9,0.6-2c0.6-0.5,0.9,0.5,1.3,0.3l0.2-1.6l1.1,0.7c0.3-0.7,0.5-1.4,0.8-2.1c0.9,1.2,1.4-1.2,2,0.5
			c0.6-1.4,1.9-1.3,1.7-3.2c1.3-0.1-0.3,1.8,0.5,1.2c3.1-4.9,7-9.1,10.9-13.5l0.2,0.9c-0.2-0.9-0.2-1.8-0.3-2.4c1.6,0,5-2.4,3.9-4.8
			c0.2-0.1,0.3,0.3,0.4,0.5c0.5-0.9,1.4-1.9,2.5-2.9c1.1-1.1,2.2-2.2,2.8-3.5c-0.7-1.1,0.1-1.8,0.9-2.6c0.7-0.8,1.3-1.6,0.2-2.8
			l0.3,0.8c-1.2,0.4-1.3-2.2-1.9-2.9c2.2,0.3,1.4,0.7,3.6,0.8l-1.2,0.6l1.6,0.6c-1.1-2.6,0-3.8,1.3-4.9c1.3-1,2.5-1.9,1.5-3.6
			c0.1,0.2,0.4,0.3,0.5,0.5c1.5-0.9-0.1-2.8-0.2-4c0.8,0.2,1.1,1.1,1.4,1.9c0.8-1,1.1-2.8,1.4-4.6c0.4-1.7,0.7-3.5,1.9-4.6
			c-0.8-1.3-1.6-0.2-2.1-1.4c0.6-0.7,1.7-1,1.9,0.2c1.4-0.8,1.7-2.9,2-5c0.2-2.2,0.6-4.5,2-6.1c-0.8-2.2-1.6-1.2-1.7-4.3
			c0.6,0.9,2.9,0,2.6,1.7l0.8,0.4c0.9-2.9,2.1-6.8-0.2-8.9c1.9,0.3,0.5-0.5,1.7-1.4c-0.1-0.5-0.3,0-0.4,0.2
			c-1.4-1.4,0.4-1.6,0.2-2.5l0.3,0.3l-0.8-2.3c0.3-0.3,0.7-0.8,1.3-0.8l-1.3-0.2c0.2-1.1,1.8-0.3,1.6-1.8l-1,0.2
			c0.7-0.8-0.5-2.4,1-2.5c0.3,0,0.1,0.2,0.2,0.5c1.1-0.6,1-1.6,0.8-2.6c-0.2-1-0.6-2.1,0-2.9l-2.2,0.3c-0.5-1.8,0.5-1,1.3-0.9
			c0.1-1.2,0.8-1.4,1.1-2.9c-0.5-0.8-0.8-0.4-1.4-0.7l0.6-1.5l1.1,1.1c-1.5-1.3-1.3-2.8-1.2-4.2c0.1-1.4,0.3-2.7-1.1-3.5
			c0.6-0.9,1.3,0.8,1.7,0.3c0.7-1.4,0.1-3-0.4-4.5c-0.5-1.5-1.1-2.9-0.3-4.2c0.7-2,0.5-4,0.2-6.2c-0.3-2.1-0.6-4.3-0.5-6.5l-0.6,0.2
			l-0.1-3.1c-1.4-0.6-1.2-2.7-2.9-3.7c0.5,0,1.1-0.4,1.5-0.2c-0.4-1.2-1.3-2.5-0.7-3.4l0.6,0.3c-0.3-2.9-1.2-6.8-2.6-7.9
			c-0.4-0.9,0.6-1.2,1.2-1.6c-0.4-1.6-1.3-2.5-2.6-3.5c0.1-0.4,0.3-0.8,0.6-1.4l-1.5-0.2c0-0.7,1.1-0.5,1.2-1.1
			c-1.2-1-1.6-2.3-1.9-3.6c-0.3-1.3-0.4-2.5-0.8-3.3l-0.6,0.5c-0.8-0.5-0.4-2.2,0.6-1.6c-0.2-1.8-1.2-2.9-2.3-4
			c-1.1-1.1-2.4-2.4-3.2-4.6c2-1.7-2.4-3.7-0.2-5.5c-1.6-1.5-1.2-3.2-3.3-3.7c0.2-0.2,0.3-0.4,0.5-0.1c0.6-1.2-1.4-3.3-3-4.7
			l0.7-0.5c-2,0.3-3.3-3-5.3-2.7c0.2-0.4,0.9-0.1,1.3,0c1-1.8-1.7-1.2-2-2.5c0.4-0.1,0.7-0.8,1.1-0.7c-0.1-0.6-0.2-1.2-0.5-1.8
			c-0.2-0.6-0.6-1.1-1-1.7c-0.8-1.1-1.7-2.2-2.7-3.3c-1-1.1-2-2.3-3-3.5c-1-1.2-1.8-2.4-2.4-3.8c-0.9-1.4-1.2,1.6-2.4-0.2
			c0.4-1.1,2.2-0.3,1.7-1.6c-1.5-0.1-1.5-0.5-2.2-1.7c0.6-0.2,0.8-0.6,1.7-0.1c0.2-1.1-3.2-1.7-2.9-3.8c-0.4,0.4-0.8,0.4-1.3,0.4
			c-2.7-0.7-2-5-2.8-4.6c0,0-0.7-0.4-0.4,0.2c-0.5-0.7-1.1-1.7-0.3-2.2c-0.7,0-1.5,0.3-2-0.2l1-0.5c-0.4-0.1-1.2,0-1.6-0.2l-0.1,0.9
			c0-1.3-2.8-1.2-1.2-2.6l0.3,0.2l-0.5-1.9c-1.1,0-2.2,0.1-2.8-1c1.3-1.8-1.8-2.5-2.7-3.7l0.6-0.5c-1.6-0.1-3.4-2.6-3.3-1.9
			c-0.8-0.8-1.6-2.3-0.7-2.4c-1-0.4-2.4-1.7-3.6-1.1l-0.2-2.6c-2.6,1.2-2.2-3.2-4.1-1.2c-0.5-1,0.1-1.3-0.1-2.2c-2,0.1-3-1-4.1-2.1
			l0.2-0.3c-1-1.1-3.3-1.2-5-2.4l1-2c-1.1-0.4-2.3,0.7-2.9-0.3c0-0.4,0.3-0.4,0.6-0.3c-1.1-0.3-1.9-1.5-2.2-2.4
			c-2.2,0.3-2.8-0.9-4.9-0.4c0.1-2.3,2,0.4,2.1-1.7c-1.3-2.2-3.8-2.5-6.4-3.2c0-0.5,0.5-0.6,0.8-0.9c0,0-1.8,0.4-3.6,1
			c-1.8,0.7-3.6,1.6-3.7,2.7c-1.3,0.9-2.3,1.2-1.2,3.3c1-0.3,3.2-0.1,2.6,1.4l0.9-1.2c2.7,0.9-1.5,2.7,1.2,4.5l-0.3-0.8
			c0.6,0.3,1.5-0.2,1.8,0.5c-0.1,0.5-0.5,0.4-1,0.5c1.1-0.1,2.3-0.1,3.4-0.1c-0.4,0.8-0.8,1.1-1.6,1.3c2,1.4,1.2-2.5,3.3-0.2
			c0.1,0.9-0.7,0.6-1.3,0.8c0.4,1.9,1.8,1.5,3.5,1.7c-0.8,1.1-1.5,0.4-1,1.8c0.2-0.7,0.8-1.7,1.6-1.3c-1.2,0.8,0.1,1,0.6,1.8
			c0.1-0.5,0.6-0.9,1-0.9c0.5,0.1,0.5,0.7,1,1.1c0-0.6,0-1.2-0.1-1.7c2,0,1.5,2.1,2,3.3c-0.2,0.1-0.5,0.1-0.7,0
			c0.6,1.2,0.9,2.8,2.9,2.9l-0.2,0c3.1,0.9,0.7-2.3,4.2-1c0.7,0.9-3.2,2.9-0.3,3.5c-0.2-1.7,3.1-0.9,4.5-0.3l-2.9,0.9
			c0.4,0.4,1.7,0.6,1.8,1l0.3-0.5c1.4-1.7,1.2,1.5,2.9,1.3c-3,1.3-2.7,0.8-4.9,2.8c1.8-0.5,3.8-0.8,5,0.8c-0.9,0.2-1.8,0.4-2.7,0.6
			c1.5,2.1,5.9,1.8,8.8,2c-1.6,0.8-1.4,1.8-3.1,2.2l2,1.5l-1.8,0.8c2.1-0.6,1.9,1.1,3.6-0.7c-0.4,0-0.6,0.3-0.9-0.1
			c0.6-0.5,2-1.2,2.8-0.2c0.1,1.1-1,0.3-1.4,0.9c1.3-0.1,0.1,1.1,1.2,1.2l0.3-1.3c1.4-0.5,1,1,2.1,1.2c-1.1-0.3-1.5,0.5-1.9,1.3
			l0.1-0.2c0.5,0.4,1.8,0.3,1.4,1.2l-1.8,0.9l1.7-0.3c0,0.4-0.3,1.1-1,0.9c1,2.9,3.2-2.9,4.2,1.1c-0.6,0.4-1.2,0.5-1.6-0.6
			c-1,0.7-1.4,1.3-1,2.3c-0.1,0.1-0.1,0.1-0.2,0.1C646.4,257.3,647.9,259.3,649.7,259.4z"/>
		<path fill="#FFC235" d="M645.2,255.8c-0.7-0.8-1.2-1.4-1.7-1.5C643.4,254.7,644.3,256.7,645.2,255.8z"/>
		<path fill="#FFC235" d="M683.6,393.5c0-0.1-0.1-0.3-0.1-0.4C683.5,393.2,683.5,393.3,683.6,393.5z"/>
		<path fill="#FFC235" d="M681.9,401.4c0.2,0,0.4-0.1,0.6-0.3C682.1,401,681.8,401,681.9,401.4z"/>
		<path fill="#FFC235" d="M681.8,319.5L681.8,319.5L681.8,319.5z"/>
		<path fill="#FFC235" d="M686.7,364.4c0.6,0.7,1.1,1,1.6,1.1C688.2,365.1,687.7,364.7,686.7,364.4z"/>
		<path fill="#FFC235" d="M687.3,349.1c-0.1-0.1-0.2-0.2-0.3-0.3C687.1,349.1,687.2,349.1,687.3,349.1z"/>
		<path fill="#FFC235" d="M680.2,317.5c0.8,0.5,1.1,1.4,1.6,2C681.3,319,681.5,317.6,680.2,317.5z"/>
		<polygon fill="#FFC235" points="680.6,411.4 680,410.3 680.3,411.4 		"/>
		<path fill="#FFC235" d="M682.6,404c0.3-0.2,0.2-1.7-0.5-1.5C682.5,403.1,682.6,403.6,682.6,404z"/>
		<polygon fill="#FFC235" points="690,375.7 689,375.3 689.7,376 		"/>
	</g>
</g>
<g>
</g>
<g>
</g>
<g>
</g>
<g>
</g>
<g>
</g>
<g>
</g>
<g>
</g>
<g>
</g>
<g>
</g>
<g>
</g>
<g>
</g>
<g>
</g>
<g>
</g>
<g>
</g>
<g>
</g>
</svg>
