<?xml version="1.0" encoding="utf-8"?>
<!-- Generator: Adobe Illustrator 18.0.0, SVG Export Plug-In . SVG Version: 6.00 Build 0)  -->
<!DOCTYPE svg PUBLIC "-//W3C//DTD SVG 1.1//EN" "http://www.w3.org/Graphics/SVG/1.1/DTD/svg11.dtd">
<svg version="1.1" id="Layer_1" xmlns="http://www.w3.org/2000/svg" xmlns:xlink="http://www.w3.org/1999/xlink" x="0px" y="0px"
	 viewBox="0 0 384 621.4" enable-background="new 0 0 384 621.4" xml:space="preserve">
<g>
	<rect x="147.4" y="201.8" fill="#669585" width="93.8" height="419.6"/>
	<g>
		<polygon fill="#89C2BB" points="163.4,397.5 163.8,397.2 162.9,397 		"/>
		<path fill="#89C2BB" d="M166.8,396.4l-0.3-0.6c-2.6,0-1.8-0.3-3.8,0.3c0.4,0.4,1.2,1.1,2.2,1.2c-0.1-0.2-1-0.7-0.7-1
			c0.7,0.2,0.6,0.6,1.6,0.8c0.9-0.4-0.6-0.4-0.2-0.9L166.8,396.4z"/>
		<path fill="#89C2BB" d="M164.3,395.4c0.4,0.1,0.9,0.2,1.2,0.2C165.1,395.5,164.6,395.2,164.3,395.4z"/>
		<path fill="#89C2BB" d="M164.1,395c0.1-0.3,1,0.1,1.1,0.1l-1.6-0.6L164.1,395z"/>
		<path fill="#89C2BB" d="M164.4,393.6c0-0.1-0.1-0.1-0.1-0.2C164,393.4,164.2,393.5,164.4,393.6z"/>
		<path fill="#89C2BB" d="M164.2,392.9c-0.6,0.1-0.3,0.3,0,0.6c0,0,0.1,0,0.1,0c0.5-0.1,1.7,0.2,1.3,0.5c0.2,0.4-0.9,0.2-0.2,0.6
			l1-0.3C166.4,393.6,164.7,393.1,164.2,392.9z"/>
		<path fill="#89C2BB" d="M164.4,393.6c0,0.1,0.1,0.1,0.1,0.2C164.6,393.7,164.5,393.7,164.4,393.6z"/>
		<polygon fill="#89C2BB" points="164.1,394.3 164.4,394.5 164.9,394.5 		"/>
		<path fill="#89C2BB" d="M164.3,391.7c1.6,0.3-0.3,0.8,1,1.1c0-0.5,1.2-0.7,2.1-0.5l-0.4-0.6C166.3,391.4,165.1,391.5,164.3,391.7z
			"/>
		<path fill="#89C2BB" d="M168.5,391.1c-0.1,0-0.2-0.1-0.3-0.2C168.3,391,168.4,391.1,168.5,391.1z"/>
		<path fill="#89C2BB" d="M166,388.2l1.5,1.4c-0.5-0.2-1-0.2-1.2-0.5c-0.3,0.5,0.8,0.7,0.5,1.1c-1.5,0,0-0.8-1.4-0.7
			c0,0.3,0,0.8,1.3,1.2l-1.1,0.4l1.7,0c0.5-0.1-1.3-0.6-0.1-0.5c0.7,0,0.8,0.2,1,0.4c-0.3-0.4,1.4-0.7,1.2-1.4
			C169.4,388.9,166.8,388.7,166,388.2z"/>
		<polygon fill="#89C2BB" points="167.8,388.3 168.5,388.3 167.6,388.3 		"/>
		<path fill="#89C2BB" d="M165.8,386.8l1,0.7c-0.1,0.1-0.5,0.1-0.8,0.1c0.4,0,1,0.3,1.3,0.3c1.5-0.1-0.4-0.8-0.6-1.2
			c0.8-0.8,0.8,0.1,2.3-0.1c-0.1,0.2-0.4,0.2-0.6,0.6c1.7-0.4,0.3-1.2-0.1-1.6c-0.2,0.1-0.6,0.1-0.5,0.3l-0.5-0.4
			C166.1,385.6,165.7,385.9,165.8,386.8z"/>
		<path fill="#89C2BB" d="M165.7,387.9c-0.1-0.2,0-0.3,0.2-0.3C165.6,387.6,165.3,387.7,165.7,387.9z"/>
		<path fill="#89C2BB" d="M168.3,385.3c-0.1,0-0.1,0.1,0,0.2C168.4,385.5,168.4,385.4,168.3,385.3z"/>
		<path fill="#89C2BB" d="M166.5,385.5l0.2-0.4l-0.7,0.1C166,385.2,166.1,385.5,166.5,385.5z"/>
		<path fill="#89C2BB" d="M170.4,368.8c-0.6,0-0.9,0.1-0.8,0.5c-0.8-0.1-0.6-0.5-1.1-0.8c-0.6,0.4-1-0.1-1.7,0
			c-0.1,0.5,0.9,0.8,0.6,1.3c-0.2,0-0.6-0.1-0.9,0c0.5,0.7,1.1,1.9,0.3,2.4c-0.4,0.6,0,1.1,0.3,1.8c-0.6,2.2,0,4.5-1,6.8l1.5,0.5
			c-0.8,0-0.1,0.6-1.1,0.4c0.2-0.1,0.1-0.2,0.1-0.4c-1.4,0.4,0,1.4-0.6,1.9c0.3,0,1.7,0,1.9,0.2c-1.8-0.2,0,0.7-2.1,0.7
			c-0.6,0.6,1.5,0.2,1.2,0.8c1,0.2,0.6-0.6,1.4-0.6c0.8,0.3-0.4,0.5,0.7,0.6c0.6-1-1.3-3.1-1.8-4.7l1,0.3c-0.6-0.9-0.5-2.2,1.1-2.6
			c-0.9,0.1,0.6-1.1-1.5-1.2c0.5-0.2,0.4-0.2,0.6-0.5l-0.7-0.1c0.1-0.4,1.1-0.2,1.1-0.7c-0.9,0.2-1.2-0.1-1.9-0.4
			c1.1-0.4,2-1,2.9-1.4c-0.3,0-0.6,0-1,0.1c0.4-0.3-0.5-0.3-0.8-0.4c0-0.3,1.2-0.2,1.7-0.1c0.4-0.5-1.8-1-1-1.4l-0.9,0.1
			c-0.2-0.6,0.9-1,0.6-1.7c1.3-0.2,1.1,0.6,1.6,1c0.3-0.1,0.4-0.4,0.8-0.4c-0.6-0.3-1.5-0.9-2.1-1.3
			C170.3,369.8,170.3,369,170.4,368.8z"/>
		<path fill="#89C2BB" d="M170.9,370.7c0.2,0.1,0.4,0.2,0.5,0.2c-0.1-0.1-0.2-0.1-0.1-0.2C171.2,370.6,171,370.6,170.9,370.7z"/>
		<path fill="#89C2BB" d="M170.4,368.8c0,0,0.1,0,0.1,0C170.5,368.7,170.5,368.7,170.4,368.8z"/>
		<path fill="#89C2BB" d="M166.8,372.2C166.8,372.2,166.9,372.2,166.8,372.2c0.1-0.1,0.1-0.1,0.1-0.2L166.8,372.2z"/>
		<path fill="#89C2BB" d="M171,373.1c-0.3,0.1-0.7,0.2-1,0.4C170.4,373.5,170.7,373.5,171,373.1z"/>
		<path fill="#89C2BB" d="M169.6,377c0.2,0.1,0.4,0.1,0.7,0.2C170.4,377,170.1,376.9,169.6,377z"/>
		<polygon fill="#89C2BB" points="171.2,370 171,369.4 170.7,369.2 		"/>
		<path fill="#89C2BB" d="M167.2,359.5c-1.1,0.4-0.5,1-0.8,1.6c0.5,1,2.4,0.3,2.5,1.3l-2.3-0.3c0.1,0.9-0.5,2.2,1.4,3.2
			c-0.3,0-0.6,0.2-1-0.1c0,0.6,3.2,0.6,2.4,1.4c-1.4-0.9-1.4,0.1-2.8-0.2l-0.2-0.1c0.1,0.5,0.8,1.3,0.7,1.6c0.6,0.1,1.5-0.2,1.6,0.3
			c0.1-0.2,0.8,0,1.4,0c-0.6-0.5-0.2-0.8-0.9-1.1c0.8-0.2,0.2,0.2,1,0l-0.7-0.5c0.2-0.3,0.8,0.4,0.9-0.1c-0.4-0.1-0.9-0.5-0.8-0.8
			l0.3,0.1c-0.3-0.3,0.1-0.6-1.2-0.6l1.3-0.2l-0.9,0c0.4-0.7,2.5-0.8,1.5-1.8c-0.3,0.2-0.7,0-0.9-0.2c-0.6,0.3,0.6,0.5,0.7,0.9
			c-0.9,0-1.9-0.7-2.4-0.3c1.1-0.4-0.1-0.9,2.1-1c0.2-0.6-0.9-0.9-0.3-1.5l0.3,0c-1.4-0.2,0.7-0.4-0.8-1l-0.3,0.3
			c-0.6-0.1-0.6-0.2-0.7-0.4c0.2,0,0.2,0,0.5,0c-1-0.1-1.2-0.8-1.4-1c-0.2,0.3,0.6,0.7,0.9,1.1C167.9,359.8,167,359.8,167.2,359.5z"
			/>
		<path fill="#89C2BB" d="M170.5,366l-0.5-0.2C170.1,365.8,170.2,365.9,170.5,366z"/>
		<path fill="#89C2BB" d="M169.2,356.9c0.3-0.4,0.9,0.2,1.4-0.2c-0.7-0.4-1.5,0.3-2.6-0.1c0.6-0.2-0.4-0.6-0.4-0.8
			c0.6,0.2,2,0.2,2.3,0.2c-0.4-0.2,0.3-0.5,0.4-0.7c-0.9,0.6-0.5-0.6-1.5-0.1c-0.8-0.1-1.4-0.7-0.7-0.9c0.6,0.1,0.5,0.2,0.5,0.4
			c1.1,0.2,0.6-0.4,1.7-0.4c-1.5-0.7-1.3-2.6-3.8-2.2c-0.5,0.2,0.1,0.4,0.2,0.6c0.5-0.6,1.3,0.1,1.8,0.2c-0.4,0.2,0.3,0.7-0.5,0.6
			l-0.9-0.5c-0.6,1.3-0.5,3.1-0.3,4.7l0.1-0.7c0.7,0.1,0.7,0.4,1,0.7l1.7-0.2c-0.1,0.2,0.1,0.4-0.5,0.3c0.7,0.3,1.1,0.2,1.7,0.1
			c0.3,0.5-0.4,0.5,0.7,1c1.4-0.7-1.1-0.8,0.2-1.6L169.2,356.9z"/>
		<polygon fill="#89C2BB" points="170,358.8 169.2,358.5 169.6,358.9 		"/>
		<path fill="#89C2BB" d="M166.4,358.2c0.4,0,0.5,0.2,0.9,0.2C167.5,358,167,358,166.4,358.2z"/>
		<path fill="#89C2BB" d="M170.3,353.9l-0.3-0.5l-0.3,0.3C170.1,353.7,170.2,353.8,170.3,353.9z"/>
		<path fill="#89C2BB" d="M166.3,350.1c0.1,0.7,0.9,1,0,1.8c1.1,0.5,2,0,3,0.2c0.3-0.4-1.6-0.4-1.9-0.9c0.9-0.1-0.2-0.6,0.1-1
			C167,350.2,166.6,350.2,166.3,350.1z"/>
		<path fill="#89C2BB" d="M170,348c0-0.3-0.7-0.7-0.2-0.9c0.6,0.1,0.8,0.3,0.6,0.5c1.3,0-0.2-0.4,0.7-0.6c-0.1,0-0.4,0.1-0.7,0
			c0.4-0.8-1.1-0.5-0.2-1.6c-0.3-0.2-0.3-0.3-1.2-0.4c1.1-0.6,1.1-0.2,2.1-0.9c-0.5,0-1.7,0.2-2.8,0.1c1.6-1-0.2-1.1,1-1.7
			c0.1,0.1,0.3,0.2,0.2,0.4c1.5,0-0.2-0.6,0.1-0.9l1.3,0.1c-0.2-0.4-1-1,0-1.4l0.7,0.1c-0.9-0.9-0.4-2-0.9-2.7l0.8-0.4
			c-1-1.1-0.5,1-2.4,0.1c2.4,0-0.8-0.6,0.2-1.1c1-0.2,0.5,0.6,1.6,0.4c-1.2-0.2-0.3-0.3-0.7-0.7c1.2,0.1,0.2-0.7,1.5-0.4l-2.1-1.2
			c0.7-0.1,0.6-0.5,0.4-0.7c0,0.6-1.7-0.2-2.3,0.4c0.5,1,0.8,2.7,0.2,3.8c1.6,0.2-0.1,0.8,1.2,1c-0.5,0-1,0.1-1.5,0.1
			c0.3,0.8,0.9-0.1,1.5,0.1c0.2,0.4-0.8,0.6-1.4,0.5c-0.1,0.6,0.4,0.1,1.3,0.4l-1.8,0.3c0.4,1.8,1.5,4.2,0.4,6.1l1.1-0.1
			c-0.7,0.9,2.4,1.7-0.1,2.3l0.9,0.3c-0.5-0.2-1.7,0-2.4-0.2c0.4,0.3-0.1,0.5,0.2,0.8l0.6-0.4c0.9,0.4,0.3,0.7-0.5,0.7
			c1.1,0.8,1.9-0.3,2.9-0.4c-2-1.1,2.1-0.8,1.3-1.8C171,347.4,170.6,348,170,348z"/>
		<path fill="#89C2BB" d="M166.9,348.9c0.1,0.1,0.2,0.1,0.3,0.2C167.1,349.1,167,349,166.9,348.9z"/>
		<path fill="#89C2BB" d="M170,334c0-0.1,0-0.2,0-0.3C169.7,333.6,169.9,333.8,170,334z"/>
		<path fill="#89C2BB" d="M167.4,350.2C167.4,350.2,167.4,350.2,167.4,350.2C167.4,350.2,167.4,350.2,167.4,350.2L167.4,350.2z"/>
		<polygon fill="#89C2BB" points="170.1,350.8 170.2,350.6 169.7,350.6 		"/>
		<path fill="#89C2BB" d="M171.5,331.4l-0.6,0C171.1,331.4,171.3,331.4,171.5,331.4z"/>
		<path fill="#89C2BB" d="M172.1,324.1l0,0.2C172.2,324.2,172.2,324.2,172.1,324.1z"/>
		<path fill="#89C2BB" d="M171.4,306.6c-0.3-0.5-0.7-1.1-1.6-1.5l0.6,0c-0.3-0.3-1.2-1.1-2.3-0.6l0.5,0.1c0.9,0.6-1,0.4-1.4,0.9
			c0.3,0.6,2.5,0.9,1.9,1.4c0.1,0.2-0.5,0.2-1,0.1c-0.2,0.5,1.5,0.7,1.7,1.1c-4.4,0.1,1.2,1.6-1.6,2.3c0.3,0.5-0.1,1.1,0.8,1.7
			c-1.1-0.3-0.1,0.6-1.3,0.4c2.6,0.2-1.2,1.7,2,1.9c-0.9,0.8,0.2,0-0.6,1c-0.4,0-0.4-0.2-0.4-0.2c-0.7,0.4,1.4,0.6-0.1,0.9
			c-0.3,0.7,0.9,0.1,1.7,0.6c-0.4,0.8-0.8,0.5-2.2,0.9c1.5,0.1,0.8,0.6,1.6,1c0.1-0.1,0.4-0.6,1-0.3c-0.3,0.9,1,0.8,1.4,1.6
			c-1.7,0.4,0-0.9-1.4-0.1c-0.8-0.6-0.7-1-1.9-1.3c-0.1,0.7,0.1,1.6,0.8,2.4c-0.2,0.4-0.8-0.2-1,0.1c-0.8,0.8,1.7,1.3,0.9,1.9
			l-0.9-0.2c1.2,0.4-0.3,1.4,0.3,2.1c0.4-0.1,0.7-0.1,1,0c-2.2-0.1,1.1,1.1-0.5,1.7c1.4,0,2.2,0.7,2.3,1.2c-0.4,0.1-1,0.1-1.3,0.1
			c0.8-0.7-1.5-0.8-2.1-1.3c0.7,0.5-0.1,1.3,0.9,1.7l-1.1-0.2c-0.2,0.6,2.5,0.7,1.4,1.3l-0.8-0.1c0.1,1.4-1.4,2.9,0.3,4.1
			c0.7,0.1,2.2-0.4,2.8-0.4c-0.5-0.7-1.7-1.1-2.2-1.7l1.3,0.1c-0.9-0.2-1.3-0.8-2-0.5c-0.6-0.4,1.1-0.3,0.4-0.8
			c1.3,0.1,1.4,0.4,2.5,0.4l-0.6-0.4c0.5,0.2,0.5-0.2,1-0.1c-1.6-0.8,0.7-1,0-1.9l-0.3,0.4c-0.7,0-0.6-0.3-0.9-0.5
			c1-0.2,0.9-0.3,1.4-0.7c-0.6-0.4-1.9-0.6-1.8-1.1c1.4,0.2,0.8-0.8,2-0.8c-1.4-0.2-0.5-0.9-1.3-1c-0.3-0.3-0.1-0.6,0.6-0.6
			c0,0,0.2,0.1,0.2,0.2l0.1-0.2c0.2,0,0.3,0,0.3,0.1c0-0.2-1-0.3-0.3-0.5c0.4,0,0.4,0.2,0.5,0.3c0.3-0.6-2.1-1.1-0.8-1.6
			c-0.7-0.1-0.7-0.8-2.2-0.7c0.5-0.2,1.7-0.1,1.5-0.6c-1.2-0.3,0.5-0.5-0.3-1c1.3,0.5,0.4,0,1.6,0.5c0.5-0.3-1.1-0.9-0.9-1.5
			c0.3-0.1,0.7,0,1-0.1c-0.4-0.2-1.4-0.5-0.4-0.7l-0.9,0c0.5-0.4,0.2-1,1.2-1.4l-1.7-0.6c1.8-0.6,0.2-1.6-1.3-2.2
			c0.1-0.2,0.4-0.6,0.8-0.6c0.1,0.1,0.4,0.2,0.6,0.3c0.1-0.4,1-0.8-0.4-1c-0.4-0.4,1-0.3,1.2-0.5c-1.9-0.8,1.5-2.2-1.5-2.5
			c0,0.3-0.6,0.9-0.5,1.5c-0.4-0.2-1-0.1-1-0.3c-0.1-0.6,1-0.9,0.5-1.5l1.9,0.1C173.1,308.4,168.6,307.4,171.4,306.6z"/>
		<path fill="#89C2BB" d="M171.2,314.3l1-0.4l-0.8,0C171.5,314.1,171.5,314.2,171.2,314.3z"/>
		<path fill="#89C2BB" d="M171.3,313.9c-0.1-0.1-0.2-0.2-0.4-0.3c0,0.1,0,0.2,0.2,0.3L171.3,313.9z"/>
		<path fill="#89C2BB" d="M171.1,304.9c0.1-0.1,0.2-0.3,0-0.5C170.9,304.6,170.8,304.8,171.1,304.9z"/>
		<polygon fill="#89C2BB" points="170.5,304.4 170.2,304.6 170.4,304.6 		"/>
		<path fill="#89C2BB" d="M168.9,291.7l-1.2-0.7c0.6-0.1-0.1-0.9,0.9-0.7c-1.4-0.4,0-1.3-2-1c0.7,2-0.5,4.8,1.3,7.2l-0.8-0.4
			c1.6,1.2-1.7,1.7,1.4,2.7l-1.6-0.1c-0.5,0.6,2.3,1.1,0.6,1.7l0.7-0.1c0,0.2-0.3,0.2-0.3,0.4l0.3-0.1c0.7,0.4,0.6,0.7,0.1,1.1
			c-0.5,0-0.2-0.2-0.4-0.3c-0.5,0.2,0.6,0.5,0.6,0.8c-0.5,0.2-0.7,0-1,0c0.7,1-1,1.4,1.4,2.1c0.4,0.1,0.8-0.2,1,0.1
			c0.8-0.6-0.2-1.1-0.8-1.7l0,0.2c-2.3-0.5,0.5-0.3-0.5-1.1c0.9,0.2,0.9,0.5,1.4,0.6c1.8-0.8-1.4-1.2,0.9-1.7l0.1,0.1
			c0.2-0.1-0.2-0.3-0.4-0.5c-0.3,0.1-0.5,0.2-0.7,0.4c-0.2-0.2-1.2-0.3-1.7-0.4c1-0.2-0.5-0.3,0-0.6c1-0.1,0.9,0.3,1.4,0.4l-0.6-0.4
			c-0.1-0.4,1-0.4,1.6-0.5c-0.7-0.3-0.5,0.2-1.5-0.1c1.2-0.4,0.9-2.1-0.1-2.9c0.1,0.3,1,0.1,0.9,0.4c0.2-0.1-0.3-0.6-1-0.6
			c-0.6-0.6-0.2-1.3,0.5-1.8l-0.7,0.2c-1.2-0.4,0.9-1.1,0.2-1.9l0,0c-0.2-0.3-2-0.5-1.6-0.9C168.1,291.5,168,291.7,168.9,291.7z"/>
		<path fill="#89C2BB" d="M167.2,288.9l1,0.2c0.2-0.3-1.1-0.6-1.7-0.6c0.2,0.2-0.2,0.4,0.4,0.5C166.9,289.1,167.3,289.1,167.2,288.9
			z"/>
		<path fill="#89C2BB" d="M167,283.7c-0.2-0.1-0.6-0.1-0.9-0.1c0.1,1.1,0.6,2.5-0.2,2.9c-0.3,0.4,1.2,0.4,1.6,0.9l-1,0.2
			c0.7,0.2-0.5,1,1.2,0.7c0.1,0-0.8-0.2-0.5-0.4l0.6,0l-0.2-0.5l0.7,0.2c1-0.7-2.2-0.5-1.5-1.3l1.5,0c0.1-0.6-0.4-0.8,0.5-1.3
			c0,0-0.7,0-0.4,0.1c-0.1,0.1-0.7,0.2-1.1,0.2c-1.2-0.8,0.9,0.1,1.5-0.5c-1-0.7-1.9-2.1-0.7-2.5c-0.9,0.4-1.8-0.1-1.8-0.5
			c0.5-0.2,0.9,0.1,1.3,0.2c0.2-0.2,0.5-0.4,0.3-0.5c-0.8,0.3-1.9,0.1-2.4-0.3C164.4,282,167.1,282.7,167,283.7z"/>
		<path fill="#89C2BB" d="M165.7,283.4c0.1,0.1,0.2,0.1,0.3,0.2c0-0.1,0-0.3,0-0.4L165.7,283.4z"/>
	</g>
	<g>
		<polygon fill="#89C2BB" points="185.1,444.9 185.5,444.6 184.6,444.2 		"/>
		<path fill="#89C2BB" d="M188.7,443.4c-0.1-0.3-0.1-0.6-0.2-0.9c-2.7-0.1-1.8-0.5-3.9,0.3c0.3,0.5,1,1.7,2,1.8c0-0.3-0.9-1-0.5-1.4
			c0.7,0.4,0.5,0.9,1.4,1.3c1-0.6-0.5-0.6,0-1.4L188.7,443.4z"/>
		<path fill="#89C2BB" d="M186.4,441.9c0.4,0.2,0.9,0.3,1.2,0.4C187.2,442.1,186.7,441.6,186.4,441.9z"/>
		<path fill="#89C2BB" d="M186.2,441.4c0.2-0.5,0.9,0.2,1.1,0.2l-1.5-0.9L186.2,441.4z"/>
		<path fill="#89C2BB" d="M186.7,439.2c0-0.1-0.1-0.2-0.1-0.3C186.3,439,186.5,439.1,186.7,439.2z"/>
		<path fill="#89C2BB" d="M186.7,438.1c-0.6,0.1-0.3,0.4-0.1,0.8c0,0,0.1,0,0.1,0c0.5-0.2,1.7,0.2,1.3,0.7c0.2,0.6-1,0.3-0.3,0.9
			l1.1-0.4C188.8,439.2,187.1,438.5,186.7,438.1z"/>
		<path fill="#89C2BB" d="M186.7,439.2c0,0.1,0,0.2,0,0.3C187,439.4,186.9,439.3,186.7,439.2z"/>
		<polygon fill="#89C2BB" points="186.4,440.3 186.6,440.6 187.1,440.6 		"/>
		<path fill="#89C2BB" d="M186.9,436.4c1.6,0.3-0.3,1.2,0.9,1.6c0-0.7,1.3-1.1,2.2-0.8l-0.4-0.9
			C188.9,435.9,187.7,436.1,186.9,436.4z"/>
		<path fill="#89C2BB" d="M191.1,435.3c-0.1-0.1-0.2-0.1-0.3-0.2C190.9,435.2,191,435.3,191.1,435.3z"/>
		<path fill="#89C2BB" d="M188.7,431l1.5,2c-0.5-0.2-1-0.2-1.2-0.6c-0.3,0.8,0.7,1,0.5,1.7c-1.5,0.1,0-1.2-1.4-0.9
			c0,0.5,0,1.2,1.2,1.7l-1.1,0.6l1.7-0.1c0.5-0.3-1.2-0.8-0.1-0.8c0.7,0,0.8,0.3,1,0.5c-0.3-0.5,1.4-1.2,1.3-2.3
			C192.1,431.7,189.5,431.8,188.7,431z"/>
		<polygon fill="#89C2BB" points="190.5,431.1 191.2,431 190.3,431.1 		"/>
		<path fill="#89C2BB" d="M188.5,429l1,1c-0.1,0.1-0.5,0.1-0.8,0.2c0.4,0,1,0.3,1.3,0.3c1.5-0.4-0.4-1.2-0.7-1.7
			c0.7-1.3,0.8,0.1,2.3-0.4c-0.1,0.4-0.4,0.4-0.5,0.9c1.7-0.8,0.2-1.9-0.2-2.5c-0.2,0.2-0.6,0.2-0.5,0.5l-0.5-0.6
			C188.7,427.2,188.4,427.7,188.5,429z"/>
		<path fill="#89C2BB" d="M188.4,430.7c-0.1-0.4,0-0.5,0.2-0.5C188.2,430.2,187.9,430.3,188.4,430.7z"/>
		<path fill="#89C2BB" d="M190.9,426.5c-0.1,0.1-0.1,0.2,0,0.3C191,426.7,191,426.6,190.9,426.5z"/>
		<path fill="#89C2BB" d="M189.1,427l0.2-0.7l-0.7,0.2C188.6,426.6,188.7,427,189.1,427z"/>
		<path fill="#89C2BB" d="M190.9,401.4c-0.6,0.1-0.9,0.3-0.8,0.8c-0.8,0-0.7-0.7-1.2-1c-0.5,0.7-1,0-1.7,0.2c-0.1,0.8,1,1.1,0.8,1.9
			c-0.2,0-0.6,0-0.9,0.1c0.5,1,1.4,2.6,0.7,3.5c-0.3,0.9,0.1,1.6,0.5,2.6c-0.3,3.3,0.7,6.8-0.1,10.3l1.6,0.5c-0.8,0.2,0,0.9-1,0.8
			c0.2-0.2,0-0.4,0-0.6c-1.4,0.8,0.1,2-0.4,2.9c0.3-0.1,1.7-0.2,1.9,0c-1.8-0.1,0,1.1-2,1.3c-0.5,0.9,1.5,0.1,1.2,1
			c1,0.1,0.5-0.9,1.3-1.1c0.8,0.3-0.4,0.9,0.7,0.9c0.6-1.6-1.6-4.5-2.2-6.8l1,0.2c-0.7-1.2-0.8-3.1,0.8-4.1
			c-0.9,0.3,0.4-1.8-1.7-1.5c0.5-0.3,0.4-0.4,0.6-0.8l-0.7-0.1c0-0.6,1-0.6,0.9-1.3c-0.9,0.5-1.2,0-1.9-0.2c1-0.8,1.8-1.8,2.6-2.6
			c-0.3,0.1-0.6,0.1-1,0.4c0.3-0.5-0.6-0.4-0.9-0.5c-0.1-0.5,1.1-0.5,1.7-0.5c0.3-0.9-1.9-1.2-1.2-1.8l-0.9,0.3
			c-0.3-0.9,0.7-1.7,0.4-2.6c1.3-0.5,1.1,0.8,1.7,1.1c0.3-0.2,0.3-0.6,0.7-0.8c-0.7-0.4-1.6-1.1-2.2-1.6
			C190.9,403,190.8,401.8,190.9,401.4z"/>
		<path fill="#89C2BB" d="M191.6,404.1c0.2,0.1,0.4,0.2,0.5,0.3c-0.1-0.1-0.2-0.2-0.1-0.3C191.9,404.1,191.8,404.1,191.6,404.1z"/>
		<path fill="#89C2BB" d="M190.9,401.4c0,0,0.1,0,0.1,0C190.9,401.3,190.9,401.4,190.9,401.4z"/>
		<path fill="#89C2BB" d="M187.8,407.2c0,0,0-0.1,0.1-0.1c0-0.1,0-0.1,0-0.2L187.8,407.2z"/>
		<path fill="#89C2BB" d="M192.1,407.7c-0.3,0.2-0.6,0.5-1,0.8C191.5,408.4,191.9,408.3,192.1,407.7z"/>
		<path fill="#89C2BB" d="M191.3,413.8c0.2,0.2,0.4,0.1,0.8,0.2C192,413.6,191.7,413.4,191.3,413.8z"/>
		<polygon fill="#89C2BB" points="191.8,403 191.5,402.3 191.3,402.1 		"/>
		<path fill="#89C2BB" d="M186.5,388.2c-1.1,0.7-0.4,1.6-0.6,2.4c0.6,1.5,2.5,0.1,2.6,1.5l-2.3-0.2c0.2,1.4-0.3,3.4,1.8,4.5
			c-0.3,0.1-0.6,0.4-1,0c0.1,0.9,3.3,0.4,2.6,1.7c-1.5-1.1-1.3,0.4-2.8,0.1l-0.2-0.2c0.2,0.8,1,1.8,0.9,2.3c0.6,0,1.5-0.5,1.6,0.2
			c0.1-0.3,0.8-0.2,1.4-0.2c-0.7-0.7-0.3-1.1-1.1-1.5c0.8-0.4,0.3,0.3,1-0.2l-0.7-0.6c0.2-0.4,0.8,0.4,0.9-0.3
			c-0.5-0.1-1-0.6-0.9-1.1l0.3,0.1c-0.3-0.4,0.1-1-1.2-0.7l1.3-0.5l-0.9,0.1c0.3-1.1,2.4-1.6,1.3-2.9c-0.3,0.3-0.7,0-0.9-0.1
			c-0.6,0.6,0.7,0.7,0.8,1.3c-0.9,0.1-1.9-0.8-2.4-0.1c1-0.8-0.2-1.4,2-1.8c0.1-0.9-1-1.2-0.5-2.1l0.3,0c-1.4-0.1,0.6-0.8-0.9-1.4
			l-0.3,0.5c-0.6,0-0.6-0.2-0.7-0.6c0.2,0,0.2,0,0.5-0.1c-1-0.1-1.2-1.1-1.5-1.2c-0.2,0.4,0.7,0.9,1,1.4
			C187.3,388.5,186.4,388.6,186.5,388.2z"/>
		<path fill="#89C2BB" d="M190.6,397.3l-0.5-0.3C190.2,397.2,190.3,397.3,190.6,397.3z"/>
		<path fill="#89C2BB" d="M188.3,384.1c0.2-0.6,0.9,0.1,1.4-0.4c-0.7-0.6-1.5,0.7-2.6,0.1c0.6-0.4-0.5-0.9-0.5-1.1
			c0.6,0.2,2,0.1,2.3,0c-0.4-0.2,0.3-0.7,0.3-1.1c-0.9,0.9-0.5-0.8-1.5,0.1c-0.8-0.1-1.4-0.9-0.8-1.3c0.6,0,0.5,0.3,0.5,0.5
			c1.1,0.2,0.6-0.6,1.6-0.7c-1.6-0.9-1.5-3.7-4-2.9c-0.5,0.3,0.1,0.6,0.2,0.9c0.5-0.9,1.3,0,1.8,0.1c-0.4,0.4,0.4,1.1-0.5,0.9
			l-0.9-0.6c-0.5,2-0.2,4.7,0.2,7l0-1c0.7,0.1,0.7,0.6,1.1,0.9l1.6-0.5c-0.1,0.3,0.1,0.6-0.5,0.5c0.7,0.3,1.1,0.2,1.7,0
			c0.3,0.7-0.3,0.9,0.7,1.4c1.3-1.2-1.1-1,0-2.4L188.3,384.1z"/>
		<polygon fill="#89C2BB" points="189.3,386.7 188.4,386.5 188.8,386.9 		"/>
		<path fill="#89C2BB" d="M185.6,386.3c0.4,0,0.5,0.2,0.9,0.1C186.7,385.9,186.2,386,185.6,386.3z"/>
		<path fill="#89C2BB" d="M189.1,379.4l-0.3-0.7l-0.3,0.5C188.9,379.1,189,379.3,189.1,379.4z"/>
		<path fill="#89C2BB" d="M184.8,374.2c0.2,1,1,1.5,0.1,2.6c1.1,0.6,2-0.3,3,0c0.2-0.6-1.6-0.5-1.9-1.1c0.9-0.2-0.2-0.9,0-1.4
			C185.6,374.4,185.1,374.4,184.8,374.2z"/>
		<path fill="#89C2BB" d="M188.3,370.7c0-0.5-0.7-0.9-0.3-1.3c0.6,0.1,0.8,0.3,0.6,0.6c1.3-0.2-0.2-0.5,0.7-1
			c-0.1,0-0.4,0.2-0.7,0.1c0.3-1.3-1.1-0.7-0.3-2.3c-0.4-0.2-0.4-0.5-1.2-0.4c1.1-0.9,1.1-0.5,2.1-1.6c-0.5,0-1.7,0.4-2.8,0.4
			c1.6-1.6-0.2-1.6,1-2.6c0.1,0.1,0.3,0.3,0.2,0.5c1.5-0.1-0.3-0.8,0-1.4l1.3,0.1c-0.2-0.5-1.1-1.4-0.1-2.1l0.7,0.2
			c-1-1.3-0.5-2.9-1-4l0.8-0.6c-1-1.6-0.5,1.5-2.4,0.4c2.4-0.1-0.8-0.8,0.2-1.7c1-0.4,0.5,0.9,1.6,0.5c-1.2-0.2-0.3-0.5-0.7-1
			c1.2,0.1,0.2-1,1.5-0.7l-2.1-1.7c0.7-0.3,0.6-0.7,0.4-1.1c0,0.9-1.7-0.3-2.3,0.7c0.5,1.5,0.9,3.9,0.2,5.7c1.6,0.2,0,1.2,1.3,1.5
			c-0.5,0-1,0.2-1.5,0.2c0.3,1.2,0.9-0.3,1.5,0c0.2,0.5-0.8,0.9-1.3,0.9c-0.1,0.8,0.4,0.1,1.3,0.5l-1.8,0.5c0.5,2.6,1.7,6.1,0.7,9.1
			l1.1-0.2c-0.6,1.4,2.4,2.3,0.1,3.5l1,0.4c-0.5-0.2-1.7,0.2-2.4-0.1c0.4,0.4,0,0.8,0.3,1.1l0.5-0.7c0.9,0.5,0.4,1-0.5,1.2
			c1.1,1,1.9-0.6,2.8-0.8c-2.1-1.4,2-1.4,1.1-2.8C189.3,369.8,188.9,370.7,188.3,370.7z"/>
		<path fill="#89C2BB" d="M185.3,372.4c0.1,0.1,0.2,0.2,0.3,0.2C185.5,372.6,185.4,372.5,185.3,372.4z"/>
		<path fill="#89C2BB" d="M187.8,349.9c0-0.1,0-0.2-0.1-0.4C187.5,349.3,187.7,349.6,187.8,349.9z"/>
		<path fill="#89C2BB" d="M186,374.3C186,374.3,186,374.3,186,374.3C186,374.3,186,374.3,186,374.3L186,374.3z"/>
		<polygon fill="#89C2BB" points="188.7,374.9 188.7,374.6 188.2,374.6 		"/>
		<path fill="#89C2BB" d="M189.3,345.9l-0.6,0C188.9,345.9,189.1,346,189.3,345.9z"/>
		<path fill="#89C2BB" d="M190.1,335.1l0,0.2C190.1,335.3,190.1,335.2,190.1,335.1z"/>
		<path fill="#89C2BB" d="M190.3,309.1c-0.3-0.7-0.6-1.7-1.5-2.3l0.6,0.1c-0.3-0.4-1.1-1.7-2.2-1l0.5,0.2c0.8,1-1,0.6-1.4,1.3
			c0.2,0.9,2.4,1.5,1.8,2.2c0,0.3-0.5,0.2-1,0.1c-0.2,0.7,1.4,1.1,1.6,1.7c-4.4-0.1,1.1,2.4-1.8,3.3c0.3,0.7-0.1,1.6,0.7,2.6
			c-1.1-0.5-0.1,0.8-1.4,0.6c2.5,0.4-1.3,2.5,1.9,2.9c-1,1.2,0.2,0.1-0.6,1.4c-0.4,0-0.3-0.3-0.4-0.4c-0.7,0.5,1.3,0.9-0.2,1.3
			c-0.3,1.1,0.9,0.2,1.7,0.9c-0.4,1.1-0.9,0.8-2.2,1.4c1.5,0.2,0.8,0.8,1.5,1.5c0.1-0.1,0.4-0.9,1-0.4c-0.3,1.3,1,1.1,1.3,2.4
			c-1.7,0.6,0-1.3-1.4-0.2c-0.7-0.8-0.6-1.4-1.9-1.9c-0.1,1.1,0,2.4,0.7,3.6c-0.3,0.6-0.8-0.4-1,0.1c-0.8,1.1,1.7,1.9,0.9,2.8
			l-0.9-0.2c1.1,0.6-0.3,2.1,0.3,3.2c0.4-0.1,0.7-0.2,1,0c-2.2-0.1,1.1,1.5-0.5,2.6c1.4,0,2.1,1,2.3,1.7c-0.4,0.2-1,0.1-1.3,0.1
			c0.9-1-1.5-1.1-2.1-2c0.7,0.7-0.1,1.9,0.9,2.5l-1.1-0.3c-0.2,1,2.4,0.9,1.4,1.9l-0.8-0.1c0,2.1-1.5,4.5,0.3,6.2
			c0.7,0.2,2.2-0.6,2.7-0.7c-0.5-1-1.7-1.6-2.3-2.4l1.3,0c-0.9-0.2-1.3-1.1-2-0.6c-0.6-0.6,1.1-0.4,0.4-1.2c1.3,0.1,1.4,0.5,2.5,0.6
			l-0.6-0.6c0.5,0.2,0.5-0.4,1-0.2c-1.6-1.2,0.7-1.6,0-2.8l-0.3,0.6c-0.7,0-0.6-0.4-0.8-0.7c1-0.3,0.9-0.5,1.4-1.1
			c-0.6-0.5-1.9-0.9-1.8-1.6c1.4,0.2,0.8-1.1,2-1.2c-1.4-0.2-0.4-1.4-1.2-1.5c-0.3-0.4-0.1-0.9,0.6-0.9c0,0.1,0.2,0.2,0.2,0.3
			l0.1-0.4c0.2,0,0.3,0,0.3,0.1c0-0.3-1-0.4-0.3-0.8c0.4,0,0.4,0.3,0.5,0.5c0.3-0.9-2-1.6-0.7-2.3c-0.6-0.2-0.7-1.2-2.1-1.1
			c0.5-0.3,1.7-0.1,1.5-0.9c-1.2-0.5,0.5-0.8-0.3-1.4c1.3,0.8,0.4,0,1.6,0.7c0.5-0.5-1.1-1.3-0.8-2.2c0.3-0.1,0.7-0.1,1-0.1
			c-0.4-0.4-1.4-0.8-0.4-1.1l-0.9,0c0.5-0.6,0.2-1.4,1.2-2l-1.6-0.8c1.8-0.9,0.3-2.4-1.2-3.3c0.1-0.4,0.4-0.9,0.8-0.9
			c0.1,0.1,0.4,0.3,0.6,0.4c0.1-0.5,1.1-1.2-0.3-1.6c-0.4-0.6,1-0.4,1.2-0.8c-1.9-1.3,1.7-3.3-1.3-3.8c0,0.5-0.7,1.3-0.6,2.2
			c-0.3-0.3-0.9-0.1-1-0.4c-0.1-0.9,1.1-1.3,0.6-2.2l1.9,0.2C191.9,311.8,187.5,310.2,190.3,309.1z"/>
		<path fill="#89C2BB" d="M189.5,320.6l1-0.6l-0.8,0C189.8,320.2,189.8,320.4,189.5,320.6z"/>
		<path fill="#89C2BB" d="M189.7,320c-0.1-0.1-0.2-0.3-0.4-0.4c0,0.1,0,0.3,0.2,0.4L189.7,320z"/>
		<path fill="#89C2BB" d="M190.1,306.5c0.1-0.1,0.3-0.4,0.1-0.7C190,306,189.9,306.4,190.1,306.5z"/>
		<polygon fill="#89C2BB" points="189.6,305.8 189.3,306.1 189.5,306.1 		"/>
		<path fill="#89C2BB" d="M189.5,286.7l-1-1.1c0.6-0.1,0-1.4,1-0.9c-1.3-0.8,0.2-2-1.9-1.7c0.4,3.1-1.2,7.2,0.3,10.9l-0.7-0.6
			c1.4,2-2,2.4,1.1,4.1l-1.6-0.3c-0.5,0.8,2.2,1.8,0.4,2.5l0.7,0c0,0.2-0.3,0.3-0.3,0.5l0.3-0.1c0.6,0.7,0.5,1,0,1.6
			c-0.5,0-0.2-0.3-0.3-0.5c-0.5,0.2,0.5,0.8,0.5,1.3c-0.5,0.3-0.7-0.1-1-0.1c0.6,1.5-1.1,2,1.2,3.2c0.4,0.1,0.8-0.3,1,0.2
			c0.8-0.9-0.1-1.7-0.7-2.6l0,0.2c-2.3-0.9,0.6-0.5-0.4-1.6c0.9,0.4,0.9,0.8,1.4,1.1c1.9-1.1-1.2-1.9,1.1-2.5l0.1,0.1
			c0.2-0.2-0.2-0.5-0.4-0.8c-0.3,0.1-0.5,0.3-0.7,0.5c-0.2-0.3-1.2-0.5-1.6-0.7c1.1-0.2-0.5-0.5,0.1-0.9c1-0.1,0.8,0.5,1.3,0.7
			l-0.6-0.7c0-0.6,1.1-0.5,1.6-0.7c-0.7-0.5-0.5,0.2-1.5-0.2c1.2-0.5,1.1-3.1,0.3-4.4c0.1,0.4,1,0.2,0.8,0.7
			c0.2-0.2-0.2-0.9-0.9-0.9c-0.6-0.9,0-1.9,0.7-2.7l-0.8,0.2c-1.2-0.8,1.1-1.6,0.5-2.8l0,0c-0.1-0.4-1.9-0.9-1.4-1.5
			C188.8,286.3,188.7,286.6,189.5,286.7z"/>
		<path fill="#89C2BB" d="M188.3,282.4l1,0.5c0.3-0.4-1-1.1-1.7-1c0.2,0.3-0.3,0.6,0.3,0.7C188,282.6,188.4,282.6,188.3,282.4z"/>
		<path fill="#89C2BB" d="M188.9,274.5c-0.2-0.2-0.6-0.2-0.9-0.3c-0.1,1.7,0.1,3.8-0.7,4.4c-0.4,0.5,1.2,0.8,1.4,1.5l-1.1,0.2
			c0.6,0.4-0.6,1.5,1.1,1.3c0.2,0-0.8-0.4-0.4-0.7l0.6,0.1l-0.1-0.8l0.7,0.3c1.1-0.9-2.1-0.9-1.3-2.1l1.5,0.2c0.2-0.8-0.3-1.3,0.7-2
			c0,0-0.7-0.1-0.5,0.1c-0.1,0.1-0.7,0.2-1.1,0.1c-1-1.4,0.9,0.3,1.5-0.5c-0.9-1.2-1.5-3.3-0.3-3.8c-0.9,0.4-1.8-0.4-1.6-1
			c0.5-0.2,0.9,0.3,1.3,0.4c0.2-0.3,0.6-0.5,0.4-0.8c-0.8,0.3-1.9-0.1-2.3-0.8C186.7,271.6,189.2,273.1,188.9,274.5z"/>
		<path fill="#89C2BB" d="M187.7,273.9c0,0.2,0.2,0.2,0.3,0.3c0-0.2,0-0.4,0-0.6L187.7,273.9z"/>
	</g>
	<g>
		<polygon fill="#89C2BB" points="203.3,462.4 203.7,462 202.8,461.7 		"/>
		<path fill="#89C2BB" d="M206.8,460.4l-0.3-0.9c-2.6,0.2-1.8-0.4-3.8,0.7c0.3,0.5,1.1,1.7,2.1,1.7c-0.1-0.4-1-1-0.6-1.5
			c0.7,0.3,0.6,0.9,1.5,1.3c0.9-0.7-0.6-0.6-0.1-1.5L206.8,460.4z"/>
		<path fill="#89C2BB" d="M204.4,459c0.4,0.1,0.9,0.3,1.2,0.3C205.2,459.2,204.7,458.7,204.4,459z"/>
		<path fill="#89C2BB" d="M204.2,458.4c0.2-0.5,0.9,0.1,1.1,0.1l-1.6-0.9L204.2,458.4z"/>
		<path fill="#89C2BB" d="M204.6,456.1c0-0.1-0.1-0.2-0.1-0.3C204.2,455.9,204.4,456,204.6,456.1z"/>
		<path fill="#89C2BB" d="M204.5,454.9c-0.6,0.2-0.3,0.5-0.1,0.9c0,0,0.1,0,0.1,0c0.5-0.3,1.7,0.2,1.3,0.7c0.2,0.6-1,0.4-0.3,0.9
			l1-0.5C206.6,456,205,455.3,204.5,454.9z"/>
		<path fill="#89C2BB" d="M204.6,456.1c0,0.1,0.1,0.2,0,0.3C204.8,456.3,204.7,456.2,204.6,456.1z"/>
		<polygon fill="#89C2BB" points="204.3,457.3 204.5,457.6 205,457.6 		"/>
		<path fill="#89C2BB" d="M204.7,453c1.6,0.3-0.4,1.3,0.9,1.7c0-0.8,1.3-1.2,2.2-0.9l-0.4-0.9C206.8,452.5,205.5,452.7,204.7,453z"
			/>
		<path fill="#89C2BB" d="M209,451.9c-0.1-0.1-0.2-0.1-0.3-0.2C208.8,451.8,208.9,451.9,209,451.9z"/>
		<path fill="#89C2BB" d="M206.7,447.3l1.4,2.2c-0.5-0.2-1-0.2-1.2-0.7c-0.3,0.8,0.7,1.1,0.5,1.8c-1.5,0,0-1.3-1.4-1
			c0,0.5,0,1.3,1.2,1.8l-1.1,0.7l1.7-0.1c0.5-0.3-1.2-0.8,0-0.9c0.7,0,0.8,0.3,1,0.6c-0.3-0.6,1.5-1.3,1.4-2.3
			C210.1,448.2,207.4,448.2,206.7,447.3z"/>
		<polygon fill="#89C2BB" points="208.5,447.5 209.2,447.4 208.3,447.4 		"/>
		<path fill="#89C2BB" d="M206.6,445.1l0.9,1.1c-0.2,0.1-0.5,0.1-0.8,0.1c0.4,0,1,0.4,1.3,0.4c1.5-0.3-0.3-1.3-0.5-1.9
			c0.8-1.4,0.8,0.2,2.3-0.2c-0.1,0.4-0.5,0.4-0.6,0.9c1.8-0.7,0.4-2,0-2.6c-0.2,0.1-0.6,0.1-0.5,0.5l-0.4-0.6
			C207,443.2,206.6,443.7,206.6,445.1z"/>
		<path fill="#89C2BB" d="M206.4,446.9c-0.1-0.4,0.1-0.5,0.3-0.5C206.3,446.4,206,446.5,206.4,446.9z"/>
		<path fill="#89C2BB" d="M209.2,442.6c-0.1,0.1-0.1,0.2,0,0.3C209.3,442.9,209.3,442.8,209.2,442.6z"/>
		<path fill="#89C2BB" d="M207.4,443l0.2-0.7l-0.7,0.2C206.9,442.6,207,443,207.4,443z"/>
		<path fill="#89C2BB" d="M212.5,415.9c-0.6,0-0.9,0.2-0.9,0.8c-0.8-0.1-0.6-0.8-1-1.2c-0.6,0.7-0.9-0.1-1.8,0
			c-0.2,0.8,0.9,1.3,0.6,2.1c-0.2-0.1-0.6-0.1-0.9,0c0.4,1.1,1,2.9,0.2,3.9c-0.4,1-0.1,1.7,0.2,2.8c-0.7,3.5-0.3,7.3-1.5,11l1.5,0.7
			c-0.8,0.1-0.1,0.9-1.1,0.7c0.2-0.2,0.1-0.4,0.1-0.7c-1.5,0.7-0.1,2.2-0.7,3.1c0.3-0.1,1.7-0.1,1.9,0.2c-1.7-0.3-0.1,1.2-2.2,1.2
			c-0.6,0.9,1.5,0.2,1.1,1.2c1,0.2,0.6-0.9,1.4-1c0.8,0.4-0.5,0.9,0.6,1c0.7-1.6-1.1-4.9-1.4-7.4l0.9,0.4c-0.6-1.4-0.4-3.4,1.3-4.3
			c-1,0.1,0.7-1.8-1.4-1.9c0.5-0.3,0.4-0.4,0.7-0.8l-0.7-0.2c0.1-0.7,1.1-0.4,1.1-1.2c-1,0.4-1.2-0.2-1.9-0.5c1.1-0.8,2.1-1.7,3-2.4
			c-0.3,0-0.6,0.1-1.1,0.3c0.4-0.5-0.5-0.5-0.8-0.7c0-0.5,1.2-0.3,1.8-0.3c0.4-0.9-1.7-1.5-0.9-2.1l-1,0.2c-0.1-1,1-1.7,0.8-2.8
			c1.3-0.4,1,1,1.5,1.5c0.3-0.2,0.4-0.6,0.8-0.7c-0.6-0.5-1.4-1.4-2-2C212.3,417.6,212.4,416.3,212.5,415.9z"/>
		<path fill="#89C2BB" d="M212.9,418.9c0.2,0.1,0.3,0.3,0.5,0.4c-0.1-0.1-0.1-0.2-0.1-0.4C213.1,418.9,213,418.9,212.9,418.9z"/>
		<path fill="#89C2BB" d="M212.5,415.9c0,0,0.1,0,0.1,0C212.6,415.8,212.6,415.8,212.5,415.9z"/>
		<path fill="#89C2BB" d="M208.7,421.7c0,0,0.1-0.1,0.1-0.1c0-0.1,0-0.1,0.1-0.2L208.7,421.7z"/>
		<path fill="#89C2BB" d="M212.8,422.9c-0.3,0.2-0.7,0.4-1.1,0.7C212.2,423.5,212.5,423.5,212.8,422.9z"/>
		<path fill="#89C2BB" d="M211.1,429.2c0.1,0.2,0.4,0.1,0.7,0.3C211.9,429.1,211.7,428.9,211.1,429.2z"/>
		<polygon fill="#89C2BB" points="213.3,417.8 213,417 212.8,416.6 		"/>
		<path fill="#89C2BB" d="M209.8,401.2c-1.2,0.6-0.6,1.7-0.8,2.6c0.4,1.6,2.4,0.4,2.4,1.9l-2.3-0.4c0,1.5-0.7,3.6,1.2,5.1
			c-0.3,0.1-0.7,0.3-1-0.1c0,1,3.2,0.8,2.3,2.1c-1.3-1.4-1.4,0.3-2.8-0.2l-0.1-0.2c0.1,0.9,0.7,2.1,0.6,2.6c0.6,0.1,1.5-0.3,1.5,0.4
			c0.1-0.3,0.8-0.1,1.4,0c-0.6-0.8-0.1-1.2-0.9-1.8c0.8-0.4,0.2,0.3,1-0.1l-0.7-0.7c0.2-0.4,0.7,0.5,1-0.2c-0.4-0.1-0.9-0.7-0.7-1.3
			l0.3,0.2c-0.3-0.5,0.2-1-1.1-0.9l1.3-0.4l-0.9,0c0.4-1.1,2.6-1.4,1.6-3c-0.3,0.3-0.7,0-0.9-0.2c-0.7,0.6,0.6,0.8,0.7,1.5
			c-0.9,0-1.8-1.1-2.4-0.4c1.1-0.7,0-1.5,2.2-1.7c0.2-1-0.8-1.4-0.2-2.4l0.3,0.1c-1.4-0.3,0.7-0.7-0.7-1.6l-0.4,0.5
			c-0.6-0.1-0.6-0.3-0.7-0.7c0.2,0.1,0.2,0.1,0.5,0c-1-0.2-1.1-1.3-1.4-1.5c-0.2,0.5,0.6,1.1,0.8,1.7
			C210.5,401.6,209.6,401.6,209.8,401.2z"/>
		<path fill="#89C2BB" d="M212.7,411.4l-0.5-0.4C212.3,411.2,212.5,411.4,212.7,411.4z"/>
		<path fill="#89C2BB" d="M211.9,396.9c0.3-0.6,0.9,0.2,1.4-0.3c-0.7-0.7-1.5,0.6-2.6-0.1c0.7-0.3-0.4-1-0.4-1.3
			c0.6,0.3,2,0.3,2.3,0.2c-0.4-0.3,0.4-0.8,0.4-1.2c-0.9,0.9-0.5-0.9-1.5,0c-0.8-0.1-1.3-1.1-0.7-1.4c0.6,0.1,0.4,0.4,0.4,0.6
			c1.1,0.3,0.7-0.6,1.7-0.7c-1.5-1.1-1.2-4.1-3.7-3.4c-0.5,0.3,0.1,0.6,0.2,1c0.6-1,1.3,0.1,1.8,0.2c-0.4,0.4,0.3,1.2-0.6,0.9
			l-0.9-0.7c-0.6,2.1-0.7,5-0.5,7.5l0.1-1.1c0.7,0.2,0.7,0.7,1,1.1l1.7-0.4c-0.1,0.3,0.1,0.6-0.5,0.5c0.7,0.4,1.1,0.3,1.7,0.1
			c0.2,0.8-0.4,0.9,0.6,1.6c1.5-1.2-1-1.2,0.3-2.6L211.9,396.9z"/>
		<polygon fill="#89C2BB" points="212.6,399.9 211.8,399.5 212.2,400 		"/>
		<path fill="#89C2BB" d="M209,399.1c0.4,0,0.5,0.2,0.9,0.2C210.2,398.7,209.7,398.8,209,399.1z"/>
		<path fill="#89C2BB" d="M213.2,391.9l-0.2-0.8l-0.4,0.5C213,391.6,213.1,391.8,213.2,391.9z"/>
		<path fill="#89C2BB" d="M209.3,386c0.1,1.1,0.8,1.6-0.1,2.8c1,0.7,2-0.1,3,0.2c0.3-0.6-1.6-0.7-1.9-1.3c0.9-0.2-0.1-1,0.1-1.6
			C210.1,386.2,209.6,386.2,209.3,386z"/>
		<path fill="#89C2BB" d="M213.1,382.4c0-0.5-0.6-1.1-0.2-1.4c0.6,0.1,0.8,0.4,0.6,0.7c1.3-0.1-0.2-0.6,0.8-1.1
			c-0.1,0-0.4,0.2-0.7,0.1c0.4-1.3-1-0.8-0.2-2.6c-0.3-0.3-0.3-0.5-1.2-0.5c1.2-0.9,1.1-0.4,2.2-1.6c-0.5,0-1.7,0.3-2.8,0.3
			c1.6-1.6-0.1-1.8,1.1-2.8c0.1,0.1,0.3,0.3,0.2,0.6c1.5-0.1-0.2-0.9,0.1-1.5l1.3,0.1c-0.2-0.6-1-1.6,0-2.2l0.6,0.2
			c-0.9-1.5-0.4-3.1-0.8-4.4l0.8-0.6c-0.9-1.7-0.5,1.6-2.4,0.3c2.4-0.1-0.8-0.9,0.3-1.8c1-0.4,0.5,1,1.6,0.5
			c-1.2-0.3-0.3-0.5-0.7-1.1c1.2,0.2,0.2-1.1,1.5-0.7l-2.1-1.9c0.7-0.3,0.6-0.8,0.4-1.2c-0.1,1-1.7-0.3-2.3,0.7
			c0.5,1.6,0.8,4.3,0.1,6.2c1.6,0.3-0.1,1.3,1.2,1.6c-0.5,0-1,0.1-1.5,0.2c0.3,1.3,0.9-0.3,1.5,0.1c0.2,0.6-0.8,1-1.4,0.9
			c-0.1,0.9,0.4,0.1,1.3,0.6l-1.8,0.5c0.4,2.9,1.4,6.7,0.2,9.9l1.1-0.2c-0.7,1.4,2.3,2.6-0.2,3.8l0.9,0.5c-0.5-0.3-1.7,0.1-2.4-0.3
			c0.3,0.4-0.1,0.8,0.2,1.3l0.6-0.7c0.9,0.6,0.3,1.1-0.5,1.2c1,1.2,2-0.5,2.9-0.7c-1.9-1.7,2.1-1.4,1.3-3
			C214.1,381.6,213.7,382.5,213.1,382.4z"/>
		<path fill="#89C2BB" d="M209.9,384.2c0.1,0.1,0.2,0.2,0.3,0.2C210.2,384.3,210.1,384.2,209.9,384.2z"/>
		<path fill="#89C2BB" d="M213.5,359.9c0-0.1,0-0.2,0-0.4C213.2,359.3,213.4,359.6,213.5,359.9z"/>
		<path fill="#89C2BB" d="M210.4,386.2C210.4,386.2,210.5,386.2,210.4,386.2C210.5,386.2,210.5,386.2,210.4,386.2L210.4,386.2z"/>
		<polygon fill="#89C2BB" points="213.1,387.1 213.2,386.7 212.7,386.7 		"/>
		<path fill="#89C2BB" d="M215.1,355.7l-0.6,0C214.7,355.7,214.9,355.7,215.1,355.7z"/>
		<path fill="#89C2BB" d="M215.8,343.9l0,0.3C215.9,344.1,215.9,344,215.8,343.9z"/>
		<path fill="#89C2BB" d="M215.1,315.8c-0.4-0.8-0.7-1.8-1.6-2.4l0.6,0.1c-0.3-0.4-1.2-1.7-2.3-0.9l0.5,0.2c0.9,1-1,0.7-1.3,1.5
			c0.3,0.9,2.5,1.4,1.9,2.2c0.1,0.4-0.5,0.3-1,0.2c-0.2,0.8,1.5,1.1,1.7,1.7c-4.4,0.2,1.2,2.5-1.6,3.7c0.3,0.8-0.1,1.8,0.8,2.7
			c-1.1-0.5-0.1,0.9-1.3,0.7c2.6,0.3-1.2,2.8,2,3c-0.9,1.3,0.2,0.1-0.6,1.6c-0.4,0-0.4-0.3-0.4-0.4c-0.7,0.6,1.4,0.9-0.1,1.4
			c-0.3,1.2,0.9,0.2,1.7,1c-0.4,1.3-0.8,0.9-2.2,1.6c1.5,0.1,0.8,0.9,1.6,1.5c0.1-0.2,0.4-1,1-0.4c-0.3,1.5,1,1.2,1.4,2.6
			c-1.7,0.7,0-1.4-1.4-0.2c-0.8-0.9-0.7-1.5-1.9-2c-0.1,1.2,0.1,2.6,0.8,3.9c-0.2,0.7-0.8-0.4-1,0.2c-0.8,1.2,1.7,2,0.9,3l-0.9-0.2
			c1.1,0.6-0.3,2.2,0.3,3.4c0.4-0.1,0.7-0.2,1-0.1c-2.2-0.1,1.1,1.7-0.5,2.8c1.4,0,2.1,1.1,2.3,1.8c-0.4,0.2-1,0.2-1.3,0.1
			c0.9-1.1-1.5-1.2-2.1-2.1c0.7,0.8-0.1,2,0.9,2.7l-1.1-0.3c-0.2,1.1,2.4,1,1.4,2.1l-0.8-0.1c0,2.2-1.5,4.8,0.2,6.7
			c0.7,0.2,2.3-0.7,2.8-0.7c-0.5-1.1-1.7-1.8-2.2-2.6l1.3,0.1c-0.9-0.2-1.3-1.2-2-0.7c-0.6-0.7,1.1-0.5,0.4-1.3
			c1.3,0.1,1.4,0.6,2.5,0.6l-0.6-0.7c0.5,0.2,0.5-0.4,1-0.2c-1.6-1.3,0.7-1.7,0-3l-0.3,0.7c-0.7,0-0.6-0.4-0.8-0.7
			c1-0.3,0.9-0.5,1.4-1.2c-0.6-0.6-1.9-0.9-1.8-1.7c1.4,0.2,0.8-1.2,2-1.3c-1.4-0.2-0.4-1.5-1.2-1.6c-0.3-0.4-0.1-1,0.6-0.9
			c0,0.1,0.2,0.2,0.2,0.3l0.1-0.4c0.2,0,0.3,0,0.3,0.1c0-0.4-1-0.4-0.3-0.8c0.4,0,0.4,0.3,0.5,0.5c0.3-1-2.1-1.7-0.8-2.5
			c-0.7-0.2-0.7-1.3-2.2-1.1c0.5-0.3,1.7-0.1,1.5-1c-1.2-0.5,0.5-0.9-0.3-1.5c1.3,0.9,0.4,0,1.6,0.8c0.5-0.5-1.1-1.4-0.9-2.4
			c0.3-0.1,0.7-0.1,1-0.2c-0.4-0.4-1.4-0.8-0.4-1.1l-0.9,0c0.5-0.6,0.2-1.6,1.2-2.3l-1.7-0.9c1.8-1.1,0.2-2.6-1.3-3.5
			c0.1-0.4,0.4-1,0.8-1c0.1,0.1,0.4,0.3,0.6,0.4c0.1-0.6,1-1.3-0.4-1.7c-0.4-0.6,1-0.4,1.2-0.9c-1.9-1.3,1.5-3.6-1.5-4
			c0,0.5-0.6,1.5-0.5,2.4c-0.4-0.3-1-0.1-1-0.4c-0.1-1,1-1.5,0.5-2.4l1.9,0.1C216.9,318.6,212.3,317.1,215.1,315.8z"/>
		<path fill="#89C2BB" d="M214.9,328.2l1-0.7l-0.8,0.1C215.2,327.8,215.2,328,214.9,328.2z"/>
		<path fill="#89C2BB" d="M215.1,327.5c-0.1-0.1-0.2-0.3-0.4-0.4c0,0.2,0,0.3,0.2,0.4L215.1,327.5z"/>
		<path fill="#89C2BB" d="M214.8,313c0.1-0.2,0.2-0.5,0-0.8C214.6,312.4,214.5,312.8,214.8,313z"/>
		<polygon fill="#89C2BB" points="214.2,312.2 213.9,312.5 214.1,312.6 		"/>
		<path fill="#89C2BB" d="M212.4,291.7l-1.2-1.1c0.6-0.2-0.1-1.5,0.9-1.1c-1.4-0.6-0.1-2.1-2.1-1.5c0.7,3.3-0.3,7.8,1.5,11.6
			l-0.8-0.6c1.6,2-1.7,2.7,1.4,4.3l-1.6-0.2c-0.4,0.9,2.3,1.7,0.6,2.7l0.7-0.1c0,0.3-0.3,0.4-0.3,0.6l0.3-0.1
			c0.7,0.7,0.6,1.1,0.1,1.7c-0.5,0-0.2-0.3-0.4-0.5c-0.5,0.3,0.6,0.8,0.6,1.3c-0.4,0.4-0.7,0-1-0.1c0.7,1.5-1,2.2,1.4,3.3
			c0.4,0.1,0.8-0.4,1,0.2c0.7-1-0.2-1.8-0.8-2.7l0,0.3c-2.3-0.7,0.5-0.6-0.5-1.7c1,0.3,0.9,0.8,1.5,1c1.8-1.4-1.4-1.9,0.9-2.8
			l0.1,0.1c0.2-0.2-0.2-0.6-0.4-0.9c-0.3,0.1-0.4,0.4-0.7,0.6c-0.2-0.3-1.2-0.5-1.7-0.6c1-0.4-0.5-0.5,0-1c1-0.2,0.9,0.5,1.4,0.7
			l-0.7-0.7c-0.1-0.6,1-0.6,1.5-0.9c-0.7-0.5-0.5,0.3-1.5-0.1c1.2-0.7,0.8-3.4-0.1-4.8c0.1,0.5,1,0.1,0.9,0.7c0.2-0.2-0.3-0.9-1-0.9
			c-0.7-0.9-0.2-2.1,0.4-2.9l-0.7,0.3c-1.3-0.7,0.9-1.8,0.1-3.1l0,0c-0.2-0.4-2-0.7-1.6-1.5C211.5,291.4,211.5,291.8,212.4,291.7z"
			/>
		<path fill="#89C2BB" d="M210.6,287.3l1,0.4c0.2-0.5-1.1-1-1.8-0.9c0.2,0.3-0.2,0.7,0.4,0.8C210.4,287.5,210.7,287.5,210.6,287.3z"
			/>
		<path fill="#89C2BB" d="M210.2,278.8c-0.2-0.2-0.6-0.1-0.9-0.2c0.2,1.8,0.6,4-0.1,4.7c-0.3,0.6,1.3,0.7,1.6,1.4l-1,0.4
			c0.7,0.4-0.4,1.7,1.3,1.2c0.1,0-0.8-0.3-0.5-0.7l0.6,0l-0.2-0.8l0.7,0.2c1-1.1-2.2-0.7-1.6-2.1l1.5,0c0.1-0.9-0.5-1.4,0.4-2.2
			c0,0-0.7,0-0.4,0.2c-0.1,0.2-0.7,0.4-1.1,0.3c-1.2-1.3,0.9,0.2,1.5-0.8c-1-1.1-1.9-3.3-0.8-4c-0.9,0.6-1.8-0.2-1.8-0.9
			c0.5-0.3,0.9,0.2,1.3,0.3c0.1-0.3,0.5-0.6,0.3-0.9c-0.8,0.4-1.9,0.2-2.4-0.5C207.6,276.1,210.3,277.2,210.2,278.8z"/>
		<path fill="#89C2BB" d="M208.9,278.4c0.1,0.2,0.2,0.2,0.3,0.3c0-0.2,0-0.4-0.1-0.6L208.9,278.4z"/>
	</g>
	<g>
		<polygon fill="#89C2BB" points="227.1,327.6 227.4,327.5 226.5,327.4 		"/>
		<path fill="#89C2BB" d="M230.3,326.9l-0.4-0.3c-2.6,0.1-1.8-0.1-3.7,0.3c0.4,0.1,1.3,0.4,2.3,0.4c-0.1-0.1-1.1-0.2-0.8-0.4
			c0.7,0.1,0.7,0.2,1.6,0.3c0.8-0.2-0.6-0.2-0.3-0.4L230.3,326.9z"/>
		<path fill="#89C2BB" d="M227.7,326.6c0.5,0,0.9,0.1,1.3,0C228.5,326.6,228,326.5,227.7,326.6z"/>
		<path fill="#89C2BB" d="M227.5,326.5c0.1-0.2,1,0,1.1,0l-1.7-0.2L227.5,326.5z"/>
		<path fill="#89C2BB" d="M227.6,325.8c0,0-0.1-0.1-0.2-0.1C227.2,325.7,227.4,325.8,227.6,325.8z"/>
		<path fill="#89C2BB" d="M227.4,325.5c-0.6,0.1-0.2,0.1,0,0.3c0,0,0.1,0,0.1,0c0.5-0.1,1.7,0,1.4,0.2c0.3,0.2-0.9,0.1-0.1,0.3
			l1-0.2C229.6,325.7,227.9,325.6,227.4,325.5z"/>
		<path fill="#89C2BB" d="M227.6,325.8C227.6,325.8,227.7,325.8,227.6,325.8C227.9,325.8,227.8,325.8,227.6,325.8z"/>
		<polygon fill="#89C2BB" points="227.5,326.1 227.7,326.2 228.2,326.2 		"/>
		<path fill="#89C2BB" d="M227.3,324.9c1.6,0.1-0.2,0.4,1.1,0.4c-0.1-0.2,1.1-0.4,2-0.3l-0.5-0.2
			C229.3,324.7,228.1,324.8,227.3,324.9z"/>
		<path fill="#89C2BB" d="M231.5,324.5c-0.1,0-0.2,0-0.3-0.1C231.3,324.5,231.4,324.5,231.5,324.5z"/>
		<path fill="#89C2BB" d="M228.7,323.3l1.6,0.6c-0.5-0.1-1,0-1.2-0.2c-0.2,0.2,0.8,0.3,0.6,0.5c-1.5,0-0.1-0.4-1.5-0.3
			c0,0.1,0.1,0.4,1.4,0.5l-1,0.2l1.7-0.1c0.5-0.1-1.3-0.2-0.1-0.2c0.7,0,0.8,0.1,1,0.1c-0.3-0.1,1.3-0.4,1.1-0.7
			C232.1,323.5,229.5,323.5,228.7,323.3z"/>
		<polygon fill="#89C2BB" points="230.5,323.3 231.2,323.3 230.3,323.3 		"/>
		<path fill="#89C2BB" d="M228.4,322.6l1,0.3c-0.1,0-0.5,0-0.8,0.1c0.4,0,1,0.1,1.3,0.1c1.5-0.1-0.5-0.4-0.7-0.5
			c0.7-0.4,0.8,0,2.2-0.1c0,0.1-0.4,0.1-0.5,0.3c1.7-0.2,0.2-0.6-0.3-0.7c-0.2,0-0.6,0-0.5,0.1l-0.5-0.2
			C228.5,322.1,228.2,322.3,228.4,322.6z"/>
		<path fill="#89C2BB" d="M228.4,323.2c-0.1-0.1,0-0.1,0.2-0.2C228.2,323,227.9,323.1,228.4,323.2z"/>
		<path fill="#89C2BB" d="M230.7,321.9C230.6,321.9,230.6,322,230.7,321.9C230.8,322,230.8,322,230.7,321.9z"/>
		<path fill="#89C2BB" d="M228.9,322l0.2-0.2l-0.7,0.1C228.4,321.9,228.5,322,228.9,322z"/>
		<path fill="#89C2BB" d="M231.4,314.4c-0.6,0-0.9,0.1-0.8,0.2c-0.8-0.1-0.7-0.2-1.1-0.4c-0.5,0.2-1,0-1.7,0c-0.1,0.2,1,0.4,0.7,0.6
			c-0.2,0-0.6,0-0.9,0c0.5,0.3,1.2,0.8,0.5,1.1c-0.3,0.3,0.1,0.5,0.4,0.8c-0.5,1,0.4,2.1-0.5,3.1l1.6,0.2c-0.8,0,0,0.3-1,0.2
			c0.2-0.1,0-0.1,0-0.2c-1.4,0.2,0.1,0.6-0.4,0.9c0.3,0,1.7,0,1.9,0c-1.8-0.1,0,0.3-2,0.4c-0.5,0.3,1.5,0,1.3,0.3
			c1,0.1,0.5-0.3,1.3-0.3c0.8,0.1-0.4,0.3,0.7,0.3c0.5-0.4-1.6-1.3-2.2-2.1l1,0.1c-0.7-0.4-0.7-1,0.9-1.2c-0.9,0,0.5-0.5-1.6-0.5
			c0.5-0.1,0.4-0.1,0.6-0.2l-0.7-0.1c0-0.2,1.1-0.1,1-0.3c-0.9,0.1-1.2-0.1-1.9-0.1c1-0.2,1.9-0.5,2.8-0.6c-0.3,0-0.6,0-1,0.1
			c0.3-0.1-0.5-0.1-0.9-0.2c0-0.1,1.1-0.1,1.7-0.1c0.4-0.2-1.9-0.4-1.1-0.6l-0.9,0c-0.2-0.3,0.8-0.5,0.5-0.8
			c1.3-0.1,1.1,0.3,1.6,0.4c0.3,0,0.3-0.2,0.8-0.2c-0.7-0.2-1.5-0.4-2.2-0.6C231.4,314.9,231.3,314.5,231.4,314.4z"/>
		<path fill="#89C2BB" d="M232.1,315.3c0.2,0,0.4,0.1,0.5,0.1c-0.1,0-0.2-0.1-0.1-0.1C232.3,315.3,232.2,315.3,232.1,315.3z"/>
		<path fill="#89C2BB" d="M231.4,314.4c0,0,0.1,0,0.1,0C231.5,314.4,231.5,314.4,231.4,314.4z"/>
		<path fill="#89C2BB" d="M228.1,316C228.1,316,228.1,316,228.1,316c0.1-0.1,0.1-0.1,0.1-0.1L228.1,316z"/>
		<path fill="#89C2BB" d="M232.3,316.4c-0.3,0-0.7,0.1-1,0.2C231.8,316.6,232.1,316.6,232.3,316.4z"/>
		<path fill="#89C2BB" d="M231.2,318.1c0.2,0.1,0.4,0,0.7,0.1C232,318.1,231.7,318.1,231.2,318.1z"/>
		<polygon fill="#89C2BB" points="232.3,315 232,314.7 231.8,314.6 		"/>
		<path fill="#89C2BB" d="M227.6,310.2c-1.1,0.1-0.5,0.5-0.7,0.7c0.6,0.5,2.4,0.2,2.6,0.6l-2.3-0.2c0.1,0.4-0.4,1,1.6,1.5
			c-0.3,0-0.6,0.1-1,0c0.1,0.3,3.3,0.3,2.5,0.6c-1.4-0.4-1.4,0.1-2.8-0.1l-0.2-0.1c0.1,0.2,0.9,0.6,0.8,0.8c0.6,0,1.5-0.1,1.6,0.1
			c0.1-0.1,0.8,0,1.4,0c-0.7-0.2-0.2-0.3-1-0.5c0.8-0.1,0.2,0.1,1,0l-0.7-0.2c0.2-0.1,0.8,0.2,0.9,0c-0.5,0-0.9-0.2-0.8-0.4l0.3,0.1
			c-0.3-0.1,0.1-0.3-1.2-0.3l1.3-0.1l-0.9,0c0.4-0.3,2.5-0.3,1.4-0.8c-0.3,0.1-0.7,0-0.9-0.1c-0.6,0.2,0.7,0.3,0.8,0.4
			c-0.9,0-1.9-0.4-2.4-0.2c1-0.2-0.1-0.4,2.1-0.4c0.2-0.3-0.9-0.4-0.4-0.7l0.3,0c-1.4-0.1,0.7-0.2-0.8-0.5l-0.3,0.1
			c-0.6,0-0.6-0.1-0.7-0.2c0.2,0,0.2,0,0.5,0c-1-0.1-1.2-0.4-1.5-0.5c-0.2,0.1,0.7,0.3,0.9,0.5C228.3,310.3,227.4,310.3,227.6,310.2
			z"/>
		<path fill="#89C2BB" d="M231.3,313.2l-0.5-0.1C230.9,313.1,231,313.1,231.3,313.2z"/>
		<path fill="#89C2BB" d="M229.5,309c0.2-0.2,0.9,0.1,1.4-0.1c-0.7-0.2-1.5,0.1-2.6-0.1c0.6-0.1-0.4-0.3-0.5-0.4
			c0.6,0.1,2,0.1,2.3,0.1c-0.4-0.1,0.3-0.2,0.4-0.3c-0.9,0.2-0.5-0.3-1.5-0.1c-0.8-0.1-1.4-0.4-0.8-0.4c0.6,0,0.5,0.1,0.5,0.2
			c1.1,0.1,0.6-0.2,1.6-0.1c-1.5-0.3-1.4-1.2-3.9-1.1c-0.5,0.1,0.1,0.2,0.2,0.3c0.5-0.3,1.3,0.1,1.8,0.1c-0.4,0.1,0.4,0.3-0.5,0.3
			l-0.9-0.2c-0.5,0.6-0.4,1.4,0,2.1l0.1-0.3c0.7,0.1,0.7,0.2,1,0.3l1.7-0.1c-0.1,0.1,0.1,0.2-0.5,0.1c0.7,0.1,1.1,0.1,1.7,0.1
			c0.3,0.2-0.4,0.2,0.7,0.5c1.4-0.3-1.1-0.4,0.1-0.7L229.5,309z"/>
		<polygon fill="#89C2BB" points="230.4,309.9 229.6,309.8 230,309.9 		"/>
		<path fill="#89C2BB" d="M226.8,309.6c0.4,0,0.5,0.1,0.9,0.1C227.9,309.5,227.4,309.5,226.8,309.6z"/>
		<path fill="#89C2BB" d="M230.5,307.6l-0.3-0.2l-0.3,0.1C230.2,307.5,230.4,307.6,230.5,307.6z"/>
		<path fill="#89C2BB" d="M226.2,305.9c0.1,0.3,0.9,0.5,0.1,0.8c1.1,0.2,2,0,3,0.1c0.2-0.2-1.6-0.2-1.9-0.4c0.9,0-0.2-0.3,0-0.4
			C227,305.9,226.6,305.9,226.2,305.9z"/>
		<path fill="#89C2BB" d="M229.8,304.9c0-0.1-0.7-0.3-0.2-0.4c0.6,0,0.8,0.1,0.6,0.2c1.3,0-0.2-0.2,0.7-0.3c-0.1,0-0.4,0.1-0.7,0
			c0.3-0.4-1.1-0.3-0.3-0.7c-0.4-0.1-0.3-0.2-1.2-0.2c1.1-0.2,1.1-0.1,2.1-0.4c-0.5,0-1.7,0-2.8,0c1.6-0.4-0.2-0.5,1-0.8
			c0.1,0,0.3,0.1,0.2,0.2c1.5,0-0.3-0.3,0-0.4l1.3,0.1c-0.2-0.2-1.1-0.5-0.1-0.6l0.7,0.1c-1-0.5-0.5-0.9-1-1.3l0.8-0.1
			c-1-0.5-0.5,0.4-2.4,0c2.4,0.1-0.8-0.3,0.2-0.5c1-0.1,0.5,0.3,1.6,0.2c-1.2-0.1-0.3-0.2-0.7-0.3c1.2,0.1,0.2-0.3,1.5-0.1l-2.1-0.6
			c0.7-0.1,0.6-0.2,0.4-0.3c0,0.3-1.7-0.2-2.3,0.1c0.5,0.5,0.9,1.2,0.3,1.8c1.6,0.1,0,0.4,1.3,0.5c-0.5,0-1,0-1.5,0
			c0.3,0.4,0.9,0,1.5,0.1c0.2,0.2-0.8,0.2-1.3,0.2c-0.1,0.3,0.4,0,1.3,0.2l-1.8,0.1c0.5,0.8,1.6,1.9,0.6,2.8l1.1,0
			c-0.6,0.4,2.4,0.8,0,1.1l0.9,0.2c-0.5-0.1-1.7,0-2.4-0.1c0.4,0.1-0.1,0.2,0.3,0.4l0.5-0.2c0.9,0.2,0.3,0.3-0.5,0.3
			c1.1,0.4,1.9-0.1,2.9-0.1c-2-0.5,2-0.3,1.2-0.8C230.8,304.7,230.4,305,229.8,304.9z"/>
		<path fill="#89C2BB" d="M226.8,305.3c0.1,0,0.2,0.1,0.3,0.1C227,305.4,226.9,305.4,226.8,305.3z"/>
		<path fill="#89C2BB" d="M229.4,298.6c0,0,0-0.1-0.1-0.1C229.1,298.4,229.2,298.5,229.4,298.6z"/>
		<path fill="#89C2BB" d="M227.4,305.9C227.4,305.9,227.4,305.9,227.4,305.9C227.4,305.9,227.4,305.9,227.4,305.9L227.4,305.9z"/>
		<polygon fill="#89C2BB" points="230.1,306.3 230.1,306.1 229.6,306.1 		"/>
		<path fill="#89C2BB" d="M230.8,297.4l-0.6,0C230.4,297.4,230.6,297.4,230.8,297.4z"/>
		<path fill="#89C2BB" d="M231.3,294.1L231.3,294.1C231.4,294.2,231.4,294.1,231.3,294.1z"/>
		<path fill="#89C2BB" d="M230.5,286.1c-0.3-0.2-0.7-0.5-1.6-0.7l0.6,0c-0.3-0.1-1.2-0.5-2.2-0.4l0.5,0.1c0.9,0.3-1,0.2-1.4,0.3
			c0.3,0.3,2.4,0.5,1.9,0.7c0.1,0.1-0.5,0.1-1,0c-0.2,0.2,1.5,0.4,1.7,0.6c-4.4-0.1,1.2,0.8-1.6,1c0.3,0.2-0.1,0.5,0.8,0.8
			c-1.1-0.2-0.1,0.3-1.3,0.1c2.6,0.2-1.2,0.7,2,0.9c-0.9,0.3,0.2,0-0.6,0.4c-0.4,0-0.4-0.1-0.4-0.1c-0.7,0.1,1.4,0.3-0.1,0.4
			c-0.3,0.3,0.9,0.1,1.7,0.3c-0.4,0.3-0.8,0.2-2.2,0.4c1.5,0.1,0.8,0.3,1.6,0.5c0.1,0,0.4-0.3,1-0.1c-0.3,0.4,1,0.4,1.4,0.8
			c-1.7,0.1,0-0.4-1.4-0.1c-0.8-0.3-0.7-0.5-1.9-0.7c-0.1,0.3,0.1,0.7,0.8,1.1c-0.2,0.2-0.8-0.1-1,0c-0.8,0.3,1.7,0.6,0.9,0.9
			l-0.9-0.1c1.2,0.2-0.3,0.6,0.3,1c0.4,0,0.7,0,1,0c-2.2-0.1,1.1,0.5-0.4,0.8c1.4,0,2.2,0.4,2.3,0.6c-0.4,0.1-1,0-1.3,0
			c0.8-0.3-1.5-0.4-2.1-0.7c0.7,0.2-0.1,0.6,0.9,0.8l-1.1-0.1c-0.2,0.3,2.5,0.4,1.4,0.6l-0.8-0.1c0.1,0.6-1.4,1.3,0.4,1.9
			c0.7,0.1,2.2-0.1,2.7-0.1c-0.6-0.3-1.7-0.6-2.3-0.8l1.3,0.1c-0.9-0.1-1.4-0.4-2-0.3c-0.6-0.2,1.1-0.1,0.4-0.3
			c1.3,0.1,1.5,0.2,2.5,0.3l-0.6-0.2c0.5,0.1,0.5-0.1,1,0c-1.6-0.4,0.6-0.5-0.1-0.8l-0.2,0.2c-0.7,0-0.7-0.1-0.9-0.2
			c1,0,0.9-0.1,1.4-0.3c-0.6-0.2-1.9-0.3-1.9-0.6c1.4,0.1,0.8-0.3,1.9-0.3c-1.4-0.1-0.5-0.4-1.3-0.5c-0.3-0.1-0.1-0.3,0.6-0.2
			c0,0,0.2,0.1,0.2,0.1l0.1-0.1c0.2,0,0.3,0,0.3,0c0-0.1-1-0.1-0.3-0.2c0.4,0,0.4,0.1,0.5,0.2c0.3-0.3-2.1-0.6-0.8-0.7
			c-0.7-0.1-0.7-0.4-2.2-0.4c0.5-0.1,1.7,0,1.5-0.2c-1.2-0.2,0.5-0.2-0.3-0.4c1.3,0.3,0.4,0,1.6,0.3c0.5-0.1-1.1-0.4-0.9-0.7
			c0.3,0,0.7,0,1,0c-0.4-0.1-1.4-0.3-0.4-0.3l-0.9,0c0.5-0.2,0.2-0.4,1.2-0.6l-1.7-0.3c1.8-0.2,0.2-0.7-1.3-1
			c0.1-0.1,0.4-0.3,0.8-0.2c0.1,0,0.4,0.1,0.6,0.2c0.1-0.2,1-0.3-0.4-0.5c-0.4-0.2,1-0.1,1.2-0.2c-1.9-0.4,1.5-1-1.5-1.2
			c0,0.1-0.6,0.4-0.5,0.7c-0.4-0.1-1-0.1-1-0.2c-0.1-0.3,1-0.4,0.5-0.7l1.9,0.1C232.3,287,227.8,286.4,230.5,286.1z"/>
		<path fill="#89C2BB" d="M230.3,289.6l1-0.2l-0.8,0C230.6,289.5,230.6,289.6,230.3,289.6z"/>
		<path fill="#89C2BB" d="M230.5,289.5c-0.1,0-0.2-0.1-0.4-0.1c0,0,0,0.1,0.2,0.1L230.5,289.5z"/>
		<path fill="#89C2BB" d="M230.2,285.3c0.1,0,0.2-0.1,0-0.2C230,285.2,229.9,285.3,230.2,285.3z"/>
		<polygon fill="#89C2BB" points="229.7,285.1 229.4,285.2 229.6,285.2 		"/>
		<path fill="#89C2BB" d="M228.3,279.2l-1.1-0.4c0.6,0-0.1-0.4,0.9-0.3c-1.4-0.3,0-0.6-2-0.5c0.6,1-0.6,2.2,1.1,3.4l-0.8-0.2
			c1.6,0.6-1.8,0.7,1.3,1.3l-1.6-0.1c-0.5,0.2,2.3,0.6,0.6,0.8l0.7,0c0,0.1-0.3,0.1-0.3,0.2l0.3,0c0.6,0.2,0.6,0.3,0.1,0.5
			c-0.5,0-0.2-0.1-0.3-0.2c-0.5,0.1,0.6,0.3,0.5,0.4c-0.5,0.1-0.7,0-1-0.1c0.7,0.5-1,0.6,1.4,1c0.4,0,0.8-0.1,1,0.1
			c0.8-0.2-0.2-0.5-0.8-0.8l0,0.1c-2.3-0.3,0.5-0.1-0.5-0.5c0.9,0.1,0.9,0.3,1.4,0.4c1.8-0.3-1.3-0.6,1-0.8l0.1,0
			c0.2,0-0.2-0.2-0.4-0.3c-0.3,0-0.5,0.1-0.7,0.1c-0.2-0.1-1.2-0.2-1.7-0.2c1,0-0.5-0.2,0-0.3c1,0,0.9,0.2,1.4,0.3l-0.6-0.2
			c-0.1-0.2,1-0.1,1.6-0.2c-0.7-0.2-0.5,0.1-1.5-0.1c1.2-0.1,0.9-0.9,0-1.3c0.1,0.1,1,0.1,0.9,0.2c0.2,0-0.3-0.3-1-0.3
			c-0.6-0.3-0.2-0.6,0.5-0.8l-0.7,0c-1.2-0.3,0.9-0.5,0.2-0.9l0,0c-0.2-0.1-1.9-0.3-1.6-0.5C227.5,279.1,227.4,279.2,228.3,279.2z"
			/>
		<path fill="#89C2BB" d="M226.6,277.9l1,0.2c0.2-0.1-1.1-0.3-1.7-0.3c0.2,0.1-0.2,0.2,0.3,0.2C226.4,277.9,226.8,277.9,226.6,277.9
			z"/>
		<path fill="#89C2BB" d="M226.6,275.5c-0.2-0.1-0.6-0.1-0.9-0.1c0.1,0.5,0.5,1.2-0.3,1.3c-0.3,0.2,1.2,0.3,1.6,0.5l-1,0
			c0.6,0.1-0.5,0.5,1.2,0.4c0.1,0-0.8-0.1-0.5-0.2l0.6,0l-0.2-0.2l0.7,0.1c1.1-0.3-2.2-0.3-1.5-0.7l1.5,0.1c0.1-0.3-0.4-0.4,0.5-0.6
			c0,0-0.7,0-0.4,0c-0.1,0-0.7,0.1-1.1,0c-1.1-0.4,0.9,0.1,1.5-0.1c-1-0.4-1.8-1-0.6-1.2c-0.9,0.1-1.8-0.2-1.7-0.3
			c0.5-0.1,0.9,0.1,1.3,0.2c0.2-0.1,0.5-0.1,0.3-0.2c-0.8,0.1-1.9-0.1-2.4-0.3C224.1,274.6,226.8,275,226.6,275.5z"/>
		<path fill="#89C2BB" d="M225.4,275.3c0,0,0.2,0.1,0.3,0.1c0-0.1,0-0.1,0-0.2L225.4,275.3z"/>
	</g>
</g>
<g>
	<path fill="#FFD25C" d="M373.5,78.1c-2.9,4-4.5,8.9-4.7,13.8c-3.9,93.7-81.1,168.5-175.8,168.5C97.3,260.4,19.4,184,17.1,88.9
		c-0.1-3.1-0.8-6.1-2-9l-13-30.5C-7.3,27.2,16.9,5.8,37.8,17.8L72,37.5c14.4,8.3,32.7,0.6,36.9-15.4l0,0
		c5.3-20.4,31.8-25.6,44.4-8.8l21.6,28.8c9.6,12.8,28.6,13.5,39.1,1.3l30-34.7c13.4-15.5,38.7-9.3,43.4,10.6l1.5,6.3
		c3.6,14.9,19.6,23.2,33.8,17.4l26.6-10.7c23.4-9.4,44.5,17.6,29.8,38L373.5,78.1z"/>
	<g>
		<polygon fill="#FFC235" points="137.3,237.2 137.7,236.6 136.8,237.1 		"/>
		<path fill="#FFC235" d="M134.9,234c-0.8,0.3-1.6,0.2-2.7,1.2l1.4-0.5c-0.7,0.9-0.4,1.1,0.2,1.1l-0.4-0.2c0.2,0,0.6-0.6,0.8-0.6
			c0.1,0.9,1.2-0.1,0.8,1.2l-0.1,0.1l0.8-0.2c0,0.2-0.4,0.6-0.6,0.7c0.7-0.2,1.4-0.4,1.7,0c1-1.8-2,0.4-0.9-1.4l0.1-0.1
			C135.2,235.4,135.7,234,134.9,234z"/>
		<path fill="#FFC235" d="M135.2,236.7L135.2,236.7C135.1,236.8,135.2,236.7,135.2,236.7z"/>
		<path fill="#FFC235" d="M124,217l-0.3,0.1C123.8,217.1,123.9,217.1,124,217z"/>
		<path fill="#FFC235" d="M124,225.1L124,225.1C123.6,225.2,123.7,225.2,124,225.1z"/>
		<path fill="#FFC235" d="M112.2,181.1l0.4-0.2C112.2,181,112.1,181.1,112.2,181.1z"/>
		<path fill="#FFC235" d="M110.9,171.6L110.9,171.6L110.9,171.6z"/>
		<path fill="#FFC235" d="M105.4,177l-0.4,0.1C105.2,177.1,105.4,177.1,105.4,177z"/>
		<path fill="#FFC235" d="M104.1,174.1c0.1-0.1,0.2-0.2,0.1-0.3C104,173.9,104,174,104.1,174.1z"/>
		<path fill="#FFC235" d="M111,171.7c-0.1,0-0.1,0-0.2-0.1C110.9,171.6,111,171.7,111,171.7z"/>
		<path fill="#FFC235" d="M105.5,181.8l-1,0.3C104.8,182.1,105.2,181.9,105.5,181.8z"/>
		<path fill="#FFC235" d="M103.1,173.4c0.2-0.1,0.3-0.2,0.3-0.2C103.2,173.3,103.1,173.4,103.1,173.4z"/>
		<path fill="#FFC235" d="M134.4,233.7c0.1,0,0.2,0.1,0.3,0.1C134.7,233.6,134.6,233.6,134.4,233.7z"/>
		<path fill="#FFC235" d="M108.5,199.5c-0.1,0-0.3,0-0.4,0.1C108.2,199.6,108.4,199.5,108.5,199.5z"/>
		<path fill="#FFC235" d="M106.2,189.2L106.2,189.2c-0.1,0-0.1,0-0.2,0.1L106.2,189.2z"/>
		<path fill="#FFC235" d="M107,192.2c-0.1,0-0.1,0-0.2,0C106.9,192.2,107,192.2,107,192.2z"/>
		<path fill="#FFC235" d="M104.6,187.2c-0.1,0-0.2,0-0.4,0L104.6,187.2z"/>
		<path fill="#FFC235" d="M105.2,184.8c-0.4,0.2-0.7,0.1-1.1,0.1c-0.4,0.6,0.9,0.6,0.1,1.3l0.5-0.4c0.8,0.2,1.1,0.8,0.2,1.4l-0.4,0
			c0.9,0.2-0.5,1,0.2,1c0.4-0.2,0.7-0.1,1.1-0.5l1,0.7l-1.4,0.4l0.6,0.4c0.5-0.2-0.3,0.7,1,0.4c-0.5,0.4-1.1,0.1-1.7,0.2
			c0.5,0.2-0.1,0.3,0.7,0.4l-1.2,0.5l1,0.5c-0.1,0-0.2,0.1-0.3,0c1.1,0.1-0.4,0.9,1.5,0.9c-0.1,0-0.1,0-0.2,0c1,0,0.4,0.7,0.3,0.9
			c0.3,0.3,1.2-0.1,1.7-0.2c-0.1,1.1-0.1,0.7,1.6,1.2c-1.4,0.9-2.6,0-3.5,0.9c0.8-0.1,1.5,0.2,1.9,0.6c-0.4,0.6-0.6,1.5-1.5,2.2
			l1-0.3l0.7,0.5l-1.6,0c0.4,0,1.1,0.2,1.6,0.2c1.1,0.4-2.1,1-0.4,1.1c-0.1,0-0.2,0.1-0.3,0.1c0.8,0,0.7,0.5,1.1,0.9l-1.3,0.2
			l0.2-0.4c-1.2,0.5,0.4,0.5,0.4,0.8c0.5,0.2,1.5-0.3,2-0.2c0,0.1,0.4,0.2,0.1,0.4c-0.3,0.4-1.5,0.5-2.1,0.5c1.4-0.1,1.2,0,1.9,0.4
			c-0.6,0.2-0.9,0.3-1,0.2c0.2,0.1,0.5,0.1,1.1,0l-0.7,0.4c-0.8,1,2.6-0.1,2.4,0.8c-0.7,0,0.4,0.6-0.4,1.1c-0.3-0.2-1.8,0.7-2.6,0.8
			c-0.2,0.8,1.6-0.2,2,0.1l-1.6,0.3c0.8,0.2,0.9-0.2,1.5,0.2c-0.5,0-0.3,0.4-0.9,0.2c0.1,0.7,0.1,0.5,0.2,1.1l1.5-0.5
			c0.2,0.1-0.4,0.4-0.7,0.6c-0.1-0.1,0-0.2-0.2-0.1c-1.2,0.7,0.9,0.1-0.2,0.8c0.5-0.2,1.1-0.5,1.3-0.3c-0.9,0.3-0.7,0.7-1.1,0.8
			c0.6-0.4,0.5,0.4,1.5,0.1c-0.6,0.5-0.8,0.2-1.3,0.4c1.2-0.2,0.5,0.9,1.2,0.8c-0.1,0-0.2,0.1-0.2,0.1c0.8,0,1.2,0.4,2.4,0.5
			l-0.9,0.2c-0.1,0.7,1.9-0.4,2.1,0.1c-1.2,0.4,0.4,0.7-1,1.1c0.8,0,1.2,0.1,2.3-0.1c-0.6,0.5-1.8,0.2-2,0.7l0.8,0.1l-0.6,0.3
			c0.5-0.2,0.7,0.1,1-0.1c-0.8,0.4-1.2,0.8-1.8,1c0.3,0.1-0.3,0.8,0.5,0.7l-0.4,0.2c1.5-0.4,0.6,0.6,2.2,0.1l-0.7,0.5
			c0.3,0.3,1.8-0.5,2.2-0.5c0.1,0.1,0.4,0.2,0.3,0.4c-1.2,0-1,0.8-1.5,1.1c0.1,0.2,0.5,0.7,1.2,0.5c-0.9,0.1-1.4,0.6-1.7,0.2
			c-1.3,0.9,0.6,0.5,0.7,1l-0.7,0.3c0.8,0.4,1.9-0.1,3.2-0.4c-0.8,0.5-1,0.5-1.9,0.8c-0.3,0.7,0.6,1.1,0.8,1.6
			c-0.5,0.5-0.9,0.5-1.2,0.5c0.9,0.2,0.5,1.2,2.1,0.7c-0.6,0.2-0.3,0.4-0.4,0.7c0.3-0.2,0.7-0.3,0.7-0.3c0.7,0,1.6,0.3,1.3,0.9
			l-0.5,0.1c0.2,0.9,2.8-0.2,2.3,1.3c-0.2,0.3-1.2,0.6-1,0.8c0.6-0.2,1.6-0.9,1.6-0.3l-0.9,0.5l1.1-0.3c0.7-0.6,0.1-0.9,1.1-1.1
			c-0.6,0.9,1-0.2,0.3,0.8c-0.2,0-0.9,0.3-1.3,0.5c-0.5,1.6,1.7,0.6,1.2,2.2c1-0.1,1.5,0.4,2.3,0.2c-0.9,0.6-1.6,1.2-2.4,1.5
			c0.2,0.4,2.2-0.8,1.2,0.4c1.3-0.7,1.5,0.4,3.1-0.7c-0.3,0.3,0.3,0.4-0.9,0.7c0.9,0-0.9,1.7-0.7,1.9c0.1,0.1,0.9-1,1.1-0.7
			c0,0.1-0.2,0.2-0.2,0.3l0.5-0.2c-0.3,0.4-0.9,0.5-1.3,0.8c0,0.7,1.4-0.1,1.9,0.3l-0.3,0.2l0.3,0.5l-0.1,0.1l0.9-0.1l-0.4,0.3
			c0.2,0,0.4-0.2,0.6-0.1l-0.5,0.4c0.9-0.6,1.6-0.5,1.8-0.3l-0.2,0.2l1.4-0.4c-0.3,0.7-1.4,0.7-0.6,0.9l-1.1,0.8
			c0.7,0,0.3,0.5,0.8,0.5c0.4-0.6,0.2-0.7,0.7-1c-0.8,1.3,0.7,0.2,1.4,0c-0.2-0.1-0.2-0.2-0.9,0.2c-0.1-0.2,0.5-0.5,0.4-0.7
			l-0.7,0.3l0.6-0.7L133,233c0.8-0.7-0.2-0.4,0.7-1c-0.6,0.1-0.1-0.6-1.1-0.1c0.3-0.6,0.8-0.3,0.7-0.5c-1.5-0.4-2.3-1.5-2.8-2.8
			l0.5-0.2c-0.5,0.2-0.9,0.3-1.2,0.5c0.5-0.7,0.8-2.1-0.6-1.3c0-0.1,0.3-0.2,0.4-0.2c-0.4-0.3,0-1.5-0.5-2c-1.5,0.8,0.3-1.4-1.7-0.3
			l0.5-0.2c-0.4,0.5-1.5,0.7-2,0.9c1.1-1,0.9-0.7,2-1.6l-0.3,0.5l1-0.7c-3.1,1.1,0.4-2.1-1.8-1.2c0.1,0,0.3-0.2,0.4-0.2
			c0.4-0.7-1,0-1.5,0c0.5-0.4,0.9-0.4,1.4-0.6c0.1-0.7-1.8-0.7-1.3-1.8c-0.8,0.2-0.9,0.6-1.6,0.8c0.1-0.3,0.6-0.8,1.1-0.8
			c1.1-1.3-1.8-1.1-1-2.6c-1,0-1.3,0.5-2.1,0.1c0.6-0.1,1.7-1.1,2-0.8l0.6-0.3c-0.2-0.7-0.4-1.6-2.2-1.1c1.2-0.6,0.2-0.2,0.7-0.8
			c-0.2,0-0.2,0.1-0.2,0.2c-1.2,0.3-0.1-0.4-0.4-0.5l0.2,0l-1-0.1c0.1-0.2,0.3-0.4,0.7-0.6l-0.9,0.4c-0.1-0.2,1-0.6,0.7-0.8
			l-0.6,0.4c0.3-0.4-0.7-0.3,0.2-0.7c0.2-0.1,0.1,0,0.2,0c1.2-0.9-0.8-0.6-0.3-1.2l-1.4,0.7c-0.6-0.2,0.2-0.4,0.7-0.6
			c-0.1-0.2,0.3-0.5,0.3-0.9c-0.4,0-0.6,0.1-1,0.3l0.2-0.5l0.9-0.1c-2.3,0.4-0.3-1.4-2.3-0.9c0.3-0.4,0.9-0.2,1.1-0.4
			c0.7-1-1.9-0.8-1-1.8c0.7-1.2-0.6-1.8-0.3-3l-0.4,0.2l0.1-0.8c-0.9,0.1-0.7-0.5-1.8-0.4c0.3-0.1,0.8-0.3,1-0.3
			c-0.2-0.2-0.8-0.4-0.3-0.8l0.4,0c0-0.7-0.2-1.6-1.1-1.7c-0.2-0.2,0.5-0.4,1-0.6c-0.1-0.4-0.5-0.5-1.3-0.6c0.1-0.1,0.3-0.3,0.6-0.5
			l-1,0.1c0.1-0.2,0.8-0.3,1-0.5c-1.3-0.2-0.5-1.2-0.7-1.6l-0.5,0.2c-0.4-0.1,0.2-0.6,0.7-0.5c0.3-1-1.9-0.8-1.9-2
			c1.7-0.6-0.8-0.9,1.1-1.5c-0.6-0.3,0.1-0.8-1.1-0.9c0.2-0.1,0.3-0.1,0.3-0.1c0.7-0.4,0-0.8-0.6-1.2l0.6-0.2
			c-1.3,0.1-1.1-0.8-2.5-0.7c0.3-0.1,0.6,0,0.8,0c1.2-0.5-0.7-0.3-0.5-0.7c0.3,0,0.7-0.2,0.9-0.2c1.2-1.4-1.6-2.4-0.9-4
			c0-0.4-1.3,0.4-1.4-0.1c0.6-0.3,1.4,0,1.6-0.4c-0.9-0.1-0.7-0.2-0.7-0.5c0.4,0,0.7-0.1,1.1,0c0.5-0.3-1.2-0.6-0.2-1.1
			c-0.4,0.1-0.6,0.1-0.9,0.1c-1.2-0.3,0.9-1.4,0.3-1.4c0,0-0.2-0.2-0.3,0c0-0.2,0.1-0.5,0.8-0.6c-0.4,0-0.9,0-1-0.2l0.8-0.1
			c-0.2-0.1-0.7-0.1-0.8-0.1l-0.4,0.2c0.6-0.3-1-0.5,0.4-0.8l0,0.1l0.6-0.5c-0.6-0.1-1.2-0.1-1.1-0.4c1.5-0.4,0.2-0.8,0.3-1.2
			l0.5-0.1c-0.8-0.1-0.6-0.9-0.8-0.8c-0.1-0.3,0.2-0.7,0.7-0.7c-0.3-0.2-0.4-0.6-1.3-0.6l1.2-0.7c-1.9,0.1,0.5-1-1.5-0.7
			c0.3-0.3,0.7-0.3,1-0.6c-1-0.2-0.9-0.6-0.8-1l0.2,0c0.1-0.4-1-0.6-1.2-1.1l1.5-0.4c-0.3-0.2-1.4-0.1-1.2-0.4
			c0.2-0.1,0.3-0.1,0.4,0c-0.3-0.2,0-0.6,0.3-0.8c-1.2-0.2-0.8-0.6-2-0.7c1.3-0.5,0.7,0.3,1.9-0.1c0.6-0.7-0.2-1.1-1-1.6
			c0.3-0.1,0.5-0.1,0.8-0.1c0,0-3.8-0.6-5.2-0.2c-1,0-1.6-0.1-2.4,0.6c0.6,0.1,1.4,0.4,0.3,0.7l1.1-0.1c0.6,0.6-2.1,0.4-2,1.2
			l0.3-0.2c0.1,0.1,0.8,0.2,0.5,0.4c-0.3,0.1-0.4,0-0.7,0l1.5,0.5c-0.6,0.1-0.9,0.2-1.4,0.1c0.2,0.6,1.9-0.4,1.6,0.4
			c-0.4,0.2-0.6,0.1-1,0c-0.8,0.5,0,0.6,0.7,0.9c-0.9,0.2-0.9-0.1-1.4,0.3c0.5-0.1,1.3-0.3,1.4-0.1c-1,0-0.5,0.3-0.7,0.5
			c0.3-0.1,0.8-0.2,0.9-0.1c0.2,0.1-0.2,0.2-0.1,0.4l0.9-0.4c1,0.2-0.4,0.7-0.7,1.1c-0.2,0-0.3,0-0.4-0.1c-0.3,0.4-1,0.8-0.1,1.1
			l-0.1,0c1.1,0.6,1.5-0.5,2.5,0.2c-0.1,0.3-3.1,0.4-1.9,0.9c0.7-0.5,2,0.1,2.4,0.4l-1.9-0.1c0,0.2,0.6,0.3,0.4,0.4l0.4-0.1
			c1.5-0.3-0.1,0.5,0.9,0.6c-2.2,0-1.8-0.1-3.9,0.2c1.2,0.1,2.3,0.2,2.2,0.7l-1.7-0.1c-0.2,0.7,2.3,1.1,3.7,1.3
			c-1.2,0.1-1.6,0.4-2.7,0.3l0.4,0.6l-1.3,0.1c1.4,0,0.5,0.5,2.2,0.1c-0.2,0-0.4,0-0.4-0.1c0.5-0.1,1.6-0.2,1.6,0.2
			c-0.4,0.3-0.7,0-1.2,0.1c0.7,0.1-0.4,0.3,0.2,0.4l0.7-0.3c1,0,0.1,0.3,0.6,0.5c-0.5-0.2-1,0-1.6,0.2l0.1,0
			c0.1,0.1,0.8,0.2,0.3,0.4l-1.4,0.1l1.1,0c-0.2,0.1-0.6,0.3-0.9,0.2c-0.7,0.9,3-0.6,1.9,0.6c-0.5,0.1-0.9,0-0.6-0.3
			c-0.8,0.1-1.3,0.3-1.6,0.6c-0.1,0-0.1,0-0.2,0C104.2,184,104.3,184.6,105.2,184.8z"/>
		<path fill="#FFC235" d="M104.1,183.5c0-0.3-0.1-0.5-0.3-0.6C103.6,183,103.3,183.7,104.1,183.5z"/>
		<path fill="#FFC235" d="M117.7,220.7c-0.1,0-0.1,0-0.2,0L117.7,220.7z"/>
		<path fill="#FFC235" d="M119.1,222.4c0.1-0.1,0.2-0.2,0.2-0.3C119.1,222.3,118.9,222.4,119.1,222.4z"/>
		<path fill="#FFC235" d="M109.7,202.4C109.7,202.4,109.7,202.4,109.7,202.4C109.7,202.4,109.7,202.4,109.7,202.4z"/>
		<path fill="#FFC235" d="M113.5,214c0.5,0,0.9-0.1,1.2-0.2C114.6,213.7,114.2,213.7,113.5,214z"/>
		<path fill="#FFC235" d="M112.5,210c-0.1,0-0.1,0-0.2,0C112.4,210,112.4,210,112.5,210z"/>
		<path fill="#FFC235" d="M108.9,201.9c0.5,0,0.5,0.3,0.9,0.4C109.4,202.3,109.8,201.8,108.9,201.9z"/>
		<polygon fill="#FFC235" points="121.8,223.9 121,224.1 121.6,224 		"/>
		<path fill="#FFC235" d="M120.3,222.4c0.1-0.2-0.5-0.2-0.7,0C120,222.4,120.2,222.4,120.3,222.4z"/>
		<polygon fill="#FFC235" points="117.5,215.4 116.7,215.7 117.3,215.6 		"/>
	</g>
	<g>
		<polygon fill="#FFC235" points="171.1,242.7 171.8,242.7 170.9,242.3 		"/>
		<path fill="#FFC235" d="M171.9,239.1c-0.8-0.3-1.2-1-2.7-1l1.3,0.6c-1.1,0.1-1.1,0.4-0.7,0.8l-0.1-0.4c0.1,0.1,0.9,0.1,1,0.2
			c-0.6,0.6,0.9,0.8-0.3,1.3l-0.1,0l0.7,0.4c-0.2,0.1-0.7,0.1-0.9,0c0.6,0.4,1.2,0.7,1.1,1.2c2-0.3-1.5-1.2,0.5-1.5l0.1,0
			C171.2,240.2,172.5,239.7,171.9,239.1z"/>
		<path fill="#FFC235" d="M170.2,241C170.2,241,170.2,241,170.2,241C170.1,241,170.1,241,170.2,241z"/>
		<path fill="#FFC235" d="M173.6,220.4l-0.3,0C173.4,220.4,173.5,220.5,173.6,220.4z"/>
		<path fill="#FFC235" d="M169.4,226.6C169.4,226.6,169.4,226.6,169.4,226.6C169,226.6,169.1,226.6,169.4,226.6z"/>
		<path fill="#FFC235" d="M174,186.1l0.5-0.1C174.1,186.1,174,186.1,174,186.1z"/>
		<path fill="#FFC235" d="M174.6,177.7C174.6,177.7,174.6,177.7,174.6,177.7C174.6,177.7,174.6,177.7,174.6,177.7z"/>
		<path fill="#FFC235" d="M168.2,181.4l-0.4,0C168,181.4,168.2,181.4,168.2,181.4z"/>
		<path fill="#FFC235" d="M167.5,178.6c0.1-0.1,0.2-0.1,0.2-0.2C167.4,178.5,167.4,178.5,167.5,178.6z"/>
		<path fill="#FFC235" d="M174.8,177.8c-0.1,0-0.1-0.1-0.2-0.1C174.6,177.7,174.7,177.7,174.8,177.8z"/>
		<path fill="#FFC235" d="M167.4,185.5l-1.1,0.1C166.6,185.6,167,185.5,167.4,185.5z"/>
		<path fill="#FFC235" d="M166.6,177.9c0.2,0,0.3-0.1,0.4-0.1C166.8,177.8,166.6,177.9,166.6,177.9z"/>
		<path fill="#FFC235" d="M171.9,238.6c0,0.1,0,0.2,0.1,0.3C172.1,238.8,172,238.7,171.9,238.6z"/>
		<path fill="#FFC235" d="M166,200.9c-0.1,0-0.2,0-0.4-0.1C165.7,200.9,165.8,200.9,166,200.9z"/>
		<path fill="#FFC235" d="M166.4,191.8L166.4,191.8c-0.1,0-0.1,0-0.2,0L166.4,191.8z"/>
		<path fill="#FFC235" d="M166.5,194.5c-0.1,0-0.1,0-0.2,0C166.4,194.5,166.5,194.5,166.5,194.5z"/>
		<path fill="#FFC235" d="M165.3,189.8c-0.1,0-0.2-0.1-0.4-0.1L165.3,189.8z"/>
		<path fill="#FFC235" d="M166.5,187.9c-0.4,0.1-0.7,0-1.1-0.1c-0.5,0.5,0.8,0.7-0.1,1.1l0.5-0.2c0.8,0.3,0.9,0.9-0.1,1.2l-0.3-0.1
			c0.8,0.3-0.7,0.8,0,0.9c0.5-0.1,0.7,0,1.2-0.2l0.9,0.8l-1.4,0l0.5,0.4c0.6-0.1-0.5,0.5,0.9,0.6c-0.5,0.2-1.1-0.1-1.6-0.2
			c0.4,0.2-0.2,0.2,0.6,0.5l-1.3,0.2l0.9,0.6c-0.1,0-0.2,0-0.3,0c1.1,0.3-0.6,0.7,1.2,1.1c-0.1,0-0.1,0-0.2,0c1,0.2,0.3,0.7,0,0.8
			c0.2,0.3,1.2,0.2,1.7,0.2c-0.3,0.9-0.3,0.6,1.2,1.4c-1.6,0.4-2.5-0.6-3.7-0.1c0.8,0.1,1.4,0.5,1.7,1c-0.6,0.4-1,1.1-2.1,1.4l1,0
			l0.6,0.6l-1.5-0.4c0.4,0.1,1,0.4,1.5,0.6c0.9,0.6-2.3,0.3-0.7,0.8c-0.1,0-0.2,0-0.3,0c0.8,0.2,0.5,0.6,0.8,1l-1.3-0.2l0.3-0.3
			c-1.3,0.1,0.2,0.5,0.1,0.8c0.4,0.3,1.5,0.2,1.9,0.4c-0.1,0.1,0.3,0.3-0.1,0.4c-0.4,0.3-1.6,0-2.1-0.1c1.4,0.3,1.2,0.3,1.7,0.9
			c-0.6,0-0.9,0-1-0.1c0.2,0.1,0.4,0.2,1,0.3l-0.8,0.2c-1.1,0.5,2.4,0.6,2,1.3c-0.7-0.2,0.2,0.6-0.7,0.8c-0.2-0.2-1.9,0.1-2.7-0.1
			c-0.5,0.5,1.6,0.3,1.9,0.7l-1.7-0.2c0.7,0.4,0.9,0.1,1.4,0.6c-0.5-0.1-0.4,0.2-1-0.1c-0.2,0.6,0,0.4-0.2,0.9l1.6,0.1
			c0.2,0.2-0.5,0.2-0.8,0.3c0-0.1,0-0.2-0.2-0.2c-1.4,0.2,0.8,0.3-0.5,0.5c0.5,0,1.2-0.1,1.3,0.1c-1-0.1-0.9,0.3-1.3,0.3
			c0.7-0.1,0.3,0.5,1.4,0.5c-0.7,0.2-0.8-0.1-1.3-0.1c1.2,0.2,0.2,0.8,0.9,1c-0.1,0-0.2,0-0.2,0c0.7,0.3,0.9,0.7,2,1.2l-0.9-0.2
			c-0.4,0.5,1.9,0.4,1.9,0.8c-1.3-0.1,0.1,0.7-1.4,0.5c0.7,0.3,1.1,0.5,2.2,0.7c-0.7,0.2-1.8-0.5-2.2-0.2l0.7,0.4l-0.7,0
			c0.5,0,0.6,0.3,1,0.3c-0.8,0-1.4,0.2-2.1,0.1c0.2,0.2-0.6,0.5,0.2,0.7l-0.4,0c1.6,0.3,0.3,0.7,1.9,0.8l-0.9,0.1
			c0.1,0.3,1.8,0.3,2.2,0.5c0.1,0.1,0.2,0.3,0.1,0.5c-1-0.5-1.3,0.2-1.9,0.3c0,0.2,0.1,0.7,0.9,0.9c-0.8-0.2-1.5-0.1-1.6-0.5
			c-1.6,0.2,0.4,0.6,0.1,1l-0.7,0c0.5,0.6,1.7,0.7,3,1c-0.9,0-1.1,0-2.1-0.2c-0.6,0.4,0,1.1-0.1,1.5c-0.7,0.1-1,0-1.3-0.1
			c0.7,0.5-0.2,1.1,1.4,1.4c-0.6-0.1-0.4,0.2-0.7,0.3c0.3,0,0.8,0.1,0.7,0.1c0.6,0.3,1.2,1,0.7,1.3l-0.5-0.1c-0.3,0.8,2.5,1.2,1.3,2
			c-0.3,0.1-1.3-0.2-1.3,0.1c0.6,0.2,1.8,0.1,1.5,0.5l-1.1-0.1l1.1,0.3c0.9-0.1,0.6-0.6,1.6-0.2c-1,0.3,1,0.3-0.2,0.7
			c-0.1-0.1-0.9-0.3-1.3-0.3c-1.3,0.9,1,1.3-0.4,2.2c0.8,0.5,1,1.1,1.8,1.4c-1.1-0.1-2-0.1-2.8-0.3c-0.1,0.4,2.2,0.6,0.7,0.9
			c1.4,0.2,0.9,1.1,2.9,1.3c-0.4,0,0,0.4-1.2,0c0.7,0.6-1.8,0.7-1.8,0.9c0.1,0.1,1.3-0.1,1.3,0.2c-0.1,0-0.3,0-0.4,0.1l0.5,0.1
			c-0.5,0.1-1-0.2-1.5-0.2c-0.4,0.4,1.2,0.8,1.3,1.3l-0.4-0.1l-0.1,0.5l-0.1,0l0.7,0.4l-0.5,0c0.1,0.1,0.5,0.1,0.5,0.3l-0.6-0.1
			c1,0.2,1.5,0.7,1.5,0.9l-0.3,0l1.3,0.6c-0.7,0.3-1.5-0.4-1.1,0.2l-1.3-0.2c0.5,0.4-0.2,0.5,0.2,0.8c0.7-0.1,0.6-0.3,1.2-0.2
			c-1.5,0.3,0.4,0.6,1,0.9c0-0.2,0-0.3-0.8-0.4c0-0.2,0.7,0,0.8-0.2l-0.7-0.3l0.9,0l-0.7-0.4c1.1,0.1,0.1-0.4,1.3-0.2
			c-0.4-0.3,0.3-0.5-0.7-0.8c0.6-0.2,0.8,0.3,0.9,0.1c-0.8-1.2-0.6-2.4-0.2-3.7l0.5,0.1c-0.5-0.1-0.9-0.3-1.2-0.4
			c0.9-0.2,2-1,0.4-1.3c0.1,0,0.3,0,0.4,0.1c-0.2-0.4,1-1.1,0.8-1.7c-1.7-0.3,1.1-0.9-1.2-1.1l0.5,0.1c-0.6,0.2-1.6-0.3-2.2-0.4
			c1.5-0.1,1.1,0,2.5-0.1l-0.5,0.2l1.2,0c-3.2-0.8,1.5-1.4-0.8-1.9c0.1,0,0.3,0,0.4,0.1c0.7-0.3-0.9-0.6-1.3-0.8
			c0.6,0,1,0.2,1.5,0.3c0.5-0.5-1.2-1.5-0.2-2.1c-0.8-0.2-1.1,0.1-1.7-0.2c0.2-0.2,0.9-0.3,1.3-0.1c1.6-0.5-1-1.7,0.5-2.5
			c-0.9-0.4-1.3-0.2-1.9-0.8c0.6,0.2,2-0.1,2.1,0.3l0.6,0.1c0.1-0.6,0.4-1.5-1.4-1.9c1.4,0,0.3-0.1,1-0.3c-0.1-0.1-0.2,0-0.3,0
			c-1.2-0.3,0.1-0.4-0.1-0.5l0.2,0.1l-0.8-0.5c0.2-0.1,0.4-0.2,0.9-0.2l-0.9,0c0-0.2,1.2-0.1,1-0.4l-0.7,0c0.4-0.2-0.5-0.5,0.5-0.5
			c0.2,0,0.1,0,0.1,0.1c1.4-0.3-0.4-0.8,0.2-1.2l-1.5,0.1c-0.5-0.4,0.3-0.2,0.9-0.2c0-0.2,0.5-0.3,0.7-0.6c-0.4-0.2-0.6-0.1-1-0.2
			l0.4-0.3l0.8,0.2c-2.2-0.6,0.3-1.3-1.8-1.7c0.4-0.2,0.9,0.2,1.2,0.1c1-0.6-1.4-1.4-0.3-1.9c1.1-0.8,0.1-1.8,0.8-2.6l-0.4,0
			l0.3-0.6c-0.9-0.2-0.5-0.6-1.5-0.9c0.3,0,0.8,0,1.1,0.1c-0.1-0.3-0.6-0.6,0-0.7l0.4,0.1c0.3-0.6,0.3-1.4-0.5-1.8
			c-0.1-0.2,0.6-0.2,1.1-0.2c0.1-0.4-0.4-0.6-1-0.9c0.2-0.1,0.4-0.1,0.7-0.2l-1-0.2c0.1-0.1,0.8,0,1.1-0.1c-1.2-0.6-0.1-1.2-0.2-1.6
			l-0.5,0c-0.4-0.2,0.3-0.5,0.8-0.3c0.6-0.7-1.5-1.2-1.3-2.2c1.8-0.1-0.5-0.9,1.5-1c-0.5-0.4,0.3-0.7-0.9-1c0.2,0,0.3,0,0.3,0
			c0.8-0.2,0.2-0.7-0.3-1.2l0.6,0c-1.3-0.2-0.9-0.9-2.2-1.1c0.3,0,0.6,0.1,0.8,0.2c1.3-0.2-0.6-0.4-0.3-0.7c0.3,0,0.7,0,0.9,0
			c1.5-0.9-0.9-2.4,0.1-3.7c0.1-0.4-1.4,0.1-1.3-0.4c0.7-0.1,1.4,0.3,1.6,0c-0.8-0.2-0.7-0.3-0.6-0.6c0.4,0.1,0.7,0,1,0.2
			c0.6-0.1-1-0.7,0.1-1c-0.4,0-0.6-0.1-0.9-0.1c-1.2-0.5,1.2-1.1,0.5-1.1c0,0-0.2-0.2-0.3,0c0-0.2,0.2-0.4,0.9-0.4
			c-0.4-0.1-0.9-0.2-1-0.3l0.8,0.1c-0.2-0.1-0.6-0.2-0.7-0.3l-0.5,0.1c0.6-0.2-0.9-0.6,0.6-0.6l0,0.1l0.7-0.4
			c-0.6-0.2-1.2-0.3-1-0.6c1.5-0.1,0.3-0.6,0.5-1l0.5,0c-0.7-0.3-0.4-0.9-0.7-0.8c0-0.2,0.4-0.6,0.9-0.4c-0.3-0.2-0.3-0.6-1.2-0.8
			l1.3-0.4c-1.9-0.3,0.7-0.8-1.3-0.9c0.3-0.2,0.8-0.2,1.1-0.3c-1-0.3-0.8-0.7-0.6-1l0.2,0c0.2-0.3-0.8-0.7-0.9-1.2l1.5-0.1
			c-0.2-0.2-1.4-0.3-1.1-0.5c0.2,0,0.3,0,0.4,0.1c-0.3-0.2,0.1-0.5,0.5-0.7c-1.1-0.4-0.7-0.6-1.9-1c1.4-0.2,0.6,0.4,1.9,0.2
			c0.7-0.5,0-1-0.7-1.5c0.3,0,0.5,0,0.9,0.1c0,0-3.6-1.2-5.1-1c-1-0.2-1.6-0.3-2.4,0.1c0.6,0.2,1.3,0.6,0.2,0.7l1.1,0.1
			c0.5,0.6-2.2,0-2.2,0.7l0.4-0.1c0.1,0.1,0.7,0.3,0.4,0.4c-0.3,0-0.4-0.1-0.7-0.1l1.4,0.6c-0.6,0-0.9,0-1.4-0.2
			c0,0.6,1.9-0.1,1.5,0.6c-0.5,0.1-0.6-0.1-1-0.2c-0.9,0.3-0.1,0.5,0.5,0.9c-0.9,0-0.8-0.2-1.4,0c0.5,0,1.3-0.1,1.4,0.2
			c-1-0.1-0.5,0.1-0.8,0.3c0.3,0,0.8,0,0.9,0.1c0.1,0.1-0.2,0.2-0.2,0.3l0.9-0.2c0.9,0.4-0.5,0.5-0.9,0.8c-0.2,0-0.3-0.1-0.3-0.1
			c-0.4,0.3-1.2,0.5-0.4,0.9l-0.1,0c0.9,0.7,1.6-0.2,2.4,0.6c-0.2,0.2-3.1-0.2-2,0.4c0.8-0.3,1.9,0.4,2.3,0.8l-1.8-0.4
			c0,0.1,0.5,0.4,0.3,0.5l0.4,0c1.6,0-0.2,0.4,0.7,0.7c-2.1-0.4-1.7-0.4-3.8-0.5c1.2,0.3,2.2,0.6,2,1l-1.6-0.4
			c-0.4,0.6,2,1.3,3.4,1.8c-1.2-0.2-1.6,0-2.7-0.2l0.2,0.6l-1.3-0.2c1.4,0.3,0.4,0.5,2.2,0.5c-0.2-0.1-0.4-0.1-0.4-0.2
			c0.5,0,1.6,0.2,1.5,0.4c-0.4,0.2-0.7-0.1-1.2-0.1c0.7,0.2-0.4,0.2,0.1,0.4l0.8-0.2c1,0.2,0,0.3,0.5,0.5c-0.4-0.2-1-0.2-1.6-0.1
			l0.1,0c0.1,0.1,0.8,0.3,0.2,0.4l-1.4-0.2l1,0.2c-0.2,0.1-0.7,0.1-0.9,0c-0.9,0.6,3,0.1,1.7,0.9c-0.5,0-0.9-0.1-0.6-0.3
			c-0.9-0.1-1.4,0-1.7,0.2c-0.1,0-0.1,0-0.2,0C165.6,187.1,165.6,187.6,166.5,187.9z"/>
		<path fill="#FFC235" d="M165.7,186.7c0-0.2,0-0.4-0.2-0.5C165.2,186.2,164.8,186.6,165.7,186.7z"/>
		<path fill="#FFC235" d="M166.3,220.6c0,0-0.1-0.1-0.1-0.1C166.2,220.5,166.3,220.5,166.3,220.6z"/>
		<path fill="#FFC235" d="M166.7,222.4c0.1,0,0.2,0,0.3-0.1C166.7,222.3,166.5,222.3,166.7,222.4z"/>
		<path fill="#FFC235" d="M166.3,203.5C166.3,203.5,166.3,203.5,166.3,203.5C166.3,203.5,166.3,203.5,166.3,203.5z"/>
		<path fill="#FFC235" d="M165.6,213.9c0.4,0.2,0.8,0.2,1.2,0.3C166.7,214,166.4,213.9,165.6,213.9z"/>
		<path fill="#FFC235" d="M166.3,210.4c-0.1,0-0.1,0-0.2-0.1C166.1,210.4,166.2,210.4,166.3,210.4z"/>
		<path fill="#FFC235" d="M165.6,203c0.5,0.2,0.4,0.4,0.7,0.6C166,203.4,166.5,203.1,165.6,203z"/>
		<polygon fill="#FFC235" points="168.2,224.7 167.5,224.5 168,224.7 		"/>
		<path fill="#FFC235" d="M167.8,222.9c0.2-0.1-0.3-0.4-0.6-0.3C167.5,222.7,167.6,222.8,167.8,222.9z"/>
		<polygon fill="#FFC235" points="168.6,216.4 167.8,216.3 168.4,216.5 		"/>
	</g>
	<g>
		<polygon fill="#FFC235" points="218.6,228.8 219.3,228.9 218.5,228.4 		"/>
		<path fill="#FFC235" d="M220.1,226.1c-0.7-0.4-1-1.1-2.5-1.4l1.2,0.8c-1.1-0.2-1.1,0.1-0.8,0.5l0-0.3c0.1,0.1,0.8,0.2,0.9,0.4
			c-0.7,0.3,0.8,0.8-0.5,1l-0.1-0.1l0.6,0.5c-0.2,0.1-0.7-0.1-0.9-0.2c0.5,0.5,1,0.8,0.9,1.2c2,0.2-1.3-1.3,0.8-1.1l0.1,0.1
			C219.1,226.8,220.5,226.7,220.1,226.1z"/>
		<path fill="#FFC235" d="M218,227.2L218,227.2C217.9,227.2,217.9,227.2,218,227.2z"/>
		<path fill="#FFC235" d="M224.3,211.1L224,211C224.1,211,224.3,211.1,224.3,211.1z"/>
		<path fill="#FFC235" d="M219.5,215.5L219.5,215.5C219.1,215.4,219.2,215.4,219.5,215.5z"/>
		<path fill="#FFC235" d="M225.6,182.5l0.5-0.1C225.7,182.4,225.6,182.4,225.6,182.5z"/>
		<path fill="#FFC235" d="M225.6,175.4L225.6,175.4L225.6,175.4z"/>
		<path fill="#FFC235" d="M219.6,178.9l-0.4,0C219.4,179,219.5,179,219.6,178.9z"/>
		<path fill="#FFC235" d="M218.6,176.8c0.1-0.1,0.2-0.1,0.2-0.2C218.6,176.7,218.5,176.8,218.6,176.8z"/>
		<path fill="#FFC235" d="M225.8,175.5c-0.1,0-0.1,0-0.2-0.1C225.7,175.4,225.7,175.5,225.8,175.5z"/>
		<path fill="#FFC235" d="M218.9,182.3l-1.1,0.1C218.2,182.4,218.6,182.3,218.9,182.3z"/>
		<path fill="#FFC235" d="M217.7,176.3c0.2,0,0.3-0.1,0.4-0.1C217.9,176.2,217.7,176.3,217.7,176.3z"/>
		<path fill="#FFC235" d="M220.1,225.7c0,0.1,0,0.1,0.1,0.3C220.3,225.8,220.2,225.8,220.1,225.7z"/>
		<path fill="#FFC235" d="M217.9,194.5c-0.1,0-0.2,0-0.4-0.1C217.5,194.5,217.7,194.5,217.9,194.5z"/>
		<path fill="#FFC235" d="M218.2,187.4L218.2,187.4c-0.1,0-0.1,0-0.2,0L218.2,187.4z"/>
		<path fill="#FFC235" d="M218.4,189.5c-0.1,0-0.1,0-0.2,0C218.2,189.5,218.3,189.5,218.4,189.5z"/>
		<path fill="#FFC235" d="M217.1,185.8c-0.1,0-0.2,0-0.4-0.1L217.1,185.8z"/>
		<path fill="#FFC235" d="M218.2,184.3c-0.4,0.1-0.7,0-1.1-0.1c-0.5,0.4,0.8,0.5-0.1,0.9l0.5-0.2c0.8,0.2,1,0.7-0.1,0.9l-0.4-0.1
			c0.9,0.2-0.7,0.6,0,0.7c0.5-0.1,0.7,0,1.2-0.2l0.9,0.6l-1.4,0l0.5,0.3c0.6-0.1-0.5,0.4,0.9,0.4c-0.5,0.2-1.1-0.1-1.7-0.2
			c0.4,0.2-0.2,0.2,0.6,0.4l-1.3,0.2l0.9,0.5c-0.1,0-0.2,0-0.3,0c1.1,0.2-0.6,0.5,1.2,0.8c-0.1,0-0.1,0-0.2,0c1,0.2,0.3,0.5,0.1,0.7
			c0.2,0.3,1.2,0.1,1.7,0.2c-0.3,0.7-0.3,0.5,1.2,1.1c-1.6,0.3-2.5-0.5-3.7-0.1c0.8,0.1,1.4,0.4,1.7,0.8c-0.6,0.3-1,0.8-2.1,1.1l1,0
			l0.6,0.5l-1.5-0.3c0.4,0.1,1,0.3,1.5,0.5c0.9,0.5-2.3,0.2-0.7,0.6c-0.1,0-0.2,0-0.3,0c0.8,0.2,0.5,0.5,0.8,0.8l-1.3-0.2l0.3-0.2
			c-1.3,0.1,0.2,0.4,0.1,0.6c0.4,0.3,1.5,0.2,1.9,0.4c-0.1,0.1,0.3,0.2-0.1,0.3c-0.4,0.2-1.6-0.1-2.1-0.2c1.3,0.3,1.2,0.3,1.7,0.8
			c-0.6,0-0.9-0.1-1-0.1c0.2,0.1,0.4,0.2,1,0.3l-0.8,0.1c-1.1,0.4,2.4,0.6,2,1.1c-0.7-0.2,0.1,0.5-0.7,0.6c-0.2-0.2-1.9-0.1-2.7-0.2
			c-0.5,0.4,1.6,0.3,1.8,0.7l-1.6-0.3c0.7,0.4,0.9,0.2,1.4,0.5c-0.5-0.1-0.4,0.1-1-0.1c-0.2,0.4,0,0.3-0.3,0.7l1.6,0.2
			c0.2,0.1-0.5,0.1-0.8,0.2c0-0.1,0-0.1-0.2-0.1c-1.4,0,0.8,0.3-0.5,0.4c0.5,0,1.2,0,1.3,0.2c-1-0.1-0.9,0.2-1.3,0.1
			c0.7,0,0.3,0.4,1.3,0.5c-0.7,0.1-0.8-0.1-1.3-0.2c1.2,0.3,0.1,0.7,0.8,0.9c-0.1,0-0.2,0-0.2,0c0.7,0.3,0.9,0.6,1.9,1.1l-0.9-0.2
			c-0.4,0.4,1.9,0.5,1.8,0.8c-1.3-0.2,0,0.6-1.4,0.3c0.7,0.3,1,0.5,2.1,0.8c-0.7,0.1-1.7-0.6-2.1-0.3l0.6,0.4l-0.7,0
			c0.5,0.1,0.5,0.3,0.9,0.4c-0.8-0.1-1.4,0-2.1-0.1c0.2,0.2-0.6,0.4,0.1,0.6l-0.4,0c1.5,0.4,0.2,0.6,1.9,0.9l-0.9,0
			c0.1,0.3,1.8,0.5,2.1,0.6c0,0.1,0.2,0.3,0.1,0.4c-1-0.5-1.3,0-1.9,0c0,0.1,0,0.6,0.8,0.8c-0.8-0.3-1.5-0.3-1.5-0.6
			c-1.6-0.1,0.3,0.5,0,0.8l-0.7-0.1c0.4,0.6,1.7,0.8,2.9,1.2c-0.9-0.1-1.1-0.2-2-0.4c-0.6,0.2-0.1,0.8-0.2,1.2c-0.7,0-1-0.1-1.3-0.3
			c0.6,0.5-0.3,0.8,1.3,1.3c-0.6-0.2-0.4,0.1-0.8,0.2c0.3,0.1,0.7,0.1,0.7,0.2c0.6,0.3,1.1,1,0.5,1.1l-0.5-0.2
			c-0.4,0.6,2.3,1.3,1,1.8c-0.4,0.1-1.3-0.4-1.3-0.1c0.6,0.2,1.8,0.4,1.4,0.7l-1-0.2l1,0.4c0.9,0,0.6-0.4,1.6,0.1
			c-1,0.1,0.9,0.4-0.3,0.6c-0.1-0.1-0.9-0.4-1.3-0.5c-1.4,0.5,0.8,1.2-0.6,1.7c0.8,0.5,0.8,1,1.5,1.4c-1-0.2-2-0.4-2.7-0.8
			c-0.2,0.3,2.1,0.9,0.5,0.8c1.4,0.4,0.7,1.1,2.7,1.6c-0.4-0.1-0.1,0.3-1.1-0.2c0.6,0.6-1.9,0.2-1.9,0.4c0,0.1,1.3,0.2,1.3,0.4
			c-0.1,0-0.3,0-0.4,0l0.4,0.2c-0.5,0-1-0.3-1.5-0.5c-0.5,0.3,1,0.8,1.1,1.3l-0.3-0.1l-0.2,0.4l-0.1-0.1l0.6,0.5l-0.5-0.1
			c0.1,0.1,0.4,0.2,0.5,0.3l-0.6-0.2c1,0.3,1.4,0.9,1.4,1.1l-0.3,0l1.2,0.8c-0.7,0.1-1.4-0.7-1.1-0.1l-1.3-0.4
			c0.4,0.5-0.3,0.4,0.1,0.7c0.7,0.1,0.6-0.1,1.2,0.1c-1.5-0.1,0.3,0.5,0.8,0.9c0-0.1,0-0.2-0.7-0.5c0.1-0.1,0.7,0.1,0.8,0l-0.7-0.4
			l0.9,0.2l-0.6-0.5c1,0.3,0.2-0.3,1.3,0.1c-0.4-0.3,0.4-0.3-0.6-0.8c0.7,0,0.7,0.4,0.8,0.3c-0.6-1.2-0.2-2.1,0.4-3.1l0.4,0.2
			c-0.4-0.2-0.8-0.4-1.1-0.6c0.9,0,2.1-0.4,0.6-1c0.1,0,0.3,0.1,0.4,0.1c-0.1-0.4,1.1-0.8,1.1-1.3c-1.6-0.5,1.2-0.5-1.1-1.2l0.4,0.2
			c-0.7,0-1.5-0.5-2.1-0.7c1.5,0.1,1.1,0.2,2.5,0.3l-0.5,0.1l1.2,0.2c-3-1.2,1.6-0.9-0.6-1.7c0.1,0,0.3,0.1,0.4,0.1
			c0.7-0.1-0.8-0.6-1.2-0.8c0.6,0.1,1,0.3,1.4,0.5c0.6-0.4-1-1.4,0.1-1.7c-0.8-0.3-1.1-0.1-1.7-0.4c0.3-0.1,0.9-0.1,1.3,0.1
			c1.6-0.2-0.8-1.6,0.7-2c-0.9-0.5-1.3-0.3-1.8-1c0.6,0.2,2,0.2,2,0.5l0.6,0.1c0.2-0.5,0.5-1.2-1.2-1.7c1.3,0.2,0.3-0.1,1-0.2
			c-0.1-0.1-0.2,0-0.3,0c-1.1-0.4,0.1-0.3-0.1-0.5l0.2,0.1l-0.8-0.5c0.2,0,0.5-0.1,0.9-0.1l-0.9-0.1c0-0.2,1.2,0.1,1-0.2l-0.7,0
			c0.5-0.1-0.5-0.5,0.5-0.4c0.2,0,0.1,0,0.1,0.1c1.5-0.1-0.4-0.7,0.3-0.9l-1.5-0.1c-0.4-0.4,0.3-0.1,0.9-0.1c0-0.2,0.5-0.2,0.7-0.4
			c-0.4-0.2-0.6-0.1-1-0.2l0.4-0.2l0.8,0.3c-2.2-0.7,0.4-1-1.6-1.5c0.4-0.1,0.9,0.2,1.2,0.2c1-0.4-1.3-1.3-0.2-1.6
			c1.2-0.6,0.2-1.5,1-2.1l-0.4,0l0.4-0.5c-0.9-0.2-0.5-0.6-1.5-0.9c0.3,0,0.8,0,1.1,0.1c-0.1-0.2-0.5-0.5,0-0.6l0.3,0.1
			c0.3-0.5,0.4-1.2-0.4-1.5c-0.1-0.2,0.7-0.1,1.2-0.1c0.1-0.3-0.3-0.5-1-0.8c0.2-0.1,0.4-0.1,0.7-0.2l-1-0.2c0.1-0.1,0.8,0,1.1-0.1
			c-1.2-0.5-0.1-1-0.1-1.3l-0.5,0c-0.4-0.2,0.3-0.4,0.8-0.2c0.6-0.6-1.5-1-1.2-1.9c1.8-0.1-0.5-0.8,1.5-0.8
			c-0.5-0.4,0.3-0.6-0.9-0.9c0.2,0,0.3,0,0.3,0c0.8-0.1,0.2-0.6-0.3-1l0.6,0c-1.3-0.2-0.9-0.8-2.3-0.9c0.3,0,0.6,0.1,0.8,0.1
			c1.3-0.2-0.6-0.3-0.3-0.6c0.3,0,0.7,0,0.9,0c1.4-0.8-1-2,0-3c0-0.3-1.4,0.1-1.3-0.3c0.7-0.1,1.4,0.2,1.6-0.1
			c-0.8-0.2-0.7-0.2-0.6-0.5c0.4,0,0.7,0,1,0.2c0.6-0.1-1.1-0.6,0-0.9c-0.4,0-0.6,0-0.9-0.1c-1.2-0.4,1.2-0.9,0.5-1
			c0,0-0.2-0.1-0.3,0c0-0.1,0.2-0.4,0.9-0.3c-0.4-0.1-0.9-0.1-1-0.2l0.8,0c-0.2-0.1-0.7-0.1-0.8-0.2l-0.5,0.1
			c0.6-0.2-0.9-0.5,0.5-0.5l0,0.1l0.7-0.3c-0.6-0.1-1.2-0.2-1-0.4c1.5-0.1,0.3-0.6,0.5-0.8l0.5,0c-0.7-0.2-0.4-0.7-0.7-0.6
			c0-0.2,0.3-0.5,0.8-0.4c-0.3-0.2-0.3-0.5-1.2-0.6l1.3-0.4c-1.9-0.1,0.6-0.7-1.4-0.6c0.3-0.2,0.7-0.2,1.1-0.3
			c-1-0.2-0.8-0.5-0.7-0.8l0.2,0c0.1-0.3-0.9-0.5-1-0.9l1.5-0.2c-0.2-0.2-1.4-0.1-1.1-0.4c0.2-0.1,0.3,0,0.4,0
			c-0.3-0.2,0-0.4,0.4-0.6c-1.1-0.2-0.7-0.5-1.9-0.6c1.3-0.3,0.6,0.3,1.9,0c0.7-0.5-0.1-0.8-0.8-1.2c0.3-0.1,0.5,0,0.9,0
			c0,0-3.7-0.6-5.2-0.3c-1,0-1.6-0.1-2.4,0.4c0.6,0.1,1.3,0.3,0.2,0.5l1.1-0.1c0.5,0.4-2.2,0.2-2.1,0.8l0.3-0.2
			c0.1,0.1,0.8,0.1,0.4,0.3c-0.3,0.1-0.4,0-0.7,0l1.5,0.4c-0.6,0.1-0.9,0.1-1.4,0c0.1,0.4,1.9-0.2,1.6,0.3c-0.5,0.1-0.7,0-1,0
			c-0.9,0.3,0,0.4,0.6,0.6c-0.9,0.1-0.8-0.1-1.4,0.2c0.5-0.1,1.3-0.2,1.4,0c-1,0-0.5,0.2-0.7,0.3c0.3-0.1,0.8-0.1,0.9,0
			c0.2,0.1-0.2,0.2-0.2,0.3l0.9-0.3c0.9,0.2-0.5,0.5-0.8,0.7c-0.2,0-0.3,0-0.4-0.1c-0.4,0.2-1.1,0.5-0.3,0.8l-0.1,0
			c1,0.5,1.6-0.3,2.5,0.3c-0.2,0.2-3.1,0.1-2,0.5c0.8-0.3,2,0.2,2.3,0.4l-1.9-0.2c0,0.1,0.5,0.3,0.3,0.3l0.4,0
			c1.6-0.1-0.2,0.4,0.8,0.5c-2.1-0.1-1.7-0.2-3.9-0.1c1.2,0.1,2.3,0.3,2,0.6l-1.6-0.2c-0.3,0.5,2.1,0.9,3.5,1.2
			c-1.2-0.1-1.6,0.1-2.7,0l0.3,0.4l-1.3-0.1c1.4,0.1,0.4,0.4,2.2,0.3c-0.2,0-0.4,0-0.4-0.1c0.5,0,1.6,0,1.6,0.3
			c-0.4,0.2-0.7-0.1-1.2,0c0.7,0.1-0.4,0.2,0.1,0.3l0.8-0.2c1,0.1,0.1,0.3,0.6,0.4c-0.4-0.2-1-0.1-1.6,0l0.1,0
			c0.1,0.1,0.8,0.2,0.2,0.3l-1.4-0.1l1,0.1c-0.2,0.1-0.7,0.1-0.9,0c-0.8,0.5,3-0.1,1.8,0.6c-0.5,0-0.9-0.1-0.6-0.2
			c-0.9,0-1.4,0-1.7,0.2c-0.1,0-0.1,0-0.2,0C217.3,183.6,217.2,184.1,218.2,184.3z"/>
		<path fill="#FFC235" d="M217.3,183.3c0-0.2,0-0.3-0.2-0.4C216.8,182.9,216.4,183.3,217.3,183.3z"/>
		<path fill="#FFC235" d="M217.1,210.2c0,0-0.1-0.1-0.1-0.1L217.1,210.2z"/>
		<path fill="#FFC235" d="M217.3,211.7c0.1,0,0.2,0,0.3,0C217.3,211.6,217.1,211.6,217.3,211.7z"/>
		<path fill="#FFC235" d="M218.1,196.7L218.1,196.7L218.1,196.7z"/>
		<path fill="#FFC235" d="M216.9,204.8c0.4,0.2,0.8,0.3,1.2,0.3C218,205.1,217.7,205,216.9,204.8z"/>
		<path fill="#FFC235" d="M217.8,202.1c-0.1,0-0.1,0-0.2-0.1C217.7,202.1,217.7,202.1,217.8,202.1z"/>
		<path fill="#FFC235" d="M217.4,196.2c0.5,0.2,0.4,0.3,0.7,0.5C217.8,196.5,218.3,196.3,217.4,196.2z"/>
		<polygon fill="#FFC235" points="218.5,213.7 217.8,213.5 218.3,213.7 		"/>
		<path fill="#FFC235" d="M218.3,212.3c0.2,0-0.2-0.3-0.6-0.3C218,212.1,218.1,212.2,218.3,212.3z"/>
		<polygon fill="#FFC235" points="219.7,207.2 219,207 219.5,207.2 		"/>
	</g>
	<g>
		<polygon fill="#FFC235" points="252.6,230.9 252.9,231.6 253,230.6 		"/>
		<path fill="#FFC235" d="M257.2,230c0.1-0.9,0.6-1.6,0-3c0,0.5-0.1,1-0.1,1.5c-0.5-1-0.9-0.7-1.2-0.3l0.4-0.2
			c-0.1,0.2,0.3,0.8,0.2,1c-0.9-0.3-0.5,1.3-1.6,0.4l0-0.1l-0.3,0.9c-0.2-0.1-0.3-0.6-0.4-0.8c-0.2,0.7-0.4,1.4-1,1.6
			c1.2,1.7,0.8-2,2-0.2l0,0.1C255.6,229.9,256.8,230.8,257.2,230z"/>
		<path fill="#FFC235" d="M254.3,229.3L254.3,229.3C254.3,229.2,254.3,229.2,254.3,229.3z"/>
		<path fill="#FFC235" d="M278.1,217.4l-0.2-0.2C277.9,217.2,278,217.3,278.1,217.4z"/>
		<path fill="#FFC235" d="M269.3,219.7L269.3,219.7C269.2,219.3,269.2,219.4,269.3,219.7z"/>
		<path fill="#FFC235" d="M295.2,176.7l0.5-0.1C295.3,176.5,295.2,176.6,295.2,176.7z"/>
		<path fill="#FFC235" d="M295.1,165.5L295.1,165.5L295.1,165.5z"/>
		<path fill="#FFC235" d="M289.3,170.9l-0.4,0C289.1,171,289.2,171,289.3,170.9z"/>
		<path fill="#FFC235" d="M288.2,167.8c0.1-0.1,0.2-0.2,0.2-0.3C288.2,167.6,288.1,167.7,288.2,167.8z"/>
		<path fill="#FFC235" d="M295.3,165.6c-0.1,0-0.1-0.1-0.2-0.1C295.1,165.5,295.2,165.6,295.3,165.6z"/>
		<path fill="#FFC235" d="M288.6,175.8l-1.1,0.1C287.9,175.9,288.2,175.8,288.6,175.8z"/>
		<path fill="#FFC235" d="M287.3,167.1c0.2-0.1,0.3-0.1,0.4-0.2C287.4,167,287.3,167,287.3,167.1z"/>
		<path fill="#FFC235" d="M257.8,229.7c-0.1,0.1-0.2,0.1-0.3,0.3C257.7,230,257.8,229.9,257.8,229.7z"/>
		<path fill="#FFC235" d="M284.2,193.1c-0.1-0.1-0.2-0.1-0.4-0.2C283.9,193,284,193,284.2,193.1z"/>
		<path fill="#FFC235" d="M287.1,183.1L287.1,183.1c-0.1,0-0.1,0-0.2,0L287.1,183.1z"/>
		<path fill="#FFC235" d="M286.6,186.1c-0.1,0-0.1-0.1-0.2-0.1C286.5,186.1,286.6,186.1,286.6,186.1z"/>
		<path fill="#FFC235" d="M286.3,180.7c-0.1,0-0.2-0.1-0.3-0.1L286.3,180.7z"/>
		<path fill="#FFC235" d="M287.6,178.6c-0.4,0.1-0.7-0.1-1.1-0.2c-0.6,0.5,0.8,0.8-0.2,1.3l0.6-0.2c0.7,0.4,0.8,1.2-0.2,1.3
			l-0.3-0.1c0.8,0.5-0.8,0.8-0.1,1c0.5-0.1,0.7,0.1,1.2,0c0.3,0.3,0.5,0.7,0.7,1l-1.4-0.2l0.4,0.5c0.6,0-0.6,0.5,0.8,0.8
			c-0.6,0.2-1.1-0.3-1.6-0.5c0.4,0.3-0.2,0.2,0.5,0.6l-1.3,0c0.3,0.3,0.5,0.6,0.8,0.8c-0.1-0.1-0.2,0-0.3-0.1c1,0.5-0.8,0.6,0.9,1.4
			c-0.1,0-0.1,0-0.2-0.1c0.9,0.4,0.1,0.8-0.1,1c0.1,0.4,1.1,0.4,1.6,0.6c-0.6,1-0.4,0.6,0.8,1.9c-1.7,0.1-2.3-1.3-3.5-0.9
			c0.7,0.3,1.2,0.9,1.3,1.5c-0.7,0.3-1.3,0.9-2.5,1l1,0.3c0.1,0.3,0.2,0.5,0.3,0.8l-1.3-0.8c0.3,0.2,0.8,0.7,1.2,1.1
			c0.6,1-2.3-0.4-1,0.6c-0.1,0-0.2,0-0.3-0.1c0.7,0.4,0.3,0.8,0.3,1.4l-1.2-0.7l0.4-0.2c-1.3-0.3,0,0.6-0.2,0.9
			c0.3,0.5,1.4,0.7,1.6,1.1c-0.1,0.1,0.2,0.4-0.2,0.4c-0.5,0.1-1.4-0.6-1.9-0.9c1.2,0.8,1,0.8,1.2,1.6c-0.6-0.2-0.8-0.4-0.9-0.5
			c0.1,0.2,0.3,0.4,0.8,0.7l-0.8-0.1c-1.3,0.1,1.9,1.6,1.2,2.2c-0.5-0.5-0.2,0.7-1,0.6c-0.1-0.3-1.8-0.8-2.4-1.3
			c-0.7,0.3,1.3,0.9,1.3,1.5l-1.4-0.9c0.4,0.8,0.7,0.5,0.9,1.2c-0.4-0.3-0.5,0-0.8-0.5c-0.4,0.5-0.2,0.4-0.7,0.8l1.4,0.8
			c0.1,0.3-0.6,0-0.9-0.1c0-0.1,0.1-0.2-0.1-0.3c-1.3-0.5,0.5,0.7-0.7,0.3c0.5,0.2,1.1,0.5,1.1,0.7c-0.8-0.6-1-0.1-1.3-0.3
			c0.7,0.2,0,0.6,0.9,1.2c-0.8-0.1-0.6-0.5-1.1-0.8c0.9,0.8-0.3,0.9,0.1,1.5c-0.1,0-0.1-0.1-0.2-0.1c0.5,0.7,0.4,1.2,0.9,2.3
			l-0.6-0.7c-0.7,0.3,1.4,1.4,1.1,1.8c-1-0.8-0.4,0.8-1.5-0.3c0.4,0.7,0.5,1.1,1.3,2c-0.8-0.2-1.1-1.5-1.7-1.4l0.3,0.8l-0.6-0.4
			c0.4,0.3,0.2,0.7,0.6,0.9c-0.7-0.5-1.3-0.7-1.8-1.1c0,0.4-0.8,0.2-0.4,0.8l-0.3-0.2c1.1,1.2-0.3,0.8,0.9,2l-0.8-0.4
			c-0.1,0.4,1.2,1.4,1.4,1.8c-0.1,0.2-0.1,0.5-0.3,0.5c-0.4-1.1-1.1-0.6-1.7-0.9c-0.2,0.1-0.5,0.7,0,1.4c-0.4-0.7-1.1-1.1-0.8-1.5
			c-1.3-0.9-0.2,0.8-0.7,1l-0.5-0.5c-0.1,0.9,0.8,1.7,1.5,2.9c-0.7-0.6-0.8-0.8-1.4-1.6c-0.7,0-0.8,0.9-1.3,1.3
			c-0.6-0.3-0.8-0.7-0.8-1c0.1,0.9-1,0.7-0.1,2.2c-0.3-0.6-0.5-0.2-0.8-0.2c0.2,0.2,0.5,0.6,0.4,0.6c0.2,0.7,0,1.7-0.7,1.5l-0.2-0.5
			c-0.9,0.4,0.6,2.8-1,2.6c-0.4-0.2-0.7-1.2-1-0.9c0.2,0.6,1,1.5,0.4,1.5l-0.6-0.9l0.4,1c0.7,0.6,0.9,0,1.2,1c-1-0.5,0.3,1-0.9,0.4
			c0-0.2-0.3-0.9-0.5-1.3c-1.6-0.3-0.6,1.8-2.4,1.4c0,1-0.5,1.6-0.4,2.4c-0.6-0.9-1.1-1.7-1.3-2.5c-0.5,0.1,0.6,2.3-0.5,1.1
			c0.6,1.3-0.6,1.5,0.3,3.3c-0.2-0.3-0.5,0.3-0.6-1c-0.2,0.9-1.7-1.1-1.9-0.9c-0.1,0.1,0.8,1,0.5,1.2c-0.1-0.1-0.2-0.2-0.3-0.3
			l0.1,0.5c-0.4-0.3-0.4-1-0.6-1.4c-0.7-0.1-0.2,1.5-0.7,1.9l-0.1-0.4l-0.6,0.2l0-0.1l-0.1,0.9l-0.2-0.5c0,0.2,0.1,0.5,0,0.6
			l-0.2-0.6c0.3,1,0,1.8-0.3,1.9l-0.2-0.2l-0.1,1.5c-0.7-0.5-0.2-1.6-0.7-0.8l-0.4-1.3c-0.3,0.7-0.6,0.1-0.8,0.7
			c0.4,0.5,0.6,0.3,0.7,1c-1-1.2-0.5,0.7-0.6,1.4c0.2-0.1,0.3-0.2,0.2-0.9c0.2-0.1,0.4,0.6,0.5,0.6l0-0.8l0.5,0.8l0.2-0.9
			c0.4,1,0.5-0.1,0.8,1c0.2-0.6,0.7,0,0.5-1.1c0.5,0.5,0,0.9,0.3,0.9c1-1.5,2.5-2.1,4.1-2.6l0.1,0.5c-0.1-0.5-0.1-0.9-0.2-1.3
			c0.7,0.6,2.2,1,1.6-0.6c0.1,0,0.1,0.3,0.2,0.4c0.3-0.5,1.8,0,2.3-0.6c-0.7-1.6,1.6,0.2,0.5-1.9l0.1,0.5c-0.6-0.4-0.6-1.5-0.9-2
			c1.1,1.1,0.7,0.9,1.7,1.9l-0.6-0.2l0.8,1c-1.1-3.1,2.3,0,1.4-2.2c0,0.1,0.2,0.3,0.2,0.4c0.8,0.3,0-1.1,0-1.6
			c0.4,0.5,0.5,0.9,0.7,1.4c0.9-0.1,0.7-2.2,1.9-1.9c-0.3-0.8-0.8-0.8-1-1.4c0.3,0,0.9,0.4,1,0.9c1.5,0.7,1-2.3,2.7-2
			c-0.3-1-0.8-1.1-0.6-2.1c0.3,0.6,1.6,1.3,1.3,1.7l0.4,0.5c0.7-0.5,1.7-1.2,0.6-2.8c1,0.9,0.3,0.1,1,0.3c0-0.2-0.2-0.1-0.3-0.1
			c-0.7-1,0.3-0.3,0.4-0.6l0.1,0.2l-0.2-1c0.2,0,0.5,0.1,0.8,0.4l-0.7-0.6c0.2-0.2,1,0.7,1.1,0.2l-0.6-0.4c0.5,0.1,0-0.9,0.8-0.2
			c0.2,0.1,0.1,0.1,0,0.2c1.4,0.6,0.3-1.1,1.1-1.1l-1.3-0.9c-0.1-0.7,0.4,0,0.8,0.3c0.2-0.3,0.6,0,1-0.2c-0.2-0.4-0.4-0.4-0.7-0.8
			l0.6-0.1l0.5,0.7c-1.4-1.9,1.2-1.2-0.2-2.8c0.5,0,0.6,0.7,0.9,0.7c1.3-0.1-0.2-2.3,1.1-2.2c1.5-0.3,1.2-2,2.5-2.6l-0.4-0.2
			l0.7-0.6c-0.7-0.6,0-1-0.8-1.8c0.3,0.2,0.8,0.3,0.9,0.5c0.1-0.4-0.2-0.9,0.4-0.9l0.3,0.3c0.6-0.6,1.1-1.6,0.6-2.3
			c0-0.3,0.7,0,1.2,0.2c0.2-0.4,0-0.9-0.5-1.5c0.2,0,0.4-0.1,0.8,0l-0.9-0.5c0.2-0.1,0.8,0.3,1.1,0.2c-0.8-1.1,0.5-1.5,0.6-2
			l-0.5-0.1c-0.3-0.3,0.5-0.5,0.9-0.1c0.9-0.8-1-1.9-0.3-3.1c1.8,0.4-0.1-1.3,1.9-0.9c-0.3-0.7,0.5-0.8-0.5-1.5c0.2,0,0.3,0,0.3,0.1
			c0.8,0,0.4-0.9,0.1-1.6l0.6,0.1c-1.2-0.5-0.7-1.4-1.9-1.9c0.3,0,0.5,0.2,0.7,0.4c1.3,0-0.5-0.6-0.1-0.9c0.3,0.1,0.7,0.1,0.9,0.2
			c0.9-0.5,0.7-1.3,0.6-2.2c-0.1-0.9-0.4-1.8,0.2-2.5c0.1-0.5-1.4,0-1.2-0.6c0.7-0.1,1.3,0.5,1.6,0.1c-0.8-0.4-0.6-0.5-0.5-0.8
			c0.4,0.1,0.7,0.1,1,0.4c0.6-0.2-1-1,0.2-1.3c-0.4,0-0.6-0.1-0.9-0.2c-1.1-0.7,1.3-1.4,0.6-1.5c0,0-0.2-0.2-0.3,0
			c0-0.2,0.3-0.6,0.9-0.5c-0.4-0.1-0.9-0.3-1-0.5l0.8,0.1c-0.2-0.1-0.6-0.3-0.7-0.4l-0.5,0.1c0.6-0.2-0.9-0.8,0.6-0.7l0,0.1l0.7-0.5
			c-0.6-0.2-1.2-0.4-1-0.8c1.5-0.1,0.3-0.9,0.5-1.3l0.5,0c-0.7-0.3-0.4-1.2-0.7-1c0-0.3,0.4-0.8,0.8-0.6c-0.3-0.3-0.3-0.8-1.2-0.9
			l1.2-0.6c-1.9-0.2,0.6-1.1-1.4-1c0.3-0.3,0.7-0.3,1.1-0.5c-1-0.3-0.9-0.8-0.8-1.2l0.2,0c0.1-0.4-0.9-0.8-1.1-1.4l1.5-0.3
			c-0.3-0.3-1.4-0.2-1.2-0.5c0.2-0.1,0.3,0,0.4,0c-0.3-0.2,0-0.7,0.3-1c-1.2-0.3-0.8-0.7-2-0.9c1.3-0.6,0.7,0.4,1.9-0.1
			c0.6-0.8-0.3-1.3-1.1-1.8c0.3-0.1,0.5-0.1,0.8-0.1c0,0-1-0.2-2.1-0.2c-1.1-0.1-2.4-0.1-3.1,0.2c-1,0.1-1.6,0-2.3,0.7
			c0.6,0,1.4,0.4,0.3,0.7l1-0.2c0.6,0.6-2.1,0.5-1.9,1.3l0.3-0.2c0.1,0.1,0.8,0.1,0.5,0.4c-0.3,0.1-0.4,0-0.7,0
			c0.5,0.1,1,0.3,1.5,0.4c-0.6,0.1-0.9,0.2-1.4,0.1c0.1,0.6,1.9-0.5,1.6,0.4c-0.4,0.2-0.6,0.1-1,0c-0.8,0.5,0,0.6,0.6,0.9
			c-0.9,0.1-0.9-0.1-1.4,0.3c0.5-0.1,1.3-0.3,1.4-0.1c-1,0-0.5,0.3-0.7,0.5c0.3-0.1,0.8-0.1,0.9-0.1c0.2,0.1-0.2,0.2-0.1,0.4
			l0.9-0.4c0.9,0.3-0.4,0.7-0.8,1.1c-0.2,0-0.3,0-0.4-0.1c-0.4,0.4-1.1,0.8-0.2,1.1l-0.1,0c1,0.7,1.6-0.4,2.5,0.5
			c-0.2,0.3-3.1,0.1-1.9,0.7c0.8-0.4,2,0.3,2.4,0.7l-1.9-0.3c0,0.2,0.5,0.4,0.3,0.5l0.4,0c1.6-0.1-0.2,0.5,0.8,0.8
			c-2.2-0.3-1.7-0.3-3.9-0.3c1.2,0.2,2.3,0.5,2.1,1L287,172c-0.3,0.7,2.1,1.4,3.4,2c-1.2-0.2-1.6,0.1-2.7-0.2l0.3,0.6l-1.3-0.2
			c1.4,0.3,0.4,0.5,2.2,0.5c-0.2-0.1-0.4-0.1-0.4-0.2c0.5,0,1.6,0.1,1.5,0.5c-0.4,0.2-0.7-0.1-1.2-0.1c0.7,0.2-0.4,0.2,0.1,0.5
			l0.8-0.2c1,0.2,0,0.4,0.5,0.6c-0.4-0.3-1-0.2-1.6-0.1l0.1,0c0.1,0.2,0.8,0.4,0.2,0.5l-1.4-0.2l1,0.3c-0.2,0.1-0.7,0.1-0.9,0
			c-0.9,0.7,3,0.1,1.7,1c-0.5,0-0.9-0.2-0.6-0.4c-0.9-0.1-1.3,0-1.7,0.2c-0.1,0-0.1,0-0.2,0C286.8,177.6,286.7,178.2,287.6,178.6z"
			/>
		<path fill="#FFC235" d="M286.9,177.1c0-0.3,0-0.5-0.2-0.6C286.4,176.6,286,177.1,286.9,177.1z"/>
		<path fill="#FFC235" d="M272.6,212.5c0-0.1,0-0.1,0-0.2L272.6,212.5z"/>
		<path fill="#FFC235" d="M271.4,214.3c0.1,0.1,0.2,0.1,0.3,0.2C271.5,214.2,271.3,214.1,271.4,214.3z"/>
		<path fill="#FFC235" d="M283.4,196C283.4,196,283.4,196,283.4,196C283.4,196,283.4,196,283.4,196z"/>
		<path fill="#FFC235" d="M277,206.1c0.3,0.4,0.5,0.7,0.8,0.9C277.8,206.9,277.6,206.6,277,206.1z"/>
		<path fill="#FFC235" d="M279.8,203.1c0-0.1-0.1-0.1-0.1-0.2C279.7,203,279.7,203.1,279.8,203.1z"/>
		<path fill="#FFC235" d="M283,195.2c0.4,0.3,0.2,0.6,0.4,0.9C283.2,195.8,283.8,195.6,283,195.2z"/>
		<polygon fill="#FFC235" points="270.4,217.2 270.1,216.5 270.3,217.1 		"/>
		<path fill="#FFC235" d="M271.6,215.5c0.2,0.1,0.1-0.5-0.2-0.7C271.6,215.1,271.6,215.3,271.6,215.5z"/>
		<polygon fill="#FFC235" points="277.6,210.3 277,209.7 277.4,210.3 		"/>
	</g>
</g>
<g>
</g>
<g>
</g>
<g>
</g>
<g>
</g>
<g>
</g>
<g>
</g>
<g>
</g>
<g>
</g>
<g>
</g>
<g>
</g>
<g>
</g>
<g>
</g>
<g>
</g>
<g>
</g>
<g>
</g>
</svg>
