<?xml version="1.0" encoding="utf-8"?>
<!-- Generator: Adobe Illustrator 18.0.0, SVG Export Plug-In . SVG Version: 6.00 Build 0)  -->
<!DOCTYPE svg PUBLIC "-//W3C//DTD SVG 1.1//EN" "http://www.w3.org/Graphics/SVG/1.1/DTD/svg11.dtd">
<svg version="1.1" id="Layer_1" xmlns="http://www.w3.org/2000/svg" xmlns:xlink="http://www.w3.org/1999/xlink" x="0px" y="0px"
	 viewBox="0 142.6 612 506.9" enable-background="new 0 142.6 612 506.9" xml:space="preserve">
<title>stock</title>
<path fill="#B8B9BA" d="M271.1,230.8c-0.4,7.4,5.3,13.7,12.7,14.2h47.4c7.4-0.5,13-6.8,12.6-14.2l0,0c0.4-7.4-5.3-13.7-12.7-14.2
	h-47.4C276.3,217.1,270.7,223.4,271.1,230.8z"/>
<path fill="#B8B9BA" d="M100.6,564.7c0,13.3,9.6,24,21.4,24l372.8-0.4c11.9,0,21.4-10.8,21.4-24.1l-0.3-303.5c0-13.3-9.6-24-21.4-24
	l-372.8,0.4c-11.9,0-21.4,10.8-21.4,24.1L100.6,564.7z"/>
<path fill="#EEEBEC" d="M116.5,553.1c0,12.2,8.9,22.2,19.9,22.2l344.3-0.4c11,0,19.8-9.9,19.8-22.2l-0.3-280.3
	c0-12.2-8.9-22.2-19.9-22.2L136,250.5c-11,0-19.8,9.9-19.8,22.2L116.5,553.1z"/>
<rect x="414.3" y="372.8" transform="matrix(-1 1.047285e-003 -1.047285e-003 -1 867.1234 906.3366)" fill="#C8C7C7" width="38" height="161.1"/>
<rect x="364.6" y="405.9" transform="matrix(-1 1.047285e-003 -1.047285e-003 -1 767.7867 939.5101)" fill="#C8C7C7" width="38" height="128.1"/>
<rect x="314.9" y="453.5" transform="matrix(-1 1.047285e-003 -1.047285e-003 -1 668.4116 987.1879)" fill="#C8C7C7" width="38" height="80.6"/>
<rect x="265.2" y="472.6" transform="matrix(-1 1.047285e-003 -1.047285e-003 -1 569.053 1006.4078)" fill="#C8C7C7" width="38" height="61.5"/>
<rect x="215.6" y="496.5" transform="matrix(-1 1.047285e-003 -1.047285e-003 -1 469.763 1030.3706)" fill="#C8C7C7" width="38" height="37.6"/>
<rect x="165.9" y="515.4" transform="matrix(-1 1.047285e-003 -1.047285e-003 -1 370.3429 1049.3457)" fill="#C8C7C7" width="38" height="18.8"/>
<rect x="148.5" y="547.8" transform="matrix(-1 1.047285e-003 -1.047285e-003 -1 628.2341 1104.2347)" fill="#C4C6C8" width="330.7" height="8.9"/>
<path fill="#A4A4A5" d="M146.9,480.5c-3.4-0.1-6.2-2.6-6.8-5.9c-1-4,1.2-8.1,5.1-9.4c152-41.3,258.6-104,292.6-172.3
	c0.5-1.1,1.1-2.2,1.8-3.2c1.9-3,5.9-3.9,8.9-1.9c0.3,0.2,0.6,0.4,0.8,0.6c3,2.8,3.5,7.3,1.3,10.7c-0.2,0.3-0.4,0.8-0.7,1.4
	c-21.1,42.3-88.3,121.8-301.5,179.8C148,480.4,147.4,480.5,146.9,480.5z"/>
<rect x="472" y="269.9" transform="matrix(-1 1.047285e-003 -1.047285e-003 -1 952.3029 821.4408)" fill="#C4C6C8" width="7.9" height="282.2"/>
<path fill="#A4A4A5" d="M455.9,330.6c-2.5-0.1-4.5-2-4.8-4.4l-5.4-31l-30.3,9.2c-2.6,0.7-5.3-0.8-6-3.4c0-0.2-0.1-0.3-0.1-0.5
	c-0.8-2.8,0.7-5.7,3.5-6.7l35.4-10.6c1.3-0.4,2.7-0.2,3.9,0.6c1.2,0.9,2,2.2,2.2,3.6l6.5,36.7c0.6,2.8-1.1,5.6-3.9,6.4
	C456.5,330.6,456.2,330.6,455.9,330.6z"/>
</svg>
