<svg xmlns="http://www.w3.org/2000/svg" xmlns:xlink="http://www.w3.org/1999/xlink" viewBox="0 0 285.22 285.22"><defs><style>.a,.d{fill:#fad5bf;}.b{isolation:isolate;}.c{clip-path:url(#a);}.d{mix-blend-mode:multiply;}.e{fill:#34b4a0;}.f{fill:#ea5c50;}.g{fill:#a4a4a5;}.h{fill:#807f80;}.i{fill:#6f6f6f;}.j{fill:#fff;}.k,.l{fill:none;}.k{stroke:#6f6f6f;stroke-miterlimit:10;stroke-width:3px;}</style><clipPath id="a"><circle class="a" cx="142.61" cy="142.61" r="142.61"/></clipPath></defs><title>cyn</title><g class="b"><circle class="a" cx="142.61" cy="142.61" r="142.61"/><g class="c"><circle class="a" cx="142.61" cy="142.61" r="142.61"/><path class="d" d="M275.66,288.26a22.32,22.32,0,0,1-12.32-3.71l-3.06-2a18,18,0,0,0-8.24-2.89,8.12,8.12,0,0,0-5.31-6.66l-.3-.1a34.31,34.31,0,0,1-14-8.89c6.94-5.84,13.65-15.46,14.34-31,.95-21.48-12.11-39.54-21.4-49.59.28-.33.55-.66.82-1,7.48-9.66,9.67-23.18,6.48-35.12a40,40,0,0,0-1.3-4c-.51-1.34-1.09-2.64-1.71-3.92A100.19,100.19,0,0,1,224,124l15.22,10.64a7.65,7.65,0,0,0,10.41-1.56l8.26-10.55a7.66,7.66,0,0,0-.52-10,7.62,7.62,0,0,0,1.83-3.28l3.45-12.95a7.65,7.65,0,0,0-8.18-9.58l-41.52,4.26A43.65,43.65,0,0,0,210.6,87a17.68,17.68,0,0,0,2.12-8.42c0-9.54-7.45-17.27-16.65-17.27a16.52,16.52,0,0,0-14.32,8.49c-12-3-25-3-37-2.12q-5.52.42-11,1.19c-1.45.2-2.91.45-4.36.74A16.84,16.84,0,0,0,117.63,59a16.64,16.64,0,0,0-20,13,17.73,17.73,0,0,0,2.67,13.86,51.27,51.27,0,0,0-8.16,16.52h.19c-3.83,11.76-5.44,24.52-11.19,35.49q-.5,1-1,1.93c-6.45,13.75-5,31.4,4.25,43.22a15.93,15.93,0,0,0-2.72,2.49,7,7,0,0,0-6.85-1.38,6.91,6.91,0,0,0-3,2h-7c-1.69-18.92-16.37-16.52-16.37-16.52-1.08,8.19,1.59,13.32,5.08,16.52H-6.94a6.85,6.85,0,0,0-6.85,6.85h0a6.85,6.85,0,0,0,6.85,6.85H28.75c-6.6,8.82-1,19.53-1,19.53,11.73-7.34,13.06-14.59,12-19.53H73.44a7,7,0,0,0,.84.79,37.61,37.61,0,0,0-7.56,16.08c-1.79,8.26-.58,18,4.89,24.7,4.37,5.35,11.45,7.5,18.53,7a49,49,0,0,0,6.64,22.24c.37,3.59.85,7.2,1.45,10.38,1.78,9.39,1.54,19.15-3.12,27.21l-.16.28c-2.69,4.87.34,11.27,5.33,11.27H146.2c6.09,0,11-5.26,11-11.76V297.64l.92,0a89.63,89.63,0,0,0,27.53-3.06l16.43,18.07c4.25,4.7,11.2,5.34,15.53,1.43l8-7.19A17.49,17.49,0,0,0,243,323.16h32.67a17.5,17.5,0,0,0,17.45-17.45h0A17.5,17.5,0,0,0,275.66,288.26Z"/><path class="e" d="M13.33,219.33s-9-17,8.87-25.8C22.2,193.53,34.16,206.3,13.33,219.33Z"/><path class="e" d="M50.6,191.29s-19.11-2-16.52-21.71C34.08,169.58,51.34,166.74,50.6,191.29Z"/><path class="f" d="M192.59,95.88l47.08,14.63a7.65,7.65,0,0,1,3.76,12l-8.26,10.55a7.65,7.65,0,0,1-10.41,1.56l-35-24.43Z"/><path class="f" d="M191,91.72l49-5a7.65,7.65,0,0,1,8.18,9.58l-3.45,12.95a7.65,7.65,0,0,1-9,5.52L194,106Z"/><path class="g" d="M214.19,295.8h0l0,0a17.65,17.65,0,0,1,1.48-1.85l6.13-7.64a18,18,0,0,1,11.63-6.58h0a18,18,0,0,1,12.36,2.83l3.06,2a22.32,22.32,0,0,0,12.32,3.71h0a17.5,17.5,0,0,1,17.45,17.45h0a17.5,17.5,0,0,1-17.45,17.45H228.53a17.5,17.5,0,0,1-17.45-17.45h0A17.32,17.32,0,0,1,214.19,295.8Z"/><path class="h" d="M212.8,294.06h0l3.4,3.23c5.37-6.69,9.92-14.28,19-15.92a.53.53,0,0,0,.35-.47c0,.14,7.25,1.34,7.84,1.6a27.82,27.82,0,0,1,4,2.41,31.87,31.87,0,0,0,7.78,3.92c7.46,2.36,15.6.13,19.77,8.79A16.8,16.8,0,0,1,271.06,317c-3.77,3.48-8.32,4.42-13.25,4.44-8.65,0-17.29,0-25.94,0-3.43,0-7,.28-10.26-1-9.37-3.8-10.21-15.53-5.41-23.1.86-1.35-3.21-4.25-4-3-7.05,11.11-1.07,24.92,10.92,29.34,7.21,2.66,16.63,1.25,24.14,1.25,7.86,0,18.06,1.59,25-2.8,11.2-7,10.59-22.43,1-30.45a22.38,22.38,0,0,0-7.76-4.26c-4.17-1.27-8.59-.56-12.71-2.12-3.14-1.19-5.6-3.42-8.54-5A21.48,21.48,0,0,0,232.06,278c-.3,0-.71.14-.71.53,0-1.27-7.49,2.55-8.24,3.12a25.74,25.74,0,0,0-4.36,4.51c-2.2,2.71-4.38,5.45-6.56,8.18-1,1.28,2.49,3.23,3.4,3.23h0C217.55,297.53,214.24,294.06,212.8,294.06Z"/><path class="i" d="M202,174.89s31.8,25,30.35,58.11S202,272.37,202,272.37L195.72,182Z"/><path class="i" d="M81,251.67s.51,17.68,2.72,29.35c1.78,9.39,1.54,19.15-3.12,27.21l-.16.28c-2.69,4.87.34,11.27,5.33,11.27h45.92c6.09,0,11-5.26,11-11.76V287.7Z"/><path class="i" d="M78.6,252c.33,11,1.81,21.77,3.26,32.67a40.2,40.2,0,0,1-3.5,23.15c-1.91,4.19-1.76,9.35,2.24,12.33s12.2,1.59,17,1.59h26.58c6.6,0,13.34.55,18-5.27,4.77-6,3.11-15.69,3.11-22.83,0-2.17.79-5.89-.74-7.62-.66-.75-2.19-1.28-3-1.78L122.9,273.46,82.74,250c-2.07-1.21-5.9,1.84-3.39,3.3l29.15,17,20.93,12.22,7.54,4.4c1,.6,2.65,2,3.86,2.25.22,0,.06-1.47-.5-.42-.46.87,0,3.27,0,4.25v12c0,4.2,0,8.75-3.93,11.43-2.23,1.52-4.64,1.35-7.16,1.35-13.81,0-28,1-41.81,0-6.4-.48-5.81-6.36-3.64-10.83,3.33-6.87,4-14.63,3.06-22.13-1.34-11.2-3-22.19-3.36-33.51C83.4,248.62,78.53,249.58,78.6,252Z"/><path class="i" d="M202.53,236.47s4.39,7.9,9.43,18.7a34.1,34.1,0,0,0,20,17.7l.3.1c5.1,1.8,7.13,8.38,3.58,11.59l-32.67,29.5c-4.33,3.91-11.29,3.27-15.53-1.43l-23.22-25.54Z"/><path class="i" d="M200.26,235.64c5.08,9.19,8.4,20.24,15.77,27.89a40.2,40.2,0,0,0,12.34,8.64c2.91,1.32,6,2.13,6.8,5.76a6,6,0,0,1-1.66,5.64c-3.68,4-8.26,7.46-12.29,11.1l-17.33,15.65a29.22,29.22,0,0,1-4.44,3.73c-4.24,2.49-8.37.63-11.36-2.67l-15.74-17.31c-1.45-1.6-4.67-3.95-5.43-6-.36-1-.22.44-.07-.18a4.92,4.92,0,0,1,1-1.33c4.09-4.55,7.51-10,11.18-14.85l25.77-34.23c.4-.53-3.81-3-4.55-2.07l-38.1,50.62a.47.47,0,0,0,.17.45l19.08,21c6,6.62,15.1,14.84,24.08,7.59,6.93-5.6,13.33-12,19.94-18l10.74-9.7c3-2.69,5-5.7,2.76-9.83-1.5-2.76-4.2-4.25-7-5.43-5.62-2.39-10.28-5.24-14.07-10.14-5.59-7.23-8.64-16.65-13.07-24.66C204.13,236.1,200.11,235.37,200.26,235.64Z"/><path class="j" d="M199.49,180.44l-10,6.43L145.94,186c0-.06,0-.09,0-.09l-2.29,0-2.29,0s0,0,0,.09l-46.55.88s-21,26.69-19.26,60.73c1.91,36.88,36.57,51.27,68.07,50,21.64.89,44.76-5.62,57.74-21.73h0C230.94,242.33,199.49,180.44,199.49,180.44Z"/><path class="i" d="M92,190.45a60.14,60.14,0,0,0,55.32,28.19c38.64-2.19,54-33.95,54-33.95Z"/><path class="i" d="M115.67,79.72a16.64,16.64,0,0,1-20,13c-9-2.13-14.56-11.4-12.5-20.7a16.64,16.64,0,0,1,20-13C112.13,61.15,117.73,70.42,115.67,79.72Z"/><ellipse class="i" cx="181.61" cy="78.61" rx="16.65" ry="17.27"/><path class="j" d="M217.91,147.36c-2.78-12.85-8.92-25.78-12.41-37.46-3.73-12.51-8.86-25.32-20.35-32.62-16-10.17-36.62-11-54.82-9.58q-5.52.42-11,1.19C106.07,70.75,92.66,76,84.73,87.75c-6.55,9.72-8.81,21-12.06,32-3.42,11.6-9.31,23.14-10.79,35.22-1.29,10.55,2.72,22.32,9.85,30.12,5.51,6,12.73,9.85,20.5,12.13,1.61.47,3.25.88,4.9,1.22l21.62,5.39a88,88,0,0,0,41.85.19l20.93-5a65.57,65.57,0,0,0,7.4-1.77l.07,0c8.85-2.7,17-7.39,22.76-14.78C220.18,171.55,220.54,159.49,217.91,147.36Z"/><path class="i" d="M133.72,120.84H145.6a8.67,8.67,0,0,1,8.51,8.83v.07A9,9,0,0,1,151,136.6l-5.82,4.89a8.27,8.27,0,0,1-10.62.07l-6.05-5a9,9,0,0,1-3.24-6.93h0A8.67,8.67,0,0,1,133.72,120.84Z"/><path class="i" d="M82.42,124.07a42.31,42.31,0,0,1,3.83-5.7c5.32-6.71,13.46-14.06,22.75-11.43,5.68,1.61,10.13,6.34,12.12,11.81a24,24,0,0,1,1.29,5.38c1.29,10.93-4,21.66-14,26.22-8.72,4-26,3.12-29.09-8.32C77.65,135.88,79.37,129.56,82.42,124.07Z"/><ellipse class="j" cx="110.65" cy="127.47" rx="4.52" ry="4.69"/><path class="i" d="M105.12,123.84a7.85,7.85,0,0,1,3.66-2.8,5.81,5.81,0,0,1,3.48-.14,6.26,6.26,0,0,1,3.1,2,6.68,6.68,0,0,1,1.16,1.93,7.35,7.35,0,0,1,.32,1.26,7,7,0,0,1,0,.71q0,.39-.08.75l-.34.37a10.8,10.8,0,0,0-2.64-1.3,26.91,26.91,0,0,0-2.87-.88c-1-.28-2-.5-2.94-.72l-3-.66Z"/><ellipse class="i" cx="110.87" cy="126.99" rx="3.23" ry="3.35"/><path class="i" d="M198.59,124.16c-5.11-9-14.8-19.83-26.35-17.74-8.08,1.46-12.57,10.21-13.45,17.71-1.29,10.93,4,21.66,14,26.22,6.78,3.08,16,3.07,22.59-.44C205.21,144.69,203.13,132.17,198.59,124.16Z"/><ellipse class="j" cx="170.53" cy="127.47" rx="4.52" ry="4.69"/><path class="i" d="M176.61,124a7,7,0,0,0-3.45-1.95,6.81,6.81,0,0,0-3.31.06,7.07,7.07,0,0,0-3,1.71,6.72,6.72,0,0,0-1.24,1.59,5.78,5.78,0,0,0-.43,1,4.12,4.12,0,0,0-.17,1.21l.23.28.61-.42.66-.35a14,14,0,0,1,1.37-.61,23.06,23.06,0,0,1,2.88-.88c1-.28,2-.52,2.94-.73l3-.59Z"/><ellipse class="i" cx="170.53" cy="127.26" rx="3.23" ry="3.35"/><line class="k" x1="139.66" y1="139.09" x2="139.66" y2="152.5"/><path class="i" d="M129.76,152.73c2.46-.38,4.63-.84,6.76-1.29s4.16-1,6.22-1.59c1-.31,2.06-.58,3.09-.91.52-.16,1.06-.26,1.57-.46A15.46,15.46,0,0,1,149,148c.55-.12,1.06-.35,1.61-.5l1.67-.47a27.5,27.5,0,0,1,3.55-.85l.17.24c-1,.66-1.91,1.34-2.88,2s-2,1.21-3.06,1.71a38.31,38.31,0,0,1-6.51,2.61,31.66,31.66,0,0,1-6.93,1.09,20.16,20.16,0,0,1-7-.82Z"/><path class="i" d="M81.68,187.61s-23.88,3.54-29.42,29.06c-1.79,8.26-.58,18,4.89,24.7,9.62,11.79,32.42,8.08,39.26-5,3.36-6.43,3.48-14.27,2.79-21.33a63.17,63.17,0,0,0-1.83-10.56Z"/><rect class="e" x="-28.24" y="186.1" width="153.46" height="13.7" rx="6.85" ry="6.85"/><rect class="i" x="63.45" y="180.02" width="36.09" height="31.5" rx="15.75" ry="15.75"/><rect class="i" x="56.47" y="183.62" width="13.94" height="18.67" rx="6.97" ry="6.97" transform="translate(-58.76 30.71) rotate(-18.79)"/><path class="f" d="M95.24,77.38s-11.66,5.53-17.51,25H203.07S198.26,84,187.42,78.85Z"/><polygon class="j" points="98.62 86.47 100.6 82.04 102.92 86.31 107.75 86.82 104.41 90.34 105.41 95.09 101.03 93 96.82 95.43 97.45 90.61 93.85 87.36 98.62 86.47"/><polygon class="j" points="107.99 82.06 108.51 80.88 109.13 82.01 110.41 82.15 109.52 83.08 109.79 84.35 108.63 83.79 107.51 84.44 107.67 83.16 106.72 82.29 107.99 82.06"/><polygon class="j" points="112.82 86.35 113.35 85.17 113.97 86.31 115.25 86.44 114.36 87.38 114.63 88.64 113.46 88.09 112.34 88.73 112.51 87.45 111.55 86.59 112.82 86.35"/><polygon class="j" points="112.82 93.09 113.35 91.91 113.97 93.04 115.25 93.18 114.36 94.11 114.63 95.38 113.46 94.82 112.34 95.47 112.51 94.19 111.55 93.32 112.82 93.09"/><polygon class="j" points="107.99 96.49 108.51 95.31 109.13 96.45 110.41 96.59 109.52 97.52 109.79 98.79 108.63 98.23 107.51 98.88 107.67 97.59 106.72 96.73 107.99 96.49"/><circle class="l" cx="144.78" cy="142.61" r="142.61"/></g></g></svg>