<?xml version="1.0" encoding="utf-8"?>
<!-- Generator: Adobe Illustrator 18.0.0, SVG Export Plug-In . SVG Version: 6.00 Build 0)  -->
<!DOCTYPE svg PUBLIC "-//W3C//DTD SVG 1.1//EN" "http://www.w3.org/Graphics/SVG/1.1/DTD/svg11.dtd">
<svg version="1.1" id="Layer_1" xmlns="http://www.w3.org/2000/svg" xmlns:xlink="http://www.w3.org/1999/xlink" x="0px" y="0px"
	 viewBox="0 142.6 612 506.9" enable-background="new 0 142.6 612 506.9" xml:space="preserve">
<title>bond</title>
<rect x="167.7" y="365.4" transform="matrix(-1 1.047285e-003 -1.047285e-003 -1 612.4875 936.8469)" fill="#B1B1B2" width="276.7" height="206.4"/>
<path fill="#747374" d="M332.2,571.8V458.6c-0.4-8.1-7.2-14.3-15.3-13.9h-18.1c-8.1-0.4-14.9,5.9-15.3,14v113.2L332.2,571.8z"/>
<rect x="211.1" y="357" transform="matrix(-1 1.047285e-003 -1.047285e-003 -1 469.8481 928.6561)" fill="#DCDCDD" width="47.2" height="214.9"/>
<polygon fill="#A6A8AA" points="361.9,378.9 211,379 211,371.8 358.3,371.6 "/>
<rect x="358.4" y="356.9" transform="matrix(-1 1.047285e-003 -1.047285e-003 -1 764.4641 928.1932)" fill="#DCDCDD" width="47.2" height="214.9"/>
<rect x="358.3" y="371.6" transform="matrix(-1 1.047285e-003 -1.047285e-003 -1 799.4659 749.9545)" fill="#A6A8AA" width="82.4" height="7.3"/>
<rect x="437.3" y="356.8" transform="matrix(-1 1.047285e-003 -1.047285e-003 -1 922.1761 927.9454)" fill="#DCDCDD" width="47.2" height="214.9"/>
<rect x="437.1" y="371.5" transform="matrix(-1 1.047285e-003 -1.047285e-003 -1 921.835 749.7622)" fill="#A6A8AA" width="47.2" height="7.3"/>
<rect x="135.3" y="357.2" fill="#DCDCDD" width="47.2" height="214.9"/>
<rect x="135.6" y="371.8" transform="matrix(-1 1.047285e-003 -1.047285e-003 -1 346.9543 750.6652)" fill="#A6A8AA" width="75.5" height="7.3"/>
<path fill="#CFD0D2" d="M117.8,364.5c-3.3,0.1-6.4-2-7.6-5.1c-1.1-3.1,0.1-6.5,2.9-8.2l190.9-128.5c2.9-1.9,6.7-1.9,9.6,0l189.1,128
	c2.7,1.7,3.9,5.2,2.8,8.2c-1.3,3.1-4.3,5.1-7.7,5L117.8,364.5z"/>
<path fill="#EAEBEC" d="M308.6,228.7l189.1,128l-380,0.4L308.6,228.7 M308.6,213.9c-3.4,0-6.7,1-9.6,2.9L108.2,345.3
	c-5.5,3.5-7.9,10.3-5.8,16.5c2.5,6.2,8.6,10.3,15.3,10.1l380-0.3c6.7,0.1,12.8-3.9,15.3-10.1c2.1-6.1-0.2-12.9-5.7-16.4L318.2,216.9
	C315.4,214.9,312,213.8,308.6,213.9L308.6,213.9z"/>
<polygon fill="#A4A4A5" points="308.4,249 162.3,347.3 453.2,346.9 "/>
<polygon fill="#ADAFB0" points="309.6,228.7 315.9,233 132.8,357.1 118.7,357.1 "/>
</svg>
