<svg xmlns="http://www.w3.org/2000/svg" xmlns:xlink="http://www.w3.org/1999/xlink" viewBox="0 0 92.35 92.35"><defs><linearGradient id="未命名漸層_17" x1="5464.64" y1="516.5" x2="5501.01" y2="516.5" gradientTransform="matrix(-0.99, -0.13, -0.13, 0.99, 5526.61, 234.27)" gradientUnits="userSpaceOnUse"><stop offset="0" stop-color="#d7d7d8"/><stop offset="1" stop-color="#cfd0d0"/></linearGradient><linearGradient id="未命名漸層_17-2" x1="-1628.05" y1="-396.97" x2="-1591.68" y2="-396.97" gradientTransform="translate(1716.42 234.27) rotate(-7.34)" xlink:href="#未命名漸層_17"/></defs><title>aud</title><g id="圖層_5" data-name="圖層 5"><path d="M7,32.15l.82-.22a1.25,1.25,0,0,0,.74-1.87,1.25,1.25,0,0,1,1.09-1.91l21,1.27a8.87,8.87,0,0,1,7.64,7.49A17.67,17.67,0,1,1,8.68,36.2l-2.2-1.9A1.25,1.25,0,0,1,7,32.15Z" style="fill:url(#未命名漸層_17)"/><circle cx="23.61" cy="46.22" r="12.57" transform="matrix(0.03, -1, 1, 0.03, -23.23, 68.56)" style="fill:#aaacad"/><path d="M84.78,32.15,84,31.93a1.25,1.25,0,0,1-.74-1.87,1.25,1.25,0,0,0-1.09-1.91l-21,1.27a8.87,8.87,0,0,0-7.64,7.49,17.67,17.67,0,1,0,29.59-.72l2.2-1.9A1.25,1.25,0,0,0,84.78,32.15Z" style="fill:url(#未命名漸層_17-2)"/><circle cx="68.15" cy="46.22" r="12.57" transform="translate(-1.24 1.88) rotate(-1.56)" style="fill:#aaacad"/><path d="M69.17,51.24a17.34,17.34,0,0,1-1.88-5.33,21.78,21.78,0,0,0-43.19,4c0,.09,0,.17,0,.26A13,13,0,0,0,35.54,70.56a16.25,16.25,0,0,1,5,.49,21.93,21.93,0,0,0,10.87,0,16,16,0,0,1,5.37-.49q.55,0,1.11,0A13,13,0,0,0,69.17,51.24Z" style="fill:#dcdddd"/><path d="M47.35,55.53A4.14,4.14,0,0,1,51.23,61c-.67,2-1.93,3.92-4.26,4.19-2.94.34-4.63-1.58-5.63-4a4.12,4.12,0,0,1,3.87-5.68Z" style="fill:#efefef"/><path d="M52.15,47.18A5.76,5.76,0,0,0,49,43.25a6.92,6.92,0,0,0-6.31.49c-2.28,1.45-2.9,4-2.77,6.38.16,2.81,1.86,10,6.74,9.27a6.35,6.35,0,0,0,5.37-5A15.23,15.23,0,0,0,52.15,47.18Z" style="fill:#636262"/><path d="M44.53,45.32c.1,0-.26.14-.37.21a4.13,4.13,0,0,0-1,.88,5.92,5.92,0,0,0-.92,4.82c.1.61-.83.87-.93.26-.45-2.64.15-6,2.95-7.09.58-.23.83.7.26.93Z" style="fill:#fff"/><circle cx="35.62" cy="48.65" r="2.45" transform="translate(-21.55 29.5) rotate(-35.27)" style="fill:#bdbfc0"/><circle cx="35.62" cy="48.65" r="1.46" transform="translate(-21.55 29.5) rotate(-35.27)" style="fill:#636262"/><circle cx="56.62" cy="48.65" r="2.45" transform="translate(-17.7 41.62) rotate(-35.27)" style="fill:#bdbfc0"/><circle cx="56.62" cy="48.65" r="1.46" transform="translate(-17.7 41.62) rotate(-35.27)" style="fill:#636262"/></g></svg>