<svg xmlns="http://www.w3.org/2000/svg" xmlns:xlink="http://www.w3.org/1999/xlink" viewBox="0 0 285.22 285.22"><defs><style>.a,.d{fill:#fad5bf;}.b{isolation:isolate;}.c{clip-path:url(#a);}.d{mix-blend-mode:multiply;}.e{fill:#b1b1b2;}.f{fill:#e8e8e8;}.g{fill:#b9bbbc;}.h{fill:url(#b);}.i{fill:#9c6b51;}.j{fill:#8e6149;}.k{fill:url(#c);}.l{fill:#bdbfc0;}.m{fill:#9d9fa0;}.n{fill:url(#d);}.o{fill:#aaacad;}.p{fill:#61605f;}.q{fill:#666565;}.r{fill:#fff;}.s{fill:#6f6f6f;}</style><clipPath id="a"><circle class="a" cx="142.61" cy="142.61" r="142.61"/></clipPath><linearGradient id="b" x1="103.56" y1="216.6" x2="229.96" y2="216.6" gradientUnits="userSpaceOnUse"><stop offset="0" stop-color="#d1d2d2"/><stop offset="1" stop-color="#cbcccc"/></linearGradient><linearGradient id="c" x1="108.75" y1="277.47" x2="193.77" y2="277.47" xlink:href="#b"/><linearGradient id="d" x1="223.45" y1="165.16" x2="223.45" y2="194.16" gradientTransform="matrix(1, 0.04, -0.04, 1, -57.35, -52.36)" xlink:href="#b"/></defs><title>aud</title><g class="b"><circle class="a" cx="142.61" cy="142.61" r="142.61"/><g class="c"><circle class="a" cx="142.61" cy="142.61" r="142.61"/><path class="d" d="M266,256.13l-24.69-17.86a59.5,59.5,0,0,0,1.57-9.57c2.47-30.68-7-50.1-18.12-62.16a50.2,50.2,0,0,0,23.85-76l6.21-5.48a3.54,3.54,0,0,0-1.48-6.1l-2.39-.6A3.55,3.55,0,0,1,248.87,73a3.54,3.54,0,0,0-3.19-5.33c-12.73.48-25.88,1.82-38.74,2.76-6.32.46-12.66.82-18.95,1.57s-12.88,1.52-19.08-.49c-6.89-2.24-14.8-3-24.13-2.59a80.92,80.92,0,0,0-26.62,6,45.46,45.46,0,0,0-7.06-.75l-36-1a3.19,3.19,0,0,0-2.79,4.87,3.19,3.19,0,0,1-1.9,4.77l-2.1.55A3.19,3.19,0,0,0,67,88.93l5.63,4.86A45.13,45.13,0,0,0,86.57,158c.11.42.22.84.35,1.26a34.37,34.37,0,0,0,4.51,9.25,47.08,47.08,0,0,0-45,8.18l-.11-.55a3,3,0,0,1,.05-1.39l.43-1.53a.45.45,0,0,0,0-.15l-.08-1.39a.45.45,0,0,0-.85-.16L44.56,174a3,3,0,0,0-.35,1.51c0,.76.07,1.93.13,3a47.1,47.1,0,1,0,64,69.16,9.06,9.06,0,0,0,3.5,0l9.16-1.67,1.16-.08a74.06,74.06,0,0,0,2.86,7.69h0l0,.08a60.11,60.11,0,0,0,2.93,5.82l12.18,24.16c2,3.69.24,8-4.11,10L127,298a8.41,8.41,0,0,0-4.65,5h0c-1.57,5.18,3.54,10.11,10.22,9.85l52.67-2c4.73-.18,8.65-3,9.4-6.71l4.54-22.66q2.26-.73,4.45-1.61l-.27.9,29,1.75a7.11,7.11,0,0,1,6.67,6.64l.48,7.42A7.11,7.11,0,0,0,253.08,299l15.25-34.21A7.11,7.11,0,0,0,266,256.13Z"/><path class="e" d="M137.07,190.11h0A46.59,46.59,0,0,1,95.4,224.31l-40.15,2.83-2.48-42.87,16.87-2.43a46.07,46.07,0,0,0,25.49-12.39,56.43,56.43,0,0,1,8.57-6.88C122.29,150.59,145.28,169.59,137.07,190.11Z"/><path class="f" d="M62,226.53l-10.09,1.88a8.78,8.78,0,0,1-10.31-7.5l-4.35-33.53a5.72,5.72,0,0,1,5.06-6.42l9-1a5.72,5.72,0,0,1,6.29,5.08Z"/><path class="g" d="M190,280.76l29,1.75a7.11,7.11,0,0,1,6.67,6.64l.48,7.42a7.11,7.11,0,0,0,2.49,5h0a7.11,7.11,0,0,0,11.1-2.52L255,264.79a7.11,7.11,0,0,0-2.33-8.66L207.31,223.3Z"/><path class="h" d="M182.77,148.26s52.22,13.14,46.8,80.43c-3.78,46.89-59.57,70.15-98.78,47.47C98.51,257.5,103,202.28,105,170.69Z"/><circle class="i" cx="63" cy="213.11" r="47.1" transform="translate(-11.5 3.74) rotate(-3.12)"/><path class="j" d="M43.8,187.9c-.17-.69-.38-5.77-.47-8.19a4.67,4.67,0,0,1,.56-2.39l2.15-4h0a.71.71,0,0,1,1.35.25l.12,2.19a.71.71,0,0,1,0,.23l-.68,2.42a4.68,4.68,0,0,0-.08,2.2l1.44,7Z"/><path class="j" d="M31.19,180.74c-.11-.44-.24-3.65-.3-5.18a3,3,0,0,1,.35-1.51l1.36-2.53h0a.45.45,0,0,1,.85.16l.08,1.39a.45.45,0,0,1,0,.15l-.43,1.53a3,3,0,0,0-.05,1.39l.91,4.46Z"/><path class="j" d="M67.94,173.9c.2-.32,1.81-2.5,2.59-3.54a5.08,5.08,0,0,1,.87-.92l1.67-1.34h0c.27-.24.38,0,.15.32l-.69.95-.08.09-.91.91a5.57,5.57,0,0,0-.73.92l-2,3.21Z"/><path class="j" d="M77.43,180.64c.49-.52,4.63-3.47,6.61-4.87a4.67,4.67,0,0,1,2.31-.84l4.52-.38h0a.71.71,0,0,1,.53,1.27l-1.77,1.3a.71.71,0,0,1-.21.1L87,178a4.68,4.68,0,0,0-1.89,1.14L80,184.16Z"/><path class="j" d="M54.62,198c.38-.41,3.65-2.74,5.21-3.84a3.68,3.68,0,0,1,1.82-.66l3.57-.3h0a.56.56,0,0,1,.42,1l-1.4,1a.56.56,0,0,1-.16.08l-1.89.59a3.69,3.69,0,0,0-1.49.9l-4,4Z"/><path class="j" d="M24.8,197.34a5.61,5.61,0,0,1-.93,2.05l.57-.78c-.13.17-.27.34-.42.5-.58.63-1,1.41-.23,2.07a3.07,3.07,0,0,0,1.52.48,7.09,7.09,0,0,0,2.2.08,20,20,0,0,0,5.65-1.25,10.7,10.7,0,0,0,4-2.28,7.43,7.43,0,0,0,1.92-3.32.74.74,0,0,0-.13-1,1.32,1.32,0,0,0-1.1-.67,6.62,6.62,0,0,0-2-.18,11.49,11.49,0,0,0-2.58.22A19.65,19.65,0,0,0,27.74,195l-1.36.77a4.3,4.3,0,0,0-1.58,1.57Z"/><path class="j" d="M25.69,206.92A27.34,27.34,0,0,1,27.57,212c.27,1,1.84,1.36,2.67,1.47a14,14,0,0,0,5.35-.53,13.64,13.64,0,0,0,4.9-2.22c.74-.6,1.86-1.51,1.57-2.61A27.34,27.34,0,0,0,40.18,203a3.12,3.12,0,0,0-2.67-1.47,14,14,0,0,0-5.35.53,13.64,13.64,0,0,0-4.9,2.22c-.62.51-2,1.64-1.57,2.61Z"/><path class="j" d="M35.8,207.38l1.84,1a6.28,6.28,0,0,0,2.62.46,7.37,7.37,0,0,0,2.91-.29,7.37,7.37,0,0,0,2.67-1.2,6.28,6.28,0,0,0,2-1.71c.88-1.2,1.63-2.77,1.12-4.29L48.38,200a5.39,5.39,0,0,0-2.49-1.82l-1.84-1a6.28,6.28,0,0,0-2.62-.46,7.37,7.37,0,0,0-2.91.29,7.37,7.37,0,0,0-2.67,1.2,6.28,6.28,0,0,0-2,1.71c-.88,1.2-1.63,2.77-1.12,4.29l.63,1.33a5.39,5.39,0,0,0,2.49,1.82Z"/><path class="j" d="M26.59,231.55a50.13,50.13,0,0,0,8.62,10.6c.66.62,3,.36,3.65.29a23.4,23.4,0,0,0,5.64-1.3c1-.37,6.13-2.18,4.41-3.79a45.45,45.45,0,0,1-7.82-9.68c-2-3.31-15.45,2.3-14.49,3.88Z"/><path class="j" d="M57.79,213.73l3,2.22a6.25,6.25,0,0,0,3.78.78,17.11,17.11,0,0,0,5.66-1.21c1.36-.56,3.07-1.23,4-2.44.51-.68,1.06-1.67.15-2.35l-3-2.22a6.25,6.25,0,0,0-3.78-.78,17.11,17.11,0,0,0-5.66,1.21c-1.36.56-3.07,1.23-4,2.44-.51.68-1.06,1.67-.15,2.35Z"/><path class="j" d="M68.43,210.25c2.76,0,8-1.11,9.66-3.6,1.77-2.65-1.55-2.89-3.56-2.89-2.76,0-8,1.11-9.66,3.6-1.77,2.65,1.55,2.89,3.56,2.89Z"/><circle class="j" cx="24.97" cy="205.69" r="2.38" transform="translate(-11.16 1.66) rotate(-3.12)"/><circle class="j" cx="21.5" cy="212.32" r="2.38" transform="translate(-11.52 1.48) rotate(-3.12)"/><circle class="j" cx="27.71" cy="211.98" r="1.5" transform="translate(-11.49 1.82) rotate(-3.12)"/><circle class="j" cx="52.42" cy="229.19" r="2.38" transform="translate(-12.39 3.19) rotate(-3.12)"/><circle class="j" cx="48.95" cy="235.81" r="2.38" transform="translate(-12.76 3.01) rotate(-3.12)"/><circle class="j" cx="55.16" cy="235.47" r="1.5" transform="translate(-12.73 3.35) rotate(-3.12)"/><path class="k" d="M111.66,253.68l15.15,30.06c2,3.69.24,8-4.11,10l-9,4.23a8.41,8.41,0,0,0-4.65,5h0c-1.57,5.18,3.54,10.11,10.22,9.85l52.67-2c4.73-.18,8.65-3,9.4-6.71l12.44-62.05Z"/><path class="g" d="M185.22,209.45h0a47.26,47.26,0,0,1-42.45,34.19l-40.9,2.83-2.53-42.87,17.19-2.43a47.29,47.29,0,0,0,26-12.39,57.31,57.31,0,0,1,8.73-6.88C170.17,169.92,193.59,188.93,185.22,209.45Z"/><path class="g" d="M108.76,245.86l-10.28,1.88a8.92,8.92,0,0,1-10.5-7.5L83.54,206.7a5.74,5.74,0,0,1,5.16-6.42l9.13-1a5.8,5.8,0,0,1,6.41,5.08Z"/><path class="l" d="M141.7,120.56A45.15,45.15,0,1,1,59.35,93.8l-5.63-4.86A3.19,3.19,0,0,1,55,83.44l2.1-.55A3.19,3.19,0,0,0,59,78.12a3.19,3.19,0,0,1,2.79-4.87l36,1A45.15,45.15,0,0,1,141.7,120.56Z"/><circle class="m" cx="95.87" cy="119.13" r="32.13" transform="translate(-25.8 211.76) rotate(-88.46)"/><path class="n" d="M244.39,117.49a50,50,0,0,0-9.09-27l6.21-5.48A3.54,3.54,0,0,0,240,79l-2.39-.6A3.55,3.55,0,0,1,235.55,73a3.54,3.54,0,0,0-3.19-5.33c-12.73.48-25.88,1.82-38.74,2.76-6.32.46-12.66.82-18.95,1.57s-12.88,1.52-19.08-.49c-6.89-2.24-14.8-3-24.13-2.59-12.21.57-29.53,4.86-38.58,13.45A49.53,49.53,0,0,0,78.63,107c-2.24,9.73-2.19,19.78-4,29.57-1.44,7.89-3.53,14.68-1.05,22.7,4.48,14.5,18.82,24.72,33,27.75,23.07,4.9,59.41,1.94,76.2-18.71a50.24,50.24,0,0,0,61.54-50.8Z"/><path class="g" d="M183.91,153.11A35.73,35.73,0,1,0,173,90.94a12.07,12.07,0,0,0-4.49,11.6l7.23,41.2A12,12,0,0,0,183.91,153.11Z"/><circle class="o" cx="125.17" cy="132.46" r="7.27" transform="translate(-46.56 193.45) rotate(-66.17)"/><circle class="o" cx="83.76" cy="129.08" r="7.27" transform="translate(-68.16 153.56) rotate(-66.17)"/><circle class="p" cx="83.76" cy="128.72" r="4.62" transform="translate(-69.33 140.83) rotate(-61.47)"/><path class="f" d="M97.76,148.13a11.12,11.12,0,0,0-10,15c2,5.4,5.5,10.36,11.78,10.9,7.93.68,12.29-4.64,14.79-11.16a11.08,11.08,0,0,0-10.87-14.93Z"/><path class="q" d="M83.64,128.31a14.82,14.82,0,0,1,9.17-9.24,17.81,17.81,0,0,1,16,2.89c5.47,4.32,6.38,11,5.43,17.07-1.13,7.16-7.37,25.23-19.68,22-7.48-2-11.46-7.51-12.45-14.2C81.37,141.62,81.37,134.23,83.64,128.31Z"/><path class="r" d="M101.55,124.15c-.27-.14.67.45.93.66a11.1,11.1,0,0,1,2.39,2.62c2.59,3.9,2.35,8.78,1.16,13.12-.44,1.6,2,2.56,2.42.95,1.91-6.93,1.24-16-6-19.77-1.48-.77-2.42,1.66-.95,2.42Z"/><path class="s" d="M96.66,160.37c1.68-.09,3-.07,4.16-.07l3.27,0c1,0,2.06,0,3.22,0s2.45-.08,4.18.05l.18.24c-.56.37-1.1.8-1.7,1.13a12.49,12.49,0,0,1-1.87.84,11.44,11.44,0,0,1-4,.73,12.64,12.64,0,0,1-7.6-2.71Z"/><circle class="p" cx="124.72" cy="132.46" r="4.34"/></g></g></svg>