<?xml version="1.0" encoding="utf-8"?>
<!-- Generator: Adobe Illustrator 18.0.0, SVG Export Plug-In . SVG Version: 6.00 Build 0)  -->
<!DOCTYPE svg PUBLIC "-//W3C//DTD SVG 1.1//EN" "http://www.w3.org/Graphics/SVG/1.1/DTD/svg11.dtd">
<svg version="1.1" id="Layer_1" xmlns="http://www.w3.org/2000/svg" xmlns:xlink="http://www.w3.org/1999/xlink" x="0px" y="0px"
	 viewBox="0 142.6 612 506.9" enable-background="new 0 142.6 612 506.9" xml:space="preserve">
<title>zar-bg</title>
<path fill="#f19aa0" d="M476.1,243.6c-4-10.4-12.7-18.1-25.8-23.1c-9.7-3.8-20.1-5.7-30.5-5.8c-15-0.3-29.6,4.8-41.1,14.4
	c-21-9.7-43.9-14.8-67.1-14.8h-0.8c-2.2-0.1-4.5-0.1-6.7-0.1c-23,0-45.8,5-66.7,14.6c-12-9.8-27.1-14.9-42.6-14.5
	c-8,0-15.9,1.1-23.6,3.3c-13.5,3.8-22.9,10.6-27.8,20.6c-3.2,6.3-4.2,13.5-2.8,20.4c2.4,15,12.2,22.2,17.6,26.3
	c1.7,1.2,3.2,2.4,5.1,4c1.3,1.5,2.4,3.1,3.5,4.8c-0.6,1-1.1,1.9-1.6,2.8c-7.9,16-12.9,33.4-14.7,51.2c-3.1,29.8,0.3,58.5,3.6,86.1
	l0.4,3.4c0.9,7.6,1.4,15.5,2,23.9c1.2,17,2.4,34.6,6.7,52.2c14.3,58.2,68.9,94.3,142.4,94.3l0,0c16.1,0,32.2-1.8,47.9-5.5
	c61.2-14.5,84.2-50.6,92.7-78.1c8.9-29.1,11.3-59.6,13.5-89.1c1.3-16.3,2.4-31.7,4.7-46.3c5.2-32.2-0.1-65.3-14.9-94.4
	c0.6-0.7,1.3-1.4,1.9-2.1c2-1.4,3.7-2.4,5.3-3.5c5.8-3.5,16.3-9.8,20-24.5C479,257.4,478.6,250.2,476.1,243.6z"/>
</svg>
