<svg xmlns="http://www.w3.org/2000/svg" xmlns:xlink="http://www.w3.org/1999/xlink" viewBox="0 0 285.22 285.22"><defs><style>.a{fill:none;}.b{isolation:isolate;}.c{clip-path:url(#a);}.d,.e{fill:#fad5bf;}.e{mix-blend-mode:multiply;}.f{fill:#545252;}.g{fill:#706f6e;}.h{fill:#666565;}.i{fill:#f6f3db;}.j{fill:#fff;}.k{fill:#6f6f6f;}.l{fill:#f1d65c;}.m{fill:#ea9a32;}.n{fill:#e1e0c3;}.o{fill:#d55644;}.p{clip-path:url(#b);}.q{fill:#2a629b;}</style><clipPath id="a"><circle class="a" cx="142.61" cy="142.61" r="142.61"/></clipPath><clipPath id="b"><circle class="a" cx="178.17" cy="180.6" r="16.62"/></clipPath></defs><title>usd</title><g class="b"><g class="c"><circle class="d" cx="142.61" cy="142.61" r="142.61"/><path class="e" d="M326.52,135.8h-110l-.38,0c-1.48-4.38-2.84-8.81-4-13.32-3.95-16-2.8-33.55-12-47.76a55.9,55.9,0,0,0-94.53,0c-8.81,13.55-10.25,30.05-12.4,45.78a105.78,105.78,0,0,1-2.46,12.18c-24.74,10-37.08,27.31-41.46,46.84a82.66,82.66,0,0,0-1.94,18.13,127.29,127.29,0,0,0,.7,13.21c2.74,26.15,26.07,56,57.43,71.05l4.15,23a7.24,7.24,0,0,0-7.09,7.24v13.08a7.25,7.25,0,1,0,14.49,0,7.25,7.25,0,0,0,14.5,0,7.25,7.25,0,0,0,14.5,0V312.12a7.24,7.24,0,0,0-10.23-6.6v-10l.66.18a46.73,46.73,0,0,0,32.74.1v9.41a7.24,7.24,0,0,0-9.51,6.88v13.08a7.25,7.25,0,0,0,14.5,0,7.25,7.25,0,0,0,14.5,0,7.25,7.25,0,0,0,14.5,0V312.12a7.25,7.25,0,0,0-7.21-7.24l6-24.1a72.69,72.69,0,0,0,22.5-28.17c10-11.87,17-25.11,19.53-37.72h3a38.44,38.44,0,0,0,37.27-29h10.19a9.38,9.38,0,0,0,5.88-16.69A9.38,9.38,0,0,0,304,154.58h22.54a9.39,9.39,0,1,0,0-18.77Z"/><path class="f" d="M313.12,136.4h-110a9.38,9.38,0,0,0-7.28,15.31H173.35A9.39,9.39,0,0,0,164,161.1h0a9.36,9.36,0,0,0,3.5,7.31,9.39,9.39,0,0,0-5.74,8.65h0a9.39,9.39,0,0,0,9.39,9.39h15.39a38.44,38.44,0,0,0,37.27,29h9.84a38.44,38.44,0,0,0,37.27-29h10.19a9.39,9.39,0,0,0,9.39-9.39h0a9.36,9.36,0,0,0-3.5-7.31,9.39,9.39,0,0,0,5.74-8.65h0a9.34,9.34,0,0,0-2.11-5.92h22.54a9.39,9.39,0,0,0,0-18.77Z"/><path class="f" d="M230.34,178.71c-5.89-30.08-28.78-54.52-97.28-54.52-63.64,0-90.2,25.21-97.1,55.93A82.66,82.66,0,0,0,34,198.26a127.28,127.28,0,0,0,.7,13.21c3.84,36.67,48.18,80.72,98.34,80.72,49.89,0,94.6-45,98.4-81.93a117.43,117.43,0,0,0,.63-12A102,102,0,0,0,230.34,178.71Z"/><polygon class="g" points="122.47 314.8 97.99 314.8 89.21 266.27 122.47 276.38 122.47 314.8"/><polygon class="g" points="180.35 314.8 155.87 314.8 155.87 276.38 189.87 276.38 180.35 314.8"/><path class="a" d="M135.79,209.08a19.06,19.06,0,0,0,2.16.19,18.85,18.85,0,0,1-2.15-.19Z"/><path class="h" d="M216.43,179.17q-.09-.61-.18-1.22l-10.86-8.51-13.09,10.73-13.08-10.73-13.07,10.73-13.08-10.73L140,180.18l-.36-.29-12.72-10.43-13.07,10.73-13.07-10.73L87.71,180.17,74.64,169.45l-11.77,9.66S38.12,275,123.13,296.33a46.8,46.8,0,0,0,33,0C239.92,275.25,217.11,181.89,216.43,179.17Zm-80.35,13.74a18.59,18.59,0,0,0,2.05.18,18.8,18.8,0,0,1-2.06-.18Z"/><path class="i" d="M215.19,171.1c-5-16.15-12.28-31.52-16.35-48-3.95-16-2.8-33.55-12-47.76a55.9,55.9,0,0,0-94.53,0C83.47,88.87,82,105.37,79.88,121.1,77,142.21,66.73,161.32,61.43,181.9a4.12,4.12,0,0,0,6.7,4.15l.5-.44a4.12,4.12,0,0,1,5.43,0l8.28,7.26a4.12,4.12,0,0,0,5.43,0l8.28-7.26a4.12,4.12,0,0,1,5.43,0l8.28,7.26a4.12,4.12,0,0,0,5.43,0l8.28-7.26a4.12,4.12,0,0,1,5.43,0l8.88,7.79a3.21,3.21,0,0,0,4.23,0l8.88-7.79a4.12,4.12,0,0,1,5.43,0l8.28,7.27a4.12,4.12,0,0,0,5.43,0l8.28-7.27a4.12,4.12,0,0,1,5.43,0l8.29,7.27a4.12,4.12,0,0,0,5.43,0l8.36-7.33a4.12,4.12,0,0,1,5.36-.06h0a4.12,4.12,0,0,0,6.67-4C217.14,178,216.25,174.53,215.19,171.1Z"/><path class="j" d="M124.32,92.32a10.15,10.15,0,1,1-10.15-10.15Z"/><path class="j" d="M122.87,92.52c-.42,7.71-9.16,12.43-14.89,6.05a9.85,9.85,0,0,1-2.38-8.1,9.45,9.45,0,0,1,1.71-4.16c.9-1.23,3.92-4.16,5.54-3.56,1.77.66,4,4,5.32,5.32L123,92.86c.66.66,3.38-.41,2.7-1.09-3.08-3.08-6.11-7.2-9.67-9.67-3.76-2.6-10.14,2-12,5.3-3.78,6.63.74,14.89,8.2,15.74,6.86.78,13.22-4,13.6-11C125.82,91.05,122.92,91.65,122.87,92.52Z"/><path class="k" d="M121,92.32a6.86,6.86,0,1,1-6.86-6.86Z"/><circle class="f" cx="114.17" cy="92.23" r="3.88"/><path class="j" d="M155.45,92.32A10.15,10.15,0,1,0,165.6,82.17Z"/><path class="j" d="M154,92.71a11.29,11.29,0,0,0,14,10.4c7-1.59,11.36-9.2,8-15.84-1.87-3.74-8.22-8.27-12.12-5-3.44,2.91-6.48,6.48-9.67,9.67-1.25,1.25,1.57,1.51,2.38.69l10.15-10.15-1.72.61c7.35.4,12,8.72,7.4,14.93-5.57,7.56-15.15,1.62-15.57-6.12C156.84,90.79,153.94,91.43,154,92.71Z"/><path class="k" d="M158.75,92.32a6.86,6.86,0,1,0,6.86-6.86Z"/><circle class="f" cx="165.6" cy="92.23" r="3.88"/><path class="l" d="M159.16,91.4C157.83,89,144,82.54,139.37,82.54c-5.49,0-18,5.78-19.8,8.86-2.67,4.68-3.51,10.42-1,14.68l16.15,27.11c1.27,2.15,2.95,3.21,4.63,3.21s3.35-1.07,4.62-3.21l16.14-27.11C162.68,101.81,162.36,97.09,159.16,91.4Z"/><circle class="m" cx="133.91" cy="90.79" r="2.78"/><circle class="m" cx="144.96" cy="90.79" r="2.78"/><path class="n" d="M75,179.23l8.87-23.06a.73.73,0,0,1,1.41.36l-3.5,24.95a2.55,2.55,0,0,1-3.72,1.9l-1.86-1A2.55,2.55,0,0,1,75,179.23Z"/><path class="n" d="M101,180.62l6.66-23.79a.73.73,0,0,1,1.43.23L108,182.23a2.55,2.55,0,0,1-3.52,2.24l-1.94-.8A2.55,2.55,0,0,1,101,180.62Z"/><path class="n" d="M204.06,179.23l-8.87-23.06a.73.73,0,0,0-1.41.36l3.5,24.95a2.55,2.55,0,0,0,3.72,1.9l1.86-1A2.55,2.55,0,0,0,204.06,179.23Z"/><path class="n" d="M178.08,180.62l-6.66-23.79a.73.73,0,0,0-1.43.23l1.14,25.17a2.55,2.55,0,0,0,3.52,2.24l1.94-.8A2.55,2.55,0,0,0,178.08,180.62Z"/><path class="n" d="M142.12,180.33,139,155.82a.73.73,0,0,0-1.45,0L135,180.89a2.55,2.55,0,0,0,3.15,2.74l2-.51A2.55,2.55,0,0,0,142.12,180.33Z"/><circle class="o" cx="178.17" cy="180.6" r="22.02"/><g class="p"><rect class="q" x="154" y="151.08" width="24.18" height="59.04"/><polygon class="j" points="177.58 166.53 175.77 167.12 175.77 169.03 174.59 167.49 172.76 168.08 173.87 166.53 172.74 164.99 174.6 165.58 175.77 164.04 175.77 165.94 177.58 166.53"/><polygon class="j" points="177.58 175.99 175.77 176.58 175.77 178.49 174.59 176.95 172.76 177.53 173.87 175.99 172.74 174.45 174.6 175.04 175.77 173.5 175.77 175.4 177.58 175.99"/><polygon class="j" points="177.58 185.45 175.77 186.04 175.77 187.95 174.59 186.4 172.76 186.99 173.87 185.45 172.74 183.91 174.6 184.5 175.77 182.96 175.77 184.86 177.58 185.45"/><polygon class="j" points="177.58 194.91 175.77 195.5 175.77 197.4 174.59 195.86 172.76 196.45 173.87 194.91 172.74 193.37 174.6 193.96 175.77 192.41 175.77 194.32 177.58 194.91"/><polygon class="j" points="172.34 170.9 170.53 171.49 170.53 173.4 169.43 171.85 167.63 172.44 168.75 170.9 167.64 169.36 169.43 169.95 170.53 168.41 170.53 170.31 172.34 170.9"/><polygon class="j" points="172.34 180.36 170.53 180.95 170.53 182.85 169.43 181.31 167.63 181.9 168.75 180.36 167.64 178.82 169.43 179.41 170.53 177.86 170.53 179.77 172.34 180.36"/><polygon class="j" points="172.34 189.82 170.53 190.41 170.53 192.31 169.43 190.77 167.63 191.36 168.75 189.82 167.64 188.28 169.43 188.86 170.53 187.32 170.53 189.23 172.34 189.82"/><polygon class="j" points="167.71 175.99 165.89 176.58 165.89 178.49 164.66 176.95 162.79 177.53 163.88 175.99 162.74 174.45 164.66 175.04 165.89 173.5 165.89 175.4 167.71 175.99"/><polygon class="j" points="167.71 185.45 165.89 186.04 165.89 187.95 164.66 186.4 162.79 186.99 163.88 185.45 162.74 183.91 164.66 184.5 165.89 182.96 165.89 184.86 167.71 185.45"/><rect class="j" x="178.18" y="163.78" width="27.61" height="5.24"/><rect class="j" x="178.18" y="173.65" width="27.61" height="5.04"/><rect class="j" x="178.18" y="182.72" width="27.61" height="5.04"/><rect class="j" x="178.18" y="192.59" width="27.61" height="5.24"/></g></g></g></svg>