<svg xmlns="http://www.w3.org/2000/svg" viewBox="0 0 90.9 90.9"><title>bond</title><g id="圖層_5" data-name="圖層 5"><rect x="23.28" y="37.58" width="43.78" height="32.66" transform="translate(-0.06 0.05) rotate(-0.06)" style="fill:#b1b1b2"/><path d="M49.32,70.23l0-17.89a2.32,2.32,0,0,0-2.42-2.2H44a2.32,2.32,0,0,0-2.42,2.21l0,17.89Z" style="fill:#747374"/><rect x="30.16" y="36.25" width="7.46" height="34" transform="translate(-0.06 0.04) rotate(-0.06)" style="fill:#dcdcdd"/><polygon points="54.02 39.71 30.14 39.73 30.14 38.58 53.45 38.56 54.02 39.71" style="fill:#a6a8aa"/><rect x="53.47" y="36.23" width="7.46" height="34" transform="translate(-0.06 0.06) rotate(-0.06)" style="fill:#dcdcdd"/><rect x="53.45" y="38.55" width="13.04" height="1.15" transform="translate(-0.04 0.06) rotate(-0.06)" style="fill:#a6a8aa"/><rect x="65.94" y="36.21" width="7.46" height="34" transform="translate(-0.06 0.07) rotate(-0.06)" style="fill:#dcdcdd"/><rect x="65.92" y="38.54" width="7.46" height="1.15" transform="translate(-0.04 0.07) rotate(-0.06)" style="fill:#a6a8aa"/><rect x="18.22" y="36.26" width="7.46" height="34" transform="translate(-0.06 0.02) rotate(-0.06)" style="fill:#dcdcdd"/><rect x="18.2" y="38.59" width="11.94" height="1.15" transform="translate(-0.04 0.03) rotate(-0.06)" style="fill:#a6a8aa"/><path d="M15.39,37.44a1.27,1.27,0,0,1-1.22-.8,1.11,1.11,0,0,1,.46-1.3L44.83,15a1.38,1.38,0,0,1,1.52,0L76.27,35.27a1.11,1.11,0,0,1,.45,1.3,1.27,1.27,0,0,1-1.21.8Z" style="fill:#cfd0d2"/><path d="M45.59,16,75.51,36.21l-60.12.06L45.59,16m0-2.33a2.73,2.73,0,0,0-1.52.46L13.87,34.4A2.22,2.22,0,0,0,13,37a2.55,2.55,0,0,0,2.43,1.6l60.12-.06a2.55,2.55,0,0,0,2.43-1.6,2.22,2.22,0,0,0-.9-2.6L47.11,14.08a2.72,2.72,0,0,0-1.53-.46Z" style="fill:#eaebec"/><polygon points="45.55 19.16 22.44 34.71 68.45 34.66 45.55 19.16" style="fill:#a4a4a5"/><polygon points="45.74 15.95 46.74 16.63 17.77 36.27 15.54 36.27 45.74 15.95" style="fill:#adafb0"/></g></svg>