<?xml version="1.0" encoding="utf-8"?>
<!-- Generator: Adobe Illustrator 21.0.2, SVG Export Plug-In . SVG Version: 6.00 Build 0)  -->
<svg version="1.1" id="Layer_1" xmlns="http://www.w3.org/2000/svg" xmlns:xlink="http://www.w3.org/1999/xlink" x="0px" y="0px"
	 viewBox="0 0 612 699.5" style="enable-background:new 0 0 612 699.5;" xml:space="preserve">
<style type="text/css">
	.st0{fill:#F7F3EA;}
	.st1{fill:#938A8B;}
	.st2{fill:#545456;}
	.st3{fill:#2F302F;}
	.st4{fill:#7A7B7E;}
</style>
<g id="Layer_3">
</g>
<g id="wheel.svg">
	<path class="st0" d="M505,699.5c-57.8,0-104.9-47-104.9-104.9s47-104.9,104.9-104.9s104.9,47,104.9,104.9S562.8,699.5,505,699.5z"
		/>
	<path class="st0" d="M172.8,699.5c-57.8,0-104.9-47-104.9-104.9s47-104.9,104.9-104.9s104.9,47,104.9,104.9
		S230.6,699.5,172.8,699.5z"/>
	<g>
		<circle class="st1" cx="505" cy="594.6" r="88.9"/>
		<circle class="st2" cx="505" cy="594.6" r="78.3"/>
		<circle class="st3" cx="503.3" cy="594.6" r="54.6"/>
		<circle class="st4" cx="503.3" cy="594.6" r="42"/>
	</g>
	<g>
		<circle class="st1" cx="172.8" cy="594.6" r="88.9"/>
		<circle class="st2" cx="172.8" cy="594.6" r="78.3"/>
		<circle class="st3" cx="171.1" cy="594.6" r="54.6"/>
		<circle class="st4" cx="171.1" cy="594.6" r="42"/>
	</g>
</g>
</svg>
